<!-- Generator: Adobe Illustrator 25.2.1, SVG Export Plug-In  -->
<svg version="1.1" xmlns="http://www.w3.org/2000/svg" xmlns:xlink="http://www.w3.org/1999/xlink" x="0px" y="0px" width="33px"
	 height="25px" viewBox="0 0 33 25" style="overflow:visible;enable-background:new 0 0 33 25;" xml:space="preserve">
<defs>
</defs>
<path d="M23.3,0v1.5c-0.9-0.1-1.6-0.2-2.3-0.4c-1.7-0.4-3.5-0.6-5.2-0.6H6.9c-1.8,0-2.8,0.6-2.8,1.8c0,0.5,0.1,0.9,0.4,1.3
	C3.5,4,2.7,4.9,2.7,6c0,0.5,0.1,0.9,0.4,1.3c-1,0.3-1.7,1.2-1.8,2.3c0,0.5,0.2,1,0.5,1.3C0.7,11.3,0,12.4,0,13.6
	c0.1,1.5,1.3,2.6,2.8,2.7h9.6c-0.6,1.4-1.4,4.1-0.9,5.9c0.8,2.3,2.3,3,3.4,2.9c1.1-0.1,2-1.1,2-2.2c0-3.7,3.6-7.7,6.4-9.1v3.2H33V0
	H23.3z"/>
</svg>
