<svg xmlns="http://www.w3.org/2000/svg" xmlns:xlink="http://www.w3.org/1999/xlink" width="1400" height="1400" viewBox="0 0 1400 1400"><defs><clipPath id="a"><rect width="1400" height="1400" fill="none"/></clipPath></defs><polygon points="0 1285.58 943.44 1109.25 844.95 226.48 0 157.07 0 1285.58" fill="#e6e6e6"/><polygon points="1040.23 269.21 1008.41 1101.86 1400 1400 1400 45 1040.23 269.21" fill="#e3e3e3"/><polygon points="2.13 0 415.25 140.09 703.2 155.18 1002.19 210.22 1400 0 2.13 0" fill="#e3e3e3"/><polygon points="0 1307.42 2.13 1400 1359 1400 1081.41 1181.53 1004.07 1171.15 0 1307.42" fill="#ededed"/><polygon points="1210.62 0 929.78 125.8 950.59 125.8 1233.03 0 1210.62 0" fill="#b2b2b2"/><polygon points="1002.19 83.61 1031.33 80.34 1037.93 86.96 1033.65 111.68 1002.19 83.61" fill="#1d1d1b"/><g clip-path="url(#a)"><path d="m1036.37 108.34c-3.81 7.36-15.59 8.83-26.3 3.27s-16.29-16-12.48-23.38s15.6-8.83 26.31-3.28s16.29 16 12.47 23.39" fill="#fff"/></g><polygon points="1103.96 37.39 1133.19 34.82 1140.19 41.43 1135.41 65.46 1103.96 37.39" fill="#1d1d1b"/><g clip-path="url(#a)"><path d="m1138.14 62.11c-3.82 7.36-15.59 8.83-26.3 3.28s-16.3-16-12.48-23.39s15.59-8.83 26.3-3.27s16.3 16 12.48 23.38" fill="#fff"/></g><polygon points="807.73 0 526.89 125.8 547.71 125.8 830.14 0 807.73 0" fill="#b2b2b2"/><polygon points="599.3 83.61 628.04 80.54 634.74 87.06 630.76 111.68 599.3 83.61" fill="#1d1d1b"/><g clip-path="url(#a)"><path d="m633.48 108.34c-3.81 7.36-15.59 8.83-26.3 3.27s-16.29-16-12.48-23.38S610.3 79.4 621 85s16.29 16 12.47 23.39" fill="#fff"/></g><polygon points="701.07 37.39 730.21 34.82 737 41.53 732.52 65.46 701.07 37.39" fill="#1d1d1b"/><g clip-path="url(#a)"><path d="m735.25 62.11c-3.82 7.36-15.59 8.83-26.3 3.27s-16.3-16-12.48-23.38s15.59-8.83 26.3-3.27s16.3 16 12.48 23.38" fill="#fff"/><path d="m752.6 992.66c-24.4 191.86-196.17 328.06-383.66 304.21s-319.7-198.72-295.3-390.59s196.17-328 383.66-304.2S777 800.8 752.6 992.66" fill="#fff"/><path d="m746.21 1018.18c-15.54 122.19-107.86 211.1-206.2 198.59s-165.46-121.7-149.92-243.89S498 761.77 596.28 774.28S761.75 896 746.21 1018.18" fill="#f1f1f1"/><path d="m725.42 1015.68c-11.75 92.43-81.59 159.69-156 150.22S444.28 1073.84 456 981.41s81.58-159.69 156-150.23s125.17 92.07 113.41 184.5" fill="#77c5d5"/><path d="m705.06 1015.86c-7.21 56.75-50.08 98-95.76 92.23s-76.84-56.52-69.62-113.27s50.09-98 95.76-92.23s76.84 56.52 69.62 113.27" fill="#2e383d"/></g><polygon points="1173.69 1317.85 1159.49 1320.06 1160.11 1332.84 1172.62 1336.04 1173.69 1317.85" fill="#f0ebd6"/><polygon points="1164.94 1325.91 1164.47 1319.36 1150.37 1331.18 1140.62 1335.7 1142.43 1342.25 1155.7 1343.37 1161.93 1340.41 1170.94 1340.69 1175.86 1338.26 1173.98 1321.65 1171.39 1326.3 1164.94 1325.91"/><polygon points="1131.03 1313.96 1145.22 1316.18 1144.6 1328.96 1132.09 1332.15 1131.03 1313.96" fill="#f0ebd6"/><polygon points="1134.69 1329.79 1134.19 1322.44 1118.46 1335.68 1107.61 1340.74 1109.6 1348.09 1124.36 1349.37 1131.3 1346.06 1141.32 1346.38 1146.8 1343.66 1144.76 1325.02 1141.88 1330.23 1134.69 1329.79"/><polygon points="1123.96 1052.84 1153.16 1052.84 1182.36 1052.84 1192.24 1120.42 1183.62 1195.09 1174.17 1321.76 1159.88 1323.01 1158.62 1254.17 1158.62 1215.42 1156.94 1198.88 1159.04 1124.21 1153.16 1122.08 1147.28 1124.21 1149.38 1198.88 1147.69 1215.42 1147.69 1254.17 1146.44 1323.01 1132.15 1321.76 1122.7 1195.09 1114.08 1120.42 1123.96 1052.84" fill="#c7c7c4"/><polygon points="1124.49 902.62 1124.84 888.07 1139.04 876.36 1149.02 870.01 1166.02 876.36 1178.95 877.4 1180.56 902.62 1183.75 902.62 1183.75 914.69 1178.43 918.58 1178.43 926.4 1165.65 938.11 1165.65 949.81 1152.52 966.85 1139.39 949.81 1139.39 938.11 1126.62 926.4 1126.62 918.58 1121.29 914.69 1121.29 902.62 1124.49 902.62" fill="#f0ebd6"/><path d="m1224 1040v-10.9l-28.94-62l-13.57-5.92l-18.06-12.77l-10.83 3.69l-11.33-3.69l-18.06 12.77l-10.31 3.89l-4.05 13.68l-9 58.76l-3.35 73h13l8.13-58.34l4.7-33.69l-.65 39.51l-9.38 58.91l3.59 2.83l36.53 1.9l36.52-1.9l3.6-2.83l-8.07-50.64l3.07 5zm-18.76-6.15l-21.93 25.55l-.23-1.42l-1-60.8h2.8l6.39 7.1z" fill="#4f4a40"/><g clip-path="url(#a)"><path d="m1124.55 900.32l-2.1-10.16s-2-8.55 2.1-11.78s9.45-6 10.6-6.24s5.55-7.17 5.55-7.17s10.16.47 12.71 0a89.59 89.59 0 0 1 15.71 0c2.54.47 13.17 8.55 13.17 8.55s5.08 19.41 5.54 22.41s-.69 9.94-1.62 13.17s-3.69 17.79-3.69 17.79s2.24 7.86 1.23 8.78s-7.24 2.78-9.32 2.55s-6.92-4.16-14.2-5.55s-17.68-3.47-20.23-3.47s-2.54-7.91-1.84-10.77s-5.32-12.79-5.32-12.79z" fill="#1c1c1c"/><path d="m1163.12 886.58l-2.89 17.1s13.63 6 15.71 6s11.77 1.14 12.86-3.42s5.62-16.45 5.39-17.84s-.92-4.85-1.85-5.77s-6-1.39-8.78-1.62a74.69 74.69 0 0 0-10.16 0c-2.08.23-10.28 5.54-10.28 5.54" fill="#333"/></g><polygon points="1106.04 1109.25 1107.64 1119.01 1104.26 1135.51 1101.78 1135.51 1101.78 1125.75 1099.12 1130.54 1099.12 1140.08 1096.46 1140.08 1096.46 1121.49 1098.41 1117.23 1098.41 1109.25 1106.04 1109.25" fill="#f0ebd6"/><g clip-path="url(#a)"><path d="m1080 1155.2c.81 1.21 3.22 49.56 3.22 49.56l38.89 6.13l11.48-60.52z" fill="#f1567b"/><path d="m1118.18 1163.54s2-28.89-12.38-35m-16.44 31.87s-2-28.89 12.38-35" fill="none" stroke="#f1567b" stroke-miterlimit="10" stroke-width="2.84"/></g></svg>