<svg xmlns="http://www.w3.org/2000/svg" xmlns:xlink="http://www.w3.org/1999/xlink" width="1400" height="1400" viewBox="0 0 1400 1400"><defs><clipPath id="a"><rect width="1400" height="1400" fill="none"/></clipPath></defs><polygon points="0 171 0 1180.67 1246 1180.67 1243.63 171 0 171" fill="#f6f6f6"/><polygon points="0 0 129.61 141.75 1131.01 141.75 1400 0 0 0" fill="#e3e3e3"/><polygon points="1226.04 171.12 1224.92 1180.31 1400 1334.84 1400 22.66 1226.04 171.12" fill="#e3e3e3"/><polygon points="0 1400 124.86 1179 124.86 171.05 0 45 0 1400" fill="#e3e3e3"/><polygon points="228.72 1198.82 27.79 1400 1400 1400 1175.63 1198.82 228.72 1198.82" fill="#ededed"/><polygon points="1050.82 0 798.35 112.97 828.7 112.97 1083.51 0 1050.82 0" fill="#b2b2b2"/><polygon points="930.16 80.56 950.43 43.27 963.84 40.34 989.72 65.35 930.16 80.56" fill="#1d1d1b"/><g clip-path="url(#a)"><path d="M987.89,59.35c5.81,10.57-2,26-17.43,34.39s-32.65,6.68-38.45-3.89,2-26,17.43-34.4,32.65-6.68,38.45,3.9" fill="#fff"/></g><polygon points="257.43 0 535.57 122.93 565.92 122.93 290.12 0 257.43 0" fill="#b2b2b2"/><polygon points="434.11 90.51 413.84 53.22 400.43 50.3 374.55 75.31 434.11 90.51" fill="#1d1d1b"/><g clip-path="url(#a)"><path d="M376.38,69.3c-5.81,10.58,2,26,17.43,34.4s32.65,6.68,38.45-3.9-2-26-17.43-34.39-32.64-6.68-38.45,3.89" fill="#fff"/></g></svg>