<svg xmlns="http://www.w3.org/2000/svg" xmlns:xlink="http://www.w3.org/1999/xlink" width="1400" height="1400" viewBox="0 0 1400 1400"><defs><clipPath id="a"><rect x="213.93" y="55.18" width="952.13" height="68.2" fill="none"/></clipPath></defs><polygon points="1400 0 1135 207 235 180 0 36 0 1197 226 1251 1099 1260 1400 1400 1400 0" fill="#f6f6f6"/><polygon points="3.95 0 249.28 166.75 1103.02 166.75 1396.53 0 3.95 0" fill="#f6f6f6"/><polygon points="0 1323 0 1400 1380 1400 1103.02 1288.88 0 1323" fill="#ededed"/><rect x="213.93" y="55.72" width="952.13" height="11.21" fill="#b2b2b2"/><polygon points="415.84 104.81 436 67.4 449.34 64.47 475.08 89.55 415.84 104.81" fill="#1d1d1b"/><g clip-path="url(#a)"><path d="m473.26 83.53c5.78 10.61-2 26.05-17.33 34.5s-32.48 6.7-38.26-3.91s2-26.05 17.34-34.5s32.47-6.7 38.25 3.91" fill="#fff"/></g><polygon points="914.15 55.18 888.41 80.27 947.65 95.52 927.49 58.11 914.16 55.18 914.15 55.18" fill="#1d1d1b"/><g clip-path="url(#a)"><path d="m890.23 74.24c-5.78 10.61 2 26.06 17.34 34.51s32.47 6.69 38.25-3.91s-2-26.06-17.34-34.51s-32.48-6.69-38.25 3.91" fill="#fff"/></g></svg>