<svg xmlns="http://www.w3.org/2000/svg" xmlns:xlink="http://www.w3.org/1999/xlink" width="1400" height="1400" viewBox="0 0 1400 1400"><defs><clipPath id="a"><rect width="1400" height="1400" fill="none"/></clipPath></defs><rect width="1400" height="1400" fill="#fff"/><polygon points="37 0.49 344 230.35 1172.14 216.51 1373.14 0.49 37 0.49" fill="#ededed"/><polygon points="57 1399.51 1400 1399.51 1245 1251 57 1399.51" fill="#ededed"/><polygon points="52 192.96 52 1326.67 1254 1233 1240 273 309.31 332.44 52 192.96" fill="#f6f6f6"/><rect x="431.23" y="100.91" width="636.37" height="7.45" transform="translate(-4.45 39.36) rotate(-3)" fill="#b2b2b2"/><polygon points="567.94 143.07 580.09 117.54 588.89 115.13 606.95 130.87 567.94 143.07" fill="#1d1d1b"/><g clip-path="url(#a)"><path d="m605.53 126.94c4.22 6.84-.42 17.36-10.37 23.5s-21.45 5.58-25.67-1.26s.42-17.35 10.37-23.49s21.44-5.58 25.67 1.25" fill="#fff"/></g><polygon points="922.57 118.3 907.82 94.19 898.81 92.71 882.5 110.25 922.57 118.3" fill="#1d1d1b"/><g clip-path="url(#a)"><path d="m883.51 106.19c-3.49 7.24 2.22 17.22 12.76 22.29s21.91 3.31 25.4-3.93s-2.23-17.22-12.77-22.29s-21.9-3.26-25.39 3.93" fill="#fff"/></g><polygon points="1240 273 1254 1233 1400 1365.51 1400 180 1240 273" fill="#e3e3e3"/></svg>