<svg xmlns="http://www.w3.org/2000/svg" xmlns:xlink="http://www.w3.org/1999/xlink" width="1400" height="1400" viewBox="0 0 1400 1400"><defs><clipPath id="a" transform="translate(0 0)"><rect width="1400" height="1400" fill="none"/></clipPath></defs><polygon points="56.14 0 106 162.06 1256.07 204.86 1400 0 56.14 0" fill="#ededed"/><rect x="662.94" y="-220.23" width="7.45" height="636.37" transform="translate(522.43 756.16) rotate(-86)" fill="#b2b2b2"/><polygon points="481.86 114 497.04 90.14 506.06 88.81 522.07 106.64 481.86 114" fill="#1d1d1b"/><g clip-path="url(#a)"><path d="m521.13 102.57c3.36 7.3-2.53 17.18-13.15 22.06s-22 2.93-25.33-4.37s2.53-17.18 13.16-22.07s22-2.92 25.32 4.38" transform="translate(0 0)" fill="#fff"/></g><polygon points="836.87 132.64 825.16 106.9 816.4 104.34 798.08 119.77 836.87 132.64" fill="#1d1d1b"/><g clip-path="url(#a)"><path d="m799.57 115.86c-4.35 6.76.11 17.36 10 23.68s21.34 6 25.68-.81s-.11-17.36-10-23.68s-21.34-6-25.68.81" transform="translate(0 0)" fill="#fff"/></g><polygon points="14.71 1400 1372.44 1400 1277.42 1281.65 92.38 1213.64 14.71 1400" fill="#ededed"/><polygon points="72.47 315.11 72.47 1179.41 1348 1233.43 1348 261.09 72.47 315.11" fill="#f6f6f6"/><polygon points="0 1366.08 56.14 1188.42 56.14 234.08 0 181.11 0 1366.08" fill="#e3e3e3"/><polygon points="1330.22 261.43 1348 1233.43 1400 1325.47 1400 50.02 1330.22 261.43" fill="#e3e3e3"/></svg>