<svg xmlns="http://www.w3.org/2000/svg" xmlns:xlink="http://www.w3.org/1999/xlink" width="1400" height="1399.99" viewBox="0 0 1400 1399.99"><defs><clipPath id="a"><rect width="1400" height="1400" fill="none"/></clipPath><clipPath id="c"><rect x="211.43" y="907.06" width="150.03" height="410.6" fill="none"/></clipPath></defs><polygon points="0 0 0 1351.95 0 1399 1400 1399 1400 0 0 0" fill="#f6f6f6"/><polygon points="312 0.99 276.26 1399.99 1104.93 1399.99 987.34 0.99 312 0.99" fill="#fff"/><polygon points="1037.92 1154.62 313.64 1154.62 497.34 243.67 981.75 243.67 1037.92 1154.62" fill="#f6f6f6"/><polygon points="0 1256.76 314.48 1211.36 1094.72 1266.74 1307.47 1334.83 1400 1399 0 1399 0 1256.76" fill="#ededed"/><polygon points="334.17 0 446.39 155.04 716.19 155.04 999.27 142.9 1097.33 116.98 1164 0 334.17 0" fill="#f6f6f6"/><rect x="412.59" y="41.53" width="636.37" height="7.44" fill="#b2b2b2"/><polygon points="547.53 74.14 561.01 49.29 569.92 47.34 587.13 64 547.53 74.14" fill="#1d1d1b"/><g clip-path="url(#a)"><path d="M585.91,60c3.86,7-1.32,17.31-11.58,22.93s-21.71,4.44-25.57-2.6S550.09,63,560.34,57.41,582.05,53,585.91,60" fill="#fff"/></g><polygon points="902.98 67.97 889.5 43.12 880.59 41.17 863.38 57.84 902.98 67.97" fill="#1d1d1b"/><g clip-path="url(#a)"><path d="M864.6,53.83c-3.87,7.05,1.32,17.31,11.58,22.93s21.71,4.45,25.57-2.6-1.33-17.31-11.59-22.92-21.7-4.45-25.56,2.59" fill="#fff"/></g><polygon points="0 1334.83 79.1 1247.25 113.73 180.05 0 22.66 0 1334.83" fill="#e3e3e3"/><polygon points="330.85 1056.01 326.03 1059.37 338.1 1079.45 338.16 1082.25 342.73 1093.12 346.89 1096.86 356.07 1096.66 361.46 1092.73 361.3 1084.82 356.01 1081.88 348.79 1078.2 338.05 1054.08 330.85 1056.01" fill="#ede8cf"/><polygon points="248.04 1302.7 251.09 1287.3 262.06 1284.47 264.54 1300.94 248.04 1302.7" fill="#ede8cf"/><polygon points="298.35 1302.16 295.3 1286.77 284.34 1283.93 281.85 1300.41 298.35 1302.16" fill="#ede8cf"/><polygon points="260.69 1293.12 260.78 1295.27 257.14 1298.11 250.12 1297.78 247.09 1293.9 243.94 1293.45 242.46 1309.57 245.89 1313.97 277.2 1317.66 287.33 1316.68 293.11 1313.54 293.18 1309.89 282.78 1306.09 272.86 1300.53 266.72 1290.63 260.69 1293.12" fill="#1c1c1c"/><polygon points="280.14 1306.93 280.64 1291.97 283.52 1292.56 286.47 1296.33 292.86 1297.01 296 1294.55 295.81 1292.54 301.14 1290.54 307.23 1300.09 316.51 1305.79 326.14 1309.87 326.27 1313.28 321.19 1315.9 312.06 1316.29 283.48 1311.21 280.14 1306.93" fill="#1c1c1c"/><g clip-path="url(#c)"><path d="M288.41,974.55a51.67,51.67,0,0,1,0-6l1.59-9.19,5.84,1.32,4.44-1.27,1.15-2.41.49-5.23,1.74-2.54-1.32-1.73,2.12-1.13-1.19-3.23,3-.62,1.14-1.63-4.67-7.91-.75-2.37.15-3.51L301,921.82l-2.69-5-2-.89h-17.6l-11.92,26.74,5.35,16.25-8.22,10.59,2.36,18.15,26.87,5.18Z" fill="#ede8cf"/></g><polygon points="276.89 907.06 270.78 907.75 263.35 910.85 260.72 913.02 259.55 913.29 257.6 914.76 253.76 920.6 251.82 920.6 251.82 921.69 249.66 922.07 246.33 923.7 242.19 931.82 240.91 936.31 239.22 966.23 240.56 972.35 242.61 968.52 244.24 982.99 243.31 991.12 246.64 988.25 249.34 983.9 252.06 976.76 252.98 970.92 252.68 944.67 251.51 938.32 250.35 932.75 250.27 927.87 251.75 926.48 251.75 927.56 253.37 927.56 253.37 926.95 254.22 926.95 253.6 936.46 254.22 941.18 255.69 945.75 258.79 948.61 264.87 951.45 267.43 956.48 274.05 959.92 275.99 953.71 275.13 949.17 276.95 943.33 274.17 938.99 275.31 935.34 278.54 935.28 281.46 936.19 283.36 938.65 285.79 939.41 287.38 934.3 284.72 929.99 287.26 919.3 298.18 916.83 296.44 913.22 288.86 909.25 283.69 907.63 283.66 907.67 276.89 907.06" fill="#1c1c1c"/><polygon points="318.33 985.66 327.51 1030.1 334.96 1047.82 339.65 1057.46 327.08 1062.2 312.56 1034.91 296.56 972.78 315.5 979.62 318.33 985.66" fill="#4f4a40"/><polygon points="257.87 970.92 254.91 972.27 235.99 975.53 213.61 1015.57 211.43 1027.33 223.71 1047.17 242.72 1059.62 247.76 1046.84 229.6 1024.97 243.17 999.79 243.36 1000.76 249.29 1027.15 249.26 1041.64 244.89 1091.8 254.91 1091.97 281.67 1092.76 281.75 1092.45 299.03 1092.76 299.88 1090.37 298.18 1063.68 299.88 1041.63 302.88 1028.63 307.05 1016.06 306.62 1013.95 303.98 1000.76 315.08 985.08 312.4 978.96 296.72 970.93 288.3 970.93 288.69 985.08 281.8 985.08 263.83 966.34 257.87 970.92" fill="#4f4a40"/><g clip-path="url(#c)"><path d="M280.3,1104.77l-4.42,90.43-10.1,95.43H246.22v-65.91l6.94-33.44-11.54-71.46s-6.25-13.25-1.5-24.88a162.48,162.48,0,0,0,6.06-17.92l53.22,14.16L318.84,1190V1209l-20.24,81.68H279l13.25-85.47-30.92-96.62" fill="#c7c7c4"/><path d="M288,970.93c2.36-.07,14.43.45,17.32,9.14,1.7,5.11,12.43,71.47,12.43,71.47" fill="none" stroke="#f1567b" stroke-miterlimit="10" stroke-width="5.67"/></g><polygon points="304.48 1050.66 347.42 1043.63 347.42 1121.63 305.39 1121.63 299.4 1091.18 298.18 1063.68 299.11 1051.54 304.48 1050.66" fill="#f1567b"/><polygon points="257.4 1040.39 249.85 1062.2 265.5 1067.93 275.86 1041.65 260.97 1030.53 257.4 1040.39"/><polygon points="237.49 1056.19 254.01 1071.26 259.88 1071.26 272.34 1063.87 272.34 1059.28 267.4 1052.14 252.48 1052.14 240.35 1038.12 237.49 1056.19" fill="#ede8cf"/><path d="M800.59,662,650.92,960.86H950Zm0-66.22,197.88,395.8H602.42Z" fill="#9b9782"/><polygon points="731.09 718.39 747.68 685.27 661.24 512.37 463.03 908.17 635.98 908.17 651.28 877.63 511.53 877.47 661.2 578.59 731.09 718.39" fill="#b0ad9c"/><polygon points="755.91 768.04 810.62 877.99 700.56 877.99 684.74 908.77 791.76 908.77 859.12 908.17 772.5 734.92 755.91 768.04" fill="#b0ad9c"/><polygon points="597.32 869.63 661.25 741.97 725.98 871.43 759.13 871.44 661.29 675.74 564.22 869.6 597.32 869.63" fill="#c1bfb1"/><polygon points="781.75 916.68 748.51 916.51 810.67 1040.84 511.58 1040.84 574.36 915.48 541.24 915.48 463.09 1071.55 859.17 1071.55 781.75 916.68" fill="#c1bfb1"/></svg>