<svg xmlns="http://www.w3.org/2000/svg" xmlns:xlink="http://www.w3.org/1999/xlink" width="1400" height="1400" viewBox="0 0 1400 1400"><defs><clipPath id="a"><rect width="1400" height="1400" fill="none"/></clipPath></defs><polygon points="1210.26 178.98 716.49 270 716.49 1062 1400 1197 1400 27 1210.26 178.98" fill="#f6f6f6"/><polygon points="0 1197 545.61 1107 545.61 270 0 208 0 1197" fill="#f6f6f6"/><polygon points="0 2.87 310.61 156.79 578.95 166.29 683.76 125.58 1102.98 125.58 1399 0 0 2.87" fill="#f6f6f6"/><polygon points="0 1292 0 1400 1399 1400 1399 1323 707.49 1134 0 1292" fill="#ededed"/><polygon points="879.96 128.02 900.78 128.02 1179.54 4.32 1157.11 4.32 879.96 128.02" fill="#b2b2b2"/><polygon points="952.42 85.91 981.48 83.14 988.28 89.64 983.9 113.93 952.42 85.91" fill="#1d1d1b"/><g clip-path="url(#a)"><path d="m986.63 110.59c-3.82 7.35-15.6 8.81-26.32 3.27s-16.31-16-12.49-23.35s15.61-8.81 26.32-3.27s16.31 16 12.49 23.35" fill="#fff"/></g><polygon points="1054.27 39.76 1083.33 37 1090.13 43.5 1085.75 67.78 1054.27 39.76" fill="#1d1d1b"/><g clip-path="url(#a)"><path d="m1088.48 64.44c-3.82 7.35-15.61 8.82-26.32 3.27s-16.31-16-12.49-23.34s15.6-8.82 26.32-3.27s16.31 16 12.49 23.34" fill="#fff"/></g><polygon points="499.73 128.02 478.91 128.02 200.15 4.32 222.58 4.32 499.73 128.02" fill="#b2b2b2"/><polygon points="427.27 85.91 398.21 83.14 391.4 89.64 395.79 113.93 427.27 85.91" fill="#1d1d1b"/><g clip-path="url(#a)"><path d="m393.06 110.59c3.81 7.35 15.6 8.81 26.32 3.27s16.31-16 12.49-23.35s-15.61-8.81-26.32-3.27s-16.31 16-12.49 23.35" fill="#fff"/></g><polygon points="325.42 39.76 296.36 37 289.56 43.5 293.94 67.78 325.42 39.76" fill="#1d1d1b"/><g clip-path="url(#a)"><path d="m291.21 64.44c3.82 7.35 15.6 8.81 26.32 3.27s16.31-16 12.49-23.34s-15.6-8.82-26.32-3.27s-16.31 16-12.49 23.34" fill="#fff"/></g><polygon points="747.45 822.28 758.38 838.68 752.92 851.17 747.45 863.66 738.47 885.48 717.79 885.48 717.79 847.47 717.79 827.75 747.45 822.28" fill="#f0ebd6"/><path d="m702.17 813.36v28.44l7.81 16l11.32 4.32h9.76s8.58-14.84 10.93-16.4s16.39-14.83 16.39-14.83s-1.56-17.84 0-17.51s3.91-4.35 0-6.69s-18.74-7.81-19.91-7.81H721.3c-3.51 0-19.13 14.5-19.13 14.5" fill="#1c1c1c"/><polygon points="671.72 1014.89 675.62 1037.54 702.17 1047.68 705.29 1035.97 671.72 1014.89" fill="#f0ebd6"/><polygon points="777.77 1021.38 783.36 1051.67 789.61 1069.55 789.61 1014.89 777.77 1021.38" fill="#f0ebd6"/><path d="m717.79 871.24l28.88 3.13a59.22 59.22 0 0 1 25.76 15.8c11.71 12.3 17.18 51.6 17.18 51.6v84.29l-10.93 4.79l-8.59-89.08l13.27 117.69h-94.85l-5.86-99l-7 27.06l10.93 38.49h-21.11L653 986l24.21-95.84z" fill="#1c1c1c"/><polygon points="702.17 1267.21 699.05 1301.41 713.1 1301.41 713.1 1267.21 702.17 1267.21" fill="#f0ebd6"/><polygon points="764.63 1267.21 767.75 1301.41 783.36 1305.32 782.42 1267.21 764.63 1267.21" fill="#f0ebd6"/><polygon points="766.58 1294.66 761.89 1315.89 783 1315.89 786.1 1310.43 779.91 1294.66 766.58 1294.66" fill="#1c1c1c"/><polygon points="689.78 1302.17 681.14 1306.05 672.15 1308.41 672.05 1311.5 676.82 1314.59 685.35 1316.22 712.02 1315.61 715.12 1312.19 714.57 1298.51 711.89 1298.65 709.16 1301.66 703.19 1301.38 700.24 1298.71 700.4 1296.9 695.41 1294.33 689.78 1302.17" fill="#1c1c1c"/><path d="m693.58 1026.06v259s29.67 1.56 27.72 0s16-178 16-178l19.52 178.69h26.54l-13.27-259.65z" fill="#1c1c1c"/><polygon points="720.02 1016.92 723.98 1086.07 809.13 1064.25 785.28 997.76 720.02 1016.92" fill="#4f4a40"/><path d="m729.1 1020.82s-54.64-151.71-27.39-144.6" fill="none" stroke="#4f4a40" stroke-miterlimit="10" stroke-width="3.19"/></svg>