<svg xmlns="http://www.w3.org/2000/svg" width="1400" height="1400" viewBox="0 0 1400 1400"><rect width="1400" height="1400" fill="#fff"/><polygon points="0 1325 433.27 1162.53 382.71 261.34 0 50 0 1325" fill="#e3e3e3"/><polygon points="1292.05 1162.53 475.13 1162.53 535.32 261.34 1223.26 261.34 1292.05 1162.53" fill="#f6f6f6"/><polygon points="99 0 496.45 84.22 514.01 138.97 1313.52 84.72 1400 1.17 99 0" fill="#f6f6f6"/><polygon points="433.27 1212.53 0 1400 1400 1400 1400 1292 1323.58 1212.53 433.27 1212.53" fill="#ededed"/><polygon points="1400 208 1400 1197 1316 1161 1280 270 1400 208" fill="#f6f6f6"/><rect x="514.01" y="49.23" width="636.36" height="7.44" fill="#b2b2b2"/><polygon points="648.96 81.81 662.43 56.58 671.35 55.03 688.55 71.68 648.96 81.81" fill="#1d1d1b"/><path d="m687.34 67.68c3.86 7-1.33 17.3-11.59 22.9S654.05 95 650.18 88s1.33-17.29 11.59-22.9s21.71-4.45 25.57 2.59" fill="#fff"/><polygon points="1004.4 75.64 990.93 50.82 982.01 49.17 964.81 65.52 1004.4 75.64" fill="#1d1d1b"/><path d="m966 61.52c-3.86 7 1.33 17.29 11.59 22.9s21.7 4.45 25.56-2.59s-1.32-17.3-11.58-22.9s-21.69-4.45-25.57 2.59" fill="#fff"/><polygon points="346.63 813.98 346.63 1254.09 835.03 1306.27 810.19 748.09 346.63 813.98" fill="#f1567b"/><polygon points="810.19 748.09 1067.16 783.8 1047.34 1255.87 835.03 1306.27 810.19 748.09" fill="#f693ab"/><path d="m919.6 465s4.49 10.25 4.49 13s6 13.93 6 13.93h4.38l8-4l5.18.8l6 1.19s8-6.37 9.17-6.77s7.18-6.76 7.18-6.76l7.18-12.34l3.59-7.17l-10-10l-10.3-.75l-6.6 7.61s-3.22-.74-3.22-1.94s-4.13-5.67-4.13-5.67s-4 1.59-4 2.79s-2.4 8.36-2.4 8.36v5.57z" fill="#ede8cf"/><path d="m935.31 462h6l2.39-9.15l3.17-3.18l4.41 6.16l2.24 1.7s7.61-10.28 8.55-9.95s2.76-.1 5.56 0s7.93 6.95 8.34 7.21s4.42 10.8 4.42 10.8l4-11.14s.4-9.16 0-10.75s-5.18-7.17-7.18-8.36s-8-4.38-11.56-4.38s-9.17-1.2-11.56 0s-10 3.58-10.77 5.57s-4.78 9.56-5.18 10.35s-2.8 10.35-2.8 10.35z" fill="#1c1c1c"/><path d="m919.77 465.58c-1.2-.39-22.34 1.6-23.53 0s-44.24 20.31-58.62 40.61a68.12 68.12 0 0 0-12 42.6l-.14 16.6h15.7l9.17-36.9l17.94-17.12l-23.21 60.94l44.75 10.8l19.94-.7l17.14-28.54l8.37-12.25l-10 40.21l7.57 27.47h11.17c1.2 0 3.19 2 3.19 2v-52.95s12.54-29.07 12.65-41s0-18.31 0-18.31l-6.67-8.36l-25-.86z" fill="#1d1d1b"/><path d="m919.77 465.58c-1.2-.39-22.34 1.6-23.53 0s-44.24 20.31-58.62 40.61a68.12 68.12 0 0 0-12 42.6l-.14 16.6h15.7l9.17-36.9l17.94-17.12l-23.21 60.94l44.75 10.8l19.94-.7l17.14-28.54l8.37-12.25l-10 40.21l7.57 27.47h11.17c1.2 0 3.19 2 3.19 2v-52.95s12.54-29.07 12.65-41s0-18.31 0-18.31l-6.67-8.36l-25-.86z" fill="none" stroke="#1c1c1c" stroke-miterlimit="10" stroke-width="1.84"/><polygon points="844.88 576.41 887.51 587.32 909.97 585.97 916.97 666.4 916.97 693.3 910.14 750.28 892.13 749.46 889.06 680.37 881.48 618.85 869.52 705.4 866.8 743.67 845.99 744.66 845.99 620.45 844.88 576.41" fill="#1d1d1b"/><polygon points="844.88 576.41 887.51 587.32 909.97 585.97 916.97 666.4 916.97 693.3 910.14 750.28 892.13 749.46 889.06 680.37 881.48 618.85 869.52 705.4 866.8 743.67 845.99 744.66 845.99 620.45 844.88 576.41" fill="none" stroke="#1d1d1b" stroke-miterlimit="10" stroke-width="1.84"/><polygon points="935.31 608.54 947.29 611.79 956.61 626.57 959.93 633.14 953.87 633.14 941.81 616.72 933.03 613.98 935.31 608.54" fill="#ede8cf"/><polygon points="825.51 569 841.01 567.61 842.41 589.02 838.21 591.12 837.75 600.2 823.99 589.26 825.51 569" fill="#ede8cf"/><polygon points="850.29 744.66 845.99 753.07 878.21 757.54 878.21 751.1 869 748.09 865.14 744.66 850.29 744.66" fill="#1d1d1b"/><polygon points="850.29 744.66 845.99 753.07 878.21 757.54 878.21 751.1 869 748.09 865.14 744.66 850.29 744.66" fill="none" stroke="#1d1d1b" stroke-miterlimit="10" stroke-width="1.84"/><polygon points="891.68 751.1 887.39 759.51 919.6 763.99 919.6 757.54 910.39 754.54 906.54 751.1 891.68 751.1" fill="#1d1d1b"/><polygon points="891.68 751.1 887.39 759.51 919.6 763.99 919.6 757.54 910.39 754.54 906.54 751.1 891.68 751.1" fill="none" stroke="#1d1d1b" stroke-miterlimit="10" stroke-width="1.84"/></svg>