<svg xmlns="http://www.w3.org/2000/svg" width="525.96" height="420.54" viewBox="0 0 525.96 420.54"><path d="m18.09 308H175.4s-2.65-22-78.66-22s-78.65 22-78.65 22" fill="#c7c7c4"/><path d="m188.66 308H346s-2.68-22-78.69-22s-78.65 22-78.65 22" fill="#c7c7c4"/><path d="m357.46 308h157.31s-2.65-22-78.66-22s-78.65 22-78.65 22" fill="#c7c7c4"/><polygon points="205.94 263.08 205.94 285.59 221.8 293.12 232.58 300.64 240.82 296.62 229.41 281.86 215.46 258.09 205.94 263.08" fill="#f0ebd6"/><polygon points="364.39 374.87 364.39 395.22 375.95 402.03 383.81 408.82 389.81 405.18 381.49 391.84 371.33 370.36 364.39 374.87" fill="#f0ebd6"/><polygon points="129.52 41.85 148.07 62.78 129.52 79.78 129.52 104.29 111.47 98.09 94.12 73.07 84.47 48.4 89.79 8.73 129.52 41.85" fill="#f0ebd6"/><polygon points="129.23 89.9 178.34 104.29 205.45 214.56 225.57 269.69 197.33 269.69 170.07 179.8 165.57 300.64 62.79 296.99 55 231.34 32.83 228.94 24.9 187.75 55 113.88 91.04 89.9 129.23 89.9" fill="#1c1c1c"/><polygon points="77.69 17.85 89.79 0 122.89 5.23 148.07 26.16 148.07 62.78 124.28 79.18 95.5 63.53 92.71 44.64 77.69 31.74 77.69 17.85" fill="#1c1c1c"/><polygon points="125.24 374.72 136.5 407.35 152.23 401.79 142.58 365.69 125.24 374.72" fill="#f0ebd6"/><polygon points="412.17 263.31 419.5 286.44 433.56 285.73 422.01 258.09 412.17 263.31" fill="#f0ebd6"/><polygon points="84.45 331.7 142.58 331.7 146.91 375.41 125.24 383.74 84.45 331.7" fill="#4f4a40"/><polygon points="174.65 331.7 180.81 369.86 170.16 369.86 151.53 347.02 150.32 331.7 174.65 331.7" fill="#4f4a40"/><polygon points="138.73 401.79 128.06 416.57 138.73 416.57 146.91 420.54 159.01 414.28 161.7 407.35 161.7 401.79 138.73 401.79" fill="#1c1c1c"/><path d="m170 373.33v14.06s3.26 4.9 6.86 4.17s8.47-9.08 8.47-9.08l7.45-18.17l-5.66-6.59z" fill="#1c1c1c"/><polygon points="363.94 413.7 360.94 396.71 364.33 396.17 368.55 399.16 375.93 397.22 378.89 393.15 378.19 390.98 383.74 386.49 392.87 394.64 404.7 397.13 416.54 397.66 417.5 401.44 412.38 406.51 402.17 410.77 368.72 417.09 363.94 413.7" fill="#1c1c1c"/><polygon points="294.36 46.05 285.8 68.24 294.36 78.15 311.49 88.32 313.87 78.15 313.87 53.45 313.87 40.77 304 36.54 294.36 46.05" fill="#f0ebd6"/><polygon points="307.18 146.37 321.22 134.74 348.82 171.23 356.31 191.28 333.73 207.72 307.18 146.37" fill="#f0ebd6"/><polygon points="298.04 248.27 386.5 197.87 404.05 199.86 436.11 275.78 413.4 285.96 386.5 236.99 314.25 289.92 262.98 289.92 243.35 270 298.04 248.27" fill="#1c1c1c"/><path d="m288.38 240.6l80.45 29.4l9.75 19.92s-20.3 12.73-21.12 18.1H346s-16.83-18.1-31.72-18.1s-40.49-38.5-40.49-38.5z" fill="#1c1c1c"/><polygon points="386.5 323.61 382.23 383.74 360.29 383.74 348.71 315.79 386.5 323.61" fill="#1c1c1c"/><path d="m267.46 112.55l-16.06 24.3s-4.28 41.22 0 48.61s-1.49 27.48 0 32.76s-6.78 30.65-6.78 30.65L243.35 270l70.52-15.47l-6.69-43.7l19.16-2.12s9.63-1.05 12.85-2.11s17.12-15.32 17.12-15.32l-35.09-47l-14-46.5z" fill="#77c5d5"/><path d="m276 24.84s-10.71 19-11.78 23.25s-5.36 30.64-8.56 33.81s-15 7.4-11.78 13.74s12.31 24.3 15.79 27.47s15.26 4.23 21.68 0s31.05-16.9 31.05-16.9l6.43-10.57s5.35-10.56 0-12.68s-9.65-12.68-9.65-12.68l2.15-14.8l3.21-14.79l-5.34-15.85s-19.26-11.62-33.18 0" fill="#1c1c1c"/><polygon points="0 308.02 0 416.94 12.9 416.94 12.9 332.06 510.19 332.06 510.19 416.94 525.96 416.94 525.96 308.02 0 308.02" fill="#1c1c1c"/></svg>