<svg xmlns="http://www.w3.org/2000/svg" width="573.77" height="190.63" viewBox="0 0 573.77 190.63"><polygon points="0 190.63 573.66 190.63 573.77 132.4 538.94 132.33 472.02 132.2 459.71 140.49 392.78 140.36 380.47 148.65 301.25 148.5 234.33 148.36 222.05 140.02 194.73 139.97 182.46 131.62 0.11 131.26 0 190.63" fill="#e8e5c7"/><rect x="259.35" y="107.52" width="5.69" height="6.99" transform="translate(150.68 373) rotate(-89.89)" fill="#fff"/><rect x="361.91" y="105.47" width="49.36" height="91.51" transform="translate(234.62 537.52) rotate(-89.89)" fill="#c7c7c4"/><polygon points="437.88 126.65 335.44 126.44 340.98 88.06 432.49 88.25 437.88 126.65" fill="#4f4a40"/><path d="M554.73,92.58v-.07h0v-.06h0l-15.67-7.8c0-.23.07-.46.07-.69a5.59,5.59,0,0,0-3.48-5.19l-1.43-18h0v-.25a.09.09,0,0,1,0-.07.41.41,0,0,0-.54-.22h-.07l-.06.05h0v.07h0l-1.5,18a5.54,5.54,0,0,0-4.17,5.37,1,1,0,0,0,0,.25l-15.32,9h-.1a.4.4,0,0,0,0,.59h.38L529,87a5.42,5.42,0,0,0,7.62,1,5.13,5.13,0,0,0,.73-.67l16.75,5.48h.13a.42.42,0,0,0,.41-.42m-18.38-8.83h0a3,3,0,1,1-2.9-3,3,3,0,0,1,2.9,3"/><polyline points="532.23 88.92 530.47 132.79 536.62 132.8 534.6 88.95"/><path d="M478.91,101.08,461.18,88.3,440.67,97l.7,19.87,6.09,7,9.89,11.28v.7L454,132.4l-.56.56,3.88,5.19L457,149.33l-3.07-3.06-.56.56,3.56,5.22-.47,18.51,4.33-2.46-1.34-21.22,4.09-5.43-.58-1-3.68,3.65L458.7,135c4.09-.92,17.6-3.94,17.88-3.66l2-26.09-8.33-1.94,8.61-1.61Z" fill="#4f4a40"/><rect x="182.05" y="38.26" width="91.51" height="137.11" fill="#c7c7c4"/><path d="M123.85,81.14l14.57-10.42,16.79,7.19,1.23,13.2-4.51,12.81-10.5,5.17.06,2.52.2,9.16,2.52-2.46.46.47L141.73,123l.33,15.18-3.54-2,1.17-17.39-3.35-4.46.49-.81,3,3,.51-7.45c-3.36-.77-13.81-7.09-14-6.87l-2.17-17.58L129.47,83l-5.56-1.23Z" fill="#4f4a40"/><polygon points="182.71 0 177.18 38.38 279.61 38.58 274.23 0.18 182.71 0" fill="#4f4a40"/><path d="M54.26,119.09s-2.12,2.9-2.86,3.17c0,0,2.61,3.12,5.21,4a19.81,19.81,0,0,1,1.12-4c.58-1-3.47-3.18-3.47-3.18" fill="#f0f0de"/><path d="M63.44,135.25l.35-1.31-2.71-2.27-2.89-6.18-1.2-.6a6.58,6.58,0,0,1-2.83-.83,19.34,19.34,0,0,1-2.47-2.8l-.52.12-1.56,1.05s-.64,1.33-.72,1.66a3.16,3.16,0,0,0-.5-.22L46.94,126l5.33,3.48.6-.81,3.8,3.47,6.58,4.11.34-.85Z"/><path d="M95.81,157.71a18.93,18.93,0,1,1,18.88-19v.09a18.92,18.92,0,0,1-18.88,18.89m.07-36.25A17.33,17.33,0,1,0,113.1,138.9v-.08a17.33,17.33,0,0,0-17.22-17.36" fill="#fff"/><polygon points="53.35 104.46 66.38 108.19 62.01 112.09 53.76 119.76 59.28 123.72 74.41 110.14 74.84 105.54 62.41 94.45 59.02 94.45 53.35 104.46"/><path d="M37.87,157.59a18.92,18.92,0,1,1,18.89-19v.07a18.9,18.9,0,0,1-18.89,18.88m.07-36.25a17.33,17.33,0,1,0,17.23,17.43v-.07a17.3,17.3,0,0,0-17.23-17.36" fill="#fff"/><path d="M38,120.08a18.59,18.59,0,1,1-18.57,18.61v-.06A18.58,18.58,0,0,1,38,120.08m0-1.19a19.78,19.78,0,1,0,19.66,19.9v-.08A19.74,19.74,0,0,0,38,118.89h0"/><path d="M95.88,120.19a18.6,18.6,0,1,1-18.56,18.64v-.08a18.6,18.6,0,0,1,18.56-18.56m0-1.19a19.79,19.79,0,1,0,19.67,19.91v-.09A19.74,19.74,0,0,0,95.89,119h0"/><path d="M54.2,112c-.83-3.41-1.87-6.76-2.7-10.18-.27-1.11-2-.64-1.72.48.83,3.41,1.87,6.76,2.7,10.18.27,1.11,2,.64,1.72-.48" fill="#b2b2b2"/><path d="M97.5,139.84s-6-15.83-9.11-23.73a.61.61,0,0,0-.07-.14v-.16c-.42-1.07-1.24-3.21-1.24-3.21l-.5-.6,0-.26L84,105.3c1.39.06,3.8.22,3.8.22V104l-4.9-.19-.67.88a1.8,1.8,0,0,0,.08.21s1.84,4.8,2.78,7.19L53.23,112h0a.43.43,0,0,0-.52.22c-5,9.16-15.16,27.33-15.16,27.33l.56.82S54,141.91,62,142.61a.39.39,0,0,0,.44-.29c7.79-8,16.85-17.07,21.73-22l3.16-3.17c3,7.67,9,23.19,9,23.19ZM61,141.57c-7.43-.67-14.86-1.43-22.3-2.08,4.72-8.61,9.55-17.15,14.28-25.76,1.5,5.18,6.79,23.56,8,27.84m22-22.3c-4.69,4.71-13.24,13.29-20.82,21l-7.71-26.76,30.89.07c.3.78.6,1.57.91,2.36L83,119.27"/><rect x="66.69" y="149.26" width="0.96" height="4.39" transform="translate(-84.39 218.39) rotate(-89.91)"/><path d="M61.66,143.6A1.63,1.63,0,1,1,63.29,142v0a1.64,1.64,0,0,1-1.63,1.63m0-2.3a.67.67,0,1,0,.66.68h0a.67.67,0,0,0-.65-.67h0" fill="#fff"/><path d="M70.75,68.46V68.3c.15-.87,1-5,2.37-6.39,2.34-2.3,6.54-2.39,9.54,2.36-.42,1.84-1.06,4.45-1.06,4.45l-1.3.3v2.15l-.83.07L76.7,74.13l-2.59-2L72.94,73l-3-3.81Z" fill="#f0f0de"/><polygon points="74.25 66.94 74.91 67.29 77.66 64.9 81.06 66.11 83.2 65.15 79.42 59.82 73.88 59.97 71.05 62.7 70.62 66.71 71.48 68.21 73.2 68.44 73.2 67.92 72.15 66.55 72.37 65.1 73.67 64.64 74.25 66.94"/><path d="M87.78,114.3H86.71v-1.53h1.08a3.62,3.62,0,0,0,0-7.24V104a5.16,5.16,0,0,1,0,10.31"/><path d="M61.56,148.57a6.63,6.63,0,1,1,6.61-6.65V142a6.62,6.62,0,0,1-6.61,6.61m0-12.3A5.67,5.67,0,1,0,67.22,142a5.67,5.67,0,0,0-5.66-5.69"/><path d="M54.1,139.42s0,3.59-.39,4.26c0,0,4,.92,6.53,0a18.71,18.71,0,0,1-1.47-3.83c-.14-1.15-4.67-.44-4.67-.44" fill="#f0f0de"/><path d="M42.9,97.59l6,9.54L53.33,116v12.1l.41,11.9,5.73.4s1.45-21.46,1.31-26c-.11-3.47-3.9-20.35-3.9-20.35l-12.3-1.41Z"/><polygon points="69.72 150.73 69.57 149.38 66.21 148.27 61.26 143.59 59.92 143.47 56.99 143.76 53.67 142.06 53.22 142.36 52.16 143.92 52.1 145.73 51.92 145.74 51.56 147.37 57.31 149.12 57.47 148.49 62.27 150.31 69.87 151.68 69.88 150.76 69.72 150.73"/><path d="M83,100.66l1,2.56,2.17,2.57,2.17.19,3-1.73a1.7,1.7,0,0,0,0-1.29c-.32-.5-1.27-1.59-1.27-1.59s-2.49-.38-2.83-.38a4.07,4.07,0,0,1-2.07-.9c-.31-.45-1.78-.45-1.78-.45Z" fill="#f0f0de"/><polygon points="82.28 101.36 82.84 101.97 85.83 99.77 84.89 98.91 82.28 101.36" fill="#f5f5f5"/><polygon points="75.47 87.41 73.58 82.27 72.76 74.8 73.53 72.43 69.07 67.95 67.49 69.46 65.13 69.29 41.85 93.5 41.77 98.97 59.61 104.47 59.61 98.29 68.61 89.44 82.52 101.78 85.83 99.5 75.47 87.41"/><polygon points="314.9 154.68 316.55 181.25 333.63 181.28 335.39 154.72 314.9 154.68"/><path d="M334.54,150.44h-6v-1.72h-6.83v1.71h-6l-.86,3.43h20.49Zm-6.83,0h-5.12v-.85h5.12Z"/><polygon points="323.42 168.48 323.43 167.52 320.1 169.94 323.42 172.36 323.42 171.4 330.05 169.96 323.42 168.48" fill="#fff"/><polygon points="323.98 163.85 324.82 164.3 324.26 160.22 320.57 162.02 321.41 162.47 319.57 169.03 323.98 163.85" fill="#fff"/><polygon points="330.67 164.86 329.85 165.34 325.25 160.32 327.33 166.81 326.5 167.29 330.25 168.96 330.67 164.86" fill="#fff"/><rect x="234.81" y="6.27" width="12.91" height="11.56" transform="translate(228.75 253.29) rotate(-89.89)"/><rect x="234.68" y="20.69" width="13.11" height="11.56" transform="translate(214.3 267.65) rotate(-89.89)"/><rect x="247.75" y="6.3" width="12.91" height="11.56" transform="translate(241.64 266.26) rotate(-89.89)"/><polygon points="261.41 5.64 261.39 18.55 271.4 18.57 269.44 5.66 261.41 5.64"/><rect x="247.62" y="20.72" width="13.11" height="11.56" transform="translate(227.19 280.62) rotate(-89.89)"/><polygon points="261.39 19.95 261.36 33.06 273.58 33.09 271.6 19.97 261.39 19.95"/><polygon points="187.49 5.49 185.59 18.4 195.09 18.42 195.12 5.51 187.49 5.49"/><rect x="195.81" y="6.2" width="12.91" height="11.55" transform="translate(189.9 214.22) rotate(-89.89)"/><rect x="209.02" y="5.53" width="11.54" height="12.91"/><rect x="221.78" y="6.17" width="12.91" height="11.71" transform="translate(215.77 240.24) rotate(-89.89)"/><polygon points="185.39 19.8 183.47 32.91 195.06 32.93 195.09 19.82 185.39 19.8"/><rect x="195.68" y="20.61" width="13.11" height="11.55" transform="translate(175.46 228.57) rotate(-89.89)"/><rect x="208.99" y="19.8" width="11.54" height="13.11"/><rect x="221.65" y="20.58" width="13.11" height="11.71" transform="translate(201.33 254.59) rotate(-89.89)"/><polygon points="494.97 176.44 492.88 176.77 492.96 178.66 494.81 179.14 494.97 176.44" fill="#f0f0de"/><polygon points="494.71 178.57 494.92 177.5 497.62 179.66 499.55 180.55 499.06 181.61 496.3 181.61 495.07 181.02 493.21 180.94 492.24 180.47 492.92 177.74 493.37 178.55 494.71 178.57"/><polygon points="488.33 176.43 490.43 176.76 490.33 178.66 488.48 179.13 488.33 176.43" fill="#f0f0de"/><polygon points="488.59 178.56 488.38 177.48 485.67 179.64 483.74 180.52 484.23 181.58 486.98 181.59 488.21 181.01 490.08 180.94 491.05 180.46 490.38 177.73 489.92 178.54 488.59 178.56"/><polygon points="486.91 137.06 491.77 137.07 496.63 137.08 498.26 147.12 496.8 158.21 495.19 177.02 492.81 177.2 492.62 166.98 492.63 161.22 492.36 158.76 492.73 147.67 491.75 147.35 490.77 147.67 491.1 158.76 490.82 161.22 490.81 166.97 490.58 177.2 488.2 177.01 486.66 158.19 485.25 147.09 486.91 137.06" fill="#c7c7c4"/><polygon points="487.63 114.61 487.69 112.45 489.79 110.72 491.26 109.78 493.77 110.73 495.69 110.88 495.92 114.63 496.39 114.63 496.38 116.42 495.6 117 495.6 118.15 493.7 119.89 493.7 121.63 491.75 124.15 489.82 121.62 489.82 119.88 487.94 118.14 487.94 116.98 487.15 116.4 487.16 114.61 487.63 114.61" fill="#f0f0de"/><path d="M504.29,135.23v-1.61l-5.05-9.21-2.38-.88-3.16-1.9-1.95,2.52-1.93-2.53-3.17,1.89-1.81.57-.71,2-1.6,8.71-.61,10.83h2.27l1.44-8.65.84-5-.13,5.86-1.66,8.74.63.42,6.4.3,6.4-.27.63-.42-1.4-7.52.54.74Zm-3.29-.92-3.85,3.79v-.21l-.15-9h.49L498.6,130Z" fill="#050000"/><polygon points="483.81 145.65 484.12 147.58 483.45 150.85 482.96 150.85 482.96 148.91 482.44 149.86 482.43 151.75 481.91 151.75 481.91 148.07 482.3 147.23 482.31 145.65 483.81 145.65" fill="#f0f0de"/><path d="M482.54,149.58l3.19-.57-2.06-2.41,5.92-6.34.85.68,2.49-2,.94.19,2.71,4.41.26,1.22-.53.82,1,.79L490,154l-2.44-2.85-5.32-.43-1.65,1.79-.16-4.28Zm13.28-4.38.33-.51v-.51l-2.58-3.91L493,140l-1.83,1.42Z" fill="#4f4a40"/><polygon points="497.83 139.68 496.7 140.86 496.7 141.81 495.18 142.94 494.16 141.85 493.6 140.62 494.69 139.51 495.96 139.45 496.94 138.6 497.83 139.68" fill="#f0f0de"/><polygon points="486.8 117.78 484.76 113.28 486.64 108.86 489.55 106.98 493.66 108.29 494.67 108.11 496.82 110.67 497.38 113.7 496.77 117.8 497.25 121.28 493.7 120.94 493.7 119.93 495.51 118.18 495.9 114.34 495.14 111.82 491.97 110.3 490.82 111.94 487.65 113.13 487.62 114.54 487.21 114.68 487.18 116.38 488.03 117.01 487.94 118.03 489.82 119.84 489.8 120.91 486.41 121.26 486.8 117.78"/><rect x="392.83" y="93.46" width="11.56" height="12.91"/><rect x="392.8" y="107.74" width="11.56" height="13.11"/><rect x="405.76" y="93.49" width="11.56" height="12.91"/><polygon points="419.54 93.7 419.52 106.61 429.53 106.63 427.56 93.72 419.54 93.7"/><rect x="405.73" y="107.77" width="11.56" height="13.11"/><polygon points="419.52 108.02 419.49 121.13 431.71 121.15 429.73 108.03 419.52 108.02"/><polygon points="345.61 93.56 343.72 106.46 353.22 106.48 353.25 93.57 345.61 93.56"/><rect x="353.92" y="93.39" width="11.55" height="12.91"/><rect x="366.87" y="94.28" width="12.91" height="11.55" transform="translate(272.55 473.19) rotate(-89.89)"/><rect x="379.9" y="94.23" width="12.91" height="11.71" transform="translate(285.53 486.25) rotate(-89.89)"/><polygon points="343.52 107.86 341.6 120.97 353.19 120.99 353.22 107.88 343.52 107.86"/><rect x="353.89" y="107.67" width="11.55" height="13.11"/><rect x="366.75" y="108.7" width="13.11" height="11.55" transform="translate(258.11 487.56) rotate(-89.89)"/><rect x="379.77" y="108.64" width="13.11" height="11.71" transform="translate(271.09 500.6) rotate(-89.89)"/><rect x="341.4" y="136.79" width="32.91" height="23.24" transform="translate(208.76 505.98) rotate(-89.89)" fill="#fff"/><rect x="187.65" y="65.35" width="16.05" height="16.11" fill="#fff"/><rect x="187.6" y="86.9" width="16.05" height="16.11" fill="#fff"/><rect x="187.56" y="108.24" width="16.05" height="16.11" fill="#fff"/><rect x="209.11" y="65.4" width="16.05" height="16.11" fill="#fff"/><rect x="209.07" y="86.95" width="16.05" height="16.11" fill="#fff"/><rect x="209.03" y="108.29" width="16.05" height="16.11" fill="#fff"/><rect x="231.06" y="44.01" width="16.11" height="16.05" transform="translate(186.62 291.05) rotate(-89.89)" fill="#fff"/><rect x="230.58" y="65.43" width="16.05" height="16.11" fill="#fff"/><rect x="230.54" y="86.99" width="16.05" height="16.11" fill="#fff"/><rect x="252.56" y="44.06" width="16.11" height="16.05" transform="translate(208.03 312.6) rotate(-89.89)" fill="#fff"/><rect x="252.05" y="65.48" width="16.05" height="16.11" fill="#fff"/><rect x="252.48" y="87.23" width="16.11" height="16.05" transform="translate(164.78 355.61) rotate(-89.89)" fill="#fff"/><rect x="370.11" y="136.85" width="32.91" height="23.24" transform="translate(237.35 534.75) rotate(-89.89)" fill="#fff"/><rect x="398.81" y="136.9" width="32.91" height="23.24" transform="translate(265.95 563.5) rotate(-89.89)" fill="#fff"/><path d="M254.89,111.6l17.77-12.7,20.48,8.76,1.47,16.1-5.5,15.62-12.8,6.31.07,3.07.23,11.18,3.08-3.05.56.56-3.58,5.21.4,18.51-4.32-2.47,1.42-21.22L270.1,152l.59-1,3.67,3.67.61-9.09c-4.09-.94-16.84-8.65-17.13-8.37l-2.65-21.46,6.52-2-6.78-1.58Z" fill="#4f4a40"/><polygon points="479.37 167.33 479.38 165.28 480.58 163.35 480.59 162.08 480.24 161 479.25 159.67 479.25 159.63 479.24 159.65 479.23 159.63 479.23 159.67 478.23 161 477.88 162.07 477.88 163.35 479.07 165.28 479.07 167.33 478.33 165.84 477.11 165.02 475.02 164.74 475.6 167.16 476.99 168.39 479.09 168.81 479.09 170.6 479.2 170.6 479.23 170.6 479.34 170.6 479.35 168.81 481.45 168.4 482.84 167.17 483.43 164.75 481.34 165.03 480.12 165.84 479.37 167.33"/></svg>