<svg xmlns="http://www.w3.org/2000/svg" width="505" height="174.66" viewBox="0 0 505 174.66"><rect y="74.69" width="505" height="99.97" fill="#1d1d1b"/><rect x="13.26" y="117.06" width="9.18" height="37.75" fill="#fff"/><rect x="310.59" y="117.06" width="9.18" height="37.75" fill="#fff"/><rect x="219.13" y="91.56" width="13.77" height="69.37" fill="#fff"/><rect x="266.78" y="91.56" width="13.77" height="69.37" fill="#fff"/><rect x="242.96" y="91.56" width="13.77" height="69.37" fill="#fff"/><polygon points="245 135.12 245 160.93 254.69 160.93 254.69 135.12 249.84 132.36 245 135.12" fill="#1d1d1b"/><rect x="13.26" y="95.21" width="9.18" height="9.61" fill="#fff"/><rect x="310.59" y="95.21" width="9.18" height="9.61" fill="#fff"/><rect x="31.87" y="117.06" width="9.18" height="37.75" fill="#fff"/><rect x="329.19" y="117.06" width="9.18" height="37.75" fill="#fff"/><rect x="31.87" y="95.21" width="9.18" height="9.61" fill="#fff"/><rect x="329.19" y="95.21" width="9.18" height="9.61" fill="#fff"/><rect x="50.47" y="117.06" width="9.18" height="37.75" fill="#fff"/><rect x="347.8" y="117.06" width="9.18" height="37.75" fill="#fff"/><rect x="50.47" y="95.21" width="9.18" height="9.61" fill="#fff"/><rect x="347.8" y="95.21" width="9.18" height="9.61" fill="#fff"/><rect x="69.08" y="117.06" width="9.18" height="37.75" fill="#fff"/><rect x="366.4" y="117.06" width="9.18" height="37.75" fill="#fff"/><rect x="69.08" y="95.21" width="9.18" height="9.61" fill="#fff"/><rect x="366.4" y="95.21" width="9.18" height="9.61" fill="#fff"/><rect x="87.68" y="117.06" width="9.18" height="37.75" fill="#fff"/><rect x="385.01" y="117.06" width="9.18" height="37.75" fill="#fff"/><rect x="87.68" y="95.21" width="9.18" height="9.61" fill="#fff"/><rect x="385.01" y="95.21" width="9.18" height="9.61" fill="#fff"/><rect x="106.29" y="117.06" width="9.18" height="37.75" fill="#fff"/><rect x="403.61" y="117.06" width="9.18" height="37.75" fill="#fff"/><rect x="106.29" y="95.21" width="9.18" height="9.61" fill="#fff"/><rect x="403.61" y="95.21" width="9.18" height="9.61" fill="#fff"/><rect x="124.89" y="117.06" width="9.18" height="37.75" fill="#fff"/><rect x="422.21" y="117.06" width="9.18" height="37.75" fill="#fff"/><rect x="124.89" y="95.21" width="9.18" height="9.61" fill="#fff"/><rect x="422.21" y="95.21" width="9.18" height="9.61" fill="#fff"/><rect x="143.49" y="117.06" width="9.18" height="37.75" fill="#fff"/><rect x="440.82" y="117.06" width="9.18" height="37.75" fill="#fff"/><rect x="143.49" y="95.21" width="9.18" height="9.61" fill="#fff"/><rect x="440.82" y="95.21" width="9.18" height="9.61" fill="#fff"/><rect x="162.1" y="117.06" width="9.18" height="37.75" fill="#fff"/><rect x="459.42" y="117.06" width="9.18" height="37.75" fill="#fff"/><rect x="162.1" y="95.21" width="9.18" height="9.61" fill="#fff"/><rect x="459.42" y="95.21" width="9.18" height="9.61" fill="#fff"/><rect x="180.7" y="117.06" width="9.18" height="37.75" fill="#fff"/><rect x="478.03" y="117.06" width="9.18" height="37.75" fill="#fff"/><rect x="180.7" y="95.21" width="9.18" height="9.61" fill="#fff"/><rect x="478.03" y="95.21" width="9.18" height="9.61" fill="#fff"/><rect x="198.94" y="32.22" width="102.02" height="30.61" fill="#1d1d1b"/><rect x="248.93" width="2.04" height="30.61" fill="#1d1d1b"/><rect x="188.74" y="66.57" width="122.42" height="4.08" fill="#1d1d1b"/><rect x="254" y="2.66" width="14" height="8" fill="#1d1d1b"/></svg>