<svg xmlns="http://www.w3.org/2000/svg" width="50" height="33" viewBox="0 0 50 33"><polygon points="0 0 25 0 50 0 50 33 25 33 0 33 0 0" fill="#0132bf" fill-rule="evenodd"/><polygon points="50 28.92 31.18 16.5 50 4.08 50 0 43.81 0 25 12.42 6.18 0 0 0 0 4.08 18.82 16.5 0 28.92 0 33 6.18 33 25 20.58 43.81 33 50 33 50 28.92" fill="#fff"/><polygon points="50 31.47 27.32 16.5 50 1.53 50 0 47.68 0 25 14.97 2.32 0 0 0 0 1.53 22.68 16.5 0 31.47 0 33 2.32 33 25 18.03 47.68 33 50 33 50 31.47" fill="#f30004"/><polygon points="20.87 0 25 0 29.13 0 29.13 11.05 50 11.05 50 21.95 29.13 21.95 29.13 33 25 33 20.87 33 20.87 21.95 0 21.95 0 11.05 20.87 11.05 20.87 0" fill="#fff" fill-rule="evenodd"/><polygon points="27.58 0 27.58 13.1 50 13.1 50 19.9 27.58 19.9 27.58 33 25 33 22.42 33 22.42 19.9 0 19.9 0 13.1 22.42 13.1 22.42 0 25 0 27.58 0" fill="#f30004" fill-rule="evenodd"/></svg>