<svg xmlns="http://www.w3.org/2000/svg" width="50" height="33" viewBox="0 0 50 33"><rect width="50" height="33" fill="#fff"/><path d="M0,30.46H50V33H0V30.46ZM0,0H50V2.54H0V0ZM0,5.08H50V7.62H0V5.08Zm0,5.07H50v2.54H0V10.15Zm0,5.08H50v2.54H0V15.23Zm0,5.08H50v2.54H0V20.31Zm0,5.08H50v2.53H0Z" fill="#f30004"/><rect width="25.33" height="17.77" fill="#0132bf"/><path d="M23.4,5l-.23-.71L22.94,5h-.75l.6.43-.23.7.61-.43.6.43-.23-.7.6-.43ZM2.54,1.88l.6-.44H2.4L2.17.74l-.23.7H1.19l.6.44-.23.7.61-.44.6.44-.23-.7Zm4.2,0,.6-.44H6.6L6.37.74l-.23.7H5.39l.6.44-.23.7.61-.44.6.44-.23-.7Zm4.2,0,.6-.44H10.8l-.23-.7-.23.7H9.59l.6.44-.23.7.61-.44.6.44-.23-.7Zm4.2,0,.6-.44H15l-.23-.7-.23.7h-.75l.6.44-.23.7.61-.44.6.44-.23-.7ZM4.75,14.27l.61-.44H4.61l-.23-.7-.23.7H3.4l.61.44-.23.7.6-.44L5,15l-.23-.7Zm-.37-.12Zm.29-3.35.6-.43H4.53l-.23-.7-.23.7H3.32l.6.43-.23.71.61-.44.6.44-.23-.71Zm0-3.44.6-.43H4.55l-.23-.71-.23.71H3.34l.6.43-.23.7.61-.43.6.43-.23-.7ZM19.34,1.88l.6-.44H19.2L19,.74l-.23.7H18l.6.44-.23.7L19,2.14l.6.44-.23-.7Zm4.2,0,.6-.44H23.4l-.23-.7-.23.7h-.75l.6.44-.23.7.61-.44.6.44-.23-.7ZM8.89,7.36l.6-.43H8.75l-.23-.71-.23.71H7.54l.6.43-.23.7.61-.43.6.43-.23-.7Zm0,3.44.6-.43H8.73l-.23-.7-.24.7H7.52l.6.43-.23.71.61-.44.6.44-.23-.71ZM9,14.27l.61-.44H8.81l-.23-.7-.23.7H7.6l.61.44L8,15l.6-.44.6.44L9,14.27Zm-.37-.12Zm4.57.12.61-.44H13l-.23-.7-.23.7H11.8l.61.44-.23.7.6-.44.6.44-.23-.7Zm-.08-3.47.6-.43h-.74l-.23-.7-.24.7h-.74l.6.43-.23.71.61-.44.6.44-.23-.71Zm0-3.44.6-.43H13l-.23-.71-.23.71h-.75l.6.43-.23.7.61-.43.6.43-.23-.7ZM4.64,3.66l.6-.44H4.5l-.23-.7L4,3.22H3.29l.6.44-.23.7.61-.43.6.43-.23-.7Zm4.2,0,.6-.44H8.7l-.23-.7-.23.7H7.49l.6.44-.23.7.61-.43.6.43-.23-.7Zm8.45,3.7.6-.43h-.74l-.23-.71-.23.71h-.75l.6.43-.23.7.61-.43.6.43-.23-.7Zm0,3.44.6-.43h-.74l-.23-.7-.23.7h-.75l.6.43-.23.71.61-.44.6.44-.23-.71Zm.08,3.47.61-.44h-.75l-.23-.7-.23.7H16l.61.44-.23.7.6-.44.6.44-.23-.7Zm4.2,0,.61-.44h-.75l-.23-.7-.23.7H20.2l.61.44-.23.7.6-.44.6.44-.23-.7Zm-.37-.12Zm.29-3.35.6-.43h-.74l-.23-.7-.23.7h-.75l.6.43-.23.71.61-.44.6.44-.23-.71Zm0-3.44.6-.43h-.74l-.23-.71-.23.71h-.75l.6.43-.23.7.61-.43.6.43-.23-.7ZM13,3.66l.6-.44H12.9l-.23-.7-.23.7h-.75l.6.44-.23.7.61-.43.6.43L13,3.66Zm4.2,0,.6-.44H17.1l-.23-.7-.23.7h-.75l.6.44-.23.7.61-.43.6.43-.23-.7Zm4.2,0,.6-.44H21.3l-.23-.7-.23.7h-.75l.6.44-.23.7.61-.43.6.43-.23-.7ZM2.65,16.05l.61-.44H2.51l-.23-.7-.23.7H1.3l.61.44-.23.7.6-.43.6.43-.23-.7Zm-.08-3.46.6-.44H2.43l-.23-.7-.24.7H1.22l.6.44-.23.7.61-.44.6.44-.23-.7Zm0-3.45.6-.43H2.45L2.22,8,2,8.71H1.24l.6.43-.23.7.61-.43.6.43-.23-.7Zm4.2,0,.6-.43H6.65L6.42,8l-.23.7H5.44l.6.43-.23.7.61-.43.6.43-.23-.7Zm0,3.45.6-.44H6.63l-.23-.7-.23.7H5.42l.6.44-.23.7.61-.44.6.44-.23-.7Zm.08,3.46.61-.44H6.71l-.23-.7-.23.7H5.5l.61.44-.23.7.6-.43.6.43-.23-.7Zm4.2,0,.61-.44h-.75l-.23-.7-.23.7H9.7l.61.44-.23.7.6-.43.6.43-.23-.7ZM11,12.59l.6-.44h-.74l-.23-.7-.23.7H9.62l.6.44-.23.7.61-.44.6.44-.23-.7Zm0-3.45.6-.43h-.74L10.62,8l-.23.7H9.64l.6.43-.23.7.61-.43.6.43L11,9.14ZM2.54,5.44,3.14,5H2.4L2.17,4.3,1.94,5H1.19l.6.43-.23.7.61-.43.6.43-.23-.7Zm4.2,0L7.34,5H6.6L6.37,4.3,6.14,5H5.39l.6.43-.23.7.61-.43.6.43-.23-.7Zm8.45,3.7.6-.43h-.74L14.82,8l-.23.7h-.75l.6.43-.23.7.61-.43.6.43-.23-.7Zm0,3.45.6-.44H15l-.23-.7-.24.7h-.74l.6.44-.23.7.61-.44.6.44-.23-.7Zm.08,3.46.6-.44h-.74l-.23-.7-.23.7H13.9l.61.44-.23.7.6-.43.6.43-.23-.7Zm4.2,0,.61-.44h-.75l-.23-.7-.23.7H18.1l.61.44-.23.7.6-.43.6.43-.23-.7Zm4.2,0,.61-.44h-.75l-.23-.7-.23.7H22.3l.61.44-.23.7.6-.43.6.43-.23-.7Zm-4.28-3.46.6-.44h-.74l-.23-.7-.24.7H18l.6.44-.23.7.61-.44.6.44-.23-.7Zm4.2,0,.6-.44h-.74l-.23-.7-.23.7h-.75l.6.44-.23.7.61-.44.6.44-.23-.7ZM19.39,9.14l.6-.43h-.74L19,8l-.23.7H18l.6.43-.23.7L19,9.41l.6.43-.23-.7Zm4.2,0,.6-.43h-.74L23.22,8l-.23.7h-.75l.6.43-.23.7.61-.43.6.43-.23-.7ZM10.94,5.44l.6-.43H10.8l-.23-.71L10.34,5H9.59l.6.43-.23.7.61-.43.6.43-.23-.7Zm4.2,0,.6-.43H15l-.23-.71L14.54,5h-.75l.6.43-.23.7.61-.43.6.43-.23-.7Zm4.2,0,.6-.43H19.2L19,4.3,18.74,5H18l.6.43-.23.7L19,5.71l.6.43Z" fill="#fff"/></svg>