<svg xmlns="http://www.w3.org/2000/svg" width="50" height="33" viewBox="0 0 50 33"><rect width="50" height="33" fill="#fff"/><path d="m0 30.46h50V33h-50v-2.54zM0 0h50v2.54h-50V0zm0 5.08h50v2.54h-50V5.08zm0 5.07h50v2.54h-50v-2.54zm0 5.08h50v2.54h-50v-2.54zm0 5.08h50v2.54h-50v-2.54zm0 5.08h50v2.53h-50z" fill="#f30004"/><rect width="25.33" height="17.77" fill="#0132bf"/><path d="m23.4 5l-.23-.71l-.23.71h-.75l.6.43l-.23.7l.61-.43l.6.43l-.23-.7l.6-.43zM2.54 1.88l.6-.44H2.4l-.23-.7l-.23.7h-.75l.6.44l-.23.7l.61-.44l.6.44l-.23-.7zm4.2 0l.6-.44H6.6l-.23-.7l-.23.7h-.75l.6.44l-.23.7l.61-.44l.6.44l-.23-.7zm4.2 0l.6-.44h-.74l-.23-.7l-.23.7h-.75l.6.44l-.23.7l.61-.44l.6.44l-.23-.7zm4.2 0l.6-.44H15l-.23-.7l-.23.7h-.75l.6.44l-.23.7l.61-.44l.6.44l-.23-.7zM4.75 14.27l.61-.44h-.75l-.23-.7l-.23.7H3.4l.61.44l-.23.7l.6-.44L5 15l-.23-.7zm-.37-.12zm.29-3.35l.6-.43h-.74l-.23-.7l-.23.7h-.75l.6.43l-.23.71l.61-.44l.6.44l-.23-.71zm0-3.44l.6-.43h-.72l-.23-.71l-.23.71h-.75l.6.43l-.23.7l.61-.43l.6.43l-.23-.7zm14.67-5.48l.6-.44h-.74l-.2-.7l-.23.7H18l.6.44l-.23.7l.63-.44l.6.44l-.23-.7zm4.2 0l.6-.44h-.74l-.23-.7l-.23.7h-.75l.6.44l-.23.7l.61-.44l.6.44l-.23-.7zM8.89 7.36l.6-.43h-.74l-.23-.71l-.23.71h-.75l.6.43l-.23.7l.61-.43l.6.43l-.23-.7zm0 3.44l.6-.43h-.76l-.23-.7l-.24.7h-.74l.6.43l-.23.71l.61-.44l.6.44l-.23-.71zM9 14.27l.61-.44h-.8l-.23-.7l-.23.7H7.6l.61.44L8 15l.6-.44l.6.44l-.2-.73zm-.37-.12zm4.57.12l.61-.44H13l-.23-.7l-.23.7h-.74l.61.44l-.23.7l.6-.44l.6.44l-.23-.7zm-.08-3.47l.6-.43h-.74l-.23-.7l-.24.7h-.74l.6.43l-.23.71l.61-.44l.6.44l-.23-.71zm0-3.44l.6-.43H13l-.23-.71l-.23.71h-.75l.6.43l-.23.7l.61-.43l.6.43l-.23-.7zm-8.48-3.7l.6-.44H4.5l-.23-.7l-.27.7h-.71l.6.44l-.23.7l.61-.43l.6.43l-.23-.7zm4.2 0l.6-.44H8.7l-.23-.7l-.23.7h-.75l.6.44l-.23.7l.61-.43l.6.43l-.23-.7zm8.45 3.7l.6-.43h-.74l-.23-.71l-.23.71h-.75l.6.43l-.23.7l.61-.43l.6.43l-.23-.7zm0 3.44l.6-.43h-.74l-.23-.7l-.23.7h-.75l.6.43l-.23.71l.61-.44l.6.44l-.23-.71zm.08 3.47l.61-.44h-.75l-.23-.7l-.23.7H16l.61.44l-.23.7l.6-.44l.6.44l-.23-.7zm4.2 0l.61-.44h-.75l-.23-.7l-.23.7h-.77l.61.44l-.23.7l.6-.44l.6.44l-.23-.7zm-.37-.12zm.29-3.35l.6-.43h-.74l-.23-.7l-.23.7h-.75l.6.43l-.23.71l.61-.44l.6.44l-.23-.71zm0-3.44l.6-.43h-.74l-.23-.71l-.23.71h-.75l.6.43l-.23.7l.61-.43l.6.43l-.23-.7zM13 3.66l.6-.44h-.7l-.23-.7l-.23.7h-.75l.6.44l-.23.7l.61-.43l.6.43l-.27-.7zm4.2 0l.6-.44h-.7l-.23-.7l-.23.7h-.75l.6.44l-.23.7l.61-.43l.6.43l-.23-.7zm4.2 0l.6-.44h-.7l-.23-.7l-.23.7h-.75l.6.44l-.23.7l.61-.43l.6.43l-.23-.7zM2.65 16.05l.61-.44h-.75l-.23-.7l-.23.7H1.3l.61.44l-.23.7l.6-.43l.6.43l-.23-.7zm-.08-3.46l.6-.44h-.74l-.23-.7l-.24.7h-.74l.6.44l-.23.7l.61-.44l.6.44l-.23-.7zm0-3.45l.6-.43h-.72L2.22 8l-.22.71h-.76l.6.43l-.23.7l.61-.43l.6.43l-.23-.7zm4.2 0l.6-.43h-.72L6.42 8l-.23.7h-.75l.6.43l-.23.7l.61-.43l.6.43l-.23-.7zm0 3.45l.6-.44h-.74l-.23-.7l-.23.7h-.75l.6.44l-.23.7l.61-.44l.6.44l-.23-.7zm.08 3.46l.61-.44h-.75l-.23-.7l-.23.7H5.5l.61.44l-.23.7l.6-.43l.6.43l-.23-.7zm4.2 0l.61-.44h-.75l-.23-.7l-.23.7H9.7l.61.44l-.23.7l.6-.43l.6.43l-.23-.7zM11 12.59l.6-.44h-.74l-.23-.7l-.23.7h-.78l.6.44l-.23.7l.61-.44l.6.44l-.23-.7zm0-3.45l.6-.43h-.74L10.62 8l-.23.7h-.75l.6.43l-.23.7l.61-.43l.6.43l-.22-.69zm-8.46-3.7l.6-.44H2.4l-.23-.7l-.23.7h-.75l.6.43l-.23.7l.61-.43l.6.43l-.23-.7zm4.2 0l.6-.44H6.6l-.23-.7l-.23.7h-.75l.6.43l-.23.7l.61-.43l.6.43l-.23-.7zm8.45 3.7l.6-.43h-.74L14.82 8l-.23.7h-.75l.6.43l-.23.7l.61-.43l.6.43l-.23-.7zm0 3.45l.6-.44H15l-.23-.7l-.24.7h-.74l.6.44l-.23.7l.61-.44l.6.44l-.23-.7zm.08 3.46l.6-.44h-.74l-.23-.7l-.23.7h-.77l.61.44l-.23.7l.6-.43l.6.43l-.23-.7zm4.2 0l.61-.44h-.75l-.23-.7l-.23.7h-.77l.61.44l-.23.7l.6-.43l.6.43l-.23-.7zm4.2 0l.61-.44h-.75l-.23-.7l-.23.7h-.77l.61.44l-.23.7l.6-.43l.6.43l-.23-.7zm-4.28-3.46l.6-.44h-.74l-.23-.7l-.24.7H18l.6.44l-.23.7l.61-.44l.6.44l-.23-.7zm4.2 0l.6-.44h-.74l-.23-.7l-.23.7h-.75l.6.44l-.23.7l.61-.44l.6.44l-.23-.7zm-4.2-3.45l.6-.43h-.74L19 8l-.23.7H18l.6.43l-.23.7l.63-.42l.6.43l-.23-.7zm4.2 0l.6-.43h-.74L23.22 8l-.23.7h-.75l.6.43l-.23.7l.61-.43l.6.43l-.23-.7zm-12.65-3.7l.6-.43h-.74l-.23-.71l-.23.7h-.75l.6.43l-.23.7l.61-.43l.6.43l-.23-.7zm4.2 0l.6-.43H15l-.23-.71l-.23.7h-.75l.6.43l-.23.7l.61-.43l.6.43l-.23-.7zm4.2 0l.6-.43h-.74L19 4.3l-.26.7H18l.6.43l-.23.7l.63-.42l.6.43z" fill="#fff"/></svg>