<svg id="Layer_1" data-name="Layer 1" xmlns="http://www.w3.org/2000/svg" viewBox="0 0 5488.8 945"><defs><style>.cls-1{fill:#fff;}</style></defs><path class="cls-1" d="m395.2 294.5V29.4h124v721.2h-124v-39.9c-35.6 34.2-75.5 54.2-134 54.2c-141.1 0-233.7-111.2-233.7-263.7s92.6-263.7 232.3-263.7c61.3 1.4 101.2 22.8 135.4 57zm8.6 206.7c0-91.2-42.8-149.7-125.4-149.7S153 409.9 153 501.2s42.8 151.1 125.4 151.1c82.6-1.5 125.4-59.9 125.4-151.1z" transform="translate(-27.5 -29.4)"/><path class="cls-1" d="m1799.1 709.3v265.1h-124V251.7h124v39.9c35.6-34.2 75.5-54.2 134-54.2c141.1 0 233.7 111.2 233.7 263.7s-92.6 263.7-232.3 263.7c-62.7 0-101.2-21.3-135.4-55.5zm-8.5-206.7c0 91.2 42.8 149.7 125.4 149.7s125.4-58.4 125.4-149.7s-42.8-151.1-125.4-151.1s-125.4 59.9-125.4 151.1z" transform="translate(-27.5 -29.4)"/><path class="cls-1" d="m3240.1 499.7c0 151.1-108.3 263.7-255.1 263.7c-145.4 0-255.1-109.7-255.1-263.7c0-151.1 109.7-262.3 255.1-262.3c146.8.1 255.1 111.3 255.1 262.3zm-58.4 0c0-121.1-81.2-206.7-196.7-206.7s-195.3 86.9-195.3 208.1c0 122.6 81.2 206.7 195.3 206.7s196.7-86.9 196.7-208.1z" transform="translate(-27.5 -29.4)"/><path class="cls-1" d="m3736.1 479.8V752h-59.9V486.9c0-99.8-41.3-192.4-159.6-192.4c-125.4 0-172.5 104-172.5 169.6v286.5h-59.9V251.7h59.9v104c25.7-61.3 82.7-116.9 188.1-116.9c126.9.1 203.9 81.4 203.9 241z" transform="translate(-27.5 -29.4)"/><path class="cls-1" d="m3920 592.4c0 81.2 21.4 114 89.8 114c22.8 0 39.9-4.3 55.6-8.6V752c-15.7 5.7-38.5 10-67 10c-94.1 0-138.3-54.2-138.3-145.4v-315h-81.2v-51.3h48.5a31.71 31.71 0 0 0 31.4-31.4V116.3h59.9v134h124v51.3h-124v290.8z" transform="translate(-27.5 -29.4)"/><path class="cls-1" d="m5117.2 479.8V752h-59.9V486.9c0-99.8-41.3-192.4-159.6-192.4c-125.4 0-172.5 104-172.5 169.6v286.5h-59.9V251.7h59.9v104c25.7-61.3 82.7-116.9 188.1-116.9c127 .1 203.9 81.4 203.9 241z" transform="translate(-27.5 -29.4)"/><path class="cls-1" d="m5301.1 592.4c0 81.2 21.4 114 89.8 114c22.8 0 39.9-4.3 55.6-8.6V752c-15.7 5.7-38.5 10-67 10c-94.1 0-138.3-54.2-138.3-145.4v-315H5160v-51.3h48.5a31.71 31.71 0 0 0 31.4-31.4V116.3h59.9v134h124v51.3h-124v290.8z" transform="translate(-27.5 -29.4)"/><path class="cls-1" d="m818.5 236.1c-145.4 0-253.7 109.7-253.7 262.3c0 153.9 109.7 263.7 253.7 263.7c101.2 0 183.9-52.7 226.6-135.4l-126.9-22.8c-22.8 28.5-57 45.6-101.2 45.6c-65.6 0-109.7-38.5-126.9-101.2h382c1.4-20 1.4-38.5 1.4-47c1.6-149.8-108.2-265.2-255-265.2zM690.3 457c12.8-65.6 59.9-106.9 128.3-106.9S934 391.4 946.8 457z" transform="translate(-27.5 -29.4)"/><path class="cls-1" d="m1373 236.1c-145.4 0-253.7 109.7-253.7 262.3C1119.3 652.2 1229 762 1373 762c101.2 0 183.9-52.7 226.6-135.4l-125.4-22.8c-22.8 28.5-57 45.6-101.2 45.6c-65.6 0-109.7-38.5-126.9-101.2h382c1.4-20 1.4-38.5 1.4-47c1.5-149.7-109.7-265.1-256.5-265.1zM1246.1 457c12.8-65.6 59.9-106.9 128.3-106.9s115.4 41.3 128.3 106.9z" transform="translate(-27.5 -29.4)"/><path class="cls-1" d="m2466.2 706.4c-114 0-196.7-84.1-196.7-205.2c0-119.7 82.7-205.2 196.7-205.2c72.7 0 132.6 34.2 165.3 92.6l59.9-11.4c-41.3-84.1-125.4-136.8-226.6-136.8c-145.4 0-253.7 108.3-255.1 260.8c1.4 151.1 109.7 260.8 255.1 260.8c101.2 0 183.9-52.7 226.6-136.8l-59.9-11.4c-32.8 58.4-92.6 92.6-165.3 92.6z" transform="translate(-27.5 -29.4)"/><path class="cls-1" d="m4485.8 615.2c-32.8 55.6-92.6 91.2-165.3 91.2c-105.5 0-183.9-74.1-193.8-181h447.5c1.4-7.1 1.4-21.4 1.4-25.7c0-152.5-109.7-265.1-255.1-265.1s-253.7 111.2-253.7 263.7S4175.1 762 4320.5 762c101.2 0 185.3-54.2 226.6-136.8zm-165.3-323.6c106.9 1.4 186.7 77 193.8 186.7h-387.7c5.7-109.7 85.6-185.2 193.9-186.7z" transform="translate(-27.5 -29.4)"/><path class="cls-1" d="m5516.3 104.9a67 67 0 1 1-67-67a66.88 66.88 0 0 1 67 67zm-11.4 0c0-32.8-24.2-58.4-57-58.4s-57 25.7-57 58.4s24.2 58.4 57 58.4c32.8-1.4 57-27 57-58.4zm-69.8 39.9h-11.4V65h29.9c18.5 0 25.7 7.1 25.7 22.8c0 14.3-8.6 20-18.5 22.8l22.8 35.6h-12.8l-21.4-35.6h-15.7v34.2zm11.4-45.6c10 0 22.8 0 22.8-12.8c0-11.4-8.6-12.8-17.1-12.8h-17.1v25.7c0-.1 11.4-.1 11.4-.1z" transform="translate(-27.5 -29.4)"/></svg>