<svg xmlns="http://www.w3.org/2000/svg" width="85.85" height="141.26" viewBox="0 0 85.85 141.26"><path d="m85.85 92.29c0 17.89-9.57 30.13-31.07 33.43v15.54h-22v-15.54c-14.12-2.2-26-9.11-32.8-19.15l15.87-14.13C23.54 101.39 33.43 105 44 105c13 0 19.14-2.83 19.14-11.14c0-7.07-3.76-10.21-24.48-14.91C18.36 74.24 4.24 67.8 4.24 46.14c0-16.48 12.08-27.31 28.56-30.45V0h22v15.85C66.39 18.05 75.49 23.7 83.5 32L67.65 47.4c-7.07-7.22-14.92-11.3-25-11.3C30.92 36.1 27 40.34 27 45.2c0 6.91 4.71 9.1 22.13 13.18s36.72 10.05 36.72 33.91"/></svg>