<svg xmlns="http://www.w3.org/2000/svg" width="67.26" height="50.54" viewBox="0 0 67.26 50.54"><path d="m67.23 33.93a4.82 4.82 0 0 0-4.77-3.53a5.09 5.09 0 0 0-2.27.47l-12 3.77c-.24-1.87-2-3.54-4.66-3.54H37l-5.84-3.65a12.83 12.83 0 0 0-7.28-2.13H19v19.92c1.79.59 3.36 1.06 4.65 1.53c7 2.35 11 3.77 14.55 3.77c4.21 0 8-2 16.23-6.24c2.72-1.44 6.44-3.53 10.5-5.64a4.93 4.93 0 0 0 2.3-4.73" fill-rule="evenodd"/><rect y="21.11" width="16.76" height="27.33"/><path d="m44.28 0c-5.75 0-10.51 5.23-10.51 11.55S38.53 23.1 44.28 23.1s10.5-5.22 10.5-11.55S50 0 44.28 0m.33 10.08a4.39 4.39 0 0 1 3.64 4.38a4.28 4.28 0 0 1-2.65 4v1.68H43v-1.65a4.21 4.21 0 0 1-2.52-4H43a1.33 1.33 0 0 0 2.65.21v-.21c0-.24 0-1-1.55-1.46c-3.09-.73-3.64-2.8-3.64-4.38a4.18 4.18 0 0 1 2.52-4V3h2.64v1.63a4.3 4.3 0 0 1 2.66 4H45.6a1.33 1.33 0 1 0-2.6-.2v.21c0 .48 0 1.21 1.66 1.44" fill-rule="evenodd"/></svg>