<svg xmlns="http://www.w3.org/2000/svg" width="33.5" height="31.4" viewBox="0 0 33.5 31.4"><path d="M28.25,28.25a3.36,3.36,0,0,1-.39,1.58,4.8,4.8,0,0,1-1.18,1.11,3.34,3.34,0,0,1-1.51.46,3.36,3.36,0,0,1-1.57-.46,3.06,3.06,0,0,1-1.12-1.11A2.84,2.84,0,0,1,22,28.25a2.65,2.65,0,0,1,.45-1.57,2.32,2.32,0,0,1,1.12-1.11,3.19,3.19,0,0,1,1.57-.4,3.13,3.13,0,0,1,1.51.4,3.19,3.19,0,0,1,1.18,1.11,3.13,3.13,0,0,1,.39,1.57" fill-rule="evenodd"/><path d="M14.62,28.25a3.44,3.44,0,0,1-.46,1.58,3.67,3.67,0,0,1-1.11,1.11,3.44,3.44,0,0,1-1.58.46,3.17,3.17,0,0,1-1.57-.46,3.06,3.06,0,0,1-1.12-1.11,3.36,3.36,0,0,1-.39-1.58,3.13,3.13,0,0,1,.39-1.57A2.32,2.32,0,0,1,9.9,25.57a3,3,0,0,1,1.57-.4,3.25,3.25,0,0,1,1.58.4,2.64,2.64,0,0,1,1.11,1.11,3.17,3.17,0,0,1,.46,1.57" fill-rule="evenodd"/><polyline points="8.11 8.52 6.17 0 0 0 0 2.86 3.94 2.86 8.58 22.93 8.82 24.06 28.39 24.06 33.5 8.52 8.11 8.52" fill-rule="evenodd"/></svg>