<?xml version="1.0" standalone="no"?><!DOCTYPE svg PUBLIC "-//W3C//DTD SVG 1.1//EN" "http://www.w3.org/Graphics/SVG/1.1/DTD/svg11.dtd"><svg xmlns="http://www.w3.org/2000/svg" version="1.1" width="76px" height="160.2px" viewBox="0 -12 76 160.2" style="top:-12px"><desc>6</desc><defs/><g id="Polygon11109"><path d="m47.1 23.2c-14.2 0-27.9 10.6-30.3 27.1c4.5-5.1 10.6-7.4 16.3-7.4c10.1 0 19.7 7 19.7 20.3c0 11.6-7.3 22.6-23.4 22.6c-17.8 0-27.3-13.4-27.3-28.7c0-18.2 13.7-39.3 40.4-39.3c-.02.02 4.6 0 4.6 0c0 0-.03 5.42 0 5.4zM16.5 60.7c0 8.4 3.5 20.5 12.1 20.5c6.5 0 10.1-6.9 10.1-14.5c0-9.2-5.2-15-11.8-15c-3 0-6.5 1.3-9.8 3.9c-.4 1.4-.6 3.2-.6 5.1z" stroke="none" fill="#000"/></g></svg>