<?xml version="1.0" standalone="no"?><!DOCTYPE svg PUBLIC "-//W3C//DTD SVG 1.1//EN" "http://www.w3.org/Graphics/SVG/1.1/DTD/svg11.dtd"><svg xmlns="http://www.w3.org/2000/svg" version="1.1" width="290.2px" height="117.4px" viewBox="0 -4 290.2 117.4" style="top:-4px">  <desc>How do you factor in ESG criteria for EM countries</desc>  <defs/>  <g id="Polygon11011">    <path d="M 6.3 45.2 C 2.5 45.2 0.6 42.3 0.6 39.2 C 0.6 36.1 2.4 33.2 6.2 33.2 C 9.1 33.2 11.3 34.8 11.4 37.6 C 11.4 37.6 8.6 37.6 8.6 37.6 C 8.5 36.5 7.7 35.7 6.3 35.7 C 4.3 35.7 3.4 37.4 3.4 39.2 C 3.4 41.1 4.3 42.6 6.3 42.6 C 7.6 42.6 8.5 41.9 8.7 40.9 C 8.7 40.9 11.4 40.9 11.4 40.9 C 11.1 43.7 9.1 45.2 6.3 45.2 Z M 20 36 C 20 36 19.26 35.97 19.3 36 C 17.3 36 16.2 37 16.2 39.3 C 16.23 39.31 16.2 45 16.2 45 L 13.4 45 L 13.4 33.4 L 16.2 33.4 C 16.2 33.4 16.21 35.05 16.2 35 C 16.8 33.8 17.9 33.3 19.2 33.3 C 19.24 33.26 20 33.3 20 33.3 L 20 36 Z M 21.3 31.9 L 24.2 31.9 L 24.2 28.7 L 21.3 28.7 L 21.3 31.9 Z M 21.3 33.4 L 24.1 33.4 L 24.1 45 L 21.3 45 L 21.3 33.4 Z M 32.8 45 C 32.8 45 30.93 44.98 30.9 45 C 28.8 45 27.4 44.3 27.4 41.2 C 27.38 41.2 27.4 35.9 27.4 35.9 L 25.3 35.9 L 25.3 33.4 L 27.4 33.4 L 27.4 30.8 L 30.2 30 L 30.2 33.4 L 32.5 33.4 L 32.5 35.9 L 30.2 35.9 C 30.2 35.9 30.18 41.33 30.2 41.3 C 30.2 42 30.4 42.5 31.4 42.5 C 31.35 42.5 32.8 42.5 32.8 42.5 L 32.8 45 Z M 36.3 40 C 36.4 41.9 37.7 42.8 39.3 42.8 C 40.4 42.8 41.4 42.4 41.8 41.3 C 41.8 41.3 44.3 41.3 44.3 41.3 C 43.8 43.9 41.5 45.2 39.2 45.2 C 36.4 45.2 33.6 43.3 33.6 39.2 C 33.6 35.2 36.2 33.2 39.2 33.2 C 42 33.2 44.4 35 44.4 38.9 C 44.37 38.89 44.4 40 44.4 40 C 44.4 40 36.31 40.03 36.3 40 Z M 36.4 38 C 36.4 38 41.6 38 41.6 38 C 41.6 36.5 40.6 35.6 39.1 35.6 C 37.9 35.6 36.6 36.3 36.4 38 Z M 52.9 36 C 52.9 36 52.18 35.97 52.2 36 C 50.2 36 49.2 37 49.2 39.3 C 49.16 39.31 49.2 45 49.2 45 L 46.4 45 L 46.4 33.4 L 49.1 33.4 C 49.1 33.4 49.14 35.05 49.1 35 C 49.7 33.8 50.8 33.3 52.2 33.3 C 52.16 33.26 52.9 33.3 52.9 33.3 L 52.9 36 Z M 54.2 31.9 L 57.1 31.9 L 57.1 28.7 L 54.2 28.7 L 54.2 31.9 Z M 54.3 33.4 L 57.1 33.4 L 57.1 45 L 54.3 45 L 54.3 33.4 Z M 69 37.2 C 69.03 37.19 69 45 69 45 L 66.3 45 C 66.3 45 66.3 43.3 66.3 43.3 C 65.4 44.8 64 45.2 62.8 45.2 C 60.9 45.2 59 44.1 59 41.6 C 59 39.8 60.1 38.6 62.7 38.2 C 62.7 38.2 65.2 37.8 65.2 37.8 C 65.9 37.7 66.4 37.5 66.4 36.8 C 66.4 35.8 65.6 35.4 64.4 35.4 C 63 35.4 62.3 36.1 62.2 37.1 C 62.2 37.1 59.5 37.1 59.5 37.1 C 59.8 34.4 61.9 33.2 64.6 33.2 C 67.3 33.2 69 34.5 69 37.2 Z M 66.3 40.1 C 66.3 40.1 66.3 39.5 66.3 39.5 C 66 39.6 65.5 39.8 65 39.8 C 65 39.8 63.7 40 63.7 40 C 62.3 40.2 61.8 40.8 61.8 41.5 C 61.8 42.4 62.5 42.9 63.4 42.9 C 64.9 42.9 66.3 41.8 66.3 40.1 Z M 80.9 31.5 C 79.9 31.5 79.7 31.9 79.7 32.6 C 79.74 32.63 79.7 33.4 79.7 33.4 L 81.9 33.4 L 81.9 35.9 L 79.7 35.9 L 79.7 45 L 76.9 45 L 76.9 35.9 L 75.2 35.9 L 75.2 33.4 L 76.9 33.4 C 76.9 33.4 76.94 32.76 76.9 32.8 C 76.9 29.7 78.3 29 80.5 29 C 80.49 28.98 82.2 29 82.2 29 L 82.2 31.5 C 82.2 31.5 80.91 31.46 80.9 31.5 Z M 93.9 39.2 C 93.9 43 91.5 45.2 88.2 45.2 C 85 45.2 82.6 43 82.6 39.2 C 82.6 35.4 85 33.2 88.2 33.2 C 91.5 33.2 93.9 35.4 93.9 39.2 Z M 85.4 39.2 C 85.4 41.5 86.7 42.6 88.3 42.6 C 89.9 42.6 91.1 41.4 91.1 39.2 C 91.1 36.9 89.8 35.8 88.2 35.8 C 86.6 35.8 85.4 37 85.4 39.2 Z M 102.5 36 C 102.5 36 101.72 35.97 101.7 36 C 99.8 36 98.7 37 98.7 39.3 C 98.7 39.31 98.7 45 98.7 45 L 95.9 45 L 95.9 33.4 L 98.7 33.4 C 98.7 33.4 98.68 35.05 98.7 35 C 99.3 33.8 100.3 33.3 101.7 33.3 C 101.7 33.26 102.5 33.3 102.5 33.3 L 102.5 36 Z M 109.1 45 L 109.1 29.2 L 119.7 29.2 L 119.7 32 L 112 32 L 112 35.6 L 119.3 35.6 L 119.3 38.4 L 112 38.4 L 112 42.2 L 120.1 42.2 L 120.1 45 L 109.1 45 Z M 138.5 45 L 135.7 45 L 135.7 34.1 L 131.6 45 L 129 45 L 125 34.1 L 125 45 L 122.3 45 L 122.3 29.2 L 126 29.2 L 130.4 40.8 L 134.7 29.2 L 138.5 29.2 L 138.5 45 Z M 151.5 45.2 C 147.7 45.2 145.9 42.3 145.9 39.2 C 145.9 36.1 147.7 33.2 151.5 33.2 C 154.4 33.2 156.5 34.8 156.6 37.6 C 156.6 37.6 153.9 37.6 153.9 37.6 C 153.8 36.5 153 35.7 151.6 35.7 C 149.6 35.7 148.7 37.4 148.7 39.2 C 148.7 41.1 149.6 42.6 151.6 42.6 C 152.9 42.6 153.7 41.9 153.9 40.9 C 153.9 40.9 156.7 40.9 156.7 40.9 C 156.3 43.7 154.3 45.2 151.5 45.2 Z M 169.3 39.2 C 169.3 43 166.9 45.2 163.6 45.2 C 160.4 45.2 158 43 158 39.2 C 158 35.4 160.4 33.2 163.6 33.2 C 166.9 33.2 169.3 35.4 169.3 39.2 Z M 160.8 39.2 C 160.8 41.5 162.1 42.6 163.7 42.6 C 165.3 42.6 166.4 41.4 166.4 39.2 C 166.4 36.9 165.2 35.8 163.6 35.8 C 162 35.8 160.8 37 160.8 39.2 Z M 181.4 45 L 178.7 45 C 178.7 45 178.71 43.34 178.7 43.3 C 178 44.4 177 45.1 175.4 45.1 C 173 45.1 171.2 43.6 171.2 40.6 C 171.19 40.59 171.2 33.4 171.2 33.4 L 174 33.4 C 174 33.4 173.98 40.38 174 40.4 C 174 42 174.8 42.6 176 42.6 C 177.5 42.6 178.6 41.7 178.6 39 C 178.65 39 178.6 33.4 178.6 33.4 L 181.4 33.4 L 181.4 45 Z M 194.4 37.5 C 194.35 37.51 194.4 45 194.4 45 L 191.6 45 C 191.6 45 191.56 37.76 191.6 37.8 C 191.6 36.5 190.8 35.7 189.5 35.7 C 187.9 35.7 187 36.8 187 38.7 C 186.96 38.72 187 45 187 45 L 184.2 45 L 184.2 33.4 L 186.9 33.4 C 186.9 33.4 186.94 35.07 186.9 35.1 C 187.6 34 188.5 33.2 190.5 33.2 C 193.1 33.2 194.4 34.7 194.4 37.5 Z M 202.9 45 C 202.9 45 201.07 44.98 201.1 45 C 198.9 45 197.5 44.3 197.5 41.2 C 197.52 41.2 197.5 35.9 197.5 35.9 L 195.4 35.9 L 195.4 33.4 L 197.5 33.4 L 197.5 30.8 L 200.3 30 L 200.3 33.4 L 202.6 33.4 L 202.6 35.9 L 200.3 35.9 C 200.3 35.9 200.32 41.33 200.3 41.3 C 200.3 42 200.5 42.5 201.5 42.5 C 201.49 42.5 202.9 42.5 202.9 42.5 L 202.9 45 Z M 211 36 C 211 36 210.29 35.97 210.3 36 C 208.3 36 207.3 37 207.3 39.3 C 207.27 39.31 207.3 45 207.3 45 L 204.5 45 L 204.5 33.4 L 207.2 33.4 C 207.2 33.4 207.25 35.05 207.2 35 C 207.8 33.8 208.9 33.3 210.3 33.3 C 210.27 33.26 211 33.3 211 33.3 L 211 36 Z M 212.3 31.9 L 215.2 31.9 L 215.2 28.7 L 212.3 28.7 L 212.3 31.9 Z M 212.4 33.4 L 215.2 33.4 L 215.2 45 L 212.4 45 L 212.4 33.4 Z M 219.8 40 C 219.9 41.9 221.3 42.8 222.8 42.8 C 223.9 42.8 225 42.4 225.3 41.3 C 225.3 41.3 227.9 41.3 227.9 41.3 C 227.4 43.9 225.1 45.2 222.7 45.2 C 219.9 45.2 217.1 43.3 217.1 39.2 C 217.1 35.2 219.8 33.2 222.7 33.2 C 225.5 33.2 227.9 35 227.9 38.9 C 227.91 38.89 227.9 40 227.9 40 C 227.9 40 219.85 40.03 219.8 40 Z M 219.9 38 C 219.9 38 225.2 38 225.2 38 C 225.2 36.5 224.1 35.6 222.7 35.6 C 221.4 35.6 220.2 36.3 219.9 38 Z M 239.2 41.4 C 239.2 44 236.9 45.2 234.3 45.2 C 231.9 45.2 229.3 44.2 229.1 41.3 C 229.1 41.3 231.9 41.3 231.9 41.3 C 232.1 42.4 233.1 42.9 234.4 42.9 C 235.6 42.9 236.4 42.5 236.4 41.7 C 236.4 40.9 235.9 40.8 234.3 40.5 C 232 40.1 229.4 39.7 229.4 36.9 C 229.4 34.3 231.6 33.2 234 33.2 C 236.7 33.2 238.7 34.5 238.9 37.1 C 238.9 37.1 236.2 37.1 236.2 37.1 C 236.1 36 235.2 35.5 234.1 35.5 C 232.7 35.5 232.1 36.1 232.1 36.8 C 232.1 37.7 233.2 37.9 234.6 38.1 C 236.6 38.4 239.2 38.7 239.2 41.4 Z M 243.8 39.4 C 243.8 36.7 245.2 36.2 246.4 35.3 C 247.4 34.6 247.9 34 247.9 33.2 C 247.9 32 247 31.4 245.8 31.4 C 244.4 31.4 243.5 32.2 243.4 33.6 C 243.4 33.6 240.5 33.6 240.5 33.6 C 240.8 30.2 243.3 29 245.9 29 C 248.6 29 250.8 30.3 250.8 33.1 C 250.8 35.3 249.5 36.2 248.1 37.2 C 247 38 246.5 38.5 246.5 39.4 C 246.5 39.44 246.5 40.1 246.5 40.1 L 243.8 40.1 C 243.8 40.1 243.83 39.35 243.8 39.4 Z M 243.6 41.7 L 246.7 41.7 L 246.7 45 L 243.6 45 L 243.6 41.7 Z " stroke="none" fill="#000"/>  </g>  <g id="Polygon11010">    <path d="M 14.6 19.8 L 11.6 19.8 L 11.6 13.2 L 4.5 13.2 L 4.5 19.8 L 1.6 19.8 L 1.6 4 L 4.5 4 L 4.5 10.5 L 11.6 10.5 L 11.6 4 L 14.6 4 L 14.6 19.8 Z M 28.1 14 C 28.1 17.8 25.7 20 22.4 20 C 19.2 20 16.8 17.8 16.8 14 C 16.8 10.2 19.2 8 22.4 8 C 25.7 8 28.1 10.2 28.1 14 Z M 19.6 14 C 19.6 16.3 20.9 17.4 22.4 17.4 C 24.1 17.4 25.2 16.2 25.2 14 C 25.2 11.7 23.9 10.6 22.4 10.6 C 20.7 10.6 19.6 11.8 19.6 14 Z M 42.5 19.8 L 39.9 19.8 L 37.5 12.4 L 35.2 19.8 L 32.5 19.8 L 28.6 8.2 L 31.6 8.2 L 33.9 15.9 L 36.2 8.2 L 38.9 8.2 L 41.3 15.9 L 43.5 8.2 L 46.4 8.2 L 42.5 19.8 Z M 63.4 19.8 L 60.6 19.8 C 60.6 19.8 60.63 18 60.6 18 C 60 19.3 58.7 20 57.1 20 C 54.3 20 52 18 52 14 C 52 10 54.3 8 57.1 8 C 58.6 8 59.9 8.6 60.6 9.7 C 60.56 9.72 60.6 3.8 60.6 3.8 L 63.4 3.8 L 63.4 19.8 Z M 60.6 14 C 60.6 11.6 59.2 10.5 57.7 10.5 C 56.2 10.5 54.8 11.6 54.8 14 C 54.8 16.3 56.2 17.5 57.7 17.5 C 59.2 17.5 60.6 16.3 60.6 14 Z M 76.7 14 C 76.7 17.8 74.3 20 71 20 C 67.8 20 65.4 17.8 65.4 14 C 65.4 10.2 67.8 8 71 8 C 74.3 8 76.7 10.2 76.7 14 Z M 68.2 14 C 68.2 16.3 69.5 17.4 71 17.4 C 72.7 17.4 73.8 16.2 73.8 14 C 73.8 11.7 72.5 10.6 71 10.6 C 69.3 10.6 68.2 11.8 68.2 14 Z M 93.4 8.2 C 93.4 8.2 88.39 21.52 88.4 21.5 C 87.9 22.9 86.7 23.5 85.1 23.5 C 85.11 23.48 83.4 23.5 83.4 23.5 L 83.4 21 C 83.4 21 84.63 21 84.6 21 C 85.6 21 86 20.7 86.3 19.9 C 86.29 19.87 86.5 19.3 86.5 19.3 L 82.1 8.2 L 85.1 8.2 L 87.8 15.8 L 90.6 8.2 L 93.4 8.2 Z M 105.2 14 C 105.2 17.8 102.8 20 99.5 20 C 96.3 20 93.8 17.8 93.8 14 C 93.8 10.2 96.3 8 99.5 8 C 102.8 8 105.2 10.2 105.2 14 Z M 96.7 14 C 96.7 16.3 98 17.4 99.5 17.4 C 101.2 17.4 102.3 16.2 102.3 14 C 102.3 11.7 101 10.6 99.5 10.6 C 97.8 10.6 96.7 11.8 96.7 14 Z M 117.3 19.8 L 114.6 19.8 C 114.6 19.8 114.58 18.14 114.6 18.1 C 113.9 19.2 112.9 19.9 111.2 19.9 C 108.8 19.9 107.1 18.4 107.1 15.4 C 107.06 15.39 107.1 8.2 107.1 8.2 L 109.9 8.2 C 109.9 8.2 109.85 15.18 109.9 15.2 C 109.9 16.8 110.6 17.4 111.8 17.4 C 113.4 17.4 114.5 16.5 114.5 13.8 C 114.51 13.8 114.5 8.2 114.5 8.2 L 117.3 8.2 L 117.3 19.8 Z M 129.8 6.3 C 128.8 6.3 128.6 6.7 128.6 7.4 C 128.65 7.43 128.6 8.2 128.6 8.2 L 130.8 8.2 L 130.8 10.7 L 128.6 10.7 L 128.6 19.8 L 125.9 19.8 L 125.9 10.7 L 124.1 10.7 L 124.1 8.2 L 125.9 8.2 C 125.9 8.2 125.85 7.56 125.9 7.6 C 125.9 4.5 127.2 3.8 129.4 3.8 C 129.4 3.78 131.1 3.8 131.1 3.8 L 131.1 6.3 C 131.1 6.3 129.82 6.26 129.8 6.3 Z M 141.7 12 C 141.71 11.99 141.7 19.8 141.7 19.8 L 139 19.8 C 139 19.8 138.98 18.1 139 18.1 C 138.1 19.6 136.7 20 135.5 20 C 133.6 20 131.7 18.9 131.7 16.4 C 131.7 14.6 132.7 13.4 135.4 13 C 135.4 13 137.9 12.6 137.9 12.6 C 138.6 12.5 139.1 12.3 139.1 11.6 C 139.1 10.6 138.2 10.2 137.1 10.2 C 135.6 10.2 135 10.9 134.9 11.9 C 134.9 11.9 132.2 11.9 132.2 11.9 C 132.5 9.2 134.6 8 137.3 8 C 140 8 141.7 9.3 141.7 12 Z M 139 14.9 C 139 14.9 139 14.3 139 14.3 C 138.7 14.4 138.2 14.6 137.6 14.6 C 137.6 14.6 136.4 14.8 136.4 14.8 C 135 15 134.5 15.6 134.5 16.3 C 134.5 17.2 135.2 17.7 136.1 17.7 C 137.6 17.7 139 16.6 139 14.9 Z M 149.1 20 C 145.3 20 143.5 17.1 143.5 14 C 143.5 10.9 145.3 8 149.1 8 C 152 8 154.1 9.6 154.2 12.4 C 154.2 12.4 151.5 12.4 151.5 12.4 C 151.3 11.3 150.5 10.5 149.2 10.5 C 147.1 10.5 146.3 12.2 146.3 14 C 146.3 15.9 147.2 17.4 149.2 17.4 C 150.5 17.4 151.3 16.7 151.5 15.7 C 151.5 15.7 154.3 15.7 154.3 15.7 C 153.9 18.5 151.9 20 149.1 20 Z M 162.2 19.8 C 162.2 19.8 160.4 19.78 160.4 19.8 C 158.2 19.8 156.8 19.1 156.8 16 C 156.85 16 156.8 10.7 156.8 10.7 L 154.7 10.7 L 154.7 8.2 L 156.8 8.2 L 156.8 5.6 L 159.6 4.8 L 159.6 8.2 L 162 8.2 L 162 10.7 L 159.6 10.7 C 159.6 10.7 159.64 16.13 159.6 16.1 C 159.6 16.8 159.8 17.3 160.8 17.3 C 160.82 17.3 162.2 17.3 162.2 17.3 L 162.2 19.8 Z M 174.4 14 C 174.4 17.8 172 20 168.7 20 C 165.5 20 163.1 17.8 163.1 14 C 163.1 10.2 165.5 8 168.7 8 C 172 8 174.4 10.2 174.4 14 Z M 165.9 14 C 165.9 16.3 167.2 17.4 168.8 17.4 C 170.4 17.4 171.5 16.2 171.5 14 C 171.5 11.7 170.2 10.6 168.7 10.6 C 167 10.6 165.9 11.8 165.9 14 Z M 182.9 10.8 C 182.9 10.8 182.2 10.77 182.2 10.8 C 180.2 10.8 179.2 11.8 179.2 14.1 C 179.17 14.11 179.2 19.8 179.2 19.8 L 176.4 19.8 L 176.4 8.2 L 179.2 8.2 C 179.2 8.2 179.15 9.85 179.2 9.8 C 179.7 8.6 180.8 8.1 182.2 8.1 C 182.17 8.06 182.9 8.1 182.9 8.1 L 182.9 10.8 Z M 189.2 6.7 L 192.2 6.7 L 192.2 3.5 L 189.2 3.5 L 189.2 6.7 Z M 189.3 8.2 L 192.1 8.2 L 192.1 19.8 L 189.3 19.8 L 189.3 8.2 Z M 205 12.3 C 205 12.31 205 19.8 205 19.8 L 202.2 19.8 C 202.2 19.8 202.21 12.56 202.2 12.6 C 202.2 11.3 201.5 10.5 200.2 10.5 C 198.6 10.5 197.6 11.6 197.6 13.5 C 197.61 13.52 197.6 19.8 197.6 19.8 L 194.8 19.8 L 194.8 8.2 L 197.6 8.2 C 197.6 8.2 197.59 9.87 197.6 9.9 C 198.2 8.8 199.2 8 201.1 8 C 203.8 8 205 9.5 205 12.3 Z M 213.5 19.8 L 213.5 4 L 224.1 4 L 224.1 6.8 L 216.4 6.8 L 216.4 10.4 L 223.7 10.4 L 223.7 13.2 L 216.4 13.2 L 216.4 17 L 224.5 17 L 224.5 19.8 L 213.5 19.8 Z M 232.2 20.2 C 228.9 20.2 225.7 18.4 225.7 14.4 C 225.7 14.4 228.6 14.4 228.6 14.4 C 228.7 16.8 230.4 17.7 232.1 17.7 C 233.7 17.7 235 16.9 235 15.6 C 235 14 233.2 13.6 231.4 13.2 C 229.2 12.7 226.2 11.9 226.2 8.5 C 226.2 5.2 228.9 3.7 231.9 3.7 C 234.9 3.7 237.7 5.2 237.7 8.4 C 237.7 8.4 234.7 8.4 234.7 8.4 C 234.6 6.8 233.3 6.2 231.8 6.2 C 230.2 6.2 229.1 6.9 229.1 8.3 C 229.1 9.8 230.5 10.2 232.3 10.6 C 234.3 11.1 237.9 11.7 237.9 15.4 C 237.9 18.5 235.3 20.2 232.2 20.2 Z M 254.1 11.3 L 254.1 19.8 L 251.3 19.8 C 251.3 19.8 251.35 17.98 251.3 18 C 250.8 19 249.3 20.2 246.7 20.2 C 242.3 20.2 239.5 16.7 239.5 12 C 239.5 7.7 241.9 3.7 247.2 3.7 C 250.9 3.7 253.7 5.7 254.1 9.3 C 254.1 9.3 251.1 9.3 251.1 9.3 C 250.9 7.5 249.2 6.4 247.1 6.4 C 243.9 6.4 242.4 8.9 242.4 11.9 C 242.4 15.2 244.1 17.5 247.2 17.5 C 249.3 17.5 251.1 16.4 251.4 14.1 C 251.37 14.07 246.7 14.1 246.7 14.1 L 246.7 11.3 L 254.1 11.3 Z " stroke="none" fill="#000"/>  </g></svg>