<?xml version="1.0" standalone="no"?><!DOCTYPE svg PUBLIC "-//W3C//DTD SVG 1.1//EN" "http://www.w3.org/Graphics/SVG/1.1/DTD/svg11.dtd"><svg xmlns="http://www.w3.org/2000/svg" version="1.1" width="874px" height="91.4px" viewBox="0 0 874 91.4">  <desc>Nous avons constat qu en privil giant l approche bottom-up et en ayant une connaissance approfondie des titres dans</desc>  <defs/>  <g id="Polygon12023">    <path d="M 6.2 70.4 C 3.1 70.4 0.9 68.1 0.9 64.6 C 0.9 61 3 58.7 6.3 58.7 C 8.8 58.7 10.8 60.1 11 62.6 C 11 62.6 9.5 62.6 9.5 62.6 C 9.3 61 7.9 60.1 6.3 60.1 C 4.1 60.1 2.5 61.8 2.5 64.5 C 2.5 67.3 4.1 69 6.3 69 C 8 69 9.3 68 9.4 66.2 C 9.4 66.2 11 66.2 11 66.2 C 10.8 68.9 8.7 70.4 6.2 70.4 Z M 12.9 64.6 C 12.9 60.9 15.1 58.7 18.2 58.7 C 21.3 58.7 23.5 60.9 23.5 64.6 C 23.5 68.2 21.3 70.4 18.2 70.4 C 15.1 70.4 12.9 68.2 12.9 64.6 Z M 22 64.5 C 22 61.7 20.3 60.1 18.2 60.1 C 16 60.1 14.4 61.8 14.4 64.6 C 14.4 67.4 16.1 69 18.2 69 C 20.4 69 22 67.3 22 64.5 Z M 35.3 62.5 C 35.32 62.45 35.3 70.2 35.3 70.2 L 33.8 70.2 C 33.8 70.2 33.79 62.64 33.8 62.6 C 33.8 61.1 32.9 60.1 31.3 60.1 C 29.4 60.1 27.7 61.5 27.7 64.3 C 27.7 64.26 27.7 70.2 27.7 70.2 L 26.2 70.2 L 26.2 58.9 L 27.7 58.9 C 27.7 58.9 27.7 61 27.7 61 C 28.4 59.7 29.6 58.7 31.6 58.7 C 33.9 58.7 35.3 60 35.3 62.5 Z M 43 70.2 L 41.4 70.2 L 37.2 58.9 L 38.9 58.9 L 42.3 68.6 L 45.7 58.9 L 47.2 58.9 L 43 70.2 Z M 50.9 54.2 L 49.1 54.2 L 49.1 56.1 L 50.9 56.1 L 50.9 54.2 Z M 50.8 70.2 L 49.2 70.2 L 49.2 58.9 L 50.8 58.9 L 50.8 70.2 Z M 58.6 70.4 C 55.5 70.4 53.4 68.1 53.4 64.6 C 53.4 61 55.5 58.7 58.8 58.7 C 61.3 58.7 63.3 60.1 63.4 62.6 C 63.4 62.6 61.9 62.6 61.9 62.6 C 61.8 61 60.4 60.1 58.7 60.1 C 56.5 60.1 55 61.8 55 64.5 C 55 67.3 56.5 69 58.7 69 C 60.4 69 61.8 68 61.9 66.2 C 61.9 66.2 63.4 66.2 63.4 66.2 C 63.3 68.9 61.1 70.4 58.6 70.4 Z M 71.2 70.2 C 71.2 70.2 69.53 70.18 69.5 70.2 C 68 70.2 66.7 69.7 66.7 67.2 C 66.69 67.22 66.7 60.3 66.7 60.3 L 64.5 60.3 L 64.5 58.9 L 66.7 58.9 L 66.7 55.7 L 68.2 55.3 L 68.2 58.9 L 71 58.9 L 71 60.3 L 68.2 60.3 C 68.2 60.3 68.23 67.2 68.2 67.2 C 68.2 68.2 68.5 68.8 69.8 68.8 C 69.78 68.8 71.2 68.8 71.2 68.8 L 71.2 70.2 Z M 75 54.2 L 73.3 54.2 L 73.3 56.1 L 75 56.1 L 75 54.2 Z M 74.9 70.2 L 73.4 70.2 L 73.4 58.9 L 74.9 58.9 L 74.9 70.2 Z M 77.6 64.6 C 77.6 60.9 79.8 58.7 82.9 58.7 C 86 58.7 88.2 60.9 88.2 64.6 C 88.2 68.2 86 70.4 82.9 70.4 C 79.8 70.4 77.6 68.2 77.6 64.6 Z M 86.7 64.5 C 86.7 61.7 85 60.1 82.9 60.1 C 80.7 60.1 79.1 61.8 79.1 64.6 C 79.1 67.4 80.8 69 82.9 69 C 85.1 69 86.7 67.3 86.7 64.5 Z M 100 62.5 C 100.02 62.45 100 70.2 100 70.2 L 98.5 70.2 C 98.5 70.2 98.49 62.64 98.5 62.6 C 98.5 61.1 97.6 60.1 96 60.1 C 94.1 60.1 92.4 61.5 92.4 64.3 C 92.4 64.26 92.4 70.2 92.4 70.2 L 90.9 70.2 L 90.9 58.9 L 92.4 58.9 C 92.4 58.9 92.4 61 92.4 61 C 93.1 59.7 94.3 58.7 96.3 58.7 C 98.6 58.7 100 60 100 62.5 Z M 111.8 52.8 L 114.3 56.6 L 113.1 56.6 L 110.5 53.8 L 111.8 52.8 Z M 115.9 68.1 C 115 69.8 113.3 70.4 111.9 70.4 C 109.9 70.4 108.2 69.3 108.2 67.1 C 108.2 65 109.7 64 111.6 63.8 C 111.6 63.8 114.3 63.4 114.3 63.4 C 115.1 63.3 115.9 63 115.9 62 C 115.9 60.7 114.7 60 113.1 60 C 111.4 60 110.4 60.8 110.2 62.1 C 110.2 62.1 108.7 62.1 108.7 62.1 C 109 59.8 110.8 58.7 113.3 58.7 C 115.8 58.7 117.4 59.9 117.4 62.4 C 117.37 62.39 117.4 70.2 117.4 70.2 L 115.9 70.2 C 115.9 70.2 115.88 68.12 115.9 68.1 Z M 114 64.7 C 114 64.7 112.3 64.9 112.3 64.9 C 110.9 65.1 109.8 65.6 109.8 67 C 109.8 68.4 110.9 69 112.1 69 C 113.9 69 115.8 67.7 115.8 65.3 C 115.8 65.3 115.8 64.2 115.8 64.2 C 115.4 64.5 114.8 64.6 114 64.7 Z M 127.3 70.2 L 125.8 70.2 L 125.8 54.2 L 127.3 54.2 L 127.3 70.2 Z M 131.4 64.9 C 131.5 67.7 133.2 69 135.2 69 C 136.7 69 138.2 68.3 138.5 66.7 C 138.5 66.7 139.9 66.7 139.9 66.7 C 139.4 69.3 137.3 70.4 135.1 70.4 C 132.4 70.4 129.9 68.6 129.9 64.6 C 129.9 60.5 132.5 58.7 135.2 58.7 C 137.8 58.7 140 60.4 140 64.2 C 140.03 64.15 140 64.9 140 64.9 C 140 64.9 131.44 64.91 131.4 64.9 Z M 131.5 63.6 C 131.5 63.6 138.5 63.6 138.5 63.6 C 138.5 61.3 137 60.1 135.1 60.1 C 133.3 60.1 131.7 61.2 131.5 63.6 Z M 150.1 70.2 C 150.1 70.2 150.06 68.04 150.1 68 C 149.3 69.6 147.9 70.3 146.3 70.3 C 144.2 70.3 142.5 69 142.5 66.4 C 142.55 66.36 142.5 58.9 142.5 58.9 L 144.1 58.9 C 144.1 58.9 144.08 66.17 144.1 66.2 C 144.1 68 145.1 69 146.6 69 C 148.4 69 150 67.6 150 64.7 C 150 64.74 150 58.9 150 58.9 L 151.5 58.9 L 151.5 70.2 L 150.1 70.2 Z M 160.5 60.2 C 160.5 60.2 160.16 60.23 160.2 60.2 C 157.8 60.2 156.4 61.6 156.4 64.2 C 156.43 64.2 156.4 70.2 156.4 70.2 L 154.9 70.2 L 154.9 58.9 L 156.4 58.9 C 156.4 58.9 156.41 60.98 156.4 61 C 156.9 59.5 158.3 58.8 160 58.8 C 160.04 58.78 160.5 58.8 160.5 58.8 L 160.5 60.2 Z M 172.3 56.6 L 171 56.6 L 173.5 52.8 L 174.8 53.8 L 172.3 56.6 Z M 167.9 64.9 C 168 67.7 169.7 69 171.7 69 C 173.2 69 174.6 68.3 175 66.7 C 175 66.7 176.4 66.7 176.4 66.7 C 175.9 69.3 173.7 70.4 171.6 70.4 C 168.9 70.4 166.4 68.6 166.4 64.6 C 166.4 60.5 168.9 58.7 171.7 58.7 C 174.3 58.7 176.5 60.4 176.5 64.2 C 176.5 64.15 176.5 64.9 176.5 64.9 C 176.5 64.9 167.91 64.91 167.9 64.9 Z M 168 63.6 C 168 63.6 174.9 63.6 174.9 63.6 C 174.9 61.3 173.5 60.1 171.6 60.1 C 169.8 60.1 168.2 61.2 168 63.6 Z M 188.8 69.7 C 188.8 73.1 186.6 74.8 183.7 74.8 C 181.2 74.8 179 73.5 178.6 70.9 C 178.6 70.9 180.2 70.9 180.2 70.9 C 180.4 72.3 181.5 73.5 183.7 73.5 C 185.8 73.5 187.4 72.4 187.4 69.8 C 187.4 69.8 187.4 67.5 187.4 67.5 C 186.5 69.2 184.8 69.8 183.4 69.8 C 180.6 69.8 178.4 67.9 178.4 64.2 C 178.4 60.5 180.7 58.7 183.4 58.7 C 185.3 58.7 186.6 59.5 187.3 60.7 C 187.32 60.73 187.3 58.9 187.3 58.9 L 188.8 58.9 C 188.8 58.9 188.83 69.68 188.8 69.7 Z M 187.3 64.2 C 187.3 61.4 185.6 60 183.6 60 C 181.7 60 179.9 61.4 179.9 64.2 C 179.9 67 181.6 68.4 183.6 68.4 C 185.4 68.4 187.3 67.2 187.3 64.2 Z M 199 68.1 C 198.1 69.8 196.4 70.4 195 70.4 C 193.1 70.4 191.3 69.3 191.3 67.1 C 191.3 65 192.8 64 194.8 63.8 C 194.8 63.8 197.4 63.4 197.4 63.4 C 198.3 63.3 199 63 199 62 C 199 60.7 197.9 60 196.3 60 C 194.6 60 193.6 60.8 193.3 62.1 C 193.3 62.1 191.8 62.1 191.8 62.1 C 192.1 59.8 193.9 58.7 196.4 58.7 C 199 58.7 200.5 59.9 200.5 62.4 C 200.5 62.39 200.5 70.2 200.5 70.2 L 199 70.2 C 199 70.2 199.01 68.12 199 68.1 Z M 197.1 64.7 C 197.1 64.7 195.4 64.9 195.4 64.9 C 194 65.1 192.9 65.6 192.9 67 C 192.9 68.4 194 69 195.3 69 C 197 69 199 67.7 199 65.3 C 199 65.3 199 64.2 199 64.2 C 198.6 64.5 197.9 64.6 197.1 64.7 Z M 209.3 60.2 C 209.3 60.2 208.93 60.23 208.9 60.2 C 206.5 60.2 205.2 61.6 205.2 64.2 C 205.19 64.2 205.2 70.2 205.2 70.2 L 203.7 70.2 L 203.7 58.9 L 205.2 58.9 C 205.2 58.9 205.17 60.98 205.2 61 C 205.7 59.5 207.1 58.8 208.8 58.8 C 208.8 58.78 209.3 58.8 209.3 58.8 L 209.3 60.2 Z M 220.9 70.2 L 219.4 70.2 C 219.4 70.2 219.4 68 219.4 68 C 218.9 69.3 217.5 70.4 215.4 70.4 C 212.4 70.4 210.3 68.1 210.3 64.5 C 210.3 61 212.4 58.7 215.4 58.7 C 217.3 58.7 218.7 59.6 219.3 60.8 C 219.34 60.82 219.3 54.2 219.3 54.2 L 220.9 54.2 L 220.9 70.2 Z M 219.3 64.5 C 219.3 61.7 217.8 60.1 215.6 60.1 C 213.4 60.1 211.9 61.8 211.9 64.5 C 211.9 67.3 213.4 69 215.6 69 C 217.8 69 219.3 67.3 219.3 64.5 Z M 225.3 70.1 C 225.33 70.06 224.3 70.1 224.3 70.1 L 224.3 68 L 226.5 68 C 226.5 68 226.54 70.12 226.5 70.1 C 226.5 72.6 225.1 73.5 223.5 73.6 C 223.5 73.6 223.3 72.7 223.3 72.7 C 225 72.4 225.3 71.4 225.3 70.1 Z M 243.4 62.5 C 243.37 62.45 243.4 70.2 243.4 70.2 L 241.8 70.2 C 241.8 70.2 241.83 62.64 241.8 62.6 C 241.8 61.1 241 60.1 239.4 60.1 C 237.4 60.1 235.7 61.5 235.7 64.3 C 235.74 64.26 235.7 70.2 235.7 70.2 L 234.2 70.2 L 234.2 58.9 L 235.7 58.9 C 235.7 58.9 235.74 61 235.7 61 C 236.4 59.7 237.7 58.7 239.6 58.7 C 241.9 58.7 243.4 60 243.4 62.5 Z M 245.9 64.6 C 245.9 60.9 248.1 58.7 251.2 58.7 C 254.3 58.7 256.6 60.9 256.6 64.6 C 256.6 68.2 254.3 70.4 251.2 70.4 C 248.1 70.4 245.9 68.2 245.9 64.6 Z M 255 64.5 C 255 61.7 253.3 60.1 251.2 60.1 C 249 60.1 247.5 61.8 247.5 64.6 C 247.5 67.4 249.2 69 251.3 69 C 253.4 69 255 67.3 255 64.5 Z M 266.6 70.2 C 266.6 70.2 266.61 68.04 266.6 68 C 265.8 69.6 264.4 70.3 262.9 70.3 C 260.7 70.3 259.1 69 259.1 66.4 C 259.09 66.36 259.1 58.9 259.1 58.9 L 260.6 58.9 C 260.6 58.9 260.63 66.17 260.6 66.2 C 260.6 68 261.6 69 263.1 69 C 264.9 69 266.5 67.6 266.5 64.7 C 266.55 64.74 266.5 58.9 266.5 58.9 L 268.1 58.9 L 268.1 70.2 L 266.6 70.2 Z M 279.8 67 C 279.8 69.3 277.7 70.4 275.5 70.4 C 273.1 70.4 270.8 69.2 270.6 66.7 C 270.6 66.7 272.2 66.7 272.2 66.7 C 272.5 68.4 274 69 275.5 69 C 276.9 69 278.2 68.5 278.2 67.2 C 278.2 65.9 276.9 65.6 275.6 65.4 C 273.4 65 270.9 64.6 270.9 62 C 270.9 59.8 272.8 58.7 275.1 58.7 C 277.5 58.7 279.4 59.8 279.5 62.1 C 279.5 62.1 277.9 62.1 277.9 62.1 C 277.8 60.7 276.5 60.1 275.1 60.1 C 273.5 60.1 272.5 60.8 272.5 61.9 C 272.5 63.4 273.8 63.6 275.5 63.9 C 277.6 64.2 279.8 64.5 279.8 67 Z M 295.6 67 C 295.6 69.3 293.5 70.4 291.2 70.4 C 288.8 70.4 286.6 69.2 286.3 66.7 C 286.3 66.7 288 66.7 288 66.7 C 288.2 68.4 289.7 69 291.2 69 C 292.7 69 294 68.5 294 67.2 C 294 65.9 292.7 65.6 291.3 65.4 C 289.2 65 286.6 64.6 286.6 62 C 286.6 59.8 288.5 58.7 290.8 58.7 C 293.2 58.7 295.1 59.8 295.3 62.1 C 295.3 62.1 293.7 62.1 293.7 62.1 C 293.6 60.7 292.3 60.1 290.8 60.1 C 289.3 60.1 288.2 60.8 288.2 61.9 C 288.2 63.4 289.6 63.6 291.3 63.9 C 293.3 64.2 295.6 64.5 295.6 67 Z M 297.3 64.6 C 297.3 60.9 299.6 58.7 302.7 58.7 C 305.8 58.7 308 60.9 308 64.6 C 308 68.2 305.8 70.4 302.7 70.4 C 299.6 70.4 297.3 68.2 297.3 64.6 Z M 306.4 64.5 C 306.4 61.7 304.7 60.1 302.6 60.1 C 300.4 60.1 298.9 61.8 298.9 64.6 C 298.9 67.4 300.6 69 302.7 69 C 304.9 69 306.4 67.3 306.4 64.5 Z M 310.6 58.9 L 312.2 58.9 C 312.2 58.9 312.16 60.77 312.2 60.8 C 312.8 59.4 314 58.7 315.4 58.7 C 317.1 58.7 318.4 59.6 318.8 61 C 319.3 59.8 320.5 58.7 322.5 58.7 C 324.5 58.7 326.1 59.8 326.1 62.1 C 326.13 62.1 326.1 70.2 326.1 70.2 L 324.6 70.2 C 324.6 70.2 324.59 62.64 324.6 62.6 C 324.6 60.9 323.5 60.1 322.2 60.1 C 320.5 60.1 319.1 61.4 319.1 63.7 C 319.13 63.73 319.1 70.2 319.1 70.2 L 317.6 70.2 C 317.6 70.2 317.62 62.64 317.6 62.6 C 317.6 60.9 316.6 60.1 315.2 60.1 C 313.6 60.1 312.2 61.3 312.2 63.7 C 312.18 63.73 312.2 70.2 312.2 70.2 L 310.6 70.2 L 310.6 58.9 Z M 329.4 58.9 L 330.9 58.9 C 330.9 58.9 330.89 60.77 330.9 60.8 C 331.5 59.4 332.7 58.7 334.2 58.7 C 335.8 58.7 337.2 59.6 337.5 61 C 338 59.8 339.3 58.7 341.2 58.7 C 343.2 58.7 344.9 59.8 344.9 62.1 C 344.86 62.1 344.9 70.2 344.9 70.2 L 343.3 70.2 C 343.3 70.2 343.33 62.64 343.3 62.6 C 343.3 60.9 342.3 60.1 340.9 60.1 C 339.3 60.1 337.9 61.4 337.9 63.7 C 337.87 63.73 337.9 70.2 337.9 70.2 L 336.4 70.2 C 336.4 70.2 336.35 62.64 336.4 62.6 C 336.4 60.9 335.3 60.1 334 60.1 C 332.3 60.1 330.9 61.3 330.9 63.7 C 330.91 63.73 330.9 70.2 330.9 70.2 L 329.4 70.2 L 329.4 58.9 Z M 348.9 64.9 C 348.9 67.7 350.7 69 352.6 69 C 354.1 69 355.6 68.3 355.9 66.7 C 355.9 66.7 357.4 66.7 357.4 66.7 C 356.9 69.3 354.7 70.4 352.6 70.4 C 349.9 70.4 347.4 68.6 347.4 64.6 C 347.4 60.5 349.9 58.7 352.6 58.7 C 355.3 58.7 357.5 60.4 357.5 64.2 C 357.48 64.15 357.5 64.9 357.5 64.9 C 357.5 64.9 348.89 64.91 348.9 64.9 Z M 348.9 63.6 C 348.9 63.6 355.9 63.6 355.9 63.6 C 355.9 61.3 354.5 60.1 352.6 60.1 C 350.8 60.1 349.1 61.2 348.9 63.6 Z M 368.5 67 C 368.5 69.3 366.4 70.4 364.1 70.4 C 361.7 70.4 359.5 69.2 359.3 66.7 C 359.3 66.7 360.9 66.7 360.9 66.7 C 361.2 68.4 362.6 69 364.2 69 C 365.6 69 366.9 68.5 366.9 67.2 C 366.9 65.9 365.6 65.6 364.3 65.4 C 362.1 65 359.5 64.6 359.5 62 C 359.5 59.8 361.5 58.7 363.8 58.7 C 366.2 58.7 368.1 59.8 368.2 62.1 C 368.2 62.1 366.6 62.1 366.6 62.1 C 366.5 60.7 365.2 60.1 363.7 60.1 C 362.2 60.1 361.1 60.8 361.1 61.9 C 361.1 63.4 362.5 63.6 364.2 63.9 C 366.2 64.2 368.5 64.5 368.5 67 Z M 379.1 52.8 L 381.6 56.6 L 380.4 56.6 L 377.8 53.8 L 379.1 52.8 Z M 383.2 68.1 C 382.3 69.8 380.6 70.4 379.2 70.4 C 377.2 70.4 375.5 69.3 375.5 67.1 C 375.5 65 377 64 378.9 63.8 C 378.9 63.8 381.6 63.4 381.6 63.4 C 382.4 63.3 383.2 63 383.2 62 C 383.2 60.7 382 60 380.5 60 C 378.8 60 377.7 60.8 377.5 62.1 C 377.5 62.1 376 62.1 376 62.1 C 376.3 59.8 378.1 58.7 380.6 58.7 C 383.1 58.7 384.7 59.9 384.7 62.4 C 384.67 62.39 384.7 70.2 384.7 70.2 L 383.2 70.2 C 383.2 70.2 383.18 68.12 383.2 68.1 Z M 381.3 64.7 C 381.3 64.7 379.6 64.9 379.6 64.9 C 378.2 65.1 377.1 65.6 377.1 67 C 377.1 68.4 378.2 69 379.4 69 C 381.2 69 383.1 67.7 383.1 65.3 C 383.1 65.3 383.1 64.2 383.1 64.2 C 382.7 64.5 382.1 64.6 381.3 64.7 Z M 393.1 58.9 L 394.6 58.9 C 394.6 58.9 394.59 60.77 394.6 60.8 C 395.2 59.4 396.4 58.7 397.9 58.7 C 399.5 58.7 400.8 59.6 401.2 61 C 401.7 59.8 402.9 58.7 404.9 58.7 C 406.9 58.7 408.6 59.8 408.6 62.1 C 408.55 62.1 408.6 70.2 408.6 70.2 L 407 70.2 C 407 70.2 407.02 62.64 407 62.6 C 407 60.9 405.9 60.1 404.6 60.1 C 402.9 60.1 401.6 61.4 401.6 63.7 C 401.56 63.73 401.6 70.2 401.6 70.2 L 400 70.2 C 400 70.2 400.05 62.64 400 62.6 C 400 60.9 399 60.1 397.7 60.1 C 396 60.1 394.6 61.3 394.6 63.7 C 394.61 63.73 394.6 70.2 394.6 70.2 L 393.1 70.2 L 393.1 58.9 Z M 416.3 54.6 L 414.6 56.6 L 413 56.6 L 415.8 53.2 L 416.8 53.2 L 419.5 56.6 L 417.9 56.6 L 416.3 54.6 Z M 412.6 64.9 C 412.6 67.7 414.3 69 416.3 69 C 417.8 69 419.3 68.3 419.6 66.7 C 419.6 66.7 421.1 66.7 421.1 66.7 C 420.6 69.3 418.4 70.4 416.3 70.4 C 413.6 70.4 411.1 68.6 411.1 64.6 C 411.1 60.5 413.6 58.7 416.3 58.7 C 419 58.7 421.2 60.4 421.2 64.2 C 421.17 64.15 421.2 64.9 421.2 64.9 C 421.2 64.9 412.58 64.91 412.6 64.9 Z M 412.6 63.6 C 412.6 63.6 419.6 63.6 419.6 63.6 C 419.6 61.3 418.1 60.1 416.3 60.1 C 414.5 60.1 412.8 61.2 412.6 63.6 Z M 423.8 58.9 L 425.3 58.9 C 425.3 58.9 425.31 60.77 425.3 60.8 C 425.9 59.4 427.2 58.7 428.6 58.7 C 430.2 58.7 431.6 59.6 431.9 61 C 432.4 59.8 433.7 58.7 435.6 58.7 C 437.7 58.7 439.3 59.8 439.3 62.1 C 439.27 62.1 439.3 70.2 439.3 70.2 L 437.7 70.2 C 437.7 70.2 437.74 62.64 437.7 62.6 C 437.7 60.9 436.7 60.1 435.3 60.1 C 433.7 60.1 432.3 61.4 432.3 63.7 C 432.28 63.73 432.3 70.2 432.3 70.2 L 430.8 70.2 C 430.8 70.2 430.77 62.64 430.8 62.6 C 430.8 60.9 429.7 60.1 428.4 60.1 C 426.7 60.1 425.3 61.3 425.3 63.7 C 425.33 63.73 425.3 70.2 425.3 70.2 L 423.8 70.2 L 423.8 58.9 Z M 443.3 64.9 C 443.3 67.7 445.1 69 447.1 69 C 448.6 69 450 68.3 450.4 66.7 C 450.4 66.7 451.8 66.7 451.8 66.7 C 451.3 69.3 449.1 70.4 447 70.4 C 444.3 70.4 441.8 68.6 441.8 64.6 C 441.8 60.5 444.3 58.7 447 58.7 C 449.7 58.7 451.9 60.4 451.9 64.2 C 451.89 64.15 451.9 64.9 451.9 64.9 C 451.9 64.9 443.31 64.91 443.3 64.9 Z M 443.3 63.6 C 443.3 63.6 450.3 63.6 450.3 63.6 C 450.3 61.3 448.9 60.1 447 60.1 C 445.2 60.1 443.6 61.2 443.3 63.6 Z M 469.2 70.2 L 467.7 70.2 C 467.7 70.2 467.69 68 467.7 68 C 467.1 69.3 465.8 70.4 463.7 70.4 C 460.7 70.4 458.6 68.1 458.6 64.5 C 458.6 61 460.7 58.7 463.7 58.7 C 465.6 58.7 467 59.6 467.6 60.8 C 467.62 60.82 467.6 54.2 467.6 54.2 L 469.2 54.2 L 469.2 70.2 Z M 467.6 64.5 C 467.6 61.7 466 60.1 463.9 60.1 C 461.7 60.1 460.2 61.8 460.2 64.5 C 460.2 67.3 461.7 69 463.9 69 C 466.1 69 467.6 67.3 467.6 64.5 Z M 473.6 56.4 C 473.61 56.38 472.6 56.4 472.6 56.4 L 472.6 54.3 L 474.8 54.3 C 474.8 54.3 474.83 56.45 474.8 56.4 C 474.8 58.9 473.4 59.8 471.8 60 C 471.8 60 471.6 59 471.6 59 C 473.3 58.7 473.6 57.7 473.6 56.4 Z M 478.9 54.2 L 477.1 54.2 L 477.1 56.1 L 478.9 56.1 L 478.9 54.2 Z M 478.8 70.2 L 477.2 70.2 L 477.2 58.9 L 478.8 58.9 L 478.8 70.2 Z M 491.9 70.2 L 490.5 70.2 C 490.5 70.2 490.47 68 490.5 68 C 489.9 69.3 488.6 70.4 486.5 70.4 C 483.5 70.4 481.4 68.1 481.4 64.5 C 481.4 61 483.5 58.7 486.5 58.7 C 488.4 58.7 489.8 59.6 490.4 60.8 C 490.41 60.82 490.4 54.2 490.4 54.2 L 491.9 54.2 L 491.9 70.2 Z M 490.4 64.5 C 490.4 61.7 488.8 60.1 486.7 60.1 C 484.5 60.1 483 61.8 483 64.5 C 483 67.3 484.5 69 486.7 69 C 488.9 69 490.4 67.3 490.4 64.5 Z M 496.1 64.9 C 496.1 67.7 497.8 69 499.8 69 C 501.3 69 502.8 68.3 503.1 66.7 C 503.1 66.7 504.6 66.7 504.6 66.7 C 504.1 69.3 501.9 70.4 499.8 70.4 C 497.1 70.4 494.6 68.6 494.6 64.6 C 494.6 60.5 497.1 58.7 499.8 58.7 C 502.5 58.7 504.7 60.4 504.7 64.2 C 504.67 64.15 504.7 64.9 504.7 64.9 C 504.7 64.9 496.08 64.91 496.1 64.9 Z M 496.1 63.6 C 496.1 63.6 503.1 63.6 503.1 63.6 C 503.1 61.3 501.6 60.1 499.8 60.1 C 498 60.1 496.3 61.2 496.1 63.6 Z M 516.4 62.5 C 516.45 62.45 516.4 70.2 516.4 70.2 L 514.9 70.2 C 514.9 70.2 514.92 62.64 514.9 62.6 C 514.9 61.1 514 60.1 512.4 60.1 C 510.5 60.1 508.8 61.5 508.8 64.3 C 508.83 64.26 508.8 70.2 508.8 70.2 L 507.3 70.2 L 507.3 58.9 L 508.8 58.9 C 508.8 58.9 508.83 61 508.8 61 C 509.5 59.7 510.8 58.7 512.7 58.7 C 515 58.7 516.4 60 516.4 62.5 Z M 524.8 70.2 C 524.8 70.2 523.19 70.18 523.2 70.2 C 521.7 70.2 520.4 69.7 520.4 67.2 C 520.35 67.22 520.4 60.3 520.4 60.3 L 518.1 60.3 L 518.1 58.9 L 520.4 58.9 L 520.4 55.7 L 521.9 55.3 L 521.9 58.9 L 524.6 58.9 L 524.6 60.3 L 521.9 60.3 C 521.9 60.3 521.89 67.2 521.9 67.2 C 521.9 68.2 522.2 68.8 523.4 68.8 C 523.44 68.8 524.8 68.8 524.8 68.8 L 524.8 70.2 Z M 528.7 54.2 L 526.9 54.2 L 526.9 56.1 L 528.7 56.1 L 528.7 54.2 Z M 528.6 70.2 L 527.1 70.2 L 527.1 58.9 L 528.6 58.9 L 528.6 70.2 Z M 539.8 70.2 L 539.8 60.3 L 534 60.3 L 534 70.2 L 532.4 70.2 L 532.4 60.3 L 530.6 60.3 L 530.6 58.9 L 532.4 58.9 C 532.4 58.9 532.45 57.12 532.4 57.1 C 532.4 54.6 533.8 54.2 535.3 54.2 C 535.28 54.18 536.8 54.2 536.8 54.2 L 536.8 55.5 C 536.8 55.5 535.54 55.54 535.5 55.5 C 534.3 55.5 534 56.1 534 57.2 C 533.98 57.16 534 58.9 534 58.9 L 541.3 58.9 L 541.3 70.2 L 539.8 70.2 Z M 545.3 64.9 C 545.4 67.7 547.1 69 549.1 69 C 550.6 69 552.1 68.3 552.4 66.7 C 552.4 66.7 553.8 66.7 553.8 66.7 C 553.3 69.3 551.2 70.4 549 70.4 C 546.3 70.4 543.8 68.6 543.8 64.6 C 543.8 60.5 546.4 58.7 549.1 58.7 C 551.7 58.7 553.9 60.4 553.9 64.2 C 553.93 64.15 553.9 64.9 553.9 64.9 C 553.9 64.9 545.34 64.91 545.3 64.9 Z M 545.4 63.6 C 545.4 63.6 552.4 63.6 552.4 63.6 C 552.4 61.3 550.9 60.1 549 60.1 C 547.3 60.1 545.6 61.2 545.4 63.6 Z M 562.2 60.2 C 562.2 60.2 561.83 60.23 561.8 60.2 C 559.4 60.2 558.1 61.6 558.1 64.2 C 558.09 64.2 558.1 70.2 558.1 70.2 L 556.6 70.2 L 556.6 58.9 L 558.1 58.9 C 558.1 58.9 558.07 60.98 558.1 61 C 558.6 59.5 560 58.8 561.7 58.8 C 561.7 58.78 562.2 58.8 562.2 58.8 L 562.2 60.2 Z M 570.8 70.2 L 569.2 70.2 L 569.2 54.2 L 570.8 54.2 L 570.8 70.2 Z M 581 68.1 C 580.2 69.8 578.5 70.4 577 70.4 C 575.1 70.4 573.4 69.3 573.4 67.1 C 573.4 65 574.9 64 576.8 63.8 C 576.8 63.8 579.5 63.4 579.5 63.4 C 580.3 63.3 581 63 581 62 C 581 60.7 579.9 60 578.3 60 C 576.6 60 575.6 60.8 575.4 62.1 C 575.4 62.1 573.8 62.1 573.8 62.1 C 574.1 59.8 575.9 58.7 578.4 58.7 C 581 58.7 582.5 59.9 582.5 62.4 C 582.53 62.39 582.5 70.2 582.5 70.2 L 581 70.2 C 581 70.2 581.04 68.12 581 68.1 Z M 579.2 64.7 C 579.2 64.7 577.5 64.9 577.5 64.9 C 576 65.1 575 65.6 575 67 C 575 68.4 576 69 577.3 69 C 579 69 581 67.7 581 65.3 C 581 65.3 581 64.2 581 64.2 C 580.6 64.5 579.9 64.6 579.2 64.7 Z M 595 70.2 L 593.3 70.2 L 589.1 58.9 L 590.8 58.9 L 594.2 68.6 L 597.6 58.9 L 599.2 58.9 L 595 70.2 Z M 606.8 60.2 C 606.8 60.2 606.45 60.23 606.5 60.2 C 604.1 60.2 602.7 61.6 602.7 64.2 C 602.72 64.2 602.7 70.2 602.7 70.2 L 601.2 70.2 L 601.2 58.9 L 602.7 58.9 C 602.7 58.9 602.69 60.98 602.7 61 C 603.2 59.5 604.6 58.8 606.3 58.8 C 606.33 58.78 606.8 58.8 606.8 58.8 L 606.8 60.2 Z M 615.7 68.1 C 614.9 69.8 613.2 70.4 611.7 70.4 C 609.8 70.4 608.1 69.3 608.1 67.1 C 608.1 65 609.6 64 611.5 63.8 C 611.5 63.8 614.2 63.4 614.2 63.4 C 615 63.3 615.7 63 615.7 62 C 615.7 60.7 614.6 60 613 60 C 611.3 60 610.3 60.8 610 62.1 C 610 62.1 608.5 62.1 608.5 62.1 C 608.8 59.8 610.6 58.7 613.1 58.7 C 615.7 58.7 617.2 59.9 617.2 62.4 C 617.23 62.39 617.2 70.2 617.2 70.2 L 615.7 70.2 C 615.7 70.2 615.73 68.12 615.7 68.1 Z M 613.9 64.7 C 613.9 64.7 612.1 64.9 612.1 64.9 C 610.7 65.1 609.6 65.6 609.6 67 C 609.6 68.4 610.7 69 612 69 C 613.7 69 615.7 67.7 615.7 65.3 C 615.7 65.3 615.7 64.2 615.7 64.2 C 615.3 64.5 614.6 64.6 613.9 64.7 Z M 622 54.2 L 620.3 54.2 L 620.3 56.1 L 622 56.1 L 622 54.2 Z M 621.9 70.2 L 620.4 70.2 L 620.4 58.9 L 621.9 58.9 L 621.9 70.2 Z M 626 64.9 C 626.1 67.7 627.8 69 629.8 69 C 631.3 69 632.8 68.3 633.1 66.7 C 633.1 66.7 634.6 66.7 634.6 66.7 C 634 69.3 631.9 70.4 629.7 70.4 C 627 70.4 624.5 68.6 624.5 64.6 C 624.5 60.5 627.1 58.7 629.8 58.7 C 632.5 58.7 634.6 60.4 634.6 64.2 C 634.63 64.15 634.6 64.9 634.6 64.9 C 634.6 64.9 626.05 64.91 626 64.9 Z M 626.1 63.6 C 626.1 63.6 633.1 63.6 633.1 63.6 C 633.1 61.3 631.6 60.1 629.7 60.1 C 628 60.1 626.3 61.2 626.1 63.6 Z M 646.6 70.2 L 644.9 70.2 L 640.7 58.9 L 642.4 58.9 L 645.8 68.6 L 649.2 58.9 L 650.8 58.9 L 646.6 70.2 Z M 659.5 68.1 C 658.6 69.8 656.9 70.4 655.5 70.4 C 653.5 70.4 651.8 69.3 651.8 67.1 C 651.8 65 653.3 64 655.2 63.8 C 655.2 63.8 657.9 63.4 657.9 63.4 C 658.7 63.3 659.5 63 659.5 62 C 659.5 60.7 658.3 60 656.7 60 C 655 60 654 60.8 653.8 62.1 C 653.8 62.1 652.3 62.1 652.3 62.1 C 652.6 59.8 654.4 58.7 656.9 58.7 C 659.4 58.7 661 59.9 661 62.4 C 660.97 62.39 661 70.2 661 70.2 L 659.5 70.2 C 659.5 70.2 659.48 68.12 659.5 68.1 Z M 657.6 64.7 C 657.6 64.7 655.9 64.9 655.9 64.9 C 654.5 65.1 653.4 65.6 653.4 67 C 653.4 68.4 654.5 69 655.7 69 C 657.5 69 659.4 67.7 659.4 65.3 C 659.4 65.3 659.4 64.2 659.4 64.2 C 659 64.5 658.4 64.6 657.6 64.7 Z M 665.7 70.2 L 664.1 70.2 L 664.1 54.2 L 665.7 54.2 L 665.7 70.2 Z M 669.8 64.9 C 669.8 67.7 671.6 69 673.5 69 C 675 69 676.5 68.3 676.8 66.7 C 676.8 66.7 678.3 66.7 678.3 66.7 C 677.8 69.3 675.6 70.4 673.5 70.4 C 670.8 70.4 668.3 68.6 668.3 64.6 C 668.3 60.5 670.8 58.7 673.5 58.7 C 676.2 58.7 678.4 60.4 678.4 64.2 C 678.38 64.15 678.4 64.9 678.4 64.9 C 678.4 64.9 669.79 64.91 669.8 64.9 Z M 669.8 63.6 C 669.8 63.6 676.8 63.6 676.8 63.6 C 676.8 61.3 675.4 60.1 673.5 60.1 C 671.7 60.1 670 61.2 669.8 63.6 Z M 688.4 70.2 C 688.4 70.2 688.42 68.04 688.4 68 C 687.6 69.6 686.3 70.3 684.7 70.3 C 682.5 70.3 680.9 69 680.9 66.4 C 680.9 66.36 680.9 58.9 680.9 58.9 L 682.4 58.9 C 682.4 58.9 682.43 66.17 682.4 66.2 C 682.4 68 683.4 69 684.9 69 C 686.7 69 688.4 67.6 688.4 64.7 C 688.35 64.74 688.4 58.9 688.4 58.9 L 689.9 58.9 L 689.9 70.2 L 688.4 70.2 Z M 698.9 60.2 C 698.9 60.2 698.52 60.23 698.5 60.2 C 696.1 60.2 694.8 61.6 694.8 64.2 C 694.78 64.2 694.8 70.2 694.8 70.2 L 693.2 70.2 L 693.2 58.9 L 694.8 58.9 C 694.8 58.9 694.76 60.98 694.8 61 C 695.3 59.5 696.6 58.8 698.4 58.8 C 698.39 58.78 698.9 58.8 698.9 58.8 L 698.9 60.2 Z M 715.3 70.2 L 713.8 70.2 C 713.8 70.2 713.82 68 713.8 68 C 713.3 69.3 711.9 70.4 709.8 70.4 C 706.9 70.4 704.8 68.1 704.8 64.5 C 704.8 61 706.9 58.7 709.8 58.7 C 711.7 58.7 713.2 59.6 713.8 60.8 C 713.76 60.82 713.8 54.2 713.8 54.2 L 715.3 54.2 L 715.3 70.2 Z M 713.7 64.5 C 713.7 61.7 712.2 60.1 710 60.1 C 707.8 60.1 706.3 61.8 706.3 64.5 C 706.3 67.3 707.8 69 710 69 C 712.2 69 713.7 67.3 713.7 64.5 Z M 726.1 70.2 C 726.1 70.2 726.07 68.04 726.1 68 C 725.3 69.6 723.9 70.3 722.3 70.3 C 720.2 70.3 718.5 69 718.5 66.4 C 718.55 66.36 718.5 58.9 718.5 58.9 L 720.1 58.9 C 720.1 58.9 720.08 66.17 720.1 66.2 C 720.1 68 721.1 69 722.6 69 C 724.4 69 726 67.6 726 64.7 C 726 64.74 726 58.9 726 58.9 L 727.5 58.9 L 727.5 70.2 L 726.1 70.2 Z M 736.6 58.9 L 738.1 58.9 C 738.1 58.9 738.08 60.77 738.1 60.8 C 738.7 59.4 739.9 58.7 741.4 58.7 C 743 58.7 744.3 59.6 744.7 61 C 745.2 59.8 746.4 58.7 748.4 58.7 C 750.4 58.7 752 59.8 752 62.1 C 752.04 62.1 752 70.2 752 70.2 L 750.5 70.2 C 750.5 70.2 750.51 62.64 750.5 62.6 C 750.5 60.9 749.4 60.1 748.1 60.1 C 746.4 60.1 745.1 61.4 745.1 63.7 C 745.05 63.73 745.1 70.2 745.1 70.2 L 743.5 70.2 C 743.5 70.2 743.54 62.64 743.5 62.6 C 743.5 60.9 742.5 60.1 741.2 60.1 C 739.5 60.1 738.1 61.3 738.1 63.7 C 738.1 63.73 738.1 70.2 738.1 70.2 L 736.6 70.2 L 736.6 58.9 Z M 762.2 68.1 C 761.3 69.8 759.6 70.4 758.2 70.4 C 756.3 70.4 754.6 69.3 754.6 67.1 C 754.6 65 756.1 64 758 63.8 C 758 63.8 760.7 63.4 760.7 63.4 C 761.5 63.3 762.2 63 762.2 62 C 762.2 60.7 761.1 60 759.5 60 C 757.8 60 756.8 60.8 756.5 62.1 C 756.5 62.1 755 62.1 755 62.1 C 755.3 59.8 757.1 58.7 759.6 58.7 C 762.2 58.7 763.7 59.9 763.7 62.4 C 763.72 62.39 763.7 70.2 763.7 70.2 L 762.2 70.2 C 762.2 70.2 762.23 68.12 762.2 68.1 Z M 760.4 64.7 C 760.4 64.7 758.6 64.9 758.6 64.9 C 757.2 65.1 756.1 65.6 756.1 67 C 756.1 68.4 757.2 69 758.5 69 C 760.2 69 762.2 67.7 762.2 65.3 C 762.2 65.3 762.2 64.2 762.2 64.2 C 761.8 64.5 761.1 64.6 760.4 64.7 Z M 772.5 60.2 C 772.5 60.2 772.14 60.23 772.1 60.2 C 769.7 60.2 768.4 61.6 768.4 64.2 C 768.4 64.2 768.4 70.2 768.4 70.2 L 766.9 70.2 L 766.9 58.9 L 768.4 58.9 C 768.4 58.9 768.38 60.98 768.4 61 C 768.9 59.5 770.3 58.8 772 58.8 C 772.02 58.78 772.5 58.8 772.5 58.8 L 772.5 60.2 Z M 778.8 70.4 C 775.7 70.4 773.5 68.1 773.5 64.6 C 773.5 61 775.6 58.7 778.9 58.7 C 781.4 58.7 783.4 60.1 783.6 62.6 C 783.6 62.6 782.1 62.6 782.1 62.6 C 781.9 61 780.5 60.1 778.9 60.1 C 776.7 60.1 775.1 61.8 775.1 64.5 C 775.1 67.3 776.7 69 778.9 69 C 780.6 69 781.9 68 782.1 66.2 C 782.1 66.2 783.6 66.2 783.6 66.2 C 783.4 68.9 781.3 70.4 778.8 70.4 Z M 795.3 62.5 C 795.35 62.45 795.3 70.2 795.3 70.2 L 793.8 70.2 C 793.8 70.2 793.81 62.64 793.8 62.6 C 793.8 61.1 792.9 60.1 791.3 60.1 C 789.4 60.1 787.7 61.5 787.7 64.3 C 787.72 64.26 787.7 70.2 787.7 70.2 L 786.2 70.2 L 786.2 54.2 L 787.7 54.2 C 787.7 54.2 787.72 60.88 787.7 60.9 C 788.4 59.6 789.6 58.7 791.6 58.7 C 793.9 58.7 795.3 60 795.3 62.5 Z M 803.7 56.6 L 802.5 56.6 L 805 52.8 L 806.3 53.8 L 803.7 56.6 Z M 799.4 64.9 C 799.4 67.7 801.1 69 803.1 69 C 804.6 69 806.1 68.3 806.4 66.7 C 806.4 66.7 807.9 66.7 807.9 66.7 C 807.4 69.3 805.2 70.4 803.1 70.4 C 800.4 70.4 797.9 68.6 797.9 64.6 C 797.9 60.5 800.4 58.7 803.1 58.7 C 805.8 58.7 808 60.4 808 64.2 C 807.97 64.15 808 64.9 808 64.9 C 808 64.9 799.38 64.91 799.4 64.9 Z M 799.4 63.6 C 799.4 63.6 806.4 63.6 806.4 63.6 C 806.4 61.3 804.9 60.1 803.1 60.1 C 801.3 60.1 799.6 61.2 799.4 63.6 Z M 809.9 68 L 812 68 L 812 70.2 L 809.9 70.2 L 809.9 68 Z " stroke="none" fill="#fff"/>  </g>  <g id="Polygon12022">    <path d="M 6.2 45.2 C 3.1 45.2 0.9 42.9 0.9 39.4 C 0.9 35.8 3 33.5 6.3 33.5 C 8.8 33.5 10.8 34.9 11 37.4 C 11 37.4 9.5 37.4 9.5 37.4 C 9.3 35.8 7.9 34.9 6.3 34.9 C 4.1 34.9 2.5 36.6 2.5 39.3 C 2.5 42.1 4.1 43.8 6.3 43.8 C 8 43.8 9.3 42.8 9.4 41 C 9.4 41 11 41 11 41 C 10.8 43.7 8.7 45.2 6.2 45.2 Z M 12.9 39.4 C 12.9 35.7 15.1 33.5 18.2 33.5 C 21.3 33.5 23.5 35.7 23.5 39.4 C 23.5 43 21.3 45.2 18.2 45.2 C 15.1 45.2 12.9 43 12.9 39.4 Z M 22 39.3 C 22 36.5 20.3 34.9 18.2 34.9 C 16 34.9 14.4 36.6 14.4 39.4 C 14.4 42.2 16.1 43.8 18.2 43.8 C 20.4 43.8 22 42.1 22 39.3 Z M 35.3 37.3 C 35.32 37.25 35.3 45 35.3 45 L 33.8 45 C 33.8 45 33.79 37.44 33.8 37.4 C 33.8 35.9 32.9 34.9 31.3 34.9 C 29.4 34.9 27.7 36.3 27.7 39.1 C 27.7 39.06 27.7 45 27.7 45 L 26.2 45 L 26.2 33.7 L 27.7 33.7 C 27.7 33.7 27.7 35.8 27.7 35.8 C 28.4 34.5 29.6 33.5 31.6 33.5 C 33.9 33.5 35.3 34.8 35.3 37.3 Z M 47.7 37.3 C 47.73 37.25 47.7 45 47.7 45 L 46.2 45 C 46.2 45 46.2 37.44 46.2 37.4 C 46.2 35.9 45.3 34.9 43.7 34.9 C 41.8 34.9 40.1 36.3 40.1 39.1 C 40.11 39.06 40.1 45 40.1 45 L 38.6 45 L 38.6 33.7 L 40.1 33.7 C 40.1 33.7 40.11 35.8 40.1 35.8 C 40.8 34.5 42 33.5 44 33.5 C 46.3 33.5 47.7 34.8 47.7 37.3 Z M 57.9 42.9 C 57 44.6 55.3 45.2 53.9 45.2 C 52 45.2 50.3 44.1 50.3 41.9 C 50.3 39.8 51.7 38.8 53.7 38.6 C 53.7 38.6 56.3 38.2 56.3 38.2 C 57.2 38.1 57.9 37.8 57.9 36.8 C 57.9 35.5 56.8 34.8 55.2 34.8 C 53.5 34.8 52.5 35.6 52.2 36.9 C 52.2 36.9 50.7 36.9 50.7 36.9 C 51 34.6 52.8 33.5 55.3 33.5 C 57.9 33.5 59.4 34.7 59.4 37.2 C 59.41 37.19 59.4 45 59.4 45 L 57.9 45 C 57.9 45 57.92 42.92 57.9 42.9 Z M 56 39.5 C 56 39.5 54.3 39.7 54.3 39.7 C 52.9 39.9 51.8 40.4 51.8 41.8 C 51.8 43.2 52.9 43.8 54.2 43.8 C 55.9 43.8 57.9 42.5 57.9 40.1 C 57.9 40.1 57.9 39 57.9 39 C 57.5 39.3 56.8 39.4 56 39.5 Z M 64.2 29 L 62.5 29 L 62.5 30.9 L 64.2 30.9 L 64.2 29 Z M 64.1 45 L 62.6 45 L 62.6 33.7 L 64.1 33.7 L 64.1 45 Z M 75.8 41.8 C 75.8 44.1 73.8 45.2 71.5 45.2 C 69.1 45.2 66.8 44 66.6 41.5 C 66.6 41.5 68.2 41.5 68.2 41.5 C 68.5 43.2 70 43.8 71.5 43.8 C 73 43.8 74.2 43.3 74.2 42 C 74.2 40.7 72.9 40.4 71.6 40.2 C 69.4 39.8 66.9 39.4 66.9 36.8 C 66.9 34.6 68.8 33.5 71.1 33.5 C 73.5 33.5 75.4 34.6 75.5 36.9 C 75.5 36.9 73.9 36.9 73.9 36.9 C 73.8 35.5 72.5 34.9 71.1 34.9 C 69.5 34.9 68.5 35.6 68.5 36.7 C 68.5 38.2 69.8 38.4 71.5 38.7 C 73.6 39 75.8 39.3 75.8 41.8 Z M 86.7 41.8 C 86.7 44.1 84.6 45.2 82.4 45.2 C 80 45.2 77.7 44 77.5 41.5 C 77.5 41.5 79.1 41.5 79.1 41.5 C 79.4 43.2 80.9 43.8 82.4 43.8 C 83.9 43.8 85.1 43.3 85.1 42 C 85.1 40.7 83.8 40.4 82.5 40.2 C 80.3 39.8 77.8 39.4 77.8 36.8 C 77.8 34.6 79.7 33.5 82 33.5 C 84.4 33.5 86.3 34.6 86.4 36.9 C 86.4 36.9 84.8 36.9 84.8 36.9 C 84.7 35.5 83.4 34.9 82 34.9 C 80.4 34.9 79.4 35.6 79.4 36.7 C 79.4 38.2 80.7 38.4 82.4 38.7 C 84.5 39 86.7 39.3 86.7 41.8 Z M 96.2 42.9 C 95.3 44.6 93.6 45.2 92.2 45.2 C 90.2 45.2 88.5 44.1 88.5 41.9 C 88.5 39.8 90 38.8 91.9 38.6 C 91.9 38.6 94.6 38.2 94.6 38.2 C 95.4 38.1 96.2 37.8 96.2 36.8 C 96.2 35.5 95 34.8 93.4 34.8 C 91.7 34.8 90.7 35.6 90.5 36.9 C 90.5 36.9 89 36.9 89 36.9 C 89.3 34.6 91.1 33.5 93.6 33.5 C 96.1 33.5 97.7 34.7 97.7 37.2 C 97.67 37.19 97.7 45 97.7 45 L 96.2 45 C 96.2 45 96.18 42.92 96.2 42.9 Z M 94.3 39.5 C 94.3 39.5 92.6 39.7 92.6 39.7 C 91.2 39.9 90.1 40.4 90.1 41.8 C 90.1 43.2 91.2 43.8 92.4 43.8 C 94.2 43.8 96.1 42.5 96.1 40.1 C 96.1 40.1 96.1 39 96.1 39 C 95.7 39.3 95.1 39.4 94.3 39.5 Z M 110 37.3 C 109.98 37.25 110 45 110 45 L 108.4 45 C 108.4 45 108.44 37.44 108.4 37.4 C 108.4 35.9 107.6 34.9 106 34.9 C 104 34.9 102.4 36.3 102.4 39.1 C 102.35 39.06 102.4 45 102.4 45 L 100.8 45 L 100.8 33.7 L 102.4 33.7 C 102.4 33.7 102.35 35.8 102.4 35.8 C 103 34.5 104.3 33.5 106.3 33.5 C 108.5 33.5 110 34.8 110 37.3 Z M 117.7 45.2 C 114.6 45.2 112.5 42.9 112.5 39.4 C 112.5 35.8 114.6 33.5 117.9 33.5 C 120.3 33.5 122.3 34.9 122.5 37.4 C 122.5 37.4 121 37.4 121 37.4 C 120.9 35.8 119.5 34.9 117.8 34.9 C 115.6 34.9 114 36.6 114 39.3 C 114 42.1 115.6 43.8 117.8 43.8 C 119.5 43.8 120.9 42.8 121 41 C 121 41 122.5 41 122.5 41 C 122.3 43.7 120.2 45.2 117.7 45.2 Z M 125.9 39.7 C 126 42.5 127.7 43.8 129.7 43.8 C 131.2 43.8 132.6 43.1 133 41.5 C 133 41.5 134.4 41.5 134.4 41.5 C 133.9 44.1 131.7 45.2 129.6 45.2 C 126.9 45.2 124.4 43.4 124.4 39.4 C 124.4 35.3 126.9 33.5 129.7 33.5 C 132.3 33.5 134.5 35.2 134.5 39 C 134.5 38.95 134.5 39.7 134.5 39.7 C 134.5 39.7 125.91 39.71 125.9 39.7 Z M 126 38.4 C 126 38.4 132.9 38.4 132.9 38.4 C 132.9 36.1 131.5 34.9 129.6 34.9 C 127.8 34.9 126.2 36 126 38.4 Z M 149.3 42.9 C 148.4 44.6 146.7 45.2 145.3 45.2 C 143.4 45.2 141.6 44.1 141.6 41.9 C 141.6 39.8 143.1 38.8 145.1 38.6 C 145.1 38.6 147.7 38.2 147.7 38.2 C 148.6 38.1 149.3 37.8 149.3 36.8 C 149.3 35.5 148.2 34.8 146.6 34.8 C 144.9 34.8 143.8 35.6 143.6 36.9 C 143.6 36.9 142.1 36.9 142.1 36.9 C 142.4 34.6 144.2 33.5 146.7 33.5 C 149.2 33.5 150.8 34.7 150.8 37.2 C 150.8 37.19 150.8 45 150.8 45 L 149.3 45 C 149.3 45 149.31 42.92 149.3 42.9 Z M 147.4 39.5 C 147.4 39.5 145.7 39.7 145.7 39.7 C 144.3 39.9 143.2 40.4 143.2 41.8 C 143.2 43.2 144.3 43.8 145.5 43.8 C 147.3 43.8 149.3 42.5 149.3 40.1 C 149.3 40.1 149.3 39 149.3 39 C 148.8 39.3 148.2 39.4 147.4 39.5 Z M 164.5 39.3 C 164.5 43.4 161.9 45.1 159.3 45.1 C 157.4 45.1 156.1 44.2 155.5 43 C 155.48 43.03 155.5 49.3 155.5 49.3 L 153.9 49.3 L 153.9 33.7 L 155.4 33.7 C 155.4 33.7 155.44 36.08 155.4 36.1 C 155.9 34.7 157.4 33.5 159.5 33.5 C 161.9 33.5 164.5 35.2 164.5 39.3 Z M 162.9 39.3 C 162.9 36.2 161.1 35 159.2 35 C 157.4 35 155.5 36.2 155.5 39.4 C 155.5 42.5 157.3 43.7 159.2 43.7 C 161.1 43.7 162.9 42.5 162.9 39.3 Z M 177.6 39.3 C 177.6 43.4 175 45.1 172.4 45.1 C 170.5 45.1 169.3 44.2 168.6 43 C 168.63 43.03 168.6 49.3 168.6 49.3 L 167.1 49.3 L 167.1 33.7 L 168.6 33.7 C 168.6 33.7 168.59 36.08 168.6 36.1 C 169.1 34.7 170.6 33.5 172.6 33.5 C 175.1 33.5 177.6 35.2 177.6 39.3 Z M 176 39.3 C 176 36.2 174.3 35 172.4 35 C 170.5 35 168.6 36.2 168.6 39.4 C 168.6 42.5 170.5 43.7 172.3 43.7 C 174.2 43.7 176 42.5 176 39.3 Z M 185.9 35 C 185.9 35 185.51 35.03 185.5 35 C 183.1 35 181.8 36.4 181.8 39 C 181.77 39 181.8 45 181.8 45 L 180.2 45 L 180.2 33.7 L 181.8 33.7 C 181.8 33.7 181.75 35.78 181.8 35.8 C 182.3 34.3 183.6 33.6 185.4 33.6 C 185.39 33.58 185.9 33.6 185.9 33.6 L 185.9 35 Z M 186.9 39.4 C 186.9 35.7 189.1 33.5 192.3 33.5 C 195.4 33.5 197.6 35.7 197.6 39.4 C 197.6 43 195.4 45.2 192.3 45.2 C 189.2 45.2 186.9 43 186.9 39.4 Z M 196 39.3 C 196 36.5 194.3 34.9 192.2 34.9 C 190 34.9 188.5 36.6 188.5 39.4 C 188.5 42.2 190.2 43.8 192.3 43.8 C 194.5 43.8 196 42.1 196 39.3 Z M 203.8 30.3 C 202.6 30.3 202.3 30.9 202.3 32 C 202.27 31.96 202.3 33.7 202.3 33.7 L 204.8 33.7 L 204.8 35.1 L 202.3 35.1 L 202.3 45 L 200.7 45 L 200.7 35.1 L 198.9 35.1 L 198.9 33.7 L 200.7 33.7 C 200.7 33.7 200.74 31.92 200.7 31.9 C 200.7 29.4 202.1 29 203.6 29 C 203.57 28.98 205.1 29 205.1 29 L 205.1 30.3 C 205.1 30.3 203.82 30.34 203.8 30.3 Z M 206.1 39.4 C 206.1 35.7 208.3 33.5 211.4 33.5 C 214.6 33.5 216.8 35.7 216.8 39.4 C 216.8 43 214.6 45.2 211.5 45.2 C 208.4 45.2 206.1 43 206.1 39.4 Z M 215.2 39.3 C 215.2 36.5 213.5 34.9 211.4 34.9 C 209.2 34.9 207.7 36.6 207.7 39.4 C 207.7 42.2 209.4 43.8 211.5 43.8 C 213.7 43.8 215.2 42.1 215.2 39.3 Z M 228.6 37.3 C 228.58 37.25 228.6 45 228.6 45 L 227 45 C 227 45 227.05 37.44 227 37.4 C 227 35.9 226.2 34.9 224.6 34.9 C 222.6 34.9 221 36.3 221 39.1 C 220.96 39.06 221 45 221 45 L 219.4 45 L 219.4 33.7 L 221 33.7 C 221 33.7 220.96 35.8 221 35.8 C 221.6 34.5 222.9 33.5 224.9 33.5 C 227.1 33.5 228.6 34.8 228.6 37.3 Z M 241.6 45 L 240.2 45 C 240.2 45 240.17 42.8 240.2 42.8 C 239.6 44.1 238.3 45.2 236.2 45.2 C 233.2 45.2 231.1 42.9 231.1 39.3 C 231.1 35.8 233.2 33.5 236.2 33.5 C 238.1 33.5 239.5 34.4 240.1 35.6 C 240.11 35.62 240.1 29 240.1 29 L 241.6 29 L 241.6 45 Z M 240.1 39.3 C 240.1 36.5 238.5 34.9 236.4 34.9 C 234.2 34.9 232.7 36.6 232.7 39.3 C 232.7 42.1 234.2 43.8 236.4 43.8 C 238.6 43.8 240.1 42.1 240.1 39.3 Z M 246.6 29 L 244.9 29 L 244.9 30.9 L 246.6 30.9 L 246.6 29 Z M 246.5 45 L 245 45 L 245 33.7 L 246.5 33.7 L 246.5 45 Z M 250.7 39.7 C 250.7 42.5 252.4 43.8 254.4 43.8 C 255.9 43.8 257.4 43.1 257.7 41.5 C 257.7 41.5 259.2 41.5 259.2 41.5 C 258.7 44.1 256.5 45.2 254.3 45.2 C 251.7 45.2 249.2 43.4 249.2 39.4 C 249.2 35.3 251.7 33.5 254.4 33.5 C 257.1 33.5 259.3 35.2 259.3 39 C 259.26 38.95 259.3 39.7 259.3 39.7 C 259.3 39.7 250.67 39.71 250.7 39.7 Z M 250.7 38.4 C 250.7 38.4 257.7 38.4 257.7 38.4 C 257.7 36.1 256.2 34.9 254.3 34.9 C 252.6 34.9 250.9 36 250.7 38.4 Z M 276.5 45 L 275.1 45 C 275.1 45 275.06 42.8 275.1 42.8 C 274.5 44.1 273.1 45.2 271 45.2 C 268.1 45.2 266 42.9 266 39.3 C 266 35.8 268.1 33.5 271.1 33.5 C 273 33.5 274.4 34.4 275 35.6 C 274.99 35.62 275 29 275 29 L 276.5 29 L 276.5 45 Z M 275 39.3 C 275 36.5 273.4 34.9 271.3 34.9 C 269 34.9 267.6 36.6 267.6 39.3 C 267.6 42.1 269.1 43.8 271.3 43.8 C 273.4 43.8 275 42.1 275 39.3 Z M 280.7 39.7 C 280.7 42.5 282.4 43.8 284.4 43.8 C 285.9 43.8 287.4 43.1 287.7 41.5 C 287.7 41.5 289.2 41.5 289.2 41.5 C 288.7 44.1 286.5 45.2 284.3 45.2 C 281.6 45.2 279.2 43.4 279.2 39.4 C 279.2 35.3 281.7 33.5 284.4 33.5 C 287.1 33.5 289.3 35.2 289.3 39 C 289.25 38.95 289.3 39.7 289.3 39.7 C 289.3 39.7 280.66 39.71 280.7 39.7 Z M 280.7 38.4 C 280.7 38.4 287.7 38.4 287.7 38.4 C 287.7 36.1 286.2 34.9 284.3 34.9 C 282.6 34.9 280.9 36 280.7 38.4 Z M 300.3 41.8 C 300.3 44.1 298.2 45.2 295.9 45.2 C 293.5 45.2 291.3 44 291 41.5 C 291 41.5 292.7 41.5 292.7 41.5 C 292.9 43.2 294.4 43.8 295.9 43.8 C 297.4 43.8 298.7 43.3 298.7 42 C 298.7 40.7 297.4 40.4 296 40.2 C 293.9 39.8 291.3 39.4 291.3 36.8 C 291.3 34.6 293.2 33.5 295.6 33.5 C 297.9 33.5 299.8 34.6 300 36.9 C 300 36.9 298.4 36.9 298.4 36.9 C 298.3 35.5 297 34.9 295.5 34.9 C 294 34.9 292.9 35.6 292.9 36.7 C 292.9 38.2 294.3 38.4 296 38.7 C 298 39 300.3 39.3 300.3 41.8 Z M 313 45 C 313 45 311.3 44.98 311.3 45 C 309.8 45 308.5 44.5 308.5 42 C 308.47 42.02 308.5 35.1 308.5 35.1 L 306.2 35.1 L 306.2 33.7 L 308.5 33.7 L 308.5 30.5 L 310 30.1 L 310 33.7 L 312.7 33.7 L 312.7 35.1 L 310 35.1 C 310 35.1 310 42 310 42 C 310 43 310.3 43.6 311.6 43.6 C 311.55 43.6 313 43.6 313 43.6 L 313 45 Z M 316.8 29 L 315.1 29 L 315.1 30.9 L 316.8 30.9 L 316.8 29 Z M 316.7 45 L 315.2 45 L 315.2 33.7 L 316.7 33.7 L 316.7 45 Z M 325.2 45 C 325.2 45 323.54 44.98 323.5 45 C 322.1 45 320.7 44.5 320.7 42 C 320.71 42.02 320.7 35.1 320.7 35.1 L 318.5 35.1 L 318.5 33.7 L 320.7 33.7 L 320.7 30.5 L 322.2 30.1 L 322.2 33.7 L 325 33.7 L 325 35.1 L 322.2 35.1 C 322.2 35.1 322.24 42 322.2 42 C 322.2 43 322.5 43.6 323.8 43.6 C 323.8 43.6 325.2 43.6 325.2 43.6 L 325.2 45 Z M 333 35 C 333 35 332.68 35.03 332.7 35 C 330.3 35 328.9 36.4 328.9 39 C 328.94 39 328.9 45 328.9 45 L 327.4 45 L 327.4 33.7 L 328.9 33.7 C 328.9 33.7 328.92 35.78 328.9 35.8 C 329.4 34.3 330.8 33.6 332.6 33.6 C 332.55 33.58 333 33.6 333 33.6 L 333 35 Z M 335.6 39.7 C 335.6 42.5 337.4 43.8 339.4 43.8 C 340.8 43.8 342.3 43.1 342.7 41.5 C 342.7 41.5 344.1 41.5 344.1 41.5 C 343.6 44.1 341.4 45.2 339.3 45.2 C 336.6 45.2 334.1 43.4 334.1 39.4 C 334.1 35.3 336.6 33.5 339.3 33.5 C 342 33.5 344.2 35.2 344.2 39 C 344.19 38.95 344.2 39.7 344.2 39.7 C 344.2 39.7 335.6 39.71 335.6 39.7 Z M 335.6 38.4 C 335.6 38.4 342.6 38.4 342.6 38.4 C 342.6 36.1 341.2 34.9 339.3 34.9 C 337.5 34.9 335.8 36 335.6 38.4 Z M 355.2 41.8 C 355.2 44.1 353.1 45.2 350.8 45.2 C 348.4 45.2 346.2 44 346 41.5 C 346 41.5 347.6 41.5 347.6 41.5 C 347.9 43.2 349.3 43.8 350.9 43.8 C 352.3 43.8 353.6 43.3 353.6 42 C 353.6 40.7 352.3 40.4 351 40.2 C 348.8 39.8 346.2 39.4 346.2 36.8 C 346.2 34.6 348.2 33.5 350.5 33.5 C 352.9 33.5 354.8 34.6 354.9 36.9 C 354.9 36.9 353.3 36.9 353.3 36.9 C 353.2 35.5 351.9 34.9 350.4 34.9 C 348.9 34.9 347.8 35.6 347.8 36.7 C 347.8 38.2 349.2 38.4 350.9 38.7 C 352.9 39 355.2 39.3 355.2 41.8 Z M 372.3 45 L 370.9 45 C 370.9 45 370.88 42.8 370.9 42.8 C 370.3 44.1 369 45.2 366.9 45.2 C 363.9 45.2 361.8 42.9 361.8 39.3 C 361.8 35.8 363.9 33.5 366.9 33.5 C 368.8 33.5 370.2 34.4 370.8 35.6 C 370.81 35.62 370.8 29 370.8 29 L 372.3 29 L 372.3 45 Z M 370.8 39.3 C 370.8 36.5 369.2 34.9 367.1 34.9 C 364.9 34.9 363.4 36.6 363.4 39.3 C 363.4 42.1 364.9 43.8 367.1 43.8 C 369.3 43.8 370.8 42.1 370.8 39.3 Z M 382.6 42.9 C 381.8 44.6 380.1 45.2 378.6 45.2 C 376.7 45.2 375 44.1 375 41.9 C 375 39.8 376.5 38.8 378.4 38.6 C 378.4 38.6 381.1 38.2 381.1 38.2 C 381.9 38.1 382.6 37.8 382.6 36.8 C 382.6 35.5 381.5 34.8 379.9 34.8 C 378.2 34.8 377.2 35.6 376.9 36.9 C 376.9 36.9 375.4 36.9 375.4 36.9 C 375.7 34.6 377.5 33.5 380 33.5 C 382.6 33.5 384.1 34.7 384.1 37.2 C 384.13 37.19 384.1 45 384.1 45 L 382.6 45 C 382.6 45 382.64 42.92 382.6 42.9 Z M 380.8 39.5 C 380.8 39.5 379 39.7 379 39.7 C 377.6 39.9 376.5 40.4 376.5 41.8 C 376.5 43.2 377.6 43.8 378.9 43.8 C 380.6 43.8 382.6 42.5 382.6 40.1 C 382.6 40.1 382.6 39 382.6 39 C 382.2 39.3 381.5 39.4 380.8 39.5 Z M 396.4 37.3 C 396.43 37.25 396.4 45 396.4 45 L 394.9 45 C 394.9 45 394.9 37.44 394.9 37.4 C 394.9 35.9 394 34.9 392.4 34.9 C 390.5 34.9 388.8 36.3 388.8 39.1 C 388.81 39.06 388.8 45 388.8 45 L 387.3 45 L 387.3 33.7 L 388.8 33.7 C 388.8 33.7 388.81 35.8 388.8 35.8 C 389.5 34.5 390.7 33.5 392.7 33.5 C 395 33.5 396.4 34.8 396.4 37.3 Z M 408.1 41.8 C 408.1 44.1 406 45.2 403.7 45.2 C 401.3 45.2 399.1 44 398.8 41.5 C 398.8 41.5 400.5 41.5 400.5 41.5 C 400.7 43.2 402.2 43.8 403.7 43.8 C 405.2 43.8 406.5 43.3 406.5 42 C 406.5 40.7 405.2 40.4 403.8 40.2 C 401.7 39.8 399.1 39.4 399.1 36.8 C 399.1 34.6 401.1 33.5 403.4 33.5 C 405.8 33.5 407.6 34.6 407.8 36.9 C 407.8 36.9 406.2 36.9 406.2 36.9 C 406.1 35.5 404.8 34.9 403.3 34.9 C 401.8 34.9 400.7 35.6 400.7 36.7 C 400.7 38.2 402.1 38.4 403.8 38.7 C 405.8 39 408.1 39.3 408.1 41.8 Z M 417.4 45 L 415.8 45 L 415.8 29 L 417.4 29 L 417.4 45 Z M 421.5 39.7 C 421.5 42.5 423.3 43.8 425.3 43.8 C 426.8 43.8 428.2 43.1 428.6 41.5 C 428.6 41.5 430 41.5 430 41.5 C 429.5 44.1 427.3 45.2 425.2 45.2 C 422.5 45.2 420 43.4 420 39.4 C 420 35.3 422.5 33.5 425.2 33.5 C 427.9 33.5 430.1 35.2 430.1 39 C 430.1 38.95 430.1 39.7 430.1 39.7 C 430.1 39.7 421.51 39.71 421.5 39.7 Z M 421.5 38.4 C 421.5 38.4 428.5 38.4 428.5 38.4 C 428.5 36.1 427.1 34.9 425.2 34.9 C 423.4 34.9 421.8 36 421.5 38.4 Z M 441.1 41.8 C 441.1 44.1 439 45.2 436.8 45.2 C 434.3 45.2 432.1 44 431.9 41.5 C 431.9 41.5 433.5 41.5 433.5 41.5 C 433.8 43.2 435.2 43.8 436.8 43.8 C 438.2 43.8 439.5 43.3 439.5 42 C 439.5 40.7 438.2 40.4 436.9 40.2 C 434.7 39.8 432.2 39.4 432.2 36.8 C 432.2 34.6 434.1 33.5 436.4 33.5 C 438.8 33.5 440.7 34.6 440.8 36.9 C 440.8 36.9 439.2 36.9 439.2 36.9 C 439.1 35.5 437.8 34.9 436.3 34.9 C 434.8 34.9 433.8 35.6 433.8 36.7 C 433.8 38.2 435.1 38.4 436.8 38.7 C 438.9 39 441.1 39.3 441.1 41.8 Z M 451.9 49.3 C 451.9 49.3 451.87 42.82 451.9 42.8 C 451.2 44.1 449.9 45.1 448 45.1 C 445.5 45.1 442.9 43.4 442.9 39.2 C 442.9 35.2 445.4 33.5 447.9 33.5 C 449.9 33.5 451.3 34.5 451.9 35.7 C 451.92 35.68 451.9 33.7 451.9 33.7 L 453.4 33.7 L 453.4 49.3 L 451.9 49.3 Z M 451.9 39.3 C 451.9 36.1 450 34.9 448.1 34.9 C 446.2 34.9 444.5 36.1 444.5 39.3 C 444.5 42.4 446.3 43.7 448.1 43.7 C 450 43.7 451.9 42.4 451.9 39.3 Z M 464.1 45 C 464.1 45 464.07 42.84 464.1 42.8 C 463.3 44.4 461.9 45.1 460.3 45.1 C 458.2 45.1 456.6 43.8 456.6 41.2 C 456.56 41.16 456.6 33.7 456.6 33.7 L 458.1 33.7 C 458.1 33.7 458.09 40.97 458.1 41 C 458.1 42.8 459.1 43.8 460.6 43.8 C 462.4 43.8 464 42.4 464 39.5 C 464.01 39.54 464 33.7 464 33.7 L 465.5 33.7 L 465.5 45 L 464.1 45 Z M 469.7 39.7 C 469.7 42.5 471.4 43.8 473.4 43.8 C 474.9 43.8 476.4 43.1 476.7 41.5 C 476.7 41.5 478.2 41.5 478.2 41.5 C 477.7 44.1 475.5 45.2 473.4 45.2 C 470.7 45.2 468.2 43.4 468.2 39.4 C 468.2 35.3 470.7 33.5 473.4 33.5 C 476.1 33.5 478.3 35.2 478.3 39 C 478.27 38.95 478.3 39.7 478.3 39.7 C 478.3 39.7 469.68 39.71 469.7 39.7 Z M 469.7 38.4 C 469.7 38.4 476.7 38.4 476.7 38.4 C 476.7 36.1 475.2 34.9 473.4 34.9 C 471.6 34.9 469.9 36 469.7 38.4 Z M 482.4 45 L 480.9 45 L 480.9 29 L 482.4 29 L 482.4 45 Z M 494.2 41.8 C 494.2 44.1 492.1 45.2 489.8 45.2 C 487.4 45.2 485.2 44 484.9 41.5 C 484.9 41.5 486.6 41.5 486.6 41.5 C 486.8 43.2 488.3 43.8 489.8 43.8 C 491.3 43.8 492.6 43.3 492.6 42 C 492.6 40.7 491.3 40.4 489.9 40.2 C 487.8 39.8 485.2 39.4 485.2 36.8 C 485.2 34.6 487.2 33.5 489.5 33.5 C 491.9 33.5 493.7 34.6 493.9 36.9 C 493.9 36.9 492.3 36.9 492.3 36.9 C 492.2 35.5 490.9 34.9 489.4 34.9 C 487.9 34.9 486.8 35.6 486.8 36.7 C 486.8 38.2 488.2 38.4 489.9 38.7 C 491.9 39 494.2 39.3 494.2 41.8 Z M 511.1 37.3 C 511.09 37.25 511.1 45 511.1 45 L 509.6 45 C 509.6 45 509.56 37.44 509.6 37.4 C 509.6 35.9 508.7 34.9 507.1 34.9 C 505.2 34.9 503.5 36.3 503.5 39.1 C 503.47 39.06 503.5 45 503.5 45 L 501.9 45 L 501.9 33.7 L 503.5 33.7 C 503.5 33.7 503.47 35.8 503.5 35.8 C 504.1 34.5 505.4 33.5 507.4 33.5 C 509.6 33.5 511.1 34.8 511.1 37.3 Z M 513.6 39.4 C 513.6 35.7 515.8 33.5 518.9 33.5 C 522.1 33.5 524.3 35.7 524.3 39.4 C 524.3 43 522.1 45.2 519 45.2 C 515.9 45.2 513.6 43 513.6 39.4 Z M 522.7 39.3 C 522.7 36.5 521 34.9 518.9 34.9 C 516.7 34.9 515.2 36.6 515.2 39.4 C 515.2 42.2 516.9 43.8 519 43.8 C 521.2 43.8 522.7 42.1 522.7 39.3 Z M 534.3 45 C 534.3 45 534.34 42.84 534.3 42.8 C 533.6 44.4 532.2 45.1 530.6 45.1 C 528.5 45.1 526.8 43.8 526.8 41.2 C 526.82 41.16 526.8 33.7 526.8 33.7 L 528.4 33.7 C 528.4 33.7 528.35 40.97 528.4 41 C 528.4 42.8 529.4 43.8 530.9 43.8 C 532.7 43.8 534.3 42.4 534.3 39.5 C 534.28 39.54 534.3 33.7 534.3 33.7 L 535.8 33.7 L 535.8 45 L 534.3 45 Z M 547.5 41.8 C 547.5 44.1 545.5 45.2 543.2 45.2 C 540.8 45.2 538.6 44 538.3 41.5 C 538.3 41.5 540 41.5 540 41.5 C 540.2 43.2 541.7 43.8 543.2 43.8 C 544.7 43.8 546 43.3 546 42 C 546 40.7 544.7 40.4 543.3 40.2 C 541.2 39.8 538.6 39.4 538.6 36.8 C 538.6 34.6 540.5 33.5 542.8 33.5 C 545.2 33.5 547.1 34.6 547.3 36.9 C 547.3 36.9 545.7 36.9 545.7 36.9 C 545.6 35.5 544.3 34.9 542.8 34.9 C 541.2 34.9 540.2 35.6 540.2 36.7 C 540.2 38.2 541.6 38.4 543.3 38.7 C 545.3 39 547.5 39.3 547.5 41.8 Z M 557 29 L 555.2 29 L 555.2 30.9 L 557 30.9 L 557 29 Z M 556.9 45 L 555.3 45 L 555.3 33.7 L 556.9 33.7 L 556.9 45 Z M 569.4 37.3 C 569.37 37.25 569.4 45 569.4 45 L 567.8 45 C 567.8 45 567.83 37.44 567.8 37.4 C 567.8 35.9 567 34.9 565.4 34.9 C 563.4 34.9 561.7 36.3 561.7 39.1 C 561.74 39.06 561.7 45 561.7 45 L 560.2 45 L 560.2 33.7 L 561.7 33.7 C 561.7 33.7 561.74 35.8 561.7 35.8 C 562.4 34.5 563.7 33.5 565.7 33.5 C 567.9 33.5 569.4 34.8 569.4 37.3 Z M 577.1 45 L 575.4 45 L 571.3 33.7 L 572.9 33.7 L 576.3 43.4 L 579.7 33.7 L 581.3 33.7 L 577.1 45 Z M 583.9 39.7 C 583.9 42.5 585.6 43.8 587.6 43.8 C 589.1 43.8 590.6 43.1 590.9 41.5 C 590.9 41.5 592.4 41.5 592.4 41.5 C 591.9 44.1 589.7 45.2 587.5 45.2 C 584.8 45.2 582.3 43.4 582.3 39.4 C 582.3 35.3 584.9 33.5 587.6 33.5 C 590.3 33.5 592.4 35.2 592.4 39 C 592.45 38.95 592.4 39.7 592.4 39.7 C 592.4 39.7 583.86 39.71 583.9 39.7 Z M 583.9 38.4 C 583.9 38.4 590.9 38.4 590.9 38.4 C 590.9 36.1 589.4 34.9 587.5 34.9 C 585.8 34.9 584.1 36 583.9 38.4 Z M 603.5 41.8 C 603.5 44.1 601.4 45.2 599.1 45.2 C 596.7 45.2 594.5 44 594.2 41.5 C 594.2 41.5 595.9 41.5 595.9 41.5 C 596.1 43.2 597.6 43.8 599.1 43.8 C 600.6 43.8 601.9 43.3 601.9 42 C 601.9 40.7 600.6 40.4 599.2 40.2 C 597.1 39.8 594.5 39.4 594.5 36.8 C 594.5 34.6 596.4 33.5 598.7 33.5 C 601.1 33.5 603 34.6 603.2 36.9 C 603.2 36.9 601.6 36.9 601.6 36.9 C 601.5 35.5 600.2 34.9 598.7 34.9 C 597.1 34.9 596.1 35.6 596.1 36.7 C 596.1 38.2 597.5 38.4 599.2 38.7 C 601.2 39 603.5 39.3 603.5 41.8 Z M 611.1 45 C 611.1 45 609.46 44.98 609.5 45 C 608 45 606.6 44.5 606.6 42 C 606.62 42.02 606.6 35.1 606.6 35.1 L 604.4 35.1 L 604.4 33.7 L 606.6 33.7 L 606.6 30.5 L 608.2 30.1 L 608.2 33.7 L 610.9 33.7 L 610.9 35.1 L 608.2 35.1 C 608.2 35.1 608.15 42 608.2 42 C 608.2 43 608.4 43.6 609.7 43.6 C 609.71 43.6 611.1 43.6 611.1 43.6 L 611.1 45 Z M 615 29 L 613.2 29 L 613.2 30.9 L 615 30.9 L 615 29 Z M 614.9 45 L 613.3 45 L 613.3 33.7 L 614.9 33.7 L 614.9 45 Z M 626.6 41.8 C 626.6 44.1 624.5 45.2 622.2 45.2 C 619.8 45.2 617.6 44 617.4 41.5 C 617.4 41.5 619 41.5 619 41.5 C 619.3 43.2 620.7 43.8 622.3 43.8 C 623.7 43.8 625 43.3 625 42 C 625 40.7 623.7 40.4 622.4 40.2 C 620.2 39.8 617.6 39.4 617.6 36.8 C 617.6 34.6 619.6 33.5 621.9 33.5 C 624.3 33.5 626.2 34.6 626.3 36.9 C 626.3 36.9 624.7 36.9 624.7 36.9 C 624.6 35.5 623.3 34.9 621.8 34.9 C 620.3 34.9 619.2 35.6 619.2 36.7 C 619.2 38.2 620.6 38.4 622.3 38.7 C 624.3 39 626.6 39.3 626.6 41.8 Z M 637.5 41.8 C 637.5 44.1 635.4 45.2 633.1 45.2 C 630.7 45.2 628.5 44 628.3 41.5 C 628.3 41.5 629.9 41.5 629.9 41.5 C 630.2 43.2 631.6 43.8 633.2 43.8 C 634.6 43.8 635.9 43.3 635.9 42 C 635.9 40.7 634.6 40.4 633.3 40.2 C 631.1 39.8 628.5 39.4 628.5 36.8 C 628.5 34.6 630.5 33.5 632.8 33.5 C 635.2 33.5 637.1 34.6 637.2 36.9 C 637.2 36.9 635.6 36.9 635.6 36.9 C 635.5 35.5 634.2 34.9 632.7 34.9 C 631.2 34.9 630.1 35.6 630.1 36.7 C 630.1 38.2 631.5 38.4 633.2 38.7 C 635.2 39 637.5 39.3 637.5 41.8 Z M 639.3 39.4 C 639.3 35.7 641.5 33.5 644.6 33.5 C 647.7 33.5 650 35.7 650 39.4 C 650 43 647.7 45.2 644.6 45.2 C 641.5 45.2 639.3 43 639.3 39.4 Z M 648.4 39.3 C 648.4 36.5 646.7 34.9 644.6 34.9 C 642.4 34.9 640.9 36.6 640.9 39.4 C 640.9 42.2 642.6 43.8 644.7 43.8 C 646.8 43.8 648.4 42.1 648.4 39.3 Z M 661.7 37.3 C 661.75 37.25 661.7 45 661.7 45 L 660.2 45 C 660.2 45 660.21 37.44 660.2 37.4 C 660.2 35.9 659.3 34.9 657.7 34.9 C 655.8 34.9 654.1 36.3 654.1 39.1 C 654.12 39.06 654.1 45 654.1 45 L 652.6 45 L 652.6 33.7 L 654.1 33.7 C 654.1 33.7 654.12 35.8 654.1 35.8 C 654.8 34.5 656.1 33.5 658 33.5 C 660.3 33.5 661.7 34.8 661.7 37.3 Z M 673.4 41.8 C 673.4 44.1 671.3 45.2 669 45.2 C 666.6 45.2 664.4 44 664.2 41.5 C 664.2 41.5 665.8 41.5 665.8 41.5 C 666.1 43.2 667.5 43.8 669.1 43.8 C 670.5 43.8 671.8 43.3 671.8 42 C 671.8 40.7 670.5 40.4 669.2 40.2 C 667 39.8 664.4 39.4 664.4 36.8 C 664.4 34.6 666.4 33.5 668.7 33.5 C 671.1 33.5 673 34.6 673.1 36.9 C 673.1 36.9 671.5 36.9 671.5 36.9 C 671.4 35.5 670.1 34.9 668.6 34.9 C 667.1 34.9 666 35.6 666 36.7 C 666 38.2 667.4 38.4 669.1 38.7 C 671.1 39 673.4 39.3 673.4 41.8 Z M 677 44.9 C 676.99 44.86 676 44.9 676 44.9 L 676 42.8 L 678.2 42.8 C 678.2 42.8 678.21 44.92 678.2 44.9 C 678.2 47.4 676.7 48.3 675.2 48.4 C 675.2 48.4 675 47.5 675 47.5 C 676.7 47.2 677 46.2 677 44.9 Z M 692.8 42.9 C 691.9 44.6 690.2 45.2 688.8 45.2 C 686.9 45.2 685.1 44.1 685.1 41.9 C 685.1 39.8 686.6 38.8 688.6 38.6 C 688.6 38.6 691.2 38.2 691.2 38.2 C 692.1 38.1 692.8 37.8 692.8 36.8 C 692.8 35.5 691.6 34.8 690.1 34.8 C 688.4 34.8 687.3 35.6 687.1 36.9 C 687.1 36.9 685.6 36.9 685.6 36.9 C 685.9 34.6 687.7 33.5 690.2 33.5 C 692.7 33.5 694.3 34.7 694.3 37.2 C 694.29 37.19 694.3 45 694.3 45 L 692.8 45 C 692.8 45 692.8 42.92 692.8 42.9 Z M 690.9 39.5 C 690.9 39.5 689.2 39.7 689.2 39.7 C 687.8 39.9 686.7 40.4 686.7 41.8 C 686.7 43.2 687.8 43.8 689 43.8 C 690.8 43.8 692.8 42.5 692.8 40.1 C 692.8 40.1 692.8 39 692.8 39 C 692.3 39.3 691.7 39.4 690.9 39.5 Z M 699.1 29 L 697.3 29 L 697.3 30.9 L 699.1 30.9 L 699.1 29 Z M 699 45 L 697.4 45 L 697.4 33.7 L 699 33.7 L 699 45 Z M 711.5 37.3 C 711.49 37.25 711.5 45 711.5 45 L 710 45 C 710 45 709.96 37.44 710 37.4 C 710 35.9 709.1 34.9 707.5 34.9 C 705.6 34.9 703.9 36.3 703.9 39.1 C 703.87 39.06 703.9 45 703.9 45 L 702.3 45 L 702.3 33.7 L 703.9 33.7 C 703.9 33.7 703.87 35.8 703.9 35.8 C 704.5 34.5 705.8 33.5 707.8 33.5 C 710 33.5 711.5 34.8 711.5 37.3 Z M 723.1 41.8 C 723.1 44.1 721 45.2 718.8 45.2 C 716.4 45.2 714.1 44 713.9 41.5 C 713.9 41.5 715.5 41.5 715.5 41.5 C 715.8 43.2 717.3 43.8 718.8 43.8 C 720.3 43.8 721.5 43.3 721.5 42 C 721.5 40.7 720.2 40.4 718.9 40.2 C 716.7 39.8 714.2 39.4 714.2 36.8 C 714.2 34.6 716.1 33.5 718.4 33.5 C 720.8 33.5 722.7 34.6 722.8 36.9 C 722.8 36.9 721.2 36.9 721.2 36.9 C 721.1 35.5 719.8 34.9 718.4 34.9 C 716.8 34.9 715.8 35.6 715.8 36.7 C 715.8 38.2 717.1 38.4 718.8 38.7 C 720.9 39 723.1 39.3 723.1 41.8 Z M 727.3 29 L 725.5 29 L 725.5 30.9 L 727.3 30.9 L 727.3 29 Z M 727.2 45 L 725.6 45 L 725.6 33.7 L 727.2 33.7 L 727.2 45 Z M 744 49.3 C 744 49.3 744.04 42.82 744 42.8 C 743.4 44.1 742 45.1 740.1 45.1 C 737.6 45.1 735.1 43.4 735.1 39.2 C 735.1 35.2 737.6 33.5 740.1 33.5 C 742 33.5 743.5 34.5 744.1 35.7 C 744.08 35.68 744.1 33.7 744.1 33.7 L 745.6 33.7 L 745.6 49.3 L 744 49.3 Z M 744 39.3 C 744 36.1 742.2 34.9 740.3 34.9 C 738.4 34.9 736.6 36.1 736.6 39.3 C 736.6 42.4 738.4 43.7 740.3 43.7 C 742.2 43.7 744 42.4 744 39.3 Z M 756.2 45 C 756.2 45 756.24 42.84 756.2 42.8 C 755.5 44.4 754.1 45.1 752.5 45.1 C 750.4 45.1 748.7 43.8 748.7 41.2 C 748.73 41.16 748.7 33.7 748.7 33.7 L 750.3 33.7 C 750.3 33.7 750.26 40.97 750.3 41 C 750.3 42.8 751.3 43.8 752.8 43.8 C 754.6 43.8 756.2 42.4 756.2 39.5 C 756.18 39.54 756.2 33.7 756.2 33.7 L 757.7 33.7 L 757.7 45 L 756.2 45 Z M 762.2 31.2 C 762.17 31.18 761.2 31.2 761.2 31.2 L 761.2 29.1 L 763.4 29.1 C 763.4 29.1 763.38 31.25 763.4 31.2 C 763.4 33.7 761.9 34.6 760.3 34.8 C 760.3 34.8 760.1 33.8 760.1 33.8 C 761.8 33.5 762.2 32.5 762.2 31.2 Z M 773.2 45 C 773.2 45 773.21 42.84 773.2 42.8 C 772.4 44.4 771 45.1 769.5 45.1 C 767.3 45.1 765.7 43.8 765.7 41.2 C 765.69 41.16 765.7 33.7 765.7 33.7 L 767.2 33.7 C 767.2 33.7 767.23 40.97 767.2 41 C 767.2 42.8 768.2 43.8 769.7 43.8 C 771.5 43.8 773.1 42.4 773.1 39.5 C 773.15 39.54 773.1 33.7 773.1 33.7 L 774.7 33.7 L 774.7 45 L 773.2 45 Z M 787.2 37.3 C 787.2 37.25 787.2 45 787.2 45 L 785.7 45 C 785.7 45 785.66 37.44 785.7 37.4 C 785.7 35.9 784.8 34.9 783.2 34.9 C 781.3 34.9 779.6 36.3 779.6 39.1 C 779.57 39.06 779.6 45 779.6 45 L 778 45 L 778 33.7 L 779.6 33.7 C 779.6 33.7 779.57 35.8 779.6 35.8 C 780.2 34.5 781.5 33.5 783.5 33.5 C 785.7 33.5 787.2 34.8 787.2 37.3 Z M 791.2 39.7 C 791.3 42.5 793 43.8 795 43.8 C 796.5 43.8 797.9 43.1 798.3 41.5 C 798.3 41.5 799.7 41.5 799.7 41.5 C 799.2 44.1 797 45.2 794.9 45.2 C 792.2 45.2 789.7 43.4 789.7 39.4 C 789.7 35.3 792.3 33.5 795 33.5 C 797.6 33.5 799.8 35.2 799.8 39 C 799.82 38.95 799.8 39.7 799.8 39.7 C 799.8 39.7 791.23 39.71 791.2 39.7 Z M 791.3 38.4 C 791.3 38.4 798.3 38.4 798.3 38.4 C 798.3 36.1 796.8 34.9 794.9 34.9 C 793.1 34.9 791.5 36 791.3 38.4 Z M 811.1 30.3 C 809.8 30.3 809.5 30.9 809.5 32 C 809.52 31.96 809.5 33.7 809.5 33.7 L 812 33.7 L 812 35.1 L 809.5 35.1 L 809.5 45 L 808 45 L 808 35.1 L 806.1 35.1 L 806.1 33.7 L 808 33.7 C 808 33.7 807.99 31.92 808 31.9 C 808 29.4 809.3 29 810.8 29 C 810.82 28.98 812.3 29 812.3 29 L 812.3 30.3 C 812.3 30.3 811.07 30.34 811.1 30.3 Z M 813.4 39.4 C 813.4 35.7 815.6 33.5 818.7 33.5 C 821.8 33.5 824.1 35.7 824.1 39.4 C 824.1 43 821.8 45.2 818.7 45.2 C 815.6 45.2 813.4 43 813.4 39.4 Z M 822.5 39.3 C 822.5 36.5 820.8 34.9 818.7 34.9 C 816.5 34.9 814.9 36.6 814.9 39.4 C 814.9 42.2 816.6 43.8 818.7 43.8 C 820.9 43.8 822.5 42.1 822.5 39.3 Z M 832.3 35 C 832.3 35 831.95 35.03 831.9 35 C 829.6 35 828.2 36.4 828.2 39 C 828.21 39 828.2 45 828.2 45 L 826.7 45 L 826.7 33.7 L 828.2 33.7 C 828.2 33.7 828.19 35.78 828.2 35.8 C 828.7 34.3 830.1 33.6 831.8 33.6 C 831.82 33.58 832.3 33.6 832.3 33.6 L 832.3 35 Z M 839.9 45 C 839.9 45 838.21 44.98 838.2 45 C 836.7 45 835.4 44.5 835.4 42 C 835.37 42.02 835.4 35.1 835.4 35.1 L 833.1 35.1 L 833.1 33.7 L 835.4 33.7 L 835.4 30.5 L 836.9 30.1 L 836.9 33.7 L 839.6 33.7 L 839.6 35.1 L 836.9 35.1 C 836.9 35.1 836.9 42 836.9 42 C 836.9 43 837.2 43.6 838.5 43.6 C 838.46 43.6 839.9 43.6 839.9 43.6 L 839.9 45 Z M 842.8 39.7 C 842.9 42.5 844.6 43.8 846.6 43.8 C 848.1 43.8 849.6 43.1 849.9 41.5 C 849.9 41.5 851.4 41.5 851.4 41.5 C 850.8 44.1 848.7 45.2 846.5 45.2 C 843.8 45.2 841.3 43.4 841.3 39.4 C 841.3 35.3 843.9 33.5 846.6 33.5 C 849.3 33.5 851.4 35.2 851.4 39 C 851.44 38.95 851.4 39.7 851.4 39.7 C 851.4 39.7 842.85 39.71 842.8 39.7 Z M 842.9 38.4 C 842.9 38.4 849.9 38.4 849.9 38.4 C 849.9 36.1 848.4 34.9 846.5 34.9 C 844.8 34.9 843.1 36 842.9 38.4 Z " stroke="none" fill="#fff"/>  </g>  <g id="Polygon12021">    <path d="M 13.6 19.8 L 11.9 19.8 L 3.4 6.2 L 3.4 19.8 L 1.9 19.8 L 1.9 4 L 3.9 4 L 12.1 17.2 L 12.1 4 L 13.6 4 L 13.6 19.8 Z M 16.5 14.2 C 16.5 10.5 18.7 8.3 21.8 8.3 C 24.9 8.3 27.2 10.5 27.2 14.2 C 27.2 17.8 24.9 20 21.8 20 C 18.7 20 16.5 17.8 16.5 14.2 Z M 25.6 14.1 C 25.6 11.3 23.9 9.7 21.8 9.7 C 19.6 9.7 18.1 11.4 18.1 14.2 C 18.1 17 19.8 18.6 21.9 18.6 C 24 18.6 25.6 16.9 25.6 14.1 Z M 37.2 19.8 C 37.2 19.8 37.21 17.64 37.2 17.6 C 36.4 19.2 35 19.9 33.5 19.9 C 31.3 19.9 29.7 18.6 29.7 16 C 29.69 15.96 29.7 8.5 29.7 8.5 L 31.2 8.5 C 31.2 8.5 31.23 15.77 31.2 15.8 C 31.2 17.6 32.2 18.6 33.7 18.6 C 35.5 18.6 37.1 17.2 37.1 14.3 C 37.15 14.34 37.1 8.5 37.1 8.5 L 38.7 8.5 L 38.7 19.8 L 37.2 19.8 Z M 50.4 16.6 C 50.4 18.9 48.3 20 46.1 20 C 43.7 20 41.4 18.8 41.2 16.3 C 41.2 16.3 42.8 16.3 42.8 16.3 C 43.1 18 44.6 18.6 46.1 18.6 C 47.5 18.6 48.8 18.1 48.8 16.8 C 48.8 15.5 47.5 15.2 46.2 15 C 44 14.6 41.5 14.2 41.5 11.6 C 41.5 9.4 43.4 8.3 45.7 8.3 C 48.1 8.3 50 9.4 50.1 11.7 C 50.1 11.7 48.5 11.7 48.5 11.7 C 48.4 10.3 47.1 9.7 45.7 9.7 C 44.1 9.7 43.1 10.4 43.1 11.5 C 43.1 13 44.4 13.2 46.1 13.5 C 48.2 13.8 50.4 14.1 50.4 16.6 Z M 65.1 17.7 C 64.2 19.4 62.5 20 61.1 20 C 59.2 20 57.5 18.9 57.5 16.7 C 57.5 14.6 58.9 13.6 60.9 13.4 C 60.9 13.4 63.5 13 63.5 13 C 64.4 12.9 65.1 12.6 65.1 11.6 C 65.1 10.3 64 9.6 62.4 9.6 C 60.7 9.6 59.7 10.4 59.4 11.7 C 59.4 11.7 57.9 11.7 57.9 11.7 C 58.2 9.4 60 8.3 62.5 8.3 C 65.1 8.3 66.6 9.5 66.6 12 C 66.61 11.99 66.6 19.8 66.6 19.8 L 65.1 19.8 C 65.1 19.8 65.12 17.72 65.1 17.7 Z M 63.3 14.3 C 63.3 14.3 61.5 14.5 61.5 14.5 C 60.1 14.7 59 15.2 59 16.6 C 59 18 60.1 18.6 61.4 18.6 C 63.1 18.6 65.1 17.3 65.1 14.9 C 65.1 14.9 65.1 13.8 65.1 13.8 C 64.7 14.1 64 14.2 63.3 14.3 Z M 74.2 19.8 L 72.6 19.8 L 68.4 8.5 L 70.1 8.5 L 73.4 18.2 L 76.8 8.5 L 78.4 8.5 L 74.2 19.8 Z M 79.5 14.2 C 79.5 10.5 81.7 8.3 84.8 8.3 C 87.9 8.3 90.2 10.5 90.2 14.2 C 90.2 17.8 87.9 20 84.8 20 C 81.7 20 79.5 17.8 79.5 14.2 Z M 88.6 14.1 C 88.6 11.3 86.9 9.7 84.8 9.7 C 82.6 9.7 81.1 11.4 81.1 14.2 C 81.1 17 82.8 18.6 84.9 18.6 C 87 18.6 88.6 16.9 88.6 14.1 Z M 102 12.1 C 101.95 12.05 102 19.8 102 19.8 L 100.4 19.8 C 100.4 19.8 100.42 12.24 100.4 12.2 C 100.4 10.7 99.5 9.7 97.9 9.7 C 96 9.7 94.3 11.1 94.3 13.9 C 94.33 13.86 94.3 19.8 94.3 19.8 L 92.8 19.8 L 92.8 8.5 L 94.3 8.5 C 94.3 8.5 94.33 10.6 94.3 10.6 C 95 9.3 96.3 8.3 98.2 8.3 C 100.5 8.3 102 9.6 102 12.1 Z M 113.6 16.6 C 113.6 18.9 111.5 20 109.2 20 C 106.8 20 104.6 18.8 104.4 16.3 C 104.4 16.3 106 16.3 106 16.3 C 106.3 18 107.7 18.6 109.3 18.6 C 110.7 18.6 112 18.1 112 16.8 C 112 15.5 110.7 15.2 109.4 15 C 107.2 14.6 104.6 14.2 104.6 11.6 C 104.6 9.4 106.6 8.3 108.9 8.3 C 111.3 8.3 113.2 9.4 113.3 11.7 C 113.3 11.7 111.7 11.7 111.7 11.7 C 111.6 10.3 110.3 9.7 108.8 9.7 C 107.3 9.7 106.2 10.4 106.2 11.5 C 106.2 13 107.6 13.2 109.3 13.5 C 111.3 13.8 113.6 14.1 113.6 16.6 Z M 125.4 20 C 122.3 20 120.2 17.7 120.2 14.2 C 120.2 10.6 122.3 8.3 125.6 8.3 C 128.1 8.3 130.1 9.7 130.2 12.2 C 130.2 12.2 128.7 12.2 128.7 12.2 C 128.6 10.6 127.2 9.7 125.5 9.7 C 123.3 9.7 121.8 11.4 121.8 14.1 C 121.8 16.9 123.3 18.6 125.5 18.6 C 127.2 18.6 128.6 17.6 128.7 15.8 C 128.7 15.8 130.2 15.8 130.2 15.8 C 130.1 18.5 127.9 20 125.4 20 Z M 132.1 14.2 C 132.1 10.5 134.3 8.3 137.4 8.3 C 140.6 8.3 142.8 10.5 142.8 14.2 C 142.8 17.8 140.6 20 137.5 20 C 134.4 20 132.1 17.8 132.1 14.2 Z M 141.2 14.1 C 141.2 11.3 139.5 9.7 137.4 9.7 C 135.2 9.7 133.7 11.4 133.7 14.2 C 133.7 17 135.4 18.6 137.5 18.6 C 139.7 18.6 141.2 16.9 141.2 14.1 Z M 154.6 12.1 C 154.58 12.05 154.6 19.8 154.6 19.8 L 153 19.8 C 153 19.8 153.05 12.24 153 12.2 C 153 10.7 152.2 9.7 150.6 9.7 C 148.6 9.7 147 11.1 147 13.9 C 146.96 13.86 147 19.8 147 19.8 L 145.4 19.8 L 145.4 8.5 L 147 8.5 C 147 8.5 146.96 10.6 147 10.6 C 147.6 9.3 148.9 8.3 150.9 8.3 C 153.1 8.3 154.6 9.6 154.6 12.1 Z M 166.2 16.6 C 166.2 18.9 164.1 20 161.9 20 C 159.5 20 157.2 18.8 157 16.3 C 157 16.3 158.6 16.3 158.6 16.3 C 158.9 18 160.4 18.6 161.9 18.6 C 163.3 18.6 164.6 18.1 164.6 16.8 C 164.6 15.5 163.3 15.2 162 15 C 159.8 14.6 157.3 14.2 157.3 11.6 C 157.3 9.4 159.2 8.3 161.5 8.3 C 163.9 8.3 165.8 9.4 165.9 11.7 C 165.9 11.7 164.3 11.7 164.3 11.7 C 164.2 10.3 162.9 9.7 161.4 9.7 C 159.9 9.7 158.9 10.4 158.9 11.5 C 158.9 13 160.2 13.2 161.9 13.5 C 164 13.8 166.2 14.1 166.2 16.6 Z M 173.9 19.8 C 173.9 19.8 172.22 19.78 172.2 19.8 C 170.7 19.8 169.4 19.3 169.4 16.8 C 169.38 16.82 169.4 9.9 169.4 9.9 L 167.2 9.9 L 167.2 8.5 L 169.4 8.5 L 169.4 5.3 L 170.9 4.9 L 170.9 8.5 L 173.6 8.5 L 173.6 9.9 L 170.9 9.9 C 170.9 9.9 170.92 16.8 170.9 16.8 C 170.9 17.8 171.2 18.4 172.5 18.4 C 172.47 18.4 173.9 18.4 173.9 18.4 L 173.9 19.8 Z M 183 17.7 C 182.1 19.4 180.4 20 179 20 C 177.1 20 175.3 18.9 175.3 16.7 C 175.3 14.6 176.8 13.6 178.8 13.4 C 178.8 13.4 181.4 13 181.4 13 C 182.3 12.9 183 12.6 183 11.6 C 183 10.3 181.9 9.6 180.3 9.6 C 178.6 9.6 177.6 10.4 177.3 11.7 C 177.3 11.7 175.8 11.7 175.8 11.7 C 176.1 9.4 177.9 8.3 180.4 8.3 C 183 8.3 184.5 9.5 184.5 12 C 184.5 11.99 184.5 19.8 184.5 19.8 L 183 19.8 C 183 19.8 183.01 17.72 183 17.7 Z M 181.1 14.3 C 181.1 14.3 179.4 14.5 179.4 14.5 C 178 14.7 176.9 15.2 176.9 16.6 C 176.9 18 178 18.6 179.3 18.6 C 181 18.6 183 17.3 183 14.9 C 183 14.9 183 13.8 183 13.8 C 182.6 14.1 181.9 14.2 181.1 14.3 Z M 192.8 19.8 C 192.8 19.8 191.14 19.78 191.1 19.8 C 189.6 19.8 188.3 19.3 188.3 16.8 C 188.31 16.82 188.3 9.9 188.3 9.9 L 186.1 9.9 L 186.1 8.5 L 188.3 8.5 L 188.3 5.3 L 189.8 4.9 L 189.8 8.5 L 192.6 8.5 L 192.6 9.9 L 189.8 9.9 C 189.8 9.9 189.84 16.8 189.8 16.8 C 189.8 17.8 190.1 18.4 191.4 18.4 C 191.39 18.4 192.8 18.4 192.8 18.4 L 192.8 19.8 Z M 200.1 6.2 L 198.9 6.2 L 201.4 2.4 L 202.7 3.4 L 200.1 6.2 Z M 195.8 14.5 C 195.8 17.3 197.5 18.6 199.5 18.6 C 201 18.6 202.5 17.9 202.8 16.3 C 202.8 16.3 204.3 16.3 204.3 16.3 C 203.8 18.9 201.6 20 199.5 20 C 196.8 20 194.3 18.2 194.3 14.2 C 194.3 10.1 196.8 8.3 199.5 8.3 C 202.2 8.3 204.4 10 204.4 13.8 C 204.37 13.75 204.4 14.5 204.4 14.5 C 204.4 14.5 195.78 14.51 195.8 14.5 Z M 195.8 13.2 C 195.8 13.2 202.8 13.2 202.8 13.2 C 202.8 10.9 201.3 9.7 199.5 9.7 C 197.7 9.7 196 10.8 195.8 13.2 Z M 220.1 24.1 C 220.1 24.1 220.08 17.62 220.1 17.6 C 219.4 18.9 218.1 19.9 216.2 19.9 C 213.7 19.9 211.1 18.2 211.1 14 C 211.1 10 213.7 8.3 216.2 8.3 C 218.1 8.3 219.5 9.3 220.1 10.5 C 220.12 10.48 220.1 8.5 220.1 8.5 L 221.6 8.5 L 221.6 24.1 L 220.1 24.1 Z M 220.1 14.1 C 220.1 10.9 218.2 9.7 216.3 9.7 C 214.5 9.7 212.7 10.9 212.7 14.1 C 212.7 17.2 214.5 18.5 216.3 18.5 C 218.2 18.5 220.1 17.2 220.1 14.1 Z M 232.3 19.8 C 232.3 19.8 232.28 17.64 232.3 17.6 C 231.5 19.2 230.1 19.9 228.5 19.9 C 226.4 19.9 224.8 18.6 224.8 16 C 224.76 15.96 224.8 8.5 224.8 8.5 L 226.3 8.5 C 226.3 8.5 226.29 15.77 226.3 15.8 C 226.3 17.6 227.3 18.6 228.8 18.6 C 230.6 18.6 232.2 17.2 232.2 14.3 C 232.22 14.34 232.2 8.5 232.2 8.5 L 233.7 8.5 L 233.7 19.8 L 232.3 19.8 Z M 238.2 6 C 238.2 5.98 237.2 6 237.2 6 L 237.2 3.9 L 239.4 3.9 C 239.4 3.9 239.42 6.05 239.4 6 C 239.4 8.5 237.9 9.4 236.4 9.6 C 236.4 9.6 236.2 8.6 236.2 8.6 C 237.9 8.3 238.2 7.3 238.2 6 Z M 241.1 14.5 C 241.2 17.3 242.9 18.6 244.9 18.6 C 246.4 18.6 247.9 17.9 248.2 16.3 C 248.2 16.3 249.6 16.3 249.6 16.3 C 249.1 18.9 247 20 244.8 20 C 242.1 20 239.6 18.2 239.6 14.2 C 239.6 10.1 242.2 8.3 244.9 8.3 C 247.5 8.3 249.7 10 249.7 13.8 C 249.73 13.75 249.7 14.5 249.7 14.5 C 249.7 14.5 241.14 14.51 241.1 14.5 Z M 241.2 13.2 C 241.2 13.2 248.2 13.2 248.2 13.2 C 248.2 10.9 246.7 9.7 244.8 9.7 C 243.1 9.7 241.4 10.8 241.2 13.2 Z M 261.5 12.1 C 261.51 12.05 261.5 19.8 261.5 19.8 L 260 19.8 C 260 19.8 259.98 12.24 260 12.2 C 260 10.7 259.1 9.7 257.5 9.7 C 255.6 9.7 253.9 11.1 253.9 13.9 C 253.89 13.86 253.9 19.8 253.9 19.8 L 252.4 19.8 L 252.4 8.5 L 253.9 8.5 C 253.9 8.5 253.89 10.6 253.9 10.6 C 254.6 9.3 255.8 8.3 257.8 8.3 C 260 8.3 261.5 9.6 261.5 12.1 Z M 281 14.1 C 281 18.2 278.4 19.9 275.8 19.9 C 273.9 19.9 272.6 19 272 17.8 C 271.97 17.83 272 24.1 272 24.1 L 270.4 24.1 L 270.4 8.5 L 271.9 8.5 C 271.9 8.5 271.93 10.88 271.9 10.9 C 272.4 9.5 273.9 8.3 276 8.3 C 278.4 8.3 281 10 281 14.1 Z M 279.4 14.1 C 279.4 11 277.6 9.8 275.7 9.8 C 273.9 9.8 272 11 272 14.2 C 272 17.3 273.8 18.5 275.7 18.5 C 277.6 18.5 279.4 17.3 279.4 14.1 Z M 289.2 9.8 C 289.2 9.8 288.85 9.83 288.9 9.8 C 286.5 9.8 285.1 11.2 285.1 13.8 C 285.11 13.8 285.1 19.8 285.1 19.8 L 283.6 19.8 L 283.6 8.5 L 285.1 8.5 C 285.1 8.5 285.09 10.58 285.1 10.6 C 285.6 9.1 287 8.4 288.7 8.4 C 288.73 8.38 289.2 8.4 289.2 8.4 L 289.2 9.8 Z M 292.8 3.8 L 291.1 3.8 L 291.1 5.7 L 292.8 5.7 L 292.8 3.8 Z M 292.7 19.8 L 291.2 19.8 L 291.2 8.5 L 292.7 8.5 L 292.7 19.8 Z M 300.6 19.8 L 298.9 19.8 L 294.7 8.5 L 296.4 8.5 L 299.8 18.2 L 303.2 8.5 L 304.8 8.5 L 300.6 19.8 Z M 308.4 3.8 L 306.7 3.8 L 306.7 5.7 L 308.4 5.7 L 308.4 3.8 Z M 308.3 19.8 L 306.8 19.8 L 306.8 8.5 L 308.3 8.5 L 308.3 19.8 Z M 313.2 19.8 L 311.7 19.8 L 311.7 3.8 L 313.2 3.8 L 313.2 19.8 Z M 321.7 6.2 L 320.4 6.2 L 322.9 2.4 L 324.3 3.4 L 321.7 6.2 Z M 317.3 14.5 C 317.4 17.3 319.1 18.6 321.1 18.6 C 322.6 18.6 324 17.9 324.4 16.3 C 324.4 16.3 325.8 16.3 325.8 16.3 C 325.3 18.9 323.1 20 321 20 C 318.3 20 315.8 18.2 315.8 14.2 C 315.8 10.1 318.4 8.3 321.1 8.3 C 323.7 8.3 325.9 10 325.9 13.8 C 325.92 13.75 325.9 14.5 325.9 14.5 C 325.9 14.5 317.33 14.51 317.3 14.5 Z M 317.4 13.2 C 317.4 13.2 324.4 13.2 324.4 13.2 C 324.4 10.9 322.9 9.7 321 9.7 C 319.2 9.7 317.6 10.8 317.4 13.2 Z M 338.2 19.3 C 338.2 22.7 336 24.4 333.1 24.4 C 330.6 24.4 328.4 23.1 328.1 20.5 C 328.1 20.5 329.6 20.5 329.6 20.5 C 329.8 21.9 330.9 23.1 333.1 23.1 C 335.2 23.1 336.8 22 336.8 19.4 C 336.8 19.4 336.8 17.1 336.8 17.1 C 335.9 18.8 334.3 19.4 332.8 19.4 C 330 19.4 327.8 17.5 327.8 13.8 C 327.8 10.1 330.2 8.3 332.8 8.3 C 334.7 8.3 336 9.1 336.7 10.3 C 336.73 10.33 336.7 8.5 336.7 8.5 L 338.2 8.5 C 338.2 8.5 338.24 19.28 338.2 19.3 Z M 336.7 13.8 C 336.7 11 335 9.6 333.1 9.6 C 331.1 9.6 329.3 11 329.3 13.8 C 329.3 16.6 331.1 18 333 18 C 334.8 18 336.7 16.8 336.7 13.8 Z M 343.1 3.8 L 341.4 3.8 L 341.4 5.7 L 343.1 5.7 L 343.1 3.8 Z M 343 19.8 L 341.5 19.8 L 341.5 8.5 L 343 8.5 L 343 19.8 Z M 353.3 17.7 C 352.4 19.4 350.7 20 349.3 20 C 347.4 20 345.7 18.9 345.7 16.7 C 345.7 14.6 347.1 13.6 349.1 13.4 C 349.1 13.4 351.7 13 351.7 13 C 352.6 12.9 353.3 12.6 353.3 11.6 C 353.3 10.3 352.2 9.6 350.6 9.6 C 348.9 9.6 347.9 10.4 347.6 11.7 C 347.6 11.7 346.1 11.7 346.1 11.7 C 346.4 9.4 348.2 8.3 350.7 8.3 C 353.3 8.3 354.8 9.5 354.8 12 C 354.81 11.99 354.8 19.8 354.8 19.8 L 353.3 19.8 C 353.3 19.8 353.32 17.72 353.3 17.7 Z M 351.5 14.3 C 351.5 14.3 349.7 14.5 349.7 14.5 C 348.3 14.7 347.2 15.2 347.2 16.6 C 347.2 18 348.3 18.6 349.6 18.6 C 351.3 18.6 353.3 17.3 353.3 14.9 C 353.3 14.9 353.3 13.8 353.3 13.8 C 352.9 14.1 352.2 14.2 351.5 14.3 Z M 367.1 12.1 C 367.12 12.05 367.1 19.8 367.1 19.8 L 365.6 19.8 C 365.6 19.8 365.58 12.24 365.6 12.2 C 365.6 10.7 364.7 9.7 363.1 9.7 C 361.2 9.7 359.5 11.1 359.5 13.9 C 359.49 13.86 359.5 19.8 359.5 19.8 L 358 19.8 L 358 8.5 L 359.5 8.5 C 359.5 8.5 359.49 10.6 359.5 10.6 C 360.2 9.3 361.4 8.3 363.4 8.3 C 365.6 8.3 367.1 9.6 367.1 12.1 Z M 375.5 19.8 C 375.5 19.8 373.86 19.78 373.9 19.8 C 372.4 19.8 371 19.3 371 16.8 C 371.02 16.82 371 9.9 371 9.9 L 368.8 9.9 L 368.8 8.5 L 371 8.5 L 371 5.3 L 372.6 4.9 L 372.6 8.5 L 375.3 8.5 L 375.3 9.9 L 372.6 9.9 C 372.6 9.9 372.56 16.8 372.6 16.8 C 372.6 17.8 372.9 18.4 374.1 18.4 C 374.11 18.4 375.5 18.4 375.5 18.4 L 375.5 19.8 Z M 384.7 19.8 L 383.2 19.8 L 383.2 3.8 L 384.7 3.8 L 384.7 19.8 Z M 389.2 6 C 389.17 5.98 388.2 6 388.2 6 L 388.2 3.9 L 390.4 3.9 C 390.4 3.9 390.38 6.05 390.4 6 C 390.4 8.5 388.9 9.4 387.3 9.6 C 387.3 9.6 387.1 8.6 387.1 8.6 C 388.8 8.3 389.2 7.3 389.2 6 Z M 399.7 17.7 C 398.8 19.4 397.1 20 395.7 20 C 393.8 20 392.1 18.9 392.1 16.7 C 392.1 14.6 393.6 13.6 395.5 13.4 C 395.5 13.4 398.2 13 398.2 13 C 399 12.9 399.7 12.6 399.7 11.6 C 399.7 10.3 398.6 9.6 397 9.6 C 395.3 9.6 394.3 10.4 394 11.7 C 394 11.7 392.5 11.7 392.5 11.7 C 392.8 9.4 394.6 8.3 397.1 8.3 C 399.7 8.3 401.2 9.5 401.2 12 C 401.22 11.99 401.2 19.8 401.2 19.8 L 399.7 19.8 C 399.7 19.8 399.73 17.72 399.7 17.7 Z M 397.9 14.3 C 397.9 14.3 396.1 14.5 396.1 14.5 C 394.7 14.7 393.6 15.2 393.6 16.6 C 393.6 18 394.7 18.6 396 18.6 C 397.7 18.6 399.7 17.3 399.7 14.9 C 399.7 14.9 399.7 13.8 399.7 13.8 C 399.3 14.1 398.6 14.2 397.9 14.3 Z M 414.9 14.1 C 414.9 18.2 412.3 19.9 409.7 19.9 C 407.8 19.9 406.5 19 405.9 17.8 C 405.9 17.83 405.9 24.1 405.9 24.1 L 404.4 24.1 L 404.4 8.5 L 405.9 8.5 C 405.9 8.5 405.86 10.88 405.9 10.9 C 406.4 9.5 407.8 8.3 409.9 8.3 C 412.3 8.3 414.9 10 414.9 14.1 Z M 413.3 14.1 C 413.3 11 411.5 9.8 409.7 9.8 C 407.8 9.8 405.9 11 405.9 14.2 C 405.9 17.3 407.8 18.5 409.6 18.5 C 411.5 18.5 413.3 17.3 413.3 14.1 Z M 428 14.1 C 428 18.2 425.5 19.9 422.9 19.9 C 420.9 19.9 419.7 19 419 17.8 C 419.05 17.83 419 24.1 419 24.1 L 417.5 24.1 L 417.5 8.5 L 419 8.5 C 419 8.5 419.01 10.88 419 10.9 C 419.5 9.5 421 8.3 423 8.3 C 425.5 8.3 428 10 428 14.1 Z M 426.5 14.1 C 426.5 11 424.7 9.8 422.8 9.8 C 420.9 9.8 419.1 11 419.1 14.2 C 419.1 17.3 420.9 18.5 422.8 18.5 C 424.6 18.5 426.5 17.3 426.5 14.1 Z M 436.3 9.8 C 436.3 9.8 435.93 9.83 435.9 9.8 C 433.5 9.8 432.2 11.2 432.2 13.8 C 432.2 13.8 432.2 19.8 432.2 19.8 L 430.7 19.8 L 430.7 8.5 L 432.2 8.5 C 432.2 8.5 432.17 10.58 432.2 10.6 C 432.7 9.1 434.1 8.4 435.8 8.4 C 435.81 8.38 436.3 8.4 436.3 8.4 L 436.3 9.8 Z M 437.3 14.2 C 437.3 10.5 439.6 8.3 442.7 8.3 C 445.8 8.3 448 10.5 448 14.2 C 448 17.8 445.8 20 442.7 20 C 439.6 20 437.3 17.8 437.3 14.2 Z M 446.5 14.1 C 446.5 11.3 444.8 9.7 442.7 9.7 C 440.4 9.7 438.9 11.4 438.9 14.2 C 438.9 17 440.6 18.6 442.7 18.6 C 444.9 18.6 446.5 16.9 446.5 14.1 Z M 455.1 20 C 452 20 449.9 17.7 449.9 14.2 C 449.9 10.6 452 8.3 455.3 8.3 C 457.8 8.3 459.8 9.7 459.9 12.2 C 459.9 12.2 458.4 12.2 458.4 12.2 C 458.3 10.6 456.9 9.7 455.3 9.7 C 453 9.7 451.5 11.4 451.5 14.1 C 451.5 16.9 453 18.6 455.2 18.6 C 456.9 18.6 458.3 17.6 458.4 15.8 C 458.4 15.8 459.9 15.8 459.9 15.8 C 459.8 18.5 457.6 20 455.1 20 Z M 471.7 12.1 C 471.72 12.05 471.7 19.8 471.7 19.8 L 470.2 19.8 C 470.2 19.8 470.18 12.24 470.2 12.2 C 470.2 10.7 469.3 9.7 467.7 9.7 C 465.8 9.7 464.1 11.1 464.1 13.9 C 464.09 13.86 464.1 19.8 464.1 19.8 L 462.6 19.8 L 462.6 3.8 L 464.1 3.8 C 464.1 3.8 464.09 10.48 464.1 10.5 C 464.7 9.2 466 8.3 468 8.3 C 470.3 8.3 471.7 9.6 471.7 12.1 Z M 475.7 14.5 C 475.8 17.3 477.5 18.6 479.5 18.6 C 481 18.6 482.5 17.9 482.8 16.3 C 482.8 16.3 484.3 16.3 484.3 16.3 C 483.7 18.9 481.6 20 479.4 20 C 476.7 20 474.2 18.2 474.2 14.2 C 474.2 10.1 476.8 8.3 479.5 8.3 C 482.2 8.3 484.3 10 484.3 13.8 C 484.34 13.75 484.3 14.5 484.3 14.5 C 484.3 14.5 475.75 14.51 475.7 14.5 Z M 475.8 13.2 C 475.8 13.2 482.8 13.2 482.8 13.2 C 482.8 10.9 481.3 9.7 479.4 9.7 C 477.7 9.7 476 10.8 475.8 13.2 Z M 502.7 14.1 C 502.7 17.6 500.6 20 497.6 20 C 495.6 20 494.3 18.9 493.7 17.7 C 493.68 17.7 493.7 19.8 493.7 19.8 L 492.2 19.8 L 492.2 3.8 L 493.7 3.8 C 493.7 3.8 493.75 10.77 493.7 10.8 C 494.3 9.4 495.7 8.3 497.8 8.3 C 500.7 8.3 502.7 10.5 502.7 14.1 Z M 501.2 14.2 C 501.2 11.4 499.7 9.8 497.5 9.8 C 495.3 9.8 493.7 11.4 493.7 14.2 C 493.7 17 495.3 18.7 497.4 18.7 C 499.7 18.7 501.2 16.9 501.2 14.2 Z M 504.6 14.2 C 504.6 10.5 506.8 8.3 510 8.3 C 513.1 8.3 515.3 10.5 515.3 14.2 C 515.3 17.8 513.1 20 510 20 C 506.9 20 504.6 17.8 504.6 14.2 Z M 513.7 14.1 C 513.7 11.3 512 9.7 509.9 9.7 C 507.7 9.7 506.2 11.4 506.2 14.2 C 506.2 17 507.9 18.6 510 18.6 C 512.2 18.6 513.7 16.9 513.7 14.1 Z M 530.4 19.8 C 530.4 19.8 528.75 19.78 528.8 19.8 C 527.3 19.8 525.9 19.3 525.9 16.8 C 525.92 16.82 525.9 9.9 525.9 9.9 L 520.1 9.9 C 520.1 9.9 520.12 16.8 520.1 16.8 C 520.1 17.8 520.4 18.4 521.7 18.4 C 521.68 18.4 523.1 18.4 523.1 18.4 L 523.1 19.8 C 523.1 19.8 521.42 19.78 521.4 19.8 C 519.9 19.8 518.6 19.3 518.6 16.8 C 518.59 16.82 518.6 9.9 518.6 9.9 L 516.4 9.9 L 516.4 8.5 L 518.6 8.5 L 518.6 5.3 L 520.1 4.9 L 520.1 8.5 L 525.9 8.5 L 525.9 5.3 L 527.5 4.9 L 527.5 8.5 L 530.2 8.5 L 530.2 9.9 L 527.5 9.9 C 527.5 9.9 527.45 16.8 527.5 16.8 C 527.5 17.8 527.7 18.4 529 18.4 C 529 18.4 530.4 18.4 530.4 18.4 L 530.4 19.8 Z M 531.9 14.2 C 531.9 10.5 534.1 8.3 537.2 8.3 C 540.3 8.3 542.6 10.5 542.6 14.2 C 542.6 17.8 540.4 20 537.3 20 C 534.1 20 531.9 17.8 531.9 14.2 Z M 541 14.1 C 541 11.3 539.3 9.7 537.2 9.7 C 535 9.7 533.5 11.4 533.5 14.2 C 533.5 17 535.2 18.6 537.3 18.6 C 539.5 18.6 541 16.9 541 14.1 Z M 545.2 8.5 L 546.7 8.5 C 546.7 8.5 546.73 10.37 546.7 10.4 C 547.3 9 548.6 8.3 550 8.3 C 551.7 8.3 553 9.2 553.3 10.6 C 553.8 9.4 555.1 8.3 557 8.3 C 559.1 8.3 560.7 9.4 560.7 11.7 C 560.69 11.7 560.7 19.8 560.7 19.8 L 559.2 19.8 C 559.2 19.8 559.16 12.24 559.2 12.2 C 559.2 10.5 558.1 9.7 556.8 9.7 C 555.1 9.7 553.7 11 553.7 13.3 C 553.7 13.33 553.7 19.8 553.7 19.8 L 552.2 19.8 C 552.2 19.8 552.19 12.24 552.2 12.2 C 552.2 10.5 551.2 9.7 549.8 9.7 C 548.2 9.7 546.7 10.9 546.7 13.3 C 546.75 13.33 546.7 19.8 546.7 19.8 L 545.2 19.8 L 545.2 8.5 Z M 563.3 13.7 L 563.3 12.3 L 569.8 12.3 L 569.8 13.7 L 563.3 13.7 Z M 579.9 19.8 C 579.9 19.8 579.93 17.64 579.9 17.6 C 579.2 19.2 577.8 19.9 576.2 19.9 C 574 19.9 572.4 18.6 572.4 16 C 572.41 15.96 572.4 8.5 572.4 8.5 L 573.9 8.5 C 573.9 8.5 573.94 15.77 573.9 15.8 C 573.9 17.6 575 18.6 576.4 18.6 C 578.2 18.6 579.9 17.2 579.9 14.3 C 579.87 14.34 579.9 8.5 579.9 8.5 L 581.4 8.5 L 581.4 19.8 L 579.9 19.8 Z M 595.3 14.1 C 595.3 18.2 592.7 19.9 590.1 19.9 C 588.2 19.9 586.9 19 586.3 17.8 C 586.29 17.83 586.3 24.1 586.3 24.1 L 584.8 24.1 L 584.8 8.5 L 586.2 8.5 C 586.2 8.5 586.25 10.88 586.2 10.9 C 586.8 9.5 588.2 8.3 590.3 8.3 C 592.7 8.3 595.3 10 595.3 14.1 Z M 593.7 14.1 C 593.7 11 591.9 9.8 590.1 9.8 C 588.2 9.8 586.3 11 586.3 14.2 C 586.3 17.3 588.1 18.5 590 18.5 C 591.9 18.5 593.7 17.3 593.7 14.1 Z M 603.5 14.5 C 603.6 17.3 605.3 18.6 607.3 18.6 C 608.8 18.6 610.2 17.9 610.6 16.3 C 610.6 16.3 612 16.3 612 16.3 C 611.5 18.9 609.3 20 607.2 20 C 604.5 20 602 18.2 602 14.2 C 602 10.1 604.5 8.3 607.2 8.3 C 609.9 8.3 612.1 10 612.1 13.8 C 612.1 13.75 612.1 14.5 612.1 14.5 C 612.1 14.5 603.51 14.51 603.5 14.5 Z M 603.6 13.2 C 603.6 13.2 610.5 13.2 610.5 13.2 C 610.5 10.9 609.1 9.7 607.2 9.7 C 605.4 9.7 603.8 10.8 603.6 13.2 Z M 619.9 19.8 C 619.9 19.8 618.21 19.78 618.2 19.8 C 616.7 19.8 615.4 19.3 615.4 16.8 C 615.38 16.82 615.4 9.9 615.4 9.9 L 613.2 9.9 L 613.2 8.5 L 615.4 8.5 L 615.4 5.3 L 616.9 4.9 L 616.9 8.5 L 619.6 8.5 L 619.6 9.9 L 616.9 9.9 C 616.9 9.9 616.91 16.8 616.9 16.8 C 616.9 17.8 617.2 18.4 618.5 18.4 C 618.46 18.4 619.9 18.4 619.9 18.4 L 619.9 19.8 Z M 627.9 14.5 C 627.9 17.3 629.7 18.6 631.7 18.6 C 633.1 18.6 634.6 17.9 634.9 16.3 C 634.9 16.3 636.4 16.3 636.4 16.3 C 635.9 18.9 633.7 20 631.6 20 C 628.9 20 626.4 18.2 626.4 14.2 C 626.4 10.1 628.9 8.3 631.6 8.3 C 634.3 8.3 636.5 10 636.5 13.8 C 636.48 13.75 636.5 14.5 636.5 14.5 C 636.5 14.5 627.89 14.51 627.9 14.5 Z M 627.9 13.2 C 627.9 13.2 634.9 13.2 634.9 13.2 C 634.9 10.9 633.5 9.7 631.6 9.7 C 629.8 9.7 628.1 10.8 627.9 13.2 Z M 648.3 12.1 C 648.26 12.05 648.3 19.8 648.3 19.8 L 646.7 19.8 C 646.7 19.8 646.73 12.24 646.7 12.2 C 646.7 10.7 645.8 9.7 644.3 9.7 C 642.3 9.7 640.6 11.1 640.6 13.9 C 640.64 13.86 640.6 19.8 640.6 19.8 L 639.1 19.8 L 639.1 8.5 L 640.6 8.5 C 640.6 8.5 640.64 10.6 640.6 10.6 C 641.3 9.3 642.6 8.3 644.5 8.3 C 646.8 8.3 648.3 9.6 648.3 12.1 Z M 664.1 17.7 C 663.2 19.4 661.5 20 660.1 20 C 658.2 20 656.5 18.9 656.5 16.7 C 656.5 14.6 657.9 13.6 659.9 13.4 C 659.9 13.4 662.5 13 662.5 13 C 663.4 12.9 664.1 12.6 664.1 11.6 C 664.1 10.3 663 9.6 661.4 9.6 C 659.7 9.6 658.7 10.4 658.4 11.7 C 658.4 11.7 656.9 11.7 656.9 11.7 C 657.2 9.4 659 8.3 661.5 8.3 C 664.1 8.3 665.6 9.5 665.6 12 C 665.61 11.99 665.6 19.8 665.6 19.8 L 664.1 19.8 C 664.1 19.8 664.12 17.72 664.1 17.7 Z M 662.2 14.3 C 662.2 14.3 660.5 14.5 660.5 14.5 C 659.1 14.7 658 15.2 658 16.6 C 658 18 659.1 18.6 660.4 18.6 C 662.1 18.6 664.1 17.3 664.1 14.9 C 664.1 14.9 664.1 13.8 664.1 13.8 C 663.7 14.1 663 14.2 662.2 14.3 Z M 672.1 21.9 C 671.6 23.1 670.6 23.5 669.5 23.5 C 669.47 23.48 668.3 23.5 668.3 23.5 L 668.3 22.1 C 668.3 22.1 669.26 22.11 669.3 22.1 C 670.2 22.1 670.7 21.8 671.1 20.8 C 671.07 20.79 671.6 19.3 671.6 19.3 L 667.4 8.5 L 669 8.5 L 672.3 17.4 L 675.6 8.5 L 677.2 8.5 C 677.2 8.5 672.08 21.92 672.1 21.9 Z M 686.1 17.7 C 685.2 19.4 683.5 20 682.1 20 C 680.2 20 678.4 18.9 678.4 16.7 C 678.4 14.6 679.9 13.6 681.9 13.4 C 681.9 13.4 684.5 13 684.5 13 C 685.4 12.9 686.1 12.6 686.1 11.6 C 686.1 10.3 684.9 9.6 683.4 9.6 C 681.7 9.6 680.6 10.4 680.4 11.7 C 680.4 11.7 678.9 11.7 678.9 11.7 C 679.2 9.4 681 8.3 683.5 8.3 C 686 8.3 687.6 9.5 687.6 12 C 687.59 11.99 687.6 19.8 687.6 19.8 L 686.1 19.8 C 686.1 19.8 686.1 17.72 686.1 17.7 Z M 684.2 14.3 C 684.2 14.3 682.5 14.5 682.5 14.5 C 681.1 14.7 680 15.2 680 16.6 C 680 18 681.1 18.6 682.3 18.6 C 684.1 18.6 686.1 17.3 686.1 14.9 C 686.1 14.9 686.1 13.8 686.1 13.8 C 685.6 14.1 685 14.2 684.2 14.3 Z M 699.9 12.1 C 699.9 12.05 699.9 19.8 699.9 19.8 L 698.4 19.8 C 698.4 19.8 698.37 12.24 698.4 12.2 C 698.4 10.7 697.5 9.7 695.9 9.7 C 694 9.7 692.3 11.1 692.3 13.9 C 692.28 13.86 692.3 19.8 692.3 19.8 L 690.7 19.8 L 690.7 8.5 L 692.3 8.5 C 692.3 8.5 692.28 10.6 692.3 10.6 C 692.9 9.3 694.2 8.3 696.2 8.3 C 698.4 8.3 699.9 9.6 699.9 12.1 Z M 708.3 19.8 C 708.3 19.8 706.64 19.78 706.6 19.8 C 705.2 19.8 703.8 19.3 703.8 16.8 C 703.81 16.82 703.8 9.9 703.8 9.9 L 701.6 9.9 L 701.6 8.5 L 703.8 8.5 L 703.8 5.3 L 705.3 4.9 L 705.3 8.5 L 708.1 8.5 L 708.1 9.9 L 705.3 9.9 C 705.3 9.9 705.34 16.8 705.3 16.8 C 705.3 17.8 705.6 18.4 706.9 18.4 C 706.89 18.4 708.3 18.4 708.3 18.4 L 708.3 19.8 Z M 723.4 19.8 C 723.4 19.8 723.38 17.64 723.4 17.6 C 722.6 19.2 721.2 19.9 719.6 19.9 C 717.5 19.9 715.9 18.6 715.9 16 C 715.86 15.96 715.9 8.5 715.9 8.5 L 717.4 8.5 C 717.4 8.5 717.39 15.77 717.4 15.8 C 717.4 17.6 718.4 18.6 719.9 18.6 C 721.7 18.6 723.3 17.2 723.3 14.3 C 723.32 14.34 723.3 8.5 723.3 8.5 L 724.8 8.5 L 724.8 19.8 L 723.4 19.8 Z M 737.4 12.1 C 737.36 12.05 737.4 19.8 737.4 19.8 L 735.8 19.8 C 735.8 19.8 735.83 12.24 735.8 12.2 C 735.8 10.7 734.9 9.7 733.4 9.7 C 731.4 9.7 729.7 11.1 729.7 13.9 C 729.74 13.86 729.7 19.8 729.7 19.8 L 728.2 19.8 L 728.2 8.5 L 729.7 8.5 C 729.7 8.5 729.74 10.6 729.7 10.6 C 730.4 9.3 731.7 8.3 733.6 8.3 C 735.9 8.3 737.4 9.6 737.4 12.1 Z M 741.4 14.5 C 741.4 17.3 743.2 18.6 745.2 18.6 C 746.6 18.6 748.1 17.9 748.5 16.3 C 748.5 16.3 749.9 16.3 749.9 16.3 C 749.4 18.9 747.2 20 745.1 20 C 742.4 20 739.9 18.2 739.9 14.2 C 739.9 10.1 742.4 8.3 745.1 8.3 C 747.8 8.3 750 10 750 13.8 C 749.98 13.75 750 14.5 750 14.5 C 750 14.5 741.4 14.51 741.4 14.5 Z M 741.4 13.2 C 741.4 13.2 748.4 13.2 748.4 13.2 C 748.4 10.9 747 9.7 745.1 9.7 C 743.3 9.7 741.6 10.8 741.4 13.2 Z " stroke="none" fill="#fff"/>  </g></svg>