<?xml version="1.0" standalone="no"?><!DOCTYPE svg PUBLIC "-//W3C//DTD SVG 1.1//EN" "http://www.w3.org/Graphics/SVG/1.1/DTD/svg11.dtd"><svg xmlns="http://www.w3.org/2000/svg" version="1.1" width="858px" height="61.4px" viewBox="0 -3 858 61.4" style="top:-3px">  <desc>We have found that by having a bias towards the bottom-up, really knowing and having conviction in the names we inves</desc>  <defs/>  <g id="Polygon12691">    <path d="M 6.2 45.2 C 3.1 45.2 0.9 42.9 0.9 39.4 C 0.9 35.8 3 33.5 6.3 33.5 C 8.8 33.5 10.8 34.9 11 37.4 C 11 37.4 9.5 37.4 9.5 37.4 C 9.3 35.8 7.9 34.9 6.3 34.9 C 4.1 34.9 2.5 36.6 2.5 39.3 C 2.5 42.1 4.1 43.8 6.3 43.8 C 8 43.8 9.3 42.8 9.4 41 C 9.4 41 11 41 11 41 C 10.8 43.7 8.7 45.2 6.2 45.2 Z M 12.9 39.4 C 12.9 35.7 15.1 33.5 18.2 33.5 C 21.3 33.5 23.5 35.7 23.5 39.4 C 23.5 43 21.3 45.2 18.2 45.2 C 15.1 45.2 12.9 43 12.9 39.4 Z M 22 39.3 C 22 36.5 20.3 34.9 18.2 34.9 C 16 34.9 14.4 36.6 14.4 39.4 C 14.4 42.2 16.1 43.8 18.2 43.8 C 20.4 43.8 22 42.1 22 39.3 Z M 35.3 37.3 C 35.32 37.25 35.3 45 35.3 45 L 33.8 45 C 33.8 45 33.79 37.44 33.8 37.4 C 33.8 35.9 32.9 34.9 31.3 34.9 C 29.4 34.9 27.7 36.3 27.7 39.1 C 27.7 39.06 27.7 45 27.7 45 L 26.2 45 L 26.2 33.7 L 27.7 33.7 C 27.7 33.7 27.7 35.8 27.7 35.8 C 28.4 34.5 29.6 33.5 31.6 33.5 C 33.9 33.5 35.3 34.8 35.3 37.3 Z M 43 45 L 41.4 45 L 37.2 33.7 L 38.9 33.7 L 42.3 43.4 L 45.7 33.7 L 47.2 33.7 L 43 45 Z M 50.9 29 L 49.1 29 L 49.1 30.9 L 50.9 30.9 L 50.9 29 Z M 50.8 45 L 49.2 45 L 49.2 33.7 L 50.8 33.7 L 50.8 45 Z M 58.6 45.2 C 55.5 45.2 53.4 42.9 53.4 39.4 C 53.4 35.8 55.5 33.5 58.8 33.5 C 61.3 33.5 63.3 34.9 63.4 37.4 C 63.4 37.4 61.9 37.4 61.9 37.4 C 61.8 35.8 60.4 34.9 58.7 34.9 C 56.5 34.9 55 36.6 55 39.3 C 55 42.1 56.5 43.8 58.7 43.8 C 60.4 43.8 61.8 42.8 61.9 41 C 61.9 41 63.4 41 63.4 41 C 63.3 43.7 61.1 45.2 58.6 45.2 Z M 71.2 45 C 71.2 45 69.53 44.98 69.5 45 C 68 45 66.7 44.5 66.7 42 C 66.69 42.02 66.7 35.1 66.7 35.1 L 64.5 35.1 L 64.5 33.7 L 66.7 33.7 L 66.7 30.5 L 68.2 30.1 L 68.2 33.7 L 71 33.7 L 71 35.1 L 68.2 35.1 C 68.2 35.1 68.23 42 68.2 42 C 68.2 43 68.5 43.6 69.8 43.6 C 69.78 43.6 71.2 43.6 71.2 43.6 L 71.2 45 Z M 75 29 L 73.3 29 L 73.3 30.9 L 75 30.9 L 75 29 Z M 74.9 45 L 73.4 45 L 73.4 33.7 L 74.9 33.7 L 74.9 45 Z M 77.6 39.4 C 77.6 35.7 79.8 33.5 82.9 33.5 C 86 33.5 88.2 35.7 88.2 39.4 C 88.2 43 86 45.2 82.9 45.2 C 79.8 45.2 77.6 43 77.6 39.4 Z M 86.7 39.3 C 86.7 36.5 85 34.9 82.9 34.9 C 80.7 34.9 79.1 36.6 79.1 39.4 C 79.1 42.2 80.8 43.8 82.9 43.8 C 85.1 43.8 86.7 42.1 86.7 39.3 Z M 100 37.3 C 100.02 37.25 100 45 100 45 L 98.5 45 C 98.5 45 98.49 37.44 98.5 37.4 C 98.5 35.9 97.6 34.9 96 34.9 C 94.1 34.9 92.4 36.3 92.4 39.1 C 92.4 39.06 92.4 45 92.4 45 L 90.9 45 L 90.9 33.7 L 92.4 33.7 C 92.4 33.7 92.4 35.8 92.4 35.8 C 93.1 34.5 94.3 33.5 96.3 33.5 C 98.6 33.5 100 34.8 100 37.3 Z M 110.6 29 L 108.8 29 L 108.8 30.9 L 110.6 30.9 L 110.6 29 Z M 110.5 45 L 108.9 45 L 108.9 33.7 L 110.5 33.7 L 110.5 45 Z M 123 37.3 C 122.99 37.25 123 45 123 45 L 121.5 45 C 121.5 45 121.46 37.44 121.5 37.4 C 121.5 35.9 120.6 34.9 119 34.9 C 117.1 34.9 115.4 36.3 115.4 39.1 C 115.37 39.06 115.4 45 115.4 45 L 113.8 45 L 113.8 33.7 L 115.4 33.7 C 115.4 33.7 115.37 35.8 115.4 35.8 C 116 34.5 117.3 33.5 119.3 33.5 C 121.5 33.5 123 34.8 123 37.3 Z M 136.9 45 C 136.9 45 135.2 44.98 135.2 45 C 133.7 45 132.4 44.5 132.4 42 C 132.36 42.02 132.4 35.1 132.4 35.1 L 130.1 35.1 L 130.1 33.7 L 132.4 33.7 L 132.4 30.5 L 133.9 30.1 L 133.9 33.7 L 136.6 33.7 L 136.6 35.1 L 133.9 35.1 C 133.9 35.1 133.89 42 133.9 42 C 133.9 43 134.2 43.6 135.4 43.6 C 135.45 43.6 136.9 43.6 136.9 43.6 L 136.9 45 Z M 148.2 37.3 C 148.21 37.25 148.2 45 148.2 45 L 146.7 45 C 146.7 45 146.68 37.44 146.7 37.4 C 146.7 35.9 145.8 34.9 144.2 34.9 C 142.3 34.9 140.6 36.3 140.6 39.1 C 140.59 39.06 140.6 45 140.6 45 L 139.1 45 L 139.1 29 L 140.6 29 C 140.6 29 140.59 35.68 140.6 35.7 C 141.2 34.4 142.5 33.5 144.5 33.5 C 146.8 33.5 148.2 34.8 148.2 37.3 Z M 152.2 39.7 C 152.3 42.5 154 43.8 156 43.8 C 157.5 43.8 159 43.1 159.3 41.5 C 159.3 41.5 160.8 41.5 160.8 41.5 C 160.2 44.1 158.1 45.2 155.9 45.2 C 153.2 45.2 150.7 43.4 150.7 39.4 C 150.7 35.3 153.3 33.5 156 33.5 C 158.7 33.5 160.8 35.2 160.8 39 C 160.84 38.95 160.8 39.7 160.8 39.7 C 160.8 39.7 152.25 39.71 152.2 39.7 Z M 152.3 38.4 C 152.3 38.4 159.3 38.4 159.3 38.4 C 159.3 36.1 157.8 34.9 155.9 34.9 C 154.2 34.9 152.5 36 152.3 38.4 Z M 177.9 37.3 C 177.87 37.25 177.9 45 177.9 45 L 176.3 45 C 176.3 45 176.33 37.44 176.3 37.4 C 176.3 35.9 175.5 34.9 173.9 34.9 C 171.9 34.9 170.2 36.3 170.2 39.1 C 170.24 39.06 170.2 45 170.2 45 L 168.7 45 L 168.7 33.7 L 170.2 33.7 C 170.2 33.7 170.24 35.8 170.2 35.8 C 170.9 34.5 172.2 33.5 174.1 33.5 C 176.4 33.5 177.9 34.8 177.9 37.3 Z M 188.1 42.9 C 187.2 44.6 185.5 45.2 184 45.2 C 182.1 45.2 180.4 44.1 180.4 41.9 C 180.4 39.8 181.9 38.8 183.8 38.6 C 183.8 38.6 186.5 38.2 186.5 38.2 C 187.3 38.1 188.1 37.8 188.1 36.8 C 188.1 35.5 186.9 34.8 185.3 34.8 C 183.6 34.8 182.6 35.6 182.4 36.9 C 182.4 36.9 180.8 36.9 180.8 36.9 C 181.1 34.6 182.9 33.5 185.4 33.5 C 188 33.5 189.5 34.7 189.5 37.2 C 189.54 37.19 189.5 45 189.5 45 L 188.1 45 C 188.1 45 188.05 42.92 188.1 42.9 Z M 186.2 39.5 C 186.2 39.5 184.5 39.7 184.5 39.7 C 183 39.9 182 40.4 182 41.8 C 182 43.2 183.1 43.8 184.3 43.8 C 186.1 43.8 188 42.5 188 40.1 C 188 40.1 188 39 188 39 C 187.6 39.3 186.9 39.4 186.2 39.5 Z M 192.7 33.7 L 194.2 33.7 C 194.2 33.7 194.2 35.57 194.2 35.6 C 194.8 34.2 196.1 33.5 197.5 33.5 C 199.1 33.5 200.5 34.4 200.8 35.8 C 201.3 34.6 202.6 33.5 204.5 33.5 C 206.6 33.5 208.2 34.6 208.2 36.9 C 208.17 36.9 208.2 45 208.2 45 L 206.6 45 C 206.6 45 206.64 37.44 206.6 37.4 C 206.6 35.7 205.6 34.9 204.2 34.9 C 202.6 34.9 201.2 36.2 201.2 38.5 C 201.18 38.53 201.2 45 201.2 45 L 199.7 45 C 199.7 45 199.66 37.44 199.7 37.4 C 199.7 35.7 198.6 34.9 197.3 34.9 C 195.6 34.9 194.2 36.1 194.2 38.5 C 194.23 38.53 194.2 45 194.2 45 L 192.7 45 L 192.7 33.7 Z M 212.2 39.7 C 212.2 42.5 214 43.8 216 43.8 C 217.5 43.8 218.9 43.1 219.3 41.5 C 219.3 41.5 220.7 41.5 220.7 41.5 C 220.2 44.1 218 45.2 215.9 45.2 C 213.2 45.2 210.7 43.4 210.7 39.4 C 210.7 35.3 213.2 33.5 215.9 33.5 C 218.6 33.5 220.8 35.2 220.8 39 C 220.79 38.95 220.8 39.7 220.8 39.7 C 220.8 39.7 212.2 39.71 212.2 39.7 Z M 212.2 38.4 C 212.2 38.4 219.2 38.4 219.2 38.4 C 219.2 36.1 217.8 34.9 215.9 34.9 C 214.1 34.9 212.5 36 212.2 38.4 Z M 231.8 41.8 C 231.8 44.1 229.7 45.2 227.4 45.2 C 225 45.2 222.8 44 222.6 41.5 C 222.6 41.5 224.2 41.5 224.2 41.5 C 224.5 43.2 225.9 43.8 227.5 43.8 C 228.9 43.8 230.2 43.3 230.2 42 C 230.2 40.7 228.9 40.4 227.6 40.2 C 225.4 39.8 222.8 39.4 222.8 36.8 C 222.8 34.6 224.8 33.5 227.1 33.5 C 229.5 33.5 231.4 34.6 231.5 36.9 C 231.5 36.9 229.9 36.9 229.9 36.9 C 229.8 35.5 228.5 34.9 227 34.9 C 225.5 34.9 224.4 35.6 224.4 36.7 C 224.4 38.2 225.8 38.4 227.5 38.7 C 229.5 39 231.8 39.3 231.8 41.8 Z M 250.4 45 L 248.9 45 L 246 36 L 243.1 45 L 241.6 45 L 237.9 33.7 L 239.5 33.7 L 242.4 43 L 245.2 33.7 L 246.8 33.7 L 249.7 43 L 252.5 33.7 L 254.1 33.7 L 250.4 45 Z M 256.8 39.7 C 256.8 42.5 258.5 43.8 260.5 43.8 C 262 43.8 263.5 43.1 263.8 41.5 C 263.8 41.5 265.3 41.5 265.3 41.5 C 264.8 44.1 262.6 45.2 260.4 45.2 C 257.8 45.2 255.3 43.4 255.3 39.4 C 255.3 35.3 257.8 33.5 260.5 33.5 C 263.2 33.5 265.4 35.2 265.4 39 C 265.35 38.95 265.4 39.7 265.4 39.7 C 265.4 39.7 256.76 39.71 256.8 39.7 Z M 256.8 38.4 C 256.8 38.4 263.8 38.4 263.8 38.4 C 263.8 36.1 262.3 34.9 260.4 34.9 C 258.7 34.9 257 36 256.8 38.4 Z M 274.9 29 L 273.1 29 L 273.1 30.9 L 274.9 30.9 L 274.9 29 Z M 274.8 45 L 273.2 45 L 273.2 33.7 L 274.8 33.7 L 274.8 45 Z M 287.3 37.3 C 287.28 37.25 287.3 45 287.3 45 L 285.7 45 C 285.7 45 285.74 37.44 285.7 37.4 C 285.7 35.9 284.9 34.9 283.3 34.9 C 281.3 34.9 279.7 36.3 279.7 39.1 C 279.65 39.06 279.7 45 279.7 45 L 278.1 45 L 278.1 33.7 L 279.7 33.7 C 279.7 33.7 279.65 35.8 279.7 35.8 C 280.3 34.5 281.6 33.5 283.6 33.5 C 285.8 33.5 287.3 34.8 287.3 37.3 Z M 295 45 L 293.3 45 L 289.2 33.7 L 290.8 33.7 L 294.2 43.4 L 297.6 33.7 L 299.2 33.7 L 295 45 Z M 301.8 39.7 C 301.8 42.5 303.5 43.8 305.5 43.8 C 307 43.8 308.5 43.1 308.8 41.5 C 308.8 41.5 310.3 41.5 310.3 41.5 C 309.8 44.1 307.6 45.2 305.4 45.2 C 302.8 45.2 300.3 43.4 300.3 39.4 C 300.3 35.3 302.8 33.5 305.5 33.5 C 308.2 33.5 310.4 35.2 310.4 39 C 310.35 38.95 310.4 39.7 310.4 39.7 C 310.4 39.7 301.77 39.71 301.8 39.7 Z M 301.8 38.4 C 301.8 38.4 308.8 38.4 308.8 38.4 C 308.8 36.1 307.3 34.9 305.4 34.9 C 303.7 34.9 302 36 301.8 38.4 Z M 321.4 41.8 C 321.4 44.1 319.3 45.2 317 45.2 C 314.6 45.2 312.4 44 312.1 41.5 C 312.1 41.5 313.8 41.5 313.8 41.5 C 314 43.2 315.5 43.8 317 43.8 C 318.5 43.8 319.8 43.3 319.8 42 C 319.8 40.7 318.5 40.4 317.1 40.2 C 315 39.8 312.4 39.4 312.4 36.8 C 312.4 34.6 314.3 33.5 316.7 33.5 C 319 33.5 320.9 34.6 321.1 36.9 C 321.1 36.9 319.5 36.9 319.5 36.9 C 319.4 35.5 318.1 34.9 316.6 34.9 C 315.1 34.9 314 35.6 314 36.7 C 314 38.2 315.4 38.4 317.1 38.7 C 319.1 39 321.4 39.3 321.4 41.8 Z M 329 45 C 329 45 327.36 44.98 327.4 45 C 325.9 45 324.5 44.5 324.5 42 C 324.53 42.02 324.5 35.1 324.5 35.1 L 322.3 35.1 L 322.3 33.7 L 324.5 33.7 L 324.5 30.5 L 326.1 30.1 L 326.1 33.7 L 328.8 33.7 L 328.8 35.1 L 326.1 35.1 C 326.1 35.1 326.06 42 326.1 42 C 326.1 43 326.4 43.6 327.6 43.6 C 327.62 43.6 329 43.6 329 43.6 L 329 45 Z M 338.3 29 L 336.6 29 L 336.6 30.9 L 338.3 30.9 L 338.3 29 Z M 338.2 45 L 336.7 45 L 336.7 33.7 L 338.2 33.7 L 338.2 45 Z M 350.7 37.3 C 350.74 37.25 350.7 45 350.7 45 L 349.2 45 C 349.2 45 349.2 37.44 349.2 37.4 C 349.2 35.9 348.3 34.9 346.7 34.9 C 344.8 34.9 343.1 36.3 343.1 39.1 C 343.11 39.06 343.1 45 343.1 45 L 341.6 45 L 341.6 33.7 L 343.1 33.7 C 343.1 33.7 343.11 35.8 343.1 35.8 C 343.8 34.5 345 33.5 347 33.5 C 349.3 33.5 350.7 34.8 350.7 37.3 Z M 355.1 44.9 C 355.08 44.86 354.1 44.9 354.1 44.9 L 354.1 42.8 L 356.3 42.8 C 356.3 42.8 356.3 44.92 356.3 44.9 C 356.3 47.4 354.8 48.3 353.3 48.4 C 353.3 48.4 353 47.5 353 47.5 C 354.7 47.2 355.1 46.2 355.1 44.9 Z M 374.8 45 L 373.3 45 L 370.4 36 L 367.5 45 L 366 45 L 362.3 33.7 L 363.9 33.7 L 366.8 43 L 369.6 33.7 L 371.2 33.7 L 374.1 43 L 376.9 33.7 L 378.5 33.7 L 374.8 45 Z M 381.2 39.7 C 381.2 42.5 382.9 43.8 384.9 43.8 C 386.4 43.8 387.9 43.1 388.2 41.5 C 388.2 41.5 389.7 41.5 389.7 41.5 C 389.2 44.1 387 45.2 384.8 45.2 C 382.2 45.2 379.7 43.4 379.7 39.4 C 379.7 35.3 382.2 33.5 384.9 33.5 C 387.6 33.5 389.8 35.2 389.8 39 C 389.76 38.95 389.8 39.7 389.8 39.7 C 389.8 39.7 381.17 39.71 381.2 39.7 Z M 381.2 38.4 C 381.2 38.4 388.2 38.4 388.2 38.4 C 388.2 36.1 386.7 34.9 384.8 34.9 C 383.1 34.9 381.4 36 381.2 38.4 Z M 392.6 31.2 C 392.63 31.18 391.6 31.2 391.6 31.2 L 391.6 29.1 L 393.9 29.1 C 393.9 29.1 393.85 31.25 393.9 31.2 C 393.9 33.7 392.4 34.6 390.8 34.8 C 390.8 34.8 390.6 33.8 390.6 33.8 C 392.3 33.5 392.6 32.5 392.6 31.2 Z M 401.3 35 C 401.3 35 400.91 35.03 400.9 35 C 398.5 35 397.2 36.4 397.2 39 C 397.17 39 397.2 45 397.2 45 L 395.6 45 L 395.6 33.7 L 397.1 33.7 C 397.1 33.7 397.15 35.78 397.1 35.8 C 397.7 34.3 399 33.6 400.8 33.6 C 400.78 33.58 401.3 33.6 401.3 33.6 L 401.3 35 Z M 403.8 39.7 C 403.9 42.5 405.6 43.8 407.6 43.8 C 409.1 43.8 410.5 43.1 410.9 41.5 C 410.9 41.5 412.3 41.5 412.3 41.5 C 411.8 44.1 409.6 45.2 407.5 45.2 C 404.8 45.2 402.3 43.4 402.3 39.4 C 402.3 35.3 404.9 33.5 407.6 33.5 C 410.2 33.5 412.4 35.2 412.4 39 C 412.41 38.95 412.4 39.7 412.4 39.7 C 412.4 39.7 403.83 39.71 403.8 39.7 Z M 403.9 38.4 C 403.9 38.4 410.9 38.4 410.9 38.4 C 410.9 36.1 409.4 34.9 407.5 34.9 C 405.7 34.9 404.1 36 403.9 38.4 Z M 427.2 42.9 C 426.3 44.6 424.6 45.2 423.2 45.2 C 421.3 45.2 419.6 44.1 419.6 41.9 C 419.6 39.8 421 38.8 423 38.6 C 423 38.6 425.6 38.2 425.6 38.2 C 426.5 38.1 427.2 37.8 427.2 36.8 C 427.2 35.5 426.1 34.8 424.5 34.8 C 422.8 34.8 421.8 35.6 421.5 36.9 C 421.5 36.9 420 36.9 420 36.9 C 420.3 34.6 422.1 33.5 424.6 33.5 C 427.2 33.5 428.7 34.7 428.7 37.2 C 428.71 37.19 428.7 45 428.7 45 L 427.2 45 C 427.2 45 427.22 42.92 427.2 42.9 Z M 425.4 39.5 C 425.4 39.5 423.6 39.7 423.6 39.7 C 422.2 39.9 421.1 40.4 421.1 41.8 C 421.1 43.2 422.2 43.8 423.5 43.8 C 425.2 43.8 427.2 42.5 427.2 40.1 C 427.2 40.1 427.2 39 427.2 39 C 426.8 39.3 426.1 39.4 425.4 39.5 Z M 442.4 39.3 C 442.4 42.8 440.3 45.2 437.3 45.2 C 435.3 45.2 433.9 44.1 433.3 42.9 C 433.33 42.9 433.3 45 433.3 45 L 431.9 45 L 431.9 29 L 433.4 29 C 433.4 29 433.39 35.97 433.4 36 C 434 34.6 435.4 33.5 437.4 33.5 C 440.3 33.5 442.4 35.7 442.4 39.3 Z M 440.8 39.4 C 440.8 36.6 439.3 35 437.2 35 C 435 35 433.4 36.6 433.4 39.4 C 433.4 42.2 434.9 43.9 437.1 43.9 C 439.3 43.9 440.8 42.1 440.8 39.4 Z M 446.5 45 L 445 45 L 445 29 L 446.5 29 L 446.5 45 Z M 450.7 39.7 C 450.7 42.5 452.4 43.8 454.4 43.8 C 455.9 43.8 457.4 43.1 457.7 41.5 C 457.7 41.5 459.2 41.5 459.2 41.5 C 458.7 44.1 456.5 45.2 454.4 45.2 C 451.7 45.2 449.2 43.4 449.2 39.4 C 449.2 35.3 451.7 33.5 454.4 33.5 C 457.1 33.5 459.3 35.2 459.3 39 C 459.26 38.95 459.3 39.7 459.3 39.7 C 459.3 39.7 450.68 39.71 450.7 39.7 Z M 450.7 38.4 C 450.7 38.4 457.7 38.4 457.7 38.4 C 457.7 36.1 456.2 34.9 454.4 34.9 C 452.6 34.9 450.9 36 450.7 38.4 Z M 472.1 45 C 472.1 45 470.42 44.98 470.4 45 C 468.9 45 467.6 44.5 467.6 42 C 467.58 42.02 467.6 35.1 467.6 35.1 L 465.4 35.1 L 465.4 33.7 L 467.6 33.7 L 467.6 30.5 L 469.1 30.1 L 469.1 33.7 L 471.8 33.7 L 471.8 35.1 L 469.1 35.1 C 469.1 35.1 469.11 42 469.1 42 C 469.1 43 469.4 43.6 470.7 43.6 C 470.67 43.6 472.1 43.6 472.1 43.6 L 472.1 45 Z M 473.5 39.4 C 473.5 35.7 475.8 33.5 478.9 33.5 C 482 33.5 484.2 35.7 484.2 39.4 C 484.2 43 482 45.2 478.9 45.2 C 475.8 45.2 473.5 43 473.5 39.4 Z M 482.7 39.3 C 482.7 36.5 481 34.9 478.9 34.9 C 476.7 34.9 475.1 36.6 475.1 39.4 C 475.1 42.2 476.8 43.8 478.9 43.8 C 481.1 43.8 482.7 42.1 482.7 39.3 Z M 501.5 45 L 500 45 C 500 45 500.03 42.8 500 42.8 C 499.5 44.1 498.1 45.2 496 45.2 C 493.1 45.2 491 42.9 491 39.3 C 491 35.8 493.1 33.5 496 33.5 C 497.9 33.5 499.4 34.4 500 35.6 C 499.96 35.62 500 29 500 29 L 501.5 29 L 501.5 45 Z M 499.9 39.3 C 499.9 36.5 498.4 34.9 496.2 34.9 C 494 34.9 492.5 36.6 492.5 39.3 C 492.5 42.1 494 43.8 496.2 43.8 C 498.4 43.8 499.9 42.1 499.9 39.3 Z M 506.5 29 L 504.8 29 L 504.8 30.9 L 506.5 30.9 L 506.5 29 Z M 506.4 45 L 504.9 45 L 504.9 33.7 L 506.4 33.7 L 506.4 45 Z M 518.1 41.8 C 518.1 44.1 516 45.2 513.8 45.2 C 511.4 45.2 509.1 44 508.9 41.5 C 508.9 41.5 510.5 41.5 510.5 41.5 C 510.8 43.2 512.3 43.8 513.8 43.8 C 515.3 43.8 516.5 43.3 516.5 42 C 516.5 40.7 515.2 40.4 513.9 40.2 C 511.7 39.8 509.2 39.4 509.2 36.8 C 509.2 34.6 511.1 33.5 513.4 33.5 C 515.8 33.5 517.7 34.6 517.8 36.9 C 517.8 36.9 516.2 36.9 516.2 36.9 C 516.1 35.5 514.8 34.9 513.4 34.9 C 511.8 34.9 510.8 35.6 510.8 36.7 C 510.8 38.2 512.1 38.4 513.8 38.7 C 515.9 39 518.1 39.3 518.1 41.8 Z M 525.1 45.2 C 522 45.2 519.9 42.9 519.9 39.4 C 519.9 35.8 522 33.5 525.3 33.5 C 527.8 33.5 529.8 34.9 529.9 37.4 C 529.9 37.4 528.4 37.4 528.4 37.4 C 528.3 35.8 526.9 34.9 525.2 34.9 C 523 34.9 521.5 36.6 521.5 39.3 C 521.5 42.1 523 43.8 525.2 43.8 C 526.9 43.8 528.3 42.8 528.4 41 C 528.4 41 529.9 41 529.9 41 C 529.8 43.7 527.6 45.2 525.1 45.2 Z M 531.8 39.4 C 531.8 35.7 534 33.5 537.2 33.5 C 540.3 33.5 542.5 35.7 542.5 39.4 C 542.5 43 540.3 45.2 537.2 45.2 C 534.1 45.2 531.8 43 531.8 39.4 Z M 540.9 39.3 C 540.9 36.5 539.2 34.9 537.1 34.9 C 534.9 34.9 533.4 36.6 533.4 39.4 C 533.4 42.2 535.1 43.8 537.2 43.8 C 539.4 43.8 540.9 42.1 540.9 39.3 Z M 549.4 45 L 547.7 45 L 543.6 33.7 L 545.2 33.7 L 548.6 43.4 L 552 33.7 L 553.6 33.7 L 549.4 45 Z M 556.2 39.7 C 556.2 42.5 557.9 43.8 559.9 43.8 C 561.4 43.8 562.9 43.1 563.2 41.5 C 563.2 41.5 564.7 41.5 564.7 41.5 C 564.2 44.1 562 45.2 559.8 45.2 C 557.1 45.2 554.6 43.4 554.6 39.4 C 554.6 35.3 557.2 33.5 559.9 33.5 C 562.6 33.5 564.7 35.2 564.7 39 C 564.75 38.95 564.7 39.7 564.7 39.7 C 564.7 39.7 556.16 39.71 556.2 39.7 Z M 556.2 38.4 C 556.2 38.4 563.2 38.4 563.2 38.4 C 563.2 36.1 561.7 34.9 559.8 34.9 C 558.1 34.9 556.4 36 556.2 38.4 Z M 573 35 C 573 35 572.64 35.03 572.6 35 C 570.2 35 568.9 36.4 568.9 39 C 568.91 39 568.9 45 568.9 45 L 567.4 45 L 567.4 33.7 L 568.9 33.7 C 568.9 33.7 568.88 35.78 568.9 35.8 C 569.4 34.3 570.8 33.6 572.5 33.6 C 572.52 33.58 573 33.6 573 33.6 L 573 35 Z M 585 45 C 585 45 583.31 44.98 583.3 45 C 581.8 45 580.5 44.5 580.5 42 C 580.48 42.02 580.5 35.1 580.5 35.1 L 578.2 35.1 L 578.2 33.7 L 580.5 33.7 L 580.5 30.5 L 582 30.1 L 582 33.7 L 584.7 33.7 L 584.7 35.1 L 582 35.1 C 582 35.1 582.01 42 582 42 C 582 43 582.3 43.6 583.6 43.6 C 583.56 43.6 585 43.6 585 43.6 L 585 45 Z M 592.8 35 C 592.8 35 592.45 35.03 592.4 35 C 590.1 35 588.7 36.4 588.7 39 C 588.71 39 588.7 45 588.7 45 L 587.2 45 L 587.2 33.7 L 588.7 33.7 C 588.7 33.7 588.69 35.78 588.7 35.8 C 589.2 34.3 590.6 33.6 592.3 33.6 C 592.32 33.58 592.8 33.6 592.8 33.6 L 592.8 35 Z M 602.2 45 C 602.2 45 602.21 42.84 602.2 42.8 C 601.4 44.4 600 45.1 598.5 45.1 C 596.3 45.1 594.7 43.8 594.7 41.2 C 594.69 41.16 594.7 33.7 594.7 33.7 L 596.2 33.7 C 596.2 33.7 596.23 40.97 596.2 41 C 596.2 42.8 597.2 43.8 598.7 43.8 C 600.5 43.8 602.1 42.4 602.1 39.5 C 602.15 39.54 602.1 33.7 602.1 33.7 L 603.7 33.7 L 603.7 45 L 602.2 45 Z M 607.8 39.7 C 607.9 42.5 609.6 43.8 611.6 43.8 C 613.1 43.8 614.5 43.1 614.9 41.5 C 614.9 41.5 616.3 41.5 616.3 41.5 C 615.8 44.1 613.6 45.2 611.5 45.2 C 608.8 45.2 606.3 43.4 606.3 39.4 C 606.3 35.3 608.8 33.5 611.6 33.5 C 614.2 33.5 616.4 35.2 616.4 39 C 616.41 38.95 616.4 39.7 616.4 39.7 C 616.4 39.7 607.82 39.71 607.8 39.7 Z M 607.9 38.4 C 607.9 38.4 614.9 38.4 614.9 38.4 C 614.9 36.1 613.4 34.9 611.5 34.9 C 609.7 34.9 608.1 36 607.9 38.4 Z M 628.3 45 L 626.7 45 L 622.5 33.7 L 624.2 33.7 L 627.5 43.4 L 630.9 33.7 L 632.5 33.7 L 628.3 45 Z M 641.2 42.9 C 640.4 44.6 638.7 45.2 637.2 45.2 C 635.3 45.2 633.6 44.1 633.6 41.9 C 633.6 39.8 635.1 38.8 637 38.6 C 637 38.6 639.7 38.2 639.7 38.2 C 640.5 38.1 641.2 37.8 641.2 36.8 C 641.2 35.5 640.1 34.8 638.5 34.8 C 636.8 34.8 635.8 35.6 635.6 36.9 C 635.6 36.9 634 36.9 634 36.9 C 634.3 34.6 636.1 33.5 638.6 33.5 C 641.2 33.5 642.7 34.7 642.7 37.2 C 642.74 37.19 642.7 45 642.7 45 L 641.2 45 C 641.2 45 641.25 42.92 641.2 42.9 Z M 639.4 39.5 C 639.4 39.5 637.7 39.7 637.7 39.7 C 636.2 39.9 635.2 40.4 635.2 41.8 C 635.2 43.2 636.3 43.8 637.5 43.8 C 639.3 43.8 641.2 42.5 641.2 40.1 C 641.2 40.1 641.2 39 641.2 39 C 640.8 39.3 640.1 39.4 639.4 39.5 Z M 647.4 45 L 645.9 45 L 645.9 29 L 647.4 29 L 647.4 45 Z M 658.2 45 C 658.2 45 658.2 42.84 658.2 42.8 C 657.4 44.4 656 45.1 654.4 45.1 C 652.3 45.1 650.7 43.8 650.7 41.2 C 650.68 41.16 650.7 33.7 650.7 33.7 L 652.2 33.7 C 652.2 33.7 652.21 40.97 652.2 41 C 652.2 42.8 653.2 43.8 654.7 43.8 C 656.5 43.8 658.1 42.4 658.1 39.5 C 658.13 39.54 658.1 33.7 658.1 33.7 L 659.7 33.7 L 659.7 45 L 658.2 45 Z M 663.8 39.7 C 663.8 42.5 665.6 43.8 667.6 43.8 C 669.1 43.8 670.5 43.1 670.9 41.5 C 670.9 41.5 672.3 41.5 672.3 41.5 C 671.8 44.1 669.6 45.2 667.5 45.2 C 664.8 45.2 662.3 43.4 662.3 39.4 C 662.3 35.3 664.8 33.5 667.5 33.5 C 670.2 33.5 672.4 35.2 672.4 39 C 672.39 38.95 672.4 39.7 672.4 39.7 C 672.4 39.7 663.8 39.71 663.8 39.7 Z M 663.8 38.4 C 663.8 38.4 670.8 38.4 670.8 38.4 C 670.8 36.1 669.4 34.9 667.5 34.9 C 665.7 34.9 664.1 36 663.8 38.4 Z M 681.9 29 L 680.2 29 L 680.2 30.9 L 681.9 30.9 L 681.9 29 Z M 681.8 45 L 680.3 45 L 680.3 33.7 L 681.8 33.7 L 681.8 45 Z M 694.3 37.3 C 694.32 37.25 694.3 45 694.3 45 L 692.8 45 C 692.8 45 692.78 37.44 692.8 37.4 C 692.8 35.9 691.9 34.9 690.3 34.9 C 688.4 34.9 686.7 36.3 686.7 39.1 C 686.69 39.06 686.7 45 686.7 45 L 685.2 45 L 685.2 33.7 L 686.7 33.7 C 686.7 33.7 686.69 35.8 686.7 35.8 C 687.4 34.5 688.6 33.5 690.6 33.5 C 692.8 33.5 694.3 34.8 694.3 37.3 Z M 708.2 45 C 708.2 45 706.52 44.98 706.5 45 C 705 45 703.7 44.5 703.7 42 C 703.68 42.02 703.7 35.1 703.7 35.1 L 701.5 35.1 L 701.5 33.7 L 703.7 33.7 L 703.7 30.5 L 705.2 30.1 L 705.2 33.7 L 707.9 33.7 L 707.9 35.1 L 705.2 35.1 C 705.2 35.1 705.21 42 705.2 42 C 705.2 43 705.5 43.6 706.8 43.6 C 706.77 43.6 708.2 43.6 708.2 43.6 L 708.2 45 Z M 719.5 37.3 C 719.54 37.25 719.5 45 719.5 45 L 718 45 C 718 45 718 37.44 718 37.4 C 718 35.9 717.1 34.9 715.5 34.9 C 713.6 34.9 711.9 36.3 711.9 39.1 C 711.91 39.06 711.9 45 711.9 45 L 710.4 45 L 710.4 29 L 711.9 29 C 711.9 29 711.91 35.68 711.9 35.7 C 712.6 34.4 713.8 33.5 715.8 33.5 C 718.1 33.5 719.5 34.8 719.5 37.3 Z M 723.6 39.7 C 723.6 42.5 725.3 43.8 727.3 43.8 C 728.8 43.8 730.3 43.1 730.6 41.5 C 730.6 41.5 732.1 41.5 732.1 41.5 C 731.6 44.1 729.4 45.2 727.2 45.2 C 724.6 45.2 722.1 43.4 722.1 39.4 C 722.1 35.3 724.6 33.5 727.3 33.5 C 730 33.5 732.2 35.2 732.2 39 C 732.16 38.95 732.2 39.7 732.2 39.7 C 732.2 39.7 723.57 39.71 723.6 39.7 Z M 723.6 38.4 C 723.6 38.4 730.6 38.4 730.6 38.4 C 730.6 36.1 729.1 34.9 727.2 34.9 C 725.5 34.9 723.8 36 723.6 38.4 Z M 740 33.7 L 741.5 33.7 C 741.5 33.7 741.54 35.57 741.5 35.6 C 742.2 34.2 743.4 33.5 744.8 33.5 C 746.5 33.5 747.8 34.4 748.2 35.8 C 748.7 34.6 749.9 33.5 751.9 33.5 C 753.9 33.5 755.5 34.6 755.5 36.9 C 755.51 36.9 755.5 45 755.5 45 L 754 45 C 754 45 753.98 37.44 754 37.4 C 754 35.7 752.9 34.9 751.6 34.9 C 749.9 34.9 748.5 36.2 748.5 38.5 C 748.52 38.53 748.5 45 748.5 45 L 747 45 C 747 45 747 37.44 747 37.4 C 747 35.7 746 34.9 744.6 34.9 C 743 34.9 741.6 36.1 741.6 38.5 C 741.56 38.53 741.6 45 741.6 45 L 740 45 L 740 33.7 Z M 765.7 42.9 C 764.8 44.6 763.1 45.2 761.7 45.2 C 759.8 45.2 758 44.1 758 41.9 C 758 39.8 759.5 38.8 761.5 38.6 C 761.5 38.6 764.1 38.2 764.1 38.2 C 765 38.1 765.7 37.8 765.7 36.8 C 765.7 35.5 764.5 34.8 763 34.8 C 761.3 34.8 760.2 35.6 760 36.9 C 760 36.9 758.5 36.9 758.5 36.9 C 758.8 34.6 760.6 33.5 763.1 33.5 C 765.6 33.5 767.2 34.7 767.2 37.2 C 767.18 37.19 767.2 45 767.2 45 L 765.7 45 C 765.7 45 765.69 42.92 765.7 42.9 Z M 763.8 39.5 C 763.8 39.5 762.1 39.7 762.1 39.7 C 760.7 39.9 759.6 40.4 759.6 41.8 C 759.6 43.2 760.7 43.8 761.9 43.8 C 763.7 43.8 765.7 42.5 765.7 40.1 C 765.7 40.1 765.7 39 765.7 39 C 765.2 39.3 764.6 39.4 763.8 39.5 Z M 776 35 C 776 35 775.61 35.03 775.6 35 C 773.2 35 771.9 36.4 771.9 39 C 771.87 39 771.9 45 771.9 45 L 770.3 45 L 770.3 33.7 L 771.8 33.7 C 771.8 33.7 771.85 35.78 771.8 35.8 C 772.4 34.3 773.7 33.6 775.5 33.6 C 775.48 33.58 776 33.6 776 33.6 L 776 35 Z M 781.5 39.5 L 779.5 41.6 L 779.5 45 L 778 45 L 778 29 L 779.5 29 L 779.5 39.7 L 785 33.7 L 787 33.7 L 782.6 38.4 L 787.3 45 L 785.5 45 L 781.5 39.5 Z M 789.7 39.7 C 789.7 42.5 791.5 43.8 793.5 43.8 C 794.9 43.8 796.4 43.1 796.8 41.5 C 796.8 41.5 798.2 41.5 798.2 41.5 C 797.7 44.1 795.5 45.2 793.4 45.2 C 790.7 45.2 788.2 43.4 788.2 39.4 C 788.2 35.3 790.7 33.5 793.4 33.5 C 796.1 33.5 798.3 35.2 798.3 39 C 798.29 38.95 798.3 39.7 798.3 39.7 C 798.3 39.7 789.7 39.71 789.7 39.7 Z M 789.7 38.4 C 789.7 38.4 796.7 38.4 796.7 38.4 C 796.7 36.1 795.3 34.9 793.4 34.9 C 791.6 34.9 789.9 36 789.7 38.4 Z M 806.1 45 C 806.1 45 804.4 44.98 804.4 45 C 802.9 45 801.6 44.5 801.6 42 C 801.56 42.02 801.6 35.1 801.6 35.1 L 799.3 35.1 L 799.3 33.7 L 801.6 33.7 L 801.6 30.5 L 803.1 30.1 L 803.1 33.7 L 805.8 33.7 L 805.8 35.1 L 803.1 35.1 C 803.1 35.1 803.09 42 803.1 42 C 803.1 43 803.4 43.6 804.6 43.6 C 804.65 43.6 806.1 43.6 806.1 43.6 L 806.1 45 Z M 807.5 42.8 L 809.7 42.8 L 809.7 45 L 807.5 45 L 807.5 42.8 Z " stroke="none" fill="#fff"/>  </g>  <g id="Polygon12690">    <path d="M 15.9 19.8 L 14.2 19.8 L 10.3 6.5 L 6.4 19.8 L 4.7 19.8 L 0.6 4 L 2.3 4 L 5.6 17.5 L 9.5 4 L 11.2 4 L 15.1 17.5 L 18.4 4 L 19.9 4 L 15.9 19.8 Z M 22 14.5 C 22 17.3 23.8 18.6 25.7 18.6 C 27.2 18.6 28.7 17.9 29 16.3 C 29 16.3 30.5 16.3 30.5 16.3 C 30 18.9 27.8 20 25.7 20 C 23 20 20.5 18.2 20.5 14.2 C 20.5 10.1 23 8.3 25.7 8.3 C 28.4 8.3 30.6 10 30.6 13.8 C 30.58 13.75 30.6 14.5 30.6 14.5 C 30.6 14.5 21.99 14.51 22 14.5 Z M 22 13.2 C 22 13.2 29 13.2 29 13.2 C 29 10.9 27.6 9.7 25.7 9.7 C 23.9 9.7 22.2 10.8 22 13.2 Z M 47.6 12.1 C 47.61 12.05 47.6 19.8 47.6 19.8 L 46.1 19.8 C 46.1 19.8 46.07 12.24 46.1 12.2 C 46.1 10.7 45.2 9.7 43.6 9.7 C 41.7 9.7 40 11.1 40 13.9 C 39.98 13.86 40 19.8 40 19.8 L 38.5 19.8 L 38.5 3.8 L 40 3.8 C 40 3.8 39.98 10.48 40 10.5 C 40.6 9.2 41.9 8.3 43.8 8.3 C 46.2 8.3 47.6 9.6 47.6 12.1 Z M 57.8 17.7 C 56.9 19.4 55.2 20 53.8 20 C 51.8 20 50.1 18.9 50.1 16.7 C 50.1 14.6 51.6 13.6 53.5 13.4 C 53.5 13.4 56.2 13 56.2 13 C 57.1 12.9 57.8 12.6 57.8 11.6 C 57.8 10.3 56.6 9.6 55.1 9.6 C 53.4 9.6 52.3 10.4 52.1 11.7 C 52.1 11.7 50.6 11.7 50.6 11.7 C 50.9 9.4 52.7 8.3 55.2 8.3 C 57.7 8.3 59.3 9.5 59.3 12 C 59.28 11.99 59.3 19.8 59.3 19.8 L 57.8 19.8 C 57.8 19.8 57.79 17.72 57.8 17.7 Z M 55.9 14.3 C 55.9 14.3 54.2 14.5 54.2 14.5 C 52.8 14.7 51.7 15.2 51.7 16.6 C 51.7 18 52.8 18.6 54 18.6 C 55.8 18.6 57.7 17.3 57.7 14.9 C 57.7 14.9 57.7 13.8 57.7 13.8 C 57.3 14.1 56.7 14.2 55.9 14.3 Z M 66.9 19.8 L 65.2 19.8 L 61.1 8.5 L 62.7 8.5 L 66.1 18.2 L 69.5 8.5 L 71.1 8.5 L 66.9 19.8 Z M 73.7 14.5 C 73.7 17.3 75.4 18.6 77.4 18.6 C 78.9 18.6 80.4 17.9 80.7 16.3 C 80.7 16.3 82.2 16.3 82.2 16.3 C 81.7 18.9 79.5 20 77.3 20 C 74.7 20 72.2 18.2 72.2 14.2 C 72.2 10.1 74.7 8.3 77.4 8.3 C 80.1 8.3 82.3 10 82.3 13.8 C 82.26 13.75 82.3 14.5 82.3 14.5 C 82.3 14.5 73.67 14.51 73.7 14.5 Z M 73.7 13.2 C 73.7 13.2 80.7 13.2 80.7 13.2 C 80.7 10.9 79.2 9.7 77.3 9.7 C 75.6 9.7 73.9 10.8 73.7 13.2 Z M 93.5 5.1 C 92.3 5.1 92 5.7 92 6.8 C 91.96 6.76 92 8.5 92 8.5 L 94.5 8.5 L 94.5 9.9 L 92 9.9 L 92 19.8 L 90.4 19.8 L 90.4 9.9 L 88.6 9.9 L 88.6 8.5 L 90.4 8.5 C 90.4 8.5 90.43 6.72 90.4 6.7 C 90.4 4.2 91.8 3.8 93.3 3.8 C 93.26 3.78 94.8 3.8 94.8 3.8 L 94.8 5.1 C 94.8 5.1 93.51 5.14 93.5 5.1 Z M 95.8 14.2 C 95.8 10.5 98 8.3 101.1 8.3 C 104.2 8.3 106.5 10.5 106.5 14.2 C 106.5 17.8 104.3 20 101.2 20 C 98 20 95.8 17.8 95.8 14.2 Z M 104.9 14.1 C 104.9 11.3 103.2 9.7 101.1 9.7 C 98.9 9.7 97.4 11.4 97.4 14.2 C 97.4 17 99.1 18.6 101.2 18.6 C 103.4 18.6 104.9 16.9 104.9 14.1 Z M 116.5 19.8 C 116.5 19.8 116.53 17.64 116.5 17.6 C 115.8 19.2 114.4 19.9 112.8 19.9 C 110.6 19.9 109 18.6 109 16 C 109.01 15.96 109 8.5 109 8.5 L 110.5 8.5 C 110.5 8.5 110.54 15.77 110.5 15.8 C 110.5 17.6 111.6 18.6 113 18.6 C 114.8 18.6 116.5 17.2 116.5 14.3 C 116.47 14.34 116.5 8.5 116.5 8.5 L 118 8.5 L 118 19.8 L 116.5 19.8 Z M 130.5 12.1 C 130.51 12.05 130.5 19.8 130.5 19.8 L 129 19.8 C 129 19.8 128.98 12.24 129 12.2 C 129 10.7 128.1 9.7 126.5 9.7 C 124.6 9.7 122.9 11.1 122.9 13.9 C 122.89 13.86 122.9 19.8 122.9 19.8 L 121.4 19.8 L 121.4 8.5 L 122.9 8.5 C 122.9 8.5 122.89 10.6 122.9 10.6 C 123.6 9.3 124.8 8.3 126.8 8.3 C 129 8.3 130.5 9.6 130.5 12.1 Z M 143.6 19.8 L 142.1 19.8 C 142.1 19.8 142.11 17.6 142.1 17.6 C 141.6 18.9 140.2 20 138.1 20 C 135.1 20 133 17.7 133 14.1 C 133 10.6 135.1 8.3 138.1 8.3 C 140 8.3 141.4 9.2 142 10.4 C 142.04 10.42 142 3.8 142 3.8 L 143.6 3.8 L 143.6 19.8 Z M 142 14.1 C 142 11.3 140.5 9.7 138.3 9.7 C 136.1 9.7 134.6 11.4 134.6 14.1 C 134.6 16.9 136.1 18.6 138.3 18.6 C 140.5 18.6 142 16.9 142 14.1 Z M 157.5 19.8 C 157.5 19.8 155.88 19.78 155.9 19.8 C 154.4 19.8 153 19.3 153 16.8 C 153.05 16.82 153 9.9 153 9.9 L 150.8 9.9 L 150.8 8.5 L 153 8.5 L 153 5.3 L 154.6 4.9 L 154.6 8.5 L 157.3 8.5 L 157.3 9.9 L 154.6 9.9 C 154.6 9.9 154.58 16.8 154.6 16.8 C 154.6 17.8 154.9 18.4 156.1 18.4 C 156.13 18.4 157.5 18.4 157.5 18.4 L 157.5 19.8 Z M 168.9 12.1 C 168.9 12.05 168.9 19.8 168.9 19.8 L 167.4 19.8 C 167.4 19.8 167.37 12.24 167.4 12.2 C 167.4 10.7 166.5 9.7 164.9 9.7 C 163 9.7 161.3 11.1 161.3 13.9 C 161.28 13.86 161.3 19.8 161.3 19.8 L 159.7 19.8 L 159.7 3.8 L 161.3 3.8 C 161.3 3.8 161.28 10.48 161.3 10.5 C 161.9 9.2 163.1 8.3 165.1 8.3 C 167.5 8.3 168.9 9.6 168.9 12.1 Z M 179.1 17.7 C 178.2 19.4 176.5 20 175.1 20 C 173.1 20 171.4 18.9 171.4 16.7 C 171.4 14.6 172.9 13.6 174.8 13.4 C 174.8 13.4 177.5 13 177.5 13 C 178.4 12.9 179.1 12.6 179.1 11.6 C 179.1 10.3 177.9 9.6 176.4 9.6 C 174.7 9.6 173.6 10.4 173.4 11.7 C 173.4 11.7 171.9 11.7 171.9 11.7 C 172.2 9.4 174 8.3 176.5 8.3 C 179 8.3 180.6 9.5 180.6 12 C 180.58 11.99 180.6 19.8 180.6 19.8 L 179.1 19.8 C 179.1 19.8 179.09 17.72 179.1 17.7 Z M 177.2 14.3 C 177.2 14.3 175.5 14.5 175.5 14.5 C 174.1 14.7 173 15.2 173 16.6 C 173 18 174.1 18.6 175.3 18.6 C 177.1 18.6 179 17.3 179 14.9 C 179 14.9 179 13.8 179 13.8 C 178.6 14.1 178 14.2 177.2 14.3 Z M 188.9 19.8 C 188.9 19.8 187.21 19.78 187.2 19.8 C 185.7 19.8 184.4 19.3 184.4 16.8 C 184.38 16.82 184.4 9.9 184.4 9.9 L 182.2 9.9 L 182.2 8.5 L 184.4 8.5 L 184.4 5.3 L 185.9 4.9 L 185.9 8.5 L 188.6 8.5 L 188.6 9.9 L 185.9 9.9 C 185.9 9.9 185.91 16.8 185.9 16.8 C 185.9 17.8 186.2 18.4 187.5 18.4 C 187.47 18.4 188.9 18.4 188.9 18.4 L 188.9 19.8 Z M 207.1 14.1 C 207.1 17.6 205 20 202 20 C 199.9 20 198.6 18.9 198 17.7 C 198.01 17.7 198 19.8 198 19.8 L 196.5 19.8 L 196.5 3.8 L 198.1 3.8 C 198.1 3.8 198.07 10.77 198.1 10.8 C 198.6 9.4 200.1 8.3 202.1 8.3 C 205 8.3 207.1 10.5 207.1 14.1 Z M 205.5 14.2 C 205.5 11.4 204 9.8 201.8 9.8 C 199.6 9.8 198.1 11.4 198.1 14.2 C 198.1 17 199.6 18.7 201.8 18.7 C 204 18.7 205.5 16.9 205.5 14.2 Z M 212.8 21.9 C 212.4 23.1 211.4 23.5 210.2 23.5 C 210.19 23.48 209 23.5 209 23.5 L 209 22.1 C 209 22.1 209.98 22.11 210 22.1 C 210.9 22.1 211.4 21.8 211.8 20.8 C 211.78 20.79 212.3 19.3 212.3 19.3 L 208.1 8.5 L 209.7 8.5 L 213 17.4 L 216.4 8.5 L 217.9 8.5 C 217.9 8.5 212.79 21.92 212.8 21.9 Z M 234.3 12.1 C 234.3 12.05 234.3 19.8 234.3 19.8 L 232.8 19.8 C 232.8 19.8 232.76 12.24 232.8 12.2 C 232.8 10.7 231.9 9.7 230.3 9.7 C 228.4 9.7 226.7 11.1 226.7 13.9 C 226.67 13.86 226.7 19.8 226.7 19.8 L 225.1 19.8 L 225.1 3.8 L 226.7 3.8 C 226.7 3.8 226.67 10.48 226.7 10.5 C 227.3 9.2 228.5 8.3 230.5 8.3 C 232.8 8.3 234.3 9.6 234.3 12.1 Z M 244.5 17.7 C 243.6 19.4 241.9 20 240.5 20 C 238.5 20 236.8 18.9 236.8 16.7 C 236.8 14.6 238.3 13.6 240.2 13.4 C 240.2 13.4 242.9 13 242.9 13 C 243.7 12.9 244.5 12.6 244.5 11.6 C 244.5 10.3 243.3 9.6 241.7 9.6 C 240 9.6 239 10.4 238.8 11.7 C 238.8 11.7 237.3 11.7 237.3 11.7 C 237.6 9.4 239.4 8.3 241.9 8.3 C 244.4 8.3 246 9.5 246 12 C 245.97 11.99 246 19.8 246 19.8 L 244.5 19.8 C 244.5 19.8 244.48 17.72 244.5 17.7 Z M 242.6 14.3 C 242.6 14.3 240.9 14.5 240.9 14.5 C 239.5 14.7 238.4 15.2 238.4 16.6 C 238.4 18 239.5 18.6 240.7 18.6 C 242.5 18.6 244.4 17.3 244.4 14.9 C 244.4 14.9 244.4 13.8 244.4 13.8 C 244 14.1 243.4 14.2 242.6 14.3 Z M 253.6 19.8 L 251.9 19.8 L 247.8 8.5 L 249.4 8.5 L 252.8 18.2 L 256.2 8.5 L 257.8 8.5 L 253.6 19.8 Z M 261.4 3.8 L 259.7 3.8 L 259.7 5.7 L 261.4 5.7 L 261.4 3.8 Z M 261.3 19.8 L 259.8 19.8 L 259.8 8.5 L 261.3 8.5 L 261.3 19.8 Z M 273.8 12.1 C 273.84 12.05 273.8 19.8 273.8 19.8 L 272.3 19.8 C 272.3 19.8 272.3 12.24 272.3 12.2 C 272.3 10.7 271.4 9.7 269.8 9.7 C 267.9 9.7 266.2 11.1 266.2 13.9 C 266.21 13.86 266.2 19.8 266.2 19.8 L 264.7 19.8 L 264.7 8.5 L 266.2 8.5 C 266.2 8.5 266.21 10.6 266.2 10.6 C 266.9 9.3 268.1 8.3 270.1 8.3 C 272.4 8.3 273.8 9.6 273.8 12.1 Z M 286.8 19.3 C 286.8 22.7 284.6 24.4 281.7 24.4 C 279.2 24.4 277 23.1 276.6 20.5 C 276.6 20.5 278.2 20.5 278.2 20.5 C 278.4 21.9 279.4 23.1 281.7 23.1 C 283.8 23.1 285.3 22 285.3 19.4 C 285.3 19.4 285.3 17.1 285.3 17.1 C 284.5 18.8 282.8 19.4 281.3 19.4 C 278.6 19.4 276.4 17.5 276.4 13.8 C 276.4 10.1 278.7 8.3 281.4 8.3 C 283.2 8.3 284.6 9.1 285.3 10.3 C 285.28 10.33 285.3 8.5 285.3 8.5 L 286.8 8.5 C 286.8 8.5 286.79 19.28 286.8 19.3 Z M 285.2 13.8 C 285.2 11 283.5 9.6 281.6 9.6 C 279.7 9.6 277.9 11 277.9 13.8 C 277.9 16.6 279.6 18 281.6 18 C 283.4 18 285.2 16.8 285.2 13.8 Z M 302.6 17.7 C 301.8 19.4 300.1 20 298.6 20 C 296.7 20 295 18.9 295 16.7 C 295 14.6 296.5 13.6 298.4 13.4 C 298.4 13.4 301.1 13 301.1 13 C 301.9 12.9 302.6 12.6 302.6 11.6 C 302.6 10.3 301.5 9.6 299.9 9.6 C 298.2 9.6 297.2 10.4 297 11.7 C 297 11.7 295.4 11.7 295.4 11.7 C 295.7 9.4 297.5 8.3 300 8.3 C 302.6 8.3 304.1 9.5 304.1 12 C 304.14 11.99 304.1 19.8 304.1 19.8 L 302.6 19.8 C 302.6 19.8 302.65 17.72 302.6 17.7 Z M 300.8 14.3 C 300.8 14.3 299.1 14.5 299.1 14.5 C 297.6 14.7 296.6 15.2 296.6 16.6 C 296.6 18 297.7 18.6 298.9 18.6 C 300.7 18.6 302.6 17.3 302.6 14.9 C 302.6 14.9 302.6 13.8 302.6 13.8 C 302.2 14.1 301.5 14.2 300.8 14.3 Z M 323.1 14.1 C 323.1 17.6 321 20 318 20 C 315.9 20 314.6 18.9 314 17.7 C 314.01 17.7 314 19.8 314 19.8 L 312.5 19.8 L 312.5 3.8 L 314.1 3.8 C 314.1 3.8 314.07 10.77 314.1 10.8 C 314.6 9.4 316.1 8.3 318.1 8.3 C 321 8.3 323.1 10.5 323.1 14.1 Z M 321.5 14.2 C 321.5 11.4 320 9.8 317.8 9.8 C 315.6 9.8 314.1 11.4 314.1 14.2 C 314.1 17 315.6 18.7 317.8 18.7 C 320 18.7 321.5 16.9 321.5 14.2 Z M 327.3 3.8 L 325.6 3.8 L 325.6 5.7 L 327.3 5.7 L 327.3 3.8 Z M 327.2 19.8 L 325.7 19.8 L 325.7 8.5 L 327.2 8.5 L 327.2 19.8 Z M 337.5 17.7 C 336.6 19.4 334.9 20 333.5 20 C 331.6 20 329.8 18.9 329.8 16.7 C 329.8 14.6 331.3 13.6 333.3 13.4 C 333.3 13.4 335.9 13 335.9 13 C 336.8 12.9 337.5 12.6 337.5 11.6 C 337.5 10.3 336.4 9.6 334.8 9.6 C 333.1 9.6 332 10.4 331.8 11.7 C 331.8 11.7 330.3 11.7 330.3 11.7 C 330.6 9.4 332.4 8.3 334.9 8.3 C 337.4 8.3 339 9.5 339 12 C 339 11.99 339 19.8 339 19.8 L 337.5 19.8 C 337.5 19.8 337.51 17.72 337.5 17.7 Z M 335.6 14.3 C 335.6 14.3 333.9 14.5 333.9 14.5 C 332.5 14.7 331.4 15.2 331.4 16.6 C 331.4 18 332.5 18.6 333.7 18.6 C 335.5 18.6 337.5 17.3 337.5 14.9 C 337.5 14.9 337.5 13.8 337.5 13.8 C 337 14.1 336.4 14.2 335.6 14.3 Z M 350.5 16.6 C 350.5 18.9 348.4 20 346.2 20 C 343.8 20 341.5 18.8 341.3 16.3 C 341.3 16.3 342.9 16.3 342.9 16.3 C 343.2 18 344.7 18.6 346.2 18.6 C 347.7 18.6 348.9 18.1 348.9 16.8 C 348.9 15.5 347.6 15.2 346.3 15 C 344.1 14.6 341.6 14.2 341.6 11.6 C 341.6 9.4 343.5 8.3 345.8 8.3 C 348.2 8.3 350.1 9.4 350.2 11.7 C 350.2 11.7 348.6 11.7 348.6 11.7 C 348.5 10.3 347.2 9.7 345.8 9.7 C 344.2 9.7 343.2 10.4 343.2 11.5 C 343.2 13 344.5 13.2 346.2 13.5 C 348.3 13.8 350.5 14.1 350.5 16.6 Z M 363.2 19.8 C 363.2 19.8 361.57 19.78 361.6 19.8 C 360.1 19.8 358.7 19.3 358.7 16.8 C 358.74 16.82 358.7 9.9 358.7 9.9 L 356.5 9.9 L 356.5 8.5 L 358.7 8.5 L 358.7 5.3 L 360.3 4.9 L 360.3 8.5 L 363 8.5 L 363 9.9 L 360.3 9.9 C 360.3 9.9 360.27 16.8 360.3 16.8 C 360.3 17.8 360.6 18.4 361.8 18.4 C 361.83 18.4 363.2 18.4 363.2 18.4 L 363.2 19.8 Z M 364.7 14.2 C 364.7 10.5 366.9 8.3 370 8.3 C 373.1 8.3 375.4 10.5 375.4 14.2 C 375.4 17.8 373.2 20 370.1 20 C 366.9 20 364.7 17.8 364.7 14.2 Z M 373.8 14.1 C 373.8 11.3 372.1 9.7 370 9.7 C 367.8 9.7 366.3 11.4 366.3 14.2 C 366.3 17 368 18.6 370.1 18.6 C 372.3 18.6 373.8 16.9 373.8 14.1 Z M 389.1 19.8 L 387.6 19.8 L 384.7 10.8 L 381.7 19.8 L 380.2 19.8 L 376.5 8.5 L 378.1 8.5 L 381 17.8 L 383.9 8.5 L 385.4 8.5 L 388.4 17.8 L 391.2 8.5 L 392.8 8.5 L 389.1 19.8 Z M 401.6 17.7 C 400.7 19.4 399 20 397.6 20 C 395.6 20 393.9 18.9 393.9 16.7 C 393.9 14.6 395.4 13.6 397.3 13.4 C 397.3 13.4 400 13 400 13 C 400.8 12.9 401.6 12.6 401.6 11.6 C 401.6 10.3 400.4 9.6 398.8 9.6 C 397.1 9.6 396.1 10.4 395.9 11.7 C 395.9 11.7 394.4 11.7 394.4 11.7 C 394.7 9.4 396.5 8.3 399 8.3 C 401.5 8.3 403.1 9.5 403.1 12 C 403.07 11.99 403.1 19.8 403.1 19.8 L 401.6 19.8 C 401.6 19.8 401.58 17.72 401.6 17.7 Z M 399.7 14.3 C 399.7 14.3 398 14.5 398 14.5 C 396.6 14.7 395.5 15.2 395.5 16.6 C 395.5 18 396.6 18.6 397.8 18.6 C 399.6 18.6 401.5 17.3 401.5 14.9 C 401.5 14.9 401.5 13.8 401.5 13.8 C 401.1 14.1 400.5 14.2 399.7 14.3 Z M 411.8 9.8 C 411.8 9.8 411.49 9.83 411.5 9.8 C 409.1 9.8 407.8 11.2 407.8 13.8 C 407.75 13.8 407.8 19.8 407.8 19.8 L 406.2 19.8 L 406.2 8.5 L 407.7 8.5 C 407.7 8.5 407.73 10.58 407.7 10.6 C 408.3 9.1 409.6 8.4 411.4 8.4 C 411.36 8.38 411.8 8.4 411.8 8.4 L 411.8 9.8 Z M 423.4 19.8 L 422 19.8 C 422 19.8 421.97 17.6 422 17.6 C 421.4 18.9 420.1 20 418 20 C 415 20 412.9 17.7 412.9 14.1 C 412.9 10.6 415 8.3 418 8.3 C 419.9 8.3 421.3 9.2 421.9 10.4 C 421.91 10.42 421.9 3.8 421.9 3.8 L 423.4 3.8 L 423.4 19.8 Z M 421.9 14.1 C 421.9 11.3 420.3 9.7 418.2 9.7 C 416 9.7 414.5 11.4 414.5 14.1 C 414.5 16.9 416 18.6 418.2 18.6 C 420.4 18.6 421.9 16.9 421.9 14.1 Z M 435.2 16.6 C 435.2 18.9 433.1 20 430.8 20 C 428.4 20 426.2 18.8 426 16.3 C 426 16.3 427.6 16.3 427.6 16.3 C 427.8 18 429.3 18.6 430.9 18.6 C 432.3 18.6 433.6 18.1 433.6 16.8 C 433.6 15.5 432.3 15.2 431 15 C 428.8 14.6 426.2 14.2 426.2 11.6 C 426.2 9.4 428.2 8.3 430.5 8.3 C 432.9 8.3 434.8 9.4 434.9 11.7 C 434.9 11.7 433.3 11.7 433.3 11.7 C 433.2 10.3 431.9 9.7 430.4 9.7 C 428.9 9.7 427.8 10.4 427.8 11.5 C 427.8 13 429.2 13.2 430.9 13.5 C 432.9 13.8 435.2 14.1 435.2 16.6 Z M 447.9 19.8 C 447.9 19.8 446.22 19.78 446.2 19.8 C 444.7 19.8 443.4 19.3 443.4 16.8 C 443.39 16.82 443.4 9.9 443.4 9.9 L 441.2 9.9 L 441.2 8.5 L 443.4 8.5 L 443.4 5.3 L 444.9 4.9 L 444.9 8.5 L 447.7 8.5 L 447.7 9.9 L 444.9 9.9 C 444.9 9.9 444.92 16.8 444.9 16.8 C 444.9 17.8 445.2 18.4 446.5 18.4 C 446.48 18.4 447.9 18.4 447.9 18.4 L 447.9 19.8 Z M 459.2 12.1 C 459.24 12.05 459.2 19.8 459.2 19.8 L 457.7 19.8 C 457.7 19.8 457.71 12.24 457.7 12.2 C 457.7 10.7 456.8 9.7 455.2 9.7 C 453.3 9.7 451.6 11.1 451.6 13.9 C 451.62 13.86 451.6 19.8 451.6 19.8 L 450.1 19.8 L 450.1 3.8 L 451.6 3.8 C 451.6 3.8 451.62 10.48 451.6 10.5 C 452.3 9.2 453.5 8.3 455.5 8.3 C 457.8 8.3 459.2 9.6 459.2 12.1 Z M 463.3 14.5 C 463.3 17.3 465 18.6 467 18.6 C 468.5 18.6 470 17.9 470.3 16.3 C 470.3 16.3 471.8 16.3 471.8 16.3 C 471.3 18.9 469.1 20 467 20 C 464.3 20 461.8 18.2 461.8 14.2 C 461.8 10.1 464.3 8.3 467 8.3 C 469.7 8.3 471.9 10 471.9 13.8 C 471.87 13.75 471.9 14.5 471.9 14.5 C 471.9 14.5 463.28 14.51 463.3 14.5 Z M 463.3 13.2 C 463.3 13.2 470.3 13.2 470.3 13.2 C 470.3 10.9 468.8 9.7 467 9.7 C 465.2 9.7 463.5 10.8 463.3 13.2 Z M 490.3 14.1 C 490.3 17.6 488.2 20 485.2 20 C 483.1 20 481.8 18.9 481.2 17.7 C 481.21 17.7 481.2 19.8 481.2 19.8 L 479.7 19.8 L 479.7 3.8 L 481.3 3.8 C 481.3 3.8 481.27 10.77 481.3 10.8 C 481.8 9.4 483.3 8.3 485.3 8.3 C 488.2 8.3 490.3 10.5 490.3 14.1 Z M 488.7 14.2 C 488.7 11.4 487.2 9.8 485 9.8 C 482.8 9.8 481.3 11.4 481.3 14.2 C 481.3 17 482.8 18.7 485 18.7 C 487.2 18.7 488.7 16.9 488.7 14.2 Z M 492.2 14.2 C 492.2 10.5 494.4 8.3 497.5 8.3 C 500.6 8.3 502.8 10.5 502.8 14.2 C 502.8 17.8 500.6 20 497.5 20 C 494.4 20 492.2 17.8 492.2 14.2 Z M 501.3 14.1 C 501.3 11.3 499.6 9.7 497.5 9.7 C 495.3 9.7 493.7 11.4 493.7 14.2 C 493.7 17 495.4 18.6 497.5 18.6 C 499.7 18.6 501.3 16.9 501.3 14.1 Z M 518 19.8 C 518 19.8 516.28 19.78 516.3 19.8 C 514.8 19.8 513.4 19.3 513.4 16.8 C 513.45 16.82 513.4 9.9 513.4 9.9 L 507.6 9.9 C 507.6 9.9 507.65 16.8 507.6 16.8 C 507.6 17.8 507.9 18.4 509.2 18.4 C 509.2 18.4 510.6 18.4 510.6 18.4 L 510.6 19.8 C 510.6 19.8 508.95 19.78 509 19.8 C 507.5 19.8 506.1 19.3 506.1 16.8 C 506.12 16.82 506.1 9.9 506.1 9.9 L 503.9 9.9 L 503.9 8.5 L 506.1 8.5 L 506.1 5.3 L 507.6 4.9 L 507.6 8.5 L 513.4 8.5 L 513.4 5.3 L 515 4.9 L 515 8.5 L 517.7 8.5 L 517.7 9.9 L 515 9.9 C 515 9.9 514.98 16.8 515 16.8 C 515 17.8 515.3 18.4 516.5 18.4 C 516.53 18.4 518 18.4 518 18.4 L 518 19.8 Z M 519.4 14.2 C 519.4 10.5 521.7 8.3 524.8 8.3 C 527.9 8.3 530.1 10.5 530.1 14.2 C 530.1 17.8 527.9 20 524.8 20 C 521.7 20 519.4 17.8 519.4 14.2 Z M 528.5 14.1 C 528.5 11.3 526.8 9.7 524.7 9.7 C 522.5 9.7 521 11.4 521 14.2 C 521 17 522.7 18.6 524.8 18.6 C 527 18.6 528.5 16.9 528.5 14.1 Z M 532.7 8.5 L 534.3 8.5 C 534.3 8.5 534.26 10.37 534.3 10.4 C 534.9 9 536.1 8.3 537.5 8.3 C 539.2 8.3 540.5 9.2 540.9 10.6 C 541.4 9.4 542.6 8.3 544.6 8.3 C 546.6 8.3 548.2 9.4 548.2 11.7 C 548.22 11.7 548.2 19.8 548.2 19.8 L 546.7 19.8 C 546.7 19.8 546.69 12.24 546.7 12.2 C 546.7 10.5 545.6 9.7 544.3 9.7 C 542.6 9.7 541.2 11 541.2 13.3 C 541.23 13.33 541.2 19.8 541.2 19.8 L 539.7 19.8 C 539.7 19.8 539.72 12.24 539.7 12.2 C 539.7 10.5 538.7 9.7 537.3 9.7 C 535.7 9.7 534.3 10.9 534.3 13.3 C 534.28 13.33 534.3 19.8 534.3 19.8 L 532.7 19.8 L 532.7 8.5 Z M 550.8 13.7 L 550.8 12.3 L 557.3 12.3 L 557.3 13.7 L 550.8 13.7 Z M 567.5 19.8 C 567.5 19.8 567.46 17.64 567.5 17.6 C 566.7 19.2 565.3 19.9 563.7 19.9 C 561.6 19.9 559.9 18.6 559.9 16 C 559.94 15.96 559.9 8.5 559.9 8.5 L 561.5 8.5 C 561.5 8.5 561.47 15.77 561.5 15.8 C 561.5 17.6 562.5 18.6 564 18.6 C 565.8 18.6 567.4 17.2 567.4 14.3 C 567.39 14.34 567.4 8.5 567.4 8.5 L 568.9 8.5 L 568.9 19.8 L 567.5 19.8 Z M 582.8 14.1 C 582.8 18.2 580.2 19.9 577.6 19.9 C 575.7 19.9 574.4 19 573.8 17.8 C 573.82 17.83 573.8 24.1 573.8 24.1 L 572.3 24.1 L 572.3 8.5 L 573.8 8.5 C 573.8 8.5 573.78 10.88 573.8 10.9 C 574.3 9.5 575.8 8.3 577.8 8.3 C 580.2 8.3 582.8 10 582.8 14.1 Z M 581.2 14.1 C 581.2 11 579.4 9.8 577.6 9.8 C 575.7 9.8 573.8 11 573.8 14.2 C 573.8 17.3 575.7 18.5 577.5 18.5 C 579.4 18.5 581.2 17.3 581.2 14.1 Z M 586.5 19.7 C 586.52 19.66 585.5 19.7 585.5 19.7 L 585.5 17.6 L 587.7 17.6 C 587.7 17.6 587.74 19.72 587.7 19.7 C 587.7 22.2 586.3 23.1 584.7 23.2 C 584.7 23.2 584.5 22.3 584.5 22.3 C 586.2 22 586.5 21 586.5 19.7 Z M 601 9.8 C 601 9.8 600.68 9.83 600.7 9.8 C 598.3 9.8 596.9 11.2 596.9 13.8 C 596.94 13.8 596.9 19.8 596.9 19.8 L 595.4 19.8 L 595.4 8.5 L 596.9 8.5 C 596.9 8.5 596.92 10.58 596.9 10.6 C 597.4 9.1 598.8 8.4 600.6 8.4 C 600.55 8.38 601 8.4 601 8.4 L 601 9.8 Z M 603.6 14.5 C 603.6 17.3 605.4 18.6 607.4 18.6 C 608.8 18.6 610.3 17.9 610.7 16.3 C 610.7 16.3 612.1 16.3 612.1 16.3 C 611.6 18.9 609.4 20 607.3 20 C 604.6 20 602.1 18.2 602.1 14.2 C 602.1 10.1 604.6 8.3 607.3 8.3 C 610 8.3 612.2 10 612.2 13.8 C 612.19 13.75 612.2 14.5 612.2 14.5 C 612.2 14.5 603.6 14.51 603.6 14.5 Z M 603.6 13.2 C 603.6 13.2 610.6 13.2 610.6 13.2 C 610.6 10.9 609.2 9.7 607.3 9.7 C 605.5 9.7 603.8 10.8 603.6 13.2 Z M 621.7 17.7 C 620.9 19.4 619.2 20 617.7 20 C 615.8 20 614.1 18.9 614.1 16.7 C 614.1 14.6 615.6 13.6 617.5 13.4 C 617.5 13.4 620.2 13 620.2 13 C 621 12.9 621.7 12.6 621.7 11.6 C 621.7 10.3 620.6 9.6 619 9.6 C 617.3 9.6 616.3 10.4 616.1 11.7 C 616.1 11.7 614.5 11.7 614.5 11.7 C 614.8 9.4 616.6 8.3 619.1 8.3 C 621.7 8.3 623.2 9.5 623.2 12 C 623.23 11.99 623.2 19.8 623.2 19.8 L 621.7 19.8 C 621.7 19.8 621.74 17.72 621.7 17.7 Z M 619.9 14.3 C 619.9 14.3 618.2 14.5 618.2 14.5 C 616.7 14.7 615.7 15.2 615.7 16.6 C 615.7 18 616.7 18.6 618 18.6 C 619.7 18.6 621.7 17.3 621.7 14.9 C 621.7 14.9 621.7 13.8 621.7 13.8 C 621.3 14.1 620.6 14.2 619.9 14.3 Z M 627.9 19.8 L 626.4 19.8 L 626.4 3.8 L 627.9 3.8 L 627.9 19.8 Z M 632.8 19.8 L 631.3 19.8 L 631.3 3.8 L 632.8 3.8 L 632.8 19.8 Z M 639.5 21.9 C 639 23.1 638.1 23.5 636.9 23.5 C 636.88 23.48 635.7 23.5 635.7 23.5 L 635.7 22.1 C 635.7 22.1 636.67 22.11 636.7 22.1 C 637.6 22.1 638.1 21.8 638.5 20.8 C 638.48 20.79 639 19.3 639 19.3 L 634.8 8.5 L 636.4 8.5 L 639.7 17.4 L 643.1 8.5 L 644.6 8.5 C 644.6 8.5 639.49 21.92 639.5 21.9 Z M 655.4 14.3 L 653.4 16.4 L 653.4 19.8 L 651.8 19.8 L 651.8 3.8 L 653.4 3.8 L 653.4 14.5 L 658.9 8.5 L 660.9 8.5 L 656.4 13.2 L 661.2 19.8 L 659.4 19.8 L 655.4 14.3 Z M 672.6 12.1 C 672.58 12.05 672.6 19.8 672.6 19.8 L 671 19.8 C 671 19.8 671.05 12.24 671 12.2 C 671 10.7 670.2 9.7 668.6 9.7 C 666.6 9.7 665 11.1 665 13.9 C 664.96 13.86 665 19.8 665 19.8 L 663.4 19.8 L 663.4 8.5 L 665 8.5 C 665 8.5 664.96 10.6 665 10.6 C 665.6 9.3 666.9 8.3 668.9 8.3 C 671.1 8.3 672.6 9.6 672.6 12.1 Z M 675.1 14.2 C 675.1 10.5 677.3 8.3 680.4 8.3 C 683.5 8.3 685.8 10.5 685.8 14.2 C 685.8 17.8 683.6 20 680.5 20 C 677.3 20 675.1 17.8 675.1 14.2 Z M 684.2 14.1 C 684.2 11.3 682.5 9.7 680.4 9.7 C 678.2 9.7 676.7 11.4 676.7 14.2 C 676.7 17 678.4 18.6 680.5 18.6 C 682.7 18.6 684.2 16.9 684.2 14.1 Z M 699.5 19.8 L 698 19.8 L 695.1 10.8 L 692.1 19.8 L 690.6 19.8 L 686.9 8.5 L 688.5 8.5 L 691.4 17.8 L 694.3 8.5 L 695.8 8.5 L 698.8 17.8 L 701.6 8.5 L 703.2 8.5 L 699.5 19.8 Z M 706.9 3.8 L 705.2 3.8 L 705.2 5.7 L 706.9 5.7 L 706.9 3.8 Z M 706.8 19.8 L 705.3 19.8 L 705.3 8.5 L 706.8 8.5 L 706.8 19.8 Z M 719.3 12.1 C 719.31 12.05 719.3 19.8 719.3 19.8 L 717.8 19.8 C 717.8 19.8 717.77 12.24 717.8 12.2 C 717.8 10.7 716.9 9.7 715.3 9.7 C 713.4 9.7 711.7 11.1 711.7 13.9 C 711.68 13.86 711.7 19.8 711.7 19.8 L 710.1 19.8 L 710.1 8.5 L 711.7 8.5 C 711.7 8.5 711.68 10.6 711.7 10.6 C 712.4 9.3 713.6 8.3 715.6 8.3 C 717.8 8.3 719.3 9.6 719.3 12.1 Z M 732.3 19.3 C 732.3 22.7 730.1 24.4 727.2 24.4 C 724.7 24.4 722.4 23.1 722.1 20.5 C 722.1 20.5 723.6 20.5 723.6 20.5 C 723.9 21.9 724.9 23.1 727.2 23.1 C 729.2 23.1 730.8 22 730.8 19.4 C 730.8 19.4 730.8 17.1 730.8 17.1 C 730 18.8 728.3 19.4 726.8 19.4 C 724.1 19.4 721.8 17.5 721.8 13.8 C 721.8 10.1 724.2 8.3 726.9 8.3 C 728.7 8.3 730.1 9.1 730.8 10.3 C 730.75 10.33 730.8 8.5 730.8 8.5 L 732.3 8.5 C 732.3 8.5 732.26 19.28 732.3 19.3 Z M 730.7 13.8 C 730.7 11 729 9.6 727.1 9.6 C 725.1 9.6 723.3 11 723.3 13.8 C 723.3 16.6 725.1 18 727.1 18 C 728.9 18 730.7 16.8 730.7 13.8 Z M 748.1 17.7 C 747.2 19.4 745.5 20 744.1 20 C 742.2 20 740.5 18.9 740.5 16.7 C 740.5 14.6 741.9 13.6 743.9 13.4 C 743.9 13.4 746.5 13 746.5 13 C 747.4 12.9 748.1 12.6 748.1 11.6 C 748.1 10.3 747 9.6 745.4 9.6 C 743.7 9.6 742.7 10.4 742.4 11.7 C 742.4 11.7 740.9 11.7 740.9 11.7 C 741.2 9.4 743 8.3 745.5 8.3 C 748.1 8.3 749.6 9.5 749.6 12 C 749.61 11.99 749.6 19.8 749.6 19.8 L 748.1 19.8 C 748.1 19.8 748.12 17.72 748.1 17.7 Z M 746.2 14.3 C 746.2 14.3 744.5 14.5 744.5 14.5 C 743.1 14.7 742 15.2 742 16.6 C 742 18 743.1 18.6 744.4 18.6 C 746.1 18.6 748.1 17.3 748.1 14.9 C 748.1 14.9 748.1 13.8 748.1 13.8 C 747.7 14.1 747 14.2 746.2 14.3 Z M 761.9 12.1 C 761.91 12.05 761.9 19.8 761.9 19.8 L 760.4 19.8 C 760.4 19.8 760.38 12.24 760.4 12.2 C 760.4 10.7 759.5 9.7 757.9 9.7 C 756 9.7 754.3 11.1 754.3 13.9 C 754.29 13.86 754.3 19.8 754.3 19.8 L 752.8 19.8 L 752.8 8.5 L 754.3 8.5 C 754.3 8.5 754.29 10.6 754.3 10.6 C 755 9.3 756.2 8.3 758.2 8.3 C 760.4 8.3 761.9 9.6 761.9 12.1 Z M 775 19.8 L 773.5 19.8 C 773.5 19.8 773.51 17.6 773.5 17.6 C 773 18.9 771.6 20 769.5 20 C 766.5 20 764.4 17.7 764.4 14.1 C 764.4 10.6 766.5 8.3 769.5 8.3 C 771.4 8.3 772.8 9.2 773.4 10.4 C 773.44 10.42 773.4 3.8 773.4 3.8 L 775 3.8 L 775 19.8 Z M 773.4 14.1 C 773.4 11.3 771.9 9.7 769.7 9.7 C 767.5 9.7 766 11.4 766 14.1 C 766 16.9 767.5 18.6 769.7 18.6 C 771.9 18.6 773.4 16.9 773.4 14.1 Z M 793.2 12.1 C 793.16 12.05 793.2 19.8 793.2 19.8 L 791.6 19.8 C 791.6 19.8 791.63 12.24 791.6 12.2 C 791.6 10.7 790.7 9.7 789.2 9.7 C 787.2 9.7 785.5 11.1 785.5 13.9 C 785.54 13.86 785.5 19.8 785.5 19.8 L 784 19.8 L 784 3.8 L 785.5 3.8 C 785.5 3.8 785.54 10.48 785.5 10.5 C 786.2 9.2 787.4 8.3 789.4 8.3 C 791.7 8.3 793.2 9.6 793.2 12.1 Z M 803.3 17.7 C 802.5 19.4 800.8 20 799.3 20 C 797.4 20 795.7 18.9 795.7 16.7 C 795.7 14.6 797.2 13.6 799.1 13.4 C 799.1 13.4 801.8 13 801.8 13 C 802.6 12.9 803.3 12.6 803.3 11.6 C 803.3 10.3 802.2 9.6 800.6 9.6 C 798.9 9.6 797.9 10.4 797.7 11.7 C 797.7 11.7 796.1 11.7 796.1 11.7 C 796.4 9.4 798.2 8.3 800.7 8.3 C 803.3 8.3 804.8 9.5 804.8 12 C 804.84 11.99 804.8 19.8 804.8 19.8 L 803.3 19.8 C 803.3 19.8 803.35 17.72 803.3 17.7 Z M 801.5 14.3 C 801.5 14.3 799.8 14.5 799.8 14.5 C 798.3 14.7 797.3 15.2 797.3 16.6 C 797.3 18 798.3 18.6 799.6 18.6 C 801.4 18.6 803.3 17.3 803.3 14.9 C 803.3 14.9 803.3 13.8 803.3 13.8 C 802.9 14.1 802.2 14.2 801.5 14.3 Z M 812.5 19.8 L 810.8 19.8 L 806.6 8.5 L 808.3 8.5 L 811.7 18.2 L 815.1 8.5 L 816.7 8.5 L 812.5 19.8 Z M 820.3 3.8 L 818.5 3.8 L 818.5 5.7 L 820.3 5.7 L 820.3 3.8 Z M 820.2 19.8 L 818.7 19.8 L 818.7 8.5 L 820.2 8.5 L 820.2 19.8 Z M 832.7 12.1 C 832.7 12.05 832.7 19.8 832.7 19.8 L 831.2 19.8 C 831.2 19.8 831.17 12.24 831.2 12.2 C 831.2 10.7 830.3 9.7 828.7 9.7 C 826.8 9.7 825.1 11.1 825.1 13.9 C 825.08 13.86 825.1 19.8 825.1 19.8 L 823.5 19.8 L 823.5 8.5 L 825.1 8.5 C 825.1 8.5 825.08 10.6 825.1 10.6 C 825.8 9.3 827 8.3 829 8.3 C 831.2 8.3 832.7 9.6 832.7 12.1 Z M 845.7 19.3 C 845.7 22.7 843.5 24.4 840.6 24.4 C 838.1 24.4 835.8 23.1 835.5 20.5 C 835.5 20.5 837 20.5 837 20.5 C 837.3 21.9 838.3 23.1 840.6 23.1 C 842.6 23.1 844.2 22 844.2 19.4 C 844.2 19.4 844.2 17.1 844.2 17.1 C 843.4 18.8 841.7 19.4 840.2 19.4 C 837.4 19.4 835.2 17.5 835.2 13.8 C 835.2 10.1 837.6 8.3 840.3 8.3 C 842.1 8.3 843.5 9.1 844.1 10.3 C 844.15 10.33 844.1 8.5 844.1 8.5 L 845.7 8.5 C 845.7 8.5 845.66 19.28 845.7 19.3 Z M 844.1 13.8 C 844.1 11 842.4 9.6 840.5 9.6 C 838.5 9.6 836.7 11 836.7 13.8 C 836.7 16.6 838.5 18 840.5 18 C 842.3 18 844.1 16.8 844.1 13.8 Z " stroke="none" fill="#fff"/>  </g></svg>