<?xml version="1.0" standalone="no"?><!DOCTYPE svg PUBLIC "-//W3C//DTD SVG 1.1//EN" "http://www.w3.org/Graphics/SVG/1.1/DTD/svg11.dtd"><svg xmlns="http://www.w3.org/2000/svg" version="1.1" width="76px" height="160.2px" viewBox="0 0 76 160.2">  <desc>3</desc>  <defs/>  <g id="Polygon10340">    <path d="M 33.8 34.8 C 33.8 29.8 29.2 26.9 23.9 26.9 C 18.7 26.9 12.9 29.7 9.9 35.6 C 9.9 35.6 6.8 33 6.8 33 C 9.8 23.2 18.6 17.3 29.3 17.3 C 38.9 17.3 47.3 22 47.3 30.4 C 47.3 37.4 41.5 44.6 31 47.3 C 42.8 49 50.7 55.6 50.7 65.9 C 50.7 78.9 38.2 85.9 24.2 85.9 C 17.5 85.9 10.3 84.2 4.2 81.1 C 4.23 81.09 7.8 68.3 7.8 68.3 C 7.8 68.3 13.23 68.31 13.2 68.3 C 13.2 77.6 19.1 81.6 24.9 81.6 C 31.1 81.6 37.4 77 37.4 69.1 C 37.4 61.3 31.3 55.1 17.7 55.1 C 17.7 55.1 17.7 47.4 17.7 47.4 C 28 46.8 33.8 40.4 33.8 34.8 Z " stroke="none" fill="#000"/>  </g></svg>