<?xml version="1.0" standalone="no"?><!DOCTYPE svg PUBLIC "-//W3C//DTD SVG 1.1//EN" "http://www.w3.org/Graphics/SVG/1.1/DTD/svg11.dtd"><svg xmlns="http://www.w3.org/2000/svg" version="1.1" width="333px" height="65.4px" viewBox="0 -3 333 65.4" style="top:-3px"><desc>Travel and hospitality faced a cyclical downturn But</desc><defs/><g id="Polygon11559"><path d="m6.2 45.2c-3.1 0-5.3-2.3-5.3-5.8c0-3.6 2.1-5.9 5.4-5.9c2.5 0 4.5 1.4 4.7 3.9H9.5c-.2-1.6-1.6-2.5-3.2-2.5c-2.2 0-3.8 1.7-3.8 4.4c0 2.8 1.6 4.5 3.8 4.5c1.7 0 3-1 3.1-2.8h1.6c-.2 2.7-2.3 4.2-4.8 4.2zm10.7 1.9c-.4 1.2-1.4 1.6-2.6 1.6c0-.02-1.2 0-1.2 0v-1.4h1c1 0 1.4-.3 1.8-1.3l.5-1.5l-4.2-10.8h1.6l3.4 8.9l3.3-8.9h1.5l-5.1 13.4zm11.4-1.9c-3.1 0-5.2-2.3-5.2-5.8c0-3.6 2.1-5.9 5.3-5.9c2.5 0 4.5 1.4 4.7 3.9h-1.5c-.2-1.6-1.6-2.5-3.2-2.5c-2.2 0-3.8 1.7-3.8 4.4c0 2.8 1.6 4.5 3.8 4.5c1.7 0 3-1 3.2-2.8h1.5c-.2 2.7-2.3 4.2-4.8 4.2zm8.9-.2h-1.5v-16h1.5v16zm5-16h-1.7v1.9h1.7V29zm-.1 16h-1.5V33.7h1.5V45zm7.9.2c-3.1 0-5.3-2.3-5.3-5.8c0-3.6 2.1-5.9 5.4-5.9c2.5 0 4.5 1.4 4.7 3.9h-1.5c-.2-1.6-1.6-2.5-3.2-2.5c-2.2 0-3.8 1.7-3.8 4.4c0 2.8 1.6 4.5 3.8 4.5c1.7 0 3-1 3.2-2.8h1.5c-.2 2.7-2.3 4.2-4.8 4.2zm14.3-2.3c-.9 1.7-2.6 2.3-4 2.3c-1.9 0-3.6-1.1-3.6-3.3c0-2.1 1.4-3.1 3.4-3.3l2.6-.4c.9-.1 1.6-.4 1.6-1.4c0-1.3-1.1-2-2.7-2c-1.7 0-2.7.8-3 2.1h-1.5c.3-2.3 2.1-3.4 4.6-3.4c2.6 0 4.1 1.2 4.1 3.7v7.8h-1.5s.02-2.08 0-2.1zm-1.8-3.4l-1.8.2c-1.4.2-2.5.7-2.5 2.1c0 1.4 1.1 2 2.4 2c1.7 0 3.7-1.3 3.7-3.7V39c-.4.3-1.1.4-1.8.5zm8 5.5H69v-16h1.5v16zm18.4 0h-1.5s.04-2.2 0-2.2c-.5 1.3-1.9 2.4-4 2.4c-2.9 0-5-2.3-5-5.9c0-3.5 2.1-5.8 5.1-5.8c1.9 0 3.3.9 3.9 2.1c-.02.02 0-6.6 0-6.6h1.5v16zm-1.5-5.7c0-2.8-1.6-4.4-3.8-4.4c-2.2 0-3.7 1.7-3.7 4.4c0 2.8 1.6 4.5 3.7 4.5c2.2 0 3.8-1.7 3.8-4.5zm4.1.1c0-3.7 2.3-5.9 5.4-5.9c3.1 0 5.3 2.2 5.3 5.9c0 3.6-2.2 5.8-5.3 5.8c-3.1 0-5.4-2.2-5.4-5.8zm9.2-.1c0-2.8-1.8-4.4-3.9-4.4c-2.2 0-3.7 1.7-3.7 4.5c0 2.8 1.7 4.4 3.8 4.4c2.2 0 3.8-1.7 3.8-4.5zm15.2 5.7h-1.5l-2.9-9l-2.9 9h-1.5l-3.7-11.3h1.6l2.9 9.3l2.8-9.3h1.6l2.9 9.3l2.8-9.3h1.6L115.9 45zm14.9-7.7c.05-.05 0 7.7 0 7.7h-1.5s.02-7.56 0-7.6c0-1.5-.9-2.5-2.5-2.5c-1.9 0-3.6 1.4-3.6 4.2c.03-.04 0 5.9 0 5.9h-1.5V33.7h1.5s.03 2.1 0 2.1c.7-1.3 2-2.3 3.9-2.3c2.3 0 3.7 1.3 3.7 3.8zm8.4 7.7s-1.61-.02-1.6 0c-1.5 0-2.8-.5-2.8-3c-.05.02 0-6.9 0-6.9h-2.3v-1.4h2.3v-3.2l1.5-.4v3.6h2.7v1.4h-2.7v6.9c0 1 .3 1.6 1.5 1.6h1.4v1.4zm9.7 0s-.03-2.16 0-2.2c-.8 1.6-2.2 2.3-3.8 2.3c-2.1 0-3.8-1.3-3.8-3.9c.05-.04 0-7.5 0-7.5h1.6s-.02 7.27 0 7.3c0 1.8 1 2.8 2.5 2.8c1.8 0 3.4-1.4 3.4-4.3v-5.8h1.5V45h-1.4zm10.4-10s-.33.03-.3 0c-2.4 0-3.8 1.4-3.8 4c.03 0 0 6 0 6h-1.5V33.7h1.5v2.1c.5-1.5 1.9-2.2 3.6-2.2c.04-.02.5 0 .5 0v1.4zm11.2 2.3c-.02-.05 0 7.7 0 7.7h-1.6s.04-7.56 0-7.6c0-1.5-.8-2.5-2.4-2.5c-2 0-3.6 1.4-3.6 4.2c-.05-.04 0 5.9 0 5.9h-1.6V33.7h1.6s-.05 2.1 0 2.1c.6-1.3 1.9-2.3 3.9-2.3c2.2 0 3.7 1.3 3.7 3.8zm2.5 5.5h2.1v2.2H173v-2.2zm21.3-2.3c0 2.2-1.8 4.5-5.1 4.5h-6V29.2s6.26.03 6.3 0c2.8 0 4.1 1.8 4.1 3.6c0 1.5-.8 3-2.3 3.7c2 .7 3 2.3 3 4zm-5.6-4.5c2.2 0 3.3-1.5 3.3-2.9c0-1.2-.9-2.5-2.8-2.5c-.04.04-4.4 0-4.4 0v5.4s3.94-.05 3.9 0zm3.9 4.4c0-1.6-1.1-3-3.2-3c-.05-.04-4.6 0-4.6 0v6.1s4.39.03 4.4 0c2.3 0 3.4-1.5 3.4-3.1zm11.8 4.6s.03-2.16 0-2.2c-.7 1.6-2.1 2.3-3.7 2.3c-2.1 0-3.8-1.3-3.8-3.9v-7.5h1.5s.05 7.27 0 7.3c0 1.8 1.1 2.8 2.5 2.8c1.9 0 3.5-1.4 3.5-4.3c-.03.04 0-5.8 0-5.8h1.5V45h-1.5zm10 0s-1.65-.02-1.7 0c-1.4 0-2.8-.5-2.8-3v-6.9h-2.2v-1.4h2.2v-3.2l1.5-.4v3.6h2.8v1.4h-2.8s.05 6.9 0 6.9c0 1 .3 1.6 1.6 1.6h1.4v1.4zm1.5-2.2h2.1v2.2h-2.1v-2.2zm4 0h2.1v2.2h-2.1v-2.2zm4 0h2.2v2.2h-2.2v-2.2z" stroke="none" fill="#000"/></g><g id="Polygon11558"><path d="m12.7 5.4H7.3v14.4H5.7V5.4H.3V4h12.4v1.4zm6.6 4.4s-.4.03-.4 0c-2.4 0-3.7 1.4-3.7 4c-.04 0 0 6 0 6h-1.6V8.5h1.5s.04 2.08 0 2.1c.6-1.5 1.9-2.2 3.7-2.2c-.03-.02.5 0 .5 0v1.4zm8.9 7.9c-.9 1.7-2.6 2.3-4 2.3c-2 0-3.7-1.1-3.7-3.3c0-2.1 1.5-3.1 3.4-3.3l2.7-.4c.8-.1 1.6-.4 1.6-1.4c0-1.3-1.2-2-2.7-2c-1.7 0-2.8.8-3 2.1H21c.3-2.3 2.1-3.4 4.6-3.4c2.5 0 4.1 1.2 4.1 3.7c-.03-.01 0 7.8 0 7.8h-1.5s-.02-2.08 0-2.1zm-1.9-3.4l-1.7.2c-1.4.2-2.5.7-2.5 2.1c0 1.4 1.1 2 2.3 2c1.8 0 3.7-1.3 3.7-3.7v-1.1c-.4.3-1 .4-1.8.5zm11 5.5h-1.7L31.5 8.5h1.6l3.4 9.7l3.4-9.7h1.6l-4.2 11.3zm6.8-5.3c0 2.8 1.7 4.1 3.7 4.1c1.5 0 3-.7 3.3-2.3h1.5c-.5 2.6-2.7 3.7-4.9 3.7c-2.7 0-5.2-1.8-5.2-5.8c0-4.1 2.6-5.9 5.3-5.9c2.7 0 4.8 1.7 4.8 5.5c.05-.05 0 .7 0 .7c0 0-8.54.01-8.5 0zm0-1.3h7c0-2.3-1.5-3.5-3.4-3.5c-1.7 0-3.4 1.1-3.6 3.5zm12.7 6.6h-1.5v-16h1.5v16zm16-2.1c-.9 1.7-2.6 2.3-4 2.3c-2 0-3.7-1.1-3.7-3.3c0-2.1 1.5-3.1 3.4-3.3l2.7-.4c.8-.1 1.6-.4 1.6-1.4c0-1.3-1.2-2-2.8-2c-1.7 0-2.7.8-2.9 2.1h-1.6c.4-2.3 2.2-3.4 4.6-3.4c2.6 0 4.2 1.2 4.2 3.7c-.04-.01 0 7.8 0 7.8h-1.5s-.04-2.08 0-2.1zm-1.9-3.4l-1.7.2c-1.5.2-2.5.7-2.5 2.1c0 1.4 1.1 2 2.3 2c1.8 0 3.7-1.3 3.7-3.7v-1.1c-.4.3-1 .4-1.8.5zm15.7-2.2c-.04-.05 0 7.7 0 7.7H85s.03-7.56 0-7.6c0-1.5-.9-2.5-2.4-2.5c-2 0-3.7 1.4-3.7 4.2c.04-.04 0 5.9 0 5.9h-1.5V8.5h1.5s.04 2.1 0 2.1c.7-1.3 2-2.3 3.9-2.3c2.3 0 3.8 1.3 3.8 3.8zm13 7.7h-1.4s-.05-2.2 0-2.2c-.6 1.3-2 2.4-4.1 2.4c-2.9 0-5-2.3-5-5.9c0-3.5 2.1-5.8 5.1-5.8c1.9 0 3.3.9 3.9 2.1c-.01.02 0-6.6 0-6.6h1.5v16zm-1.5-5.7c0-2.8-1.6-4.4-3.7-4.4c-2.3 0-3.7 1.7-3.7 4.4c0 2.8 1.5 4.5 3.7 4.5c2.1 0 3.7-1.7 3.7-4.5zm19.7-2v7.7h-1.5s-.02-7.56 0-7.6c0-1.5-.9-2.5-2.5-2.5c-1.9 0-3.6 1.4-3.6 4.2v5.9h-1.5v-16h1.5s-.01 6.68 0 6.7c.6-1.3 1.9-2.2 3.8-2.2c2.4 0 3.8 1.3 3.8 3.8zm2.5 2.1c0-3.7 2.3-5.9 5.4-5.9c3.1 0 5.3 2.2 5.3 5.9c0 3.6-2.2 5.8-5.3 5.8c-3.1 0-5.4-2.2-5.4-5.8zm9.1-.1c0-2.8-1.7-4.4-3.8-4.4c-2.2 0-3.7 1.7-3.7 4.5c0 2.8 1.7 4.4 3.8 4.4c2.2 0 3.7-1.7 3.7-4.5zm12.6 2.5c0 2.3-2.1 3.4-4.3 3.4c-2.4 0-4.7-1.2-4.9-3.7h1.6c.3 1.7 1.8 2.3 3.3 2.3c1.4 0 2.7-.5 2.7-1.8c0-1.3-1.3-1.6-2.6-1.8c-2.2-.4-4.7-.8-4.7-3.4c0-2.2 1.9-3.3 4.2-3.3c2.4 0 4.3 1.1 4.4 3.4h-1.6c-.1-1.4-1.4-2-2.8-2c-1.6 0-2.6.7-2.6 1.8c0 1.5 1.3 1.7 3 2c2.1.3 4.3.6 4.3 3.1zm13.1-2.5c0 4.1-2.6 5.8-5.2 5.8c-1.9 0-3.2-.9-3.8-2.1c-.03.03 0 6.3 0 6.3h-1.6V8.5h1.5s.03 2.38 0 2.4c.5-1.4 2-2.6 4.1-2.6c2.4 0 5 1.7 5 5.8zm-1.6 0c0-3.1-1.8-4.3-3.7-4.3c-1.8 0-3.7 1.2-3.7 4.4c0 3.1 1.8 4.3 3.7 4.3c1.9 0 3.7-1.2 3.7-4.4zm5.8-10.3h-1.7v1.9h1.7V3.8zm-.1 16h-1.5V8.5h1.5v11.3zm8.5 0s-1.63-.02-1.6 0c-1.5 0-2.9-.5-2.9-3c.03.02 0-6.9 0-6.9H161V8.5h2.2V5.3l1.6-.4v3.6h2.7v1.4h-2.7s-.04 6.9 0 6.9c0 1 .3 1.6 1.5 1.6h1.4v1.4zm9.2-2.1c-.9 1.7-2.6 2.3-4.1 2.3c-1.9 0-3.6-1.1-3.6-3.3c0-2.1 1.5-3.1 3.4-3.3l2.7-.4c.8-.1 1.6-.4 1.6-1.4c0-1.3-1.2-2-2.8-2c-1.7 0-2.7.8-2.9 2.1h-1.6c.4-2.3 2.2-3.4 4.6-3.4c2.6 0 4.2 1.2 4.2 3.7c-.05-.01 0 7.8 0 7.8h-1.5s-.04-2.08 0-2.1zm-1.9-3.4l-1.7.2c-1.5.2-2.5.7-2.5 2.1c0 1.4 1.1 2 2.3 2c1.8 0 3.7-1.3 3.7-3.7v-1.1c-.4.3-1.1.4-1.8.5zm8 5.5h-1.5v-16h1.5v16zm5-16h-1.7v1.9h1.7V3.8zm-.1 16h-1.5V8.5h1.5v11.3zm8.5 0s-1.63-.02-1.6 0c-1.5 0-2.9-.5-2.9-3c.04.02 0-6.9 0-6.9h-2.2V8.5h2.2V5.3l1.6-.4v3.6h2.7v1.4h-2.7s-.03 6.9 0 6.9c0 1 .3 1.6 1.5 1.6h1.4v1.4zm5.6 2.1c-.5 1.2-1.5 1.6-2.7 1.6c.05-.02-1.1 0-1.1 0v-1.4s.94.01.9 0c1 0 1.5-.3 1.8-1.3c.05-.01.6-1.5.6-1.5l-4.2-10.8h1.6l3.3 8.9l3.3-8.9h1.6s-5.15 13.42-5.1 13.4zm15.7-16.8c-1.3 0-1.6.6-1.6 1.7c.03-.04 0 1.7 0 1.7h2.5v1.4h-2.5v9.9h-1.5V9.9h-1.9V8.5h1.9V6.7c0-2.5 1.3-2.9 2.8-2.9c.03-.02 1.5 0 1.5 0v1.3s-1.22.04-1.2 0zm10.1 12.6c-.8 1.7-2.5 2.3-4 2.3c-1.9 0-3.6-1.1-3.6-3.3c0-2.1 1.5-3.1 3.4-3.3l2.7-.4c.8-.1 1.5-.4 1.5-1.4c0-1.3-1.1-2-2.7-2c-1.7 0-2.7.8-2.9 2.1h-1.6c.3-2.3 2.1-3.4 4.6-3.4c2.6 0 4.1 1.2 4.1 3.7c.04-.01 0 7.8 0 7.8h-1.5s.05-2.08 0-2.1zm-1.8-3.4l-1.7.2c-1.5.2-2.5.7-2.5 2.1c0 1.4 1 2 2.3 2c1.8 0 3.7-1.3 3.7-3.7v-1.1c-.4.3-1.1.4-1.8.5zm11 5.7c-3.1 0-5.2-2.3-5.2-5.8c0-3.6 2.1-5.9 5.3-5.9c2.5 0 4.5 1.4 4.7 3.9h-1.5c-.2-1.6-1.6-2.5-3.2-2.5c-2.2 0-3.8 1.7-3.8 4.4c0 2.8 1.6 4.5 3.8 4.5c1.7 0 3-1 3.2-2.8h1.5c-.2 2.7-2.3 4.2-4.8 4.2zm8.2-5.5c0 2.8 1.7 4.1 3.7 4.1c1.5 0 3-.7 3.3-2.3h1.5c-.5 2.6-2.7 3.7-4.9 3.7c-2.6 0-5.1-1.8-5.1-5.8c0-4.1 2.5-5.9 5.2-5.9c2.7 0 4.9 1.7 4.9 5.5c-.04-.05 0 .7 0 .7h-8.6zm0-1.3h7c0-2.3-1.5-3.5-3.4-3.5c-1.7 0-3.4 1.1-3.6 3.5zm21 6.6h-1.5s.02-2.2 0-2.2c-.5 1.3-1.9 2.4-4 2.4c-2.9 0-5-2.3-5-5.9c0-3.5 2.1-5.8 5-5.8c1.9 0 3.4.9 4 2.1c-.04.02 0-6.6 0-6.6h1.5v16zm-1.6-5.7c0-2.8-1.5-4.4-3.7-4.4c-2.2 0-3.7 1.7-3.7 4.4c0 2.8 1.5 4.5 3.7 4.5c2.2 0 3.7-1.7 3.7-4.5zm17.6 3.6c-.9 1.7-2.6 2.3-4.1 2.3c-1.9 0-3.6-1.1-3.6-3.3c0-2.1 1.5-3.1 3.4-3.3l2.7-.4c.8-.1 1.6-.4 1.6-1.4c0-1.3-1.2-2-2.8-2c-1.7 0-2.7.8-2.9 2.1h-1.6c.3-2.3 2.1-3.4 4.6-3.4c2.6 0 4.1 1.2 4.1 3.7c.04-.01 0 7.8 0 7.8h-1.4s-.05-2.08 0-2.1zm-1.9-3.4l-1.7.2c-1.5.2-2.5.7-2.5 2.1c0 1.4 1.1 2 2.3 2c1.8 0 3.7-1.3 3.7-3.7v-1.1c-.4.3-1.1.4-1.8.5z" stroke="none" fill="#000"/></g></svg>