<?xml version="1.0" standalone="no"?><!DOCTYPE svg PUBLIC "-//W3C//DTD SVG 1.1//EN" "http://www.w3.org/Graphics/SVG/1.1/DTD/svg11.dtd"><svg xmlns="http://www.w3.org/2000/svg" version="1.1" width="380.4px" height="65.4px" viewBox="0 -3 380.4 65.4" style="top:-3px">  <desc>Commercial property faces accelerated structural change</desc>  <defs/>  <g id="Polygon12197">    <path d="M 8.6 42.9 C 7.7 44.6 6 45.2 4.6 45.2 C 2.7 45.2 0.9 44.1 0.9 41.9 C 0.9 39.8 2.4 38.8 4.4 38.6 C 4.4 38.6 7 38.2 7 38.2 C 7.9 38.1 8.6 37.8 8.6 36.8 C 8.6 35.5 7.5 34.8 5.9 34.8 C 4.2 34.8 3.1 35.6 2.9 36.9 C 2.9 36.9 1.4 36.9 1.4 36.9 C 1.7 34.6 3.5 33.5 6 33.5 C 8.5 33.5 10.1 34.7 10.1 37.2 C 10.1 37.19 10.1 45 10.1 45 L 8.6 45 C 8.6 45 8.61 42.92 8.6 42.9 Z M 6.7 39.5 C 6.7 39.5 5 39.7 5 39.7 C 3.6 39.9 2.5 40.4 2.5 41.8 C 2.5 43.2 3.6 43.8 4.9 43.8 C 6.6 43.8 8.6 42.5 8.6 40.1 C 8.6 40.1 8.6 39 8.6 39 C 8.1 39.3 7.5 39.4 6.7 39.5 Z M 17.7 45.2 C 14.6 45.2 12.5 42.9 12.5 39.4 C 12.5 35.8 14.6 33.5 17.9 33.5 C 20.4 33.5 22.4 34.9 22.5 37.4 C 22.5 37.4 21 37.4 21 37.4 C 20.9 35.8 19.5 34.9 17.8 34.9 C 15.6 34.9 14.1 36.6 14.1 39.3 C 14.1 42.1 15.6 43.8 17.8 43.8 C 19.5 43.8 20.9 42.8 21 41 C 21 41 22.5 41 22.5 41 C 22.4 43.7 20.2 45.2 17.7 45.2 Z M 29.7 45.2 C 26.5 45.2 24.4 42.9 24.4 39.4 C 24.4 35.8 26.5 33.5 29.8 33.5 C 32.3 33.5 34.3 34.9 34.4 37.4 C 34.4 37.4 32.9 37.4 32.9 37.4 C 32.8 35.8 31.4 34.9 29.8 34.9 C 27.6 34.9 26 36.6 26 39.3 C 26 42.1 27.5 43.8 29.7 43.8 C 31.4 43.8 32.8 42.8 32.9 41 C 32.9 41 34.4 41 34.4 41 C 34.3 43.7 32.2 45.2 29.7 45.2 Z M 37.8 39.7 C 37.9 42.5 39.6 43.8 41.6 43.8 C 43.1 43.8 44.6 43.1 44.9 41.5 C 44.9 41.5 46.3 41.5 46.3 41.5 C 45.8 44.1 43.7 45.2 41.5 45.2 C 38.8 45.2 36.3 43.4 36.3 39.4 C 36.3 35.3 38.9 33.5 41.6 33.5 C 44.2 33.5 46.4 35.2 46.4 39 C 46.43 38.95 46.4 39.7 46.4 39.7 C 46.4 39.7 37.84 39.71 37.8 39.7 Z M 37.9 38.4 C 37.9 38.4 44.9 38.4 44.9 38.4 C 44.9 36.1 43.4 34.9 41.5 34.9 C 39.8 34.9 38.1 36 37.9 38.4 Z M 50.6 45 L 49.1 45 L 49.1 29 L 50.6 29 L 50.6 45 Z M 54.7 39.7 C 54.8 42.5 56.5 43.8 58.5 43.8 C 60 43.8 61.4 43.1 61.8 41.5 C 61.8 41.5 63.2 41.5 63.2 41.5 C 62.7 44.1 60.5 45.2 58.4 45.2 C 55.7 45.2 53.2 43.4 53.2 39.4 C 53.2 35.3 55.8 33.5 58.5 33.5 C 61.1 33.5 63.3 35.2 63.3 39 C 63.31 38.95 63.3 39.7 63.3 39.7 C 63.3 39.7 54.73 39.71 54.7 39.7 Z M 54.8 38.4 C 54.8 38.4 61.8 38.4 61.8 38.4 C 61.8 36.1 60.3 34.9 58.4 34.9 C 56.6 34.9 55 36 54.8 38.4 Z M 71.6 35 C 71.6 35 71.21 35.03 71.2 35 C 68.8 35 67.5 36.4 67.5 39 C 67.47 39 67.5 45 67.5 45 L 65.9 45 L 65.9 33.7 L 67.5 33.7 C 67.5 33.7 67.45 35.78 67.5 35.8 C 68 34.3 69.3 33.6 71.1 33.6 C 71.08 33.58 71.6 33.6 71.6 33.6 L 71.6 35 Z M 80.5 42.9 C 79.6 44.6 77.9 45.2 76.5 45.2 C 74.5 45.2 72.8 44.1 72.8 41.9 C 72.8 39.8 74.3 38.8 76.2 38.6 C 76.2 38.6 78.9 38.2 78.9 38.2 C 79.8 38.1 80.5 37.8 80.5 36.8 C 80.5 35.5 79.3 34.8 77.8 34.8 C 76.1 34.8 75 35.6 74.8 36.9 C 74.8 36.9 73.3 36.9 73.3 36.9 C 73.6 34.6 75.4 33.5 77.9 33.5 C 80.4 33.5 82 34.7 82 37.2 C 81.98 37.19 82 45 82 45 L 80.5 45 C 80.5 45 80.49 42.92 80.5 42.9 Z M 78.6 39.5 C 78.6 39.5 76.9 39.7 76.9 39.7 C 75.5 39.9 74.4 40.4 74.4 41.8 C 74.4 43.2 75.5 43.8 76.7 43.8 C 78.5 43.8 80.4 42.5 80.4 40.1 C 80.4 40.1 80.4 39 80.4 39 C 80 39.3 79.4 39.4 78.6 39.5 Z M 90.3 45 C 90.3 45 88.62 44.98 88.6 45 C 87.1 45 85.8 44.5 85.8 42 C 85.78 42.02 85.8 35.1 85.8 35.1 L 83.6 35.1 L 83.6 33.7 L 85.8 33.7 L 85.8 30.5 L 87.3 30.1 L 87.3 33.7 L 90 33.7 L 90 35.1 L 87.3 35.1 C 87.3 35.1 87.32 42 87.3 42 C 87.3 43 87.6 43.6 88.9 43.6 C 88.87 43.6 90.3 43.6 90.3 43.6 L 90.3 45 Z M 93.3 39.7 C 93.3 42.5 95 43.8 97 43.8 C 98.5 43.8 100 43.1 100.3 41.5 C 100.3 41.5 101.8 41.5 101.8 41.5 C 101.3 44.1 99.1 45.2 96.9 45.2 C 94.2 45.2 91.7 43.4 91.7 39.4 C 91.7 35.3 94.3 33.5 97 33.5 C 99.7 33.5 101.8 35.2 101.8 39 C 101.85 38.95 101.8 39.7 101.8 39.7 C 101.8 39.7 93.26 39.71 93.3 39.7 Z M 93.3 38.4 C 93.3 38.4 100.3 38.4 100.3 38.4 C 100.3 36.1 98.8 34.9 96.9 34.9 C 95.2 34.9 93.5 36 93.3 38.4 Z M 114.3 45 L 112.8 45 C 112.8 45 112.81 42.8 112.8 42.8 C 112.3 44.1 110.9 45.2 108.8 45.2 C 105.8 45.2 103.7 42.9 103.7 39.3 C 103.7 35.8 105.8 33.5 108.8 33.5 C 110.7 33.5 112.1 34.4 112.7 35.6 C 112.75 35.62 112.7 29 112.7 29 L 114.3 29 L 114.3 45 Z M 112.7 39.3 C 112.7 36.5 111.2 34.9 109 34.9 C 106.8 34.9 105.3 36.6 105.3 39.3 C 105.3 42.1 106.8 43.8 109 43.8 C 111.2 43.8 112.7 42.1 112.7 39.3 Z M 131.3 41.8 C 131.3 44.1 129.2 45.2 126.9 45.2 C 124.5 45.2 122.3 44 122.1 41.5 C 122.1 41.5 123.7 41.5 123.7 41.5 C 123.9 43.2 125.4 43.8 126.9 43.8 C 128.4 43.8 129.7 43.3 129.7 42 C 129.7 40.7 128.4 40.4 127 40.2 C 124.9 39.8 122.3 39.4 122.3 36.8 C 122.3 34.6 124.3 33.5 126.6 33.5 C 129 33.5 130.8 34.6 131 36.9 C 131 36.9 129.4 36.9 129.4 36.9 C 129.3 35.5 128 34.9 126.5 34.9 C 125 34.9 123.9 35.6 123.9 36.7 C 123.9 38.2 125.3 38.4 127 38.7 C 129 39 131.3 39.3 131.3 41.8 Z M 138.9 45 C 138.9 45 137.28 44.98 137.3 45 C 135.8 45 134.4 44.5 134.4 42 C 134.44 42.02 134.4 35.1 134.4 35.1 L 132.2 35.1 L 132.2 33.7 L 134.4 33.7 L 134.4 30.5 L 136 30.1 L 136 33.7 L 138.7 33.7 L 138.7 35.1 L 136 35.1 C 136 35.1 135.97 42 136 42 C 136 43 136.3 43.6 137.5 43.6 C 137.53 43.6 138.9 43.6 138.9 43.6 L 138.9 45 Z M 146.8 35 C 146.8 35 146.41 35.03 146.4 35 C 144 35 142.7 36.4 142.7 39 C 142.67 39 142.7 45 142.7 45 L 141.1 45 L 141.1 33.7 L 142.7 33.7 C 142.7 33.7 142.65 35.78 142.7 35.8 C 143.2 34.3 144.5 33.6 146.3 33.6 C 146.28 33.58 146.8 33.6 146.8 33.6 L 146.8 35 Z M 156.2 45 C 156.2 45 156.18 42.84 156.2 42.8 C 155.4 44.4 154 45.1 152.4 45.1 C 150.3 45.1 148.7 43.8 148.7 41.2 C 148.66 41.16 148.7 33.7 148.7 33.7 L 150.2 33.7 C 150.2 33.7 150.19 40.97 150.2 41 C 150.2 42.8 151.2 43.8 152.7 43.8 C 154.5 43.8 156.1 42.4 156.1 39.5 C 156.11 39.54 156.1 33.7 156.1 33.7 L 157.6 33.7 L 157.6 45 L 156.2 45 Z M 165.5 45.2 C 162.4 45.2 160.3 42.9 160.3 39.4 C 160.3 35.8 162.4 33.5 165.6 33.5 C 168.1 33.5 170.1 34.9 170.3 37.4 C 170.3 37.4 168.8 37.4 168.8 37.4 C 168.6 35.8 167.2 34.9 165.6 34.9 C 163.4 34.9 161.8 36.6 161.8 39.3 C 161.8 42.1 163.4 43.8 165.6 43.8 C 167.3 43.8 168.6 42.8 168.8 41 C 168.8 41 170.3 41 170.3 41 C 170.1 43.7 168 45.2 165.5 45.2 Z M 178.1 45 C 178.1 45 176.4 44.98 176.4 45 C 174.9 45 173.6 44.5 173.6 42 C 173.56 42.02 173.6 35.1 173.6 35.1 L 171.3 35.1 L 171.3 33.7 L 173.6 33.7 L 173.6 30.5 L 175.1 30.1 L 175.1 33.7 L 177.8 33.7 L 177.8 35.1 L 175.1 35.1 C 175.1 35.1 175.1 42 175.1 42 C 175.1 43 175.4 43.6 176.6 43.6 C 176.65 43.6 178.1 43.6 178.1 43.6 L 178.1 45 Z M 187.7 45 C 187.7 45 187.67 42.84 187.7 42.8 C 186.9 44.4 185.5 45.1 183.9 45.1 C 181.8 45.1 180.2 43.8 180.2 41.2 C 180.16 41.16 180.2 33.7 180.2 33.7 L 181.7 33.7 C 181.7 33.7 181.69 40.97 181.7 41 C 181.7 42.8 182.7 43.8 184.2 43.8 C 186 43.8 187.6 42.4 187.6 39.5 C 187.61 39.54 187.6 33.7 187.6 33.7 L 189.1 33.7 L 189.1 45 L 187.7 45 Z M 198.1 35 C 198.1 35 197.78 35.03 197.8 35 C 195.4 35 194 36.4 194 39 C 194.04 39 194 45 194 45 L 192.5 45 L 192.5 33.7 L 194 33.7 C 194 33.7 194.02 35.78 194 35.8 C 194.5 34.3 195.9 33.6 197.6 33.6 C 197.65 33.58 198.1 33.6 198.1 33.6 L 198.1 35 Z M 207.1 42.9 C 206.2 44.6 204.5 45.2 203 45.2 C 201.1 45.2 199.4 44.1 199.4 41.9 C 199.4 39.8 200.9 38.8 202.8 38.6 C 202.8 38.6 205.5 38.2 205.5 38.2 C 206.3 38.1 207.1 37.8 207.1 36.8 C 207.1 35.5 205.9 34.8 204.3 34.8 C 202.6 34.8 201.6 35.6 201.4 36.9 C 201.4 36.9 199.8 36.9 199.8 36.9 C 200.1 34.6 202 33.5 204.4 33.5 C 207 33.5 208.5 34.7 208.5 37.2 C 208.55 37.19 208.5 45 208.5 45 L 207.1 45 C 207.1 45 207.06 42.92 207.1 42.9 Z M 205.2 39.5 C 205.2 39.5 203.5 39.7 203.5 39.7 C 202 39.9 201 40.4 201 41.8 C 201 43.2 202.1 43.8 203.3 43.8 C 205.1 43.8 207 42.5 207 40.1 C 207 40.1 207 39 207 39 C 206.6 39.3 205.9 39.4 205.2 39.5 Z M 213.2 45 L 211.7 45 L 211.7 29 L 213.2 29 L 213.2 45 Z M 226.3 45.2 C 223.2 45.2 221.1 42.9 221.1 39.4 C 221.1 35.8 223.2 33.5 226.5 33.5 C 229 33.5 231 34.9 231.1 37.4 C 231.1 37.4 229.6 37.4 229.6 37.4 C 229.5 35.8 228.1 34.9 226.4 34.9 C 224.2 34.9 222.7 36.6 222.7 39.3 C 222.7 42.1 224.2 43.8 226.4 43.8 C 228.1 43.8 229.5 42.8 229.6 41 C 229.6 41 231.1 41 231.1 41 C 231 43.7 228.8 45.2 226.3 45.2 Z M 242.9 37.3 C 242.9 37.25 242.9 45 242.9 45 L 241.4 45 C 241.4 45 241.37 37.44 241.4 37.4 C 241.4 35.9 240.5 34.9 238.9 34.9 C 237 34.9 235.3 36.3 235.3 39.1 C 235.28 39.06 235.3 45 235.3 45 L 233.7 45 L 233.7 29 L 235.3 29 C 235.3 29 235.28 35.68 235.3 35.7 C 235.9 34.4 237.1 33.5 239.1 33.5 C 241.5 33.5 242.9 34.8 242.9 37.3 Z M 253.1 42.9 C 252.2 44.6 250.5 45.2 249.1 45.2 C 247.1 45.2 245.4 44.1 245.4 41.9 C 245.4 39.8 246.9 38.8 248.8 38.6 C 248.8 38.6 251.5 38.2 251.5 38.2 C 252.4 38.1 253.1 37.8 253.1 36.8 C 253.1 35.5 251.9 34.8 250.4 34.8 C 248.7 34.8 247.6 35.6 247.4 36.9 C 247.4 36.9 245.9 36.9 245.9 36.9 C 246.2 34.6 248 33.5 250.5 33.5 C 253 33.5 254.6 34.7 254.6 37.2 C 254.58 37.19 254.6 45 254.6 45 L 253.1 45 C 253.1 45 253.09 42.92 253.1 42.9 Z M 251.2 39.5 C 251.2 39.5 249.5 39.7 249.5 39.7 C 248.1 39.9 247 40.4 247 41.8 C 247 43.2 248.1 43.8 249.3 43.8 C 251.1 43.8 253 42.5 253 40.1 C 253 40.1 253 39 253 39 C 252.6 39.3 252 39.4 251.2 39.5 Z M 266.9 37.3 C 266.89 37.25 266.9 45 266.9 45 L 265.4 45 C 265.4 45 265.35 37.44 265.4 37.4 C 265.4 35.9 264.5 34.9 262.9 34.9 C 260.9 34.9 259.3 36.3 259.3 39.1 C 259.26 39.06 259.3 45 259.3 45 L 257.7 45 L 257.7 33.7 L 259.3 33.7 C 259.3 33.7 259.26 35.8 259.3 35.8 C 259.9 34.5 261.2 33.5 263.2 33.5 C 265.4 33.5 266.9 34.8 266.9 37.3 Z M 279.8 44.5 C 279.8 47.9 277.6 49.6 274.7 49.6 C 272.2 49.6 270 48.3 269.7 45.7 C 269.7 45.7 271.2 45.7 271.2 45.7 C 271.4 47.1 272.5 48.3 274.7 48.3 C 276.8 48.3 278.4 47.2 278.4 44.6 C 278.4 44.6 278.4 42.3 278.4 42.3 C 277.5 44 275.9 44.6 274.4 44.6 C 271.6 44.6 269.4 42.7 269.4 39 C 269.4 35.3 271.8 33.5 274.4 33.5 C 276.3 33.5 277.6 34.3 278.3 35.5 C 278.33 35.53 278.3 33.7 278.3 33.7 L 279.8 33.7 C 279.8 33.7 279.84 44.48 279.8 44.5 Z M 278.3 39 C 278.3 36.2 276.6 34.8 274.7 34.8 C 272.7 34.8 270.9 36.2 270.9 39 C 270.9 41.8 272.7 43.2 274.6 43.2 C 276.4 43.2 278.3 42 278.3 39 Z M 283.9 39.7 C 283.9 42.5 285.6 43.8 287.6 43.8 C 289.1 43.8 290.6 43.1 290.9 41.5 C 290.9 41.5 292.4 41.5 292.4 41.5 C 291.9 44.1 289.7 45.2 287.5 45.2 C 284.9 45.2 282.4 43.4 282.4 39.4 C 282.4 35.3 284.9 33.5 287.6 33.5 C 290.3 33.5 292.5 35.2 292.5 39 C 292.46 38.95 292.5 39.7 292.5 39.7 C 292.5 39.7 283.87 39.71 283.9 39.7 Z M 283.9 38.4 C 283.9 38.4 290.9 38.4 290.9 38.4 C 290.9 36.1 289.4 34.9 287.5 34.9 C 285.8 34.9 284.1 36 283.9 38.4 Z M 294.4 42.8 L 296.5 42.8 L 296.5 45 L 294.4 45 L 294.4 42.8 Z " stroke="none" fill="#000"/>  </g>  <g id="Polygon12196">    <path d="M 13.4 8.8 C 13.1 6.5 11 5.1 8.6 5.1 C 5.3 5.1 2.8 7.7 2.8 11.8 C 2.8 15.4 4.8 18.7 8.7 18.7 C 11.3 18.7 13.4 17.2 13.6 14.5 C 13.6 14.5 15.2 14.5 15.2 14.5 C 15.1 18.1 12.2 20.2 8.6 20.2 C 3.7 20.2 1.2 16.2 1.2 11.8 C 1.2 6.8 4.3 3.7 8.7 3.7 C 12 3.7 14.8 5.4 15.1 8.8 C 15.1 8.8 13.4 8.8 13.4 8.8 Z M 17.2 14.2 C 17.2 10.5 19.5 8.3 22.6 8.3 C 25.7 8.3 27.9 10.5 27.9 14.2 C 27.9 17.8 25.7 20 22.6 20 C 19.5 20 17.2 17.8 17.2 14.2 Z M 26.4 14.1 C 26.4 11.3 24.7 9.7 22.6 9.7 C 20.3 9.7 18.8 11.4 18.8 14.2 C 18.8 17 20.5 18.6 22.6 18.6 C 24.8 18.6 26.4 16.9 26.4 14.1 Z M 30.6 8.5 L 32.1 8.5 C 32.1 8.5 32.07 10.37 32.1 10.4 C 32.7 9 33.9 8.3 35.3 8.3 C 37 8.3 38.3 9.2 38.7 10.6 C 39.2 9.4 40.4 8.3 42.4 8.3 C 44.4 8.3 46 9.4 46 11.7 C 46.03 11.7 46 19.8 46 19.8 L 44.5 19.8 C 44.5 19.8 44.5 12.24 44.5 12.2 C 44.5 10.5 43.4 9.7 42.1 9.7 C 40.4 9.7 39 11 39 13.3 C 39.04 13.33 39 19.8 39 19.8 L 37.5 19.8 C 37.5 19.8 37.53 12.24 37.5 12.2 C 37.5 10.5 36.5 9.7 35.2 9.7 C 33.5 9.7 32.1 10.9 32.1 13.3 C 32.09 13.33 32.1 19.8 32.1 19.8 L 30.6 19.8 L 30.6 8.5 Z M 49.3 8.5 L 50.8 8.5 C 50.8 8.5 50.8 10.37 50.8 10.4 C 51.4 9 52.6 8.3 54.1 8.3 C 55.7 8.3 57.1 9.2 57.4 10.6 C 57.9 9.4 59.2 8.3 61.1 8.3 C 63.1 8.3 64.8 9.4 64.8 11.7 C 64.76 11.7 64.8 19.8 64.8 19.8 L 63.2 19.8 C 63.2 19.8 63.23 12.24 63.2 12.2 C 63.2 10.5 62.2 9.7 60.8 9.7 C 59.2 9.7 57.8 11 57.8 13.3 C 57.77 13.33 57.8 19.8 57.8 19.8 L 56.3 19.8 C 56.3 19.8 56.26 12.24 56.3 12.2 C 56.3 10.5 55.2 9.7 53.9 9.7 C 52.2 9.7 50.8 10.9 50.8 13.3 C 50.82 13.33 50.8 19.8 50.8 19.8 L 49.3 19.8 L 49.3 8.5 Z M 68.8 14.5 C 68.8 17.3 70.6 18.6 72.6 18.6 C 74 18.6 75.5 17.9 75.9 16.3 C 75.9 16.3 77.3 16.3 77.3 16.3 C 76.8 18.9 74.6 20 72.5 20 C 69.8 20 67.3 18.2 67.3 14.2 C 67.3 10.1 69.8 8.3 72.5 8.3 C 75.2 8.3 77.4 10 77.4 13.8 C 77.38 13.75 77.4 14.5 77.4 14.5 C 77.4 14.5 68.8 14.51 68.8 14.5 Z M 68.8 13.2 C 68.8 13.2 75.8 13.2 75.8 13.2 C 75.8 10.9 74.4 9.7 72.5 9.7 C 70.7 9.7 69 10.8 68.8 13.2 Z M 85.6 9.8 C 85.6 9.8 85.28 9.83 85.3 9.8 C 82.9 9.8 81.5 11.2 81.5 13.8 C 81.54 13.8 81.5 19.8 81.5 19.8 L 80 19.8 L 80 8.5 L 81.5 8.5 C 81.5 8.5 81.52 10.58 81.5 10.6 C 82 9.1 83.4 8.4 85.2 8.4 C 85.15 8.38 85.6 8.4 85.6 8.4 L 85.6 9.8 Z M 91.9 20 C 88.8 20 86.7 17.7 86.7 14.2 C 86.7 10.6 88.8 8.3 92 8.3 C 94.5 8.3 96.5 9.7 96.7 12.2 C 96.7 12.2 95.2 12.2 95.2 12.2 C 95 10.6 93.7 9.7 92 9.7 C 89.8 9.7 88.2 11.4 88.2 14.1 C 88.2 16.9 89.8 18.6 92 18.6 C 93.7 18.6 95.1 17.6 95.2 15.8 C 95.2 15.8 96.7 15.8 96.7 15.8 C 96.5 18.5 94.4 20 91.9 20 Z M 101 3.8 L 99.2 3.8 L 99.2 5.7 L 101 5.7 L 101 3.8 Z M 100.9 19.8 L 99.3 19.8 L 99.3 8.5 L 100.9 8.5 L 100.9 19.8 Z M 111.2 17.7 C 110.3 19.4 108.6 20 107.1 20 C 105.2 20 103.5 18.9 103.5 16.7 C 103.5 14.6 105 13.6 106.9 13.4 C 106.9 13.4 109.6 13 109.6 13 C 110.4 12.9 111.2 12.6 111.2 11.6 C 111.2 10.3 110 9.6 108.4 9.6 C 106.7 9.6 105.7 10.4 105.5 11.7 C 105.5 11.7 103.9 11.7 103.9 11.7 C 104.2 9.4 106 8.3 108.5 8.3 C 111.1 8.3 112.6 9.5 112.6 12 C 112.64 11.99 112.6 19.8 112.6 19.8 L 111.2 19.8 C 111.2 19.8 111.15 17.72 111.2 17.7 Z M 109.3 14.3 C 109.3 14.3 107.6 14.5 107.6 14.5 C 106.1 14.7 105.1 15.2 105.1 16.6 C 105.1 18 106.2 18.6 107.4 18.6 C 109.2 18.6 111.1 17.3 111.1 14.9 C 111.1 14.9 111.1 13.8 111.1 13.8 C 110.7 14.1 110 14.2 109.3 14.3 Z M 117.3 19.8 L 115.8 19.8 L 115.8 3.8 L 117.3 3.8 L 117.3 19.8 Z M 136.9 14.1 C 136.9 18.2 134.3 19.9 131.7 19.9 C 129.8 19.9 128.5 19 127.9 17.8 C 127.89 17.83 127.9 24.1 127.9 24.1 L 126.4 24.1 L 126.4 8.5 L 127.8 8.5 C 127.8 8.5 127.85 10.88 127.8 10.9 C 128.4 9.5 129.8 8.3 131.9 8.3 C 134.3 8.3 136.9 10 136.9 14.1 Z M 135.3 14.1 C 135.3 11 133.5 9.8 131.6 9.8 C 129.8 9.8 127.9 11 127.9 14.2 C 127.9 17.3 129.7 18.5 131.6 18.5 C 133.5 18.5 135.3 17.3 135.3 14.1 Z M 145.1 9.8 C 145.1 9.8 144.77 9.83 144.8 9.8 C 142.4 9.8 141 11.2 141 13.8 C 141.03 13.8 141 19.8 141 19.8 L 139.5 19.8 L 139.5 8.5 L 141 8.5 C 141 8.5 141.01 10.58 141 10.6 C 141.5 9.1 142.9 8.4 144.6 8.4 C 144.65 8.38 145.1 8.4 145.1 8.4 L 145.1 9.8 Z M 146.2 14.2 C 146.2 10.5 148.4 8.3 151.5 8.3 C 154.6 8.3 156.9 10.5 156.9 14.2 C 156.9 17.8 154.6 20 151.5 20 C 148.4 20 146.2 17.8 146.2 14.2 Z M 155.3 14.1 C 155.3 11.3 153.6 9.7 151.5 9.7 C 149.3 9.7 147.8 11.4 147.8 14.2 C 147.8 17 149.5 18.6 151.6 18.6 C 153.7 18.6 155.3 16.9 155.3 14.1 Z M 170 14.1 C 170 18.2 167.4 19.9 164.8 19.9 C 162.9 19.9 161.7 19 161 17.8 C 161.03 17.83 161 24.1 161 24.1 L 159.5 24.1 L 159.5 8.5 L 161 8.5 C 161 8.5 160.98 10.88 161 10.9 C 161.5 9.5 163 8.3 165 8.3 C 167.5 8.3 170 10 170 14.1 Z M 168.4 14.1 C 168.4 11 166.7 9.8 164.8 9.8 C 162.9 9.8 161 11 161 14.2 C 161 17.3 162.9 18.5 164.7 18.5 C 166.6 18.5 168.4 17.3 168.4 14.1 Z M 173.4 14.5 C 173.5 17.3 175.2 18.6 177.2 18.6 C 178.7 18.6 180.1 17.9 180.5 16.3 C 180.5 16.3 181.9 16.3 181.9 16.3 C 181.4 18.9 179.2 20 177.1 20 C 174.4 20 171.9 18.2 171.9 14.2 C 171.9 10.1 174.4 8.3 177.2 8.3 C 179.8 8.3 182 10 182 13.8 C 182 13.75 182 14.5 182 14.5 C 182 14.5 173.42 14.51 173.4 14.5 Z M 173.5 13.2 C 173.5 13.2 180.5 13.2 180.5 13.2 C 180.5 10.9 179 9.7 177.1 9.7 C 175.3 9.7 173.7 10.8 173.5 13.2 Z M 190.3 9.8 C 190.3 9.8 189.9 9.83 189.9 9.8 C 187.5 9.8 186.2 11.2 186.2 13.8 C 186.16 13.8 186.2 19.8 186.2 19.8 L 184.6 19.8 L 184.6 8.5 L 186.1 8.5 C 186.1 8.5 186.14 10.58 186.1 10.6 C 186.7 9.1 188 8.4 189.8 8.4 C 189.77 8.38 190.3 8.4 190.3 8.4 L 190.3 9.8 Z M 197.8 19.8 C 197.8 19.8 196.16 19.78 196.2 19.8 C 194.7 19.8 193.3 19.3 193.3 16.8 C 193.32 16.82 193.3 9.9 193.3 9.9 L 191.1 9.9 L 191.1 8.5 L 193.3 8.5 L 193.3 5.3 L 194.9 4.9 L 194.9 8.5 L 197.6 8.5 L 197.6 9.9 L 194.9 9.9 C 194.9 9.9 194.86 16.8 194.9 16.8 C 194.9 17.8 195.2 18.4 196.4 18.4 C 196.41 18.4 197.8 18.4 197.8 18.4 L 197.8 19.8 Z M 203.3 21.9 C 202.9 23.1 201.9 23.5 200.7 23.5 C 200.74 23.48 199.6 23.5 199.6 23.5 L 199.6 22.1 C 199.6 22.1 200.53 22.11 200.5 22.1 C 201.5 22.1 202 21.8 202.3 20.8 C 202.33 20.79 202.9 19.3 202.9 19.3 L 198.7 8.5 L 200.3 8.5 L 203.6 17.4 L 206.9 8.5 L 208.4 8.5 C 208.4 8.5 203.34 21.92 203.3 21.9 Z M 219.1 5.1 C 217.8 5.1 217.5 5.7 217.5 6.8 C 217.52 6.76 217.5 8.5 217.5 8.5 L 220 8.5 L 220 9.9 L 217.5 9.9 L 217.5 19.8 L 216 19.8 L 216 9.9 L 214.1 9.9 L 214.1 8.5 L 216 8.5 C 216 8.5 215.98 6.72 216 6.7 C 216 4.2 217.3 3.8 218.8 3.8 C 218.82 3.78 220.3 3.8 220.3 3.8 L 220.3 5.1 C 220.3 5.1 219.07 5.14 219.1 5.1 Z M 229.2 17.7 C 228.4 19.4 226.7 20 225.2 20 C 223.3 20 221.6 18.9 221.6 16.7 C 221.6 14.6 223.1 13.6 225 13.4 C 225 13.4 227.7 13 227.7 13 C 228.5 12.9 229.2 12.6 229.2 11.6 C 229.2 10.3 228.1 9.6 226.5 9.6 C 224.8 9.6 223.8 10.4 223.5 11.7 C 223.5 11.7 222 11.7 222 11.7 C 222.3 9.4 224.1 8.3 226.6 8.3 C 229.2 8.3 230.7 9.5 230.7 12 C 230.72 11.99 230.7 19.8 230.7 19.8 L 229.2 19.8 C 229.2 19.8 229.23 17.72 229.2 17.7 Z M 227.4 14.3 C 227.4 14.3 225.6 14.5 225.6 14.5 C 224.2 14.7 223.1 15.2 223.1 16.6 C 223.1 18 224.2 18.6 225.5 18.6 C 227.2 18.6 229.2 17.3 229.2 14.9 C 229.2 14.9 229.2 13.8 229.2 13.8 C 228.8 14.1 228.1 14.2 227.4 14.3 Z M 238.4 20 C 235.3 20 233.1 17.7 233.1 14.2 C 233.1 10.6 235.2 8.3 238.5 8.3 C 241 8.3 243 9.7 243.2 12.2 C 243.2 12.2 241.7 12.2 241.7 12.2 C 241.5 10.6 240.1 9.7 238.5 9.7 C 236.3 9.7 234.7 11.4 234.7 14.1 C 234.7 16.9 236.2 18.6 238.5 18.6 C 240.2 18.6 241.5 17.6 241.6 15.8 C 241.6 15.8 243.2 15.8 243.2 15.8 C 243 18.5 240.9 20 238.4 20 Z M 246.6 14.5 C 246.6 17.3 248.3 18.6 250.3 18.6 C 251.8 18.6 253.3 17.9 253.6 16.3 C 253.6 16.3 255.1 16.3 255.1 16.3 C 254.6 18.9 252.4 20 250.2 20 C 247.5 20 245 18.2 245 14.2 C 245 10.1 247.6 8.3 250.3 8.3 C 253 8.3 255.1 10 255.1 13.8 C 255.15 13.75 255.1 14.5 255.1 14.5 C 255.1 14.5 246.56 14.51 246.6 14.5 Z M 246.6 13.2 C 246.6 13.2 253.6 13.2 253.6 13.2 C 253.6 10.9 252.1 9.7 250.2 9.7 C 248.5 9.7 246.8 10.8 246.6 13.2 Z M 266.2 16.6 C 266.2 18.9 264.1 20 261.8 20 C 259.4 20 257.2 18.8 256.9 16.3 C 256.9 16.3 258.6 16.3 258.6 16.3 C 258.8 18 260.3 18.6 261.8 18.6 C 263.3 18.6 264.6 18.1 264.6 16.8 C 264.6 15.5 263.3 15.2 261.9 15 C 259.8 14.6 257.2 14.2 257.2 11.6 C 257.2 9.4 259.1 8.3 261.4 8.3 C 263.8 8.3 265.7 9.4 265.9 11.7 C 265.9 11.7 264.3 11.7 264.3 11.7 C 264.2 10.3 262.9 9.7 261.4 9.7 C 259.9 9.7 258.8 10.4 258.8 11.5 C 258.8 13 260.2 13.2 261.9 13.5 C 263.9 13.8 266.2 14.1 266.2 16.6 Z " stroke="none" fill="#000"/>  </g></svg>