<?xml version="1.0" standalone="no"?><!DOCTYPE svg PUBLIC "-//W3C//DTD SVG 1.1//EN" "http://www.w3.org/Graphics/SVG/1.1/DTD/svg11.dtd"><svg xmlns="http://www.w3.org/2000/svg" version="1.1" width="300px" height="65.4px" viewBox="0 0 300 65.4">  <desc>De lutter contre la volatilit ou de la r duire</desc>  <defs/>  <g id="Polygon9515">    <path d="M 11.5 45 L 10 45 C 10 45 10.02 42.8 10 42.8 C 9.5 44.1 8.1 45.2 6 45.2 C 3 45.2 0.9 42.9 0.9 39.3 C 0.9 35.8 3 33.5 6 33.5 C 7.9 33.5 9.3 34.4 10 35.6 C 9.95 35.62 10 29 10 29 L 11.5 29 L 11.5 45 Z M 9.9 39.3 C 9.9 36.5 8.4 34.9 6.2 34.9 C 4 34.9 2.5 36.6 2.5 39.3 C 2.5 42.1 4 43.8 6.2 43.8 C 8.4 43.8 9.9 42.1 9.9 39.3 Z M 15.6 39.7 C 15.7 42.5 17.4 43.8 19.4 43.8 C 20.9 43.8 22.3 43.1 22.7 41.5 C 22.7 41.5 24.1 41.5 24.1 41.5 C 23.6 44.1 21.4 45.2 19.3 45.2 C 16.6 45.2 14.1 43.4 14.1 39.4 C 14.1 35.3 16.7 33.5 19.4 33.5 C 22 33.5 24.2 35.2 24.2 39 C 24.21 38.95 24.2 39.7 24.2 39.7 C 24.2 39.7 15.62 39.71 15.6 39.7 Z M 15.7 38.4 C 15.7 38.4 22.7 38.4 22.7 38.4 C 22.7 36.1 21.2 34.9 19.3 34.9 C 17.5 34.9 15.9 36 15.7 38.4 Z M 33.6 45 L 32.1 45 L 32.1 29 L 33.6 29 L 33.6 45 Z M 43.9 42.9 C 43 44.6 41.3 45.2 39.9 45.2 C 38 45.2 36.2 44.1 36.2 41.9 C 36.2 39.8 37.7 38.8 39.7 38.6 C 39.7 38.6 42.3 38.2 42.3 38.2 C 43.2 38.1 43.9 37.8 43.9 36.8 C 43.9 35.5 42.8 34.8 41.2 34.8 C 39.5 34.8 38.5 35.6 38.2 36.9 C 38.2 36.9 36.7 36.9 36.7 36.9 C 37 34.6 38.8 33.5 41.3 33.5 C 43.8 33.5 45.4 34.7 45.4 37.2 C 45.4 37.19 45.4 45 45.4 45 L 43.9 45 C 43.9 45 43.91 42.92 43.9 42.9 Z M 42 39.5 C 42 39.5 40.3 39.7 40.3 39.7 C 38.9 39.9 37.8 40.4 37.8 41.8 C 37.8 43.2 38.9 43.8 40.2 43.8 C 41.9 43.8 43.9 42.5 43.9 40.1 C 43.9 40.1 43.9 39 43.9 39 C 43.4 39.3 42.8 39.4 42 39.5 Z M 59.4 35 C 59.4 35 59.07 35.03 59.1 35 C 56.7 35 55.3 36.4 55.3 39 C 55.33 39 55.3 45 55.3 45 L 53.8 45 L 53.8 33.7 L 55.3 33.7 C 55.3 33.7 55.31 35.78 55.3 35.8 C 55.8 34.3 57.2 33.6 58.9 33.6 C 58.95 33.58 59.4 33.6 59.4 33.6 L 59.4 35 Z M 66.4 31.4 L 65.1 31.4 L 67.6 27.6 L 68.9 28.6 L 66.4 31.4 Z M 62 39.7 C 62 42.5 63.8 43.8 65.8 43.8 C 67.2 43.8 68.7 43.1 69 41.5 C 69 41.5 70.5 41.5 70.5 41.5 C 70 44.1 67.8 45.2 65.7 45.2 C 63 45.2 60.5 43.4 60.5 39.4 C 60.5 35.3 63 33.5 65.7 33.5 C 68.4 33.5 70.6 35.2 70.6 39 C 70.58 38.95 70.6 39.7 70.6 39.7 C 70.6 39.7 61.99 39.71 62 39.7 Z M 62 38.4 C 62 38.4 69 38.4 69 38.4 C 69 36.1 67.6 34.9 65.7 34.9 C 63.9 34.9 62.2 36 62 38.4 Z M 83 45 L 81.5 45 C 81.5 45 81.54 42.8 81.5 42.8 C 81 44.1 79.6 45.2 77.5 45.2 C 74.6 45.2 72.5 42.9 72.5 39.3 C 72.5 35.8 74.6 33.5 77.6 33.5 C 79.5 33.5 80.9 34.4 81.5 35.6 C 81.48 35.62 81.5 29 81.5 29 L 83 29 L 83 45 Z M 81.5 39.3 C 81.5 36.5 79.9 34.9 77.7 34.9 C 75.5 34.9 74 36.6 74 39.3 C 74 42.1 75.6 43.8 77.7 43.8 C 79.9 43.8 81.5 42.1 81.5 39.3 Z M 93.8 45 C 93.8 45 93.79 42.84 93.8 42.8 C 93 44.4 91.6 45.1 90 45.1 C 87.9 45.1 86.3 43.8 86.3 41.2 C 86.27 41.16 86.3 33.7 86.3 33.7 L 87.8 33.7 C 87.8 33.7 87.8 40.97 87.8 41 C 87.8 42.8 88.8 43.8 90.3 43.8 C 92.1 43.8 93.7 42.4 93.7 39.5 C 93.72 39.54 93.7 33.7 93.7 33.7 L 95.3 33.7 L 95.3 45 L 93.8 45 Z M 100.3 29 L 98.5 29 L 98.5 30.9 L 100.3 30.9 L 100.3 29 Z M 100.1 45 L 98.6 45 L 98.6 33.7 L 100.1 33.7 L 100.1 45 Z M 109.1 35 C 109.1 35 108.78 35.03 108.8 35 C 106.4 35 105 36.4 105 39 C 105.04 39 105 45 105 45 L 103.5 45 L 103.5 33.7 L 105 33.7 C 105 33.7 105.02 35.78 105 35.8 C 105.5 34.3 106.9 33.6 108.7 33.6 C 108.65 33.58 109.1 33.6 109.1 33.6 L 109.1 35 Z M 111.7 39.7 C 111.7 42.5 113.5 43.8 115.5 43.8 C 116.9 43.8 118.4 43.1 118.8 41.5 C 118.8 41.5 120.2 41.5 120.2 41.5 C 119.7 44.1 117.5 45.2 115.4 45.2 C 112.7 45.2 110.2 43.4 110.2 39.4 C 110.2 35.3 112.7 33.5 115.4 33.5 C 118.1 33.5 120.3 35.2 120.3 39 C 120.29 38.95 120.3 39.7 120.3 39.7 C 120.3 39.7 111.7 39.71 111.7 39.7 Z M 111.7 38.4 C 111.7 38.4 118.7 38.4 118.7 38.4 C 118.7 36.1 117.3 34.9 115.4 34.9 C 113.6 34.9 111.9 36 111.7 38.4 Z " stroke="none" fill="#000"/>  </g>  <g id="Polygon9514">    <path d="M 14.3 11.6 C 14.3 15.7 11.8 19.8 6.4 19.8 C 6.45 19.78 1.9 19.8 1.9 19.8 L 1.9 4 C 1.9 4 6.72 4.03 6.7 4 C 11.8 4 14.3 7.7 14.3 11.6 Z M 12.7 11.7 C 12.7 8.5 10.7 5.4 6.6 5.4 C 6.59 5.44 3.5 5.4 3.5 5.4 L 3.5 18.3 C 3.5 18.3 6.47 18.33 6.5 18.3 C 10.6 18.3 12.7 15 12.7 11.7 Z M 18 14.5 C 18 17.3 19.7 18.6 21.7 18.6 C 23.2 18.6 24.7 17.9 25 16.3 C 25 16.3 26.5 16.3 26.5 16.3 C 26 18.9 23.8 20 21.6 20 C 18.9 20 16.4 18.2 16.4 14.2 C 16.4 10.1 19 8.3 21.7 8.3 C 24.4 8.3 26.5 10 26.5 13.8 C 26.54 13.75 26.5 14.5 26.5 14.5 C 26.5 14.5 17.95 14.51 18 14.5 Z M 18 13.2 C 18 13.2 25 13.2 25 13.2 C 25 10.9 23.5 9.7 21.6 9.7 C 19.9 9.7 18.2 10.8 18 13.2 Z M 36 19.8 L 34.4 19.8 L 34.4 3.8 L 36 3.8 L 36 19.8 Z M 46.7 19.8 C 46.7 19.8 46.72 17.64 46.7 17.6 C 45.9 19.2 44.6 19.9 43 19.9 C 40.8 19.9 39.2 18.6 39.2 16 C 39.21 15.96 39.2 8.5 39.2 8.5 L 40.7 8.5 C 40.7 8.5 40.74 15.77 40.7 15.8 C 40.7 17.6 41.7 18.6 43.2 18.6 C 45 18.6 46.7 17.2 46.7 14.3 C 46.66 14.34 46.7 8.5 46.7 8.5 L 48.2 8.5 L 48.2 19.8 L 46.7 19.8 Z M 64 19.8 C 64 19.8 62.37 19.78 62.4 19.8 C 60.9 19.8 59.5 19.3 59.5 16.8 C 59.53 16.82 59.5 9.9 59.5 9.9 L 53.7 9.9 C 53.7 9.9 53.74 16.8 53.7 16.8 C 53.7 17.8 54 18.4 55.3 18.4 C 55.29 18.4 56.7 18.4 56.7 18.4 L 56.7 19.8 C 56.7 19.8 55.04 19.78 55 19.8 C 53.5 19.8 52.2 19.3 52.2 16.8 C 52.21 16.82 52.2 9.9 52.2 9.9 L 50 9.9 L 50 8.5 L 52.2 8.5 L 52.2 5.3 L 53.7 4.9 L 53.7 8.5 L 59.5 8.5 L 59.5 5.3 L 61.1 4.9 L 61.1 8.5 L 63.8 8.5 L 63.8 9.9 L 61.1 9.9 C 61.1 9.9 61.07 16.8 61.1 16.8 C 61.1 17.8 61.4 18.4 62.6 18.4 C 62.62 18.4 64 18.4 64 18.4 L 64 19.8 Z M 67 14.5 C 67.1 17.3 68.8 18.6 70.8 18.6 C 72.3 18.6 73.8 17.9 74.1 16.3 C 74.1 16.3 75.5 16.3 75.5 16.3 C 75 18.9 72.8 20 70.7 20 C 68 20 65.5 18.2 65.5 14.2 C 65.5 10.1 68.1 8.3 70.8 8.3 C 73.4 8.3 75.6 10 75.6 13.8 C 75.62 13.75 75.6 14.5 75.6 14.5 C 75.6 14.5 67.03 14.51 67 14.5 Z M 67.1 13.2 C 67.1 13.2 74.1 13.2 74.1 13.2 C 74.1 10.9 72.6 9.7 70.7 9.7 C 68.9 9.7 67.3 10.8 67.1 13.2 Z M 83.9 9.8 C 83.9 9.8 83.52 9.83 83.5 9.8 C 81.1 9.8 79.8 11.2 79.8 13.8 C 79.78 13.8 79.8 19.8 79.8 19.8 L 78.2 19.8 L 78.2 8.5 L 79.8 8.5 C 79.8 8.5 79.76 10.58 79.8 10.6 C 80.3 9.1 81.6 8.4 83.4 8.4 C 83.39 8.38 83.9 8.4 83.9 8.4 L 83.9 9.8 Z M 95 20 C 91.9 20 89.8 17.7 89.8 14.2 C 89.8 10.6 91.9 8.3 95.1 8.3 C 97.6 8.3 99.6 9.7 99.8 12.2 C 99.8 12.2 98.3 12.2 98.3 12.2 C 98.1 10.6 96.7 9.7 95.1 9.7 C 92.9 9.7 91.3 11.4 91.3 14.1 C 91.3 16.9 92.9 18.6 95.1 18.6 C 96.8 18.6 98.1 17.6 98.3 15.8 C 98.3 15.8 99.8 15.8 99.8 15.8 C 99.6 18.5 97.5 20 95 20 Z M 101.7 14.2 C 101.7 10.5 103.9 8.3 107 8.3 C 110.1 8.3 112.3 10.5 112.3 14.2 C 112.3 17.8 110.1 20 107 20 C 103.9 20 101.7 17.8 101.7 14.2 Z M 110.8 14.1 C 110.8 11.3 109.1 9.7 107 9.7 C 104.8 9.7 103.2 11.4 103.2 14.2 C 103.2 17 104.9 18.6 107 18.6 C 109.2 18.6 110.8 16.9 110.8 14.1 Z M 124.1 12.1 C 124.13 12.05 124.1 19.8 124.1 19.8 L 122.6 19.8 C 122.6 19.8 122.6 12.24 122.6 12.2 C 122.6 10.7 121.7 9.7 120.1 9.7 C 118.2 9.7 116.5 11.1 116.5 13.9 C 116.51 13.86 116.5 19.8 116.5 19.8 L 115 19.8 L 115 8.5 L 116.5 8.5 C 116.5 8.5 116.51 10.6 116.5 10.6 C 117.2 9.3 118.4 8.3 120.4 8.3 C 122.7 8.3 124.1 9.6 124.1 12.1 Z M 132.5 19.8 C 132.5 19.8 130.87 19.78 130.9 19.8 C 129.4 19.8 128 19.3 128 16.8 C 128.04 16.82 128 9.9 128 9.9 L 125.8 9.9 L 125.8 8.5 L 128 8.5 L 128 5.3 L 129.6 4.9 L 129.6 8.5 L 132.3 8.5 L 132.3 9.9 L 129.6 9.9 C 129.6 9.9 129.57 16.8 129.6 16.8 C 129.6 17.8 129.9 18.4 131.1 18.4 C 131.12 18.4 132.5 18.4 132.5 18.4 L 132.5 19.8 Z M 140.4 9.8 C 140.4 9.8 140.01 9.83 140 9.8 C 137.6 9.8 136.3 11.2 136.3 13.8 C 136.27 13.8 136.3 19.8 136.3 19.8 L 134.7 19.8 L 134.7 8.5 L 136.2 8.5 C 136.2 8.5 136.25 10.58 136.2 10.6 C 136.8 9.1 138.1 8.4 139.9 8.4 C 139.88 8.38 140.4 8.4 140.4 8.4 L 140.4 9.8 Z M 142.9 14.5 C 143 17.3 144.7 18.6 146.7 18.6 C 148.2 18.6 149.6 17.9 150 16.3 C 150 16.3 151.4 16.3 151.4 16.3 C 150.9 18.9 148.7 20 146.6 20 C 143.9 20 141.4 18.2 141.4 14.2 C 141.4 10.1 144 8.3 146.7 8.3 C 149.3 8.3 151.5 10 151.5 13.8 C 151.51 13.75 151.5 14.5 151.5 14.5 C 151.5 14.5 142.92 14.51 142.9 14.5 Z M 143 13.2 C 143 13.2 150 13.2 150 13.2 C 150 10.9 148.5 9.7 146.6 9.7 C 144.8 9.7 143.2 10.8 143 13.2 Z M 160.9 19.8 L 159.4 19.8 L 159.4 3.8 L 160.9 3.8 L 160.9 19.8 Z M 171.2 17.7 C 170.3 19.4 168.6 20 167.2 20 C 165.3 20 163.5 18.9 163.5 16.7 C 163.5 14.6 165 13.6 167 13.4 C 167 13.4 169.6 13 169.6 13 C 170.5 12.9 171.2 12.6 171.2 11.6 C 171.2 10.3 170.1 9.6 168.5 9.6 C 166.8 9.6 165.8 10.4 165.5 11.7 C 165.5 11.7 164 11.7 164 11.7 C 164.3 9.4 166.1 8.3 168.6 8.3 C 171.1 8.3 172.7 9.5 172.7 12 C 172.7 11.99 172.7 19.8 172.7 19.8 L 171.2 19.8 C 171.2 19.8 171.21 17.72 171.2 17.7 Z M 169.3 14.3 C 169.3 14.3 167.6 14.5 167.6 14.5 C 166.2 14.7 165.1 15.2 165.1 16.6 C 165.1 18 166.2 18.6 167.5 18.6 C 169.2 18.6 171.2 17.3 171.2 14.9 C 171.2 14.9 171.2 13.8 171.2 13.8 C 170.7 14.1 170.1 14.2 169.3 14.3 Z M 185.2 19.8 L 183.5 19.8 L 179.3 8.5 L 181 8.5 L 184.4 18.2 L 187.8 8.5 L 189.4 8.5 L 185.2 19.8 Z M 190.4 14.2 C 190.4 10.5 192.6 8.3 195.7 8.3 C 198.8 8.3 201.1 10.5 201.1 14.2 C 201.1 17.8 198.9 20 195.8 20 C 192.7 20 190.4 17.8 190.4 14.2 Z M 199.5 14.1 C 199.5 11.3 197.8 9.7 195.7 9.7 C 193.5 9.7 192 11.4 192 14.2 C 192 17 193.7 18.6 195.8 18.6 C 198 18.6 199.5 16.9 199.5 14.1 Z M 205.3 19.8 L 203.7 19.8 L 203.7 3.8 L 205.3 3.8 L 205.3 19.8 Z M 215.5 17.7 C 214.7 19.4 213 20 211.5 20 C 209.6 20 207.9 18.9 207.9 16.7 C 207.9 14.6 209.4 13.6 211.3 13.4 C 211.3 13.4 214 13 214 13 C 214.8 12.9 215.5 12.6 215.5 11.6 C 215.5 10.3 214.4 9.6 212.8 9.6 C 211.1 9.6 210.1 10.4 209.9 11.7 C 209.9 11.7 208.3 11.7 208.3 11.7 C 208.6 9.4 210.4 8.3 212.9 8.3 C 215.5 8.3 217 9.5 217 12 C 217.03 11.99 217 19.8 217 19.8 L 215.5 19.8 C 215.5 19.8 215.54 17.72 215.5 17.7 Z M 213.7 14.3 C 213.7 14.3 212 14.5 212 14.5 C 210.5 14.7 209.5 15.2 209.5 16.6 C 209.5 18 210.5 18.6 211.8 18.6 C 213.5 18.6 215.5 17.3 215.5 14.9 C 215.5 14.9 215.5 13.8 215.5 13.8 C 215.1 14.1 214.4 14.2 213.7 14.3 Z M 225.3 19.8 C 225.3 19.8 223.67 19.78 223.7 19.8 C 222.2 19.8 220.8 19.3 220.8 16.8 C 220.83 16.82 220.8 9.9 220.8 9.9 L 218.6 9.9 L 218.6 8.5 L 220.8 8.5 L 220.8 5.3 L 222.4 4.9 L 222.4 8.5 L 225.1 8.5 L 225.1 9.9 L 222.4 9.9 C 222.4 9.9 222.37 16.8 222.4 16.8 C 222.4 17.8 222.7 18.4 223.9 18.4 C 223.92 18.4 225.3 18.4 225.3 18.4 L 225.3 19.8 Z M 229.2 3.8 L 227.4 3.8 L 227.4 5.7 L 229.2 5.7 L 229.2 3.8 Z M 229.1 19.8 L 227.5 19.8 L 227.5 8.5 L 229.1 8.5 L 229.1 19.8 Z M 234 19.8 L 232.4 19.8 L 232.4 3.8 L 234 3.8 L 234 19.8 Z M 239 3.8 L 237.2 3.8 L 237.2 5.7 L 239 5.7 L 239 3.8 Z M 238.9 19.8 L 237.3 19.8 L 237.3 8.5 L 238.9 8.5 L 238.9 19.8 Z M 247.4 19.8 C 247.4 19.8 245.7 19.78 245.7 19.8 C 244.2 19.8 242.9 19.3 242.9 16.8 C 242.86 16.82 242.9 9.9 242.9 9.9 L 240.6 9.9 L 240.6 8.5 L 242.9 8.5 L 242.9 5.3 L 244.4 4.9 L 244.4 8.5 L 247.1 8.5 L 247.1 9.9 L 244.4 9.9 C 244.4 9.9 244.39 16.8 244.4 16.8 C 244.4 17.8 244.7 18.4 245.9 18.4 C 245.95 18.4 247.4 18.4 247.4 18.4 L 247.4 19.8 Z M 254.7 6.2 L 253.4 6.2 L 255.9 2.4 L 257.3 3.4 L 254.7 6.2 Z M 250.3 14.5 C 250.4 17.3 252.1 18.6 254.1 18.6 C 255.6 18.6 257.1 17.9 257.4 16.3 C 257.4 16.3 258.8 16.3 258.8 16.3 C 258.3 18.9 256.2 20 254 20 C 251.3 20 248.8 18.2 248.8 14.2 C 248.8 10.1 251.4 8.3 254.1 8.3 C 256.7 8.3 258.9 10 258.9 13.8 C 258.93 13.75 258.9 14.5 258.9 14.5 C 258.9 14.5 250.34 14.51 250.3 14.5 Z M 250.4 13.2 C 250.4 13.2 257.4 13.2 257.4 13.2 C 257.4 10.9 255.9 9.7 254 9.7 C 252.2 9.7 250.6 10.8 250.4 13.2 Z M 265.6 14.2 C 265.6 10.5 267.9 8.3 271 8.3 C 274.1 8.3 276.3 10.5 276.3 14.2 C 276.3 17.8 274.1 20 271 20 C 267.9 20 265.6 17.8 265.6 14.2 Z M 274.8 14.1 C 274.8 11.3 273.1 9.7 271 9.7 C 268.8 9.7 267.2 11.4 267.2 14.2 C 267.2 17 268.9 18.6 271 18.6 C 273.2 18.6 274.8 16.9 274.8 14.1 Z M 286.4 19.8 C 286.4 19.8 286.37 17.64 286.4 17.6 C 285.6 19.2 284.2 19.9 282.6 19.9 C 280.5 19.9 278.9 18.6 278.9 16 C 278.86 15.96 278.9 8.5 278.9 8.5 L 280.4 8.5 C 280.4 8.5 280.39 15.77 280.4 15.8 C 280.4 17.6 281.4 18.6 282.9 18.6 C 284.7 18.6 286.3 17.2 286.3 14.3 C 286.31 14.34 286.3 8.5 286.3 8.5 L 287.8 8.5 L 287.8 19.8 L 286.4 19.8 Z " stroke="none" fill="#000"/>  </g></svg>