<?xml version="1.0" standalone="no"?><!DOCTYPE svg PUBLIC "-//W3C//DTD SVG 1.1//EN" "http://www.w3.org/Graphics/SVG/1.1/DTD/svg11.dtd"><svg xmlns="http://www.w3.org/2000/svg" version="1.1" width="333px" height="65.4px" viewBox="0 0 333 65.4">  <desc>El turismo y la hosteler a han sufrido una recesi n c clica,</desc>  <defs/>  <g id="Polygon11515">    <path d="M 10.1 41.8 C 10.1 44.1 8 45.2 5.7 45.2 C 3.3 45.2 1.1 44 0.8 41.5 C 0.8 41.5 2.5 41.5 2.5 41.5 C 2.7 43.2 4.2 43.8 5.7 43.8 C 7.2 43.8 8.5 43.3 8.5 42 C 8.5 40.7 7.2 40.4 5.8 40.2 C 3.7 39.8 1.1 39.4 1.1 36.8 C 1.1 34.6 3 33.5 5.4 33.5 C 7.7 33.5 9.6 34.6 9.8 36.9 C 9.8 36.9 8.2 36.9 8.2 36.9 C 8.1 35.5 6.8 34.9 5.3 34.9 C 3.8 34.9 2.7 35.6 2.7 36.7 C 2.7 38.2 4.1 38.4 5.8 38.7 C 7.8 39 10.1 39.3 10.1 41.8 Z M 20 45 C 20 45 19.99 42.84 20 42.8 C 19.2 44.4 17.8 45.1 16.2 45.1 C 14.1 45.1 12.5 43.8 12.5 41.2 C 12.47 41.16 12.5 33.7 12.5 33.7 L 14 33.7 C 14 33.7 14.01 40.97 14 41 C 14 42.8 15 43.8 16.5 43.8 C 18.3 43.8 19.9 42.4 19.9 39.5 C 19.93 39.54 19.9 33.7 19.9 33.7 L 21.5 33.7 L 21.5 45 L 20 45 Z M 28.4 30.3 C 27.2 30.3 26.9 30.9 26.9 32 C 26.86 31.96 26.9 33.7 26.9 33.7 L 29.4 33.7 L 29.4 35.1 L 26.9 35.1 L 26.9 45 L 25.3 45 L 25.3 35.1 L 23.5 35.1 L 23.5 33.7 L 25.3 33.7 C 25.3 33.7 25.33 31.92 25.3 31.9 C 25.3 29.4 26.7 29 28.2 29 C 28.16 28.98 29.7 29 29.7 29 L 29.7 30.3 C 29.7 30.3 28.41 30.34 28.4 30.3 Z M 37.3 35 C 37.3 35 36.92 35.03 36.9 35 C 34.5 35 33.2 36.4 33.2 39 C 33.18 39 33.2 45 33.2 45 L 31.6 45 L 31.6 33.7 L 33.2 33.7 C 33.2 33.7 33.16 35.78 33.2 35.8 C 33.7 34.3 35 33.6 36.8 33.6 C 36.79 33.58 37.3 33.6 37.3 33.6 L 37.3 35 Z M 40.9 29 L 39.2 29 L 39.2 30.9 L 40.9 30.9 L 40.9 29 Z M 40.8 45 L 39.3 45 L 39.3 33.7 L 40.8 33.7 L 40.8 45 Z M 54 45 L 52.5 45 C 52.5 45 52.5 42.8 52.5 42.8 C 52 44.1 50.6 45.2 48.5 45.2 C 45.5 45.2 43.4 42.9 43.4 39.3 C 43.4 35.8 45.5 33.5 48.5 33.5 C 50.4 33.5 51.8 34.4 52.4 35.6 C 52.44 35.62 52.4 29 52.4 29 L 54 29 L 54 45 Z M 52.4 39.3 C 52.4 36.5 50.9 34.9 48.7 34.9 C 46.5 34.9 45 36.6 45 39.3 C 45 42.1 46.5 43.8 48.7 43.8 C 50.9 43.8 52.4 42.1 52.4 39.3 Z M 56.6 39.4 C 56.6 35.7 58.8 33.5 61.9 33.5 C 65 33.5 67.3 35.7 67.3 39.4 C 67.3 43 65.1 45.2 61.9 45.2 C 58.8 45.2 56.6 43 56.6 39.4 Z M 65.7 39.3 C 65.7 36.5 64 34.9 61.9 34.9 C 59.7 34.9 58.2 36.6 58.2 39.4 C 58.2 42.2 59.9 43.8 62 43.8 C 64.2 43.8 65.7 42.1 65.7 39.3 Z M 82.6 45 C 82.6 45 82.57 42.84 82.6 42.8 C 81.8 44.4 80.4 45.1 78.8 45.1 C 76.7 45.1 75.1 43.8 75.1 41.2 C 75.05 41.16 75.1 33.7 75.1 33.7 L 76.6 33.7 C 76.6 33.7 76.59 40.97 76.6 41 C 76.6 42.8 77.6 43.8 79.1 43.8 C 80.9 43.8 82.5 42.4 82.5 39.5 C 82.51 39.54 82.5 33.7 82.5 33.7 L 84 33.7 L 84 45 L 82.6 45 Z M 96.6 37.3 C 96.56 37.25 96.6 45 96.6 45 L 95 45 C 95 45 95.02 37.44 95 37.4 C 95 35.9 94.1 34.9 92.5 34.9 C 90.6 34.9 88.9 36.3 88.9 39.1 C 88.93 39.06 88.9 45 88.9 45 L 87.4 45 L 87.4 33.7 L 88.9 33.7 C 88.9 33.7 88.93 35.8 88.9 35.8 C 89.6 34.5 90.9 33.5 92.8 33.5 C 95.1 33.5 96.6 34.8 96.6 37.3 Z M 106.7 42.9 C 105.9 44.6 104.2 45.2 102.7 45.2 C 100.8 45.2 99.1 44.1 99.1 41.9 C 99.1 39.8 100.6 38.8 102.5 38.6 C 102.5 38.6 105.2 38.2 105.2 38.2 C 106 38.1 106.7 37.8 106.7 36.8 C 106.7 35.5 105.6 34.8 104 34.8 C 102.3 34.8 101.3 35.6 101.1 36.9 C 101.1 36.9 99.5 36.9 99.5 36.9 C 99.8 34.6 101.6 33.5 104.1 33.5 C 106.7 33.5 108.2 34.7 108.2 37.2 C 108.23 37.19 108.2 45 108.2 45 L 106.7 45 C 106.7 45 106.74 42.92 106.7 42.9 Z M 104.9 39.5 C 104.9 39.5 103.2 39.7 103.2 39.7 C 101.7 39.9 100.7 40.4 100.7 41.8 C 100.7 43.2 101.7 43.8 103 43.8 C 104.7 43.8 106.7 42.5 106.7 40.1 C 106.7 40.1 106.7 39 106.7 39 C 106.3 39.3 105.6 39.4 104.9 39.5 Z M 122.3 35 C 122.3 35 121.9 35.03 121.9 35 C 119.5 35 118.2 36.4 118.2 39 C 118.17 39 118.2 45 118.2 45 L 116.6 45 L 116.6 33.7 L 118.1 33.7 C 118.1 33.7 118.14 35.78 118.1 35.8 C 118.7 34.3 120 33.6 121.8 33.6 C 121.78 33.58 122.3 33.6 122.3 33.6 L 122.3 35 Z M 124.8 39.7 C 124.9 42.5 126.6 43.8 128.6 43.8 C 130.1 43.8 131.5 43.1 131.9 41.5 C 131.9 41.5 133.3 41.5 133.3 41.5 C 132.8 44.1 130.6 45.2 128.5 45.2 C 125.8 45.2 123.3 43.4 123.3 39.4 C 123.3 35.3 125.9 33.5 128.6 33.5 C 131.2 33.5 133.4 35.2 133.4 39 C 133.41 38.95 133.4 39.7 133.4 39.7 C 133.4 39.7 124.82 39.71 124.8 39.7 Z M 124.9 38.4 C 124.9 38.4 131.9 38.4 131.9 38.4 C 131.9 36.1 130.4 34.9 128.5 34.9 C 126.7 34.9 125.1 36 124.9 38.4 Z M 140.5 45.2 C 137.4 45.2 135.3 42.9 135.3 39.4 C 135.3 35.8 137.4 33.5 140.7 33.5 C 143.2 33.5 145.2 34.9 145.3 37.4 C 145.3 37.4 143.8 37.4 143.8 37.4 C 143.7 35.8 142.3 34.9 140.6 34.9 C 138.4 34.9 136.9 36.6 136.9 39.3 C 136.9 42.1 138.4 43.8 140.6 43.8 C 142.3 43.8 143.7 42.8 143.8 41 C 143.8 41 145.3 41 145.3 41 C 145.2 43.7 143 45.2 140.5 45.2 Z M 148.7 39.7 C 148.8 42.5 150.5 43.8 152.5 43.8 C 154 43.8 155.4 43.1 155.8 41.5 C 155.8 41.5 157.2 41.5 157.2 41.5 C 156.7 44.1 154.5 45.2 152.4 45.2 C 149.7 45.2 147.2 43.4 147.2 39.4 C 147.2 35.3 149.7 33.5 152.5 33.5 C 155.1 33.5 157.3 35.2 157.3 39 C 157.31 38.95 157.3 39.7 157.3 39.7 C 157.3 39.7 148.72 39.71 148.7 39.7 Z M 148.8 38.4 C 148.8 38.4 155.8 38.4 155.8 38.4 C 155.8 36.1 154.3 34.9 152.4 34.9 C 150.6 34.9 149 36 148.8 38.4 Z M 168.3 41.8 C 168.3 44.1 166.2 45.2 164 45.2 C 161.6 45.2 159.3 44 159.1 41.5 C 159.1 41.5 160.7 41.5 160.7 41.5 C 161 43.2 162.5 43.8 164 43.8 C 165.4 43.8 166.7 43.3 166.7 42 C 166.7 40.7 165.4 40.4 164.1 40.2 C 161.9 39.8 159.4 39.4 159.4 36.8 C 159.4 34.6 161.3 33.5 163.6 33.5 C 166 33.5 167.9 34.6 168 36.9 C 168 36.9 166.4 36.9 166.4 36.9 C 166.3 35.5 165 34.9 163.5 34.9 C 162 34.9 161 35.6 161 36.7 C 161 38.2 162.3 38.4 164 38.7 C 166.1 39 168.3 39.3 168.3 41.8 Z M 172.5 29 L 170.7 29 L 170.7 30.9 L 172.5 30.9 L 172.5 29 Z M 172.4 45 L 170.8 45 L 170.8 33.7 L 172.4 33.7 L 172.4 45 Z M 181 31.4 L 179.7 31.4 L 182.2 27.6 L 183.5 28.6 L 181 31.4 Z M 175 39.4 C 175 35.7 177.2 33.5 180.3 33.5 C 183.4 33.5 185.7 35.7 185.7 39.4 C 185.7 43 183.5 45.2 180.3 45.2 C 177.2 45.2 175 43 175 39.4 Z M 184.1 39.3 C 184.1 36.5 182.4 34.9 180.3 34.9 C 178.1 34.9 176.6 36.6 176.6 39.4 C 176.6 42.2 178.3 43.8 180.4 43.8 C 182.6 43.8 184.1 42.1 184.1 39.3 Z M 197.5 37.3 C 197.46 37.25 197.5 45 197.5 45 L 195.9 45 C 195.9 45 195.93 37.44 195.9 37.4 C 195.9 35.9 195 34.9 193.4 34.9 C 191.5 34.9 189.8 36.3 189.8 39.1 C 189.84 39.06 189.8 45 189.8 45 L 188.3 45 L 188.3 33.7 L 189.8 33.7 C 189.8 33.7 189.84 35.8 189.8 35.8 C 190.5 34.5 191.8 33.5 193.7 33.5 C 196 33.5 197.5 34.8 197.5 37.3 Z M 210.5 45.2 C 207.4 45.2 205.2 42.9 205.2 39.4 C 205.2 35.8 207.3 33.5 210.6 33.5 C 213.1 33.5 215.1 34.9 215.2 37.4 C 215.2 37.4 213.8 37.4 213.8 37.4 C 213.6 35.8 212.2 34.9 210.6 34.9 C 208.4 34.9 206.8 36.6 206.8 39.3 C 206.8 42.1 208.3 43.8 210.5 43.8 C 212.2 43.8 213.6 42.8 213.7 41 C 213.7 41 215.2 41 215.2 41 C 215.1 43.7 213 45.2 210.5 45.2 Z M 219.3 31.4 L 218.1 31.4 L 220.6 27.6 L 221.9 28.6 L 219.3 31.4 Z M 219.4 45 L 217.9 45 L 217.9 33.7 L 219.4 33.7 L 219.4 45 Z M 227.3 45.2 C 224.2 45.2 222 42.9 222 39.4 C 222 35.8 224.1 33.5 227.4 33.5 C 229.9 33.5 231.9 34.9 232 37.4 C 232 37.4 230.6 37.4 230.6 37.4 C 230.4 35.8 229 34.9 227.4 34.9 C 225.2 34.9 223.6 36.6 223.6 39.3 C 223.6 42.1 225.1 43.8 227.3 43.8 C 229 43.8 230.4 42.8 230.5 41 C 230.5 41 232 41 232 41 C 231.9 43.7 229.8 45.2 227.3 45.2 Z M 236.2 45 L 234.7 45 L 234.7 29 L 236.2 29 L 236.2 45 Z M 241.2 29 L 239.5 29 L 239.5 30.9 L 241.2 30.9 L 241.2 29 Z M 241.1 45 L 239.6 45 L 239.6 33.7 L 241.1 33.7 L 241.1 45 Z M 249 45.2 C 245.8 45.2 243.7 42.9 243.7 39.4 C 243.7 35.8 245.8 33.5 249.1 33.5 C 251.6 33.5 253.6 34.9 253.7 37.4 C 253.7 37.4 252.2 37.4 252.2 37.4 C 252.1 35.8 250.7 34.9 249.1 34.9 C 246.9 34.9 245.3 36.6 245.3 39.3 C 245.3 42.1 246.8 43.8 249 43.8 C 250.7 43.8 252.1 42.8 252.2 41 C 252.2 41 253.7 41 253.7 41 C 253.6 43.7 251.5 45.2 249 45.2 Z M 263.3 42.9 C 262.4 44.6 260.7 45.2 259.3 45.2 C 257.4 45.2 255.6 44.1 255.6 41.9 C 255.6 39.8 257.1 38.8 259.1 38.6 C 259.1 38.6 261.7 38.2 261.7 38.2 C 262.6 38.1 263.3 37.8 263.3 36.8 C 263.3 35.5 262.1 34.8 260.6 34.8 C 258.9 34.8 257.8 35.6 257.6 36.9 C 257.6 36.9 256.1 36.9 256.1 36.9 C 256.4 34.6 258.2 33.5 260.7 33.5 C 263.2 33.5 264.8 34.7 264.8 37.2 C 264.78 37.19 264.8 45 264.8 45 L 263.3 45 C 263.3 45 263.29 42.92 263.3 42.9 Z M 261.4 39.5 C 261.4 39.5 259.7 39.7 259.7 39.7 C 258.3 39.9 257.2 40.4 257.2 41.8 C 257.2 43.2 258.3 43.8 259.5 43.8 C 261.3 43.8 263.3 42.5 263.3 40.1 C 263.3 40.1 263.3 39 263.3 39 C 262.8 39.3 262.2 39.4 261.4 39.5 Z M 269 44.9 C 269.03 44.86 268 44.9 268 44.9 L 268 42.8 L 270.2 42.8 C 270.2 42.8 270.24 44.92 270.2 44.9 C 270.2 47.4 268.8 48.3 267.2 48.4 C 267.2 48.4 267 47.5 267 47.5 C 268.7 47.2 269 46.2 269 44.9 Z " stroke="none" fill="#000"/>  </g>  <g id="Polygon11514">    <path d="M 1.9 19.8 L 1.9 4 L 11.8 4 L 11.8 5.4 L 3.5 5.4 L 3.5 11.1 L 11.3 11.1 L 11.3 12.5 L 3.5 12.5 L 3.5 18.3 L 12.2 18.3 L 12.2 19.8 L 1.9 19.8 Z M 16.3 19.8 L 14.8 19.8 L 14.8 3.8 L 16.3 3.8 L 16.3 19.8 Z M 30.3 19.8 C 30.3 19.8 28.64 19.78 28.6 19.8 C 27.2 19.8 25.8 19.3 25.8 16.8 C 25.81 16.82 25.8 9.9 25.8 9.9 L 23.6 9.9 L 23.6 8.5 L 25.8 8.5 L 25.8 5.3 L 27.3 4.9 L 27.3 8.5 L 30.1 8.5 L 30.1 9.9 L 27.3 9.9 C 27.3 9.9 27.34 16.8 27.3 16.8 C 27.3 17.8 27.6 18.4 28.9 18.4 C 28.9 18.4 30.3 18.4 30.3 18.4 L 30.3 19.8 Z M 39.9 19.8 C 39.9 19.8 39.92 17.64 39.9 17.6 C 39.1 19.2 37.8 19.9 36.2 19.9 C 34 19.9 32.4 18.6 32.4 16 C 32.4 15.96 32.4 8.5 32.4 8.5 L 33.9 8.5 C 33.9 8.5 33.94 15.77 33.9 15.8 C 33.9 17.6 34.9 18.6 36.4 18.6 C 38.2 18.6 39.9 17.2 39.9 14.3 C 39.86 14.34 39.9 8.5 39.9 8.5 L 41.4 8.5 L 41.4 19.8 L 39.9 19.8 Z M 50.4 9.8 C 50.4 9.8 50.02 9.83 50 9.8 C 47.6 9.8 46.3 11.2 46.3 13.8 C 46.28 13.8 46.3 19.8 46.3 19.8 L 44.8 19.8 L 44.8 8.5 L 46.3 8.5 C 46.3 8.5 46.26 10.58 46.3 10.6 C 46.8 9.1 48.2 8.4 49.9 8.4 C 49.9 8.38 50.4 8.4 50.4 8.4 L 50.4 9.8 Z M 54 3.8 L 52.3 3.8 L 52.3 5.7 L 54 5.7 L 54 3.8 Z M 53.9 19.8 L 52.4 19.8 L 52.4 8.5 L 53.9 8.5 L 53.9 19.8 Z M 65.6 16.6 C 65.6 18.9 63.6 20 61.3 20 C 58.9 20 56.7 18.8 56.4 16.3 C 56.4 16.3 58.1 16.3 58.1 16.3 C 58.3 18 59.8 18.6 61.3 18.6 C 62.8 18.6 64 18.1 64 16.8 C 64 15.5 62.7 15.2 61.4 15 C 59.3 14.6 56.7 14.2 56.7 11.6 C 56.7 9.4 58.6 8.3 60.9 8.3 C 63.3 8.3 65.2 9.4 65.4 11.7 C 65.4 11.7 63.8 11.7 63.8 11.7 C 63.6 10.3 62.3 9.7 60.9 9.7 C 59.3 9.7 58.3 10.4 58.3 11.5 C 58.3 13 59.7 13.2 61.4 13.5 C 63.4 13.8 65.6 14.1 65.6 16.6 Z M 68.2 8.5 L 69.7 8.5 C 69.7 8.5 69.68 10.37 69.7 10.4 C 70.3 9 71.5 8.3 73 8.3 C 74.6 8.3 75.9 9.2 76.3 10.6 C 76.8 9.4 78 8.3 80 8.3 C 82 8.3 83.6 9.4 83.6 11.7 C 83.64 11.7 83.6 19.8 83.6 19.8 L 82.1 19.8 C 82.1 19.8 82.11 12.24 82.1 12.2 C 82.1 10.5 81 9.7 79.7 9.7 C 78 9.7 76.6 11 76.6 13.3 C 76.65 13.33 76.6 19.8 76.6 19.8 L 75.1 19.8 C 75.1 19.8 75.14 12.24 75.1 12.2 C 75.1 10.5 74.1 9.7 72.8 9.7 C 71.1 9.7 69.7 10.9 69.7 13.3 C 69.7 13.33 69.7 19.8 69.7 19.8 L 68.2 19.8 L 68.2 8.5 Z M 86.2 14.2 C 86.2 10.5 88.4 8.3 91.5 8.3 C 94.6 8.3 96.9 10.5 96.9 14.2 C 96.9 17.8 94.6 20 91.5 20 C 88.4 20 86.2 17.8 86.2 14.2 Z M 95.3 14.1 C 95.3 11.3 93.6 9.7 91.5 9.7 C 89.3 9.7 87.7 11.4 87.7 14.2 C 87.7 17 89.4 18.6 91.5 18.6 C 93.7 18.6 95.3 16.9 95.3 14.1 Z M 107.6 21.9 C 107.2 23.1 106.2 23.5 105 23.5 C 105.02 23.48 103.9 23.5 103.9 23.5 L 103.9 22.1 C 103.9 22.1 104.81 22.11 104.8 22.1 C 105.8 22.1 106.3 21.8 106.6 20.8 C 106.62 20.79 107.1 19.3 107.1 19.3 L 102.9 8.5 L 104.6 8.5 L 107.9 17.4 L 111.2 8.5 L 112.7 8.5 C 112.7 8.5 107.62 21.92 107.6 21.9 Z M 121.5 19.8 L 120 19.8 L 120 3.8 L 121.5 3.8 L 121.5 19.8 Z M 131.8 17.7 C 130.9 19.4 129.2 20 127.8 20 C 125.9 20 124.1 18.9 124.1 16.7 C 124.1 14.6 125.6 13.6 127.6 13.4 C 127.6 13.4 130.2 13 130.2 13 C 131.1 12.9 131.8 12.6 131.8 11.6 C 131.8 10.3 130.6 9.6 129.1 9.6 C 127.4 9.6 126.3 10.4 126.1 11.7 C 126.1 11.7 124.6 11.7 124.6 11.7 C 124.9 9.4 126.7 8.3 129.2 8.3 C 131.7 8.3 133.3 9.5 133.3 12 C 133.29 11.99 133.3 19.8 133.3 19.8 L 131.8 19.8 C 131.8 19.8 131.79 17.72 131.8 17.7 Z M 129.9 14.3 C 129.9 14.3 128.2 14.5 128.2 14.5 C 126.8 14.7 125.7 15.2 125.7 16.6 C 125.7 18 126.8 18.6 128 18.6 C 129.8 18.6 131.8 17.3 131.8 14.9 C 131.8 14.9 131.8 13.8 131.8 13.8 C 131.3 14.1 130.7 14.2 129.9 14.3 Z M 150.8 12.1 C 150.84 12.05 150.8 19.8 150.8 19.8 L 149.3 19.8 C 149.3 19.8 149.31 12.24 149.3 12.2 C 149.3 10.7 148.4 9.7 146.8 9.7 C 144.9 9.7 143.2 11.1 143.2 13.9 C 143.22 13.86 143.2 19.8 143.2 19.8 L 141.7 19.8 L 141.7 3.8 L 143.2 3.8 C 143.2 3.8 143.22 10.48 143.2 10.5 C 143.9 9.2 145.1 8.3 147.1 8.3 C 149.4 8.3 150.8 9.6 150.8 12.1 Z M 153.4 14.2 C 153.4 10.5 155.6 8.3 158.7 8.3 C 161.8 8.3 164 10.5 164 14.2 C 164 17.8 161.8 20 158.7 20 C 155.6 20 153.4 17.8 153.4 14.2 Z M 162.5 14.1 C 162.5 11.3 160.8 9.7 158.7 9.7 C 156.5 9.7 154.9 11.4 154.9 14.2 C 154.9 17 156.6 18.6 158.7 18.6 C 160.9 18.6 162.5 16.9 162.5 14.1 Z M 175.1 16.6 C 175.1 18.9 173 20 170.7 20 C 168.3 20 166.1 18.8 165.8 16.3 C 165.8 16.3 167.5 16.3 167.5 16.3 C 167.7 18 169.2 18.6 170.7 18.6 C 172.2 18.6 173.5 18.1 173.5 16.8 C 173.5 15.5 172.2 15.2 170.8 15 C 168.7 14.6 166.1 14.2 166.1 11.6 C 166.1 9.4 168 8.3 170.3 8.3 C 172.7 8.3 174.6 9.4 174.8 11.7 C 174.8 11.7 173.2 11.7 173.2 11.7 C 173.1 10.3 171.8 9.7 170.3 9.7 C 168.8 9.7 167.7 10.4 167.7 11.5 C 167.7 13 169.1 13.2 170.8 13.5 C 172.8 13.8 175.1 14.1 175.1 16.6 Z M 182.7 19.8 C 182.7 19.8 181.06 19.78 181.1 19.8 C 179.6 19.8 178.2 19.3 178.2 16.8 C 178.22 16.82 178.2 9.9 178.2 9.9 L 176 9.9 L 176 8.5 L 178.2 8.5 L 178.2 5.3 L 179.8 4.9 L 179.8 8.5 L 182.5 8.5 L 182.5 9.9 L 179.8 9.9 C 179.8 9.9 179.76 16.8 179.8 16.8 C 179.8 17.8 180.1 18.4 181.3 18.4 C 181.31 18.4 182.7 18.4 182.7 18.4 L 182.7 19.8 Z M 185.7 14.5 C 185.7 17.3 187.5 18.6 189.5 18.6 C 191 18.6 192.4 17.9 192.8 16.3 C 192.8 16.3 194.2 16.3 194.2 16.3 C 193.7 18.9 191.5 20 189.4 20 C 186.7 20 184.2 18.2 184.2 14.2 C 184.2 10.1 186.7 8.3 189.4 8.3 C 192.1 8.3 194.3 10 194.3 13.8 C 194.29 13.75 194.3 14.5 194.3 14.5 C 194.3 14.5 185.7 14.51 185.7 14.5 Z M 185.7 13.2 C 185.7 13.2 192.7 13.2 192.7 13.2 C 192.7 10.9 191.3 9.7 189.4 9.7 C 187.6 9.7 186 10.8 185.7 13.2 Z M 198.4 19.8 L 196.9 19.8 L 196.9 3.8 L 198.4 3.8 L 198.4 19.8 Z M 202.6 14.5 C 202.6 17.3 204.3 18.6 206.3 18.6 C 207.8 18.6 209.3 17.9 209.6 16.3 C 209.6 16.3 211.1 16.3 211.1 16.3 C 210.6 18.9 208.4 20 206.3 20 C 203.6 20 201.1 18.2 201.1 14.2 C 201.1 10.1 203.6 8.3 206.3 8.3 C 209 8.3 211.2 10 211.2 13.8 C 211.17 13.75 211.2 14.5 211.2 14.5 C 211.2 14.5 202.58 14.51 202.6 14.5 Z M 202.6 13.2 C 202.6 13.2 209.6 13.2 209.6 13.2 C 209.6 10.9 208.1 9.7 206.3 9.7 C 204.5 9.7 202.8 10.8 202.6 13.2 Z M 219.4 9.8 C 219.4 9.8 219.07 9.83 219.1 9.8 C 216.7 9.8 215.3 11.2 215.3 13.8 C 215.33 13.8 215.3 19.8 215.3 19.8 L 213.8 19.8 L 213.8 8.5 L 215.3 8.5 C 215.3 8.5 215.31 10.58 215.3 10.6 C 215.8 9.1 217.2 8.4 218.9 8.4 C 218.94 8.38 219.4 8.4 219.4 8.4 L 219.4 9.8 Z M 222.9 6.2 L 221.6 6.2 L 224.1 2.4 L 225.4 3.4 L 222.9 6.2 Z M 223 19.8 L 221.4 19.8 L 221.4 8.5 L 223 8.5 L 223 19.8 Z M 233.2 17.7 C 232.4 19.4 230.7 20 229.2 20 C 227.3 20 225.6 18.9 225.6 16.7 C 225.6 14.6 227.1 13.6 229 13.4 C 229 13.4 231.7 13 231.7 13 C 232.5 12.9 233.2 12.6 233.2 11.6 C 233.2 10.3 232.1 9.6 230.5 9.6 C 228.8 9.6 227.8 10.4 227.6 11.7 C 227.6 11.7 226 11.7 226 11.7 C 226.3 9.4 228.1 8.3 230.6 8.3 C 233.2 8.3 234.7 9.5 234.7 12 C 234.73 11.99 234.7 19.8 234.7 19.8 L 233.2 19.8 C 233.2 19.8 233.24 17.72 233.2 17.7 Z M 231.4 14.3 C 231.4 14.3 229.7 14.5 229.7 14.5 C 228.2 14.7 227.2 15.2 227.2 16.6 C 227.2 18 228.2 18.6 229.5 18.6 C 231.2 18.6 233.2 17.3 233.2 14.9 C 233.2 14.9 233.2 13.8 233.2 13.8 C 232.8 14.1 232.1 14.2 231.4 14.3 Z M 252.3 12.1 C 252.29 12.05 252.3 19.8 252.3 19.8 L 250.8 19.8 C 250.8 19.8 250.76 12.24 250.8 12.2 C 250.8 10.7 249.9 9.7 248.3 9.7 C 246.3 9.7 244.7 11.1 244.7 13.9 C 244.67 13.86 244.7 19.8 244.7 19.8 L 243.1 19.8 L 243.1 3.8 L 244.7 3.8 C 244.7 3.8 244.67 10.48 244.7 10.5 C 245.3 9.2 246.5 8.3 248.5 8.3 C 250.8 8.3 252.3 9.6 252.3 12.1 Z M 262.5 17.7 C 261.6 19.4 259.9 20 258.5 20 C 256.5 20 254.8 18.9 254.8 16.7 C 254.8 14.6 256.3 13.6 258.2 13.4 C 258.2 13.4 260.9 13 260.9 13 C 261.7 12.9 262.5 12.6 262.5 11.6 C 262.5 10.3 261.3 9.6 259.7 9.6 C 258 9.6 257 10.4 256.8 11.7 C 256.8 11.7 255.3 11.7 255.3 11.7 C 255.6 9.4 257.4 8.3 259.9 8.3 C 262.4 8.3 264 9.5 264 12 C 263.97 11.99 264 19.8 264 19.8 L 262.5 19.8 C 262.5 19.8 262.48 17.72 262.5 17.7 Z M 260.6 14.3 C 260.6 14.3 258.9 14.5 258.9 14.5 C 257.5 14.7 256.4 15.2 256.4 16.6 C 256.4 18 257.5 18.6 258.7 18.6 C 260.5 18.6 262.4 17.3 262.4 14.9 C 262.4 14.9 262.4 13.8 262.4 13.8 C 262 14.1 261.4 14.2 260.6 14.3 Z M 276.3 12.1 C 276.27 12.05 276.3 19.8 276.3 19.8 L 274.7 19.8 C 274.7 19.8 274.74 12.24 274.7 12.2 C 274.7 10.7 273.9 9.7 272.3 9.7 C 270.3 9.7 268.6 11.1 268.6 13.9 C 268.65 13.86 268.6 19.8 268.6 19.8 L 267.1 19.8 L 267.1 8.5 L 268.6 8.5 C 268.6 8.5 268.65 10.6 268.6 10.6 C 269.3 9.3 270.6 8.3 272.6 8.3 C 274.8 8.3 276.3 9.6 276.3 12.1 Z " stroke="none" fill="#000"/>  </g></svg>