<?xml version="1.0" standalone="no"?><!DOCTYPE svg PUBLIC "-//W3C//DTD SVG 1.1//EN" "http://www.w3.org/Graphics/SVG/1.1/DTD/svg11.dtd"><svg xmlns="http://www.w3.org/2000/svg" version="1.1" width="479px" height="123.4px" viewBox="0 0 479 123.4">  <desc>Die Spreads von hochverzinslichen Anleihen verengten sich und Zahlungsausf lle blieben aus sind solche Papiere nun</desc>  <defs/>  <g id="Polygon12095">    <path d="M 10.9 95.4 L 6.9 89.1 L 4.5 89.1 L 4.5 95.4 L 1.6 95.4 L 1.6 79.6 C 1.6 79.6 7.73 79.63 7.7 79.6 C 11.3 79.6 13 81.9 13 84.2 C 13 86 11.9 87.9 9.9 88.5 C 9.93 88.54 14.4 95.4 14.4 95.4 L 10.9 95.4 Z M 10.1 84.3 C 10.1 83.4 9.5 82.4 7.9 82.4 C 7.85 82.36 4.5 82.4 4.5 82.4 L 4.5 86.4 C 4.5 86.4 7.62 86.41 7.6 86.4 C 9.3 86.4 10.1 85.4 10.1 84.3 Z M 17.6 90.4 C 17.6 92.3 19 93.2 20.5 93.2 C 21.6 93.2 22.7 92.8 23 91.7 C 23 91.7 25.6 91.7 25.6 91.7 C 25.1 94.3 22.8 95.6 20.4 95.6 C 17.6 95.6 14.8 93.7 14.8 89.6 C 14.8 85.6 17.5 83.6 20.4 83.6 C 23.2 83.6 25.6 85.4 25.6 89.3 C 25.62 89.29 25.6 90.4 25.6 90.4 C 25.6 90.4 17.56 90.43 17.6 90.4 Z M 17.6 88.4 C 17.6 88.4 22.9 88.4 22.9 88.4 C 22.9 86.9 21.8 86 20.4 86 C 19.1 86 17.9 86.7 17.6 88.4 Z M 37.8 87.9 C 37.8 87.91 37.8 95.4 37.8 95.4 L 35 95.4 C 35 95.4 35.01 88.16 35 88.2 C 35 86.9 34.3 86.1 33 86.1 C 31.4 86.1 30.4 87.2 30.4 89.1 C 30.41 89.12 30.4 95.4 30.4 95.4 L 27.6 95.4 L 27.6 83.8 L 30.4 83.8 C 30.4 83.8 30.39 85.47 30.4 85.5 C 31 84.4 32 83.6 33.9 83.6 C 36.6 83.6 37.8 85.1 37.8 87.9 Z M 51.1 95.4 L 48.3 95.4 C 48.3 95.4 48.34 93.6 48.3 93.6 C 47.7 94.9 46.4 95.6 44.8 95.6 C 42.1 95.6 39.7 93.6 39.7 89.6 C 39.7 85.6 42.1 83.6 44.8 83.6 C 46.3 83.6 47.6 84.2 48.3 85.3 C 48.28 85.32 48.3 79.4 48.3 79.4 L 51.1 79.4 L 51.1 95.4 Z M 48.4 89.6 C 48.4 87.2 46.9 86.1 45.4 86.1 C 43.9 86.1 42.5 87.2 42.5 89.6 C 42.5 91.9 43.9 93.1 45.4 93.1 C 46.9 93.1 48.4 91.9 48.4 89.6 Z M 53.7 82.3 L 56.7 82.3 L 56.7 79.1 L 53.7 79.1 L 53.7 82.3 Z M 53.8 83.8 L 56.6 83.8 L 56.6 95.4 L 53.8 95.4 L 53.8 83.8 Z M 65.2 95.4 C 65.2 95.4 63.38 95.38 63.4 95.4 C 61.2 95.4 59.8 94.7 59.8 91.6 C 59.83 91.6 59.8 86.3 59.8 86.3 L 57.7 86.3 L 57.7 83.8 L 59.8 83.8 L 59.8 81.2 L 62.6 80.4 L 62.6 83.8 L 64.9 83.8 L 64.9 86.3 L 62.6 86.3 C 62.6 86.3 62.62 91.73 62.6 91.7 C 62.6 92.4 62.8 92.9 63.8 92.9 C 63.8 92.9 65.2 92.9 65.2 92.9 L 65.2 95.4 Z M 68.8 90.4 C 68.8 92.3 70.2 93.2 71.7 93.2 C 72.8 93.2 73.9 92.8 74.2 91.7 C 74.2 91.7 76.8 91.7 76.8 91.7 C 76.3 94.3 74 95.6 71.6 95.6 C 68.8 95.6 66 93.7 66 89.6 C 66 85.6 68.7 83.6 71.6 83.6 C 74.4 83.6 76.8 85.4 76.8 89.3 C 76.82 89.29 76.8 90.4 76.8 90.4 C 76.8 90.4 68.75 90.43 68.8 90.4 Z M 68.8 88.4 C 68.8 88.4 74.1 88.4 74.1 88.4 C 74.1 86.9 73 86 71.6 86 C 70.3 86 69.1 86.7 68.8 88.4 Z M 85 87.5 L 78.5 87.5 L 78.5 90 L 85 90 L 85 87.5 Z M 93.2 95.8 C 90 95.8 86.7 94 86.7 90 C 86.7 90 89.7 90 89.7 90 C 89.8 92.4 91.5 93.3 93.2 93.3 C 94.8 93.3 96.1 92.5 96.1 91.2 C 96.1 89.6 94.3 89.2 92.5 88.8 C 90.2 88.3 87.3 87.5 87.3 84.1 C 87.3 80.8 90 79.3 93 79.3 C 95.9 79.3 98.8 80.8 98.8 84 C 98.8 84 95.8 84 95.8 84 C 95.7 82.4 94.4 81.8 92.9 81.8 C 91.3 81.8 90.2 82.5 90.2 83.9 C 90.2 85.4 91.6 85.8 93.4 86.2 C 95.4 86.7 99 87.3 99 91 C 99 94.1 96.3 95.8 93.2 95.8 Z M 101 82.3 L 104 82.3 L 104 79.1 L 101 79.1 L 101 82.3 Z M 101.1 83.8 L 103.9 83.8 L 103.9 95.4 L 101.1 95.4 L 101.1 83.8 Z M 111.5 95.6 C 107.7 95.6 105.9 92.7 105.9 89.6 C 105.9 86.5 107.7 83.6 111.5 83.6 C 114.3 83.6 116.5 85.2 116.6 88 C 116.6 88 113.9 88 113.9 88 C 113.7 86.9 112.9 86.1 111.6 86.1 C 109.5 86.1 108.7 87.8 108.7 89.6 C 108.7 91.5 109.6 93 111.5 93 C 112.9 93 113.7 92.3 113.9 91.3 C 113.9 91.3 116.7 91.3 116.7 91.3 C 116.3 94.1 114.3 95.6 111.5 95.6 Z M 128.9 87.9 C 128.85 87.91 128.9 95.4 128.9 95.4 L 126.1 95.4 C 126.1 95.4 126.06 88.16 126.1 88.2 C 126.1 86.9 125.3 86.1 124 86.1 C 122.4 86.1 121.5 87.2 121.5 89.1 C 121.46 89.12 121.5 95.4 121.5 95.4 L 118.7 95.4 L 118.7 79.4 L 121.5 79.4 C 121.5 79.4 121.46 85.43 121.5 85.4 C 122.1 84.3 123.1 83.6 125 83.6 C 127.6 83.6 128.9 85.1 128.9 87.9 Z M 137.4 95.4 C 137.4 95.4 135.57 95.38 135.6 95.4 C 133.4 95.4 132 94.7 132 91.6 C 132.03 91.6 132 86.3 132 86.3 L 129.9 86.3 L 129.9 83.8 L 132 83.8 L 132 81.2 L 134.8 80.4 L 134.8 83.8 L 137.1 83.8 L 137.1 86.3 L 134.8 86.3 C 134.8 86.3 134.82 91.73 134.8 91.7 C 134.8 92.4 135 92.9 136 92.9 C 135.99 92.9 137.4 92.9 137.4 92.9 L 137.4 95.4 Z M 153.7 87.6 C 153.7 87.59 153.7 95.4 153.7 95.4 L 151 95.4 C 151 95.4 150.97 93.7 151 93.7 C 150.1 95.2 148.7 95.6 147.5 95.6 C 145.6 95.6 143.7 94.5 143.7 92 C 143.7 90.2 144.7 89 147.4 88.6 C 147.4 88.6 149.9 88.2 149.9 88.2 C 150.6 88.1 151.1 87.9 151.1 87.2 C 151.1 86.2 150.2 85.8 149.1 85.8 C 147.6 85.8 147 86.5 146.9 87.5 C 146.9 87.5 144.2 87.5 144.2 87.5 C 144.5 84.8 146.6 83.6 149.2 83.6 C 152 83.6 153.7 84.9 153.7 87.6 Z M 151 90.5 C 151 90.5 151 89.9 151 89.9 C 150.7 90 150.2 90.2 149.6 90.2 C 149.6 90.2 148.4 90.4 148.4 90.4 C 147 90.6 146.5 91.2 146.5 91.9 C 146.5 92.8 147.1 93.3 148.1 93.3 C 149.6 93.3 151 92.2 151 90.5 Z M 169.2 95.4 C 169.2 95.4 167.33 95.38 167.3 95.4 C 165.2 95.4 163.8 94.7 163.8 91.6 C 163.78 91.6 163.8 86.3 163.8 86.3 L 159.6 86.3 C 159.6 86.3 159.56 91.73 159.6 91.7 C 159.6 92.4 159.7 92.9 160.7 92.9 C 160.73 92.9 162.1 92.9 162.1 92.9 L 162.1 95.4 C 162.1 95.4 160.31 95.38 160.3 95.4 C 158.1 95.4 156.8 94.7 156.8 91.6 C 156.76 91.6 156.8 86.3 156.8 86.3 L 154.6 86.3 L 154.6 83.8 L 156.8 83.8 L 156.8 81.2 L 159.6 80.4 L 159.6 83.8 L 163.8 83.8 L 163.8 81.2 L 166.6 80.4 L 166.6 83.8 L 168.9 83.8 L 168.9 86.3 L 166.6 86.3 C 166.6 86.3 166.57 91.73 166.6 91.7 C 166.6 92.4 166.8 92.9 167.7 92.9 C 167.75 92.9 169.2 92.9 169.2 92.9 L 169.2 95.4 Z M 177.3 86.4 C 177.3 86.4 176.54 86.37 176.5 86.4 C 174.6 86.4 173.5 87.4 173.5 89.7 C 173.52 89.71 173.5 95.4 173.5 95.4 L 170.7 95.4 L 170.7 83.8 L 173.5 83.8 C 173.5 83.8 173.5 85.45 173.5 85.4 C 174.1 84.2 175.2 83.7 176.5 83.7 C 176.52 83.66 177.3 83.7 177.3 83.7 L 177.3 86.4 Z M 187.9 87.6 C 187.91 87.59 187.9 95.4 187.9 95.4 L 185.2 95.4 C 185.2 95.4 185.18 93.7 185.2 93.7 C 184.3 95.2 182.9 95.6 181.7 95.6 C 179.8 95.6 177.9 94.5 177.9 92 C 177.9 90.2 178.9 89 181.6 88.6 C 181.6 88.6 184.1 88.2 184.1 88.2 C 184.8 88.1 185.3 87.9 185.3 87.2 C 185.3 86.2 184.4 85.8 183.3 85.8 C 181.8 85.8 181.2 86.5 181.1 87.5 C 181.1 87.5 178.4 87.5 178.4 87.5 C 178.7 84.8 180.8 83.6 183.5 83.6 C 186.2 83.6 187.9 84.9 187.9 87.6 Z M 185.2 90.5 C 185.2 90.5 185.2 89.9 185.2 89.9 C 184.9 90 184.4 90.2 183.8 90.2 C 183.8 90.2 182.6 90.4 182.6 90.4 C 181.2 90.6 180.7 91.2 180.7 91.9 C 180.7 92.8 181.4 93.3 182.3 93.3 C 183.8 93.3 185.2 92.2 185.2 90.5 Z M 194.5 90.9 L 193.2 92.3 L 193.2 95.4 L 190.4 95.4 L 190.4 79.4 L 193.2 79.4 L 193.2 88.5 L 197.4 83.8 L 201 83.8 L 196.5 88.8 L 201.2 95.4 L 197.7 95.4 L 194.5 90.9 Z M 208.7 95.4 C 208.7 95.4 206.85 95.38 206.8 95.4 C 204.7 95.4 203.3 94.7 203.3 91.6 C 203.3 91.6 203.3 86.3 203.3 86.3 L 201.2 86.3 L 201.2 83.8 L 203.3 83.8 L 203.3 81.2 L 206.1 80.4 L 206.1 83.8 L 208.4 83.8 L 208.4 86.3 L 206.1 86.3 C 206.1 86.3 206.09 91.73 206.1 91.7 C 206.1 92.4 206.3 92.9 207.3 92.9 C 207.27 92.9 208.7 92.9 208.7 92.9 L 208.7 95.4 Z M 210.1 82.3 L 213.1 82.3 L 213.1 79.1 L 210.1 79.1 L 210.1 82.3 Z M 210.2 83.8 L 213 83.8 L 213 95.4 L 210.2 95.4 L 210.2 83.8 Z M 221.6 95.4 L 218.6 95.4 L 214.4 83.8 L 217.3 83.8 L 220.2 92.1 L 223 83.8 L 225.9 83.8 L 221.6 95.4 Z M 230.1 89.8 C 230.1 87.1 231.4 86.6 232.7 85.7 C 233.7 85 234.1 84.4 234.1 83.6 C 234.1 82.4 233.3 81.8 232 81.8 C 230.6 81.8 229.7 82.6 229.6 84 C 229.6 84 226.8 84 226.8 84 C 227 80.6 229.5 79.4 232.1 79.4 C 234.9 79.4 237 80.7 237 83.5 C 237 85.7 235.7 86.6 234.3 87.6 C 233.2 88.4 232.7 88.9 232.7 89.8 C 232.72 89.84 232.7 90.5 232.7 90.5 L 230.1 90.5 C 230.1 90.5 230.05 89.75 230.1 89.8 Z M 229.8 92.1 L 233 92.1 L 233 95.4 L 229.8 95.4 L 229.8 92.1 Z " stroke="none" fill="#000"/>  </g>  <g id="Polygon12094">    <path d="M 10.6 62.4 C 10.63 62.39 10.6 70.2 10.6 70.2 L 7.9 70.2 C 7.9 70.2 7.9 68.5 7.9 68.5 C 7 70 5.6 70.4 4.4 70.4 C 2.5 70.4 0.6 69.3 0.6 66.8 C 0.6 65 1.7 63.8 4.3 63.4 C 4.3 63.4 6.8 63 6.8 63 C 7.5 62.9 8 62.7 8 62 C 8 61 7.2 60.6 6 60.6 C 4.6 60.6 3.9 61.3 3.8 62.3 C 3.8 62.3 1.1 62.3 1.1 62.3 C 1.4 59.6 3.5 58.4 6.2 58.4 C 8.9 58.4 10.6 59.7 10.6 62.4 Z M 7.9 65.3 C 7.9 65.3 7.9 64.7 7.9 64.7 C 7.6 64.8 7.1 65 6.6 65 C 6.6 65 5.3 65.2 5.3 65.2 C 3.9 65.4 3.4 66 3.4 66.7 C 3.4 67.6 4.1 68.1 5 68.1 C 6.5 68.1 7.9 67 7.9 65.3 Z M 23.3 70.2 L 20.6 70.2 C 20.6 70.2 20.56 68.54 20.6 68.5 C 19.9 69.6 18.8 70.3 17.2 70.3 C 14.8 70.3 13 68.8 13 65.8 C 13.04 65.79 13 58.6 13 58.6 L 15.8 58.6 C 15.8 58.6 15.83 65.58 15.8 65.6 C 15.8 67.2 16.6 67.8 17.8 67.8 C 19.4 67.8 20.5 66.9 20.5 64.2 C 20.5 64.2 20.5 58.6 20.5 58.6 L 23.3 58.6 L 23.3 70.2 Z M 35.3 66.6 C 35.3 69.2 33 70.4 30.4 70.4 C 28 70.4 25.4 69.4 25.2 66.5 C 25.2 66.5 28 66.5 28 66.5 C 28.2 67.6 29.2 68.1 30.5 68.1 C 31.7 68.1 32.5 67.7 32.5 66.9 C 32.5 66.1 32 66 30.4 65.7 C 28.1 65.3 25.5 64.9 25.5 62.1 C 25.5 59.5 27.7 58.4 30.1 58.4 C 32.8 58.4 34.8 59.7 35 62.3 C 35 62.3 32.3 62.3 32.3 62.3 C 32.2 61.2 31.4 60.7 30.2 60.7 C 28.8 60.7 28.2 61.3 28.2 62 C 28.2 62.9 29.3 63.1 30.7 63.3 C 32.8 63.6 35.3 63.9 35.3 66.6 Z M 41.7 65.8 L 41.7 63.4 L 52.2 63.4 L 52.2 65.8 L 41.7 65.8 Z M 68.7 66.6 C 68.7 69.2 66.4 70.4 63.8 70.4 C 61.4 70.4 58.8 69.4 58.6 66.5 C 58.6 66.5 61.4 66.5 61.4 66.5 C 61.6 67.6 62.6 68.1 63.9 68.1 C 65.1 68.1 65.9 67.7 65.9 66.9 C 65.9 66.1 65.4 66 63.8 65.7 C 61.5 65.3 58.9 64.9 58.9 62.1 C 58.9 59.5 61.2 58.4 63.5 58.4 C 66.3 58.4 68.2 59.7 68.4 62.3 C 68.4 62.3 65.7 62.3 65.7 62.3 C 65.6 61.2 64.8 60.7 63.6 60.7 C 62.2 60.7 61.7 61.3 61.7 62 C 61.7 62.9 62.7 63.1 64.1 63.3 C 66.2 63.6 68.7 63.9 68.7 66.6 Z M 70.5 57.1 L 73.4 57.1 L 73.4 53.9 L 70.5 53.9 L 70.5 57.1 Z M 70.6 58.6 L 73.4 58.6 L 73.4 70.2 L 70.6 70.2 L 70.6 58.6 Z M 86.2 62.7 C 86.25 62.71 86.2 70.2 86.2 70.2 L 83.5 70.2 C 83.5 70.2 83.45 62.96 83.5 63 C 83.5 61.7 82.7 60.9 81.4 60.9 C 79.8 60.9 78.9 62 78.9 63.9 C 78.85 63.92 78.9 70.2 78.9 70.2 L 76.1 70.2 L 76.1 58.6 L 78.8 58.6 C 78.8 58.6 78.83 60.27 78.8 60.3 C 79.5 59.2 80.4 58.4 82.4 58.4 C 85 58.4 86.2 59.9 86.2 62.7 Z M 99.5 70.2 L 96.8 70.2 C 96.8 70.2 96.79 68.4 96.8 68.4 C 96.2 69.7 94.8 70.4 93.2 70.4 C 90.5 70.4 88.1 68.4 88.1 64.4 C 88.1 60.4 90.5 58.4 93.2 58.4 C 94.7 58.4 96 59 96.7 60.1 C 96.72 60.12 96.7 54.2 96.7 54.2 L 99.5 54.2 L 99.5 70.2 Z M 96.8 64.4 C 96.8 62 95.4 60.9 93.9 60.9 C 92.4 60.9 91 62 91 64.4 C 91 66.7 92.4 67.9 93.9 67.9 C 95.4 67.9 96.8 66.7 96.8 64.4 Z M 116.8 66.6 C 116.8 69.2 114.4 70.4 111.8 70.4 C 109.5 70.4 106.8 69.4 106.7 66.5 C 106.7 66.5 109.5 66.5 109.5 66.5 C 109.7 67.6 110.7 68.1 112 68.1 C 113.2 68.1 114 67.7 114 66.9 C 114 66.1 113.5 66 111.9 65.7 C 109.6 65.3 107 64.9 107 62.1 C 107 59.5 109.2 58.4 111.6 58.4 C 114.3 58.4 116.3 59.7 116.5 62.3 C 116.5 62.3 113.8 62.3 113.8 62.3 C 113.7 61.2 112.8 60.7 111.7 60.7 C 110.3 60.7 109.7 61.3 109.7 62 C 109.7 62.9 110.8 63.1 112.2 63.3 C 114.2 63.6 116.8 63.9 116.8 66.6 Z M 129.2 64.4 C 129.2 68.2 126.8 70.4 123.6 70.4 C 120.3 70.4 117.9 68.2 117.9 64.4 C 117.9 60.6 120.3 58.4 123.6 58.4 C 126.8 58.4 129.2 60.6 129.2 64.4 Z M 120.8 64.4 C 120.8 66.7 122.1 67.8 123.6 67.8 C 125.3 67.8 126.4 66.6 126.4 64.4 C 126.4 62.1 125.1 61 123.5 61 C 121.9 61 120.8 62.2 120.8 64.4 Z M 134 70.2 L 131.2 70.2 L 131.2 54.2 L 134 54.2 L 134 70.2 Z M 141.6 70.4 C 137.8 70.4 136 67.5 136 64.4 C 136 61.3 137.8 58.4 141.6 58.4 C 144.5 58.4 146.6 60 146.7 62.8 C 146.7 62.8 144 62.8 144 62.8 C 143.9 61.7 143.1 60.9 141.7 60.9 C 139.7 60.9 138.8 62.6 138.8 64.4 C 138.8 66.3 139.7 67.8 141.7 67.8 C 143 67.8 143.8 67.1 144 66.1 C 144 66.1 146.8 66.1 146.8 66.1 C 146.5 68.9 144.4 70.4 141.6 70.4 Z M 159 62.7 C 159.01 62.71 159 70.2 159 70.2 L 156.2 70.2 C 156.2 70.2 156.22 62.96 156.2 63 C 156.2 61.7 155.5 60.9 154.2 60.9 C 152.6 60.9 151.6 62 151.6 63.9 C 151.62 63.92 151.6 70.2 151.6 70.2 L 148.8 70.2 L 148.8 54.2 L 151.6 54.2 C 151.6 54.2 151.62 60.23 151.6 60.2 C 152.3 59.1 153.3 58.4 155.1 58.4 C 157.8 58.4 159 59.9 159 62.7 Z M 163.6 65.2 C 163.7 67.1 165 68 166.6 68 C 167.7 68 168.7 67.6 169.1 66.5 C 169.1 66.5 171.6 66.5 171.6 66.5 C 171.1 69.1 168.8 70.4 166.5 70.4 C 163.7 70.4 160.9 68.5 160.9 64.4 C 160.9 60.4 163.5 58.4 166.5 58.4 C 169.3 58.4 171.7 60.2 171.7 64.1 C 171.67 64.09 171.7 65.2 171.7 65.2 C 171.7 65.2 163.61 65.23 163.6 65.2 Z M 163.7 63.2 C 163.7 63.2 168.9 63.2 168.9 63.2 C 168.9 61.7 167.9 60.8 166.4 60.8 C 165.2 60.8 163.9 61.5 163.7 63.2 Z M 190.7 59.1 C 190.7 61.7 188.9 64.2 185.3 64.2 C 185.26 64.15 182 64.2 182 64.2 L 182 70.2 L 179.1 70.2 L 179.1 54.4 C 179.1 54.4 185.53 54.43 185.5 54.4 C 189 54.4 190.7 56.7 190.7 59.1 Z M 187.8 59.3 C 187.8 58.1 187 57.2 185.4 57.2 C 185.45 57.16 182 57.2 182 57.2 L 182 61.4 C 182 61.4 185.34 61.42 185.3 61.4 C 187 61.4 187.8 60.5 187.8 59.3 Z M 201.1 62.4 C 201.11 62.39 201.1 70.2 201.1 70.2 L 198.4 70.2 C 198.4 70.2 198.38 68.5 198.4 68.5 C 197.5 70 196.1 70.4 194.9 70.4 C 193 70.4 191.1 69.3 191.1 66.8 C 191.1 65 192.1 63.8 194.8 63.4 C 194.8 63.4 197.3 63 197.3 63 C 198 62.9 198.5 62.7 198.5 62 C 198.5 61 197.6 60.6 196.5 60.6 C 195 60.6 194.4 61.3 194.3 62.3 C 194.3 62.3 191.6 62.3 191.6 62.3 C 191.9 59.6 194 58.4 196.7 58.4 C 199.4 58.4 201.1 59.7 201.1 62.4 Z M 198.4 65.3 C 198.4 65.3 198.4 64.7 198.4 64.7 C 198.1 64.8 197.6 65 197 65 C 197 65 195.8 65.2 195.8 65.2 C 194.4 65.4 193.9 66 193.9 66.7 C 193.9 67.6 194.6 68.1 195.5 68.1 C 197 68.1 198.4 67 198.4 65.3 Z M 215 64.2 C 215 68.4 212.4 70.3 209.7 70.3 C 208.1 70.3 207.1 69.6 206.4 68.8 C 206.43 68.8 206.4 74.5 206.4 74.5 L 203.6 74.5 L 203.6 58.6 L 206.4 58.6 C 206.4 58.6 206.36 60.44 206.4 60.4 C 207 59.2 208.3 58.4 210 58.4 C 212.7 58.4 215 60.3 215 64.2 Z M 212.2 64.4 C 212.2 62 210.8 60.9 209.3 60.9 C 207.8 60.9 206.3 62 206.3 64.4 C 206.3 66.7 207.8 67.8 209.3 67.8 C 210.8 67.8 212.2 66.7 212.2 64.4 Z M 216.9 57.1 L 219.9 57.1 L 219.9 53.9 L 216.9 53.9 L 216.9 57.1 Z M 217 58.6 L 219.8 58.6 L 219.8 70.2 L 217 70.2 L 217 58.6 Z M 224.5 65.2 C 224.5 67.1 225.9 68 227.4 68 C 228.5 68 229.6 67.6 229.9 66.5 C 229.9 66.5 232.5 66.5 232.5 66.5 C 232 69.1 229.7 70.4 227.3 70.4 C 224.5 70.4 221.8 68.5 221.8 64.4 C 221.8 60.4 224.4 58.4 227.3 58.4 C 230.2 58.4 232.5 60.2 232.5 64.1 C 232.53 64.09 232.5 65.2 232.5 65.2 C 232.5 65.2 224.47 65.23 224.5 65.2 Z M 224.5 63.2 C 224.5 63.2 229.8 63.2 229.8 63.2 C 229.8 61.7 228.7 60.8 227.3 60.8 C 226 60.8 224.8 61.5 224.5 63.2 Z M 241.1 61.2 C 241.1 61.2 240.34 61.17 240.3 61.2 C 238.4 61.2 237.3 62.2 237.3 64.5 C 237.32 64.51 237.3 70.2 237.3 70.2 L 234.5 70.2 L 234.5 58.6 L 237.3 58.6 C 237.3 58.6 237.3 60.25 237.3 60.2 C 237.9 59 239 58.5 240.3 58.5 C 240.32 58.46 241.1 58.5 241.1 58.5 L 241.1 61.2 Z M 244.2 65.2 C 244.3 67.1 245.6 68 247.2 68 C 248.3 68 249.3 67.6 249.7 66.5 C 249.7 66.5 252.2 66.5 252.2 66.5 C 251.7 69.1 249.4 70.4 247.1 70.4 C 244.3 70.4 241.5 68.5 241.5 64.4 C 241.5 60.4 244.1 58.4 247.1 58.4 C 249.9 58.4 252.3 60.2 252.3 64.1 C 252.27 64.09 252.3 65.2 252.3 65.2 C 252.3 65.2 244.21 65.23 244.2 65.2 Z M 244.3 63.2 C 244.3 63.2 249.5 63.2 249.5 63.2 C 249.5 61.7 248.5 60.8 247 60.8 C 245.8 60.8 244.5 61.5 244.3 63.2 Z M 269.7 62.7 C 269.7 62.71 269.7 70.2 269.7 70.2 L 266.9 70.2 C 266.9 70.2 266.91 62.96 266.9 63 C 266.9 61.7 266.2 60.9 264.9 60.9 C 263.3 60.9 262.3 62 262.3 63.9 C 262.31 63.92 262.3 70.2 262.3 70.2 L 259.5 70.2 L 259.5 58.6 L 262.3 58.6 C 262.3 58.6 262.29 60.27 262.3 60.3 C 262.9 59.2 263.9 58.4 265.8 58.4 C 268.5 58.4 269.7 59.9 269.7 62.7 Z M 282.5 70.2 L 279.7 70.2 C 279.7 70.2 279.74 68.54 279.7 68.5 C 279.1 69.6 278 70.3 276.4 70.3 C 274 70.3 272.2 68.8 272.2 65.8 C 272.22 65.79 272.2 58.6 272.2 58.6 L 275 58.6 C 275 58.6 275.01 65.58 275 65.6 C 275 67.2 275.8 67.8 277 67.8 C 278.5 67.8 279.7 66.9 279.7 64.2 C 279.67 64.2 279.7 58.6 279.7 58.6 L 282.5 58.6 L 282.5 70.2 Z M 295.4 62.7 C 295.38 62.71 295.4 70.2 295.4 70.2 L 292.6 70.2 C 292.6 70.2 292.59 62.96 292.6 63 C 292.6 61.7 291.9 60.9 290.6 60.9 C 289 60.9 288 62 288 63.9 C 287.99 63.92 288 70.2 288 70.2 L 285.2 70.2 L 285.2 58.6 L 288 58.6 C 288 58.6 287.97 60.27 288 60.3 C 288.6 59.2 289.6 58.4 291.5 58.4 C 294.1 58.4 295.4 59.9 295.4 62.7 Z M 312.9 62.4 C 312.94 62.39 312.9 70.2 312.9 70.2 L 310.2 70.2 C 310.2 70.2 310.21 68.5 310.2 68.5 C 309.3 70 307.9 70.4 306.7 70.4 C 304.9 70.4 302.9 69.3 302.9 66.8 C 302.9 65 304 63.8 306.6 63.4 C 306.6 63.4 309.1 63 309.1 63 C 309.8 62.9 310.3 62.7 310.3 62 C 310.3 61 309.5 60.6 308.4 60.6 C 306.9 60.6 306.2 61.3 306.1 62.3 C 306.1 62.3 303.4 62.3 303.4 62.3 C 303.7 59.6 305.9 58.4 308.5 58.4 C 311.2 58.4 312.9 59.7 312.9 62.4 Z M 310.2 65.3 C 310.2 65.3 310.2 64.7 310.2 64.7 C 310 64.8 309.4 65 308.9 65 C 308.9 65 307.6 65.2 307.6 65.2 C 306.2 65.4 305.7 66 305.7 66.7 C 305.7 67.6 306.4 68.1 307.4 68.1 C 308.8 68.1 310.2 67 310.2 65.3 Z M 325.6 70.2 L 322.9 70.2 C 322.9 70.2 322.87 68.54 322.9 68.5 C 322.2 69.6 321.1 70.3 319.5 70.3 C 317.1 70.3 315.4 68.8 315.4 65.8 C 315.35 65.79 315.4 58.6 315.4 58.6 L 318.1 58.6 C 318.1 58.6 318.15 65.58 318.1 65.6 C 318.1 67.2 318.9 67.8 320.1 67.8 C 321.7 67.8 322.8 66.9 322.8 64.2 C 322.81 64.2 322.8 58.6 322.8 58.6 L 325.6 58.6 L 325.6 70.2 Z M 337.6 66.6 C 337.6 69.2 335.3 70.4 332.7 70.4 C 330.3 70.4 327.7 69.4 327.5 66.5 C 327.5 66.5 330.3 66.5 330.3 66.5 C 330.5 67.6 331.5 68.1 332.8 68.1 C 334 68.1 334.8 67.7 334.8 66.9 C 334.8 66.1 334.3 66 332.7 65.7 C 330.4 65.3 327.8 64.9 327.8 62.1 C 327.8 59.5 330.1 58.4 332.4 58.4 C 335.2 58.4 337.2 59.7 337.3 62.3 C 337.3 62.3 334.6 62.3 334.6 62.3 C 334.5 61.2 333.7 60.7 332.5 60.7 C 331.1 60.7 330.6 61.3 330.6 62 C 330.6 62.9 331.6 63.1 333 63.3 C 335.1 63.6 337.6 63.9 337.6 66.6 Z M 354.3 70.2 L 350.3 63.9 L 347.8 63.9 L 347.8 70.2 L 344.9 70.2 L 344.9 54.4 C 344.9 54.4 351.09 54.43 351.1 54.4 C 354.7 54.4 356.3 56.7 356.3 59 C 356.3 60.8 355.3 62.7 353.3 63.3 C 353.3 63.34 357.8 70.2 357.8 70.2 L 354.3 70.2 Z M 353.4 59.1 C 353.4 58.2 352.8 57.2 351.2 57.2 C 351.22 57.16 347.8 57.2 347.8 57.2 L 347.8 61.2 C 347.8 61.2 350.99 61.21 351 61.2 C 352.6 61.2 353.4 60.2 353.4 59.1 Z M 359.1 57.1 L 362 57.1 L 362 53.9 L 359.1 53.9 L 359.1 57.1 Z M 359.1 58.6 L 361.9 58.6 L 361.9 70.2 L 359.1 70.2 L 359.1 58.6 Z M 373.9 66.6 C 373.9 69.2 371.6 70.4 369 70.4 C 366.6 70.4 364 69.4 363.8 66.5 C 363.8 66.5 366.6 66.5 366.6 66.5 C 366.8 67.6 367.8 68.1 369.1 68.1 C 370.3 68.1 371.1 67.7 371.1 66.9 C 371.1 66.1 370.6 66 369 65.7 C 366.7 65.3 364.2 64.9 364.2 62.1 C 364.2 59.5 366.4 58.4 368.8 58.4 C 371.5 58.4 373.5 59.7 373.6 62.3 C 373.6 62.3 370.9 62.3 370.9 62.3 C 370.8 61.2 370 60.7 368.8 60.7 C 367.4 60.7 366.9 61.3 366.9 62 C 366.9 62.9 367.9 63.1 369.3 63.3 C 371.4 63.6 373.9 63.9 373.9 66.6 Z M 375.7 57.1 L 378.6 57.1 L 378.6 53.9 L 375.7 53.9 L 375.7 57.1 Z M 375.8 58.6 L 378.6 58.6 L 378.6 70.2 L 375.8 70.2 L 375.8 58.6 Z M 385.4 65.7 L 384.1 67.1 L 384.1 70.2 L 381.3 70.2 L 381.3 54.2 L 384.1 54.2 L 384.1 63.3 L 388.2 58.6 L 391.8 58.6 L 387.3 63.6 L 392 70.2 L 388.6 70.2 L 385.4 65.7 Z M 403.6 64.4 C 403.6 68.2 401.1 70.4 397.9 70.4 C 394.6 70.4 392.2 68.2 392.2 64.4 C 392.2 60.6 394.6 58.4 397.9 58.4 C 401.1 58.4 403.6 60.6 403.6 64.4 Z M 395.1 64.4 C 395.1 66.7 396.4 67.8 397.9 67.8 C 399.6 67.8 400.7 66.6 400.7 64.4 C 400.7 62.1 399.4 61 397.9 61 C 396.2 61 395.1 62.2 395.1 64.4 Z M 413.2 52.8 L 411.1 52.8 L 404.2 72.1 L 406.2 72.1 L 413.2 52.8 Z " stroke="none" fill="#000"/>  </g>  <g id="Polygon12093">    <path d="M 7.2 45 L 4.3 45 L 0 33.4 L 3 33.4 L 5.8 41.7 L 8.7 33.4 L 11.6 33.4 L 7.2 45 Z M 14.7 40 C 14.7 41.9 16.1 42.8 17.7 42.8 C 18.8 42.8 19.8 42.4 20.1 41.3 C 20.1 41.3 22.7 41.3 22.7 41.3 C 22.2 43.9 19.9 45.2 17.5 45.2 C 14.7 45.2 12 43.3 12 39.2 C 12 35.2 14.6 33.2 17.6 33.2 C 20.4 33.2 22.7 35 22.7 38.9 C 22.74 38.89 22.7 40 22.7 40 C 22.7 40 14.68 40.03 14.7 40 Z M 14.7 38 C 14.7 38 20 38 20 38 C 20 36.5 18.9 35.6 17.5 35.6 C 16.2 35.6 15 36.3 14.7 38 Z M 31.3 36 C 31.3 36 30.55 35.97 30.6 36 C 28.6 36 27.5 37 27.5 39.3 C 27.53 39.31 27.5 45 27.5 45 L 24.7 45 L 24.7 33.4 L 27.5 33.4 C 27.5 33.4 27.51 35.05 27.5 35 C 28.1 33.8 29.2 33.3 30.5 33.3 C 30.53 33.26 31.3 33.3 31.3 33.3 L 31.3 36 Z M 34.4 40 C 34.5 41.9 35.8 42.8 37.4 42.8 C 38.5 42.8 39.5 42.4 39.9 41.3 C 39.9 41.3 42.4 41.3 42.4 41.3 C 41.9 43.9 39.6 45.2 37.3 45.2 C 34.5 45.2 31.7 43.3 31.7 39.2 C 31.7 35.2 34.3 33.2 37.3 33.2 C 40.1 33.2 42.5 35 42.5 38.9 C 42.48 38.89 42.5 40 42.5 40 C 42.5 40 34.42 40.03 34.4 40 Z M 34.5 38 C 34.5 38 39.8 38 39.8 38 C 39.8 36.5 38.7 35.6 37.3 35.6 C 36 35.6 34.7 36.3 34.5 38 Z M 54.7 37.5 C 54.66 37.51 54.7 45 54.7 45 L 51.9 45 C 51.9 45 51.87 37.76 51.9 37.8 C 51.9 36.5 51.1 35.7 49.8 35.7 C 48.2 35.7 47.3 36.8 47.3 38.7 C 47.27 38.72 47.3 45 47.3 45 L 44.5 45 L 44.5 33.4 L 47.2 33.4 C 47.2 33.4 47.25 35.07 47.2 35.1 C 47.9 34 48.8 33.2 50.8 33.2 C 53.4 33.2 54.7 34.7 54.7 37.5 Z M 67.7 44.2 C 67.7 47.9 65.3 49.6 62.2 49.6 C 59.4 49.6 57.1 48.2 56.7 45.3 C 56.7 45.3 59.4 45.3 59.4 45.3 C 59.7 46.8 60.9 47.2 62.2 47.2 C 64 47.2 65 46.3 65 44.5 C 65 44.5 65 42.6 65 42.6 C 64.5 43.8 63.4 44.6 61.6 44.6 C 59 44.6 56.6 42.8 56.6 38.9 C 56.6 35 59 33.2 61.6 33.2 C 63.3 33.2 64.4 33.9 65 35 C 65.04 35.01 65 33.4 65 33.4 L 67.7 33.4 C 67.7 33.4 67.72 44.2 67.7 44.2 Z M 64.9 38.9 C 64.9 36.7 63.7 35.6 62.2 35.6 C 60.7 35.6 59.3 36.7 59.3 38.9 C 59.3 41.1 60.7 42.1 62.2 42.1 C 63.7 42.1 64.9 41.1 64.9 38.9 Z M 76.3 45 C 76.3 45 74.44 44.98 74.4 45 C 72.3 45 70.9 44.3 70.9 41.2 C 70.9 41.2 70.9 35.9 70.9 35.9 L 68.8 35.9 L 68.8 33.4 L 70.9 33.4 L 70.9 30.8 L 73.7 30 L 73.7 33.4 L 76 33.4 L 76 35.9 L 73.7 35.9 C 73.7 35.9 73.69 41.33 73.7 41.3 C 73.7 42 73.9 42.5 74.9 42.5 C 74.86 42.5 76.3 42.5 76.3 42.5 L 76.3 45 Z M 79.8 40 C 79.9 41.9 81.2 42.8 82.8 42.8 C 83.9 42.8 84.9 42.4 85.3 41.3 C 85.3 41.3 87.8 41.3 87.8 41.3 C 87.3 43.9 85 45.2 82.7 45.2 C 79.9 45.2 77.1 43.3 77.1 39.2 C 77.1 35.2 79.7 33.2 82.7 33.2 C 85.5 33.2 87.9 35 87.9 38.9 C 87.88 38.89 87.9 40 87.9 40 C 87.9 40 79.82 40.03 79.8 40 Z M 79.9 38 C 79.9 38 85.2 38 85.2 38 C 85.2 36.5 84.1 35.6 82.7 35.6 C 81.4 35.6 80.1 36.3 79.9 38 Z M 100.1 37.5 C 100.06 37.51 100.1 45 100.1 45 L 97.3 45 C 97.3 45 97.27 37.76 97.3 37.8 C 97.3 36.5 96.5 35.7 95.2 35.7 C 93.6 35.7 92.7 36.8 92.7 38.7 C 92.67 38.72 92.7 45 92.7 45 L 89.9 45 L 89.9 33.4 L 92.7 33.4 C 92.7 33.4 92.65 35.07 92.7 35.1 C 93.3 34 94.2 33.2 96.2 33.2 C 98.8 33.2 100.1 34.7 100.1 37.5 Z M 117.2 41.4 C 117.2 44 114.9 45.2 112.3 45.2 C 109.9 45.2 107.3 44.2 107.1 41.3 C 107.1 41.3 109.9 41.3 109.9 41.3 C 110.1 42.4 111.1 42.9 112.4 42.9 C 113.6 42.9 114.4 42.5 114.4 41.7 C 114.4 40.9 113.9 40.8 112.3 40.5 C 110 40.1 107.5 39.7 107.5 36.9 C 107.5 34.3 109.7 33.2 112.1 33.2 C 114.8 33.2 116.8 34.5 116.9 37.1 C 116.9 37.1 114.2 37.1 114.2 37.1 C 114.1 36 113.3 35.5 112.1 35.5 C 110.7 35.5 110.2 36.1 110.2 36.8 C 110.2 37.7 111.2 37.9 112.6 38.1 C 114.7 38.4 117.2 38.7 117.2 41.4 Z M 119 31.9 L 121.9 31.9 L 121.9 28.7 L 119 28.7 L 119 31.9 Z M 119.1 33.4 L 121.9 33.4 L 121.9 45 L 119.1 45 L 119.1 33.4 Z M 129.5 45.2 C 125.7 45.2 123.8 42.3 123.8 39.2 C 123.8 36.1 125.6 33.2 129.4 33.2 C 132.3 33.2 134.5 34.8 134.6 37.6 C 134.6 37.6 131.8 37.6 131.8 37.6 C 131.7 36.5 130.9 35.7 129.5 35.7 C 127.5 35.7 126.6 37.4 126.6 39.2 C 126.6 41.1 127.5 42.6 129.5 42.6 C 130.8 42.6 131.7 41.9 131.9 40.9 C 131.9 40.9 134.6 40.9 134.6 40.9 C 134.3 43.7 132.3 45.2 129.5 45.2 Z M 146.8 37.5 C 146.83 37.51 146.8 45 146.8 45 L 144 45 C 144 45 144.04 37.76 144 37.8 C 144 36.5 143.3 35.7 142 35.7 C 140.4 35.7 139.4 36.8 139.4 38.7 C 139.44 38.72 139.4 45 139.4 45 L 136.6 45 L 136.6 29 L 139.4 29 C 139.4 29 139.44 35.03 139.4 35 C 140.1 33.9 141.1 33.2 142.9 33.2 C 145.6 33.2 146.8 34.7 146.8 37.5 Z M 165.3 45 L 162.5 45 C 162.5 45 162.54 43.34 162.5 43.3 C 161.9 44.4 160.8 45.1 159.2 45.1 C 156.8 45.1 155 43.6 155 40.6 C 155.02 40.59 155 33.4 155 33.4 L 157.8 33.4 C 157.8 33.4 157.81 40.38 157.8 40.4 C 157.8 42 158.6 42.6 159.8 42.6 C 161.3 42.6 162.5 41.7 162.5 39 C 162.47 39 162.5 33.4 162.5 33.4 L 165.3 33.4 L 165.3 45 Z M 178.2 37.5 C 178.18 37.51 178.2 45 178.2 45 L 175.4 45 C 175.4 45 175.39 37.76 175.4 37.8 C 175.4 36.5 174.7 35.7 173.4 35.7 C 171.8 35.7 170.8 36.8 170.8 38.7 C 170.79 38.72 170.8 45 170.8 45 L 168 45 L 168 33.4 L 170.8 33.4 C 170.8 33.4 170.77 35.07 170.8 35.1 C 171.4 34 172.4 33.2 174.3 33.2 C 176.9 33.2 178.2 34.7 178.2 37.5 Z M 191.5 45 L 188.7 45 C 188.7 45 188.72 43.2 188.7 43.2 C 188.1 44.5 186.8 45.2 185.2 45.2 C 182.4 45.2 180.1 43.2 180.1 39.2 C 180.1 35.2 182.4 33.2 185.2 33.2 C 186.7 33.2 188 33.8 188.7 34.9 C 188.66 34.92 188.7 29 188.7 29 L 191.5 29 L 191.5 45 Z M 188.7 39.2 C 188.7 36.8 187.3 35.7 185.8 35.7 C 184.3 35.7 182.9 36.8 182.9 39.2 C 182.9 41.5 184.3 42.7 185.8 42.7 C 187.3 42.7 188.7 41.5 188.7 39.2 Z M 211.3 45 L 198.7 45 L 198.7 42.2 L 207.3 32 L 199 32 L 199 29.2 L 210.9 29.2 L 210.9 32 L 202.4 42.2 L 211.3 42.2 L 211.3 45 Z M 222.6 37.2 C 222.6 37.19 222.6 45 222.6 45 L 219.9 45 C 219.9 45 219.87 43.3 219.9 43.3 C 219 44.8 217.6 45.2 216.4 45.2 C 214.5 45.2 212.6 44.1 212.6 41.6 C 212.6 39.8 213.6 38.6 216.3 38.2 C 216.3 38.2 218.8 37.8 218.8 37.8 C 219.5 37.7 220 37.5 220 36.8 C 220 35.8 219.1 35.4 218 35.4 C 216.5 35.4 215.9 36.1 215.8 37.1 C 215.8 37.1 213.1 37.1 213.1 37.1 C 213.4 34.4 215.5 33.2 218.1 33.2 C 220.9 33.2 222.6 34.5 222.6 37.2 Z M 219.9 40.1 C 219.9 40.1 219.9 39.5 219.9 39.5 C 219.6 39.6 219.1 39.8 218.5 39.8 C 218.5 39.8 217.3 40 217.3 40 C 215.9 40.2 215.4 40.8 215.4 41.5 C 215.4 42.4 216 42.9 217 42.9 C 218.5 42.9 219.9 41.8 219.9 40.1 Z M 235.3 37.5 C 235.3 37.51 235.3 45 235.3 45 L 232.5 45 C 232.5 45 232.51 37.76 232.5 37.8 C 232.5 36.5 231.8 35.7 230.5 35.7 C 228.9 35.7 227.9 36.8 227.9 38.7 C 227.91 38.72 227.9 45 227.9 45 L 225.1 45 L 225.1 29 L 227.9 29 C 227.9 29 227.91 35.03 227.9 35 C 228.6 33.9 229.6 33.2 231.4 33.2 C 234.1 33.2 235.3 34.7 235.3 37.5 Z M 240.7 45 L 237.9 45 L 237.9 29 L 240.7 29 L 240.7 45 Z M 253.6 45 L 250.9 45 C 250.9 45 250.86 43.34 250.9 43.3 C 250.2 44.4 249.1 45.1 247.5 45.1 C 245.1 45.1 243.3 43.6 243.3 40.6 C 243.34 40.59 243.3 33.4 243.3 33.4 L 246.1 33.4 C 246.1 33.4 246.14 40.38 246.1 40.4 C 246.1 42 246.9 42.6 248.1 42.6 C 249.7 42.6 250.8 41.7 250.8 39 C 250.8 39 250.8 33.4 250.8 33.4 L 253.6 33.4 L 253.6 45 Z M 266.5 37.5 C 266.51 37.51 266.5 45 266.5 45 L 263.7 45 C 263.7 45 263.71 37.76 263.7 37.8 C 263.7 36.5 263 35.7 261.7 35.7 C 260.1 35.7 259.1 36.8 259.1 38.7 C 259.11 38.72 259.1 45 259.1 45 L 256.3 45 L 256.3 33.4 L 259.1 33.4 C 259.1 33.4 259.09 35.07 259.1 35.1 C 259.7 34 260.7 33.2 262.6 33.2 C 265.3 33.2 266.5 34.7 266.5 37.5 Z M 279.6 44.2 C 279.6 47.9 277.2 49.6 274 49.6 C 271.2 49.6 268.9 48.2 268.6 45.3 C 268.6 45.3 271.3 45.3 271.3 45.3 C 271.6 46.8 272.7 47.2 274 47.2 C 275.9 47.2 276.9 46.3 276.9 44.5 C 276.9 44.5 276.9 42.6 276.9 42.6 C 276.4 43.8 275.2 44.6 273.5 44.6 C 270.9 44.6 268.4 42.8 268.4 38.9 C 268.4 35 270.9 33.2 273.5 33.2 C 275.1 33.2 276.3 33.9 276.9 35 C 276.88 35.01 276.9 33.4 276.9 33.4 L 279.6 33.4 C 279.6 33.4 279.57 44.2 279.6 44.2 Z M 276.8 38.9 C 276.8 36.7 275.6 35.6 274 35.6 C 272.5 35.6 271.1 36.7 271.1 38.9 C 271.1 41.1 272.5 42.1 274 42.1 C 275.6 42.1 276.8 41.1 276.8 38.9 Z M 291.5 41.4 C 291.5 44 289.1 45.2 286.5 45.2 C 284.1 45.2 281.5 44.2 281.4 41.3 C 281.4 41.3 284.2 41.3 284.2 41.3 C 284.4 42.4 285.4 42.9 286.7 42.9 C 287.9 42.9 288.7 42.5 288.7 41.7 C 288.7 40.9 288.2 40.8 286.6 40.5 C 284.3 40.1 281.7 39.7 281.7 36.9 C 281.7 34.3 283.9 33.2 286.3 33.2 C 289 33.2 291 34.5 291.2 37.1 C 291.2 37.1 288.5 37.1 288.5 37.1 C 288.3 36 287.5 35.5 286.4 35.5 C 285 35.5 284.4 36.1 284.4 36.8 C 284.4 37.7 285.4 37.9 286.9 38.1 C 288.9 38.4 291.5 38.7 291.5 41.4 Z M 302.6 37.2 C 302.61 37.19 302.6 45 302.6 45 L 299.9 45 C 299.9 45 299.88 43.3 299.9 43.3 C 299 44.8 297.6 45.2 296.4 45.2 C 294.5 45.2 292.6 44.1 292.6 41.6 C 292.6 39.8 293.6 38.6 296.3 38.2 C 296.3 38.2 298.8 37.8 298.8 37.8 C 299.5 37.7 300 37.5 300 36.8 C 300 35.8 299.1 35.4 298 35.4 C 296.5 35.4 295.9 36.1 295.8 37.1 C 295.8 37.1 293.1 37.1 293.1 37.1 C 293.4 34.4 295.5 33.2 298.2 33.2 C 300.9 33.2 302.6 34.5 302.6 37.2 Z M 299.9 40.1 C 299.9 40.1 299.9 39.5 299.9 39.5 C 299.6 39.6 299.1 39.8 298.5 39.8 C 298.5 39.8 297.3 40 297.3 40 C 295.9 40.2 295.4 40.8 295.4 41.5 C 295.4 42.4 296.1 42.9 297 42.9 C 298.5 42.9 299.9 41.8 299.9 40.1 Z M 315.3 45 L 312.5 45 C 312.5 45 312.54 43.34 312.5 43.3 C 311.9 44.4 310.8 45.1 309.2 45.1 C 306.8 45.1 305 43.6 305 40.6 C 305.02 40.59 305 33.4 305 33.4 L 307.8 33.4 C 307.8 33.4 307.81 40.38 307.8 40.4 C 307.8 42 308.6 42.6 309.8 42.6 C 311.3 42.6 312.5 41.7 312.5 39 C 312.48 39 312.5 33.4 312.5 33.4 L 315.3 33.4 L 315.3 45 Z M 327.3 41.4 C 327.3 44 324.9 45.2 322.3 45.2 C 320 45.2 317.3 44.2 317.2 41.3 C 317.2 41.3 320 41.3 320 41.3 C 320.2 42.4 321.2 42.9 322.5 42.9 C 323.7 42.9 324.5 42.5 324.5 41.7 C 324.5 40.9 324 40.8 322.4 40.5 C 320.1 40.1 317.5 39.7 317.5 36.9 C 317.5 34.3 319.7 33.2 322.1 33.2 C 324.8 33.2 326.8 34.5 327 37.1 C 327 37.1 324.3 37.1 324.3 37.1 C 324.2 36 323.3 35.5 322.2 35.5 C 320.8 35.5 320.2 36.1 320.2 36.8 C 320.2 37.7 321.3 37.9 322.7 38.1 C 324.7 38.4 327.3 38.7 327.3 41.4 Z M 333.5 31.5 C 332.5 31.5 332.3 31.9 332.3 32.6 C 332.3 32.63 332.3 33.4 332.3 33.4 L 334.4 33.4 L 334.4 35.9 L 332.3 35.9 L 332.3 45 L 329.5 45 L 329.5 35.9 L 327.8 35.9 L 327.8 33.4 L 329.5 33.4 C 329.5 33.4 329.51 32.76 329.5 32.8 C 329.5 29.7 330.9 29 333.1 29 C 333.05 28.98 334.7 29 334.7 29 L 334.7 31.5 C 334.7 31.5 333.47 31.46 333.5 31.5 Z M 337.5 28.8 L 339.9 28.8 L 339.9 31.3 L 337.5 31.3 L 337.5 28.8 Z M 341.8 28.8 L 344.2 28.8 L 344.2 31.3 L 341.8 31.3 L 341.8 28.8 Z M 345.4 37.2 C 345.36 37.19 345.4 45 345.4 45 L 342.6 45 C 342.6 45 342.63 43.3 342.6 43.3 C 341.7 44.8 340.3 45.2 339.1 45.2 C 337.3 45.2 335.4 44.1 335.4 41.6 C 335.4 39.8 336.4 38.6 339.1 38.2 C 339.1 38.2 341.6 37.8 341.6 37.8 C 342.3 37.7 342.7 37.5 342.7 36.8 C 342.7 35.8 341.9 35.4 340.8 35.4 C 339.3 35.4 338.6 36.1 338.5 37.1 C 338.5 37.1 335.8 37.1 335.8 37.1 C 336.1 34.4 338.3 33.2 340.9 33.2 C 343.6 33.2 345.4 34.5 345.4 37.2 Z M 342.7 40.1 C 342.7 40.1 342.7 39.5 342.7 39.5 C 342.4 39.6 341.9 39.8 341.3 39.8 C 341.3 39.8 340 40 340 40 C 338.6 40.2 338.2 40.8 338.2 41.5 C 338.2 42.4 338.8 42.9 339.8 42.9 C 341.2 42.9 342.7 41.8 342.7 40.1 Z M 350.7 45 L 347.9 45 L 347.9 29 L 350.7 29 L 350.7 45 Z M 356.2 45 L 353.4 45 L 353.4 29 L 356.2 29 L 356.2 45 Z M 360.9 40 C 361 41.9 362.3 42.8 363.9 42.8 C 365 42.8 366 42.4 366.4 41.3 C 366.4 41.3 368.9 41.3 368.9 41.3 C 368.4 43.9 366.1 45.2 363.8 45.2 C 361 45.2 358.2 43.3 358.2 39.2 C 358.2 35.2 360.8 33.2 363.8 33.2 C 366.6 33.2 369 35 369 38.9 C 368.96 38.89 369 40 369 40 C 369 40 360.9 40.03 360.9 40 Z M 361 38 C 361 38 366.2 38 366.2 38 C 366.2 36.5 365.2 35.6 363.7 35.6 C 362.5 35.6 361.2 36.3 361 38 Z M 387.6 39.2 C 387.6 43.3 385.1 45.2 382.4 45.2 C 380.9 45.2 379.6 44.7 378.9 43.6 C 378.94 43.6 378.9 45 378.9 45 L 376.2 45 L 376.2 29 L 379 29 C 379 29 379 35.09 379 35.1 C 379.7 33.9 381 33.2 382.6 33.2 C 385.3 33.2 387.6 35.2 387.6 39.2 Z M 384.8 39.2 C 384.8 36.9 383.4 35.7 381.9 35.7 C 380.3 35.7 378.9 36.9 378.9 39.2 C 378.9 41.6 380.3 42.8 381.9 42.8 C 383.4 42.8 384.8 41.6 384.8 39.2 Z M 392.4 45 L 389.6 45 L 389.6 29 L 392.4 29 L 392.4 45 Z M 395 31.9 L 398 31.9 L 398 28.7 L 395 28.7 L 395 31.9 Z M 395.1 33.4 L 397.9 33.4 L 397.9 45 L 395.1 45 L 395.1 33.4 Z M 402.6 40 C 402.6 41.9 404 42.8 405.5 42.8 C 406.6 42.8 407.7 42.4 408 41.3 C 408 41.3 410.6 41.3 410.6 41.3 C 410.1 43.9 407.8 45.2 405.4 45.2 C 402.6 45.2 399.9 43.3 399.9 39.2 C 399.9 35.2 402.5 33.2 405.4 33.2 C 408.3 33.2 410.6 35 410.6 38.9 C 410.63 38.89 410.6 40 410.6 40 C 410.6 40 402.56 40.03 402.6 40 Z M 402.6 38 C 402.6 38 407.9 38 407.9 38 C 407.9 36.5 406.8 35.6 405.4 35.6 C 404.1 35.6 402.9 36.3 402.6 38 Z M 424 39.2 C 424 43.3 421.5 45.2 418.8 45.2 C 417.3 45.2 416 44.7 415.4 43.6 C 415.35 43.6 415.4 45 415.4 45 L 412.6 45 L 412.6 29 L 415.4 29 C 415.4 29 415.41 35.09 415.4 35.1 C 416.1 33.9 417.4 33.2 419 33.2 C 421.7 33.2 424 35.2 424 39.2 Z M 421.2 39.2 C 421.2 36.9 419.8 35.7 418.3 35.7 C 416.8 35.7 415.3 36.9 415.3 39.2 C 415.3 41.6 416.8 42.8 418.3 42.8 C 419.8 42.8 421.2 41.6 421.2 39.2 Z M 428 40 C 428 41.9 429.4 42.8 431 42.8 C 432 42.8 433.1 42.4 433.4 41.3 C 433.4 41.3 436 41.3 436 41.3 C 435.5 43.9 433.2 45.2 430.8 45.2 C 428 45.2 425.3 43.3 425.3 39.2 C 425.3 35.2 427.9 33.2 430.8 33.2 C 433.7 33.2 436 35 436 38.9 C 436.04 38.89 436 40 436 40 C 436 40 427.97 40.03 428 40 Z M 428 38 C 428 38 433.3 38 433.3 38 C 433.3 36.5 432.2 35.6 430.8 35.6 C 429.5 35.6 428.3 36.3 428 38 Z M 448.2 37.5 C 448.22 37.51 448.2 45 448.2 45 L 445.4 45 C 445.4 45 445.42 37.76 445.4 37.8 C 445.4 36.5 444.7 35.7 443.4 35.7 C 441.8 35.7 440.8 36.8 440.8 38.7 C 440.82 38.72 440.8 45 440.8 45 L 438 45 L 438 33.4 L 440.8 33.4 C 440.8 33.4 440.8 35.07 440.8 35.1 C 441.5 34 442.4 33.2 444.3 33.2 C 447 33.2 448.2 34.7 448.2 37.5 Z " stroke="none" fill="#000"/>  </g>  <g id="Polygon12092">    <path d="M 14.8 11.6 C 14.8 15.6 12.1 19.8 6.4 19.8 C 6.4 19.78 1.6 19.8 1.6 19.8 L 1.6 4 C 1.6 4 6.78 4.03 6.8 4 C 12.2 4 14.8 7.7 14.8 11.6 Z M 11.9 11.6 C 11.9 9.1 10.3 6.8 6.9 6.8 C 6.89 6.76 4.5 6.8 4.5 6.8 L 4.5 17 C 4.5 17 6.45 17.03 6.4 17 C 10.1 17 11.9 14.3 11.9 11.6 Z M 16.9 6.7 L 19.9 6.7 L 19.9 3.5 L 16.9 3.5 L 16.9 6.7 Z M 17 8.2 L 19.8 8.2 L 19.8 19.8 L 17 19.8 L 17 8.2 Z M 24.5 14.8 C 24.5 16.7 25.9 17.6 27.4 17.6 C 28.5 17.6 29.6 17.2 29.9 16.1 C 29.9 16.1 32.5 16.1 32.5 16.1 C 32 18.7 29.7 20 27.3 20 C 24.5 20 21.8 18.1 21.8 14 C 21.8 10 24.4 8 27.3 8 C 30.2 8 32.5 9.8 32.5 13.7 C 32.53 13.69 32.5 14.8 32.5 14.8 C 32.5 14.8 24.46 14.83 24.5 14.8 Z M 24.5 12.8 C 24.5 12.8 29.8 12.8 29.8 12.8 C 29.8 11.3 28.7 10.4 27.3 10.4 C 26 10.4 24.8 11.1 24.5 12.8 Z M 45.6 20.2 C 42.4 20.2 39.1 18.4 39.1 14.4 C 39.1 14.4 42.1 14.4 42.1 14.4 C 42.2 16.8 43.9 17.7 45.6 17.7 C 47.1 17.7 48.5 16.9 48.5 15.6 C 48.5 14 46.7 13.6 44.9 13.2 C 42.6 12.7 39.7 11.9 39.7 8.5 C 39.7 5.2 42.4 3.7 45.4 3.7 C 48.3 3.7 51.2 5.2 51.2 8.4 C 51.2 8.4 48.2 8.4 48.2 8.4 C 48.1 6.8 46.7 6.2 45.3 6.2 C 43.7 6.2 42.5 6.9 42.5 8.3 C 42.5 9.8 44 10.2 45.8 10.6 C 47.8 11.1 51.4 11.7 51.4 15.4 C 51.4 18.5 48.7 20.2 45.6 20.2 Z M 64.9 13.8 C 64.9 18 62.3 19.9 59.6 19.9 C 58 19.9 57 19.2 56.3 18.4 C 56.3 18.4 56.3 24.1 56.3 24.1 L 53.5 24.1 L 53.5 8.2 L 56.2 8.2 C 56.2 8.2 56.24 10.04 56.2 10 C 56.8 8.8 58.1 8 59.8 8 C 62.6 8 64.9 9.9 64.9 13.8 Z M 62.1 14 C 62.1 11.6 60.7 10.5 59.2 10.5 C 57.6 10.5 56.2 11.6 56.2 14 C 56.2 16.3 57.6 17.4 59.2 17.4 C 60.7 17.4 62.1 16.3 62.1 14 Z M 73.4 10.8 C 73.4 10.8 72.7 10.77 72.7 10.8 C 70.7 10.8 69.7 11.8 69.7 14.1 C 69.68 14.11 69.7 19.8 69.7 19.8 L 66.9 19.8 L 66.9 8.2 L 69.7 8.2 C 69.7 8.2 69.66 9.85 69.7 9.8 C 70.2 8.6 71.3 8.1 72.7 8.1 C 72.68 8.06 73.4 8.1 73.4 8.1 L 73.4 10.8 Z M 76.6 14.8 C 76.6 16.7 78 17.6 79.5 17.6 C 80.6 17.6 81.7 17.2 82 16.1 C 82 16.1 84.6 16.1 84.6 16.1 C 84.1 18.7 81.8 20 79.4 20 C 76.6 20 73.9 18.1 73.9 14 C 73.9 10 76.5 8 79.4 8 C 82.3 8 84.6 9.8 84.6 13.7 C 84.63 13.69 84.6 14.8 84.6 14.8 C 84.6 14.8 76.57 14.83 76.6 14.8 Z M 76.6 12.8 C 76.6 12.8 81.9 12.8 81.9 12.8 C 81.9 11.3 80.8 10.4 79.4 10.4 C 78.1 10.4 76.9 11.1 76.6 12.8 Z M 95.9 12 C 95.89 11.99 95.9 19.8 95.9 19.8 L 93.2 19.8 C 93.2 19.8 93.16 18.1 93.2 18.1 C 92.3 19.6 90.9 20 89.6 20 C 87.8 20 85.9 18.9 85.9 16.4 C 85.9 14.6 86.9 13.4 89.6 13 C 89.6 13 92.1 12.6 92.1 12.6 C 92.8 12.5 93.3 12.3 93.3 11.6 C 93.3 10.6 92.4 10.2 91.3 10.2 C 89.8 10.2 89.1 10.9 89 11.9 C 89 11.9 86.4 11.9 86.4 11.9 C 86.6 9.2 88.8 8 91.4 8 C 94.2 8 95.9 9.3 95.9 12 Z M 93.2 14.9 C 93.2 14.9 93.2 14.3 93.2 14.3 C 92.9 14.4 92.4 14.6 91.8 14.6 C 91.8 14.6 90.6 14.8 90.6 14.8 C 89.1 15 88.7 15.6 88.7 16.3 C 88.7 17.2 89.3 17.7 90.3 17.7 C 91.7 17.7 93.2 16.6 93.2 14.9 Z M 109.1 19.8 L 106.3 19.8 C 106.3 19.8 106.32 18 106.3 18 C 105.7 19.3 104.3 20 102.8 20 C 100 20 97.7 18 97.7 14 C 97.7 10 100 8 102.8 8 C 104.3 8 105.6 8.6 106.3 9.7 C 106.26 9.72 106.3 3.8 106.3 3.8 L 109.1 3.8 L 109.1 19.8 Z M 106.3 14 C 106.3 11.6 104.9 10.5 103.4 10.5 C 101.9 10.5 100.5 11.6 100.5 14 C 100.5 16.3 101.9 17.5 103.4 17.5 C 104.9 17.5 106.3 16.3 106.3 14 Z M 121 16.2 C 121 18.8 118.7 20 116.1 20 C 113.7 20 111.1 19 110.9 16.1 C 110.9 16.1 113.8 16.1 113.8 16.1 C 113.9 17.2 115 17.7 116.3 17.7 C 117.5 17.7 118.3 17.3 118.3 16.5 C 118.3 15.7 117.7 15.6 116.1 15.3 C 113.9 14.9 111.3 14.5 111.3 11.7 C 111.3 9.1 113.5 8 115.9 8 C 118.6 8 120.6 9.3 120.8 11.9 C 120.8 11.9 118 11.9 118 11.9 C 117.9 10.8 117.1 10.3 115.9 10.3 C 114.6 10.3 114 10.9 114 11.6 C 114 12.5 115 12.7 116.4 12.9 C 118.5 13.2 121 13.5 121 16.2 Z M 133.6 19.8 L 130.7 19.8 L 126.4 8.2 L 129.4 8.2 L 132.2 16.5 L 135 8.2 L 137.9 8.2 L 133.6 19.8 Z M 149.7 14 C 149.7 17.8 147.3 20 144 20 C 140.8 20 138.4 17.8 138.4 14 C 138.4 10.2 140.8 8 144 8 C 147.3 8 149.7 10.2 149.7 14 Z M 141.2 14 C 141.2 16.3 142.5 17.4 144.1 17.4 C 145.7 17.4 146.8 16.2 146.8 14 C 146.8 11.7 145.5 10.6 144 10.6 C 142.3 10.6 141.2 11.8 141.2 14 Z M 161.9 12.3 C 161.87 12.31 161.9 19.8 161.9 19.8 L 159.1 19.8 C 159.1 19.8 159.07 12.56 159.1 12.6 C 159.1 11.3 158.3 10.5 157 10.5 C 155.4 10.5 154.5 11.6 154.5 13.5 C 154.47 13.52 154.5 19.8 154.5 19.8 L 151.7 19.8 L 151.7 8.2 L 154.5 8.2 C 154.5 8.2 154.45 9.87 154.5 9.9 C 155.1 8.8 156 8 158 8 C 160.6 8 161.9 9.5 161.9 12.3 Z M 180.3 12.3 C 180.35 12.31 180.3 19.8 180.3 19.8 L 177.6 19.8 C 177.6 19.8 177.55 12.56 177.6 12.6 C 177.6 11.3 176.8 10.5 175.5 10.5 C 173.9 10.5 173 11.6 173 13.5 C 172.95 13.52 173 19.8 173 19.8 L 170.2 19.8 L 170.2 3.8 L 173 3.8 C 173 3.8 172.95 9.83 173 9.8 C 173.6 8.7 174.6 8 176.5 8 C 179.1 8 180.3 9.5 180.3 12.3 Z M 193.6 14 C 193.6 17.8 191.1 20 187.9 20 C 184.7 20 182.2 17.8 182.2 14 C 182.2 10.2 184.7 8 187.9 8 C 191.1 8 193.6 10.2 193.6 14 Z M 185.1 14 C 185.1 16.3 186.4 17.4 187.9 17.4 C 189.6 17.4 190.7 16.2 190.7 14 C 190.7 11.7 189.4 10.6 187.9 10.6 C 186.2 10.6 185.1 11.8 185.1 14 Z M 200.4 20 C 196.6 20 194.8 17.1 194.8 14 C 194.8 10.9 196.6 8 200.4 8 C 203.3 8 205.4 9.6 205.5 12.4 C 205.5 12.4 202.8 12.4 202.8 12.4 C 202.7 11.3 201.9 10.5 200.5 10.5 C 198.5 10.5 197.6 12.2 197.6 14 C 197.6 15.9 198.5 17.4 200.5 17.4 C 201.8 17.4 202.6 16.7 202.8 15.7 C 202.8 15.7 205.6 15.7 205.6 15.7 C 205.3 18.5 203.2 20 200.4 20 Z M 217.8 12.3 C 217.81 12.31 217.8 19.8 217.8 19.8 L 215 19.8 C 215 19.8 215.02 12.56 215 12.6 C 215 11.3 214.3 10.5 213 10.5 C 211.4 10.5 210.4 11.6 210.4 13.5 C 210.42 13.52 210.4 19.8 210.4 19.8 L 207.6 19.8 L 207.6 3.8 L 210.4 3.8 C 210.4 3.8 210.42 9.83 210.4 9.8 C 211.1 8.7 212.1 8 213.9 8 C 216.6 8 217.8 9.5 217.8 12.3 Z M 226.3 19.8 L 223.4 19.8 L 219.1 8.2 L 222 8.2 L 224.9 16.5 L 227.7 8.2 L 230.6 8.2 L 226.3 19.8 Z M 233.7 14.8 C 233.8 16.7 235.2 17.6 236.7 17.6 C 237.8 17.6 238.9 17.2 239.2 16.1 C 239.2 16.1 241.8 16.1 241.8 16.1 C 241.3 18.7 239 20 236.6 20 C 233.8 20 231 18.1 231 14 C 231 10 233.7 8 236.6 8 C 239.4 8 241.8 9.8 241.8 13.7 C 241.81 13.69 241.8 14.8 241.8 14.8 C 241.8 14.8 233.75 14.83 233.7 14.8 Z M 233.8 12.8 C 233.8 12.8 239.1 12.8 239.1 12.8 C 239.1 11.3 238 10.4 236.6 10.4 C 235.3 10.4 234.1 11.1 233.8 12.8 Z M 250.4 10.8 C 250.4 10.8 249.62 10.77 249.6 10.8 C 247.7 10.8 246.6 11.8 246.6 14.1 C 246.6 14.11 246.6 19.8 246.6 19.8 L 243.8 19.8 L 243.8 8.2 L 246.6 8.2 C 246.6 8.2 246.58 9.85 246.6 9.8 C 247.2 8.6 248.2 8.1 249.6 8.1 C 249.6 8.06 250.4 8.1 250.4 8.1 L 250.4 10.8 Z M 260.8 19.8 L 251 19.8 L 251 17.3 L 257.2 10.6 L 251.1 10.6 L 251.1 8.2 L 260.8 8.2 L 260.8 10.6 L 254.6 17.3 L 260.8 17.3 L 260.8 19.8 Z M 262.9 6.7 L 265.9 6.7 L 265.9 3.5 L 262.9 3.5 L 262.9 6.7 Z M 263 8.2 L 265.8 8.2 L 265.8 19.8 L 263 19.8 L 263 8.2 Z M 278.7 12.3 C 278.67 12.31 278.7 19.8 278.7 19.8 L 275.9 19.8 C 275.9 19.8 275.87 12.56 275.9 12.6 C 275.9 11.3 275.1 10.5 273.8 10.5 C 272.2 10.5 271.3 11.6 271.3 13.5 C 271.27 13.52 271.3 19.8 271.3 19.8 L 268.5 19.8 L 268.5 8.2 L 271.3 8.2 C 271.3 8.2 271.25 9.87 271.3 9.9 C 271.9 8.8 272.8 8 274.8 8 C 277.4 8 278.7 9.5 278.7 12.3 Z M 290.6 16.2 C 290.6 18.8 288.2 20 285.6 20 C 283.2 20 280.6 19 280.5 16.1 C 280.5 16.1 283.3 16.1 283.3 16.1 C 283.5 17.2 284.5 17.7 285.8 17.7 C 287 17.7 287.8 17.3 287.8 16.5 C 287.8 15.7 287.3 15.6 285.7 15.3 C 283.4 14.9 280.8 14.5 280.8 11.7 C 280.8 9.1 283 8 285.4 8 C 288.1 8 290.1 9.3 290.3 11.9 C 290.3 11.9 287.5 11.9 287.5 11.9 C 287.4 10.8 286.6 10.3 285.4 10.3 C 284.1 10.3 283.5 10.9 283.5 11.6 C 283.5 12.5 284.5 12.7 286 12.9 C 288 13.2 290.6 13.5 290.6 16.2 Z M 295.2 19.8 L 292.4 19.8 L 292.4 3.8 L 295.2 3.8 L 295.2 19.8 Z M 297.9 6.7 L 300.8 6.7 L 300.8 3.5 L 297.9 3.5 L 297.9 6.7 Z M 297.9 8.2 L 300.7 8.2 L 300.7 19.8 L 297.9 19.8 L 297.9 8.2 Z M 308.3 20 C 304.5 20 302.7 17.1 302.7 14 C 302.7 10.9 304.5 8 308.3 8 C 311.2 8 313.3 9.6 313.4 12.4 C 313.4 12.4 310.7 12.4 310.7 12.4 C 310.6 11.3 309.8 10.5 308.4 10.5 C 306.4 10.5 305.5 12.2 305.5 14 C 305.5 15.9 306.4 17.4 308.4 17.4 C 309.7 17.4 310.5 16.7 310.7 15.7 C 310.7 15.7 313.5 15.7 313.5 15.7 C 313.1 18.5 311.1 20 308.3 20 Z M 325.7 12.3 C 325.71 12.31 325.7 19.8 325.7 19.8 L 322.9 19.8 C 322.9 19.8 322.91 12.56 322.9 12.6 C 322.9 11.3 322.2 10.5 320.9 10.5 C 319.3 10.5 318.3 11.6 318.3 13.5 C 318.31 13.52 318.3 19.8 318.3 19.8 L 315.5 19.8 L 315.5 3.8 L 318.3 3.8 C 318.3 3.8 318.31 9.83 318.3 9.8 C 319 8.7 320 8 321.8 8 C 324.5 8 325.7 9.5 325.7 12.3 Z M 330.3 14.8 C 330.4 16.7 331.7 17.6 333.3 17.6 C 334.4 17.6 335.4 17.2 335.8 16.1 C 335.8 16.1 338.3 16.1 338.3 16.1 C 337.8 18.7 335.5 20 333.2 20 C 330.4 20 327.6 18.1 327.6 14 C 327.6 10 330.2 8 333.2 8 C 336 8 338.4 9.8 338.4 13.7 C 338.37 13.69 338.4 14.8 338.4 14.8 C 338.4 14.8 330.3 14.83 330.3 14.8 Z M 330.4 12.8 C 330.4 12.8 335.6 12.8 335.6 12.8 C 335.6 11.3 334.6 10.4 333.1 10.4 C 331.9 10.4 330.6 11.1 330.4 12.8 Z M 350.5 12.3 C 350.55 12.31 350.5 19.8 350.5 19.8 L 347.8 19.8 C 347.8 19.8 347.76 12.56 347.8 12.6 C 347.8 11.3 347 10.5 345.7 10.5 C 344.1 10.5 343.2 11.6 343.2 13.5 C 343.16 13.52 343.2 19.8 343.2 19.8 L 340.4 19.8 L 340.4 8.2 L 343.1 8.2 C 343.1 8.2 343.14 9.87 343.1 9.9 C 343.8 8.8 344.7 8 346.7 8 C 349.3 8 350.5 9.5 350.5 12.3 Z M 368.5 16.3 L 361.9 16.3 L 360.6 19.8 L 357.5 19.8 L 363.5 4 L 366.8 4 L 373.1 19.8 L 369.8 19.8 L 368.5 16.3 Z M 367.5 13.5 L 365.2 7.3 L 362.9 13.5 L 367.5 13.5 Z M 385 12.3 C 385.03 12.31 385 19.8 385 19.8 L 382.2 19.8 C 382.2 19.8 382.24 12.56 382.2 12.6 C 382.2 11.3 381.5 10.5 380.2 10.5 C 378.6 10.5 377.6 11.6 377.6 13.5 C 377.64 13.52 377.6 19.8 377.6 19.8 L 374.8 19.8 L 374.8 8.2 L 377.6 8.2 C 377.6 8.2 377.62 9.87 377.6 9.9 C 378.3 8.8 379.2 8 381.1 8 C 383.8 8 385 9.5 385 12.3 Z M 390.4 19.8 L 387.7 19.8 L 387.7 3.8 L 390.4 3.8 L 390.4 19.8 Z M 395.2 14.8 C 395.2 16.7 396.6 17.6 398.1 17.6 C 399.2 17.6 400.3 17.2 400.6 16.1 C 400.6 16.1 403.2 16.1 403.2 16.1 C 402.7 18.7 400.4 20 398 20 C 395.2 20 392.4 18.1 392.4 14 C 392.4 10 395.1 8 398 8 C 400.8 8 403.2 9.8 403.2 13.7 C 403.22 13.69 403.2 14.8 403.2 14.8 C 403.2 14.8 395.15 14.83 395.2 14.8 Z M 395.2 12.8 C 395.2 12.8 400.5 12.8 400.5 12.8 C 400.5 11.3 399.4 10.4 398 10.4 C 396.7 10.4 395.5 11.1 395.2 12.8 Z M 405.1 6.7 L 408.1 6.7 L 408.1 3.5 L 405.1 3.5 L 405.1 6.7 Z M 405.2 8.2 L 408 8.2 L 408 19.8 L 405.2 19.8 L 405.2 8.2 Z M 420.9 12.3 C 420.88 12.31 420.9 19.8 420.9 19.8 L 418.1 19.8 C 418.1 19.8 418.08 12.56 418.1 12.6 C 418.1 11.3 417.3 10.5 416 10.5 C 414.4 10.5 413.5 11.6 413.5 13.5 C 413.48 13.52 413.5 19.8 413.5 19.8 L 410.7 19.8 L 410.7 3.8 L 413.5 3.8 C 413.5 3.8 413.48 9.83 413.5 9.8 C 414.2 8.7 415.1 8 417 8 C 419.6 8 420.9 9.5 420.9 12.3 Z M 425.5 14.8 C 425.5 16.7 426.9 17.6 428.5 17.6 C 429.5 17.6 430.6 17.2 430.9 16.1 C 430.9 16.1 433.5 16.1 433.5 16.1 C 433 18.7 430.7 20 428.3 20 C 425.5 20 422.8 18.1 422.8 14 C 422.8 10 425.4 8 428.4 8 C 431.2 8 433.5 9.8 433.5 13.7 C 433.54 13.69 433.5 14.8 433.5 14.8 C 433.5 14.8 425.47 14.83 425.5 14.8 Z M 425.5 12.8 C 425.5 12.8 430.8 12.8 430.8 12.8 C 430.8 11.3 429.7 10.4 428.3 10.4 C 427 10.4 425.8 11.1 425.5 12.8 Z M 445.7 12.3 C 445.72 12.31 445.7 19.8 445.7 19.8 L 442.9 19.8 C 442.9 19.8 442.93 12.56 442.9 12.6 C 442.9 11.3 442.2 10.5 440.9 10.5 C 439.3 10.5 438.3 11.6 438.3 13.5 C 438.33 13.52 438.3 19.8 438.3 19.8 L 435.5 19.8 L 435.5 8.2 L 438.3 8.2 C 438.3 8.2 438.31 9.87 438.3 9.9 C 439 8.8 439.9 8 441.8 8 C 444.5 8 445.7 9.5 445.7 12.3 Z " stroke="none" fill="#000"/>  </g></svg>