<?xml version="1.0" standalone="no"?><!DOCTYPE svg PUBLIC "-//W3C//DTD SVG 1.1//EN" "http://www.w3.org/Graphics/SVG/1.1/DTD/svg11.dtd"><svg xmlns="http://www.w3.org/2000/svg" version="1.1" width="346px" height="271.4px" viewBox="0 0 346 271.4">  <desc>An lisis bottom-up para encontrar valor verdadero En Vontobel, somos inversores con un enfoque bottom-up En la desaf</desc>  <defs/>  <g id="Polygon11905">    <path d="M 6.2 231.6 C 3.1 231.6 0.9 229.3 0.9 225.8 C 0.9 222.2 3 219.9 6.3 219.9 C 8.8 219.9 10.8 221.3 11 223.8 C 11 223.8 9.5 223.8 9.5 223.8 C 9.3 222.2 7.9 221.3 6.3 221.3 C 4.1 221.3 2.5 223 2.5 225.7 C 2.5 228.5 4.1 230.2 6.3 230.2 C 8 230.2 9.3 229.2 9.4 227.4 C 9.4 227.4 11 227.4 11 227.4 C 10.8 230.1 8.7 231.6 6.2 231.6 Z M 19.2 221.4 C 19.2 221.4 18.86 221.43 18.9 221.4 C 16.5 221.4 15.1 222.8 15.1 225.4 C 15.12 225.4 15.1 231.4 15.1 231.4 L 13.6 231.4 L 13.6 220.1 L 15.1 220.1 C 15.1 220.1 15.1 222.18 15.1 222.2 C 15.6 220.7 17 220 18.7 220 C 18.73 219.98 19.2 220 19.2 220 L 19.2 221.4 Z M 21.8 226.1 C 21.8 228.9 23.5 230.2 25.5 230.2 C 27 230.2 28.5 229.5 28.8 227.9 C 28.8 227.9 30.3 227.9 30.3 227.9 C 29.8 230.5 27.6 231.6 25.5 231.6 C 22.8 231.6 20.3 229.8 20.3 225.8 C 20.3 221.7 22.8 219.9 25.5 219.9 C 28.2 219.9 30.4 221.6 30.4 225.4 C 30.37 225.35 30.4 226.1 30.4 226.1 C 30.4 226.1 21.78 226.11 21.8 226.1 Z M 21.8 224.8 C 21.8 224.8 28.8 224.8 28.8 224.8 C 28.8 222.5 27.3 221.3 25.5 221.3 C 23.7 221.3 22 222.4 21.8 224.8 Z M 33.8 226.1 C 33.8 228.9 35.5 230.2 37.5 230.2 C 39 230.2 40.5 229.5 40.8 227.9 C 40.8 227.9 42.3 227.9 42.3 227.9 C 41.8 230.5 39.6 231.6 37.4 231.6 C 34.8 231.6 32.3 229.8 32.3 225.8 C 32.3 221.7 34.8 219.9 37.5 219.9 C 40.2 219.9 42.4 221.6 42.4 225.4 C 42.36 225.35 42.4 226.1 42.4 226.1 C 42.4 226.1 33.77 226.11 33.8 226.1 Z M 33.8 224.8 C 33.8 224.8 40.8 224.8 40.8 224.8 C 40.8 222.5 39.3 221.3 37.4 221.3 C 35.7 221.3 34 222.4 33.8 224.8 Z M 45 220.1 L 46.5 220.1 C 46.5 220.1 46.49 221.97 46.5 222 C 47.1 220.6 48.3 219.9 49.8 219.9 C 51.4 219.9 52.8 220.8 53.1 222.2 C 53.6 221 54.9 219.9 56.8 219.9 C 58.8 219.9 60.5 221 60.5 223.3 C 60.46 223.3 60.5 231.4 60.5 231.4 L 58.9 231.4 C 58.9 231.4 58.93 223.84 58.9 223.8 C 58.9 222.1 57.9 221.3 56.5 221.3 C 54.9 221.3 53.5 222.6 53.5 224.9 C 53.47 224.93 53.5 231.4 53.5 231.4 L 52 231.4 C 52 231.4 51.95 223.84 52 223.8 C 52 222.1 50.9 221.3 49.6 221.3 C 47.9 221.3 46.5 222.5 46.5 224.9 C 46.51 224.93 46.5 231.4 46.5 231.4 L 45 231.4 L 45 220.1 Z M 63 225.8 C 63 222.1 65.2 219.9 68.3 219.9 C 71.4 219.9 73.7 222.1 73.7 225.8 C 73.7 229.4 71.4 231.6 68.3 231.6 C 65.2 231.6 63 229.4 63 225.8 Z M 72.1 225.7 C 72.1 222.9 70.4 221.3 68.3 221.3 C 66.1 221.3 64.6 223 64.6 225.8 C 64.6 228.6 66.3 230.2 68.4 230.2 C 70.5 230.2 72.1 228.5 72.1 225.7 Z M 84.7 228.2 C 84.7 230.5 82.6 231.6 80.3 231.6 C 77.9 231.6 75.7 230.4 75.5 227.9 C 75.5 227.9 77.1 227.9 77.1 227.9 C 77.3 229.6 78.8 230.2 80.3 230.2 C 81.8 230.2 83.1 229.7 83.1 228.4 C 83.1 227.1 81.8 226.8 80.5 226.6 C 78.3 226.2 75.7 225.8 75.7 223.2 C 75.7 221 77.7 219.9 80 219.9 C 82.4 219.9 84.3 221 84.4 223.3 C 84.4 223.3 82.8 223.3 82.8 223.3 C 82.7 221.9 81.4 221.3 79.9 221.3 C 78.4 221.3 77.3 222 77.3 223.1 C 77.3 224.6 78.7 224.8 80.4 225.1 C 82.4 225.4 84.7 225.7 84.7 228.2 Z M 100.3 235.7 C 100.3 235.7 100.27 229.22 100.3 229.2 C 99.6 230.5 98.3 231.5 96.4 231.5 C 93.9 231.5 91.3 229.8 91.3 225.6 C 91.3 221.6 93.8 219.9 96.3 219.9 C 98.3 219.9 99.7 220.9 100.3 222.1 C 100.32 222.08 100.3 220.1 100.3 220.1 L 101.8 220.1 L 101.8 235.7 L 100.3 235.7 Z M 100.3 225.7 C 100.3 222.5 98.4 221.3 96.5 221.3 C 94.6 221.3 92.9 222.5 92.9 225.7 C 92.9 228.8 94.7 230.1 96.5 230.1 C 98.4 230.1 100.3 228.8 100.3 225.7 Z M 112.5 231.4 C 112.5 231.4 112.48 229.24 112.5 229.2 C 111.7 230.8 110.3 231.5 108.7 231.5 C 106.6 231.5 105 230.2 105 227.6 C 104.96 227.56 105 220.1 105 220.1 L 106.5 220.1 C 106.5 220.1 106.49 227.37 106.5 227.4 C 106.5 229.2 107.5 230.2 109 230.2 C 110.8 230.2 112.4 228.8 112.4 225.9 C 112.41 225.94 112.4 220.1 112.4 220.1 L 113.9 220.1 L 113.9 231.4 L 112.5 231.4 Z M 118.1 226.1 C 118.1 228.9 119.8 230.2 121.8 230.2 C 123.3 230.2 124.8 229.5 125.1 227.9 C 125.1 227.9 126.6 227.9 126.6 227.9 C 126.1 230.5 123.9 231.6 121.8 231.6 C 119.1 231.6 116.6 229.8 116.6 225.8 C 116.6 221.7 119.1 219.9 121.8 219.9 C 124.5 219.9 126.7 221.6 126.7 225.4 C 126.67 225.35 126.7 226.1 126.7 226.1 C 126.7 226.1 118.08 226.11 118.1 226.1 Z M 118.1 224.8 C 118.1 224.8 125.1 224.8 125.1 224.8 C 125.1 222.5 123.6 221.3 121.8 221.3 C 120 221.3 118.3 222.4 118.1 224.8 Z M 141.5 229.3 C 140.6 231 138.9 231.6 137.5 231.6 C 135.5 231.6 133.8 230.5 133.8 228.3 C 133.8 226.2 135.3 225.2 137.2 225 C 137.2 225 139.9 224.6 139.9 224.6 C 140.7 224.5 141.5 224.2 141.5 223.2 C 141.5 221.9 140.3 221.2 138.7 221.2 C 137 221.2 136 222 135.8 223.3 C 135.8 223.3 134.3 223.3 134.3 223.3 C 134.6 221 136.4 219.9 138.9 219.9 C 141.4 219.9 143 221.1 143 223.6 C 142.97 223.59 143 231.4 143 231.4 L 141.5 231.4 C 141.5 231.4 141.48 229.32 141.5 229.3 Z M 139.6 225.9 C 139.6 225.9 137.9 226.1 137.9 226.1 C 136.5 226.3 135.4 226.8 135.4 228.2 C 135.4 229.6 136.5 230.2 137.7 230.2 C 139.5 230.2 141.4 228.9 141.4 226.5 C 141.4 226.5 141.4 225.4 141.4 225.4 C 141 225.7 140.4 225.8 139.6 225.9 Z M 154.5 228.2 C 154.5 230.5 152.4 231.6 150.1 231.6 C 147.7 231.6 145.5 230.4 145.3 227.9 C 145.3 227.9 146.9 227.9 146.9 227.9 C 147.2 229.6 148.6 230.2 150.2 230.2 C 151.6 230.2 152.9 229.7 152.9 228.4 C 152.9 227.1 151.6 226.8 150.3 226.6 C 148.1 226.2 145.6 225.8 145.6 223.2 C 145.6 221 147.5 219.9 149.8 219.9 C 152.2 219.9 154.1 221 154.2 223.3 C 154.2 223.3 152.6 223.3 152.6 223.3 C 152.5 221.9 151.2 221.3 149.7 221.3 C 148.2 221.3 147.1 222 147.1 223.1 C 147.1 224.6 148.5 224.8 150.2 225.1 C 152.2 225.4 154.5 225.7 154.5 228.2 Z M 158.5 217.8 L 157.2 217.8 L 159.7 214 L 161 215 L 158.5 217.8 Z M 158.5 231.4 L 157 231.4 L 157 220.1 L 158.5 220.1 L 158.5 231.4 Z M 175.5 228.2 C 175.5 230.5 173.5 231.6 171.2 231.6 C 168.8 231.6 166.5 230.4 166.3 227.9 C 166.3 227.9 168 227.9 168 227.9 C 168.2 229.6 169.7 230.2 171.2 230.2 C 172.7 230.2 173.9 229.7 173.9 228.4 C 173.9 227.1 172.6 226.8 171.3 226.6 C 169.2 226.2 166.6 225.8 166.6 223.2 C 166.6 221 168.5 219.9 170.8 219.9 C 173.2 219.9 175.1 221 175.2 223.3 C 175.2 223.3 173.6 223.3 173.6 223.3 C 173.5 221.9 172.2 221.3 170.8 221.3 C 169.2 221.3 168.2 222 168.2 223.1 C 168.2 224.6 169.6 224.8 171.3 225.1 C 173.3 225.4 175.5 225.7 175.5 228.2 Z M 178.8 226.1 C 178.9 228.9 180.6 230.2 182.6 230.2 C 184.1 230.2 185.6 229.5 185.9 227.9 C 185.9 227.9 187.3 227.9 187.3 227.9 C 186.8 230.5 184.7 231.6 182.5 231.6 C 179.8 231.6 177.3 229.8 177.3 225.8 C 177.3 221.7 179.9 219.9 182.6 219.9 C 185.2 219.9 187.4 221.6 187.4 225.4 C 187.42 225.35 187.4 226.1 187.4 226.1 C 187.4 226.1 178.83 226.11 178.8 226.1 Z M 178.9 224.8 C 178.9 224.8 185.9 224.8 185.9 224.8 C 185.9 222.5 184.4 221.3 182.5 221.3 C 180.7 221.3 179.1 222.4 178.9 224.8 Z M 199.8 230.9 C 199.8 234.3 197.5 236 194.6 236 C 192.1 236 189.9 234.7 189.6 232.1 C 189.6 232.1 191.1 232.1 191.1 232.1 C 191.4 233.5 192.4 234.7 194.6 234.7 C 196.7 234.7 198.3 233.6 198.3 231 C 198.3 231 198.3 228.7 198.3 228.7 C 197.4 230.4 195.8 231 194.3 231 C 191.5 231 189.3 229.1 189.3 225.4 C 189.3 221.7 191.7 219.9 194.4 219.9 C 196.2 219.9 197.5 220.7 198.2 221.9 C 198.24 221.93 198.2 220.1 198.2 220.1 L 199.8 220.1 C 199.8 220.1 199.75 230.88 199.8 230.9 Z M 198.2 225.4 C 198.2 222.6 196.5 221.2 194.6 221.2 C 192.6 221.2 190.8 222.6 190.8 225.4 C 190.8 228.2 192.6 229.6 194.5 229.6 C 196.3 229.6 198.2 228.4 198.2 225.4 Z M 210.4 231.4 C 210.4 231.4 210.42 229.24 210.4 229.2 C 209.6 230.8 208.3 231.5 206.7 231.5 C 204.5 231.5 202.9 230.2 202.9 227.6 C 202.9 227.56 202.9 220.1 202.9 220.1 L 204.4 220.1 C 204.4 220.1 204.43 227.37 204.4 227.4 C 204.4 229.2 205.4 230.2 206.9 230.2 C 208.7 230.2 210.4 228.8 210.4 225.9 C 210.36 225.94 210.4 220.1 210.4 220.1 L 211.9 220.1 L 211.9 231.4 L 210.4 231.4 Z M 216.9 215.4 L 215.1 215.4 L 215.1 217.3 L 216.9 217.3 L 216.9 215.4 Z M 216.8 231.4 L 215.2 231.4 L 215.2 220.1 L 216.8 220.1 L 216.8 231.4 Z M 225.8 221.4 C 225.8 221.4 225.41 221.43 225.4 221.4 C 223 221.4 221.7 222.8 221.7 225.4 C 221.67 225.4 221.7 231.4 221.7 231.4 L 220.1 231.4 L 220.1 220.1 L 221.7 220.1 C 221.7 220.1 221.65 222.18 221.7 222.2 C 222.2 220.7 223.5 220 225.3 220 C 225.29 219.98 225.8 220 225.8 220 L 225.8 221.4 Z M 232.6 217.8 L 231.3 217.8 L 233.8 214 L 235.2 215 L 232.6 217.8 Z M 234.7 229.3 C 233.8 231 232.1 231.6 230.7 231.6 C 228.8 231.6 227 230.5 227 228.3 C 227 226.2 228.5 225.2 230.5 225 C 230.5 225 233.1 224.6 233.1 224.6 C 234 224.5 234.7 224.2 234.7 223.2 C 234.7 221.9 233.5 221.2 232 221.2 C 230.3 221.2 229.2 222 229 223.3 C 229 223.3 227.5 223.3 227.5 223.3 C 227.8 221 229.6 219.9 232.1 219.9 C 234.6 219.9 236.2 221.1 236.2 223.6 C 236.18 223.59 236.2 231.4 236.2 231.4 L 234.7 231.4 C 234.7 231.4 234.69 229.32 234.7 229.3 Z M 232.8 225.9 C 232.8 225.9 231.1 226.1 231.1 226.1 C 229.7 226.3 228.6 226.8 228.6 228.2 C 228.6 229.6 229.7 230.2 230.9 230.2 C 232.7 230.2 234.7 228.9 234.7 226.5 C 234.7 226.5 234.7 225.4 234.7 225.4 C 234.2 225.7 233.6 225.8 232.8 225.9 Z M 252.5 228.2 C 252.5 230.5 250.5 231.6 248.2 231.6 C 245.8 231.6 243.6 230.4 243.3 227.9 C 243.3 227.9 245 227.9 245 227.9 C 245.2 229.6 246.7 230.2 248.2 230.2 C 249.7 230.2 250.9 229.7 250.9 228.4 C 250.9 227.1 249.6 226.8 248.3 226.6 C 246.2 226.2 243.6 225.8 243.6 223.2 C 243.6 221 245.5 219.9 247.8 219.9 C 250.2 219.9 252.1 221 252.3 223.3 C 252.3 223.3 250.7 223.3 250.7 223.3 C 250.5 221.9 249.2 221.3 247.8 221.3 C 246.2 221.3 245.2 222 245.2 223.1 C 245.2 224.6 246.6 224.8 248.3 225.1 C 250.3 225.4 252.5 225.7 252.5 228.2 Z M 256.7 215.4 L 255 215.4 L 255 217.3 L 256.7 217.3 L 256.7 215.4 Z M 256.6 231.4 L 255.1 231.4 L 255.1 220.1 L 256.6 220.1 L 256.6 231.4 Z M 260.7 226.1 C 260.8 228.9 262.5 230.2 264.5 230.2 C 266 230.2 267.5 229.5 267.8 227.9 C 267.8 227.9 269.2 227.9 269.2 227.9 C 268.7 230.5 266.6 231.6 264.4 231.6 C 261.7 231.6 259.2 229.8 259.2 225.8 C 259.2 221.7 261.8 219.9 264.5 219.9 C 267.1 219.9 269.3 221.6 269.3 225.4 C 269.32 225.35 269.3 226.1 269.3 226.1 C 269.3 226.1 260.73 226.11 260.7 226.1 Z M 260.8 224.8 C 260.8 224.8 267.8 224.8 267.8 224.8 C 267.8 222.5 266.3 221.3 264.4 221.3 C 262.6 221.3 261 222.4 260.8 224.8 Z M 281.1 223.7 C 281.1 223.65 281.1 231.4 281.1 231.4 L 279.6 231.4 C 279.6 231.4 279.57 223.84 279.6 223.8 C 279.6 222.3 278.7 221.3 277.1 221.3 C 275.2 221.3 273.5 222.7 273.5 225.5 C 273.48 225.46 273.5 231.4 273.5 231.4 L 271.9 231.4 L 271.9 220.1 L 273.5 220.1 C 273.5 220.1 273.48 222.2 273.5 222.2 C 274.2 220.9 275.4 219.9 277.4 219.9 C 279.6 219.9 281.1 221.2 281.1 223.7 Z M 294.2 231.4 L 292.7 231.4 C 292.7 231.4 292.7 229.2 292.7 229.2 C 292.1 230.5 290.8 231.6 288.7 231.6 C 285.7 231.6 283.6 229.3 283.6 225.7 C 283.6 222.2 285.7 219.9 288.7 219.9 C 290.6 219.9 292 220.8 292.6 222 C 292.63 222.02 292.6 215.4 292.6 215.4 L 294.2 215.4 L 294.2 231.4 Z M 292.6 225.7 C 292.6 222.9 291.1 221.3 288.9 221.3 C 286.7 221.3 285.2 223 285.2 225.7 C 285.2 228.5 286.7 230.2 288.9 230.2 C 291.1 230.2 292.6 228.5 292.6 225.7 Z M 296.8 225.8 C 296.8 222.1 299 219.9 302.1 219.9 C 305.2 219.9 307.5 222.1 307.5 225.8 C 307.5 229.4 305.3 231.6 302.1 231.6 C 299 231.6 296.8 229.4 296.8 225.8 Z M 305.9 225.7 C 305.9 222.9 304.2 221.3 302.1 221.3 C 299.9 221.3 298.4 223 298.4 225.8 C 298.4 228.6 300.1 230.2 302.2 230.2 C 304.4 230.2 305.9 228.5 305.9 225.7 Z M 309.4 229.2 L 311.5 229.2 L 311.5 231.4 L 309.4 231.4 L 309.4 229.2 Z " stroke="none" fill="#000"/>  </g>  <g id="Polygon11904">    <path d="M 10.8 198.5 C 10.84 198.45 10.8 206.2 10.8 206.2 L 9.3 206.2 C 9.3 206.2 9.3 198.64 9.3 198.6 C 9.3 197.1 8.4 196.1 6.8 196.1 C 4.9 196.1 3.2 197.5 3.2 200.3 C 3.21 200.26 3.2 206.2 3.2 206.2 L 1.7 206.2 L 1.7 190.2 L 3.2 190.2 C 3.2 190.2 3.21 196.88 3.2 196.9 C 3.9 195.6 5.1 194.7 7.1 194.7 C 9.4 194.7 10.8 196 10.8 198.5 Z M 21 204.1 C 20.1 205.8 18.4 206.4 17 206.4 C 15.1 206.4 13.4 205.3 13.4 203.1 C 13.4 201 14.8 200 16.8 199.8 C 16.8 199.8 19.4 199.4 19.4 199.4 C 20.3 199.3 21 199 21 198 C 21 196.7 19.9 196 18.3 196 C 16.6 196 15.6 196.8 15.3 198.1 C 15.3 198.1 13.8 198.1 13.8 198.1 C 14.1 195.8 15.9 194.7 18.4 194.7 C 21 194.7 22.5 195.9 22.5 198.4 C 22.51 198.39 22.5 206.2 22.5 206.2 L 21 206.2 C 21 206.2 21.02 204.12 21 204.1 Z M 19.2 200.7 C 19.2 200.7 17.4 200.9 17.4 200.9 C 16 201.1 14.9 201.6 14.9 203 C 14.9 204.4 16 205 17.3 205 C 19 205 21 203.7 21 201.3 C 21 201.3 21 200.2 21 200.2 C 20.6 200.5 19.9 200.6 19.2 200.7 Z M 34.8 198.5 C 34.82 198.45 34.8 206.2 34.8 206.2 L 33.3 206.2 C 33.3 206.2 33.28 198.64 33.3 198.6 C 33.3 197.1 32.4 196.1 30.8 196.1 C 28.9 196.1 27.2 197.5 27.2 200.3 C 27.19 200.26 27.2 206.2 27.2 206.2 L 25.7 206.2 L 25.7 194.9 L 27.2 194.9 C 27.2 194.9 27.19 197 27.2 197 C 27.9 195.7 29.1 194.7 31.1 194.7 C 33.3 194.7 34.8 196 34.8 198.5 Z M 45.3 206.2 L 43.7 206.2 L 43.7 190.2 L 45.3 190.2 L 45.3 206.2 Z M 47.9 200.6 C 47.9 196.9 50.1 194.7 53.2 194.7 C 56.3 194.7 58.6 196.9 58.6 200.6 C 58.6 204.2 56.4 206.4 53.3 206.4 C 50.1 206.4 47.9 204.2 47.9 200.6 Z M 57 200.5 C 57 197.7 55.3 196.1 53.2 196.1 C 51 196.1 49.5 197.8 49.5 200.6 C 49.5 203.4 51.2 205 53.3 205 C 55.5 205 57 203.3 57 200.5 Z M 70.9 205.7 C 70.9 209.1 68.7 210.8 65.8 210.8 C 63.3 210.8 61.1 209.5 60.7 206.9 C 60.7 206.9 62.3 206.9 62.3 206.9 C 62.5 208.3 63.6 209.5 65.8 209.5 C 67.9 209.5 69.4 208.4 69.4 205.8 C 69.4 205.8 69.4 203.5 69.4 203.5 C 68.6 205.2 66.9 205.8 65.5 205.8 C 62.7 205.8 60.5 203.9 60.5 200.2 C 60.5 196.5 62.8 194.7 65.5 194.7 C 67.3 194.7 68.7 195.5 69.4 196.7 C 69.4 196.73 69.4 194.9 69.4 194.9 L 70.9 194.9 C 70.9 194.9 70.92 205.68 70.9 205.7 Z M 69.3 200.2 C 69.3 197.4 67.6 196 65.7 196 C 63.8 196 62 197.4 62 200.2 C 62 203 63.7 204.4 65.7 204.4 C 67.5 204.4 69.3 203.2 69.3 200.2 Z M 79.8 196.2 C 79.8 196.2 79.44 196.23 79.4 196.2 C 77 196.2 75.7 197.6 75.7 200.2 C 75.7 200.2 75.7 206.2 75.7 206.2 L 74.2 206.2 L 74.2 194.9 L 75.7 194.9 C 75.7 194.9 75.68 196.98 75.7 197 C 76.2 195.5 77.6 194.8 79.3 194.8 C 79.32 194.78 79.8 194.8 79.8 194.8 L 79.8 196.2 Z M 88.7 204.1 C 87.8 205.8 86.1 206.4 84.7 206.4 C 82.8 206.4 81.1 205.3 81.1 203.1 C 81.1 201 82.5 200 84.5 199.8 C 84.5 199.8 87.1 199.4 87.1 199.4 C 88 199.3 88.7 199 88.7 198 C 88.7 196.7 87.6 196 86 196 C 84.3 196 83.3 196.8 83 198.1 C 83 198.1 81.5 198.1 81.5 198.1 C 81.8 195.8 83.6 194.7 86.1 194.7 C 88.7 194.7 90.2 195.9 90.2 198.4 C 90.21 198.39 90.2 206.2 90.2 206.2 L 88.7 206.2 C 88.7 206.2 88.72 204.12 88.7 204.1 Z M 86.9 200.7 C 86.9 200.7 85.1 200.9 85.1 200.9 C 83.7 201.1 82.6 201.6 82.6 203 C 82.6 204.4 83.7 205 85 205 C 86.7 205 88.7 203.7 88.7 201.3 C 88.7 201.3 88.7 200.2 88.7 200.2 C 88.3 200.5 87.6 200.6 86.9 200.7 Z M 103.2 206.2 L 101.7 206.2 C 101.7 206.2 101.7 204 101.7 204 C 101.2 205.3 99.8 206.4 97.7 206.4 C 94.7 206.4 92.6 204.1 92.6 200.5 C 92.6 197 94.7 194.7 97.7 194.7 C 99.6 194.7 101 195.6 101.6 196.8 C 101.64 196.82 101.6 190.2 101.6 190.2 L 103.2 190.2 L 103.2 206.2 Z M 101.6 200.5 C 101.6 197.7 100.1 196.1 97.9 196.1 C 95.7 196.1 94.2 197.8 94.2 200.5 C 94.2 203.3 95.7 205 97.9 205 C 100.1 205 101.6 203.3 101.6 200.5 Z M 105.8 200.6 C 105.8 196.9 108 194.7 111.1 194.7 C 114.2 194.7 116.5 196.9 116.5 200.6 C 116.5 204.2 114.3 206.4 111.2 206.4 C 108 206.4 105.8 204.2 105.8 200.6 Z M 114.9 200.5 C 114.9 197.7 113.2 196.1 111.1 196.1 C 108.9 196.1 107.4 197.8 107.4 200.6 C 107.4 203.4 109.1 205 111.2 205 C 113.4 205 114.9 203.3 114.9 200.5 Z M 134.9 200.5 C 134.9 204 132.8 206.4 129.8 206.4 C 127.8 206.4 126.4 205.3 125.8 204.1 C 125.83 204.1 125.8 206.2 125.8 206.2 L 124.4 206.2 L 124.4 190.2 L 125.9 190.2 C 125.9 190.2 125.89 197.17 125.9 197.2 C 126.5 195.8 127.9 194.7 129.9 194.7 C 132.8 194.7 134.9 196.9 134.9 200.5 Z M 133.3 200.6 C 133.3 197.8 131.8 196.2 129.7 196.2 C 127.5 196.2 125.9 197.8 125.9 200.6 C 125.9 203.4 127.4 205.1 129.6 205.1 C 131.8 205.1 133.3 203.3 133.3 200.6 Z M 144.9 206.2 C 144.9 206.2 144.92 204.04 144.9 204 C 144.1 205.6 142.8 206.3 141.2 206.3 C 139 206.3 137.4 205 137.4 202.4 C 137.4 202.36 137.4 194.9 137.4 194.9 L 138.9 194.9 C 138.9 194.9 138.93 202.17 138.9 202.2 C 138.9 204 139.9 205 141.4 205 C 143.2 205 144.9 203.6 144.9 200.7 C 144.86 200.74 144.9 194.9 144.9 194.9 L 146.4 194.9 L 146.4 206.2 L 144.9 206.2 Z M 150.5 200.9 C 150.6 203.7 152.3 205 154.3 205 C 155.8 205 157.2 204.3 157.6 202.7 C 157.6 202.7 159 202.7 159 202.7 C 158.5 205.3 156.3 206.4 154.2 206.4 C 151.5 206.4 149 204.6 149 200.6 C 149 196.5 151.6 194.7 154.3 194.7 C 156.9 194.7 159.1 196.4 159.1 200.2 C 159.11 200.15 159.1 200.9 159.1 200.9 C 159.1 200.9 150.53 200.91 150.5 200.9 Z M 150.6 199.6 C 150.6 199.6 157.6 199.6 157.6 199.6 C 157.6 197.3 156.1 196.1 154.2 196.1 C 152.4 196.1 150.8 197.2 150.6 199.6 Z M 170.9 198.5 C 170.9 198.45 170.9 206.2 170.9 206.2 L 169.4 206.2 C 169.4 206.2 169.36 198.64 169.4 198.6 C 169.4 197.1 168.5 196.1 166.9 196.1 C 165 196.1 163.3 197.5 163.3 200.3 C 163.27 200.26 163.3 206.2 163.3 206.2 L 161.7 206.2 L 161.7 194.9 L 163.3 194.9 C 163.3 194.9 163.27 197 163.3 197 C 163.9 195.7 165.2 194.7 167.2 194.7 C 169.4 194.7 170.9 196 170.9 198.5 Z M 173.4 200.6 C 173.4 196.9 175.6 194.7 178.7 194.7 C 181.9 194.7 184.1 196.9 184.1 200.6 C 184.1 204.2 181.9 206.4 178.8 206.4 C 175.7 206.4 173.4 204.2 173.4 200.6 Z M 182.5 200.5 C 182.5 197.7 180.8 196.1 178.7 196.1 C 176.5 196.1 175 197.8 175 200.6 C 175 203.4 176.7 205 178.8 205 C 181 205 182.5 203.3 182.5 200.5 Z M 195.1 203 C 195.1 205.3 193 206.4 190.8 206.4 C 188.3 206.4 186.1 205.2 185.9 202.7 C 185.9 202.7 187.5 202.7 187.5 202.7 C 187.8 204.4 189.2 205 190.8 205 C 192.2 205 193.5 204.5 193.5 203.2 C 193.5 201.9 192.2 201.6 190.9 201.4 C 188.7 201 186.2 200.6 186.2 198 C 186.2 195.8 188.1 194.7 190.4 194.7 C 192.8 194.7 194.7 195.8 194.8 198.1 C 194.8 198.1 193.2 198.1 193.2 198.1 C 193.1 196.7 191.8 196.1 190.3 196.1 C 188.8 196.1 187.8 196.8 187.8 197.9 C 187.8 199.4 189.1 199.6 190.8 199.9 C 192.9 200.2 195.1 200.5 195.1 203 Z M 208.5 196.2 C 208.5 196.2 208.15 196.23 208.1 196.2 C 205.8 196.2 204.4 197.6 204.4 200.2 C 204.41 200.2 204.4 206.2 204.4 206.2 L 202.9 206.2 L 202.9 194.9 L 204.4 194.9 C 204.4 194.9 204.39 196.98 204.4 197 C 204.9 195.5 206.3 194.8 208 194.8 C 208.02 194.78 208.5 194.8 208.5 194.8 L 208.5 196.2 Z M 211.1 200.9 C 211.1 203.7 212.8 205 214.8 205 C 216.3 205 217.8 204.3 218.1 202.7 C 218.1 202.7 219.6 202.7 219.6 202.7 C 219.1 205.3 216.9 206.4 214.7 206.4 C 212.1 206.4 209.6 204.6 209.6 200.6 C 209.6 196.5 212.1 194.7 214.8 194.7 C 217.5 194.7 219.7 196.4 219.7 200.2 C 219.66 200.15 219.7 200.9 219.7 200.9 C 219.7 200.9 211.07 200.91 211.1 200.9 Z M 211.1 199.6 C 211.1 199.6 218.1 199.6 218.1 199.6 C 218.1 197.3 216.6 196.1 214.7 196.1 C 213 196.1 211.3 197.2 211.1 199.6 Z M 230.7 203 C 230.7 205.3 228.6 206.4 226.3 206.4 C 223.9 206.4 221.7 205.2 221.4 202.7 C 221.4 202.7 223.1 202.7 223.1 202.7 C 223.3 204.4 224.8 205 226.3 205 C 227.8 205 229.1 204.5 229.1 203.2 C 229.1 201.9 227.8 201.6 226.4 201.4 C 224.3 201 221.7 200.6 221.7 198 C 221.7 195.8 223.6 194.7 226 194.7 C 228.4 194.7 230.2 195.8 230.4 198.1 C 230.4 198.1 228.8 198.1 228.8 198.1 C 228.7 196.7 227.4 196.1 225.9 196.1 C 224.4 196.1 223.3 196.8 223.3 197.9 C 223.3 199.4 224.7 199.6 226.4 199.9 C 228.4 200.2 230.7 200.5 230.7 203 Z M 240.6 206.2 C 240.6 206.2 240.59 204.04 240.6 204 C 239.8 205.6 238.4 206.3 236.8 206.3 C 234.7 206.3 233.1 205 233.1 202.4 C 233.08 202.36 233.1 194.9 233.1 194.9 L 234.6 194.9 C 234.6 194.9 234.61 202.17 234.6 202.2 C 234.6 204 235.6 205 237.1 205 C 238.9 205 240.5 203.6 240.5 200.7 C 240.53 200.74 240.5 194.9 240.5 194.9 L 242.1 194.9 L 242.1 206.2 L 240.6 206.2 Z M 247 206.2 L 245.4 206.2 L 245.4 190.2 L 247 190.2 L 247 206.2 Z M 255.5 206.2 C 255.5 206.2 253.8 206.18 253.8 206.2 C 252.3 206.2 251 205.7 251 203.2 C 250.97 203.22 251 196.3 251 196.3 L 248.7 196.3 L 248.7 194.9 L 251 194.9 L 251 191.7 L 252.5 191.3 L 252.5 194.9 L 255.2 194.9 L 255.2 196.3 L 252.5 196.3 C 252.5 196.3 252.5 203.2 252.5 203.2 C 252.5 204.2 252.8 204.8 254.1 204.8 C 254.06 204.8 255.5 204.8 255.5 204.8 L 255.5 206.2 Z M 264.6 204.1 C 263.7 205.8 262 206.4 260.6 206.4 C 258.7 206.4 256.9 205.3 256.9 203.1 C 256.9 201 258.4 200 260.4 199.8 C 260.4 199.8 263 199.4 263 199.4 C 263.9 199.3 264.6 199 264.6 198 C 264.6 196.7 263.4 196 261.9 196 C 260.2 196 259.1 196.8 258.9 198.1 C 258.9 198.1 257.4 198.1 257.4 198.1 C 257.7 195.8 259.5 194.7 262 194.7 C 264.5 194.7 266.1 195.9 266.1 198.4 C 266.09 198.39 266.1 206.2 266.1 206.2 L 264.6 206.2 C 264.6 206.2 264.6 204.12 264.6 204.1 Z M 262.7 200.7 C 262.7 200.7 261 200.9 261 200.9 C 259.6 201.1 258.5 201.6 258.5 203 C 258.5 204.4 259.6 205 260.8 205 C 262.6 205 264.6 203.7 264.6 201.3 C 264.6 201.3 264.6 200.2 264.6 200.2 C 264.1 200.5 263.5 200.6 262.7 200.7 Z M 279 206.2 L 277.6 206.2 C 277.6 206.2 277.57 204 277.6 204 C 277 205.3 275.7 206.4 273.6 206.4 C 270.6 206.4 268.5 204.1 268.5 200.5 C 268.5 197 270.6 194.7 273.6 194.7 C 275.5 194.7 276.9 195.6 277.5 196.8 C 277.51 196.82 277.5 190.2 277.5 190.2 L 279 190.2 L 279 206.2 Z M 277.5 200.5 C 277.5 197.7 275.9 196.1 273.8 196.1 C 271.6 196.1 270.1 197.8 270.1 200.5 C 270.1 203.3 271.6 205 273.8 205 C 276 205 277.5 203.3 277.5 200.5 Z M 281.7 200.6 C 281.7 196.9 283.9 194.7 287 194.7 C 290.1 194.7 292.4 196.9 292.4 200.6 C 292.4 204.2 290.1 206.4 287 206.4 C 283.9 206.4 281.7 204.2 281.7 200.6 Z M 290.8 200.5 C 290.8 197.7 289.1 196.1 287 196.1 C 284.8 196.1 283.2 197.8 283.2 200.6 C 283.2 203.4 284.9 205 287 205 C 289.2 205 290.8 203.3 290.8 200.5 Z M 303.4 203 C 303.4 205.3 301.3 206.4 299 206.4 C 296.6 206.4 294.4 205.2 294.1 202.7 C 294.1 202.7 295.8 202.7 295.8 202.7 C 296 204.4 297.5 205 299 205 C 300.5 205 301.8 204.5 301.8 203.2 C 301.8 201.9 300.5 201.6 299.1 201.4 C 297 201 294.4 200.6 294.4 198 C 294.4 195.8 296.3 194.7 298.7 194.7 C 301.1 194.7 302.9 195.8 303.1 198.1 C 303.1 198.1 301.5 198.1 301.5 198.1 C 301.4 196.7 300.1 196.1 298.6 196.1 C 297.1 196.1 296 196.8 296 197.9 C 296 199.4 297.4 199.6 299.1 199.9 C 301.1 200.2 303.4 200.5 303.4 203 Z M 314 208.3 C 313.6 209.5 312.6 209.9 311.4 209.9 C 311.43 209.88 310.3 209.9 310.3 209.9 L 310.3 208.5 C 310.3 208.5 311.22 208.51 311.2 208.5 C 312.2 208.5 312.7 208.2 313 207.2 C 313.02 207.19 313.5 205.7 313.5 205.7 L 309.3 194.9 L 311 194.9 L 314.3 203.8 L 317.6 194.9 L 319.1 194.9 C 319.1 194.9 314.03 208.32 314 208.3 Z " stroke="none" fill="#000"/>  </g>  <g id="Polygon11903">    <path d="M 2.5 175.7 C 2.5 178.5 4.2 179.8 6.2 179.8 C 7.7 179.8 9.2 179.1 9.5 177.5 C 9.5 177.5 11 177.5 11 177.5 C 10.5 180.1 8.3 181.2 6.1 181.2 C 3.4 181.2 0.9 179.4 0.9 175.4 C 0.9 171.3 3.5 169.5 6.2 169.5 C 8.9 169.5 11 171.2 11 175 C 11.05 174.95 11 175.7 11 175.7 C 11 175.7 2.46 175.71 2.5 175.7 Z M 2.5 174.4 C 2.5 174.4 9.5 174.4 9.5 174.4 C 9.5 172.1 8 170.9 6.1 170.9 C 4.4 170.9 2.7 172 2.5 174.4 Z M 22 177.8 C 22 180.1 20 181.2 17.7 181.2 C 15.3 181.2 13.1 180 12.8 177.5 C 12.8 177.5 14.5 177.5 14.5 177.5 C 14.7 179.2 16.2 179.8 17.7 179.8 C 19.2 179.8 20.5 179.3 20.5 178 C 20.5 176.7 19.2 176.4 17.8 176.2 C 15.7 175.8 13.1 175.4 13.1 172.8 C 13.1 170.6 15 169.5 17.3 169.5 C 19.7 169.5 21.6 170.6 21.8 172.9 C 21.8 172.9 20.2 172.9 20.2 172.9 C 20.1 171.5 18.8 170.9 17.3 170.9 C 15.7 170.9 14.7 171.6 14.7 172.7 C 14.7 174.2 16.1 174.4 17.8 174.7 C 19.8 175 22 175.3 22 177.8 Z M 29.7 181 C 29.7 181 28.06 180.98 28.1 181 C 26.6 181 25.2 180.5 25.2 178 C 25.22 178.02 25.2 171.1 25.2 171.1 L 23 171.1 L 23 169.7 L 25.2 169.7 L 25.2 166.5 L 26.8 166.1 L 26.8 169.7 L 29.5 169.7 L 29.5 171.1 L 26.8 171.1 C 26.8 171.1 26.75 178 26.8 178 C 26.8 179 27 179.6 28.3 179.6 C 28.31 179.6 29.7 179.6 29.7 179.6 L 29.7 181 Z M 32.7 175.7 C 32.7 178.5 34.5 179.8 36.5 179.8 C 37.9 179.8 39.4 179.1 39.8 177.5 C 39.8 177.5 41.2 177.5 41.2 177.5 C 40.7 180.1 38.5 181.2 36.4 181.2 C 33.7 181.2 31.2 179.4 31.2 175.4 C 31.2 171.3 33.7 169.5 36.4 169.5 C 39.1 169.5 41.3 171.2 41.3 175 C 41.29 174.95 41.3 175.7 41.3 175.7 C 41.3 175.7 32.7 175.71 32.7 175.7 Z M 32.7 174.4 C 32.7 174.4 39.7 174.4 39.7 174.4 C 39.7 172.1 38.3 170.9 36.4 170.9 C 34.6 170.9 32.9 172 32.7 174.4 Z M 54.1 181 C 54.1 181 52.44 180.98 52.4 181 C 50.9 181 49.6 180.5 49.6 178 C 49.6 178.02 49.6 171.1 49.6 171.1 L 47.4 171.1 L 47.4 169.7 L 49.6 169.7 L 49.6 166.5 L 51.1 166.1 L 51.1 169.7 L 53.9 169.7 L 53.9 171.1 L 51.1 171.1 C 51.1 171.1 51.13 178 51.1 178 C 51.1 179 51.4 179.6 52.7 179.6 C 52.69 179.6 54.1 179.6 54.1 179.6 L 54.1 181 Z M 57.9 165 L 56.2 165 L 56.2 166.9 L 57.9 166.9 L 57.9 165 Z M 57.8 181 L 56.3 181 L 56.3 169.7 L 57.8 169.7 L 57.8 181 Z M 71.7 175.3 C 71.7 179.4 69.1 181.1 66.5 181.1 C 64.6 181.1 63.4 180.2 62.7 179 C 62.73 179.03 62.7 185.3 62.7 185.3 L 61.2 185.3 L 61.2 169.7 L 62.7 169.7 C 62.7 169.7 62.68 172.08 62.7 172.1 C 63.2 170.7 64.7 169.5 66.7 169.5 C 69.2 169.5 71.7 171.2 71.7 175.3 Z M 70.1 175.3 C 70.1 172.2 68.4 171 66.5 171 C 64.6 171 62.7 172.2 62.7 175.4 C 62.7 178.5 64.6 179.7 66.4 179.7 C 68.3 179.7 70.1 178.5 70.1 175.3 Z M 73.6 175.4 C 73.6 171.7 75.8 169.5 78.9 169.5 C 82 169.5 84.3 171.7 84.3 175.4 C 84.3 179 82.1 181.2 79 181.2 C 75.9 181.2 73.6 179 73.6 175.4 Z M 82.7 175.3 C 82.7 172.5 81 170.9 78.9 170.9 C 76.7 170.9 75.2 172.6 75.2 175.4 C 75.2 178.2 76.9 179.8 79 179.8 C 81.2 179.8 82.7 178.1 82.7 175.3 Z M 101.6 181 L 100.1 181 C 100.1 181 100.09 178.8 100.1 178.8 C 99.5 180.1 98.2 181.2 96.1 181.2 C 93.1 181.2 91 178.9 91 175.3 C 91 171.8 93.1 169.5 96.1 169.5 C 98 169.5 99.4 170.4 100 171.6 C 100.02 171.62 100 165 100 165 L 101.6 165 L 101.6 181 Z M 100 175.3 C 100 172.5 98.4 170.9 96.3 170.9 C 94.1 170.9 92.6 172.6 92.6 175.3 C 92.6 178.1 94.1 179.8 96.3 179.8 C 98.5 179.8 100 178.1 100 175.3 Z M 105.7 175.7 C 105.7 178.5 107.5 179.8 109.5 179.8 C 110.9 179.8 112.4 179.1 112.7 177.5 C 112.7 177.5 114.2 177.5 114.2 177.5 C 113.7 180.1 111.5 181.2 109.4 181.2 C 106.7 181.2 104.2 179.4 104.2 175.4 C 104.2 171.3 106.7 169.5 109.4 169.5 C 112.1 169.5 114.3 171.2 114.3 175 C 114.28 174.95 114.3 175.7 114.3 175.7 C 114.3 175.7 105.69 175.71 105.7 175.7 Z M 105.7 174.4 C 105.7 174.4 112.7 174.4 112.7 174.4 C 112.7 172.1 111.3 170.9 109.4 170.9 C 107.6 170.9 105.9 172 105.7 174.4 Z M 123.8 165 L 122.1 165 L 122.1 166.9 L 123.8 166.9 L 123.8 165 Z M 123.7 181 L 122.2 181 L 122.2 169.7 L 123.7 169.7 L 123.7 181 Z M 136.2 173.3 C 136.21 173.25 136.2 181 136.2 181 L 134.7 181 C 134.7 181 134.67 173.44 134.7 173.4 C 134.7 171.9 133.8 170.9 132.2 170.9 C 130.3 170.9 128.6 172.3 128.6 175.1 C 128.58 175.06 128.6 181 128.6 181 L 127 181 L 127 169.7 L 128.6 169.7 C 128.6 169.7 128.58 171.8 128.6 171.8 C 129.3 170.5 130.5 169.5 132.5 169.5 C 134.7 169.5 136.2 170.8 136.2 173.3 Z M 143.9 181 L 142.3 181 L 138.1 169.7 L 139.8 169.7 L 143.1 179.4 L 146.5 169.7 L 148.1 169.7 L 143.9 181 Z M 150.7 175.7 C 150.7 178.5 152.5 179.8 154.5 179.8 C 155.9 179.8 157.4 179.1 157.8 177.5 C 157.8 177.5 159.2 177.5 159.2 177.5 C 158.7 180.1 156.5 181.2 154.4 181.2 C 151.7 181.2 149.2 179.4 149.2 175.4 C 149.2 171.3 151.7 169.5 154.4 169.5 C 157.1 169.5 159.3 171.2 159.3 175 C 159.28 174.95 159.3 175.7 159.3 175.7 C 159.3 175.7 150.69 175.71 150.7 175.7 Z M 150.7 174.4 C 150.7 174.4 157.7 174.4 157.7 174.4 C 157.7 172.1 156.3 170.9 154.4 170.9 C 152.6 170.9 150.9 172 150.7 174.4 Z M 167.5 171 C 167.5 171 167.18 171.03 167.2 171 C 164.8 171 163.4 172.4 163.4 175 C 163.44 175 163.4 181 163.4 181 L 161.9 181 L 161.9 169.7 L 163.4 169.7 C 163.4 169.7 163.42 171.78 163.4 171.8 C 163.9 170.3 165.3 169.6 167.1 169.6 C 167.05 169.58 167.5 169.6 167.5 169.6 L 167.5 171 Z M 177.9 177.8 C 177.9 180.1 175.8 181.2 173.6 181.2 C 171.1 181.2 168.9 180 168.7 177.5 C 168.7 177.5 170.3 177.5 170.3 177.5 C 170.6 179.2 172.1 179.8 173.6 179.8 C 175 179.8 176.3 179.3 176.3 178 C 176.3 176.7 175 176.4 173.7 176.2 C 171.5 175.8 169 175.4 169 172.8 C 169 170.6 170.9 169.5 173.2 169.5 C 175.6 169.5 177.5 170.6 177.6 172.9 C 177.6 172.9 176 172.9 176 172.9 C 175.9 171.5 174.6 170.9 173.1 170.9 C 171.6 170.9 170.6 171.6 170.6 172.7 C 170.6 174.2 171.9 174.4 173.6 174.7 C 175.7 175 177.9 175.3 177.9 177.8 Z M 179.7 175.4 C 179.7 171.7 181.9 169.5 185 169.5 C 188.1 169.5 190.4 171.7 190.4 175.4 C 190.4 179 188.2 181.2 185.1 181.2 C 181.9 181.2 179.7 179 179.7 175.4 Z M 188.8 175.3 C 188.8 172.5 187.1 170.9 185 170.9 C 182.8 170.9 181.3 172.6 181.3 175.4 C 181.3 178.2 183 179.8 185.1 179.8 C 187.3 179.8 188.8 178.1 188.8 175.3 Z M 198.6 171 C 198.6 171 198.28 171.03 198.3 171 C 195.9 171 194.5 172.4 194.5 175 C 194.54 175 194.5 181 194.5 181 L 193 181 L 193 169.7 L 194.5 169.7 C 194.5 169.7 194.52 171.78 194.5 171.8 C 195 170.3 196.4 169.6 198.2 169.6 C 198.15 169.58 198.6 169.6 198.6 169.6 L 198.6 171 Z M 201.2 175.7 C 201.2 178.5 203 179.8 205 179.8 C 206.4 179.8 207.9 179.1 208.3 177.5 C 208.3 177.5 209.7 177.5 209.7 177.5 C 209.2 180.1 207 181.2 204.9 181.2 C 202.2 181.2 199.7 179.4 199.7 175.4 C 199.7 171.3 202.2 169.5 204.9 169.5 C 207.6 169.5 209.8 171.2 209.8 175 C 209.79 174.95 209.8 175.7 209.8 175.7 C 209.8 175.7 201.2 175.71 201.2 175.7 Z M 201.2 174.4 C 201.2 174.4 208.2 174.4 208.2 174.4 C 208.2 172.1 206.8 170.9 204.9 170.9 C 203.1 170.9 201.5 172 201.2 174.4 Z M 220.8 177.8 C 220.8 180.1 218.7 181.2 216.4 181.2 C 214 181.2 211.8 180 211.6 177.5 C 211.6 177.5 213.2 177.5 213.2 177.5 C 213.5 179.2 214.9 179.8 216.5 179.8 C 217.9 179.8 219.2 179.3 219.2 178 C 219.2 176.7 217.9 176.4 216.6 176.2 C 214.4 175.8 211.8 175.4 211.8 172.8 C 211.8 170.6 213.8 169.5 216.1 169.5 C 218.5 169.5 220.4 170.6 220.5 172.9 C 220.5 172.9 218.9 172.9 218.9 172.9 C 218.8 171.5 217.5 170.9 216 170.9 C 214.5 170.9 213.4 171.6 213.4 172.7 C 213.4 174.2 214.8 174.4 216.5 174.7 C 218.5 175 220.8 175.3 220.8 177.8 Z M 230.1 181 L 228.6 181 L 228.6 165 L 230.1 165 L 230.1 181 Z M 232.7 175.4 C 232.7 171.7 234.9 169.5 238.1 169.5 C 241.2 169.5 243.4 171.7 243.4 175.4 C 243.4 179 241.2 181.2 238.1 181.2 C 235 181.2 232.7 179 232.7 175.4 Z M 241.8 175.3 C 241.8 172.5 240.1 170.9 238 170.9 C 235.8 170.9 234.3 172.6 234.3 175.4 C 234.3 178.2 236 179.8 238.1 179.8 C 240.3 179.8 241.8 178.1 241.8 175.3 Z M 254.4 177.8 C 254.4 180.1 252.3 181.2 250.1 181.2 C 247.7 181.2 245.4 180 245.2 177.5 C 245.2 177.5 246.8 177.5 246.8 177.5 C 247.1 179.2 248.6 179.8 250.1 179.8 C 251.5 179.8 252.8 179.3 252.8 178 C 252.8 176.7 251.5 176.4 250.2 176.2 C 248 175.8 245.5 175.4 245.5 172.8 C 245.5 170.6 247.4 169.5 249.7 169.5 C 252.1 169.5 254 170.6 254.1 172.9 C 254.1 172.9 252.5 172.9 252.5 172.9 C 252.4 171.5 251.1 170.9 249.6 170.9 C 248.1 170.9 247.1 171.6 247.1 172.7 C 247.1 174.2 248.4 174.4 250.1 174.7 C 252.2 175 254.4 175.3 254.4 177.8 Z M 270 185.3 C 270 185.3 270.02 178.82 270 178.8 C 269.4 180.1 268 181.1 266.1 181.1 C 263.6 181.1 261 179.4 261 175.2 C 261 171.2 263.6 169.5 266.1 169.5 C 268 169.5 269.4 170.5 270.1 171.7 C 270.06 171.68 270.1 169.7 270.1 169.7 L 271.5 169.7 L 271.5 185.3 L 270 185.3 Z M 270 175.3 C 270 172.1 268.1 170.9 266.3 170.9 C 264.4 170.9 262.6 172.1 262.6 175.3 C 262.6 178.4 264.4 179.7 266.3 179.7 C 268.1 179.7 270 178.4 270 175.3 Z M 282.2 181 C 282.2 181 282.22 178.84 282.2 178.8 C 281.4 180.4 280.1 181.1 278.5 181.1 C 276.3 181.1 274.7 179.8 274.7 177.2 C 274.7 177.16 274.7 169.7 274.7 169.7 L 276.2 169.7 C 276.2 169.7 276.23 176.97 276.2 177 C 276.2 178.8 277.2 179.8 278.7 179.8 C 280.5 179.8 282.2 178.4 282.2 175.5 C 282.15 175.54 282.2 169.7 282.2 169.7 L 283.7 169.7 L 283.7 181 L 282.2 181 Z M 287.8 175.7 C 287.9 178.5 289.6 179.8 291.6 179.8 C 293.1 179.8 294.5 179.1 294.9 177.5 C 294.9 177.5 296.3 177.5 296.3 177.5 C 295.8 180.1 293.6 181.2 291.5 181.2 C 288.8 181.2 286.3 179.4 286.3 175.4 C 286.3 171.3 288.9 169.5 291.6 169.5 C 294.2 169.5 296.4 171.2 296.4 175 C 296.41 174.95 296.4 175.7 296.4 175.7 C 296.4 175.7 287.82 175.71 287.8 175.7 Z M 287.9 174.4 C 287.9 174.4 294.9 174.4 294.9 174.4 C 294.9 172.1 293.4 170.9 291.5 170.9 C 289.7 170.9 288.1 172 287.9 174.4 Z " stroke="none" fill="#000"/>  </g>  <g id="Polygon11902">    <path d="M 1.7 144.5 L 3.2 144.5 C 3.2 144.5 3.19 146.37 3.2 146.4 C 3.8 145 5 144.3 6.5 144.3 C 8.1 144.3 9.4 145.2 9.8 146.6 C 10.3 145.4 11.6 144.3 13.5 144.3 C 15.5 144.3 17.2 145.4 17.2 147.7 C 17.16 147.7 17.2 155.8 17.2 155.8 L 15.6 155.8 C 15.6 155.8 15.62 148.24 15.6 148.2 C 15.6 146.5 14.6 145.7 13.2 145.7 C 11.6 145.7 10.2 147 10.2 149.3 C 10.16 149.33 10.2 155.8 10.2 155.8 L 8.7 155.8 C 8.7 155.8 8.65 148.24 8.7 148.2 C 8.7 146.5 7.6 145.7 6.3 145.7 C 4.6 145.7 3.2 146.9 3.2 149.3 C 3.21 149.33 3.2 155.8 3.2 155.8 L 1.7 155.8 L 1.7 144.5 Z M 27.3 153.7 C 26.5 155.4 24.8 156 23.3 156 C 21.4 156 19.7 154.9 19.7 152.7 C 19.7 150.6 21.2 149.6 23.1 149.4 C 23.1 149.4 25.8 149 25.8 149 C 26.6 148.9 27.3 148.6 27.3 147.6 C 27.3 146.3 26.2 145.6 24.6 145.6 C 22.9 145.6 21.9 146.4 21.7 147.7 C 21.7 147.7 20.1 147.7 20.1 147.7 C 20.4 145.4 22.2 144.3 24.7 144.3 C 27.3 144.3 28.8 145.5 28.8 148 C 28.83 147.99 28.8 155.8 28.8 155.8 L 27.3 155.8 C 27.3 155.8 27.34 153.72 27.3 153.7 Z M 25.5 150.3 C 25.5 150.3 23.8 150.5 23.8 150.5 C 22.3 150.7 21.3 151.2 21.3 152.6 C 21.3 154 22.3 154.6 23.6 154.6 C 25.3 154.6 27.3 153.3 27.3 150.9 C 27.3 150.9 27.3 149.8 27.3 149.8 C 26.9 150.1 26.2 150.2 25.5 150.3 Z M 36.5 156 C 33.4 156 31.2 153.7 31.2 150.2 C 31.2 146.6 33.3 144.3 36.6 144.3 C 39.1 144.3 41.1 145.7 41.3 148.2 C 41.3 148.2 39.8 148.2 39.8 148.2 C 39.6 146.6 38.2 145.7 36.6 145.7 C 34.4 145.7 32.8 147.4 32.8 150.1 C 32.8 152.9 34.4 154.6 36.6 154.6 C 38.3 154.6 39.6 153.6 39.8 151.8 C 39.8 151.8 41.3 151.8 41.3 151.8 C 41.1 154.5 39 156 36.5 156 Z M 49.5 145.8 C 49.5 145.8 49.16 145.83 49.2 145.8 C 46.8 145.8 45.4 147.2 45.4 149.8 C 45.42 149.8 45.4 155.8 45.4 155.8 L 43.9 155.8 L 43.9 144.5 L 45.4 144.5 C 45.4 144.5 45.4 146.58 45.4 146.6 C 45.9 145.1 47.3 144.4 49 144.4 C 49.03 144.38 49.5 144.4 49.5 144.4 L 49.5 145.8 Z M 50.6 150.2 C 50.6 146.5 52.8 144.3 55.9 144.3 C 59 144.3 61.3 146.5 61.3 150.2 C 61.3 153.8 59 156 55.9 156 C 52.8 156 50.6 153.8 50.6 150.2 Z M 59.7 150.1 C 59.7 147.3 58 145.7 55.9 145.7 C 53.7 145.7 52.1 147.4 52.1 150.2 C 52.1 153 53.8 154.6 55.9 154.6 C 58.1 154.6 59.7 152.9 59.7 150.1 Z M 64.7 150.5 C 64.7 153.3 66.4 154.6 68.4 154.6 C 69.9 154.6 71.4 153.9 71.7 152.3 C 71.7 152.3 73.2 152.3 73.2 152.3 C 72.7 154.9 70.5 156 68.3 156 C 65.6 156 63.1 154.2 63.1 150.2 C 63.1 146.1 65.7 144.3 68.4 144.3 C 71.1 144.3 73.2 146 73.2 149.8 C 73.25 149.75 73.2 150.5 73.2 150.5 C 73.2 150.5 64.66 150.51 64.7 150.5 Z M 64.7 149.2 C 64.7 149.2 71.7 149.2 71.7 149.2 C 71.7 146.9 70.2 145.7 68.3 145.7 C 66.6 145.7 64.9 146.8 64.7 149.2 Z M 80.4 156 C 77.3 156 75.1 153.7 75.1 150.2 C 75.1 146.6 77.2 144.3 80.5 144.3 C 83 144.3 85 145.7 85.2 148.2 C 85.2 148.2 83.7 148.2 83.7 148.2 C 83.5 146.6 82.1 145.7 80.5 145.7 C 78.3 145.7 76.7 147.4 76.7 150.1 C 76.7 152.9 78.2 154.6 80.5 154.6 C 82.2 154.6 83.5 153.6 83.6 151.8 C 83.6 151.8 85.2 151.8 85.2 151.8 C 85 154.5 82.9 156 80.4 156 Z M 87 150.2 C 87 146.5 89.3 144.3 92.4 144.3 C 95.5 144.3 97.7 146.5 97.7 150.2 C 97.7 153.8 95.5 156 92.4 156 C 89.3 156 87 153.8 87 150.2 Z M 96.2 150.1 C 96.2 147.3 94.5 145.7 92.4 145.7 C 90.2 145.7 88.6 147.4 88.6 150.2 C 88.6 153 90.3 154.6 92.4 154.6 C 94.6 154.6 96.2 152.9 96.2 150.1 Z M 109.5 148.1 C 109.51 148.05 109.5 155.8 109.5 155.8 L 108 155.8 C 108 155.8 107.98 148.24 108 148.2 C 108 146.7 107.1 145.7 105.5 145.7 C 103.6 145.7 101.9 147.1 101.9 149.9 C 101.89 149.86 101.9 155.8 101.9 155.8 L 100.4 155.8 L 100.4 144.5 L 101.9 144.5 C 101.9 144.5 101.89 146.6 101.9 146.6 C 102.6 145.3 103.8 144.3 105.8 144.3 C 108 144.3 109.5 145.6 109.5 148.1 Z M 118 142.2 L 116.7 142.2 L 119.2 138.4 L 120.6 139.4 L 118 142.2 Z M 112 150.2 C 112 146.5 114.3 144.3 117.4 144.3 C 120.5 144.3 122.7 146.5 122.7 150.2 C 122.7 153.8 120.5 156 117.4 156 C 114.3 156 112 153.8 112 150.2 Z M 121.1 150.1 C 121.1 147.3 119.4 145.7 117.3 145.7 C 115.1 145.7 113.6 147.4 113.6 150.2 C 113.6 153 115.3 154.6 117.4 154.6 C 119.6 154.6 121.1 152.9 121.1 150.1 Z M 125.3 144.5 L 126.9 144.5 C 126.9 144.5 126.86 146.37 126.9 146.4 C 127.5 145 128.7 144.3 130.1 144.3 C 131.8 144.3 133.1 145.2 133.5 146.6 C 134 145.4 135.2 144.3 137.2 144.3 C 139.2 144.3 140.8 145.4 140.8 147.7 C 140.82 147.7 140.8 155.8 140.8 155.8 L 139.3 155.8 C 139.3 155.8 139.29 148.24 139.3 148.2 C 139.3 146.5 138.2 145.7 136.9 145.7 C 135.2 145.7 133.8 147 133.8 149.3 C 133.83 149.33 133.8 155.8 133.8 155.8 L 132.3 155.8 C 132.3 155.8 132.32 148.24 132.3 148.2 C 132.3 146.5 131.3 145.7 129.9 145.7 C 128.3 145.7 126.9 146.9 126.9 149.3 C 126.88 149.33 126.9 155.8 126.9 155.8 L 125.3 155.8 L 125.3 144.5 Z M 145.7 139.8 L 144 139.8 L 144 141.7 L 145.7 141.7 L 145.7 139.8 Z M 145.6 155.8 L 144.1 155.8 L 144.1 144.5 L 145.6 144.5 L 145.6 155.8 Z M 153.5 156 C 150.4 156 148.2 153.7 148.2 150.2 C 148.2 146.6 150.3 144.3 153.6 144.3 C 156.1 144.3 158.1 145.7 158.3 148.2 C 158.3 148.2 156.8 148.2 156.8 148.2 C 156.6 146.6 155.2 145.7 153.6 145.7 C 151.4 145.7 149.8 147.4 149.8 150.1 C 149.8 152.9 151.3 154.6 153.6 154.6 C 155.3 154.6 156.6 153.6 156.7 151.8 C 156.7 151.8 158.3 151.8 158.3 151.8 C 158.1 154.5 156 156 153.5 156 Z M 167.8 153.7 C 166.9 155.4 165.2 156 163.8 156 C 161.9 156 160.1 154.9 160.1 152.7 C 160.1 150.6 161.6 149.6 163.6 149.4 C 163.6 149.4 166.2 149 166.2 149 C 167.1 148.9 167.8 148.6 167.8 147.6 C 167.8 146.3 166.7 145.6 165.1 145.6 C 163.4 145.6 162.3 146.4 162.1 147.7 C 162.1 147.7 160.6 147.7 160.6 147.7 C 160.9 145.4 162.7 144.3 165.2 144.3 C 167.7 144.3 169.3 145.5 169.3 148 C 169.3 147.99 169.3 155.8 169.3 155.8 L 167.8 155.8 C 167.8 155.8 167.81 153.72 167.8 153.7 Z M 165.9 150.3 C 165.9 150.3 164.2 150.5 164.2 150.5 C 162.8 150.7 161.7 151.2 161.7 152.6 C 161.7 154 162.8 154.6 164.1 154.6 C 165.8 154.6 167.8 153.3 167.8 150.9 C 167.8 150.9 167.8 149.8 167.8 149.8 C 167.3 150.1 166.7 150.2 165.9 150.3 Z M 184.6 153.7 C 183.7 155.4 182 156 180.6 156 C 178.7 156 177 154.9 177 152.7 C 177 150.6 178.5 149.6 180.4 149.4 C 180.4 149.4 183.1 149 183.1 149 C 183.9 148.9 184.6 148.6 184.6 147.6 C 184.6 146.3 183.5 145.6 181.9 145.6 C 180.2 145.6 179.2 146.4 178.9 147.7 C 178.9 147.7 177.4 147.7 177.4 147.7 C 177.7 145.4 179.5 144.3 182 144.3 C 184.6 144.3 186.1 145.5 186.1 148 C 186.12 147.99 186.1 155.8 186.1 155.8 L 184.6 155.8 C 184.6 155.8 184.63 153.72 184.6 153.7 Z M 182.8 150.3 C 182.8 150.3 181 150.5 181 150.5 C 179.6 150.7 178.5 151.2 178.5 152.6 C 178.5 154 179.6 154.6 180.9 154.6 C 182.6 154.6 184.6 153.3 184.6 150.9 C 184.6 150.9 184.6 149.8 184.6 149.8 C 184.2 150.1 183.5 150.2 182.8 150.3 Z M 193.8 156 C 190.7 156 188.5 153.7 188.5 150.2 C 188.5 146.6 190.6 144.3 193.9 144.3 C 196.4 144.3 198.4 145.7 198.6 148.2 C 198.6 148.2 197.1 148.2 197.1 148.2 C 196.9 146.6 195.5 145.7 193.9 145.7 C 191.7 145.7 190.1 147.4 190.1 150.1 C 190.1 152.9 191.6 154.6 193.8 154.6 C 195.6 154.6 196.9 153.6 197 151.8 C 197 151.8 198.6 151.8 198.6 151.8 C 198.4 154.5 196.3 156 193.8 156 Z M 206.3 155.8 C 206.3 155.8 204.66 155.78 204.7 155.8 C 203.2 155.8 201.8 155.3 201.8 152.8 C 201.83 152.82 201.8 145.9 201.8 145.9 L 199.6 145.9 L 199.6 144.5 L 201.8 144.5 L 201.8 141.3 L 203.4 140.9 L 203.4 144.5 L 206.1 144.5 L 206.1 145.9 L 203.4 145.9 C 203.4 145.9 203.36 152.8 203.4 152.8 C 203.4 153.8 203.7 154.4 204.9 154.4 C 204.92 154.4 206.3 154.4 206.3 154.4 L 206.3 155.8 Z M 215.9 155.8 C 215.9 155.8 215.94 153.64 215.9 153.6 C 215.2 155.2 213.8 155.9 212.2 155.9 C 210.1 155.9 208.4 154.6 208.4 152 C 208.42 151.96 208.4 144.5 208.4 144.5 L 210 144.5 C 210 144.5 209.96 151.77 210 151.8 C 210 153.6 211 154.6 212.5 154.6 C 214.3 154.6 215.9 153.2 215.9 150.3 C 215.88 150.34 215.9 144.5 215.9 144.5 L 217.4 144.5 L 217.4 155.8 L 215.9 155.8 Z M 227.7 153.7 C 226.8 155.4 225.1 156 223.7 156 C 221.8 156 220 154.9 220 152.7 C 220 150.6 221.5 149.6 223.5 149.4 C 223.5 149.4 226.1 149 226.1 149 C 227 148.9 227.7 148.6 227.7 147.6 C 227.7 146.3 226.5 145.6 225 145.6 C 223.3 145.6 222.2 146.4 222 147.7 C 222 147.7 220.5 147.7 220.5 147.7 C 220.8 145.4 222.6 144.3 225.1 144.3 C 227.6 144.3 229.2 145.5 229.2 148 C 229.19 147.99 229.2 155.8 229.2 155.8 L 227.7 155.8 C 227.7 155.8 227.7 153.72 227.7 153.7 Z M 225.8 150.3 C 225.8 150.3 224.1 150.5 224.1 150.5 C 222.7 150.7 221.6 151.2 221.6 152.6 C 221.6 154 222.7 154.6 223.9 154.6 C 225.7 154.6 227.7 153.3 227.7 150.9 C 227.7 150.9 227.7 149.8 227.7 149.8 C 227.2 150.1 226.6 150.2 225.8 150.3 Z M 233.9 155.8 L 232.3 155.8 L 232.3 139.8 L 233.9 139.8 L 233.9 155.8 Z M 252.1 148.1 C 252.06 148.05 252.1 155.8 252.1 155.8 L 250.5 155.8 C 250.5 155.8 250.53 148.24 250.5 148.2 C 250.5 146.7 249.6 145.7 248 145.7 C 246.1 145.7 244.4 147.1 244.4 149.9 C 244.44 149.86 244.4 155.8 244.4 155.8 L 242.9 155.8 L 242.9 139.8 L 244.4 139.8 C 244.4 139.8 244.44 146.48 244.4 146.5 C 245.1 145.2 246.3 144.3 248.3 144.3 C 250.6 144.3 252.1 145.6 252.1 148.1 Z M 262.2 153.7 C 261.4 155.4 259.7 156 258.2 156 C 256.3 156 254.6 154.9 254.6 152.7 C 254.6 150.6 256.1 149.6 258 149.4 C 258 149.4 260.7 149 260.7 149 C 261.5 148.9 262.2 148.6 262.2 147.6 C 262.2 146.3 261.1 145.6 259.5 145.6 C 257.8 145.6 256.8 146.4 256.6 147.7 C 256.6 147.7 255 147.7 255 147.7 C 255.3 145.4 257.1 144.3 259.6 144.3 C 262.2 144.3 263.7 145.5 263.7 148 C 263.74 147.99 263.7 155.8 263.7 155.8 L 262.2 155.8 C 262.2 155.8 262.24 153.72 262.2 153.7 Z M 260.4 150.3 C 260.4 150.3 258.7 150.5 258.7 150.5 C 257.2 150.7 256.2 151.2 256.2 152.6 C 256.2 154 257.2 154.6 258.5 154.6 C 260.2 154.6 262.2 153.3 262.2 150.9 C 262.2 150.9 262.2 149.8 262.2 149.8 C 261.8 150.1 261.1 150.2 260.4 150.3 Z M 276 148.1 C 276.04 148.05 276 155.8 276 155.8 L 274.5 155.8 C 274.5 155.8 274.51 148.24 274.5 148.2 C 274.5 146.7 273.6 145.7 272 145.7 C 270.1 145.7 268.4 147.1 268.4 149.9 C 268.42 149.86 268.4 155.8 268.4 155.8 L 266.9 155.8 L 266.9 144.5 L 268.4 144.5 C 268.4 144.5 268.42 146.6 268.4 146.6 C 269.1 145.3 270.4 144.3 272.3 144.3 C 274.6 144.3 276 145.6 276 148.1 Z M 292.9 152.6 C 292.9 154.9 290.8 156 288.6 156 C 286.2 156 283.9 154.8 283.7 152.3 C 283.7 152.3 285.3 152.3 285.3 152.3 C 285.6 154 287.1 154.6 288.6 154.6 C 290 154.6 291.3 154.1 291.3 152.8 C 291.3 151.5 290 151.2 288.7 151 C 286.5 150.6 284 150.2 284 147.6 C 284 145.4 285.9 144.3 288.2 144.3 C 290.6 144.3 292.5 145.4 292.6 147.7 C 292.6 147.7 291 147.7 291 147.7 C 290.9 146.3 289.6 145.7 288.2 145.7 C 286.6 145.7 285.6 146.4 285.6 147.5 C 285.6 149 286.9 149.2 288.6 149.5 C 290.7 149.8 292.9 150.1 292.9 152.6 Z M 297.1 139.8 L 295.3 139.8 L 295.3 141.7 L 297.1 141.7 L 297.1 139.8 Z M 297 155.8 L 295.4 155.8 L 295.4 144.5 L 297 144.5 L 297 155.8 Z M 310.1 155.8 L 308.7 155.8 C 308.7 155.8 308.67 153.6 308.7 153.6 C 308.1 154.9 306.8 156 304.7 156 C 301.7 156 299.6 153.7 299.6 150.1 C 299.6 146.6 301.7 144.3 304.7 144.3 C 306.6 144.3 308 145.2 308.6 146.4 C 308.61 146.42 308.6 139.8 308.6 139.8 L 310.1 139.8 L 310.1 155.8 Z M 308.6 150.1 C 308.6 147.3 307 145.7 304.9 145.7 C 302.7 145.7 301.2 147.4 301.2 150.1 C 301.2 152.9 302.7 154.6 304.9 154.6 C 307.1 154.6 308.6 152.9 308.6 150.1 Z M 312.8 150.2 C 312.8 146.5 315 144.3 318.1 144.3 C 321.2 144.3 323.5 146.5 323.5 150.2 C 323.5 153.8 321.2 156 318.1 156 C 315 156 312.8 153.8 312.8 150.2 Z M 321.9 150.1 C 321.9 147.3 320.2 145.7 318.1 145.7 C 315.9 145.7 314.3 147.4 314.3 150.2 C 314.3 153 316 154.6 318.1 154.6 C 320.3 154.6 321.9 152.9 321.9 150.1 Z " stroke="none" fill="#000"/>  </g>  <g id="Polygon11901">    <path d="M 1.9 130.6 L 1.9 114.8 L 11.8 114.8 L 11.8 116.2 L 3.5 116.2 L 3.5 121.9 L 11.3 121.9 L 11.3 123.3 L 3.5 123.3 L 3.5 129.1 L 12.2 129.1 L 12.2 130.6 L 1.9 130.6 Z M 24 122.9 C 23.96 122.85 24 130.6 24 130.6 L 22.4 130.6 C 22.4 130.6 22.43 123.04 22.4 123 C 22.4 121.5 21.5 120.5 20 120.5 C 18 120.5 16.3 121.9 16.3 124.7 C 16.34 124.66 16.3 130.6 16.3 130.6 L 14.8 130.6 L 14.8 119.3 L 16.3 119.3 C 16.3 119.3 16.34 121.4 16.3 121.4 C 17 120.1 18.3 119.1 20.2 119.1 C 22.5 119.1 24 120.4 24 122.9 Z M 34.4 130.6 L 32.9 130.6 L 32.9 114.6 L 34.4 114.6 L 34.4 130.6 Z M 44.7 128.5 C 43.8 130.2 42.1 130.8 40.7 130.8 C 38.8 130.8 37 129.7 37 127.5 C 37 125.4 38.5 124.4 40.5 124.2 C 40.5 124.2 43.1 123.8 43.1 123.8 C 44 123.7 44.7 123.4 44.7 122.4 C 44.7 121.1 43.6 120.4 42 120.4 C 40.3 120.4 39.2 121.2 39 122.5 C 39 122.5 37.5 122.5 37.5 122.5 C 37.8 120.2 39.6 119.1 42.1 119.1 C 44.6 119.1 46.2 120.3 46.2 122.8 C 46.2 122.79 46.2 130.6 46.2 130.6 L 44.7 130.6 C 44.7 130.6 44.71 128.52 44.7 128.5 Z M 42.8 125.1 C 42.8 125.1 41.1 125.3 41.1 125.3 C 39.7 125.5 38.6 126 38.6 127.4 C 38.6 128.8 39.7 129.4 40.9 129.4 C 42.7 129.4 44.7 128.1 44.7 125.7 C 44.7 125.7 44.7 124.6 44.7 124.6 C 44.2 124.9 43.6 125 42.8 125.1 Z M 64 130.6 L 62.5 130.6 C 62.5 130.6 62.52 128.4 62.5 128.4 C 62 129.7 60.6 130.8 58.5 130.8 C 55.5 130.8 53.4 128.5 53.4 124.9 C 53.4 121.4 55.5 119.1 58.5 119.1 C 60.4 119.1 61.8 120 62.5 121.2 C 62.45 121.22 62.5 114.6 62.5 114.6 L 64 114.6 L 64 130.6 Z M 62.4 124.9 C 62.4 122.1 60.9 120.5 58.7 120.5 C 56.5 120.5 55 122.2 55 124.9 C 55 127.7 56.5 129.4 58.7 129.4 C 60.9 129.4 62.4 127.7 62.4 124.9 Z M 68.1 125.3 C 68.2 128.1 69.9 129.4 71.9 129.4 C 73.4 129.4 74.8 128.7 75.2 127.1 C 75.2 127.1 76.6 127.1 76.6 127.1 C 76.1 129.7 73.9 130.8 71.8 130.8 C 69.1 130.8 66.6 129 66.6 125 C 66.6 120.9 69.2 119.1 71.9 119.1 C 74.5 119.1 76.7 120.8 76.7 124.6 C 76.71 124.55 76.7 125.3 76.7 125.3 C 76.7 125.3 68.12 125.31 68.1 125.3 Z M 68.2 124 C 68.2 124 75.2 124 75.2 124 C 75.2 121.7 73.7 120.5 71.8 120.5 C 70 120.5 68.4 121.6 68.2 124 Z M 87.7 127.4 C 87.7 129.7 85.6 130.8 83.4 130.8 C 81 130.8 78.7 129.6 78.5 127.1 C 78.5 127.1 80.1 127.1 80.1 127.1 C 80.4 128.8 81.9 129.4 83.4 129.4 C 84.8 129.4 86.1 128.9 86.1 127.6 C 86.1 126.3 84.8 126 83.5 125.8 C 81.3 125.4 78.8 125 78.8 122.4 C 78.8 120.2 80.7 119.1 83 119.1 C 85.4 119.1 87.3 120.2 87.4 122.5 C 87.4 122.5 85.8 122.5 85.8 122.5 C 85.7 121.1 84.4 120.5 82.9 120.5 C 81.4 120.5 80.4 121.2 80.4 122.3 C 80.4 123.8 81.7 124 83.4 124.3 C 85.5 124.6 87.7 124.9 87.7 127.4 Z M 97.2 128.5 C 96.3 130.2 94.6 130.8 93.2 130.8 C 91.2 130.8 89.5 129.7 89.5 127.5 C 89.5 125.4 91 124.4 92.9 124.2 C 92.9 124.2 95.6 123.8 95.6 123.8 C 96.4 123.7 97.2 123.4 97.2 122.4 C 97.2 121.1 96 120.4 94.4 120.4 C 92.7 120.4 91.7 121.2 91.5 122.5 C 91.5 122.5 89.9 122.5 89.9 122.5 C 90.3 120.2 92.1 119.1 94.5 119.1 C 97.1 119.1 98.7 120.3 98.7 122.8 C 98.66 122.79 98.7 130.6 98.7 130.6 L 97.2 130.6 C 97.2 130.6 97.17 128.52 97.2 128.5 Z M 95.3 125.1 C 95.3 125.1 93.6 125.3 93.6 125.3 C 92.1 125.5 91.1 126 91.1 127.4 C 91.1 128.8 92.2 129.4 93.4 129.4 C 95.2 129.4 97.1 128.1 97.1 125.7 C 97.1 125.7 97.1 124.6 97.1 124.6 C 96.7 124.9 96.1 125 95.3 125.1 Z M 109.6 130.6 L 109.6 120.7 L 103.8 120.7 L 103.8 130.6 L 102.3 130.6 L 102.3 120.7 L 100.4 120.7 L 100.4 119.3 L 102.3 119.3 C 102.3 119.3 102.31 117.52 102.3 117.5 C 102.3 115 103.7 114.6 105.1 114.6 C 105.15 114.58 106.6 114.6 106.6 114.6 L 106.6 115.9 C 106.6 115.9 105.4 115.94 105.4 115.9 C 104.1 115.9 103.8 116.5 103.8 117.6 C 103.84 117.56 103.8 119.3 103.8 119.3 L 111.2 119.3 L 111.2 130.6 L 109.6 130.6 Z M 121.4 128.5 C 120.5 130.2 118.8 130.8 117.3 130.8 C 115.4 130.8 113.7 129.7 113.7 127.5 C 113.7 125.4 115.2 124.4 117.1 124.2 C 117.1 124.2 119.8 123.8 119.8 123.8 C 120.6 123.7 121.4 123.4 121.4 122.4 C 121.4 121.1 120.2 120.4 118.6 120.4 C 116.9 120.4 115.9 121.2 115.7 122.5 C 115.7 122.5 114.1 122.5 114.1 122.5 C 114.4 120.2 116.3 119.1 118.7 119.1 C 121.3 119.1 122.8 120.3 122.8 122.8 C 122.85 122.79 122.8 130.6 122.8 130.6 L 121.4 130.6 C 121.4 130.6 121.36 128.52 121.4 128.5 Z M 119.5 125.1 C 119.5 125.1 117.8 125.3 117.8 125.3 C 116.3 125.5 115.3 126 115.3 127.4 C 115.3 128.8 116.4 129.4 117.6 129.4 C 119.4 129.4 121.3 128.1 121.3 125.7 C 121.3 125.7 121.3 124.6 121.3 124.6 C 120.9 124.9 120.2 125 119.5 125.1 Z M 135.2 122.9 C 135.15 122.85 135.2 130.6 135.2 130.6 L 133.6 130.6 C 133.6 130.6 133.62 123.04 133.6 123 C 133.6 121.5 132.7 120.5 131.1 120.5 C 129.2 120.5 127.5 121.9 127.5 124.7 C 127.53 124.66 127.5 130.6 127.5 130.6 L 126 130.6 L 126 119.3 L 127.5 119.3 C 127.5 119.3 127.53 121.4 127.5 121.4 C 128.2 120.1 129.5 119.1 131.4 119.1 C 133.7 119.1 135.2 120.4 135.2 122.9 Z M 143.6 130.6 C 143.6 130.6 141.9 130.58 141.9 130.6 C 140.4 130.6 139.1 130.1 139.1 127.6 C 139.06 127.62 139.1 120.7 139.1 120.7 L 136.8 120.7 L 136.8 119.3 L 139.1 119.3 L 139.1 116.1 L 140.6 115.7 L 140.6 119.3 L 143.3 119.3 L 143.3 120.7 L 140.6 120.7 C 140.6 120.7 140.59 127.6 140.6 127.6 C 140.6 128.6 140.9 129.2 142.1 129.2 C 142.15 129.2 143.6 129.2 143.6 129.2 L 143.6 130.6 Z M 146.5 125.3 C 146.6 128.1 148.3 129.4 150.3 129.4 C 151.8 129.4 153.3 128.7 153.6 127.1 C 153.6 127.1 155 127.1 155 127.1 C 154.5 129.7 152.4 130.8 150.2 130.8 C 147.5 130.8 145 129 145 125 C 145 120.9 147.6 119.1 150.3 119.1 C 152.9 119.1 155.1 120.8 155.1 124.6 C 155.13 124.55 155.1 125.3 155.1 125.3 C 155.1 125.3 146.54 125.31 146.5 125.3 Z M 146.6 124 C 146.6 124 153.6 124 153.6 124 C 153.6 121.7 152.1 120.5 150.2 120.5 C 148.4 120.5 146.8 121.6 146.6 124 Z M 171 127.4 C 171 129.7 168.9 130.8 166.6 130.8 C 164.2 130.8 162 129.6 161.7 127.1 C 161.7 127.1 163.4 127.1 163.4 127.1 C 163.6 128.8 165.1 129.4 166.6 129.4 C 168.1 129.4 169.4 128.9 169.4 127.6 C 169.4 126.3 168.1 126 166.7 125.8 C 164.6 125.4 162 125 162 122.4 C 162 120.2 163.9 119.1 166.3 119.1 C 168.6 119.1 170.5 120.2 170.7 122.5 C 170.7 122.5 169.1 122.5 169.1 122.5 C 169 121.1 167.7 120.5 166.2 120.5 C 164.7 120.5 163.6 121.2 163.6 122.3 C 163.6 123.8 165 124 166.7 124.3 C 168.7 124.6 171 124.9 171 127.4 Z M 175.1 114.6 L 173.4 114.6 L 173.4 116.5 L 175.1 116.5 L 175.1 114.6 Z M 175 130.6 L 173.5 130.6 L 173.5 119.3 L 175 119.3 L 175 130.6 Z M 183.5 130.6 C 183.5 130.6 181.86 130.58 181.9 130.6 C 180.4 130.6 179 130.1 179 127.6 C 179.02 127.62 179 120.7 179 120.7 L 176.8 120.7 L 176.8 119.3 L 179 119.3 L 179 116.1 L 180.6 115.7 L 180.6 119.3 L 183.3 119.3 L 183.3 120.7 L 180.6 120.7 C 180.6 120.7 180.56 127.6 180.6 127.6 C 180.6 128.6 180.9 129.2 182.1 129.2 C 182.11 129.2 183.5 129.2 183.5 129.2 L 183.5 130.6 Z M 193.1 130.6 C 193.1 130.6 193.14 128.44 193.1 128.4 C 192.4 130 191 130.7 189.4 130.7 C 187.3 130.7 185.6 129.4 185.6 126.8 C 185.62 126.76 185.6 119.3 185.6 119.3 L 187.2 119.3 C 187.2 119.3 187.15 126.57 187.2 126.6 C 187.2 128.4 188.2 129.4 189.6 129.4 C 191.5 129.4 193.1 128 193.1 125.1 C 193.07 125.14 193.1 119.3 193.1 119.3 L 194.6 119.3 L 194.6 130.6 L 193.1 130.6 Z M 204.9 128.5 C 204 130.2 202.3 130.8 200.9 130.8 C 199 130.8 197.2 129.7 197.2 127.5 C 197.2 125.4 198.7 124.4 200.7 124.2 C 200.7 124.2 203.3 123.8 203.3 123.8 C 204.2 123.7 204.9 123.4 204.9 122.4 C 204.9 121.1 203.7 120.4 202.2 120.4 C 200.5 120.4 199.4 121.2 199.2 122.5 C 199.2 122.5 197.7 122.5 197.7 122.5 C 198 120.2 199.8 119.1 202.3 119.1 C 204.8 119.1 206.4 120.3 206.4 122.8 C 206.39 122.79 206.4 130.6 206.4 130.6 L 204.9 130.6 C 204.9 130.6 204.9 128.52 204.9 128.5 Z M 203 125.1 C 203 125.1 201.3 125.3 201.3 125.3 C 199.9 125.5 198.8 126 198.8 127.4 C 198.8 128.8 199.9 129.4 201.1 129.4 C 202.9 129.4 204.9 128.1 204.9 125.7 C 204.9 125.7 204.9 124.6 204.9 124.6 C 204.4 124.9 203.8 125 203 125.1 Z M 214 130.8 C 210.9 130.8 208.8 128.5 208.8 125 C 208.8 121.4 210.9 119.1 214.2 119.1 C 216.7 119.1 218.6 120.5 218.8 123 C 218.8 123 217.3 123 217.3 123 C 217.2 121.4 215.8 120.5 214.1 120.5 C 211.9 120.5 210.4 122.2 210.4 124.9 C 210.4 127.7 211.9 129.4 214.1 129.4 C 215.8 129.4 217.2 128.4 217.3 126.6 C 217.3 126.6 218.8 126.6 218.8 126.6 C 218.6 129.3 216.5 130.8 214 130.8 Z M 223.1 114.6 L 221.3 114.6 L 221.3 116.5 L 223.1 116.5 L 223.1 114.6 Z M 223 130.6 L 221.4 130.6 L 221.4 119.3 L 223 119.3 L 223 130.6 Z M 231.6 117 L 230.3 117 L 232.8 113.2 L 234.1 114.2 L 231.6 117 Z M 225.6 125 C 225.6 121.3 227.8 119.1 230.9 119.1 C 234 119.1 236.3 121.3 236.3 125 C 236.3 128.6 234.1 130.8 231 130.8 C 227.8 130.8 225.6 128.6 225.6 125 Z M 234.7 124.9 C 234.7 122.1 233 120.5 230.9 120.5 C 228.7 120.5 227.2 122.2 227.2 125 C 227.2 127.8 228.9 129.4 231 129.4 C 233.2 129.4 234.7 127.7 234.7 124.9 Z M 248.1 122.9 C 248.07 122.85 248.1 130.6 248.1 130.6 L 246.5 130.6 C 246.5 130.6 246.54 123.04 246.5 123 C 246.5 121.5 245.7 120.5 244.1 120.5 C 242.1 120.5 240.4 121.9 240.4 124.7 C 240.45 124.66 240.4 130.6 240.4 130.6 L 238.9 130.6 L 238.9 119.3 L 240.4 119.3 C 240.4 119.3 240.45 121.4 240.4 121.4 C 241.1 120.1 242.4 119.1 244.4 119.1 C 246.6 119.1 248.1 120.4 248.1 122.9 Z " stroke="none" fill="#000"/>  </g>  <g id="Polygon11900">    <path d="M 6.2 105.6 C 3.1 105.6 0.9 103.3 0.9 99.8 C 0.9 96.2 3 93.9 6.3 93.9 C 8.8 93.9 10.8 95.3 11 97.8 C 11 97.8 9.5 97.8 9.5 97.8 C 9.3 96.2 7.9 95.3 6.3 95.3 C 4.1 95.3 2.5 97 2.5 99.7 C 2.5 102.5 4.1 104.2 6.3 104.2 C 8 104.2 9.3 103.2 9.4 101.4 C 9.4 101.4 11 101.4 11 101.4 C 10.8 104.1 8.7 105.6 6.2 105.6 Z M 12.9 99.8 C 12.9 96.1 15.1 93.9 18.2 93.9 C 21.3 93.9 23.5 96.1 23.5 99.8 C 23.5 103.4 21.3 105.6 18.2 105.6 C 15.1 105.6 12.9 103.4 12.9 99.8 Z M 22 99.7 C 22 96.9 20.3 95.3 18.2 95.3 C 16 95.3 14.4 97 14.4 99.8 C 14.4 102.6 16.1 104.2 18.2 104.2 C 20.4 104.2 22 102.5 22 99.7 Z M 35.3 97.7 C 35.32 97.65 35.3 105.4 35.3 105.4 L 33.8 105.4 C 33.8 105.4 33.79 97.84 33.8 97.8 C 33.8 96.3 32.9 95.3 31.3 95.3 C 29.4 95.3 27.7 96.7 27.7 99.5 C 27.7 99.46 27.7 105.4 27.7 105.4 L 26.2 105.4 L 26.2 94.1 L 27.7 94.1 C 27.7 94.1 27.7 96.2 27.7 96.2 C 28.4 94.9 29.6 93.9 31.6 93.9 C 33.9 93.9 35.3 95.2 35.3 97.7 Z M 51.7 105.4 C 51.7 105.4 51.66 103.24 51.7 103.2 C 50.9 104.8 49.5 105.5 47.9 105.5 C 45.8 105.5 44.1 104.2 44.1 101.6 C 44.14 101.56 44.1 94.1 44.1 94.1 L 45.7 94.1 C 45.7 94.1 45.67 101.37 45.7 101.4 C 45.7 103.2 46.7 104.2 48.2 104.2 C 50 104.2 51.6 102.8 51.6 99.9 C 51.6 99.94 51.6 94.1 51.6 94.1 L 53.1 94.1 L 53.1 105.4 L 51.7 105.4 Z M 65.6 97.7 C 65.65 97.65 65.6 105.4 65.6 105.4 L 64.1 105.4 C 64.1 105.4 64.11 97.84 64.1 97.8 C 64.1 96.3 63.2 95.3 61.6 95.3 C 59.7 95.3 58 96.7 58 99.5 C 58.02 99.46 58 105.4 58 105.4 L 56.5 105.4 L 56.5 94.1 L 58 94.1 C 58 94.1 58.02 96.2 58 96.2 C 58.7 94.9 60 93.9 61.9 93.9 C 64.2 93.9 65.6 95.2 65.6 97.7 Z M 74.9 100.1 C 75 102.9 76.7 104.2 78.7 104.2 C 80.2 104.2 81.6 103.5 82 101.9 C 82 101.9 83.4 101.9 83.4 101.9 C 82.9 104.5 80.7 105.6 78.6 105.6 C 75.9 105.6 73.4 103.8 73.4 99.8 C 73.4 95.7 76 93.9 78.7 93.9 C 81.3 93.9 83.5 95.6 83.5 99.4 C 83.52 99.35 83.5 100.1 83.5 100.1 C 83.5 100.1 74.93 100.11 74.9 100.1 Z M 75 98.8 C 75 98.8 82 98.8 82 98.8 C 82 96.5 80.5 95.3 78.6 95.3 C 76.8 95.3 75.2 96.4 75 98.8 Z M 95.3 97.7 C 95.3 97.65 95.3 105.4 95.3 105.4 L 93.8 105.4 C 93.8 105.4 93.76 97.84 93.8 97.8 C 93.8 96.3 92.9 95.3 91.3 95.3 C 89.4 95.3 87.7 96.7 87.7 99.5 C 87.67 99.46 87.7 105.4 87.7 105.4 L 86.1 105.4 L 86.1 94.1 L 87.7 94.1 C 87.7 94.1 87.67 96.2 87.7 96.2 C 88.3 94.9 89.6 93.9 91.6 93.9 C 93.8 93.9 95.3 95.2 95.3 97.7 Z M 102.1 90.7 C 100.9 90.7 100.6 91.3 100.6 92.4 C 100.59 92.36 100.6 94.1 100.6 94.1 L 103.1 94.1 L 103.1 95.5 L 100.6 95.5 L 100.6 105.4 L 99.1 105.4 L 99.1 95.5 L 97.2 95.5 L 97.2 94.1 L 99.1 94.1 C 99.1 94.1 99.06 92.32 99.1 92.3 C 99.1 89.8 100.4 89.4 101.9 89.4 C 101.89 89.38 103.4 89.4 103.4 89.4 L 103.4 90.7 C 103.4 90.7 102.14 90.74 102.1 90.7 Z M 104.4 99.8 C 104.4 96.1 106.7 93.9 109.8 93.9 C 112.9 93.9 115.1 96.1 115.1 99.8 C 115.1 103.4 112.9 105.6 109.8 105.6 C 106.7 105.6 104.4 103.4 104.4 99.8 Z M 113.5 99.7 C 113.5 96.9 111.8 95.3 109.7 95.3 C 107.5 95.3 106 97 106 99.8 C 106 102.6 107.7 104.2 109.8 104.2 C 112 104.2 113.5 102.5 113.5 99.7 Z M 126 109.7 C 126 109.7 126 103.22 126 103.2 C 125.4 104.5 124 105.5 122.1 105.5 C 119.6 105.5 117 103.8 117 99.6 C 117 95.6 119.6 93.9 122.1 93.9 C 124 93.9 125.4 94.9 126 96.1 C 126.04 96.08 126 94.1 126 94.1 L 127.5 94.1 L 127.5 109.7 L 126 109.7 Z M 126 99.7 C 126 96.5 124.1 95.3 122.3 95.3 C 120.4 95.3 118.6 96.5 118.6 99.7 C 118.6 102.8 120.4 104.1 122.3 104.1 C 124.1 104.1 126 102.8 126 99.7 Z M 138.2 105.4 C 138.2 105.4 138.2 103.24 138.2 103.2 C 137.4 104.8 136 105.5 134.4 105.5 C 132.3 105.5 130.7 104.2 130.7 101.6 C 130.68 101.56 130.7 94.1 130.7 94.1 L 132.2 94.1 C 132.2 94.1 132.21 101.37 132.2 101.4 C 132.2 103.2 133.2 104.2 134.7 104.2 C 136.5 104.2 138.1 102.8 138.1 99.9 C 138.14 99.94 138.1 94.1 138.1 94.1 L 139.7 94.1 L 139.7 105.4 L 138.2 105.4 Z M 143.8 100.1 C 143.8 102.9 145.6 104.2 147.6 104.2 C 149.1 104.2 150.5 103.5 150.9 101.9 C 150.9 101.9 152.3 101.9 152.3 101.9 C 151.8 104.5 149.6 105.6 147.5 105.6 C 144.8 105.6 142.3 103.8 142.3 99.8 C 142.3 95.7 144.8 93.9 147.5 93.9 C 150.2 93.9 152.4 95.6 152.4 99.4 C 152.4 99.35 152.4 100.1 152.4 100.1 C 152.4 100.1 143.81 100.11 143.8 100.1 Z M 143.8 98.8 C 143.8 98.8 150.8 98.8 150.8 98.8 C 150.8 96.5 149.4 95.3 147.5 95.3 C 145.7 95.3 144.1 96.4 143.8 98.8 Z M 170.8 99.7 C 170.8 103.2 168.7 105.6 165.7 105.6 C 163.7 105.6 162.3 104.5 161.7 103.3 C 161.74 103.3 161.7 105.4 161.7 105.4 L 160.3 105.4 L 160.3 89.4 L 161.8 89.4 C 161.8 89.4 161.8 96.37 161.8 96.4 C 162.4 95 163.8 93.9 165.8 93.9 C 168.7 93.9 170.8 96.1 170.8 99.7 Z M 169.2 99.8 C 169.2 97 167.7 95.4 165.6 95.4 C 163.4 95.4 161.8 97 161.8 99.8 C 161.8 102.6 163.3 104.3 165.5 104.3 C 167.7 104.3 169.2 102.5 169.2 99.8 Z M 172.7 99.8 C 172.7 96.1 174.9 93.9 178 93.9 C 181.1 93.9 183.4 96.1 183.4 99.8 C 183.4 103.4 181.1 105.6 178 105.6 C 174.9 105.6 172.7 103.4 172.7 99.8 Z M 181.8 99.7 C 181.8 96.9 180.1 95.3 178 95.3 C 175.8 95.3 174.3 97 174.3 99.8 C 174.3 102.6 176 104.2 178.1 104.2 C 180.2 104.2 181.8 102.5 181.8 99.7 Z M 198.5 105.4 C 198.5 105.4 196.81 105.38 196.8 105.4 C 195.3 105.4 194 104.9 194 102.4 C 193.97 102.42 194 95.5 194 95.5 L 188.2 95.5 C 188.2 95.5 188.18 102.4 188.2 102.4 C 188.2 103.4 188.5 104 189.7 104 C 189.73 104 191.1 104 191.1 104 L 191.1 105.4 C 191.1 105.4 189.48 105.38 189.5 105.4 C 188 105.4 186.6 104.9 186.6 102.4 C 186.65 102.42 186.6 95.5 186.6 95.5 L 184.4 95.5 L 184.4 94.1 L 186.6 94.1 L 186.6 90.9 L 188.2 90.5 L 188.2 94.1 L 194 94.1 L 194 90.9 L 195.5 90.5 L 195.5 94.1 L 198.2 94.1 L 198.2 95.5 L 195.5 95.5 C 195.5 95.5 195.51 102.4 195.5 102.4 C 195.5 103.4 195.8 104 197.1 104 C 197.06 104 198.5 104 198.5 104 L 198.5 105.4 Z M 200 99.8 C 200 96.1 202.2 93.9 205.3 93.9 C 208.4 93.9 210.6 96.1 210.6 99.8 C 210.6 103.4 208.4 105.6 205.3 105.6 C 202.2 105.6 200 103.4 200 99.8 Z M 209.1 99.7 C 209.1 96.9 207.4 95.3 205.3 95.3 C 203.1 95.3 201.5 97 201.5 99.8 C 201.5 102.6 203.2 104.2 205.3 104.2 C 207.5 104.2 209.1 102.5 209.1 99.7 Z M 213.3 94.1 L 214.8 94.1 C 214.8 94.1 214.79 95.97 214.8 96 C 215.4 94.6 216.6 93.9 218.1 93.9 C 219.7 93.9 221 94.8 221.4 96.2 C 221.9 95 223.1 93.9 225.1 93.9 C 227.1 93.9 228.8 95 228.8 97.3 C 228.75 97.3 228.8 105.4 228.8 105.4 L 227.2 105.4 C 227.2 105.4 227.22 97.84 227.2 97.8 C 227.2 96.1 226.1 95.3 224.8 95.3 C 223.1 95.3 221.8 96.6 221.8 98.9 C 221.76 98.93 221.8 105.4 221.8 105.4 L 220.2 105.4 C 220.2 105.4 220.25 97.84 220.2 97.8 C 220.2 96.1 219.2 95.3 217.9 95.3 C 216.2 95.3 214.8 96.5 214.8 98.9 C 214.81 98.93 214.8 105.4 214.8 105.4 L 213.3 105.4 L 213.3 94.1 Z M 231.4 99.3 L 231.4 97.9 L 237.8 97.9 L 237.8 99.3 L 231.4 99.3 Z M 248 105.4 C 248 105.4 247.99 103.24 248 103.2 C 247.2 104.8 245.8 105.5 244.2 105.5 C 242.1 105.5 240.5 104.2 240.5 101.6 C 240.47 101.56 240.5 94.1 240.5 94.1 L 242 94.1 C 242 94.1 242 101.37 242 101.4 C 242 103.2 243 104.2 244.5 104.2 C 246.3 104.2 247.9 102.8 247.9 99.9 C 247.92 99.94 247.9 94.1 247.9 94.1 L 249.5 94.1 L 249.5 105.4 L 248 105.4 Z M 263.3 99.7 C 263.3 103.8 260.8 105.5 258.2 105.5 C 256.2 105.5 255 104.6 254.3 103.4 C 254.35 103.43 254.3 109.7 254.3 109.7 L 252.8 109.7 L 252.8 94.1 L 254.3 94.1 C 254.3 94.1 254.31 96.48 254.3 96.5 C 254.8 95.1 256.3 93.9 258.3 93.9 C 260.8 93.9 263.3 95.6 263.3 99.7 Z M 261.8 99.7 C 261.8 96.6 260 95.4 258.1 95.4 C 256.2 95.4 254.4 96.6 254.4 99.8 C 254.4 102.9 256.2 104.1 258.1 104.1 C 259.9 104.1 261.8 102.9 261.8 99.7 Z M 265.2 103.2 L 267.4 103.2 L 267.4 105.4 L 265.2 105.4 L 265.2 103.2 Z " stroke="none" fill="#000"/>  </g>  <g id="Polygon11899">    <path d="M 1.9 80.2 L 1.9 64.4 L 11.8 64.4 L 11.8 65.8 L 3.5 65.8 L 3.5 71.5 L 11.3 71.5 L 11.3 72.9 L 3.5 72.9 L 3.5 78.7 L 12.2 78.7 L 12.2 80.2 L 1.9 80.2 Z M 24 72.5 C 23.96 72.45 24 80.2 24 80.2 L 22.4 80.2 C 22.4 80.2 22.43 72.64 22.4 72.6 C 22.4 71.1 21.5 70.1 20 70.1 C 18 70.1 16.3 71.5 16.3 74.3 C 16.34 74.26 16.3 80.2 16.3 80.2 L 14.8 80.2 L 14.8 68.9 L 16.3 68.9 C 16.3 68.9 16.34 71 16.3 71 C 17 69.7 18.3 68.7 20.2 68.7 C 22.5 68.7 24 70 24 72.5 Z M 38.5 80.2 L 36.8 80.2 L 31.3 64.4 L 33.1 64.4 L 37.6 78.3 L 42.3 64.4 L 43.8 64.4 L 38.5 80.2 Z M 44.3 74.6 C 44.3 70.9 46.5 68.7 49.6 68.7 C 52.7 68.7 55 70.9 55 74.6 C 55 78.2 52.7 80.4 49.6 80.4 C 46.5 80.4 44.3 78.2 44.3 74.6 Z M 53.4 74.5 C 53.4 71.7 51.7 70.1 49.6 70.1 C 47.4 70.1 45.8 71.8 45.8 74.6 C 45.8 77.4 47.5 79 49.6 79 C 51.8 79 53.4 77.3 53.4 74.5 Z M 66.7 72.5 C 66.74 72.45 66.7 80.2 66.7 80.2 L 65.2 80.2 C 65.2 80.2 65.2 72.64 65.2 72.6 C 65.2 71.1 64.3 70.1 62.7 70.1 C 60.8 70.1 59.1 71.5 59.1 74.3 C 59.11 74.26 59.1 80.2 59.1 80.2 L 57.6 80.2 L 57.6 68.9 L 59.1 68.9 C 59.1 68.9 59.11 71 59.1 71 C 59.8 69.7 61 68.7 63 68.7 C 65.3 68.7 66.7 70 66.7 72.5 Z M 75.1 80.2 C 75.1 80.2 73.48 80.18 73.5 80.2 C 72 80.2 70.6 79.7 70.6 77.2 C 70.64 77.22 70.6 70.3 70.6 70.3 L 68.4 70.3 L 68.4 68.9 L 70.6 68.9 L 70.6 65.7 L 72.2 65.3 L 72.2 68.9 L 74.9 68.9 L 74.9 70.3 L 72.2 70.3 C 72.2 70.3 72.18 77.2 72.2 77.2 C 72.2 78.2 72.5 78.8 73.7 78.8 C 73.73 78.8 75.1 78.8 75.1 78.8 L 75.1 80.2 Z M 76.6 74.6 C 76.6 70.9 78.8 68.7 81.9 68.7 C 85 68.7 87.3 70.9 87.3 74.6 C 87.3 78.2 85.1 80.4 82 80.4 C 78.9 80.4 76.6 78.2 76.6 74.6 Z M 85.7 74.5 C 85.7 71.7 84 70.1 81.9 70.1 C 79.7 70.1 78.2 71.8 78.2 74.6 C 78.2 77.4 79.9 79 82 79 C 84.2 79 85.7 77.3 85.7 74.5 Z M 100.4 74.5 C 100.4 78 98.3 80.4 95.3 80.4 C 93.3 80.4 92 79.3 91.4 78.1 C 91.39 78.1 91.4 80.2 91.4 80.2 L 89.9 80.2 L 89.9 64.2 L 91.5 64.2 C 91.5 64.2 91.45 71.17 91.5 71.2 C 92 69.8 93.4 68.7 95.5 68.7 C 98.4 68.7 100.4 70.9 100.4 74.5 Z M 98.9 74.6 C 98.9 71.8 97.4 70.2 95.2 70.2 C 93 70.2 91.5 71.8 91.5 74.6 C 91.5 77.4 93 79.1 95.2 79.1 C 97.4 79.1 98.9 77.3 98.9 74.6 Z M 103.8 74.9 C 103.9 77.7 105.6 79 107.6 79 C 109.1 79 110.6 78.3 110.9 76.7 C 110.9 76.7 112.3 76.7 112.3 76.7 C 111.8 79.3 109.7 80.4 107.5 80.4 C 104.8 80.4 102.3 78.6 102.3 74.6 C 102.3 70.5 104.9 68.7 107.6 68.7 C 110.2 68.7 112.4 70.4 112.4 74.2 C 112.43 74.15 112.4 74.9 112.4 74.9 C 112.4 74.9 103.84 74.91 103.8 74.9 Z M 103.9 73.6 C 103.9 73.6 110.9 73.6 110.9 73.6 C 110.9 71.3 109.4 70.1 107.5 70.1 C 105.8 70.1 104.1 71.2 103.9 73.6 Z M 116.6 80.2 L 115.1 80.2 L 115.1 64.2 L 116.6 64.2 L 116.6 80.2 Z M 121 80.1 C 121.04 80.06 120 80.1 120 80.1 L 120 78 L 122.3 78 C 122.3 78 122.26 80.12 122.3 80.1 C 122.3 82.6 120.8 83.5 119.2 83.6 C 119.2 83.6 119 82.7 119 82.7 C 120.7 82.4 121 81.4 121 80.1 Z M 137.9 77 C 137.9 79.3 135.8 80.4 133.5 80.4 C 131.1 80.4 128.9 79.2 128.7 76.7 C 128.7 76.7 130.3 76.7 130.3 76.7 C 130.6 78.4 132 79 133.6 79 C 135 79 136.3 78.5 136.3 77.2 C 136.3 75.9 135 75.6 133.7 75.4 C 131.5 75 128.9 74.6 128.9 72 C 128.9 69.8 130.9 68.7 133.2 68.7 C 135.6 68.7 137.5 69.8 137.6 72.1 C 137.6 72.1 136 72.1 136 72.1 C 135.9 70.7 134.6 70.1 133.1 70.1 C 131.6 70.1 130.5 70.8 130.5 71.9 C 130.5 73.4 131.9 73.6 133.6 73.9 C 135.6 74.2 137.9 74.5 137.9 77 Z M 139.7 74.6 C 139.7 70.9 141.9 68.7 145 68.7 C 148.1 68.7 150.4 70.9 150.4 74.6 C 150.4 78.2 148.1 80.4 145 80.4 C 141.9 80.4 139.7 78.2 139.7 74.6 Z M 148.8 74.5 C 148.8 71.7 147.1 70.1 145 70.1 C 142.8 70.1 141.2 71.8 141.2 74.6 C 141.2 77.4 142.9 79 145 79 C 147.2 79 148.8 77.3 148.8 74.5 Z M 153 68.9 L 154.5 68.9 C 154.5 68.9 154.5 70.77 154.5 70.8 C 155.1 69.4 156.3 68.7 157.8 68.7 C 159.4 68.7 160.8 69.6 161.1 71 C 161.6 69.8 162.9 68.7 164.8 68.7 C 166.8 68.7 168.5 69.8 168.5 72.1 C 168.46 72.1 168.5 80.2 168.5 80.2 L 166.9 80.2 C 166.9 80.2 166.93 72.64 166.9 72.6 C 166.9 70.9 165.9 70.1 164.5 70.1 C 162.9 70.1 161.5 71.4 161.5 73.7 C 161.47 73.73 161.5 80.2 161.5 80.2 L 160 80.2 C 160 80.2 159.96 72.64 160 72.6 C 160 70.9 158.9 70.1 157.6 70.1 C 155.9 70.1 154.5 71.3 154.5 73.7 C 154.52 73.73 154.5 80.2 154.5 80.2 L 153 80.2 L 153 68.9 Z M 171 74.6 C 171 70.9 173.2 68.7 176.3 68.7 C 179.4 68.7 181.7 70.9 181.7 74.6 C 181.7 78.2 179.4 80.4 176.3 80.4 C 173.2 80.4 171 78.2 171 74.6 Z M 180.1 74.5 C 180.1 71.7 178.4 70.1 176.3 70.1 C 174.1 70.1 172.6 71.8 172.6 74.6 C 172.6 77.4 174.3 79 176.4 79 C 178.5 79 180.1 77.3 180.1 74.5 Z M 192.7 77 C 192.7 79.3 190.6 80.4 188.3 80.4 C 185.9 80.4 183.7 79.2 183.5 76.7 C 183.5 76.7 185.1 76.7 185.1 76.7 C 185.3 78.4 186.8 79 188.3 79 C 189.8 79 191.1 78.5 191.1 77.2 C 191.1 75.9 189.8 75.6 188.5 75.4 C 186.3 75 183.7 74.6 183.7 72 C 183.7 69.8 185.7 68.7 188 68.7 C 190.4 68.7 192.3 69.8 192.4 72.1 C 192.4 72.1 190.8 72.1 190.8 72.1 C 190.7 70.7 189.4 70.1 187.9 70.1 C 186.4 70.1 185.3 70.8 185.3 71.9 C 185.3 73.4 186.7 73.6 188.4 73.9 C 190.4 74.2 192.7 74.5 192.7 77 Z M 202.1 64.2 L 200.3 64.2 L 200.3 66.1 L 202.1 66.1 L 202.1 64.2 Z M 202 80.2 L 200.4 80.2 L 200.4 68.9 L 202 68.9 L 202 80.2 Z M 214.5 72.5 C 214.49 72.45 214.5 80.2 214.5 80.2 L 213 80.2 C 213 80.2 212.96 72.64 213 72.6 C 213 71.1 212.1 70.1 210.5 70.1 C 208.5 70.1 206.9 71.5 206.9 74.3 C 206.87 74.26 206.9 80.2 206.9 80.2 L 205.3 80.2 L 205.3 68.9 L 206.9 68.9 C 206.9 68.9 206.87 71 206.9 71 C 207.5 69.7 208.8 68.7 210.8 68.7 C 213 68.7 214.5 70 214.5 72.5 Z M 222.2 80.2 L 220.6 80.2 L 216.4 68.9 L 218 68.9 L 221.4 78.6 L 224.8 68.9 L 226.4 68.9 L 222.2 80.2 Z M 229 74.9 C 229 77.7 230.7 79 232.7 79 C 234.2 79 235.7 78.3 236 76.7 C 236 76.7 237.5 76.7 237.5 76.7 C 237 79.3 234.8 80.4 232.7 80.4 C 230 80.4 227.5 78.6 227.5 74.6 C 227.5 70.5 230 68.7 232.7 68.7 C 235.4 68.7 237.6 70.4 237.6 74.2 C 237.57 74.15 237.6 74.9 237.6 74.9 C 237.6 74.9 228.98 74.91 229 74.9 Z M 229 73.6 C 229 73.6 236 73.6 236 73.6 C 236 71.3 234.5 70.1 232.7 70.1 C 230.9 70.1 229.2 71.2 229 73.6 Z M 245.8 70.2 C 245.8 70.2 245.47 70.23 245.5 70.2 C 243.1 70.2 241.7 71.6 241.7 74.2 C 241.73 74.2 241.7 80.2 241.7 80.2 L 240.2 80.2 L 240.2 68.9 L 241.7 68.9 C 241.7 68.9 241.71 70.98 241.7 71 C 242.2 69.5 243.6 68.8 245.3 68.8 C 245.34 68.78 245.8 68.8 245.8 68.8 L 245.8 70.2 Z M 256.2 77 C 256.2 79.3 254.1 80.4 251.9 80.4 C 249.4 80.4 247.2 79.2 247 76.7 C 247 76.7 248.6 76.7 248.6 76.7 C 248.9 78.4 250.3 79 251.9 79 C 253.3 79 254.6 78.5 254.6 77.2 C 254.6 75.9 253.3 75.6 252 75.4 C 249.8 75 247.3 74.6 247.3 72 C 247.3 69.8 249.2 68.7 251.5 68.7 C 253.9 68.7 255.8 69.8 255.9 72.1 C 255.9 72.1 254.3 72.1 254.3 72.1 C 254.2 70.7 252.9 70.1 251.4 70.1 C 249.9 70.1 248.8 70.8 248.8 71.9 C 248.8 73.4 250.2 73.6 251.9 73.9 C 254 74.2 256.2 74.5 256.2 77 Z M 258 74.6 C 258 70.9 260.2 68.7 263.3 68.7 C 266.4 68.7 268.7 70.9 268.7 74.6 C 268.7 78.2 266.4 80.4 263.3 80.4 C 260.2 80.4 258 78.2 258 74.6 Z M 267.1 74.5 C 267.1 71.7 265.4 70.1 263.3 70.1 C 261.1 70.1 259.6 71.8 259.6 74.6 C 259.6 77.4 261.3 79 263.4 79 C 265.5 79 267.1 77.3 267.1 74.5 Z M 276.9 70.2 C 276.9 70.2 276.57 70.23 276.6 70.2 C 274.2 70.2 272.8 71.6 272.8 74.2 C 272.83 74.2 272.8 80.2 272.8 80.2 L 271.3 80.2 L 271.3 68.9 L 272.8 68.9 C 272.8 68.9 272.81 70.98 272.8 71 C 273.3 69.5 274.7 68.8 276.4 68.8 C 276.44 68.78 276.9 68.8 276.9 68.8 L 276.9 70.2 Z M 279.5 74.9 C 279.5 77.7 281.3 79 283.2 79 C 284.7 79 286.2 78.3 286.5 76.7 C 286.5 76.7 288 76.7 288 76.7 C 287.5 79.3 285.3 80.4 283.2 80.4 C 280.5 80.4 278 78.6 278 74.6 C 278 70.5 280.5 68.7 283.2 68.7 C 285.9 68.7 288.1 70.4 288.1 74.2 C 288.08 74.15 288.1 74.9 288.1 74.9 C 288.1 74.9 279.49 74.91 279.5 74.9 Z M 279.5 73.6 C 279.5 73.6 286.5 73.6 286.5 73.6 C 286.5 71.3 285.1 70.1 283.2 70.1 C 281.4 70.1 279.7 71.2 279.5 73.6 Z M 299.1 77 C 299.1 79.3 297 80.4 294.7 80.4 C 292.3 80.4 290.1 79.2 289.9 76.7 C 289.9 76.7 291.5 76.7 291.5 76.7 C 291.8 78.4 293.2 79 294.8 79 C 296.2 79 297.5 78.5 297.5 77.2 C 297.5 75.9 296.2 75.6 294.9 75.4 C 292.7 75 290.1 74.6 290.1 72 C 290.1 69.8 292.1 68.7 294.4 68.7 C 296.8 68.7 298.7 69.8 298.8 72.1 C 298.8 72.1 297.2 72.1 297.2 72.1 C 297.1 70.7 295.8 70.1 294.3 70.1 C 292.8 70.1 291.7 70.8 291.7 71.9 C 291.7 73.4 293.1 73.6 294.8 73.9 C 296.8 74.2 299.1 74.5 299.1 77 Z " stroke="none" fill="#000"/>  </g>  <g id="Polygon11898">    <path d="M 7.2 45 L 4.3 45 L 0 33.4 L 3 33.4 L 5.8 41.7 L 8.7 33.4 L 11.6 33.4 L 7.2 45 Z M 22 37.2 C 21.97 37.19 22 45 22 45 L 19.2 45 C 19.2 45 19.24 43.3 19.2 43.3 C 18.3 44.8 16.9 45.2 15.7 45.2 C 13.9 45.2 12 44.1 12 41.6 C 12 39.8 13 38.6 15.7 38.2 C 15.7 38.2 18.2 37.8 18.2 37.8 C 18.9 37.7 19.3 37.5 19.3 36.8 C 19.3 35.8 18.5 35.4 17.4 35.4 C 15.9 35.4 15.2 36.1 15.1 37.1 C 15.1 37.1 12.4 37.1 12.4 37.1 C 12.7 34.4 14.9 33.2 17.5 33.2 C 20.2 33.2 22 34.5 22 37.2 Z M 19.3 40.1 C 19.3 40.1 19.3 39.5 19.3 39.5 C 19 39.6 18.5 39.8 17.9 39.8 C 17.9 39.8 16.6 40 16.6 40 C 15.2 40.2 14.8 40.8 14.8 41.5 C 14.8 42.4 15.4 42.9 16.4 42.9 C 17.8 42.9 19.3 41.8 19.3 40.1 Z M 27.3 45 L 24.5 45 L 24.5 29 L 27.3 29 L 27.3 45 Z M 40.6 39.2 C 40.6 43 38.2 45.2 34.9 45.2 C 31.7 45.2 29.3 43 29.3 39.2 C 29.3 35.4 31.7 33.2 34.9 33.2 C 38.2 33.2 40.6 35.4 40.6 39.2 Z M 32.1 39.2 C 32.1 41.5 33.4 42.6 35 42.6 C 36.6 42.6 37.7 41.4 37.7 39.2 C 37.7 36.9 36.5 35.8 34.9 35.8 C 33.2 35.8 32.1 37 32.1 39.2 Z M 49.1 36 C 49.1 36 48.4 35.97 48.4 36 C 46.5 36 45.4 37 45.4 39.3 C 45.38 39.31 45.4 45 45.4 45 L 42.6 45 L 42.6 33.4 L 45.4 33.4 C 45.4 33.4 45.36 35.05 45.4 35 C 45.9 33.8 47 33.3 48.4 33.3 C 48.38 33.26 49.1 33.3 49.1 33.3 L 49.1 36 Z M 61 45 L 58 45 L 53.8 33.4 L 56.7 33.4 L 59.6 41.7 L 62.4 33.4 L 65.3 33.4 L 61 45 Z M 68.4 40 C 68.5 41.9 69.8 42.8 71.4 42.8 C 72.5 42.8 73.6 42.4 73.9 41.3 C 73.9 41.3 76.5 41.3 76.5 41.3 C 76 43.9 73.7 45.2 71.3 45.2 C 68.5 45.2 65.7 43.3 65.7 39.2 C 65.7 35.2 68.4 33.2 71.3 33.2 C 74.1 33.2 76.5 35 76.5 38.9 C 76.5 38.89 76.5 40 76.5 40 C 76.5 40 68.44 40.03 68.4 40 Z M 68.5 38 C 68.5 38 73.8 38 73.8 38 C 73.8 36.5 72.7 35.6 71.3 35.6 C 70 35.6 68.8 36.3 68.5 38 Z M 85 36 C 85 36 84.31 35.97 84.3 36 C 82.4 36 81.3 37 81.3 39.3 C 81.29 39.31 81.3 45 81.3 45 L 78.5 45 L 78.5 33.4 L 81.3 33.4 C 81.3 33.4 81.27 35.05 81.3 35 C 81.9 33.8 82.9 33.3 84.3 33.3 C 84.29 33.26 85 33.3 85 33.3 L 85 36 Z M 96.9 45 L 94.1 45 C 94.1 45 94.12 43.2 94.1 43.2 C 93.5 44.5 92.1 45.2 90.6 45.2 C 87.8 45.2 85.5 43.2 85.5 39.2 C 85.5 35.2 87.8 33.2 90.6 33.2 C 92.1 33.2 93.4 33.8 94.1 34.9 C 94.06 34.92 94.1 29 94.1 29 L 96.9 29 L 96.9 45 Z M 94.1 39.2 C 94.1 36.8 92.7 35.7 91.2 35.7 C 89.7 35.7 88.3 36.8 88.3 39.2 C 88.3 41.5 89.7 42.7 91.2 42.7 C 92.7 42.7 94.1 41.5 94.1 39.2 Z M 108.8 37.2 C 108.84 37.19 108.8 45 108.8 45 L 106.1 45 C 106.1 45 106.11 43.3 106.1 43.3 C 105.2 44.8 103.8 45.2 102.6 45.2 C 100.8 45.2 98.8 44.1 98.8 41.6 C 98.8 39.8 99.9 38.6 102.5 38.2 C 102.5 38.2 105 37.8 105 37.8 C 105.7 37.7 106.2 37.5 106.2 36.8 C 106.2 35.8 105.4 35.4 104.3 35.4 C 102.8 35.4 102.1 36.1 102 37.1 C 102 37.1 99.3 37.1 99.3 37.1 C 99.6 34.4 101.8 33.2 104.4 33.2 C 107.1 33.2 108.8 34.5 108.8 37.2 Z M 106.1 40.1 C 106.1 40.1 106.1 39.5 106.1 39.5 C 105.9 39.6 105.3 39.8 104.8 39.8 C 104.8 39.8 103.5 40 103.5 40 C 102.1 40.2 101.6 40.8 101.6 41.5 C 101.6 42.4 102.3 42.9 103.3 42.9 C 104.7 42.9 106.1 41.8 106.1 40.1 Z M 122 45 L 119.3 45 C 119.3 45 119.28 43.2 119.3 43.2 C 118.6 44.5 117.3 45.2 115.7 45.2 C 113 45.2 110.6 43.2 110.6 39.2 C 110.6 35.2 113 33.2 115.7 33.2 C 117.2 33.2 118.5 33.8 119.2 34.9 C 119.22 34.92 119.2 29 119.2 29 L 122 29 L 122 45 Z M 119.3 39.2 C 119.3 36.8 117.9 35.7 116.4 35.7 C 114.8 35.7 113.5 36.8 113.5 39.2 C 113.5 41.5 114.8 42.7 116.4 42.7 C 117.9 42.7 119.3 41.5 119.3 39.2 Z M 126.7 40 C 126.8 41.9 128.1 42.8 129.7 42.8 C 130.8 42.8 131.8 42.4 132.2 41.3 C 132.2 41.3 134.7 41.3 134.7 41.3 C 134.2 43.9 131.9 45.2 129.6 45.2 C 126.8 45.2 124 43.3 124 39.2 C 124 35.2 126.6 33.2 129.6 33.2 C 132.4 33.2 134.8 35 134.8 38.9 C 134.78 38.89 134.8 40 134.8 40 C 134.8 40 126.71 40.03 126.7 40 Z M 126.8 38 C 126.8 38 132 38 132 38 C 132 36.5 131 35.6 129.5 35.6 C 128.3 35.6 127 36.3 126.8 38 Z M 143.3 36 C 143.3 36 142.59 35.97 142.6 36 C 140.6 36 139.6 37 139.6 39.3 C 139.56 39.31 139.6 45 139.6 45 L 136.8 45 L 136.8 33.4 L 139.5 33.4 C 139.5 33.4 139.54 35.05 139.5 35 C 140.1 33.8 141.2 33.3 142.6 33.3 C 142.57 33.26 143.3 33.3 143.3 33.3 L 143.3 36 Z M 155.1 39.2 C 155.1 43 152.6 45.2 149.4 45.2 C 146.2 45.2 143.7 43 143.7 39.2 C 143.7 35.4 146.2 33.2 149.4 33.2 C 152.6 33.2 155.1 35.4 155.1 39.2 Z M 146.6 39.2 C 146.6 41.5 147.9 42.6 149.4 42.6 C 151.1 42.6 152.2 41.4 152.2 39.2 C 152.2 36.9 150.9 35.8 149.4 35.8 C 147.7 35.8 146.6 37 146.6 39.2 Z " stroke="none" fill="#000"/>  </g>  <g id="Polygon11897">    <path d="M 11.5 16.3 L 4.8 16.3 L 3.5 19.8 L 0.4 19.8 L 6.5 4 L 9.7 4 L 16 19.8 L 12.8 19.8 L 11.5 16.3 Z M 10.4 13.5 L 8.1 7.3 L 5.8 13.5 L 10.4 13.5 Z M 28 12.3 C 27.97 12.31 28 19.8 28 19.8 L 25.2 19.8 C 25.2 19.8 25.18 12.56 25.2 12.6 C 25.2 11.3 24.4 10.5 23.1 10.5 C 21.5 10.5 20.6 11.6 20.6 13.5 C 20.58 13.52 20.6 19.8 20.6 19.8 L 17.8 19.8 L 17.8 8.2 L 20.6 8.2 C 20.6 8.2 20.56 9.87 20.6 9.9 C 21.2 8.8 22.2 8 24.1 8 C 26.7 8 28 9.5 28 12.3 Z M 34.2 6.1 L 37.4 1.1 L 39.5 2.8 L 36.5 6.1 L 34.2 6.1 Z M 39.9 12 C 39.86 11.99 39.9 19.8 39.9 19.8 L 37.1 19.8 C 37.1 19.8 37.13 18.1 37.1 18.1 C 36.2 19.6 34.8 20 33.6 20 C 31.8 20 29.9 18.9 29.9 16.4 C 29.9 14.6 30.9 13.4 33.6 13 C 33.6 13 36.1 12.6 36.1 12.6 C 36.7 12.5 37.2 12.3 37.2 11.6 C 37.2 10.6 36.4 10.2 35.3 10.2 C 33.8 10.2 33.1 10.9 33 11.9 C 33 11.9 30.3 11.9 30.3 11.9 C 30.6 9.2 32.8 8 35.4 8 C 38.1 8 39.9 9.3 39.9 12 Z M 37.1 14.9 C 37.1 14.9 37.1 14.3 37.1 14.3 C 36.9 14.4 36.4 14.6 35.8 14.6 C 35.8 14.6 34.5 14.8 34.5 14.8 C 33.1 15 32.7 15.6 32.7 16.3 C 32.7 17.2 33.3 17.7 34.3 17.7 C 35.7 17.7 37.1 16.6 37.1 14.9 Z M 45.2 19.8 L 42.4 19.8 L 42.4 3.8 L 45.2 3.8 L 45.2 19.8 Z M 47.8 6.7 L 50.8 6.7 L 50.8 3.5 L 47.8 3.5 L 47.8 6.7 Z M 47.9 8.2 L 50.7 8.2 L 50.7 19.8 L 47.9 19.8 L 47.9 8.2 Z M 62.6 16.2 C 62.6 18.8 60.3 20 57.7 20 C 55.3 20 52.7 19 52.5 16.1 C 52.5 16.1 55.4 16.1 55.4 16.1 C 55.5 17.2 56.6 17.7 57.9 17.7 C 59.1 17.7 59.9 17.3 59.9 16.5 C 59.9 15.7 59.3 15.6 57.7 15.3 C 55.5 14.9 52.9 14.5 52.9 11.7 C 52.9 9.1 55.1 8 57.5 8 C 60.2 8 62.2 9.3 62.4 11.9 C 62.4 11.9 59.6 11.9 59.6 11.9 C 59.5 10.8 58.7 10.3 57.5 10.3 C 56.2 10.3 55.6 10.9 55.6 11.6 C 55.6 12.5 56.6 12.7 58 12.9 C 60.1 13.2 62.6 13.5 62.6 16.2 Z M 64.4 6.7 L 67.4 6.7 L 67.4 3.5 L 64.4 3.5 L 64.4 6.7 Z M 64.5 8.2 L 67.3 8.2 L 67.3 19.8 L 64.5 19.8 L 64.5 8.2 Z M 79.3 16.2 C 79.3 18.8 77 20 74.4 20 C 72 20 69.4 19 69.2 16.1 C 69.2 16.1 72 16.1 72 16.1 C 72.2 17.2 73.2 17.7 74.5 17.7 C 75.7 17.7 76.5 17.3 76.5 16.5 C 76.5 15.7 76 15.6 74.4 15.3 C 72.1 14.9 69.5 14.5 69.5 11.7 C 69.5 9.1 71.7 8 74.1 8 C 76.8 8 78.8 9.3 79 11.9 C 79 11.9 76.3 11.9 76.3 11.9 C 76.2 10.8 75.3 10.3 74.2 10.3 C 72.8 10.3 72.2 10.9 72.2 11.6 C 72.2 12.5 73.3 12.7 74.7 12.9 C 76.8 13.2 79.3 13.5 79.3 16.2 Z M 97.8 14 C 97.8 18.1 95.3 20 92.6 20 C 91.1 20 89.8 19.5 89.1 18.4 C 89.14 18.4 89.1 19.8 89.1 19.8 L 86.4 19.8 L 86.4 3.8 L 89.2 3.8 C 89.2 3.8 89.21 9.89 89.2 9.9 C 89.9 8.7 91.2 8 92.8 8 C 95.5 8 97.8 10 97.8 14 Z M 95 14 C 95 11.7 93.6 10.5 92.1 10.5 C 90.6 10.5 89.1 11.7 89.1 14 C 89.1 16.4 90.6 17.6 92.1 17.6 C 93.6 17.6 95 16.4 95 14 Z M 110.4 14 C 110.4 17.8 108 20 104.7 20 C 101.5 20 99.1 17.8 99.1 14 C 99.1 10.2 101.5 8 104.7 8 C 108 8 110.4 10.2 110.4 14 Z M 101.9 14 C 101.9 16.3 103.2 17.4 104.7 17.4 C 106.4 17.4 107.5 16.2 107.5 14 C 107.5 11.7 106.2 10.6 104.7 10.6 C 103 10.6 101.9 11.8 101.9 14 Z M 125.3 19.8 C 125.3 19.8 123.48 19.78 123.5 19.8 C 121.3 19.8 119.9 19.1 119.9 16 C 119.93 16 119.9 10.7 119.9 10.7 L 115.7 10.7 C 115.7 10.7 115.71 16.13 115.7 16.1 C 115.7 16.8 115.9 17.3 116.9 17.3 C 116.88 17.3 118.3 17.3 118.3 17.3 L 118.3 19.8 C 118.3 19.8 116.46 19.78 116.5 19.8 C 114.3 19.8 112.9 19.1 112.9 16 C 112.91 16 112.9 10.7 112.9 10.7 L 110.8 10.7 L 110.8 8.2 L 112.9 8.2 L 112.9 5.6 L 115.7 4.8 L 115.7 8.2 L 119.9 8.2 L 119.9 5.6 L 122.7 4.8 L 122.7 8.2 L 125 8.2 L 125 10.7 L 122.7 10.7 C 122.7 10.7 122.72 16.13 122.7 16.1 C 122.7 16.8 122.9 17.3 123.9 17.3 C 123.9 17.3 125.3 17.3 125.3 17.3 L 125.3 19.8 Z M 137.5 14 C 137.5 17.8 135 20 131.8 20 C 128.6 20 126.1 17.8 126.1 14 C 126.1 10.2 128.6 8 131.8 8 C 135 8 137.5 10.2 137.5 14 Z M 129 14 C 129 16.3 130.3 17.4 131.8 17.4 C 133.5 17.4 134.6 16.2 134.6 14 C 134.6 11.7 133.3 10.6 131.8 10.6 C 130.1 10.6 129 11.8 129 14 Z M 155.8 12 C 155.82 11.97 155.8 19.8 155.8 19.8 L 153 19.8 C 153 19.8 153.02 12.52 153 12.5 C 153 11.1 152.4 10.5 151.2 10.5 C 149.9 10.5 149 11.3 149 13.3 C 149.03 13.27 149 19.8 149 19.8 L 146.2 19.8 C 146.2 19.8 146.24 12.52 146.2 12.5 C 146.2 11.1 145.5 10.5 144.4 10.5 C 143.1 10.5 142.3 11.3 142.3 13.3 C 142.25 13.25 142.3 19.8 142.3 19.8 L 139.5 19.8 L 139.5 8.2 L 142.2 8.2 C 142.2 8.2 142.21 9.89 142.2 9.9 C 142.6 9 143.4 8 145.2 8 C 146.7 8 147.9 8.7 148.4 9.9 C 148.8 9.1 149.7 8 151.8 8 C 154.2 8 155.8 9.5 155.8 12 Z M 164.6 11.9 L 158.1 11.9 L 158.1 14.4 L 164.6 14.4 L 164.6 11.9 Z M 177.2 19.8 L 174.4 19.8 C 174.4 19.8 174.42 18.14 174.4 18.1 C 173.8 19.2 172.7 19.9 171.1 19.9 C 168.7 19.9 166.9 18.4 166.9 15.4 C 166.91 15.39 166.9 8.2 166.9 8.2 L 169.7 8.2 C 169.7 8.2 169.7 15.18 169.7 15.2 C 169.7 16.8 170.5 17.4 171.7 17.4 C 173.2 17.4 174.4 16.5 174.4 13.8 C 174.36 13.8 174.4 8.2 174.4 8.2 L 177.2 8.2 L 177.2 19.8 Z M 191.3 13.8 C 191.3 18 188.7 19.9 186 19.9 C 184.4 19.9 183.3 19.2 182.7 18.4 C 182.68 18.4 182.7 24.1 182.7 24.1 L 179.9 24.1 L 179.9 8.2 L 182.6 8.2 C 182.6 8.2 182.61 10.04 182.6 10 C 183.2 8.8 184.5 8 186.2 8 C 188.9 8 191.3 9.9 191.3 13.8 Z M 188.4 14 C 188.4 11.6 187 10.5 185.5 10.5 C 184 10.5 182.6 11.6 182.6 14 C 182.6 16.3 184 17.4 185.5 17.4 C 187 17.4 188.4 16.3 188.4 14 Z M 209.9 13.8 C 209.9 18 207.3 19.9 204.6 19.9 C 203 19.9 202 19.2 201.3 18.4 C 201.3 18.4 201.3 24.1 201.3 24.1 L 198.5 24.1 L 198.5 8.2 L 201.2 8.2 C 201.2 8.2 201.24 10.04 201.2 10 C 201.8 8.8 203.2 8 204.9 8 C 207.6 8 209.9 9.9 209.9 13.8 Z M 207.1 14 C 207.1 11.6 205.7 10.5 204.2 10.5 C 202.6 10.5 201.2 11.6 201.2 14 C 201.2 16.3 202.6 17.4 204.2 17.4 C 205.7 17.4 207.1 16.3 207.1 14 Z M 221.1 12 C 221.15 11.99 221.1 19.8 221.1 19.8 L 218.4 19.8 C 218.4 19.8 218.42 18.1 218.4 18.1 C 217.5 19.6 216.1 20 214.9 20 C 213.1 20 211.2 18.9 211.2 16.4 C 211.2 14.6 212.2 13.4 214.8 13 C 214.8 13 217.3 12.6 217.3 12.6 C 218 12.5 218.5 12.3 218.5 11.6 C 218.5 10.6 217.7 10.2 216.6 10.2 C 215.1 10.2 214.4 10.9 214.3 11.9 C 214.3 11.9 211.6 11.9 211.6 11.9 C 211.9 9.2 214.1 8 216.7 8 C 219.4 8 221.1 9.3 221.1 12 Z M 218.4 14.9 C 218.4 14.9 218.4 14.3 218.4 14.3 C 218.2 14.4 217.6 14.6 217.1 14.6 C 217.1 14.6 215.8 14.8 215.8 14.8 C 214.4 15 213.9 15.6 213.9 16.3 C 213.9 17.2 214.6 17.7 215.6 17.7 C 217 17.7 218.4 16.6 218.4 14.9 Z M 230.2 10.8 C 230.2 10.8 229.48 10.77 229.5 10.8 C 227.5 10.8 226.5 11.8 226.5 14.1 C 226.46 14.11 226.5 19.8 226.5 19.8 L 223.7 19.8 L 223.7 8.2 L 226.4 8.2 C 226.4 8.2 226.44 9.85 226.4 9.8 C 227 8.6 228.1 8.1 229.5 8.1 C 229.46 8.06 230.2 8.1 230.2 8.1 L 230.2 10.8 Z M 240.8 12 C 240.85 11.99 240.8 19.8 240.8 19.8 L 238.1 19.8 C 238.1 19.8 238.12 18.1 238.1 18.1 C 237.2 19.6 235.8 20 234.6 20 C 232.8 20 230.8 18.9 230.8 16.4 C 230.8 14.6 231.9 13.4 234.5 13 C 234.5 13 237 12.6 237 12.6 C 237.7 12.5 238.2 12.3 238.2 11.6 C 238.2 10.6 237.4 10.2 236.3 10.2 C 234.8 10.2 234.1 10.9 234 11.9 C 234 11.9 231.3 11.9 231.3 11.9 C 231.6 9.2 233.8 8 236.4 8 C 239.1 8 240.8 9.3 240.8 12 Z M 238.1 14.9 C 238.1 14.9 238.1 14.3 238.1 14.3 C 237.9 14.4 237.3 14.6 236.8 14.6 C 236.8 14.6 235.5 14.8 235.5 14.8 C 234.1 15 233.6 15.6 233.6 16.3 C 233.6 17.2 234.3 17.7 235.3 17.7 C 236.7 17.7 238.1 16.6 238.1 14.9 Z M 250.2 14.8 C 250.2 16.7 251.6 17.6 253.2 17.6 C 254.2 17.6 255.3 17.2 255.6 16.1 C 255.6 16.1 258.2 16.1 258.2 16.1 C 257.7 18.7 255.4 20 253 20 C 250.2 20 247.5 18.1 247.5 14 C 247.5 10 250.1 8 253 8 C 255.9 8 258.2 9.8 258.2 13.7 C 258.23 13.69 258.2 14.8 258.2 14.8 C 258.2 14.8 250.17 14.83 250.2 14.8 Z M 250.2 12.8 C 250.2 12.8 255.5 12.8 255.5 12.8 C 255.5 11.3 254.4 10.4 253 10.4 C 251.7 10.4 250.5 11.1 250.2 12.8 Z M 270.4 12.3 C 270.41 12.31 270.4 19.8 270.4 19.8 L 267.6 19.8 C 267.6 19.8 267.62 12.56 267.6 12.6 C 267.6 11.3 266.9 10.5 265.6 10.5 C 264 10.5 263 11.6 263 13.5 C 263.02 13.52 263 19.8 263 19.8 L 260.2 19.8 L 260.2 8.2 L 263 8.2 C 263 8.2 263 9.87 263 9.9 C 263.7 8.8 264.6 8 266.5 8 C 269.2 8 270.4 9.5 270.4 12.3 Z M 277.9 20 C 274.1 20 272.3 17.1 272.3 14 C 272.3 10.9 274.1 8 277.9 8 C 280.8 8 282.9 9.6 283 12.4 C 283 12.4 280.3 12.4 280.3 12.4 C 280.2 11.3 279.4 10.5 278 10.5 C 276 10.5 275.1 12.2 275.1 14 C 275.1 15.9 276 17.4 278 17.4 C 279.3 17.4 280.1 16.7 280.3 15.7 C 280.3 15.7 283.1 15.7 283.1 15.7 C 282.7 18.5 280.7 20 277.9 20 Z M 295.7 14 C 295.7 17.8 293.3 20 290 20 C 286.8 20 284.4 17.8 284.4 14 C 284.4 10.2 286.8 8 290 8 C 293.3 8 295.7 10.2 295.7 14 Z M 287.2 14 C 287.2 16.3 288.5 17.4 290.1 17.4 C 291.7 17.4 292.8 16.2 292.8 14 C 292.8 11.7 291.6 10.6 290 10.6 C 288.3 10.6 287.2 11.8 287.2 14 Z M 307.9 12.3 C 307.88 12.31 307.9 19.8 307.9 19.8 L 305.1 19.8 C 305.1 19.8 305.08 12.56 305.1 12.6 C 305.1 11.3 304.3 10.5 303 10.5 C 301.5 10.5 300.5 11.6 300.5 13.5 C 300.49 13.52 300.5 19.8 300.5 19.8 L 297.7 19.8 L 297.7 8.2 L 300.5 8.2 C 300.5 8.2 300.46 9.87 300.5 9.9 C 301.1 8.8 302.1 8 304 8 C 306.6 8 307.9 9.5 307.9 12.3 Z M 316.4 19.8 C 316.4 19.8 314.6 19.78 314.6 19.8 C 312.4 19.8 311 19.1 311 16 C 311.05 16 311 10.7 311 10.7 L 308.9 10.7 L 308.9 8.2 L 311 8.2 L 311 5.6 L 313.8 4.8 L 313.8 8.2 L 316.2 8.2 L 316.2 10.7 L 313.8 10.7 C 313.8 10.7 313.84 16.13 313.8 16.1 C 313.8 16.8 314 17.3 315 17.3 C 315.02 17.3 316.4 17.3 316.4 17.3 L 316.4 19.8 Z M 324.6 10.8 C 324.6 10.8 323.82 10.77 323.8 10.8 C 321.9 10.8 320.8 11.8 320.8 14.1 C 320.79 14.11 320.8 19.8 320.8 19.8 L 318 19.8 L 318 8.2 L 320.8 8.2 C 320.8 8.2 320.77 9.85 320.8 9.8 C 321.4 8.6 322.4 8.1 323.8 8.1 C 323.79 8.06 324.6 8.1 324.6 8.1 L 324.6 10.8 Z M 335.2 12 C 335.18 11.99 335.2 19.8 335.2 19.8 L 332.4 19.8 C 332.4 19.8 332.45 18.1 332.4 18.1 C 331.5 19.6 330.2 20 328.9 20 C 327.1 20 325.2 18.9 325.2 16.4 C 325.2 14.6 326.2 13.4 328.9 13 C 328.9 13 331.4 12.6 331.4 12.6 C 332.1 12.5 332.6 12.3 332.6 11.6 C 332.6 10.6 331.7 10.2 330.6 10.2 C 329.1 10.2 328.4 10.9 328.3 11.9 C 328.3 11.9 325.6 11.9 325.6 11.9 C 325.9 9.2 328.1 8 330.7 8 C 333.5 8 335.2 9.3 335.2 12 Z M 332.5 14.9 C 332.5 14.9 332.5 14.3 332.5 14.3 C 332.2 14.4 331.7 14.6 331.1 14.6 C 331.1 14.6 329.8 14.8 329.8 14.8 C 328.4 15 328 15.6 328 16.3 C 328 17.2 328.6 17.7 329.6 17.7 C 331 17.7 332.5 16.6 332.5 14.9 Z M 344.2 10.8 C 344.2 10.8 343.51 10.77 343.5 10.8 C 341.6 10.8 340.5 11.8 340.5 14.1 C 340.49 14.11 340.5 19.8 340.5 19.8 L 337.7 19.8 L 337.7 8.2 L 340.5 8.2 C 340.5 8.2 340.47 9.85 340.5 9.8 C 341.1 8.6 342.1 8.1 343.5 8.1 C 343.49 8.06 344.2 8.1 344.2 8.1 L 344.2 10.8 Z " stroke="none" fill="#000"/>  </g></svg>