<?xml version="1.0" standalone="no"?><!DOCTYPE svg PUBLIC "-//W3C//DTD SVG 1.1//EN" "http://www.w3.org/Graphics/SVG/1.1/DTD/svg11.dtd"><svg xmlns="http://www.w3.org/2000/svg" version="1.1" width="397.4px" height="115.4px" viewBox="0 0 397.4 115.4">  <desc>mientras que algunos sectores, como el comercio al por menor y la automoci n, ya estaban bajo la presi n del cambio e</desc>  <defs/>  <g id="Polygon11568">    <path d="M 2.5 90.1 C 2.5 92.9 4.2 94.2 6.2 94.2 C 7.7 94.2 9.2 93.5 9.5 91.9 C 9.5 91.9 11 91.9 11 91.9 C 10.5 94.5 8.3 95.6 6.1 95.6 C 3.4 95.6 0.9 93.8 0.9 89.8 C 0.9 85.7 3.5 83.9 6.2 83.9 C 8.9 83.9 11 85.6 11 89.4 C 11.05 89.35 11 90.1 11 90.1 C 11 90.1 2.46 90.11 2.5 90.1 Z M 2.5 88.8 C 2.5 88.8 9.5 88.8 9.5 88.8 C 9.5 86.5 8 85.3 6.1 85.3 C 4.4 85.3 2.7 86.4 2.5 88.8 Z M 22 92.2 C 22 94.5 20 95.6 17.7 95.6 C 15.3 95.6 13.1 94.4 12.8 91.9 C 12.8 91.9 14.5 91.9 14.5 91.9 C 14.7 93.6 16.2 94.2 17.7 94.2 C 19.2 94.2 20.5 93.7 20.5 92.4 C 20.5 91.1 19.2 90.8 17.8 90.6 C 15.7 90.2 13.1 89.8 13.1 87.2 C 13.1 85 15 83.9 17.3 83.9 C 19.7 83.9 21.6 85 21.8 87.3 C 21.8 87.3 20.2 87.3 20.2 87.3 C 20.1 85.9 18.8 85.3 17.3 85.3 C 15.7 85.3 14.7 86 14.7 87.1 C 14.7 88.6 16.1 88.8 17.8 89.1 C 19.8 89.4 22 89.7 22 92.2 Z M 29.7 95.4 C 29.7 95.4 28.06 95.38 28.1 95.4 C 26.6 95.4 25.2 94.9 25.2 92.4 C 25.22 92.42 25.2 85.5 25.2 85.5 L 23 85.5 L 23 84.1 L 25.2 84.1 L 25.2 80.9 L 26.8 80.5 L 26.8 84.1 L 29.5 84.1 L 29.5 85.5 L 26.8 85.5 C 26.8 85.5 26.75 92.4 26.8 92.4 C 26.8 93.4 27 94 28.3 94 C 28.31 94 29.7 94 29.7 94 L 29.7 95.4 Z M 37.5 85.4 C 37.5 85.4 37.19 85.43 37.2 85.4 C 34.8 85.4 33.5 86.8 33.5 89.4 C 33.45 89.4 33.5 95.4 33.5 95.4 L 31.9 95.4 L 31.9 84.1 L 33.4 84.1 C 33.4 84.1 33.43 86.18 33.4 86.2 C 34 84.7 35.3 84 37.1 84 C 37.06 83.98 37.5 84 37.5 84 L 37.5 85.4 Z M 47 95.4 C 47 95.4 46.96 93.24 47 93.2 C 46.2 94.8 44.8 95.5 43.2 95.5 C 41.1 95.5 39.4 94.2 39.4 91.6 C 39.44 91.56 39.4 84.1 39.4 84.1 L 41 84.1 C 41 84.1 40.97 91.37 41 91.4 C 41 93.2 42 94.2 43.5 94.2 C 45.3 94.2 46.9 92.8 46.9 89.9 C 46.89 89.94 46.9 84.1 46.9 84.1 L 48.4 84.1 L 48.4 95.4 L 47 95.4 Z M 56.3 95.6 C 53.2 95.6 51.1 93.3 51.1 89.8 C 51.1 86.2 53.2 83.9 56.4 83.9 C 58.9 83.9 60.9 85.3 61.1 87.8 C 61.1 87.8 59.6 87.8 59.6 87.8 C 59.4 86.2 58 85.3 56.4 85.3 C 54.2 85.3 52.6 87 52.6 89.7 C 52.6 92.5 54.2 94.2 56.4 94.2 C 58.1 94.2 59.4 93.2 59.6 91.4 C 59.6 91.4 61.1 91.4 61.1 91.4 C 60.9 94.1 58.8 95.6 56.3 95.6 Z M 68.8 95.4 C 68.8 95.4 67.18 95.38 67.2 95.4 C 65.7 95.4 64.3 94.9 64.3 92.4 C 64.34 92.42 64.3 85.5 64.3 85.5 L 62.1 85.5 L 62.1 84.1 L 64.3 84.1 L 64.3 80.9 L 65.9 80.5 L 65.9 84.1 L 68.6 84.1 L 68.6 85.5 L 65.9 85.5 C 65.9 85.5 65.88 92.4 65.9 92.4 C 65.9 93.4 66.2 94 67.4 94 C 67.43 94 68.8 94 68.8 94 L 68.8 95.4 Z M 78.5 95.4 C 78.5 95.4 78.45 93.24 78.5 93.2 C 77.7 94.8 76.3 95.5 74.7 95.5 C 72.6 95.5 70.9 94.2 70.9 91.6 C 70.94 91.56 70.9 84.1 70.9 84.1 L 72.5 84.1 C 72.5 84.1 72.47 91.37 72.5 91.4 C 72.5 93.2 73.5 94.2 75 94.2 C 76.8 94.2 78.4 92.8 78.4 89.9 C 78.39 89.94 78.4 84.1 78.4 84.1 L 79.9 84.1 L 79.9 95.4 L 78.5 95.4 Z M 88.9 85.4 C 88.9 85.4 88.56 85.43 88.6 85.4 C 86.2 85.4 84.8 86.8 84.8 89.4 C 84.82 89.4 84.8 95.4 84.8 95.4 L 83.3 95.4 L 83.3 84.1 L 84.8 84.1 C 84.8 84.1 84.8 86.18 84.8 86.2 C 85.3 84.7 86.7 84 88.4 84 C 88.43 83.98 88.9 84 88.9 84 L 88.9 85.4 Z M 97.8 93.3 C 97 95 95.3 95.6 93.8 95.6 C 91.9 95.6 90.2 94.5 90.2 92.3 C 90.2 90.2 91.7 89.2 93.6 89 C 93.6 89 96.3 88.6 96.3 88.6 C 97.1 88.5 97.8 88.2 97.8 87.2 C 97.8 85.9 96.7 85.2 95.1 85.2 C 93.4 85.2 92.4 86 92.1 87.3 C 92.1 87.3 90.6 87.3 90.6 87.3 C 90.9 85 92.7 83.9 95.2 83.9 C 97.8 83.9 99.3 85.1 99.3 87.6 C 99.33 87.59 99.3 95.4 99.3 95.4 L 97.8 95.4 C 97.8 95.4 97.84 93.32 97.8 93.3 Z M 96 89.9 C 96 89.9 94.2 90.1 94.2 90.1 C 92.8 90.3 91.7 90.8 91.7 92.2 C 91.7 93.6 92.8 94.2 94.1 94.2 C 95.8 94.2 97.8 92.9 97.8 90.5 C 97.8 90.5 97.8 89.4 97.8 89.4 C 97.4 89.7 96.7 89.8 96 89.9 Z M 104 95.4 L 102.5 95.4 L 102.5 79.4 L 104 79.4 L 104 95.4 Z M 120 93.3 C 119.1 95 117.4 95.6 116 95.6 C 114 95.6 112.3 94.5 112.3 92.3 C 112.3 90.2 113.8 89.2 115.7 89 C 115.7 89 118.4 88.6 118.4 88.6 C 119.2 88.5 120 88.2 120 87.2 C 120 85.9 118.8 85.2 117.2 85.2 C 115.5 85.2 114.5 86 114.3 87.3 C 114.3 87.3 112.7 87.3 112.7 87.3 C 113.1 85 114.9 83.9 117.3 83.9 C 119.9 83.9 121.5 85.1 121.5 87.6 C 121.46 87.59 121.5 95.4 121.5 95.4 L 120 95.4 C 120 95.4 119.97 93.32 120 93.3 Z M 118.1 89.9 C 118.1 89.9 116.4 90.1 116.4 90.1 C 115 90.3 113.9 90.8 113.9 92.2 C 113.9 93.6 115 94.2 116.2 94.2 C 118 94.2 119.9 92.9 119.9 90.5 C 119.9 90.5 119.9 89.4 119.9 89.4 C 119.5 89.7 118.9 89.8 118.1 89.9 Z M 133.8 87.7 C 133.77 87.65 133.8 95.4 133.8 95.4 L 132.2 95.4 C 132.2 95.4 132.23 87.84 132.2 87.8 C 132.2 86.3 131.4 85.3 129.8 85.3 C 127.8 85.3 126.1 86.7 126.1 89.5 C 126.14 89.46 126.1 95.4 126.1 95.4 L 124.6 95.4 L 124.6 84.1 L 126.1 84.1 C 126.1 84.1 126.14 86.2 126.1 86.2 C 126.8 84.9 128.1 83.9 130.1 83.9 C 132.3 83.9 133.8 85.2 133.8 87.7 Z M 142.2 95.4 C 142.2 95.4 140.51 95.38 140.5 95.4 C 139 95.4 137.7 94.9 137.7 92.4 C 137.67 92.42 137.7 85.5 137.7 85.5 L 135.4 85.5 L 135.4 84.1 L 137.7 84.1 L 137.7 80.9 L 139.2 80.5 L 139.2 84.1 L 141.9 84.1 L 141.9 85.5 L 139.2 85.5 C 139.2 85.5 139.21 92.4 139.2 92.4 C 139.2 93.4 139.5 94 140.8 94 C 140.76 94 142.2 94 142.2 94 L 142.2 95.4 Z M 145.1 90.1 C 145.2 92.9 146.9 94.2 148.9 94.2 C 150.4 94.2 151.9 93.5 152.2 91.9 C 152.2 91.9 153.7 91.9 153.7 91.9 C 153.2 94.5 151 95.6 148.8 95.6 C 146.1 95.6 143.6 93.8 143.6 89.8 C 143.6 85.7 146.2 83.9 148.9 83.9 C 151.6 83.9 153.7 85.6 153.7 89.4 C 153.74 89.35 153.7 90.1 153.7 90.1 C 153.7 90.1 145.15 90.11 145.1 90.1 Z M 145.2 88.8 C 145.2 88.8 152.2 88.8 152.2 88.8 C 152.2 86.5 150.7 85.3 148.8 85.3 C 147.1 85.3 145.4 86.4 145.2 88.8 Z M 164.7 92.2 C 164.7 94.5 162.7 95.6 160.4 95.6 C 158 95.6 155.8 94.4 155.5 91.9 C 155.5 91.9 157.2 91.9 157.2 91.9 C 157.4 93.6 158.9 94.2 160.4 94.2 C 161.9 94.2 163.1 93.7 163.1 92.4 C 163.1 91.1 161.8 90.8 160.5 90.6 C 158.4 90.2 155.8 89.8 155.8 87.2 C 155.8 85 157.7 83.9 160 83.9 C 162.4 83.9 164.3 85 164.4 87.3 C 164.4 87.3 162.9 87.3 162.9 87.3 C 162.7 85.9 161.4 85.3 160 85.3 C 158.4 85.3 157.4 86 157.4 87.1 C 157.4 88.6 158.8 88.8 160.5 89.1 C 162.5 89.4 164.7 89.7 164.7 92.2 Z M 181.9 95.4 L 180.4 95.4 C 180.4 95.4 180.43 93.2 180.4 93.2 C 179.9 94.5 178.5 95.6 176.4 95.6 C 173.5 95.6 171.4 93.3 171.4 89.7 C 171.4 86.2 173.5 83.9 176.4 83.9 C 178.4 83.9 179.8 84.8 180.4 86 C 180.37 86.02 180.4 79.4 180.4 79.4 L 181.9 79.4 L 181.9 95.4 Z M 180.3 89.7 C 180.3 86.9 178.8 85.3 176.6 85.3 C 174.4 85.3 172.9 87 172.9 89.7 C 172.9 92.5 174.4 94.2 176.6 94.2 C 178.8 94.2 180.3 92.5 180.3 89.7 Z M 186 90.1 C 186.1 92.9 187.8 94.2 189.8 94.2 C 191.3 94.2 192.8 93.5 193.1 91.9 C 193.1 91.9 194.5 91.9 194.5 91.9 C 194 94.5 191.9 95.6 189.7 95.6 C 187 95.6 184.5 93.8 184.5 89.8 C 184.5 85.7 187.1 83.9 189.8 83.9 C 192.4 83.9 194.6 85.6 194.6 89.4 C 194.63 89.35 194.6 90.1 194.6 90.1 C 194.6 90.1 186.04 90.11 186 90.1 Z M 186.1 88.8 C 186.1 88.8 193.1 88.8 193.1 88.8 C 193.1 86.5 191.6 85.3 189.7 85.3 C 187.9 85.3 186.3 86.4 186.1 88.8 Z M 204 95.4 L 202.5 95.4 L 202.5 79.4 L 204 79.4 L 204 95.4 Z M 214.3 93.3 C 213.4 95 211.7 95.6 210.3 95.6 C 208.4 95.6 206.7 94.5 206.7 92.3 C 206.7 90.2 208.1 89.2 210.1 89 C 210.1 89 212.7 88.6 212.7 88.6 C 213.6 88.5 214.3 88.2 214.3 87.2 C 214.3 85.9 213.2 85.2 211.6 85.2 C 209.9 85.2 208.9 86 208.6 87.3 C 208.6 87.3 207.1 87.3 207.1 87.3 C 207.4 85 209.2 83.9 211.7 83.9 C 214.3 83.9 215.8 85.1 215.8 87.6 C 215.81 87.59 215.8 95.4 215.8 95.4 L 214.3 95.4 C 214.3 95.4 214.32 93.32 214.3 93.3 Z M 212.5 89.9 C 212.5 89.9 210.7 90.1 210.7 90.1 C 209.3 90.3 208.2 90.8 208.2 92.2 C 208.2 93.6 209.3 94.2 210.6 94.2 C 212.3 94.2 214.3 92.9 214.3 90.5 C 214.3 90.5 214.3 89.4 214.3 89.4 C 213.9 89.7 213.2 89.8 212.5 89.9 Z M 235.3 84.4 C 235.1 82.1 233 80.7 230.5 80.7 C 227.2 80.7 224.7 83.3 224.7 87.4 C 224.7 91 226.7 94.3 230.6 94.3 C 233.2 94.3 235.3 92.8 235.5 90.1 C 235.5 90.1 237.2 90.1 237.2 90.1 C 237 93.7 234.1 95.8 230.5 95.8 C 225.6 95.8 223.1 91.8 223.1 87.4 C 223.1 82.4 226.2 79.3 230.6 79.3 C 233.9 79.3 236.7 81 237 84.4 C 237 84.4 235.3 84.4 235.3 84.4 Z M 239.4 87.5 C 239.4 83.1 242.2 79.3 247 79.3 C 251.8 79.3 254.6 83.1 254.6 87.5 C 254.6 91.9 251.8 95.8 247 95.8 C 242.2 95.8 239.4 91.9 239.4 87.5 Z M 241 87.5 C 241 91.1 243.2 94.3 247 94.3 C 250.8 94.3 252.9 91.2 252.9 87.6 C 252.9 83.9 250.8 80.8 247 80.8 C 243.2 80.8 241 83.9 241 87.5 Z M 263 95.4 L 261.3 95.4 L 255.9 79.6 L 257.6 79.6 L 262.2 93.5 L 266.8 79.6 L 268.4 79.6 L 263 95.4 Z M 272.5 95.4 L 270.9 95.4 L 270.9 79.6 L 272.5 79.6 L 272.5 95.4 Z M 288.9 87.2 C 288.9 91.3 286.3 95.4 281 95.4 C 280.96 95.38 276.4 95.4 276.4 95.4 L 276.4 79.6 C 276.4 79.6 281.23 79.63 281.2 79.6 C 286.3 79.6 288.9 83.3 288.9 87.2 Z M 287.2 87.3 C 287.2 84.1 285.2 81 281.1 81 C 281.1 81.04 278 81 278 81 L 278 93.9 C 278 93.9 280.98 93.93 281 93.9 C 285.1 93.9 287.2 90.6 287.2 87.3 Z M 291.9 95.3 C 291.94 95.26 290.9 95.3 290.9 95.3 L 290.9 93.2 L 293.2 93.2 C 293.2 93.2 293.16 95.32 293.2 95.3 C 293.2 97.8 291.7 98.7 290.1 98.8 C 290.1 98.8 289.9 97.9 289.9 97.9 C 291.6 97.6 291.9 96.6 291.9 95.3 Z " stroke="none" fill="#000"/>  </g>  <g id="Polygon11567">    <path d="M 5 72.3 C 4.6 73.5 3.6 73.9 2.4 73.9 C 2.39 73.88 1.2 73.9 1.2 73.9 L 1.2 72.5 C 1.2 72.5 2.18 72.51 2.2 72.5 C 3.1 72.5 3.6 72.2 4 71.2 C 3.99 71.19 4.5 69.7 4.5 69.7 L 0.3 58.9 L 1.9 58.9 L 5.3 67.8 L 8.6 58.9 L 10.1 58.9 C 10.1 58.9 5 72.32 5 72.3 Z M 19 68.1 C 18.1 69.8 16.4 70.4 15 70.4 C 13.1 70.4 11.4 69.3 11.4 67.1 C 11.4 65 12.9 64 14.8 63.8 C 14.8 63.8 17.5 63.4 17.5 63.4 C 18.3 63.3 19 63 19 62 C 19 60.7 17.9 60 16.3 60 C 14.6 60 13.6 60.8 13.3 62.1 C 13.3 62.1 11.8 62.1 11.8 62.1 C 12.1 59.8 13.9 58.7 16.4 58.7 C 19 58.7 20.5 59.9 20.5 62.4 C 20.52 62.39 20.5 70.2 20.5 70.2 L 19 70.2 C 19 70.2 19.03 68.12 19 68.1 Z M 17.2 64.7 C 17.2 64.7 15.4 64.9 15.4 64.9 C 14 65.1 12.9 65.6 12.9 67 C 12.9 68.4 14 69 15.3 69 C 17 69 19 67.7 19 65.3 C 19 65.3 19 64.2 19 64.2 C 18.6 64.5 17.9 64.6 17.2 64.7 Z M 29.3 64.9 C 29.3 67.7 31 69 33 69 C 34.5 69 36 68.3 36.3 66.7 C 36.3 66.7 37.8 66.7 37.8 66.7 C 37.3 69.3 35.1 70.4 32.9 70.4 C 30.3 70.4 27.8 68.6 27.8 64.6 C 27.8 60.5 30.3 58.7 33 58.7 C 35.7 58.7 37.9 60.4 37.9 64.2 C 37.86 64.15 37.9 64.9 37.9 64.9 C 37.9 64.9 29.27 64.91 29.3 64.9 Z M 29.3 63.6 C 29.3 63.6 36.3 63.6 36.3 63.6 C 36.3 61.3 34.8 60.1 32.9 60.1 C 31.2 60.1 29.5 61.2 29.3 63.6 Z M 48.9 67 C 48.9 69.3 46.8 70.4 44.5 70.4 C 42.1 70.4 39.9 69.2 39.6 66.7 C 39.6 66.7 41.3 66.7 41.3 66.7 C 41.5 68.4 43 69 44.5 69 C 46 69 47.3 68.5 47.3 67.2 C 47.3 65.9 46 65.6 44.6 65.4 C 42.5 65 39.9 64.6 39.9 62 C 39.9 59.8 41.9 58.7 44.2 58.7 C 46.6 58.7 48.4 59.8 48.6 62.1 C 48.6 62.1 47 62.1 47 62.1 C 46.9 60.7 45.6 60.1 44.1 60.1 C 42.6 60.1 41.5 60.8 41.5 61.9 C 41.5 63.4 42.9 63.6 44.6 63.9 C 46.6 64.2 48.9 64.5 48.9 67 Z M 56.5 70.2 C 56.5 70.2 54.87 70.18 54.9 70.2 C 53.4 70.2 52 69.7 52 67.2 C 52.04 67.22 52 60.3 52 60.3 L 49.8 60.3 L 49.8 58.9 L 52 58.9 L 52 55.7 L 53.6 55.3 L 53.6 58.9 L 56.3 58.9 L 56.3 60.3 L 53.6 60.3 C 53.6 60.3 53.57 67.2 53.6 67.2 C 53.6 68.2 53.9 68.8 55.1 68.8 C 55.12 68.8 56.5 68.8 56.5 68.8 L 56.5 70.2 Z M 65.7 68.1 C 64.8 69.8 63.1 70.4 61.7 70.4 C 59.7 70.4 58 69.3 58 67.1 C 58 65 59.5 64 61.4 63.8 C 61.4 63.8 64.1 63.4 64.1 63.4 C 64.9 63.3 65.7 63 65.7 62 C 65.7 60.7 64.5 60 62.9 60 C 61.2 60 60.2 60.8 60 62.1 C 60 62.1 58.4 62.1 58.4 62.1 C 58.8 59.8 60.6 58.7 63 58.7 C 65.6 58.7 67.2 59.9 67.2 62.4 C 67.16 62.39 67.2 70.2 67.2 70.2 L 65.7 70.2 C 65.7 70.2 65.67 68.12 65.7 68.1 Z M 63.8 64.7 C 63.8 64.7 62.1 64.9 62.1 64.9 C 60.6 65.1 59.6 65.6 59.6 67 C 59.6 68.4 60.7 69 61.9 69 C 63.7 69 65.6 67.7 65.6 65.3 C 65.6 65.3 65.6 64.2 65.6 64.2 C 65.2 64.5 64.6 64.6 63.8 64.7 Z M 80.8 64.5 C 80.8 68 78.7 70.4 75.7 70.4 C 73.7 70.4 72.4 69.3 71.8 68.1 C 71.78 68.1 71.8 70.2 71.8 70.2 L 70.3 70.2 L 70.3 54.2 L 71.8 54.2 C 71.8 54.2 71.84 61.17 71.8 61.2 C 72.4 59.8 73.8 58.7 75.9 58.7 C 78.7 58.7 80.8 60.9 80.8 64.5 Z M 79.3 64.6 C 79.3 61.8 77.8 60.2 75.6 60.2 C 73.4 60.2 71.8 61.8 71.8 64.6 C 71.8 67.4 73.4 69.1 75.5 69.1 C 77.8 69.1 79.3 67.3 79.3 64.6 Z M 90.4 68.1 C 89.5 69.8 87.8 70.4 86.4 70.4 C 84.4 70.4 82.7 69.3 82.7 67.1 C 82.7 65 84.2 64 86.1 63.8 C 86.1 63.8 88.8 63.4 88.8 63.4 C 89.6 63.3 90.4 63 90.4 62 C 90.4 60.7 89.2 60 87.7 60 C 86 60 84.9 60.8 84.7 62.1 C 84.7 62.1 83.2 62.1 83.2 62.1 C 83.5 59.8 85.3 58.7 87.8 58.7 C 90.3 58.7 91.9 59.9 91.9 62.4 C 91.87 62.39 91.9 70.2 91.9 70.2 L 90.4 70.2 C 90.4 70.2 90.38 68.12 90.4 68.1 Z M 88.5 64.7 C 88.5 64.7 86.8 64.9 86.8 64.9 C 85.4 65.1 84.3 65.6 84.3 67 C 84.3 68.4 85.4 69 86.6 69 C 88.4 69 90.3 67.7 90.3 65.3 C 90.3 65.3 90.3 64.2 90.3 64.2 C 89.9 64.5 89.3 64.6 88.5 64.7 Z M 104.2 62.5 C 104.18 62.45 104.2 70.2 104.2 70.2 L 102.6 70.2 C 102.6 70.2 102.65 62.64 102.6 62.6 C 102.6 61.1 101.8 60.1 100.2 60.1 C 98.2 60.1 96.6 61.5 96.6 64.3 C 96.56 64.26 96.6 70.2 96.6 70.2 L 95 70.2 L 95 58.9 L 96.6 58.9 C 96.6 58.9 96.56 61 96.6 61 C 97.2 59.7 98.5 58.7 100.5 58.7 C 102.7 58.7 104.2 60 104.2 62.5 Z M 123.6 64.5 C 123.6 68 121.5 70.4 118.5 70.4 C 116.5 70.4 115.2 69.3 114.6 68.1 C 114.57 68.1 114.6 70.2 114.6 70.2 L 113.1 70.2 L 113.1 54.2 L 114.6 54.2 C 114.6 54.2 114.64 61.17 114.6 61.2 C 115.2 59.8 116.6 58.7 118.7 58.7 C 121.5 58.7 123.6 60.9 123.6 64.5 Z M 122.1 64.6 C 122.1 61.8 120.6 60.2 118.4 60.2 C 116.2 60.2 114.6 61.8 114.6 64.6 C 114.6 67.4 116.2 69.1 118.3 69.1 C 120.6 69.1 122.1 67.3 122.1 64.6 Z M 133.2 68.1 C 132.3 69.8 130.6 70.4 129.2 70.4 C 127.2 70.4 125.5 69.3 125.5 67.1 C 125.5 65 127 64 128.9 63.8 C 128.9 63.8 131.6 63.4 131.6 63.4 C 132.4 63.3 133.2 63 133.2 62 C 133.2 60.7 132 60 130.5 60 C 128.7 60 127.7 60.8 127.5 62.1 C 127.5 62.1 126 62.1 126 62.1 C 126.3 59.8 128.1 58.7 130.6 58.7 C 133.1 58.7 134.7 59.9 134.7 62.4 C 134.67 62.39 134.7 70.2 134.7 70.2 L 133.2 70.2 C 133.2 70.2 133.18 68.12 133.2 68.1 Z M 131.3 64.7 C 131.3 64.7 129.6 64.9 129.6 64.9 C 128.2 65.1 127.1 65.6 127.1 67 C 127.1 68.4 128.2 69 129.4 69 C 131.2 69 133.1 67.7 133.1 65.3 C 133.1 65.3 133.1 64.2 133.1 64.2 C 132.7 64.5 132.1 64.6 131.3 64.7 Z M 139.8 56.1 L 138.1 56.1 L 138.1 54.2 L 139.8 54.2 L 139.8 56.1 Z M 136 73.1 C 136 73.1 136.62 73.14 136.6 73.1 C 137.9 73.1 138.2 72.6 138.2 71.5 C 138.18 71.53 138.2 58.9 138.2 58.9 L 139.7 58.9 C 139.7 58.9 139.71 71.57 139.7 71.6 C 139.7 74 138.4 74.5 136.9 74.5 C 136.88 74.51 136 74.5 136 74.5 L 136 73.1 Z M 142.2 64.6 C 142.2 60.9 144.5 58.7 147.6 58.7 C 150.7 58.7 152.9 60.9 152.9 64.6 C 152.9 68.2 150.7 70.4 147.6 70.4 C 144.5 70.4 142.2 68.2 142.2 64.6 Z M 151.3 64.5 C 151.3 61.7 149.6 60.1 147.5 60.1 C 145.3 60.1 143.8 61.8 143.8 64.6 C 143.8 67.4 145.5 69 147.6 69 C 149.8 69 151.3 67.3 151.3 64.5 Z M 162.3 70.2 L 160.8 70.2 L 160.8 54.2 L 162.3 54.2 L 162.3 70.2 Z M 172.6 68.1 C 171.7 69.8 170 70.4 168.6 70.4 C 166.7 70.4 165 69.3 165 67.1 C 165 65 166.4 64 168.4 63.8 C 168.4 63.8 171 63.4 171 63.4 C 171.9 63.3 172.6 63 172.6 62 C 172.6 60.7 171.5 60 169.9 60 C 168.2 60 167.2 60.8 166.9 62.1 C 166.9 62.1 165.4 62.1 165.4 62.1 C 165.7 59.8 167.5 58.7 170 58.7 C 172.6 58.7 174.1 59.9 174.1 62.4 C 174.11 62.39 174.1 70.2 174.1 70.2 L 172.6 70.2 C 172.6 70.2 172.62 68.12 172.6 68.1 Z M 170.7 64.7 C 170.7 64.7 169 64.9 169 64.9 C 167.6 65.1 166.5 65.6 166.5 67 C 166.5 68.4 167.6 69 168.9 69 C 170.6 69 172.6 67.7 172.6 65.3 C 172.6 65.3 172.6 64.2 172.6 64.2 C 172.2 64.5 171.5 64.6 170.7 64.7 Z M 193 64.5 C 193 68.6 190.4 70.3 187.9 70.3 C 185.9 70.3 184.7 69.4 184 68.2 C 184.04 68.23 184 74.5 184 74.5 L 182.5 74.5 L 182.5 58.9 L 184 58.9 C 184 58.9 184 61.28 184 61.3 C 184.5 59.9 186 58.7 188 58.7 C 190.5 58.7 193 60.4 193 64.5 Z M 191.5 64.5 C 191.5 61.4 189.7 60.2 187.8 60.2 C 185.9 60.2 184.1 61.4 184.1 64.6 C 184.1 67.7 185.9 68.9 187.8 68.9 C 189.6 68.9 191.5 67.7 191.5 64.5 Z M 201.3 60.2 C 201.3 60.2 200.93 60.23 200.9 60.2 C 198.5 60.2 197.2 61.6 197.2 64.2 C 197.19 64.2 197.2 70.2 197.2 70.2 L 195.7 70.2 L 195.7 58.9 L 197.2 58.9 C 197.2 58.9 197.17 60.98 197.2 61 C 197.7 59.5 199.1 58.8 200.8 58.8 C 200.8 58.78 201.3 58.8 201.3 58.8 L 201.3 60.2 Z M 203.8 64.9 C 203.9 67.7 205.6 69 207.6 69 C 209.1 69 210.6 68.3 210.9 66.7 C 210.9 66.7 212.3 66.7 212.3 66.7 C 211.8 69.3 209.7 70.4 207.5 70.4 C 204.8 70.4 202.3 68.6 202.3 64.6 C 202.3 60.5 204.9 58.7 207.6 58.7 C 210.2 58.7 212.4 60.4 212.4 64.2 C 212.43 64.15 212.4 64.9 212.4 64.9 C 212.4 64.9 203.84 64.91 203.8 64.9 Z M 203.9 63.6 C 203.9 63.6 210.9 63.6 210.9 63.6 C 210.9 61.3 209.4 60.1 207.5 60.1 C 205.8 60.1 204.1 61.2 203.9 63.6 Z M 223.4 67 C 223.4 69.3 221.4 70.4 219.1 70.4 C 216.7 70.4 214.4 69.2 214.2 66.7 C 214.2 66.7 215.9 66.7 215.9 66.7 C 216.1 68.4 217.6 69 219.1 69 C 220.6 69 221.8 68.5 221.8 67.2 C 221.8 65.9 220.5 65.6 219.2 65.4 C 217.1 65 214.5 64.6 214.5 62 C 214.5 59.8 216.4 58.7 218.7 58.7 C 221.1 58.7 223 59.8 223.1 62.1 C 223.1 62.1 221.5 62.1 221.5 62.1 C 221.4 60.7 220.1 60.1 218.7 60.1 C 217.1 60.1 216.1 60.8 216.1 61.9 C 216.1 63.4 217.5 63.6 219.2 63.9 C 221.2 64.2 223.4 64.5 223.4 67 Z M 227.6 54.2 L 225.9 54.2 L 225.9 56.1 L 227.6 56.1 L 227.6 54.2 Z M 227.5 70.2 L 226 70.2 L 226 58.9 L 227.5 58.9 L 227.5 70.2 Z M 236.1 56.6 L 234.8 56.6 L 237.3 52.8 L 238.6 53.8 L 236.1 56.6 Z M 230.1 64.6 C 230.1 60.9 232.3 58.7 235.4 58.7 C 238.6 58.7 240.8 60.9 240.8 64.6 C 240.8 68.2 238.6 70.4 235.5 70.4 C 232.4 70.4 230.1 68.2 230.1 64.6 Z M 239.2 64.5 C 239.2 61.7 237.5 60.1 235.4 60.1 C 233.2 60.1 231.7 61.8 231.7 64.6 C 231.7 67.4 233.4 69 235.5 69 C 237.7 69 239.2 67.3 239.2 64.5 Z M 252.6 62.5 C 252.59 62.45 252.6 70.2 252.6 70.2 L 251.1 70.2 C 251.1 70.2 251.05 62.64 251.1 62.6 C 251.1 61.1 250.2 60.1 248.6 60.1 C 246.6 60.1 245 61.5 245 64.3 C 244.96 64.26 245 70.2 245 70.2 L 243.4 70.2 L 243.4 58.9 L 245 58.9 C 245 58.9 244.96 61 245 61 C 245.6 59.7 246.9 58.7 248.9 58.7 C 251.1 58.7 252.6 60 252.6 62.5 Z M 270.9 70.2 L 269.4 70.2 C 269.4 70.2 269.43 68 269.4 68 C 268.9 69.3 267.5 70.4 265.4 70.4 C 262.5 70.4 260.4 68.1 260.4 64.5 C 260.4 61 262.5 58.7 265.4 58.7 C 267.3 58.7 268.8 59.6 269.4 60.8 C 269.36 60.82 269.4 54.2 269.4 54.2 L 270.9 54.2 L 270.9 70.2 Z M 269.3 64.5 C 269.3 61.7 267.8 60.1 265.6 60.1 C 263.4 60.1 261.9 61.8 261.9 64.5 C 261.9 67.3 263.4 69 265.6 69 C 267.8 69 269.3 67.3 269.3 64.5 Z M 275 64.9 C 275.1 67.7 276.8 69 278.8 69 C 280.3 69 281.8 68.3 282.1 66.7 C 282.1 66.7 283.5 66.7 283.5 66.7 C 283 69.3 280.9 70.4 278.7 70.4 C 276 70.4 273.5 68.6 273.5 64.6 C 273.5 60.5 276.1 58.7 278.8 58.7 C 281.4 58.7 283.6 60.4 283.6 64.2 C 283.62 64.15 283.6 64.9 283.6 64.9 C 283.6 64.9 275.03 64.91 275 64.9 Z M 275.1 63.6 C 275.1 63.6 282.1 63.6 282.1 63.6 C 282.1 61.3 280.6 60.1 278.7 60.1 C 276.9 60.1 275.3 61.2 275.1 63.6 Z M 287.8 70.2 L 286.2 70.2 L 286.2 54.2 L 287.8 54.2 L 287.8 70.2 Z M 300.9 70.4 C 297.8 70.4 295.7 68.1 295.7 64.6 C 295.7 61 297.8 58.7 301 58.7 C 303.5 58.7 305.5 60.1 305.7 62.6 C 305.7 62.6 304.2 62.6 304.2 62.6 C 304 61 302.6 60.1 301 60.1 C 298.8 60.1 297.2 61.8 297.2 64.5 C 297.2 67.3 298.8 69 301 69 C 302.7 69 304 68 304.2 66.2 C 304.2 66.2 305.7 66.2 305.7 66.2 C 305.5 68.9 303.4 70.4 300.9 70.4 Z M 315.2 68.1 C 314.3 69.8 312.6 70.4 311.2 70.4 C 309.3 70.4 307.6 69.3 307.6 67.1 C 307.6 65 309.1 64 311 63.8 C 311 63.8 313.7 63.4 313.7 63.4 C 314.5 63.3 315.2 63 315.2 62 C 315.2 60.7 314.1 60 312.5 60 C 310.8 60 309.8 60.8 309.5 62.1 C 309.5 62.1 308 62.1 308 62.1 C 308.3 59.8 310.1 58.7 312.6 58.7 C 315.2 58.7 316.7 59.9 316.7 62.4 C 316.72 62.39 316.7 70.2 316.7 70.2 L 315.2 70.2 C 315.2 70.2 315.23 68.12 315.2 68.1 Z M 313.4 64.7 C 313.4 64.7 311.6 64.9 311.6 64.9 C 310.2 65.1 309.1 65.6 309.1 67 C 309.1 68.4 310.2 69 311.5 69 C 313.2 69 315.2 67.7 315.2 65.3 C 315.2 65.3 315.2 64.2 315.2 64.2 C 314.8 64.5 314.1 64.6 313.4 64.7 Z M 319.9 58.9 L 321.4 58.9 C 321.4 58.9 321.38 60.77 321.4 60.8 C 322 59.4 323.2 58.7 324.7 58.7 C 326.3 58.7 327.6 59.6 328 61 C 328.5 59.8 329.7 58.7 331.7 58.7 C 333.7 58.7 335.3 59.8 335.3 62.1 C 335.35 62.1 335.3 70.2 335.3 70.2 L 333.8 70.2 C 333.8 70.2 333.81 62.64 333.8 62.6 C 333.8 60.9 332.7 60.1 331.4 60.1 C 329.7 60.1 328.4 61.4 328.4 63.7 C 328.35 63.73 328.4 70.2 328.4 70.2 L 326.8 70.2 C 326.8 70.2 326.84 62.64 326.8 62.6 C 326.8 60.9 325.8 60.1 324.5 60.1 C 322.8 60.1 321.4 61.3 321.4 63.7 C 321.4 63.73 321.4 70.2 321.4 70.2 L 319.9 70.2 L 319.9 58.9 Z M 349.1 64.5 C 349.1 68 347 70.4 344 70.4 C 342 70.4 340.7 69.3 340.1 68.1 C 340.07 68.1 340.1 70.2 340.1 70.2 L 338.6 70.2 L 338.6 54.2 L 340.1 54.2 C 340.1 54.2 340.13 61.17 340.1 61.2 C 340.7 59.8 342.1 58.7 344.2 58.7 C 347 58.7 349.1 60.9 349.1 64.5 Z M 347.6 64.6 C 347.6 61.8 346.1 60.2 343.9 60.2 C 341.7 60.2 340.1 61.8 340.1 64.6 C 340.1 67.4 341.7 69.1 343.8 69.1 C 346.1 69.1 347.6 67.3 347.6 64.6 Z M 353.4 54.2 L 351.6 54.2 L 351.6 56.1 L 353.4 56.1 L 353.4 54.2 Z M 353.3 70.2 L 351.7 70.2 L 351.7 58.9 L 353.3 58.9 L 353.3 70.2 Z M 355.9 64.6 C 355.9 60.9 358.1 58.7 361.2 58.7 C 364.3 58.7 366.6 60.9 366.6 64.6 C 366.6 68.2 364.4 70.4 361.3 70.4 C 358.2 70.4 355.9 68.2 355.9 64.6 Z M 365 64.5 C 365 61.7 363.3 60.1 361.2 60.1 C 359 60.1 357.5 61.8 357.5 64.6 C 357.5 67.4 359.2 69 361.3 69 C 363.5 69 365 67.3 365 64.5 Z " stroke="none" fill="#000"/>  </g>  <g id="Polygon11566">    <path d="M 6.2 45.2 C 3.1 45.2 0.9 42.9 0.9 39.4 C 0.9 35.8 3 33.5 6.3 33.5 C 8.8 33.5 10.8 34.9 11 37.4 C 11 37.4 9.5 37.4 9.5 37.4 C 9.3 35.8 7.9 34.9 6.3 34.9 C 4.1 34.9 2.5 36.6 2.5 39.3 C 2.5 42.1 4.1 43.8 6.3 43.8 C 8 43.8 9.3 42.8 9.4 41 C 9.4 41 11 41 11 41 C 10.8 43.7 8.7 45.2 6.2 45.2 Z M 12.9 39.4 C 12.9 35.7 15.1 33.5 18.2 33.5 C 21.3 33.5 23.5 35.7 23.5 39.4 C 23.5 43 21.3 45.2 18.2 45.2 C 15.1 45.2 12.9 43 12.9 39.4 Z M 22 39.3 C 22 36.5 20.3 34.9 18.2 34.9 C 16 34.9 14.4 36.6 14.4 39.4 C 14.4 42.2 16.1 43.8 18.2 43.8 C 20.4 43.8 22 42.1 22 39.3 Z M 26.2 33.7 L 27.7 33.7 C 27.7 33.7 27.68 35.57 27.7 35.6 C 28.3 34.2 29.5 33.5 31 33.5 C 32.6 33.5 33.9 34.4 34.3 35.8 C 34.8 34.6 36 33.5 38 33.5 C 40 33.5 41.6 34.6 41.6 36.9 C 41.64 36.9 41.6 45 41.6 45 L 40.1 45 C 40.1 45 40.11 37.44 40.1 37.4 C 40.1 35.7 39 34.9 37.7 34.9 C 36 34.9 34.6 36.2 34.6 38.5 C 34.65 38.53 34.6 45 34.6 45 L 33.1 45 C 33.1 45 33.14 37.44 33.1 37.4 C 33.1 35.7 32.1 34.9 30.8 34.9 C 29.1 34.9 27.7 36.1 27.7 38.5 C 27.7 38.53 27.7 45 27.7 45 L 26.2 45 L 26.2 33.7 Z M 45.7 39.7 C 45.7 42.5 47.4 43.8 49.4 43.8 C 50.9 43.8 52.4 43.1 52.7 41.5 C 52.7 41.5 54.2 41.5 54.2 41.5 C 53.7 44.1 51.5 45.2 49.3 45.2 C 46.7 45.2 44.2 43.4 44.2 39.4 C 44.2 35.3 46.7 33.5 49.4 33.5 C 52.1 33.5 54.3 35.2 54.3 39 C 54.26 38.95 54.3 39.7 54.3 39.7 C 54.3 39.7 45.67 39.71 45.7 39.7 Z M 45.7 38.4 C 45.7 38.4 52.7 38.4 52.7 38.4 C 52.7 36.1 51.2 34.9 49.3 34.9 C 47.6 34.9 45.9 36 45.7 38.4 Z M 62.5 35 C 62.5 35 62.16 35.03 62.2 35 C 59.8 35 58.4 36.4 58.4 39 C 58.42 39 58.4 45 58.4 45 L 56.9 45 L 56.9 33.7 L 58.4 33.7 C 58.4 33.7 58.4 35.78 58.4 35.8 C 58.9 34.3 60.3 33.6 62 33.6 C 62.03 33.58 62.5 33.6 62.5 33.6 L 62.5 35 Z M 68.8 45.2 C 65.7 45.2 63.6 42.9 63.6 39.4 C 63.6 35.8 65.7 33.5 68.9 33.5 C 71.4 33.5 73.4 34.9 73.6 37.4 C 73.6 37.4 72.1 37.4 72.1 37.4 C 71.9 35.8 70.5 34.9 68.9 34.9 C 66.7 34.9 65.1 36.6 65.1 39.3 C 65.1 42.1 66.7 43.8 68.9 43.8 C 70.6 43.8 71.9 42.8 72.1 41 C 72.1 41 73.6 41 73.6 41 C 73.4 43.7 71.3 45.2 68.8 45.2 Z M 77.8 29 L 76.1 29 L 76.1 30.9 L 77.8 30.9 L 77.8 29 Z M 77.7 45 L 76.2 45 L 76.2 33.7 L 77.7 33.7 L 77.7 45 Z M 80.4 39.4 C 80.4 35.7 82.6 33.5 85.7 33.5 C 88.8 33.5 91.1 35.7 91.1 39.4 C 91.1 43 88.8 45.2 85.7 45.2 C 82.6 45.2 80.4 43 80.4 39.4 Z M 89.5 39.3 C 89.5 36.5 87.8 34.9 85.7 34.9 C 83.5 34.9 81.9 36.6 81.9 39.4 C 81.9 42.2 83.6 43.8 85.7 43.8 C 87.9 43.8 89.5 42.1 89.5 39.3 Z M 105.9 42.9 C 105 44.6 103.3 45.2 101.8 45.2 C 99.9 45.2 98.2 44.1 98.2 41.9 C 98.2 39.8 99.7 38.8 101.6 38.6 C 101.6 38.6 104.3 38.2 104.3 38.2 C 105.1 38.1 105.9 37.8 105.9 36.8 C 105.9 35.5 104.7 34.8 103.1 34.8 C 101.4 34.8 100.4 35.6 100.2 36.9 C 100.2 36.9 98.6 36.9 98.6 36.9 C 99 34.6 100.8 33.5 103.2 33.5 C 105.8 33.5 107.4 34.7 107.4 37.2 C 107.35 37.19 107.4 45 107.4 45 L 105.9 45 C 105.9 45 105.86 42.92 105.9 42.9 Z M 104 39.5 C 104 39.5 102.3 39.7 102.3 39.7 C 100.8 39.9 99.8 40.4 99.8 41.8 C 99.8 43.2 100.9 43.8 102.1 43.8 C 103.9 43.8 105.8 42.5 105.8 40.1 C 105.8 40.1 105.8 39 105.8 39 C 105.4 39.3 104.7 39.4 104 39.5 Z M 112 45 L 110.5 45 L 110.5 29 L 112 29 L 112 45 Z M 131.6 39.3 C 131.6 43.4 129 45.1 126.4 45.1 C 124.5 45.1 123.2 44.2 122.6 43 C 122.6 43.03 122.6 49.3 122.6 49.3 L 121.1 49.3 L 121.1 33.7 L 122.6 33.7 C 122.6 33.7 122.55 36.08 122.6 36.1 C 123.1 34.7 124.5 33.5 126.6 33.5 C 129 33.5 131.6 35.2 131.6 39.3 Z M 130 39.3 C 130 36.2 128.2 35 126.4 35 C 124.5 35 122.6 36.2 122.6 39.4 C 122.6 42.5 124.4 43.7 126.3 43.7 C 128.2 43.7 130 42.5 130 39.3 Z M 133.5 39.4 C 133.5 35.7 135.7 33.5 138.8 33.5 C 141.9 33.5 144.2 35.7 144.2 39.4 C 144.2 43 141.9 45.2 138.8 45.2 C 135.7 45.2 133.5 43 133.5 39.4 Z M 142.6 39.3 C 142.6 36.5 140.9 34.9 138.8 34.9 C 136.6 34.9 135 36.6 135 39.4 C 135 42.2 136.8 43.8 138.9 43.8 C 141 43.8 142.6 42.1 142.6 39.3 Z M 152.4 35 C 152.4 35 152.06 35.03 152.1 35 C 149.7 35 148.3 36.4 148.3 39 C 148.32 39 148.3 45 148.3 45 L 146.8 45 L 146.8 33.7 L 148.3 33.7 C 148.3 33.7 148.3 35.78 148.3 35.8 C 148.8 34.3 150.2 33.6 151.9 33.6 C 151.93 33.58 152.4 33.6 152.4 33.6 L 152.4 35 Z M 159.5 33.7 L 161 33.7 C 161 33.7 160.96 35.57 161 35.6 C 161.6 34.2 162.8 33.5 164.2 33.5 C 165.9 33.5 167.2 34.4 167.6 35.8 C 168.1 34.6 169.3 33.5 171.3 33.5 C 173.3 33.5 174.9 34.6 174.9 36.9 C 174.93 36.9 174.9 45 174.9 45 L 173.4 45 C 173.4 45 173.39 37.44 173.4 37.4 C 173.4 35.7 172.3 34.9 171 34.9 C 169.3 34.9 167.9 36.2 167.9 38.5 C 167.93 38.53 167.9 45 167.9 45 L 166.4 45 C 166.4 45 166.42 37.44 166.4 37.4 C 166.4 35.7 165.4 34.9 164 34.9 C 162.4 34.9 161 36.1 161 38.5 C 160.98 38.53 161 45 161 45 L 159.5 45 L 159.5 33.7 Z M 179 39.7 C 179 42.5 180.7 43.8 182.7 43.8 C 184.2 43.8 185.7 43.1 186 41.5 C 186 41.5 187.5 41.5 187.5 41.5 C 187 44.1 184.8 45.2 182.6 45.2 C 179.9 45.2 177.4 43.4 177.4 39.4 C 177.4 35.3 180 33.5 182.7 33.5 C 185.4 33.5 187.5 35.2 187.5 39 C 187.55 38.95 187.5 39.7 187.5 39.7 C 187.5 39.7 178.96 39.71 179 39.7 Z M 179 38.4 C 179 38.4 186 38.4 186 38.4 C 186 36.1 184.5 34.9 182.6 34.9 C 180.9 34.9 179.2 36 179 38.4 Z M 199.3 37.3 C 199.33 37.25 199.3 45 199.3 45 L 197.8 45 C 197.8 45 197.8 37.44 197.8 37.4 C 197.8 35.9 196.9 34.9 195.3 34.9 C 193.4 34.9 191.7 36.3 191.7 39.1 C 191.71 39.06 191.7 45 191.7 45 L 190.2 45 L 190.2 33.7 L 191.7 33.7 C 191.7 33.7 191.71 35.8 191.7 35.8 C 192.4 34.5 193.6 33.5 195.6 33.5 C 197.9 33.5 199.3 34.8 199.3 37.3 Z M 201.8 39.4 C 201.8 35.7 204.1 33.5 207.2 33.5 C 210.3 33.5 212.5 35.7 212.5 39.4 C 212.5 43 210.3 45.2 207.2 45.2 C 204.1 45.2 201.8 43 201.8 39.4 Z M 211 39.3 C 211 36.5 209.3 34.9 207.2 34.9 C 205 34.9 203.4 36.6 203.4 39.4 C 203.4 42.2 205.1 43.8 207.2 43.8 C 209.4 43.8 211 42.1 211 39.3 Z M 220.8 35 C 220.8 35 220.43 35.03 220.4 35 C 218 35 216.7 36.4 216.7 39 C 216.7 39 216.7 45 216.7 45 L 215.2 45 L 215.2 33.7 L 216.7 33.7 C 216.7 33.7 216.68 35.78 216.7 35.8 C 217.2 34.3 218.6 33.6 220.3 33.6 C 220.31 33.58 220.8 33.6 220.8 33.6 L 220.8 35 Z M 230.7 47.1 C 230.3 48.3 229.3 48.7 228.1 48.7 C 228.12 48.68 227 48.7 227 48.7 L 227 47.3 C 227 47.3 227.91 47.31 227.9 47.3 C 228.9 47.3 229.4 47 229.7 46 C 229.72 45.99 230.2 44.5 230.2 44.5 L 226 33.7 L 227.7 33.7 L 231 42.6 L 234.3 33.7 L 235.8 33.7 C 235.8 33.7 230.72 47.12 230.7 47.1 Z M 244.6 45 L 243.1 45 L 243.1 29 L 244.6 29 L 244.6 45 Z M 254.9 42.9 C 254 44.6 252.3 45.2 250.9 45.2 C 249 45.2 247.2 44.1 247.2 41.9 C 247.2 39.8 248.7 38.8 250.7 38.6 C 250.7 38.6 253.3 38.2 253.3 38.2 C 254.2 38.1 254.9 37.8 254.9 36.8 C 254.9 35.5 253.7 34.8 252.2 34.8 C 250.5 34.8 249.4 35.6 249.2 36.9 C 249.2 36.9 247.7 36.9 247.7 36.9 C 248 34.6 249.8 33.5 252.3 33.5 C 254.8 33.5 256.4 34.7 256.4 37.2 C 256.39 37.19 256.4 45 256.4 45 L 254.9 45 C 254.9 45 254.89 42.92 254.9 42.9 Z M 253 39.5 C 253 39.5 251.3 39.7 251.3 39.7 C 249.9 39.9 248.8 40.4 248.8 41.8 C 248.8 43.2 249.9 43.8 251.1 43.8 C 252.9 43.8 254.9 42.5 254.9 40.1 C 254.9 40.1 254.9 39 254.9 39 C 254.4 39.3 253.8 39.4 253 39.5 Z M 271.7 42.9 C 270.8 44.6 269.1 45.2 267.7 45.2 C 265.8 45.2 264.1 44.1 264.1 41.9 C 264.1 39.8 265.5 38.8 267.5 38.6 C 267.5 38.6 270.1 38.2 270.1 38.2 C 271 38.1 271.7 37.8 271.7 36.8 C 271.7 35.5 270.6 34.8 269 34.8 C 267.3 34.8 266.3 35.6 266 36.9 C 266 36.9 264.5 36.9 264.5 36.9 C 264.8 34.6 266.6 33.5 269.1 33.5 C 271.7 33.5 273.2 34.7 273.2 37.2 C 273.21 37.19 273.2 45 273.2 45 L 271.7 45 C 271.7 45 271.72 42.92 271.7 42.9 Z M 269.8 39.5 C 269.8 39.5 268.1 39.7 268.1 39.7 C 266.7 39.9 265.6 40.4 265.6 41.8 C 265.6 43.2 266.7 43.8 268 43.8 C 269.7 43.8 271.7 42.5 271.7 40.1 C 271.7 40.1 271.7 39 271.7 39 C 271.3 39.3 270.6 39.4 269.8 39.5 Z M 283.8 45 C 283.8 45 283.77 42.84 283.8 42.8 C 283 44.4 281.6 45.1 280 45.1 C 277.9 45.1 276.3 43.8 276.3 41.2 C 276.25 41.16 276.3 33.7 276.3 33.7 L 277.8 33.7 C 277.8 33.7 277.78 40.97 277.8 41 C 277.8 42.8 278.8 43.8 280.3 43.8 C 282.1 43.8 283.7 42.4 283.7 39.5 C 283.71 39.54 283.7 33.7 283.7 33.7 L 285.2 33.7 L 285.2 45 L 283.8 45 Z M 293.7 45 C 293.7 45 292.09 44.98 292.1 45 C 290.6 45 289.3 44.5 289.3 42 C 289.25 42.02 289.3 35.1 289.3 35.1 L 287 35.1 L 287 33.7 L 289.3 33.7 L 289.3 30.5 L 290.8 30.1 L 290.8 33.7 L 293.5 33.7 L 293.5 35.1 L 290.8 35.1 C 290.8 35.1 290.78 42 290.8 42 C 290.8 43 291.1 43.6 292.3 43.6 C 292.34 43.6 293.7 43.6 293.7 43.6 L 293.7 45 Z M 295.2 39.4 C 295.2 35.7 297.4 33.5 300.5 33.5 C 303.7 33.5 305.9 35.7 305.9 39.4 C 305.9 43 303.7 45.2 300.6 45.2 C 297.5 45.2 295.2 43 295.2 39.4 Z M 304.3 39.3 C 304.3 36.5 302.6 34.9 300.5 34.9 C 298.3 34.9 296.8 36.6 296.8 39.4 C 296.8 42.2 298.5 43.8 300.6 43.8 C 302.8 43.8 304.3 42.1 304.3 39.3 Z M 308.5 33.7 L 310 33.7 C 310 33.7 310.04 35.57 310 35.6 C 310.6 34.2 311.9 33.5 313.3 33.5 C 315 33.5 316.3 34.4 316.7 35.8 C 317.2 34.6 318.4 33.5 320.4 33.5 C 322.4 33.5 324 34.6 324 36.9 C 324.01 36.9 324 45 324 45 L 322.5 45 C 322.5 45 322.47 37.44 322.5 37.4 C 322.5 35.7 321.4 34.9 320.1 34.9 C 318.4 34.9 317 36.2 317 38.5 C 317.01 38.53 317 45 317 45 L 315.5 45 C 315.5 45 315.5 37.44 315.5 37.4 C 315.5 35.7 314.5 34.9 313.1 34.9 C 311.5 34.9 310.1 36.1 310.1 38.5 C 310.06 38.53 310.1 45 310.1 45 L 308.5 45 L 308.5 33.7 Z M 326.5 39.4 C 326.5 35.7 328.8 33.5 331.9 33.5 C 335 33.5 337.2 35.7 337.2 39.4 C 337.2 43 335 45.2 331.9 45.2 C 328.8 45.2 326.5 43 326.5 39.4 Z M 335.6 39.3 C 335.6 36.5 333.9 34.9 331.8 34.9 C 329.6 34.9 328.1 36.6 328.1 39.4 C 328.1 42.2 329.8 43.8 331.9 43.8 C 334.1 43.8 335.6 42.1 335.6 39.3 Z M 344.3 45.2 C 341.2 45.2 339.1 42.9 339.1 39.4 C 339.1 35.8 341.2 33.5 344.5 33.5 C 347 33.5 349 34.9 349.1 37.4 C 349.1 37.4 347.6 37.4 347.6 37.4 C 347.5 35.8 346.1 34.9 344.4 34.9 C 342.2 34.9 340.7 36.6 340.7 39.3 C 340.7 42.1 342.2 43.8 344.4 43.8 C 346.1 43.8 347.5 42.8 347.6 41 C 347.6 41 349.1 41 349.1 41 C 349 43.7 346.8 45.2 344.3 45.2 Z M 353.4 29 L 351.6 29 L 351.6 30.9 L 353.4 30.9 L 353.4 29 Z M 353.3 45 L 351.7 45 L 351.7 33.7 L 353.3 33.7 L 353.3 45 Z M 361.9 31.4 L 360.6 31.4 L 363.1 27.6 L 364.4 28.6 L 361.9 31.4 Z M 355.9 39.4 C 355.9 35.7 358.1 33.5 361.2 33.5 C 364.3 33.5 366.6 35.7 366.6 39.4 C 366.6 43 364.4 45.2 361.3 45.2 C 358.2 45.2 355.9 43 355.9 39.4 Z M 365 39.3 C 365 36.5 363.3 34.9 361.2 34.9 C 359 34.9 357.5 36.6 357.5 39.4 C 357.5 42.2 359.2 43.8 361.3 43.8 C 363.5 43.8 365 42.1 365 39.3 Z M 378.4 37.3 C 378.37 37.25 378.4 45 378.4 45 L 376.8 45 C 376.8 45 376.84 37.44 376.8 37.4 C 376.8 35.9 376 34.9 374.4 34.9 C 372.4 34.9 370.8 36.3 370.8 39.1 C 370.75 39.06 370.8 45 370.8 45 L 369.2 45 L 369.2 33.7 L 370.8 33.7 C 370.8 33.7 370.75 35.8 370.8 35.8 C 371.4 34.5 372.7 33.5 374.7 33.5 C 376.9 33.5 378.4 34.8 378.4 37.3 Z M 382.7 44.9 C 382.72 44.86 381.7 44.9 381.7 44.9 L 381.7 42.8 L 383.9 42.8 C 383.9 42.8 383.94 44.92 383.9 44.9 C 383.9 47.4 382.5 48.3 380.9 48.4 C 380.9 48.4 380.7 47.5 380.7 47.5 C 382.4 47.2 382.7 46.2 382.7 44.9 Z " stroke="none" fill="#000"/>  </g>  <g id="Polygon11565">    <path d="M 1.7 8.5 L 3.2 8.5 C 3.2 8.5 3.19 10.37 3.2 10.4 C 3.8 9 5 8.3 6.5 8.3 C 8.1 8.3 9.4 9.2 9.8 10.6 C 10.3 9.4 11.6 8.3 13.5 8.3 C 15.5 8.3 17.2 9.4 17.2 11.7 C 17.16 11.7 17.2 19.8 17.2 19.8 L 15.6 19.8 C 15.6 19.8 15.62 12.24 15.6 12.2 C 15.6 10.5 14.6 9.7 13.2 9.7 C 11.6 9.7 10.2 11 10.2 13.3 C 10.16 13.33 10.2 19.8 10.2 19.8 L 8.7 19.8 C 8.7 19.8 8.65 12.24 8.7 12.2 C 8.7 10.5 7.6 9.7 6.3 9.7 C 4.6 9.7 3.2 10.9 3.2 13.3 C 3.21 13.33 3.2 19.8 3.2 19.8 L 1.7 19.8 L 1.7 8.5 Z M 22 3.8 L 20.3 3.8 L 20.3 5.7 L 22 5.7 L 22 3.8 Z M 21.9 19.8 L 20.4 19.8 L 20.4 8.5 L 21.9 8.5 L 21.9 19.8 Z M 26.1 14.5 C 26.1 17.3 27.8 18.6 29.8 18.6 C 31.3 18.6 32.8 17.9 33.1 16.3 C 33.1 16.3 34.6 16.3 34.6 16.3 C 34.1 18.9 31.9 20 29.8 20 C 27.1 20 24.6 18.2 24.6 14.2 C 24.6 10.1 27.1 8.3 29.8 8.3 C 32.5 8.3 34.7 10 34.7 13.8 C 34.67 13.75 34.7 14.5 34.7 14.5 C 34.7 14.5 26.08 14.51 26.1 14.5 Z M 26.1 13.2 C 26.1 13.2 33.1 13.2 33.1 13.2 C 33.1 10.9 31.6 9.7 29.8 9.7 C 28 9.7 26.3 10.8 26.1 13.2 Z M 46.5 12.1 C 46.45 12.05 46.5 19.8 46.5 19.8 L 44.9 19.8 C 44.9 19.8 44.92 12.24 44.9 12.2 C 44.9 10.7 44 9.7 42.4 9.7 C 40.5 9.7 38.8 11.1 38.8 13.9 C 38.83 13.86 38.8 19.8 38.8 19.8 L 37.3 19.8 L 37.3 8.5 L 38.8 8.5 C 38.8 8.5 38.83 10.6 38.8 10.6 C 39.5 9.3 40.8 8.3 42.7 8.3 C 45 8.3 46.5 9.6 46.5 12.1 Z M 54.9 19.8 C 54.9 19.8 53.19 19.78 53.2 19.8 C 51.7 19.8 50.4 19.3 50.4 16.8 C 50.36 16.82 50.4 9.9 50.4 9.9 L 48.1 9.9 L 48.1 8.5 L 50.4 8.5 L 50.4 5.3 L 51.9 4.9 L 51.9 8.5 L 54.6 8.5 L 54.6 9.9 L 51.9 9.9 C 51.9 9.9 51.89 16.8 51.9 16.8 C 51.9 17.8 52.2 18.4 53.4 18.4 C 53.44 18.4 54.9 18.4 54.9 18.4 L 54.9 19.8 Z M 62.7 9.8 C 62.7 9.8 62.33 9.83 62.3 9.8 C 59.9 9.8 58.6 11.2 58.6 13.8 C 58.59 13.8 58.6 19.8 58.6 19.8 L 57.1 19.8 L 57.1 8.5 L 58.6 8.5 C 58.6 8.5 58.57 10.58 58.6 10.6 C 59.1 9.1 60.5 8.4 62.2 8.4 C 62.2 8.38 62.7 8.4 62.7 8.4 L 62.7 9.8 Z M 71.6 17.7 C 70.7 19.4 69 20 67.6 20 C 65.7 20 63.9 18.9 63.9 16.7 C 63.9 14.6 65.4 13.6 67.4 13.4 C 67.4 13.4 70 13 70 13 C 70.9 12.9 71.6 12.6 71.6 11.6 C 71.6 10.3 70.5 9.6 68.9 9.6 C 67.2 9.6 66.1 10.4 65.9 11.7 C 65.9 11.7 64.4 11.7 64.4 11.7 C 64.7 9.4 66.5 8.3 69 8.3 C 71.5 8.3 73.1 9.5 73.1 12 C 73.1 11.99 73.1 19.8 73.1 19.8 L 71.6 19.8 C 71.6 19.8 71.61 17.72 71.6 17.7 Z M 69.7 14.3 C 69.7 14.3 68 14.5 68 14.5 C 66.6 14.7 65.5 15.2 65.5 16.6 C 65.5 18 66.6 18.6 67.9 18.6 C 69.6 18.6 71.6 17.3 71.6 14.9 C 71.6 14.9 71.6 13.8 71.6 13.8 C 71.1 14.1 70.5 14.2 69.7 14.3 Z M 84.6 16.6 C 84.6 18.9 82.5 20 80.3 20 C 77.9 20 75.6 18.8 75.4 16.3 C 75.4 16.3 77 16.3 77 16.3 C 77.3 18 78.8 18.6 80.3 18.6 C 81.8 18.6 83 18.1 83 16.8 C 83 15.5 81.7 15.2 80.4 15 C 78.2 14.6 75.7 14.2 75.7 11.6 C 75.7 9.4 77.6 8.3 79.9 8.3 C 82.3 8.3 84.2 9.4 84.3 11.7 C 84.3 11.7 82.7 11.7 82.7 11.7 C 82.6 10.3 81.3 9.7 79.9 9.7 C 78.3 9.7 77.3 10.4 77.3 11.5 C 77.3 13 78.6 13.2 80.3 13.5 C 82.4 13.8 84.6 14.1 84.6 16.6 Z M 100.2 24.1 C 100.2 24.1 100.23 17.62 100.2 17.6 C 99.6 18.9 98.2 19.9 96.3 19.9 C 93.8 19.9 91.2 18.2 91.2 14 C 91.2 10 93.8 8.3 96.3 8.3 C 98.2 8.3 99.7 9.3 100.3 10.5 C 100.27 10.48 100.3 8.5 100.3 8.5 L 101.8 8.5 L 101.8 24.1 L 100.2 24.1 Z M 100.2 14.1 C 100.2 10.9 98.3 9.7 96.5 9.7 C 94.6 9.7 92.8 10.9 92.8 14.1 C 92.8 17.2 94.6 18.5 96.5 18.5 C 98.3 18.5 100.2 17.2 100.2 14.1 Z M 112.4 19.8 C 112.4 19.8 112.43 17.64 112.4 17.6 C 111.7 19.2 110.3 19.9 108.7 19.9 C 106.6 19.9 104.9 18.6 104.9 16 C 104.91 15.96 104.9 8.5 104.9 8.5 L 106.4 8.5 C 106.4 8.5 106.45 15.77 106.4 15.8 C 106.4 17.6 107.5 18.6 108.9 18.6 C 110.8 18.6 112.4 17.2 112.4 14.3 C 112.37 14.34 112.4 8.5 112.4 8.5 L 113.9 8.5 L 113.9 19.8 L 112.4 19.8 Z M 118 14.5 C 118.1 17.3 119.8 18.6 121.8 18.6 C 123.3 18.6 124.8 17.9 125.1 16.3 C 125.1 16.3 126.5 16.3 126.5 16.3 C 126 18.9 123.9 20 121.7 20 C 119 20 116.5 18.2 116.5 14.2 C 116.5 10.1 119.1 8.3 121.8 8.3 C 124.4 8.3 126.6 10 126.6 13.8 C 126.63 13.75 126.6 14.5 126.6 14.5 C 126.6 14.5 118.04 14.51 118 14.5 Z M 118.1 13.2 C 118.1 13.2 125.1 13.2 125.1 13.2 C 125.1 10.9 123.6 9.7 121.7 9.7 C 120 9.7 118.3 10.8 118.1 13.2 Z M 141.4 17.7 C 140.6 19.4 138.9 20 137.4 20 C 135.5 20 133.8 18.9 133.8 16.7 C 133.8 14.6 135.3 13.6 137.2 13.4 C 137.2 13.4 139.9 13 139.9 13 C 140.7 12.9 141.4 12.6 141.4 11.6 C 141.4 10.3 140.3 9.6 138.7 9.6 C 137 9.6 136 10.4 135.7 11.7 C 135.7 11.7 134.2 11.7 134.2 11.7 C 134.5 9.4 136.3 8.3 138.8 8.3 C 141.4 8.3 142.9 9.5 142.9 12 C 142.92 11.99 142.9 19.8 142.9 19.8 L 141.4 19.8 C 141.4 19.8 141.43 17.72 141.4 17.7 Z M 139.6 14.3 C 139.6 14.3 137.8 14.5 137.8 14.5 C 136.4 14.7 135.3 15.2 135.3 16.6 C 135.3 18 136.4 18.6 137.7 18.6 C 139.4 18.6 141.4 17.3 141.4 14.9 C 141.4 14.9 141.4 13.8 141.4 13.8 C 141 14.1 140.3 14.2 139.6 14.3 Z M 147.6 19.8 L 146.1 19.8 L 146.1 3.8 L 147.6 3.8 L 147.6 19.8 Z M 160.7 19.3 C 160.7 22.7 158.5 24.4 155.6 24.4 C 153.1 24.4 150.8 23.1 150.5 20.5 C 150.5 20.5 152 20.5 152 20.5 C 152.3 21.9 153.3 23.1 155.6 23.1 C 157.6 23.1 159.2 22 159.2 19.4 C 159.2 19.4 159.2 17.1 159.2 17.1 C 158.4 18.8 156.7 19.4 155.2 19.4 C 152.5 19.4 150.2 17.5 150.2 13.8 C 150.2 10.1 152.6 8.3 155.3 8.3 C 157.1 8.3 158.5 9.1 159.2 10.3 C 159.16 10.33 159.2 8.5 159.2 8.5 L 160.7 8.5 C 160.7 8.5 160.67 19.28 160.7 19.3 Z M 159.1 13.8 C 159.1 11 157.4 9.6 155.5 9.6 C 153.6 9.6 151.7 11 151.7 13.8 C 151.7 16.6 153.5 18 155.5 18 C 157.3 18 159.1 16.8 159.1 13.8 Z M 171.3 19.8 C 171.3 19.8 171.34 17.64 171.3 17.6 C 170.6 19.2 169.2 19.9 167.6 19.9 C 165.5 19.9 163.8 18.6 163.8 16 C 163.82 15.96 163.8 8.5 163.8 8.5 L 165.4 8.5 C 165.4 8.5 165.35 15.77 165.4 15.8 C 165.4 17.6 166.4 18.6 167.9 18.6 C 169.7 18.6 171.3 17.2 171.3 14.3 C 171.27 14.34 171.3 8.5 171.3 8.5 L 172.8 8.5 L 172.8 19.8 L 171.3 19.8 Z M 185.3 12.1 C 185.32 12.05 185.3 19.8 185.3 19.8 L 183.8 19.8 C 183.8 19.8 183.79 12.24 183.8 12.2 C 183.8 10.7 182.9 9.7 181.3 9.7 C 179.4 9.7 177.7 11.1 177.7 13.9 C 177.7 13.86 177.7 19.8 177.7 19.8 L 176.2 19.8 L 176.2 8.5 L 177.7 8.5 C 177.7 8.5 177.7 10.6 177.7 10.6 C 178.4 9.3 179.6 8.3 181.6 8.3 C 183.9 8.3 185.3 9.6 185.3 12.1 Z M 187.8 14.2 C 187.8 10.5 190.1 8.3 193.2 8.3 C 196.3 8.3 198.5 10.5 198.5 14.2 C 198.5 17.8 196.3 20 193.2 20 C 190.1 20 187.8 17.8 187.8 14.2 Z M 197 14.1 C 197 11.3 195.3 9.7 193.2 9.7 C 191 9.7 189.4 11.4 189.4 14.2 C 189.4 17 191.1 18.6 193.2 18.6 C 195.4 18.6 197 16.9 197 14.1 Z M 209.5 16.6 C 209.5 18.9 207.5 20 205.2 20 C 202.8 20 200.5 18.8 200.3 16.3 C 200.3 16.3 202 16.3 202 16.3 C 202.2 18 203.7 18.6 205.2 18.6 C 206.7 18.6 207.9 18.1 207.9 16.8 C 207.9 15.5 206.6 15.2 205.3 15 C 203.2 14.6 200.6 14.2 200.6 11.6 C 200.6 9.4 202.5 8.3 204.8 8.3 C 207.2 8.3 209.1 9.4 209.2 11.7 C 209.2 11.7 207.6 11.7 207.6 11.7 C 207.5 10.3 206.2 9.7 204.8 9.7 C 203.2 9.7 202.2 10.4 202.2 11.5 C 202.2 13 203.6 13.2 205.3 13.5 C 207.3 13.8 209.5 14.1 209.5 16.6 Z M 225.3 16.6 C 225.3 18.9 223.2 20 220.9 20 C 218.5 20 216.3 18.8 216 16.3 C 216 16.3 217.7 16.3 217.7 16.3 C 217.9 18 219.4 18.6 220.9 18.6 C 222.4 18.6 223.7 18.1 223.7 16.8 C 223.7 15.5 222.4 15.2 221 15 C 218.9 14.6 216.3 14.2 216.3 11.6 C 216.3 9.4 218.3 8.3 220.6 8.3 C 223 8.3 224.8 9.4 225 11.7 C 225 11.7 223.4 11.7 223.4 11.7 C 223.3 10.3 222 9.7 220.5 9.7 C 219 9.7 217.9 10.4 217.9 11.5 C 217.9 13 219.3 13.2 221 13.5 C 223 13.8 225.3 14.1 225.3 16.6 Z M 228.6 14.5 C 228.6 17.3 230.3 18.6 232.3 18.6 C 233.8 18.6 235.3 17.9 235.6 16.3 C 235.6 16.3 237.1 16.3 237.1 16.3 C 236.6 18.9 234.4 20 232.2 20 C 229.5 20 227 18.2 227 14.2 C 227 10.1 229.6 8.3 232.3 8.3 C 235 8.3 237.2 10 237.2 13.8 C 237.15 13.75 237.2 14.5 237.2 14.5 C 237.2 14.5 228.56 14.51 228.6 14.5 Z M 228.6 13.2 C 228.6 13.2 235.6 13.2 235.6 13.2 C 235.6 10.9 234.1 9.7 232.2 9.7 C 230.5 9.7 228.8 10.8 228.6 13.2 Z M 244.3 20 C 241.2 20 239 17.7 239 14.2 C 239 10.6 241.1 8.3 244.4 8.3 C 246.9 8.3 248.9 9.7 249.1 12.2 C 249.1 12.2 247.6 12.2 247.6 12.2 C 247.4 10.6 246 9.7 244.4 9.7 C 242.2 9.7 240.6 11.4 240.6 14.1 C 240.6 16.9 242.1 18.6 244.4 18.6 C 246.1 18.6 247.4 17.6 247.5 15.8 C 247.5 15.8 249.1 15.8 249.1 15.8 C 248.9 18.5 246.8 20 244.3 20 Z M 256.8 19.8 C 256.8 19.8 255.17 19.78 255.2 19.8 C 253.7 19.8 252.3 19.3 252.3 16.8 C 252.33 16.82 252.3 9.9 252.3 9.9 L 250.1 9.9 L 250.1 8.5 L 252.3 8.5 L 252.3 5.3 L 253.9 4.9 L 253.9 8.5 L 256.6 8.5 L 256.6 9.9 L 253.9 9.9 C 253.9 9.9 253.87 16.8 253.9 16.8 C 253.9 17.8 254.2 18.4 255.4 18.4 C 255.42 18.4 256.8 18.4 256.8 18.4 L 256.8 19.8 Z M 258.3 14.2 C 258.3 10.5 260.5 8.3 263.6 8.3 C 266.7 8.3 269 10.5 269 14.2 C 269 17.8 266.8 20 263.7 20 C 260.5 20 258.3 17.8 258.3 14.2 Z M 267.4 14.1 C 267.4 11.3 265.7 9.7 263.6 9.7 C 261.4 9.7 259.9 11.4 259.9 14.2 C 259.9 17 261.6 18.6 263.7 18.6 C 265.9 18.6 267.4 16.9 267.4 14.1 Z M 277.2 9.8 C 277.2 9.8 276.88 9.83 276.9 9.8 C 274.5 9.8 273.1 11.2 273.1 13.8 C 273.14 13.8 273.1 19.8 273.1 19.8 L 271.6 19.8 L 271.6 8.5 L 273.1 8.5 C 273.1 8.5 273.12 10.58 273.1 10.6 C 273.6 9.1 275 8.4 276.8 8.4 C 276.76 8.38 277.2 8.4 277.2 8.4 L 277.2 9.8 Z M 279.8 14.5 C 279.8 17.3 281.6 18.6 283.6 18.6 C 285.1 18.6 286.5 17.9 286.9 16.3 C 286.9 16.3 288.3 16.3 288.3 16.3 C 287.8 18.9 285.6 20 283.5 20 C 280.8 20 278.3 18.2 278.3 14.2 C 278.3 10.1 280.8 8.3 283.5 8.3 C 286.2 8.3 288.4 10 288.4 13.8 C 288.39 13.75 288.4 14.5 288.4 14.5 C 288.4 14.5 279.8 14.51 279.8 14.5 Z M 279.8 13.2 C 279.8 13.2 286.8 13.2 286.8 13.2 C 286.8 10.9 285.4 9.7 283.5 9.7 C 281.7 9.7 280.1 10.8 279.8 13.2 Z M 299.4 16.6 C 299.4 18.9 297.3 20 295 20 C 292.6 20 290.4 18.8 290.2 16.3 C 290.2 16.3 291.8 16.3 291.8 16.3 C 292.1 18 293.5 18.6 295.1 18.6 C 296.5 18.6 297.8 18.1 297.8 16.8 C 297.8 15.5 296.5 15.2 295.2 15 C 293 14.6 290.4 14.2 290.4 11.6 C 290.4 9.4 292.4 8.3 294.7 8.3 C 297.1 8.3 299 9.4 299.1 11.7 C 299.1 11.7 297.5 11.7 297.5 11.7 C 297.4 10.3 296.1 9.7 294.6 9.7 C 293.1 9.7 292 10.4 292 11.5 C 292 13 293.4 13.2 295.1 13.5 C 297.1 13.8 299.4 14.1 299.4 16.6 Z M 303 19.7 C 303.01 19.66 302 19.7 302 19.7 L 302 17.6 L 304.2 17.6 C 304.2 17.6 304.22 19.72 304.2 19.7 C 304.2 22.2 302.8 23.1 301.2 23.2 C 301.2 23.2 301 22.3 301 22.3 C 302.7 22 303 21 303 19.7 Z M 316 20 C 312.9 20 310.7 17.7 310.7 14.2 C 310.7 10.6 312.8 8.3 316.1 8.3 C 318.6 8.3 320.6 9.7 320.8 12.2 C 320.8 12.2 319.3 12.2 319.3 12.2 C 319.1 10.6 317.7 9.7 316.1 9.7 C 313.9 9.7 312.3 11.4 312.3 14.1 C 312.3 16.9 313.8 18.6 316 18.6 C 317.7 18.6 319.1 17.6 319.2 15.8 C 319.2 15.8 320.8 15.8 320.8 15.8 C 320.6 18.5 318.5 20 316 20 Z M 322.6 14.2 C 322.6 10.5 324.9 8.3 328 8.3 C 331.1 8.3 333.3 10.5 333.3 14.2 C 333.3 17.8 331.1 20 328 20 C 324.9 20 322.6 17.8 322.6 14.2 Z M 331.8 14.1 C 331.8 11.3 330.1 9.7 328 9.7 C 325.7 9.7 324.2 11.4 324.2 14.2 C 324.2 17 325.9 18.6 328 18.6 C 330.2 18.6 331.8 16.9 331.8 14.1 Z M 336 8.5 L 337.5 8.5 C 337.5 8.5 337.47 10.37 337.5 10.4 C 338.1 9 339.3 8.3 340.7 8.3 C 342.4 8.3 343.7 9.2 344.1 10.6 C 344.6 9.4 345.8 8.3 347.8 8.3 C 349.8 8.3 351.4 9.4 351.4 11.7 C 351.43 11.7 351.4 19.8 351.4 19.8 L 349.9 19.8 C 349.9 19.8 349.9 12.24 349.9 12.2 C 349.9 10.5 348.8 9.7 347.5 9.7 C 345.8 9.7 344.4 11 344.4 13.3 C 344.44 13.33 344.4 19.8 344.4 19.8 L 342.9 19.8 C 342.9 19.8 342.93 12.24 342.9 12.2 C 342.9 10.5 341.9 9.7 340.6 9.7 C 338.9 9.7 337.5 10.9 337.5 13.3 C 337.49 13.33 337.5 19.8 337.5 19.8 L 336 19.8 L 336 8.5 Z M 354 14.2 C 354 10.5 356.2 8.3 359.3 8.3 C 362.4 8.3 364.6 10.5 364.6 14.2 C 364.6 17.8 362.4 20 359.3 20 C 356.2 20 354 17.8 354 14.2 Z M 363.1 14.1 C 363.1 11.3 361.4 9.7 359.3 9.7 C 357.1 9.7 355.5 11.4 355.5 14.2 C 355.5 17 357.2 18.6 359.3 18.6 C 361.5 18.6 363.1 16.9 363.1 14.1 Z M 372.9 14.5 C 372.9 17.3 374.6 18.6 376.6 18.6 C 378.1 18.6 379.6 17.9 379.9 16.3 C 379.9 16.3 381.4 16.3 381.4 16.3 C 380.9 18.9 378.7 20 376.5 20 C 373.9 20 371.4 18.2 371.4 14.2 C 371.4 10.1 373.9 8.3 376.6 8.3 C 379.3 8.3 381.5 10 381.5 13.8 C 381.46 13.75 381.5 14.5 381.5 14.5 C 381.5 14.5 372.87 14.51 372.9 14.5 Z M 372.9 13.2 C 372.9 13.2 379.9 13.2 379.9 13.2 C 379.9 10.9 378.4 9.7 376.5 9.7 C 374.8 9.7 373.1 10.8 372.9 13.2 Z M 385.6 19.8 L 384.1 19.8 L 384.1 3.8 L 385.6 3.8 L 385.6 19.8 Z " stroke="none" fill="#000"/>  </g></svg>