<?xml version="1.0" standalone="no"?><!DOCTYPE svg PUBLIC "-//W3C//DTD SVG 1.1//EN" "http://www.w3.org/Graphics/SVG/1.1/DTD/svg11.dtd"><svg xmlns="http://www.w3.org/2000/svg" version="1.1" width="862px" height="138.3px" viewBox="0 0 862 138.3">  <desc>Como inversor en un entorno como ste, quiere a alguien que trabaje de forma activa y que sepa d nde encontrar valor</desc>  <defs/>  <g id="Polygon12064">    <path d="M 5.1 99.4 C 5.2 102.3 7.2 103.6 9.6 103.6 C 11.3 103.6 12.9 102.9 13.4 101.3 C 13.4 101.3 17.3 101.3 17.3 101.3 C 16.5 105.2 13.1 107.3 9.4 107.3 C 5.2 107.3 1 104.4 1 98.2 C 1 92.1 5 89 9.5 89 C 13.8 89 17.4 91.8 17.4 97.7 C 17.38 97.66 17.4 99.4 17.4 99.4 C 17.4 99.4 5.09 99.39 5.1 99.4 Z M 5.2 96.3 C 5.2 96.3 13.2 96.3 13.2 96.3 C 13.2 94 11.6 92.6 9.4 92.6 C 7.5 92.6 5.6 93.7 5.2 96.3 Z M 35.9 95.6 C 35.94 95.55 35.9 106.9 35.9 106.9 L 31.7 106.9 C 31.7 106.9 31.68 95.94 31.7 95.9 C 31.7 94 30.6 92.8 28.6 92.8 C 26.1 92.8 24.7 94.5 24.7 97.4 C 24.67 97.41 24.7 106.9 24.7 106.9 L 20.4 106.9 L 20.4 89.3 L 24.6 89.3 C 24.6 89.3 24.64 91.84 24.6 91.8 C 25.6 90.2 27.1 89 30 89 C 34 89 35.9 91.3 35.9 95.6 Z M 47.4 107.3 C 41.6 107.3 38.8 102.9 38.8 98.1 C 38.8 93.4 41.6 89 47.4 89 C 51.7 89 55 91.5 55.2 95.6 C 55.2 95.6 51 95.6 51 95.6 C 50.8 94 49.6 92.9 47.5 92.9 C 44.4 92.9 43.1 95.4 43.1 98.1 C 43.1 101 44.4 103.4 47.5 103.4 C 49.5 103.4 50.8 102.2 51 100.7 C 51 100.7 55.3 100.7 55.3 100.7 C 54.7 105 51.6 107.3 47.4 107.3 Z M 74.5 98.1 C 74.5 103.9 70.8 107.3 65.8 107.3 C 60.9 107.3 57.2 103.9 57.2 98.1 C 57.2 92.4 60.9 89 65.8 89 C 70.8 89 74.5 92.4 74.5 98.1 Z M 61.6 98.1 C 61.6 101.7 63.5 103.4 65.9 103.4 C 68.4 103.4 70.1 101.4 70.1 98.1 C 70.1 94.6 68.2 92.9 65.8 92.9 C 63.3 92.9 61.6 94.8 61.6 98.1 Z M 93 95.6 C 93.02 95.55 93 106.9 93 106.9 L 88.8 106.9 C 88.8 106.9 88.77 95.94 88.8 95.9 C 88.8 94 87.6 92.8 85.7 92.8 C 83.2 92.8 81.8 94.5 81.8 97.4 C 81.76 97.41 81.8 106.9 81.8 106.9 L 77.5 106.9 L 77.5 89.3 L 81.7 89.3 C 81.7 89.3 81.73 91.84 81.7 91.8 C 82.7 90.2 84.2 89 87.1 89 C 91.1 89 93 91.3 93 95.6 Z M 106 106.9 C 106 106.9 103.26 106.94 103.3 106.9 C 100 106.9 97.9 105.9 97.9 101.2 C 97.85 101.18 97.9 93.1 97.9 93.1 L 94.6 93.1 L 94.6 89.3 L 97.9 89.3 L 97.9 85.3 L 102.1 84.1 L 102.1 89.3 L 105.6 89.3 L 105.6 93.1 L 102.1 93.1 C 102.1 93.1 102.11 101.38 102.1 101.4 C 102.1 102.4 102.4 103.2 103.9 103.2 C 103.9 103.17 106 103.2 106 103.2 L 106 106.9 Z M 118.4 93.2 C 118.4 93.2 117.31 93.22 117.3 93.2 C 114.3 93.2 112.7 94.8 112.7 98.3 C 112.7 98.3 112.7 106.9 112.7 106.9 L 108.4 106.9 L 108.4 89.3 L 112.7 89.3 C 112.7 89.3 112.67 91.81 112.7 91.8 C 113.6 89.9 115.2 89.1 117.3 89.1 C 117.28 89.09 118.4 89.1 118.4 89.1 L 118.4 93.2 Z M 134.6 95.1 C 134.62 95.07 134.6 106.9 134.6 106.9 L 130.5 106.9 C 130.5 106.9 130.46 104.38 130.5 104.4 C 129.1 106.6 127 107.3 125.1 107.3 C 122.3 107.3 119.4 105.7 119.4 101.9 C 119.4 99.1 121 97.2 125 96.6 C 125 96.6 128.8 96 128.8 96 C 129.9 95.9 130.6 95.5 130.6 94.4 C 130.6 92.9 129.3 92.3 127.6 92.3 C 125.4 92.3 124.4 93.4 124.2 94.9 C 124.2 94.9 120.1 94.9 120.1 94.9 C 120.5 90.8 123.8 89 127.8 89 C 132 89 134.6 90.9 134.6 95.1 Z M 130.5 99.5 C 130.5 99.5 130.5 98.6 130.5 98.6 C 130.1 98.8 129.3 99 128.4 99.1 C 128.4 99.1 126.5 99.4 126.5 99.4 C 124.4 99.6 123.6 100.5 123.6 101.7 C 123.6 103 124.6 103.8 126.1 103.8 C 128.3 103.8 130.5 102.1 130.5 99.5 Z M 148.4 93.2 C 148.4 93.2 147.33 93.22 147.3 93.2 C 144.4 93.2 142.7 94.8 142.7 98.3 C 142.72 98.3 142.7 106.9 142.7 106.9 L 138.5 106.9 L 138.5 89.3 L 142.7 89.3 C 142.7 89.3 142.69 91.81 142.7 91.8 C 143.6 89.9 145.2 89.1 147.3 89.1 C 147.29 89.09 148.4 89.1 148.4 89.1 L 148.4 93.2 Z M 166.5 106.9 L 162 106.9 L 155.5 89.3 L 160 89.3 L 164.3 101.9 L 168.7 89.3 L 173.1 89.3 L 166.5 106.9 Z M 189 95.1 C 188.96 95.07 189 106.9 189 106.9 L 184.8 106.9 C 184.8 106.9 184.8 104.38 184.8 104.4 C 183.4 106.6 181.3 107.3 179.5 107.3 C 176.6 107.3 173.7 105.7 173.7 101.9 C 173.7 99.1 175.3 97.2 179.4 96.6 C 179.4 96.6 183.2 96 183.2 96 C 184.2 95.9 185 95.5 185 94.4 C 185 92.9 183.7 92.3 182 92.3 C 179.7 92.3 178.7 93.4 178.5 94.9 C 178.5 94.9 174.4 94.9 174.4 94.9 C 174.9 90.8 178.2 89 182.2 89 C 186.3 89 189 90.9 189 95.1 Z M 184.8 99.5 C 184.8 99.5 184.8 98.6 184.8 98.6 C 184.4 98.8 183.6 99 182.8 99.1 C 182.8 99.1 180.8 99.4 180.8 99.4 C 178.7 99.6 178 100.5 178 101.7 C 178 103 179 103.8 180.4 103.8 C 182.7 103.8 184.8 102.1 184.8 99.5 Z M 197.1 106.9 L 192.8 106.9 L 192.8 82.6 L 197.1 82.6 L 197.1 106.9 Z M 217.3 98.1 C 217.3 103.9 213.7 107.3 208.7 107.3 C 203.8 107.3 200.1 103.9 200.1 98.1 C 200.1 92.4 203.8 89 208.7 89 C 213.7 89 217.3 92.4 217.3 98.1 Z M 204.4 98.1 C 204.4 101.7 206.4 103.4 208.8 103.4 C 211.3 103.4 213 101.4 213 98.1 C 213 94.6 211 92.9 208.7 92.9 C 206.1 92.9 204.4 94.8 204.4 98.1 Z M 230.4 93.2 C 230.4 93.2 229.25 93.22 229.2 93.2 C 226.3 93.2 224.6 94.8 224.6 98.3 C 224.64 98.3 224.6 106.9 224.6 106.9 L 220.4 106.9 L 220.4 89.3 L 224.6 89.3 C 224.6 89.3 224.61 91.81 224.6 91.8 C 225.5 89.9 227.1 89.1 229.2 89.1 C 229.21 89.09 230.4 89.1 230.4 89.1 L 230.4 93.2 Z M 248.4 106.9 L 243.9 106.9 L 237.4 89.3 L 241.9 89.3 L 246.2 101.9 L 250.6 89.3 L 255 89.3 L 248.4 106.9 Z M 259.8 99.4 C 259.9 102.3 261.9 103.6 264.3 103.6 C 266 103.6 267.6 102.9 268.1 101.3 C 268.1 101.3 272 101.3 272 101.3 C 271.2 105.2 267.7 107.3 264.1 107.3 C 259.9 107.3 255.6 104.4 255.6 98.2 C 255.6 92.1 259.6 89 264.2 89 C 268.4 89 272.1 91.8 272.1 97.7 C 272.06 97.66 272.1 99.4 272.1 99.4 C 272.1 99.4 259.77 99.39 259.8 99.4 Z M 259.9 96.3 C 259.9 96.3 267.9 96.3 267.9 96.3 C 267.9 94 266.3 92.6 264.1 92.6 C 262.1 92.6 260.3 93.7 259.9 96.3 Z M 285.1 93.2 C 285.1 93.2 283.96 93.22 284 93.2 C 281 93.2 279.4 94.8 279.4 98.3 C 279.36 98.3 279.4 106.9 279.4 106.9 L 275.1 106.9 L 275.1 89.3 L 279.3 89.3 C 279.3 89.3 279.32 91.81 279.3 91.8 C 280.2 89.9 281.9 89.1 283.9 89.1 C 283.93 89.09 285.1 89.1 285.1 89.1 L 285.1 93.2 Z M 303.1 106.9 L 298.9 106.9 C 298.9 106.9 298.91 104.22 298.9 104.2 C 297.9 106.3 295.9 107.3 293.5 107.3 C 289.3 107.3 285.7 104.3 285.7 98.1 C 285.7 92 289.3 89 293.5 89 C 295.8 89 297.8 89.9 298.8 91.6 C 298.81 91.62 298.8 82.6 298.8 82.6 L 303.1 82.6 L 303.1 106.9 Z M 298.9 98.1 C 298.9 94.5 296.8 92.7 294.5 92.7 C 292.2 92.7 290 94.5 290 98.1 C 290 101.7 292.2 103.4 294.5 103.4 C 296.8 103.4 298.9 101.7 298.9 98.1 Z M 321.3 95.1 C 321.34 95.07 321.3 106.9 321.3 106.9 L 317.2 106.9 C 317.2 106.9 317.18 104.38 317.2 104.4 C 315.8 106.6 313.7 107.3 311.8 107.3 C 309 107.3 306.1 105.7 306.1 101.9 C 306.1 99.1 307.7 97.2 311.7 96.6 C 311.7 96.6 315.5 96 315.5 96 C 316.6 95.9 317.3 95.5 317.3 94.4 C 317.3 92.9 316.1 92.3 314.4 92.3 C 312.1 92.3 311.1 93.4 310.9 94.9 C 310.9 94.9 306.8 94.9 306.8 94.9 C 307.3 90.8 310.6 89 314.6 89 C 318.7 89 321.3 90.9 321.3 95.1 Z M 317.2 99.5 C 317.2 99.5 317.2 98.6 317.2 98.6 C 316.8 98.8 316 99 315.1 99.1 C 315.1 99.1 313.2 99.4 313.2 99.4 C 311.1 99.6 310.4 100.5 310.4 101.7 C 310.4 103 311.4 103.8 312.8 103.8 C 315 103.8 317.2 102.1 317.2 99.5 Z M 341.4 106.9 L 337.2 106.9 C 337.2 106.9 337.24 104.22 337.2 104.2 C 336.3 106.3 334.2 107.3 331.8 107.3 C 327.7 107.3 324.1 104.3 324.1 98.1 C 324.1 92 327.7 89 331.8 89 C 334.1 89 336.1 89.9 337.1 91.6 C 337.15 91.62 337.1 82.6 337.1 82.6 L 341.4 82.6 L 341.4 106.9 Z M 337.3 98.1 C 337.3 94.5 335.1 92.7 332.8 92.7 C 330.5 92.7 328.4 94.5 328.4 98.1 C 328.4 101.7 330.5 103.4 332.8 103.4 C 335.1 103.4 337.3 101.7 337.3 98.1 Z M 348.6 99.4 C 348.7 102.3 350.7 103.6 353.1 103.6 C 354.8 103.6 356.4 102.9 356.9 101.3 C 356.9 101.3 360.8 101.3 360.8 101.3 C 360 105.2 356.5 107.3 352.9 107.3 C 348.7 107.3 344.4 104.4 344.4 98.2 C 344.4 92.1 348.4 89 353 89 C 357.2 89 360.9 91.8 360.9 97.7 C 360.86 97.66 360.9 99.4 360.9 99.4 C 360.9 99.4 348.57 99.39 348.6 99.4 Z M 348.7 96.3 C 348.7 96.3 356.7 96.3 356.7 96.3 C 356.7 94 355.1 92.6 352.9 92.6 C 350.9 92.6 349.1 93.7 348.7 96.3 Z M 373.9 93.2 C 373.9 93.2 372.76 93.22 372.8 93.2 C 369.8 93.2 368.2 94.8 368.2 98.3 C 368.16 98.3 368.2 106.9 368.2 106.9 L 363.9 106.9 L 363.9 89.3 L 368.1 89.3 C 368.1 89.3 368.12 91.81 368.1 91.8 C 369 89.9 370.7 89.1 372.7 89.1 C 372.73 89.09 373.9 89.1 373.9 89.1 L 373.9 93.2 Z M 391.8 98.1 C 391.8 103.9 388.1 107.3 383.1 107.3 C 378.2 107.3 374.5 103.9 374.5 98.1 C 374.5 92.4 378.2 89 383.1 89 C 388.1 89 391.8 92.4 391.8 98.1 Z M 378.9 98.1 C 378.9 101.7 380.8 103.4 383.2 103.4 C 385.7 103.4 387.4 101.4 387.4 98.1 C 387.4 94.6 385.5 92.9 383.1 92.9 C 380.6 92.9 378.9 94.8 378.9 98.1 Z M 393.7 102 L 398.5 102 L 398.5 106.9 L 393.7 106.9 L 393.7 102 Z " stroke="none" fill="#000"/>  </g>  <g id="Polygon12063">    <path d="M 16.2 56.7 C 16.19 56.67 16.2 68.5 16.2 68.5 L 12 68.5 C 12 68.5 12.03 65.98 12 66 C 10.7 68.2 8.5 68.9 6.7 68.9 C 3.9 68.9 1 67.3 1 63.5 C 1 60.7 2.5 58.8 6.6 58.2 C 6.6 58.2 10.4 57.6 10.4 57.6 C 11.5 57.5 12.2 57.1 12.2 56 C 12.2 54.5 10.9 53.9 9.2 53.9 C 6.9 53.9 5.9 55 5.8 56.5 C 5.8 56.5 1.7 56.5 1.7 56.5 C 2.1 52.4 5.4 50.6 9.4 50.6 C 13.6 50.6 16.2 52.5 16.2 56.7 Z M 12.1 61.1 C 12.1 61.1 12.1 60.2 12.1 60.2 C 11.6 60.4 10.8 60.6 10 60.7 C 10 60.7 8.1 61 8.1 61 C 5.9 61.2 5.2 62.1 5.2 63.3 C 5.2 64.6 6.2 65.4 7.7 65.4 C 9.9 65.4 12.1 63.7 12.1 61.1 Z M 24.3 68.5 L 20 68.5 L 20 44.2 L 24.3 44.2 L 24.3 68.5 Z M 44.4 67.4 C 44.4 73 40.7 75.5 35.9 75.5 C 31.6 75.5 28.1 73.5 27.6 69.1 C 27.6 69.1 31.7 69.1 31.7 69.1 C 32.2 71.3 34 71.9 35.9 71.9 C 38.7 71.9 40.3 70.6 40.3 67.8 C 40.3 67.8 40.3 64.9 40.3 64.9 C 39.5 66.7 37.7 67.9 35 67.9 C 31.1 67.9 27.3 65.2 27.3 59.3 C 27.3 53.3 31.1 50.6 35 50.6 C 37.6 50.6 39.4 51.7 40.3 53.3 C 40.26 53.34 40.3 50.9 40.3 50.9 L 44.4 50.9 C 44.4 50.9 44.35 67.36 44.4 67.4 Z M 40.1 59.2 C 40.1 55.9 38.2 54.3 35.9 54.3 C 33.6 54.3 31.5 55.9 31.5 59.2 C 31.5 62.6 33.6 64.2 35.9 64.2 C 38.2 64.2 40.1 62.6 40.1 59.2 Z M 63.8 68.5 L 59.6 68.5 C 59.6 68.5 59.65 66.05 59.6 66 C 58.6 67.7 57 68.7 54.6 68.7 C 50.9 68.7 48.2 66.4 48.2 61.9 C 48.19 61.86 48.2 50.9 48.2 50.9 L 52.4 50.9 C 52.4 50.9 52.45 61.54 52.4 61.5 C 52.4 63.9 53.6 65 55.5 65 C 57.8 65 59.6 63.5 59.6 59.4 C 59.55 59.42 59.6 50.9 59.6 50.9 L 63.8 50.9 L 63.8 68.5 Z M 67.8 48.5 L 72.3 48.5 L 72.3 43.7 L 67.8 43.7 L 67.8 48.5 Z M 67.9 50.9 L 72.2 50.9 L 72.2 68.5 L 67.9 68.5 L 67.9 50.9 Z M 79.3 61 C 79.4 63.9 81.5 65.2 83.9 65.2 C 85.5 65.2 87.1 64.5 87.6 62.9 C 87.6 62.9 91.6 62.9 91.6 62.9 C 90.8 66.8 87.3 68.9 83.7 68.9 C 79.4 68.9 75.2 66 75.2 59.8 C 75.2 53.7 79.2 50.6 83.7 50.6 C 88 50.6 91.6 53.4 91.6 59.3 C 91.61 59.26 91.6 61 91.6 61 C 91.6 61 79.33 60.99 79.3 61 Z M 79.4 57.9 C 79.4 57.9 87.5 57.9 87.5 57.9 C 87.5 55.6 85.8 54.2 83.6 54.2 C 81.7 54.2 79.8 55.3 79.4 57.9 Z M 110.2 57.2 C 110.17 57.15 110.2 68.5 110.2 68.5 L 105.9 68.5 C 105.9 68.5 105.92 57.54 105.9 57.5 C 105.9 55.6 104.8 54.4 102.8 54.4 C 100.4 54.4 98.9 56.1 98.9 59 C 98.91 59.01 98.9 68.5 98.9 68.5 L 94.7 68.5 L 94.7 50.9 L 98.9 50.9 C 98.9 50.9 98.88 53.44 98.9 53.4 C 99.9 51.8 101.3 50.6 104.3 50.6 C 108.3 50.6 110.2 52.9 110.2 57.2 Z M 138.4 50.9 L 138.4 75.1 L 134.1 75.1 C 134.1 75.1 134.14 65.92 134.1 65.9 C 133.1 67.6 131.3 68.7 128.9 68.7 C 124.8 68.7 121.1 65.8 121.1 59.6 C 121.1 53.5 124.6 50.6 128.7 50.6 C 131.1 50.6 133.2 51.6 134.2 53.4 C 134.24 53.38 134.2 50.9 134.2 50.9 L 138.4 50.9 Z M 134.3 59.6 C 134.3 55.9 132.1 54.3 129.8 54.3 C 127.5 54.3 125.4 56 125.4 59.6 C 125.4 63.1 127.5 64.8 129.8 64.8 C 132.1 64.8 134.3 63.2 134.3 59.6 Z M 157.9 68.5 L 153.7 68.5 C 153.7 68.5 153.69 66.05 153.7 66 C 152.7 67.7 151.1 68.7 148.6 68.7 C 144.9 68.7 142.2 66.4 142.2 61.9 C 142.24 61.86 142.2 50.9 142.2 50.9 L 146.5 50.9 C 146.5 50.9 146.49 61.54 146.5 61.5 C 146.5 63.9 147.7 65 149.5 65 C 151.9 65 153.6 63.5 153.6 59.4 C 153.6 59.42 153.6 50.9 153.6 50.9 L 157.9 50.9 L 157.9 68.5 Z M 165 61 C 165.1 63.9 167.2 65.2 169.6 65.2 C 171.2 65.2 172.8 64.5 173.3 62.9 C 173.3 62.9 177.2 62.9 177.2 62.9 C 176.5 66.8 173 68.9 169.4 68.9 C 165.1 68.9 160.9 66 160.9 59.8 C 160.9 53.7 164.9 50.6 169.4 50.6 C 173.7 50.6 177.3 53.4 177.3 59.3 C 177.31 59.26 177.3 61 177.3 61 C 177.3 61 165.02 60.99 165 61 Z M 165.1 57.9 C 165.1 57.9 173.1 57.9 173.1 57.9 C 173.1 55.6 171.5 54.2 169.3 54.2 C 167.4 54.2 165.5 55.3 165.1 57.9 Z M 197.1 68.5 C 197.1 68.5 194.27 68.54 194.3 68.5 C 191 68.5 188.9 67.5 188.9 62.8 C 188.86 62.78 188.9 54.7 188.9 54.7 L 185.6 54.7 L 185.6 50.9 L 188.9 50.9 L 188.9 46.9 L 193.1 45.7 L 193.1 50.9 L 196.6 50.9 L 196.6 54.7 L 193.1 54.7 C 193.1 54.7 193.12 62.98 193.1 63 C 193.1 64 193.4 64.8 194.9 64.8 C 194.91 64.77 197.1 64.8 197.1 64.8 L 197.1 68.5 Z M 209.4 54.8 C 209.4 54.8 208.32 54.82 208.3 54.8 C 205.3 54.8 203.7 56.4 203.7 59.9 C 203.71 59.9 203.7 68.5 203.7 68.5 L 199.5 68.5 L 199.5 50.9 L 203.7 50.9 C 203.7 50.9 203.68 53.41 203.7 53.4 C 204.6 51.5 206.2 50.7 208.3 50.7 C 208.29 50.69 209.4 50.7 209.4 50.7 L 209.4 54.8 Z M 225.6 56.7 C 225.63 56.67 225.6 68.5 225.6 68.5 L 221.5 68.5 C 221.5 68.5 221.47 65.98 221.5 66 C 220.1 68.2 218 68.9 216.1 68.9 C 213.3 68.9 210.4 67.3 210.4 63.5 C 210.4 60.7 212 58.8 216 58.2 C 216 58.2 219.8 57.6 219.8 57.6 C 220.9 57.5 221.6 57.1 221.6 56 C 221.6 54.5 220.3 53.9 218.7 53.9 C 216.4 53.9 215.4 55 215.2 56.5 C 215.2 56.5 211.1 56.5 211.1 56.5 C 211.5 52.4 214.8 50.6 218.8 50.6 C 223 50.6 225.6 52.5 225.6 56.7 Z M 221.5 61.1 C 221.5 61.1 221.5 60.2 221.5 60.2 C 221.1 60.4 220.3 60.6 219.4 60.7 C 219.4 60.7 217.5 61 217.5 61 C 215.4 61.2 214.7 62.1 214.7 63.3 C 214.7 64.6 215.6 65.4 217.1 65.4 C 219.3 65.4 221.5 63.7 221.5 61.1 Z M 246.8 59.7 C 246.8 65.9 243 68.9 238.9 68.9 C 236.6 68.9 234.7 68.1 233.6 66.4 C 233.63 66.43 233.6 68.5 233.6 68.5 L 229.5 68.5 L 229.5 44.2 L 233.7 44.2 C 233.7 44.2 233.72 53.47 233.7 53.5 C 234.7 51.6 236.7 50.6 239.1 50.6 C 243.3 50.6 246.8 53.6 246.8 59.7 Z M 242.5 59.8 C 242.5 56.2 240.4 54.5 238.1 54.5 C 235.8 54.5 233.6 56.2 233.6 59.8 C 233.6 63.4 235.8 65.2 238.1 65.2 C 240.4 65.2 242.5 63.4 242.5 59.8 Z M 264 56.7 C 263.96 56.67 264 68.5 264 68.5 L 259.8 68.5 C 259.8 68.5 259.8 65.98 259.8 66 C 258.4 68.2 256.3 68.9 254.5 68.9 C 251.6 68.9 248.7 67.3 248.7 63.5 C 248.7 60.7 250.3 58.8 254.4 58.2 C 254.4 58.2 258.2 57.6 258.2 57.6 C 259.2 57.5 260 57.1 260 56 C 260 54.5 258.7 53.9 257 53.9 C 254.7 53.9 253.7 55 253.5 56.5 C 253.5 56.5 249.4 56.5 249.4 56.5 C 249.9 52.4 253.2 50.6 257.2 50.6 C 261.3 50.6 264 52.5 264 56.7 Z M 259.8 61.1 C 259.8 61.1 259.8 60.2 259.8 60.2 C 259.4 60.4 258.6 60.6 257.8 60.7 C 257.8 60.7 255.8 61 255.8 61 C 253.7 61.2 253 62.1 253 63.3 C 253 64.6 254 65.4 255.5 65.4 C 257.7 65.4 259.8 63.7 259.8 61.1 Z M 272.7 48.5 L 268.2 48.5 L 268.2 43.7 L 272.7 43.7 L 272.7 48.5 Z M 272.6 50.9 C 272.6 50.9 272.57 69.38 272.6 69.4 C 272.6 74.1 270.5 75.1 267.2 75.1 C 267.16 75.14 265.1 75.1 265.1 75.1 L 265.1 71.4 C 265.1 71.4 266.52 71.36 266.5 71.4 C 268 71.4 268.3 70.6 268.3 69.6 C 268.32 69.57 268.3 50.9 268.3 50.9 L 272.6 50.9 Z M 279.5 61 C 279.6 63.9 281.7 65.2 284.1 65.2 C 285.8 65.2 287.4 64.5 287.9 62.9 C 287.9 62.9 291.8 62.9 291.8 62.9 C 291 66.8 287.5 68.9 283.9 68.9 C 279.6 68.9 275.4 66 275.4 59.8 C 275.4 53.7 279.4 50.6 283.9 50.6 C 288.2 50.6 291.8 53.4 291.8 59.3 C 291.84 59.26 291.8 61 291.8 61 C 291.8 61 279.55 60.99 279.5 61 Z M 279.6 57.9 C 279.6 57.9 287.7 57.9 287.7 57.9 C 287.7 55.6 286 54.2 283.9 54.2 C 281.9 54.2 280 55.3 279.6 57.9 Z M 318.5 68.5 L 314.3 68.5 C 314.3 68.5 314.3 65.82 314.3 65.8 C 313.3 67.9 311.3 68.9 308.9 68.9 C 304.7 68.9 301.1 65.9 301.1 59.7 C 301.1 53.6 304.7 50.6 308.9 50.6 C 311.2 50.6 313.1 51.5 314.2 53.2 C 314.2 53.22 314.2 44.2 314.2 44.2 L 318.5 44.2 L 318.5 68.5 Z M 314.3 59.7 C 314.3 56.1 312.2 54.3 309.9 54.3 C 307.5 54.3 305.4 56.1 305.4 59.7 C 305.4 63.3 307.5 65 309.9 65 C 312.2 65 314.3 63.3 314.3 59.7 Z M 325.6 61 C 325.7 63.9 327.8 65.2 330.2 65.2 C 331.8 65.2 333.4 64.5 333.9 62.9 C 333.9 62.9 337.9 62.9 337.9 62.9 C 337.1 66.8 333.6 68.9 330 68.9 C 325.7 68.9 321.5 66 321.5 59.8 C 321.5 53.7 325.5 50.6 330 50.6 C 334.3 50.6 337.9 53.4 337.9 59.3 C 337.92 59.26 337.9 61 337.9 61 C 337.9 61 325.63 60.99 325.6 61 Z M 325.7 57.9 C 325.7 57.9 333.8 57.9 333.8 57.9 C 333.8 55.6 332.1 54.2 329.9 54.2 C 328 54.2 326.1 55.3 325.7 57.9 Z M 355.2 47.9 C 353.7 47.9 353.4 48.7 353.4 49.7 C 353.44 49.73 353.4 50.9 353.4 50.9 L 356.7 50.9 L 356.7 54.7 L 353.4 54.7 L 353.4 68.5 L 349.2 68.5 L 349.2 54.7 L 346.6 54.7 L 346.6 50.9 L 349.2 50.9 C 349.2 50.9 349.18 49.92 349.2 49.9 C 349.2 45.2 351.3 44.2 354.6 44.2 C 354.59 44.16 357.1 44.2 357.1 44.2 L 357.1 47.9 C 357.1 47.9 355.23 47.94 355.2 47.9 Z M 375 59.7 C 375 65.5 371.4 68.9 366.4 68.9 C 361.5 68.9 357.8 65.5 357.8 59.7 C 357.8 54 361.5 50.6 366.4 50.6 C 371.4 50.6 375 54 375 59.7 Z M 362.1 59.7 C 362.1 63.3 364.1 65 366.5 65 C 369 65 370.7 63 370.7 59.7 C 370.7 56.2 368.7 54.5 366.4 54.5 C 363.8 54.5 362.1 56.4 362.1 59.7 Z M 388.1 54.8 C 388.1 54.8 386.94 54.82 386.9 54.8 C 384 54.8 382.3 56.4 382.3 59.9 C 382.33 59.9 382.3 68.5 382.3 68.5 L 378.1 68.5 L 378.1 50.9 L 382.3 50.9 C 382.3 50.9 382.3 53.41 382.3 53.4 C 383.2 51.5 384.8 50.7 386.9 50.7 C 386.91 50.69 388.1 50.7 388.1 50.7 L 388.1 54.8 Z M 415.1 56.6 C 415.07 56.64 415.1 68.5 415.1 68.5 L 410.8 68.5 C 410.8 68.5 410.81 57.47 410.8 57.5 C 410.8 55.4 409.8 54.4 408.1 54.4 C 406 54.4 404.7 55.6 404.7 58.6 C 404.73 58.62 404.7 68.5 404.7 68.5 L 400.5 68.5 C 400.5 68.5 400.48 57.47 400.5 57.5 C 400.5 55.4 399.4 54.4 397.7 54.4 C 395.7 54.4 394.4 55.7 394.4 58.6 C 394.4 58.59 394.4 68.5 394.4 68.5 L 390.1 68.5 L 390.1 50.9 L 394.3 50.9 C 394.3 50.9 394.33 53.47 394.3 53.5 C 394.9 52.1 396.2 50.6 398.9 50.6 C 401.2 50.6 402.9 51.6 403.8 53.5 C 404.4 52.2 405.7 50.6 408.9 50.6 C 412.7 50.6 415.1 52.8 415.1 56.6 Z M 433.2 56.7 C 433.18 56.67 433.2 68.5 433.2 68.5 L 429 68.5 C 429 68.5 429.02 65.98 429 66 C 427.6 68.2 425.5 68.9 423.7 68.9 C 420.9 68.9 417.9 67.3 417.9 63.5 C 417.9 60.7 419.5 58.8 423.6 58.2 C 423.6 58.2 427.4 57.6 427.4 57.6 C 428.4 57.5 429.2 57.1 429.2 56 C 429.2 54.5 427.9 53.9 426.2 53.9 C 423.9 53.9 422.9 55 422.7 56.5 C 422.7 56.5 418.7 56.5 418.7 56.5 C 419.1 52.4 422.4 50.6 426.4 50.6 C 430.6 50.6 433.2 52.5 433.2 56.7 Z M 429.1 61.1 C 429.1 61.1 429.1 60.2 429.1 60.2 C 428.6 60.4 427.8 60.6 427 60.7 C 427 60.7 425.1 61 425.1 61 C 422.9 61.2 422.2 62.1 422.2 63.3 C 422.2 64.6 423.2 65.4 424.7 65.4 C 426.9 65.4 429.1 63.7 429.1 61.1 Z M 459.1 56.7 C 459.13 56.67 459.1 68.5 459.1 68.5 L 455 68.5 C 455 68.5 454.97 65.98 455 66 C 453.6 68.2 451.5 68.9 449.6 68.9 C 446.8 68.9 443.9 67.3 443.9 63.5 C 443.9 60.7 445.5 58.8 449.5 58.2 C 449.5 58.2 453.3 57.6 453.3 57.6 C 454.4 57.5 455.1 57.1 455.1 56 C 455.1 54.5 453.9 53.9 452.2 53.9 C 449.9 53.9 448.9 55 448.7 56.5 C 448.7 56.5 444.6 56.5 444.6 56.5 C 445.1 52.4 448.3 50.6 452.3 50.6 C 456.5 50.6 459.1 52.5 459.1 56.7 Z M 455 61.1 C 455 61.1 455 60.2 455 60.2 C 454.6 60.4 453.8 60.6 452.9 60.7 C 452.9 60.7 451 61 451 61 C 448.9 61.2 448.2 62.1 448.2 63.3 C 448.2 64.6 449.1 65.4 450.6 65.4 C 452.8 65.4 455 63.7 455 61.1 Z M 470.4 68.9 C 464.6 68.9 461.9 64.5 461.9 59.7 C 461.9 55 464.6 50.6 470.4 50.6 C 474.7 50.6 478 53.1 478.2 57.2 C 478.2 57.2 474 57.2 474 57.2 C 473.8 55.6 472.6 54.5 470.5 54.5 C 467.4 54.5 466.1 57 466.1 59.7 C 466.1 62.6 467.5 65 470.5 65 C 472.5 65 473.8 63.8 474.1 62.3 C 474.1 62.3 478.3 62.3 478.3 62.3 C 477.8 66.6 474.7 68.9 470.4 68.9 Z M 490.4 68.5 C 490.4 68.5 487.61 68.54 487.6 68.5 C 484.3 68.5 482.2 67.5 482.2 62.8 C 482.2 62.78 482.2 54.7 482.2 54.7 L 479 54.7 L 479 50.9 L 482.2 50.9 L 482.2 46.9 L 486.5 45.7 L 486.5 50.9 L 490 50.9 L 490 54.7 L 486.5 54.7 C 486.5 54.7 486.46 62.98 486.5 63 C 486.5 64 486.7 64.8 488.3 64.8 C 488.25 64.77 490.4 64.8 490.4 64.8 L 490.4 68.5 Z M 492.6 48.5 L 497.1 48.5 L 497.1 43.7 L 492.6 43.7 L 492.6 48.5 Z M 492.8 50.9 L 497 50.9 L 497 68.5 L 492.8 68.5 L 492.8 50.9 Z M 510.1 68.5 L 505.6 68.5 L 499.1 50.9 L 503.6 50.9 L 507.9 63.5 L 512.3 50.9 L 516.7 50.9 L 510.1 68.5 Z M 532.5 56.7 C 532.54 56.67 532.5 68.5 532.5 68.5 L 528.4 68.5 C 528.4 68.5 528.38 65.98 528.4 66 C 527 68.2 524.9 68.9 523 68.9 C 520.2 68.9 517.3 67.3 517.3 63.5 C 517.3 60.7 518.9 58.8 522.9 58.2 C 522.9 58.2 526.7 57.6 526.7 57.6 C 527.8 57.5 528.5 57.1 528.5 56 C 528.5 54.5 527.3 53.9 525.6 53.9 C 523.3 53.9 522.3 55 522.1 56.5 C 522.1 56.5 518 56.5 518 56.5 C 518.5 52.4 521.8 50.6 525.8 50.6 C 529.9 50.6 532.5 52.5 532.5 56.7 Z M 528.4 61.1 C 528.4 61.1 528.4 60.2 528.4 60.2 C 528 60.4 527.2 60.6 526.3 60.7 C 526.3 60.7 524.4 61 524.4 61 C 522.3 61.2 521.6 62.1 521.6 63.3 C 521.6 64.6 522.6 65.4 524 65.4 C 526.2 65.4 528.4 63.7 528.4 61.1 Z M 558.9 50.9 C 558.9 50.9 551.19 71.2 551.2 71.2 C 550.4 73.3 548.6 74.2 546.2 74.2 C 546.2 74.18 543.5 74.2 543.5 74.2 L 543.5 70.4 C 543.5 70.4 545.47 70.4 545.5 70.4 C 546.9 70.4 547.6 69.9 548 68.7 C 547.99 68.67 548.3 67.8 548.3 67.8 L 541.7 50.9 L 546.2 50.9 L 550.4 62.5 L 554.5 50.9 L 558.9 50.9 Z M 584.5 50.9 L 584.5 75.1 L 580.3 75.1 C 580.3 75.1 580.28 65.92 580.3 65.9 C 579.3 67.6 577.5 68.7 575 68.7 C 570.9 68.7 567.2 65.8 567.2 59.6 C 567.2 53.5 570.7 50.6 574.9 50.6 C 577.2 50.6 579.4 51.6 580.4 53.4 C 580.38 53.38 580.4 50.9 580.4 50.9 L 584.5 50.9 Z M 580.4 59.6 C 580.4 55.9 578.2 54.3 575.9 54.3 C 573.6 54.3 571.5 56 571.5 59.6 C 571.5 63.1 573.6 64.8 575.9 64.8 C 578.2 64.8 580.4 63.2 580.4 59.6 Z M 604 68.5 L 599.8 68.5 C 599.8 68.5 599.83 66.05 599.8 66 C 598.8 67.7 597.2 68.7 594.7 68.7 C 591.1 68.7 588.4 66.4 588.4 61.9 C 588.38 61.86 588.4 50.9 588.4 50.9 L 592.6 50.9 C 592.6 50.9 592.63 61.54 592.6 61.5 C 592.6 63.9 593.8 65 595.6 65 C 598 65 599.7 63.5 599.7 59.4 C 599.74 59.42 599.7 50.9 599.7 50.9 L 604 50.9 L 604 68.5 Z M 611.2 61 C 611.3 63.9 613.3 65.2 615.7 65.2 C 617.4 65.2 619 64.5 619.5 62.9 C 619.5 62.9 623.4 62.9 623.4 62.9 C 622.6 66.8 619.1 68.9 615.5 68.9 C 611.3 68.9 607 66 607 59.8 C 607 53.7 611 50.6 615.5 50.6 C 619.8 50.6 623.4 53.4 623.4 59.3 C 623.45 59.26 623.4 61 623.4 61 C 623.4 61 611.16 60.99 611.2 61 Z M 611.3 57.9 C 611.3 57.9 619.3 57.9 619.3 57.9 C 619.3 55.6 617.7 54.2 615.5 54.2 C 613.5 54.2 611.6 55.3 611.3 57.9 Z M 648 63.1 C 648 67 644.4 68.9 640.5 68.9 C 636.8 68.9 632.9 67.4 632.6 62.9 C 632.6 62.9 636.9 62.9 636.9 62.9 C 637.1 64.7 638.7 65.4 640.7 65.4 C 642.5 65.4 643.8 64.8 643.8 63.5 C 643.8 62.4 642.9 62.1 640.5 61.7 C 637.1 61.1 633.1 60.5 633.1 56.2 C 633.1 52.2 636.5 50.6 640.1 50.6 C 644.3 50.6 647.3 52.6 647.5 56.5 C 647.5 56.5 643.4 56.5 643.4 56.5 C 643.2 54.8 642 54.1 640.2 54.1 C 638.1 54.1 637.2 55 637.2 56.1 C 637.2 57.4 638.8 57.7 641 58 C 644.1 58.5 648 58.9 648 63.1 Z M 653.8 61 C 653.9 63.9 656 65.2 658.4 65.2 C 660.1 65.2 661.7 64.5 662.2 62.9 C 662.2 62.9 666.1 62.9 666.1 62.9 C 665.3 66.8 661.8 68.9 658.2 68.9 C 653.9 68.9 649.7 66 649.7 59.8 C 649.7 53.7 653.7 50.6 658.2 50.6 C 662.5 50.6 666.1 53.4 666.1 59.3 C 666.14 59.26 666.1 61 666.1 61 C 666.1 61 653.85 60.99 653.8 61 Z M 653.9 57.9 C 653.9 57.9 662 57.9 662 57.9 C 662 55.6 660.3 54.2 658.2 54.2 C 656.2 54.2 654.3 55.3 653.9 57.9 Z M 686.5 59.5 C 686.5 65.8 682.6 68.7 678.4 68.7 C 676.1 68.7 674.4 67.7 673.4 66.4 C 673.43 66.43 673.4 75.1 673.4 75.1 L 669.2 75.1 L 669.2 50.9 L 673.3 50.9 C 673.3 50.9 673.34 53.7 673.3 53.7 C 674.2 51.7 676.2 50.6 678.8 50.6 C 683 50.6 686.5 53.5 686.5 59.5 Z M 682.2 59.7 C 682.2 56.1 680.1 54.5 677.8 54.5 C 675.5 54.5 673.3 56.1 673.3 59.7 C 673.3 63.3 675.5 64.9 677.8 64.9 C 680.1 64.9 682.2 63.3 682.2 59.7 Z M 703.7 56.7 C 703.67 56.67 703.7 68.5 703.7 68.5 L 699.5 68.5 C 699.5 68.5 699.51 65.98 699.5 66 C 698.1 68.2 696 68.9 694.2 68.9 C 691.4 68.9 688.4 67.3 688.4 63.5 C 688.4 60.7 690 58.8 694.1 58.2 C 694.1 58.2 697.9 57.6 697.9 57.6 C 698.9 57.5 699.7 57.1 699.7 56 C 699.7 54.5 698.4 53.9 696.7 53.9 C 694.4 53.9 693.4 55 693.2 56.5 C 693.2 56.5 689.1 56.5 689.1 56.5 C 689.6 52.4 692.9 50.6 696.9 50.6 C 701 50.6 703.7 52.5 703.7 56.7 Z M 699.5 61.1 C 699.5 61.1 699.5 60.2 699.5 60.2 C 699.1 60.4 698.3 60.6 697.5 60.7 C 697.5 60.7 695.5 61 695.5 61 C 693.4 61.2 692.7 62.1 692.7 63.3 C 692.7 64.6 693.7 65.4 695.2 65.4 C 697.4 65.4 699.5 63.7 699.5 61.1 Z M 731.1 68.5 L 726.9 68.5 C 726.9 68.5 726.94 65.82 726.9 65.8 C 726 67.9 723.9 68.9 721.5 68.9 C 717.4 68.9 713.8 65.9 713.8 59.7 C 713.8 53.6 717.4 50.6 721.5 50.6 C 723.8 50.6 725.8 51.5 726.8 53.2 C 726.84 53.22 726.8 44.2 726.8 44.2 L 731.1 44.2 L 731.1 68.5 Z M 727 59.7 C 727 56.1 724.8 54.3 722.5 54.3 C 720.2 54.3 718.1 56.1 718.1 59.7 C 718.1 63.3 720.2 65 722.5 65 C 724.8 65 727 63.3 727 59.7 Z M 740.8 47.7 L 745.7 40.1 L 749 42.7 L 744.4 47.7 L 740.8 47.7 Z M 751.4 59.7 C 751.4 65.5 747.7 68.9 742.7 68.9 C 737.8 68.9 734.1 65.5 734.1 59.7 C 734.1 54 737.8 50.6 742.7 50.6 C 747.7 50.6 751.4 54 751.4 59.7 Z M 738.5 59.7 C 738.5 63.3 740.4 65 742.8 65 C 745.3 65 747 63 747 59.7 C 747 56.2 745.1 54.5 742.7 54.5 C 740.2 54.5 738.5 56.4 738.5 59.7 Z M 769.9 57.2 C 769.95 57.15 769.9 68.5 769.9 68.5 L 765.7 68.5 C 765.7 68.5 765.69 57.54 765.7 57.5 C 765.7 55.6 764.6 54.4 762.6 54.4 C 760.2 54.4 758.7 56.1 758.7 59 C 758.68 59.01 758.7 68.5 758.7 68.5 L 754.4 68.5 L 754.4 50.9 L 758.6 50.9 C 758.6 50.9 758.65 53.44 758.6 53.4 C 759.6 51.8 761.1 50.6 764 50.6 C 768.1 50.6 769.9 52.9 769.9 57.2 Z M 790.2 68.5 L 786 68.5 C 786 68.5 786.01 65.82 786 65.8 C 785 67.9 783 68.9 780.6 68.9 C 776.4 68.9 772.8 65.9 772.8 59.7 C 772.8 53.6 776.4 50.6 780.6 50.6 C 782.9 50.6 784.9 51.5 785.9 53.2 C 785.91 53.22 785.9 44.2 785.9 44.2 L 790.2 44.2 L 790.2 68.5 Z M 786 59.7 C 786 56.1 783.9 54.3 781.6 54.3 C 779.3 54.3 777.1 56.1 777.1 59.7 C 777.1 63.3 779.3 65 781.6 65 C 783.9 65 786 63.3 786 59.7 Z M 797.3 61 C 797.4 63.9 799.5 65.2 801.9 65.2 C 803.5 65.2 805.1 64.5 805.7 62.9 C 805.7 62.9 809.6 62.9 809.6 62.9 C 808.8 66.8 805.3 68.9 801.7 68.9 C 797.4 68.9 793.2 66 793.2 59.8 C 793.2 53.7 797.2 50.6 801.7 50.6 C 806 50.6 809.6 53.4 809.6 59.3 C 809.62 59.26 809.6 61 809.6 61 C 809.6 61 797.34 60.99 797.3 61 Z M 797.4 57.9 C 797.4 57.9 805.5 57.9 805.5 57.9 C 805.5 55.6 803.8 54.2 801.7 54.2 C 799.7 54.2 797.8 55.3 797.4 57.9 Z " stroke="none" fill="#000"/>  </g>  <g id="Polygon12062">    <path d="M 19.1 21.3 C 19.1 21.3 23.6 21.3 23.6 21.3 C 23.3 27.6 18.4 30.8 13 30.8 C 5.3 30.8 1.3 24.7 1.3 18 C 1.3 11.7 5 5.6 13 5.6 C 18.7 5.6 22.9 8.6 23.5 14.1 C 23.5 14.1 18.9 14.1 18.9 14.1 C 18.7 11.4 16.1 9.8 12.9 9.8 C 8 9.8 5.8 13.7 5.8 18 C 5.8 22.4 8.3 26.5 13 26.5 C 15.8 26.5 18.8 25 19.1 21.3 Z M 42.9 21.3 C 42.9 27.1 39.3 30.5 34.3 30.5 C 29.4 30.5 25.7 27.1 25.7 21.3 C 25.7 15.6 29.4 12.2 34.3 12.2 C 39.3 12.2 42.9 15.6 42.9 21.3 Z M 30 21.3 C 30 24.9 32 26.6 34.4 26.6 C 36.9 26.6 38.6 24.6 38.6 21.3 C 38.6 17.8 36.6 16.1 34.3 16.1 C 31.7 16.1 30 18 30 21.3 Z M 70.9 18.2 C 70.91 18.24 70.9 30.1 70.9 30.1 L 66.7 30.1 C 66.7 30.1 66.66 19.07 66.7 19.1 C 66.7 17 65.7 16 63.9 16 C 61.9 16 60.6 17.2 60.6 20.2 C 60.58 20.22 60.6 30.1 60.6 30.1 L 56.3 30.1 C 56.3 30.1 56.32 19.07 56.3 19.1 C 56.3 17 55.3 16 53.5 16 C 51.6 16 50.2 17.3 50.2 20.2 C 50.24 20.19 50.2 30.1 50.2 30.1 L 46 30.1 L 46 12.5 L 50.2 12.5 C 50.2 12.5 50.18 15.07 50.2 15.1 C 50.7 13.7 52.1 12.2 54.8 12.2 C 57 12.2 58.8 13.2 59.6 15.1 C 60.3 13.8 61.6 12.2 64.8 12.2 C 68.5 12.2 70.9 14.4 70.9 18.2 Z M 91 21.3 C 91 27.1 87.4 30.5 82.4 30.5 C 77.5 30.5 73.8 27.1 73.8 21.3 C 73.8 15.6 77.5 12.2 82.4 12.2 C 87.4 12.2 91 15.6 91 21.3 Z M 78.1 21.3 C 78.1 24.9 80.1 26.6 82.5 26.6 C 85 26.6 86.7 24.6 86.7 21.3 C 86.7 17.8 84.7 16.1 82.4 16.1 C 79.8 16.1 78.1 18 78.1 21.3 Z M 101.9 10.1 L 106.4 10.1 L 106.4 5.3 L 101.9 5.3 L 101.9 10.1 Z M 102 12.5 L 106.3 12.5 L 106.3 30.1 L 102 30.1 L 102 12.5 Z M 126 18.8 C 125.95 18.75 126 30.1 126 30.1 L 121.7 30.1 C 121.7 30.1 121.7 19.14 121.7 19.1 C 121.7 17.2 120.6 16 118.6 16 C 116.2 16 114.7 17.7 114.7 20.6 C 114.69 20.61 114.7 30.1 114.7 30.1 L 110.4 30.1 L 110.4 12.5 L 114.7 12.5 C 114.7 12.5 114.66 15.04 114.7 15 C 115.6 13.4 117.1 12.2 120 12.2 C 124.1 12.2 126 14.5 126 18.8 Z M 138.9 30.1 L 134.4 30.1 L 127.9 12.5 L 132.4 12.5 L 136.7 25.1 L 141.1 12.5 L 145.5 12.5 L 138.9 30.1 Z M 150.2 22.6 C 150.3 25.5 152.4 26.8 154.8 26.8 C 156.4 26.8 158 26.1 158.6 24.5 C 158.6 24.5 162.5 24.5 162.5 24.5 C 161.7 28.4 158.2 30.5 154.6 30.5 C 150.3 30.5 146.1 27.6 146.1 21.4 C 146.1 15.3 150.1 12.2 154.6 12.2 C 158.9 12.2 162.5 15 162.5 20.9 C 162.53 20.86 162.5 22.6 162.5 22.6 C 162.5 22.6 150.24 22.59 150.2 22.6 Z M 150.3 19.5 C 150.3 19.5 158.4 19.5 158.4 19.5 C 158.4 17.2 156.7 15.8 154.6 15.8 C 152.6 15.8 150.7 16.9 150.3 19.5 Z M 175.6 16.4 C 175.6 16.4 174.43 16.42 174.4 16.4 C 171.5 16.4 169.8 18 169.8 21.5 C 169.82 21.5 169.8 30.1 169.8 30.1 L 165.6 30.1 L 165.6 12.5 L 169.8 12.5 C 169.8 12.5 169.79 15.01 169.8 15 C 170.7 13.1 172.3 12.3 174.4 12.3 C 174.4 12.29 175.6 12.3 175.6 12.3 L 175.6 16.4 Z M 191.7 24.7 C 191.7 28.6 188.2 30.5 184.3 30.5 C 180.6 30.5 176.6 29 176.4 24.5 C 176.4 24.5 180.6 24.5 180.6 24.5 C 180.9 26.3 182.5 27 184.5 27 C 186.3 27 187.6 26.4 187.6 25.1 C 187.6 24 186.7 23.7 184.3 23.3 C 180.8 22.7 176.9 22.1 176.9 17.8 C 176.9 13.8 180.3 12.2 183.9 12.2 C 188 12.2 191.1 14.2 191.3 18.1 C 191.3 18.1 187.2 18.1 187.2 18.1 C 187 16.4 185.8 15.7 184 15.7 C 181.9 15.7 181 16.6 181 17.7 C 181 19 182.6 19.3 184.7 19.6 C 187.9 20.1 191.7 20.5 191.7 24.7 Z M 210.8 21.3 C 210.8 27.1 207.1 30.5 202.1 30.5 C 197.2 30.5 193.5 27.1 193.5 21.3 C 193.5 15.6 197.2 12.2 202.1 12.2 C 207.1 12.2 210.8 15.6 210.8 21.3 Z M 197.9 21.3 C 197.9 24.9 199.8 26.6 202.2 26.6 C 204.7 26.6 206.4 24.6 206.4 21.3 C 206.4 17.8 204.4 16.1 202.1 16.1 C 199.5 16.1 197.9 18 197.9 21.3 Z M 223.8 16.4 C 223.8 16.4 222.65 16.42 222.7 16.4 C 219.7 16.4 218 18 218 21.5 C 218.05 21.5 218 30.1 218 30.1 L 213.8 30.1 L 213.8 12.5 L 218 12.5 C 218 12.5 218.01 15.01 218 15 C 218.9 13.1 220.5 12.3 222.6 12.3 C 222.62 12.29 223.8 12.3 223.8 12.3 L 223.8 16.4 Z M 235.9 22.6 C 236 25.5 238 26.8 240.4 26.8 C 242.1 26.8 243.7 26.1 244.2 24.5 C 244.2 24.5 248.1 24.5 248.1 24.5 C 247.4 28.4 243.9 30.5 240.3 30.5 C 236 30.5 231.8 27.6 231.8 21.4 C 231.8 15.3 235.8 12.2 240.3 12.2 C 244.6 12.2 248.2 15 248.2 20.9 C 248.19 20.86 248.2 22.6 248.2 22.6 C 248.2 22.6 235.9 22.59 235.9 22.6 Z M 236 19.5 C 236 19.5 244 19.5 244 19.5 C 244 17.2 242.4 15.8 240.2 15.8 C 238.3 15.8 236.4 16.9 236 19.5 Z M 266.7 18.8 C 266.75 18.75 266.7 30.1 266.7 30.1 L 262.5 30.1 C 262.5 30.1 262.49 19.14 262.5 19.1 C 262.5 17.2 261.4 16 259.4 16 C 257 16 255.5 17.7 255.5 20.6 C 255.49 20.61 255.5 30.1 255.5 30.1 L 251.2 30.1 L 251.2 12.5 L 255.5 12.5 C 255.5 12.5 255.45 15.04 255.5 15 C 256.4 13.4 257.9 12.2 260.8 12.2 C 264.9 12.2 266.7 14.5 266.7 18.8 Z M 294.8 30.1 L 290.7 30.1 C 290.7 30.1 290.69 27.65 290.7 27.6 C 289.7 29.3 288.1 30.3 285.6 30.3 C 281.9 30.3 279.2 28 279.2 23.5 C 279.23 23.46 279.2 12.5 279.2 12.5 L 283.5 12.5 C 283.5 12.5 283.49 23.14 283.5 23.1 C 283.5 25.5 284.7 26.6 286.5 26.6 C 288.9 26.6 290.6 25.1 290.6 21 C 290.59 21.02 290.6 12.5 290.6 12.5 L 294.8 12.5 L 294.8 30.1 Z M 314.5 18.8 C 314.52 18.75 314.5 30.1 314.5 30.1 L 310.3 30.1 C 310.3 30.1 310.27 19.14 310.3 19.1 C 310.3 17.2 309.1 16 307.2 16 C 304.7 16 303.3 17.7 303.3 20.6 C 303.26 20.61 303.3 30.1 303.3 30.1 L 299 30.1 L 299 12.5 L 303.2 12.5 C 303.2 12.5 303.23 15.04 303.2 15 C 304.2 13.4 305.7 12.2 308.6 12.2 C 312.6 12.2 314.5 14.5 314.5 18.8 Z M 329.5 22.6 C 329.6 25.5 331.7 26.8 334.1 26.8 C 335.7 26.8 337.3 26.1 337.9 24.5 C 337.9 24.5 341.8 24.5 341.8 24.5 C 341 28.4 337.5 30.5 333.9 30.5 C 329.6 30.5 325.4 27.6 325.4 21.4 C 325.4 15.3 329.4 12.2 333.9 12.2 C 338.2 12.2 341.8 15 341.8 20.9 C 341.82 20.86 341.8 22.6 341.8 22.6 C 341.8 22.6 329.53 22.59 329.5 22.6 Z M 329.6 19.5 C 329.6 19.5 337.7 19.5 337.7 19.5 C 337.7 17.2 336 15.8 333.9 15.8 C 331.9 15.8 330 16.9 329.6 19.5 Z M 360.4 18.8 C 360.38 18.75 360.4 30.1 360.4 30.1 L 356.1 30.1 C 356.1 30.1 356.12 19.14 356.1 19.1 C 356.1 17.2 355 16 353 16 C 350.6 16 349.1 17.7 349.1 20.6 C 349.12 20.61 349.1 30.1 349.1 30.1 L 344.9 30.1 L 344.9 12.5 L 349.1 12.5 C 349.1 12.5 349.08 15.04 349.1 15 C 350.1 13.4 351.5 12.2 354.5 12.2 C 358.5 12.2 360.4 14.5 360.4 18.8 Z M 373.4 30.1 C 373.4 30.1 370.62 30.14 370.6 30.1 C 367.3 30.1 365.2 29.1 365.2 24.4 C 365.21 24.38 365.2 16.3 365.2 16.3 L 362 16.3 L 362 12.5 L 365.2 12.5 L 365.2 8.5 L 369.5 7.3 L 369.5 12.5 L 373 12.5 L 373 16.3 L 369.5 16.3 C 369.5 16.3 369.47 24.58 369.5 24.6 C 369.5 25.6 369.8 26.4 371.3 26.4 C 371.26 26.37 373.4 26.4 373.4 26.4 L 373.4 30.1 Z M 391.9 21.3 C 391.9 27.1 388.3 30.5 383.3 30.5 C 378.4 30.5 374.7 27.1 374.7 21.3 C 374.7 15.6 378.4 12.2 383.3 12.2 C 388.3 12.2 391.9 15.6 391.9 21.3 Z M 379 21.3 C 379 24.9 381 26.6 383.4 26.6 C 385.9 26.6 387.6 24.6 387.6 21.3 C 387.6 17.8 385.6 16.1 383.3 16.1 C 380.7 16.1 379 18 379 21.3 Z M 405 16.4 C 405 16.4 403.84 16.42 403.8 16.4 C 400.9 16.4 399.2 18 399.2 21.5 C 399.23 21.5 399.2 30.1 399.2 30.1 L 395 30.1 L 395 12.5 L 399.2 12.5 C 399.2 12.5 399.2 15.01 399.2 15 C 400.1 13.1 401.7 12.3 403.8 12.3 C 403.8 12.29 405 12.3 405 12.3 L 405 16.4 Z M 422.6 18.8 C 422.56 18.75 422.6 30.1 422.6 30.1 L 418.3 30.1 C 418.3 30.1 418.3 19.14 418.3 19.1 C 418.3 17.2 417.2 16 415.2 16 C 412.8 16 411.3 17.7 411.3 20.6 C 411.29 20.61 411.3 30.1 411.3 30.1 L 407 30.1 L 407 12.5 L 411.3 12.5 C 411.3 12.5 411.26 15.04 411.3 15 C 412.3 13.4 413.7 12.2 416.6 12.2 C 420.7 12.2 422.6 14.5 422.6 18.8 Z M 442.7 21.3 C 442.7 27.1 439 30.5 434 30.5 C 429.1 30.5 425.4 27.1 425.4 21.3 C 425.4 15.6 429.1 12.2 434 12.2 C 439 12.2 442.7 15.6 442.7 21.3 Z M 429.8 21.3 C 429.8 24.9 431.7 26.6 434.1 26.6 C 436.6 26.6 438.3 24.6 438.3 21.3 C 438.3 17.8 436.4 16.1 434 16.1 C 431.5 16.1 429.8 18 429.8 21.3 Z M 460.5 30.5 C 454.7 30.5 452 26.1 452 21.3 C 452 16.6 454.7 12.2 460.5 12.2 C 464.9 12.2 468.2 14.7 468.3 18.8 C 468.3 18.8 464.2 18.8 464.2 18.8 C 463.9 17.2 462.7 16.1 460.6 16.1 C 457.5 16.1 456.3 18.6 456.3 21.3 C 456.3 24.2 457.6 26.6 460.6 26.6 C 462.7 26.6 463.9 25.4 464.2 23.9 C 464.2 23.9 468.4 23.9 468.4 23.9 C 467.9 28.2 464.8 30.5 460.5 30.5 Z M 487.6 21.3 C 487.6 27.1 483.9 30.5 479 30.5 C 474 30.5 470.4 27.1 470.4 21.3 C 470.4 15.6 474 12.2 479 12.2 C 483.9 12.2 487.6 15.6 487.6 21.3 Z M 474.7 21.3 C 474.7 24.9 476.7 26.6 479 26.6 C 481.6 26.6 483.3 24.6 483.3 21.3 C 483.3 17.8 481.3 16.1 478.9 16.1 C 476.4 16.1 474.7 18 474.7 21.3 Z M 515.6 18.2 C 515.58 18.24 515.6 30.1 515.6 30.1 L 511.3 30.1 C 511.3 30.1 511.32 19.07 511.3 19.1 C 511.3 17 510.3 16 508.6 16 C 506.6 16 505.2 17.2 505.2 20.2 C 505.24 20.22 505.2 30.1 505.2 30.1 L 501 30.1 C 501 30.1 500.99 19.07 501 19.1 C 501 17 499.9 16 498.2 16 C 496.2 16 494.9 17.3 494.9 20.2 C 494.91 20.19 494.9 30.1 494.9 30.1 L 490.7 30.1 L 490.7 12.5 L 494.8 12.5 C 494.8 12.5 494.84 15.07 494.8 15.1 C 495.4 13.7 496.7 12.2 499.4 12.2 C 501.7 12.2 503.5 13.2 504.3 15.1 C 505 13.8 506.2 12.2 509.4 12.2 C 513.2 12.2 515.6 14.4 515.6 18.2 Z M 535.7 21.3 C 535.7 27.1 532 30.5 527.1 30.5 C 522.1 30.5 518.5 27.1 518.5 21.3 C 518.5 15.6 522.1 12.2 527.1 12.2 C 532 12.2 535.7 15.6 535.7 21.3 Z M 522.8 21.3 C 522.8 24.9 524.8 26.6 527.1 26.6 C 529.7 26.6 531.4 24.6 531.4 21.3 C 531.4 17.8 529.4 16.1 527 16.1 C 524.5 16.1 522.8 18 522.8 21.3 Z M 551.6 9.3 L 556.5 1.7 L 559.8 4.3 L 555.2 9.3 L 551.6 9.3 Z M 549.1 22.6 C 549.2 25.5 551.3 26.8 553.7 26.8 C 555.3 26.8 556.9 26.1 557.4 24.5 C 557.4 24.5 561.3 24.5 561.3 24.5 C 560.6 28.4 557.1 30.5 553.5 30.5 C 549.2 30.5 545 27.6 545 21.4 C 545 15.3 549 12.2 553.5 12.2 C 557.8 12.2 561.4 15 561.4 20.9 C 561.4 20.86 561.4 22.6 561.4 22.6 C 561.4 22.6 549.12 22.59 549.1 22.6 Z M 549.2 19.5 C 549.2 19.5 557.2 19.5 557.2 19.5 C 557.2 17.2 555.6 15.8 553.4 15.8 C 551.5 15.8 549.6 16.9 549.2 19.5 Z M 578.6 24.7 C 578.6 28.6 575 30.5 571.1 30.5 C 567.4 30.5 563.5 29 563.2 24.5 C 563.2 24.5 567.5 24.5 567.5 24.5 C 567.7 26.3 569.3 27 571.3 27 C 573.1 27 574.4 26.4 574.4 25.1 C 574.4 24 573.5 23.7 571.1 23.3 C 567.6 22.7 563.7 22.1 563.7 17.8 C 563.7 13.8 567.1 12.2 570.7 12.2 C 574.8 12.2 577.9 14.2 578.1 18.1 C 578.1 18.1 574 18.1 574 18.1 C 573.8 16.4 572.6 15.7 570.8 15.7 C 568.7 15.7 567.8 16.6 567.8 17.7 C 567.8 19 569.4 19.3 571.5 19.6 C 574.7 20.1 578.6 20.5 578.6 24.7 Z M 590.5 30.1 C 590.5 30.1 587.67 30.14 587.7 30.1 C 584.4 30.1 582.3 29.1 582.3 24.4 C 582.27 24.38 582.3 16.3 582.3 16.3 L 579 16.3 L 579 12.5 L 582.3 12.5 L 582.3 8.5 L 586.5 7.3 L 586.5 12.5 L 590 12.5 L 590 16.3 L 586.5 16.3 C 586.5 16.3 586.52 24.58 586.5 24.6 C 586.5 25.6 586.8 26.4 588.3 26.4 C 588.32 26.37 590.5 26.4 590.5 26.4 L 590.5 30.1 Z M 595.9 22.6 C 596 25.5 598 26.8 600.4 26.8 C 602.1 26.8 603.7 26.1 604.2 24.5 C 604.2 24.5 608.1 24.5 608.1 24.5 C 607.3 28.4 603.8 30.5 600.2 30.5 C 596 30.5 591.7 27.6 591.7 21.4 C 591.7 15.3 595.7 12.2 600.3 12.2 C 604.5 12.2 608.2 15 608.2 20.9 C 608.15 20.86 608.2 22.6 608.2 22.6 C 608.2 22.6 595.87 22.59 595.9 22.6 Z M 596 19.5 C 596 19.5 604 19.5 604 19.5 C 604 17.2 602.4 15.8 600.2 15.8 C 598.2 15.8 596.3 16.9 596 19.5 Z M 613.5 29.9 C 613.47 29.86 611.3 29.9 611.3 29.9 L 611.3 25.4 L 616.2 25.4 C 616.2 25.4 616.19 29.25 616.2 29.2 C 616.2 33.9 613.1 35.5 610.2 35.8 C 610.2 35.8 609.8 33.5 609.8 33.5 C 612.1 33.3 613.5 31.9 613.5 29.9 Z M 642.5 12.5 L 642.5 36.7 L 638.2 36.7 C 638.2 36.7 638.23 27.52 638.2 27.5 C 637.2 29.2 635.4 30.3 633 30.3 C 628.9 30.3 625.1 27.4 625.1 21.2 C 625.1 15.1 628.7 12.2 632.8 12.2 C 635.2 12.2 637.3 13.2 638.3 15 C 638.33 14.98 638.3 12.5 638.3 12.5 L 642.5 12.5 Z M 638.4 21.2 C 638.4 17.5 636.2 15.9 633.9 15.9 C 631.6 15.9 629.5 17.6 629.5 21.2 C 629.5 24.7 631.6 26.4 633.9 26.4 C 636.2 26.4 638.4 24.8 638.4 21.2 Z M 661.9 30.1 L 657.8 30.1 C 657.8 30.1 657.79 27.65 657.8 27.6 C 656.8 29.3 655.2 30.3 652.7 30.3 C 649 30.3 646.3 28 646.3 23.5 C 646.33 23.46 646.3 12.5 646.3 12.5 L 650.6 12.5 C 650.6 12.5 650.59 23.14 650.6 23.1 C 650.6 25.5 651.8 26.6 653.6 26.6 C 656 26.6 657.7 25.1 657.7 21 C 657.69 21.02 657.7 12.5 657.7 12.5 L 661.9 12.5 L 661.9 30.1 Z M 665.9 10.1 L 670.5 10.1 L 670.5 5.3 L 665.9 5.3 L 665.9 10.1 Z M 666.1 12.5 L 670.3 12.5 L 670.3 30.1 L 666.1 30.1 L 666.1 12.5 Z M 677.5 22.6 C 677.6 25.5 679.6 26.8 682 26.8 C 683.7 26.8 685.3 26.1 685.8 24.5 C 685.8 24.5 689.7 24.5 689.7 24.5 C 688.9 28.4 685.4 30.5 681.8 30.5 C 677.6 30.5 673.3 27.6 673.3 21.4 C 673.3 15.3 677.3 12.2 681.8 12.2 C 686.1 12.2 689.8 15 689.8 20.9 C 689.75 20.86 689.8 22.6 689.8 22.6 C 689.8 22.6 677.47 22.59 677.5 22.6 Z M 677.6 19.5 C 677.6 19.5 685.6 19.5 685.6 19.5 C 685.6 17.2 684 15.8 681.8 15.8 C 679.8 15.8 677.9 16.9 677.6 19.5 Z M 702.8 16.4 C 702.8 16.4 701.66 16.42 701.7 16.4 C 698.7 16.4 697 18 697 21.5 C 697.05 21.5 697 30.1 697 30.1 L 692.8 30.1 L 692.8 12.5 L 697 12.5 C 697 12.5 697.02 15.01 697 15 C 697.9 13.1 699.5 12.3 701.6 12.3 C 701.63 12.29 702.8 12.3 702.8 12.3 L 702.8 16.4 Z M 707.5 22.6 C 707.6 25.5 709.7 26.8 712.1 26.8 C 713.8 26.8 715.4 26.1 715.9 24.5 C 715.9 24.5 719.8 24.5 719.8 24.5 C 719 28.4 715.5 30.5 711.9 30.5 C 707.6 30.5 703.4 27.6 703.4 21.4 C 703.4 15.3 707.4 12.2 711.9 12.2 C 716.2 12.2 719.8 15 719.8 20.9 C 719.83 20.86 719.8 22.6 719.8 22.6 C 719.8 22.6 707.55 22.59 707.5 22.6 Z M 707.6 19.5 C 707.6 19.5 715.7 19.5 715.7 19.5 C 715.7 17.2 714 15.8 711.9 15.8 C 709.9 15.8 708 16.9 707.6 19.5 Z M 745 18.3 C 744.99 18.27 745 30.1 745 30.1 L 740.8 30.1 C 740.8 30.1 740.83 27.58 740.8 27.6 C 739.4 29.8 737.3 30.5 735.5 30.5 C 732.7 30.5 729.8 28.9 729.8 25.1 C 729.8 22.3 731.3 20.4 735.4 19.8 C 735.4 19.8 739.2 19.2 739.2 19.2 C 740.2 19.1 741 18.7 741 17.6 C 741 16.1 739.7 15.5 738 15.5 C 735.7 15.5 734.7 16.6 734.6 18.1 C 734.6 18.1 730.5 18.1 730.5 18.1 C 730.9 14 734.2 12.2 738.2 12.2 C 742.4 12.2 745 14.1 745 18.3 Z M 740.9 22.7 C 740.9 22.7 740.9 21.8 740.9 21.8 C 740.4 22 739.6 22.2 738.8 22.3 C 738.8 22.3 736.9 22.6 736.9 22.6 C 734.7 22.8 734 23.7 734 24.9 C 734 26.2 735 27 736.5 27 C 738.7 27 740.9 25.3 740.9 22.7 Z " stroke="none" fill="#000"/>  </g></svg>