<?xml version="1.0" standalone="no"?><!DOCTYPE svg PUBLIC "-//W3C//DTD SVG 1.1//EN" "http://www.w3.org/Graphics/SVG/1.1/DTD/svg11.dtd"><svg xmlns="http://www.w3.org/2000/svg" version="1.1" width="373px" height="148.4px" viewBox="0 -4 373 148.4" style="top:-4px"><desc>Since spreads narrowed in high-yield and there was no wave of defaults, do these bonds offer attractive risk returns</desc><defs/><g id="Polygon11714"><path d="m7.9 86.4s-.72-.03-.7 0c-2 0-3 1-3 3.3c-.04.01 0 5.7 0 5.7H1.4V83.8h2.7s.04 1.65 0 1.6c.6-1.2 1.7-1.7 3.1-1.7c-.04-.04.7 0 .7 0v2.7zm3.1 4c.1 1.9 1.5 2.8 3 2.8c1.1 0 2.2-.4 2.5-1.5h2.6c-.5 2.6-2.8 3.9-5.2 3.9c-2.8 0-5.6-1.9-5.6-6c0-4 2.7-6 5.6-6c2.8 0 5.2 1.8 5.2 5.7c.01-.01 0 1.1 0 1.1c0 0-8.05.03-8.1 0zm.1-2h5.3c0-1.5-1.1-2.4-2.5-2.4c-1.3 0-2.5.7-2.8 2.4zm15.9 7s-1.8-.02-1.8 0c-2.2 0-3.5-.7-3.5-3.8c-.05 0 0-5.3 0-5.3h-2.2v-2.5h2.2v-2.6l2.7-.8v3.4h2.4v2.5h-2.4s.04 5.43 0 5.4c0 .7.2 1.2 1.2 1.2h1.4v2.5zm11.7 0H36s.01-1.66 0-1.7c-.7 1.1-1.7 1.8-3.3 1.8c-2.4 0-4.2-1.5-4.2-4.5v-7.2h2.8v7c0 1.6.8 2.2 2 2.2c1.5 0 2.7-.9 2.7-3.6c-.05 0 0-5.6 0-5.6h2.7v11.6zm9.3-9s-.71-.03-.7 0c-2 0-3 1-3 3.3c-.03.01 0 5.7 0 5.7h-2.8V83.8h2.7s.05 1.65 0 1.6c.6-1.2 1.7-1.7 3.1-1.7c-.03-.04.7 0 .7 0v2.7zm11.6 1.5c-.02.01 0 7.5 0 7.5h-2.8s-.02-7.24 0-7.2c0-1.3-.8-2.1-2.1-2.1c-1.5 0-2.5 1.1-2.5 3c-.02.02 0 6.3 0 6.3h-2.8V83.8h2.8s-.04 1.67 0 1.7c.6-1.1 1.6-1.9 3.5-1.9c2.6 0 3.9 1.5 3.9 4.3zm11.9 3.9c0 2.6-2.3 3.8-5 3.8c-2.3 0-4.9-1-5.1-3.9h2.8c.2 1.1 1.2 1.6 2.5 1.6c1.2 0 2-.4 2-1.2c0-.8-.5-.9-2.1-1.2c-2.3-.4-4.9-.8-4.9-3.6c0-2.6 2.2-3.7 4.6-3.7c2.7 0 4.7 1.3 4.9 3.9h-2.7c-.1-1.1-1-1.6-2.1-1.6c-1.4 0-2 .6-2 1.3c0 .9 1.1 1.1 2.5 1.3c2 .3 4.6.6 4.6 3.3zm16.4-4.2c-.04-.01 0 7.8 0 7.8h-2.8s.03-1.7 0-1.7c-.9 1.5-2.3 1.9-3.5 1.9c-1.8 0-3.7-1.1-3.7-3.6c0-1.8 1-3 3.7-3.4l2.5-.4c.7-.1 1.1-.3 1.1-1c0-1-.8-1.4-1.9-1.4c-1.5 0-2.2.7-2.3 1.7h-2.7c.3-2.7 2.5-3.9 5.1-3.9c2.7 0 4.5 1.3 4.5 4zm-2.7 2.9v-.6c-.3.1-.8.3-1.4.3l-1.3.2c-1.4.2-1.8.8-1.8 1.5c0 .9.6 1.4 1.6 1.4c1.4 0 2.9-1.1 2.9-2.8zm11.1 4.9s-1.82-.02-1.8 0c-2.2 0-3.6-.7-3.6-3.8c.03 0 0-5.3 0-5.3h-2.1v-2.5h2.1v-2.6l2.8-.8v3.4h2.3v2.5h-2.3s.02 5.43 0 5.4c0 .7.2 1.2 1.2 1.2h1.4v2.5zm11.5.2c-3.8 0-5.6-2.9-5.6-6c0-3.1 1.8-6 5.6-6c2.8 0 5 1.6 5.1 4.4h-2.7c-.2-1.1-1-1.9-2.3-1.9c-2.1 0-2.9 1.7-2.9 3.5c0 1.9.9 3.4 2.9 3.4c1.3 0 2.1-.7 2.3-1.7h2.8c-.4 2.8-2.4 4.3-5.2 4.3zm17.3-.2h-2.7s.01-1.66 0-1.7c-.7 1.1-1.7 1.8-3.3 1.8c-2.4 0-4.2-1.5-4.2-4.5c-.01-.01 0-7.2 0-7.2h2.8s-.02 6.98 0 7c0 1.6.8 2.2 2 2.2c1.5 0 2.6-.9 2.6-3.6c.04 0 0-5.6 0-5.6h2.8v11.6zm9.3-9s-.72-.03-.7 0c-2 0-3 1-3 3.3c-.04.01 0 5.7 0 5.7h-2.8V83.8h2.7s.04 1.65 0 1.6c.6-1.2 1.7-1.7 3.1-1.7c-.04-.04.7 0 .7 0v2.7zm7.9 0s-.7-.03-.7 0c-2 0-3 1-3 3.3c-.02.01 0 5.7 0 5.7h-2.8V83.8h2.8s-.04 1.65 0 1.6c.5-1.2 1.6-1.7 3-1.7c-.02-.04.7 0 .7 0v2.7zm3.2 4c0 1.9 1.4 2.8 2.9 2.8c1.1 0 2.2-.4 2.5-1.5h2.6c-.5 2.6-2.8 3.9-5.2 3.9c-2.8 0-5.5-1.9-5.5-6c0-4 2.6-6 5.5-6c2.9 0 5.2 1.8 5.2 5.7c.03-.01 0 1.1 0 1.1c0 0-8.03.03-8 0zm0-2h5.3c0-1.5-1.1-2.4-2.5-2.4c-1.3 0-2.5.7-2.8 2.4zm20.2-.5v7.5h-2.8s.02-7.24 0-7.2c0-1.3-.7-2.1-2-2.1c-1.6 0-2.6 1.1-2.6 3c.02.02 0 6.3 0 6.3h-2.8V83.8h2.8v1.7c.6-1.1 1.6-1.9 3.5-1.9c2.7 0 3.9 1.5 3.9 4.3zm8.6 7.5s-1.87-.02-1.9 0c-2.1 0-3.5-.7-3.5-3.8c-.02 0 0-5.3 0-5.3h-2.1v-2.5h2.1v-2.6l2.8-.8v3.4h2.3v2.5h-2.3s-.03 5.43 0 5.4c0 .7.2 1.2 1.1 1.2h1.5v2.5zm15.8-3.6c0 2.6-2.3 3.8-4.9 3.8c-2.4 0-5-1-5.2-3.9h2.8c.2 1.1 1.3 1.6 2.6 1.6c1.1 0 2-.4 2-1.2c0-.8-.6-.9-2.2-1.2c-2.2-.4-4.8-.8-4.8-3.6c0-2.6 2.2-3.7 4.6-3.7c2.7 0 4.7 1.3 4.9 3.9h-2.8c-.1-1.1-.9-1.6-2.1-1.6c-1.4 0-1.9.6-1.9 1.3c0 .9 1 1.1 2.4 1.3c2.1.3 4.6.6 4.6 3.3zm13.3-2.4c0 4.2-2.6 6.1-5.3 6.1c-1.6 0-2.6-.7-3.3-1.5c.02 0 0 5.7 0 5.7H192V83.8h2.8s-.05 1.84 0 1.8c.5-1.2 1.9-2 3.6-2c2.7 0 5 1.9 5 5.8zm-2.8.2c0-2.4-1.4-3.5-2.9-3.5c-1.5 0-3 1.1-3 3.5c0 2.3 1.5 3.4 3 3.4c1.5 0 2.9-1.1 2.9-3.4zm11.4-3.2s-.78-.03-.8 0c-1.9 0-3 1-3 3.3v5.7h-2.8V83.8h2.8s-.03 1.65 0 1.6c.6-1.2 1.6-1.7 3-1.7c0-.04.8 0 .8 0v2.7zm3.1 4c0 1.9 1.4 2.8 3 2.8c1.1 0 2.1-.4 2.4-1.5h2.6c-.5 2.6-2.8 3.9-5.2 3.9c-2.8 0-5.5-1.9-5.5-6c0-4 2.6-6 5.6-6c2.8 0 5.1 1.8 5.1 5.7c.04-.01 0 1.1 0 1.1c0 0-8.02.03-8 0zm0-2h5.3c0-1.5-1.1-2.4-2.5-2.4c-1.3 0-2.5.7-2.8 2.4zm19.3-.8v7.8h-2.7s-.03-1.7 0-1.7c-.9 1.5-2.3 1.9-3.5 1.9c-1.9 0-3.8-1.1-3.8-3.6c0-1.8 1-3 3.7-3.4l2.5-.4c.7-.1 1.2-.3 1.2-1c0-1-.9-1.4-2-1.4c-1.5 0-2.1.7-2.2 1.7h-2.7c.3-2.7 2.4-3.9 5-3.9c2.8 0 4.5 1.3 4.5 4zm-2.7 2.9v-.6c-.3.1-.8.3-1.4.3l-1.2.2c-1.4.2-1.9.8-1.9 1.5c0 .9.6 1.4 1.6 1.4c1.5 0 2.9-1.1 2.9-2.8zm15.9 4.9h-2.8s.04-1.8 0-1.8c-.6 1.3-1.9 2-3.5 2c-2.7 0-5.1-2-5.1-6c0-4 2.4-6 5.1-6c1.5 0 2.8.6 3.5 1.7c-.03.02 0-5.9 0-5.9h2.8v16zm-2.7-5.8c0-2.4-1.5-3.5-3-3.5c-1.5 0-2.9 1.1-2.9 3.5c0 2.3 1.4 3.5 2.9 3.5c1.5 0 3-1.2 3-3.5zm13.9 5.8H256v-16h2.8v16zm4.7-5c0 1.9 1.4 2.8 2.9 2.8c1.1 0 2.2-.4 2.5-1.5h2.6c-.5 2.6-2.8 3.9-5.2 3.9c-2.8 0-5.5-1.9-5.5-6c0-4 2.6-6 5.5-6c2.9 0 5.2 1.8 5.2 5.7c.03-.01 0 1.1 0 1.1c0 0-8.04.03-8 0zm0-2h5.3c0-1.5-1.1-2.4-2.5-2.4c-1.3 0-2.5.7-2.8 2.4zm15.9 7h-3l-4.2-11.6h2.9l2.9 8.3l2.8-8.3h2.9l-4.3 11.6zm7.4-5c.1 1.9 1.4 2.8 3 2.8c1.1 0 2.2-.4 2.5-1.5h2.6c-.5 2.6-2.8 3.9-5.2 3.9c-2.8 0-5.6-1.9-5.6-6c0-4 2.7-6 5.6-6c2.8 0 5.2 1.8 5.2 5.7v1.1s-8.06.03-8.1 0zm.1-2h5.3c0-1.5-1.1-2.4-2.5-2.4c-1.3 0-2.5.7-2.8 2.4zm12.8 7h-2.8v-16h2.8v16zm12-3.6c0 2.6-2.3 3.8-4.9 3.8c-2.4 0-5-1-5.2-3.9h2.8c.2 1.1 1.2 1.6 2.5 1.6c1.2 0 2-.4 2-1.2c0-.8-.5-.9-2.1-1.2c-2.3-.4-4.9-.8-4.9-3.6c0-2.6 2.2-3.7 4.6-3.7c2.7 0 4.7 1.3 4.9 3.9h-2.7c-.1-1.1-.9-1.6-2.1-1.6c-1.4 0-2 .6-2 1.3c0 .9 1.1 1.1 2.5 1.3c2.1.3 4.6.6 4.6 3.3zm4.6-2c0-2.7 1.4-3.2 2.6-4.1c1.1-.7 1.5-1.3 1.5-2.1c0-1.2-.8-1.8-2.1-1.8c-1.4 0-2.3.8-2.4 2.2H313c.3-3.4 2.8-4.6 5.4-4.6c2.7 0 4.9 1.3 4.9 4.1c0 2.2-1.3 3.1-2.7 4.1c-1.1.8-1.6 1.3-1.6 2.2v.7h-2.7s.04-.75 0-.7zm-.2 2.3h3.2v3.3h-3.2v-3.3z" stroke="none" fill="#000"/></g><g id="Polygon11713"><path d="m12 70.2H9.3s-.02-1.8 0-1.8c-.6 1.3-2 2-3.6 2c-2.7 0-5.1-2-5.1-6c0-4 2.4-6 5.1-6c1.5 0 2.8.6 3.5 1.7c.02.02 0-5.9 0-5.9h2.8v16zm-2.7-5.8c0-2.4-1.4-3.5-2.9-3.5c-1.5 0-2.9 1.1-2.9 3.5c0 2.3 1.4 3.5 2.9 3.5c1.5 0 2.9-1.2 2.9-3.5zm16 0c0 3.8-2.4 6-5.6 6c-3.3 0-5.7-2.2-5.7-6c0-3.8 2.4-6 5.7-6c3.2 0 5.6 2.2 5.6 6zm-8.4 0c0 2.3 1.2 3.4 2.8 3.4c1.7 0 2.8-1.2 2.8-3.4c0-2.3-1.3-3.4-2.9-3.4c-1.6 0-2.7 1.2-2.7 3.4zm21.4 5.8s-1.84-.02-1.8 0c-2.2 0-3.6-.7-3.6-3.8v-5.3h-2.1v-2.5h2.1V56l2.8-.8v3.4h2.3v2.5h-2.3v5.4c0 .7.2 1.2 1.2 1.2h1.4v2.5zM50 62.7c.04.01 0 7.5 0 7.5h-2.8s.05-7.24 0-7.2c0-1.3-.7-2.1-2-2.1c-1.6 0-2.5 1.1-2.5 3c-.05.02 0 6.3 0 6.3h-2.8v-16h2.8s-.05 6.03 0 6c.6-1.1 1.6-1.8 3.5-1.8c2.6 0 3.8 1.5 3.8 4.3zm4.6 2.5c.1 1.9 1.4 2.8 3 2.8c1.1 0 2.2-.4 2.5-1.5h2.6c-.5 2.6-2.8 3.9-5.2 3.9c-2.8 0-5.6-1.9-5.6-6c0-4 2.7-6 5.6-6c2.8 0 5.2 1.8 5.2 5.7c.01-.01 0 1.1 0 1.1c0 0-8.06.03-8.1 0zm.1-2h5.3c0-1.5-1.1-2.4-2.5-2.4c-1.3 0-2.5.7-2.8 2.4zM74 66.6c0 2.6-2.3 3.8-5 3.8c-2.3 0-5-1-5.1-3.9h2.8c.2 1.1 1.2 1.6 2.5 1.6c1.2 0 2-.4 2-1.2c0-.8-.5-.9-2.1-1.2c-2.3-.4-4.9-.8-4.9-3.6c0-2.6 2.2-3.7 4.6-3.7c2.7 0 4.7 1.3 4.9 3.9H71c-.1-1.1-1-1.6-2.1-1.6c-1.4 0-2 .6-2 1.3c0 .9 1.1 1.1 2.5 1.3c2 .3 4.6.6 4.6 3.3zm3.8-1.4c.1 1.9 1.4 2.8 3 2.8c1.1 0 2.1-.4 2.5-1.5h2.5c-.5 2.6-2.7 3.9-5.1 3.9c-2.8 0-5.6-1.9-5.6-6c0-4 2.6-6 5.6-6c2.8 0 5.2 1.8 5.2 5.7c-.01-.01 0 1.1 0 1.1c0 0-8.07.03-8.1 0zm.1-2h5.3c0-1.5-1.1-2.4-2.5-2.4c-1.3 0-2.6.7-2.8 2.4zm26.6 1.2c0 4.1-2.5 6-5.2 6c-1.5 0-2.7-.5-3.4-1.6c-.04 0 0 1.4 0 1.4h-2.8v-16h2.8s.03 6.09 0 6.1c.7-1.2 2-1.9 3.6-1.9c2.7 0 5 2 5 6zm-2.8 0c0-2.3-1.4-3.5-2.9-3.5c-1.5 0-3 1.2-3 3.5c0 2.4 1.5 3.6 3 3.6c1.5 0 2.9-1.2 2.9-3.6zm15.4 0c0 3.8-2.4 6-5.7 6c-3.2 0-5.6-2.2-5.6-6c0-3.8 2.4-6 5.6-6c3.3 0 5.7 2.2 5.7 6zm-8.5 0c0 2.3 1.3 3.4 2.9 3.4c1.6 0 2.7-1.2 2.7-3.4c0-2.3-1.2-3.4-2.8-3.4c-1.7 0-2.8 1.2-2.8 3.4zm20.7-1.7c-.02.01 0 7.5 0 7.5h-2.8s-.02-7.24 0-7.2c0-1.3-.8-2.1-2.1-2.1c-1.6 0-2.5 1.1-2.5 3c-.02.02 0 6.3 0 6.3h-2.8V58.6h2.8s-.04 1.67 0 1.7c.6-1.1 1.6-1.9 3.5-1.9c2.6 0 3.9 1.5 3.9 4.3zm13.2 7.5h-2.7s.02-1.8 0-1.8c-.6 1.3-2 2-3.6 2c-2.7 0-5-2-5-6c0-4 2.3-6 5-6c1.6 0 2.9.6 3.6 1.7c-.05.02 0-5.9 0-5.9h2.7v16zm-2.7-5.8c0-2.4-1.4-3.5-2.9-3.5c-1.5 0-2.9 1.1-2.9 3.5c0 2.3 1.4 3.5 2.9 3.5c1.5 0 2.9-1.2 2.9-3.5zm14.7 2.2c0 2.6-2.3 3.8-4.9 3.8c-2.4 0-5-1-5.2-3.9h2.9c.1 1.1 1.2 1.6 2.5 1.6c1.1 0 2-.4 2-1.2c0-.8-.6-.9-2.2-1.2c-2.2-.4-4.8-.8-4.8-3.6c0-2.6 2.2-3.7 4.6-3.7c2.7 0 4.7 1.3 4.9 3.9h-2.8c-.1-1.1-.9-1.6-2.1-1.6c-1.4 0-1.9.6-1.9 1.3c0 .9 1 1.1 2.4 1.3c2.1.3 4.6.6 4.6 3.3zm17.3-2.2c0 3.8-2.4 6-5.6 6c-3.3 0-5.7-2.2-5.7-6c0-3.8 2.4-6 5.7-6c3.2 0 5.6 2.2 5.6 6zm-8.4 0c0 2.3 1.3 3.4 2.8 3.4c1.7 0 2.8-1.2 2.8-3.4c0-2.3-1.3-3.4-2.8-3.4c-1.7 0-2.8 1.2-2.8 3.4zm20.8-6.6v.8h2.2v2.5h-2.2v9.1h-2.8v-9.1H177v9.1h-2.8v-9.1h-1.7v-2.5h1.7v-.6c0-3.1 1.4-3.8 3.5-3.8c.04-.02 1.7 0 1.7 0v2.5s-1.24-.04-1.2 0c-1 0-1.2.4-1.2 1.1v.8h4.4s.02-.64 0-.6c0-3.1 1.4-3.8 3.6-3.8c-.03-.02 1.6 0 1.6 0v2.5s-1.21-.04-1.2 0c-1 0-1.2.4-1.2 1.1zm5.6 7.4c0 1.9 1.4 2.8 3 2.8c1 0 2.1-.4 2.4-1.5h2.6c-.5 2.6-2.8 3.9-5.2 3.9c-2.8 0-5.5-1.9-5.5-6c0-4 2.6-6 5.6-6c2.8 0 5.1 1.8 5.1 5.7c.04-.01 0 1.1 0 1.1c0 0-8.02.03-8 0zm0-2h5.3c0-1.5-1.1-2.4-2.5-2.4c-1.3 0-2.5.7-2.8 2.4zm16.6-2s-.75-.03-.7 0c-2 0-3.1 1-3.1 3.3c.03.01 0 5.7 0 5.7h-2.8V58.6h2.8v1.6c.6-1.2 1.7-1.7 3-1.7c.03-.04.8 0 .8 0v2.7zm15.7 1.2c-.05-.01 0 7.8 0 7.8h-2.8s.02-1.7 0-1.7c-.9 1.5-2.3 1.9-3.5 1.9c-1.8 0-3.7-1.1-3.7-3.6c0-1.8 1-3 3.7-3.4l2.5-.4c.6-.1 1.1-.3 1.1-1c0-1-.8-1.4-1.9-1.4c-1.5 0-2.2.7-2.3 1.7h-2.7c.3-2.7 2.5-3.9 5.1-3.9c2.7 0 4.5 1.3 4.5 4zm-2.8 2.9v-.6c-.2.1-.8.3-1.3.3l-1.3.2c-1.4.2-1.9.8-1.9 1.5c0 .9.7 1.4 1.7 1.4c1.4 0 2.8-1.1 2.8-2.8zm18.2 4.9s-1.82-.02-1.8 0c-2.2 0-3.6-.7-3.6-3.8c.03 0 0-5.3 0-5.3h-4.2v5.4c0 .7.2 1.2 1.2 1.2h1.4v2.5s-1.83-.02-1.8 0c-2.2 0-3.6-.7-3.6-3.8c.02 0 0-5.3 0-5.3H223v-2.5h2.1V56l2.8-.8v3.4h4.2V56l2.8-.8v3.4h2.3v2.5h-2.3s.03 5.43 0 5.4c0 .7.2 1.2 1.2 1.2h1.4v2.5zm8.1-9s-.7-.03-.7 0c-2 0-3 1-3 3.3c-.02.01 0 5.7 0 5.7h-2.8V58.6h2.8s-.05 1.65 0 1.6c.5-1.2 1.6-1.7 3-1.7c-.02-.04.7 0 .7 0v2.7zm10.7 1.2c-.04-.01 0 7.8 0 7.8h-2.8s.03-1.7 0-1.7c-.9 1.5-2.3 1.9-3.5 1.9c-1.8 0-3.7-1.1-3.7-3.6c0-1.8 1-3 3.7-3.4l2.5-.4c.7-.1 1.1-.3 1.1-1c0-1-.8-1.4-1.9-1.4c-1.5 0-2.2.7-2.3 1.7h-2.7c.3-2.7 2.5-3.9 5.1-3.9c2.7 0 4.5 1.3 4.5 4zm-2.7 2.9v-.6c-.3.1-.8.3-1.4.3l-1.3.2c-1.4.2-1.8.8-1.8 1.5c0 .9.6 1.4 1.6 1.4c1.4 0 2.9-1.1 2.9-2.8zm10.1 5.1c-3.8 0-5.7-2.9-5.7-6c0-3.1 1.9-6 5.7-6c2.8 0 5 1.6 5.1 4.4H266c-.1-1.1-.9-1.9-2.3-1.9c-2 0-2.8 1.7-2.8 3.5c0 1.9.8 3.4 2.8 3.4c1.4 0 2.2-.7 2.4-1.7h2.7c-.3 2.8-2.3 4.3-5.1 4.3zm13.1-.2s-1.85-.02-1.8 0c-2.2 0-3.6-.7-3.6-3.8v-5.3h-2.1v-2.5h2.1V56l2.8-.8v3.4h2.3v2.5h-2.3v5.4c0 .7.2 1.2 1.2 1.2h1.4v2.5zm1.4-13.1h3v-3.2h-3v3.2zm.1 1.5h2.8v11.6h-2.8V58.6zm11.4 11.6h-2.9l-4.3-11.6h2.9l2.9 8.3l2.8-8.3h2.9l-4.3 11.6zm7.4-5c.1 1.9 1.5 2.8 3 2.8c1.1 0 2.2-.4 2.5-1.5h2.6c-.5 2.6-2.8 3.9-5.2 3.9c-2.8 0-5.6-1.9-5.6-6c0-4 2.7-6 5.6-6c2.8 0 5.2 1.8 5.2 5.7c.01-.01 0 1.1 0 1.1c0 0-8.05.03-8.1 0zm.1-2h5.3c0-1.5-1.1-2.4-2.5-2.4c-1.3 0-2.5.7-2.8 2.4zm21.8-2s-.73-.03-.7 0c-2 0-3.1 1-3.1 3.3c.05.01 0 5.7 0 5.7h-2.7V58.6h2.7s.03 1.65 0 1.6c.6-1.2 1.7-1.7 3.1-1.7c-.05-.04.7 0 .7 0v2.7zm1.3-4.1h2.9v-3.2h-2.9v3.2zm.1 1.5h2.7v11.6h-2.7V58.6zm14.7 8c0 2.6-2.3 3.8-4.9 3.8c-2.4 0-5-1-5.2-3.9h2.8c.2 1.1 1.2 1.6 2.5 1.6c1.2 0 2.1-.4 2.1-1.2c0-.8-.6-.9-2.2-1.2c-2.2-.4-4.8-.8-4.8-3.6c0-2.6 2.2-3.7 4.6-3.7c2.7 0 4.7 1.3 4.8 3.9h-2.7c-.1-1.1-.9-1.6-2.1-1.6c-1.4 0-1.9.6-1.9 1.3c0 .9 1 1.1 2.4 1.3c2.1.3 4.6.6 4.6 3.3zm6-.9l-1.3 1.4v3.1H337v-16h2.8v9.1l4.1-4.7h3.7l-4.6 5l4.8 6.6h-3.5l-3.2-4.5zM357 52.8h-2.1L348 72.1h2l7-19.3z" stroke="none" fill="#000"/></g><g id="Polygon11712"><path d="m10.6 37.2c.03-.01 0 7.8 0 7.8H7.9v-1.7c-.9 1.5-2.3 1.9-3.5 1.9c-1.9 0-3.8-1.1-3.8-3.6c0-1.8 1.1-3 3.7-3.4l2.5-.4c.7-.1 1.2-.3 1.2-1c0-1-.8-1.4-2-1.4c-1.4 0-2.1.7-2.2 1.7H1.1c.3-2.7 2.4-3.9 5.1-3.9c2.7 0 4.4 1.3 4.4 4zm-2.7 2.9v-.6c-.3.1-.8.3-1.3.3l-1.3.2c-1.4.2-1.9.8-1.9 1.5c0 .9.7 1.4 1.6 1.4c1.5 0 2.9-1.1 2.9-2.8zm15.4-2.6c.03.01 0 7.5 0 7.5h-2.8s.04-7.24 0-7.2c0-1.3-.7-2.1-2-2.1c-1.6 0-2.6 1.1-2.6 3c.04.02 0 6.3 0 6.3h-2.8V33.4h2.8s.02 1.67 0 1.7c.7-1.1 1.6-1.9 3.5-1.9c2.7 0 3.9 1.5 3.9 4.3zM36.6 45h-2.7s-.03-1.8 0-1.8c-.7 1.3-2 2-3.6 2c-2.7 0-5.1-2-5.1-6c0-4 2.4-6 5.1-6c1.5 0 2.8.6 3.5 1.7V29h2.8v16zm-2.7-5.8c0-2.4-1.4-3.5-2.9-3.5c-1.6 0-2.9 1.1-2.9 3.5c0 2.3 1.3 3.5 2.9 3.5c1.5 0 2.9-1.2 2.9-3.5zM50.7 45s-1.81-.02-1.8 0c-2.2 0-3.6-.7-3.6-3.8c.04 0 0-5.3 0-5.3h-2.1v-2.5h2.1v-2.6l2.8-.8v3.4h2.3v2.5h-2.3s.03 5.43 0 5.4c0 .7.2 1.2 1.2 1.2h1.4v2.5zm11.8-7.5c-.03.01 0 7.5 0 7.5h-2.8s-.02-7.24 0-7.2c0-1.3-.8-2.1-2.1-2.1c-1.6 0-2.5 1.1-2.5 3c-.02.02 0 6.3 0 6.3h-2.8v-16h2.8s-.02 6.03 0 6c.7-1.1 1.6-1.8 3.5-1.8c2.6 0 3.9 1.5 3.9 4.3zm4.6 2.5c0 1.9 1.4 2.8 3 2.8c1 0 2.1-.4 2.4-1.5h2.6c-.5 2.6-2.8 3.9-5.2 3.9c-2.8 0-5.5-1.9-5.5-6c0-4 2.6-6 5.5-6c2.9 0 5.2 1.8 5.2 5.7c.04-.01 0 1.1 0 1.1c0 0-8.03.03-8 0zm0-2h5.3c0-1.5-1.1-2.4-2.5-2.4c-1.3 0-2.5.7-2.8 2.4zm16.6-2s-.75-.03-.8 0c-1.9 0-3 1-3 3.3c.02.01 0 5.7 0 5.7h-2.8V33.4h2.8v1.6c.6-1.2 1.7-1.7 3-1.7c.03-.04.8 0 .8 0v2.7zm3.1 4c.1 1.9 1.4 2.8 3 2.8c1.1 0 2.1-.4 2.5-1.5h2.5c-.5 2.6-2.8 3.9-5.1 3.9c-2.8 0-5.6-1.9-5.6-6c0-4 2.6-6 5.6-6c2.8 0 5.2 1.8 5.2 5.7c-.02-.01 0 1.1 0 1.1c0 0-8.09.03-8.1 0zm.1-2h5.2c0-1.5-1-2.4-2.5-2.4c-1.2 0-2.5.7-2.7 2.4zm27.5 7h-2.7l-2.4-7.4L107 45h-2.7l-3.9-11.6h3l2.3 7.7l2.3-7.7h2.8l2.3 7.7l2.3-7.7h2.9L114.4 45zm14.4-7.8c-.03-.01 0 7.8 0 7.8H126s.04-1.7 0-1.7c-.9 1.5-2.2 1.9-3.5 1.9c-1.8 0-3.7-1.1-3.7-3.6c0-1.8 1-3 3.7-3.4l2.5-.4c.7-.1 1.1-.3 1.1-1c0-1-.8-1.4-1.9-1.4c-1.5 0-2.2.7-2.3 1.7h-2.7c.3-2.7 2.5-3.9 5.1-3.9c2.7 0 4.5 1.3 4.5 4zm-2.7 2.9v-.6c-.3.1-.8.3-1.4.3l-1.3.2c-1.4.2-1.8.8-1.8 1.5c0 .9.6 1.4 1.6 1.4c1.4 0 2.9-1.1 2.9-2.8zm14.5 1.3c0 2.6-2.4 3.8-5 3.8c-2.4 0-5-1-5.1-3.9h2.8c.2 1.1 1.2 1.6 2.5 1.6c1.2 0 2-.4 2-1.2c0-.8-.5-.9-2.1-1.2c-2.3-.4-4.9-.8-4.9-3.6c0-2.6 2.2-3.7 4.6-3.7c2.7 0 4.7 1.3 4.9 3.9h-2.8c-.1-1.1-.9-1.6-2.1-1.6c-1.3 0-1.9.6-1.9 1.3c0 .9 1 1.1 2.5 1.3c2 .3 4.6.6 4.6 3.3zm17.3-3.9c-.02.01 0 7.5 0 7.5h-2.8s-.02-7.24 0-7.2c0-1.3-.8-2.1-2.1-2.1c-1.5 0-2.5 1.1-2.5 3c-.02.02 0 6.3 0 6.3h-2.8V33.4h2.8s-.04 1.67 0 1.7c.6-1.1 1.6-1.9 3.5-1.9c2.6 0 3.9 1.5 3.9 4.3zm13.2 1.7c0 3.8-2.4 6-5.7 6c-3.2 0-5.6-2.2-5.6-6c0-3.8 2.4-6 5.6-6c3.3 0 5.7 2.2 5.7 6zm-8.5 0c0 2.3 1.3 3.4 2.9 3.4c1.6 0 2.7-1.2 2.7-3.4c0-2.3-1.3-3.4-2.8-3.4c-1.7 0-2.8 1.2-2.8 3.4zm28 5.8h-2.7l-2.3-7.4l-2.4 7.4h-2.7l-3.8-11.6h2.9l2.3 7.7l2.4-7.7h2.7l2.3 7.7l2.3-7.7h2.9L190.6 45zm14.4-7.8c-.02-.01 0 7.8 0 7.8h-2.8s.05-1.7 0-1.7c-.9 1.5-2.2 1.9-3.5 1.9c-1.8 0-3.7-1.1-3.7-3.6c0-1.8 1-3 3.7-3.4l2.5-.4c.7-.1 1.2-.3 1.2-1c0-1-.9-1.4-2-1.4c-1.5 0-2.2.7-2.3 1.7h-2.7c.3-2.7 2.5-3.9 5.1-3.9c2.8 0 4.5 1.3 4.5 4zm-2.7 2.9v-.6c-.3.1-.8.3-1.4.3l-1.3.2c-1.4.2-1.8.8-1.8 1.5c0 .9.6 1.4 1.6 1.4c1.4 0 2.9-1.1 2.9-2.8zm11.1 4.9h-3l-4.3-11.6h3l2.8 8.3l2.9-8.3h2.9L213.4 45zm7.4-5c.1 1.9 1.4 2.8 3 2.8c1.1 0 2.1-.4 2.5-1.5h2.5c-.5 2.6-2.8 3.9-5.1 3.9c-2.8 0-5.6-1.9-5.6-6c0-4 2.6-6 5.6-6c2.8 0 5.2 1.8 5.2 5.7c-.02-.01 0 1.1 0 1.1c0 0-8.09.03-8.1 0zm.1-2h5.2c0-1.5-1-2.4-2.5-2.4c-1.2 0-2.5.7-2.7 2.4zm25.4 1.2c0 3.8-2.4 6-5.7 6c-3.2 0-5.6-2.2-5.6-6c0-3.8 2.4-6 5.6-6c3.3 0 5.7 2.2 5.7 6zm-8.5 0c0 2.3 1.3 3.4 2.9 3.4c1.6 0 2.7-1.2 2.7-3.4c0-2.3-1.3-3.4-2.8-3.4c-1.7 0-2.8 1.2-2.8 3.4zm14.8-7.7c-1 0-1.2.4-1.2 1.1c.03.03 0 .8 0 .8h2.2v2.5h-2.2v9.1h-2.8v-9.1h-1.7v-2.5h1.7s.04-.64 0-.6c0-3.1 1.4-3.8 3.6-3.8c-.01-.02 1.7 0 1.7 0v2.5s-1.29-.04-1.3 0zM270.7 45H268s-.02-1.8 0-1.8c-.7 1.3-2 2-3.6 2c-2.7 0-5.1-2-5.1-6c0-4 2.4-6 5.1-6c1.5 0 2.8.6 3.5 1.7c.02.02 0-5.9 0-5.9h2.8v16zm-2.7-5.8c0-2.4-1.4-3.5-2.9-3.5c-1.6 0-2.9 1.1-2.9 3.5c0 2.3 1.3 3.5 2.9 3.5c1.5 0 2.9-1.2 2.9-3.5zm7.4.8c.1 1.9 1.4 2.8 3 2.8c1.1 0 2.1-.4 2.5-1.5h2.5c-.5 2.6-2.8 3.9-5.1 3.9c-2.8 0-5.6-1.9-5.6-6c0-4 2.6-6 5.6-6c2.8 0 5.2 1.8 5.2 5.7c-.02-.01 0 1.1 0 1.1c0 0-8.09.03-8.1 0zm.1-2h5.2c0-1.5-1-2.4-2.5-2.4c-1.2 0-2.5.7-2.7 2.4zm14.3-6.5c-1 0-1.2.4-1.2 1.1c.02.03 0 .8 0 .8h2.2v2.5h-2.2v9.1h-2.8v-9.1h-1.7v-2.5h1.7s.03-.64 0-.6c0-3.1 1.4-3.8 3.6-3.8c-.02-.02 1.7 0 1.7 0v2.5s-1.3-.04-1.3 0zm11.9 5.7c-.02-.01 0 7.8 0 7.8H299s-.05-1.7 0-1.7c-.9 1.5-2.3 1.9-3.6 1.9c-1.8 0-3.7-1.1-3.7-3.6c0-1.8 1-3 3.7-3.4l2.5-.4c.7-.1 1.2-.3 1.2-1c0-1-.9-1.4-2-1.4c-1.5 0-2.2.7-2.3 1.7h-2.7c.3-2.7 2.5-3.9 5.1-3.9c2.8 0 4.5 1.3 4.5 4zm-2.7 2.9v-.6c-.3.1-.8.3-1.4.3l-1.3.2c-1.4.2-1.8.8-1.8 1.5c0 .9.6 1.4 1.6 1.4c1.4 0 2.9-1.1 2.9-2.8zm15.3 4.9h-2.7s.02-1.66 0-1.7c-.7 1.1-1.7 1.8-3.3 1.8c-2.4 0-4.2-1.5-4.2-4.5v-7.2h2.8v7c0 1.6.8 2.2 2 2.2c1.5 0 2.7-.9 2.7-3.6c-.05 0 0-5.6 0-5.6h2.7V45zm5.6 0h-2.8v-16h2.8v16zm8.6 0s-1.81-.02-1.8 0c-2.2 0-3.6-.7-3.6-3.8c.05 0 0-5.3 0-5.3H321v-2.5h2.1v-2.6l2.8-.8v3.4h2.3v2.5h-2.3s.04 5.43 0 5.4c0 .7.2 1.2 1.2 1.2h1.4v2.5zm10.9-3.6c0 2.6-2.4 3.8-5 3.8c-2.4 0-5-1-5.1-3.9h2.8c.2 1.1 1.2 1.6 2.5 1.6c1.2 0 2-.4 2-1.2c0-.8-.5-.9-2.1-1.2c-2.3-.4-4.9-.8-4.9-3.6c0-2.6 2.2-3.7 4.6-3.7c2.7 0 4.7 1.3 4.9 3.9h-2.7c-.2-1.1-1-1.6-2.1-1.6c-1.4 0-2 .6-2 1.3c0 .9 1.1 1.1 2.5 1.3c2 .3 4.6.6 4.6 3.3zm3.3 3.4h-1.4v-2.9h3.2s.02 2.49 0 2.5c0 3-2 4.1-3.9 4.3l-.3-1.5c1.5-.2 2.4-1.1 2.4-2.4z" stroke="none" fill="#000"/></g><g id="Polygon11711"><path d="m7.2 20.2C4 20.2.7 18.4.7 14.4h3c.1 2.4 1.8 3.3 3.5 3.3c1.5 0 2.9-.8 2.9-2.1c0-1.6-1.8-2-3.6-2.4c-2.3-.5-5.2-1.3-5.2-4.7c0-3.3 2.6-4.8 5.7-4.8c2.9 0 5.7 1.5 5.7 4.7H9.8c-.1-1.6-1.5-2.2-3-2.2c-1.5 0-2.7.7-2.7 2.1c0 1.5 1.5 1.9 3.3 2.3c2 .5 5.6 1.1 5.6 4.8c0 3.1-2.7 4.8-5.8 4.8zM15 6.7h3V3.5h-3v3.2zm.1 1.5h2.8v11.6h-2.8V8.2zm15.7 4.1c-.04.01 0 7.5 0 7.5H28s-.03-7.24 0-7.2c0-1.3-.8-2.1-2.1-2.1c-1.6 0-2.5 1.1-2.5 3c-.03.02 0 6.3 0 6.3h-2.8V8.2h2.8s-.05 1.67 0 1.7C24 8.8 24.9 8 26.9 8c2.6 0 3.9 1.5 3.9 4.3zm7.5 7.7c-3.8 0-5.6-2.9-5.6-6c0-3.1 1.8-6 5.6-6c2.8 0 5 1.6 5.1 4.4h-2.7c-.2-1.1-1-1.9-2.4-1.9c-2 0-2.8 1.7-2.8 3.5c0 1.9.9 3.4 2.8 3.4c1.4 0 2.2-.7 2.4-1.7h2.7c-.3 2.8-2.3 4.3-5.1 4.3zm9.1-5.2c.1 1.9 1.4 2.8 3 2.8c1.1 0 2.2-.4 2.5-1.5h2.6c-.5 2.6-2.8 3.9-5.2 3.9c-2.8 0-5.6-1.9-5.6-6c0-4 2.7-6 5.6-6c2.8 0 5.2 1.8 5.2 5.7v1.1s-8.06.03-8.1 0zm.1-2h5.3c0-1.5-1.1-2.4-2.5-2.4c-1.3 0-2.5.7-2.8 2.4zm24.1 3.4c0 2.6-2.3 3.8-4.9 3.8c-2.4 0-5-1-5.2-3.9h2.8c.2 1.1 1.2 1.6 2.5 1.6c1.2 0 2-.4 2-1.2c0-.8-.5-.9-2.1-1.2c-2.3-.4-4.9-.8-4.9-3.6C61.8 9.1 64 8 66.4 8c2.8 0 4.7 1.3 4.9 3.9h-2.7c-.1-1.1-.9-1.6-2.1-1.6c-1.4 0-1.9.6-1.9 1.3c0 .9 1 1.1 2.4 1.3c2.1.3 4.6.6 4.6 3.3zm13.3-2.4c0 4.2-2.6 6.1-5.4 6.1c-1.5 0-2.6-.7-3.2-1.5c-.03 0 0 5.7 0 5.7h-2.8V8.2h2.7s.01 1.84 0 1.8c.6-1.2 1.9-2 3.6-2c2.7 0 5.1 1.9 5.1 5.8zM82 14c0-2.4-1.4-3.5-2.9-3.5c-1.5 0-2.9 1.1-2.9 3.5c0 2.3 1.4 3.4 2.9 3.4c1.5 0 2.9-1.1 2.9-3.4zm11.4-3.2s-.73-.03-.7 0c-2 0-3.1 1-3.1 3.3c.05.01 0 5.7 0 5.7h-2.7V8.2h2.7s.03 1.65 0 1.6c.6-1.2 1.7-1.7 3.1-1.7c-.05-.04.7 0 .7 0v2.7zm3.1 4c.1 1.9 1.4 2.8 3 2.8c1.1 0 2.2-.4 2.5-1.5h2.6c-.5 2.6-2.8 3.9-5.2 3.9c-2.8 0-5.6-1.9-5.6-6c0-4 2.7-6 5.6-6c2.8 0 5.2 1.8 5.2 5.7v1.1s-8.06.03-8.1 0zm.1-2h5.3c0-1.5-1.1-2.4-2.5-2.4c-1.3 0-2.5.7-2.8 2.4zm19.3-.8c-.04-.01 0 7.8 0 7.8h-2.8s.03-1.7 0-1.7c-.9 1.5-2.3 1.9-3.5 1.9c-1.8 0-3.7-1.1-3.7-3.6c0-1.8 1-3 3.7-3.4l2.5-.4c.6-.1 1.1-.3 1.1-1c0-1-.8-1.4-1.9-1.4c-1.5 0-2.2.7-2.3 1.7h-2.7c.3-2.7 2.5-3.9 5.1-3.9c2.7 0 4.5 1.3 4.5 4zm-2.8 2.9v-.6c-.2.1-.8.3-1.3.3l-1.3.2c-1.4.2-1.8.8-1.8 1.5c0 .9.6 1.4 1.6 1.4c1.4 0 2.8-1.1 2.8-2.8zm15.9 4.9h-2.7s-.01-1.8 0-1.8c-.6 1.3-2 2-3.6 2c-2.7 0-5.1-2-5.1-6c0-4 2.4-6 5.1-6c1.5 0 2.8.6 3.5 1.7c.03.02 0-5.9 0-5.9h2.8v16zm-2.7-5.8c0-2.4-1.4-3.5-2.9-3.5c-1.5 0-2.9 1.1-2.9 3.5c0 2.3 1.4 3.5 2.9 3.5c1.5 0 2.9-1.2 2.9-3.5zm14.7 2.2c0 2.6-2.3 3.8-4.9 3.8c-2.4 0-5-1-5.2-3.9h2.8c.2 1.1 1.2 1.6 2.5 1.6c1.2 0 2.1-.4 2.1-1.2c0-.8-.6-.9-2.2-1.2c-2.2-.4-4.8-.8-4.8-3.6c0-2.6 2.2-3.7 4.6-3.7c2.7 0 4.7 1.3 4.8 3.9H138c-.1-1.1-.9-1.6-2.1-1.6c-1.4 0-1.9.6-1.9 1.3c0 .9 1 1.1 2.4 1.3c2.1.3 4.6.6 4.6 3.3zm17.3-3.9c.04.01 0 7.5 0 7.5h-2.8s.05-7.24 0-7.2c0-1.3-.7-2.1-2-2.1c-1.6 0-2.6 1.1-2.6 3c.05.02 0 6.3 0 6.3h-2.7V8.2h2.7s.03 1.67 0 1.7c.7-1.1 1.6-1.9 3.6-1.9c2.6 0 3.8 1.5 3.8 4.3zm11.9-.3c.02-.01 0 7.8 0 7.8h-2.7s-.01-1.7 0-1.7c-.9 1.5-2.3 1.9-3.5 1.9c-1.9 0-3.8-1.1-3.8-3.6c0-1.8 1.1-3 3.7-3.4l2.5-.4c.7-.1 1.2-.3 1.2-1c0-1-.8-1.4-2-1.4c-1.4 0-2.1.7-2.2 1.7h-2.7c.3-2.7 2.4-3.9 5.1-3.9c2.7 0 4.4 1.3 4.4 4zm-2.7 2.9v-.6c-.3.1-.8.3-1.3.3l-1.3.2c-1.4.2-1.9.8-1.9 1.5c0 .9.7 1.4 1.6 1.4c1.5 0 2.9-1.1 2.9-2.8zm11.8-4.1s-.74-.03-.7 0c-2 0-3.1 1-3.1 3.3c.04.01 0 5.7 0 5.7h-2.8V8.2h2.8s.02 1.65 0 1.6c.6-1.2 1.7-1.7 3-1.7c.04-.04.8 0 .8 0v2.7zm7.9 0s-.72-.03-.7 0c-2 0-3 1-3 3.3c-.05.01 0 5.7 0 5.7h-2.8V8.2h2.7s.03 1.65 0 1.6c.6-1.2 1.7-1.7 3.1-1.7c-.04-.04.7 0 .7 0v2.7zM199 14c0 3.8-2.5 6-5.7 6c-3.3 0-5.7-2.2-5.7-6c0-3.8 2.4-6 5.7-6c3.2 0 5.7 2.2 5.7 6zm-8.5 0c0 2.3 1.3 3.4 2.8 3.4c1.7 0 2.8-1.2 2.8-3.4c0-2.3-1.3-3.4-2.8-3.4c-1.7 0-2.8 1.2-2.8 3.4zm22.9 5.8h-2.7l-2.3-7.4l-2.4 7.4h-2.7l-3.8-11.6h3l2.2 7.7l2.4-7.7h2.7l2.3 7.7l2.3-7.7h2.9l-3.9 11.6zm7.1-5c.1 1.9 1.4 2.8 3 2.8c1.1 0 2.1-.4 2.5-1.5h2.5c-.5 2.6-2.8 3.9-5.1 3.9c-2.8 0-5.6-1.9-5.6-6c0-4 2.6-6 5.6-6c2.8 0 5.2 1.8 5.2 5.7c-.02-.01 0 1.1 0 1.1c0 0-8.08.03-8.1 0zm.1-2h5.3c0-1.5-1.1-2.4-2.5-2.4c-1.3 0-2.6.7-2.8 2.4zm20.6 7h-2.7s-.01-1.8 0-1.8c-.6 1.3-2 2-3.6 2c-2.7 0-5.1-2-5.1-6c0-4 2.4-6 5.1-6c1.5 0 2.8.6 3.5 1.7c.03.02 0-5.9 0-5.9h2.8v16zm-2.7-5.8c0-2.4-1.4-3.5-2.9-3.5c-1.5 0-2.9 1.1-2.9 3.5c0 2.3 1.4 3.5 2.9 3.5c1.5 0 2.9-1.2 2.9-3.5zm11-7.3h3V3.5h-3v3.2zm.1 1.5h2.8v11.6h-2.8V8.2zm15.7 4.1v7.5h-2.8v-7.2c0-1.3-.7-2.1-2-2.1c-1.6 0-2.6 1.1-2.6 3v6.3h-2.8V8.2h2.8s-.02 1.67 0 1.7c.6-1.1 1.6-1.9 3.5-1.9c2.7 0 3.9 1.5 3.9 4.3zm18.5 0c-.03.01 0 7.5 0 7.5H281s-.02-7.24 0-7.2c0-1.3-.8-2.1-2.1-2.1c-1.6 0-2.5 1.1-2.5 3c-.02.02 0 6.3 0 6.3h-2.8v-16h2.8s-.02 6.03 0 6C277 8.7 278 8 279.9 8c2.6 0 3.9 1.5 3.9 4.3zm2.5-5.6h3V3.5h-3v3.2zm.1 1.5h2.8v11.6h-2.8V8.2zM302.3 19c0 3.7-2.4 5.4-5.5 5.4c-2.8 0-5.2-1.4-5.5-4.3h2.7c.3 1.5 1.5 1.9 2.8 1.9c1.8 0 2.8-.9 2.8-2.7v-1.9c-.5 1.2-1.6 2-3.4 2c-2.6 0-5.1-1.8-5.1-5.7c0-3.9 2.5-5.7 5.1-5.7c1.7 0 2.8.7 3.4 1.8c.02.01 0-1.6 0-1.6h2.7V19zm-2.8-5.3c0-2.2-1.2-3.3-2.7-3.3c-1.5 0-2.9 1.1-2.9 3.3c0 2.2 1.4 3.2 2.9 3.2c1.5 0 2.7-1 2.7-3.2zm15.6-1.4c.02.01 0 7.5 0 7.5h-2.8s.03-7.24 0-7.2c0-1.3-.7-2.1-2-2.1c-1.6 0-2.6 1.1-2.6 3c.03.02 0 6.3 0 6.3h-2.8v-16h2.8s.03 6.03 0 6c.7-1.1 1.7-1.8 3.5-1.8c2.7 0 3.9 1.5 3.9 4.3zm8.8-.4h-6.5v2.5h6.5v-2.5zm12.3-3.7s-4.99 13.32-5 13.3c-.5 1.4-1.7 2-3.3 2c.03-.02-1.7 0-1.7 0V21h1.2c1 0 1.4-.3 1.7-1.1l.2-.6l-4.4-11.1h3l2.8 7.6l2.7-7.6h2.8zm1.3-1.5h3V3.5h-3v3.2zm.1 1.5h2.8v11.6h-2.8V8.2zm7.5 6.6c0 1.9 1.4 2.8 2.9 2.8c1.1 0 2.2-.4 2.5-1.5h2.6c-.5 2.6-2.8 3.9-5.2 3.9c-2.8 0-5.5-1.9-5.5-6c0-4 2.6-6 5.5-6c2.9 0 5.2 1.8 5.2 5.7c.03-.01 0 1.1 0 1.1c0 0-8.03.03-8 0zm0-2h5.3c0-1.5-1.1-2.4-2.5-2.4c-1.3 0-2.5.7-2.8 2.4zm12.8 7h-2.8v-16h2.8v16zm13.4 0h-2.7s-.03-1.8 0-1.8c-.7 1.3-2 2-3.6 2c-2.7 0-5.1-2-5.1-6c0-4 2.4-6 5.1-6c1.5 0 2.8.6 3.5 1.7V3.8h2.8v16zm-2.7-5.8c0-2.4-1.4-3.5-3-3.5c-1.5 0-2.9 1.1-2.9 3.5c0 2.3 1.4 3.5 2.9 3.5c1.6 0 3-1.2 3-3.5z" stroke="none" fill="#000"/></g></svg>