<?xml version="1.0" standalone="no"?><!DOCTYPE svg PUBLIC "-//W3C//DTD SVG 1.1//EN" "http://www.w3.org/Graphics/SVG/1.1/DTD/svg11.dtd"><svg xmlns="http://www.w3.org/2000/svg" version="1.1" width="285px" height="100.2px" viewBox="0 -4 285 100.2" style="top:-4px"><desc>Rüdiger Sälzle FondsConsult Research, GmbH</desc><defs/><g id="Polygon10960"><path d="m17.3 71.2v9h-1.7s.02-2.68 0-2.7c-1 1.9-3.1 3.2-6 3.2c-5.4 0-8.3-4.5-8.3-9.6c0-5.6 3.5-9.3 8.6-9.3c3.7 0 7 2 7.4 5.8h-1.9c-.4-2.6-2.7-4.1-5.5-4.1c-3.8 0-6.7 2.9-6.7 7.6c0 4.2 2.2 7.9 6.5 7.9c3.4 0 5.9-2.3 5.9-6.2c-.02.04-6.1 0-6.1 0v-1.6h7.8zm4-3.9h1.7s-.01 2.16 0 2.2c.7-1.7 2.1-2.4 3.7-2.4c1.9 0 3.4 1 3.9 2.7c.5-1.5 1.9-2.7 4.2-2.7c2.3 0 4.2 1.3 4.2 3.9c-.05-.03 0 9.2 0 9.2h-1.8v-8.6c0-2-1.2-3-2.7-3c-2 0-3.5 1.5-3.5 4.2c-.04.04 0 7.4 0 7.4h-1.8s.03-8.61 0-8.6c0-2-1.1-3-2.7-3c-1.9 0-3.5 1.5-3.5 4.2c.02.04 0 7.4 0 7.4h-1.7V67.3zm33.4 6.4c0 4.1-2.4 6.8-5.8 6.8c-2.3 0-3.9-1.3-4.5-2.7c-.05.03 0 2.4 0 2.4h-1.7V61.9h1.7s.02 8.01 0 8c.7-1.5 2.3-2.8 4.6-2.8c3.3 0 5.7 2.5 5.7 6.6zm-1.8.1c0-3.2-1.7-5-4.2-5c-2.5 0-4.3 1.9-4.3 5.1c0 3.1 1.8 5.1 4.2 5.1c2.6 0 4.3-2.1 4.3-5.2zm18.5 6.4h-1.8V72h-9.8v8.2h-1.9v-18h1.9v8.1h9.8v-8.1h1.8v18z" stroke="none" fill="#000"/></g><g id="Polygon10959"><path d="m4 51.4H2.2v-18h11.2v1.6H4v6.5h8.9v1.6H4v8.3zM14.9 45c0-4.2 2.5-6.7 6.1-6.7c3.5 0 6.1 2.5 6.1 6.7c0 4.2-2.5 6.7-6.1 6.7c-3.6 0-6.1-2.5-6.1-6.7zm10.4-.1c0-3.2-1.9-5-4.3-5c-2.6 0-4.3 2-4.3 5.1c0 3.2 1.9 5 4.3 5c2.5 0 4.3-1.9 4.3-5.1zm15.3-2.3c-.04-.02 0 8.8 0 8.8h-1.8v-8.6c0-1.8-1-2.9-2.8-2.9c-2.2 0-4.2 1.6-4.2 4.7c.05.04 0 6.8 0 6.8h-1.7V38.5h1.7s.05 2.42 0 2.4c.8-1.5 2.3-2.6 4.5-2.6c2.6 0 4.3 1.4 4.3 4.3zm14.9 8.8h-1.7s.01-2.49 0-2.5c-.6 1.5-2.2 2.8-4.6 2.8c-3.4 0-5.8-2.7-5.8-6.7c0-4.1 2.4-6.7 5.8-6.7c2.2 0 3.8 1.1 4.5 2.4c.04 0 0-7.6 0-7.6h1.8v18.3zm-1.8-6.5c0-3.2-1.8-5-4.2-5c-2.6 0-4.3 1.9-4.3 5.1c0 3.1 1.8 5.1 4.3 5.1c2.5 0 4.2-2 4.2-5.2zm15.2 2.9c0 2.6-2.4 3.9-5 3.9c-2.7 0-5.3-1.4-5.5-4.3h1.8c.3 1.9 2 2.7 3.8 2.7c1.6 0 3.1-.7 3.1-2.1c0-1.5-1.5-1.8-3-2.1c-2.5-.4-5.4-.8-5.4-3.8c0-2.6 2.2-3.8 4.8-3.8c2.8 0 4.9 1.3 5.1 3.8h-1.9c-.1-1.5-1.6-2.3-3.2-2.3c-1.8 0-3 .8-3 2.2c0 1.6 1.6 1.9 3.5 2.2c2.3.4 4.9.8 4.9 3.6zm16.3-9c-.3-2.6-2.7-4.1-5.5-4.1c-3.8 0-6.6 2.9-6.6 7.5c0 4.2 2.2 7.9 6.7 7.9c3 0 5.4-1.6 5.6-4.8h1.9c-.2 4.1-3.5 6.6-7.6 6.6c-5.6 0-8.5-4.5-8.5-9.6c0-5.7 3.6-9.3 8.6-9.3c3.7 0 6.9 2 7.3 5.8h-1.9zm4.4 6.2c0-4.2 2.5-6.7 6.1-6.7c3.5 0 6.1 2.5 6.1 6.7c0 4.2-2.6 6.7-6.1 6.7c-3.6 0-6.1-2.5-6.1-6.7zm10.4-.1c0-3.2-2-5-4.4-5c-2.5 0-4.2 2-4.2 5.1c0 3.2 1.9 5 4.3 5c2.5 0 4.3-1.9 4.3-5.1zm15.2-2.3c.05-.02 0 8.8 0 8.8h-1.7v-8.6c0-1.8-1-2.9-2.8-2.9c-2.2 0-4.2 1.6-4.2 4.7c.04.04 0 6.8 0 6.8h-1.7V38.5h1.7s.04 2.42 0 2.4c.8-1.5 2.2-2.6 4.5-2.6c2.6 0 4.2 1.4 4.2 4.3zm13.3 5.2c0 2.6-2.3 3.9-4.9 3.9c-2.8 0-5.3-1.4-5.6-4.3h1.9c.3 1.9 1.9 2.7 3.7 2.7c1.7 0 3.1-.7 3.1-2.1c0-1.5-1.5-1.8-3-2.1c-2.5-.4-5.4-.8-5.4-3.8c0-2.6 2.2-3.8 4.9-3.8c2.7 0 4.9 1.3 5 3.8h-1.8c-.1-1.5-1.6-2.3-3.3-2.3c-1.8 0-3 .8-3 2.2c0 1.6 1.6 1.9 3.5 2.2c2.4.4 4.9.8 4.9 3.6zm11.4 3.6V49c-.9 1.7-2.5 2.6-4.3 2.6c-2.4 0-4.3-1.6-4.3-4.6v-8.5h1.8s-.05 8.32 0 8.3c0 2.1 1.1 3.2 2.8 3.2c2.1 0 3.9-1.5 3.9-4.8c.02-.01 0-6.7 0-6.7h1.8v12.9h-1.7zm7.3 0h-1.8V33.1h1.8v18.3zm9.7 0H155c-1.7 0-3.2-.5-3.2-3.4c-.05.02 0-7.9 0-7.9h-2.6v-1.6h2.6v-3.6l1.7-.5v4.1h3.1v1.6h-3.1v7.9c0 1.2.3 1.8 1.8 1.8c-.02.02 1.6 0 1.6 0v1.6zm20.1 0l-5.1-7.8h-4.2v7.8h-1.8v-18h6.4c3.7 0 5.6 2.3 5.6 4.9c0 2.2-1.4 4.3-4 5c0 .02 5.3 8.1 5.3 8.1H177zm-4.8-9.4c2.5 0 3.9-1.8 3.9-3.6c0-1.8-1.2-3.4-3.7-3.4c-.01.02-4.7 0-4.7 0v7h4.5zm10 3.4c0 3.2 2 4.7 4.3 4.7c1.7 0 3.3-.9 3.7-2.7h1.7c-.6 3-3.1 4.3-5.5 4.3c-3.1 0-6-2.1-6-6.7c0-4.6 2.9-6.7 6-6.7c3.1 0 5.6 1.9 5.6 6.2c-.03.02 0 .9 0 .9c0 0-9.84-.02-9.8 0zm0-1.5h8c0-2.6-1.7-4.1-3.8-4.1c-2.1 0-4 1.3-4.2 4.1zm22.3 3.9c0 2.6-2.3 3.9-4.9 3.9c-2.8 0-5.3-1.4-5.6-4.3h1.9c.3 1.9 2 2.7 3.7 2.7c1.7 0 3.1-.7 3.1-2.1c0-1.5-1.5-1.8-3-2.1c-2.4-.4-5.4-.8-5.4-3.8c0-2.6 2.2-3.8 4.9-3.8c2.7 0 4.9 1.3 5 3.8h-1.8c-.1-1.5-1.6-2.3-3.3-2.3c-1.8 0-3 .8-3 2.2c0 1.6 1.6 1.9 3.6 2.2c2.3.4 4.8.8 4.8 3.6zm3.8-2.4c.1 3.2 2 4.7 4.3 4.7c1.7 0 3.4-.9 3.8-2.7h1.6c-.5 3-3 4.3-5.5 4.3c-3.1 0-5.9-2.1-5.9-6.7c0-4.6 2.9-6.7 6-6.7c3 0 5.5 1.9 5.5 6.2c.03.02 0 .9 0 .9c0 0-9.78-.02-9.8 0zm.1-1.5h8c0-2.6-1.7-4.1-3.9-4.1c-2 0-3.9 1.3-4.1 4.1zm20.7 5.2c-1.1 1.9-3 2.6-4.6 2.6c-2.2 0-4.2-1.3-4.2-3.9c0-2.3 1.7-3.4 3.9-3.7l3.1-.4c.9-.2 1.8-.5 1.8-1.6c0-1.5-1.4-2.4-3.2-2.4c-1.9 0-3.1 1-3.4 2.4h-1.7c.4-2.5 2.4-3.8 5.3-3.8c2.9 0 4.7 1.3 4.7 4.2c-.04 0 0 8.9 0 8.9h-1.7s-.05-2.34 0-2.3zm-2.2-4l-2 .3c-1.6.2-2.8.8-2.8 2.4c0 1.6 1.2 2.3 2.7 2.3c2 0 4.2-1.5 4.2-4.3v-1.2c-.5.3-1.2.4-2.1.5zm13.9-5.1s-.42.03-.4 0c-2.8 0-4.3 1.6-4.3 4.6c.01-.03 0 6.8 0 6.8h-1.7V38.5h1.7v2.4c.6-1.7 2.1-2.5 4.1-2.5c.04-.02.6 0 .6 0v1.6zm7.2 11.7c-3.6 0-6-2.7-6-6.7c0-4 2.4-6.7 6.1-6.7c2.9 0 5.1 1.5 5.3 4.5h-1.7c-.2-1.9-1.7-3-3.6-3c-2.5 0-4.3 2-4.3 5.2c0 3.1 1.7 5.1 4.3 5.1c1.9 0 3.5-1.2 3.6-3.2h1.7c-.2 3.1-2.6 4.8-5.4 4.8zm18.9-9.1v8.8h-1.8s.05-8.61 0-8.6c0-1.8-1-2.9-2.8-2.9c-2.2 0-4.1 1.6-4.1 4.7c-.01.04 0 6.8 0 6.8h-1.8V33.1h1.8v7.7c.7-1.4 2.1-2.5 4.4-2.5c2.6 0 4.3 1.4 4.3 4.3zm5 8.7c-.03-.04-1.2 0-1.2 0v-2.4h2.6s-.04 2.44 0 2.4c0 2.9-1.7 3.9-3.5 4.1l-.3-1.1c2-.4 2.4-1.5 2.4-3z" stroke="none" fill="#000"/></g><g id="Polygon10958"><path d="m12.5 22.6l-4.6-7.2H5.1v7.2H1.8v-18h7c4.1 0 6 2.6 6 5.2c0 2.1-1.2 4.2-3.4 5c-.05-.02 5.1 7.8 5.1 7.8h-4zm-1-12.7c0-1-.7-2.2-2.5-2.2c-.02.03-3.9 0-3.9 0v4.7s3.61-.04 3.6 0c1.9 0 2.8-1.2 2.8-2.5zm8.2-5.8h2.8v2.9h-2.8V4.1zm5 0h2.8v2.9h-2.8V4.1zm4.7 18.5h-3.1s-.02-1.86 0-1.9c-.8 1.3-2 2.1-3.8 2.1c-2.8 0-4.8-1.8-4.8-5.2V9.4h3.2s-.02 7.95 0 8c0 1.8.9 2.5 2.2 2.5c1.8 0 3.1-1.1 3.1-4.1V9.4h3.2v13.2zm15.3 0h-3.1s-.03-2.03 0-2c-.8 1.5-2.3 2.3-4.1 2.3c-3.1 0-5.8-2.3-5.8-6.9c0-4.6 2.7-6.9 5.8-6.9c1.7 0 3.2.7 4 2V4.3h3.2v18.3zM41.6 16c0-2.8-1.6-4-3.4-4c-1.7 0-3.3 1.3-3.3 4c0 2.6 1.6 4 3.3 4c1.8 0 3.4-1.3 3.4-4zm6.1-8.4h3.4V4h-3.4v3.6zm.1 1.8h3.2v13.2h-3.2V9.4zM66 21.7c0 4.3-2.7 6.1-6.3 6.1c-3.2 0-5.9-1.5-6.3-4.8h3.1c.4 1.6 1.7 2.2 3.2 2.2c2.1 0 3.2-1.1 3.2-3.1v-2.3c-.6 1.4-1.9 2.3-3.9 2.3c-3 0-5.8-2-5.8-6.5c0-4.4 2.8-6.5 5.8-6.5c1.9 0 3.3.9 3.9 2.1c.03.01 0-1.8 0-1.8h3.1v12.3zm-3.2-6.1c0-2.5-1.4-3.7-3.1-3.7c-1.8 0-3.3 1.2-3.3 3.7c0 2.5 1.5 3.7 3.3 3.7c1.7 0 3.1-1.2 3.1-3.7zm8.5 1.3c0 2.2 1.6 3.2 3.4 3.2c1.2 0 2.4-.5 2.8-1.7h2.9c-.6 2.9-3.2 4.5-5.9 4.5c-3.2 0-6.3-2.2-6.3-6.9c0-4.5 3-6.9 6.3-6.9c3.3 0 6 2.2 6 6.5c-.03.05 0 1.3 0 1.3c0 0-9.24.04-9.2 0zm0-2.3h6.1c0-1.7-1.3-2.7-2.9-2.7c-1.5 0-2.9.8-3.2 2.7zm18.9-2.3h-.8c-2.2 0-3.5 1.2-3.5 3.8c.04.03 0 6.5 0 6.5h-3.1V9.4h3.1s.02 1.86 0 1.9c.7-1.5 1.9-2.1 3.5-2.1c-.02.02.8 0 .8 0v3.1zm14.1 10.8c-3.7 0-7.5-2.1-7.5-6.6h3.4c.1 2.7 2.1 3.7 4 3.7c1.8 0 3.3-.9 3.3-2.4c0-1.8-2-2.2-4.1-2.7c-2.6-.6-6-1.5-6-5.4c0-3.7 3.1-5.5 6.5-5.5c3.5 0 6.7 1.8 6.7 5.4h-3.4c-.1-1.8-1.7-2.5-3.4-2.5c-1.7 0-3.1.7-3.1 2.3c0 1.8 1.7 2.3 3.7 2.7c2.3.5 6.5 1.2 6.5 5.5c0 3.6-3.1 5.5-6.6 5.5zm10.5-19h2.8v2.9h-2.8V4.1zm5 0h2.8v2.9h-2.8V4.1zm4 9.6c.04 0 0 8.9 0 8.9h-3.1s.02-1.91 0-1.9c-1 1.7-2.6 2.2-4 2.2c-2.1 0-4.3-1.3-4.3-4.1c0-2.1 1.2-3.5 4.2-4l2.9-.4c.8-.1 1.3-.4 1.3-1.2c0-1.1-.9-1.6-2.2-1.6c-1.7 0-2.5.9-2.6 2h-3.1c.4-3.1 2.9-4.5 5.9-4.5c3.1 0 5 1.5 5 4.6zm-3.1 3.3v-.7c-.3.2-.9.3-1.5.4l-1.5.2c-1.6.2-2.1.9-2.1 1.7c0 1.1.8 1.6 1.9 1.6c1.6 0 3.2-1.2 3.2-3.2zm9.2 5.6h-3.2V4.3h3.2v18.3zm13.5 0h-11.2v-2.8l7.1-7.7h-7V9.4h11.1v2.7l-7.1 7.7h7.1v2.8zm5.7 0h-3.2V4.3h3.2v18.3zm5.4-5.7c.1 2.2 1.6 3.2 3.4 3.2c1.2 0 2.4-.5 2.8-1.7h3c-.6 2.9-3.2 4.5-6 4.5c-3.1 0-6.3-2.2-6.3-6.9c0-4.5 3-6.9 6.4-6.9c3.2 0 5.9 2.2 5.9 6.5v1.3s-9.21.04-9.2 0zm.1-2.3h6c0-1.7-1.2-2.7-2.9-2.7c-1.4 0-2.9.8-3.1 2.7z" stroke="none" fill="#000"/></g></svg>