<?xml version="1.0" standalone="no"?><!DOCTYPE svg PUBLIC "-//W3C//DTD SVG 1.1//EN" "http://www.w3.org/Graphics/SVG/1.1/DTD/svg11.dtd"><svg xmlns="http://www.w3.org/2000/svg" version="1.1" width="267px" height="94.5px" viewBox="0 0 267 94.5">  <desc>de titres rendement positif</desc>  <defs/>  <g id="Polygon9998">    <path d="M 10.9 50.9 C 10.9 50.9 9.92 50.88 9.9 50.9 C 7.2 50.9 5.7 52.4 5.7 55.5 C 5.74 55.49 5.7 63.3 5.7 63.3 L 1.9 63.3 L 1.9 47.3 L 5.7 47.3 C 5.7 47.3 5.71 49.6 5.7 49.6 C 6.5 47.9 8 47.1 9.9 47.1 C 9.89 47.14 10.9 47.1 10.9 47.1 L 10.9 50.9 Z M 15.3 56.5 C 15.3 59.1 17.2 60.3 19.4 60.3 C 20.9 60.3 22.3 59.7 22.8 58.2 C 22.8 58.2 26.3 58.2 26.3 58.2 C 25.6 61.8 22.5 63.7 19.2 63.7 C 15.3 63.7 11.5 61.1 11.5 55.4 C 11.5 49.9 15.1 47 19.2 47 C 23.1 47 26.4 49.6 26.4 54.9 C 26.39 54.91 26.4 56.5 26.4 56.5 C 26.4 56.5 15.25 56.47 15.3 56.5 Z M 15.3 53.7 C 15.3 53.7 22.6 53.7 22.6 53.7 C 22.6 51.5 21.1 50.4 19.2 50.4 C 17.4 50.4 15.7 51.3 15.3 53.7 Z M 43.2 53 C 43.21 52.99 43.2 63.3 43.2 63.3 L 39.4 63.3 C 39.4 63.3 39.35 53.34 39.4 53.3 C 39.4 51.5 38.3 50.5 36.5 50.5 C 34.3 50.5 33 52.1 33 54.7 C 33 54.68 33 63.3 33 63.3 L 29.1 63.3 L 29.1 47.3 L 33 47.3 C 33 47.3 32.97 49.63 33 49.6 C 33.9 48.2 35.2 47 37.8 47 C 41.5 47 43.2 49.2 43.2 53 Z M 61.5 63.3 L 57.8 63.3 C 57.8 63.3 57.77 60.85 57.8 60.9 C 56.9 62.7 55 63.7 52.8 63.7 C 49.1 63.7 45.8 60.9 45.8 55.3 C 45.8 49.8 49.1 47 52.8 47 C 54.9 47 56.7 47.9 57.7 49.4 C 57.68 49.43 57.7 41.2 57.7 41.2 L 61.5 41.2 L 61.5 63.3 Z M 57.8 55.3 C 57.8 52 55.8 50.4 53.7 50.4 C 51.6 50.4 49.7 52 49.7 55.3 C 49.7 58.5 51.6 60.1 53.7 60.1 C 55.8 60.1 57.8 58.6 57.8 55.3 Z M 68 56.5 C 68.1 59.1 70 60.3 72.2 60.3 C 73.7 60.3 75.1 59.7 75.6 58.2 C 75.6 58.2 79.1 58.2 79.1 58.2 C 78.4 61.8 75.3 63.7 72 63.7 C 68.1 63.7 64.3 61.1 64.3 55.4 C 64.3 49.9 67.9 47 72 47 C 75.9 47 79.2 49.6 79.2 54.9 C 79.17 54.91 79.2 56.5 79.2 56.5 C 79.2 56.5 68.03 56.47 68 56.5 Z M 68.1 53.7 C 68.1 53.7 75.4 53.7 75.4 53.7 C 75.4 51.5 73.9 50.4 71.9 50.4 C 70.2 50.4 68.5 51.3 68.1 53.7 Z M 104.5 52.5 C 104.52 52.53 104.5 63.3 104.5 63.3 L 100.7 63.3 C 100.7 63.3 100.66 53.28 100.7 53.3 C 100.7 51.4 99.8 50.5 98.2 50.5 C 96.3 50.5 95.1 51.6 95.1 54.3 C 95.15 54.33 95.1 63.3 95.1 63.3 L 91.3 63.3 C 91.3 63.3 91.29 53.28 91.3 53.3 C 91.3 51.4 90.3 50.5 88.8 50.5 C 87 50.5 85.8 51.7 85.8 54.3 C 85.78 54.3 85.8 63.3 85.8 63.3 L 81.9 63.3 L 81.9 47.3 L 85.7 47.3 C 85.7 47.3 85.72 49.66 85.7 49.7 C 86.2 48.4 87.4 47 89.9 47 C 91.9 47 93.5 48 94.3 49.7 C 94.9 48.5 96 47 98.9 47 C 102.3 47 104.5 49.1 104.5 52.5 Z M 110.9 56.5 C 111 59.1 112.8 60.3 115 60.3 C 116.5 60.3 117.9 59.7 118.4 58.2 C 118.4 58.2 121.9 58.2 121.9 58.2 C 121.2 61.8 118.1 63.7 114.8 63.7 C 111 63.7 107.1 61.1 107.1 55.4 C 107.1 49.9 110.8 47 114.8 47 C 118.7 47 122 49.6 122 54.9 C 122 54.91 122 56.5 122 56.5 C 122 56.5 110.87 56.47 110.9 56.5 Z M 111 53.7 C 111 53.7 118.2 53.7 118.2 53.7 C 118.2 51.5 116.8 50.4 114.8 50.4 C 113 50.4 111.3 51.3 111 53.7 Z M 138.8 53 C 138.82 52.99 138.8 63.3 138.8 63.3 L 135 63.3 C 135 63.3 134.97 53.34 135 53.3 C 135 51.5 134 50.5 132.2 50.5 C 129.9 50.5 128.6 52.1 128.6 54.7 C 128.61 54.68 128.6 63.3 128.6 63.3 L 124.8 63.3 L 124.8 47.3 L 128.6 47.3 C 128.6 47.3 128.59 49.63 128.6 49.6 C 129.5 48.2 130.8 47 133.5 47 C 137.1 47 138.8 49.2 138.8 53 Z M 150.6 63.3 C 150.6 63.3 148.1 63.32 148.1 63.3 C 145.1 63.3 143.2 62.4 143.2 58.1 C 143.2 58.1 143.2 50.8 143.2 50.8 L 140.3 50.8 L 140.3 47.3 L 143.2 47.3 L 143.2 43.7 L 147.1 42.6 L 147.1 47.3 L 150.2 47.3 L 150.2 50.8 L 147.1 50.8 C 147.1 50.8 147.06 58.27 147.1 58.3 C 147.1 59.2 147.3 59.9 148.7 59.9 C 148.68 59.9 150.6 59.9 150.6 59.9 L 150.6 63.3 Z M 176.1 55.1 C 176.1 60.8 172.5 63.4 168.7 63.4 C 166.6 63.4 165.1 62.5 164.2 61.4 C 164.2 61.4 164.2 69.3 164.2 69.3 L 160.3 69.3 L 160.3 47.3 L 164.1 47.3 C 164.1 47.3 164.11 49.86 164.1 49.9 C 164.9 48.1 166.7 47 169.1 47 C 172.8 47 176.1 49.7 176.1 55.1 Z M 172.1 55.3 C 172.1 52 170.2 50.6 168.1 50.6 C 166.1 50.6 164.1 52 164.1 55.3 C 164.1 58.6 166.1 60 168.1 60 C 170.2 60 172.1 58.5 172.1 55.3 Z M 193.4 55.3 C 193.4 60.6 190.1 63.7 185.6 63.7 C 181.1 63.7 177.8 60.6 177.8 55.3 C 177.8 50.2 181.1 47 185.6 47 C 190.1 47 193.4 50.2 193.4 55.3 Z M 181.7 55.3 C 181.7 58.6 183.5 60.1 185.7 60.1 C 187.9 60.1 189.5 58.3 189.5 55.3 C 189.5 52.1 187.7 50.6 185.6 50.6 C 183.3 50.6 181.7 52.4 181.7 55.3 Z M 209 58.4 C 209 62 205.8 63.7 202.2 63.7 C 198.9 63.7 195.3 62.2 195 58.2 C 195 58.2 198.9 58.2 198.9 58.2 C 199.2 59.8 200.6 60.5 202.4 60.5 C 204 60.5 205.2 60 205.2 58.7 C 205.2 57.7 204.4 57.5 202.2 57.1 C 199.1 56.6 195.5 56.1 195.5 52.1 C 195.5 48.5 198.6 47 201.9 47 C 205.6 47 208.4 48.9 208.6 52.4 C 208.6 52.4 204.8 52.4 204.8 52.4 C 204.7 50.8 203.5 50.2 201.9 50.2 C 200 50.2 199.3 51.1 199.3 52 C 199.3 53.3 200.7 53.5 202.6 53.8 C 205.5 54.2 209 54.6 209 58.4 Z M 211.4 45.2 L 215.5 45.2 L 215.5 40.8 L 211.4 40.8 L 211.4 45.2 Z M 211.6 47.3 L 215.4 47.3 L 215.4 63.3 L 211.6 63.3 L 211.6 47.3 Z M 227.3 63.3 C 227.3 63.3 224.81 63.32 224.8 63.3 C 221.8 63.3 219.9 62.4 219.9 58.1 C 219.9 58.1 219.9 50.8 219.9 50.8 L 217 50.8 L 217 47.3 L 219.9 47.3 L 219.9 43.7 L 223.8 42.6 L 223.8 47.3 L 227 47.3 L 227 50.8 L 223.8 50.8 C 223.8 50.8 223.76 58.27 223.8 58.3 C 223.8 59.2 224 59.9 225.4 59.9 C 225.39 59.9 227.3 59.9 227.3 59.9 L 227.3 63.3 Z M 229.4 45.2 L 233.4 45.2 L 233.4 40.8 L 229.4 40.8 L 229.4 45.2 Z M 229.5 47.3 L 233.3 47.3 L 233.3 63.3 L 229.5 63.3 L 229.5 47.3 Z M 243 44.6 C 241.7 44.6 241.4 45.3 241.4 46.3 C 241.42 46.27 241.4 47.3 241.4 47.3 L 244.4 47.3 L 244.4 50.8 L 241.4 50.8 L 241.4 63.3 L 237.6 63.3 L 237.6 50.8 L 235.2 50.8 L 235.2 47.3 L 237.6 47.3 C 237.6 47.3 237.56 46.44 237.6 46.4 C 237.6 42.1 239.5 41.2 242.5 41.2 C 242.47 41.22 244.8 41.2 244.8 41.2 L 244.8 44.6 C 244.8 44.6 243.05 44.64 243 44.6 Z " stroke="none" fill="#000"/>  </g>  <g id="Polygon9997">    <path d="M 16.6 27.3 L 12.8 27.3 C 12.8 27.3 12.82 24.85 12.8 24.9 C 11.9 26.7 10.1 27.7 7.9 27.7 C 4.1 27.7 0.9 24.9 0.9 19.3 C 0.9 13.8 4.1 11 7.9 11 C 10 11 11.8 11.9 12.7 13.4 C 12.73 13.43 12.7 5.2 12.7 5.2 L 16.6 5.2 L 16.6 27.3 Z M 12.8 19.3 C 12.8 16 10.9 14.4 8.8 14.4 C 6.7 14.4 4.8 16 4.8 19.3 C 4.8 22.5 6.7 24.1 8.8 24.1 C 10.9 24.1 12.8 22.6 12.8 19.3 Z M 23.1 20.5 C 23.2 23.1 25 24.3 27.2 24.3 C 28.7 24.3 30.2 23.7 30.6 22.2 C 30.6 22.2 34.2 22.2 34.2 22.2 C 33.5 25.8 30.3 27.7 27 27.7 C 23.2 27.7 19.3 25.1 19.3 19.4 C 19.3 13.9 23 11 27.1 11 C 30.9 11 34.2 13.6 34.2 18.9 C 34.22 18.91 34.2 20.5 34.2 20.5 C 34.2 20.5 23.08 20.47 23.1 20.5 Z M 23.2 17.7 C 23.2 17.7 30.4 17.7 30.4 17.7 C 30.4 15.5 29 14.4 27 14.4 C 25.2 14.4 23.5 15.3 23.2 17.7 Z M 52.1 27.3 C 52.1 27.3 49.59 27.32 49.6 27.3 C 46.6 27.3 44.7 26.4 44.7 22.1 C 44.69 22.1 44.7 14.8 44.7 14.8 L 41.8 14.8 L 41.8 11.3 L 44.7 11.3 L 44.7 7.7 L 48.5 6.6 L 48.5 11.3 L 51.7 11.3 L 51.7 14.8 L 48.5 14.8 C 48.5 14.8 48.55 22.27 48.5 22.3 C 48.5 23.2 48.8 23.9 50.2 23.9 C 50.17 23.9 52.1 23.9 52.1 23.9 L 52.1 27.3 Z M 54.1 9.2 L 58.2 9.2 L 58.2 4.8 L 54.1 4.8 L 54.1 9.2 Z M 54.3 11.3 L 58.1 11.3 L 58.1 27.3 L 54.3 27.3 L 54.3 11.3 Z M 70 27.3 C 70 27.3 67.51 27.32 67.5 27.3 C 64.5 27.3 62.6 26.4 62.6 22.1 C 62.61 22.1 62.6 14.8 62.6 14.8 L 59.7 14.8 L 59.7 11.3 L 62.6 11.3 L 62.6 7.7 L 66.5 6.6 L 66.5 11.3 L 69.7 11.3 L 69.7 14.8 L 66.5 14.8 C 66.5 14.8 66.47 22.27 66.5 22.3 C 66.5 23.2 66.7 23.9 68.1 23.9 C 68.09 23.9 70 23.9 70 23.9 L 70 27.3 Z M 81.3 14.9 C 81.3 14.9 80.24 14.88 80.2 14.9 C 77.5 14.9 76.1 16.4 76.1 19.5 C 76.07 19.49 76.1 27.3 76.1 27.3 L 72.2 27.3 L 72.2 11.3 L 76 11.3 C 76 11.3 76.04 13.6 76 13.6 C 76.8 11.9 78.3 11.1 80.2 11.1 C 80.21 11.14 81.3 11.1 81.3 11.1 L 81.3 14.9 Z M 85.6 20.5 C 85.7 23.1 87.5 24.3 89.7 24.3 C 91.2 24.3 92.7 23.7 93.1 22.2 C 93.1 22.2 96.7 22.2 96.7 22.2 C 96 25.8 92.8 27.7 89.5 27.7 C 85.7 27.7 81.8 25.1 81.8 19.4 C 81.8 13.9 85.5 11 89.6 11 C 93.4 11 96.7 13.6 96.7 18.9 C 96.71 18.91 96.7 20.5 96.7 20.5 C 96.7 20.5 85.58 20.47 85.6 20.5 Z M 85.7 17.7 C 85.7 17.7 92.9 17.7 92.9 17.7 C 92.9 15.5 91.5 14.4 89.5 14.4 C 87.7 14.4 86 15.3 85.7 17.7 Z M 112.3 22.4 C 112.3 26 109.1 27.7 105.5 27.7 C 102.2 27.7 98.6 26.2 98.3 22.2 C 98.3 22.2 102.2 22.2 102.2 22.2 C 102.5 23.8 103.9 24.5 105.7 24.5 C 107.3 24.5 108.5 24 108.5 22.7 C 108.5 21.7 107.7 21.5 105.5 21.1 C 102.4 20.6 98.8 20.1 98.8 16.1 C 98.8 12.5 101.8 11 105.2 11 C 108.9 11 111.6 12.9 111.9 16.4 C 111.9 16.4 108.1 16.4 108.1 16.4 C 108 14.8 106.8 14.2 105.2 14.2 C 103.3 14.2 102.5 15.1 102.5 16 C 102.5 17.3 104 17.5 105.9 17.8 C 108.8 18.2 112.3 18.6 112.3 22.4 Z M 123.6 3.9 L 126.6 1.6 L 131 8.4 L 127.8 8.4 L 123.6 3.9 Z M 134.9 16.6 C 134.91 16.56 134.9 27.3 134.9 27.3 L 131.1 27.3 C 131.1 27.3 131.14 25 131.1 25 C 129.9 27 128 27.7 126.3 27.7 C 123.7 27.7 121.1 26.2 121.1 22.7 C 121.1 20.2 122.5 18.4 126.2 17.9 C 126.2 17.9 129.7 17.4 129.7 17.4 C 130.6 17.3 131.3 17 131.3 16 C 131.3 14.6 130.1 14.1 128.6 14.1 C 126.5 14.1 125.6 15.1 125.5 16.4 C 125.5 16.4 121.7 16.4 121.7 16.4 C 122.1 12.7 125.1 11 128.8 11 C 132.5 11 134.9 12.8 134.9 16.6 Z M 131.2 20.6 C 131.2 20.6 131.2 19.7 131.2 19.7 C 130.8 20 130.1 20.1 129.3 20.2 C 129.3 20.2 127.5 20.4 127.5 20.4 C 125.6 20.7 125 21.5 125 22.5 C 125 23.8 125.9 24.4 127.2 24.4 C 129.2 24.4 131.2 23 131.2 20.6 Z " stroke="none" fill="#000"/>  </g></svg>