<?xml version="1.0" standalone="no"?><!DOCTYPE svg PUBLIC "-//W3C//DTD SVG 1.1//EN" "http://www.w3.org/Graphics/SVG/1.1/DTD/svg11.dtd"><svg xmlns="http://www.w3.org/2000/svg" version="1.1" width="304px" height="205.4px" viewBox="0 -4 304 205.4" style="top:-4px">  <desc>There seems to be consensus that the US dollar will weaken in 2021 What currency positioning makes sense for a euro</desc>  <defs/>  <g id="Polygon10552">    <path d="M 3.3 115.6 C 3.4 117.5 4.7 118.4 6.3 118.4 C 7.4 118.4 8.5 118 8.8 116.9 C 8.8 116.9 11.4 116.9 11.4 116.9 C 10.9 119.5 8.6 120.8 6.2 120.8 C 3.4 120.8 0.6 118.9 0.6 114.8 C 0.6 110.8 3.3 108.8 6.2 108.8 C 9 108.8 11.4 110.6 11.4 114.5 C 11.4 114.49 11.4 115.6 11.4 115.6 C 11.4 115.6 3.34 115.63 3.3 115.6 Z M 3.4 113.6 C 3.4 113.6 8.7 113.6 8.7 113.6 C 8.7 112.1 7.6 111.2 6.2 111.2 C 4.9 111.2 3.7 111.9 3.4 113.6 Z M 23.5 120.6 L 20.8 120.6 C 20.8 120.6 20.81 118.94 20.8 118.9 C 20.1 120 19.1 120.7 17.5 120.7 C 15.1 120.7 13.3 119.2 13.3 116.2 C 13.29 116.19 13.3 109 13.3 109 L 16.1 109 C 16.1 109 16.09 115.98 16.1 116 C 16.1 117.6 16.9 118.2 18.1 118.2 C 19.6 118.2 20.7 117.3 20.7 114.6 C 20.75 114.6 20.7 109 20.7 109 L 23.5 109 L 23.5 120.6 Z M 32.8 111.6 C 32.8 111.6 32.09 111.57 32.1 111.6 C 30.1 111.6 29.1 112.6 29.1 114.9 C 29.06 114.91 29.1 120.6 29.1 120.6 L 26.3 120.6 L 26.3 109 L 29 109 C 29 109 29.04 110.65 29 110.6 C 29.6 109.4 30.7 108.9 32.1 108.9 C 32.07 108.86 32.8 108.9 32.8 108.9 L 32.8 111.6 Z M 44.6 114.8 C 44.6 118.6 42.1 120.8 38.9 120.8 C 35.7 120.8 33.2 118.6 33.2 114.8 C 33.2 111 35.7 108.8 38.9 108.8 C 42.1 108.8 44.6 111 44.6 114.8 Z M 36.1 114.8 C 36.1 117.1 37.4 118.2 38.9 118.2 C 40.6 118.2 41.7 117 41.7 114.8 C 41.7 112.5 40.4 111.4 38.9 111.4 C 37.2 111.4 36.1 112.6 36.1 114.8 Z M 51.7 107.5 L 54.7 107.5 L 54.7 104.3 L 51.7 104.3 L 51.7 107.5 Z M 51.8 109 L 54.6 109 L 54.6 120.6 L 51.8 120.6 L 51.8 109 Z M 67.5 113.1 C 67.47 113.11 67.5 120.6 67.5 120.6 L 64.7 120.6 C 64.7 120.6 64.68 113.36 64.7 113.4 C 64.7 112.1 63.9 111.3 62.6 111.3 C 61 111.3 60.1 112.4 60.1 114.3 C 60.08 114.32 60.1 120.6 60.1 120.6 L 57.3 120.6 L 57.3 109 L 60.1 109 C 60.1 109 60.06 110.67 60.1 110.7 C 60.7 109.6 61.7 108.8 63.6 108.8 C 66.2 108.8 67.5 110.3 67.5 113.1 Z M 76 120.6 L 73 120.6 L 68.7 109 L 71.7 109 L 74.5 117.3 L 77.4 109 L 80.3 109 L 76 120.6 Z M 83.4 115.6 C 83.5 117.5 84.8 118.4 86.4 118.4 C 87.5 118.4 88.5 118 88.9 116.9 C 88.9 116.9 91.4 116.9 91.4 116.9 C 90.9 119.5 88.6 120.8 86.3 120.8 C 83.5 120.8 80.7 118.9 80.7 114.8 C 80.7 110.8 83.3 108.8 86.3 108.8 C 89.1 108.8 91.5 110.6 91.5 114.5 C 91.48 114.49 91.5 115.6 91.5 115.6 C 91.5 115.6 83.41 115.63 83.4 115.6 Z M 83.5 113.6 C 83.5 113.6 88.7 113.6 88.7 113.6 C 88.7 112.1 87.7 111.2 86.2 111.2 C 85 111.2 83.7 111.9 83.5 113.6 Z M 102.7 117 C 102.7 119.6 100.4 120.8 97.8 120.8 C 95.4 120.8 92.8 119.8 92.6 116.9 C 92.6 116.9 95.4 116.9 95.4 116.9 C 95.6 118 96.7 118.5 98 118.5 C 99.1 118.5 100 118.1 100 117.3 C 100 116.5 99.4 116.4 97.8 116.1 C 95.6 115.7 93 115.3 93 112.5 C 93 109.9 95.2 108.8 97.6 108.8 C 100.3 108.8 102.3 110.1 102.5 112.7 C 102.5 112.7 99.7 112.7 99.7 112.7 C 99.6 111.6 98.8 111.1 97.6 111.1 C 96.2 111.1 95.7 111.7 95.7 112.4 C 95.7 113.3 96.7 113.5 98.1 113.7 C 100.2 114 102.7 114.3 102.7 117 Z M 110.5 120.6 C 110.5 120.6 108.72 120.58 108.7 120.6 C 106.6 120.6 105.2 119.9 105.2 116.8 C 105.17 116.8 105.2 111.5 105.2 111.5 L 103 111.5 L 103 109 L 105.2 109 L 105.2 106.4 L 108 105.6 L 108 109 L 110.3 109 L 110.3 111.5 L 108 111.5 C 108 111.5 107.96 116.93 108 116.9 C 108 117.6 108.1 118.1 109.1 118.1 C 109.14 118.1 110.5 118.1 110.5 118.1 L 110.5 120.6 Z M 122.7 114.8 C 122.7 118.6 120.3 120.8 117 120.8 C 113.8 120.8 111.4 118.6 111.4 114.8 C 111.4 111 113.8 108.8 117 108.8 C 120.3 108.8 122.7 111 122.7 114.8 Z M 114.2 114.8 C 114.2 117.1 115.5 118.2 117.1 118.2 C 118.7 118.2 119.8 117 119.8 114.8 C 119.8 112.5 118.6 111.4 117 111.4 C 115.4 111.4 114.2 112.6 114.2 114.8 Z M 131.2 111.6 C 131.2 111.6 130.51 111.57 130.5 111.6 C 128.6 111.6 127.5 112.6 127.5 114.9 C 127.49 114.91 127.5 120.6 127.5 120.6 L 124.7 120.6 L 124.7 109 L 127.5 109 C 127.5 109 127.47 110.65 127.5 110.6 C 128.1 109.4 129.1 108.9 130.5 108.9 C 130.49 108.86 131.2 108.9 131.2 108.9 L 131.2 111.6 Z M 137.5 107.5 L 140.5 107.5 L 140.5 104.3 L 137.5 104.3 L 137.5 107.5 Z M 137.6 109 L 140.4 109 L 140.4 120.6 L 137.6 120.6 L 137.6 109 Z M 153.3 113.1 C 153.32 113.11 153.3 120.6 153.3 120.6 L 150.5 120.6 C 150.5 120.6 150.53 113.36 150.5 113.4 C 150.5 112.1 149.8 111.3 148.5 111.3 C 146.9 111.3 145.9 112.4 145.9 114.3 C 145.93 114.32 145.9 120.6 145.9 120.6 L 143.1 120.6 L 143.1 109 L 145.9 109 C 145.9 109 145.91 110.67 145.9 110.7 C 146.6 109.6 147.5 108.8 149.4 108.8 C 152.1 108.8 153.3 110.3 153.3 113.1 Z M 172.3 120.6 L 161 120.6 L 161 118 C 161 118 164.76 114.87 164.8 114.9 C 167.7 112.5 168.9 111.3 168.9 109.7 C 168.9 108.3 167.9 107.5 166.4 107.5 C 164.8 107.5 163.7 108.4 163.6 110.3 C 163.6 110.3 160.8 110.3 160.8 110.3 C 160.8 106.7 163.5 104.8 166.6 104.8 C 169.5 104.8 171.9 106.4 171.9 109.5 C 171.9 112.2 169.9 114 167.1 116.2 C 167.14 116.21 164.9 118 164.9 118 L 172.3 118 L 172.3 120.6 Z M 173.6 112.9 C 173.6 108 175.3 104.8 179.1 104.8 C 182.9 104.8 184.7 108 184.7 112.8 C 184.7 117.7 182.9 120.8 179.1 120.8 C 175.3 120.8 173.6 117.7 173.6 112.9 Z M 181.9 112.9 C 181.9 109.8 181.1 107.3 179.1 107.3 C 177.3 107.3 176.4 109.3 176.4 112.7 C 176.4 116.2 177.3 118.4 179.2 118.4 C 181 118.4 181.9 116.1 181.9 112.9 Z M 197.5 120.6 L 186.2 120.6 L 186.2 118 C 186.2 118 189.96 114.87 190 114.9 C 192.9 112.5 194.1 111.3 194.1 109.7 C 194.1 108.3 193.1 107.5 191.6 107.5 C 190 107.5 188.9 108.4 188.8 110.3 C 188.8 110.3 186 110.3 186 110.3 C 186 106.7 188.7 104.8 191.8 104.8 C 194.7 104.8 197.1 106.4 197.1 109.5 C 197.1 112.2 195.1 114 192.3 116.2 C 192.34 116.21 190.1 118 190.1 118 L 197.5 118 L 197.5 120.6 Z M 209.7 118 L 209.7 120.6 L 199.3 120.6 L 199.3 118 L 203.1 118 C 203.1 118 203.09 108.76 203.1 108.8 C 201.8 109.5 200.4 109.9 199.3 110 C 199.3 110 199.3 107.2 199.3 107.2 C 200.7 107 202.2 106.4 203.5 105.1 C 203.51 105.1 205.9 105.1 205.9 105.1 L 205.9 118 L 209.7 118 Z M 214.8 115 C 214.8 112.3 216.1 111.8 217.4 110.9 C 218.4 110.2 218.8 109.6 218.8 108.8 C 218.8 107.6 218 107 216.8 107 C 215.3 107 214.4 107.8 214.3 109.2 C 214.3 109.2 211.5 109.2 211.5 109.2 C 211.8 105.8 214.2 104.6 216.8 104.6 C 219.6 104.6 221.8 105.9 221.8 108.7 C 221.8 110.9 220.5 111.8 219 112.8 C 218 113.6 217.5 114.1 217.5 115 C 217.45 115.04 217.5 115.7 217.5 115.7 L 214.8 115.7 C 214.8 115.7 214.78 114.95 214.8 115 Z M 214.6 117.3 L 217.7 117.3 L 217.7 120.6 L 214.6 120.6 L 214.6 117.3 Z " stroke="none" fill="#000"/>  </g>  <g id="Polygon10551">    <path d="M 12.7 89.4 C 12.7 93.6 10.1 95.5 7.4 95.5 C 5.9 95.5 4.8 94.8 4.2 94 C 4.16 94 4.2 99.7 4.2 99.7 L 1.4 99.7 L 1.4 83.8 L 4.1 83.8 C 4.1 83.8 4.09 85.64 4.1 85.6 C 4.7 84.4 6 83.6 7.7 83.6 C 10.4 83.6 12.7 85.5 12.7 89.4 Z M 9.9 89.6 C 9.9 87.2 8.5 86.1 7 86.1 C 5.5 86.1 4.1 87.2 4.1 89.6 C 4.1 91.9 5.5 93 7 93 C 8.5 93 9.9 91.9 9.9 89.6 Z M 25.3 89.6 C 25.3 93.4 22.9 95.6 19.7 95.6 C 16.4 95.6 14 93.4 14 89.6 C 14 85.8 16.4 83.6 19.7 83.6 C 22.9 83.6 25.3 85.8 25.3 89.6 Z M 16.9 89.6 C 16.9 91.9 18.1 93 19.7 93 C 21.4 93 22.5 91.8 22.5 89.6 C 22.5 87.3 21.2 86.2 19.6 86.2 C 18 86.2 16.9 87.4 16.9 89.6 Z M 36.6 91.8 C 36.6 94.4 34.3 95.6 31.7 95.6 C 29.3 95.6 26.7 94.6 26.5 91.7 C 26.5 91.7 29.3 91.7 29.3 91.7 C 29.5 92.8 30.5 93.3 31.8 93.3 C 33 93.3 33.8 92.9 33.8 92.1 C 33.8 91.3 33.3 91.2 31.7 90.9 C 29.4 90.5 26.8 90.1 26.8 87.3 C 26.8 84.7 29 83.6 31.4 83.6 C 34.1 83.6 36.1 84.9 36.3 87.5 C 36.3 87.5 33.6 87.5 33.6 87.5 C 33.5 86.4 32.7 85.9 31.5 85.9 C 30.1 85.9 29.5 86.5 29.5 87.2 C 29.5 88.1 30.6 88.3 32 88.5 C 34.1 88.8 36.6 89.1 36.6 91.8 Z M 38.4 82.3 L 41.3 82.3 L 41.3 79.1 L 38.4 79.1 L 38.4 82.3 Z M 38.5 83.8 L 41.2 83.8 L 41.2 95.4 L 38.5 95.4 L 38.5 83.8 Z M 49.9 95.4 C 49.9 95.4 48.05 95.38 48 95.4 C 45.9 95.4 44.5 94.7 44.5 91.6 C 44.5 91.6 44.5 86.3 44.5 86.3 L 42.4 86.3 L 42.4 83.8 L 44.5 83.8 L 44.5 81.2 L 47.3 80.4 L 47.3 83.8 L 49.6 83.8 L 49.6 86.3 L 47.3 86.3 C 47.3 86.3 47.29 91.73 47.3 91.7 C 47.3 92.4 47.5 92.9 48.5 92.9 C 48.47 92.9 49.9 92.9 49.9 92.9 L 49.9 95.4 Z M 51.3 82.3 L 54.3 82.3 L 54.3 79.1 L 51.3 79.1 L 51.3 82.3 Z M 51.4 83.8 L 54.2 83.8 L 54.2 95.4 L 51.4 95.4 L 51.4 83.8 Z M 67.5 89.6 C 67.5 93.4 65.1 95.6 61.8 95.6 C 58.6 95.6 56.2 93.4 56.2 89.6 C 56.2 85.8 58.6 83.6 61.8 83.6 C 65.1 83.6 67.5 85.8 67.5 89.6 Z M 59.1 89.6 C 59.1 91.9 60.3 93 61.9 93 C 63.5 93 64.7 91.8 64.7 89.6 C 64.7 87.3 63.4 86.2 61.8 86.2 C 60.2 86.2 59.1 87.4 59.1 89.6 Z M 79.7 87.9 C 79.69 87.91 79.7 95.4 79.7 95.4 L 76.9 95.4 C 76.9 95.4 76.9 88.16 76.9 88.2 C 76.9 86.9 76.2 86.1 74.9 86.1 C 73.3 86.1 72.3 87.2 72.3 89.1 C 72.3 89.12 72.3 95.4 72.3 95.4 L 69.5 95.4 L 69.5 83.8 L 72.3 83.8 C 72.3 83.8 72.28 85.47 72.3 85.5 C 72.9 84.4 73.9 83.6 75.8 83.6 C 78.5 83.6 79.7 85.1 79.7 87.9 Z M 82.2 82.3 L 85.2 82.3 L 85.2 79.1 L 82.2 79.1 L 82.2 82.3 Z M 82.3 83.8 L 85.1 83.8 L 85.1 95.4 L 82.3 95.4 L 82.3 83.8 Z M 98 87.9 C 97.98 87.91 98 95.4 98 95.4 L 95.2 95.4 C 95.2 95.4 95.19 88.16 95.2 88.2 C 95.2 86.9 94.5 86.1 93.2 86.1 C 91.6 86.1 90.6 87.2 90.6 89.1 C 90.59 89.12 90.6 95.4 90.6 95.4 L 87.8 95.4 L 87.8 83.8 L 90.6 83.8 C 90.6 83.8 90.57 85.47 90.6 85.5 C 91.2 84.4 92.2 83.6 94.1 83.6 C 96.7 83.6 98 85.1 98 87.9 Z M 111 94.6 C 111 98.3 108.7 100 105.5 100 C 102.7 100 100.4 98.6 100 95.7 C 100 95.7 102.8 95.7 102.8 95.7 C 103 97.2 104.2 97.6 105.5 97.6 C 107.3 97.6 108.4 96.7 108.4 94.9 C 108.4 94.9 108.4 93 108.4 93 C 107.8 94.2 106.7 95 104.9 95 C 102.3 95 99.9 93.2 99.9 89.3 C 99.9 85.4 102.3 83.6 104.9 83.6 C 106.6 83.6 107.8 84.3 108.4 85.4 C 108.36 85.41 108.4 83.8 108.4 83.8 L 111 83.8 C 111 83.8 111.05 94.6 111 94.6 Z M 108.3 89.3 C 108.3 87.1 107 86 105.5 86 C 104 86 102.6 87.1 102.6 89.3 C 102.6 91.5 104 92.5 105.5 92.5 C 107 92.5 108.3 91.5 108.3 89.3 Z M 135.7 87.6 C 135.7 87.57 135.7 95.4 135.7 95.4 L 132.9 95.4 C 132.9 95.4 132.91 88.12 132.9 88.1 C 132.9 86.7 132.3 86.1 131.1 86.1 C 129.8 86.1 128.9 86.9 128.9 88.9 C 128.92 88.87 128.9 95.4 128.9 95.4 L 126.1 95.4 C 126.1 95.4 126.12 88.12 126.1 88.1 C 126.1 86.7 125.4 86.1 124.3 86.1 C 123 86.1 122.1 86.9 122.1 88.9 C 122.13 88.85 122.1 95.4 122.1 95.4 L 119.3 95.4 L 119.3 83.8 L 122.1 83.8 C 122.1 83.8 122.09 85.49 122.1 85.5 C 122.4 84.6 123.3 83.6 125.1 83.6 C 126.6 83.6 127.7 84.3 128.3 85.5 C 128.7 84.7 129.6 83.6 131.7 83.6 C 134.1 83.6 135.7 85.1 135.7 87.6 Z M 147.6 87.6 C 147.59 87.59 147.6 95.4 147.6 95.4 L 144.9 95.4 C 144.9 95.4 144.86 93.7 144.9 93.7 C 144 95.2 142.6 95.6 141.3 95.6 C 139.5 95.6 137.6 94.5 137.6 92 C 137.6 90.2 138.6 89 141.3 88.6 C 141.3 88.6 143.8 88.2 143.8 88.2 C 144.5 88.1 145 87.9 145 87.2 C 145 86.2 144.1 85.8 143 85.8 C 141.5 85.8 140.8 86.5 140.7 87.5 C 140.7 87.5 138.1 87.5 138.1 87.5 C 138.3 84.8 140.5 83.6 143.1 83.6 C 145.9 83.6 147.6 84.9 147.6 87.6 Z M 144.9 90.5 C 144.9 90.5 144.9 89.9 144.9 89.9 C 144.6 90 144.1 90.2 143.5 90.2 C 143.5 90.2 142.3 90.4 142.3 90.4 C 140.8 90.6 140.4 91.2 140.4 91.9 C 140.4 92.8 141 93.3 142 93.3 C 143.4 93.3 144.9 92.2 144.9 90.5 Z M 154.2 90.9 L 152.9 92.3 L 152.9 95.4 L 150.1 95.4 L 150.1 79.4 L 152.9 79.4 L 152.9 88.5 L 157 83.8 L 160.7 83.8 L 156.1 88.8 L 160.9 95.4 L 157.4 95.4 L 154.2 90.9 Z M 163.8 90.4 C 163.8 92.3 165.2 93.2 166.8 93.2 C 167.9 93.2 168.9 92.8 169.2 91.7 C 169.2 91.7 171.8 91.7 171.8 91.7 C 171.3 94.3 169 95.6 166.6 95.6 C 163.8 95.6 161.1 93.7 161.1 89.6 C 161.1 85.6 163.7 83.6 166.7 83.6 C 169.5 83.6 171.8 85.4 171.8 89.3 C 171.84 89.29 171.8 90.4 171.8 90.4 C 171.8 90.4 163.78 90.43 163.8 90.4 Z M 163.8 88.4 C 163.8 88.4 169.1 88.4 169.1 88.4 C 169.1 86.9 168 86 166.6 86 C 165.3 86 164.1 86.7 163.8 88.4 Z M 183.1 91.8 C 183.1 94.4 180.8 95.6 178.2 95.6 C 175.8 95.6 173.2 94.6 173 91.7 C 173 91.7 175.8 91.7 175.8 91.7 C 176 92.8 177 93.3 178.3 93.3 C 179.5 93.3 180.3 92.9 180.3 92.1 C 180.3 91.3 179.8 91.2 178.2 90.9 C 175.9 90.5 173.4 90.1 173.4 87.3 C 173.4 84.7 175.6 83.6 178 83.6 C 180.7 83.6 182.7 84.9 182.8 87.5 C 182.8 87.5 180.1 87.5 180.1 87.5 C 180 86.4 179.2 85.9 178 85.9 C 176.6 85.9 176.1 86.5 176.1 87.2 C 176.1 88.1 177.1 88.3 178.5 88.5 C 180.6 88.8 183.1 89.1 183.1 91.8 Z M 199.1 91.8 C 199.1 94.4 196.8 95.6 194.2 95.6 C 191.8 95.6 189.2 94.6 189 91.7 C 189 91.7 191.8 91.7 191.8 91.7 C 192 92.8 193 93.3 194.3 93.3 C 195.5 93.3 196.3 92.9 196.3 92.1 C 196.3 91.3 195.8 91.2 194.2 90.9 C 191.9 90.5 189.3 90.1 189.3 87.3 C 189.3 84.7 191.5 83.6 193.9 83.6 C 196.6 83.6 198.6 84.9 198.8 87.5 C 198.8 87.5 196.1 87.5 196.1 87.5 C 196 86.4 195.2 85.9 194 85.9 C 192.6 85.9 192 86.5 192 87.2 C 192 88.1 193.1 88.3 194.5 88.5 C 196.6 88.8 199.1 89.1 199.1 91.8 Z M 202.9 90.4 C 203 92.3 204.3 93.2 205.9 93.2 C 207 93.2 208.1 92.8 208.4 91.7 C 208.4 91.7 211 91.7 211 91.7 C 210.5 94.3 208.2 95.6 205.8 95.6 C 203 95.6 200.2 93.7 200.2 89.6 C 200.2 85.6 202.9 83.6 205.8 83.6 C 208.6 83.6 211 85.4 211 89.3 C 211 89.29 211 90.4 211 90.4 C 211 90.4 202.94 90.43 202.9 90.4 Z M 203 88.4 C 203 88.4 208.3 88.4 208.3 88.4 C 208.3 86.9 207.2 86 205.8 86 C 204.5 86 203.3 86.7 203 88.4 Z M 223.2 87.9 C 223.18 87.91 223.2 95.4 223.2 95.4 L 220.4 95.4 C 220.4 95.4 220.39 88.16 220.4 88.2 C 220.4 86.9 219.7 86.1 218.4 86.1 C 216.8 86.1 215.8 87.2 215.8 89.1 C 215.79 89.12 215.8 95.4 215.8 95.4 L 213 95.4 L 213 83.8 L 215.8 83.8 C 215.8 83.8 215.77 85.47 215.8 85.5 C 216.4 84.4 217.4 83.6 219.3 83.6 C 221.9 83.6 223.2 85.1 223.2 87.9 Z M 235.1 91.8 C 235.1 94.4 232.8 95.6 230.2 95.6 C 227.8 95.6 225.2 94.6 225 91.7 C 225 91.7 227.8 91.7 227.8 91.7 C 228 92.8 229 93.3 230.3 93.3 C 231.5 93.3 232.3 92.9 232.3 92.1 C 232.3 91.3 231.8 91.2 230.2 90.9 C 227.9 90.5 225.3 90.1 225.3 87.3 C 225.3 84.7 227.5 83.6 229.9 83.6 C 232.6 83.6 234.6 84.9 234.8 87.5 C 234.8 87.5 232.1 87.5 232.1 87.5 C 232 86.4 231.1 85.9 230 85.9 C 228.6 85.9 228 86.5 228 87.2 C 228 88.1 229.1 88.3 230.5 88.5 C 232.6 88.8 235.1 89.1 235.1 91.8 Z M 238.9 90.4 C 239 92.3 240.3 93.2 241.9 93.2 C 243 93.2 244.1 92.8 244.4 91.7 C 244.4 91.7 247 91.7 247 91.7 C 246.5 94.3 244.2 95.6 241.8 95.6 C 239 95.6 236.2 93.7 236.2 89.6 C 236.2 85.6 238.9 83.6 241.8 83.6 C 244.6 83.6 247 85.4 247 89.3 C 247 89.29 247 90.4 247 90.4 C 247 90.4 238.93 90.43 238.9 90.4 Z M 239 88.4 C 239 88.4 244.3 88.4 244.3 88.4 C 244.3 86.9 243.2 86 241.8 86 C 240.5 86 239.2 86.7 239 88.4 Z M 258.4 81.9 C 257.4 81.9 257.2 82.3 257.2 83 C 257.18 83.03 257.2 83.8 257.2 83.8 L 259.3 83.8 L 259.3 86.3 L 257.2 86.3 L 257.2 95.4 L 254.4 95.4 L 254.4 86.3 L 252.7 86.3 L 252.7 83.8 L 254.4 83.8 C 254.4 83.8 254.39 83.16 254.4 83.2 C 254.4 80.1 255.8 79.4 257.9 79.4 C 257.94 79.38 259.6 79.4 259.6 79.4 L 259.6 81.9 C 259.6 81.9 258.36 81.86 258.4 81.9 Z M 271.4 89.6 C 271.4 93.4 268.9 95.6 265.7 95.6 C 262.5 95.6 260 93.4 260 89.6 C 260 85.8 262.5 83.6 265.7 83.6 C 268.9 83.6 271.4 85.8 271.4 89.6 Z M 262.9 89.6 C 262.9 91.9 264.2 93 265.7 93 C 267.4 93 268.5 91.8 268.5 89.6 C 268.5 87.3 267.2 86.2 265.7 86.2 C 264 86.2 262.9 87.4 262.9 89.6 Z M 279.9 86.4 C 279.9 86.4 279.17 86.37 279.2 86.4 C 277.2 86.4 276.1 87.4 276.1 89.7 C 276.15 89.71 276.1 95.4 276.1 95.4 L 273.4 95.4 L 273.4 83.8 L 276.1 83.8 C 276.1 83.8 276.13 85.45 276.1 85.4 C 276.7 84.2 277.8 83.7 279.1 83.7 C 279.15 83.66 279.9 83.7 279.9 83.7 L 279.9 86.4 Z M 295.6 87.6 C 295.57 87.59 295.6 95.4 295.6 95.4 L 292.8 95.4 C 292.8 95.4 292.84 93.7 292.8 93.7 C 291.9 95.2 290.6 95.6 289.3 95.6 C 287.5 95.6 285.6 94.5 285.6 92 C 285.6 90.2 286.6 89 289.3 88.6 C 289.3 88.6 291.8 88.2 291.8 88.2 C 292.5 88.1 292.9 87.9 292.9 87.2 C 292.9 86.2 292.1 85.8 291 85.8 C 289.5 85.8 288.8 86.5 288.7 87.5 C 288.7 87.5 286 87.5 286 87.5 C 286.3 84.8 288.5 83.6 291.1 83.6 C 293.8 83.6 295.6 84.9 295.6 87.6 Z M 292.9 90.5 C 292.9 90.5 292.9 89.9 292.9 89.9 C 292.6 90 292.1 90.2 291.5 90.2 C 291.5 90.2 290.2 90.4 290.2 90.4 C 288.8 90.6 288.4 91.2 288.4 91.9 C 288.4 92.8 289 93.3 290 93.3 C 291.4 93.3 292.9 92.2 292.9 90.5 Z " stroke="none" fill="#000"/>  </g>  <g id="Polygon10550">    <path d="M 1.3 57.1 L 4.2 57.1 L 4.2 53.9 L 1.3 53.9 L 1.3 57.1 Z M 1.3 58.6 L 4.1 58.6 L 4.1 70.2 L 1.3 70.2 L 1.3 58.6 Z M 17 62.7 C 17.03 62.71 17 70.2 17 70.2 L 14.2 70.2 C 14.2 70.2 14.24 62.96 14.2 63 C 14.2 61.7 13.5 60.9 12.2 60.9 C 10.6 60.9 9.6 62 9.6 63.9 C 9.64 63.92 9.6 70.2 9.6 70.2 L 6.8 70.2 L 6.8 58.6 L 9.6 58.6 C 9.6 58.6 9.62 60.27 9.6 60.3 C 10.3 59.2 11.2 58.4 13.1 58.4 C 15.8 58.4 17 59.9 17 62.7 Z M 36 70.2 L 24.7 70.2 L 24.7 67.6 C 24.7 67.6 28.48 64.47 28.5 64.5 C 31.4 62.1 32.7 60.9 32.7 59.3 C 32.7 57.9 31.6 57.1 30.1 57.1 C 28.5 57.1 27.4 58 27.3 59.9 C 27.3 59.9 24.5 59.9 24.5 59.9 C 24.5 56.3 27.2 54.4 30.3 54.4 C 33.2 54.4 35.6 56 35.6 59.1 C 35.6 61.8 33.6 63.6 30.8 65.8 C 30.85 65.81 28.6 67.6 28.6 67.6 L 36 67.6 L 36 70.2 Z M 37.4 62.5 C 37.4 57.6 39 54.4 42.9 54.4 C 46.7 54.4 48.4 57.6 48.4 62.4 C 48.4 67.3 46.6 70.4 42.8 70.4 C 39 70.4 37.4 67.3 37.4 62.5 Z M 45.6 62.5 C 45.6 59.4 44.8 56.9 42.8 56.9 C 41 56.9 40.2 58.9 40.2 62.3 C 40.2 65.8 41.1 68 42.9 68 C 44.7 68 45.6 65.7 45.6 62.5 Z M 61.2 70.2 L 49.9 70.2 L 49.9 67.6 C 49.9 67.6 53.67 64.47 53.7 64.5 C 56.6 62.1 57.9 60.9 57.9 59.3 C 57.9 57.9 56.8 57.1 55.3 57.1 C 53.7 57.1 52.6 58 52.5 59.9 C 52.5 59.9 49.7 59.9 49.7 59.9 C 49.7 56.3 52.4 54.4 55.5 54.4 C 58.4 54.4 60.8 56 60.8 59.1 C 60.8 61.8 58.8 63.6 56 65.8 C 56.05 65.81 53.8 67.6 53.8 67.6 L 61.2 67.6 L 61.2 70.2 Z M 73.4 67.6 L 73.4 70.2 L 63 70.2 L 63 67.6 L 66.8 67.6 C 66.8 67.6 66.8 58.36 66.8 58.4 C 65.6 59.1 64.1 59.5 63 59.6 C 63 59.6 63 56.8 63 56.8 C 64.4 56.6 65.9 56 67.2 54.7 C 67.22 54.7 69.6 54.7 69.6 54.7 L 69.6 67.6 L 73.4 67.6 Z M 75 66.9 L 78.1 66.9 L 78.1 70.2 L 75 70.2 L 75 66.9 Z M 100.4 70.2 L 97.5 70.2 L 94.2 58.9 L 90.9 70.2 L 88 70.2 L 83.9 54.4 L 87 54.4 L 89.6 65.4 L 92.8 54.4 L 95.7 54.4 L 98.9 65.5 L 101.5 54.4 L 104.5 54.4 L 100.4 70.2 Z M 116.4 62.7 C 116.38 62.71 116.4 70.2 116.4 70.2 L 113.6 70.2 C 113.6 70.2 113.59 62.96 113.6 63 C 113.6 61.7 112.9 60.9 111.6 60.9 C 110 60.9 109 62 109 63.9 C 108.99 63.92 109 70.2 109 70.2 L 106.2 70.2 L 106.2 54.2 L 109 54.2 C 109 54.2 108.99 60.23 109 60.2 C 109.7 59.1 110.6 58.4 112.5 58.4 C 115.1 58.4 116.4 59.9 116.4 62.7 Z M 128.3 62.4 C 128.27 62.39 128.3 70.2 128.3 70.2 L 125.5 70.2 C 125.5 70.2 125.54 68.5 125.5 68.5 C 124.6 70 123.2 70.4 122 70.4 C 120.2 70.4 118.3 69.3 118.3 66.8 C 118.3 65 119.3 63.8 122 63.4 C 122 63.4 124.5 63 124.5 63 C 125.2 62.9 125.6 62.7 125.6 62 C 125.6 61 124.8 60.6 123.7 60.6 C 122.2 60.6 121.5 61.3 121.4 62.3 C 121.4 62.3 118.7 62.3 118.7 62.3 C 119 59.6 121.2 58.4 123.8 58.4 C 126.5 58.4 128.3 59.7 128.3 62.4 Z M 125.6 65.3 C 125.6 65.3 125.6 64.7 125.6 64.7 C 125.3 64.8 124.8 65 124.2 65 C 124.2 65 122.9 65.2 122.9 65.2 C 121.5 65.4 121.1 66 121.1 66.7 C 121.1 67.6 121.7 68.1 122.7 68.1 C 124.1 68.1 125.6 67 125.6 65.3 Z M 136.7 70.2 C 136.7 70.2 134.88 70.18 134.9 70.2 C 132.7 70.2 131.3 69.5 131.3 66.4 C 131.33 66.4 131.3 61.1 131.3 61.1 L 129.2 61.1 L 129.2 58.6 L 131.3 58.6 L 131.3 56 L 134.1 55.2 L 134.1 58.6 L 136.4 58.6 L 136.4 61.1 L 134.1 61.1 C 134.1 61.1 134.12 66.53 134.1 66.5 C 134.1 67.2 134.3 67.7 135.3 67.7 C 135.3 67.7 136.7 67.7 136.7 67.7 L 136.7 70.2 Z M 148.2 70.4 C 144.4 70.4 142.6 67.5 142.6 64.4 C 142.6 61.3 144.4 58.4 148.2 58.4 C 151.1 58.4 153.2 60 153.3 62.8 C 153.3 62.8 150.6 62.8 150.6 62.8 C 150.4 61.7 149.6 60.9 148.3 60.9 C 146.2 60.9 145.4 62.6 145.4 64.4 C 145.4 66.3 146.3 67.8 148.3 67.8 C 149.6 67.8 150.4 67.1 150.6 66.1 C 150.6 66.1 153.4 66.1 153.4 66.1 C 153 68.9 151 70.4 148.2 70.4 Z M 165.5 70.2 L 162.8 70.2 C 162.8 70.2 162.81 68.54 162.8 68.5 C 162.1 69.6 161.1 70.3 159.5 70.3 C 157.1 70.3 155.3 68.8 155.3 65.8 C 155.29 65.79 155.3 58.6 155.3 58.6 L 158.1 58.6 C 158.1 58.6 158.09 65.58 158.1 65.6 C 158.1 67.2 158.9 67.8 160.1 67.8 C 161.6 67.8 162.7 66.9 162.7 64.2 C 162.75 64.2 162.7 58.6 162.7 58.6 L 165.5 58.6 L 165.5 70.2 Z M 174.8 61.2 C 174.8 61.2 174.09 61.17 174.1 61.2 C 172.1 61.2 171.1 62.2 171.1 64.5 C 171.06 64.51 171.1 70.2 171.1 70.2 L 168.3 70.2 L 168.3 58.6 L 171 58.6 C 171 58.6 171.04 60.25 171 60.2 C 171.6 59 172.7 58.5 174.1 58.5 C 174.07 58.46 174.8 58.5 174.8 58.5 L 174.8 61.2 Z M 182.7 61.2 C 182.7 61.2 182 61.17 182 61.2 C 180.1 61.2 179 62.2 179 64.5 C 178.98 64.51 179 70.2 179 70.2 L 176.2 70.2 L 176.2 58.6 L 179 58.6 C 179 58.6 178.96 60.25 179 60.2 C 179.5 59 180.6 58.5 182 58.5 C 181.98 58.46 182.7 58.5 182.7 58.5 L 182.7 61.2 Z M 185.9 65.2 C 185.9 67.1 187.3 68 188.9 68 C 189.9 68 191 67.6 191.3 66.5 C 191.3 66.5 193.9 66.5 193.9 66.5 C 193.4 69.1 191.1 70.4 188.7 70.4 C 185.9 70.4 183.2 68.5 183.2 64.4 C 183.2 60.4 185.8 58.4 188.7 58.4 C 191.6 58.4 193.9 60.2 193.9 64.1 C 193.93 64.09 193.9 65.2 193.9 65.2 C 193.9 65.2 185.87 65.23 185.9 65.2 Z M 185.9 63.2 C 185.9 63.2 191.2 63.2 191.2 63.2 C 191.2 61.7 190.1 60.8 188.7 60.8 C 187.4 60.8 186.2 61.5 185.9 63.2 Z M 206.1 62.7 C 206.11 62.71 206.1 70.2 206.1 70.2 L 203.3 70.2 C 203.3 70.2 203.32 62.96 203.3 63 C 203.3 61.7 202.6 60.9 201.3 60.9 C 199.7 60.9 198.7 62 198.7 63.9 C 198.72 63.92 198.7 70.2 198.7 70.2 L 195.9 70.2 L 195.9 58.6 L 198.7 58.6 C 198.7 58.6 198.7 60.27 198.7 60.3 C 199.4 59.2 200.3 58.4 202.2 58.4 C 204.9 58.4 206.1 59.9 206.1 62.7 Z M 213.6 70.4 C 209.8 70.4 208 67.5 208 64.4 C 208 61.3 209.8 58.4 213.6 58.4 C 216.5 58.4 218.6 60 218.7 62.8 C 218.7 62.8 216 62.8 216 62.8 C 215.9 61.7 215.1 60.9 213.7 60.9 C 211.7 60.9 210.8 62.6 210.8 64.4 C 210.8 66.3 211.7 67.8 213.7 67.8 C 215 67.8 215.8 67.1 216 66.1 C 216 66.1 218.8 66.1 218.8 66.1 C 218.4 68.9 216.4 70.4 213.6 70.4 Z M 230.7 58.6 C 230.7 58.6 225.71 71.92 225.7 71.9 C 225.2 73.3 224 73.9 222.4 73.9 C 222.43 73.88 220.7 73.9 220.7 73.9 L 220.7 71.4 C 220.7 71.4 221.95 71.4 221.9 71.4 C 222.9 71.4 223.3 71.1 223.6 70.3 C 223.61 70.27 223.8 69.7 223.8 69.7 L 219.4 58.6 L 222.4 58.6 L 225.2 66.2 L 227.9 58.6 L 230.7 58.6 Z " stroke="none" fill="#000"/>  </g>  <g id="Polygon10549">    <path d="M 7.3 45 C 7.3 45 5.46 44.98 5.5 45 C 3.3 45 1.9 44.3 1.9 41.2 C 1.91 41.2 1.9 35.9 1.9 35.9 L -0.2 35.9 L -0.2 33.4 L 1.9 33.4 L 1.9 30.8 L 4.7 30 L 4.7 33.4 L 7 33.4 L 7 35.9 L 4.7 35.9 C 4.7 35.9 4.7 41.33 4.7 41.3 C 4.7 42 4.9 42.5 5.9 42.5 C 5.88 42.5 7.3 42.5 7.3 42.5 L 7.3 45 Z M 19 37.5 C 19.05 37.51 19 45 19 45 L 16.3 45 C 16.3 45 16.25 37.76 16.3 37.8 C 16.3 36.5 15.5 35.7 14.2 35.7 C 12.6 35.7 11.7 36.8 11.7 38.7 C 11.65 38.72 11.7 45 11.7 45 L 8.9 45 L 8.9 29 L 11.7 29 C 11.7 29 11.65 35.03 11.7 35 C 12.3 33.9 13.3 33.2 15.2 33.2 C 17.8 33.2 19 34.7 19 37.5 Z M 30.9 37.2 C 30.93 37.19 30.9 45 30.9 45 L 28.2 45 C 28.2 45 28.2 43.3 28.2 43.3 C 27.3 44.8 25.9 45.2 24.7 45.2 C 22.8 45.2 20.9 44.1 20.9 41.6 C 20.9 39.8 22 38.6 24.6 38.2 C 24.6 38.2 27.1 37.8 27.1 37.8 C 27.8 37.7 28.3 37.5 28.3 36.8 C 28.3 35.8 27.5 35.4 26.4 35.4 C 24.9 35.4 24.2 36.1 24.1 37.1 C 24.1 37.1 21.4 37.1 21.4 37.1 C 21.7 34.4 23.9 33.2 26.5 33.2 C 29.2 33.2 30.9 34.5 30.9 37.2 Z M 28.2 40.1 C 28.2 40.1 28.2 39.5 28.2 39.5 C 28 39.6 27.4 39.8 26.9 39.8 C 26.9 39.8 25.6 40 25.6 40 C 24.2 40.2 23.7 40.8 23.7 41.5 C 23.7 42.4 24.4 42.9 25.3 42.9 C 26.8 42.9 28.2 41.8 28.2 40.1 Z M 39.4 45 C 39.4 45 37.55 44.98 37.5 45 C 35.4 45 34 44.3 34 41.2 C 34 41.2 34 35.9 34 35.9 L 31.9 35.9 L 31.9 33.4 L 34 33.4 L 34 30.8 L 36.8 30 L 36.8 33.4 L 39.1 33.4 L 39.1 35.9 L 36.8 35.9 C 36.8 35.9 36.79 41.33 36.8 41.3 C 36.8 42 37 42.5 38 42.5 C 37.97 42.5 39.4 42.5 39.4 42.5 L 39.4 45 Z M 52.1 45 C 52.1 45 50.29 44.98 50.3 45 C 48.1 45 46.7 44.3 46.7 41.2 C 46.75 41.2 46.7 35.9 46.7 35.9 L 44.6 35.9 L 44.6 33.4 L 46.7 33.4 L 46.7 30.8 L 49.5 30 L 49.5 33.4 L 51.8 33.4 L 51.8 35.9 L 49.5 35.9 C 49.5 35.9 49.54 41.33 49.5 41.3 C 49.5 42 49.7 42.5 50.7 42.5 C 50.71 42.5 52.1 42.5 52.1 42.5 L 52.1 45 Z M 63.9 37.5 C 63.88 37.51 63.9 45 63.9 45 L 61.1 45 C 61.1 45 61.09 37.76 61.1 37.8 C 61.1 36.5 60.4 35.7 59.1 35.7 C 57.5 35.7 56.5 36.8 56.5 38.7 C 56.49 38.72 56.5 45 56.5 45 L 53.7 45 L 53.7 29 L 56.5 29 C 56.5 29 56.49 35.03 56.5 35 C 57.2 33.9 58.1 33.2 60 33.2 C 62.6 33.2 63.9 34.7 63.9 37.5 Z M 68.5 40 C 68.5 41.9 69.9 42.8 71.5 42.8 C 72.6 42.8 73.6 42.4 73.9 41.3 C 73.9 41.3 76.5 41.3 76.5 41.3 C 76 43.9 73.7 45.2 71.3 45.2 C 68.5 45.2 65.8 43.3 65.8 39.2 C 65.8 35.2 68.4 33.2 71.4 33.2 C 74.2 33.2 76.5 35 76.5 38.9 C 76.54 38.89 76.5 40 76.5 40 C 76.5 40 68.48 40.03 68.5 40 Z M 68.5 38 C 68.5 38 73.8 38 73.8 38 C 73.8 36.5 72.7 35.6 71.3 35.6 C 70 35.6 68.8 36.3 68.5 38 Z M 96.3 29.2 C 96.3 29.2 96.28 38.95 96.3 39 C 96.3 43.3 93.7 45.4 90 45.4 C 86.2 45.4 83.6 43.3 83.6 39 C 83.58 38.95 83.6 29.2 83.6 29.2 L 86.5 29.2 C 86.5 29.2 86.5 38.81 86.5 38.8 C 86.5 41.3 87.9 42.6 90 42.6 C 92.1 42.6 93.4 41.5 93.4 39.1 C 93.41 39.08 93.4 29.2 93.4 29.2 L 96.3 29.2 Z M 104.9 45.4 C 101.6 45.4 98.4 43.6 98.4 39.6 C 98.4 39.6 101.3 39.6 101.3 39.6 C 101.4 42 103.2 42.9 104.9 42.9 C 106.4 42.9 107.7 42.1 107.7 40.8 C 107.7 39.2 106 38.8 104.1 38.4 C 101.9 37.9 98.9 37.1 98.9 33.7 C 98.9 30.4 101.6 28.9 104.6 28.9 C 107.6 28.9 110.4 30.4 110.4 33.6 C 110.4 33.6 107.4 33.6 107.4 33.6 C 107.4 32 106 31.4 104.5 31.4 C 103 31.4 101.8 32.1 101.8 33.5 C 101.8 35 103.2 35.4 105 35.8 C 107 36.3 110.6 36.9 110.6 40.6 C 110.6 43.7 108 45.4 104.9 45.4 Z M 128.2 45 L 125.5 45 C 125.5 45 125.49 43.2 125.5 43.2 C 124.9 44.5 123.5 45.2 121.9 45.2 C 119.2 45.2 116.8 43.2 116.8 39.2 C 116.8 35.2 119.2 33.2 121.9 33.2 C 123.4 33.2 124.7 33.8 125.4 34.9 C 125.43 34.92 125.4 29 125.4 29 L 128.2 29 L 128.2 45 Z M 125.5 39.2 C 125.5 36.8 124.1 35.7 122.6 35.7 C 121.1 35.7 119.7 36.8 119.7 39.2 C 119.7 41.5 121.1 42.7 122.6 42.7 C 124.1 42.7 125.5 41.5 125.5 39.2 Z M 141.5 39.2 C 141.5 43 139.1 45.2 135.9 45.2 C 132.6 45.2 130.2 43 130.2 39.2 C 130.2 35.4 132.6 33.2 135.9 33.2 C 139.1 33.2 141.5 35.4 141.5 39.2 Z M 133.1 39.2 C 133.1 41.5 134.4 42.6 135.9 42.6 C 137.6 42.6 138.7 41.4 138.7 39.2 C 138.7 36.9 137.4 35.8 135.8 35.8 C 134.2 35.8 133.1 37 133.1 39.2 Z M 146.3 45 L 143.5 45 L 143.5 29 L 146.3 29 L 146.3 45 Z M 151.8 45 L 149.1 45 L 149.1 29 L 151.8 29 L 151.8 45 Z M 163.8 37.2 C 163.84 37.19 163.8 45 163.8 45 L 161.1 45 C 161.1 45 161.11 43.3 161.1 43.3 C 160.2 44.8 158.8 45.2 157.6 45.2 C 155.8 45.2 153.8 44.1 153.8 41.6 C 153.8 39.8 154.9 38.6 157.5 38.2 C 157.5 38.2 160 37.8 160 37.8 C 160.7 37.7 161.2 37.5 161.2 36.8 C 161.2 35.8 160.4 35.4 159.3 35.4 C 157.8 35.4 157.1 36.1 157 37.1 C 157 37.1 154.3 37.1 154.3 37.1 C 154.6 34.4 156.8 33.2 159.4 33.2 C 162.1 33.2 163.8 34.5 163.8 37.2 Z M 161.1 40.1 C 161.1 40.1 161.1 39.5 161.1 39.5 C 160.9 39.6 160.3 39.8 159.8 39.8 C 159.8 39.8 158.5 40 158.5 40 C 157.1 40.2 156.6 40.8 156.6 41.5 C 156.6 42.4 157.3 42.9 158.3 42.9 C 159.7 42.9 161.1 41.8 161.1 40.1 Z M 172.9 36 C 172.9 36 172.18 35.97 172.2 36 C 170.2 36 169.2 37 169.2 39.3 C 169.15 39.31 169.2 45 169.2 45 L 166.4 45 L 166.4 33.4 L 169.1 33.4 C 169.1 33.4 169.13 35.05 169.1 35 C 169.7 33.8 170.8 33.3 172.2 33.3 C 172.16 33.26 172.9 33.3 172.9 33.3 L 172.9 36 Z M 191.6 45 L 188.9 45 L 186.5 37.6 L 184.2 45 L 181.5 45 L 177.6 33.4 L 180.6 33.4 L 182.9 41.1 L 185.2 33.4 L 187.9 33.4 L 190.3 41.1 L 192.6 33.4 L 195.4 33.4 L 191.6 45 Z M 196.8 31.9 L 199.8 31.9 L 199.8 28.7 L 196.8 28.7 L 196.8 31.9 Z M 196.9 33.4 L 199.7 33.4 L 199.7 45 L 196.9 45 L 196.9 33.4 Z M 205.2 45 L 202.4 45 L 202.4 29 L 205.2 29 L 205.2 45 Z M 210.7 45 L 207.9 45 L 207.9 29 L 210.7 29 L 210.7 45 Z M 231.4 45 L 228.7 45 L 226.3 37.6 L 224 45 L 221.3 45 L 217.4 33.4 L 220.4 33.4 L 222.7 41.1 L 225 33.4 L 227.7 33.4 L 230.1 41.1 L 232.4 33.4 L 235.2 33.4 L 231.4 45 Z M 238.5 40 C 238.5 41.9 239.9 42.8 241.5 42.8 C 242.5 42.8 243.6 42.4 243.9 41.3 C 243.9 41.3 246.5 41.3 246.5 41.3 C 246 43.9 243.7 45.2 241.3 45.2 C 238.5 45.2 235.8 43.3 235.8 39.2 C 235.8 35.2 238.4 33.2 241.3 33.2 C 244.2 33.2 246.5 35 246.5 38.9 C 246.54 38.89 246.5 40 246.5 40 C 246.5 40 238.47 40.03 238.5 40 Z M 238.5 38 C 238.5 38 243.8 38 243.8 38 C 243.8 36.5 242.7 35.6 241.3 35.6 C 240 35.6 238.8 36.3 238.5 38 Z M 257.8 37.2 C 257.79 37.19 257.8 45 257.8 45 L 255.1 45 C 255.1 45 255.06 43.3 255.1 43.3 C 254.2 44.8 252.8 45.2 251.6 45.2 C 249.7 45.2 247.8 44.1 247.8 41.6 C 247.8 39.8 248.8 38.6 251.5 38.2 C 251.5 38.2 254 37.8 254 37.8 C 254.7 37.7 255.2 37.5 255.2 36.8 C 255.2 35.8 254.3 35.4 253.2 35.4 C 251.7 35.4 251.1 36.1 250.9 37.1 C 250.9 37.1 248.3 37.1 248.3 37.1 C 248.6 34.4 250.7 33.2 253.3 33.2 C 256.1 33.2 257.8 34.5 257.8 37.2 Z M 255.1 40.1 C 255.1 40.1 255.1 39.5 255.1 39.5 C 254.8 39.6 254.3 39.8 253.7 39.8 C 253.7 39.8 252.5 40 252.5 40 C 251.1 40.2 250.6 40.8 250.6 41.5 C 250.6 42.4 251.2 42.9 252.2 42.9 C 253.7 42.9 255.1 41.8 255.1 40.1 Z M 264.4 40.5 L 263.1 41.9 L 263.1 45 L 260.3 45 L 260.3 29 L 263.1 29 L 263.1 38.1 L 267.2 33.4 L 270.9 33.4 L 266.3 38.4 L 271.1 45 L 267.6 45 L 264.4 40.5 Z M 274 40 C 274 41.9 275.4 42.8 277 42.8 C 278.1 42.8 279.1 42.4 279.4 41.3 C 279.4 41.3 282 41.3 282 41.3 C 281.5 43.9 279.2 45.2 276.8 45.2 C 274 45.2 271.3 43.3 271.3 39.2 C 271.3 35.2 273.9 33.2 276.9 33.2 C 279.7 33.2 282 35 282 38.9 C 282.05 38.89 282 40 282 40 C 282 40 273.98 40.03 274 40 Z M 274 38 C 274 38 279.3 38 279.3 38 C 279.3 36.5 278.2 35.6 276.8 35.6 C 275.5 35.6 274.3 36.3 274 38 Z M 294.2 37.5 C 294.23 37.51 294.2 45 294.2 45 L 291.4 45 C 291.4 45 291.43 37.76 291.4 37.8 C 291.4 36.5 290.7 35.7 289.4 35.7 C 287.8 35.7 286.8 36.8 286.8 38.7 C 286.83 38.72 286.8 45 286.8 45 L 284 45 L 284 33.4 L 286.8 33.4 C 286.8 33.4 286.81 35.07 286.8 35.1 C 287.5 34 288.4 33.2 290.3 33.2 C 293 33.2 294.2 34.7 294.2 37.5 Z " stroke="none" fill="#000"/>  </g>  <g id="Polygon10548">    <path d="M 13.2 6.8 L 8 6.8 L 8 19.8 L 5.1 19.8 L 5.1 6.8 L 0 6.8 L 0 4 L 13.2 4 L 13.2 6.8 Z M 24.7 12.3 C 24.74 12.31 24.7 19.8 24.7 19.8 L 21.9 19.8 C 21.9 19.8 21.94 12.56 21.9 12.6 C 21.9 11.3 21.2 10.5 19.9 10.5 C 18.3 10.5 17.3 11.6 17.3 13.5 C 17.35 13.52 17.3 19.8 17.3 19.8 L 14.6 19.8 L 14.6 3.8 L 17.3 3.8 C 17.3 3.8 17.35 9.83 17.3 9.8 C 18 8.7 19 8 20.9 8 C 23.5 8 24.7 9.5 24.7 12.3 Z M 29.3 14.8 C 29.4 16.7 30.7 17.6 32.3 17.6 C 33.4 17.6 34.5 17.2 34.8 16.1 C 34.8 16.1 37.4 16.1 37.4 16.1 C 36.9 18.7 34.6 20 32.2 20 C 29.4 20 26.6 18.1 26.6 14 C 26.6 10 29.3 8 32.2 8 C 35 8 37.4 9.8 37.4 13.7 C 37.4 13.69 37.4 14.8 37.4 14.8 C 37.4 14.8 29.34 14.83 29.3 14.8 Z M 29.4 12.8 C 29.4 12.8 34.7 12.8 34.7 12.8 C 34.7 11.3 33.6 10.4 32.2 10.4 C 30.9 10.4 29.7 11.1 29.4 12.8 Z M 45.9 10.8 C 45.9 10.8 45.21 10.77 45.2 10.8 C 43.3 10.8 42.2 11.8 42.2 14.1 C 42.19 14.11 42.2 19.8 42.2 19.8 L 39.4 19.8 L 39.4 8.2 L 42.2 8.2 C 42.2 8.2 42.17 9.85 42.2 9.8 C 42.8 8.6 43.8 8.1 45.2 8.1 C 45.19 8.06 45.9 8.1 45.9 8.1 L 45.9 10.8 Z M 49.1 14.8 C 49.1 16.7 50.5 17.6 52.1 17.6 C 53.2 17.6 54.2 17.2 54.5 16.1 C 54.5 16.1 57.1 16.1 57.1 16.1 C 56.6 18.7 54.3 20 51.9 20 C 49.1 20 46.4 18.1 46.4 14 C 46.4 10 49 8 52 8 C 54.8 8 57.1 9.8 57.1 13.7 C 57.14 13.69 57.1 14.8 57.1 14.8 C 57.1 14.8 49.08 14.83 49.1 14.8 Z M 49.1 12.8 C 49.1 12.8 54.4 12.8 54.4 12.8 C 54.4 11.3 53.3 10.4 51.9 10.4 C 50.6 10.4 49.4 11.1 49.1 12.8 Z M 73.2 16.2 C 73.2 18.8 70.9 20 68.3 20 C 65.9 20 63.3 19 63.1 16.1 C 63.1 16.1 65.9 16.1 65.9 16.1 C 66.1 17.2 67.2 17.7 68.5 17.7 C 69.6 17.7 70.5 17.3 70.5 16.5 C 70.5 15.7 69.9 15.6 68.3 15.3 C 66.1 14.9 63.5 14.5 63.5 11.7 C 63.5 9.1 65.7 8 68.1 8 C 70.8 8 72.8 9.3 73 11.9 C 73 11.9 70.2 11.9 70.2 11.9 C 70.1 10.8 69.3 10.3 68.1 10.3 C 66.7 10.3 66.2 10.9 66.2 11.6 C 66.2 12.5 67.2 12.7 68.6 12.9 C 70.7 13.2 73.2 13.5 73.2 16.2 Z M 77.1 14.8 C 77.2 16.7 78.5 17.6 80.1 17.6 C 81.2 17.6 82.2 17.2 82.6 16.1 C 82.6 16.1 85.1 16.1 85.1 16.1 C 84.6 18.7 82.3 20 79.9 20 C 77.2 20 74.4 18.1 74.4 14 C 74.4 10 77 8 80 8 C 82.8 8 85.2 9.8 85.2 13.7 C 85.15 13.69 85.2 14.8 85.2 14.8 C 85.2 14.8 77.09 14.83 77.1 14.8 Z M 77.2 12.8 C 77.2 12.8 82.4 12.8 82.4 12.8 C 82.4 11.3 81.4 10.4 79.9 10.4 C 78.6 10.4 77.4 11.1 77.2 12.8 Z M 89.1 14.8 C 89.2 16.7 90.5 17.6 92.1 17.6 C 93.2 17.6 94.2 17.2 94.6 16.1 C 94.6 16.1 97.1 16.1 97.1 16.1 C 96.6 18.7 94.4 20 92 20 C 89.2 20 86.4 18.1 86.4 14 C 86.4 10 89 8 92 8 C 94.8 8 97.2 9.8 97.2 13.7 C 97.19 13.69 97.2 14.8 97.2 14.8 C 97.2 14.8 89.12 14.83 89.1 14.8 Z M 89.2 12.8 C 89.2 12.8 94.5 12.8 94.5 12.8 C 94.5 11.3 93.4 10.4 92 10.4 C 90.7 10.4 89.4 11.1 89.2 12.8 Z M 115.5 12 C 115.54 11.97 115.5 19.8 115.5 19.8 L 112.7 19.8 C 112.7 19.8 112.75 12.52 112.7 12.5 C 112.7 11.1 112.1 10.5 110.9 10.5 C 109.6 10.5 108.8 11.3 108.8 13.3 C 108.76 13.27 108.8 19.8 108.8 19.8 L 106 19.8 C 106 19.8 105.97 12.52 106 12.5 C 106 11.1 105.3 10.5 104.1 10.5 C 102.8 10.5 102 11.3 102 13.3 C 101.98 13.25 102 19.8 102 19.8 L 99.2 19.8 L 99.2 8.2 L 101.9 8.2 C 101.9 8.2 101.93 9.89 101.9 9.9 C 102.3 9 103.2 8 104.9 8 C 106.4 8 107.6 8.7 108.1 9.9 C 108.6 9.1 109.4 8 111.5 8 C 114 8 115.5 9.5 115.5 12 Z M 127.4 16.2 C 127.4 18.8 125.1 20 122.5 20 C 120.1 20 117.5 19 117.3 16.1 C 117.3 16.1 120.1 16.1 120.1 16.1 C 120.3 17.2 121.4 17.7 122.7 17.7 C 123.8 17.7 124.7 17.3 124.7 16.5 C 124.7 15.7 124.1 15.6 122.5 15.3 C 120.3 14.9 117.7 14.5 117.7 11.7 C 117.7 9.1 119.9 8 122.3 8 C 125 8 127 9.3 127.2 11.9 C 127.2 11.9 124.4 11.9 124.4 11.9 C 124.3 10.8 123.5 10.3 122.3 10.3 C 120.9 10.3 120.4 10.9 120.4 11.6 C 120.4 12.5 121.4 12.7 122.8 12.9 C 124.9 13.2 127.4 13.5 127.4 16.2 Z M 140.3 19.8 C 140.3 19.8 138.45 19.78 138.5 19.8 C 136.3 19.8 134.9 19.1 134.9 16 C 134.9 16 134.9 10.7 134.9 10.7 L 132.8 10.7 L 132.8 8.2 L 134.9 8.2 L 134.9 5.6 L 137.7 4.8 L 137.7 8.2 L 140 8.2 L 140 10.7 L 137.7 10.7 C 137.7 10.7 137.7 16.13 137.7 16.1 C 137.7 16.8 137.9 17.3 138.9 17.3 C 138.87 17.3 140.3 17.3 140.3 17.3 L 140.3 19.8 Z M 152.4 14 C 152.4 17.8 150 20 146.8 20 C 143.5 20 141.1 17.8 141.1 14 C 141.1 10.2 143.5 8 146.8 8 C 150 8 152.4 10.2 152.4 14 Z M 144 14 C 144 16.3 145.3 17.4 146.8 17.4 C 148.5 17.4 149.6 16.2 149.6 14 C 149.6 11.7 148.3 10.6 146.7 10.6 C 145.1 10.6 144 11.8 144 14 Z M 171.1 14 C 171.1 18.1 168.6 20 165.9 20 C 164.4 20 163.1 19.5 162.4 18.4 C 162.41 18.4 162.4 19.8 162.4 19.8 L 159.7 19.8 L 159.7 3.8 L 162.5 3.8 C 162.5 3.8 162.48 9.89 162.5 9.9 C 163.1 8.7 164.5 8 166 8 C 168.7 8 171.1 10 171.1 14 Z M 168.2 14 C 168.2 11.7 166.8 10.5 165.3 10.5 C 163.8 10.5 162.4 11.7 162.4 14 C 162.4 16.4 163.8 17.6 165.3 17.6 C 166.8 17.6 168.2 16.4 168.2 14 Z M 175 14.8 C 175.1 16.7 176.4 17.6 178 17.6 C 179.1 17.6 180.2 17.2 180.5 16.1 C 180.5 16.1 183.1 16.1 183.1 16.1 C 182.6 18.7 180.3 20 177.9 20 C 175.1 20 172.3 18.1 172.3 14 C 172.3 10 174.9 8 177.9 8 C 180.7 8 183.1 9.8 183.1 13.7 C 183.1 13.69 183.1 14.8 183.1 14.8 C 183.1 14.8 175.03 14.83 175 14.8 Z M 175.1 12.8 C 175.1 12.8 180.4 12.8 180.4 12.8 C 180.4 11.3 179.3 10.4 177.9 10.4 C 176.6 10.4 175.3 11.1 175.1 12.8 Z M 194.8 20 C 191 20 189.2 17.1 189.2 14 C 189.2 10.9 191 8 194.8 8 C 197.7 8 199.8 9.6 199.9 12.4 C 199.9 12.4 197.2 12.4 197.2 12.4 C 197 11.3 196.2 10.5 194.9 10.5 C 192.8 10.5 192 12.2 192 14 C 192 15.9 192.9 17.4 194.9 17.4 C 196.2 17.4 197 16.7 197.2 15.7 C 197.2 15.7 200 15.7 200 15.7 C 199.6 18.5 197.6 20 194.8 20 Z M 212.6 14 C 212.6 17.8 210.2 20 206.9 20 C 203.7 20 201.3 17.8 201.3 14 C 201.3 10.2 203.7 8 206.9 8 C 210.2 8 212.6 10.2 212.6 14 Z M 204.1 14 C 204.1 16.3 205.4 17.4 207 17.4 C 208.6 17.4 209.7 16.2 209.7 14 C 209.7 11.7 208.4 10.6 206.9 10.6 C 205.2 10.6 204.1 11.8 204.1 14 Z M 224.8 12.3 C 224.76 12.31 224.8 19.8 224.8 19.8 L 222 19.8 C 222 19.8 221.97 12.56 222 12.6 C 222 11.3 221.2 10.5 219.9 10.5 C 218.3 10.5 217.4 11.6 217.4 13.5 C 217.37 13.52 217.4 19.8 217.4 19.8 L 214.6 19.8 L 214.6 8.2 L 217.3 8.2 C 217.3 8.2 217.35 9.87 217.3 9.9 C 218 8.8 218.9 8 220.9 8 C 223.5 8 224.8 9.5 224.8 12.3 Z M 236.6 16.2 C 236.6 18.8 234.3 20 231.7 20 C 229.3 20 226.7 19 226.5 16.1 C 226.5 16.1 229.4 16.1 229.4 16.1 C 229.5 17.2 230.6 17.7 231.9 17.7 C 233.1 17.7 233.9 17.3 233.9 16.5 C 233.9 15.7 233.4 15.6 231.8 15.3 C 229.5 14.9 226.9 14.5 226.9 11.7 C 226.9 9.1 229.1 8 231.5 8 C 234.2 8 236.2 9.3 236.4 11.9 C 236.4 11.9 233.6 11.9 233.6 11.9 C 233.5 10.8 232.7 10.3 231.5 10.3 C 230.2 10.3 229.6 10.9 229.6 11.6 C 229.6 12.5 230.6 12.7 232 12.9 C 234.1 13.2 236.6 13.5 236.6 16.2 Z M 240.5 14.8 C 240.6 16.7 241.9 17.6 243.5 17.6 C 244.6 17.6 245.6 17.2 246 16.1 C 246 16.1 248.5 16.1 248.5 16.1 C 248 18.7 245.7 20 243.4 20 C 240.6 20 237.8 18.1 237.8 14 C 237.8 10 240.4 8 243.4 8 C 246.2 8 248.6 9.8 248.6 13.7 C 248.58 13.69 248.6 14.8 248.6 14.8 C 248.6 14.8 240.51 14.83 240.5 14.8 Z M 240.6 12.8 C 240.6 12.8 245.8 12.8 245.8 12.8 C 245.8 11.3 244.8 10.4 243.3 10.4 C 242.1 10.4 240.8 11.1 240.6 12.8 Z M 260.8 12.3 C 260.76 12.31 260.8 19.8 260.8 19.8 L 258 19.8 C 258 19.8 257.96 12.56 258 12.6 C 258 11.3 257.2 10.5 255.9 10.5 C 254.3 10.5 253.4 11.6 253.4 13.5 C 253.36 13.52 253.4 19.8 253.4 19.8 L 250.6 19.8 L 250.6 8.2 L 253.3 8.2 C 253.3 8.2 253.34 9.87 253.3 9.9 C 254 8.8 254.9 8 256.9 8 C 259.5 8 260.8 9.5 260.8 12.3 Z M 272.6 16.2 C 272.6 18.8 270.3 20 267.7 20 C 265.3 20 262.7 19 262.5 16.1 C 262.5 16.1 265.4 16.1 265.4 16.1 C 265.5 17.2 266.6 17.7 267.9 17.7 C 269.1 17.7 269.9 17.3 269.9 16.5 C 269.9 15.7 269.3 15.6 267.7 15.3 C 265.5 14.9 262.9 14.5 262.9 11.7 C 262.9 9.1 265.1 8 267.5 8 C 270.2 8 272.2 9.3 272.4 11.9 C 272.4 11.9 269.6 11.9 269.6 11.9 C 269.5 10.8 268.7 10.3 267.5 10.3 C 266.2 10.3 265.6 10.9 265.6 11.6 C 265.6 12.5 266.6 12.7 268 12.9 C 270.1 13.2 272.6 13.5 272.6 16.2 Z M 284.7 19.8 L 281.9 19.8 C 281.9 19.8 281.94 18.14 281.9 18.1 C 281.3 19.2 280.2 19.9 278.6 19.9 C 276.2 19.9 274.4 18.4 274.4 15.4 C 274.43 15.39 274.4 8.2 274.4 8.2 L 277.2 8.2 C 277.2 8.2 277.22 15.18 277.2 15.2 C 277.2 16.8 278 17.4 279.2 17.4 C 280.7 17.4 281.9 16.5 281.9 13.8 C 281.88 13.8 281.9 8.2 281.9 8.2 L 284.7 8.2 L 284.7 19.8 Z M 296.7 16.2 C 296.7 18.8 294.4 20 291.8 20 C 289.4 20 286.8 19 286.6 16.1 C 286.6 16.1 289.4 16.1 289.4 16.1 C 289.6 17.2 290.6 17.7 291.9 17.7 C 293.1 17.7 293.9 17.3 293.9 16.5 C 293.9 15.7 293.4 15.6 291.8 15.3 C 289.5 14.9 286.9 14.5 286.9 11.7 C 286.9 9.1 289.1 8 291.5 8 C 294.2 8 296.2 9.3 296.4 11.9 C 296.4 11.9 293.7 11.9 293.7 11.9 C 293.6 10.8 292.7 10.3 291.6 10.3 C 290.2 10.3 289.6 10.9 289.6 11.6 C 289.6 12.5 290.7 12.7 292.1 12.9 C 294.1 13.2 296.7 13.5 296.7 16.2 Z " stroke="none" fill="#000"/>  </g></svg>