<?xml version="1.0" standalone="no"?><!DOCTYPE svg PUBLIC "-//W3C//DTD SVG 1.1//EN" "http://www.w3.org/Graphics/SVG/1.1/DTD/svg11.dtd"><svg xmlns="http://www.w3.org/2000/svg" version="1.1" width="70.4px" height="53.7px" viewBox="0 -1 70.4 53.7" style="top:-1px">  <desc>4 5M</desc>  <defs/>  <g id="Polygon13013">    <path d="M 15.1 27.7 L 15.1 32 L 11.1 32 L 11.1 27.7 L 1 27.7 L 1 24.5 L 10.8 9.9 L 15.1 9.9 L 15.1 24 L 18 24 L 18 27.7 L 15.1 27.7 Z M 11.1 24 L 11.1 15.3 L 5.3 24 L 11.1 24 Z M 19.4 27.4 L 23.9 27.4 L 23.9 32 L 19.4 32 L 19.4 27.4 Z M 41.8 24.5 C 41.8 28.4 39.2 32.4 33.9 32.4 C 29.6 32.4 25.8 29.8 25.8 24.7 C 25.8 24.7 29.8 24.7 29.8 24.7 C 29.8 27.7 31.6 28.9 33.9 28.9 C 36.6 28.9 38 27 38 24.8 C 38 22.8 36.7 20.8 34 20.8 C 32.8 20.8 31.6 21.2 30.7 22 C 30.7 22.04 26.6 22 26.6 22 L 28.6 9.9 L 40.7 9.9 L 40.7 13.6 L 31.7 13.6 C 31.7 13.6 30.88 18.47 30.9 18.5 C 31.9 17.5 33.2 17.1 34.7 17.1 C 39.4 17.1 41.8 20.8 41.8 24.5 Z M 68.2 32 L 64.2 32 L 64.2 16.5 L 58.5 32 L 54.7 32 L 48.9 16.5 L 48.9 32 L 45.1 32 L 45.1 9.5 L 50.4 9.5 L 56.6 26.1 L 62.9 9.5 L 68.2 9.5 L 68.2 32 Z " stroke="none" fill="#000"/>  </g></svg>