<?xml version="1.0" standalone="no"?><!DOCTYPE svg PUBLIC "-//W3C//DTD SVG 1.1//EN" "http://www.w3.org/Graphics/SVG/1.1/DTD/svg11.dtd"><svg xmlns="http://www.w3.org/2000/svg" version="1.1" width="418px" height="90.4px" viewBox="0 -4 418 90.4" style="top:-4px"> <desc>With interest rates so low (and even negative), what role does Fixed Income have in a portfolio</desc> <defs/> <g id="Polygon9746">  <path d="M 4.6 70.2 L 1.7 70.2 L 1.7 54.4 L 4.6 54.4 L 4.6 70.2 Z M 17.8 62.7 C 17.83 62.71 17.8 70.2 17.8 70.2 L 15 70.2 C 15 70.2 15.04 62.96 15 63 C 15 61.7 14.3 60.9 13 60.9 C 11.4 60.9 10.4 62 10.4 63.9 C 10.44 63.92 10.4 70.2 10.4 70.2 L 7.6 70.2 L 7.6 58.6 L 10.4 58.6 C 10.4 58.6 10.42 60.27 10.4 60.3 C 11.1 59.2 12 58.4 13.9 58.4 C 16.6 58.4 17.8 59.9 17.8 62.7 Z M 25.3 70.4 C 21.5 70.4 19.7 67.5 19.7 64.4 C 19.7 61.3 21.5 58.4 25.3 58.4 C 28.2 58.4 30.3 60 30.4 62.8 C 30.4 62.8 27.7 62.8 27.7 62.8 C 27.6 61.7 26.8 60.9 25.4 60.9 C 23.4 60.9 22.5 62.6 22.5 64.4 C 22.5 66.3 23.4 67.8 25.4 67.8 C 26.7 67.8 27.6 67.1 27.7 66.1 C 27.7 66.1 30.5 66.1 30.5 66.1 C 30.2 68.9 28.1 70.4 25.3 70.4 Z M 43.1 64.4 C 43.1 68.2 40.7 70.4 37.4 70.4 C 34.2 70.4 31.8 68.2 31.8 64.4 C 31.8 60.6 34.2 58.4 37.4 58.4 C 40.7 58.4 43.1 60.6 43.1 64.4 Z M 34.6 64.4 C 34.6 66.7 35.9 67.8 37.5 67.8 C 39.1 67.8 40.3 66.6 40.3 64.4 C 40.3 62.1 39 61 37.4 61 C 35.8 61 34.6 62.2 34.6 64.4 Z M 61.5 62.4 C 61.47 62.37 61.5 70.2 61.5 70.2 L 58.7 70.2 C 58.7 70.2 58.67 62.92 58.7 62.9 C 58.7 61.5 58 60.9 56.9 60.9 C 55.5 60.9 54.7 61.7 54.7 63.7 C 54.68 63.67 54.7 70.2 54.7 70.2 L 51.9 70.2 C 51.9 70.2 51.89 62.92 51.9 62.9 C 51.9 61.5 51.2 60.9 50.1 60.9 C 48.8 60.9 47.9 61.7 47.9 63.7 C 47.9 63.65 47.9 70.2 47.9 70.2 L 45.1 70.2 L 45.1 58.6 L 47.9 58.6 C 47.9 58.6 47.86 60.29 47.9 60.3 C 48.2 59.4 49.1 58.4 50.9 58.4 C 52.4 58.4 53.5 59.1 54.1 60.3 C 54.5 59.5 55.3 58.4 57.4 58.4 C 59.9 58.4 61.5 59.9 61.5 62.4 Z M 66.1 65.2 C 66.1 67.1 67.5 68 69 68 C 70.1 68 71.2 67.6 71.5 66.5 C 71.5 66.5 74.1 66.5 74.1 66.5 C 73.6 69.1 71.3 70.4 68.9 70.4 C 66.1 70.4 63.4 68.5 63.4 64.4 C 63.4 60.4 66 58.4 68.9 58.4 C 71.8 58.4 74.1 60.2 74.1 64.1 C 74.13 64.09 74.1 65.2 74.1 65.2 C 74.1 65.2 66.07 65.23 66.1 65.2 Z M 66.1 63.2 C 66.1 63.2 71.4 63.2 71.4 63.2 C 71.4 61.7 70.3 60.8 68.9 60.8 C 67.6 60.8 66.4 61.5 66.1 63.2 Z M 91.6 62.7 C 91.56 62.71 91.6 70.2 91.6 70.2 L 88.8 70.2 C 88.8 70.2 88.77 62.96 88.8 63 C 88.8 61.7 88 60.9 86.7 60.9 C 85.1 60.9 84.2 62 84.2 63.9 C 84.17 63.92 84.2 70.2 84.2 70.2 L 81.4 70.2 L 81.4 54.2 L 84.2 54.2 C 84.2 54.2 84.17 60.23 84.2 60.2 C 84.8 59.1 85.8 58.4 87.7 58.4 C 90.3 58.4 91.6 59.9 91.6 62.7 Z M 103.4 62.4 C 103.44 62.39 103.4 70.2 103.4 70.2 L 100.7 70.2 C 100.7 70.2 100.71 68.5 100.7 68.5 C 99.8 70 98.4 70.4 97.2 70.4 C 95.4 70.4 93.4 69.3 93.4 66.8 C 93.4 65 94.5 63.8 97.1 63.4 C 97.1 63.4 99.6 63 99.6 63 C 100.3 62.9 100.8 62.7 100.8 62 C 100.8 61 100 60.6 98.9 60.6 C 97.4 60.6 96.7 61.3 96.6 62.3 C 96.6 62.3 93.9 62.3 93.9 62.3 C 94.2 59.6 96.4 58.4 99 58.4 C 101.7 58.4 103.4 59.7 103.4 62.4 Z M 100.7 65.3 C 100.7 65.3 100.7 64.7 100.7 64.7 C 100.5 64.8 99.9 65 99.4 65 C 99.4 65 98.1 65.2 98.1 65.2 C 96.7 65.4 96.2 66 96.2 66.7 C 96.2 67.6 96.9 68.1 97.9 68.1 C 99.3 68.1 100.7 67 100.7 65.3 Z M 111.8 70.2 L 108.9 70.2 L 104.6 58.6 L 107.6 58.6 L 110.4 66.9 L 113.3 58.6 L 116.1 58.6 L 111.8 70.2 Z M 119.3 65.2 C 119.3 67.1 120.7 68 122.3 68 C 123.4 68 124.4 67.6 124.7 66.5 C 124.7 66.5 127.3 66.5 127.3 66.5 C 126.8 69.1 124.5 70.4 122.1 70.4 C 119.3 70.4 116.6 68.5 116.6 64.4 C 116.6 60.4 119.2 58.4 122.2 58.4 C 125 58.4 127.3 60.2 127.3 64.1 C 127.34 64.09 127.3 65.2 127.3 65.2 C 127.3 65.2 119.28 65.23 119.3 65.2 Z M 119.3 63.2 C 119.3 63.2 124.6 63.2 124.6 63.2 C 124.6 61.7 123.5 60.8 122.1 60.8 C 120.8 60.8 119.6 61.5 119.3 63.2 Z M 134.5 57.1 L 137.4 57.1 L 137.4 53.9 L 134.5 53.9 L 134.5 57.1 Z M 134.6 58.6 L 137.4 58.6 L 137.4 70.2 L 134.6 70.2 L 134.6 58.6 Z M 150.3 62.7 C 150.25 62.71 150.3 70.2 150.3 70.2 L 147.5 70.2 C 147.5 70.2 147.46 62.96 147.5 63 C 147.5 61.7 146.7 60.9 145.4 60.9 C 143.8 60.9 142.9 62 142.9 63.9 C 142.86 63.92 142.9 70.2 142.9 70.2 L 140.1 70.2 L 140.1 58.6 L 142.8 58.6 C 142.8 58.6 142.84 60.27 142.8 60.3 C 143.5 59.2 144.4 58.4 146.4 58.4 C 149 58.4 150.3 59.9 150.3 62.7 Z M 167.8 62.4 C 167.81 62.39 167.8 70.2 167.8 70.2 L 165.1 70.2 C 165.1 70.2 165.08 68.5 165.1 68.5 C 164.2 70 162.8 70.4 161.6 70.4 C 159.7 70.4 157.8 69.3 157.8 66.8 C 157.8 65 158.8 63.8 161.5 63.4 C 161.5 63.4 164 63 164 63 C 164.7 62.9 165.2 62.7 165.2 62 C 165.2 61 164.3 60.6 163.2 60.6 C 161.7 60.6 161.1 61.3 161 62.3 C 161 62.3 158.3 62.3 158.3 62.3 C 158.6 59.6 160.7 58.4 163.4 58.4 C 166.1 58.4 167.8 59.7 167.8 62.4 Z M 165.1 65.3 C 165.1 65.3 165.1 64.7 165.1 64.7 C 164.8 64.8 164.3 65 163.7 65 C 163.7 65 162.5 65.2 162.5 65.2 C 161.1 65.4 160.6 66 160.6 66.7 C 160.6 67.6 161.3 68.1 162.2 68.1 C 163.7 68.1 165.1 67 165.1 65.3 Z M 187 64.2 C 187 68.4 184.4 70.3 181.6 70.3 C 180.1 70.3 179 69.6 178.4 68.8 C 178.37 68.8 178.4 74.5 178.4 74.5 L 175.6 74.5 L 175.6 58.6 L 178.3 58.6 C 178.3 58.6 178.31 60.44 178.3 60.4 C 178.9 59.2 180.2 58.4 181.9 58.4 C 184.6 58.4 187 60.3 187 64.2 Z M 184.1 64.4 C 184.1 62 182.7 60.9 181.2 60.9 C 179.7 60.9 178.3 62 178.3 64.4 C 178.3 66.7 179.7 67.8 181.2 67.8 C 182.7 67.8 184.1 66.7 184.1 64.4 Z M 199.5 64.4 C 199.5 68.2 197.1 70.4 193.9 70.4 C 190.6 70.4 188.2 68.2 188.2 64.4 C 188.2 60.6 190.6 58.4 193.9 58.4 C 197.1 58.4 199.5 60.6 199.5 64.4 Z M 191.1 64.4 C 191.1 66.7 192.4 67.8 193.9 67.8 C 195.6 67.8 196.7 66.6 196.7 64.4 C 196.7 62.1 195.4 61 193.8 61 C 192.2 61 191.1 62.2 191.1 64.4 Z M 208.1 61.2 C 208.1 61.2 207.35 61.17 207.4 61.2 C 205.4 61.2 204.3 62.2 204.3 64.5 C 204.33 64.51 204.3 70.2 204.3 70.2 L 201.5 70.2 L 201.5 58.6 L 204.3 58.6 C 204.3 58.6 204.31 60.25 204.3 60.2 C 204.9 59 206 58.5 207.3 58.5 C 207.33 58.46 208.1 58.5 208.1 58.5 L 208.1 61.2 Z M 215.8 70.2 C 215.8 70.2 213.97 70.18 214 70.2 C 211.8 70.2 210.4 69.5 210.4 66.4 C 210.42 66.4 210.4 61.1 210.4 61.1 L 208.3 61.1 L 208.3 58.6 L 210.4 58.6 L 210.4 56 L 213.2 55.2 L 213.2 58.6 L 215.5 58.6 L 215.5 61.1 L 213.2 61.1 C 213.2 61.1 213.21 66.53 213.2 66.5 C 213.2 67.2 213.4 67.7 214.4 67.7 C 214.39 67.7 215.8 67.7 215.8 67.7 L 215.8 70.2 Z M 221.7 56.7 C 220.7 56.7 220.5 57.1 220.5 57.8 C 220.52 57.83 220.5 58.6 220.5 58.6 L 222.7 58.6 L 222.7 61.1 L 220.5 61.1 L 220.5 70.2 L 217.7 70.2 L 217.7 61.1 L 216 61.1 L 216 58.6 L 217.7 58.6 C 217.7 58.6 217.73 57.96 217.7 58 C 217.7 54.9 219.1 54.2 221.3 54.2 C 221.27 54.18 223 54.2 223 54.2 L 223 56.7 C 223 56.7 221.69 56.66 221.7 56.7 Z M 234.7 64.4 C 234.7 68.2 232.3 70.4 229 70.4 C 225.8 70.4 223.4 68.2 223.4 64.4 C 223.4 60.6 225.8 58.4 229 58.4 C 232.3 58.4 234.7 60.6 234.7 64.4 Z M 226.2 64.4 C 226.2 66.7 227.5 67.8 229.1 67.8 C 230.7 67.8 231.8 66.6 231.8 64.4 C 231.8 62.1 230.6 61 229 61 C 227.3 61 226.2 62.2 226.2 64.4 Z M 239.5 70.2 L 236.7 70.2 L 236.7 54.2 L 239.5 54.2 L 239.5 70.2 Z M 242.1 57.1 L 245.1 57.1 L 245.1 53.9 L 242.1 53.9 L 242.1 57.1 Z M 242.2 58.6 L 245 58.6 L 245 70.2 L 242.2 70.2 L 242.2 58.6 Z M 258.3 64.4 C 258.3 68.2 255.9 70.4 252.6 70.4 C 249.4 70.4 247 68.2 247 64.4 C 247 60.6 249.4 58.4 252.6 58.4 C 255.9 58.4 258.3 60.6 258.3 64.4 Z M 249.8 64.4 C 249.8 66.7 251.1 67.8 252.6 67.8 C 254.3 67.8 255.4 66.6 255.4 64.4 C 255.4 62.1 254.1 61 252.6 61 C 250.9 61 249.8 62.2 249.8 64.4 Z M 263 64.6 C 263 61.9 264.4 61.4 265.6 60.5 C 266.7 59.8 267.1 59.2 267.1 58.4 C 267.1 57.2 266.3 56.6 265 56.6 C 263.6 56.6 262.7 57.4 262.6 58.8 C 262.6 58.8 259.7 58.8 259.7 58.8 C 260 55.4 262.5 54.2 265.1 54.2 C 267.9 54.2 270 55.5 270 58.3 C 270 60.5 268.7 61.4 267.3 62.4 C 266.2 63.2 265.7 63.7 265.7 64.6 C 265.71 64.64 265.7 65.3 265.7 65.3 L 263 65.3 C 263 65.3 263.04 64.55 263 64.6 Z M 262.8 66.9 L 266 66.9 L 266 70.2 L 262.8 70.2 L 262.8 66.9 Z " stroke="none" fill="#000"/> </g> <g id="Polygon9745">  <path d="M 7.1 47.8 C 7.1 47.8 6.2 48.9 6.2 48.9 C 2.8 46.7 0.4 42.7 0.4 37.8 C 0.4 33 2.8 28.9 6.2 26.7 C 6.2 26.7 7.1 27.8 7.1 27.8 C 4.3 30.1 2.4 33.6 2.4 37.8 C 2.4 42.1 4.3 45.6 7.1 47.8 Z M 17.7 37.2 C 17.7 37.19 17.7 45 17.7 45 L 15 45 C 15 45 14.97 43.3 15 43.3 C 14.1 44.8 12.7 45.2 11.5 45.2 C 9.6 45.2 7.7 44.1 7.7 41.6 C 7.7 39.8 8.7 38.6 11.4 38.2 C 11.4 38.2 13.9 37.8 13.9 37.8 C 14.6 37.7 15.1 37.5 15.1 36.8 C 15.1 35.8 14.2 35.4 13.1 35.4 C 11.6 35.4 11 36.1 10.9 37.1 C 10.9 37.1 8.2 37.1 8.2 37.1 C 8.5 34.4 10.6 33.2 13.3 33.2 C 16 33.2 17.7 34.5 17.7 37.2 Z M 15 40.1 C 15 40.1 15 39.5 15 39.5 C 14.7 39.6 14.2 39.8 13.6 39.8 C 13.6 39.8 12.4 40 12.4 40 C 11 40.2 10.5 40.8 10.5 41.5 C 10.5 42.4 11.2 42.9 12.1 42.9 C 13.6 42.9 15 41.8 15 40.1 Z M 30.4 37.5 C 30.41 37.51 30.4 45 30.4 45 L 27.6 45 C 27.6 45 27.61 37.76 27.6 37.8 C 27.6 36.5 26.9 35.7 25.6 35.7 C 24 35.7 23 36.8 23 38.7 C 23.02 38.72 23 45 23 45 L 20.2 45 L 20.2 33.4 L 23 33.4 C 23 33.4 22.99 35.07 23 35.1 C 23.6 34 24.6 33.2 26.5 33.2 C 29.2 33.2 30.4 34.7 30.4 37.5 Z M 43.7 45 L 40.9 45 C 40.9 45 40.95 43.2 40.9 43.2 C 40.3 44.5 39 45.2 37.4 45.2 C 34.7 45.2 32.3 43.2 32.3 39.2 C 32.3 35.2 34.7 33.2 37.4 33.2 C 38.9 33.2 40.2 33.8 40.9 34.9 C 40.89 34.92 40.9 29 40.9 29 L 43.7 29 L 43.7 45 Z M 41 39.2 C 41 36.8 39.5 35.7 38 35.7 C 36.5 35.7 35.1 36.8 35.1 39.2 C 35.1 41.5 36.5 42.7 38 42.7 C 39.5 42.7 41 41.5 41 39.2 Z M 53.6 40 C 53.7 41.9 55 42.8 56.6 42.8 C 57.7 42.8 58.8 42.4 59.1 41.3 C 59.1 41.3 61.7 41.3 61.7 41.3 C 61.2 43.9 58.9 45.2 56.5 45.2 C 53.7 45.2 50.9 43.3 50.9 39.2 C 50.9 35.2 53.5 33.2 56.5 33.2 C 59.3 33.2 61.7 35 61.7 38.9 C 61.7 38.89 61.7 40 61.7 40 C 61.7 40 53.63 40.03 53.6 40 Z M 53.7 38 C 53.7 38 59 38 59 38 C 59 36.5 57.9 35.6 56.5 35.6 C 55.2 35.6 53.9 36.3 53.7 38 Z M 69.6 45 L 66.6 45 L 62.3 33.4 L 65.3 33.4 L 68.1 41.7 L 71 33.4 L 73.9 33.4 L 69.6 45 Z M 77 40 C 77.1 41.9 78.4 42.8 80 42.8 C 81.1 42.8 82.1 42.4 82.5 41.3 C 82.5 41.3 85 41.3 85 41.3 C 84.5 43.9 82.2 45.2 79.9 45.2 C 77.1 45.2 74.3 43.3 74.3 39.2 C 74.3 35.2 76.9 33.2 79.9 33.2 C 82.7 33.2 85.1 35 85.1 38.9 C 85.07 38.89 85.1 40 85.1 40 C 85.1 40 77.01 40.03 77 40 Z M 77.1 38 C 77.1 38 82.3 38 82.3 38 C 82.3 36.5 81.3 35.6 79.8 35.6 C 78.6 35.6 77.3 36.3 77.1 38 Z M 97.2 37.5 C 97.25 37.51 97.2 45 97.2 45 L 94.5 45 C 94.5 45 94.46 37.76 94.5 37.8 C 94.5 36.5 93.7 35.7 92.4 35.7 C 90.8 35.7 89.9 36.8 89.9 38.7 C 89.86 38.72 89.9 45 89.9 45 L 87.1 45 L 87.1 33.4 L 89.8 33.4 C 89.8 33.4 89.84 35.07 89.8 35.1 C 90.5 34 91.4 33.2 93.4 33.2 C 96 33.2 97.2 34.7 97.2 37.5 Z M 115.7 37.5 C 115.73 37.51 115.7 45 115.7 45 L 112.9 45 C 112.9 45 112.94 37.76 112.9 37.8 C 112.9 36.5 112.2 35.7 110.9 35.7 C 109.3 35.7 108.3 36.8 108.3 38.7 C 108.34 38.72 108.3 45 108.3 45 L 105.5 45 L 105.5 33.4 L 108.3 33.4 C 108.3 33.4 108.32 35.07 108.3 35.1 C 109 34 109.9 33.2 111.8 33.2 C 114.5 33.2 115.7 34.7 115.7 37.5 Z M 120.3 40 C 120.4 41.9 121.7 42.8 123.3 42.8 C 124.4 42.8 125.5 42.4 125.8 41.3 C 125.8 41.3 128.4 41.3 128.4 41.3 C 127.8 43.9 125.6 45.2 123.2 45.2 C 120.4 45.2 117.6 43.3 117.6 39.2 C 117.6 35.2 120.2 33.2 123.2 33.2 C 126 33.2 128.4 35 128.4 38.9 C 128.39 38.89 128.4 40 128.4 40 C 128.4 40 120.33 40.03 120.3 40 Z M 120.4 38 C 120.4 38 125.7 38 125.7 38 C 125.7 36.5 124.6 35.6 123.2 35.6 C 121.9 35.6 120.6 36.3 120.4 38 Z M 140.8 44.2 C 140.8 47.9 138.4 49.6 135.3 49.6 C 132.5 49.6 130.2 48.2 129.8 45.3 C 129.8 45.3 132.5 45.3 132.5 45.3 C 132.8 46.8 134 47.2 135.3 47.2 C 137.1 47.2 138.1 46.3 138.1 44.5 C 138.1 44.5 138.1 42.6 138.1 42.6 C 137.6 43.8 136.5 44.6 134.7 44.6 C 132.1 44.6 129.7 42.8 129.7 38.9 C 129.7 35 132.1 33.2 134.7 33.2 C 136.4 33.2 137.5 33.9 138.1 35 C 138.14 35.01 138.1 33.4 138.1 33.4 L 140.8 33.4 C 140.8 33.4 140.82 44.2 140.8 44.2 Z M 138 38.9 C 138 36.7 136.8 35.6 135.3 35.6 C 133.8 35.6 132.4 36.7 132.4 38.9 C 132.4 41.1 133.8 42.1 135.3 42.1 C 136.8 42.1 138 41.1 138 38.9 Z M 152.7 37.2 C 152.71 37.19 152.7 45 152.7 45 L 150 45 C 150 45 149.98 43.3 150 43.3 C 149.1 44.8 147.7 45.2 146.5 45.2 C 144.6 45.2 142.7 44.1 142.7 41.6 C 142.7 39.8 143.7 38.6 146.4 38.2 C 146.4 38.2 148.9 37.8 148.9 37.8 C 149.6 37.7 150.1 37.5 150.1 36.8 C 150.1 35.8 149.2 35.4 148.1 35.4 C 146.6 35.4 146 36.1 145.9 37.1 C 145.9 37.1 143.2 37.1 143.2 37.1 C 143.5 34.4 145.6 33.2 148.3 33.2 C 151 33.2 152.7 34.5 152.7 37.2 Z M 150 40.1 C 150 40.1 150 39.5 150 39.5 C 149.7 39.6 149.2 39.8 148.6 39.8 C 148.6 39.8 147.4 40 147.4 40 C 146 40.2 145.5 40.8 145.5 41.5 C 145.5 42.4 146.2 42.9 147.1 42.9 C 148.6 42.9 150 41.8 150 40.1 Z M 161.2 45 C 161.2 45 159.32 44.98 159.3 45 C 157.2 45 155.8 44.3 155.8 41.2 C 155.78 41.2 155.8 35.9 155.8 35.9 L 153.7 35.9 L 153.7 33.4 L 155.8 33.4 L 155.8 30.8 L 158.6 30 L 158.6 33.4 L 160.9 33.4 L 160.9 35.9 L 158.6 35.9 C 158.6 35.9 158.57 41.33 158.6 41.3 C 158.6 42 158.8 42.5 159.7 42.5 C 159.74 42.5 161.2 42.5 161.2 42.5 L 161.2 45 Z M 162.6 31.9 L 165.6 31.9 L 165.6 28.7 L 162.6 28.7 L 162.6 31.9 Z M 162.7 33.4 L 165.5 33.4 L 165.5 45 L 162.7 45 L 162.7 33.4 Z M 174.1 45 L 171.1 45 L 166.8 33.4 L 169.8 33.4 L 172.6 41.7 L 175.5 33.4 L 178.4 33.4 L 174.1 45 Z M 181.5 40 C 181.6 41.9 182.9 42.8 184.5 42.8 C 185.6 42.8 186.6 42.4 187 41.3 C 187 41.3 189.5 41.3 189.5 41.3 C 189 43.9 186.8 45.2 184.4 45.2 C 181.6 45.2 178.8 43.3 178.8 39.2 C 178.8 35.2 181.4 33.2 184.4 33.2 C 187.2 33.2 189.6 35 189.6 38.9 C 189.59 38.89 189.6 40 189.6 40 C 189.6 40 181.52 40.03 181.5 40 Z M 181.6 38 C 181.6 38 186.9 38 186.9 38 C 186.9 36.5 185.8 35.6 184.4 35.6 C 183.1 35.6 181.8 36.3 181.6 38 Z M 190.4 27.8 C 190.4 27.8 191.3 26.7 191.3 26.7 C 194.7 28.9 197.1 33 197.1 37.8 C 197.1 42.7 194.7 46.7 191.3 48.9 C 191.3 48.9 190.4 47.8 190.4 47.8 C 193.2 45.6 195.2 42.1 195.2 37.8 C 195.2 33.6 193.2 30.1 190.4 27.8 Z M 200.4 44.8 C 200.36 44.79 198.9 44.8 198.9 44.8 L 198.9 41.9 L 202.1 41.9 C 202.1 41.9 202.14 44.39 202.1 44.4 C 202.1 47.4 200.1 48.5 198.2 48.7 C 198.2 48.7 197.9 47.2 197.9 47.2 C 199.4 47 200.4 46.1 200.4 44.8 Z M 221.4 45 L 218.8 45 L 216.4 37.6 L 214 45 L 211.4 45 L 207.5 33.4 L 210.5 33.4 L 212.8 41.1 L 215.1 33.4 L 217.8 33.4 L 220.2 41.1 L 222.4 33.4 L 225.3 33.4 L 221.4 45 Z M 237 37.5 C 236.96 37.51 237 45 237 45 L 234.2 45 C 234.2 45 234.17 37.76 234.2 37.8 C 234.2 36.5 233.4 35.7 232.1 35.7 C 230.5 35.7 229.6 36.8 229.6 38.7 C 229.57 38.72 229.6 45 229.6 45 L 226.8 45 L 226.8 29 L 229.6 29 C 229.6 29 229.57 35.03 229.6 35 C 230.2 33.9 231.2 33.2 233.1 33.2 C 235.7 33.2 237 34.7 237 37.5 Z M 248.8 37.2 C 248.85 37.19 248.8 45 248.8 45 L 246.1 45 C 246.1 45 246.12 43.3 246.1 43.3 C 245.2 44.8 243.8 45.2 242.6 45.2 C 240.8 45.2 238.9 44.1 238.9 41.6 C 238.9 39.8 239.9 38.6 242.5 38.2 C 242.5 38.2 245 37.8 245 37.8 C 245.7 37.7 246.2 37.5 246.2 36.8 C 246.2 35.8 245.4 35.4 244.3 35.4 C 242.8 35.4 242.1 36.1 242 37.1 C 242 37.1 239.3 37.1 239.3 37.1 C 239.6 34.4 241.8 33.2 244.4 33.2 C 247.1 33.2 248.8 34.5 248.8 37.2 Z M 246.1 40.1 C 246.1 40.1 246.1 39.5 246.1 39.5 C 245.9 39.6 245.3 39.8 244.8 39.8 C 244.8 39.8 243.5 40 243.5 40 C 242.1 40.2 241.6 40.8 241.6 41.5 C 241.6 42.4 242.3 42.9 243.3 42.9 C 244.7 42.9 246.1 41.8 246.1 40.1 Z M 257.3 45 C 257.3 45 255.46 44.98 255.5 45 C 253.3 45 251.9 44.3 251.9 41.2 C 251.91 41.2 251.9 35.9 251.9 35.9 L 249.8 35.9 L 249.8 33.4 L 251.9 33.4 L 251.9 30.8 L 254.7 30 L 254.7 33.4 L 257 33.4 L 257 35.9 L 254.7 35.9 C 254.7 35.9 254.71 41.33 254.7 41.3 C 254.7 42 254.9 42.5 255.9 42.5 C 255.88 42.5 257.3 42.5 257.3 42.5 L 257.3 45 Z M 270.9 36 C 270.9 36 270.14 35.97 270.1 36 C 268.2 36 267.1 37 267.1 39.3 C 267.12 39.31 267.1 45 267.1 45 L 264.3 45 L 264.3 33.4 L 267.1 33.4 C 267.1 33.4 267.09 35.05 267.1 35 C 267.7 33.8 268.8 33.3 270.1 33.3 C 270.12 33.26 270.9 33.3 270.9 33.3 L 270.9 36 Z M 282.6 39.2 C 282.6 43 280.2 45.2 276.9 45.2 C 273.7 45.2 271.3 43 271.3 39.2 C 271.3 35.4 273.7 33.2 276.9 33.2 C 280.2 33.2 282.6 35.4 282.6 39.2 Z M 274.2 39.2 C 274.2 41.5 275.4 42.6 277 42.6 C 278.6 42.6 279.8 41.4 279.8 39.2 C 279.8 36.9 278.5 35.8 276.9 35.8 C 275.3 35.8 274.2 37 274.2 39.2 Z M 287.4 45 L 284.6 45 L 284.6 29 L 287.4 29 L 287.4 45 Z M 292.1 40 C 292.2 41.9 293.5 42.8 295.1 42.8 C 296.2 42.8 297.2 42.4 297.6 41.3 C 297.6 41.3 300.1 41.3 300.1 41.3 C 299.6 43.9 297.3 45.2 295 45.2 C 292.2 45.2 289.4 43.3 289.4 39.2 C 289.4 35.2 292 33.2 295 33.2 C 297.8 33.2 300.2 35 300.2 38.9 C 300.17 38.89 300.2 40 300.2 40 C 300.2 40 292.11 40.03 292.1 40 Z M 292.2 38 C 292.2 38 297.4 38 297.4 38 C 297.4 36.5 296.4 35.6 294.9 35.6 C 293.7 35.6 292.4 36.3 292.2 38 Z M 317.6 45 L 314.9 45 C 314.9 45 314.91 43.2 314.9 43.2 C 314.3 44.5 312.9 45.2 311.3 45.2 C 308.6 45.2 306.3 43.2 306.3 39.2 C 306.3 35.2 308.6 33.2 311.3 33.2 C 312.9 33.2 314.2 33.8 314.8 34.9 C 314.85 34.92 314.8 29 314.8 29 L 317.6 29 L 317.6 45 Z M 314.9 39.2 C 314.9 36.8 313.5 35.7 312 35.7 C 310.5 35.7 309.1 36.8 309.1 39.2 C 309.1 41.5 310.5 42.7 312 42.7 C 313.5 42.7 314.9 41.5 314.9 39.2 Z M 331 39.2 C 331 43 328.5 45.2 325.3 45.2 C 322.1 45.2 319.6 43 319.6 39.2 C 319.6 35.4 322.1 33.2 325.3 33.2 C 328.5 33.2 331 35.4 331 39.2 Z M 322.5 39.2 C 322.5 41.5 323.8 42.6 325.3 42.6 C 327 42.6 328.1 41.4 328.1 39.2 C 328.1 36.9 326.8 35.8 325.3 35.8 C 323.6 35.8 322.5 37 322.5 39.2 Z M 334.9 40 C 335 41.9 336.3 42.8 337.9 42.8 C 339 42.8 340 42.4 340.4 41.3 C 340.4 41.3 342.9 41.3 342.9 41.3 C 342.4 43.9 340.2 45.2 337.8 45.2 C 335 45.2 332.2 43.3 332.2 39.2 C 332.2 35.2 334.8 33.2 337.8 33.2 C 340.6 33.2 343 35 343 38.9 C 342.99 38.89 343 40 343 40 C 343 40 334.92 40.03 334.9 40 Z M 335 38 C 335 38 340.3 38 340.3 38 C 340.3 36.5 339.2 35.6 337.8 35.6 C 336.5 35.6 335.2 36.3 335 38 Z M 354.2 41.4 C 354.2 44 351.9 45.2 349.3 45.2 C 346.9 45.2 344.3 44.2 344.1 41.3 C 344.1 41.3 347 41.3 347 41.3 C 347.1 42.4 348.2 42.9 349.5 42.9 C 350.7 42.9 351.5 42.5 351.5 41.7 C 351.5 40.9 350.9 40.8 349.4 40.5 C 347.1 40.1 344.5 39.7 344.5 36.9 C 344.5 34.3 346.7 33.2 349.1 33.2 C 351.8 33.2 353.8 34.5 354 37.1 C 354 37.1 351.2 37.1 351.2 37.1 C 351.1 36 350.3 35.5 349.1 35.5 C 347.8 35.5 347.2 36.1 347.2 36.8 C 347.2 37.7 348.2 37.9 349.6 38.1 C 351.7 38.4 354.2 38.7 354.2 41.4 Z M 364.5 45 L 361.6 45 L 361.6 29.2 L 372.2 29.2 L 372.2 32 L 364.5 32 L 364.5 35.6 L 371.8 35.6 L 371.8 38.4 L 364.5 38.4 L 364.5 45 Z M 373.4 31.9 L 376.4 31.9 L 376.4 28.7 L 373.4 28.7 L 373.4 31.9 Z M 373.5 33.4 L 376.3 33.4 L 376.3 45 L 373.5 45 L 373.5 33.4 Z M 384.1 41.3 L 381.4 45 L 377.9 45 L 382.3 39.2 L 377.9 33.4 L 381.5 33.4 L 384.1 37 L 386.6 33.4 L 390.1 33.4 L 385.9 39 L 390.4 45 L 386.8 45 L 384.1 41.3 Z M 393.5 40 C 393.6 41.9 394.9 42.8 396.5 42.8 C 397.6 42.8 398.6 42.4 399 41.3 C 399 41.3 401.5 41.3 401.5 41.3 C 401 43.9 398.7 45.2 396.3 45.2 C 393.6 45.2 390.8 43.3 390.8 39.2 C 390.8 35.2 393.4 33.2 396.4 33.2 C 399.2 33.2 401.6 35 401.6 38.9 C 401.56 38.89 401.6 40 401.6 40 C 401.6 40 393.49 40.03 393.5 40 Z M 393.6 38 C 393.6 38 398.8 38 398.8 38 C 398.8 36.5 397.8 35.6 396.3 35.6 C 395 35.6 393.8 36.3 393.6 38 Z M 414.2 45 L 411.5 45 C 411.5 45 411.47 43.2 411.5 43.2 C 410.8 44.5 409.5 45.2 407.9 45.2 C 405.2 45.2 402.8 43.2 402.8 39.2 C 402.8 35.2 405.2 33.2 407.9 33.2 C 409.4 33.2 410.7 33.8 411.4 34.9 C 411.41 34.92 411.4 29 411.4 29 L 414.2 29 L 414.2 45 Z M 411.5 39.2 C 411.5 36.8 410.1 35.7 408.6 35.7 C 407 35.7 405.7 36.8 405.7 39.2 C 405.7 41.5 407 42.7 408.6 42.7 C 410.1 42.7 411.5 41.5 411.5 39.2 Z " stroke="none" fill="#000"/> </g> <g id="Polygon9744">  <path d="M 16.8 19.8 L 13.9 19.8 L 10.6 8.5 L 7.3 19.8 L 4.4 19.8 L 0.3 4 L 3.4 4 L 6 15 L 9.2 4 L 12.1 4 L 15.3 15.1 L 17.9 4 L 20.9 4 L 16.8 19.8 Z M 22.5 6.7 L 25.5 6.7 L 25.5 3.5 L 22.5 3.5 L 22.5 6.7 Z M 22.6 8.2 L 25.4 8.2 L 25.4 19.8 L 22.6 19.8 L 22.6 8.2 Z M 34 19.8 C 34 19.8 32.17 19.78 32.2 19.8 C 30 19.8 28.6 19.1 28.6 16 C 28.62 16 28.6 10.7 28.6 10.7 L 26.5 10.7 L 26.5 8.2 L 28.6 8.2 L 28.6 5.6 L 31.4 4.8 L 31.4 8.2 L 33.7 8.2 L 33.7 10.7 L 31.4 10.7 C 31.4 10.7 31.42 16.13 31.4 16.1 C 31.4 16.8 31.6 17.3 32.6 17.3 C 32.59 17.3 34 17.3 34 17.3 L 34 19.8 Z M 45.8 12.3 C 45.76 12.31 45.8 19.8 45.8 19.8 L 43 19.8 C 43 19.8 42.97 12.56 43 12.6 C 43 11.3 42.2 10.5 40.9 10.5 C 39.3 10.5 38.4 11.6 38.4 13.5 C 38.37 13.52 38.4 19.8 38.4 19.8 L 35.6 19.8 L 35.6 3.8 L 38.4 3.8 C 38.4 3.8 38.37 9.83 38.4 9.8 C 39 8.7 40 8 41.9 8 C 44.5 8 45.8 9.5 45.8 12.3 Z M 53.9 6.7 L 56.9 6.7 L 56.9 3.5 L 53.9 3.5 L 53.9 6.7 Z M 54 8.2 L 56.8 8.2 L 56.8 19.8 L 54 19.8 L 54 8.2 Z M 69.7 12.3 C 69.72 12.31 69.7 19.8 69.7 19.8 L 66.9 19.8 C 66.9 19.8 66.93 12.56 66.9 12.6 C 66.9 11.3 66.2 10.5 64.9 10.5 C 63.3 10.5 62.3 11.6 62.3 13.5 C 62.33 13.52 62.3 19.8 62.3 19.8 L 59.5 19.8 L 59.5 8.2 L 62.3 8.2 C 62.3 8.2 62.31 9.87 62.3 9.9 C 63 8.8 63.9 8 65.8 8 C 68.5 8 69.7 9.5 69.7 12.3 Z M 78.3 19.8 C 78.3 19.8 76.44 19.78 76.4 19.8 C 74.3 19.8 72.9 19.1 72.9 16 C 72.89 16 72.9 10.7 72.9 10.7 L 70.8 10.7 L 70.8 8.2 L 72.9 8.2 L 72.9 5.6 L 75.7 4.8 L 75.7 8.2 L 78 8.2 L 78 10.7 L 75.7 10.7 C 75.7 10.7 75.68 16.13 75.7 16.1 C 75.7 16.8 75.9 17.3 76.9 17.3 C 76.86 17.3 78.3 17.3 78.3 17.3 L 78.3 19.8 Z M 81.8 14.8 C 81.9 16.7 83.2 17.6 84.8 17.6 C 85.9 17.6 86.9 17.2 87.3 16.1 C 87.3 16.1 89.8 16.1 89.8 16.1 C 89.3 18.7 87 20 84.7 20 C 81.9 20 79.1 18.1 79.1 14 C 79.1 10 81.7 8 84.7 8 C 87.5 8 89.9 9.8 89.9 13.7 C 89.88 13.69 89.9 14.8 89.9 14.8 C 89.9 14.8 81.81 14.83 81.8 14.8 Z M 81.9 12.8 C 81.9 12.8 87.1 12.8 87.1 12.8 C 87.1 11.3 86.1 10.4 84.6 10.4 C 83.4 10.4 82.1 11.1 81.9 12.8 Z M 98.4 10.8 C 98.4 10.8 97.69 10.77 97.7 10.8 C 95.7 10.8 94.7 11.8 94.7 14.1 C 94.67 14.11 94.7 19.8 94.7 19.8 L 91.9 19.8 L 91.9 8.2 L 94.6 8.2 C 94.6 8.2 94.65 9.85 94.6 9.8 C 95.2 8.6 96.3 8.1 97.7 8.1 C 97.67 8.06 98.4 8.1 98.4 8.1 L 98.4 10.8 Z M 101.6 14.8 C 101.6 16.7 103 17.6 104.5 17.6 C 105.6 17.6 106.7 17.2 107 16.1 C 107 16.1 109.6 16.1 109.6 16.1 C 109.1 18.7 106.8 20 104.4 20 C 101.6 20 98.8 18.1 98.8 14 C 98.8 10 101.5 8 104.4 8 C 107.2 8 109.6 9.8 109.6 13.7 C 109.62 13.69 109.6 14.8 109.6 14.8 C 109.6 14.8 101.55 14.83 101.6 14.8 Z M 101.6 12.8 C 101.6 12.8 106.9 12.8 106.9 12.8 C 106.9 11.3 105.8 10.4 104.4 10.4 C 103.1 10.4 101.9 11.1 101.6 12.8 Z M 120.9 16.2 C 120.9 18.8 118.6 20 116 20 C 113.6 20 111 19 110.8 16.1 C 110.8 16.1 113.6 16.1 113.6 16.1 C 113.8 17.2 114.8 17.7 116.1 17.7 C 117.3 17.7 118.1 17.3 118.1 16.5 C 118.1 15.7 117.6 15.6 116 15.3 C 113.7 14.9 111.1 14.5 111.1 11.7 C 111.1 9.1 113.3 8 115.7 8 C 118.4 8 120.4 9.3 120.6 11.9 C 120.6 11.9 117.9 11.9 117.9 11.9 C 117.8 10.8 116.9 10.3 115.8 10.3 C 114.4 10.3 113.8 10.9 113.8 11.6 C 113.8 12.5 114.9 12.7 116.3 12.9 C 118.4 13.2 120.9 13.5 120.9 16.2 Z M 128.7 19.8 C 128.7 19.8 126.86 19.78 126.9 19.8 C 124.7 19.8 123.3 19.1 123.3 16 C 123.31 16 123.3 10.7 123.3 10.7 L 121.2 10.7 L 121.2 8.2 L 123.3 8.2 L 123.3 5.6 L 126.1 4.8 L 126.1 8.2 L 128.4 8.2 L 128.4 10.7 L 126.1 10.7 C 126.1 10.7 126.1 16.13 126.1 16.1 C 126.1 16.8 126.3 17.3 127.3 17.3 C 127.28 17.3 128.7 17.3 128.7 17.3 L 128.7 19.8 Z M 142.3 10.8 C 142.3 10.8 141.54 10.77 141.5 10.8 C 139.6 10.8 138.5 11.8 138.5 14.1 C 138.51 14.11 138.5 19.8 138.5 19.8 L 135.7 19.8 L 135.7 8.2 L 138.5 8.2 C 138.5 8.2 138.49 9.85 138.5 9.8 C 139.1 8.6 140.2 8.1 141.5 8.1 C 141.52 8.06 142.3 8.1 142.3 8.1 L 142.3 10.8 Z M 152.9 12 C 152.9 11.99 152.9 19.8 152.9 19.8 L 150.2 19.8 C 150.2 19.8 150.17 18.1 150.2 18.1 C 149.3 19.6 147.9 20 146.7 20 C 144.8 20 142.9 18.9 142.9 16.4 C 142.9 14.6 143.9 13.4 146.6 13 C 146.6 13 149.1 12.6 149.1 12.6 C 149.8 12.5 150.3 12.3 150.3 11.6 C 150.3 10.6 149.4 10.2 148.3 10.2 C 146.8 10.2 146.2 10.9 146.1 11.9 C 146.1 11.9 143.4 11.9 143.4 11.9 C 143.7 9.2 145.8 8 148.4 8 C 151.2 8 152.9 9.3 152.9 12 Z M 150.2 14.9 C 150.2 14.9 150.2 14.3 150.2 14.3 C 149.9 14.4 149.4 14.6 148.8 14.6 C 148.8 14.6 147.6 14.8 147.6 14.8 C 146.2 15 145.7 15.6 145.7 16.3 C 145.7 17.2 146.3 17.7 147.3 17.7 C 148.8 17.7 150.2 16.6 150.2 14.9 Z M 161.3 19.8 C 161.3 19.8 159.51 19.78 159.5 19.8 C 157.4 19.8 156 19.1 156 16 C 155.96 16 156 10.7 156 10.7 L 153.8 10.7 L 153.8 8.2 L 156 8.2 L 156 5.6 L 158.8 4.8 L 158.8 8.2 L 161.1 8.2 L 161.1 10.7 L 158.8 10.7 C 158.8 10.7 158.76 16.13 158.8 16.1 C 158.8 16.8 158.9 17.3 159.9 17.3 C 159.93 17.3 161.3 17.3 161.3 17.3 L 161.3 19.8 Z M 164.9 14.8 C 165 16.7 166.3 17.6 167.9 17.6 C 169 17.6 170 17.2 170.3 16.1 C 170.3 16.1 172.9 16.1 172.9 16.1 C 172.4 18.7 170.1 20 167.7 20 C 165 20 162.2 18.1 162.2 14 C 162.2 10 164.8 8 167.8 8 C 170.6 8 173 9.8 173 13.7 C 172.95 13.69 173 14.8 173 14.8 C 173 14.8 164.89 14.83 164.9 14.8 Z M 165 12.8 C 165 12.8 170.2 12.8 170.2 12.8 C 170.2 11.3 169.2 10.4 167.7 10.4 C 166.4 10.4 165.2 11.1 165 12.8 Z M 184.2 16.2 C 184.2 18.8 181.9 20 179.3 20 C 176.9 20 174.3 19 174.1 16.1 C 174.1 16.1 176.9 16.1 176.9 16.1 C 177.1 17.2 178.1 17.7 179.4 17.7 C 180.6 17.7 181.5 17.3 181.5 16.5 C 181.5 15.7 180.9 15.6 179.3 15.3 C 177 14.9 174.5 14.5 174.5 11.7 C 174.5 9.1 176.7 8 179.1 8 C 181.8 8 183.8 9.3 183.9 11.9 C 183.9 11.9 181.2 11.9 181.2 11.9 C 181.1 10.8 180.3 10.3 179.1 10.3 C 177.7 10.3 177.2 10.9 177.2 11.6 C 177.2 12.5 178.2 12.7 179.6 12.9 C 181.7 13.2 184.2 13.5 184.2 16.2 Z M 200.2 16.2 C 200.2 18.8 197.9 20 195.3 20 C 192.9 20 190.3 19 190.1 16.1 C 190.1 16.1 192.9 16.1 192.9 16.1 C 193.1 17.2 194.1 17.7 195.4 17.7 C 196.6 17.7 197.4 17.3 197.4 16.5 C 197.4 15.7 196.9 15.6 195.3 15.3 C 193 14.9 190.4 14.5 190.4 11.7 C 190.4 9.1 192.7 8 195 8 C 197.8 8 199.7 9.3 199.9 11.9 C 199.9 11.9 197.2 11.9 197.2 11.9 C 197.1 10.8 196.3 10.3 195.1 10.3 C 193.7 10.3 193.2 10.9 193.2 11.6 C 193.2 12.5 194.2 12.7 195.6 12.9 C 197.7 13.2 200.2 13.5 200.2 16.2 Z M 212.7 14 C 212.7 17.8 210.2 20 207 20 C 203.8 20 201.3 17.8 201.3 14 C 201.3 10.2 203.8 8 207 8 C 210.2 8 212.7 10.2 212.7 14 Z M 204.2 14 C 204.2 16.3 205.5 17.4 207 17.4 C 208.7 17.4 209.8 16.2 209.8 14 C 209.8 11.7 208.5 10.6 207 10.6 C 205.3 10.6 204.2 11.8 204.2 14 Z M 222.7 19.8 L 219.9 19.8 L 219.9 3.8 L 222.7 3.8 L 222.7 19.8 Z M 236 14 C 236 17.8 233.6 20 230.3 20 C 227.1 20 224.7 17.8 224.7 14 C 224.7 10.2 227.1 8 230.3 8 C 233.6 8 236 10.2 236 14 Z M 227.6 14 C 227.6 16.3 228.8 17.4 230.4 17.4 C 232 17.4 233.2 16.2 233.2 14 C 233.2 11.7 231.9 10.6 230.3 10.6 C 228.7 10.6 227.6 11.8 227.6 14 Z M 250.5 19.8 L 247.8 19.8 L 245.4 12.4 L 243.1 19.8 L 240.4 19.8 L 236.5 8.2 L 239.5 8.2 L 241.8 15.9 L 244.1 8.2 L 246.9 8.2 L 249.2 15.9 L 251.5 8.2 L 254.3 8.2 L 250.5 19.8 Z " stroke="none" fill="#000"/> </g></svg>