<?xml version="1.0" standalone="no"?><!DOCTYPE svg PUBLIC "-//W3C//DTD SVG 1.1//EN" "http://www.w3.org/Graphics/SVG/1.1/DTD/svg11.dtd"><svg xmlns="http://www.w3.org/2000/svg" version="1.1" width="437.4px" height="111.4px" viewBox="0 0 437.4 111.4">  <desc>Con m s del 30 % del universo de bonos registrando rendimientos negativos, d nde deben invertir los clientes</desc>  <defs/>  <g id="Polygon10047">    <path d="M 7.9 62.6 L 4.7 62.6 L 4.7 59.3 L 7.9 59.3 L 7.9 62.6 Z M 7.6 65 C 7.6 67.6 6.3 68.1 5 69 C 4 69.7 3.6 70.3 3.6 71.1 C 3.6 72.3 4.4 72.9 5.6 72.9 C 7.1 72.9 8 72.1 8.1 70.7 C 8.1 70.7 10.9 70.7 10.9 70.7 C 10.6 74.1 8.2 75.3 5.6 75.3 C 2.8 75.3 0.6 74 0.6 71.2 C 0.6 69 2 68.1 3.4 67.1 C 4.5 66.3 5 65.8 5 64.9 C 4.96 64.87 5 64.2 5 64.2 L 7.6 64.2 C 7.6 64.2 7.62 64.95 7.6 65 Z M 23.4 70.2 L 20.6 70.2 C 20.6 70.2 20.62 68.4 20.6 68.4 C 20 69.7 18.6 70.4 17.1 70.4 C 14.3 70.4 12 68.4 12 64.4 C 12 60.4 14.3 58.4 17.1 58.4 C 18.6 58.4 19.9 59 20.6 60.1 C 20.56 60.12 20.6 54.2 20.6 54.2 L 23.4 54.2 L 23.4 70.2 Z M 20.6 64.4 C 20.6 62 19.2 60.9 17.7 60.9 C 16.2 60.9 14.8 62 14.8 64.4 C 14.8 66.7 16.2 67.9 17.7 67.9 C 19.2 67.9 20.6 66.7 20.6 64.4 Z M 29.7 56.5 L 32.9 51.5 L 35.1 53.2 L 32.1 56.5 L 29.7 56.5 Z M 36.7 64.4 C 36.7 68.2 34.3 70.4 31 70.4 C 27.8 70.4 25.3 68.2 25.3 64.4 C 25.3 60.6 27.8 58.4 31 58.4 C 34.3 58.4 36.7 60.6 36.7 64.4 Z M 28.2 64.4 C 28.2 66.7 29.5 67.8 31 67.8 C 32.7 67.8 33.8 66.6 33.8 64.4 C 33.8 62.1 32.5 61 31 61 C 29.3 61 28.2 62.2 28.2 64.4 Z M 48.8 62.7 C 48.85 62.71 48.8 70.2 48.8 70.2 L 46.1 70.2 C 46.1 70.2 46.05 62.96 46.1 63 C 46.1 61.7 45.3 60.9 44 60.9 C 42.4 60.9 41.5 62 41.5 63.9 C 41.45 63.92 41.5 70.2 41.5 70.2 L 38.7 70.2 L 38.7 58.6 L 41.4 58.6 C 41.4 58.6 41.43 60.27 41.4 60.3 C 42.1 59.2 43 58.4 45 58.4 C 47.6 58.4 48.8 59.9 48.8 62.7 Z M 62.1 70.2 L 59.4 70.2 C 59.4 70.2 59.39 68.4 59.4 68.4 C 58.8 69.7 57.4 70.4 55.8 70.4 C 53.1 70.4 50.7 68.4 50.7 64.4 C 50.7 60.4 53.1 58.4 55.8 58.4 C 57.3 58.4 58.6 59 59.3 60.1 C 59.32 60.12 59.3 54.2 59.3 54.2 L 62.1 54.2 L 62.1 70.2 Z M 59.4 64.4 C 59.4 62 58 60.9 56.5 60.9 C 55 60.9 53.6 62 53.6 64.4 C 53.6 66.7 55 67.9 56.5 67.9 C 58 67.9 59.4 66.7 59.4 64.4 Z M 66.8 65.2 C 66.9 67.1 68.2 68 69.8 68 C 70.9 68 71.9 67.6 72.3 66.5 C 72.3 66.5 74.8 66.5 74.8 66.5 C 74.3 69.1 72.1 70.4 69.7 70.4 C 66.9 70.4 64.1 68.5 64.1 64.4 C 64.1 60.4 66.7 58.4 69.7 58.4 C 72.5 58.4 74.9 60.2 74.9 64.1 C 74.89 64.09 74.9 65.2 74.9 65.2 C 74.9 65.2 66.82 65.23 66.8 65.2 Z M 66.9 63.2 C 66.9 63.2 72.2 63.2 72.2 63.2 C 72.2 61.7 71.1 60.8 69.7 60.8 C 68.4 60.8 67.1 61.5 66.9 63.2 Z M 92.4 70.2 L 89.6 70.2 C 89.6 70.2 89.63 68.4 89.6 68.4 C 89 69.7 87.7 70.4 86.1 70.4 C 83.3 70.4 81 68.4 81 64.4 C 81 60.4 83.3 58.4 86.1 58.4 C 87.6 58.4 88.9 59 89.6 60.1 C 89.56 60.12 89.6 54.2 89.6 54.2 L 92.4 54.2 L 92.4 70.2 Z M 89.6 64.4 C 89.6 62 88.2 60.9 86.7 60.9 C 85.2 60.9 83.8 62 83.8 64.4 C 83.8 66.7 85.2 67.9 86.7 67.9 C 88.2 67.9 89.6 66.7 89.6 64.4 Z M 97.1 65.2 C 97.1 67.1 98.5 68 100 68 C 101.1 68 102.2 67.6 102.5 66.5 C 102.5 66.5 105.1 66.5 105.1 66.5 C 104.6 69.1 102.3 70.4 99.9 70.4 C 97.1 70.4 94.4 68.5 94.4 64.4 C 94.4 60.4 97 58.4 99.9 58.4 C 102.8 58.4 105.1 60.2 105.1 64.1 C 105.13 64.09 105.1 65.2 105.1 65.2 C 105.1 65.2 97.06 65.23 97.1 65.2 Z M 97.1 63.2 C 97.1 63.2 102.4 63.2 102.4 63.2 C 102.4 61.7 101.3 60.8 99.9 60.8 C 98.6 60.8 97.4 61.5 97.1 63.2 Z M 118.5 64.4 C 118.5 68.5 116 70.4 113.3 70.4 C 111.8 70.4 110.5 69.9 109.9 68.8 C 109.85 68.8 109.9 70.2 109.9 70.2 L 107.1 70.2 L 107.1 54.2 L 109.9 54.2 C 109.9 54.2 109.91 60.29 109.9 60.3 C 110.6 59.1 111.9 58.4 113.5 58.4 C 116.2 58.4 118.5 60.4 118.5 64.4 Z M 115.7 64.4 C 115.7 62.1 114.3 60.9 112.8 60.9 C 111.3 60.9 109.8 62.1 109.8 64.4 C 109.8 66.8 111.3 68 112.8 68 C 114.3 68 115.7 66.8 115.7 64.4 Z M 122.5 65.2 C 122.5 67.1 123.9 68 125.5 68 C 126.5 68 127.6 67.6 127.9 66.5 C 127.9 66.5 130.5 66.5 130.5 66.5 C 130 69.1 127.7 70.4 125.3 70.4 C 122.5 70.4 119.8 68.5 119.8 64.4 C 119.8 60.4 122.4 58.4 125.3 58.4 C 128.2 58.4 130.5 60.2 130.5 64.1 C 130.54 64.09 130.5 65.2 130.5 65.2 C 130.5 65.2 122.47 65.23 122.5 65.2 Z M 122.5 63.2 C 122.5 63.2 127.8 63.2 127.8 63.2 C 127.8 61.7 126.7 60.8 125.3 60.8 C 124 60.8 122.8 61.5 122.5 63.2 Z M 142.7 62.7 C 142.72 62.71 142.7 70.2 142.7 70.2 L 139.9 70.2 C 139.9 70.2 139.92 62.96 139.9 63 C 139.9 61.7 139.2 60.9 137.9 60.9 C 136.3 60.9 135.3 62 135.3 63.9 C 135.32 63.92 135.3 70.2 135.3 70.2 L 132.5 70.2 L 132.5 58.6 L 135.3 58.6 C 135.3 58.6 135.3 60.27 135.3 60.3 C 136 59.2 136.9 58.4 138.8 58.4 C 141.5 58.4 142.7 59.9 142.7 62.7 Z M 150.9 57.1 L 153.9 57.1 L 153.9 53.9 L 150.9 53.9 L 150.9 57.1 Z M 151 58.6 L 153.8 58.6 L 153.8 70.2 L 151 70.2 L 151 58.6 Z M 166.7 62.7 C 166.68 62.71 166.7 70.2 166.7 70.2 L 163.9 70.2 C 163.9 70.2 163.88 62.96 163.9 63 C 163.9 61.7 163.1 60.9 161.8 60.9 C 160.2 60.9 159.3 62 159.3 63.9 C 159.28 63.92 159.3 70.2 159.3 70.2 L 156.5 70.2 L 156.5 58.6 L 159.3 58.6 C 159.3 58.6 159.26 60.27 159.3 60.3 C 159.9 59.2 160.9 58.4 162.8 58.4 C 165.4 58.4 166.7 59.9 166.7 62.7 Z M 175.2 70.2 L 172.2 70.2 L 167.9 58.6 L 170.9 58.6 L 173.7 66.9 L 176.6 58.6 L 179.5 58.6 L 175.2 70.2 Z M 182.6 65.2 C 182.7 67.1 184 68 185.6 68 C 186.7 68 187.7 67.6 188.1 66.5 C 188.1 66.5 190.6 66.5 190.6 66.5 C 190.1 69.1 187.8 70.4 185.5 70.4 C 182.7 70.4 179.9 68.5 179.9 64.4 C 179.9 60.4 182.5 58.4 185.5 58.4 C 188.3 58.4 190.7 60.2 190.7 64.1 C 190.68 64.09 190.7 65.2 190.7 65.2 C 190.7 65.2 182.61 65.23 182.6 65.2 Z M 182.7 63.2 C 182.7 63.2 187.9 63.2 187.9 63.2 C 187.9 61.7 186.9 60.8 185.4 60.8 C 184.2 60.8 182.9 61.5 182.7 63.2 Z M 199.2 61.2 C 199.2 61.2 198.49 61.17 198.5 61.2 C 196.5 61.2 195.5 62.2 195.5 64.5 C 195.47 64.51 195.5 70.2 195.5 70.2 L 192.7 70.2 L 192.7 58.6 L 195.4 58.6 C 195.4 58.6 195.44 60.25 195.4 60.2 C 196 59 197.1 58.5 198.5 58.5 C 198.47 58.46 199.2 58.5 199.2 58.5 L 199.2 61.2 Z M 206.9 70.2 C 206.9 70.2 205.1 70.18 205.1 70.2 C 202.9 70.2 201.6 69.5 201.6 66.4 C 201.56 66.4 201.6 61.1 201.6 61.1 L 199.4 61.1 L 199.4 58.6 L 201.6 58.6 L 201.6 56 L 204.3 55.2 L 204.3 58.6 L 206.7 58.6 L 206.7 61.1 L 204.3 61.1 C 204.3 61.1 204.35 66.53 204.3 66.5 C 204.3 67.2 204.5 67.7 205.5 67.7 C 205.52 67.7 206.9 67.7 206.9 67.7 L 206.9 70.2 Z M 208.4 57.1 L 211.4 57.1 L 211.4 53.9 L 208.4 53.9 L 208.4 57.1 Z M 208.5 58.6 L 211.3 58.6 L 211.3 70.2 L 208.5 70.2 L 208.5 58.6 Z M 220.5 61.2 C 220.5 61.2 219.8 61.17 219.8 61.2 C 217.9 61.2 216.8 62.2 216.8 64.5 C 216.78 64.51 216.8 70.2 216.8 70.2 L 214 70.2 L 214 58.6 L 216.8 58.6 C 216.8 58.6 216.76 60.25 216.8 60.2 C 217.3 59 218.4 58.5 219.8 58.5 C 219.78 58.46 220.5 58.5 220.5 58.5 L 220.5 61.2 Z M 229.7 70.2 L 226.9 70.2 L 226.9 54.2 L 229.7 54.2 L 229.7 70.2 Z M 243.1 64.4 C 243.1 68.2 240.6 70.4 237.4 70.4 C 234.1 70.4 231.7 68.2 231.7 64.4 C 231.7 60.6 234.1 58.4 237.4 58.4 C 240.6 58.4 243.1 60.6 243.1 64.4 Z M 234.6 64.4 C 234.6 66.7 235.9 67.8 237.4 67.8 C 239.1 67.8 240.2 66.6 240.2 64.4 C 240.2 62.1 238.9 61 237.4 61 C 235.7 61 234.6 62.2 234.6 64.4 Z M 254.3 66.6 C 254.3 69.2 252 70.4 249.4 70.4 C 247 70.4 244.4 69.4 244.2 66.5 C 244.2 66.5 247 66.5 247 66.5 C 247.2 67.6 248.2 68.1 249.5 68.1 C 250.7 68.1 251.6 67.7 251.6 66.9 C 251.6 66.1 251 66 249.4 65.7 C 247.1 65.3 244.6 64.9 244.6 62.1 C 244.6 59.5 246.8 58.4 249.2 58.4 C 251.9 58.4 253.9 59.7 254 62.3 C 254 62.3 251.3 62.3 251.3 62.3 C 251.2 61.2 250.4 60.7 249.2 60.7 C 247.8 60.7 247.3 61.3 247.3 62 C 247.3 62.9 248.3 63.1 249.7 63.3 C 251.8 63.6 254.3 63.9 254.3 66.6 Z M 265.9 70.4 C 262.1 70.4 260.3 67.5 260.3 64.4 C 260.3 61.3 262.1 58.4 265.9 58.4 C 268.8 58.4 270.9 60 271 62.8 C 271 62.8 268.3 62.8 268.3 62.8 C 268.1 61.7 267.3 60.9 266 60.9 C 263.9 60.9 263.1 62.6 263.1 64.4 C 263.1 66.3 264 67.8 266 67.8 C 267.3 67.8 268.1 67.1 268.3 66.1 C 268.3 66.1 271.1 66.1 271.1 66.1 C 270.7 68.9 268.7 70.4 265.9 70.4 Z M 275.9 70.2 L 273.1 70.2 L 273.1 54.2 L 275.9 54.2 L 275.9 70.2 Z M 278.5 57.1 L 281.5 57.1 L 281.5 53.9 L 278.5 53.9 L 278.5 57.1 Z M 278.6 58.6 L 281.4 58.6 L 281.4 70.2 L 278.6 70.2 L 278.6 58.6 Z M 286.1 65.2 C 286.1 67.1 287.5 68 289.1 68 C 290.2 68 291.2 67.6 291.5 66.5 C 291.5 66.5 294.1 66.5 294.1 66.5 C 293.6 69.1 291.3 70.4 288.9 70.4 C 286.1 70.4 283.4 68.5 283.4 64.4 C 283.4 60.4 286 58.4 289 58.4 C 291.8 58.4 294.1 60.2 294.1 64.1 C 294.14 64.09 294.1 65.2 294.1 65.2 C 294.1 65.2 286.08 65.23 286.1 65.2 Z M 286.1 63.2 C 286.1 63.2 291.4 63.2 291.4 63.2 C 291.4 61.7 290.3 60.8 288.9 60.8 C 287.6 60.8 286.4 61.5 286.1 63.2 Z M 306.3 62.7 C 306.32 62.71 306.3 70.2 306.3 70.2 L 303.5 70.2 C 303.5 70.2 303.53 62.96 303.5 63 C 303.5 61.7 302.8 60.9 301.5 60.9 C 299.9 60.9 298.9 62 298.9 63.9 C 298.93 63.92 298.9 70.2 298.9 70.2 L 296.1 70.2 L 296.1 58.6 L 298.9 58.6 C 298.9 58.6 298.91 60.27 298.9 60.3 C 299.6 59.2 300.5 58.4 302.4 58.4 C 305.1 58.4 306.3 59.9 306.3 62.7 Z M 314.9 70.2 C 314.9 70.2 313.04 70.18 313 70.2 C 310.9 70.2 309.5 69.5 309.5 66.4 C 309.49 66.4 309.5 61.1 309.5 61.1 L 307.4 61.1 L 307.4 58.6 L 309.5 58.6 L 309.5 56 L 312.3 55.2 L 312.3 58.6 L 314.6 58.6 L 314.6 61.1 L 312.3 61.1 C 312.3 61.1 312.29 66.53 312.3 66.5 C 312.3 67.2 312.5 67.7 313.5 67.7 C 313.46 67.7 314.9 67.7 314.9 67.7 L 314.9 70.2 Z M 318.4 65.2 C 318.5 67.1 319.8 68 321.4 68 C 322.5 68 323.5 67.6 323.9 66.5 C 323.9 66.5 326.4 66.5 326.4 66.5 C 325.9 69.1 323.6 70.4 321.3 70.4 C 318.5 70.4 315.7 68.5 315.7 64.4 C 315.7 60.4 318.3 58.4 321.3 58.4 C 324.1 58.4 326.5 60.2 326.5 64.1 C 326.48 64.09 326.5 65.2 326.5 65.2 C 326.5 65.2 318.42 65.23 318.4 65.2 Z M 318.5 63.2 C 318.5 63.2 323.8 63.2 323.8 63.2 C 323.8 61.7 322.7 60.8 321.3 60.8 C 320 60.8 318.7 61.5 318.5 63.2 Z M 337.7 66.6 C 337.7 69.2 335.4 70.4 332.8 70.4 C 330.4 70.4 327.8 69.4 327.6 66.5 C 327.6 66.5 330.5 66.5 330.5 66.5 C 330.6 67.6 331.7 68.1 333 68.1 C 334.1 68.1 335 67.7 335 66.9 C 335 66.1 334.4 66 332.8 65.7 C 330.6 65.3 328 64.9 328 62.1 C 328 59.5 330.2 58.4 332.6 58.4 C 335.3 58.4 337.3 59.7 337.5 62.3 C 337.5 62.3 334.7 62.3 334.7 62.3 C 334.6 61.2 333.8 60.7 332.6 60.7 C 331.2 60.7 330.7 61.3 330.7 62 C 330.7 62.9 331.7 63.1 333.1 63.3 C 335.2 63.6 337.7 63.9 337.7 66.6 Z M 342.4 64.6 C 342.4 61.9 343.7 61.4 345 60.5 C 346 59.8 346.5 59.2 346.5 58.4 C 346.5 57.2 345.6 56.6 344.4 56.6 C 342.9 56.6 342 57.4 341.9 58.8 C 341.9 58.8 339.1 58.8 339.1 58.8 C 339.4 55.4 341.8 54.2 344.4 54.2 C 347.2 54.2 349.4 55.5 349.4 58.3 C 349.4 60.5 348.1 61.4 346.6 62.4 C 345.6 63.2 345.1 63.7 345.1 64.6 C 345.07 64.64 345.1 65.3 345.1 65.3 L 342.4 65.3 C 342.4 65.3 342.4 64.55 342.4 64.6 Z M 342.2 66.9 L 345.3 66.9 L 345.3 70.2 L 342.2 70.2 L 342.2 66.9 Z " stroke="none" fill="#000"/>  </g>  <g id="Polygon10046">    <path d="M 7.9 36 C 7.9 36 7.18 35.97 7.2 36 C 5.2 36 4.2 37 4.2 39.3 C 4.16 39.31 4.2 45 4.2 45 L 1.4 45 L 1.4 33.4 L 4.1 33.4 C 4.1 33.4 4.14 35.05 4.1 35 C 4.7 33.8 5.8 33.3 7.2 33.3 C 7.16 33.26 7.9 33.3 7.9 33.3 L 7.9 36 Z M 11 40 C 11.1 41.9 12.5 42.8 14 42.8 C 15.1 42.8 16.2 42.4 16.5 41.3 C 16.5 41.3 19.1 41.3 19.1 41.3 C 18.6 43.9 16.3 45.2 13.9 45.2 C 11.1 45.2 8.3 43.3 8.3 39.2 C 8.3 35.2 11 33.2 13.9 33.2 C 16.7 33.2 19.1 35 19.1 38.9 C 19.11 38.89 19.1 40 19.1 40 C 19.1 40 11.05 40.03 11 40 Z M 11.1 38 C 11.1 38 16.4 38 16.4 38 C 16.4 36.5 15.3 35.6 13.9 35.6 C 12.6 35.6 11.4 36.3 11.1 38 Z M 31.5 44.2 C 31.5 47.9 29.1 49.6 26 49.6 C 23.2 49.6 20.9 48.2 20.5 45.3 C 20.5 45.3 23.2 45.3 23.2 45.3 C 23.5 46.8 24.7 47.2 26 47.2 C 27.8 47.2 28.9 46.3 28.9 44.5 C 28.9 44.5 28.9 42.6 28.9 42.6 C 28.3 43.8 27.2 44.6 25.4 44.6 C 22.8 44.6 20.4 42.8 20.4 38.9 C 20.4 35 22.8 33.2 25.4 33.2 C 27.1 33.2 28.3 33.9 28.9 35 C 28.85 35.01 28.9 33.4 28.9 33.4 L 31.5 33.4 C 31.5 33.4 31.54 44.2 31.5 44.2 Z M 28.7 38.9 C 28.7 36.7 27.5 35.6 26 35.6 C 24.5 35.6 23.1 36.7 23.1 38.9 C 23.1 41.1 24.5 42.1 26 42.1 C 27.5 42.1 28.7 41.1 28.7 38.9 Z M 34.1 31.9 L 37 31.9 L 37 28.7 L 34.1 28.7 L 34.1 31.9 Z M 34.1 33.4 L 36.9 33.4 L 36.9 45 L 34.1 45 L 34.1 33.4 Z M 48.9 41.4 C 48.9 44 46.6 45.2 44 45.2 C 41.6 45.2 39 44.2 38.8 41.3 C 38.8 41.3 41.6 41.3 41.6 41.3 C 41.8 42.4 42.8 42.9 44.1 42.9 C 45.3 42.9 46.2 42.5 46.2 41.7 C 46.2 40.9 45.6 40.8 44 40.5 C 41.7 40.1 39.2 39.7 39.2 36.9 C 39.2 34.3 41.4 33.2 43.8 33.2 C 46.5 33.2 48.5 34.5 48.6 37.1 C 48.6 37.1 45.9 37.1 45.9 37.1 C 45.8 36 45 35.5 43.8 35.5 C 42.4 35.5 41.9 36.1 41.9 36.8 C 41.9 37.7 42.9 37.9 44.3 38.1 C 46.4 38.4 48.9 38.7 48.9 41.4 Z M 56.7 45 C 56.7 45 54.89 44.98 54.9 45 C 52.7 45 51.3 44.3 51.3 41.2 C 51.34 41.2 51.3 35.9 51.3 35.9 L 49.2 35.9 L 49.2 33.4 L 51.3 33.4 L 51.3 30.8 L 54.1 30 L 54.1 33.4 L 56.4 33.4 L 56.4 35.9 L 54.1 35.9 C 54.1 35.9 54.14 41.33 54.1 41.3 C 54.1 42 54.3 42.5 55.3 42.5 C 55.31 42.5 56.7 42.5 56.7 42.5 L 56.7 45 Z M 64.8 36 C 64.8 36 64.11 35.97 64.1 36 C 62.2 36 61.1 37 61.1 39.3 C 61.09 39.31 61.1 45 61.1 45 L 58.3 45 L 58.3 33.4 L 61.1 33.4 C 61.1 33.4 61.07 35.05 61.1 35 C 61.7 33.8 62.7 33.3 64.1 33.3 C 64.09 33.26 64.8 33.3 64.8 33.3 L 64.8 36 Z M 75.5 37.2 C 75.47 37.19 75.5 45 75.5 45 L 72.7 45 C 72.7 45 72.74 43.3 72.7 43.3 C 71.8 44.8 70.5 45.2 69.2 45.2 C 67.4 45.2 65.5 44.1 65.5 41.6 C 65.5 39.8 66.5 38.6 69.2 38.2 C 69.2 38.2 71.7 37.8 71.7 37.8 C 72.4 37.7 72.8 37.5 72.8 36.8 C 72.8 35.8 72 35.4 70.9 35.4 C 69.4 35.4 68.7 36.1 68.6 37.1 C 68.6 37.1 65.9 37.1 65.9 37.1 C 66.2 34.4 68.4 33.2 71 33.2 C 73.8 33.2 75.5 34.5 75.5 37.2 Z M 72.8 40.1 C 72.8 40.1 72.8 39.5 72.8 39.5 C 72.5 39.6 72 39.8 71.4 39.8 C 71.4 39.8 70.1 40 70.1 40 C 68.7 40.2 68.3 40.8 68.3 41.5 C 68.3 42.4 68.9 42.9 69.9 42.9 C 71.3 42.9 72.8 41.8 72.8 40.1 Z M 88.2 37.5 C 88.18 37.51 88.2 45 88.2 45 L 85.4 45 C 85.4 45 85.39 37.76 85.4 37.8 C 85.4 36.5 84.7 35.7 83.3 35.7 C 81.8 35.7 80.8 36.8 80.8 38.7 C 80.79 38.72 80.8 45 80.8 45 L 78 45 L 78 33.4 L 80.8 33.4 C 80.8 33.4 80.77 35.07 80.8 35.1 C 81.4 34 82.4 33.2 84.3 33.2 C 86.9 33.2 88.2 34.7 88.2 37.5 Z M 101.4 45 L 98.7 45 C 98.7 45 98.72 43.2 98.7 43.2 C 98.1 44.5 96.7 45.2 95.1 45.2 C 92.4 45.2 90.1 43.2 90.1 39.2 C 90.1 35.2 92.4 33.2 95.1 33.2 C 96.7 33.2 98 33.8 98.7 34.9 C 98.66 34.92 98.7 29 98.7 29 L 101.4 29 L 101.4 45 Z M 98.7 39.2 C 98.7 36.8 97.3 35.7 95.8 35.7 C 94.3 35.7 92.9 36.8 92.9 39.2 C 92.9 41.5 94.3 42.7 95.8 42.7 C 97.3 42.7 98.7 41.5 98.7 39.2 Z M 114.8 39.2 C 114.8 43 112.3 45.2 109.1 45.2 C 105.9 45.2 103.4 43 103.4 39.2 C 103.4 35.4 105.9 33.2 109.1 33.2 C 112.3 33.2 114.8 35.4 114.8 39.2 Z M 106.3 39.2 C 106.3 41.5 107.6 42.6 109.1 42.6 C 110.8 42.6 111.9 41.4 111.9 39.2 C 111.9 36.9 110.6 35.8 109.1 35.8 C 107.4 35.8 106.3 37 106.3 39.2 Z M 128.6 36 C 128.6 36 127.83 35.97 127.8 36 C 125.9 36 124.8 37 124.8 39.3 C 124.8 39.31 124.8 45 124.8 45 L 122 45 L 122 33.4 L 124.8 33.4 C 124.8 33.4 124.78 35.05 124.8 35 C 125.4 33.8 126.4 33.3 127.8 33.3 C 127.8 33.26 128.6 33.3 128.6 33.3 L 128.6 36 Z M 131.7 40 C 131.8 41.9 133.1 42.8 134.7 42.8 C 135.8 42.8 136.8 42.4 137.1 41.3 C 137.1 41.3 139.7 41.3 139.7 41.3 C 139.2 43.9 136.9 45.2 134.5 45.2 C 131.8 45.2 129 43.3 129 39.2 C 129 35.2 131.6 33.2 134.6 33.2 C 137.4 33.2 139.8 35 139.8 38.9 C 139.75 38.89 139.8 40 139.8 40 C 139.8 40 131.69 40.03 131.7 40 Z M 131.8 38 C 131.8 38 137 38 137 38 C 137 36.5 136 35.6 134.5 35.6 C 133.2 35.6 132 36.3 131.8 38 Z M 151.9 37.5 C 151.93 37.51 151.9 45 151.9 45 L 149.1 45 C 149.1 45 149.14 37.76 149.1 37.8 C 149.1 36.5 148.4 35.7 147.1 35.7 C 145.5 35.7 144.5 36.8 144.5 38.7 C 144.54 38.72 144.5 45 144.5 45 L 141.7 45 L 141.7 33.4 L 144.5 33.4 C 144.5 33.4 144.52 35.07 144.5 35.1 C 145.2 34 146.1 33.2 148 33.2 C 150.7 33.2 151.9 34.7 151.9 37.5 Z M 165.2 45 L 162.5 45 C 162.5 45 162.48 43.2 162.5 43.2 C 161.8 44.5 160.5 45.2 158.9 45.2 C 156.2 45.2 153.8 43.2 153.8 39.2 C 153.8 35.2 156.2 33.2 158.9 33.2 C 160.4 33.2 161.7 33.8 162.4 34.9 C 162.41 34.92 162.4 29 162.4 29 L 165.2 29 L 165.2 45 Z M 162.5 39.2 C 162.5 36.8 161.1 35.7 159.6 35.7 C 158 35.7 156.7 36.8 156.7 39.2 C 156.7 41.5 158 42.7 159.6 42.7 C 161.1 42.7 162.5 41.5 162.5 39.2 Z M 167.8 31.9 L 170.8 31.9 L 170.8 28.7 L 167.8 28.7 L 167.8 31.9 Z M 167.9 33.4 L 170.7 33.4 L 170.7 45 L 167.9 45 L 167.9 33.4 Z M 189.8 37.2 C 189.77 37.17 189.8 45 189.8 45 L 187 45 C 187 45 186.98 37.72 187 37.7 C 187 36.3 186.3 35.7 185.2 35.7 C 183.9 35.7 183 36.5 183 38.5 C 182.99 38.47 183 45 183 45 L 180.2 45 C 180.2 45 180.2 37.72 180.2 37.7 C 180.2 36.3 179.5 35.7 178.4 35.7 C 177.1 35.7 176.2 36.5 176.2 38.5 C 176.21 38.45 176.2 45 176.2 45 L 173.4 45 L 173.4 33.4 L 176.2 33.4 C 176.2 33.4 176.17 35.09 176.2 35.1 C 176.5 34.2 177.4 33.2 179.2 33.2 C 180.7 33.2 181.8 33.9 182.4 35.1 C 182.8 34.3 183.6 33.2 185.7 33.2 C 188.2 33.2 189.8 34.7 189.8 37.2 Z M 192.3 31.9 L 195.3 31.9 L 195.3 28.7 L 192.3 28.7 L 192.3 31.9 Z M 192.4 33.4 L 195.2 33.4 L 195.2 45 L 192.4 45 L 192.4 33.4 Z M 199.9 40 C 199.9 41.9 201.3 42.8 202.8 42.8 C 203.9 42.8 205 42.4 205.3 41.3 C 205.3 41.3 207.9 41.3 207.9 41.3 C 207.4 43.9 205.1 45.2 202.7 45.2 C 199.9 45.2 197.1 43.3 197.1 39.2 C 197.1 35.2 199.8 33.2 202.7 33.2 C 205.5 33.2 207.9 35 207.9 38.9 C 207.92 38.89 207.9 40 207.9 40 C 207.9 40 199.85 40.03 199.9 40 Z M 199.9 38 C 199.9 38 205.2 38 205.2 38 C 205.2 36.5 204.1 35.6 202.7 35.6 C 201.4 35.6 200.2 36.3 199.9 38 Z M 220.1 37.5 C 220.1 37.51 220.1 45 220.1 45 L 217.3 45 C 217.3 45 217.31 37.76 217.3 37.8 C 217.3 36.5 216.6 35.7 215.3 35.7 C 213.7 35.7 212.7 36.8 212.7 38.7 C 212.71 38.72 212.7 45 212.7 45 L 209.9 45 L 209.9 33.4 L 212.7 33.4 C 212.7 33.4 212.69 35.07 212.7 35.1 C 213.3 34 214.3 33.2 216.2 33.2 C 218.9 33.2 220.1 34.7 220.1 37.5 Z M 228.6 45 C 228.6 45 226.82 44.98 226.8 45 C 224.7 45 223.3 44.3 223.3 41.2 C 223.27 41.2 223.3 35.9 223.3 35.9 L 221.1 35.9 L 221.1 33.4 L 223.3 33.4 L 223.3 30.8 L 226.1 30 L 226.1 33.4 L 228.4 33.4 L 228.4 35.9 L 226.1 35.9 C 226.1 35.9 226.06 41.33 226.1 41.3 C 226.1 42 226.3 42.5 227.2 42.5 C 227.24 42.5 228.6 42.5 228.6 42.5 L 228.6 45 Z M 240.8 39.2 C 240.8 43 238.4 45.2 235.1 45.2 C 231.9 45.2 229.5 43 229.5 39.2 C 229.5 35.4 231.9 33.2 235.1 33.2 C 238.4 33.2 240.8 35.4 240.8 39.2 Z M 232.3 39.2 C 232.3 41.5 233.6 42.6 235.2 42.6 C 236.8 42.6 237.9 41.4 237.9 39.2 C 237.9 36.9 236.7 35.8 235.1 35.8 C 233.5 35.8 232.3 37 232.3 39.2 Z M 252.1 41.4 C 252.1 44 249.7 45.2 247.1 45.2 C 244.8 45.2 242.1 44.2 242 41.3 C 242 41.3 244.8 41.3 244.8 41.3 C 245 42.4 246 42.9 247.3 42.9 C 248.5 42.9 249.3 42.5 249.3 41.7 C 249.3 40.9 248.8 40.8 247.2 40.5 C 244.9 40.1 242.3 39.7 242.3 36.9 C 242.3 34.3 244.5 33.2 246.9 33.2 C 249.6 33.2 251.6 34.5 251.8 37.1 C 251.8 37.1 249.1 37.1 249.1 37.1 C 249 36 248.1 35.5 247 35.5 C 245.6 35.5 245 36.1 245 36.8 C 245 37.7 246.1 37.9 247.5 38.1 C 249.5 38.4 252.1 38.7 252.1 41.4 Z M 269.4 37.5 C 269.38 37.51 269.4 45 269.4 45 L 266.6 45 C 266.6 45 266.59 37.76 266.6 37.8 C 266.6 36.5 265.9 35.7 264.6 35.7 C 263 35.7 262 36.8 262 38.7 C 261.99 38.72 262 45 262 45 L 259.2 45 L 259.2 33.4 L 262 33.4 C 262 33.4 261.97 35.07 262 35.1 C 262.6 34 263.6 33.2 265.5 33.2 C 268.1 33.2 269.4 34.7 269.4 37.5 Z M 274 40 C 274 41.9 275.4 42.8 277 42.8 C 278.1 42.8 279.1 42.4 279.4 41.3 C 279.4 41.3 282 41.3 282 41.3 C 281.5 43.9 279.2 45.2 276.8 45.2 C 274 45.2 271.3 43.3 271.3 39.2 C 271.3 35.2 273.9 33.2 276.9 33.2 C 279.7 33.2 282 35 282 38.9 C 282.05 38.89 282 40 282 40 C 282 40 273.98 40.03 274 40 Z M 274 38 C 274 38 279.3 38 279.3 38 C 279.3 36.5 278.2 35.6 276.8 35.6 C 275.5 35.6 274.3 36.3 274 38 Z M 294.5 44.2 C 294.5 47.9 292.1 49.6 289 49.6 C 286.1 49.6 283.8 48.2 283.5 45.3 C 283.5 45.3 286.2 45.3 286.2 45.3 C 286.5 46.8 287.7 47.2 289 47.2 C 290.8 47.2 291.8 46.3 291.8 44.5 C 291.8 44.5 291.8 42.6 291.8 42.6 C 291.3 43.8 290.1 44.6 288.4 44.6 C 285.8 44.6 283.3 42.8 283.3 38.9 C 283.3 35 285.8 33.2 288.4 33.2 C 290 33.2 291.2 33.9 291.8 35 C 291.79 35.01 291.8 33.4 291.8 33.4 L 294.5 33.4 C 294.5 33.4 294.48 44.2 294.5 44.2 Z M 291.7 38.9 C 291.7 36.7 290.5 35.6 289 35.6 C 287.4 35.6 286.1 36.7 286.1 38.9 C 286.1 41.1 287.4 42.1 289 42.1 C 290.5 42.1 291.7 41.1 291.7 38.9 Z M 306.4 37.2 C 306.37 37.19 306.4 45 306.4 45 L 303.6 45 C 303.6 45 303.64 43.3 303.6 43.3 C 302.7 44.8 301.3 45.2 300.1 45.2 C 298.3 45.2 296.4 44.1 296.4 41.6 C 296.4 39.8 297.4 38.6 300.1 38.2 C 300.1 38.2 302.6 37.8 302.6 37.8 C 303.3 37.7 303.7 37.5 303.7 36.8 C 303.7 35.8 302.9 35.4 301.8 35.4 C 300.3 35.4 299.6 36.1 299.5 37.1 C 299.5 37.1 296.8 37.1 296.8 37.1 C 297.1 34.4 299.3 33.2 301.9 33.2 C 304.6 33.2 306.4 34.5 306.4 37.2 Z M 303.7 40.1 C 303.7 40.1 303.7 39.5 303.7 39.5 C 303.4 39.6 302.9 39.8 302.3 39.8 C 302.3 39.8 301 40 301 40 C 299.6 40.2 299.2 40.8 299.2 41.5 C 299.2 42.4 299.8 42.9 300.8 42.9 C 302.2 42.9 303.7 41.8 303.7 40.1 Z M 314.8 45 C 314.8 45 312.98 44.98 313 45 C 310.8 45 309.4 44.3 309.4 41.2 C 309.43 41.2 309.4 35.9 309.4 35.9 L 307.3 35.9 L 307.3 33.4 L 309.4 33.4 L 309.4 30.8 L 312.2 30 L 312.2 33.4 L 314.5 33.4 L 314.5 35.9 L 312.2 35.9 C 312.2 35.9 312.22 41.33 312.2 41.3 C 312.2 42 312.4 42.5 313.4 42.5 C 313.4 42.5 314.8 42.5 314.8 42.5 L 314.8 45 Z M 316.3 31.9 L 319.2 31.9 L 319.2 28.7 L 316.3 28.7 L 316.3 31.9 Z M 316.4 33.4 L 319.2 33.4 L 319.2 45 L 316.4 45 L 316.4 33.4 Z M 327.7 45 L 324.8 45 L 320.5 33.4 L 323.5 33.4 L 326.3 41.7 L 329.1 33.4 L 332 33.4 L 327.7 45 Z M 343.8 39.2 C 343.8 43 341.4 45.2 338.1 45.2 C 334.9 45.2 332.5 43 332.5 39.2 C 332.5 35.4 334.9 33.2 338.1 33.2 C 341.4 33.2 343.8 35.4 343.8 39.2 Z M 335.3 39.2 C 335.3 41.5 336.6 42.6 338.2 42.6 C 339.8 42.6 340.9 41.4 340.9 39.2 C 340.9 36.9 339.6 35.8 338.1 35.8 C 336.4 35.8 335.3 37 335.3 39.2 Z M 355 41.4 C 355 44 352.7 45.2 350.1 45.2 C 347.7 45.2 345.1 44.2 344.9 41.3 C 344.9 41.3 347.8 41.3 347.8 41.3 C 347.9 42.4 349 42.9 350.3 42.9 C 351.5 42.9 352.3 42.5 352.3 41.7 C 352.3 40.9 351.7 40.8 350.1 40.5 C 347.9 40.1 345.3 39.7 345.3 36.9 C 345.3 34.3 347.5 33.2 349.9 33.2 C 352.6 33.2 354.6 34.5 354.8 37.1 C 354.8 37.1 352 37.1 352 37.1 C 351.9 36 351.1 35.5 349.9 35.5 C 348.6 35.5 348 36.1 348 36.8 C 348 37.7 349 37.9 350.4 38.1 C 352.5 38.4 355 38.7 355 41.4 Z M 358.4 44.8 C 358.42 44.79 357 44.8 357 44.8 L 357 41.9 L 360.2 41.9 C 360.2 41.9 360.21 44.39 360.2 44.4 C 360.2 47.4 358.2 48.5 356.3 48.7 C 356.3 48.7 356 47.2 356 47.2 C 357.5 47 358.4 46.1 358.4 44.8 Z " stroke="none" fill="#000"/>  </g>  <g id="Polygon10045">    <path d="M 12.5 14 C 12.5 14 15.5 14 15.5 14 C 15.3 18.1 12.1 20.2 8.5 20.2 C 3.5 20.2 0.8 16.2 0.8 11.8 C 0.8 7.7 3.3 3.7 8.5 3.7 C 12.3 3.7 15 5.7 15.4 9.3 C 15.4 9.3 12.4 9.3 12.4 9.3 C 12.2 7.5 10.6 6.4 8.5 6.4 C 5.3 6.4 3.8 9 3.8 11.8 C 3.8 14.7 5.4 17.4 8.5 17.4 C 10.4 17.4 12.3 16.4 12.5 14 Z M 28.2 14 C 28.2 17.8 25.8 20 22.5 20 C 19.3 20 16.9 17.8 16.9 14 C 16.9 10.2 19.3 8 22.5 8 C 25.8 8 28.2 10.2 28.2 14 Z M 19.7 14 C 19.7 16.3 21 17.4 22.6 17.4 C 24.2 17.4 25.3 16.2 25.3 14 C 25.3 11.7 24 10.6 22.5 10.6 C 20.8 10.6 19.7 11.8 19.7 14 Z M 40.4 12.3 C 40.36 12.31 40.4 19.8 40.4 19.8 L 37.6 19.8 C 37.6 19.8 37.57 12.56 37.6 12.6 C 37.6 11.3 36.8 10.5 35.5 10.5 C 33.9 10.5 33 11.6 33 13.5 C 32.97 13.52 33 19.8 33 19.8 L 30.2 19.8 L 30.2 8.2 L 32.9 8.2 C 32.9 8.2 32.95 9.87 32.9 9.9 C 33.6 8.8 34.5 8 36.5 8 C 39.1 8 40.4 9.5 40.4 12.3 Z M 65 12 C 65.02 11.97 65 19.8 65 19.8 L 62.2 19.8 C 62.2 19.8 62.22 12.52 62.2 12.5 C 62.2 11.1 61.6 10.5 60.4 10.5 C 59.1 10.5 58.2 11.3 58.2 13.3 C 58.23 13.27 58.2 19.8 58.2 19.8 L 55.4 19.8 C 55.4 19.8 55.44 12.52 55.4 12.5 C 55.4 11.1 54.7 10.5 53.6 10.5 C 52.3 10.5 51.4 11.3 51.4 13.3 C 51.45 13.25 51.4 19.8 51.4 19.8 L 48.7 19.8 L 48.7 8.2 L 51.4 8.2 C 51.4 8.2 51.41 9.89 51.4 9.9 C 51.8 9 52.6 8 54.4 8 C 55.9 8 57.1 8.7 57.6 9.9 C 58 9.1 58.9 8 61 8 C 63.4 8 65 9.5 65 12 Z M 71.2 6.1 L 74.4 1.1 L 76.6 2.8 L 73.6 6.1 L 71.2 6.1 Z M 76.9 12 C 76.9 11.99 76.9 19.8 76.9 19.8 L 74.2 19.8 C 74.2 19.8 74.17 18.1 74.2 18.1 C 73.3 19.6 71.9 20 70.7 20 C 68.8 20 66.9 18.9 66.9 16.4 C 66.9 14.6 67.9 13.4 70.6 13 C 70.6 13 73.1 12.6 73.1 12.6 C 73.8 12.5 74.3 12.3 74.3 11.6 C 74.3 10.6 73.4 10.2 72.3 10.2 C 70.8 10.2 70.2 10.9 70.1 11.9 C 70.1 11.9 67.4 11.9 67.4 11.9 C 67.7 9.2 69.8 8 72.4 8 C 75.2 8 76.9 9.3 76.9 12 Z M 74.2 14.9 C 74.2 14.9 74.2 14.3 74.2 14.3 C 73.9 14.4 73.4 14.6 72.8 14.6 C 72.8 14.6 71.6 14.8 71.6 14.8 C 70.2 15 69.7 15.6 69.7 16.3 C 69.7 17.2 70.3 17.7 71.3 17.7 C 72.8 17.7 74.2 16.6 74.2 14.9 Z M 88.7 16.2 C 88.7 18.8 86.4 20 83.8 20 C 81.4 20 78.8 19 78.6 16.1 C 78.6 16.1 81.4 16.1 81.4 16.1 C 81.6 17.2 82.6 17.7 83.9 17.7 C 85.1 17.7 85.9 17.3 85.9 16.5 C 85.9 15.7 85.4 15.6 83.8 15.3 C 81.5 14.9 78.9 14.5 78.9 11.7 C 78.9 9.1 81.1 8 83.5 8 C 86.2 8 88.2 9.3 88.4 11.9 C 88.4 11.9 85.7 11.9 85.7 11.9 C 85.6 10.8 84.8 10.3 83.6 10.3 C 82.2 10.3 81.6 10.9 81.6 11.6 C 81.6 12.5 82.7 12.7 84.1 12.9 C 86.2 13.2 88.7 13.5 88.7 16.2 Z M 106 19.8 L 103.3 19.8 C 103.3 19.8 103.32 18 103.3 18 C 102.7 19.3 101.3 20 99.7 20 C 97 20 94.7 18 94.7 14 C 94.7 10 97 8 99.7 8 C 101.3 8 102.6 8.6 103.3 9.7 C 103.26 9.72 103.3 3.8 103.3 3.8 L 106 3.8 L 106 19.8 Z M 103.3 14 C 103.3 11.6 101.9 10.5 100.4 10.5 C 98.9 10.5 97.5 11.6 97.5 14 C 97.5 16.3 98.9 17.5 100.4 17.5 C 101.9 17.5 103.3 16.3 103.3 14 Z M 110.8 14.8 C 110.8 16.7 112.2 17.6 113.7 17.6 C 114.8 17.6 115.9 17.2 116.2 16.1 C 116.2 16.1 118.8 16.1 118.8 16.1 C 118.3 18.7 116 20 113.6 20 C 110.8 20 108 18.1 108 14 C 108 10 110.7 8 113.6 8 C 116.4 8 118.8 9.8 118.8 13.7 C 118.82 13.69 118.8 14.8 118.8 14.8 C 118.8 14.8 110.75 14.83 110.8 14.8 Z M 110.8 12.8 C 110.8 12.8 116.1 12.8 116.1 12.8 C 116.1 11.3 115 10.4 113.6 10.4 C 112.3 10.4 111.1 11.1 110.8 12.8 Z M 123.6 19.8 L 120.8 19.8 L 120.8 3.8 L 123.6 3.8 L 123.6 19.8 Z M 142.7 15.5 C 142.7 18.5 140 20 137.2 20 C 134.1 20 131.2 18.3 131.2 14.7 C 131.2 14.7 134.1 14.7 134.1 14.7 C 134 16.5 135.4 17.5 137.1 17.5 C 138.5 17.5 139.8 16.8 139.8 15.4 C 139.8 14 138.6 13.3 136.6 13.3 C 136.58 13.33 135.4 13.3 135.4 13.3 L 135.4 10.8 C 135.4 10.8 136.5 10.81 136.5 10.8 C 138.4 10.8 139.5 9.9 139.5 8.6 C 139.5 7.3 138.4 6.6 137 6.6 C 135.4 6.6 134.3 7.5 134.3 9.5 C 134.3 9.5 131.4 9.5 131.4 9.5 C 131.4 5.8 134.1 4 137.1 4 C 139.9 4 142.4 5.5 142.4 8.2 C 142.4 10.2 141.1 11.4 139.8 11.8 C 141.4 12.4 142.7 13.4 142.7 15.5 Z M 144 12.1 C 144 7.2 145.7 4 149.5 4 C 153.3 4 155 7.2 155 12 C 155 16.9 153.3 20 149.5 20 C 145.7 20 144 16.9 144 12.1 Z M 152.2 12.1 C 152.2 9 151.5 6.5 149.5 6.5 C 147.7 6.5 146.8 8.5 146.8 11.9 C 146.8 15.4 147.7 17.6 149.6 17.6 C 151.4 17.6 152.2 15.3 152.2 12.1 Z M 165.7 3.5 C 168 3.5 169.7 5.1 169.7 7.5 C 169.7 9.8 168 11.5 165.7 11.5 C 163.4 11.5 161.7 9.8 161.7 7.5 C 161.7 5.1 163.4 3.5 165.7 3.5 Z M 166.9 19.8 L 165.2 19.8 L 175.2 4 L 176.8 4 L 166.9 19.8 Z M 165.7 5.3 C 164.5 5.3 163.6 6.2 163.6 7.5 C 163.6 8.8 164.5 9.7 165.7 9.7 C 166.9 9.7 167.8 8.8 167.8 7.5 C 167.8 6.2 166.9 5.3 165.7 5.3 Z M 175.8 12.4 C 178.1 12.4 179.9 14 179.9 16.4 C 179.9 18.7 178.1 20.4 175.8 20.4 C 173.6 20.4 171.9 18.7 171.9 16.4 C 171.9 14 173.6 12.4 175.8 12.4 Z M 175.9 14.2 C 174.6 14.2 173.8 15.1 173.8 16.4 C 173.8 17.7 174.6 18.6 175.9 18.6 C 177.1 18.6 178 17.7 178 16.4 C 178 15.1 177.1 14.2 175.9 14.2 Z M 197.3 19.8 L 194.6 19.8 C 194.6 19.8 194.6 18 194.6 18 C 194 19.3 192.6 20 191 20 C 188.3 20 186 18 186 14 C 186 10 188.3 8 191 8 C 192.5 8 193.8 8.6 194.5 9.7 C 194.54 9.72 194.5 3.8 194.5 3.8 L 197.3 3.8 L 197.3 19.8 Z M 194.6 14 C 194.6 11.6 193.2 10.5 191.7 10.5 C 190.2 10.5 188.8 11.6 188.8 14 C 188.8 16.3 190.2 17.5 191.7 17.5 C 193.2 17.5 194.6 16.3 194.6 14 Z M 202 14.8 C 202.1 16.7 203.4 17.6 205 17.6 C 206.1 17.6 207.2 17.2 207.5 16.1 C 207.5 16.1 210.1 16.1 210.1 16.1 C 209.6 18.7 207.3 20 204.9 20 C 202.1 20 199.3 18.1 199.3 14 C 199.3 10 202 8 204.9 8 C 207.7 8 210.1 9.8 210.1 13.7 C 210.1 13.69 210.1 14.8 210.1 14.8 C 210.1 14.8 202.04 14.83 202 14.8 Z M 202.1 12.8 C 202.1 12.8 207.4 12.8 207.4 12.8 C 207.4 11.3 206.3 10.4 204.9 10.4 C 203.6 10.4 202.4 11.1 202.1 12.8 Z M 214.9 19.8 L 212.1 19.8 L 212.1 3.8 L 214.9 3.8 L 214.9 19.8 Z M 233.4 19.8 L 230.7 19.8 C 230.7 19.8 230.7 18.14 230.7 18.1 C 230 19.2 229 19.9 227.4 19.9 C 224.9 19.9 223.2 18.4 223.2 15.4 C 223.18 15.39 223.2 8.2 223.2 8.2 L 226 8.2 C 226 8.2 225.98 15.18 226 15.2 C 226 16.8 226.8 17.4 228 17.4 C 229.5 17.4 230.6 16.5 230.6 13.8 C 230.64 13.8 230.6 8.2 230.6 8.2 L 233.4 8.2 L 233.4 19.8 Z M 246.3 12.3 C 246.35 12.31 246.3 19.8 246.3 19.8 L 243.6 19.8 C 243.6 19.8 243.55 12.56 243.6 12.6 C 243.6 11.3 242.8 10.5 241.5 10.5 C 239.9 10.5 239 11.6 239 13.5 C 238.96 13.52 239 19.8 239 19.8 L 236.2 19.8 L 236.2 8.2 L 238.9 8.2 C 238.9 8.2 238.93 9.87 238.9 9.9 C 239.6 8.8 240.5 8 242.5 8 C 245.1 8 246.3 9.5 246.3 12.3 Z M 248.9 6.7 L 251.8 6.7 L 251.8 3.5 L 248.9 3.5 L 248.9 6.7 Z M 249 8.2 L 251.7 8.2 L 251.7 19.8 L 249 19.8 L 249 8.2 Z M 260.3 19.8 L 257.4 19.8 L 253.1 8.2 L 256 8.2 L 258.9 16.5 L 261.7 8.2 L 264.6 8.2 L 260.3 19.8 Z M 267.8 14.8 C 267.8 16.7 269.2 17.6 270.7 17.6 C 271.8 17.6 272.9 17.2 273.2 16.1 C 273.2 16.1 275.8 16.1 275.8 16.1 C 275.3 18.7 273 20 270.6 20 C 267.8 20 265.1 18.1 265.1 14 C 265.1 10 267.7 8 270.6 8 C 273.5 8 275.8 9.8 275.8 13.7 C 275.83 13.69 275.8 14.8 275.8 14.8 C 275.8 14.8 267.77 14.83 267.8 14.8 Z M 267.8 12.8 C 267.8 12.8 273.1 12.8 273.1 12.8 C 273.1 11.3 272 10.4 270.6 10.4 C 269.3 10.4 268.1 11.1 267.8 12.8 Z M 284.4 10.8 C 284.4 10.8 283.64 10.77 283.6 10.8 C 281.7 10.8 280.6 11.8 280.6 14.1 C 280.62 14.11 280.6 19.8 280.6 19.8 L 277.8 19.8 L 277.8 8.2 L 280.6 8.2 C 280.6 8.2 280.6 9.85 280.6 9.8 C 281.2 8.6 282.3 8.1 283.6 8.1 C 283.62 8.06 284.4 8.1 284.4 8.1 L 284.4 10.8 Z M 295 16.2 C 295 18.8 292.7 20 290.1 20 C 287.7 20 285.1 19 284.9 16.1 C 284.9 16.1 287.7 16.1 287.7 16.1 C 287.9 17.2 288.9 17.7 290.2 17.7 C 291.4 17.7 292.3 17.3 292.3 16.5 C 292.3 15.7 291.7 15.6 290.1 15.3 C 287.8 14.9 285.3 14.5 285.3 11.7 C 285.3 9.1 287.5 8 289.9 8 C 292.6 8 294.6 9.3 294.7 11.9 C 294.7 11.9 292 11.9 292 11.9 C 291.9 10.8 291.1 10.3 289.9 10.3 C 288.5 10.3 288 10.9 288 11.6 C 288 12.5 289 12.7 290.4 12.9 C 292.5 13.2 295 13.5 295 16.2 Z M 307.5 14 C 307.5 17.8 305.1 20 301.8 20 C 298.6 20 296.2 17.8 296.2 14 C 296.2 10.2 298.6 8 301.8 8 C 305.1 8 307.5 10.2 307.5 14 Z M 299 14 C 299 16.3 300.3 17.4 301.8 17.4 C 303.5 17.4 304.6 16.2 304.6 14 C 304.6 11.7 303.3 10.6 301.8 10.6 C 300.1 10.6 299 11.8 299 14 Z M 324.9 19.8 L 322.2 19.8 C 322.2 19.8 322.22 18 322.2 18 C 321.6 19.3 320.2 20 318.6 20 C 315.9 20 313.6 18 313.6 14 C 313.6 10 315.9 8 318.6 8 C 320.2 8 321.5 8.6 322.2 9.7 C 322.16 9.72 322.2 3.8 322.2 3.8 L 324.9 3.8 L 324.9 19.8 Z M 322.2 14 C 322.2 11.6 320.8 10.5 319.3 10.5 C 317.8 10.5 316.4 11.6 316.4 14 C 316.4 16.3 317.8 17.5 319.3 17.5 C 320.8 17.5 322.2 16.3 322.2 14 Z M 329.7 14.8 C 329.7 16.7 331.1 17.6 332.6 17.6 C 333.7 17.6 334.8 17.2 335.1 16.1 C 335.1 16.1 337.7 16.1 337.7 16.1 C 337.2 18.7 334.9 20 332.5 20 C 329.7 20 326.9 18.1 326.9 14 C 326.9 10 329.6 8 332.5 8 C 335.3 8 337.7 9.8 337.7 13.7 C 337.72 13.69 337.7 14.8 337.7 14.8 C 337.7 14.8 329.65 14.83 329.7 14.8 Z M 329.7 12.8 C 329.7 12.8 335 12.8 335 12.8 C 335 11.3 333.9 10.4 332.5 10.4 C 331.2 10.4 330 11.1 329.7 12.8 Z M 356.3 14 C 356.3 18.1 353.8 20 351.1 20 C 349.7 20 348.4 19.5 347.7 18.4 C 347.69 18.4 347.7 19.8 347.7 19.8 L 345 19.8 L 345 3.8 L 347.8 3.8 C 347.8 3.8 347.76 9.89 347.8 9.9 C 348.4 8.7 349.7 8 351.3 8 C 354 8 356.3 10 356.3 14 Z M 353.5 14 C 353.5 11.7 352.1 10.5 350.6 10.5 C 349.1 10.5 347.7 11.7 347.7 14 C 347.7 16.4 349.1 17.6 350.6 17.6 C 352.1 17.6 353.5 16.4 353.5 14 Z M 368.9 14 C 368.9 17.8 366.5 20 363.3 20 C 360 20 357.6 17.8 357.6 14 C 357.6 10.2 360 8 363.3 8 C 366.5 8 368.9 10.2 368.9 14 Z M 360.5 14 C 360.5 16.3 361.7 17.4 363.3 17.4 C 365 17.4 366.1 16.2 366.1 14 C 366.1 11.7 364.8 10.6 363.2 10.6 C 361.6 10.6 360.5 11.8 360.5 14 Z M 381.1 12.3 C 381.1 12.31 381.1 19.8 381.1 19.8 L 378.3 19.8 C 378.3 19.8 378.31 12.56 378.3 12.6 C 378.3 11.3 377.6 10.5 376.3 10.5 C 374.7 10.5 373.7 11.6 373.7 13.5 C 373.71 13.52 373.7 19.8 373.7 19.8 L 370.9 19.8 L 370.9 8.2 L 373.7 8.2 C 373.7 8.2 373.69 9.87 373.7 9.9 C 374.3 8.8 375.3 8 377.2 8 C 379.9 8 381.1 9.5 381.1 12.3 Z M 394.3 14 C 394.3 17.8 391.9 20 388.6 20 C 385.4 20 383 17.8 383 14 C 383 10.2 385.4 8 388.6 8 C 391.9 8 394.3 10.2 394.3 14 Z M 385.8 14 C 385.8 16.3 387.1 17.4 388.7 17.4 C 390.3 17.4 391.5 16.2 391.5 14 C 391.5 11.7 390.2 10.6 388.6 10.6 C 387 10.6 385.8 11.8 385.8 14 Z M 405.6 16.2 C 405.6 18.8 403.3 20 400.7 20 C 398.3 20 395.7 19 395.5 16.1 C 395.5 16.1 398.3 16.1 398.3 16.1 C 398.5 17.2 399.5 17.7 400.8 17.7 C 402 17.7 402.8 17.3 402.8 16.5 C 402.8 15.7 402.3 15.6 400.7 15.3 C 398.4 14.9 395.8 14.5 395.8 11.7 C 395.8 9.1 398 8 400.4 8 C 403.1 8 405.1 9.3 405.3 11.9 C 405.3 11.9 402.6 11.9 402.6 11.9 C 402.5 10.8 401.6 10.3 400.5 10.3 C 399.1 10.3 398.5 10.9 398.5 11.6 C 398.5 12.5 399.6 12.7 401 12.9 C 403 13.2 405.6 13.5 405.6 16.2 Z " stroke="none" fill="#000"/>  </g></svg>