<?xml version="1.0" standalone="no"?><!DOCTYPE svg PUBLIC "-//W3C//DTD SVG 1.1//EN" "http://www.w3.org/Graphics/SVG/1.1/DTD/svg11.dtd"><svg xmlns="http://www.w3.org/2000/svg" version="1.1" width="65.2px" height="54.7px" viewBox="0 -1 65.2 54.7" style="top:-1px">  <desc>5 02</desc>  <defs/>  <g id="Polygon9465">    <path d="M 21.9 25.5 C 21.9 29.4 19.2 33.4 13.9 33.4 C 9.7 33.4 5.9 30.8 5.9 25.7 C 5.9 25.7 9.8 25.7 9.8 25.7 C 9.8 28.7 11.7 29.9 13.9 29.9 C 16.7 29.9 18 28 18 25.8 C 18 23.8 16.8 21.8 14.1 21.8 C 12.9 21.8 11.7 22.2 10.8 23 C 10.76 23.04 6.6 23 6.6 23 L 8.6 10.9 L 20.8 10.9 L 20.8 14.6 L 11.7 14.6 C 11.7 14.6 10.94 19.47 10.9 19.5 C 12 18.5 13.2 18.1 14.7 18.1 C 19.5 18.1 21.9 21.8 21.9 25.5 Z M 23.8 28.4 L 28.3 28.4 L 28.3 33 L 23.8 33 L 23.8 28.4 Z M 30.3 22 C 30.3 15.1 32.7 10.5 38.2 10.5 C 43.6 10.5 46 15.1 46 21.9 C 46 28.9 43.5 33.4 38.1 33.4 C 32.7 33.4 30.3 28.9 30.3 22 Z M 42 22.1 C 42 17.6 40.9 14 38.1 14 C 35.5 14 34.3 17 34.3 21.8 C 34.3 26.7 35.6 29.9 38.2 29.9 C 40.9 29.9 42 26.6 42 22.1 Z M 64.4 33 L 48.2 33 L 48.2 29.3 C 48.2 29.3 53.63 24.84 53.6 24.8 C 57.8 21.4 59.6 19.8 59.6 17.5 C 59.6 15.5 58.1 14.3 56 14.3 C 53.7 14.3 52.1 15.7 51.9 18.3 C 51.9 18.3 48 18.3 48 18.3 C 48 13.2 51.8 10.5 56.2 10.5 C 60.3 10.5 63.8 12.8 63.8 17.1 C 63.8 21 60.9 23.6 57 26.8 C 57.02 26.76 53.8 29.3 53.8 29.3 L 64.4 29.3 L 64.4 33 Z " stroke="none" fill="#000"/>  </g></svg>