<?xml version="1.0" standalone="no"?><!DOCTYPE svg PUBLIC "-//W3C//DTD SVG 1.1//EN" "http://www.w3.org/Graphics/SVG/1.1/DTD/svg11.dtd"><svg xmlns="http://www.w3.org/2000/svg" version="1.1" width="316px" height="204.2px" viewBox="0 -4 316 204.2" style="top:-4px">  <desc>Maxime Ricomes, CFA, CAIA Senior Multi-Asset Multi-Management Analyst, Aviva Investors France</desc>  <defs/>  <g id="Polygon11134">    <path d="M 13.4 132.7 L 4.8 132.7 L 2.8 137.8 L 0.8 137.8 L 8.1 119.8 L 10 119.8 L 17.5 137.8 L 15.4 137.8 L 13.4 132.7 Z M 9 121.9 L 5.4 131.1 L 12.7 131.1 L 9 121.9 Z M 24.6 137.8 L 22.7 137.8 L 18 124.9 L 19.8 124.9 L 23.7 136 L 27.6 124.9 L 29.4 124.9 L 24.6 137.8 Z M 33.6 119.5 L 31.6 119.5 L 31.6 121.7 L 33.6 121.7 L 33.6 119.5 Z M 33.5 137.8 L 31.7 137.8 L 31.7 124.9 L 33.5 124.9 L 33.5 137.8 Z M 42.4 137.8 L 40.5 137.8 L 35.7 124.9 L 37.6 124.9 L 41.5 136 L 45.4 124.9 L 47.2 124.9 L 42.4 137.8 Z M 57.2 135.5 C 56.2 137.4 54.2 138.1 52.6 138.1 C 50.4 138.1 48.4 136.8 48.4 134.2 C 48.4 131.9 50.1 130.8 52.3 130.5 C 52.3 130.5 55.4 130.1 55.4 130.1 C 56.3 129.9 57.2 129.6 57.2 128.5 C 57.2 127 55.8 126.1 54 126.1 C 52.1 126.1 50.9 127.1 50.7 128.5 C 50.7 128.5 48.9 128.5 48.9 128.5 C 49.3 126 51.3 124.7 54.2 124.7 C 57.1 124.7 58.9 126 58.9 128.9 C 58.87 128.9 58.9 137.8 58.9 137.8 L 57.2 137.8 C 57.2 137.8 57.17 135.46 57.2 135.5 Z M 55 131.5 C 55 131.5 53.1 131.8 53.1 131.8 C 51.4 132 50.2 132.6 50.2 134.2 C 50.2 135.8 51.5 136.5 52.9 136.5 C 54.9 136.5 57.1 135 57.1 132.2 C 57.1 132.2 57.1 131 57.1 131 C 56.6 131.3 55.9 131.4 55 131.5 Z M 70.7 137.8 L 68.8 137.8 L 68.8 119.8 L 70.7 119.8 L 70.7 137.8 Z M 85.3 129 C 85.32 128.98 85.3 137.8 85.3 137.8 L 83.6 137.8 C 83.6 137.8 83.57 129.19 83.6 129.2 C 83.6 127.4 82.6 126.3 80.7 126.3 C 78.5 126.3 76.6 127.9 76.6 131 C 76.61 131.04 76.6 137.8 76.6 137.8 L 74.9 137.8 L 74.9 124.9 L 76.6 124.9 C 76.6 124.9 76.61 127.32 76.6 127.3 C 77.4 125.8 78.8 124.7 81.1 124.7 C 83.6 124.7 85.3 126.1 85.3 129 Z M 94.2 137.8 L 92.3 137.8 L 87.5 124.9 L 89.4 124.9 L 93.2 136 L 97.1 124.9 L 99 124.9 L 94.2 137.8 Z M 101.9 131.8 C 101.9 135 103.9 136.5 106.2 136.5 C 107.9 136.5 109.6 135.6 109.9 133.8 C 109.9 133.8 111.6 133.8 111.6 133.8 C 111 136.8 108.5 138.1 106.1 138.1 C 103 138.1 100.2 136 100.2 131.4 C 100.2 126.8 103.1 124.7 106.2 124.7 C 109.2 124.7 111.7 126.6 111.7 130.9 C 111.69 130.92 111.7 131.8 111.7 131.8 C 111.7 131.8 101.88 131.78 101.9 131.8 Z M 101.9 130.3 C 101.9 130.3 109.9 130.3 109.9 130.3 C 109.9 127.7 108.2 126.2 106.1 126.2 C 104.1 126.2 102.2 127.5 101.9 130.3 Z M 124.3 134.2 C 124.3 136.8 121.9 138.1 119.3 138.1 C 116.5 138.1 114 136.7 113.7 133.8 C 113.7 133.8 115.6 133.8 115.6 133.8 C 115.9 135.7 117.6 136.5 119.3 136.5 C 121 136.5 122.4 135.8 122.4 134.4 C 122.4 132.9 121 132.6 119.4 132.3 C 117 131.9 114 131.5 114 128.5 C 114 125.9 116.3 124.7 118.9 124.7 C 121.6 124.7 123.8 126 123.9 128.5 C 123.9 128.5 122.1 128.5 122.1 128.5 C 122 127 120.5 126.2 118.8 126.2 C 117.1 126.2 115.9 127 115.9 128.4 C 115.9 130 117.4 130.3 119.4 130.6 C 121.7 131 124.3 131.4 124.3 134.2 Z M 133 137.8 C 133 137.8 131.13 137.81 131.1 137.8 C 129.4 137.8 127.9 137.3 127.9 134.4 C 127.89 134.42 127.9 126.5 127.9 126.5 L 125.4 126.5 L 125.4 124.9 L 127.9 124.9 L 127.9 121.3 L 129.6 120.8 L 129.6 124.9 L 132.8 124.9 L 132.8 126.5 L 129.6 126.5 C 129.6 126.5 129.65 134.4 129.6 134.4 C 129.6 135.6 130 136.2 131.4 136.2 C 131.42 136.22 133 136.2 133 136.2 L 133 137.8 Z M 134.7 131.4 C 134.7 127.2 137.3 124.7 140.8 124.7 C 144.4 124.7 146.9 127.2 146.9 131.4 C 146.9 135.6 144.4 138.1 140.8 138.1 C 137.3 138.1 134.7 135.6 134.7 131.4 Z M 145.1 131.3 C 145.1 128.1 143.2 126.3 140.8 126.3 C 138.3 126.3 136.5 128.3 136.5 131.4 C 136.5 134.6 138.5 136.4 140.9 136.4 C 143.4 136.4 145.1 134.5 145.1 131.3 Z M 156.4 126.4 C 156.4 126.4 155.95 126.43 156 126.4 C 153.2 126.4 151.7 128 151.7 131 C 151.68 130.97 151.7 137.8 151.7 137.8 L 149.9 137.8 L 149.9 124.9 L 151.7 124.9 C 151.7 124.9 151.65 127.3 151.7 127.3 C 152.3 125.6 153.8 124.8 155.8 124.8 C 155.81 124.78 156.4 124.8 156.4 124.8 L 156.4 126.4 Z M 168.2 134.2 C 168.2 136.8 165.8 138.1 163.2 138.1 C 160.5 138.1 157.9 136.7 157.7 133.8 C 157.7 133.8 159.6 133.8 159.6 133.8 C 159.8 135.7 161.5 136.5 163.3 136.5 C 164.9 136.5 166.4 135.8 166.4 134.4 C 166.4 132.9 164.9 132.6 163.4 132.3 C 160.9 131.9 158 131.5 158 128.5 C 158 125.9 160.2 124.7 162.8 124.7 C 165.6 124.7 167.7 126 167.9 128.5 C 167.9 128.5 166.1 128.5 166.1 128.5 C 165.9 127 164.4 126.2 162.8 126.2 C 161 126.2 159.8 127 159.8 128.4 C 159.8 130 161.4 130.3 163.3 130.6 C 165.6 131 168.2 131.4 168.2 134.2 Z M 179.2 137.8 L 177.3 137.8 L 177.3 119.8 L 188.6 119.8 L 188.6 121.4 L 179.2 121.4 L 179.2 127.9 L 188.1 127.9 L 188.1 129.5 L 179.2 129.5 L 179.2 137.8 Z M 197.3 126.4 C 197.3 126.4 196.92 126.43 196.9 126.4 C 194.2 126.4 192.6 128 192.6 131 C 192.65 130.97 192.6 137.8 192.6 137.8 L 190.9 137.8 L 190.9 124.9 L 192.6 124.9 C 192.6 124.9 192.62 127.3 192.6 127.3 C 193.2 125.6 194.8 124.8 196.8 124.8 C 196.77 124.78 197.3 124.8 197.3 124.8 L 197.3 126.4 Z M 207.5 135.5 C 206.5 137.4 204.6 138.1 202.9 138.1 C 200.7 138.1 198.8 136.8 198.8 134.2 C 198.8 131.9 200.5 130.8 202.7 130.5 C 202.7 130.5 205.7 130.1 205.7 130.1 C 206.7 129.9 207.5 129.6 207.5 128.5 C 207.5 127 206.2 126.1 204.4 126.1 C 202.5 126.1 201.3 127.1 201 128.5 C 201 128.5 199.3 128.5 199.3 128.5 C 199.6 126 201.7 124.7 204.5 124.7 C 207.5 124.7 209.2 126 209.2 128.9 C 209.23 128.9 209.2 137.8 209.2 137.8 L 207.5 137.8 C 207.5 137.8 207.53 135.46 207.5 135.5 Z M 205.4 131.5 C 205.4 131.5 203.4 131.8 203.4 131.8 C 201.8 132 200.6 132.6 200.6 134.2 C 200.6 135.8 201.8 136.5 203.2 136.5 C 205.2 136.5 207.5 135 207.5 132.2 C 207.5 132.2 207.5 131 207.5 131 C 207 131.3 206.3 131.4 205.4 131.5 Z M 223.3 129 C 223.29 128.98 223.3 137.8 223.3 137.8 L 221.5 137.8 C 221.5 137.8 221.54 129.19 221.5 129.2 C 221.5 127.4 220.5 126.3 218.7 126.3 C 216.5 126.3 214.6 127.9 214.6 131 C 214.58 131.04 214.6 137.8 214.6 137.8 L 212.8 137.8 L 212.8 124.9 L 214.6 124.9 C 214.6 124.9 214.58 127.32 214.6 127.3 C 215.3 125.8 216.8 124.7 219 124.7 C 221.6 124.7 223.3 126.1 223.3 129 Z M 232.1 138.1 C 228.6 138.1 226.2 135.4 226.2 131.4 C 226.2 127.4 228.6 124.7 232.3 124.7 C 235.1 124.7 237.4 126.2 237.6 129.2 C 237.6 129.2 235.9 129.2 235.9 129.2 C 235.7 127.3 234.1 126.2 232.3 126.2 C 229.7 126.2 227.9 128.2 227.9 131.4 C 227.9 134.5 229.7 136.5 232.2 136.5 C 234.2 136.5 235.7 135.3 235.9 133.3 C 235.9 133.3 237.6 133.3 237.6 133.3 C 237.4 136.4 235 138.1 232.1 138.1 Z M 241.5 131.8 C 241.6 135 243.5 136.5 245.8 136.5 C 247.5 136.5 249.2 135.6 249.6 133.8 C 249.6 133.8 251.2 133.8 251.2 133.8 C 250.7 136.8 248.2 138.1 245.7 138.1 C 242.6 138.1 239.8 136 239.8 131.4 C 239.8 126.8 242.7 124.7 245.8 124.7 C 248.8 124.7 251.3 126.6 251.3 130.9 C 251.33 130.92 251.3 131.8 251.3 131.8 C 251.3 131.8 241.51 131.78 241.5 131.8 Z M 241.6 130.3 C 241.6 130.3 249.5 130.3 249.5 130.3 C 249.5 127.7 247.9 126.2 245.7 126.2 C 243.7 126.2 241.8 127.5 241.6 130.3 Z " stroke="none" fill="#000"/>  </g>  <g id="Polygon11133">    <path d="M 19.2 109 L 17.4 109 L 17.4 93.4 L 11.4 109 L 9.9 109 L 3.9 93.4 L 3.9 109 L 2.2 109 L 2.2 91 L 4.9 91 L 10.7 106.2 L 16.5 91 L 19.2 91 L 19.2 109 Z M 31.8 109 C 31.8 109 31.75 106.56 31.8 106.6 C 30.9 108.3 29.3 109.2 27.5 109.2 C 25 109.2 23.2 107.6 23.2 104.6 C 23.16 104.64 23.2 96.1 23.2 96.1 L 24.9 96.1 C 24.9 96.1 24.91 104.42 24.9 104.4 C 24.9 106.5 26.1 107.6 27.8 107.6 C 29.8 107.6 31.7 106.1 31.7 102.8 C 31.68 102.79 31.7 96.1 31.7 96.1 L 33.4 96.1 L 33.4 109 L 31.8 109 Z M 39 109 L 37.3 109 L 37.3 90.7 L 39 90.7 L 39 109 Z M 48.7 109 C 48.7 109 46.85 109.01 46.8 109 C 45.1 109 43.6 108.5 43.6 105.6 C 43.61 105.62 43.6 97.7 43.6 97.7 L 41.1 97.7 L 41.1 96.1 L 43.6 96.1 L 43.6 92.5 L 45.4 92 L 45.4 96.1 L 48.5 96.1 L 48.5 97.7 L 45.4 97.7 C 45.4 97.7 45.36 105.6 45.4 105.6 C 45.4 106.8 45.7 107.4 47.1 107.4 C 47.14 107.42 48.7 107.4 48.7 107.4 L 48.7 109 Z M 53.1 90.7 L 51.1 90.7 L 51.1 92.9 L 53.1 92.9 L 53.1 90.7 Z M 53 109 L 51.3 109 L 51.3 96.1 L 53 96.1 L 53 109 Z M 56.1 102.1 L 56.1 100.5 L 63.5 100.5 L 63.5 102.1 L 56.1 102.1 Z M 83.9 109 L 82.1 109 L 82.1 93.4 L 76.1 109 L 74.6 109 L 68.6 93.4 L 68.6 109 L 66.9 109 L 66.9 91 L 69.6 91 L 75.4 106.2 L 81.2 91 L 83.9 91 L 83.9 109 Z M 95.9 106.7 C 94.9 108.6 93 109.3 91.3 109.3 C 89.1 109.3 87.2 108 87.2 105.4 C 87.2 103.1 88.9 102 91.1 101.7 C 91.1 101.7 94.1 101.3 94.1 101.3 C 95.1 101.1 95.9 100.8 95.9 99.7 C 95.9 98.2 94.6 97.3 92.8 97.3 C 90.9 97.3 89.7 98.3 89.4 99.7 C 89.4 99.7 87.7 99.7 87.7 99.7 C 88 97.2 90.1 95.9 92.9 95.9 C 95.9 95.9 97.6 97.2 97.6 100.1 C 97.63 100.1 97.6 109 97.6 109 L 95.9 109 C 95.9 109 95.93 106.66 95.9 106.7 Z M 93.8 102.7 C 93.8 102.7 91.8 103 91.8 103 C 90.2 103.2 89 103.8 89 105.4 C 89 107 90.2 107.7 91.6 107.7 C 93.6 107.7 95.9 106.2 95.9 103.4 C 95.9 103.4 95.9 102.2 95.9 102.2 C 95.4 102.5 94.7 102.6 93.8 102.7 Z M 111.7 100.2 C 111.69 100.18 111.7 109 111.7 109 L 109.9 109 C 109.9 109 109.94 100.39 109.9 100.4 C 109.9 98.6 108.9 97.5 107.1 97.5 C 104.9 97.5 103 99.1 103 102.2 C 102.98 102.24 103 109 103 109 L 101.2 109 L 101.2 96.1 L 103 96.1 C 103 96.1 102.98 98.52 103 98.5 C 103.8 97 105.2 95.9 107.4 95.9 C 110 95.9 111.7 97.3 111.7 100.2 Z M 123.3 106.7 C 122.3 108.6 120.4 109.3 118.8 109.3 C 116.5 109.3 114.6 108 114.6 105.4 C 114.6 103.1 116.3 102 118.5 101.7 C 118.5 101.7 121.5 101.3 121.5 101.3 C 122.5 101.1 123.3 100.8 123.3 99.7 C 123.3 98.2 122 97.3 120.2 97.3 C 118.3 97.3 117.1 98.3 116.8 99.7 C 116.8 99.7 115.1 99.7 115.1 99.7 C 115.4 97.2 117.5 95.9 120.3 95.9 C 123.3 95.9 125 97.2 125 100.1 C 125.04 100.1 125 109 125 109 L 123.3 109 C 123.3 109 123.33 106.66 123.3 106.7 Z M 121.2 102.7 C 121.2 102.7 119.2 103 119.2 103 C 117.6 103.2 116.4 103.8 116.4 105.4 C 116.4 107 117.6 107.7 119 107.7 C 121.1 107.7 123.3 106.2 123.3 103.4 C 123.3 103.4 123.3 102.2 123.3 102.2 C 122.8 102.5 122.1 102.6 121.2 102.7 Z M 139.7 108.4 C 139.7 112.3 137.2 114.2 133.9 114.2 C 131 114.2 128.5 112.8 128.1 109.8 C 128.1 109.8 129.9 109.8 129.9 109.8 C 130.1 111.4 131.3 112.8 133.9 112.8 C 136.3 112.8 138 111.6 138 108.5 C 138 108.5 138 106 138 106 C 137.1 107.9 135.2 108.5 133.5 108.5 C 130.3 108.5 127.8 106.4 127.8 102.2 C 127.8 98 130.5 95.9 133.6 95.9 C 135.6 95.9 137.2 96.8 138 98.2 C 138 98.21 138 96.1 138 96.1 L 139.7 96.1 C 139.7 96.1 139.73 108.43 139.7 108.4 Z M 137.9 102.2 C 137.9 98.9 136 97.4 133.8 97.4 C 131.6 97.4 129.5 99 129.5 102.2 C 129.5 105.4 131.5 106.9 133.8 106.9 C 135.8 106.9 137.9 105.6 137.9 102.2 Z M 144.3 103 C 144.4 106.2 146.3 107.7 148.6 107.7 C 150.3 107.7 152 106.8 152.4 105 C 152.4 105 154.1 105 154.1 105 C 153.5 108 151 109.3 148.5 109.3 C 145.5 109.3 142.6 107.2 142.6 102.6 C 142.6 98 145.5 95.9 148.6 95.9 C 151.7 95.9 154.1 97.8 154.1 102.1 C 154.15 102.12 154.1 103 154.1 103 C 154.1 103 144.33 102.98 144.3 103 Z M 144.4 101.5 C 144.4 101.5 152.4 101.5 152.4 101.5 C 152.4 98.9 150.7 97.4 148.5 97.4 C 146.5 97.4 144.6 98.7 144.4 101.5 Z M 157.1 96.1 L 158.9 96.1 C 158.9 96.1 158.88 98.26 158.9 98.3 C 159.6 96.6 161 95.9 162.6 95.9 C 164.5 95.9 166 96.9 166.4 98.6 C 167 97.1 168.4 95.9 170.7 95.9 C 173 95.9 174.8 97.2 174.8 99.8 C 174.84 99.77 174.8 109 174.8 109 L 173.1 109 C 173.1 109 173.09 100.39 173.1 100.4 C 173.1 98.4 171.9 97.4 170.3 97.4 C 168.4 97.4 166.8 98.9 166.8 101.6 C 166.85 101.64 166.8 109 166.8 109 L 165.1 109 C 165.1 109 165.12 100.39 165.1 100.4 C 165.1 98.4 163.9 97.4 162.4 97.4 C 160.5 97.4 158.9 98.9 158.9 101.6 C 158.9 101.64 158.9 109 158.9 109 L 157.1 109 L 157.1 96.1 Z M 179.4 103 C 179.5 106.2 181.5 107.7 183.7 107.7 C 185.4 107.7 187.1 106.8 187.5 105 C 187.5 105 189.2 105 189.2 105 C 188.6 108 186.1 109.3 183.6 109.3 C 180.6 109.3 177.7 107.2 177.7 102.6 C 177.7 98 180.6 95.9 183.7 95.9 C 186.8 95.9 189.3 97.8 189.3 102.1 C 189.26 102.12 189.3 103 189.3 103 C 189.3 103 179.45 102.98 179.4 103 Z M 179.5 101.5 C 179.5 101.5 187.5 101.5 187.5 101.5 C 187.5 98.9 185.8 97.4 183.6 97.4 C 181.6 97.4 179.7 98.7 179.5 101.5 Z M 202.7 100.2 C 202.73 100.18 202.7 109 202.7 109 L 201 109 C 201 109 200.97 100.39 201 100.4 C 201 98.6 200 97.5 198.1 97.5 C 195.9 97.5 194 99.1 194 102.2 C 194.01 102.24 194 109 194 109 L 192.3 109 L 192.3 96.1 L 194 96.1 C 194 96.1 194.01 98.52 194 98.5 C 194.8 97 196.2 95.9 198.5 95.9 C 201 95.9 202.7 97.3 202.7 100.2 Z M 212.3 109 C 212.3 109 210.43 109.01 210.4 109 C 208.7 109 207.2 108.5 207.2 105.6 C 207.19 105.62 207.2 97.7 207.2 97.7 L 204.6 97.7 L 204.6 96.1 L 207.2 96.1 L 207.2 92.5 L 208.9 92 L 208.9 96.1 L 212.1 96.1 L 212.1 97.7 L 208.9 97.7 C 208.9 97.7 208.94 105.6 208.9 105.6 C 208.9 106.8 209.3 107.4 210.7 107.4 C 210.72 107.42 212.3 107.4 212.3 107.4 L 212.3 109 Z M 232.1 103.9 L 223.5 103.9 L 221.5 109 L 219.5 109 L 226.7 91 L 228.7 91 L 236.2 109 L 234.1 109 L 232.1 103.9 Z M 227.7 93.1 L 224.1 102.3 L 231.4 102.3 L 227.7 93.1 Z M 249.4 100.2 C 249.38 100.18 249.4 109 249.4 109 L 247.6 109 C 247.6 109 247.63 100.39 247.6 100.4 C 247.6 98.6 246.6 97.5 244.8 97.5 C 242.6 97.5 240.7 99.1 240.7 102.2 C 240.67 102.24 240.7 109 240.7 109 L 238.9 109 L 238.9 96.1 L 240.7 96.1 C 240.7 96.1 240.67 98.52 240.7 98.5 C 241.4 97 242.9 95.9 245.1 95.9 C 247.7 95.9 249.4 97.3 249.4 100.2 Z M 261 106.7 C 260 108.6 258.1 109.3 256.4 109.3 C 254.2 109.3 252.3 108 252.3 105.4 C 252.3 103.1 254 102 256.2 101.7 C 256.2 101.7 259.2 101.3 259.2 101.3 C 260.2 101.1 261 100.8 261 99.7 C 261 98.2 259.7 97.3 257.9 97.3 C 256 97.3 254.8 98.3 254.5 99.7 C 254.5 99.7 252.8 99.7 252.8 99.7 C 253.1 97.2 255.2 95.9 258 95.9 C 260.9 95.9 262.7 97.2 262.7 100.1 C 262.72 100.1 262.7 109 262.7 109 L 261 109 C 261 109 261.02 106.66 261 106.7 Z M 258.9 102.7 C 258.9 102.7 256.9 103 256.9 103 C 255.3 103.2 254.1 103.8 254.1 105.4 C 254.1 107 255.3 107.7 256.7 107.7 C 258.7 107.7 261 106.2 261 103.4 C 261 103.4 261 102.2 261 102.2 C 260.5 102.5 259.7 102.6 258.9 102.7 Z M 268.1 109 L 266.3 109 L 266.3 90.7 L 268.1 90.7 L 268.1 109 Z M 275.7 111.5 C 275.2 112.8 274.1 113.2 272.7 113.2 C 272.73 113.23 271.4 113.2 271.4 113.2 L 271.4 111.7 C 271.4 111.7 272.49 111.67 272.5 111.7 C 273.6 111.7 274.1 111.3 274.6 110.2 C 274.56 110.16 275.2 108.5 275.2 108.5 L 270.4 96.1 L 272.2 96.1 L 276 106.3 L 279.8 96.1 L 281.5 96.1 C 281.5 96.1 275.71 111.46 275.7 111.5 Z M 293.2 105.4 C 293.2 108 290.8 109.3 288.2 109.3 C 285.4 109.3 282.9 107.9 282.6 105 C 282.6 105 284.5 105 284.5 105 C 284.8 106.9 286.5 107.7 288.2 107.7 C 289.9 107.7 291.3 107 291.3 105.6 C 291.3 104.1 289.8 103.8 288.3 103.5 C 285.9 103.1 282.9 102.7 282.9 99.7 C 282.9 97.1 285.1 95.9 287.8 95.9 C 290.5 95.9 292.7 97.2 292.8 99.7 C 292.8 99.7 291 99.7 291 99.7 C 290.9 98.2 289.4 97.4 287.7 97.4 C 286 97.4 284.8 98.2 284.8 99.6 C 284.8 101.2 286.3 101.5 288.3 101.8 C 290.6 102.2 293.2 102.6 293.2 105.4 Z M 301.9 109 C 301.9 109 300.02 109.01 300 109 C 298.3 109 296.8 108.5 296.8 105.6 C 296.78 105.62 296.8 97.7 296.8 97.7 L 294.2 97.7 L 294.2 96.1 L 296.8 96.1 L 296.8 92.5 L 298.5 92 L 298.5 96.1 L 301.7 96.1 L 301.7 97.7 L 298.5 97.7 C 298.5 97.7 298.53 105.6 298.5 105.6 C 298.5 106.8 298.9 107.4 300.3 107.4 C 300.31 107.42 301.9 107.4 301.9 107.4 L 301.9 109 Z M 305.7 108.9 C 305.68 108.86 304.5 108.9 304.5 108.9 L 304.5 106.5 L 307.1 106.5 C 307.1 106.5 307.08 108.94 307.1 108.9 C 307.1 111.8 305.4 112.8 303.6 113 C 303.6 113 303.4 111.9 303.4 111.9 C 305.3 111.5 305.7 110.4 305.7 108.9 Z " stroke="none" fill="#000"/>  </g>  <g id="Polygon11132">    <path d="M 8.2 80.7 C 4.4 80.7 1.3 78.4 1.2 74.5 C 1.2 74.5 3.2 74.5 3.2 74.5 C 3.3 77.6 5.7 79 8.2 79 C 10.6 79 12.4 77.8 12.4 75.7 C 12.4 73.3 10 72.7 7.5 72.1 C 4.7 71.4 1.8 70.4 1.8 66.9 C 1.8 63.6 4.4 61.8 7.8 61.8 C 11 61.8 13.8 63.3 14 66.8 C 14 66.8 12.1 66.8 12.1 66.8 C 12 64.4 10 63.4 7.8 63.4 C 5.5 63.4 3.6 64.5 3.6 66.8 C 3.6 69.3 5.8 69.8 8.3 70.5 C 11.2 71.2 14.3 72 14.3 75.5 C 14.3 78.9 11.5 80.7 8.2 80.7 Z M 18.3 74.2 C 18.4 77.4 20.4 78.9 22.6 78.9 C 24.3 78.9 26 78 26.4 76.2 C 26.4 76.2 28.1 76.2 28.1 76.2 C 27.5 79.2 25 80.5 22.5 80.5 C 19.5 80.5 16.6 78.4 16.6 73.8 C 16.6 69.2 19.5 67.1 22.6 67.1 C 25.7 67.1 28.2 69 28.2 73.3 C 28.15 73.32 28.2 74.2 28.2 74.2 C 28.2 74.2 18.34 74.18 18.3 74.2 Z M 18.4 72.7 C 18.4 72.7 26.4 72.7 26.4 72.7 C 26.4 70.1 24.7 68.6 22.5 68.6 C 20.5 68.6 18.6 69.9 18.4 72.7 Z M 41.6 71.4 C 41.62 71.38 41.6 80.2 41.6 80.2 L 39.9 80.2 C 39.9 80.2 39.86 71.59 39.9 71.6 C 39.9 69.8 38.9 68.7 37 68.7 C 34.8 68.7 32.9 70.3 32.9 73.4 C 32.9 73.44 32.9 80.2 32.9 80.2 L 31.2 80.2 L 31.2 67.3 L 32.9 67.3 C 32.9 67.3 32.9 69.72 32.9 69.7 C 33.7 68.2 35.1 67.1 37.4 67.1 C 39.9 67.1 41.6 68.5 41.6 71.4 Z M 47.2 61.9 L 45.2 61.9 L 45.2 64.1 L 47.2 64.1 L 47.2 61.9 Z M 47.1 80.2 L 45.3 80.2 L 45.3 67.3 L 47.1 67.3 L 47.1 80.2 Z M 50.1 73.8 C 50.1 69.6 52.6 67.1 56.2 67.1 C 59.7 67.1 62.3 69.6 62.3 73.8 C 62.3 78 59.8 80.5 56.2 80.5 C 52.7 80.5 50.1 78 50.1 73.8 Z M 60.5 73.7 C 60.5 70.5 58.6 68.7 56.2 68.7 C 53.6 68.7 51.9 70.7 51.9 73.8 C 51.9 77 53.8 78.8 56.2 78.8 C 58.7 78.8 60.5 76.9 60.5 73.7 Z M 71.7 68.8 C 71.7 68.8 71.33 68.83 71.3 68.8 C 68.6 68.8 67.1 70.4 67.1 73.4 C 67.06 73.37 67.1 80.2 67.1 80.2 L 65.3 80.2 L 65.3 67.3 L 67 67.3 C 67 67.3 67.03 69.7 67 69.7 C 67.6 68 69.2 67.2 71.2 67.2 C 71.18 67.18 71.7 67.2 71.7 67.2 L 71.7 68.8 Z M 97.1 80.2 L 95.3 80.2 L 95.3 64.6 L 89.2 80.2 L 87.8 80.2 L 81.8 64.6 L 81.8 80.2 L 80 80.2 L 80 62.2 L 82.8 62.2 L 88.5 77.4 L 94.3 62.2 L 97.1 62.2 L 97.1 80.2 Z M 109.6 80.2 C 109.6 80.2 109.61 77.76 109.6 77.8 C 108.7 79.5 107.1 80.4 105.3 80.4 C 102.9 80.4 101 78.8 101 75.8 C 101.01 75.84 101 67.3 101 67.3 L 102.8 67.3 C 102.8 67.3 102.77 75.62 102.8 75.6 C 102.8 77.7 103.9 78.8 105.6 78.8 C 107.7 78.8 109.5 77.3 109.5 74 C 109.53 73.99 109.5 67.3 109.5 67.3 L 111.3 67.3 L 111.3 80.2 L 109.6 80.2 Z M 116.9 80.2 L 115.1 80.2 L 115.1 61.9 L 116.9 61.9 L 116.9 80.2 Z M 126.6 80.2 C 126.6 80.2 124.7 80.21 124.7 80.2 C 123 80.2 121.5 79.7 121.5 76.8 C 121.46 76.82 121.5 68.9 121.5 68.9 L 118.9 68.9 L 118.9 67.3 L 121.5 67.3 L 121.5 63.7 L 123.2 63.2 L 123.2 67.3 L 126.3 67.3 L 126.3 68.9 L 123.2 68.9 C 123.2 68.9 123.21 76.8 123.2 76.8 C 123.2 78 123.6 78.6 125 78.6 C 124.99 78.62 126.6 78.6 126.6 78.6 L 126.6 80.2 Z M 131 61.9 L 129 61.9 L 129 64.1 L 131 64.1 L 131 61.9 Z M 130.9 80.2 L 129.1 80.2 L 129.1 67.3 L 130.9 67.3 L 130.9 80.2 Z M 134 73.3 L 134 71.7 L 141.4 71.7 L 141.4 73.3 L 134 73.3 Z M 155.2 75.1 L 146.7 75.1 L 144.7 80.2 L 142.7 80.2 L 149.9 62.2 L 151.9 62.2 L 159.3 80.2 L 157.3 80.2 L 155.2 75.1 Z M 150.9 64.3 L 147.3 73.5 L 154.6 73.5 L 150.9 64.3 Z M 171.7 76.6 C 171.7 79.2 169.3 80.5 166.7 80.5 C 163.9 80.5 161.4 79.1 161.1 76.2 C 161.1 76.2 163 76.2 163 76.2 C 163.3 78.1 165 78.9 166.7 78.9 C 168.4 78.9 169.8 78.2 169.8 76.8 C 169.8 75.3 168.4 75 166.8 74.7 C 164.4 74.3 161.4 73.9 161.4 70.9 C 161.4 68.3 163.7 67.1 166.3 67.1 C 169 67.1 171.2 68.4 171.3 70.9 C 171.3 70.9 169.5 70.9 169.5 70.9 C 169.4 69.4 167.9 68.6 166.2 68.6 C 164.5 68.6 163.3 69.4 163.3 70.8 C 163.3 72.4 164.8 72.7 166.8 73 C 169.1 73.4 171.7 73.8 171.7 76.6 Z M 184.1 76.6 C 184.1 79.2 181.7 80.5 179.2 80.5 C 176.4 80.5 173.9 79.1 173.6 76.2 C 173.6 76.2 175.5 76.2 175.5 76.2 C 175.7 78.1 177.4 78.9 179.2 78.9 C 180.8 78.9 182.3 78.2 182.3 76.8 C 182.3 75.3 180.8 75 179.3 74.7 C 176.8 74.3 173.9 73.9 173.9 70.9 C 173.9 68.3 176.1 67.1 178.7 67.1 C 181.5 67.1 183.6 68.4 183.8 70.9 C 183.8 70.9 182 70.9 182 70.9 C 181.8 69.4 180.4 68.6 178.7 68.6 C 176.9 68.6 175.7 69.4 175.7 70.8 C 175.7 72.4 177.3 72.7 179.2 73 C 181.6 73.4 184.1 73.8 184.1 76.6 Z M 187.9 74.2 C 187.9 77.4 189.9 78.9 192.2 78.9 C 193.9 78.9 195.6 78 196 76.2 C 196 76.2 197.6 76.2 197.6 76.2 C 197 79.2 194.5 80.5 192.1 80.5 C 189 80.5 186.2 78.4 186.2 73.8 C 186.2 69.2 189.1 67.1 192.2 67.1 C 195.2 67.1 197.7 69 197.7 73.3 C 197.71 73.32 197.7 74.2 197.7 74.2 C 197.7 74.2 187.89 74.18 187.9 74.2 Z M 187.9 72.7 C 187.9 72.7 195.9 72.7 195.9 72.7 C 195.9 70.1 194.3 68.6 192.1 68.6 C 190.1 68.6 188.2 69.9 187.9 72.7 Z M 206.6 80.2 C 206.6 80.2 204.69 80.21 204.7 80.2 C 203 80.2 201.5 79.7 201.5 76.8 C 201.45 76.82 201.5 68.9 201.5 68.9 L 198.9 68.9 L 198.9 67.3 L 201.5 67.3 L 201.5 63.7 L 203.2 63.2 L 203.2 67.3 L 206.3 67.3 L 206.3 68.9 L 203.2 68.9 C 203.2 68.9 203.2 76.8 203.2 76.8 C 203.2 78 203.5 78.6 205 78.6 C 204.98 78.62 206.6 78.6 206.6 78.6 L 206.6 80.2 Z " stroke="none" fill="#000"/>  </g>  <g id="Polygon11131">    <path d="M 14.3 44.8 C 14.3 44.8 17.7 44.8 17.7 44.8 C 17.4 49.5 13.8 51.9 9.7 51.9 C 4 51.9 1 47.3 1 42.3 C 1 37.6 3.7 33 9.8 33 C 14 33 17.2 35.3 17.6 39.4 C 17.6 39.4 14.2 39.4 14.2 39.4 C 14 37.4 12.1 36.1 9.7 36.1 C 6 36.1 4.3 39.1 4.3 42.3 C 4.3 45.6 6.2 48.6 9.7 48.6 C 11.9 48.6 14.1 47.6 14.3 44.8 Z M 31.2 47.4 L 23.6 47.4 L 22.1 51.4 L 18.6 51.4 L 25.5 33.4 L 29.2 33.4 L 36.4 51.4 L 32.7 51.4 L 31.2 47.4 Z M 30 44.3 L 27.3 37.2 L 24.7 44.3 L 30 44.3 Z M 42.1 51.4 L 38.8 51.4 L 38.8 33.4 L 42.1 33.4 L 42.1 51.4 Z M 57.1 47.4 L 49.5 47.4 L 48 51.4 L 44.5 51.4 L 51.4 33.4 L 55.1 33.4 L 62.3 51.4 L 58.6 51.4 L 57.1 47.4 Z M 55.9 44.3 L 53.3 37.2 L 50.7 44.3 L 55.9 44.3 Z " stroke="none" fill="#000"/>  </g>  <g id="Polygon11130">    <path d="M 20.3 22.6 L 17.1 22.6 L 17.1 10.2 L 12.5 22.6 L 9.5 22.6 L 4.9 10.2 L 4.9 22.6 L 1.8 22.6 L 1.8 4.6 L 6 4.6 L 11 17.9 L 16 4.6 L 20.3 4.6 L 20.3 22.6 Z M 34.2 13.7 C 34.22 13.7 34.2 22.6 34.2 22.6 L 31.1 22.6 C 31.1 22.6 31.1 20.69 31.1 20.7 C 30.1 22.4 28.5 22.9 27.1 22.9 C 25 22.9 22.8 21.6 22.8 18.8 C 22.8 16.7 24 15.3 27 14.8 C 27 14.8 29.9 14.4 29.9 14.4 C 30.7 14.3 31.2 14 31.2 13.2 C 31.2 12.1 30.3 11.6 29 11.6 C 27.3 11.6 26.5 12.5 26.4 13.6 C 26.4 13.6 23.3 13.6 23.3 13.6 C 23.7 10.5 26.1 9.1 29.1 9.1 C 32.3 9.1 34.2 10.6 34.2 13.7 Z M 31.1 17 C 31.1 17 31.1 16.3 31.1 16.3 C 30.8 16.5 30.2 16.6 29.6 16.7 C 29.6 16.7 28.1 16.9 28.1 16.9 C 26.5 17.1 26 17.8 26 18.6 C 26 19.7 26.7 20.2 27.8 20.2 C 29.5 20.2 31.1 19 31.1 17 Z M 42.9 18.4 L 39.9 22.6 L 35.9 22.6 L 40.8 16.1 L 35.8 9.4 L 39.9 9.4 L 42.9 13.5 L 45.8 9.4 L 49.8 9.4 L 45 15.8 L 50.1 22.6 L 45.9 22.6 L 42.9 18.4 Z M 51.7 7.6 L 55.1 7.6 L 55.1 4 L 51.7 4 L 51.7 7.6 Z M 51.8 9.4 L 55 9.4 L 55 22.6 L 51.8 22.6 L 51.8 9.4 Z M 76.8 13.7 C 76.82 13.68 76.8 22.6 76.8 22.6 L 73.6 22.6 C 73.6 22.6 73.63 14.3 73.6 14.3 C 73.6 12.7 72.9 12 71.6 12 C 70.1 12 69.1 12.9 69.1 15.2 C 69.07 15.17 69.1 22.6 69.1 22.6 L 65.9 22.6 C 65.9 22.6 65.88 14.3 65.9 14.3 C 65.9 12.7 65.1 12 63.8 12 C 62.3 12 61.3 13 61.3 15.1 C 61.32 15.14 61.3 22.6 61.3 22.6 L 58.1 22.6 L 58.1 9.4 L 61.3 9.4 C 61.3 9.4 61.27 11.3 61.3 11.3 C 61.7 10.2 62.7 9.1 64.7 9.1 C 66.4 9.1 67.7 9.9 68.4 11.3 C 68.9 10.4 69.8 9.1 72.2 9.1 C 75 9.1 76.8 10.8 76.8 13.7 Z M 82.1 16.9 C 82.2 19.1 83.7 20.1 85.5 20.1 C 86.7 20.1 87.9 19.6 88.3 18.4 C 88.3 18.4 91.2 18.4 91.2 18.4 C 90.7 21.3 88.1 22.9 85.3 22.9 C 82.2 22.9 79 20.7 79 16 C 79 11.5 82 9.1 85.4 9.1 C 88.6 9.1 91.3 11.3 91.3 15.6 C 91.29 15.65 91.3 16.9 91.3 16.9 C 91.3 16.9 82.08 16.94 82.1 16.9 Z M 82.2 14.6 C 82.2 14.6 88.2 14.6 88.2 14.6 C 88.2 12.9 87 11.9 85.3 11.9 C 83.9 11.9 82.4 12.7 82.2 14.6 Z M 110.5 22.6 L 105.9 15.4 L 103.1 15.4 L 103.1 22.6 L 99.8 22.6 L 99.8 4.6 C 99.8 4.6 106.85 4.61 106.8 4.6 C 110.9 4.6 112.8 7.2 112.8 9.8 C 112.8 11.9 111.6 14 109.4 14.8 C 109.37 14.78 114.5 22.6 114.5 22.6 L 110.5 22.6 Z M 109.5 9.9 C 109.5 8.9 108.8 7.7 107 7.7 C 106.99 7.73 103.1 7.7 103.1 7.7 L 103.1 12.4 C 103.1 12.4 106.73 12.36 106.7 12.4 C 108.6 12.4 109.5 11.2 109.5 9.9 Z M 115.9 7.6 L 119.3 7.6 L 119.3 4 L 115.9 4 L 115.9 7.6 Z M 116 9.4 L 119.2 9.4 L 119.2 22.6 L 116 22.6 L 116 9.4 Z M 127.9 22.9 C 123.6 22.9 121.5 19.6 121.5 16 C 121.5 12.4 123.6 9.1 127.9 9.1 C 131.2 9.1 133.6 11 133.8 14.1 C 133.8 14.1 130.6 14.1 130.6 14.1 C 130.5 12.9 129.6 12 128 12 C 125.7 12 124.7 13.9 124.7 16 C 124.7 18.1 125.7 19.9 128 19.9 C 129.5 19.9 130.4 19.1 130.7 17.9 C 130.7 17.9 133.8 17.9 133.8 17.9 C 133.4 21.1 131.1 22.9 127.9 22.9 Z M 148.2 16 C 148.2 20.3 145.5 22.9 141.7 22.9 C 138 22.9 135.3 20.3 135.3 16 C 135.3 11.7 138 9.1 141.7 9.1 C 145.5 9.1 148.2 11.7 148.2 16 Z M 138.6 16 C 138.6 18.7 140 19.9 141.8 19.9 C 143.7 19.9 145 18.5 145 16 C 145 13.3 143.5 12.1 141.7 12.1 C 139.8 12.1 138.6 13.5 138.6 16 Z M 169.2 13.7 C 169.2 13.68 169.2 22.6 169.2 22.6 L 166 22.6 C 166 22.6 166.01 14.3 166 14.3 C 166 12.7 165.3 12 163.9 12 C 162.4 12 161.4 12.9 161.4 15.2 C 161.45 15.17 161.4 22.6 161.4 22.6 L 158.3 22.6 C 158.3 22.6 158.25 14.3 158.3 14.3 C 158.3 12.7 157.5 12 156.2 12 C 154.7 12 153.7 13 153.7 15.1 C 153.69 15.14 153.7 22.6 153.7 22.6 L 150.5 22.6 L 150.5 9.4 L 153.6 9.4 C 153.6 9.4 153.65 11.3 153.6 11.3 C 154.1 10.2 155.1 9.1 157.1 9.1 C 158.8 9.1 160.1 9.9 160.7 11.3 C 161.2 10.4 162.2 9.1 164.6 9.1 C 167.4 9.1 169.2 10.8 169.2 13.7 Z M 174.5 16.9 C 174.5 19.1 176.1 20.1 177.9 20.1 C 179.1 20.1 180.3 19.6 180.7 18.4 C 180.7 18.4 183.6 18.4 183.6 18.4 C 183 21.3 180.4 22.9 177.7 22.9 C 174.5 22.9 171.4 20.7 171.4 16 C 171.4 11.5 174.4 9.1 177.7 9.1 C 181 9.1 183.7 11.3 183.7 15.6 C 183.67 15.65 183.7 16.9 183.7 16.9 C 183.7 16.9 174.45 16.94 174.5 16.9 Z M 174.5 14.6 C 174.5 14.6 180.6 14.6 180.6 14.6 C 180.6 12.9 179.3 11.9 177.7 11.9 C 176.2 11.9 174.8 12.7 174.5 14.6 Z M 196.5 18.5 C 196.5 21.5 193.9 22.9 190.9 22.9 C 188.2 22.9 185.2 21.7 185 18.4 C 185 18.4 188.2 18.4 188.2 18.4 C 188.4 19.7 189.6 20.3 191.1 20.3 C 192.4 20.3 193.4 19.8 193.4 18.8 C 193.4 18 192.8 17.8 190.9 17.5 C 188.4 17 185.4 16.6 185.4 13.3 C 185.4 10.3 187.9 9.1 190.7 9.1 C 193.8 9.1 196 10.7 196.2 13.6 C 196.2 13.6 193.1 13.6 193.1 13.6 C 193 12.3 192 11.8 190.7 11.8 C 189.1 11.8 188.5 12.5 188.5 13.2 C 188.5 14.3 189.7 14.5 191.3 14.7 C 193.7 15.1 196.5 15.4 196.5 18.5 Z M 200.4 22.4 C 200.4 22.39 198.8 22.4 198.8 22.4 L 198.8 19 L 202.4 19 C 202.4 19 202.44 21.94 202.4 21.9 C 202.4 25.4 200.1 26.6 197.9 26.9 C 197.9 26.9 197.6 25.1 197.6 25.1 C 199.3 25 200.4 23.9 200.4 22.4 Z M 222.5 16 C 222.5 16 225.9 16 225.9 16 C 225.6 20.7 222 23.1 217.9 23.1 C 212.2 23.1 209.2 18.5 209.2 13.5 C 209.2 8.8 211.9 4.2 218 4.2 C 222.2 4.2 225.4 6.5 225.8 10.6 C 225.8 10.6 222.4 10.6 222.4 10.6 C 222.2 8.6 220.3 7.3 217.9 7.3 C 214.2 7.3 212.5 10.3 212.5 13.5 C 212.5 16.8 214.4 19.8 217.9 19.8 C 220.1 19.8 222.3 18.8 222.5 16 Z M 231.9 22.6 L 228.5 22.6 L 228.5 4.6 L 240.6 4.6 L 240.6 7.7 L 231.9 7.7 L 231.9 11.9 L 240.2 11.9 L 240.2 15.1 L 231.9 15.1 L 231.9 22.6 Z M 252.3 18.6 L 244.7 18.6 L 243.2 22.6 L 239.7 22.6 L 246.6 4.6 L 250.3 4.6 L 257.5 22.6 L 253.8 22.6 L 252.3 18.6 Z M 251.1 15.5 L 248.5 8.4 L 245.9 15.5 L 251.1 15.5 Z M 261.2 22.4 C 261.24 22.39 259.6 22.4 259.6 22.4 L 259.6 19 L 263.3 19 C 263.3 19 263.28 21.94 263.3 21.9 C 263.3 25.4 260.9 26.6 258.8 26.9 C 258.8 26.9 258.5 25.1 258.5 25.1 C 260.2 25 261.2 23.9 261.2 22.4 Z " stroke="none" fill="#000"/>  </g></svg>