<?xml version="1.0" standalone="no"?><!DOCTYPE svg PUBLIC "-//W3C//DTD SVG 1.1//EN" "http://www.w3.org/Graphics/SVG/1.1/DTD/svg11.dtd"><svg xmlns="http://www.w3.org/2000/svg" version="1.1" width="338px" height="36.4px" viewBox="0 -3 338 36.4" style="top:-3px">  <desc>Help combat reduce volatility</desc>  <defs/>  <g id="Polygon9575">    <path d="M 13.7 19.8 L 12.1 19.8 L 12.1 12.6 L 3.5 12.6 L 3.5 19.8 L 1.9 19.8 L 1.9 4 L 3.5 4 L 3.5 11.1 L 12.1 11.1 L 12.1 4 L 13.7 4 L 13.7 19.8 Z M 18.1 14.5 C 18.1 17.3 19.8 18.6 21.8 18.6 C 23.3 18.6 24.8 17.9 25.1 16.3 C 25.1 16.3 26.6 16.3 26.6 16.3 C 26.1 18.9 23.9 20 21.7 20 C 19 20 16.5 18.2 16.5 14.2 C 16.5 10.1 19.1 8.3 21.8 8.3 C 24.5 8.3 26.6 10 26.6 13.8 C 26.65 13.75 26.6 14.5 26.6 14.5 C 26.6 14.5 18.06 14.51 18.1 14.5 Z M 18.1 13.2 C 18.1 13.2 25.1 13.2 25.1 13.2 C 25.1 10.9 23.6 9.7 21.7 9.7 C 20 9.7 18.3 10.8 18.1 13.2 Z M 30.8 19.8 L 29.3 19.8 L 29.3 3.8 L 30.8 3.8 L 30.8 19.8 Z M 44.7 14.1 C 44.7 18.2 42.1 19.9 39.5 19.9 C 37.6 19.9 36.3 19 35.7 17.8 C 35.7 17.83 35.7 24.1 35.7 24.1 L 34.2 24.1 L 34.2 8.5 L 35.7 8.5 C 35.7 8.5 35.66 10.88 35.7 10.9 C 36.2 9.5 37.6 8.3 39.7 8.3 C 42.1 8.3 44.7 10 44.7 14.1 Z M 43.1 14.1 C 43.1 11 41.3 9.8 39.5 9.8 C 37.6 9.8 35.7 11 35.7 14.2 C 35.7 17.3 37.5 18.5 39.4 18.5 C 41.3 18.5 43.1 17.3 43.1 14.1 Z M 56.6 20 C 53.5 20 51.4 17.7 51.4 14.2 C 51.4 10.6 53.5 8.3 56.8 8.3 C 59.3 8.3 61.3 9.7 61.4 12.2 C 61.4 12.2 59.9 12.2 59.9 12.2 C 59.8 10.6 58.4 9.7 56.7 9.7 C 54.5 9.7 53 11.4 53 14.1 C 53 16.9 54.5 18.6 56.7 18.6 C 58.4 18.6 59.8 17.6 59.9 15.8 C 59.9 15.8 61.4 15.8 61.4 15.8 C 61.3 18.5 59.1 20 56.6 20 Z M 63.3 14.2 C 63.3 10.5 65.5 8.3 68.6 8.3 C 71.8 8.3 74 10.5 74 14.2 C 74 17.8 71.8 20 68.7 20 C 65.6 20 63.3 17.8 63.3 14.2 Z M 72.4 14.1 C 72.4 11.3 70.7 9.7 68.6 9.7 C 66.4 9.7 64.9 11.4 64.9 14.2 C 64.9 17 66.6 18.6 68.7 18.6 C 70.9 18.6 72.4 16.9 72.4 14.1 Z M 76.6 8.5 L 78.1 8.5 C 78.1 8.5 78.14 10.37 78.1 10.4 C 78.7 9 80 8.3 81.4 8.3 C 83.1 8.3 84.4 9.2 84.8 10.6 C 85.3 9.4 86.5 8.3 88.5 8.3 C 90.5 8.3 92.1 9.4 92.1 11.7 C 92.11 11.7 92.1 19.8 92.1 19.8 L 90.6 19.8 C 90.6 19.8 90.57 12.24 90.6 12.2 C 90.6 10.5 89.5 9.7 88.2 9.7 C 86.5 9.7 85.1 11 85.1 13.3 C 85.11 13.33 85.1 19.8 85.1 19.8 L 83.6 19.8 C 83.6 19.8 83.6 12.24 83.6 12.2 C 83.6 10.5 82.6 9.7 81.2 9.7 C 79.6 9.7 78.2 10.9 78.2 13.3 C 78.16 13.33 78.2 19.8 78.2 19.8 L 76.6 19.8 L 76.6 8.5 Z M 105.9 14.1 C 105.9 17.6 103.8 20 100.8 20 C 98.8 20 97.4 18.9 96.8 17.7 C 96.83 17.7 96.8 19.8 96.8 19.8 L 95.4 19.8 L 95.4 3.8 L 96.9 3.8 C 96.9 3.8 96.89 10.77 96.9 10.8 C 97.5 9.4 98.9 8.3 100.9 8.3 C 103.8 8.3 105.9 10.5 105.9 14.1 Z M 104.3 14.2 C 104.3 11.4 102.8 9.8 100.7 9.8 C 98.5 9.8 96.9 11.4 96.9 14.2 C 96.9 17 98.4 18.7 100.6 18.7 C 102.8 18.7 104.3 16.9 104.3 14.2 Z M 115.4 17.7 C 114.6 19.4 112.9 20 111.4 20 C 109.5 20 107.8 18.9 107.8 16.7 C 107.8 14.6 109.3 13.6 111.2 13.4 C 111.2 13.4 113.9 13 113.9 13 C 114.7 12.9 115.4 12.6 115.4 11.6 C 115.4 10.3 114.3 9.6 112.7 9.6 C 111 9.6 110 10.4 109.7 11.7 C 109.7 11.7 108.2 11.7 108.2 11.7 C 108.5 9.4 110.3 8.3 112.8 8.3 C 115.4 8.3 116.9 9.5 116.9 12 C 116.93 11.99 116.9 19.8 116.9 19.8 L 115.4 19.8 C 115.4 19.8 115.44 17.72 115.4 17.7 Z M 113.6 14.3 C 113.6 14.3 111.8 14.5 111.8 14.5 C 110.4 14.7 109.3 15.2 109.3 16.6 C 109.3 18 110.4 18.6 111.7 18.6 C 113.4 18.6 115.4 17.3 115.4 14.9 C 115.4 14.9 115.4 13.8 115.4 13.8 C 115 14.1 114.3 14.2 113.6 14.3 Z M 125.2 19.8 C 125.2 19.8 123.56 19.78 123.6 19.8 C 122.1 19.8 120.7 19.3 120.7 16.8 C 120.73 16.82 120.7 9.9 120.7 9.9 L 118.5 9.9 L 118.5 8.5 L 120.7 8.5 L 120.7 5.3 L 122.3 4.9 L 122.3 8.5 L 125 8.5 L 125 9.9 L 122.3 9.9 C 122.3 9.9 122.26 16.8 122.3 16.8 C 122.3 17.8 122.6 18.4 123.8 18.4 C 123.82 18.4 125.2 18.4 125.2 18.4 L 125.2 19.8 Z M 126.1 21.7 L 133 2.4 L 134.4 2.4 L 127.5 21.7 L 126.1 21.7 Z M 141.8 9.8 C 141.8 9.8 141.48 9.83 141.5 9.8 C 139.1 9.8 137.7 11.2 137.7 13.8 C 137.74 13.8 137.7 19.8 137.7 19.8 L 136.2 19.8 L 136.2 8.5 L 137.7 8.5 C 137.7 8.5 137.72 10.58 137.7 10.6 C 138.2 9.1 139.6 8.4 141.3 8.4 C 141.35 8.38 141.8 8.4 141.8 8.4 L 141.8 9.8 Z M 144.4 14.5 C 144.4 17.3 146.2 18.6 148.2 18.6 C 149.6 18.6 151.1 17.9 151.5 16.3 C 151.5 16.3 152.9 16.3 152.9 16.3 C 152.4 18.9 150.2 20 148.1 20 C 145.4 20 142.9 18.2 142.9 14.2 C 142.9 10.1 145.4 8.3 148.1 8.3 C 150.8 8.3 153 10 153 13.8 C 152.98 13.75 153 14.5 153 14.5 C 153 14.5 144.39 14.51 144.4 14.5 Z M 144.4 13.2 C 144.4 13.2 151.4 13.2 151.4 13.2 C 151.4 10.9 150 9.7 148.1 9.7 C 146.3 9.7 144.6 10.8 144.4 13.2 Z M 165.4 19.8 L 163.9 19.8 C 163.9 19.8 163.95 17.6 163.9 17.6 C 163.4 18.9 162 20 159.9 20 C 157 20 154.9 17.7 154.9 14.1 C 154.9 10.6 157 8.3 160 8.3 C 161.9 8.3 163.3 9.2 163.9 10.4 C 163.88 10.42 163.9 3.8 163.9 3.8 L 165.4 3.8 L 165.4 19.8 Z M 163.9 14.1 C 163.9 11.3 162.3 9.7 160.1 9.7 C 157.9 9.7 156.4 11.4 156.4 14.1 C 156.4 16.9 158 18.6 160.1 18.6 C 162.3 18.6 163.9 16.9 163.9 14.1 Z M 176.2 19.8 C 176.2 19.8 176.19 17.64 176.2 17.6 C 175.4 19.2 174 19.9 172.4 19.9 C 170.3 19.9 168.7 18.6 168.7 16 C 168.67 15.96 168.7 8.5 168.7 8.5 L 170.2 8.5 C 170.2 8.5 170.2 15.77 170.2 15.8 C 170.2 17.6 171.2 18.6 172.7 18.6 C 174.5 18.6 176.1 17.2 176.1 14.3 C 176.13 14.34 176.1 8.5 176.1 8.5 L 177.7 8.5 L 177.7 19.8 L 176.2 19.8 Z M 185.5 20 C 182.4 20 180.3 17.7 180.3 14.2 C 180.3 10.6 182.4 8.3 185.6 8.3 C 188.1 8.3 190.1 9.7 190.3 12.2 C 190.3 12.2 188.8 12.2 188.8 12.2 C 188.6 10.6 187.3 9.7 185.6 9.7 C 183.4 9.7 181.8 11.4 181.8 14.1 C 181.8 16.9 183.4 18.6 185.6 18.6 C 187.3 18.6 188.7 17.6 188.8 15.8 C 188.8 15.8 190.3 15.8 190.3 15.8 C 190.1 18.5 188 20 185.5 20 Z M 193.7 14.5 C 193.7 17.3 195.5 18.6 197.5 18.6 C 199 18.6 200.4 17.9 200.8 16.3 C 200.8 16.3 202.2 16.3 202.2 16.3 C 201.7 18.9 199.5 20 197.4 20 C 194.7 20 192.2 18.2 192.2 14.2 C 192.2 10.1 194.7 8.3 197.4 8.3 C 200.1 8.3 202.3 10 202.3 13.8 C 202.29 13.75 202.3 14.5 202.3 14.5 C 202.3 14.5 193.7 14.51 193.7 14.5 Z M 193.7 13.2 C 193.7 13.2 200.7 13.2 200.7 13.2 C 200.7 10.9 199.3 9.7 197.4 9.7 C 195.6 9.7 194 10.8 193.7 13.2 Z M 214.2 19.8 L 212.6 19.8 L 208.4 8.5 L 210 8.5 L 213.4 18.2 L 216.8 8.5 L 218.4 8.5 L 214.2 19.8 Z M 219.5 14.2 C 219.5 10.5 221.7 8.3 224.8 8.3 C 227.9 8.3 230.2 10.5 230.2 14.2 C 230.2 17.8 227.9 20 224.8 20 C 221.7 20 219.5 17.8 219.5 14.2 Z M 228.6 14.1 C 228.6 11.3 226.9 9.7 224.8 9.7 C 222.6 9.7 221 11.4 221 14.2 C 221 17 222.7 18.6 224.8 18.6 C 227 18.6 228.6 16.9 228.6 14.1 Z M 234.3 19.8 L 232.8 19.8 L 232.8 3.8 L 234.3 3.8 L 234.3 19.8 Z M 244.6 17.7 C 243.7 19.4 242 20 240.6 20 C 238.7 20 236.9 18.9 236.9 16.7 C 236.9 14.6 238.4 13.6 240.4 13.4 C 240.4 13.4 243 13 243 13 C 243.9 12.9 244.6 12.6 244.6 11.6 C 244.6 10.3 243.5 9.6 241.9 9.6 C 240.2 9.6 239.1 10.4 238.9 11.7 C 238.9 11.7 237.4 11.7 237.4 11.7 C 237.7 9.4 239.5 8.3 242 8.3 C 244.5 8.3 246.1 9.5 246.1 12 C 246.1 11.99 246.1 19.8 246.1 19.8 L 244.6 19.8 C 244.6 19.8 244.61 17.72 244.6 17.7 Z M 242.7 14.3 C 242.7 14.3 241 14.5 241 14.5 C 239.6 14.7 238.5 15.2 238.5 16.6 C 238.5 18 239.6 18.6 240.8 18.6 C 242.6 18.6 244.6 17.3 244.6 14.9 C 244.6 14.9 244.6 13.8 244.6 13.8 C 244.1 14.1 243.5 14.2 242.7 14.3 Z M 254.4 19.8 C 254.4 19.8 252.73 19.78 252.7 19.8 C 251.2 19.8 249.9 19.3 249.9 16.8 C 249.9 16.82 249.9 9.9 249.9 9.9 L 247.7 9.9 L 247.7 8.5 L 249.9 8.5 L 249.9 5.3 L 251.4 4.9 L 251.4 8.5 L 254.2 8.5 L 254.2 9.9 L 251.4 9.9 C 251.4 9.9 251.43 16.8 251.4 16.8 C 251.4 17.8 251.7 18.4 253 18.4 C 252.99 18.4 254.4 18.4 254.4 18.4 L 254.4 19.8 Z M 258.2 3.8 L 256.5 3.8 L 256.5 5.7 L 258.2 5.7 L 258.2 3.8 Z M 258.1 19.8 L 256.6 19.8 L 256.6 8.5 L 258.1 8.5 L 258.1 19.8 Z M 263 19.8 L 261.5 19.8 L 261.5 3.8 L 263 3.8 L 263 19.8 Z M 268 3.8 L 266.3 3.8 L 266.3 5.7 L 268 5.7 L 268 3.8 Z M 267.9 19.8 L 266.4 19.8 L 266.4 8.5 L 267.9 8.5 L 267.9 19.8 Z M 276.4 19.8 C 276.4 19.8 274.76 19.78 274.8 19.8 C 273.3 19.8 271.9 19.3 271.9 16.8 C 271.93 16.82 271.9 9.9 271.9 9.9 L 269.7 9.9 L 269.7 8.5 L 271.9 8.5 L 271.9 5.3 L 273.5 4.9 L 273.5 8.5 L 276.2 8.5 L 276.2 9.9 L 273.5 9.9 C 273.5 9.9 273.46 16.8 273.5 16.8 C 273.5 17.8 273.8 18.4 275 18.4 C 275.01 18.4 276.4 18.4 276.4 18.4 L 276.4 19.8 Z M 281.9 21.9 C 281.5 23.1 280.5 23.5 279.3 23.5 C 279.34 23.48 278.2 23.5 278.2 23.5 L 278.2 22.1 C 278.2 22.1 279.13 22.11 279.1 22.1 C 280.1 22.1 280.6 21.8 280.9 20.8 C 280.93 20.79 281.5 19.3 281.5 19.3 L 277.3 8.5 L 278.9 8.5 L 282.2 17.4 L 285.5 8.5 L 287 8.5 C 287 8.5 281.94 21.92 281.9 21.9 Z " stroke="none" fill="#000"/>  </g></svg>