<?xml version="1.0" standalone="no"?><!DOCTYPE svg PUBLIC "-//W3C//DTD SVG 1.1//EN" "http://www.w3.org/Graphics/SVG/1.1/DTD/svg11.dtd"><svg xmlns="http://www.w3.org/2000/svg" version="1.1" width="76px" height="160.2px" viewBox="0 -12 76 160.2" style="top:-12px"><desc>3</desc><defs/><g id="Polygon10421"><path d="m33.8 34.8c0-5-4.6-7.9-9.9-7.9c-5.2 0-11 2.8-14 8.7L6.8 33c3-9.8 11.8-15.7 22.5-15.7c9.6 0 18 4.7 18 13.1c0 7-5.8 14.2-16.3 16.9c11.8 1.7 19.7 8.3 19.7 18.6c0 13-12.5 20-26.5 20c-6.7 0-13.9-1.7-20-4.8c.03-.01 3.6-12.8 3.6-12.8h5.4c0 9.3 5.9 13.3 11.7 13.3c6.2 0 12.5-4.6 12.5-12.5c0-7.8-6.1-14-19.7-14v-7.7c10.3-.6 16.1-7 16.1-12.6z" stroke="none" fill="#000"/></g></svg>