<?xml version="1.0" standalone="no"?><!DOCTYPE svg PUBLIC "-//W3C//DTD SVG 1.1//EN" "http://www.w3.org/Graphics/SVG/1.1/DTD/svg11.dtd"><svg xmlns="http://www.w3.org/2000/svg" version="1.1" width="51px" height="44.6px" viewBox="0 -1 51 44.6" style="top:-1px"><desc>3 8</desc><defs/><g id="Polygon13033"><path d="m38.9 19.1c0 2-1.7 3-3.7 3c-2 0-3.9-1.2-3.9-3.6h1.9c-.1 1.3.9 1.9 2 1.9c1 0 1.8-.4 1.8-1.4c0-.9-.8-1.4-2.1-1.4c-.05.04-.8 0-.8 0V16s.7-.04.7 0c1.3 0 2-.7 2-1.5c0-.9-.7-1.4-1.7-1.4c-1 0-1.8.6-1.8 2h-1.9c0-2.5 1.8-3.7 3.8-3.7c1.9 0 3.5 1 3.5 2.8c0 1.3-.8 2.2-1.7 2.4c1.1.4 1.9 1.1 1.9 2.5zm.8.7h2.1v2.1h-2.1v-2.1zm10.5-.7c0 1.8-1.6 3-3.7 3c-2.2 0-3.8-1.2-3.8-3c0-1.4.9-2.3 1.9-2.5c-.8-.3-1.6-1.1-1.6-2.4c0-1.8 1.6-2.8 3.4-2.8c1.9 0 3.5 1 3.5 2.9c0 1.3-.9 2.1-1.6 2.3c1 .2 1.9 1.1 1.9 2.5zm-5.3-4.8c0 .8.6 1.4 1.5 1.4c1 0 1.6-.6 1.6-1.4c0-.6-.5-1.2-1.6-1.2c-1.1 0-1.5.6-1.5 1.2zm3.3 4.7c0-.8-.7-1.5-1.8-1.5c-1.1 0-1.7.7-1.7 1.5c0 .9.6 1.5 1.7 1.5c1.2 0 1.8-.6 1.8-1.5z" stroke="none" fill="#000"/></g></svg>