<?xml version="1.0" standalone="no"?><!DOCTYPE svg PUBLIC "-//W3C//DTD SVG 1.1//EN" "http://www.w3.org/Graphics/SVG/1.1/DTD/svg11.dtd"><svg xmlns="http://www.w3.org/2000/svg" version="1.1" width="422.4px" height="194.4px" viewBox="0 0 422.4 194.4">  <desc>Vu la contraction des spreads dans l univers du haut rendement et l absence de vague de d fauts, ces obligations offr</desc>  <defs/>  <g id="Polygon11252">    <path d="M 10.6 142.2 C 10.6 144.8 8.3 146 5.7 146 C 3.3 146 0.7 145 0.5 142.1 C 0.5 142.1 3.3 142.1 3.3 142.1 C 3.5 143.2 4.6 143.7 5.9 143.7 C 7 143.7 7.9 143.3 7.9 142.5 C 7.9 141.7 7.3 141.6 5.7 141.3 C 3.5 140.9 0.9 140.5 0.9 137.7 C 0.9 135.1 3.1 134 5.5 134 C 8.2 134 10.2 135.3 10.4 137.9 C 10.4 137.9 7.6 137.9 7.6 137.9 C 7.5 136.8 6.7 136.3 5.5 136.3 C 4.1 136.3 3.6 136.9 3.6 137.6 C 3.6 138.5 4.6 138.7 6 138.9 C 8.1 139.2 10.6 139.5 10.6 142.2 Z M 23.9 139.8 C 23.9 144 21.3 145.9 18.6 145.9 C 17 145.9 16 145.2 15.3 144.4 C 15.31 144.4 15.3 150.1 15.3 150.1 L 12.5 150.1 L 12.5 134.2 L 15.2 134.2 C 15.2 134.2 15.25 136.04 15.2 136 C 15.8 134.8 17.2 134 18.9 134 C 21.6 134 23.9 135.9 23.9 139.8 Z M 21.1 140 C 21.1 137.6 19.7 136.5 18.2 136.5 C 16.7 136.5 15.2 137.6 15.2 140 C 15.2 142.3 16.7 143.4 18.2 143.4 C 19.7 143.4 21.1 142.3 21.1 140 Z M 32.4 136.8 C 32.4 136.8 31.71 136.77 31.7 136.8 C 29.8 136.8 28.7 137.8 28.7 140.1 C 28.69 140.11 28.7 145.8 28.7 145.8 L 25.9 145.8 L 25.9 134.2 L 28.7 134.2 C 28.7 134.2 28.66 135.85 28.7 135.8 C 29.3 134.6 30.3 134.1 31.7 134.1 C 31.69 134.06 32.4 134.1 32.4 134.1 L 32.4 136.8 Z M 35.6 140.8 C 35.6 142.7 37 143.6 38.6 143.6 C 39.6 143.6 40.7 143.2 41 142.1 C 41 142.1 43.6 142.1 43.6 142.1 C 43.1 144.7 40.8 146 38.4 146 C 35.6 146 32.9 144.1 32.9 140 C 32.9 136 35.5 134 38.5 134 C 41.3 134 43.6 135.8 43.6 139.7 C 43.64 139.69 43.6 140.8 43.6 140.8 C 43.6 140.8 35.57 140.83 35.6 140.8 Z M 35.6 138.8 C 35.6 138.8 40.9 138.8 40.9 138.8 C 40.9 137.3 39.8 136.4 38.4 136.4 C 37.1 136.4 35.9 137.1 35.6 138.8 Z M 54.9 138 C 54.89 137.99 54.9 145.8 54.9 145.8 L 52.2 145.8 C 52.2 145.8 52.16 144.1 52.2 144.1 C 51.3 145.6 49.9 146 48.7 146 C 46.8 146 44.9 144.9 44.9 142.4 C 44.9 140.6 45.9 139.4 48.6 139 C 48.6 139 51.1 138.6 51.1 138.6 C 51.8 138.5 52.3 138.3 52.3 137.6 C 52.3 136.6 51.4 136.2 50.3 136.2 C 48.8 136.2 48.2 136.9 48 137.9 C 48 137.9 45.4 137.9 45.4 137.9 C 45.7 135.2 47.8 134 50.4 134 C 53.2 134 54.9 135.3 54.9 138 Z M 52.2 140.9 C 52.2 140.9 52.2 140.3 52.2 140.3 C 51.9 140.4 51.4 140.6 50.8 140.6 C 50.8 140.6 49.6 140.8 49.6 140.8 C 48.2 141 47.7 141.6 47.7 142.3 C 47.7 143.2 48.3 143.7 49.3 143.7 C 50.8 143.7 52.2 142.6 52.2 140.9 Z M 68.1 145.8 L 65.3 145.8 C 65.3 145.8 65.33 144 65.3 144 C 64.7 145.3 63.4 146 61.8 146 C 59.1 146 56.7 144 56.7 140 C 56.7 136 59.1 134 61.8 134 C 63.3 134 64.6 134.6 65.3 135.7 C 65.27 135.72 65.3 129.8 65.3 129.8 L 68.1 129.8 L 68.1 145.8 Z M 65.4 140 C 65.4 137.6 63.9 136.5 62.4 136.5 C 60.9 136.5 59.5 137.6 59.5 140 C 59.5 142.3 60.9 143.5 62.4 143.5 C 63.9 143.5 65.4 142.3 65.4 140 Z M 80.1 142.2 C 80.1 144.8 77.7 146 75.1 146 C 72.7 146 70.1 145 70 142.1 C 70 142.1 72.8 142.1 72.8 142.1 C 73 143.2 74 143.7 75.3 143.7 C 76.5 143.7 77.3 143.3 77.3 142.5 C 77.3 141.7 76.8 141.6 75.2 141.3 C 72.9 140.9 70.3 140.5 70.3 137.7 C 70.3 135.1 72.5 134 74.9 134 C 77.6 134 79.6 135.3 79.8 137.9 C 79.8 137.9 77 137.9 77 137.9 C 76.9 136.8 76.1 136.3 74.9 136.3 C 73.6 136.3 73 136.9 73 137.6 C 73 138.5 74 138.7 75.5 138.9 C 77.5 139.2 80.1 139.5 80.1 142.2 Z M 96.5 138 C 96.45 137.99 96.5 145.8 96.5 145.8 L 93.7 145.8 C 93.7 145.8 93.72 144.1 93.7 144.1 C 92.8 145.6 91.4 146 90.2 146 C 88.4 146 86.5 144.9 86.5 142.4 C 86.5 140.6 87.5 139.4 90.2 139 C 90.2 139 92.7 138.6 92.7 138.6 C 93.3 138.5 93.8 138.3 93.8 137.6 C 93.8 136.6 93 136.2 91.9 136.2 C 90.4 136.2 89.7 136.9 89.6 137.9 C 89.6 137.9 86.9 137.9 86.9 137.9 C 87.2 135.2 89.4 134 92 134 C 94.7 134 96.5 135.3 96.5 138 Z M 93.7 140.9 C 93.7 140.9 93.7 140.3 93.7 140.3 C 93.5 140.4 92.9 140.6 92.4 140.6 C 92.4 140.6 91.1 140.8 91.1 140.8 C 89.7 141 89.2 141.6 89.2 142.3 C 89.2 143.2 89.9 143.7 90.9 143.7 C 92.3 143.7 93.7 142.6 93.7 140.9 Z M 103.9 146 C 100.1 146 98.2 143.1 98.2 140 C 98.2 136.9 100 134 103.8 134 C 106.7 134 108.9 135.6 109 138.4 C 109 138.4 106.2 138.4 106.2 138.4 C 106.1 137.3 105.3 136.5 103.9 136.5 C 101.9 136.5 101.1 138.2 101.1 140 C 101.1 141.9 101.9 143.4 103.9 143.4 C 105.3 143.4 106.1 142.7 106.3 141.7 C 106.3 141.7 109 141.7 109 141.7 C 108.7 144.5 106.7 146 103.9 146 Z M 117 145.8 C 117 145.8 115.14 145.78 115.1 145.8 C 113 145.8 111.6 145.1 111.6 142 C 111.59 142 111.6 136.7 111.6 136.7 L 109.5 136.7 L 109.5 134.2 L 111.6 134.2 L 111.6 131.6 L 114.4 130.8 L 114.4 134.2 L 116.7 134.2 L 116.7 136.7 L 114.4 136.7 C 114.4 136.7 114.39 142.13 114.4 142.1 C 114.4 142.8 114.6 143.3 115.6 143.3 C 115.56 143.3 117 143.3 117 143.3 L 117 145.8 Z M 128.7 145.8 L 126 145.8 C 126 145.8 125.96 144.14 126 144.1 C 125.3 145.2 124.2 145.9 122.6 145.9 C 120.2 145.9 118.4 144.4 118.4 141.4 C 118.44 141.39 118.4 134.2 118.4 134.2 L 121.2 134.2 C 121.2 134.2 121.23 141.18 121.2 141.2 C 121.2 142.8 122 143.4 123.2 143.4 C 124.8 143.4 125.9 142.5 125.9 139.8 C 125.89 139.8 125.9 134.2 125.9 134.2 L 128.7 134.2 L 128.7 145.8 Z M 133.4 140.8 C 133.5 142.7 134.8 143.6 136.4 143.6 C 137.5 143.6 138.5 143.2 138.9 142.1 C 138.9 142.1 141.4 142.1 141.4 142.1 C 140.9 144.7 138.6 146 136.2 146 C 133.5 146 130.7 144.1 130.7 140 C 130.7 136 133.3 134 136.3 134 C 139.1 134 141.5 135.8 141.5 139.7 C 141.45 139.69 141.5 140.8 141.5 140.8 C 141.5 140.8 133.39 140.83 133.4 140.8 Z M 133.5 138.8 C 133.5 138.8 138.7 138.8 138.7 138.8 C 138.7 137.3 137.7 136.4 136.2 136.4 C 134.9 136.4 133.7 137.1 133.5 138.8 Z M 146.2 145.8 L 143.4 145.8 L 143.4 129.8 L 146.2 129.8 L 146.2 145.8 Z M 158.2 142.2 C 158.2 144.8 155.9 146 153.3 146 C 150.9 146 148.3 145 148.1 142.1 C 148.1 142.1 150.9 142.1 150.9 142.1 C 151.1 143.2 152.2 143.7 153.5 143.7 C 154.6 143.7 155.5 143.3 155.5 142.5 C 155.5 141.7 154.9 141.6 153.3 141.3 C 151.1 140.9 148.5 140.5 148.5 137.7 C 148.5 135.1 150.7 134 153.1 134 C 155.8 134 157.8 135.3 158 137.9 C 158 137.9 155.2 137.9 155.2 137.9 C 155.1 136.8 154.3 136.3 153.1 136.3 C 151.7 136.3 151.2 136.9 151.2 137.6 C 151.2 138.5 152.2 138.7 153.6 138.9 C 155.7 139.2 158.2 139.5 158.2 142.2 Z M 168.1 140.2 C 168.1 137.5 169.5 137 170.7 136.1 C 171.8 135.4 172.2 134.8 172.2 134 C 172.2 132.8 171.4 132.2 170.1 132.2 C 168.7 132.2 167.8 133 167.7 134.4 C 167.7 134.4 164.8 134.4 164.8 134.4 C 165.1 131 167.6 129.8 170.2 129.8 C 173 129.8 175.1 131.1 175.1 133.9 C 175.1 136.1 173.8 137 172.4 138 C 171.3 138.8 170.8 139.3 170.8 140.2 C 170.81 140.24 170.8 140.9 170.8 140.9 L 168.1 140.9 C 168.1 140.9 168.15 140.15 168.1 140.2 Z M 167.9 142.5 L 171.1 142.5 L 171.1 145.8 L 167.9 145.8 L 167.9 142.5 Z " stroke="none" fill="#000"/>  </g>  <g id="Polygon11251">    <path d="M 10.6 112.8 C 10.63 112.79 10.6 120.6 10.6 120.6 L 7.9 120.6 C 7.9 120.6 7.9 118.9 7.9 118.9 C 7 120.4 5.6 120.8 4.4 120.8 C 2.5 120.8 0.6 119.7 0.6 117.2 C 0.6 115.4 1.7 114.2 4.3 113.8 C 4.3 113.8 6.8 113.4 6.8 113.4 C 7.5 113.3 8 113.1 8 112.4 C 8 111.4 7.2 111 6 111 C 4.6 111 3.9 111.7 3.8 112.7 C 3.8 112.7 1.1 112.7 1.1 112.7 C 1.4 110 3.5 108.8 6.2 108.8 C 8.9 108.8 10.6 110.1 10.6 112.8 Z M 7.9 115.7 C 7.9 115.7 7.9 115.1 7.9 115.1 C 7.6 115.2 7.1 115.4 6.6 115.4 C 6.6 115.4 5.3 115.6 5.3 115.6 C 3.9 115.8 3.4 116.4 3.4 117.1 C 3.4 118 4.1 118.5 5 118.5 C 6.5 118.5 7.9 117.4 7.9 115.7 Z M 26.1 120.6 C 26.1 120.6 24.25 120.58 24.3 120.6 C 22.1 120.6 20.7 119.9 20.7 116.8 C 20.71 116.8 20.7 111.5 20.7 111.5 L 16.5 111.5 C 16.5 111.5 16.48 116.93 16.5 116.9 C 16.5 117.6 16.7 118.1 17.7 118.1 C 17.66 118.1 19.1 118.1 19.1 118.1 L 19.1 120.6 C 19.1 120.6 17.24 120.58 17.2 120.6 C 15.1 120.6 13.7 119.9 13.7 116.8 C 13.69 116.8 13.7 111.5 13.7 111.5 L 11.6 111.5 L 11.6 109 L 13.7 109 L 13.7 106.4 L 16.5 105.6 L 16.5 109 L 20.7 109 L 20.7 106.4 L 23.5 105.6 L 23.5 109 L 25.8 109 L 25.8 111.5 L 23.5 111.5 C 23.5 111.5 23.5 116.93 23.5 116.9 C 23.5 117.6 23.7 118.1 24.7 118.1 C 24.67 118.1 26.1 118.1 26.1 118.1 L 26.1 120.6 Z M 34.2 111.6 C 34.2 111.6 33.47 111.57 33.5 111.6 C 31.5 111.6 30.4 112.6 30.4 114.9 C 30.45 114.91 30.4 120.6 30.4 120.6 L 27.7 120.6 L 27.7 109 L 30.4 109 C 30.4 109 30.43 110.65 30.4 110.6 C 31 109.4 32.1 108.9 33.5 108.9 C 33.45 108.86 34.2 108.9 34.2 108.9 L 34.2 111.6 Z M 44.8 112.8 C 44.83 112.79 44.8 120.6 44.8 120.6 L 42.1 120.6 C 42.1 120.6 42.1 118.9 42.1 118.9 C 41.2 120.4 39.8 120.8 38.6 120.8 C 36.7 120.8 34.8 119.7 34.8 117.2 C 34.8 115.4 35.9 114.2 38.5 113.8 C 38.5 113.8 41 113.4 41 113.4 C 41.7 113.3 42.2 113.1 42.2 112.4 C 42.2 111.4 41.4 111 40.3 111 C 38.8 111 38.1 111.7 38 112.7 C 38 112.7 35.3 112.7 35.3 112.7 C 35.6 110 37.8 108.8 40.4 108.8 C 43.1 108.8 44.8 110.1 44.8 112.8 Z M 42.1 115.7 C 42.1 115.7 42.1 115.1 42.1 115.1 C 41.9 115.2 41.3 115.4 40.8 115.4 C 40.8 115.4 39.5 115.6 39.5 115.6 C 38.1 115.8 37.6 116.4 37.6 117.1 C 37.6 118 38.3 118.5 39.2 118.5 C 40.7 118.5 42.1 117.4 42.1 115.7 Z M 57.3 109 C 57.3 109 52.25 122.32 52.2 122.3 C 51.7 123.7 50.5 124.3 49 124.3 C 48.97 124.28 47.2 124.3 47.2 124.3 L 47.2 121.8 C 47.2 121.8 48.49 121.8 48.5 121.8 C 49.4 121.8 49.9 121.5 50.1 120.7 C 50.15 120.67 50.3 120.1 50.3 120.1 L 46 109 L 49 109 L 51.7 116.6 L 54.4 109 L 57.3 109 Z M 67.9 112.8 C 67.91 112.79 67.9 120.6 67.9 120.6 L 65.2 120.6 C 65.2 120.6 65.18 118.9 65.2 118.9 C 64.3 120.4 62.9 120.8 61.7 120.8 C 59.8 120.8 57.9 119.7 57.9 117.2 C 57.9 115.4 58.9 114.2 61.6 113.8 C 61.6 113.8 64.1 113.4 64.1 113.4 C 64.8 113.3 65.3 113.1 65.3 112.4 C 65.3 111.4 64.4 111 63.3 111 C 61.8 111 61.2 111.7 61.1 112.7 C 61.1 112.7 58.4 112.7 58.4 112.7 C 58.7 110 60.8 108.8 63.5 108.8 C 66.2 108.8 67.9 110.1 67.9 112.8 Z M 65.2 115.7 C 65.2 115.7 65.2 115.1 65.2 115.1 C 64.9 115.2 64.4 115.4 63.8 115.4 C 63.8 115.4 62.6 115.6 62.6 115.6 C 61.2 115.8 60.7 116.4 60.7 117.1 C 60.7 118 61.4 118.5 62.3 118.5 C 63.8 118.5 65.2 117.4 65.2 115.7 Z M 80.6 113.1 C 80.62 113.11 80.6 120.6 80.6 120.6 L 77.8 120.6 C 77.8 120.6 77.83 113.36 77.8 113.4 C 77.8 112.1 77.1 111.3 75.8 111.3 C 74.2 111.3 73.2 112.4 73.2 114.3 C 73.23 114.32 73.2 120.6 73.2 120.6 L 70.4 120.6 L 70.4 109 L 73.2 109 C 73.2 109 73.21 110.67 73.2 110.7 C 73.9 109.6 74.8 108.8 76.7 108.8 C 79.4 108.8 80.6 110.3 80.6 113.1 Z M 89.2 120.6 C 89.2 120.6 87.34 120.58 87.3 120.6 C 85.2 120.6 83.8 119.9 83.8 116.8 C 83.79 116.8 83.8 111.5 83.8 111.5 L 81.7 111.5 L 81.7 109 L 83.8 109 L 83.8 106.4 L 86.6 105.6 L 86.6 109 L 88.9 109 L 88.9 111.5 L 86.6 111.5 C 86.6 111.5 86.58 116.93 86.6 116.9 C 86.6 117.6 86.8 118.1 87.8 118.1 C 87.76 118.1 89.2 118.1 89.2 118.1 L 89.2 120.6 Z M 100.7 120.8 C 96.9 120.8 95 117.9 95 114.8 C 95 111.7 96.9 108.8 100.7 108.8 C 103.5 108.8 105.7 110.4 105.8 113.2 C 105.8 113.2 103 113.2 103 113.2 C 102.9 112.1 102.1 111.3 100.7 111.3 C 98.7 111.3 97.9 113 97.9 114.8 C 97.9 116.7 98.7 118.2 100.7 118.2 C 102.1 118.2 102.9 117.5 103.1 116.5 C 103.1 116.5 105.8 116.5 105.8 116.5 C 105.5 119.3 103.5 120.8 100.7 120.8 Z M 118.4 114.8 C 118.4 118.6 116 120.8 112.8 120.8 C 109.5 120.8 107.1 118.6 107.1 114.8 C 107.1 111 109.5 108.8 112.8 108.8 C 116 108.8 118.4 111 118.4 114.8 Z M 110 114.8 C 110 117.1 111.3 118.2 112.8 118.2 C 114.5 118.2 115.6 117 115.6 114.8 C 115.6 112.5 114.3 111.4 112.7 111.4 C 111.1 111.4 110 112.6 110 114.8 Z M 136.8 112.8 C 136.79 112.77 136.8 120.6 136.8 120.6 L 134 120.6 C 134 120.6 134 113.32 134 113.3 C 134 111.9 133.3 111.3 132.2 111.3 C 130.9 111.3 130 112.1 130 114.1 C 130.01 114.07 130 120.6 130 120.6 L 127.2 120.6 C 127.2 120.6 127.22 113.32 127.2 113.3 C 127.2 111.9 126.5 111.3 125.4 111.3 C 124.1 111.3 123.2 112.1 123.2 114.1 C 123.23 114.05 123.2 120.6 123.2 120.6 L 120.4 120.6 L 120.4 109 L 123.2 109 C 123.2 109 123.18 110.69 123.2 110.7 C 123.5 109.8 124.4 108.8 126.2 108.8 C 127.7 108.8 128.8 109.5 129.4 110.7 C 129.8 109.9 130.7 108.8 132.8 108.8 C 135.2 108.8 136.8 110.3 136.8 112.8 Z M 150.8 114.6 C 150.8 118.8 148.2 120.7 145.5 120.7 C 143.9 120.7 142.9 120 142.2 119.2 C 142.21 119.2 142.2 124.9 142.2 124.9 L 139.4 124.9 L 139.4 109 L 142.1 109 C 142.1 109 142.15 110.84 142.1 110.8 C 142.7 109.6 144.1 108.8 145.8 108.8 C 148.5 108.8 150.8 110.7 150.8 114.6 Z M 148 114.8 C 148 112.4 146.6 111.3 145.1 111.3 C 143.6 111.3 142.1 112.4 142.1 114.8 C 142.1 117.1 143.6 118.2 145.1 118.2 C 146.6 118.2 148 117.1 148 114.8 Z M 158.7 120.6 C 158.7 120.6 156.89 120.58 156.9 120.6 C 154.7 120.6 153.3 119.9 153.3 116.8 C 153.34 116.8 153.3 111.5 153.3 111.5 L 151.2 111.5 L 151.2 109 L 153.3 109 L 153.3 106.4 L 156.1 105.6 L 156.1 109 L 158.4 109 L 158.4 111.5 L 156.1 111.5 C 156.1 111.5 156.13 116.93 156.1 116.9 C 156.1 117.6 156.3 118.1 157.3 118.1 C 157.31 118.1 158.7 118.1 158.7 118.1 L 158.7 120.6 Z M 162.3 115.6 C 162.3 117.5 163.7 118.4 165.2 118.4 C 166.3 118.4 167.4 118 167.7 116.9 C 167.7 116.9 170.3 116.9 170.3 116.9 C 169.8 119.5 167.5 120.8 165.1 120.8 C 162.3 120.8 159.6 118.9 159.6 114.8 C 159.6 110.8 162.2 108.8 165.1 108.8 C 168 108.8 170.3 110.6 170.3 114.5 C 170.33 114.49 170.3 115.6 170.3 115.6 C 170.3 115.6 162.27 115.63 162.3 115.6 Z M 162.3 113.6 C 162.3 113.6 167.6 113.6 167.6 113.6 C 167.6 112.1 166.5 111.2 165.1 111.2 C 163.8 111.2 162.6 111.9 162.3 113.6 Z M 183.3 120.6 C 183.3 120.6 181.46 120.58 181.5 120.6 C 179.3 120.6 177.9 119.9 177.9 116.8 C 177.91 116.8 177.9 111.5 177.9 111.5 L 175.8 111.5 L 175.8 109 L 177.9 109 L 177.9 106.4 L 180.7 105.6 L 180.7 109 L 183 109 L 183 111.5 L 180.7 111.5 C 180.7 111.5 180.7 116.93 180.7 116.9 C 180.7 117.6 180.9 118.1 181.9 118.1 C 181.88 118.1 183.3 118.1 183.3 118.1 L 183.3 120.6 Z M 186.8 115.6 C 186.9 117.5 188.2 118.4 189.8 118.4 C 190.9 118.4 192 118 192.3 116.9 C 192.3 116.9 194.9 116.9 194.9 116.9 C 194.4 119.5 192.1 120.8 189.7 120.8 C 186.9 120.8 184.1 118.9 184.1 114.8 C 184.1 110.8 186.8 108.8 189.7 108.8 C 192.5 108.8 194.9 110.6 194.9 114.5 C 194.9 114.49 194.9 115.6 194.9 115.6 C 194.9 115.6 186.84 115.63 186.8 115.6 Z M 186.9 113.6 C 186.9 113.6 192.2 113.6 192.2 113.6 C 192.2 112.1 191.1 111.2 189.7 111.2 C 188.4 111.2 187.2 111.9 186.9 113.6 Z M 207.1 113.1 C 207.08 113.11 207.1 120.6 207.1 120.6 L 204.3 120.6 C 204.3 120.6 204.29 113.36 204.3 113.4 C 204.3 112.1 203.6 111.3 202.2 111.3 C 200.7 111.3 199.7 112.4 199.7 114.3 C 199.69 114.32 199.7 120.6 199.7 120.6 L 196.9 120.6 L 196.9 109 L 199.7 109 C 199.7 109 199.67 110.67 199.7 110.7 C 200.3 109.6 201.3 108.8 203.2 108.8 C 205.8 108.8 207.1 110.3 207.1 113.1 Z M 219.8 120.6 L 217.1 120.6 C 217.1 120.6 217.12 118.94 217.1 118.9 C 216.4 120 215.4 120.7 213.8 120.7 C 211.4 120.7 209.6 119.2 209.6 116.2 C 209.6 116.19 209.6 109 209.6 109 L 212.4 109 C 212.4 109 212.39 115.98 212.4 116 C 212.4 117.6 213.2 118.2 214.4 118.2 C 215.9 118.2 217.1 117.3 217.1 114.6 C 217.05 114.6 217.1 109 217.1 109 L 219.8 109 L 219.8 120.6 Z M 238.5 120.6 L 235.7 120.6 C 235.7 120.6 235.74 118.8 235.7 118.8 C 235.1 120.1 233.8 120.8 232.2 120.8 C 229.5 120.8 227.1 118.8 227.1 114.8 C 227.1 110.8 229.5 108.8 232.2 108.8 C 233.7 108.8 235 109.4 235.7 110.5 C 235.68 110.52 235.7 104.6 235.7 104.6 L 238.5 104.6 L 238.5 120.6 Z M 235.8 114.8 C 235.8 112.4 234.3 111.3 232.8 111.3 C 231.3 111.3 229.9 112.4 229.9 114.8 C 229.9 117.1 231.3 118.3 232.8 118.3 C 234.3 118.3 235.8 117.1 235.8 114.8 Z M 243.2 115.6 C 243.2 117.5 244.6 118.4 246.2 118.4 C 247.3 118.4 248.3 118 248.6 116.9 C 248.6 116.9 251.2 116.9 251.2 116.9 C 250.7 119.5 248.4 120.8 246 120.8 C 243.2 120.8 240.5 118.9 240.5 114.8 C 240.5 110.8 243.1 108.8 246.1 108.8 C 248.9 108.8 251.2 110.6 251.2 114.5 C 251.24 114.49 251.2 115.6 251.2 115.6 C 251.2 115.6 243.18 115.63 243.2 115.6 Z M 243.2 113.6 C 243.2 113.6 248.5 113.6 248.5 113.6 C 248.5 112.1 247.4 111.2 246 111.2 C 244.7 111.2 243.5 111.9 243.2 113.6 Z M 262.5 117 C 262.5 119.6 260.2 120.8 257.6 120.8 C 255.2 120.8 252.6 119.8 252.4 116.9 C 252.4 116.9 255.2 116.9 255.2 116.9 C 255.4 118 256.4 118.5 257.7 118.5 C 258.9 118.5 259.7 118.1 259.7 117.3 C 259.7 116.5 259.2 116.4 257.6 116.1 C 255.3 115.7 252.8 115.3 252.8 112.5 C 252.8 109.9 255 108.8 257.4 108.8 C 260.1 108.8 262.1 110.1 262.2 112.7 C 262.2 112.7 259.5 112.7 259.5 112.7 C 259.4 111.6 258.6 111.1 257.4 111.1 C 256 111.1 255.5 111.7 255.5 112.4 C 255.5 113.3 256.5 113.5 257.9 113.7 C 260 114 262.5 114.3 262.5 117 Z M 279.8 113.1 C 279.82 113.11 279.8 120.6 279.8 120.6 L 277 120.6 C 277 120.6 277.03 113.36 277 113.4 C 277 112.1 276.3 111.3 275 111.3 C 273.4 111.3 272.4 112.4 272.4 114.3 C 272.43 114.32 272.4 120.6 272.4 120.6 L 269.6 120.6 L 269.6 109 L 272.4 109 C 272.4 109 272.41 110.67 272.4 110.7 C 273.1 109.6 274 108.8 275.9 108.8 C 278.6 108.8 279.8 110.3 279.8 113.1 Z M 282.3 107.5 L 285.3 107.5 L 285.3 104.3 L 282.3 104.3 L 282.3 107.5 Z M 282.4 109 L 285.2 109 L 285.2 120.6 L 282.4 120.6 L 282.4 109 Z M 293.8 120.6 L 290.8 120.6 L 286.6 109 L 289.5 109 L 292.4 117.3 L 295.2 109 L 298.1 109 L 293.8 120.6 Z M 301.2 115.6 C 301.3 117.5 302.6 118.4 304.2 118.4 C 305.3 118.4 306.4 118 306.7 116.9 C 306.7 116.9 309.3 116.9 309.3 116.9 C 308.8 119.5 306.5 120.8 304.1 120.8 C 301.3 120.8 298.5 118.9 298.5 114.8 C 298.5 110.8 301.2 108.8 304.1 108.8 C 306.9 108.8 309.3 110.6 309.3 114.5 C 309.31 114.49 309.3 115.6 309.3 115.6 C 309.3 115.6 301.24 115.63 301.2 115.6 Z M 301.3 113.6 C 301.3 113.6 306.6 113.6 306.6 113.6 C 306.6 112.1 305.5 111.2 304.1 111.2 C 302.8 111.2 301.6 111.9 301.3 113.6 Z M 320.6 112.8 C 320.56 112.79 320.6 120.6 320.6 120.6 L 317.8 120.6 C 317.8 120.6 317.83 118.9 317.8 118.9 C 316.9 120.4 315.5 120.8 314.3 120.8 C 312.5 120.8 310.6 119.7 310.6 117.2 C 310.6 115.4 311.6 114.2 314.3 113.8 C 314.3 113.8 316.8 113.4 316.8 113.4 C 317.5 113.3 317.9 113.1 317.9 112.4 C 317.9 111.4 317.1 111 316 111 C 314.5 111 313.8 111.7 313.7 112.7 C 313.7 112.7 311 112.7 311 112.7 C 311.3 110 313.5 108.8 316.1 108.8 C 318.8 108.8 320.6 110.1 320.6 112.8 Z M 317.9 115.7 C 317.9 115.7 317.9 115.1 317.9 115.1 C 317.6 115.2 317.1 115.4 316.5 115.4 C 316.5 115.4 315.2 115.6 315.2 115.6 C 313.8 115.8 313.4 116.4 313.4 117.1 C 313.4 118 314 118.5 315 118.5 C 316.4 118.5 317.9 117.4 317.9 115.7 Z M 333.2 120.6 L 330.5 120.6 C 330.5 120.6 330.49 118.94 330.5 118.9 C 329.8 120 328.8 120.7 327.2 120.7 C 324.7 120.7 323 119.2 323 116.2 C 322.98 116.19 323 109 323 109 L 325.8 109 C 325.8 109 325.77 115.98 325.8 116 C 325.8 117.6 326.5 118.2 327.7 118.2 C 329.3 118.2 330.4 117.3 330.4 114.6 C 330.43 114.6 330.4 109 330.4 109 L 333.2 109 L 333.2 120.6 Z M 341 116.9 L 338.4 120.6 L 334.9 120.6 L 339.2 114.8 L 334.8 109 L 338.4 109 L 341 112.6 L 343.6 109 L 347 109 L 342.8 114.6 L 347.3 120.6 L 343.7 120.6 L 341 116.9 Z M 364.3 120.6 L 361.6 120.6 C 361.6 120.6 361.62 118.8 361.6 118.8 C 361 120.1 359.6 120.8 358 120.8 C 355.3 120.8 353 118.8 353 114.8 C 353 110.8 355.3 108.8 358 108.8 C 359.6 108.8 360.9 109.4 361.6 110.5 C 361.55 110.52 361.6 104.6 361.6 104.6 L 364.3 104.6 L 364.3 120.6 Z M 361.6 114.8 C 361.6 112.4 360.2 111.3 358.7 111.3 C 357.2 111.3 355.8 112.4 355.8 114.8 C 355.8 117.1 357.2 118.3 358.7 118.3 C 360.2 118.3 361.6 117.1 361.6 114.8 Z M 369 115.6 C 369.1 117.5 370.5 118.4 372 118.4 C 373.1 118.4 374.2 118 374.5 116.9 C 374.5 116.9 377.1 116.9 377.1 116.9 C 376.6 119.5 374.3 120.8 371.9 120.8 C 369.1 120.8 366.3 118.9 366.3 114.8 C 366.3 110.8 369 108.8 371.9 108.8 C 374.7 108.8 377.1 110.6 377.1 114.5 C 377.11 114.49 377.1 115.6 377.1 115.6 C 377.1 115.6 369.05 115.63 369 115.6 Z M 369.1 113.6 C 369.1 113.6 374.4 113.6 374.4 113.6 C 374.4 112.1 373.3 111.2 371.9 111.2 C 370.6 111.2 369.4 111.9 369.1 113.6 Z " stroke="none" fill="#000"/>  </g>  <g id="Polygon11250">    <path d="M 11.9 89.6 C 11.9 93.4 9.5 95.6 6.3 95.6 C 3 95.6 0.6 93.4 0.6 89.6 C 0.6 85.8 3 83.6 6.3 83.6 C 9.5 83.6 11.9 85.8 11.9 89.6 Z M 3.5 89.6 C 3.5 91.9 4.8 93 6.3 93 C 8 93 9.1 91.8 9.1 89.6 C 9.1 87.3 7.8 86.2 6.3 86.2 C 4.6 86.2 3.5 87.4 3.5 89.6 Z M 24.3 83 C 24.32 83.03 24.3 83.8 24.3 83.8 L 26.5 83.8 L 26.5 86.3 L 24.3 86.3 L 24.3 95.4 L 21.5 95.4 L 21.5 86.3 L 17.1 86.3 L 17.1 95.4 L 14.3 95.4 L 14.3 86.3 L 12.6 86.3 L 12.6 83.8 L 14.3 83.8 C 14.3 83.8 14.3 83.16 14.3 83.2 C 14.3 80.1 15.7 79.4 17.8 79.4 C 17.85 79.38 19.5 79.4 19.5 79.4 L 19.5 81.9 C 19.5 81.9 18.27 81.86 18.3 81.9 C 17.3 81.9 17.1 82.3 17.1 83 C 17.09 83.03 17.1 83.8 17.1 83.8 L 21.5 83.8 C 21.5 83.8 21.52 83.16 21.5 83.2 C 21.5 80.1 22.9 79.4 25.1 79.4 C 25.07 79.38 26.8 79.4 26.8 79.4 L 26.8 81.9 C 26.8 81.9 25.49 81.86 25.5 81.9 C 24.5 81.9 24.3 82.3 24.3 83 Z M 34.7 86.4 C 34.7 86.4 33.94 86.37 33.9 86.4 C 32 86.4 30.9 87.4 30.9 89.7 C 30.91 89.71 30.9 95.4 30.9 95.4 L 28.1 95.4 L 28.1 83.8 L 30.9 83.8 C 30.9 83.8 30.89 85.45 30.9 85.4 C 31.5 84.2 32.5 83.7 33.9 83.7 C 33.91 83.66 34.7 83.7 34.7 83.7 L 34.7 86.4 Z M 37.8 90.4 C 37.9 92.3 39.2 93.2 40.8 93.2 C 41.9 93.2 42.9 92.8 43.3 91.7 C 43.3 91.7 45.8 91.7 45.8 91.7 C 45.3 94.3 43 95.6 40.7 95.6 C 37.9 95.6 35.1 93.7 35.1 89.6 C 35.1 85.6 37.7 83.6 40.7 83.6 C 43.5 83.6 45.9 85.4 45.9 89.3 C 45.86 89.29 45.9 90.4 45.9 90.4 C 45.9 90.4 37.8 90.43 37.8 90.4 Z M 37.9 88.4 C 37.9 88.4 43.1 88.4 43.1 88.4 C 43.1 86.9 42.1 86 40.6 86 C 39.4 86 38.1 86.7 37.9 88.4 Z M 58 87.9 C 58.04 87.91 58 95.4 58 95.4 L 55.3 95.4 C 55.3 95.4 55.25 88.16 55.3 88.2 C 55.3 86.9 54.5 86.1 53.2 86.1 C 51.6 86.1 50.7 87.2 50.7 89.1 C 50.65 89.12 50.7 95.4 50.7 95.4 L 47.9 95.4 L 47.9 83.8 L 50.6 83.8 C 50.6 83.8 50.63 85.47 50.6 85.5 C 51.3 84.4 52.2 83.6 54.2 83.6 C 56.8 83.6 58 85.1 58 87.9 Z M 66.6 95.4 C 66.6 95.4 64.76 95.38 64.8 95.4 C 62.6 95.4 61.2 94.7 61.2 91.6 C 61.21 91.6 61.2 86.3 61.2 86.3 L 59.1 86.3 L 59.1 83.8 L 61.2 83.8 L 61.2 81.2 L 64 80.4 L 64 83.8 L 66.3 83.8 L 66.3 86.3 L 64 86.3 C 64 86.3 64.01 91.73 64 91.7 C 64 92.4 64.2 92.9 65.2 92.9 C 65.18 92.9 66.6 92.9 66.6 92.9 L 66.6 95.4 Z M 74.3 87.5 L 67.9 87.5 L 67.9 90 L 74.3 90 L 74.3 87.5 Z M 78.7 90.4 C 78.8 92.3 80.1 93.2 81.7 93.2 C 82.8 93.2 83.8 92.8 84.2 91.7 C 84.2 91.7 86.7 91.7 86.7 91.7 C 86.2 94.3 83.9 95.6 81.6 95.6 C 78.8 95.6 76 93.7 76 89.6 C 76 85.6 78.6 83.6 81.6 83.6 C 84.4 83.6 86.8 85.4 86.8 89.3 C 86.77 89.29 86.8 90.4 86.8 90.4 C 86.8 90.4 78.71 90.43 78.7 90.4 Z M 78.8 88.4 C 78.8 88.4 84 88.4 84 88.4 C 84 86.9 83 86 81.5 86 C 80.3 86 79 86.7 78.8 88.4 Z M 91.6 95.4 L 88.8 95.4 L 88.8 79.4 L 91.6 79.4 L 91.6 95.4 Z M 97.1 95.4 L 94.3 95.4 L 94.3 79.4 L 97.1 79.4 L 97.1 95.4 Z M 101.8 90.4 C 101.8 92.3 103.2 93.2 104.8 93.2 C 105.9 93.2 106.9 92.8 107.2 91.7 C 107.2 91.7 109.8 91.7 109.8 91.7 C 109.3 94.3 107 95.6 104.6 95.6 C 101.8 95.6 99.1 93.7 99.1 89.6 C 99.1 85.6 101.7 83.6 104.7 83.6 C 107.5 83.6 109.8 85.4 109.8 89.3 C 109.85 89.29 109.8 90.4 109.8 90.4 C 109.8 90.4 101.79 90.43 101.8 90.4 Z M 101.8 88.4 C 101.8 88.4 107.1 88.4 107.1 88.4 C 107.1 86.9 106 86 104.6 86 C 103.3 86 102.1 86.7 101.8 88.4 Z M 121.1 91.8 C 121.1 94.4 118.8 95.6 116.2 95.6 C 113.8 95.6 111.2 94.6 111 91.7 C 111 91.7 113.8 91.7 113.8 91.7 C 114 92.8 115 93.3 116.3 93.3 C 117.5 93.3 118.4 92.9 118.4 92.1 C 118.4 91.3 117.8 91.2 116.2 90.9 C 113.9 90.5 111.4 90.1 111.4 87.3 C 111.4 84.7 113.6 83.6 116 83.6 C 118.7 83.6 120.7 84.9 120.8 87.5 C 120.8 87.5 118.1 87.5 118.1 87.5 C 118 86.4 117.2 85.9 116 85.9 C 114.6 85.9 114.1 86.5 114.1 87.2 C 114.1 88.1 115.1 88.3 116.5 88.5 C 118.6 88.8 121.1 89.1 121.1 91.8 Z M 138.4 95.4 L 135.7 95.4 C 135.7 95.4 135.66 93.74 135.7 93.7 C 135 94.8 133.9 95.5 132.3 95.5 C 129.9 95.5 128.1 94 128.1 91 C 128.14 90.99 128.1 83.8 128.1 83.8 L 130.9 83.8 C 130.9 83.8 130.93 90.78 130.9 90.8 C 130.9 92.4 131.7 93 132.9 93 C 134.5 93 135.6 92.1 135.6 89.4 C 135.6 89.4 135.6 83.8 135.6 83.8 L 138.4 83.8 L 138.4 95.4 Z M 151.3 87.9 C 151.3 87.91 151.3 95.4 151.3 95.4 L 148.5 95.4 C 148.5 95.4 148.51 88.16 148.5 88.2 C 148.5 86.9 147.8 86.1 146.5 86.1 C 144.9 86.1 143.9 87.2 143.9 89.1 C 143.91 89.12 143.9 95.4 143.9 95.4 L 141.1 95.4 L 141.1 83.8 L 143.9 83.8 C 143.9 83.8 143.89 85.47 143.9 85.5 C 144.5 84.4 145.5 83.6 147.4 83.6 C 150.1 83.6 151.3 85.1 151.3 87.9 Z M 171 89.4 C 171 93.6 168.4 95.5 165.7 95.5 C 164.1 95.5 163 94.8 162.4 94 C 162.39 94 162.4 99.7 162.4 99.7 L 159.6 99.7 L 159.6 83.8 L 162.3 83.8 C 162.3 83.8 162.33 85.64 162.3 85.6 C 162.9 84.4 164.2 83.6 165.9 83.6 C 168.6 83.6 171 85.5 171 89.4 Z M 168.1 89.6 C 168.1 87.2 166.8 86.1 165.2 86.1 C 163.7 86.1 162.3 87.2 162.3 89.6 C 162.3 91.9 163.7 93 165.2 93 C 166.8 93 168.1 91.9 168.1 89.6 Z M 179.5 86.4 C 179.5 86.4 178.79 86.37 178.8 86.4 C 176.8 86.4 175.8 87.4 175.8 89.7 C 175.77 89.71 175.8 95.4 175.8 95.4 L 173 95.4 L 173 83.8 L 175.7 83.8 C 175.7 83.8 175.75 85.45 175.7 85.4 C 176.3 84.2 177.4 83.7 178.8 83.7 C 178.77 83.66 179.5 83.7 179.5 83.7 L 179.5 86.4 Z M 191.3 89.6 C 191.3 93.4 188.9 95.6 185.6 95.6 C 182.4 95.6 179.9 93.4 179.9 89.6 C 179.9 85.8 182.4 83.6 185.6 83.6 C 188.9 83.6 191.3 85.8 191.3 89.6 Z M 182.8 89.6 C 182.8 91.9 184.1 93 185.6 93 C 187.3 93 188.4 91.8 188.4 89.6 C 188.4 87.3 187.1 86.2 185.6 86.2 C 183.9 86.2 182.8 87.4 182.8 89.6 Z M 200.8 95.4 L 200.8 86.3 L 196.4 86.3 L 196.4 95.4 L 193.6 95.4 L 193.6 86.3 L 191.9 86.3 L 191.9 83.8 L 193.6 83.8 C 193.6 83.8 193.62 83.16 193.6 83.2 C 193.6 80.1 195 79.4 197.2 79.4 C 197.17 79.38 198.8 79.4 198.8 79.4 L 198.8 81.9 C 198.8 81.9 197.59 81.86 197.6 81.9 C 196.6 81.9 196.4 82.3 196.4 83 C 196.41 83.03 196.4 83.8 196.4 83.8 L 203.6 83.8 L 203.6 95.4 L 200.8 95.4 Z M 209.1 95.4 L 206.3 95.4 L 206.3 79.4 L 209.1 79.4 L 209.1 95.4 Z M 224 86.4 C 224 86.4 223.27 86.37 223.3 86.4 C 221.3 86.4 220.2 87.4 220.2 89.7 C 220.24 89.71 220.2 95.4 220.2 95.4 L 217.5 95.4 L 217.5 83.8 L 220.2 83.8 C 220.2 83.8 220.22 85.45 220.2 85.4 C 220.8 84.2 221.9 83.7 223.2 83.7 C 223.25 83.66 224 83.7 224 83.7 L 224 86.4 Z M 225.3 82.3 L 228.2 82.3 L 228.2 79.1 L 225.3 79.1 L 225.3 82.3 Z M 225.3 83.8 L 228.1 83.8 L 228.1 95.4 L 225.3 95.4 L 225.3 83.8 Z M 240.1 91.8 C 240.1 94.4 237.8 95.6 235.2 95.6 C 232.8 95.6 230.2 94.6 230 91.7 C 230 91.7 232.8 91.7 232.8 91.7 C 233 92.8 234 93.3 235.3 93.3 C 236.5 93.3 237.4 92.9 237.4 92.1 C 237.4 91.3 236.8 91.2 235.2 90.9 C 232.9 90.5 230.4 90.1 230.4 87.3 C 230.4 84.7 232.6 83.6 235 83.6 C 237.7 83.6 239.7 84.9 239.8 87.5 C 239.8 87.5 237.1 87.5 237.1 87.5 C 237 86.4 236.2 85.9 235 85.9 C 233.6 85.9 233.1 86.5 233.1 87.2 C 233.1 88.1 234.1 88.3 235.5 88.5 C 237.6 88.8 240.1 89.1 240.1 91.8 Z M 252.6 83.8 L 252.6 99.7 L 249.9 99.7 C 249.9 99.7 249.85 93.66 249.9 93.7 C 249.2 94.8 248 95.5 246.4 95.5 C 243.7 95.5 241.3 93.6 241.3 89.5 C 241.3 85.5 243.6 83.6 246.3 83.6 C 247.9 83.6 249.2 84.2 249.9 85.4 C 249.92 85.43 249.9 83.8 249.9 83.8 L 252.6 83.8 Z M 249.9 89.5 C 249.9 87.1 248.5 86.1 247 86.1 C 245.5 86.1 244.1 87.1 244.1 89.5 C 244.1 91.8 245.5 92.9 247 92.9 C 248.5 92.9 249.9 91.9 249.9 89.5 Z M 265.4 95.4 L 262.7 95.4 C 262.7 95.4 262.68 93.74 262.7 93.7 C 262 94.8 261 95.5 259.3 95.5 C 256.9 95.5 255.2 94 255.2 91 C 255.17 90.99 255.2 83.8 255.2 83.8 L 258 83.8 C 258 83.8 257.96 90.78 258 90.8 C 258 92.4 258.7 93 259.9 93 C 261.5 93 262.6 92.1 262.6 89.4 C 262.62 89.4 262.6 83.8 262.6 83.8 L 265.4 83.8 L 265.4 95.4 Z M 270.1 90.4 C 270.2 92.3 271.5 93.2 273.1 93.2 C 274.2 93.2 275.2 92.8 275.6 91.7 C 275.6 91.7 278.1 91.7 278.1 91.7 C 277.6 94.3 275.3 95.6 273 95.6 C 270.2 95.6 267.4 93.7 267.4 89.6 C 267.4 85.6 270 83.6 273 83.6 C 275.8 83.6 278.2 85.4 278.2 89.3 C 278.18 89.29 278.2 90.4 278.2 90.4 C 278.2 90.4 270.12 90.43 270.1 90.4 Z M 270.2 88.4 C 270.2 88.4 275.5 88.4 275.5 88.4 C 275.5 86.9 274.4 86 273 86 C 271.7 86 270.4 86.7 270.2 88.4 Z M 287.8 78 L 285.8 78 L 278.8 97.3 L 280.8 97.3 L 287.8 78 Z M 295.5 86.4 C 295.5 86.4 294.77 86.37 294.8 86.4 C 292.8 86.4 291.7 87.4 291.7 89.7 C 291.75 89.71 291.7 95.4 291.7 95.4 L 289 95.4 L 289 83.8 L 291.7 83.8 C 291.7 83.8 291.73 85.45 291.7 85.4 C 292.3 84.2 293.4 83.7 294.8 83.7 C 294.75 83.66 295.5 83.7 295.5 83.7 L 295.5 86.4 Z M 298.6 90.4 C 298.7 92.3 300 93.2 301.6 93.2 C 302.7 93.2 303.8 92.8 304.1 91.7 C 304.1 91.7 306.7 91.7 306.7 91.7 C 306.2 94.3 303.9 95.6 301.5 95.6 C 298.7 95.6 295.9 93.7 295.9 89.6 C 295.9 85.6 298.6 83.6 301.5 83.6 C 304.3 83.6 306.7 85.4 306.7 89.3 C 306.7 89.29 306.7 90.4 306.7 90.4 C 306.7 90.4 298.64 90.43 298.6 90.4 Z M 298.7 88.4 C 298.7 88.4 304 88.4 304 88.4 C 304 86.9 302.9 86 301.5 86 C 300.2 86 299 86.7 298.7 88.4 Z M 318.9 87.9 C 318.88 87.91 318.9 95.4 318.9 95.4 L 316.1 95.4 C 316.1 95.4 316.09 88.16 316.1 88.2 C 316.1 86.9 315.4 86.1 314.1 86.1 C 312.5 86.1 311.5 87.2 311.5 89.1 C 311.49 89.12 311.5 95.4 311.5 95.4 L 308.7 95.4 L 308.7 83.8 L 311.5 83.8 C 311.5 83.8 311.47 85.47 311.5 85.5 C 312.1 84.4 313.1 83.6 315 83.6 C 317.6 83.6 318.9 85.1 318.9 87.9 Z M 332.2 95.4 L 329.4 95.4 C 329.4 95.4 329.42 93.6 329.4 93.6 C 328.8 94.9 327.4 95.6 325.9 95.6 C 323.1 95.6 320.8 93.6 320.8 89.6 C 320.8 85.6 323.1 83.6 325.9 83.6 C 327.4 83.6 328.7 84.2 329.4 85.3 C 329.36 85.32 329.4 79.4 329.4 79.4 L 332.2 79.4 L 332.2 95.4 Z M 329.4 89.6 C 329.4 87.2 328 86.1 326.5 86.1 C 325 86.1 323.6 87.2 323.6 89.6 C 323.6 91.9 325 93.1 326.5 93.1 C 328 93.1 329.4 91.9 329.4 89.6 Z M 336.9 90.4 C 336.9 92.3 338.3 93.2 339.8 93.2 C 340.9 93.2 342 92.8 342.3 91.7 C 342.3 91.7 344.9 91.7 344.9 91.7 C 344.4 94.3 342.1 95.6 339.7 95.6 C 336.9 95.6 334.1 93.7 334.1 89.6 C 334.1 85.6 336.8 83.6 339.7 83.6 C 342.5 83.6 344.9 85.4 344.9 89.3 C 344.92 89.29 344.9 90.4 344.9 90.4 C 344.9 90.4 336.86 90.43 336.9 90.4 Z M 336.9 88.4 C 336.9 88.4 342.2 88.4 342.2 88.4 C 342.2 86.9 341.1 86 339.7 86 C 338.4 86 337.2 86.7 336.9 88.4 Z M 363.3 87.6 C 363.27 87.57 363.3 95.4 363.3 95.4 L 360.5 95.4 C 360.5 95.4 360.48 88.12 360.5 88.1 C 360.5 86.7 359.8 86.1 358.7 86.1 C 357.4 86.1 356.5 86.9 356.5 88.9 C 356.49 88.87 356.5 95.4 356.5 95.4 L 353.7 95.4 C 353.7 95.4 353.7 88.12 353.7 88.1 C 353.7 86.7 353 86.1 351.9 86.1 C 350.6 86.1 349.7 86.9 349.7 88.9 C 349.71 88.85 349.7 95.4 349.7 95.4 L 346.9 95.4 L 346.9 83.8 L 349.7 83.8 C 349.7 83.8 349.67 85.49 349.7 85.5 C 350 84.6 350.9 83.6 352.7 83.6 C 354.2 83.6 355.3 84.3 355.9 85.5 C 356.3 84.7 357.1 83.6 359.2 83.6 C 361.7 83.6 363.3 85.1 363.3 87.6 Z M 367.9 90.4 C 367.9 92.3 369.3 93.2 370.9 93.2 C 371.9 93.2 373 92.8 373.3 91.7 C 373.3 91.7 375.9 91.7 375.9 91.7 C 375.4 94.3 373.1 95.6 370.7 95.6 C 367.9 95.6 365.2 93.7 365.2 89.6 C 365.2 85.6 367.8 83.6 370.8 83.6 C 373.6 83.6 375.9 85.4 375.9 89.3 C 375.94 89.29 375.9 90.4 375.9 90.4 C 375.9 90.4 367.87 90.43 367.9 90.4 Z M 367.9 88.4 C 367.9 88.4 373.2 88.4 373.2 88.4 C 373.2 86.9 372.1 86 370.7 86 C 369.4 86 368.2 86.7 367.9 88.4 Z M 388.1 87.9 C 388.12 87.91 388.1 95.4 388.1 95.4 L 385.3 95.4 C 385.3 95.4 385.32 88.16 385.3 88.2 C 385.3 86.9 384.6 86.1 383.3 86.1 C 381.7 86.1 380.7 87.2 380.7 89.1 C 380.73 89.12 380.7 95.4 380.7 95.4 L 377.9 95.4 L 377.9 83.8 L 380.7 83.8 C 380.7 83.8 380.7 85.47 380.7 85.5 C 381.4 84.4 382.3 83.6 384.2 83.6 C 386.9 83.6 388.1 85.1 388.1 87.9 Z M 396.7 95.4 C 396.7 95.4 394.84 95.38 394.8 95.4 C 392.7 95.4 391.3 94.7 391.3 91.6 C 391.29 91.6 391.3 86.3 391.3 86.3 L 389.2 86.3 L 389.2 83.8 L 391.3 83.8 L 391.3 81.2 L 394.1 80.4 L 394.1 83.8 L 396.4 83.8 L 396.4 86.3 L 394.1 86.3 C 394.1 86.3 394.08 91.73 394.1 91.7 C 394.1 92.4 394.3 92.9 395.3 92.9 C 395.26 92.9 396.7 92.9 396.7 92.9 L 396.7 95.4 Z " stroke="none" fill="#000"/>  </g>  <g id="Polygon11249">    <path d="M 12 70.2 L 9.3 70.2 C 9.3 70.2 9.28 68.4 9.3 68.4 C 8.7 69.7 7.3 70.4 5.7 70.4 C 3 70.4 0.6 68.4 0.6 64.4 C 0.6 60.4 3 58.4 5.7 58.4 C 7.2 58.4 8.5 59 9.2 60.1 C 9.22 60.12 9.2 54.2 9.2 54.2 L 12 54.2 L 12 70.2 Z M 9.3 64.4 C 9.3 62 7.9 60.9 6.4 60.9 C 4.9 60.9 3.5 62 3.5 64.4 C 3.5 66.7 4.9 67.9 6.4 67.9 C 7.9 67.9 9.3 66.7 9.3 64.4 Z M 16.7 65.2 C 16.8 67.1 18.1 68 19.7 68 C 20.8 68 21.8 67.6 22.2 66.5 C 22.2 66.5 24.7 66.5 24.7 66.5 C 24.2 69.1 21.9 70.4 19.6 70.4 C 16.8 70.4 14 68.5 14 64.4 C 14 60.4 16.6 58.4 19.6 58.4 C 22.4 58.4 24.8 60.2 24.8 64.1 C 24.78 64.09 24.8 65.2 24.8 65.2 C 24.8 65.2 16.72 65.23 16.7 65.2 Z M 16.8 63.2 C 16.8 63.2 22 63.2 22 63.2 C 22 61.7 21 60.8 19.6 60.8 C 18.3 60.8 17 61.5 16.8 63.2 Z M 37.5 70.2 L 34.5 70.2 L 30.2 58.6 L 33.2 58.6 L 36 66.9 L 38.9 58.6 L 41.8 58.6 L 37.5 70.2 Z M 52.2 62.4 C 52.21 62.39 52.2 70.2 52.2 70.2 L 49.5 70.2 C 49.5 70.2 49.48 68.5 49.5 68.5 C 48.6 70 47.2 70.4 46 70.4 C 44.1 70.4 42.2 69.3 42.2 66.8 C 42.2 65 43.2 63.8 45.9 63.4 C 45.9 63.4 48.4 63 48.4 63 C 49.1 62.9 49.6 62.7 49.6 62 C 49.6 61 48.7 60.6 47.6 60.6 C 46.1 60.6 45.5 61.3 45.4 62.3 C 45.4 62.3 42.7 62.3 42.7 62.3 C 43 59.6 45.1 58.4 47.8 58.4 C 50.5 58.4 52.2 59.7 52.2 62.4 Z M 49.5 65.3 C 49.5 65.3 49.5 64.7 49.5 64.7 C 49.2 64.8 48.7 65 48.1 65 C 48.1 65 46.9 65.2 46.9 65.2 C 45.5 65.4 45 66 45 66.7 C 45 67.6 45.7 68.1 46.6 68.1 C 48.1 68.1 49.5 67 49.5 65.3 Z M 65.2 69.4 C 65.2 73.1 62.8 74.8 59.6 74.8 C 56.8 74.8 54.5 73.4 54.2 70.5 C 54.2 70.5 56.9 70.5 56.9 70.5 C 57.2 72 58.3 72.4 59.6 72.4 C 61.4 72.4 62.5 71.5 62.5 69.7 C 62.5 69.7 62.5 67.8 62.5 67.8 C 61.9 69 60.8 69.8 59.1 69.8 C 56.4 69.8 54 68 54 64.1 C 54 60.2 56.4 58.4 59.1 58.4 C 60.7 58.4 61.9 59.1 62.5 60.2 C 62.47 60.21 62.5 58.6 62.5 58.6 L 65.2 58.6 C 65.2 58.6 65.16 69.4 65.2 69.4 Z M 62.4 64.1 C 62.4 61.9 61.2 60.8 59.6 60.8 C 58.1 60.8 56.7 61.9 56.7 64.1 C 56.7 66.3 58.1 67.3 59.6 67.3 C 61.2 67.3 62.4 66.3 62.4 64.1 Z M 77.9 70.2 L 75.2 70.2 C 75.2 70.2 75.2 68.54 75.2 68.5 C 74.5 69.6 73.5 70.3 71.9 70.3 C 69.4 70.3 67.7 68.8 67.7 65.8 C 67.68 65.79 67.7 58.6 67.7 58.6 L 70.5 58.6 C 70.5 58.6 70.48 65.58 70.5 65.6 C 70.5 67.2 71.3 67.8 72.4 67.8 C 74 67.8 75.1 66.9 75.1 64.2 C 75.14 64.2 75.1 58.6 75.1 58.6 L 77.9 58.6 L 77.9 70.2 Z M 82.6 65.2 C 82.7 67.1 84 68 85.6 68 C 86.7 68 87.8 67.6 88.1 66.5 C 88.1 66.5 90.7 66.5 90.7 66.5 C 90.2 69.1 87.9 70.4 85.5 70.4 C 82.7 70.4 79.9 68.5 79.9 64.4 C 79.9 60.4 82.6 58.4 85.5 58.4 C 88.3 58.4 90.7 60.2 90.7 64.1 C 90.7 64.09 90.7 65.2 90.7 65.2 C 90.7 65.2 82.63 65.23 82.6 65.2 Z M 82.7 63.2 C 82.7 63.2 88 63.2 88 63.2 C 88 61.7 86.9 60.8 85.5 60.8 C 84.2 60.8 82.9 61.5 82.7 63.2 Z M 108.2 70.2 L 105.4 70.2 C 105.4 70.2 105.44 68.4 105.4 68.4 C 104.8 69.7 103.5 70.4 101.9 70.4 C 99.2 70.4 96.8 68.4 96.8 64.4 C 96.8 60.4 99.2 58.4 101.9 58.4 C 103.4 58.4 104.7 59 105.4 60.1 C 105.38 60.12 105.4 54.2 105.4 54.2 L 108.2 54.2 L 108.2 70.2 Z M 105.5 64.4 C 105.5 62 104 60.9 102.5 60.9 C 101 60.9 99.6 62 99.6 64.4 C 99.6 66.7 101 67.9 102.5 67.9 C 104 67.9 105.5 66.7 105.5 64.4 Z M 112.9 65.2 C 112.9 67.1 114.3 68 115.9 68 C 116.9 68 118 67.6 118.3 66.5 C 118.3 66.5 120.9 66.5 120.9 66.5 C 120.4 69.1 118.1 70.4 115.7 70.4 C 112.9 70.4 110.2 68.5 110.2 64.4 C 110.2 60.4 112.8 58.4 115.8 58.4 C 118.6 58.4 120.9 60.2 120.9 64.1 C 120.94 64.09 120.9 65.2 120.9 65.2 C 120.9 65.2 112.87 65.23 112.9 65.2 Z M 112.9 63.2 C 112.9 63.2 118.2 63.2 118.2 63.2 C 118.2 61.7 117.1 60.8 115.7 60.8 C 114.4 60.8 113.2 61.5 112.9 63.2 Z M 138.4 70.2 L 135.7 70.2 C 135.7 70.2 135.68 68.4 135.7 68.4 C 135.1 69.7 133.7 70.4 132.1 70.4 C 129.4 70.4 127 68.4 127 64.4 C 127 60.4 129.4 58.4 132.1 58.4 C 133.6 58.4 134.9 59 135.6 60.1 C 135.62 60.12 135.6 54.2 135.6 54.2 L 138.4 54.2 L 138.4 70.2 Z M 135.7 64.4 C 135.7 62 134.3 60.9 132.8 60.9 C 131.2 60.9 129.9 62 129.9 64.4 C 129.9 66.7 131.2 67.9 132.8 67.9 C 134.3 67.9 135.7 66.7 135.7 64.4 Z M 144.8 56.5 L 147.9 51.5 L 150.1 53.2 L 147.1 56.5 L 144.8 56.5 Z M 143.1 65.2 C 143.2 67.1 144.5 68 146.1 68 C 147.2 68 148.2 67.6 148.6 66.5 C 148.6 66.5 151.1 66.5 151.1 66.5 C 150.6 69.1 148.3 70.4 146 70.4 C 143.2 70.4 140.4 68.5 140.4 64.4 C 140.4 60.4 143 58.4 146 58.4 C 148.8 58.4 151.2 60.2 151.2 64.1 C 151.18 64.09 151.2 65.2 151.2 65.2 C 151.2 65.2 143.11 65.23 143.1 65.2 Z M 143.2 63.2 C 143.2 63.2 148.4 63.2 148.4 63.2 C 148.4 61.7 147.4 60.8 145.9 60.8 C 144.7 60.8 143.4 61.5 143.2 63.2 Z M 157.5 56.7 C 156.5 56.7 156.3 57.1 156.3 57.8 C 156.32 57.83 156.3 58.6 156.3 58.6 L 158.5 58.6 L 158.5 61.1 L 156.3 61.1 L 156.3 70.2 L 153.5 70.2 L 153.5 61.1 L 151.8 61.1 L 151.8 58.6 L 153.5 58.6 C 153.5 58.6 153.53 57.96 153.5 58 C 153.5 54.9 154.9 54.2 157.1 54.2 C 157.08 54.18 158.8 54.2 158.8 54.2 L 158.8 56.7 C 158.8 56.7 157.5 56.66 157.5 56.7 Z M 169.4 62.4 C 169.39 62.39 169.4 70.2 169.4 70.2 L 166.7 70.2 C 166.7 70.2 166.66 68.5 166.7 68.5 C 165.8 70 164.4 70.4 163.1 70.4 C 161.3 70.4 159.4 69.3 159.4 66.8 C 159.4 65 160.4 63.8 163.1 63.4 C 163.1 63.4 165.6 63 165.6 63 C 166.3 62.9 166.8 62.7 166.8 62 C 166.8 61 165.9 60.6 164.8 60.6 C 163.3 60.6 162.6 61.3 162.5 62.3 C 162.5 62.3 159.9 62.3 159.9 62.3 C 160.1 59.6 162.3 58.4 164.9 58.4 C 167.7 58.4 169.4 59.7 169.4 62.4 Z M 166.7 65.3 C 166.7 65.3 166.7 64.7 166.7 64.7 C 166.4 64.8 165.9 65 165.3 65 C 165.3 65 164.1 65.2 164.1 65.2 C 162.6 65.4 162.2 66 162.2 66.7 C 162.2 67.6 162.8 68.1 163.8 68.1 C 165.2 68.1 166.7 67 166.7 65.3 Z M 182 70.2 L 179.3 70.2 C 179.3 70.2 179.32 68.54 179.3 68.5 C 178.6 69.6 177.6 70.3 176 70.3 C 173.6 70.3 171.8 68.8 171.8 65.8 C 171.8 65.79 171.8 58.6 171.8 58.6 L 174.6 58.6 C 174.6 58.6 174.59 65.58 174.6 65.6 C 174.6 67.2 175.4 67.8 176.6 67.8 C 178.1 67.8 179.3 66.9 179.3 64.2 C 179.26 64.2 179.3 58.6 179.3 58.6 L 182 58.6 L 182 70.2 Z M 190.7 70.2 C 190.7 70.2 188.87 70.18 188.9 70.2 C 186.7 70.2 185.3 69.5 185.3 66.4 C 185.32 66.4 185.3 61.1 185.3 61.1 L 183.2 61.1 L 183.2 58.6 L 185.3 58.6 L 185.3 56 L 188.1 55.2 L 188.1 58.6 L 190.4 58.6 L 190.4 61.1 L 188.1 61.1 C 188.1 61.1 188.12 66.53 188.1 66.5 C 188.1 67.2 188.3 67.7 189.3 67.7 C 189.29 67.7 190.7 67.7 190.7 67.7 L 190.7 70.2 Z M 201.5 66.6 C 201.5 69.2 199.2 70.4 196.6 70.4 C 194.2 70.4 191.6 69.4 191.4 66.5 C 191.4 66.5 194.2 66.5 194.2 66.5 C 194.4 67.6 195.5 68.1 196.8 68.1 C 197.9 68.1 198.8 67.7 198.8 66.9 C 198.8 66.1 198.2 66 196.6 65.7 C 194.4 65.3 191.8 64.9 191.8 62.1 C 191.8 59.5 194 58.4 196.4 58.4 C 199.1 58.4 201.1 59.7 201.3 62.3 C 201.3 62.3 198.5 62.3 198.5 62.3 C 198.4 61.2 197.6 60.7 196.4 60.7 C 195 60.7 194.5 61.3 194.5 62 C 194.5 62.9 195.5 63.1 196.9 63.3 C 199 63.6 201.5 63.9 201.5 66.6 Z M 204.9 70 C 204.92 69.99 203.5 70 203.5 70 L 203.5 67.1 L 206.7 67.1 C 206.7 67.1 206.7 69.59 206.7 69.6 C 206.7 72.6 204.6 73.7 202.8 73.9 C 202.8 73.9 202.5 72.4 202.5 72.4 C 204 72.2 204.9 71.3 204.9 70 Z M 218.2 70.4 C 214.4 70.4 212.6 67.5 212.6 64.4 C 212.6 61.3 214.4 58.4 218.2 58.4 C 221 58.4 223.2 60 223.3 62.8 C 223.3 62.8 220.6 62.8 220.6 62.8 C 220.4 61.7 219.6 60.9 218.3 60.9 C 216.2 60.9 215.4 62.6 215.4 64.4 C 215.4 66.3 216.3 67.8 218.3 67.8 C 219.6 67.8 220.4 67.1 220.6 66.1 C 220.6 66.1 223.4 66.1 223.4 66.1 C 223 68.9 221 70.4 218.2 70.4 Z M 227.4 65.2 C 227.4 67.1 228.8 68 230.3 68 C 231.4 68 232.5 67.6 232.8 66.5 C 232.8 66.5 235.4 66.5 235.4 66.5 C 234.9 69.1 232.6 70.4 230.2 70.4 C 227.4 70.4 224.7 68.5 224.7 64.4 C 224.7 60.4 227.3 58.4 230.2 58.4 C 233.1 58.4 235.4 60.2 235.4 64.1 C 235.43 64.09 235.4 65.2 235.4 65.2 C 235.4 65.2 227.37 65.23 227.4 65.2 Z M 227.4 63.2 C 227.4 63.2 232.7 63.2 232.7 63.2 C 232.7 61.7 231.6 60.8 230.2 60.8 C 228.9 60.8 227.7 61.5 227.4 63.2 Z M 246.7 66.6 C 246.7 69.2 244.4 70.4 241.8 70.4 C 239.4 70.4 236.8 69.4 236.6 66.5 C 236.6 66.5 239.4 66.5 239.4 66.5 C 239.6 67.6 240.6 68.1 241.9 68.1 C 243.1 68.1 243.9 67.7 243.9 66.9 C 243.9 66.1 243.4 66 241.8 65.7 C 239.5 65.3 236.9 64.9 236.9 62.1 C 236.9 59.5 239.1 58.4 241.5 58.4 C 244.2 58.4 246.2 59.7 246.4 62.3 C 246.4 62.3 243.7 62.3 243.7 62.3 C 243.6 61.2 242.8 60.7 241.6 60.7 C 240.2 60.7 239.7 61.3 239.7 62 C 239.7 62.9 240.7 63.1 242.1 63.3 C 244.2 63.6 246.7 63.9 246.7 66.6 Z M 264 64.4 C 264 68.2 261.6 70.4 258.3 70.4 C 255.1 70.4 252.7 68.2 252.7 64.4 C 252.7 60.6 255.1 58.4 258.3 58.4 C 261.6 58.4 264 60.6 264 64.4 Z M 255.5 64.4 C 255.5 66.7 256.8 67.8 258.4 67.8 C 260 67.8 261.1 66.6 261.1 64.4 C 261.1 62.1 259.9 61 258.3 61 C 256.6 61 255.5 62.2 255.5 64.4 Z M 277.4 64.4 C 277.4 68.5 274.9 70.4 272.2 70.4 C 270.7 70.4 269.4 69.9 268.7 68.8 C 268.71 68.8 268.7 70.2 268.7 70.2 L 266 70.2 L 266 54.2 L 268.8 54.2 C 268.8 54.2 268.78 60.29 268.8 60.3 C 269.4 59.1 270.8 58.4 272.3 58.4 C 275 58.4 277.4 60.4 277.4 64.4 Z M 274.5 64.4 C 274.5 62.1 273.1 60.9 271.6 60.9 C 270.1 60.9 268.7 62.1 268.7 64.4 C 268.7 66.8 270.1 68 271.6 68 C 273.1 68 274.5 66.8 274.5 64.4 Z M 282.2 70.2 L 279.4 70.2 L 279.4 54.2 L 282.2 54.2 L 282.2 70.2 Z M 284.8 57.1 L 287.7 57.1 L 287.7 53.9 L 284.8 53.9 L 284.8 57.1 Z M 284.9 58.6 L 287.7 58.6 L 287.7 70.2 L 284.9 70.2 L 284.9 58.6 Z M 300.8 69.4 C 300.8 73.1 298.4 74.8 295.3 74.8 C 292.5 74.8 290.1 73.4 289.8 70.5 C 289.8 70.5 292.5 70.5 292.5 70.5 C 292.8 72 294 72.4 295.3 72.4 C 297.1 72.4 298.1 71.5 298.1 69.7 C 298.1 69.7 298.1 67.8 298.1 67.8 C 297.6 69 296.5 69.8 294.7 69.8 C 292.1 69.8 289.6 68 289.6 64.1 C 289.6 60.2 292.1 58.4 294.7 58.4 C 296.3 58.4 297.5 59.1 298.1 60.2 C 298.11 60.21 298.1 58.6 298.1 58.6 L 300.8 58.6 C 300.8 58.6 300.8 69.4 300.8 69.4 Z M 298 64.1 C 298 61.9 296.8 60.8 295.3 60.8 C 293.7 60.8 292.4 61.9 292.4 64.1 C 292.4 66.3 293.7 67.3 295.3 67.3 C 296.8 67.3 298 66.3 298 64.1 Z M 312.7 62.4 C 312.69 62.39 312.7 70.2 312.7 70.2 L 310 70.2 C 310 70.2 309.96 68.5 310 68.5 C 309.1 70 307.7 70.4 306.5 70.4 C 304.6 70.4 302.7 69.3 302.7 66.8 C 302.7 65 303.7 63.8 306.4 63.4 C 306.4 63.4 308.9 63 308.9 63 C 309.6 62.9 310.1 62.7 310.1 62 C 310.1 61 309.2 60.6 308.1 60.6 C 306.6 60.6 305.9 61.3 305.8 62.3 C 305.8 62.3 303.2 62.3 303.2 62.3 C 303.4 59.6 305.6 58.4 308.2 58.4 C 311 58.4 312.7 59.7 312.7 62.4 Z M 310 65.3 C 310 65.3 310 64.7 310 64.7 C 309.7 64.8 309.2 65 308.6 65 C 308.6 65 307.4 65.2 307.4 65.2 C 305.9 65.4 305.5 66 305.5 66.7 C 305.5 67.6 306.1 68.1 307.1 68.1 C 308.6 68.1 310 67 310 65.3 Z M 321.1 70.2 C 321.1 70.2 319.3 70.18 319.3 70.2 C 317.1 70.2 315.8 69.5 315.8 66.4 C 315.75 66.4 315.8 61.1 315.8 61.1 L 313.6 61.1 L 313.6 58.6 L 315.8 58.6 L 315.8 56 L 318.5 55.2 L 318.5 58.6 L 320.9 58.6 L 320.9 61.1 L 318.5 61.1 C 318.5 61.1 318.55 66.53 318.5 66.5 C 318.5 67.2 318.7 67.7 319.7 67.7 C 319.72 67.7 321.1 67.7 321.1 67.7 L 321.1 70.2 Z M 322.6 57.1 L 325.6 57.1 L 325.6 53.9 L 322.6 53.9 L 322.6 57.1 Z M 322.7 58.6 L 325.5 58.6 L 325.5 70.2 L 322.7 70.2 L 322.7 58.6 Z M 338.8 64.4 C 338.8 68.2 336.4 70.4 333.1 70.4 C 329.9 70.4 327.5 68.2 327.5 64.4 C 327.5 60.6 329.9 58.4 333.1 58.4 C 336.4 58.4 338.8 60.6 338.8 64.4 Z M 330.3 64.4 C 330.3 66.7 331.6 67.8 333.1 67.8 C 334.8 67.8 335.9 66.6 335.9 64.4 C 335.9 62.1 334.6 61 333.1 61 C 331.4 61 330.3 62.2 330.3 64.4 Z M 350.9 62.7 C 350.95 62.71 350.9 70.2 350.9 70.2 L 348.2 70.2 C 348.2 70.2 348.16 62.96 348.2 63 C 348.2 61.7 347.4 60.9 346.1 60.9 C 344.5 60.9 343.6 62 343.6 63.9 C 343.56 63.92 343.6 70.2 343.6 70.2 L 340.8 70.2 L 340.8 58.6 L 343.5 58.6 C 343.5 58.6 343.54 60.27 343.5 60.3 C 344.2 59.2 345.1 58.4 347.1 58.4 C 349.7 58.4 350.9 59.9 350.9 62.7 Z M 362.8 66.6 C 362.8 69.2 360.5 70.4 357.9 70.4 C 355.5 70.4 352.9 69.4 352.7 66.5 C 352.7 66.5 355.5 66.5 355.5 66.5 C 355.7 67.6 356.8 68.1 358.1 68.1 C 359.2 68.1 360.1 67.7 360.1 66.9 C 360.1 66.1 359.5 66 357.9 65.7 C 355.7 65.3 353.1 64.9 353.1 62.1 C 353.1 59.5 355.3 58.4 357.7 58.4 C 360.4 58.4 362.4 59.7 362.6 62.3 C 362.6 62.3 359.8 62.3 359.8 62.3 C 359.7 61.2 358.9 60.7 357.7 60.7 C 356.3 60.7 355.8 61.3 355.8 62 C 355.8 62.9 356.8 63.1 358.2 63.3 C 360.3 63.6 362.8 63.9 362.8 66.6 Z " stroke="none" fill="#000"/>  </g>  <g id="Polygon11248">    <path d="M 4.2 45 L 1.4 45 L 1.4 29 L 4.2 29 L 4.2 45 Z M 8.4 31.3 C 8.38 31.27 7 31.3 7 31.3 L 7 28.3 L 10.2 28.3 C 10.2 28.3 10.16 30.87 10.2 30.9 C 10.2 33.9 8.1 34.9 6.2 35.2 C 6.2 35.2 5.9 33.7 5.9 33.7 C 7.5 33.5 8.4 32.6 8.4 31.3 Z M 22.1 45 L 19.4 45 C 19.4 45 19.36 43.34 19.4 43.3 C 18.7 44.4 17.6 45.1 16 45.1 C 13.6 45.1 11.8 43.6 11.8 40.6 C 11.84 40.59 11.8 33.4 11.8 33.4 L 14.6 33.4 C 14.6 33.4 14.64 40.38 14.6 40.4 C 14.6 42 15.4 42.6 16.6 42.6 C 18.2 42.6 19.3 41.7 19.3 39 C 19.3 39 19.3 33.4 19.3 33.4 L 22.1 33.4 L 22.1 45 Z M 35 37.5 C 35.01 37.51 35 45 35 45 L 32.2 45 C 32.2 45 32.21 37.76 32.2 37.8 C 32.2 36.5 31.5 35.7 30.2 35.7 C 28.6 35.7 27.6 36.8 27.6 38.7 C 27.61 38.72 27.6 45 27.6 45 L 24.8 45 L 24.8 33.4 L 27.6 33.4 C 27.6 33.4 27.59 35.07 27.6 35.1 C 28.2 34 29.2 33.2 31.1 33.2 C 33.8 33.2 35 34.7 35 37.5 Z M 37.5 31.9 L 40.5 31.9 L 40.5 28.7 L 37.5 28.7 L 37.5 31.9 Z M 37.6 33.4 L 40.4 33.4 L 40.4 45 L 37.6 45 L 37.6 33.4 Z M 49 45 L 46 45 L 41.7 33.4 L 44.7 33.4 L 47.5 41.7 L 50.4 33.4 L 53.3 33.4 L 49 45 Z M 56.4 40 C 56.5 41.9 57.8 42.8 59.4 42.8 C 60.5 42.8 61.5 42.4 61.9 41.3 C 61.9 41.3 64.4 41.3 64.4 41.3 C 63.9 43.9 61.7 45.2 59.3 45.2 C 56.5 45.2 53.7 43.3 53.7 39.2 C 53.7 35.2 56.3 33.2 59.3 33.2 C 62.1 33.2 64.5 35 64.5 38.9 C 64.49 38.89 64.5 40 64.5 40 C 64.5 40 56.43 40.03 56.4 40 Z M 56.5 38 C 56.5 38 61.8 38 61.8 38 C 61.8 36.5 60.7 35.6 59.3 35.6 C 58 35.6 56.7 36.3 56.5 38 Z M 73 36 C 73 36 72.3 35.97 72.3 36 C 70.3 36 69.3 37 69.3 39.3 C 69.28 39.31 69.3 45 69.3 45 L 66.5 45 L 66.5 33.4 L 69.3 33.4 C 69.3 33.4 69.26 35.05 69.3 35 C 69.8 33.8 70.9 33.3 72.3 33.3 C 72.28 33.26 73 33.3 73 33.3 L 73 36 Z M 83.7 41.4 C 83.7 44 81.4 45.2 78.7 45.2 C 76.4 45.2 73.8 44.2 73.6 41.3 C 73.6 41.3 76.4 41.3 76.4 41.3 C 76.6 42.4 77.6 42.9 78.9 42.9 C 80.1 42.9 80.9 42.5 80.9 41.7 C 80.9 40.9 80.4 40.8 78.8 40.5 C 76.5 40.1 73.9 39.7 73.9 36.9 C 73.9 34.3 76.1 33.2 78.5 33.2 C 81.2 33.2 83.2 34.5 83.4 37.1 C 83.4 37.1 80.7 37.1 80.7 37.1 C 80.6 36 79.7 35.5 78.6 35.5 C 77.2 35.5 76.6 36.1 76.6 36.8 C 76.6 37.7 77.7 37.9 79.1 38.1 C 81.1 38.4 83.7 38.7 83.7 41.4 Z M 101 45 L 98.3 45 C 98.3 45 98.3 43.2 98.3 43.2 C 97.7 44.5 96.3 45.2 94.7 45.2 C 92 45.2 89.6 43.2 89.6 39.2 C 89.6 35.2 92 33.2 94.7 33.2 C 96.2 33.2 97.5 33.8 98.2 34.9 C 98.24 34.92 98.2 29 98.2 29 L 101 29 L 101 45 Z M 98.3 39.2 C 98.3 36.8 96.9 35.7 95.4 35.7 C 93.9 35.7 92.5 36.8 92.5 39.2 C 92.5 41.5 93.9 42.7 95.4 42.7 C 96.9 42.7 98.3 41.5 98.3 39.2 Z M 113.9 45 L 111.2 45 C 111.2 45 111.17 43.34 111.2 43.3 C 110.5 44.4 109.5 45.1 107.8 45.1 C 105.4 45.1 103.7 43.6 103.7 40.6 C 103.65 40.59 103.7 33.4 103.7 33.4 L 106.4 33.4 C 106.4 33.4 106.45 40.38 106.4 40.4 C 106.4 42 107.2 42.6 108.4 42.6 C 110 42.6 111.1 41.7 111.1 39 C 111.11 39 111.1 33.4 111.1 33.4 L 113.9 33.4 L 113.9 45 Z M 132.5 37.5 C 132.49 37.51 132.5 45 132.5 45 L 129.7 45 C 129.7 45 129.69 37.76 129.7 37.8 C 129.7 36.5 129 35.7 127.7 35.7 C 126.1 35.7 125.1 36.8 125.1 38.7 C 125.1 38.72 125.1 45 125.1 45 L 122.3 45 L 122.3 29 L 125.1 29 C 125.1 29 125.1 35.03 125.1 35 C 125.8 33.9 126.8 33.2 128.6 33.2 C 131.2 33.2 132.5 34.7 132.5 37.5 Z M 144.4 37.2 C 144.37 37.19 144.4 45 144.4 45 L 141.6 45 C 141.6 45 141.64 43.3 141.6 43.3 C 140.7 44.8 139.4 45.2 138.1 45.2 C 136.3 45.2 134.4 44.1 134.4 41.6 C 134.4 39.8 135.4 38.6 138.1 38.2 C 138.1 38.2 140.6 37.8 140.6 37.8 C 141.3 37.7 141.7 37.5 141.7 36.8 C 141.7 35.8 140.9 35.4 139.8 35.4 C 138.3 35.4 137.6 36.1 137.5 37.1 C 137.5 37.1 134.8 37.1 134.8 37.1 C 135.1 34.4 137.3 33.2 139.9 33.2 C 142.7 33.2 144.4 34.5 144.4 37.2 Z M 141.7 40.1 C 141.7 40.1 141.7 39.5 141.7 39.5 C 141.4 39.6 140.9 39.8 140.3 39.8 C 140.3 39.8 139 40 139 40 C 137.6 40.2 137.2 40.8 137.2 41.5 C 137.2 42.4 137.8 42.9 138.8 42.9 C 140.2 42.9 141.7 41.8 141.7 40.1 Z M 157 45 L 154.3 45 C 154.3 45 154.31 43.34 154.3 43.3 C 153.6 44.4 152.6 45.1 151 45.1 C 148.6 45.1 146.8 43.6 146.8 40.6 C 146.79 40.59 146.8 33.4 146.8 33.4 L 149.6 33.4 C 149.6 33.4 149.58 40.38 149.6 40.4 C 149.6 42 150.4 42.6 151.6 42.6 C 153.1 42.6 154.2 41.7 154.2 39 C 154.24 39 154.2 33.4 154.2 33.4 L 157 33.4 L 157 45 Z M 165.7 45 C 165.7 45 163.86 44.98 163.9 45 C 161.7 45 160.3 44.3 160.3 41.2 C 160.31 41.2 160.3 35.9 160.3 35.9 L 158.2 35.9 L 158.2 33.4 L 160.3 33.4 L 160.3 30.8 L 163.1 30 L 163.1 33.4 L 165.4 33.4 L 165.4 35.9 L 163.1 35.9 C 163.1 35.9 163.1 41.33 163.1 41.3 C 163.1 42 163.3 42.5 164.3 42.5 C 164.28 42.5 165.7 42.5 165.7 42.5 L 165.7 45 Z M 179.3 36 C 179.3 36 178.54 35.97 178.5 36 C 176.6 36 175.5 37 175.5 39.3 C 175.52 39.31 175.5 45 175.5 45 L 172.7 45 L 172.7 33.4 L 175.5 33.4 C 175.5 33.4 175.49 35.05 175.5 35 C 176.1 33.8 177.2 33.3 178.5 33.3 C 178.52 33.26 179.3 33.3 179.3 33.3 L 179.3 36 Z M 182.4 40 C 182.5 41.9 183.8 42.8 185.4 42.8 C 186.5 42.8 187.5 42.4 187.9 41.3 C 187.9 41.3 190.4 41.3 190.4 41.3 C 189.9 43.9 187.6 45.2 185.3 45.2 C 182.5 45.2 179.7 43.3 179.7 39.2 C 179.7 35.2 182.3 33.2 185.3 33.2 C 188.1 33.2 190.5 35 190.5 38.9 C 190.47 38.89 190.5 40 190.5 40 C 190.5 40 182.4 40.03 182.4 40 Z M 182.5 38 C 182.5 38 187.7 38 187.7 38 C 187.7 36.5 186.7 35.6 185.2 35.6 C 184 35.6 182.7 36.3 182.5 38 Z M 202.6 37.5 C 202.65 37.51 202.6 45 202.6 45 L 199.9 45 C 199.9 45 199.85 37.76 199.9 37.8 C 199.9 36.5 199.1 35.7 197.8 35.7 C 196.2 35.7 195.3 36.8 195.3 38.7 C 195.26 38.72 195.3 45 195.3 45 L 192.5 45 L 192.5 33.4 L 195.2 33.4 C 195.2 33.4 195.23 35.07 195.2 35.1 C 195.9 34 196.8 33.2 198.8 33.2 C 201.4 33.2 202.6 34.7 202.6 37.5 Z M 215.9 45 L 213.2 45 C 213.2 45 213.19 43.2 213.2 43.2 C 212.6 44.5 211.2 45.2 209.6 45.2 C 206.9 45.2 204.5 43.2 204.5 39.2 C 204.5 35.2 206.9 33.2 209.6 33.2 C 211.1 33.2 212.4 33.8 213.1 34.9 C 213.13 34.92 213.1 29 213.1 29 L 215.9 29 L 215.9 45 Z M 213.2 39.2 C 213.2 36.8 211.8 35.7 210.3 35.7 C 208.8 35.7 207.4 36.8 207.4 39.2 C 207.4 41.5 208.8 42.7 210.3 42.7 C 211.8 42.7 213.2 41.5 213.2 39.2 Z M 220.6 40 C 220.7 41.9 222 42.8 223.6 42.8 C 224.7 42.8 225.7 42.4 226.1 41.3 C 226.1 41.3 228.6 41.3 228.6 41.3 C 228.1 43.9 225.9 45.2 223.5 45.2 C 220.7 45.2 217.9 43.3 217.9 39.2 C 217.9 35.2 220.5 33.2 223.5 33.2 C 226.3 33.2 228.7 35 228.7 38.9 C 228.69 38.89 228.7 40 228.7 40 C 228.7 40 220.62 40.03 220.6 40 Z M 220.7 38 C 220.7 38 226 38 226 38 C 226 36.5 224.9 35.6 223.5 35.6 C 222.2 35.6 220.9 36.3 220.7 38 Z M 247 37.2 C 247.04 37.17 247 45 247 45 L 244.2 45 C 244.2 45 244.25 37.72 244.2 37.7 C 244.2 36.3 243.6 35.7 242.4 35.7 C 241.1 35.7 240.3 36.5 240.3 38.5 C 240.26 38.47 240.3 45 240.3 45 L 237.5 45 C 237.5 45 237.46 37.72 237.5 37.7 C 237.5 36.3 236.8 35.7 235.6 35.7 C 234.3 35.7 233.5 36.5 233.5 38.5 C 233.47 38.45 233.5 45 233.5 45 L 230.7 45 L 230.7 33.4 L 233.4 33.4 C 233.4 33.4 233.43 35.09 233.4 35.1 C 233.8 34.2 234.7 33.2 236.4 33.2 C 237.9 33.2 239.1 33.9 239.6 35.1 C 240.1 34.3 240.9 33.2 243 33.2 C 245.5 33.2 247 34.7 247 37.2 Z M 251.6 40 C 251.7 41.9 253 42.8 254.6 42.8 C 255.7 42.8 256.8 42.4 257.1 41.3 C 257.1 41.3 259.7 41.3 259.7 41.3 C 259.2 43.9 256.9 45.2 254.5 45.2 C 251.7 45.2 248.9 43.3 248.9 39.2 C 248.9 35.2 251.6 33.2 254.5 33.2 C 257.3 33.2 259.7 35 259.7 38.9 C 259.7 38.89 259.7 40 259.7 40 C 259.7 40 251.64 40.03 251.6 40 Z M 251.7 38 C 251.7 38 257 38 257 38 C 257 36.5 255.9 35.6 254.5 35.6 C 253.2 35.6 252 36.3 251.7 38 Z M 271.9 37.5 C 271.88 37.51 271.9 45 271.9 45 L 269.1 45 C 269.1 45 269.09 37.76 269.1 37.8 C 269.1 36.5 268.4 35.7 267.1 35.7 C 265.5 35.7 264.5 36.8 264.5 38.7 C 264.49 38.72 264.5 45 264.5 45 L 261.7 45 L 261.7 33.4 L 264.5 33.4 C 264.5 33.4 264.47 35.07 264.5 35.1 C 265.1 34 266.1 33.2 268 33.2 C 270.6 33.2 271.9 34.7 271.9 37.5 Z M 280.4 45 C 280.4 45 278.6 44.98 278.6 45 C 276.4 45 275.1 44.3 275.1 41.2 C 275.05 41.2 275.1 35.9 275.1 35.9 L 272.9 35.9 L 272.9 33.4 L 275.1 33.4 L 275.1 30.8 L 277.8 30 L 277.8 33.4 L 280.2 33.4 L 280.2 35.9 L 277.8 35.9 C 277.8 35.9 277.85 41.33 277.8 41.3 C 277.8 42 278 42.5 279 42.5 C 279.02 42.5 280.4 42.5 280.4 42.5 L 280.4 45 Z M 289 40 C 289.1 41.9 290.4 42.8 292 42.8 C 293.1 42.8 294.1 42.4 294.5 41.3 C 294.5 41.3 297 41.3 297 41.3 C 296.5 43.9 294.2 45.2 291.9 45.2 C 289.1 45.2 286.3 43.3 286.3 39.2 C 286.3 35.2 288.9 33.2 291.9 33.2 C 294.7 33.2 297.1 35 297.1 38.9 C 297.08 38.89 297.1 40 297.1 40 C 297.1 40 289.02 40.03 289 40 Z M 289.1 38 C 289.1 38 294.4 38 294.4 38 C 294.4 36.5 293.3 35.6 291.9 35.6 C 290.6 35.6 289.3 36.3 289.1 38 Z M 305 45 C 305 45 303.17 44.98 303.2 45 C 301 45 299.6 44.3 299.6 41.2 C 299.62 41.2 299.6 35.9 299.6 35.9 L 297.5 35.9 L 297.5 33.4 L 299.6 33.4 L 299.6 30.8 L 302.4 30 L 302.4 33.4 L 304.7 33.4 L 304.7 35.9 L 302.4 35.9 C 302.4 35.9 302.42 41.33 302.4 41.3 C 302.4 42 302.6 42.5 303.6 42.5 C 303.59 42.5 305 42.5 305 42.5 L 305 45 Z M 314.8 45 L 312 45 L 312 29 L 314.8 29 L 314.8 45 Z M 319 31.3 C 319.05 31.27 317.6 31.3 317.6 31.3 L 317.6 28.3 L 320.8 28.3 C 320.8 28.3 320.83 30.87 320.8 30.9 C 320.8 33.9 318.8 34.9 316.9 35.2 C 316.9 35.2 316.6 33.7 316.6 33.7 C 318.1 33.5 319 32.6 319 31.3 Z M 331.9 37.2 C 331.88 37.19 331.9 45 331.9 45 L 329.1 45 C 329.1 45 329.15 43.3 329.1 43.3 C 328.2 44.8 326.9 45.2 325.6 45.2 C 323.8 45.2 321.9 44.1 321.9 41.6 C 321.9 39.8 322.9 38.6 325.6 38.2 C 325.6 38.2 328.1 37.8 328.1 37.8 C 328.8 37.7 329.3 37.5 329.3 36.8 C 329.3 35.8 328.4 35.4 327.3 35.4 C 325.8 35.4 325.1 36.1 325 37.1 C 325 37.1 322.3 37.1 322.3 37.1 C 322.6 34.4 324.8 33.2 327.4 33.2 C 330.2 33.2 331.9 34.5 331.9 37.2 Z M 329.2 40.1 C 329.2 40.1 329.2 39.5 329.2 39.5 C 328.9 39.6 328.4 39.8 327.8 39.8 C 327.8 39.8 326.5 40 326.5 40 C 325.1 40.2 324.7 40.8 324.7 41.5 C 324.7 42.4 325.3 42.9 326.3 42.9 C 327.7 42.9 329.2 41.8 329.2 40.1 Z M 345.8 39.2 C 345.8 43.3 343.3 45.2 340.6 45.2 C 339.1 45.2 337.8 44.7 337.1 43.6 C 337.13 43.6 337.1 45 337.1 45 L 334.4 45 L 334.4 29 L 337.2 29 C 337.2 29 337.19 35.09 337.2 35.1 C 337.8 33.9 339.2 33.2 340.7 33.2 C 343.5 33.2 345.8 35.2 345.8 39.2 Z M 342.9 39.2 C 342.9 36.9 341.6 35.7 340 35.7 C 338.5 35.7 337.1 36.9 337.1 39.2 C 337.1 41.6 338.5 42.8 340 42.8 C 341.6 42.8 342.9 41.6 342.9 39.2 Z M 357 41.4 C 357 44 354.7 45.2 352.1 45.2 C 349.7 45.2 347.1 44.2 346.9 41.3 C 346.9 41.3 349.8 41.3 349.8 41.3 C 349.9 42.4 351 42.9 352.3 42.9 C 353.4 42.9 354.3 42.5 354.3 41.7 C 354.3 40.9 353.7 40.8 352.1 40.5 C 349.9 40.1 347.3 39.7 347.3 36.9 C 347.3 34.3 349.5 33.2 351.9 33.2 C 354.6 33.2 356.6 34.5 356.8 37.1 C 356.8 37.1 354 37.1 354 37.1 C 353.9 36 353.1 35.5 351.9 35.5 C 350.5 35.5 350 36.1 350 36.8 C 350 37.7 351 37.9 352.4 38.1 C 354.5 38.4 357 38.7 357 41.4 Z M 360.9 40 C 361 41.9 362.3 42.8 363.9 42.8 C 365 42.8 366 42.4 366.4 41.3 C 366.4 41.3 368.9 41.3 368.9 41.3 C 368.4 43.9 366.1 45.2 363.8 45.2 C 361 45.2 358.2 43.3 358.2 39.2 C 358.2 35.2 360.8 33.2 363.8 33.2 C 366.6 33.2 369 35 369 38.9 C 368.97 38.89 369 40 369 40 C 369 40 360.9 40.03 360.9 40 Z M 361 38 C 361 38 366.2 38 366.2 38 C 366.2 36.5 365.2 35.6 363.7 35.6 C 362.5 35.6 361.2 36.3 361 38 Z M 381.1 37.5 C 381.15 37.51 381.1 45 381.1 45 L 378.4 45 C 378.4 45 378.35 37.76 378.4 37.8 C 378.4 36.5 377.6 35.7 376.3 35.7 C 374.7 35.7 373.8 36.8 373.8 38.7 C 373.75 38.72 373.8 45 373.8 45 L 371 45 L 371 33.4 L 373.7 33.4 C 373.7 33.4 373.73 35.07 373.7 35.1 C 374.4 34 375.3 33.2 377.3 33.2 C 379.9 33.2 381.1 34.7 381.1 37.5 Z M 388.7 45.2 C 384.9 45.2 383 42.3 383 39.2 C 383 36.1 384.8 33.2 388.6 33.2 C 391.5 33.2 393.7 34.8 393.8 37.6 C 393.8 37.6 391 37.6 391 37.6 C 390.9 36.5 390.1 35.7 388.7 35.7 C 386.7 35.7 385.8 37.4 385.8 39.2 C 385.8 41.1 386.7 42.6 388.7 42.6 C 390 42.6 390.9 41.9 391.1 40.9 C 391.1 40.9 393.8 40.9 393.8 40.9 C 393.5 43.7 391.5 45.2 388.7 45.2 Z M 397.8 40 C 397.9 41.9 399.2 42.8 400.8 42.8 C 401.9 42.8 402.9 42.4 403.3 41.3 C 403.3 41.3 405.8 41.3 405.8 41.3 C 405.3 43.9 403 45.2 400.7 45.2 C 397.9 45.2 395.1 43.3 395.1 39.2 C 395.1 35.2 397.7 33.2 400.7 33.2 C 403.5 33.2 405.9 35 405.9 38.9 C 405.88 38.89 405.9 40 405.9 40 C 405.9 40 397.82 40.03 397.8 40 Z M 397.9 38 C 397.9 38 403.2 38 403.2 38 C 403.2 36.5 402.1 35.6 400.7 35.6 C 399.4 35.6 398.1 36.3 397.9 38 Z " stroke="none" fill="#000"/>  </g>  <g id="Polygon11247">    <path d="M 8.4 19.8 L 5.6 19.8 L 0.2 4 L 3.3 4 L 7 15.7 L 10.7 4 L 13.7 4 L 8.4 19.8 Z M 25 19.8 L 22.3 19.8 C 22.3 19.8 22.3 18.14 22.3 18.1 C 21.6 19.2 20.6 19.9 19 19.9 C 16.5 19.9 14.8 18.4 14.8 15.4 C 14.78 15.39 14.8 8.2 14.8 8.2 L 17.6 8.2 C 17.6 8.2 17.58 15.18 17.6 15.2 C 17.6 16.8 18.4 17.4 19.6 17.4 C 21.1 17.4 22.2 16.5 22.2 13.8 C 22.24 13.8 22.2 8.2 22.2 8.2 L 25 8.2 L 25 19.8 Z M 36.2 19.8 L 33.4 19.8 L 33.4 3.8 L 36.2 3.8 L 36.2 19.8 Z M 48.2 12 C 48.22 11.99 48.2 19.8 48.2 19.8 L 45.5 19.8 C 45.5 19.8 45.49 18.1 45.5 18.1 C 44.6 19.6 43.2 20 42 20 C 40.1 20 38.2 18.9 38.2 16.4 C 38.2 14.6 39.2 13.4 41.9 13 C 41.9 13 44.4 12.6 44.4 12.6 C 45.1 12.5 45.6 12.3 45.6 11.6 C 45.6 10.6 44.8 10.2 43.6 10.2 C 42.1 10.2 41.5 10.9 41.4 11.9 C 41.4 11.9 38.7 11.9 38.7 11.9 C 39 9.2 41.1 8 43.8 8 C 46.5 8 48.2 9.3 48.2 12 Z M 45.5 14.9 C 45.5 14.9 45.5 14.3 45.5 14.3 C 45.2 14.4 44.7 14.6 44.1 14.6 C 44.1 14.6 42.9 14.8 42.9 14.8 C 41.5 15 41 15.6 41 16.3 C 41 17.2 41.7 17.7 42.6 17.7 C 44.1 17.7 45.5 16.6 45.5 14.9 Z M 60.5 20 C 56.7 20 54.8 17.1 54.8 14 C 54.8 10.9 56.6 8 60.4 8 C 63.3 8 65.5 9.6 65.6 12.4 C 65.6 12.4 62.8 12.4 62.8 12.4 C 62.7 11.3 61.9 10.5 60.5 10.5 C 58.5 10.5 57.6 12.2 57.6 14 C 57.6 15.9 58.5 17.4 60.5 17.4 C 61.8 17.4 62.7 16.7 62.9 15.7 C 62.9 15.7 65.6 15.7 65.6 15.7 C 65.3 18.5 63.3 20 60.5 20 Z M 78.2 14 C 78.2 17.8 75.8 20 72.6 20 C 69.3 20 66.9 17.8 66.9 14 C 66.9 10.2 69.3 8 72.6 8 C 75.8 8 78.2 10.2 78.2 14 Z M 69.8 14 C 69.8 16.3 71 17.4 72.6 17.4 C 74.3 17.4 75.4 16.2 75.4 14 C 75.4 11.7 74.1 10.6 72.5 10.6 C 70.9 10.6 69.8 11.8 69.8 14 Z M 90.4 12.3 C 90.4 12.31 90.4 19.8 90.4 19.8 L 87.6 19.8 C 87.6 19.8 87.61 12.56 87.6 12.6 C 87.6 11.3 86.9 10.5 85.6 10.5 C 84 10.5 83 11.6 83 13.5 C 83.01 13.52 83 19.8 83 19.8 L 80.2 19.8 L 80.2 8.2 L 83 8.2 C 83 8.2 82.99 9.87 83 9.9 C 83.6 8.8 84.6 8 86.5 8 C 89.2 8 90.4 9.5 90.4 12.3 Z M 99 19.8 C 99 19.8 97.12 19.78 97.1 19.8 C 95 19.8 93.6 19.1 93.6 16 C 93.57 16 93.6 10.7 93.6 10.7 L 91.5 10.7 L 91.5 8.2 L 93.6 8.2 L 93.6 5.6 L 96.4 4.8 L 96.4 8.2 L 98.7 8.2 L 98.7 10.7 L 96.4 10.7 C 96.4 10.7 96.37 16.13 96.4 16.1 C 96.4 16.8 96.6 17.3 97.5 17.3 C 97.54 17.3 99 17.3 99 17.3 L 99 19.8 Z M 107.1 10.8 C 107.1 10.8 106.34 10.77 106.3 10.8 C 104.4 10.8 103.3 11.8 103.3 14.1 C 103.32 14.11 103.3 19.8 103.3 19.8 L 100.5 19.8 L 100.5 8.2 L 103.3 8.2 C 103.3 8.2 103.3 9.85 103.3 9.8 C 103.9 8.6 105 8.1 106.3 8.1 C 106.32 8.06 107.1 8.1 107.1 8.1 L 107.1 10.8 Z M 117.7 12 C 117.7 11.99 117.7 19.8 117.7 19.8 L 115 19.8 C 115 19.8 114.97 18.1 115 18.1 C 114.1 19.6 112.7 20 111.5 20 C 109.6 20 107.7 18.9 107.7 16.4 C 107.7 14.6 108.7 13.4 111.4 13 C 111.4 13 113.9 12.6 113.9 12.6 C 114.6 12.5 115.1 12.3 115.1 11.6 C 115.1 10.6 114.2 10.2 113.1 10.2 C 111.6 10.2 111 10.9 110.9 11.9 C 110.9 11.9 108.2 11.9 108.2 11.9 C 108.5 9.2 110.6 8 113.3 8 C 116 8 117.7 9.3 117.7 12 Z M 115 14.9 C 115 14.9 115 14.3 115 14.3 C 114.7 14.4 114.2 14.6 113.6 14.6 C 113.6 14.6 112.4 14.8 112.4 14.8 C 111 15 110.5 15.6 110.5 16.3 C 110.5 17.2 111.2 17.7 112.1 17.7 C 113.6 17.7 115 16.6 115 14.9 Z M 125.1 20 C 121.3 20 119.5 17.1 119.5 14 C 119.5 10.9 121.3 8 125.1 8 C 128 8 130.1 9.6 130.2 12.4 C 130.2 12.4 127.5 12.4 127.5 12.4 C 127.3 11.3 126.5 10.5 125.2 10.5 C 123.1 10.5 122.3 12.2 122.3 14 C 122.3 15.9 123.2 17.4 125.2 17.4 C 126.5 17.4 127.3 16.7 127.5 15.7 C 127.5 15.7 130.3 15.7 130.3 15.7 C 129.9 18.5 127.9 20 125.1 20 Z M 138.2 19.8 C 138.2 19.8 136.39 19.78 136.4 19.8 C 134.2 19.8 132.8 19.1 132.8 16 C 132.84 16 132.8 10.7 132.8 10.7 L 130.7 10.7 L 130.7 8.2 L 132.8 8.2 L 132.8 5.6 L 135.6 4.8 L 135.6 8.2 L 137.9 8.2 L 137.9 10.7 L 135.6 10.7 C 135.6 10.7 135.64 16.13 135.6 16.1 C 135.6 16.8 135.8 17.3 136.8 17.3 C 136.81 17.3 138.2 17.3 138.2 17.3 L 138.2 19.8 Z M 139.7 6.7 L 142.7 6.7 L 142.7 3.5 L 139.7 3.5 L 139.7 6.7 Z M 139.8 8.2 L 142.6 8.2 L 142.6 19.8 L 139.8 19.8 L 139.8 8.2 Z M 155.9 14 C 155.9 17.8 153.4 20 150.2 20 C 147 20 144.5 17.8 144.5 14 C 144.5 10.2 147 8 150.2 8 C 153.4 8 155.9 10.2 155.9 14 Z M 147.4 14 C 147.4 16.3 148.7 17.4 150.2 17.4 C 151.9 17.4 153 16.2 153 14 C 153 11.7 151.7 10.6 150.2 10.6 C 148.5 10.6 147.4 11.8 147.4 14 Z M 168 12.3 C 168.04 12.31 168 19.8 168 19.8 L 165.2 19.8 C 165.2 19.8 165.25 12.56 165.2 12.6 C 165.2 11.3 164.5 10.5 163.2 10.5 C 161.6 10.5 160.6 11.6 160.6 13.5 C 160.65 13.52 160.6 19.8 160.6 19.8 L 157.9 19.8 L 157.9 8.2 L 160.6 8.2 C 160.6 8.2 160.63 9.87 160.6 9.9 C 161.3 8.8 162.2 8 164.2 8 C 166.8 8 168 9.5 168 12.3 Z M 186.6 19.8 L 183.8 19.8 C 183.8 19.8 183.83 18 183.8 18 C 183.2 19.3 181.9 20 180.3 20 C 177.6 20 175.2 18 175.2 14 C 175.2 10 177.6 8 180.3 8 C 181.8 8 183.1 8.6 183.8 9.7 C 183.77 9.72 183.8 3.8 183.8 3.8 L 186.6 3.8 L 186.6 19.8 Z M 183.9 14 C 183.9 11.6 182.4 10.5 180.9 10.5 C 179.4 10.5 178 11.6 178 14 C 178 16.3 179.4 17.5 180.9 17.5 C 182.4 17.5 183.9 16.3 183.9 14 Z M 191.3 14.8 C 191.3 16.7 192.7 17.6 194.2 17.6 C 195.3 17.6 196.4 17.2 196.7 16.1 C 196.7 16.1 199.3 16.1 199.3 16.1 C 198.8 18.7 196.5 20 194.1 20 C 191.3 20 188.6 18.1 188.6 14 C 188.6 10 191.2 8 194.1 8 C 197 8 199.3 9.8 199.3 13.7 C 199.33 13.69 199.3 14.8 199.3 14.8 C 199.3 14.8 191.27 14.83 191.3 14.8 Z M 191.3 12.8 C 191.3 12.8 196.6 12.8 196.6 12.8 C 196.6 11.3 195.5 10.4 194.1 10.4 C 192.8 10.4 191.6 11.1 191.3 12.8 Z M 210.6 16.2 C 210.6 18.8 208.3 20 205.7 20 C 203.3 20 200.7 19 200.5 16.1 C 200.5 16.1 203.3 16.1 203.3 16.1 C 203.5 17.2 204.5 17.7 205.8 17.7 C 207 17.7 207.8 17.3 207.8 16.5 C 207.8 15.7 207.3 15.6 205.7 15.3 C 203.4 14.9 200.8 14.5 200.8 11.7 C 200.8 9.1 203 8 205.4 8 C 208.1 8 210.1 9.3 210.3 11.9 C 210.3 11.9 207.6 11.9 207.6 11.9 C 207.5 10.8 206.7 10.3 205.5 10.3 C 204.1 10.3 203.6 10.9 203.6 11.6 C 203.6 12.5 204.6 12.7 206 12.9 C 208.1 13.2 210.6 13.5 210.6 16.2 Z M 226.6 16.2 C 226.6 18.8 224.3 20 221.7 20 C 219.3 20 216.7 19 216.5 16.1 C 216.5 16.1 219.3 16.1 219.3 16.1 C 219.5 17.2 220.5 17.7 221.8 17.7 C 223 17.7 223.8 17.3 223.8 16.5 C 223.8 15.7 223.3 15.6 221.7 15.3 C 219.4 14.9 216.8 14.5 216.8 11.7 C 216.8 9.1 219 8 221.4 8 C 224.1 8 226.1 9.3 226.3 11.9 C 226.3 11.9 223.6 11.9 223.6 11.9 C 223.5 10.8 222.6 10.3 221.5 10.3 C 220.1 10.3 219.5 10.9 219.5 11.6 C 219.5 12.5 220.6 12.7 222 12.9 C 224 13.2 226.6 13.5 226.6 16.2 Z M 239.8 13.8 C 239.8 18 237.2 19.9 234.5 19.9 C 233 19.9 231.9 19.2 231.2 18.4 C 231.25 18.4 231.2 24.1 231.2 24.1 L 228.5 24.1 L 228.5 8.2 L 231.2 8.2 C 231.2 8.2 231.19 10.04 231.2 10 C 231.8 8.8 233.1 8 234.8 8 C 237.5 8 239.8 9.9 239.8 13.8 Z M 237 14 C 237 11.6 235.6 10.5 234.1 10.5 C 232.6 10.5 231.2 11.6 231.2 14 C 231.2 16.3 232.6 17.4 234.1 17.4 C 235.6 17.4 237 16.3 237 14 Z M 248.4 10.8 C 248.4 10.8 247.65 10.77 247.7 10.8 C 245.7 10.8 244.6 11.8 244.6 14.1 C 244.63 14.11 244.6 19.8 244.6 19.8 L 241.8 19.8 L 241.8 8.2 L 244.6 8.2 C 244.6 8.2 244.61 9.85 244.6 9.8 C 245.2 8.6 246.3 8.1 247.6 8.1 C 247.63 8.06 248.4 8.1 248.4 8.1 L 248.4 10.8 Z M 251.5 14.8 C 251.6 16.7 252.9 17.6 254.5 17.6 C 255.6 17.6 256.6 17.2 257 16.1 C 257 16.1 259.5 16.1 259.5 16.1 C 259 18.7 256.7 20 254.4 20 C 251.6 20 248.8 18.1 248.8 14 C 248.8 10 251.4 8 254.4 8 C 257.2 8 259.6 9.8 259.6 13.7 C 259.58 13.69 259.6 14.8 259.6 14.8 C 259.6 14.8 251.51 14.83 251.5 14.8 Z M 251.6 12.8 C 251.6 12.8 256.8 12.8 256.8 12.8 C 256.8 11.3 255.8 10.4 254.3 10.4 C 253.1 10.4 251.8 11.1 251.6 12.8 Z M 270.8 12 C 270.83 11.99 270.8 19.8 270.8 19.8 L 268.1 19.8 C 268.1 19.8 268.1 18.1 268.1 18.1 C 267.2 19.6 265.8 20 264.6 20 C 262.7 20 260.8 18.9 260.8 16.4 C 260.8 14.6 261.9 13.4 264.5 13 C 264.5 13 267 12.6 267 12.6 C 267.7 12.5 268.2 12.3 268.2 11.6 C 268.2 10.6 267.4 10.2 266.3 10.2 C 264.8 10.2 264.1 10.9 264 11.9 C 264 11.9 261.3 11.9 261.3 11.9 C 261.6 9.2 263.8 8 266.4 8 C 269.1 8 270.8 9.3 270.8 12 Z M 268.1 14.9 C 268.1 14.9 268.1 14.3 268.1 14.3 C 267.9 14.4 267.3 14.6 266.8 14.6 C 266.8 14.6 265.5 14.8 265.5 14.8 C 264.1 15 263.6 15.6 263.6 16.3 C 263.6 17.2 264.3 17.7 265.2 17.7 C 266.7 17.7 268.1 16.6 268.1 14.9 Z M 284 19.8 L 281.3 19.8 C 281.3 19.8 281.27 18 281.3 18 C 280.6 19.3 279.3 20 277.7 20 C 275 20 272.6 18 272.6 14 C 272.6 10 275 8 277.7 8 C 279.2 8 280.5 8.6 281.2 9.7 C 281.21 9.72 281.2 3.8 281.2 3.8 L 284 3.8 L 284 19.8 Z M 281.3 14 C 281.3 11.6 279.9 10.5 278.4 10.5 C 276.8 10.5 275.5 11.6 275.5 14 C 275.5 16.3 276.8 17.5 278.4 17.5 C 279.9 17.5 281.3 16.3 281.3 14 Z M 296 16.2 C 296 18.8 293.7 20 291.1 20 C 288.7 20 286.1 19 285.9 16.1 C 285.9 16.1 288.7 16.1 288.7 16.1 C 288.9 17.2 289.9 17.7 291.2 17.7 C 292.4 17.7 293.2 17.3 293.2 16.5 C 293.2 15.7 292.7 15.6 291.1 15.3 C 288.8 14.9 286.2 14.5 286.2 11.7 C 286.2 9.1 288.5 8 290.8 8 C 293.6 8 295.6 9.3 295.7 11.9 C 295.7 11.9 293 11.9 293 11.9 C 292.9 10.8 292.1 10.3 290.9 10.3 C 289.5 10.3 289 10.9 289 11.6 C 289 12.5 290 12.7 291.4 12.9 C 293.5 13.2 296 13.5 296 16.2 Z M 313.4 19.8 L 310.6 19.8 C 310.6 19.8 310.63 18 310.6 18 C 310 19.3 308.7 20 307.1 20 C 304.3 20 302 18 302 14 C 302 10 304.3 8 307.1 8 C 308.6 8 309.9 8.6 310.6 9.7 C 310.57 9.72 310.6 3.8 310.6 3.8 L 313.4 3.8 L 313.4 19.8 Z M 310.6 14 C 310.6 11.6 309.2 10.5 307.7 10.5 C 306.2 10.5 304.8 11.6 304.8 14 C 304.8 16.3 306.2 17.5 307.7 17.5 C 309.2 17.5 310.6 16.3 310.6 14 Z M 325.3 12 C 325.35 11.99 325.3 19.8 325.3 19.8 L 322.6 19.8 C 322.6 19.8 322.62 18.1 322.6 18.1 C 321.7 19.6 320.3 20 319.1 20 C 317.3 20 315.4 18.9 315.4 16.4 C 315.4 14.6 316.4 13.4 319 13 C 319 13 321.5 12.6 321.5 12.6 C 322.2 12.5 322.7 12.3 322.7 11.6 C 322.7 10.6 321.9 10.2 320.8 10.2 C 319.3 10.2 318.6 10.9 318.5 11.9 C 318.5 11.9 315.8 11.9 315.8 11.9 C 316.1 9.2 318.3 8 320.9 8 C 323.6 8 325.3 9.3 325.3 12 Z M 322.6 14.9 C 322.6 14.9 322.6 14.3 322.6 14.3 C 322.4 14.4 321.8 14.6 321.3 14.6 C 321.3 14.6 320 14.8 320 14.8 C 318.6 15 318.1 15.6 318.1 16.3 C 318.1 17.2 318.8 17.7 319.8 17.7 C 321.2 17.7 322.6 16.6 322.6 14.9 Z M 338.1 12.3 C 338.05 12.31 338.1 19.8 338.1 19.8 L 335.3 19.8 C 335.3 19.8 335.26 12.56 335.3 12.6 C 335.3 11.3 334.5 10.5 333.2 10.5 C 331.6 10.5 330.7 11.6 330.7 13.5 C 330.66 13.52 330.7 19.8 330.7 19.8 L 327.9 19.8 L 327.9 8.2 L 330.6 8.2 C 330.6 8.2 330.64 9.87 330.6 9.9 C 331.3 8.8 332.2 8 334.2 8 C 336.8 8 338.1 9.5 338.1 12.3 Z M 349.9 16.2 C 349.9 18.8 347.6 20 345 20 C 342.6 20 340 19 339.8 16.1 C 339.8 16.1 342.7 16.1 342.7 16.1 C 342.8 17.2 343.9 17.7 345.2 17.7 C 346.3 17.7 347.2 17.3 347.2 16.5 C 347.2 15.7 346.6 15.6 345 15.3 C 342.8 14.9 340.2 14.5 340.2 11.7 C 340.2 9.1 342.4 8 344.8 8 C 347.5 8 349.5 9.3 349.7 11.9 C 349.7 11.9 346.9 11.9 346.9 11.9 C 346.8 10.8 346 10.3 344.8 10.3 C 343.5 10.3 342.9 10.9 342.9 11.6 C 342.9 12.5 343.9 12.7 345.3 12.9 C 347.4 13.2 349.9 13.5 349.9 16.2 Z " stroke="none" fill="#000"/>  </g></svg>