<?xml version="1.0" standalone="no"?><!DOCTYPE svg PUBLIC "-//W3C//DTD SVG 1.1//EN" "http://www.w3.org/Graphics/SVG/1.1/DTD/svg11.dtd"><svg xmlns="http://www.w3.org/2000/svg" version="1.1" width="25.1px" height="31.6px" viewBox="0 -3 25.1 31.6" style="top:-3px">  <desc>5 0</desc>  <defs/>  <g id="Polygon12262">    <path d="M 10 12.6 C 10 14.9 8.4 17.2 5.4 17.2 C 3 17.2 0.8 15.7 0.8 12.8 C 0.8 12.8 2.5 12.8 2.5 12.8 C 2.4 13 2.4 13.1 2.4 13.2 C 2.4 14.9 3.8 15.9 5.4 15.9 C 7.4 15.9 8.4 14.4 8.4 12.8 C 8.4 11.2 7.5 9.8 5.5 9.8 C 4.5 9.8 3.6 10.1 2.9 10.8 C 2.86 10.79 1.4 10.8 1.4 10.8 L 2.5 3.7 L 9.2 3.7 L 9.2 5.2 L 3.7 5.2 C 3.7 5.2 3.11 9.12 3.1 9.1 C 3.9 8.6 4.8 8.3 5.9 8.3 C 8.6 8.3 10 10.3 10 12.6 Z M 11.5 14.8 L 13.6 14.8 L 13.6 17 L 11.5 17 L 11.5 14.8 Z M 15.2 10.4 C 15.2 6.2 16.7 3.5 19.7 3.5 C 22.8 3.5 24.2 6.2 24.2 10.4 C 24.2 14.5 22.7 17.2 19.7 17.2 C 16.6 17.2 15.2 14.5 15.2 10.4 Z M 22.6 10.4 C 22.6 7.4 21.8 5 19.7 5 C 17.7 5 16.9 7 16.9 10.3 C 16.9 13.6 17.8 15.7 19.7 15.7 C 21.8 15.7 22.6 13.5 22.6 10.4 Z " stroke="none" fill="#000"/>  </g></svg>