<?xml version="1.0" standalone="no"?><!DOCTYPE svg PUBLIC "-//W3C//DTD SVG 1.1//EN" "http://www.w3.org/Graphics/SVG/1.1/DTD/svg11.dtd"><svg xmlns="http://www.w3.org/2000/svg" version="1.1" width="264px" height="70.4px" viewBox="0 0 264 70.4">  <desc>Ayuda a combatir reducir la volatilidad</desc>  <defs/>  <g id="Polygon9513">    <path d="M 3.2 45 L 1.7 45 L 1.7 29 L 3.2 29 L 3.2 45 Z M 13.5 42.9 C 12.6 44.6 10.9 45.2 9.5 45.2 C 7.6 45.2 5.8 44.1 5.8 41.9 C 5.8 39.8 7.3 38.8 9.3 38.6 C 9.3 38.6 11.9 38.2 11.9 38.2 C 12.8 38.1 13.5 37.8 13.5 36.8 C 13.5 35.5 12.3 34.8 10.8 34.8 C 9.1 34.8 8 35.6 7.8 36.9 C 7.8 36.9 6.3 36.9 6.3 36.9 C 6.6 34.6 8.4 33.5 10.9 33.5 C 13.4 33.5 15 34.7 15 37.2 C 14.99 37.19 15 45 15 45 L 13.5 45 C 13.5 45 13.5 42.92 13.5 42.9 Z M 11.6 39.5 C 11.6 39.5 9.9 39.7 9.9 39.7 C 8.5 39.9 7.4 40.4 7.4 41.8 C 7.4 43.2 8.5 43.8 9.7 43.8 C 11.5 43.8 13.5 42.5 13.5 40.1 C 13.5 40.1 13.5 39 13.5 39 C 13 39.3 12.4 39.4 11.6 39.5 Z M 27.4 45 L 25.8 45 L 21.6 33.7 L 23.3 33.7 L 26.6 43.4 L 30.1 33.7 L 31.6 33.7 L 27.4 45 Z M 32.7 39.4 C 32.7 35.7 34.9 33.5 38 33.5 C 41.1 33.5 43.4 35.7 43.4 39.4 C 43.4 43 41.2 45.2 38.1 45.2 C 34.9 45.2 32.7 43 32.7 39.4 Z M 41.8 39.3 C 41.8 36.5 40.1 34.9 38 34.9 C 35.8 34.9 34.3 36.6 34.3 39.4 C 34.3 42.2 36 43.8 38.1 43.8 C 40.3 43.8 41.8 42.1 41.8 39.3 Z M 47.5 45 L 46 45 L 46 29 L 47.5 29 L 47.5 45 Z M 57.8 42.9 C 57 44.6 55.3 45.2 53.8 45.2 C 51.9 45.2 50.2 44.1 50.2 41.9 C 50.2 39.8 51.7 38.8 53.6 38.6 C 53.6 38.6 56.3 38.2 56.3 38.2 C 57.1 38.1 57.8 37.8 57.8 36.8 C 57.8 35.5 56.7 34.8 55.1 34.8 C 53.4 34.8 52.4 35.6 52.1 36.9 C 52.1 36.9 50.6 36.9 50.6 36.9 C 50.9 34.6 52.7 33.5 55.2 33.5 C 57.8 33.5 59.3 34.7 59.3 37.2 C 59.32 37.19 59.3 45 59.3 45 L 57.8 45 C 57.8 45 57.83 42.92 57.8 42.9 Z M 56 39.5 C 56 39.5 54.2 39.7 54.2 39.7 C 52.8 39.9 51.7 40.4 51.7 41.8 C 51.7 43.2 52.8 43.8 54.1 43.8 C 55.8 43.8 57.8 42.5 57.8 40.1 C 57.8 40.1 57.8 39 57.8 39 C 57.4 39.3 56.7 39.4 56 39.5 Z M 67.6 45 C 67.6 45 65.96 44.98 66 45 C 64.5 45 63.1 44.5 63.1 42 C 63.13 42.02 63.1 35.1 63.1 35.1 L 60.9 35.1 L 60.9 33.7 L 63.1 33.7 L 63.1 30.5 L 64.7 30.1 L 64.7 33.7 L 67.4 33.7 L 67.4 35.1 L 64.7 35.1 C 64.7 35.1 64.66 42 64.7 42 C 64.7 43 65 43.6 66.2 43.6 C 66.21 43.6 67.6 43.6 67.6 43.6 L 67.6 45 Z M 71.5 29 L 69.7 29 L 69.7 30.9 L 71.5 30.9 L 71.5 29 Z M 71.4 45 L 69.8 45 L 69.8 33.7 L 71.4 33.7 L 71.4 45 Z M 76.2 45 L 74.7 45 L 74.7 29 L 76.2 29 L 76.2 45 Z M 81.2 29 L 79.5 29 L 79.5 30.9 L 81.2 30.9 L 81.2 29 Z M 81.1 45 L 79.6 45 L 79.6 33.7 L 81.1 33.7 L 81.1 45 Z M 94.3 45 L 92.8 45 C 92.8 45 92.84 42.8 92.8 42.8 C 92.3 44.1 90.9 45.2 88.8 45.2 C 85.9 45.2 83.8 42.9 83.8 39.3 C 83.8 35.8 85.9 33.5 88.8 33.5 C 90.8 33.5 92.2 34.4 92.8 35.6 C 92.78 35.62 92.8 29 92.8 29 L 94.3 29 L 94.3 45 Z M 92.8 39.3 C 92.8 36.5 91.2 34.9 89 34.9 C 86.8 34.9 85.3 36.6 85.3 39.3 C 85.3 42.1 86.9 43.8 89 43.8 C 91.2 43.8 92.8 42.1 92.8 39.3 Z M 104.6 42.9 C 103.7 44.6 102 45.2 100.6 45.2 C 98.7 45.2 96.9 44.1 96.9 41.9 C 96.9 39.8 98.4 38.8 100.4 38.6 C 100.4 38.6 103 38.2 103 38.2 C 103.9 38.1 104.6 37.8 104.6 36.8 C 104.6 35.5 103.4 34.8 101.9 34.8 C 100.2 34.8 99.1 35.6 98.9 36.9 C 98.9 36.9 97.4 36.9 97.4 36.9 C 97.7 34.6 99.5 33.5 102 33.5 C 104.5 33.5 106.1 34.7 106.1 37.2 C 106.09 37.19 106.1 45 106.1 45 L 104.6 45 C 104.6 45 104.6 42.92 104.6 42.9 Z M 102.7 39.5 C 102.7 39.5 101 39.7 101 39.7 C 99.6 39.9 98.5 40.4 98.5 41.8 C 98.5 43.2 99.6 43.8 100.8 43.8 C 102.6 43.8 104.6 42.5 104.6 40.1 C 104.6 40.1 104.6 39 104.6 39 C 104.1 39.3 103.5 39.4 102.7 39.5 Z M 119 45 L 117.6 45 C 117.6 45 117.58 42.8 117.6 42.8 C 117 44.1 115.7 45.2 113.6 45.2 C 110.6 45.2 108.5 42.9 108.5 39.3 C 108.5 35.8 110.6 33.5 113.6 33.5 C 115.5 33.5 116.9 34.4 117.5 35.6 C 117.51 35.62 117.5 29 117.5 29 L 119 29 L 119 45 Z M 117.5 39.3 C 117.5 36.5 115.9 34.9 113.8 34.9 C 111.6 34.9 110.1 36.6 110.1 39.3 C 110.1 42.1 111.6 43.8 113.8 43.8 C 116 43.8 117.5 42.1 117.5 39.3 Z " stroke="none" fill="#000"/>  </g>  <g id="Polygon9512">    <path d="M 11.7 15.3 L 4.2 15.3 L 2.5 19.8 L 0.7 19.8 L 7.1 4 L 8.8 4 L 15.3 19.8 L 13.5 19.8 L 11.7 15.3 Z M 7.9 5.8 L 4.7 13.9 L 11.2 13.9 L 7.9 5.8 Z M 20.4 21.9 C 19.9 23.1 19 23.5 17.8 23.5 C 17.79 23.48 16.6 23.5 16.6 23.5 L 16.6 22.1 C 16.6 22.1 17.58 22.11 17.6 22.1 C 18.5 22.1 19 21.8 19.4 20.8 C 19.38 20.79 19.9 19.3 19.9 19.3 L 15.7 8.5 L 17.3 8.5 L 20.6 17.4 L 24 8.5 L 25.5 8.5 C 25.5 8.5 20.39 21.92 20.4 21.9 Z M 34.9 19.8 C 34.9 19.8 34.9 17.64 34.9 17.6 C 34.1 19.2 32.7 19.9 31.1 19.9 C 29 19.9 27.4 18.6 27.4 16 C 27.38 15.96 27.4 8.5 27.4 8.5 L 28.9 8.5 C 28.9 8.5 28.92 15.77 28.9 15.8 C 28.9 17.6 29.9 18.6 31.4 18.6 C 33.2 18.6 34.8 17.2 34.8 14.3 C 34.84 14.34 34.8 8.5 34.8 8.5 L 36.4 8.5 L 36.4 19.8 L 34.9 19.8 Z M 49.5 19.8 L 48.1 19.8 C 48.1 19.8 48.07 17.6 48.1 17.6 C 47.5 18.9 46.2 20 44.1 20 C 41.1 20 39 17.7 39 14.1 C 39 10.6 41.1 8.3 44.1 8.3 C 46 8.3 47.4 9.2 48 10.4 C 48.01 10.42 48 3.8 48 3.8 L 49.5 3.8 L 49.5 19.8 Z M 48 14.1 C 48 11.3 46.4 9.7 44.3 9.7 C 42.1 9.7 40.6 11.4 40.6 14.1 C 40.6 16.9 42.1 18.6 44.3 18.6 C 46.5 18.6 48 16.9 48 14.1 Z M 59.8 17.7 C 58.9 19.4 57.2 20 55.8 20 C 53.9 20 52.2 18.9 52.2 16.7 C 52.2 14.6 53.7 13.6 55.6 13.4 C 55.6 13.4 58.3 13 58.3 13 C 59.1 12.9 59.8 12.6 59.8 11.6 C 59.8 10.3 58.7 9.6 57.1 9.6 C 55.4 9.6 54.4 10.4 54.1 11.7 C 54.1 11.7 52.6 11.7 52.6 11.7 C 52.9 9.4 54.7 8.3 57.2 8.3 C 59.8 8.3 61.3 9.5 61.3 12 C 61.32 11.99 61.3 19.8 61.3 19.8 L 59.8 19.8 C 59.8 19.8 59.83 17.72 59.8 17.7 Z M 58 14.3 C 58 14.3 56.2 14.5 56.2 14.5 C 54.8 14.7 53.7 15.2 53.7 16.6 C 53.7 18 54.8 18.6 56.1 18.6 C 57.8 18.6 59.8 17.3 59.8 14.9 C 59.8 14.9 59.8 13.8 59.8 13.8 C 59.4 14.1 58.7 14.2 58 14.3 Z M 76.6 17.7 C 75.8 19.4 74.1 20 72.6 20 C 70.7 20 69 18.9 69 16.7 C 69 14.6 70.5 13.6 72.4 13.4 C 72.4 13.4 75.1 13 75.1 13 C 75.9 12.9 76.6 12.6 76.6 11.6 C 76.6 10.3 75.5 9.6 73.9 9.6 C 72.2 9.6 71.2 10.4 71 11.7 C 71 11.7 69.4 11.7 69.4 11.7 C 69.7 9.4 71.5 8.3 74 8.3 C 76.6 8.3 78.1 9.5 78.1 12 C 78.14 11.99 78.1 19.8 78.1 19.8 L 76.6 19.8 C 76.6 19.8 76.65 17.72 76.6 17.7 Z M 74.8 14.3 C 74.8 14.3 73.1 14.5 73.1 14.5 C 71.6 14.7 70.6 15.2 70.6 16.6 C 70.6 18 71.7 18.6 72.9 18.6 C 74.7 18.6 76.6 17.3 76.6 14.9 C 76.6 14.9 76.6 13.8 76.6 13.8 C 76.2 14.1 75.5 14.2 74.8 14.3 Z M 90.6 20 C 87.5 20 85.4 17.7 85.4 14.2 C 85.4 10.6 87.5 8.3 90.7 8.3 C 93.2 8.3 95.2 9.7 95.4 12.2 C 95.4 12.2 93.9 12.2 93.9 12.2 C 93.7 10.6 92.4 9.7 90.7 9.7 C 88.5 9.7 86.9 11.4 86.9 14.1 C 86.9 16.9 88.5 18.6 90.7 18.6 C 92.4 18.6 93.8 17.6 93.9 15.8 C 93.9 15.8 95.4 15.8 95.4 15.8 C 95.2 18.5 93.1 20 90.6 20 Z M 97.3 14.2 C 97.3 10.5 99.5 8.3 102.6 8.3 C 105.7 8.3 108 10.5 108 14.2 C 108 17.8 105.8 20 102.6 20 C 99.5 20 97.3 17.8 97.3 14.2 Z M 106.4 14.1 C 106.4 11.3 104.7 9.7 102.6 9.7 C 100.4 9.7 98.9 11.4 98.9 14.2 C 98.9 17 100.6 18.6 102.7 18.6 C 104.9 18.6 106.4 16.9 106.4 14.1 Z M 110.6 8.5 L 112.1 8.5 C 112.1 8.5 112.12 10.37 112.1 10.4 C 112.7 9 114 8.3 115.4 8.3 C 117.1 8.3 118.4 9.2 118.7 10.6 C 119.2 9.4 120.5 8.3 122.4 8.3 C 124.5 8.3 126.1 9.4 126.1 11.7 C 126.08 11.7 126.1 19.8 126.1 19.8 L 124.5 19.8 C 124.5 19.8 124.55 12.24 124.5 12.2 C 124.5 10.5 123.5 9.7 122.2 9.7 C 120.5 9.7 119.1 11 119.1 13.3 C 119.09 13.33 119.1 19.8 119.1 19.8 L 117.6 19.8 C 117.6 19.8 117.58 12.24 117.6 12.2 C 117.6 10.5 116.5 9.7 115.2 9.7 C 113.5 9.7 112.1 10.9 112.1 13.3 C 112.14 13.33 112.1 19.8 112.1 19.8 L 110.6 19.8 L 110.6 8.5 Z M 139.9 14.1 C 139.9 17.6 137.8 20 134.8 20 C 132.7 20 131.4 18.9 130.8 17.7 C 130.81 17.7 130.8 19.8 130.8 19.8 L 129.3 19.8 L 129.3 3.8 L 130.9 3.8 C 130.9 3.8 130.87 10.77 130.9 10.8 C 131.4 9.4 132.9 8.3 134.9 8.3 C 137.8 8.3 139.9 10.5 139.9 14.1 Z M 138.3 14.2 C 138.3 11.4 136.8 9.8 134.6 9.8 C 132.4 9.8 130.9 11.4 130.9 14.2 C 130.9 17 132.4 18.7 134.6 18.7 C 136.8 18.7 138.3 16.9 138.3 14.2 Z M 149.4 17.7 C 148.5 19.4 146.8 20 145.4 20 C 143.5 20 141.7 18.9 141.7 16.7 C 141.7 14.6 143.2 13.6 145.2 13.4 C 145.2 13.4 147.8 13 147.8 13 C 148.7 12.9 149.4 12.6 149.4 11.6 C 149.4 10.3 148.3 9.6 146.7 9.6 C 145 9.6 144 10.4 143.7 11.7 C 143.7 11.7 142.2 11.7 142.2 11.7 C 142.5 9.4 144.3 8.3 146.8 8.3 C 149.4 8.3 150.9 9.5 150.9 12 C 150.9 11.99 150.9 19.8 150.9 19.8 L 149.4 19.8 C 149.4 19.8 149.41 17.72 149.4 17.7 Z M 147.5 14.3 C 147.5 14.3 145.8 14.5 145.8 14.5 C 144.4 14.7 143.3 15.2 143.3 16.6 C 143.3 18 144.4 18.6 145.7 18.6 C 147.4 18.6 149.4 17.3 149.4 14.9 C 149.4 14.9 149.4 13.8 149.4 13.8 C 149 14.1 148.3 14.2 147.5 14.3 Z M 159.2 19.8 C 159.2 19.8 157.54 19.78 157.5 19.8 C 156 19.8 154.7 19.3 154.7 16.8 C 154.71 16.82 154.7 9.9 154.7 9.9 L 152.5 9.9 L 152.5 8.5 L 154.7 8.5 L 154.7 5.3 L 156.2 4.9 L 156.2 8.5 L 159 8.5 L 159 9.9 L 156.2 9.9 C 156.2 9.9 156.24 16.8 156.2 16.8 C 156.2 17.8 156.5 18.4 157.8 18.4 C 157.79 18.4 159.2 18.4 159.2 18.4 L 159.2 19.8 Z M 163 3.8 L 161.3 3.8 L 161.3 5.7 L 163 5.7 L 163 3.8 Z M 162.9 19.8 L 161.4 19.8 L 161.4 8.5 L 162.9 8.5 L 162.9 19.8 Z M 171.9 9.8 C 171.9 9.8 171.57 9.83 171.6 9.8 C 169.2 9.8 167.8 11.2 167.8 13.8 C 167.83 13.8 167.8 19.8 167.8 19.8 L 166.3 19.8 L 166.3 8.5 L 167.8 8.5 C 167.8 8.5 167.81 10.58 167.8 10.6 C 168.3 9.1 169.7 8.4 171.4 8.4 C 171.44 8.38 171.9 8.4 171.9 8.4 L 171.9 9.8 Z M 172.6 21.7 L 179.5 2.4 L 180.9 2.4 L 174 21.7 L 172.6 21.7 Z M 188.3 9.8 C 188.3 9.8 187.97 9.83 188 9.8 C 185.6 9.8 184.2 11.2 184.2 13.8 C 184.23 13.8 184.2 19.8 184.2 19.8 L 182.7 19.8 L 182.7 8.5 L 184.2 8.5 C 184.2 8.5 184.21 10.58 184.2 10.6 C 184.7 9.1 186.1 8.4 187.8 8.4 C 187.84 8.38 188.3 8.4 188.3 8.4 L 188.3 9.8 Z M 190.9 14.5 C 190.9 17.3 192.7 18.6 194.6 18.6 C 196.1 18.6 197.6 17.9 197.9 16.3 C 197.9 16.3 199.4 16.3 199.4 16.3 C 198.9 18.9 196.7 20 194.6 20 C 191.9 20 189.4 18.2 189.4 14.2 C 189.4 10.1 191.9 8.3 194.6 8.3 C 197.3 8.3 199.5 10 199.5 13.8 C 199.48 13.75 199.5 14.5 199.5 14.5 C 199.5 14.5 190.89 14.51 190.9 14.5 Z M 190.9 13.2 C 190.9 13.2 197.9 13.2 197.9 13.2 C 197.9 10.9 196.5 9.7 194.6 9.7 C 192.8 9.7 191.1 10.8 190.9 13.2 Z M 211.9 19.8 L 210.4 19.8 C 210.4 19.8 210.44 17.6 210.4 17.6 C 209.9 18.9 208.5 20 206.4 20 C 203.5 20 201.4 17.7 201.4 14.1 C 201.4 10.6 203.5 8.3 206.4 8.3 C 208.4 8.3 209.8 9.2 210.4 10.4 C 210.38 10.42 210.4 3.8 210.4 3.8 L 211.9 3.8 L 211.9 19.8 Z M 210.4 14.1 C 210.4 11.3 208.8 9.7 206.6 9.7 C 204.4 9.7 202.9 11.4 202.9 14.1 C 202.9 16.9 204.5 18.6 206.6 18.6 C 208.8 18.6 210.4 16.9 210.4 14.1 Z M 222.7 19.8 C 222.7 19.8 222.68 17.64 222.7 17.6 C 221.9 19.2 220.5 19.9 218.9 19.9 C 216.8 19.9 215.2 18.6 215.2 16 C 215.16 15.96 215.2 8.5 215.2 8.5 L 216.7 8.5 C 216.7 8.5 216.7 15.77 216.7 15.8 C 216.7 17.6 217.7 18.6 219.2 18.6 C 221 18.6 222.6 17.2 222.6 14.3 C 222.62 14.34 222.6 8.5 222.6 8.5 L 224.2 8.5 L 224.2 19.8 L 222.7 19.8 Z M 232 20 C 228.9 20 226.8 17.7 226.8 14.2 C 226.8 10.6 228.9 8.3 232.1 8.3 C 234.6 8.3 236.6 9.7 236.8 12.2 C 236.8 12.2 235.3 12.2 235.3 12.2 C 235.1 10.6 233.7 9.7 232.1 9.7 C 229.9 9.7 228.3 11.4 228.3 14.1 C 228.3 16.9 229.9 18.6 232.1 18.6 C 233.8 18.6 235.2 17.6 235.3 15.8 C 235.3 15.8 236.8 15.8 236.8 15.8 C 236.6 18.5 234.5 20 232 20 Z M 241.1 3.8 L 239.3 3.8 L 239.3 5.7 L 241.1 5.7 L 241.1 3.8 Z M 241 19.8 L 239.4 19.8 L 239.4 8.5 L 241 8.5 L 241 19.8 Z M 249.9 9.8 C 249.9 9.8 249.58 9.83 249.6 9.8 C 247.2 9.8 245.8 11.2 245.8 13.8 C 245.84 13.8 245.8 19.8 245.8 19.8 L 244.3 19.8 L 244.3 8.5 L 245.8 8.5 C 245.8 8.5 245.82 10.58 245.8 10.6 C 246.3 9.1 247.7 8.4 249.5 8.4 C 249.46 8.38 249.9 8.4 249.9 8.4 L 249.9 9.8 Z " stroke="none" fill="#000"/>  </g></svg>