<?xml version="1.0" standalone="no"?><!DOCTYPE svg PUBLIC "-//W3C//DTD SVG 1.1//EN" "http://www.w3.org/Graphics/SVG/1.1/DTD/svg11.dtd"><svg xmlns="http://www.w3.org/2000/svg" version="1.1" width="51px" height="53.7px" viewBox="0 -1 51 53.7" style="top:-1px">  <desc>4 7</desc>  <defs/>  <g id="Polygon13034">    <path d="M 22.9 27.7 L 22.9 32 L 18.9 32 L 18.9 27.7 L 8.8 27.7 L 8.8 24.5 L 18.6 9.9 L 22.9 9.9 L 22.9 24 L 25.8 24 L 25.8 27.7 L 22.9 27.7 Z M 18.9 24 L 18.9 15.3 L 13.1 24 L 18.9 24 Z M 27.2 27.4 L 31.7 27.4 L 31.7 32 L 27.2 32 L 27.2 27.4 Z M 49.8 13.8 L 41 32 L 36.9 32 L 45.6 13.9 L 33.4 13.9 L 33.4 9.9 L 49.8 9.9 L 49.8 13.8 Z " stroke="none" fill="#000"/>  </g></svg>