<?xml version="1.0" standalone="no"?><!DOCTYPE svg PUBLIC "-//W3C//DTD SVG 1.1//EN" "http://www.w3.org/Graphics/SVG/1.1/DTD/svg11.dtd"><svg xmlns="http://www.w3.org/2000/svg" version="1.1" width="348px" height="86.4px" viewBox="0 0 348 86.4">  <desc>Y a-t-il des classes d actifs secteurs viter</desc>  <defs/>  <g id="Polygon11693">    <path d="M 10.6 41.4 C 10.6 44 8.3 45.2 5.7 45.2 C 3.3 45.2 0.7 44.2 0.5 41.3 C 0.5 41.3 3.3 41.3 3.3 41.3 C 3.5 42.4 4.6 42.9 5.9 42.9 C 7 42.9 7.9 42.5 7.9 41.7 C 7.9 40.9 7.3 40.8 5.7 40.5 C 3.5 40.1 0.9 39.7 0.9 36.9 C 0.9 34.3 3.1 33.2 5.5 33.2 C 8.2 33.2 10.2 34.5 10.4 37.1 C 10.4 37.1 7.6 37.1 7.6 37.1 C 7.5 36 6.7 35.5 5.5 35.5 C 4.1 35.5 3.6 36.1 3.6 36.8 C 3.6 37.7 4.6 37.9 6 38.1 C 8.1 38.4 10.6 38.7 10.6 41.4 Z M 14.5 40 C 14.6 41.9 15.9 42.8 17.5 42.8 C 18.6 42.8 19.6 42.4 19.9 41.3 C 19.9 41.3 22.5 41.3 22.5 41.3 C 22 43.9 19.7 45.2 17.3 45.2 C 14.6 45.2 11.8 43.3 11.8 39.2 C 11.8 35.2 14.4 33.2 17.4 33.2 C 20.2 33.2 22.6 35 22.6 38.9 C 22.55 38.89 22.6 40 22.6 40 C 22.6 40 14.49 40.03 14.5 40 Z M 14.6 38 C 14.6 38 19.8 38 19.8 38 C 19.8 36.5 18.8 35.6 17.3 35.6 C 16 35.6 14.8 36.3 14.6 38 Z M 29.4 45.2 C 25.6 45.2 23.8 42.3 23.8 39.2 C 23.8 36.1 25.6 33.2 29.4 33.2 C 32.3 33.2 34.4 34.8 34.5 37.6 C 34.5 37.6 31.8 37.6 31.8 37.6 C 31.7 36.5 30.9 35.7 29.5 35.7 C 27.5 35.7 26.6 37.4 26.6 39.2 C 26.6 41.1 27.5 42.6 29.5 42.6 C 30.8 42.6 31.6 41.9 31.8 40.9 C 31.8 40.9 34.6 40.9 34.6 40.9 C 34.3 43.7 32.2 45.2 29.4 45.2 Z M 42.5 45 C 42.5 45 40.72 44.98 40.7 45 C 38.6 45 37.2 44.3 37.2 41.2 C 37.17 41.2 37.2 35.9 37.2 35.9 L 35 35.9 L 35 33.4 L 37.2 33.4 L 37.2 30.8 L 40 30 L 40 33.4 L 42.3 33.4 L 42.3 35.9 L 40 35.9 C 40 35.9 39.96 41.33 40 41.3 C 40 42 40.2 42.5 41.1 42.5 C 41.14 42.5 42.5 42.5 42.5 42.5 L 42.5 45 Z M 46.1 40 C 46.2 41.9 47.5 42.8 49.1 42.8 C 50.2 42.8 51.2 42.4 51.6 41.3 C 51.6 41.3 54.1 41.3 54.1 41.3 C 53.6 43.9 51.3 45.2 49 45.2 C 46.2 45.2 43.4 43.3 43.4 39.2 C 43.4 35.2 46 33.2 49 33.2 C 51.8 33.2 54.2 35 54.2 38.9 C 54.16 38.89 54.2 40 54.2 40 C 54.2 40 46.09 40.03 46.1 40 Z M 46.2 38 C 46.2 38 51.4 38 51.4 38 C 51.4 36.5 50.4 35.6 48.9 35.6 C 47.6 35.6 46.4 36.3 46.2 38 Z M 66.3 45 L 63.6 45 C 63.6 45 63.57 43.34 63.6 43.3 C 62.9 44.4 61.8 45.1 60.2 45.1 C 57.8 45.1 56 43.6 56 40.6 C 56.05 40.59 56 33.4 56 33.4 L 58.8 33.4 C 58.8 33.4 58.84 40.38 58.8 40.4 C 58.8 42 59.6 42.6 60.8 42.6 C 62.4 42.6 63.5 41.7 63.5 39 C 63.5 39 63.5 33.4 63.5 33.4 L 66.3 33.4 L 66.3 45 Z M 75.6 36 C 75.6 36 74.84 35.97 74.8 36 C 72.9 36 71.8 37 71.8 39.3 C 71.82 39.31 71.8 45 71.8 45 L 69 45 L 69 33.4 L 71.8 33.4 C 71.8 33.4 71.8 35.05 71.8 35 C 72.4 33.8 73.5 33.3 74.8 33.3 C 74.82 33.26 75.6 33.3 75.6 33.3 L 75.6 36 Z M 86.2 41.4 C 86.2 44 83.9 45.2 81.3 45.2 C 78.9 45.2 76.3 44.2 76.1 41.3 C 76.1 41.3 78.9 41.3 78.9 41.3 C 79.1 42.4 80.1 42.9 81.4 42.9 C 82.6 42.9 83.5 42.5 83.5 41.7 C 83.5 40.9 82.9 40.8 81.3 40.5 C 79 40.1 76.5 39.7 76.5 36.9 C 76.5 34.3 78.7 33.2 81.1 33.2 C 83.8 33.2 85.8 34.5 85.9 37.1 C 85.9 37.1 83.2 37.1 83.2 37.1 C 83.1 36 82.3 35.5 81.1 35.5 C 79.7 35.5 79.2 36.1 79.2 36.8 C 79.2 37.7 80.2 37.9 81.6 38.1 C 83.7 38.4 86.2 38.7 86.2 41.4 Z M 94.4 28 L 96.6 26.3 L 99.8 31.3 L 97.4 31.3 L 94.4 28 Z M 102.6 37.2 C 102.61 37.19 102.6 45 102.6 45 L 99.9 45 C 99.9 45 99.88 43.3 99.9 43.3 C 99 44.8 97.6 45.2 96.4 45.2 C 94.5 45.2 92.6 44.1 92.6 41.6 C 92.6 39.8 93.6 38.6 96.3 38.2 C 96.3 38.2 98.8 37.8 98.8 37.8 C 99.5 37.7 100 37.5 100 36.8 C 100 35.8 99.1 35.4 98 35.4 C 96.5 35.4 95.9 36.1 95.8 37.1 C 95.8 37.1 93.1 37.1 93.1 37.1 C 93.4 34.4 95.5 33.2 98.2 33.2 C 100.9 33.2 102.6 34.5 102.6 37.2 Z M 99.9 40.1 C 99.9 40.1 99.9 39.5 99.9 39.5 C 99.6 39.6 99.1 39.8 98.5 39.8 C 98.5 39.8 97.3 40 97.3 40 C 95.9 40.2 95.4 40.8 95.4 41.5 C 95.4 42.4 96.1 42.9 97 42.9 C 98.5 42.9 99.9 41.8 99.9 40.1 Z M 113.6 31.3 L 116.8 26.3 L 118.9 28 L 115.9 31.3 L 113.6 31.3 Z M 111.9 40 C 112 41.9 113.3 42.8 114.9 42.8 C 116 42.8 117.1 42.4 117.4 41.3 C 117.4 41.3 120 41.3 120 41.3 C 119.4 43.9 117.2 45.2 114.8 45.2 C 112 45.2 109.2 43.3 109.2 39.2 C 109.2 35.2 111.8 33.2 114.8 33.2 C 117.6 33.2 120 35 120 38.9 C 119.99 38.89 120 40 120 40 C 120 40 111.93 40.03 111.9 40 Z M 112 38 C 112 38 117.3 38 117.3 38 C 117.3 36.5 116.2 35.6 114.8 35.6 C 113.5 35.6 112.2 36.3 112 38 Z M 127.9 45 L 124.9 45 L 120.6 33.4 L 123.6 33.4 L 126.4 41.7 L 129.3 33.4 L 132.2 33.4 L 127.9 45 Z M 133.4 31.9 L 136.4 31.9 L 136.4 28.7 L 133.4 28.7 L 133.4 31.9 Z M 133.5 33.4 L 136.3 33.4 L 136.3 45 L 133.5 45 L 133.5 33.4 Z M 144.9 45 C 144.9 45 143.11 44.98 143.1 45 C 141 45 139.6 44.3 139.6 41.2 C 139.56 41.2 139.6 35.9 139.6 35.9 L 137.4 35.9 L 137.4 33.4 L 139.6 33.4 L 139.6 30.8 L 142.4 30 L 142.4 33.4 L 144.7 33.4 L 144.7 35.9 L 142.4 35.9 C 142.4 35.9 142.36 41.33 142.4 41.3 C 142.4 42 142.5 42.5 143.5 42.5 C 143.53 42.5 144.9 42.5 144.9 42.5 L 144.9 45 Z M 148.5 40 C 148.6 41.9 149.9 42.8 151.5 42.8 C 152.6 42.8 153.6 42.4 153.9 41.3 C 153.9 41.3 156.5 41.3 156.5 41.3 C 156 43.9 153.7 45.2 151.3 45.2 C 148.6 45.2 145.8 43.3 145.8 39.2 C 145.8 35.2 148.4 33.2 151.4 33.2 C 154.2 33.2 156.6 35 156.6 38.9 C 156.55 38.89 156.6 40 156.6 40 C 156.6 40 148.49 40.03 148.5 40 Z M 148.6 38 C 148.6 38 153.8 38 153.8 38 C 153.8 36.5 152.8 35.6 151.3 35.6 C 150 35.6 148.8 36.3 148.6 38 Z M 165.1 36 C 165.1 36 164.37 35.97 164.4 36 C 162.4 36 161.3 37 161.3 39.3 C 161.34 39.31 161.3 45 161.3 45 L 158.5 45 L 158.5 33.4 L 161.3 33.4 C 161.3 33.4 161.32 35.05 161.3 35 C 161.9 33.8 163 33.3 164.3 33.3 C 164.34 33.26 165.1 33.3 165.1 33.3 L 165.1 36 Z M 174.3 39.4 C 174.3 36.7 175.6 36.2 176.9 35.3 C 177.9 34.6 178.3 34 178.3 33.2 C 178.3 32 177.5 31.4 176.3 31.4 C 174.8 31.4 173.9 32.2 173.8 33.6 C 173.8 33.6 171 33.6 171 33.6 C 171.3 30.2 173.7 29 176.3 29 C 179.1 29 181.3 30.3 181.3 33.1 C 181.3 35.3 179.9 36.2 178.5 37.2 C 177.4 38 176.9 38.5 176.9 39.4 C 176.94 39.44 176.9 40.1 176.9 40.1 L 174.3 40.1 C 174.3 40.1 174.28 39.35 174.3 39.4 Z M 174 41.7 L 177.2 41.7 L 177.2 45 L 174 45 L 174 41.7 Z " stroke="none" fill="#000"/>  </g>  <g id="Polygon11692">    <path d="M 8.8 13.8 L 8.8 19.8 L 5.9 19.8 L 5.9 13.8 L 0.2 4 L 3.5 4 L 7.4 11.1 L 11.2 4 L 14.5 4 L 8.8 13.8 Z M 30.4 12 C 30.37 11.99 30.4 19.8 30.4 19.8 L 27.6 19.8 C 27.6 19.8 27.64 18.1 27.6 18.1 C 26.7 19.6 25.3 20 24.1 20 C 22.3 20 20.4 18.9 20.4 16.4 C 20.4 14.6 21.4 13.4 24.1 13 C 24.1 13 26.6 12.6 26.6 12.6 C 27.3 12.5 27.7 12.3 27.7 11.6 C 27.7 10.6 26.9 10.2 25.8 10.2 C 24.3 10.2 23.6 10.9 23.5 11.9 C 23.5 11.9 20.8 11.9 20.8 11.9 C 21.1 9.2 23.3 8 25.9 8 C 28.6 8 30.4 9.3 30.4 12 Z M 27.7 14.9 C 27.7 14.9 27.7 14.3 27.7 14.3 C 27.4 14.4 26.9 14.6 26.3 14.6 C 26.3 14.6 25 14.8 25 14.8 C 23.6 15 23.2 15.6 23.2 16.3 C 23.2 17.2 23.8 17.7 24.8 17.7 C 26.2 17.7 27.7 16.6 27.7 14.9 Z M 39 11.9 L 32.6 11.9 L 32.6 14.4 L 39 14.4 L 39 11.9 Z M 47.4 19.8 C 47.4 19.8 45.55 19.78 45.5 19.8 C 43.4 19.8 42 19.1 42 16 C 42 16 42 10.7 42 10.7 L 39.9 10.7 L 39.9 8.2 L 42 8.2 L 42 5.6 L 44.8 4.8 L 44.8 8.2 L 47.1 8.2 L 47.1 10.7 L 44.8 10.7 C 44.8 10.7 44.79 16.13 44.8 16.1 C 44.8 16.8 45 17.3 46 17.3 C 45.97 17.3 47.4 17.3 47.4 17.3 L 47.4 19.8 Z M 55.1 11.9 L 48.6 11.9 L 48.6 14.4 L 55.1 14.4 L 55.1 11.9 Z M 57.4 6.7 L 60.4 6.7 L 60.4 3.5 L 57.4 3.5 L 57.4 6.7 Z M 57.5 8.2 L 60.3 8.2 L 60.3 19.8 L 57.5 19.8 L 57.5 8.2 Z M 65.8 19.8 L 63 19.8 L 63 3.8 L 65.8 3.8 L 65.8 19.8 Z M 84.4 19.8 L 81.7 19.8 C 81.7 19.8 81.69 18 81.7 18 C 81.1 19.3 79.7 20 78.1 20 C 75.4 20 73 18 73 14 C 73 10 75.4 8 78.1 8 C 79.6 8 80.9 8.6 81.6 9.7 C 81.63 9.72 81.6 3.8 81.6 3.8 L 84.4 3.8 L 84.4 19.8 Z M 81.7 14 C 81.7 11.6 80.3 10.5 78.8 10.5 C 77.3 10.5 75.9 11.6 75.9 14 C 75.9 16.3 77.3 17.5 78.8 17.5 C 80.3 17.5 81.7 16.3 81.7 14 Z M 89.1 14.8 C 89.2 16.7 90.5 17.6 92.1 17.6 C 93.2 17.6 94.2 17.2 94.6 16.1 C 94.6 16.1 97.1 16.1 97.1 16.1 C 96.6 18.7 94.4 20 92 20 C 89.2 20 86.4 18.1 86.4 14 C 86.4 10 89 8 92 8 C 94.8 8 97.2 9.8 97.2 13.7 C 97.19 13.69 97.2 14.8 97.2 14.8 C 97.2 14.8 89.12 14.83 89.1 14.8 Z M 89.2 12.8 C 89.2 12.8 94.5 12.8 94.5 12.8 C 94.5 11.3 93.4 10.4 92 10.4 C 90.7 10.4 89.4 11.1 89.2 12.8 Z M 108.4 16.2 C 108.4 18.8 106.1 20 103.5 20 C 101.1 20 98.5 19 98.3 16.1 C 98.3 16.1 101.2 16.1 101.2 16.1 C 101.3 17.2 102.4 17.7 103.7 17.7 C 104.9 17.7 105.7 17.3 105.7 16.5 C 105.7 15.7 105.1 15.6 103.5 15.3 C 101.3 14.9 98.7 14.5 98.7 11.7 C 98.7 9.1 100.9 8 103.3 8 C 106 8 108 9.3 108.2 11.9 C 108.2 11.9 105.4 11.9 105.4 11.9 C 105.3 10.8 104.5 10.3 103.3 10.3 C 102 10.3 101.4 10.9 101.4 11.6 C 101.4 12.5 102.4 12.7 103.8 12.9 C 105.9 13.2 108.4 13.5 108.4 16.2 Z M 120.1 20 C 116.3 20 114.4 17.1 114.4 14 C 114.4 10.9 116.2 8 120 8 C 122.9 8 125.1 9.6 125.2 12.4 C 125.2 12.4 122.4 12.4 122.4 12.4 C 122.3 11.3 121.5 10.5 120.1 10.5 C 118.1 10.5 117.2 12.2 117.2 14 C 117.2 15.9 118.1 17.4 120.1 17.4 C 121.4 17.4 122.3 16.7 122.4 15.7 C 122.4 15.7 125.2 15.7 125.2 15.7 C 124.9 18.5 122.8 20 120.1 20 Z M 130 19.8 L 127.2 19.8 L 127.2 3.8 L 130 3.8 L 130 19.8 Z M 142 12 C 142.02 11.99 142 19.8 142 19.8 L 139.3 19.8 C 139.3 19.8 139.29 18.1 139.3 18.1 C 138.4 19.6 137 20 135.8 20 C 133.9 20 132 18.9 132 16.4 C 132 14.6 133.1 13.4 135.7 13 C 135.7 13 138.2 12.6 138.2 12.6 C 138.9 12.5 139.4 12.3 139.4 11.6 C 139.4 10.6 138.6 10.2 137.4 10.2 C 136 10.2 135.3 10.9 135.2 11.9 C 135.2 11.9 132.5 11.9 132.5 11.9 C 132.8 9.2 134.9 8 137.6 8 C 140.3 8 142 9.3 142 12 Z M 139.3 14.9 C 139.3 14.9 139.3 14.3 139.3 14.3 C 139 14.4 138.5 14.6 137.9 14.6 C 137.9 14.6 136.7 14.8 136.7 14.8 C 135.3 15 134.8 15.6 134.8 16.3 C 134.8 17.2 135.5 17.7 136.4 17.7 C 137.9 17.7 139.3 16.6 139.3 14.9 Z M 153.8 16.2 C 153.8 18.8 151.5 20 148.9 20 C 146.5 20 143.9 19 143.7 16.1 C 143.7 16.1 146.5 16.1 146.5 16.1 C 146.7 17.2 147.7 17.7 149 17.7 C 150.2 17.7 151.1 17.3 151.1 16.5 C 151.1 15.7 150.5 15.6 148.9 15.3 C 146.6 14.9 144.1 14.5 144.1 11.7 C 144.1 9.1 146.3 8 148.7 8 C 151.4 8 153.4 9.3 153.5 11.9 C 153.5 11.9 150.8 11.9 150.8 11.9 C 150.7 10.8 149.9 10.3 148.7 10.3 C 147.3 10.3 146.8 10.9 146.8 11.6 C 146.8 12.5 147.8 12.7 149.2 12.9 C 151.3 13.2 153.8 13.5 153.8 16.2 Z M 165 16.2 C 165 18.8 162.6 20 160 20 C 157.6 20 155 19 154.9 16.1 C 154.9 16.1 157.7 16.1 157.7 16.1 C 157.9 17.2 158.9 17.7 160.2 17.7 C 161.4 17.7 162.2 17.3 162.2 16.5 C 162.2 15.7 161.7 15.6 160.1 15.3 C 157.8 14.9 155.2 14.5 155.2 11.7 C 155.2 9.1 157.4 8 159.8 8 C 162.5 8 164.5 9.3 164.7 11.9 C 164.7 11.9 161.9 11.9 161.9 11.9 C 161.8 10.8 161 10.3 159.8 10.3 C 158.5 10.3 157.9 10.9 157.9 11.6 C 157.9 12.5 158.9 12.7 160.4 12.9 C 162.4 13.2 165 13.5 165 16.2 Z M 168.8 14.8 C 168.9 16.7 170.2 17.6 171.8 17.6 C 172.9 17.6 173.9 17.2 174.3 16.1 C 174.3 16.1 176.8 16.1 176.8 16.1 C 176.3 18.7 174 20 171.7 20 C 168.9 20 166.1 18.1 166.1 14 C 166.1 10 168.7 8 171.7 8 C 174.5 8 176.9 9.8 176.9 13.7 C 176.88 13.69 176.9 14.8 176.9 14.8 C 176.9 14.8 168.82 14.83 168.8 14.8 Z M 168.9 12.8 C 168.9 12.8 174.2 12.8 174.2 12.8 C 174.2 11.3 173.1 10.4 171.7 10.4 C 170.4 10.4 169.1 11.1 168.9 12.8 Z M 188.1 16.2 C 188.1 18.8 185.8 20 183.2 20 C 180.8 20 178.2 19 178 16.1 C 178 16.1 180.8 16.1 180.8 16.1 C 181 17.2 182.1 17.7 183.4 17.7 C 184.5 17.7 185.4 17.3 185.4 16.5 C 185.4 15.7 184.8 15.6 183.2 15.3 C 181 14.9 178.4 14.5 178.4 11.7 C 178.4 9.1 180.6 8 183 8 C 185.7 8 187.7 9.3 187.9 11.9 C 187.9 11.9 185.1 11.9 185.1 11.9 C 185 10.8 184.2 10.3 183 10.3 C 181.6 10.3 181.1 10.9 181.1 11.6 C 181.1 12.5 182.1 12.7 183.5 12.9 C 185.6 13.2 188.1 13.5 188.1 16.2 Z M 205.5 19.8 L 202.8 19.8 C 202.8 19.8 202.77 18 202.8 18 C 202.1 19.3 200.8 20 199.2 20 C 196.5 20 194.1 18 194.1 14 C 194.1 10 196.5 8 199.2 8 C 200.7 8 202 8.6 202.7 9.7 C 202.71 9.72 202.7 3.8 202.7 3.8 L 205.5 3.8 L 205.5 19.8 Z M 202.8 14 C 202.8 11.6 201.4 10.5 199.9 10.5 C 198.3 10.5 197 11.6 197 14 C 197 16.3 198.3 17.5 199.9 17.5 C 201.4 17.5 202.8 16.3 202.8 14 Z M 209.7 6.1 C 209.72 6.07 208.3 6.1 208.3 6.1 L 208.3 3.1 L 211.5 3.1 C 211.5 3.1 211.51 5.67 211.5 5.7 C 211.5 8.7 209.5 9.7 207.6 10 C 207.6 10 207.3 8.5 207.3 8.5 C 208.8 8.3 209.7 7.4 209.7 6.1 Z M 222.6 12 C 222.56 11.99 222.6 19.8 222.6 19.8 L 219.8 19.8 C 219.8 19.8 219.83 18.1 219.8 18.1 C 218.9 19.6 217.5 20 216.3 20 C 214.5 20 212.6 18.9 212.6 16.4 C 212.6 14.6 213.6 13.4 216.3 13 C 216.3 13 218.8 12.6 218.8 12.6 C 219.4 12.5 219.9 12.3 219.9 11.6 C 219.9 10.6 219.1 10.2 218 10.2 C 216.5 10.2 215.8 10.9 215.7 11.9 C 215.7 11.9 213 11.9 213 11.9 C 213.3 9.2 215.5 8 218.1 8 C 220.8 8 222.6 9.3 222.6 12 Z M 219.8 14.9 C 219.8 14.9 219.8 14.3 219.8 14.3 C 219.6 14.4 219 14.6 218.5 14.6 C 218.5 14.6 217.2 14.8 217.2 14.8 C 215.8 15 215.4 15.6 215.4 16.3 C 215.4 17.2 216 17.7 217 17.7 C 218.4 17.7 219.8 16.6 219.8 14.9 Z M 230 20 C 226.2 20 224.3 17.1 224.3 14 C 224.3 10.9 226.1 8 229.9 8 C 232.8 8 235 9.6 235.1 12.4 C 235.1 12.4 232.3 12.4 232.3 12.4 C 232.2 11.3 231.4 10.5 230 10.5 C 228 10.5 227.2 12.2 227.2 14 C 227.2 15.9 228 17.4 230 17.4 C 231.4 17.4 232.2 16.7 232.4 15.7 C 232.4 15.7 235.1 15.7 235.1 15.7 C 234.8 18.5 232.8 20 230 20 Z M 243.1 19.8 C 243.1 19.8 241.24 19.78 241.2 19.8 C 239.1 19.8 237.7 19.1 237.7 16 C 237.7 16 237.7 10.7 237.7 10.7 L 235.6 10.7 L 235.6 8.2 L 237.7 8.2 L 237.7 5.6 L 240.5 4.8 L 240.5 8.2 L 242.8 8.2 L 242.8 10.7 L 240.5 10.7 C 240.5 10.7 240.49 16.13 240.5 16.1 C 240.5 16.8 240.7 17.3 241.7 17.3 C 241.66 17.3 243.1 17.3 243.1 17.3 L 243.1 19.8 Z M 244.5 6.7 L 247.5 6.7 L 247.5 3.5 L 244.5 3.5 L 244.5 6.7 Z M 244.6 8.2 L 247.4 8.2 L 247.4 19.8 L 244.6 19.8 L 244.6 8.2 Z M 254.5 6.3 C 253.5 6.3 253.3 6.7 253.3 7.4 C 253.28 7.43 253.3 8.2 253.3 8.2 L 255.4 8.2 L 255.4 10.7 L 253.3 10.7 L 253.3 19.8 L 250.5 19.8 L 250.5 10.7 L 248.8 10.7 L 248.8 8.2 L 250.5 8.2 C 250.5 8.2 250.48 7.56 250.5 7.6 C 250.5 4.5 251.9 3.8 254 3.8 C 254.03 3.78 255.7 3.8 255.7 3.8 L 255.7 6.3 C 255.7 6.3 254.45 6.26 254.5 6.3 Z M 266.3 16.2 C 266.3 18.8 264 20 261.4 20 C 259 20 256.4 19 256.2 16.1 C 256.2 16.1 259.1 16.1 259.1 16.1 C 259.2 17.2 260.3 17.7 261.6 17.7 C 262.7 17.7 263.6 17.3 263.6 16.5 C 263.6 15.7 263 15.6 261.4 15.3 C 259.2 14.9 256.6 14.5 256.6 11.7 C 256.6 9.1 258.8 8 261.2 8 C 263.9 8 265.9 9.3 266.1 11.9 C 266.1 11.9 263.3 11.9 263.3 11.9 C 263.2 10.8 262.4 10.3 261.2 10.3 C 259.9 10.3 259.3 10.9 259.3 11.6 C 259.3 12.5 260.3 12.7 261.7 12.9 C 263.8 13.2 266.3 13.5 266.3 16.2 Z M 275.9 2.4 L 273.8 2.4 L 266.9 21.7 L 268.9 21.7 L 275.9 2.4 Z " stroke="none" fill="#000"/>  </g></svg>