<?xml version="1.0" standalone="no"?><!DOCTYPE svg PUBLIC "-//W3C//DTD SVG 1.1//EN" "http://www.w3.org/Graphics/SVG/1.1/DTD/svg11.dtd"><svg xmlns="http://www.w3.org/2000/svg" version="1.1" width="368px" height="100.2px" viewBox="0 -4 368 100.2" style="top:-4px">  <desc>Andrea Florio Head of Market Intelligence, Banca Generali</desc>  <defs/>  <g id="Polygon12959">    <path d="M 14.8 75 C 14.8 77.6 12.8 80.3 9 80.2 C 8.98 80.23 2.2 80.2 2.2 80.2 L 2.2 62.2 C 2.2 62.2 9.29 62.21 9.3 62.2 C 12.5 62.2 14 64.2 14 66.3 C 14 67.9 13.1 69.7 11.4 70.5 C 13.7 71.3 14.8 73.2 14.8 75 Z M 8.5 69.9 C 11 69.9 12.2 68.3 12.2 66.7 C 12.2 65.2 11.2 63.8 9 63.8 C 8.95 63.82 4 63.8 4 63.8 L 4 69.9 C 4 69.9 8.47 69.89 8.5 69.9 Z M 12.9 75 C 12.9 73.2 11.6 71.5 9.2 71.5 C 9.17 71.5 4 71.5 4 71.5 L 4 78.6 C 4 78.6 8.98 78.55 9 78.6 C 11.7 78.6 12.9 76.8 12.9 75 Z M 25.8 77.9 C 24.8 79.8 22.9 80.5 21.3 80.5 C 19.1 80.5 17.1 79.2 17.1 76.6 C 17.1 74.3 18.8 73.2 21 72.9 C 21 72.9 24 72.5 24 72.5 C 25 72.3 25.8 72 25.8 70.9 C 25.8 69.4 24.5 68.5 22.7 68.5 C 20.8 68.5 19.6 69.5 19.3 70.9 C 19.3 70.9 17.6 70.9 17.6 70.9 C 18 68.4 20 67.1 22.8 67.1 C 25.8 67.1 27.6 68.4 27.6 71.3 C 27.55 71.3 27.6 80.2 27.6 80.2 L 25.8 80.2 C 25.8 80.2 25.85 77.86 25.8 77.9 Z M 23.7 73.9 C 23.7 73.9 21.7 74.2 21.7 74.2 C 20.1 74.4 18.9 75 18.9 76.6 C 18.9 78.2 20.1 78.9 21.6 78.9 C 23.6 78.9 25.8 77.4 25.8 74.6 C 25.8 74.6 25.8 73.4 25.8 73.4 C 25.3 73.7 24.6 73.8 23.7 73.9 Z M 41.6 71.4 C 41.62 71.38 41.6 80.2 41.6 80.2 L 39.9 80.2 C 39.9 80.2 39.86 71.59 39.9 71.6 C 39.9 69.8 38.9 68.7 37 68.7 C 34.8 68.7 32.9 70.3 32.9 73.4 C 32.9 73.44 32.9 80.2 32.9 80.2 L 31.2 80.2 L 31.2 67.3 L 32.9 67.3 C 32.9 67.3 32.9 69.72 32.9 69.7 C 33.7 68.2 35.1 67.1 37.4 67.1 C 39.9 67.1 41.6 68.5 41.6 71.4 Z M 50.5 80.5 C 46.9 80.5 44.5 77.8 44.5 73.8 C 44.5 69.8 46.9 67.1 50.6 67.1 C 53.5 67.1 55.8 68.6 55.9 71.6 C 55.9 71.6 54.2 71.6 54.2 71.6 C 54 69.7 52.5 68.6 50.6 68.6 C 48.1 68.6 46.3 70.6 46.3 73.8 C 46.3 76.9 48 78.9 50.6 78.9 C 52.5 78.9 54.1 77.7 54.2 75.7 C 54.2 75.7 55.9 75.7 55.9 75.7 C 55.8 78.8 53.3 80.5 50.5 80.5 Z M 66.9 77.9 C 65.9 79.8 63.9 80.5 62.3 80.5 C 60.1 80.5 58.1 79.2 58.1 76.6 C 58.1 74.3 59.8 73.2 62 72.9 C 62 72.9 65.1 72.5 65.1 72.5 C 66 72.3 66.9 72 66.9 70.9 C 66.9 69.4 65.5 68.5 63.7 68.5 C 61.8 68.5 60.6 69.5 60.4 70.9 C 60.4 70.9 58.6 70.9 58.6 70.9 C 59 68.4 61 67.1 63.9 67.1 C 66.8 67.1 68.6 68.4 68.6 71.3 C 68.57 71.3 68.6 80.2 68.6 80.2 L 66.9 80.2 C 66.9 80.2 66.86 77.86 66.9 77.9 Z M 64.7 73.9 C 64.7 73.9 62.8 74.2 62.8 74.2 C 61.1 74.4 59.9 75 59.9 76.6 C 59.9 78.2 61.2 78.9 62.6 78.9 C 64.6 78.9 66.8 77.4 66.8 74.6 C 66.8 74.6 66.8 73.4 66.8 73.4 C 66.3 73.7 65.6 73.8 64.7 73.9 Z M 92.8 71.2 L 92.8 80.2 L 91.2 80.2 C 91.2 80.2 91.15 77.52 91.2 77.5 C 90.1 79.4 88 80.7 85.1 80.7 C 79.7 80.7 76.8 76.2 76.8 71.1 C 76.8 65.5 80.4 61.8 85.4 61.8 C 89.1 61.8 92.4 63.8 92.8 67.6 C 92.8 67.6 90.9 67.6 90.9 67.6 C 90.6 65 88.2 63.5 85.4 63.5 C 81.6 63.5 78.7 66.4 78.7 71.1 C 78.7 75.3 81 79 85.3 79 C 88.7 79 91.1 76.7 91.1 72.8 C 91.1 72.84 85 72.8 85 72.8 L 85 71.2 L 92.8 71.2 Z M 97.7 74.2 C 97.7 77.4 99.7 78.9 102 78.9 C 103.7 78.9 105.4 78 105.7 76.2 C 105.7 76.2 107.4 76.2 107.4 76.2 C 106.8 79.2 104.3 80.5 101.9 80.5 C 98.8 80.5 96 78.4 96 73.8 C 96 69.2 98.9 67.1 102 67.1 C 105 67.1 107.5 69 107.5 73.3 C 107.49 73.32 107.5 74.2 107.5 74.2 C 107.5 74.2 97.68 74.18 97.7 74.2 Z M 97.7 72.7 C 97.7 72.7 105.7 72.7 105.7 72.7 C 105.7 70.1 104 68.6 101.9 68.6 C 99.9 68.6 98 69.9 97.7 72.7 Z M 121 71.4 C 120.96 71.38 121 80.2 121 80.2 L 119.2 80.2 C 119.2 80.2 119.21 71.59 119.2 71.6 C 119.2 69.8 118.2 68.7 116.4 68.7 C 114.2 68.7 112.2 70.3 112.2 73.4 C 112.25 73.44 112.2 80.2 112.2 80.2 L 110.5 80.2 L 110.5 67.3 L 112.2 67.3 C 112.2 67.3 112.25 69.72 112.2 69.7 C 113 68.2 114.5 67.1 116.7 67.1 C 119.3 67.1 121 68.5 121 71.4 Z M 125.6 74.2 C 125.6 77.4 127.6 78.9 129.9 78.9 C 131.6 78.9 133.2 78 133.6 76.2 C 133.6 76.2 135.3 76.2 135.3 76.2 C 134.7 79.2 132.2 80.5 129.8 80.5 C 126.7 80.5 123.8 78.4 123.8 73.8 C 123.8 69.2 126.7 67.1 129.8 67.1 C 132.9 67.1 135.4 69 135.4 73.3 C 135.38 73.32 135.4 74.2 135.4 74.2 C 135.4 74.2 125.57 74.18 125.6 74.2 Z M 125.6 72.7 C 125.6 72.7 133.6 72.7 133.6 72.7 C 133.6 70.1 131.9 68.6 129.8 68.6 C 127.8 68.6 125.9 69.9 125.6 72.7 Z M 144.8 68.8 C 144.8 68.8 144.41 68.83 144.4 68.8 C 141.7 68.8 140.1 70.4 140.1 73.4 C 140.13 73.37 140.1 80.2 140.1 80.2 L 138.4 80.2 L 138.4 67.3 L 140.1 67.3 C 140.1 67.3 140.11 69.7 140.1 69.7 C 140.7 68 142.3 67.2 144.3 67.2 C 144.26 67.18 144.8 67.2 144.8 67.2 L 144.8 68.8 Z M 155 77.9 C 154 79.8 152.1 80.5 150.4 80.5 C 148.2 80.5 146.3 79.2 146.3 76.6 C 146.3 74.3 148 73.2 150.2 72.9 C 150.2 72.9 153.2 72.5 153.2 72.5 C 154.2 72.3 155 72 155 70.9 C 155 69.4 153.7 68.5 151.9 68.5 C 150 68.5 148.8 69.5 148.5 70.9 C 148.5 70.9 146.8 70.9 146.8 70.9 C 147.1 68.4 149.2 67.1 152 67.1 C 154.9 67.1 156.7 68.4 156.7 71.3 C 156.72 71.3 156.7 80.2 156.7 80.2 L 155 80.2 C 155 80.2 155.01 77.86 155 77.9 Z M 152.9 73.9 C 152.9 73.9 150.9 74.2 150.9 74.2 C 149.3 74.4 148.1 75 148.1 76.6 C 148.1 78.2 149.3 78.9 150.7 78.9 C 152.7 78.9 155 77.4 155 74.6 C 155 74.6 155 73.4 155 73.4 C 154.5 73.7 153.7 73.8 152.9 73.9 Z M 162.1 80.2 L 160.3 80.2 L 160.3 61.9 L 162.1 61.9 L 162.1 80.2 Z M 167.8 61.9 L 165.8 61.9 L 165.8 64.1 L 167.8 64.1 L 167.8 61.9 Z M 167.7 80.2 L 165.9 80.2 L 165.9 67.3 L 167.7 67.3 L 167.7 80.2 Z " stroke="none" fill="#000"/>  </g>  <g id="Polygon12958">    <path d="M 15.7 51.4 L 13.8 51.4 L 13.8 43.2 L 4 43.2 L 4 51.4 L 2.2 51.4 L 2.2 33.4 L 4 33.4 L 4 41.5 L 13.8 41.5 L 13.8 33.4 L 15.7 33.4 L 15.7 51.4 Z M 20.6 45.4 C 20.7 48.6 22.7 50.1 24.9 50.1 C 26.6 50.1 28.3 49.2 28.7 47.4 C 28.7 47.4 30.4 47.4 30.4 47.4 C 29.8 50.4 27.3 51.7 24.8 51.7 C 21.8 51.7 18.9 49.6 18.9 45 C 18.9 40.4 21.8 38.3 24.9 38.3 C 28 38.3 30.5 40.2 30.5 44.5 C 30.46 44.52 30.5 45.4 30.5 45.4 C 30.5 45.4 20.64 45.38 20.6 45.4 Z M 20.7 43.9 C 20.7 43.9 28.7 43.9 28.7 43.9 C 28.7 41.3 27 39.8 24.8 39.8 C 22.8 39.8 20.9 41.1 20.7 43.9 Z M 41.4 49.1 C 40.4 51 38.4 51.7 36.8 51.7 C 34.6 51.7 32.6 50.4 32.6 47.8 C 32.6 45.5 34.3 44.4 36.5 44.1 C 36.5 44.1 39.6 43.7 39.6 43.7 C 40.5 43.5 41.4 43.2 41.4 42.1 C 41.4 40.6 40.1 39.7 38.3 39.7 C 36.3 39.7 35.1 40.7 34.9 42.1 C 34.9 42.1 33.1 42.1 33.1 42.1 C 33.5 39.6 35.5 38.3 38.4 38.3 C 41.3 38.3 43.1 39.6 43.1 42.5 C 43.08 42.5 43.1 51.4 43.1 51.4 L 41.4 51.4 C 41.4 51.4 41.38 49.06 41.4 49.1 Z M 39.2 45.1 C 39.2 45.1 37.3 45.4 37.3 45.4 C 35.6 45.6 34.4 46.2 34.4 47.8 C 34.4 49.4 35.7 50.1 37.1 50.1 C 39.1 50.1 41.3 48.6 41.3 45.8 C 41.3 45.8 41.3 44.6 41.3 44.6 C 40.8 44.9 40.1 45 39.2 45.1 Z M 57.9 51.4 L 56.2 51.4 C 56.2 51.4 56.21 48.91 56.2 48.9 C 55.6 50.4 54 51.7 51.6 51.7 C 48.2 51.7 45.8 49 45.8 45 C 45.8 40.9 48.2 38.3 51.6 38.3 C 53.8 38.3 55.4 39.4 56.1 40.7 C 56.14 40.7 56.1 33.1 56.1 33.1 L 57.9 33.1 L 57.9 51.4 Z M 56.1 44.9 C 56.1 41.7 54.3 39.9 51.9 39.9 C 49.3 39.9 47.6 41.8 47.6 45 C 47.6 48.1 49.4 50.1 51.9 50.1 C 54.4 50.1 56.1 48.1 56.1 44.9 Z M 66.9 45 C 66.9 40.8 69.4 38.3 73 38.3 C 76.5 38.3 79.1 40.8 79.1 45 C 79.1 49.2 76.6 51.7 73 51.7 C 69.5 51.7 66.9 49.2 66.9 45 Z M 77.3 44.9 C 77.3 41.7 75.4 39.9 73 39.9 C 70.4 39.9 68.7 41.9 68.7 45 C 68.7 48.2 70.6 50 73 50 C 75.5 50 77.3 48.1 77.3 44.9 Z M 86.2 34.7 C 84.8 34.7 84.4 35.3 84.4 36.5 C 84.43 36.53 84.4 38.5 84.4 38.5 L 87.3 38.5 L 87.3 40.1 L 84.4 40.1 L 84.4 51.4 L 82.7 51.4 L 82.7 40.1 L 80.5 40.1 L 80.5 38.5 L 82.7 38.5 C 82.7 38.5 82.68 36.48 82.7 36.5 C 82.7 33.6 84.2 33.1 85.9 33.1 C 85.92 33.12 87.6 33.1 87.6 33.1 L 87.6 34.7 C 87.6 34.7 86.21 34.68 86.2 34.7 Z M 113.2 51.4 L 111.4 51.4 L 111.4 35.8 L 105.3 51.4 L 103.9 51.4 L 97.9 35.8 L 97.9 51.4 L 96.1 51.4 L 96.1 33.4 L 98.9 33.4 L 104.6 48.6 L 110.4 33.4 L 113.2 33.4 L 113.2 51.4 Z M 125.2 49.1 C 124.2 51 122.2 51.7 120.6 51.7 C 118.4 51.7 116.4 50.4 116.4 47.8 C 116.4 45.5 118.1 44.4 120.3 44.1 C 120.3 44.1 123.4 43.7 123.4 43.7 C 124.3 43.5 125.2 43.2 125.2 42.1 C 125.2 40.6 123.9 39.7 122.1 39.7 C 120.1 39.7 118.9 40.7 118.7 42.1 C 118.7 42.1 116.9 42.1 116.9 42.1 C 117.3 39.6 119.4 38.3 122.2 38.3 C 125.1 38.3 126.9 39.6 126.9 42.5 C 126.89 42.5 126.9 51.4 126.9 51.4 L 125.2 51.4 C 125.2 51.4 125.18 49.06 125.2 49.1 Z M 123 45.1 C 123 45.1 121.1 45.4 121.1 45.4 C 119.4 45.6 118.2 46.2 118.2 47.8 C 118.2 49.4 119.5 50.1 120.9 50.1 C 122.9 50.1 125.1 48.6 125.1 45.8 C 125.1 45.8 125.1 44.6 125.1 44.6 C 124.7 44.9 123.9 45 123 45.1 Z M 136.9 40 C 136.9 40 136.51 40.03 136.5 40 C 133.8 40 132.2 41.6 132.2 44.6 C 132.24 44.57 132.2 51.4 132.2 51.4 L 130.5 51.4 L 130.5 38.5 L 132.2 38.5 C 132.2 38.5 132.22 40.9 132.2 40.9 C 132.8 39.2 134.4 38.4 136.4 38.4 C 136.37 38.38 136.9 38.4 136.9 38.4 L 136.9 40 Z M 143.3 45.1 L 141 47.6 L 141 51.4 L 139.2 51.4 L 139.2 33.1 L 141 33.1 L 141 45.4 L 147.3 38.5 L 149.5 38.5 L 144.5 43.9 L 149.9 51.4 L 147.8 51.4 L 143.3 45.1 Z M 152.6 45.4 C 152.7 48.6 154.6 50.1 156.9 50.1 C 158.6 50.1 160.3 49.2 160.7 47.4 C 160.7 47.4 162.3 47.4 162.3 47.4 C 161.8 50.4 159.3 51.7 156.8 51.7 C 153.7 51.7 150.9 49.6 150.9 45 C 150.9 40.4 153.8 38.3 156.9 38.3 C 159.9 38.3 162.4 40.2 162.4 44.5 C 162.43 44.52 162.4 45.4 162.4 45.4 C 162.4 45.4 152.62 45.38 152.6 45.4 Z M 152.7 43.9 C 152.7 43.9 160.7 43.9 160.7 43.9 C 160.7 41.3 159 39.8 156.8 39.8 C 154.8 39.8 152.9 41.1 152.7 43.9 Z M 171.3 51.4 C 171.3 51.4 169.41 51.41 169.4 51.4 C 167.7 51.4 166.2 50.9 166.2 48 C 166.17 48.02 166.2 40.1 166.2 40.1 L 163.6 40.1 L 163.6 38.5 L 166.2 38.5 L 166.2 34.9 L 167.9 34.4 L 167.9 38.5 L 171 38.5 L 171 40.1 L 167.9 40.1 C 167.9 40.1 167.93 48 167.9 48 C 167.9 49.2 168.3 49.8 169.7 49.8 C 169.7 49.82 171.3 49.8 171.3 49.8 L 171.3 51.4 Z M 182.3 51.4 L 180.4 51.4 L 180.4 33.4 L 182.3 33.4 L 182.3 51.4 Z M 196.9 42.6 C 196.92 42.58 196.9 51.4 196.9 51.4 L 195.2 51.4 C 195.2 51.4 195.17 42.79 195.2 42.8 C 195.2 41 194.2 39.9 192.3 39.9 C 190.1 39.9 188.2 41.5 188.2 44.6 C 188.21 44.64 188.2 51.4 188.2 51.4 L 186.5 51.4 L 186.5 38.5 L 188.2 38.5 C 188.2 38.5 188.21 40.92 188.2 40.9 C 189 39.4 190.4 38.3 192.7 38.3 C 195.2 38.3 196.9 39.7 196.9 42.6 Z M 206.5 51.4 C 206.5 51.4 204.62 51.41 204.6 51.4 C 202.9 51.4 201.4 50.9 201.4 48 C 201.38 48.02 201.4 40.1 201.4 40.1 L 198.8 40.1 L 198.8 38.5 L 201.4 38.5 L 201.4 34.9 L 203.1 34.4 L 203.1 38.5 L 206.3 38.5 L 206.3 40.1 L 203.1 40.1 C 203.1 40.1 203.13 48 203.1 48 C 203.1 49.2 203.5 49.8 204.9 49.8 C 204.91 49.82 206.5 49.8 206.5 49.8 L 206.5 51.4 Z M 209.9 45.4 C 210 48.6 211.9 50.1 214.2 50.1 C 215.9 50.1 217.6 49.2 218 47.4 C 218 47.4 219.6 47.4 219.6 47.4 C 219.1 50.4 216.6 51.7 214.1 51.7 C 211.1 51.7 208.2 49.6 208.2 45 C 208.2 40.4 211.1 38.3 214.2 38.3 C 217.2 38.3 219.7 40.2 219.7 44.5 C 219.74 44.52 219.7 45.4 219.7 45.4 C 219.7 45.4 209.93 45.38 209.9 45.4 Z M 210 43.9 C 210 43.9 218 43.9 218 43.9 C 218 41.3 216.3 39.8 214.1 39.8 C 212.1 39.8 210.2 41.1 210 43.9 Z M 224.5 51.4 L 222.7 51.4 L 222.7 33.1 L 224.5 33.1 L 224.5 51.4 Z M 230.1 51.4 L 228.3 51.4 L 228.3 33.1 L 230.1 33.1 L 230.1 51.4 Z M 235.8 33.1 L 233.8 33.1 L 233.8 35.3 L 235.8 35.3 L 235.8 33.1 Z M 235.7 51.4 L 233.9 51.4 L 233.9 38.5 L 235.7 38.5 L 235.7 51.4 Z M 250.6 50.8 C 250.6 54.7 248.1 56.6 244.8 56.6 C 241.9 56.6 239.4 55.2 239 52.2 C 239 52.2 240.7 52.2 240.7 52.2 C 241 53.8 242.2 55.2 244.8 55.2 C 247.1 55.2 248.9 54 248.9 50.9 C 248.9 50.9 248.9 48.4 248.9 48.4 C 248 50.3 246 50.9 244.4 50.9 C 241.2 50.9 238.7 48.8 238.7 44.6 C 238.7 40.4 241.4 38.3 244.4 38.3 C 246.5 38.3 248.1 39.2 248.9 40.6 C 248.88 40.61 248.9 38.5 248.9 38.5 L 250.6 38.5 C 250.6 38.5 250.6 50.83 250.6 50.8 Z M 248.8 44.6 C 248.8 41.3 246.9 39.8 244.7 39.8 C 242.5 39.8 240.4 41.4 240.4 44.6 C 240.4 47.8 242.4 49.3 244.7 49.3 C 246.7 49.3 248.8 48 248.8 44.6 Z M 255.2 45.4 C 255.3 48.6 257.2 50.1 259.5 50.1 C 261.2 50.1 262.9 49.2 263.3 47.4 C 263.3 47.4 264.9 47.4 264.9 47.4 C 264.4 50.4 261.9 51.7 259.4 51.7 C 256.3 51.7 253.5 49.6 253.5 45 C 253.5 40.4 256.4 38.3 259.5 38.3 C 262.5 38.3 265 40.2 265 44.5 C 265.03 44.52 265 45.4 265 45.4 C 265 45.4 255.21 45.38 255.2 45.4 Z M 255.3 43.9 C 255.3 43.9 263.3 43.9 263.3 43.9 C 263.3 41.3 261.6 39.8 259.4 39.8 C 257.4 39.8 255.5 41.1 255.3 43.9 Z M 278.5 42.6 C 278.49 42.58 278.5 51.4 278.5 51.4 L 276.7 51.4 C 276.7 51.4 276.74 42.79 276.7 42.8 C 276.7 41 275.7 39.9 273.9 39.9 C 271.7 39.9 269.8 41.5 269.8 44.6 C 269.78 44.64 269.8 51.4 269.8 51.4 L 268 51.4 L 268 38.5 L 269.8 38.5 C 269.8 38.5 269.78 40.92 269.8 40.9 C 270.5 39.4 272 38.3 274.2 38.3 C 276.8 38.3 278.5 39.7 278.5 42.6 Z M 287.3 51.7 C 283.8 51.7 281.4 49 281.4 45 C 281.4 41 283.8 38.3 287.5 38.3 C 290.3 38.3 292.6 39.8 292.8 42.8 C 292.8 42.8 291.1 42.8 291.1 42.8 C 290.9 40.9 289.3 39.8 287.5 39.8 C 284.9 39.8 283.1 41.8 283.1 45 C 283.1 48.1 284.9 50.1 287.4 50.1 C 289.4 50.1 290.9 48.9 291.1 46.9 C 291.1 46.9 292.8 46.9 292.8 46.9 C 292.6 50 290.2 51.7 287.3 51.7 Z M 296.7 45.4 C 296.8 48.6 298.7 50.1 301 50.1 C 302.7 50.1 304.4 49.2 304.8 47.4 C 304.8 47.4 306.4 47.4 306.4 47.4 C 305.9 50.4 303.4 51.7 300.9 51.7 C 297.8 51.7 295 49.6 295 45 C 295 40.4 297.9 38.3 301 38.3 C 304 38.3 306.5 40.2 306.5 44.5 C 306.52 44.52 306.5 45.4 306.5 45.4 C 306.5 45.4 296.71 45.38 296.7 45.4 Z M 296.8 43.9 C 296.8 43.9 304.7 43.9 304.7 43.9 C 304.7 41.3 303.1 39.8 300.9 39.8 C 298.9 39.8 297 41.1 296.8 43.9 Z M 310.8 51.3 C 310.77 51.26 309.6 51.3 309.6 51.3 L 309.6 48.9 L 312.2 48.9 C 312.2 48.9 312.16 51.34 312.2 51.3 C 312.2 54.2 310.5 55.2 308.7 55.4 C 308.7 55.4 308.4 54.3 308.4 54.3 C 310.4 53.9 310.8 52.8 310.8 51.3 Z " stroke="none" fill="#000"/>  </g>  <g id="Polygon12957">    <path d="M 13.1 18.6 L 5.5 18.6 L 4 22.6 L 0.5 22.6 L 7.4 4.6 L 11.1 4.6 L 18.3 22.6 L 14.6 22.6 L 13.1 18.6 Z M 11.9 15.5 L 9.3 8.4 L 6.6 15.5 L 11.9 15.5 Z M 32 14.1 C 31.97 14.06 32 22.6 32 22.6 L 28.8 22.6 C 28.8 22.6 28.78 14.35 28.8 14.4 C 28.8 12.9 27.9 12 26.4 12 C 24.6 12 23.5 13.3 23.5 15.5 C 23.52 15.46 23.5 22.6 23.5 22.6 L 20.3 22.6 L 20.3 9.4 L 23.5 9.4 C 23.5 9.4 23.5 11.28 23.5 11.3 C 24.2 10.1 25.3 9.1 27.5 9.1 C 30.6 9.1 32 10.9 32 14.1 Z M 47.1 22.6 L 44 22.6 C 44 22.6 44.02 20.57 44 20.6 C 43.3 22.1 41.8 22.9 39.9 22.9 C 36.8 22.9 34.1 20.6 34.1 16 C 34.1 11.4 36.8 9.1 39.9 9.1 C 41.7 9.1 43.2 9.8 43.9 11.1 C 43.94 11.11 43.9 4.3 43.9 4.3 L 47.1 4.3 L 47.1 22.6 Z M 44 16 C 44 13.2 42.4 12 40.7 12 C 39 12 37.4 13.3 37.4 16 C 37.4 18.6 39 20 40.7 20 C 42.4 20 44 18.7 44 16 Z M 57.7 12.3 C 57.7 12.3 56.9 12.31 56.9 12.3 C 54.7 12.3 53.4 13.5 53.4 16.1 C 53.45 16.13 53.4 22.6 53.4 22.6 L 50.3 22.6 L 50.3 9.4 L 53.4 9.4 C 53.4 9.4 53.42 11.26 53.4 11.3 C 54.1 9.8 55.3 9.2 56.9 9.2 C 56.88 9.22 57.7 9.2 57.7 9.2 L 57.7 12.3 Z M 61.3 16.9 C 61.4 19.1 62.9 20.1 64.7 20.1 C 66 20.1 67.2 19.6 67.6 18.4 C 67.6 18.4 70.5 18.4 70.5 18.4 C 69.9 21.3 67.3 22.9 64.6 22.9 C 61.4 22.9 58.2 20.7 58.2 16 C 58.2 11.5 61.2 9.1 64.6 9.1 C 67.8 9.1 70.5 11.3 70.5 15.6 C 70.54 15.65 70.5 16.9 70.5 16.9 C 70.5 16.9 61.32 16.94 61.3 16.9 Z M 61.4 14.6 C 61.4 14.6 67.4 14.6 67.4 14.6 C 67.4 12.9 66.2 11.9 64.6 11.9 C 63.1 11.9 61.7 12.7 61.4 14.6 Z M 83.4 13.7 C 83.4 13.7 83.4 22.6 83.4 22.6 L 80.3 22.6 C 80.3 22.6 80.28 20.69 80.3 20.7 C 79.2 22.4 77.7 22.9 76.3 22.9 C 74.2 22.9 72 21.6 72 18.8 C 72 16.7 73.2 15.3 76.2 14.8 C 76.2 14.8 79.1 14.4 79.1 14.4 C 79.8 14.3 80.4 14 80.4 13.2 C 80.4 12.1 79.4 11.6 78.2 11.6 C 76.5 11.6 75.7 12.5 75.6 13.6 C 75.6 13.6 72.5 13.6 72.5 13.6 C 72.8 10.5 75.3 9.1 78.3 9.1 C 81.4 9.1 83.4 10.6 83.4 13.7 Z M 80.3 17 C 80.3 17 80.3 16.3 80.3 16.3 C 80 16.5 79.4 16.6 78.7 16.7 C 78.7 16.7 77.3 16.9 77.3 16.9 C 75.7 17.1 75.2 17.8 75.2 18.6 C 75.2 19.7 75.9 20.2 77 20.2 C 78.7 20.2 80.3 19 80.3 17 Z M 95.9 22.6 L 92.5 22.6 L 92.5 4.6 L 104.6 4.6 L 104.6 7.7 L 95.9 7.7 L 95.9 11.9 L 104.2 11.9 L 104.2 15.1 L 95.9 15.1 L 95.9 22.6 Z M 109.4 22.6 L 106.2 22.6 L 106.2 4.3 L 109.4 4.3 L 109.4 22.6 Z M 124.6 16 C 124.6 20.3 121.8 22.9 118.1 22.9 C 114.4 22.9 111.6 20.3 111.6 16 C 111.6 11.7 114.4 9.1 118.1 9.1 C 121.8 9.1 124.6 11.7 124.6 16 Z M 114.9 16 C 114.9 18.7 116.4 19.9 118.2 19.9 C 120 19.9 121.3 18.5 121.3 16 C 121.3 13.3 119.9 12.1 118.1 12.1 C 116.2 12.1 114.9 13.5 114.9 16 Z M 134.4 12.3 C 134.4 12.3 133.51 12.31 133.5 12.3 C 131.3 12.3 130.1 13.5 130.1 16.1 C 130.05 16.13 130.1 22.6 130.1 22.6 L 126.9 22.6 L 126.9 9.4 L 130 9.4 C 130 9.4 130.03 11.26 130 11.3 C 130.7 9.8 131.9 9.2 133.5 9.2 C 133.49 9.22 134.4 9.2 134.4 9.2 L 134.4 12.3 Z M 135.8 7.6 L 139.2 7.6 L 139.2 4 L 135.8 4 L 135.8 7.6 Z M 135.9 9.4 L 139.1 9.4 L 139.1 22.6 L 135.9 22.6 L 135.9 9.4 Z M 154.3 16 C 154.3 20.3 151.5 22.9 147.8 22.9 C 144.1 22.9 141.3 20.3 141.3 16 C 141.3 11.7 144.1 9.1 147.8 9.1 C 151.5 9.1 154.3 11.7 154.3 16 Z M 144.6 16 C 144.6 18.7 146.1 19.9 147.8 19.9 C 149.7 19.9 151 18.5 151 16 C 151 13.3 149.5 12.1 147.8 12.1 C 145.9 12.1 144.6 13.5 144.6 16 Z " stroke="none" fill="#000"/>  </g></svg>