<?xml version="1.0" standalone="no"?><!DOCTYPE svg PUBLIC "-//W3C//DTD SVG 1.1//EN" "http://www.w3.org/Graphics/SVG/1.1/DTD/svg11.dtd"><svg xmlns="http://www.w3.org/2000/svg" version="1.1" width="271px" height="204.2px" viewBox="0 -4 271 204.2" style="top:-4px"><desc>Maxime Ricomes, CFA, CAIA Senior Multi-Asset Multi-Management Analyst, Aviva Investors France</desc><defs/><g id="Polygon11550"><path d="m4 166.6H2.2v-18h11.2v1.6H4v6.5h8.9v1.6H4v8.3zm18.2-11.4s-.46.03-.5 0c-2.7 0-4.2 1.6-4.2 4.6c-.03-.03 0 6.8 0 6.8h-1.8v-12.9h1.7s.05 2.4 0 2.4c.6-1.7 2.2-2.5 4.2-2.5c0-.02.6 0 .6 0v1.6zm10.2 9.1c-1.1 1.9-3 2.6-4.6 2.6c-2.2 0-4.2-1.3-4.2-3.9c0-2.3 1.7-3.4 3.9-3.7l3.1-.4c.9-.2 1.8-.5 1.8-1.6c0-1.5-1.4-2.4-3.2-2.4c-1.9 0-3.1 1-3.4 2.4h-1.7c.4-2.5 2.4-3.8 5.3-3.8c2.9 0 4.7 1.3 4.7 4.2c-.04 0 0 8.9 0 8.9h-1.7s-.05-2.34 0-2.3zm-2.2-4l-2 .3c-1.6.2-2.8.8-2.8 2.4c0 1.6 1.2 2.3 2.7 2.3c2 0 4.2-1.5 4.2-4.3v-1.2c-.5.3-1.2.4-2.1.5zm17.9-2.5c.02-.02 0 8.8 0 8.8h-1.7s-.03-8.61 0-8.6c0-1.8-1-2.9-2.9-2.9c-2.2 0-4.1 1.6-4.1 4.7c.01.04 0 6.8 0 6.8h-1.7v-12.9h1.7v2.4c.8-1.5 2.2-2.6 4.5-2.6c2.5 0 4.2 1.4 4.2 4.3zm8.9 9.1c-3.6 0-6-2.7-6-6.7c0-4 2.4-6.7 6.1-6.7c2.9 0 5.2 1.5 5.3 4.5h-1.7c-.1-1.9-1.7-3-3.6-3c-2.5 0-4.3 2-4.3 5.2c0 3.1 1.8 5.1 4.3 5.1c1.9 0 3.5-1.2 3.6-3.2h1.7c-.1 3.1-2.6 4.8-5.4 4.8zm9.3-6.3c.1 3.2 2.1 4.7 4.3 4.7c1.7 0 3.4-.9 3.8-2.7h1.7c-.6 3-3.1 4.3-5.6 4.3c-3 0-5.9-2.1-5.9-6.7c0-4.6 2.9-6.7 6-6.7c3.1 0 5.6 1.9 5.6 6.2c-.05.02 0 .9 0 .9c0 0-9.87-.02-9.9 0zm.1-1.5h8c0-2.6-1.7-4.1-3.9-4.1c-2 0-3.9 1.3-4.1 4.1z" stroke="none" fill="#000"/></g><g id="Polygon11549"><path d="m13.4 132.7H4.8l-2 5.1h-2l7.3-18h1.9l7.5 18h-2.1l-2-5.1zM9 121.9l-3.6 9.2h7.3L9 121.9zm21.7 7.1v8.8h-1.8s.04-8.61 0-8.6c0-1.8-1-2.9-2.8-2.9c-2.2 0-4.1 1.6-4.1 4.7c-.02.04 0 6.8 0 6.8h-1.8v-12.9h1.8s-.02 2.42 0 2.4c.8-1.5 2.2-2.6 4.4-2.6c2.6 0 4.3 1.4 4.3 4.3zm11.6 6.5c-1 1.9-2.9 2.6-4.5 2.6c-2.3 0-4.2-1.3-4.2-3.9c0-2.3 1.7-3.4 3.9-3.7l3-.4c1-.2 1.8-.5 1.8-1.6c0-1.5-1.3-2.4-3.1-2.4c-1.9 0-3.1 1-3.4 2.4h-1.7c.3-2.5 2.4-3.8 5.2-3.8c3 0 4.7 1.3 4.7 4.2c.04 0 0 8.9 0 8.9h-1.7s.04-2.34 0-2.3zm-2.1-4l-2 .3c-1.6.2-2.8.8-2.8 2.4c0 1.6 1.2 2.3 2.6 2.3c2.1 0 4.3-1.5 4.3-4.3V131c-.5.3-1.2.4-2.1.5zm9.2 6.3h-1.8v-18.3h1.8v18.3zm7.6 2.5c-.5 1.3-1.6 1.7-3 1.7c.05.03-1.3 0-1.3 0v-1.5s1.11-.03 1.1 0c1.1 0 1.7-.4 2.1-1.5c-.03-.04.6-1.7.6-1.7l-4.8-12.4h1.8l3.8 10.2l3.8-10.2h1.8L57 140.3zm17.5-6.1c0 2.6-2.4 3.9-5 3.9c-2.8 0-5.3-1.4-5.6-4.3h1.9c.3 1.9 2 2.7 3.7 2.7c1.7 0 3.1-.7 3.1-2.1c0-1.5-1.4-1.8-3-2.1c-2.4-.4-5.4-.8-5.4-3.8c0-2.6 2.3-3.8 4.9-3.8c2.7 0 4.9 1.3 5 3.8h-1.8c-.1-1.5-1.6-2.3-3.3-2.3c-1.7 0-2.9.8-2.9 2.2c0 1.6 1.5 1.9 3.5 2.2c2.3.4 4.9.8 4.9 3.6zm8.7 3.6h-1.9c-1.7 0-3.2-.5-3.2-3.4v-7.9h-2.5v-1.6h2.5v-3.6l1.7-.5v4.1h3.2v1.6h-3.2s.05 7.9 0 7.9c0 1.2.4 1.8 1.8 1.8c.02.02 1.6 0 1.6 0v1.6zm3.8-.1c0-.04-1.2 0-1.2 0v-2.4h2.6v2.4c0 2.9-1.7 3.9-3.5 4.1l-.2-1.1c1.9-.4 2.3-1.5 2.3-3zm21.1-5h-8.5l-2 5.1h-2l7.2-18h2l7.4 18h-2l-2.1-5.1zm-4.3-10.8l-3.6 9.2h7.3l-3.7-9.2zm15.6 15.9h-1.9l-4.8-12.9h1.9l3.9 11.1l3.9-11.1h1.8l-4.8 12.9zm8.9-18.3h-2v2.2h2v-2.2zm-.1 18.3h-1.7v-12.9h1.7v12.9zm9 0h-1.9l-4.8-12.9h1.9l3.8 11.1l3.9-11.1h1.9l-4.8 12.9zm14.7-2.3c-1 1.9-2.9 2.6-4.6 2.6c-2.2 0-4.1-1.3-4.1-3.9c0-2.3 1.7-3.4 3.9-3.7l3-.4c1-.2 1.8-.5 1.8-1.6c0-1.5-1.3-2.4-3.1-2.4c-1.9 0-3.1 1-3.4 2.4h-1.7c.3-2.5 2.4-3.8 5.2-3.8c2.9 0 4.7 1.3 4.7 4.2c.02 0 0 8.9 0 8.9h-1.7s.02-2.34 0-2.3zm-2.1-4l-2 .3c-1.6.2-2.8.8-2.8 2.4c0 1.6 1.2 2.3 2.6 2.3c2 0 4.3-1.5 4.3-4.3V131c-.5.3-1.3.4-2.1.5zm15.6 6.3h-1.8v-18h1.8v18zm14.7-8.8c-.03-.02 0 8.8 0 8.8h-1.8s.02-8.61 0-8.6c0-1.8-1-2.9-2.8-2.9c-2.2 0-4.1 1.6-4.1 4.7c-.04.04 0 6.8 0 6.8h-1.8v-12.9h1.8s-.04 2.42 0 2.4c.7-1.5 2.2-2.6 4.4-2.6c2.6 0 4.3 1.4 4.3 4.3zm8.8 8.8H187l-4.8-12.9h1.9L188 136l3.9-11.1h1.8l-4.8 12.9zm7.7-6c.1 3.2 2 4.7 4.3 4.7c1.7 0 3.4-.9 3.8-2.7h1.6c-.5 3-3 4.3-5.5 4.3c-3 0-5.9-2.1-5.9-6.7c0-4.6 2.9-6.7 6-6.7c3 0 5.5 1.9 5.5 6.2c.05.02 0 .9 0 .9c0 0-9.77-.02-9.8 0zm.1-1.5h8c0-2.6-1.7-4.1-3.9-4.1c-2 0-3.9 1.3-4.1 4.1zm22.3 3.9c0 2.6-2.4 3.9-4.9 3.9c-2.8 0-5.4-1.4-5.6-4.3h1.9c.2 1.9 1.9 2.7 3.7 2.7c1.6 0 3.1-.7 3.1-2.1c0-1.5-1.5-1.8-3-2.1c-2.5-.4-5.4-.8-5.4-3.8c0-2.6 2.2-3.8 4.8-3.8c2.8 0 4.9 1.3 5.1 3.8h-1.8c-.2-1.5-1.6-2.3-3.3-2.3c-1.8 0-3 .8-3 2.2c0 1.6 1.6 1.9 3.5 2.2c2.4.4 4.9.8 4.9 3.6zm8.8 3.6h-1.9c-1.7 0-3.3-.5-3.3-3.4c.05.02 0-7.9 0-7.9h-2.5v-1.6h2.5v-3.6l1.8-.5v4.1h3.1v1.6h-3.1v7.9c0 1.2.3 1.8 1.8 1.8c-.03.02 1.6 0 1.6 0v1.6zm1.7-6.4c0-4.2 2.5-6.7 6.1-6.7c3.5 0 6.1 2.5 6.1 6.7c0 4.2-2.6 6.7-6.1 6.7c-3.6 0-6.1-2.5-6.1-6.7zm10.4-.1c0-3.2-2-5-4.4-5c-2.5 0-4.2 2-4.2 5.1c0 3.2 1.9 5 4.3 5c2.5 0 4.3-1.9 4.3-5.1zm11.2-4.9s-.4.03-.4 0c-2.7 0-4.3 1.6-4.3 4.6c.03-.03 0 6.8 0 6.8h-1.7v-12.9h1.7v2.4c.6-1.7 2.2-2.5 4.2-2.5c-.04-.02.5 0 .5 0v1.6zm11.9 7.8c0 2.6-2.4 3.9-5 3.9c-2.8 0-5.3-1.4-5.6-4.3h1.9c.3 1.9 2 2.7 3.7 2.7c1.7 0 3.1-.7 3.1-2.1c0-1.5-1.4-1.8-3-2.1c-2.4-.4-5.4-.8-5.4-3.8c0-2.6 2.2-3.8 4.9-3.8c2.7 0 4.9 1.3 5 3.8h-1.8c-.1-1.5-1.6-2.3-3.3-2.3c-1.7 0-2.9.8-2.9 2.2c0 1.6 1.5 1.9 3.5 2.2c2.3.4 4.9.8 4.9 3.6z" stroke="none" fill="#000"/></g><g id="Polygon11548"><path d="m19.2 109h-1.8V93.4l-6 15.6H9.9l-6-15.6V109H2.2v-18h2.7l5.8 15.2L16.5 91h2.7v18zm12.6 0s-.05-2.44 0-2.4c-.9 1.7-2.5 2.6-4.3 2.6c-2.5 0-4.3-1.6-4.3-4.6c-.04.04 0-8.5 0-8.5h1.7v8.3c0 2.1 1.2 3.2 2.9 3.2c2 0 3.9-1.5 3.9-4.8c-.02-.01 0-6.7 0-6.7h1.7V109h-1.6zm7.2 0h-1.7V90.7h1.7V109zm9.7 0h-1.9c-1.7 0-3.2-.5-3.2-3.4v-7.9h-2.5v-1.6h2.5v-3.6l1.8-.5v4.1h3.1v1.6h-3.1s-.04 7.9 0 7.9c0 1.2.3 1.8 1.7 1.8c.04.02 1.6 0 1.6 0v1.6zm4.4-18.3h-2v2.2h2v-2.2zM53 109h-1.7V96.1h1.7V109zm3.1-6.9v-1.6h7.4v1.6h-7.4zm27.8 6.9h-1.8V93.4l-6 15.6h-1.5l-6-15.6V109h-1.7v-18h2.7l5.8 15.2L81.2 91h2.7v18zm12-2.3c-1 1.9-2.9 2.6-4.6 2.6c-2.2 0-4.1-1.3-4.1-3.9c0-2.3 1.7-3.4 3.9-3.7l3-.4c1-.2 1.8-.5 1.8-1.6c0-1.5-1.3-2.4-3.1-2.4c-1.9 0-3.1 1-3.4 2.4h-1.7c.3-2.5 2.4-3.8 5.2-3.8c3 0 4.7 1.3 4.7 4.2c.03 0 0 8.9 0 8.9h-1.7s.03-2.34 0-2.3zm-2.1-4l-2 .3c-1.6.2-2.8.8-2.8 2.4c0 1.6 1.2 2.3 2.6 2.3c2 0 4.3-1.5 4.3-4.3v-1.2c-.5.3-1.2.4-2.1.5zm17.9-2.5c-.01-.02 0 8.8 0 8.8h-1.8s.04-8.61 0-8.6c0-1.8-1-2.9-2.8-2.9c-2.2 0-4.1 1.6-4.1 4.7c-.02.04 0 6.8 0 6.8h-1.8V96.1h1.8s-.02 2.42 0 2.4c.8-1.5 2.2-2.6 4.4-2.6c2.6 0 4.3 1.4 4.3 4.3zm11.6 6.5c-1 1.9-2.9 2.6-4.5 2.6c-2.3 0-4.2-1.3-4.2-3.9c0-2.3 1.7-3.4 3.9-3.7l3-.4c1-.2 1.8-.5 1.8-1.6c0-1.5-1.3-2.4-3.1-2.4c-1.9 0-3.1 1-3.4 2.4h-1.7c.3-2.5 2.4-3.8 5.2-3.8c3 0 4.7 1.3 4.7 4.2c.04 0 0 8.9 0 8.9h-1.7s.03-2.34 0-2.3zm-2.1-4l-2 .3c-1.6.2-2.8.8-2.8 2.4c0 1.6 1.2 2.3 2.6 2.3c2.1 0 4.3-1.5 4.3-4.3v-1.2c-.5.3-1.2.4-2.1.5zm18.5 5.7c0 3.9-2.5 5.8-5.8 5.8c-2.9 0-5.4-1.4-5.8-4.4h1.8c.2 1.6 1.4 3 4 3c2.4 0 4.1-1.2 4.1-4.3V106c-.9 1.9-2.8 2.5-4.5 2.5c-3.2 0-5.7-2.1-5.7-6.3c0-4.2 2.7-6.3 5.8-6.3c2 0 3.6.9 4.4 2.3v-2.1h1.7s.03 12.33 0 12.3zm-1.8-6.2c0-3.3-1.9-4.8-4.1-4.8c-2.2 0-4.3 1.6-4.3 4.8c0 3.2 2 4.7 4.3 4.7c2 0 4.1-1.3 4.1-4.7zm6.4.8c.1 3.2 2 4.7 4.3 4.7c1.7 0 3.4-.9 3.8-2.7h1.7c-.6 3-3.1 4.3-5.6 4.3c-3 0-5.9-2.1-5.9-6.7c0-4.6 2.9-6.7 6-6.7c3.1 0 5.5 1.9 5.5 6.2c.05.02 0 .9 0 .9c0 0-9.77-.02-9.8 0zm.1-1.5h8c0-2.6-1.7-4.1-3.9-4.1c-2 0-3.9 1.3-4.1 4.1zm12.7-5.4h1.8s-.02 2.16 0 2.2c.7-1.7 2.1-2.4 3.7-2.4c1.9 0 3.4 1 3.8 2.7c.6-1.5 2-2.7 4.3-2.7c2.3 0 4.1 1.3 4.1 3.9c.04-.03 0 9.2 0 9.2h-1.7v-8.6c0-2-1.2-3-2.8-3c-1.9 0-3.5 1.5-3.5 4.2c.05.04 0 7.4 0 7.4h-1.7s.02-8.61 0-8.6c0-2-1.2-3-2.7-3c-1.9 0-3.5 1.5-3.5 4.2v7.4h-1.8V96.1zm22.3 6.9c.1 3.2 2.1 4.7 4.3 4.7c1.7 0 3.4-.9 3.8-2.7h1.7c-.6 3-3.1 4.3-5.6 4.3c-3 0-5.9-2.1-5.9-6.7c0-4.6 2.9-6.7 6-6.7c3.1 0 5.6 1.9 5.6 6.2c-.04.02 0 .9 0 .9c0 0-9.85-.02-9.9 0zm.1-1.5h8c0-2.6-1.7-4.1-3.9-4.1c-2 0-3.9 1.3-4.1 4.1zm23.2-1.3c.03-.02 0 8.8 0 8.8H201s-.03-8.61 0-8.6c0-1.8-1-2.9-2.9-2.9c-2.2 0-4.1 1.6-4.1 4.7c.01.04 0 6.8 0 6.8h-1.7V96.1h1.7v2.4c.8-1.5 2.2-2.6 4.5-2.6c2.5 0 4.2 1.4 4.2 4.3zm9.6 8.8h-1.9c-1.7 0-3.2-.5-3.2-3.4v-7.9h-2.6v-1.6h2.6v-3.6l1.7-.5v4.1h3.2v1.6h-3.2s.04 7.9 0 7.9c0 1.2.4 1.8 1.8 1.8c.02.02 1.6 0 1.6 0v1.6z" stroke="none" fill="#000"/></g><g id="Polygon11547"><path d="m8.2 80.7c-3.8 0-6.9-2.3-7-6.2h2c.1 3.1 2.5 4.5 5 4.5c2.4 0 4.2-1.2 4.2-3.3c0-2.4-2.4-3-4.9-3.6c-2.8-.7-5.7-1.7-5.7-5.2c0-3.3 2.6-5.1 6-5.1c3.2 0 6 1.5 6.2 5h-1.9c-.1-2.4-2.1-3.4-4.3-3.4c-2.3 0-4.2 1.1-4.2 3.4c0 2.5 2.2 3 4.7 3.7c2.9.7 6 1.5 6 5c0 3.4-2.8 5.2-6.1 5.2zm10.1-6.5c.1 3.2 2.1 4.7 4.3 4.7c1.7 0 3.4-.9 3.8-2.7h1.7c-.6 3-3.1 4.3-5.6 4.3c-3 0-5.9-2.1-5.9-6.7c0-4.6 2.9-6.7 6-6.7c3.1 0 5.6 1.9 5.6 6.2c-.05.02 0 .9 0 .9c0 0-9.86-.02-9.9 0zm.1-1.5h8c0-2.6-1.7-4.1-3.9-4.1c-2 0-3.9 1.3-4.1 4.1zm23.2-1.3c.02-.02 0 8.8 0 8.8h-1.7s-.04-8.61 0-8.6c0-1.8-1-2.9-2.9-2.9c-2.2 0-4.1 1.6-4.1 4.7v6.8h-1.7V67.3h1.7v2.4c.8-1.5 2.2-2.6 4.5-2.6c2.5 0 4.2 1.4 4.2 4.3zm5.6-9.5h-2v2.2h2v-2.2zm-.1 18.3h-1.8V67.3h1.8v12.9zm3-6.4c0-4.2 2.5-6.7 6.1-6.7c3.5 0 6.1 2.5 6.1 6.7c0 4.2-2.5 6.7-6.1 6.7c-3.5 0-6.1-2.5-6.1-6.7zm10.4-.1c0-3.2-1.9-5-4.3-5c-2.6 0-4.3 2-4.3 5.1c0 3.2 1.9 5 4.3 5c2.5 0 4.3-1.9 4.3-5.1zm11.2-4.9s-.37.03-.4 0c-2.7 0-4.2 1.6-4.2 4.6c-.04-.03 0 6.8 0 6.8h-1.8V67.3h1.7s.03 2.4 0 2.4c.6-1.7 2.2-2.5 4.2-2.5c-.02-.02.5 0 .5 0v1.6zm25.4 11.4h-1.8V64.6l-6.1 15.6h-1.4l-6-15.6v15.6H80v-18h2.8l5.7 15.2l5.8-15.2h2.8v18zm12.5 0v-2.4c-.9 1.7-2.5 2.6-4.3 2.6c-2.4 0-4.3-1.6-4.3-4.6c.01.04 0-8.5 0-8.5h1.8s-.03 8.32 0 8.3c0 2.1 1.1 3.2 2.8 3.2c2.1 0 3.9-1.5 3.9-4.8c.03-.01 0-6.7 0-6.7h1.8v12.9h-1.7zm7.3 0h-1.8V61.9h1.8v18.3zm9.7 0h-1.9c-1.7 0-3.2-.5-3.2-3.4c-.04.02 0-7.9 0-7.9h-2.6v-1.6h2.6v-3.6l1.7-.5v4.1h3.1v1.6h-3.1v7.9c0 1.2.4 1.8 1.8 1.8c-.01.02 1.6 0 1.6 0v1.6zm4.4-18.3h-2v2.2h2v-2.2zm-.1 18.3h-1.8V67.3h1.8v12.9zm3.1-6.9v-1.6h7.4v1.6H134zm21.2 1.8h-8.5l-2 5.1h-2l7.2-18h2l7.4 18h-2l-2.1-5.1zm-4.3-10.8l-3.6 9.2h7.3l-3.7-9.2zm20.8 12.3c0 2.6-2.4 3.9-5 3.9c-2.8 0-5.3-1.4-5.6-4.3h1.9c.3 1.9 2 2.7 3.7 2.7c1.7 0 3.1-.7 3.1-2.1c0-1.5-1.4-1.8-3-2.1c-2.4-.4-5.4-.8-5.4-3.8c0-2.6 2.3-3.8 4.9-3.8c2.7 0 4.9 1.3 5 3.8h-1.8c-.1-1.5-1.6-2.3-3.3-2.3c-1.7 0-2.9.8-2.9 2.2c0 1.6 1.5 1.9 3.5 2.2c2.3.4 4.9.8 4.9 3.6zm12.4 0c0 2.6-2.4 3.9-4.9 3.9c-2.8 0-5.3-1.4-5.6-4.3h1.9c.2 1.9 1.9 2.7 3.7 2.7c1.6 0 3.1-.7 3.1-2.1c0-1.5-1.5-1.8-3-2.1c-2.5-.4-5.4-.8-5.4-3.8c0-2.6 2.2-3.8 4.8-3.8c2.8 0 4.9 1.3 5.1 3.8H182c-.2-1.5-1.6-2.3-3.3-2.3c-1.8 0-3 .8-3 2.2c0 1.6 1.6 1.9 3.5 2.2c2.4.4 4.9.8 4.9 3.6zm3.8-2.4c0 3.2 2 4.7 4.3 4.7c1.7 0 3.4-.9 3.8-2.7h1.6c-.6 3-3.1 4.3-5.5 4.3c-3.1 0-5.9-2.1-5.9-6.7c0-4.6 2.9-6.7 6-6.7c3 0 5.5 1.9 5.5 6.2c.01.02 0 .9 0 .9c0 0-9.81-.02-9.8 0zm0-1.5h8c0-2.6-1.6-4.1-3.8-4.1c-2 0-3.9 1.3-4.2 4.1zm18.7 7.5h-1.9c-1.7 0-3.2-.5-3.2-3.4c-.05.02 0-7.9 0-7.9h-2.6v-1.6h2.6v-3.6l1.7-.5v4.1h3.1v1.6h-3.1v7.9c0 1.2.3 1.8 1.8 1.8c-.02.02 1.6 0 1.6 0v1.6z" stroke="none" fill="#000"/></g><g id="Polygon11546"><path d="m14.3 44.8h3.4c-.3 4.7-3.9 7.1-8 7.1C4 51.9 1 47.3 1 42.3C1 37.6 3.7 33 9.8 33c4.2 0 7.4 2.3 7.8 6.4h-3.4c-.2-2-2.1-3.3-4.5-3.3c-3.7 0-5.4 3-5.4 6.2c0 3.3 1.9 6.3 5.4 6.3c2.2 0 4.4-1 4.6-3.8zm16.9 2.6h-7.6l-1.5 4h-3.5l6.9-18h3.7l7.2 18h-3.7l-1.5-4zM30 44.3l-2.7-7.1l-2.6 7.1h5.3zm12.1 7.1h-3.3v-18h3.3v18zm15-4h-7.6l-1.5 4h-3.5l6.9-18h3.7l7.2 18h-3.7l-1.5-4zm-1.2-3.1l-2.6-7.1l-2.6 7.1h5.2z" stroke="none" fill="#000"/></g><g id="Polygon11545"><path d="m20.3 22.6h-3.2V10.2l-4.6 12.4h-3L4.9 10.2v12.4H1.8v-18h4.2l5 13.3l5-13.3h4.3v18zm13.9-8.9c.02 0 0 8.9 0 8.9h-3.1v-1.9c-1 1.7-2.6 2.2-4 2.2c-2.1 0-4.3-1.3-4.3-4.1c0-2.1 1.2-3.5 4.2-4l2.9-.4c.8-.1 1.3-.4 1.3-1.2c0-1.1-.9-1.6-2.2-1.6c-1.7 0-2.5.9-2.6 2h-3.1c.4-3.1 2.8-4.5 5.8-4.5c3.2 0 5.1 1.5 5.1 4.6zM31.1 17v-.7c-.3.2-.9.3-1.5.4l-1.5.2c-1.6.2-2.1.9-2.1 1.7c0 1.1.7 1.6 1.8 1.6c1.7 0 3.3-1.2 3.3-3.2zm11.8 1.4l-3 4.2h-4l4.9-6.5l-5-6.7h4.1l3 4.1l2.9-4.1h4L45 15.8l5.1 6.8h-4.2l-3-4.2zm8.8-10.8h3.4V4h-3.4v3.6zm.1 1.8h3.2v13.2h-3.2V9.4zm25 4.3c.02-.02 0 8.9 0 8.9h-3.2s.03-8.3 0-8.3c0-1.6-.7-2.3-2-2.3c-1.5 0-2.5.9-2.5 3.2c-.03-.03 0 7.4 0 7.4h-3.2s-.02-8.3 0-8.3c0-1.6-.8-2.3-2.1-2.3c-1.5 0-2.5 1-2.5 3.1c.02.04 0 7.5 0 7.5h-3.2V9.4h3.2s-.03 1.9 0 1.9c.4-1.1 1.4-2.2 3.4-2.2c1.7 0 3 .8 3.7 2.2c.5-.9 1.4-2.2 3.8-2.2c2.8 0 4.6 1.7 4.6 4.6zm5.3 3.2c.1 2.2 1.6 3.2 3.4 3.2c1.2 0 2.4-.5 2.8-1.7h2.9c-.5 2.9-3.1 4.5-5.9 4.5c-3.1 0-6.3-2.2-6.3-6.9c0-4.5 3-6.9 6.4-6.9c3.2 0 5.9 2.2 5.9 6.5v1.3s-9.22.04-9.2 0zm.1-2.3h6c0-1.7-1.2-2.7-2.9-2.7c-1.4 0-2.9.8-3.1 2.7zm28.3 8l-4.6-7.2h-2.8v7.2h-3.3v-18h7c4.1 0 6 2.6 6 5.2c0 2.1-1.2 4.2-3.4 5c-.03-.02 5.1 7.8 5.1 7.8h-4zm-1-12.7c0-1-.7-2.2-2.5-2.2c-.01.03-3.9 0-3.9 0v4.7s3.63-.04 3.6 0c1.9 0 2.8-1.2 2.8-2.5zm6.4-2.3h3.4V4h-3.4v3.6zm.1 1.8h3.2v13.2H116V9.4zm11.9 13.5c-4.3 0-6.4-3.3-6.4-6.9c0-3.6 2.1-6.9 6.4-6.9c3.3 0 5.7 1.9 5.9 5h-3.2c-.1-1.2-1-2.1-2.6-2.1c-2.3 0-3.3 1.9-3.3 4c0 2.1 1 3.9 3.3 3.9c1.5 0 2.4-.8 2.7-2h3.1c-.4 3.2-2.7 5-5.9 5zm20.3-6.9c0 4.3-2.7 6.9-6.5 6.9c-3.7 0-6.4-2.6-6.4-6.9c0-4.3 2.7-6.9 6.4-6.9c3.8 0 6.5 2.6 6.5 6.9zm-9.6 0c0 2.7 1.4 3.9 3.2 3.9c1.9 0 3.2-1.4 3.2-3.9c0-2.7-1.5-3.9-3.3-3.9c-1.9 0-3.1 1.4-3.1 3.9zm30.6-2.3v8.9H166v-8.3c0-1.6-.7-2.3-2.1-2.3c-1.5 0-2.5.9-2.5 3.2c.05-.03 0 7.4 0 7.4h-3.1s-.05-8.3 0-8.3c0-1.6-.8-2.3-2.1-2.3c-1.5 0-2.5 1-2.5 3.1v7.5h-3.2V9.4h3.1s.05 1.9 0 1.9c.5-1.1 1.5-2.2 3.5-2.2c1.7 0 3 .8 3.6 2.2c.5-.9 1.5-2.2 3.9-2.2c2.8 0 4.6 1.7 4.6 4.6zm5.3 3.2c0 2.2 1.6 3.2 3.4 3.2c1.2 0 2.4-.5 2.8-1.7h2.9c-.6 2.9-3.2 4.5-5.9 4.5c-3.2 0-6.3-2.2-6.3-6.9c0-4.5 3-6.9 6.3-6.9c3.3 0 6 2.2 6 6.5c-.03.05 0 1.3 0 1.3c0 0-9.25.04-9.2 0zm0-2.3h6.1c0-1.7-1.3-2.7-2.9-2.7c-1.5 0-2.9.8-3.2 2.7zm22 3.9c0 3-2.6 4.4-5.6 4.4c-2.7 0-5.7-1.2-5.9-4.5h3.2c.2 1.3 1.4 1.9 2.9 1.9c1.3 0 2.3-.5 2.3-1.5c0-.8-.6-1-2.5-1.3c-2.5-.5-5.5-.9-5.5-4.2c0-3 2.5-4.2 5.3-4.2c3.1 0 5.3 1.6 5.5 4.5h-3.1c-.1-1.3-1.1-1.8-2.4-1.8c-1.6 0-2.2.7-2.2 1.4c0 1.1 1.2 1.3 2.8 1.5c2.4.4 5.2.7 5.2 3.8zm3.9 3.9h-1.6V19h3.6s.04 2.94 0 2.9c0 3.5-2.3 4.7-4.5 5l-.3-1.8c1.7-.1 2.8-1.2 2.8-2.7zm22.1-6.4h3.4c-.3 4.7-3.9 7.1-8 7.1c-5.7 0-8.7-4.6-8.7-9.6c0-4.7 2.7-9.3 8.8-9.3c4.2 0 7.4 2.3 7.8 6.4h-3.4c-.2-2-2.1-3.3-4.5-3.3c-3.7 0-5.4 3-5.4 6.2c0 3.3 1.9 6.3 5.4 6.3c2.2 0 4.4-1 4.6-3.8zm9.4 6.6h-3.4v-18h12.1v3.1h-8.7v4.2h8.3v3.2h-8.3v7.5zm20.4-4h-7.6l-1.5 4h-3.5l6.9-18h3.7l7.2 18h-3.7l-1.5-4zm-1.2-3.1l-2.6-7.1l-2.6 7.1h5.2zm10.1 6.9h-1.6V19h3.7s-.02 2.94 0 2.9c0 3.5-2.4 4.7-4.5 5l-.3-1.8c1.7-.1 2.7-1.2 2.7-2.7z" stroke="none" fill="#000"/></g></svg>