<?xml version="1.0" standalone="no"?><!DOCTYPE svg PUBLIC "-//W3C//DTD SVG 1.1//EN" "http://www.w3.org/Graphics/SVG/1.1/DTD/svg11.dtd"><svg xmlns="http://www.w3.org/2000/svg" version="1.1" width="373px" height="174.4px" viewBox="0 0 373 174.4">  <desc>Puesto que se han reducido los diferenciales de alta rentabilidad y no se ha producido una oleada de impagos, ofrece</desc>  <defs/>  <g id="Polygon11244">    <path d="M 6.3 146 C 2.5 146 0.6 143.1 0.6 140 C 0.6 136.9 2.4 134 6.2 134 C 9.1 134 11.3 135.6 11.4 138.4 C 11.4 138.4 8.6 138.4 8.6 138.4 C 8.5 137.3 7.7 136.5 6.3 136.5 C 4.3 136.5 3.4 138.2 3.4 140 C 3.4 141.9 4.3 143.4 6.3 143.4 C 7.6 143.4 8.5 142.7 8.7 141.7 C 8.7 141.7 11.4 141.7 11.4 141.7 C 11.1 144.5 9.1 146 6.3 146 Z M 24 140 C 24 143.8 21.6 146 18.4 146 C 15.1 146 12.7 143.8 12.7 140 C 12.7 136.2 15.1 134 18.4 134 C 21.6 134 24 136.2 24 140 Z M 15.6 140 C 15.6 142.3 16.8 143.4 18.4 143.4 C 20.1 143.4 21.2 142.2 21.2 140 C 21.2 137.7 19.9 136.6 18.3 136.6 C 16.7 136.6 15.6 137.8 15.6 140 Z M 36.2 138.3 C 36.2 138.31 36.2 145.8 36.2 145.8 L 33.4 145.8 C 33.4 145.8 33.41 138.56 33.4 138.6 C 33.4 137.3 32.7 136.5 31.4 136.5 C 29.8 136.5 28.8 137.6 28.8 139.5 C 28.81 139.52 28.8 145.8 28.8 145.8 L 26 145.8 L 26 134.2 L 28.8 134.2 C 28.8 134.2 28.79 135.87 28.8 135.9 C 29.4 134.8 30.4 134 32.3 134 C 35 134 36.2 135.5 36.2 138.3 Z M 47.3 145.8 L 44.5 145.8 L 44.5 129.8 L 47.3 129.8 L 47.3 145.8 Z M 60.6 140 C 60.6 143.8 58.2 146 54.9 146 C 51.7 146 49.3 143.8 49.3 140 C 49.3 136.2 51.7 134 54.9 134 C 58.2 134 60.6 136.2 60.6 140 Z M 52.1 140 C 52.1 142.3 53.4 143.4 55 143.4 C 56.6 143.4 57.7 142.2 57.7 140 C 57.7 137.7 56.5 136.6 54.9 136.6 C 53.3 136.6 52.1 137.8 52.1 140 Z M 71.9 142.2 C 71.9 144.8 69.6 146 66.9 146 C 64.6 146 61.9 145 61.8 142.1 C 61.8 142.1 64.6 142.1 64.6 142.1 C 64.8 143.2 65.8 143.7 67.1 143.7 C 68.3 143.7 69.1 143.3 69.1 142.5 C 69.1 141.7 68.6 141.6 67 141.3 C 64.7 140.9 62.1 140.5 62.1 137.7 C 62.1 135.1 64.3 134 66.7 134 C 69.4 134 71.4 135.3 71.6 137.9 C 71.6 137.9 68.9 137.9 68.9 137.9 C 68.8 136.8 67.9 136.3 66.8 136.3 C 65.4 136.3 64.8 136.9 64.8 137.6 C 64.8 138.5 65.9 138.7 67.3 138.9 C 69.3 139.2 71.9 139.5 71.9 142.2 Z M 89.2 145.8 L 86.5 145.8 C 86.5 145.8 86.5 144 86.5 144 C 85.9 145.3 84.5 146 82.9 146 C 80.2 146 77.8 144 77.8 140 C 77.8 136 80.2 134 82.9 134 C 84.4 134 85.7 134.6 86.4 135.7 C 86.44 135.72 86.4 129.8 86.4 129.8 L 89.2 129.8 L 89.2 145.8 Z M 86.5 140 C 86.5 137.6 85.1 136.5 83.6 136.5 C 82.1 136.5 80.7 137.6 80.7 140 C 80.7 142.3 82.1 143.5 83.6 143.5 C 85.1 143.5 86.5 142.3 86.5 140 Z M 91.9 132.7 L 94.8 132.7 L 94.8 129.5 L 91.9 129.5 L 91.9 132.7 Z M 91.9 134.2 L 94.7 134.2 L 94.7 145.8 L 91.9 145.8 L 91.9 134.2 Z M 101.8 132.3 C 100.8 132.3 100.6 132.7 100.6 133.4 C 100.59 133.43 100.6 134.2 100.6 134.2 L 102.7 134.2 L 102.7 136.7 L 100.6 136.7 L 100.6 145.8 L 97.8 145.8 L 97.8 136.7 L 96.1 136.7 L 96.1 134.2 L 97.8 134.2 C 97.8 134.2 97.8 133.56 97.8 133.6 C 97.8 130.5 99.2 129.8 101.3 129.8 C 101.34 129.78 103 129.8 103 129.8 L 103 132.3 C 103 132.3 101.76 132.26 101.8 132.3 Z M 106.2 140.8 C 106.2 142.7 107.6 143.6 109.1 143.6 C 110.2 143.6 111.3 143.2 111.6 142.1 C 111.6 142.1 114.2 142.1 114.2 142.1 C 113.7 144.7 111.4 146 109 146 C 106.2 146 103.4 144.1 103.4 140 C 103.4 136 106.1 134 109 134 C 111.8 134 114.2 135.8 114.2 139.7 C 114.22 139.69 114.2 140.8 114.2 140.8 C 114.2 140.8 106.15 140.83 106.2 140.8 Z M 106.2 138.8 C 106.2 138.8 111.5 138.8 111.5 138.8 C 111.5 137.3 110.4 136.4 109 136.4 C 107.7 136.4 106.5 137.1 106.2 138.8 Z M 122.8 136.8 C 122.8 136.8 122.03 136.77 122 136.8 C 120.1 136.8 119 137.8 119 140.1 C 119.01 140.11 119 145.8 119 145.8 L 116.2 145.8 L 116.2 134.2 L 119 134.2 C 119 134.2 118.98 135.85 119 135.8 C 119.6 134.6 120.6 134.1 122 134.1 C 122.01 134.06 122.8 134.1 122.8 134.1 L 122.8 136.8 Z M 125.9 140.8 C 126 142.7 127.3 143.6 128.9 143.6 C 130 143.6 131 143.2 131.4 142.1 C 131.4 142.1 133.9 142.1 133.9 142.1 C 133.4 144.7 131.1 146 128.7 146 C 126 146 123.2 144.1 123.2 140 C 123.2 136 125.8 134 128.8 134 C 131.6 134 134 135.8 134 139.7 C 133.96 139.69 134 140.8 134 140.8 C 134 140.8 125.89 140.83 125.9 140.8 Z M 126 138.8 C 126 138.8 131.2 138.8 131.2 138.8 C 131.2 137.3 130.2 136.4 128.7 136.4 C 127.4 136.4 126.2 137.1 126 138.8 Z M 146.1 138.3 C 146.14 138.31 146.1 145.8 146.1 145.8 L 143.3 145.8 C 143.3 145.8 143.34 138.56 143.3 138.6 C 143.3 137.3 142.6 136.5 141.3 136.5 C 139.7 136.5 138.7 137.6 138.7 139.5 C 138.75 139.52 138.7 145.8 138.7 145.8 L 136 145.8 L 136 134.2 L 138.7 134.2 C 138.7 134.2 138.72 135.87 138.7 135.9 C 139.4 134.8 140.3 134 142.3 134 C 144.9 134 146.1 135.5 146.1 138.3 Z M 153.7 146 C 149.9 146 148 143.1 148 140 C 148 136.9 149.8 134 153.6 134 C 156.5 134 158.7 135.6 158.8 138.4 C 158.8 138.4 156 138.4 156 138.4 C 155.9 137.3 155.1 136.5 153.7 136.5 C 151.7 136.5 150.8 138.2 150.8 140 C 150.8 141.9 151.7 143.4 153.7 143.4 C 155 143.4 155.9 142.7 156 141.7 C 156 141.7 158.8 141.7 158.8 141.7 C 158.5 144.5 156.4 146 153.7 146 Z M 160.7 132.7 L 163.7 132.7 L 163.7 129.5 L 160.7 129.5 L 160.7 132.7 Z M 160.8 134.2 L 163.6 134.2 L 163.6 145.8 L 160.8 145.8 L 160.8 134.2 Z M 175.6 138 C 175.58 137.99 175.6 145.8 175.6 145.8 L 172.8 145.8 C 172.8 145.8 172.85 144.1 172.8 144.1 C 171.9 145.6 170.6 146 169.3 146 C 167.5 146 165.6 144.9 165.6 142.4 C 165.6 140.6 166.6 139.4 169.3 139 C 169.3 139 171.8 138.6 171.8 138.6 C 172.5 138.5 173 138.3 173 137.6 C 173 136.6 172.1 136.2 171 136.2 C 169.5 136.2 168.8 136.9 168.7 137.9 C 168.7 137.9 166 137.9 166 137.9 C 166.3 135.2 168.5 134 171.1 134 C 173.9 134 175.6 135.3 175.6 138 Z M 172.9 140.9 C 172.9 140.9 172.9 140.3 172.9 140.3 C 172.6 140.4 172.1 140.6 171.5 140.6 C 171.5 140.6 170.2 140.8 170.2 140.8 C 168.8 141 168.4 141.6 168.4 142.3 C 168.4 143.2 169 143.7 170 143.7 C 171.4 143.7 172.9 142.6 172.9 140.9 Z M 180.9 145.8 L 178.1 145.8 L 178.1 129.8 L 180.9 129.8 L 180.9 145.8 Z M 185.6 140.8 C 185.7 142.7 187 143.6 188.6 143.6 C 189.7 143.6 190.7 143.2 191.1 142.1 C 191.1 142.1 193.6 142.1 193.6 142.1 C 193.1 144.7 190.8 146 188.5 146 C 185.7 146 182.9 144.1 182.9 140 C 182.9 136 185.5 134 188.5 134 C 191.3 134 193.7 135.8 193.7 139.7 C 193.66 139.69 193.7 140.8 193.7 140.8 C 193.7 140.8 185.6 140.83 185.6 140.8 Z M 185.7 138.8 C 185.7 138.8 190.9 138.8 190.9 138.8 C 190.9 137.3 189.9 136.4 188.4 136.4 C 187.1 136.4 185.9 137.1 185.7 138.8 Z M 204.9 142.2 C 204.9 144.8 202.6 146 200 146 C 197.6 146 195 145 194.8 142.1 C 194.8 142.1 197.6 142.1 197.6 142.1 C 197.8 143.2 198.8 143.7 200.1 143.7 C 201.3 143.7 202.2 143.3 202.2 142.5 C 202.2 141.7 201.6 141.6 200 141.3 C 197.8 140.9 195.2 140.5 195.2 137.7 C 195.2 135.1 197.4 134 199.8 134 C 202.5 134 204.5 135.3 204.6 137.9 C 204.6 137.9 201.9 137.9 201.9 137.9 C 201.8 136.8 201 136.3 199.8 136.3 C 198.4 136.3 197.9 136.9 197.9 137.6 C 197.9 138.5 198.9 138.7 200.3 138.9 C 202.4 139.2 204.9 139.5 204.9 142.2 Z M 221.3 138 C 221.32 137.99 221.3 145.8 221.3 145.8 L 218.6 145.8 C 218.6 145.8 218.59 144.1 218.6 144.1 C 217.7 145.6 216.3 146 215.1 146 C 213.2 146 211.3 144.9 211.3 142.4 C 211.3 140.6 212.3 139.4 215 139 C 215 139 217.5 138.6 217.5 138.6 C 218.2 138.5 218.7 138.3 218.7 137.6 C 218.7 136.6 217.9 136.2 216.7 136.2 C 215.2 136.2 214.6 136.9 214.5 137.9 C 214.5 137.9 211.8 137.9 211.8 137.9 C 212.1 135.2 214.2 134 216.9 134 C 219.6 134 221.3 135.3 221.3 138 Z M 218.6 140.9 C 218.6 140.9 218.6 140.3 218.6 140.3 C 218.3 140.4 217.8 140.6 217.2 140.6 C 217.2 140.6 216 140.8 216 140.8 C 214.6 141 214.1 141.6 214.1 142.3 C 214.1 143.2 214.8 143.7 215.7 143.7 C 217.2 143.7 218.6 142.6 218.6 140.9 Z M 228.7 146 C 224.9 146 223.1 143.1 223.1 140 C 223.1 136.9 224.9 134 228.7 134 C 231.6 134 233.7 135.6 233.8 138.4 C 233.8 138.4 231.1 138.4 231.1 138.4 C 231 137.3 230.2 136.5 228.8 136.5 C 226.8 136.5 225.9 138.2 225.9 140 C 225.9 141.9 226.8 143.4 228.8 143.4 C 230.1 143.4 230.9 142.7 231.1 141.7 C 231.1 141.7 233.9 141.7 233.9 141.7 C 233.5 144.5 231.5 146 228.7 146 Z M 241.8 145.8 C 241.8 145.8 240.01 145.78 240 145.8 C 237.8 145.8 236.5 145.1 236.5 142 C 236.46 142 236.5 136.7 236.5 136.7 L 234.3 136.7 L 234.3 134.2 L 236.5 134.2 L 236.5 131.6 L 239.2 130.8 L 239.2 134.2 L 241.6 134.2 L 241.6 136.7 L 239.2 136.7 C 239.2 136.7 239.25 142.13 239.2 142.1 C 239.2 142.8 239.4 143.3 240.4 143.3 C 240.43 143.3 241.8 143.3 241.8 143.3 L 241.8 145.8 Z M 253.6 145.8 L 250.8 145.8 C 250.8 145.8 250.82 144.14 250.8 144.1 C 250.1 145.2 249.1 145.9 247.5 145.9 C 245.1 145.9 243.3 144.4 243.3 141.4 C 243.3 141.39 243.3 134.2 243.3 134.2 L 246.1 134.2 C 246.1 134.2 246.1 141.18 246.1 141.2 C 246.1 142.8 246.9 143.4 248.1 143.4 C 249.6 143.4 250.8 142.5 250.8 139.8 C 250.76 139.8 250.8 134.2 250.8 134.2 L 253.6 134.2 L 253.6 145.8 Z M 265.5 138 C 265.54 137.99 265.5 145.8 265.5 145.8 L 262.8 145.8 C 262.8 145.8 262.81 144.1 262.8 144.1 C 261.9 145.6 260.5 146 259.3 146 C 257.5 146 255.5 144.9 255.5 142.4 C 255.5 140.6 256.6 139.4 259.2 139 C 259.2 139 261.7 138.6 261.7 138.6 C 262.4 138.5 262.9 138.3 262.9 137.6 C 262.9 136.6 262.1 136.2 261 136.2 C 259.5 136.2 258.8 136.9 258.7 137.9 C 258.7 137.9 256 137.9 256 137.9 C 256.3 135.2 258.5 134 261.1 134 C 263.8 134 265.5 135.3 265.5 138 Z M 262.8 140.9 C 262.8 140.9 262.8 140.3 262.8 140.3 C 262.6 140.4 262 140.6 261.5 140.6 C 261.5 140.6 260.2 140.8 260.2 140.8 C 258.8 141 258.3 141.6 258.3 142.3 C 258.3 143.2 259 143.7 260 143.7 C 261.4 143.7 262.8 142.6 262.8 140.9 Z M 270.9 145.8 L 268.1 145.8 L 268.1 129.8 L 270.9 129.8 L 270.9 145.8 Z M 275.6 140.8 C 275.6 142.7 277 143.6 278.5 143.6 C 279.6 143.6 280.7 143.2 281 142.1 C 281 142.1 283.6 142.1 283.6 142.1 C 283.1 144.7 280.8 146 278.4 146 C 275.6 146 272.8 144.1 272.8 140 C 272.8 136 275.5 134 278.4 134 C 281.2 134 283.6 135.8 283.6 139.7 C 283.62 139.69 283.6 140.8 283.6 140.8 C 283.6 140.8 275.56 140.83 275.6 140.8 Z M 275.6 138.8 C 275.6 138.8 280.9 138.8 280.9 138.8 C 280.9 137.3 279.8 136.4 278.4 136.4 C 277.1 136.4 275.9 137.1 275.6 138.8 Z M 294.9 142.2 C 294.9 144.8 292.6 146 290 146 C 287.6 146 285 145 284.8 142.1 C 284.8 142.1 287.6 142.1 287.6 142.1 C 287.8 143.2 288.8 143.7 290.1 143.7 C 291.3 143.7 292.1 143.3 292.1 142.5 C 292.1 141.7 291.6 141.6 290 141.3 C 287.7 140.9 285.1 140.5 285.1 137.7 C 285.1 135.1 287.3 134 289.7 134 C 292.4 134 294.4 135.3 294.6 137.9 C 294.6 137.9 291.9 137.9 291.9 137.9 C 291.8 136.8 291 136.3 289.8 136.3 C 288.4 136.3 287.8 136.9 287.8 137.6 C 287.8 138.5 288.9 138.7 290.3 138.9 C 292.4 139.2 294.9 139.5 294.9 142.2 Z M 299.5 140.2 C 299.5 137.5 300.9 137 302.1 136.1 C 303.2 135.4 303.6 134.8 303.6 134 C 303.6 132.8 302.8 132.2 301.5 132.2 C 300.1 132.2 299.2 133 299.1 134.4 C 299.1 134.4 296.2 134.4 296.2 134.4 C 296.5 131 299 129.8 301.6 129.8 C 304.3 129.8 306.5 131.1 306.5 133.9 C 306.5 136.1 305.2 137 303.8 138 C 302.7 138.8 302.2 139.3 302.2 140.2 C 302.21 140.24 302.2 140.9 302.2 140.9 L 299.5 140.9 C 299.5 140.9 299.54 140.15 299.5 140.2 Z M 299.3 142.5 L 302.5 142.5 L 302.5 145.8 L 299.3 145.8 L 299.3 142.5 Z " stroke="none" fill="#000"/>  </g>  <g id="Polygon11243">    <path d="M 10.6 112.8 C 10.63 112.79 10.6 120.6 10.6 120.6 L 7.9 120.6 C 7.9 120.6 7.9 118.9 7.9 118.9 C 7 120.4 5.6 120.8 4.4 120.8 C 2.5 120.8 0.6 119.7 0.6 117.2 C 0.6 115.4 1.7 114.2 4.3 113.8 C 4.3 113.8 6.8 113.4 6.8 113.4 C 7.5 113.3 8 113.1 8 112.4 C 8 111.4 7.2 111 6 111 C 4.6 111 3.9 111.7 3.8 112.7 C 3.8 112.7 1.1 112.7 1.1 112.7 C 1.4 110 3.5 108.8 6.2 108.8 C 8.9 108.8 10.6 110.1 10.6 112.8 Z M 7.9 115.7 C 7.9 115.7 7.9 115.1 7.9 115.1 C 7.6 115.2 7.1 115.4 6.6 115.4 C 6.6 115.4 5.3 115.6 5.3 115.6 C 3.9 115.8 3.4 116.4 3.4 117.1 C 3.4 118 4.1 118.5 5 118.5 C 6.5 118.5 7.9 117.4 7.9 115.7 Z M 19.1 120.6 C 19.1 120.6 17.24 120.58 17.2 120.6 C 15.1 120.6 13.7 119.9 13.7 116.8 C 13.69 116.8 13.7 111.5 13.7 111.5 L 11.6 111.5 L 11.6 109 L 13.7 109 L 13.7 106.4 L 16.5 105.6 L 16.5 109 L 18.8 109 L 18.8 111.5 L 16.5 111.5 C 16.5 111.5 16.48 116.93 16.5 116.9 C 16.5 117.6 16.7 118.1 17.7 118.1 C 17.66 118.1 19.1 118.1 19.1 118.1 L 19.1 120.6 Z M 27.2 111.6 C 27.2 111.6 26.46 111.57 26.5 111.6 C 24.5 111.6 23.4 112.6 23.4 114.9 C 23.44 114.91 23.4 120.6 23.4 120.6 L 20.6 120.6 L 20.6 109 L 23.4 109 C 23.4 109 23.41 110.65 23.4 110.6 C 24 109.4 25.1 108.9 26.4 108.9 C 26.44 108.86 27.2 108.9 27.2 108.9 L 27.2 111.6 Z M 37.8 112.8 C 37.82 112.79 37.8 120.6 37.8 120.6 L 35.1 120.6 C 35.1 120.6 35.09 118.9 35.1 118.9 C 34.2 120.4 32.8 120.8 31.6 120.8 C 29.7 120.8 27.8 119.7 27.8 117.2 C 27.8 115.4 28.9 114.2 31.5 113.8 C 31.5 113.8 34 113.4 34 113.4 C 34.7 113.3 35.2 113.1 35.2 112.4 C 35.2 111.4 34.4 111 33.2 111 C 31.8 111 31.1 111.7 31 112.7 C 31 112.7 28.3 112.7 28.3 112.7 C 28.6 110 30.7 108.8 33.4 108.8 C 36.1 108.8 37.8 110.1 37.8 112.8 Z M 35.1 115.7 C 35.1 115.7 35.1 115.1 35.1 115.1 C 34.8 115.2 34.3 115.4 33.7 115.4 C 33.7 115.4 32.5 115.6 32.5 115.6 C 31.1 115.8 30.6 116.4 30.6 117.1 C 30.6 118 31.3 118.5 32.2 118.5 C 33.7 118.5 35.1 117.4 35.1 115.7 Z M 45.2 120.8 C 41.4 120.8 39.6 117.9 39.6 114.8 C 39.6 111.7 41.4 108.8 45.2 108.8 C 48.1 108.8 50.2 110.4 50.3 113.2 C 50.3 113.2 47.6 113.2 47.6 113.2 C 47.5 112.1 46.7 111.3 45.3 111.3 C 43.3 111.3 42.4 113 42.4 114.8 C 42.4 116.7 43.3 118.2 45.3 118.2 C 46.6 118.2 47.4 117.5 47.6 116.5 C 47.6 116.5 50.4 116.5 50.4 116.5 C 50 119.3 48 120.8 45.2 120.8 Z M 58.3 120.6 C 58.3 120.6 56.51 120.58 56.5 120.6 C 54.3 120.6 53 119.9 53 116.8 C 52.96 116.8 53 111.5 53 111.5 L 50.8 111.5 L 50.8 109 L 53 109 L 53 106.4 L 55.8 105.6 L 55.8 109 L 58.1 109 L 58.1 111.5 L 55.8 111.5 C 55.8 111.5 55.75 116.93 55.8 116.9 C 55.8 117.6 55.9 118.1 56.9 118.1 C 56.93 118.1 58.3 118.1 58.3 118.1 L 58.3 120.6 Z M 59.8 107.5 L 62.8 107.5 L 62.8 104.3 L 59.8 104.3 L 59.8 107.5 Z M 59.9 109 L 62.7 109 L 62.7 120.6 L 59.9 120.6 L 59.9 109 Z M 71.3 120.6 L 68.3 120.6 L 64 109 L 67 109 L 69.8 117.3 L 72.7 109 L 75.6 109 L 71.3 120.6 Z M 86 112.8 C 85.99 112.79 86 120.6 86 120.6 L 83.3 120.6 C 83.3 120.6 83.26 118.9 83.3 118.9 C 82.4 120.4 81 120.8 79.8 120.8 C 77.9 120.8 76 119.7 76 117.2 C 76 115.4 77 114.2 79.7 113.8 C 79.7 113.8 82.2 113.4 82.2 113.4 C 82.9 113.3 83.4 113.1 83.4 112.4 C 83.4 111.4 82.5 111 81.4 111 C 79.9 111 79.3 111.7 79.1 112.7 C 79.1 112.7 76.5 112.7 76.5 112.7 C 76.8 110 78.9 108.8 81.5 108.8 C 84.3 108.8 86 110.1 86 112.8 Z M 83.3 115.7 C 83.3 115.7 83.3 115.1 83.3 115.1 C 83 115.2 82.5 115.4 81.9 115.4 C 81.9 115.4 80.7 115.6 80.7 115.6 C 79.3 115.8 78.8 116.4 78.8 117.1 C 78.8 118 79.4 118.5 80.4 118.5 C 81.9 118.5 83.3 117.4 83.3 115.7 Z M 100.3 111.6 C 100.3 111.6 99.58 111.57 99.6 111.6 C 97.6 111.6 96.6 112.6 96.6 114.9 C 96.56 114.91 96.6 120.6 96.6 120.6 L 93.8 120.6 L 93.8 109 L 96.5 109 C 96.5 109 96.54 110.65 96.5 110.6 C 97.1 109.4 98.2 108.9 99.6 108.9 C 99.56 108.86 100.3 108.9 100.3 108.9 L 100.3 111.6 Z M 103.4 115.6 C 103.5 117.5 104.9 118.4 106.4 118.4 C 107.5 118.4 108.6 118 108.9 116.9 C 108.9 116.9 111.5 116.9 111.5 116.9 C 111 119.5 108.7 120.8 106.3 120.8 C 103.5 120.8 100.7 118.9 100.7 114.8 C 100.7 110.8 103.4 108.8 106.3 108.8 C 109.1 108.8 111.5 110.6 111.5 114.5 C 111.51 114.49 111.5 115.6 111.5 115.6 C 111.5 115.6 103.44 115.63 103.4 115.6 Z M 103.5 113.6 C 103.5 113.6 108.8 113.6 108.8 113.6 C 108.8 112.1 107.7 111.2 106.3 111.2 C 105 111.2 103.8 111.9 103.5 113.6 Z M 116.3 120.6 L 113.5 120.6 L 113.5 104.6 L 116.3 104.6 L 116.3 120.6 Z M 128.3 112.8 C 128.29 112.79 128.3 120.6 128.3 120.6 L 125.6 120.6 C 125.6 120.6 125.56 118.9 125.6 118.9 C 124.7 120.4 123.3 120.8 122.1 120.8 C 120.2 120.8 118.3 119.7 118.3 117.2 C 118.3 115.4 119.3 114.2 122 113.8 C 122 113.8 124.5 113.4 124.5 113.4 C 125.2 113.3 125.7 113.1 125.7 112.4 C 125.7 111.4 124.8 111 123.7 111 C 122.2 111 121.5 111.7 121.4 112.7 C 121.4 112.7 118.8 112.7 118.8 112.7 C 119 110 121.2 108.8 123.8 108.8 C 126.6 108.8 128.3 110.1 128.3 112.8 Z M 125.6 115.7 C 125.6 115.7 125.6 115.1 125.6 115.1 C 125.3 115.2 124.8 115.4 124.2 115.4 C 124.2 115.4 123 115.6 123 115.6 C 121.5 115.8 121.1 116.4 121.1 117.1 C 121.1 118 121.7 118.5 122.7 118.5 C 124.2 118.5 125.6 117.4 125.6 115.7 Z M 135.7 120.8 C 131.9 120.8 130.1 117.9 130.1 114.8 C 130.1 111.7 131.9 108.8 135.7 108.8 C 138.5 108.8 140.7 110.4 140.8 113.2 C 140.8 113.2 138.1 113.2 138.1 113.2 C 137.9 112.1 137.1 111.3 135.8 111.3 C 133.7 111.3 132.9 113 132.9 114.8 C 132.9 116.7 133.8 118.2 135.7 118.2 C 137.1 118.2 137.9 117.5 138.1 116.5 C 138.1 116.5 140.9 116.5 140.9 116.5 C 140.5 119.3 138.5 120.8 135.7 120.8 Z M 142.8 107.5 L 145.7 107.5 L 145.7 104.3 L 142.8 104.3 L 142.8 107.5 Z M 142.9 109 L 145.7 109 L 145.7 120.6 L 142.9 120.6 L 142.9 109 Z M 152 106.9 L 155.2 101.9 L 157.4 103.6 L 154.4 106.9 L 152 106.9 Z M 158.9 114.8 C 158.9 118.6 156.5 120.8 153.3 120.8 C 150 120.8 147.6 118.6 147.6 114.8 C 147.6 111 150 108.8 153.3 108.8 C 156.5 108.8 158.9 111 158.9 114.8 Z M 150.5 114.8 C 150.5 117.1 151.8 118.2 153.3 118.2 C 155 118.2 156.1 117 156.1 114.8 C 156.1 112.5 154.8 111.4 153.3 111.4 C 151.6 111.4 150.5 112.6 150.5 114.8 Z M 171.1 113.1 C 171.13 113.11 171.1 120.6 171.1 120.6 L 168.3 120.6 C 168.3 120.6 168.33 113.36 168.3 113.4 C 168.3 112.1 167.6 111.3 166.3 111.3 C 164.7 111.3 163.7 112.4 163.7 114.3 C 163.73 114.32 163.7 120.6 163.7 120.6 L 160.9 120.6 L 160.9 109 L 163.7 109 C 163.7 109 163.71 110.67 163.7 110.7 C 164.4 109.6 165.3 108.8 167.2 108.8 C 169.9 108.8 171.1 110.3 171.1 113.1 Z M 186 111.6 C 186 111.6 185.24 111.57 185.2 111.6 C 183.3 111.6 182.2 112.6 182.2 114.9 C 182.21 114.91 182.2 120.6 182.2 120.6 L 179.4 120.6 L 179.4 109 L 182.2 109 C 182.2 109 182.19 110.65 182.2 110.6 C 182.8 109.4 183.9 108.9 185.2 108.9 C 185.22 108.86 186 108.9 186 108.9 L 186 111.6 Z M 187.2 107.5 L 190.2 107.5 L 190.2 104.3 L 187.2 104.3 L 187.2 107.5 Z M 187.3 109 L 190.1 109 L 190.1 120.6 L 187.3 120.6 L 187.3 109 Z M 194.8 115.6 C 194.9 117.5 196.2 118.4 197.8 118.4 C 198.9 118.4 199.9 118 200.3 116.9 C 200.3 116.9 202.8 116.9 202.8 116.9 C 202.3 119.5 200 120.8 197.6 120.8 C 194.9 120.8 192.1 118.9 192.1 114.8 C 192.1 110.8 194.7 108.8 197.7 108.8 C 200.5 108.8 202.9 110.6 202.9 114.5 C 202.86 114.49 202.9 115.6 202.9 115.6 C 202.9 115.6 194.79 115.63 194.8 115.6 Z M 194.9 113.6 C 194.9 113.6 200.1 113.6 200.1 113.6 C 200.1 112.1 199.1 111.2 197.6 111.2 C 196.3 111.2 195.1 111.9 194.9 113.6 Z M 214.1 117 C 214.1 119.6 211.8 120.8 209.2 120.8 C 206.8 120.8 204.2 119.8 204 116.9 C 204 116.9 206.8 116.9 206.8 116.9 C 207 118 208 118.5 209.3 118.5 C 210.5 118.5 211.4 118.1 211.4 117.3 C 211.4 116.5 210.8 116.4 209.2 116.1 C 207 115.7 204.4 115.3 204.4 112.5 C 204.4 109.9 206.6 108.8 209 108.8 C 211.7 108.8 213.7 110.1 213.8 112.7 C 213.8 112.7 211.1 112.7 211.1 112.7 C 211 111.6 210.2 111.1 209 111.1 C 207.6 111.1 207.1 111.7 207.1 112.4 C 207.1 113.3 208.1 113.5 209.5 113.7 C 211.6 114 214.1 114.3 214.1 117 Z M 226.4 119.8 C 226.4 123.5 224 125.2 220.9 125.2 C 218.1 125.2 215.8 123.8 215.4 120.9 C 215.4 120.9 218.1 120.9 218.1 120.9 C 218.4 122.4 219.6 122.8 220.9 122.8 C 222.7 122.8 223.8 121.9 223.8 120.1 C 223.8 120.1 223.8 118.2 223.8 118.2 C 223.2 119.4 222.1 120.2 220.3 120.2 C 217.7 120.2 215.3 118.4 215.3 114.5 C 215.3 110.6 217.7 108.8 220.3 108.8 C 222 108.8 223.2 109.5 223.8 110.6 C 223.75 110.61 223.8 109 223.8 109 L 226.4 109 C 226.4 109 226.44 119.8 226.4 119.8 Z M 223.6 114.5 C 223.6 112.3 222.4 111.2 220.9 111.2 C 219.4 111.2 218 112.3 218 114.5 C 218 116.7 219.4 117.7 220.9 117.7 C 222.4 117.7 223.6 116.7 223.6 114.5 Z M 239.6 114.8 C 239.6 118.6 237.2 120.8 234 120.8 C 230.7 120.8 228.3 118.6 228.3 114.8 C 228.3 111 230.7 108.8 234 108.8 C 237.2 108.8 239.6 111 239.6 114.8 Z M 231.2 114.8 C 231.2 117.1 232.5 118.2 234 118.2 C 235.7 118.2 236.8 117 236.8 114.8 C 236.8 112.5 235.5 111.4 234 111.4 C 232.3 111.4 231.2 112.6 231.2 114.8 Z M 247.8 112.7 L 241.3 112.7 L 241.3 115.2 L 247.8 115.2 L 247.8 112.7 Z M 256.8 111.6 C 256.8 111.6 256.03 111.57 256 111.6 C 254.1 111.6 253 112.6 253 114.9 C 253 114.91 253 120.6 253 120.6 L 250.2 120.6 L 250.2 109 L 253 109 C 253 109 252.98 110.65 253 110.6 C 253.6 109.4 254.6 108.9 256 108.9 C 256.01 108.86 256.8 108.9 256.8 108.9 L 256.8 111.6 Z M 259.9 115.6 C 260 117.5 261.3 118.4 262.9 118.4 C 264 118.4 265 118 265.4 116.9 C 265.4 116.9 267.9 116.9 267.9 116.9 C 267.4 119.5 265.1 120.8 262.7 120.8 C 260 120.8 257.2 118.9 257.2 114.8 C 257.2 110.8 259.8 108.8 262.8 108.8 C 265.6 108.8 268 110.6 268 114.5 C 267.96 114.49 268 115.6 268 115.6 C 268 115.6 259.89 115.63 259.9 115.6 Z M 260 113.6 C 260 113.6 265.2 113.6 265.2 113.6 C 265.2 112.1 264.2 111.2 262.7 111.2 C 261.4 111.2 260.2 111.9 260 113.6 Z M 280.1 113.1 C 280.14 113.11 280.1 120.6 280.1 120.6 L 277.3 120.6 C 277.3 120.6 277.34 113.36 277.3 113.4 C 277.3 112.1 276.6 111.3 275.3 111.3 C 273.7 111.3 272.7 112.4 272.7 114.3 C 272.74 114.32 272.7 120.6 272.7 120.6 L 270 120.6 L 270 109 L 272.7 109 C 272.7 109 272.72 110.67 272.7 110.7 C 273.4 109.6 274.3 108.8 276.3 108.8 C 278.9 108.8 280.1 110.3 280.1 113.1 Z M 288.7 120.6 C 288.7 120.6 286.86 120.58 286.9 120.6 C 284.7 120.6 283.3 119.9 283.3 116.8 C 283.31 116.8 283.3 111.5 283.3 111.5 L 281.2 111.5 L 281.2 109 L 283.3 109 L 283.3 106.4 L 286.1 105.6 L 286.1 109 L 288.4 109 L 288.4 111.5 L 286.1 111.5 C 286.1 111.5 286.1 116.93 286.1 116.9 C 286.1 117.6 286.3 118.1 287.3 118.1 C 287.28 118.1 288.7 118.1 288.7 118.1 L 288.7 120.6 Z M 299.5 112.8 C 299.52 112.79 299.5 120.6 299.5 120.6 L 296.8 120.6 C 296.8 120.6 296.79 118.9 296.8 118.9 C 295.9 120.4 294.5 120.8 293.3 120.8 C 291.4 120.8 289.5 119.7 289.5 117.2 C 289.5 115.4 290.6 114.2 293.2 113.8 C 293.2 113.8 295.7 113.4 295.7 113.4 C 296.4 113.3 296.9 113.1 296.9 112.4 C 296.9 111.4 296.1 111 294.9 111 C 293.4 111 292.8 111.7 292.7 112.7 C 292.7 112.7 290 112.7 290 112.7 C 290.3 110 292.4 108.8 295.1 108.8 C 297.8 108.8 299.5 110.1 299.5 112.8 Z M 296.8 115.7 C 296.8 115.7 296.8 115.1 296.8 115.1 C 296.5 115.2 296 115.4 295.4 115.4 C 295.4 115.4 294.2 115.6 294.2 115.6 C 292.8 115.8 292.3 116.4 292.3 117.1 C 292.3 118 293 118.5 293.9 118.5 C 295.4 118.5 296.8 117.4 296.8 115.7 Z M 313.4 114.8 C 313.4 118.9 310.9 120.8 308.2 120.8 C 306.7 120.8 305.5 120.3 304.8 119.2 C 304.77 119.2 304.8 120.6 304.8 120.6 L 302 120.6 L 302 104.6 L 304.8 104.6 C 304.8 104.6 304.83 110.69 304.8 110.7 C 305.5 109.5 306.8 108.8 308.4 108.8 C 311.1 108.8 313.4 110.8 313.4 114.8 Z M 310.6 114.8 C 310.6 112.5 309.2 111.3 307.7 111.3 C 306.2 111.3 304.7 112.5 304.7 114.8 C 304.7 117.2 306.2 118.4 307.7 118.4 C 309.2 118.4 310.6 117.2 310.6 114.8 Z M 315.3 107.5 L 318.3 107.5 L 318.3 104.3 L 315.3 104.3 L 315.3 107.5 Z M 315.4 109 L 318.2 109 L 318.2 120.6 L 315.4 120.6 L 315.4 109 Z M 323.7 120.6 L 320.9 120.6 L 320.9 104.6 L 323.7 104.6 L 323.7 120.6 Z M 326.3 107.5 L 329.3 107.5 L 329.3 104.3 L 326.3 104.3 L 326.3 107.5 Z M 326.4 109 L 329.2 109 L 329.2 120.6 L 326.4 120.6 L 326.4 109 Z M 342.5 120.6 L 339.8 120.6 C 339.8 120.6 339.82 118.8 339.8 118.8 C 339.2 120.1 337.8 120.8 336.2 120.8 C 333.5 120.8 331.2 118.8 331.2 114.8 C 331.2 110.8 333.5 108.8 336.2 108.8 C 337.8 108.8 339.1 109.4 339.8 110.5 C 339.75 110.52 339.8 104.6 339.8 104.6 L 342.5 104.6 L 342.5 120.6 Z M 339.8 114.8 C 339.8 112.4 338.4 111.3 336.9 111.3 C 335.4 111.3 334 112.4 334 114.8 C 334 117.1 335.4 118.3 336.9 118.3 C 338.4 118.3 339.8 117.1 339.8 114.8 Z M 354.5 112.8 C 354.54 112.79 354.5 120.6 354.5 120.6 L 351.8 120.6 C 351.8 120.6 351.81 118.9 351.8 118.9 C 350.9 120.4 349.5 120.8 348.3 120.8 C 346.5 120.8 344.5 119.7 344.5 117.2 C 344.5 115.4 345.6 114.2 348.2 113.8 C 348.2 113.8 350.7 113.4 350.7 113.4 C 351.4 113.3 351.9 113.1 351.9 112.4 C 351.9 111.4 351.1 111 350 111 C 348.5 111 347.8 111.7 347.7 112.7 C 347.7 112.7 345 112.7 345 112.7 C 345.3 110 347.5 108.8 350.1 108.8 C 352.8 108.8 354.5 110.1 354.5 112.8 Z M 351.8 115.7 C 351.8 115.7 351.8 115.1 351.8 115.1 C 351.6 115.2 351 115.4 350.5 115.4 C 350.5 115.4 349.2 115.6 349.2 115.6 C 347.8 115.8 347.3 116.4 347.3 117.1 C 347.3 118 348 118.5 349 118.5 C 350.4 118.5 351.8 117.4 351.8 115.7 Z M 367.7 120.6 L 365 120.6 C 365 120.6 364.97 118.8 365 118.8 C 364.3 120.1 363 120.8 361.4 120.8 C 358.7 120.8 356.3 118.8 356.3 114.8 C 356.3 110.8 358.7 108.8 361.4 108.8 C 362.9 108.8 364.2 109.4 364.9 110.5 C 364.91 110.52 364.9 104.6 364.9 104.6 L 367.7 104.6 L 367.7 120.6 Z M 365 114.8 C 365 112.4 363.6 111.3 362.1 111.3 C 360.5 111.3 359.2 112.4 359.2 114.8 C 359.2 117.1 360.5 118.3 362.1 118.3 C 363.6 118.3 365 117.1 365 114.8 Z " stroke="none" fill="#000"/>  </g>  <g id="Polygon11242">    <path d="M 1.3 82.3 L 4.2 82.3 L 4.2 79.1 L 1.3 79.1 L 1.3 82.3 Z M 1.3 83.8 L 4.1 83.8 L 4.1 95.4 L 1.3 95.4 L 1.3 83.8 Z M 23.2 87.6 C 23.2 87.57 23.2 95.4 23.2 95.4 L 20.4 95.4 C 20.4 95.4 20.41 88.12 20.4 88.1 C 20.4 86.7 19.8 86.1 18.6 86.1 C 17.3 86.1 16.4 86.9 16.4 88.9 C 16.42 88.87 16.4 95.4 16.4 95.4 L 13.6 95.4 C 13.6 95.4 13.63 88.12 13.6 88.1 C 13.6 86.7 12.9 86.1 11.8 86.1 C 10.5 86.1 9.6 86.9 9.6 88.9 C 9.64 88.85 9.6 95.4 9.6 95.4 L 6.8 95.4 L 6.8 83.8 L 9.6 83.8 C 9.6 83.8 9.6 85.49 9.6 85.5 C 10 84.6 10.8 83.6 12.6 83.6 C 14.1 83.6 15.2 84.3 15.8 85.5 C 16.2 84.7 17.1 83.6 19.2 83.6 C 21.6 83.6 23.2 85.1 23.2 87.6 Z M 37.2 89.4 C 37.2 93.6 34.6 95.5 31.9 95.5 C 30.3 95.5 29.3 94.8 28.6 94 C 28.62 94 28.6 99.7 28.6 99.7 L 25.8 99.7 L 25.8 83.8 L 28.6 83.8 C 28.6 83.8 28.56 85.64 28.6 85.6 C 29.1 84.4 30.5 83.6 32.2 83.6 C 34.9 83.6 37.2 85.5 37.2 89.4 Z M 34.4 89.6 C 34.4 87.2 33 86.1 31.5 86.1 C 30 86.1 28.5 87.2 28.5 89.6 C 28.5 91.9 30 93 31.5 93 C 33 93 34.4 91.9 34.4 89.6 Z M 48.5 87.6 C 48.47 87.59 48.5 95.4 48.5 95.4 L 45.7 95.4 C 45.7 95.4 45.74 93.7 45.7 93.7 C 44.8 95.2 43.4 95.6 42.2 95.6 C 40.4 95.6 38.5 94.5 38.5 92 C 38.5 90.2 39.5 89 42.2 88.6 C 42.2 88.6 44.7 88.2 44.7 88.2 C 45.4 88.1 45.8 87.9 45.8 87.2 C 45.8 86.2 45 85.8 43.9 85.8 C 42.4 85.8 41.7 86.5 41.6 87.5 C 41.6 87.5 38.9 87.5 38.9 87.5 C 39.2 84.8 41.4 83.6 44 83.6 C 46.7 83.6 48.5 84.9 48.5 87.6 Z M 45.8 90.5 C 45.8 90.5 45.8 89.9 45.8 89.9 C 45.5 90 45 90.2 44.4 90.2 C 44.4 90.2 43.1 90.4 43.1 90.4 C 41.7 90.6 41.3 91.2 41.3 91.9 C 41.3 92.8 41.9 93.3 42.9 93.3 C 44.3 93.3 45.8 92.2 45.8 90.5 Z M 61.4 94.6 C 61.4 98.3 59 100 55.9 100 C 53.1 100 50.8 98.6 50.4 95.7 C 50.4 95.7 53.1 95.7 53.1 95.7 C 53.4 97.2 54.6 97.6 55.9 97.6 C 57.7 97.6 58.7 96.7 58.7 94.9 C 58.7 94.9 58.7 93 58.7 93 C 58.2 94.2 57.1 95 55.3 95 C 52.7 95 50.3 93.2 50.3 89.3 C 50.3 85.4 52.7 83.6 55.3 83.6 C 57 83.6 58.1 84.3 58.7 85.4 C 58.74 85.41 58.7 83.8 58.7 83.8 L 61.4 83.8 C 61.4 83.8 61.42 94.6 61.4 94.6 Z M 58.6 89.3 C 58.6 87.1 57.4 86 55.9 86 C 54.4 86 53 87.1 53 89.3 C 53 91.5 54.4 92.5 55.9 92.5 C 57.4 92.5 58.6 91.5 58.6 89.3 Z M 74.6 89.6 C 74.6 93.4 72.2 95.6 69 95.6 C 65.7 95.6 63.3 93.4 63.3 89.6 C 63.3 85.8 65.7 83.6 69 83.6 C 72.2 83.6 74.6 85.8 74.6 89.6 Z M 66.2 89.6 C 66.2 91.9 67.5 93 69 93 C 70.7 93 71.8 91.8 71.8 89.6 C 71.8 87.3 70.5 86.2 68.9 86.2 C 67.3 86.2 66.2 87.4 66.2 89.6 Z M 85.9 91.8 C 85.9 94.4 83.6 95.6 81 95.6 C 78.6 95.6 76 94.6 75.8 91.7 C 75.8 91.7 78.6 91.7 78.6 91.7 C 78.8 92.8 79.8 93.3 81.1 93.3 C 82.3 93.3 83.1 92.9 83.1 92.1 C 83.1 91.3 82.6 91.2 81 90.9 C 78.7 90.5 76.1 90.1 76.1 87.3 C 76.1 84.7 78.4 83.6 80.7 83.6 C 83.5 83.6 85.4 84.9 85.6 87.5 C 85.6 87.5 82.9 87.5 82.9 87.5 C 82.8 86.4 82 85.9 80.8 85.9 C 79.4 85.9 78.9 86.5 78.9 87.2 C 78.9 88.1 79.9 88.3 81.3 88.5 C 83.4 88.8 85.9 89.1 85.9 91.8 Z M 89.3 95.2 C 89.27 95.19 87.8 95.2 87.8 95.2 L 87.8 92.3 L 91.1 92.3 C 91.1 92.3 91.05 94.79 91.1 94.8 C 91.1 97.8 89 98.9 87.1 99.1 C 87.1 99.1 86.8 97.6 86.8 97.6 C 88.3 97.4 89.3 96.5 89.3 95.2 Z M 104.6 87.8 L 101.4 87.8 L 101.4 84.5 L 104.6 84.5 L 104.6 87.8 Z M 104.3 90.2 C 104.3 92.8 103 93.3 101.7 94.2 C 100.7 94.9 100.3 95.5 100.3 96.3 C 100.3 97.5 101.1 98.1 102.4 98.1 C 103.8 98.1 104.7 97.3 104.8 95.9 C 104.8 95.9 107.6 95.9 107.6 95.9 C 107.4 99.3 104.9 100.5 102.3 100.5 C 99.5 100.5 97.4 99.2 97.4 96.4 C 97.4 94.2 98.7 93.3 100.1 92.3 C 101.2 91.5 101.7 91 101.7 90.1 C 101.68 90.07 101.7 89.4 101.7 89.4 L 104.3 89.4 C 104.3 89.4 104.35 90.15 104.3 90.2 Z M 120 89.6 C 120 93.4 117.6 95.6 114.3 95.6 C 111.1 95.6 108.7 93.4 108.7 89.6 C 108.7 85.8 111.1 83.6 114.3 83.6 C 117.6 83.6 120 85.8 120 89.6 Z M 111.6 89.6 C 111.6 91.9 112.8 93 114.4 93 C 116 93 117.2 91.8 117.2 89.6 C 117.2 87.3 115.9 86.2 114.3 86.2 C 112.7 86.2 111.6 87.4 111.6 89.6 Z M 126.3 81.9 C 125.3 81.9 125.2 82.3 125.2 83 C 125.16 83.03 125.2 83.8 125.2 83.8 L 127.3 83.8 L 127.3 86.3 L 125.2 86.3 L 125.2 95.4 L 122.4 95.4 L 122.4 86.3 L 120.6 86.3 L 120.6 83.8 L 122.4 83.8 C 122.4 83.8 122.37 83.16 122.4 83.2 C 122.4 80.1 123.8 79.4 125.9 79.4 C 125.91 79.38 127.6 79.4 127.6 79.4 L 127.6 81.9 C 127.6 81.9 126.33 81.86 126.3 81.9 Z M 135.5 86.4 C 135.5 86.4 134.78 86.37 134.8 86.4 C 132.8 86.4 131.8 87.4 131.8 89.7 C 131.75 89.71 131.8 95.4 131.8 95.4 L 129 95.4 L 129 83.8 L 131.7 83.8 C 131.7 83.8 131.73 85.45 131.7 85.4 C 132.3 84.2 133.4 83.7 134.8 83.7 C 134.76 83.66 135.5 83.7 135.5 83.7 L 135.5 86.4 Z M 138.6 90.4 C 138.7 92.3 140 93.2 141.6 93.2 C 142.7 93.2 143.8 92.8 144.1 91.7 C 144.1 91.7 146.7 91.7 146.7 91.7 C 146.2 94.3 143.9 95.6 141.5 95.6 C 138.7 95.6 135.9 93.7 135.9 89.6 C 135.9 85.6 138.6 83.6 141.5 83.6 C 144.3 83.6 146.7 85.4 146.7 89.3 C 146.7 89.29 146.7 90.4 146.7 90.4 C 146.7 90.4 138.64 90.43 138.6 90.4 Z M 138.7 88.4 C 138.7 88.4 144 88.4 144 88.4 C 144 86.9 142.9 86 141.5 86 C 140.2 86 139 86.7 138.7 88.4 Z M 153.6 95.6 C 149.8 95.6 148 92.7 148 89.6 C 148 86.5 149.8 83.6 153.6 83.6 C 156.4 83.6 158.6 85.2 158.7 88 C 158.7 88 156 88 156 88 C 155.8 86.9 155 86.1 153.7 86.1 C 151.6 86.1 150.8 87.8 150.8 89.6 C 150.8 91.5 151.7 93 153.6 93 C 155 93 155.8 92.3 156 91.3 C 156 91.3 158.8 91.3 158.8 91.3 C 158.4 94.1 156.4 95.6 153.6 95.6 Z M 162.7 90.4 C 162.8 92.3 164.2 93.2 165.7 93.2 C 166.8 93.2 167.9 92.8 168.2 91.7 C 168.2 91.7 170.8 91.7 170.8 91.7 C 170.3 94.3 168 95.6 165.6 95.6 C 162.8 95.6 160 93.7 160 89.6 C 160 85.6 162.7 83.6 165.6 83.6 C 168.4 83.6 170.8 85.4 170.8 89.3 C 170.81 89.29 170.8 90.4 170.8 90.4 C 170.8 90.4 162.75 90.43 162.7 90.4 Z M 162.8 88.4 C 162.8 88.4 168.1 88.4 168.1 88.4 C 168.1 86.9 167 86 165.6 86 C 164.3 86 163.1 86.7 162.8 88.4 Z M 183 87.9 C 182.99 87.91 183 95.4 183 95.4 L 180.2 95.4 C 180.2 95.4 180.2 88.16 180.2 88.2 C 180.2 86.9 179.5 86.1 178.2 86.1 C 176.6 86.1 175.6 87.2 175.6 89.1 C 175.6 89.12 175.6 95.4 175.6 95.4 L 172.8 95.4 L 172.8 83.8 L 175.6 83.8 C 175.6 83.8 175.58 85.47 175.6 85.5 C 176.2 84.4 177.2 83.6 179.1 83.6 C 181.8 83.6 183 85.1 183 87.9 Z M 192.8 90.4 C 192.9 92.3 194.2 93.2 195.8 93.2 C 196.9 93.2 198 92.8 198.3 91.7 C 198.3 91.7 200.9 91.7 200.9 91.7 C 200.4 94.3 198.1 95.6 195.7 95.6 C 192.9 95.6 190.1 93.7 190.1 89.6 C 190.1 85.6 192.8 83.6 195.7 83.6 C 198.5 83.6 200.9 85.4 200.9 89.3 C 200.91 89.29 200.9 90.4 200.9 90.4 C 200.9 90.4 192.84 90.43 192.8 90.4 Z M 192.9 88.4 C 192.9 88.4 198.2 88.4 198.2 88.4 C 198.2 86.9 197.1 86 195.7 86 C 194.4 86 193.2 86.7 192.9 88.4 Z M 212.2 91.8 C 212.2 94.4 209.9 95.6 207.2 95.6 C 204.9 95.6 202.2 94.6 202.1 91.7 C 202.1 91.7 204.9 91.7 204.9 91.7 C 205.1 92.8 206.1 93.3 207.4 93.3 C 208.6 93.3 209.4 92.9 209.4 92.1 C 209.4 91.3 208.9 91.2 207.3 90.9 C 205 90.5 202.4 90.1 202.4 87.3 C 202.4 84.7 204.6 83.6 207 83.6 C 209.7 83.6 211.7 84.9 211.9 87.5 C 211.9 87.5 209.2 87.5 209.2 87.5 C 209.1 86.4 208.2 85.9 207.1 85.9 C 205.7 85.9 205.1 86.5 205.1 87.2 C 205.1 88.1 206.2 88.3 207.6 88.5 C 209.6 88.8 212.2 89.1 212.2 91.8 Z M 220 95.4 C 220 95.4 218.15 95.38 218.1 95.4 C 216 95.4 214.6 94.7 214.6 91.6 C 214.6 91.6 214.6 86.3 214.6 86.3 L 212.5 86.3 L 212.5 83.8 L 214.6 83.8 L 214.6 81.2 L 217.4 80.4 L 217.4 83.8 L 219.7 83.8 L 219.7 86.3 L 217.4 86.3 C 217.4 86.3 217.39 91.73 217.4 91.7 C 217.4 92.4 217.6 92.9 218.6 92.9 C 218.57 92.9 220 92.9 220 92.9 L 220 95.4 Z M 232.1 89.6 C 232.1 93.4 229.7 95.6 226.5 95.6 C 223.2 95.6 220.8 93.4 220.8 89.6 C 220.8 85.8 223.2 83.6 226.5 83.6 C 229.7 83.6 232.1 85.8 232.1 89.6 Z M 223.7 89.6 C 223.7 91.9 224.9 93 226.5 93 C 228.2 93 229.3 91.8 229.3 89.6 C 229.3 87.3 228 86.2 226.4 86.2 C 224.8 86.2 223.7 87.4 223.7 89.6 Z M 243.4 91.8 C 243.4 94.4 241.1 95.6 238.5 95.6 C 236.1 95.6 233.5 94.6 233.3 91.7 C 233.3 91.7 236.1 91.7 236.1 91.7 C 236.3 92.8 237.3 93.3 238.6 93.3 C 239.8 93.3 240.6 92.9 240.6 92.1 C 240.6 91.3 240.1 91.2 238.5 90.9 C 236.2 90.5 233.6 90.1 233.6 87.3 C 233.6 84.7 235.8 83.6 238.2 83.6 C 241 83.6 242.9 84.9 243.1 87.5 C 243.1 87.5 240.4 87.5 240.4 87.5 C 240.3 86.4 239.5 85.9 238.3 85.9 C 236.9 85.9 236.4 86.5 236.4 87.2 C 236.4 88.1 237.4 88.3 238.8 88.5 C 240.9 88.8 243.4 89.1 243.4 91.8 Z M 261.9 89.6 C 261.9 93.7 259.4 95.6 256.7 95.6 C 255.2 95.6 254 95.1 253.3 94 C 253.26 94 253.3 95.4 253.3 95.4 L 250.5 95.4 L 250.5 79.4 L 253.3 79.4 C 253.3 79.4 253.32 85.49 253.3 85.5 C 254 84.3 255.3 83.6 256.9 83.6 C 259.6 83.6 261.9 85.6 261.9 89.6 Z M 259.1 89.6 C 259.1 87.3 257.7 86.1 256.2 86.1 C 254.7 86.1 253.2 87.3 253.2 89.6 C 253.2 92 254.7 93.2 256.2 93.2 C 257.7 93.2 259.1 92 259.1 89.6 Z M 274.5 89.6 C 274.5 93.4 272.1 95.6 268.8 95.6 C 265.6 95.6 263.2 93.4 263.2 89.6 C 263.2 85.8 265.6 83.6 268.8 83.6 C 272.1 83.6 274.5 85.8 274.5 89.6 Z M 266 89.6 C 266 91.9 267.3 93 268.9 93 C 270.5 93 271.6 91.8 271.6 89.6 C 271.6 87.3 270.4 86.2 268.8 86.2 C 267.1 86.2 266 87.4 266 89.6 Z M 286.7 87.9 C 286.67 87.91 286.7 95.4 286.7 95.4 L 283.9 95.4 C 283.9 95.4 283.88 88.16 283.9 88.2 C 283.9 86.9 283.1 86.1 281.8 86.1 C 280.2 86.1 279.3 87.2 279.3 89.1 C 279.28 89.12 279.3 95.4 279.3 95.4 L 276.5 95.4 L 276.5 83.8 L 279.3 83.8 C 279.3 83.8 279.26 85.47 279.3 85.5 C 279.9 84.4 280.9 83.6 282.8 83.6 C 285.4 83.6 286.7 85.1 286.7 87.9 Z M 299.9 89.6 C 299.9 93.4 297.5 95.6 294.2 95.6 C 291 95.6 288.6 93.4 288.6 89.6 C 288.6 85.8 291 83.6 294.2 83.6 C 297.5 83.6 299.9 85.8 299.9 89.6 Z M 291.4 89.6 C 291.4 91.9 292.7 93 294.2 93 C 295.9 93 297 91.8 297 89.6 C 297 87.3 295.7 86.2 294.2 86.2 C 292.5 86.2 291.4 87.4 291.4 89.6 Z M 311.1 91.8 C 311.1 94.4 308.8 95.6 306.2 95.6 C 303.8 95.6 301.2 94.6 301 91.7 C 301 91.7 303.8 91.7 303.8 91.7 C 304 92.8 305.1 93.3 306.4 93.3 C 307.5 93.3 308.4 92.9 308.4 92.1 C 308.4 91.3 307.8 91.2 306.2 90.9 C 304 90.5 301.4 90.1 301.4 87.3 C 301.4 84.7 303.6 83.6 306 83.6 C 308.7 83.6 310.7 84.9 310.9 87.5 C 310.9 87.5 308.1 87.5 308.1 87.5 C 308 86.4 307.2 85.9 306 85.9 C 304.6 85.9 304.1 86.5 304.1 87.2 C 304.1 88.1 305.1 88.3 306.5 88.5 C 308.6 88.8 311.1 89.1 311.1 91.8 Z M 328.4 95.4 L 325.7 95.4 C 325.7 95.4 325.69 93.74 325.7 93.7 C 325 94.8 324 95.5 322.3 95.5 C 319.9 95.5 318.2 94 318.2 91 C 318.17 90.99 318.2 83.8 318.2 83.8 L 321 83.8 C 321 83.8 320.96 90.78 321 90.8 C 321 92.4 321.7 93 322.9 93 C 324.5 93 325.6 92.1 325.6 89.4 C 325.62 89.4 325.6 83.8 325.6 83.8 L 328.4 83.8 L 328.4 95.4 Z M 341.3 87.9 C 341.33 87.91 341.3 95.4 341.3 95.4 L 338.5 95.4 C 338.5 95.4 338.54 88.16 338.5 88.2 C 338.5 86.9 337.8 86.1 336.5 86.1 C 334.9 86.1 333.9 87.2 333.9 89.1 C 333.94 89.12 333.9 95.4 333.9 95.4 L 331.1 95.4 L 331.1 83.8 L 333.9 83.8 C 333.9 83.8 333.92 85.47 333.9 85.5 C 334.6 84.4 335.5 83.6 337.4 83.6 C 340.1 83.6 341.3 85.1 341.3 87.9 Z M 353.2 87.6 C 353.22 87.59 353.2 95.4 353.2 95.4 L 350.5 95.4 C 350.5 95.4 350.49 93.7 350.5 93.7 C 349.6 95.2 348.2 95.6 347 95.6 C 345.1 95.6 343.2 94.5 343.2 92 C 343.2 90.2 344.2 89 346.9 88.6 C 346.9 88.6 349.4 88.2 349.4 88.2 C 350.1 88.1 350.6 87.9 350.6 87.2 C 350.6 86.2 349.8 85.8 348.6 85.8 C 347.1 85.8 346.5 86.5 346.4 87.5 C 346.4 87.5 343.7 87.5 343.7 87.5 C 344 84.8 346.1 83.6 348.8 83.6 C 351.5 83.6 353.2 84.9 353.2 87.6 Z M 350.5 90.5 C 350.5 90.5 350.5 89.9 350.5 89.9 C 350.2 90 349.7 90.2 349.1 90.2 C 349.1 90.2 347.9 90.4 347.9 90.4 C 346.5 90.6 346 91.2 346 91.9 C 346 92.8 346.7 93.3 347.6 93.3 C 349.1 93.3 350.5 92.2 350.5 90.5 Z " stroke="none" fill="#000"/>  </g>  <g id="Polygon11241">    <path d="M 11.6 62.7 C 11.55 62.71 11.6 70.2 11.6 70.2 L 8.8 70.2 C 8.8 70.2 8.76 62.96 8.8 63 C 8.8 61.7 8 60.9 6.7 60.9 C 5.1 60.9 4.2 62 4.2 63.9 C 4.16 63.92 4.2 70.2 4.2 70.2 L 1.4 70.2 L 1.4 58.6 L 4.1 58.6 C 4.1 58.6 4.14 60.27 4.1 60.3 C 4.8 59.2 5.7 58.4 7.7 58.4 C 10.3 58.4 11.6 59.9 11.6 62.7 Z M 24.8 64.4 C 24.8 68.2 22.3 70.4 19.1 70.4 C 15.9 70.4 13.4 68.2 13.4 64.4 C 13.4 60.6 15.9 58.4 19.1 58.4 C 22.3 58.4 24.8 60.6 24.8 64.4 Z M 16.3 64.4 C 16.3 66.7 17.6 67.8 19.1 67.8 C 20.8 67.8 21.9 66.6 21.9 64.4 C 21.9 62.1 20.6 61 19.1 61 C 17.4 61 16.3 62.2 16.3 64.4 Z M 40.8 66.6 C 40.8 69.2 38.5 70.4 35.9 70.4 C 33.5 70.4 30.9 69.4 30.7 66.5 C 30.7 66.5 33.6 66.5 33.6 66.5 C 33.7 67.6 34.8 68.1 36.1 68.1 C 37.3 68.1 38.1 67.7 38.1 66.9 C 38.1 66.1 37.5 66 36 65.7 C 33.7 65.3 31.1 64.9 31.1 62.1 C 31.1 59.5 33.3 58.4 35.7 58.4 C 38.4 58.4 40.4 59.7 40.6 62.3 C 40.6 62.3 37.8 62.3 37.8 62.3 C 37.7 61.2 36.9 60.7 35.7 60.7 C 34.4 60.7 33.8 61.3 33.8 62 C 33.8 62.9 34.8 63.1 36.2 63.3 C 38.3 63.6 40.8 63.9 40.8 66.6 Z M 44.7 65.2 C 44.8 67.1 46.1 68 47.7 68 C 48.8 68 49.8 67.6 50.2 66.5 C 50.2 66.5 52.7 66.5 52.7 66.5 C 52.2 69.1 49.9 70.4 47.6 70.4 C 44.8 70.4 42 68.5 42 64.4 C 42 60.4 44.6 58.4 47.6 58.4 C 50.4 58.4 52.8 60.2 52.8 64.1 C 52.77 64.09 52.8 65.2 52.8 65.2 C 52.8 65.2 44.71 65.23 44.7 65.2 Z M 44.8 63.2 C 44.8 63.2 50 63.2 50 63.2 C 50 61.7 49 60.8 47.5 60.8 C 46.3 60.8 45 61.5 44.8 63.2 Z M 70.2 62.7 C 70.2 62.71 70.2 70.2 70.2 70.2 L 67.4 70.2 C 67.4 70.2 67.41 62.96 67.4 63 C 67.4 61.7 66.7 60.9 65.4 60.9 C 63.8 60.9 62.8 62 62.8 63.9 C 62.81 63.92 62.8 70.2 62.8 70.2 L 60 70.2 L 60 54.2 L 62.8 54.2 C 62.8 54.2 62.81 60.23 62.8 60.2 C 63.5 59.1 64.5 58.4 66.3 58.4 C 69 58.4 70.2 59.9 70.2 62.7 Z M 82.1 62.4 C 82.09 62.39 82.1 70.2 82.1 70.2 L 79.4 70.2 C 79.4 70.2 79.36 68.5 79.4 68.5 C 78.5 70 77.1 70.4 75.9 70.4 C 74 70.4 72.1 69.3 72.1 66.8 C 72.1 65 73.1 63.8 75.8 63.4 C 75.8 63.4 78.3 63 78.3 63 C 79 62.9 79.5 62.7 79.5 62 C 79.5 61 78.6 60.6 77.5 60.6 C 76 60.6 75.3 61.3 75.2 62.3 C 75.2 62.3 72.6 62.3 72.6 62.3 C 72.8 59.6 75 58.4 77.6 58.4 C 80.4 58.4 82.1 59.7 82.1 62.4 Z M 79.4 65.3 C 79.4 65.3 79.4 64.7 79.4 64.7 C 79.1 64.8 78.6 65 78 65 C 78 65 76.8 65.2 76.8 65.2 C 75.3 65.4 74.9 66 74.9 66.7 C 74.9 67.6 75.5 68.1 76.5 68.1 C 78 68.1 79.4 67 79.4 65.3 Z M 101.2 64.2 C 101.2 68.4 98.6 70.3 95.9 70.3 C 94.4 70.3 93.3 69.6 92.7 68.8 C 92.65 68.8 92.7 74.5 92.7 74.5 L 89.9 74.5 L 89.9 58.6 L 92.6 58.6 C 92.6 58.6 92.59 60.44 92.6 60.4 C 93.2 59.2 94.5 58.4 96.2 58.4 C 98.9 58.4 101.2 60.3 101.2 64.2 Z M 98.4 64.4 C 98.4 62 97 60.9 95.5 60.9 C 94 60.9 92.6 62 92.6 64.4 C 92.6 66.7 94 67.8 95.5 67.8 C 97 67.8 98.4 66.7 98.4 64.4 Z M 109.8 61.2 C 109.8 61.2 109.05 61.17 109.1 61.2 C 107.1 61.2 106 62.2 106 64.5 C 106.03 64.51 106 70.2 106 70.2 L 103.2 70.2 L 103.2 58.6 L 106 58.6 C 106 58.6 106.01 60.25 106 60.2 C 106.6 59 107.7 58.5 109 58.5 C 109.03 58.46 109.8 58.5 109.8 58.5 L 109.8 61.2 Z M 121.5 64.4 C 121.5 68.2 119.1 70.4 115.9 70.4 C 112.6 70.4 110.2 68.2 110.2 64.4 C 110.2 60.6 112.6 58.4 115.9 58.4 C 119.1 58.4 121.5 60.6 121.5 64.4 Z M 113.1 64.4 C 113.1 66.7 114.3 67.8 115.9 67.8 C 117.6 67.8 118.7 66.6 118.7 64.4 C 118.7 62.1 117.4 61 115.8 61 C 114.2 61 113.1 62.2 113.1 64.4 Z M 134.2 70.2 L 131.4 70.2 C 131.4 70.2 131.44 68.4 131.4 68.4 C 130.8 69.7 129.5 70.4 127.9 70.4 C 125.2 70.4 122.8 68.4 122.8 64.4 C 122.8 60.4 125.2 58.4 127.9 58.4 C 129.4 58.4 130.7 59 131.4 60.1 C 131.38 60.12 131.4 54.2 131.4 54.2 L 134.2 54.2 L 134.2 70.2 Z M 131.5 64.4 C 131.5 62 130 60.9 128.5 60.9 C 127 60.9 125.6 62 125.6 64.4 C 125.6 66.7 127 67.9 128.5 67.9 C 130 67.9 131.5 66.7 131.5 64.4 Z M 147 70.2 L 144.3 70.2 C 144.3 70.2 144.31 68.54 144.3 68.5 C 143.6 69.6 142.6 70.3 141 70.3 C 138.6 70.3 136.8 68.8 136.8 65.8 C 136.79 65.79 136.8 58.6 136.8 58.6 L 139.6 58.6 C 139.6 58.6 139.59 65.58 139.6 65.6 C 139.6 67.2 140.4 67.8 141.6 67.8 C 143.1 67.8 144.2 66.9 144.2 64.2 C 144.25 64.2 144.2 58.6 144.2 58.6 L 147 58.6 L 147 70.2 Z M 154.7 70.4 C 150.9 70.4 149 67.5 149 64.4 C 149 61.3 150.8 58.4 154.6 58.4 C 157.5 58.4 159.7 60 159.8 62.8 C 159.8 62.8 157 62.8 157 62.8 C 156.9 61.7 156.1 60.9 154.7 60.9 C 152.7 60.9 151.8 62.6 151.8 64.4 C 151.8 66.3 152.7 67.8 154.7 67.8 C 156 67.8 156.9 67.1 157.1 66.1 C 157.1 66.1 159.8 66.1 159.8 66.1 C 159.5 68.9 157.5 70.4 154.7 70.4 Z M 161.7 57.1 L 164.7 57.1 L 164.7 53.9 L 161.7 53.9 L 161.7 57.1 Z M 161.8 58.6 L 164.6 58.6 L 164.6 70.2 L 161.8 70.2 L 161.8 58.6 Z M 178 70.2 L 175.2 70.2 C 175.2 70.2 175.24 68.4 175.2 68.4 C 174.6 69.7 173.3 70.4 171.7 70.4 C 169 70.4 166.6 68.4 166.6 64.4 C 166.6 60.4 169 58.4 171.7 58.4 C 173.2 58.4 174.5 59 175.2 60.1 C 175.18 60.12 175.2 54.2 175.2 54.2 L 178 54.2 L 178 70.2 Z M 175.3 64.4 C 175.3 62 173.8 60.9 172.3 60.9 C 170.8 60.9 169.4 62 169.4 64.4 C 169.4 66.7 170.8 67.9 172.3 67.9 C 173.8 67.9 175.3 66.7 175.3 64.4 Z M 191.3 64.4 C 191.3 68.2 188.9 70.4 185.6 70.4 C 182.4 70.4 180 68.2 180 64.4 C 180 60.6 182.4 58.4 185.6 58.4 C 188.9 58.4 191.3 60.6 191.3 64.4 Z M 182.8 64.4 C 182.8 66.7 184.1 67.8 185.7 67.8 C 187.3 67.8 188.4 66.6 188.4 64.4 C 188.4 62.1 187.2 61 185.6 61 C 183.9 61 182.8 62.2 182.8 64.4 Z M 208.7 70.2 L 205.9 70.2 C 205.9 70.2 205.95 68.54 205.9 68.5 C 205.3 69.6 204.2 70.3 202.6 70.3 C 200.2 70.3 198.4 68.8 198.4 65.8 C 198.43 65.79 198.4 58.6 198.4 58.6 L 201.2 58.6 C 201.2 58.6 201.22 65.58 201.2 65.6 C 201.2 67.2 202 67.8 203.2 67.8 C 204.7 67.8 205.9 66.9 205.9 64.2 C 205.88 64.2 205.9 58.6 205.9 58.6 L 208.7 58.6 L 208.7 70.2 Z M 221.6 62.7 C 221.59 62.71 221.6 70.2 221.6 70.2 L 218.8 70.2 C 218.8 70.2 218.8 62.96 218.8 63 C 218.8 61.7 218.1 60.9 216.8 60.9 C 215.2 60.9 214.2 62 214.2 63.9 C 214.2 63.92 214.2 70.2 214.2 70.2 L 211.4 70.2 L 211.4 58.6 L 214.2 58.6 C 214.2 58.6 214.18 60.27 214.2 60.3 C 214.8 59.2 215.8 58.4 217.7 58.4 C 220.4 58.4 221.6 59.9 221.6 62.7 Z M 233.5 62.4 C 233.48 62.39 233.5 70.2 233.5 70.2 L 230.7 70.2 C 230.7 70.2 230.75 68.5 230.7 68.5 C 229.8 70 228.5 70.4 227.2 70.4 C 225.4 70.4 223.5 69.3 223.5 66.8 C 223.5 65 224.5 63.8 227.2 63.4 C 227.2 63.4 229.7 63 229.7 63 C 230.4 62.9 230.9 62.7 230.9 62 C 230.9 61 230 60.6 228.9 60.6 C 227.4 60.6 226.7 61.3 226.6 62.3 C 226.6 62.3 223.9 62.3 223.9 62.3 C 224.2 59.6 226.4 58.4 229 58.4 C 231.8 58.4 233.5 59.7 233.5 62.4 Z M 230.8 65.3 C 230.8 65.3 230.8 64.7 230.8 64.7 C 230.5 64.8 230 65 229.4 65 C 229.4 65 228.1 65.2 228.1 65.2 C 226.7 65.4 226.3 66 226.3 66.7 C 226.3 67.6 226.9 68.1 227.9 68.1 C 229.3 68.1 230.8 67 230.8 65.3 Z M 251.4 64.4 C 251.4 68.2 249 70.4 245.7 70.4 C 242.5 70.4 240.1 68.2 240.1 64.4 C 240.1 60.6 242.5 58.4 245.7 58.4 C 249 58.4 251.4 60.6 251.4 64.4 Z M 242.9 64.4 C 242.9 66.7 244.2 67.8 245.8 67.8 C 247.4 67.8 248.6 66.6 248.6 64.4 C 248.6 62.1 247.3 61 245.7 61 C 244.1 61 242.9 62.2 242.9 64.4 Z M 256.2 70.2 L 253.4 70.2 L 253.4 54.2 L 256.2 54.2 L 256.2 70.2 Z M 260.9 65.2 C 261 67.1 262.3 68 263.9 68 C 265 68 266 67.6 266.4 66.5 C 266.4 66.5 268.9 66.5 268.9 66.5 C 268.4 69.1 266.1 70.4 263.8 70.4 C 261 70.4 258.2 68.5 258.2 64.4 C 258.2 60.4 260.8 58.4 263.8 58.4 C 266.6 58.4 269 60.2 269 64.1 C 268.97 64.09 269 65.2 269 65.2 C 269 65.2 260.9 65.23 260.9 65.2 Z M 261 63.2 C 261 63.2 266.2 63.2 266.2 63.2 C 266.2 61.7 265.2 60.8 263.7 60.8 C 262.5 60.8 261.2 61.5 261 63.2 Z M 280.2 62.4 C 280.22 62.39 280.2 70.2 280.2 70.2 L 277.5 70.2 C 277.5 70.2 277.49 68.5 277.5 68.5 C 276.6 70 275.2 70.4 274 70.4 C 272.1 70.4 270.2 69.3 270.2 66.8 C 270.2 65 271.3 63.8 273.9 63.4 C 273.9 63.4 276.4 63 276.4 63 C 277.1 62.9 277.6 62.7 277.6 62 C 277.6 61 276.8 60.6 275.6 60.6 C 274.2 60.6 273.5 61.3 273.4 62.3 C 273.4 62.3 270.7 62.3 270.7 62.3 C 271 59.6 273.1 58.4 275.8 58.4 C 278.5 58.4 280.2 59.7 280.2 62.4 Z M 277.5 65.3 C 277.5 65.3 277.5 64.7 277.5 64.7 C 277.2 64.8 276.7 65 276.1 65 C 276.1 65 274.9 65.2 274.9 65.2 C 273.5 65.4 273 66 273 66.7 C 273 67.6 273.7 68.1 274.6 68.1 C 276.1 68.1 277.5 67 277.5 65.3 Z M 293.4 70.2 L 290.7 70.2 C 290.7 70.2 290.66 68.4 290.7 68.4 C 290 69.7 288.7 70.4 287.1 70.4 C 284.4 70.4 282 68.4 282 64.4 C 282 60.4 284.4 58.4 287.1 58.4 C 288.6 58.4 289.9 59 290.6 60.1 C 290.6 60.12 290.6 54.2 290.6 54.2 L 293.4 54.2 L 293.4 70.2 Z M 290.7 64.4 C 290.7 62 289.3 60.9 287.7 60.9 C 286.2 60.9 284.8 62 284.8 64.4 C 284.8 66.7 286.2 67.9 287.7 67.9 C 289.3 67.9 290.7 66.7 290.7 64.4 Z M 305.4 62.4 C 305.38 62.39 305.4 70.2 305.4 70.2 L 302.6 70.2 C 302.6 70.2 302.65 68.5 302.6 68.5 C 301.7 70 300.4 70.4 299.1 70.4 C 297.3 70.4 295.4 69.3 295.4 66.8 C 295.4 65 296.4 63.8 299.1 63.4 C 299.1 63.4 301.6 63 301.6 63 C 302.3 62.9 302.8 62.7 302.8 62 C 302.8 61 301.9 60.6 300.8 60.6 C 299.3 60.6 298.6 61.3 298.5 62.3 C 298.5 62.3 295.8 62.3 295.8 62.3 C 296.1 59.6 298.3 58.4 300.9 58.4 C 303.7 58.4 305.4 59.7 305.4 62.4 Z M 302.7 65.3 C 302.7 65.3 302.7 64.7 302.7 64.7 C 302.4 64.8 301.9 65 301.3 65 C 301.3 65 300 65.2 300 65.2 C 298.6 65.4 298.2 66 298.2 66.7 C 298.2 67.6 298.8 68.1 299.8 68.1 C 301.2 68.1 302.7 67 302.7 65.3 Z M 323.4 70.2 L 320.6 70.2 C 320.6 70.2 320.65 68.4 320.6 68.4 C 320 69.7 318.7 70.4 317.1 70.4 C 314.4 70.4 312 68.4 312 64.4 C 312 60.4 314.4 58.4 317.1 58.4 C 318.6 58.4 319.9 59 320.6 60.1 C 320.58 60.12 320.6 54.2 320.6 54.2 L 323.4 54.2 L 323.4 70.2 Z M 320.7 64.4 C 320.7 62 319.2 60.9 317.7 60.9 C 316.2 60.9 314.8 62 314.8 64.4 C 314.8 66.7 316.2 67.9 317.7 67.9 C 319.2 67.9 320.7 66.7 320.7 64.4 Z M 328.1 65.2 C 328.1 67.1 329.5 68 331.1 68 C 332.2 68 333.2 67.6 333.5 66.5 C 333.5 66.5 336.1 66.5 336.1 66.5 C 335.6 69.1 333.3 70.4 330.9 70.4 C 328.1 70.4 325.4 68.5 325.4 64.4 C 325.4 60.4 328 58.4 331 58.4 C 333.8 58.4 336.1 60.2 336.1 64.1 C 336.14 64.09 336.1 65.2 336.1 65.2 C 336.1 65.2 328.08 65.23 328.1 65.2 Z M 328.1 63.2 C 328.1 63.2 333.4 63.2 333.4 63.2 C 333.4 61.7 332.3 60.8 330.9 60.8 C 329.6 60.8 328.4 61.5 328.1 63.2 Z " stroke="none" fill="#000"/>  </g>  <g id="Polygon11240">    <path d="M 12 45 L 9.3 45 C 9.3 45 9.28 43.2 9.3 43.2 C 8.7 44.5 7.3 45.2 5.7 45.2 C 3 45.2 0.6 43.2 0.6 39.2 C 0.6 35.2 3 33.2 5.7 33.2 C 7.2 33.2 8.5 33.8 9.2 34.9 C 9.22 34.92 9.2 29 9.2 29 L 12 29 L 12 45 Z M 9.3 39.2 C 9.3 36.8 7.9 35.7 6.4 35.7 C 4.9 35.7 3.5 36.8 3.5 39.2 C 3.5 41.5 4.9 42.7 6.4 42.7 C 7.9 42.7 9.3 41.5 9.3 39.2 Z M 14.6 31.9 L 17.6 31.9 L 17.6 28.7 L 14.6 28.7 L 14.6 31.9 Z M 14.7 33.4 L 17.5 33.4 L 17.5 45 L 14.7 45 L 14.7 33.4 Z M 24.5 31.5 C 23.6 31.5 23.4 31.9 23.4 32.6 C 23.37 32.63 23.4 33.4 23.4 33.4 L 25.5 33.4 L 25.5 35.9 L 23.4 35.9 L 23.4 45 L 20.6 45 L 20.6 35.9 L 18.9 35.9 L 18.9 33.4 L 20.6 33.4 C 20.6 33.4 20.58 32.76 20.6 32.8 C 20.6 29.7 22 29 24.1 29 C 24.13 28.98 25.8 29 25.8 29 L 25.8 31.5 C 25.8 31.5 24.55 31.46 24.5 31.5 Z M 28.9 40 C 29 41.9 30.3 42.8 31.9 42.8 C 33 42.8 34.1 42.4 34.4 41.3 C 34.4 41.3 37 41.3 37 41.3 C 36.5 43.9 34.2 45.2 31.8 45.2 C 29 45.2 26.2 43.3 26.2 39.2 C 26.2 35.2 28.9 33.2 31.8 33.2 C 34.6 33.2 37 35 37 38.9 C 37 38.89 37 40 37 40 C 37 40 28.94 40.03 28.9 40 Z M 29 38 C 29 38 34.3 38 34.3 38 C 34.3 36.5 33.2 35.6 31.8 35.6 C 30.5 35.6 29.3 36.3 29 38 Z M 45.5 36 C 45.5 36 44.81 35.97 44.8 36 C 42.9 36 41.8 37 41.8 39.3 C 41.79 39.31 41.8 45 41.8 45 L 39 45 L 39 33.4 L 41.8 33.4 C 41.8 33.4 41.77 35.05 41.8 35 C 42.4 33.8 43.4 33.3 44.8 33.3 C 44.79 33.26 45.5 33.3 45.5 33.3 L 45.5 36 Z M 48.7 40 C 48.7 41.9 50.1 42.8 51.7 42.8 C 52.8 42.8 53.8 42.4 54.1 41.3 C 54.1 41.3 56.7 41.3 56.7 41.3 C 56.2 43.9 53.9 45.2 51.5 45.2 C 48.7 45.2 46 43.3 46 39.2 C 46 35.2 48.6 33.2 51.6 33.2 C 54.4 33.2 56.7 35 56.7 38.9 C 56.74 38.89 56.7 40 56.7 40 C 56.7 40 48.68 40.03 48.7 40 Z M 48.7 38 C 48.7 38 54 38 54 38 C 54 36.5 52.9 35.6 51.5 35.6 C 50.2 35.6 49 36.3 48.7 38 Z M 68.9 37.5 C 68.92 37.51 68.9 45 68.9 45 L 66.1 45 C 66.1 45 66.13 37.76 66.1 37.8 C 66.1 36.5 65.4 35.7 64.1 35.7 C 62.5 35.7 61.5 36.8 61.5 38.7 C 61.53 38.72 61.5 45 61.5 45 L 58.7 45 L 58.7 33.4 L 61.5 33.4 C 61.5 33.4 61.51 35.07 61.5 35.1 C 62.2 34 63.1 33.2 65 33.2 C 67.7 33.2 68.9 34.7 68.9 37.5 Z M 76.4 45.2 C 72.6 45.2 70.8 42.3 70.8 39.2 C 70.8 36.1 72.6 33.2 76.4 33.2 C 79.3 33.2 81.4 34.8 81.5 37.6 C 81.5 37.6 78.8 37.6 78.8 37.6 C 78.7 36.5 77.9 35.7 76.5 35.7 C 74.5 35.7 73.6 37.4 73.6 39.2 C 73.6 41.1 74.5 42.6 76.5 42.6 C 77.8 42.6 78.6 41.9 78.8 40.9 C 78.8 40.9 81.6 40.9 81.6 40.9 C 81.2 43.7 79.2 45.2 76.4 45.2 Z M 83.5 31.9 L 86.5 31.9 L 86.5 28.7 L 83.5 28.7 L 83.5 31.9 Z M 83.6 33.4 L 86.4 33.4 L 86.4 45 L 83.6 45 L 83.6 33.4 Z M 98.4 37.2 C 98.36 37.19 98.4 45 98.4 45 L 95.6 45 C 95.6 45 95.63 43.3 95.6 43.3 C 94.7 44.8 93.3 45.2 92.1 45.2 C 90.3 45.2 88.4 44.1 88.4 41.6 C 88.4 39.8 89.4 38.6 92.1 38.2 C 92.1 38.2 94.6 37.8 94.6 37.8 C 95.3 37.7 95.7 37.5 95.7 36.8 C 95.7 35.8 94.9 35.4 93.8 35.4 C 92.3 35.4 91.6 36.1 91.5 37.1 C 91.5 37.1 88.8 37.1 88.8 37.1 C 89.1 34.4 91.3 33.2 93.9 33.2 C 96.6 33.2 98.4 34.5 98.4 37.2 Z M 95.7 40.1 C 95.7 40.1 95.7 39.5 95.7 39.5 C 95.4 39.6 94.9 39.8 94.3 39.8 C 94.3 39.8 93 40 93 40 C 91.6 40.2 91.2 40.8 91.2 41.5 C 91.2 42.4 91.8 42.9 92.8 42.9 C 94.2 42.9 95.7 41.8 95.7 40.1 Z M 103.7 45 L 100.9 45 L 100.9 29 L 103.7 29 L 103.7 45 Z M 108.4 40 C 108.4 41.9 109.8 42.8 111.4 42.8 C 112.5 42.8 113.5 42.4 113.8 41.3 C 113.8 41.3 116.4 41.3 116.4 41.3 C 115.9 43.9 113.6 45.2 111.2 45.2 C 108.4 45.2 105.7 43.3 105.7 39.2 C 105.7 35.2 108.3 33.2 111.3 33.2 C 114.1 33.2 116.4 35 116.4 38.9 C 116.44 38.89 116.4 40 116.4 40 C 116.4 40 108.38 40.03 108.4 40 Z M 108.4 38 C 108.4 38 113.7 38 113.7 38 C 113.7 36.5 112.6 35.6 111.2 35.6 C 109.9 35.6 108.7 36.3 108.4 38 Z M 127.7 41.4 C 127.7 44 125.4 45.2 122.8 45.2 C 120.4 45.2 117.8 44.2 117.6 41.3 C 117.6 41.3 120.4 41.3 120.4 41.3 C 120.6 42.4 121.6 42.9 122.9 42.9 C 124.1 42.9 124.9 42.5 124.9 41.7 C 124.9 40.9 124.4 40.8 122.8 40.5 C 120.5 40.1 118 39.7 118 36.9 C 118 34.3 120.2 33.2 122.6 33.2 C 125.3 33.2 127.3 34.5 127.4 37.1 C 127.4 37.1 124.7 37.1 124.7 37.1 C 124.6 36 123.8 35.5 122.6 35.5 C 121.2 35.5 120.7 36.1 120.7 36.8 C 120.7 37.7 121.7 37.9 123.1 38.1 C 125.2 38.4 127.7 38.7 127.7 41.4 Z M 145.1 45 L 142.3 45 C 142.3 45 142.34 43.2 142.3 43.2 C 141.7 44.5 140.4 45.2 138.8 45.2 C 136.1 45.2 133.7 43.2 133.7 39.2 C 133.7 35.2 136.1 33.2 138.8 33.2 C 140.3 33.2 141.6 33.8 142.3 34.9 C 142.27 34.92 142.3 29 142.3 29 L 145.1 29 L 145.1 45 Z M 142.4 39.2 C 142.4 36.8 140.9 35.7 139.4 35.7 C 137.9 35.7 136.5 36.8 136.5 39.2 C 136.5 41.5 137.9 42.7 139.4 42.7 C 140.9 42.7 142.4 41.5 142.4 39.2 Z M 149.8 40 C 149.8 41.9 151.2 42.8 152.8 42.8 C 153.8 42.8 154.9 42.4 155.2 41.3 C 155.2 41.3 157.8 41.3 157.8 41.3 C 157.3 43.9 155 45.2 152.6 45.2 C 149.8 45.2 147.1 43.3 147.1 39.2 C 147.1 35.2 149.7 33.2 152.6 33.2 C 155.5 33.2 157.8 35 157.8 38.9 C 157.83 38.89 157.8 40 157.8 40 C 157.8 40 149.77 40.03 149.8 40 Z M 149.8 38 C 149.8 38 155.1 38 155.1 38 C 155.1 36.5 154 35.6 152.6 35.6 C 151.3 35.6 150.1 36.3 149.8 38 Z M 174.3 37.2 C 174.34 37.19 174.3 45 174.3 45 L 171.6 45 C 171.6 45 171.61 43.3 171.6 43.3 C 170.7 44.8 169.3 45.2 168.1 45.2 C 166.3 45.2 164.3 44.1 164.3 41.6 C 164.3 39.8 165.4 38.6 168 38.2 C 168 38.2 170.5 37.8 170.5 37.8 C 171.2 37.7 171.7 37.5 171.7 36.8 C 171.7 35.8 170.9 35.4 169.8 35.4 C 168.3 35.4 167.6 36.1 167.5 37.1 C 167.5 37.1 164.8 37.1 164.8 37.1 C 165.1 34.4 167.3 33.2 169.9 33.2 C 172.6 33.2 174.3 34.5 174.3 37.2 Z M 171.6 40.1 C 171.6 40.1 171.6 39.5 171.6 39.5 C 171.4 39.6 170.8 39.8 170.3 39.8 C 170.3 39.8 169 40 169 40 C 167.6 40.2 167.1 40.8 167.1 41.5 C 167.1 42.4 167.8 42.9 168.8 42.9 C 170.2 42.9 171.6 41.8 171.6 40.1 Z M 179.7 45 L 176.9 45 L 176.9 29 L 179.7 29 L 179.7 45 Z M 188.3 45 C 188.3 45 186.48 44.98 186.5 45 C 184.3 45 182.9 44.3 182.9 41.2 C 182.93 41.2 182.9 35.9 182.9 35.9 L 180.8 35.9 L 180.8 33.4 L 182.9 33.4 L 182.9 30.8 L 185.7 30 L 185.7 33.4 L 188 33.4 L 188 35.9 L 185.7 35.9 C 185.7 35.9 185.72 41.33 185.7 41.3 C 185.7 42 185.9 42.5 186.9 42.5 C 186.9 42.5 188.3 42.5 188.3 42.5 L 188.3 45 Z M 199.1 37.2 C 199.14 37.19 199.1 45 199.1 45 L 196.4 45 C 196.4 45 196.41 43.3 196.4 43.3 C 195.5 44.8 194.1 45.2 192.9 45.2 C 191.1 45.2 189.1 44.1 189.1 41.6 C 189.1 39.8 190.2 38.6 192.8 38.2 C 192.8 38.2 195.3 37.8 195.3 37.8 C 196 37.7 196.5 37.5 196.5 36.8 C 196.5 35.8 195.7 35.4 194.6 35.4 C 193.1 35.4 192.4 36.1 192.3 37.1 C 192.3 37.1 189.6 37.1 189.6 37.1 C 189.9 34.4 192.1 33.2 194.7 33.2 C 197.4 33.2 199.1 34.5 199.1 37.2 Z M 196.4 40.1 C 196.4 40.1 196.4 39.5 196.4 39.5 C 196.2 39.6 195.6 39.8 195.1 39.8 C 195.1 39.8 193.8 40 193.8 40 C 192.4 40.2 191.9 40.8 191.9 41.5 C 191.9 42.4 192.6 42.9 193.6 42.9 C 195 42.9 196.4 41.8 196.4 40.1 Z M 213.5 36 C 213.5 36 212.73 35.97 212.7 36 C 210.8 36 209.7 37 209.7 39.3 C 209.7 39.31 209.7 45 209.7 45 L 206.9 45 L 206.9 33.4 L 209.7 33.4 C 209.7 33.4 209.68 35.05 209.7 35 C 210.3 33.8 211.3 33.3 212.7 33.3 C 212.71 33.26 213.5 33.3 213.5 33.3 L 213.5 36 Z M 216.6 40 C 216.7 41.9 218 42.8 219.6 42.8 C 220.7 42.8 221.7 42.4 222.1 41.3 C 222.1 41.3 224.6 41.3 224.6 41.3 C 224.1 43.9 221.8 45.2 219.4 45.2 C 216.7 45.2 213.9 43.3 213.9 39.2 C 213.9 35.2 216.5 33.2 219.5 33.2 C 222.3 33.2 224.7 35 224.7 38.9 C 224.66 38.89 224.7 40 224.7 40 C 224.7 40 216.59 40.03 216.6 40 Z M 216.7 38 C 216.7 38 221.9 38 221.9 38 C 221.9 36.5 220.9 35.6 219.4 35.6 C 218.1 35.6 216.9 36.3 216.7 38 Z M 236.8 37.5 C 236.84 37.51 236.8 45 236.8 45 L 234 45 C 234 45 234.04 37.76 234 37.8 C 234 36.5 233.3 35.7 232 35.7 C 230.4 35.7 229.4 36.8 229.4 38.7 C 229.44 38.72 229.4 45 229.4 45 L 226.7 45 L 226.7 33.4 L 229.4 33.4 C 229.4 33.4 229.42 35.07 229.4 35.1 C 230.1 34 231 33.2 233 33.2 C 235.6 33.2 236.8 34.7 236.8 37.5 Z M 245.4 45 C 245.4 45 243.56 44.98 243.6 45 C 241.4 45 240 44.3 240 41.2 C 240.01 41.2 240 35.9 240 35.9 L 237.9 35.9 L 237.9 33.4 L 240 33.4 L 240 30.8 L 242.8 30 L 242.8 33.4 L 245.1 33.4 L 245.1 35.9 L 242.8 35.9 C 242.8 35.9 242.8 41.33 242.8 41.3 C 242.8 42 243 42.5 244 42.5 C 243.98 42.5 245.4 42.5 245.4 42.5 L 245.4 45 Z M 256.2 37.2 C 256.22 37.19 256.2 45 256.2 45 L 253.5 45 C 253.5 45 253.49 43.3 253.5 43.3 C 252.6 44.8 251.2 45.2 250 45.2 C 248.1 45.2 246.2 44.1 246.2 41.6 C 246.2 39.8 247.3 38.6 249.9 38.2 C 249.9 38.2 252.4 37.8 252.4 37.8 C 253.1 37.7 253.6 37.5 253.6 36.8 C 253.6 35.8 252.8 35.4 251.6 35.4 C 250.1 35.4 249.5 36.1 249.4 37.1 C 249.4 37.1 246.7 37.1 246.7 37.1 C 247 34.4 249.1 33.2 251.8 33.2 C 254.5 33.2 256.2 34.5 256.2 37.2 Z M 253.5 40.1 C 253.5 40.1 253.5 39.5 253.5 39.5 C 253.2 39.6 252.7 39.8 252.1 39.8 C 252.1 39.8 250.9 40 250.9 40 C 249.5 40.2 249 40.8 249 41.5 C 249 42.4 249.7 42.9 250.6 42.9 C 252.1 42.9 253.5 41.8 253.5 40.1 Z M 270.1 39.2 C 270.1 43.3 267.6 45.2 264.9 45.2 C 263.4 45.2 262.2 44.7 261.5 43.6 C 261.47 43.6 261.5 45 261.5 45 L 258.7 45 L 258.7 29 L 261.5 29 C 261.5 29 261.53 35.09 261.5 35.1 C 262.2 33.9 263.5 33.2 265.1 33.2 C 267.8 33.2 270.1 35.2 270.1 39.2 Z M 267.3 39.2 C 267.3 36.9 265.9 35.7 264.4 35.7 C 262.9 35.7 261.4 36.9 261.4 39.2 C 261.4 41.6 262.9 42.8 264.4 42.8 C 265.9 42.8 267.3 41.6 267.3 39.2 Z M 272 31.9 L 275 31.9 L 275 28.7 L 272 28.7 L 272 31.9 Z M 272.1 33.4 L 274.9 33.4 L 274.9 45 L 272.1 45 L 272.1 33.4 Z M 280.4 45 L 277.6 45 L 277.6 29 L 280.4 29 L 280.4 45 Z M 283 31.9 L 286 31.9 L 286 28.7 L 283 28.7 L 283 31.9 Z M 283.1 33.4 L 285.9 33.4 L 285.9 45 L 283.1 45 L 283.1 33.4 Z M 299.2 45 L 296.5 45 C 296.5 45 296.52 43.2 296.5 43.2 C 295.9 44.5 294.5 45.2 292.9 45.2 C 290.2 45.2 287.9 43.2 287.9 39.2 C 287.9 35.2 290.2 33.2 292.9 33.2 C 294.5 33.2 295.8 33.8 296.5 34.9 C 296.45 34.92 296.5 29 296.5 29 L 299.2 29 L 299.2 45 Z M 296.5 39.2 C 296.5 36.8 295.1 35.7 293.6 35.7 C 292.1 35.7 290.7 36.8 290.7 39.2 C 290.7 41.5 292.1 42.7 293.6 42.7 C 295.1 42.7 296.5 41.5 296.5 39.2 Z M 311.2 37.2 C 311.24 37.19 311.2 45 311.2 45 L 308.5 45 C 308.5 45 308.51 43.3 308.5 43.3 C 307.6 44.8 306.2 45.2 305 45.2 C 303.2 45.2 301.2 44.1 301.2 41.6 C 301.2 39.8 302.3 38.6 304.9 38.2 C 304.9 38.2 307.4 37.8 307.4 37.8 C 308.1 37.7 308.6 37.5 308.6 36.8 C 308.6 35.8 307.8 35.4 306.7 35.4 C 305.2 35.4 304.5 36.1 304.4 37.1 C 304.4 37.1 301.7 37.1 301.7 37.1 C 302 34.4 304.2 33.2 306.8 33.2 C 309.5 33.2 311.2 34.5 311.2 37.2 Z M 308.5 40.1 C 308.5 40.1 308.5 39.5 308.5 39.5 C 308.3 39.6 307.7 39.8 307.2 39.8 C 307.2 39.8 305.9 40 305.9 40 C 304.5 40.2 304 40.8 304 41.5 C 304 42.4 304.7 42.9 305.7 42.9 C 307.1 42.9 308.5 41.8 308.5 40.1 Z M 324.4 45 L 321.7 45 C 321.7 45 321.67 43.2 321.7 43.2 C 321 44.5 319.7 45.2 318.1 45.2 C 315.4 45.2 313 43.2 313 39.2 C 313 35.2 315.4 33.2 318.1 33.2 C 319.6 33.2 320.9 33.8 321.6 34.9 C 321.61 34.92 321.6 29 321.6 29 L 324.4 29 L 324.4 45 Z M 321.7 39.2 C 321.7 36.8 320.3 35.7 318.8 35.7 C 317.2 35.7 315.9 36.8 315.9 39.2 C 315.9 41.5 317.2 42.7 318.8 42.7 C 320.3 42.7 321.7 41.5 321.7 39.2 Z M 342.3 33.4 C 342.3 33.4 337.28 46.72 337.3 46.7 C 336.8 48.1 335.6 48.7 334 48.7 C 334 48.68 332.3 48.7 332.3 48.7 L 332.3 46.2 C 332.3 46.2 333.52 46.2 333.5 46.2 C 334.4 46.2 334.9 45.9 335.2 45.1 C 335.18 45.07 335.4 44.5 335.4 44.5 L 331 33.4 L 334 33.4 L 336.7 41 L 339.4 33.4 L 342.3 33.4 Z " stroke="none" fill="#000"/>  </g>  <g id="Polygon11239">    <path d="M 13.1 8.7 C 13.1 11.3 11.3 13.8 7.7 13.8 C 7.71 13.75 4.5 13.8 4.5 13.8 L 4.5 19.8 L 1.6 19.8 L 1.6 4 C 1.6 4 7.98 4.03 8 4 C 11.4 4 13.1 6.3 13.1 8.7 Z M 10.2 8.9 C 10.2 7.7 9.5 6.8 7.9 6.8 C 7.9 6.76 4.5 6.8 4.5 6.8 L 4.5 11 C 4.5 11 7.79 11.02 7.8 11 C 9.4 11 10.2 10.1 10.2 8.9 Z M 25.1 19.8 L 22.3 19.8 C 22.3 19.8 22.34 18.14 22.3 18.1 C 21.7 19.2 20.6 19.9 19 19.9 C 16.6 19.9 14.8 18.4 14.8 15.4 C 14.83 15.39 14.8 8.2 14.8 8.2 L 17.6 8.2 C 17.6 8.2 17.62 15.18 17.6 15.2 C 17.6 16.8 18.4 17.4 19.6 17.4 C 21.1 17.4 22.3 16.5 22.3 13.8 C 22.28 13.8 22.3 8.2 22.3 8.2 L 25.1 8.2 L 25.1 19.8 Z M 29.8 14.8 C 29.8 16.7 31.2 17.6 32.8 17.6 C 33.9 17.6 34.9 17.2 35.2 16.1 C 35.2 16.1 37.8 16.1 37.8 16.1 C 37.3 18.7 35 20 32.6 20 C 29.8 20 27.1 18.1 27.1 14 C 27.1 10 29.7 8 32.7 8 C 35.5 8 37.8 9.8 37.8 13.7 C 37.84 13.69 37.8 14.8 37.8 14.8 C 37.8 14.8 29.78 14.83 29.8 14.8 Z M 29.8 12.8 C 29.8 12.8 35.1 12.8 35.1 12.8 C 35.1 11.3 34 10.4 32.6 10.4 C 31.3 10.4 30.1 11.1 29.8 12.8 Z M 49.1 16.2 C 49.1 18.8 46.8 20 44.2 20 C 41.8 20 39.2 19 39 16.1 C 39 16.1 41.8 16.1 41.8 16.1 C 42 17.2 43 17.7 44.3 17.7 C 45.5 17.7 46.3 17.3 46.3 16.5 C 46.3 15.7 45.8 15.6 44.2 15.3 C 41.9 14.9 39.4 14.5 39.4 11.7 C 39.4 9.1 41.6 8 44 8 C 46.7 8 48.7 9.3 48.8 11.9 C 48.8 11.9 46.1 11.9 46.1 11.9 C 46 10.8 45.2 10.3 44 10.3 C 42.6 10.3 42.1 10.9 42.1 11.6 C 42.1 12.5 43.1 12.7 44.5 12.9 C 46.6 13.2 49.1 13.5 49.1 16.2 Z M 56.9 19.8 C 56.9 19.8 55.08 19.78 55.1 19.8 C 52.9 19.8 51.5 19.1 51.5 16 C 51.53 16 51.5 10.7 51.5 10.7 L 49.4 10.7 L 49.4 8.2 L 51.5 8.2 L 51.5 5.6 L 54.3 4.8 L 54.3 8.2 L 56.6 8.2 L 56.6 10.7 L 54.3 10.7 C 54.3 10.7 54.33 16.13 54.3 16.1 C 54.3 16.8 54.5 17.3 55.5 17.3 C 55.5 17.3 56.9 17.3 56.9 17.3 L 56.9 19.8 Z M 69.1 14 C 69.1 17.8 66.7 20 63.4 20 C 60.2 20 57.7 17.8 57.7 14 C 57.7 10.2 60.2 8 63.4 8 C 66.7 8 69.1 10.2 69.1 14 Z M 60.6 14 C 60.6 16.3 61.9 17.4 63.4 17.4 C 65.1 17.4 66.2 16.2 66.2 14 C 66.2 11.7 64.9 10.6 63.4 10.6 C 61.7 10.6 60.6 11.8 60.6 14 Z M 86.5 8.2 L 86.5 24.1 L 83.7 24.1 C 83.7 24.1 83.75 18.06 83.7 18.1 C 83.1 19.2 81.9 19.9 80.3 19.9 C 77.6 19.9 75.2 18 75.2 13.9 C 75.2 9.9 77.5 8 80.2 8 C 81.8 8 83.1 8.6 83.8 9.8 C 83.81 9.83 83.8 8.2 83.8 8.2 L 86.5 8.2 Z M 83.8 13.9 C 83.8 11.5 82.4 10.5 80.9 10.5 C 79.4 10.5 78 11.5 78 13.9 C 78 16.2 79.4 17.3 80.9 17.3 C 82.4 17.3 83.8 16.3 83.8 13.9 Z M 99.3 19.8 L 96.6 19.8 C 96.6 19.8 96.58 18.14 96.6 18.1 C 95.9 19.2 94.9 19.9 93.2 19.9 C 90.8 19.9 89.1 18.4 89.1 15.4 C 89.06 15.39 89.1 8.2 89.1 8.2 L 91.9 8.2 C 91.9 8.2 91.85 15.18 91.9 15.2 C 91.9 16.8 92.6 17.4 93.8 17.4 C 95.4 17.4 96.5 16.5 96.5 13.8 C 96.52 13.8 96.5 8.2 96.5 8.2 L 99.3 8.2 L 99.3 19.8 Z M 104 14.8 C 104.1 16.7 105.4 17.6 107 17.6 C 108.1 17.6 109.1 17.2 109.5 16.1 C 109.5 16.1 112 16.1 112 16.1 C 111.5 18.7 109.2 20 106.9 20 C 104.1 20 101.3 18.1 101.3 14 C 101.3 10 103.9 8 106.9 8 C 109.7 8 112.1 9.8 112.1 13.7 C 112.08 13.69 112.1 14.8 112.1 14.8 C 112.1 14.8 104.01 14.83 104 14.8 Z M 104.1 12.8 C 104.1 12.8 109.3 12.8 109.3 12.8 C 109.3 11.3 108.3 10.4 106.8 10.4 C 105.6 10.4 104.3 11.1 104.1 12.8 Z M 128.2 16.2 C 128.2 18.8 125.9 20 123.2 20 C 120.9 20 118.3 19 118.1 16.1 C 118.1 16.1 120.9 16.1 120.9 16.1 C 121.1 17.2 122.1 17.7 123.4 17.7 C 124.6 17.7 125.4 17.3 125.4 16.5 C 125.4 15.7 124.9 15.6 123.3 15.3 C 121 14.9 118.4 14.5 118.4 11.7 C 118.4 9.1 120.6 8 123 8 C 125.7 8 127.7 9.3 127.9 11.9 C 127.9 11.9 125.2 11.9 125.2 11.9 C 125.1 10.8 124.2 10.3 123.1 10.3 C 121.7 10.3 121.1 10.9 121.1 11.6 C 121.1 12.5 122.2 12.7 123.6 12.9 C 125.6 13.2 128.2 13.5 128.2 16.2 Z M 132 14.8 C 132.1 16.7 133.4 17.6 135 17.6 C 136.1 17.6 137.2 17.2 137.5 16.1 C 137.5 16.1 140 16.1 140 16.1 C 139.5 18.7 137.3 20 134.9 20 C 132.1 20 129.3 18.1 129.3 14 C 129.3 10 131.9 8 134.9 8 C 137.7 8 140.1 9.8 140.1 13.7 C 140.09 13.69 140.1 14.8 140.1 14.8 C 140.1 14.8 132.03 14.83 132 14.8 Z M 132.1 12.8 C 132.1 12.8 137.4 12.8 137.4 12.8 C 137.4 11.3 136.3 10.4 134.9 10.4 C 133.6 10.4 132.3 11.1 132.1 12.8 Z M 157.5 12.3 C 157.52 12.31 157.5 19.8 157.5 19.8 L 154.7 19.8 C 154.7 19.8 154.73 12.56 154.7 12.6 C 154.7 11.3 154 10.5 152.7 10.5 C 151.1 10.5 150.1 11.6 150.1 13.5 C 150.13 13.52 150.1 19.8 150.1 19.8 L 147.3 19.8 L 147.3 3.8 L 150.1 3.8 C 150.1 3.8 150.13 9.83 150.1 9.8 C 150.8 8.7 151.8 8 153.6 8 C 156.3 8 157.5 9.5 157.5 12.3 Z M 169.4 12 C 169.41 11.99 169.4 19.8 169.4 19.8 L 166.7 19.8 C 166.7 19.8 166.68 18.1 166.7 18.1 C 165.8 19.6 164.4 20 163.2 20 C 161.3 20 159.4 18.9 159.4 16.4 C 159.4 14.6 160.4 13.4 163.1 13 C 163.1 13 165.6 12.6 165.6 12.6 C 166.3 12.5 166.8 12.3 166.8 11.6 C 166.8 10.6 165.9 10.2 164.8 10.2 C 163.3 10.2 162.7 10.9 162.6 11.9 C 162.6 11.9 159.9 11.9 159.9 11.9 C 160.2 9.2 162.3 8 165 8 C 167.7 8 169.4 9.3 169.4 12 Z M 166.7 14.9 C 166.7 14.9 166.7 14.3 166.7 14.3 C 166.4 14.4 165.9 14.6 165.3 14.6 C 165.3 14.6 164.1 14.8 164.1 14.8 C 162.7 15 162.2 15.6 162.2 16.3 C 162.2 17.2 162.9 17.7 163.8 17.7 C 165.3 17.7 166.7 16.6 166.7 14.9 Z M 182.1 12.3 C 182.11 12.31 182.1 19.8 182.1 19.8 L 179.3 19.8 C 179.3 19.8 179.32 12.56 179.3 12.6 C 179.3 11.3 178.6 10.5 177.3 10.5 C 175.7 10.5 174.7 11.6 174.7 13.5 C 174.72 13.52 174.7 19.8 174.7 19.8 L 171.9 19.8 L 171.9 8.2 L 174.7 8.2 C 174.7 8.2 174.7 9.87 174.7 9.9 C 175.3 8.8 176.3 8 178.2 8 C 180.9 8 182.1 9.5 182.1 12.3 Z M 197 10.8 C 197 10.8 196.22 10.77 196.2 10.8 C 194.3 10.8 193.2 11.8 193.2 14.1 C 193.2 14.11 193.2 19.8 193.2 19.8 L 190.4 19.8 L 190.4 8.2 L 193.2 8.2 C 193.2 8.2 193.18 9.85 193.2 9.8 C 193.8 8.6 194.8 8.1 196.2 8.1 C 196.2 8.06 197 8.1 197 8.1 L 197 10.8 Z M 200.1 14.8 C 200.1 16.7 201.5 17.6 203.1 17.6 C 204.2 17.6 205.2 17.2 205.5 16.1 C 205.5 16.1 208.1 16.1 208.1 16.1 C 207.6 18.7 205.3 20 202.9 20 C 200.1 20 197.4 18.1 197.4 14 C 197.4 10 200 8 203 8 C 205.8 8 208.2 9.8 208.2 13.7 C 208.15 13.69 208.2 14.8 208.2 14.8 C 208.2 14.8 200.09 14.83 200.1 14.8 Z M 200.1 12.8 C 200.1 12.8 205.4 12.8 205.4 12.8 C 205.4 11.3 204.3 10.4 202.9 10.4 C 201.6 10.4 200.4 11.1 200.1 12.8 Z M 220.8 19.8 L 218.1 19.8 C 218.1 19.8 218.06 18 218.1 18 C 217.4 19.3 216.1 20 214.5 20 C 211.8 20 209.4 18 209.4 14 C 209.4 10 211.8 8 214.5 8 C 216 8 217.3 8.6 218 9.7 C 218 9.72 218 3.8 218 3.8 L 220.8 3.8 L 220.8 19.8 Z M 218.1 14 C 218.1 11.6 216.7 10.5 215.1 10.5 C 213.6 10.5 212.2 11.6 212.2 14 C 212.2 16.3 213.6 17.5 215.1 17.5 C 216.7 17.5 218.1 16.3 218.1 14 Z M 233.7 19.8 L 230.9 19.8 C 230.9 19.8 230.93 18.14 230.9 18.1 C 230.3 19.2 229.2 19.9 227.6 19.9 C 225.2 19.9 223.4 18.4 223.4 15.4 C 223.42 15.39 223.4 8.2 223.4 8.2 L 226.2 8.2 C 226.2 8.2 226.21 15.18 226.2 15.2 C 226.2 16.8 227 17.4 228.2 17.4 C 229.7 17.4 230.9 16.5 230.9 13.8 C 230.87 13.8 230.9 8.2 230.9 8.2 L 233.7 8.2 L 233.7 19.8 Z M 241.3 20 C 237.5 20 235.7 17.1 235.7 14 C 235.7 10.9 237.5 8 241.3 8 C 244.1 8 246.3 9.6 246.4 12.4 C 246.4 12.4 243.7 12.4 243.7 12.4 C 243.5 11.3 242.7 10.5 241.4 10.5 C 239.3 10.5 238.5 12.2 238.5 14 C 238.5 15.9 239.4 17.4 241.3 17.4 C 242.7 17.4 243.5 16.7 243.7 15.7 C 243.7 15.7 246.5 15.7 246.5 15.7 C 246.1 18.5 244.1 20 241.3 20 Z M 248.4 6.7 L 251.3 6.7 L 251.3 3.5 L 248.4 3.5 L 248.4 6.7 Z M 248.4 8.2 L 251.2 8.2 L 251.2 19.8 L 248.4 19.8 L 248.4 8.2 Z M 264.6 19.8 L 261.9 19.8 C 261.9 19.8 261.87 18 261.9 18 C 261.2 19.3 259.9 20 258.3 20 C 255.6 20 253.2 18 253.2 14 C 253.2 10 255.6 8 258.3 8 C 259.8 8 261.1 8.6 261.8 9.7 C 261.8 9.72 261.8 3.8 261.8 3.8 L 264.6 3.8 L 264.6 19.8 Z M 261.9 14 C 261.9 11.6 260.5 10.5 258.9 10.5 C 257.4 10.5 256.1 11.6 256.1 14 C 256.1 16.3 257.4 17.5 258.9 17.5 C 260.5 17.5 261.9 16.3 261.9 14 Z M 277.9 14 C 277.9 17.8 275.5 20 272.2 20 C 269 20 266.6 17.8 266.6 14 C 266.6 10.2 269 8 272.2 8 C 275.5 8 277.9 10.2 277.9 14 Z M 269.4 14 C 269.4 16.3 270.7 17.4 272.3 17.4 C 273.9 17.4 275.1 16.2 275.1 14 C 275.1 11.7 273.8 10.6 272.2 10.6 C 270.6 10.6 269.4 11.8 269.4 14 Z M 287.9 19.8 L 285.2 19.8 L 285.2 3.8 L 287.9 3.8 L 287.9 19.8 Z M 301.3 14 C 301.3 17.8 298.8 20 295.6 20 C 292.4 20 289.9 17.8 289.9 14 C 289.9 10.2 292.4 8 295.6 8 C 298.8 8 301.3 10.2 301.3 14 Z M 292.8 14 C 292.8 16.3 294.1 17.4 295.6 17.4 C 297.3 17.4 298.4 16.2 298.4 14 C 298.4 11.7 297.1 10.6 295.6 10.6 C 293.9 10.6 292.8 11.8 292.8 14 Z M 312.5 16.2 C 312.5 18.8 310.2 20 307.6 20 C 305.2 20 302.6 19 302.4 16.1 C 302.4 16.1 305.2 16.1 305.2 16.1 C 305.4 17.2 306.4 17.7 307.8 17.7 C 308.9 17.7 309.8 17.3 309.8 16.5 C 309.8 15.7 309.2 15.6 307.6 15.3 C 305.4 14.9 302.8 14.5 302.8 11.7 C 302.8 9.1 305 8 307.4 8 C 310.1 8 312.1 9.3 312.2 11.9 C 312.2 11.9 309.5 11.9 309.5 11.9 C 309.4 10.8 308.6 10.3 307.4 10.3 C 306 10.3 305.5 10.9 305.5 11.6 C 305.5 12.5 306.5 12.7 307.9 12.9 C 310 13.2 312.5 13.5 312.5 16.2 Z " stroke="none" fill="#000"/>  </g></svg>