<?xml version="1.0" standalone="no"?><!DOCTYPE svg PUBLIC "-//W3C//DTD SVG 1.1//EN" "http://www.w3.org/Graphics/SVG/1.1/DTD/svg11.dtd"><svg xmlns="http://www.w3.org/2000/svg" version="1.1" width="387px" height="132.4px" viewBox="0 -4 387 132.4" style="top:-4px"><desc>Are there certain asset classes sectors that investors should avoid</desc><defs/><g id="Polygon12275"><path d="m9 27.6h-2L0 46.9h2l7-19.3zm13.2 13.8c0 2.6-2.3 3.8-4.9 3.8c-2.4 0-5-1-5.2-3.9h2.9c.1 1.1 1.2 1.6 2.5 1.6c1.1 0 2-.4 2-1.2c0-.8-.6-.9-2.2-1.2c-2.2-.4-4.8-.8-4.8-3.6c0-2.6 2.2-3.7 4.6-3.7c2.7 0 4.7 1.3 4.9 3.9h-2.8c-.1-1.1-.9-1.6-2.1-1.6c-1.3 0-1.9.6-1.9 1.3c0 .9 1 1.1 2.4 1.3c2.1.3 4.6.6 4.6 3.3zm3.9-1.4c.1 1.9 1.4 2.8 3 2.8c1.1 0 2.1-.4 2.5-1.5h2.5c-.5 2.6-2.8 3.9-5.1 3.9c-2.8 0-5.6-1.9-5.6-6c0-4 2.6-6 5.6-6c2.8 0 5.2 1.8 5.2 5.7c-.03-.01 0 1.1 0 1.1c0 0-8.1.03-8.1 0zm.1-2h5.2c0-1.5-1-2.4-2.5-2.4c-1.2 0-2.5.7-2.7 2.4zm14.9 7.2c-3.8 0-5.7-2.9-5.7-6c0-3.1 1.8-6 5.6-6c2.9 0 5.1 1.6 5.2 4.4h-2.8c-.1-1.1-.9-1.9-2.3-1.9c-2 0-2.9 1.7-2.9 3.5c0 1.9.9 3.4 2.9 3.4c1.3 0 2.2-.7 2.3-1.7h2.8c-.3 2.8-2.4 4.3-5.1 4.3zm13.1-.2s-1.87-.02-1.9 0c-2.1 0-3.5-.7-3.5-3.8c-.02 0 0-5.3 0-5.3h-2.1v-2.5h2.1v-2.6l2.8-.8v3.4h2.3v2.5h-2.3s-.02 5.43 0 5.4c0 .7.2 1.2 1.2 1.2h1.4v2.5zm12.1-5.8c0 3.8-2.4 6-5.7 6c-3.2 0-5.6-2.2-5.6-6c0-3.8 2.4-6 5.6-6c3.3 0 5.7 2.2 5.7 6zm-8.4 0c0 2.3 1.2 3.4 2.8 3.4c1.6 0 2.8-1.2 2.8-3.4c0-2.3-1.3-3.4-2.9-3.4c-1.6 0-2.7 1.2-2.7 3.4zm17-3.2s-.77-.03-.8 0c-1.9 0-3 1-3 3.3v5.7h-2.8V33.4h2.8s-.02 1.65 0 1.6c.6-1.2 1.6-1.7 3-1.7c.01-.04.8 0 .8 0v2.7zm10.6 5.4c0 2.6-2.3 3.8-4.9 3.8c-2.4 0-5-1-5.2-3.9h2.8c.2 1.1 1.2 1.6 2.5 1.6c1.2 0 2-.4 2-1.2c0-.8-.5-.9-2.1-1.2c-2.3-.4-4.9-.8-4.9-3.6c0-2.6 2.3-3.7 4.6-3.7c2.8 0 4.7 1.3 4.9 3.9h-2.7c-.1-1.1-.9-1.6-2.1-1.6c-1.4 0-1.9.6-1.9 1.3c0 .9 1 1.1 2.4 1.3c2.1.3 4.6.6 4.6 3.3zM98.3 45s-1.78-.02-1.8 0c-2.1 0-3.5-.7-3.5-3.8c-.03 0 0-5.3 0-5.3h-2.2v-2.5h2.2v-2.6l2.8-.8v3.4h2.3v2.5h-2.3s-.04 5.43 0 5.4c0 .7.1 1.2 1.1 1.2h1.4v2.5zm11.8-7.5v7.5h-2.8s.01-7.24 0-7.2c0-1.3-.7-2.1-2-2.1c-1.6 0-2.6 1.1-2.6 3v6.3h-2.8v-16h2.8v6c.7-1.1 1.7-1.8 3.5-1.8c2.7 0 3.9 1.5 3.9 4.3zm11.9-.3v7.8h-2.7s-.04-1.7 0-1.7c-.9 1.5-2.3 1.9-3.5 1.9c-1.9 0-3.8-1.1-3.8-3.6c0-1.8 1-3 3.7-3.4l2.5-.4c.7-.1 1.2-.3 1.2-1c0-1-.9-1.4-2-1.4c-1.5 0-2.2.7-2.3 1.7h-2.6c.2-2.7 2.4-3.9 5-3.9c2.8 0 4.5 1.3 4.5 4zm-2.7 2.9v-.6c-.3.1-.8.3-1.4.3l-1.2.2c-1.5.2-1.9.8-1.9 1.5c0 .9.6 1.4 1.6 1.4c1.5 0 2.9-1.1 2.9-2.8zm11.1 4.9s-1.8-.02-1.8 0c-2.2 0-3.5-.7-3.5-3.8c-.05 0 0-5.3 0-5.3h-2.2v-2.5h2.2v-2.6l2.7-.8v3.4h2.4v2.5h-2.4s.05 5.43 0 5.4c0 .7.2 1.2 1.2 1.2h1.4v2.5zm7-13.1h2.9v-3.2h-2.9v3.2zm0 1.5h2.8V45h-2.8V33.4zm15.7 4.1c.03.01 0 7.5 0 7.5h-2.8s.04-7.24 0-7.2c0-1.3-.7-2.1-2-2.1c-1.6 0-2.6 1.1-2.6 3c.04.02 0 6.3 0 6.3h-2.8V33.4h2.8s.02 1.67 0 1.7c.7-1.1 1.6-1.9 3.5-1.9c2.7 0 3.9 1.5 3.9 4.3zm8.5 7.5h-2.9l-4.3-11.6h3l2.8 8.3l2.8-8.3h2.9L161.6 45zm7.5-5c0 1.9 1.4 2.8 3 2.8c1 0 2.1-.4 2.4-1.5h2.6c-.5 2.6-2.8 3.9-5.2 3.9c-2.8 0-5.5-1.9-5.5-6c0-4 2.6-6 5.5-6c2.9 0 5.2 1.8 5.2 5.7c.03-.01 0 1.1 0 1.1c0 0-8.03.03-8 0zm0-2h5.3c0-1.5-1.1-2.4-2.5-2.4c-1.3 0-2.5.7-2.8 2.4zm19.3 3.4c0 2.6-2.3 3.8-4.9 3.8c-2.4 0-5-1-5.2-3.9h2.8c.2 1.1 1.2 1.6 2.5 1.6c1.2 0 2-.4 2-1.2c0-.8-.5-.9-2.1-1.2c-2.3-.4-4.9-.8-4.9-3.6c0-2.6 2.3-3.7 4.6-3.7c2.8 0 4.7 1.3 4.9 3.9h-2.7c-.1-1.1-.9-1.6-2.1-1.6c-1.4 0-1.9.6-1.9 1.3c0 .9 1 1.1 2.4 1.3c2.1.3 4.6.6 4.6 3.3zm7.8 3.6s-1.83-.02-1.8 0c-2.2 0-3.6-.7-3.6-3.8c.02 0 0-5.3 0-5.3h-2.1v-2.5h2.1v-2.6l2.8-.8v3.4h2.3v2.5h-2.3s.02 5.43 0 5.4c0 .7.2 1.2 1.2 1.2h1.4v2.5zm12.2-5.8c0 3.8-2.5 6-5.7 6c-3.2 0-5.7-2.2-5.7-6c0-3.8 2.5-6 5.7-6c3.2 0 5.7 2.2 5.7 6zm-8.5 0c0 2.3 1.3 3.4 2.8 3.4c1.7 0 2.8-1.2 2.8-3.4c0-2.3-1.3-3.4-2.8-3.4c-1.7 0-2.8 1.2-2.8 3.4zm17-3.2s-.73-.03-.7 0c-2 0-3.1 1-3.1 3.3c.05.01 0 5.7 0 5.7h-2.7V33.4h2.7s.03 1.65 0 1.6c.6-1.2 1.7-1.7 3.1-1.7c-.05-.04.7 0 .7 0v2.7zm10.6 5.4c0 2.6-2.3 3.8-4.9 3.8c-2.4 0-5-1-5.2-3.9h2.8c.2 1.1 1.3 1.6 2.6 1.6c1.1 0 2-.4 2-1.2c0-.8-.6-.9-2.2-1.2c-2.2-.4-4.8-.8-4.8-3.6c0-2.6 2.2-3.7 4.6-3.7c2.7 0 4.7 1.3 4.9 3.9h-2.8c-.1-1.1-.9-1.6-2.1-1.6c-1.4 0-1.9.6-1.9 1.3c0 .9 1 1.1 2.4 1.3c2.1.3 4.6.6 4.6 3.3zm16 0c0 2.6-2.3 3.8-4.9 3.8c-2.4 0-5-1-5.2-3.9h2.8c.2 1.1 1.2 1.6 2.5 1.6c1.2 0 2.1-.4 2.1-1.2c0-.8-.6-.9-2.2-1.2c-2.2-.4-4.8-.8-4.8-3.6c0-2.6 2.2-3.7 4.6-3.7c2.7 0 4.7 1.3 4.8 3.9h-2.7c-.1-1.1-.9-1.6-2.1-1.6c-1.4 0-1.9.6-1.9 1.3c0 .9 1 1.1 2.4 1.3c2.1.3 4.6.6 4.6 3.3zm12.1-3.9v7.5h-2.8v-7.2c0-1.3-.7-2.1-2-2.1c-1.6 0-2.6 1.1-2.6 3v6.3h-2.8v-16h2.8v6c.7-1.1 1.7-1.8 3.5-1.8c2.6 0 3.9 1.5 3.9 4.3zm13.2 1.7c0 3.8-2.4 6-5.7 6c-3.2 0-5.6-2.2-5.6-6c0-3.8 2.4-6 5.6-6c3.3 0 5.7 2.2 5.7 6zm-8.5 0c0 2.3 1.3 3.4 2.9 3.4c1.6 0 2.7-1.2 2.7-3.4c0-2.3-1.2-3.4-2.8-3.4c-1.7 0-2.8 1.2-2.8 3.4zm20.6 5.8h-2.7s.01-1.66 0-1.7c-.7 1.1-1.7 1.8-3.3 1.8c-2.4 0-4.2-1.5-4.2-4.5c-.01-.01 0-7.2 0-7.2h2.8s-.02 6.98 0 7c0 1.6.8 2.2 2 2.2c1.5 0 2.6-.9 2.6-3.6c.04 0 0-5.6 0-5.6h2.8V45zm5.6 0h-2.8v-16h2.8v16zm13.3 0h-2.7v-1.8c-.6 1.3-2 2-3.6 2c-2.7 0-5-2-5-6c0-4 2.3-6 5-6c1.5 0 2.8.6 3.5 1.7c.04.02 0-5.9 0-5.9h2.8v16zm-2.7-5.8c0-2.4-1.4-3.5-2.9-3.5c-1.5 0-2.9 1.1-2.9 3.5c0 2.3 1.4 3.5 2.9 3.5c1.5 0 2.9-1.2 2.9-3.5zm20.4-2v7.8h-2.7s-.03-1.7 0-1.7c-.9 1.5-2.3 1.9-3.5 1.9c-1.9 0-3.8-1.1-3.8-3.6c0-1.8 1-3 3.7-3.4l2.5-.4c.7-.1 1.2-.3 1.2-1c0-1-.9-1.4-2-1.4c-1.5 0-2.1.7-2.3 1.7H308c.3-2.7 2.4-3.9 5-3.9c2.8 0 4.5 1.3 4.5 4zm-2.7 2.9v-.6c-.3.1-.8.3-1.4.3l-1.2.2c-1.4.2-1.9.8-1.9 1.5c0 .9.6 1.4 1.6 1.4c1.5 0 2.9-1.1 2.9-2.8zm11.1 4.9h-3l-4.2-11.6h2.9l2.8 8.3l2.9-8.3h2.9L325.9 45zm16-5.8c0 3.8-2.4 6-5.6 6c-3.3 0-5.7-2.2-5.7-6c0-3.8 2.4-6 5.7-6c3.2 0 5.6 2.2 5.6 6zm-8.4 0c0 2.3 1.3 3.4 2.8 3.4c1.7 0 2.8-1.2 2.8-3.4c0-2.3-1.3-3.4-2.9-3.4c-1.6 0-2.7 1.2-2.7 3.4zm10.3-7.3h3v-3.2h-3v3.2zm.1 1.5h2.8V45h-2.8V33.4zM360.1 45h-2.8s.03-1.8 0-1.8c-.6 1.3-1.9 2-3.5 2c-2.7 0-5.1-2-5.1-6c0-4 2.4-6 5.1-6c1.5 0 2.8.6 3.5 1.7c-.03.02 0-5.9 0-5.9h2.8v16zm-2.7-5.8c0-2.4-1.5-3.5-3-3.5c-1.5 0-2.9 1.1-2.9 3.5c0 2.3 1.4 3.5 2.9 3.5c1.5 0 3-1.2 3-3.5zm8.2.2c0-2.7 1.3-3.2 2.6-4.1c1-.7 1.4-1.3 1.4-2.1c0-1.2-.8-1.8-2.1-1.8c-1.4 0-2.3.8-2.4 2.2h-2.8c.2-3.4 2.7-4.6 5.3-4.6c2.8 0 5 1.3 5 4.1c0 2.2-1.4 3.1-2.8 4.1c-1.1.8-1.6 1.3-1.6 2.2c.03.04 0 .7 0 .7h-2.6s-.04-.75 0-.7zm-.3 2.3h3.2v3.3h-3.2v-3.3z" stroke="none" fill="#000"/></g><g id="Polygon12274"><path d="m11.5 16.3H4.8l-1.3 3.5H.4L6.5 4h3.2L16 19.8h-3.2l-1.3-3.5zm-1.1-2.8L8.1 7.3l-2.3 6.2h4.6zm13.9-2.7s-.7-.03-.7 0c-1.9 0-3 1-3 3.3c-.02.01 0 5.7 0 5.7h-2.8V8.2h2.8s-.04 1.65 0 1.6c.5-1.2 1.6-1.7 3-1.7c-.02-.04.7 0 .7 0v2.7zm3.2 4c0 1.9 1.4 2.8 3 2.8c1 0 2.1-.4 2.4-1.5h2.6c-.5 2.6-2.8 3.9-5.2 3.9c-2.8 0-5.5-1.9-5.5-6c0-4 2.6-6 5.5-6c2.9 0 5.2 1.8 5.2 5.7c.03-.01 0 1.1 0 1.1c0 0-8.03.03-8 0zm0-2h5.3c0-1.5-1.1-2.4-2.5-2.4c-1.3 0-2.5.7-2.8 2.4zm21 7s-1.84-.02-1.8 0c-2.2 0-3.6-.7-3.6-3.8v-5.3H41V8.2h2.1V5.6l2.8-.8v3.4h2.3v2.5h-2.3v5.4c0 .7.2 1.2 1.2 1.2h1.4v2.5zm11.7-7.5c.05.01 0 7.5 0 7.5h-2.7s-.04-7.24 0-7.2c0-1.3-.8-2.1-2.1-2.1c-1.6 0-2.5 1.1-2.5 3c-.04.02 0 6.3 0 6.3h-2.8v-16h2.8s-.04 6.03 0 6c.6-1.1 1.6-1.8 3.5-1.8c2.6 0 3.8 1.5 3.8 4.3zm4.6 2.5c.1 1.9 1.5 2.8 3 2.8c1.1 0 2.2-.4 2.5-1.5h2.6c-.5 2.6-2.8 3.9-5.2 3.9c-2.8 0-5.6-1.9-5.6-6c0-4 2.7-6 5.6-6c2.8 0 5.2 1.8 5.2 5.7c.01-.01 0 1.1 0 1.1c0 0-8.05.03-8.1 0zm.1-2h5.3c0-1.5-1.1-2.4-2.5-2.4c-1.3 0-2.5.7-2.8 2.4zm16.6-2s-.78-.03-.8 0c-1.9 0-3 1-3 3.3v5.7h-2.8V8.2h2.8s-.02 1.65 0 1.6c.6-1.2 1.6-1.7 3-1.7c0-.04.8 0 .8 0v2.7zm3.1 4c.1 1.9 1.4 2.8 3 2.8c1.1 0 2.1-.4 2.4-1.5h2.6c-.5 2.6-2.8 3.9-5.2 3.9c-2.7 0-5.5-1.9-5.5-6c0-4 2.6-6 5.6-6c2.8 0 5.2 1.8 5.2 5.7c-.05-.01 0 1.1 0 1.1c0 0-8.11.03-8.1 0zm.1-2h5.2c0-1.5-1-2.4-2.5-2.4c-1.3 0-2.5.7-2.7 2.4zm19.7 7.2c-3.8 0-5.7-2.9-5.7-6c0-3.1 1.8-6 5.6-6c2.9 0 5.1 1.6 5.2 4.4h-2.8c-.1-1.1-.9-1.9-2.3-1.9c-2 0-2.8 1.7-2.8 3.5c0 1.9.8 3.4 2.8 3.4c1.4 0 2.2-.7 2.4-1.7h2.7c-.3 2.8-2.3 4.3-5.1 4.3zm9.1-5.2c.1 1.9 1.4 2.8 3 2.8c1.1 0 2.1-.4 2.5-1.5h2.5c-.5 2.6-2.7 3.9-5.1 3.9c-2.8 0-5.6-1.9-5.6-6c0-4 2.6-6 5.6-6c2.8 0 5.2 1.8 5.2 5.7c-.01-.01 0 1.1 0 1.1c0 0-8.07.03-8.1 0zm.1-2h5.3c0-1.5-1.1-2.4-2.5-2.4c-1.3 0-2.6.7-2.8 2.4zm16.5-2s-.7-.03-.7 0c-2 0-3 1-3 3.3c-.02.01 0 5.7 0 5.7h-2.8V8.2h2.8s-.04 1.65 0 1.6c.5-1.2 1.6-1.7 3-1.7c-.02-.04.7 0 .7 0v2.7zm7.7 9s-1.78-.02-1.8 0c-2.1 0-3.5-.7-3.5-3.8c-.03 0 0-5.3 0-5.3h-2.2V8.2h2.2V5.6l2.8-.8v3.4h2.3v2.5h-2.3s-.04 5.43 0 5.4c0 .7.1 1.2 1.1 1.2h1.4v2.5zm10.9-7.8c-.02-.01 0 7.8 0 7.8h-2.8s.05-1.7 0-1.7c-.9 1.5-2.2 1.9-3.5 1.9c-1.8 0-3.7-1.1-3.7-3.6c0-1.8 1-3 3.7-3.4l2.5-.4c.7-.1 1.2-.3 1.2-1c0-1-.9-1.4-2-1.4c-1.5 0-2.2.7-2.3 1.7h-2.7c.3-2.7 2.5-3.9 5.1-3.9c2.8 0 4.5 1.3 4.5 4zm-2.7 2.9v-.6c-.3.1-.8.3-1.4.3l-1.3.2c-1.4.2-1.8.8-1.8 1.5c0 .9.6 1.4 1.6 1.4c1.4 0 2.9-1.1 2.9-2.8zm5.1-8.2h3V3.5h-3v3.2zm.1 1.5h2.8v11.6h-2.8V8.2zm15.7 4.1c-.04.01 0 7.5 0 7.5h-2.8s-.03-7.24 0-7.2c0-1.3-.8-2.1-2.1-2.1c-1.6 0-2.5 1.1-2.5 3c-.03.02 0 6.3 0 6.3h-2.8V8.2h2.8s-.05 1.67 0 1.7C160.1 8.8 161 8 163 8c2.6 0 3.9 1.5 3.9 4.3zm17.5-.3c.02-.01 0 7.8 0 7.8h-2.7s-.01-1.7 0-1.7c-.9 1.5-2.3 1.9-3.5 1.9c-1.9 0-3.8-1.1-3.8-3.6c0-1.8 1.1-3 3.7-3.4l2.5-.4c.7-.1 1.2-.3 1.2-1c0-1-.8-1.4-2-1.4c-1.4 0-2.1.7-2.2 1.7h-2.7c.3-2.7 2.4-3.9 5.1-3.9c2.7 0 4.4 1.3 4.4 4zm-2.7 2.9v-.6c-.3.1-.8.3-1.4.3l-1.2.2c-1.4.2-1.9.8-1.9 1.5c0 .9.7 1.4 1.6 1.4c1.5 0 2.9-1.1 2.9-2.8zm14.5 1.3c0 2.6-2.3 3.8-4.9 3.8c-2.4 0-5-1-5.2-3.9h2.8c.2 1.1 1.2 1.6 2.5 1.6c1.2 0 2.1-.4 2.1-1.2c0-.8-.6-.9-2.2-1.2c-2.3-.4-4.8-.8-4.8-3.6c0-2.6 2.2-3.7 4.6-3.7c2.7 0 4.7 1.3 4.8 3.9h-2.7c-.1-1.1-.9-1.6-2.1-1.6c-1.4 0-1.9.6-1.9 1.3c0 .9 1 1.1 2.4 1.3c2.1.3 4.6.6 4.6 3.3zm11.2 0c0 2.6-2.4 3.8-5 3.8c-2.4 0-5-1-5.1-3.9h2.8c.2 1.1 1.2 1.6 2.5 1.6c1.2 0 2-.4 2-1.2c0-.8-.5-.9-2.1-1.2c-2.3-.4-4.9-.8-4.9-3.6c0-2.6 2.2-3.7 4.6-3.7c2.7 0 4.7 1.3 4.9 3.9h-2.8c-.1-1.1-.9-1.6-2.1-1.6c-1.3 0-1.9.6-1.9 1.3c0 .9 1 1.1 2.5 1.3c2 .3 4.6.6 4.6 3.3zm3.8-1.4c.1 1.9 1.4 2.8 3 2.8c1.1 0 2.1-.4 2.5-1.5h2.5c-.5 2.6-2.8 3.9-5.1 3.9c-2.8 0-5.6-1.9-5.6-6c0-4 2.6-6 5.6-6c2.8 0 5.2 1.8 5.2 5.7c-.02-.01 0 1.1 0 1.1c0 0-8.08.03-8.1 0zm.1-2h5.2c0-1.5-1-2.4-2.4-2.4c-1.3 0-2.6.7-2.8 2.4zm15.9 7s-1.83-.02-1.8 0c-2.2 0-3.6-.7-3.6-3.8c.02 0 0-5.3 0-5.3h-2.1V8.2h2.1V5.6l2.8-.8v3.4h2.3v2.5h-2.3v5.4c0 .7.2 1.2 1.2 1.2h1.4v2.5zm11.5.2c-3.8 0-5.6-2.9-5.6-6c0-3.1 1.8-6 5.6-6c2.8 0 5 1.6 5.1 4.4h-2.7c-.2-1.1-1-1.9-2.3-1.9c-2.1 0-2.9 1.7-2.9 3.5c0 1.9.9 3.4 2.8 3.4c1.4 0 2.2-.7 2.4-1.7h2.8c-.4 2.8-2.4 4.3-5.2 4.3zm10-.2h-2.8v-16h2.8v16zm12-7.8c-.03-.01 0 7.8 0 7.8h-2.8s.04-1.7 0-1.7c-.9 1.5-2.2 1.9-3.5 1.9c-1.8 0-3.7-1.1-3.7-3.6c0-1.8 1-3 3.7-3.4l2.5-.4c.7-.1 1.1-.3 1.1-1c0-1-.8-1.4-1.9-1.4c-1.5 0-2.2.7-2.3 1.7h-2.7c.3-2.7 2.5-3.9 5.1-3.9c2.7 0 4.5 1.3 4.5 4zm-2.7 2.9v-.6c-.3.1-.8.3-1.4.3l-1.3.2c-1.4.2-1.8.8-1.8 1.5c0 .9.6 1.4 1.6 1.4c1.4 0 2.9-1.1 2.9-2.8zm14.5 1.3c0 2.6-2.4 3.8-5 3.8c-2.4 0-5-1-5.1-3.9h2.8c.2 1.1 1.2 1.6 2.5 1.6c1.2 0 2-.4 2-1.2c0-.8-.5-.9-2.1-1.2c-2.3-.4-4.9-.8-4.9-3.6c0-2.6 2.2-3.7 4.6-3.7c2.7 0 4.7 1.3 4.9 3.9h-2.8c-.1-1.1-.9-1.6-2.1-1.6c-1.3 0-1.9.6-1.9 1.3c0 .9 1 1.1 2.5 1.3c2 .3 4.6.6 4.6 3.3zm11.1 0c0 2.6-2.3 3.8-4.9 3.8c-2.4 0-5-1-5.2-3.9h2.8c.2 1.1 1.2 1.6 2.5 1.6c1.2 0 2.1-.4 2.1-1.2c0-.8-.6-.9-2.2-1.2c-2.3-.4-4.8-.8-4.8-3.6c0-2.6 2.2-3.7 4.6-3.7c2.7 0 4.7 1.3 4.8 3.9h-2.7c-.1-1.1-.9-1.6-2.1-1.6c-1.4 0-1.9.6-1.9 1.3c0 .9 1 1.1 2.4 1.3c2.1.3 4.6.6 4.6 3.3zm3.9-1.4c0 1.9 1.4 2.8 2.9 2.8c1.1 0 2.2-.4 2.5-1.5h2.6c-.5 2.6-2.8 3.9-5.2 3.9c-2.8 0-5.5-1.9-5.5-6c0-4 2.6-6 5.5-6c2.9 0 5.2 1.8 5.2 5.7c.03-.01 0 1.1 0 1.1c0 0-8.03.03-8 0zm0-2h5.3c0-1.5-1.1-2.4-2.5-2.4c-1.3 0-2.5.7-2.8 2.4zm19.3 3.4c0 2.6-2.3 3.8-4.9 3.8c-2.4 0-5-1-5.2-3.9h2.8c.2 1.1 1.2 1.6 2.5 1.6c1.2 0 2-.4 2-1.2c0-.8-.5-.9-2.1-1.2c-2.3-.4-4.9-.8-4.9-3.6c0-2.6 2.2-3.7 4.6-3.7c2.7 0 4.7 1.3 4.9 3.9h-2.7c-.1-1.1-.9-1.6-2.1-1.6c-1.4 0-1.9.6-1.9 1.3c0 .9 1 1.1 2.4 1.3c2.1.3 4.6.6 4.6 3.3z" stroke="none" fill="#000"/></g></svg>