<?xml version="1.0" standalone="no"?><!DOCTYPE svg PUBLIC "-//W3C//DTD SVG 1.1//EN" "http://www.w3.org/Graphics/SVG/1.1/DTD/svg11.dtd"><svg xmlns="http://www.w3.org/2000/svg" version="1.1" width="456px" height="169.4px" viewBox="0 -4 456 169.4" style="top:-4px"><desc>With more than 30% of the bonds universe offering negative yields, where should clients invest Simon Lue-Fong: Let s</desc><defs/><g id="Polygon9914"><path d="m.9 125c0-3.7 2.3-5.9 5.4-5.9c3.1 0 5.3 2.2 5.3 5.9c0 3.6-2.2 5.8-5.3 5.8c-3.1 0-5.4-2.2-5.4-5.8zm9.2-.1c0-2.8-1.7-4.4-3.8-4.4c-2.2 0-3.8 1.7-3.8 4.5c0 2.8 1.7 4.4 3.8 4.4c2.2 0 3.8-1.7 3.8-4.5zm7.7-9c-1.2 0-1.5.6-1.5 1.7v1.7h2.5v1.4h-2.5v9.9h-1.5v-9.9h-1.9v-1.4h1.9s-.04-1.78 0-1.8c0-2.5 1.3-2.9 2.8-2.9c0-.02 1.5 0 1.5 0v1.3s-1.25.04-1.3 0zm13.5 14.7s-1.69-.02-1.7 0c-1.5 0-2.8-.5-2.8-3c-.02.02 0-6.9 0-6.9h-2.3v-1.4h2.3v-3.2l1.5-.4v3.6h2.7v1.4h-2.7v6.9c0 1 .3 1.6 1.6 1.6h1.4v1.4zm11.3-7.7c.03-.05 0 7.7 0 7.7h-1.5V123c0-1.5-.9-2.5-2.5-2.5c-1.9 0-3.6 1.4-3.6 4.2v5.9h-1.5v-16h1.5s.01 6.68 0 6.7c.7-1.3 1.9-2.2 3.9-2.2c2.3 0 3.7 1.3 3.7 3.8zm10.2 5.6c-.9 1.7-2.6 2.3-4 2.3c-1.9 0-3.7-1.1-3.7-3.3c0-2.1 1.5-3.1 3.5-3.3l2.6-.4c.9-.1 1.6-.4 1.6-1.4c0-1.3-1.1-2-2.7-2c-1.7 0-2.7.8-3 2.1h-1.5c.3-2.3 2.1-3.4 4.6-3.4c2.6 0 4.1 1.2 4.1 3.7v7.8h-1.5v-2.1zm-1.9-3.4l-1.7.2c-1.4.2-2.5.7-2.5 2.1c0 1.4 1.1 2 2.4 2c1.7 0 3.7-1.3 3.7-3.7v-1.1c-.4.3-1.1.4-1.9.5zm11.7 5.5s-1.66-.02-1.7 0c-1.4 0-2.8-.5-2.8-3v-6.9h-2.2v-1.4h2.2v-3.2l1.5-.4v3.6h2.8v1.4h-2.8s.04 6.9 0 6.9c0 1 .3 1.6 1.6 1.6h1.4v1.4zm1.9-11.1h2.1v2.2h-2.1v-2.2zm0 8.9h2.1v2.2h-2.1v-2.2z" stroke="none" fill="#000"/></g><g id="Polygon9913"><path d="m7.2 105.8C4 105.8.7 104 .7 100h3c.1 2.4 1.8 3.3 3.5 3.3c1.5 0 2.9-.8 2.9-2.1c0-1.6-1.8-2-3.6-2.4c-2.3-.5-5.2-1.3-5.2-4.7c0-3.3 2.6-4.8 5.7-4.8c2.9 0 5.7 1.5 5.7 4.7H9.8c-.1-1.6-1.5-2.2-3-2.2c-1.5 0-2.7.7-2.7 2.1c0 1.5 1.5 1.9 3.3 2.3c2 .5 5.6 1.1 5.6 4.8c0 3.1-2.7 4.8-5.8 4.8zM15 92.3h3v-3.2h-3v3.2zm.1 1.5h2.8v11.6h-2.8V93.8zm21.8 3.8c.04-.03 0 7.8 0 7.8h-2.8s.05-7.28 0-7.3c0-1.4-.6-2-1.8-2c-1.3 0-2.1.8-2.1 2.8c-.04-.03 0 6.5 0 6.5h-2.8s-.04-7.28 0-7.3c0-1.4-.7-2-1.9-2c-1.3 0-2.1.8-2.1 2.8c-.03-.05 0 6.5 0 6.5h-2.8V93.8h2.7s.03 1.69 0 1.7c.4-.9 1.3-1.9 3-1.9c1.5 0 2.7.7 3.2 1.9c.5-.8 1.3-1.9 3.4-1.9c2.5 0 4 1.5 4 4zm13.2 2c0 3.8-2.4 6-5.6 6c-3.3 0-5.7-2.2-5.7-6c0-3.8 2.4-6 5.7-6c3.2 0 5.6 2.2 5.6 6zm-8.4 0c0 2.3 1.3 3.4 2.8 3.4c1.7 0 2.8-1.2 2.8-3.4c0-2.3-1.3-3.4-2.8-3.4c-1.7 0-2.8 1.2-2.8 3.4zm20.6-1.7c.03.01 0 7.5 0 7.5h-2.8s.03-7.24 0-7.2c0-1.3-.7-2.1-2-2.1c-1.6 0-2.6 1.1-2.6 3c.04.02 0 6.3 0 6.3h-2.8V93.8h2.8s.01 1.67 0 1.7c.7-1.1 1.6-1.9 3.5-1.9c2.7 0 3.9 1.5 3.9 4.3zm18.9 7.5H70.8V89.6h3v13h7.4v2.8zm11.8 0h-2.7s.02-1.66 0-1.7c-.7 1.1-1.7 1.8-3.3 1.8c-2.4 0-4.2-1.5-4.2-4.5v-7.2h2.8v7c0 1.6.8 2.2 2 2.2c1.5 0 2.7-.9 2.7-3.6c-.04 0 0-5.6 0-5.6h2.7v11.6zm4.8-5c0 1.9 1.4 2.8 2.9 2.8c1.1 0 2.2-.4 2.5-1.5h2.6c-.5 2.6-2.8 3.9-5.2 3.9c-2.8 0-5.6-1.9-5.6-6c0-4 2.7-6 5.6-6c2.8 0 5.2 1.8 5.2 5.7c.02-.01 0 1.1 0 1.1c0 0-8.05.03-8 0zm0-2h5.3c0-1.5-1.1-2.4-2.5-2.4c-1.3 0-2.5.7-2.8 2.4zm16.2-.9h-6.5v2.5h6.5v-2.5zm5.5 7.9h-2.9V89.6h10.6v2.8h-7.7v3.6h7.3v2.8h-7.3v6.6zm19.6-5.8c0 3.8-2.4 6-5.6 6c-3.3 0-5.7-2.2-5.7-6c0-3.8 2.4-6 5.7-6c3.2 0 5.6 2.2 5.6 6zm-8.4 0c0 2.3 1.2 3.4 2.8 3.4c1.7 0 2.8-1.2 2.8-3.4c0-2.3-1.3-3.4-2.9-3.4c-1.6 0-2.7 1.2-2.7 3.4zm20.6-1.7v7.5h-2.8s.01-7.24 0-7.2c0-1.3-.7-2.1-2-2.1c-1.6 0-2.6 1.1-2.6 3v6.3h-2.8V93.8h2.8s-.01 1.67 0 1.7c.6-1.1 1.6-1.9 3.5-1.9c2.7 0 3.9 1.5 3.9 4.3zm13.1 6.7c0 3.7-2.4 5.4-5.6 5.4c-2.8 0-5.1-1.4-5.4-4.3h2.7c.3 1.5 1.4 1.9 2.7 1.9c1.8 0 2.9-.9 2.9-2.7V103c-.5 1.2-1.7 2-3.4 2c-2.7 0-5.1-1.8-5.1-5.7c0-3.9 2.4-5.7 5.1-5.7c1.6 0 2.8.7 3.4 1.8c-.02.01 0-1.6 0-1.6h2.7s-.04 10.8 0 10.8zm-2.8-5.3c0-2.2-1.2-3.3-2.8-3.3c-1.5 0-2.9 1.1-2.9 3.3c0 2.2 1.4 3.2 2.9 3.2c1.6 0 2.8-1 2.8-3.2zm5.4-5h2.1v2.2H167v-2.2zm0 8.9h2.1v2.2H167v-2.2zm20.6 2.2h-9.5V89.6h1.6v14.3h7.9v1.5zm2.9-5.3c0 2.8 1.8 4.1 3.7 4.1c1.5 0 3-.7 3.3-2.3h1.5c-.5 2.6-2.7 3.7-4.8 3.7c-2.7 0-5.2-1.8-5.2-5.8c0-4.1 2.5-5.9 5.2-5.9c2.7 0 4.9 1.7 4.9 5.5c-.02-.05 0 .7 0 .7h-8.6zm0-1.3h7c0-2.3-1.4-3.5-3.3-3.5c-1.8 0-3.5 1.1-3.7 3.5zm16.3 6.6s-1.61-.02-1.6 0c-1.5 0-2.8-.5-2.8-3c-.05.02 0-6.9 0-6.9h-2.3v-1.4h2.3v-3.2l1.5-.4v3.6h2.7v1.4h-2.7v6.9c0 1 .3 1.6 1.5 1.6h1.4v1.4zm3.3-13.8c.04-.02-1 0-1 0v-2.1h2.3s-.04 2.15 0 2.1c0 2.5-1.5 3.4-3.1 3.6l-.2-1c1.7-.3 2-1.3 2-2.6zm12.1 10.6c0 2.3-2.1 3.4-4.4 3.4c-2.4 0-4.6-1.2-4.9-3.7h1.7c.2 1.7 1.7 2.3 3.2 2.3c1.5 0 2.8-.5 2.8-1.8c0-1.3-1.3-1.6-2.7-1.8c-2.1-.4-4.7-.8-4.7-3.4c0-2.2 1.9-3.3 4.3-3.3c2.3 0 4.2 1.1 4.4 3.4h-1.6c-.1-1.4-1.4-2-2.9-2c-1.5 0-2.6.7-2.6 1.8c0 1.5 1.4 1.7 3.1 2c2 .3 4.3.6 4.3 3.1zm9.3 3.2h-1.6v-16h1.6v16zm2.6-5.6c0-3.7 2.2-5.9 5.3-5.9c3.1 0 5.4 2.2 5.4 5.9c0 3.6-2.3 5.8-5.4 5.8c-3.1 0-5.3-2.2-5.3-5.8zm9.1-.1c0-2.8-1.7-4.4-3.8-4.4c-2.2 0-3.7 1.7-3.7 4.5c0 2.8 1.7 4.4 3.8 4.4c2.1 0 3.7-1.7 3.7-4.5zm3.5.1c0-3.7 2.2-5.9 5.3-5.9c3.1 0 5.4 2.2 5.4 5.9c0 3.6-2.3 5.8-5.4 5.8c-3.1 0-5.3-2.2-5.3-5.8zm9.1-.1c0-2.8-1.7-4.4-3.8-4.4c-2.2 0-3.8 1.7-3.8 4.5c0 2.8 1.7 4.4 3.8 4.4c2.2 0 3.8-1.7 3.8-4.5zm7.7.2l-2 2.1v3.4H260v-16h1.5v10.7l5.6-6h1.9l-4.4 4.7l4.8 6.6h-1.9l-4-5.5zm20.2 3.4c-.8 1.7-2.5 2.3-4 2.3c-1.9 0-3.6-1.1-3.6-3.3c0-2.1 1.5-3.1 3.4-3.3l2.7-.4c.8-.1 1.5-.4 1.5-1.4c0-1.3-1.1-2-2.7-2c-1.7 0-2.7.8-2.9 2.1h-1.6c.3-2.3 2.1-3.4 4.6-3.4c2.6 0 4.1 1.2 4.1 3.7c.04-.01 0 7.8 0 7.8h-1.5s.05-2.08 0-2.1zm-1.8-3.4l-1.7.2c-1.5.2-2.5.7-2.5 2.1c0 1.4 1.1 2 2.3 2c1.8 0 3.7-1.3 3.7-3.7v-1.1c-.4.3-1.1.4-1.8.5zm11.6 5.5s-1.62-.02-1.6 0c-1.5 0-2.9-.5-2.9-3c.04.02 0-6.9 0-6.9h-2.2v-1.4h2.2v-3.2l1.6-.4v3.6h2.7v1.4h-2.7s-.03 6.9 0 6.9c0 1 .3 1.6 1.5 1.6h1.4v1.4zm12.6 0s-1.63-.02-1.6 0c-1.5 0-2.9-.5-2.9-3c.04.02 0-6.9 0-6.9h-2.2v-1.4h2.2v-3.2l1.6-.4v3.6h2.7v1.4h-2.7s-.03 6.9 0 6.9c0 1 .3 1.6 1.5 1.6h1.4v1.4zm11.4-7.7v7.7H316s-.04-7.56 0-7.6c0-1.5-.9-2.5-2.5-2.5c-1.9 0-3.6 1.4-3.6 4.2c-.03-.04 0 5.9 0 5.9h-1.6v-16h1.6s-.03 6.68 0 6.7c.6-1.3 1.8-2.2 3.8-2.2c2.3 0 3.8 1.3 3.8 3.8zm4 2.4c.1 2.8 1.8 4.1 3.8 4.1c1.5 0 2.9-.7 3.3-2.3h1.4c-.5 2.6-2.7 3.7-4.8 3.7c-2.7 0-5.2-1.8-5.2-5.8c0-4.1 2.6-5.9 5.3-5.9c2.6 0 4.8 1.7 4.8 5.5c.02-.05 0 .7 0 .7h-8.6zm.1-1.3h7c0-2.3-1.5-3.5-3.4-3.5c-1.8 0-3.4 1.1-3.6 3.5zm15.2 1c0-3.7 2.3-5.9 5.4-5.9c3.1 0 5.3 2.2 5.3 5.9c0 3.6-2.2 5.8-5.3 5.8c-3.1 0-5.4-2.2-5.4-5.8zm9.1-.1c0-2.8-1.7-4.4-3.8-4.4c-2.2 0-3.7 1.7-3.7 4.5c0 2.8 1.7 4.4 3.8 4.4c2.2 0 3.7-1.7 3.7-4.5zm9.4 5.7s-1.66-.02-1.7 0c-1.5 0-2.8-.5-2.8-3v-6.9h-2.2v-1.4h2.2v-3.2l1.5-.4v3.6h2.8v1.4h-2.8s.03 6.9 0 6.9c0 1 .3 1.6 1.6 1.6h1.4v1.4zm11.4-7.7c-.04-.05 0 7.7 0 7.7h-1.6s.02-7.56 0-7.6c0-1.5-.9-2.5-2.5-2.5c-1.9 0-3.6 1.4-3.6 4.2c.03-.04 0 5.9 0 5.9h-1.5v-16h1.5s.03 6.68 0 6.7c.7-1.3 1.9-2.2 3.9-2.2c2.3 0 3.8 1.3 3.8 3.8zm4 2.4c0 2.8 1.8 4.1 3.7 4.1c1.5 0 3-.7 3.3-2.3h1.5c-.5 2.6-2.7 3.7-4.8 3.7c-2.7 0-5.2-1.8-5.2-5.8c0-4.1 2.5-5.9 5.2-5.9c2.7 0 4.9 1.7 4.9 5.5c-.02-.05 0 .7 0 .7h-8.6zm0-1.3h7c0-2.3-1.4-3.5-3.3-3.5c-1.8 0-3.5 1.1-3.7 3.5zm16.8-3.4s-.33.03-.3 0c-2.4 0-3.8 1.4-3.8 4c.03 0 0 6 0 6h-1.5V94.1h1.5v2.1c.5-1.5 1.9-2.2 3.6-2.2c.05-.02.5 0 .5 0v1.4zm15 6.8c0 2.3-2.1 3.4-4.3 3.4c-2.4 0-4.7-1.2-4.9-3.7h1.6c.3 1.7 1.8 2.3 3.3 2.3c1.4 0 2.7-.5 2.7-1.8c0-1.3-1.3-1.6-2.6-1.8c-2.2-.4-4.7-.8-4.7-3.4c0-2.2 1.9-3.3 4.2-3.3c2.4 0 4.3 1.1 4.4 3.4h-1.6c-.1-1.4-1.4-2-2.8-2c-1.6 0-2.6.7-2.6 1.8c0 1.5 1.3 1.7 3 2c2.1.3 4.3.6 4.3 3.1zm4.2-12.8h-1.8v1.9h1.8v-1.9zm-.1 16H405V94.1h1.6v11.3zm13.1 0h-1.4s-.03-2.2 0-2.2c-.6 1.3-1.9 2.4-4 2.4c-3 0-5.1-2.3-5.1-5.9c0-3.5 2.1-5.8 5.1-5.8c1.9 0 3.3.9 3.9 2.1c.01.02 0-6.6 0-6.6h1.5v16zm-1.5-5.7c0-2.8-1.6-4.4-3.7-4.4c-2.2 0-3.7 1.7-3.7 4.4c0 2.8 1.5 4.5 3.7 4.5c2.2 0 3.7-1.7 3.7-4.5zm5.7.4c0 2.8 1.7 4.1 3.7 4.1c1.5 0 3-.7 3.3-2.3h1.5c-.5 2.6-2.7 3.7-4.8 3.7c-2.7 0-5.2-1.8-5.2-5.8c0-4.1 2.5-5.9 5.2-5.9c2.7 0 4.9 1.7 4.9 5.5c-.03-.05 0 .7 0 .7h-8.6zm0-1.3h7c0-2.3-1.5-3.5-3.3-3.5c-1.8 0-3.5 1.1-3.7 3.5z" stroke="none" fill="#000"/></g><g id="Polygon9912"><path d="m1.3 57.1h2.9v-3.2H1.3v3.2zm0 1.5h2.8v11.6H1.3V58.6zM17 62.7c.03.01 0 7.5 0 7.5h-2.8s.04-7.24 0-7.2c0-1.3-.7-2.1-2-2.1c-1.6 0-2.6 1.1-2.6 3c.04.02 0 6.3 0 6.3H6.8V58.6h2.8s.02 1.67 0 1.7c.7-1.1 1.6-1.9 3.5-1.9c2.7 0 3.9 1.5 3.9 4.3zm8.5 7.5h-2.9l-4.3-11.6h3l2.8 8.3l2.8-8.3h2.9l-4.3 11.6zm7.5-5c0 1.9 1.4 2.8 3 2.8c1 0 2.1-.4 2.4-1.5h2.6c-.5 2.6-2.8 3.9-5.2 3.9c-2.8 0-5.5-1.9-5.5-6c0-4 2.6-6 5.5-6c2.9 0 5.2 1.8 5.2 5.7c.03-.01 0 1.1 0 1.1c0 0-8.03.03-8 0zm0-2h5.3c0-1.5-1.1-2.4-2.5-2.4c-1.3 0-2.5.7-2.8 2.4zm19.3 3.4c0 2.6-2.3 3.8-4.9 3.8c-2.4 0-5-1-5.2-3.9h2.8c.2 1.1 1.2 1.6 2.5 1.6c1.2 0 2-.4 2-1.2c0-.8-.5-.9-2.1-1.2c-2.3-.4-4.9-.8-4.9-3.6c0-2.6 2.3-3.7 4.6-3.7c2.8 0 4.7 1.3 4.9 3.9h-2.7c-.1-1.1-.9-1.6-2.1-1.6c-1.4 0-1.9.6-1.9 1.3c0 .9 1 1.1 2.4 1.3c2.1.3 4.6.6 4.6 3.3zm7.8 3.6s-1.83-.02-1.8 0c-2.2 0-3.6-.7-3.6-3.8c.03 0 0-5.3 0-5.3h-2.1v-2.5h2.1V56l2.8-.8v3.4h2.3v2.5h-2.3s.02 5.43 0 5.4c0 .7.2 1.2 1.2 1.2h1.4v2.5zm4.3-5.6c0-2.7 1.4-3.2 2.7-4.1c1-.7 1.4-1.3 1.4-2.1c0-1.2-.8-1.8-2.1-1.8c-1.4 0-2.3.8-2.4 2.2h-2.8c.2-3.4 2.7-4.6 5.3-4.6c2.8 0 4.9 1.3 4.9 4.1c0 2.2-1.3 3.1-2.7 4.1c-1.1.8-1.6 1.3-1.6 2.2v.7h-2.7s.05-.75 0-.7zm-.2 2.3h3.2v3.3h-3.2v-3.3z" stroke="none" fill="#000"/></g><g id="Polygon9911"><path d="m11.9 39.2c0 3.8-2.4 6-5.6 6c-3.3 0-5.7-2.2-5.7-6c0-3.8 2.4-6 5.7-6c3.2 0 5.6 2.2 5.6 6zm-8.4 0c0 2.3 1.3 3.4 2.8 3.4c1.7 0 2.8-1.2 2.8-3.4c0-2.3-1.3-3.4-2.8-3.4c-1.7 0-2.8 1.2-2.8 3.4zm20.8-6.6c.02.03 0 .8 0 .8h2.2v2.5h-2.2v9.1h-2.8v-9.1h-4.4v9.1h-2.8v-9.1h-1.7v-2.5h1.7v-.6c0-3.1 1.4-3.8 3.5-3.8c.05-.02 1.7 0 1.7 0v2.5s-1.23-.04-1.2 0c-1 0-1.2.4-1.2 1.1v.8h4.4s.02-.64 0-.6c0-3.1 1.4-3.8 3.6-3.8c-.03-.02 1.7 0 1.7 0v2.5s-1.31-.04-1.3 0c-1 0-1.2.4-1.2 1.1zm5.6 7.4c0 1.9 1.4 2.8 3 2.8c1.1 0 2.1-.4 2.4-1.5h2.6c-.5 2.6-2.8 3.9-5.2 3.9c-2.8 0-5.5-1.9-5.5-6c0-4 2.6-6 5.6-6c2.8 0 5.1 1.8 5.1 5.7c.05-.01 0 1.1 0 1.1c0 0-8.02.03-8 0zm0-2h5.3c0-1.5-1.1-2.4-2.5-2.4c-1.3 0-2.5.7-2.8 2.4zm16.6-2s-.74-.03-.7 0c-2 0-3.1 1-3.1 3.3c.03.01 0 5.7 0 5.7h-2.8V33.4h2.8v1.6c.6-1.2 1.7-1.7 3-1.7c.04-.04.8 0 .8 0v2.7zm1.3-4.1h2.9v-3.2h-2.9v3.2zm0 1.5h2.8V45h-2.8V33.4zm15.7 4.1c.02.01 0 7.5 0 7.5h-2.8s.03-7.24 0-7.2c0-1.3-.7-2.1-2-2.1c-1.6 0-2.6 1.1-2.6 3c.03.02 0 6.3 0 6.3h-2.8V33.4h2.8s.01 1.67 0 1.7c.7-1.1 1.6-1.9 3.5-1.9c2.7 0 3.9 1.5 3.9 4.3zm13.1 6.7c0 3.7-2.4 5.4-5.5 5.4c-2.9 0-5.2-1.4-5.5-4.3h2.7c.3 1.5 1.5 1.9 2.8 1.9c1.8 0 2.8-.9 2.8-2.7v-1.9c-.5 1.2-1.7 2-3.4 2c-2.6 0-5.1-1.8-5.1-5.7c0-3.9 2.5-5.7 5.1-5.7c1.6 0 2.8.7 3.4 1.8v-1.6h2.7v10.8zm-2.8-5.3c0-2.2-1.2-3.3-2.7-3.3c-1.6 0-2.9 1.1-2.9 3.3c0 2.2 1.3 3.2 2.9 3.2c1.5 0 2.7-1 2.7-3.2zm21.3-1.4c-.03.01 0 7.5 0 7.5h-2.8s-.03-7.24 0-7.2c0-1.3-.8-2.1-2.1-2.1c-1.6 0-2.5 1.1-2.5 3c-.03.02 0 6.3 0 6.3h-2.8V33.4h2.8s-.05 1.67 0 1.7c.6-1.1 1.5-1.9 3.5-1.9c2.6 0 3.9 1.5 3.9 4.3zm4.6 2.5c0 1.9 1.4 2.8 2.9 2.8c1.1 0 2.2-.4 2.5-1.5h2.6c-.5 2.6-2.8 3.9-5.2 3.9c-2.8 0-5.5-1.9-5.5-6c0-4 2.6-6 5.5-6c2.9 0 5.2 1.8 5.2 5.7c.03-.01 0 1.1 0 1.1c0 0-8.04.03-8 0zm0-2h5.3c0-1.5-1.1-2.4-2.5-2.4c-1.3 0-2.5.7-2.8 2.4zm20.5 6.2c0 3.7-2.4 5.4-5.6 5.4c-2.8 0-5.1-1.4-5.4-4.3h2.7c.3 1.5 1.4 1.9 2.7 1.9c1.8 0 2.9-.9 2.9-2.7v-1.9c-.6 1.2-1.7 2-3.5 2c-2.6 0-5-1.8-5-5.7c0-3.9 2.4-5.7 5-5.7c1.7 0 2.9.7 3.5 1.8c-.03.01 0-1.6 0-1.6h2.7s-.04 10.8 0 10.8zm-2.8-5.3c0-2.2-1.3-3.3-2.8-3.3c-1.5 0-2.9 1.1-2.9 3.3c0 2.2 1.4 3.2 2.9 3.2c1.5 0 2.8-1 2.8-3.2zm14.6-1.7c.05-.01 0 7.8 0 7.8h-2.7s.02-1.7 0-1.7c-.9 1.5-2.3 1.9-3.5 1.9c-1.8 0-3.7-1.1-3.7-3.6c0-1.8 1-3 3.6-3.4l2.5-.4c.7-.1 1.2-.3 1.2-1c0-1-.8-1.4-1.9-1.4c-1.5 0-2.2.7-2.3 1.7h-2.7c.3-2.7 2.5-3.9 5.1-3.9c2.7 0 4.4 1.3 4.4 4zm-2.7 2.9v-.6c-.2.1-.8.3-1.3.3l-1.3.2c-1.4.2-1.9.8-1.9 1.5c0 .9.7 1.4 1.7 1.4c1.4 0 2.8-1.1 2.8-2.8zm11.2 4.9s-1.84-.02-1.8 0c-2.2 0-3.6-.7-3.6-3.8v-5.3H133v-2.5h2.1v-2.6l2.8-.8v3.4h2.3v2.5h-2.3v5.4c0 .7.2 1.2 1.2 1.2h1.4v2.5zm1.5-13.1h2.9v-3.2H142v3.2zm0 1.5h2.8V45H142V33.4zM153.4 45h-2.9l-4.3-11.6h2.9l2.9 8.3l2.8-8.3h2.9L153.4 45zm7.5-5c0 1.9 1.4 2.8 2.9 2.8c1.1 0 2.2-.4 2.5-1.5h2.6c-.5 2.6-2.8 3.9-5.2 3.9c-2.8 0-5.6-1.9-5.6-6c0-4 2.7-6 5.6-6c2.8 0 5.2 1.8 5.2 5.7c.02-.01 0 1.1 0 1.1c0 0-8.04.03-8 0zm0-2h5.3c0-1.5-1.1-2.4-2.5-2.4c-1.3 0-2.5.7-2.8 2.4zm24.8-4.6s-5.06 13.32-5.1 13.3c-.5 1.4-1.7 2-3.2 2c-.04-.02-1.8 0-1.8 0v-2.5h1.3c.9 0 1.4-.3 1.6-1.1c.04-.03.2-.6.2-.6l-4.3-11.1h2.9l2.8 7.6l2.7-7.6h2.9zm1.2-1.5h3v-3.2h-3v3.2zm.1 1.5h2.8V45H187V33.4zm7.5 6.6c.1 1.9 1.4 2.8 3 2.8c1.1 0 2.1-.4 2.5-1.5h2.5c-.5 2.6-2.8 3.9-5.1 3.9c-2.8 0-5.6-1.9-5.6-6c0-4 2.6-6 5.6-6c2.8 0 5.2 1.8 5.2 5.7c-.04-.01 0 1.1 0 1.1c0 0-8.1.03-8.1 0zm.1-2h5.2c0-1.5-1-2.4-2.5-2.4c-1.2 0-2.5.7-2.7 2.4zm12.8 7h-2.8v-16h2.8v16zm13.3 0H218v-1.8c-.6 1.3-2 2-3.6 2c-2.7 0-5.1-2-5.1-6c0-4 2.4-6 5.1-6c1.5 0 2.8.6 3.5 1.7c.04.02 0-5.9 0-5.9h2.8v16zm-2.7-5.8c0-2.4-1.4-3.5-2.9-3.5c-1.5 0-2.9 1.1-2.9 3.5c0 2.3 1.4 3.5 2.9 3.5c1.5 0 2.9-1.2 2.9-3.5zm14.7 2.2c0 2.6-2.3 3.8-4.9 3.8c-2.4 0-5-1-5.2-3.9h2.8c.2 1.1 1.2 1.6 2.6 1.6c1.1 0 2-.4 2-1.2c0-.8-.6-.9-2.2-1.2c-2.2-.4-4.8-.8-4.8-3.6c0-2.6 2.2-3.7 4.6-3.7c2.7 0 4.7 1.3 4.8 3.9h-2.7c-.1-1.1-.9-1.6-2.1-1.6c-1.4 0-1.9.6-1.9 1.3c0 .9 1 1.1 2.4 1.3c2.1.3 4.6.6 4.6 3.3zm3.4 3.4h-1.4v-2.9h3.2s-.02 2.49 0 2.5c0 3-2.1 4.1-4 4.3l-.2-1.5c1.5-.2 2.4-1.1 2.4-2.4zm21.1.2h-2.7l-2.4-7.4l-2.3 7.4h-2.7l-3.9-11.6h3l2.3 7.7l2.3-7.7h2.8l2.3 7.7l2.3-7.7h2.8L257.2 45zm15.5-7.5v7.5h-2.8s.01-7.24 0-7.2c0-1.3-.7-2.1-2-2.1c-1.6 0-2.6 1.1-2.6 3v6.3h-2.8v-16h2.8v6c.7-1.1 1.7-1.8 3.5-1.8c2.7 0 3.9 1.5 3.9 4.3zm4.6 2.5c.1 1.9 1.4 2.8 3 2.8c1.1 0 2.1-.4 2.5-1.5h2.5c-.5 2.6-2.8 3.9-5.1 3.9c-2.8 0-5.6-1.9-5.6-6c0-4 2.6-6 5.6-6c2.8 0 5.2 1.8 5.2 5.7c-.03-.01 0 1.1 0 1.1c0 0-8.1.03-8.1 0zm.1-2h5.2c0-1.5-1-2.4-2.5-2.4c-1.2 0-2.5.7-2.7 2.4zm16.5-2s-.72-.03-.7 0c-2 0-3 1-3 3.3c-.05.01 0 5.7 0 5.7h-2.8V33.4h2.7s.03 1.65 0 1.6c.6-1.2 1.7-1.7 3.1-1.7c-.04-.04.7 0 .7 0v2.7zm3.1 4c.1 1.9 1.4 2.8 3 2.8c1.1 0 2.2-.4 2.5-1.5h2.6c-.5 2.6-2.8 3.9-5.2 3.9c-2.8 0-5.6-1.9-5.6-6c0-4 2.7-6 5.6-6c2.8 0 5.2 1.8 5.2 5.7c.01-.01 0 1.1 0 1.1c0 0-8.06.03-8.1 0zm.1-2h5.3c0-1.5-1.1-2.4-2.5-2.4c-1.3 0-2.5.7-2.8 2.4zm24.1 3.4c0 2.6-2.3 3.8-4.9 3.8c-2.4 0-5-1-5.2-3.9h2.8c.2 1.1 1.2 1.6 2.5 1.6c1.2 0 2-.4 2-1.2c0-.8-.5-.9-2.1-1.2c-2.3-.4-4.9-.8-4.9-3.6c0-2.6 2.3-3.7 4.6-3.7c2.8 0 4.8 1.3 4.9 3.9h-2.7c-.1-1.1-.9-1.6-2.1-1.6c-1.4 0-1.9.6-1.9 1.3c0 .9 1 1.1 2.4 1.3c2.1.3 4.6.6 4.6 3.3zm12.1-3.9c-.03.01 0 7.5 0 7.5h-2.8s-.03-7.24 0-7.2c0-1.3-.8-2.1-2.1-2.1c-1.6 0-2.5 1.1-2.5 3c-.03.02 0 6.3 0 6.3h-2.8v-16h2.8s-.03 6.03 0 6c.6-1.1 1.6-1.8 3.5-1.8c2.6 0 3.9 1.5 3.9 4.3zm13.2 1.7c0 3.8-2.4 6-5.7 6c-3.2 0-5.6-2.2-5.6-6c0-3.8 2.4-6 5.6-6c3.3 0 5.7 2.2 5.7 6zm-8.5 0c0 2.3 1.3 3.4 2.8 3.4c1.7 0 2.8-1.2 2.8-3.4c0-2.3-1.3-3.4-2.8-3.4c-1.7 0-2.8 1.2-2.8 3.4zm20.6 5.8h-2.7s-.02-1.66 0-1.7c-.7 1.1-1.7 1.8-3.4 1.8c-2.4 0-4.1-1.5-4.1-4.5c-.04-.01 0-7.2 0-7.2h2.8s-.04 6.98 0 7c0 1.6.7 2.2 1.9 2.2c1.6 0 2.7-.9 2.7-3.6c.02 0 0-5.6 0-5.6h2.8V45zm5.5 0h-2.8v-16h2.8v16zm13.4 0h-2.7s-.02-1.8 0-1.8c-.6 1.3-2 2-3.6 2c-2.7 0-5.1-2-5.1-6c0-4 2.4-6 5.1-6c1.5 0 2.8.6 3.5 1.7c.02.02 0-5.9 0-5.9h2.8v16zm-2.7-5.8c0-2.4-1.4-3.5-2.9-3.5c-1.5 0-2.9 1.1-2.9 3.5c0 2.3 1.4 3.5 2.9 3.5c1.5 0 2.9-1.2 2.9-3.5zm15.6 6c-3.8 0-5.6-2.9-5.6-6c0-3.1 1.8-6 5.6-6c2.8 0 5 1.6 5.1 4.4h-2.7c-.2-1.1-1-1.9-2.4-1.9c-2 0-2.8 1.7-2.8 3.5c0 1.9.9 3.4 2.8 3.4c1.4 0 2.2-.7 2.4-1.7h2.8c-.4 2.8-2.4 4.3-5.2 4.3zm10-.2h-2.8v-16h2.8v16zm2.6-13.1h2.9v-3.2H403v3.2zm.1 1.5h2.8V45h-2.8V33.4zm7.4 6.6c.1 1.9 1.5 2.8 3 2.8c1.1 0 2.2-.4 2.5-1.5h2.6c-.5 2.6-2.8 3.9-5.2 3.9c-2.8 0-5.6-1.9-5.6-6c0-4 2.7-6 5.6-6c2.8 0 5.2 1.8 5.2 5.7c.01-.01 0 1.1 0 1.1c0 0-8.06.03-8.1 0zm.1-2h5.3c0-1.5-1.1-2.4-2.5-2.4c-1.3 0-2.5.7-2.8 2.4zm20.2-.5v7.5H428v-7.2c0-1.3-.7-2.1-2-2.1c-1.6 0-2.6 1.1-2.6 3v6.3h-2.8V33.4h2.8s-.02 1.67 0 1.7c.6-1.1 1.6-1.9 3.5-1.9c2.6 0 3.9 1.5 3.9 4.3zm8.5 7.5s-1.79-.02-1.8 0c-2.2 0-3.5-.7-3.5-3.8c-.04 0 0-5.3 0-5.3h-2.2v-2.5h2.2v-2.6l2.8-.8v3.4h2.3v2.5h-2.3s-.05 5.43 0 5.4c0 .7.1 1.2 1.1 1.2h1.4v2.5zm10.9-3.6c0 2.6-2.3 3.8-4.9 3.8c-2.4 0-5-1-5.2-3.9h2.8c.2 1.1 1.2 1.6 2.5 1.6c1.2 0 2-.4 2-1.2c0-.8-.5-.9-2.1-1.2c-2.3-.4-4.9-.8-4.9-3.6c0-2.6 2.2-3.7 4.6-3.7c2.7 0 4.7 1.3 4.9 3.9h-2.7c-.1-1.1-1-1.6-2.1-1.6c-1.4 0-2 .6-2 1.3c0 .9 1.1 1.1 2.5 1.3c2.1.3 4.6.6 4.6 3.3z" stroke="none" fill="#000"/></g><g id="Polygon9910"><path d="m16.8 19.8h-2.9L10.6 8.5l-3.3 11.3H4.4L.3 4h3.1L6 15L9.2 4h2.9l3.2 11.1L17.9 4h3l-4.1 15.8zm5.7-13.1h3V3.5h-3v3.2zm.1 1.5h2.8v11.6h-2.8V8.2zM34 19.8s-1.83-.02-1.8 0c-2.2 0-3.6-.7-3.6-3.8c.02 0 0-5.3 0-5.3h-2.1V8.2h2.1V5.6l2.8-.8v3.4h2.3v2.5h-2.3s.02 5.43 0 5.4c0 .7.2 1.2 1.2 1.2h1.4v2.5zm11.8-7.5c-.04.01 0 7.5 0 7.5H43s-.03-7.24 0-7.2c0-1.3-.8-2.1-2.1-2.1c-1.6 0-2.5 1.1-2.5 3c-.03.02 0 6.3 0 6.3h-2.8v-16h2.8s-.03 6.03 0 6C39 8.7 40 8 41.9 8c2.6 0 3.9 1.5 3.9 4.3zm24.6-.3v7.8h-2.8s.02-7.28 0-7.3c0-1.4-.6-2-1.8-2c-1.3 0-2.2.8-2.2 2.8c.03-.03 0 6.5 0 6.5h-2.8s.04-7.28 0-7.3c0-1.4-.7-2-1.8-2c-1.3 0-2.2.8-2.2 2.8c.05-.05 0 6.5 0 6.5h-2.7V8.2h2.7v1.7C57.2 9 58 8 59.8 8c1.5 0 2.7.7 3.2 1.9c.4-.8 1.3-1.9 3.4-1.9c2.4 0 4 1.5 4 4zm13.2 2c0 3.8-2.4 6-5.6 6c-3.3 0-5.7-2.2-5.7-6c0-3.8 2.4-6 5.7-6c3.2 0 5.6 2.2 5.6 6zm-8.4 0c0 2.3 1.2 3.4 2.8 3.4c1.7 0 2.8-1.2 2.8-3.4c0-2.3-1.3-3.4-2.9-3.4c-1.6 0-2.7 1.2-2.7 3.4zm17-3.2s-.77-.03-.8 0c-1.9 0-3 1-3 3.3v5.7h-2.8V8.2h2.8v1.6c.6-1.2 1.6-1.7 3-1.7c.01-.04.8 0 .8 0v2.7zm3.1 4c.1 1.9 1.4 2.8 3 2.8c1.1 0 2.1-.4 2.5-1.5h2.5c-.5 2.6-2.8 3.9-5.1 3.9c-2.8 0-5.6-1.9-5.6-6c0-4 2.6-6 5.6-6c2.8 0 5.2 1.8 5.2 5.7c-.04-.01 0 1.1 0 1.1c0 0-8.1.03-8.1 0zm.1-2h5.2c0-1.5-1-2.4-2.5-2.4c-1.2 0-2.5.7-2.7 2.4zm20.9 7s-1.81-.02-1.8 0c-2.2 0-3.6-.7-3.6-3.8c.04 0 0-5.3 0-5.3h-2.1V8.2h2.1V5.6l2.8-.8v3.4h2.3v2.5h-2.3s.03 5.43 0 5.4c0 .7.2 1.2 1.2 1.2h1.4v2.5zm11.8-7.5c-.02.01 0 7.5 0 7.5h-2.8s-.02-7.24 0-7.2c0-1.3-.8-2.1-2.1-2.1c-1.5 0-2.5 1.1-2.5 3v6.3h-2.8v-16h2.8v6c.7-1.1 1.6-1.8 3.5-1.8c2.6 0 3.9 1.5 3.9 4.3zM140 12c-.04-.01 0 7.8 0 7.8h-2.8s.03-1.7 0-1.7c-.9 1.5-2.3 1.9-3.5 1.9c-1.8 0-3.7-1.1-3.7-3.6c0-1.8 1-3 3.7-3.4l2.5-.4c.7-.1 1.1-.3 1.1-1c0-1-.8-1.4-1.9-1.4c-1.5 0-2.2.7-2.3 1.7h-2.7c.3-2.7 2.5-3.9 5.1-3.9c2.7 0 4.5 1.3 4.5 4zm-2.7 2.9v-.6c-.3.1-.8.3-1.4.3l-1.3.2c-1.4.2-1.8.8-1.8 1.5c0 .9.6 1.4 1.6 1.4c1.4 0 2.9-1.1 2.9-2.8zm15.4-2.6c-.03.01 0 7.5 0 7.5h-2.8s-.02-7.24 0-7.2c0-1.3-.8-2.1-2.1-2.1c-1.6 0-2.5 1.1-2.5 3c-.02.02 0 6.3 0 6.3h-2.8V8.2h2.8s-.04 1.67 0 1.7c.6-1.1 1.6-1.9 3.5-1.9c2.6 0 3.9 1.5 3.9 4.3zm19 3.2c0 3-2.7 4.5-5.6 4.5c-3 0-5.9-1.7-5.9-5.3h2.9c-.2 1.8 1.3 2.8 3 2.8c1.4 0 2.6-.7 2.6-2.1c0-1.4-1.1-2.1-3.2-2.1c.04.03-1.1 0-1.1 0v-2.5s1.06.01 1.1 0c1.8 0 2.9-.9 2.9-2.2c0-1.3-1-2-2.4-2c-1.6 0-2.8.9-2.8 2.9h-2.9c0-3.7 2.7-5.5 5.8-5.5c2.8 0 5.2 1.5 5.2 4.2c0 2-1.2 3.2-2.5 3.6c1.6.6 2.9 1.6 2.9 3.7zm1.3-3.4c0-4.9 1.7-8.1 5.5-8.1c3.8 0 5.5 3.2 5.5 8c0 4.9-1.7 8-5.5 8c-3.8 0-5.5-3.1-5.5-7.9zm8.2 0c0-3.1-.8-5.6-2.8-5.6c-1.8 0-2.6 2-2.6 5.4c0 3.5.9 5.7 2.7 5.7c1.9 0 2.7-2.3 2.7-5.5zm7.8-8.6c2.3 0 4 1.6 4 4c0 2.3-1.7 4-4 4c-2.3 0-4-1.7-4-4c0-2.4 1.7-4 4-4zm1.2 16.3h-1.7L198.4 4h1.7l-9.9 15.8zM189 5.3c-1.2 0-2.1.9-2.1 2.2c0 1.3.9 2.2 2.1 2.2c1.2 0 2.1-.9 2.1-2.2c0-1.3-.9-2.2-2.1-2.2zm10.1 7.1c2.3 0 4.1 1.6 4.1 4c0 2.3-1.8 4-4.1 4c-2.2 0-3.9-1.7-3.9-4c0-2.4 1.7-4 3.9-4zm0 1.8c-1.2 0-2 .9-2 2.2c0 1.3.8 2.2 2 2.2c1.3 0 2.1-.9 2.1-2.2c0-1.3-.8-2.2-2.1-2.2zm21.5-.2c0 3.8-2.5 6-5.7 6c-3.2 0-5.7-2.2-5.7-6c0-3.8 2.5-6 5.7-6c3.2 0 5.7 2.2 5.7 6zm-8.5 0c0 2.3 1.3 3.4 2.8 3.4c1.7 0 2.8-1.2 2.8-3.4c0-2.3-1.3-3.4-2.8-3.4c-1.7 0-2.8 1.2-2.8 3.4zm14.8-7.7c-1 0-1.2.4-1.2 1.1v.8h2.1v2.5h-2.1v9.1h-2.8v-9.1h-1.7V8.2h1.7v-.6c0-3.1 1.4-3.8 3.6-3.8c-.04-.02 1.6 0 1.6 0v2.5s-1.22-.04-1.2 0zm13.6 13.5s-1.86-.02-1.9 0c-2.1 0-3.5-.7-3.5-3.8v-5.3H233V8.2h2.1V5.6l2.8-.8v3.4h2.3v2.5h-2.3s-.02 5.43 0 5.4c0 .7.2 1.2 1.2 1.2h1.4v2.5zm11.7-7.5c.03.01 0 7.5 0 7.5h-2.8s.03-7.24 0-7.2c0-1.3-.7-2.1-2-2.1c-1.6 0-2.6 1.1-2.6 3c.04.02 0 6.3 0 6.3H242v-16h2.8s.04 6.03 0 6c.7-1.1 1.7-1.8 3.5-1.8c2.7 0 3.9 1.5 3.9 4.3zm4.6 2.5c.1 1.9 1.4 2.8 3 2.8c1.1 0 2.2-.4 2.5-1.5h2.5c-.5 2.6-2.7 3.9-5.1 3.9c-2.8 0-5.6-1.9-5.6-6c0-4 2.6-6 5.6-6c2.8 0 5.2 1.8 5.2 5.7c-.01-.01 0 1.1 0 1.1c0 0-8.07.03-8.1 0zm.1-2h5.3c0-1.5-1.1-2.4-2.5-2.4c-1.3 0-2.6.7-2.8 2.4zm26.6 1.2c0 4.1-2.5 6-5.2 6c-1.5 0-2.7-.5-3.4-1.6c-.03 0 0 1.4 0 1.4h-2.8v-16h2.8s.03 6.09 0 6.1c.7-1.2 2-1.9 3.6-1.9c2.7 0 5 2 5 6zm-2.8 0c0-2.3-1.4-3.5-2.9-3.5c-1.5 0-3 1.2-3 3.5c0 2.4 1.5 3.6 3 3.6c1.5 0 2.9-1.2 2.9-3.6zm15.4 0c0 3.8-2.4 6-5.7 6c-3.2 0-5.6-2.2-5.6-6c0-3.8 2.4-6 5.6-6c3.3 0 5.7 2.2 5.7 6zm-8.5 0c0 2.3 1.3 3.4 2.9 3.4c1.6 0 2.7-1.2 2.7-3.4c0-2.3-1.2-3.4-2.8-3.4c-1.7 0-2.8 1.2-2.8 3.4zm20.7-1.7c-.02.01 0 7.5 0 7.5h-2.8s-.02-7.24 0-7.2c0-1.3-.8-2.1-2.1-2.1c-1.5 0-2.5 1.1-2.5 3c-.02.02 0 6.3 0 6.3h-2.8V8.2h2.8s-.04 1.67 0 1.7c.6-1.1 1.6-1.9 3.5-1.9c2.6 0 3.9 1.5 3.9 4.3zm13.2 7.5h-2.7s.02-1.8 0-1.8c-.6 1.3-2 2-3.6 2c-2.7 0-5-2-5-6c0-4 2.3-6 5-6c1.6 0 2.9.6 3.6 1.7c-.05.02 0-5.9 0-5.9h2.7v16zm-2.7-5.8c0-2.4-1.4-3.5-2.9-3.5c-1.5 0-2.9 1.1-2.9 3.5c0 2.3 1.4 3.5 2.9 3.5c1.5 0 2.9-1.2 2.9-3.5zm14.7 2.2c0 2.6-2.3 3.8-4.9 3.8c-2.4 0-5-1-5.2-3.9h2.9c.1 1.1 1.2 1.6 2.5 1.6c1.1 0 2-.4 2-1.2c0-.8-.6-.9-2.2-1.2c-2.2-.4-4.8-.8-4.8-3.6c0-2.6 2.2-3.7 4.6-3.7c2.7 0 4.7 1.3 4.9 3.9h-2.8c-.1-1.1-.9-1.6-2.1-1.6c-1.4 0-1.9.6-1.9 1.3c0 .9 1 1.1 2.4 1.3c2.1.3 4.6.6 4.6 3.3zm17.3 3.6h-2.7s-.01-1.66 0-1.7c-.7 1.1-1.7 1.8-3.3 1.8c-2.5 0-4.2-1.5-4.2-4.5c-.03-.01 0-7.2 0-7.2h2.8s-.03 6.98 0 7c0 1.6.7 2.2 1.9 2.2c1.6 0 2.7-.9 2.7-3.6c.03 0 0-5.6 0-5.6h2.8v11.6zm12.9-7.5c.04.01 0 7.5 0 7.5h-2.8s.04-7.24 0-7.2c0-1.3-.7-2.1-2-2.1c-1.6 0-2.6 1.1-2.6 3c.04.02 0 6.3 0 6.3h-2.7V8.2h2.7s.02 1.67 0 1.7c.7-1.1 1.6-1.9 3.6-1.9c2.6 0 3.8 1.5 3.8 4.3zm2.6-5.6h2.9V3.5h-2.9v3.2zm0 1.5h2.8v11.6h-2.8V8.2zm11.4 11.6h-2.9l-4.3-11.6h2.9l2.9 8.3l2.8-8.3h2.9l-4.3 11.6zm7.5-5c0 1.9 1.4 2.8 2.9 2.8c1.1 0 2.2-.4 2.5-1.5h2.6c-.5 2.6-2.8 3.9-5.2 3.9c-2.8 0-5.6-1.9-5.6-6c0-4 2.7-6 5.6-6c2.8 0 5.2 1.8 5.2 5.7c.02-.01 0 1.1 0 1.1c0 0-8.04.03-8 0zm0-2h5.3c0-1.5-1.1-2.4-2.5-2.4c-1.3 0-2.5.7-2.8 2.4zm16.6-2s-.77-.03-.8 0c-1.9 0-3 1-3 3.3v5.7h-2.8V8.2h2.8v1.6c.6-1.2 1.6-1.7 3-1.7c.01-.04.8 0 .8 0v2.7zm10.6 5.4c0 2.6-2.3 3.8-4.9 3.8c-2.4 0-5-1-5.2-3.9h2.8c.2 1.1 1.2 1.6 2.5 1.6c1.2 0 2-.4 2-1.2c0-.8-.5-.9-2.1-1.2c-2.3-.4-4.9-.8-4.9-3.6c0-2.6 2.3-3.7 4.6-3.7c2.8 0 4.8 1.3 4.9 3.9h-2.7c-.1-1.1-.9-1.6-2.1-1.6c-1.4 0-1.9.6-1.9 1.3c0 .9 1 1.1 2.4 1.3c2.1.3 4.6.6 4.6 3.3zm3.9-1.4c0 1.9 1.4 2.8 2.9 2.8c1.1 0 2.2-.4 2.5-1.5h2.6c-.5 2.6-2.8 3.9-5.2 3.9c-2.8 0-5.6-1.9-5.6-6c0-4 2.7-6 5.6-6c2.8 0 5.2 1.8 5.2 5.7c.02-.01 0 1.1 0 1.1c0 0-8.04.03-8 0zm0-2h5.3c0-1.5-1.1-2.4-2.5-2.4c-1.3 0-2.5.7-2.8 2.4z" stroke="none" fill="#000"/></g></svg>