<?xml version="1.0" standalone="no"?><!DOCTYPE svg PUBLIC "-//W3C//DTD SVG 1.1//EN" "http://www.w3.org/Graphics/SVG/1.1/DTD/svg11.dtd"><svg xmlns="http://www.w3.org/2000/svg" version="1.1" width="304px" height="205.4px" viewBox="0 -4 304 205.4" style="top:-4px"> <desc>There seems to be consensus that the US dollar will weaken in 2021 What currency positioning makes sense for a euro</desc> <defs/> <g id="Polygon10827">  <path d="M 1.3 132.7 L 4.2 132.7 L 4.2 129.5 L 1.3 129.5 L 1.3 132.7 Z M 1.3 134.2 L 4.1 134.2 L 4.1 145.8 L 1.3 145.8 L 1.3 134.2 Z M 17 138.3 C 17.03 138.31 17 145.8 17 145.8 L 14.2 145.8 C 14.2 145.8 14.24 138.56 14.2 138.6 C 14.2 137.3 13.5 136.5 12.2 136.5 C 10.6 136.5 9.6 137.6 9.6 139.5 C 9.64 139.52 9.6 145.8 9.6 145.8 L 6.8 145.8 L 6.8 134.2 L 9.6 134.2 C 9.6 134.2 9.62 135.87 9.6 135.9 C 10.3 134.8 11.2 134 13.1 134 C 15.8 134 17 135.5 17 138.3 Z M 25.5 145.8 L 22.6 145.8 L 18.3 134.2 L 21.3 134.2 L 24.1 142.5 L 26.9 134.2 L 29.8 134.2 L 25.5 145.8 Z M 33 140.8 C 33 142.7 34.4 143.6 36 143.6 C 37 143.6 38.1 143.2 38.4 142.1 C 38.4 142.1 41 142.1 41 142.1 C 40.5 144.7 38.2 146 35.8 146 C 33 146 30.3 144.1 30.3 140 C 30.3 136 32.9 134 35.8 134 C 38.7 134 41 135.8 41 139.7 C 41.03 139.69 41 140.8 41 140.8 C 41 140.8 32.97 140.83 33 140.8 Z M 33 138.8 C 33 138.8 38.3 138.8 38.3 138.8 C 38.3 137.3 37.2 136.4 35.8 136.4 C 34.5 136.4 33.3 137.1 33 138.8 Z M 52.3 142.2 C 52.3 144.8 50 146 47.4 146 C 45 146 42.4 145 42.2 142.1 C 42.2 142.1 45 142.1 45 142.1 C 45.2 143.2 46.2 143.7 47.5 143.7 C 48.7 143.7 49.5 143.3 49.5 142.5 C 49.5 141.7 49 141.6 47.4 141.3 C 45.1 140.9 42.5 140.5 42.5 137.7 C 42.5 135.1 44.8 134 47.1 134 C 49.9 134 51.8 135.3 52 137.9 C 52 137.9 49.3 137.9 49.3 137.9 C 49.2 136.8 48.4 136.3 47.2 136.3 C 45.8 136.3 45.3 136.9 45.3 137.6 C 45.3 138.5 46.3 138.7 47.7 138.9 C 49.8 139.2 52.3 139.5 52.3 142.2 Z M 60.1 145.8 C 60.1 145.8 58.27 145.78 58.3 145.8 C 56.1 145.8 54.7 145.1 54.7 142 C 54.73 142 54.7 136.7 54.7 136.7 L 52.6 136.7 L 52.6 134.2 L 54.7 134.2 L 54.7 131.6 L 57.5 130.8 L 57.5 134.2 L 59.8 134.2 L 59.8 136.7 L 57.5 136.7 C 57.5 136.7 57.52 142.13 57.5 142.1 C 57.5 142.8 57.7 143.3 58.7 143.3 C 58.69 143.3 60.1 143.3 60.1 143.3 L 60.1 145.8 Z M 72.3 140 C 72.3 143.8 69.8 146 66.6 146 C 63.4 146 60.9 143.8 60.9 140 C 60.9 136.2 63.4 134 66.6 134 C 69.8 134 72.3 136.2 72.3 140 Z M 63.8 140 C 63.8 142.3 65.1 143.4 66.6 143.4 C 68.3 143.4 69.4 142.2 69.4 140 C 69.4 137.7 68.1 136.6 66.6 136.6 C 64.9 136.6 63.8 137.8 63.8 140 Z M 80.8 136.8 C 80.8 136.8 80.07 136.77 80.1 136.8 C 78.1 136.8 77 137.8 77 140.1 C 77.05 140.11 77 145.8 77 145.8 L 74.3 145.8 L 74.3 134.2 L 77 134.2 C 77 134.2 77.03 135.85 77 135.8 C 77.6 134.6 78.7 134.1 80.1 134.1 C 80.05 134.06 80.8 134.1 80.8 134.1 L 80.8 136.8 Z M 87.1 132.7 L 90.1 132.7 L 90.1 129.5 L 87.1 129.5 L 87.1 132.7 Z M 87.2 134.2 L 90 134.2 L 90 145.8 L 87.2 145.8 L 87.2 134.2 Z M 102.9 138.3 C 102.88 138.31 102.9 145.8 102.9 145.8 L 100.1 145.8 C 100.1 145.8 100.08 138.56 100.1 138.6 C 100.1 137.3 99.3 136.5 98 136.5 C 96.5 136.5 95.5 137.6 95.5 139.5 C 95.49 139.52 95.5 145.8 95.5 145.8 L 92.7 145.8 L 92.7 134.2 L 95.5 134.2 C 95.5 134.2 95.46 135.87 95.5 135.9 C 96.1 134.8 97.1 134 99 134 C 101.6 134 102.9 135.5 102.9 138.3 Z M 121.9 145.8 L 110.5 145.8 L 110.5 143.2 C 110.5 143.2 114.32 140.07 114.3 140.1 C 117.2 137.7 118.5 136.5 118.5 134.9 C 118.5 133.5 117.5 132.7 116 132.7 C 114.4 132.7 113.2 133.6 113.1 135.5 C 113.1 135.5 110.4 135.5 110.4 135.5 C 110.4 131.9 113 130 116.1 130 C 119 130 121.4 131.6 121.4 134.7 C 121.4 137.4 119.4 139.2 116.7 141.4 C 116.69 141.41 114.5 143.2 114.5 143.2 L 121.9 143.2 L 121.9 145.8 Z M 123.2 138.1 C 123.2 133.2 124.9 130 128.7 130 C 132.5 130 134.2 133.2 134.2 138 C 134.2 142.9 132.5 146 128.7 146 C 124.9 146 123.2 142.9 123.2 138.1 Z M 131.4 138.1 C 131.4 135 130.6 132.5 128.6 132.5 C 126.9 132.5 126 134.5 126 137.9 C 126 141.4 126.9 143.6 128.7 143.6 C 130.6 143.6 131.4 141.3 131.4 138.1 Z M 147.1 145.8 L 135.7 145.8 L 135.7 143.2 C 135.7 143.2 139.52 140.07 139.5 140.1 C 142.4 137.7 143.7 136.5 143.7 134.9 C 143.7 133.5 142.7 132.7 141.2 132.7 C 139.6 132.7 138.4 133.6 138.3 135.5 C 138.3 135.5 135.6 135.5 135.6 135.5 C 135.6 131.9 138.2 130 141.3 130 C 144.2 130 146.6 131.6 146.6 134.7 C 146.6 137.4 144.6 139.2 141.9 141.4 C 141.89 141.41 139.7 143.2 139.7 143.2 L 147.1 143.2 L 147.1 145.8 Z M 159.2 143.2 L 159.2 145.8 L 148.9 145.8 L 148.9 143.2 L 152.6 143.2 C 152.6 143.2 152.65 133.96 152.6 134 C 151.4 134.7 150 135.1 148.9 135.2 C 148.9 135.2 148.9 132.4 148.9 132.4 C 150.3 132.2 151.8 131.6 153.1 130.3 C 153.07 130.3 155.4 130.3 155.4 130.3 L 155.4 143.2 L 159.2 143.2 Z M 164.3 140.2 C 164.3 137.5 165.7 137 166.9 136.1 C 168 135.4 168.4 134.8 168.4 134 C 168.4 132.8 167.6 132.2 166.3 132.2 C 164.9 132.2 164 133 163.9 134.4 C 163.9 134.4 161 134.4 161 134.4 C 161.3 131 163.8 129.8 166.4 129.8 C 169.2 129.8 171.3 131.1 171.3 133.9 C 171.3 136.1 170 137 168.6 138 C 167.5 138.8 167 139.3 167 140.2 C 167.01 140.24 167 140.9 167 140.9 L 164.3 140.9 C 164.3 140.9 164.34 140.15 164.3 140.2 Z M 164.1 142.5 L 167.3 142.5 L 167.3 145.8 L 164.1 145.8 L 164.1 142.5 Z " stroke="none" fill="#000"/> </g> <g id="Polygon10826">  <path d="M 17.7 112.8 C 17.72 112.77 17.7 120.6 17.7 120.6 L 14.9 120.6 C 14.9 120.6 14.93 113.32 14.9 113.3 C 14.9 111.9 14.3 111.3 13.1 111.3 C 11.8 111.3 10.9 112.1 10.9 114.1 C 10.94 114.07 10.9 120.6 10.9 120.6 L 8.1 120.6 C 8.1 120.6 8.15 113.32 8.1 113.3 C 8.1 111.9 7.5 111.3 6.3 111.3 C 5 111.3 4.2 112.1 4.2 114.1 C 4.16 114.05 4.2 120.6 4.2 120.6 L 1.4 120.6 L 1.4 109 L 4.1 109 C 4.1 109 4.12 110.69 4.1 110.7 C 4.5 109.8 5.4 108.8 7.1 108.8 C 8.6 108.8 9.8 109.5 10.3 110.7 C 10.8 109.9 11.6 108.8 13.7 108.8 C 16.1 108.8 17.7 110.3 17.7 112.8 Z M 29.6 112.8 C 29.61 112.79 29.6 120.6 29.6 120.6 L 26.9 120.6 C 26.9 120.6 26.88 118.9 26.9 118.9 C 26 120.4 24.6 120.8 23.4 120.8 C 21.5 120.8 19.6 119.7 19.6 117.2 C 19.6 115.4 20.6 114.2 23.3 113.8 C 23.3 113.8 25.8 113.4 25.8 113.4 C 26.5 113.3 27 113.1 27 112.4 C 27 111.4 26.1 111 25 111 C 23.5 111 22.9 111.7 22.8 112.7 C 22.8 112.7 20.1 112.7 20.1 112.7 C 20.4 110 22.5 108.8 25.2 108.8 C 27.9 108.8 29.6 110.1 29.6 112.8 Z M 26.9 115.7 C 26.9 115.7 26.9 115.1 26.9 115.1 C 26.6 115.2 26.1 115.4 25.5 115.4 C 25.5 115.4 24.3 115.6 24.3 115.6 C 22.9 115.8 22.4 116.4 22.4 117.1 C 22.4 118 23.1 118.5 24 118.5 C 25.5 118.5 26.9 117.4 26.9 115.7 Z M 36.2 116.1 L 34.9 117.5 L 34.9 120.6 L 32.1 120.6 L 32.1 104.6 L 34.9 104.6 L 34.9 113.7 L 39.1 109 L 42.7 109 L 38.2 114 L 42.9 120.6 L 39.4 120.6 L 36.2 116.1 Z M 45.8 115.6 C 45.9 117.5 47.2 118.4 48.8 118.4 C 49.9 118.4 50.9 118 51.3 116.9 C 51.3 116.9 53.8 116.9 53.8 116.9 C 53.3 119.5 51 120.8 48.7 120.8 C 45.9 120.8 43.1 118.9 43.1 114.8 C 43.1 110.8 45.7 108.8 48.7 108.8 C 51.5 108.8 53.9 110.6 53.9 114.5 C 53.86 114.49 53.9 115.6 53.9 115.6 C 53.9 115.6 45.8 115.63 45.8 115.6 Z M 45.9 113.6 C 45.9 113.6 51.1 113.6 51.1 113.6 C 51.1 112.1 50.1 111.2 48.6 111.2 C 47.4 111.2 46.1 111.9 45.9 113.6 Z M 65.1 117 C 65.1 119.6 62.8 120.8 60.2 120.8 C 57.8 120.8 55.2 119.8 55 116.9 C 55 116.9 57.8 116.9 57.8 116.9 C 58 118 59.1 118.5 60.4 118.5 C 61.5 118.5 62.4 118.1 62.4 117.3 C 62.4 116.5 61.8 116.4 60.2 116.1 C 58 115.7 55.4 115.3 55.4 112.5 C 55.4 109.9 57.6 108.8 60 108.8 C 62.7 108.8 64.7 110.1 64.8 112.7 C 64.8 112.7 62.1 112.7 62.1 112.7 C 62 111.6 61.2 111.1 60 111.1 C 58.6 111.1 58.1 111.7 58.1 112.4 C 58.1 113.3 59.1 113.5 60.5 113.7 C 62.6 114 65.1 114.3 65.1 117 Z M 81.1 117 C 81.1 119.6 78.8 120.8 76.2 120.8 C 73.8 120.8 71.2 119.8 71 116.9 C 71 116.9 73.8 116.9 73.8 116.9 C 74 118 75 118.5 76.3 118.5 C 77.5 118.5 78.4 118.1 78.4 117.3 C 78.4 116.5 77.8 116.4 76.2 116.1 C 73.9 115.7 71.4 115.3 71.4 112.5 C 71.4 109.9 73.6 108.8 76 108.8 C 78.7 108.8 80.7 110.1 80.8 112.7 C 80.8 112.7 78.1 112.7 78.1 112.7 C 78 111.6 77.2 111.1 76 111.1 C 74.6 111.1 74.1 111.7 74.1 112.4 C 74.1 113.3 75.1 113.5 76.5 113.7 C 78.6 114 81.1 114.3 81.1 117 Z M 85 115.6 C 85 117.5 86.4 118.4 87.9 118.4 C 89 118.4 90.1 118 90.4 116.9 C 90.4 116.9 93 116.9 93 116.9 C 92.5 119.5 90.2 120.8 87.8 120.8 C 85 120.8 82.3 118.9 82.3 114.8 C 82.3 110.8 84.9 108.8 87.8 108.8 C 90.7 108.8 93 110.6 93 114.5 C 93.03 114.49 93 115.6 93 115.6 C 93 115.6 84.97 115.63 85 115.6 Z M 85 113.6 C 85 113.6 90.3 113.6 90.3 113.6 C 90.3 112.1 89.2 111.2 87.8 111.2 C 86.5 111.2 85.3 111.9 85 113.6 Z M 105.2 113.1 C 105.21 113.11 105.2 120.6 105.2 120.6 L 102.4 120.6 C 102.4 120.6 102.42 113.36 102.4 113.4 C 102.4 112.1 101.7 111.3 100.4 111.3 C 98.8 111.3 97.8 112.4 97.8 114.3 C 97.82 114.32 97.8 120.6 97.8 120.6 L 95 120.6 L 95 109 L 97.8 109 C 97.8 109 97.8 110.67 97.8 110.7 C 98.4 109.6 99.4 108.8 101.3 108.8 C 104 108.8 105.2 110.3 105.2 113.1 Z M 117.1 117 C 117.1 119.6 114.8 120.8 112.2 120.8 C 109.8 120.8 107.2 119.8 107 116.9 C 107 116.9 109.8 116.9 109.8 116.9 C 110 118 111 118.5 112.3 118.5 C 113.5 118.5 114.3 118.1 114.3 117.3 C 114.3 116.5 113.8 116.4 112.2 116.1 C 109.9 115.7 107.4 115.3 107.4 112.5 C 107.4 109.9 109.6 108.8 111.9 108.8 C 114.7 108.8 116.7 110.1 116.8 112.7 C 116.8 112.7 114.1 112.7 114.1 112.7 C 114 111.6 113.2 111.1 112 111.1 C 110.6 111.1 110.1 111.7 110.1 112.4 C 110.1 113.3 111.1 113.5 112.5 113.7 C 114.6 114 117.1 114.3 117.1 117 Z M 121 115.6 C 121 117.5 122.4 118.4 123.9 118.4 C 125 118.4 126.1 118 126.4 116.9 C 126.4 116.9 129 116.9 129 116.9 C 128.5 119.5 126.2 120.8 123.8 120.8 C 121 120.8 118.2 118.9 118.2 114.8 C 118.2 110.8 120.9 108.8 123.8 108.8 C 126.6 108.8 129 110.6 129 114.5 C 129.02 114.49 129 115.6 129 115.6 C 129 115.6 120.96 115.63 121 115.6 Z M 121 113.6 C 121 113.6 126.3 113.6 126.3 113.6 C 126.3 112.1 125.2 111.2 123.8 111.2 C 122.5 111.2 121.3 111.9 121 113.6 Z M 140.4 107.1 C 139.4 107.1 139.2 107.5 139.2 108.2 C 139.21 108.23 139.2 109 139.2 109 L 141.3 109 L 141.3 111.5 L 139.2 111.5 L 139.2 120.6 L 136.4 120.6 L 136.4 111.5 L 134.7 111.5 L 134.7 109 L 136.4 109 C 136.4 109 136.41 108.36 136.4 108.4 C 136.4 105.3 137.8 104.6 140 104.6 C 139.96 104.58 141.6 104.6 141.6 104.6 L 141.6 107.1 C 141.6 107.1 140.38 107.06 140.4 107.1 Z M 153.4 114.8 C 153.4 118.6 151 120.8 147.7 120.8 C 144.5 120.8 142.1 118.6 142.1 114.8 C 142.1 111 144.5 108.8 147.7 108.8 C 151 108.8 153.4 111 153.4 114.8 Z M 144.9 114.8 C 144.9 117.1 146.2 118.2 147.8 118.2 C 149.4 118.2 150.5 117 150.5 114.8 C 150.5 112.5 149.2 111.4 147.7 111.4 C 146 111.4 144.9 112.6 144.9 114.8 Z M 161.9 111.6 C 161.9 111.6 161.19 111.57 161.2 111.6 C 159.2 111.6 158.2 112.6 158.2 114.9 C 158.17 114.91 158.2 120.6 158.2 120.6 L 155.4 120.6 L 155.4 109 L 158.1 109 C 158.1 109 158.15 110.65 158.1 110.6 C 158.7 109.4 159.8 108.9 161.2 108.9 C 161.17 108.86 161.9 108.9 161.9 108.9 L 161.9 111.6 Z M 177.6 112.8 C 177.6 112.79 177.6 120.6 177.6 120.6 L 174.9 120.6 C 174.9 120.6 174.87 118.9 174.9 118.9 C 174 120.4 172.6 120.8 171.4 120.8 C 169.5 120.8 167.6 119.7 167.6 117.2 C 167.6 115.4 168.6 114.2 171.3 113.8 C 171.3 113.8 173.8 113.4 173.8 113.4 C 174.5 113.3 175 113.1 175 112.4 C 175 111.4 174.1 111 173 111 C 171.5 111 170.9 111.7 170.7 112.7 C 170.7 112.7 168.1 112.7 168.1 112.7 C 168.4 110 170.5 108.8 173.1 108.8 C 175.9 108.8 177.6 110.1 177.6 112.8 Z M 174.9 115.7 C 174.9 115.7 174.9 115.1 174.9 115.1 C 174.6 115.2 174.1 115.4 173.5 115.4 C 173.5 115.4 172.3 115.6 172.3 115.6 C 170.9 115.8 170.4 116.4 170.4 117.1 C 170.4 118 171 118.5 172 118.5 C 173.5 118.5 174.9 117.4 174.9 115.7 Z M 186.9 115.6 C 187 117.5 188.3 118.4 189.9 118.4 C 191 118.4 192 118 192.4 116.9 C 192.4 116.9 194.9 116.9 194.9 116.9 C 194.4 119.5 192.1 120.8 189.8 120.8 C 187 120.8 184.2 118.9 184.2 114.8 C 184.2 110.8 186.8 108.8 189.8 108.8 C 192.6 108.8 195 110.6 195 114.5 C 194.98 114.49 195 115.6 195 115.6 C 195 115.6 186.92 115.63 186.9 115.6 Z M 187 113.6 C 187 113.6 192.3 113.6 192.3 113.6 C 192.3 112.1 191.2 111.2 189.8 111.2 C 188.5 111.2 187.2 111.9 187 113.6 Z M 207.1 120.6 L 204.4 120.6 C 204.4 120.6 204.39 118.94 204.4 118.9 C 203.7 120 202.7 120.7 201.1 120.7 C 198.6 120.7 196.9 119.2 196.9 116.2 C 196.87 116.19 196.9 109 196.9 109 L 199.7 109 C 199.7 109 199.67 115.98 199.7 116 C 199.7 117.6 200.4 118.2 201.6 118.2 C 203.2 118.2 204.3 117.3 204.3 114.6 C 204.33 114.6 204.3 109 204.3 109 L 207.1 109 L 207.1 120.6 Z M 216.4 111.6 C 216.4 111.6 215.67 111.57 215.7 111.6 C 213.7 111.6 212.6 112.6 212.6 114.9 C 212.64 114.91 212.6 120.6 212.6 120.6 L 209.9 120.6 L 209.9 109 L 212.6 109 C 212.6 109 212.62 110.65 212.6 110.6 C 213.2 109.4 214.3 108.9 215.6 108.9 C 215.65 108.86 216.4 108.9 216.4 108.9 L 216.4 111.6 Z M 228.1 114.8 C 228.1 118.6 225.7 120.8 222.5 120.8 C 219.2 120.8 216.8 118.6 216.8 114.8 C 216.8 111 219.2 108.8 222.5 108.8 C 225.7 108.8 228.1 111 228.1 114.8 Z M 219.7 114.8 C 219.7 117.1 221 118.2 222.5 118.2 C 224.2 118.2 225.3 117 225.3 114.8 C 225.3 112.5 224 111.4 222.5 111.4 C 220.8 111.4 219.7 112.6 219.7 114.8 Z " stroke="none" fill="#000"/> </g> <g id="Polygon10825">  <path d="M 16.8 95.4 L 13.9 95.4 L 10.6 84.1 L 7.3 95.4 L 4.4 95.4 L 0.3 79.6 L 3.4 79.6 L 6 90.6 L 9.2 79.6 L 12.1 79.6 L 15.3 90.7 L 17.9 79.6 L 20.9 79.6 L 16.8 95.4 Z M 32.8 87.9 C 32.78 87.91 32.8 95.4 32.8 95.4 L 30 95.4 C 30 95.4 29.99 88.16 30 88.2 C 30 86.9 29.3 86.1 28 86.1 C 26.4 86.1 25.4 87.2 25.4 89.1 C 25.39 89.12 25.4 95.4 25.4 95.4 L 22.6 95.4 L 22.6 79.4 L 25.4 79.4 C 25.4 79.4 25.39 85.43 25.4 85.4 C 26.1 84.3 27 83.6 28.9 83.6 C 31.5 83.6 32.8 85.1 32.8 87.9 Z M 44.7 87.6 C 44.67 87.59 44.7 95.4 44.7 95.4 L 41.9 95.4 C 41.9 95.4 41.94 93.7 41.9 93.7 C 41 95.2 39.6 95.6 38.4 95.6 C 36.6 95.6 34.7 94.5 34.7 92 C 34.7 90.2 35.7 89 38.4 88.6 C 38.4 88.6 40.9 88.2 40.9 88.2 C 41.6 88.1 42 87.9 42 87.2 C 42 86.2 41.2 85.8 40.1 85.8 C 38.6 85.8 37.9 86.5 37.8 87.5 C 37.8 87.5 35.1 87.5 35.1 87.5 C 35.4 84.8 37.6 83.6 40.2 83.6 C 42.9 83.6 44.7 84.9 44.7 87.6 Z M 42 90.5 C 42 90.5 42 89.9 42 89.9 C 41.7 90 41.2 90.2 40.6 90.2 C 40.6 90.2 39.3 90.4 39.3 90.4 C 37.9 90.6 37.5 91.2 37.5 91.9 C 37.5 92.8 38.1 93.3 39.1 93.3 C 40.5 93.3 42 92.2 42 90.5 Z M 53.1 95.4 C 53.1 95.4 51.28 95.38 51.3 95.4 C 49.1 95.4 47.7 94.7 47.7 91.6 C 47.73 91.6 47.7 86.3 47.7 86.3 L 45.6 86.3 L 45.6 83.8 L 47.7 83.8 L 47.7 81.2 L 50.5 80.4 L 50.5 83.8 L 52.8 83.8 L 52.8 86.3 L 50.5 86.3 C 50.5 86.3 50.53 91.73 50.5 91.7 C 50.5 92.4 50.7 92.9 51.7 92.9 C 51.7 92.9 53.1 92.9 53.1 92.9 L 53.1 95.4 Z M 64.6 95.6 C 60.8 95.6 59 92.7 59 89.6 C 59 86.5 60.8 83.6 64.6 83.6 C 67.5 83.6 69.6 85.2 69.7 88 C 69.7 88 67 88 67 88 C 66.8 86.9 66 86.1 64.7 86.1 C 62.6 86.1 61.8 87.8 61.8 89.6 C 61.8 91.5 62.7 93 64.7 93 C 66 93 66.8 92.3 67 91.3 C 67 91.3 69.8 91.3 69.8 91.3 C 69.4 94.1 67.4 95.6 64.6 95.6 Z M 81.9 95.4 L 79.2 95.4 C 79.2 95.4 79.21 93.74 79.2 93.7 C 78.5 94.8 77.5 95.5 75.9 95.5 C 73.5 95.5 71.7 94 71.7 91 C 71.69 90.99 71.7 83.8 71.7 83.8 L 74.5 83.8 C 74.5 83.8 74.49 90.78 74.5 90.8 C 74.5 92.4 75.3 93 76.5 93 C 78 93 79.1 92.1 79.1 89.4 C 79.15 89.4 79.1 83.8 79.1 83.8 L 81.9 83.8 L 81.9 95.4 Z M 91.2 86.4 C 91.2 86.4 90.49 86.37 90.5 86.4 C 88.5 86.4 87.5 87.4 87.5 89.7 C 87.46 89.71 87.5 95.4 87.5 95.4 L 84.7 95.4 L 84.7 83.8 L 87.4 83.8 C 87.4 83.8 87.44 85.45 87.4 85.4 C 88 84.2 89.1 83.7 90.5 83.7 C 90.47 83.66 91.2 83.7 91.2 83.7 L 91.2 86.4 Z M 99.1 86.4 C 99.1 86.4 98.4 86.37 98.4 86.4 C 96.5 86.4 95.4 87.4 95.4 89.7 C 95.38 89.71 95.4 95.4 95.4 95.4 L 92.6 95.4 L 92.6 83.8 L 95.4 83.8 C 95.4 83.8 95.36 85.45 95.4 85.4 C 95.9 84.2 97 83.7 98.4 83.7 C 98.38 83.66 99.1 83.7 99.1 83.7 L 99.1 86.4 Z M 102.3 90.4 C 102.3 92.3 103.7 93.2 105.3 93.2 C 106.3 93.2 107.4 92.8 107.7 91.7 C 107.7 91.7 110.3 91.7 110.3 91.7 C 109.8 94.3 107.5 95.6 105.1 95.6 C 102.3 95.6 99.6 93.7 99.6 89.6 C 99.6 85.6 102.2 83.6 105.1 83.6 C 108 83.6 110.3 85.4 110.3 89.3 C 110.33 89.29 110.3 90.4 110.3 90.4 C 110.3 90.4 102.27 90.43 102.3 90.4 Z M 102.3 88.4 C 102.3 88.4 107.6 88.4 107.6 88.4 C 107.6 86.9 106.5 86 105.1 86 C 103.8 86 102.6 86.7 102.3 88.4 Z M 122.5 87.9 C 122.51 87.91 122.5 95.4 122.5 95.4 L 119.7 95.4 C 119.7 95.4 119.72 88.16 119.7 88.2 C 119.7 86.9 119 86.1 117.7 86.1 C 116.1 86.1 115.1 87.2 115.1 89.1 C 115.12 89.12 115.1 95.4 115.1 95.4 L 112.3 95.4 L 112.3 83.8 L 115.1 83.8 C 115.1 83.8 115.1 85.47 115.1 85.5 C 115.8 84.4 116.7 83.6 118.6 83.6 C 121.3 83.6 122.5 85.1 122.5 87.9 Z M 130 95.6 C 126.2 95.6 124.4 92.7 124.4 89.6 C 124.4 86.5 126.2 83.6 130 83.6 C 132.9 83.6 135 85.2 135.1 88 C 135.1 88 132.4 88 132.4 88 C 132.3 86.9 131.5 86.1 130.1 86.1 C 128.1 86.1 127.2 87.8 127.2 89.6 C 127.2 91.5 128.1 93 130.1 93 C 131.4 93 132.2 92.3 132.4 91.3 C 132.4 91.3 135.2 91.3 135.2 91.3 C 134.8 94.1 132.8 95.6 130 95.6 Z M 147.1 83.8 C 147.1 83.8 142.11 97.12 142.1 97.1 C 141.6 98.5 140.4 99.1 138.8 99.1 C 138.83 99.08 137.1 99.1 137.1 99.1 L 137.1 96.6 C 137.1 96.6 138.35 96.6 138.3 96.6 C 139.3 96.6 139.7 96.3 140 95.5 C 140.01 95.47 140.2 94.9 140.2 94.9 L 135.8 83.8 L 138.8 83.8 L 141.6 91.4 L 144.3 83.8 L 147.1 83.8 Z M 165.1 89.4 C 165.1 93.6 162.5 95.5 159.8 95.5 C 158.3 95.5 157.2 94.8 156.6 94 C 156.55 94 156.6 99.7 156.6 99.7 L 153.8 99.7 L 153.8 83.8 L 156.5 83.8 C 156.5 83.8 156.49 85.64 156.5 85.6 C 157.1 84.4 158.4 83.6 160.1 83.6 C 162.8 83.6 165.1 85.5 165.1 89.4 Z M 162.3 89.6 C 162.3 87.2 160.9 86.1 159.4 86.1 C 157.9 86.1 156.5 87.2 156.5 89.6 C 156.5 91.9 157.9 93 159.4 93 C 160.9 93 162.3 91.9 162.3 89.6 Z M 177.7 89.6 C 177.7 93.4 175.3 95.6 172.1 95.6 C 168.8 95.6 166.4 93.4 166.4 89.6 C 166.4 85.8 168.8 83.6 172.1 83.6 C 175.3 83.6 177.7 85.8 177.7 89.6 Z M 169.3 89.6 C 169.3 91.9 170.5 93 172.1 93 C 173.8 93 174.9 91.8 174.9 89.6 C 174.9 87.3 173.6 86.2 172 86.2 C 170.4 86.2 169.3 87.4 169.3 89.6 Z M 189 91.8 C 189 94.4 186.7 95.6 184.1 95.6 C 181.7 95.6 179.1 94.6 178.9 91.7 C 178.9 91.7 181.7 91.7 181.7 91.7 C 181.9 92.8 182.9 93.3 184.2 93.3 C 185.4 93.3 186.2 92.9 186.2 92.1 C 186.2 91.3 185.7 91.2 184.1 90.9 C 181.8 90.5 179.2 90.1 179.2 87.3 C 179.2 84.7 181.4 83.6 183.8 83.6 C 186.5 83.6 188.5 84.9 188.7 87.5 C 188.7 87.5 186 87.5 186 87.5 C 185.9 86.4 185.1 85.9 183.9 85.9 C 182.5 85.9 181.9 86.5 181.9 87.2 C 181.9 88.1 183 88.3 184.4 88.5 C 186.5 88.8 189 89.1 189 91.8 Z M 190.8 82.3 L 193.7 82.3 L 193.7 79.1 L 190.8 79.1 L 190.8 82.3 Z M 190.8 83.8 L 193.6 83.8 L 193.6 95.4 L 190.8 95.4 L 190.8 83.8 Z M 202.3 95.4 C 202.3 95.4 200.44 95.38 200.4 95.4 C 198.3 95.4 196.9 94.7 196.9 91.6 C 196.89 91.6 196.9 86.3 196.9 86.3 L 194.8 86.3 L 194.8 83.8 L 196.9 83.8 L 196.9 81.2 L 199.7 80.4 L 199.7 83.8 L 202 83.8 L 202 86.3 L 199.7 86.3 C 199.7 86.3 199.69 91.73 199.7 91.7 C 199.7 92.4 199.9 92.9 200.9 92.9 C 200.86 92.9 202.3 92.9 202.3 92.9 L 202.3 95.4 Z M 203.7 82.3 L 206.7 82.3 L 206.7 79.1 L 203.7 79.1 L 203.7 82.3 Z M 203.8 83.8 L 206.6 83.8 L 206.6 95.4 L 203.8 95.4 L 203.8 83.8 Z M 219.9 89.6 C 219.9 93.4 217.5 95.6 214.2 95.6 C 211 95.6 208.6 93.4 208.6 89.6 C 208.6 85.8 211 83.6 214.2 83.6 C 217.5 83.6 219.9 85.8 219.9 89.6 Z M 211.4 89.6 C 211.4 91.9 212.7 93 214.3 93 C 215.9 93 217.1 91.8 217.1 89.6 C 217.1 87.3 215.8 86.2 214.2 86.2 C 212.6 86.2 211.4 87.4 211.4 89.6 Z M 232.1 87.9 C 232.09 87.91 232.1 95.4 232.1 95.4 L 229.3 95.4 C 229.3 95.4 229.3 88.16 229.3 88.2 C 229.3 86.9 228.6 86.1 227.3 86.1 C 225.7 86.1 224.7 87.2 224.7 89.1 C 224.7 89.12 224.7 95.4 224.7 95.4 L 221.9 95.4 L 221.9 83.8 L 224.7 83.8 C 224.7 83.8 224.68 85.47 224.7 85.5 C 225.3 84.4 226.3 83.6 228.2 83.6 C 230.9 83.6 232.1 85.1 232.1 87.9 Z M 234.6 82.3 L 237.6 82.3 L 237.6 79.1 L 234.6 79.1 L 234.6 82.3 Z M 234.7 83.8 L 237.5 83.8 L 237.5 95.4 L 234.7 95.4 L 234.7 83.8 Z M 250.4 87.9 C 250.38 87.91 250.4 95.4 250.4 95.4 L 247.6 95.4 C 247.6 95.4 247.59 88.16 247.6 88.2 C 247.6 86.9 246.9 86.1 245.5 86.1 C 244 86.1 243 87.2 243 89.1 C 242.99 89.12 243 95.4 243 95.4 L 240.2 95.4 L 240.2 83.8 L 243 83.8 C 243 83.8 242.97 85.47 243 85.5 C 243.6 84.4 244.6 83.6 246.5 83.6 C 249.1 83.6 250.4 85.1 250.4 87.9 Z M 263.4 94.6 C 263.4 98.3 261 100 257.9 100 C 255.1 100 252.8 98.6 252.4 95.7 C 252.4 95.7 255.1 95.7 255.1 95.7 C 255.4 97.2 256.6 97.6 257.9 97.6 C 259.7 97.6 260.8 96.7 260.8 94.9 C 260.8 94.9 260.8 93 260.8 93 C 260.2 94.2 259.1 95 257.3 95 C 254.7 95 252.3 93.2 252.3 89.3 C 252.3 85.4 254.7 83.6 257.3 83.6 C 259 83.6 260.2 84.3 260.8 85.4 C 260.75 85.41 260.8 83.8 260.8 83.8 L 263.4 83.8 C 263.4 83.8 263.44 94.6 263.4 94.6 Z M 260.6 89.3 C 260.6 87.1 259.4 86 257.9 86 C 256.4 86 255 87.1 255 89.3 C 255 91.5 256.4 92.5 257.9 92.5 C 259.4 92.5 260.6 91.5 260.6 89.3 Z " stroke="none" fill="#000"/> </g> <g id="Polygon10824">  <path d="M 12 70.2 L 9.3 70.2 C 9.3 70.2 9.28 68.4 9.3 68.4 C 8.7 69.7 7.3 70.4 5.7 70.4 C 3 70.4 0.6 68.4 0.6 64.4 C 0.6 60.4 3 58.4 5.7 58.4 C 7.2 58.4 8.5 59 9.2 60.1 C 9.22 60.12 9.2 54.2 9.2 54.2 L 12 54.2 L 12 70.2 Z M 9.3 64.4 C 9.3 62 7.9 60.9 6.4 60.9 C 4.9 60.9 3.5 62 3.5 64.4 C 3.5 66.7 4.9 67.9 6.4 67.9 C 7.9 67.9 9.3 66.7 9.3 64.4 Z M 25.3 64.4 C 25.3 68.2 22.9 70.4 19.7 70.4 C 16.4 70.4 14 68.2 14 64.4 C 14 60.6 16.4 58.4 19.7 58.4 C 22.9 58.4 25.3 60.6 25.3 64.4 Z M 16.9 64.4 C 16.9 66.7 18.1 67.8 19.7 67.8 C 21.4 67.8 22.5 66.6 22.5 64.4 C 22.5 62.1 21.2 61 19.6 61 C 18 61 16.9 62.2 16.9 64.4 Z M 30.1 70.2 L 27.3 70.2 L 27.3 54.2 L 30.1 54.2 L 30.1 70.2 Z M 35.6 70.2 L 32.8 70.2 L 32.8 54.2 L 35.6 54.2 L 35.6 70.2 Z M 47.6 62.4 C 47.63 62.39 47.6 70.2 47.6 70.2 L 44.9 70.2 C 44.9 70.2 44.9 68.5 44.9 68.5 C 44 70 42.6 70.4 41.4 70.4 C 39.5 70.4 37.6 69.3 37.6 66.8 C 37.6 65 38.7 63.8 41.3 63.4 C 41.3 63.4 43.8 63 43.8 63 C 44.5 62.9 45 62.7 45 62 C 45 61 44.2 60.6 43 60.6 C 41.6 60.6 40.9 61.3 40.8 62.3 C 40.8 62.3 38.1 62.3 38.1 62.3 C 38.4 59.6 40.6 58.4 43.2 58.4 C 45.9 58.4 47.6 59.7 47.6 62.4 Z M 44.9 65.3 C 44.9 65.3 44.9 64.7 44.9 64.7 C 44.6 64.8 44.1 65 43.6 65 C 43.6 65 42.3 65.2 42.3 65.2 C 40.9 65.4 40.4 66 40.4 66.7 C 40.4 67.6 41.1 68.1 42 68.1 C 43.5 68.1 44.9 67 44.9 65.3 Z M 56.7 61.2 C 56.7 61.2 55.96 61.17 56 61.2 C 54 61.2 52.9 62.2 52.9 64.5 C 52.94 64.51 52.9 70.2 52.9 70.2 L 50.1 70.2 L 50.1 58.6 L 52.9 58.6 C 52.9 58.6 52.92 60.25 52.9 60.2 C 53.5 59 54.6 58.5 55.9 58.5 C 55.94 58.46 56.7 58.5 56.7 58.5 L 56.7 61.2 Z M 75.4 70.2 L 72.7 70.2 L 70.3 62.8 L 68 70.2 L 65.3 70.2 L 61.4 58.6 L 64.4 58.6 L 66.7 66.3 L 69 58.6 L 71.7 58.6 L 74.1 66.3 L 76.4 58.6 L 79.2 58.6 L 75.4 70.2 Z M 80.6 57.1 L 83.6 57.1 L 83.6 53.9 L 80.6 53.9 L 80.6 57.1 Z M 80.7 58.6 L 83.5 58.6 L 83.5 70.2 L 80.7 70.2 L 80.7 58.6 Z M 89 70.2 L 86.2 70.2 L 86.2 54.2 L 89 54.2 L 89 70.2 Z M 94.5 70.2 L 91.7 70.2 L 91.7 54.2 L 94.5 54.2 L 94.5 70.2 Z M 115.2 70.2 L 112.5 70.2 L 110.1 62.8 L 107.8 70.2 L 105.1 70.2 L 101.2 58.6 L 104.2 58.6 L 106.5 66.3 L 108.8 58.6 L 111.5 58.6 L 113.9 66.3 L 116.1 58.6 L 119 58.6 L 115.2 70.2 Z M 122.3 65.2 C 122.3 67.1 123.7 68 125.2 68 C 126.3 68 127.4 67.6 127.7 66.5 C 127.7 66.5 130.3 66.5 130.3 66.5 C 129.8 69.1 127.5 70.4 125.1 70.4 C 122.3 70.4 119.6 68.5 119.6 64.4 C 119.6 60.4 122.2 58.4 125.1 58.4 C 128 58.4 130.3 60.2 130.3 64.1 C 130.32 64.09 130.3 65.2 130.3 65.2 C 130.3 65.2 122.26 65.23 122.3 65.2 Z M 122.3 63.2 C 122.3 63.2 127.6 63.2 127.6 63.2 C 127.6 61.7 126.5 60.8 125.1 60.8 C 123.8 60.8 122.6 61.5 122.3 63.2 Z M 141.6 62.4 C 141.58 62.39 141.6 70.2 141.6 70.2 L 138.8 70.2 C 138.8 70.2 138.85 68.5 138.8 68.5 C 137.9 70 136.6 70.4 135.3 70.4 C 133.5 70.4 131.6 69.3 131.6 66.8 C 131.6 65 132.6 63.8 135.3 63.4 C 135.3 63.4 137.8 63 137.8 63 C 138.5 62.9 139 62.7 139 62 C 139 61 138.1 60.6 137 60.6 C 135.5 60.6 134.8 61.3 134.7 62.3 C 134.7 62.3 132 62.3 132 62.3 C 132.3 59.6 134.5 58.4 137.1 58.4 C 139.9 58.4 141.6 59.7 141.6 62.4 Z M 138.9 65.3 C 138.9 65.3 138.9 64.7 138.9 64.7 C 138.6 64.8 138.1 65 137.5 65 C 137.5 65 136.2 65.2 136.2 65.2 C 134.8 65.4 134.4 66 134.4 66.7 C 134.4 67.6 135 68.1 136 68.1 C 137.4 68.1 138.9 67 138.9 65.3 Z M 148.2 65.7 L 146.9 67.1 L 146.9 70.2 L 144.1 70.2 L 144.1 54.2 L 146.9 54.2 L 146.9 63.3 L 151 58.6 L 154.7 58.6 L 150.1 63.6 L 154.9 70.2 L 151.4 70.2 L 148.2 65.7 Z M 157.8 65.2 C 157.8 67.1 159.2 68 160.8 68 C 161.8 68 162.9 67.6 163.2 66.5 C 163.2 66.5 165.8 66.5 165.8 66.5 C 165.3 69.1 163 70.4 160.6 70.4 C 157.8 70.4 155.1 68.5 155.1 64.4 C 155.1 60.4 157.7 58.4 160.6 58.4 C 163.5 58.4 165.8 60.2 165.8 64.1 C 165.83 64.09 165.8 65.2 165.8 65.2 C 165.8 65.2 157.77 65.23 157.8 65.2 Z M 157.8 63.2 C 157.8 63.2 163.1 63.2 163.1 63.2 C 163.1 61.7 162 60.8 160.6 60.8 C 159.3 60.8 158.1 61.5 157.8 63.2 Z M 178 62.7 C 178.01 62.71 178 70.2 178 70.2 L 175.2 70.2 C 175.2 70.2 175.22 62.96 175.2 63 C 175.2 61.7 174.5 60.9 173.2 60.9 C 171.6 60.9 170.6 62 170.6 63.9 C 170.62 63.92 170.6 70.2 170.6 70.2 L 167.8 70.2 L 167.8 58.6 L 170.6 58.6 C 170.6 58.6 170.6 60.27 170.6 60.3 C 171.3 59.2 172.2 58.4 174.1 58.4 C 176.8 58.4 178 59.9 178 62.7 Z M 186.2 57.1 L 189.2 57.1 L 189.2 53.9 L 186.2 53.9 L 186.2 57.1 Z M 186.3 58.6 L 189.1 58.6 L 189.1 70.2 L 186.3 70.2 L 186.3 58.6 Z M 202 62.7 C 201.97 62.71 202 70.2 202 70.2 L 199.2 70.2 C 199.2 70.2 199.18 62.96 199.2 63 C 199.2 61.7 198.4 60.9 197.1 60.9 C 195.5 60.9 194.6 62 194.6 63.9 C 194.58 63.92 194.6 70.2 194.6 70.2 L 191.8 70.2 L 191.8 58.6 L 194.6 58.6 C 194.6 58.6 194.56 60.27 194.6 60.3 C 195.2 59.2 196.2 58.4 198.1 58.4 C 200.7 58.4 202 59.9 202 62.7 Z M 221 70.2 L 209.6 70.2 L 209.6 67.6 C 209.6 67.6 213.42 64.47 213.4 64.5 C 216.3 62.1 217.6 60.9 217.6 59.3 C 217.6 57.9 216.5 57.1 215.1 57.1 C 213.5 57.1 212.3 58 212.2 59.9 C 212.2 59.9 209.4 59.9 209.4 59.9 C 209.4 56.3 212.1 54.4 215.2 54.4 C 218.1 54.4 220.5 56 220.5 59.1 C 220.5 61.8 218.5 63.6 215.8 65.8 C 215.79 65.81 213.6 67.6 213.6 67.6 L 221 67.6 L 221 70.2 Z M 222.3 62.5 C 222.3 57.6 224 54.4 227.8 54.4 C 231.6 54.4 233.3 57.6 233.3 62.4 C 233.3 67.3 231.6 70.4 227.8 70.4 C 224 70.4 222.3 67.3 222.3 62.5 Z M 230.5 62.5 C 230.5 59.4 229.7 56.9 227.7 56.9 C 226 56.9 225.1 58.9 225.1 62.3 C 225.1 65.8 226 68 227.8 68 C 229.7 68 230.5 65.7 230.5 62.5 Z M 246.2 70.2 L 234.8 70.2 L 234.8 67.6 C 234.8 67.6 238.62 64.47 238.6 64.5 C 241.5 62.1 242.8 60.9 242.8 59.3 C 242.8 57.9 241.7 57.1 240.3 57.1 C 238.7 57.1 237.5 58 237.4 59.9 C 237.4 59.9 234.6 59.9 234.6 59.9 C 234.6 56.3 237.3 54.4 240.4 54.4 C 243.3 54.4 245.7 56 245.7 59.1 C 245.7 61.8 243.7 63.6 241 65.8 C 240.99 65.81 238.8 67.6 238.8 67.6 L 246.2 67.6 L 246.2 70.2 Z M 258.3 67.6 L 258.3 70.2 L 248 70.2 L 248 67.6 L 251.7 67.6 C 251.7 67.6 251.74 58.36 251.7 58.4 C 250.5 59.1 249.1 59.5 248 59.6 C 248 59.6 248 56.8 248 56.8 C 249.3 56.6 250.9 56 252.2 54.7 C 252.16 54.7 254.5 54.7 254.5 54.7 L 254.5 67.6 L 258.3 67.6 Z M 259.9 66.9 L 263.1 66.9 L 263.1 70.2 L 259.9 70.2 L 259.9 66.9 Z " stroke="none" fill="#000"/> </g> <g id="Polygon10823">  <path d="M 12.7 39.2 C 12.7 43.3 10.2 45.2 7.5 45.2 C 6.1 45.2 4.8 44.7 4.1 43.6 C 4.09 43.6 4.1 45 4.1 45 L 1.4 45 L 1.4 29 L 4.2 29 C 4.2 29 4.16 35.09 4.2 35.1 C 4.8 33.9 6.1 33.2 7.7 33.2 C 10.4 33.2 12.7 35.2 12.7 39.2 Z M 9.9 39.2 C 9.9 36.9 8.5 35.7 7 35.7 C 5.5 35.7 4.1 36.9 4.1 39.2 C 4.1 41.6 5.5 42.8 7 42.8 C 8.5 42.8 9.9 41.6 9.9 39.2 Z M 16.7 40 C 16.8 41.9 18.1 42.8 19.7 42.8 C 20.8 42.8 21.8 42.4 22.2 41.3 C 22.2 41.3 24.7 41.3 24.7 41.3 C 24.2 43.9 21.9 45.2 19.6 45.2 C 16.8 45.2 14 43.3 14 39.2 C 14 35.2 16.6 33.2 19.6 33.2 C 22.4 33.2 24.8 35 24.8 38.9 C 24.78 38.89 24.8 40 24.8 40 C 24.8 40 16.72 40.03 16.7 40 Z M 16.8 38 C 16.8 38 22 38 22 38 C 22 36.5 21 35.6 19.6 35.6 C 18.3 35.6 17 36.3 16.8 38 Z M 36.5 45.2 C 32.7 45.2 30.9 42.3 30.9 39.2 C 30.9 36.1 32.7 33.2 36.5 33.2 C 39.3 33.2 41.5 34.8 41.6 37.6 C 41.6 37.6 38.9 37.6 38.9 37.6 C 38.7 36.5 37.9 35.7 36.6 35.7 C 34.5 35.7 33.7 37.4 33.7 39.2 C 33.7 41.1 34.6 42.6 36.5 42.6 C 37.9 42.6 38.7 41.9 38.9 40.9 C 38.9 40.9 41.7 40.9 41.7 40.9 C 41.3 43.7 39.3 45.2 36.5 45.2 Z M 54.3 39.2 C 54.3 43 51.8 45.2 48.6 45.2 C 45.4 45.2 42.9 43 42.9 39.2 C 42.9 35.4 45.4 33.2 48.6 33.2 C 51.8 33.2 54.3 35.4 54.3 39.2 Z M 45.8 39.2 C 45.8 41.5 47.1 42.6 48.6 42.6 C 50.3 42.6 51.4 41.4 51.4 39.2 C 51.4 36.9 50.1 35.8 48.6 35.8 C 46.9 35.8 45.8 37 45.8 39.2 Z M 66.4 37.5 C 66.44 37.51 66.4 45 66.4 45 L 63.7 45 C 63.7 45 63.65 37.76 63.7 37.8 C 63.7 36.5 62.9 35.7 61.6 35.7 C 60 35.7 59.1 36.8 59.1 38.7 C 59.05 38.72 59.1 45 59.1 45 L 56.3 45 L 56.3 33.4 L 59 33.4 C 59 33.4 59.03 35.07 59 35.1 C 59.7 34 60.6 33.2 62.6 33.2 C 65.2 33.2 66.4 34.7 66.4 37.5 Z M 78.3 41.4 C 78.3 44 76 45.2 73.4 45.2 C 71 45.2 68.4 44.2 68.2 41.3 C 68.2 41.3 71 41.3 71 41.3 C 71.2 42.4 72.3 42.9 73.6 42.9 C 74.7 42.9 75.6 42.5 75.6 41.7 C 75.6 40.9 75 40.8 73.4 40.5 C 71.2 40.1 68.6 39.7 68.6 36.9 C 68.6 34.3 70.8 33.2 73.2 33.2 C 75.9 33.2 77.9 34.5 78.1 37.1 C 78.1 37.1 75.3 37.1 75.3 37.1 C 75.2 36 74.4 35.5 73.2 35.5 C 71.8 35.5 71.3 36.1 71.3 36.8 C 71.3 37.7 72.3 37.9 73.7 38.1 C 75.8 38.4 78.3 38.7 78.3 41.4 Z M 82.2 40 C 82.3 41.9 83.6 42.8 85.2 42.8 C 86.3 42.8 87.3 42.4 87.7 41.3 C 87.7 41.3 90.2 41.3 90.2 41.3 C 89.7 43.9 87.4 45.2 85 45.2 C 82.3 45.2 79.5 43.3 79.5 39.2 C 79.5 35.2 82.1 33.2 85.1 33.2 C 87.9 33.2 90.3 35 90.3 38.9 C 90.26 38.89 90.3 40 90.3 40 C 90.3 40 82.19 40.03 82.2 40 Z M 82.3 38 C 82.3 38 87.5 38 87.5 38 C 87.5 36.5 86.5 35.6 85 35.6 C 83.7 35.6 82.5 36.3 82.3 38 Z M 102.4 37.5 C 102.44 37.51 102.4 45 102.4 45 L 99.6 45 C 99.6 45 99.64 37.76 99.6 37.8 C 99.6 36.5 98.9 35.7 97.6 35.7 C 96 35.7 95 36.8 95 38.7 C 95.05 38.72 95 45 95 45 L 92.3 45 L 92.3 33.4 L 95 33.4 C 95 33.4 95.02 35.07 95 35.1 C 95.7 34 96.6 33.2 98.6 33.2 C 101.2 33.2 102.4 34.7 102.4 37.5 Z M 114.3 41.4 C 114.3 44 112 45.2 109.4 45.2 C 107 45.2 104.4 44.2 104.2 41.3 C 104.2 41.3 107 41.3 107 41.3 C 107.2 42.4 108.3 42.9 109.6 42.9 C 110.7 42.9 111.6 42.5 111.6 41.7 C 111.6 40.9 111 40.8 109.4 40.5 C 107.2 40.1 104.6 39.7 104.6 36.9 C 104.6 34.3 106.8 33.2 109.2 33.2 C 111.9 33.2 113.9 34.5 114.1 37.1 C 114.1 37.1 111.3 37.1 111.3 37.1 C 111.2 36 110.4 35.5 109.2 35.5 C 107.8 35.5 107.3 36.1 107.3 36.8 C 107.3 37.7 108.3 37.9 109.7 38.1 C 111.8 38.4 114.3 38.7 114.3 41.4 Z M 126.4 45 L 123.6 45 C 123.6 45 123.63 43.34 123.6 43.3 C 123 44.4 121.9 45.1 120.3 45.1 C 117.9 45.1 116.1 43.6 116.1 40.6 C 116.11 40.59 116.1 33.4 116.1 33.4 L 118.9 33.4 C 118.9 33.4 118.9 40.38 118.9 40.4 C 118.9 42 119.7 42.6 120.9 42.6 C 122.4 42.6 123.6 41.7 123.6 39 C 123.56 39 123.6 33.4 123.6 33.4 L 126.4 33.4 L 126.4 45 Z M 138.3 41.4 C 138.3 44 136 45.2 133.4 45.2 C 131 45.2 128.4 44.2 128.2 41.3 C 128.2 41.3 131.1 41.3 131.1 41.3 C 131.2 42.4 132.3 42.9 133.6 42.9 C 134.8 42.9 135.6 42.5 135.6 41.7 C 135.6 40.9 135 40.8 133.5 40.5 C 131.2 40.1 128.6 39.7 128.6 36.9 C 128.6 34.3 130.8 33.2 133.2 33.2 C 135.9 33.2 137.9 34.5 138.1 37.1 C 138.1 37.1 135.3 37.1 135.3 37.1 C 135.2 36 134.4 35.5 133.2 35.5 C 131.9 35.5 131.3 36.1 131.3 36.8 C 131.3 37.7 132.3 37.9 133.7 38.1 C 135.8 38.4 138.3 38.7 138.3 41.4 Z M 151.2 45 C 151.2 45 149.37 44.98 149.4 45 C 147.2 45 145.8 44.3 145.8 41.2 C 145.82 41.2 145.8 35.9 145.8 35.9 L 143.7 35.9 L 143.7 33.4 L 145.8 33.4 L 145.8 30.8 L 148.6 30 L 148.6 33.4 L 150.9 33.4 L 150.9 35.9 L 148.6 35.9 C 148.6 35.9 148.62 41.33 148.6 41.3 C 148.6 42 148.8 42.5 149.8 42.5 C 149.79 42.5 151.2 42.5 151.2 42.5 L 151.2 45 Z M 163 37.5 C 162.96 37.51 163 45 163 45 L 160.2 45 C 160.2 45 160.17 37.76 160.2 37.8 C 160.2 36.5 159.4 35.7 158.1 35.7 C 156.5 35.7 155.6 36.8 155.6 38.7 C 155.57 38.72 155.6 45 155.6 45 L 152.8 45 L 152.8 29 L 155.6 29 C 155.6 29 155.57 35.03 155.6 35 C 156.2 33.9 157.2 33.2 159.1 33.2 C 161.7 33.2 163 34.7 163 37.5 Z M 174.8 37.2 C 174.84 37.19 174.8 45 174.8 45 L 172.1 45 C 172.1 45 172.11 43.3 172.1 43.3 C 171.2 44.8 169.8 45.2 168.6 45.2 C 166.8 45.2 164.8 44.1 164.8 41.6 C 164.8 39.8 165.9 38.6 168.5 38.2 C 168.5 38.2 171 37.8 171 37.8 C 171.7 37.7 172.2 37.5 172.2 36.8 C 172.2 35.8 171.4 35.4 170.3 35.4 C 168.8 35.4 168.1 36.1 168 37.1 C 168 37.1 165.3 37.1 165.3 37.1 C 165.6 34.4 167.8 33.2 170.4 33.2 C 173.1 33.2 174.8 34.5 174.8 37.2 Z M 172.1 40.1 C 172.1 40.1 172.1 39.5 172.1 39.5 C 171.9 39.6 171.3 39.8 170.8 39.8 C 170.8 39.8 169.5 40 169.5 40 C 168.1 40.2 167.6 40.8 167.6 41.5 C 167.6 42.4 168.3 42.9 169.3 42.9 C 170.7 42.9 172.1 41.8 172.1 40.1 Z M 183.3 45 C 183.3 45 181.46 44.98 181.5 45 C 179.3 45 177.9 44.3 177.9 41.2 C 177.91 41.2 177.9 35.9 177.9 35.9 L 175.8 35.9 L 175.8 33.4 L 177.9 33.4 L 177.9 30.8 L 180.7 30 L 180.7 33.4 L 183 33.4 L 183 35.9 L 180.7 35.9 C 180.7 35.9 180.7 41.33 180.7 41.3 C 180.7 42 180.9 42.5 181.9 42.5 C 181.88 42.5 183.3 42.5 183.3 42.5 L 183.3 45 Z M 196 45 C 196 45 194.21 44.98 194.2 45 C 192 45 190.7 44.3 190.7 41.2 C 190.66 41.2 190.7 35.9 190.7 35.9 L 188.5 35.9 L 188.5 33.4 L 190.7 33.4 L 190.7 30.8 L 193.4 30 L 193.4 33.4 L 195.8 33.4 L 195.8 35.9 L 193.4 35.9 C 193.4 35.9 193.45 41.33 193.4 41.3 C 193.4 42 193.6 42.5 194.6 42.5 C 194.63 42.5 196 42.5 196 42.5 L 196 45 Z M 207.8 37.5 C 207.79 37.51 207.8 45 207.8 45 L 205 45 C 205 45 205 37.76 205 37.8 C 205 36.5 204.3 35.7 203 35.7 C 201.4 35.7 200.4 36.8 200.4 38.7 C 200.4 38.72 200.4 45 200.4 45 L 197.6 45 L 197.6 29 L 200.4 29 C 200.4 29 200.4 35.03 200.4 35 C 201.1 33.9 202.1 33.2 203.9 33.2 C 206.6 33.2 207.8 34.7 207.8 37.5 Z M 212.4 40 C 212.5 41.9 213.8 42.8 215.4 42.8 C 216.5 42.8 217.5 42.4 217.9 41.3 C 217.9 41.3 220.4 41.3 220.4 41.3 C 219.9 43.9 217.6 45.2 215.2 45.2 C 212.5 45.2 209.7 43.3 209.7 39.2 C 209.7 35.2 212.3 33.2 215.3 33.2 C 218.1 33.2 220.5 35 220.5 38.9 C 220.46 38.89 220.5 40 220.5 40 C 220.5 40 212.39 40.03 212.4 40 Z M 212.5 38 C 212.5 38 217.7 38 217.7 38 C 217.7 36.5 216.7 35.6 215.2 35.6 C 213.9 35.6 212.7 36.3 212.5 38 Z M 240.2 29.2 C 240.2 29.2 240.2 38.95 240.2 39 C 240.2 43.3 237.7 45.4 233.9 45.4 C 230.1 45.4 227.5 43.3 227.5 39 C 227.49 38.95 227.5 29.2 227.5 29.2 L 230.4 29.2 C 230.4 29.2 230.41 38.81 230.4 38.8 C 230.4 41.3 231.8 42.6 234 42.6 C 236 42.6 237.3 41.5 237.3 39.1 C 237.32 39.08 237.3 29.2 237.3 29.2 L 240.2 29.2 Z M 248.8 45.4 C 245.6 45.4 242.3 43.6 242.3 39.6 C 242.3 39.6 245.2 39.6 245.2 39.6 C 245.3 42 247.1 42.9 248.8 42.9 C 250.3 42.9 251.6 42.1 251.6 40.8 C 251.6 39.2 249.9 38.8 248 38.4 C 245.8 37.9 242.8 37.1 242.8 33.7 C 242.8 30.4 245.5 28.9 248.5 28.9 C 251.5 28.9 254.3 30.4 254.3 33.6 C 254.3 33.6 251.3 33.6 251.3 33.6 C 251.3 32 249.9 31.4 248.4 31.4 C 246.9 31.4 245.7 32.1 245.7 33.5 C 245.7 35 247.1 35.4 248.9 35.8 C 250.9 36.3 254.6 36.9 254.6 40.6 C 254.6 43.7 251.9 45.4 248.8 45.4 Z " stroke="none" fill="#000"/> </g> <g id="Polygon10822">  <path d="M 13.2 6.8 L 8 6.8 L 8 19.8 L 5.1 19.8 L 5.1 6.8 L 0 6.8 L 0 4 L 13.2 4 L 13.2 6.8 Z M 24.7 12.3 C 24.74 12.31 24.7 19.8 24.7 19.8 L 21.9 19.8 C 21.9 19.8 21.94 12.56 21.9 12.6 C 21.9 11.3 21.2 10.5 19.9 10.5 C 18.3 10.5 17.3 11.6 17.3 13.5 C 17.35 13.52 17.3 19.8 17.3 19.8 L 14.6 19.8 L 14.6 3.8 L 17.3 3.8 C 17.3 3.8 17.35 9.83 17.3 9.8 C 18 8.7 19 8 20.9 8 C 23.5 8 24.7 9.5 24.7 12.3 Z M 29.3 14.8 C 29.4 16.7 30.7 17.6 32.3 17.6 C 33.4 17.6 34.5 17.2 34.8 16.1 C 34.8 16.1 37.4 16.1 37.4 16.1 C 36.9 18.7 34.6 20 32.2 20 C 29.4 20 26.6 18.1 26.6 14 C 26.6 10 29.3 8 32.2 8 C 35 8 37.4 9.8 37.4 13.7 C 37.4 13.69 37.4 14.8 37.4 14.8 C 37.4 14.8 29.34 14.83 29.3 14.8 Z M 29.4 12.8 C 29.4 12.8 34.7 12.8 34.7 12.8 C 34.7 11.3 33.6 10.4 32.2 10.4 C 30.9 10.4 29.7 11.1 29.4 12.8 Z M 45.9 10.8 C 45.9 10.8 45.21 10.77 45.2 10.8 C 43.3 10.8 42.2 11.8 42.2 14.1 C 42.19 14.11 42.2 19.8 42.2 19.8 L 39.4 19.8 L 39.4 8.2 L 42.2 8.2 C 42.2 8.2 42.17 9.85 42.2 9.8 C 42.8 8.6 43.8 8.1 45.2 8.1 C 45.19 8.06 45.9 8.1 45.9 8.1 L 45.9 10.8 Z M 49.1 14.8 C 49.1 16.7 50.5 17.6 52.1 17.6 C 53.2 17.6 54.2 17.2 54.5 16.1 C 54.5 16.1 57.1 16.1 57.1 16.1 C 56.6 18.7 54.3 20 51.9 20 C 49.1 20 46.4 18.1 46.4 14 C 46.4 10 49 8 52 8 C 54.8 8 57.1 9.8 57.1 13.7 C 57.14 13.69 57.1 14.8 57.1 14.8 C 57.1 14.8 49.08 14.83 49.1 14.8 Z M 49.1 12.8 C 49.1 12.8 54.4 12.8 54.4 12.8 C 54.4 11.3 53.3 10.4 51.9 10.4 C 50.6 10.4 49.4 11.1 49.1 12.8 Z M 73.2 16.2 C 73.2 18.8 70.9 20 68.3 20 C 65.9 20 63.3 19 63.1 16.1 C 63.1 16.1 65.9 16.1 65.9 16.1 C 66.1 17.2 67.2 17.7 68.5 17.7 C 69.6 17.7 70.5 17.3 70.5 16.5 C 70.5 15.7 69.9 15.6 68.3 15.3 C 66.1 14.9 63.5 14.5 63.5 11.7 C 63.5 9.1 65.7 8 68.1 8 C 70.8 8 72.8 9.3 73 11.9 C 73 11.9 70.2 11.9 70.2 11.9 C 70.1 10.8 69.3 10.3 68.1 10.3 C 66.7 10.3 66.2 10.9 66.2 11.6 C 66.2 12.5 67.2 12.7 68.6 12.9 C 70.7 13.2 73.2 13.5 73.2 16.2 Z M 77.1 14.8 C 77.2 16.7 78.5 17.6 80.1 17.6 C 81.2 17.6 82.2 17.2 82.6 16.1 C 82.6 16.1 85.1 16.1 85.1 16.1 C 84.6 18.7 82.3 20 79.9 20 C 77.2 20 74.4 18.1 74.4 14 C 74.4 10 77 8 80 8 C 82.8 8 85.2 9.8 85.2 13.7 C 85.15 13.69 85.2 14.8 85.2 14.8 C 85.2 14.8 77.09 14.83 77.1 14.8 Z M 77.2 12.8 C 77.2 12.8 82.4 12.8 82.4 12.8 C 82.4 11.3 81.4 10.4 79.9 10.4 C 78.6 10.4 77.4 11.1 77.2 12.8 Z M 89.1 14.8 C 89.2 16.7 90.5 17.6 92.1 17.6 C 93.2 17.6 94.2 17.2 94.6 16.1 C 94.6 16.1 97.1 16.1 97.1 16.1 C 96.6 18.7 94.4 20 92 20 C 89.2 20 86.4 18.1 86.4 14 C 86.4 10 89 8 92 8 C 94.8 8 97.2 9.8 97.2 13.7 C 97.19 13.69 97.2 14.8 97.2 14.8 C 97.2 14.8 89.12 14.83 89.1 14.8 Z M 89.2 12.8 C 89.2 12.8 94.5 12.8 94.5 12.8 C 94.5 11.3 93.4 10.4 92 10.4 C 90.7 10.4 89.4 11.1 89.2 12.8 Z M 115.5 12 C 115.54 11.97 115.5 19.8 115.5 19.8 L 112.7 19.8 C 112.7 19.8 112.75 12.52 112.7 12.5 C 112.7 11.1 112.1 10.5 110.9 10.5 C 109.6 10.5 108.8 11.3 108.8 13.3 C 108.76 13.27 108.8 19.8 108.8 19.8 L 106 19.8 C 106 19.8 105.97 12.52 106 12.5 C 106 11.1 105.3 10.5 104.1 10.5 C 102.8 10.5 102 11.3 102 13.3 C 101.98 13.25 102 19.8 102 19.8 L 99.2 19.8 L 99.2 8.2 L 101.9 8.2 C 101.9 8.2 101.93 9.89 101.9 9.9 C 102.3 9 103.2 8 104.9 8 C 106.4 8 107.6 8.7 108.1 9.9 C 108.6 9.1 109.4 8 111.5 8 C 114 8 115.5 9.5 115.5 12 Z M 127.4 16.2 C 127.4 18.8 125.1 20 122.5 20 C 120.1 20 117.5 19 117.3 16.1 C 117.3 16.1 120.1 16.1 120.1 16.1 C 120.3 17.2 121.4 17.7 122.7 17.7 C 123.8 17.7 124.7 17.3 124.7 16.5 C 124.7 15.7 124.1 15.6 122.5 15.3 C 120.3 14.9 117.7 14.5 117.7 11.7 C 117.7 9.1 119.9 8 122.3 8 C 125 8 127 9.3 127.2 11.9 C 127.2 11.9 124.4 11.9 124.4 11.9 C 124.3 10.8 123.5 10.3 122.3 10.3 C 120.9 10.3 120.4 10.9 120.4 11.6 C 120.4 12.5 121.4 12.7 122.8 12.9 C 124.9 13.2 127.4 13.5 127.4 16.2 Z M 140.3 19.8 C 140.3 19.8 138.45 19.78 138.5 19.8 C 136.3 19.8 134.9 19.1 134.9 16 C 134.9 16 134.9 10.7 134.9 10.7 L 132.8 10.7 L 132.8 8.2 L 134.9 8.2 L 134.9 5.6 L 137.7 4.8 L 137.7 8.2 L 140 8.2 L 140 10.7 L 137.7 10.7 C 137.7 10.7 137.7 16.13 137.7 16.1 C 137.7 16.8 137.9 17.3 138.9 17.3 C 138.87 17.3 140.3 17.3 140.3 17.3 L 140.3 19.8 Z M 152.4 14 C 152.4 17.8 150 20 146.8 20 C 143.5 20 141.1 17.8 141.1 14 C 141.1 10.2 143.5 8 146.8 8 C 150 8 152.4 10.2 152.4 14 Z M 144 14 C 144 16.3 145.3 17.4 146.8 17.4 C 148.5 17.4 149.6 16.2 149.6 14 C 149.6 11.7 148.3 10.6 146.7 10.6 C 145.1 10.6 144 11.8 144 14 Z " stroke="none" fill="#000"/> </g></svg>