<?xml version="1.0" standalone="no"?><!DOCTYPE svg PUBLIC "-//W3C//DTD SVG 1.1//EN" "http://www.w3.org/Graphics/SVG/1.1/DTD/svg11.dtd"><svg xmlns="http://www.w3.org/2000/svg" version="1.1" width="65.2px" height="53.7px" viewBox="0 -1 65.2 53.7" style="top:-1px">  <desc>4 8</desc>  <defs/>  <g id="Polygon13033">    <path d="M 37.5 27.7 L 37.5 32 L 33.5 32 L 33.5 27.7 L 23.4 27.7 L 23.4 24.5 L 33.1 9.9 L 37.5 9.9 L 37.5 24 L 40.4 24 L 40.4 27.7 L 37.5 27.7 Z M 33.5 24 L 33.5 15.3 L 27.7 24 L 33.5 24 Z M 41.8 27.4 L 46.3 27.4 L 46.3 32 L 41.8 32 L 41.8 27.4 Z M 64.2 25.8 C 64.2 29.8 60.9 32.4 56.2 32.4 C 51.6 32.4 48.2 29.9 48.2 25.8 C 48.2 22.8 50.1 21 52.2 20.5 C 50.5 20 48.8 18.3 48.8 15.5 C 48.8 11.6 52.2 9.5 56.1 9.5 C 60.1 9.5 63.6 11.7 63.6 15.5 C 63.6 18.4 61.7 20.1 60.2 20.5 C 62.3 21.1 64.2 22.8 64.2 25.8 Z M 52.9 15.7 C 52.9 17.4 54.2 18.6 56.2 18.6 C 58.2 18.6 59.5 17.4 59.5 15.7 C 59.5 14.3 58.5 13 56.1 13 C 53.8 13 52.9 14.3 52.9 15.7 Z M 59.9 25.8 C 59.9 23.9 58.5 22.4 56.1 22.4 C 53.8 22.4 52.5 23.9 52.5 25.8 C 52.5 27.6 53.8 28.9 56.2 28.9 C 58.6 28.9 59.9 27.6 59.9 25.8 Z " stroke="none" fill="#000"/>  </g></svg>