<?xml version="1.0" standalone="no"?><!DOCTYPE svg PUBLIC "-//W3C//DTD SVG 1.1//EN" "http://www.w3.org/Graphics/SVG/1.1/DTD/svg11.dtd"><svg xmlns="http://www.w3.org/2000/svg" version="1.1" width="271px" height="204.2px" viewBox="0 -4 271 204.2" style="top:-4px">  <desc>Maxime Ricomes, CFA, CAIA Senior Multi-Asset Multi-Management Analyst, Aviva Investors France</desc>  <defs/>  <g id="Polygon11550">    <path d="M 4 166.6 L 2.2 166.6 L 2.2 148.6 L 13.4 148.6 L 13.4 150.2 L 4 150.2 L 4 156.7 L 12.9 156.7 L 12.9 158.3 L 4 158.3 L 4 166.6 Z M 22.2 155.2 C 22.2 155.2 21.74 155.23 21.7 155.2 C 19 155.2 17.5 156.8 17.5 159.8 C 17.47 159.77 17.5 166.6 17.5 166.6 L 15.7 166.6 L 15.7 153.7 L 17.4 153.7 C 17.4 153.7 17.45 156.1 17.4 156.1 C 18 154.4 19.6 153.6 21.6 153.6 C 21.6 153.58 22.2 153.6 22.2 153.6 L 22.2 155.2 Z M 32.4 164.3 C 31.3 166.2 29.4 166.9 27.8 166.9 C 25.6 166.9 23.6 165.6 23.6 163 C 23.6 160.7 25.3 159.6 27.5 159.3 C 27.5 159.3 30.6 158.9 30.6 158.9 C 31.5 158.7 32.4 158.4 32.4 157.3 C 32.4 155.8 31 154.9 29.2 154.9 C 27.3 154.9 26.1 155.9 25.8 157.3 C 25.8 157.3 24.1 157.3 24.1 157.3 C 24.5 154.8 26.5 153.5 29.4 153.5 C 32.3 153.5 34.1 154.8 34.1 157.7 C 34.06 157.7 34.1 166.6 34.1 166.6 L 32.4 166.6 C 32.4 166.6 32.35 164.26 32.4 164.3 Z M 30.2 160.3 C 30.2 160.3 28.2 160.6 28.2 160.6 C 26.6 160.8 25.4 161.4 25.4 163 C 25.4 164.6 26.6 165.3 28.1 165.3 C 30.1 165.3 32.3 163.8 32.3 161 C 32.3 161 32.3 159.8 32.3 159.8 C 31.8 160.1 31.1 160.2 30.2 160.3 Z M 48.1 157.8 C 48.12 157.78 48.1 166.6 48.1 166.6 L 46.4 166.6 C 46.4 166.6 46.37 157.99 46.4 158 C 46.4 156.2 45.4 155.1 43.5 155.1 C 41.3 155.1 39.4 156.7 39.4 159.8 C 39.41 159.84 39.4 166.6 39.4 166.6 L 37.7 166.6 L 37.7 153.7 L 39.4 153.7 C 39.4 153.7 39.41 156.12 39.4 156.1 C 40.2 154.6 41.6 153.5 43.9 153.5 C 46.4 153.5 48.1 154.9 48.1 157.8 Z M 57 166.9 C 53.4 166.9 51 164.2 51 160.2 C 51 156.2 53.4 153.5 57.1 153.5 C 60 153.5 62.3 155 62.4 158 C 62.4 158 60.7 158 60.7 158 C 60.6 156.1 59 155 57.1 155 C 54.6 155 52.8 157 52.8 160.2 C 52.8 163.3 54.6 165.3 57.1 165.3 C 59 165.3 60.6 164.1 60.7 162.1 C 60.7 162.1 62.4 162.1 62.4 162.1 C 62.3 165.2 59.8 166.9 57 166.9 Z M 66.3 160.6 C 66.4 163.8 68.4 165.3 70.6 165.3 C 72.3 165.3 74 164.4 74.4 162.6 C 74.4 162.6 76.1 162.6 76.1 162.6 C 75.5 165.6 73 166.9 70.5 166.9 C 67.5 166.9 64.6 164.8 64.6 160.2 C 64.6 155.6 67.5 153.5 70.6 153.5 C 73.7 153.5 76.2 155.4 76.2 159.7 C 76.15 159.72 76.2 160.6 76.2 160.6 C 76.2 160.6 66.33 160.58 66.3 160.6 Z M 66.4 159.1 C 66.4 159.1 74.4 159.1 74.4 159.1 C 74.4 156.5 72.7 155 70.5 155 C 68.5 155 66.6 156.3 66.4 159.1 Z " stroke="none" fill="#000"/>  </g>  <g id="Polygon11549">    <path d="M 13.4 132.7 L 4.8 132.7 L 2.8 137.8 L 0.8 137.8 L 8.1 119.8 L 10 119.8 L 17.5 137.8 L 15.4 137.8 L 13.4 132.7 Z M 9 121.9 L 5.4 131.1 L 12.7 131.1 L 9 121.9 Z M 30.7 129 C 30.7 128.98 30.7 137.8 30.7 137.8 L 28.9 137.8 C 28.9 137.8 28.94 129.19 28.9 129.2 C 28.9 127.4 27.9 126.3 26.1 126.3 C 23.9 126.3 22 127.9 22 131 C 21.98 131.04 22 137.8 22 137.8 L 20.2 137.8 L 20.2 124.9 L 22 124.9 C 22 124.9 21.98 127.32 22 127.3 C 22.8 125.8 24.2 124.7 26.4 124.7 C 29 124.7 30.7 126.1 30.7 129 Z M 42.3 135.5 C 41.3 137.4 39.4 138.1 37.8 138.1 C 35.5 138.1 33.6 136.8 33.6 134.2 C 33.6 131.9 35.3 130.8 37.5 130.5 C 37.5 130.5 40.5 130.1 40.5 130.1 C 41.5 129.9 42.3 129.6 42.3 128.5 C 42.3 127 41 126.1 39.2 126.1 C 37.3 126.1 36.1 127.1 35.8 128.5 C 35.8 128.5 34.1 128.5 34.1 128.5 C 34.4 126 36.5 124.7 39.3 124.7 C 42.3 124.7 44 126 44 128.9 C 44.04 128.9 44 137.8 44 137.8 L 42.3 137.8 C 42.3 137.8 42.34 135.46 42.3 135.5 Z M 40.2 131.5 C 40.2 131.5 38.2 131.8 38.2 131.8 C 36.6 132 35.4 132.6 35.4 134.2 C 35.4 135.8 36.6 136.5 38 136.5 C 40.1 136.5 42.3 135 42.3 132.2 C 42.3 132.2 42.3 131 42.3 131 C 41.8 131.3 41.1 131.4 40.2 131.5 Z M 49.4 137.8 L 47.6 137.8 L 47.6 119.5 L 49.4 119.5 L 49.4 137.8 Z M 57 140.3 C 56.5 141.6 55.4 142 54 142 C 54.05 142.03 52.7 142 52.7 142 L 52.7 140.5 C 52.7 140.5 53.81 140.47 53.8 140.5 C 54.9 140.5 55.5 140.1 55.9 139 C 55.87 138.96 56.5 137.3 56.5 137.3 L 51.7 124.9 L 53.5 124.9 L 57.3 135.1 L 61.1 124.9 L 62.9 124.9 C 62.9 124.9 57.02 140.26 57 140.3 Z M 74.5 134.2 C 74.5 136.8 72.1 138.1 69.5 138.1 C 66.7 138.1 64.2 136.7 63.9 133.8 C 63.9 133.8 65.8 133.8 65.8 133.8 C 66.1 135.7 67.8 136.5 69.5 136.5 C 71.2 136.5 72.6 135.8 72.6 134.4 C 72.6 132.9 71.2 132.6 69.6 132.3 C 67.2 131.9 64.2 131.5 64.2 128.5 C 64.2 125.9 66.5 124.7 69.1 124.7 C 71.8 124.7 74 126 74.1 128.5 C 74.1 128.5 72.3 128.5 72.3 128.5 C 72.2 127 70.7 126.2 69 126.2 C 67.3 126.2 66.1 127 66.1 128.4 C 66.1 130 67.6 130.3 69.6 130.6 C 71.9 131 74.5 131.4 74.5 134.2 Z M 83.2 137.8 C 83.2 137.8 81.33 137.81 81.3 137.8 C 79.6 137.8 78.1 137.3 78.1 134.4 C 78.09 134.42 78.1 126.5 78.1 126.5 L 75.6 126.5 L 75.6 124.9 L 78.1 124.9 L 78.1 121.3 L 79.8 120.8 L 79.8 124.9 L 83 124.9 L 83 126.5 L 79.8 126.5 C 79.8 126.5 79.85 134.4 79.8 134.4 C 79.8 135.6 80.2 136.2 81.6 136.2 C 81.62 136.22 83.2 136.2 83.2 136.2 L 83.2 137.8 Z M 87 137.7 C 87 137.66 85.8 137.7 85.8 137.7 L 85.8 135.3 L 88.4 135.3 C 88.4 135.3 88.39 137.74 88.4 137.7 C 88.4 140.6 86.7 141.6 84.9 141.8 C 84.9 141.8 84.7 140.7 84.7 140.7 C 86.6 140.3 87 139.2 87 137.7 Z M 108.1 132.7 L 99.6 132.7 L 97.6 137.8 L 95.6 137.8 L 102.8 119.8 L 104.8 119.8 L 112.2 137.8 L 110.2 137.8 L 108.1 132.7 Z M 103.8 121.9 L 100.2 131.1 L 107.5 131.1 L 103.8 121.9 Z M 119.4 137.8 L 117.5 137.8 L 112.7 124.9 L 114.6 124.9 L 118.5 136 L 122.4 124.9 L 124.2 124.9 L 119.4 137.8 Z M 128.3 119.5 L 126.3 119.5 L 126.3 121.7 L 128.3 121.7 L 128.3 119.5 Z M 128.2 137.8 L 126.5 137.8 L 126.5 124.9 L 128.2 124.9 L 128.2 137.8 Z M 137.2 137.8 L 135.3 137.8 L 130.5 124.9 L 132.4 124.9 L 136.2 136 L 140.1 124.9 L 142 124.9 L 137.2 137.8 Z M 151.9 135.5 C 150.9 137.4 149 138.1 147.3 138.1 C 145.1 138.1 143.2 136.8 143.2 134.2 C 143.2 131.9 144.9 130.8 147.1 130.5 C 147.1 130.5 150.1 130.1 150.1 130.1 C 151.1 129.9 151.9 129.6 151.9 128.5 C 151.9 127 150.6 126.1 148.8 126.1 C 146.9 126.1 145.7 127.1 145.4 128.5 C 145.4 128.5 143.7 128.5 143.7 128.5 C 144 126 146.1 124.7 148.9 124.7 C 151.8 124.7 153.6 126 153.6 128.9 C 153.62 128.9 153.6 137.8 153.6 137.8 L 151.9 137.8 C 151.9 137.8 151.92 135.46 151.9 135.5 Z M 149.8 131.5 C 149.8 131.5 147.8 131.8 147.8 131.8 C 146.2 132 145 132.6 145 134.2 C 145 135.8 146.2 136.5 147.6 136.5 C 149.6 136.5 151.9 135 151.9 132.2 C 151.9 132.2 151.9 131 151.9 131 C 151.4 131.3 150.6 131.4 149.8 131.5 Z M 165.4 137.8 L 163.6 137.8 L 163.6 119.8 L 165.4 119.8 L 165.4 137.8 Z M 180.1 129 C 180.07 128.98 180.1 137.8 180.1 137.8 L 178.3 137.8 C 178.3 137.8 178.32 129.19 178.3 129.2 C 178.3 127.4 177.3 126.3 175.5 126.3 C 173.3 126.3 171.4 127.9 171.4 131 C 171.36 131.04 171.4 137.8 171.4 137.8 L 169.6 137.8 L 169.6 124.9 L 171.4 124.9 C 171.4 124.9 171.36 127.32 171.4 127.3 C 172.1 125.8 173.6 124.7 175.8 124.7 C 178.4 124.7 180.1 126.1 180.1 129 Z M 188.9 137.8 L 187 137.8 L 182.2 124.9 L 184.1 124.9 L 188 136 L 191.9 124.9 L 193.7 124.9 L 188.9 137.8 Z M 196.6 131.8 C 196.7 135 198.6 136.5 200.9 136.5 C 202.6 136.5 204.3 135.6 204.7 133.8 C 204.7 133.8 206.3 133.8 206.3 133.8 C 205.8 136.8 203.3 138.1 200.8 138.1 C 197.8 138.1 194.9 136 194.9 131.4 C 194.9 126.8 197.8 124.7 200.9 124.7 C 203.9 124.7 206.4 126.6 206.4 130.9 C 206.45 130.92 206.4 131.8 206.4 131.8 C 206.4 131.8 196.63 131.78 196.6 131.8 Z M 196.7 130.3 C 196.7 130.3 204.7 130.3 204.7 130.3 C 204.7 127.7 203 126.2 200.8 126.2 C 198.8 126.2 196.9 127.5 196.7 130.3 Z M 219 134.2 C 219 136.8 216.6 138.1 214.1 138.1 C 211.3 138.1 208.7 136.7 208.5 133.8 C 208.5 133.8 210.4 133.8 210.4 133.8 C 210.6 135.7 212.3 136.5 214.1 136.5 C 215.7 136.5 217.2 135.8 217.2 134.4 C 217.2 132.9 215.7 132.6 214.2 132.3 C 211.7 131.9 208.8 131.5 208.8 128.5 C 208.8 125.9 211 124.7 213.6 124.7 C 216.4 124.7 218.5 126 218.7 128.5 C 218.7 128.5 216.9 128.5 216.9 128.5 C 216.7 127 215.3 126.2 213.6 126.2 C 211.8 126.2 210.6 127 210.6 128.4 C 210.6 130 212.2 130.3 214.1 130.6 C 216.5 131 219 131.4 219 134.2 Z M 227.8 137.8 C 227.8 137.8 225.89 137.81 225.9 137.8 C 224.2 137.8 222.6 137.3 222.6 134.4 C 222.65 134.42 222.6 126.5 222.6 126.5 L 220.1 126.5 L 220.1 124.9 L 222.6 124.9 L 222.6 121.3 L 224.4 120.8 L 224.4 124.9 L 227.5 124.9 L 227.5 126.5 L 224.4 126.5 C 224.4 126.5 224.4 134.4 224.4 134.4 C 224.4 135.6 224.7 136.2 226.2 136.2 C 226.17 136.22 227.8 136.2 227.8 136.2 L 227.8 137.8 Z M 229.5 131.4 C 229.5 127.2 232 124.7 235.6 124.7 C 239.1 124.7 241.7 127.2 241.7 131.4 C 241.7 135.6 239.1 138.1 235.6 138.1 C 232 138.1 229.5 135.6 229.5 131.4 Z M 239.9 131.3 C 239.9 128.1 237.9 126.3 235.5 126.3 C 233 126.3 231.3 128.3 231.3 131.4 C 231.3 134.6 233.2 136.4 235.6 136.4 C 238.1 136.4 239.9 134.5 239.9 131.3 Z M 251.1 126.4 C 251.1 126.4 250.7 126.43 250.7 126.4 C 248 126.4 246.4 128 246.4 131 C 246.43 130.97 246.4 137.8 246.4 137.8 L 244.7 137.8 L 244.7 124.9 L 246.4 124.9 C 246.4 124.9 246.4 127.3 246.4 127.3 C 247 125.6 248.6 124.8 250.6 124.8 C 250.56 124.78 251.1 124.8 251.1 124.8 L 251.1 126.4 Z M 263 134.2 C 263 136.8 260.6 138.1 258 138.1 C 255.2 138.1 252.7 136.7 252.4 133.8 C 252.4 133.8 254.3 133.8 254.3 133.8 C 254.6 135.7 256.3 136.5 258 136.5 C 259.7 136.5 261.1 135.8 261.1 134.4 C 261.1 132.9 259.7 132.6 258.1 132.3 C 255.7 131.9 252.7 131.5 252.7 128.5 C 252.7 125.9 254.9 124.7 257.6 124.7 C 260.3 124.7 262.5 126 262.6 128.5 C 262.6 128.5 260.8 128.5 260.8 128.5 C 260.7 127 259.2 126.2 257.5 126.2 C 255.8 126.2 254.6 127 254.6 128.4 C 254.6 130 256.1 130.3 258.1 130.6 C 260.4 131 263 131.4 263 134.2 Z " stroke="none" fill="#000"/>  </g>  <g id="Polygon11548">    <path d="M 19.2 109 L 17.4 109 L 17.4 93.4 L 11.4 109 L 9.9 109 L 3.9 93.4 L 3.9 109 L 2.2 109 L 2.2 91 L 4.9 91 L 10.7 106.2 L 16.5 91 L 19.2 91 L 19.2 109 Z M 31.8 109 C 31.8 109 31.75 106.56 31.8 106.6 C 30.9 108.3 29.3 109.2 27.5 109.2 C 25 109.2 23.2 107.6 23.2 104.6 C 23.16 104.64 23.2 96.1 23.2 96.1 L 24.9 96.1 C 24.9 96.1 24.91 104.42 24.9 104.4 C 24.9 106.5 26.1 107.6 27.8 107.6 C 29.8 107.6 31.7 106.1 31.7 102.8 C 31.68 102.79 31.7 96.1 31.7 96.1 L 33.4 96.1 L 33.4 109 L 31.8 109 Z M 39 109 L 37.3 109 L 37.3 90.7 L 39 90.7 L 39 109 Z M 48.7 109 C 48.7 109 46.85 109.01 46.8 109 C 45.1 109 43.6 108.5 43.6 105.6 C 43.61 105.62 43.6 97.7 43.6 97.7 L 41.1 97.7 L 41.1 96.1 L 43.6 96.1 L 43.6 92.5 L 45.4 92 L 45.4 96.1 L 48.5 96.1 L 48.5 97.7 L 45.4 97.7 C 45.4 97.7 45.36 105.6 45.4 105.6 C 45.4 106.8 45.7 107.4 47.1 107.4 C 47.14 107.42 48.7 107.4 48.7 107.4 L 48.7 109 Z M 53.1 90.7 L 51.1 90.7 L 51.1 92.9 L 53.1 92.9 L 53.1 90.7 Z M 53 109 L 51.3 109 L 51.3 96.1 L 53 96.1 L 53 109 Z M 56.1 102.1 L 56.1 100.5 L 63.5 100.5 L 63.5 102.1 L 56.1 102.1 Z M 83.9 109 L 82.1 109 L 82.1 93.4 L 76.1 109 L 74.6 109 L 68.6 93.4 L 68.6 109 L 66.9 109 L 66.9 91 L 69.6 91 L 75.4 106.2 L 81.2 91 L 83.9 91 L 83.9 109 Z M 95.9 106.7 C 94.9 108.6 93 109.3 91.3 109.3 C 89.1 109.3 87.2 108 87.2 105.4 C 87.2 103.1 88.9 102 91.1 101.7 C 91.1 101.7 94.1 101.3 94.1 101.3 C 95.1 101.1 95.9 100.8 95.9 99.7 C 95.9 98.2 94.6 97.3 92.8 97.3 C 90.9 97.3 89.7 98.3 89.4 99.7 C 89.4 99.7 87.7 99.7 87.7 99.7 C 88 97.2 90.1 95.9 92.9 95.9 C 95.9 95.9 97.6 97.2 97.6 100.1 C 97.63 100.1 97.6 109 97.6 109 L 95.9 109 C 95.9 109 95.93 106.66 95.9 106.7 Z M 93.8 102.7 C 93.8 102.7 91.8 103 91.8 103 C 90.2 103.2 89 103.8 89 105.4 C 89 107 90.2 107.7 91.6 107.7 C 93.6 107.7 95.9 106.2 95.9 103.4 C 95.9 103.4 95.9 102.2 95.9 102.2 C 95.4 102.5 94.7 102.6 93.8 102.7 Z M 111.7 100.2 C 111.69 100.18 111.7 109 111.7 109 L 109.9 109 C 109.9 109 109.94 100.39 109.9 100.4 C 109.9 98.6 108.9 97.5 107.1 97.5 C 104.9 97.5 103 99.1 103 102.2 C 102.98 102.24 103 109 103 109 L 101.2 109 L 101.2 96.1 L 103 96.1 C 103 96.1 102.98 98.52 103 98.5 C 103.8 97 105.2 95.9 107.4 95.9 C 110 95.9 111.7 97.3 111.7 100.2 Z M 123.3 106.7 C 122.3 108.6 120.4 109.3 118.8 109.3 C 116.5 109.3 114.6 108 114.6 105.4 C 114.6 103.1 116.3 102 118.5 101.7 C 118.5 101.7 121.5 101.3 121.5 101.3 C 122.5 101.1 123.3 100.8 123.3 99.7 C 123.3 98.2 122 97.3 120.2 97.3 C 118.3 97.3 117.1 98.3 116.8 99.7 C 116.8 99.7 115.1 99.7 115.1 99.7 C 115.4 97.2 117.5 95.9 120.3 95.9 C 123.3 95.9 125 97.2 125 100.1 C 125.04 100.1 125 109 125 109 L 123.3 109 C 123.3 109 123.33 106.66 123.3 106.7 Z M 121.2 102.7 C 121.2 102.7 119.2 103 119.2 103 C 117.6 103.2 116.4 103.8 116.4 105.4 C 116.4 107 117.6 107.7 119 107.7 C 121.1 107.7 123.3 106.2 123.3 103.4 C 123.3 103.4 123.3 102.2 123.3 102.2 C 122.8 102.5 122.1 102.6 121.2 102.7 Z M 139.7 108.4 C 139.7 112.3 137.2 114.2 133.9 114.2 C 131 114.2 128.5 112.8 128.1 109.8 C 128.1 109.8 129.9 109.8 129.9 109.8 C 130.1 111.4 131.3 112.8 133.9 112.8 C 136.3 112.8 138 111.6 138 108.5 C 138 108.5 138 106 138 106 C 137.1 107.9 135.2 108.5 133.5 108.5 C 130.3 108.5 127.8 106.4 127.8 102.2 C 127.8 98 130.5 95.9 133.6 95.9 C 135.6 95.9 137.2 96.8 138 98.2 C 138 98.21 138 96.1 138 96.1 L 139.7 96.1 C 139.7 96.1 139.73 108.43 139.7 108.4 Z M 137.9 102.2 C 137.9 98.9 136 97.4 133.8 97.4 C 131.6 97.4 129.5 99 129.5 102.2 C 129.5 105.4 131.5 106.9 133.8 106.9 C 135.8 106.9 137.9 105.6 137.9 102.2 Z M 144.3 103 C 144.4 106.2 146.3 107.7 148.6 107.7 C 150.3 107.7 152 106.8 152.4 105 C 152.4 105 154.1 105 154.1 105 C 153.5 108 151 109.3 148.5 109.3 C 145.5 109.3 142.6 107.2 142.6 102.6 C 142.6 98 145.5 95.9 148.6 95.9 C 151.7 95.9 154.1 97.8 154.1 102.1 C 154.15 102.12 154.1 103 154.1 103 C 154.1 103 144.33 102.98 144.3 103 Z M 144.4 101.5 C 144.4 101.5 152.4 101.5 152.4 101.5 C 152.4 98.9 150.7 97.4 148.5 97.4 C 146.5 97.4 144.6 98.7 144.4 101.5 Z M 157.1 96.1 L 158.9 96.1 C 158.9 96.1 158.88 98.26 158.9 98.3 C 159.6 96.6 161 95.9 162.6 95.9 C 164.5 95.9 166 96.9 166.4 98.6 C 167 97.1 168.4 95.9 170.7 95.9 C 173 95.9 174.8 97.2 174.8 99.8 C 174.84 99.77 174.8 109 174.8 109 L 173.1 109 C 173.1 109 173.09 100.39 173.1 100.4 C 173.1 98.4 171.9 97.4 170.3 97.4 C 168.4 97.4 166.8 98.9 166.8 101.6 C 166.85 101.64 166.8 109 166.8 109 L 165.1 109 C 165.1 109 165.12 100.39 165.1 100.4 C 165.1 98.4 163.9 97.4 162.4 97.4 C 160.5 97.4 158.9 98.9 158.9 101.6 C 158.9 101.64 158.9 109 158.9 109 L 157.1 109 L 157.1 96.1 Z M 179.4 103 C 179.5 106.2 181.5 107.7 183.7 107.7 C 185.4 107.7 187.1 106.8 187.5 105 C 187.5 105 189.2 105 189.2 105 C 188.6 108 186.1 109.3 183.6 109.3 C 180.6 109.3 177.7 107.2 177.7 102.6 C 177.7 98 180.6 95.9 183.7 95.9 C 186.8 95.9 189.3 97.8 189.3 102.1 C 189.26 102.12 189.3 103 189.3 103 C 189.3 103 179.45 102.98 179.4 103 Z M 179.5 101.5 C 179.5 101.5 187.5 101.5 187.5 101.5 C 187.5 98.9 185.8 97.4 183.6 97.4 C 181.6 97.4 179.7 98.7 179.5 101.5 Z M 202.7 100.2 C 202.73 100.18 202.7 109 202.7 109 L 201 109 C 201 109 200.97 100.39 201 100.4 C 201 98.6 200 97.5 198.1 97.5 C 195.9 97.5 194 99.1 194 102.2 C 194.01 102.24 194 109 194 109 L 192.3 109 L 192.3 96.1 L 194 96.1 C 194 96.1 194.01 98.52 194 98.5 C 194.8 97 196.2 95.9 198.5 95.9 C 201 95.9 202.7 97.3 202.7 100.2 Z M 212.3 109 C 212.3 109 210.43 109.01 210.4 109 C 208.7 109 207.2 108.5 207.2 105.6 C 207.19 105.62 207.2 97.7 207.2 97.7 L 204.6 97.7 L 204.6 96.1 L 207.2 96.1 L 207.2 92.5 L 208.9 92 L 208.9 96.1 L 212.1 96.1 L 212.1 97.7 L 208.9 97.7 C 208.9 97.7 208.94 105.6 208.9 105.6 C 208.9 106.8 209.3 107.4 210.7 107.4 C 210.72 107.42 212.3 107.4 212.3 107.4 L 212.3 109 Z " stroke="none" fill="#000"/>  </g>  <g id="Polygon11547">    <path d="M 8.2 80.7 C 4.4 80.7 1.3 78.4 1.2 74.5 C 1.2 74.5 3.2 74.5 3.2 74.5 C 3.3 77.6 5.7 79 8.2 79 C 10.6 79 12.4 77.8 12.4 75.7 C 12.4 73.3 10 72.7 7.5 72.1 C 4.7 71.4 1.8 70.4 1.8 66.9 C 1.8 63.6 4.4 61.8 7.8 61.8 C 11 61.8 13.8 63.3 14 66.8 C 14 66.8 12.1 66.8 12.1 66.8 C 12 64.4 10 63.4 7.8 63.4 C 5.5 63.4 3.6 64.5 3.6 66.8 C 3.6 69.3 5.8 69.8 8.3 70.5 C 11.2 71.2 14.3 72 14.3 75.5 C 14.3 78.9 11.5 80.7 8.2 80.7 Z M 18.3 74.2 C 18.4 77.4 20.4 78.9 22.6 78.9 C 24.3 78.9 26 78 26.4 76.2 C 26.4 76.2 28.1 76.2 28.1 76.2 C 27.5 79.2 25 80.5 22.5 80.5 C 19.5 80.5 16.6 78.4 16.6 73.8 C 16.6 69.2 19.5 67.1 22.6 67.1 C 25.7 67.1 28.2 69 28.2 73.3 C 28.15 73.32 28.2 74.2 28.2 74.2 C 28.2 74.2 18.34 74.18 18.3 74.2 Z M 18.4 72.7 C 18.4 72.7 26.4 72.7 26.4 72.7 C 26.4 70.1 24.7 68.6 22.5 68.6 C 20.5 68.6 18.6 69.9 18.4 72.7 Z M 41.6 71.4 C 41.62 71.38 41.6 80.2 41.6 80.2 L 39.9 80.2 C 39.9 80.2 39.86 71.59 39.9 71.6 C 39.9 69.8 38.9 68.7 37 68.7 C 34.8 68.7 32.9 70.3 32.9 73.4 C 32.9 73.44 32.9 80.2 32.9 80.2 L 31.2 80.2 L 31.2 67.3 L 32.9 67.3 C 32.9 67.3 32.9 69.72 32.9 69.7 C 33.7 68.2 35.1 67.1 37.4 67.1 C 39.9 67.1 41.6 68.5 41.6 71.4 Z M 47.2 61.9 L 45.2 61.9 L 45.2 64.1 L 47.2 64.1 L 47.2 61.9 Z M 47.1 80.2 L 45.3 80.2 L 45.3 67.3 L 47.1 67.3 L 47.1 80.2 Z M 50.1 73.8 C 50.1 69.6 52.6 67.1 56.2 67.1 C 59.7 67.1 62.3 69.6 62.3 73.8 C 62.3 78 59.8 80.5 56.2 80.5 C 52.7 80.5 50.1 78 50.1 73.8 Z M 60.5 73.7 C 60.5 70.5 58.6 68.7 56.2 68.7 C 53.6 68.7 51.9 70.7 51.9 73.8 C 51.9 77 53.8 78.8 56.2 78.8 C 58.7 78.8 60.5 76.9 60.5 73.7 Z M 71.7 68.8 C 71.7 68.8 71.33 68.83 71.3 68.8 C 68.6 68.8 67.1 70.4 67.1 73.4 C 67.06 73.37 67.1 80.2 67.1 80.2 L 65.3 80.2 L 65.3 67.3 L 67 67.3 C 67 67.3 67.03 69.7 67 69.7 C 67.6 68 69.2 67.2 71.2 67.2 C 71.18 67.18 71.7 67.2 71.7 67.2 L 71.7 68.8 Z M 97.1 80.2 L 95.3 80.2 L 95.3 64.6 L 89.2 80.2 L 87.8 80.2 L 81.8 64.6 L 81.8 80.2 L 80 80.2 L 80 62.2 L 82.8 62.2 L 88.5 77.4 L 94.3 62.2 L 97.1 62.2 L 97.1 80.2 Z M 109.6 80.2 C 109.6 80.2 109.61 77.76 109.6 77.8 C 108.7 79.5 107.1 80.4 105.3 80.4 C 102.9 80.4 101 78.8 101 75.8 C 101.01 75.84 101 67.3 101 67.3 L 102.8 67.3 C 102.8 67.3 102.77 75.62 102.8 75.6 C 102.8 77.7 103.9 78.8 105.6 78.8 C 107.7 78.8 109.5 77.3 109.5 74 C 109.53 73.99 109.5 67.3 109.5 67.3 L 111.3 67.3 L 111.3 80.2 L 109.6 80.2 Z M 116.9 80.2 L 115.1 80.2 L 115.1 61.9 L 116.9 61.9 L 116.9 80.2 Z M 126.6 80.2 C 126.6 80.2 124.7 80.21 124.7 80.2 C 123 80.2 121.5 79.7 121.5 76.8 C 121.46 76.82 121.5 68.9 121.5 68.9 L 118.9 68.9 L 118.9 67.3 L 121.5 67.3 L 121.5 63.7 L 123.2 63.2 L 123.2 67.3 L 126.3 67.3 L 126.3 68.9 L 123.2 68.9 C 123.2 68.9 123.21 76.8 123.2 76.8 C 123.2 78 123.6 78.6 125 78.6 C 124.99 78.62 126.6 78.6 126.6 78.6 L 126.6 80.2 Z M 131 61.9 L 129 61.9 L 129 64.1 L 131 64.1 L 131 61.9 Z M 130.9 80.2 L 129.1 80.2 L 129.1 67.3 L 130.9 67.3 L 130.9 80.2 Z M 134 73.3 L 134 71.7 L 141.4 71.7 L 141.4 73.3 L 134 73.3 Z M 155.2 75.1 L 146.7 75.1 L 144.7 80.2 L 142.7 80.2 L 149.9 62.2 L 151.9 62.2 L 159.3 80.2 L 157.3 80.2 L 155.2 75.1 Z M 150.9 64.3 L 147.3 73.5 L 154.6 73.5 L 150.9 64.3 Z M 171.7 76.6 C 171.7 79.2 169.3 80.5 166.7 80.5 C 163.9 80.5 161.4 79.1 161.1 76.2 C 161.1 76.2 163 76.2 163 76.2 C 163.3 78.1 165 78.9 166.7 78.9 C 168.4 78.9 169.8 78.2 169.8 76.8 C 169.8 75.3 168.4 75 166.8 74.7 C 164.4 74.3 161.4 73.9 161.4 70.9 C 161.4 68.3 163.7 67.1 166.3 67.1 C 169 67.1 171.2 68.4 171.3 70.9 C 171.3 70.9 169.5 70.9 169.5 70.9 C 169.4 69.4 167.9 68.6 166.2 68.6 C 164.5 68.6 163.3 69.4 163.3 70.8 C 163.3 72.4 164.8 72.7 166.8 73 C 169.1 73.4 171.7 73.8 171.7 76.6 Z M 184.1 76.6 C 184.1 79.2 181.7 80.5 179.2 80.5 C 176.4 80.5 173.9 79.1 173.6 76.2 C 173.6 76.2 175.5 76.2 175.5 76.2 C 175.7 78.1 177.4 78.9 179.2 78.9 C 180.8 78.9 182.3 78.2 182.3 76.8 C 182.3 75.3 180.8 75 179.3 74.7 C 176.8 74.3 173.9 73.9 173.9 70.9 C 173.9 68.3 176.1 67.1 178.7 67.1 C 181.5 67.1 183.6 68.4 183.8 70.9 C 183.8 70.9 182 70.9 182 70.9 C 181.8 69.4 180.4 68.6 178.7 68.6 C 176.9 68.6 175.7 69.4 175.7 70.8 C 175.7 72.4 177.3 72.7 179.2 73 C 181.6 73.4 184.1 73.8 184.1 76.6 Z M 187.9 74.2 C 187.9 77.4 189.9 78.9 192.2 78.9 C 193.9 78.9 195.6 78 196 76.2 C 196 76.2 197.6 76.2 197.6 76.2 C 197 79.2 194.5 80.5 192.1 80.5 C 189 80.5 186.2 78.4 186.2 73.8 C 186.2 69.2 189.1 67.1 192.2 67.1 C 195.2 67.1 197.7 69 197.7 73.3 C 197.71 73.32 197.7 74.2 197.7 74.2 C 197.7 74.2 187.89 74.18 187.9 74.2 Z M 187.9 72.7 C 187.9 72.7 195.9 72.7 195.9 72.7 C 195.9 70.1 194.3 68.6 192.1 68.6 C 190.1 68.6 188.2 69.9 187.9 72.7 Z M 206.6 80.2 C 206.6 80.2 204.69 80.21 204.7 80.2 C 203 80.2 201.5 79.7 201.5 76.8 C 201.45 76.82 201.5 68.9 201.5 68.9 L 198.9 68.9 L 198.9 67.3 L 201.5 67.3 L 201.5 63.7 L 203.2 63.2 L 203.2 67.3 L 206.3 67.3 L 206.3 68.9 L 203.2 68.9 C 203.2 68.9 203.2 76.8 203.2 76.8 C 203.2 78 203.5 78.6 205 78.6 C 204.98 78.62 206.6 78.6 206.6 78.6 L 206.6 80.2 Z " stroke="none" fill="#000"/>  </g>  <g id="Polygon11546">    <path d="M 14.3 44.8 C 14.3 44.8 17.7 44.8 17.7 44.8 C 17.4 49.5 13.8 51.9 9.7 51.9 C 4 51.9 1 47.3 1 42.3 C 1 37.6 3.7 33 9.8 33 C 14 33 17.2 35.3 17.6 39.4 C 17.6 39.4 14.2 39.4 14.2 39.4 C 14 37.4 12.1 36.1 9.7 36.1 C 6 36.1 4.3 39.1 4.3 42.3 C 4.3 45.6 6.2 48.6 9.7 48.6 C 11.9 48.6 14.1 47.6 14.3 44.8 Z M 31.2 47.4 L 23.6 47.4 L 22.1 51.4 L 18.6 51.4 L 25.5 33.4 L 29.2 33.4 L 36.4 51.4 L 32.7 51.4 L 31.2 47.4 Z M 30 44.3 L 27.3 37.2 L 24.7 44.3 L 30 44.3 Z M 42.1 51.4 L 38.8 51.4 L 38.8 33.4 L 42.1 33.4 L 42.1 51.4 Z M 57.1 47.4 L 49.5 47.4 L 48 51.4 L 44.5 51.4 L 51.4 33.4 L 55.1 33.4 L 62.3 51.4 L 58.6 51.4 L 57.1 47.4 Z M 55.9 44.3 L 53.3 37.2 L 50.7 44.3 L 55.9 44.3 Z " stroke="none" fill="#000"/>  </g>  <g id="Polygon11545">    <path d="M 20.3 22.6 L 17.1 22.6 L 17.1 10.2 L 12.5 22.6 L 9.5 22.6 L 4.9 10.2 L 4.9 22.6 L 1.8 22.6 L 1.8 4.6 L 6 4.6 L 11 17.9 L 16 4.6 L 20.3 4.6 L 20.3 22.6 Z M 34.2 13.7 C 34.22 13.7 34.2 22.6 34.2 22.6 L 31.1 22.6 C 31.1 22.6 31.1 20.69 31.1 20.7 C 30.1 22.4 28.5 22.9 27.1 22.9 C 25 22.9 22.8 21.6 22.8 18.8 C 22.8 16.7 24 15.3 27 14.8 C 27 14.8 29.9 14.4 29.9 14.4 C 30.7 14.3 31.2 14 31.2 13.2 C 31.2 12.1 30.3 11.6 29 11.6 C 27.3 11.6 26.5 12.5 26.4 13.6 C 26.4 13.6 23.3 13.6 23.3 13.6 C 23.7 10.5 26.1 9.1 29.1 9.1 C 32.3 9.1 34.2 10.6 34.2 13.7 Z M 31.1 17 C 31.1 17 31.1 16.3 31.1 16.3 C 30.8 16.5 30.2 16.6 29.6 16.7 C 29.6 16.7 28.1 16.9 28.1 16.9 C 26.5 17.1 26 17.8 26 18.6 C 26 19.7 26.7 20.2 27.8 20.2 C 29.5 20.2 31.1 19 31.1 17 Z M 42.9 18.4 L 39.9 22.6 L 35.9 22.6 L 40.8 16.1 L 35.8 9.4 L 39.9 9.4 L 42.9 13.5 L 45.8 9.4 L 49.8 9.4 L 45 15.8 L 50.1 22.6 L 45.9 22.6 L 42.9 18.4 Z M 51.7 7.6 L 55.1 7.6 L 55.1 4 L 51.7 4 L 51.7 7.6 Z M 51.8 9.4 L 55 9.4 L 55 22.6 L 51.8 22.6 L 51.8 9.4 Z M 76.8 13.7 C 76.82 13.68 76.8 22.6 76.8 22.6 L 73.6 22.6 C 73.6 22.6 73.63 14.3 73.6 14.3 C 73.6 12.7 72.9 12 71.6 12 C 70.1 12 69.1 12.9 69.1 15.2 C 69.07 15.17 69.1 22.6 69.1 22.6 L 65.9 22.6 C 65.9 22.6 65.88 14.3 65.9 14.3 C 65.9 12.7 65.1 12 63.8 12 C 62.3 12 61.3 13 61.3 15.1 C 61.32 15.14 61.3 22.6 61.3 22.6 L 58.1 22.6 L 58.1 9.4 L 61.3 9.4 C 61.3 9.4 61.27 11.3 61.3 11.3 C 61.7 10.2 62.7 9.1 64.7 9.1 C 66.4 9.1 67.7 9.9 68.4 11.3 C 68.9 10.4 69.8 9.1 72.2 9.1 C 75 9.1 76.8 10.8 76.8 13.7 Z M 82.1 16.9 C 82.2 19.1 83.7 20.1 85.5 20.1 C 86.7 20.1 87.9 19.6 88.3 18.4 C 88.3 18.4 91.2 18.4 91.2 18.4 C 90.7 21.3 88.1 22.9 85.3 22.9 C 82.2 22.9 79 20.7 79 16 C 79 11.5 82 9.1 85.4 9.1 C 88.6 9.1 91.3 11.3 91.3 15.6 C 91.29 15.65 91.3 16.9 91.3 16.9 C 91.3 16.9 82.08 16.94 82.1 16.9 Z M 82.2 14.6 C 82.2 14.6 88.2 14.6 88.2 14.6 C 88.2 12.9 87 11.9 85.3 11.9 C 83.9 11.9 82.4 12.7 82.2 14.6 Z M 110.5 22.6 L 105.9 15.4 L 103.1 15.4 L 103.1 22.6 L 99.8 22.6 L 99.8 4.6 C 99.8 4.6 106.85 4.61 106.8 4.6 C 110.9 4.6 112.8 7.2 112.8 9.8 C 112.8 11.9 111.6 14 109.4 14.8 C 109.37 14.78 114.5 22.6 114.5 22.6 L 110.5 22.6 Z M 109.5 9.9 C 109.5 8.9 108.8 7.7 107 7.7 C 106.99 7.73 103.1 7.7 103.1 7.7 L 103.1 12.4 C 103.1 12.4 106.73 12.36 106.7 12.4 C 108.6 12.4 109.5 11.2 109.5 9.9 Z M 115.9 7.6 L 119.3 7.6 L 119.3 4 L 115.9 4 L 115.9 7.6 Z M 116 9.4 L 119.2 9.4 L 119.2 22.6 L 116 22.6 L 116 9.4 Z M 127.9 22.9 C 123.6 22.9 121.5 19.6 121.5 16 C 121.5 12.4 123.6 9.1 127.9 9.1 C 131.2 9.1 133.6 11 133.8 14.1 C 133.8 14.1 130.6 14.1 130.6 14.1 C 130.5 12.9 129.6 12 128 12 C 125.7 12 124.7 13.9 124.7 16 C 124.7 18.1 125.7 19.9 128 19.9 C 129.5 19.9 130.4 19.1 130.7 17.9 C 130.7 17.9 133.8 17.9 133.8 17.9 C 133.4 21.1 131.1 22.9 127.9 22.9 Z M 148.2 16 C 148.2 20.3 145.5 22.9 141.7 22.9 C 138 22.9 135.3 20.3 135.3 16 C 135.3 11.7 138 9.1 141.7 9.1 C 145.5 9.1 148.2 11.7 148.2 16 Z M 138.6 16 C 138.6 18.7 140 19.9 141.8 19.9 C 143.7 19.9 145 18.5 145 16 C 145 13.3 143.5 12.1 141.7 12.1 C 139.8 12.1 138.6 13.5 138.6 16 Z M 169.2 13.7 C 169.2 13.68 169.2 22.6 169.2 22.6 L 166 22.6 C 166 22.6 166.01 14.3 166 14.3 C 166 12.7 165.3 12 163.9 12 C 162.4 12 161.4 12.9 161.4 15.2 C 161.45 15.17 161.4 22.6 161.4 22.6 L 158.3 22.6 C 158.3 22.6 158.25 14.3 158.3 14.3 C 158.3 12.7 157.5 12 156.2 12 C 154.7 12 153.7 13 153.7 15.1 C 153.69 15.14 153.7 22.6 153.7 22.6 L 150.5 22.6 L 150.5 9.4 L 153.6 9.4 C 153.6 9.4 153.65 11.3 153.6 11.3 C 154.1 10.2 155.1 9.1 157.1 9.1 C 158.8 9.1 160.1 9.9 160.7 11.3 C 161.2 10.4 162.2 9.1 164.6 9.1 C 167.4 9.1 169.2 10.8 169.2 13.7 Z M 174.5 16.9 C 174.5 19.1 176.1 20.1 177.9 20.1 C 179.1 20.1 180.3 19.6 180.7 18.4 C 180.7 18.4 183.6 18.4 183.6 18.4 C 183 21.3 180.4 22.9 177.7 22.9 C 174.5 22.9 171.4 20.7 171.4 16 C 171.4 11.5 174.4 9.1 177.7 9.1 C 181 9.1 183.7 11.3 183.7 15.6 C 183.67 15.65 183.7 16.9 183.7 16.9 C 183.7 16.9 174.45 16.94 174.5 16.9 Z M 174.5 14.6 C 174.5 14.6 180.6 14.6 180.6 14.6 C 180.6 12.9 179.3 11.9 177.7 11.9 C 176.2 11.9 174.8 12.7 174.5 14.6 Z M 196.5 18.5 C 196.5 21.5 193.9 22.9 190.9 22.9 C 188.2 22.9 185.2 21.7 185 18.4 C 185 18.4 188.2 18.4 188.2 18.4 C 188.4 19.7 189.6 20.3 191.1 20.3 C 192.4 20.3 193.4 19.8 193.4 18.8 C 193.4 18 192.8 17.8 190.9 17.5 C 188.4 17 185.4 16.6 185.4 13.3 C 185.4 10.3 187.9 9.1 190.7 9.1 C 193.8 9.1 196 10.7 196.2 13.6 C 196.2 13.6 193.1 13.6 193.1 13.6 C 193 12.3 192 11.8 190.7 11.8 C 189.1 11.8 188.5 12.5 188.5 13.2 C 188.5 14.3 189.7 14.5 191.3 14.7 C 193.7 15.1 196.5 15.4 196.5 18.5 Z M 200.4 22.4 C 200.4 22.39 198.8 22.4 198.8 22.4 L 198.8 19 L 202.4 19 C 202.4 19 202.44 21.94 202.4 21.9 C 202.4 25.4 200.1 26.6 197.9 26.9 C 197.9 26.9 197.6 25.1 197.6 25.1 C 199.3 25 200.4 23.9 200.4 22.4 Z M 222.5 16 C 222.5 16 225.9 16 225.9 16 C 225.6 20.7 222 23.1 217.9 23.1 C 212.2 23.1 209.2 18.5 209.2 13.5 C 209.2 8.8 211.9 4.2 218 4.2 C 222.2 4.2 225.4 6.5 225.8 10.6 C 225.8 10.6 222.4 10.6 222.4 10.6 C 222.2 8.6 220.3 7.3 217.9 7.3 C 214.2 7.3 212.5 10.3 212.5 13.5 C 212.5 16.8 214.4 19.8 217.9 19.8 C 220.1 19.8 222.3 18.8 222.5 16 Z M 231.9 22.6 L 228.5 22.6 L 228.5 4.6 L 240.6 4.6 L 240.6 7.7 L 231.9 7.7 L 231.9 11.9 L 240.2 11.9 L 240.2 15.1 L 231.9 15.1 L 231.9 22.6 Z M 252.3 18.6 L 244.7 18.6 L 243.2 22.6 L 239.7 22.6 L 246.6 4.6 L 250.3 4.6 L 257.5 22.6 L 253.8 22.6 L 252.3 18.6 Z M 251.1 15.5 L 248.5 8.4 L 245.9 15.5 L 251.1 15.5 Z M 261.2 22.4 C 261.24 22.39 259.6 22.4 259.6 22.4 L 259.6 19 L 263.3 19 C 263.3 19 263.28 21.94 263.3 21.9 C 263.3 25.4 260.9 26.6 258.8 26.9 C 258.8 26.9 258.5 25.1 258.5 25.1 C 260.2 25 261.2 23.9 261.2 22.4 Z " stroke="none" fill="#000"/>  </g></svg>