<?xml version="1.0" standalone="no"?><!DOCTYPE svg PUBLIC "-//W3C//DTD SVG 1.1//EN" "http://www.w3.org/Graphics/SVG/1.1/DTD/svg11.dtd"><svg xmlns="http://www.w3.org/2000/svg" version="1.1" width="170px" height="36.4px" viewBox="0 -3 170 36.4" style="top:-3px"><desc>Deliver income</desc><defs/><g id="Polygon9647"><path d="m14.3 11.6c0 4.1-2.5 8.2-7.9 8.2c.05-.02-4.5 0-4.5 0V4s4.82.03 4.8 0c5.1 0 7.6 3.7 7.6 7.6zm-1.6.1c0-3.2-2-6.3-6.1-6.3c-.01.04-3.1 0-3.1 0v12.9s2.97.03 3 0c4.1 0 6.2-3.3 6.2-6.6zm5.3 2.8c0 2.8 1.7 4.1 3.7 4.1c1.5 0 3-.7 3.3-2.3h1.5c-.5 2.6-2.7 3.7-4.9 3.7c-2.7 0-5.2-1.8-5.2-5.8c0-4.1 2.6-5.9 5.3-5.9c2.7 0 4.8 1.7 4.8 5.5c.04-.05 0 .7 0 .7c0 0-8.55.01-8.5 0zm0-1.3h7c0-2.3-1.5-3.5-3.4-3.5c-1.7 0-3.4 1.1-3.6 3.5zm12.7 6.6h-1.5v-16h1.5v16zm5-16H34v1.9h1.7V3.8zm-.1 16h-1.5V8.5h1.5v11.3zm7.8 0h-1.6L37.6 8.5h1.6l3.4 9.7L46 8.5h1.6l-4.2 11.3zm6.8-5.3c0 2.8 1.8 4.1 3.7 4.1c1.5 0 3-.7 3.3-2.3h1.5c-.5 2.6-2.7 3.7-4.8 3.7c-2.7 0-5.2-1.8-5.2-5.8c0-4.1 2.5-5.9 5.2-5.9c2.7 0 4.9 1.7 4.9 5.5c-.02-.05 0 .7 0 .7h-8.6zm0-1.3h7c0-2.3-1.4-3.5-3.3-3.5c-1.8 0-3.5 1.1-3.7 3.5zM67 9.8s-.33.03-.3 0c-2.4 0-3.8 1.4-3.8 4c.04 0 0 6 0 6h-1.5V8.5h1.5s.02 2.08 0 2.1c.5-1.5 1.9-2.2 3.6-2.2c.05-.02.5 0 .5 0v1.4zm8.7-6H74v1.9h1.7V3.8zm-.1 16h-1.5V8.5h1.5v11.3zm12.5-7.7v7.7h-1.5s-.02-7.56 0-7.6c0-1.5-.9-2.5-2.5-2.5c-1.9 0-3.6 1.4-3.6 4.2v5.9H79V8.5h1.5v2.1c.7-1.3 1.9-2.3 3.9-2.3c2.2 0 3.7 1.3 3.7 3.8zm7.8 7.9c-3.1 0-5.3-2.3-5.3-5.8c0-3.6 2.1-5.9 5.4-5.9c2.5 0 4.5 1.4 4.7 3.9h-1.5c-.2-1.6-1.6-2.5-3.2-2.5c-2.2 0-3.8 1.7-3.8 4.4c0 2.8 1.5 4.5 3.7 4.5c1.7 0 3.1-1 3.2-2.8h1.6c-.2 2.7-2.3 4.2-4.8 4.2zm6.6-5.8c0-3.7 2.3-5.9 5.4-5.9c3.1 0 5.3 2.2 5.3 5.9c0 3.6-2.2 5.8-5.3 5.8c-3.1 0-5.4-2.2-5.4-5.8zm9.2-.1c0-2.8-1.7-4.4-3.8-4.4c-2.3 0-3.8 1.7-3.8 4.5c0 2.8 1.7 4.4 3.8 4.4c2.2 0 3.8-1.7 3.8-4.5zm4.2-5.6h1.5s-.03 1.87 0 1.9c.6-1.4 1.8-2.1 3.2-2.1c1.7 0 3 .9 3.4 2.3c.5-1.2 1.7-2.3 3.7-2.3c2 0 3.6 1.1 3.6 3.4c.03 0 0 8.1 0 8.1h-1.5v-7.6c0-1.7-1.1-2.5-2.4-2.5c-1.7 0-3.1 1.3-3.1 3.6c.04.03 0 6.5 0 6.5h-1.5s.03-7.56 0-7.6c0-1.7-1-2.5-2.3-2.5c-1.7 0-3.1 1.2-3.1 3.6v6.5h-1.5V8.5zm19.5 6c0 2.8 1.7 4.1 3.7 4.1c1.5 0 3-.7 3.3-2.3h1.5c-.5 2.6-2.7 3.7-4.9 3.7c-2.6 0-5.1-1.8-5.1-5.8c0-4.1 2.5-5.9 5.2-5.9c2.7 0 4.9 1.7 4.9 5.5c-.05-.05 0 .7 0 .7h-8.6zm0-1.3h7c0-2.3-1.5-3.5-3.4-3.5c-1.7 0-3.4 1.1-3.6 3.5z" stroke="none" fill="#000"/></g></svg>