<?xml version="1.0" standalone="no"?><!DOCTYPE svg PUBLIC "-//W3C//DTD SVG 1.1//EN" "http://www.w3.org/Graphics/SVG/1.1/DTD/svg11.dtd"><svg xmlns="http://www.w3.org/2000/svg" version="1.1" width="346px" height="198.4px" viewBox="0 0 346 198.4">  <desc>Bottom-up-Research Bei Vontobel setzen wir auf einen Bottom-up-Ansatz, der sich in schwierigen Zeiten bislang bew hrt</desc>  <defs/>  <g id="Polygon11885">    <path d="M 13 181 L 11.4 181 L 8.5 172 L 5.6 181 L 4.1 181 L 0.4 169.7 L 2 169.7 L 4.9 179 L 7.7 169.7 L 9.3 169.7 L 12.2 179 L 15.1 169.7 L 16.6 169.7 L 13 181 Z M 19.3 175.7 C 19.3 178.5 21.1 179.8 23.1 179.8 C 24.5 179.8 26 179.1 26.4 177.5 C 26.4 177.5 27.8 177.5 27.8 177.5 C 27.3 180.1 25.1 181.2 23 181.2 C 20.3 181.2 17.8 179.4 17.8 175.4 C 17.8 171.3 20.3 169.5 23 169.5 C 25.7 169.5 27.9 171.2 27.9 175 C 27.89 174.95 27.9 175.7 27.9 175.7 C 27.9 175.7 19.3 175.71 19.3 175.7 Z M 19.3 174.4 C 19.3 174.4 26.3 174.4 26.3 174.4 C 26.3 172.1 24.9 170.9 23 170.9 C 21.2 170.9 19.6 172 19.3 174.4 Z M 32.2 165 L 30.4 165 L 30.4 166.9 L 32.2 166.9 L 32.2 165 Z M 32 181 L 30.5 181 L 30.5 169.7 L 32 169.7 L 32 181 Z M 40.6 181 C 40.6 181 38.89 180.98 38.9 181 C 37.4 181 36.1 180.5 36.1 178 C 36.06 178.02 36.1 171.1 36.1 171.1 L 33.8 171.1 L 33.8 169.7 L 36.1 169.7 L 36.1 166.5 L 37.6 166.1 L 37.6 169.7 L 40.3 169.7 L 40.3 171.1 L 37.6 171.1 C 37.6 171.1 37.59 178 37.6 178 C 37.6 179 37.9 179.6 39.1 179.6 C 39.14 179.6 40.6 179.6 40.6 179.6 L 40.6 181 Z M 43.5 175.7 C 43.6 178.5 45.3 179.8 47.3 179.8 C 48.8 179.8 50.3 179.1 50.6 177.5 C 50.6 177.5 52 177.5 52 177.5 C 51.5 180.1 49.3 181.2 47.2 181.2 C 44.5 181.2 42 179.4 42 175.4 C 42 171.3 44.6 169.5 47.3 169.5 C 49.9 169.5 52.1 171.2 52.1 175 C 52.12 174.95 52.1 175.7 52.1 175.7 C 52.1 175.7 43.53 175.71 43.5 175.7 Z M 43.6 174.4 C 43.6 174.4 50.6 174.4 50.6 174.4 C 50.6 172.1 49.1 170.9 47.2 170.9 C 45.4 170.9 43.8 172 43.6 174.4 Z M 60.4 171 C 60.4 171 60.02 171.03 60 171 C 57.6 171 56.3 172.4 56.3 175 C 56.28 175 56.3 181 56.3 181 L 54.7 181 L 54.7 169.7 L 56.3 169.7 C 56.3 169.7 56.26 171.78 56.3 171.8 C 56.8 170.3 58.1 169.6 59.9 169.6 C 59.89 169.58 60.4 169.6 60.4 169.6 L 60.4 171 Z M 76.8 181 L 75.3 181 C 75.3 181 75.33 178.8 75.3 178.8 C 74.8 180.1 73.4 181.2 71.3 181.2 C 68.4 181.2 66.3 178.9 66.3 175.3 C 66.3 171.8 68.4 169.5 71.3 169.5 C 73.2 169.5 74.7 170.4 75.3 171.6 C 75.26 171.62 75.3 165 75.3 165 L 76.8 165 L 76.8 181 Z M 75.2 175.3 C 75.2 172.5 73.7 170.9 71.5 170.9 C 69.3 170.9 67.8 172.6 67.8 175.3 C 67.8 178.1 69.3 179.8 71.5 179.8 C 73.7 179.8 75.2 178.1 75.2 175.3 Z M 80.9 175.7 C 81 178.5 82.7 179.8 84.7 179.8 C 86.2 179.8 87.7 179.1 88 177.5 C 88 177.5 89.4 177.5 89.4 177.5 C 88.9 180.1 86.8 181.2 84.6 181.2 C 81.9 181.2 79.4 179.4 79.4 175.4 C 79.4 171.3 82 169.5 84.7 169.5 C 87.3 169.5 89.5 171.2 89.5 175 C 89.52 174.95 89.5 175.7 89.5 175.7 C 89.5 175.7 80.93 175.71 80.9 175.7 Z M 81 174.4 C 81 174.4 88 174.4 88 174.4 C 88 172.1 86.5 170.9 84.6 170.9 C 82.8 170.9 81.2 172 81 174.4 Z M 97.8 171 C 97.8 171 97.42 171.03 97.4 171 C 95 171 93.7 172.4 93.7 175 C 93.68 175 93.7 181 93.7 181 L 92.1 181 L 92.1 169.7 L 93.7 169.7 C 93.7 169.7 93.66 171.78 93.7 171.8 C 94.2 170.3 95.5 169.6 97.3 169.6 C 97.29 169.58 97.8 169.6 97.8 169.6 L 97.8 171 Z M 106.6 181 L 105 181 L 105 165.2 L 114.9 165.2 L 114.9 166.6 L 106.6 166.6 L 106.6 172.3 L 114.4 172.3 L 114.4 173.7 L 106.6 173.7 L 106.6 181 Z M 123.8 178.9 C 122.9 180.6 121.2 181.2 119.8 181.2 C 117.9 181.2 116.1 180.1 116.1 177.9 C 116.1 175.8 117.6 174.8 119.6 174.6 C 119.6 174.6 122.2 174.2 122.2 174.2 C 123.1 174.1 123.8 173.8 123.8 172.8 C 123.8 171.5 122.7 170.8 121.1 170.8 C 119.4 170.8 118.4 171.6 118.1 172.9 C 118.1 172.9 116.6 172.9 116.6 172.9 C 116.9 170.6 118.7 169.5 121.2 169.5 C 123.8 169.5 125.3 170.7 125.3 173.2 C 125.31 173.19 125.3 181 125.3 181 L 123.8 181 C 123.8 181 123.81 178.92 123.8 178.9 Z M 121.9 175.5 C 121.9 175.5 120.2 175.7 120.2 175.7 C 118.8 175.9 117.7 176.4 117.7 177.8 C 117.7 179.2 118.8 179.8 120.1 179.8 C 121.8 179.8 123.8 178.5 123.8 176.1 C 123.8 176.1 123.8 175 123.8 175 C 123.4 175.3 122.7 175.4 121.9 175.5 Z M 130 181 L 128.5 181 L 128.5 165 L 130 165 L 130 181 Z M 134.9 181 L 133.3 181 L 133.3 165 L 134.9 165 L 134.9 181 Z M 151.9 177.8 C 151.9 180.1 149.8 181.2 147.5 181.2 C 145.1 181.2 142.9 180 142.7 177.5 C 142.7 177.5 144.3 177.5 144.3 177.5 C 144.5 179.2 146 179.8 147.5 179.8 C 149 179.8 150.3 179.3 150.3 178 C 150.3 176.7 149 176.4 147.6 176.2 C 145.5 175.8 142.9 175.4 142.9 172.8 C 142.9 170.6 144.9 169.5 147.2 169.5 C 149.6 169.5 151.5 170.6 151.6 172.9 C 151.6 172.9 150 172.9 150 172.9 C 149.9 171.5 148.6 170.9 147.1 170.9 C 145.6 170.9 144.5 171.6 144.5 172.7 C 144.5 174.2 145.9 174.4 147.6 174.7 C 149.6 175 151.9 175.3 151.9 177.8 Z M 155.2 175.7 C 155.2 178.5 156.9 179.8 158.9 179.8 C 160.4 179.8 161.9 179.1 162.2 177.5 C 162.2 177.5 163.7 177.5 163.7 177.5 C 163.2 180.1 161 181.2 158.8 181.2 C 156.2 181.2 153.7 179.4 153.7 175.4 C 153.7 171.3 156.2 169.5 158.9 169.5 C 161.6 169.5 163.8 171.2 163.8 175 C 163.76 174.95 163.8 175.7 163.8 175.7 C 163.8 175.7 155.17 175.71 155.2 175.7 Z M 155.2 174.4 C 155.2 174.4 162.2 174.4 162.2 174.4 C 162.2 172.1 160.7 170.9 158.8 170.9 C 157.1 170.9 155.4 172 155.2 174.4 Z M 168 165 L 166.3 165 L 166.3 166.9 L 168 166.9 L 168 165 Z M 167.9 181 L 166.4 181 L 166.4 169.7 L 167.9 169.7 L 167.9 181 Z M 180.4 173.3 C 180.43 173.25 180.4 181 180.4 181 L 178.9 181 C 178.9 181 178.9 173.44 178.9 173.4 C 178.9 171.9 178 170.9 176.4 170.9 C 174.5 170.9 172.8 172.3 172.8 175.1 C 172.81 175.06 172.8 181 172.8 181 L 171.3 181 L 171.3 169.7 L 172.8 169.7 C 172.8 169.7 172.81 171.8 172.8 171.8 C 173.5 170.5 174.7 169.5 176.7 169.5 C 179 169.5 180.4 170.8 180.4 173.3 Z M 200.2 181 L 198.7 181 L 195.8 172 L 192.9 181 L 191.3 181 L 187.7 169.7 L 189.2 169.7 L 192.1 179 L 195 169.7 L 196.6 169.7 L 199.5 179 L 202.3 169.7 L 203.9 169.7 L 200.2 181 Z M 207.6 165 L 205.9 165 L 205.9 166.9 L 207.6 166.9 L 207.6 165 Z M 207.5 181 L 206 181 L 206 169.7 L 207.5 169.7 L 207.5 181 Z M 216.5 171 C 216.5 171 216.15 171.03 216.2 171 C 213.8 171 212.4 172.4 212.4 175 C 212.41 175 212.4 181 212.4 181 L 210.9 181 L 210.9 169.7 L 212.4 169.7 C 212.4 169.7 212.39 171.78 212.4 171.8 C 212.9 170.3 214.3 169.6 216 169.6 C 216.02 169.58 216.5 169.6 216.5 169.6 L 216.5 171 Z M 228.1 181 L 226.6 181 C 226.6 181 226.63 178.8 226.6 178.8 C 226.1 180.1 224.7 181.2 222.6 181.2 C 219.7 181.2 217.6 178.9 217.6 175.3 C 217.6 171.8 219.7 169.5 222.6 169.5 C 224.6 169.5 226 170.4 226.6 171.6 C 226.57 171.62 226.6 165 226.6 165 L 228.1 165 L 228.1 181 Z M 226.5 175.3 C 226.5 172.5 225 170.9 222.8 170.9 C 220.6 170.9 219.1 172.6 219.1 175.3 C 219.1 178.1 220.6 179.8 222.8 179.8 C 225 179.8 226.5 178.1 226.5 175.3 Z M 230.7 178.8 L 232.9 178.8 L 232.9 181 L 230.7 181 L 230.7 178.8 Z " stroke="none" fill="#000"/>  </g>  <g id="Polygon11884">    <path d="M 0.9 154.4 L 8 145.9 L 1 145.9 L 1 144.5 L 9.9 144.5 L 9.9 145.9 L 2.8 154.4 L 9.9 154.4 L 9.9 155.8 L 0.9 155.8 L 0.9 154.4 Z M 20.2 155.8 C 20.2 155.8 20.18 153.64 20.2 153.6 C 19.4 155.2 18 155.9 16.4 155.9 C 14.3 155.9 12.7 154.6 12.7 152 C 12.66 151.96 12.7 144.5 12.7 144.5 L 14.2 144.5 C 14.2 144.5 14.2 151.77 14.2 151.8 C 14.2 153.6 15.2 154.6 16.7 154.6 C 18.5 154.6 20.1 153.2 20.1 150.3 C 20.12 150.34 20.1 144.5 20.1 144.5 L 21.7 144.5 L 21.7 155.8 L 20.2 155.8 Z M 29.5 155.8 L 27.8 155.8 L 23.6 144.5 L 25.3 144.5 L 28.7 154.2 L 32.1 144.5 L 33.7 144.5 L 29.5 155.8 Z M 36.2 150.5 C 36.3 153.3 38 154.6 40 154.6 C 41.5 154.6 43 153.9 43.3 152.3 C 43.3 152.3 44.8 152.3 44.8 152.3 C 44.2 154.9 42.1 156 39.9 156 C 37.2 156 34.7 154.2 34.7 150.2 C 34.7 146.1 37.3 144.3 40 144.3 C 42.7 144.3 44.8 146 44.8 149.8 C 44.83 149.75 44.8 150.5 44.8 150.5 C 44.8 150.5 36.25 150.51 36.2 150.5 Z M 36.3 149.2 C 36.3 149.2 43.3 149.2 43.3 149.2 C 43.3 146.9 41.8 145.7 39.9 145.7 C 38.2 145.7 36.5 146.8 36.3 149.2 Z M 53.1 145.8 C 53.1 145.8 52.73 145.83 52.7 145.8 C 50.3 145.8 49 147.2 49 149.8 C 48.99 149.8 49 155.8 49 155.8 L 47.5 155.8 L 47.5 144.5 L 49 144.5 C 49 144.5 48.97 146.58 49 146.6 C 49.5 145.1 50.9 144.4 52.6 144.4 C 52.6 144.38 53.1 144.4 53.1 144.4 L 53.1 145.8 Z M 63.5 152.6 C 63.5 154.9 61.4 156 59.1 156 C 56.7 156 54.5 154.8 54.2 152.3 C 54.2 152.3 55.9 152.3 55.9 152.3 C 56.1 154 57.6 154.6 59.1 154.6 C 60.6 154.6 61.9 154.1 61.9 152.8 C 61.9 151.5 60.6 151.2 59.2 151 C 57.1 150.6 54.5 150.2 54.5 147.6 C 54.5 145.4 56.4 144.3 58.8 144.3 C 61.2 144.3 63 145.4 63.2 147.7 C 63.2 147.7 61.6 147.7 61.6 147.7 C 61.5 146.3 60.2 145.7 58.7 145.7 C 57.2 145.7 56.1 146.4 56.1 147.5 C 56.1 149 57.5 149.2 59.2 149.5 C 61.2 149.8 63.5 150.1 63.5 152.6 Z M 67.6 139.8 L 65.9 139.8 L 65.9 141.7 L 67.6 141.7 L 67.6 139.8 Z M 67.5 155.8 L 66 155.8 L 66 144.5 L 67.5 144.5 L 67.5 155.8 Z M 75.4 156 C 72.3 156 70.1 153.7 70.1 150.2 C 70.1 146.6 72.2 144.3 75.5 144.3 C 78 144.3 80 145.7 80.2 148.2 C 80.2 148.2 78.7 148.2 78.7 148.2 C 78.5 146.6 77.1 145.7 75.5 145.7 C 73.3 145.7 71.7 147.4 71.7 150.1 C 71.7 152.9 73.2 154.6 75.5 154.6 C 77.2 154.6 78.5 153.6 78.6 151.8 C 78.6 151.8 80.2 151.8 80.2 151.8 C 80 154.5 77.9 156 75.4 156 Z M 91.9 148.1 C 91.94 148.05 91.9 155.8 91.9 155.8 L 90.4 155.8 C 90.4 155.8 90.4 148.24 90.4 148.2 C 90.4 146.7 89.5 145.7 87.9 145.7 C 86 145.7 84.3 147.1 84.3 149.9 C 84.31 149.86 84.3 155.8 84.3 155.8 L 82.8 155.8 L 82.8 139.8 L 84.3 139.8 C 84.3 139.8 84.31 146.48 84.3 146.5 C 85 145.2 86.2 144.3 88.2 144.3 C 90.5 144.3 91.9 145.6 91.9 148.1 Z M 100.3 155.8 C 100.3 155.8 98.68 155.78 98.7 155.8 C 97.2 155.8 95.8 155.3 95.8 152.8 C 95.84 152.82 95.8 145.9 95.8 145.9 L 93.6 145.9 L 93.6 144.5 L 95.8 144.5 L 95.8 141.3 L 97.4 140.9 L 97.4 144.5 L 100.1 144.5 L 100.1 145.9 L 97.4 145.9 C 97.4 145.9 97.38 152.8 97.4 152.8 C 97.4 153.8 97.7 154.4 98.9 154.4 C 98.93 154.4 100.3 154.4 100.3 154.4 L 100.3 155.8 Z M 104.1 155.8 L 102.5 155.8 L 102.5 139.8 L 104.1 139.8 L 104.1 155.8 Z M 109.1 139.8 L 107.3 139.8 L 107.3 141.7 L 109.1 141.7 L 109.1 139.8 Z M 109 155.8 L 107.4 155.8 L 107.4 144.5 L 109 144.5 L 109 155.8 Z M 116.8 156 C 113.7 156 111.6 153.7 111.6 150.2 C 111.6 146.6 113.7 144.3 116.9 144.3 C 119.4 144.3 121.4 145.7 121.6 148.2 C 121.6 148.2 120.1 148.2 120.1 148.2 C 120 146.6 118.6 145.7 116.9 145.7 C 114.7 145.7 113.1 147.4 113.1 150.1 C 113.1 152.9 114.7 154.6 116.9 154.6 C 118.6 154.6 120 153.6 120.1 151.8 C 120.1 151.8 121.6 151.8 121.6 151.8 C 121.4 154.5 119.3 156 116.8 156 Z M 133.4 148.1 C 133.39 148.05 133.4 155.8 133.4 155.8 L 131.9 155.8 C 131.9 155.8 131.86 148.24 131.9 148.2 C 131.9 146.7 131 145.7 129.4 145.7 C 127.4 145.7 125.8 147.1 125.8 149.9 C 125.77 149.86 125.8 155.8 125.8 155.8 L 124.2 155.8 L 124.2 139.8 L 125.8 139.8 C 125.8 139.8 125.77 146.48 125.8 146.5 C 126.4 145.2 127.6 144.3 129.6 144.3 C 131.9 144.3 133.4 145.6 133.4 148.1 Z M 137.7 155.7 C 137.74 155.66 136.7 155.7 136.7 155.7 L 136.7 153.6 L 139 153.6 C 139 153.6 138.95 155.72 139 155.7 C 139 158.2 137.5 159.1 135.9 159.2 C 135.9 159.2 135.7 158.3 135.7 158.3 C 137.4 158 137.7 157 137.7 155.7 Z M 156 155.8 L 154.5 155.8 C 154.5 155.8 154.54 153.6 154.5 153.6 C 154 154.9 152.6 156 150.5 156 C 147.6 156 145.5 153.7 145.5 150.1 C 145.5 146.6 147.6 144.3 150.5 144.3 C 152.5 144.3 153.9 145.2 154.5 146.4 C 154.47 146.42 154.5 139.8 154.5 139.8 L 156 139.8 L 156 155.8 Z M 154.5 150.1 C 154.5 147.3 152.9 145.7 150.7 145.7 C 148.5 145.7 147 147.4 147 150.1 C 147 152.9 148.6 154.6 150.7 154.6 C 152.9 154.6 154.5 152.9 154.5 150.1 Z M 166.3 153.7 C 165.4 155.4 163.7 156 162.3 156 C 160.4 156 158.6 154.9 158.6 152.7 C 158.6 150.6 160.1 149.6 162.1 149.4 C 162.1 149.4 164.7 149 164.7 149 C 165.6 148.9 166.3 148.6 166.3 147.6 C 166.3 146.3 165.1 145.6 163.6 145.6 C 161.9 145.6 160.8 146.4 160.6 147.7 C 160.6 147.7 159.1 147.7 159.1 147.7 C 159.4 145.4 161.2 144.3 163.7 144.3 C 166.2 144.3 167.8 145.5 167.8 148 C 167.79 147.99 167.8 155.8 167.8 155.8 L 166.3 155.8 C 166.3 155.8 166.3 153.72 166.3 153.7 Z M 164.4 150.3 C 164.4 150.3 162.7 150.5 162.7 150.5 C 161.3 150.7 160.2 151.2 160.2 152.6 C 160.2 154 161.3 154.6 162.5 154.6 C 164.3 154.6 166.3 153.3 166.3 150.9 C 166.3 150.9 166.3 149.8 166.3 149.8 C 165.8 150.1 165.2 150.2 164.4 150.3 Z M 179.3 152.6 C 179.3 154.9 177.2 156 175 156 C 172.6 156 170.3 154.8 170.1 152.3 C 170.1 152.3 171.7 152.3 171.7 152.3 C 172 154 173.5 154.6 175 154.6 C 176.4 154.6 177.7 154.1 177.7 152.8 C 177.7 151.5 176.4 151.2 175.1 151 C 172.9 150.6 170.4 150.2 170.4 147.6 C 170.4 145.4 172.3 144.3 174.6 144.3 C 177 144.3 178.9 145.4 179 147.7 C 179 147.7 177.4 147.7 177.4 147.7 C 177.3 146.3 176 145.7 174.5 145.7 C 173 145.7 172 146.4 172 147.5 C 172 149 173.3 149.2 175 149.5 C 177.1 149.8 179.3 150.1 179.3 152.6 Z M 190.2 152.6 C 190.2 154.9 188.1 156 185.9 156 C 183.5 156 181.2 154.8 181 152.3 C 181 152.3 182.6 152.3 182.6 152.3 C 182.9 154 184.4 154.6 185.9 154.6 C 187.3 154.6 188.6 154.1 188.6 152.8 C 188.6 151.5 187.3 151.2 186 151 C 183.8 150.6 181.3 150.2 181.3 147.6 C 181.3 145.4 183.2 144.3 185.5 144.3 C 187.9 144.3 189.8 145.4 189.9 147.7 C 189.9 147.7 188.3 147.7 188.3 147.7 C 188.2 146.3 186.9 145.7 185.4 145.7 C 183.9 145.7 182.9 146.4 182.9 147.5 C 182.9 149 184.2 149.2 185.9 149.5 C 188 149.8 190.2 150.1 190.2 152.6 Z M 207.4 155.8 L 205.9 155.8 C 205.9 155.8 205.9 153.6 205.9 153.6 C 205.4 154.9 204 156 201.9 156 C 198.9 156 196.8 153.7 196.8 150.1 C 196.8 146.6 198.9 144.3 201.9 144.3 C 203.8 144.3 205.2 145.2 205.8 146.4 C 205.84 146.42 205.8 139.8 205.8 139.8 L 207.4 139.8 L 207.4 155.8 Z M 205.8 150.1 C 205.8 147.3 204.3 145.7 202.1 145.7 C 199.9 145.7 198.4 147.4 198.4 150.1 C 198.4 152.9 199.9 154.6 202.1 154.6 C 204.3 154.6 205.8 152.9 205.8 150.1 Z M 212.4 139.8 L 210.6 139.8 L 210.6 141.7 L 212.4 141.7 L 212.4 139.8 Z M 212.3 155.8 L 210.7 155.8 L 210.7 144.5 L 212.3 144.5 L 212.3 155.8 Z M 216.4 150.5 C 216.4 153.3 218.2 154.6 220.2 154.6 C 221.7 154.6 223.1 153.9 223.5 152.3 C 223.5 152.3 224.9 152.3 224.9 152.3 C 224.4 154.9 222.2 156 220.1 156 C 217.4 156 214.9 154.2 214.9 150.2 C 214.9 146.1 217.4 144.3 220.1 144.3 C 222.8 144.3 225 146 225 149.8 C 224.99 149.75 225 150.5 225 150.5 C 225 150.5 216.4 150.51 216.4 150.5 Z M 216.4 149.2 C 216.4 149.2 223.4 149.2 223.4 149.2 C 223.4 146.9 222 145.7 220.1 145.7 C 218.3 145.7 216.7 146.8 216.4 149.2 Z M 236 152.6 C 236 154.9 233.9 156 231.6 156 C 229.2 156 227 154.8 226.8 152.3 C 226.8 152.3 228.4 152.3 228.4 152.3 C 228.7 154 230.1 154.6 231.7 154.6 C 233.1 154.6 234.4 154.1 234.4 152.8 C 234.4 151.5 233.1 151.2 231.8 151 C 229.6 150.6 227 150.2 227 147.6 C 227 145.4 229 144.3 231.3 144.3 C 233.7 144.3 235.6 145.4 235.7 147.7 C 235.7 147.7 234.1 147.7 234.1 147.7 C 234 146.3 232.7 145.7 231.2 145.7 C 229.7 145.7 228.6 146.4 228.6 147.5 C 228.6 149 230 149.2 231.7 149.5 C 233.7 149.8 236 150.1 236 152.6 Z M 250.7 153.7 C 249.8 155.4 248.1 156 246.7 156 C 244.8 156 243 154.9 243 152.7 C 243 150.6 244.5 149.6 246.5 149.4 C 246.5 149.4 249.1 149 249.1 149 C 250 148.9 250.7 148.6 250.7 147.6 C 250.7 146.3 249.5 145.6 248 145.6 C 246.3 145.6 245.2 146.4 245 147.7 C 245 147.7 243.5 147.7 243.5 147.7 C 243.8 145.4 245.6 144.3 248.1 144.3 C 250.6 144.3 252.2 145.5 252.2 148 C 252.19 147.99 252.2 155.8 252.2 155.8 L 250.7 155.8 C 250.7 155.8 250.7 153.72 250.7 153.7 Z M 248.8 150.3 C 248.8 150.3 247.1 150.5 247.1 150.5 C 245.7 150.7 244.6 151.2 244.6 152.6 C 244.6 154 245.7 154.6 246.9 154.6 C 248.7 154.6 250.7 153.3 250.7 150.9 C 250.7 150.9 250.7 149.8 250.7 149.8 C 250.2 150.1 249.6 150.2 248.8 150.3 Z M 262.7 155.8 C 262.7 155.8 262.75 153.64 262.7 153.6 C 262 155.2 260.6 155.9 259 155.9 C 256.9 155.9 255.2 154.6 255.2 152 C 255.23 151.96 255.2 144.5 255.2 144.5 L 256.8 144.5 C 256.8 144.5 256.76 151.77 256.8 151.8 C 256.8 153.6 257.8 154.6 259.3 154.6 C 261.1 154.6 262.7 153.2 262.7 150.3 C 262.69 150.34 262.7 144.5 262.7 144.5 L 264.2 144.5 L 264.2 155.8 L 262.7 155.8 Z M 272.1 156 C 269 156 266.8 153.7 266.8 150.2 C 266.8 146.6 268.9 144.3 272.2 144.3 C 274.7 144.3 276.7 145.7 276.9 148.2 C 276.9 148.2 275.4 148.2 275.4 148.2 C 275.2 146.6 273.8 145.7 272.2 145.7 C 270 145.7 268.4 147.4 268.4 150.1 C 268.4 152.9 270 154.6 272.2 154.6 C 273.9 154.6 275.2 153.6 275.3 151.8 C 275.3 151.8 276.9 151.8 276.9 151.8 C 276.7 154.5 274.6 156 272.1 156 Z M 288.6 148.1 C 288.64 148.05 288.6 155.8 288.6 155.8 L 287.1 155.8 C 287.1 155.8 287.11 148.24 287.1 148.2 C 287.1 146.7 286.2 145.7 284.6 145.7 C 282.7 145.7 281 147.1 281 149.9 C 281.02 149.86 281 155.8 281 155.8 L 279.5 155.8 L 279.5 139.8 L 281 139.8 C 281 139.8 281.02 146.48 281 146.5 C 281.7 145.2 282.9 144.3 284.9 144.3 C 287.2 144.3 288.6 145.6 288.6 148.1 Z " stroke="none" fill="#000"/>  </g>  <g id="Polygon11883">    <path d="M 12.2 124.9 C 12.2 128.4 10.1 130.8 7.1 130.8 C 5.1 130.8 3.7 129.7 3.1 128.5 C 3.15 128.5 3.1 130.6 3.1 130.6 L 1.7 130.6 L 1.7 114.6 L 3.2 114.6 C 3.2 114.6 3.21 121.57 3.2 121.6 C 3.8 120.2 5.2 119.1 7.2 119.1 C 10.1 119.1 12.2 121.3 12.2 124.9 Z M 10.6 125 C 10.6 122.2 9.2 120.6 7 120.6 C 4.8 120.6 3.2 122.2 3.2 125 C 3.2 127.8 4.7 129.5 6.9 129.5 C 9.1 129.5 10.6 127.7 10.6 125 Z M 16.5 114.6 L 14.7 114.6 L 14.7 116.5 L 16.5 116.5 L 16.5 114.6 Z M 16.4 130.6 L 14.8 130.6 L 14.8 119.3 L 16.4 119.3 L 16.4 130.6 Z M 28.1 127.4 C 28.1 129.7 26 130.8 23.8 130.8 C 21.3 130.8 19.1 129.6 18.9 127.1 C 18.9 127.1 20.5 127.1 20.5 127.1 C 20.8 128.8 22.2 129.4 23.8 129.4 C 25.2 129.4 26.5 128.9 26.5 127.6 C 26.5 126.3 25.2 126 23.9 125.8 C 21.7 125.4 19.2 125 19.2 122.4 C 19.2 120.2 21.1 119.1 23.4 119.1 C 25.8 119.1 27.7 120.2 27.8 122.5 C 27.8 122.5 26.2 122.5 26.2 122.5 C 26.1 121.1 24.8 120.5 23.3 120.5 C 21.8 120.5 20.7 121.2 20.7 122.3 C 20.7 123.8 22.1 124 23.8 124.3 C 25.9 124.6 28.1 124.9 28.1 127.4 Z M 32.2 130.6 L 30.6 130.6 L 30.6 114.6 L 32.2 114.6 L 32.2 130.6 Z M 42.4 128.5 C 41.6 130.2 39.9 130.8 38.4 130.8 C 36.5 130.8 34.8 129.7 34.8 127.5 C 34.8 125.4 36.3 124.4 38.2 124.2 C 38.2 124.2 40.9 123.8 40.9 123.8 C 41.7 123.7 42.4 123.4 42.4 122.4 C 42.4 121.1 41.3 120.4 39.7 120.4 C 38 120.4 37 121.2 36.7 122.5 C 36.7 122.5 35.2 122.5 35.2 122.5 C 35.5 120.2 37.3 119.1 39.8 119.1 C 42.4 119.1 43.9 120.3 43.9 122.8 C 43.93 122.79 43.9 130.6 43.9 130.6 L 42.4 130.6 C 42.4 130.6 42.44 128.52 42.4 128.5 Z M 40.6 125.1 C 40.6 125.1 38.8 125.3 38.8 125.3 C 37.4 125.5 36.4 126 36.4 127.4 C 36.4 128.8 37.4 129.4 38.7 129.4 C 40.4 129.4 42.4 128.1 42.4 125.7 C 42.4 125.7 42.4 124.6 42.4 124.6 C 42 124.9 41.3 125 40.6 125.1 Z M 56.2 122.9 C 56.24 122.85 56.2 130.6 56.2 130.6 L 54.7 130.6 C 54.7 130.6 54.7 123.04 54.7 123 C 54.7 121.5 53.8 120.5 52.2 120.5 C 50.3 120.5 48.6 121.9 48.6 124.7 C 48.61 124.66 48.6 130.6 48.6 130.6 L 47.1 130.6 L 47.1 119.3 L 48.6 119.3 C 48.6 119.3 48.61 121.4 48.6 121.4 C 49.3 120.1 50.5 119.1 52.5 119.1 C 54.8 119.1 56.2 120.4 56.2 122.9 Z M 69.2 130.1 C 69.2 133.5 67 135.2 64.1 135.2 C 61.6 135.2 59.4 133.9 59 131.3 C 59 131.3 60.6 131.3 60.6 131.3 C 60.8 132.7 61.8 133.9 64.1 133.9 C 66.2 133.9 67.7 132.8 67.7 130.2 C 67.7 130.2 67.7 127.9 67.7 127.9 C 66.9 129.6 65.2 130.2 63.7 130.2 C 61 130.2 58.8 128.3 58.8 124.6 C 58.8 120.9 61.1 119.1 63.8 119.1 C 65.6 119.1 67 119.9 67.7 121.1 C 67.68 121.13 67.7 119.3 67.7 119.3 L 69.2 119.3 C 69.2 119.3 69.19 130.08 69.2 130.1 Z M 67.6 124.6 C 67.6 121.8 65.9 120.4 64 120.4 C 62.1 120.4 60.3 121.8 60.3 124.6 C 60.3 127.4 62 128.8 64 128.8 C 65.8 128.8 67.6 127.6 67.6 124.6 Z M 88.6 124.9 C 88.6 128.4 86.5 130.8 83.5 130.8 C 81.5 130.8 80.2 129.7 79.6 128.5 C 79.59 128.5 79.6 130.6 79.6 130.6 L 78.1 130.6 L 78.1 114.6 L 79.7 114.6 C 79.7 114.6 79.65 121.57 79.7 121.6 C 80.2 120.2 81.6 119.1 83.7 119.1 C 86.6 119.1 88.6 121.3 88.6 124.9 Z M 87.1 125 C 87.1 122.2 85.6 120.6 83.4 120.6 C 81.2 120.6 79.7 122.2 79.7 125 C 79.7 127.8 81.2 129.5 83.3 129.5 C 85.6 129.5 87.1 127.7 87.1 125 Z M 92 125.3 C 92.1 128.1 93.8 129.4 95.8 129.4 C 97.3 129.4 98.8 128.7 99.1 127.1 C 99.1 127.1 100.5 127.1 100.5 127.1 C 100 129.7 97.9 130.8 95.7 130.8 C 93 130.8 90.5 129 90.5 125 C 90.5 120.9 93.1 119.1 95.8 119.1 C 98.4 119.1 100.6 120.8 100.6 124.6 C 100.63 124.55 100.6 125.3 100.6 125.3 C 100.6 125.3 92.04 125.31 92 125.3 Z M 92.1 124 C 92.1 124 99.1 124 99.1 124 C 99.1 121.7 97.6 120.5 95.7 120.5 C 94 120.5 92.3 121.6 92.1 124 Z M 114.5 130.6 L 113 130.6 L 110.1 121.6 L 107.2 130.6 L 105.7 130.6 L 102 119.3 L 103.6 119.3 L 106.5 128.6 L 109.3 119.3 L 110.9 119.3 L 113.8 128.6 L 116.6 119.3 L 118.2 119.3 L 114.5 130.6 Z M 121.5 117 L 121.5 115.1 L 123.3 115.1 L 123.3 117 L 121.5 117 Z M 125.6 117 L 125.6 115.1 L 127.4 115.1 L 127.4 117 L 125.6 117 Z M 127 128.5 C 126.1 130.2 124.4 130.8 123 130.8 C 121.1 130.8 119.4 129.7 119.4 127.5 C 119.4 125.4 120.9 124.4 122.8 124.2 C 122.8 124.2 125.5 123.8 125.5 123.8 C 126.3 123.7 127 123.4 127 122.4 C 127 121.1 125.9 120.4 124.3 120.4 C 122.6 120.4 121.6 121.2 121.3 122.5 C 121.3 122.5 119.8 122.5 119.8 122.5 C 120.1 120.2 121.9 119.1 124.4 119.1 C 127 119.1 128.5 120.3 128.5 122.8 C 128.52 122.79 128.5 130.6 128.5 130.6 L 127 130.6 C 127 130.6 127.03 128.52 127 128.5 Z M 125.2 125.1 C 125.2 125.1 123.4 125.3 123.4 125.3 C 122 125.5 120.9 126 120.9 127.4 C 120.9 128.8 122 129.4 123.3 129.4 C 125 129.4 127 128.1 127 125.7 C 127 125.7 127 124.6 127 124.6 C 126.6 124.9 125.9 125 125.2 125.1 Z M 140.8 122.9 C 140.82 122.85 140.8 130.6 140.8 130.6 L 139.3 130.6 C 139.3 130.6 139.29 123.04 139.3 123 C 139.3 121.5 138.4 120.5 136.8 120.5 C 134.9 120.5 133.2 121.9 133.2 124.7 C 133.2 124.66 133.2 130.6 133.2 130.6 L 131.7 130.6 L 131.7 114.6 L 133.2 114.6 C 133.2 114.6 133.2 121.28 133.2 121.3 C 133.9 120 135.1 119.1 137.1 119.1 C 139.4 119.1 140.8 120.4 140.8 122.9 Z M 149.7 120.6 C 149.7 120.6 149.35 120.63 149.3 120.6 C 147 120.6 145.6 122 145.6 124.6 C 145.61 124.6 145.6 130.6 145.6 130.6 L 144.1 130.6 L 144.1 119.3 L 145.6 119.3 C 145.6 119.3 145.59 121.38 145.6 121.4 C 146.1 119.9 147.5 119.2 149.2 119.2 C 149.22 119.18 149.7 119.2 149.7 119.2 L 149.7 120.6 Z M 157.3 130.6 C 157.3 130.6 155.61 130.58 155.6 130.6 C 154.1 130.6 152.8 130.1 152.8 127.6 C 152.77 127.62 152.8 120.7 152.8 120.7 L 150.5 120.7 L 150.5 119.3 L 152.8 119.3 L 152.8 116.1 L 154.3 115.7 L 154.3 119.3 L 157 119.3 L 157 120.7 L 154.3 120.7 C 154.3 120.7 154.31 127.6 154.3 127.6 C 154.3 128.6 154.6 129.2 155.9 129.2 C 155.86 129.2 157.3 129.2 157.3 129.2 L 157.3 130.6 Z M 174.1 122.9 C 174.09 122.85 174.1 130.6 174.1 130.6 L 172.6 130.6 C 172.6 130.6 172.55 123.04 172.6 123 C 172.6 121.5 171.7 120.5 170.1 120.5 C 168.1 120.5 166.5 121.9 166.5 124.7 C 166.46 124.66 166.5 130.6 166.5 130.6 L 164.9 130.6 L 164.9 114.6 L 166.5 114.6 C 166.5 114.6 166.46 121.28 166.5 121.3 C 167.1 120 168.3 119.1 170.3 119.1 C 172.6 119.1 174.1 120.4 174.1 122.9 Z M 184.3 128.5 C 183.4 130.2 181.7 130.8 180.3 130.8 C 178.3 130.8 176.6 129.7 176.6 127.5 C 176.6 125.4 178.1 124.4 180 124.2 C 180 124.2 182.7 123.8 182.7 123.8 C 183.5 123.7 184.3 123.4 184.3 122.4 C 184.3 121.1 183.1 120.4 181.5 120.4 C 179.8 120.4 178.8 121.2 178.6 122.5 C 178.6 122.5 177 122.5 177 122.5 C 177.4 120.2 179.2 119.1 181.6 119.1 C 184.2 119.1 185.8 120.3 185.8 122.8 C 185.76 122.79 185.8 130.6 185.8 130.6 L 184.3 130.6 C 184.3 130.6 184.27 128.52 184.3 128.5 Z M 182.4 125.1 C 182.4 125.1 180.7 125.3 180.7 125.3 C 179.3 125.5 178.2 126 178.2 127.4 C 178.2 128.8 179.3 129.4 180.5 129.4 C 182.3 129.4 184.2 128.1 184.2 125.7 C 184.2 125.7 184.2 124.6 184.2 124.6 C 183.8 124.9 183.2 125 182.4 125.1 Z M 194.1 130.6 C 194.1 130.6 192.4 130.58 192.4 130.6 C 190.9 130.6 189.6 130.1 189.6 127.6 C 189.56 127.62 189.6 120.7 189.6 120.7 L 187.3 120.7 L 187.3 119.3 L 189.6 119.3 L 189.6 116.1 L 191.1 115.7 L 191.1 119.3 L 193.8 119.3 L 193.8 120.7 L 191.1 120.7 C 191.1 120.7 191.1 127.6 191.1 127.6 C 191.1 128.6 191.4 129.2 192.7 129.2 C 192.65 129.2 194.1 129.2 194.1 129.2 L 194.1 130.6 Z M 195.5 128.4 L 197.7 128.4 L 197.7 130.6 L 195.5 130.6 L 195.5 128.4 Z M 219.3 130.6 L 217.7 130.6 L 213.8 117.3 L 209.8 130.6 L 208.2 130.6 L 204.1 114.8 L 205.8 114.8 L 209 128.3 L 213 114.8 L 214.6 114.8 L 218.5 128.3 L 221.8 114.8 L 223.4 114.8 L 219.3 130.6 Z M 227.3 114.6 L 225.6 114.6 L 225.6 116.5 L 227.3 116.5 L 227.3 114.6 Z M 227.2 130.6 L 225.7 130.6 L 225.7 119.3 L 227.2 119.3 L 227.2 130.6 Z M 236.2 120.6 C 236.2 120.6 235.87 120.63 235.9 120.6 C 233.5 120.6 232.1 122 232.1 124.6 C 232.13 124.6 232.1 130.6 232.1 130.6 L 230.6 130.6 L 230.6 119.3 L 232.1 119.3 C 232.1 119.3 232.11 121.38 232.1 121.4 C 232.6 119.9 234 119.2 235.7 119.2 C 235.74 119.18 236.2 119.2 236.2 119.2 L 236.2 120.6 Z M 251.2 127.4 C 251.2 129.7 249.1 130.8 246.9 130.8 C 244.5 130.8 242.2 129.6 242 127.1 C 242 127.1 243.6 127.1 243.6 127.1 C 243.9 128.8 245.4 129.4 246.9 129.4 C 248.3 129.4 249.6 128.9 249.6 127.6 C 249.6 126.3 248.3 126 247 125.8 C 244.8 125.4 242.3 125 242.3 122.4 C 242.3 120.2 244.2 119.1 246.5 119.1 C 248.9 119.1 250.8 120.2 250.9 122.5 C 250.9 122.5 249.3 122.5 249.3 122.5 C 249.2 121.1 247.9 120.5 246.5 120.5 C 244.9 120.5 243.9 121.2 243.9 122.3 C 243.9 123.8 245.2 124 246.9 124.3 C 249 124.6 251.2 124.9 251.2 127.4 Z M 255.4 114.6 L 253.6 114.6 L 253.6 116.5 L 255.4 116.5 L 255.4 114.6 Z M 255.3 130.6 L 253.7 130.6 L 253.7 119.3 L 255.3 119.3 L 255.3 130.6 Z M 267.8 122.9 C 267.79 122.85 267.8 130.6 267.8 130.6 L 266.3 130.6 C 266.3 130.6 266.25 123.04 266.3 123 C 266.3 121.5 265.4 120.5 263.8 120.5 C 261.8 120.5 260.2 121.9 260.2 124.7 C 260.16 124.66 260.2 130.6 260.2 130.6 L 258.6 130.6 L 258.6 119.3 L 260.2 119.3 C 260.2 119.3 260.16 121.4 260.2 121.4 C 260.8 120.1 262.1 119.1 264.1 119.1 C 266.3 119.1 267.8 120.4 267.8 122.9 Z M 280.8 130.6 L 279.4 130.6 C 279.4 130.6 279.38 128.4 279.4 128.4 C 278.8 129.7 277.5 130.8 275.4 130.8 C 272.4 130.8 270.3 128.5 270.3 124.9 C 270.3 121.4 272.4 119.1 275.4 119.1 C 277.3 119.1 278.7 120 279.3 121.2 C 279.32 121.22 279.3 114.6 279.3 114.6 L 280.8 114.6 L 280.8 130.6 Z M 279.3 124.9 C 279.3 122.1 277.7 120.5 275.6 120.5 C 273.4 120.5 271.9 122.2 271.9 124.9 C 271.9 127.7 273.4 129.4 275.6 129.4 C 277.8 129.4 279.3 127.7 279.3 124.9 Z " stroke="none" fill="#000"/>  </g>  <g id="Polygon11882">    <path d="M 10.1 102.2 C 10.1 104.5 8 105.6 5.7 105.6 C 3.3 105.6 1.1 104.4 0.8 101.9 C 0.8 101.9 2.5 101.9 2.5 101.9 C 2.7 103.6 4.2 104.2 5.7 104.2 C 7.2 104.2 8.5 103.7 8.5 102.4 C 8.5 101.1 7.2 100.8 5.8 100.6 C 3.7 100.2 1.1 99.8 1.1 97.2 C 1.1 95 3 93.9 5.4 93.9 C 7.7 93.9 9.6 95 9.8 97.3 C 9.8 97.3 8.2 97.3 8.2 97.3 C 8.1 95.9 6.8 95.3 5.3 95.3 C 3.8 95.3 2.7 96 2.7 97.1 C 2.7 98.6 4.1 98.8 5.8 99.1 C 7.8 99.4 10.1 99.7 10.1 102.2 Z M 14.2 89.4 L 12.5 89.4 L 12.5 91.3 L 14.2 91.3 L 14.2 89.4 Z M 14.1 105.4 L 12.6 105.4 L 12.6 94.1 L 14.1 94.1 L 14.1 105.4 Z M 22 105.6 C 18.9 105.6 16.7 103.3 16.7 99.8 C 16.7 96.2 18.8 93.9 22.1 93.9 C 24.6 93.9 26.6 95.3 26.8 97.8 C 26.8 97.8 25.3 97.8 25.3 97.8 C 25.1 96.2 23.7 95.3 22.1 95.3 C 19.9 95.3 18.3 97 18.3 99.7 C 18.3 102.5 19.8 104.2 22 104.2 C 23.8 104.2 25.1 103.2 25.2 101.4 C 25.2 101.4 26.8 101.4 26.8 101.4 C 26.6 104.1 24.5 105.6 22 105.6 Z M 38.5 97.7 C 38.53 97.65 38.5 105.4 38.5 105.4 L 37 105.4 C 37 105.4 37 97.84 37 97.8 C 37 96.3 36.1 95.3 34.5 95.3 C 32.6 95.3 30.9 96.7 30.9 99.5 C 30.91 99.46 30.9 105.4 30.9 105.4 L 29.4 105.4 L 29.4 89.4 L 30.9 89.4 C 30.9 89.4 30.91 96.08 30.9 96.1 C 31.6 94.8 32.8 93.9 34.8 93.9 C 37.1 93.9 38.5 95.2 38.5 97.7 Z M 49.1 89.4 L 47.4 89.4 L 47.4 91.3 L 49.1 91.3 L 49.1 89.4 Z M 49 105.4 L 47.5 105.4 L 47.5 94.1 L 49 94.1 L 49 105.4 Z M 61.5 97.7 C 61.51 97.65 61.5 105.4 61.5 105.4 L 60 105.4 C 60 105.4 59.97 97.84 60 97.8 C 60 96.3 59.1 95.3 57.5 95.3 C 55.6 95.3 53.9 96.7 53.9 99.5 C 53.88 99.46 53.9 105.4 53.9 105.4 L 52.4 105.4 L 52.4 94.1 L 53.9 94.1 C 53.9 94.1 53.88 96.2 53.9 96.2 C 54.6 94.9 55.8 93.9 57.8 93.9 C 60 93.9 61.5 95.2 61.5 97.7 Z M 78.4 102.2 C 78.4 104.5 76.3 105.6 74 105.6 C 71.6 105.6 69.4 104.4 69.2 101.9 C 69.2 101.9 70.8 101.9 70.8 101.9 C 71.1 103.6 72.5 104.2 74.1 104.2 C 75.5 104.2 76.8 103.7 76.8 102.4 C 76.8 101.1 75.5 100.8 74.2 100.6 C 72 100.2 69.4 99.8 69.4 97.2 C 69.4 95 71.4 93.9 73.7 93.9 C 76.1 93.9 78 95 78.1 97.3 C 78.1 97.3 76.5 97.3 76.5 97.3 C 76.4 95.9 75.1 95.3 73.6 95.3 C 72.1 95.3 71 96 71 97.1 C 71 98.6 72.4 98.8 74.1 99.1 C 76.1 99.4 78.4 99.7 78.4 102.2 Z M 85.4 105.6 C 82.3 105.6 80.2 103.3 80.2 99.8 C 80.2 96.2 82.3 93.9 85.5 93.9 C 88 93.9 90 95.3 90.2 97.8 C 90.2 97.8 88.7 97.8 88.7 97.8 C 88.5 96.2 87.1 95.3 85.5 95.3 C 83.3 95.3 81.7 97 81.7 99.7 C 81.7 102.5 83.3 104.2 85.5 104.2 C 87.2 104.2 88.6 103.2 88.7 101.4 C 88.7 101.4 90.2 101.4 90.2 101.4 C 90 104.1 87.9 105.6 85.4 105.6 Z M 102 97.7 C 101.97 97.65 102 105.4 102 105.4 L 100.4 105.4 C 100.4 105.4 100.44 97.84 100.4 97.8 C 100.4 96.3 99.6 95.3 98 95.3 C 96 95.3 94.4 96.7 94.4 99.5 C 94.35 99.46 94.4 105.4 94.4 105.4 L 92.8 105.4 L 92.8 89.4 L 94.4 89.4 C 94.4 89.4 94.35 96.08 94.4 96.1 C 95 94.8 96.2 93.9 98.2 93.9 C 100.5 93.9 102 95.2 102 97.7 Z M 116.5 105.4 L 115 105.4 L 112.1 96.4 L 109.2 105.4 L 107.6 105.4 L 104 94.1 L 105.5 94.1 L 108.4 103.4 L 111.3 94.1 L 112.9 94.1 L 115.8 103.4 L 118.6 94.1 L 120.2 94.1 L 116.5 105.4 Z M 123.9 89.4 L 122.2 89.4 L 122.2 91.3 L 123.9 91.3 L 123.9 89.4 Z M 123.8 105.4 L 122.3 105.4 L 122.3 94.1 L 123.8 94.1 L 123.8 105.4 Z M 128 100.1 C 128 102.9 129.7 104.2 131.7 104.2 C 133.2 104.2 134.7 103.5 135 101.9 C 135 101.9 136.5 101.9 136.5 101.9 C 136 104.5 133.8 105.6 131.6 105.6 C 128.9 105.6 126.4 103.8 126.4 99.8 C 126.4 95.7 129 93.9 131.7 93.9 C 134.4 93.9 136.5 95.6 136.5 99.4 C 136.54 99.35 136.5 100.1 136.5 100.1 C 136.5 100.1 127.95 100.11 128 100.1 Z M 128 98.8 C 128 98.8 135 98.8 135 98.8 C 135 96.5 133.5 95.3 131.6 95.3 C 129.9 95.3 128.2 96.4 128 98.8 Z M 144.8 95.4 C 144.8 95.4 144.44 95.43 144.4 95.4 C 142 95.4 140.7 96.8 140.7 99.4 C 140.7 99.4 140.7 105.4 140.7 105.4 L 139.2 105.4 L 139.2 94.1 L 140.7 94.1 C 140.7 94.1 140.68 96.18 140.7 96.2 C 141.2 94.7 142.6 94 144.3 94 C 144.31 93.98 144.8 94 144.8 94 L 144.8 95.4 Z M 148.4 89.4 L 146.7 89.4 L 146.7 91.3 L 148.4 91.3 L 148.4 89.4 Z M 148.3 105.4 L 146.8 105.4 L 146.8 94.1 L 148.3 94.1 L 148.3 105.4 Z M 161.4 104.9 C 161.4 108.3 159.2 110 156.3 110 C 153.8 110 151.6 108.7 151.2 106.1 C 151.2 106.1 152.8 106.1 152.8 106.1 C 153 107.5 154 108.7 156.3 108.7 C 158.4 108.7 159.9 107.6 159.9 105 C 159.9 105 159.9 102.7 159.9 102.7 C 159.1 104.4 157.4 105 155.9 105 C 153.2 105 150.9 103.1 150.9 99.4 C 150.9 95.7 153.3 93.9 156 93.9 C 157.8 93.9 159.2 94.7 159.9 95.9 C 159.87 95.93 159.9 94.1 159.9 94.1 L 161.4 94.1 C 161.4 94.1 161.38 104.88 161.4 104.9 Z M 159.8 99.4 C 159.8 96.6 158.1 95.2 156.2 95.2 C 154.3 95.2 152.5 96.6 152.5 99.4 C 152.5 102.2 154.2 103.6 156.2 103.6 C 158 103.6 159.8 102.4 159.8 99.4 Z M 165.4 100.1 C 165.5 102.9 167.2 104.2 169.2 104.2 C 170.7 104.2 172.1 103.5 172.5 101.9 C 172.5 101.9 173.9 101.9 173.9 101.9 C 173.4 104.5 171.2 105.6 169.1 105.6 C 166.4 105.6 163.9 103.8 163.9 99.8 C 163.9 95.7 166.4 93.9 169.2 93.9 C 171.8 93.9 174 95.6 174 99.4 C 174 99.35 174 100.1 174 100.1 C 174 100.1 165.41 100.11 165.4 100.1 Z M 165.5 98.8 C 165.5 98.8 172.4 98.8 172.4 98.8 C 172.4 96.5 171 95.3 169.1 95.3 C 167.3 95.3 165.7 96.4 165.5 98.8 Z M 185.8 97.7 C 185.78 97.65 185.8 105.4 185.8 105.4 L 184.3 105.4 C 184.3 105.4 184.25 97.84 184.3 97.8 C 184.3 96.3 183.4 95.3 181.8 95.3 C 179.8 95.3 178.2 96.7 178.2 99.5 C 178.16 99.46 178.2 105.4 178.2 105.4 L 176.6 105.4 L 176.6 94.1 L 178.2 94.1 C 178.2 94.1 178.16 96.2 178.2 96.2 C 178.8 94.9 180.1 93.9 182.1 93.9 C 184.3 93.9 185.8 95.2 185.8 97.7 Z M 193.6 104 L 203.3 91 L 193.8 91 L 193.8 89.6 L 205.2 89.6 L 205.2 91 L 195.5 103.9 L 205.4 103.9 L 205.4 105.4 L 193.6 105.4 L 193.6 104 Z M 208.4 100.1 C 208.4 102.9 210.2 104.2 212.2 104.2 C 213.7 104.2 215.1 103.5 215.5 101.9 C 215.5 101.9 216.9 101.9 216.9 101.9 C 216.4 104.5 214.2 105.6 212.1 105.6 C 209.4 105.6 206.9 103.8 206.9 99.8 C 206.9 95.7 209.4 93.9 212.1 93.9 C 214.8 93.9 217 95.6 217 99.4 C 216.99 99.35 217 100.1 217 100.1 C 217 100.1 208.4 100.11 208.4 100.1 Z M 208.4 98.8 C 208.4 98.8 215.4 98.8 215.4 98.8 C 215.4 96.5 214 95.3 212.1 95.3 C 210.3 95.3 208.7 96.4 208.4 98.8 Z M 221.3 89.4 L 219.5 89.4 L 219.5 91.3 L 221.3 91.3 L 221.3 89.4 Z M 221.1 105.4 L 219.6 105.4 L 219.6 94.1 L 221.1 94.1 L 221.1 105.4 Z M 229.7 105.4 C 229.7 105.4 227.99 105.38 228 105.4 C 226.5 105.4 225.2 104.9 225.2 102.4 C 225.16 102.42 225.2 95.5 225.2 95.5 L 222.9 95.5 L 222.9 94.1 L 225.2 94.1 L 225.2 90.9 L 226.7 90.5 L 226.7 94.1 L 229.4 94.1 L 229.4 95.5 L 226.7 95.5 C 226.7 95.5 226.69 102.4 226.7 102.4 C 226.7 103.4 227 104 228.2 104 C 228.24 104 229.7 104 229.7 104 L 229.7 105.4 Z M 232.6 100.1 C 232.7 102.9 234.4 104.2 236.4 104.2 C 237.9 104.2 239.4 103.5 239.7 101.9 C 239.7 101.9 241.1 101.9 241.1 101.9 C 240.6 104.5 238.5 105.6 236.3 105.6 C 233.6 105.6 231.1 103.8 231.1 99.8 C 231.1 95.7 233.7 93.9 236.4 93.9 C 239 93.9 241.2 95.6 241.2 99.4 C 241.22 99.35 241.2 100.1 241.2 100.1 C 241.2 100.1 232.63 100.11 232.6 100.1 Z M 232.7 98.8 C 232.7 98.8 239.7 98.8 239.7 98.8 C 239.7 96.5 238.2 95.3 236.3 95.3 C 234.5 95.3 232.9 96.4 232.7 98.8 Z M 253 97.7 C 253 97.65 253 105.4 253 105.4 L 251.5 105.4 C 251.5 105.4 251.47 97.84 251.5 97.8 C 251.5 96.3 250.6 95.3 249 95.3 C 247.1 95.3 245.4 96.7 245.4 99.5 C 245.38 99.46 245.4 105.4 245.4 105.4 L 243.8 105.4 L 243.8 94.1 L 245.4 94.1 C 245.4 94.1 245.38 96.2 245.4 96.2 C 246.1 94.9 247.3 93.9 249.3 93.9 C 251.5 93.9 253 95.2 253 97.7 Z " stroke="none" fill="#000"/>  </g>  <g id="Polygon11881">    <path d="M 2.5 74.9 C 2.5 77.7 4.2 79 6.2 79 C 7.7 79 9.2 78.3 9.5 76.7 C 9.5 76.7 11 76.7 11 76.7 C 10.5 79.3 8.3 80.4 6.1 80.4 C 3.4 80.4 0.9 78.6 0.9 74.6 C 0.9 70.5 3.5 68.7 6.2 68.7 C 8.9 68.7 11 70.4 11 74.2 C 11.05 74.15 11 74.9 11 74.9 C 11 74.9 2.46 74.91 2.5 74.9 Z M 2.5 73.6 C 2.5 73.6 9.5 73.6 9.5 73.6 C 9.5 71.3 8 70.1 6.1 70.1 C 4.4 70.1 2.7 71.2 2.5 73.6 Z M 15.3 64.2 L 13.6 64.2 L 13.6 66.1 L 15.3 66.1 L 15.3 64.2 Z M 15.2 80.2 L 13.7 80.2 L 13.7 68.9 L 15.2 68.9 L 15.2 80.2 Z M 27.7 72.5 C 27.72 72.45 27.7 80.2 27.7 80.2 L 26.2 80.2 C 26.2 80.2 26.19 72.64 26.2 72.6 C 26.2 71.1 25.3 70.1 23.7 70.1 C 21.8 70.1 20.1 71.5 20.1 74.3 C 20.1 74.26 20.1 80.2 20.1 80.2 L 18.6 80.2 L 18.6 68.9 L 20.1 68.9 C 20.1 68.9 20.1 71 20.1 71 C 20.8 69.7 22 68.7 24 68.7 C 26.2 68.7 27.7 70 27.7 72.5 Z M 31.8 74.9 C 31.8 77.7 33.5 79 35.5 79 C 37 79 38.5 78.3 38.8 76.7 C 38.8 76.7 40.3 76.7 40.3 76.7 C 39.8 79.3 37.6 80.4 35.4 80.4 C 32.7 80.4 30.2 78.6 30.2 74.6 C 30.2 70.5 32.8 68.7 35.5 68.7 C 38.2 68.7 40.3 70.4 40.3 74.2 C 40.34 74.15 40.3 74.9 40.3 74.9 C 40.3 74.9 31.75 74.91 31.8 74.9 Z M 31.8 73.6 C 31.8 73.6 38.8 73.6 38.8 73.6 C 38.8 71.3 37.3 70.1 35.4 70.1 C 33.7 70.1 32 71.2 31.8 73.6 Z M 52.1 72.5 C 52.12 72.45 52.1 80.2 52.1 80.2 L 50.6 80.2 C 50.6 80.2 50.59 72.64 50.6 72.6 C 50.6 71.1 49.7 70.1 48.1 70.1 C 46.2 70.1 44.5 71.5 44.5 74.3 C 44.5 74.26 44.5 80.2 44.5 80.2 L 43 80.2 L 43 68.9 L 44.5 68.9 C 44.5 68.9 44.5 71 44.5 71 C 45.2 69.7 46.4 68.7 48.4 68.7 C 50.7 68.7 52.1 70 52.1 72.5 Z M 72.3 75.7 C 72.3 77.9 70.6 80.2 67.2 80.2 C 67.22 80.2 61.3 80.2 61.3 80.2 L 61.3 64.4 C 61.3 64.4 67.49 64.43 67.5 64.4 C 70.3 64.4 71.6 66.2 71.6 68 C 71.6 69.5 70.9 71 69.3 71.7 C 71.4 72.4 72.3 74 72.3 75.7 Z M 66.8 71.2 C 69 71.2 70 69.7 70 68.3 C 70 67.1 69.1 65.8 67.2 65.8 C 67.2 65.84 62.9 65.8 62.9 65.8 L 62.9 71.2 C 62.9 71.2 66.78 71.15 66.8 71.2 Z M 70.6 75.6 C 70.6 74 69.6 72.6 67.4 72.6 C 67.39 72.56 62.9 72.6 62.9 72.6 L 62.9 78.7 C 62.9 78.7 67.22 78.73 67.2 78.7 C 69.6 78.7 70.6 77.2 70.6 75.6 Z M 74.3 74.6 C 74.3 70.9 76.5 68.7 79.7 68.7 C 82.8 68.7 85 70.9 85 74.6 C 85 78.2 82.8 80.4 79.7 80.4 C 76.6 80.4 74.3 78.2 74.3 74.6 Z M 83.4 74.5 C 83.4 71.7 81.7 70.1 79.6 70.1 C 77.4 70.1 75.9 71.8 75.9 74.6 C 75.9 77.4 77.6 79 79.7 79 C 81.9 79 83.4 77.3 83.4 74.5 Z M 100.1 80.2 C 100.1 80.2 98.45 80.18 98.4 80.2 C 97 80.2 95.6 79.7 95.6 77.2 C 95.61 77.22 95.6 70.3 95.6 70.3 L 89.8 70.3 C 89.8 70.3 89.82 77.2 89.8 77.2 C 89.8 78.2 90.1 78.8 91.4 78.8 C 91.37 78.8 92.8 78.8 92.8 78.8 L 92.8 80.2 C 92.8 80.2 91.12 80.18 91.1 80.2 C 89.6 80.2 88.3 79.7 88.3 77.2 C 88.28 77.22 88.3 70.3 88.3 70.3 L 86.1 70.3 L 86.1 68.9 L 88.3 68.9 L 88.3 65.7 L 89.8 65.3 L 89.8 68.9 L 95.6 68.9 L 95.6 65.7 L 97.1 65.3 L 97.1 68.9 L 99.9 68.9 L 99.9 70.3 L 97.1 70.3 C 97.1 70.3 97.14 77.2 97.1 77.2 C 97.1 78.2 97.4 78.8 98.7 78.8 C 98.7 78.8 100.1 78.8 100.1 78.8 L 100.1 80.2 Z M 101.6 74.6 C 101.6 70.9 103.8 68.7 106.9 68.7 C 110 68.7 112.3 70.9 112.3 74.6 C 112.3 78.2 110.1 80.4 107 80.4 C 103.8 80.4 101.6 78.2 101.6 74.6 Z M 110.7 74.5 C 110.7 71.7 109 70.1 106.9 70.1 C 104.7 70.1 103.2 71.8 103.2 74.6 C 103.2 77.4 104.9 79 107 79 C 109.2 79 110.7 77.3 110.7 74.5 Z M 114.9 68.9 L 116.4 68.9 C 116.4 68.9 116.42 70.77 116.4 70.8 C 117 69.4 118.3 68.7 119.7 68.7 C 121.4 68.7 122.7 69.6 123 71 C 123.5 69.8 124.8 68.7 126.7 68.7 C 128.8 68.7 130.4 69.8 130.4 72.1 C 130.39 72.1 130.4 80.2 130.4 80.2 L 128.9 80.2 C 128.9 80.2 128.85 72.64 128.9 72.6 C 128.9 70.9 127.8 70.1 126.5 70.1 C 124.8 70.1 123.4 71.4 123.4 73.7 C 123.39 73.73 123.4 80.2 123.4 80.2 L 121.9 80.2 C 121.9 80.2 121.88 72.64 121.9 72.6 C 121.9 70.9 120.9 70.1 119.5 70.1 C 117.9 70.1 116.4 71.3 116.4 73.7 C 116.44 73.73 116.4 80.2 116.4 80.2 L 114.9 80.2 L 114.9 68.9 Z M 133 74.1 L 133 72.7 L 139.5 72.7 L 139.5 74.1 L 133 74.1 Z M 149.6 80.2 C 149.6 80.2 149.62 78.04 149.6 78 C 148.8 79.6 147.5 80.3 145.9 80.3 C 143.7 80.3 142.1 79 142.1 76.4 C 142.11 76.36 142.1 68.9 142.1 68.9 L 143.6 68.9 C 143.6 68.9 143.64 76.17 143.6 76.2 C 143.6 78 144.6 79 146.1 79 C 147.9 79 149.6 77.6 149.6 74.7 C 149.56 74.74 149.6 68.9 149.6 68.9 L 151.1 68.9 L 151.1 80.2 L 149.6 80.2 Z M 165 74.5 C 165 78.6 162.4 80.3 159.8 80.3 C 157.9 80.3 156.6 79.4 156 78.2 C 155.99 78.23 156 84.5 156 84.5 L 154.5 84.5 L 154.5 68.9 L 155.9 68.9 C 155.9 68.9 155.94 71.28 155.9 71.3 C 156.4 69.9 157.9 68.7 160 68.7 C 162.4 68.7 165 70.4 165 74.5 Z M 163.4 74.5 C 163.4 71.4 161.6 70.2 159.7 70.2 C 157.9 70.2 156 71.4 156 74.6 C 156 77.7 157.8 78.9 159.7 78.9 C 161.6 78.9 163.4 77.7 163.4 74.5 Z M 167 74.1 L 167 72.7 L 173.4 72.7 L 173.4 74.1 L 167 74.1 Z M 185.6 75.7 L 178.1 75.7 L 176.3 80.2 L 174.6 80.2 L 180.9 64.4 L 182.6 64.4 L 189.1 80.2 L 187.4 80.2 L 185.6 75.7 Z M 181.8 66.2 L 178.6 74.3 L 185 74.3 L 181.8 66.2 Z M 200.7 72.5 C 200.72 72.45 200.7 80.2 200.7 80.2 L 199.2 80.2 C 199.2 80.2 199.18 72.64 199.2 72.6 C 199.2 71.1 198.3 70.1 196.7 70.1 C 194.8 70.1 193.1 71.5 193.1 74.3 C 193.09 74.26 193.1 80.2 193.1 80.2 L 191.6 80.2 L 191.6 68.9 L 193.1 68.9 C 193.1 68.9 193.09 71 193.1 71 C 193.8 69.7 195 68.7 197 68.7 C 199.2 68.7 200.7 70 200.7 72.5 Z M 212.3 77 C 212.3 79.3 210.3 80.4 208 80.4 C 205.6 80.4 203.4 79.2 203.1 76.7 C 203.1 76.7 204.8 76.7 204.8 76.7 C 205 78.4 206.5 79 208 79 C 209.5 79 210.8 78.5 210.8 77.2 C 210.8 75.9 209.5 75.6 208.1 75.4 C 206 75 203.4 74.6 203.4 72 C 203.4 69.8 205.3 68.7 207.6 68.7 C 210 68.7 211.9 69.8 212.1 72.1 C 212.1 72.1 210.5 72.1 210.5 72.1 C 210.4 70.7 209.1 70.1 207.6 70.1 C 206 70.1 205 70.8 205 71.9 C 205 73.4 206.4 73.6 208.1 73.9 C 210.1 74.2 212.3 74.5 212.3 77 Z M 221.8 78.1 C 220.9 79.8 219.2 80.4 217.8 80.4 C 215.9 80.4 214.1 79.3 214.1 77.1 C 214.1 75 215.6 74 217.6 73.8 C 217.6 73.8 220.2 73.4 220.2 73.4 C 221.1 73.3 221.8 73 221.8 72 C 221.8 70.7 220.6 70 219.1 70 C 217.4 70 216.3 70.8 216.1 72.1 C 216.1 72.1 214.6 72.1 214.6 72.1 C 214.9 69.8 216.7 68.7 219.2 68.7 C 221.7 68.7 223.3 69.9 223.3 72.4 C 223.29 72.39 223.3 80.2 223.3 80.2 L 221.8 80.2 C 221.8 80.2 221.8 78.12 221.8 78.1 Z M 219.9 74.7 C 219.9 74.7 218.2 74.9 218.2 74.9 C 216.8 75.1 215.7 75.6 215.7 77 C 215.7 78.4 216.8 79 218 79 C 219.8 79 221.8 77.7 221.8 75.3 C 221.8 75.3 221.8 74.2 221.8 74.2 C 221.3 74.5 220.7 74.6 219.9 74.7 Z M 231.6 80.2 C 231.6 80.2 229.93 80.18 229.9 80.2 C 228.4 80.2 227.1 79.7 227.1 77.2 C 227.09 77.22 227.1 70.3 227.1 70.3 L 224.9 70.3 L 224.9 68.9 L 227.1 68.9 L 227.1 65.7 L 228.6 65.3 L 228.6 68.9 L 231.4 68.9 L 231.4 70.3 L 228.6 70.3 C 228.6 70.3 228.62 77.2 228.6 77.2 C 228.6 78.2 228.9 78.8 230.2 78.8 C 230.18 78.8 231.6 78.8 231.6 78.8 L 231.6 80.2 Z M 233.1 78.8 L 240.1 70.3 L 233.2 70.3 L 233.2 68.9 L 242 68.9 L 242 70.3 L 234.9 78.8 L 242 78.8 L 242 80.2 L 233.1 80.2 L 233.1 78.8 Z M 246 80.1 C 245.97 80.06 245 80.1 245 80.1 L 245 78 L 247.2 78 C 247.2 78 247.19 80.12 247.2 80.1 C 247.2 82.6 245.7 83.5 244.1 83.6 C 244.1 83.6 243.9 82.7 243.9 82.7 C 245.6 82.4 246 81.4 246 80.1 Z M 264.2 80.2 L 262.8 80.2 C 262.8 80.2 262.77 78 262.8 78 C 262.2 79.3 260.9 80.4 258.8 80.4 C 255.8 80.4 253.7 78.1 253.7 74.5 C 253.7 71 255.8 68.7 258.8 68.7 C 260.7 68.7 262.1 69.6 262.7 70.8 C 262.71 70.82 262.7 64.2 262.7 64.2 L 264.2 64.2 L 264.2 80.2 Z M 262.7 74.5 C 262.7 71.7 261.1 70.1 259 70.1 C 256.8 70.1 255.3 71.8 255.3 74.5 C 255.3 77.3 256.8 79 259 79 C 261.2 79 262.7 77.3 262.7 74.5 Z M 268.4 74.9 C 268.4 77.7 270.1 79 272.1 79 C 273.6 79 275.1 78.3 275.4 76.7 C 275.4 76.7 276.9 76.7 276.9 76.7 C 276.4 79.3 274.2 80.4 272.1 80.4 C 269.4 80.4 266.9 78.6 266.9 74.6 C 266.9 70.5 269.4 68.7 272.1 68.7 C 274.8 68.7 277 70.4 277 74.2 C 276.97 74.15 277 74.9 277 74.9 C 277 74.9 268.38 74.91 268.4 74.9 Z M 268.4 73.6 C 268.4 73.6 275.4 73.6 275.4 73.6 C 275.4 71.3 273.9 70.1 272.1 70.1 C 270.3 70.1 268.6 71.2 268.4 73.6 Z M 285.2 70.2 C 285.2 70.2 284.86 70.23 284.9 70.2 C 282.5 70.2 281.1 71.6 281.1 74.2 C 281.12 74.2 281.1 80.2 281.1 80.2 L 279.6 80.2 L 279.6 68.9 L 281.1 68.9 C 281.1 68.9 281.1 70.98 281.1 71 C 281.6 69.5 283 68.8 284.7 68.8 C 284.74 68.78 285.2 68.8 285.2 68.8 L 285.2 70.2 Z " stroke="none" fill="#000"/>  </g>  <g id="Polygon11880">    <path d="M 13 50.5 C 13 52.7 11.2 55 7.9 55 C 7.85 55 1.9 55 1.9 55 L 1.9 39.2 C 1.9 39.2 8.13 39.23 8.1 39.2 C 10.9 39.2 12.3 41 12.3 42.8 C 12.3 44.3 11.5 45.8 10 46.5 C 12 47.2 13 48.8 13 50.5 Z M 7.4 46 C 9.6 46 10.7 44.5 10.7 43.1 C 10.7 41.9 9.8 40.6 7.8 40.6 C 7.83 40.64 3.5 40.6 3.5 40.6 L 3.5 46 C 3.5 46 7.41 45.95 7.4 46 Z M 11.3 50.4 C 11.3 48.8 10.2 47.4 8 47.4 C 8.02 47.36 3.5 47.4 3.5 47.4 L 3.5 53.5 C 3.5 53.5 7.85 53.53 7.9 53.5 C 10.2 53.5 11.3 52 11.3 50.4 Z M 16.5 49.7 C 16.5 52.5 18.2 53.8 20.2 53.8 C 21.7 53.8 23.2 53.1 23.5 51.5 C 23.5 51.5 25 51.5 25 51.5 C 24.5 54.1 22.3 55.2 20.1 55.2 C 17.5 55.2 15 53.4 15 49.4 C 15 45.3 17.5 43.5 20.2 43.5 C 22.9 43.5 25.1 45.2 25.1 49 C 25.05 48.95 25.1 49.7 25.1 49.7 C 25.1 49.7 16.46 49.71 16.5 49.7 Z M 16.5 48.4 C 16.5 48.4 23.5 48.4 23.5 48.4 C 23.5 46.1 22 44.9 20.1 44.9 C 18.4 44.9 16.7 46 16.5 48.4 Z M 29.3 39 L 27.6 39 L 27.6 40.9 L 29.3 40.9 L 29.3 39 Z M 29.2 55 L 27.7 55 L 27.7 43.7 L 29.2 43.7 L 29.2 55 Z M 43.8 55 L 42.1 55 L 36.7 39.2 L 38.4 39.2 L 43 53.1 L 47.6 39.2 L 49.2 39.2 L 43.8 55 Z M 49.6 49.4 C 49.6 45.7 51.8 43.5 55 43.5 C 58.1 43.5 60.3 45.7 60.3 49.4 C 60.3 53 58.1 55.2 55 55.2 C 51.9 55.2 49.6 53 49.6 49.4 Z M 58.7 49.3 C 58.7 46.5 57 44.9 54.9 44.9 C 52.7 44.9 51.2 46.6 51.2 49.4 C 51.2 52.2 52.9 53.8 55 53.8 C 57.2 53.8 58.7 52.1 58.7 49.3 Z M 72.1 47.3 C 72.09 47.25 72.1 55 72.1 55 L 70.6 55 C 70.6 55 70.56 47.44 70.6 47.4 C 70.6 45.9 69.7 44.9 68.1 44.9 C 66.1 44.9 64.5 46.3 64.5 49.1 C 64.47 49.06 64.5 55 64.5 55 L 62.9 55 L 62.9 43.7 L 64.5 43.7 C 64.5 43.7 64.47 45.8 64.5 45.8 C 65.1 44.5 66.4 43.5 68.4 43.5 C 70.6 43.5 72.1 44.8 72.1 47.3 Z M 80.5 55 C 80.5 55 78.83 54.98 78.8 55 C 77.3 55 76 54.5 76 52 C 76 52.02 76 45.1 76 45.1 L 73.8 45.1 L 73.8 43.7 L 76 43.7 L 76 40.5 L 77.5 40.1 L 77.5 43.7 L 80.3 43.7 L 80.3 45.1 L 77.5 45.1 C 77.5 45.1 77.53 52 77.5 52 C 77.5 53 77.8 53.6 79.1 53.6 C 79.09 53.6 80.5 53.6 80.5 53.6 L 80.5 55 Z M 82 49.4 C 82 45.7 84.2 43.5 87.3 43.5 C 90.4 43.5 92.7 45.7 92.7 49.4 C 92.7 53 90.4 55.2 87.3 55.2 C 84.2 55.2 82 53 82 49.4 Z M 91.1 49.3 C 91.1 46.5 89.4 44.9 87.3 44.9 C 85.1 44.9 83.5 46.6 83.5 49.4 C 83.5 52.2 85.2 53.8 87.3 53.8 C 89.5 53.8 91.1 52.1 91.1 49.3 Z M 105.8 49.3 C 105.8 52.8 103.7 55.2 100.7 55.2 C 98.7 55.2 97.3 54.1 96.7 52.9 C 96.75 52.9 96.7 55 96.7 55 L 95.3 55 L 95.3 39 L 96.8 39 C 96.8 39 96.81 45.97 96.8 46 C 97.4 44.6 98.8 43.5 100.8 43.5 C 103.7 43.5 105.8 45.7 105.8 49.3 Z M 104.2 49.4 C 104.2 46.6 102.8 45 100.6 45 C 98.4 45 96.8 46.6 96.8 49.4 C 96.8 52.2 98.3 53.9 100.5 53.9 C 102.7 53.9 104.2 52.1 104.2 49.4 Z M 109.2 49.7 C 109.2 52.5 111 53.8 113 53.8 C 114.4 53.8 115.9 53.1 116.3 51.5 C 116.3 51.5 117.7 51.5 117.7 51.5 C 117.2 54.1 115 55.2 112.9 55.2 C 110.2 55.2 107.7 53.4 107.7 49.4 C 107.7 45.3 110.2 43.5 112.9 43.5 C 115.6 43.5 117.8 45.2 117.8 49 C 117.79 48.95 117.8 49.7 117.8 49.7 C 117.8 49.7 109.2 49.71 109.2 49.7 Z M 109.2 48.4 C 109.2 48.4 116.2 48.4 116.2 48.4 C 116.2 46.1 114.8 44.9 112.9 44.9 C 111.1 44.9 109.5 46 109.2 48.4 Z M 121.9 55 L 120.4 55 L 120.4 39 L 121.9 39 L 121.9 55 Z M 138.9 51.8 C 138.9 54.1 136.9 55.2 134.6 55.2 C 132.2 55.2 129.9 54 129.7 51.5 C 129.7 51.5 131.4 51.5 131.4 51.5 C 131.6 53.2 133.1 53.8 134.6 53.8 C 136.1 53.8 137.3 53.3 137.3 52 C 137.3 50.7 136 50.4 134.7 50.2 C 132.6 49.8 130 49.4 130 46.8 C 130 44.6 131.9 43.5 134.2 43.5 C 136.6 43.5 138.5 44.6 138.6 46.9 C 138.6 46.9 137 46.9 137 46.9 C 136.9 45.5 135.6 44.9 134.2 44.9 C 132.6 44.9 131.6 45.6 131.6 46.7 C 131.6 48.2 132.9 48.4 134.7 48.7 C 136.7 49 138.9 49.3 138.9 51.8 Z M 142.2 49.7 C 142.3 52.5 144 53.8 146 53.8 C 147.5 53.8 149 53.1 149.3 51.5 C 149.3 51.5 150.7 51.5 150.7 51.5 C 150.2 54.1 148 55.2 145.9 55.2 C 143.2 55.2 140.7 53.4 140.7 49.4 C 140.7 45.3 143.3 43.5 146 43.5 C 148.6 43.5 150.8 45.2 150.8 49 C 150.82 48.95 150.8 49.7 150.8 49.7 C 150.8 49.7 142.23 49.71 142.2 49.7 Z M 142.3 48.4 C 142.3 48.4 149.3 48.4 149.3 48.4 C 149.3 46.1 147.8 44.9 145.9 44.9 C 144.1 44.9 142.5 46 142.3 48.4 Z M 158.6 55 C 158.6 55 156.93 54.98 156.9 55 C 155.4 55 154.1 54.5 154.1 52 C 154.1 52.02 154.1 45.1 154.1 45.1 L 151.9 45.1 L 151.9 43.7 L 154.1 43.7 L 154.1 40.5 L 155.6 40.1 L 155.6 43.7 L 158.4 43.7 L 158.4 45.1 L 155.6 45.1 C 155.6 45.1 155.63 52 155.6 52 C 155.6 53 155.9 53.6 157.2 53.6 C 157.18 53.6 158.6 53.6 158.6 53.6 L 158.6 55 Z M 160.1 53.6 L 167.1 45.1 L 160.2 45.1 L 160.2 43.7 L 169 43.7 L 169 45.1 L 161.9 53.6 L 169 53.6 L 169 55 L 160.1 55 L 160.1 53.6 Z M 172 49.7 C 172.1 52.5 173.8 53.8 175.8 53.8 C 177.3 53.8 178.8 53.1 179.1 51.5 C 179.1 51.5 180.5 51.5 180.5 51.5 C 180 54.1 177.8 55.2 175.7 55.2 C 173 55.2 170.5 53.4 170.5 49.4 C 170.5 45.3 173.1 43.5 175.8 43.5 C 178.4 43.5 180.6 45.2 180.6 49 C 180.62 48.95 180.6 49.7 180.6 49.7 C 180.6 49.7 172.03 49.71 172 49.7 Z M 172.1 48.4 C 172.1 48.4 179.1 48.4 179.1 48.4 C 179.1 46.1 177.6 44.9 175.7 44.9 C 173.9 44.9 172.3 46 172.1 48.4 Z M 192.4 47.3 C 192.4 47.25 192.4 55 192.4 55 L 190.9 55 C 190.9 55 190.87 47.44 190.9 47.4 C 190.9 45.9 190 44.9 188.4 44.9 C 186.5 44.9 184.8 46.3 184.8 49.1 C 184.78 49.06 184.8 55 184.8 55 L 183.2 55 L 183.2 43.7 L 184.8 43.7 C 184.8 43.7 184.78 45.8 184.8 45.8 C 185.4 44.5 186.7 43.5 188.7 43.5 C 190.9 43.5 192.4 44.8 192.4 47.3 Z M 212.2 55 L 210.7 55 L 207.8 46 L 204.8 55 L 203.3 55 L 199.6 43.7 L 201.2 43.7 L 204.1 53 L 207 43.7 L 208.5 43.7 L 211.5 53 L 214.3 43.7 L 215.9 43.7 L 212.2 55 Z M 219.6 39 L 217.9 39 L 217.9 40.9 L 219.6 40.9 L 219.6 39 Z M 219.5 55 L 218 55 L 218 43.7 L 219.5 43.7 L 219.5 55 Z M 228.5 45 C 228.5 45 228.12 45.03 228.1 45 C 225.7 45 224.4 46.4 224.4 49 C 224.38 49 224.4 55 224.4 55 L 222.8 55 L 222.8 43.7 L 224.4 43.7 C 224.4 43.7 224.36 45.78 224.4 45.8 C 224.9 44.3 226.3 43.6 228 43.6 C 227.99 43.58 228.5 43.6 228.5 43.6 L 228.5 45 Z M 242.4 52.9 C 241.6 54.6 239.9 55.2 238.4 55.2 C 236.5 55.2 234.8 54.1 234.8 51.9 C 234.8 49.8 236.3 48.8 238.2 48.6 C 238.2 48.6 240.9 48.2 240.9 48.2 C 241.7 48.1 242.4 47.8 242.4 46.8 C 242.4 45.5 241.3 44.8 239.7 44.8 C 238 44.8 237 45.6 236.8 46.9 C 236.8 46.9 235.2 46.9 235.2 46.9 C 235.5 44.6 237.3 43.5 239.8 43.5 C 242.4 43.5 243.9 44.7 243.9 47.2 C 243.93 47.19 243.9 55 243.9 55 L 242.4 55 C 242.4 55 242.44 52.92 242.4 52.9 Z M 240.6 49.5 C 240.6 49.5 238.9 49.7 238.9 49.7 C 237.4 49.9 236.4 50.4 236.4 51.8 C 236.4 53.2 237.4 53.8 238.7 53.8 C 240.4 53.8 242.4 52.5 242.4 50.1 C 242.4 50.1 242.4 49 242.4 49 C 242 49.3 241.3 49.4 240.6 49.5 Z M 254.5 55 C 254.5 55 254.5 52.84 254.5 52.8 C 253.7 54.4 252.3 55.1 250.7 55.1 C 248.6 55.1 247 53.8 247 51.2 C 246.98 51.16 247 43.7 247 43.7 L 248.5 43.7 C 248.5 43.7 248.51 50.97 248.5 51 C 248.5 52.8 249.5 53.8 251 53.8 C 252.8 53.8 254.4 52.4 254.4 49.5 C 254.43 49.54 254.4 43.7 254.4 43.7 L 256 43.7 L 256 55 L 254.5 55 Z M 262.9 40.3 C 261.7 40.3 261.4 40.9 261.4 42 C 261.36 41.96 261.4 43.7 261.4 43.7 L 263.9 43.7 L 263.9 45.1 L 261.4 45.1 L 261.4 55 L 259.8 55 L 259.8 45.1 L 258 45.1 L 258 43.7 L 259.8 43.7 C 259.8 43.7 259.83 41.92 259.8 41.9 C 259.8 39.4 261.2 39 262.7 39 C 262.67 38.98 264.2 39 264.2 39 L 264.2 40.3 C 264.2 40.3 262.92 40.34 262.9 40.3 Z " stroke="none" fill="#000"/>  </g>  <g id="Polygon11879">    <path d="M 8 19.8 C 8.02 19.78 1.6 19.8 1.6 19.8 L 1.6 4 C 1.6 4 8.3 4.03 8.3 4 C 11.2 4 12.6 6 12.6 7.9 C 12.6 9.2 11.9 10.6 10.4 11.3 C 12.5 12.1 13.3 13.8 13.3 15.2 C 13.3 17.5 11.4 19.8 8 19.8 Z M 7.5 10.4 C 8.9 10.4 9.7 9.4 9.7 8.5 C 9.7 7.6 9 6.8 7.6 6.8 C 7.6 6.76 4.5 6.8 4.5 6.8 L 4.5 10.4 C 4.5 10.4 7.5 10.35 7.5 10.4 Z M 10.4 14.8 C 10.3 13.8 9.5 12.9 7.9 12.9 C 7.94 12.85 4.5 12.9 4.5 12.9 L 4.5 17 C 4.5 17 7.75 17.03 7.7 17 C 9.5 17 10.4 15.9 10.4 14.8 Z M 26 14 C 26 17.8 23.6 20 20.3 20 C 17.1 20 14.7 17.8 14.7 14 C 14.7 10.2 17.1 8 20.3 8 C 23.6 8 26 10.2 26 14 Z M 17.6 14 C 17.6 16.3 18.8 17.4 20.4 17.4 C 22 17.4 23.2 16.2 23.2 14 C 23.2 11.7 21.9 10.6 20.3 10.6 C 18.7 10.6 17.6 11.8 17.6 14 Z M 40.9 19.8 C 40.9 19.8 39.12 19.78 39.1 19.8 C 37 19.8 35.6 19.1 35.6 16 C 35.57 16 35.6 10.7 35.6 10.7 L 31.4 10.7 C 31.4 10.7 31.35 16.13 31.4 16.1 C 31.4 16.8 31.5 17.3 32.5 17.3 C 32.53 17.3 33.9 17.3 33.9 17.3 L 33.9 19.8 C 33.9 19.8 32.11 19.78 32.1 19.8 C 29.9 19.8 28.6 19.1 28.6 16 C 28.56 16 28.6 10.7 28.6 10.7 L 26.4 10.7 L 26.4 8.2 L 28.6 8.2 L 28.6 5.6 L 31.4 4.8 L 31.4 8.2 L 35.6 8.2 L 35.6 5.6 L 38.4 4.8 L 38.4 8.2 L 40.7 8.2 L 40.7 10.7 L 38.4 10.7 C 38.4 10.7 38.37 16.13 38.4 16.1 C 38.4 16.8 38.6 17.3 39.5 17.3 C 39.54 17.3 40.9 17.3 40.9 17.3 L 40.9 19.8 Z M 53.1 14 C 53.1 17.8 50.7 20 47.4 20 C 44.2 20 41.8 17.8 41.8 14 C 41.8 10.2 44.2 8 47.4 8 C 50.7 8 53.1 10.2 53.1 14 Z M 44.6 14 C 44.6 16.3 45.9 17.4 47.5 17.4 C 49.1 17.4 50.3 16.2 50.3 14 C 50.3 11.7 49 10.6 47.4 10.6 C 45.8 10.6 44.6 11.8 44.6 14 Z M 71.5 12 C 71.46 11.97 71.5 19.8 71.5 19.8 L 68.7 19.8 C 68.7 19.8 68.67 12.52 68.7 12.5 C 68.7 11.1 68 10.5 66.9 10.5 C 65.5 10.5 64.7 11.3 64.7 13.3 C 64.68 13.27 64.7 19.8 64.7 19.8 L 61.9 19.8 C 61.9 19.8 61.89 12.52 61.9 12.5 C 61.9 11.1 61.2 10.5 60.1 10.5 C 58.8 10.5 57.9 11.3 57.9 13.3 C 57.9 13.25 57.9 19.8 57.9 19.8 L 55.1 19.8 L 55.1 8.2 L 57.9 8.2 C 57.9 8.2 57.85 9.89 57.9 9.9 C 58.2 9 59.1 8 60.9 8 C 62.3 8 63.5 8.7 64 9.9 C 64.5 9.1 65.3 8 67.4 8 C 69.9 8 71.5 9.5 71.5 12 Z M 80.2 11.9 L 73.8 11.9 L 73.8 14.4 L 80.2 14.4 L 80.2 11.9 Z M 92.8 19.8 L 90.1 19.8 C 90.1 19.8 90.07 18.14 90.1 18.1 C 89.4 19.2 88.3 19.9 86.7 19.9 C 84.3 19.9 82.6 18.4 82.6 15.4 C 82.55 15.39 82.6 8.2 82.6 8.2 L 85.3 8.2 C 85.3 8.2 85.34 15.18 85.3 15.2 C 85.3 16.8 86.1 17.4 87.3 17.4 C 88.9 17.4 90 16.5 90 13.8 C 90.01 13.8 90 8.2 90 8.2 L 92.8 8.2 L 92.8 19.8 Z M 106.9 13.8 C 106.9 18 104.3 19.9 101.6 19.9 C 100 19.9 99 19.2 98.3 18.4 C 98.32 18.4 98.3 24.1 98.3 24.1 L 95.5 24.1 L 95.5 8.2 L 98.3 8.2 C 98.3 8.2 98.26 10.04 98.3 10 C 98.8 8.8 100.2 8 101.9 8 C 104.6 8 106.9 9.9 106.9 13.8 Z M 104.1 14 C 104.1 11.6 102.7 10.5 101.2 10.5 C 99.7 10.5 98.2 11.6 98.2 14 C 98.2 16.3 99.7 17.4 101.2 17.4 C 102.7 17.4 104.1 16.3 104.1 14 Z M 115.1 11.9 L 108.6 11.9 L 108.6 14.4 L 115.1 14.4 L 115.1 11.9 Z M 127 19.8 L 123 13.5 L 120.6 13.5 L 120.6 19.8 L 117.7 19.8 L 117.7 4 C 117.7 4 123.84 4.03 123.8 4 C 127.4 4 129.1 6.3 129.1 8.6 C 129.1 10.4 128 12.3 126 12.9 C 126.04 12.94 130.5 19.8 130.5 19.8 L 127 19.8 Z M 126.2 8.7 C 126.2 7.8 125.6 6.8 124 6.8 C 123.96 6.76 120.6 6.8 120.6 6.8 L 120.6 10.8 C 120.6 10.8 123.73 10.81 123.7 10.8 C 125.4 10.8 126.2 9.8 126.2 8.7 Z M 133.7 14.8 C 133.7 16.7 135.1 17.6 136.6 17.6 C 137.7 17.6 138.8 17.2 139.1 16.1 C 139.1 16.1 141.7 16.1 141.7 16.1 C 141.2 18.7 138.9 20 136.5 20 C 133.7 20 131 18.1 131 14 C 131 10 133.6 8 136.5 8 C 139.4 8 141.7 9.8 141.7 13.7 C 141.73 13.69 141.7 14.8 141.7 14.8 C 141.7 14.8 133.66 14.83 133.7 14.8 Z M 133.7 12.8 C 133.7 12.8 139 12.8 139 12.8 C 139 11.3 137.9 10.4 136.5 10.4 C 135.2 10.4 134 11.1 133.7 12.8 Z M 153 16.2 C 153 18.8 150.7 20 148.1 20 C 145.7 20 143.1 19 142.9 16.1 C 142.9 16.1 145.7 16.1 145.7 16.1 C 145.9 17.2 146.9 17.7 148.2 17.7 C 149.4 17.7 150.2 17.3 150.2 16.5 C 150.2 15.7 149.7 15.6 148.1 15.3 C 145.8 14.9 143.2 14.5 143.2 11.7 C 143.2 9.1 145.4 8 147.8 8 C 150.5 8 152.5 9.3 152.7 11.9 C 152.7 11.9 150 11.9 150 11.9 C 149.9 10.8 149.1 10.3 147.9 10.3 C 146.5 10.3 145.9 10.9 145.9 11.6 C 145.9 12.5 147 12.7 148.4 12.9 C 150.5 13.2 153 13.5 153 16.2 Z M 156.8 14.8 C 156.9 16.7 158.3 17.6 159.8 17.6 C 160.9 17.6 162 17.2 162.3 16.1 C 162.3 16.1 164.9 16.1 164.9 16.1 C 164.4 18.7 162.1 20 159.7 20 C 156.9 20 154.1 18.1 154.1 14 C 154.1 10 156.8 8 159.7 8 C 162.5 8 164.9 9.8 164.9 13.7 C 164.91 13.69 164.9 14.8 164.9 14.8 C 164.9 14.8 156.85 14.83 156.8 14.8 Z M 156.9 12.8 C 156.9 12.8 162.2 12.8 162.2 12.8 C 162.2 11.3 161.1 10.4 159.7 10.4 C 158.4 10.4 157.2 11.1 156.9 12.8 Z M 176.2 12 C 176.17 11.99 176.2 19.8 176.2 19.8 L 173.4 19.8 C 173.4 19.8 173.44 18.1 173.4 18.1 C 172.5 19.6 171.1 20 169.9 20 C 168.1 20 166.2 18.9 166.2 16.4 C 166.2 14.6 167.2 13.4 169.9 13 C 169.9 13 172.4 12.6 172.4 12.6 C 173.1 12.5 173.5 12.3 173.5 11.6 C 173.5 10.6 172.7 10.2 171.6 10.2 C 170.1 10.2 169.4 10.9 169.3 11.9 C 169.3 11.9 166.6 11.9 166.6 11.9 C 166.9 9.2 169.1 8 171.7 8 C 174.4 8 176.2 9.3 176.2 12 Z M 173.5 14.9 C 173.5 14.9 173.5 14.3 173.5 14.3 C 173.2 14.4 172.7 14.6 172.1 14.6 C 172.1 14.6 170.8 14.8 170.8 14.8 C 169.4 15 169 15.6 169 16.3 C 169 17.2 169.6 17.7 170.6 17.7 C 172 17.7 173.5 16.6 173.5 14.9 Z M 185.2 10.8 C 185.2 10.8 184.5 10.77 184.5 10.8 C 182.6 10.8 181.5 11.8 181.5 14.1 C 181.48 14.11 181.5 19.8 181.5 19.8 L 178.7 19.8 L 178.7 8.2 L 181.5 8.2 C 181.5 8.2 181.46 9.85 181.5 9.8 C 182 8.6 183.1 8.1 184.5 8.1 C 184.48 8.06 185.2 8.1 185.2 8.1 L 185.2 10.8 Z M 191.3 20 C 187.5 20 185.7 17.1 185.7 14 C 185.7 10.9 187.5 8 191.3 8 C 194.1 8 196.3 9.6 196.4 12.4 C 196.4 12.4 193.7 12.4 193.7 12.4 C 193.5 11.3 192.7 10.5 191.4 10.5 C 189.3 10.5 188.5 12.2 188.5 14 C 188.5 15.9 189.4 17.4 191.3 17.4 C 192.7 17.4 193.5 16.7 193.7 15.7 C 193.7 15.7 196.5 15.7 196.5 15.7 C 196.1 18.5 194.1 20 191.3 20 Z M 208.7 12.3 C 208.65 12.31 208.7 19.8 208.7 19.8 L 205.9 19.8 C 205.9 19.8 205.86 12.56 205.9 12.6 C 205.9 11.3 205.1 10.5 203.8 10.5 C 202.2 10.5 201.3 11.6 201.3 13.5 C 201.26 13.52 201.3 19.8 201.3 19.8 L 198.5 19.8 L 198.5 3.8 L 201.3 3.8 C 201.3 3.8 201.26 9.83 201.3 9.8 C 201.9 8.7 202.9 8 204.8 8 C 207.4 8 208.7 9.5 208.7 12.3 Z " stroke="none" fill="#000"/>  </g></svg>