<?xml version="1.0" standalone="no"?><!DOCTYPE svg PUBLIC "-//W3C//DTD SVG 1.1//EN" "http://www.w3.org/Graphics/SVG/1.1/DTD/svg11.dtd"><svg xmlns="http://www.w3.org/2000/svg" version="1.1" width="373px" height="155.4px" viewBox="0 -4 373 155.4" style="top:-4px">  <desc>Where are you seeing opportunities in EM Hard or local currencies, or even corporates</desc>  <defs/>  <g id="Polygon10789">    <path d="M 3.3 65.2 C 3.4 67.1 4.7 68 6.3 68 C 7.4 68 8.5 67.6 8.8 66.5 C 8.8 66.5 11.4 66.5 11.4 66.5 C 10.9 69.1 8.6 70.4 6.2 70.4 C 3.4 70.4 0.6 68.5 0.6 64.4 C 0.6 60.4 3.3 58.4 6.2 58.4 C 9 58.4 11.4 60.2 11.4 64.1 C 11.4 64.09 11.4 65.2 11.4 65.2 C 11.4 65.2 3.34 65.23 3.3 65.2 Z M 3.4 63.2 C 3.4 63.2 8.7 63.2 8.7 63.2 C 8.7 61.7 7.6 60.8 6.2 60.8 C 4.9 60.8 3.7 61.5 3.4 63.2 Z M 19.3 70.2 L 16.3 70.2 L 12 58.6 L 15 58.6 L 17.8 66.9 L 20.7 58.6 L 23.6 58.6 L 19.3 70.2 Z M 26.7 65.2 C 26.8 67.1 28.1 68 29.7 68 C 30.8 68 31.8 67.6 32.2 66.5 C 32.2 66.5 34.7 66.5 34.7 66.5 C 34.2 69.1 31.9 70.4 29.6 70.4 C 26.8 70.4 24 68.5 24 64.4 C 24 60.4 26.6 58.4 29.6 58.4 C 32.4 58.4 34.8 60.2 34.8 64.1 C 34.78 64.09 34.8 65.2 34.8 65.2 C 34.8 65.2 26.71 65.23 26.7 65.2 Z M 26.8 63.2 C 26.8 63.2 32 63.2 32 63.2 C 32 61.7 31 60.8 29.5 60.8 C 28.3 60.8 27 61.5 26.8 63.2 Z M 47 62.7 C 46.96 62.71 47 70.2 47 70.2 L 44.2 70.2 C 44.2 70.2 44.16 62.96 44.2 63 C 44.2 61.7 43.4 60.9 42.1 60.9 C 40.5 60.9 39.6 62 39.6 63.9 C 39.56 63.92 39.6 70.2 39.6 70.2 L 36.8 70.2 L 36.8 58.6 L 39.5 58.6 C 39.5 58.6 39.54 60.27 39.5 60.3 C 40.2 59.2 41.1 58.4 43.1 58.4 C 45.7 58.4 47 59.9 47 62.7 Z M 59.7 70.4 C 55.9 70.4 54.1 67.5 54.1 64.4 C 54.1 61.3 55.9 58.4 59.7 58.4 C 62.6 58.4 64.7 60 64.8 62.8 C 64.8 62.8 62.1 62.8 62.1 62.8 C 61.9 61.7 61.2 60.9 59.8 60.9 C 57.7 60.9 56.9 62.6 56.9 64.4 C 56.9 66.3 57.8 67.8 59.8 67.8 C 61.1 67.8 61.9 67.1 62.1 66.1 C 62.1 66.1 64.9 66.1 64.9 66.1 C 64.5 68.9 62.5 70.4 59.7 70.4 Z M 77.5 64.4 C 77.5 68.2 75.1 70.4 71.8 70.4 C 68.6 70.4 66.2 68.2 66.2 64.4 C 66.2 60.6 68.6 58.4 71.8 58.4 C 75.1 58.4 77.5 60.6 77.5 64.4 Z M 69 64.4 C 69 66.7 70.3 67.8 71.9 67.8 C 73.5 67.8 74.6 66.6 74.6 64.4 C 74.6 62.1 73.4 61 71.8 61 C 70.1 61 69 62.2 69 64.4 Z M 86 61.2 C 86 61.2 85.3 61.17 85.3 61.2 C 83.3 61.2 82.3 62.2 82.3 64.5 C 82.28 64.51 82.3 70.2 82.3 70.2 L 79.5 70.2 L 79.5 58.6 L 82.3 58.6 C 82.3 58.6 82.26 60.25 82.3 60.2 C 82.8 59 83.9 58.5 85.3 58.5 C 85.28 58.46 86 58.5 86 58.5 L 86 61.2 Z M 98.8 64.2 C 98.8 68.4 96.2 70.3 93.5 70.3 C 91.9 70.3 90.8 69.6 90.2 68.8 C 90.19 68.8 90.2 74.5 90.2 74.5 L 87.4 74.5 L 87.4 58.6 L 90.1 58.6 C 90.1 58.6 90.13 60.44 90.1 60.4 C 90.7 59.2 92 58.4 93.7 58.4 C 96.5 58.4 98.8 60.3 98.8 64.2 Z M 95.9 64.4 C 95.9 62 94.6 60.9 93.1 60.9 C 91.5 60.9 90.1 62 90.1 64.4 C 90.1 66.7 91.5 67.8 93.1 67.8 C 94.6 67.8 95.9 66.7 95.9 64.4 Z M 111.4 64.4 C 111.4 68.2 108.9 70.4 105.7 70.4 C 102.5 70.4 100 68.2 100 64.4 C 100 60.6 102.5 58.4 105.7 58.4 C 108.9 58.4 111.4 60.6 111.4 64.4 Z M 102.9 64.4 C 102.9 66.7 104.2 67.8 105.7 67.8 C 107.4 67.8 108.5 66.6 108.5 64.4 C 108.5 62.1 107.2 61 105.7 61 C 104 61 102.9 62.2 102.9 64.4 Z M 119.9 61.2 C 119.9 61.2 119.17 61.17 119.2 61.2 C 117.2 61.2 116.2 62.2 116.2 64.5 C 116.15 64.51 116.2 70.2 116.2 70.2 L 113.4 70.2 L 113.4 58.6 L 116.1 58.6 C 116.1 58.6 116.13 60.25 116.1 60.2 C 116.7 59 117.8 58.5 119.2 58.5 C 119.15 58.46 119.9 58.5 119.9 58.5 L 119.9 61.2 Z M 130.5 62.4 C 130.54 62.39 130.5 70.2 130.5 70.2 L 127.8 70.2 C 127.8 70.2 127.81 68.5 127.8 68.5 C 126.9 70 125.5 70.4 124.3 70.4 C 122.5 70.4 120.5 69.3 120.5 66.8 C 120.5 65 121.6 63.8 124.2 63.4 C 124.2 63.4 126.7 63 126.7 63 C 127.4 62.9 127.9 62.7 127.9 62 C 127.9 61 127.1 60.6 126 60.6 C 124.5 60.6 123.8 61.3 123.7 62.3 C 123.7 62.3 121 62.3 121 62.3 C 121.3 59.6 123.5 58.4 126.1 58.4 C 128.8 58.4 130.5 59.7 130.5 62.4 Z M 127.8 65.3 C 127.8 65.3 127.8 64.7 127.8 64.7 C 127.6 64.8 127 65 126.5 65 C 126.5 65 125.2 65.2 125.2 65.2 C 123.8 65.4 123.3 66 123.3 66.7 C 123.3 67.6 124 68.1 124.9 68.1 C 126.4 68.1 127.8 67 127.8 65.3 Z M 139 70.2 C 139 70.2 137.15 70.18 137.1 70.2 C 135 70.2 133.6 69.5 133.6 66.4 C 133.6 66.4 133.6 61.1 133.6 61.1 L 131.5 61.1 L 131.5 58.6 L 133.6 58.6 L 133.6 56 L 136.4 55.2 L 136.4 58.6 L 138.7 58.6 L 138.7 61.1 L 136.4 61.1 C 136.4 61.1 136.39 66.53 136.4 66.5 C 136.4 67.2 136.6 67.7 137.6 67.7 C 137.57 67.7 139 67.7 139 67.7 L 139 70.2 Z M 142.5 65.2 C 142.6 67.1 143.9 68 145.5 68 C 146.6 68 147.6 67.6 148 66.5 C 148 66.5 150.5 66.5 150.5 66.5 C 150 69.1 147.8 70.4 145.4 70.4 C 142.6 70.4 139.8 68.5 139.8 64.4 C 139.8 60.4 142.4 58.4 145.4 58.4 C 148.2 58.4 150.6 60.2 150.6 64.1 C 150.59 64.09 150.6 65.2 150.6 65.2 C 150.6 65.2 142.53 65.23 142.5 65.2 Z M 142.6 63.2 C 142.6 63.2 147.9 63.2 147.9 63.2 C 147.9 61.7 146.8 60.8 145.4 60.8 C 144.1 60.8 142.8 61.5 142.6 63.2 Z M 161.8 66.6 C 161.8 69.2 159.5 70.4 156.9 70.4 C 154.5 70.4 151.9 69.4 151.7 66.5 C 151.7 66.5 154.6 66.5 154.6 66.5 C 154.7 67.6 155.8 68.1 157.1 68.1 C 158.3 68.1 159.1 67.7 159.1 66.9 C 159.1 66.1 158.5 66 157 65.7 C 154.7 65.3 152.1 64.9 152.1 62.1 C 152.1 59.5 154.3 58.4 156.7 58.4 C 159.4 58.4 161.4 59.7 161.6 62.3 C 161.6 62.3 158.8 62.3 158.8 62.3 C 158.7 61.2 157.9 60.7 156.7 60.7 C 155.4 60.7 154.8 61.3 154.8 62 C 154.8 62.9 155.8 63.1 157.2 63.3 C 159.3 63.6 161.8 63.9 161.8 66.6 Z M 166.5 64.6 C 166.5 61.9 167.9 61.4 169.1 60.5 C 170.1 59.8 170.6 59.2 170.6 58.4 C 170.6 57.2 169.7 56.6 168.5 56.6 C 167 56.6 166.1 57.4 166 58.8 C 166 58.8 163.2 58.8 163.2 58.8 C 163.5 55.4 165.9 54.2 168.5 54.2 C 171.3 54.2 173.5 55.5 173.5 58.3 C 173.5 60.5 172.2 61.4 170.7 62.4 C 169.7 63.2 169.2 63.7 169.2 64.6 C 169.17 64.64 169.2 65.3 169.2 65.3 L 166.5 65.3 C 166.5 65.3 166.51 64.55 166.5 64.6 Z M 166.3 66.9 L 169.4 66.9 L 169.4 70.2 L 166.3 70.2 L 166.3 66.9 Z " stroke="none" fill="#000"/>  </g>  <g id="Polygon10788">    <path d="M 1.3 31.9 L 4.2 31.9 L 4.2 28.7 L 1.3 28.7 L 1.3 31.9 Z M 1.3 33.4 L 4.1 33.4 L 4.1 45 L 1.3 45 L 1.3 33.4 Z M 17 37.5 C 17.03 37.51 17 45 17 45 L 14.2 45 C 14.2 45 14.24 37.76 14.2 37.8 C 14.2 36.5 13.5 35.7 12.2 35.7 C 10.6 35.7 9.6 36.8 9.6 38.7 C 9.64 38.72 9.6 45 9.6 45 L 6.8 45 L 6.8 33.4 L 9.6 33.4 C 9.6 33.4 9.62 35.07 9.6 35.1 C 10.3 34 11.2 33.2 13.1 33.2 C 15.8 33.2 17 34.7 17 37.5 Z M 25.5 45 L 25.5 29.2 L 36.1 29.2 L 36.1 32 L 28.5 32 L 28.5 35.6 L 35.7 35.6 L 35.7 38.4 L 28.5 38.4 L 28.5 42.2 L 36.5 42.2 L 36.5 45 L 25.5 45 Z M 54.9 45 L 52.2 45 L 52.2 34.1 L 48.1 45 L 45.5 45 L 41.4 34.1 L 41.4 45 L 38.7 45 L 38.7 29.2 L 42.5 29.2 L 46.8 40.8 L 51.2 29.2 L 54.9 29.2 L 54.9 45 Z M 60.6 39.4 C 60.6 36.7 62 36.2 63.2 35.3 C 64.2 34.6 64.7 34 64.7 33.2 C 64.7 32 63.8 31.4 62.6 31.4 C 61.2 31.4 60.2 32.2 60.2 33.6 C 60.2 33.6 57.3 33.6 57.3 33.6 C 57.6 30.2 60.1 29 62.7 29 C 65.4 29 67.6 30.3 67.6 33.1 C 67.6 35.3 66.3 36.2 64.9 37.2 C 63.8 38 63.3 38.5 63.3 39.4 C 63.29 39.44 63.3 40.1 63.3 40.1 L 60.6 40.1 C 60.6 40.1 60.63 39.35 60.6 39.4 Z M 60.4 41.7 L 63.5 41.7 L 63.5 45 L 60.4 45 L 60.4 41.7 Z M 88.7 45 L 85.8 45 L 85.8 38.4 L 78.6 38.4 L 78.6 45 L 75.7 45 L 75.7 29.2 L 78.6 29.2 L 78.6 35.7 L 85.8 35.7 L 85.8 29.2 L 88.7 29.2 L 88.7 45 Z M 100.9 37.2 C 100.88 37.19 100.9 45 100.9 45 L 98.2 45 C 98.2 45 98.15 43.3 98.2 43.3 C 97.2 44.8 95.9 45.2 94.6 45.2 C 92.8 45.2 90.9 44.1 90.9 41.6 C 90.9 39.8 91.9 38.6 94.6 38.2 C 94.6 38.2 97.1 37.8 97.1 37.8 C 97.8 37.7 98.3 37.5 98.3 36.8 C 98.3 35.8 97.4 35.4 96.3 35.4 C 94.8 35.4 94.1 36.1 94 37.1 C 94 37.1 91.3 37.1 91.3 37.1 C 91.6 34.4 93.8 33.2 96.4 33.2 C 99.2 33.2 100.9 34.5 100.9 37.2 Z M 98.2 40.1 C 98.2 40.1 98.2 39.5 98.2 39.5 C 97.9 39.6 97.4 39.8 96.8 39.8 C 96.8 39.8 95.5 40 95.5 40 C 94.1 40.2 93.7 40.8 93.7 41.5 C 93.7 42.4 94.3 42.9 95.3 42.9 C 96.7 42.9 98.2 41.8 98.2 40.1 Z M 110 36 C 110 36 109.22 35.97 109.2 36 C 107.3 36 106.2 37 106.2 39.3 C 106.2 39.31 106.2 45 106.2 45 L 103.4 45 L 103.4 33.4 L 106.2 33.4 C 106.2 33.4 106.17 35.05 106.2 35 C 106.8 33.8 107.8 33.3 109.2 33.3 C 109.2 33.26 110 33.3 110 33.3 L 110 36 Z M 121.8 45 L 119 45 C 119 45 119.03 43.2 119 43.2 C 118.4 44.5 117.1 45.2 115.5 45.2 C 112.7 45.2 110.4 43.2 110.4 39.2 C 110.4 35.2 112.7 33.2 115.5 33.2 C 117 33.2 118.3 33.8 119 34.9 C 118.96 34.92 119 29 119 29 L 121.8 29 L 121.8 45 Z M 119 39.2 C 119 36.8 117.6 35.7 116.1 35.7 C 114.6 35.7 113.2 36.8 113.2 39.2 C 113.2 41.5 114.6 42.7 116.1 42.7 C 117.6 42.7 119 41.5 119 39.2 Z M 140.3 39.2 C 140.3 43 137.9 45.2 134.7 45.2 C 131.4 45.2 129 43 129 39.2 C 129 35.4 131.4 33.2 134.7 33.2 C 137.9 33.2 140.3 35.4 140.3 39.2 Z M 131.9 39.2 C 131.9 41.5 133.1 42.6 134.7 42.6 C 136.4 42.6 137.5 41.4 137.5 39.2 C 137.5 36.9 136.2 35.8 134.6 35.8 C 133 35.8 131.9 37 131.9 39.2 Z M 148.9 36 C 148.9 36 148.13 35.97 148.1 36 C 146.2 36 145.1 37 145.1 39.3 C 145.11 39.31 145.1 45 145.1 45 L 142.3 45 L 142.3 33.4 L 145.1 33.4 C 145.1 33.4 145.09 35.05 145.1 35 C 145.7 33.8 146.7 33.3 148.1 33.3 C 148.11 33.26 148.9 33.3 148.9 33.3 L 148.9 36 Z M 158.1 45 L 155.3 45 L 155.3 29 L 158.1 29 L 158.1 45 Z M 171.4 39.2 C 171.4 43 169 45.2 165.7 45.2 C 162.5 45.2 160.1 43 160.1 39.2 C 160.1 35.4 162.5 33.2 165.7 33.2 C 169 33.2 171.4 35.4 171.4 39.2 Z M 162.9 39.2 C 162.9 41.5 164.2 42.6 165.8 42.6 C 167.4 42.6 168.5 41.4 168.5 39.2 C 168.5 36.9 167.2 35.8 165.7 35.8 C 164 35.8 162.9 37 162.9 39.2 Z M 178.3 45.2 C 174.5 45.2 172.6 42.3 172.6 39.2 C 172.6 36.1 174.4 33.2 178.2 33.2 C 181.1 33.2 183.3 34.8 183.4 37.6 C 183.4 37.6 180.6 37.6 180.6 37.6 C 180.5 36.5 179.7 35.7 178.3 35.7 C 176.3 35.7 175.5 37.4 175.5 39.2 C 175.5 41.1 176.3 42.6 178.3 42.6 C 179.7 42.6 180.5 41.9 180.7 40.9 C 180.7 40.9 183.4 40.9 183.4 40.9 C 183.1 43.7 181.1 45.2 178.3 45.2 Z M 194.7 37.2 C 194.71 37.19 194.7 45 194.7 45 L 192 45 C 192 45 191.98 43.3 192 43.3 C 191.1 44.8 189.7 45.2 188.5 45.2 C 186.6 45.2 184.7 44.1 184.7 41.6 C 184.7 39.8 185.7 38.6 188.4 38.2 C 188.4 38.2 190.9 37.8 190.9 37.8 C 191.6 37.7 192.1 37.5 192.1 36.8 C 192.1 35.8 191.2 35.4 190.1 35.4 C 188.6 35.4 188 36.1 187.9 37.1 C 187.9 37.1 185.2 37.1 185.2 37.1 C 185.5 34.4 187.6 33.2 190.3 33.2 C 193 33.2 194.7 34.5 194.7 37.2 Z M 192 40.1 C 192 40.1 192 39.5 192 39.5 C 191.7 39.6 191.2 39.8 190.6 39.8 C 190.6 39.8 189.4 40 189.4 40 C 188 40.2 187.5 40.8 187.5 41.5 C 187.5 42.4 188.2 42.9 189.1 42.9 C 190.6 42.9 192 41.8 192 40.1 Z M 200 45 L 197.2 45 L 197.2 29 L 200 29 L 200 45 Z M 212.9 45.2 C 209.1 45.2 207.3 42.3 207.3 39.2 C 207.3 36.1 209.1 33.2 212.9 33.2 C 215.7 33.2 217.9 34.8 218 37.6 C 218 37.6 215.3 37.6 215.3 37.6 C 215.1 36.5 214.3 35.7 213 35.7 C 210.9 35.7 210.1 37.4 210.1 39.2 C 210.1 41.1 211 42.6 212.9 42.6 C 214.3 42.6 215.1 41.9 215.3 40.9 C 215.3 40.9 218.1 40.9 218.1 40.9 C 217.7 43.7 215.7 45.2 212.9 45.2 Z M 230.2 45 L 227.5 45 C 227.5 45 227.49 43.34 227.5 43.3 C 226.8 44.4 225.8 45.1 224.2 45.1 C 221.7 45.1 220 43.6 220 40.6 C 219.97 40.59 220 33.4 220 33.4 L 222.8 33.4 C 222.8 33.4 222.76 40.38 222.8 40.4 C 222.8 42 223.5 42.6 224.7 42.6 C 226.3 42.6 227.4 41.7 227.4 39 C 227.43 39 227.4 33.4 227.4 33.4 L 230.2 33.4 L 230.2 45 Z M 239.5 36 C 239.5 36 238.77 35.97 238.8 36 C 236.8 36 235.7 37 235.7 39.3 C 235.74 39.31 235.7 45 235.7 45 L 232.9 45 L 232.9 33.4 L 235.7 33.4 C 235.7 33.4 235.72 35.05 235.7 35 C 236.3 33.8 237.4 33.3 238.7 33.3 C 238.75 33.26 239.5 33.3 239.5 33.3 L 239.5 36 Z M 247.4 36 C 247.4 36 246.68 35.97 246.7 36 C 244.7 36 243.7 37 243.7 39.3 C 243.66 39.31 243.7 45 243.7 45 L 240.9 45 L 240.9 33.4 L 243.6 33.4 C 243.6 33.4 243.64 35.05 243.6 35 C 244.2 33.8 245.3 33.3 246.7 33.3 C 246.66 33.26 247.4 33.3 247.4 33.3 L 247.4 36 Z M 250.5 40 C 250.6 41.9 252 42.8 253.5 42.8 C 254.6 42.8 255.7 42.4 256 41.3 C 256 41.3 258.6 41.3 258.6 41.3 C 258.1 43.9 255.8 45.2 253.4 45.2 C 250.6 45.2 247.8 43.3 247.8 39.2 C 247.8 35.2 250.5 33.2 253.4 33.2 C 256.2 33.2 258.6 35 258.6 38.9 C 258.61 38.89 258.6 40 258.6 40 C 258.6 40 250.55 40.03 250.5 40 Z M 250.6 38 C 250.6 38 255.9 38 255.9 38 C 255.9 36.5 254.8 35.6 253.4 35.6 C 252.1 35.6 250.9 36.3 250.6 38 Z M 270.8 37.5 C 270.79 37.51 270.8 45 270.8 45 L 268 45 C 268 45 268 37.76 268 37.8 C 268 36.5 267.3 35.7 266 35.7 C 264.4 35.7 263.4 36.8 263.4 38.7 C 263.4 38.72 263.4 45 263.4 45 L 260.6 45 L 260.6 33.4 L 263.4 33.4 C 263.4 33.4 263.38 35.07 263.4 35.1 C 264 34 265 33.2 266.9 33.2 C 269.6 33.2 270.8 34.7 270.8 37.5 Z M 278.3 45.2 C 274.5 45.2 272.7 42.3 272.7 39.2 C 272.7 36.1 274.5 33.2 278.3 33.2 C 281.1 33.2 283.3 34.8 283.4 37.6 C 283.4 37.6 280.7 37.6 280.7 37.6 C 280.5 36.5 279.7 35.7 278.4 35.7 C 276.3 35.7 275.5 37.4 275.5 39.2 C 275.5 41.1 276.4 42.6 278.4 42.6 C 279.7 42.6 280.5 41.9 280.7 40.9 C 280.7 40.9 283.5 40.9 283.5 40.9 C 283.1 43.7 281.1 45.2 278.3 45.2 Z M 285.4 31.9 L 288.3 31.9 L 288.3 28.7 L 285.4 28.7 L 285.4 31.9 Z M 285.5 33.4 L 288.3 33.4 L 288.3 45 L 285.5 45 L 285.5 33.4 Z M 292.9 40 C 293 41.9 294.4 42.8 295.9 42.8 C 297 42.8 298.1 42.4 298.4 41.3 C 298.4 41.3 301 41.3 301 41.3 C 300.5 43.9 298.2 45.2 295.8 45.2 C 293 45.2 290.2 43.3 290.2 39.2 C 290.2 35.2 292.9 33.2 295.8 33.2 C 298.6 33.2 301 35 301 38.9 C 301.01 38.89 301 40 301 40 C 301 40 292.95 40.03 292.9 40 Z M 293 38 C 293 38 298.3 38 298.3 38 C 298.3 36.5 297.2 35.6 295.8 35.6 C 294.5 35.6 293.3 36.3 293 38 Z M 312.3 41.4 C 312.3 44 310 45.2 307.4 45.2 C 305 45.2 302.4 44.2 302.2 41.3 C 302.2 41.3 305 41.3 305 41.3 C 305.2 42.4 306.2 42.9 307.5 42.9 C 308.7 42.9 309.5 42.5 309.5 41.7 C 309.5 40.9 309 40.8 307.4 40.5 C 305.1 40.1 302.5 39.7 302.5 36.9 C 302.5 34.3 304.7 33.2 307.1 33.2 C 309.8 33.2 311.8 34.5 312 37.1 C 312 37.1 309.3 37.1 309.3 37.1 C 309.2 36 308.3 35.5 307.2 35.5 C 305.8 35.5 305.2 36.1 305.2 36.8 C 305.2 37.7 306.3 37.9 307.7 38.1 C 309.7 38.4 312.3 38.7 312.3 41.4 Z M 315.6 44.8 C 315.65 44.79 314.2 44.8 314.2 44.8 L 314.2 41.9 L 317.4 41.9 C 317.4 41.9 317.43 44.39 317.4 44.4 C 317.4 47.4 315.4 48.5 313.5 48.7 C 313.5 48.7 313.2 47.2 313.2 47.2 C 314.7 47 315.6 46.1 315.6 44.8 Z M 334.6 39.2 C 334.6 43 332.2 45.2 329 45.2 C 325.7 45.2 323.3 43 323.3 39.2 C 323.3 35.4 325.7 33.2 329 33.2 C 332.2 33.2 334.6 35.4 334.6 39.2 Z M 326.2 39.2 C 326.2 41.5 327.4 42.6 329 42.6 C 330.7 42.6 331.8 41.4 331.8 39.2 C 331.8 36.9 330.5 35.8 328.9 35.8 C 327.3 35.8 326.2 37 326.2 39.2 Z M 343.2 36 C 343.2 36 342.44 35.97 342.4 36 C 340.5 36 339.4 37 339.4 39.3 C 339.42 39.31 339.4 45 339.4 45 L 336.6 45 L 336.6 33.4 L 339.4 33.4 C 339.4 33.4 339.4 35.05 339.4 35 C 340 33.8 341.1 33.3 342.4 33.3 C 342.42 33.26 343.2 33.3 343.2 33.3 L 343.2 36 Z " stroke="none" fill="#000"/>  </g>  <g id="Polygon10787">    <path d="M 16.8 19.8 L 13.9 19.8 L 10.6 8.5 L 7.3 19.8 L 4.4 19.8 L 0.3 4 L 3.4 4 L 6 15 L 9.2 4 L 12.1 4 L 15.3 15.1 L 17.9 4 L 20.9 4 L 16.8 19.8 Z M 32.8 12.3 C 32.78 12.31 32.8 19.8 32.8 19.8 L 30 19.8 C 30 19.8 29.99 12.56 30 12.6 C 30 11.3 29.3 10.5 28 10.5 C 26.4 10.5 25.4 11.6 25.4 13.5 C 25.39 13.52 25.4 19.8 25.4 19.8 L 22.6 19.8 L 22.6 3.8 L 25.4 3.8 C 25.4 3.8 25.39 9.83 25.4 9.8 C 26.1 8.7 27 8 28.9 8 C 31.5 8 32.8 9.5 32.8 12.3 Z M 37.4 14.8 C 37.4 16.7 38.8 17.6 40.4 17.6 C 41.5 17.6 42.5 17.2 42.8 16.1 C 42.8 16.1 45.4 16.1 45.4 16.1 C 44.9 18.7 42.6 20 40.2 20 C 37.4 20 34.7 18.1 34.7 14 C 34.7 10 37.3 8 40.3 8 C 43.1 8 45.4 9.8 45.4 13.7 C 45.44 13.69 45.4 14.8 45.4 14.8 C 45.4 14.8 37.38 14.83 37.4 14.8 Z M 37.4 12.8 C 37.4 12.8 42.7 12.8 42.7 12.8 C 42.7 11.3 41.6 10.4 40.2 10.4 C 38.9 10.4 37.7 11.1 37.4 12.8 Z M 54 10.8 C 54 10.8 53.26 10.77 53.3 10.8 C 51.3 10.8 50.2 11.8 50.2 14.1 C 50.23 14.11 50.2 19.8 50.2 19.8 L 47.4 19.8 L 47.4 8.2 L 50.2 8.2 C 50.2 8.2 50.21 9.85 50.2 9.8 C 50.8 8.6 51.9 8.1 53.2 8.1 C 53.23 8.06 54 8.1 54 8.1 L 54 10.8 Z M 57.1 14.8 C 57.2 16.7 58.5 17.6 60.1 17.6 C 61.2 17.6 62.2 17.2 62.6 16.1 C 62.6 16.1 65.1 16.1 65.1 16.1 C 64.6 18.7 62.3 20 60 20 C 57.2 20 54.4 18.1 54.4 14 C 54.4 10 57 8 60 8 C 62.8 8 65.2 9.8 65.2 13.7 C 65.18 13.69 65.2 14.8 65.2 14.8 C 65.2 14.8 57.12 14.83 57.1 14.8 Z M 57.2 12.8 C 57.2 12.8 62.5 12.8 62.5 12.8 C 62.5 11.3 61.4 10.4 60 10.4 C 58.7 10.4 57.4 11.1 57.2 12.8 Z M 81.7 12 C 81.69 11.99 81.7 19.8 81.7 19.8 L 79 19.8 C 79 19.8 78.96 18.1 79 18.1 C 78.1 19.6 76.7 20 75.5 20 C 73.6 20 71.7 18.9 71.7 16.4 C 71.7 14.6 72.7 13.4 75.4 13 C 75.4 13 77.9 12.6 77.9 12.6 C 78.6 12.5 79.1 12.3 79.1 11.6 C 79.1 10.6 78.2 10.2 77.1 10.2 C 75.6 10.2 74.9 10.9 74.8 11.9 C 74.8 11.9 72.2 11.9 72.2 11.9 C 72.4 9.2 74.6 8 77.2 8 C 80 8 81.7 9.3 81.7 12 Z M 79 14.9 C 79 14.9 79 14.3 79 14.3 C 78.7 14.4 78.2 14.6 77.6 14.6 C 77.6 14.6 76.4 14.8 76.4 14.8 C 74.9 15 74.5 15.6 74.5 16.3 C 74.5 17.2 75.1 17.7 76.1 17.7 C 77.6 17.7 79 16.6 79 14.9 Z M 90.8 10.8 C 90.8 10.8 90.03 10.77 90 10.8 C 88.1 10.8 87 11.8 87 14.1 C 87 14.11 87 19.8 87 19.8 L 84.2 19.8 L 84.2 8.2 L 87 8.2 C 87 8.2 86.98 9.85 87 9.8 C 87.6 8.6 88.6 8.1 90 8.1 C 90.01 8.06 90.8 8.1 90.8 8.1 L 90.8 10.8 Z M 93.9 14.8 C 94 16.7 95.3 17.6 96.9 17.6 C 98 17.6 99 17.2 99.4 16.1 C 99.4 16.1 101.9 16.1 101.9 16.1 C 101.4 18.7 99.1 20 96.7 20 C 94 20 91.2 18.1 91.2 14 C 91.2 10 93.8 8 96.8 8 C 99.6 8 102 9.8 102 13.7 C 101.95 13.69 102 14.8 102 14.8 C 102 14.8 93.89 14.83 93.9 14.8 Z M 94 12.8 C 94 12.8 99.2 12.8 99.2 12.8 C 99.2 11.3 98.2 10.4 96.7 10.4 C 95.4 10.4 94.2 11.1 94 12.8 Z M 118.7 8.2 C 118.7 8.2 113.67 21.52 113.7 21.5 C 113.1 22.9 112 23.5 110.4 23.5 C 110.4 23.48 108.7 23.5 108.7 23.5 L 108.7 21 C 108.7 21 109.91 21 109.9 21 C 110.8 21 111.3 20.7 111.6 19.9 C 111.57 19.87 111.8 19.3 111.8 19.3 L 107.4 8.2 L 110.4 8.2 L 113.1 15.8 L 115.8 8.2 L 118.7 8.2 Z M 130.5 14 C 130.5 17.8 128 20 124.8 20 C 121.5 20 119.1 17.8 119.1 14 C 119.1 10.2 121.5 8 124.8 8 C 128 8 130.5 10.2 130.5 14 Z M 122 14 C 122 16.3 123.3 17.4 124.8 17.4 C 126.5 17.4 127.6 16.2 127.6 14 C 127.6 11.7 126.3 10.6 124.8 10.6 C 123.1 10.6 122 11.8 122 14 Z M 142.6 19.8 L 139.9 19.8 C 139.9 19.8 139.86 18.14 139.9 18.1 C 139.2 19.2 138.1 19.9 136.5 19.9 C 134.1 19.9 132.3 18.4 132.3 15.4 C 132.34 15.39 132.3 8.2 132.3 8.2 L 135.1 8.2 C 135.1 8.2 135.13 15.18 135.1 15.2 C 135.1 16.8 135.9 17.4 137.1 17.4 C 138.7 17.4 139.8 16.5 139.8 13.8 C 139.8 13.8 139.8 8.2 139.8 8.2 L 142.6 8.2 L 142.6 19.8 Z M 159.8 16.2 C 159.8 18.8 157.5 20 154.9 20 C 152.5 20 149.9 19 149.7 16.1 C 149.7 16.1 152.5 16.1 152.5 16.1 C 152.7 17.2 153.8 17.7 155.1 17.7 C 156.2 17.7 157.1 17.3 157.1 16.5 C 157.1 15.7 156.5 15.6 154.9 15.3 C 152.7 14.9 150.1 14.5 150.1 11.7 C 150.1 9.1 152.3 8 154.7 8 C 157.4 8 159.4 9.3 159.6 11.9 C 159.6 11.9 156.8 11.9 156.8 11.9 C 156.7 10.8 155.9 10.3 154.7 10.3 C 153.3 10.3 152.8 10.9 152.8 11.6 C 152.8 12.5 153.8 12.7 155.2 12.9 C 157.3 13.2 159.8 13.5 159.8 16.2 Z M 163.7 14.8 C 163.8 16.7 165.1 17.6 166.7 17.6 C 167.8 17.6 168.8 17.2 169.2 16.1 C 169.2 16.1 171.7 16.1 171.7 16.1 C 171.2 18.7 168.9 20 166.6 20 C 163.8 20 161 18.1 161 14 C 161 10 163.6 8 166.6 8 C 169.4 8 171.8 9.8 171.8 13.7 C 171.76 13.69 171.8 14.8 171.8 14.8 C 171.8 14.8 163.69 14.83 163.7 14.8 Z M 163.8 12.8 C 163.8 12.8 169 12.8 169 12.8 C 169 11.3 168 10.4 166.5 10.4 C 165.2 10.4 164 11.1 163.8 12.8 Z M 175.7 14.8 C 175.8 16.7 177.1 17.6 178.7 17.6 C 179.8 17.6 180.9 17.2 181.2 16.1 C 181.2 16.1 183.7 16.1 183.7 16.1 C 183.2 18.7 181 20 178.6 20 C 175.8 20 173 18.1 173 14 C 173 10 175.6 8 178.6 8 C 181.4 8 183.8 9.8 183.8 13.7 C 183.79 13.69 183.8 14.8 183.8 14.8 C 183.8 14.8 175.73 14.83 175.7 14.8 Z M 175.8 12.8 C 175.8 12.8 181.1 12.8 181.1 12.8 C 181.1 11.3 180 10.4 178.6 10.4 C 177.3 10.4 176 11.1 175.8 12.8 Z M 185.7 6.7 L 188.6 6.7 L 188.6 3.5 L 185.7 3.5 L 185.7 6.7 Z M 185.8 8.2 L 188.6 8.2 L 188.6 19.8 L 185.8 19.8 L 185.8 8.2 Z M 201.5 12.3 C 201.45 12.31 201.5 19.8 201.5 19.8 L 198.7 19.8 C 198.7 19.8 198.66 12.56 198.7 12.6 C 198.7 11.3 197.9 10.5 196.6 10.5 C 195 10.5 194.1 11.6 194.1 13.5 C 194.06 13.52 194.1 19.8 194.1 19.8 L 191.3 19.8 L 191.3 8.2 L 194 8.2 C 194 8.2 194.04 9.87 194 9.9 C 194.7 8.8 195.6 8 197.6 8 C 200.2 8 201.5 9.5 201.5 12.3 Z M 214.5 19 C 214.5 22.7 212.1 24.4 209 24.4 C 206.2 24.4 203.8 23 203.5 20.1 C 203.5 20.1 206.2 20.1 206.2 20.1 C 206.5 21.6 207.7 22 209 22 C 210.8 22 211.8 21.1 211.8 19.3 C 211.8 19.3 211.8 17.4 211.8 17.4 C 211.3 18.6 210.2 19.4 208.4 19.4 C 205.8 19.4 203.3 17.6 203.3 13.7 C 203.3 9.8 205.8 8 208.4 8 C 210.1 8 211.2 8.7 211.8 9.8 C 211.83 9.81 211.8 8.2 211.8 8.2 L 214.5 8.2 C 214.5 8.2 214.51 19 214.5 19 Z M 211.7 13.7 C 211.7 11.5 210.5 10.4 209 10.4 C 207.5 10.4 206.1 11.5 206.1 13.7 C 206.1 15.9 207.5 16.9 209 16.9 C 210.5 16.9 211.7 15.9 211.7 13.7 Z M 233 14 C 233 17.8 230.6 20 227.3 20 C 224.1 20 221.7 17.8 221.7 14 C 221.7 10.2 224.1 8 227.3 8 C 230.6 8 233 10.2 233 14 Z M 224.5 14 C 224.5 16.3 225.8 17.4 227.3 17.4 C 229 17.4 230.1 16.2 230.1 14 C 230.1 11.7 228.8 10.6 227.3 10.6 C 225.6 10.6 224.5 11.8 224.5 14 Z M 246.3 13.8 C 246.3 18 243.7 19.9 241 19.9 C 239.5 19.9 238.4 19.2 237.8 18.4 C 237.76 18.4 237.8 24.1 237.8 24.1 L 235 24.1 L 235 8.2 L 237.7 8.2 C 237.7 8.2 237.7 10.04 237.7 10 C 238.3 8.8 239.6 8 241.3 8 C 244 8 246.3 9.9 246.3 13.8 Z M 243.5 14 C 243.5 11.6 242.1 10.5 240.6 10.5 C 239.1 10.5 237.7 11.6 237.7 14 C 237.7 16.3 239.1 17.4 240.6 17.4 C 242.1 17.4 243.5 16.3 243.5 14 Z M 259.7 13.8 C 259.7 18 257.1 19.9 254.4 19.9 C 252.9 19.9 251.8 19.2 251.1 18.4 C 251.14 18.4 251.1 24.1 251.1 24.1 L 248.3 24.1 L 248.3 8.2 L 251.1 8.2 C 251.1 8.2 251.07 10.04 251.1 10 C 251.7 8.8 253 8 254.7 8 C 257.4 8 259.7 9.9 259.7 13.8 Z M 256.9 14 C 256.9 11.6 255.5 10.5 254 10.5 C 252.5 10.5 251.1 11.6 251.1 14 C 251.1 16.3 252.5 17.4 254 17.4 C 255.5 17.4 256.9 16.3 256.9 14 Z M 272.3 14 C 272.3 17.8 269.9 20 266.6 20 C 263.4 20 261 17.8 261 14 C 261 10.2 263.4 8 266.6 8 C 269.9 8 272.3 10.2 272.3 14 Z M 263.8 14 C 263.8 16.3 265.1 17.4 266.7 17.4 C 268.3 17.4 269.4 16.2 269.4 14 C 269.4 11.7 268.2 10.6 266.6 10.6 C 265 10.6 263.8 11.8 263.8 14 Z M 280.9 10.8 C 280.9 10.8 280.12 10.77 280.1 10.8 C 278.2 10.8 277.1 11.8 277.1 14.1 C 277.09 14.11 277.1 19.8 277.1 19.8 L 274.3 19.8 L 274.3 8.2 L 277.1 8.2 C 277.1 8.2 277.07 9.85 277.1 9.8 C 277.7 8.6 278.7 8.1 280.1 8.1 C 280.1 8.06 280.9 8.1 280.9 8.1 L 280.9 10.8 Z M 288.6 19.8 C 288.6 19.8 286.73 19.78 286.7 19.8 C 284.6 19.8 283.2 19.1 283.2 16 C 283.18 16 283.2 10.7 283.2 10.7 L 281.1 10.7 L 281.1 8.2 L 283.2 8.2 L 283.2 5.6 L 286 4.8 L 286 8.2 L 288.3 8.2 L 288.3 10.7 L 286 10.7 C 286 10.7 285.98 16.13 286 16.1 C 286 16.8 286.2 17.3 287.2 17.3 C 287.15 17.3 288.6 17.3 288.6 17.3 L 288.6 19.8 Z M 300.3 19.8 L 297.5 19.8 C 297.5 19.8 297.55 18.14 297.5 18.1 C 296.9 19.2 295.8 19.9 294.2 19.9 C 291.8 19.9 290 18.4 290 15.4 C 290.03 15.39 290 8.2 290 8.2 L 292.8 8.2 C 292.8 8.2 292.82 15.18 292.8 15.2 C 292.8 16.8 293.6 17.4 294.8 17.4 C 296.3 17.4 297.5 16.5 297.5 13.8 C 297.48 13.8 297.5 8.2 297.5 8.2 L 300.3 8.2 L 300.3 19.8 Z M 313.2 12.3 C 313.19 12.31 313.2 19.8 313.2 19.8 L 310.4 19.8 C 310.4 19.8 310.4 12.56 310.4 12.6 C 310.4 11.3 309.7 10.5 308.4 10.5 C 306.8 10.5 305.8 11.6 305.8 13.5 C 305.8 13.52 305.8 19.8 305.8 19.8 L 303 19.8 L 303 8.2 L 305.8 8.2 C 305.8 8.2 305.78 9.87 305.8 9.9 C 306.4 8.8 307.4 8 309.3 8 C 312 8 313.2 9.5 313.2 12.3 Z M 315.7 6.7 L 318.7 6.7 L 318.7 3.5 L 315.7 3.5 L 315.7 6.7 Z M 315.8 8.2 L 318.6 8.2 L 318.6 19.8 L 315.8 19.8 L 315.8 8.2 Z M 327.2 19.8 C 327.2 19.8 325.39 19.78 325.4 19.8 C 323.2 19.8 321.8 19.1 321.8 16 C 321.84 16 321.8 10.7 321.8 10.7 L 319.7 10.7 L 319.7 8.2 L 321.8 8.2 L 321.8 5.6 L 324.6 4.8 L 324.6 8.2 L 326.9 8.2 L 326.9 10.7 L 324.6 10.7 C 324.6 10.7 324.64 16.13 324.6 16.1 C 324.6 16.8 324.8 17.3 325.8 17.3 C 325.81 17.3 327.2 17.3 327.2 17.3 L 327.2 19.8 Z M 328.7 6.7 L 331.6 6.7 L 331.6 3.5 L 328.7 3.5 L 328.7 6.7 Z M 328.8 8.2 L 331.6 8.2 L 331.6 19.8 L 328.8 19.8 L 328.8 8.2 Z M 336.2 14.8 C 336.3 16.7 337.7 17.6 339.2 17.6 C 340.3 17.6 341.4 17.2 341.7 16.1 C 341.7 16.1 344.3 16.1 344.3 16.1 C 343.8 18.7 341.5 20 339.1 20 C 336.3 20 333.5 18.1 333.5 14 C 333.5 10 336.2 8 339.1 8 C 341.9 8 344.3 9.8 344.3 13.7 C 344.31 13.69 344.3 14.8 344.3 14.8 C 344.3 14.8 336.25 14.83 336.2 14.8 Z M 336.3 12.8 C 336.3 12.8 341.6 12.8 341.6 12.8 C 341.6 11.3 340.5 10.4 339.1 10.4 C 337.8 10.4 336.6 11.1 336.3 12.8 Z M 355.6 16.2 C 355.6 18.8 353.3 20 350.7 20 C 348.3 20 345.7 19 345.5 16.1 C 345.5 16.1 348.3 16.1 348.3 16.1 C 348.5 17.2 349.5 17.7 350.8 17.7 C 352 17.7 352.8 17.3 352.8 16.5 C 352.8 15.7 352.3 15.6 350.7 15.3 C 348.4 14.9 345.8 14.5 345.8 11.7 C 345.8 9.1 348 8 350.4 8 C 353.1 8 355.1 9.3 355.3 11.9 C 355.3 11.9 352.6 11.9 352.6 11.9 C 352.5 10.8 351.6 10.3 350.5 10.3 C 349.1 10.3 348.5 10.9 348.5 11.6 C 348.5 12.5 349.6 12.7 351 12.9 C 353 13.2 355.6 13.5 355.6 16.2 Z " stroke="none" fill="#000"/>  </g></svg>