<?xml version="1.0" standalone="no"?><!DOCTYPE svg PUBLIC "-//W3C//DTD SVG 1.1//EN" "http://www.w3.org/Graphics/SVG/1.1/DTD/svg11.dtd"><svg xmlns="http://www.w3.org/2000/svg" version="1.1" width="258px" height="36.4px" viewBox="0 -3 258 36.4" style="top:-3px">  <desc>Provide diversification</desc>  <defs/>  <g id="Polygon9670">    <path d="M 12.4 8.4 C 12.4 10.8 10.8 13.1 7.4 13.1 C 7.41 13.12 3.5 13.1 3.5 13.1 L 3.5 19.8 L 1.9 19.8 L 1.9 4 C 1.9 4 7.69 4.03 7.7 4 C 10.8 4 12.4 6.2 12.4 8.4 Z M 10.8 8.5 C 10.8 6.9 9.7 5.4 7.5 5.4 C 7.48 5.44 3.5 5.4 3.5 5.4 L 3.5 11.7 C 3.5 11.7 7.41 11.72 7.4 11.7 C 9.7 11.7 10.8 10.1 10.8 8.5 Z M 20.5 9.8 C 20.5 9.8 20.1 9.83 20.1 9.8 C 17.7 9.8 16.4 11.2 16.4 13.8 C 16.36 13.8 16.4 19.8 16.4 19.8 L 14.8 19.8 L 14.8 8.5 L 16.3 8.5 C 16.3 8.5 16.34 10.58 16.3 10.6 C 16.9 9.1 18.2 8.4 20 8.4 C 19.97 8.38 20.5 8.4 20.5 8.4 L 20.5 9.8 Z M 21.5 14.2 C 21.5 10.5 23.7 8.3 26.8 8.3 C 29.9 8.3 32.2 10.5 32.2 14.2 C 32.2 17.8 30 20 26.9 20 C 23.8 20 21.5 17.8 21.5 14.2 Z M 30.6 14.1 C 30.6 11.3 28.9 9.7 26.8 9.7 C 24.6 9.7 23.1 11.4 23.1 14.2 C 23.1 17 24.8 18.6 26.9 18.6 C 29.1 18.6 30.6 16.9 30.6 14.1 Z M 39.1 19.8 L 37.4 19.8 L 33.2 8.5 L 34.9 8.5 L 38.3 18.2 L 41.7 8.5 L 43.3 8.5 L 39.1 19.8 Z M 46.9 3.8 L 45.2 3.8 L 45.2 5.7 L 46.9 5.7 L 46.9 3.8 Z M 46.8 19.8 L 45.3 19.8 L 45.3 8.5 L 46.8 8.5 L 46.8 19.8 Z M 60 19.8 L 58.5 19.8 C 58.5 19.8 58.51 17.6 58.5 17.6 C 58 18.9 56.6 20 54.5 20 C 51.5 20 49.4 17.7 49.4 14.1 C 49.4 10.6 51.5 8.3 54.5 8.3 C 56.4 8.3 57.8 9.2 58.4 10.4 C 58.44 10.42 58.4 3.8 58.4 3.8 L 60 3.8 L 60 19.8 Z M 58.4 14.1 C 58.4 11.3 56.9 9.7 54.7 9.7 C 52.5 9.7 51 11.4 51 14.1 C 51 16.9 52.5 18.6 54.7 18.6 C 56.9 18.6 58.4 16.9 58.4 14.1 Z M 64.1 14.5 C 64.2 17.3 65.9 18.6 67.9 18.6 C 69.4 18.6 70.8 17.9 71.2 16.3 C 71.2 16.3 72.6 16.3 72.6 16.3 C 72.1 18.9 69.9 20 67.8 20 C 65.1 20 62.6 18.2 62.6 14.2 C 62.6 10.1 65.1 8.3 67.9 8.3 C 70.5 8.3 72.7 10 72.7 13.8 C 72.7 13.75 72.7 14.5 72.7 14.5 C 72.7 14.5 64.11 14.51 64.1 14.5 Z M 64.2 13.2 C 64.2 13.2 71.1 13.2 71.1 13.2 C 71.1 10.9 69.7 9.7 67.8 9.7 C 66 9.7 64.4 10.8 64.2 13.2 Z M 90 19.8 L 88.5 19.8 C 88.5 19.8 88.49 17.6 88.5 17.6 C 87.9 18.9 86.6 20 84.5 20 C 81.5 20 79.4 17.7 79.4 14.1 C 79.4 10.6 81.5 8.3 84.5 8.3 C 86.4 8.3 87.8 9.2 88.4 10.4 C 88.43 10.42 88.4 3.8 88.4 3.8 L 90 3.8 L 90 19.8 Z M 88.4 14.1 C 88.4 11.3 86.9 9.7 84.7 9.7 C 82.5 9.7 81 11.4 81 14.1 C 81 16.9 82.5 18.6 84.7 18.6 C 86.9 18.6 88.4 16.9 88.4 14.1 Z M 95 3.8 L 93.2 3.8 L 93.2 5.7 L 95 5.7 L 95 3.8 Z M 94.9 19.8 L 93.3 19.8 L 93.3 8.5 L 94.9 8.5 L 94.9 19.8 Z M 102.7 19.8 L 101 19.8 L 96.9 8.5 L 98.5 8.5 L 101.9 18.2 L 105.3 8.5 L 106.9 8.5 L 102.7 19.8 Z M 109.5 14.5 C 109.5 17.3 111.2 18.6 113.2 18.6 C 114.7 18.6 116.2 17.9 116.5 16.3 C 116.5 16.3 118 16.3 118 16.3 C 117.5 18.9 115.3 20 113.1 20 C 110.4 20 107.9 18.2 107.9 14.2 C 107.9 10.1 110.5 8.3 113.2 8.3 C 115.9 8.3 118 10 118 13.8 C 118.04 13.75 118 14.5 118 14.5 C 118 14.5 109.45 14.51 109.5 14.5 Z M 109.5 13.2 C 109.5 13.2 116.5 13.2 116.5 13.2 C 116.5 10.9 115 9.7 113.1 9.7 C 111.4 9.7 109.7 10.8 109.5 13.2 Z M 126.3 9.8 C 126.3 9.8 125.94 9.83 125.9 9.8 C 123.5 9.8 122.2 11.2 122.2 13.8 C 122.2 13.8 122.2 19.8 122.2 19.8 L 120.7 19.8 L 120.7 8.5 L 122.2 8.5 C 122.2 8.5 122.18 10.58 122.2 10.6 C 122.7 9.1 124.1 8.4 125.8 8.4 C 125.81 8.38 126.3 8.4 126.3 8.4 L 126.3 9.8 Z M 136.7 16.6 C 136.7 18.9 134.6 20 132.3 20 C 129.9 20 127.7 18.8 127.4 16.3 C 127.4 16.3 129.1 16.3 129.1 16.3 C 129.3 18 130.8 18.6 132.3 18.6 C 133.8 18.6 135.1 18.1 135.1 16.8 C 135.1 15.5 133.8 15.2 132.4 15 C 130.3 14.6 127.7 14.2 127.7 11.6 C 127.7 9.4 129.7 8.3 132 8.3 C 134.4 8.3 136.2 9.4 136.4 11.7 C 136.4 11.7 134.8 11.7 134.8 11.7 C 134.7 10.3 133.4 9.7 131.9 9.7 C 130.4 9.7 129.3 10.4 129.3 11.5 C 129.3 13 130.7 13.2 132.4 13.5 C 134.4 13.8 136.7 14.1 136.7 16.6 Z M 140.8 3.8 L 139.1 3.8 L 139.1 5.7 L 140.8 5.7 L 140.8 3.8 Z M 140.7 19.8 L 139.2 19.8 L 139.2 8.5 L 140.7 8.5 L 140.7 19.8 Z M 151.9 19.8 L 151.9 9.9 L 146.1 9.9 L 146.1 19.8 L 144.6 19.8 L 144.6 9.9 L 142.7 9.9 L 142.7 8.5 L 144.6 8.5 C 144.6 8.5 144.58 6.72 144.6 6.7 C 144.6 4.2 145.9 3.8 147.4 3.8 C 147.42 3.78 148.9 3.8 148.9 3.8 L 148.9 5.1 C 148.9 5.1 147.67 5.14 147.7 5.1 C 146.4 5.1 146.1 5.7 146.1 6.8 C 146.12 6.76 146.1 8.5 146.1 8.5 L 153.4 8.5 L 153.4 19.8 L 151.9 19.8 Z M 161.2 20 C 158.1 20 156 17.7 156 14.2 C 156 10.6 158.1 8.3 161.3 8.3 C 163.8 8.3 165.8 9.7 166 12.2 C 166 12.2 164.5 12.2 164.5 12.2 C 164.3 10.6 162.9 9.7 161.3 9.7 C 159.1 9.7 157.5 11.4 157.5 14.1 C 157.5 16.9 159.1 18.6 161.3 18.6 C 163 18.6 164.3 17.6 164.5 15.8 C 164.5 15.8 166 15.8 166 15.8 C 165.8 18.5 163.7 20 161.2 20 Z M 175.5 17.7 C 174.7 19.4 173 20 171.5 20 C 169.6 20 167.9 18.9 167.9 16.7 C 167.9 14.6 169.4 13.6 171.3 13.4 C 171.3 13.4 174 13 174 13 C 174.8 12.9 175.5 12.6 175.5 11.6 C 175.5 10.3 174.4 9.6 172.8 9.6 C 171.1 9.6 170.1 10.4 169.8 11.7 C 169.8 11.7 168.3 11.7 168.3 11.7 C 168.6 9.4 170.4 8.3 172.9 8.3 C 175.5 8.3 177 9.5 177 12 C 177.03 11.99 177 19.8 177 19.8 L 175.5 19.8 C 175.5 19.8 175.54 17.72 175.5 17.7 Z M 173.7 14.3 C 173.7 14.3 171.9 14.5 171.9 14.5 C 170.5 14.7 169.4 15.2 169.4 16.6 C 169.4 18 170.5 18.6 171.8 18.6 C 173.5 18.6 175.5 17.3 175.5 14.9 C 175.5 14.9 175.5 13.8 175.5 13.8 C 175.1 14.1 174.4 14.2 173.7 14.3 Z M 185.3 19.8 C 185.3 19.8 183.66 19.78 183.7 19.8 C 182.2 19.8 180.8 19.3 180.8 16.8 C 180.83 16.82 180.8 9.9 180.8 9.9 L 178.6 9.9 L 178.6 8.5 L 180.8 8.5 L 180.8 5.3 L 182.4 4.9 L 182.4 8.5 L 185.1 8.5 L 185.1 9.9 L 182.4 9.9 C 182.4 9.9 182.36 16.8 182.4 16.8 C 182.4 17.8 182.7 18.4 183.9 18.4 C 183.92 18.4 185.3 18.4 185.3 18.4 L 185.3 19.8 Z M 189.2 3.8 L 187.4 3.8 L 187.4 5.7 L 189.2 5.7 L 189.2 3.8 Z M 189.1 19.8 L 187.5 19.8 L 187.5 8.5 L 189.1 8.5 L 189.1 19.8 Z M 191.7 14.2 C 191.7 10.5 193.9 8.3 197 8.3 C 200.1 8.3 202.4 10.5 202.4 14.2 C 202.4 17.8 200.1 20 197 20 C 193.9 20 191.7 17.8 191.7 14.2 Z M 200.8 14.1 C 200.8 11.3 199.1 9.7 197 9.7 C 194.8 9.7 193.3 11.4 193.3 14.2 C 193.3 17 195 18.6 197.1 18.6 C 199.2 18.6 200.8 16.9 200.8 14.1 Z M 214.2 12.1 C 214.16 12.05 214.2 19.8 214.2 19.8 L 212.6 19.8 C 212.6 19.8 212.62 12.24 212.6 12.2 C 212.6 10.7 211.7 9.7 210.1 9.7 C 208.2 9.7 206.5 11.1 206.5 13.9 C 206.53 13.86 206.5 19.8 206.5 19.8 L 205 19.8 L 205 8.5 L 206.5 8.5 C 206.5 8.5 206.53 10.6 206.5 10.6 C 207.2 9.3 208.5 8.3 210.4 8.3 C 212.7 8.3 214.2 9.6 214.2 12.1 Z " stroke="none" fill="#000"/>  </g></svg>