<?xml version="1.0" standalone="no"?><!DOCTYPE svg PUBLIC "-//W3C//DTD SVG 1.1//EN" "http://www.w3.org/Graphics/SVG/1.1/DTD/svg11.dtd"><svg xmlns="http://www.w3.org/2000/svg" version="1.1" width="479px" height="181.4px" viewBox="0 -4 479 181.4" style="top:-4px"> <desc>As an active manager, what levers are you going to use to deliver attractive returns despite low initial yields</desc> <defs/> <g id="Polygon12829">  <path d="M 4.2 70.2 L 1.4 70.2 L 1.4 54.2 L 4.2 54.2 L 4.2 70.2 Z M 17.5 64.4 C 17.5 68.2 15.1 70.4 11.8 70.4 C 8.6 70.4 6.2 68.2 6.2 64.4 C 6.2 60.6 8.6 58.4 11.8 58.4 C 15.1 58.4 17.5 60.6 17.5 64.4 Z M 9 64.4 C 9 66.7 10.3 67.8 11.8 67.8 C 13.5 67.8 14.6 66.6 14.6 64.4 C 14.6 62.1 13.3 61 11.8 61 C 10.1 61 9 62.2 9 64.4 Z M 31.9 70.2 L 29.3 70.2 L 26.9 62.8 L 24.5 70.2 L 21.9 70.2 L 18 58.6 L 21 58.6 L 23.3 66.3 L 25.6 58.6 L 28.3 58.6 L 30.7 66.3 L 32.9 58.6 L 35.8 58.6 L 31.9 70.2 Z M 42.4 57.1 L 45.4 57.1 L 45.4 53.9 L 42.4 53.9 L 42.4 57.1 Z M 42.5 58.6 L 45.3 58.6 L 45.3 70.2 L 42.5 70.2 L 42.5 58.6 Z M 58.2 62.7 C 58.19 62.71 58.2 70.2 58.2 70.2 L 55.4 70.2 C 55.4 70.2 55.4 62.96 55.4 63 C 55.4 61.7 54.7 60.9 53.4 60.9 C 51.8 60.9 50.8 62 50.8 63.9 C 50.8 63.92 50.8 70.2 50.8 70.2 L 48 70.2 L 48 58.6 L 50.8 58.6 C 50.8 58.6 50.78 60.27 50.8 60.3 C 51.4 59.2 52.4 58.4 54.3 58.4 C 57 58.4 58.2 59.9 58.2 62.7 Z M 60.7 57.1 L 63.7 57.1 L 63.7 53.9 L 60.7 53.9 L 60.7 57.1 Z M 60.8 58.6 L 63.6 58.6 L 63.6 70.2 L 60.8 70.2 L 60.8 58.6 Z M 72.2 70.2 C 72.2 70.2 70.39 70.18 70.4 70.2 C 68.2 70.2 66.8 69.5 66.8 66.4 C 66.84 66.4 66.8 61.1 66.8 61.1 L 64.7 61.1 L 64.7 58.6 L 66.8 58.6 L 66.8 56 L 69.6 55.2 L 69.6 58.6 L 71.9 58.6 L 71.9 61.1 L 69.6 61.1 C 69.6 61.1 69.63 66.53 69.6 66.5 C 69.6 67.2 69.8 67.7 70.8 67.7 C 70.81 67.7 72.2 67.7 72.2 67.7 L 72.2 70.2 Z M 73.7 57.1 L 76.6 57.1 L 76.6 53.9 L 73.7 53.9 L 73.7 57.1 Z M 73.8 58.6 L 76.6 58.6 L 76.6 70.2 L 73.8 70.2 L 73.8 58.6 Z M 88.5 62.4 C 88.53 62.39 88.5 70.2 88.5 70.2 L 85.8 70.2 C 85.8 70.2 85.8 68.5 85.8 68.5 C 84.9 70 83.5 70.4 82.3 70.4 C 80.4 70.4 78.5 69.3 78.5 66.8 C 78.5 65 79.6 63.8 82.2 63.4 C 82.2 63.4 84.7 63 84.7 63 C 85.4 62.9 85.9 62.7 85.9 62 C 85.9 61 85.1 60.6 84 60.6 C 82.5 60.6 81.8 61.3 81.7 62.3 C 81.7 62.3 79 62.3 79 62.3 C 79.3 59.6 81.5 58.4 84.1 58.4 C 86.8 58.4 88.5 59.7 88.5 62.4 Z M 85.8 65.3 C 85.8 65.3 85.8 64.7 85.8 64.7 C 85.6 64.8 85 65 84.5 65 C 84.5 65 83.2 65.2 83.2 65.2 C 81.8 65.4 81.3 66 81.3 66.7 C 81.3 67.6 82 68.1 82.9 68.1 C 84.4 68.1 85.8 67 85.8 65.3 Z M 93.8 70.2 L 91.1 70.2 L 91.1 54.2 L 93.8 54.2 L 93.8 70.2 Z M 111.8 58.6 C 111.8 58.6 106.72 71.92 106.7 71.9 C 106.2 73.3 105 73.9 103.4 73.9 C 103.44 73.88 101.7 73.9 101.7 73.9 L 101.7 71.4 C 101.7 71.4 102.96 71.4 103 71.4 C 103.9 71.4 104.3 71.1 104.6 70.3 C 104.62 70.27 104.8 69.7 104.8 69.7 L 100.5 58.6 L 103.4 58.6 L 106.2 66.2 L 108.9 58.6 L 111.8 58.6 Z M 113 57.1 L 116 57.1 L 116 53.9 L 113 53.9 L 113 57.1 Z M 113.1 58.6 L 115.9 58.6 L 115.9 70.2 L 113.1 70.2 L 113.1 58.6 Z M 120.6 65.2 C 120.6 67.1 122 68 123.6 68 C 124.7 68 125.7 67.6 126 66.5 C 126 66.5 128.6 66.5 128.6 66.5 C 128.1 69.1 125.8 70.4 123.4 70.4 C 120.6 70.4 117.9 68.5 117.9 64.4 C 117.9 60.4 120.5 58.4 123.5 58.4 C 126.3 58.4 128.6 60.2 128.6 64.1 C 128.64 64.09 128.6 65.2 128.6 65.2 C 128.6 65.2 120.58 65.23 120.6 65.2 Z M 120.6 63.2 C 120.6 63.2 125.9 63.2 125.9 63.2 C 125.9 61.7 124.8 60.8 123.4 60.8 C 122.1 60.8 120.9 61.5 120.6 63.2 Z M 133.4 70.2 L 130.6 70.2 L 130.6 54.2 L 133.4 54.2 L 133.4 70.2 Z M 146.8 70.2 L 144.1 70.2 C 144.1 70.2 144.08 68.4 144.1 68.4 C 143.4 69.7 142.1 70.4 140.5 70.4 C 137.8 70.4 135.4 68.4 135.4 64.4 C 135.4 60.4 137.8 58.4 140.5 58.4 C 142 58.4 143.3 59 144 60.1 C 144.01 60.12 144 54.2 144 54.2 L 146.8 54.2 L 146.8 70.2 Z M 144.1 64.4 C 144.1 62 142.7 60.9 141.2 60.9 C 139.6 60.9 138.3 62 138.3 64.4 C 138.3 66.7 139.6 67.9 141.2 67.9 C 142.7 67.9 144.1 66.7 144.1 64.4 Z M 158.8 66.6 C 158.8 69.2 156.5 70.4 153.9 70.4 C 151.5 70.4 148.9 69.4 148.7 66.5 C 148.7 66.5 151.5 66.5 151.5 66.5 C 151.7 67.6 152.7 68.1 154 68.1 C 155.2 68.1 156 67.7 156 66.9 C 156 66.1 155.5 66 153.9 65.7 C 151.6 65.3 149.1 64.9 149.1 62.1 C 149.1 59.5 151.3 58.4 153.7 58.4 C 156.4 58.4 158.4 59.7 158.5 62.3 C 158.5 62.3 155.8 62.3 155.8 62.3 C 155.7 61.2 154.9 60.7 153.7 60.7 C 152.3 60.7 151.8 61.3 151.8 62 C 151.8 62.9 152.8 63.1 154.2 63.3 C 156.3 63.6 158.8 63.9 158.8 66.6 Z M 163.5 64.6 C 163.5 61.9 164.8 61.4 166.1 60.5 C 167.1 59.8 167.5 59.2 167.5 58.4 C 167.5 57.2 166.7 56.6 165.4 56.6 C 164 56.6 163.1 57.4 163 58.8 C 163 58.8 160.2 58.8 160.2 58.8 C 160.4 55.4 162.9 54.2 165.5 54.2 C 168.3 54.2 170.5 55.5 170.5 58.3 C 170.5 60.5 169.1 61.4 167.7 62.4 C 166.6 63.2 166.1 63.7 166.1 64.6 C 166.13 64.64 166.1 65.3 166.1 65.3 L 163.5 65.3 C 163.5 65.3 163.46 64.55 163.5 64.6 Z M 163.2 66.9 L 166.4 66.9 L 166.4 70.2 L 163.2 70.2 L 163.2 66.9 Z " stroke="none" fill="#000"/> </g> <g id="Polygon12828">  <path d="M 11.8 44.2 C 11.8 47.9 9.4 49.6 6.3 49.6 C 3.5 49.6 1.1 48.2 0.8 45.3 C 0.8 45.3 3.5 45.3 3.5 45.3 C 3.8 46.8 5 47.2 6.3 47.2 C 8.1 47.2 9.1 46.3 9.1 44.5 C 9.1 44.5 9.1 42.6 9.1 42.6 C 8.6 43.8 7.5 44.6 5.7 44.6 C 3.1 44.6 0.6 42.8 0.6 38.9 C 0.6 35 3.1 33.2 5.7 33.2 C 7.3 33.2 8.5 33.9 9.1 35 C 9.11 35.01 9.1 33.4 9.1 33.4 L 11.8 33.4 C 11.8 33.4 11.8 44.2 11.8 44.2 Z M 9 38.9 C 9 36.7 7.8 35.6 6.3 35.6 C 4.7 35.6 3.4 36.7 3.4 38.9 C 3.4 41.1 4.7 42.1 6.3 42.1 C 7.8 42.1 9 41.1 9 38.9 Z M 25 39.2 C 25 43 22.6 45.2 19.3 45.2 C 16.1 45.2 13.7 43 13.7 39.2 C 13.7 35.4 16.1 33.2 19.3 33.2 C 22.6 33.2 25 35.4 25 39.2 Z M 16.5 39.2 C 16.5 41.5 17.8 42.6 19.4 42.6 C 21 42.6 22.2 41.4 22.2 39.2 C 22.2 36.9 20.9 35.8 19.3 35.8 C 17.7 35.8 16.5 37 16.5 39.2 Z M 26.9 31.9 L 29.9 31.9 L 29.9 28.7 L 26.9 28.7 L 26.9 31.9 Z M 27 33.4 L 29.8 33.4 L 29.8 45 L 27 45 L 27 33.4 Z M 42.7 37.5 C 42.67 37.51 42.7 45 42.7 45 L 39.9 45 C 39.9 45 39.88 37.76 39.9 37.8 C 39.9 36.5 39.1 35.7 37.8 35.7 C 36.2 35.7 35.3 36.8 35.3 38.7 C 35.28 38.72 35.3 45 35.3 45 L 32.5 45 L 32.5 33.4 L 35.3 33.4 C 35.3 33.4 35.26 35.07 35.3 35.1 C 35.9 34 36.9 33.2 38.8 33.2 C 41.4 33.2 42.7 34.7 42.7 37.5 Z M 55.7 44.2 C 55.7 47.9 53.3 49.6 50.2 49.6 C 47.4 49.6 45.1 48.2 44.7 45.3 C 44.7 45.3 47.4 45.3 47.4 45.3 C 47.7 46.8 48.9 47.2 50.2 47.2 C 52 47.2 53 46.3 53 44.5 C 53 44.5 53 42.6 53 42.6 C 52.5 43.8 51.4 44.6 49.6 44.6 C 47 44.6 44.6 42.8 44.6 38.9 C 44.6 35 47 33.2 49.6 33.2 C 51.3 33.2 52.5 33.9 53 35 C 53.05 35.01 53 33.4 53 33.4 L 55.7 33.4 C 55.7 33.4 55.73 44.2 55.7 44.2 Z M 52.9 38.9 C 52.9 36.7 51.7 35.6 50.2 35.6 C 48.7 35.6 47.3 36.7 47.3 38.9 C 47.3 41.1 48.7 42.1 50.2 42.1 C 51.7 42.1 52.9 41.1 52.9 38.9 Z M 69.7 45 C 69.7 45 67.91 44.98 67.9 45 C 65.8 45 64.4 44.3 64.4 41.2 C 64.36 41.2 64.4 35.9 64.4 35.9 L 62.2 35.9 L 62.2 33.4 L 64.4 33.4 L 64.4 30.8 L 67.2 30 L 67.2 33.4 L 69.5 33.4 L 69.5 35.9 L 67.2 35.9 C 67.2 35.9 67.16 41.33 67.2 41.3 C 67.2 42 67.3 42.5 68.3 42.5 C 68.33 42.5 69.7 42.5 69.7 42.5 L 69.7 45 Z M 81.9 39.2 C 81.9 43 79.5 45.2 76.2 45.2 C 73 45.2 70.6 43 70.6 39.2 C 70.6 35.4 73 33.2 76.2 33.2 C 79.5 33.2 81.9 35.4 81.9 39.2 Z M 73.4 39.2 C 73.4 41.5 74.7 42.6 76.3 42.6 C 77.9 42.6 79 41.4 79 39.2 C 79 36.9 77.8 35.8 76.2 35.8 C 74.5 35.8 73.4 37 73.4 39.2 Z M 99.3 45 L 96.6 45 C 96.6 45 96.56 43.34 96.6 43.3 C 95.9 44.4 94.8 45.1 93.2 45.1 C 90.8 45.1 89 43.6 89 40.6 C 89.04 40.59 89 33.4 89 33.4 L 91.8 33.4 C 91.8 33.4 91.83 40.38 91.8 40.4 C 91.8 42 92.6 42.6 93.8 42.6 C 95.4 42.6 96.5 41.7 96.5 39 C 96.49 39 96.5 33.4 96.5 33.4 L 99.3 33.4 L 99.3 45 Z M 111.3 41.4 C 111.3 44 109 45.2 106.4 45.2 C 104 45.2 101.4 44.2 101.2 41.3 C 101.2 41.3 104 41.3 104 41.3 C 104.2 42.4 105.2 42.9 106.5 42.9 C 107.7 42.9 108.5 42.5 108.5 41.7 C 108.5 40.9 108 40.8 106.4 40.5 C 104.1 40.1 101.5 39.7 101.5 36.9 C 101.5 34.3 103.7 33.2 106.1 33.2 C 108.8 33.2 110.8 34.5 111 37.1 C 111 37.1 108.3 37.1 108.3 37.1 C 108.2 36 107.4 35.5 106.2 35.5 C 104.8 35.5 104.2 36.1 104.2 36.8 C 104.2 37.7 105.3 37.9 106.7 38.1 C 108.8 38.4 111.3 38.7 111.3 41.4 Z M 115.1 40 C 115.2 41.9 116.5 42.8 118.1 42.8 C 119.2 42.8 120.3 42.4 120.6 41.3 C 120.6 41.3 123.2 41.3 123.2 41.3 C 122.7 43.9 120.4 45.2 118 45.2 C 115.2 45.2 112.4 43.3 112.4 39.2 C 112.4 35.2 115.1 33.2 118 33.2 C 120.8 33.2 123.2 35 123.2 38.9 C 123.21 38.89 123.2 40 123.2 40 C 123.2 40 115.14 40.03 115.1 40 Z M 115.2 38 C 115.2 38 120.5 38 120.5 38 C 120.5 36.5 119.4 35.6 118 35.6 C 116.7 35.6 115.5 36.3 115.2 38 Z M 136.2 45 C 136.2 45 134.34 44.98 134.3 45 C 132.2 45 130.8 44.3 130.8 41.2 C 130.79 41.2 130.8 35.9 130.8 35.9 L 128.7 35.9 L 128.7 33.4 L 130.8 33.4 L 130.8 30.8 L 133.6 30 L 133.6 33.4 L 135.9 33.4 L 135.9 35.9 L 133.6 35.9 C 133.6 35.9 133.58 41.33 133.6 41.3 C 133.6 42 133.8 42.5 134.8 42.5 C 134.76 42.5 136.2 42.5 136.2 42.5 L 136.2 45 Z M 148.3 39.2 C 148.3 43 145.9 45.2 142.7 45.2 C 139.4 45.2 137 43 137 39.2 C 137 35.4 139.4 33.2 142.7 33.2 C 145.9 33.2 148.3 35.4 148.3 39.2 Z M 139.9 39.2 C 139.9 41.5 141.1 42.6 142.7 42.6 C 144.4 42.6 145.5 41.4 145.5 39.2 C 145.5 36.9 144.2 35.8 142.6 35.8 C 141 35.8 139.9 37 139.9 39.2 Z M 165.8 45 L 163.1 45 C 163.1 45 163.06 43.2 163.1 43.2 C 162.4 44.5 161.1 45.2 159.5 45.2 C 156.8 45.2 154.4 43.2 154.4 39.2 C 154.4 35.2 156.8 33.2 159.5 33.2 C 161 33.2 162.3 33.8 163 34.9 C 163 34.92 163 29 163 29 L 165.8 29 L 165.8 45 Z M 163.1 39.2 C 163.1 36.8 161.7 35.7 160.1 35.7 C 158.6 35.7 157.2 36.8 157.2 39.2 C 157.2 41.5 158.6 42.7 160.1 42.7 C 161.7 42.7 163.1 41.5 163.1 39.2 Z M 170.5 40 C 170.6 41.9 171.9 42.8 173.5 42.8 C 174.6 42.8 175.6 42.4 176 41.3 C 176 41.3 178.5 41.3 178.5 41.3 C 178 43.9 175.7 45.2 173.4 45.2 C 170.6 45.2 167.8 43.3 167.8 39.2 C 167.8 35.2 170.4 33.2 173.4 33.2 C 176.2 33.2 178.6 35 178.6 38.9 C 178.56 38.89 178.6 40 178.6 40 C 178.6 40 170.5 40.03 170.5 40 Z M 170.6 38 C 170.6 38 175.8 38 175.8 38 C 175.8 36.5 174.8 35.6 173.3 35.6 C 172.1 35.6 170.8 36.3 170.6 38 Z M 183.3 45 L 180.6 45 L 180.6 29 L 183.3 29 L 183.3 45 Z M 186 31.9 L 188.9 31.9 L 188.9 28.7 L 186 28.7 L 186 31.9 Z M 186.1 33.4 L 188.9 33.4 L 188.9 45 L 186.1 45 L 186.1 33.4 Z M 197.4 45 L 194.5 45 L 190.2 33.4 L 193.2 33.4 L 196 41.7 L 198.8 33.4 L 201.7 33.4 L 197.4 45 Z M 204.9 40 C 204.9 41.9 206.3 42.8 207.9 42.8 C 208.9 42.8 210 42.4 210.3 41.3 C 210.3 41.3 212.9 41.3 212.9 41.3 C 212.4 43.9 210.1 45.2 207.7 45.2 C 204.9 45.2 202.2 43.3 202.2 39.2 C 202.2 35.2 204.8 33.2 207.8 33.2 C 210.6 33.2 212.9 35 212.9 38.9 C 212.94 38.89 212.9 40 212.9 40 C 212.9 40 204.87 40.03 204.9 40 Z M 204.9 38 C 204.9 38 210.2 38 210.2 38 C 210.2 36.5 209.1 35.6 207.7 35.6 C 206.4 35.6 205.2 36.3 204.9 38 Z M 221.5 36 C 221.5 36 220.75 35.97 220.7 36 C 218.8 36 217.7 37 217.7 39.3 C 217.73 39.31 217.7 45 217.7 45 L 214.9 45 L 214.9 33.4 L 217.7 33.4 C 217.7 33.4 217.7 35.05 217.7 35 C 218.3 33.8 219.4 33.3 220.7 33.3 C 220.73 33.26 221.5 33.3 221.5 33.3 L 221.5 36 Z M 237.2 37.2 C 237.15 37.19 237.2 45 237.2 45 L 234.4 45 C 234.4 45 234.42 43.3 234.4 43.3 C 233.5 44.8 232.1 45.2 230.9 45.2 C 229.1 45.2 227.2 44.1 227.2 41.6 C 227.2 39.8 228.2 38.6 230.9 38.2 C 230.9 38.2 233.3 37.8 233.3 37.8 C 234 37.7 234.5 37.5 234.5 36.8 C 234.5 35.8 233.7 35.4 232.6 35.4 C 231.1 35.4 230.4 36.1 230.3 37.1 C 230.3 37.1 227.6 37.1 227.6 37.1 C 227.9 34.4 230.1 33.2 232.7 33.2 C 235.4 33.2 237.2 34.5 237.2 37.2 Z M 234.4 40.1 C 234.4 40.1 234.4 39.5 234.4 39.5 C 234.2 39.6 233.6 39.8 233.1 39.8 C 233.1 39.8 231.8 40 231.8 40 C 230.4 40.2 229.9 40.8 229.9 41.5 C 229.9 42.4 230.6 42.9 231.6 42.9 C 233 42.9 234.4 41.8 234.4 40.1 Z M 252.6 45 C 252.6 45 250.78 44.98 250.8 45 C 248.6 45 247.2 44.3 247.2 41.2 C 247.23 41.2 247.2 35.9 247.2 35.9 L 243 35.9 C 243 35.9 243.01 41.33 243 41.3 C 243 42 243.2 42.5 244.2 42.5 C 244.19 42.5 245.6 42.5 245.6 42.5 L 245.6 45 C 245.6 45 243.77 44.98 243.8 45 C 241.6 45 240.2 44.3 240.2 41.2 C 240.22 41.2 240.2 35.9 240.2 35.9 L 238.1 35.9 L 238.1 33.4 L 240.2 33.4 L 240.2 30.8 L 243 30 L 243 33.4 L 247.2 33.4 L 247.2 30.8 L 250 30 L 250 33.4 L 252.3 33.4 L 252.3 35.9 L 250 35.9 C 250 35.9 250.02 41.33 250 41.3 C 250 42 250.2 42.5 251.2 42.5 C 251.2 42.5 252.6 42.5 252.6 42.5 L 252.6 45 Z M 260.7 36 C 260.7 36 260 35.97 260 36 C 258 36 257 37 257 39.3 C 256.97 39.31 257 45 257 45 L 254.2 45 L 254.2 33.4 L 257 33.4 C 257 33.4 256.95 35.05 257 35 C 257.5 33.8 258.6 33.3 260 33.3 C 259.98 33.26 260.7 33.3 260.7 33.3 L 260.7 36 Z M 271.4 37.2 C 271.36 37.19 271.4 45 271.4 45 L 268.6 45 C 268.6 45 268.63 43.3 268.6 43.3 C 267.7 44.8 266.3 45.2 265.1 45.2 C 263.3 45.2 261.4 44.1 261.4 41.6 C 261.4 39.8 262.4 38.6 265.1 38.2 C 265.1 38.2 267.6 37.8 267.6 37.8 C 268.3 37.7 268.7 37.5 268.7 36.8 C 268.7 35.8 267.9 35.4 266.8 35.4 C 265.3 35.4 264.6 36.1 264.5 37.1 C 264.5 37.1 261.8 37.1 261.8 37.1 C 262.1 34.4 264.3 33.2 266.9 33.2 C 269.6 33.2 271.4 34.5 271.4 37.2 Z M 268.7 40.1 C 268.7 40.1 268.7 39.5 268.7 39.5 C 268.4 39.6 267.9 39.8 267.3 39.8 C 267.3 39.8 266 40 266 40 C 264.6 40.2 264.2 40.8 264.2 41.5 C 264.2 42.4 264.8 42.9 265.8 42.9 C 267.2 42.9 268.7 41.8 268.7 40.1 Z M 278.8 45.2 C 275 45.2 273.1 42.3 273.1 39.2 C 273.1 36.1 274.9 33.2 278.8 33.2 C 281.6 33.2 283.8 34.8 283.9 37.6 C 283.9 37.6 281.1 37.6 281.1 37.6 C 281 36.5 280.2 35.7 278.8 35.7 C 276.8 35.7 276 37.4 276 39.2 C 276 41.1 276.8 42.6 278.8 42.6 C 280.2 42.6 281 41.9 281.2 40.9 C 281.2 40.9 283.9 40.9 283.9 40.9 C 283.6 43.7 281.6 45.2 278.8 45.2 Z M 291.9 45 C 291.9 45 290.05 44.98 290 45 C 287.9 45 286.5 44.3 286.5 41.2 C 286.5 41.2 286.5 35.9 286.5 35.9 L 284.4 35.9 L 284.4 33.4 L 286.5 33.4 L 286.5 30.8 L 289.3 30 L 289.3 33.4 L 291.6 33.4 L 291.6 35.9 L 289.3 35.9 C 289.3 35.9 289.29 41.33 289.3 41.3 C 289.3 42 289.5 42.5 290.5 42.5 C 290.47 42.5 291.9 42.5 291.9 42.5 L 291.9 45 Z M 293.3 31.9 L 296.3 31.9 L 296.3 28.7 L 293.3 28.7 L 293.3 31.9 Z M 293.4 33.4 L 296.2 33.4 L 296.2 45 L 293.4 45 L 293.4 33.4 Z M 304.8 45 L 301.9 45 L 297.6 33.4 L 300.5 33.4 L 303.4 41.7 L 306.2 33.4 L 309.1 33.4 L 304.8 45 Z M 312.2 40 C 312.3 41.9 313.7 42.8 315.2 42.8 C 316.3 42.8 317.4 42.4 317.7 41.3 C 317.7 41.3 320.3 41.3 320.3 41.3 C 319.8 43.9 317.5 45.2 315.1 45.2 C 312.3 45.2 309.5 43.3 309.5 39.2 C 309.5 35.2 312.2 33.2 315.1 33.2 C 317.9 33.2 320.3 35 320.3 38.9 C 320.31 38.89 320.3 40 320.3 40 C 320.3 40 312.25 40.03 312.2 40 Z M 312.3 38 C 312.3 38 317.6 38 317.6 38 C 317.6 36.5 316.5 35.6 315.1 35.6 C 313.8 35.6 312.6 36.3 312.3 38 Z M 334.1 36 C 334.1 36 333.37 35.97 333.4 36 C 331.4 36 330.3 37 330.3 39.3 C 330.35 39.31 330.3 45 330.3 45 L 327.6 45 L 327.6 33.4 L 330.3 33.4 C 330.3 33.4 330.33 35.05 330.3 35 C 330.9 33.8 332 33.3 333.4 33.3 C 333.35 33.26 334.1 33.3 334.1 33.3 L 334.1 36 Z M 337.2 40 C 337.3 41.9 338.6 42.8 340.2 42.8 C 341.3 42.8 342.4 42.4 342.7 41.3 C 342.7 41.3 345.3 41.3 345.3 41.3 C 344.8 43.9 342.5 45.2 340.1 45.2 C 337.3 45.2 334.5 43.3 334.5 39.2 C 334.5 35.2 337.2 33.2 340.1 33.2 C 342.9 33.2 345.3 35 345.3 38.9 C 345.3 38.89 345.3 40 345.3 40 C 345.3 40 337.24 40.03 337.2 40 Z M 337.3 38 C 337.3 38 342.6 38 342.6 38 C 342.6 36.5 341.5 35.6 340.1 35.6 C 338.8 35.6 337.6 36.3 337.3 38 Z M 353.2 45 C 353.2 45 351.39 44.98 351.4 45 C 349.2 45 347.8 44.3 347.8 41.2 C 347.84 41.2 347.8 35.9 347.8 35.9 L 345.7 35.9 L 345.7 33.4 L 347.8 33.4 L 347.8 30.8 L 350.6 30 L 350.6 33.4 L 352.9 33.4 L 352.9 35.9 L 350.6 35.9 C 350.6 35.9 350.63 41.33 350.6 41.3 C 350.6 42 350.8 42.5 351.8 42.5 C 351.81 42.5 353.2 42.5 353.2 42.5 L 353.2 45 Z M 364.9 45 L 362.2 45 C 362.2 45 362.2 43.34 362.2 43.3 C 361.5 44.4 360.5 45.1 358.9 45.1 C 356.5 45.1 354.7 43.6 354.7 40.6 C 354.69 40.59 354.7 33.4 354.7 33.4 L 357.5 33.4 C 357.5 33.4 357.48 40.38 357.5 40.4 C 357.5 42 358.3 42.6 359.5 42.6 C 361 42.6 362.1 41.7 362.1 39 C 362.14 39 362.1 33.4 362.1 33.4 L 364.9 33.4 L 364.9 45 Z M 374.2 36 C 374.2 36 373.48 35.97 373.5 36 C 371.5 36 370.5 37 370.5 39.3 C 370.46 39.31 370.5 45 370.5 45 L 367.7 45 L 367.7 33.4 L 370.4 33.4 C 370.4 33.4 370.44 35.05 370.4 35 C 371 33.8 372.1 33.3 373.5 33.3 C 373.46 33.26 374.2 33.3 374.2 33.3 L 374.2 36 Z M 385.8 37.5 C 385.77 37.51 385.8 45 385.8 45 L 383 45 C 383 45 382.97 37.76 383 37.8 C 383 36.5 382.2 35.7 380.9 35.7 C 379.3 35.7 378.4 36.8 378.4 38.7 C 378.37 38.72 378.4 45 378.4 45 L 375.6 45 L 375.6 33.4 L 378.4 33.4 C 378.4 33.4 378.35 35.07 378.4 35.1 C 379 34 379.9 33.2 381.9 33.2 C 384.5 33.2 385.8 34.7 385.8 37.5 Z M 397.7 41.4 C 397.7 44 395.3 45.2 392.7 45.2 C 390.3 45.2 387.7 44.2 387.6 41.3 C 387.6 41.3 390.4 41.3 390.4 41.3 C 390.6 42.4 391.6 42.9 392.9 42.9 C 394.1 42.9 394.9 42.5 394.9 41.7 C 394.9 40.9 394.4 40.8 392.8 40.5 C 390.5 40.1 387.9 39.7 387.9 36.9 C 387.9 34.3 390.1 33.2 392.5 33.2 C 395.2 33.2 397.2 34.5 397.4 37.1 C 397.4 37.1 394.6 37.1 394.6 37.1 C 394.5 36 393.7 35.5 392.5 35.5 C 391.2 35.5 390.6 36.1 390.6 36.8 C 390.6 37.7 391.6 37.9 393.1 38.1 C 395.1 38.4 397.7 38.7 397.7 41.4 Z M 415 45 L 412.3 45 C 412.3 45 412.29 43.2 412.3 43.2 C 411.7 44.5 410.3 45.2 408.7 45.2 C 406 45.2 403.6 43.2 403.6 39.2 C 403.6 35.2 406 33.2 408.7 33.2 C 410.2 33.2 411.5 33.8 412.2 34.9 C 412.23 34.92 412.2 29 412.2 29 L 415 29 L 415 45 Z M 412.3 39.2 C 412.3 36.8 410.9 35.7 409.4 35.7 C 407.9 35.7 406.5 36.8 406.5 39.2 C 406.5 41.5 407.9 42.7 409.4 42.7 C 410.9 42.7 412.3 41.5 412.3 39.2 Z M 419.7 40 C 419.8 41.9 421.1 42.8 422.7 42.8 C 423.8 42.8 424.8 42.4 425.2 41.3 C 425.2 41.3 427.7 41.3 427.7 41.3 C 427.2 43.9 425 45.2 422.6 45.2 C 419.8 45.2 417 43.3 417 39.2 C 417 35.2 419.6 33.2 422.6 33.2 C 425.4 33.2 427.8 35 427.8 38.9 C 427.79 38.89 427.8 40 427.8 40 C 427.8 40 419.72 40.03 419.7 40 Z M 419.8 38 C 419.8 38 425.1 38 425.1 38 C 425.1 36.5 424 35.6 422.6 35.6 C 421.3 35.6 420 36.3 419.8 38 Z M 439 41.4 C 439 44 436.7 45.2 434.1 45.2 C 431.7 45.2 429.1 44.2 428.9 41.3 C 428.9 41.3 431.8 41.3 431.8 41.3 C 431.9 42.4 433 42.9 434.3 42.9 C 435.5 42.9 436.3 42.5 436.3 41.7 C 436.3 40.9 435.7 40.8 434.1 40.5 C 431.9 40.1 429.3 39.7 429.3 36.9 C 429.3 34.3 431.5 33.2 433.9 33.2 C 436.6 33.2 438.6 34.5 438.8 37.1 C 438.8 37.1 436 37.1 436 37.1 C 435.9 36 435.1 35.5 433.9 35.5 C 432.6 35.5 432 36.1 432 36.8 C 432 37.7 433 37.9 434.4 38.1 C 436.5 38.4 439 38.7 439 41.4 Z M 452.3 39 C 452.3 43.2 449.7 45.1 447 45.1 C 445.4 45.1 444.4 44.4 443.7 43.6 C 443.73 43.6 443.7 49.3 443.7 49.3 L 440.9 49.3 L 440.9 33.4 L 443.7 33.4 C 443.7 33.4 443.66 35.24 443.7 35.2 C 444.3 34 445.6 33.2 447.3 33.2 C 450 33.2 452.3 35.1 452.3 39 Z M 449.5 39.2 C 449.5 36.8 448.1 35.7 446.6 35.7 C 445.1 35.7 443.6 36.8 443.6 39.2 C 443.6 41.5 445.1 42.6 446.6 42.6 C 448.1 42.6 449.5 41.5 449.5 39.2 Z M 454.2 31.9 L 457.2 31.9 L 457.2 28.7 L 454.2 28.7 L 454.2 31.9 Z M 454.3 33.4 L 457.1 33.4 L 457.1 45 L 454.3 45 L 454.3 33.4 Z M 465.7 45 C 465.7 45 463.88 44.98 463.9 45 C 461.7 45 460.3 44.3 460.3 41.2 C 460.34 41.2 460.3 35.9 460.3 35.9 L 458.2 35.9 L 458.2 33.4 L 460.3 33.4 L 460.3 30.8 L 463.1 30 L 463.1 33.4 L 465.4 33.4 L 465.4 35.9 L 463.1 35.9 C 463.1 35.9 463.13 41.33 463.1 41.3 C 463.1 42 463.3 42.5 464.3 42.5 C 464.3 42.5 465.7 42.5 465.7 42.5 L 465.7 45 Z M 469.3 40 C 469.3 41.9 470.7 42.8 472.2 42.8 C 473.3 42.8 474.4 42.4 474.7 41.3 C 474.7 41.3 477.3 41.3 477.3 41.3 C 476.8 43.9 474.5 45.2 472.1 45.2 C 469.3 45.2 466.6 43.3 466.6 39.2 C 466.6 35.2 469.2 33.2 472.1 33.2 C 475 33.2 477.3 35 477.3 38.9 C 477.32 38.89 477.3 40 477.3 40 C 477.3 40 469.26 40.03 469.3 40 Z M 469.3 38 C 469.3 38 474.6 38 474.6 38 C 474.6 36.5 473.5 35.6 472.1 35.6 C 470.8 35.6 469.6 36.3 469.3 38 Z " stroke="none" fill="#000"/> </g> <g id="Polygon12827">  <path d="M 11.5 16.3 L 4.8 16.3 L 3.5 19.8 L 0.4 19.8 L 6.5 4 L 9.7 4 L 16 19.8 L 12.8 19.8 L 11.5 16.3 Z M 10.4 13.5 L 8.1 7.3 L 5.8 13.5 L 10.4 13.5 Z M 27 16.2 C 27 18.8 24.7 20 22.1 20 C 19.7 20 17.1 19 16.9 16.1 C 16.9 16.1 19.8 16.1 19.8 16.1 C 19.9 17.2 21 17.7 22.3 17.7 C 23.5 17.7 24.3 17.3 24.3 16.5 C 24.3 15.7 23.8 15.6 22.2 15.3 C 19.9 14.9 17.3 14.5 17.3 11.7 C 17.3 9.1 19.5 8 21.9 8 C 24.6 8 26.6 9.3 26.8 11.9 C 26.8 11.9 24 11.9 24 11.9 C 23.9 10.8 23.1 10.3 21.9 10.3 C 20.6 10.3 20 10.9 20 11.6 C 20 12.5 21 12.7 22.4 12.9 C 24.5 13.2 27 13.5 27 16.2 Z M 43.4 12 C 43.45 11.99 43.4 19.8 43.4 19.8 L 40.7 19.8 C 40.7 19.8 40.72 18.1 40.7 18.1 C 39.8 19.6 38.4 20 37.2 20 C 35.4 20 33.5 18.9 33.5 16.4 C 33.5 14.6 34.5 13.4 37.1 13 C 37.1 13 39.6 12.6 39.6 12.6 C 40.3 12.5 40.8 12.3 40.8 11.6 C 40.8 10.6 40 10.2 38.9 10.2 C 37.4 10.2 36.7 10.9 36.6 11.9 C 36.6 11.9 33.9 11.9 33.9 11.9 C 34.2 9.2 36.4 8 39 8 C 41.7 8 43.4 9.3 43.4 12 Z M 40.7 14.9 C 40.7 14.9 40.7 14.3 40.7 14.3 C 40.5 14.4 39.9 14.6 39.4 14.6 C 39.4 14.6 38.1 14.8 38.1 14.8 C 36.7 15 36.2 15.6 36.2 16.3 C 36.2 17.2 36.9 17.7 37.9 17.7 C 39.3 17.7 40.7 16.6 40.7 14.9 Z M 56.2 12.3 C 56.15 12.31 56.2 19.8 56.2 19.8 L 53.4 19.8 C 53.4 19.8 53.36 12.56 53.4 12.6 C 53.4 11.3 52.6 10.5 51.3 10.5 C 49.7 10.5 48.8 11.6 48.8 13.5 C 48.76 13.52 48.8 19.8 48.8 19.8 L 46 19.8 L 46 8.2 L 48.7 8.2 C 48.7 8.2 48.74 9.87 48.7 9.9 C 49.4 8.8 50.3 8 52.3 8 C 54.9 8 56.2 9.5 56.2 12.3 Z M 73.7 12 C 73.71 11.99 73.7 19.8 73.7 19.8 L 71 19.8 C 71 19.8 70.98 18.1 71 18.1 C 70.1 19.6 68.7 20 67.5 20 C 65.6 20 63.7 18.9 63.7 16.4 C 63.7 14.6 64.7 13.4 67.4 13 C 67.4 13 69.9 12.6 69.9 12.6 C 70.6 12.5 71.1 12.3 71.1 11.6 C 71.1 10.6 70.2 10.2 69.1 10.2 C 67.6 10.2 67 10.9 66.9 11.9 C 66.9 11.9 64.2 11.9 64.2 11.9 C 64.5 9.2 66.6 8 69.3 8 C 72 8 73.7 9.3 73.7 12 Z M 71 14.9 C 71 14.9 71 14.3 71 14.3 C 70.7 14.4 70.2 14.6 69.6 14.6 C 69.6 14.6 68.4 14.8 68.4 14.8 C 67 15 66.5 15.6 66.5 16.3 C 66.5 17.2 67.2 17.7 68.1 17.7 C 69.6 17.7 71 16.6 71 14.9 Z M 81.1 20 C 77.3 20 75.5 17.1 75.5 14 C 75.5 10.9 77.3 8 81.1 8 C 84 8 86.1 9.6 86.2 12.4 C 86.2 12.4 83.5 12.4 83.5 12.4 C 83.3 11.3 82.5 10.5 81.2 10.5 C 79.1 10.5 78.3 12.2 78.3 14 C 78.3 15.9 79.2 17.4 81.2 17.4 C 82.5 17.4 83.3 16.7 83.5 15.7 C 83.5 15.7 86.3 15.7 86.3 15.7 C 85.9 18.5 83.9 20 81.1 20 Z M 94.2 19.8 C 94.2 19.8 92.4 19.78 92.4 19.8 C 90.2 19.8 88.8 19.1 88.8 16 C 88.85 16 88.8 10.7 88.8 10.7 L 86.7 10.7 L 86.7 8.2 L 88.8 8.2 L 88.8 5.6 L 91.6 4.8 L 91.6 8.2 L 94 8.2 L 94 10.7 L 91.6 10.7 C 91.6 10.7 91.64 16.13 91.6 16.1 C 91.6 16.8 91.8 17.3 92.8 17.3 C 92.82 17.3 94.2 17.3 94.2 17.3 L 94.2 19.8 Z M 95.7 6.7 L 98.7 6.7 L 98.7 3.5 L 95.7 3.5 L 95.7 6.7 Z M 95.8 8.2 L 98.6 8.2 L 98.6 19.8 L 95.8 19.8 L 95.8 8.2 Z M 107.2 19.8 L 104.2 19.8 L 99.9 8.2 L 102.9 8.2 L 105.7 16.5 L 108.6 8.2 L 111.5 8.2 L 107.2 19.8 Z M 114.6 14.8 C 114.7 16.7 116 17.6 117.6 17.6 C 118.7 17.6 119.7 17.2 120.1 16.1 C 120.1 16.1 122.6 16.1 122.6 16.1 C 122.1 18.7 119.8 20 117.5 20 C 114.7 20 111.9 18.1 111.9 14 C 111.9 10 114.5 8 117.5 8 C 120.3 8 122.7 9.8 122.7 13.7 C 122.66 13.69 122.7 14.8 122.7 14.8 C 122.7 14.8 114.6 14.83 114.6 14.8 Z M 114.7 12.8 C 114.7 12.8 119.9 12.8 119.9 12.8 C 119.9 11.3 118.9 10.4 117.4 10.4 C 116.1 10.4 114.9 11.1 114.7 12.8 Z M 146.3 12 C 146.26 11.97 146.3 19.8 146.3 19.8 L 143.5 19.8 C 143.5 19.8 143.47 12.52 143.5 12.5 C 143.5 11.1 142.8 10.5 141.7 10.5 C 140.3 10.5 139.5 11.3 139.5 13.3 C 139.48 13.27 139.5 19.8 139.5 19.8 L 136.7 19.8 C 136.7 19.8 136.69 12.52 136.7 12.5 C 136.7 11.1 136 10.5 134.9 10.5 C 133.6 10.5 132.7 11.3 132.7 13.3 C 132.7 13.25 132.7 19.8 132.7 19.8 L 129.9 19.8 L 129.9 8.2 L 132.7 8.2 C 132.7 8.2 132.66 9.89 132.7 9.9 C 133 9 133.9 8 135.7 8 C 137.1 8 138.3 8.7 138.9 9.9 C 139.3 9.1 140.1 8 142.2 8 C 144.7 8 146.3 9.5 146.3 12 Z M 158.1 12 C 158.15 11.99 158.1 19.8 158.1 19.8 L 155.4 19.8 C 155.4 19.8 155.42 18.1 155.4 18.1 C 154.5 19.6 153.1 20 151.9 20 C 150.1 20 148.2 18.9 148.2 16.4 C 148.2 14.6 149.2 13.4 151.8 13 C 151.8 13 154.3 12.6 154.3 12.6 C 155 12.5 155.5 12.3 155.5 11.6 C 155.5 10.6 154.7 10.2 153.6 10.2 C 152.1 10.2 151.4 10.9 151.3 11.9 C 151.3 11.9 148.6 11.9 148.6 11.9 C 148.9 9.2 151.1 8 153.7 8 C 156.4 8 158.1 9.3 158.1 12 Z M 155.4 14.9 C 155.4 14.9 155.4 14.3 155.4 14.3 C 155.2 14.4 154.6 14.6 154.1 14.6 C 154.1 14.6 152.8 14.8 152.8 14.8 C 151.4 15 150.9 15.6 150.9 16.3 C 150.9 17.2 151.6 17.7 152.6 17.7 C 154 17.7 155.4 16.6 155.4 14.9 Z M 170.9 12.3 C 170.85 12.31 170.9 19.8 170.9 19.8 L 168.1 19.8 C 168.1 19.8 168.06 12.56 168.1 12.6 C 168.1 11.3 167.3 10.5 166 10.5 C 164.4 10.5 163.5 11.6 163.5 13.5 C 163.46 13.52 163.5 19.8 163.5 19.8 L 160.7 19.8 L 160.7 8.2 L 163.4 8.2 C 163.4 8.2 163.44 9.87 163.4 9.9 C 164.1 8.8 165 8 167 8 C 169.6 8 170.9 9.5 170.9 12.3 Z M 182.7 12 C 182.74 11.99 182.7 19.8 182.7 19.8 L 180 19.8 C 180 19.8 180.01 18.1 180 18.1 C 179.1 19.6 177.7 20 176.5 20 C 174.7 20 172.7 18.9 172.7 16.4 C 172.7 14.6 173.8 13.4 176.4 13 C 176.4 13 178.9 12.6 178.9 12.6 C 179.6 12.5 180.1 12.3 180.1 11.6 C 180.1 10.6 179.3 10.2 178.2 10.2 C 176.7 10.2 176 10.9 175.9 11.9 C 175.9 11.9 173.2 11.9 173.2 11.9 C 173.5 9.2 175.7 8 178.3 8 C 181 8 182.7 9.3 182.7 12 Z M 180 14.9 C 180 14.9 180 14.3 180 14.3 C 179.8 14.4 179.2 14.6 178.7 14.6 C 178.7 14.6 177.4 14.8 177.4 14.8 C 176 15 175.5 15.6 175.5 16.3 C 175.5 17.2 176.2 17.7 177.2 17.7 C 178.6 17.7 180 16.6 180 14.9 Z M 195.7 19 C 195.7 22.7 193.3 24.4 190.2 24.4 C 187.4 24.4 185 23 184.7 20.1 C 184.7 20.1 187.4 20.1 187.4 20.1 C 187.7 21.6 188.9 22 190.2 22 C 192 22 193 21.1 193 19.3 C 193 19.3 193 17.4 193 17.4 C 192.5 18.6 191.3 19.4 189.6 19.4 C 187 19.4 184.5 17.6 184.5 13.7 C 184.5 9.8 187 8 189.6 8 C 191.2 8 192.4 8.7 193 9.8 C 193.01 9.81 193 8.2 193 8.2 L 195.7 8.2 C 195.7 8.2 195.7 19 195.7 19 Z M 192.9 13.7 C 192.9 11.5 191.7 10.4 190.2 10.4 C 188.6 10.4 187.3 11.5 187.3 13.7 C 187.3 15.9 188.6 16.9 190.2 16.9 C 191.7 16.9 192.9 15.9 192.9 13.7 Z M 200.3 14.8 C 200.4 16.7 201.7 17.6 203.3 17.6 C 204.4 17.6 205.4 17.2 205.8 16.1 C 205.8 16.1 208.3 16.1 208.3 16.1 C 207.8 18.7 205.5 20 203.2 20 C 200.4 20 197.6 18.1 197.6 14 C 197.6 10 200.2 8 203.2 8 C 206 8 208.4 9.8 208.4 13.7 C 208.36 13.69 208.4 14.8 208.4 14.8 C 208.4 14.8 200.3 14.83 200.3 14.8 Z M 200.4 12.8 C 200.4 12.8 205.6 12.8 205.6 12.8 C 205.6 11.3 204.6 10.4 203.1 10.4 C 201.8 10.4 200.6 11.1 200.4 12.8 Z M 216.9 10.8 C 216.9 10.8 216.17 10.77 216.2 10.8 C 214.2 10.8 213.1 11.8 213.1 14.1 C 213.15 14.11 213.1 19.8 213.1 19.8 L 210.4 19.8 L 210.4 8.2 L 213.1 8.2 C 213.1 8.2 213.13 9.85 213.1 9.8 C 213.7 8.6 214.8 8.1 216.2 8.1 C 216.15 8.06 216.9 8.1 216.9 8.1 L 216.9 10.8 Z M 218.7 19.6 C 218.71 19.59 217.3 19.6 217.3 19.6 L 217.3 16.7 L 220.5 16.7 C 220.5 16.7 220.5 19.19 220.5 19.2 C 220.5 22.2 218.4 23.3 216.5 23.5 C 216.5 23.5 216.3 22 216.3 22 C 217.8 21.8 218.7 20.9 218.7 19.6 Z M 239.8 19.8 L 237.1 19.8 L 234.8 12.4 L 232.4 19.8 L 229.7 19.8 L 225.9 8.2 L 228.8 8.2 L 231.1 15.9 L 233.5 8.2 L 236.2 8.2 L 238.5 15.9 L 240.8 8.2 L 243.7 8.2 L 239.8 19.8 Z M 255.3 12.3 C 255.32 12.31 255.3 19.8 255.3 19.8 L 252.5 19.8 C 252.5 19.8 252.52 12.56 252.5 12.6 C 252.5 11.3 251.8 10.5 250.5 10.5 C 248.9 10.5 247.9 11.6 247.9 13.5 C 247.92 13.52 247.9 19.8 247.9 19.8 L 245.1 19.8 L 245.1 3.8 L 247.9 3.8 C 247.9 3.8 247.92 9.83 247.9 9.8 C 248.6 8.7 249.6 8 251.4 8 C 254.1 8 255.3 9.5 255.3 12.3 Z M 267.2 12 C 267.2 11.99 267.2 19.8 267.2 19.8 L 264.5 19.8 C 264.5 19.8 264.47 18.1 264.5 18.1 C 263.6 19.6 262.2 20 261 20 C 259.1 20 257.2 18.9 257.2 16.4 C 257.2 14.6 258.2 13.4 260.9 13 C 260.9 13 263.4 12.6 263.4 12.6 C 264.1 12.5 264.6 12.3 264.6 11.6 C 264.6 10.6 263.7 10.2 262.6 10.2 C 261.1 10.2 260.5 10.9 260.4 11.9 C 260.4 11.9 257.7 11.9 257.7 11.9 C 258 9.2 260.1 8 262.7 8 C 265.5 8 267.2 9.3 267.2 12 Z M 264.5 14.9 C 264.5 14.9 264.5 14.3 264.5 14.3 C 264.2 14.4 263.7 14.6 263.1 14.6 C 263.1 14.6 261.9 14.8 261.9 14.8 C 260.5 15 260 15.6 260 16.3 C 260 17.2 260.6 17.7 261.6 17.7 C 263.1 17.7 264.5 16.6 264.5 14.9 Z M 275.6 19.8 C 275.6 19.8 273.82 19.78 273.8 19.8 C 271.7 19.8 270.3 19.1 270.3 16 C 270.27 16 270.3 10.7 270.3 10.7 L 268.1 10.7 L 268.1 8.2 L 270.3 8.2 L 270.3 5.6 L 273.1 4.8 L 273.1 8.2 L 275.4 8.2 L 275.4 10.7 L 273.1 10.7 C 273.1 10.7 273.06 16.13 273.1 16.1 C 273.1 16.8 273.2 17.3 274.2 17.3 C 274.24 17.3 275.6 17.3 275.6 17.3 L 275.6 19.8 Z M 285.5 19.8 L 282.7 19.8 L 282.7 3.8 L 285.5 3.8 L 285.5 19.8 Z M 290.2 14.8 C 290.2 16.7 291.6 17.6 293.2 17.6 C 294.2 17.6 295.3 17.2 295.6 16.1 C 295.6 16.1 298.2 16.1 298.2 16.1 C 297.7 18.7 295.4 20 293 20 C 290.2 20 287.5 18.1 287.5 14 C 287.5 10 290.1 8 293.1 8 C 295.9 8 298.2 9.8 298.2 13.7 C 298.24 13.69 298.2 14.8 298.2 14.8 C 298.2 14.8 290.17 14.83 290.2 14.8 Z M 290.2 12.8 C 290.2 12.8 295.5 12.8 295.5 12.8 C 295.5 11.3 294.4 10.4 293 10.4 C 291.7 10.4 290.5 11.1 290.2 12.8 Z M 306.1 19.8 L 303.2 19.8 L 298.9 8.2 L 301.8 8.2 L 304.7 16.5 L 307.5 8.2 L 310.4 8.2 L 306.1 19.8 Z M 313.5 14.8 C 313.6 16.7 315 17.6 316.5 17.6 C 317.6 17.6 318.7 17.2 319 16.1 C 319 16.1 321.6 16.1 321.6 16.1 C 321.1 18.7 318.8 20 316.4 20 C 313.6 20 310.8 18.1 310.8 14 C 310.8 10 313.5 8 316.4 8 C 319.2 8 321.6 9.8 321.6 13.7 C 321.61 13.69 321.6 14.8 321.6 14.8 C 321.6 14.8 313.55 14.83 313.5 14.8 Z M 313.6 12.8 C 313.6 12.8 318.9 12.8 318.9 12.8 C 318.9 11.3 317.8 10.4 316.4 10.4 C 315.1 10.4 313.9 11.1 313.6 12.8 Z M 330.2 10.8 C 330.2 10.8 329.42 10.77 329.4 10.8 C 327.5 10.8 326.4 11.8 326.4 14.1 C 326.4 14.11 326.4 19.8 326.4 19.8 L 323.6 19.8 L 323.6 8.2 L 326.4 8.2 C 326.4 8.2 326.38 9.85 326.4 9.8 C 327 8.6 328 8.1 329.4 8.1 C 329.4 8.06 330.2 8.1 330.2 8.1 L 330.2 10.8 Z M 340.8 16.2 C 340.8 18.8 338.5 20 335.9 20 C 333.5 20 330.9 19 330.7 16.1 C 330.7 16.1 333.5 16.1 333.5 16.1 C 333.7 17.2 334.7 17.7 336 17.7 C 337.2 17.7 338 17.3 338 16.5 C 338 15.7 337.5 15.6 335.9 15.3 C 333.6 14.9 331 14.5 331 11.7 C 331 9.1 333.2 8 335.6 8 C 338.3 8 340.3 9.3 340.5 11.9 C 340.5 11.9 337.8 11.9 337.8 11.9 C 337.7 10.8 336.9 10.3 335.7 10.3 C 334.3 10.3 333.7 10.9 333.7 11.6 C 333.7 12.5 334.8 12.7 336.2 12.9 C 338.3 13.2 340.8 13.5 340.8 16.2 Z M 357.2 12 C 357.18 11.99 357.2 19.8 357.2 19.8 L 354.5 19.8 C 354.5 19.8 354.45 18.1 354.5 18.1 C 353.6 19.6 352.2 20 350.9 20 C 349.1 20 347.2 18.9 347.2 16.4 C 347.2 14.6 348.2 13.4 350.9 13 C 350.9 13 353.4 12.6 353.4 12.6 C 354.1 12.5 354.6 12.3 354.6 11.6 C 354.6 10.6 353.7 10.2 352.6 10.2 C 351.1 10.2 350.4 10.9 350.3 11.9 C 350.3 11.9 347.7 11.9 347.7 11.9 C 347.9 9.2 350.1 8 352.7 8 C 355.5 8 357.2 9.3 357.2 12 Z M 354.5 14.9 C 354.5 14.9 354.5 14.3 354.5 14.3 C 354.2 14.4 353.7 14.6 353.1 14.6 C 353.1 14.6 351.9 14.8 351.9 14.8 C 350.4 15 350 15.6 350 16.3 C 350 17.2 350.6 17.7 351.6 17.7 C 353 17.7 354.5 16.6 354.5 14.9 Z M 366.3 10.8 C 366.3 10.8 365.52 10.77 365.5 10.8 C 363.6 10.8 362.5 11.8 362.5 14.1 C 362.5 14.11 362.5 19.8 362.5 19.8 L 359.7 19.8 L 359.7 8.2 L 362.5 8.2 C 362.5 8.2 362.48 9.85 362.5 9.8 C 363.1 8.6 364.1 8.1 365.5 8.1 C 365.5 8.06 366.3 8.1 366.3 8.1 L 366.3 10.8 Z M 369.4 14.8 C 369.4 16.7 370.8 17.6 372.4 17.6 C 373.5 17.6 374.5 17.2 374.8 16.1 C 374.8 16.1 377.4 16.1 377.4 16.1 C 376.9 18.7 374.6 20 372.2 20 C 369.4 20 366.7 18.1 366.7 14 C 366.7 10 369.3 8 372.3 8 C 375.1 8 377.4 9.8 377.4 13.7 C 377.45 13.69 377.4 14.8 377.4 14.8 C 377.4 14.8 369.39 14.83 369.4 14.8 Z M 369.4 12.8 C 369.4 12.8 374.7 12.8 374.7 12.8 C 374.7 11.3 373.6 10.4 372.2 10.4 C 370.9 10.4 369.7 11.1 369.4 12.8 Z M 394.2 8.2 C 394.2 8.2 389.17 21.52 389.2 21.5 C 388.6 22.9 387.5 23.5 385.9 23.5 C 385.89 23.48 384.1 23.5 384.1 23.5 L 384.1 21 C 384.1 21 385.41 21 385.4 21 C 386.3 21 386.8 20.7 387.1 19.9 C 387.07 19.87 387.3 19.3 387.3 19.3 L 382.9 8.2 L 385.9 8.2 L 388.6 15.8 L 391.3 8.2 L 394.2 8.2 Z M 405.9 14 C 405.9 17.8 403.5 20 400.3 20 C 397 20 394.6 17.8 394.6 14 C 394.6 10.2 397 8 400.3 8 C 403.5 8 405.9 10.2 405.9 14 Z M 397.5 14 C 397.5 16.3 398.8 17.4 400.3 17.4 C 402 17.4 403.1 16.2 403.1 14 C 403.1 11.7 401.8 10.6 400.3 10.6 C 398.6 10.6 397.5 11.8 397.5 14 Z M 418.1 19.8 L 415.4 19.8 C 415.4 19.8 415.35 18.14 415.4 18.1 C 414.7 19.2 413.6 19.9 412 19.9 C 409.6 19.9 407.8 18.4 407.8 15.4 C 407.84 15.39 407.8 8.2 407.8 8.2 L 410.6 8.2 C 410.6 8.2 410.63 15.18 410.6 15.2 C 410.6 16.8 411.4 17.4 412.6 17.4 C 414.2 17.4 415.3 16.5 415.3 13.8 C 415.29 13.8 415.3 8.2 415.3 8.2 L 418.1 8.2 L 418.1 19.8 Z " stroke="none" fill="#000"/> </g></svg>