<?xml version="1.0" standalone="no"?><!DOCTYPE svg PUBLIC "-//W3C//DTD SVG 1.1//EN" "http://www.w3.org/Graphics/SVG/1.1/DTD/svg11.dtd"><svg xmlns="http://www.w3.org/2000/svg" version="1.1" width="333px" height="97.4px" viewBox="0 0 333 97.4">  <desc>Das Reise- und Gastgewerbe hatten mit einem zyklischen Abschwung zu k mpfen,</desc>  <defs/>  <g id="Polygon11497">    <path d="M 11.7 65.7 L 4.2 65.7 L 2.5 70.2 L 0.7 70.2 L 7.1 54.4 L 8.8 54.4 L 15.3 70.2 L 13.5 70.2 L 11.7 65.7 Z M 7.9 56.2 L 4.7 64.3 L 11.2 64.3 L 7.9 56.2 Z M 28.2 64.5 C 28.2 68 26.1 70.4 23.1 70.4 C 21.1 70.4 19.8 69.3 19.2 68.1 C 19.17 68.1 19.2 70.2 19.2 70.2 L 17.7 70.2 L 17.7 54.2 L 19.2 54.2 C 19.2 54.2 19.24 61.17 19.2 61.2 C 19.8 59.8 21.2 58.7 23.3 58.7 C 26.1 58.7 28.2 60.9 28.2 64.5 Z M 26.7 64.6 C 26.7 61.8 25.2 60.2 23 60.2 C 20.8 60.2 19.2 61.8 19.2 64.6 C 19.2 67.4 20.8 69.1 22.9 69.1 C 25.2 69.1 26.7 67.3 26.7 64.6 Z M 39.2 67 C 39.2 69.3 37.1 70.4 34.9 70.4 C 32.5 70.4 30.2 69.2 30 66.7 C 30 66.7 31.6 66.7 31.6 66.7 C 31.9 68.4 33.4 69 34.9 69 C 36.4 69 37.6 68.5 37.6 67.2 C 37.6 65.9 36.3 65.6 35 65.4 C 32.8 65 30.3 64.6 30.3 62 C 30.3 59.8 32.2 58.7 34.5 58.7 C 36.9 58.7 38.8 59.8 38.9 62.1 C 38.9 62.1 37.3 62.1 37.3 62.1 C 37.2 60.7 35.9 60.1 34.5 60.1 C 32.9 60.1 31.9 60.8 31.9 61.9 C 31.9 63.4 33.2 63.6 34.9 63.9 C 37 64.2 39.2 64.5 39.2 67 Z M 46.2 70.4 C 43.1 70.4 41 68.1 41 64.6 C 41 61 43.1 58.7 46.4 58.7 C 48.9 58.7 50.9 60.1 51 62.6 C 51 62.6 49.5 62.6 49.5 62.6 C 49.4 61 48 60.1 46.3 60.1 C 44.1 60.1 42.6 61.8 42.6 64.5 C 42.6 67.3 44.1 69 46.3 69 C 48 69 49.4 68 49.5 66.2 C 49.5 66.2 51 66.2 51 66.2 C 50.9 68.9 48.7 70.4 46.2 70.4 Z M 62.8 62.5 C 62.81 62.45 62.8 70.2 62.8 70.2 L 61.3 70.2 C 61.3 70.2 61.28 62.64 61.3 62.6 C 61.3 61.1 60.4 60.1 58.8 60.1 C 56.9 60.1 55.2 61.5 55.2 64.3 C 55.19 64.26 55.2 70.2 55.2 70.2 L 53.7 70.2 L 53.7 54.2 L 55.2 54.2 C 55.2 54.2 55.19 60.88 55.2 60.9 C 55.8 59.6 57.1 58.7 59.1 58.7 C 61.4 58.7 62.8 60 62.8 62.5 Z M 77.3 70.2 L 75.8 70.2 L 72.9 61.2 L 70 70.2 L 68.5 70.2 L 64.8 58.9 L 66.4 58.9 L 69.3 68.2 L 72.1 58.9 L 73.7 58.9 L 76.6 68.2 L 79.4 58.9 L 81 58.9 L 77.3 70.2 Z M 90.5 70.2 C 90.5 70.2 90.53 68.04 90.5 68 C 89.8 69.6 88.4 70.3 86.8 70.3 C 84.6 70.3 83 69 83 66.4 C 83.01 66.36 83 58.9 83 58.9 L 84.5 58.9 C 84.5 58.9 84.54 66.17 84.5 66.2 C 84.5 68 85.6 69 87 69 C 88.8 69 90.5 67.6 90.5 64.7 C 90.47 64.74 90.5 58.9 90.5 58.9 L 92 58.9 L 92 70.2 L 90.5 70.2 Z M 104.5 62.5 C 104.52 62.45 104.5 70.2 104.5 70.2 L 103 70.2 C 103 70.2 102.98 62.64 103 62.6 C 103 61.1 102.1 60.1 100.5 60.1 C 98.6 60.1 96.9 61.5 96.9 64.3 C 96.89 64.26 96.9 70.2 96.9 70.2 L 95.4 70.2 L 95.4 58.9 L 96.9 58.9 C 96.9 58.9 96.89 61 96.9 61 C 97.6 59.7 98.8 58.7 100.8 58.7 C 103 58.7 104.5 60 104.5 62.5 Z M 117.5 69.7 C 117.5 73.1 115.3 74.8 112.4 74.8 C 109.9 74.8 107.6 73.5 107.3 70.9 C 107.3 70.9 108.8 70.9 108.8 70.9 C 109.1 72.3 110.1 73.5 112.4 73.5 C 114.4 73.5 116 72.4 116 69.8 C 116 69.8 116 67.5 116 67.5 C 115.2 69.2 113.5 69.8 112 69.8 C 109.3 69.8 107 67.9 107 64.2 C 107 60.5 109.4 58.7 112.1 58.7 C 113.9 58.7 115.3 59.5 116 60.7 C 115.96 60.73 116 58.9 116 58.9 L 117.5 58.9 C 117.5 58.9 117.47 69.68 117.5 69.7 Z M 115.9 64.2 C 115.9 61.4 114.2 60 112.3 60 C 110.4 60 108.5 61.4 108.5 64.2 C 108.5 67 110.3 68.4 112.3 68.4 C 114.1 68.4 115.9 67.2 115.9 64.2 Z M 125.5 68.8 L 132.5 60.3 L 125.6 60.3 L 125.6 58.9 L 134.4 58.9 L 134.4 60.3 L 127.3 68.8 L 134.4 68.8 L 134.4 70.2 L 125.5 70.2 L 125.5 68.8 Z M 144.7 70.2 C 144.7 70.2 144.69 68.04 144.7 68 C 143.9 69.6 142.5 70.3 140.9 70.3 C 138.8 70.3 137.2 69 137.2 66.4 C 137.17 66.36 137.2 58.9 137.2 58.9 L 138.7 58.9 C 138.7 58.9 138.7 66.17 138.7 66.2 C 138.7 68 139.7 69 141.2 69 C 143 69 144.6 67.6 144.6 64.7 C 144.63 64.74 144.6 58.9 144.6 58.9 L 146.2 58.9 L 146.2 70.2 L 144.7 70.2 Z M 158.7 64.7 L 156.7 66.8 L 156.7 70.2 L 155.2 70.2 L 155.2 54.2 L 156.7 54.2 L 156.7 64.9 L 162.3 58.9 L 164.2 58.9 L 159.8 63.6 L 164.6 70.2 L 162.7 70.2 L 158.7 64.7 Z M 168.2 56.6 L 168.2 54.7 L 170 54.7 L 170 56.6 L 168.2 56.6 Z M 172.2 56.6 L 172.2 54.7 L 174 54.7 L 174 56.6 L 172.2 56.6 Z M 173.7 68.1 C 172.8 69.8 171.1 70.4 169.7 70.4 C 167.8 70.4 166 69.3 166 67.1 C 166 65 167.5 64 169.5 63.8 C 169.5 63.8 172.1 63.4 172.1 63.4 C 173 63.3 173.7 63 173.7 62 C 173.7 60.7 172.6 60 171 60 C 169.3 60 168.2 60.8 168 62.1 C 168 62.1 166.5 62.1 166.5 62.1 C 166.8 59.8 168.6 58.7 171.1 58.7 C 173.6 58.7 175.2 59.9 175.2 62.4 C 175.2 62.39 175.2 70.2 175.2 70.2 L 173.7 70.2 C 173.7 70.2 173.71 68.12 173.7 68.1 Z M 171.8 64.7 C 171.8 64.7 170.1 64.9 170.1 64.9 C 168.7 65.1 167.6 65.6 167.6 67 C 167.6 68.4 168.7 69 170 69 C 171.7 69 173.7 67.7 173.7 65.3 C 173.7 65.3 173.7 64.2 173.7 64.2 C 173.2 64.5 172.6 64.6 171.8 64.7 Z M 178.4 58.9 L 179.9 58.9 C 179.9 58.9 179.86 60.77 179.9 60.8 C 180.5 59.4 181.7 58.7 183.1 58.7 C 184.8 58.7 186.1 59.6 186.5 61 C 187 59.8 188.2 58.7 190.2 58.7 C 192.2 58.7 193.8 59.8 193.8 62.1 C 193.83 62.1 193.8 70.2 193.8 70.2 L 192.3 70.2 C 192.3 70.2 192.29 62.64 192.3 62.6 C 192.3 60.9 191.2 60.1 189.9 60.1 C 188.2 60.1 186.8 61.4 186.8 63.7 C 186.83 63.73 186.8 70.2 186.8 70.2 L 185.3 70.2 C 185.3 70.2 185.32 62.64 185.3 62.6 C 185.3 60.9 184.3 60.1 182.9 60.1 C 181.3 60.1 179.9 61.3 179.9 63.7 C 179.88 63.73 179.9 70.2 179.9 70.2 L 178.4 70.2 L 178.4 58.9 Z M 207.6 64.5 C 207.6 68.6 205 70.3 202.4 70.3 C 200.5 70.3 199.2 69.4 198.6 68.2 C 198.62 68.23 198.6 74.5 198.6 74.5 L 197.1 74.5 L 197.1 58.9 L 198.6 58.9 C 198.6 58.9 198.57 61.28 198.6 61.3 C 199.1 59.9 200.5 58.7 202.6 58.7 C 205 58.7 207.6 60.4 207.6 64.5 Z M 206 64.5 C 206 61.4 204.2 60.2 202.4 60.2 C 200.5 60.2 198.6 61.4 198.6 64.6 C 198.6 67.7 200.5 68.9 202.3 68.9 C 204.2 68.9 206 67.7 206 64.5 Z M 213.8 55.5 C 212.6 55.5 212.3 56.1 212.3 57.2 C 212.27 57.16 212.3 58.9 212.3 58.9 L 214.8 58.9 L 214.8 60.3 L 212.3 60.3 L 212.3 70.2 L 210.7 70.2 L 210.7 60.3 L 208.9 60.3 L 208.9 58.9 L 210.7 58.9 C 210.7 58.9 210.73 57.12 210.7 57.1 C 210.7 54.6 212.1 54.2 213.6 54.2 C 213.57 54.18 215.1 54.2 215.1 54.2 L 215.1 55.5 C 215.1 55.5 213.82 55.54 213.8 55.5 Z M 217.6 64.9 C 217.7 67.7 219.4 69 221.4 69 C 222.9 69 224.3 68.3 224.7 66.7 C 224.7 66.7 226.1 66.7 226.1 66.7 C 225.6 69.3 223.4 70.4 221.3 70.4 C 218.6 70.4 216.1 68.6 216.1 64.6 C 216.1 60.5 218.6 58.7 221.4 58.7 C 224 58.7 226.2 60.4 226.2 64.2 C 226.21 64.15 226.2 64.9 226.2 64.9 C 226.2 64.9 217.62 64.91 217.6 64.9 Z M 217.7 63.6 C 217.7 63.6 224.7 63.6 224.7 63.6 C 224.7 61.3 223.2 60.1 221.3 60.1 C 219.5 60.1 217.9 61.2 217.7 63.6 Z M 238 62.5 C 237.99 62.45 238 70.2 238 70.2 L 236.5 70.2 C 236.5 70.2 236.46 62.64 236.5 62.6 C 236.5 61.1 235.6 60.1 234 60.1 C 232 60.1 230.4 61.5 230.4 64.3 C 230.37 64.26 230.4 70.2 230.4 70.2 L 228.8 70.2 L 228.8 58.9 L 230.4 58.9 C 230.4 58.9 230.37 61 230.4 61 C 231 59.7 232.3 58.7 234.3 58.7 C 236.5 58.7 238 60 238 62.5 Z M 242.3 70.1 C 242.34 70.06 241.3 70.1 241.3 70.1 L 241.3 68 L 243.6 68 C 243.6 68 243.55 70.12 243.6 70.1 C 243.6 72.6 242.1 73.5 240.5 73.6 C 240.5 73.6 240.3 72.7 240.3 72.7 C 242 72.4 242.3 71.4 242.3 70.1 Z " stroke="none" fill="#000"/>  </g>  <g id="Polygon11496">    <path d="M 10.8 37.3 C 10.84 37.25 10.8 45 10.8 45 L 9.3 45 C 9.3 45 9.3 37.44 9.3 37.4 C 9.3 35.9 8.4 34.9 6.8 34.9 C 4.9 34.9 3.2 36.3 3.2 39.1 C 3.21 39.06 3.2 45 3.2 45 L 1.7 45 L 1.7 29 L 3.2 29 C 3.2 29 3.21 35.68 3.2 35.7 C 3.9 34.4 5.1 33.5 7.1 33.5 C 9.4 33.5 10.8 34.8 10.8 37.3 Z M 21 42.9 C 20.1 44.6 18.4 45.2 17 45.2 C 15.1 45.2 13.4 44.1 13.4 41.9 C 13.4 39.8 14.8 38.8 16.8 38.6 C 16.8 38.6 19.4 38.2 19.4 38.2 C 20.3 38.1 21 37.8 21 36.8 C 21 35.5 19.9 34.8 18.3 34.8 C 16.6 34.8 15.6 35.6 15.3 36.9 C 15.3 36.9 13.8 36.9 13.8 36.9 C 14.1 34.6 15.9 33.5 18.4 33.5 C 21 33.5 22.5 34.7 22.5 37.2 C 22.51 37.19 22.5 45 22.5 45 L 21 45 C 21 45 21.02 42.92 21 42.9 Z M 19.2 39.5 C 19.2 39.5 17.4 39.7 17.4 39.7 C 16 39.9 14.9 40.4 14.9 41.8 C 14.9 43.2 16 43.8 17.3 43.8 C 19 43.8 21 42.5 21 40.1 C 21 40.1 21 39 21 39 C 20.6 39.3 19.9 39.4 19.2 39.5 Z M 38.2 45 C 38.2 45 36.48 44.98 36.5 45 C 35 45 33.6 44.5 33.6 42 C 33.64 42.02 33.6 35.1 33.6 35.1 L 27.8 35.1 C 27.8 35.1 27.85 42 27.8 42 C 27.8 43 28.1 43.6 29.4 43.6 C 29.4 43.6 30.8 43.6 30.8 43.6 L 30.8 45 C 30.8 45 29.15 44.98 29.1 45 C 27.7 45 26.3 44.5 26.3 42 C 26.31 42.02 26.3 35.1 26.3 35.1 L 24.1 35.1 L 24.1 33.7 L 26.3 33.7 L 26.3 30.5 L 27.8 30.1 L 27.8 33.7 L 33.6 33.7 L 33.6 30.5 L 35.2 30.1 L 35.2 33.7 L 37.9 33.7 L 37.9 35.1 L 35.2 35.1 C 35.2 35.1 35.17 42 35.2 42 C 35.2 43 35.5 43.6 36.7 43.6 C 36.73 43.6 38.2 43.6 38.2 43.6 L 38.2 45 Z M 41.1 39.7 C 41.2 42.5 42.9 43.8 44.9 43.8 C 46.4 43.8 47.9 43.1 48.2 41.5 C 48.2 41.5 49.6 41.5 49.6 41.5 C 49.1 44.1 47 45.2 44.8 45.2 C 42.1 45.2 39.6 43.4 39.6 39.4 C 39.6 35.3 42.2 33.5 44.9 33.5 C 47.5 33.5 49.7 35.2 49.7 39 C 49.73 38.95 49.7 39.7 49.7 39.7 C 49.7 39.7 41.14 39.71 41.1 39.7 Z M 41.2 38.4 C 41.2 38.4 48.2 38.4 48.2 38.4 C 48.2 36.1 46.7 34.9 44.8 34.9 C 43 34.9 41.4 36 41.2 38.4 Z M 61.5 37.3 C 61.51 37.25 61.5 45 61.5 45 L 60 45 C 60 45 59.98 37.44 60 37.4 C 60 35.9 59.1 34.9 57.5 34.9 C 55.6 34.9 53.9 36.3 53.9 39.1 C 53.89 39.06 53.9 45 53.9 45 L 52.4 45 L 52.4 33.7 L 53.9 33.7 C 53.9 33.7 53.89 35.8 53.9 35.8 C 54.6 34.5 55.8 33.5 57.8 33.5 C 60 33.5 61.5 34.8 61.5 37.3 Z M 70.4 33.7 L 71.9 33.7 C 71.9 33.7 71.95 35.57 71.9 35.6 C 72.6 34.2 73.8 33.5 75.2 33.5 C 76.9 33.5 78.2 34.4 78.6 35.8 C 79.1 34.6 80.3 33.5 82.3 33.5 C 84.3 33.5 85.9 34.6 85.9 36.9 C 85.91 36.9 85.9 45 85.9 45 L 84.4 45 C 84.4 45 84.38 37.44 84.4 37.4 C 84.4 35.7 83.3 34.9 82 34.9 C 80.3 34.9 78.9 36.2 78.9 38.5 C 78.92 38.53 78.9 45 78.9 45 L 77.4 45 C 77.4 45 77.41 37.44 77.4 37.4 C 77.4 35.7 76.4 34.9 75 34.9 C 73.4 34.9 72 36.1 72 38.5 C 71.97 38.53 72 45 72 45 L 70.4 45 L 70.4 33.7 Z M 90.8 29 L 89.1 29 L 89.1 30.9 L 90.8 30.9 L 90.8 29 Z M 90.7 45 L 89.2 45 L 89.2 33.7 L 90.7 33.7 L 90.7 45 Z M 99.2 45 C 99.2 45 97.54 44.98 97.5 45 C 96.1 45 94.7 44.5 94.7 42 C 94.71 42.02 94.7 35.1 94.7 35.1 L 92.5 35.1 L 92.5 33.7 L 94.7 33.7 L 94.7 30.5 L 96.2 30.1 L 96.2 33.7 L 99 33.7 L 99 35.1 L 96.2 35.1 C 96.2 35.1 96.24 42 96.2 42 C 96.2 43 96.5 43.6 97.8 43.6 C 97.8 43.6 99.2 43.6 99.2 43.6 L 99.2 45 Z M 107.2 39.7 C 107.3 42.5 109 43.8 111 43.8 C 112.5 43.8 113.9 43.1 114.3 41.5 C 114.3 41.5 115.7 41.5 115.7 41.5 C 115.2 44.1 113 45.2 110.9 45.2 C 108.2 45.2 105.7 43.4 105.7 39.4 C 105.7 35.3 108.3 33.5 111 33.5 C 113.6 33.5 115.8 35.2 115.8 39 C 115.81 38.95 115.8 39.7 115.8 39.7 C 115.8 39.7 107.22 39.71 107.2 39.7 Z M 107.3 38.4 C 107.3 38.4 114.3 38.4 114.3 38.4 C 114.3 36.1 112.8 34.9 110.9 34.9 C 109.1 34.9 107.5 36 107.3 38.4 Z M 120.1 29 L 118.3 29 L 118.3 30.9 L 120.1 30.9 L 120.1 29 Z M 120 45 L 118.4 45 L 118.4 33.7 L 120 33.7 L 120 45 Z M 132.5 37.3 C 132.49 37.25 132.5 45 132.5 45 L 131 45 C 131 45 130.95 37.44 131 37.4 C 131 35.9 130.1 34.9 128.5 34.9 C 126.5 34.9 124.9 36.3 124.9 39.1 C 124.86 39.06 124.9 45 124.9 45 L 123.3 45 L 123.3 33.7 L 124.9 33.7 C 124.9 33.7 124.86 35.8 124.9 35.8 C 125.5 34.5 126.8 33.5 128.8 33.5 C 131 33.5 132.5 34.8 132.5 37.3 Z M 136.5 39.7 C 136.6 42.5 138.3 43.8 140.3 43.8 C 141.8 43.8 143.2 43.1 143.6 41.5 C 143.6 41.5 145 41.5 145 41.5 C 144.5 44.1 142.3 45.2 140.2 45.2 C 137.5 45.2 135 43.4 135 39.4 C 135 35.3 137.5 33.5 140.3 33.5 C 142.9 33.5 145.1 35.2 145.1 39 C 145.11 38.95 145.1 39.7 145.1 39.7 C 145.1 39.7 136.52 39.71 136.5 39.7 Z M 136.6 38.4 C 136.6 38.4 143.6 38.4 143.6 38.4 C 143.6 36.1 142.1 34.9 140.2 34.9 C 138.4 34.9 136.8 36 136.6 38.4 Z M 147.7 33.7 L 149.2 33.7 C 149.2 33.7 149.25 35.57 149.2 35.6 C 149.9 34.2 151.1 33.5 152.5 33.5 C 154.2 33.5 155.5 34.4 155.9 35.8 C 156.4 34.6 157.6 33.5 159.6 33.5 C 161.6 33.5 163.2 34.6 163.2 36.9 C 163.21 36.9 163.2 45 163.2 45 L 161.7 45 C 161.7 45 161.68 37.44 161.7 37.4 C 161.7 35.7 160.6 34.9 159.3 34.9 C 157.6 34.9 156.2 36.2 156.2 38.5 C 156.22 38.53 156.2 45 156.2 45 L 154.7 45 C 154.7 45 154.71 37.44 154.7 37.4 C 154.7 35.7 153.7 34.9 152.3 34.9 C 150.7 34.9 149.3 36.1 149.3 38.5 C 149.27 38.53 149.3 45 149.3 45 L 147.7 45 L 147.7 33.7 Z M 171.2 43.6 L 178.3 35.1 L 171.3 35.1 L 171.3 33.7 L 180.2 33.7 L 180.2 35.1 L 173 43.6 L 180.2 43.6 L 180.2 45 L 171.2 45 L 171.2 43.6 Z M 186.3 47.1 C 185.9 48.3 184.9 48.7 183.7 48.7 C 183.73 48.68 182.6 48.7 182.6 48.7 L 182.6 47.3 C 182.6 47.3 183.52 47.31 183.5 47.3 C 184.5 47.3 185 47 185.3 46 C 185.32 45.99 185.8 44.5 185.8 44.5 L 181.6 33.7 L 183.3 33.7 L 186.6 42.6 L 189.9 33.7 L 191.4 33.7 C 191.4 33.7 186.33 47.12 186.3 47.1 Z M 197 39.5 L 195 41.6 L 195 45 L 193.4 45 L 193.4 29 L 195 29 L 195 39.7 L 200.5 33.7 L 202.5 33.7 L 198 38.4 L 202.8 45 L 200.9 45 L 197 39.5 Z M 206.6 45 L 205 45 L 205 29 L 206.6 29 L 206.6 45 Z M 211.6 29 L 209.8 29 L 209.8 30.9 L 211.6 30.9 L 211.6 29 Z M 211.4 45 L 209.9 45 L 209.9 33.7 L 211.4 33.7 L 211.4 45 Z M 223.2 41.8 C 223.2 44.1 221.1 45.2 218.8 45.2 C 216.4 45.2 214.2 44 214 41.5 C 214 41.5 215.6 41.5 215.6 41.5 C 215.9 43.2 217.3 43.8 218.9 43.8 C 220.3 43.8 221.6 43.3 221.6 42 C 221.6 40.7 220.3 40.4 219 40.2 C 216.8 39.8 214.2 39.4 214.2 36.8 C 214.2 34.6 216.2 33.5 218.5 33.5 C 220.9 33.5 222.8 34.6 222.9 36.9 C 222.9 36.9 221.3 36.9 221.3 36.9 C 221.2 35.5 219.9 34.9 218.4 34.9 C 216.9 34.9 215.8 35.6 215.8 36.7 C 215.8 38.2 217.2 38.4 218.9 38.7 C 220.9 39 223.2 39.3 223.2 41.8 Z M 230.2 45.2 C 227.1 45.2 225 42.9 225 39.4 C 225 35.8 227.1 33.5 230.3 33.5 C 232.8 33.5 234.8 34.9 235 37.4 C 235 37.4 233.5 37.4 233.5 37.4 C 233.3 35.8 231.9 34.9 230.3 34.9 C 228.1 34.9 226.5 36.6 226.5 39.3 C 226.5 42.1 228.1 43.8 230.3 43.8 C 232 43.8 233.3 42.8 233.5 41 C 233.5 41 235 41 235 41 C 234.8 43.7 232.7 45.2 230.2 45.2 Z M 246.8 37.3 C 246.77 37.25 246.8 45 246.8 45 L 245.2 45 C 245.2 45 245.23 37.44 245.2 37.4 C 245.2 35.9 244.4 34.9 242.8 34.9 C 240.8 34.9 239.1 36.3 239.1 39.1 C 239.14 39.06 239.1 45 239.1 45 L 237.6 45 L 237.6 29 L 239.1 29 C 239.1 29 239.14 35.68 239.1 35.7 C 239.8 34.4 241 33.5 243 33.5 C 245.3 33.5 246.8 34.8 246.8 37.3 Z M 250.8 39.7 C 250.8 42.5 252.6 43.8 254.6 43.8 C 256 43.8 257.5 43.1 257.9 41.5 C 257.9 41.5 259.3 41.5 259.3 41.5 C 258.8 44.1 256.6 45.2 254.5 45.2 C 251.8 45.2 249.3 43.4 249.3 39.4 C 249.3 35.3 251.8 33.5 254.5 33.5 C 257.2 33.5 259.4 35.2 259.4 39 C 259.39 38.95 259.4 39.7 259.4 39.7 C 259.4 39.7 250.8 39.71 250.8 39.7 Z M 250.8 38.4 C 250.8 38.4 257.8 38.4 257.8 38.4 C 257.8 36.1 256.4 34.9 254.5 34.9 C 252.7 34.9 251.1 36 250.8 38.4 Z M 271.2 37.3 C 271.17 37.25 271.2 45 271.2 45 L 269.6 45 C 269.6 45 269.64 37.44 269.6 37.4 C 269.6 35.9 268.8 34.9 267.2 34.9 C 265.2 34.9 263.5 36.3 263.5 39.1 C 263.55 39.06 263.5 45 263.5 45 L 262 45 L 262 33.7 L 263.5 33.7 C 263.5 33.7 263.55 35.8 263.5 35.8 C 264.2 34.5 265.5 33.5 267.5 33.5 C 269.7 33.5 271.2 34.8 271.2 37.3 Z " stroke="none" fill="#000"/>  </g>  <g id="Polygon11495">    <path d="M 14.3 11.6 C 14.3 15.7 11.8 19.8 6.4 19.8 C 6.45 19.78 1.9 19.8 1.9 19.8 L 1.9 4 C 1.9 4 6.72 4.03 6.7 4 C 11.8 4 14.3 7.7 14.3 11.6 Z M 12.7 11.7 C 12.7 8.5 10.7 5.4 6.6 5.4 C 6.59 5.44 3.5 5.4 3.5 5.4 L 3.5 18.3 C 3.5 18.3 6.47 18.33 6.5 18.3 C 10.6 18.3 12.7 15 12.7 11.7 Z M 24.1 17.7 C 23.2 19.4 21.5 20 20.1 20 C 18.2 20 16.4 18.9 16.4 16.7 C 16.4 14.6 17.9 13.6 19.9 13.4 C 19.9 13.4 22.5 13 22.5 13 C 23.4 12.9 24.1 12.6 24.1 11.6 C 24.1 10.3 23 9.6 21.4 9.6 C 19.7 9.6 18.6 10.4 18.4 11.7 C 18.4 11.7 16.9 11.7 16.9 11.7 C 17.2 9.4 19 8.3 21.5 8.3 C 24 8.3 25.6 9.5 25.6 12 C 25.6 11.99 25.6 19.8 25.6 19.8 L 24.1 19.8 C 24.1 19.8 24.11 17.72 24.1 17.7 Z M 22.2 14.3 C 22.2 14.3 20.5 14.5 20.5 14.5 C 19.1 14.7 18 15.2 18 16.6 C 18 18 19.1 18.6 20.3 18.6 C 22.1 18.6 24.1 17.3 24.1 14.9 C 24.1 14.9 24.1 13.8 24.1 13.8 C 23.6 14.1 23 14.2 22.2 14.3 Z M 37.1 16.6 C 37.1 18.9 35 20 32.8 20 C 30.4 20 28.1 18.8 27.9 16.3 C 27.9 16.3 29.5 16.3 29.5 16.3 C 29.8 18 31.3 18.6 32.8 18.6 C 34.3 18.6 35.5 18.1 35.5 16.8 C 35.5 15.5 34.2 15.2 32.9 15 C 30.7 14.6 28.2 14.2 28.2 11.6 C 28.2 9.4 30.1 8.3 32.4 8.3 C 34.8 8.3 36.7 9.4 36.8 11.7 C 36.8 11.7 35.2 11.7 35.2 11.7 C 35.1 10.3 33.8 9.7 32.4 9.7 C 30.8 9.7 29.8 10.4 29.8 11.5 C 29.8 13 31.1 13.2 32.8 13.5 C 34.9 13.8 37.1 14.1 37.1 16.6 Z M 54.9 19.8 L 50.4 13 L 46.7 13 L 46.7 19.8 L 45.1 19.8 L 45.1 4 C 45.1 4 50.71 4.03 50.7 4 C 53.9 4 55.6 6.1 55.6 8.3 C 55.6 10.2 54.4 12.1 52.1 12.7 C 52.12 12.7 56.8 19.8 56.8 19.8 L 54.9 19.8 Z M 50.6 11.5 C 52.8 11.5 54 10 54 8.4 C 54 6.8 53 5.4 50.8 5.4 C 50.8 5.44 46.7 5.4 46.7 5.4 L 46.7 11.5 C 46.7 11.5 50.61 11.55 50.6 11.5 Z M 59.3 14.5 C 59.4 17.3 61.1 18.6 63.1 18.6 C 64.6 18.6 66.1 17.9 66.4 16.3 C 66.4 16.3 67.9 16.3 67.9 16.3 C 67.3 18.9 65.2 20 63 20 C 60.3 20 57.8 18.2 57.8 14.2 C 57.8 10.1 60.4 8.3 63.1 8.3 C 65.8 8.3 67.9 10 67.9 13.8 C 67.93 13.75 67.9 14.5 67.9 14.5 C 67.9 14.5 59.35 14.51 59.3 14.5 Z M 59.4 13.2 C 59.4 13.2 66.4 13.2 66.4 13.2 C 66.4 10.9 64.9 9.7 63 9.7 C 61.3 9.7 59.6 10.8 59.4 13.2 Z M 72.2 3.8 L 70.5 3.8 L 70.5 5.7 L 72.2 5.7 L 72.2 3.8 Z M 72.1 19.8 L 70.6 19.8 L 70.6 8.5 L 72.1 8.5 L 72.1 19.8 Z M 83.8 16.6 C 83.8 18.9 81.8 20 79.5 20 C 77.1 20 74.8 18.8 74.6 16.3 C 74.6 16.3 76.3 16.3 76.3 16.3 C 76.5 18 78 18.6 79.5 18.6 C 81 18.6 82.2 18.1 82.2 16.8 C 82.2 15.5 80.9 15.2 79.6 15 C 77.4 14.6 74.9 14.2 74.9 11.6 C 74.9 9.4 76.8 8.3 79.1 8.3 C 81.5 8.3 83.4 9.4 83.5 11.7 C 83.5 11.7 81.9 11.7 81.9 11.7 C 81.8 10.3 80.5 9.7 79.1 9.7 C 77.5 9.7 76.5 10.4 76.5 11.5 C 76.5 13 77.8 13.2 79.5 13.5 C 81.6 13.8 83.8 14.1 83.8 16.6 Z M 87.1 14.5 C 87.2 17.3 88.9 18.6 90.9 18.6 C 92.4 18.6 93.8 17.9 94.2 16.3 C 94.2 16.3 95.6 16.3 95.6 16.3 C 95.1 18.9 92.9 20 90.8 20 C 88.1 20 85.6 18.2 85.6 14.2 C 85.6 10.1 88.2 8.3 90.9 8.3 C 93.5 8.3 95.7 10 95.7 13.8 C 95.72 13.75 95.7 14.5 95.7 14.5 C 95.7 14.5 87.13 14.51 87.1 14.5 Z M 87.2 13.2 C 87.2 13.2 94.2 13.2 94.2 13.2 C 94.2 10.9 92.7 9.7 90.8 9.7 C 89 9.7 87.4 10.8 87.2 13.2 Z M 97.7 13.7 L 97.7 12.3 L 104.2 12.3 L 104.2 13.7 L 97.7 13.7 Z M 119.6 19.8 C 119.6 19.8 119.57 17.64 119.6 17.6 C 118.8 19.2 117.4 19.9 115.8 19.9 C 113.7 19.9 112.1 18.6 112.1 16 C 112.06 15.96 112.1 8.5 112.1 8.5 L 113.6 8.5 C 113.6 8.5 113.59 15.77 113.6 15.8 C 113.6 17.6 114.6 18.6 116.1 18.6 C 117.9 18.6 119.5 17.2 119.5 14.3 C 119.51 14.34 119.5 8.5 119.5 8.5 L 121 8.5 L 121 19.8 L 119.6 19.8 Z M 133.6 12.1 C 133.56 12.05 133.6 19.8 133.6 19.8 L 132 19.8 C 132 19.8 132.03 12.24 132 12.2 C 132 10.7 131.1 9.7 129.5 9.7 C 127.6 9.7 125.9 11.1 125.9 13.9 C 125.94 13.86 125.9 19.8 125.9 19.8 L 124.4 19.8 L 124.4 8.5 L 125.9 8.5 C 125.9 8.5 125.94 10.6 125.9 10.6 C 126.6 9.3 127.9 8.3 129.8 8.3 C 132.1 8.3 133.6 9.6 133.6 12.1 Z M 146.6 19.8 L 145.2 19.8 C 145.2 19.8 145.15 17.6 145.2 17.6 C 144.6 18.9 143.2 20 141.1 20 C 138.2 20 136.1 17.7 136.1 14.1 C 136.1 10.6 138.2 8.3 141.2 8.3 C 143.1 8.3 144.5 9.2 145.1 10.4 C 145.09 10.42 145.1 3.8 145.1 3.8 L 146.6 3.8 L 146.6 19.8 Z M 145.1 14.1 C 145.1 11.3 143.5 9.7 141.3 9.7 C 139.1 9.7 137.7 11.4 137.7 14.1 C 137.7 16.9 139.2 18.6 141.3 18.6 C 143.5 18.6 145.1 16.9 145.1 14.1 Z M 168.5 11.9 L 168.5 19.8 L 167 19.8 C 167 19.8 167.01 17.43 167 17.4 C 166.1 19 164.2 20.2 161.7 20.2 C 157 20.2 154.5 16.3 154.5 11.8 C 154.5 6.9 157.6 3.7 162 3.7 C 165.2 3.7 168.1 5.4 168.5 8.8 C 168.5 8.8 166.8 8.8 166.8 8.8 C 166.5 6.5 164.4 5.1 162 5.1 C 158.7 5.1 156.1 7.7 156.1 11.8 C 156.1 15.5 158.1 18.7 161.9 18.7 C 164.8 18.7 167 16.7 167 13.3 C 166.97 13.33 161.6 13.3 161.6 13.3 L 161.6 11.9 L 168.5 11.9 Z M 178.9 17.7 C 178 19.4 176.3 20 174.9 20 C 172.9 20 171.2 18.9 171.2 16.7 C 171.2 14.6 172.7 13.6 174.6 13.4 C 174.6 13.4 177.3 13 177.3 13 C 178.1 12.9 178.9 12.6 178.9 11.6 C 178.9 10.3 177.7 9.6 176.1 9.6 C 174.4 9.6 173.4 10.4 173.2 11.7 C 173.2 11.7 171.7 11.7 171.7 11.7 C 172 9.4 173.8 8.3 176.3 8.3 C 178.8 8.3 180.4 9.5 180.4 12 C 180.37 11.99 180.4 19.8 180.4 19.8 L 178.9 19.8 C 178.9 19.8 178.88 17.72 178.9 17.7 Z M 177 14.3 C 177 14.3 175.3 14.5 175.3 14.5 C 173.9 14.7 172.8 15.2 172.8 16.6 C 172.8 18 173.9 18.6 175.1 18.6 C 176.9 18.6 178.8 17.3 178.8 14.9 C 178.8 14.9 178.8 13.8 178.8 13.8 C 178.4 14.1 177.8 14.2 177 14.3 Z M 191.9 16.6 C 191.9 18.9 189.8 20 187.5 20 C 185.1 20 182.9 18.8 182.7 16.3 C 182.7 16.3 184.3 16.3 184.3 16.3 C 184.6 18 186 18.6 187.6 18.6 C 189 18.6 190.3 18.1 190.3 16.8 C 190.3 15.5 189 15.2 187.7 15 C 185.5 14.6 183 14.2 183 11.6 C 183 9.4 184.9 8.3 187.2 8.3 C 189.6 8.3 191.5 9.4 191.6 11.7 C 191.6 11.7 190 11.7 190 11.7 C 189.9 10.3 188.6 9.7 187.1 9.7 C 185.6 9.7 184.5 10.4 184.5 11.5 C 184.5 13 185.9 13.2 187.6 13.5 C 189.6 13.8 191.9 14.1 191.9 16.6 Z M 199.6 19.8 C 199.6 19.8 197.9 19.78 197.9 19.8 C 196.4 19.8 195.1 19.3 195.1 16.8 C 195.07 16.82 195.1 9.9 195.1 9.9 L 192.8 9.9 L 192.8 8.5 L 195.1 8.5 L 195.1 5.3 L 196.6 4.9 L 196.6 8.5 L 199.3 8.5 L 199.3 9.9 L 196.6 9.9 C 196.6 9.9 196.6 16.8 196.6 16.8 C 196.6 17.8 196.9 18.4 198.2 18.4 C 198.15 18.4 199.6 18.4 199.6 18.4 L 199.6 19.8 Z M 211.5 19.3 C 211.5 22.7 209.3 24.4 206.4 24.4 C 203.9 24.4 201.6 23.1 201.3 20.5 C 201.3 20.5 202.8 20.5 202.8 20.5 C 203.1 21.9 204.1 23.1 206.4 23.1 C 208.4 23.1 210 22 210 19.4 C 210 19.4 210 17.1 210 17.1 C 209.2 18.8 207.5 19.4 206 19.4 C 203.3 19.4 201 17.5 201 13.8 C 201 10.1 203.4 8.3 206.1 8.3 C 207.9 8.3 209.3 9.1 210 10.3 C 209.96 10.33 210 8.5 210 8.5 L 211.5 8.5 C 211.5 8.5 211.47 19.28 211.5 19.3 Z M 209.9 13.8 C 209.9 11 208.2 9.6 206.3 9.6 C 204.3 9.6 202.5 11 202.5 13.8 C 202.5 16.6 204.3 18 206.3 18 C 208.1 18 209.9 16.8 209.9 13.8 Z M 215.5 14.5 C 215.5 17.3 217.3 18.6 219.3 18.6 C 220.7 18.6 222.2 17.9 222.6 16.3 C 222.6 16.3 224 16.3 224 16.3 C 223.5 18.9 221.3 20 219.2 20 C 216.5 20 214 18.2 214 14.2 C 214 10.1 216.5 8.3 219.2 8.3 C 221.9 8.3 224.1 10 224.1 13.8 C 224.09 13.75 224.1 14.5 224.1 14.5 C 224.1 14.5 215.5 14.51 215.5 14.5 Z M 215.5 13.2 C 215.5 13.2 222.5 13.2 222.5 13.2 C 222.5 10.9 221.1 9.7 219.2 9.7 C 217.4 9.7 215.8 10.8 215.5 13.2 Z M 238 19.8 L 236.5 19.8 L 233.6 10.8 L 230.6 19.8 L 229.1 19.8 L 225.5 8.5 L 227 8.5 L 229.9 17.8 L 232.8 8.5 L 234.3 8.5 L 237.3 17.8 L 240.1 8.5 L 241.7 8.5 L 238 19.8 Z M 244.3 14.5 C 244.4 17.3 246.1 18.6 248.1 18.6 C 249.6 18.6 251.1 17.9 251.4 16.3 C 251.4 16.3 252.8 16.3 252.8 16.3 C 252.3 18.9 250.1 20 248 20 C 245.3 20 242.8 18.2 242.8 14.2 C 242.8 10.1 245.4 8.3 248.1 8.3 C 250.7 8.3 252.9 10 252.9 13.8 C 252.92 13.75 252.9 14.5 252.9 14.5 C 252.9 14.5 244.33 14.51 244.3 14.5 Z M 244.4 13.2 C 244.4 13.2 251.4 13.2 251.4 13.2 C 251.4 10.9 249.9 9.7 248 9.7 C 246.2 9.7 244.6 10.8 244.4 13.2 Z M 261.2 9.8 C 261.2 9.8 260.82 9.83 260.8 9.8 C 258.4 9.8 257.1 11.2 257.1 13.8 C 257.08 13.8 257.1 19.8 257.1 19.8 L 255.5 19.8 L 255.5 8.5 L 257.1 8.5 C 257.1 8.5 257.06 10.58 257.1 10.6 C 257.6 9.1 258.9 8.4 260.7 8.4 C 260.69 8.38 261.2 8.4 261.2 8.4 L 261.2 9.8 Z M 273.7 14.1 C 273.7 17.6 271.6 20 268.6 20 C 266.6 20 265.2 18.9 264.6 17.7 C 264.64 17.7 264.6 19.8 264.6 19.8 L 263.2 19.8 L 263.2 3.8 L 264.7 3.8 C 264.7 3.8 264.7 10.77 264.7 10.8 C 265.3 9.4 266.7 8.3 268.7 8.3 C 271.6 8.3 273.7 10.5 273.7 14.1 Z M 272.1 14.2 C 272.1 11.4 270.6 9.8 268.5 9.8 C 266.3 9.8 264.7 11.4 264.7 14.2 C 264.7 17 266.2 18.7 268.4 18.7 C 270.6 18.7 272.1 16.9 272.1 14.2 Z M 277.1 14.5 C 277.1 17.3 278.9 18.6 280.9 18.6 C 282.3 18.6 283.8 17.9 284.1 16.3 C 284.1 16.3 285.6 16.3 285.6 16.3 C 285.1 18.9 282.9 20 280.8 20 C 278.1 20 275.6 18.2 275.6 14.2 C 275.6 10.1 278.1 8.3 280.8 8.3 C 283.5 8.3 285.7 10 285.7 13.8 C 285.68 13.75 285.7 14.5 285.7 14.5 C 285.7 14.5 277.09 14.51 277.1 14.5 Z M 277.1 13.2 C 277.1 13.2 284.1 13.2 284.1 13.2 C 284.1 10.9 282.7 9.7 280.8 9.7 C 279 9.7 277.3 10.8 277.1 13.2 Z " stroke="none" fill="#000"/>  </g></svg>