<?xml version="1.0" standalone="no"?><!DOCTYPE svg PUBLIC "-//W3C//DTD SVG 1.1//EN" "http://www.w3.org/Graphics/SVG/1.1/DTD/svg11.dtd"><svg xmlns="http://www.w3.org/2000/svg" version="1.1" width="338px" height="36.4px" viewBox="0 -3 338 36.4" style="top:-3px"><desc>Help combat reduce volatility</desc><defs/><g id="Polygon9540"><path d="m13.7 19.8h-1.6v-7.2H3.5v7.2H1.9V4h1.6v7.1h8.6V4h1.6v15.8zm4.4-5.3c0 2.8 1.7 4.1 3.7 4.1c1.5 0 3-.7 3.3-2.3h1.5c-.5 2.6-2.7 3.7-4.9 3.7c-2.7 0-5.2-1.8-5.2-5.8c0-4.1 2.6-5.9 5.3-5.9c2.7 0 4.8 1.7 4.8 5.5c.05-.05 0 .7 0 .7c0 0-8.54.01-8.5 0zm0-1.3h7c0-2.3-1.5-3.5-3.4-3.5c-1.7 0-3.4 1.1-3.6 3.5zm12.7 6.6h-1.5v-16h1.5v16zm13.9-5.7c0 4.1-2.6 5.8-5.2 5.8c-1.9 0-3.2-.9-3.8-2.1v6.3h-1.5V8.5h1.5s-.04 2.38 0 2.4c.5-1.4 1.9-2.6 4-2.6c2.4 0 5 1.7 5 5.8zm-1.6 0c0-3.1-1.8-4.3-3.6-4.3c-1.9 0-3.8 1.2-3.8 4.4c0 3.1 1.8 4.3 3.7 4.3c1.9 0 3.7-1.2 3.7-4.4zM56.6 20c-3.1 0-5.2-2.3-5.2-5.8c0-3.6 2.1-5.9 5.4-5.9c2.5 0 4.5 1.4 4.6 3.9h-1.5c-.1-1.6-1.5-2.5-3.2-2.5c-2.2 0-3.7 1.7-3.7 4.4c0 2.8 1.5 4.5 3.7 4.5c1.7 0 3.1-1 3.2-2.8h1.5c-.1 2.7-2.3 4.2-4.8 4.2zm6.7-5.8c0-3.7 2.2-5.9 5.3-5.9c3.2 0 5.4 2.2 5.4 5.9c0 3.6-2.2 5.8-5.3 5.8c-3.1 0-5.4-2.2-5.4-5.8zm9.1-.1c0-2.8-1.7-4.4-3.8-4.4c-2.2 0-3.7 1.7-3.7 4.5c0 2.8 1.7 4.4 3.8 4.4c2.2 0 3.7-1.7 3.7-4.5zm4.2-5.6h1.5s.04 1.87 0 1.9c.6-1.4 1.9-2.1 3.3-2.1c1.7 0 3 .9 3.4 2.3c.5-1.2 1.7-2.3 3.7-2.3c2 0 3.6 1.1 3.6 3.4v8.1h-1.5s-.03-7.56 0-7.6c0-1.7-1.1-2.5-2.4-2.5c-1.7 0-3.1 1.3-3.1 3.6v6.5h-1.5v-7.6c0-1.7-1-2.5-2.4-2.5c-1.6 0-3 1.2-3 3.6c-.04.03 0 6.5 0 6.5h-1.6V8.5zm29.3 5.6c0 3.5-2.1 5.9-5.1 5.9c-2 0-3.4-1.1-4-2.3c.03 0 0 2.1 0 2.1h-1.4v-16h1.5v7c.6-1.4 2-2.5 4-2.5c2.9 0 5 2.2 5 5.8zm-1.6.1c0-2.8-1.5-4.4-3.6-4.4c-2.2 0-3.8 1.6-3.8 4.4c0 2.8 1.5 4.5 3.7 4.5c2.2 0 3.7-1.8 3.7-4.5zm11.1 3.5c-.8 1.7-2.5 2.3-4 2.3c-1.9 0-3.6-1.1-3.6-3.3c0-2.1 1.5-3.1 3.4-3.3l2.7-.4c.8-.1 1.5-.4 1.5-1.4c0-1.3-1.1-2-2.7-2c-1.7 0-2.7.8-3 2.1h-1.5c.3-2.3 2.1-3.4 4.6-3.4c2.6 0 4.1 1.2 4.1 3.7c.03-.01 0 7.8 0 7.8h-1.5s.04-2.08 0-2.1zm-1.8-3.4l-1.8.2c-1.4.2-2.5.7-2.5 2.1c0 1.4 1.1 2 2.4 2c1.7 0 3.7-1.3 3.7-3.7v-1.1c-.4.3-1.1.4-1.8.5zm11.6 5.5s-1.64-.02-1.6 0c-1.5 0-2.9-.5-2.9-3c.03.02 0-6.9 0-6.9h-2.2V8.5h2.2V5.3l1.6-.4v3.6h2.7v1.4h-2.7s-.04 6.9 0 6.9c0 1 .3 1.6 1.5 1.6h1.4v1.4zm.9 1.9L133 2.4h1.4l-6.9 19.3h-1.4zm15.7-11.9s-.32.03-.3 0c-2.4 0-3.8 1.4-3.8 4c.04 0 0 6 0 6h-1.5V8.5h1.5s.02 2.08 0 2.1c.5-1.5 1.9-2.2 3.6-2.2c.05-.02.5 0 .5 0v1.4zm2.6 4.7c0 2.8 1.8 4.1 3.8 4.1c1.4 0 2.9-.7 3.3-2.3h1.4c-.5 2.6-2.7 3.7-4.8 3.7c-2.7 0-5.2-1.8-5.2-5.8c0-4.1 2.5-5.9 5.2-5.9c2.7 0 4.9 1.7 4.9 5.5c-.02-.05 0 .7 0 .7h-8.6zm0-1.3h7c0-2.3-1.4-3.5-3.3-3.5c-1.8 0-3.5 1.1-3.7 3.5zm21 6.6h-1.5s.05-2.2 0-2.2c-.5 1.3-1.9 2.4-4 2.4c-2.9 0-5-2.3-5-5.9c0-3.5 2.1-5.8 5.1-5.8c1.9 0 3.3.9 3.9 2.1c-.02.02 0-6.6 0-6.6h1.5v16zm-1.5-5.7c0-2.8-1.6-4.4-3.8-4.4c-2.2 0-3.7 1.7-3.7 4.4c0 2.8 1.6 4.5 3.7 4.5c2.2 0 3.8-1.7 3.8-4.5zm12.3 5.7s-.01-2.16 0-2.2c-.8 1.6-2.2 2.3-3.8 2.3c-2.1 0-3.7-1.3-3.7-3.9c-.03-.04 0-7.5 0-7.5h1.5v7.3c0 1.8 1 2.8 2.5 2.8c1.8 0 3.4-1.4 3.4-4.3c.03.04 0-5.8 0-5.8h1.6v11.3h-1.5zm9.3.2c-3.1 0-5.2-2.3-5.2-5.8c0-3.6 2.1-5.9 5.3-5.9c2.5 0 4.5 1.4 4.7 3.9h-1.5c-.2-1.6-1.5-2.5-3.2-2.5c-2.2 0-3.8 1.7-3.8 4.4c0 2.8 1.6 4.5 3.8 4.5c1.7 0 3.1-1 3.2-2.8h1.5c-.2 2.7-2.3 4.2-4.8 4.2zm8.2-5.5c0 2.8 1.8 4.1 3.8 4.1c1.5 0 2.9-.7 3.3-2.3h1.4c-.5 2.6-2.7 3.7-4.8 3.7c-2.7 0-5.2-1.8-5.2-5.8c0-4.1 2.5-5.9 5.2-5.9c2.7 0 4.9 1.7 4.9 5.5v.7h-8.6zm0-1.3h7c0-2.3-1.4-3.5-3.3-3.5c-1.8 0-3.4 1.1-3.7 3.5zm20.5 6.6h-1.6l-4.2-11.3h1.6l3.4 9.7l3.4-9.7h1.6l-4.2 11.3zm5.3-5.6c0-3.7 2.2-5.9 5.3-5.9c3.1 0 5.4 2.2 5.4 5.9c0 3.6-2.3 5.8-5.4 5.8c-3.1 0-5.3-2.2-5.3-5.8zm9.1-.1c0-2.8-1.7-4.4-3.8-4.4c-2.2 0-3.8 1.7-3.8 4.5c0 2.8 1.7 4.4 3.8 4.4c2.2 0 3.8-1.7 3.8-4.5zm5.7 5.7h-1.5v-16h1.5v16zm10.3-2.1c-.9 1.7-2.6 2.3-4 2.3c-1.9 0-3.7-1.1-3.7-3.3c0-2.1 1.5-3.1 3.5-3.3l2.6-.4c.9-.1 1.6-.4 1.6-1.4c0-1.3-1.1-2-2.7-2c-1.7 0-2.8.8-3 2.1h-1.5c.3-2.3 2.1-3.4 4.6-3.4c2.5 0 4.1 1.2 4.1 3.7v7.8h-1.5v-2.1zm-1.9-3.4l-1.7.2c-1.4.2-2.5.7-2.5 2.1c0 1.4 1.1 2 2.3 2c1.8 0 3.8-1.3 3.8-3.7v-1.1c-.5.3-1.1.4-1.9.5zm11.7 5.5s-1.67-.02-1.7 0c-1.5 0-2.8-.5-2.8-3V9.9h-2.2V8.5h2.2V5.3l1.5-.4v3.6h2.8v1.4h-2.8s.03 6.9 0 6.9c0 1 .3 1.6 1.6 1.6h1.4v1.4zm3.8-16h-1.7v1.9h1.7V3.8zm-.1 16h-1.5V8.5h1.5v11.3zm4.9 0h-1.5v-16h1.5v16zm5-16h-1.7v1.9h1.7V3.8zm-.1 16h-1.5V8.5h1.5v11.3zm8.5 0s-1.64-.02-1.6 0c-1.5 0-2.9-.5-2.9-3c.03.02 0-6.9 0-6.9h-2.2V8.5h2.2V5.3l1.6-.4v3.6h2.7v1.4h-2.7s-.04 6.9 0 6.9c0 1 .3 1.6 1.5 1.6h1.4v1.4zm5.5 2.1c-.4 1.2-1.4 1.6-2.6 1.6c.04-.02-1.1 0-1.1 0v-1.4s.93.01.9 0c1 0 1.5-.3 1.8-1.3c.03-.01.6-1.5.6-1.5l-4.2-10.8h1.6l3.3 8.9l3.3-8.9h1.5s-5.06 13.42-5.1 13.4z" stroke="none" fill="#000"/></g></svg>