<?xml version="1.0" standalone="no"?><!DOCTYPE svg PUBLIC "-//W3C//DTD SVG 1.1//EN" "http://www.w3.org/Graphics/SVG/1.1/DTD/svg11.dtd"><svg xmlns="http://www.w3.org/2000/svg" version="1.1" width="366px" height="100.2px" viewBox="0 -4 366 100.2" style="top:-4px">  <desc>Rüdiger Sälzle Managing Director FondsConsult Research, GmbH</desc>  <defs/>  <g id="Polygon10673">    <path d="M 4 80.2 L 2.2 80.2 L 2.2 62.2 L 13.4 62.2 L 13.4 63.8 L 4 63.8 L 4 70.3 L 12.9 70.3 L 12.9 71.9 L 4 71.9 L 4 80.2 Z M 14.9 73.8 C 14.9 69.6 17.4 67.1 21 67.1 C 24.5 67.1 27.1 69.6 27.1 73.8 C 27.1 78 24.6 80.5 21 80.5 C 17.4 80.5 14.9 78 14.9 73.8 Z M 25.3 73.7 C 25.3 70.5 23.4 68.7 21 68.7 C 18.4 68.7 16.7 70.7 16.7 73.8 C 16.7 77 18.6 78.8 21 78.8 C 23.5 78.8 25.3 76.9 25.3 73.7 Z M 40.6 71.4 C 40.56 71.38 40.6 80.2 40.6 80.2 L 38.8 80.2 C 38.8 80.2 38.81 71.59 38.8 71.6 C 38.8 69.8 37.8 68.7 36 68.7 C 33.8 68.7 31.8 70.3 31.8 73.4 C 31.85 73.44 31.8 80.2 31.8 80.2 L 30.1 80.2 L 30.1 67.3 L 31.8 67.3 C 31.8 67.3 31.85 69.72 31.8 69.7 C 32.6 68.2 34.1 67.1 36.3 67.1 C 38.9 67.1 40.6 68.5 40.6 71.4 Z M 55.5 80.2 L 53.8 80.2 C 53.8 80.2 53.81 77.71 53.8 77.7 C 53.2 79.2 51.6 80.5 49.2 80.5 C 45.8 80.5 43.4 77.8 43.4 73.8 C 43.4 69.7 45.8 67.1 49.2 67.1 C 51.4 67.1 53 68.2 53.7 69.5 C 53.74 69.5 53.7 61.9 53.7 61.9 L 55.5 61.9 L 55.5 80.2 Z M 53.7 73.7 C 53.7 70.5 51.9 68.7 49.5 68.7 C 46.9 68.7 45.2 70.6 45.2 73.8 C 45.2 76.9 47 78.9 49.5 78.9 C 52 78.9 53.7 76.9 53.7 73.7 Z M 68.9 76.6 C 68.9 79.2 66.5 80.5 63.9 80.5 C 61.2 80.5 58.6 79.1 58.4 76.2 C 58.4 76.2 60.2 76.2 60.2 76.2 C 60.5 78.1 62.2 78.9 64 78.9 C 65.6 78.9 67.1 78.2 67.1 76.8 C 67.1 75.3 65.6 75 64.1 74.7 C 61.6 74.3 58.7 73.9 58.7 70.9 C 58.7 68.3 60.9 67.1 63.5 67.1 C 66.3 67.1 68.4 68.4 68.6 70.9 C 68.6 70.9 66.7 70.9 66.7 70.9 C 66.6 69.4 65.1 68.6 63.5 68.6 C 61.7 68.6 60.5 69.4 60.5 70.8 C 60.5 72.4 62.1 72.7 64 73 C 66.3 73.4 68.9 73.8 68.9 76.6 Z M 85.2 67.6 C 84.9 65 82.5 63.5 79.7 63.5 C 75.9 63.5 73.1 66.4 73.1 71 C 73.1 75.2 75.3 78.9 79.8 78.9 C 82.8 78.9 85.2 77.3 85.4 74.1 C 85.4 74.1 87.3 74.1 87.3 74.1 C 87.1 78.2 83.8 80.7 79.7 80.7 C 74.1 80.7 71.2 76.2 71.2 71.1 C 71.2 65.4 74.8 61.8 79.8 61.8 C 83.5 61.8 86.7 63.8 87.1 67.6 C 87.1 67.6 85.2 67.6 85.2 67.6 Z M 89.6 73.8 C 89.6 69.6 92.1 67.1 95.7 67.1 C 99.2 67.1 101.8 69.6 101.8 73.8 C 101.8 78 99.2 80.5 95.7 80.5 C 92.1 80.5 89.6 78 89.6 73.8 Z M 100 73.7 C 100 70.5 98 68.7 95.6 68.7 C 93.1 68.7 91.4 70.7 91.4 73.8 C 91.4 77 93.3 78.8 95.7 78.8 C 98.2 78.8 100 76.9 100 73.7 Z M 115.2 71.4 C 115.25 71.38 115.2 80.2 115.2 80.2 L 113.5 80.2 C 113.5 80.2 113.5 71.59 113.5 71.6 C 113.5 69.8 112.5 68.7 110.7 68.7 C 108.5 68.7 106.5 70.3 106.5 73.4 C 106.54 73.44 106.5 80.2 106.5 80.2 L 104.8 80.2 L 104.8 67.3 L 106.5 67.3 C 106.5 67.3 106.54 69.72 106.5 69.7 C 107.3 68.2 108.7 67.1 111 67.1 C 113.6 67.1 115.2 68.5 115.2 71.4 Z M 128.5 76.6 C 128.5 79.2 126.2 80.5 123.6 80.5 C 120.8 80.5 118.3 79.1 118 76.2 C 118 76.2 119.9 76.2 119.9 76.2 C 120.2 78.1 121.8 78.9 123.6 78.9 C 125.3 78.9 126.7 78.2 126.7 76.8 C 126.7 75.3 125.2 75 123.7 74.7 C 121.2 74.3 118.3 73.9 118.3 70.9 C 118.3 68.3 120.5 67.1 123.2 67.1 C 125.9 67.1 128.1 68.4 128.2 70.9 C 128.2 70.9 126.4 70.9 126.4 70.9 C 126.3 69.4 124.8 68.6 123.1 68.6 C 121.3 68.6 120.1 69.4 120.1 70.8 C 120.1 72.4 121.7 72.7 123.6 73 C 126 73.4 128.5 73.8 128.5 76.6 Z M 139.9 80.2 C 139.9 80.2 139.89 77.76 139.9 77.8 C 139 79.5 137.4 80.4 135.6 80.4 C 133.2 80.4 131.3 78.8 131.3 75.8 C 131.3 75.84 131.3 67.3 131.3 67.3 L 133.1 67.3 C 133.1 67.3 133.05 75.62 133.1 75.6 C 133.1 77.7 134.2 78.8 135.9 78.8 C 138 78.8 139.8 77.3 139.8 74 C 139.82 73.99 139.8 67.3 139.8 67.3 L 141.6 67.3 L 141.6 80.2 L 139.9 80.2 Z M 147.2 80.2 L 145.4 80.2 L 145.4 61.9 L 147.2 61.9 L 147.2 80.2 Z M 156.9 80.2 C 156.9 80.2 154.99 80.21 155 80.2 C 153.3 80.2 151.8 79.7 151.8 76.8 C 151.75 76.82 151.8 68.9 151.8 68.9 L 149.2 68.9 L 149.2 67.3 L 151.8 67.3 L 151.8 63.7 L 153.5 63.2 L 153.5 67.3 L 156.6 67.3 L 156.6 68.9 L 153.5 68.9 C 153.5 68.9 153.5 76.8 153.5 76.8 C 153.5 78 153.8 78.6 155.3 78.6 C 155.28 78.62 156.9 78.6 156.9 78.6 L 156.9 80.2 Z M 177 80.2 L 171.9 72.4 L 167.7 72.4 L 167.7 80.2 L 165.9 80.2 L 165.9 62.2 C 165.9 62.2 172.29 62.21 172.3 62.2 C 176 62.2 177.9 64.5 177.9 67.1 C 177.9 69.3 176.5 71.4 173.9 72.1 C 173.9 72.12 179.2 80.2 179.2 80.2 L 177 80.2 Z M 172.2 70.8 C 174.7 70.8 176.1 69 176.1 67.2 C 176.1 65.4 174.9 63.8 172.4 63.8 C 172.39 63.82 167.7 63.8 167.7 63.8 L 167.7 70.8 C 167.7 70.8 172.17 70.8 172.2 70.8 Z M 182.2 74.2 C 182.2 77.4 184.2 78.9 186.5 78.9 C 188.2 78.9 189.8 78 190.2 76.2 C 190.2 76.2 191.9 76.2 191.9 76.2 C 191.3 79.2 188.8 80.5 186.4 80.5 C 183.3 80.5 180.4 78.4 180.4 73.8 C 180.4 69.2 183.3 67.1 186.4 67.1 C 189.5 67.1 192 69 192 73.3 C 191.97 73.32 192 74.2 192 74.2 C 192 74.2 182.16 74.18 182.2 74.2 Z M 182.2 72.7 C 182.2 72.7 190.2 72.7 190.2 72.7 C 190.2 70.1 188.5 68.6 186.4 68.6 C 184.3 68.6 182.4 69.9 182.2 72.7 Z M 204.5 76.6 C 204.5 79.2 202.2 80.5 199.6 80.5 C 196.8 80.5 194.3 79.1 194 76.2 C 194 76.2 195.9 76.2 195.9 76.2 C 196.2 78.1 197.9 78.9 199.6 78.9 C 201.3 78.9 202.7 78.2 202.7 76.8 C 202.7 75.3 201.2 75 199.7 74.7 C 197.3 74.3 194.3 73.9 194.3 70.9 C 194.3 68.3 196.5 67.1 199.2 67.1 C 201.9 67.1 204.1 68.4 204.2 70.9 C 204.2 70.9 202.4 70.9 202.4 70.9 C 202.3 69.4 200.8 68.6 199.1 68.6 C 197.3 68.6 196.1 69.4 196.1 70.8 C 196.1 72.4 197.7 72.7 199.7 73 C 202 73.4 204.5 73.8 204.5 76.6 Z M 208.3 74.2 C 208.4 77.4 210.3 78.9 212.6 78.9 C 214.3 78.9 216 78 216.4 76.2 C 216.4 76.2 218 76.2 218 76.2 C 217.5 79.2 215 80.5 212.5 80.5 C 209.4 80.5 206.6 78.4 206.6 73.8 C 206.6 69.2 209.5 67.1 212.6 67.1 C 215.6 67.1 218.1 69 218.1 73.3 C 218.13 73.32 218.1 74.2 218.1 74.2 C 218.1 74.2 208.32 74.18 208.3 74.2 Z M 208.4 72.7 C 208.4 72.7 216.4 72.7 216.4 72.7 C 216.4 70.1 214.7 68.6 212.5 68.6 C 210.5 68.6 208.6 69.9 208.4 72.7 Z M 229.1 77.9 C 228 79.8 226.1 80.5 224.5 80.5 C 222.3 80.5 220.3 79.2 220.3 76.6 C 220.3 74.3 222 73.2 224.2 72.9 C 224.2 72.9 227.3 72.5 227.3 72.5 C 228.2 72.3 229.1 72 229.1 70.9 C 229.1 69.4 227.7 68.5 225.9 68.5 C 224 68.5 222.8 69.5 222.5 70.9 C 222.5 70.9 220.8 70.9 220.8 70.9 C 221.2 68.4 223.2 67.1 226.1 67.1 C 229 67.1 230.8 68.4 230.8 71.3 C 230.76 71.3 230.8 80.2 230.8 80.2 L 229.1 80.2 C 229.1 80.2 229.05 77.86 229.1 77.9 Z M 226.9 73.9 C 226.9 73.9 224.9 74.2 224.9 74.2 C 223.3 74.4 222.1 75 222.1 76.6 C 222.1 78.2 223.3 78.9 224.8 78.9 C 226.8 78.9 229 77.4 229 74.6 C 229 74.6 229 73.4 229 73.4 C 228.5 73.7 227.8 73.8 226.9 73.9 Z M 240.8 68.8 C 240.8 68.8 240.38 68.83 240.4 68.8 C 237.6 68.8 236.1 70.4 236.1 73.4 C 236.11 73.37 236.1 80.2 236.1 80.2 L 234.4 80.2 L 234.4 67.3 L 236.1 67.3 C 236.1 67.3 236.09 69.7 236.1 69.7 C 236.7 68 238.2 67.2 240.2 67.2 C 240.24 67.18 240.8 67.2 240.8 67.2 L 240.8 68.8 Z M 248 80.5 C 244.4 80.5 242 77.8 242 73.8 C 242 69.8 244.4 67.1 248.1 67.1 C 251 67.1 253.2 68.6 253.4 71.6 C 253.4 71.6 251.7 71.6 251.7 71.6 C 251.5 69.7 250 68.6 248.1 68.6 C 245.6 68.6 243.8 70.6 243.8 73.8 C 243.8 76.9 245.5 78.9 248.1 78.9 C 250 78.9 251.6 77.7 251.7 75.7 C 251.7 75.7 253.4 75.7 253.4 75.7 C 253.2 78.8 250.8 80.5 248 80.5 Z M 266.9 71.4 C 266.9 71.38 266.9 80.2 266.9 80.2 L 265.1 80.2 C 265.1 80.2 265.15 71.59 265.1 71.6 C 265.1 69.8 264.1 68.7 262.3 68.7 C 260.1 68.7 258.2 70.3 258.2 73.4 C 258.19 73.44 258.2 80.2 258.2 80.2 L 256.4 80.2 L 256.4 61.9 L 258.2 61.9 C 258.2 61.9 258.19 69.58 258.2 69.6 C 258.9 68.2 260.3 67.1 262.6 67.1 C 265.2 67.1 266.9 68.5 266.9 71.4 Z M 271.9 80.1 C 271.87 80.06 270.7 80.1 270.7 80.1 L 270.7 77.7 L 273.3 77.7 C 273.3 77.7 273.26 80.14 273.3 80.1 C 273.3 83 271.6 84 269.8 84.2 C 269.8 84.2 269.5 83.1 269.5 83.1 C 271.5 82.7 271.9 81.6 271.9 80.1 Z M 296.7 71.2 L 296.7 80.2 L 295 80.2 C 295 80.2 295 77.52 295 77.5 C 294 79.4 291.8 80.7 288.9 80.7 C 283.5 80.7 280.7 76.2 280.7 71.1 C 280.7 65.5 284.2 61.8 289.2 61.8 C 292.9 61.8 296.3 63.8 296.7 67.6 C 296.7 67.6 294.8 67.6 294.8 67.6 C 294.4 65 292.1 63.5 289.3 63.5 C 285.5 63.5 282.6 66.4 282.6 71.1 C 282.6 75.3 284.8 79 289.1 79 C 292.5 79 295 76.7 295 72.8 C 294.96 72.84 288.9 72.8 288.9 72.8 L 288.9 71.2 L 296.7 71.2 Z M 300.6 67.3 L 302.4 67.3 C 302.4 67.3 302.37 69.46 302.4 69.5 C 303.1 67.8 304.5 67.1 306.1 67.1 C 308 67.1 309.5 68.1 309.9 69.8 C 310.5 68.3 311.9 67.1 314.2 67.1 C 316.5 67.1 318.3 68.4 318.3 71 C 318.33 70.97 318.3 80.2 318.3 80.2 L 316.6 80.2 C 316.6 80.2 316.58 71.59 316.6 71.6 C 316.6 69.6 315.4 68.6 313.8 68.6 C 311.9 68.6 310.3 70.1 310.3 72.8 C 310.34 72.84 310.3 80.2 310.3 80.2 L 308.6 80.2 C 308.6 80.2 308.61 71.59 308.6 71.6 C 308.6 69.6 307.4 68.6 305.9 68.6 C 304 68.6 302.4 70.1 302.4 72.8 C 302.4 72.84 302.4 80.2 302.4 80.2 L 300.6 80.2 L 300.6 67.3 Z M 334.1 73.7 C 334.1 77.8 331.7 80.5 328.2 80.5 C 325.9 80.5 324.4 79.2 323.7 77.8 C 323.73 77.83 323.7 80.2 323.7 80.2 L 322.1 80.2 L 322.1 61.9 L 323.8 61.9 C 323.8 61.9 323.8 69.91 323.8 69.9 C 324.5 68.4 326.1 67.1 328.4 67.1 C 331.7 67.1 334.1 69.6 334.1 73.7 Z M 332.3 73.8 C 332.3 70.6 330.6 68.8 328.1 68.8 C 325.6 68.8 323.8 70.7 323.8 73.9 C 323.8 77 325.6 79 328 79 C 330.6 79 332.3 76.9 332.3 73.8 Z M 350.8 80.2 L 349 80.2 L 349 72 L 339.1 72 L 339.1 80.2 L 337.3 80.2 L 337.3 62.2 L 339.1 62.2 L 339.1 70.3 L 349 70.3 L 349 62.2 L 350.8 62.2 L 350.8 80.2 Z " stroke="none" fill="#000"/>  </g>  <g id="Polygon10672">    <path d="M 19.2 51.4 L 17.4 51.4 L 17.4 35.8 L 11.4 51.4 L 9.9 51.4 L 3.9 35.8 L 3.9 51.4 L 2.2 51.4 L 2.2 33.4 L 4.9 33.4 L 10.7 48.6 L 16.5 33.4 L 19.2 33.4 L 19.2 51.4 Z M 31.2 49.1 C 30.2 51 28.2 51.7 26.6 51.7 C 24.4 51.7 22.4 50.4 22.4 47.8 C 22.4 45.5 24.1 44.4 26.4 44.1 C 26.4 44.1 29.4 43.7 29.4 43.7 C 30.4 43.5 31.2 43.2 31.2 42.1 C 31.2 40.6 29.9 39.7 28.1 39.7 C 26.1 39.7 25 40.7 24.7 42.1 C 24.7 42.1 22.9 42.1 22.9 42.1 C 23.3 39.6 25.4 38.3 28.2 38.3 C 31.1 38.3 32.9 39.6 32.9 42.5 C 32.9 42.5 32.9 51.4 32.9 51.4 L 31.2 51.4 C 31.2 51.4 31.2 49.06 31.2 49.1 Z M 29.1 45.1 C 29.1 45.1 27.1 45.4 27.1 45.4 C 25.5 45.6 24.2 46.2 24.2 47.8 C 24.2 49.4 25.5 50.1 26.9 50.1 C 28.9 50.1 31.2 48.6 31.2 45.8 C 31.2 45.8 31.2 44.6 31.2 44.6 C 30.7 44.9 29.9 45 29.1 45.1 Z M 47 42.6 C 46.97 42.58 47 51.4 47 51.4 L 45.2 51.4 C 45.2 51.4 45.22 42.79 45.2 42.8 C 45.2 41 44.2 39.9 42.4 39.9 C 40.2 39.9 38.3 41.5 38.3 44.6 C 38.26 44.64 38.3 51.4 38.3 51.4 L 36.5 51.4 L 36.5 38.5 L 38.3 38.5 C 38.3 38.5 38.26 40.92 38.3 40.9 C 39 39.4 40.5 38.3 42.7 38.3 C 45.3 38.3 47 39.7 47 42.6 Z M 58.6 49.1 C 57.6 51 55.7 51.7 54 51.7 C 51.8 51.7 49.8 50.4 49.8 47.8 C 49.8 45.5 51.6 44.4 53.8 44.1 C 53.8 44.1 56.8 43.7 56.8 43.7 C 57.8 43.5 58.6 43.2 58.6 42.1 C 58.6 40.6 57.3 39.7 55.5 39.7 C 53.5 39.7 52.4 40.7 52.1 42.1 C 52.1 42.1 50.4 42.1 50.4 42.1 C 50.7 39.6 52.8 38.3 55.6 38.3 C 58.5 38.3 60.3 39.6 60.3 42.5 C 60.31 42.5 60.3 51.4 60.3 51.4 L 58.6 51.4 C 58.6 51.4 58.61 49.06 58.6 49.1 Z M 56.5 45.1 C 56.5 45.1 54.5 45.4 54.5 45.4 C 52.9 45.6 51.6 46.2 51.6 47.8 C 51.6 49.4 52.9 50.1 54.3 50.1 C 56.3 50.1 58.6 48.6 58.6 45.8 C 58.6 45.8 58.6 44.6 58.6 44.6 C 58.1 44.9 57.3 45 56.5 45.1 Z M 75 50.8 C 75 54.7 72.5 56.6 69.2 56.6 C 66.3 56.6 63.8 55.2 63.4 52.2 C 63.4 52.2 65.1 52.2 65.1 52.2 C 65.4 53.8 66.6 55.2 69.2 55.2 C 71.5 55.2 73.3 54 73.3 50.9 C 73.3 50.9 73.3 48.4 73.3 48.4 C 72.4 50.3 70.4 50.9 68.8 50.9 C 65.6 50.9 63.1 48.8 63.1 44.6 C 63.1 40.4 65.8 38.3 68.8 38.3 C 70.9 38.3 72.5 39.2 73.3 40.6 C 73.27 40.61 73.3 38.5 73.3 38.5 L 75 38.5 C 75 38.5 75 50.83 75 50.8 Z M 73.2 44.6 C 73.2 41.3 71.3 39.8 69.1 39.8 C 66.9 39.8 64.8 41.4 64.8 44.6 C 64.8 47.8 66.8 49.3 69 49.3 C 71.1 49.3 73.2 48 73.2 44.6 Z M 80.6 33.1 L 78.6 33.1 L 78.6 35.3 L 80.6 35.3 L 80.6 33.1 Z M 80.5 51.4 L 78.7 51.4 L 78.7 38.5 L 80.5 38.5 L 80.5 51.4 Z M 94.8 42.6 C 94.77 42.58 94.8 51.4 94.8 51.4 L 93 51.4 C 93 51.4 93.02 42.79 93 42.8 C 93 41 92 39.9 90.2 39.9 C 88 39.9 86.1 41.5 86.1 44.6 C 86.06 44.64 86.1 51.4 86.1 51.4 L 84.3 51.4 L 84.3 38.5 L 86.1 38.5 C 86.1 38.5 86.06 40.92 86.1 40.9 C 86.8 39.4 88.3 38.3 90.5 38.3 C 93.1 38.3 94.8 39.7 94.8 42.6 Z M 109.6 50.8 C 109.6 54.7 107.1 56.6 103.8 56.6 C 100.9 56.6 98.4 55.2 97.9 52.2 C 97.9 52.2 99.7 52.2 99.7 52.2 C 100 53.8 101.2 55.2 103.8 55.2 C 106.1 55.2 107.9 54 107.9 50.9 C 107.9 50.9 107.9 48.4 107.9 48.4 C 106.9 50.3 105 50.9 103.3 50.9 C 100.2 50.9 97.7 48.8 97.7 44.6 C 97.7 40.4 100.3 38.3 103.4 38.3 C 105.5 38.3 107.1 39.2 107.9 40.6 C 107.85 40.61 107.9 38.5 107.9 38.5 L 109.6 38.5 C 109.6 38.5 109.58 50.83 109.6 50.8 Z M 107.8 44.6 C 107.8 41.3 105.8 39.8 103.7 39.8 C 101.4 39.8 99.4 41.4 99.4 44.6 C 99.4 47.8 101.4 49.3 103.6 49.3 C 105.7 49.3 107.8 48 107.8 44.6 Z M 134.3 42.1 C 134.3 46.7 131.3 51.4 125.2 51.4 C 125.23 51.41 120 51.4 120 51.4 L 120 33.4 C 120 33.4 125.54 33.41 125.5 33.4 C 131.4 33.4 134.3 37.6 134.3 42.1 Z M 132.4 42.2 C 132.4 38.5 130.1 35 125.4 35 C 125.4 35.02 121.8 35 121.8 35 L 121.8 49.8 C 121.8 49.8 125.25 49.75 125.3 49.8 C 130 49.8 132.4 46 132.4 42.2 Z M 139.4 33.1 L 137.4 33.1 L 137.4 35.3 L 139.4 35.3 L 139.4 33.1 Z M 139.2 51.4 L 137.5 51.4 L 137.5 38.5 L 139.2 38.5 L 139.2 51.4 Z M 149.5 40 C 149.5 40 149.11 40.03 149.1 40 C 146.4 40 144.8 41.6 144.8 44.6 C 144.84 44.57 144.8 51.4 144.8 51.4 L 143.1 51.4 L 143.1 38.5 L 144.8 38.5 C 144.8 38.5 144.81 40.9 144.8 40.9 C 145.4 39.2 147 38.4 149 38.4 C 148.97 38.38 149.5 38.4 149.5 38.4 L 149.5 40 Z M 152.4 45.4 C 152.5 48.6 154.5 50.1 156.7 50.1 C 158.4 50.1 160.1 49.2 160.5 47.4 C 160.5 47.4 162.2 47.4 162.2 47.4 C 161.6 50.4 159.1 51.7 156.6 51.7 C 153.6 51.7 150.7 49.6 150.7 45 C 150.7 40.4 153.6 38.3 156.7 38.3 C 159.8 38.3 162.3 40.2 162.3 44.5 C 162.26 44.52 162.3 45.4 162.3 45.4 C 162.3 45.4 152.45 45.38 152.4 45.4 Z M 152.5 43.9 C 152.5 43.9 160.5 43.9 160.5 43.9 C 160.5 41.3 158.8 39.8 156.6 39.8 C 154.6 39.8 152.7 41.1 152.5 43.9 Z M 170.4 51.7 C 166.8 51.7 164.4 49 164.4 45 C 164.4 41 166.8 38.3 170.5 38.3 C 173.4 38.3 175.7 39.8 175.9 42.8 C 175.9 42.8 174.2 42.8 174.2 42.8 C 174 40.9 172.4 39.8 170.5 39.8 C 168 39.8 166.2 41.8 166.2 45 C 166.2 48.1 168 50.1 170.5 50.1 C 172.4 50.1 174 48.9 174.1 46.9 C 174.1 46.9 175.9 46.9 175.9 46.9 C 175.7 50 173.3 51.7 170.4 51.7 Z M 184.7 51.4 C 184.7 51.4 182.85 51.41 182.9 51.4 C 181.1 51.4 179.6 50.9 179.6 48 C 179.61 48.02 179.6 40.1 179.6 40.1 L 177.1 40.1 L 177.1 38.5 L 179.6 38.5 L 179.6 34.9 L 181.4 34.4 L 181.4 38.5 L 184.5 38.5 L 184.5 40.1 L 181.4 40.1 C 181.4 40.1 181.37 48 181.4 48 C 181.4 49.2 181.7 49.8 183.1 49.8 C 183.14 49.82 184.7 49.8 184.7 49.8 L 184.7 51.4 Z M 186.4 45 C 186.4 40.8 189 38.3 192.5 38.3 C 196.1 38.3 198.6 40.8 198.6 45 C 198.6 49.2 196.1 51.7 192.5 51.7 C 189 51.7 186.4 49.2 186.4 45 Z M 196.8 44.9 C 196.8 41.7 194.9 39.9 192.5 39.9 C 190 39.9 188.2 41.9 188.2 45 C 188.2 48.2 190.2 50 192.6 50 C 195.1 50 196.8 48.1 196.8 44.9 Z M 208.1 40 C 208.1 40 207.67 40.03 207.7 40 C 204.9 40 203.4 41.6 203.4 44.6 C 203.4 44.57 203.4 51.4 203.4 51.4 L 201.6 51.4 L 201.6 38.5 L 203.4 38.5 C 203.4 38.5 203.37 40.9 203.4 40.9 C 204 39.2 205.5 38.4 207.5 38.4 C 207.52 38.38 208.1 38.4 208.1 38.4 L 208.1 40 Z " stroke="none" fill="#000"/>  </g>  <g id="Polygon10671">    <path d="M 12.5 22.6 L 7.9 15.4 L 5.1 15.4 L 5.1 22.6 L 1.8 22.6 L 1.8 4.6 C 1.8 4.6 8.83 4.61 8.8 4.6 C 12.9 4.6 14.8 7.2 14.8 9.8 C 14.8 11.9 13.6 14 11.4 14.8 C 11.35 14.78 16.5 22.6 16.5 22.6 L 12.5 22.6 Z M 11.5 9.9 C 11.5 8.9 10.8 7.7 9 7.7 C 8.98 7.73 5.1 7.7 5.1 7.7 L 5.1 12.4 C 5.1 12.4 8.71 12.36 8.7 12.4 C 10.6 12.4 11.5 11.2 11.5 9.9 Z M 19.7 4.1 L 22.5 4.1 L 22.5 7 L 19.7 7 L 19.7 4.1 Z M 24.7 4.1 L 27.5 4.1 L 27.5 7 L 24.7 7 L 24.7 4.1 Z M 29.4 22.6 L 26.3 22.6 C 26.3 22.6 26.28 20.74 26.3 20.7 C 25.5 22 24.3 22.8 22.5 22.8 C 19.7 22.8 17.7 21 17.7 17.6 C 17.69 17.59 17.7 9.4 17.7 9.4 L 20.9 9.4 C 20.9 9.4 20.88 17.35 20.9 17.4 C 20.9 19.2 21.8 19.9 23.1 19.9 C 24.9 19.9 26.2 18.8 26.2 15.8 C 26.21 15.77 26.2 9.4 26.2 9.4 L 29.4 9.4 L 29.4 22.6 Z M 44.7 22.6 L 41.6 22.6 C 41.6 22.6 41.57 20.57 41.6 20.6 C 40.8 22.1 39.3 22.9 37.5 22.9 C 34.4 22.9 31.7 20.6 31.7 16 C 31.7 11.4 34.4 9.1 37.5 9.1 C 39.2 9.1 40.7 9.8 41.5 11.1 C 41.5 11.11 41.5 4.3 41.5 4.3 L 44.7 4.3 L 44.7 22.6 Z M 41.6 16 C 41.6 13.2 40 12 38.2 12 C 36.5 12 34.9 13.3 34.9 16 C 34.9 18.6 36.5 20 38.2 20 C 40 20 41.6 18.7 41.6 16 Z M 47.7 7.6 L 51.1 7.6 L 51.1 4 L 47.7 4 L 47.7 7.6 Z M 47.8 9.4 L 51 9.4 L 51 22.6 L 47.8 22.6 L 47.8 9.4 Z M 66 21.7 C 66 26 63.3 27.8 59.7 27.8 C 56.5 27.8 53.8 26.3 53.4 23 C 53.4 23 56.5 23 56.5 23 C 56.9 24.6 58.2 25.2 59.7 25.2 C 61.8 25.2 62.9 24.1 62.9 22.1 C 62.9 22.1 62.9 19.8 62.9 19.8 C 62.3 21.2 61 22.1 59 22.1 C 56 22.1 53.2 20.1 53.2 15.6 C 53.2 11.2 56 9.1 59 9.1 C 60.9 9.1 62.3 10 62.9 11.2 C 62.93 11.21 62.9 9.4 62.9 9.4 L 66 9.4 C 66 9.4 66 21.72 66 21.7 Z M 62.8 15.6 C 62.8 13.1 61.4 11.9 59.7 11.9 C 57.9 11.9 56.4 13.1 56.4 15.6 C 56.4 18.1 57.9 19.3 59.7 19.3 C 61.4 19.3 62.8 18.1 62.8 15.6 Z M 71.3 16.9 C 71.3 19.1 72.9 20.1 74.7 20.1 C 75.9 20.1 77.1 19.6 77.5 18.4 C 77.5 18.4 80.4 18.4 80.4 18.4 C 79.8 21.3 77.2 22.9 74.5 22.9 C 71.3 22.9 68.2 20.7 68.2 16 C 68.2 11.5 71.2 9.1 74.5 9.1 C 77.8 9.1 80.5 11.3 80.5 15.6 C 80.47 15.65 80.5 16.9 80.5 16.9 C 80.5 16.9 71.26 16.94 71.3 16.9 Z M 71.3 14.6 C 71.3 14.6 77.4 14.6 77.4 14.6 C 77.4 12.9 76.1 11.9 74.5 11.9 C 73 11.9 71.6 12.7 71.3 14.6 Z M 90.2 12.3 C 90.2 12.3 89.4 12.31 89.4 12.3 C 87.2 12.3 85.9 13.5 85.9 16.1 C 85.94 16.13 85.9 22.6 85.9 22.6 L 82.8 22.6 L 82.8 9.4 L 85.9 9.4 C 85.9 9.4 85.92 11.26 85.9 11.3 C 86.6 9.8 87.8 9.2 89.4 9.2 C 89.38 9.22 90.2 9.2 90.2 9.2 L 90.2 12.3 Z M 104.3 23.1 C 100.6 23.1 96.8 21 96.8 16.5 C 96.8 16.5 100.2 16.5 100.2 16.5 C 100.3 19.2 102.3 20.2 104.2 20.2 C 106 20.2 107.5 19.3 107.5 17.8 C 107.5 16 105.5 15.6 103.4 15.1 C 100.8 14.5 97.4 13.6 97.4 9.7 C 97.4 6 100.5 4.2 103.9 4.2 C 107.4 4.2 110.6 6 110.6 9.6 C 110.6 9.6 107.2 9.6 107.2 9.6 C 107.1 7.8 105.5 7.1 103.8 7.1 C 102.1 7.1 100.7 7.8 100.7 9.4 C 100.7 11.2 102.4 11.7 104.4 12.1 C 106.7 12.6 110.9 13.3 110.9 17.6 C 110.9 21.2 107.8 23.1 104.3 23.1 Z M 114.8 4.1 L 117.6 4.1 L 117.6 7 L 114.8 7 L 114.8 4.1 Z M 119.8 4.1 L 122.6 4.1 L 122.6 7 L 119.8 7 L 119.8 4.1 Z M 123.8 13.7 C 123.84 13.7 123.8 22.6 123.8 22.6 L 120.7 22.6 C 120.7 22.6 120.72 20.69 120.7 20.7 C 119.7 22.4 118.1 22.9 116.7 22.9 C 114.6 22.9 112.4 21.6 112.4 18.8 C 112.4 16.7 113.6 15.3 116.6 14.8 C 116.6 14.8 119.5 14.4 119.5 14.4 C 120.3 14.3 120.8 14 120.8 13.2 C 120.8 12.1 119.9 11.6 118.6 11.6 C 116.9 11.6 116.1 12.5 116 13.6 C 116 13.6 112.9 13.6 112.9 13.6 C 113.3 10.5 115.8 9.1 118.8 9.1 C 121.9 9.1 123.8 10.6 123.8 13.7 Z M 120.7 17 C 120.7 17 120.7 16.3 120.7 16.3 C 120.4 16.5 119.8 16.6 119.2 16.7 C 119.2 16.7 117.7 16.9 117.7 16.9 C 116.1 17.1 115.6 17.8 115.6 18.6 C 115.6 19.7 116.4 20.2 117.5 20.2 C 119.1 20.2 120.7 19 120.7 17 Z M 129.9 22.6 L 126.7 22.6 L 126.7 4.3 L 129.9 4.3 L 129.9 22.6 Z M 143.4 22.6 L 132.2 22.6 L 132.2 19.8 L 139.3 12.1 L 132.3 12.1 L 132.3 9.4 L 143.4 9.4 L 143.4 12.1 L 136.3 19.8 L 143.4 19.8 L 143.4 22.6 Z M 149.1 22.6 L 145.9 22.6 L 145.9 4.3 L 149.1 4.3 L 149.1 22.6 Z M 154.5 16.9 C 154.6 19.1 156.1 20.1 157.9 20.1 C 159.1 20.1 160.3 19.6 160.7 18.4 C 160.7 18.4 163.7 18.4 163.7 18.4 C 163.1 21.3 160.5 22.9 157.7 22.9 C 154.6 22.9 151.4 20.7 151.4 16 C 151.4 11.5 154.4 9.1 157.8 9.1 C 161 9.1 163.7 11.3 163.7 15.6 C 163.7 15.65 163.7 16.9 163.7 16.9 C 163.7 16.9 154.49 16.94 154.5 16.9 Z M 154.6 14.6 C 154.6 14.6 160.6 14.6 160.6 14.6 C 160.6 12.9 159.4 11.9 157.7 11.9 C 156.3 11.9 154.8 12.7 154.6 14.6 Z " stroke="none" fill="#000"/>  </g></svg>