<?xml version="1.0" standalone="no"?><!DOCTYPE svg PUBLIC "-//W3C//DTD SVG 1.1//EN" "http://www.w3.org/Graphics/SVG/1.1/DTD/svg11.dtd"><svg xmlns="http://www.w3.org/2000/svg" version="1.1" width="380.4px" height="104.4px" viewBox="0 -3 380.4 104.4" style="top:-3px"><desc>Sectors like retail and automotive were already under pressure from structural change pre-COVID Whilst</desc><defs/><g id="Polygon12129"><path d="m6.2 70.4c-3.1 0-5.3-2.3-5.3-5.8c0-3.6 2.1-5.9 5.4-5.9c2.5 0 4.5 1.4 4.7 3.9H9.5c-.2-1.6-1.6-2.5-3.2-2.5c-2.2 0-3.8 1.7-3.8 4.4c0 2.8 1.6 4.5 3.8 4.5c1.7 0 3-1 3.1-2.8h1.6c-.2 2.7-2.3 4.2-4.8 4.2zm16.5-7.9c.04-.05 0 7.7 0 7.7h-1.5v-7.6c0-1.5-.9-2.5-2.5-2.5c-1.9 0-3.6 1.4-3.6 4.2c.02-.04 0 5.9 0 5.9h-1.5v-16h1.5s.02 6.68 0 6.7c.7-1.3 1.9-2.2 3.9-2.2c2.3 0 3.7 1.3 3.7 3.8zm10.2 5.6c-.9 1.7-2.6 2.3-4 2.3c-1.9 0-3.6-1.1-3.6-3.3c0-2.1 1.5-3.1 3.4-3.3l2.7-.4c.8-.1 1.5-.4 1.5-1.4c0-1.3-1.1-2-2.7-2c-1.7 0-2.7.8-3 2.1h-1.5c.3-2.3 2.1-3.4 4.6-3.4c2.6 0 4.1 1.2 4.1 3.7c.02-.01 0 7.8 0 7.8h-1.5s.03-2.08 0-2.1zm-1.8-3.4l-1.8.2c-1.4.2-2.5.7-2.5 2.1c0 1.4 1.1 2 2.4 2c1.7 0 3.7-1.3 3.7-3.7v-1.1c-.4.3-1.1.4-1.8.5zm15.6-2.2c.02-.05 0 7.7 0 7.7h-1.5v-7.6c0-1.5-.9-2.5-2.5-2.5c-1.9 0-3.6 1.4-3.6 4.2v5.9h-1.5V58.9h1.5v2.1c.7-1.3 1.9-2.3 3.9-2.3c2.3 0 3.7 1.3 3.7 3.8zm13 7.2c0 3.4-2.2 5.1-5.1 5.1c-2.5 0-4.7-1.3-5.1-3.9h1.6c.2 1.4 1.2 2.6 3.5 2.6c2.1 0 3.6-1.1 3.6-3.7v-2.3c-.8 1.7-2.5 2.3-4 2.3c-2.7 0-5-1.9-5-5.6c0-3.7 2.4-5.5 5.1-5.5c1.8 0 3.2.8 3.9 2c-.03.03 0-1.8 0-1.8h1.5s-.02 10.78 0 10.8zm-1.6-5.5c0-2.8-1.7-4.2-3.6-4.2c-1.9 0-3.7 1.4-3.7 4.2c0 2.8 1.7 4.2 3.7 4.2c1.8 0 3.6-1.2 3.6-4.2zm5.6.7c.1 2.8 1.8 4.1 3.8 4.1c1.5 0 2.9-.7 3.3-2.3h1.4c-.5 2.6-2.7 3.7-4.8 3.7c-2.7 0-5.2-1.8-5.2-5.8c0-4.1 2.5-5.9 5.3-5.9c2.6 0 4.8 1.7 4.8 5.5v.7h-8.6zm.1-1.3h6.9c0-2.3-1.4-3.5-3.3-3.5c-1.8 0-3.4 1.1-3.6 3.5zm26.9.9c0 4.1-2.6 5.8-5.2 5.8c-1.9 0-3.2-.9-3.8-2.1v6.3h-1.5V58.9h1.5s-.03 2.38 0 2.4c.5-1.4 1.9-2.6 4-2.6c2.4 0 5 1.7 5 5.8zm-1.6 0c0-3.1-1.8-4.3-3.6-4.3c-1.9 0-3.8 1.2-3.8 4.4c0 3.1 1.9 4.3 3.7 4.3c1.9 0 3.7-1.2 3.7-4.4zm9.9-4.3s-.41.03-.4 0c-2.4 0-3.7 1.4-3.7 4c-.04 0 0 6 0 6h-1.6V58.9h1.5s.03 2.08 0 2.1c.6-1.5 1.9-2.2 3.7-2.2c-.03-.02.5 0 .5 0v1.4zm2.5 4.7c.1 2.8 1.8 4.1 3.8 4.1c1.5 0 2.9-.7 3.3-2.3h1.4c-.5 2.6-2.7 3.7-4.8 3.7c-2.7 0-5.2-1.8-5.2-5.8c0-4.1 2.5-5.9 5.3-5.9c2.6 0 4.8 1.7 4.8 5.5v.7h-8.6zm.1-1.3h6.9c0-2.3-1.4-3.5-3.3-3.5c-1.8 0-3.4 1.1-3.6 3.5zm10.5.5v-1.4h6.5v1.4h-6.5zm21-4.9c-.3-2.3-2.4-3.7-4.9-3.7c-3.3 0-5.8 2.6-5.8 6.7c0 3.6 2 6.9 6 6.9c2.6 0 4.6-1.5 4.8-4.2h1.7c-.2 3.6-3.1 5.7-6.7 5.7c-4.9 0-7.4-4-7.4-8.4c0-5 3.1-8.1 7.5-8.1c3.3 0 6.1 1.7 6.4 5.1h-1.6zm4 3.1c0-4.4 2.8-8.2 7.6-8.2c4.8 0 7.6 3.8 7.6 8.2c0 4.4-2.8 8.3-7.6 8.3c-4.8 0-7.6-3.9-7.6-8.3zm1.6 0c0 3.6 2.2 6.8 6.1 6.8c3.8 0 5.9-3.1 5.9-6.7c0-3.7-2.2-6.8-6-6.8c-3.8 0-6 3.1-6 6.7zm22.1 7.9h-1.7l-5.5-15.8h1.7l4.6 13.9l4.6-13.9h1.6l-5.3 15.8zm9.4 0h-1.6V54.4h1.6v15.8zm16.4-8.2c0 4.1-2.6 8.2-7.9 8.2c-.03-.02-4.6 0-4.6 0V54.4s4.84.03 4.8 0c5.1 0 7.7 3.7 7.7 7.6zm-1.7.1c0-3.2-2-6.3-6.1-6.3c.01.04-3.1 0-3.1 0v12.9s2.99.03 3 0c4.1 0 6.2-3.3 6.2-6.6zm2.9 5.9h2.2v2.2h-2.2V68zm23.8 2.2H210l-4-13.3l-3.9 13.3h-1.6l-4.1-15.8h1.6l3.3 13.5l4-13.5h1.6l3.9 13.5l3.3-13.5h1.6l-4.1 15.8zm15.6-7.7c-.05-.05 0 7.7 0 7.7h-1.6s.02-7.56 0-7.6c0-1.5-.9-2.5-2.5-2.5c-1.9 0-3.6 1.4-3.6 4.2c.03-.04 0 5.9 0 5.9H218v-16h1.5s.03 6.68 0 6.7c.7-1.3 1.9-2.2 3.9-2.2c2.3 0 3.8 1.3 3.8 3.8zm4.8-8.3h-1.7v1.9h1.7v-1.9zm-.1 16h-1.5V58.9h1.5v11.3zm4.9 0h-1.5v-16h1.5v16zm11.8-3.2c0 2.3-2.1 3.4-4.4 3.4c-2.4 0-4.6-1.2-4.8-3.7h1.6c.2 1.7 1.7 2.3 3.2 2.3c1.5 0 2.8-.5 2.8-1.8c0-1.3-1.3-1.6-2.6-1.8c-2.2-.4-4.8-.8-4.8-3.4c0-2.2 2-3.3 4.3-3.3c2.4 0 4.3 1.1 4.4 3.4h-1.6c-.1-1.4-1.4-2-2.9-2c-1.5 0-2.6.7-2.6 1.8c0 1.5 1.4 1.7 3.1 2c2 .3 4.3.6 4.3 3.1zm7.6 3.2s-1.62-.02-1.6 0c-1.5 0-2.9-.5-2.9-3c.04.02 0-6.9 0-6.9h-2.2v-1.4h2.2v-3.2l1.6-.4v3.6h2.7v1.4h-2.7s-.02 6.9 0 6.9c0 1 .3 1.6 1.5 1.6h1.4v1.4zm1.5-2.2h2.2v2.2h-2.2V68zm4 0h2.2v2.2h-2.2V68zm4.1 0h2.1v2.2h-2.1V68z" stroke="none" fill="#000"/></g><g id="Polygon12128"><path d="m8.6 42.9c-.9 1.7-2.6 2.3-4 2.3c-1.9 0-3.7-1.1-3.7-3.3c0-2.1 1.5-3.1 3.5-3.3l2.6-.4c.9-.1 1.6-.4 1.6-1.4c0-1.3-1.1-2-2.7-2c-1.7 0-2.8.8-3 2.1H1.4c.3-2.3 2.1-3.4 4.6-3.4c2.5 0 4.1 1.2 4.1 3.7v7.8H8.6v-2.1zm-1.9-3.4l-1.7.2c-1.4.2-2.5.7-2.5 2.1c0 1.4 1.1 2 2.4 2c1.7 0 3.7-1.3 3.7-3.7V39c-.5.3-1.1.4-1.9.5zm8.1 5.5h-1.5v-16h1.5v16zm9-10s-.39.03-.4 0c-2.4 0-3.7 1.4-3.7 4c-.02 0 0 6 0 6h-1.6V33.7h1.6s-.04 2.08 0 2.1c.5-1.5 1.8-2.2 3.6-2.2c-.01-.02.5 0 .5 0v1.4zm2.5 4.7c.1 2.8 1.8 4.1 3.8 4.1c1.5 0 3-.7 3.3-2.3h1.4c-.5 2.6-2.6 3.7-4.8 3.7c-2.7 0-5.2-1.8-5.2-5.8c0-4.1 2.6-5.9 5.3-5.9c2.6 0 4.8 1.7 4.8 5.5c.02-.05 0 .7 0 .7h-8.6zm.1-1.3h7c0-2.3-1.5-3.5-3.4-3.5c-1.8 0-3.4 1.1-3.6 3.5zm18.1 4.5c-.9 1.7-2.6 2.3-4 2.3c-2 0-3.7-1.1-3.7-3.3c0-2.1 1.5-3.1 3.4-3.3l2.7-.4c.8-.1 1.6-.4 1.6-1.4c0-1.3-1.2-2-2.8-2c-1.7 0-2.7.8-2.9 2.1h-1.5c.3-2.3 2.1-3.4 4.6-3.4c2.5 0 4.1 1.2 4.1 3.7c-.03-.01 0 7.8 0 7.8h-1.5s-.02-2.08 0-2.1zm-1.9-3.4l-1.7.2c-1.4.2-2.5.7-2.5 2.1c0 1.4 1.1 2 2.3 2c1.8 0 3.7-1.3 3.7-3.7V39c-.4.3-1 .4-1.8.5zM58.9 45h-1.4s-.04-2.2 0-2.2c-.6 1.3-2 2.4-4.1 2.4c-2.9 0-5-2.3-5-5.9c0-3.5 2.1-5.8 5.1-5.8c1.9 0 3.3.9 3.9 2.1c-.01.02 0-6.6 0-6.6h1.5v16zm-1.5-5.7c0-2.8-1.6-4.4-3.7-4.4c-2.3 0-3.7 1.7-3.7 4.4c0 2.8 1.5 4.5 3.7 4.5c2.1 0 3.7-1.7 3.7-4.5zm8.2 7.8c-.4 1.2-1.4 1.6-2.6 1.6c0-.02-1.2 0-1.2 0v-1.4h1c1 0 1.4-.3 1.8-1.3l.5-1.5l-4.2-10.8h1.6l3.4 8.9l3.3-8.9h1.5l-5.1 13.4zM85.4 45s-.04-2.16 0-2.2c-.8 1.6-2.2 2.3-3.8 2.3c-2.1 0-3.8-1.3-3.8-3.9c.05-.04 0-7.5 0-7.5h1.6s-.02 7.27 0 7.3c0 1.8 1 2.8 2.5 2.8c1.8 0 3.4-1.4 3.4-4.3v-5.8h1.5V45h-1.4zm13.9-7.7c.05-.05 0 7.7 0 7.7h-1.5s.02-7.56 0-7.6c0-1.5-.9-2.5-2.5-2.5c-1.9 0-3.6 1.4-3.6 4.2c.03-.04 0 5.9 0 5.9h-1.5V33.7h1.5s.03 2.1 0 2.1c.7-1.3 2-2.3 3.9-2.3c2.3 0 3.7 1.3 3.7 3.8zm13.1 7.7h-1.5s.04-2.2 0-2.2c-.5 1.3-1.9 2.4-4 2.4c-2.9 0-5-2.3-5-5.9c0-3.5 2.1-5.8 5.1-5.8c1.9 0 3.3.9 3.9 2.1c-.02.02 0-6.6 0-6.6h1.5v16zm-1.5-5.7c0-2.8-1.6-4.4-3.8-4.4c-2.2 0-3.7 1.7-3.7 4.4c0 2.8 1.6 4.5 3.7 4.5c2.2 0 3.8-1.7 3.8-4.5zm5.6.4c.1 2.8 1.8 4.1 3.8 4.1c1.5 0 3-.7 3.3-2.3h1.5c-.6 2.6-2.7 3.7-4.9 3.7c-2.7 0-5.2-1.8-5.2-5.8c0-4.1 2.6-5.9 5.3-5.9c2.7 0 4.8 1.7 4.8 5.5c.04-.05 0 .7 0 .7h-8.6zm.1-1.3h7c0-2.3-1.5-3.5-3.4-3.5c-1.7 0-3.4 1.1-3.6 3.5zm16.8-3.4s-.37.03-.4 0c-2.4 0-3.7 1.4-3.7 4v6h-1.5V33.7h1.5s-.03 2.08 0 2.1c.5-1.5 1.9-2.2 3.6-2.2c.01-.02.5 0 .5 0v1.4zm17.5 4.3c0 4.1-2.5 5.8-5.1 5.8c-2 0-3.2-.9-3.8-2.1c-.04.03 0 6.3 0 6.3h-1.6V33.7h1.5s.02 2.38 0 2.4c.5-1.4 2-2.6 4-2.6c2.5 0 5 1.7 5 5.8zm-1.5 0c0-3.1-1.8-4.3-3.7-4.3c-1.9 0-3.7 1.2-3.7 4.4c0 3.1 1.8 4.3 3.7 4.3c1.8 0 3.7-1.2 3.7-4.4zm9.8-4.3s-.36.03-.4 0c-2.4 0-3.7 1.4-3.7 4v6h-1.5V33.7h1.5s-.02 2.08 0 2.1c.5-1.5 1.9-2.2 3.6-2.2c.02-.02.5 0 .5 0v1.4zm2.6 4.7c0 2.8 1.7 4.1 3.7 4.1c1.5 0 3-.7 3.3-2.3h1.5c-.5 2.6-2.7 3.7-4.9 3.7c-2.7 0-5.2-1.8-5.2-5.8c0-4.1 2.6-5.9 5.3-5.9c2.7 0 4.9 1.7 4.9 5.5c-.05-.05 0 .7 0 .7h-8.6zm0-1.3h7c0-2.3-1.5-3.5-3.4-3.5c-1.7 0-3.4 1.1-3.6 3.5zm19.6 3.4c0 2.3-2.1 3.4-4.4 3.4c-2.4 0-4.6-1.2-4.9-3.7h1.7c.2 1.7 1.7 2.3 3.2 2.3c1.5 0 2.8-.5 2.8-1.8c0-1.3-1.3-1.6-2.7-1.8c-2.1-.4-4.7-.8-4.7-3.4c0-2.2 1.9-3.3 4.3-3.3c2.3 0 4.2 1.1 4.4 3.4h-1.6c-.1-1.4-1.4-2-2.9-2c-1.5 0-2.6.7-2.6 1.8c0 1.5 1.4 1.7 3.1 2c2 .3 4.3.6 4.3 3.1zm10.9 0c0 2.3-2.1 3.4-4.4 3.4c-2.4 0-4.6-1.2-4.9-3.7h1.7c.2 1.7 1.7 2.3 3.2 2.3c1.5 0 2.8-.5 2.8-1.8c0-1.3-1.3-1.6-2.7-1.8c-2.1-.4-4.7-.8-4.7-3.4c0-2.2 1.9-3.3 4.2-3.3c2.4 0 4.3 1.1 4.5 3.4h-1.6c-.1-1.4-1.4-2-2.9-2c-1.5 0-2.6.7-2.6 1.8c0 1.5 1.4 1.7 3.1 2c2 .3 4.3.6 4.3 3.1zm9.9 3.2s-.01-2.16 0-2.2c-.8 1.6-2.2 2.3-3.8 2.3c-2.1 0-3.7-1.3-3.7-3.9c-.03-.04 0-7.5 0-7.5h1.5v7.3c0 1.8 1 2.8 2.5 2.8c1.8 0 3.4-1.4 3.4-4.3c.02.04 0-5.8 0-5.8h1.6V45h-1.5zm10.4-10s-.31.03-.3 0c-2.4 0-3.8 1.4-3.8 4c.05 0 0 6 0 6H207V33.7h1.5s.03 2.08 0 2.1c.6-1.5 1.9-2.2 3.7-2.2c-.04-.02.4 0 .4 0v1.4zm2.6 4.7c0 2.8 1.8 4.1 3.8 4.1c1.5 0 2.9-.7 3.3-2.3h1.4c-.5 2.6-2.7 3.7-4.8 3.7c-2.7 0-5.2-1.8-5.2-5.8c0-4.1 2.5-5.9 5.2-5.9c2.7 0 4.9 1.7 4.9 5.5v.7h-8.6zm0-1.3h7c0-2.3-1.4-3.5-3.3-3.5c-1.8 0-3.4 1.1-3.7 3.5zm19.9-8.1c-1.3 0-1.6.6-1.6 1.7v1.7h2.5v1.4h-2.5v9.9H232v-9.9h-1.9v-1.4h1.9s-.04-1.78 0-1.8c0-2.5 1.3-2.9 2.8-2.9c0-.02 1.5 0 1.5 0v1.3s-1.25.04-1.2 0zm8.8 4.7s-.34.03-.3 0c-2.4 0-3.8 1.4-3.8 4c.02 0 0 6 0 6h-1.5V33.7h1.5v2.1c.5-1.5 1.9-2.2 3.6-2.2c.03-.02.5 0 .5 0v1.4zm1.1 4.4c0-3.7 2.2-5.9 5.3-5.9c3.1 0 5.4 2.2 5.4 5.9c0 3.6-2.3 5.8-5.4 5.8c-3.1 0-5.3-2.2-5.3-5.8zm9.1-.1c0-2.8-1.7-4.4-3.8-4.4c-2.2 0-3.8 1.7-3.8 4.5c0 2.8 1.7 4.4 3.8 4.4c2.2 0 3.8-1.7 3.8-4.5zm4.2-5.6h1.5v1.9c.6-1.4 1.8-2.1 3.3-2.1c1.6 0 2.9.9 3.3 2.3c.5-1.2 1.7-2.3 3.7-2.3c2 0 3.7 1.1 3.7 3.4c-.05 0 0 8.1 0 8.1h-1.6s.02-7.56 0-7.6c0-1.7-1.1-2.5-2.4-2.5c-1.7 0-3 1.3-3 3.6c-.04.03 0 6.5 0 6.5h-1.6s.05-7.56 0-7.6c0-1.7-1-2.5-2.3-2.5c-1.7 0-3.1 1.2-3.1 3.6v6.5h-1.5V33.7zm32.3 8.1c0 2.3-2 3.4-4.3 3.4c-2.4 0-4.7-1.2-4.9-3.7h1.7c.2 1.7 1.7 2.3 3.2 2.3c1.5 0 2.7-.5 2.7-1.8c0-1.3-1.3-1.6-2.6-1.8c-2.1-.4-4.7-.8-4.7-3.4c0-2.2 1.9-3.3 4.2-3.3c2.4 0 4.3 1.1 4.4 3.4h-1.6c-.1-1.4-1.4-2-2.8-2c-1.6 0-2.6.7-2.6 1.8c0 1.5 1.4 1.7 3.1 2c2 .3 4.2.6 4.2 3.1zm7.7 3.2s-1.66-.02-1.7 0c-1.4 0-2.8-.5-2.8-3v-6.9h-2.2v-1.4h2.2v-3.2l1.5-.4v3.6h2.8v1.4h-2.8s.04 6.9 0 6.9c0 1 .3 1.6 1.6 1.6h1.4v1.4zm7.8-10s-.32.03-.3 0c-2.4 0-3.8 1.4-3.8 4c.04 0 0 6 0 6h-1.5V33.7h1.5s.02 2.08 0 2.1c.5-1.5 1.9-2.2 3.7-2.2c-.05-.02.4 0 .4 0v1.4zm9.4 10s.04-2.16 0-2.2c-.7 1.6-2.1 2.3-3.7 2.3c-2.1 0-3.8-1.3-3.8-3.9c.03-.04 0-7.5 0-7.5h1.6s-.04 7.27 0 7.3c0 1.8 1 2.8 2.5 2.8c1.8 0 3.4-1.4 3.4-4.3c-.02.04 0-5.8 0-5.8h1.5V45h-1.5zm9.4.2c-3.1 0-5.3-2.3-5.3-5.8c0-3.6 2.1-5.9 5.4-5.9c2.5 0 4.5 1.4 4.7 3.9h-1.5c-.2-1.6-1.6-2.5-3.2-2.5c-2.2 0-3.8 1.7-3.8 4.4c0 2.8 1.5 4.5 3.8 4.5c1.7 0 3-1 3.1-2.8h1.6c-.2 2.7-2.3 4.2-4.8 4.2zm12.5-.2s-1.63-.02-1.6 0c-1.5 0-2.9-.5-2.9-3c.03.02 0-6.9 0-6.9h-2.2v-1.4h2.2v-3.2l1.6-.4v3.6h2.7v1.4h-2.7s-.04 6.9 0 6.9c0 1 .3 1.6 1.5 1.6h1.4v1.4zm9.6 0s.04-2.16 0-2.2c-.7 1.6-2.1 2.3-3.7 2.3c-2.1 0-3.8-1.3-3.8-3.9c.02-.04 0-7.5 0-7.5h1.6s-.04 7.27 0 7.3c0 1.8 1 2.8 2.5 2.8c1.8 0 3.4-1.4 3.4-4.3c-.02.04 0-5.8 0-5.8h1.5V45H347zm10.5-10s-.36.03-.4 0c-2.4 0-3.7 1.4-3.7 4v6h-1.5V33.7h1.5s-.02 2.08 0 2.1c.5-1.5 1.9-2.2 3.6-2.2c.02-.02.5 0 .5 0v1.4zm8.9 7.9c-.9 1.7-2.6 2.3-4 2.3c-1.9 0-3.6-1.1-3.6-3.3c0-2.1 1.5-3.1 3.4-3.3l2.7-.4c.8-.1 1.5-.4 1.5-1.4c0-1.3-1.1-2-2.7-2c-1.7 0-2.7.8-3 2.1h-1.5c.3-2.3 2.1-3.4 4.6-3.4c2.6 0 4.1 1.2 4.1 3.7c.02-.01 0 7.8 0 7.8h-1.5s.03-2.08 0-2.1zm-1.8-3.4l-1.8.2c-1.4.2-2.5.7-2.5 2.1c0 1.4 1.1 2 2.4 2c1.7 0 3.7-1.3 3.7-3.7V39c-.4.3-1.1.4-1.8.5zm8 5.5h-1.5v-16h1.5v16z" stroke="none" fill="#000"/></g><g id="Polygon12127"><path d="m7.1 20.2c-3.2 0-5.9-2-6.1-5.4h1.8c.1 2.7 2.2 3.9 4.4 3.9c2.1 0 3.7-1.1 3.7-2.9c0-2.1-2.2-2.6-4.3-3.1c-2.5-.7-5-1.5-5-4.6c0-2.9 2.2-4.4 5.2-4.4c2.8 0 5.3 1.3 5.4 4.4h-1.6c-.1-2.1-1.8-3-3.8-3c-2 0-3.6 1-3.6 3c0 2.1 1.8 2.6 4 3.2c2.6.6 5.3 1.3 5.3 4.4c0 2.9-2.4 4.5-5.4 4.5zm8.9-5.7c.1 2.8 1.8 4.1 3.8 4.1c1.5 0 3-.7 3.3-2.3h1.4c-.5 2.6-2.6 3.7-4.8 3.7c-2.7 0-5.2-1.8-5.2-5.8c0-4.1 2.6-5.9 5.3-5.9c2.6 0 4.8 1.7 4.8 5.5c.03-.05 0 .7 0 .7H16zm.1-1.3h7c0-2.3-1.5-3.5-3.4-3.5c-1.7 0-3.4 1.1-3.6 3.5zM31.8 20c-3.2 0-5.3-2.3-5.3-5.8c0-3.6 2.1-5.9 5.4-5.9c2.5 0 4.5 1.4 4.6 3.9H35c-.1-1.6-1.5-2.5-3.1-2.5c-2.2 0-3.8 1.7-3.8 4.4c0 2.8 1.5 4.5 3.7 4.5c1.7 0 3.1-1 3.2-2.8h1.5c-.1 2.7-2.2 4.2-4.7 4.2zm12.5-.2s-1.65-.02-1.6 0c-1.5 0-2.9-.5-2.9-3c.02.02 0-6.9 0-6.9h-2.2V8.5h2.2V5.3l1.5-.4v3.6h2.8v1.4h-2.8s.05 6.9 0 6.9c0 1 .3 1.6 1.6 1.6h1.4v1.4zm1.5-5.6c0-3.7 2.2-5.9 5.3-5.9c3.1 0 5.4 2.2 5.4 5.9c0 3.6-2.3 5.8-5.4 5.8c-3.1 0-5.3-2.2-5.3-5.8zm9.1-.1c0-2.8-1.7-4.4-3.8-4.4c-2.2 0-3.7 1.7-3.7 4.5c0 2.8 1.7 4.4 3.8 4.4c2.1 0 3.7-1.7 3.7-4.5zm9.8-4.3s-.34.03-.3 0c-2.4 0-3.8 1.4-3.8 4c.03 0 0 6 0 6h-1.5V8.5h1.5v2.1c.5-1.5 1.9-2.2 3.6-2.2c.04-.02.5 0 .5 0v1.4zm10.4 6.8c0 2.3-2.1 3.4-4.4 3.4c-2.4 0-4.6-1.2-4.8-3.7h1.6c.3 1.7 1.7 2.3 3.3 2.3c1.4 0 2.7-.5 2.7-1.8c0-1.3-1.3-1.6-2.6-1.8c-2.2-.4-4.8-.8-4.8-3.4c0-2.2 2-3.3 4.3-3.3c2.4 0 4.3 1.1 4.4 3.4h-1.6c-.1-1.4-1.4-2-2.9-2c-1.5 0-2.6.7-2.6 1.8c0 1.5 1.4 1.7 3.1 2c2 .3 4.3.6 4.3 3.1zm9.3 3.2h-1.5v-16h1.5v16zm5-16h-1.7v1.9h1.7V3.8zm-.1 16h-1.5V8.5h1.5v11.3zm6.9-5.5l-2 2.1v3.4h-1.5v-16h1.5v10.7l5.5-6h2l-4.5 4.7l4.8 6.6h-1.8l-4-5.5zm8.2.2c0 2.8 1.8 4.1 3.7 4.1c1.5 0 3-.7 3.3-2.3h1.5c-.5 2.6-2.7 3.7-4.8 3.7c-2.7 0-5.2-1.8-5.2-5.8c0-4.1 2.5-5.9 5.2-5.9c2.7 0 4.9 1.7 4.9 5.5c-.02-.05 0 .7 0 .7h-8.6zm0-1.3h7c0-2.3-1.4-3.5-3.3-3.5c-1.8 0-3.5 1.1-3.7 3.5zm22.1-3.4s-.38.03-.4 0c-2.4 0-3.7 1.4-3.7 4v6h-1.5V8.5h1.5s-.03 2.08 0 2.1c.5-1.5 1.9-2.2 3.6-2.2c0-.02.5 0 .5 0v1.4zm2.5 4.7c.1 2.8 1.8 4.1 3.8 4.1c1.5 0 3-.7 3.3-2.3h1.4c-.5 2.6-2.6 3.7-4.8 3.7c-2.7 0-5.2-1.8-5.2-5.8c0-4.1 2.6-5.9 5.3-5.9c2.6 0 4.8 1.7 4.8 5.5c.03-.05 0 .7 0 .7H129zm.1-1.3h7c0-2.3-1.5-3.5-3.4-3.5c-1.7 0-3.4 1.1-3.6 3.5zm16.3 6.6s-1.66-.02-1.7 0c-1.4 0-2.8-.5-2.8-3V9.9h-2.2V8.5h2.2V5.3l1.5-.4v3.6h2.8v1.4h-2.8s.04 6.9 0 6.9c0 1 .3 1.6 1.6 1.6h1.4v1.4zm9.1-2.1c-.8 1.7-2.5 2.3-4 2.3c-1.9 0-3.6-1.1-3.6-3.3c0-2.1 1.5-3.1 3.4-3.3l2.7-.4c.8-.1 1.5-.4 1.5-1.4c0-1.3-1.1-2-2.7-2c-1.7 0-2.7.8-3 2.1h-1.5c.3-2.3 2.1-3.4 4.6-3.4c2.6 0 4.1 1.2 4.1 3.7c.03-.01 0 7.8 0 7.8h-1.5s.04-2.08 0-2.1zm-1.8-3.4l-1.8.2c-1.4.2-2.5.7-2.5 2.1c0 1.4 1.1 2 2.4 2c1.7 0 3.7-1.3 3.7-3.7v-1.1c-.4.3-1.1.4-1.8.5zm8.1-10.5h-1.7v1.9h1.7V3.8zm-.1 16h-1.5V8.5h1.5v11.3zm4.9 0h-1.5v-16h1.5v16zm16-2.1c-.9 1.7-2.6 2.3-4 2.3c-2 0-3.7-1.1-3.7-3.3c0-2.1 1.5-3.1 3.4-3.3l2.7-.4c.8-.1 1.6-.4 1.6-1.4c0-1.3-1.2-2-2.8-2c-1.7 0-2.7.8-2.9 2.1h-1.6c.4-2.3 2.2-3.4 4.6-3.4c2.6 0 4.2 1.2 4.2 3.7c-.05-.01 0 7.8 0 7.8h-1.5s-.04-2.08 0-2.1zm-1.9-3.4l-1.7.2c-1.5.2-2.5.7-2.5 2.1c0 1.4 1.1 2 2.3 2c1.8 0 3.7-1.3 3.7-3.7v-1.1c-.4.3-1.1.4-1.8.5zm15.7-2.2c-.04-.05 0 7.7 0 7.7h-1.6s.03-7.56 0-7.6c0-1.5-.9-2.5-2.5-2.5c-1.9 0-3.6 1.4-3.6 4.2c.04-.04 0 5.9 0 5.9h-1.5V8.5h1.5s.04 2.1 0 2.1c.7-1.3 2-2.3 3.9-2.3c2.3 0 3.8 1.3 3.8 3.8zm13 7.7H207s-.05-2.2 0-2.2c-.6 1.3-2 2.4-4.1 2.4c-2.9 0-5-2.3-5-5.9c0-3.5 2.1-5.8 5.1-5.8c1.9 0 3.3.9 3.9 2.1c-.01.02 0-6.6 0-6.6h1.5v16zm-1.5-5.7c0-2.8-1.6-4.4-3.7-4.4c-2.3 0-3.7 1.7-3.7 4.4c0 2.8 1.5 4.5 3.7 4.5c2.1 0 3.7-1.7 3.7-4.5zm17.5 3.6c-.9 1.7-2.6 2.3-4 2.3c-2 0-3.7-1.1-3.7-3.3c0-2.1 1.5-3.1 3.4-3.3l2.7-.4c.8-.1 1.6-.4 1.6-1.4c0-1.3-1.2-2-2.7-2c-1.7 0-2.8.8-3 2.1h-1.5c.3-2.3 2.1-3.4 4.6-3.4c2.5 0 4.1 1.2 4.1 3.7c-.03-.01 0 7.8 0 7.8h-1.5s-.02-2.08 0-2.1zm-1.9-3.4l-1.7.2c-1.4.2-2.5.7-2.5 2.1c0 1.4 1.1 2 2.3 2c1.8 0 3.7-1.3 3.7-3.7v-1.1c-.4.3-1 .4-1.8.5zm13.9 5.5s.04-2.16 0-2.2c-.7 1.6-2.1 2.3-3.7 2.3c-2.1 0-3.8-1.3-3.8-3.9c.02-.04 0-7.5 0-7.5h1.6s-.05 7.27 0 7.3c0 1.8 1 2.8 2.4 2.8c1.9 0 3.5-1.4 3.5-4.3c-.03.04 0-5.8 0-5.8h1.5v11.3h-1.5zm10 0s-1.65-.02-1.6 0c-1.5 0-2.9-.5-2.9-3c.02.02 0-6.9 0-6.9h-2.2V8.5h2.2V5.3l1.5-.4v3.6h2.8v1.4h-2.8s.05 6.9 0 6.9c0 1 .3 1.6 1.6 1.6h1.4v1.4zm1.5-5.6c0-3.7 2.2-5.9 5.3-5.9c3.1 0 5.4 2.2 5.4 5.9c0 3.6-2.3 5.8-5.4 5.8c-3.1 0-5.3-2.2-5.3-5.8zm9.1-.1c0-2.8-1.7-4.4-3.8-4.4c-2.2 0-3.7 1.7-3.7 4.5c0 2.8 1.7 4.4 3.8 4.4c2.1 0 3.7-1.7 3.7-4.5zm4.2-5.6h1.5v1.9c.6-1.4 1.9-2.1 3.3-2.1c1.6 0 3 .9 3.3 2.3c.5-1.2 1.8-2.3 3.7-2.3c2.1 0 3.7 1.1 3.7 3.4c-.03 0 0 8.1 0 8.1h-1.6s.04-7.56 0-7.6c0-1.7-1-2.5-2.4-2.5c-1.6 0-3 1.3-3 3.6c-.02.03 0 6.5 0 6.5h-1.5s-.03-7.56 0-7.6c0-1.7-1.1-2.5-2.4-2.5c-1.7 0-3.1 1.2-3.1 3.6c.03.03 0 6.5 0 6.5h-1.5V8.5zm18 5.7c0-3.7 2.2-5.9 5.3-5.9c3.1 0 5.4 2.2 5.4 5.9c0 3.6-2.2 5.8-5.4 5.8c-3.1 0-5.3-2.2-5.3-5.8zm9.1-.1c0-2.8-1.7-4.4-3.8-4.4c-2.2 0-3.7 1.7-3.7 4.5c0 2.8 1.7 4.4 3.8 4.4c2.2 0 3.7-1.7 3.7-4.5zm9.3 5.7s-1.61-.02-1.6 0c-1.5 0-2.8-.5-2.8-3c-.04.02 0-6.9 0-6.9h-2.3V8.5h2.3V5.3l1.5-.4v3.6h2.7v1.4h-2.7v6.9c0 1 .3 1.6 1.5 1.6h1.4v1.4zm3.9-16h-1.8v1.9h1.8V3.8zm-.1 16h-1.5V8.5h1.5v11.3zm7.8 0h-1.6l-4.2-11.3h1.6l3.4 9.7l3.4-9.7h1.6l-4.2 11.3zm6.8-5.3c0 2.8 1.7 4.1 3.7 4.1c1.5 0 3-.7 3.3-2.3h1.5c-.5 2.6-2.7 3.7-4.8 3.7c-2.7 0-5.2-1.8-5.2-5.8c0-4.1 2.5-5.9 5.2-5.9c2.7 0 4.9 1.7 4.9 5.5c-.03-.05 0 .7 0 .7H316zm0-1.3h7c0-2.3-1.5-3.5-3.3-3.5c-1.8 0-3.5 1.1-3.7 3.5zm27.3 6.6h-1.5l-2.9-9l-2.9 9h-1.6l-3.6-11.3h1.5l2.9 9.3l2.9-9.3h1.5l3 9.3l2.8-9.3h1.6l-3.7 11.3zm6.3-5.3c.1 2.8 1.8 4.1 3.8 4.1c1.5 0 3-.7 3.3-2.3h1.5c-.6 2.6-2.7 3.7-4.9 3.7c-2.7 0-5.2-1.8-5.2-5.8c0-4.1 2.6-5.9 5.3-5.9c2.7 0 4.8 1.7 4.8 5.5c.03-.05 0 .7 0 .7h-8.6zm.1-1.3h7c0-2.3-1.5-3.5-3.4-3.5c-1.7 0-3.4 1.1-3.6 3.5zm16.8-3.4s-.37.03-.4 0c-2.4 0-3.7 1.4-3.7 4v6h-1.5V8.5h1.5s-.03 2.08 0 2.1c.5-1.5 1.9-2.2 3.6-2.2c0-.02.5 0 .5 0v1.4zm2.5 4.7c.1 2.8 1.8 4.1 3.8 4.1c1.5 0 3-.7 3.3-2.3h1.5c-.5 2.6-2.7 3.7-4.9 3.7c-2.7 0-5.2-1.8-5.2-5.8c0-4.1 2.6-5.9 5.3-5.9c2.7 0 4.8 1.7 4.8 5.5c.04-.05 0 .7 0 .7H369zm.1-1.3h7c0-2.3-1.5-3.5-3.4-3.5c-1.7 0-3.4 1.1-3.6 3.5z" stroke="none" fill="#000"/></g></svg>