<?xml version="1.0" standalone="no"?><!DOCTYPE svg PUBLIC "-//W3C//DTD SVG 1.1//EN" "http://www.w3.org/Graphics/SVG/1.1/DTD/svg11.dtd"><svg xmlns="http://www.w3.org/2000/svg" version="1.1" width="373px" height="155.4px" viewBox="0 0 373 155.4">  <desc>Dans les march s mergents, o voyez-vous des opportunit s Dans les devises fortes ou locales, ou m me les entrepri</desc>  <defs/>  <g id="Polygon10782">    <path d="M 17.7 87.6 C 17.72 87.57 17.7 95.4 17.7 95.4 L 14.9 95.4 C 14.9 95.4 14.93 88.12 14.9 88.1 C 14.9 86.7 14.3 86.1 13.1 86.1 C 11.8 86.1 10.9 86.9 10.9 88.9 C 10.94 88.87 10.9 95.4 10.9 95.4 L 8.1 95.4 C 8.1 95.4 8.15 88.12 8.1 88.1 C 8.1 86.7 7.5 86.1 6.3 86.1 C 5 86.1 4.2 86.9 4.2 88.9 C 4.16 88.85 4.2 95.4 4.2 95.4 L 1.4 95.4 L 1.4 83.8 L 4.1 83.8 C 4.1 83.8 4.12 85.49 4.1 85.5 C 4.5 84.6 5.4 83.6 7.1 83.6 C 8.6 83.6 9.8 84.3 10.3 85.5 C 10.8 84.7 11.6 83.6 13.7 83.6 C 16.1 83.6 17.7 85.1 17.7 87.6 Z M 25.3 80.1 L 24 81.7 L 21.3 81.7 L 24.5 77.6 L 26 77.6 L 29.3 81.7 L 26.6 81.7 L 25.3 80.1 Z M 22.3 90.4 C 22.4 92.3 23.7 93.2 25.3 93.2 C 26.4 93.2 27.4 92.8 27.8 91.7 C 27.8 91.7 30.3 91.7 30.3 91.7 C 29.8 94.3 27.6 95.6 25.2 95.6 C 22.4 95.6 19.6 93.7 19.6 89.6 C 19.6 85.6 22.2 83.6 25.2 83.6 C 28 83.6 30.4 85.4 30.4 89.3 C 30.39 89.29 30.4 90.4 30.4 90.4 C 30.4 90.4 22.32 90.43 22.3 90.4 Z M 22.4 88.4 C 22.4 88.4 27.7 88.4 27.7 88.4 C 27.7 86.9 26.6 86 25.2 86 C 23.9 86 22.6 86.7 22.4 88.4 Z M 48.7 87.6 C 48.74 87.57 48.7 95.4 48.7 95.4 L 45.9 95.4 C 45.9 95.4 45.95 88.12 45.9 88.1 C 45.9 86.7 45.3 86.1 44.1 86.1 C 42.8 86.1 42 86.9 42 88.9 C 41.96 88.87 42 95.4 42 95.4 L 39.2 95.4 C 39.2 95.4 39.16 88.12 39.2 88.1 C 39.2 86.7 38.5 86.1 37.3 86.1 C 36 86.1 35.2 86.9 35.2 88.9 C 35.17 88.85 35.2 95.4 35.2 95.4 L 32.4 95.4 L 32.4 83.8 L 35.1 83.8 C 35.1 83.8 35.13 85.49 35.1 85.5 C 35.5 84.6 36.4 83.6 38.1 83.6 C 39.6 83.6 40.8 84.3 41.3 85.5 C 41.8 84.7 42.6 83.6 44.7 83.6 C 47.2 83.6 48.7 85.1 48.7 87.6 Z M 53.3 90.4 C 53.4 92.3 54.7 93.2 56.3 93.2 C 57.4 93.2 58.5 92.8 58.8 91.7 C 58.8 91.7 61.4 91.7 61.4 91.7 C 60.9 94.3 58.6 95.6 56.2 95.6 C 53.4 95.6 50.6 93.7 50.6 89.6 C 50.6 85.6 53.3 83.6 56.2 83.6 C 59 83.6 61.4 85.4 61.4 89.3 C 61.4 89.29 61.4 90.4 61.4 90.4 C 61.4 90.4 53.34 90.43 53.3 90.4 Z M 53.4 88.4 C 53.4 88.4 58.7 88.4 58.7 88.4 C 58.7 86.9 57.6 86 56.2 86 C 54.9 86 53.7 86.7 53.4 88.4 Z M 71.4 95.4 L 68.6 95.4 L 68.6 79.4 L 71.4 79.4 L 71.4 95.4 Z M 76.1 90.4 C 76.2 92.3 77.6 93.2 79.1 93.2 C 80.2 93.2 81.3 92.8 81.6 91.7 C 81.6 91.7 84.2 91.7 84.2 91.7 C 83.7 94.3 81.4 95.6 79 95.6 C 76.2 95.6 73.4 93.7 73.4 89.6 C 73.4 85.6 76.1 83.6 79 83.6 C 81.8 83.6 84.2 85.4 84.2 89.3 C 84.21 89.29 84.2 90.4 84.2 90.4 C 84.2 90.4 76.15 90.43 76.1 90.4 Z M 76.2 88.4 C 76.2 88.4 81.5 88.4 81.5 88.4 C 81.5 86.9 80.4 86 79 86 C 77.7 86 76.5 86.7 76.2 88.4 Z M 95.5 91.8 C 95.5 94.4 93.2 95.6 90.6 95.6 C 88.2 95.6 85.6 94.6 85.4 91.7 C 85.4 91.7 88.2 91.7 88.2 91.7 C 88.4 92.8 89.4 93.3 90.7 93.3 C 91.9 93.3 92.7 92.9 92.7 92.1 C 92.7 91.3 92.2 91.2 90.6 90.9 C 88.3 90.5 85.7 90.1 85.7 87.3 C 85.7 84.7 87.9 83.6 90.3 83.6 C 93 83.6 95 84.9 95.2 87.5 C 95.2 87.5 92.5 87.5 92.5 87.5 C 92.4 86.4 91.5 85.9 90.4 85.9 C 89 85.9 88.4 86.5 88.4 87.2 C 88.4 88.1 89.5 88.3 90.9 88.5 C 92.9 88.8 95.5 89.1 95.5 91.8 Z M 104.2 90.4 C 104.2 92.3 105.6 93.2 107.1 93.2 C 108.2 93.2 109.3 92.8 109.6 91.7 C 109.6 91.7 112.2 91.7 112.2 91.7 C 111.7 94.3 109.4 95.6 107 95.6 C 104.2 95.6 101.5 93.7 101.5 89.6 C 101.5 85.6 104.1 83.6 107 83.6 C 109.9 83.6 112.2 85.4 112.2 89.3 C 112.22 89.29 112.2 90.4 112.2 90.4 C 112.2 90.4 104.16 90.43 104.2 90.4 Z M 104.2 88.4 C 104.2 88.4 109.5 88.4 109.5 88.4 C 109.5 86.9 108.4 86 107 86 C 105.7 86 104.5 86.7 104.2 88.4 Z M 124.4 87.9 C 124.4 87.91 124.4 95.4 124.4 95.4 L 121.6 95.4 C 121.6 95.4 121.61 88.16 121.6 88.2 C 121.6 86.9 120.9 86.1 119.6 86.1 C 118 86.1 117 87.2 117 89.1 C 117.01 89.12 117 95.4 117 95.4 L 114.2 95.4 L 114.2 83.8 L 117 83.8 C 117 83.8 116.99 85.47 117 85.5 C 117.6 84.4 118.6 83.6 120.5 83.6 C 123.2 83.6 124.4 85.1 124.4 87.9 Z M 132.9 95.4 C 132.9 95.4 131.12 95.38 131.1 95.4 C 129 95.4 127.6 94.7 127.6 91.6 C 127.57 91.6 127.6 86.3 127.6 86.3 L 125.5 86.3 L 125.5 83.8 L 127.6 83.8 L 127.6 81.2 L 130.4 80.4 L 130.4 83.8 L 132.7 83.8 L 132.7 86.3 L 130.4 86.3 C 130.4 86.3 130.37 91.73 130.4 91.7 C 130.4 92.4 130.6 92.9 131.5 92.9 C 131.54 92.9 132.9 92.9 132.9 92.9 L 132.9 95.4 Z M 141.1 86.4 C 141.1 86.4 140.34 86.37 140.3 86.4 C 138.4 86.4 137.3 87.4 137.3 89.7 C 137.32 89.71 137.3 95.4 137.3 95.4 L 134.5 95.4 L 134.5 83.8 L 137.3 83.8 C 137.3 83.8 137.3 85.45 137.3 85.4 C 137.9 84.2 139 83.7 140.3 83.7 C 140.32 83.66 141.1 83.7 141.1 83.7 L 141.1 86.4 Z M 144.2 90.4 C 144.3 92.3 145.6 93.2 147.2 93.2 C 148.3 93.2 149.3 92.8 149.7 91.7 C 149.7 91.7 152.2 91.7 152.2 91.7 C 151.7 94.3 149.4 95.6 147.1 95.6 C 144.3 95.6 141.5 93.7 141.5 89.6 C 141.5 85.6 144.1 83.6 147.1 83.6 C 149.9 83.6 152.3 85.4 152.3 89.3 C 152.27 89.29 152.3 90.4 152.3 90.4 C 152.3 90.4 144.21 90.43 144.2 90.4 Z M 144.3 88.4 C 144.3 88.4 149.5 88.4 149.5 88.4 C 149.5 86.9 148.5 86 147 86 C 145.8 86 144.5 86.7 144.3 88.4 Z M 165.6 89.4 C 165.6 93.6 163 95.5 160.3 95.5 C 158.8 95.5 157.7 94.8 157.1 94 C 157.06 94 157.1 99.7 157.1 99.7 L 154.3 99.7 L 154.3 83.8 L 157 83.8 C 157 83.8 156.99 85.64 157 85.6 C 157.6 84.4 158.9 83.6 160.6 83.6 C 163.3 83.6 165.6 85.5 165.6 89.4 Z M 162.8 89.6 C 162.8 87.2 161.4 86.1 159.9 86.1 C 158.4 86.1 157 87.2 157 89.6 C 157 91.9 158.4 93 159.9 93 C 161.4 93 162.8 91.9 162.8 89.6 Z M 174.2 86.4 C 174.2 86.4 173.46 86.37 173.5 86.4 C 171.5 86.4 170.4 87.4 170.4 89.7 C 170.43 89.71 170.4 95.4 170.4 95.4 L 167.6 95.4 L 167.6 83.8 L 170.4 83.8 C 170.4 83.8 170.41 85.45 170.4 85.4 C 171 84.2 172.1 83.7 173.4 83.7 C 173.44 83.66 174.2 83.7 174.2 83.7 L 174.2 86.4 Z M 175.5 82.3 L 178.4 82.3 L 178.4 79.1 L 175.5 79.1 L 175.5 82.3 Z M 175.5 83.8 L 178.3 83.8 L 178.3 95.4 L 175.5 95.4 L 175.5 83.8 Z M 190.3 91.8 C 190.3 94.4 188 95.6 185.4 95.6 C 183 95.6 180.4 94.6 180.2 91.7 C 180.2 91.7 183 91.7 183 91.7 C 183.2 92.8 184.2 93.3 185.5 93.3 C 186.7 93.3 187.5 92.9 187.5 92.1 C 187.5 91.3 187 91.2 185.4 90.9 C 183.1 90.5 180.6 90.1 180.6 87.3 C 180.6 84.7 182.8 83.6 185.2 83.6 C 187.9 83.6 189.9 84.9 190 87.5 C 190 87.5 187.3 87.5 187.3 87.5 C 187.2 86.4 186.4 85.9 185.2 85.9 C 183.8 85.9 183.3 86.5 183.3 87.2 C 183.3 88.1 184.3 88.3 185.7 88.5 C 187.8 88.8 190.3 89.1 190.3 91.8 Z M 194.2 90.4 C 194.2 92.3 195.6 93.2 197.1 93.2 C 198.2 93.2 199.3 92.8 199.6 91.7 C 199.6 91.7 202.2 91.7 202.2 91.7 C 201.7 94.3 199.4 95.6 197 95.6 C 194.2 95.6 191.5 93.7 191.5 89.6 C 191.5 85.6 194.1 83.6 197 83.6 C 199.9 83.6 202.2 85.4 202.2 89.3 C 202.23 89.29 202.2 90.4 202.2 90.4 C 202.2 90.4 194.16 90.43 194.2 90.4 Z M 194.2 88.4 C 194.2 88.4 199.5 88.4 199.5 88.4 C 199.5 86.9 198.4 86 197 86 C 195.7 86 194.5 86.7 194.2 88.4 Z M 213.5 91.8 C 213.5 94.4 211.2 95.6 208.6 95.6 C 206.2 95.6 203.6 94.6 203.4 91.7 C 203.4 91.7 206.2 91.7 206.2 91.7 C 206.4 92.8 207.4 93.3 208.7 93.3 C 209.9 93.3 210.7 92.9 210.7 92.1 C 210.7 91.3 210.2 91.2 208.6 90.9 C 206.3 90.5 203.7 90.1 203.7 87.3 C 203.7 84.7 205.9 83.6 208.3 83.6 C 211 83.6 213 84.9 213.2 87.5 C 213.2 87.5 210.5 87.5 210.5 87.5 C 210.4 86.4 209.6 85.9 208.4 85.9 C 207 85.9 206.4 86.5 206.4 87.2 C 206.4 88.1 207.5 88.3 208.9 88.5 C 211 88.8 213.5 89.1 213.5 91.8 Z M 223.4 89.8 C 223.4 87.1 224.7 86.6 226 85.7 C 227 85 227.4 84.4 227.4 83.6 C 227.4 82.4 226.6 81.8 225.4 81.8 C 223.9 81.8 223 82.6 222.9 84 C 222.9 84 220.1 84 220.1 84 C 220.4 80.6 222.8 79.4 225.4 79.4 C 228.2 79.4 230.4 80.7 230.4 83.5 C 230.4 85.7 229.1 86.6 227.6 87.6 C 226.6 88.4 226.1 88.9 226.1 89.8 C 226.06 89.84 226.1 90.5 226.1 90.5 L 223.4 90.5 C 223.4 90.5 223.4 89.75 223.4 89.8 Z M 223.2 92.1 L 226.3 92.1 L 226.3 95.4 L 223.2 95.4 L 223.2 92.1 Z " stroke="none" fill="#000"/>  </g>  <g id="Polygon10781">    <path d="M 4.2 70.2 L 1.4 70.2 L 1.4 54.2 L 4.2 54.2 L 4.2 70.2 Z M 8.9 65.2 C 8.9 67.1 10.3 68 11.8 68 C 12.9 68 14 67.6 14.3 66.5 C 14.3 66.5 16.9 66.5 16.9 66.5 C 16.4 69.1 14.1 70.4 11.7 70.4 C 8.9 70.4 6.2 68.5 6.2 64.4 C 6.2 60.4 8.8 58.4 11.7 58.4 C 14.6 58.4 16.9 60.2 16.9 64.1 C 16.93 64.09 16.9 65.2 16.9 65.2 C 16.9 65.2 8.86 65.23 8.9 65.2 Z M 8.9 63.2 C 8.9 63.2 14.2 63.2 14.2 63.2 C 14.2 61.7 13.1 60.8 11.7 60.8 C 10.4 60.8 9.2 61.5 8.9 63.2 Z M 28.2 66.6 C 28.2 69.2 25.9 70.4 23.3 70.4 C 20.9 70.4 18.3 69.4 18.1 66.5 C 18.1 66.5 20.9 66.5 20.9 66.5 C 21.1 67.6 22.1 68.1 23.4 68.1 C 24.6 68.1 25.4 67.7 25.4 66.9 C 25.4 66.1 24.9 66 23.3 65.7 C 21 65.3 18.4 64.9 18.4 62.1 C 18.4 59.5 20.6 58.4 23 58.4 C 25.7 58.4 27.7 59.7 27.9 62.3 C 27.9 62.3 25.2 62.3 25.2 62.3 C 25.1 61.2 24.3 60.7 23.1 60.7 C 21.7 60.7 21.1 61.3 21.1 62 C 21.1 62.9 22.2 63.1 23.6 63.3 C 25.7 63.6 28.2 63.9 28.2 66.6 Z M 45.5 70.2 L 42.8 70.2 C 42.8 70.2 42.82 68.4 42.8 68.4 C 42.2 69.7 40.8 70.4 39.2 70.4 C 36.5 70.4 34.2 68.4 34.2 64.4 C 34.2 60.4 36.5 58.4 39.2 58.4 C 40.8 58.4 42.1 59 42.8 60.1 C 42.76 60.12 42.8 54.2 42.8 54.2 L 45.5 54.2 L 45.5 70.2 Z M 42.8 64.4 C 42.8 62 41.4 60.9 39.9 60.9 C 38.4 60.9 37 62 37 64.4 C 37 66.7 38.4 67.9 39.9 67.9 C 41.4 67.9 42.8 66.7 42.8 64.4 Z M 50.3 65.2 C 50.3 67.1 51.7 68 53.2 68 C 54.3 68 55.4 67.6 55.7 66.5 C 55.7 66.5 58.3 66.5 58.3 66.5 C 57.8 69.1 55.5 70.4 53.1 70.4 C 50.3 70.4 47.5 68.5 47.5 64.4 C 47.5 60.4 50.2 58.4 53.1 58.4 C 55.9 58.4 58.3 60.2 58.3 64.1 C 58.32 64.09 58.3 65.2 58.3 65.2 C 58.3 65.2 50.25 65.23 50.3 65.2 Z M 50.3 63.2 C 50.3 63.2 55.6 63.2 55.6 63.2 C 55.6 61.7 54.5 60.8 53.1 60.8 C 51.8 60.8 50.6 61.5 50.3 63.2 Z M 66.2 70.2 L 63.2 70.2 L 58.9 58.6 L 61.9 58.6 L 64.7 66.9 L 67.6 58.6 L 70.5 58.6 L 66.2 70.2 Z M 71.8 57.1 L 74.7 57.1 L 74.7 53.9 L 71.8 53.9 L 71.8 57.1 Z M 71.8 58.6 L 74.6 58.6 L 74.6 70.2 L 71.8 70.2 L 71.8 58.6 Z M 86.6 66.6 C 86.6 69.2 84.3 70.4 81.7 70.4 C 79.3 70.4 76.7 69.4 76.5 66.5 C 76.5 66.5 79.3 66.5 79.3 66.5 C 79.5 67.6 80.5 68.1 81.8 68.1 C 83 68.1 83.9 67.7 83.9 66.9 C 83.9 66.1 83.3 66 81.7 65.7 C 79.4 65.3 76.9 64.9 76.9 62.1 C 76.9 59.5 79.1 58.4 81.5 58.4 C 84.2 58.4 86.2 59.7 86.3 62.3 C 86.3 62.3 83.6 62.3 83.6 62.3 C 83.5 61.2 82.7 60.7 81.5 60.7 C 80.1 60.7 79.6 61.3 79.6 62 C 79.6 62.9 80.6 63.1 82 63.3 C 84.1 63.6 86.6 63.9 86.6 66.6 Z M 90.5 65.2 C 90.5 67.1 91.9 68 93.4 68 C 94.5 68 95.6 67.6 95.9 66.5 C 95.9 66.5 98.5 66.5 98.5 66.5 C 98 69.1 95.7 70.4 93.3 70.4 C 90.5 70.4 87.8 68.5 87.8 64.4 C 87.8 60.4 90.4 58.4 93.3 58.4 C 96.2 58.4 98.5 60.2 98.5 64.1 C 98.53 64.09 98.5 65.2 98.5 65.2 C 98.5 65.2 90.47 65.23 90.5 65.2 Z M 90.5 63.2 C 90.5 63.2 95.8 63.2 95.8 63.2 C 95.8 61.7 94.7 60.8 93.3 60.8 C 92 60.8 90.8 61.5 90.5 63.2 Z M 109.8 66.6 C 109.8 69.2 107.5 70.4 104.9 70.4 C 102.5 70.4 99.9 69.4 99.7 66.5 C 99.7 66.5 102.5 66.5 102.5 66.5 C 102.7 67.6 103.7 68.1 105 68.1 C 106.2 68.1 107 67.7 107 66.9 C 107 66.1 106.5 66 104.9 65.7 C 102.6 65.3 100 64.9 100 62.1 C 100 59.5 102.2 58.4 104.6 58.4 C 107.4 58.4 109.3 59.7 109.5 62.3 C 109.5 62.3 106.8 62.3 106.8 62.3 C 106.7 61.2 105.9 60.7 104.7 60.7 C 103.3 60.7 102.8 61.3 102.8 62 C 102.8 62.9 103.8 63.1 105.2 63.3 C 107.3 63.6 109.8 63.9 109.8 66.6 Z M 121 56.7 C 120.1 56.7 119.9 57.1 119.9 57.8 C 119.87 57.83 119.9 58.6 119.9 58.6 L 122 58.6 L 122 61.1 L 119.9 61.1 L 119.9 70.2 L 117.1 70.2 L 117.1 61.1 L 115.4 61.1 L 115.4 58.6 L 117.1 58.6 C 117.1 58.6 117.07 57.96 117.1 58 C 117.1 54.9 118.5 54.2 120.6 54.2 C 120.62 54.18 122.3 54.2 122.3 54.2 L 122.3 56.7 C 122.3 56.7 121.04 56.66 121 56.7 Z M 134 64.4 C 134 68.2 131.6 70.4 128.4 70.4 C 125.1 70.4 122.7 68.2 122.7 64.4 C 122.7 60.6 125.1 58.4 128.4 58.4 C 131.6 58.4 134 60.6 134 64.4 Z M 125.6 64.4 C 125.6 66.7 126.9 67.8 128.4 67.8 C 130.1 67.8 131.2 66.6 131.2 64.4 C 131.2 62.1 129.9 61 128.4 61 C 126.7 61 125.6 62.2 125.6 64.4 Z M 142.6 61.2 C 142.6 61.2 141.85 61.17 141.9 61.2 C 139.9 61.2 138.8 62.2 138.8 64.5 C 138.83 64.51 138.8 70.2 138.8 70.2 L 136 70.2 L 136 58.6 L 138.8 58.6 C 138.8 58.6 138.81 60.25 138.8 60.2 C 139.4 59 140.5 58.5 141.8 58.5 C 141.83 58.46 142.6 58.5 142.6 58.5 L 142.6 61.2 Z M 150.3 70.2 C 150.3 70.2 148.47 70.18 148.5 70.2 C 146.3 70.2 144.9 69.5 144.9 66.4 C 144.92 66.4 144.9 61.1 144.9 61.1 L 142.8 61.1 L 142.8 58.6 L 144.9 58.6 L 144.9 56 L 147.7 55.2 L 147.7 58.6 L 150 58.6 L 150 61.1 L 147.7 61.1 C 147.7 61.1 147.71 66.53 147.7 66.5 C 147.7 67.2 147.9 67.7 148.9 67.7 C 148.89 67.7 150.3 67.7 150.3 67.7 L 150.3 70.2 Z M 153.8 65.2 C 153.9 67.1 155.3 68 156.8 68 C 157.9 68 159 67.6 159.3 66.5 C 159.3 66.5 161.9 66.5 161.9 66.5 C 161.4 69.1 159.1 70.4 156.7 70.4 C 153.9 70.4 151.1 68.5 151.1 64.4 C 151.1 60.4 153.8 58.4 156.7 58.4 C 159.5 58.4 161.9 60.2 161.9 64.1 C 161.91 64.09 161.9 65.2 161.9 65.2 C 161.9 65.2 153.84 65.23 153.8 65.2 Z M 153.9 63.2 C 153.9 63.2 159.2 63.2 159.2 63.2 C 159.2 61.7 158.1 60.8 156.7 60.8 C 155.4 60.8 154.2 61.5 153.9 63.2 Z M 173.2 66.6 C 173.2 69.2 170.9 70.4 168.3 70.4 C 165.9 70.4 163.3 69.4 163.1 66.5 C 163.1 66.5 165.9 66.5 165.9 66.5 C 166.1 67.6 167.1 68.1 168.4 68.1 C 169.6 68.1 170.4 67.7 170.4 66.9 C 170.4 66.1 169.9 66 168.3 65.7 C 166 65.3 163.4 64.9 163.4 62.1 C 163.4 59.5 165.6 58.4 168 58.4 C 170.7 58.4 172.7 59.7 172.9 62.3 C 172.9 62.3 170.2 62.3 170.2 62.3 C 170.1 61.2 169.2 60.7 168.1 60.7 C 166.7 60.7 166.1 61.3 166.1 62 C 166.1 62.9 167.2 63.1 168.6 63.3 C 170.6 63.6 173.2 63.9 173.2 66.6 Z M 190.5 64.4 C 190.5 68.2 188.1 70.4 184.8 70.4 C 181.6 70.4 179.1 68.2 179.1 64.4 C 179.1 60.6 181.6 58.4 184.8 58.4 C 188.1 58.4 190.5 60.6 190.5 64.4 Z M 182 64.4 C 182 66.7 183.3 67.8 184.8 67.8 C 186.5 67.8 187.6 66.6 187.6 64.4 C 187.6 62.1 186.3 61 184.8 61 C 183.1 61 182 62.2 182 64.4 Z M 202.6 70.2 L 199.9 70.2 C 199.9 70.2 199.88 68.54 199.9 68.5 C 199.2 69.6 198.2 70.3 196.5 70.3 C 194.1 70.3 192.4 68.8 192.4 65.8 C 192.36 65.79 192.4 58.6 192.4 58.6 L 195.2 58.6 C 195.2 58.6 195.15 65.58 195.2 65.6 C 195.2 67.2 195.9 67.8 197.1 67.8 C 198.7 67.8 199.8 66.9 199.8 64.2 C 199.81 64.2 199.8 58.6 199.8 58.6 L 202.6 58.6 L 202.6 70.2 Z M 213.8 70.2 L 211 70.2 L 211 54.2 L 213.8 54.2 L 213.8 70.2 Z M 227.1 64.4 C 227.1 68.2 224.7 70.4 221.4 70.4 C 218.2 70.4 215.8 68.2 215.8 64.4 C 215.8 60.6 218.2 58.4 221.4 58.4 C 224.7 58.4 227.1 60.6 227.1 64.4 Z M 218.6 64.4 C 218.6 66.7 219.9 67.8 221.5 67.8 C 223.1 67.8 224.3 66.6 224.3 64.4 C 224.3 62.1 223 61 221.4 61 C 219.8 61 218.6 62.2 218.6 64.4 Z M 234 70.4 C 230.2 70.4 228.4 67.5 228.4 64.4 C 228.4 61.3 230.2 58.4 234 58.4 C 236.8 58.4 239 60 239.1 62.8 C 239.1 62.8 236.4 62.8 236.4 62.8 C 236.2 61.7 235.4 60.9 234.1 60.9 C 232 60.9 231.2 62.6 231.2 64.4 C 231.2 66.3 232.1 67.8 234 67.8 C 235.4 67.8 236.2 67.1 236.4 66.1 C 236.4 66.1 239.2 66.1 239.2 66.1 C 238.8 68.9 236.8 70.4 234 70.4 Z M 250.4 62.4 C 250.44 62.39 250.4 70.2 250.4 70.2 L 247.7 70.2 C 247.7 70.2 247.71 68.5 247.7 68.5 C 246.8 70 245.4 70.4 244.2 70.4 C 242.4 70.4 240.4 69.3 240.4 66.8 C 240.4 65 241.5 63.8 244.1 63.4 C 244.1 63.4 246.6 63 246.6 63 C 247.3 62.9 247.8 62.7 247.8 62 C 247.8 61 247 60.6 245.9 60.6 C 244.4 60.6 243.7 61.3 243.6 62.3 C 243.6 62.3 240.9 62.3 240.9 62.3 C 241.2 59.6 243.4 58.4 246 58.4 C 248.7 58.4 250.4 59.7 250.4 62.4 Z M 247.7 65.3 C 247.7 65.3 247.7 64.7 247.7 64.7 C 247.5 64.8 246.9 65 246.4 65 C 246.4 65 245.1 65.2 245.1 65.2 C 243.7 65.4 243.2 66 243.2 66.7 C 243.2 67.6 243.9 68.1 244.9 68.1 C 246.3 68.1 247.7 67 247.7 65.3 Z M 255.8 70.2 L 253 70.2 L 253 54.2 L 255.8 54.2 L 255.8 70.2 Z M 260.5 65.2 C 260.5 67.1 261.9 68 263.4 68 C 264.5 68 265.6 67.6 265.9 66.5 C 265.9 66.5 268.5 66.5 268.5 66.5 C 268 69.1 265.7 70.4 263.3 70.4 C 260.5 70.4 257.8 68.5 257.8 64.4 C 257.8 60.4 260.4 58.4 263.3 58.4 C 266.2 58.4 268.5 60.2 268.5 64.1 C 268.52 64.09 268.5 65.2 268.5 65.2 C 268.5 65.2 260.46 65.23 260.5 65.2 Z M 260.5 63.2 C 260.5 63.2 265.8 63.2 265.8 63.2 C 265.8 61.7 264.7 60.8 263.3 60.8 C 262 60.8 260.8 61.5 260.5 63.2 Z M 279.8 66.6 C 279.8 69.2 277.5 70.4 274.9 70.4 C 272.5 70.4 269.9 69.4 269.7 66.5 C 269.7 66.5 272.5 66.5 272.5 66.5 C 272.7 67.6 273.7 68.1 275 68.1 C 276.2 68.1 277 67.7 277 66.9 C 277 66.1 276.5 66 274.9 65.7 C 272.6 65.3 270 64.9 270 62.1 C 270 59.5 272.2 58.4 274.6 58.4 C 277.3 58.4 279.3 59.7 279.5 62.3 C 279.5 62.3 276.8 62.3 276.8 62.3 C 276.7 61.2 275.9 60.7 274.7 60.7 C 273.3 60.7 272.7 61.3 272.7 62 C 272.7 62.9 273.8 63.1 275.2 63.3 C 277.3 63.6 279.8 63.9 279.8 66.6 Z M 283.2 70 C 283.16 69.99 281.7 70 281.7 70 L 281.7 67.1 L 284.9 67.1 C 284.9 67.1 284.95 69.59 284.9 69.6 C 284.9 72.6 282.9 73.7 281 73.9 C 281 73.9 280.7 72.4 280.7 72.4 C 282.2 72.2 283.2 71.3 283.2 70 Z M 302.1 64.4 C 302.1 68.2 299.7 70.4 296.5 70.4 C 293.2 70.4 290.8 68.2 290.8 64.4 C 290.8 60.6 293.2 58.4 296.5 58.4 C 299.7 58.4 302.1 60.6 302.1 64.4 Z M 293.7 64.4 C 293.7 66.7 295 67.8 296.5 67.8 C 298.2 67.8 299.3 66.6 299.3 64.4 C 299.3 62.1 298 61 296.5 61 C 294.8 61 293.7 62.2 293.7 64.4 Z M 314.3 70.2 L 311.6 70.2 C 311.6 70.2 311.55 68.54 311.6 68.5 C 310.9 69.6 309.8 70.3 308.2 70.3 C 305.8 70.3 304 68.8 304 65.8 C 304.03 65.79 304 58.6 304 58.6 L 306.8 58.6 C 306.8 58.6 306.83 65.58 306.8 65.6 C 306.8 67.2 307.6 67.8 308.8 67.8 C 310.4 67.8 311.5 66.9 311.5 64.2 C 311.49 64.2 311.5 58.6 311.5 58.6 L 314.3 58.6 L 314.3 70.2 Z " stroke="none" fill="#000"/>  </g>  <g id="Polygon10780">    <path d="M 7.2 45 L 4.3 45 L 0 33.4 L 3 33.4 L 5.8 41.7 L 8.7 33.4 L 11.6 33.4 L 7.2 45 Z M 23.3 39.2 C 23.3 43 20.9 45.2 17.6 45.2 C 14.4 45.2 12 43 12 39.2 C 12 35.4 14.4 33.2 17.6 33.2 C 20.9 33.2 23.3 35.4 23.3 39.2 Z M 14.8 39.2 C 14.8 41.5 16.1 42.6 17.7 42.6 C 19.3 42.6 20.4 41.4 20.4 39.2 C 20.4 36.9 19.2 35.8 17.6 35.8 C 15.9 35.8 14.8 37 14.8 39.2 Z M 35 33.4 C 35 33.4 29.97 46.72 30 46.7 C 29.4 48.1 28.3 48.7 26.7 48.7 C 26.69 48.68 24.9 48.7 24.9 48.7 L 24.9 46.2 C 24.9 46.2 26.21 46.2 26.2 46.2 C 27.1 46.2 27.6 45.9 27.9 45.1 C 27.87 45.07 28.1 44.5 28.1 44.5 L 23.7 33.4 L 26.7 33.4 L 29.4 41 L 32.1 33.4 L 35 33.4 Z M 38.1 40 C 38.2 41.9 39.5 42.8 41.1 42.8 C 42.2 42.8 43.3 42.4 43.6 41.3 C 43.6 41.3 46.2 41.3 46.2 41.3 C 45.7 43.9 43.4 45.2 41 45.2 C 38.2 45.2 35.4 43.3 35.4 39.2 C 35.4 35.2 38.1 33.2 41 33.2 C 43.8 33.2 46.2 35 46.2 38.9 C 46.2 38.89 46.2 40 46.2 40 C 46.2 40 38.14 40.03 38.1 40 Z M 38.2 38 C 38.2 38 43.5 38 43.5 38 C 43.5 36.5 42.4 35.6 41 35.6 C 39.7 35.6 38.5 36.3 38.2 38 Z M 57 45 L 47.3 45 L 47.3 42.5 L 53.5 35.8 L 47.4 35.8 L 47.4 33.4 L 57.1 33.4 L 57.1 35.8 L 50.8 42.5 L 57 42.5 L 57 45 Z M 65.4 37.1 L 58.9 37.1 L 58.9 39.6 L 65.4 39.6 L 65.4 37.1 Z M 73.7 45 L 70.7 45 L 66.5 33.4 L 69.4 33.4 L 72.3 41.7 L 75.1 33.4 L 78 33.4 L 73.7 45 Z M 89.8 39.2 C 89.8 43 87.3 45.2 84.1 45.2 C 80.8 45.2 78.4 43 78.4 39.2 C 78.4 35.4 80.8 33.2 84.1 33.2 C 87.3 33.2 89.8 35.4 89.8 39.2 Z M 81.3 39.2 C 81.3 41.5 82.6 42.6 84.1 42.6 C 85.8 42.6 86.9 41.4 86.9 39.2 C 86.9 36.9 85.6 35.8 84.1 35.8 C 82.4 35.8 81.3 37 81.3 39.2 Z M 101.9 45 L 99.2 45 C 99.2 45 99.16 43.34 99.2 43.3 C 98.5 44.4 97.4 45.1 95.8 45.1 C 93.4 45.1 91.6 43.6 91.6 40.6 C 91.64 40.59 91.6 33.4 91.6 33.4 L 94.4 33.4 C 94.4 33.4 94.44 40.38 94.4 40.4 C 94.4 42 95.2 42.6 96.4 42.6 C 98 42.6 99.1 41.7 99.1 39 C 99.1 39 99.1 33.4 99.1 33.4 L 101.9 33.4 L 101.9 45 Z M 113.9 41.4 C 113.9 44 111.6 45.2 109 45.2 C 106.6 45.2 104 44.2 103.8 41.3 C 103.8 41.3 106.6 41.3 106.6 41.3 C 106.8 42.4 107.8 42.9 109.1 42.9 C 110.3 42.9 111.1 42.5 111.1 41.7 C 111.1 40.9 110.6 40.8 109 40.5 C 106.7 40.1 104.1 39.7 104.1 36.9 C 104.1 34.3 106.3 33.2 108.7 33.2 C 111.4 33.2 113.4 34.5 113.6 37.1 C 113.6 37.1 110.9 37.1 110.9 37.1 C 110.8 36 110 35.5 108.8 35.5 C 107.4 35.5 106.8 36.1 106.8 36.8 C 106.8 37.7 107.9 37.9 109.3 38.1 C 111.4 38.4 113.9 38.7 113.9 41.4 Z M 131.2 45 L 128.5 45 C 128.5 45 128.52 43.2 128.5 43.2 C 127.9 44.5 126.5 45.2 124.9 45.2 C 122.2 45.2 119.9 43.2 119.9 39.2 C 119.9 35.2 122.2 33.2 124.9 33.2 C 126.5 33.2 127.8 33.8 128.5 34.9 C 128.46 34.92 128.5 29 128.5 29 L 131.2 29 L 131.2 45 Z M 128.5 39.2 C 128.5 36.8 127.1 35.7 125.6 35.7 C 124.1 35.7 122.7 36.8 122.7 39.2 C 122.7 41.5 124.1 42.7 125.6 42.7 C 127.1 42.7 128.5 41.5 128.5 39.2 Z M 136 40 C 136 41.9 137.4 42.8 138.9 42.8 C 140 42.8 141.1 42.4 141.4 41.3 C 141.4 41.3 144 41.3 144 41.3 C 143.5 43.9 141.2 45.2 138.8 45.2 C 136 45.2 133.2 43.3 133.2 39.2 C 133.2 35.2 135.9 33.2 138.8 33.2 C 141.6 33.2 144 35 144 38.9 C 144.02 38.89 144 40 144 40 C 144 40 135.95 40.03 136 40 Z M 136 38 C 136 38 141.3 38 141.3 38 C 141.3 36.5 140.2 35.6 138.8 35.6 C 137.5 35.6 136.3 36.3 136 38 Z M 155.3 41.4 C 155.3 44 153 45.2 150.4 45.2 C 148 45.2 145.4 44.2 145.2 41.3 C 145.2 41.3 148 41.3 148 41.3 C 148.2 42.4 149.2 42.9 150.5 42.9 C 151.7 42.9 152.5 42.5 152.5 41.7 C 152.5 40.9 152 40.8 150.4 40.5 C 148.1 40.1 145.5 39.7 145.5 36.9 C 145.5 34.3 147.7 33.2 150.1 33.2 C 152.8 33.2 154.8 34.5 155 37.1 C 155 37.1 152.3 37.1 152.3 37.1 C 152.2 36 151.3 35.5 150.2 35.5 C 148.8 35.5 148.2 36.1 148.2 36.8 C 148.2 37.7 149.3 37.9 150.7 38.1 C 152.8 38.4 155.3 38.7 155.3 41.4 Z M 172.6 39.2 C 172.6 43 170.2 45.2 166.9 45.2 C 163.7 45.2 161.3 43 161.3 39.2 C 161.3 35.4 163.7 33.2 166.9 33.2 C 170.2 33.2 172.6 35.4 172.6 39.2 Z M 164.1 39.2 C 164.1 41.5 165.4 42.6 166.9 42.6 C 168.6 42.6 169.7 41.4 169.7 39.2 C 169.7 36.9 168.4 35.8 166.9 35.8 C 165.2 35.8 164.1 37 164.1 39.2 Z M 186 39 C 186 43.2 183.4 45.1 180.6 45.1 C 179.1 45.1 178 44.4 177.4 43.6 C 177.37 43.6 177.4 49.3 177.4 49.3 L 174.6 49.3 L 174.6 33.4 L 177.3 33.4 C 177.3 33.4 177.3 35.24 177.3 35.2 C 177.9 34 179.2 33.2 180.9 33.2 C 183.6 33.2 186 35.1 186 39 Z M 183.1 39.2 C 183.1 36.8 181.7 35.7 180.2 35.7 C 178.7 35.7 177.3 36.8 177.3 39.2 C 177.3 41.5 178.7 42.6 180.2 42.6 C 181.7 42.6 183.1 41.5 183.1 39.2 Z M 199.3 39 C 199.3 43.2 196.7 45.1 194 45.1 C 192.5 45.1 191.4 44.4 190.7 43.6 C 190.74 43.6 190.7 49.3 190.7 49.3 L 187.9 49.3 L 187.9 33.4 L 190.7 33.4 C 190.7 33.4 190.68 35.24 190.7 35.2 C 191.3 34 192.6 33.2 194.3 33.2 C 197 33.2 199.3 35.1 199.3 39 Z M 196.5 39.2 C 196.5 36.8 195.1 35.7 193.6 35.7 C 192.1 35.7 190.7 36.8 190.7 39.2 C 190.7 41.5 192.1 42.6 193.6 42.6 C 195.1 42.6 196.5 41.5 196.5 39.2 Z M 211.9 39.2 C 211.9 43 209.5 45.2 206.2 45.2 C 203 45.2 200.6 43 200.6 39.2 C 200.6 35.4 203 33.2 206.2 33.2 C 209.5 33.2 211.9 35.4 211.9 39.2 Z M 203.4 39.2 C 203.4 41.5 204.7 42.6 206.3 42.6 C 207.9 42.6 209.1 41.4 209.1 39.2 C 209.1 36.9 207.8 35.8 206.2 35.8 C 204.6 35.8 203.4 37 203.4 39.2 Z M 220.5 36 C 220.5 36 219.72 35.97 219.7 36 C 217.8 36 216.7 37 216.7 39.3 C 216.7 39.31 216.7 45 216.7 45 L 213.9 45 L 213.9 33.4 L 216.7 33.4 C 216.7 33.4 216.68 35.05 216.7 35 C 217.3 33.8 218.3 33.3 219.7 33.3 C 219.7 33.26 220.5 33.3 220.5 33.3 L 220.5 36 Z M 228.2 45 C 228.2 45 226.34 44.98 226.3 45 C 224.2 45 222.8 44.3 222.8 41.2 C 222.79 41.2 222.8 35.9 222.8 35.9 L 220.7 35.9 L 220.7 33.4 L 222.8 33.4 L 222.8 30.8 L 225.6 30 L 225.6 33.4 L 227.9 33.4 L 227.9 35.9 L 225.6 35.9 C 225.6 35.9 225.58 41.33 225.6 41.3 C 225.6 42 225.8 42.5 226.8 42.5 C 226.76 42.5 228.2 42.5 228.2 42.5 L 228.2 45 Z M 239.9 45 L 237.2 45 C 237.2 45 237.15 43.34 237.2 43.3 C 236.5 44.4 235.4 45.1 233.8 45.1 C 231.4 45.1 229.6 43.6 229.6 40.6 C 229.63 40.59 229.6 33.4 229.6 33.4 L 232.4 33.4 C 232.4 33.4 232.43 40.38 232.4 40.4 C 232.4 42 233.2 42.6 234.4 42.6 C 236 42.6 237.1 41.7 237.1 39 C 237.09 39 237.1 33.4 237.1 33.4 L 239.9 33.4 L 239.9 45 Z M 252.8 37.5 C 252.8 37.51 252.8 45 252.8 45 L 250 45 C 250 45 250 37.76 250 37.8 C 250 36.5 249.3 35.7 248 35.7 C 246.4 35.7 245.4 36.8 245.4 38.7 C 245.4 38.72 245.4 45 245.4 45 L 242.6 45 L 242.6 33.4 L 245.4 33.4 C 245.4 33.4 245.38 35.07 245.4 35.1 C 246 34 247 33.2 248.9 33.2 C 251.6 33.2 252.8 34.7 252.8 37.5 Z M 255.3 31.9 L 258.3 31.9 L 258.3 28.7 L 255.3 28.7 L 255.3 31.9 Z M 255.4 33.4 L 258.2 33.4 L 258.2 45 L 255.4 45 L 255.4 33.4 Z M 266.8 45 C 266.8 45 265 44.98 265 45 C 262.8 45 261.4 44.3 261.4 41.2 C 261.45 41.2 261.4 35.9 261.4 35.9 L 259.3 35.9 L 259.3 33.4 L 261.4 33.4 L 261.4 30.8 L 264.2 30 L 264.2 33.4 L 266.6 33.4 L 266.6 35.9 L 264.2 35.9 C 264.2 35.9 264.24 41.33 264.2 41.3 C 264.2 42 264.4 42.5 265.4 42.5 C 265.42 42.5 266.8 42.5 266.8 42.5 L 266.8 45 Z M 272 31.3 L 275.2 26.3 L 277.4 28 L 274.4 31.3 L 272 31.3 Z M 270.4 40 C 270.4 41.9 271.8 42.8 273.4 42.8 C 274.4 42.8 275.5 42.4 275.8 41.3 C 275.8 41.3 278.4 41.3 278.4 41.3 C 277.9 43.9 275.6 45.2 273.2 45.2 C 270.4 45.2 267.7 43.3 267.7 39.2 C 267.7 35.2 270.3 33.2 273.2 33.2 C 276.1 33.2 278.4 35 278.4 38.9 C 278.44 38.89 278.4 40 278.4 40 C 278.4 40 270.37 40.03 270.4 40 Z M 270.4 38 C 270.4 38 275.7 38 275.7 38 C 275.7 36.5 274.6 35.6 273.2 35.6 C 271.9 35.6 270.7 36.3 270.4 38 Z M 289.7 41.4 C 289.7 44 287.4 45.2 284.8 45.2 C 282.4 45.2 279.8 44.2 279.6 41.3 C 279.6 41.3 282.4 41.3 282.4 41.3 C 282.6 42.4 283.6 42.9 284.9 42.9 C 286.1 42.9 286.9 42.5 286.9 41.7 C 286.9 40.9 286.4 40.8 284.8 40.5 C 282.5 40.1 279.9 39.7 279.9 36.9 C 279.9 34.3 282.2 33.2 284.5 33.2 C 287.3 33.2 289.3 34.5 289.4 37.1 C 289.4 37.1 286.7 37.1 286.7 37.1 C 286.6 36 285.8 35.5 284.6 35.5 C 283.2 35.5 282.7 36.1 282.7 36.8 C 282.7 37.7 283.7 37.9 285.1 38.1 C 287.2 38.4 289.7 38.7 289.7 41.4 Z M 299.6 39.4 C 299.6 36.7 300.9 36.2 302.2 35.3 C 303.2 34.6 303.7 34 303.7 33.2 C 303.7 32 302.8 31.4 301.6 31.4 C 300.1 31.4 299.2 32.2 299.1 33.6 C 299.1 33.6 296.3 33.6 296.3 33.6 C 296.6 30.2 299 29 301.6 29 C 304.4 29 306.6 30.3 306.6 33.1 C 306.6 35.3 305.3 36.2 303.8 37.2 C 302.8 38 302.3 38.5 302.3 39.4 C 302.27 39.44 302.3 40.1 302.3 40.1 L 299.6 40.1 C 299.6 40.1 299.6 39.35 299.6 39.4 Z M 299.4 41.7 L 302.5 41.7 L 302.5 45 L 299.4 45 L 299.4 41.7 Z M 327.9 36.8 C 327.9 40.8 325.2 45 319.5 45 C 319.51 44.98 314.7 45 314.7 45 L 314.7 29.2 C 314.7 29.2 319.89 29.23 319.9 29.2 C 325.3 29.2 327.9 32.9 327.9 36.8 Z M 325 36.8 C 325 34.3 323.4 32 320 32 C 319.99 31.96 317.6 32 317.6 32 L 317.6 42.2 C 317.6 42.2 319.55 42.23 319.6 42.2 C 323.2 42.2 325 39.5 325 36.8 Z M 339.4 37.2 C 339.38 37.19 339.4 45 339.4 45 L 336.6 45 C 336.6 45 336.65 43.3 336.6 43.3 C 335.7 44.8 334.4 45.2 333.1 45.2 C 331.3 45.2 329.4 44.1 329.4 41.6 C 329.4 39.8 330.4 38.6 333.1 38.2 C 333.1 38.2 335.6 37.8 335.6 37.8 C 336.3 37.7 336.8 37.5 336.8 36.8 C 336.8 35.8 335.9 35.4 334.8 35.4 C 333.3 35.4 332.6 36.1 332.5 37.1 C 332.5 37.1 329.8 37.1 329.8 37.1 C 330.1 34.4 332.3 33.2 334.9 33.2 C 337.7 33.2 339.4 34.5 339.4 37.2 Z M 336.7 40.1 C 336.7 40.1 336.7 39.5 336.7 39.5 C 336.4 39.6 335.9 39.8 335.3 39.8 C 335.3 39.8 334 40 334 40 C 332.6 40.2 332.2 40.8 332.2 41.5 C 332.2 42.4 332.8 42.9 333.8 42.9 C 335.2 42.9 336.7 41.8 336.7 40.1 Z M 352.1 37.5 C 352.08 37.51 352.1 45 352.1 45 L 349.3 45 C 349.3 45 349.29 37.76 349.3 37.8 C 349.3 36.5 348.6 35.7 347.3 35.7 C 345.7 35.7 344.7 36.8 344.7 38.7 C 344.69 38.72 344.7 45 344.7 45 L 341.9 45 L 341.9 33.4 L 344.7 33.4 C 344.7 33.4 344.67 35.07 344.7 35.1 C 345.3 34 346.3 33.2 348.2 33.2 C 350.8 33.2 352.1 34.7 352.1 37.5 Z M 364 41.4 C 364 44 361.7 45.2 359.1 45.2 C 356.7 45.2 354.1 44.2 353.9 41.3 C 353.9 41.3 356.7 41.3 356.7 41.3 C 356.9 42.4 357.9 42.9 359.2 42.9 C 360.4 42.9 361.2 42.5 361.2 41.7 C 361.2 40.9 360.7 40.8 359.1 40.5 C 356.8 40.1 354.2 39.7 354.2 36.9 C 354.2 34.3 356.4 33.2 358.8 33.2 C 361.5 33.2 363.5 34.5 363.7 37.1 C 363.7 37.1 361 37.1 361 37.1 C 360.9 36 360 35.5 358.9 35.5 C 357.5 35.5 356.9 36.1 356.9 36.8 C 356.9 37.7 358 37.9 359.4 38.1 C 361.4 38.4 364 38.7 364 41.4 Z " stroke="none" fill="#000"/>  </g>  <g id="Polygon10779">    <path d="M 14.8 11.6 C 14.8 15.6 12.1 19.8 6.4 19.8 C 6.4 19.78 1.6 19.8 1.6 19.8 L 1.6 4 C 1.6 4 6.78 4.03 6.8 4 C 12.2 4 14.8 7.7 14.8 11.6 Z M 11.9 11.6 C 11.9 9.1 10.3 6.8 6.9 6.8 C 6.89 6.76 4.5 6.8 4.5 6.8 L 4.5 17 C 4.5 17 6.45 17.03 6.4 17 C 10.1 17 11.9 14.3 11.9 11.6 Z M 26.3 12 C 26.27 11.99 26.3 19.8 26.3 19.8 L 23.5 19.8 C 23.5 19.8 23.54 18.1 23.5 18.1 C 22.6 19.6 21.3 20 20 20 C 18.2 20 16.3 18.9 16.3 16.4 C 16.3 14.6 17.3 13.4 20 13 C 20 13 22.5 12.6 22.5 12.6 C 23.2 12.5 23.6 12.3 23.6 11.6 C 23.6 10.6 22.8 10.2 21.7 10.2 C 20.2 10.2 19.5 10.9 19.4 11.9 C 19.4 11.9 16.7 11.9 16.7 11.9 C 17 9.2 19.2 8 21.8 8 C 24.5 8 26.3 9.3 26.3 12 Z M 23.6 14.9 C 23.6 14.9 23.6 14.3 23.6 14.3 C 23.3 14.4 22.8 14.6 22.2 14.6 C 22.2 14.6 20.9 14.8 20.9 14.8 C 19.5 15 19.1 15.6 19.1 16.3 C 19.1 17.2 19.7 17.7 20.7 17.7 C 22.1 17.7 23.6 16.6 23.6 14.9 Z M 39 12.3 C 38.98 12.31 39 19.8 39 19.8 L 36.2 19.8 C 36.2 19.8 36.18 12.56 36.2 12.6 C 36.2 11.3 35.4 10.5 34.1 10.5 C 32.5 10.5 31.6 11.6 31.6 13.5 C 31.58 13.52 31.6 19.8 31.6 19.8 L 28.8 19.8 L 28.8 8.2 L 31.6 8.2 C 31.6 8.2 31.56 9.87 31.6 9.9 C 32.2 8.8 33.2 8 35.1 8 C 37.7 8 39 9.5 39 12.3 Z M 50.9 16.2 C 50.9 18.8 48.6 20 45.9 20 C 43.6 20 40.9 19 40.8 16.1 C 40.8 16.1 43.6 16.1 43.6 16.1 C 43.8 17.2 44.8 17.7 46.1 17.7 C 47.3 17.7 48.1 17.3 48.1 16.5 C 48.1 15.7 47.6 15.6 46 15.3 C 43.7 14.9 41.1 14.5 41.1 11.7 C 41.1 9.1 43.3 8 45.7 8 C 48.4 8 50.4 9.3 50.6 11.9 C 50.6 11.9 47.9 11.9 47.9 11.9 C 47.8 10.8 46.9 10.3 45.8 10.3 C 44.4 10.3 43.8 10.9 43.8 11.6 C 43.8 12.5 44.9 12.7 46.3 12.9 C 48.3 13.2 50.9 13.5 50.9 16.2 Z M 60.8 19.8 L 58 19.8 L 58 3.8 L 60.8 3.8 L 60.8 19.8 Z M 65.5 14.8 C 65.6 16.7 66.9 17.6 68.5 17.6 C 69.6 17.6 70.6 17.2 71 16.1 C 71 16.1 73.5 16.1 73.5 16.1 C 73 18.7 70.7 20 68.4 20 C 65.6 20 62.8 18.1 62.8 14 C 62.8 10 65.4 8 68.4 8 C 71.2 8 73.6 9.8 73.6 13.7 C 73.56 13.69 73.6 14.8 73.6 14.8 C 73.6 14.8 65.5 14.83 65.5 14.8 Z M 65.6 12.8 C 65.6 12.8 70.8 12.8 70.8 12.8 C 70.8 11.3 69.8 10.4 68.3 10.4 C 67.1 10.4 65.8 11.1 65.6 12.8 Z M 84.8 16.2 C 84.8 18.8 82.5 20 79.9 20 C 77.5 20 74.9 19 74.7 16.1 C 74.7 16.1 77.5 16.1 77.5 16.1 C 77.7 17.2 78.7 17.7 80.1 17.7 C 81.2 17.7 82.1 17.3 82.1 16.5 C 82.1 15.7 81.5 15.6 79.9 15.3 C 77.7 14.9 75.1 14.5 75.1 11.7 C 75.1 9.1 77.3 8 79.7 8 C 82.4 8 84.4 9.3 84.5 11.9 C 84.5 11.9 81.8 11.9 81.8 11.9 C 81.7 10.8 80.9 10.3 79.7 10.3 C 78.3 10.3 77.8 10.9 77.8 11.6 C 77.8 12.5 78.8 12.7 80.2 12.9 C 82.3 13.2 84.8 13.5 84.8 16.2 Z M 108.3 12 C 108.32 11.97 108.3 19.8 108.3 19.8 L 105.5 19.8 C 105.5 19.8 105.52 12.52 105.5 12.5 C 105.5 11.1 104.9 10.5 103.7 10.5 C 102.4 10.5 101.5 11.3 101.5 13.3 C 101.53 13.27 101.5 19.8 101.5 19.8 L 98.7 19.8 C 98.7 19.8 98.74 12.52 98.7 12.5 C 98.7 11.1 98 10.5 96.9 10.5 C 95.6 10.5 94.8 11.3 94.8 13.3 C 94.75 13.25 94.8 19.8 94.8 19.8 L 92 19.8 L 92 8.2 L 94.7 8.2 C 94.7 8.2 94.71 9.89 94.7 9.9 C 95.1 9 95.9 8 97.7 8 C 99.2 8 100.4 8.7 100.9 9.9 C 101.3 9.1 102.2 8 104.3 8 C 106.7 8 108.3 9.5 108.3 12 Z M 120.2 12 C 120.2 11.99 120.2 19.8 120.2 19.8 L 117.5 19.8 C 117.5 19.8 117.47 18.1 117.5 18.1 C 116.6 19.6 115.2 20 114 20 C 112.1 20 110.2 18.9 110.2 16.4 C 110.2 14.6 111.2 13.4 113.9 13 C 113.9 13 116.4 12.6 116.4 12.6 C 117.1 12.5 117.6 12.3 117.6 11.6 C 117.6 10.6 116.7 10.2 115.6 10.2 C 114.1 10.2 113.5 10.9 113.4 11.9 C 113.4 11.9 110.7 11.9 110.7 11.9 C 111 9.2 113.1 8 115.8 8 C 118.5 8 120.2 9.3 120.2 12 Z M 117.5 14.9 C 117.5 14.9 117.5 14.3 117.5 14.3 C 117.2 14.4 116.7 14.6 116.1 14.6 C 116.1 14.6 114.9 14.8 114.9 14.8 C 113.5 15 113 15.6 113 16.3 C 113 17.2 113.7 17.7 114.6 17.7 C 116.1 17.7 117.5 16.6 117.5 14.9 Z M 129.3 10.8 C 129.3 10.8 128.54 10.77 128.5 10.8 C 126.6 10.8 125.5 11.8 125.5 14.1 C 125.52 14.11 125.5 19.8 125.5 19.8 L 122.7 19.8 L 122.7 8.2 L 125.5 8.2 C 125.5 8.2 125.49 9.85 125.5 9.8 C 126.1 8.6 127.2 8.1 128.5 8.1 C 128.52 8.06 129.3 8.1 129.3 8.1 L 129.3 10.8 Z M 135.3 20 C 131.5 20 129.7 17.1 129.7 14 C 129.7 10.9 131.5 8 135.3 8 C 138.2 8 140.3 9.6 140.4 12.4 C 140.4 12.4 137.7 12.4 137.7 12.4 C 137.5 11.3 136.8 10.5 135.4 10.5 C 133.3 10.5 132.5 12.2 132.5 14 C 132.5 15.9 133.4 17.4 135.4 17.4 C 136.7 17.4 137.5 16.7 137.7 15.7 C 137.7 15.7 140.5 15.7 140.5 15.7 C 140.1 18.5 138.1 20 135.3 20 Z M 152.7 12.3 C 152.69 12.31 152.7 19.8 152.7 19.8 L 149.9 19.8 C 149.9 19.8 149.9 12.56 149.9 12.6 C 149.9 11.3 149.2 10.5 147.9 10.5 C 146.3 10.5 145.3 11.6 145.3 13.5 C 145.3 13.52 145.3 19.8 145.3 19.8 L 142.5 19.8 L 142.5 3.8 L 145.3 3.8 C 145.3 3.8 145.3 9.83 145.3 9.8 C 146 8.7 147 8 148.8 8 C 151.5 8 152.7 9.5 152.7 12.3 Z M 158.9 6.1 L 162.1 1.1 L 164.3 2.8 L 161.3 6.1 L 158.9 6.1 Z M 157.3 14.8 C 157.4 16.7 158.7 17.6 160.3 17.6 C 161.4 17.6 162.4 17.2 162.7 16.1 C 162.7 16.1 165.3 16.1 165.3 16.1 C 164.8 18.7 162.5 20 160.1 20 C 157.4 20 154.6 18.1 154.6 14 C 154.6 10 157.2 8 160.2 8 C 163 8 165.4 9.8 165.4 13.7 C 165.35 13.69 165.4 14.8 165.4 14.8 C 165.4 14.8 157.29 14.83 157.3 14.8 Z M 157.4 12.8 C 157.4 12.8 162.6 12.8 162.6 12.8 C 162.6 11.3 161.6 10.4 160.1 10.4 C 158.8 10.4 157.6 11.1 157.4 12.8 Z M 176.6 16.2 C 176.6 18.8 174.3 20 171.7 20 C 169.3 20 166.7 19 166.5 16.1 C 166.5 16.1 169.3 16.1 169.3 16.1 C 169.5 17.2 170.5 17.7 171.8 17.7 C 173 17.7 173.9 17.3 173.9 16.5 C 173.9 15.7 173.3 15.6 171.7 15.3 C 169.4 14.9 166.9 14.5 166.9 11.7 C 166.9 9.1 169.1 8 171.5 8 C 174.2 8 176.2 9.3 176.3 11.9 C 176.3 11.9 173.6 11.9 173.6 11.9 C 173.5 10.8 172.7 10.3 171.5 10.3 C 170.1 10.3 169.6 10.9 169.6 11.6 C 169.6 12.5 170.6 12.7 172 12.9 C 174.1 13.2 176.6 13.5 176.6 16.2 Z M 186.9 6.1 L 190.1 1.1 L 192.3 2.8 L 189.3 6.1 L 186.9 6.1 Z M 185.3 14.8 C 185.4 16.7 186.7 17.6 188.3 17.6 C 189.4 17.6 190.4 17.2 190.8 16.1 C 190.8 16.1 193.3 16.1 193.3 16.1 C 192.8 18.7 190.5 20 188.2 20 C 185.4 20 182.6 18.1 182.6 14 C 182.6 10 185.2 8 188.2 8 C 191 8 193.4 9.8 193.4 13.7 C 193.37 13.69 193.4 14.8 193.4 14.8 C 193.4 14.8 185.3 14.83 185.3 14.8 Z M 185.4 12.8 C 185.4 12.8 190.6 12.8 190.6 12.8 C 190.6 11.3 189.6 10.4 188.1 10.4 C 186.9 10.4 185.6 11.1 185.4 12.8 Z M 211.7 12 C 211.72 11.97 211.7 19.8 211.7 19.8 L 208.9 19.8 C 208.9 19.8 208.93 12.52 208.9 12.5 C 208.9 11.1 208.3 10.5 207.1 10.5 C 205.8 10.5 204.9 11.3 204.9 13.3 C 204.94 13.27 204.9 19.8 204.9 19.8 L 202.1 19.8 C 202.1 19.8 202.14 12.52 202.1 12.5 C 202.1 11.1 201.5 10.5 200.3 10.5 C 199 10.5 198.2 11.3 198.2 13.3 C 198.15 13.25 198.2 19.8 198.2 19.8 L 195.4 19.8 L 195.4 8.2 L 198.1 8.2 C 198.1 8.2 198.11 9.89 198.1 9.9 C 198.5 9 199.4 8 201.1 8 C 202.6 8 203.8 8.7 204.3 9.9 C 204.7 9.1 205.6 8 207.7 8 C 210.1 8 211.7 9.5 211.7 12 Z M 216.3 14.8 C 216.4 16.7 217.7 17.6 219.3 17.6 C 220.4 17.6 221.4 17.2 221.8 16.1 C 221.8 16.1 224.3 16.1 224.3 16.1 C 223.8 18.7 221.5 20 219.2 20 C 216.4 20 213.6 18.1 213.6 14 C 213.6 10 216.2 8 219.2 8 C 222 8 224.4 9.8 224.4 13.7 C 224.38 13.69 224.4 14.8 224.4 14.8 C 224.4 14.8 216.32 14.83 216.3 14.8 Z M 216.4 12.8 C 216.4 12.8 221.7 12.8 221.7 12.8 C 221.7 11.3 220.6 10.4 219.2 10.4 C 217.9 10.4 216.6 11.1 216.4 12.8 Z M 232.9 10.8 C 232.9 10.8 232.19 10.77 232.2 10.8 C 230.2 10.8 229.2 11.8 229.2 14.1 C 229.17 14.11 229.2 19.8 229.2 19.8 L 226.4 19.8 L 226.4 8.2 L 229.1 8.2 C 229.1 8.2 229.15 9.85 229.1 9.8 C 229.7 8.6 230.8 8.1 232.2 8.1 C 232.17 8.06 232.9 8.1 232.9 8.1 L 232.9 10.8 Z M 244.5 19 C 244.5 22.7 242.1 24.4 239 24.4 C 236.2 24.4 233.9 23 233.5 20.1 C 233.5 20.1 236.2 20.1 236.2 20.1 C 236.5 21.6 237.7 22 239 22 C 240.8 22 241.8 21.1 241.8 19.3 C 241.8 19.3 241.8 17.4 241.8 17.4 C 241.3 18.6 240.2 19.4 238.4 19.4 C 235.8 19.4 233.3 17.6 233.3 13.7 C 233.3 9.8 235.8 8 238.4 8 C 240.1 8 241.2 8.7 241.8 9.8 C 241.83 9.81 241.8 8.2 241.8 8.2 L 244.5 8.2 C 244.5 8.2 244.52 19 244.5 19 Z M 241.7 13.7 C 241.7 11.5 240.5 10.4 239 10.4 C 237.5 10.4 236.1 11.5 236.1 13.7 C 236.1 15.9 237.5 16.9 239 16.9 C 240.5 16.9 241.7 15.9 241.7 13.7 Z M 249.1 14.8 C 249.2 16.7 250.5 17.6 252.1 17.6 C 253.2 17.6 254.2 17.2 254.6 16.1 C 254.6 16.1 257.1 16.1 257.1 16.1 C 256.6 18.7 254.3 20 252 20 C 249.2 20 246.4 18.1 246.4 14 C 246.4 10 249 8 252 8 C 254.8 8 257.2 9.8 257.2 13.7 C 257.18 13.69 257.2 14.8 257.2 14.8 C 257.2 14.8 249.12 14.83 249.1 14.8 Z M 249.2 12.8 C 249.2 12.8 254.5 12.8 254.5 12.8 C 254.5 11.3 253.4 10.4 252 10.4 C 250.7 10.4 249.4 11.1 249.2 12.8 Z M 269.4 12.3 C 269.36 12.31 269.4 19.8 269.4 19.8 L 266.6 19.8 C 266.6 19.8 266.57 12.56 266.6 12.6 C 266.6 11.3 265.8 10.5 264.5 10.5 C 262.9 10.5 262 11.6 262 13.5 C 261.97 13.52 262 19.8 262 19.8 L 259.2 19.8 L 259.2 8.2 L 262 8.2 C 262 8.2 261.95 9.87 262 9.9 C 262.6 8.8 263.5 8 265.5 8 C 268.1 8 269.4 9.5 269.4 12.3 Z M 277.9 19.8 C 277.9 19.8 276.08 19.78 276.1 19.8 C 273.9 19.8 272.5 19.1 272.5 16 C 272.54 16 272.5 10.7 272.5 10.7 L 270.4 10.7 L 270.4 8.2 L 272.5 8.2 L 272.5 5.6 L 275.3 4.8 L 275.3 8.2 L 277.6 8.2 L 277.6 10.7 L 275.3 10.7 C 275.3 10.7 275.33 16.13 275.3 16.1 C 275.3 16.8 275.5 17.3 276.5 17.3 C 276.5 17.3 277.9 17.3 277.9 17.3 L 277.9 19.8 Z M 288.7 16.2 C 288.7 18.8 286.4 20 283.8 20 C 281.4 20 278.8 19 278.6 16.1 C 278.6 16.1 281.5 16.1 281.5 16.1 C 281.6 17.2 282.7 17.7 284 17.7 C 285.2 17.7 286 17.3 286 16.5 C 286 15.7 285.5 15.6 283.9 15.3 C 281.6 14.9 279 14.5 279 11.7 C 279 9.1 281.2 8 283.6 8 C 286.3 8 288.3 9.3 288.5 11.9 C 288.5 11.9 285.7 11.9 285.7 11.9 C 285.6 10.8 284.8 10.3 283.6 10.3 C 282.3 10.3 281.7 10.9 281.7 11.6 C 281.7 12.5 282.7 12.7 284.1 12.9 C 286.2 13.2 288.7 13.5 288.7 16.2 Z M 292.1 19.6 C 292.13 19.59 290.7 19.6 290.7 19.6 L 290.7 16.7 L 293.9 16.7 C 293.9 16.7 293.91 19.19 293.9 19.2 C 293.9 22.2 291.9 23.3 290 23.5 C 290 23.5 289.7 22 289.7 22 C 291.2 21.8 292.1 20.9 292.1 19.6 Z M 311.1 14 C 311.1 17.8 308.7 20 305.4 20 C 302.2 20 299.8 17.8 299.8 14 C 299.8 10.2 302.2 8 305.4 8 C 308.7 8 311.1 10.2 311.1 14 Z M 302.6 14 C 302.6 16.3 303.9 17.4 305.5 17.4 C 307.1 17.4 308.3 16.2 308.3 14 C 308.3 11.7 307 10.6 305.4 10.6 C 303.8 10.6 302.6 11.8 302.6 14 Z M 314.1 2.8 L 316.3 1.1 L 319.5 6.1 L 317.1 6.1 L 314.1 2.8 Z M 323.3 19.8 L 320.5 19.8 C 320.5 19.8 320.52 18.14 320.5 18.1 C 319.8 19.2 318.8 19.9 317.2 19.9 C 314.8 19.9 313 18.4 313 15.4 C 313 15.39 313 8.2 313 8.2 L 315.8 8.2 C 315.8 8.2 315.8 15.18 315.8 15.2 C 315.8 16.8 316.6 17.4 317.8 17.4 C 319.3 17.4 320.5 16.5 320.5 13.8 C 320.46 13.8 320.5 8.2 320.5 8.2 L 323.3 8.2 L 323.3 19.8 Z " stroke="none" fill="#000"/>  </g></svg>