<?xml version="1.0" standalone="no"?><!DOCTYPE svg PUBLIC "-//W3C//DTD SVG 1.1//EN" "http://www.w3.org/Graphics/SVG/1.1/DTD/svg11.dtd"><svg xmlns="http://www.w3.org/2000/svg" version="1.1" width="368.3px" height="264.4px" viewBox="0 0 368.3 264.4">  <desc>Qu te de rendement et fortes convictions Nos investissements se fondent sur de fortes convictions et non sur des indi</desc>  <defs/>  <g id="Polygon11857">    <path d="M 11.4 230.9 C 11.4 234.3 9.2 236 6.3 236 C 3.8 236 1.6 234.7 1.2 232.1 C 1.2 232.1 2.8 232.1 2.8 232.1 C 3 233.5 4 234.7 6.3 234.7 C 8.4 234.7 9.9 233.6 9.9 231 C 9.9 231 9.9 228.7 9.9 228.7 C 9.1 230.4 7.4 231 5.9 231 C 3.2 231 0.9 229.1 0.9 225.4 C 0.9 221.7 3.3 219.9 6 219.9 C 7.8 219.9 9.2 220.7 9.9 221.9 C 9.87 221.93 9.9 220.1 9.9 220.1 L 11.4 220.1 C 11.4 220.1 11.38 230.88 11.4 230.9 Z M 9.8 225.4 C 9.8 222.6 8.1 221.2 6.2 221.2 C 4.3 221.2 2.5 222.6 2.5 225.4 C 2.5 228.2 4.2 229.6 6.2 229.6 C 8 229.6 9.8 228.4 9.8 225.4 Z M 16.2 231.4 L 14.6 231.4 L 14.6 215.4 L 16.2 215.4 L 16.2 231.4 Z M 18.8 225.8 C 18.8 222.1 21 219.9 24.1 219.9 C 27.2 219.9 29.5 222.1 29.5 225.8 C 29.5 229.4 27.3 231.6 24.1 231.6 C 21 231.6 18.8 229.4 18.8 225.8 Z M 27.9 225.7 C 27.9 222.9 26.2 221.3 24.1 221.3 C 21.9 221.3 20.4 223 20.4 225.8 C 20.4 228.6 22.1 230.2 24.2 230.2 C 26.4 230.2 27.9 228.5 27.9 225.7 Z M 42.6 225.7 C 42.6 229.2 40.5 231.6 37.5 231.6 C 35.5 231.6 34.2 230.5 33.6 229.3 C 33.58 229.3 33.6 231.4 33.6 231.4 L 32.1 231.4 L 32.1 215.4 L 33.6 215.4 C 33.6 215.4 33.64 222.37 33.6 222.4 C 34.2 221 35.6 219.9 37.7 219.9 C 40.6 219.9 42.6 222.1 42.6 225.7 Z M 41.1 225.8 C 41.1 223 39.6 221.4 37.4 221.4 C 35.2 221.4 33.6 223 33.6 225.8 C 33.6 228.6 35.2 230.3 37.3 230.3 C 39.6 230.3 41.1 228.5 41.1 225.8 Z M 52.2 229.3 C 51.3 231 49.6 231.6 48.2 231.6 C 46.2 231.6 44.5 230.5 44.5 228.3 C 44.5 226.2 46 225.2 47.9 225 C 47.9 225 50.6 224.6 50.6 224.6 C 51.4 224.5 52.2 224.2 52.2 223.2 C 52.2 221.9 51 221.2 49.5 221.2 C 47.8 221.2 46.7 222 46.5 223.3 C 46.5 223.3 45 223.3 45 223.3 C 45.3 221 47.1 219.9 49.6 219.9 C 52.1 219.9 53.7 221.1 53.7 223.6 C 53.68 223.59 53.7 231.4 53.7 231.4 L 52.2 231.4 C 52.2 231.4 52.18 229.32 52.2 229.3 Z M 50.3 225.9 C 50.3 225.9 48.6 226.1 48.6 226.1 C 47.2 226.3 46.1 226.8 46.1 228.2 C 46.1 229.6 47.2 230.2 48.4 230.2 C 50.2 230.2 52.1 228.9 52.1 226.5 C 52.1 226.5 52.1 225.4 52.1 225.4 C 51.7 225.7 51.1 225.8 50.3 225.9 Z M 58.4 231.4 L 56.8 231.4 L 56.8 215.4 L 58.4 215.4 L 58.4 231.4 Z M 62.5 226.1 C 62.5 228.9 64.3 230.2 66.3 230.2 C 67.7 230.2 69.2 229.5 69.6 227.9 C 69.6 227.9 71 227.9 71 227.9 C 70.5 230.5 68.3 231.6 66.2 231.6 C 63.5 231.6 61 229.8 61 225.8 C 61 221.7 63.5 219.9 66.2 219.9 C 68.9 219.9 71.1 221.6 71.1 225.4 C 71.08 225.35 71.1 226.1 71.1 226.1 C 71.1 226.1 62.49 226.11 62.5 226.1 Z M 62.5 224.8 C 62.5 224.8 69.5 224.8 69.5 224.8 C 69.5 222.5 68.1 221.3 66.2 221.3 C 64.4 221.3 62.7 222.4 62.5 224.8 Z M 89.5 225.7 C 89.5 229.8 86.9 231.5 84.3 231.5 C 82.4 231.5 81.1 230.6 80.5 229.4 C 80.49 229.43 80.5 235.7 80.5 235.7 L 79 235.7 L 79 220.1 L 80.4 220.1 C 80.4 220.1 80.45 222.48 80.4 222.5 C 81 221.1 82.4 219.9 84.5 219.9 C 86.9 219.9 89.5 221.6 89.5 225.7 Z M 87.9 225.7 C 87.9 222.6 86.1 221.4 84.3 221.4 C 82.4 221.4 80.5 222.6 80.5 225.8 C 80.5 228.9 82.3 230.1 84.2 230.1 C 86.1 230.1 87.9 228.9 87.9 225.7 Z M 91.4 225.8 C 91.4 222.1 93.6 219.9 96.7 219.9 C 99.8 219.9 102.1 222.1 102.1 225.8 C 102.1 229.4 99.8 231.6 96.7 231.6 C 93.6 231.6 91.4 229.4 91.4 225.8 Z M 100.5 225.7 C 100.5 222.9 98.8 221.3 96.7 221.3 C 94.5 221.3 92.9 223 92.9 225.8 C 92.9 228.6 94.6 230.2 96.7 230.2 C 98.9 230.2 100.5 228.5 100.5 225.7 Z M 109.8 231.4 C 109.8 231.4 108.17 231.38 108.2 231.4 C 106.7 231.4 105.3 230.9 105.3 228.4 C 105.33 228.42 105.3 221.5 105.3 221.5 L 103.1 221.5 L 103.1 220.1 L 105.3 220.1 L 105.3 216.9 L 106.9 216.5 L 106.9 220.1 L 109.6 220.1 L 109.6 221.5 L 106.9 221.5 C 106.9 221.5 106.87 228.4 106.9 228.4 C 106.9 229.4 107.2 230 108.4 230 C 108.42 230 109.8 230 109.8 230 L 109.8 231.4 Z M 112.8 226.1 C 112.9 228.9 114.6 230.2 116.6 230.2 C 118.1 230.2 119.5 229.5 119.9 227.9 C 119.9 227.9 121.3 227.9 121.3 227.9 C 120.8 230.5 118.6 231.6 116.5 231.6 C 113.8 231.6 111.3 229.8 111.3 225.8 C 111.3 221.7 113.8 219.9 116.5 219.9 C 119.2 219.9 121.4 221.6 121.4 225.4 C 121.4 225.35 121.4 226.1 121.4 226.1 C 121.4 226.1 112.81 226.11 112.8 226.1 Z M 112.9 224.8 C 112.9 224.8 119.8 224.8 119.8 224.8 C 119.8 222.5 118.4 221.3 116.5 221.3 C 114.7 221.3 113.1 222.4 112.9 224.8 Z M 133.2 223.7 C 133.18 223.65 133.2 231.4 133.2 231.4 L 131.6 231.4 C 131.6 231.4 131.65 223.84 131.6 223.8 C 131.6 222.3 130.8 221.3 129.2 221.3 C 127.2 221.3 125.6 222.7 125.6 225.5 C 125.56 225.46 125.6 231.4 125.6 231.4 L 124 231.4 L 124 220.1 L 125.6 220.1 C 125.6 220.1 125.56 222.2 125.6 222.2 C 126.2 220.9 127.5 219.9 129.5 219.9 C 131.7 219.9 133.2 221.2 133.2 223.7 Z M 141.6 231.4 C 141.6 231.4 139.92 231.38 139.9 231.4 C 138.4 231.4 137.1 230.9 137.1 228.4 C 137.09 228.42 137.1 221.5 137.1 221.5 L 134.9 221.5 L 134.9 220.1 L 137.1 220.1 L 137.1 216.9 L 138.6 216.5 L 138.6 220.1 L 141.3 220.1 L 141.3 221.5 L 138.6 221.5 C 138.6 221.5 138.62 228.4 138.6 228.4 C 138.6 229.4 138.9 230 140.2 230 C 140.17 230 141.6 230 141.6 230 L 141.6 231.4 Z M 145.4 215.4 L 143.7 215.4 L 143.7 217.3 L 145.4 217.3 L 145.4 215.4 Z M 145.3 231.4 L 143.8 231.4 L 143.8 220.1 L 145.3 220.1 L 145.3 231.4 Z M 149.5 226.1 C 149.5 228.9 151.2 230.2 153.2 230.2 C 154.7 230.2 156.2 229.5 156.5 227.9 C 156.5 227.9 158 227.9 158 227.9 C 157.5 230.5 155.3 231.6 153.1 231.6 C 150.4 231.6 147.9 229.8 147.9 225.8 C 147.9 221.7 150.5 219.9 153.2 219.9 C 155.9 219.9 158 221.6 158 225.4 C 158.04 225.35 158 226.1 158 226.1 C 158 226.1 149.45 226.11 149.5 226.1 Z M 149.5 224.8 C 149.5 224.8 156.5 224.8 156.5 224.8 C 156.5 222.5 155 221.3 153.1 221.3 C 151.4 221.3 149.7 222.4 149.5 224.8 Z M 162.2 231.4 L 160.7 231.4 L 160.7 215.4 L 162.2 215.4 L 162.2 231.4 Z M 167.1 231.4 L 165.6 231.4 L 165.6 215.4 L 167.1 215.4 L 167.1 231.4 Z M 171.2 226.1 C 171.3 228.9 173 230.2 175 230.2 C 176.5 230.2 178 229.5 178.3 227.9 C 178.3 227.9 179.7 227.9 179.7 227.9 C 179.2 230.5 177 231.6 174.9 231.6 C 172.2 231.6 169.7 229.8 169.7 225.8 C 169.7 221.7 172.3 219.9 175 219.9 C 177.6 219.9 179.8 221.6 179.8 225.4 C 179.82 225.35 179.8 226.1 179.8 226.1 C 179.8 226.1 171.23 226.11 171.2 226.1 Z M 171.3 224.8 C 171.3 224.8 178.3 224.8 178.3 224.8 C 178.3 222.5 176.8 221.3 174.9 221.3 C 173.1 221.3 171.5 222.4 171.3 224.8 Z M 181.7 229.2 L 183.9 229.2 L 183.9 231.4 L 181.7 231.4 L 181.7 229.2 Z " stroke="none" fill="#000"/>  </g>  <g id="Polygon11856">    <path d="M 12.2 200.5 C 12.2 204.6 9.6 206.3 7 206.3 C 5.1 206.3 3.8 205.4 3.2 204.2 C 3.21 204.23 3.2 210.5 3.2 210.5 L 1.7 210.5 L 1.7 194.9 L 3.2 194.9 C 3.2 194.9 3.17 197.28 3.2 197.3 C 3.7 195.9 5.1 194.7 7.2 194.7 C 9.6 194.7 12.2 196.4 12.2 200.5 Z M 10.6 200.5 C 10.6 197.4 8.8 196.2 7 196.2 C 5.1 196.2 3.2 197.4 3.2 200.6 C 3.2 203.7 5.1 204.9 6.9 204.9 C 8.8 204.9 10.6 203.7 10.6 200.5 Z M 16.4 206.2 L 14.8 206.2 L 14.8 190.2 L 16.4 190.2 L 16.4 206.2 Z M 27.1 206.2 C 27.1 206.2 27.13 204.04 27.1 204 C 26.4 205.6 25 206.3 23.4 206.3 C 21.3 206.3 19.6 205 19.6 202.4 C 19.61 202.36 19.6 194.9 19.6 194.9 L 21.1 194.9 C 21.1 194.9 21.15 202.17 21.1 202.2 C 21.1 204 22.2 205 23.6 205 C 25.5 205 27.1 203.6 27.1 200.7 C 27.07 200.74 27.1 194.9 27.1 194.9 L 28.6 194.9 L 28.6 206.2 L 27.1 206.2 Z M 40.3 203 C 40.3 205.3 38.3 206.4 36 206.4 C 33.6 206.4 31.4 205.2 31.1 202.7 C 31.1 202.7 32.8 202.7 32.8 202.7 C 33 204.4 34.5 205 36 205 C 37.5 205 38.7 204.5 38.7 203.2 C 38.7 201.9 37.4 201.6 36.1 201.4 C 34 201 31.4 200.6 31.4 198 C 31.4 195.8 33.3 194.7 35.6 194.7 C 38 194.7 39.9 195.8 40 198.1 C 40 198.1 38.5 198.1 38.5 198.1 C 38.3 196.7 37 196.1 35.6 196.1 C 34 196.1 33 196.8 33 197.9 C 33 199.4 34.4 199.6 36.1 199.9 C 38.1 200.2 40.3 200.5 40.3 203 Z M 49.7 190.2 L 48 190.2 L 48 192.1 L 49.7 192.1 L 49.7 190.2 Z M 49.6 206.2 L 48.1 206.2 L 48.1 194.9 L 49.6 194.9 L 49.6 206.2 Z M 53 194.9 L 54.5 194.9 C 54.5 194.9 54.52 196.77 54.5 196.8 C 55.1 195.4 56.4 194.7 57.8 194.7 C 59.5 194.7 60.8 195.6 61.1 197 C 61.6 195.8 62.9 194.7 64.8 194.7 C 66.9 194.7 68.5 195.8 68.5 198.1 C 68.48 198.1 68.5 206.2 68.5 206.2 L 66.9 206.2 C 66.9 206.2 66.95 198.64 66.9 198.6 C 66.9 196.9 65.9 196.1 64.6 196.1 C 62.9 196.1 61.5 197.4 61.5 199.7 C 61.49 199.73 61.5 206.2 61.5 206.2 L 60 206.2 C 60 206.2 59.98 198.64 60 198.6 C 60 196.9 58.9 196.1 57.6 196.1 C 55.9 196.1 54.5 197.3 54.5 199.7 C 54.54 199.73 54.5 206.2 54.5 206.2 L 53 206.2 L 53 194.9 Z M 82.3 200.5 C 82.3 204.6 79.7 206.3 77.1 206.3 C 75.2 206.3 73.9 205.4 73.3 204.2 C 73.27 204.23 73.3 210.5 73.3 210.5 L 71.7 210.5 L 71.7 194.9 L 73.2 194.9 C 73.2 194.9 73.23 197.28 73.2 197.3 C 73.7 195.9 75.2 194.7 77.3 194.7 C 79.7 194.7 82.3 196.4 82.3 200.5 Z M 80.7 200.5 C 80.7 197.4 78.9 196.2 77 196.2 C 75.2 196.2 73.3 197.4 73.3 200.6 C 73.3 203.7 75.1 204.9 77 204.9 C 78.9 204.9 80.7 203.7 80.7 200.5 Z M 84.1 200.6 C 84.1 196.9 86.4 194.7 89.5 194.7 C 92.6 194.7 94.8 196.9 94.8 200.6 C 94.8 204.2 92.6 206.4 89.5 206.4 C 86.4 206.4 84.1 204.2 84.1 200.6 Z M 93.3 200.5 C 93.3 197.7 91.6 196.1 89.5 196.1 C 87.3 196.1 85.7 197.8 85.7 200.6 C 85.7 203.4 87.4 205 89.5 205 C 91.7 205 93.3 203.3 93.3 200.5 Z M 103.1 196.2 C 103.1 196.2 102.73 196.23 102.7 196.2 C 100.3 196.2 99 197.6 99 200.2 C 98.99 200.2 99 206.2 99 206.2 L 97.5 206.2 L 97.5 194.9 L 99 194.9 C 99 194.9 98.97 196.98 99 197 C 99.5 195.5 100.9 194.8 102.6 194.8 C 102.6 194.78 103.1 194.8 103.1 194.8 L 103.1 196.2 Z M 110.6 206.2 C 110.6 206.2 108.99 206.18 109 206.2 C 107.5 206.2 106.2 205.7 106.2 203.2 C 106.15 203.22 106.2 196.3 106.2 196.3 L 103.9 196.3 L 103.9 194.9 L 106.2 194.9 L 106.2 191.7 L 107.7 191.3 L 107.7 194.9 L 110.4 194.9 L 110.4 196.3 L 107.7 196.3 C 107.7 196.3 107.69 203.2 107.7 203.2 C 107.7 204.2 108 204.8 109.2 204.8 C 109.24 204.8 110.6 204.8 110.6 204.8 L 110.6 206.2 Z M 119.8 204.1 C 118.9 205.8 117.2 206.4 115.8 206.4 C 113.8 206.4 112.1 205.3 112.1 203.1 C 112.1 201 113.6 200 115.5 199.8 C 115.5 199.8 118.2 199.4 118.2 199.4 C 119 199.3 119.8 199 119.8 198 C 119.8 196.7 118.6 196 117.1 196 C 115.4 196 114.3 196.8 114.1 198.1 C 114.1 198.1 112.6 198.1 112.6 198.1 C 112.9 195.8 114.7 194.7 117.2 194.7 C 119.7 194.7 121.3 195.9 121.3 198.4 C 121.27 198.39 121.3 206.2 121.3 206.2 L 119.8 206.2 C 119.8 206.2 119.78 204.12 119.8 204.1 Z M 117.9 200.7 C 117.9 200.7 116.2 200.9 116.2 200.9 C 114.8 201.1 113.7 201.6 113.7 203 C 113.7 204.4 114.8 205 116 205 C 117.8 205 119.7 203.7 119.7 201.3 C 119.7 201.3 119.7 200.2 119.7 200.2 C 119.3 200.5 118.7 200.6 117.9 200.7 Z M 133.6 198.5 C 133.58 198.45 133.6 206.2 133.6 206.2 L 132 206.2 C 132 206.2 132.05 198.64 132 198.6 C 132 197.1 131.2 196.1 129.6 196.1 C 127.6 196.1 126 197.5 126 200.3 C 125.96 200.26 126 206.2 126 206.2 L 124.4 206.2 L 124.4 194.9 L 126 194.9 C 126 194.9 125.96 197 126 197 C 126.6 195.7 127.9 194.7 129.9 194.7 C 132.1 194.7 133.6 196 133.6 198.5 Z M 142 206.2 C 142 206.2 140.32 206.18 140.3 206.2 C 138.8 206.2 137.5 205.7 137.5 203.2 C 137.48 203.22 137.5 196.3 137.5 196.3 L 135.3 196.3 L 135.3 194.9 L 137.5 194.9 L 137.5 191.7 L 139 191.3 L 139 194.9 L 141.7 194.9 L 141.7 196.3 L 139 196.3 C 139 196.3 139.02 203.2 139 203.2 C 139 204.2 139.3 204.8 140.6 204.8 C 140.57 204.8 142 204.8 142 204.8 L 142 206.2 Z M 145 200.9 C 145 203.7 146.7 205 148.7 205 C 150.2 205 151.7 204.3 152 202.7 C 152 202.7 153.5 202.7 153.5 202.7 C 153 205.3 150.8 206.4 148.6 206.4 C 145.9 206.4 143.4 204.6 143.4 200.6 C 143.4 196.5 146 194.7 148.7 194.7 C 151.4 194.7 153.5 196.4 153.5 200.2 C 153.55 200.15 153.5 200.9 153.5 200.9 C 153.5 200.9 144.96 200.91 145 200.9 Z M 145 199.6 C 145 199.6 152 199.6 152 199.6 C 152 197.3 150.5 196.1 148.6 196.1 C 146.9 196.1 145.2 197.2 145 199.6 Z M 170.8 206.2 L 169.3 206.2 C 169.3 206.2 169.34 204 169.3 204 C 168.8 205.3 167.4 206.4 165.3 206.4 C 162.4 206.4 160.3 204.1 160.3 200.5 C 160.3 197 162.4 194.7 165.4 194.7 C 167.3 194.7 168.7 195.6 169.3 196.8 C 169.28 196.82 169.3 190.2 169.3 190.2 L 170.8 190.2 L 170.8 206.2 Z M 169.3 200.5 C 169.3 197.7 167.7 196.1 165.5 196.1 C 163.3 196.1 161.8 197.8 161.8 200.5 C 161.8 203.3 163.4 205 165.5 205 C 167.7 205 169.3 203.3 169.3 200.5 Z M 174.9 200.9 C 175 203.7 176.7 205 178.7 205 C 180.2 205 181.7 204.3 182 202.7 C 182 202.7 183.5 202.7 183.5 202.7 C 182.9 205.3 180.8 206.4 178.6 206.4 C 175.9 206.4 173.4 204.6 173.4 200.6 C 173.4 196.5 176 194.7 178.7 194.7 C 181.4 194.7 183.5 196.4 183.5 200.2 C 183.54 200.15 183.5 200.9 183.5 200.9 C 183.5 200.9 174.95 200.91 174.9 200.9 Z M 175 199.6 C 175 199.6 182 199.6 182 199.6 C 182 197.3 180.5 196.1 178.6 196.1 C 176.9 196.1 175.2 197.2 175 199.6 Z M 192.9 206.2 L 191.4 206.2 L 191.4 190.2 L 192.9 190.2 L 192.9 206.2 Z M 203.2 204.1 C 202.4 205.8 200.7 206.4 199.2 206.4 C 197.3 206.4 195.6 205.3 195.6 203.1 C 195.6 201 197.1 200 199 199.8 C 199 199.8 201.7 199.4 201.7 199.4 C 202.5 199.3 203.2 199 203.2 198 C 203.2 196.7 202.1 196 200.5 196 C 198.8 196 197.8 196.8 197.5 198.1 C 197.5 198.1 196 198.1 196 198.1 C 196.3 195.8 198.1 194.7 200.6 194.7 C 203.2 194.7 204.7 195.9 204.7 198.4 C 204.73 198.39 204.7 206.2 204.7 206.2 L 203.2 206.2 C 203.2 206.2 203.24 204.12 203.2 204.1 Z M 201.4 200.7 C 201.4 200.7 199.6 200.9 199.6 200.9 C 198.2 201.1 197.1 201.6 197.1 203 C 197.1 204.4 198.2 205 199.5 205 C 201.2 205 203.2 203.7 203.2 201.3 C 203.2 201.3 203.2 200.2 203.2 200.2 C 202.8 200.5 202.1 200.6 201.4 200.7 Z M 223.6 200.5 C 223.6 204.6 221.1 206.3 218.5 206.3 C 216.5 206.3 215.3 205.4 214.7 204.2 C 214.66 204.23 214.7 210.5 214.7 210.5 L 213.1 210.5 L 213.1 194.9 L 214.6 194.9 C 214.6 194.9 214.62 197.28 214.6 197.3 C 215.1 195.9 216.6 194.7 218.6 194.7 C 221.1 194.7 223.6 196.4 223.6 200.5 Z M 222.1 200.5 C 222.1 197.4 220.3 196.2 218.4 196.2 C 216.5 196.2 214.7 197.4 214.7 200.6 C 214.7 203.7 216.5 204.9 218.4 204.9 C 220.2 204.9 222.1 203.7 222.1 200.5 Z M 227 200.9 C 227.1 203.7 228.8 205 230.8 205 C 232.3 205 233.8 204.3 234.1 202.7 C 234.1 202.7 235.6 202.7 235.6 202.7 C 235.1 205.3 232.9 206.4 230.7 206.4 C 228 206.4 225.5 204.6 225.5 200.6 C 225.5 196.5 228.1 194.7 230.8 194.7 C 233.5 194.7 235.6 196.4 235.6 200.2 C 235.64 200.15 235.6 200.9 235.6 200.9 C 235.6 200.9 227.05 200.91 227 200.9 Z M 227.1 199.6 C 227.1 199.6 234.1 199.6 234.1 199.6 C 234.1 197.3 232.6 196.1 230.7 196.1 C 229 196.1 227.3 197.2 227.1 199.6 Z M 243.9 196.2 C 243.9 196.2 243.53 196.23 243.5 196.2 C 241.1 196.2 239.8 197.6 239.8 200.2 C 239.8 200.2 239.8 206.2 239.8 206.2 L 238.3 206.2 L 238.3 194.9 L 239.8 194.9 C 239.8 194.9 239.78 196.98 239.8 197 C 240.3 195.5 241.7 194.8 243.4 194.8 C 243.41 194.78 243.9 194.8 243.9 194.8 L 243.9 196.2 Z M 249.9 191.5 C 248.6 191.5 248.3 192.1 248.3 193.2 C 248.34 193.16 248.3 194.9 248.3 194.9 L 250.8 194.9 L 250.8 196.3 L 248.3 196.3 L 248.3 206.2 L 246.8 206.2 L 246.8 196.3 L 244.9 196.3 L 244.9 194.9 L 246.8 194.9 C 246.8 194.9 246.81 193.12 246.8 193.1 C 246.8 190.6 248.2 190.2 249.6 190.2 C 249.64 190.18 251.1 190.2 251.1 190.2 L 251.1 191.5 C 251.1 191.5 249.9 191.54 249.9 191.5 Z M 252.2 200.6 C 252.2 196.9 254.4 194.7 257.5 194.7 C 260.6 194.7 262.9 196.9 262.9 200.6 C 262.9 204.2 260.6 206.4 257.5 206.4 C 254.4 206.4 252.2 204.2 252.2 200.6 Z M 261.3 200.5 C 261.3 197.7 259.6 196.1 257.5 196.1 C 255.3 196.1 253.8 197.8 253.8 200.6 C 253.8 203.4 255.5 205 257.6 205 C 259.7 205 261.3 203.3 261.3 200.5 Z M 271.1 196.2 C 271.1 196.2 270.77 196.23 270.8 196.2 C 268.4 196.2 267 197.6 267 200.2 C 267.03 200.2 267 206.2 267 206.2 L 265.5 206.2 L 265.5 194.9 L 267 194.9 C 267 194.9 267.01 196.98 267 197 C 267.5 195.5 268.9 194.8 270.6 194.8 C 270.64 194.78 271.1 194.8 271.1 194.8 L 271.1 196.2 Z M 273.1 194.9 L 274.6 194.9 C 274.6 194.9 274.63 196.77 274.6 196.8 C 275.2 195.4 276.5 194.7 277.9 194.7 C 279.6 194.7 280.9 195.6 281.2 197 C 281.8 195.8 283 194.7 284.9 194.7 C 287 194.7 288.6 195.8 288.6 198.1 C 288.6 198.1 288.6 206.2 288.6 206.2 L 287.1 206.2 C 287.1 206.2 287.07 198.64 287.1 198.6 C 287.1 196.9 286 196.1 284.7 196.1 C 283 196.1 281.6 197.4 281.6 199.7 C 281.61 199.73 281.6 206.2 281.6 206.2 L 280.1 206.2 C 280.1 206.2 280.09 198.64 280.1 198.6 C 280.1 196.9 279.1 196.1 277.7 196.1 C 276.1 196.1 274.7 197.3 274.7 199.7 C 274.66 199.73 274.7 206.2 274.7 206.2 L 273.1 206.2 L 273.1 194.9 Z M 298.8 204.1 C 297.9 205.8 296.2 206.4 294.8 206.4 C 292.8 206.4 291.1 205.3 291.1 203.1 C 291.1 201 292.6 200 294.5 199.8 C 294.5 199.8 297.2 199.4 297.2 199.4 C 298 199.3 298.8 199 298.8 198 C 298.8 196.7 297.6 196 296.1 196 C 294.4 196 293.3 196.8 293.1 198.1 C 293.1 198.1 291.6 198.1 291.6 198.1 C 291.9 195.8 293.7 194.7 296.2 194.7 C 298.7 194.7 300.3 195.9 300.3 198.4 C 300.28 198.39 300.3 206.2 300.3 206.2 L 298.8 206.2 C 298.8 206.2 298.78 204.12 298.8 204.1 Z M 296.9 200.7 C 296.9 200.7 295.2 200.9 295.2 200.9 C 293.8 201.1 292.7 201.6 292.7 203 C 292.7 204.4 293.8 205 295 205 C 296.8 205 298.7 203.7 298.7 201.3 C 298.7 201.3 298.7 200.2 298.7 200.2 C 298.3 200.5 297.7 200.6 296.9 200.7 Z M 312.6 198.5 C 312.58 198.45 312.6 206.2 312.6 206.2 L 311 206.2 C 311 206.2 311.05 198.64 311 198.6 C 311 197.1 310.2 196.1 308.6 196.1 C 306.6 196.1 305 197.5 305 200.3 C 304.96 200.26 305 206.2 305 206.2 L 303.4 206.2 L 303.4 194.9 L 305 194.9 C 305 194.9 304.96 197 305 197 C 305.6 195.7 306.9 194.7 308.9 194.7 C 311.1 194.7 312.6 196 312.6 198.5 Z M 320.3 206.4 C 317.2 206.4 315.1 204.1 315.1 200.6 C 315.1 197 317.2 194.7 320.5 194.7 C 323 194.7 325 196.1 325.1 198.6 C 325.1 198.6 323.6 198.6 323.6 198.6 C 323.5 197 322.1 196.1 320.4 196.1 C 318.2 196.1 316.7 197.8 316.7 200.5 C 316.7 203.3 318.2 205 320.4 205 C 322.1 205 323.5 204 323.6 202.2 C 323.6 202.2 325.1 202.2 325.1 202.2 C 325 204.9 322.8 206.4 320.3 206.4 Z M 328.5 200.9 C 328.6 203.7 330.3 205 332.3 205 C 333.8 205 335.2 204.3 335.6 202.7 C 335.6 202.7 337 202.7 337 202.7 C 336.5 205.3 334.3 206.4 332.2 206.4 C 329.5 206.4 327 204.6 327 200.6 C 327 196.5 329.5 194.7 332.3 194.7 C 334.9 194.7 337.1 196.4 337.1 200.2 C 337.11 200.15 337.1 200.9 337.1 200.9 C 337.1 200.9 328.52 200.91 328.5 200.9 Z M 328.6 199.6 C 328.6 199.6 335.6 199.6 335.6 199.6 C 335.6 197.3 334.1 196.1 332.2 196.1 C 330.4 196.1 328.8 197.2 328.6 199.6 Z " stroke="none" fill="#000"/>  </g>  <g id="Polygon11855">    <path d="M 11.4 180.5 C 11.4 183.9 9.2 185.6 6.3 185.6 C 3.8 185.6 1.6 184.3 1.2 181.7 C 1.2 181.7 2.8 181.7 2.8 181.7 C 3 183.1 4 184.3 6.3 184.3 C 8.4 184.3 9.9 183.2 9.9 180.6 C 9.9 180.6 9.9 178.3 9.9 178.3 C 9.1 180 7.4 180.6 5.9 180.6 C 3.2 180.6 0.9 178.7 0.9 175 C 0.9 171.3 3.3 169.5 6 169.5 C 7.8 169.5 9.2 170.3 9.9 171.5 C 9.87 171.53 9.9 169.7 9.9 169.7 L 11.4 169.7 C 11.4 169.7 11.38 180.48 11.4 180.5 Z M 9.8 175 C 9.8 172.2 8.1 170.8 6.2 170.8 C 4.3 170.8 2.5 172.2 2.5 175 C 2.5 177.8 4.2 179.2 6.2 179.2 C 8 179.2 9.8 178 9.8 175 Z M 15.4 175.7 C 15.5 178.5 17.2 179.8 19.2 179.8 C 20.7 179.8 22.1 179.1 22.5 177.5 C 22.5 177.5 23.9 177.5 23.9 177.5 C 23.4 180.1 21.2 181.2 19.1 181.2 C 16.4 181.2 13.9 179.4 13.9 175.4 C 13.9 171.3 16.4 169.5 19.2 169.5 C 21.8 169.5 24 171.2 24 175 C 24 174.95 24 175.7 24 175.7 C 24 175.7 15.41 175.71 15.4 175.7 Z M 15.5 174.4 C 15.5 174.4 22.4 174.4 22.4 174.4 C 22.4 172.1 21 170.9 19.1 170.9 C 17.3 170.9 15.7 172 15.5 174.4 Z M 35 177.8 C 35 180.1 32.9 181.2 30.7 181.2 C 28.2 181.2 26 180 25.8 177.5 C 25.8 177.5 27.4 177.5 27.4 177.5 C 27.7 179.2 29.1 179.8 30.7 179.8 C 32.1 179.8 33.4 179.3 33.4 178 C 33.4 176.7 32.1 176.4 30.8 176.2 C 28.6 175.8 26.1 175.4 26.1 172.8 C 26.1 170.6 28 169.5 30.3 169.5 C 32.7 169.5 34.6 170.6 34.7 172.9 C 34.7 172.9 33.1 172.9 33.1 172.9 C 33 171.5 31.7 170.9 30.2 170.9 C 28.7 170.9 27.7 171.6 27.7 172.7 C 27.7 174.2 29 174.4 30.7 174.7 C 32.8 175 35 175.3 35 177.8 Z M 42.7 181 C 42.7 181 41.01 180.98 41 181 C 39.5 181 38.2 180.5 38.2 178 C 38.18 178.02 38.2 171.1 38.2 171.1 L 36 171.1 L 36 169.7 L 38.2 169.7 L 38.2 166.5 L 39.7 166.1 L 39.7 169.7 L 42.4 169.7 L 42.4 171.1 L 39.7 171.1 C 39.7 171.1 39.71 178 39.7 178 C 39.7 179 40 179.6 41.3 179.6 C 41.26 179.6 42.7 179.6 42.7 179.6 L 42.7 181 Z M 46.5 165 L 44.8 165 L 44.8 166.9 L 46.5 166.9 L 46.5 165 Z M 46.4 181 L 44.9 181 L 44.9 169.7 L 46.4 169.7 L 46.4 181 Z M 49 175.4 C 49 171.7 51.3 169.5 54.4 169.5 C 57.5 169.5 59.7 171.7 59.7 175.4 C 59.7 179 57.5 181.2 54.4 181.2 C 51.3 181.2 49 179 49 175.4 Z M 58.1 175.3 C 58.1 172.5 56.4 170.9 54.3 170.9 C 52.1 170.9 50.6 172.6 50.6 175.4 C 50.6 178.2 52.3 179.8 54.4 179.8 C 56.6 179.8 58.1 178.1 58.1 175.3 Z M 71.5 173.3 C 71.5 173.25 71.5 181 71.5 181 L 70 181 C 70 181 69.97 173.44 70 173.4 C 70 171.9 69.1 170.9 67.5 170.9 C 65.6 170.9 63.9 172.3 63.9 175.1 C 63.88 175.06 63.9 181 63.9 181 L 62.3 181 L 62.3 169.7 L 63.9 169.7 C 63.9 169.7 63.88 171.8 63.9 171.8 C 64.6 170.5 65.8 169.5 67.8 169.5 C 70 169.5 71.5 170.8 71.5 173.3 Z M 87.4 178.9 C 86.5 180.6 84.8 181.2 83.3 181.2 C 81.4 181.2 79.7 180.1 79.7 177.9 C 79.7 175.8 81.2 174.8 83.1 174.6 C 83.1 174.6 85.8 174.2 85.8 174.2 C 86.6 174.1 87.4 173.8 87.4 172.8 C 87.4 171.5 86.2 170.8 84.6 170.8 C 82.9 170.8 81.9 171.6 81.7 172.9 C 81.7 172.9 80.1 172.9 80.1 172.9 C 80.4 170.6 82.3 169.5 84.7 169.5 C 87.3 169.5 88.8 170.7 88.8 173.2 C 88.85 173.19 88.8 181 88.8 181 L 87.4 181 C 87.4 181 87.36 178.92 87.4 178.9 Z M 85.5 175.5 C 85.5 175.5 83.8 175.7 83.8 175.7 C 82.3 175.9 81.3 176.4 81.3 177.8 C 81.3 179.2 82.4 179.8 83.6 179.8 C 85.4 179.8 87.3 178.5 87.3 176.1 C 87.3 176.1 87.3 175 87.3 175 C 86.9 175.3 86.2 175.4 85.5 175.5 Z M 96.5 181.2 C 93.4 181.2 91.3 178.9 91.3 175.4 C 91.3 171.8 93.4 169.5 96.6 169.5 C 99.1 169.5 101.1 170.9 101.3 173.4 C 101.3 173.4 99.8 173.4 99.8 173.4 C 99.6 171.8 98.2 170.9 96.6 170.9 C 94.4 170.9 92.8 172.6 92.8 175.3 C 92.8 178.1 94.4 179.8 96.6 179.8 C 98.3 179.8 99.6 178.8 99.8 177 C 99.8 177 101.3 177 101.3 177 C 101.1 179.7 99 181.2 96.5 181.2 Z M 109.1 181 C 109.1 181 107.39 180.98 107.4 181 C 105.9 181 104.6 180.5 104.6 178 C 104.56 178.02 104.6 171.1 104.6 171.1 L 102.3 171.1 L 102.3 169.7 L 104.6 169.7 L 104.6 166.5 L 106.1 166.1 L 106.1 169.7 L 108.8 169.7 L 108.8 171.1 L 106.1 171.1 C 106.1 171.1 106.09 178 106.1 178 C 106.1 179 106.4 179.6 107.6 179.6 C 107.64 179.6 109.1 179.6 109.1 179.6 L 109.1 181 Z M 112.9 165 L 111.2 165 L 111.2 166.9 L 112.9 166.9 L 112.9 165 Z M 112.8 181 L 111.3 181 L 111.3 169.7 L 112.8 169.7 L 112.8 181 Z M 120.6 181 L 119 181 L 114.8 169.7 L 116.4 169.7 L 119.8 179.4 L 123.2 169.7 L 124.8 169.7 L 120.6 181 Z M 127.4 175.7 C 127.4 178.5 129.1 179.8 131.1 179.8 C 132.6 179.8 134.1 179.1 134.4 177.5 C 134.4 177.5 135.9 177.5 135.9 177.5 C 135.4 180.1 133.2 181.2 131.1 181.2 C 128.4 181.2 125.9 179.4 125.9 175.4 C 125.9 171.3 128.4 169.5 131.1 169.5 C 133.8 169.5 136 171.2 136 175 C 135.97 174.95 136 175.7 136 175.7 C 136 175.7 127.38 175.71 127.4 175.7 Z M 127.4 174.4 C 127.4 174.4 134.4 174.4 134.4 174.4 C 134.4 172.1 132.9 170.9 131.1 170.9 C 129.3 170.9 127.6 172 127.4 174.4 Z M 149.5 171 C 149.5 171 149.12 171.03 149.1 171 C 146.7 171 145.4 172.4 145.4 175 C 145.38 175 145.4 181 145.4 181 L 143.8 181 L 143.8 169.7 L 145.4 169.7 C 145.4 169.7 145.36 171.78 145.4 171.8 C 145.9 170.3 147.2 169.6 149 169.6 C 148.99 169.58 149.5 169.6 149.5 169.6 L 149.5 171 Z M 152 175.7 C 152.1 178.5 153.8 179.8 155.8 179.8 C 157.3 179.8 158.8 179.1 159.1 177.5 C 159.1 177.5 160.5 177.5 160.5 177.5 C 160 180.1 157.9 181.2 155.7 181.2 C 153 181.2 150.5 179.4 150.5 175.4 C 150.5 171.3 153.1 169.5 155.8 169.5 C 158.4 169.5 160.6 171.2 160.6 175 C 160.63 174.95 160.6 175.7 160.6 175.7 C 160.6 175.7 152.04 175.71 152 175.7 Z M 152.1 174.4 C 152.1 174.4 159.1 174.4 159.1 174.4 C 159.1 172.1 157.6 170.9 155.7 170.9 C 153.9 170.9 152.3 172 152.1 174.4 Z M 173.8 175.3 C 173.8 179.4 171.2 181.1 168.6 181.1 C 166.7 181.1 165.4 180.2 164.8 179 C 164.78 179.03 164.8 185.3 164.8 185.3 L 163.3 185.3 L 163.3 169.7 L 164.7 169.7 C 164.7 169.7 164.74 172.08 164.7 172.1 C 165.2 170.7 166.7 169.5 168.8 169.5 C 171.2 169.5 173.8 171.2 173.8 175.3 Z M 172.2 175.3 C 172.2 172.2 170.4 171 168.5 171 C 166.7 171 164.8 172.2 164.8 175.4 C 164.8 178.5 166.6 179.7 168.5 179.7 C 170.4 179.7 172.2 178.5 172.2 175.3 Z M 182 171 C 182 171 181.67 171.03 181.7 171 C 179.3 171 177.9 172.4 177.9 175 C 177.93 175 177.9 181 177.9 181 L 176.4 181 L 176.4 169.7 L 177.9 169.7 C 177.9 169.7 177.91 171.78 177.9 171.8 C 178.4 170.3 179.8 169.6 181.5 169.6 C 181.54 169.58 182 169.6 182 169.6 L 182 171 Z M 189 167.4 L 187.7 167.4 L 190.2 163.6 L 191.5 164.6 L 189 167.4 Z M 184.6 175.7 C 184.6 178.5 186.4 179.8 188.3 179.8 C 189.8 179.8 191.3 179.1 191.6 177.5 C 191.6 177.5 193.1 177.5 193.1 177.5 C 192.6 180.1 190.4 181.2 188.3 181.2 C 185.6 181.2 183.1 179.4 183.1 175.4 C 183.1 171.3 185.6 169.5 188.3 169.5 C 191 169.5 193.2 171.2 193.2 175 C 193.18 174.95 193.2 175.7 193.2 175.7 C 193.2 175.7 184.59 175.71 184.6 175.7 Z M 184.6 174.4 C 184.6 174.4 191.6 174.4 191.6 174.4 C 191.6 172.1 190.2 170.9 188.3 170.9 C 186.5 170.9 184.8 172 184.6 174.4 Z M 204.2 177.8 C 204.2 180.1 202.1 181.2 199.8 181.2 C 197.4 181.2 195.2 180 195 177.5 C 195 177.5 196.6 177.5 196.6 177.5 C 196.9 179.2 198.3 179.8 199.9 179.8 C 201.3 179.8 202.6 179.3 202.6 178 C 202.6 176.7 201.3 176.4 200 176.2 C 197.8 175.8 195.2 175.4 195.2 172.8 C 195.2 170.6 197.2 169.5 199.5 169.5 C 201.9 169.5 203.8 170.6 203.9 172.9 C 203.9 172.9 202.3 172.9 202.3 172.9 C 202.2 171.5 200.9 170.9 199.4 170.9 C 197.9 170.9 196.8 171.6 196.8 172.7 C 196.8 174.2 198.2 174.4 199.9 174.7 C 201.9 175 204.2 175.3 204.2 177.8 Z M 207.5 175.7 C 207.5 178.5 209.2 179.8 211.2 179.8 C 212.7 179.8 214.2 179.1 214.5 177.5 C 214.5 177.5 216 177.5 216 177.5 C 215.5 180.1 213.3 181.2 211.2 181.2 C 208.5 181.2 206 179.4 206 175.4 C 206 171.3 208.5 169.5 211.2 169.5 C 213.9 169.5 216.1 171.2 216.1 175 C 216.07 174.95 216.1 175.7 216.1 175.7 C 216.1 175.7 207.48 175.71 207.5 175.7 Z M 207.5 174.4 C 207.5 174.4 214.5 174.4 214.5 174.4 C 214.5 172.1 213 170.9 211.2 170.9 C 209.4 170.9 207.7 172 207.5 174.4 Z M 227.8 173.3 C 227.85 173.25 227.8 181 227.8 181 L 226.3 181 C 226.3 181 226.31 173.44 226.3 173.4 C 226.3 171.9 225.4 170.9 223.8 170.9 C 221.9 170.9 220.2 172.3 220.2 175.1 C 220.22 175.06 220.2 181 220.2 181 L 218.7 181 L 218.7 169.7 L 220.2 169.7 C 220.2 169.7 220.22 171.8 220.2 171.8 C 220.9 170.5 222.2 169.5 224.1 169.5 C 226.4 169.5 227.8 170.8 227.8 173.3 Z M 236.2 181 C 236.2 181 234.59 180.98 234.6 181 C 233.1 181 231.8 180.5 231.8 178 C 231.75 178.02 231.8 171.1 231.8 171.1 L 229.5 171.1 L 229.5 169.7 L 231.8 169.7 L 231.8 166.5 L 233.3 166.1 L 233.3 169.7 L 236 169.7 L 236 171.1 L 233.3 171.1 C 233.3 171.1 233.29 178 233.3 178 C 233.3 179 233.6 179.6 234.8 179.6 C 234.84 179.6 236.2 179.6 236.2 179.6 L 236.2 181 Z M 239.2 175.7 C 239.3 178.5 241 179.8 243 179.8 C 244.5 179.8 245.9 179.1 246.3 177.5 C 246.3 177.5 247.7 177.5 247.7 177.5 C 247.2 180.1 245 181.2 242.9 181.2 C 240.2 181.2 237.7 179.4 237.7 175.4 C 237.7 171.3 240.3 169.5 243 169.5 C 245.6 169.5 247.8 171.2 247.8 175 C 247.82 174.95 247.8 175.7 247.8 175.7 C 247.8 175.7 239.23 175.71 239.2 175.7 Z M 239.3 174.4 C 239.3 174.4 246.3 174.4 246.3 174.4 C 246.3 172.1 244.8 170.9 242.9 170.9 C 241.1 170.9 239.5 172 239.3 174.4 Z M 263.1 181 C 263.1 181 263.11 178.84 263.1 178.8 C 262.3 180.4 260.9 181.1 259.3 181.1 C 257.2 181.1 255.6 179.8 255.6 177.2 C 255.59 177.16 255.6 169.7 255.6 169.7 L 257.1 169.7 C 257.1 169.7 257.12 176.97 257.1 177 C 257.1 178.8 258.1 179.8 259.6 179.8 C 261.4 179.8 263 178.4 263 175.5 C 263.04 175.54 263 169.7 263 169.7 L 264.6 169.7 L 264.6 181 L 263.1 181 Z M 277.1 173.3 C 277.09 173.25 277.1 181 277.1 181 L 275.6 181 C 275.6 181 275.56 173.44 275.6 173.4 C 275.6 171.9 274.7 170.9 273.1 170.9 C 271.1 170.9 269.5 172.3 269.5 175.1 C 269.47 175.06 269.5 181 269.5 181 L 267.9 181 L 267.9 169.7 L 269.5 169.7 C 269.5 169.7 269.47 171.8 269.5 171.8 C 270.1 170.5 271.4 169.5 273.4 169.5 C 275.6 169.5 277.1 170.8 277.1 173.3 Z M 281.1 175.7 C 281.2 178.5 282.9 179.8 284.9 179.8 C 286.4 179.8 287.8 179.1 288.2 177.5 C 288.2 177.5 289.6 177.5 289.6 177.5 C 289.1 180.1 286.9 181.2 284.8 181.2 C 282.1 181.2 279.6 179.4 279.6 175.4 C 279.6 171.3 282.2 169.5 284.9 169.5 C 287.5 169.5 289.7 171.2 289.7 175 C 289.71 174.95 289.7 175.7 289.7 175.7 C 289.7 175.7 281.12 175.71 281.1 175.7 Z M 281.2 174.4 C 281.2 174.4 288.2 174.4 288.2 174.4 C 288.2 172.1 286.7 170.9 284.8 170.9 C 283 170.9 281.4 172 281.2 174.4 Z M 308.1 175.3 C 308.1 179.4 305.5 181.1 302.9 181.1 C 301 181.1 299.8 180.2 299.1 179 C 299.12 179.03 299.1 185.3 299.1 185.3 L 297.6 185.3 L 297.6 169.7 L 299.1 169.7 C 299.1 169.7 299.08 172.08 299.1 172.1 C 299.6 170.7 301.1 169.5 303.1 169.5 C 305.5 169.5 308.1 171.2 308.1 175.3 Z M 306.5 175.3 C 306.5 172.2 304.7 171 302.9 171 C 301 171 299.1 172.2 299.1 175.4 C 299.1 178.5 301 179.7 302.8 179.7 C 304.7 179.7 306.5 178.5 306.5 175.3 Z M 317.7 178.9 C 316.8 180.6 315.1 181.2 313.7 181.2 C 311.7 181.2 310 180.1 310 177.9 C 310 175.8 311.5 174.8 313.4 174.6 C 313.4 174.6 316.1 174.2 316.1 174.2 C 316.9 174.1 317.7 173.8 317.7 172.8 C 317.7 171.5 316.5 170.8 314.9 170.8 C 313.2 170.8 312.2 171.6 312 172.9 C 312 172.9 310.4 172.9 310.4 172.9 C 310.8 170.6 312.6 169.5 315 169.5 C 317.6 169.5 319.2 170.7 319.2 173.2 C 319.15 173.19 319.2 181 319.2 181 L 317.7 181 C 317.7 181 317.66 178.92 317.7 178.9 Z M 315.8 175.5 C 315.8 175.5 314.1 175.7 314.1 175.7 C 312.6 175.9 311.6 176.4 311.6 177.8 C 311.6 179.2 312.7 179.8 313.9 179.8 C 315.7 179.8 317.6 178.5 317.6 176.1 C 317.6 176.1 317.6 175 317.6 175 C 317.2 175.3 316.6 175.4 315.8 175.5 Z M 327.9 171 C 327.9 171 327.58 171.03 327.6 171 C 325.2 171 323.8 172.4 323.8 175 C 323.84 175 323.8 181 323.8 181 L 322.3 181 L 322.3 169.7 L 323.8 169.7 C 323.8 169.7 323.82 171.78 323.8 171.8 C 324.3 170.3 325.7 169.6 327.4 169.6 C 327.45 169.58 327.9 169.6 327.9 169.6 L 327.9 171 Z M 335.5 181 C 335.5 181 333.83 180.98 333.8 181 C 332.3 181 331 180.5 331 178 C 331 178.02 331 171.1 331 171.1 L 328.8 171.1 L 328.8 169.7 L 331 169.7 L 331 166.5 L 332.5 166.1 L 332.5 169.7 L 335.3 169.7 L 335.3 171.1 L 332.5 171.1 C 332.5 171.1 332.53 178 332.5 178 C 332.5 179 332.8 179.6 334.1 179.6 C 334.08 179.6 335.5 179.6 335.5 179.6 L 335.5 181 Z " stroke="none" fill="#000"/>  </g>  <g id="Polygon11854">    <path d="M 6.2 156 C 3.1 156 0.9 153.7 0.9 150.2 C 0.9 146.6 3 144.3 6.3 144.3 C 8.8 144.3 10.8 145.7 11 148.2 C 11 148.2 9.5 148.2 9.5 148.2 C 9.3 146.6 7.9 145.7 6.3 145.7 C 4.1 145.7 2.5 147.4 2.5 150.1 C 2.5 152.9 4.1 154.6 6.3 154.6 C 8 154.6 9.3 153.6 9.4 151.8 C 9.4 151.8 11 151.8 11 151.8 C 10.8 154.5 8.7 156 6.2 156 Z M 12.9 150.2 C 12.9 146.5 15.1 144.3 18.2 144.3 C 21.3 144.3 23.5 146.5 23.5 150.2 C 23.5 153.8 21.3 156 18.2 156 C 15.1 156 12.9 153.8 12.9 150.2 Z M 22 150.1 C 22 147.3 20.3 145.7 18.2 145.7 C 16 145.7 14.4 147.4 14.4 150.2 C 14.4 153 16.1 154.6 18.2 154.6 C 20.4 154.6 22 152.9 22 150.1 Z M 35.3 148.1 C 35.32 148.05 35.3 155.8 35.3 155.8 L 33.8 155.8 C 33.8 155.8 33.79 148.24 33.8 148.2 C 33.8 146.7 32.9 145.7 31.3 145.7 C 29.4 145.7 27.7 147.1 27.7 149.9 C 27.7 149.86 27.7 155.8 27.7 155.8 L 26.2 155.8 L 26.2 144.5 L 27.7 144.5 C 27.7 144.5 27.7 146.6 27.7 146.6 C 28.4 145.3 29.6 144.3 31.6 144.3 C 33.9 144.3 35.3 145.6 35.3 148.1 Z M 43.7 155.8 C 43.7 155.8 42.06 155.78 42.1 155.8 C 40.6 155.8 39.2 155.3 39.2 152.8 C 39.23 152.82 39.2 145.9 39.2 145.9 L 37 145.9 L 37 144.5 L 39.2 144.5 L 39.2 141.3 L 40.8 140.9 L 40.8 144.5 L 43.5 144.5 L 43.5 145.9 L 40.8 145.9 C 40.8 145.9 40.76 152.8 40.8 152.8 C 40.8 153.8 41.1 154.4 42.3 154.4 C 42.31 154.4 43.7 154.4 43.7 154.4 L 43.7 155.8 Z M 46.7 150.5 C 46.7 153.3 48.5 154.6 50.5 154.6 C 52 154.6 53.4 153.9 53.8 152.3 C 53.8 152.3 55.2 152.3 55.2 152.3 C 54.7 154.9 52.5 156 50.4 156 C 47.7 156 45.2 154.2 45.2 150.2 C 45.2 146.1 47.7 144.3 50.4 144.3 C 53.1 144.3 55.3 146 55.3 149.8 C 55.29 149.75 55.3 150.5 55.3 150.5 C 55.3 150.5 46.7 150.51 46.7 150.5 Z M 46.7 149.2 C 46.7 149.2 53.7 149.2 53.7 149.2 C 53.7 146.9 52.3 145.7 50.4 145.7 C 48.6 145.7 47 146.8 46.7 149.2 Z M 60.9 150 L 56.8 144.5 L 58.7 144.5 L 61.9 148.9 L 65 144.5 L 66.9 144.5 L 62.8 149.9 L 67.2 155.8 L 65.2 155.8 L 61.8 151.1 L 58.5 155.8 L 56.6 155.8 L 60.9 150 Z M 74.5 155.8 C 74.5 155.8 72.89 155.78 72.9 155.8 C 71.4 155.8 70.1 155.3 70.1 152.8 C 70.06 152.82 70.1 145.9 70.1 145.9 L 67.8 145.9 L 67.8 144.5 L 70.1 144.5 L 70.1 141.3 L 71.6 140.9 L 71.6 144.5 L 74.3 144.5 L 74.3 145.9 L 71.6 145.9 C 71.6 145.9 71.59 152.8 71.6 152.8 C 71.6 153.8 71.9 154.4 73.1 154.4 C 73.14 154.4 74.5 154.4 74.5 154.4 L 74.5 155.8 Z M 77.5 150.5 C 77.6 153.3 79.3 154.6 81.3 154.6 C 82.8 154.6 84.3 153.9 84.6 152.3 C 84.6 152.3 86 152.3 86 152.3 C 85.5 154.9 83.3 156 81.2 156 C 78.5 156 76 154.2 76 150.2 C 76 146.1 78.6 144.3 81.3 144.3 C 83.9 144.3 86.1 146 86.1 149.8 C 86.12 149.75 86.1 150.5 86.1 150.5 C 86.1 150.5 77.53 150.51 77.5 150.5 Z M 77.6 149.2 C 77.6 149.2 84.6 149.2 84.6 149.2 C 84.6 146.9 83.1 145.7 81.2 145.7 C 79.4 145.7 77.8 146.8 77.6 149.2 Z M 103.4 155.8 L 101.9 155.8 C 101.9 155.8 101.91 153.6 101.9 153.6 C 101.4 154.9 100 156 97.9 156 C 94.9 156 92.8 153.7 92.8 150.1 C 92.8 146.6 94.9 144.3 97.9 144.3 C 99.8 144.3 101.2 145.2 101.8 146.4 C 101.85 146.42 101.8 139.8 101.8 139.8 L 103.4 139.8 L 103.4 155.8 Z M 101.8 150.1 C 101.8 147.3 100.3 145.7 98.1 145.7 C 95.9 145.7 94.4 147.4 94.4 150.1 C 94.4 152.9 95.9 154.6 98.1 154.6 C 100.3 154.6 101.8 152.9 101.8 150.1 Z M 107.5 150.5 C 107.6 153.3 109.3 154.6 111.3 154.6 C 112.8 154.6 114.2 153.9 114.6 152.3 C 114.6 152.3 116 152.3 116 152.3 C 115.5 154.9 113.3 156 111.2 156 C 108.5 156 106 154.2 106 150.2 C 106 146.1 108.5 144.3 111.3 144.3 C 113.9 144.3 116.1 146 116.1 149.8 C 116.11 149.75 116.1 150.5 116.1 150.5 C 116.1 150.5 107.52 150.51 107.5 150.5 Z M 107.6 149.2 C 107.6 149.2 114.6 149.2 114.6 149.2 C 114.6 146.9 113.1 145.7 111.2 145.7 C 109.4 145.7 107.8 146.8 107.6 149.2 Z M 127.4 141.1 C 126.1 141.1 125.8 141.7 125.8 142.8 C 125.81 142.76 125.8 144.5 125.8 144.5 L 128.3 144.5 L 128.3 145.9 L 125.8 145.9 L 125.8 155.8 L 124.3 155.8 L 124.3 145.9 L 122.4 145.9 L 122.4 144.5 L 124.3 144.5 C 124.3 144.5 124.28 142.72 124.3 142.7 C 124.3 140.2 125.6 139.8 127.1 139.8 C 127.11 139.78 128.6 139.8 128.6 139.8 L 128.6 141.1 C 128.6 141.1 127.36 141.14 127.4 141.1 Z M 137.5 153.7 C 136.6 155.4 134.9 156 133.5 156 C 131.6 156 129.9 154.9 129.9 152.7 C 129.9 150.6 131.4 149.6 133.3 149.4 C 133.3 149.4 136 149 136 149 C 136.8 148.9 137.5 148.6 137.5 147.6 C 137.5 146.3 136.4 145.6 134.8 145.6 C 133.1 145.6 132.1 146.4 131.8 147.7 C 131.8 147.7 130.3 147.7 130.3 147.7 C 130.6 145.4 132.4 144.3 134.9 144.3 C 137.5 144.3 139 145.5 139 148 C 139.02 147.99 139 155.8 139 155.8 L 137.5 155.8 C 137.5 155.8 137.53 153.72 137.5 153.7 Z M 135.7 150.3 C 135.7 150.3 133.9 150.5 133.9 150.5 C 132.5 150.7 131.4 151.2 131.4 152.6 C 131.4 154 132.5 154.6 133.8 154.6 C 135.5 154.6 137.5 153.3 137.5 150.9 C 137.5 150.9 137.5 149.8 137.5 149.8 C 137.1 150.1 136.4 150.2 135.7 150.3 Z M 143.8 139.8 L 142.1 139.8 L 142.1 141.7 L 143.8 141.7 L 143.8 139.8 Z M 143.7 155.8 L 142.2 155.8 L 142.2 144.5 L 143.7 144.5 L 143.7 155.8 Z M 157.6 150.1 C 157.6 153.6 155.5 156 152.5 156 C 150.5 156 149.1 154.9 148.5 153.7 C 148.53 153.7 148.5 155.8 148.5 155.8 L 147.1 155.8 L 147.1 139.8 L 148.6 139.8 C 148.6 139.8 148.59 146.77 148.6 146.8 C 149.2 145.4 150.6 144.3 152.6 144.3 C 155.5 144.3 157.6 146.5 157.6 150.1 Z M 156 150.2 C 156 147.4 154.5 145.8 152.4 145.8 C 150.2 145.8 148.6 147.4 148.6 150.2 C 148.6 153 150.1 154.7 152.3 154.7 C 154.5 154.7 156 152.9 156 150.2 Z M 161.7 155.8 L 160.2 155.8 L 160.2 139.8 L 161.7 139.8 L 161.7 155.8 Z M 165.9 150.5 C 165.9 153.3 167.6 154.6 169.6 154.6 C 171.1 154.6 172.6 153.9 172.9 152.3 C 172.9 152.3 174.4 152.3 174.4 152.3 C 173.9 154.9 171.7 156 169.6 156 C 166.9 156 164.4 154.2 164.4 150.2 C 164.4 146.1 166.9 144.3 169.6 144.3 C 172.3 144.3 174.5 146 174.5 149.8 C 174.47 149.75 174.5 150.5 174.5 150.5 C 174.5 150.5 165.88 150.51 165.9 150.5 Z M 165.9 149.2 C 165.9 149.2 172.9 149.2 172.9 149.2 C 172.9 146.9 171.4 145.7 169.6 145.7 C 167.8 145.7 166.1 146.8 165.9 149.2 Z M 185.5 152.6 C 185.5 154.9 183.4 156 181.1 156 C 178.7 156 176.5 154.8 176.3 152.3 C 176.3 152.3 177.9 152.3 177.9 152.3 C 178.1 154 179.6 154.6 181.1 154.6 C 182.6 154.6 183.9 154.1 183.9 152.8 C 183.9 151.5 182.6 151.2 181.2 151 C 179.1 150.6 176.5 150.2 176.5 147.6 C 176.5 145.4 178.5 144.3 180.8 144.3 C 183.2 144.3 185.1 145.4 185.2 147.7 C 185.2 147.7 183.6 147.7 183.6 147.7 C 183.5 146.3 182.2 145.7 180.7 145.7 C 179.2 145.7 178.1 146.4 178.1 147.5 C 178.1 149 179.5 149.2 181.2 149.5 C 183.2 149.8 185.5 150.1 185.5 152.6 Z M 198.9 145.8 C 198.9 145.8 198.51 145.83 198.5 145.8 C 196.1 145.8 194.8 147.2 194.8 149.8 C 194.77 149.8 194.8 155.8 194.8 155.8 L 193.2 155.8 L 193.2 144.5 L 194.8 144.5 C 194.8 144.5 194.75 146.58 194.8 146.6 C 195.3 145.1 196.6 144.4 198.4 144.4 C 198.39 144.38 198.9 144.4 198.9 144.4 L 198.9 145.8 Z M 201.4 150.5 C 201.5 153.3 203.2 154.6 205.2 154.6 C 206.7 154.6 208.2 153.9 208.5 152.3 C 208.5 152.3 209.9 152.3 209.9 152.3 C 209.4 154.9 207.2 156 205.1 156 C 202.4 156 199.9 154.2 199.9 150.2 C 199.9 146.1 202.5 144.3 205.2 144.3 C 207.8 144.3 210 146 210 149.8 C 210.02 149.75 210 150.5 210 150.5 C 210 150.5 201.43 150.51 201.4 150.5 Z M 201.5 149.2 C 201.5 149.2 208.5 149.2 208.5 149.2 C 208.5 146.9 207 145.7 205.1 145.7 C 203.3 145.7 201.7 146.8 201.5 149.2 Z M 221.8 148.1 C 221.8 148.05 221.8 155.8 221.8 155.8 L 220.3 155.8 C 220.3 155.8 220.27 148.24 220.3 148.2 C 220.3 146.7 219.4 145.7 217.8 145.7 C 215.9 145.7 214.2 147.1 214.2 149.9 C 214.18 149.86 214.2 155.8 214.2 155.8 L 212.6 155.8 L 212.6 144.5 L 214.2 144.5 C 214.2 144.5 214.18 146.6 214.2 146.6 C 214.8 145.3 216.1 144.3 218.1 144.3 C 220.3 144.3 221.8 145.6 221.8 148.1 Z M 234.9 155.8 L 233.4 155.8 C 233.4 155.8 233.39 153.6 233.4 153.6 C 232.8 154.9 231.5 156 229.4 156 C 226.4 156 224.3 153.7 224.3 150.1 C 224.3 146.6 226.4 144.3 229.4 144.3 C 231.3 144.3 232.7 145.2 233.3 146.4 C 233.33 146.42 233.3 139.8 233.3 139.8 L 234.9 139.8 L 234.9 155.8 Z M 233.3 150.1 C 233.3 147.3 231.8 145.7 229.6 145.7 C 227.4 145.7 225.9 147.4 225.9 150.1 C 225.9 152.9 227.4 154.6 229.6 154.6 C 231.8 154.6 233.3 152.9 233.3 150.1 Z M 239 150.5 C 239 153.3 240.8 154.6 242.8 154.6 C 244.2 154.6 245.7 153.9 246.1 152.3 C 246.1 152.3 247.5 152.3 247.5 152.3 C 247 154.9 244.8 156 242.7 156 C 240 156 237.5 154.2 237.5 150.2 C 237.5 146.1 240 144.3 242.7 144.3 C 245.4 144.3 247.6 146 247.6 149.8 C 247.59 149.75 247.6 150.5 247.6 150.5 C 247.6 150.5 239 150.51 239 150.5 Z M 239 149.2 C 239 149.2 246 149.2 246 149.2 C 246 146.9 244.6 145.7 242.7 145.7 C 240.9 145.7 239.3 146.8 239 149.2 Z M 250.2 144.5 L 251.7 144.5 C 251.7 144.5 251.72 146.37 251.7 146.4 C 252.3 145 253.6 144.3 255 144.3 C 256.7 144.3 258 145.2 258.3 146.6 C 258.8 145.4 260.1 144.3 262 144.3 C 264.1 144.3 265.7 145.4 265.7 147.7 C 265.69 147.7 265.7 155.8 265.7 155.8 L 264.2 155.8 C 264.2 155.8 264.16 148.24 264.2 148.2 C 264.2 146.5 263.1 145.7 261.8 145.7 C 260.1 145.7 258.7 147 258.7 149.3 C 258.7 149.33 258.7 155.8 258.7 155.8 L 257.2 155.8 C 257.2 155.8 257.18 148.24 257.2 148.2 C 257.2 146.5 256.2 145.7 254.8 145.7 C 253.2 145.7 251.7 146.9 251.7 149.3 C 251.75 149.33 251.7 155.8 251.7 155.8 L 250.2 155.8 L 250.2 144.5 Z M 269.7 150.5 C 269.8 153.3 271.5 154.6 273.5 154.6 C 275 154.6 276.4 153.9 276.8 152.3 C 276.8 152.3 278.2 152.3 278.2 152.3 C 277.7 154.9 275.5 156 273.4 156 C 270.7 156 268.2 154.2 268.2 150.2 C 268.2 146.1 270.8 144.3 273.5 144.3 C 276.1 144.3 278.3 146 278.3 149.8 C 278.31 149.75 278.3 150.5 278.3 150.5 C 278.3 150.5 269.72 150.51 269.7 150.5 Z M 269.8 149.2 C 269.8 149.2 276.8 149.2 276.8 149.2 C 276.8 146.9 275.3 145.7 273.4 145.7 C 271.6 145.7 270 146.8 269.8 149.2 Z M 290.1 148.1 C 290.09 148.05 290.1 155.8 290.1 155.8 L 288.6 155.8 C 288.6 155.8 288.56 148.24 288.6 148.2 C 288.6 146.7 287.7 145.7 286.1 145.7 C 284.1 145.7 282.5 147.1 282.5 149.9 C 282.47 149.86 282.5 155.8 282.5 155.8 L 280.9 155.8 L 280.9 144.5 L 282.5 144.5 C 282.5 144.5 282.47 146.6 282.5 146.6 C 283.1 145.3 284.4 144.3 286.4 144.3 C 288.6 144.3 290.1 145.6 290.1 148.1 Z M 298.5 155.8 C 298.5 155.8 296.83 155.78 296.8 155.8 C 295.3 155.8 294 155.3 294 152.8 C 294 152.82 294 145.9 294 145.9 L 291.8 145.9 L 291.8 144.5 L 294 144.5 L 294 141.3 L 295.5 140.9 L 295.5 144.5 L 298.3 144.5 L 298.3 145.9 L 295.5 145.9 C 295.5 145.9 295.53 152.8 295.5 152.8 C 295.5 153.8 295.8 154.4 297.1 154.4 C 297.08 154.4 298.5 154.4 298.5 154.4 L 298.5 155.8 Z M 309.1 152.6 C 309.1 154.9 307 156 304.7 156 C 302.3 156 300.1 154.8 299.9 152.3 C 299.9 152.3 301.5 152.3 301.5 152.3 C 301.7 154 303.2 154.6 304.7 154.6 C 306.2 154.6 307.5 154.1 307.5 152.8 C 307.5 151.5 306.2 151.2 304.9 151 C 302.7 150.6 300.1 150.2 300.1 147.6 C 300.1 145.4 302.1 144.3 304.4 144.3 C 306.8 144.3 308.7 145.4 308.8 147.7 C 308.8 147.7 307.2 147.7 307.2 147.7 C 307.1 146.3 305.8 145.7 304.3 145.7 C 302.8 145.7 301.7 146.4 301.7 147.5 C 301.7 149 303.1 149.2 304.8 149.5 C 306.8 149.8 309.1 150.1 309.1 152.6 Z M 312.7 155.7 C 312.69 155.66 311.7 155.7 311.7 155.7 L 311.7 153.6 L 313.9 153.6 C 313.9 153.6 313.91 155.72 313.9 155.7 C 313.9 158.2 312.4 159.1 310.9 159.2 C 310.9 159.2 310.7 158.3 310.7 158.3 C 312.4 158 312.7 157 312.7 155.7 Z M 323.1 155.8 L 321.6 155.8 L 321.6 139.8 L 323.1 139.8 L 323.1 155.8 Z M 333.4 153.7 C 332.5 155.4 330.8 156 329.4 156 C 327.4 156 325.7 154.9 325.7 152.7 C 325.7 150.6 327.2 149.6 329.2 149.4 C 329.2 149.4 331.8 149 331.8 149 C 332.7 148.9 333.4 148.6 333.4 147.6 C 333.4 146.3 332.2 145.6 330.7 145.6 C 329 145.6 327.9 146.4 327.7 147.7 C 327.7 147.7 326.2 147.7 326.2 147.7 C 326.5 145.4 328.3 144.3 330.8 144.3 C 333.3 144.3 334.9 145.5 334.9 148 C 334.88 147.99 334.9 155.8 334.9 155.8 L 333.4 155.8 C 333.4 155.8 333.39 153.72 333.4 153.7 Z M 331.5 150.3 C 331.5 150.3 329.8 150.5 329.8 150.5 C 328.4 150.7 327.3 151.2 327.3 152.6 C 327.3 154 328.4 154.6 329.6 154.6 C 331.4 154.6 333.4 153.3 333.4 150.9 C 333.4 150.9 333.4 149.8 333.4 149.8 C 332.9 150.1 332.3 150.2 331.5 150.3 Z " stroke="none" fill="#000"/>  </g>  <g id="Polygon11853">    <path d="M 11.5 130.6 L 10 130.6 C 10 130.6 10.02 128.4 10 128.4 C 9.5 129.7 8.1 130.8 6 130.8 C 3 130.8 0.9 128.5 0.9 124.9 C 0.9 121.4 3 119.1 6 119.1 C 7.9 119.1 9.3 120 10 121.2 C 9.95 121.22 10 114.6 10 114.6 L 11.5 114.6 L 11.5 130.6 Z M 9.9 124.9 C 9.9 122.1 8.4 120.5 6.2 120.5 C 4 120.5 2.5 122.2 2.5 124.9 C 2.5 127.7 4 129.4 6.2 129.4 C 8.4 129.4 9.9 127.7 9.9 124.9 Z M 15.6 125.3 C 15.7 128.1 17.4 129.4 19.4 129.4 C 20.9 129.4 22.3 128.7 22.7 127.1 C 22.7 127.1 24.1 127.1 24.1 127.1 C 23.6 129.7 21.4 130.8 19.3 130.8 C 16.6 130.8 14.1 129 14.1 125 C 14.1 120.9 16.7 119.1 19.4 119.1 C 22 119.1 24.2 120.8 24.2 124.6 C 24.21 124.55 24.2 125.3 24.2 125.3 C 24.2 125.3 15.62 125.31 15.6 125.3 Z M 15.7 124 C 15.7 124 22.7 124 22.7 124 C 22.7 121.7 21.2 120.5 19.3 120.5 C 17.5 120.5 15.9 121.6 15.7 124 Z M 35.2 127.4 C 35.2 129.7 33.1 130.8 30.9 130.8 C 28.5 130.8 26.2 129.6 26 127.1 C 26 127.1 27.6 127.1 27.6 127.1 C 27.9 128.8 29.4 129.4 30.9 129.4 C 32.3 129.4 33.6 128.9 33.6 127.6 C 33.6 126.3 32.3 126 31 125.8 C 28.8 125.4 26.3 125 26.3 122.4 C 26.3 120.2 28.2 119.1 30.5 119.1 C 32.9 119.1 34.8 120.2 34.9 122.5 C 34.9 122.5 33.3 122.5 33.3 122.5 C 33.2 121.1 31.9 120.5 30.4 120.5 C 28.9 120.5 27.9 121.2 27.9 122.3 C 27.9 123.8 29.2 124 30.9 124.3 C 33 124.6 35.2 124.9 35.2 127.4 Z M 44.6 114.6 L 42.9 114.6 L 42.9 116.5 L 44.6 116.5 L 44.6 114.6 Z M 44.5 130.6 L 43 130.6 L 43 119.3 L 44.5 119.3 L 44.5 130.6 Z M 57 122.9 C 57.04 122.85 57 130.6 57 130.6 L 55.5 130.6 C 55.5 130.6 55.5 123.04 55.5 123 C 55.5 121.5 54.6 120.5 53 120.5 C 51.1 120.5 49.4 121.9 49.4 124.7 C 49.41 124.66 49.4 130.6 49.4 130.6 L 47.9 130.6 L 47.9 119.3 L 49.4 119.3 C 49.4 119.3 49.41 121.4 49.4 121.4 C 50.1 120.1 51.3 119.1 53.3 119.1 C 55.6 119.1 57 120.4 57 122.9 Z M 70.1 130.6 L 68.6 130.6 C 68.6 130.6 68.63 128.4 68.6 128.4 C 68.1 129.7 66.7 130.8 64.6 130.8 C 61.7 130.8 59.6 128.5 59.6 124.9 C 59.6 121.4 61.7 119.1 64.6 119.1 C 66.5 119.1 68 120 68.6 121.2 C 68.56 121.22 68.6 114.6 68.6 114.6 L 70.1 114.6 L 70.1 130.6 Z M 68.5 124.9 C 68.5 122.1 67 120.5 64.8 120.5 C 62.6 120.5 61.1 122.2 61.1 124.9 C 61.1 127.7 62.6 129.4 64.8 129.4 C 67 129.4 68.5 127.7 68.5 124.9 Z M 75.1 114.6 L 73.4 114.6 L 73.4 116.5 L 75.1 116.5 L 75.1 114.6 Z M 75 130.6 L 73.5 130.6 L 73.5 119.3 L 75 119.3 L 75 130.6 Z M 82.8 130.8 C 79.7 130.8 77.6 128.5 77.6 125 C 77.6 121.4 79.7 119.1 83 119.1 C 85.5 119.1 87.5 120.5 87.6 123 C 87.6 123 86.1 123 86.1 123 C 86 121.4 84.6 120.5 82.9 120.5 C 80.7 120.5 79.2 122.2 79.2 124.9 C 79.2 127.7 80.7 129.4 82.9 129.4 C 84.6 129.4 86 128.4 86.1 126.6 C 86.1 126.6 87.6 126.6 87.6 126.6 C 87.5 129.3 85.3 130.8 82.8 130.8 Z M 91 125.3 C 91.1 128.1 92.8 129.4 94.8 129.4 C 96.3 129.4 97.8 128.7 98.1 127.1 C 98.1 127.1 99.5 127.1 99.5 127.1 C 99 129.7 96.9 130.8 94.7 130.8 C 92 130.8 89.5 129 89.5 125 C 89.5 120.9 92.1 119.1 94.8 119.1 C 97.4 119.1 99.6 120.8 99.6 124.6 C 99.62 124.55 99.6 125.3 99.6 125.3 C 99.6 125.3 91.03 125.31 91 125.3 Z M 91.1 124 C 91.1 124 98.1 124 98.1 124 C 98.1 121.7 96.6 120.5 94.7 120.5 C 92.9 120.5 91.3 121.6 91.1 124 Z M 110.6 127.4 C 110.6 129.7 108.5 130.8 106.3 130.8 C 103.9 130.8 101.6 129.6 101.4 127.1 C 101.4 127.1 103 127.1 103 127.1 C 103.3 128.8 104.8 129.4 106.3 129.4 C 107.7 129.4 109 128.9 109 127.6 C 109 126.3 107.7 126 106.4 125.8 C 104.2 125.4 101.7 125 101.7 122.4 C 101.7 120.2 103.6 119.1 105.9 119.1 C 108.3 119.1 110.2 120.2 110.3 122.5 C 110.3 122.5 108.7 122.5 108.7 122.5 C 108.6 121.1 107.3 120.5 105.9 120.5 C 104.3 120.5 103.3 121.2 103.3 122.3 C 103.3 123.8 104.6 124 106.3 124.3 C 108.4 124.6 110.6 124.9 110.6 127.4 Z M 127.8 130.6 L 126.3 130.6 C 126.3 130.6 126.31 128.4 126.3 128.4 C 125.8 129.7 124.4 130.8 122.3 130.8 C 119.3 130.8 117.2 128.5 117.2 124.9 C 117.2 121.4 119.3 119.1 122.3 119.1 C 124.2 119.1 125.6 120 126.3 121.2 C 126.25 121.22 126.3 114.6 126.3 114.6 L 127.8 114.6 L 127.8 130.6 Z M 126.2 124.9 C 126.2 122.1 124.7 120.5 122.5 120.5 C 120.3 120.5 118.8 122.2 118.8 124.9 C 118.8 127.7 120.3 129.4 122.5 129.4 C 124.7 129.4 126.2 127.7 126.2 124.9 Z M 131.9 125.3 C 132 128.1 133.7 129.4 135.7 129.4 C 137.2 129.4 138.6 128.7 139 127.1 C 139 127.1 140.4 127.1 140.4 127.1 C 139.9 129.7 137.7 130.8 135.6 130.8 C 132.9 130.8 130.4 129 130.4 125 C 130.4 120.9 132.9 119.1 135.7 119.1 C 138.3 119.1 140.5 120.8 140.5 124.6 C 140.51 124.55 140.5 125.3 140.5 125.3 C 140.5 125.3 131.92 125.31 131.9 125.3 Z M 132 124 C 132 124 139 124 139 124 C 139 121.7 137.5 120.5 135.6 120.5 C 133.8 120.5 132.2 121.6 132 124 Z M 154 120.6 C 154 120.6 153.66 120.63 153.7 120.6 C 151.3 120.6 149.9 122 149.9 124.6 C 149.92 124.6 149.9 130.6 149.9 130.6 L 148.4 130.6 L 148.4 119.3 L 149.9 119.3 C 149.9 119.3 149.9 121.38 149.9 121.4 C 150.4 119.9 151.8 119.2 153.5 119.2 C 153.53 119.18 154 119.2 154 119.2 L 154 120.6 Z M 160.9 117 L 159.7 117 L 162.2 113.2 L 163.5 114.2 L 160.9 117 Z M 156.6 125.3 C 156.6 128.1 158.3 129.4 160.3 129.4 C 161.8 129.4 163.3 128.7 163.6 127.1 C 163.6 127.1 165.1 127.1 165.1 127.1 C 164.6 129.7 162.4 130.8 160.2 130.8 C 157.6 130.8 155.1 129 155.1 125 C 155.1 120.9 157.6 119.1 160.3 119.1 C 163 119.1 165.2 120.8 165.2 124.6 C 165.16 124.55 165.2 125.3 165.2 125.3 C 165.2 125.3 156.57 125.31 156.6 125.3 Z M 156.6 124 C 156.6 124 163.6 124 163.6 124 C 163.6 121.7 162.1 120.5 160.2 120.5 C 158.5 120.5 156.8 121.6 156.6 124 Z M 171.4 115.9 C 170.1 115.9 169.8 116.5 169.8 117.6 C 169.83 117.56 169.8 119.3 169.8 119.3 L 172.3 119.3 L 172.3 120.7 L 169.8 120.7 L 169.8 130.6 L 168.3 130.6 L 168.3 120.7 L 166.4 120.7 L 166.4 119.3 L 168.3 119.3 C 168.3 119.3 168.29 117.52 168.3 117.5 C 168.3 115 169.6 114.6 171.1 114.6 C 171.13 114.58 172.6 114.6 172.6 114.6 L 172.6 115.9 C 172.6 115.9 171.38 115.94 171.4 115.9 Z M 179.5 117 L 178.3 117 L 180.8 113.2 L 182.1 114.2 L 179.5 117 Z M 175.2 125.3 C 175.2 128.1 176.9 129.4 178.9 129.4 C 180.4 129.4 181.9 128.7 182.2 127.1 C 182.2 127.1 183.7 127.1 183.7 127.1 C 183.2 129.7 181 130.8 178.9 130.8 C 176.2 130.8 173.7 129 173.7 125 C 173.7 120.9 176.2 119.1 178.9 119.1 C 181.6 119.1 183.8 120.8 183.8 124.6 C 183.77 124.55 183.8 125.3 183.8 125.3 C 183.8 125.3 175.18 125.31 175.2 125.3 Z M 175.2 124 C 175.2 124 182.2 124 182.2 124 C 182.2 121.7 180.7 120.5 178.9 120.5 C 177.1 120.5 175.4 121.6 175.2 124 Z M 192 120.6 C 192 120.6 191.67 120.63 191.7 120.6 C 189.3 120.6 187.9 122 187.9 124.6 C 187.93 124.6 187.9 130.6 187.9 130.6 L 186.4 130.6 L 186.4 119.3 L 187.9 119.3 C 187.9 119.3 187.91 121.38 187.9 121.4 C 188.4 119.9 189.8 119.2 191.5 119.2 C 191.54 119.18 192 119.2 192 119.2 L 192 120.6 Z M 194.6 125.3 C 194.6 128.1 196.3 129.4 198.3 129.4 C 199.8 129.4 201.3 128.7 201.6 127.1 C 201.6 127.1 203.1 127.1 203.1 127.1 C 202.6 129.7 200.4 130.8 198.3 130.8 C 195.6 130.8 193.1 129 193.1 125 C 193.1 120.9 195.6 119.1 198.3 119.1 C 201 119.1 203.2 120.8 203.2 124.6 C 203.17 124.55 203.2 125.3 203.2 125.3 C 203.2 125.3 194.58 125.31 194.6 125.3 Z M 194.6 124 C 194.6 124 201.6 124 201.6 124 C 201.6 121.7 200.1 120.5 198.3 120.5 C 196.5 120.5 194.8 121.6 194.6 124 Z M 215 122.9 C 214.95 122.85 215 130.6 215 130.6 L 213.4 130.6 C 213.4 130.6 213.42 123.04 213.4 123 C 213.4 121.5 212.5 120.5 210.9 120.5 C 209 120.5 207.3 121.9 207.3 124.7 C 207.33 124.66 207.3 130.6 207.3 130.6 L 205.8 130.6 L 205.8 119.3 L 207.3 119.3 C 207.3 119.3 207.33 121.4 207.3 121.4 C 208 120.1 209.3 119.1 211.2 119.1 C 213.5 119.1 215 120.4 215 122.9 Z M 222.7 130.8 C 219.6 130.8 217.5 128.5 217.5 125 C 217.5 121.4 219.6 119.1 222.8 119.1 C 225.3 119.1 227.3 120.5 227.5 123 C 227.5 123 226 123 226 123 C 225.8 121.4 224.4 120.5 222.8 120.5 C 220.6 120.5 219 122.2 219 124.9 C 219 127.7 220.6 129.4 222.8 129.4 C 224.5 129.4 225.9 128.4 226 126.6 C 226 126.6 227.5 126.6 227.5 126.6 C 227.3 129.3 225.2 130.8 222.7 130.8 Z M 230.9 125.3 C 230.9 128.1 232.7 129.4 234.7 129.4 C 236.1 129.4 237.6 128.7 237.9 127.1 C 237.9 127.1 239.4 127.1 239.4 127.1 C 238.9 129.7 236.7 130.8 234.6 130.8 C 231.9 130.8 229.4 129 229.4 125 C 229.4 120.9 231.9 119.1 234.6 119.1 C 237.3 119.1 239.5 120.8 239.5 124.6 C 239.48 124.55 239.5 125.3 239.5 125.3 C 239.5 125.3 230.89 125.31 230.9 125.3 Z M 230.9 124 C 230.9 124 237.9 124 237.9 124 C 237.9 121.7 236.5 120.5 234.6 120.5 C 232.8 120.5 231.1 121.6 230.9 124 Z M 241.4 128.4 L 243.5 128.4 L 243.5 130.6 L 241.4 130.6 L 241.4 128.4 Z M 264.1 122.4 C 264.1 126.5 261.5 130.6 256.2 130.6 C 256.16 130.58 251.6 130.6 251.6 130.6 L 251.6 114.8 C 251.6 114.8 256.43 114.83 256.4 114.8 C 261.5 114.8 264.1 118.5 264.1 122.4 Z M 262.4 122.5 C 262.4 119.3 260.4 116.2 256.3 116.2 C 256.3 116.24 253.2 116.2 253.2 116.2 L 253.2 129.1 C 253.2 129.1 256.18 129.13 256.2 129.1 C 260.3 129.1 262.4 125.8 262.4 122.5 Z M 273.8 128.5 C 272.9 130.2 271.2 130.8 269.8 130.8 C 267.9 130.8 266.2 129.7 266.2 127.5 C 266.2 125.4 267.6 124.4 269.6 124.2 C 269.6 124.2 272.2 123.8 272.2 123.8 C 273.1 123.7 273.8 123.4 273.8 122.4 C 273.8 121.1 272.7 120.4 271.1 120.4 C 269.4 120.4 268.4 121.2 268.1 122.5 C 268.1 122.5 266.6 122.5 266.6 122.5 C 266.9 120.2 268.7 119.1 271.2 119.1 C 273.8 119.1 275.3 120.3 275.3 122.8 C 275.31 122.79 275.3 130.6 275.3 130.6 L 273.8 130.6 C 273.8 130.6 273.82 128.52 273.8 128.5 Z M 271.9 125.1 C 271.9 125.1 270.2 125.3 270.2 125.3 C 268.8 125.5 267.7 126 267.7 127.4 C 267.7 128.8 268.8 129.4 270.1 129.4 C 271.8 129.4 273.8 128.1 273.8 125.7 C 273.8 125.7 273.8 124.6 273.8 124.6 C 273.4 124.9 272.7 125 271.9 125.1 Z M 287.6 122.9 C 287.61 122.85 287.6 130.6 287.6 130.6 L 286.1 130.6 C 286.1 130.6 286.08 123.04 286.1 123 C 286.1 121.5 285.2 120.5 283.6 120.5 C 281.7 120.5 280 121.9 280 124.7 C 279.99 124.66 280 130.6 280 130.6 L 278.5 130.6 L 278.5 119.3 L 280 119.3 C 280 119.3 279.99 121.4 280 121.4 C 280.7 120.1 281.9 119.1 283.9 119.1 C 286.1 119.1 287.6 120.4 287.6 122.9 Z M 299.2 127.4 C 299.2 129.7 297.2 130.8 294.9 130.8 C 292.5 130.8 290.3 129.6 290 127.1 C 290 127.1 291.7 127.1 291.7 127.1 C 291.9 128.8 293.4 129.4 294.9 129.4 C 296.4 129.4 297.7 128.9 297.7 127.6 C 297.7 126.3 296.3 126 295 125.8 C 292.9 125.4 290.3 125 290.3 122.4 C 290.3 120.2 292.2 119.1 294.5 119.1 C 296.9 119.1 298.8 120.2 299 122.5 C 299 122.5 297.4 122.5 297.4 122.5 C 297.3 121.1 296 120.5 294.5 120.5 C 292.9 120.5 291.9 121.2 291.9 122.3 C 291.9 123.8 293.3 124 295 124.3 C 297 124.6 299.2 124.9 299.2 127.4 Z M 314.4 130.6 C 314.4 130.6 314.43 128.44 314.4 128.4 C 313.7 130 312.3 130.7 310.7 130.7 C 308.6 130.7 306.9 129.4 306.9 126.8 C 306.91 126.76 306.9 119.3 306.9 119.3 L 308.4 119.3 C 308.4 119.3 308.45 126.57 308.4 126.6 C 308.4 128.4 309.5 129.4 310.9 129.4 C 312.8 129.4 314.4 128 314.4 125.1 C 314.37 125.14 314.4 119.3 314.4 119.3 L 315.9 119.3 L 315.9 130.6 L 314.4 130.6 Z M 328.4 122.9 C 328.42 122.85 328.4 130.6 328.4 130.6 L 326.9 130.6 C 326.9 130.6 326.88 123.04 326.9 123 C 326.9 121.5 326 120.5 324.4 120.5 C 322.5 120.5 320.8 121.9 320.8 124.7 C 320.79 124.66 320.8 130.6 320.8 130.6 L 319.3 130.6 L 319.3 119.3 L 320.8 119.3 C 320.8 119.3 320.79 121.4 320.8 121.4 C 321.5 120.1 322.7 119.1 324.7 119.1 C 326.9 119.1 328.4 120.4 328.4 122.9 Z " stroke="none" fill="#000"/>  </g>  <g id="Polygon11852">    <path d="M 10.1 102.2 C 10.1 104.5 8 105.6 5.7 105.6 C 3.3 105.6 1.1 104.4 0.8 101.9 C 0.8 101.9 2.5 101.9 2.5 101.9 C 2.7 103.6 4.2 104.2 5.7 104.2 C 7.2 104.2 8.5 103.7 8.5 102.4 C 8.5 101.1 7.2 100.8 5.8 100.6 C 3.7 100.2 1.1 99.8 1.1 97.2 C 1.1 95 3 93.9 5.4 93.9 C 7.7 93.9 9.6 95 9.8 97.3 C 9.8 97.3 8.2 97.3 8.2 97.3 C 8.1 95.9 6.8 95.3 5.3 95.3 C 3.8 95.3 2.7 96 2.7 97.1 C 2.7 98.6 4.1 98.8 5.8 99.1 C 7.8 99.4 10.1 99.7 10.1 102.2 Z M 20 105.4 C 20 105.4 19.99 103.24 20 103.2 C 19.2 104.8 17.8 105.5 16.2 105.5 C 14.1 105.5 12.5 104.2 12.5 101.6 C 12.47 101.56 12.5 94.1 12.5 94.1 L 14 94.1 C 14 94.1 14.01 101.37 14 101.4 C 14 103.2 15 104.2 16.5 104.2 C 18.3 104.2 19.9 102.8 19.9 99.9 C 19.93 99.94 19.9 94.1 19.9 94.1 L 21.5 94.1 L 21.5 105.4 L 20 105.4 Z M 30.4 95.4 C 30.4 95.4 30.09 95.43 30.1 95.4 C 27.7 95.4 26.4 96.8 26.4 99.4 C 26.35 99.4 26.4 105.4 26.4 105.4 L 24.8 105.4 L 24.8 94.1 L 26.3 94.1 C 26.3 94.1 26.33 96.18 26.3 96.2 C 26.9 94.7 28.2 94 30 94 C 29.97 93.98 30.4 94 30.4 94 L 30.4 95.4 Z M 46.9 105.4 L 45.4 105.4 C 45.4 105.4 45.4 103.2 45.4 103.2 C 44.9 104.5 43.5 105.6 41.4 105.6 C 38.4 105.6 36.3 103.3 36.3 99.7 C 36.3 96.2 38.4 93.9 41.4 93.9 C 43.3 93.9 44.7 94.8 45.3 96 C 45.34 96.02 45.3 89.4 45.3 89.4 L 46.9 89.4 L 46.9 105.4 Z M 45.3 99.7 C 45.3 96.9 43.8 95.3 41.6 95.3 C 39.4 95.3 37.9 97 37.9 99.7 C 37.9 102.5 39.4 104.2 41.6 104.2 C 43.8 104.2 45.3 102.5 45.3 99.7 Z M 51 100.1 C 51.1 102.9 52.8 104.2 54.8 104.2 C 56.3 104.2 57.7 103.5 58.1 101.9 C 58.1 101.9 59.5 101.9 59.5 101.9 C 59 104.5 56.8 105.6 54.7 105.6 C 52 105.6 49.5 103.8 49.5 99.8 C 49.5 95.7 52 93.9 54.7 93.9 C 57.4 93.9 59.6 95.6 59.6 99.4 C 59.6 99.35 59.6 100.1 59.6 100.1 C 59.6 100.1 51.01 100.11 51 100.1 Z M 51.1 98.8 C 51.1 98.8 58 98.8 58 98.8 C 58 96.5 56.6 95.3 54.7 95.3 C 52.9 95.3 51.3 96.4 51.1 98.8 Z M 70.9 90.7 C 69.6 90.7 69.3 91.3 69.3 92.4 C 69.3 92.36 69.3 94.1 69.3 94.1 L 71.8 94.1 L 71.8 95.5 L 69.3 95.5 L 69.3 105.4 L 67.8 105.4 L 67.8 95.5 L 65.9 95.5 L 65.9 94.1 L 67.8 94.1 C 67.8 94.1 67.77 92.32 67.8 92.3 C 67.8 89.8 69.1 89.4 70.6 89.4 C 70.6 89.38 72.1 89.4 72.1 89.4 L 72.1 90.7 C 72.1 90.7 70.85 90.74 70.9 90.7 Z M 73.1 99.8 C 73.1 96.1 75.4 93.9 78.5 93.9 C 81.6 93.9 83.8 96.1 83.8 99.8 C 83.8 103.4 81.6 105.6 78.5 105.6 C 75.4 105.6 73.1 103.4 73.1 99.8 Z M 82.3 99.7 C 82.3 96.9 80.6 95.3 78.5 95.3 C 76.3 95.3 74.7 97 74.7 99.8 C 74.7 102.6 76.4 104.2 78.5 104.2 C 80.7 104.2 82.3 102.5 82.3 99.7 Z M 92.1 95.4 C 92.1 95.4 91.73 95.43 91.7 95.4 C 89.3 95.4 88 96.8 88 99.4 C 87.99 99.4 88 105.4 88 105.4 L 86.5 105.4 L 86.5 94.1 L 88 94.1 C 88 94.1 87.97 96.18 88 96.2 C 88.5 94.7 89.9 94 91.6 94 C 91.6 93.98 92.1 94 92.1 94 L 92.1 95.4 Z M 99.6 105.4 C 99.6 105.4 97.99 105.38 98 105.4 C 96.5 105.4 95.2 104.9 95.2 102.4 C 95.15 102.42 95.2 95.5 95.2 95.5 L 92.9 95.5 L 92.9 94.1 L 95.2 94.1 L 95.2 90.9 L 96.7 90.5 L 96.7 94.1 L 99.4 94.1 L 99.4 95.5 L 96.7 95.5 C 96.7 95.5 96.68 102.4 96.7 102.4 C 96.7 103.4 97 104 98.2 104 C 98.24 104 99.6 104 99.6 104 L 99.6 105.4 Z M 102.6 100.1 C 102.7 102.9 104.4 104.2 106.4 104.2 C 107.9 104.2 109.3 103.5 109.7 101.9 C 109.7 101.9 111.1 101.9 111.1 101.9 C 110.6 104.5 108.4 105.6 106.3 105.6 C 103.6 105.6 101.1 103.8 101.1 99.8 C 101.1 95.7 103.7 93.9 106.4 93.9 C 109 93.9 111.2 95.6 111.2 99.4 C 111.22 99.35 111.2 100.1 111.2 100.1 C 111.2 100.1 102.63 100.11 102.6 100.1 Z M 102.7 98.8 C 102.7 98.8 109.7 98.8 109.7 98.8 C 109.7 96.5 108.2 95.3 106.3 95.3 C 104.5 95.3 102.9 96.4 102.7 98.8 Z M 122.2 102.2 C 122.2 104.5 120.1 105.6 117.9 105.6 C 115.5 105.6 113.2 104.4 113 101.9 C 113 101.9 114.6 101.9 114.6 101.9 C 114.9 103.6 116.4 104.2 117.9 104.2 C 119.3 104.2 120.6 103.7 120.6 102.4 C 120.6 101.1 119.3 100.8 118 100.6 C 115.8 100.2 113.3 99.8 113.3 97.2 C 113.3 95 115.2 93.9 117.5 93.9 C 119.9 93.9 121.8 95 121.9 97.3 C 121.9 97.3 120.3 97.3 120.3 97.3 C 120.2 95.9 118.9 95.3 117.5 95.3 C 115.9 95.3 114.9 96 114.9 97.1 C 114.9 98.6 116.2 98.8 117.9 99.1 C 120 99.4 122.2 99.7 122.2 102.2 Z M 134.1 105.6 C 131 105.6 128.8 103.3 128.8 99.8 C 128.8 96.2 130.9 93.9 134.2 93.9 C 136.7 93.9 138.7 95.3 138.9 97.8 C 138.9 97.8 137.4 97.8 137.4 97.8 C 137.2 96.2 135.8 95.3 134.2 95.3 C 132 95.3 130.4 97 130.4 99.7 C 130.4 102.5 131.9 104.2 134.1 104.2 C 135.8 104.2 137.2 103.2 137.3 101.4 C 137.3 101.4 138.9 101.4 138.9 101.4 C 138.7 104.1 136.6 105.6 134.1 105.6 Z M 140.7 99.8 C 140.7 96.1 143 93.9 146.1 93.9 C 149.2 93.9 151.4 96.1 151.4 99.8 C 151.4 103.4 149.2 105.6 146.1 105.6 C 143 105.6 140.7 103.4 140.7 99.8 Z M 149.9 99.7 C 149.9 96.9 148.2 95.3 146.1 95.3 C 143.8 95.3 142.3 97 142.3 99.8 C 142.3 102.6 144 104.2 146.1 104.2 C 148.3 104.2 149.9 102.5 149.9 99.7 Z M 163.2 97.7 C 163.21 97.65 163.2 105.4 163.2 105.4 L 161.7 105.4 C 161.7 105.4 161.68 97.84 161.7 97.8 C 161.7 96.3 160.8 95.3 159.2 95.3 C 157.3 95.3 155.6 96.7 155.6 99.5 C 155.59 99.46 155.6 105.4 155.6 105.4 L 154.1 105.4 L 154.1 94.1 L 155.6 94.1 C 155.6 94.1 155.59 96.2 155.6 96.2 C 156.3 94.9 157.5 93.9 159.5 93.9 C 161.7 93.9 163.2 95.2 163.2 97.7 Z M 170.9 105.4 L 169.3 105.4 L 165.1 94.1 L 166.8 94.1 L 170.1 103.8 L 173.5 94.1 L 175.1 94.1 L 170.9 105.4 Z M 178.8 89.4 L 177 89.4 L 177 91.3 L 178.8 91.3 L 178.8 89.4 Z M 178.7 105.4 L 177.1 105.4 L 177.1 94.1 L 178.7 94.1 L 178.7 105.4 Z M 186.5 105.6 C 183.4 105.6 181.3 103.3 181.3 99.8 C 181.3 96.2 183.4 93.9 186.6 93.9 C 189.1 93.9 191.1 95.3 191.3 97.8 C 191.3 97.8 189.8 97.8 189.8 97.8 C 189.6 96.2 188.3 95.3 186.6 95.3 C 184.4 95.3 182.8 97 182.8 99.7 C 182.8 102.5 184.4 104.2 186.6 104.2 C 188.3 104.2 189.7 103.2 189.8 101.4 C 189.8 101.4 191.3 101.4 191.3 101.4 C 191.1 104.1 189 105.6 186.5 105.6 Z M 199.1 105.4 C 199.1 105.4 197.42 105.38 197.4 105.4 C 195.9 105.4 194.6 104.9 194.6 102.4 C 194.58 102.42 194.6 95.5 194.6 95.5 L 192.4 95.5 L 192.4 94.1 L 194.6 94.1 L 194.6 90.9 L 196.1 90.5 L 196.1 94.1 L 198.8 94.1 L 198.8 95.5 L 196.1 95.5 C 196.1 95.5 196.12 102.4 196.1 102.4 C 196.1 103.4 196.4 104 197.7 104 C 197.67 104 199.1 104 199.1 104 L 199.1 105.4 Z M 202.9 89.4 L 201.2 89.4 L 201.2 91.3 L 202.9 91.3 L 202.9 89.4 Z M 202.8 105.4 L 201.3 105.4 L 201.3 94.1 L 202.8 94.1 L 202.8 105.4 Z M 205.4 99.8 C 205.4 96.1 207.7 93.9 210.8 93.9 C 213.9 93.9 216.1 96.1 216.1 99.8 C 216.1 103.4 213.9 105.6 210.8 105.6 C 207.7 105.6 205.4 103.4 205.4 99.8 Z M 214.6 99.7 C 214.6 96.9 212.9 95.3 210.8 95.3 C 208.5 95.3 207 97 207 99.8 C 207 102.6 208.7 104.2 210.8 104.2 C 213 104.2 214.6 102.5 214.6 99.7 Z M 227.9 97.7 C 227.91 97.65 227.9 105.4 227.9 105.4 L 226.4 105.4 C 226.4 105.4 226.38 97.84 226.4 97.8 C 226.4 96.3 225.5 95.3 223.9 95.3 C 222 95.3 220.3 96.7 220.3 99.5 C 220.29 99.46 220.3 105.4 220.3 105.4 L 218.8 105.4 L 218.8 94.1 L 220.3 94.1 C 220.3 94.1 220.29 96.2 220.3 96.2 C 221 94.9 222.2 93.9 224.2 93.9 C 226.4 93.9 227.9 95.2 227.9 97.7 Z M 239.5 102.2 C 239.5 104.5 237.5 105.6 235.2 105.6 C 232.8 105.6 230.6 104.4 230.3 101.9 C 230.3 101.9 232 101.9 232 101.9 C 232.2 103.6 233.7 104.2 235.2 104.2 C 236.7 104.2 237.9 103.7 237.9 102.4 C 237.9 101.1 236.6 100.8 235.3 100.6 C 233.2 100.2 230.6 99.8 230.6 97.2 C 230.6 95 232.5 93.9 234.8 93.9 C 237.2 93.9 239.1 95 239.3 97.3 C 239.3 97.3 237.7 97.3 237.7 97.3 C 237.5 95.9 236.2 95.3 234.8 95.3 C 233.2 95.3 232.2 96 232.2 97.1 C 232.2 98.6 233.6 98.8 235.3 99.1 C 237.3 99.4 239.5 99.7 239.5 102.2 Z M 247.7 100.1 C 247.7 102.9 249.4 104.2 251.4 104.2 C 252.9 104.2 254.4 103.5 254.7 101.9 C 254.7 101.9 256.2 101.9 256.2 101.9 C 255.7 104.5 253.5 105.6 251.3 105.6 C 248.7 105.6 246.2 103.8 246.2 99.8 C 246.2 95.7 248.7 93.9 251.4 93.9 C 254.1 93.9 256.3 95.6 256.3 99.4 C 256.26 99.35 256.3 100.1 256.3 100.1 C 256.3 100.1 247.67 100.11 247.7 100.1 Z M 247.7 98.8 C 247.7 98.8 254.7 98.8 254.7 98.8 C 254.7 96.5 253.2 95.3 251.3 95.3 C 249.6 95.3 247.9 96.4 247.7 98.8 Z M 264 105.4 C 264 105.4 262.37 105.38 262.4 105.4 C 260.9 105.4 259.5 104.9 259.5 102.4 C 259.54 102.42 259.5 95.5 259.5 95.5 L 257.3 95.5 L 257.3 94.1 L 259.5 94.1 L 259.5 90.9 L 261.1 90.5 L 261.1 94.1 L 263.8 94.1 L 263.8 95.5 L 261.1 95.5 C 261.1 95.5 261.07 102.4 261.1 102.4 C 261.1 103.4 261.4 104 262.6 104 C 262.62 104 264 104 264 104 L 264 105.4 Z M 280.9 97.7 C 280.85 97.65 280.9 105.4 280.9 105.4 L 279.3 105.4 C 279.3 105.4 279.32 97.84 279.3 97.8 C 279.3 96.3 278.4 95.3 276.8 95.3 C 274.9 95.3 273.2 96.7 273.2 99.5 C 273.23 99.46 273.2 105.4 273.2 105.4 L 271.7 105.4 L 271.7 94.1 L 273.2 94.1 C 273.2 94.1 273.23 96.2 273.2 96.2 C 273.9 94.9 275.2 93.9 277.1 93.9 C 279.4 93.9 280.9 95.2 280.9 97.7 Z M 283.4 99.8 C 283.4 96.1 285.6 93.9 288.7 93.9 C 291.8 93.9 294.1 96.1 294.1 99.8 C 294.1 103.4 291.8 105.6 288.7 105.6 C 285.6 105.6 283.4 103.4 283.4 99.8 Z M 292.5 99.7 C 292.5 96.9 290.8 95.3 288.7 95.3 C 286.5 95.3 284.9 97 284.9 99.8 C 284.9 102.6 286.6 104.2 288.7 104.2 C 290.9 104.2 292.5 102.5 292.5 99.7 Z M 305.8 97.7 C 305.84 97.65 305.8 105.4 305.8 105.4 L 304.3 105.4 C 304.3 105.4 304.31 97.84 304.3 97.8 C 304.3 96.3 303.4 95.3 301.8 95.3 C 299.9 95.3 298.2 96.7 298.2 99.5 C 298.22 99.46 298.2 105.4 298.2 105.4 L 296.7 105.4 L 296.7 94.1 L 298.2 94.1 C 298.2 94.1 298.22 96.2 298.2 96.2 C 298.9 94.9 300.1 93.9 302.1 93.9 C 304.4 93.9 305.8 95.2 305.8 97.7 Z M 322.7 102.2 C 322.7 104.5 320.6 105.6 318.4 105.6 C 316 105.6 313.7 104.4 313.5 101.9 C 313.5 101.9 315.1 101.9 315.1 101.9 C 315.4 103.6 316.9 104.2 318.4 104.2 C 319.8 104.2 321.1 103.7 321.1 102.4 C 321.1 101.1 319.8 100.8 318.5 100.6 C 316.3 100.2 313.8 99.8 313.8 97.2 C 313.8 95 315.7 93.9 318 93.9 C 320.4 93.9 322.3 95 322.4 97.3 C 322.4 97.3 320.8 97.3 320.8 97.3 C 320.7 95.9 319.4 95.3 318 95.3 C 316.4 95.3 315.4 96 315.4 97.1 C 315.4 98.6 316.7 98.8 318.4 99.1 C 320.5 99.4 322.7 99.7 322.7 102.2 Z M 332.7 105.4 C 332.7 105.4 332.66 103.24 332.7 103.2 C 331.9 104.8 330.5 105.5 328.9 105.5 C 326.8 105.5 325.1 104.2 325.1 101.6 C 325.14 101.56 325.1 94.1 325.1 94.1 L 326.7 94.1 C 326.7 94.1 326.67 101.37 326.7 101.4 C 326.7 103.2 327.7 104.2 329.2 104.2 C 331 104.2 332.6 102.8 332.6 99.9 C 332.59 99.94 332.6 94.1 332.6 94.1 L 334.1 94.1 L 334.1 105.4 L 332.7 105.4 Z M 343.1 95.4 C 343.1 95.4 342.76 95.43 342.8 95.4 C 340.4 95.4 339 96.8 339 99.4 C 339.02 99.4 339 105.4 339 105.4 L 337.5 105.4 L 337.5 94.1 L 339 94.1 C 339 94.1 339 96.18 339 96.2 C 339.5 94.7 340.9 94 342.6 94 C 342.63 93.98 343.1 94 343.1 94 L 343.1 95.4 Z " stroke="none" fill="#000"/>  </g>  <g id="Polygon11851">    <path d="M 13.6 80.2 L 11.9 80.2 L 3.4 66.6 L 3.4 80.2 L 1.9 80.2 L 1.9 64.4 L 3.9 64.4 L 12.1 77.6 L 12.1 64.4 L 13.6 64.4 L 13.6 80.2 Z M 16.5 74.6 C 16.5 70.9 18.7 68.7 21.8 68.7 C 24.9 68.7 27.2 70.9 27.2 74.6 C 27.2 78.2 24.9 80.4 21.8 80.4 C 18.7 80.4 16.5 78.2 16.5 74.6 Z M 25.6 74.5 C 25.6 71.7 23.9 70.1 21.8 70.1 C 19.6 70.1 18.1 71.8 18.1 74.6 C 18.1 77.4 19.8 79 21.9 79 C 24 79 25.6 77.3 25.6 74.5 Z M 38.2 77 C 38.2 79.3 36.1 80.4 33.8 80.4 C 31.4 80.4 29.2 79.2 29 76.7 C 29 76.7 30.6 76.7 30.6 76.7 C 30.8 78.4 32.3 79 33.9 79 C 35.3 79 36.6 78.5 36.6 77.2 C 36.6 75.9 35.3 75.6 34 75.4 C 31.8 75 29.2 74.6 29.2 72 C 29.2 69.8 31.2 68.7 33.5 68.7 C 35.9 68.7 37.8 69.8 37.9 72.1 C 37.9 72.1 36.3 72.1 36.3 72.1 C 36.2 70.7 34.9 70.1 33.4 70.1 C 31.9 70.1 30.8 70.8 30.8 71.9 C 30.8 73.4 32.2 73.6 33.9 73.9 C 35.9 74.2 38.2 74.5 38.2 77 Z M 47.6 64.2 L 45.8 64.2 L 45.8 66.1 L 47.6 66.1 L 47.6 64.2 Z M 47.5 80.2 L 45.9 80.2 L 45.9 68.9 L 47.5 68.9 L 47.5 80.2 Z M 60 72.5 C 60 72.45 60 80.2 60 80.2 L 58.5 80.2 C 58.5 80.2 58.46 72.64 58.5 72.6 C 58.5 71.1 57.6 70.1 56 70.1 C 54.1 70.1 52.4 71.5 52.4 74.3 C 52.37 74.26 52.4 80.2 52.4 80.2 L 50.8 80.2 L 50.8 68.9 L 52.4 68.9 C 52.4 68.9 52.37 71 52.4 71 C 53 69.7 54.3 68.7 56.3 68.7 C 58.5 68.7 60 70 60 72.5 Z M 67.7 80.2 L 66.1 80.2 L 61.9 68.9 L 63.5 68.9 L 66.9 78.6 L 70.3 68.9 L 71.9 68.9 L 67.7 80.2 Z M 74.5 74.9 C 74.5 77.7 76.3 79 78.2 79 C 79.7 79 81.2 78.3 81.5 76.7 C 81.5 76.7 83 76.7 83 76.7 C 82.5 79.3 80.3 80.4 78.2 80.4 C 75.5 80.4 73 78.6 73 74.6 C 73 70.5 75.5 68.7 78.2 68.7 C 80.9 68.7 83.1 70.4 83.1 74.2 C 83.08 74.15 83.1 74.9 83.1 74.9 C 83.1 74.9 74.49 74.91 74.5 74.9 Z M 74.5 73.6 C 74.5 73.6 81.5 73.6 81.5 73.6 C 81.5 71.3 80.1 70.1 78.2 70.1 C 76.4 70.1 74.7 71.2 74.5 73.6 Z M 94.1 77 C 94.1 79.3 92 80.4 89.7 80.4 C 87.3 80.4 85.1 79.2 84.9 76.7 C 84.9 76.7 86.5 76.7 86.5 76.7 C 86.8 78.4 88.2 79 89.8 79 C 91.2 79 92.5 78.5 92.5 77.2 C 92.5 75.9 91.2 75.6 89.9 75.4 C 87.7 75 85.1 74.6 85.1 72 C 85.1 69.8 87.1 68.7 89.4 68.7 C 91.8 68.7 93.7 69.8 93.8 72.1 C 93.8 72.1 92.2 72.1 92.2 72.1 C 92.1 70.7 90.8 70.1 89.3 70.1 C 87.8 70.1 86.7 70.8 86.7 71.9 C 86.7 73.4 88.1 73.6 89.8 73.9 C 91.8 74.2 94.1 74.5 94.1 77 Z M 101.7 80.2 C 101.7 80.2 100.09 80.18 100.1 80.2 C 98.6 80.2 97.3 79.7 97.3 77.2 C 97.25 77.22 97.3 70.3 97.3 70.3 L 95 70.3 L 95 68.9 L 97.3 68.9 L 97.3 65.7 L 98.8 65.3 L 98.8 68.9 L 101.5 68.9 L 101.5 70.3 L 98.8 70.3 C 98.8 70.3 98.78 77.2 98.8 77.2 C 98.8 78.2 99.1 78.8 100.3 78.8 C 100.34 78.8 101.7 78.8 101.7 78.8 L 101.7 80.2 Z M 105.6 64.2 L 103.8 64.2 L 103.8 66.1 L 105.6 66.1 L 105.6 64.2 Z M 105.5 80.2 L 103.9 80.2 L 103.9 68.9 L 105.5 68.9 L 105.5 80.2 Z M 117.2 77 C 117.2 79.3 115.1 80.4 112.9 80.4 C 110.5 80.4 108.2 79.2 108 76.7 C 108 76.7 109.6 76.7 109.6 76.7 C 109.9 78.4 111.4 79 112.9 79 C 114.3 79 115.6 78.5 115.6 77.2 C 115.6 75.9 114.3 75.6 113 75.4 C 110.8 75 108.3 74.6 108.3 72 C 108.3 69.8 110.2 68.7 112.5 68.7 C 114.9 68.7 116.8 69.8 116.9 72.1 C 116.9 72.1 115.3 72.1 115.3 72.1 C 115.2 70.7 113.9 70.1 112.5 70.1 C 110.9 70.1 109.9 70.8 109.9 71.9 C 109.9 73.4 111.2 73.6 112.9 73.9 C 115 74.2 117.2 74.5 117.2 77 Z M 128.1 77 C 128.1 79.3 126 80.4 123.8 80.4 C 121.4 80.4 119.1 79.2 118.9 76.7 C 118.9 76.7 120.5 76.7 120.5 76.7 C 120.8 78.4 122.3 79 123.8 79 C 125.2 79 126.5 78.5 126.5 77.2 C 126.5 75.9 125.2 75.6 123.9 75.4 C 121.7 75 119.2 74.6 119.2 72 C 119.2 69.8 121.1 68.7 123.4 68.7 C 125.8 68.7 127.7 69.8 127.8 72.1 C 127.8 72.1 126.2 72.1 126.2 72.1 C 126.1 70.7 124.8 70.1 123.4 70.1 C 121.8 70.1 120.8 70.8 120.8 71.9 C 120.8 73.4 122.1 73.6 123.8 73.9 C 125.9 74.2 128.1 74.5 128.1 77 Z M 131.4 74.9 C 131.5 77.7 133.2 79 135.2 79 C 136.7 79 138.1 78.3 138.5 76.7 C 138.5 76.7 139.9 76.7 139.9 76.7 C 139.4 79.3 137.2 80.4 135.1 80.4 C 132.4 80.4 129.9 78.6 129.9 74.6 C 129.9 70.5 132.4 68.7 135.2 68.7 C 137.8 68.7 140 70.4 140 74.2 C 140.01 74.15 140 74.9 140 74.9 C 140 74.9 131.42 74.91 131.4 74.9 Z M 131.5 73.6 C 131.5 73.6 138.5 73.6 138.5 73.6 C 138.5 71.3 137 70.1 135.1 70.1 C 133.3 70.1 131.7 71.2 131.5 73.6 Z M 142.6 68.9 L 144.1 68.9 C 144.1 68.9 144.14 70.77 144.1 70.8 C 144.8 69.4 146 68.7 147.4 68.7 C 149.1 68.7 150.4 69.6 150.8 71 C 151.3 69.8 152.5 68.7 154.5 68.7 C 156.5 68.7 158.1 69.8 158.1 72.1 C 158.11 72.1 158.1 80.2 158.1 80.2 L 156.6 80.2 C 156.6 80.2 156.57 72.64 156.6 72.6 C 156.6 70.9 155.5 70.1 154.2 70.1 C 152.5 70.1 151.1 71.4 151.1 73.7 C 151.11 73.73 151.1 80.2 151.1 80.2 L 149.6 80.2 C 149.6 80.2 149.6 72.64 149.6 72.6 C 149.6 70.9 148.6 70.1 147.2 70.1 C 145.6 70.1 144.2 71.3 144.2 73.7 C 144.16 73.73 144.2 80.2 144.2 80.2 L 142.6 80.2 L 142.6 68.9 Z M 162.1 74.9 C 162.2 77.7 163.9 79 165.9 79 C 167.4 79 168.9 78.3 169.2 76.7 C 169.2 76.7 170.6 76.7 170.6 76.7 C 170.1 79.3 168 80.4 165.8 80.4 C 163.1 80.4 160.6 78.6 160.6 74.6 C 160.6 70.5 163.2 68.7 165.9 68.7 C 168.5 68.7 170.7 70.4 170.7 74.2 C 170.73 74.15 170.7 74.9 170.7 74.9 C 170.7 74.9 162.14 74.91 162.1 74.9 Z M 162.2 73.6 C 162.2 73.6 169.2 73.6 169.2 73.6 C 169.2 71.3 167.7 70.1 165.8 70.1 C 164.1 70.1 162.4 71.2 162.2 73.6 Z M 182.5 72.5 C 182.51 72.45 182.5 80.2 182.5 80.2 L 181 80.2 C 181 80.2 180.98 72.64 181 72.6 C 181 71.1 180.1 70.1 178.5 70.1 C 176.6 70.1 174.9 71.5 174.9 74.3 C 174.89 74.26 174.9 80.2 174.9 80.2 L 173.4 80.2 L 173.4 68.9 L 174.9 68.9 C 174.9 68.9 174.89 71 174.9 71 C 175.6 69.7 176.8 68.7 178.8 68.7 C 181 68.7 182.5 70 182.5 72.5 Z M 190.9 80.2 C 190.9 80.2 189.25 80.18 189.3 80.2 C 187.8 80.2 186.4 79.7 186.4 77.2 C 186.42 77.22 186.4 70.3 186.4 70.3 L 184.2 70.3 L 184.2 68.9 L 186.4 68.9 L 186.4 65.7 L 187.9 65.3 L 187.9 68.9 L 190.7 68.9 L 190.7 70.3 L 187.9 70.3 C 187.9 70.3 187.95 77.2 187.9 77.2 C 187.9 78.2 188.2 78.8 189.5 78.8 C 189.5 78.8 190.9 78.8 190.9 78.8 L 190.9 80.2 Z M 201.5 77 C 201.5 79.3 199.4 80.4 197.1 80.4 C 194.7 80.4 192.5 79.2 192.3 76.7 C 192.3 76.7 193.9 76.7 193.9 76.7 C 194.2 78.4 195.6 79 197.2 79 C 198.6 79 199.9 78.5 199.9 77.2 C 199.9 75.9 198.6 75.6 197.3 75.4 C 195.1 75 192.5 74.6 192.5 72 C 192.5 69.8 194.5 68.7 196.8 68.7 C 199.2 68.7 201.1 69.8 201.2 72.1 C 201.2 72.1 199.6 72.1 199.6 72.1 C 199.5 70.7 198.2 70.1 196.7 70.1 C 195.2 70.1 194.1 70.8 194.1 71.9 C 194.1 73.4 195.5 73.6 197.2 73.9 C 199.2 74.2 201.5 74.5 201.5 77 Z M 217.2 77 C 217.2 79.3 215.1 80.4 212.9 80.4 C 210.5 80.4 208.2 79.2 208 76.7 C 208 76.7 209.6 76.7 209.6 76.7 C 209.9 78.4 211.4 79 212.9 79 C 214.3 79 215.6 78.5 215.6 77.2 C 215.6 75.9 214.3 75.6 213 75.4 C 210.8 75 208.3 74.6 208.3 72 C 208.3 69.8 210.2 68.7 212.5 68.7 C 214.9 68.7 216.8 69.8 216.9 72.1 C 216.9 72.1 215.3 72.1 215.3 72.1 C 215.2 70.7 213.9 70.1 212.5 70.1 C 210.9 70.1 209.9 70.8 209.9 71.9 C 209.9 73.4 211.2 73.6 212.9 73.9 C 215 74.2 217.2 74.5 217.2 77 Z M 220.5 74.9 C 220.6 77.7 222.3 79 224.3 79 C 225.8 79 227.2 78.3 227.6 76.7 C 227.6 76.7 229 76.7 229 76.7 C 228.5 79.3 226.3 80.4 224.2 80.4 C 221.5 80.4 219 78.6 219 74.6 C 219 70.5 221.5 68.7 224.3 68.7 C 226.9 68.7 229.1 70.4 229.1 74.2 C 229.11 74.15 229.1 74.9 229.1 74.9 C 229.1 74.9 220.52 74.91 220.5 74.9 Z M 220.6 73.6 C 220.6 73.6 227.6 73.6 227.6 73.6 C 227.6 71.3 226.1 70.1 224.2 70.1 C 222.4 70.1 220.8 71.2 220.6 73.6 Z M 240.4 65.5 C 239.1 65.5 238.8 66.1 238.8 67.2 C 238.81 67.16 238.8 68.9 238.8 68.9 L 241.3 68.9 L 241.3 70.3 L 238.8 70.3 L 238.8 80.2 L 237.3 80.2 L 237.3 70.3 L 235.4 70.3 L 235.4 68.9 L 237.3 68.9 C 237.3 68.9 237.28 67.12 237.3 67.1 C 237.3 64.6 238.6 64.2 240.1 64.2 C 240.11 64.18 241.6 64.2 241.6 64.2 L 241.6 65.5 C 241.6 65.5 240.36 65.54 240.4 65.5 Z M 242.7 74.6 C 242.7 70.9 244.9 68.7 248 68.7 C 251.1 68.7 253.3 70.9 253.3 74.6 C 253.3 78.2 251.1 80.4 248 80.4 C 244.9 80.4 242.7 78.2 242.7 74.6 Z M 251.8 74.5 C 251.8 71.7 250.1 70.1 248 70.1 C 245.8 70.1 244.2 71.8 244.2 74.6 C 244.2 77.4 245.9 79 248 79 C 250.2 79 251.8 77.3 251.8 74.5 Z M 265.1 72.5 C 265.12 72.45 265.1 80.2 265.1 80.2 L 263.6 80.2 C 263.6 80.2 263.59 72.64 263.6 72.6 C 263.6 71.1 262.7 70.1 261.1 70.1 C 259.2 70.1 257.5 71.5 257.5 74.3 C 257.5 74.26 257.5 80.2 257.5 80.2 L 256 80.2 L 256 68.9 L 257.5 68.9 C 257.5 68.9 257.5 71 257.5 71 C 258.2 69.7 259.4 68.7 261.4 68.7 C 263.7 68.7 265.1 70 265.1 72.5 Z M 278.2 80.2 L 276.7 80.2 C 276.7 80.2 276.71 78 276.7 78 C 276.2 79.3 274.8 80.4 272.7 80.4 C 269.7 80.4 267.6 78.1 267.6 74.5 C 267.6 71 269.7 68.7 272.7 68.7 C 274.6 68.7 276 69.6 276.7 70.8 C 276.65 70.82 276.7 64.2 276.7 64.2 L 278.2 64.2 L 278.2 80.2 Z M 276.6 74.5 C 276.6 71.7 275.1 70.1 272.9 70.1 C 270.7 70.1 269.2 71.8 269.2 74.5 C 269.2 77.3 270.7 79 272.9 79 C 275.1 79 276.6 77.3 276.6 74.5 Z M 282.3 74.9 C 282.4 77.7 284.1 79 286.1 79 C 287.6 79 289 78.3 289.4 76.7 C 289.4 76.7 290.8 76.7 290.8 76.7 C 290.3 79.3 288.1 80.4 286 80.4 C 283.3 80.4 280.8 78.6 280.8 74.6 C 280.8 70.5 283.4 68.7 286.1 68.7 C 288.7 68.7 290.9 70.4 290.9 74.2 C 290.91 74.15 290.9 74.9 290.9 74.9 C 290.9 74.9 282.32 74.91 282.3 74.9 Z M 282.4 73.6 C 282.4 73.6 289.4 73.6 289.4 73.6 C 289.4 71.3 287.9 70.1 286 70.1 C 284.2 70.1 282.6 71.2 282.4 73.6 Z M 302.7 72.5 C 302.69 72.45 302.7 80.2 302.7 80.2 L 301.2 80.2 C 301.2 80.2 301.16 72.64 301.2 72.6 C 301.2 71.1 300.3 70.1 298.7 70.1 C 296.7 70.1 295.1 71.5 295.1 74.3 C 295.07 74.26 295.1 80.2 295.1 80.2 L 293.5 80.2 L 293.5 68.9 L 295.1 68.9 C 295.1 68.9 295.07 71 295.1 71 C 295.7 69.7 297 68.7 299 68.7 C 301.2 68.7 302.7 70 302.7 72.5 Z M 311.1 80.2 C 311.1 80.2 309.43 80.18 309.4 80.2 C 307.9 80.2 306.6 79.7 306.6 77.2 C 306.6 77.22 306.6 70.3 306.6 70.3 L 304.4 70.3 L 304.4 68.9 L 306.6 68.9 L 306.6 65.7 L 308.1 65.3 L 308.1 68.9 L 310.9 68.9 L 310.9 70.3 L 308.1 70.3 C 308.1 70.3 308.13 77.2 308.1 77.2 C 308.1 78.2 308.4 78.8 309.7 78.8 C 309.68 78.8 311.1 78.8 311.1 78.8 L 311.1 80.2 Z " stroke="none" fill="#000"/>  </g>  <g id="Polygon11850">    <path d="M 6.3 45.2 C 2.5 45.2 0.6 42.3 0.6 39.2 C 0.6 36.1 2.4 33.2 6.2 33.2 C 9.1 33.2 11.3 34.8 11.4 37.6 C 11.4 37.6 8.6 37.6 8.6 37.6 C 8.5 36.5 7.7 35.7 6.3 35.7 C 4.3 35.7 3.4 37.4 3.4 39.2 C 3.4 41.1 4.3 42.6 6.3 42.6 C 7.6 42.6 8.5 41.9 8.7 40.9 C 8.7 40.9 11.4 40.9 11.4 40.9 C 11.1 43.7 9.1 45.2 6.3 45.2 Z M 24 39.2 C 24 43 21.6 45.2 18.4 45.2 C 15.1 45.2 12.7 43 12.7 39.2 C 12.7 35.4 15.1 33.2 18.4 33.2 C 21.6 33.2 24 35.4 24 39.2 Z M 15.6 39.2 C 15.6 41.5 16.8 42.6 18.4 42.6 C 20.1 42.6 21.2 41.4 21.2 39.2 C 21.2 36.9 19.9 35.8 18.3 35.8 C 16.7 35.8 15.6 37 15.6 39.2 Z M 36.2 37.5 C 36.2 37.51 36.2 45 36.2 45 L 33.4 45 C 33.4 45 33.41 37.76 33.4 37.8 C 33.4 36.5 32.7 35.7 31.4 35.7 C 29.8 35.7 28.8 36.8 28.8 38.7 C 28.81 38.72 28.8 45 28.8 45 L 26 45 L 26 33.4 L 28.8 33.4 C 28.8 33.4 28.79 35.07 28.8 35.1 C 29.4 34 30.4 33.2 32.3 33.2 C 35 33.2 36.2 34.7 36.2 37.5 Z M 44.7 45 L 41.7 45 L 37.5 33.4 L 40.4 33.4 L 43.3 41.7 L 46.1 33.4 L 49 33.4 L 44.7 45 Z M 50.3 31.9 L 53.2 31.9 L 53.2 28.7 L 50.3 28.7 L 50.3 31.9 Z M 50.4 33.4 L 53.2 33.4 L 53.2 45 L 50.4 45 L 50.4 33.4 Z M 60.8 45.2 C 57 45.2 55.1 42.3 55.1 39.2 C 55.1 36.1 56.9 33.2 60.7 33.2 C 63.6 33.2 65.8 34.8 65.9 37.6 C 65.9 37.6 63.1 37.6 63.1 37.6 C 63 36.5 62.2 35.7 60.8 35.7 C 58.8 35.7 57.9 37.4 57.9 39.2 C 57.9 41.1 58.8 42.6 60.8 42.6 C 62.1 42.6 63 41.9 63.1 40.9 C 63.1 40.9 65.9 40.9 65.9 40.9 C 65.6 43.7 63.5 45.2 60.8 45.2 Z M 73.9 45 C 73.9 45 72.03 44.98 72 45 C 69.9 45 68.5 44.3 68.5 41.2 C 68.48 41.2 68.5 35.9 68.5 35.9 L 66.4 35.9 L 66.4 33.4 L 68.5 33.4 L 68.5 30.8 L 71.3 30 L 71.3 33.4 L 73.6 33.4 L 73.6 35.9 L 71.3 35.9 C 71.3 35.9 71.27 41.33 71.3 41.3 C 71.3 42 71.5 42.5 72.4 42.5 C 72.45 42.5 73.9 42.5 73.9 42.5 L 73.9 45 Z M 75.3 31.9 L 78.3 31.9 L 78.3 28.7 L 75.3 28.7 L 75.3 31.9 Z M 75.4 33.4 L 78.2 33.4 L 78.2 45 L 75.4 45 L 75.4 33.4 Z M 91.5 39.2 C 91.5 43 89.1 45.2 85.8 45.2 C 82.6 45.2 80.2 43 80.2 39.2 C 80.2 35.4 82.6 33.2 85.8 33.2 C 89.1 33.2 91.5 35.4 91.5 39.2 Z M 83 39.2 C 83 41.5 84.3 42.6 85.9 42.6 C 87.5 42.6 88.6 41.4 88.6 39.2 C 88.6 36.9 87.4 35.8 85.8 35.8 C 84.1 35.8 83 37 83 39.2 Z M 103.7 37.5 C 103.68 37.51 103.7 45 103.7 45 L 100.9 45 C 100.9 45 100.88 37.76 100.9 37.8 C 100.9 36.5 100.1 35.7 98.8 35.7 C 97.2 35.7 96.3 36.8 96.3 38.7 C 96.28 38.72 96.3 45 96.3 45 L 93.5 45 L 93.5 33.4 L 96.3 33.4 C 96.3 33.4 96.26 35.07 96.3 35.1 C 96.9 34 97.9 33.2 99.8 33.2 C 102.4 33.2 103.7 34.7 103.7 37.5 Z M 115.6 41.4 C 115.6 44 113.3 45.2 110.6 45.2 C 108.3 45.2 105.6 44.2 105.5 41.3 C 105.5 41.3 108.3 41.3 108.3 41.3 C 108.5 42.4 109.5 42.9 110.8 42.9 C 112 42.9 112.8 42.5 112.8 41.7 C 112.8 40.9 112.3 40.8 110.7 40.5 C 108.4 40.1 105.8 39.7 105.8 36.9 C 105.8 34.3 108 33.2 110.4 33.2 C 113.1 33.2 115.1 34.5 115.3 37.1 C 115.3 37.1 112.6 37.1 112.6 37.1 C 112.5 36 111.6 35.5 110.5 35.5 C 109.1 35.5 108.5 36.1 108.5 36.8 C 108.5 37.7 109.6 37.9 111 38.1 C 113 38.4 115.6 38.7 115.6 41.4 Z " stroke="none" fill="#000"/>  </g>  <g id="Polygon11849">    <path d="M 13.6 18.5 C 13.57 18.52 15.9 22.6 15.9 22.6 L 12.8 22.6 C 12.8 22.6 11.19 19.8 11.2 19.8 C 10.4 20.1 9.6 20.2 8.7 20.2 C 4.1 20.2 0.8 16.4 0.8 11.9 C 0.8 7.4 4 3.7 8.7 3.7 C 13.5 3.7 16.6 7.4 16.6 11.9 C 16.6 14.6 15.6 17 13.6 18.5 Z M 8.9 17.4 C 9.1 17.4 9.4 17.3 9.6 17.3 C 9.64 17.32 7 12.8 7 12.8 L 10.1 12.8 C 10.1 12.8 12.07 16.15 12.1 16.1 C 13.1 15.1 13.7 13.6 13.7 11.9 C 13.7 8.8 11.8 6.5 8.8 6.5 C 5.7 6.5 3.8 8.8 3.8 12 C 3.8 15 5.6 17.4 8.9 17.4 Z M 29 19.8 L 26.2 19.8 C 26.2 19.8 26.23 18.14 26.2 18.1 C 25.6 19.2 24.5 19.9 22.9 19.9 C 20.5 19.9 18.7 18.4 18.7 15.4 C 18.71 15.39 18.7 8.2 18.7 8.2 L 21.5 8.2 C 21.5 8.2 21.5 15.18 21.5 15.2 C 21.5 16.8 22.3 17.4 23.5 17.4 C 25 17.4 26.2 16.5 26.2 13.8 C 26.17 13.8 26.2 8.2 26.2 8.2 L 29 8.2 L 29 19.8 Z M 36.6 4.5 L 35.3 6.1 L 32.6 6.1 L 35.8 2 L 37.4 2 L 40.6 6.1 L 37.9 6.1 L 36.6 4.5 Z M 33.7 14.8 C 33.7 16.7 35.1 17.6 36.6 17.6 C 37.7 17.6 38.8 17.2 39.1 16.1 C 39.1 16.1 41.7 16.1 41.7 16.1 C 41.2 18.7 38.9 20 36.5 20 C 33.7 20 31 18.1 31 14 C 31 10 33.6 8 36.5 8 C 39.4 8 41.7 9.8 41.7 13.7 C 41.73 13.69 41.7 14.8 41.7 14.8 C 41.7 14.8 33.66 14.83 33.7 14.8 Z M 33.7 12.8 C 33.7 12.8 39 12.8 39 12.8 C 39 11.3 37.9 10.4 36.5 10.4 C 35.2 10.4 34 11.1 33.7 12.8 Z M 49.6 19.8 C 49.6 19.8 47.82 19.78 47.8 19.8 C 45.7 19.8 44.3 19.1 44.3 16 C 44.27 16 44.3 10.7 44.3 10.7 L 42.1 10.7 L 42.1 8.2 L 44.3 8.2 L 44.3 5.6 L 47.1 4.8 L 47.1 8.2 L 49.4 8.2 L 49.4 10.7 L 47.1 10.7 C 47.1 10.7 47.06 16.13 47.1 16.1 C 47.1 16.8 47.2 17.3 48.2 17.3 C 48.24 17.3 49.6 17.3 49.6 17.3 L 49.6 19.8 Z M 53.2 14.8 C 53.3 16.7 54.6 17.6 56.2 17.6 C 57.3 17.6 58.3 17.2 58.7 16.1 C 58.7 16.1 61.2 16.1 61.2 16.1 C 60.7 18.7 58.4 20 56 20 C 53.3 20 50.5 18.1 50.5 14 C 50.5 10 53.1 8 56.1 8 C 58.9 8 61.3 9.8 61.3 13.7 C 61.26 13.69 61.3 14.8 61.3 14.8 C 61.3 14.8 53.19 14.83 53.2 14.8 Z M 53.3 12.8 C 53.3 12.8 58.5 12.8 58.5 12.8 C 58.5 11.3 57.5 10.4 56 10.4 C 54.7 10.4 53.5 11.1 53.3 12.8 Z M 78.7 19.8 L 76 19.8 C 76 19.8 76 18 76 18 C 75.4 19.3 74 20 72.4 20 C 69.7 20 67.3 18 67.3 14 C 67.3 10 69.7 8 72.4 8 C 73.9 8 75.2 8.6 75.9 9.7 C 75.94 9.72 75.9 3.8 75.9 3.8 L 78.7 3.8 L 78.7 19.8 Z M 76 14 C 76 11.6 74.6 10.5 73.1 10.5 C 71.6 10.5 70.2 11.6 70.2 14 C 70.2 16.3 71.6 17.5 73.1 17.5 C 74.6 17.5 76 16.3 76 14 Z M 83.4 14.8 C 83.5 16.7 84.8 17.6 86.4 17.6 C 87.5 17.6 88.6 17.2 88.9 16.1 C 88.9 16.1 91.5 16.1 91.5 16.1 C 91 18.7 88.7 20 86.3 20 C 83.5 20 80.7 18.1 80.7 14 C 80.7 10 83.3 8 86.3 8 C 89.1 8 91.5 9.8 91.5 13.7 C 91.5 13.69 91.5 14.8 91.5 14.8 C 91.5 14.8 83.43 14.83 83.4 14.8 Z M 83.5 12.8 C 83.5 12.8 88.8 12.8 88.8 12.8 C 88.8 11.3 87.7 10.4 86.3 10.4 C 85 10.4 83.7 11.1 83.5 12.8 Z M 105.3 10.8 C 105.3 10.8 104.56 10.77 104.6 10.8 C 102.6 10.8 101.5 11.8 101.5 14.1 C 101.53 14.11 101.5 19.8 101.5 19.8 L 98.7 19.8 L 98.7 8.2 L 101.5 8.2 C 101.5 8.2 101.51 9.85 101.5 9.8 C 102.1 8.6 103.2 8.1 104.5 8.1 C 104.54 8.06 105.3 8.1 105.3 8.1 L 105.3 10.8 Z M 108.4 14.8 C 108.5 16.7 109.8 17.6 111.4 17.6 C 112.5 17.6 113.5 17.2 113.9 16.1 C 113.9 16.1 116.4 16.1 116.4 16.1 C 115.9 18.7 113.7 20 111.3 20 C 108.5 20 105.7 18.1 105.7 14 C 105.7 10 108.3 8 111.3 8 C 114.1 8 116.5 9.8 116.5 13.7 C 116.49 13.69 116.5 14.8 116.5 14.8 C 116.5 14.8 108.42 14.83 108.4 14.8 Z M 108.5 12.8 C 108.5 12.8 113.8 12.8 113.8 12.8 C 113.8 11.3 112.7 10.4 111.3 10.4 C 110 10.4 108.7 11.1 108.5 12.8 Z M 128.7 12.3 C 128.67 12.31 128.7 19.8 128.7 19.8 L 125.9 19.8 C 125.9 19.8 125.87 12.56 125.9 12.6 C 125.9 11.3 125.1 10.5 123.8 10.5 C 122.2 10.5 121.3 11.6 121.3 13.5 C 121.27 13.52 121.3 19.8 121.3 19.8 L 118.5 19.8 L 118.5 8.2 L 121.3 8.2 C 121.3 8.2 121.25 9.87 121.3 9.9 C 121.9 8.8 122.8 8 124.8 8 C 127.4 8 128.7 9.5 128.7 12.3 Z M 141.9 19.8 L 139.2 19.8 C 139.2 19.8 139.21 18 139.2 18 C 138.6 19.3 137.2 20 135.6 20 C 132.9 20 130.6 18 130.6 14 C 130.6 10 132.9 8 135.6 8 C 137.2 8 138.5 8.6 139.1 9.7 C 139.15 9.72 139.1 3.8 139.1 3.8 L 141.9 3.8 L 141.9 19.8 Z M 139.2 14 C 139.2 11.6 137.8 10.5 136.3 10.5 C 134.8 10.5 133.4 11.6 133.4 14 C 133.4 16.3 134.8 17.5 136.3 17.5 C 137.8 17.5 139.2 16.3 139.2 14 Z M 146.6 14.8 C 146.7 16.7 148 17.6 149.6 17.6 C 150.7 17.6 151.8 17.2 152.1 16.1 C 152.1 16.1 154.7 16.1 154.7 16.1 C 154.2 18.7 151.9 20 149.5 20 C 146.7 20 143.9 18.1 143.9 14 C 143.9 10 146.6 8 149.5 8 C 152.3 8 154.7 9.8 154.7 13.7 C 154.71 13.69 154.7 14.8 154.7 14.8 C 154.7 14.8 146.64 14.83 146.6 14.8 Z M 146.7 12.8 C 146.7 12.8 152 12.8 152 12.8 C 152 11.3 150.9 10.4 149.5 10.4 C 148.2 10.4 147 11.1 146.7 12.8 Z M 173.1 12 C 173.06 11.97 173.1 19.8 173.1 19.8 L 170.3 19.8 C 170.3 19.8 170.27 12.52 170.3 12.5 C 170.3 11.1 169.6 10.5 168.5 10.5 C 167.1 10.5 166.3 11.3 166.3 13.3 C 166.28 13.27 166.3 19.8 166.3 19.8 L 163.5 19.8 C 163.5 19.8 163.48 12.52 163.5 12.5 C 163.5 11.1 162.8 10.5 161.7 10.5 C 160.4 10.5 159.5 11.3 159.5 13.3 C 159.49 13.25 159.5 19.8 159.5 19.8 L 156.7 19.8 L 156.7 8.2 L 159.5 8.2 C 159.5 8.2 159.45 9.89 159.5 9.9 C 159.8 9 160.7 8 162.5 8 C 163.9 8 165.1 8.7 165.6 9.9 C 166.1 9.1 166.9 8 169 8 C 171.5 8 173.1 9.5 173.1 12 Z M 177.7 14.8 C 177.7 16.7 179.1 17.6 180.6 17.6 C 181.7 17.6 182.8 17.2 183.1 16.1 C 183.1 16.1 185.7 16.1 185.7 16.1 C 185.2 18.7 182.9 20 180.5 20 C 177.7 20 174.9 18.1 174.9 14 C 174.9 10 177.6 8 180.5 8 C 183.3 8 185.7 9.8 185.7 13.7 C 185.72 13.69 185.7 14.8 185.7 14.8 C 185.7 14.8 177.66 14.83 177.7 14.8 Z M 177.7 12.8 C 177.7 12.8 183 12.8 183 12.8 C 183 11.3 181.9 10.4 180.5 10.4 C 179.2 10.4 178 11.1 177.7 12.8 Z M 197.9 12.3 C 197.9 12.31 197.9 19.8 197.9 19.8 L 195.1 19.8 C 195.1 19.8 195.11 12.56 195.1 12.6 C 195.1 11.3 194.4 10.5 193.1 10.5 C 191.5 10.5 190.5 11.6 190.5 13.5 C 190.51 13.52 190.5 19.8 190.5 19.8 L 187.7 19.8 L 187.7 8.2 L 190.5 8.2 C 190.5 8.2 190.49 9.87 190.5 9.9 C 191.1 8.8 192.1 8 194 8 C 196.7 8 197.9 9.5 197.9 12.3 Z M 206.4 19.8 C 206.4 19.8 204.62 19.78 204.6 19.8 C 202.5 19.8 201.1 19.1 201.1 16 C 201.07 16 201.1 10.7 201.1 10.7 L 199 10.7 L 199 8.2 L 201.1 8.2 L 201.1 5.6 L 203.9 4.8 L 203.9 8.2 L 206.2 8.2 L 206.2 10.7 L 203.9 10.7 C 203.9 10.7 203.87 16.13 203.9 16.1 C 203.9 16.8 204.1 17.3 205 17.3 C 205.04 17.3 206.4 17.3 206.4 17.3 L 206.4 19.8 Z M 215 14.8 C 215.1 16.7 216.4 17.6 218 17.6 C 219.1 17.6 220.2 17.2 220.5 16.1 C 220.5 16.1 223.1 16.1 223.1 16.1 C 222.6 18.7 220.3 20 217.9 20 C 215.1 20 212.3 18.1 212.3 14 C 212.3 10 215 8 217.9 8 C 220.7 8 223.1 9.8 223.1 13.7 C 223.1 13.69 223.1 14.8 223.1 14.8 C 223.1 14.8 215.04 14.83 215 14.8 Z M 215.1 12.8 C 215.1 12.8 220.4 12.8 220.4 12.8 C 220.4 11.3 219.3 10.4 217.9 10.4 C 216.6 10.4 215.4 11.1 215.1 12.8 Z M 231 19.8 C 231 19.8 229.19 19.78 229.2 19.8 C 227 19.8 225.6 19.1 225.6 16 C 225.64 16 225.6 10.7 225.6 10.7 L 223.5 10.7 L 223.5 8.2 L 225.6 8.2 L 225.6 5.6 L 228.4 4.8 L 228.4 8.2 L 230.7 8.2 L 230.7 10.7 L 228.4 10.7 C 228.4 10.7 228.44 16.13 228.4 16.1 C 228.4 16.8 228.6 17.3 229.6 17.3 C 229.61 17.3 231 17.3 231 17.3 L 231 19.8 Z M 242.2 6.3 C 241.2 6.3 241 6.7 241 7.4 C 240.99 7.43 241 8.2 241 8.2 L 243.1 8.2 L 243.1 10.7 L 241 10.7 L 241 19.8 L 238.2 19.8 L 238.2 10.7 L 236.5 10.7 L 236.5 8.2 L 238.2 8.2 C 238.2 8.2 238.2 7.56 238.2 7.6 C 238.2 4.5 239.6 3.8 241.8 3.8 C 241.75 3.78 243.4 3.8 243.4 3.8 L 243.4 6.3 C 243.4 6.3 242.17 6.26 242.2 6.3 Z M 255.2 14 C 255.2 17.8 252.8 20 249.5 20 C 246.3 20 243.9 17.8 243.9 14 C 243.9 10.2 246.3 8 249.5 8 C 252.8 8 255.2 10.2 255.2 14 Z M 246.7 14 C 246.7 16.3 248 17.4 249.5 17.4 C 251.2 17.4 252.3 16.2 252.3 14 C 252.3 11.7 251 10.6 249.5 10.6 C 247.8 10.6 246.7 11.8 246.7 14 Z M 263.7 10.8 C 263.7 10.8 262.98 10.77 263 10.8 C 261 10.8 260 11.8 260 14.1 C 259.96 14.11 260 19.8 260 19.8 L 257.2 19.8 L 257.2 8.2 L 259.9 8.2 C 259.9 8.2 259.94 9.85 259.9 9.8 C 260.5 8.6 261.6 8.1 263 8.1 C 262.96 8.06 263.7 8.1 263.7 8.1 L 263.7 10.8 Z M 271.4 19.8 C 271.4 19.8 269.6 19.78 269.6 19.8 C 267.4 19.8 266 19.1 266 16 C 266.05 16 266 10.7 266 10.7 L 263.9 10.7 L 263.9 8.2 L 266 8.2 L 266 5.6 L 268.8 4.8 L 268.8 8.2 L 271.2 8.2 L 271.2 10.7 L 268.8 10.7 C 268.8 10.7 268.84 16.13 268.8 16.1 C 268.8 16.8 269 17.3 270 17.3 C 270.02 17.3 271.4 17.3 271.4 17.3 L 271.4 19.8 Z M 275 14.8 C 275 16.7 276.4 17.6 278 17.6 C 279 17.6 280.1 17.2 280.4 16.1 C 280.4 16.1 283 16.1 283 16.1 C 282.5 18.7 280.2 20 277.8 20 C 275 20 272.3 18.1 272.3 14 C 272.3 10 274.9 8 277.8 8 C 280.7 8 283 9.8 283 13.7 C 283.04 13.69 283 14.8 283 14.8 C 283 14.8 274.97 14.83 275 14.8 Z M 275 12.8 C 275 12.8 280.3 12.8 280.3 12.8 C 280.3 11.3 279.2 10.4 277.8 10.4 C 276.5 10.4 275.3 11.1 275 12.8 Z M 294.3 16.2 C 294.3 18.8 292 20 289.4 20 C 287 20 284.4 19 284.2 16.1 C 284.2 16.1 287 16.1 287 16.1 C 287.2 17.2 288.2 17.7 289.5 17.7 C 290.7 17.7 291.5 17.3 291.5 16.5 C 291.5 15.7 291 15.6 289.4 15.3 C 287.1 14.9 284.5 14.5 284.5 11.7 C 284.5 9.1 286.8 8 289.1 8 C 291.9 8 293.9 9.3 294 11.9 C 294 11.9 291.3 11.9 291.3 11.9 C 291.2 10.8 290.4 10.3 289.2 10.3 C 287.8 10.3 287.3 10.9 287.3 11.6 C 287.3 12.5 288.3 12.7 289.7 12.9 C 291.8 13.2 294.3 13.5 294.3 16.2 Z " stroke="none" fill="#000"/>  </g></svg>