<?xml version="1.0" standalone="no"?><!DOCTYPE svg PUBLIC "-//W3C//DTD SVG 1.1//EN" "http://www.w3.org/Graphics/SVG/1.1/DTD/svg11.dtd"><svg xmlns="http://www.w3.org/2000/svg" version="1.1" width="361.1px" height="139.4px" viewBox="0 0 361.1 139.4">  <desc>Qu est-ce qui pourrait faire grimper les spreads La duration repr sente-t-elle le principal risque pour un investis</desc>  <defs/>  <g id="Polygon10299">    <path d="M 6.3 120.8 C 2.5 120.8 0.6 117.9 0.6 114.8 C 0.6 111.7 2.4 108.8 6.2 108.8 C 9.1 108.8 11.3 110.4 11.4 113.2 C 11.4 113.2 8.6 113.2 8.6 113.2 C 8.5 112.1 7.7 111.3 6.3 111.3 C 4.3 111.3 3.4 113 3.4 114.8 C 3.4 116.7 4.3 118.2 6.3 118.2 C 7.6 118.2 8.5 117.5 8.7 116.5 C 8.7 116.5 11.4 116.5 11.4 116.5 C 11.1 119.3 9.1 120.8 6.3 120.8 Z M 20 111.6 C 20 111.6 19.26 111.57 19.3 111.6 C 17.3 111.6 16.2 112.6 16.2 114.9 C 16.23 114.91 16.2 120.6 16.2 120.6 L 13.4 120.6 L 13.4 109 L 16.2 109 C 16.2 109 16.21 110.65 16.2 110.6 C 16.8 109.4 17.9 108.9 19.2 108.9 C 19.24 108.86 20 108.9 20 108.9 L 20 111.6 Z M 24.8 106.9 L 28 101.9 L 30.1 103.6 L 27.1 106.9 L 24.8 106.9 Z M 23.1 115.6 C 23.2 117.5 24.5 118.4 26.1 118.4 C 27.2 118.4 28.2 118 28.6 116.9 C 28.6 116.9 31.1 116.9 31.1 116.9 C 30.6 119.5 28.4 120.8 26 120.8 C 23.2 120.8 20.4 118.9 20.4 114.8 C 20.4 110.8 23 108.8 26 108.8 C 28.8 108.8 31.2 110.6 31.2 114.5 C 31.19 114.49 31.2 115.6 31.2 115.6 C 31.2 115.6 23.12 115.63 23.1 115.6 Z M 23.2 113.6 C 23.2 113.6 28.5 113.6 28.5 113.6 C 28.5 112.1 27.4 111.2 26 111.2 C 24.7 111.2 23.4 111.9 23.2 113.6 Z M 43.8 120.6 L 41.1 120.6 C 41.1 120.6 41.1 118.8 41.1 118.8 C 40.5 120.1 39.1 120.8 37.5 120.8 C 34.8 120.8 32.4 118.8 32.4 114.8 C 32.4 110.8 34.8 108.8 37.5 108.8 C 39 108.8 40.3 109.4 41 110.5 C 41.03 110.52 41 104.6 41 104.6 L 43.8 104.6 L 43.8 120.6 Z M 41.1 114.8 C 41.1 112.4 39.7 111.3 38.2 111.3 C 36.7 111.3 35.3 112.4 35.3 114.8 C 35.3 117.1 36.7 118.3 38.2 118.3 C 39.7 118.3 41.1 117.1 41.1 114.8 Z M 46.5 107.5 L 49.4 107.5 L 49.4 104.3 L 46.5 104.3 L 46.5 107.5 Z M 46.5 109 L 49.3 109 L 49.3 120.6 L 46.5 120.6 L 46.5 109 Z M 58 120.6 C 58 120.6 56.13 120.58 56.1 120.6 C 54 120.6 52.6 119.9 52.6 116.8 C 52.58 116.8 52.6 111.5 52.6 111.5 L 50.5 111.5 L 50.5 109 L 52.6 109 L 52.6 106.4 L 55.4 105.6 L 55.4 109 L 57.7 109 L 57.7 111.5 L 55.4 111.5 C 55.4 111.5 55.38 116.93 55.4 116.9 C 55.4 117.6 55.6 118.1 56.6 118.1 C 56.55 118.1 58 118.1 58 118.1 L 58 120.6 Z M 66.5 115.6 C 66.6 117.5 68 118.4 69.5 118.4 C 70.6 118.4 71.7 118 72 116.9 C 72 116.9 74.6 116.9 74.6 116.9 C 74.1 119.5 71.8 120.8 69.4 120.8 C 66.6 120.8 63.8 118.9 63.8 114.8 C 63.8 110.8 66.5 108.8 69.4 108.8 C 72.2 108.8 74.6 110.6 74.6 114.5 C 74.61 114.49 74.6 115.6 74.6 115.6 C 74.6 115.6 66.55 115.63 66.5 115.6 Z M 66.6 113.6 C 66.6 113.6 71.9 113.6 71.9 113.6 C 71.9 112.1 70.8 111.2 69.4 111.2 C 68.1 111.2 66.9 111.9 66.6 113.6 Z M 86.8 113.1 C 86.79 113.11 86.8 120.6 86.8 120.6 L 84 120.6 C 84 120.6 84 113.36 84 113.4 C 84 112.1 83.3 111.3 82 111.3 C 80.4 111.3 79.4 112.4 79.4 114.3 C 79.4 114.32 79.4 120.6 79.4 120.6 L 76.6 120.6 L 76.6 109 L 79.4 109 C 79.4 109 79.38 110.67 79.4 110.7 C 80 109.6 81 108.8 82.9 108.8 C 85.6 108.8 86.8 110.3 86.8 113.1 Z M 105.8 120.6 L 94.5 120.6 L 94.5 118 C 94.5 118 98.24 114.87 98.2 114.9 C 101.2 112.5 102.4 111.3 102.4 109.7 C 102.4 108.3 101.4 107.5 99.9 107.5 C 98.3 107.5 97.1 108.4 97.1 110.3 C 97.1 110.3 94.3 110.3 94.3 110.3 C 94.3 106.7 96.9 104.8 100 104.8 C 102.9 104.8 105.3 106.4 105.3 109.5 C 105.3 112.2 103.4 114 100.6 116.2 C 100.61 116.21 98.4 118 98.4 118 L 105.8 118 L 105.8 120.6 Z M 107.1 112.9 C 107.1 108 108.8 104.8 112.6 104.8 C 116.4 104.8 118.1 108 118.1 112.8 C 118.1 117.7 116.4 120.8 112.6 120.8 C 108.8 120.8 107.1 117.7 107.1 112.9 Z M 115.3 112.9 C 115.3 109.8 114.5 107.3 112.6 107.3 C 110.8 107.3 109.9 109.3 109.9 112.7 C 109.9 116.2 110.8 118.4 112.6 118.4 C 114.5 118.4 115.3 116.1 115.3 112.9 Z M 131 120.6 L 119.7 120.6 L 119.7 118 C 119.7 118 123.44 114.87 123.4 114.9 C 126.4 112.5 127.6 111.3 127.6 109.7 C 127.6 108.3 126.6 107.5 125.1 107.5 C 123.5 107.5 122.3 108.4 122.3 110.3 C 122.3 110.3 119.5 110.3 119.5 110.3 C 119.5 106.7 122.1 104.8 125.2 104.8 C 128.1 104.8 130.5 106.4 130.5 109.5 C 130.5 112.2 128.6 114 125.8 116.2 C 125.81 116.21 123.6 118 123.6 118 L 131 118 L 131 120.6 Z M 143.1 118 L 143.1 120.6 L 132.8 120.6 L 132.8 118 L 136.6 118 C 136.6 118 136.56 108.76 136.6 108.8 C 135.3 109.5 133.9 109.9 132.8 110 C 132.8 110 132.8 107.2 132.8 107.2 C 134.2 107 135.7 106.4 137 105.1 C 136.98 105.1 139.4 105.1 139.4 105.1 L 139.4 118 L 143.1 118 Z M 153.9 115 C 153.9 112.3 155.3 111.8 156.5 110.9 C 157.5 110.2 158 109.6 158 108.8 C 158 107.6 157.1 107 155.9 107 C 154.5 107 153.5 107.8 153.5 109.2 C 153.5 109.2 150.6 109.2 150.6 109.2 C 150.9 105.8 153.4 104.6 156 104.6 C 158.7 104.6 160.9 105.9 160.9 108.7 C 160.9 110.9 159.6 111.8 158.2 112.8 C 157.1 113.6 156.6 114.1 156.6 115 C 156.59 115.04 156.6 115.7 156.6 115.7 L 153.9 115.7 C 153.9 115.7 153.93 114.95 153.9 115 Z M 153.7 117.3 L 156.8 117.3 L 156.8 120.6 L 153.7 120.6 L 153.7 117.3 Z " stroke="none" fill="#000"/>  </g>  <g id="Polygon10298">    <path d="M 12.7 89.4 C 12.7 93.6 10.1 95.5 7.4 95.5 C 5.9 95.5 4.8 94.8 4.2 94 C 4.16 94 4.2 99.7 4.2 99.7 L 1.4 99.7 L 1.4 83.8 L 4.1 83.8 C 4.1 83.8 4.09 85.64 4.1 85.6 C 4.7 84.4 6 83.6 7.7 83.6 C 10.4 83.6 12.7 85.5 12.7 89.4 Z M 9.9 89.6 C 9.9 87.2 8.5 86.1 7 86.1 C 5.5 86.1 4.1 87.2 4.1 89.6 C 4.1 91.9 5.5 93 7 93 C 8.5 93 9.9 91.9 9.9 89.6 Z M 25.3 89.6 C 25.3 93.4 22.9 95.6 19.7 95.6 C 16.4 95.6 14 93.4 14 89.6 C 14 85.8 16.4 83.6 19.7 83.6 C 22.9 83.6 25.3 85.8 25.3 89.6 Z M 16.9 89.6 C 16.9 91.9 18.1 93 19.7 93 C 21.4 93 22.5 91.8 22.5 89.6 C 22.5 87.3 21.2 86.2 19.6 86.2 C 18 86.2 16.9 87.4 16.9 89.6 Z M 37.5 95.4 L 34.7 95.4 C 34.7 95.4 34.73 93.74 34.7 93.7 C 34.1 94.8 33 95.5 31.4 95.5 C 29 95.5 27.2 94 27.2 91 C 27.22 90.99 27.2 83.8 27.2 83.8 L 30 83.8 C 30 83.8 30.01 90.78 30 90.8 C 30 92.4 30.8 93 32 93 C 33.5 93 34.7 92.1 34.7 89.4 C 34.67 89.4 34.7 83.8 34.7 83.8 L 37.5 83.8 L 37.5 95.4 Z M 46.7 86.4 C 46.7 86.4 46.01 86.37 46 86.4 C 44.1 86.4 43 87.4 43 89.7 C 42.99 89.71 43 95.4 43 95.4 L 40.2 95.4 L 40.2 83.8 L 43 83.8 C 43 83.8 42.97 85.45 43 85.4 C 43.6 84.2 44.6 83.7 46 83.7 C 45.99 83.66 46.7 83.7 46.7 83.7 L 46.7 86.4 Z M 63.3 95.4 L 60.6 95.4 C 60.6 95.4 60.56 93.74 60.6 93.7 C 59.9 94.8 58.8 95.5 57.2 95.5 C 54.8 95.5 53 94 53 91 C 53.05 90.99 53 83.8 53 83.8 L 55.8 83.8 C 55.8 83.8 55.84 90.78 55.8 90.8 C 55.8 92.4 56.6 93 57.8 93 C 59.4 93 60.5 92.1 60.5 89.4 C 60.5 89.4 60.5 83.8 60.5 83.8 L 63.3 83.8 L 63.3 95.4 Z M 76.2 87.9 C 76.21 87.91 76.2 95.4 76.2 95.4 L 73.4 95.4 C 73.4 95.4 73.42 88.16 73.4 88.2 C 73.4 86.9 72.7 86.1 71.4 86.1 C 69.8 86.1 68.8 87.2 68.8 89.1 C 68.82 89.12 68.8 95.4 68.8 95.4 L 66 95.4 L 66 83.8 L 68.8 83.8 C 68.8 83.8 68.8 85.47 68.8 85.5 C 69.4 84.4 70.4 83.6 72.3 83.6 C 75 83.6 76.2 85.1 76.2 87.9 Z M 84.4 82.3 L 87.4 82.3 L 87.4 79.1 L 84.4 79.1 L 84.4 82.3 Z M 84.5 83.8 L 87.3 83.8 L 87.3 95.4 L 84.5 95.4 L 84.5 83.8 Z M 100.2 87.9 C 100.17 87.91 100.2 95.4 100.2 95.4 L 97.4 95.4 C 97.4 95.4 97.38 88.16 97.4 88.2 C 97.4 86.9 96.6 86.1 95.3 86.1 C 93.7 86.1 92.8 87.2 92.8 89.1 C 92.78 89.12 92.8 95.4 92.8 95.4 L 90 95.4 L 90 83.8 L 92.8 83.8 C 92.8 83.8 92.76 85.47 92.8 85.5 C 93.4 84.4 94.4 83.6 96.3 83.6 C 98.9 83.6 100.2 85.1 100.2 87.9 Z M 108.7 95.4 L 105.7 95.4 L 101.4 83.8 L 104.4 83.8 L 107.2 92.1 L 110.1 83.8 L 113 83.8 L 108.7 95.4 Z M 116.1 90.4 C 116.2 92.3 117.5 93.2 119.1 93.2 C 120.2 93.2 121.2 92.8 121.6 91.7 C 121.6 91.7 124.1 91.7 124.1 91.7 C 123.6 94.3 121.3 95.6 119 95.6 C 116.2 95.6 113.4 93.7 113.4 89.6 C 113.4 85.6 116 83.6 119 83.6 C 121.8 83.6 124.2 85.4 124.2 89.3 C 124.17 89.29 124.2 90.4 124.2 90.4 C 124.2 90.4 116.11 90.43 116.1 90.4 Z M 116.2 88.4 C 116.2 88.4 121.4 88.4 121.4 88.4 C 121.4 86.9 120.4 86 118.9 86 C 117.7 86 116.4 86.7 116.2 88.4 Z M 135.4 91.8 C 135.4 94.4 133.1 95.6 130.5 95.6 C 128.1 95.6 125.5 94.6 125.3 91.7 C 125.3 91.7 128.1 91.7 128.1 91.7 C 128.3 92.8 129.4 93.3 130.7 93.3 C 131.8 93.3 132.7 92.9 132.7 92.1 C 132.7 91.3 132.1 91.2 130.5 90.9 C 128.3 90.5 125.7 90.1 125.7 87.3 C 125.7 84.7 127.9 83.6 130.3 83.6 C 133 83.6 135 84.9 135.2 87.5 C 135.2 87.5 132.4 87.5 132.4 87.5 C 132.3 86.4 131.5 85.9 130.3 85.9 C 128.9 85.9 128.4 86.5 128.4 87.2 C 128.4 88.1 129.4 88.3 130.8 88.5 C 132.9 88.8 135.4 89.1 135.4 91.8 Z M 143.2 95.4 C 143.2 95.4 141.41 95.38 141.4 95.4 C 139.2 95.4 137.9 94.7 137.9 91.6 C 137.86 91.6 137.9 86.3 137.9 86.3 L 135.7 86.3 L 135.7 83.8 L 137.9 83.8 L 137.9 81.2 L 140.7 80.4 L 140.7 83.8 L 143 83.8 L 143 86.3 L 140.7 86.3 C 140.7 86.3 140.66 91.73 140.7 91.7 C 140.7 92.4 140.8 92.9 141.8 92.9 C 141.83 92.9 143.2 92.9 143.2 92.9 L 143.2 95.4 Z M 144.7 82.3 L 147.7 82.3 L 147.7 79.1 L 144.7 79.1 L 144.7 82.3 Z M 144.8 83.8 L 147.6 83.8 L 147.6 95.4 L 144.8 95.4 L 144.8 83.8 Z M 159.6 91.8 C 159.6 94.4 157.2 95.6 154.6 95.6 C 152.2 95.6 149.6 94.6 149.5 91.7 C 149.5 91.7 152.3 91.7 152.3 91.7 C 152.5 92.8 153.5 93.3 154.8 93.3 C 156 93.3 156.8 92.9 156.8 92.1 C 156.8 91.3 156.3 91.2 154.7 90.9 C 152.4 90.5 149.8 90.1 149.8 87.3 C 149.8 84.7 152 83.6 154.4 83.6 C 157.1 83.6 159.1 84.9 159.3 87.5 C 159.3 87.5 156.6 87.5 156.6 87.5 C 156.4 86.4 155.6 85.9 154.5 85.9 C 153.1 85.9 152.5 86.5 152.5 87.2 C 152.5 88.1 153.5 88.3 155 88.5 C 157 88.8 159.6 89.1 159.6 91.8 Z M 170.7 91.8 C 170.7 94.4 168.4 95.6 165.8 95.6 C 163.4 95.6 160.8 94.6 160.6 91.7 C 160.6 91.7 163.4 91.7 163.4 91.7 C 163.6 92.8 164.6 93.3 165.9 93.3 C 167.1 93.3 168 92.9 168 92.1 C 168 91.3 167.4 91.2 165.8 90.9 C 163.5 90.5 161 90.1 161 87.3 C 161 84.7 163.2 83.6 165.6 83.6 C 168.3 83.6 170.3 84.9 170.4 87.5 C 170.4 87.5 167.7 87.5 167.7 87.5 C 167.6 86.4 166.8 85.9 165.6 85.9 C 164.2 85.9 163.7 86.5 163.7 87.2 C 163.7 88.1 164.7 88.3 166.1 88.5 C 168.2 88.8 170.7 89.1 170.7 91.8 Z M 174.6 90.4 C 174.6 92.3 176 93.2 177.6 93.2 C 178.6 93.2 179.7 92.8 180 91.7 C 180 91.7 182.6 91.7 182.6 91.7 C 182.1 94.3 179.8 95.6 177.4 95.6 C 174.6 95.6 171.9 93.7 171.9 89.6 C 171.9 85.6 174.5 83.6 177.4 83.6 C 180.3 83.6 182.6 85.4 182.6 89.3 C 182.63 89.29 182.6 90.4 182.6 90.4 C 182.6 90.4 174.57 90.43 174.6 90.4 Z M 174.6 88.4 C 174.6 88.4 179.9 88.4 179.9 88.4 C 179.9 86.9 178.8 86 177.4 86 C 176.1 86 174.9 86.7 174.6 88.4 Z M 201 87.6 C 200.99 87.57 201 95.4 201 95.4 L 198.2 95.4 C 198.2 95.4 198.19 88.12 198.2 88.1 C 198.2 86.7 197.5 86.1 196.4 86.1 C 195.1 86.1 194.2 86.9 194.2 88.9 C 194.2 88.87 194.2 95.4 194.2 95.4 L 191.4 95.4 C 191.4 95.4 191.41 88.12 191.4 88.1 C 191.4 86.7 190.7 86.1 189.6 86.1 C 188.3 86.1 187.4 86.9 187.4 88.9 C 187.42 88.85 187.4 95.4 187.4 95.4 L 184.6 95.4 L 184.6 83.8 L 187.4 83.8 C 187.4 83.8 187.38 85.49 187.4 85.5 C 187.7 84.6 188.6 83.6 190.4 83.6 C 191.9 83.6 193 84.3 193.6 85.5 C 194 84.7 194.9 83.6 197 83.6 C 199.4 83.6 201 85.1 201 87.6 Z M 205.6 90.4 C 205.6 92.3 207 93.2 208.6 93.2 C 209.7 93.2 210.7 92.8 211 91.7 C 211 91.7 213.6 91.7 213.6 91.7 C 213.1 94.3 210.8 95.6 208.4 95.6 C 205.6 95.6 202.9 93.7 202.9 89.6 C 202.9 85.6 205.5 83.6 208.5 83.6 C 211.3 83.6 213.7 85.4 213.7 89.3 C 213.65 89.29 213.7 90.4 213.7 90.4 C 213.7 90.4 205.59 90.43 205.6 90.4 Z M 205.6 88.4 C 205.6 88.4 210.9 88.4 210.9 88.4 C 210.9 86.9 209.8 86 208.4 86 C 207.1 86 205.9 86.7 205.6 88.4 Z M 225.8 87.9 C 225.83 87.91 225.8 95.4 225.8 95.4 L 223 95.4 C 223 95.4 223.04 88.16 223 88.2 C 223 86.9 222.3 86.1 221 86.1 C 219.4 86.1 218.4 87.2 218.4 89.1 C 218.44 89.12 218.4 95.4 218.4 95.4 L 215.6 95.4 L 215.6 83.8 L 218.4 83.8 C 218.4 83.8 218.42 85.47 218.4 85.5 C 219.1 84.4 220 83.6 221.9 83.6 C 224.6 83.6 225.8 85.1 225.8 87.9 Z M 234.4 95.4 C 234.4 95.4 232.55 95.38 232.6 95.4 C 230.4 95.4 229 94.7 229 91.6 C 229 91.6 229 86.3 229 86.3 L 226.9 86.3 L 226.9 83.8 L 229 83.8 L 229 81.2 L 231.8 80.4 L 231.8 83.8 L 234.1 83.8 L 234.1 86.3 L 231.8 86.3 C 231.8 86.3 231.79 91.73 231.8 91.7 C 231.8 92.4 232 92.9 233 92.9 C 232.97 92.9 234.4 92.9 234.4 92.9 L 234.4 95.4 Z M 251.6 95.4 L 248.9 95.4 C 248.9 95.4 248.91 93.6 248.9 93.6 C 248.3 94.9 246.9 95.6 245.3 95.6 C 242.6 95.6 240.3 93.6 240.3 89.6 C 240.3 85.6 242.6 83.6 245.3 83.6 C 246.9 83.6 248.2 84.2 248.8 85.3 C 248.85 85.32 248.8 79.4 248.8 79.4 L 251.6 79.4 L 251.6 95.4 Z M 248.9 89.6 C 248.9 87.2 247.5 86.1 246 86.1 C 244.5 86.1 243.1 87.2 243.1 89.6 C 243.1 91.9 244.5 93.1 246 93.1 C 247.5 93.1 248.9 91.9 248.9 89.6 Z M 263.6 87.6 C 263.63 87.59 263.6 95.4 263.6 95.4 L 260.9 95.4 C 260.9 95.4 260.9 93.7 260.9 93.7 C 260 95.2 258.6 95.6 257.4 95.6 C 255.5 95.6 253.6 94.5 253.6 92 C 253.6 90.2 254.7 89 257.3 88.6 C 257.3 88.6 259.8 88.2 259.8 88.2 C 260.5 88.1 261 87.9 261 87.2 C 261 86.2 260.2 85.8 259.1 85.8 C 257.6 85.8 256.9 86.5 256.8 87.5 C 256.8 87.5 254.1 87.5 254.1 87.5 C 254.4 84.8 256.6 83.6 259.2 83.6 C 261.9 83.6 263.6 84.9 263.6 87.6 Z M 260.9 90.5 C 260.9 90.5 260.9 89.9 260.9 89.9 C 260.6 90 260.1 90.2 259.6 90.2 C 259.6 90.2 258.3 90.4 258.3 90.4 C 256.9 90.6 256.4 91.2 256.4 91.9 C 256.4 92.8 257.1 93.3 258 93.3 C 259.5 93.3 260.9 92.2 260.9 90.5 Z M 276.3 87.9 C 276.33 87.91 276.3 95.4 276.3 95.4 L 273.5 95.4 C 273.5 95.4 273.54 88.16 273.5 88.2 C 273.5 86.9 272.8 86.1 271.5 86.1 C 269.9 86.1 268.9 87.2 268.9 89.1 C 268.94 89.12 268.9 95.4 268.9 95.4 L 266.1 95.4 L 266.1 83.8 L 268.9 83.8 C 268.9 83.8 268.92 85.47 268.9 85.5 C 269.6 84.4 270.5 83.6 272.5 83.6 C 275.1 83.6 276.3 85.1 276.3 87.9 Z M 288.2 91.8 C 288.2 94.4 285.9 95.6 283.3 95.6 C 280.9 95.6 278.3 94.6 278.1 91.7 C 278.1 91.7 280.9 91.7 280.9 91.7 C 281.1 92.8 282.2 93.3 283.5 93.3 C 284.6 93.3 285.5 92.9 285.5 92.1 C 285.5 91.3 284.9 91.2 283.3 90.9 C 281.1 90.5 278.5 90.1 278.5 87.3 C 278.5 84.7 280.7 83.6 283.1 83.6 C 285.8 83.6 287.8 84.9 287.9 87.5 C 287.9 87.5 285.2 87.5 285.2 87.5 C 285.1 86.4 284.3 85.9 283.1 85.9 C 281.7 85.9 281.2 86.5 281.2 87.2 C 281.2 88.1 282.2 88.3 283.6 88.5 C 285.7 88.8 288.2 89.1 288.2 91.8 Z M 298.2 95.4 L 295.4 95.4 L 295.4 79.4 L 298.2 79.4 L 298.2 95.4 Z M 302.9 90.4 C 302.9 92.3 304.3 93.2 305.8 93.2 C 306.9 93.2 308 92.8 308.3 91.7 C 308.3 91.7 310.9 91.7 310.9 91.7 C 310.4 94.3 308.1 95.6 305.7 95.6 C 302.9 95.6 300.1 93.7 300.1 89.6 C 300.1 85.6 302.8 83.6 305.7 83.6 C 308.5 83.6 310.9 85.4 310.9 89.3 C 310.92 89.29 310.9 90.4 310.9 90.4 C 310.9 90.4 302.86 90.43 302.9 90.4 Z M 302.9 88.4 C 302.9 88.4 308.2 88.4 308.2 88.4 C 308.2 86.9 307.1 86 305.7 86 C 304.4 86 303.2 86.7 302.9 88.4 Z " stroke="none" fill="#000"/>  </g>  <g id="Polygon10297">    <path d="M 7.9 61.2 C 7.9 61.2 7.18 61.17 7.2 61.2 C 5.2 61.2 4.2 62.2 4.2 64.5 C 4.16 64.51 4.2 70.2 4.2 70.2 L 1.4 70.2 L 1.4 58.6 L 4.1 58.6 C 4.1 58.6 4.14 60.25 4.1 60.2 C 4.7 59 5.8 58.5 7.2 58.5 C 7.16 58.46 7.9 58.5 7.9 58.5 L 7.9 61.2 Z M 11 65.2 C 11.1 67.1 12.5 68 14 68 C 15.1 68 16.2 67.6 16.5 66.5 C 16.5 66.5 19.1 66.5 19.1 66.5 C 18.6 69.1 16.3 70.4 13.9 70.4 C 11.1 70.4 8.3 68.5 8.3 64.4 C 8.3 60.4 11 58.4 13.9 58.4 C 16.7 58.4 19.1 60.2 19.1 64.1 C 19.11 64.09 19.1 65.2 19.1 65.2 C 19.1 65.2 11.05 65.23 11 65.2 Z M 11.1 63.2 C 11.1 63.2 16.4 63.2 16.4 63.2 C 16.4 61.7 15.3 60.8 13.9 60.8 C 12.6 60.8 11.4 61.5 11.1 63.2 Z M 32.5 64.2 C 32.5 68.4 29.9 70.3 27.2 70.3 C 25.6 70.3 24.5 69.6 23.9 68.8 C 23.9 68.8 23.9 74.5 23.9 74.5 L 21.1 74.5 L 21.1 58.6 L 23.8 58.6 C 23.8 58.6 23.84 60.44 23.8 60.4 C 24.4 59.2 25.7 58.4 27.4 58.4 C 30.2 58.4 32.5 60.3 32.5 64.2 Z M 29.7 64.4 C 29.7 62 28.3 60.9 26.8 60.9 C 25.2 60.9 23.8 62 23.8 64.4 C 23.8 66.7 25.2 67.8 26.8 67.8 C 28.3 67.8 29.7 66.7 29.7 64.4 Z M 41 61.2 C 41 61.2 40.3 61.17 40.3 61.2 C 38.3 61.2 37.3 62.2 37.3 64.5 C 37.27 64.51 37.3 70.2 37.3 70.2 L 34.5 70.2 L 34.5 58.6 L 37.3 58.6 C 37.3 58.6 37.25 60.25 37.3 60.2 C 37.8 59 38.9 58.5 40.3 58.5 C 40.28 58.46 41 58.5 41 58.5 L 41 61.2 Z M 45.8 56.5 L 49 51.5 L 51.2 53.2 L 48.2 56.5 L 45.8 56.5 Z M 44.2 65.2 C 44.2 67.1 45.6 68 47.1 68 C 48.2 68 49.3 67.6 49.6 66.5 C 49.6 66.5 52.2 66.5 52.2 66.5 C 51.7 69.1 49.4 70.4 47 70.4 C 44.2 70.4 41.5 68.5 41.5 64.4 C 41.5 60.4 44.1 58.4 47 58.4 C 49.9 58.4 52.2 60.2 52.2 64.1 C 52.23 64.09 52.2 65.2 52.2 65.2 C 52.2 65.2 44.16 65.23 44.2 65.2 Z M 44.2 63.2 C 44.2 63.2 49.5 63.2 49.5 63.2 C 49.5 61.7 48.4 60.8 47 60.8 C 45.7 60.8 44.5 61.5 44.2 63.2 Z M 63.5 66.6 C 63.5 69.2 61.2 70.4 58.6 70.4 C 56.2 70.4 53.6 69.4 53.4 66.5 C 53.4 66.5 56.2 66.5 56.2 66.5 C 56.4 67.6 57.4 68.1 58.7 68.1 C 59.9 68.1 60.7 67.7 60.7 66.9 C 60.7 66.1 60.2 66 58.6 65.7 C 56.3 65.3 53.7 64.9 53.7 62.1 C 53.7 59.5 55.9 58.4 58.3 58.4 C 61 58.4 63 59.7 63.2 62.3 C 63.2 62.3 60.5 62.3 60.5 62.3 C 60.4 61.2 59.6 60.7 58.4 60.7 C 57 60.7 56.4 61.3 56.4 62 C 56.4 62.9 57.5 63.1 58.9 63.3 C 61 63.6 63.5 63.9 63.5 66.6 Z M 67.3 65.2 C 67.4 67.1 68.8 68 70.3 68 C 71.4 68 72.5 67.6 72.8 66.5 C 72.8 66.5 75.4 66.5 75.4 66.5 C 74.9 69.1 72.6 70.4 70.2 70.4 C 67.4 70.4 64.6 68.5 64.6 64.4 C 64.6 60.4 67.3 58.4 70.2 58.4 C 73 58.4 75.4 60.2 75.4 64.1 C 75.41 64.09 75.4 65.2 75.4 65.2 C 75.4 65.2 67.35 65.23 67.3 65.2 Z M 67.4 63.2 C 67.4 63.2 72.7 63.2 72.7 63.2 C 72.7 61.7 71.6 60.8 70.2 60.8 C 68.9 60.8 67.7 61.5 67.4 63.2 Z M 87.6 62.7 C 87.59 62.71 87.6 70.2 87.6 70.2 L 84.8 70.2 C 84.8 70.2 84.8 62.96 84.8 63 C 84.8 61.7 84.1 60.9 82.8 60.9 C 81.2 60.9 80.2 62 80.2 63.9 C 80.2 63.92 80.2 70.2 80.2 70.2 L 77.4 70.2 L 77.4 58.6 L 80.2 58.6 C 80.2 58.6 80.18 60.27 80.2 60.3 C 80.8 59.2 81.8 58.4 83.7 58.4 C 86.4 58.4 87.6 59.9 87.6 62.7 Z M 96.1 70.2 C 96.1 70.2 94.31 70.18 94.3 70.2 C 92.1 70.2 90.8 69.5 90.8 66.4 C 90.76 66.4 90.8 61.1 90.8 61.1 L 88.6 61.1 L 88.6 58.6 L 90.8 58.6 L 90.8 56 L 93.6 55.2 L 93.6 58.6 L 95.9 58.6 L 95.9 61.1 L 93.6 61.1 C 93.6 61.1 93.55 66.53 93.6 66.5 C 93.6 67.2 93.7 67.7 94.7 67.7 C 94.73 67.7 96.1 67.7 96.1 67.7 L 96.1 70.2 Z M 99.7 65.2 C 99.7 67.1 101.1 68 102.7 68 C 103.8 68 104.8 67.6 105.1 66.5 C 105.1 66.5 107.7 66.5 107.7 66.5 C 107.2 69.1 104.9 70.4 102.5 70.4 C 99.7 70.4 97 68.5 97 64.4 C 97 60.4 99.6 58.4 102.6 58.4 C 105.4 58.4 107.8 60.2 107.8 64.1 C 107.75 64.09 107.8 65.2 107.8 65.2 C 107.8 65.2 99.69 65.23 99.7 65.2 Z M 99.7 63.2 C 99.7 63.2 105 63.2 105 63.2 C 105 61.7 103.9 60.8 102.5 60.8 C 101.2 60.8 100 61.5 99.7 63.2 Z M 115.9 62.3 L 109.4 62.3 L 109.4 64.8 L 115.9 64.8 L 115.9 62.3 Z M 124.2 70.2 C 124.2 70.2 122.41 70.18 122.4 70.2 C 120.2 70.2 118.9 69.5 118.9 66.4 C 118.86 66.4 118.9 61.1 118.9 61.1 L 116.7 61.1 L 116.7 58.6 L 118.9 58.6 L 118.9 56 L 121.7 55.2 L 121.7 58.6 L 124 58.6 L 124 61.1 L 121.7 61.1 C 121.7 61.1 121.65 66.53 121.7 66.5 C 121.7 67.2 121.8 67.7 122.8 67.7 C 122.83 67.7 124.2 67.7 124.2 67.7 L 124.2 70.2 Z M 132 62.3 L 125.5 62.3 L 125.5 64.8 L 132 64.8 L 132 62.3 Z M 136.4 65.2 C 136.4 67.1 137.8 68 139.3 68 C 140.4 68 141.5 67.6 141.8 66.5 C 141.8 66.5 144.4 66.5 144.4 66.5 C 143.9 69.1 141.6 70.4 139.2 70.4 C 136.4 70.4 133.6 68.5 133.6 64.4 C 133.6 60.4 136.3 58.4 139.2 58.4 C 142 58.4 144.4 60.2 144.4 64.1 C 144.42 64.09 144.4 65.2 144.4 65.2 C 144.4 65.2 136.35 65.23 136.4 65.2 Z M 136.4 63.2 C 136.4 63.2 141.7 63.2 141.7 63.2 C 141.7 61.7 140.6 60.8 139.2 60.8 C 137.9 60.8 136.7 61.5 136.4 63.2 Z M 149.2 70.2 L 146.4 70.2 L 146.4 54.2 L 149.2 54.2 L 149.2 70.2 Z M 154.7 70.2 L 151.9 70.2 L 151.9 54.2 L 154.7 54.2 L 154.7 70.2 Z M 159.4 65.2 C 159.5 67.1 160.8 68 162.4 68 C 163.5 68 164.6 67.6 164.9 66.5 C 164.9 66.5 167.5 66.5 167.5 66.5 C 166.9 69.1 164.7 70.4 162.3 70.4 C 159.5 70.4 156.7 68.5 156.7 64.4 C 156.7 60.4 159.3 58.4 162.3 58.4 C 165.1 58.4 167.5 60.2 167.5 64.1 C 167.49 64.09 167.5 65.2 167.5 65.2 C 167.5 65.2 159.43 65.23 159.4 65.2 Z M 159.5 63.2 C 159.5 63.2 164.8 63.2 164.8 63.2 C 164.8 61.7 163.7 60.8 162.3 60.8 C 161 60.8 159.7 61.5 159.5 63.2 Z M 177.5 70.2 L 174.7 70.2 L 174.7 54.2 L 177.5 54.2 L 177.5 70.2 Z M 182.2 65.2 C 182.3 67.1 183.6 68 185.2 68 C 186.3 68 187.4 67.6 187.7 66.5 C 187.7 66.5 190.3 66.5 190.3 66.5 C 189.8 69.1 187.5 70.4 185.1 70.4 C 182.3 70.4 179.5 68.5 179.5 64.4 C 179.5 60.4 182.2 58.4 185.1 58.4 C 187.9 58.4 190.3 60.2 190.3 64.1 C 190.3 64.09 190.3 65.2 190.3 65.2 C 190.3 65.2 182.24 65.23 182.2 65.2 Z M 182.3 63.2 C 182.3 63.2 187.6 63.2 187.6 63.2 C 187.6 61.7 186.5 60.8 185.1 60.8 C 183.8 60.8 182.6 61.5 182.3 63.2 Z M 208.9 64.2 C 208.9 68.4 206.3 70.3 203.6 70.3 C 202.1 70.3 201 69.6 200.3 68.8 C 200.34 68.8 200.3 74.5 200.3 74.5 L 197.5 74.5 L 197.5 58.6 L 200.3 58.6 C 200.3 58.6 200.27 60.44 200.3 60.4 C 200.9 59.2 202.2 58.4 203.9 58.4 C 206.6 58.4 208.9 60.3 208.9 64.2 Z M 206.1 64.4 C 206.1 62 204.7 60.9 203.2 60.9 C 201.7 60.9 200.3 62 200.3 64.4 C 200.3 66.7 201.7 67.8 203.2 67.8 C 204.7 67.8 206.1 66.7 206.1 64.4 Z M 217.5 61.2 C 217.5 61.2 216.74 61.17 216.7 61.2 C 214.8 61.2 213.7 62.2 213.7 64.5 C 213.71 64.51 213.7 70.2 213.7 70.2 L 210.9 70.2 L 210.9 58.6 L 213.7 58.6 C 213.7 58.6 213.69 60.25 213.7 60.2 C 214.3 59 215.4 58.5 216.7 58.5 C 216.72 58.46 217.5 58.5 217.5 58.5 L 217.5 61.2 Z M 218.7 57.1 L 221.7 57.1 L 221.7 53.9 L 218.7 53.9 L 218.7 57.1 Z M 218.8 58.6 L 221.6 58.6 L 221.6 70.2 L 218.8 70.2 L 218.8 58.6 Z M 234.5 62.7 C 234.5 62.71 234.5 70.2 234.5 70.2 L 231.7 70.2 C 231.7 70.2 231.71 62.96 231.7 63 C 231.7 61.7 231 60.9 229.7 60.9 C 228.1 60.9 227.1 62 227.1 63.9 C 227.11 63.92 227.1 70.2 227.1 70.2 L 224.3 70.2 L 224.3 58.6 L 227.1 58.6 C 227.1 58.6 227.09 60.27 227.1 60.3 C 227.7 59.2 228.7 58.4 230.6 58.4 C 233.3 58.4 234.5 59.9 234.5 62.7 Z M 242 70.4 C 238.2 70.4 236.4 67.5 236.4 64.4 C 236.4 61.3 238.2 58.4 242 58.4 C 244.9 58.4 247 60 247.1 62.8 C 247.1 62.8 244.4 62.8 244.4 62.8 C 244.2 61.7 243.4 60.9 242.1 60.9 C 240 60.9 239.2 62.6 239.2 64.4 C 239.2 66.3 240.1 67.8 242.1 67.8 C 243.4 67.8 244.2 67.1 244.4 66.1 C 244.4 66.1 247.2 66.1 247.2 66.1 C 246.8 68.9 244.8 70.4 242 70.4 Z M 249.1 57.1 L 252.1 57.1 L 252.1 53.9 L 249.1 53.9 L 249.1 57.1 Z M 249.2 58.6 L 252 58.6 L 252 70.2 L 249.2 70.2 L 249.2 58.6 Z M 266.1 64.2 C 266.1 68.4 263.5 70.3 260.8 70.3 C 259.2 70.3 258.1 69.6 257.5 68.8 C 257.48 68.8 257.5 74.5 257.5 74.5 L 254.7 74.5 L 254.7 58.6 L 257.4 58.6 C 257.4 58.6 257.41 60.44 257.4 60.4 C 258 59.2 259.3 58.4 261 58.4 C 263.7 58.4 266.1 60.3 266.1 64.2 Z M 263.2 64.4 C 263.2 62 261.8 60.9 260.3 60.9 C 258.8 60.9 257.4 62 257.4 64.4 C 257.4 66.7 258.8 67.8 260.3 67.8 C 261.8 67.8 263.2 66.7 263.2 64.4 Z M 277.3 62.4 C 277.32 62.39 277.3 70.2 277.3 70.2 L 274.6 70.2 C 274.6 70.2 274.59 68.5 274.6 68.5 C 273.7 70 272.3 70.4 271.1 70.4 C 269.2 70.4 267.3 69.3 267.3 66.8 C 267.3 65 268.4 63.8 271 63.4 C 271 63.4 273.5 63 273.5 63 C 274.2 62.9 274.7 62.7 274.7 62 C 274.7 61 273.9 60.6 272.7 60.6 C 271.3 60.6 270.6 61.3 270.5 62.3 C 270.5 62.3 267.8 62.3 267.8 62.3 C 268.1 59.6 270.2 58.4 272.9 58.4 C 275.6 58.4 277.3 59.7 277.3 62.4 Z M 274.6 65.3 C 274.6 65.3 274.6 64.7 274.6 64.7 C 274.3 64.8 273.8 65 273.2 65 C 273.2 65 272 65.2 272 65.2 C 270.6 65.4 270.1 66 270.1 66.7 C 270.1 67.6 270.8 68.1 271.7 68.1 C 273.2 68.1 274.6 67 274.6 65.3 Z M 282.6 70.2 L 279.8 70.2 L 279.8 54.2 L 282.6 54.2 L 282.6 70.2 Z M 297.6 61.2 C 297.6 61.2 296.85 61.17 296.9 61.2 C 294.9 61.2 293.8 62.2 293.8 64.5 C 293.83 64.51 293.8 70.2 293.8 70.2 L 291 70.2 L 291 58.6 L 293.8 58.6 C 293.8 58.6 293.81 60.25 293.8 60.2 C 294.4 59 295.5 58.5 296.8 58.5 C 296.83 58.46 297.6 58.5 297.6 58.5 L 297.6 61.2 Z M 298.8 57.1 L 301.8 57.1 L 301.8 53.9 L 298.8 53.9 L 298.8 57.1 Z M 298.9 58.6 L 301.7 58.6 L 301.7 70.2 L 298.9 70.2 L 298.9 58.6 Z M 313.7 66.6 C 313.7 69.2 311.4 70.4 308.8 70.4 C 306.4 70.4 303.8 69.4 303.6 66.5 C 303.6 66.5 306.4 66.5 306.4 66.5 C 306.6 67.6 307.6 68.1 308.9 68.1 C 310.1 68.1 310.9 67.7 310.9 66.9 C 310.9 66.1 310.4 66 308.8 65.7 C 306.5 65.3 303.9 64.9 303.9 62.1 C 303.9 59.5 306.2 58.4 308.5 58.4 C 311.3 58.4 313.3 59.7 313.4 62.3 C 313.4 62.3 310.7 62.3 310.7 62.3 C 310.6 61.2 309.8 60.7 308.6 60.7 C 307.2 60.7 306.7 61.3 306.7 62 C 306.7 62.9 307.7 63.1 309.1 63.3 C 311.2 63.6 313.7 63.9 313.7 66.6 Z M 326.2 58.6 L 326.2 74.5 L 323.4 74.5 C 323.4 74.5 323.44 68.46 323.4 68.5 C 322.8 69.6 321.6 70.3 320 70.3 C 317.3 70.3 314.8 68.4 314.8 64.3 C 314.8 60.3 317.2 58.4 319.9 58.4 C 321.4 58.4 322.8 59 323.5 60.2 C 323.5 60.23 323.5 58.6 323.5 58.6 L 326.2 58.6 Z M 323.5 64.3 C 323.5 61.9 322.1 60.9 320.6 60.9 C 319.1 60.9 317.7 61.9 317.7 64.3 C 317.7 66.6 319.1 67.7 320.6 67.7 C 322.1 67.7 323.5 66.7 323.5 64.3 Z M 339 70.2 L 336.3 70.2 C 336.3 70.2 336.27 68.54 336.3 68.5 C 335.6 69.6 334.5 70.3 332.9 70.3 C 330.5 70.3 328.7 68.8 328.7 65.8 C 328.75 65.79 328.7 58.6 328.7 58.6 L 331.5 58.6 C 331.5 58.6 331.54 65.58 331.5 65.6 C 331.5 67.2 332.3 67.8 333.5 67.8 C 335.1 67.8 336.2 66.9 336.2 64.2 C 336.2 64.2 336.2 58.6 336.2 58.6 L 339 58.6 L 339 70.2 Z M 343.7 65.2 C 343.8 67.1 345.1 68 346.7 68 C 347.8 68 348.8 67.6 349.2 66.5 C 349.2 66.5 351.7 66.5 351.7 66.5 C 351.2 69.1 348.9 70.4 346.6 70.4 C 343.8 70.4 341 68.5 341 64.4 C 341 60.4 343.6 58.4 346.6 58.4 C 349.4 58.4 351.8 60.2 351.8 64.1 C 351.77 64.09 351.8 65.2 351.8 65.2 C 351.8 65.2 343.7 65.23 343.7 65.2 Z M 343.8 63.2 C 343.8 63.2 349 63.2 349 63.2 C 349 61.7 348 60.8 346.5 60.8 C 345.3 60.8 344 61.5 343.8 63.2 Z " stroke="none" fill="#000"/>  </g>  <g id="Polygon10296">    <path d="M 11.8 44.2 C 11.8 47.9 9.4 49.6 6.3 49.6 C 3.5 49.6 1.1 48.2 0.8 45.3 C 0.8 45.3 3.5 45.3 3.5 45.3 C 3.8 46.8 5 47.2 6.3 47.2 C 8.1 47.2 9.1 46.3 9.1 44.5 C 9.1 44.5 9.1 42.6 9.1 42.6 C 8.6 43.8 7.5 44.6 5.7 44.6 C 3.1 44.6 0.6 42.8 0.6 38.9 C 0.6 35 3.1 33.2 5.7 33.2 C 7.3 33.2 8.5 33.9 9.1 35 C 9.11 35.01 9.1 33.4 9.1 33.4 L 11.8 33.4 C 11.8 33.4 11.8 44.2 11.8 44.2 Z M 9 38.9 C 9 36.7 7.8 35.6 6.3 35.6 C 4.7 35.6 3.4 36.7 3.4 38.9 C 3.4 41.1 4.7 42.1 6.3 42.1 C 7.8 42.1 9 41.1 9 38.9 Z M 21 36 C 21 36 20.24 35.97 20.2 36 C 18.3 36 17.2 37 17.2 39.3 C 17.22 39.31 17.2 45 17.2 45 L 14.4 45 L 14.4 33.4 L 17.2 33.4 C 17.2 33.4 17.2 35.05 17.2 35 C 17.8 33.8 18.9 33.3 20.2 33.3 C 20.22 33.26 21 33.3 21 33.3 L 21 36 Z M 22.2 31.9 L 25.2 31.9 L 25.2 28.7 L 22.2 28.7 L 22.2 31.9 Z M 22.3 33.4 L 25.1 33.4 L 25.1 45 L 22.3 45 L 22.3 33.4 Z M 44.2 37.2 C 44.18 37.17 44.2 45 44.2 45 L 41.4 45 C 41.4 45 41.39 37.72 41.4 37.7 C 41.4 36.3 40.7 35.7 39.6 35.7 C 38.3 35.7 37.4 36.5 37.4 38.5 C 37.4 38.47 37.4 45 37.4 45 L 34.6 45 C 34.6 45 34.61 37.72 34.6 37.7 C 34.6 36.3 33.9 35.7 32.8 35.7 C 31.5 35.7 30.6 36.5 30.6 38.5 C 30.62 38.45 30.6 45 30.6 45 L 27.8 45 L 27.8 33.4 L 30.6 33.4 C 30.6 33.4 30.58 35.09 30.6 35.1 C 30.9 34.2 31.8 33.2 33.6 33.2 C 35.1 33.2 36.2 33.9 36.8 35.1 C 37.2 34.3 38.1 33.2 40.2 33.2 C 42.6 33.2 44.2 34.7 44.2 37.2 Z M 58.2 39 C 58.2 43.2 55.6 45.1 52.9 45.1 C 51.3 45.1 50.3 44.4 49.6 43.6 C 49.6 43.6 49.6 49.3 49.6 49.3 L 46.8 49.3 L 46.8 33.4 L 49.5 33.4 C 49.5 33.4 49.54 35.24 49.5 35.2 C 50.1 34 51.4 33.2 53.2 33.2 C 55.9 33.2 58.2 35.1 58.2 39 Z M 55.4 39.2 C 55.4 36.8 54 35.7 52.5 35.7 C 50.9 35.7 49.5 36.8 49.5 39.2 C 49.5 41.5 50.9 42.6 52.5 42.6 C 54 42.6 55.4 41.5 55.4 39.2 Z M 62.2 40 C 62.2 41.9 63.6 42.8 65.1 42.8 C 66.2 42.8 67.3 42.4 67.6 41.3 C 67.6 41.3 70.2 41.3 70.2 41.3 C 69.7 43.9 67.4 45.2 65 45.2 C 62.2 45.2 59.5 43.3 59.5 39.2 C 59.5 35.2 62.1 33.2 65 33.2 C 67.9 33.2 70.2 35 70.2 38.9 C 70.22 38.89 70.2 40 70.2 40 C 70.2 40 62.16 40.03 62.2 40 Z M 62.2 38 C 62.2 38 67.5 38 67.5 38 C 67.5 36.5 66.4 35.6 65 35.6 C 63.7 35.6 62.5 36.3 62.2 38 Z M 78.8 36 C 78.8 36 78.04 35.97 78 36 C 76.1 36 75 37 75 39.3 C 75.01 39.31 75 45 75 45 L 72.2 45 L 72.2 33.4 L 75 33.4 C 75 33.4 74.99 35.05 75 35 C 75.6 33.8 76.6 33.3 78 33.3 C 78.01 33.26 78.8 33.3 78.8 33.3 L 78.8 36 Z M 88 45 L 85.2 45 L 85.2 29 L 88 29 L 88 45 Z M 92.7 40 C 92.7 41.9 94.1 42.8 95.7 42.8 C 96.7 42.8 97.8 42.4 98.1 41.3 C 98.1 41.3 100.7 41.3 100.7 41.3 C 100.2 43.9 97.9 45.2 95.5 45.2 C 92.7 45.2 90 43.3 90 39.2 C 90 35.2 92.6 33.2 95.5 33.2 C 98.4 33.2 100.7 35 100.7 38.9 C 100.74 38.89 100.7 40 100.7 40 C 100.7 40 92.67 40.03 92.7 40 Z M 92.7 38 C 92.7 38 98 38 98 38 C 98 36.5 96.9 35.6 95.5 35.6 C 94.2 35.6 93 36.3 92.7 38 Z M 112 41.4 C 112 44 109.7 45.2 107.1 45.2 C 104.7 45.2 102.1 44.2 101.9 41.3 C 101.9 41.3 104.7 41.3 104.7 41.3 C 104.9 42.4 105.9 42.9 107.2 42.9 C 108.4 42.9 109.2 42.5 109.2 41.7 C 109.2 40.9 108.7 40.8 107.1 40.5 C 104.8 40.1 102.2 39.7 102.2 36.9 C 102.2 34.3 104.5 33.2 106.8 33.2 C 109.6 33.2 111.6 34.5 111.7 37.1 C 111.7 37.1 109 37.1 109 37.1 C 108.9 36 108.1 35.5 106.9 35.5 C 105.5 35.5 105 36.1 105 36.8 C 105 37.7 106 37.9 107.4 38.1 C 109.5 38.4 112 38.7 112 41.4 Z M 128 41.4 C 128 44 125.7 45.2 123.1 45.2 C 120.7 45.2 118.1 44.2 117.9 41.3 C 117.9 41.3 120.7 41.3 120.7 41.3 C 120.9 42.4 121.9 42.9 123.2 42.9 C 124.4 42.9 125.2 42.5 125.2 41.7 C 125.2 40.9 124.7 40.8 123.1 40.5 C 120.8 40.1 118.2 39.7 118.2 36.9 C 118.2 34.3 120.4 33.2 122.8 33.2 C 125.5 33.2 127.5 34.5 127.7 37.1 C 127.7 37.1 125 37.1 125 37.1 C 124.9 36 124 35.5 122.9 35.5 C 121.5 35.5 120.9 36.1 120.9 36.8 C 120.9 37.7 122 37.9 123.4 38.1 C 125.5 38.4 128 38.7 128 41.4 Z M 141.2 39 C 141.2 43.2 138.6 45.1 135.9 45.1 C 134.4 45.1 133.3 44.4 132.7 43.6 C 132.66 43.6 132.7 49.3 132.7 49.3 L 129.9 49.3 L 129.9 33.4 L 132.6 33.4 C 132.6 33.4 132.59 35.24 132.6 35.2 C 133.2 34 134.5 33.2 136.2 33.2 C 138.9 33.2 141.2 35.1 141.2 39 Z M 138.4 39.2 C 138.4 36.8 137 35.7 135.5 35.7 C 134 35.7 132.6 36.8 132.6 39.2 C 132.6 41.5 134 42.6 135.5 42.6 C 137 42.6 138.4 41.5 138.4 39.2 Z M 149.8 36 C 149.8 36 149.06 35.97 149.1 36 C 147.1 36 146 37 146 39.3 C 146.03 39.31 146 45 146 45 L 143.2 45 L 143.2 33.4 L 146 33.4 C 146 33.4 146.01 35.05 146 35 C 146.6 33.8 147.7 33.3 149 33.3 C 149.04 33.26 149.8 33.3 149.8 33.3 L 149.8 36 Z M 152.9 40 C 153 41.9 154.3 42.8 155.9 42.8 C 157 42.8 158 42.4 158.4 41.3 C 158.4 41.3 160.9 41.3 160.9 41.3 C 160.4 43.9 158.1 45.2 155.8 45.2 C 153 45.2 150.2 43.3 150.2 39.2 C 150.2 35.2 152.8 33.2 155.8 33.2 C 158.6 33.2 161 35 161 38.9 C 160.98 38.89 161 40 161 40 C 161 40 152.92 40.03 152.9 40 Z M 153 38 C 153 38 158.3 38 158.3 38 C 158.3 36.5 157.2 35.6 155.8 35.6 C 154.5 35.6 153.2 36.3 153 38 Z M 172.2 37.2 C 172.24 37.19 172.2 45 172.2 45 L 169.5 45 C 169.5 45 169.51 43.3 169.5 43.3 C 168.6 44.8 167.2 45.2 166 45.2 C 164.2 45.2 162.2 44.1 162.2 41.6 C 162.2 39.8 163.3 38.6 165.9 38.2 C 165.9 38.2 168.4 37.8 168.4 37.8 C 169.1 37.7 169.6 37.5 169.6 36.8 C 169.6 35.8 168.8 35.4 167.7 35.4 C 166.2 35.4 165.5 36.1 165.4 37.1 C 165.4 37.1 162.7 37.1 162.7 37.1 C 163 34.4 165.2 33.2 167.8 33.2 C 170.5 33.2 172.2 34.5 172.2 37.2 Z M 169.5 40.1 C 169.5 40.1 169.5 39.5 169.5 39.5 C 169.3 39.6 168.7 39.8 168.2 39.8 C 168.2 39.8 166.9 40 166.9 40 C 165.5 40.2 165 40.8 165 41.5 C 165 42.4 165.7 42.9 166.7 42.9 C 168.1 42.9 169.5 41.8 169.5 40.1 Z M 185.4 45 L 182.7 45 C 182.7 45 182.68 43.2 182.7 43.2 C 182 44.5 180.7 45.2 179.1 45.2 C 176.4 45.2 174 43.2 174 39.2 C 174 35.2 176.4 33.2 179.1 33.2 C 180.6 33.2 181.9 33.8 182.6 34.9 C 182.61 34.92 182.6 29 182.6 29 L 185.4 29 L 185.4 45 Z M 182.7 39.2 C 182.7 36.8 181.3 35.7 179.8 35.7 C 178.2 35.7 176.9 36.8 176.9 39.2 C 176.9 41.5 178.2 42.7 179.8 42.7 C 181.3 42.7 182.7 41.5 182.7 39.2 Z M 197.4 41.4 C 197.4 44 195.1 45.2 192.5 45.2 C 190.1 45.2 187.5 44.2 187.3 41.3 C 187.3 41.3 190.1 41.3 190.1 41.3 C 190.3 42.4 191.3 42.9 192.6 42.9 C 193.8 42.9 194.6 42.5 194.6 41.7 C 194.6 40.9 194.1 40.8 192.5 40.5 C 190.2 40.1 187.7 39.7 187.7 36.9 C 187.7 34.3 189.9 33.2 192.3 33.2 C 195 33.2 197 34.5 197.1 37.1 C 197.1 37.1 194.4 37.1 194.4 37.1 C 194.3 36 193.5 35.5 192.3 35.5 C 190.9 35.5 190.4 36.1 190.4 36.8 C 190.4 37.7 191.4 37.9 192.8 38.1 C 194.9 38.4 197.4 38.7 197.4 41.4 Z M 207.3 39.4 C 207.3 36.7 208.7 36.2 209.9 35.3 C 210.9 34.6 211.4 34 211.4 33.2 C 211.4 32 210.5 31.4 209.3 31.4 C 207.8 31.4 206.9 32.2 206.8 33.6 C 206.8 33.6 204 33.6 204 33.6 C 204.3 30.2 206.7 29 209.3 29 C 212.1 29 214.3 30.3 214.3 33.1 C 214.3 35.3 213 36.2 211.6 37.2 C 210.5 38 210 38.5 210 39.4 C 209.98 39.44 210 40.1 210 40.1 L 207.3 40.1 C 207.3 40.1 207.31 39.35 207.3 39.4 Z M 207.1 41.7 L 210.2 41.7 L 210.2 45 L 207.1 45 L 207.1 41.7 Z M 232.8 45 L 222.4 45 L 222.4 29.2 L 225.3 29.2 L 225.3 42.2 L 232.8 42.2 L 232.8 45 Z M 243.7 37.2 C 243.72 37.19 243.7 45 243.7 45 L 241 45 C 241 45 240.99 43.3 241 43.3 C 240.1 44.8 238.7 45.2 237.5 45.2 C 235.6 45.2 233.7 44.1 233.7 41.6 C 233.7 39.8 234.8 38.6 237.4 38.2 C 237.4 38.2 239.9 37.8 239.9 37.8 C 240.6 37.7 241.1 37.5 241.1 36.8 C 241.1 35.8 240.3 35.4 239.1 35.4 C 237.7 35.4 237 36.1 236.9 37.1 C 236.9 37.1 234.2 37.1 234.2 37.1 C 234.5 34.4 236.6 33.2 239.3 33.2 C 242 33.2 243.7 34.5 243.7 37.2 Z M 241 40.1 C 241 40.1 241 39.5 241 39.5 C 240.7 39.6 240.2 39.8 239.6 39.8 C 239.6 39.8 238.4 40 238.4 40 C 237 40.2 236.5 40.8 236.5 41.5 C 236.5 42.4 237.2 42.9 238.1 42.9 C 239.6 42.9 241 41.8 241 40.1 Z M 261.7 45 L 259 45 C 259 45 258.99 43.2 259 43.2 C 258.4 44.5 257 45.2 255.4 45.2 C 252.7 45.2 250.3 43.2 250.3 39.2 C 250.3 35.2 252.7 33.2 255.4 33.2 C 256.9 33.2 258.2 33.8 258.9 34.9 C 258.93 34.92 258.9 29 258.9 29 L 261.7 29 L 261.7 45 Z M 259 39.2 C 259 36.8 257.6 35.7 256.1 35.7 C 254.6 35.7 253.2 36.8 253.2 39.2 C 253.2 41.5 254.6 42.7 256.1 42.7 C 257.6 42.7 259 41.5 259 39.2 Z M 274.6 45 L 271.9 45 C 271.9 45 271.86 43.34 271.9 43.3 C 271.2 44.4 270.1 45.1 268.5 45.1 C 266.1 45.1 264.3 43.6 264.3 40.6 C 264.35 40.59 264.3 33.4 264.3 33.4 L 267.1 33.4 C 267.1 33.4 267.14 40.38 267.1 40.4 C 267.1 42 267.9 42.6 269.1 42.6 C 270.7 42.6 271.8 41.7 271.8 39 C 271.8 39 271.8 33.4 271.8 33.4 L 274.6 33.4 L 274.6 45 Z M 283.9 36 C 283.9 36 283.14 35.97 283.1 36 C 281.2 36 280.1 37 280.1 39.3 C 280.12 39.31 280.1 45 280.1 45 L 277.3 45 L 277.3 33.4 L 280.1 33.4 C 280.1 33.4 280.09 35.05 280.1 35 C 280.7 33.8 281.8 33.3 283.1 33.3 C 283.12 33.26 283.9 33.3 283.9 33.3 L 283.9 36 Z M 294.5 37.2 C 294.5 37.19 294.5 45 294.5 45 L 291.8 45 C 291.8 45 291.77 43.3 291.8 43.3 C 290.9 44.8 289.5 45.2 288.3 45.2 C 286.4 45.2 284.5 44.1 284.5 41.6 C 284.5 39.8 285.5 38.6 288.2 38.2 C 288.2 38.2 290.7 37.8 290.7 37.8 C 291.4 37.7 291.9 37.5 291.9 36.8 C 291.9 35.8 291 35.4 289.9 35.4 C 288.4 35.4 287.8 36.1 287.7 37.1 C 287.7 37.1 285 37.1 285 37.1 C 285.3 34.4 287.4 33.2 290 33.2 C 292.8 33.2 294.5 34.5 294.5 37.2 Z M 291.8 40.1 C 291.8 40.1 291.8 39.5 291.8 39.5 C 291.5 39.6 291 39.8 290.4 39.8 C 290.4 39.8 289.2 40 289.2 40 C 287.8 40.2 287.3 40.8 287.3 41.5 C 287.3 42.4 287.9 42.9 288.9 42.9 C 290.4 42.9 291.8 41.8 291.8 40.1 Z M 302.9 45 C 302.9 45 301.12 44.98 301.1 45 C 299 45 297.6 44.3 297.6 41.2 C 297.57 41.2 297.6 35.9 297.6 35.9 L 295.4 35.9 L 295.4 33.4 L 297.6 33.4 L 297.6 30.8 L 300.4 30 L 300.4 33.4 L 302.7 33.4 L 302.7 35.9 L 300.4 35.9 C 300.4 35.9 300.36 41.33 300.4 41.3 C 300.4 42 300.5 42.5 301.5 42.5 C 301.54 42.5 302.9 42.5 302.9 42.5 L 302.9 45 Z M 304.4 31.9 L 307.4 31.9 L 307.4 28.7 L 304.4 28.7 L 304.4 31.9 Z M 304.5 33.4 L 307.3 33.4 L 307.3 45 L 304.5 45 L 304.5 33.4 Z M 320.6 39.2 C 320.6 43 318.2 45.2 314.9 45.2 C 311.7 45.2 309.3 43 309.3 39.2 C 309.3 35.4 311.7 33.2 314.9 33.2 C 318.2 33.2 320.6 35.4 320.6 39.2 Z M 312.1 39.2 C 312.1 41.5 313.4 42.6 315 42.6 C 316.6 42.6 317.7 41.4 317.7 39.2 C 317.7 36.9 316.4 35.8 314.9 35.8 C 313.2 35.8 312.1 37 312.1 39.2 Z M 332.8 37.5 C 332.76 37.51 332.8 45 332.8 45 L 330 45 C 330 45 329.97 37.76 330 37.8 C 330 36.5 329.2 35.7 327.9 35.7 C 326.3 35.7 325.4 36.8 325.4 38.7 C 325.37 38.72 325.4 45 325.4 45 L 322.6 45 L 322.6 33.4 L 325.3 33.4 C 325.3 33.4 325.35 35.07 325.3 35.1 C 326 34 326.9 33.2 328.9 33.2 C 331.5 33.2 332.8 34.7 332.8 37.5 Z " stroke="none" fill="#000"/>  </g>  <g id="Polygon10295">    <path d="M 13.6 18.5 C 13.57 18.52 15.9 22.6 15.9 22.6 L 12.8 22.6 C 12.8 22.6 11.19 19.8 11.2 19.8 C 10.4 20.1 9.6 20.2 8.7 20.2 C 4.1 20.2 0.8 16.4 0.8 11.9 C 0.8 7.4 4 3.7 8.7 3.7 C 13.5 3.7 16.6 7.4 16.6 11.9 C 16.6 14.6 15.6 17 13.6 18.5 Z M 8.9 17.4 C 9.1 17.4 9.4 17.3 9.6 17.3 C 9.64 17.32 7 12.8 7 12.8 L 10.1 12.8 C 10.1 12.8 12.07 16.15 12.1 16.1 C 13.1 15.1 13.7 13.6 13.7 11.9 C 13.7 8.8 11.8 6.5 8.8 6.5 C 5.7 6.5 3.8 8.8 3.8 12 C 3.8 15 5.6 17.4 8.9 17.4 Z M 29 19.8 L 26.2 19.8 C 26.2 19.8 26.23 18.14 26.2 18.1 C 25.6 19.2 24.5 19.9 22.9 19.9 C 20.5 19.9 18.7 18.4 18.7 15.4 C 18.71 15.39 18.7 8.2 18.7 8.2 L 21.5 8.2 C 21.5 8.2 21.5 15.18 21.5 15.2 C 21.5 16.8 22.3 17.4 23.5 17.4 C 25 17.4 26.2 16.5 26.2 13.8 C 26.17 13.8 26.2 8.2 26.2 8.2 L 29 8.2 L 29 19.8 Z M 33.2 6.1 C 33.18 6.07 31.8 6.1 31.8 6.1 L 31.8 3.1 L 35 3.1 C 35 3.1 34.96 5.67 35 5.7 C 35 8.7 32.9 9.7 31 10 C 31 10 30.7 8.5 30.7 8.5 C 32.3 8.3 33.2 7.4 33.2 6.1 Z M 37.3 14.8 C 37.3 16.7 38.7 17.6 40.2 17.6 C 41.3 17.6 42.4 17.2 42.7 16.1 C 42.7 16.1 45.3 16.1 45.3 16.1 C 44.8 18.7 42.5 20 40.1 20 C 37.3 20 34.5 18.1 34.5 14 C 34.5 10 37.2 8 40.1 8 C 42.9 8 45.3 9.8 45.3 13.7 C 45.32 13.69 45.3 14.8 45.3 14.8 C 45.3 14.8 37.25 14.83 37.3 14.8 Z M 37.3 12.8 C 37.3 12.8 42.6 12.8 42.6 12.8 C 42.6 11.3 41.5 10.4 40.1 10.4 C 38.8 10.4 37.6 11.1 37.3 12.8 Z M 56.6 16.2 C 56.6 18.8 54.3 20 51.7 20 C 49.3 20 46.7 19 46.5 16.1 C 46.5 16.1 49.3 16.1 49.3 16.1 C 49.5 17.2 50.5 17.7 51.8 17.7 C 53 17.7 53.8 17.3 53.8 16.5 C 53.8 15.7 53.3 15.6 51.7 15.3 C 49.4 14.9 46.8 14.5 46.8 11.7 C 46.8 9.1 49 8 51.4 8 C 54.1 8 56.1 9.3 56.3 11.9 C 56.3 11.9 53.6 11.9 53.6 11.9 C 53.5 10.8 52.6 10.3 51.5 10.3 C 50.1 10.3 49.5 10.9 49.5 11.6 C 49.5 12.5 50.6 12.7 52 12.9 C 54.1 13.2 56.6 13.5 56.6 16.2 Z M 64.4 19.8 C 64.4 19.8 62.56 19.78 62.6 19.8 C 60.4 19.8 59 19.1 59 16 C 59.01 16 59 10.7 59 10.7 L 56.9 10.7 L 56.9 8.2 L 59 8.2 L 59 5.6 L 61.8 4.8 L 61.8 8.2 L 64.1 8.2 L 64.1 10.7 L 61.8 10.7 C 61.8 10.7 61.8 16.13 61.8 16.1 C 61.8 16.8 62 17.3 63 17.3 C 62.98 17.3 64.4 17.3 64.4 17.3 L 64.4 19.8 Z M 72.1 11.9 L 65.6 11.9 L 65.6 14.4 L 72.1 14.4 L 72.1 11.9 Z M 79.4 20 C 75.6 20 73.8 17.1 73.8 14 C 73.8 10.9 75.6 8 79.4 8 C 82.3 8 84.4 9.6 84.5 12.4 C 84.5 12.4 81.8 12.4 81.8 12.4 C 81.6 11.3 80.8 10.5 79.5 10.5 C 77.4 10.5 76.6 12.2 76.6 14 C 76.6 15.9 77.5 17.4 79.5 17.4 C 80.8 17.4 81.6 16.7 81.8 15.7 C 81.8 15.7 84.6 15.7 84.6 15.7 C 84.2 18.5 82.2 20 79.4 20 Z M 88.6 14.8 C 88.6 16.7 90 17.6 91.6 17.6 C 92.7 17.6 93.7 17.2 94 16.1 C 94 16.1 96.6 16.1 96.6 16.1 C 96.1 18.7 93.8 20 91.4 20 C 88.6 20 85.9 18.1 85.9 14 C 85.9 10 88.5 8 91.5 8 C 94.3 8 96.6 9.8 96.6 13.7 C 96.64 13.69 96.6 14.8 96.6 14.8 C 96.6 14.8 88.58 14.83 88.6 14.8 Z M 88.6 12.8 C 88.6 12.8 93.9 12.8 93.9 12.8 C 93.9 11.3 92.8 10.4 91.4 10.4 C 90.1 10.4 88.9 11.1 88.6 12.8 Z M 114.1 8.2 L 114.1 24.1 L 111.3 24.1 C 111.3 24.1 111.32 18.06 111.3 18.1 C 110.6 19.2 109.5 19.9 107.9 19.9 C 105.2 19.9 102.7 18 102.7 13.9 C 102.7 9.9 105.1 8 107.8 8 C 109.3 8 110.7 8.6 111.4 9.8 C 111.38 9.83 111.4 8.2 111.4 8.2 L 114.1 8.2 Z M 111.4 13.9 C 111.4 11.5 110 10.5 108.5 10.5 C 107 10.5 105.6 11.5 105.6 13.9 C 105.6 16.2 107 17.3 108.5 17.3 C 110 17.3 111.4 16.3 111.4 13.9 Z M 126.9 19.8 L 124.2 19.8 C 124.2 19.8 124.15 18.14 124.2 18.1 C 123.5 19.2 122.4 19.9 120.8 19.9 C 118.4 19.9 116.6 18.4 116.6 15.4 C 116.63 15.39 116.6 8.2 116.6 8.2 L 119.4 8.2 C 119.4 8.2 119.43 15.18 119.4 15.2 C 119.4 16.8 120.2 17.4 121.4 17.4 C 123 17.4 124.1 16.5 124.1 13.8 C 124.09 13.8 124.1 8.2 124.1 8.2 L 126.9 8.2 L 126.9 19.8 Z M 129.5 6.7 L 132.5 6.7 L 132.5 3.5 L 129.5 3.5 L 129.5 6.7 Z M 129.6 8.2 L 132.4 8.2 L 132.4 19.8 L 129.6 19.8 L 129.6 8.2 Z M 152.1 13.8 C 152.1 18 149.5 19.9 146.8 19.9 C 145.3 19.9 144.2 19.2 143.6 18.4 C 143.55 18.4 143.6 24.1 143.6 24.1 L 140.8 24.1 L 140.8 8.2 L 143.5 8.2 C 143.5 8.2 143.49 10.04 143.5 10 C 144.1 8.8 145.4 8 147.1 8 C 149.8 8 152.1 9.9 152.1 13.8 Z M 149.3 14 C 149.3 11.6 147.9 10.5 146.4 10.5 C 144.9 10.5 143.5 11.6 143.5 14 C 143.5 16.3 144.9 17.4 146.4 17.4 C 147.9 17.4 149.3 16.3 149.3 14 Z M 164.7 14 C 164.7 17.8 162.3 20 159.1 20 C 155.8 20 153.4 17.8 153.4 14 C 153.4 10.2 155.8 8 159.1 8 C 162.3 8 164.7 10.2 164.7 14 Z M 156.3 14 C 156.3 16.3 157.5 17.4 159.1 17.4 C 160.8 17.4 161.9 16.2 161.9 14 C 161.9 11.7 160.6 10.6 159 10.6 C 157.4 10.6 156.3 11.8 156.3 14 Z M 176.9 19.8 L 174.1 19.8 C 174.1 19.8 174.13 18.14 174.1 18.1 C 173.5 19.2 172.4 19.9 170.8 19.9 C 168.4 19.9 166.6 18.4 166.6 15.4 C 166.61 15.39 166.6 8.2 166.6 8.2 L 169.4 8.2 C 169.4 8.2 169.41 15.18 169.4 15.2 C 169.4 16.8 170.2 17.4 171.4 17.4 C 172.9 17.4 174.1 16.5 174.1 13.8 C 174.07 13.8 174.1 8.2 174.1 8.2 L 176.9 8.2 L 176.9 19.8 Z M 186.1 10.8 C 186.1 10.8 185.41 10.77 185.4 10.8 C 183.5 10.8 182.4 11.8 182.4 14.1 C 182.38 14.11 182.4 19.8 182.4 19.8 L 179.6 19.8 L 179.6 8.2 L 182.4 8.2 C 182.4 8.2 182.36 9.85 182.4 9.8 C 183 8.6 184 8.1 185.4 8.1 C 185.39 8.06 186.1 8.1 186.1 8.1 L 186.1 10.8 Z M 194.1 10.8 C 194.1 10.8 193.32 10.77 193.3 10.8 C 191.4 10.8 190.3 11.8 190.3 14.1 C 190.3 14.11 190.3 19.8 190.3 19.8 L 187.5 19.8 L 187.5 8.2 L 190.3 8.2 C 190.3 8.2 190.28 9.85 190.3 9.8 C 190.9 8.6 191.9 8.1 193.3 8.1 C 193.3 8.06 194.1 8.1 194.1 8.1 L 194.1 10.8 Z M 204.7 12 C 204.69 11.99 204.7 19.8 204.7 19.8 L 202 19.8 C 202 19.8 201.96 18.1 202 18.1 C 201.1 19.6 199.7 20 198.4 20 C 196.6 20 194.7 18.9 194.7 16.4 C 194.7 14.6 195.7 13.4 198.4 13 C 198.4 13 200.9 12.6 200.9 12.6 C 201.6 12.5 202.1 12.3 202.1 11.6 C 202.1 10.6 201.2 10.2 200.1 10.2 C 198.6 10.2 197.9 10.9 197.8 11.9 C 197.8 11.9 195.2 11.9 195.2 11.9 C 195.4 9.2 197.6 8 200.2 8 C 203 8 204.7 9.3 204.7 12 Z M 202 14.9 C 202 14.9 202 14.3 202 14.3 C 201.7 14.4 201.2 14.6 200.6 14.6 C 200.6 14.6 199.4 14.8 199.4 14.8 C 197.9 15 197.5 15.6 197.5 16.3 C 197.5 17.2 198.1 17.7 199.1 17.7 C 200.5 17.7 202 16.6 202 14.9 Z M 207.1 6.7 L 210.1 6.7 L 210.1 3.5 L 207.1 3.5 L 207.1 6.7 Z M 207.2 8.2 L 210 8.2 L 210 19.8 L 207.2 19.8 L 207.2 8.2 Z M 218.6 19.8 C 218.6 19.8 216.78 19.78 216.8 19.8 C 214.6 19.8 213.2 19.1 213.2 16 C 213.23 16 213.2 10.7 213.2 10.7 L 211.1 10.7 L 211.1 8.2 L 213.2 8.2 L 213.2 5.6 L 216 4.8 L 216 8.2 L 218.3 8.2 L 218.3 10.7 L 216 10.7 C 216 10.7 216.02 16.13 216 16.1 C 216 16.8 216.2 17.3 217.2 17.3 C 217.2 17.3 218.6 17.3 218.6 17.3 L 218.6 19.8 Z M 229.8 6.3 C 228.8 6.3 228.6 6.7 228.6 7.4 C 228.58 7.43 228.6 8.2 228.6 8.2 L 230.7 8.2 L 230.7 10.7 L 228.6 10.7 L 228.6 19.8 L 225.8 19.8 L 225.8 10.7 L 224.1 10.7 L 224.1 8.2 L 225.8 8.2 C 225.8 8.2 225.79 7.56 225.8 7.6 C 225.8 4.5 227.2 3.8 229.3 3.8 C 229.34 3.78 231 3.8 231 3.8 L 231 6.3 C 231 6.3 229.76 6.26 229.8 6.3 Z M 241.6 12 C 241.64 11.99 241.6 19.8 241.6 19.8 L 238.9 19.8 C 238.9 19.8 238.91 18.1 238.9 18.1 C 238 19.6 236.6 20 235.4 20 C 233.6 20 231.6 18.9 231.6 16.4 C 231.6 14.6 232.7 13.4 235.3 13 C 235.3 13 237.8 12.6 237.8 12.6 C 238.5 12.5 239 12.3 239 11.6 C 239 10.6 238.2 10.2 237.1 10.2 C 235.6 10.2 234.9 10.9 234.8 11.9 C 234.8 11.9 232.1 11.9 232.1 11.9 C 232.4 9.2 234.6 8 237.2 8 C 239.9 8 241.6 9.3 241.6 12 Z M 238.9 14.9 C 238.9 14.9 238.9 14.3 238.9 14.3 C 238.7 14.4 238.1 14.6 237.6 14.6 C 237.6 14.6 236.3 14.8 236.3 14.8 C 234.9 15 234.4 15.6 234.4 16.3 C 234.4 17.2 235.1 17.7 236.1 17.7 C 237.5 17.7 238.9 16.6 238.9 14.9 Z M 244.1 6.7 L 247 6.7 L 247 3.5 L 244.1 3.5 L 244.1 6.7 Z M 244.1 8.2 L 246.9 8.2 L 246.9 19.8 L 244.1 19.8 L 244.1 8.2 Z M 256.2 10.8 C 256.2 10.8 255.46 10.77 255.5 10.8 C 253.5 10.8 252.4 11.8 252.4 14.1 C 252.44 14.11 252.4 19.8 252.4 19.8 L 249.6 19.8 L 249.6 8.2 L 252.4 8.2 C 252.4 8.2 252.42 9.85 252.4 9.8 C 253 8.6 254.1 8.1 255.4 8.1 C 255.44 8.06 256.2 8.1 256.2 8.1 L 256.2 10.8 Z M 259.3 14.8 C 259.4 16.7 260.7 17.6 262.3 17.6 C 263.4 17.6 264.4 17.2 264.8 16.1 C 264.8 16.1 267.3 16.1 267.3 16.1 C 266.8 18.7 264.6 20 262.2 20 C 259.4 20 256.6 18.1 256.6 14 C 256.6 10 259.2 8 262.2 8 C 265 8 267.4 9.8 267.4 13.7 C 267.39 13.69 267.4 14.8 267.4 14.8 C 267.4 14.8 259.33 14.83 259.3 14.8 Z M 259.4 12.8 C 259.4 12.8 264.7 12.8 264.7 12.8 C 264.7 11.3 263.6 10.4 262.2 10.4 C 260.9 10.4 259.6 11.1 259.4 12.8 Z " stroke="none" fill="#000"/>  </g></svg>