<?xml version="1.0" standalone="no"?><!DOCTYPE svg PUBLIC "-//W3C//DTD SVG 1.1//EN" "http://www.w3.org/Graphics/SVG/1.1/DTD/svg11.dtd"><svg xmlns="http://www.w3.org/2000/svg" version="1.1" width="461px" height="187.4px" viewBox="0 0 461 187.4">  <desc>Asimismo, est n los cambios normativos Los sectores que necesitaron ayuda en 2020 pueden afrontar cambios normativos</desc>  <defs/>  <g id="Polygon11464">    <path d="M 11.5 171 L 10 171 C 10 171 10.02 168.8 10 168.8 C 9.5 170.1 8.1 171.2 6 171.2 C 3 171.2 0.9 168.9 0.9 165.3 C 0.9 161.8 3 159.5 6 159.5 C 7.9 159.5 9.3 160.4 10 161.6 C 9.95 161.62 10 155 10 155 L 11.5 155 L 11.5 171 Z M 9.9 165.3 C 9.9 162.5 8.4 160.9 6.2 160.9 C 4 160.9 2.5 162.6 2.5 165.3 C 2.5 168.1 4 169.8 6.2 169.8 C 8.4 169.8 9.9 168.1 9.9 165.3 Z M 15.6 165.7 C 15.7 168.5 17.4 169.8 19.4 169.8 C 20.9 169.8 22.3 169.1 22.7 167.5 C 22.7 167.5 24.1 167.5 24.1 167.5 C 23.6 170.1 21.4 171.2 19.3 171.2 C 16.6 171.2 14.1 169.4 14.1 165.4 C 14.1 161.3 16.7 159.5 19.4 159.5 C 22 159.5 24.2 161.2 24.2 165 C 24.21 164.95 24.2 165.7 24.2 165.7 C 24.2 165.7 15.62 165.71 15.6 165.7 Z M 15.7 164.4 C 15.7 164.4 22.7 164.4 22.7 164.4 C 22.7 162.1 21.2 160.9 19.3 160.9 C 17.5 160.9 15.9 162 15.7 164.4 Z M 42.6 165.3 C 42.6 168.8 40.5 171.2 37.5 171.2 C 35.5 171.2 34.1 170.1 33.6 168.9 C 33.56 168.9 33.6 171 33.6 171 L 32.1 171 L 32.1 155 L 33.6 155 C 33.6 155 33.62 161.97 33.6 162 C 34.2 160.6 35.6 159.5 37.7 159.5 C 40.5 159.5 42.6 161.7 42.6 165.3 Z M 41.1 165.4 C 41.1 162.6 39.6 161 37.4 161 C 35.2 161 33.6 162.6 33.6 165.4 C 33.6 168.2 35.2 169.9 37.3 169.9 C 39.5 169.9 41.1 168.1 41.1 165.4 Z M 44.5 165.4 C 44.5 161.7 46.7 159.5 49.8 159.5 C 52.9 159.5 55.2 161.7 55.2 165.4 C 55.2 169 53 171.2 49.9 171.2 C 46.7 171.2 44.5 169 44.5 165.4 Z M 53.6 165.3 C 53.6 162.5 51.9 160.9 49.8 160.9 C 47.6 160.9 46.1 162.6 46.1 165.4 C 46.1 168.2 47.8 169.8 49.9 169.8 C 52.1 169.8 53.6 168.1 53.6 165.3 Z M 67 163.3 C 66.97 163.25 67 171 67 171 L 65.4 171 C 65.4 171 65.44 163.44 65.4 163.4 C 65.4 161.9 64.6 160.9 63 160.9 C 61 160.9 59.3 162.3 59.3 165.1 C 59.35 165.06 59.3 171 59.3 171 L 57.8 171 L 57.8 159.7 L 59.3 159.7 C 59.3 159.7 59.35 161.8 59.3 161.8 C 60 160.5 61.3 159.5 63.3 159.5 C 65.5 159.5 67 160.8 67 163.3 Z M 69.5 165.4 C 69.5 161.7 71.7 159.5 74.8 159.5 C 77.9 159.5 80.2 161.7 80.2 165.4 C 80.2 169 78 171.2 74.8 171.2 C 71.7 171.2 69.5 169 69.5 165.4 Z M 78.6 165.3 C 78.6 162.5 76.9 160.9 74.8 160.9 C 72.6 160.9 71.1 162.6 71.1 165.4 C 71.1 168.2 72.8 169.8 74.9 169.8 C 77 169.8 78.6 168.1 78.6 165.3 Z M 91.2 167.8 C 91.2 170.1 89.1 171.2 86.8 171.2 C 84.4 171.2 82.2 170 82 167.5 C 82 167.5 83.6 167.5 83.6 167.5 C 83.9 169.2 85.3 169.8 86.9 169.8 C 88.3 169.8 89.6 169.3 89.6 168 C 89.6 166.7 88.3 166.4 87 166.2 C 84.8 165.8 82.2 165.4 82.2 162.8 C 82.2 160.6 84.2 159.5 86.5 159.5 C 88.9 159.5 90.8 160.6 90.9 162.9 C 90.9 162.9 89.3 162.9 89.3 162.9 C 89.2 161.5 87.9 160.9 86.4 160.9 C 84.9 160.9 83.8 161.6 83.8 162.7 C 83.8 164.2 85.2 164.4 86.9 164.7 C 88.9 165 91.2 165.3 91.2 167.8 Z M 93 168.8 L 95.1 168.8 L 95.1 171 L 93 171 L 93 168.8 Z " stroke="none" fill="#000"/>  </g>  <g id="Polygon11463">    <path d="M 10.8 138.1 C 10.84 138.05 10.8 145.8 10.8 145.8 L 9.3 145.8 C 9.3 145.8 9.3 138.24 9.3 138.2 C 9.3 136.7 8.4 135.7 6.8 135.7 C 4.9 135.7 3.2 137.1 3.2 139.9 C 3.21 139.86 3.2 145.8 3.2 145.8 L 1.7 145.8 L 1.7 134.5 L 3.2 134.5 C 3.2 134.5 3.21 136.6 3.2 136.6 C 3.9 135.3 5.1 134.3 7.1 134.3 C 9.4 134.3 10.8 135.6 10.8 138.1 Z M 21.5 145.8 C 21.5 145.8 21.5 143.64 21.5 143.6 C 20.7 145.2 19.3 145.9 17.7 145.9 C 15.6 145.9 14 144.6 14 142 C 13.99 141.96 14 134.5 14 134.5 L 15.5 134.5 C 15.5 134.5 15.52 141.77 15.5 141.8 C 15.5 143.6 16.5 144.6 18 144.6 C 19.8 144.6 21.4 143.2 21.4 140.3 C 21.44 140.34 21.4 134.5 21.4 134.5 L 23 134.5 L 23 145.8 L 21.5 145.8 Z M 27.1 140.5 C 27.2 143.3 28.9 144.6 30.9 144.6 C 32.4 144.6 33.8 143.9 34.2 142.3 C 34.2 142.3 35.6 142.3 35.6 142.3 C 35.1 144.9 32.9 146 30.8 146 C 28.1 146 25.6 144.2 25.6 140.2 C 25.6 136.1 28.1 134.3 30.8 134.3 C 33.5 134.3 35.7 136 35.7 139.8 C 35.7 139.75 35.7 140.5 35.7 140.5 C 35.7 140.5 27.11 140.51 27.1 140.5 Z M 27.2 139.2 C 27.2 139.2 34.1 139.2 34.1 139.2 C 34.1 136.9 32.7 135.7 30.8 135.7 C 29 135.7 27.4 136.8 27.2 139.2 Z M 42.8 145.8 L 41.1 145.8 L 37 134.5 L 38.6 134.5 L 42 144.2 L 45.4 134.5 L 47 134.5 L 42.8 145.8 Z M 55.7 143.7 C 54.8 145.4 53.1 146 51.7 146 C 49.8 146 48 144.9 48 142.7 C 48 140.6 49.5 139.6 51.5 139.4 C 51.5 139.4 54.1 139 54.1 139 C 55 138.9 55.7 138.6 55.7 137.6 C 55.7 136.3 54.6 135.6 53 135.6 C 51.3 135.6 50.3 136.4 50 137.7 C 50 137.7 48.5 137.7 48.5 137.7 C 48.8 135.4 50.6 134.3 53.1 134.3 C 55.6 134.3 57.2 135.5 57.2 138 C 57.2 137.99 57.2 145.8 57.2 145.8 L 55.7 145.8 C 55.7 145.8 55.71 143.72 55.7 143.7 Z M 53.8 140.3 C 53.8 140.3 52.1 140.5 52.1 140.5 C 50.7 140.7 49.6 141.2 49.6 142.6 C 49.6 144 50.7 144.6 52 144.6 C 53.7 144.6 55.7 143.3 55.7 140.9 C 55.7 140.9 55.7 139.8 55.7 139.8 C 55.3 140.1 54.6 140.2 53.8 140.3 Z M 73.6 142.6 C 73.6 144.9 71.5 146 69.2 146 C 66.8 146 64.6 144.8 64.3 142.3 C 64.3 142.3 66 142.3 66 142.3 C 66.2 144 67.7 144.6 69.2 144.6 C 70.7 144.6 72 144.1 72 142.8 C 72 141.5 70.7 141.2 69.3 141 C 67.2 140.6 64.6 140.2 64.6 137.6 C 64.6 135.4 66.5 134.3 68.9 134.3 C 71.3 134.3 73.1 135.4 73.3 137.7 C 73.3 137.7 71.7 137.7 71.7 137.7 C 71.6 136.3 70.3 135.7 68.8 135.7 C 67.3 135.7 66.2 136.4 66.2 137.5 C 66.2 139 67.6 139.2 69.3 139.5 C 71.3 139.8 73.6 140.1 73.6 142.6 Z M 76.9 140.5 C 76.9 143.3 78.6 144.6 80.6 144.6 C 82.1 144.6 83.6 143.9 83.9 142.3 C 83.9 142.3 85.4 142.3 85.4 142.3 C 84.9 144.9 82.7 146 80.5 146 C 77.8 146 75.3 144.2 75.3 140.2 C 75.3 136.1 77.9 134.3 80.6 134.3 C 83.3 134.3 85.4 136 85.4 139.8 C 85.45 139.75 85.4 140.5 85.4 140.5 C 85.4 140.5 76.86 140.51 76.9 140.5 Z M 76.9 139.2 C 76.9 139.2 83.9 139.2 83.9 139.2 C 83.9 136.9 82.4 135.7 80.5 135.7 C 78.8 135.7 77.1 136.8 76.9 139.2 Z M 93.7 135.8 C 93.7 135.8 93.34 135.83 93.3 135.8 C 91 135.8 89.6 137.2 89.6 139.8 C 89.61 139.8 89.6 145.8 89.6 145.8 L 88.1 145.8 L 88.1 134.5 L 89.6 134.5 C 89.6 134.5 89.59 136.58 89.6 136.6 C 90.1 135.1 91.5 134.4 93.2 134.4 C 93.22 134.38 93.7 134.4 93.7 134.4 L 93.7 135.8 Z M 97.3 129.8 L 95.6 129.8 L 95.6 131.7 L 97.3 131.7 L 97.3 129.8 Z M 97.2 145.8 L 95.7 145.8 L 95.7 134.5 L 97.2 134.5 L 97.2 145.8 Z M 101.4 140.5 C 101.4 143.3 103.1 144.6 105.1 144.6 C 106.6 144.6 108.1 143.9 108.4 142.3 C 108.4 142.3 109.9 142.3 109.9 142.3 C 109.4 144.9 107.2 146 105 146 C 102.4 146 99.9 144.2 99.9 140.2 C 99.9 136.1 102.4 134.3 105.1 134.3 C 107.8 134.3 110 136 110 139.8 C 109.96 139.75 110 140.5 110 140.5 C 110 140.5 101.37 140.51 101.4 140.5 Z M 101.4 139.2 C 101.4 139.2 108.4 139.2 108.4 139.2 C 108.4 136.9 106.9 135.7 105 135.7 C 103.3 135.7 101.6 136.8 101.4 139.2 Z M 127.2 145.8 L 125.7 145.8 C 125.7 145.8 125.75 143.6 125.7 143.6 C 125.2 144.9 123.8 146 121.7 146 C 118.8 146 116.7 143.7 116.7 140.1 C 116.7 136.6 118.8 134.3 121.8 134.3 C 123.7 134.3 125.1 135.2 125.7 136.4 C 125.68 136.42 125.7 129.8 125.7 129.8 L 127.2 129.8 L 127.2 145.8 Z M 125.7 140.1 C 125.7 137.3 124.1 135.7 121.9 135.7 C 119.7 135.7 118.3 137.4 118.3 140.1 C 118.3 142.9 119.8 144.6 121.9 144.6 C 124.1 144.6 125.7 142.9 125.7 140.1 Z M 131.4 140.5 C 131.4 143.3 133.1 144.6 135.1 144.6 C 136.6 144.6 138.1 143.9 138.4 142.3 C 138.4 142.3 139.9 142.3 139.9 142.3 C 139.4 144.9 137.2 146 135 146 C 132.3 146 129.8 144.2 129.8 140.2 C 129.8 136.1 132.4 134.3 135.1 134.3 C 137.8 134.3 139.9 136 139.9 139.8 C 139.94 139.75 139.9 140.5 139.9 140.5 C 139.9 140.5 131.35 140.51 131.4 140.5 Z M 131.4 139.2 C 131.4 139.2 138.4 139.2 138.4 139.2 C 138.4 136.9 136.9 135.7 135 135.7 C 133.3 135.7 131.6 136.8 131.4 139.2 Z M 146.7 140.2 C 146.7 136.5 148.9 134.3 152 134.3 C 155.1 134.3 157.4 136.5 157.4 140.2 C 157.4 143.8 155.1 146 152 146 C 148.9 146 146.7 143.8 146.7 140.2 Z M 155.8 140.1 C 155.8 137.3 154.1 135.7 152 135.7 C 149.8 135.7 148.2 137.4 148.2 140.2 C 148.2 143 149.9 144.6 152 144.6 C 154.2 144.6 155.8 142.9 155.8 140.1 Z M 170.5 140.1 C 170.5 144.2 167.9 145.9 165.3 145.9 C 163.4 145.9 162.1 145 161.5 143.8 C 161.51 143.83 161.5 150.1 161.5 150.1 L 160 150.1 L 160 134.5 L 161.5 134.5 C 161.5 134.5 161.47 136.88 161.5 136.9 C 162 135.5 163.4 134.3 165.5 134.3 C 167.9 134.3 170.5 136 170.5 140.1 Z M 168.9 140.1 C 168.9 137 167.1 135.8 165.3 135.8 C 163.4 135.8 161.5 137 161.5 140.2 C 161.5 143.3 163.4 144.5 165.2 144.5 C 167.1 144.5 168.9 143.3 168.9 140.1 Z M 172.4 140.2 C 172.4 136.5 174.6 134.3 177.7 134.3 C 180.8 134.3 183.1 136.5 183.1 140.2 C 183.1 143.8 180.9 146 177.7 146 C 174.6 146 172.4 143.8 172.4 140.2 Z M 181.5 140.1 C 181.5 137.3 179.8 135.7 177.7 135.7 C 175.5 135.7 174 137.4 174 140.2 C 174 143 175.7 144.6 177.8 144.6 C 179.9 144.6 181.5 142.9 181.5 140.1 Z M 191.3 135.8 C 191.3 135.8 190.97 135.83 191 135.8 C 188.6 135.8 187.2 137.2 187.2 139.8 C 187.24 139.8 187.2 145.8 187.2 145.8 L 185.7 145.8 L 185.7 134.5 L 187.2 134.5 C 187.2 134.5 187.21 136.58 187.2 136.6 C 187.7 135.1 189.1 134.4 190.8 134.4 C 190.85 134.38 191.3 134.4 191.3 134.4 L 191.3 135.8 Z M 198.9 145.8 C 198.9 145.8 197.23 145.78 197.2 145.8 C 195.7 145.8 194.4 145.3 194.4 142.8 C 194.4 142.82 194.4 135.9 194.4 135.9 L 192.2 135.9 L 192.2 134.5 L 194.4 134.5 L 194.4 131.3 L 195.9 130.9 L 195.9 134.5 L 198.7 134.5 L 198.7 135.9 L 195.9 135.9 C 195.9 135.9 195.93 142.8 195.9 142.8 C 195.9 143.8 196.2 144.4 197.5 144.4 C 197.48 144.4 198.9 144.4 198.9 144.4 L 198.9 145.8 Z M 208.5 145.8 C 208.5 145.8 208.51 143.64 208.5 143.6 C 207.7 145.2 206.3 145.9 204.7 145.9 C 202.6 145.9 201 144.6 201 142 C 200.99 141.96 201 134.5 201 134.5 L 202.5 134.5 C 202.5 134.5 202.52 141.77 202.5 141.8 C 202.5 143.6 203.5 144.6 205 144.6 C 206.8 144.6 208.4 143.2 208.4 140.3 C 208.44 140.34 208.4 134.5 208.4 134.5 L 210 134.5 L 210 145.8 L 208.5 145.8 Z M 222.5 138.1 C 222.49 138.05 222.5 145.8 222.5 145.8 L 221 145.8 C 221 145.8 220.96 138.24 221 138.2 C 221 136.7 220.1 135.7 218.5 135.7 C 216.6 135.7 214.9 137.1 214.9 139.9 C 214.87 139.86 214.9 145.8 214.9 145.8 L 213.3 145.8 L 213.3 134.5 L 214.9 134.5 C 214.9 134.5 214.87 136.6 214.9 136.6 C 215.5 135.3 216.8 134.3 218.8 134.3 C 221 134.3 222.5 135.6 222.5 138.1 Z M 227.4 129.8 L 225.6 129.8 L 225.6 131.7 L 227.4 131.7 L 227.4 129.8 Z M 227.3 145.8 L 225.7 145.8 L 225.7 134.5 L 227.3 134.5 L 227.3 145.8 Z M 240.4 145.8 L 239 145.8 C 239 145.8 238.98 143.6 239 143.6 C 238.4 144.9 237.1 146 235 146 C 232 146 229.9 143.7 229.9 140.1 C 229.9 136.6 232 134.3 235 134.3 C 236.9 134.3 238.3 135.2 238.9 136.4 C 238.92 136.42 238.9 129.8 238.9 129.8 L 240.4 129.8 L 240.4 145.8 Z M 238.9 140.1 C 238.9 137.3 237.3 135.7 235.2 135.7 C 233 135.7 231.5 137.4 231.5 140.1 C 231.5 142.9 233 144.6 235.2 144.6 C 237.4 144.6 238.9 142.9 238.9 140.1 Z M 250.7 143.7 C 249.9 145.4 248.2 146 246.7 146 C 244.8 146 243.1 144.9 243.1 142.7 C 243.1 140.6 244.6 139.6 246.5 139.4 C 246.5 139.4 249.2 139 249.2 139 C 250 138.9 250.7 138.6 250.7 137.6 C 250.7 136.3 249.6 135.6 248 135.6 C 246.3 135.6 245.3 136.4 245 137.7 C 245 137.7 243.5 137.7 243.5 137.7 C 243.8 135.4 245.6 134.3 248.1 134.3 C 250.7 134.3 252.2 135.5 252.2 138 C 252.23 137.99 252.2 145.8 252.2 145.8 L 250.7 145.8 C 250.7 145.8 250.74 143.72 250.7 143.7 Z M 248.9 140.3 C 248.9 140.3 247.1 140.5 247.1 140.5 C 245.7 140.7 244.6 141.2 244.6 142.6 C 244.6 144 245.7 144.6 247 144.6 C 248.7 144.6 250.7 143.3 250.7 140.9 C 250.7 140.9 250.7 139.8 250.7 139.8 C 250.3 140.1 249.6 140.2 248.9 140.3 Z M 265.2 145.8 L 263.7 145.8 C 263.7 145.8 263.72 143.6 263.7 143.6 C 263.2 144.9 261.8 146 259.7 146 C 256.7 146 254.6 143.7 254.6 140.1 C 254.6 136.6 256.7 134.3 259.7 134.3 C 261.6 134.3 263 135.2 263.7 136.4 C 263.65 136.42 263.7 129.8 263.7 129.8 L 265.2 129.8 L 265.2 145.8 Z M 263.6 140.1 C 263.6 137.3 262.1 135.7 259.9 135.7 C 257.7 135.7 256.2 137.4 256.2 140.1 C 256.2 142.9 257.7 144.6 259.9 144.6 C 262.1 144.6 263.6 142.9 263.6 140.1 Z M 269.3 140.5 C 269.4 143.3 271.1 144.6 273.1 144.6 C 274.6 144.6 276 143.9 276.4 142.3 C 276.4 142.3 277.8 142.3 277.8 142.3 C 277.3 144.9 275.1 146 273 146 C 270.3 146 267.8 144.2 267.8 140.2 C 267.8 136.1 270.4 134.3 273.1 134.3 C 275.7 134.3 277.9 136 277.9 139.8 C 277.91 139.75 277.9 140.5 277.9 140.5 C 277.9 140.5 269.32 140.51 269.3 140.5 Z M 269.4 139.2 C 269.4 139.2 276.4 139.2 276.4 139.2 C 276.4 136.9 274.9 135.7 273 135.7 C 271.2 135.7 269.6 136.8 269.4 139.2 Z M 288.9 142.6 C 288.9 144.9 286.8 146 284.6 146 C 282.2 146 279.9 144.8 279.7 142.3 C 279.7 142.3 281.3 142.3 281.3 142.3 C 281.6 144 283.1 144.6 284.6 144.6 C 286 144.6 287.3 144.1 287.3 142.8 C 287.3 141.5 286 141.2 284.7 141 C 282.5 140.6 280 140.2 280 137.6 C 280 135.4 281.9 134.3 284.2 134.3 C 286.6 134.3 288.5 135.4 288.6 137.7 C 288.6 137.7 287 137.7 287 137.7 C 286.9 136.3 285.6 135.7 284.1 135.7 C 282.6 135.7 281.6 136.4 281.6 137.5 C 281.6 139 282.9 139.2 284.6 139.5 C 286.7 139.8 288.9 140.1 288.9 142.6 Z M 307.2 140.1 C 307.2 144.2 304.6 145.9 302 145.9 C 300.1 145.9 298.8 145 298.2 143.8 C 298.22 143.83 298.2 150.1 298.2 150.1 L 296.7 150.1 L 296.7 134.5 L 298.2 134.5 C 298.2 134.5 298.18 136.88 298.2 136.9 C 298.7 135.5 300.2 134.3 302.2 134.3 C 304.6 134.3 307.2 136 307.2 140.1 Z M 305.6 140.1 C 305.6 137 303.8 135.8 302 135.8 C 300.1 135.8 298.2 137 298.2 140.2 C 298.2 143.3 300.1 144.5 301.9 144.5 C 303.8 144.5 305.6 143.3 305.6 140.1 Z M 316.8 143.7 C 315.9 145.4 314.2 146 312.8 146 C 310.8 146 309.1 144.9 309.1 142.7 C 309.1 140.6 310.6 139.6 312.5 139.4 C 312.5 139.4 315.2 139 315.2 139 C 316 138.9 316.8 138.6 316.8 137.6 C 316.8 136.3 315.6 135.6 314 135.6 C 312.3 135.6 311.3 136.4 311.1 137.7 C 311.1 137.7 309.5 137.7 309.5 137.7 C 309.9 135.4 311.7 134.3 314.1 134.3 C 316.7 134.3 318.3 135.5 318.3 138 C 318.25 137.99 318.3 145.8 318.3 145.8 L 316.8 145.8 C 316.8 145.8 316.76 143.72 316.8 143.7 Z M 314.9 140.3 C 314.9 140.3 313.2 140.5 313.2 140.5 C 311.7 140.7 310.7 141.2 310.7 142.6 C 310.7 144 311.8 144.6 313 144.6 C 314.8 144.6 316.7 143.3 316.7 140.9 C 316.7 140.9 316.7 139.8 316.7 139.8 C 316.3 140.1 315.6 140.2 314.9 140.3 Z M 327 135.8 C 327 135.8 326.67 135.83 326.7 135.8 C 324.3 135.8 322.9 137.2 322.9 139.8 C 322.94 139.8 322.9 145.8 322.9 145.8 L 321.4 145.8 L 321.4 134.5 L 322.9 134.5 C 322.9 134.5 322.91 136.58 322.9 136.6 C 323.4 135.1 324.8 134.4 326.5 134.4 C 326.55 134.38 327 134.4 327 134.4 L 327 135.8 Z M 336 143.7 C 335.1 145.4 333.4 146 331.9 146 C 330 146 328.3 144.9 328.3 142.7 C 328.3 140.6 329.8 139.6 331.7 139.4 C 331.7 139.4 334.4 139 334.4 139 C 335.2 138.9 336 138.6 336 137.6 C 336 136.3 334.8 135.6 333.2 135.6 C 331.5 135.6 330.5 136.4 330.3 137.7 C 330.3 137.7 328.7 137.7 328.7 137.7 C 329 135.4 330.9 134.3 333.3 134.3 C 335.9 134.3 337.4 135.5 337.4 138 C 337.45 137.99 337.4 145.8 337.4 145.8 L 336 145.8 C 336 145.8 335.96 143.72 336 143.7 Z M 334.1 140.3 C 334.1 140.3 332.4 140.5 332.4 140.5 C 330.9 140.7 329.9 141.2 329.9 142.6 C 329.9 144 331 144.6 332.2 144.6 C 334 144.6 335.9 143.3 335.9 140.9 C 335.9 140.9 335.9 139.8 335.9 139.8 C 335.5 140.1 334.8 140.2 334.1 140.3 Z M 347.4 145.8 L 345.8 145.8 L 345.8 129.8 L 347.4 129.8 L 347.4 145.8 Z M 350 140.2 C 350 136.5 352.2 134.3 355.3 134.3 C 358.4 134.3 360.7 136.5 360.7 140.2 C 360.7 143.8 358.5 146 355.4 146 C 352.3 146 350 143.8 350 140.2 Z M 359.1 140.1 C 359.1 137.3 357.4 135.7 355.3 135.7 C 353.1 135.7 351.6 137.4 351.6 140.2 C 351.6 143 353.3 144.6 355.4 144.6 C 357.6 144.6 359.1 142.9 359.1 140.1 Z M 371.7 142.6 C 371.7 144.9 369.6 146 367.4 146 C 364.9 146 362.7 144.8 362.5 142.3 C 362.5 142.3 364.1 142.3 364.1 142.3 C 364.4 144 365.8 144.6 367.4 144.6 C 368.8 144.6 370.1 144.1 370.1 142.8 C 370.1 141.5 368.8 141.2 367.5 141 C 365.3 140.6 362.8 140.2 362.8 137.6 C 362.8 135.4 364.7 134.3 367 134.3 C 369.4 134.3 371.3 135.4 371.4 137.7 C 371.4 137.7 369.8 137.7 369.8 137.7 C 369.7 136.3 368.4 135.7 366.9 135.7 C 365.4 135.7 364.3 136.4 364.3 137.5 C 364.3 139 365.7 139.2 367.4 139.5 C 369.5 139.8 371.7 140.1 371.7 142.6 Z M 384.4 145.8 C 384.4 145.8 382.74 145.78 382.7 145.8 C 381.3 145.8 379.9 145.3 379.9 142.8 C 379.91 142.82 379.9 135.9 379.9 135.9 L 377.7 135.9 L 377.7 134.5 L 379.9 134.5 L 379.9 131.3 L 381.4 130.9 L 381.4 134.5 L 384.2 134.5 L 384.2 135.9 L 381.4 135.9 C 381.4 135.9 381.44 142.8 381.4 142.8 C 381.4 143.8 381.7 144.4 383 144.4 C 383 144.4 384.4 144.4 384.4 144.4 L 384.4 145.8 Z M 388.2 129.8 L 386.5 129.8 L 386.5 131.7 L 388.2 131.7 L 388.2 129.8 Z M 388.1 145.8 L 386.6 145.8 L 386.6 134.5 L 388.1 134.5 L 388.1 145.8 Z M 396.6 145.8 C 396.6 145.8 394.99 145.78 395 145.8 C 393.5 145.8 392.2 145.3 392.2 142.8 C 392.15 142.82 392.2 135.9 392.2 135.9 L 389.9 135.9 L 389.9 134.5 L 392.2 134.5 L 392.2 131.3 L 393.7 130.9 L 393.7 134.5 L 396.4 134.5 L 396.4 135.9 L 393.7 135.9 C 393.7 135.9 393.68 142.8 393.7 142.8 C 393.7 143.8 394 144.4 395.2 144.4 C 395.24 144.4 396.6 144.4 396.6 144.4 L 396.6 145.8 Z M 406.3 145.8 C 406.3 145.8 406.26 143.64 406.3 143.6 C 405.5 145.2 404.1 145.9 402.5 145.9 C 400.4 145.9 398.7 144.6 398.7 142 C 398.74 141.96 398.7 134.5 398.7 134.5 L 400.3 134.5 C 400.3 134.5 400.28 141.77 400.3 141.8 C 400.3 143.6 401.3 144.6 402.8 144.6 C 404.6 144.6 406.2 143.2 406.2 140.3 C 406.2 140.34 406.2 134.5 406.2 134.5 L 407.7 134.5 L 407.7 145.8 L 406.3 145.8 Z M 412.6 145.8 L 411.1 145.8 L 411.1 129.8 L 412.6 129.8 L 412.6 145.8 Z M 422.9 143.7 C 422 145.4 420.3 146 418.9 146 C 417 146 415.2 144.9 415.2 142.7 C 415.2 140.6 416.7 139.6 418.7 139.4 C 418.7 139.4 421.3 139 421.3 139 C 422.2 138.9 422.9 138.6 422.9 137.6 C 422.9 136.3 421.8 135.6 420.2 135.6 C 418.5 135.6 417.5 136.4 417.2 137.7 C 417.2 137.7 415.7 137.7 415.7 137.7 C 416 135.4 417.8 134.3 420.3 134.3 C 422.9 134.3 424.4 135.5 424.4 138 C 424.41 137.99 424.4 145.8 424.4 145.8 L 422.9 145.8 C 422.9 145.8 422.91 143.72 422.9 143.7 Z M 421 140.3 C 421 140.3 419.3 140.5 419.3 140.5 C 417.9 140.7 416.8 141.2 416.8 142.6 C 416.8 144 417.9 144.6 419.2 144.6 C 420.9 144.6 422.9 143.3 422.9 140.9 C 422.9 140.9 422.9 139.8 422.9 139.8 C 422.5 140.1 421.8 140.2 421 140.3 Z M 433.2 135.8 C 433.2 135.8 432.83 135.83 432.8 135.8 C 430.4 135.8 429.1 137.2 429.1 139.8 C 429.09 139.8 429.1 145.8 429.1 145.8 L 427.6 145.8 L 427.6 134.5 L 429.1 134.5 C 429.1 134.5 429.07 136.58 429.1 136.6 C 429.6 135.1 431 134.4 432.7 134.4 C 432.7 134.38 433.2 134.4 433.2 134.4 L 433.2 135.8 Z M 435.7 140.5 C 435.8 143.3 437.5 144.6 439.5 144.6 C 441 144.6 442.5 143.9 442.8 142.3 C 442.8 142.3 444.3 142.3 444.3 142.3 C 443.7 144.9 441.6 146 439.4 146 C 436.7 146 434.2 144.2 434.2 140.2 C 434.2 136.1 436.8 134.3 439.5 134.3 C 442.2 134.3 444.3 136 444.3 139.8 C 444.33 139.75 444.3 140.5 444.3 140.5 C 444.3 140.5 435.75 140.51 435.7 140.5 Z M 435.8 139.2 C 435.8 139.2 442.8 139.2 442.8 139.2 C 442.8 136.9 441.3 135.7 439.4 135.7 C 437.7 135.7 436 136.8 435.8 139.2 Z M 455.3 142.6 C 455.3 144.9 453.3 146 451 146 C 448.6 146 446.4 144.8 446.1 142.3 C 446.1 142.3 447.8 142.3 447.8 142.3 C 448 144 449.5 144.6 451 144.6 C 452.5 144.6 453.7 144.1 453.7 142.8 C 453.7 141.5 452.4 141.2 451.1 141 C 449 140.6 446.4 140.2 446.4 137.6 C 446.4 135.4 448.3 134.3 450.6 134.3 C 453 134.3 454.9 135.4 455 137.7 C 455 137.7 453.4 137.7 453.4 137.7 C 453.3 136.3 452 135.7 450.6 135.7 C 449 135.7 448 136.4 448 137.5 C 448 139 449.4 139.2 451.1 139.5 C 453.1 139.8 455.3 140.1 455.3 142.6 Z " stroke="none" fill="#000"/>  </g>  <g id="Polygon11462">    <path d="M 12.2 114.9 C 12.2 119 9.6 120.7 7 120.7 C 5.1 120.7 3.8 119.8 3.2 118.6 C 3.21 118.63 3.2 124.9 3.2 124.9 L 1.7 124.9 L 1.7 109.3 L 3.2 109.3 C 3.2 109.3 3.17 111.68 3.2 111.7 C 3.7 110.3 5.1 109.1 7.2 109.1 C 9.6 109.1 12.2 110.8 12.2 114.9 Z M 10.6 114.9 C 10.6 111.8 8.8 110.6 7 110.6 C 5.1 110.6 3.2 111.8 3.2 115 C 3.2 118.1 5.1 119.3 6.9 119.3 C 8.8 119.3 10.6 118.1 10.6 114.9 Z M 16.4 120.6 L 14.8 120.6 L 14.8 104.6 L 16.4 104.6 L 16.4 120.6 Z M 26.6 118.5 C 25.8 120.2 24.1 120.8 22.6 120.8 C 20.7 120.8 19 119.7 19 117.5 C 19 115.4 20.5 114.4 22.4 114.2 C 22.4 114.2 25.1 113.8 25.1 113.8 C 25.9 113.7 26.6 113.4 26.6 112.4 C 26.6 111.1 25.5 110.4 23.9 110.4 C 22.2 110.4 21.2 111.2 21 112.5 C 21 112.5 19.4 112.5 19.4 112.5 C 19.7 110.2 21.5 109.1 24 109.1 C 26.6 109.1 28.1 110.3 28.1 112.8 C 28.14 112.79 28.1 120.6 28.1 120.6 L 26.6 120.6 C 26.6 120.6 26.65 118.52 26.6 118.5 Z M 24.8 115.1 C 24.8 115.1 23.1 115.3 23.1 115.3 C 21.6 115.5 20.6 116 20.6 117.4 C 20.6 118.8 21.7 119.4 22.9 119.4 C 24.7 119.4 26.6 118.1 26.6 115.7 C 26.6 115.7 26.6 114.6 26.6 114.6 C 26.2 114.9 25.5 115 24.8 115.1 Z M 30.6 119.2 L 37.6 110.7 L 30.7 110.7 L 30.7 109.3 L 39.5 109.3 L 39.5 110.7 L 32.4 119.2 L 39.5 119.2 L 39.5 120.6 L 30.6 120.6 L 30.6 119.2 Z M 41 115 C 41 111.3 43.2 109.1 46.3 109.1 C 49.5 109.1 51.7 111.3 51.7 115 C 51.7 118.6 49.5 120.8 46.4 120.8 C 43.3 120.8 41 118.6 41 115 Z M 50.1 114.9 C 50.1 112.1 48.4 110.5 46.3 110.5 C 44.1 110.5 42.6 112.2 42.6 115 C 42.6 117.8 44.3 119.4 46.4 119.4 C 48.6 119.4 50.1 117.7 50.1 114.9 Z M 55.4 120.5 C 55.42 120.46 54.4 120.5 54.4 120.5 L 54.4 118.4 L 56.6 118.4 C 56.6 118.4 56.64 120.52 56.6 120.5 C 56.6 123 55.2 123.9 53.6 124 C 53.6 124 53.4 123.1 53.4 123.1 C 55.1 122.8 55.4 121.8 55.4 120.5 Z M 64.7 115.3 C 64.7 118.1 66.4 119.4 68.4 119.4 C 69.9 119.4 71.4 118.7 71.7 117.1 C 71.7 117.1 73.2 117.1 73.2 117.1 C 72.7 119.7 70.5 120.8 68.3 120.8 C 65.6 120.8 63.1 119 63.1 115 C 63.1 110.9 65.7 109.1 68.4 109.1 C 71.1 109.1 73.2 110.8 73.2 114.6 C 73.25 114.55 73.2 115.3 73.2 115.3 C 73.2 115.3 64.66 115.31 64.7 115.3 Z M 64.7 114 C 64.7 114 71.7 114 71.7 114 C 71.7 111.7 70.2 110.5 68.3 110.5 C 66.6 110.5 64.9 111.6 64.7 114 Z M 84.3 117.4 C 84.3 119.7 82.2 120.8 79.9 120.8 C 77.5 120.8 75.3 119.6 75 117.1 C 75 117.1 76.7 117.1 76.7 117.1 C 76.9 118.8 78.4 119.4 79.9 119.4 C 81.4 119.4 82.7 118.9 82.7 117.6 C 82.7 116.3 81.4 116 80 115.8 C 77.9 115.4 75.3 115 75.3 112.4 C 75.3 110.2 77.2 109.1 79.5 109.1 C 81.9 109.1 83.8 110.2 84 112.5 C 84 112.5 82.4 112.5 82.4 112.5 C 82.3 111.1 81 110.5 79.5 110.5 C 78 110.5 76.9 111.2 76.9 112.3 C 76.9 113.8 78.3 114 80 114.3 C 82 114.6 84.3 114.9 84.3 117.4 Z M 91.9 120.6 C 91.9 120.6 90.26 120.58 90.3 120.6 C 88.8 120.6 87.4 120.1 87.4 117.6 C 87.42 117.62 87.4 110.7 87.4 110.7 L 85.2 110.7 L 85.2 109.3 L 87.4 109.3 L 87.4 106.1 L 89 105.7 L 89 109.3 L 91.7 109.3 L 91.7 110.7 L 89 110.7 C 89 110.7 88.96 117.6 89 117.6 C 89 118.6 89.2 119.2 90.5 119.2 C 90.51 119.2 91.9 119.2 91.9 119.2 L 91.9 120.6 Z M 93.4 115 C 93.4 111.3 95.6 109.1 98.7 109.1 C 101.8 109.1 104.1 111.3 104.1 115 C 104.1 118.6 101.8 120.8 98.7 120.8 C 95.6 120.8 93.4 118.6 93.4 115 Z M 102.5 114.9 C 102.5 112.1 100.8 110.5 98.7 110.5 C 96.5 110.5 95 112.2 95 115 C 95 117.8 96.7 119.4 98.8 119.4 C 100.9 119.4 102.5 117.7 102.5 114.9 Z M 115.1 117.4 C 115.1 119.7 113 120.8 110.7 120.8 C 108.3 120.8 106.1 119.6 105.9 117.1 C 105.9 117.1 107.5 117.1 107.5 117.1 C 107.8 118.8 109.2 119.4 110.8 119.4 C 112.2 119.4 113.5 118.9 113.5 117.6 C 113.5 116.3 112.2 116 110.9 115.8 C 108.7 115.4 106.1 115 106.1 112.4 C 106.1 110.2 108.1 109.1 110.4 109.1 C 112.8 109.1 114.7 110.2 114.8 112.5 C 114.8 112.5 113.2 112.5 113.2 112.5 C 113.1 111.1 111.8 110.5 110.3 110.5 C 108.8 110.5 107.7 111.2 107.7 112.3 C 107.7 113.8 109.1 114 110.8 114.3 C 112.8 114.6 115.1 114.9 115.1 117.4 Z M 126.9 120.8 C 123.8 120.8 121.7 118.5 121.7 115 C 121.7 111.4 123.8 109.1 127 109.1 C 129.5 109.1 131.5 110.5 131.7 113 C 131.7 113 130.2 113 130.2 113 C 130.1 111.4 128.7 110.5 127 110.5 C 124.8 110.5 123.2 112.2 123.2 114.9 C 123.2 117.7 124.8 119.4 127 119.4 C 128.7 119.4 130.1 118.4 130.2 116.6 C 130.2 116.6 131.7 116.6 131.7 116.6 C 131.5 119.3 129.4 120.8 126.9 120.8 Z M 141.3 118.5 C 140.4 120.2 138.7 120.8 137.3 120.8 C 135.3 120.8 133.6 119.7 133.6 117.5 C 133.6 115.4 135.1 114.4 137 114.2 C 137 114.2 139.7 113.8 139.7 113.8 C 140.5 113.7 141.3 113.4 141.3 112.4 C 141.3 111.1 140.1 110.4 138.5 110.4 C 136.8 110.4 135.8 111.2 135.6 112.5 C 135.6 112.5 134 112.5 134 112.5 C 134.4 110.2 136.2 109.1 138.6 109.1 C 141.2 109.1 142.8 110.3 142.8 112.8 C 142.76 112.79 142.8 120.6 142.8 120.6 L 141.3 120.6 C 141.3 120.6 141.27 118.52 141.3 118.5 Z M 139.4 115.1 C 139.4 115.1 137.7 115.3 137.7 115.3 C 136.2 115.5 135.2 116 135.2 117.4 C 135.2 118.8 136.3 119.4 137.5 119.4 C 139.3 119.4 141.2 118.1 141.2 115.7 C 141.2 115.7 141.2 114.6 141.2 114.6 C 140.8 114.9 140.2 115 139.4 115.1 Z M 145.9 109.3 L 147.4 109.3 C 147.4 109.3 147.42 111.17 147.4 111.2 C 148 109.8 149.3 109.1 150.7 109.1 C 152.4 109.1 153.7 110 154 111.4 C 154.5 110.2 155.8 109.1 157.7 109.1 C 159.8 109.1 161.4 110.2 161.4 112.5 C 161.38 112.5 161.4 120.6 161.4 120.6 L 159.9 120.6 C 159.9 120.6 159.85 113.04 159.9 113 C 159.9 111.3 158.8 110.5 157.5 110.5 C 155.8 110.5 154.4 111.8 154.4 114.1 C 154.39 114.13 154.4 120.6 154.4 120.6 L 152.9 120.6 C 152.9 120.6 152.88 113.04 152.9 113 C 152.9 111.3 151.8 110.5 150.5 110.5 C 148.8 110.5 147.4 111.7 147.4 114.1 C 147.44 114.13 147.4 120.6 147.4 120.6 L 145.9 120.6 L 145.9 109.3 Z M 175.2 114.9 C 175.2 118.4 173.1 120.8 170.1 120.8 C 168 120.8 166.7 119.7 166.1 118.5 C 166.11 118.5 166.1 120.6 166.1 120.6 L 164.6 120.6 L 164.6 104.6 L 166.2 104.6 C 166.2 104.6 166.17 111.57 166.2 111.6 C 166.7 110.2 168.2 109.1 170.2 109.1 C 173.1 109.1 175.2 111.3 175.2 114.9 Z M 173.6 115 C 173.6 112.2 172.1 110.6 169.9 110.6 C 167.7 110.6 166.2 112.2 166.2 115 C 166.2 117.8 167.7 119.5 169.9 119.5 C 172.1 119.5 173.6 117.7 173.6 115 Z M 179.4 104.6 L 177.7 104.6 L 177.7 106.5 L 179.4 106.5 L 179.4 104.6 Z M 179.3 120.6 L 177.8 120.6 L 177.8 109.3 L 179.3 109.3 L 179.3 120.6 Z M 181.9 115 C 181.9 111.3 184.2 109.1 187.3 109.1 C 190.4 109.1 192.6 111.3 192.6 115 C 192.6 118.6 190.4 120.8 187.3 120.8 C 184.2 120.8 181.9 118.6 181.9 115 Z M 191.1 114.9 C 191.1 112.1 189.4 110.5 187.3 110.5 C 185.1 110.5 183.5 112.2 183.5 115 C 183.5 117.8 185.2 119.4 187.3 119.4 C 189.5 119.4 191.1 117.7 191.1 114.9 Z M 203.6 117.4 C 203.6 119.7 201.6 120.8 199.3 120.8 C 196.9 120.8 194.6 119.6 194.4 117.1 C 194.4 117.1 196.1 117.1 196.1 117.1 C 196.3 118.8 197.8 119.4 199.3 119.4 C 200.8 119.4 202 118.9 202 117.6 C 202 116.3 200.7 116 199.4 115.8 C 197.3 115.4 194.7 115 194.7 112.4 C 194.7 110.2 196.6 109.1 198.9 109.1 C 201.3 109.1 203.2 110.2 203.3 112.5 C 203.3 112.5 201.7 112.5 201.7 112.5 C 201.6 111.1 200.3 110.5 198.9 110.5 C 197.3 110.5 196.3 111.2 196.3 112.3 C 196.3 113.8 197.7 114 199.4 114.3 C 201.4 114.6 203.6 114.9 203.6 117.4 Z M 221.9 114.9 C 221.9 119 219.3 120.7 216.8 120.7 C 214.8 120.7 213.6 119.8 212.9 118.6 C 212.94 118.63 212.9 124.9 212.9 124.9 L 211.4 124.9 L 211.4 109.3 L 212.9 109.3 C 212.9 109.3 212.9 111.68 212.9 111.7 C 213.4 110.3 214.9 109.1 216.9 109.1 C 219.4 109.1 221.9 110.8 221.9 114.9 Z M 220.4 114.9 C 220.4 111.8 218.6 110.6 216.7 110.6 C 214.8 110.6 213 111.8 213 115 C 213 118.1 214.8 119.3 216.7 119.3 C 218.5 119.3 220.4 118.1 220.4 114.9 Z M 223.8 115 C 223.8 111.3 226 109.1 229.2 109.1 C 232.3 109.1 234.5 111.3 234.5 115 C 234.5 118.6 232.3 120.8 229.2 120.8 C 226.1 120.8 223.8 118.6 223.8 115 Z M 232.9 114.9 C 232.9 112.1 231.2 110.5 229.1 110.5 C 226.9 110.5 225.4 112.2 225.4 115 C 225.4 117.8 227.1 119.4 229.2 119.4 C 231.4 119.4 232.9 117.7 232.9 114.9 Z M 246.9 120.6 L 245.5 120.6 C 245.5 120.6 245.47 118.4 245.5 118.4 C 244.9 119.7 243.6 120.8 241.5 120.8 C 238.5 120.8 236.4 118.5 236.4 114.9 C 236.4 111.4 238.5 109.1 241.5 109.1 C 243.4 109.1 244.8 110 245.4 111.2 C 245.4 111.22 245.4 104.6 245.4 104.6 L 246.9 104.6 L 246.9 120.6 Z M 245.4 114.9 C 245.4 112.1 243.8 110.5 241.7 110.5 C 239.5 110.5 238 112.2 238 114.9 C 238 117.7 239.5 119.4 241.7 119.4 C 243.9 119.4 245.4 117.7 245.4 114.9 Z M 255.9 110.6 C 255.9 110.6 255.57 110.63 255.6 110.6 C 253.2 110.6 251.8 112 251.8 114.6 C 251.83 114.6 251.8 120.6 251.8 120.6 L 250.3 120.6 L 250.3 109.3 L 251.8 109.3 C 251.8 109.3 251.81 111.38 251.8 111.4 C 252.3 109.9 253.7 109.2 255.4 109.2 C 255.44 109.18 255.9 109.2 255.9 109.2 L 255.9 110.6 Z M 259.4 107 L 258.1 107 L 260.6 103.2 L 261.9 104.2 L 259.4 107 Z M 259.5 120.6 L 257.9 120.6 L 257.9 109.3 L 259.5 109.3 L 259.5 120.6 Z M 269.7 118.5 C 268.9 120.2 267.2 120.8 265.7 120.8 C 263.8 120.8 262.1 119.7 262.1 117.5 C 262.1 115.4 263.6 114.4 265.5 114.2 C 265.5 114.2 268.2 113.8 268.2 113.8 C 269 113.7 269.7 113.4 269.7 112.4 C 269.7 111.1 268.6 110.4 267 110.4 C 265.3 110.4 264.3 111.2 264.1 112.5 C 264.1 112.5 262.5 112.5 262.5 112.5 C 262.8 110.2 264.6 109.1 267.1 109.1 C 269.7 109.1 271.2 110.3 271.2 112.8 C 271.23 112.79 271.2 120.6 271.2 120.6 L 269.7 120.6 C 269.7 120.6 269.74 118.52 269.7 118.5 Z M 267.9 115.1 C 267.9 115.1 266.2 115.3 266.2 115.3 C 264.7 115.5 263.7 116 263.7 117.4 C 263.7 118.8 264.7 119.4 266 119.4 C 267.7 119.4 269.7 118.1 269.7 115.7 C 269.7 115.7 269.7 114.6 269.7 114.6 C 269.3 114.9 268.6 115 267.9 115.1 Z M 283.5 112.9 C 283.54 112.85 283.5 120.6 283.5 120.6 L 282 120.6 C 282 120.6 282.01 113.04 282 113 C 282 111.5 281.1 110.5 279.5 110.5 C 277.6 110.5 275.9 111.9 275.9 114.7 C 275.92 114.66 275.9 120.6 275.9 120.6 L 274.4 120.6 L 274.4 109.3 L 275.9 109.3 C 275.9 109.3 275.92 111.4 275.9 111.4 C 276.6 110.1 277.8 109.1 279.8 109.1 C 282.1 109.1 283.5 110.4 283.5 112.9 Z M 298.1 110.6 C 298.1 110.6 297.74 110.63 297.7 110.6 C 295.3 110.6 294 112 294 114.6 C 294 114.6 294 120.6 294 120.6 L 292.5 120.6 L 292.5 109.3 L 294 109.3 C 294 109.3 293.98 111.38 294 111.4 C 294.5 109.9 295.9 109.2 297.6 109.2 C 297.61 109.18 298.1 109.2 298.1 109.2 L 298.1 110.6 Z M 300.7 115.3 C 300.7 118.1 302.4 119.4 304.4 119.4 C 305.9 119.4 307.4 118.7 307.7 117.1 C 307.7 117.1 309.2 117.1 309.2 117.1 C 308.7 119.7 306.5 120.8 304.3 120.8 C 301.6 120.8 299.1 119 299.1 115 C 299.1 110.9 301.7 109.1 304.4 109.1 C 307.1 109.1 309.2 110.8 309.2 114.6 C 309.24 114.55 309.2 115.3 309.2 115.3 C 309.2 115.3 300.65 115.31 300.7 115.3 Z M 300.7 114 C 300.7 114 307.7 114 307.7 114 C 307.7 111.7 306.2 110.5 304.3 110.5 C 302.6 110.5 300.9 111.6 300.7 114 Z M 322.4 114.9 C 322.4 119 319.8 120.7 317.2 120.7 C 315.3 120.7 314 119.8 313.4 118.6 C 313.4 118.63 313.4 124.9 313.4 124.9 L 311.9 124.9 L 311.9 109.3 L 313.4 109.3 C 313.4 109.3 313.36 111.68 313.4 111.7 C 313.9 110.3 315.3 109.1 317.4 109.1 C 319.8 109.1 322.4 110.8 322.4 114.9 Z M 320.8 114.9 C 320.8 111.8 319 110.6 317.2 110.6 C 315.3 110.6 313.4 111.8 313.4 115 C 313.4 118.1 315.2 119.3 317.1 119.3 C 319 119.3 320.8 118.1 320.8 114.9 Z M 330.6 110.6 C 330.6 110.6 330.28 110.63 330.3 110.6 C 327.9 110.6 326.5 112 326.5 114.6 C 326.55 114.6 326.5 120.6 326.5 120.6 L 325 120.6 L 325 109.3 L 326.5 109.3 C 326.5 109.3 326.53 111.38 326.5 111.4 C 327.1 109.9 328.4 109.2 330.2 109.2 C 330.16 109.18 330.6 109.2 330.6 109.2 L 330.6 110.6 Z M 333.2 115.3 C 333.2 118.1 335 119.4 337 119.4 C 338.5 119.4 339.9 118.7 340.3 117.1 C 340.3 117.1 341.7 117.1 341.7 117.1 C 341.2 119.7 339 120.8 336.9 120.8 C 334.2 120.8 331.7 119 331.7 115 C 331.7 110.9 334.2 109.1 336.9 109.1 C 339.6 109.1 341.8 110.8 341.8 114.6 C 341.79 114.55 341.8 115.3 341.8 115.3 C 341.8 115.3 333.2 115.31 333.2 115.3 Z M 333.2 114 C 333.2 114 340.2 114 340.2 114 C 340.2 111.7 338.8 110.5 336.9 110.5 C 335.1 110.5 333.5 111.6 333.2 114 Z M 352.8 117.4 C 352.8 119.7 350.7 120.8 348.4 120.8 C 346 120.8 343.8 119.6 343.6 117.1 C 343.6 117.1 345.2 117.1 345.2 117.1 C 345.5 118.8 346.9 119.4 348.5 119.4 C 349.9 119.4 351.2 118.9 351.2 117.6 C 351.2 116.3 349.9 116 348.6 115.8 C 346.4 115.4 343.9 115 343.9 112.4 C 343.9 110.2 345.8 109.1 348.1 109.1 C 350.5 109.1 352.4 110.2 352.5 112.5 C 352.5 112.5 350.9 112.5 350.9 112.5 C 350.8 111.1 349.5 110.5 348 110.5 C 346.5 110.5 345.4 111.2 345.4 112.3 C 345.4 113.8 346.8 114 348.5 114.3 C 350.5 114.6 352.8 114.9 352.8 117.4 Z M 356.1 115.3 C 356.1 118.1 357.9 119.4 359.9 119.4 C 361.3 119.4 362.8 118.7 363.1 117.1 C 363.1 117.1 364.6 117.1 364.6 117.1 C 364.1 119.7 361.9 120.8 359.8 120.8 C 357.1 120.8 354.6 119 354.6 115 C 354.6 110.9 357.1 109.1 359.8 109.1 C 362.5 109.1 364.7 110.8 364.7 114.6 C 364.68 114.55 364.7 115.3 364.7 115.3 C 364.7 115.3 356.09 115.31 356.1 115.3 Z M 356.1 114 C 356.1 114 363.1 114 363.1 114 C 363.1 111.7 361.7 110.5 359.8 110.5 C 358 110.5 356.3 111.6 356.1 114 Z M 376.5 112.9 C 376.46 112.85 376.5 120.6 376.5 120.6 L 374.9 120.6 C 374.9 120.6 374.93 113.04 374.9 113 C 374.9 111.5 374 110.5 372.5 110.5 C 370.5 110.5 368.8 111.9 368.8 114.7 C 368.84 114.66 368.8 120.6 368.8 120.6 L 367.3 120.6 L 367.3 109.3 L 368.8 109.3 C 368.8 109.3 368.84 111.4 368.8 111.4 C 369.5 110.1 370.8 109.1 372.7 109.1 C 375 109.1 376.5 110.4 376.5 112.9 Z M 384.9 120.6 C 384.9 120.6 383.2 120.58 383.2 120.6 C 381.7 120.6 380.4 120.1 380.4 117.6 C 380.37 117.62 380.4 110.7 380.4 110.7 L 378.1 110.7 L 378.1 109.3 L 380.4 109.3 L 380.4 106.1 L 381.9 105.7 L 381.9 109.3 L 384.6 109.3 L 384.6 110.7 L 381.9 110.7 C 381.9 110.7 381.9 117.6 381.9 117.6 C 381.9 118.6 382.2 119.2 383.5 119.2 C 383.46 119.2 384.9 119.2 384.9 119.2 L 384.9 120.6 Z M 394 118.5 C 393.1 120.2 391.4 120.8 390 120.8 C 388.1 120.8 386.3 119.7 386.3 117.5 C 386.3 115.4 387.8 114.4 389.8 114.2 C 389.8 114.2 392.4 113.8 392.4 113.8 C 393.3 113.7 394 113.4 394 112.4 C 394 111.1 392.8 110.4 391.3 110.4 C 389.6 110.4 388.5 111.2 388.3 112.5 C 388.3 112.5 386.8 112.5 386.8 112.5 C 387.1 110.2 388.9 109.1 391.4 109.1 C 393.9 109.1 395.5 110.3 395.5 112.8 C 395.49 112.79 395.5 120.6 395.5 120.6 L 394 120.6 C 394 120.6 394 118.52 394 118.5 Z M 392.1 115.1 C 392.1 115.1 390.4 115.3 390.4 115.3 C 389 115.5 387.9 116 387.9 117.4 C 387.9 118.8 389 119.4 390.2 119.4 C 392 119.4 394 118.1 394 115.7 C 394 115.7 394 114.6 394 114.6 C 393.5 114.9 392.9 115 392.1 115.1 Z M 404.3 110.6 C 404.3 110.6 403.91 110.63 403.9 110.6 C 401.5 110.6 400.2 112 400.2 114.6 C 400.17 114.6 400.2 120.6 400.2 120.6 L 398.6 120.6 L 398.6 109.3 L 400.2 109.3 C 400.2 109.3 400.15 111.38 400.2 111.4 C 400.7 109.9 402 109.2 403.8 109.2 C 403.78 109.18 404.3 109.2 404.3 109.2 L 404.3 110.6 Z M 418.7 120.6 C 418.7 120.6 418.71 118.44 418.7 118.4 C 417.9 120 416.6 120.7 415 120.7 C 412.8 120.7 411.2 119.4 411.2 116.8 C 411.2 116.76 411.2 109.3 411.2 109.3 L 412.7 109.3 C 412.7 109.3 412.73 116.57 412.7 116.6 C 412.7 118.4 413.7 119.4 415.2 119.4 C 417 119.4 418.7 118 418.7 115.1 C 418.65 115.14 418.7 109.3 418.7 109.3 L 420.2 109.3 L 420.2 120.6 L 418.7 120.6 Z M 432.7 112.9 C 432.7 112.85 432.7 120.6 432.7 120.6 L 431.2 120.6 C 431.2 120.6 431.17 113.04 431.2 113 C 431.2 111.5 430.3 110.5 428.7 110.5 C 426.8 110.5 425.1 111.9 425.1 114.7 C 425.08 114.66 425.1 120.6 425.1 120.6 L 423.5 120.6 L 423.5 109.3 L 425.1 109.3 C 425.1 109.3 425.08 111.4 425.1 111.4 C 425.7 110.1 427 109.1 429 109.1 C 431.2 109.1 432.7 110.4 432.7 112.9 Z M 442.9 118.5 C 442 120.2 440.3 120.8 438.9 120.8 C 436.9 120.8 435.2 119.7 435.2 117.5 C 435.2 115.4 436.7 114.4 438.6 114.2 C 438.6 114.2 441.3 113.8 441.3 113.8 C 442.2 113.7 442.9 113.4 442.9 112.4 C 442.9 111.1 441.7 110.4 440.2 110.4 C 438.5 110.4 437.4 111.2 437.2 112.5 C 437.2 112.5 435.7 112.5 435.7 112.5 C 436 110.2 437.8 109.1 440.3 109.1 C 442.8 109.1 444.4 110.3 444.4 112.8 C 444.38 112.79 444.4 120.6 444.4 120.6 L 442.9 120.6 C 442.9 120.6 442.89 118.52 442.9 118.5 Z M 441 115.1 C 441 115.1 439.3 115.3 439.3 115.3 C 437.9 115.5 436.8 116 436.8 117.4 C 436.8 118.8 437.9 119.4 439.1 119.4 C 440.9 119.4 442.8 118.1 442.8 115.7 C 442.8 115.7 442.8 114.6 442.8 114.6 C 442.4 114.9 441.8 115 441 115.1 Z " stroke="none" fill="#000"/>  </g>  <g id="Polygon11461">    <path d="M 10.1 92.2 C 10.1 94.5 8 95.6 5.7 95.6 C 3.3 95.6 1.1 94.4 0.8 91.9 C 0.8 91.9 2.5 91.9 2.5 91.9 C 2.7 93.6 4.2 94.2 5.7 94.2 C 7.2 94.2 8.5 93.7 8.5 92.4 C 8.5 91.1 7.2 90.8 5.8 90.6 C 3.7 90.2 1.1 89.8 1.1 87.2 C 1.1 85 3 83.9 5.4 83.9 C 7.7 83.9 9.6 85 9.8 87.3 C 9.8 87.3 8.2 87.3 8.2 87.3 C 8.1 85.9 6.8 85.3 5.3 85.3 C 3.8 85.3 2.7 86 2.7 87.1 C 2.7 88.6 4.1 88.8 5.8 89.1 C 7.8 89.4 10.1 89.7 10.1 92.2 Z M 13.4 90.1 C 13.4 92.9 15.1 94.2 17.1 94.2 C 18.6 94.2 20.1 93.5 20.4 91.9 C 20.4 91.9 21.9 91.9 21.9 91.9 C 21.4 94.5 19.2 95.6 17 95.6 C 14.3 95.6 11.8 93.8 11.8 89.8 C 11.8 85.7 14.4 83.9 17.1 83.9 C 19.8 83.9 21.9 85.6 21.9 89.4 C 21.94 89.35 21.9 90.1 21.9 90.1 C 21.9 90.1 13.36 90.11 13.4 90.1 Z M 13.4 88.8 C 13.4 88.8 20.4 88.8 20.4 88.8 C 20.4 86.5 18.9 85.3 17 85.3 C 15.3 85.3 13.6 86.4 13.4 88.8 Z M 31.5 93.3 C 30.6 95 28.9 95.6 27.5 95.6 C 25.6 95.6 23.8 94.5 23.8 92.3 C 23.8 90.2 25.3 89.2 27.3 89 C 27.3 89 29.9 88.6 29.9 88.6 C 30.8 88.5 31.5 88.2 31.5 87.2 C 31.5 85.9 30.3 85.2 28.8 85.2 C 27.1 85.2 26 86 25.8 87.3 C 25.8 87.3 24.3 87.3 24.3 87.3 C 24.6 85 26.4 83.9 28.9 83.9 C 31.4 83.9 33 85.1 33 87.6 C 32.99 87.59 33 95.4 33 95.4 L 31.5 95.4 C 31.5 95.4 31.5 93.32 31.5 93.3 Z M 29.6 89.9 C 29.6 89.9 27.9 90.1 27.9 90.1 C 26.5 90.3 25.4 90.8 25.4 92.2 C 25.4 93.6 26.5 94.2 27.7 94.2 C 29.5 94.2 31.5 92.9 31.5 90.5 C 31.5 90.5 31.5 89.4 31.5 89.4 C 31 89.7 30.4 89.8 29.6 89.9 Z M 45.3 87.7 C 45.3 87.65 45.3 95.4 45.3 95.4 L 43.8 95.4 C 43.8 95.4 43.76 87.84 43.8 87.8 C 43.8 86.3 42.9 85.3 41.3 85.3 C 39.4 85.3 37.7 86.7 37.7 89.5 C 37.67 89.46 37.7 95.4 37.7 95.4 L 36.1 95.4 L 36.1 84.1 L 37.7 84.1 C 37.7 84.1 37.67 86.2 37.7 86.2 C 38.3 84.9 39.6 83.9 41.6 83.9 C 43.8 83.9 45.3 85.2 45.3 87.7 Z M 54.1 84.1 L 55.6 84.1 C 55.6 84.1 55.63 85.97 55.6 86 C 56.2 84.6 57.5 83.9 58.9 83.9 C 60.6 83.9 61.9 84.8 62.2 86.2 C 62.7 85 64 83.9 65.9 83.9 C 68 83.9 69.6 85 69.6 87.3 C 69.59 87.3 69.6 95.4 69.6 95.4 L 68.1 95.4 C 68.1 95.4 68.06 87.84 68.1 87.8 C 68.1 86.1 67 85.3 65.7 85.3 C 64 85.3 62.6 86.6 62.6 88.9 C 62.6 88.93 62.6 95.4 62.6 95.4 L 61.1 95.4 C 61.1 95.4 61.09 87.84 61.1 87.8 C 61.1 86.1 60.1 85.3 58.7 85.3 C 57.1 85.3 55.6 86.5 55.6 88.9 C 55.65 88.93 55.6 95.4 55.6 95.4 L 54.1 95.4 L 54.1 84.1 Z M 77.7 81.8 L 76.4 81.8 L 78.9 78 L 80.2 79 L 77.7 81.8 Z M 79.8 93.3 C 78.9 95 77.2 95.6 75.8 95.6 C 73.8 95.6 72.1 94.5 72.1 92.3 C 72.1 90.2 73.6 89.2 75.5 89 C 75.5 89 78.2 88.6 78.2 88.6 C 79 88.5 79.8 88.2 79.8 87.2 C 79.8 85.9 78.6 85.2 77 85.2 C 75.3 85.2 74.3 86 74.1 87.3 C 74.1 87.3 72.6 87.3 72.6 87.3 C 72.9 85 74.7 83.9 77.2 83.9 C 79.7 83.9 81.3 85.1 81.3 87.6 C 81.27 87.59 81.3 95.4 81.3 95.4 L 79.8 95.4 C 79.8 95.4 79.78 93.32 79.8 93.3 Z M 77.9 89.9 C 77.9 89.9 76.2 90.1 76.2 90.1 C 74.8 90.3 73.7 90.8 73.7 92.2 C 73.7 93.6 74.8 94.2 76 94.2 C 77.8 94.2 79.7 92.9 79.7 90.5 C 79.7 90.5 79.7 89.4 79.7 89.4 C 79.3 89.7 78.7 89.8 77.9 89.9 Z M 92.8 92.2 C 92.8 94.5 90.7 95.6 88.5 95.6 C 86 95.6 83.8 94.4 83.6 91.9 C 83.6 91.9 85.2 91.9 85.2 91.9 C 85.5 93.6 86.9 94.2 88.5 94.2 C 89.9 94.2 91.2 93.7 91.2 92.4 C 91.2 91.1 89.9 90.8 88.6 90.6 C 86.4 90.2 83.9 89.8 83.9 87.2 C 83.9 85 85.8 83.9 88.1 83.9 C 90.5 83.9 92.4 85 92.5 87.3 C 92.5 87.3 90.9 87.3 90.9 87.3 C 90.8 85.9 89.5 85.3 88 85.3 C 86.5 85.3 85.4 86 85.4 87.1 C 85.4 88.6 86.8 88.8 88.5 89.1 C 90.6 89.4 92.8 89.7 92.8 92.2 Z M 106.1 85.4 C 106.1 85.4 105.73 85.43 105.7 85.4 C 103.3 85.4 102 86.8 102 89.4 C 102 89.4 102 95.4 102 95.4 L 100.5 95.4 L 100.5 84.1 L 102 84.1 C 102 84.1 101.97 86.18 102 86.2 C 102.5 84.7 103.9 84 105.6 84 C 105.61 83.98 106.1 84 106.1 84 L 106.1 85.4 Z M 108.7 90.1 C 108.7 92.9 110.4 94.2 112.4 94.2 C 113.9 94.2 115.4 93.5 115.7 91.9 C 115.7 91.9 117.2 91.9 117.2 91.9 C 116.7 94.5 114.5 95.6 112.3 95.6 C 109.6 95.6 107.1 93.8 107.1 89.8 C 107.1 85.7 109.7 83.9 112.4 83.9 C 115.1 83.9 117.2 85.6 117.2 89.4 C 117.24 89.35 117.2 90.1 117.2 90.1 C 117.2 90.1 108.65 90.11 108.7 90.1 Z M 108.7 88.8 C 108.7 88.8 115.7 88.8 115.7 88.8 C 115.7 86.5 114.2 85.3 112.3 85.3 C 110.6 85.3 108.9 86.4 108.7 88.8 Z M 128.2 92.2 C 128.2 94.5 126.2 95.6 123.9 95.6 C 121.5 95.6 119.3 94.4 119 91.9 C 119 91.9 120.7 91.9 120.7 91.9 C 120.9 93.6 122.4 94.2 123.9 94.2 C 125.4 94.2 126.6 93.7 126.6 92.4 C 126.6 91.1 125.3 90.8 124 90.6 C 121.9 90.2 119.3 89.8 119.3 87.2 C 119.3 85 121.2 83.9 123.5 83.9 C 125.9 83.9 127.8 85 128 87.3 C 128 87.3 126.4 87.3 126.4 87.3 C 126.3 85.9 124.9 85.3 123.5 85.3 C 121.9 85.3 120.9 86 120.9 87.1 C 120.9 88.6 122.3 88.8 124 89.1 C 126 89.4 128.2 89.7 128.2 92.2 Z M 132.4 79.4 L 130.7 79.4 L 130.7 81.3 L 132.4 81.3 L 132.4 79.4 Z M 132.3 95.4 L 130.8 95.4 L 130.8 84.1 L 132.3 84.1 L 132.3 95.4 Z M 144 92.2 C 144 94.5 142 95.6 139.7 95.6 C 137.3 95.6 135 94.4 134.8 91.9 C 134.8 91.9 136.5 91.9 136.5 91.9 C 136.7 93.6 138.2 94.2 139.7 94.2 C 141.2 94.2 142.4 93.7 142.4 92.4 C 142.4 91.1 141.1 90.8 139.8 90.6 C 137.7 90.2 135.1 89.8 135.1 87.2 C 135.1 85 137 83.9 139.3 83.9 C 141.7 83.9 143.6 85 143.7 87.3 C 143.7 87.3 142.1 87.3 142.1 87.3 C 142 85.9 140.7 85.3 139.3 85.3 C 137.7 85.3 136.7 86 136.7 87.1 C 136.7 88.6 138.1 88.8 139.8 89.1 C 141.8 89.4 144 89.7 144 92.2 Z M 151.7 95.4 C 151.7 95.4 150.04 95.38 150 95.4 C 148.6 95.4 147.2 94.9 147.2 92.4 C 147.21 92.42 147.2 85.5 147.2 85.5 L 145 85.5 L 145 84.1 L 147.2 84.1 L 147.2 80.9 L 148.7 80.5 L 148.7 84.1 L 151.5 84.1 L 151.5 85.5 L 148.7 85.5 C 148.7 85.5 148.74 92.4 148.7 92.4 C 148.7 93.4 149 94 150.3 94 C 150.3 94 151.7 94 151.7 94 L 151.7 95.4 Z M 154.7 90.1 C 154.7 92.9 156.4 94.2 158.4 94.2 C 159.9 94.2 161.4 93.5 161.7 91.9 C 161.7 91.9 163.2 91.9 163.2 91.9 C 162.7 94.5 160.5 95.6 158.4 95.6 C 155.7 95.6 153.2 93.8 153.2 89.8 C 153.2 85.7 155.7 83.9 158.4 83.9 C 161.1 83.9 163.3 85.6 163.3 89.4 C 163.27 89.35 163.3 90.1 163.3 90.1 C 163.3 90.1 154.68 90.11 154.7 90.1 Z M 154.7 88.8 C 154.7 88.8 161.7 88.8 161.7 88.8 C 161.7 86.5 160.2 85.3 158.4 85.3 C 156.6 85.3 154.9 86.4 154.7 88.8 Z M 175.1 87.7 C 175.05 87.65 175.1 95.4 175.1 95.4 L 173.5 95.4 C 173.5 95.4 173.52 87.84 173.5 87.8 C 173.5 86.3 172.6 85.3 171 85.3 C 169.1 85.3 167.4 86.7 167.4 89.5 C 167.43 89.46 167.4 95.4 167.4 95.4 L 165.9 95.4 L 165.9 84.1 L 167.4 84.1 C 167.4 84.1 167.43 86.2 167.4 86.2 C 168.1 84.9 169.4 83.9 171.3 83.9 C 173.6 83.9 175.1 85.2 175.1 87.7 Z M 183.5 95.4 C 183.5 95.4 181.79 95.38 181.8 95.4 C 180.3 95.4 179 94.9 179 92.4 C 178.96 92.42 179 85.5 179 85.5 L 176.7 85.5 L 176.7 84.1 L 179 84.1 L 179 80.9 L 180.5 80.5 L 180.5 84.1 L 183.2 84.1 L 183.2 85.5 L 180.5 85.5 C 180.5 85.5 180.49 92.4 180.5 92.4 C 180.5 93.4 180.8 94 182 94 C 182.05 94 183.5 94 183.5 94 L 183.5 95.4 Z M 186.4 90.1 C 186.5 92.9 188.2 94.2 190.2 94.2 C 191.7 94.2 193.2 93.5 193.5 91.9 C 193.5 91.9 194.9 91.9 194.9 91.9 C 194.4 94.5 192.3 95.6 190.1 95.6 C 187.4 95.6 184.9 93.8 184.9 89.8 C 184.9 85.7 187.5 83.9 190.2 83.9 C 192.8 83.9 195 85.6 195 89.4 C 195.02 89.35 195 90.1 195 90.1 C 195 90.1 186.44 90.11 186.4 90.1 Z M 186.5 88.8 C 186.5 88.8 193.5 88.8 193.5 88.8 C 193.5 86.5 192 85.3 190.1 85.3 C 188.3 85.3 186.7 86.4 186.5 88.8 Z M 206 92.2 C 206 94.5 203.9 95.6 201.7 95.6 C 199.3 95.6 197 94.4 196.8 91.9 C 196.8 91.9 198.4 91.9 198.4 91.9 C 198.7 93.6 200.2 94.2 201.7 94.2 C 203.2 94.2 204.4 93.7 204.4 92.4 C 204.4 91.1 203.1 90.8 201.8 90.6 C 199.6 90.2 197.1 89.8 197.1 87.2 C 197.1 85 199 83.9 201.3 83.9 C 203.7 83.9 205.6 85 205.7 87.3 C 205.7 87.3 204.1 87.3 204.1 87.3 C 204 85.9 202.7 85.3 201.3 85.3 C 199.7 85.3 198.7 86 198.7 87.1 C 198.7 88.6 200 88.8 201.7 89.1 C 203.8 89.4 206 89.7 206 92.2 Z M 223.1 95.4 L 221.6 95.4 C 221.6 95.4 221.61 93.2 221.6 93.2 C 221.1 94.5 219.7 95.6 217.6 95.6 C 214.6 95.6 212.5 93.3 212.5 89.7 C 212.5 86.2 214.6 83.9 217.6 83.9 C 219.5 83.9 220.9 84.8 221.5 86 C 221.55 86.02 221.5 79.4 221.5 79.4 L 223.1 79.4 L 223.1 95.4 Z M 221.5 89.7 C 221.5 86.9 220 85.3 217.8 85.3 C 215.6 85.3 214.1 87 214.1 89.7 C 214.1 92.5 215.6 94.2 217.8 94.2 C 220 94.2 221.5 92.5 221.5 89.7 Z M 227.2 90.1 C 227.3 92.9 229 94.2 231 94.2 C 232.5 94.2 233.9 93.5 234.3 91.9 C 234.3 91.9 235.7 91.9 235.7 91.9 C 235.2 94.5 233 95.6 230.9 95.6 C 228.2 95.6 225.7 93.8 225.7 89.8 C 225.7 85.7 228.2 83.9 231 83.9 C 233.6 83.9 235.8 85.6 235.8 89.4 C 235.81 89.35 235.8 90.1 235.8 90.1 C 235.8 90.1 227.22 90.11 227.2 90.1 Z M 227.3 88.8 C 227.3 88.8 234.3 88.8 234.3 88.8 C 234.3 86.5 232.8 85.3 230.9 85.3 C 229.1 85.3 227.5 86.4 227.3 88.8 Z M 247.7 95.6 C 244.5 95.6 242.4 93.3 242.4 89.8 C 242.4 86.2 244.5 83.9 247.8 83.9 C 250.3 83.9 252.3 85.3 252.4 87.8 C 252.4 87.8 250.9 87.8 250.9 87.8 C 250.8 86.2 249.4 85.3 247.8 85.3 C 245.6 85.3 244 87 244 89.7 C 244 92.5 245.5 94.2 247.7 94.2 C 249.4 94.2 250.8 93.2 250.9 91.4 C 250.9 91.4 252.4 91.4 252.4 91.4 C 252.3 94.1 250.1 95.6 247.7 95.6 Z M 262 93.3 C 261.1 95 259.4 95.6 258 95.6 C 256.1 95.6 254.3 94.5 254.3 92.3 C 254.3 90.2 255.8 89.2 257.8 89 C 257.8 89 260.4 88.6 260.4 88.6 C 261.3 88.5 262 88.2 262 87.2 C 262 85.9 260.8 85.2 259.3 85.2 C 257.6 85.2 256.5 86 256.3 87.3 C 256.3 87.3 254.8 87.3 254.8 87.3 C 255.1 85 256.9 83.9 259.4 83.9 C 261.9 83.9 263.5 85.1 263.5 87.6 C 263.48 87.59 263.5 95.4 263.5 95.4 L 262 95.4 C 262 95.4 261.99 93.32 262 93.3 Z M 260.1 89.9 C 260.1 89.9 258.4 90.1 258.4 90.1 C 257 90.3 255.9 90.8 255.9 92.2 C 255.9 93.6 257 94.2 258.2 94.2 C 260 94.2 262 92.9 262 90.5 C 262 90.5 262 89.4 262 89.4 C 261.5 89.7 260.9 89.8 260.1 89.9 Z M 272.3 85.4 C 272.3 85.4 271.91 85.43 271.9 85.4 C 269.5 85.4 268.2 86.8 268.2 89.4 C 268.17 89.4 268.2 95.4 268.2 95.4 L 266.6 95.4 L 266.6 84.1 L 268.1 84.1 C 268.1 84.1 268.15 86.18 268.1 86.2 C 268.7 84.7 270 84 271.8 84 C 271.78 83.98 272.3 84 272.3 84 L 272.3 85.4 Z M 281.2 93.3 C 280.3 95 278.6 95.6 277.2 95.6 C 275.2 95.6 273.5 94.5 273.5 92.3 C 273.5 90.2 275 89.2 276.9 89 C 276.9 89 279.6 88.6 279.6 88.6 C 280.5 88.5 281.2 88.2 281.2 87.2 C 281.2 85.9 280 85.2 278.5 85.2 C 276.8 85.2 275.7 86 275.5 87.3 C 275.5 87.3 274 87.3 274 87.3 C 274.3 85 276.1 83.9 278.6 83.9 C 281.1 83.9 282.7 85.1 282.7 87.6 C 282.68 87.59 282.7 95.4 282.7 95.4 L 281.2 95.4 C 281.2 95.4 281.19 93.32 281.2 93.3 Z M 279.3 89.9 C 279.3 89.9 277.6 90.1 277.6 90.1 C 276.2 90.3 275.1 90.8 275.1 92.2 C 275.1 93.6 276.2 94.2 277.4 94.2 C 279.2 94.2 281.1 92.9 281.1 90.5 C 281.1 90.5 281.1 89.4 281.1 89.4 C 280.7 89.7 280.1 89.8 279.3 89.9 Z M 297.9 93.3 C 297 95 295.3 95.6 293.9 95.6 C 292 95.6 290.2 94.5 290.2 92.3 C 290.2 90.2 291.7 89.2 293.7 89 C 293.7 89 296.3 88.6 296.3 88.6 C 297.2 88.5 297.9 88.2 297.9 87.2 C 297.9 85.9 296.7 85.2 295.2 85.2 C 293.5 85.2 292.4 86 292.2 87.3 C 292.2 87.3 290.7 87.3 290.7 87.3 C 291 85 292.8 83.9 295.3 83.9 C 297.8 83.9 299.4 85.1 299.4 87.6 C 299.39 87.59 299.4 95.4 299.4 95.4 L 297.9 95.4 C 297.9 95.4 297.9 93.32 297.9 93.3 Z M 296 89.9 C 296 89.9 294.3 90.1 294.3 90.1 C 292.9 90.3 291.8 90.8 291.8 92.2 C 291.8 93.6 292.9 94.2 294.1 94.2 C 295.9 94.2 297.9 92.9 297.9 90.5 C 297.9 90.5 297.9 89.4 297.9 89.4 C 297.4 89.7 296.8 89.8 296 89.9 Z M 304.1 95.4 L 302.5 95.4 L 302.5 79.4 L 304.1 79.4 L 304.1 95.4 Z M 316.4 80.7 C 315.1 80.7 314.8 81.3 314.8 82.4 C 314.83 82.36 314.8 84.1 314.8 84.1 L 317.3 84.1 L 317.3 85.5 L 314.8 85.5 L 314.8 95.4 L 313.3 95.4 L 313.3 85.5 L 311.4 85.5 L 311.4 84.1 L 313.3 84.1 C 313.3 84.1 313.3 82.32 313.3 82.3 C 313.3 79.8 314.6 79.4 316.1 79.4 C 316.13 79.38 317.6 79.4 317.6 79.4 L 317.6 80.7 C 317.6 80.7 316.38 80.74 316.4 80.7 Z M 327 95.4 C 327 95.4 327.03 93.24 327 93.2 C 326.3 94.8 324.9 95.5 323.3 95.5 C 321.1 95.5 319.5 94.2 319.5 91.6 C 319.51 91.56 319.5 84.1 319.5 84.1 L 321 84.1 C 321 84.1 321.04 91.37 321 91.4 C 321 93.2 322.1 94.2 323.5 94.2 C 325.3 94.2 327 92.8 327 89.9 C 326.97 89.94 327 84.1 327 84.1 L 328.5 84.1 L 328.5 95.4 L 327 95.4 Z M 337 95.4 C 337 95.4 335.35 95.38 335.3 95.4 C 333.9 95.4 332.5 94.9 332.5 92.4 C 332.51 92.42 332.5 85.5 332.5 85.5 L 330.3 85.5 L 330.3 84.1 L 332.5 84.1 L 332.5 80.9 L 334 80.5 L 334 84.1 L 336.8 84.1 L 336.8 85.5 L 334 85.5 C 334 85.5 334.04 92.4 334 92.4 C 334 93.4 334.3 94 335.6 94 C 335.6 94 337 94 337 94 L 337 95.4 Z M 346.6 95.4 C 346.6 95.4 346.62 93.24 346.6 93.2 C 345.8 94.8 344.5 95.5 342.9 95.5 C 340.7 95.5 339.1 94.2 339.1 91.6 C 339.1 91.56 339.1 84.1 339.1 84.1 L 340.6 84.1 C 340.6 84.1 340.64 91.37 340.6 91.4 C 340.6 93.2 341.6 94.2 343.1 94.2 C 344.9 94.2 346.6 92.8 346.6 89.9 C 346.56 89.94 346.6 84.1 346.6 84.1 L 348.1 84.1 L 348.1 95.4 L 346.6 95.4 Z M 357.1 85.4 C 357.1 85.4 356.72 85.43 356.7 85.4 C 354.3 85.4 353 86.8 353 89.4 C 352.98 89.4 353 95.4 353 95.4 L 351.5 95.4 L 351.5 84.1 L 353 84.1 C 353 84.1 352.96 86.18 353 86.2 C 353.5 84.7 354.9 84 356.6 84 C 356.6 83.98 357.1 84 357.1 84 L 357.1 85.4 Z M 358.1 89.8 C 358.1 86.1 360.4 83.9 363.5 83.9 C 366.6 83.9 368.8 86.1 368.8 89.8 C 368.8 93.4 366.6 95.6 363.5 95.6 C 360.4 95.6 358.1 93.4 358.1 89.8 Z M 367.2 89.7 C 367.2 86.9 365.5 85.3 363.4 85.3 C 361.2 85.3 359.7 87 359.7 89.8 C 359.7 92.6 361.4 94.2 363.5 94.2 C 365.7 94.2 367.2 92.5 367.2 89.7 Z M 370.7 93.2 L 372.9 93.2 L 372.9 95.4 L 370.7 95.4 L 370.7 93.2 Z M 390.2 90.9 L 382.7 90.9 L 381 95.4 L 379.3 95.4 L 385.6 79.6 L 387.3 79.6 L 393.8 95.4 L 392 95.4 L 390.2 90.9 Z M 386.4 81.4 L 383.3 89.5 L 389.7 89.5 L 386.4 81.4 Z M 401.4 84.1 L 402.9 84.1 C 402.9 84.1 402.88 85.97 402.9 86 C 403.5 84.6 404.7 83.9 406.2 83.9 C 407.8 83.9 409.1 84.8 409.5 86.2 C 410 85 411.2 83.9 413.2 83.9 C 415.2 83.9 416.8 85 416.8 87.3 C 416.85 87.3 416.8 95.4 416.8 95.4 L 415.3 95.4 C 415.3 95.4 415.31 87.84 415.3 87.8 C 415.3 86.1 414.2 85.3 412.9 85.3 C 411.2 85.3 409.9 86.6 409.9 88.9 C 409.85 88.93 409.9 95.4 409.9 95.4 L 408.3 95.4 C 408.3 95.4 408.34 87.84 408.3 87.8 C 408.3 86.1 407.3 85.3 406 85.3 C 404.3 85.3 402.9 86.5 402.9 88.9 C 402.9 88.93 402.9 95.4 402.9 95.4 L 401.4 95.4 L 401.4 84.1 Z M 420.9 90.1 C 420.9 92.9 422.6 94.2 424.6 94.2 C 426.1 94.2 427.6 93.5 427.9 91.9 C 427.9 91.9 429.4 91.9 429.4 91.9 C 428.9 94.5 426.7 95.6 424.6 95.6 C 421.9 95.6 419.4 93.8 419.4 89.8 C 419.4 85.7 421.9 83.9 424.6 83.9 C 427.3 83.9 429.5 85.6 429.5 89.4 C 429.47 89.35 429.5 90.1 429.5 90.1 C 429.5 90.1 420.88 90.11 420.9 90.1 Z M 420.9 88.8 C 420.9 88.8 427.9 88.8 427.9 88.8 C 427.9 86.5 426.4 85.3 424.6 85.3 C 422.8 85.3 421.1 86.4 420.9 88.8 Z M 441.9 95.4 L 440.4 95.4 C 440.4 95.4 440.43 93.2 440.4 93.2 C 439.9 94.5 438.5 95.6 436.4 95.6 C 433.5 95.6 431.4 93.3 431.4 89.7 C 431.4 86.2 433.5 83.9 436.4 83.9 C 438.3 83.9 439.8 84.8 440.4 86 C 440.37 86.02 440.4 79.4 440.4 79.4 L 441.9 79.4 L 441.9 95.4 Z M 440.3 89.7 C 440.3 86.9 438.8 85.3 436.6 85.3 C 434.4 85.3 432.9 87 432.9 89.7 C 432.9 92.5 434.4 94.2 436.6 94.2 C 438.8 94.2 440.3 92.5 440.3 89.7 Z M 446.9 79.4 L 445.2 79.4 L 445.2 81.3 L 446.9 81.3 L 446.9 79.4 Z M 446.8 95.4 L 445.3 95.4 L 445.3 84.1 L 446.8 84.1 L 446.8 95.4 Z M 449.4 89.8 C 449.4 86.1 451.6 83.9 454.7 83.9 C 457.9 83.9 460.1 86.1 460.1 89.8 C 460.1 93.4 457.9 95.6 454.8 95.6 C 451.7 95.6 449.4 93.4 449.4 89.8 Z M 458.5 89.7 C 458.5 86.9 456.8 85.3 454.7 85.3 C 452.5 85.3 451 87 451 89.8 C 451 92.6 452.7 94.2 454.8 94.2 C 457 94.2 458.5 92.5 458.5 89.7 Z " stroke="none" fill="#000"/>  </g>  <g id="Polygon11460">    <path d="M 12.2 64.5 C 12.2 68.6 9.6 70.3 7 70.3 C 5.1 70.3 3.8 69.4 3.2 68.2 C 3.21 68.23 3.2 74.5 3.2 74.5 L 1.7 74.5 L 1.7 58.9 L 3.2 58.9 C 3.2 58.9 3.17 61.28 3.2 61.3 C 3.7 59.9 5.1 58.7 7.2 58.7 C 9.6 58.7 12.2 60.4 12.2 64.5 Z M 10.6 64.5 C 10.6 61.4 8.8 60.2 7 60.2 C 5.1 60.2 3.2 61.4 3.2 64.6 C 3.2 67.7 5.1 68.9 6.9 68.9 C 8.8 68.9 10.6 67.7 10.6 64.5 Z M 22.2 70.2 C 22.2 70.2 22.24 68.04 22.2 68 C 21.5 69.6 20.1 70.3 18.5 70.3 C 16.4 70.3 14.7 69 14.7 66.4 C 14.72 66.36 14.7 58.9 14.7 58.9 L 16.3 58.9 C 16.3 58.9 16.25 66.17 16.3 66.2 C 16.3 68 17.3 69 18.8 69 C 20.6 69 22.2 67.6 22.2 64.7 C 22.18 64.74 22.2 58.9 22.2 58.9 L 23.7 58.9 L 23.7 70.2 L 22.2 70.2 Z M 27.8 64.9 C 27.9 67.7 29.6 69 31.6 69 C 33.1 69 34.6 68.3 34.9 66.7 C 34.9 66.7 36.4 66.7 36.4 66.7 C 35.8 69.3 33.7 70.4 31.5 70.4 C 28.8 70.4 26.3 68.6 26.3 64.6 C 26.3 60.5 28.9 58.7 31.6 58.7 C 34.3 58.7 36.4 60.4 36.4 64.2 C 36.43 64.15 36.4 64.9 36.4 64.9 C 36.4 64.9 27.85 64.91 27.8 64.9 Z M 27.9 63.6 C 27.9 63.6 34.9 63.6 34.9 63.6 C 34.9 61.3 33.4 60.1 31.5 60.1 C 29.8 60.1 28.1 61.2 27.9 63.6 Z M 48.9 70.2 L 47.4 70.2 C 47.4 70.2 47.4 68 47.4 68 C 46.9 69.3 45.5 70.4 43.4 70.4 C 40.4 70.4 38.3 68.1 38.3 64.5 C 38.3 61 40.4 58.7 43.4 58.7 C 45.3 58.7 46.7 59.6 47.3 60.8 C 47.33 60.82 47.3 54.2 47.3 54.2 L 48.9 54.2 L 48.9 70.2 Z M 47.3 64.5 C 47.3 61.7 45.8 60.1 43.6 60.1 C 41.4 60.1 39.9 61.8 39.9 64.5 C 39.9 67.3 41.4 69 43.6 69 C 45.8 69 47.3 67.3 47.3 64.5 Z M 53 64.9 C 53 67.7 54.8 69 56.8 69 C 58.3 69 59.7 68.3 60.1 66.7 C 60.1 66.7 61.5 66.7 61.5 66.7 C 61 69.3 58.8 70.4 56.7 70.4 C 54 70.4 51.5 68.6 51.5 64.6 C 51.5 60.5 54 58.7 56.7 58.7 C 59.4 58.7 61.6 60.4 61.6 64.2 C 61.59 64.15 61.6 64.9 61.6 64.9 C 61.6 64.9 53 64.91 53 64.9 Z M 53 63.6 C 53 63.6 60 63.6 60 63.6 C 60 61.3 58.6 60.1 56.7 60.1 C 54.9 60.1 53.3 61.2 53 63.6 Z M 73.4 62.5 C 73.37 62.45 73.4 70.2 73.4 70.2 L 71.8 70.2 C 71.8 70.2 71.84 62.64 71.8 62.6 C 71.8 61.1 71 60.1 69.4 60.1 C 67.4 60.1 65.8 61.5 65.8 64.3 C 65.75 64.26 65.8 70.2 65.8 70.2 L 64.2 70.2 L 64.2 58.9 L 65.8 58.9 C 65.8 58.9 65.75 61 65.8 61 C 66.4 59.7 67.7 58.7 69.7 58.7 C 71.9 58.7 73.4 60 73.4 62.5 Z M 89.2 68.1 C 88.3 69.8 86.6 70.4 85.2 70.4 C 83.3 70.4 81.6 69.3 81.6 67.1 C 81.6 65 83.1 64 85 63.8 C 85 63.8 87.7 63.4 87.7 63.4 C 88.5 63.3 89.2 63 89.2 62 C 89.2 60.7 88.1 60 86.5 60 C 84.8 60 83.8 60.8 83.5 62.1 C 83.5 62.1 82 62.1 82 62.1 C 82.3 59.8 84.1 58.7 86.6 58.7 C 89.2 58.7 90.7 59.9 90.7 62.4 C 90.72 62.39 90.7 70.2 90.7 70.2 L 89.2 70.2 C 89.2 70.2 89.23 68.12 89.2 68.1 Z M 87.4 64.7 C 87.4 64.7 85.6 64.9 85.6 64.9 C 84.2 65.1 83.1 65.6 83.1 67 C 83.1 68.4 84.2 69 85.5 69 C 87.2 69 89.2 67.7 89.2 65.3 C 89.2 65.3 89.2 64.2 89.2 64.2 C 88.8 64.5 88.1 64.6 87.4 64.7 Z M 97.5 55.5 C 96.2 55.5 95.9 56.1 95.9 57.2 C 95.91 57.16 95.9 58.9 95.9 58.9 L 98.4 58.9 L 98.4 60.3 L 95.9 60.3 L 95.9 70.2 L 94.4 70.2 L 94.4 60.3 L 92.5 60.3 L 92.5 58.9 L 94.4 58.9 C 94.4 58.9 94.37 57.12 94.4 57.1 C 94.4 54.6 95.7 54.2 97.2 54.2 C 97.21 54.18 98.7 54.2 98.7 54.2 L 98.7 55.5 C 98.7 55.5 97.46 55.54 97.5 55.5 Z M 106.3 60.2 C 106.3 60.2 105.96 60.23 106 60.2 C 103.6 60.2 102.2 61.6 102.2 64.2 C 102.23 64.2 102.2 70.2 102.2 70.2 L 100.7 70.2 L 100.7 58.9 L 102.2 58.9 C 102.2 58.9 102.21 60.98 102.2 61 C 102.7 59.5 104.1 58.8 105.8 58.8 C 105.84 58.78 106.3 58.8 106.3 58.8 L 106.3 60.2 Z M 107.4 64.6 C 107.4 60.9 109.6 58.7 112.7 58.7 C 115.8 58.7 118.1 60.9 118.1 64.6 C 118.1 68.2 115.8 70.4 112.7 70.4 C 109.6 70.4 107.4 68.2 107.4 64.6 Z M 116.5 64.5 C 116.5 61.7 114.8 60.1 112.7 60.1 C 110.5 60.1 108.9 61.8 108.9 64.6 C 108.9 67.4 110.6 69 112.7 69 C 114.9 69 116.5 67.3 116.5 64.5 Z M 129.8 62.5 C 129.84 62.45 129.8 70.2 129.8 70.2 L 128.3 70.2 C 128.3 70.2 128.31 62.64 128.3 62.6 C 128.3 61.1 127.4 60.1 125.8 60.1 C 123.9 60.1 122.2 61.5 122.2 64.3 C 122.22 64.26 122.2 70.2 122.2 70.2 L 120.7 70.2 L 120.7 58.9 L 122.2 58.9 C 122.2 58.9 122.22 61 122.2 61 C 122.9 59.7 124.2 58.7 126.1 58.7 C 128.4 58.7 129.8 60 129.8 62.5 Z M 138.2 70.2 C 138.2 70.2 136.58 70.18 136.6 70.2 C 135.1 70.2 133.7 69.7 133.7 67.2 C 133.75 67.22 133.7 60.3 133.7 60.3 L 131.5 60.3 L 131.5 58.9 L 133.7 58.9 L 133.7 55.7 L 135.3 55.3 L 135.3 58.9 L 138 58.9 L 138 60.3 L 135.3 60.3 C 135.3 60.3 135.28 67.2 135.3 67.2 C 135.3 68.2 135.6 68.8 136.8 68.8 C 136.83 68.8 138.2 68.8 138.2 68.8 L 138.2 70.2 Z M 147.4 68.1 C 146.5 69.8 144.8 70.4 143.4 70.4 C 141.4 70.4 139.7 69.3 139.7 67.1 C 139.7 65 141.2 64 143.1 63.8 C 143.1 63.8 145.8 63.4 145.8 63.4 C 146.6 63.3 147.4 63 147.4 62 C 147.4 60.7 146.2 60 144.6 60 C 142.9 60 141.9 60.8 141.7 62.1 C 141.7 62.1 140.2 62.1 140.2 62.1 C 140.5 59.8 142.3 58.7 144.8 58.7 C 147.3 58.7 148.9 59.9 148.9 62.4 C 148.87 62.39 148.9 70.2 148.9 70.2 L 147.4 70.2 C 147.4 70.2 147.38 68.12 147.4 68.1 Z M 145.5 64.7 C 145.5 64.7 143.8 64.9 143.8 64.9 C 142.4 65.1 141.3 65.6 141.3 67 C 141.3 68.4 142.4 69 143.6 69 C 145.4 69 147.3 67.7 147.3 65.3 C 147.3 65.3 147.3 64.2 147.3 64.2 C 146.9 64.5 146.3 64.6 145.5 64.7 Z M 157.6 60.2 C 157.6 60.2 157.29 60.23 157.3 60.2 C 154.9 60.2 153.6 61.6 153.6 64.2 C 153.55 64.2 153.6 70.2 153.6 70.2 L 152 70.2 L 152 58.9 L 153.5 58.9 C 153.5 58.9 153.53 60.98 153.5 61 C 154.1 59.5 155.4 58.8 157.2 58.8 C 157.16 58.78 157.6 58.8 157.6 58.8 L 157.6 60.2 Z M 168.8 70.4 C 165.6 70.4 163.5 68.1 163.5 64.6 C 163.5 61 165.6 58.7 168.9 58.7 C 171.4 58.7 173.4 60.1 173.5 62.6 C 173.5 62.6 172.1 62.6 172.1 62.6 C 171.9 61 170.5 60.1 168.9 60.1 C 166.7 60.1 165.1 61.8 165.1 64.5 C 165.1 67.3 166.6 69 168.8 69 C 170.5 69 171.9 68 172 66.2 C 172 66.2 173.5 66.2 173.5 66.2 C 173.4 68.9 171.3 70.4 168.8 70.4 Z M 183.1 68.1 C 182.2 69.8 180.5 70.4 179.1 70.4 C 177.2 70.4 175.4 69.3 175.4 67.1 C 175.4 65 176.9 64 178.9 63.8 C 178.9 63.8 181.5 63.4 181.5 63.4 C 182.4 63.3 183.1 63 183.1 62 C 183.1 60.7 181.9 60 180.4 60 C 178.7 60 177.6 60.8 177.4 62.1 C 177.4 62.1 175.9 62.1 175.9 62.1 C 176.2 59.8 178 58.7 180.5 58.7 C 183 58.7 184.6 59.9 184.6 62.4 C 184.59 62.39 184.6 70.2 184.6 70.2 L 183.1 70.2 C 183.1 70.2 183.1 68.12 183.1 68.1 Z M 181.2 64.7 C 181.2 64.7 179.5 64.9 179.5 64.9 C 178.1 65.1 177 65.6 177 67 C 177 68.4 178.1 69 179.3 69 C 181.1 69 183.1 67.7 183.1 65.3 C 183.1 65.3 183.1 64.2 183.1 64.2 C 182.6 64.5 182 64.6 181.2 64.7 Z M 187.7 58.9 L 189.2 58.9 C 189.2 58.9 189.25 60.77 189.2 60.8 C 189.9 59.4 191.1 58.7 192.5 58.7 C 194.2 58.7 195.5 59.6 195.9 61 C 196.4 59.8 197.6 58.7 199.6 58.7 C 201.6 58.7 203.2 59.8 203.2 62.1 C 203.21 62.1 203.2 70.2 203.2 70.2 L 201.7 70.2 C 201.7 70.2 201.68 62.64 201.7 62.6 C 201.7 60.9 200.6 60.1 199.3 60.1 C 197.6 60.1 196.2 61.4 196.2 63.7 C 196.22 63.73 196.2 70.2 196.2 70.2 L 194.7 70.2 C 194.7 70.2 194.71 62.64 194.7 62.6 C 194.7 60.9 193.7 60.1 192.3 60.1 C 190.7 60.1 189.3 61.3 189.3 63.7 C 189.27 63.73 189.3 70.2 189.3 70.2 L 187.7 70.2 L 187.7 58.9 Z M 217 64.5 C 217 68 214.9 70.4 211.9 70.4 C 209.9 70.4 208.5 69.3 207.9 68.1 C 207.94 68.1 207.9 70.2 207.9 70.2 L 206.5 70.2 L 206.5 54.2 L 208 54.2 C 208 54.2 208 61.17 208 61.2 C 208.6 59.8 210 58.7 212 58.7 C 214.9 58.7 217 60.9 217 64.5 Z M 215.4 64.6 C 215.4 61.8 213.9 60.2 211.8 60.2 C 209.6 60.2 208 61.8 208 64.6 C 208 67.4 209.5 69.1 211.7 69.1 C 213.9 69.1 215.4 67.3 215.4 64.6 Z M 221.3 54.2 L 219.5 54.2 L 219.5 56.1 L 221.3 56.1 L 221.3 54.2 Z M 221.1 70.2 L 219.6 70.2 L 219.6 58.9 L 221.1 58.9 L 221.1 70.2 Z M 223.8 64.6 C 223.8 60.9 226 58.7 229.1 58.7 C 232.2 58.7 234.5 60.9 234.5 64.6 C 234.5 68.2 232.2 70.4 229.1 70.4 C 226 70.4 223.8 68.2 223.8 64.6 Z M 232.9 64.5 C 232.9 61.7 231.2 60.1 229.1 60.1 C 226.9 60.1 225.3 61.8 225.3 64.6 C 225.3 67.4 227 69 229.1 69 C 231.3 69 232.9 67.3 232.9 64.5 Z M 245.5 67 C 245.5 69.3 243.4 70.4 241.1 70.4 C 238.7 70.4 236.5 69.2 236.2 66.7 C 236.2 66.7 237.9 66.7 237.9 66.7 C 238.1 68.4 239.6 69 241.1 69 C 242.6 69 243.9 68.5 243.9 67.2 C 243.9 65.9 242.6 65.6 241.2 65.4 C 239.1 65 236.5 64.6 236.5 62 C 236.5 59.8 238.5 58.7 240.8 58.7 C 243.2 58.7 245 59.8 245.2 62.1 C 245.2 62.1 243.6 62.1 243.6 62.1 C 243.5 60.7 242.2 60.1 240.7 60.1 C 239.2 60.1 238.1 60.8 238.1 61.9 C 238.1 63.4 239.5 63.6 241.2 63.9 C 243.2 64.2 245.5 64.5 245.5 67 Z M 262.4 62.5 C 262.39 62.45 262.4 70.2 262.4 70.2 L 260.9 70.2 C 260.9 70.2 260.86 62.64 260.9 62.6 C 260.9 61.1 260 60.1 258.4 60.1 C 256.4 60.1 254.8 61.5 254.8 64.3 C 254.77 64.26 254.8 70.2 254.8 70.2 L 253.2 70.2 L 253.2 58.9 L 254.8 58.9 C 254.8 58.9 254.77 61 254.8 61 C 255.4 59.7 256.7 58.7 258.7 58.7 C 260.9 58.7 262.4 60 262.4 62.5 Z M 264.9 64.6 C 264.9 60.9 267.1 58.7 270.2 58.7 C 273.4 58.7 275.6 60.9 275.6 64.6 C 275.6 68.2 273.4 70.4 270.3 70.4 C 267.2 70.4 264.9 68.2 264.9 64.6 Z M 274 64.5 C 274 61.7 272.3 60.1 270.2 60.1 C 268 60.1 266.5 61.8 266.5 64.6 C 266.5 67.4 268.2 69 270.3 69 C 272.5 69 274 67.3 274 64.5 Z M 283.9 60.2 C 283.9 60.2 283.5 60.23 283.5 60.2 C 281.1 60.2 279.8 61.6 279.8 64.2 C 279.76 64.2 279.8 70.2 279.8 70.2 L 278.2 70.2 L 278.2 58.9 L 279.7 58.9 C 279.7 58.9 279.74 60.98 279.7 61 C 280.3 59.5 281.6 58.8 283.4 58.8 C 283.37 58.78 283.9 58.8 283.9 58.8 L 283.9 60.2 Z M 285.8 58.9 L 287.4 58.9 C 287.4 58.9 287.36 60.77 287.4 60.8 C 288 59.4 289.2 58.7 290.6 58.7 C 292.3 58.7 293.6 59.6 294 61 C 294.5 59.8 295.7 58.7 297.7 58.7 C 299.7 58.7 301.3 59.8 301.3 62.1 C 301.33 62.1 301.3 70.2 301.3 70.2 L 299.8 70.2 C 299.8 70.2 299.79 62.64 299.8 62.6 C 299.8 60.9 298.7 60.1 297.4 60.1 C 295.7 60.1 294.3 61.4 294.3 63.7 C 294.33 63.73 294.3 70.2 294.3 70.2 L 292.8 70.2 C 292.8 70.2 292.82 62.64 292.8 62.6 C 292.8 60.9 291.8 60.1 290.4 60.1 C 288.8 60.1 287.4 61.3 287.4 63.7 C 287.38 63.73 287.4 70.2 287.4 70.2 L 285.8 70.2 L 285.8 58.9 Z M 311.5 68.1 C 310.6 69.8 308.9 70.4 307.5 70.4 C 305.6 70.4 303.8 69.3 303.8 67.1 C 303.8 65 305.3 64 307.3 63.8 C 307.3 63.8 309.9 63.4 309.9 63.4 C 310.8 63.3 311.5 63 311.5 62 C 311.5 60.7 310.4 60 308.8 60 C 307.1 60 306.1 60.8 305.8 62.1 C 305.8 62.1 304.3 62.1 304.3 62.1 C 304.6 59.8 306.4 58.7 308.9 58.7 C 311.4 58.7 313 59.9 313 62.4 C 313 62.39 313 70.2 313 70.2 L 311.5 70.2 C 311.5 70.2 311.51 68.12 311.5 68.1 Z M 309.6 64.7 C 309.6 64.7 307.9 64.9 307.9 64.9 C 306.5 65.1 305.4 65.6 305.4 67 C 305.4 68.4 306.5 69 307.8 69 C 309.5 69 311.5 67.7 311.5 65.3 C 311.5 65.3 311.5 64.2 311.5 64.2 C 311 64.5 310.4 64.6 309.6 64.7 Z M 321.3 70.2 C 321.3 70.2 319.64 70.18 319.6 70.2 C 318.1 70.2 316.8 69.7 316.8 67.2 C 316.8 67.22 316.8 60.3 316.8 60.3 L 314.6 60.3 L 314.6 58.9 L 316.8 58.9 L 316.8 55.7 L 318.3 55.3 L 318.3 58.9 L 321.1 58.9 L 321.1 60.3 L 318.3 60.3 C 318.3 60.3 318.34 67.2 318.3 67.2 C 318.3 68.2 318.6 68.8 319.9 68.8 C 319.89 68.8 321.3 68.8 321.3 68.8 L 321.3 70.2 Z M 325.1 54.2 L 323.4 54.2 L 323.4 56.1 L 325.1 56.1 L 325.1 54.2 Z M 325 70.2 L 323.5 70.2 L 323.5 58.9 L 325 58.9 L 325 70.2 Z M 332.9 70.2 L 331.2 70.2 L 327 58.9 L 328.7 58.9 L 332.1 68.6 L 335.5 58.9 L 337.1 58.9 L 332.9 70.2 Z M 338.1 64.6 C 338.1 60.9 340.3 58.7 343.5 58.7 C 346.6 58.7 348.8 60.9 348.8 64.6 C 348.8 68.2 346.6 70.4 343.5 70.4 C 340.4 70.4 338.1 68.2 338.1 64.6 Z M 347.2 64.5 C 347.2 61.7 345.5 60.1 343.4 60.1 C 341.2 60.1 339.7 61.8 339.7 64.6 C 339.7 67.4 341.4 69 343.5 69 C 345.7 69 347.2 67.3 347.2 64.5 Z M 359.8 67 C 359.8 69.3 357.7 70.4 355.5 70.4 C 353 70.4 350.8 69.2 350.6 66.7 C 350.6 66.7 352.2 66.7 352.2 66.7 C 352.5 68.4 354 69 355.5 69 C 356.9 69 358.2 68.5 358.2 67.2 C 358.2 65.9 356.9 65.6 355.6 65.4 C 353.4 65 350.9 64.6 350.9 62 C 350.9 59.8 352.8 58.7 355.1 58.7 C 357.5 58.7 359.4 59.8 359.5 62.1 C 359.5 62.1 357.9 62.1 357.9 62.1 C 357.8 60.7 356.5 60.1 355 60.1 C 353.5 60.1 352.5 60.8 352.5 61.9 C 352.5 63.4 353.8 63.6 355.5 63.9 C 357.6 64.2 359.8 64.5 359.8 67 Z M 378.1 64.5 C 378.1 68.6 375.5 70.3 372.9 70.3 C 371 70.3 369.7 69.4 369.1 68.2 C 369.11 68.23 369.1 74.5 369.1 74.5 L 367.6 74.5 L 367.6 58.9 L 369.1 58.9 C 369.1 58.9 369.07 61.28 369.1 61.3 C 369.6 59.9 371 58.7 373.1 58.7 C 375.5 58.7 378.1 60.4 378.1 64.5 Z M 376.5 64.5 C 376.5 61.4 374.7 60.2 372.9 60.2 C 371 60.2 369.1 61.4 369.1 64.6 C 369.1 67.7 371 68.9 372.8 68.9 C 374.7 68.9 376.5 67.7 376.5 64.5 Z M 387.7 68.1 C 386.8 69.8 385.1 70.4 383.6 70.4 C 381.7 70.4 380 69.3 380 67.1 C 380 65 381.5 64 383.4 63.8 C 383.4 63.8 386.1 63.4 386.1 63.4 C 386.9 63.3 387.7 63 387.7 62 C 387.7 60.7 386.5 60 384.9 60 C 383.2 60 382.2 60.8 382 62.1 C 382 62.1 380.4 62.1 380.4 62.1 C 380.7 59.8 382.6 58.7 385 58.7 C 387.6 58.7 389.1 59.9 389.1 62.4 C 389.15 62.39 389.1 70.2 389.1 70.2 L 387.7 70.2 C 387.7 70.2 387.66 68.12 387.7 68.1 Z M 385.8 64.7 C 385.8 64.7 384.1 64.9 384.1 64.9 C 382.6 65.1 381.6 65.6 381.6 67 C 381.6 68.4 382.7 69 383.9 69 C 385.7 69 387.6 67.7 387.6 65.3 C 387.6 65.3 387.6 64.2 387.6 64.2 C 387.2 64.5 386.5 64.6 385.8 64.7 Z M 397.9 60.2 C 397.9 60.2 397.57 60.23 397.6 60.2 C 395.2 60.2 393.8 61.6 393.8 64.2 C 393.83 64.2 393.8 70.2 393.8 70.2 L 392.3 70.2 L 392.3 58.9 L 393.8 58.9 C 393.8 58.9 393.81 60.98 393.8 61 C 394.3 59.5 395.7 58.8 397.4 58.8 C 397.44 58.78 397.9 58.8 397.9 58.8 L 397.9 60.2 Z M 406.8 68.1 C 406 69.8 404.3 70.4 402.8 70.4 C 400.9 70.4 399.2 69.3 399.2 67.1 C 399.2 65 400.7 64 402.6 63.8 C 402.6 63.8 405.3 63.4 405.3 63.4 C 406.1 63.3 406.8 63 406.8 62 C 406.8 60.7 405.7 60 404.1 60 C 402.4 60 401.4 60.8 401.2 62.1 C 401.2 62.1 399.6 62.1 399.6 62.1 C 399.9 59.8 401.7 58.7 404.2 58.7 C 406.8 58.7 408.3 59.9 408.3 62.4 C 408.34 62.39 408.3 70.2 408.3 70.2 L 406.8 70.2 C 406.8 70.2 406.85 68.12 406.8 68.1 Z M 405 64.7 C 405 64.7 403.3 64.9 403.3 64.9 C 401.8 65.1 400.8 65.6 400.8 67 C 400.8 68.4 401.9 69 403.1 69 C 404.9 69 406.8 67.7 406.8 65.3 C 406.8 65.3 406.8 64.2 406.8 64.2 C 406.4 64.5 405.7 64.6 405 64.7 Z M 424.6 74.5 C 424.6 74.5 424.57 68.02 424.6 68 C 423.9 69.3 422.6 70.3 420.7 70.3 C 418.2 70.3 415.6 68.6 415.6 64.4 C 415.6 60.4 418.1 58.7 420.6 58.7 C 422.6 58.7 424 59.7 424.6 60.9 C 424.62 60.88 424.6 58.9 424.6 58.9 L 426.1 58.9 L 426.1 74.5 L 424.6 74.5 Z M 424.6 64.5 C 424.6 61.3 422.7 60.1 420.8 60.1 C 418.9 60.1 417.2 61.3 417.2 64.5 C 417.2 67.6 419 68.9 420.8 68.9 C 422.7 68.9 424.6 67.6 424.6 64.5 Z M 436.8 70.2 C 436.8 70.2 436.77 68.04 436.8 68 C 436 69.6 434.6 70.3 433 70.3 C 430.9 70.3 429.3 69 429.3 66.4 C 429.26 66.36 429.3 58.9 429.3 58.9 L 430.8 58.9 C 430.8 58.9 430.79 66.17 430.8 66.2 C 430.8 68 431.8 69 433.3 69 C 435.1 69 436.7 67.6 436.7 64.7 C 436.71 64.74 436.7 58.9 436.7 58.9 L 438.2 58.9 L 438.2 70.2 L 436.8 70.2 Z M 442.4 64.9 C 442.4 67.7 444.1 69 446.1 69 C 447.6 69 449.1 68.3 449.4 66.7 C 449.4 66.7 450.9 66.7 450.9 66.7 C 450.4 69.3 448.2 70.4 446.1 70.4 C 443.4 70.4 440.9 68.6 440.9 64.6 C 440.9 60.5 443.4 58.7 446.1 58.7 C 448.8 58.7 451 60.4 451 64.2 C 450.97 64.15 451 64.9 451 64.9 C 451 64.9 442.38 64.91 442.4 64.9 Z M 442.4 63.6 C 442.4 63.6 449.4 63.6 449.4 63.6 C 449.4 61.3 447.9 60.1 446.1 60.1 C 444.3 60.1 442.6 61.2 442.4 63.6 Z " stroke="none" fill="#000"/>  </g>  <g id="Polygon11459">    <path d="M 11.4 45 L 1.9 45 L 1.9 29.2 L 3.5 29.2 L 3.5 43.5 L 11.4 43.5 L 11.4 45 Z M 12.8 39.4 C 12.8 35.7 15 33.5 18.1 33.5 C 21.3 33.5 23.5 35.7 23.5 39.4 C 23.5 43 21.3 45.2 18.2 45.2 C 15.1 45.2 12.8 43 12.8 39.4 Z M 21.9 39.3 C 21.9 36.5 20.2 34.9 18.1 34.9 C 15.9 34.9 14.4 36.6 14.4 39.4 C 14.4 42.2 16.1 43.8 18.2 43.8 C 20.4 43.8 21.9 42.1 21.9 39.3 Z M 34.5 41.8 C 34.5 44.1 32.4 45.2 30.2 45.2 C 27.7 45.2 25.5 44 25.3 41.5 C 25.3 41.5 26.9 41.5 26.9 41.5 C 27.2 43.2 28.6 43.8 30.2 43.8 C 31.6 43.8 32.9 43.3 32.9 42 C 32.9 40.7 31.6 40.4 30.3 40.2 C 28.1 39.8 25.6 39.4 25.6 36.8 C 25.6 34.6 27.5 33.5 29.8 33.5 C 32.2 33.5 34.1 34.6 34.2 36.9 C 34.2 36.9 32.6 36.9 32.6 36.9 C 32.5 35.5 31.2 34.9 29.7 34.9 C 28.2 34.9 27.2 35.6 27.2 36.7 C 27.2 38.2 28.5 38.4 30.2 38.7 C 32.3 39 34.5 39.3 34.5 41.8 Z M 50.2 41.8 C 50.2 44.1 48.2 45.2 45.9 45.2 C 43.5 45.2 41.2 44 41 41.5 C 41 41.5 42.7 41.5 42.7 41.5 C 42.9 43.2 44.4 43.8 45.9 43.8 C 47.4 43.8 48.6 43.3 48.6 42 C 48.6 40.7 47.3 40.4 46 40.2 C 43.8 39.8 41.3 39.4 41.3 36.8 C 41.3 34.6 43.2 33.5 45.5 33.5 C 47.9 33.5 49.8 34.6 49.9 36.9 C 49.9 36.9 48.3 36.9 48.3 36.9 C 48.2 35.5 46.9 34.9 45.5 34.9 C 43.9 34.9 42.9 35.6 42.9 36.7 C 42.9 38.2 44.2 38.4 45.9 38.7 C 48 39 50.2 39.3 50.2 41.8 Z M 53.5 39.7 C 53.6 42.5 55.3 43.8 57.3 43.8 C 58.8 43.8 60.2 43.1 60.6 41.5 C 60.6 41.5 62 41.5 62 41.5 C 61.5 44.1 59.3 45.2 57.2 45.2 C 54.5 45.2 52 43.4 52 39.4 C 52 35.3 54.6 33.5 57.3 33.5 C 59.9 33.5 62.1 35.2 62.1 39 C 62.12 38.95 62.1 39.7 62.1 39.7 C 62.1 39.7 53.53 39.71 53.5 39.7 Z M 53.6 38.4 C 53.6 38.4 60.6 38.4 60.6 38.4 C 60.6 36.1 59.1 34.9 57.2 34.9 C 55.4 34.9 53.8 36 53.6 38.4 Z M 69.2 45.2 C 66.1 45.2 64 42.9 64 39.4 C 64 35.8 66.1 33.5 69.4 33.5 C 71.9 33.5 73.9 34.9 74 37.4 C 74 37.4 72.5 37.4 72.5 37.4 C 72.4 35.8 71 34.9 69.3 34.9 C 67.1 34.9 65.6 36.6 65.6 39.3 C 65.6 42.1 67.1 43.8 69.3 43.8 C 71 43.8 72.4 42.8 72.5 41 C 72.5 41 74 41 74 41 C 73.9 43.7 71.7 45.2 69.2 45.2 Z M 81.8 45 C 81.8 45 80.14 44.98 80.1 45 C 78.6 45 77.3 44.5 77.3 42 C 77.3 42.02 77.3 35.1 77.3 35.1 L 75.1 35.1 L 75.1 33.7 L 77.3 33.7 L 77.3 30.5 L 78.8 30.1 L 78.8 33.7 L 81.6 33.7 L 81.6 35.1 L 78.8 35.1 C 78.8 35.1 78.83 42 78.8 42 C 78.8 43 79.1 43.6 80.4 43.6 C 80.39 43.6 81.8 43.6 81.8 43.6 L 81.8 45 Z M 83.3 39.4 C 83.3 35.7 85.5 33.5 88.6 33.5 C 91.7 33.5 94 35.7 94 39.4 C 94 43 91.7 45.2 88.6 45.2 C 85.5 45.2 83.3 43 83.3 39.4 Z M 92.4 39.3 C 92.4 36.5 90.7 34.9 88.6 34.9 C 86.4 34.9 84.8 36.6 84.8 39.4 C 84.8 42.2 86.5 43.8 88.6 43.8 C 90.8 43.8 92.4 42.1 92.4 39.3 Z M 102.2 35 C 102.2 35 101.85 35.03 101.8 35 C 99.5 35 98.1 36.4 98.1 39 C 98.11 39 98.1 45 98.1 45 L 96.6 45 L 96.6 33.7 L 98.1 33.7 C 98.1 33.7 98.09 35.78 98.1 35.8 C 98.6 34.3 100 33.6 101.7 33.6 C 101.72 33.58 102.2 33.6 102.2 33.6 L 102.2 35 Z M 104.8 39.7 C 104.8 42.5 106.5 43.8 108.5 43.8 C 110 43.8 111.5 43.1 111.8 41.5 C 111.8 41.5 113.3 41.5 113.3 41.5 C 112.8 44.1 110.6 45.2 108.4 45.2 C 105.8 45.2 103.3 43.4 103.3 39.4 C 103.3 35.3 105.8 33.5 108.5 33.5 C 111.2 33.5 113.4 35.2 113.4 39 C 113.36 38.95 113.4 39.7 113.4 39.7 C 113.4 39.7 104.77 39.71 104.8 39.7 Z M 104.8 38.4 C 104.8 38.4 111.8 38.4 111.8 38.4 C 111.8 36.1 110.3 34.9 108.4 34.9 C 106.7 34.9 105 36 104.8 38.4 Z M 124.4 41.8 C 124.4 44.1 122.3 45.2 120 45.2 C 117.6 45.2 115.4 44 115.1 41.5 C 115.1 41.5 116.8 41.5 116.8 41.5 C 117 43.2 118.5 43.8 120 43.8 C 121.5 43.8 122.8 43.3 122.8 42 C 122.8 40.7 121.5 40.4 120.1 40.2 C 118 39.8 115.4 39.4 115.4 36.8 C 115.4 34.6 117.3 33.5 119.7 33.5 C 122.1 33.5 123.9 34.6 124.1 36.9 C 124.1 36.9 122.5 36.9 122.5 36.9 C 122.4 35.5 121.1 34.9 119.6 34.9 C 118.1 34.9 117 35.6 117 36.7 C 117 38.2 118.4 38.4 120.1 38.7 C 122.1 39 124.4 39.3 124.4 41.8 Z M 140 49.3 C 140 49.3 139.96 42.82 140 42.8 C 139.3 44.1 137.9 45.1 136.1 45.1 C 133.6 45.1 131 43.4 131 39.2 C 131 35.2 133.5 33.5 136 33.5 C 137.9 33.5 139.4 34.5 140 35.7 C 140.01 35.68 140 33.7 140 33.7 L 141.5 33.7 L 141.5 49.3 L 140 49.3 Z M 139.9 39.3 C 139.9 36.1 138.1 34.9 136.2 34.9 C 134.3 34.9 132.6 36.1 132.6 39.3 C 132.6 42.4 134.4 43.7 136.2 43.7 C 138.1 43.7 139.9 42.4 139.9 39.3 Z M 152.2 45 C 152.2 45 152.17 42.84 152.2 42.8 C 151.4 44.4 150 45.1 148.4 45.1 C 146.3 45.1 144.6 43.8 144.6 41.2 C 144.65 41.16 144.6 33.7 144.6 33.7 L 146.2 33.7 C 146.2 33.7 146.18 40.97 146.2 41 C 146.2 42.8 147.2 43.8 148.7 43.8 C 150.5 43.8 152.1 42.4 152.1 39.5 C 152.1 39.54 152.1 33.7 152.1 33.7 L 153.6 33.7 L 153.6 45 L 152.2 45 Z M 157.8 39.7 C 157.8 42.5 159.5 43.8 161.5 43.8 C 163 43.8 164.5 43.1 164.8 41.5 C 164.8 41.5 166.3 41.5 166.3 41.5 C 165.8 44.1 163.6 45.2 161.4 45.2 C 158.8 45.2 156.3 43.4 156.3 39.4 C 156.3 35.3 158.8 33.5 161.5 33.5 C 164.2 33.5 166.4 35.2 166.4 39 C 166.36 38.95 166.4 39.7 166.4 39.7 C 166.4 39.7 157.77 39.71 157.8 39.7 Z M 157.8 38.4 C 157.8 38.4 164.8 38.4 164.8 38.4 C 164.8 36.1 163.3 34.9 161.4 34.9 C 159.7 34.9 158 36 157.8 38.4 Z M 183.4 37.3 C 183.39 37.25 183.4 45 183.4 45 L 181.9 45 C 181.9 45 181.86 37.44 181.9 37.4 C 181.9 35.9 181 34.9 179.4 34.9 C 177.4 34.9 175.8 36.3 175.8 39.1 C 175.77 39.06 175.8 45 175.8 45 L 174.2 45 L 174.2 33.7 L 175.8 33.7 C 175.8 33.7 175.77 35.8 175.8 35.8 C 176.4 34.5 177.7 33.5 179.7 33.5 C 181.9 33.5 183.4 34.8 183.4 37.3 Z M 187.4 39.7 C 187.5 42.5 189.2 43.8 191.2 43.8 C 192.7 43.8 194.1 43.1 194.5 41.5 C 194.5 41.5 195.9 41.5 195.9 41.5 C 195.4 44.1 193.2 45.2 191.1 45.2 C 188.4 45.2 185.9 43.4 185.9 39.4 C 185.9 35.3 188.5 33.5 191.2 33.5 C 193.8 33.5 196 35.2 196 39 C 196.01 38.95 196 39.7 196 39.7 C 196 39.7 187.42 39.71 187.4 39.7 Z M 187.5 38.4 C 187.5 38.4 194.5 38.4 194.5 38.4 C 194.5 36.1 193 34.9 191.1 34.9 C 189.3 34.9 187.7 36 187.5 38.4 Z M 203.1 45.2 C 200 45.2 197.9 42.9 197.9 39.4 C 197.9 35.8 200 33.5 203.3 33.5 C 205.8 33.5 207.8 34.9 207.9 37.4 C 207.9 37.4 206.4 37.4 206.4 37.4 C 206.3 35.8 204.9 34.9 203.2 34.9 C 201 34.9 199.5 36.6 199.5 39.3 C 199.5 42.1 201 43.8 203.2 43.8 C 204.9 43.8 206.3 42.8 206.4 41 C 206.4 41 207.9 41 207.9 41 C 207.8 43.7 205.6 45.2 203.1 45.2 Z M 211.3 39.7 C 211.4 42.5 213.1 43.8 215.1 43.8 C 216.6 43.8 218 43.1 218.4 41.5 C 218.4 41.5 219.8 41.5 219.8 41.5 C 219.3 44.1 217.1 45.2 215 45.2 C 212.3 45.2 209.8 43.4 209.8 39.4 C 209.8 35.3 212.4 33.5 215.1 33.5 C 217.7 33.5 219.9 35.2 219.9 39 C 219.91 38.95 219.9 39.7 219.9 39.7 C 219.9 39.7 211.32 39.71 211.3 39.7 Z M 211.4 38.4 C 211.4 38.4 218.4 38.4 218.4 38.4 C 218.4 36.1 216.9 34.9 215 34.9 C 213.2 34.9 211.6 36 211.4 38.4 Z M 230.9 41.8 C 230.9 44.1 228.8 45.2 226.6 45.2 C 224.2 45.2 221.9 44 221.7 41.5 C 221.7 41.5 223.3 41.5 223.3 41.5 C 223.6 43.2 225.1 43.8 226.6 43.8 C 228 43.8 229.3 43.3 229.3 42 C 229.3 40.7 228 40.4 226.7 40.2 C 224.5 39.8 222 39.4 222 36.8 C 222 34.6 223.9 33.5 226.2 33.5 C 228.6 33.5 230.5 34.6 230.6 36.9 C 230.6 36.9 229 36.9 229 36.9 C 228.9 35.5 227.6 34.9 226.1 34.9 C 224.6 34.9 223.6 35.6 223.6 36.7 C 223.6 38.2 224.9 38.4 226.6 38.7 C 228.7 39 230.9 39.3 230.9 41.8 Z M 235.1 29 L 233.3 29 L 233.3 30.9 L 235.1 30.9 L 235.1 29 Z M 235 45 L 233.4 45 L 233.4 33.7 L 235 33.7 L 235 45 Z M 243.5 45 C 243.5 45 241.81 44.98 241.8 45 C 240.3 45 239 44.5 239 42 C 238.98 42.02 239 35.1 239 35.1 L 236.8 35.1 L 236.8 33.7 L 239 33.7 L 239 30.5 L 240.5 30.1 L 240.5 33.7 L 243.2 33.7 L 243.2 35.1 L 240.5 35.1 C 240.5 35.1 240.51 42 240.5 42 C 240.5 43 240.8 43.6 242.1 43.6 C 242.07 43.6 243.5 43.6 243.5 43.6 L 243.5 45 Z M 252.6 42.9 C 251.7 44.6 250 45.2 248.6 45.2 C 246.7 45.2 244.9 44.1 244.9 41.9 C 244.9 39.8 246.4 38.8 248.4 38.6 C 248.4 38.6 251 38.2 251 38.2 C 251.9 38.1 252.6 37.8 252.6 36.8 C 252.6 35.5 251.5 34.8 249.9 34.8 C 248.2 34.8 247.1 35.6 246.9 36.9 C 246.9 36.9 245.4 36.9 245.4 36.9 C 245.7 34.6 247.5 33.5 250 33.5 C 252.5 33.5 254.1 34.7 254.1 37.2 C 254.1 37.19 254.1 45 254.1 45 L 252.6 45 C 252.6 45 252.61 42.92 252.6 42.9 Z M 250.7 39.5 C 250.7 39.5 249 39.7 249 39.7 C 247.6 39.9 246.5 40.4 246.5 41.8 C 246.5 43.2 247.6 43.8 248.8 43.8 C 250.6 43.8 252.6 42.5 252.6 40.1 C 252.6 40.1 252.6 39 252.6 39 C 252.1 39.3 251.5 39.4 250.7 39.5 Z M 262.9 35 C 262.9 35 262.52 35.03 262.5 35 C 260.1 35 258.8 36.4 258.8 39 C 258.78 39 258.8 45 258.8 45 L 257.2 45 L 257.2 33.7 L 258.8 33.7 C 258.8 33.7 258.76 35.78 258.8 35.8 C 259.3 34.3 260.7 33.6 262.4 33.6 C 262.39 33.58 262.9 33.6 262.9 33.6 L 262.9 35 Z M 263.9 39.4 C 263.9 35.7 266.2 33.5 269.3 33.5 C 272.4 33.5 274.6 35.7 274.6 39.4 C 274.6 43 272.4 45.2 269.3 45.2 C 266.2 45.2 263.9 43 263.9 39.4 Z M 273 39.3 C 273 36.5 271.3 34.9 269.2 34.9 C 267 34.9 265.5 36.6 265.5 39.4 C 265.5 42.2 267.2 43.8 269.3 43.8 C 271.5 43.8 273 42.1 273 39.3 Z M 286.4 37.3 C 286.4 37.25 286.4 45 286.4 45 L 284.9 45 C 284.9 45 284.86 37.44 284.9 37.4 C 284.9 35.9 284 34.9 282.4 34.9 C 280.5 34.9 278.8 36.3 278.8 39.1 C 278.77 39.06 278.8 45 278.8 45 L 277.2 45 L 277.2 33.7 L 278.8 33.7 C 278.8 33.7 278.77 35.8 278.8 35.8 C 279.4 34.5 280.7 33.5 282.7 33.5 C 284.9 33.5 286.4 34.8 286.4 37.3 Z M 302.3 42.9 C 301.4 44.6 299.7 45.2 298.2 45.2 C 296.3 45.2 294.6 44.1 294.6 41.9 C 294.6 39.8 296.1 38.8 298 38.6 C 298 38.6 300.7 38.2 300.7 38.2 C 301.5 38.1 302.3 37.8 302.3 36.8 C 302.3 35.5 301.1 34.8 299.5 34.8 C 297.8 34.8 296.8 35.6 296.6 36.9 C 296.6 36.9 295 36.9 295 36.9 C 295.3 34.6 297.1 33.5 299.6 33.5 C 302.2 33.5 303.7 34.7 303.7 37.2 C 303.74 37.19 303.7 45 303.7 45 L 302.3 45 C 302.3 45 302.25 42.92 302.3 42.9 Z M 300.4 39.5 C 300.4 39.5 298.7 39.7 298.7 39.7 C 297.2 39.9 296.2 40.4 296.2 41.8 C 296.2 43.2 297.3 43.8 298.5 43.8 C 300.3 43.8 302.2 42.5 302.2 40.1 C 302.2 40.1 302.2 39 302.2 39 C 301.8 39.3 301.1 39.4 300.4 39.5 Z M 310.2 47.1 C 309.8 48.3 308.8 48.7 307.6 48.7 C 307.61 48.68 306.5 48.7 306.5 48.7 L 306.5 47.3 C 306.5 47.3 307.4 47.31 307.4 47.3 C 308.4 47.3 308.8 47 309.2 46 C 309.2 45.99 309.7 44.5 309.7 44.5 L 305.5 33.7 L 307.1 33.7 L 310.5 42.6 L 313.8 33.7 L 315.3 33.7 C 315.3 33.7 310.21 47.12 310.2 47.1 Z M 324.7 45 C 324.7 45 324.72 42.84 324.7 42.8 C 323.9 44.4 322.6 45.1 321 45.1 C 318.8 45.1 317.2 43.8 317.2 41.2 C 317.2 41.16 317.2 33.7 317.2 33.7 L 318.7 33.7 C 318.7 33.7 318.74 40.97 318.7 41 C 318.7 42.8 319.7 43.8 321.2 43.8 C 323 43.8 324.7 42.4 324.7 39.5 C 324.66 39.54 324.7 33.7 324.7 33.7 L 326.2 33.7 L 326.2 45 L 324.7 45 Z M 339.4 45 L 337.9 45 C 337.9 45 337.89 42.8 337.9 42.8 C 337.3 44.1 336 45.2 333.9 45.2 C 330.9 45.2 328.8 42.9 328.8 39.3 C 328.8 35.8 330.9 33.5 333.9 33.5 C 335.8 33.5 337.2 34.4 337.8 35.6 C 337.82 35.62 337.8 29 337.8 29 L 339.4 29 L 339.4 45 Z M 337.8 39.3 C 337.8 36.5 336.2 34.9 334.1 34.9 C 331.9 34.9 330.4 36.6 330.4 39.3 C 330.4 42.1 331.9 43.8 334.1 43.8 C 336.3 43.8 337.8 42.1 337.8 39.3 Z M 349.6 42.9 C 348.8 44.6 347.1 45.2 345.6 45.2 C 343.7 45.2 342 44.1 342 41.9 C 342 39.8 343.5 38.8 345.4 38.6 C 345.4 38.6 348.1 38.2 348.1 38.2 C 348.9 38.1 349.6 37.8 349.6 36.8 C 349.6 35.5 348.5 34.8 346.9 34.8 C 345.2 34.8 344.2 35.6 344 36.9 C 344 36.9 342.4 36.9 342.4 36.9 C 342.7 34.6 344.5 33.5 347 33.5 C 349.6 33.5 351.1 34.7 351.1 37.2 C 351.14 37.19 351.1 45 351.1 45 L 349.6 45 C 349.6 45 349.65 42.92 349.6 42.9 Z M 347.8 39.5 C 347.8 39.5 346.1 39.7 346.1 39.7 C 344.6 39.9 343.6 40.4 343.6 41.8 C 343.6 43.2 344.6 43.8 345.9 43.8 C 347.7 43.8 349.6 42.5 349.6 40.1 C 349.6 40.1 349.6 39 349.6 39 C 349.2 39.3 348.5 39.4 347.8 39.5 Z M 359.9 39.7 C 359.9 42.5 361.7 43.8 363.7 43.8 C 365.1 43.8 366.6 43.1 367 41.5 C 367 41.5 368.4 41.5 368.4 41.5 C 367.9 44.1 365.7 45.2 363.6 45.2 C 360.9 45.2 358.4 43.4 358.4 39.4 C 358.4 35.3 360.9 33.5 363.6 33.5 C 366.3 33.5 368.5 35.2 368.5 39 C 368.48 38.95 368.5 39.7 368.5 39.7 C 368.5 39.7 359.9 39.71 359.9 39.7 Z M 359.9 38.4 C 359.9 38.4 366.9 38.4 366.9 38.4 C 366.9 36.1 365.5 34.9 363.6 34.9 C 361.8 34.9 360.1 36 359.9 38.4 Z M 380.3 37.3 C 380.27 37.25 380.3 45 380.3 45 L 378.7 45 C 378.7 45 378.73 37.44 378.7 37.4 C 378.7 35.9 377.9 34.9 376.3 34.9 C 374.3 34.9 372.6 36.3 372.6 39.1 C 372.64 39.06 372.6 45 372.6 45 L 371.1 45 L 371.1 33.7 L 372.6 33.7 C 372.6 33.7 372.64 35.8 372.6 35.8 C 373.3 34.5 374.6 33.5 376.5 33.5 C 378.8 33.5 380.3 34.8 380.3 37.3 Z M 399.2 45 L 388.5 45 L 388.5 43.5 C 388.5 43.5 392.49 39.96 392.5 40 C 395.2 37.5 397 36 397 33.7 C 397 31.8 395.6 30.7 393.8 30.7 C 391.9 30.7 390.2 31.8 390 34.3 C 390 34.3 388.4 34.3 388.4 34.3 C 388.5 30.9 391 29.2 393.8 29.2 C 396.5 29.2 398.7 30.8 398.7 33.6 C 398.7 36.2 397 37.8 394.1 40.4 C 394.12 40.36 390.6 43.6 390.6 43.6 L 399.2 43.6 L 399.2 45 Z M 401.3 37.3 C 401.3 32.4 402.9 29.2 406.4 29.2 C 410 29.2 411.6 32.4 411.6 37.2 C 411.6 42.1 409.9 45.2 406.4 45.2 C 402.8 45.2 401.3 42.1 401.3 37.3 Z M 410 37.3 C 410 33.7 409 30.7 406.3 30.7 C 403.9 30.7 402.9 33.3 402.9 37.1 C 402.9 41 403.9 43.7 406.5 43.7 C 408.9 43.7 409.9 41.1 410 37.3 Z M 424.4 45 L 413.7 45 L 413.7 43.5 C 413.7 43.5 417.69 39.96 417.7 40 C 420.4 37.5 422.2 36 422.2 33.7 C 422.2 31.8 420.8 30.7 419 30.7 C 417.1 30.7 415.4 31.8 415.2 34.3 C 415.2 34.3 413.6 34.3 413.6 34.3 C 413.7 30.9 416.2 29.2 419 29.2 C 421.7 29.2 423.9 30.8 423.9 33.6 C 423.9 36.2 422.2 37.8 419.3 40.4 C 419.32 40.36 415.8 43.6 415.8 43.6 L 424.4 43.6 L 424.4 45 Z M 426.5 37.3 C 426.5 32.4 428.1 29.2 431.6 29.2 C 435.2 29.2 436.8 32.4 436.8 37.2 C 436.8 42.1 435.1 45.2 431.6 45.2 C 428 45.2 426.5 42.1 426.5 37.3 Z M 435.2 37.3 C 435.2 33.7 434.2 30.7 431.5 30.7 C 429.1 30.7 428.1 33.3 428.1 37.1 C 428.1 41 429.1 43.7 431.7 43.7 C 434.1 43.7 435.1 41.1 435.2 37.3 Z " stroke="none" fill="#000"/>  </g>  <g id="Polygon11458">    <path d="M 11.7 15.3 L 4.2 15.3 L 2.5 19.8 L 0.7 19.8 L 7.1 4 L 8.8 4 L 15.3 19.8 L 13.5 19.8 L 11.7 15.3 Z M 7.9 5.8 L 4.7 13.9 L 11.2 13.9 L 7.9 5.8 Z M 26.1 16.6 C 26.1 18.9 24 20 21.7 20 C 19.3 20 17.1 18.8 16.9 16.3 C 16.9 16.3 18.5 16.3 18.5 16.3 C 18.8 18 20.2 18.6 21.8 18.6 C 23.2 18.6 24.5 18.1 24.5 16.8 C 24.5 15.5 23.2 15.2 21.9 15 C 19.7 14.6 17.1 14.2 17.1 11.6 C 17.1 9.4 19.1 8.3 21.4 8.3 C 23.8 8.3 25.7 9.4 25.8 11.7 C 25.8 11.7 24.2 11.7 24.2 11.7 C 24.1 10.3 22.8 9.7 21.3 9.7 C 19.8 9.7 18.7 10.4 18.7 11.5 C 18.7 13 20.1 13.2 21.8 13.5 C 23.8 13.8 26.1 14.1 26.1 16.6 Z M 30.2 3.8 L 28.5 3.8 L 28.5 5.7 L 30.2 5.7 L 30.2 3.8 Z M 30.1 19.8 L 28.6 19.8 L 28.6 8.5 L 30.1 8.5 L 30.1 19.8 Z M 33.5 8.5 L 35 8.5 C 35 8.5 35.01 10.37 35 10.4 C 35.6 9 36.9 8.3 38.3 8.3 C 39.9 8.3 41.3 9.2 41.6 10.6 C 42.1 9.4 43.4 8.3 45.3 8.3 C 47.4 8.3 49 9.4 49 11.7 C 48.97 11.7 49 19.8 49 19.8 L 47.4 19.8 C 47.4 19.8 47.44 12.24 47.4 12.2 C 47.4 10.5 46.4 9.7 45 9.7 C 43.4 9.7 42 11 42 13.3 C 41.98 13.33 42 19.8 42 19.8 L 40.5 19.8 C 40.5 19.8 40.47 12.24 40.5 12.2 C 40.5 10.5 39.4 9.7 38.1 9.7 C 36.4 9.7 35 10.9 35 13.3 C 35.03 13.33 35 19.8 35 19.8 L 33.5 19.8 L 33.5 8.5 Z M 53.9 3.8 L 52.1 3.8 L 52.1 5.7 L 53.9 5.7 L 53.9 3.8 Z M 53.8 19.8 L 52.2 19.8 L 52.2 8.5 L 53.8 8.5 L 53.8 19.8 Z M 65.5 16.6 C 65.5 18.9 63.4 20 61.2 20 C 58.7 20 56.5 18.8 56.3 16.3 C 56.3 16.3 57.9 16.3 57.9 16.3 C 58.2 18 59.6 18.6 61.2 18.6 C 62.6 18.6 63.9 18.1 63.9 16.8 C 63.9 15.5 62.6 15.2 61.3 15 C 59.1 14.6 56.6 14.2 56.6 11.6 C 56.6 9.4 58.5 8.3 60.8 8.3 C 63.2 8.3 65.1 9.4 65.2 11.7 C 65.2 11.7 63.6 11.7 63.6 11.7 C 63.5 10.3 62.2 9.7 60.7 9.7 C 59.2 9.7 58.1 10.4 58.1 11.5 C 58.1 13 59.5 13.2 61.2 13.5 C 63.3 13.8 65.5 14.1 65.5 16.6 Z M 68 8.5 L 69.5 8.5 C 69.5 8.5 69.53 10.37 69.5 10.4 C 70.1 9 71.4 8.3 72.8 8.3 C 74.5 8.3 75.8 9.2 76.1 10.6 C 76.6 9.4 77.9 8.3 79.8 8.3 C 81.9 8.3 83.5 9.4 83.5 11.7 C 83.49 11.7 83.5 19.8 83.5 19.8 L 82 19.8 C 82 19.8 81.96 12.24 82 12.2 C 82 10.5 80.9 9.7 79.6 9.7 C 77.9 9.7 76.5 11 76.5 13.3 C 76.5 13.33 76.5 19.8 76.5 19.8 L 75 19.8 C 75 19.8 74.99 12.24 75 12.2 C 75 10.5 74 9.7 72.6 9.7 C 71 9.7 69.6 10.9 69.6 13.3 C 69.55 13.33 69.6 19.8 69.6 19.8 L 68 19.8 L 68 8.5 Z M 86 14.2 C 86 10.5 88.2 8.3 91.3 8.3 C 94.5 8.3 96.7 10.5 96.7 14.2 C 96.7 17.8 94.5 20 91.4 20 C 88.3 20 86 17.8 86 14.2 Z M 95.1 14.1 C 95.1 11.3 93.4 9.7 91.3 9.7 C 89.1 9.7 87.6 11.4 87.6 14.2 C 87.6 17 89.3 18.6 91.4 18.6 C 93.6 18.6 95.1 16.9 95.1 14.1 Z M 100.4 19.7 C 100.42 19.66 99.4 19.7 99.4 19.7 L 99.4 17.6 L 101.6 17.6 C 101.6 17.6 101.64 19.72 101.6 19.7 C 101.6 22.2 100.2 23.1 98.6 23.2 C 98.6 23.2 98.4 22.3 98.4 22.3 C 100.1 22 100.4 21 100.4 19.7 Z M 109.7 14.5 C 109.7 17.3 111.4 18.6 113.4 18.6 C 114.9 18.6 116.4 17.9 116.7 16.3 C 116.7 16.3 118.2 16.3 118.2 16.3 C 117.7 18.9 115.5 20 113.3 20 C 110.6 20 108.1 18.2 108.1 14.2 C 108.1 10.1 110.7 8.3 113.4 8.3 C 116.1 8.3 118.2 10 118.2 13.8 C 118.25 13.75 118.2 14.5 118.2 14.5 C 118.2 14.5 109.66 14.51 109.7 14.5 Z M 109.7 13.2 C 109.7 13.2 116.7 13.2 116.7 13.2 C 116.7 10.9 115.2 9.7 113.3 9.7 C 111.6 9.7 109.9 10.8 109.7 13.2 Z M 129.3 16.6 C 129.3 18.9 127.2 20 124.9 20 C 122.5 20 120.3 18.8 120 16.3 C 120 16.3 121.7 16.3 121.7 16.3 C 121.9 18 123.4 18.6 124.9 18.6 C 126.4 18.6 127.7 18.1 127.7 16.8 C 127.7 15.5 126.4 15.2 125 15 C 122.9 14.6 120.3 14.2 120.3 11.6 C 120.3 9.4 122.2 8.3 124.5 8.3 C 126.9 8.3 128.8 9.4 129 11.7 C 129 11.7 127.4 11.7 127.4 11.7 C 127.3 10.3 126 9.7 124.5 9.7 C 123 9.7 121.9 10.4 121.9 11.5 C 121.9 13 123.3 13.2 125 13.5 C 127 13.8 129.3 14.1 129.3 16.6 Z M 136.9 19.8 C 136.9 19.8 135.26 19.78 135.3 19.8 C 133.8 19.8 132.4 19.3 132.4 16.8 C 132.42 16.82 132.4 9.9 132.4 9.9 L 130.2 9.9 L 130.2 8.5 L 132.4 8.5 L 132.4 5.3 L 134 4.9 L 134 8.5 L 136.7 8.5 L 136.7 9.9 L 134 9.9 C 134 9.9 133.96 16.8 134 16.8 C 134 17.8 134.3 18.4 135.5 18.4 C 135.51 18.4 136.9 18.4 136.9 18.4 L 136.9 19.8 Z M 144 6.2 L 142.7 6.2 L 145.2 2.4 L 146.5 3.4 L 144 6.2 Z M 146.1 17.7 C 145.2 19.4 143.5 20 142 20 C 140.1 20 138.4 18.9 138.4 16.7 C 138.4 14.6 139.9 13.6 141.8 13.4 C 141.8 13.4 144.5 13 144.5 13 C 145.3 12.9 146.1 12.6 146.1 11.6 C 146.1 10.3 144.9 9.6 143.3 9.6 C 141.6 9.6 140.6 10.4 140.4 11.7 C 140.4 11.7 138.8 11.7 138.8 11.7 C 139.1 9.4 141 8.3 143.4 8.3 C 146 8.3 147.5 9.5 147.5 12 C 147.54 11.99 147.5 19.8 147.5 19.8 L 146.1 19.8 C 146.1 19.8 146.05 17.72 146.1 17.7 Z M 144.2 14.3 C 144.2 14.3 142.5 14.5 142.5 14.5 C 141 14.7 140 15.2 140 16.6 C 140 18 141.1 18.6 142.3 18.6 C 144.1 18.6 146 17.3 146 14.9 C 146 14.9 146 13.8 146 13.8 C 145.6 14.1 144.9 14.2 144.2 14.3 Z M 159.9 12.1 C 159.85 12.05 159.9 19.8 159.9 19.8 L 158.3 19.8 C 158.3 19.8 158.32 12.24 158.3 12.2 C 158.3 10.7 157.4 9.7 155.8 9.7 C 153.9 9.7 152.2 11.1 152.2 13.9 C 152.23 13.86 152.2 19.8 152.2 19.8 L 150.7 19.8 L 150.7 8.5 L 152.2 8.5 C 152.2 8.5 152.23 10.6 152.2 10.6 C 152.9 9.3 154.2 8.3 156.1 8.3 C 158.4 8.3 159.9 9.6 159.9 12.1 Z M 170.3 19.8 L 168.8 19.8 L 168.8 3.8 L 170.3 3.8 L 170.3 19.8 Z M 172.9 14.2 C 172.9 10.5 175.2 8.3 178.3 8.3 C 181.4 8.3 183.6 10.5 183.6 14.2 C 183.6 17.8 181.4 20 178.3 20 C 175.2 20 172.9 17.8 172.9 14.2 Z M 182 14.1 C 182 11.3 180.3 9.7 178.2 9.7 C 176 9.7 174.5 11.4 174.5 14.2 C 174.5 17 176.2 18.6 178.3 18.6 C 180.5 18.6 182 16.9 182 14.1 Z M 194.6 16.6 C 194.6 18.9 192.5 20 190.3 20 C 187.9 20 185.6 18.8 185.4 16.3 C 185.4 16.3 187 16.3 187 16.3 C 187.3 18 188.8 18.6 190.3 18.6 C 191.7 18.6 193 18.1 193 16.8 C 193 15.5 191.7 15.2 190.4 15 C 188.2 14.6 185.7 14.2 185.7 11.6 C 185.7 9.4 187.6 8.3 189.9 8.3 C 192.3 8.3 194.2 9.4 194.3 11.7 C 194.3 11.7 192.7 11.7 192.7 11.7 C 192.6 10.3 191.3 9.7 189.9 9.7 C 188.3 9.7 187.3 10.4 187.3 11.5 C 187.3 13 188.6 13.2 190.3 13.5 C 192.4 13.8 194.6 14.1 194.6 16.6 Z M 206.5 20 C 203.4 20 201.2 17.7 201.2 14.2 C 201.2 10.6 203.3 8.3 206.6 8.3 C 209.1 8.3 211.1 9.7 211.3 12.2 C 211.3 12.2 209.8 12.2 209.8 12.2 C 209.6 10.6 208.2 9.7 206.6 9.7 C 204.4 9.7 202.8 11.4 202.8 14.1 C 202.8 16.9 204.3 18.6 206.6 18.6 C 208.3 18.6 209.6 17.6 209.7 15.8 C 209.7 15.8 211.3 15.8 211.3 15.8 C 211.1 18.5 209 20 206.5 20 Z M 220.8 17.7 C 219.9 19.4 218.2 20 216.8 20 C 214.9 20 213.1 18.9 213.1 16.7 C 213.1 14.6 214.6 13.6 216.6 13.4 C 216.6 13.4 219.2 13 219.2 13 C 220.1 12.9 220.8 12.6 220.8 11.6 C 220.8 10.3 219.7 9.6 218.1 9.6 C 216.4 9.6 215.4 10.4 215.1 11.7 C 215.1 11.7 213.6 11.7 213.6 11.7 C 213.9 9.4 215.7 8.3 218.2 8.3 C 220.7 8.3 222.3 9.5 222.3 12 C 222.3 11.99 222.3 19.8 222.3 19.8 L 220.8 19.8 C 220.8 19.8 220.81 17.72 220.8 17.7 Z M 218.9 14.3 C 218.9 14.3 217.2 14.5 217.2 14.5 C 215.8 14.7 214.7 15.2 214.7 16.6 C 214.7 18 215.8 18.6 217.1 18.6 C 218.8 18.6 220.8 17.3 220.8 14.9 C 220.8 14.9 220.8 13.8 220.8 13.8 C 220.4 14.1 219.7 14.2 218.9 14.3 Z M 225.5 8.5 L 227 8.5 C 227 8.5 226.97 10.37 227 10.4 C 227.6 9 228.8 8.3 230.2 8.3 C 231.9 8.3 233.2 9.2 233.6 10.6 C 234.1 9.4 235.3 8.3 237.3 8.3 C 239.3 8.3 240.9 9.4 240.9 11.7 C 240.93 11.7 240.9 19.8 240.9 19.8 L 239.4 19.8 C 239.4 19.8 239.4 12.24 239.4 12.2 C 239.4 10.5 238.3 9.7 237 9.7 C 235.3 9.7 233.9 11 233.9 13.3 C 233.94 13.33 233.9 19.8 233.9 19.8 L 232.4 19.8 C 232.4 19.8 232.43 12.24 232.4 12.2 C 232.4 10.5 231.4 9.7 230.1 9.7 C 228.4 9.7 227 10.9 227 13.3 C 226.99 13.33 227 19.8 227 19.8 L 225.5 19.8 L 225.5 8.5 Z M 254.7 14.1 C 254.7 17.6 252.6 20 249.6 20 C 247.6 20 246.2 18.9 245.7 17.7 C 245.66 17.7 245.7 19.8 245.7 19.8 L 244.2 19.8 L 244.2 3.8 L 245.7 3.8 C 245.7 3.8 245.72 10.77 245.7 10.8 C 246.3 9.4 247.7 8.3 249.8 8.3 C 252.6 8.3 254.7 10.5 254.7 14.1 Z M 253.2 14.2 C 253.2 11.4 251.7 9.8 249.5 9.8 C 247.3 9.8 245.7 11.4 245.7 14.2 C 245.7 17 247.3 18.7 249.4 18.7 C 251.6 18.7 253.2 16.9 253.2 14.2 Z M 259 3.8 L 257.2 3.8 L 257.2 5.7 L 259 5.7 L 259 3.8 Z M 258.9 19.8 L 257.3 19.8 L 257.3 8.5 L 258.9 8.5 L 258.9 19.8 Z M 261.5 14.2 C 261.5 10.5 263.7 8.3 266.8 8.3 C 269.9 8.3 272.2 10.5 272.2 14.2 C 272.2 17.8 270 20 266.8 20 C 263.7 20 261.5 17.8 261.5 14.2 Z M 270.6 14.1 C 270.6 11.3 268.9 9.7 266.8 9.7 C 264.6 9.7 263.1 11.4 263.1 14.2 C 263.1 17 264.8 18.6 266.9 18.6 C 269 18.6 270.6 16.9 270.6 14.1 Z M 283.2 16.6 C 283.2 18.9 281.1 20 278.8 20 C 276.4 20 274.2 18.8 274 16.3 C 274 16.3 275.6 16.3 275.6 16.3 C 275.9 18 277.3 18.6 278.9 18.6 C 280.3 18.6 281.6 18.1 281.6 16.8 C 281.6 15.5 280.3 15.2 279 15 C 276.8 14.6 274.2 14.2 274.2 11.6 C 274.2 9.4 276.2 8.3 278.5 8.3 C 280.9 8.3 282.8 9.4 282.9 11.7 C 282.9 11.7 281.3 11.7 281.3 11.7 C 281.2 10.3 279.9 9.7 278.4 9.7 C 276.9 9.7 275.8 10.4 275.8 11.5 C 275.8 13 277.2 13.2 278.9 13.5 C 280.9 13.8 283.2 14.1 283.2 16.6 Z M 300.1 12.1 C 300.11 12.05 300.1 19.8 300.1 19.8 L 298.6 19.8 C 298.6 19.8 298.58 12.24 298.6 12.2 C 298.6 10.7 297.7 9.7 296.1 9.7 C 294.2 9.7 292.5 11.1 292.5 13.9 C 292.49 13.86 292.5 19.8 292.5 19.8 L 291 19.8 L 291 8.5 L 292.5 8.5 C 292.5 8.5 292.49 10.6 292.5 10.6 C 293.2 9.3 294.4 8.3 296.4 8.3 C 298.6 8.3 300.1 9.6 300.1 12.1 Z M 302.6 14.2 C 302.6 10.5 304.9 8.3 308 8.3 C 311.1 8.3 313.3 10.5 313.3 14.2 C 313.3 17.8 311.1 20 308 20 C 304.9 20 302.6 17.8 302.6 14.2 Z M 311.7 14.1 C 311.7 11.3 310 9.7 307.9 9.7 C 305.7 9.7 304.2 11.4 304.2 14.2 C 304.2 17 305.9 18.6 308 18.6 C 310.2 18.6 311.7 16.9 311.7 14.1 Z M 321.6 9.8 C 321.6 9.8 321.21 9.83 321.2 9.8 C 318.8 9.8 317.5 11.2 317.5 13.8 C 317.47 13.8 317.5 19.8 317.5 19.8 L 315.9 19.8 L 315.9 8.5 L 317.5 8.5 C 317.5 8.5 317.45 10.58 317.5 10.6 C 318 9.1 319.3 8.4 321.1 8.4 C 321.09 8.38 321.6 8.4 321.6 8.4 L 321.6 9.8 Z M 323.6 8.5 L 325.1 8.5 C 325.1 8.5 325.08 10.37 325.1 10.4 C 325.7 9 326.9 8.3 328.4 8.3 C 330 8.3 331.3 9.2 331.7 10.6 C 332.2 9.4 333.4 8.3 335.4 8.3 C 337.4 8.3 339 9.4 339 11.7 C 339.04 11.7 339 19.8 339 19.8 L 337.5 19.8 C 337.5 19.8 337.51 12.24 337.5 12.2 C 337.5 10.5 336.4 9.7 335.1 9.7 C 333.4 9.7 332 11 332 13.3 C 332.05 13.33 332 19.8 332 19.8 L 330.5 19.8 C 330.5 19.8 330.54 12.24 330.5 12.2 C 330.5 10.5 329.5 9.7 328.2 9.7 C 326.5 9.7 325.1 10.9 325.1 13.3 C 325.1 13.33 325.1 19.8 325.1 19.8 L 323.6 19.8 L 323.6 8.5 Z M 349.2 17.7 C 348.3 19.4 346.6 20 345.2 20 C 343.3 20 341.6 18.9 341.6 16.7 C 341.6 14.6 343.1 13.6 345 13.4 C 345 13.4 347.7 13 347.7 13 C 348.5 12.9 349.2 12.6 349.2 11.6 C 349.2 10.3 348.1 9.6 346.5 9.6 C 344.8 9.6 343.8 10.4 343.5 11.7 C 343.5 11.7 342 11.7 342 11.7 C 342.3 9.4 344.1 8.3 346.6 8.3 C 349.2 8.3 350.7 9.5 350.7 12 C 350.72 11.99 350.7 19.8 350.7 19.8 L 349.2 19.8 C 349.2 19.8 349.23 17.72 349.2 17.7 Z M 347.4 14.3 C 347.4 14.3 345.6 14.5 345.6 14.5 C 344.2 14.7 343.1 15.2 343.1 16.6 C 343.1 18 344.2 18.6 345.5 18.6 C 347.2 18.6 349.2 17.3 349.2 14.9 C 349.2 14.9 349.2 13.8 349.2 13.8 C 348.8 14.1 348.1 14.2 347.4 14.3 Z M 359 19.8 C 359 19.8 357.35 19.78 357.4 19.8 C 355.9 19.8 354.5 19.3 354.5 16.8 C 354.52 16.82 354.5 9.9 354.5 9.9 L 352.3 9.9 L 352.3 8.5 L 354.5 8.5 L 354.5 5.3 L 356.1 4.9 L 356.1 8.5 L 358.8 8.5 L 358.8 9.9 L 356.1 9.9 C 356.1 9.9 356.05 16.8 356.1 16.8 C 356.1 17.8 356.3 18.4 357.6 18.4 C 357.61 18.4 359 18.4 359 18.4 L 359 19.8 Z M 362.9 3.8 L 361.1 3.8 L 361.1 5.7 L 362.9 5.7 L 362.9 3.8 Z M 362.8 19.8 L 361.2 19.8 L 361.2 8.5 L 362.8 8.5 L 362.8 19.8 Z M 370.6 19.8 L 368.9 19.8 L 364.7 8.5 L 366.4 8.5 L 369.8 18.2 L 373.2 8.5 L 374.8 8.5 L 370.6 19.8 Z M 375.8 14.2 C 375.8 10.5 378.1 8.3 381.2 8.3 C 384.3 8.3 386.5 10.5 386.5 14.2 C 386.5 17.8 384.3 20 381.2 20 C 378.1 20 375.8 17.8 375.8 14.2 Z M 384.9 14.1 C 384.9 11.3 383.2 9.7 381.1 9.7 C 378.9 9.7 377.4 11.4 377.4 14.2 C 377.4 17 379.1 18.6 381.2 18.6 C 383.4 18.6 384.9 16.9 384.9 14.1 Z M 397.5 16.6 C 397.5 18.9 395.4 20 393.2 20 C 390.8 20 388.5 18.8 388.3 16.3 C 388.3 16.3 389.9 16.3 389.9 16.3 C 390.2 18 391.7 18.6 393.2 18.6 C 394.6 18.6 395.9 18.1 395.9 16.8 C 395.9 15.5 394.6 15.2 393.3 15 C 391.1 14.6 388.6 14.2 388.6 11.6 C 388.6 9.4 390.5 8.3 392.8 8.3 C 395.2 8.3 397.1 9.4 397.2 11.7 C 397.2 11.7 395.6 11.7 395.6 11.7 C 395.5 10.3 394.2 9.7 392.8 9.7 C 391.2 9.7 390.2 10.4 390.2 11.5 C 390.2 13 391.5 13.2 393.2 13.5 C 395.3 13.8 397.5 14.1 397.5 16.6 Z M 399.3 17.6 L 401.5 17.6 L 401.5 19.8 L 399.3 19.8 L 399.3 17.6 Z " stroke="none" fill="#000"/>  </g></svg>