<?xml version="1.0" standalone="no"?><!DOCTYPE svg PUBLIC "-//W3C//DTD SVG 1.1//EN" "http://www.w3.org/Graphics/SVG/1.1/DTD/svg11.dtd"><svg xmlns="http://www.w3.org/2000/svg" version="1.1" width="456px" height="169.4px" viewBox="0 0 456 169.4">  <desc>Plus de 30% des obligations offrent des rendements negatifs, dans quelles strategies obligataires les clients devraie</desc>  <defs/>  <g id="Polygon9833">    <path d="M 3.2 130.6 L 1.7 130.6 L 1.7 114.6 L 3.2 114.6 L 3.2 130.6 Z M 13.5 128.5 C 12.6 130.2 10.9 130.8 9.5 130.8 C 7.6 130.8 5.8 129.7 5.8 127.5 C 5.8 125.4 7.3 124.4 9.3 124.2 C 9.3 124.2 11.9 123.8 11.9 123.8 C 12.8 123.7 13.5 123.4 13.5 122.4 C 13.5 121.1 12.3 120.4 10.8 120.4 C 9.1 120.4 8 121.2 7.8 122.5 C 7.8 122.5 6.3 122.5 6.3 122.5 C 6.6 120.2 8.4 119.1 10.9 119.1 C 13.4 119.1 15 120.3 15 122.8 C 14.99 122.79 15 130.6 15 130.6 L 13.5 130.6 C 13.5 130.6 13.5 128.52 13.5 128.5 Z M 11.6 125.1 C 11.6 125.1 9.9 125.3 9.9 125.3 C 8.5 125.5 7.4 126 7.4 127.4 C 7.4 128.8 8.5 129.4 9.7 129.4 C 11.5 129.4 13.5 128.1 13.5 125.7 C 13.5 125.7 13.5 124.6 13.5 124.6 C 13 124.9 12.4 125 11.6 125.1 Z M 31.2 134.9 C 31.2 134.9 31.23 128.42 31.2 128.4 C 30.6 129.7 29.2 130.7 27.3 130.7 C 24.8 130.7 22.2 129 22.2 124.8 C 22.2 120.8 24.8 119.1 27.3 119.1 C 29.2 119.1 30.7 120.1 31.3 121.3 C 31.27 121.28 31.3 119.3 31.3 119.3 L 32.8 119.3 L 32.8 134.9 L 31.2 134.9 Z M 31.2 124.9 C 31.2 121.7 29.3 120.5 27.5 120.5 C 25.6 120.5 23.8 121.7 23.8 124.9 C 23.8 128 25.6 129.3 27.5 129.3 C 29.3 129.3 31.2 128 31.2 124.9 Z M 43.4 130.6 C 43.4 130.6 43.43 128.44 43.4 128.4 C 42.7 130 41.3 130.7 39.7 130.7 C 37.5 130.7 35.9 129.4 35.9 126.8 C 35.91 126.76 35.9 119.3 35.9 119.3 L 37.4 119.3 C 37.4 119.3 37.44 126.57 37.4 126.6 C 37.4 128.4 38.5 129.4 39.9 129.4 C 41.7 129.4 43.4 128 43.4 125.1 C 43.36 125.14 43.4 119.3 43.4 119.3 L 44.9 119.3 L 44.9 130.6 L 43.4 130.6 Z M 49 125.3 C 49.1 128.1 50.8 129.4 52.8 129.4 C 54.3 129.4 55.8 128.7 56.1 127.1 C 56.1 127.1 57.5 127.1 57.5 127.1 C 57 129.7 54.9 130.8 52.7 130.8 C 50 130.8 47.5 129 47.5 125 C 47.5 120.9 50.1 119.1 52.8 119.1 C 55.4 119.1 57.6 120.8 57.6 124.6 C 57.62 124.55 57.6 125.3 57.6 125.3 C 57.6 125.3 49.03 125.31 49 125.3 Z M 49.1 124 C 49.1 124 56.1 124 56.1 124 C 56.1 121.7 54.6 120.5 52.7 120.5 C 50.9 120.5 49.3 121.6 49.1 124 Z M 68.6 127.4 C 68.6 129.7 66.5 130.8 64.3 130.8 C 61.9 130.8 59.6 129.6 59.4 127.1 C 59.4 127.1 61 127.1 61 127.1 C 61.3 128.8 62.8 129.4 64.3 129.4 C 65.8 129.4 67 128.9 67 127.6 C 67 126.3 65.7 126 64.4 125.8 C 62.2 125.4 59.7 125 59.7 122.4 C 59.7 120.2 61.6 119.1 63.9 119.1 C 66.3 119.1 68.2 120.2 68.3 122.5 C 68.3 122.5 66.7 122.5 66.7 122.5 C 66.6 121.1 65.3 120.5 63.9 120.5 C 62.3 120.5 61.3 121.2 61.3 122.3 C 61.3 123.8 62.6 124 64.3 124.3 C 66.4 124.6 68.6 124.9 68.6 127.4 Z M 76.3 130.6 C 76.3 130.6 74.63 130.58 74.6 130.6 C 73.1 130.6 71.8 130.1 71.8 127.6 C 71.8 127.62 71.8 120.7 71.8 120.7 L 69.6 120.7 L 69.6 119.3 L 71.8 119.3 L 71.8 116.1 L 73.3 115.7 L 73.3 119.3 L 76.1 119.3 L 76.1 120.7 L 73.3 120.7 C 73.3 120.7 73.33 127.6 73.3 127.6 C 73.3 128.6 73.6 129.2 74.9 129.2 C 74.89 129.2 76.3 129.2 76.3 129.2 L 76.3 130.6 Z M 80.1 114.6 L 78.4 114.6 L 78.4 116.5 L 80.1 116.5 L 80.1 114.6 Z M 80 130.6 L 78.5 130.6 L 78.5 119.3 L 80 119.3 L 80 130.6 Z M 82.7 125 C 82.7 121.3 84.9 119.1 88 119.1 C 91.1 119.1 93.3 121.3 93.3 125 C 93.3 128.6 91.1 130.8 88 130.8 C 84.9 130.8 82.7 128.6 82.7 125 Z M 91.8 124.9 C 91.8 122.1 90.1 120.5 88 120.5 C 85.8 120.5 84.2 122.2 84.2 125 C 84.2 127.8 85.9 129.4 88 129.4 C 90.2 129.4 91.8 127.7 91.8 124.9 Z M 105.1 122.9 C 105.12 122.85 105.1 130.6 105.1 130.6 L 103.6 130.6 C 103.6 130.6 103.59 123.04 103.6 123 C 103.6 121.5 102.7 120.5 101.1 120.5 C 99.2 120.5 97.5 121.9 97.5 124.7 C 97.5 124.66 97.5 130.6 97.5 130.6 L 96 130.6 L 96 119.3 L 97.5 119.3 C 97.5 119.3 97.5 121.4 97.5 121.4 C 98.2 120.1 99.4 119.1 101.4 119.1 C 103.7 119.1 105.1 120.4 105.1 122.9 Z M 113.7 119.5 L 115.9 119.5 L 115.9 121.7 L 113.7 121.7 L 113.7 119.5 Z M 113.7 128.4 L 115.9 128.4 L 115.9 130.6 L 113.7 130.6 L 113.7 128.4 Z " stroke="none" fill="#000"/>  </g>  <g id="Polygon9832">    <path d="M 7.2 105.8 C 4 105.8 0.7 104 0.7 100 C 0.7 100 3.7 100 3.7 100 C 3.8 102.4 5.5 103.3 7.2 103.3 C 8.7 103.3 10.1 102.5 10.1 101.2 C 10.1 99.6 8.3 99.2 6.5 98.8 C 4.2 98.3 1.3 97.5 1.3 94.1 C 1.3 90.8 3.9 89.3 7 89.3 C 9.9 89.3 12.7 90.8 12.7 94 C 12.7 94 9.8 94 9.8 94 C 9.7 92.4 8.3 91.8 6.8 91.8 C 5.3 91.8 4.1 92.5 4.1 93.9 C 4.1 95.4 5.6 95.8 7.4 96.2 C 9.4 96.7 13 97.3 13 101 C 13 104.1 10.3 105.8 7.2 105.8 Z M 15 92.3 L 18 92.3 L 18 89.1 L 15 89.1 L 15 92.3 Z M 15.1 93.8 L 17.9 93.8 L 17.9 105.4 L 15.1 105.4 L 15.1 93.8 Z M 36.9 97.6 C 36.94 97.57 36.9 105.4 36.9 105.4 L 34.1 105.4 C 34.1 105.4 34.15 98.12 34.1 98.1 C 34.1 96.7 33.5 96.1 32.3 96.1 C 31 96.1 30.2 96.9 30.2 98.9 C 30.16 98.87 30.2 105.4 30.2 105.4 L 27.4 105.4 C 27.4 105.4 27.36 98.12 27.4 98.1 C 27.4 96.7 26.7 96.1 25.5 96.1 C 24.2 96.1 23.4 96.9 23.4 98.9 C 23.37 98.85 23.4 105.4 23.4 105.4 L 20.6 105.4 L 20.6 93.8 L 23.3 93.8 C 23.3 93.8 23.33 95.49 23.3 95.5 C 23.7 94.6 24.6 93.6 26.3 93.6 C 27.8 93.6 29 94.3 29.5 95.5 C 30 94.7 30.8 93.6 32.9 93.6 C 35.4 93.6 36.9 95.1 36.9 97.6 Z M 50.1 99.6 C 50.1 103.4 47.7 105.6 44.5 105.6 C 41.2 105.6 38.8 103.4 38.8 99.6 C 38.8 95.8 41.2 93.6 44.5 93.6 C 47.7 93.6 50.1 95.8 50.1 99.6 Z M 41.7 99.6 C 41.7 101.9 43 103 44.5 103 C 46.2 103 47.3 101.8 47.3 99.6 C 47.3 97.3 46 96.2 44.5 96.2 C 42.8 96.2 41.7 97.4 41.7 99.6 Z M 62.3 97.9 C 62.33 97.91 62.3 105.4 62.3 105.4 L 59.5 105.4 C 59.5 105.4 59.53 98.16 59.5 98.2 C 59.5 96.9 58.8 96.1 57.5 96.1 C 55.9 96.1 54.9 97.2 54.9 99.1 C 54.94 99.12 54.9 105.4 54.9 105.4 L 52.1 105.4 L 52.1 93.8 L 54.9 93.8 C 54.9 93.8 54.91 95.47 54.9 95.5 C 55.6 94.4 56.5 93.6 58.4 93.6 C 61.1 93.6 62.3 95.1 62.3 97.9 Z M 81.2 105.4 L 70.8 105.4 L 70.8 89.6 L 73.8 89.6 L 73.8 102.6 L 81.2 102.6 L 81.2 105.4 Z M 93 105.4 L 90.3 105.4 C 90.3 105.4 90.32 103.74 90.3 103.7 C 89.6 104.8 88.6 105.5 87 105.5 C 84.6 105.5 82.8 104 82.8 101 C 82.8 100.99 82.8 93.8 82.8 93.8 L 85.6 93.8 C 85.6 93.8 85.59 100.78 85.6 100.8 C 85.6 102.4 86.4 103 87.6 103 C 89.1 103 90.3 102.1 90.3 99.4 C 90.26 99.4 90.3 93.8 90.3 93.8 L 93 93.8 L 93 105.4 Z M 97.8 100.4 C 97.8 102.3 99.2 103.2 100.7 103.2 C 101.8 103.2 102.9 102.8 103.2 101.7 C 103.2 101.7 105.8 101.7 105.8 101.7 C 105.3 104.3 103 105.6 100.6 105.6 C 97.8 105.6 95 103.7 95 99.6 C 95 95.6 97.7 93.6 100.6 93.6 C 103.4 93.6 105.8 95.4 105.8 99.3 C 105.82 99.29 105.8 100.4 105.8 100.4 C 105.8 100.4 97.75 100.43 97.8 100.4 Z M 97.8 98.4 C 97.8 98.4 103.1 98.4 103.1 98.4 C 103.1 96.9 102 96 100.6 96 C 99.3 96 98.1 96.7 97.8 98.4 Z M 114 97.5 L 107.5 97.5 L 107.5 100 L 114 100 L 114 97.5 Z M 119.5 105.4 L 116.6 105.4 L 116.6 89.6 L 127.2 89.6 L 127.2 92.4 L 119.5 92.4 L 119.5 96 L 126.8 96 L 126.8 98.8 L 119.5 98.8 L 119.5 105.4 Z M 139.1 99.6 C 139.1 103.4 136.7 105.6 133.5 105.6 C 130.2 105.6 127.8 103.4 127.8 99.6 C 127.8 95.8 130.2 93.6 133.5 93.6 C 136.7 93.6 139.1 95.8 139.1 99.6 Z M 130.7 99.6 C 130.7 101.9 131.9 103 133.5 103 C 135.2 103 136.3 101.8 136.3 99.6 C 136.3 97.3 135 96.2 133.4 96.2 C 131.8 96.2 130.7 97.4 130.7 99.6 Z M 151.3 97.9 C 151.3 97.91 151.3 105.4 151.3 105.4 L 148.5 105.4 C 148.5 105.4 148.51 98.16 148.5 98.2 C 148.5 96.9 147.8 96.1 146.5 96.1 C 144.9 96.1 143.9 97.2 143.9 99.1 C 143.91 99.12 143.9 105.4 143.9 105.4 L 141.1 105.4 L 141.1 93.8 L 143.9 93.8 C 143.9 93.8 143.89 95.47 143.9 95.5 C 144.5 94.4 145.5 93.6 147.4 93.6 C 150.1 93.6 151.3 95.1 151.3 97.9 Z M 164.4 104.6 C 164.4 108.3 162 110 158.8 110 C 156 110 153.7 108.6 153.4 105.7 C 153.4 105.7 156.1 105.7 156.1 105.7 C 156.4 107.2 157.5 107.6 158.8 107.6 C 160.6 107.6 161.7 106.7 161.7 104.9 C 161.7 104.9 161.7 103 161.7 103 C 161.2 104.2 160 105 158.3 105 C 155.6 105 153.2 103.2 153.2 99.3 C 153.2 95.4 155.6 93.6 158.3 93.6 C 159.9 93.6 161.1 94.3 161.7 95.4 C 161.68 95.41 161.7 93.8 161.7 93.8 L 164.4 93.8 C 164.4 93.8 164.36 104.6 164.4 104.6 Z M 161.6 99.3 C 161.6 97.1 160.4 96 158.8 96 C 157.3 96 155.9 97.1 155.9 99.3 C 155.9 101.5 157.3 102.5 158.8 102.5 C 160.4 102.5 161.6 101.5 161.6 99.3 Z M 167 94.3 L 169.1 94.3 L 169.1 96.5 L 167 96.5 L 167 94.3 Z M 167 103.2 L 169.1 103.2 L 169.1 105.4 L 167 105.4 L 167 103.2 Z M 178.1 105.4 L 178.1 89.6 L 187.9 89.6 L 187.9 91 L 179.7 91 L 179.7 96.7 L 187.4 96.7 L 187.4 98.1 L 179.7 98.1 L 179.7 103.9 L 188.3 103.9 L 188.3 105.4 L 178.1 105.4 Z M 194.2 99.6 L 190 94.1 L 192 94.1 L 195.1 98.5 L 198.3 94.1 L 200.1 94.1 L 196.1 99.5 L 200.5 105.4 L 198.5 105.4 L 195.1 100.7 L 191.7 105.4 L 189.8 105.4 L 194.2 99.6 Z M 209.6 103.3 C 208.7 105 207 105.6 205.6 105.6 C 203.7 105.6 201.9 104.5 201.9 102.3 C 201.9 100.2 203.4 99.2 205.4 99 C 205.4 99 208 98.6 208 98.6 C 208.9 98.5 209.6 98.2 209.6 97.2 C 209.6 95.9 208.4 95.2 206.9 95.2 C 205.2 95.2 204.1 96 203.9 97.3 C 203.9 97.3 202.4 97.3 202.4 97.3 C 202.7 95 204.5 93.9 207 93.9 C 209.5 93.9 211.1 95.1 211.1 97.6 C 211.09 97.59 211.1 105.4 211.1 105.4 L 209.6 105.4 C 209.6 105.4 209.6 103.32 209.6 103.3 Z M 207.7 99.9 C 207.7 99.9 206 100.1 206 100.1 C 204.6 100.3 203.5 100.8 203.5 102.2 C 203.5 103.6 204.6 104.2 205.8 104.2 C 207.6 104.2 209.6 102.9 209.6 100.5 C 209.6 100.5 209.6 99.4 209.6 99.4 C 209.1 99.7 208.5 99.8 207.7 99.9 Z M 214.2 94.1 L 215.8 94.1 C 215.8 94.1 215.75 95.97 215.8 96 C 216.4 94.6 217.6 93.9 219 93.9 C 220.7 93.9 222 94.8 222.4 96.2 C 222.9 95 224.1 93.9 226.1 93.9 C 228.1 93.9 229.7 95 229.7 97.3 C 229.72 97.3 229.7 105.4 229.7 105.4 L 228.2 105.4 C 228.2 105.4 228.18 97.84 228.2 97.8 C 228.2 96.1 227.1 95.3 225.8 95.3 C 224.1 95.3 222.7 96.6 222.7 98.9 C 222.72 98.93 222.7 105.4 222.7 105.4 L 221.2 105.4 C 221.2 105.4 221.21 97.84 221.2 97.8 C 221.2 96.1 220.2 95.3 218.8 95.3 C 217.2 95.3 215.8 96.5 215.8 98.9 C 215.77 98.93 215.8 105.4 215.8 105.4 L 214.2 105.4 L 214.2 94.1 Z M 234.6 89.4 L 232.9 89.4 L 232.9 91.3 L 234.6 91.3 L 234.6 89.4 Z M 234.5 105.4 L 233 105.4 L 233 94.1 L 234.5 94.1 L 234.5 105.4 Z M 247 97.7 C 247.02 97.65 247 105.4 247 105.4 L 245.5 105.4 C 245.5 105.4 245.49 97.84 245.5 97.8 C 245.5 96.3 244.6 95.3 243 95.3 C 241.1 95.3 239.4 96.7 239.4 99.5 C 239.4 99.46 239.4 105.4 239.4 105.4 L 237.9 105.4 L 237.9 94.1 L 239.4 94.1 C 239.4 94.1 239.4 96.2 239.4 96.2 C 240.1 94.9 241.3 93.9 243.3 93.9 C 245.5 93.9 247 95.2 247 97.7 Z M 249.5 99.8 C 249.5 96.1 251.8 93.9 254.9 93.9 C 258 93.9 260.2 96.1 260.2 99.8 C 260.2 103.4 258 105.6 254.9 105.6 C 251.8 105.6 249.5 103.4 249.5 99.8 Z M 258.7 99.7 C 258.7 96.9 257 95.3 254.9 95.3 C 252.6 95.3 251.1 97 251.1 99.8 C 251.1 102.6 252.8 104.2 254.9 104.2 C 257.1 104.2 258.7 102.5 258.7 99.7 Z M 272 97.7 C 272.01 97.65 272 105.4 272 105.4 L 270.5 105.4 C 270.5 105.4 270.48 97.84 270.5 97.8 C 270.5 96.3 269.6 95.3 268 95.3 C 266.1 95.3 264.4 96.7 264.4 99.5 C 264.39 99.46 264.4 105.4 264.4 105.4 L 262.9 105.4 L 262.9 94.1 L 264.4 94.1 C 264.4 94.1 264.39 96.2 264.4 96.2 C 265.1 94.9 266.3 93.9 268.3 93.9 C 270.5 93.9 272 95.2 272 97.7 Z M 283.6 102.2 C 283.6 104.5 281.6 105.6 279.3 105.6 C 276.9 105.6 274.7 104.4 274.4 101.9 C 274.4 101.9 276.1 101.9 276.1 101.9 C 276.3 103.6 277.8 104.2 279.3 104.2 C 280.8 104.2 282 103.7 282 102.4 C 282 101.1 280.7 100.8 279.4 100.6 C 277.3 100.2 274.7 99.8 274.7 97.2 C 274.7 95 276.6 93.9 278.9 93.9 C 281.3 93.9 283.2 95 283.3 97.3 C 283.3 97.3 281.8 97.3 281.8 97.3 C 281.6 95.9 280.3 95.3 278.9 95.3 C 277.3 95.3 276.3 96 276.3 97.1 C 276.3 98.6 277.7 98.8 279.4 99.1 C 281.4 99.4 283.6 99.7 283.6 102.2 Z M 292.9 105.4 L 291.4 105.4 L 291.4 89.4 L 292.9 89.4 L 292.9 105.4 Z M 297.4 91.6 C 297.4 91.58 296.4 91.6 296.4 91.6 L 296.4 89.5 L 298.6 89.5 C 298.6 89.5 298.62 91.65 298.6 91.6 C 298.6 94.1 297.1 95 295.6 95.2 C 295.6 95.2 295.4 94.2 295.4 94.2 C 297.1 93.9 297.4 92.9 297.4 91.6 Z M 308 103.3 C 307.1 105 305.4 105.6 303.9 105.6 C 302 105.6 300.3 104.5 300.3 102.3 C 300.3 100.2 301.8 99.2 303.7 99 C 303.7 99 306.4 98.6 306.4 98.6 C 307.2 98.5 308 98.2 308 97.2 C 308 95.9 306.8 95.2 305.2 95.2 C 303.5 95.2 302.5 96 302.3 97.3 C 302.3 97.3 300.7 97.3 300.7 97.3 C 301.1 95 302.9 93.9 305.3 93.9 C 307.9 93.9 309.5 95.1 309.5 97.6 C 309.45 97.59 309.5 105.4 309.5 105.4 L 308 105.4 C 308 105.4 307.96 103.32 308 103.3 Z M 306.1 99.9 C 306.1 99.9 304.4 100.1 304.4 100.1 C 302.9 100.3 301.9 100.8 301.9 102.2 C 301.9 103.6 303 104.2 304.2 104.2 C 306 104.2 307.9 102.9 307.9 100.5 C 307.9 100.5 307.9 99.4 307.9 99.4 C 307.5 99.7 306.8 99.8 306.1 99.9 Z M 320 105.4 C 320 105.4 320.01 103.24 320 103.2 C 319.2 104.8 317.9 105.5 316.3 105.5 C 314.1 105.5 312.5 104.2 312.5 101.6 C 312.5 101.56 312.5 94.1 312.5 94.1 L 314 94.1 C 314 94.1 314.03 101.37 314 101.4 C 314 103.2 315 104.2 316.5 104.2 C 318.3 104.2 320 102.8 320 99.9 C 319.95 99.94 320 94.1 320 94.1 L 321.5 94.1 L 321.5 105.4 L 320 105.4 Z M 330 105.4 C 330 105.4 328.33 105.38 328.3 105.4 C 326.8 105.4 325.5 104.9 325.5 102.4 C 325.5 102.42 325.5 95.5 325.5 95.5 L 323.3 95.5 L 323.3 94.1 L 325.5 94.1 L 325.5 90.9 L 327 90.5 L 327 94.1 L 329.8 94.1 L 329.8 95.5 L 327 95.5 C 327 95.5 327.03 102.4 327 102.4 C 327 103.4 327.3 104 328.6 104 C 328.58 104 330 104 330 104 L 330 105.4 Z M 337.8 95.4 C 337.8 95.4 337.47 95.43 337.5 95.4 C 335.1 95.4 333.7 96.8 333.7 99.4 C 333.73 99.4 333.7 105.4 333.7 105.4 L 332.2 105.4 L 332.2 94.1 L 333.7 94.1 C 333.7 94.1 333.71 96.18 333.7 96.2 C 334.2 94.7 335.6 94 337.3 94 C 337.34 93.98 337.8 94 337.8 94 L 337.8 95.4 Z M 340.4 100.1 C 340.4 102.9 342.1 104.2 344.1 104.2 C 345.6 104.2 347.1 103.5 347.4 101.9 C 347.4 101.9 348.9 101.9 348.9 101.9 C 348.4 104.5 346.2 105.6 344.1 105.6 C 341.4 105.6 338.9 103.8 338.9 99.8 C 338.9 95.7 341.4 93.9 344.1 93.9 C 346.8 93.9 349 95.6 349 99.4 C 348.97 99.35 349 100.1 349 100.1 C 349 100.1 340.38 100.11 340.4 100.1 Z M 340.4 98.8 C 340.4 98.8 347.4 98.8 347.4 98.8 C 347.4 96.5 345.9 95.3 344.1 95.3 C 342.3 95.3 340.6 96.4 340.4 98.8 Z M 363.8 103.3 C 362.9 105 361.2 105.6 359.8 105.6 C 357.8 105.6 356.1 104.5 356.1 102.3 C 356.1 100.2 357.6 99.2 359.5 99 C 359.5 99 362.2 98.6 362.2 98.6 C 363 98.5 363.8 98.2 363.8 97.2 C 363.8 95.9 362.6 95.2 361 95.2 C 359.3 95.2 358.3 96 358.1 97.3 C 358.1 97.3 356.6 97.3 356.6 97.3 C 356.9 95 358.7 93.9 361.2 93.9 C 363.7 93.9 365.3 95.1 365.3 97.6 C 365.27 97.59 365.3 105.4 365.3 105.4 L 363.8 105.4 C 363.8 105.4 363.78 103.32 363.8 103.3 Z M 361.9 99.9 C 361.9 99.9 360.2 100.1 360.2 100.1 C 358.8 100.3 357.7 100.8 357.7 102.2 C 357.7 103.6 358.8 104.2 360 104.2 C 361.8 104.2 363.7 102.9 363.7 100.5 C 363.7 100.5 363.7 99.4 363.7 99.4 C 363.3 99.7 362.7 99.8 361.9 99.9 Z M 376.8 102.2 C 376.8 104.5 374.7 105.6 372.5 105.6 C 370 105.6 367.8 104.4 367.6 101.9 C 367.6 101.9 369.2 101.9 369.2 101.9 C 369.5 103.6 370.9 104.2 372.5 104.2 C 373.9 104.2 375.2 103.7 375.2 102.4 C 375.2 101.1 373.9 100.8 372.6 100.6 C 370.4 100.2 367.9 99.8 367.9 97.2 C 367.9 95 369.8 93.9 372.1 93.9 C 374.5 93.9 376.4 95 376.5 97.3 C 376.5 97.3 374.9 97.3 374.9 97.3 C 374.8 95.9 373.5 95.3 372 95.3 C 370.5 95.3 369.4 96 369.4 97.1 C 369.4 98.6 370.8 98.8 372.5 99.1 C 374.6 99.4 376.8 99.7 376.8 102.2 Z M 389.8 99.7 C 389.8 103.8 387.3 105.5 384.7 105.5 C 382.7 105.5 381.5 104.6 380.9 103.4 C 380.85 103.43 380.9 109.7 380.9 109.7 L 379.3 109.7 L 379.3 94.1 L 380.8 94.1 C 380.8 94.1 380.81 96.48 380.8 96.5 C 381.3 95.1 382.8 93.9 384.8 93.9 C 387.3 93.9 389.8 95.6 389.8 99.7 Z M 388.3 99.7 C 388.3 96.6 386.5 95.4 384.6 95.4 C 382.7 95.4 380.9 96.6 380.9 99.8 C 380.9 102.9 382.7 104.1 384.6 104.1 C 386.4 104.1 388.3 102.9 388.3 99.7 Z M 393.2 100.1 C 393.3 102.9 395 104.2 397 104.2 C 398.5 104.2 400 103.5 400.3 101.9 C 400.3 101.9 401.7 101.9 401.7 101.9 C 401.2 104.5 399.1 105.6 396.9 105.6 C 394.2 105.6 391.7 103.8 391.7 99.8 C 391.7 95.7 394.3 93.9 397 93.9 C 399.6 93.9 401.8 95.6 401.8 99.4 C 401.83 99.35 401.8 100.1 401.8 100.1 C 401.8 100.1 393.24 100.11 393.2 100.1 Z M 393.3 98.8 C 393.3 98.8 400.3 98.8 400.3 98.8 C 400.3 96.5 398.8 95.3 396.9 95.3 C 395.2 95.3 393.5 96.4 393.3 98.8 Z M 408.9 105.6 C 405.8 105.6 403.7 103.3 403.7 99.8 C 403.7 96.2 405.8 93.9 409.1 93.9 C 411.6 93.9 413.6 95.3 413.7 97.8 C 413.7 97.8 412.2 97.8 412.2 97.8 C 412.1 96.2 410.7 95.3 409.1 95.3 C 406.8 95.3 405.3 97 405.3 99.7 C 405.3 102.5 406.8 104.2 409 104.2 C 410.7 104.2 412.1 103.2 412.2 101.4 C 412.2 101.4 413.7 101.4 413.7 101.4 C 413.6 104.1 411.4 105.6 408.9 105.6 Z M 421.5 105.4 C 421.5 105.4 419.85 105.38 419.8 105.4 C 418.4 105.4 417 104.9 417 102.4 C 417.01 102.42 417 95.5 417 95.5 L 414.8 95.5 L 414.8 94.1 L 417 94.1 L 417 90.9 L 418.5 90.5 L 418.5 94.1 L 421.3 94.1 L 421.3 95.5 L 418.5 95.5 C 418.5 95.5 418.55 102.4 418.5 102.4 C 418.5 103.4 418.8 104 420.1 104 C 420.1 104 421.5 104 421.5 104 L 421.5 105.4 Z M 438.6 105.4 L 437.1 105.4 C 437.1 105.4 437.09 103.2 437.1 103.2 C 436.5 104.5 435.2 105.6 433.1 105.6 C 430.1 105.6 428 103.3 428 99.7 C 428 96.2 430.1 93.9 433.1 93.9 C 435 93.9 436.4 94.8 437 96 C 437.03 96.02 437 89.4 437 89.4 L 438.6 89.4 L 438.6 105.4 Z M 437 99.7 C 437 96.9 435.5 95.3 433.3 95.3 C 431.1 95.3 429.6 97 429.6 99.7 C 429.6 102.5 431.1 104.2 433.3 104.2 C 435.5 104.2 437 102.5 437 99.7 Z M 442.7 100.1 C 442.7 102.9 444.5 104.2 446.5 104.2 C 447.9 104.2 449.4 103.5 449.8 101.9 C 449.8 101.9 451.2 101.9 451.2 101.9 C 450.7 104.5 448.5 105.6 446.4 105.6 C 443.7 105.6 441.2 103.8 441.2 99.8 C 441.2 95.7 443.7 93.9 446.4 93.9 C 449.1 93.9 451.3 95.6 451.3 99.4 C 451.28 99.35 451.3 100.1 451.3 100.1 C 451.3 100.1 442.7 100.11 442.7 100.1 Z M 442.7 98.8 C 442.7 98.8 449.7 98.8 449.7 98.8 C 449.7 96.5 448.3 95.3 446.4 95.3 C 444.6 95.3 442.9 96.4 442.7 98.8 Z " stroke="none" fill="#000"/>  </g>  <g id="Polygon9831">    <path d="M 11.9 64.4 C 11.9 68.2 9.5 70.4 6.3 70.4 C 3 70.4 0.6 68.2 0.6 64.4 C 0.6 60.6 3 58.4 6.3 58.4 C 9.5 58.4 11.9 60.6 11.9 64.4 Z M 3.5 64.4 C 3.5 66.7 4.8 67.8 6.3 67.8 C 8 67.8 9.1 66.6 9.1 64.4 C 9.1 62.1 7.8 61 6.3 61 C 4.6 61 3.5 62.2 3.5 64.4 Z M 25.3 64.4 C 25.3 68.5 22.8 70.4 20.1 70.4 C 18.6 70.4 17.4 69.9 16.7 68.8 C 16.67 68.8 16.7 70.2 16.7 70.2 L 13.9 70.2 L 13.9 54.2 L 16.7 54.2 C 16.7 54.2 16.74 60.29 16.7 60.3 C 17.4 59.1 18.7 58.4 20.3 58.4 C 23 58.4 25.3 60.4 25.3 64.4 Z M 22.5 64.4 C 22.5 62.1 21.1 60.9 19.6 60.9 C 18.1 60.9 16.7 62.1 16.7 64.4 C 16.7 66.8 18.1 68 19.6 68 C 21.1 68 22.5 66.8 22.5 64.4 Z M 30.1 70.2 L 27.3 70.2 L 27.3 54.2 L 30.1 54.2 L 30.1 70.2 Z M 32.7 57.1 L 35.7 57.1 L 35.7 53.9 L 32.7 53.9 L 32.7 57.1 Z M 32.8 58.6 L 35.6 58.6 L 35.6 70.2 L 32.8 70.2 L 32.8 58.6 Z M 48.8 69.4 C 48.8 73.1 46.4 74.8 43.2 74.8 C 40.4 74.8 38.1 73.4 37.8 70.5 C 37.8 70.5 40.5 70.5 40.5 70.5 C 40.8 72 41.9 72.4 43.2 72.4 C 45 72.4 46.1 71.5 46.1 69.7 C 46.1 69.7 46.1 67.8 46.1 67.8 C 45.5 69 44.4 69.8 42.7 69.8 C 40 69.8 37.6 68 37.6 64.1 C 37.6 60.2 40 58.4 42.7 58.4 C 44.3 58.4 45.5 59.1 46.1 60.2 C 46.07 60.21 46.1 58.6 46.1 58.6 L 48.8 58.6 C 48.8 58.6 48.76 69.4 48.8 69.4 Z M 46 64.1 C 46 61.9 44.8 60.8 43.2 60.8 C 41.7 60.8 40.3 61.9 40.3 64.1 C 40.3 66.3 41.7 67.3 43.2 67.3 C 44.8 67.3 46 66.3 46 64.1 Z M 60.6 62.4 C 60.65 62.39 60.6 70.2 60.6 70.2 L 57.9 70.2 C 57.9 70.2 57.92 68.5 57.9 68.5 C 57 70 55.6 70.4 54.4 70.4 C 52.6 70.4 50.7 69.3 50.7 66.8 C 50.7 65 51.7 63.8 54.3 63.4 C 54.3 63.4 56.8 63 56.8 63 C 57.5 62.9 58 62.7 58 62 C 58 61 57.2 60.6 56.1 60.6 C 54.6 60.6 53.9 61.3 53.8 62.3 C 53.8 62.3 51.1 62.3 51.1 62.3 C 51.4 59.6 53.6 58.4 56.2 58.4 C 58.9 58.4 60.6 59.7 60.6 62.4 Z M 57.9 65.3 C 57.9 65.3 57.9 64.7 57.9 64.7 C 57.7 64.8 57.1 65 56.6 65 C 56.6 65 55.3 65.2 55.3 65.2 C 53.9 65.4 53.4 66 53.4 66.7 C 53.4 67.6 54.1 68.1 55.1 68.1 C 56.5 68.1 57.9 67 57.9 65.3 Z M 69.1 70.2 C 69.1 70.2 67.26 70.18 67.3 70.2 C 65.1 70.2 63.7 69.5 63.7 66.4 C 63.71 66.4 63.7 61.1 63.7 61.1 L 61.6 61.1 L 61.6 58.6 L 63.7 58.6 L 63.7 56 L 66.5 55.2 L 66.5 58.6 L 68.8 58.6 L 68.8 61.1 L 66.5 61.1 C 66.5 61.1 66.51 66.53 66.5 66.5 C 66.5 67.2 66.7 67.7 67.7 67.7 C 67.68 67.7 69.1 67.7 69.1 67.7 L 69.1 70.2 Z M 79.9 62.4 C 79.92 62.39 79.9 70.2 79.9 70.2 L 77.2 70.2 C 77.2 70.2 77.19 68.5 77.2 68.5 C 76.3 70 74.9 70.4 73.7 70.4 C 71.8 70.4 69.9 69.3 69.9 66.8 C 69.9 65 71 63.8 73.6 63.4 C 73.6 63.4 76.1 63 76.1 63 C 76.8 62.9 77.3 62.7 77.3 62 C 77.3 61 76.5 60.6 75.3 60.6 C 73.9 60.6 73.2 61.3 73.1 62.3 C 73.1 62.3 70.4 62.3 70.4 62.3 C 70.7 59.6 72.8 58.4 75.5 58.4 C 78.2 58.4 79.9 59.7 79.9 62.4 Z M 77.2 65.3 C 77.2 65.3 77.2 64.7 77.2 64.7 C 76.9 64.8 76.4 65 75.9 65 C 75.9 65 74.6 65.2 74.6 65.2 C 73.2 65.4 72.7 66 72.7 66.7 C 72.7 67.6 73.4 68.1 74.3 68.1 C 75.8 68.1 77.2 67 77.2 65.3 Z M 82.3 57.1 L 85.3 57.1 L 85.3 53.9 L 82.3 53.9 L 82.3 57.1 Z M 82.4 58.6 L 85.2 58.6 L 85.2 70.2 L 82.4 70.2 L 82.4 58.6 Z M 94.5 61.2 C 94.5 61.2 93.74 61.17 93.7 61.2 C 91.8 61.2 90.7 62.2 90.7 64.5 C 90.72 64.51 90.7 70.2 90.7 70.2 L 87.9 70.2 L 87.9 58.6 L 90.7 58.6 C 90.7 58.6 90.7 60.25 90.7 60.2 C 91.3 59 92.4 58.5 93.7 58.5 C 93.72 58.46 94.5 58.5 94.5 58.5 L 94.5 61.2 Z M 97.6 65.2 C 97.7 67.1 99 68 100.6 68 C 101.7 68 102.7 67.6 103.1 66.5 C 103.1 66.5 105.6 66.5 105.6 66.5 C 105.1 69.1 102.8 70.4 100.5 70.4 C 97.7 70.4 94.9 68.5 94.9 64.4 C 94.9 60.4 97.5 58.4 100.5 58.4 C 103.3 58.4 105.7 60.2 105.7 64.1 C 105.67 64.09 105.7 65.2 105.7 65.2 C 105.7 65.2 97.61 65.23 97.6 65.2 Z M 97.7 63.2 C 97.7 63.2 102.9 63.2 102.9 63.2 C 102.9 61.7 101.9 60.8 100.4 60.8 C 99.2 60.8 97.9 61.5 97.7 63.2 Z M 116.9 66.6 C 116.9 69.2 114.6 70.4 112 70.4 C 109.6 70.4 107 69.4 106.8 66.5 C 106.8 66.5 109.6 66.5 109.6 66.5 C 109.8 67.6 110.9 68.1 112.2 68.1 C 113.3 68.1 114.2 67.7 114.2 66.9 C 114.2 66.1 113.6 66 112 65.7 C 109.8 65.3 107.2 64.9 107.2 62.1 C 107.2 59.5 109.4 58.4 111.8 58.4 C 114.5 58.4 116.5 59.7 116.7 62.3 C 116.7 62.3 113.9 62.3 113.9 62.3 C 113.8 61.2 113 60.7 111.8 60.7 C 110.4 60.7 109.9 61.3 109.9 62 C 109.9 62.9 110.9 63.1 112.3 63.3 C 114.4 63.6 116.9 63.9 116.9 66.6 Z M 126.9 70.2 L 124.1 70.2 L 124.1 54.2 L 126.9 54.2 L 126.9 70.2 Z M 131.6 65.2 C 131.6 67.1 133 68 134.5 68 C 135.6 68 136.7 67.6 137 66.5 C 137 66.5 139.6 66.5 139.6 66.5 C 139.1 69.1 136.8 70.4 134.4 70.4 C 131.6 70.4 128.9 68.5 128.9 64.4 C 128.9 60.4 131.5 58.4 134.4 58.4 C 137.3 58.4 139.6 60.2 139.6 64.1 C 139.63 64.09 139.6 65.2 139.6 65.2 C 139.6 65.2 131.56 65.23 131.6 65.2 Z M 131.6 63.2 C 131.6 63.2 136.9 63.2 136.9 63.2 C 136.9 61.7 135.8 60.8 134.4 60.8 C 133.1 60.8 131.9 61.5 131.6 63.2 Z M 150.9 66.6 C 150.9 69.2 148.6 70.4 146 70.4 C 143.6 70.4 141 69.4 140.8 66.5 C 140.8 66.5 143.6 66.5 143.6 66.5 C 143.8 67.6 144.8 68.1 146.1 68.1 C 147.3 68.1 148.1 67.7 148.1 66.9 C 148.1 66.1 147.6 66 146 65.7 C 143.7 65.3 141.1 64.9 141.1 62.1 C 141.1 59.5 143.3 58.4 145.7 58.4 C 148.4 58.4 150.4 59.7 150.6 62.3 C 150.6 62.3 147.9 62.3 147.9 62.3 C 147.8 61.2 147 60.7 145.8 60.7 C 144.4 60.7 143.8 61.3 143.8 62 C 143.8 62.9 144.9 63.1 146.3 63.3 C 148.4 63.6 150.9 63.9 150.9 66.6 Z M 162.5 70.4 C 158.7 70.4 156.9 67.5 156.9 64.4 C 156.9 61.3 158.7 58.4 162.5 58.4 C 165.3 58.4 167.5 60 167.6 62.8 C 167.6 62.8 164.9 62.8 164.9 62.8 C 164.7 61.7 163.9 60.9 162.6 60.9 C 160.5 60.9 159.7 62.6 159.7 64.4 C 159.7 66.3 160.6 67.8 162.5 67.8 C 163.9 67.8 164.7 67.1 164.9 66.1 C 164.9 66.1 167.7 66.1 167.7 66.1 C 167.3 68.9 165.3 70.4 162.5 70.4 Z M 172.5 70.2 L 169.7 70.2 L 169.7 54.2 L 172.5 54.2 L 172.5 70.2 Z M 175.1 57.1 L 178.1 57.1 L 178.1 53.9 L 175.1 53.9 L 175.1 57.1 Z M 175.2 58.6 L 178 58.6 L 178 70.2 L 175.2 70.2 L 175.2 58.6 Z M 182.7 65.2 C 182.7 67.1 184.1 68 185.6 68 C 186.7 68 187.8 67.6 188.1 66.5 C 188.1 66.5 190.7 66.5 190.7 66.5 C 190.2 69.1 187.9 70.4 185.5 70.4 C 182.7 70.4 179.9 68.5 179.9 64.4 C 179.9 60.4 182.6 58.4 185.5 58.4 C 188.3 58.4 190.7 60.2 190.7 64.1 C 190.72 64.09 190.7 65.2 190.7 65.2 C 190.7 65.2 182.66 65.23 182.7 65.2 Z M 182.7 63.2 C 182.7 63.2 188 63.2 188 63.2 C 188 61.7 186.9 60.8 185.5 60.8 C 184.2 60.8 183 61.5 182.7 63.2 Z M 202.9 62.7 C 202.9 62.71 202.9 70.2 202.9 70.2 L 200.1 70.2 C 200.1 70.2 200.11 62.96 200.1 63 C 200.1 61.7 199.4 60.9 198.1 60.9 C 196.5 60.9 195.5 62 195.5 63.9 C 195.51 63.92 195.5 70.2 195.5 70.2 L 192.7 70.2 L 192.7 58.6 L 195.5 58.6 C 195.5 58.6 195.49 60.27 195.5 60.3 C 196.1 59.2 197.1 58.4 199 58.4 C 201.7 58.4 202.9 59.9 202.9 62.7 Z M 211.4 70.2 C 211.4 70.2 209.62 70.18 209.6 70.2 C 207.5 70.2 206.1 69.5 206.1 66.4 C 206.07 66.4 206.1 61.1 206.1 61.1 L 203.9 61.1 L 203.9 58.6 L 206.1 58.6 L 206.1 56 L 208.9 55.2 L 208.9 58.6 L 211.2 58.6 L 211.2 61.1 L 208.9 61.1 C 208.9 61.1 208.86 66.53 208.9 66.5 C 208.9 67.2 209.1 67.7 210 67.7 C 210.04 67.7 211.4 67.7 211.4 67.7 L 211.4 70.2 Z M 222.3 66.6 C 222.3 69.2 220 70.4 217.4 70.4 C 215 70.4 212.4 69.4 212.2 66.5 C 212.2 66.5 215 66.5 215 66.5 C 215.2 67.6 216.2 68.1 217.5 68.1 C 218.7 68.1 219.5 67.7 219.5 66.9 C 219.5 66.1 219 66 217.4 65.7 C 215.1 65.3 212.5 64.9 212.5 62.1 C 212.5 59.5 214.7 58.4 217.1 58.4 C 219.8 58.4 221.8 59.7 222 62.3 C 222 62.3 219.3 62.3 219.3 62.3 C 219.2 61.2 218.4 60.7 217.2 60.7 C 215.8 60.7 215.2 61.3 215.2 62 C 215.2 62.9 216.3 63.1 217.7 63.3 C 219.8 63.6 222.3 63.9 222.3 66.6 Z M 239.6 70.2 L 236.9 70.2 C 236.9 70.2 236.92 68.4 236.9 68.4 C 236.3 69.7 234.9 70.4 233.3 70.4 C 230.6 70.4 228.3 68.4 228.3 64.4 C 228.3 60.4 230.6 58.4 233.3 58.4 C 234.9 58.4 236.2 59 236.9 60.1 C 236.86 60.12 236.9 54.2 236.9 54.2 L 239.6 54.2 L 239.6 70.2 Z M 236.9 64.4 C 236.9 62 235.5 60.9 234 60.9 C 232.5 60.9 231.1 62 231.1 64.4 C 231.1 66.7 232.5 67.9 234 67.9 C 235.5 67.9 236.9 66.7 236.9 64.4 Z M 244.4 65.2 C 244.4 67.1 245.8 68 247.3 68 C 248.4 68 249.5 67.6 249.8 66.5 C 249.8 66.5 252.4 66.5 252.4 66.5 C 251.9 69.1 249.6 70.4 247.2 70.4 C 244.4 70.4 241.6 68.5 241.6 64.4 C 241.6 60.4 244.3 58.4 247.2 58.4 C 250 58.4 252.4 60.2 252.4 64.1 C 252.42 64.09 252.4 65.2 252.4 65.2 C 252.4 65.2 244.35 65.23 244.4 65.2 Z M 244.4 63.2 C 244.4 63.2 249.7 63.2 249.7 63.2 C 249.7 61.7 248.6 60.8 247.2 60.8 C 245.9 60.8 244.7 61.5 244.4 63.2 Z M 260.3 70.2 L 257.3 70.2 L 253 58.6 L 256 58.6 L 258.8 66.9 L 261.7 58.6 L 264.6 58.6 L 260.3 70.2 Z M 272.5 61.2 C 272.5 61.2 271.78 61.17 271.8 61.2 C 269.8 61.2 268.8 62.2 268.8 64.5 C 268.75 64.51 268.8 70.2 268.8 70.2 L 266 70.2 L 266 58.6 L 268.7 58.6 C 268.7 58.6 268.73 60.25 268.7 60.2 C 269.3 59 270.4 58.5 271.8 58.5 C 271.76 58.46 272.5 58.5 272.5 58.5 L 272.5 61.2 Z M 283.1 62.4 C 283.14 62.39 283.1 70.2 283.1 70.2 L 280.4 70.2 C 280.4 70.2 280.41 68.5 280.4 68.5 C 279.5 70 278.1 70.4 276.9 70.4 C 275.1 70.4 273.1 69.3 273.1 66.8 C 273.1 65 274.2 63.8 276.8 63.4 C 276.8 63.4 279.3 63 279.3 63 C 280 62.9 280.5 62.7 280.5 62 C 280.5 61 279.7 60.6 278.6 60.6 C 277.1 60.6 276.4 61.3 276.3 62.3 C 276.3 62.3 273.6 62.3 273.6 62.3 C 273.9 59.6 276.1 58.4 278.7 58.4 C 281.4 58.4 283.1 59.7 283.1 62.4 Z M 280.4 65.3 C 280.4 65.3 280.4 64.7 280.4 64.7 C 280.2 64.8 279.6 65 279.1 65 C 279.1 65 277.8 65.2 277.8 65.2 C 276.4 65.4 275.9 66 275.9 66.7 C 275.9 67.6 276.6 68.1 277.6 68.1 C 279 68.1 280.4 67 280.4 65.3 Z M 285.6 57.1 L 288.5 57.1 L 288.5 53.9 L 285.6 53.9 L 285.6 57.1 Z M 285.6 58.6 L 288.4 58.6 L 288.4 70.2 L 285.6 70.2 L 285.6 58.6 Z M 293.1 65.2 C 293.2 67.1 294.5 68 296.1 68 C 297.2 68 298.2 67.6 298.6 66.5 C 298.6 66.5 301.1 66.5 301.1 66.5 C 300.6 69.1 298.3 70.4 296 70.4 C 293.2 70.4 290.4 68.5 290.4 64.4 C 290.4 60.4 293 58.4 296 58.4 C 298.8 58.4 301.2 60.2 301.2 64.1 C 301.18 64.09 301.2 65.2 301.2 65.2 C 301.2 65.2 293.11 65.23 293.1 65.2 Z M 293.2 63.2 C 293.2 63.2 298.4 63.2 298.4 63.2 C 298.4 61.7 297.4 60.8 295.9 60.8 C 294.7 60.8 293.4 61.5 293.2 63.2 Z M 313.4 62.7 C 313.36 62.71 313.4 70.2 313.4 70.2 L 310.6 70.2 C 310.6 70.2 310.56 62.96 310.6 63 C 310.6 61.7 309.8 60.9 308.5 60.9 C 306.9 60.9 306 62 306 63.9 C 305.97 63.92 306 70.2 306 70.2 L 303.2 70.2 L 303.2 58.6 L 305.9 58.6 C 305.9 58.6 305.94 60.27 305.9 60.3 C 306.6 59.2 307.5 58.4 309.5 58.4 C 312.1 58.4 313.4 59.9 313.4 62.7 Z M 321.9 70.2 C 321.9 70.2 320.08 70.18 320.1 70.2 C 317.9 70.2 316.5 69.5 316.5 66.4 C 316.53 66.4 316.5 61.1 316.5 61.1 L 314.4 61.1 L 314.4 58.6 L 316.5 58.6 L 316.5 56 L 319.3 55.2 L 319.3 58.6 L 321.6 58.6 L 321.6 61.1 L 319.3 61.1 C 319.3 61.1 319.32 66.53 319.3 66.5 C 319.3 67.2 319.5 67.7 320.5 67.7 C 320.5 67.7 321.9 67.7 321.9 67.7 L 321.9 70.2 Z M 329.6 62.3 L 323.2 62.3 L 323.2 64.8 L 329.6 64.8 L 329.6 62.3 Z M 331.9 57.1 L 334.9 57.1 L 334.9 53.9 L 331.9 53.9 L 331.9 57.1 Z M 332 58.6 L 334.8 58.6 L 334.8 70.2 L 332 70.2 L 332 58.6 Z M 340.3 70.2 L 337.5 70.2 L 337.5 54.2 L 340.3 54.2 L 340.3 70.2 Z M 352.3 66.6 C 352.3 69.2 350 70.4 347.4 70.4 C 345 70.4 342.4 69.4 342.2 66.5 C 342.2 66.5 345 66.5 345 66.5 C 345.2 67.6 346.2 68.1 347.5 68.1 C 348.7 68.1 349.6 67.7 349.6 66.9 C 349.6 66.1 349 66 347.4 65.7 C 345.2 65.3 342.6 64.9 342.6 62.1 C 342.6 59.5 344.8 58.4 347.2 58.4 C 349.9 58.4 351.9 59.7 352 62.3 C 352 62.3 349.3 62.3 349.3 62.3 C 349.2 61.2 348.4 60.7 347.2 60.7 C 345.8 60.7 345.3 61.3 345.3 62 C 345.3 62.9 346.3 63.1 347.7 63.3 C 349.8 63.6 352.3 63.9 352.3 66.6 Z M 359.3 57.1 L 362.3 57.1 L 362.3 53.9 L 359.3 53.9 L 359.3 57.1 Z M 359.4 58.6 L 362.2 58.6 L 362.2 70.2 L 359.4 70.2 L 359.4 58.6 Z M 375.1 62.7 C 375.12 62.71 375.1 70.2 375.1 70.2 L 372.3 70.2 C 372.3 70.2 372.32 62.96 372.3 63 C 372.3 61.7 371.6 60.9 370.3 60.9 C 368.7 60.9 367.7 62 367.7 63.9 C 367.72 63.92 367.7 70.2 367.7 70.2 L 364.9 70.2 L 364.9 58.6 L 367.7 58.6 C 367.7 58.6 367.7 60.27 367.7 60.3 C 368.4 59.2 369.3 58.4 371.2 58.4 C 373.9 58.4 375.1 59.9 375.1 62.7 Z M 383.6 70.2 L 380.7 70.2 L 376.4 58.6 L 379.3 58.6 L 382.2 66.9 L 385 58.6 L 387.9 58.6 L 383.6 70.2 Z M 391.1 65.2 C 391.1 67.1 392.5 68 394 68 C 395.1 68 396.2 67.6 396.5 66.5 C 396.5 66.5 399.1 66.5 399.1 66.5 C 398.6 69.1 396.3 70.4 393.9 70.4 C 391.1 70.4 388.3 68.5 388.3 64.4 C 388.3 60.4 391 58.4 393.9 58.4 C 396.7 58.4 399.1 60.2 399.1 64.1 C 399.12 64.09 399.1 65.2 399.1 65.2 C 399.1 65.2 391.06 65.23 391.1 65.2 Z M 391.1 63.2 C 391.1 63.2 396.4 63.2 396.4 63.2 C 396.4 61.7 395.3 60.8 393.9 60.8 C 392.6 60.8 391.4 61.5 391.1 63.2 Z M 410.4 66.6 C 410.4 69.2 408.1 70.4 405.5 70.4 C 403.1 70.4 400.5 69.4 400.3 66.5 C 400.3 66.5 403.1 66.5 403.1 66.5 C 403.3 67.6 404.3 68.1 405.6 68.1 C 406.8 68.1 407.6 67.7 407.6 66.9 C 407.6 66.1 407.1 66 405.5 65.7 C 403.2 65.3 400.6 64.9 400.6 62.1 C 400.6 59.5 402.8 58.4 405.2 58.4 C 407.9 58.4 409.9 59.7 410.1 62.3 C 410.1 62.3 407.4 62.3 407.4 62.3 C 407.3 61.2 406.4 60.7 405.3 60.7 C 403.9 60.7 403.3 61.3 403.3 62 C 403.3 62.9 404.4 63.1 405.8 63.3 C 407.9 63.6 410.4 63.9 410.4 66.6 Z M 418.2 70.2 C 418.2 70.2 416.36 70.18 416.4 70.2 C 414.2 70.2 412.8 69.5 412.8 66.4 C 412.81 66.4 412.8 61.1 412.8 61.1 L 410.7 61.1 L 410.7 58.6 L 412.8 58.6 L 412.8 56 L 415.6 55.2 L 415.6 58.6 L 417.9 58.6 L 417.9 61.1 L 415.6 61.1 C 415.6 61.1 415.6 66.53 415.6 66.5 C 415.6 67.2 415.8 67.7 416.8 67.7 C 416.78 67.7 418.2 67.7 418.2 67.7 L 418.2 70.2 Z M 419.7 57.1 L 422.6 57.1 L 422.6 53.9 L 419.7 53.9 L 419.7 57.1 Z M 419.7 58.6 L 422.5 58.6 L 422.5 70.2 L 419.7 70.2 L 419.7 58.6 Z M 431.8 61.2 C 431.8 61.2 431.06 61.17 431.1 61.2 C 429.1 61.2 428 62.2 428 64.5 C 428.04 64.51 428 70.2 428 70.2 L 425.2 70.2 L 425.2 58.6 L 428 58.6 C 428 58.6 428.01 60.25 428 60.2 C 428.6 59 429.7 58.5 431 58.5 C 431.04 58.46 431.8 58.5 431.8 58.5 L 431.8 61.2 Z M 435.9 64.6 C 435.9 61.9 437.3 61.4 438.5 60.5 C 439.5 59.8 440 59.2 440 58.4 C 440 57.2 439.1 56.6 437.9 56.6 C 436.5 56.6 435.6 57.4 435.5 58.8 C 435.5 58.8 432.6 58.8 432.6 58.8 C 432.9 55.4 435.4 54.2 438 54.2 C 440.7 54.2 442.9 55.5 442.9 58.3 C 442.9 60.5 441.6 61.4 440.2 62.4 C 439.1 63.2 438.6 63.7 438.6 64.6 C 438.6 64.64 438.6 65.3 438.6 65.3 L 435.9 65.3 C 435.9 65.3 435.93 64.55 435.9 64.6 Z M 435.7 66.9 L 438.9 66.9 L 438.9 70.2 L 435.7 70.2 L 435.7 66.9 Z " stroke="none" fill="#000"/>  </g>  <g id="Polygon9830">    <path d="M 7.9 36 C 7.9 36 7.18 35.97 7.2 36 C 5.2 36 4.2 37 4.2 39.3 C 4.16 39.31 4.2 45 4.2 45 L 1.4 45 L 1.4 33.4 L 4.1 33.4 C 4.1 33.4 4.14 35.05 4.1 35 C 4.7 33.8 5.8 33.3 7.2 33.3 C 7.16 33.26 7.9 33.3 7.9 33.3 L 7.9 36 Z M 11 40 C 11.1 41.9 12.5 42.8 14 42.8 C 15.1 42.8 16.2 42.4 16.5 41.3 C 16.5 41.3 19.1 41.3 19.1 41.3 C 18.6 43.9 16.3 45.2 13.9 45.2 C 11.1 45.2 8.3 43.3 8.3 39.2 C 8.3 35.2 11 33.2 13.9 33.2 C 16.7 33.2 19.1 35 19.1 38.9 C 19.11 38.89 19.1 40 19.1 40 C 19.1 40 11.05 40.03 11 40 Z M 11.1 38 C 11.1 38 16.4 38 16.4 38 C 16.4 36.5 15.3 35.6 13.9 35.6 C 12.6 35.6 11.4 36.3 11.1 38 Z M 31.3 37.5 C 31.29 37.51 31.3 45 31.3 45 L 28.5 45 C 28.5 45 28.5 37.76 28.5 37.8 C 28.5 36.5 27.8 35.7 26.5 35.7 C 24.9 35.7 23.9 36.8 23.9 38.7 C 23.9 38.72 23.9 45 23.9 45 L 21.1 45 L 21.1 33.4 L 23.9 33.4 C 23.9 33.4 23.88 35.07 23.9 35.1 C 24.5 34 25.5 33.2 27.4 33.2 C 30.1 33.2 31.3 34.7 31.3 37.5 Z M 44.6 45 L 41.8 45 C 41.8 45 41.83 43.2 41.8 43.2 C 41.2 44.5 39.9 45.2 38.3 45.2 C 35.6 45.2 33.2 43.2 33.2 39.2 C 33.2 35.2 35.6 33.2 38.3 33.2 C 39.8 33.2 41.1 33.8 41.8 34.9 C 41.77 34.92 41.8 29 41.8 29 L 44.6 29 L 44.6 45 Z M 41.9 39.2 C 41.9 36.8 40.4 35.7 38.9 35.7 C 37.4 35.7 36 36.8 36 39.2 C 36 41.5 37.4 42.7 38.9 42.7 C 40.4 42.7 41.9 41.5 41.9 39.2 Z M 49.3 40 C 49.3 41.9 50.7 42.8 52.2 42.8 C 53.3 42.8 54.4 42.4 54.7 41.3 C 54.7 41.3 57.3 41.3 57.3 41.3 C 56.8 43.9 54.5 45.2 52.1 45.2 C 49.3 45.2 46.6 43.3 46.6 39.2 C 46.6 35.2 49.2 33.2 52.1 33.2 C 55 33.2 57.3 35 57.3 38.9 C 57.33 38.89 57.3 40 57.3 40 C 57.3 40 49.27 40.03 49.3 40 Z M 49.3 38 C 49.3 38 54.6 38 54.6 38 C 54.6 36.5 53.5 35.6 52.1 35.6 C 50.8 35.6 49.6 36.3 49.3 38 Z M 75.7 37.2 C 75.68 37.17 75.7 45 75.7 45 L 72.9 45 C 72.9 45 72.89 37.72 72.9 37.7 C 72.9 36.3 72.2 35.7 71.1 35.7 C 69.8 35.7 68.9 36.5 68.9 38.5 C 68.9 38.47 68.9 45 68.9 45 L 66.1 45 C 66.1 45 66.11 37.72 66.1 37.7 C 66.1 36.3 65.4 35.7 64.3 35.7 C 63 35.7 62.1 36.5 62.1 38.5 C 62.12 38.45 62.1 45 62.1 45 L 59.3 45 L 59.3 33.4 L 62.1 33.4 C 62.1 33.4 62.08 35.09 62.1 35.1 C 62.4 34.2 63.3 33.2 65.1 33.2 C 66.6 33.2 67.7 33.9 68.3 35.1 C 68.7 34.3 69.6 33.2 71.7 33.2 C 74.1 33.2 75.7 34.7 75.7 37.2 Z M 80.3 40 C 80.3 41.9 81.7 42.8 83.3 42.8 C 84.4 42.8 85.4 42.4 85.7 41.3 C 85.7 41.3 88.3 41.3 88.3 41.3 C 87.8 43.9 85.5 45.2 83.1 45.2 C 80.3 45.2 77.6 43.3 77.6 39.2 C 77.6 35.2 80.2 33.2 83.2 33.2 C 86 33.2 88.3 35 88.3 38.9 C 88.35 38.89 88.3 40 88.3 40 C 88.3 40 80.28 40.03 80.3 40 Z M 80.3 38 C 80.3 38 85.6 38 85.6 38 C 85.6 36.5 84.5 35.6 83.1 35.6 C 81.8 35.6 80.6 36.3 80.3 38 Z M 100.5 37.5 C 100.53 37.51 100.5 45 100.5 45 L 97.7 45 C 97.7 45 97.73 37.76 97.7 37.8 C 97.7 36.5 97 35.7 95.7 35.7 C 94.1 35.7 93.1 36.8 93.1 38.7 C 93.13 38.72 93.1 45 93.1 45 L 90.3 45 L 90.3 33.4 L 93.1 33.4 C 93.1 33.4 93.11 35.07 93.1 35.1 C 93.8 34 94.7 33.2 96.6 33.2 C 99.3 33.2 100.5 34.7 100.5 37.5 Z M 109.1 45 C 109.1 45 107.25 44.98 107.2 45 C 105.1 45 103.7 44.3 103.7 41.2 C 103.7 41.2 103.7 35.9 103.7 35.9 L 101.6 35.9 L 101.6 33.4 L 103.7 33.4 L 103.7 30.8 L 106.5 30 L 106.5 33.4 L 108.8 33.4 L 108.8 35.9 L 106.5 35.9 C 106.5 35.9 106.49 41.33 106.5 41.3 C 106.5 42 106.7 42.5 107.7 42.5 C 107.67 42.5 109.1 42.5 109.1 42.5 L 109.1 45 Z M 119.9 41.4 C 119.9 44 117.6 45.2 115 45.2 C 112.6 45.2 110 44.2 109.8 41.3 C 109.8 41.3 112.6 41.3 112.6 41.3 C 112.8 42.4 113.8 42.9 115.1 42.9 C 116.3 42.9 117.2 42.5 117.2 41.7 C 117.2 40.9 116.6 40.8 115 40.5 C 112.7 40.1 110.2 39.7 110.2 36.9 C 110.2 34.3 112.4 33.2 114.8 33.2 C 117.5 33.2 119.5 34.5 119.6 37.1 C 119.6 37.1 116.9 37.1 116.9 37.1 C 116.8 36 116 35.5 114.8 35.5 C 113.4 35.5 112.9 36.1 112.9 36.8 C 112.9 37.7 113.9 37.9 115.3 38.1 C 117.4 38.4 119.9 38.7 119.9 41.4 Z M 137.2 37.5 C 137.23 37.51 137.2 45 137.2 45 L 134.4 45 C 134.4 45 134.44 37.76 134.4 37.8 C 134.4 36.5 133.7 35.7 132.4 35.7 C 130.8 35.7 129.8 36.8 129.8 38.7 C 129.84 38.72 129.8 45 129.8 45 L 127 45 L 127 33.4 L 129.8 33.4 C 129.8 33.4 129.82 35.07 129.8 35.1 C 130.5 34 131.4 33.2 133.3 33.2 C 136 33.2 137.2 34.7 137.2 37.5 Z M 141.8 40 C 141.9 41.9 143.2 42.8 144.8 42.8 C 145.9 42.8 147 42.4 147.3 41.3 C 147.3 41.3 149.9 41.3 149.9 41.3 C 149.4 43.9 147.1 45.2 144.7 45.2 C 141.9 45.2 139.1 43.3 139.1 39.2 C 139.1 35.2 141.7 33.2 144.7 33.2 C 147.5 33.2 149.9 35 149.9 38.9 C 149.9 38.89 149.9 40 149.9 40 C 149.9 40 141.83 40.03 141.8 40 Z M 141.9 38 C 141.9 38 147.2 38 147.2 38 C 147.2 36.5 146.1 35.6 144.7 35.6 C 143.4 35.6 142.1 36.3 141.9 38 Z M 162.3 44.2 C 162.3 47.9 159.9 49.6 156.8 49.6 C 154 49.6 151.7 48.2 151.3 45.3 C 151.3 45.3 154 45.3 154 45.3 C 154.3 46.8 155.5 47.2 156.8 47.2 C 158.6 47.2 159.6 46.3 159.6 44.5 C 159.6 44.5 159.6 42.6 159.6 42.6 C 159.1 43.8 158 44.6 156.2 44.6 C 153.6 44.6 151.2 42.8 151.2 38.9 C 151.2 35 153.6 33.2 156.2 33.2 C 157.9 33.2 159.1 33.9 159.6 35 C 159.64 35.01 159.6 33.4 159.6 33.4 L 162.3 33.4 C 162.3 33.4 162.33 44.2 162.3 44.2 Z M 159.5 38.9 C 159.5 36.7 158.3 35.6 156.8 35.6 C 155.3 35.6 153.9 36.7 153.9 38.9 C 153.9 41.1 155.3 42.1 156.8 42.1 C 158.3 42.1 159.5 41.1 159.5 38.9 Z M 174.2 37.2 C 174.21 37.19 174.2 45 174.2 45 L 171.5 45 C 171.5 45 171.48 43.3 171.5 43.3 C 170.6 44.8 169.2 45.2 168 45.2 C 166.1 45.2 164.2 44.1 164.2 41.6 C 164.2 39.8 165.2 38.6 167.9 38.2 C 167.9 38.2 170.4 37.8 170.4 37.8 C 171.1 37.7 171.6 37.5 171.6 36.8 C 171.6 35.8 170.7 35.4 169.6 35.4 C 168.1 35.4 167.5 36.1 167.4 37.1 C 167.4 37.1 164.7 37.1 164.7 37.1 C 165 34.4 167.1 33.2 169.8 33.2 C 172.5 33.2 174.2 34.5 174.2 37.2 Z M 171.5 40.1 C 171.5 40.1 171.5 39.5 171.5 39.5 C 171.2 39.6 170.7 39.8 170.1 39.8 C 170.1 39.8 168.9 40 168.9 40 C 167.5 40.2 167 40.8 167 41.5 C 167 42.4 167.7 42.9 168.6 42.9 C 170.1 42.9 171.5 41.8 171.5 40.1 Z M 182.7 45 C 182.7 45 180.83 44.98 180.8 45 C 178.7 45 177.3 44.3 177.3 41.2 C 177.28 41.2 177.3 35.9 177.3 35.9 L 175.2 35.9 L 175.2 33.4 L 177.3 33.4 L 177.3 30.8 L 180.1 30 L 180.1 33.4 L 182.4 33.4 L 182.4 35.9 L 180.1 35.9 C 180.1 35.9 180.07 41.33 180.1 41.3 C 180.1 42 180.3 42.5 181.2 42.5 C 181.25 42.5 182.7 42.5 182.7 42.5 L 182.7 45 Z M 184.1 31.9 L 187.1 31.9 L 187.1 28.7 L 184.1 28.7 L 184.1 31.9 Z M 184.2 33.4 L 187 33.4 L 187 45 L 184.2 45 L 184.2 33.4 Z M 194 31.5 C 193.1 31.5 192.9 31.9 192.9 32.6 C 192.86 32.63 192.9 33.4 192.9 33.4 L 195 33.4 L 195 35.9 L 192.9 35.9 L 192.9 45 L 190.1 45 L 190.1 35.9 L 188.3 35.9 L 188.3 33.4 L 190.1 33.4 C 190.1 33.4 190.07 32.76 190.1 32.8 C 190.1 29.7 191.5 29 193.6 29 C 193.62 28.98 195.3 29 195.3 29 L 195.3 31.5 C 195.3 31.5 194.04 31.46 194 31.5 Z M 205.9 41.4 C 205.9 44 203.6 45.2 201 45.2 C 198.6 45.2 196 44.2 195.8 41.3 C 195.8 41.3 198.6 41.3 198.6 41.3 C 198.8 42.4 199.9 42.9 201.2 42.9 C 202.3 42.9 203.2 42.5 203.2 41.7 C 203.2 40.9 202.6 40.8 201 40.5 C 198.8 40.1 196.2 39.7 196.2 36.9 C 196.2 34.3 198.4 33.2 200.8 33.2 C 203.5 33.2 205.5 34.5 205.7 37.1 C 205.7 37.1 202.9 37.1 202.9 37.1 C 202.8 36 202 35.5 200.8 35.5 C 199.4 35.5 198.9 36.1 198.9 36.8 C 198.9 37.7 199.9 37.9 201.3 38.1 C 203.4 38.4 205.9 38.7 205.9 41.4 Z M 209.3 44.8 C 209.3 44.79 207.9 44.8 207.9 44.8 L 207.9 41.9 L 211.1 41.9 C 211.1 41.9 211.09 44.39 211.1 44.4 C 211.1 47.4 209 48.5 207.1 48.7 C 207.1 48.7 206.9 47.2 206.9 47.2 C 208.4 47 209.3 46.1 209.3 44.8 Z M 228.4 45 L 225.6 45 C 225.6 45 225.62 43.2 225.6 43.2 C 225 44.5 223.6 45.2 222.1 45.2 C 219.3 45.2 217 43.2 217 39.2 C 217 35.2 219.3 33.2 222.1 33.2 C 223.6 33.2 224.9 33.8 225.6 34.9 C 225.56 34.92 225.6 29 225.6 29 L 228.4 29 L 228.4 45 Z M 225.6 39.2 C 225.6 36.8 224.2 35.7 222.7 35.7 C 221.2 35.7 219.8 36.8 219.8 39.2 C 219.8 41.5 221.2 42.7 222.7 42.7 C 224.2 42.7 225.6 41.5 225.6 39.2 Z M 240.3 37.2 C 240.34 37.19 240.3 45 240.3 45 L 237.6 45 C 237.6 45 237.61 43.3 237.6 43.3 C 236.7 44.8 235.3 45.2 234.1 45.2 C 232.3 45.2 230.3 44.1 230.3 41.6 C 230.3 39.8 231.4 38.6 234 38.2 C 234 38.2 236.5 37.8 236.5 37.8 C 237.2 37.7 237.7 37.5 237.7 36.8 C 237.7 35.8 236.9 35.4 235.8 35.4 C 234.3 35.4 233.6 36.1 233.5 37.1 C 233.5 37.1 230.8 37.1 230.8 37.1 C 231.1 34.4 233.3 33.2 235.9 33.2 C 238.6 33.2 240.3 34.5 240.3 37.2 Z M 237.6 40.1 C 237.6 40.1 237.6 39.5 237.6 39.5 C 237.4 39.6 236.8 39.8 236.3 39.8 C 236.3 39.8 235 40 235 40 C 233.6 40.2 233.1 40.8 233.1 41.5 C 233.1 42.4 233.8 42.9 234.8 42.9 C 236.2 42.9 237.6 41.8 237.6 40.1 Z M 253 37.5 C 253.05 37.51 253 45 253 45 L 250.3 45 C 250.3 45 250.25 37.76 250.3 37.8 C 250.3 36.5 249.5 35.7 248.2 35.7 C 246.6 35.7 245.7 36.8 245.7 38.7 C 245.66 38.72 245.7 45 245.7 45 L 242.9 45 L 242.9 33.4 L 245.6 33.4 C 245.6 33.4 245.63 35.07 245.6 35.1 C 246.3 34 247.2 33.2 249.2 33.2 C 251.8 33.2 253 34.7 253 37.5 Z M 264.9 41.4 C 264.9 44 262.6 45.2 260 45.2 C 257.6 45.2 255 44.2 254.8 41.3 C 254.8 41.3 257.6 41.3 257.6 41.3 C 257.8 42.4 258.9 42.9 260.2 42.9 C 261.3 42.9 262.2 42.5 262.2 41.7 C 262.2 40.9 261.6 40.8 260 40.5 C 257.8 40.1 255.2 39.7 255.2 36.9 C 255.2 34.3 257.4 33.2 259.8 33.2 C 262.5 33.2 264.5 34.5 264.7 37.1 C 264.7 37.1 261.9 37.1 261.9 37.1 C 261.8 36 261 35.5 259.8 35.5 C 258.4 35.5 257.9 36.1 257.9 36.8 C 257.9 37.7 258.9 37.9 260.3 38.1 C 262.4 38.4 264.9 38.7 264.9 41.4 Z M 282.3 33.4 L 282.3 49.3 L 279.5 49.3 C 279.5 49.3 279.51 43.26 279.5 43.3 C 278.8 44.4 277.7 45.1 276.1 45.1 C 273.4 45.1 270.9 43.2 270.9 39.1 C 270.9 35.1 273.2 33.2 276 33.2 C 277.5 33.2 278.9 33.8 279.6 35 C 279.57 35.03 279.6 33.4 279.6 33.4 L 282.3 33.4 Z M 279.6 39.1 C 279.6 36.7 278.2 35.7 276.7 35.7 C 275.1 35.7 273.8 36.7 273.8 39.1 C 273.8 41.4 275.1 42.5 276.7 42.5 C 278.2 42.5 279.6 41.5 279.6 39.1 Z M 295.1 45 L 292.3 45 C 292.3 45 292.34 43.34 292.3 43.3 C 291.7 44.4 290.6 45.1 289 45.1 C 286.6 45.1 284.8 43.6 284.8 40.6 C 284.82 40.59 284.8 33.4 284.8 33.4 L 287.6 33.4 C 287.6 33.4 287.61 40.38 287.6 40.4 C 287.6 42 288.4 42.6 289.6 42.6 C 291.1 42.6 292.3 41.7 292.3 39 C 292.27 39 292.3 33.4 292.3 33.4 L 295.1 33.4 L 295.1 45 Z M 299.8 40 C 299.8 41.9 301.2 42.8 302.8 42.8 C 303.8 42.8 304.9 42.4 305.2 41.3 C 305.2 41.3 307.8 41.3 307.8 41.3 C 307.3 43.9 305 45.2 302.6 45.2 C 299.8 45.2 297.1 43.3 297.1 39.2 C 297.1 35.2 299.7 33.2 302.6 33.2 C 305.5 33.2 307.8 35 307.8 38.9 C 307.84 38.89 307.8 40 307.8 40 C 307.8 40 299.77 40.03 299.8 40 Z M 299.8 38 C 299.8 38 305.1 38 305.1 38 C 305.1 36.5 304 35.6 302.6 35.6 C 301.3 35.6 300.1 36.3 299.8 38 Z M 312.6 45 L 309.8 45 L 309.8 29 L 312.6 29 L 312.6 45 Z M 318.1 45 L 315.4 45 L 315.4 29 L 318.1 29 L 318.1 45 Z M 322.8 40 C 322.9 41.9 324.3 42.8 325.8 42.8 C 326.9 42.8 328 42.4 328.3 41.3 C 328.3 41.3 330.9 41.3 330.9 41.3 C 330.4 43.9 328.1 45.2 325.7 45.2 C 322.9 45.2 320.1 43.3 320.1 39.2 C 320.1 35.2 322.8 33.2 325.7 33.2 C 328.5 33.2 330.9 35 330.9 38.9 C 330.91 38.89 330.9 40 330.9 40 C 330.9 40 322.85 40.03 322.8 40 Z M 322.9 38 C 322.9 38 328.2 38 328.2 38 C 328.2 36.5 327.1 35.6 325.7 35.6 C 324.4 35.6 323.2 36.3 322.9 38 Z M 342.2 41.4 C 342.2 44 339.9 45.2 337.3 45.2 C 334.9 45.2 332.3 44.2 332.1 41.3 C 332.1 41.3 334.9 41.3 334.9 41.3 C 335.1 42.4 336.1 42.9 337.4 42.9 C 338.6 42.9 339.4 42.5 339.4 41.7 C 339.4 40.9 338.9 40.8 337.3 40.5 C 335 40.1 332.4 39.7 332.4 36.9 C 332.4 34.3 334.6 33.2 337 33.2 C 339.7 33.2 341.7 34.5 341.9 37.1 C 341.9 37.1 339.2 37.1 339.2 37.1 C 339.1 36 338.2 35.5 337.1 35.5 C 335.7 35.5 335.1 36.1 335.1 36.8 C 335.1 37.7 336.2 37.9 337.6 38.1 C 339.6 38.4 342.2 38.7 342.2 41.4 Z M 358.2 41.4 C 358.2 44 355.8 45.2 353.2 45.2 C 350.8 45.2 348.2 44.2 348 41.3 C 348 41.3 350.9 41.3 350.9 41.3 C 351.1 42.4 352.1 42.9 353.4 42.9 C 354.6 42.9 355.4 42.5 355.4 41.7 C 355.4 40.9 354.9 40.8 353.3 40.5 C 351 40.1 348.4 39.7 348.4 36.9 C 348.4 34.3 350.6 33.2 353 33.2 C 355.7 33.2 357.7 34.5 357.9 37.1 C 357.9 37.1 355.1 37.1 355.1 37.1 C 355 36 354.2 35.5 353 35.5 C 351.7 35.5 351.1 36.1 351.1 36.8 C 351.1 37.7 352.1 37.9 353.6 38.1 C 355.6 38.4 358.2 38.7 358.2 41.4 Z M 366 45 C 366 45 364.14 44.98 364.1 45 C 362 45 360.6 44.3 360.6 41.2 C 360.59 41.2 360.6 35.9 360.6 35.9 L 358.5 35.9 L 358.5 33.4 L 360.6 33.4 L 360.6 30.8 L 363.4 30 L 363.4 33.4 L 365.7 33.4 L 365.7 35.9 L 363.4 35.9 C 363.4 35.9 363.38 41.33 363.4 41.3 C 363.4 42 363.6 42.5 364.6 42.5 C 364.56 42.5 366 42.5 366 42.5 L 366 45 Z M 374.1 36 C 374.1 36 373.35 35.97 373.4 36 C 371.4 36 370.3 37 370.3 39.3 C 370.33 39.31 370.3 45 370.3 45 L 367.5 45 L 367.5 33.4 L 370.3 33.4 C 370.3 33.4 370.31 35.05 370.3 35 C 370.9 33.8 372 33.3 373.3 33.3 C 373.33 33.26 374.1 33.3 374.1 33.3 L 374.1 36 Z M 384.7 37.2 C 384.72 37.19 384.7 45 384.7 45 L 382 45 C 382 45 381.99 43.3 382 43.3 C 381.1 44.8 379.7 45.2 378.5 45.2 C 376.6 45.2 374.7 44.1 374.7 41.6 C 374.7 39.8 375.7 38.6 378.4 38.2 C 378.4 38.2 380.9 37.8 380.9 37.8 C 381.6 37.7 382.1 37.5 382.1 36.8 C 382.1 35.8 381.3 35.4 380.1 35.4 C 378.6 35.4 378 36.1 377.9 37.1 C 377.9 37.1 375.2 37.1 375.2 37.1 C 375.5 34.4 377.6 33.2 380.3 33.2 C 383 33.2 384.7 34.5 384.7 37.2 Z M 382 40.1 C 382 40.1 382 39.5 382 39.5 C 381.7 39.6 381.2 39.8 380.6 39.8 C 380.6 39.8 379.4 40 379.4 40 C 378 40.2 377.5 40.8 377.5 41.5 C 377.5 42.4 378.2 42.9 379.1 42.9 C 380.6 42.9 382 41.8 382 40.1 Z M 393.2 45 C 393.2 45 391.33 44.98 391.3 45 C 389.2 45 387.8 44.3 387.8 41.2 C 387.78 41.2 387.8 35.9 387.8 35.9 L 385.7 35.9 L 385.7 33.4 L 387.8 33.4 L 387.8 30.8 L 390.6 30 L 390.6 33.4 L 392.9 33.4 L 392.9 35.9 L 390.6 35.9 C 390.6 35.9 390.57 41.33 390.6 41.3 C 390.6 42 390.8 42.5 391.8 42.5 C 391.75 42.5 393.2 42.5 393.2 42.5 L 393.2 45 Z M 396.7 40 C 396.8 41.9 398.1 42.8 399.7 42.8 C 400.8 42.8 401.8 42.4 402.2 41.3 C 402.2 41.3 404.7 41.3 404.7 41.3 C 404.2 43.9 401.9 45.2 399.6 45.2 C 396.8 45.2 394 43.3 394 39.2 C 394 35.2 396.6 33.2 399.6 33.2 C 402.4 33.2 404.8 35 404.8 38.9 C 404.77 38.89 404.8 40 404.8 40 C 404.8 40 396.71 40.03 396.7 40 Z M 396.8 38 C 396.8 38 402 38 402 38 C 402 36.5 401 35.6 399.5 35.6 C 398.3 35.6 397 36.3 396.8 38 Z M 417.2 44.2 C 417.2 47.9 414.8 49.6 411.7 49.6 C 408.9 49.6 406.5 48.2 406.2 45.3 C 406.2 45.3 408.9 45.3 408.9 45.3 C 409.2 46.8 410.4 47.2 411.7 47.2 C 413.5 47.2 414.5 46.3 414.5 44.5 C 414.5 44.5 414.5 42.6 414.5 42.6 C 414 43.8 412.9 44.6 411.1 44.6 C 408.5 44.6 406 42.8 406 38.9 C 406 35 408.5 33.2 411.1 33.2 C 412.8 33.2 413.9 33.9 414.5 35 C 414.51 35.01 414.5 33.4 414.5 33.4 L 417.2 33.4 C 417.2 33.4 417.2 44.2 417.2 44.2 Z M 414.4 38.9 C 414.4 36.7 413.2 35.6 411.7 35.6 C 410.1 35.6 408.8 36.7 408.8 38.9 C 408.8 41.1 410.1 42.1 411.7 42.1 C 413.2 42.1 414.4 41.1 414.4 38.9 Z M 419.7 31.9 L 422.7 31.9 L 422.7 28.7 L 419.7 28.7 L 419.7 31.9 Z M 419.8 33.4 L 422.6 33.4 L 422.6 45 L 419.8 45 L 419.8 33.4 Z M 427.3 40 C 427.3 41.9 428.7 42.8 430.3 42.8 C 431.4 42.8 432.4 42.4 432.7 41.3 C 432.7 41.3 435.3 41.3 435.3 41.3 C 434.8 43.9 432.5 45.2 430.1 45.2 C 427.3 45.2 424.6 43.3 424.6 39.2 C 424.6 35.2 427.2 33.2 430.2 33.2 C 433 33.2 435.3 35 435.3 38.9 C 435.35 38.89 435.3 40 435.3 40 C 435.3 40 427.28 40.03 427.3 40 Z M 427.3 38 C 427.3 38 432.6 38 432.6 38 C 432.6 36.5 431.5 35.6 430.1 35.6 C 428.8 35.6 427.6 36.3 427.3 38 Z M 446.6 41.4 C 446.6 44 444.3 45.2 441.7 45.2 C 439.3 45.2 436.7 44.2 436.5 41.3 C 436.5 41.3 439.3 41.3 439.3 41.3 C 439.5 42.4 440.5 42.9 441.8 42.9 C 443 42.9 443.9 42.5 443.9 41.7 C 443.9 40.9 443.3 40.8 441.7 40.5 C 439.4 40.1 436.9 39.7 436.9 36.9 C 436.9 34.3 439.1 33.2 441.5 33.2 C 444.2 33.2 446.2 34.5 446.3 37.1 C 446.3 37.1 443.6 37.1 443.6 37.1 C 443.5 36 442.7 35.5 441.5 35.5 C 440.1 35.5 439.6 36.1 439.6 36.8 C 439.6 37.7 440.6 37.9 442 38.1 C 444.1 38.4 446.6 38.7 446.6 41.4 Z " stroke="none" fill="#000"/>  </g>  <g id="Polygon9829">    <path d="M 13.1 8.7 C 13.1 11.3 11.3 13.8 7.7 13.8 C 7.71 13.75 4.5 13.8 4.5 13.8 L 4.5 19.8 L 1.6 19.8 L 1.6 4 C 1.6 4 7.98 4.03 8 4 C 11.4 4 13.1 6.3 13.1 8.7 Z M 10.2 8.9 C 10.2 7.7 9.5 6.8 7.9 6.8 C 7.9 6.76 4.5 6.8 4.5 6.8 L 4.5 11 C 4.5 11 7.79 11.02 7.8 11 C 9.4 11 10.2 10.1 10.2 8.9 Z M 17.7 19.8 L 14.9 19.8 L 14.9 3.8 L 17.7 3.8 L 17.7 19.8 Z M 30.6 19.8 L 27.9 19.8 C 27.9 19.8 27.87 18.14 27.9 18.1 C 27.2 19.2 26.1 19.9 24.5 19.9 C 22.1 19.9 20.3 18.4 20.3 15.4 C 20.35 15.39 20.3 8.2 20.3 8.2 L 23.1 8.2 C 23.1 8.2 23.14 15.18 23.1 15.2 C 23.1 16.8 23.9 17.4 25.1 17.4 C 26.7 17.4 27.8 16.5 27.8 13.8 C 27.8 13.8 27.8 8.2 27.8 8.2 L 30.6 8.2 L 30.6 19.8 Z M 42.6 16.2 C 42.6 18.8 40.3 20 37.7 20 C 35.3 20 32.7 19 32.5 16.1 C 32.5 16.1 35.3 16.1 35.3 16.1 C 35.5 17.2 36.5 17.7 37.8 17.7 C 39 17.7 39.8 17.3 39.8 16.5 C 39.8 15.7 39.3 15.6 37.7 15.3 C 35.4 14.9 32.8 14.5 32.8 11.7 C 32.8 9.1 35 8 37.4 8 C 40.2 8 42.1 9.3 42.3 11.9 C 42.3 11.9 39.6 11.9 39.6 11.9 C 39.5 10.8 38.7 10.3 37.5 10.3 C 36.1 10.3 35.6 10.9 35.6 11.6 C 35.6 12.5 36.6 12.7 38 12.9 C 40.1 13.2 42.6 13.5 42.6 16.2 Z M 60 19.8 L 57.2 19.8 C 57.2 19.8 57.22 18 57.2 18 C 56.6 19.3 55.3 20 53.7 20 C 50.9 20 48.6 18 48.6 14 C 48.6 10 50.9 8 53.7 8 C 55.2 8 56.5 8.6 57.2 9.7 C 57.16 9.72 57.2 3.8 57.2 3.8 L 60 3.8 L 60 19.8 Z M 57.2 14 C 57.2 11.6 55.8 10.5 54.3 10.5 C 52.8 10.5 51.4 11.6 51.4 14 C 51.4 16.3 52.8 17.5 54.3 17.5 C 55.8 17.5 57.2 16.3 57.2 14 Z M 64.7 14.8 C 64.7 16.7 66.1 17.6 67.6 17.6 C 68.7 17.6 69.8 17.2 70.1 16.1 C 70.1 16.1 72.7 16.1 72.7 16.1 C 72.2 18.7 69.9 20 67.5 20 C 64.7 20 61.9 18.1 61.9 14 C 61.9 10 64.6 8 67.5 8 C 70.3 8 72.7 9.8 72.7 13.7 C 72.72 13.69 72.7 14.8 72.7 14.8 C 72.7 14.8 64.66 14.83 64.7 14.8 Z M 64.7 12.8 C 64.7 12.8 70 12.8 70 12.8 C 70 11.3 68.9 10.4 67.5 10.4 C 66.2 10.4 65 11.1 64.7 12.8 Z M 90.7 15.5 C 90.7 18.5 88 20 85.1 20 C 82.1 20 79.2 18.3 79.2 14.7 C 79.2 14.7 82.1 14.7 82.1 14.7 C 81.9 16.5 83.4 17.5 85.1 17.5 C 86.5 17.5 87.7 16.8 87.7 15.4 C 87.7 14 86.6 13.3 84.5 13.3 C 84.55 13.33 83.4 13.3 83.4 13.3 L 83.4 10.8 C 83.4 10.8 84.46 10.81 84.5 10.8 C 86.4 10.8 87.4 9.9 87.4 8.6 C 87.4 7.3 86.4 6.6 85 6.6 C 83.4 6.6 82.2 7.5 82.2 9.5 C 82.2 9.5 79.3 9.5 79.3 9.5 C 79.3 5.8 82 4 85.1 4 C 87.9 4 90.3 5.5 90.3 8.2 C 90.3 10.2 89.1 11.4 87.8 11.8 C 89.4 12.4 90.7 13.4 90.7 15.5 Z M 92 12.1 C 92 7.2 93.7 4 97.5 4 C 101.3 4 103 7.2 103 12 C 103 16.9 101.3 20 97.5 20 C 93.7 20 92 16.9 92 12.1 Z M 100.2 12.1 C 100.2 9 99.4 6.5 97.4 6.5 C 95.7 6.5 94.8 8.5 94.8 11.9 C 94.8 15.4 95.7 17.6 97.5 17.6 C 99.4 17.6 100.2 15.3 100.2 12.1 Z M 108 3.5 C 110.3 3.5 112 5.1 112 7.5 C 112 9.8 110.3 11.5 108 11.5 C 105.7 11.5 104 9.8 104 7.5 C 104 5.1 105.7 3.5 108 3.5 Z M 109.2 19.8 L 107.5 19.8 L 117.5 4 L 119.1 4 L 109.2 19.8 Z M 108 5.3 C 106.8 5.3 105.9 6.2 105.9 7.5 C 105.9 8.8 106.8 9.7 108 9.7 C 109.2 9.7 110.1 8.8 110.1 7.5 C 110.1 6.2 109.2 5.3 108 5.3 Z M 118.1 12.4 C 120.4 12.4 122.2 14 122.2 16.4 C 122.2 18.7 120.4 20.4 118.1 20.4 C 115.9 20.4 114.2 18.7 114.2 16.4 C 114.2 14 115.9 12.4 118.1 12.4 Z M 118.1 14.2 C 116.9 14.2 116.1 15.1 116.1 16.4 C 116.1 17.7 116.9 18.6 118.1 18.6 C 119.4 18.6 120.2 17.7 120.2 16.4 C 120.2 15.1 119.4 14.2 118.1 14.2 Z M 139.6 19.8 L 136.9 19.8 C 136.9 19.8 136.9 18 136.9 18 C 136.3 19.3 134.9 20 133.3 20 C 130.6 20 128.2 18 128.2 14 C 128.2 10 130.6 8 133.3 8 C 134.8 8 136.1 8.6 136.8 9.7 C 136.83 9.72 136.8 3.8 136.8 3.8 L 139.6 3.8 L 139.6 19.8 Z M 136.9 14 C 136.9 11.6 135.5 10.5 134 10.5 C 132.5 10.5 131.1 11.6 131.1 14 C 131.1 16.3 132.5 17.5 134 17.5 C 135.5 17.5 136.9 16.3 136.9 14 Z M 144.3 14.8 C 144.4 16.7 145.7 17.6 147.3 17.6 C 148.4 17.6 149.5 17.2 149.8 16.1 C 149.8 16.1 152.4 16.1 152.4 16.1 C 151.8 18.7 149.6 20 147.2 20 C 144.4 20 141.6 18.1 141.6 14 C 141.6 10 144.2 8 147.2 8 C 150 8 152.4 9.8 152.4 13.7 C 152.4 13.69 152.4 14.8 152.4 14.8 C 152.4 14.8 144.33 14.83 144.3 14.8 Z M 144.4 12.8 C 144.4 12.8 149.7 12.8 149.7 12.8 C 149.7 11.3 148.6 10.4 147.2 10.4 C 145.9 10.4 144.6 11.1 144.4 12.8 Z M 163.7 16.2 C 163.7 18.8 161.3 20 158.7 20 C 156.3 20 153.7 19 153.6 16.1 C 153.6 16.1 156.4 16.1 156.4 16.1 C 156.6 17.2 157.6 17.7 158.9 17.7 C 160.1 17.7 160.9 17.3 160.9 16.5 C 160.9 15.7 160.4 15.6 158.8 15.3 C 156.5 14.9 153.9 14.5 153.9 11.7 C 153.9 9.1 156.1 8 158.5 8 C 161.2 8 163.2 9.3 163.4 11.9 C 163.4 11.9 160.6 11.9 160.6 11.9 C 160.5 10.8 159.7 10.3 158.5 10.3 C 157.2 10.3 156.6 10.9 156.6 11.6 C 156.6 12.5 157.6 12.7 159.1 12.9 C 161.1 13.2 163.7 13.5 163.7 16.2 Z M 181 14 C 181 17.8 178.5 20 175.3 20 C 172.1 20 169.6 17.8 169.6 14 C 169.6 10.2 172.1 8 175.3 8 C 178.5 8 181 10.2 181 14 Z M 172.5 14 C 172.5 16.3 173.8 17.4 175.3 17.4 C 177 17.4 178.1 16.2 178.1 14 C 178.1 11.7 176.8 10.6 175.3 10.6 C 173.6 10.6 172.5 11.8 172.5 14 Z M 194.3 14 C 194.3 18.1 191.8 20 189.1 20 C 187.7 20 186.4 19.5 185.7 18.4 C 185.68 18.4 185.7 19.8 185.7 19.8 L 183 19.8 L 183 3.8 L 185.7 3.8 C 185.7 3.8 185.74 9.89 185.7 9.9 C 186.4 8.7 187.7 8 189.3 8 C 192 8 194.3 10 194.3 14 Z M 191.5 14 C 191.5 11.7 190.1 10.5 188.6 10.5 C 187.1 10.5 185.7 11.7 185.7 14 C 185.7 16.4 187.1 17.6 188.6 17.6 C 190.1 17.6 191.5 16.4 191.5 14 Z M 199.1 19.8 L 196.3 19.8 L 196.3 3.8 L 199.1 3.8 L 199.1 19.8 Z M 201.7 6.7 L 204.7 6.7 L 204.7 3.5 L 201.7 3.5 L 201.7 6.7 Z M 201.8 8.2 L 204.6 8.2 L 204.6 19.8 L 201.8 19.8 L 201.8 8.2 Z M 217.8 19 C 217.8 22.7 215.4 24.4 212.2 24.4 C 209.4 24.4 207.1 23 206.8 20.1 C 206.8 20.1 209.5 20.1 209.5 20.1 C 209.8 21.6 210.9 22 212.2 22 C 214.1 22 215.1 21.1 215.1 19.3 C 215.1 19.3 215.1 17.4 215.1 17.4 C 214.6 18.6 213.4 19.4 211.7 19.4 C 209.1 19.4 206.6 17.6 206.6 13.7 C 206.6 9.8 209.1 8 211.7 8 C 213.3 8 214.5 8.7 215.1 9.8 C 215.08 9.81 215.1 8.2 215.1 8.2 L 217.8 8.2 C 217.8 8.2 217.77 19 217.8 19 Z M 215 13.7 C 215 11.5 213.8 10.4 212.2 10.4 C 210.7 10.4 209.3 11.5 209.3 13.7 C 209.3 15.9 210.7 16.9 212.2 16.9 C 213.8 16.9 215 15.9 215 13.7 Z M 229.7 12 C 229.65 11.99 229.7 19.8 229.7 19.8 L 226.9 19.8 C 226.9 19.8 226.92 18.1 226.9 18.1 C 226 19.6 224.6 20 223.4 20 C 221.6 20 219.7 18.9 219.7 16.4 C 219.7 14.6 220.7 13.4 223.4 13 C 223.4 13 225.9 12.6 225.9 12.6 C 226.5 12.5 227 12.3 227 11.6 C 227 10.6 226.2 10.2 225.1 10.2 C 223.6 10.2 222.9 10.9 222.8 11.9 C 222.8 11.9 220.1 11.9 220.1 11.9 C 220.4 9.2 222.6 8 225.2 8 C 227.9 8 229.7 9.3 229.7 12 Z M 226.9 14.9 C 226.9 14.9 226.9 14.3 226.9 14.3 C 226.7 14.4 226.1 14.6 225.6 14.6 C 225.6 14.6 224.3 14.8 224.3 14.8 C 222.9 15 222.5 15.6 222.5 16.3 C 222.5 17.2 223.1 17.7 224.1 17.7 C 225.5 17.7 226.9 16.6 226.9 14.9 Z M 238.1 19.8 C 238.1 19.8 236.27 19.78 236.3 19.8 C 234.1 19.8 232.7 19.1 232.7 16 C 232.72 16 232.7 10.7 232.7 10.7 L 230.6 10.7 L 230.6 8.2 L 232.7 8.2 L 232.7 5.6 L 235.5 4.8 L 235.5 8.2 L 237.8 8.2 L 237.8 10.7 L 235.5 10.7 C 235.5 10.7 235.51 16.13 235.5 16.1 C 235.5 16.8 235.7 17.3 236.7 17.3 C 236.69 17.3 238.1 17.3 238.1 17.3 L 238.1 19.8 Z M 239.6 6.7 L 242.5 6.7 L 242.5 3.5 L 239.6 3.5 L 239.6 6.7 Z M 239.6 8.2 L 242.4 8.2 L 242.4 19.8 L 239.6 19.8 L 239.6 8.2 Z M 255.7 14 C 255.7 17.8 253.3 20 250.1 20 C 246.8 20 244.4 17.8 244.4 14 C 244.4 10.2 246.8 8 250.1 8 C 253.3 8 255.7 10.2 255.7 14 Z M 247.3 14 C 247.3 16.3 248.6 17.4 250.1 17.4 C 251.8 17.4 252.9 16.2 252.9 14 C 252.9 11.7 251.6 10.6 250 10.6 C 248.4 10.6 247.3 11.8 247.3 14 Z M 267.9 12.3 C 267.91 12.31 267.9 19.8 267.9 19.8 L 265.1 19.8 C 265.1 19.8 265.12 12.56 265.1 12.6 C 265.1 11.3 264.4 10.5 263.1 10.5 C 261.5 10.5 260.5 11.6 260.5 13.5 C 260.52 13.52 260.5 19.8 260.5 19.8 L 257.7 19.8 L 257.7 8.2 L 260.5 8.2 C 260.5 8.2 260.5 9.87 260.5 9.9 C 261.2 8.8 262.1 8 264 8 C 266.7 8 267.9 9.5 267.9 12.3 Z M 279.8 16.2 C 279.8 18.8 277.5 20 274.9 20 C 272.5 20 269.9 19 269.7 16.1 C 269.7 16.1 272.5 16.1 272.5 16.1 C 272.7 17.2 273.7 17.7 275 17.7 C 276.2 17.7 277 17.3 277 16.5 C 277 15.7 276.5 15.6 274.9 15.3 C 272.6 14.9 270.1 14.5 270.1 11.7 C 270.1 9.1 272.3 8 274.7 8 C 277.4 8 279.4 9.3 279.5 11.9 C 279.5 11.9 276.8 11.9 276.8 11.9 C 276.7 10.8 275.9 10.3 274.7 10.3 C 273.3 10.3 272.8 10.9 272.8 11.6 C 272.8 12.5 273.8 12.7 275.2 12.9 C 277.3 13.2 279.8 13.5 279.8 16.2 Z M 297.1 14 C 297.1 17.8 294.7 20 291.4 20 C 288.2 20 285.8 17.8 285.8 14 C 285.8 10.2 288.2 8 291.4 8 C 294.7 8 297.1 10.2 297.1 14 Z M 288.6 14 C 288.6 16.3 289.9 17.4 291.5 17.4 C 293.1 17.4 294.2 16.2 294.2 14 C 294.2 11.7 293 10.6 291.4 10.6 C 289.8 10.6 288.6 11.8 288.6 14 Z M 309.5 7.4 C 309.47 7.43 309.5 8.2 309.5 8.2 L 311.6 8.2 L 311.6 10.7 L 309.5 10.7 L 309.5 19.8 L 306.7 19.8 L 306.7 10.7 L 302.2 10.7 L 302.2 19.8 L 299.5 19.8 L 299.5 10.7 L 297.7 10.7 L 297.7 8.2 L 299.5 8.2 C 299.5 8.2 299.46 7.56 299.5 7.6 C 299.5 4.5 300.8 3.8 303 3.8 C 303.01 3.78 304.7 3.8 304.7 3.8 L 304.7 6.3 C 304.7 6.3 303.43 6.26 303.4 6.3 C 302.4 6.3 302.2 6.7 302.2 7.4 C 302.25 7.43 302.2 8.2 302.2 8.2 L 306.7 8.2 C 306.7 8.2 306.68 7.56 306.7 7.6 C 306.7 4.5 308.1 3.8 310.2 3.8 C 310.23 3.78 311.9 3.8 311.9 3.8 L 311.9 6.3 C 311.9 6.3 310.65 6.26 310.6 6.3 C 309.7 6.3 309.5 6.7 309.5 7.4 Z M 319.8 10.8 C 319.8 10.8 319.09 10.77 319.1 10.8 C 317.1 10.8 316.1 11.8 316.1 14.1 C 316.07 14.11 316.1 19.8 316.1 19.8 L 313.3 19.8 L 313.3 8.2 L 316 8.2 C 316 8.2 316.05 9.85 316 9.8 C 316.6 8.6 317.7 8.1 319.1 8.1 C 319.07 8.06 319.8 8.1 319.8 8.1 L 319.8 10.8 Z M 323 14.8 C 323 16.7 324.4 17.6 325.9 17.6 C 327 17.6 328.1 17.2 328.4 16.1 C 328.4 16.1 331 16.1 331 16.1 C 330.5 18.7 328.2 20 325.8 20 C 323 20 320.2 18.1 320.2 14 C 320.2 10 322.9 8 325.8 8 C 328.6 8 331 9.8 331 13.7 C 331.02 13.69 331 14.8 331 14.8 C 331 14.8 322.96 14.83 323 14.8 Z M 323 12.8 C 323 12.8 328.3 12.8 328.3 12.8 C 328.3 11.3 327.2 10.4 325.8 10.4 C 324.5 10.4 323.3 11.1 323 12.8 Z M 343.2 12.3 C 343.2 12.31 343.2 19.8 343.2 19.8 L 340.4 19.8 C 340.4 19.8 340.41 12.56 340.4 12.6 C 340.4 11.3 339.7 10.5 338.4 10.5 C 336.8 10.5 335.8 11.6 335.8 13.5 C 335.81 13.52 335.8 19.8 335.8 19.8 L 333 19.8 L 333 8.2 L 335.8 8.2 C 335.8 8.2 335.79 9.87 335.8 9.9 C 336.4 8.8 337.4 8 339.3 8 C 342 8 343.2 9.5 343.2 12.3 Z M 351.7 19.8 C 351.7 19.8 349.92 19.78 349.9 19.8 C 347.8 19.8 346.4 19.1 346.4 16 C 346.37 16 346.4 10.7 346.4 10.7 L 344.2 10.7 L 344.2 8.2 L 346.4 8.2 L 346.4 5.6 L 349.2 4.8 L 349.2 8.2 L 351.5 8.2 L 351.5 10.7 L 349.2 10.7 C 349.2 10.7 349.16 16.13 349.2 16.1 C 349.2 16.8 349.4 17.3 350.3 17.3 C 350.34 17.3 351.7 17.3 351.7 17.3 L 351.7 19.8 Z M 369 19.8 L 366.3 19.8 C 366.3 19.8 366.28 18 366.3 18 C 365.6 19.3 364.3 20 362.7 20 C 360 20 357.6 18 357.6 14 C 357.6 10 360 8 362.7 8 C 364.2 8 365.5 8.6 366.2 9.7 C 366.22 9.72 366.2 3.8 366.2 3.8 L 369 3.8 L 369 19.8 Z M 366.3 14 C 366.3 11.6 364.9 10.5 363.4 10.5 C 361.8 10.5 360.5 11.6 360.5 14 C 360.5 16.3 361.8 17.5 363.4 17.5 C 364.9 17.5 366.3 16.3 366.3 14 Z M 373.7 14.8 C 373.8 16.7 375.1 17.6 376.7 17.6 C 377.8 17.6 378.8 17.2 379.2 16.1 C 379.2 16.1 381.7 16.1 381.7 16.1 C 381.2 18.7 378.9 20 376.6 20 C 373.8 20 371 18.1 371 14 C 371 10 373.6 8 376.6 8 C 379.4 8 381.8 9.8 381.8 13.7 C 381.78 13.69 381.8 14.8 381.8 14.8 C 381.8 14.8 373.71 14.83 373.7 14.8 Z M 373.8 12.8 C 373.8 12.8 379 12.8 379 12.8 C 379 11.3 378 10.4 376.5 10.4 C 375.3 10.4 374 11.1 373.8 12.8 Z M 393 16.2 C 393 18.8 390.7 20 388.1 20 C 385.7 20 383.1 19 382.9 16.1 C 382.9 16.1 385.7 16.1 385.7 16.1 C 385.9 17.2 387 17.7 388.3 17.7 C 389.4 17.7 390.3 17.3 390.3 16.5 C 390.3 15.7 389.7 15.6 388.1 15.3 C 385.9 14.9 383.3 14.5 383.3 11.7 C 383.3 9.1 385.5 8 387.9 8 C 390.6 8 392.6 9.3 392.8 11.9 C 392.8 11.9 390 11.9 390 11.9 C 389.9 10.8 389.1 10.3 387.9 10.3 C 386.5 10.3 386 10.9 386 11.6 C 386 12.5 387 12.7 388.4 12.9 C 390.5 13.2 393 13.5 393 16.2 Z " stroke="none" fill="#000"/>  </g></svg>