<?xml version="1.0" standalone="no"?><!DOCTYPE svg PUBLIC "-//W3C//DTD SVG 1.1//EN" "http://www.w3.org/Graphics/SVG/1.1/DTD/svg11.dtd"><svg xmlns="http://www.w3.org/2000/svg" version="1.1" width="304px" height="198.4px" viewBox="0 0 304 198.4">  <desc>Un consensus semble se d gager sur le fait que le dollar am ricain s affaiblira en 2021 Pour un investisseur en euro</desc>  <defs/>  <g id="Polygon10534">    <path d="M 10.6 167.4 C 10.6 170 8.3 171.2 5.7 171.2 C 3.3 171.2 0.7 170.2 0.5 167.3 C 0.5 167.3 3.3 167.3 3.3 167.3 C 3.5 168.4 4.6 168.9 5.9 168.9 C 7 168.9 7.9 168.5 7.9 167.7 C 7.9 166.9 7.3 166.8 5.7 166.5 C 3.5 166.1 0.9 165.7 0.9 162.9 C 0.9 160.3 3.1 159.2 5.5 159.2 C 8.2 159.2 10.2 160.5 10.4 163.1 C 10.4 163.1 7.6 163.1 7.6 163.1 C 7.5 162 6.7 161.5 5.5 161.5 C 4.1 161.5 3.6 162.1 3.6 162.8 C 3.6 163.7 4.6 163.9 6 164.1 C 8.1 164.4 10.6 164.7 10.6 167.4 Z M 14 157.3 C 14.01 157.27 12.6 157.3 12.6 157.3 L 12.6 154.3 L 15.8 154.3 C 15.8 154.3 15.79 156.87 15.8 156.9 C 15.8 159.9 13.7 160.9 11.8 161.2 C 11.8 161.2 11.6 159.7 11.6 159.7 C 13.1 159.5 14 158.6 14 157.3 Z M 17.5 157.9 L 20.4 157.9 L 20.4 154.7 L 17.5 154.7 L 17.5 157.9 Z M 17.6 159.4 L 20.3 159.4 L 20.3 171 L 17.6 171 L 17.6 159.4 Z M 39.4 163.2 C 39.42 163.17 39.4 171 39.4 171 L 36.6 171 C 36.6 171 36.62 163.72 36.6 163.7 C 36.6 162.3 36 161.7 34.8 161.7 C 33.5 161.7 32.6 162.5 32.6 164.5 C 32.63 164.47 32.6 171 32.6 171 L 29.8 171 C 29.8 171 29.84 163.72 29.8 163.7 C 29.8 162.3 29.1 161.7 28 161.7 C 26.7 161.7 25.9 162.5 25.9 164.5 C 25.85 164.45 25.9 171 25.9 171 L 23.1 171 L 23.1 159.4 L 25.8 159.4 C 25.8 159.4 25.81 161.09 25.8 161.1 C 26.2 160.2 27 159.2 28.8 159.2 C 30.3 159.2 31.5 159.9 32 161.1 C 32.4 160.3 33.3 159.2 35.4 159.2 C 37.8 159.2 39.4 160.7 39.4 163.2 Z M 53.4 165 C 53.4 169.2 50.8 171.1 48.1 171.1 C 46.6 171.1 45.5 170.4 44.8 169.6 C 44.83 169.6 44.8 175.3 44.8 175.3 L 42 175.3 L 42 159.4 L 44.8 159.4 C 44.8 159.4 44.77 161.24 44.8 161.2 C 45.4 160 46.7 159.2 48.4 159.2 C 51.1 159.2 53.4 161.1 53.4 165 Z M 50.6 165.2 C 50.6 162.8 49.2 161.7 47.7 161.7 C 46.2 161.7 44.8 162.8 44.8 165.2 C 44.8 167.5 46.2 168.6 47.7 168.6 C 49.2 168.6 50.6 167.5 50.6 165.2 Z M 66 165.2 C 66 169 63.6 171.2 60.3 171.2 C 57.1 171.2 54.7 169 54.7 165.2 C 54.7 161.4 57.1 159.2 60.3 159.2 C 63.6 159.2 66 161.4 66 165.2 Z M 57.5 165.2 C 57.5 167.5 58.8 168.6 60.4 168.6 C 62 168.6 63.1 167.4 63.1 165.2 C 63.1 162.9 61.9 161.8 60.3 161.8 C 58.7 161.8 57.5 163 57.5 165.2 Z M 77.3 167.4 C 77.3 170 74.9 171.2 72.3 171.2 C 70 171.2 67.3 170.2 67.2 167.3 C 67.2 167.3 70 167.3 70 167.3 C 70.2 168.4 71.2 168.9 72.5 168.9 C 73.7 168.9 74.5 168.5 74.5 167.7 C 74.5 166.9 74 166.8 72.4 166.5 C 70.1 166.1 67.5 165.7 67.5 162.9 C 67.5 160.3 69.7 159.2 72.1 159.2 C 74.8 159.2 76.8 160.5 77 163.1 C 77 163.1 74.3 163.1 74.3 163.1 C 74.2 162 73.3 161.5 72.2 161.5 C 70.8 161.5 70.2 162.1 70.2 162.8 C 70.2 163.7 71.3 163.9 72.7 164.1 C 74.7 164.4 77.3 164.7 77.3 167.4 Z M 81.1 166 C 81.2 167.9 82.5 168.8 84.1 168.8 C 85.2 168.8 86.2 168.4 86.6 167.3 C 86.6 167.3 89.1 167.3 89.1 167.3 C 88.6 169.9 86.4 171.2 84 171.2 C 81.2 171.2 78.4 169.3 78.4 165.2 C 78.4 161.2 81 159.2 84 159.2 C 86.8 159.2 89.2 161 89.2 164.9 C 89.19 164.89 89.2 166 89.2 166 C 89.2 166 81.12 166.03 81.1 166 Z M 81.2 164 C 81.2 164 86.5 164 86.5 164 C 86.5 162.5 85.4 161.6 84 161.6 C 82.7 161.6 81.4 162.3 81.2 164 Z M 98 166 C 98 167.9 99.4 168.8 101 168.8 C 102.1 168.8 103.1 168.4 103.4 167.3 C 103.4 167.3 106 167.3 106 167.3 C 105.5 169.9 103.2 171.2 100.8 171.2 C 98 171.2 95.3 169.3 95.3 165.2 C 95.3 161.2 97.9 159.2 100.9 159.2 C 103.7 159.2 106 161 106 164.9 C 106.05 164.89 106 166 106 166 C 106 166 97.99 166.03 98 166 Z M 98 164 C 98 164 103.3 164 103.3 164 C 103.3 162.5 102.2 161.6 100.8 161.6 C 99.5 161.6 98.3 162.3 98 164 Z M 118.2 163.5 C 118.23 163.51 118.2 171 118.2 171 L 115.4 171 C 115.4 171 115.44 163.76 115.4 163.8 C 115.4 162.5 114.7 161.7 113.4 161.7 C 111.8 161.7 110.8 162.8 110.8 164.7 C 110.84 164.72 110.8 171 110.8 171 L 108 171 L 108 159.4 L 110.8 159.4 C 110.8 159.4 110.82 161.07 110.8 161.1 C 111.5 160 112.4 159.2 114.3 159.2 C 117 159.2 118.2 160.7 118.2 163.5 Z M 137.2 171 L 125.9 171 L 125.9 168.4 C 125.9 168.4 129.67 165.27 129.7 165.3 C 132.6 162.9 133.9 161.7 133.9 160.1 C 133.9 158.7 132.8 157.9 131.3 157.9 C 129.7 157.9 128.6 158.8 128.5 160.7 C 128.5 160.7 125.7 160.7 125.7 160.7 C 125.7 157.1 128.4 155.2 131.5 155.2 C 134.4 155.2 136.8 156.8 136.8 159.9 C 136.8 162.6 134.8 164.4 132 166.6 C 132.05 166.61 129.8 168.4 129.8 168.4 L 137.2 168.4 L 137.2 171 Z M 138.6 163.3 C 138.6 158.4 140.2 155.2 144.1 155.2 C 147.9 155.2 149.6 158.4 149.6 163.2 C 149.6 168.1 147.8 171.2 144 171.2 C 140.2 171.2 138.6 168.1 138.6 163.3 Z M 146.8 163.3 C 146.8 160.2 146 157.7 144 157.7 C 142.2 157.7 141.3 159.7 141.3 163.1 C 141.3 166.6 142.3 168.8 144.1 168.8 C 145.9 168.8 146.8 166.5 146.8 163.3 Z M 162.4 171 L 151.1 171 L 151.1 168.4 C 151.1 168.4 154.87 165.27 154.9 165.3 C 157.8 162.9 159.1 161.7 159.1 160.1 C 159.1 158.7 158 157.9 156.5 157.9 C 154.9 157.9 153.8 158.8 153.7 160.7 C 153.7 160.7 150.9 160.7 150.9 160.7 C 150.9 157.1 153.6 155.2 156.7 155.2 C 159.6 155.2 162 156.8 162 159.9 C 162 162.6 160 164.4 157.2 166.6 C 157.25 166.61 155 168.4 155 168.4 L 162.4 168.4 L 162.4 171 Z M 174.6 168.4 L 174.6 171 L 164.2 171 L 164.2 168.4 L 168 168.4 C 168 168.4 168 159.16 168 159.2 C 166.8 159.9 165.3 160.3 164.2 160.4 C 164.2 160.4 164.2 157.6 164.2 157.6 C 165.6 157.4 167.1 156.8 168.4 155.5 C 168.42 155.5 170.8 155.5 170.8 155.5 L 170.8 168.4 L 174.6 168.4 Z M 185.4 165.4 C 185.4 162.7 186.7 162.2 188 161.3 C 189 160.6 189.4 160 189.4 159.2 C 189.4 158 188.6 157.4 187.3 157.4 C 185.9 157.4 185 158.2 184.9 159.6 C 184.9 159.6 182.1 159.6 182.1 159.6 C 182.3 156.2 184.8 155 187.4 155 C 190.2 155 192.4 156.3 192.4 159.1 C 192.4 161.3 191 162.2 189.6 163.2 C 188.5 164 188 164.5 188 165.4 C 188.03 165.44 188 166.1 188 166.1 L 185.4 166.1 C 185.4 166.1 185.36 165.35 185.4 165.4 Z M 185.1 167.7 L 188.3 167.7 L 188.3 171 L 185.1 171 L 185.1 167.7 Z " stroke="none" fill="#000"/>  </g>  <g id="Polygon10533">    <path d="M 12.7 139.8 C 12.7 144 10.1 145.9 7.4 145.9 C 5.9 145.9 4.8 145.2 4.2 144.4 C 4.16 144.4 4.2 150.1 4.2 150.1 L 1.4 150.1 L 1.4 134.2 L 4.1 134.2 C 4.1 134.2 4.09 136.04 4.1 136 C 4.7 134.8 6 134 7.7 134 C 10.4 134 12.7 135.9 12.7 139.8 Z M 9.9 140 C 9.9 137.6 8.5 136.5 7 136.5 C 5.5 136.5 4.1 137.6 4.1 140 C 4.1 142.3 5.5 143.4 7 143.4 C 8.5 143.4 9.9 142.3 9.9 140 Z M 25.3 140 C 25.3 143.8 22.9 146 19.7 146 C 16.4 146 14 143.8 14 140 C 14 136.2 16.4 134 19.7 134 C 22.9 134 25.3 136.2 25.3 140 Z M 16.9 140 C 16.9 142.3 18.1 143.4 19.7 143.4 C 21.4 143.4 22.5 142.2 22.5 140 C 22.5 137.7 21.2 136.6 19.6 136.6 C 18 136.6 16.9 137.8 16.9 140 Z M 36.6 142.2 C 36.6 144.8 34.3 146 31.7 146 C 29.3 146 26.7 145 26.5 142.1 C 26.5 142.1 29.3 142.1 29.3 142.1 C 29.5 143.2 30.5 143.7 31.8 143.7 C 33 143.7 33.8 143.3 33.8 142.5 C 33.8 141.7 33.3 141.6 31.7 141.3 C 29.4 140.9 26.8 140.5 26.8 137.7 C 26.8 135.1 29 134 31.4 134 C 34.1 134 36.1 135.3 36.3 137.9 C 36.3 137.9 33.6 137.9 33.6 137.9 C 33.5 136.8 32.7 136.3 31.5 136.3 C 30.1 136.3 29.5 136.9 29.5 137.6 C 29.5 138.5 30.6 138.7 32 138.9 C 34.1 139.2 36.6 139.5 36.6 142.2 Z M 38.4 132.7 L 41.3 132.7 L 41.3 129.5 L 38.4 129.5 L 38.4 132.7 Z M 38.5 134.2 L 41.2 134.2 L 41.2 145.8 L 38.5 145.8 L 38.5 134.2 Z M 49.9 145.8 C 49.9 145.8 48.05 145.78 48 145.8 C 45.9 145.8 44.5 145.1 44.5 142 C 44.5 142 44.5 136.7 44.5 136.7 L 42.4 136.7 L 42.4 134.2 L 44.5 134.2 L 44.5 131.6 L 47.3 130.8 L 47.3 134.2 L 49.6 134.2 L 49.6 136.7 L 47.3 136.7 C 47.3 136.7 47.29 142.13 47.3 142.1 C 47.3 142.8 47.5 143.3 48.5 143.3 C 48.47 143.3 49.9 143.3 49.9 143.3 L 49.9 145.8 Z M 51.3 132.7 L 54.3 132.7 L 54.3 129.5 L 51.3 129.5 L 51.3 132.7 Z M 51.4 134.2 L 54.2 134.2 L 54.2 145.8 L 51.4 145.8 L 51.4 134.2 Z M 67.5 140 C 67.5 143.8 65.1 146 61.8 146 C 58.6 146 56.2 143.8 56.2 140 C 56.2 136.2 58.6 134 61.8 134 C 65.1 134 67.5 136.2 67.5 140 Z M 59.1 140 C 59.1 142.3 60.3 143.4 61.9 143.4 C 63.5 143.4 64.7 142.2 64.7 140 C 64.7 137.7 63.4 136.6 61.8 136.6 C 60.2 136.6 59.1 137.8 59.1 140 Z M 79.7 138.3 C 79.69 138.31 79.7 145.8 79.7 145.8 L 76.9 145.8 C 76.9 145.8 76.9 138.56 76.9 138.6 C 76.9 137.3 76.2 136.5 74.9 136.5 C 73.3 136.5 72.3 137.6 72.3 139.5 C 72.3 139.52 72.3 145.8 72.3 145.8 L 69.5 145.8 L 69.5 134.2 L 72.3 134.2 C 72.3 134.2 72.28 135.87 72.3 135.9 C 72.9 134.8 73.9 134 75.8 134 C 78.5 134 79.7 135.5 79.7 138.3 Z M 92.5 138.3 C 92.5 138.31 92.5 145.8 92.5 145.8 L 89.7 145.8 C 89.7 145.8 89.71 138.56 89.7 138.6 C 89.7 137.3 89 136.5 87.7 136.5 C 86.1 136.5 85.1 137.6 85.1 139.5 C 85.11 139.52 85.1 145.8 85.1 145.8 L 82.3 145.8 L 82.3 134.2 L 85.1 134.2 C 85.1 134.2 85.09 135.87 85.1 135.9 C 85.7 134.8 86.7 134 88.6 134 C 91.3 134 92.5 135.5 92.5 138.3 Z M 97.1 140.8 C 97.2 142.7 98.5 143.6 100.1 143.6 C 101.2 143.6 102.2 143.2 102.6 142.1 C 102.6 142.1 105.1 142.1 105.1 142.1 C 104.6 144.7 102.3 146 100 146 C 97.2 146 94.4 144.1 94.4 140 C 94.4 136 97 134 100 134 C 102.8 134 105.2 135.8 105.2 139.7 C 105.17 139.69 105.2 140.8 105.2 140.8 C 105.2 140.8 97.1 140.83 97.1 140.8 Z M 97.2 138.8 C 97.2 138.8 102.4 138.8 102.4 138.8 C 102.4 137.3 101.4 136.4 99.9 136.4 C 98.7 136.4 97.4 137.1 97.2 138.8 Z M 123.5 138 C 123.52 137.97 123.5 145.8 123.5 145.8 L 120.7 145.8 C 120.7 145.8 120.73 138.52 120.7 138.5 C 120.7 137.1 120.1 136.5 118.9 136.5 C 117.6 136.5 116.7 137.3 116.7 139.3 C 116.74 139.27 116.7 145.8 116.7 145.8 L 113.9 145.8 C 113.9 145.8 113.94 138.52 113.9 138.5 C 113.9 137.1 113.3 136.5 112.1 136.5 C 110.8 136.5 110 137.3 110 139.3 C 109.95 139.25 110 145.8 110 145.8 L 107.2 145.8 L 107.2 134.2 L 109.9 134.2 C 109.9 134.2 109.91 135.89 109.9 135.9 C 110.3 135 111.2 134 112.9 134 C 114.4 134 115.6 134.7 116.1 135.9 C 116.5 135.1 117.4 134 119.5 134 C 121.9 134 123.5 135.5 123.5 138 Z M 128.1 140.8 C 128.2 142.7 129.5 143.6 131.1 143.6 C 132.2 143.6 133.2 143.2 133.6 142.1 C 133.6 142.1 136.1 142.1 136.1 142.1 C 135.6 144.7 133.3 146 131 146 C 128.2 146 125.4 144.1 125.4 140 C 125.4 136 128 134 131 134 C 133.8 134 136.2 135.8 136.2 139.7 C 136.18 139.69 136.2 140.8 136.2 140.8 C 136.2 140.8 128.12 140.83 128.1 140.8 Z M 128.2 138.8 C 128.2 138.8 133.5 138.8 133.5 138.8 C 133.5 137.3 132.4 136.4 131 136.4 C 129.7 136.4 128.4 137.1 128.2 138.8 Z M 148.4 138.3 C 148.36 138.31 148.4 145.8 148.4 145.8 L 145.6 145.8 C 145.6 145.8 145.57 138.56 145.6 138.6 C 145.6 137.3 144.8 136.5 143.5 136.5 C 141.9 136.5 141 137.6 141 139.5 C 140.97 139.52 141 145.8 141 145.8 L 138.2 145.8 L 138.2 134.2 L 141 134.2 C 141 134.2 140.95 135.87 141 135.9 C 141.6 134.8 142.5 134 144.5 134 C 147.1 134 148.4 135.5 148.4 138.3 Z M 156.9 145.8 C 156.9 145.8 155.08 145.78 155.1 145.8 C 152.9 145.8 151.5 145.1 151.5 142 C 151.53 142 151.5 136.7 151.5 136.7 L 149.4 136.7 L 149.4 134.2 L 151.5 134.2 L 151.5 131.6 L 154.3 130.8 L 154.3 134.2 L 156.6 134.2 L 156.6 136.7 L 154.3 136.7 C 154.3 136.7 154.33 142.13 154.3 142.1 C 154.3 142.8 154.5 143.3 155.5 143.3 C 155.5 143.3 156.9 143.3 156.9 143.3 L 156.9 145.8 Z M 174.2 145.8 L 171.4 145.8 C 171.4 145.8 171.44 144 171.4 144 C 170.8 145.3 169.5 146 167.9 146 C 165.2 146 162.8 144 162.8 140 C 162.8 136 165.2 134 167.9 134 C 169.4 134 170.7 134.6 171.4 135.7 C 171.38 135.72 171.4 129.8 171.4 129.8 L 174.2 129.8 L 174.2 145.8 Z M 171.5 140 C 171.5 137.6 170 136.5 168.5 136.5 C 167 136.5 165.6 137.6 165.6 140 C 165.6 142.3 167 143.5 168.5 143.5 C 170 143.5 171.5 142.3 171.5 140 Z M 178.9 140.8 C 178.9 142.7 180.3 143.6 181.9 143.6 C 182.9 143.6 184 143.2 184.3 142.1 C 184.3 142.1 186.9 142.1 186.9 142.1 C 186.4 144.7 184.1 146 181.7 146 C 178.9 146 176.2 144.1 176.2 140 C 176.2 136 178.8 134 181.8 134 C 184.6 134 186.9 135.8 186.9 139.7 C 186.94 139.69 186.9 140.8 186.9 140.8 C 186.9 140.8 178.88 140.83 178.9 140.8 Z M 178.9 138.8 C 178.9 138.8 184.2 138.8 184.2 138.8 C 184.2 137.3 183.1 136.4 181.7 136.4 C 180.4 136.4 179.2 137.1 178.9 138.8 Z M 198.7 146 C 194.9 146 193 143.1 193 140 C 193 136.9 194.8 134 198.6 134 C 201.5 134 203.7 135.6 203.8 138.4 C 203.8 138.4 201 138.4 201 138.4 C 200.9 137.3 200.1 136.5 198.7 136.5 C 196.7 136.5 195.8 138.2 195.8 140 C 195.8 141.9 196.7 143.4 198.7 143.4 C 200 143.4 200.9 142.7 201.1 141.7 C 201.1 141.7 203.8 141.7 203.8 141.7 C 203.5 144.5 201.5 146 198.7 146 Z M 216 138.3 C 216.02 138.31 216 145.8 216 145.8 L 213.2 145.8 C 213.2 145.8 213.23 138.56 213.2 138.6 C 213.2 137.3 212.5 136.5 211.2 136.5 C 209.6 136.5 208.6 137.6 208.6 139.5 C 208.63 139.52 208.6 145.8 208.6 145.8 L 205.8 145.8 L 205.8 129.8 L 208.6 129.8 C 208.6 129.8 208.63 135.83 208.6 135.8 C 209.3 134.7 210.3 134 212.1 134 C 214.8 134 216 135.5 216 138.3 Z M 227.9 138 C 227.91 137.99 227.9 145.8 227.9 145.8 L 225.2 145.8 C 225.2 145.8 225.18 144.1 225.2 144.1 C 224.3 145.6 222.9 146 221.7 146 C 219.8 146 217.9 144.9 217.9 142.4 C 217.9 140.6 218.9 139.4 221.6 139 C 221.6 139 224.1 138.6 224.1 138.6 C 224.8 138.5 225.3 138.3 225.3 137.6 C 225.3 136.6 224.4 136.2 223.3 136.2 C 221.8 136.2 221.2 136.9 221.1 137.9 C 221.1 137.9 218.4 137.9 218.4 137.9 C 218.7 135.2 220.8 134 223.5 134 C 226.2 134 227.9 135.3 227.9 138 Z M 225.2 140.9 C 225.2 140.9 225.2 140.3 225.2 140.3 C 224.9 140.4 224.4 140.6 223.8 140.6 C 223.8 140.6 222.6 140.8 222.6 140.8 C 221.2 141 220.7 141.6 220.7 142.3 C 220.7 143.2 221.4 143.7 222.3 143.7 C 223.8 143.7 225.2 142.6 225.2 140.9 Z M 240.6 138.3 C 240.62 138.31 240.6 145.8 240.6 145.8 L 237.8 145.8 C 237.8 145.8 237.82 138.56 237.8 138.6 C 237.8 137.3 237.1 136.5 235.8 136.5 C 234.2 136.5 233.2 137.6 233.2 139.5 C 233.22 139.52 233.2 145.8 233.2 145.8 L 230.4 145.8 L 230.4 134.2 L 233.2 134.2 C 233.2 134.2 233.2 135.87 233.2 135.9 C 233.9 134.8 234.8 134 236.7 134 C 239.4 134 240.6 135.5 240.6 138.3 Z M 253.7 145 C 253.7 148.7 251.3 150.4 248.2 150.4 C 245.3 150.4 243 149 242.7 146.1 C 242.7 146.1 245.4 146.1 245.4 146.1 C 245.7 147.6 246.9 148 248.2 148 C 250 148 251 147.1 251 145.3 C 251 145.3 251 143.4 251 143.4 C 250.5 144.6 249.3 145.4 247.6 145.4 C 245 145.4 242.5 143.6 242.5 139.7 C 242.5 135.8 245 134 247.6 134 C 249.2 134 250.4 134.7 251 135.8 C 250.99 135.81 251 134.2 251 134.2 L 253.7 134.2 C 253.7 134.2 253.68 145 253.7 145 Z M 250.9 139.7 C 250.9 137.5 249.7 136.4 248.2 136.4 C 246.6 136.4 245.3 137.5 245.3 139.7 C 245.3 141.9 246.6 142.9 248.2 142.9 C 249.7 142.9 250.9 141.9 250.9 139.7 Z M 258.3 140.8 C 258.3 142.7 259.7 143.6 261.3 143.6 C 262.3 143.6 263.4 143.2 263.7 142.1 C 263.7 142.1 266.3 142.1 266.3 142.1 C 265.8 144.7 263.5 146 261.1 146 C 258.3 146 255.6 144.1 255.6 140 C 255.6 136 258.2 134 261.2 134 C 264 134 266.3 135.8 266.3 139.7 C 266.34 139.69 266.3 140.8 266.3 140.8 C 266.3 140.8 258.28 140.83 258.3 140.8 Z M 258.3 138.8 C 258.3 138.8 263.6 138.8 263.6 138.8 C 263.6 137.3 262.5 136.4 261.1 136.4 C 259.8 136.4 258.6 137.1 258.3 138.8 Z M 283.8 134.2 L 283.8 150.1 L 281 150.1 C 281 150.1 281.02 144.06 281 144.1 C 280.3 145.2 279.2 145.9 277.6 145.9 C 274.9 145.9 272.4 144 272.4 139.9 C 272.4 135.9 274.8 134 277.5 134 C 279 134 280.4 134.6 281.1 135.8 C 281.08 135.83 281.1 134.2 281.1 134.2 L 283.8 134.2 Z M 281.1 139.9 C 281.1 137.5 279.7 136.5 278.2 136.5 C 276.7 136.5 275.3 137.5 275.3 139.9 C 275.3 142.2 276.7 143.3 278.2 143.3 C 279.7 143.3 281.1 142.3 281.1 139.9 Z M 296.6 145.8 L 293.8 145.8 C 293.8 145.8 293.85 144.14 293.8 144.1 C 293.2 145.2 292.1 145.9 290.5 145.9 C 288.1 145.9 286.3 144.4 286.3 141.4 C 286.33 141.39 286.3 134.2 286.3 134.2 L 289.1 134.2 C 289.1 134.2 289.12 141.18 289.1 141.2 C 289.1 142.8 289.9 143.4 291.1 143.4 C 292.7 143.4 293.8 142.5 293.8 139.8 C 293.79 139.8 293.8 134.2 293.8 134.2 L 296.6 134.2 L 296.6 145.8 Z M 299.2 132.7 L 302.2 132.7 L 302.2 129.5 L 299.2 129.5 L 299.2 132.7 Z M 299.3 134.2 L 302.1 134.2 L 302.1 145.8 L 299.3 145.8 L 299.3 134.2 Z " stroke="none" fill="#000"/>  </g>  <g id="Polygon10532">    <path d="M 3.3 115.6 C 3.4 117.5 4.7 118.4 6.3 118.4 C 7.4 118.4 8.5 118 8.8 116.9 C 8.8 116.9 11.4 116.9 11.4 116.9 C 10.9 119.5 8.6 120.8 6.2 120.8 C 3.4 120.8 0.6 118.9 0.6 114.8 C 0.6 110.8 3.3 108.8 6.2 108.8 C 9 108.8 11.4 110.6 11.4 114.5 C 11.4 114.49 11.4 115.6 11.4 115.6 C 11.4 115.6 3.34 115.63 3.3 115.6 Z M 3.4 113.6 C 3.4 113.6 8.7 113.6 8.7 113.6 C 8.7 112.1 7.6 111.2 6.2 111.2 C 4.9 111.2 3.7 111.9 3.4 113.6 Z M 23.6 113.1 C 23.58 113.11 23.6 120.6 23.6 120.6 L 20.8 120.6 C 20.8 120.6 20.79 113.36 20.8 113.4 C 20.8 112.1 20.1 111.3 18.8 111.3 C 17.2 111.3 16.2 112.4 16.2 114.3 C 16.19 114.32 16.2 120.6 16.2 120.6 L 13.4 120.6 L 13.4 109 L 16.2 109 C 16.2 109 16.17 110.67 16.2 110.7 C 16.8 109.6 17.8 108.8 19.7 108.8 C 22.3 108.8 23.6 110.3 23.6 113.1 Z M 33.4 115.6 C 33.5 117.5 34.8 118.4 36.4 118.4 C 37.5 118.4 38.6 118 38.9 116.9 C 38.9 116.9 41.5 116.9 41.5 116.9 C 40.9 119.5 38.7 120.8 36.3 120.8 C 33.5 120.8 30.7 118.9 30.7 114.8 C 30.7 110.8 33.3 108.8 36.3 108.8 C 39.1 108.8 41.5 110.6 41.5 114.5 C 41.5 114.49 41.5 115.6 41.5 115.6 C 41.5 115.6 33.43 115.63 33.4 115.6 Z M 33.5 113.6 C 33.5 113.6 38.8 113.6 38.8 113.6 C 38.8 112.1 37.7 111.2 36.3 111.2 C 35 111.2 33.7 111.9 33.5 113.6 Z M 53.6 120.6 L 50.9 120.6 C 50.9 120.6 50.9 118.94 50.9 118.9 C 50.2 120 49.2 120.7 47.6 120.7 C 45.1 120.7 43.4 119.2 43.4 116.2 C 43.39 116.19 43.4 109 43.4 109 L 46.2 109 C 46.2 109 46.18 115.98 46.2 116 C 46.2 117.6 47 118.2 48.2 118.2 C 49.7 118.2 50.8 117.3 50.8 114.6 C 50.84 114.6 50.8 109 50.8 109 L 53.6 109 L 53.6 120.6 Z M 62.9 111.6 C 62.9 111.6 62.18 111.57 62.2 111.6 C 60.2 111.6 59.2 112.6 59.2 114.9 C 59.16 114.91 59.2 120.6 59.2 120.6 L 56.4 120.6 L 56.4 109 L 59.1 109 C 59.1 109 59.14 110.65 59.1 110.6 C 59.7 109.4 60.8 108.9 62.2 108.9 C 62.16 108.86 62.9 108.9 62.9 108.9 L 62.9 111.6 Z M 74.7 114.8 C 74.7 118.6 72.2 120.8 69 120.8 C 65.8 120.8 63.3 118.6 63.3 114.8 C 63.3 111 65.8 108.8 69 108.8 C 72.2 108.8 74.7 111 74.7 114.8 Z M 66.2 114.8 C 66.2 117.1 67.5 118.2 69 118.2 C 70.7 118.2 71.8 117 71.8 114.8 C 71.8 112.5 70.5 111.4 69 111.4 C 67.3 111.4 66.2 112.6 66.2 114.8 Z M 78.1 120.4 C 78.14 120.39 76.7 120.4 76.7 120.4 L 76.7 117.5 L 79.9 117.5 C 79.9 117.5 79.93 119.99 79.9 120 C 79.9 123 77.9 124.1 76 124.3 C 76 124.3 75.7 122.8 75.7 122.8 C 77.2 122.6 78.1 121.7 78.1 120.4 Z M 97.2 109 L 97.2 124.9 L 94.4 124.9 C 94.4 124.9 94.39 118.86 94.4 118.9 C 93.7 120 92.5 120.7 91 120.7 C 88.2 120.7 85.8 118.8 85.8 114.7 C 85.8 110.7 88.1 108.8 90.8 108.8 C 92.4 108.8 93.8 109.4 94.5 110.6 C 94.46 110.63 94.5 109 94.5 109 L 97.2 109 Z M 94.5 114.7 C 94.5 112.3 93.1 111.3 91.5 111.3 C 90 111.3 88.6 112.3 88.6 114.7 C 88.6 117 90 118.1 91.5 118.1 C 93.1 118.1 94.5 117.1 94.5 114.7 Z M 110 120.6 L 107.2 120.6 C 107.2 120.6 107.23 118.94 107.2 118.9 C 106.6 120 105.5 120.7 103.9 120.7 C 101.5 120.7 99.7 119.2 99.7 116.2 C 99.71 116.19 99.7 109 99.7 109 L 102.5 109 C 102.5 109 102.5 115.98 102.5 116 C 102.5 117.6 103.3 118.2 104.5 118.2 C 106 118.2 107.2 117.3 107.2 114.6 C 107.16 114.6 107.2 109 107.2 109 L 110 109 L 110 120.6 Z M 114.7 115.6 C 114.7 117.5 116.1 118.4 117.6 118.4 C 118.7 118.4 119.8 118 120.1 116.9 C 120.1 116.9 122.7 116.9 122.7 116.9 C 122.2 119.5 119.9 120.8 117.5 120.8 C 114.7 120.8 112 118.9 112 114.8 C 112 110.8 114.6 108.8 117.5 108.8 C 120.4 108.8 122.7 110.6 122.7 114.5 C 122.72 114.49 122.7 115.6 122.7 115.6 C 122.7 115.6 114.66 115.63 114.7 115.6 Z M 114.7 113.6 C 114.7 113.6 120 113.6 120 113.6 C 120 112.1 118.9 111.2 117.5 111.2 C 116.2 111.2 115 111.9 114.7 113.6 Z M 127.5 120.6 L 124.7 120.6 L 124.7 104.6 L 127.5 104.6 L 127.5 120.6 Z M 137.5 115.6 C 137.5 117.5 138.9 118.4 140.4 118.4 C 141.5 118.4 142.6 118 142.9 116.9 C 142.9 116.9 145.5 116.9 145.5 116.9 C 145 119.5 142.7 120.8 140.3 120.8 C 137.5 120.8 134.8 118.9 134.8 114.8 C 134.8 110.8 137.4 108.8 140.3 108.8 C 143.2 108.8 145.5 110.6 145.5 114.5 C 145.53 114.49 145.5 115.6 145.5 115.6 C 145.5 115.6 137.46 115.63 137.5 115.6 Z M 137.5 113.6 C 137.5 113.6 142.8 113.6 142.8 113.6 C 142.8 112.1 141.7 111.2 140.3 111.2 C 139 111.2 137.8 111.9 137.5 113.6 Z M 156.8 117 C 156.8 119.6 154.5 120.8 151.9 120.8 C 149.5 120.8 146.9 119.8 146.7 116.9 C 146.7 116.9 149.5 116.9 149.5 116.9 C 149.7 118 150.7 118.5 152 118.5 C 153.2 118.5 154 118.1 154 117.3 C 154 116.5 153.5 116.4 151.9 116.1 C 149.6 115.7 147 115.3 147 112.5 C 147 109.9 149.2 108.8 151.6 108.8 C 154.3 108.8 156.3 110.1 156.5 112.7 C 156.5 112.7 153.8 112.7 153.8 112.7 C 153.7 111.6 152.9 111.1 151.7 111.1 C 150.3 111.1 149.7 111.7 149.7 112.4 C 149.7 113.3 150.8 113.5 152.2 113.7 C 154.3 114 156.8 114.3 156.8 117 Z M 164.6 120.6 C 164.6 120.6 162.77 120.58 162.8 120.6 C 160.6 120.6 159.2 119.9 159.2 116.8 C 159.22 116.8 159.2 111.5 159.2 111.5 L 157.1 111.5 L 157.1 109 L 159.2 109 L 159.2 106.4 L 162 105.6 L 162 109 L 164.3 109 L 164.3 111.5 L 162 111.5 C 162 111.5 162.01 116.93 162 116.9 C 162 117.6 162.2 118.1 163.2 118.1 C 163.19 118.1 164.6 118.1 164.6 118.1 L 164.6 120.6 Z M 174.4 120.6 L 171.6 120.6 L 171.6 104.6 L 174.4 104.6 L 174.4 120.6 Z M 179.1 115.6 C 179.2 117.5 180.5 118.4 182.1 118.4 C 183.2 118.4 184.3 118 184.6 116.9 C 184.6 116.9 187.2 116.9 187.2 116.9 C 186.6 119.5 184.4 120.8 182 120.8 C 179.2 120.8 176.4 118.9 176.4 114.8 C 176.4 110.8 179 108.8 182 108.8 C 184.8 108.8 187.2 110.6 187.2 114.5 C 187.19 114.49 187.2 115.6 187.2 115.6 C 187.2 115.6 179.13 115.63 179.1 115.6 Z M 179.2 113.6 C 179.2 113.6 184.5 113.6 184.5 113.6 C 184.5 112.1 183.4 111.2 182 111.2 C 180.7 111.2 179.4 111.9 179.2 113.6 Z " stroke="none" fill="#000"/>  </g>  <g id="Polygon10531">    <path d="M 3.3 90.4 C 3.4 92.3 4.7 93.2 6.3 93.2 C 7.4 93.2 8.5 92.8 8.8 91.7 C 8.8 91.7 11.4 91.7 11.4 91.7 C 10.9 94.3 8.6 95.6 6.2 95.6 C 3.4 95.6 0.6 93.7 0.6 89.6 C 0.6 85.6 3.3 83.6 6.2 83.6 C 9 83.6 11.4 85.4 11.4 89.3 C 11.4 89.29 11.4 90.4 11.4 90.4 C 11.4 90.4 3.34 90.43 3.3 90.4 Z M 3.4 88.4 C 3.4 88.4 8.7 88.4 8.7 88.4 C 8.7 86.9 7.6 86 6.2 86 C 4.9 86 3.7 86.7 3.4 88.4 Z M 23.6 87.9 C 23.58 87.91 23.6 95.4 23.6 95.4 L 20.8 95.4 C 20.8 95.4 20.79 88.16 20.8 88.2 C 20.8 86.9 20.1 86.1 18.8 86.1 C 17.2 86.1 16.2 87.2 16.2 89.1 C 16.19 89.12 16.2 95.4 16.2 95.4 L 13.4 95.4 L 13.4 83.8 L 16.2 83.8 C 16.2 83.8 16.17 85.47 16.2 85.5 C 16.8 84.4 17.8 83.6 19.7 83.6 C 22.3 83.6 23.6 85.1 23.6 87.9 Z M 42.6 95.4 L 31.2 95.4 L 31.2 92.8 C 31.2 92.8 35.03 89.67 35 89.7 C 37.9 87.3 39.2 86.1 39.2 84.5 C 39.2 83.1 38.2 82.3 36.7 82.3 C 35.1 82.3 33.9 83.2 33.9 85.1 C 33.9 85.1 31.1 85.1 31.1 85.1 C 31.1 81.5 33.7 79.6 36.8 79.6 C 39.7 79.6 42.1 81.2 42.1 84.3 C 42.1 87 40.2 88.8 37.4 91 C 37.4 91.01 35.2 92.8 35.2 92.8 L 42.6 92.8 L 42.6 95.4 Z M 43.9 87.7 C 43.9 82.8 45.6 79.6 49.4 79.6 C 53.2 79.6 54.9 82.8 54.9 87.6 C 54.9 92.5 53.2 95.6 49.4 95.6 C 45.6 95.6 43.9 92.5 43.9 87.7 Z M 52.1 87.7 C 52.1 84.6 51.3 82.1 49.3 82.1 C 47.6 82.1 46.7 84.1 46.7 87.5 C 46.7 91 47.6 93.2 49.4 93.2 C 51.3 93.2 52.1 90.9 52.1 87.7 Z M 67.8 95.4 L 56.4 95.4 L 56.4 92.8 C 56.4 92.8 60.23 89.67 60.2 89.7 C 63.1 87.3 64.4 86.1 64.4 84.5 C 64.4 83.1 63.4 82.3 61.9 82.3 C 60.3 82.3 59.1 83.2 59.1 85.1 C 59.1 85.1 56.3 85.1 56.3 85.1 C 56.3 81.5 58.9 79.6 62 79.6 C 64.9 79.6 67.3 81.2 67.3 84.3 C 67.3 87 65.4 88.8 62.6 91 C 62.6 91.01 60.4 92.8 60.4 92.8 L 67.8 92.8 L 67.8 95.4 Z M 79.9 92.8 L 79.9 95.4 L 69.6 95.4 L 69.6 92.8 L 73.4 92.8 C 73.4 92.8 73.35 83.56 73.4 83.6 C 72.1 84.3 70.7 84.7 69.6 84.8 C 69.6 84.8 69.6 82 69.6 82 C 71 81.8 72.5 81.2 73.8 79.9 C 73.77 79.9 76.1 79.9 76.1 79.9 L 76.1 92.8 L 79.9 92.8 Z M 81.5 92.1 L 84.7 92.1 L 84.7 95.4 L 81.5 95.4 L 81.5 92.1 Z M 103.7 84.3 C 103.7 86.9 101.9 89.4 98.3 89.4 C 98.28 89.35 95 89.4 95 89.4 L 95 95.4 L 92.1 95.4 L 92.1 79.6 C 92.1 79.6 98.55 79.63 98.6 79.6 C 102 79.6 103.7 81.9 103.7 84.3 Z M 100.8 84.5 C 100.8 83.3 100 82.4 98.5 82.4 C 98.47 82.36 95 82.4 95 82.4 L 95 86.6 C 95 86.6 98.36 86.62 98.4 86.6 C 100 86.6 100.8 85.7 100.8 84.5 Z M 115.5 89.6 C 115.5 93.4 113 95.6 109.8 95.6 C 106.6 95.6 104.1 93.4 104.1 89.6 C 104.1 85.8 106.6 83.6 109.8 83.6 C 113 83.6 115.5 85.8 115.5 89.6 Z M 107 89.6 C 107 91.9 108.3 93 109.8 93 C 111.5 93 112.6 91.8 112.6 89.6 C 112.6 87.3 111.3 86.2 109.8 86.2 C 108.1 86.2 107 87.4 107 89.6 Z M 127.6 95.4 L 124.9 95.4 C 124.9 95.4 124.86 93.74 124.9 93.7 C 124.2 94.8 123.1 95.5 121.5 95.5 C 119.1 95.5 117.3 94 117.3 91 C 117.35 90.99 117.3 83.8 117.3 83.8 L 120.1 83.8 C 120.1 83.8 120.14 90.78 120.1 90.8 C 120.1 92.4 120.9 93 122.1 93 C 123.7 93 124.8 92.1 124.8 89.4 C 124.8 89.4 124.8 83.8 124.8 83.8 L 127.6 83.8 L 127.6 95.4 Z M 136.9 86.4 C 136.9 86.4 136.14 86.37 136.1 86.4 C 134.2 86.4 133.1 87.4 133.1 89.7 C 133.12 89.71 133.1 95.4 133.1 95.4 L 130.3 95.4 L 130.3 83.8 L 133.1 83.8 C 133.1 83.8 133.1 85.45 133.1 85.4 C 133.7 84.2 134.8 83.7 136.1 83.7 C 136.12 83.66 136.9 83.7 136.9 83.7 L 136.9 86.4 Z M 153.4 95.4 L 150.7 95.4 C 150.7 95.4 150.69 93.74 150.7 93.7 C 150 94.8 149 95.5 147.4 95.5 C 144.9 95.5 143.2 94 143.2 91 C 143.18 90.99 143.2 83.8 143.2 83.8 L 146 83.8 C 146 83.8 145.97 90.78 146 90.8 C 146 92.4 146.7 93 147.9 93 C 149.5 93 150.6 92.1 150.6 89.4 C 150.63 89.4 150.6 83.8 150.6 83.8 L 153.4 83.8 L 153.4 95.4 Z M 166.3 87.9 C 166.34 87.91 166.3 95.4 166.3 95.4 L 163.5 95.4 C 163.5 95.4 163.55 88.16 163.5 88.2 C 163.5 86.9 162.8 86.1 161.5 86.1 C 159.9 86.1 158.9 87.2 158.9 89.1 C 158.95 89.12 158.9 95.4 158.9 95.4 L 156.2 95.4 L 156.2 83.8 L 158.9 83.8 C 158.9 83.8 158.93 85.47 158.9 85.5 C 159.6 84.4 160.5 83.6 162.5 83.6 C 165.1 83.6 166.3 85.1 166.3 87.9 Z M 174.5 82.3 L 177.5 82.3 L 177.5 79.1 L 174.5 79.1 L 174.5 82.3 Z M 174.6 83.8 L 177.4 83.8 L 177.4 95.4 L 174.6 95.4 L 174.6 83.8 Z M 190.3 87.9 C 190.3 87.91 190.3 95.4 190.3 95.4 L 187.5 95.4 C 187.5 95.4 187.51 88.16 187.5 88.2 C 187.5 86.9 186.8 86.1 185.5 86.1 C 183.9 86.1 182.9 87.2 182.9 89.1 C 182.91 89.12 182.9 95.4 182.9 95.4 L 180.1 95.4 L 180.1 83.8 L 182.9 83.8 C 182.9 83.8 182.89 85.47 182.9 85.5 C 183.5 84.4 184.5 83.6 186.4 83.6 C 189.1 83.6 190.3 85.1 190.3 87.9 Z M 198.8 95.4 L 195.8 95.4 L 191.6 83.8 L 194.5 83.8 L 197.4 92.1 L 200.2 83.8 L 203.1 83.8 L 198.8 95.4 Z M 206.2 90.4 C 206.3 92.3 207.6 93.2 209.2 93.2 C 210.3 93.2 211.4 92.8 211.7 91.7 C 211.7 91.7 214.3 91.7 214.3 91.7 C 213.8 94.3 211.5 95.6 209.1 95.6 C 206.3 95.6 203.5 93.7 203.5 89.6 C 203.5 85.6 206.2 83.6 209.1 83.6 C 211.9 83.6 214.3 85.4 214.3 89.3 C 214.3 89.29 214.3 90.4 214.3 90.4 C 214.3 90.4 206.24 90.43 206.2 90.4 Z M 206.3 88.4 C 206.3 88.4 211.6 88.4 211.6 88.4 C 211.6 86.9 210.5 86 209.1 86 C 207.8 86 206.6 86.7 206.3 88.4 Z M 225.6 91.8 C 225.6 94.4 223.2 95.6 220.6 95.6 C 218.2 95.6 215.6 94.6 215.5 91.7 C 215.5 91.7 218.3 91.7 218.3 91.7 C 218.5 92.8 219.5 93.3 220.8 93.3 C 222 93.3 222.8 92.9 222.8 92.1 C 222.8 91.3 222.3 91.2 220.7 90.9 C 218.4 90.5 215.8 90.1 215.8 87.3 C 215.8 84.7 218 83.6 220.4 83.6 C 223.1 83.6 225.1 84.9 225.3 87.5 C 225.3 87.5 222.6 87.5 222.6 87.5 C 222.4 86.4 221.6 85.9 220.5 85.9 C 219.1 85.9 218.5 86.5 218.5 87.2 C 218.5 88.1 219.6 88.3 221 88.5 C 223 88.8 225.6 89.1 225.6 91.8 Z M 233.4 95.4 C 233.4 95.4 231.54 95.38 231.5 95.4 C 229.4 95.4 228 94.7 228 91.6 C 227.99 91.6 228 86.3 228 86.3 L 225.9 86.3 L 225.9 83.8 L 228 83.8 L 228 81.2 L 230.8 80.4 L 230.8 83.8 L 233.1 83.8 L 233.1 86.3 L 230.8 86.3 C 230.8 86.3 230.79 91.73 230.8 91.7 C 230.8 92.4 231 92.9 232 92.9 C 231.96 92.9 233.4 92.9 233.4 92.9 L 233.4 95.4 Z M 234.8 82.3 L 237.8 82.3 L 237.8 79.1 L 234.8 79.1 L 234.8 82.3 Z M 234.9 83.8 L 237.7 83.8 L 237.7 95.4 L 234.9 95.4 L 234.9 83.8 Z M 249.7 91.8 C 249.7 94.4 247.4 95.6 244.8 95.6 C 242.4 95.6 239.8 94.6 239.6 91.7 C 239.6 91.7 242.4 91.7 242.4 91.7 C 242.6 92.8 243.6 93.3 244.9 93.3 C 246.1 93.3 246.9 92.9 246.9 92.1 C 246.9 91.3 246.4 91.2 244.8 90.9 C 242.5 90.5 239.9 90.1 239.9 87.3 C 239.9 84.7 242.1 83.6 244.5 83.6 C 247.2 83.6 249.2 84.9 249.4 87.5 C 249.4 87.5 246.7 87.5 246.7 87.5 C 246.6 86.4 245.8 85.9 244.6 85.9 C 243.2 85.9 242.7 86.5 242.7 87.2 C 242.7 88.1 243.7 88.3 245.1 88.5 C 247.2 88.8 249.7 89.1 249.7 91.8 Z M 260.8 91.8 C 260.8 94.4 258.5 95.6 255.9 95.6 C 253.5 95.6 250.9 94.6 250.7 91.7 C 250.7 91.7 253.5 91.7 253.5 91.7 C 253.7 92.8 254.8 93.3 256.1 93.3 C 257.2 93.3 258.1 92.9 258.1 92.1 C 258.1 91.3 257.5 91.2 255.9 90.9 C 253.7 90.5 251.1 90.1 251.1 87.3 C 251.1 84.7 253.3 83.6 255.7 83.6 C 258.4 83.6 260.4 84.9 260.6 87.5 C 260.6 87.5 257.8 87.5 257.8 87.5 C 257.7 86.4 256.9 85.9 255.7 85.9 C 254.3 85.9 253.8 86.5 253.8 87.2 C 253.8 88.1 254.8 88.3 256.2 88.5 C 258.3 88.8 260.8 89.1 260.8 91.8 Z M 264.7 90.4 C 264.8 92.3 266.1 93.2 267.7 93.2 C 268.8 93.2 269.8 92.8 270.2 91.7 C 270.2 91.7 272.7 91.7 272.7 91.7 C 272.2 94.3 269.9 95.6 267.6 95.6 C 264.8 95.6 262 93.7 262 89.6 C 262 85.6 264.6 83.6 267.6 83.6 C 270.4 83.6 272.8 85.4 272.8 89.3 C 272.76 89.29 272.8 90.4 272.8 90.4 C 272.8 90.4 264.7 90.43 264.7 90.4 Z M 264.8 88.4 C 264.8 88.4 270 88.4 270 88.4 C 270 86.9 269 86 267.5 86 C 266.3 86 265 86.7 264.8 88.4 Z M 284.9 95.4 L 282.2 95.4 C 282.2 95.4 282.17 93.74 282.2 93.7 C 281.5 94.8 280.5 95.5 278.8 95.5 C 276.4 95.5 274.7 94 274.7 91 C 274.65 90.99 274.7 83.8 274.7 83.8 L 277.4 83.8 C 277.4 83.8 277.45 90.78 277.4 90.8 C 277.4 92.4 278.2 93 279.4 93 C 281 93 282.1 92.1 282.1 89.4 C 282.11 89.4 282.1 83.8 282.1 83.8 L 284.9 83.8 L 284.9 95.4 Z M 294.2 86.4 C 294.2 86.4 293.45 86.37 293.4 86.4 C 291.5 86.4 290.4 87.4 290.4 89.7 C 290.43 89.71 290.4 95.4 290.4 95.4 L 287.6 95.4 L 287.6 83.8 L 290.4 83.8 C 290.4 83.8 290.4 85.45 290.4 85.4 C 291 84.2 292.1 83.7 293.4 83.7 C 293.43 83.66 294.2 83.7 294.2 83.7 L 294.2 86.4 Z " stroke="none" fill="#000"/>  </g>  <g id="Polygon10530">    <path d="M 12 70.2 L 9.3 70.2 C 9.3 70.2 9.28 68.4 9.3 68.4 C 8.7 69.7 7.3 70.4 5.7 70.4 C 3 70.4 0.6 68.4 0.6 64.4 C 0.6 60.4 3 58.4 5.7 58.4 C 7.2 58.4 8.5 59 9.2 60.1 C 9.22 60.12 9.2 54.2 9.2 54.2 L 12 54.2 L 12 70.2 Z M 9.3 64.4 C 9.3 62 7.9 60.9 6.4 60.9 C 4.9 60.9 3.5 62 3.5 64.4 C 3.5 66.7 4.9 67.9 6.4 67.9 C 7.9 67.9 9.3 66.7 9.3 64.4 Z M 25.3 64.4 C 25.3 68.2 22.9 70.4 19.7 70.4 C 16.4 70.4 14 68.2 14 64.4 C 14 60.6 16.4 58.4 19.7 58.4 C 22.9 58.4 25.3 60.6 25.3 64.4 Z M 16.9 64.4 C 16.9 66.7 18.1 67.8 19.7 67.8 C 21.4 67.8 22.5 66.6 22.5 64.4 C 22.5 62.1 21.2 61 19.6 61 C 18 61 16.9 62.2 16.9 64.4 Z M 30.1 70.2 L 27.3 70.2 L 27.3 54.2 L 30.1 54.2 L 30.1 70.2 Z M 35.6 70.2 L 32.8 70.2 L 32.8 54.2 L 35.6 54.2 L 35.6 70.2 Z M 47.6 62.4 C 47.63 62.39 47.6 70.2 47.6 70.2 L 44.9 70.2 C 44.9 70.2 44.9 68.5 44.9 68.5 C 44 70 42.6 70.4 41.4 70.4 C 39.5 70.4 37.6 69.3 37.6 66.8 C 37.6 65 38.7 63.8 41.3 63.4 C 41.3 63.4 43.8 63 43.8 63 C 44.5 62.9 45 62.7 45 62 C 45 61 44.2 60.6 43 60.6 C 41.6 60.6 40.9 61.3 40.8 62.3 C 40.8 62.3 38.1 62.3 38.1 62.3 C 38.4 59.6 40.6 58.4 43.2 58.4 C 45.9 58.4 47.6 59.7 47.6 62.4 Z M 44.9 65.3 C 44.9 65.3 44.9 64.7 44.9 64.7 C 44.6 64.8 44.1 65 43.6 65 C 43.6 65 42.3 65.2 42.3 65.2 C 40.9 65.4 40.4 66 40.4 66.7 C 40.4 67.6 41.1 68.1 42 68.1 C 43.5 68.1 44.9 67 44.9 65.3 Z M 56.7 61.2 C 56.7 61.2 55.96 61.17 56 61.2 C 54 61.2 52.9 62.2 52.9 64.5 C 52.94 64.51 52.9 70.2 52.9 70.2 L 50.1 70.2 L 50.1 58.6 L 52.9 58.6 C 52.9 58.6 52.92 60.25 52.9 60.2 C 53.5 59 54.6 58.5 55.9 58.5 C 55.94 58.46 56.7 58.5 56.7 58.5 L 56.7 61.2 Z M 72.4 62.4 C 72.36 62.39 72.4 70.2 72.4 70.2 L 69.6 70.2 C 69.6 70.2 69.63 68.5 69.6 68.5 C 68.7 70 67.3 70.4 66.1 70.4 C 64.3 70.4 62.4 69.3 62.4 66.8 C 62.4 65 63.4 63.8 66.1 63.4 C 66.1 63.4 68.6 63 68.6 63 C 69.3 62.9 69.7 62.7 69.7 62 C 69.7 61 68.9 60.6 67.8 60.6 C 66.3 60.6 65.6 61.3 65.5 62.3 C 65.5 62.3 62.8 62.3 62.8 62.3 C 63.1 59.6 65.3 58.4 67.9 58.4 C 70.6 58.4 72.4 59.7 72.4 62.4 Z M 69.7 65.3 C 69.7 65.3 69.7 64.7 69.7 64.7 C 69.4 64.8 68.9 65 68.3 65 C 68.3 65 67 65.2 67 65.2 C 65.6 65.4 65.2 66 65.2 66.7 C 65.2 67.6 65.8 68.1 66.8 68.1 C 68.2 68.1 69.7 67 69.7 65.3 Z M 91.2 62.4 C 91.24 62.37 91.2 70.2 91.2 70.2 L 88.5 70.2 C 88.5 70.2 88.45 62.92 88.5 62.9 C 88.5 61.5 87.8 60.9 86.6 60.9 C 85.3 60.9 84.5 61.7 84.5 63.7 C 84.46 63.67 84.5 70.2 84.5 70.2 L 81.7 70.2 C 81.7 70.2 81.67 62.92 81.7 62.9 C 81.7 61.5 81 60.9 79.8 60.9 C 78.5 60.9 77.7 61.7 77.7 63.7 C 77.68 63.65 77.7 70.2 77.7 70.2 L 74.9 70.2 L 74.9 58.6 L 77.6 58.6 C 77.6 58.6 77.64 60.29 77.6 60.3 C 78 59.4 78.9 58.4 80.6 58.4 C 82.1 58.4 83.3 59.1 83.8 60.3 C 84.3 59.5 85.1 58.4 87.2 58.4 C 89.7 58.4 91.2 59.9 91.2 62.4 Z M 97.5 56.5 L 100.7 51.5 L 102.9 53.2 L 99.8 56.5 L 97.5 56.5 Z M 95.8 65.2 C 95.9 67.1 97.2 68 98.8 68 C 99.9 68 101 67.6 101.3 66.5 C 101.3 66.5 103.9 66.5 103.9 66.5 C 103.4 69.1 101.1 70.4 98.7 70.4 C 95.9 70.4 93.1 68.5 93.1 64.4 C 93.1 60.4 95.8 58.4 98.7 58.4 C 101.5 58.4 103.9 60.2 103.9 64.1 C 103.91 64.09 103.9 65.2 103.9 65.2 C 103.9 65.2 95.84 65.23 95.8 65.2 Z M 95.9 63.2 C 95.9 63.2 101.2 63.2 101.2 63.2 C 101.2 61.7 100.1 60.8 98.7 60.8 C 97.4 60.8 96.2 61.5 95.9 63.2 Z M 112.5 61.2 C 112.5 61.2 111.72 61.17 111.7 61.2 C 109.8 61.2 108.7 62.2 108.7 64.5 C 108.69 64.51 108.7 70.2 108.7 70.2 L 105.9 70.2 L 105.9 58.6 L 108.7 58.6 C 108.7 58.6 108.67 60.25 108.7 60.2 C 109.3 59 110.3 58.5 111.7 58.5 C 111.7 58.46 112.5 58.5 112.5 58.5 L 112.5 61.2 Z M 113.7 57.1 L 116.7 57.1 L 116.7 53.9 L 113.7 53.9 L 113.7 57.1 Z M 113.8 58.6 L 116.6 58.6 L 116.6 70.2 L 113.8 70.2 L 113.8 58.6 Z M 124.2 70.4 C 120.4 70.4 118.6 67.5 118.6 64.4 C 118.6 61.3 120.4 58.4 124.2 58.4 C 127 58.4 129.2 60 129.3 62.8 C 129.3 62.8 126.6 62.8 126.6 62.8 C 126.4 61.7 125.6 60.9 124.3 60.9 C 122.2 60.9 121.4 62.6 121.4 64.4 C 121.4 66.3 122.3 67.8 124.2 67.8 C 125.6 67.8 126.4 67.1 126.6 66.1 C 126.6 66.1 129.4 66.1 129.4 66.1 C 129 68.9 127 70.4 124.2 70.4 Z M 140.6 62.4 C 140.63 62.39 140.6 70.2 140.6 70.2 L 137.9 70.2 C 137.9 70.2 137.9 68.5 137.9 68.5 C 137 70 135.6 70.4 134.4 70.4 C 132.5 70.4 130.6 69.3 130.6 66.8 C 130.6 65 131.7 63.8 134.3 63.4 C 134.3 63.4 136.8 63 136.8 63 C 137.5 62.9 138 62.7 138 62 C 138 61 137.2 60.6 136.1 60.6 C 134.6 60.6 133.9 61.3 133.8 62.3 C 133.8 62.3 131.1 62.3 131.1 62.3 C 131.4 59.6 133.6 58.4 136.2 58.4 C 138.9 58.4 140.6 59.7 140.6 62.4 Z M 137.9 65.3 C 137.9 65.3 137.9 64.7 137.9 64.7 C 137.7 64.8 137.1 65 136.6 65 C 136.6 65 135.3 65.2 135.3 65.2 C 133.9 65.4 133.4 66 133.4 66.7 C 133.4 67.6 134.1 68.1 135 68.1 C 136.5 68.1 137.9 67 137.9 65.3 Z M 143 57.1 L 146 57.1 L 146 53.9 L 143 53.9 L 143 57.1 Z M 143.1 58.6 L 145.9 58.6 L 145.9 70.2 L 143.1 70.2 L 143.1 58.6 Z M 158.8 62.7 C 158.82 62.71 158.8 70.2 158.8 70.2 L 156 70.2 C 156 70.2 156.03 62.96 156 63 C 156 61.7 155.3 60.9 154 60.9 C 152.4 60.9 151.4 62 151.4 63.9 C 151.43 63.92 151.4 70.2 151.4 70.2 L 148.6 70.2 L 148.6 58.6 L 151.4 58.6 C 151.4 58.6 151.41 60.27 151.4 60.3 C 152.1 59.2 153 58.4 154.9 58.4 C 157.6 58.4 158.8 59.9 158.8 62.7 Z M 176 66.6 C 176 69.2 173.6 70.4 171 70.4 C 168.6 70.4 166 69.4 165.9 66.5 C 165.9 66.5 168.7 66.5 168.7 66.5 C 168.9 67.6 169.9 68.1 171.2 68.1 C 172.4 68.1 173.2 67.7 173.2 66.9 C 173.2 66.1 172.7 66 171.1 65.7 C 168.8 65.3 166.2 64.9 166.2 62.1 C 166.2 59.5 168.4 58.4 170.8 58.4 C 173.5 58.4 175.5 59.7 175.7 62.3 C 175.7 62.3 173 62.3 173 62.3 C 172.8 61.2 172 60.7 170.9 60.7 C 169.5 60.7 168.9 61.3 168.9 62 C 168.9 62.9 170 63.1 171.4 63.3 C 173.4 63.6 176 63.9 176 66.6 Z M 179.3 56.5 C 179.34 56.47 177.9 56.5 177.9 56.5 L 177.9 53.5 L 181.1 53.5 C 181.1 53.5 181.12 56.07 181.1 56.1 C 181.1 59.1 179.1 60.1 177.2 60.4 C 177.2 60.4 176.9 58.9 176.9 58.9 C 178.4 58.7 179.3 57.8 179.3 56.5 Z M 192.2 62.4 C 192.17 62.39 192.2 70.2 192.2 70.2 L 189.4 70.2 C 189.4 70.2 189.44 68.5 189.4 68.5 C 188.5 70 187.1 70.4 185.9 70.4 C 184.1 70.4 182.2 69.3 182.2 66.8 C 182.2 65 183.2 63.8 185.9 63.4 C 185.9 63.4 188.4 63 188.4 63 C 189.1 62.9 189.5 62.7 189.5 62 C 189.5 61 188.7 60.6 187.6 60.6 C 186.1 60.6 185.4 61.3 185.3 62.3 C 185.3 62.3 182.6 62.3 182.6 62.3 C 182.9 59.6 185.1 58.4 187.7 58.4 C 190.4 58.4 192.2 59.7 192.2 62.4 Z M 189.5 65.3 C 189.5 65.3 189.5 64.7 189.5 64.7 C 189.2 64.8 188.7 65 188.1 65 C 188.1 65 186.8 65.2 186.8 65.2 C 185.4 65.4 185 66 185 66.7 C 185 67.6 185.6 68.1 186.6 68.1 C 188 68.1 189.5 67 189.5 65.3 Z M 205.1 57.8 C 205.06 57.83 205.1 58.6 205.1 58.6 L 207.2 58.6 L 207.2 61.1 L 205.1 61.1 L 205.1 70.2 L 202.3 70.2 L 202.3 61.1 L 197.8 61.1 L 197.8 70.2 L 195 70.2 L 195 61.1 L 193.3 61.1 L 193.3 58.6 L 195 58.6 C 195 58.6 195.04 57.96 195 58 C 195 54.9 196.4 54.2 198.6 54.2 C 198.59 54.18 200.3 54.2 200.3 54.2 L 200.3 56.7 C 200.3 56.7 199.01 56.66 199 56.7 C 198 56.7 197.8 57.1 197.8 57.8 C 197.84 57.83 197.8 58.6 197.8 58.6 L 202.3 58.6 C 202.3 58.6 202.27 57.96 202.3 58 C 202.3 54.9 203.7 54.2 205.8 54.2 C 205.82 54.18 207.5 54.2 207.5 54.2 L 207.5 56.7 C 207.5 56.7 206.24 56.66 206.2 56.7 C 205.3 56.7 205.1 57.1 205.1 57.8 Z M 218.1 62.4 C 218.12 62.39 218.1 70.2 218.1 70.2 L 215.4 70.2 C 215.4 70.2 215.39 68.5 215.4 68.5 C 214.5 70 213.1 70.4 211.9 70.4 C 210 70.4 208.1 69.3 208.1 66.8 C 208.1 65 209.2 63.8 211.8 63.4 C 211.8 63.4 214.3 63 214.3 63 C 215 62.9 215.5 62.7 215.5 62 C 215.5 61 214.7 60.6 213.5 60.6 C 212.1 60.6 211.4 61.3 211.3 62.3 C 211.3 62.3 208.6 62.3 208.6 62.3 C 208.9 59.6 211 58.4 213.7 58.4 C 216.4 58.4 218.1 59.7 218.1 62.4 Z M 215.4 65.3 C 215.4 65.3 215.4 64.7 215.4 64.7 C 215.1 64.8 214.6 65 214 65 C 214 65 212.8 65.2 212.8 65.2 C 211.4 65.4 210.9 66 210.9 66.7 C 210.9 67.6 211.6 68.1 212.5 68.1 C 214 68.1 215.4 67 215.4 65.3 Z M 220.5 57.1 L 223.5 57.1 L 223.5 53.9 L 220.5 53.9 L 220.5 57.1 Z M 220.6 58.6 L 223.4 58.6 L 223.4 70.2 L 220.6 70.2 L 220.6 58.6 Z M 237.5 64.4 C 237.5 68.5 235 70.4 232.3 70.4 C 230.8 70.4 229.5 69.9 228.9 68.8 C 228.85 68.8 228.9 70.2 228.9 70.2 L 226.1 70.2 L 226.1 54.2 L 228.9 54.2 C 228.9 54.2 228.92 60.29 228.9 60.3 C 229.6 59.1 230.9 58.4 232.5 58.4 C 235.2 58.4 237.5 60.4 237.5 64.4 Z M 234.7 64.4 C 234.7 62.1 233.3 60.9 231.8 60.9 C 230.3 60.9 228.8 62.1 228.8 64.4 C 228.8 66.8 230.3 68 231.8 68 C 233.3 68 234.7 66.8 234.7 64.4 Z M 242.3 70.2 L 239.5 70.2 L 239.5 54.2 L 242.3 54.2 L 242.3 70.2 Z M 244.9 57.1 L 247.9 57.1 L 247.9 53.9 L 244.9 53.9 L 244.9 57.1 Z M 245 58.6 L 247.8 58.6 L 247.8 70.2 L 245 70.2 L 245 58.6 Z M 257.1 61.2 C 257.1 61.2 256.32 61.17 256.3 61.2 C 254.4 61.2 253.3 62.2 253.3 64.5 C 253.3 64.51 253.3 70.2 253.3 70.2 L 250.5 70.2 L 250.5 58.6 L 253.3 58.6 C 253.3 58.6 253.28 60.25 253.3 60.2 C 253.9 59 254.9 58.5 256.3 58.5 C 256.3 58.46 257.1 58.5 257.1 58.5 L 257.1 61.2 Z M 267.7 62.4 C 267.68 62.39 267.7 70.2 267.7 70.2 L 265 70.2 C 265 70.2 264.95 68.5 265 68.5 C 264 70 262.7 70.4 261.4 70.4 C 259.6 70.4 257.7 69.3 257.7 66.8 C 257.7 65 258.7 63.8 261.4 63.4 C 261.4 63.4 263.9 63 263.9 63 C 264.6 62.9 265.1 62.7 265.1 62 C 265.1 61 264.2 60.6 263.1 60.6 C 261.6 60.6 260.9 61.3 260.8 62.3 C 260.8 62.3 258.1 62.3 258.1 62.3 C 258.4 59.6 260.6 58.4 263.2 58.4 C 266 58.4 267.7 59.7 267.7 62.4 Z M 265 65.3 C 265 65.3 265 64.7 265 64.7 C 264.7 64.8 264.2 65 263.6 65 C 263.6 65 262.3 65.2 262.3 65.2 C 260.9 65.4 260.5 66 260.5 66.7 C 260.5 67.6 261.1 68.1 262.1 68.1 C 263.5 68.1 265 67 265 65.3 Z " stroke="none" fill="#000"/>  </g>  <g id="Polygon10529">    <path d="M 12 45 L 9.3 45 C 9.3 45 9.28 43.2 9.3 43.2 C 8.7 44.5 7.3 45.2 5.7 45.2 C 3 45.2 0.6 43.2 0.6 39.2 C 0.6 35.2 3 33.2 5.7 33.2 C 7.2 33.2 8.5 33.8 9.2 34.9 C 9.22 34.92 9.2 29 9.2 29 L 12 29 L 12 45 Z M 9.3 39.2 C 9.3 36.8 7.9 35.7 6.4 35.7 C 4.9 35.7 3.5 36.8 3.5 39.2 C 3.5 41.5 4.9 42.7 6.4 42.7 C 7.9 42.7 9.3 41.5 9.3 39.2 Z M 18.4 31.3 L 21.5 26.3 L 23.7 28 L 20.7 31.3 L 18.4 31.3 Z M 16.7 40 C 16.8 41.9 18.1 42.8 19.7 42.8 C 20.8 42.8 21.8 42.4 22.2 41.3 C 22.2 41.3 24.7 41.3 24.7 41.3 C 24.2 43.9 21.9 45.2 19.6 45.2 C 16.8 45.2 14 43.3 14 39.2 C 14 35.2 16.6 33.2 19.6 33.2 C 22.4 33.2 24.8 35 24.8 38.9 C 24.78 38.89 24.8 40 24.8 40 C 24.8 40 16.72 40.03 16.7 40 Z M 16.8 38 C 16.8 38 22 38 22 38 C 22 36.5 21 35.6 19.6 35.6 C 18.3 35.6 17 36.3 16.8 38 Z M 37.2 44.2 C 37.2 47.9 34.8 49.6 31.7 49.6 C 28.9 49.6 26.5 48.2 26.2 45.3 C 26.2 45.3 28.9 45.3 28.9 45.3 C 29.2 46.8 30.4 47.2 31.7 47.2 C 33.5 47.2 34.5 46.3 34.5 44.5 C 34.5 44.5 34.5 42.6 34.5 42.6 C 34 43.8 32.9 44.6 31.1 44.6 C 28.5 44.6 26 42.8 26 38.9 C 26 35 28.5 33.2 31.1 33.2 C 32.8 33.2 33.9 33.9 34.5 35 C 34.52 35.01 34.5 33.4 34.5 33.4 L 37.2 33.4 C 37.2 33.4 37.21 44.2 37.2 44.2 Z M 34.4 38.9 C 34.4 36.7 33.2 35.6 31.7 35.6 C 30.2 35.6 28.8 36.7 28.8 38.9 C 28.8 41.1 30.2 42.1 31.7 42.1 C 33.2 42.1 34.4 41.1 34.4 38.9 Z M 49.1 37.2 C 49.1 37.19 49.1 45 49.1 45 L 46.4 45 C 46.4 45 46.37 43.3 46.4 43.3 C 45.5 44.8 44.1 45.2 42.9 45.2 C 41 45.2 39.1 44.1 39.1 41.6 C 39.1 39.8 40.1 38.6 42.8 38.2 C 42.8 38.2 45.3 37.8 45.3 37.8 C 46 37.7 46.5 37.5 46.5 36.8 C 46.5 35.8 45.6 35.4 44.5 35.4 C 43 35.4 42.4 36.1 42.3 37.1 C 42.3 37.1 39.6 37.1 39.6 37.1 C 39.9 34.4 42 33.2 44.6 33.2 C 47.4 33.2 49.1 34.5 49.1 37.2 Z M 46.4 40.1 C 46.4 40.1 46.4 39.5 46.4 39.5 C 46.1 39.6 45.6 39.8 45 39.8 C 45 39.8 43.8 40 43.8 40 C 42.4 40.2 41.9 40.8 41.9 41.5 C 41.9 42.4 42.5 42.9 43.5 42.9 C 45 42.9 46.4 41.8 46.4 40.1 Z M 62.1 44.2 C 62.1 47.9 59.7 49.6 56.5 49.6 C 53.7 49.6 51.4 48.2 51.1 45.3 C 51.1 45.3 53.8 45.3 53.8 45.3 C 54.1 46.8 55.2 47.2 56.5 47.2 C 58.3 47.2 59.4 46.3 59.4 44.5 C 59.4 44.5 59.4 42.6 59.4 42.6 C 58.8 43.8 57.7 44.6 55.9 44.6 C 53.3 44.6 50.9 42.8 50.9 38.9 C 50.9 35 53.3 33.2 55.9 33.2 C 57.6 33.2 58.8 33.9 59.4 35 C 59.37 35.01 59.4 33.4 59.4 33.4 L 62.1 33.4 C 62.1 33.4 62.05 44.2 62.1 44.2 Z M 59.3 38.9 C 59.3 36.7 58 35.6 56.5 35.6 C 55 35.6 53.6 36.7 53.6 38.9 C 53.6 41.1 55 42.1 56.5 42.1 C 58 42.1 59.3 41.1 59.3 38.9 Z M 66.7 40 C 66.7 41.9 68.1 42.8 69.6 42.8 C 70.7 42.8 71.8 42.4 72.1 41.3 C 72.1 41.3 74.7 41.3 74.7 41.3 C 74.2 43.9 71.9 45.2 69.5 45.2 C 66.7 45.2 63.9 43.3 63.9 39.2 C 63.9 35.2 66.6 33.2 69.5 33.2 C 72.3 33.2 74.7 35 74.7 38.9 C 74.72 38.89 74.7 40 74.7 40 C 74.7 40 66.65 40.03 66.7 40 Z M 66.7 38 C 66.7 38 72 38 72 38 C 72 36.5 70.9 35.6 69.5 35.6 C 68.2 35.6 67 36.3 66.7 38 Z M 83.3 36 C 83.3 36 82.53 35.97 82.5 36 C 80.6 36 79.5 37 79.5 39.3 C 79.51 39.31 79.5 45 79.5 45 L 76.7 45 L 76.7 33.4 L 79.5 33.4 C 79.5 33.4 79.48 35.05 79.5 35 C 80.1 33.8 81.1 33.3 82.5 33.3 C 82.51 33.26 83.3 33.3 83.3 33.3 L 83.3 36 Z M 98.5 41.4 C 98.5 44 96.2 45.2 93.6 45.2 C 91.2 45.2 88.6 44.2 88.4 41.3 C 88.4 41.3 91.2 41.3 91.2 41.3 C 91.4 42.4 92.4 42.9 93.7 42.9 C 94.9 42.9 95.8 42.5 95.8 41.7 C 95.8 40.9 95.2 40.8 93.6 40.5 C 91.3 40.1 88.8 39.7 88.8 36.9 C 88.8 34.3 91 33.2 93.4 33.2 C 96.1 33.2 98.1 34.5 98.2 37.1 C 98.2 37.1 95.5 37.1 95.5 37.1 C 95.4 36 94.6 35.5 93.4 35.5 C 92 35.5 91.5 36.1 91.5 36.8 C 91.5 37.7 92.5 37.9 93.9 38.1 C 96 38.4 98.5 38.7 98.5 41.4 Z M 110.5 45 L 107.8 45 C 107.8 45 107.81 43.34 107.8 43.3 C 107.1 44.4 106.1 45.1 104.5 45.1 C 102.1 45.1 100.3 43.6 100.3 40.6 C 100.3 40.59 100.3 33.4 100.3 33.4 L 103.1 33.4 C 103.1 33.4 103.09 40.38 103.1 40.4 C 103.1 42 103.9 42.6 105.1 42.6 C 106.6 42.6 107.8 41.7 107.8 39 C 107.75 39 107.8 33.4 107.8 33.4 L 110.5 33.4 L 110.5 45 Z M 119.8 36 C 119.8 36 119.09 35.97 119.1 36 C 117.1 36 116.1 37 116.1 39.3 C 116.07 39.31 116.1 45 116.1 45 L 113.3 45 L 113.3 33.4 L 116 33.4 C 116 33.4 116.04 35.05 116 35 C 116.6 33.8 117.7 33.3 119.1 33.3 C 119.07 33.26 119.8 33.3 119.8 33.3 L 119.8 36 Z M 129 45 L 126.2 45 L 126.2 29 L 129 29 L 129 45 Z M 133.7 40 C 133.8 41.9 135.1 42.8 136.7 42.8 C 137.8 42.8 138.9 42.4 139.2 41.3 C 139.2 41.3 141.7 41.3 141.7 41.3 C 141.2 43.9 139 45.2 136.6 45.2 C 133.8 45.2 131 43.3 131 39.2 C 131 35.2 133.6 33.2 136.6 33.2 C 139.4 33.2 141.8 35 141.8 38.9 C 141.79 38.89 141.8 40 141.8 40 C 141.8 40 133.73 40.03 133.7 40 Z M 133.8 38 C 133.8 38 139.1 38 139.1 38 C 139.1 36.5 138 35.6 136.6 35.6 C 135.3 35.6 134 36.3 133.8 38 Z M 153.2 31.5 C 152.2 31.5 152 31.9 152 32.6 C 151.98 32.63 152 33.4 152 33.4 L 154.1 33.4 L 154.1 35.9 L 152 35.9 L 152 45 L 149.2 45 L 149.2 35.9 L 147.5 35.9 L 147.5 33.4 L 149.2 33.4 C 149.2 33.4 149.18 32.76 149.2 32.8 C 149.2 29.7 150.6 29 152.7 29 C 152.73 28.98 154.4 29 154.4 29 L 154.4 31.5 C 154.4 31.5 153.15 31.46 153.2 31.5 Z M 165 37.2 C 165.04 37.19 165 45 165 45 L 162.3 45 C 162.3 45 162.31 43.3 162.3 43.3 C 161.4 44.8 160 45.2 158.8 45.2 C 157 45.2 155 44.1 155 41.6 C 155 39.8 156.1 38.6 158.7 38.2 C 158.7 38.2 161.2 37.8 161.2 37.8 C 161.9 37.7 162.4 37.5 162.4 36.8 C 162.4 35.8 161.6 35.4 160.5 35.4 C 159 35.4 158.3 36.1 158.2 37.1 C 158.2 37.1 155.5 37.1 155.5 37.1 C 155.8 34.4 158 33.2 160.6 33.2 C 163.3 33.2 165 34.5 165 37.2 Z M 162.3 40.1 C 162.3 40.1 162.3 39.5 162.3 39.5 C 162.1 39.6 161.5 39.8 161 39.8 C 161 39.8 159.7 40 159.7 40 C 158.3 40.2 157.8 40.8 157.8 41.5 C 157.8 42.4 158.5 42.9 159.5 42.9 C 160.9 42.9 162.3 41.8 162.3 40.1 Z M 167.5 31.9 L 170.4 31.9 L 170.4 28.7 L 167.5 28.7 L 167.5 31.9 Z M 167.5 33.4 L 170.3 33.4 L 170.3 45 L 167.5 45 L 167.5 33.4 Z M 179 45 C 179 45 177.13 44.98 177.1 45 C 175 45 173.6 44.3 173.6 41.2 C 173.58 41.2 173.6 35.9 173.6 35.9 L 171.5 35.9 L 171.5 33.4 L 173.6 33.4 L 173.6 30.8 L 176.4 30 L 176.4 33.4 L 178.7 33.4 L 178.7 35.9 L 176.4 35.9 C 176.4 35.9 176.38 41.33 176.4 41.3 C 176.4 42 176.6 42.5 177.6 42.5 C 177.55 42.5 179 42.5 179 42.5 L 179 45 Z M 196.2 33.4 L 196.2 49.3 L 193.4 49.3 C 193.4 49.3 193.43 43.26 193.4 43.3 C 192.8 44.4 191.6 45.1 190 45.1 C 187.3 45.1 184.8 43.2 184.8 39.1 C 184.8 35.1 187.2 33.2 189.9 33.2 C 191.4 33.2 192.8 33.8 193.5 35 C 193.49 35.03 193.5 33.4 193.5 33.4 L 196.2 33.4 Z M 193.5 39.1 C 193.5 36.7 192.1 35.7 190.6 35.7 C 189.1 35.7 187.7 36.7 187.7 39.1 C 187.7 41.4 189.1 42.5 190.6 42.5 C 192.1 42.5 193.5 41.5 193.5 39.1 Z M 209 45 L 206.3 45 C 206.3 45 206.26 43.34 206.3 43.3 C 205.6 44.4 204.5 45.1 202.9 45.1 C 200.5 45.1 198.7 43.6 198.7 40.6 C 198.74 40.59 198.7 33.4 198.7 33.4 L 201.5 33.4 C 201.5 33.4 201.53 40.38 201.5 40.4 C 201.5 42 202.3 42.6 203.5 42.6 C 205.1 42.6 206.2 41.7 206.2 39 C 206.2 39 206.2 33.4 206.2 33.4 L 209 33.4 L 209 45 Z M 213.7 40 C 213.8 41.9 215.1 42.8 216.7 42.8 C 217.8 42.8 218.8 42.4 219.2 41.3 C 219.2 41.3 221.7 41.3 221.7 41.3 C 221.2 43.9 218.9 45.2 216.5 45.2 C 213.8 45.2 211 43.3 211 39.2 C 211 35.2 213.6 33.2 216.6 33.2 C 219.4 33.2 221.8 35 221.8 38.9 C 221.76 38.89 221.8 40 221.8 40 C 221.8 40 213.69 40.03 213.7 40 Z M 213.8 38 C 213.8 38 219 38 219 38 C 219 36.5 218 35.6 216.5 35.6 C 215.2 35.6 214 36.3 213.8 38 Z M 231.8 45 L 229 45 L 229 29 L 231.8 29 L 231.8 45 Z M 236.5 40 C 236.6 41.9 237.9 42.8 239.5 42.8 C 240.6 42.8 241.6 42.4 242 41.3 C 242 41.3 244.5 41.3 244.5 41.3 C 244 43.9 241.7 45.2 239.4 45.2 C 236.6 45.2 233.8 43.3 233.8 39.2 C 233.8 35.2 236.4 33.2 239.4 33.2 C 242.2 33.2 244.6 35 244.6 38.9 C 244.56 38.89 244.6 40 244.6 40 C 244.6 40 236.5 40.03 236.5 40 Z M 236.6 38 C 236.6 38 241.8 38 241.8 38 C 241.8 36.5 240.8 35.6 239.3 35.6 C 238.1 35.6 236.8 36.3 236.6 38 Z " stroke="none" fill="#000"/>  </g>  <g id="Polygon10528">    <path d="M 14.1 4 C 14.1 4 14.07 13.75 14.1 13.8 C 14.1 18.1 11.5 20.2 7.7 20.2 C 4 20.2 1.4 18.1 1.4 13.8 C 1.37 13.75 1.4 4 1.4 4 L 4.3 4 C 4.3 4 4.28 13.61 4.3 13.6 C 4.3 16.1 5.7 17.4 7.8 17.4 C 9.8 17.4 11.2 16.3 11.2 13.9 C 11.19 13.88 11.2 4 11.2 4 L 14.1 4 Z M 27 12.3 C 26.98 12.31 27 19.8 27 19.8 L 24.2 19.8 C 24.2 19.8 24.19 12.56 24.2 12.6 C 24.2 11.3 23.5 10.5 22.2 10.5 C 20.6 10.5 19.6 11.6 19.6 13.5 C 19.59 13.52 19.6 19.8 19.6 19.8 L 16.8 19.8 L 16.8 8.2 L 19.6 8.2 C 19.6 8.2 19.57 9.87 19.6 9.9 C 20.2 8.8 21.2 8 23.1 8 C 25.7 8 27 9.5 27 12.3 Z M 39.8 20 C 36 20 34.1 17.1 34.1 14 C 34.1 10.9 35.9 8 39.7 8 C 42.6 8 44.8 9.6 44.9 12.4 C 44.9 12.4 42.1 12.4 42.1 12.4 C 42 11.3 41.2 10.5 39.8 10.5 C 37.8 10.5 36.9 12.2 36.9 14 C 36.9 15.9 37.8 17.4 39.8 17.4 C 41.1 17.4 42 16.7 42.1 15.7 C 42.1 15.7 44.9 15.7 44.9 15.7 C 44.6 18.5 42.5 20 39.8 20 Z M 57.5 14 C 57.5 17.8 55.1 20 51.8 20 C 48.6 20 46.2 17.8 46.2 14 C 46.2 10.2 48.6 8 51.8 8 C 55.1 8 57.5 10.2 57.5 14 Z M 49.1 14 C 49.1 16.3 50.3 17.4 51.9 17.4 C 53.5 17.4 54.7 16.2 54.7 14 C 54.7 11.7 53.4 10.6 51.8 10.6 C 50.2 10.6 49.1 11.8 49.1 14 Z M 69.7 12.3 C 69.7 12.31 69.7 19.8 69.7 19.8 L 66.9 19.8 C 66.9 19.8 66.91 12.56 66.9 12.6 C 66.9 11.3 66.2 10.5 64.9 10.5 C 63.3 10.5 62.3 11.6 62.3 13.5 C 62.31 13.52 62.3 19.8 62.3 19.8 L 59.5 19.8 L 59.5 8.2 L 62.3 8.2 C 62.3 8.2 62.29 9.87 62.3 9.9 C 62.9 8.8 63.9 8 65.8 8 C 68.5 8 69.7 9.5 69.7 12.3 Z M 81.6 16.2 C 81.6 18.8 79.3 20 76.7 20 C 74.3 20 71.7 19 71.5 16.1 C 71.5 16.1 74.3 16.1 74.3 16.1 C 74.5 17.2 75.5 17.7 76.8 17.7 C 78 17.7 78.8 17.3 78.8 16.5 C 78.8 15.7 78.3 15.6 76.7 15.3 C 74.4 14.9 71.8 14.5 71.8 11.7 C 71.8 9.1 74 8 76.4 8 C 79.1 8 81.1 9.3 81.3 11.9 C 81.3 11.9 78.6 11.9 78.6 11.9 C 78.5 10.8 77.7 10.3 76.5 10.3 C 75.1 10.3 74.5 10.9 74.5 11.6 C 74.5 12.5 75.6 12.7 77 12.9 C 79.1 13.2 81.6 13.5 81.6 16.2 Z M 85.4 14.8 C 85.5 16.7 86.9 17.6 88.4 17.6 C 89.5 17.6 90.6 17.2 90.9 16.1 C 90.9 16.1 93.5 16.1 93.5 16.1 C 93 18.7 90.7 20 88.3 20 C 85.5 20 82.7 18.1 82.7 14 C 82.7 10 85.4 8 88.3 8 C 91.1 8 93.5 9.8 93.5 13.7 C 93.51 13.69 93.5 14.8 93.5 14.8 C 93.5 14.8 85.45 14.83 85.4 14.8 Z M 85.5 12.8 C 85.5 12.8 90.8 12.8 90.8 12.8 C 90.8 11.3 89.7 10.4 88.3 10.4 C 87 10.4 85.8 11.1 85.5 12.8 Z M 105.7 12.3 C 105.69 12.31 105.7 19.8 105.7 19.8 L 102.9 19.8 C 102.9 19.8 102.9 12.56 102.9 12.6 C 102.9 11.3 102.2 10.5 100.9 10.5 C 99.3 10.5 98.3 11.6 98.3 13.5 C 98.3 13.52 98.3 19.8 98.3 19.8 L 95.5 19.8 L 95.5 8.2 L 98.3 8.2 C 98.3 8.2 98.28 9.87 98.3 9.9 C 98.9 8.8 99.9 8 101.8 8 C 104.5 8 105.7 9.5 105.7 12.3 Z M 117.6 16.2 C 117.6 18.8 115.3 20 112.7 20 C 110.3 20 107.7 19 107.5 16.1 C 107.5 16.1 110.3 16.1 110.3 16.1 C 110.5 17.2 111.5 17.7 112.8 17.7 C 114 17.7 114.8 17.3 114.8 16.5 C 114.8 15.7 114.3 15.6 112.7 15.3 C 110.4 14.9 107.8 14.5 107.8 11.7 C 107.8 9.1 110 8 112.4 8 C 115.1 8 117.1 9.3 117.3 11.9 C 117.3 11.9 114.6 11.9 114.6 11.9 C 114.5 10.8 113.7 10.3 112.5 10.3 C 111.1 10.3 110.5 10.9 110.5 11.6 C 110.5 12.5 111.6 12.7 113 12.9 C 115.1 13.2 117.6 13.5 117.6 16.2 Z M 129.6 19.8 L 126.9 19.8 C 126.9 19.8 126.88 18.14 126.9 18.1 C 126.2 19.2 125.2 19.9 123.5 19.9 C 121.1 19.9 119.4 18.4 119.4 15.4 C 119.36 15.39 119.4 8.2 119.4 8.2 L 122.2 8.2 C 122.2 8.2 122.16 15.18 122.2 15.2 C 122.2 16.8 122.9 17.4 124.1 17.4 C 125.7 17.4 126.8 16.5 126.8 13.8 C 126.82 13.8 126.8 8.2 126.8 8.2 L 129.6 8.2 L 129.6 19.8 Z M 141.6 16.2 C 141.6 18.8 139.3 20 136.7 20 C 134.3 20 131.7 19 131.5 16.1 C 131.5 16.1 134.3 16.1 134.3 16.1 C 134.5 17.2 135.5 17.7 136.8 17.7 C 138 17.7 138.9 17.3 138.9 16.5 C 138.9 15.7 138.3 15.6 136.7 15.3 C 134.4 14.9 131.9 14.5 131.9 11.7 C 131.9 9.1 134.1 8 136.5 8 C 139.2 8 141.2 9.3 141.3 11.9 C 141.3 11.9 138.6 11.9 138.6 11.9 C 138.5 10.8 137.7 10.3 136.5 10.3 C 135.1 10.3 134.6 10.9 134.6 11.6 C 134.6 12.5 135.6 12.7 137 12.9 C 139.1 13.2 141.6 13.5 141.6 16.2 Z M 157.6 16.2 C 157.6 18.8 155.3 20 152.7 20 C 150.3 20 147.7 19 147.5 16.1 C 147.5 16.1 150.3 16.1 150.3 16.1 C 150.5 17.2 151.5 17.7 152.8 17.7 C 154 17.7 154.8 17.3 154.8 16.5 C 154.8 15.7 154.3 15.6 152.7 15.3 C 150.4 14.9 147.8 14.5 147.8 11.7 C 147.8 9.1 150 8 152.4 8 C 155.1 8 157.1 9.3 157.3 11.9 C 157.3 11.9 154.6 11.9 154.6 11.9 C 154.5 10.8 153.7 10.3 152.5 10.3 C 151.1 10.3 150.5 10.9 150.5 11.6 C 150.5 12.5 151.6 12.7 153 12.9 C 155.1 13.2 157.6 13.5 157.6 16.2 Z M 161.4 14.8 C 161.5 16.7 162.9 17.6 164.4 17.6 C 165.5 17.6 166.6 17.2 166.9 16.1 C 166.9 16.1 169.5 16.1 169.5 16.1 C 169 18.7 166.7 20 164.3 20 C 161.5 20 158.7 18.1 158.7 14 C 158.7 10 161.4 8 164.3 8 C 167.1 8 169.5 9.8 169.5 13.7 C 169.51 13.69 169.5 14.8 169.5 14.8 C 169.5 14.8 161.45 14.83 161.4 14.8 Z M 161.5 12.8 C 161.5 12.8 166.8 12.8 166.8 12.8 C 166.8 11.3 165.7 10.4 164.3 10.4 C 163 10.4 161.8 11.1 161.5 12.8 Z M 187.9 12 C 187.86 11.97 187.9 19.8 187.9 19.8 L 185.1 19.8 C 185.1 19.8 185.07 12.52 185.1 12.5 C 185.1 11.1 184.4 10.5 183.3 10.5 C 181.9 10.5 181.1 11.3 181.1 13.3 C 181.08 13.27 181.1 19.8 181.1 19.8 L 178.3 19.8 C 178.3 19.8 178.29 12.52 178.3 12.5 C 178.3 11.1 177.6 10.5 176.5 10.5 C 175.2 10.5 174.3 11.3 174.3 13.3 C 174.3 13.25 174.3 19.8 174.3 19.8 L 171.5 19.8 L 171.5 8.2 L 174.3 8.2 C 174.3 8.2 174.26 9.89 174.3 9.9 C 174.6 9 175.5 8 177.3 8 C 178.7 8 179.9 8.7 180.5 9.9 C 180.9 9.1 181.7 8 183.8 8 C 186.3 8 187.9 9.5 187.9 12 Z M 201.9 14 C 201.9 18.1 199.4 20 196.7 20 C 195.2 20 193.9 19.5 193.2 18.4 C 193.22 18.4 193.2 19.8 193.2 19.8 L 190.5 19.8 L 190.5 3.8 L 193.3 3.8 C 193.3 3.8 193.28 9.89 193.3 9.9 C 193.9 8.7 195.3 8 196.8 8 C 199.5 8 201.9 10 201.9 14 Z M 199 14 C 199 11.7 197.6 10.5 196.1 10.5 C 194.6 10.5 193.2 11.7 193.2 14 C 193.2 16.4 194.6 17.6 196.1 17.6 C 197.6 17.6 199 16.4 199 14 Z M 206.7 19.8 L 203.9 19.8 L 203.9 3.8 L 206.7 3.8 L 206.7 19.8 Z M 211.4 14.8 C 211.4 16.7 212.8 17.6 214.3 17.6 C 215.4 17.6 216.5 17.2 216.8 16.1 C 216.8 16.1 219.4 16.1 219.4 16.1 C 218.9 18.7 216.6 20 214.2 20 C 211.4 20 208.7 18.1 208.7 14 C 208.7 10 211.3 8 214.2 8 C 217.1 8 219.4 9.8 219.4 13.7 C 219.43 13.69 219.4 14.8 219.4 14.8 C 219.4 14.8 211.36 14.83 211.4 14.8 Z M 211.4 12.8 C 211.4 12.8 216.7 12.8 216.7 12.8 C 216.7 11.3 215.6 10.4 214.2 10.4 C 212.9 10.4 211.7 11.1 211.4 12.8 Z M 235.5 16.2 C 235.5 18.8 233.2 20 230.6 20 C 228.2 20 225.6 19 225.4 16.1 C 225.4 16.1 228.2 16.1 228.2 16.1 C 228.4 17.2 229.4 17.7 230.7 17.7 C 231.9 17.7 232.8 17.3 232.8 16.5 C 232.8 15.7 232.2 15.6 230.6 15.3 C 228.4 14.9 225.8 14.5 225.8 11.7 C 225.8 9.1 228 8 230.4 8 C 233.1 8 235.1 9.3 235.2 11.9 C 235.2 11.9 232.5 11.9 232.5 11.9 C 232.4 10.8 231.6 10.3 230.4 10.3 C 229 10.3 228.5 10.9 228.5 11.6 C 228.5 12.5 229.5 12.7 230.9 12.9 C 233 13.2 235.5 13.5 235.5 16.2 Z M 239.4 14.8 C 239.4 16.7 240.8 17.6 242.4 17.6 C 243.5 17.6 244.5 17.2 244.8 16.1 C 244.8 16.1 247.4 16.1 247.4 16.1 C 246.9 18.7 244.6 20 242.2 20 C 239.4 20 236.7 18.1 236.7 14 C 236.7 10 239.3 8 242.3 8 C 245.1 8 247.4 9.8 247.4 13.7 C 247.44 13.69 247.4 14.8 247.4 14.8 C 247.4 14.8 239.38 14.83 239.4 14.8 Z M 239.4 12.8 C 239.4 12.8 244.7 12.8 244.7 12.8 C 244.7 11.3 243.6 10.4 242.2 10.4 C 240.9 10.4 239.7 11.1 239.4 12.8 Z " stroke="none" fill="#000"/>  </g></svg>