<?xml version="1.0" standalone="no"?><!DOCTYPE svg PUBLIC "-//W3C//DTD SVG 1.1//EN" "http://www.w3.org/Graphics/SVG/1.1/DTD/svg11.dtd"><svg xmlns="http://www.w3.org/2000/svg" version="1.1" width="257px" height="71.2px" viewBox="0 -4 257 71.2" style="top:-4px">  <desc>Anonymous Wealth Manager</desc>  <defs/>  <g id="Polygon12407">    <path d="M 18.1 51.4 L 16.3 51.4 L 11.8 36.2 L 7.3 51.4 L 5.4 51.4 L 0.7 33.4 L 2.6 33.4 L 6.4 48.8 L 10.9 33.4 L 12.8 33.4 L 17.2 48.8 L 21 33.4 L 22.8 33.4 L 18.1 51.4 Z M 25.1 45.4 C 25.2 48.6 27.1 50.1 29.4 50.1 C 31.1 50.1 32.8 49.2 33.2 47.4 C 33.2 47.4 34.8 47.4 34.8 47.4 C 34.3 50.4 31.8 51.7 29.3 51.7 C 26.3 51.7 23.4 49.6 23.4 45 C 23.4 40.4 26.3 38.3 29.4 38.3 C 32.4 38.3 34.9 40.2 34.9 44.5 C 34.94 44.52 34.9 45.4 34.9 45.4 C 34.9 45.4 25.13 45.38 25.1 45.4 Z M 25.2 43.9 C 25.2 43.9 33.2 43.9 33.2 43.9 C 33.2 41.3 31.5 39.8 29.3 39.8 C 27.3 39.8 25.4 41.1 25.2 43.9 Z M 45.9 49.1 C 44.9 51 42.9 51.7 41.3 51.7 C 39.1 51.7 37.1 50.4 37.1 47.8 C 37.1 45.5 38.8 44.4 41 44.1 C 41 44.1 44.1 43.7 44.1 43.7 C 45 43.5 45.9 43.2 45.9 42.1 C 45.9 40.6 44.5 39.7 42.7 39.7 C 40.8 39.7 39.6 40.7 39.4 42.1 C 39.4 42.1 37.6 42.1 37.6 42.1 C 38 39.6 40 38.3 42.9 38.3 C 45.8 38.3 47.6 39.6 47.6 42.5 C 47.57 42.5 47.6 51.4 47.6 51.4 L 45.9 51.4 C 45.9 51.4 45.86 49.06 45.9 49.1 Z M 43.7 45.1 C 43.7 45.1 41.8 45.4 41.8 45.4 C 40.1 45.6 38.9 46.2 38.9 47.8 C 38.9 49.4 40.2 50.1 41.6 50.1 C 43.6 50.1 45.8 48.6 45.8 45.8 C 45.8 45.8 45.8 44.6 45.8 44.6 C 45.3 44.9 44.6 45 43.7 45.1 Z M 52.9 51.4 L 51.2 51.4 L 51.2 33.1 L 52.9 33.1 L 52.9 51.4 Z M 62.6 51.4 C 62.6 51.4 60.74 51.41 60.7 51.4 C 59 51.4 57.5 50.9 57.5 48 C 57.5 48.02 57.5 40.1 57.5 40.1 L 55 40.1 L 55 38.5 L 57.5 38.5 L 57.5 34.9 L 59.3 34.4 L 59.3 38.5 L 62.4 38.5 L 62.4 40.1 L 59.3 40.1 C 59.3 40.1 59.26 48 59.3 48 C 59.3 49.2 59.6 49.8 61 49.8 C 61.03 49.82 62.6 49.8 62.6 49.8 L 62.6 51.4 Z M 75.6 42.6 C 75.62 42.58 75.6 51.4 75.6 51.4 L 73.9 51.4 C 73.9 51.4 73.87 42.79 73.9 42.8 C 73.9 41 72.9 39.9 71 39.9 C 68.8 39.9 66.9 41.5 66.9 44.6 C 66.91 44.64 66.9 51.4 66.9 51.4 L 65.2 51.4 L 65.2 33.1 L 66.9 33.1 C 66.9 33.1 66.91 40.78 66.9 40.8 C 67.7 39.4 69 38.3 71.3 38.3 C 74 38.3 75.6 39.7 75.6 42.6 Z M 103.1 51.4 L 101.3 51.4 L 101.3 35.8 L 95.3 51.4 L 93.8 51.4 L 87.8 35.8 L 87.8 51.4 L 86.1 51.4 L 86.1 33.4 L 88.8 33.4 L 94.6 48.6 L 100.4 33.4 L 103.1 33.4 L 103.1 51.4 Z M 115.1 49.1 C 114.1 51 112.2 51.7 110.5 51.7 C 108.3 51.7 106.3 50.4 106.3 47.8 C 106.3 45.5 108 44.4 110.3 44.1 C 110.3 44.1 113.3 43.7 113.3 43.7 C 114.3 43.5 115.1 43.2 115.1 42.1 C 115.1 40.6 113.8 39.7 112 39.7 C 110 39.7 108.9 40.7 108.6 42.1 C 108.6 42.1 106.8 42.1 106.8 42.1 C 107.2 39.6 109.3 38.3 112.1 38.3 C 115 38.3 116.8 39.6 116.8 42.5 C 116.81 42.5 116.8 51.4 116.8 51.4 L 115.1 51.4 C 115.1 51.4 115.1 49.06 115.1 49.1 Z M 113 45.1 C 113 45.1 111 45.4 111 45.4 C 109.4 45.6 108.1 46.2 108.1 47.8 C 108.1 49.4 109.4 50.1 110.8 50.1 C 112.8 50.1 115.1 48.6 115.1 45.8 C 115.1 45.8 115.1 44.6 115.1 44.6 C 114.6 44.9 113.8 45 113 45.1 Z M 130.9 42.6 C 130.87 42.58 130.9 51.4 130.9 51.4 L 129.1 51.4 C 129.1 51.4 129.12 42.79 129.1 42.8 C 129.1 41 128.1 39.9 126.3 39.9 C 124.1 39.9 122.2 41.5 122.2 44.6 C 122.16 44.64 122.2 51.4 122.2 51.4 L 120.4 51.4 L 120.4 38.5 L 122.2 38.5 C 122.2 38.5 122.16 40.92 122.2 40.9 C 122.9 39.4 124.4 38.3 126.6 38.3 C 129.2 38.3 130.9 39.7 130.9 42.6 Z M 142.5 49.1 C 141.5 51 139.6 51.7 137.9 51.7 C 135.7 51.7 133.8 50.4 133.8 47.8 C 133.8 45.5 135.5 44.4 137.7 44.1 C 137.7 44.1 140.7 43.7 140.7 43.7 C 141.7 43.5 142.5 43.2 142.5 42.1 C 142.5 40.6 141.2 39.7 139.4 39.7 C 137.4 39.7 136.3 40.7 136 42.1 C 136 42.1 134.3 42.1 134.3 42.1 C 134.6 39.6 136.7 38.3 139.5 38.3 C 142.4 38.3 144.2 39.6 144.2 42.5 C 144.21 42.5 144.2 51.4 144.2 51.4 L 142.5 51.4 C 142.5 51.4 142.51 49.06 142.5 49.1 Z M 140.4 45.1 C 140.4 45.1 138.4 45.4 138.4 45.4 C 136.8 45.6 135.6 46.2 135.6 47.8 C 135.6 49.4 136.8 50.1 138.2 50.1 C 140.2 50.1 142.5 48.6 142.5 45.8 C 142.5 45.8 142.5 44.6 142.5 44.6 C 142 44.9 141.2 45 140.4 45.1 Z M 158.9 50.8 C 158.9 54.7 156.4 56.6 153.1 56.6 C 150.2 56.6 147.7 55.2 147.3 52.2 C 147.3 52.2 149 52.2 149 52.2 C 149.3 53.8 150.5 55.2 153.1 55.2 C 155.4 55.2 157.2 54 157.2 50.9 C 157.2 50.9 157.2 48.4 157.2 48.4 C 156.3 50.3 154.3 50.9 152.7 50.9 C 149.5 50.9 147 48.8 147 44.6 C 147 40.4 149.7 38.3 152.7 38.3 C 154.8 38.3 156.4 39.2 157.2 40.6 C 157.17 40.61 157.2 38.5 157.2 38.5 L 158.9 38.5 C 158.9 38.5 158.9 50.83 158.9 50.8 Z M 157.1 44.6 C 157.1 41.3 155.2 39.8 153 39.8 C 150.8 39.8 148.7 41.4 148.7 44.6 C 148.7 47.8 150.7 49.3 153 49.3 C 155 49.3 157.1 48 157.1 44.6 Z M 163.5 45.4 C 163.6 48.6 165.5 50.1 167.8 50.1 C 169.5 50.1 171.2 49.2 171.6 47.4 C 171.6 47.4 173.2 47.4 173.2 47.4 C 172.7 50.4 170.2 51.7 167.7 51.7 C 164.6 51.7 161.8 49.6 161.8 45 C 161.8 40.4 164.7 38.3 167.8 38.3 C 170.8 38.3 173.3 40.2 173.3 44.5 C 173.33 44.52 173.3 45.4 173.3 45.4 C 173.3 45.4 163.51 45.38 163.5 45.4 Z M 163.6 43.9 C 163.6 43.9 171.6 43.9 171.6 43.9 C 171.6 41.3 169.9 39.8 167.7 39.8 C 165.7 39.8 163.8 41.1 163.6 43.9 Z M 182.8 40 C 182.8 40 182.35 40.03 182.4 40 C 179.6 40 178.1 41.6 178.1 44.6 C 178.08 44.57 178.1 51.4 178.1 51.4 L 176.3 51.4 L 176.3 38.5 L 178.1 38.5 C 178.1 38.5 178.05 40.9 178.1 40.9 C 178.7 39.2 180.2 38.4 182.2 38.4 C 182.21 38.38 182.8 38.4 182.8 38.4 L 182.8 40 Z " stroke="none" fill="#000"/>  </g>  <g id="Polygon12406">    <path d="M 13.1 18.6 L 5.5 18.6 L 4 22.6 L 0.5 22.6 L 7.4 4.6 L 11.1 4.6 L 18.3 22.6 L 14.6 22.6 L 13.1 18.6 Z M 11.9 15.5 L 9.3 8.4 L 6.6 15.5 L 11.9 15.5 Z M 32 14.1 C 31.97 14.06 32 22.6 32 22.6 L 28.8 22.6 C 28.8 22.6 28.78 14.35 28.8 14.4 C 28.8 12.9 27.9 12 26.4 12 C 24.6 12 23.5 13.3 23.5 15.5 C 23.52 15.46 23.5 22.6 23.5 22.6 L 20.3 22.6 L 20.3 9.4 L 23.5 9.4 C 23.5 9.4 23.5 11.28 23.5 11.3 C 24.2 10.1 25.3 9.1 27.5 9.1 C 30.6 9.1 32 10.9 32 14.1 Z M 47.1 16 C 47.1 20.3 44.3 22.9 40.6 22.9 C 36.9 22.9 34.1 20.3 34.1 16 C 34.1 11.7 36.9 9.1 40.6 9.1 C 44.3 9.1 47.1 11.7 47.1 16 Z M 37.4 16 C 37.4 18.7 38.9 19.9 40.6 19.9 C 42.5 19.9 43.8 18.5 43.8 16 C 43.8 13.3 42.3 12.1 40.6 12.1 C 38.7 12.1 37.4 13.5 37.4 16 Z M 61 14.1 C 60.98 14.06 61 22.6 61 22.6 L 57.8 22.6 C 57.8 22.6 57.79 14.35 57.8 14.4 C 57.8 12.9 57 12 55.5 12 C 53.6 12 52.5 13.3 52.5 15.5 C 52.54 15.46 52.5 22.6 52.5 22.6 L 49.3 22.6 L 49.3 9.4 L 52.5 9.4 C 52.5 9.4 52.51 11.28 52.5 11.3 C 53.3 10.1 54.3 9.1 56.5 9.1 C 59.6 9.1 61 10.9 61 14.1 Z M 75.3 9.4 C 75.3 9.4 69.58 24.6 69.6 24.6 C 69 26.2 67.6 26.8 65.8 26.8 C 65.83 26.83 63.8 26.8 63.8 26.8 L 63.8 24 C 63.8 24 65.28 24 65.3 24 C 66.3 24 66.9 23.6 67.2 22.7 C 67.18 22.7 67.4 22.1 67.4 22.1 L 62.4 9.4 L 65.8 9.4 L 69 18.1 L 72 9.4 L 75.3 9.4 Z M 95.6 13.7 C 95.59 13.68 95.6 22.6 95.6 22.6 L 92.4 22.6 C 92.4 22.6 92.4 14.3 92.4 14.3 C 92.4 12.7 91.7 12 90.3 12 C 88.8 12 87.8 12.9 87.8 15.2 C 87.84 15.17 87.8 22.6 87.8 22.6 L 84.6 22.6 C 84.6 22.6 84.65 14.3 84.6 14.3 C 84.6 12.7 83.9 12 82.6 12 C 81.1 12 80.1 13 80.1 15.1 C 80.09 15.14 80.1 22.6 80.1 22.6 L 76.9 22.6 L 76.9 9.4 L 80 9.4 C 80 9.4 80.04 11.3 80 11.3 C 80.4 10.2 81.5 9.1 83.5 9.1 C 85.2 9.1 86.5 9.9 87.1 11.3 C 87.6 10.4 88.6 9.1 91 9.1 C 93.8 9.1 95.6 10.8 95.6 13.7 Z M 110.7 16 C 110.7 20.3 107.9 22.9 104.2 22.9 C 100.5 22.9 97.8 20.3 97.8 16 C 97.8 11.7 100.5 9.1 104.2 9.1 C 107.9 9.1 110.7 11.7 110.7 16 Z M 101 16 C 101 18.7 102.5 19.9 104.3 19.9 C 106.2 19.9 107.4 18.5 107.4 16 C 107.4 13.3 106 12.1 104.2 12.1 C 102.3 12.1 101 13.5 101 16 Z M 124.6 22.6 L 121.4 22.6 C 121.4 22.6 121.44 20.74 121.4 20.7 C 120.7 22 119.5 22.8 117.6 22.8 C 114.9 22.8 112.8 21 112.8 17.6 C 112.85 17.59 112.8 9.4 112.8 9.4 L 116 9.4 C 116 9.4 116.04 17.35 116 17.4 C 116 19.2 116.9 19.9 118.3 19.9 C 120.1 19.9 121.4 18.8 121.4 15.8 C 121.37 15.77 121.4 9.4 121.4 9.4 L 124.6 9.4 L 124.6 22.6 Z M 138.3 18.5 C 138.3 21.5 135.6 22.9 132.6 22.9 C 129.9 22.9 126.9 21.7 126.7 18.4 C 126.7 18.4 129.9 18.4 129.9 18.4 C 130.2 19.7 131.3 20.3 132.8 20.3 C 134.2 20.3 135.1 19.8 135.1 18.8 C 135.1 18 134.5 17.8 132.7 17.5 C 130.1 17 127.1 16.6 127.1 13.3 C 127.1 10.3 129.6 9.1 132.4 9.1 C 135.5 9.1 137.8 10.7 138 13.6 C 138 13.6 134.8 13.6 134.8 13.6 C 134.7 12.3 133.8 11.8 132.4 11.8 C 130.8 11.8 130.2 12.5 130.2 13.2 C 130.2 14.3 131.4 14.5 133 14.7 C 135.4 15.1 138.3 15.4 138.3 18.5 Z " stroke="none" fill="#000"/>  </g></svg>