<?xml version="1.0" standalone="no"?><!DOCTYPE svg PUBLIC "-//W3C//DTD SVG 1.1//EN" "http://www.w3.org/Graphics/SVG/1.1/DTD/svg11.dtd"><svg xmlns="http://www.w3.org/2000/svg" version="1.1" width="258px" height="36.4px" viewBox="0 0 258 36.4">  <desc>Bessere diversifikation</desc>  <defs/>  <g id="Polygon9611">    <path d="M 13 15.3 C 13 17.5 11.2 19.8 7.9 19.8 C 7.85 19.8 1.9 19.8 1.9 19.8 L 1.9 4 C 1.9 4 8.13 4.03 8.1 4 C 10.9 4 12.3 5.8 12.3 7.6 C 12.3 9.1 11.5 10.6 10 11.3 C 12 12 13 13.6 13 15.3 Z M 7.4 10.8 C 9.6 10.8 10.7 9.3 10.7 7.9 C 10.7 6.7 9.8 5.4 7.8 5.4 C 7.83 5.44 3.5 5.4 3.5 5.4 L 3.5 10.8 C 3.5 10.8 7.41 10.75 7.4 10.8 Z M 11.3 15.2 C 11.3 13.6 10.2 12.2 8 12.2 C 8.02 12.16 3.5 12.2 3.5 12.2 L 3.5 18.3 C 3.5 18.3 7.85 18.33 7.9 18.3 C 10.2 18.3 11.3 16.8 11.3 15.2 Z M 16.5 14.5 C 16.5 17.3 18.2 18.6 20.2 18.6 C 21.7 18.6 23.2 17.9 23.5 16.3 C 23.5 16.3 25 16.3 25 16.3 C 24.5 18.9 22.3 20 20.1 20 C 17.5 20 15 18.2 15 14.2 C 15 10.1 17.5 8.3 20.2 8.3 C 22.9 8.3 25.1 10 25.1 13.8 C 25.05 13.75 25.1 14.5 25.1 14.5 C 25.1 14.5 16.46 14.51 16.5 14.5 Z M 16.5 13.2 C 16.5 13.2 23.5 13.2 23.5 13.2 C 23.5 10.9 22 9.7 20.1 9.7 C 18.4 9.7 16.7 10.8 16.5 13.2 Z M 36.1 16.6 C 36.1 18.9 34 20 31.7 20 C 29.3 20 27.1 18.8 26.8 16.3 C 26.8 16.3 28.5 16.3 28.5 16.3 C 28.7 18 30.2 18.6 31.7 18.6 C 33.2 18.6 34.5 18.1 34.5 16.8 C 34.5 15.5 33.2 15.2 31.8 15 C 29.7 14.6 27.1 14.2 27.1 11.6 C 27.1 9.4 29 8.3 31.4 8.3 C 33.7 8.3 35.6 9.4 35.8 11.7 C 35.8 11.7 34.2 11.7 34.2 11.7 C 34.1 10.3 32.8 9.7 31.3 9.7 C 29.8 9.7 28.7 10.4 28.7 11.5 C 28.7 13 30.1 13.2 31.8 13.5 C 33.8 13.8 36.1 14.1 36.1 16.6 Z M 47 16.6 C 47 18.9 44.9 20 42.6 20 C 40.2 20 38 18.8 37.7 16.3 C 37.7 16.3 39.4 16.3 39.4 16.3 C 39.6 18 41.1 18.6 42.6 18.6 C 44.1 18.6 45.4 18.1 45.4 16.8 C 45.4 15.5 44.1 15.2 42.7 15 C 40.6 14.6 38 14.2 38 11.6 C 38 9.4 39.9 8.3 42.3 8.3 C 44.6 8.3 46.5 9.4 46.7 11.7 C 46.7 11.7 45.1 11.7 45.1 11.7 C 45 10.3 43.7 9.7 42.2 9.7 C 40.7 9.7 39.6 10.4 39.6 11.5 C 39.6 13 41 13.2 42.7 13.5 C 44.7 13.8 47 14.1 47 16.6 Z M 50.3 14.5 C 50.3 17.3 52 18.6 54 18.6 C 55.5 18.6 57 17.9 57.3 16.3 C 57.3 16.3 58.8 16.3 58.8 16.3 C 58.3 18.9 56.1 20 53.9 20 C 51.2 20 48.7 18.2 48.7 14.2 C 48.7 10.1 51.3 8.3 54 8.3 C 56.7 8.3 58.8 10 58.8 13.8 C 58.84 13.75 58.8 14.5 58.8 14.5 C 58.8 14.5 50.25 14.51 50.3 14.5 Z M 50.3 13.2 C 50.3 13.2 57.3 13.2 57.3 13.2 C 57.3 10.9 55.8 9.7 53.9 9.7 C 52.2 9.7 50.5 10.8 50.3 13.2 Z M 67.1 9.8 C 67.1 9.8 66.74 9.83 66.7 9.8 C 64.3 9.8 63 11.2 63 13.8 C 63 13.8 63 19.8 63 19.8 L 61.5 19.8 L 61.5 8.5 L 63 8.5 C 63 8.5 62.98 10.58 63 10.6 C 63.5 9.1 64.9 8.4 66.6 8.4 C 66.61 8.38 67.1 8.4 67.1 8.4 L 67.1 9.8 Z M 69.7 14.5 C 69.7 17.3 71.4 18.6 73.4 18.6 C 74.9 18.6 76.4 17.9 76.7 16.3 C 76.7 16.3 78.2 16.3 78.2 16.3 C 77.7 18.9 75.5 20 73.3 20 C 70.6 20 68.1 18.2 68.1 14.2 C 68.1 10.1 70.7 8.3 73.4 8.3 C 76.1 8.3 78.2 10 78.2 13.8 C 78.25 13.75 78.2 14.5 78.2 14.5 C 78.2 14.5 69.66 14.51 69.7 14.5 Z M 69.7 13.2 C 69.7 13.2 76.7 13.2 76.7 13.2 C 76.7 10.9 75.2 9.7 73.3 9.7 C 71.6 9.7 69.9 10.8 69.7 13.2 Z M 95.5 19.8 L 94 19.8 C 94 19.8 94.04 17.6 94 17.6 C 93.5 18.9 92.1 20 90 20 C 87.1 20 85 17.7 85 14.1 C 85 10.6 87.1 8.3 90 8.3 C 92 8.3 93.4 9.2 94 10.4 C 93.97 10.42 94 3.8 94 3.8 L 95.5 3.8 L 95.5 19.8 Z M 94 14.1 C 94 11.3 92.4 9.7 90.2 9.7 C 88 9.7 86.5 11.4 86.5 14.1 C 86.5 16.9 88.1 18.6 90.2 18.6 C 92.4 18.6 94 16.9 94 14.1 Z M 100.5 3.8 L 98.8 3.8 L 98.8 5.7 L 100.5 5.7 L 100.5 3.8 Z M 100.4 19.8 L 98.9 19.8 L 98.9 8.5 L 100.4 8.5 L 100.4 19.8 Z M 108.2 19.8 L 106.6 19.8 L 102.4 8.5 L 104.1 8.5 L 107.4 18.2 L 110.8 8.5 L 112.4 8.5 L 108.2 19.8 Z M 115 14.5 C 115 17.3 116.8 18.6 118.8 18.6 C 120.2 18.6 121.7 17.9 122.1 16.3 C 122.1 16.3 123.5 16.3 123.5 16.3 C 123 18.9 120.8 20 118.7 20 C 116 20 113.5 18.2 113.5 14.2 C 113.5 10.1 116 8.3 118.7 8.3 C 121.4 8.3 123.6 10 123.6 13.8 C 123.58 13.75 123.6 14.5 123.6 14.5 C 123.6 14.5 115 14.51 115 14.5 Z M 115 13.2 C 115 13.2 122 13.2 122 13.2 C 122 10.9 120.6 9.7 118.7 9.7 C 116.9 9.7 115.2 10.8 115 13.2 Z M 131.8 9.8 C 131.8 9.8 131.48 9.83 131.5 9.8 C 129.1 9.8 127.7 11.2 127.7 13.8 C 127.74 13.8 127.7 19.8 127.7 19.8 L 126.2 19.8 L 126.2 8.5 L 127.7 8.5 C 127.7 8.5 127.72 10.58 127.7 10.6 C 128.2 9.1 129.6 8.4 131.4 8.4 C 131.35 8.38 131.8 8.4 131.8 8.4 L 131.8 9.8 Z M 142.2 16.6 C 142.2 18.9 140.1 20 137.9 20 C 135.4 20 133.2 18.8 133 16.3 C 133 16.3 134.6 16.3 134.6 16.3 C 134.9 18 136.4 18.6 137.9 18.6 C 139.3 18.6 140.6 18.1 140.6 16.8 C 140.6 15.5 139.3 15.2 138 15 C 135.8 14.6 133.3 14.2 133.3 11.6 C 133.3 9.4 135.2 8.3 137.5 8.3 C 139.9 8.3 141.8 9.4 141.9 11.7 C 141.9 11.7 140.3 11.7 140.3 11.7 C 140.2 10.3 138.9 9.7 137.4 9.7 C 135.9 9.7 134.9 10.4 134.9 11.5 C 134.9 13 136.2 13.2 137.9 13.5 C 140 13.8 142.2 14.1 142.2 16.6 Z M 146.4 3.8 L 144.6 3.8 L 144.6 5.7 L 146.4 5.7 L 146.4 3.8 Z M 146.3 19.8 L 144.7 19.8 L 144.7 8.5 L 146.3 8.5 L 146.3 19.8 Z M 157.5 19.8 L 157.5 9.9 L 151.7 9.9 L 151.7 19.8 L 150.1 19.8 L 150.1 9.9 L 148.3 9.9 L 148.3 8.5 L 150.1 8.5 C 150.1 8.5 150.13 6.72 150.1 6.7 C 150.1 4.2 151.5 3.8 153 3.8 C 152.96 3.78 154.5 3.8 154.5 3.8 L 154.5 5.1 C 154.5 5.1 153.21 5.14 153.2 5.1 C 152 5.1 151.7 5.7 151.7 6.8 C 151.66 6.76 151.7 8.5 151.7 8.5 L 159 8.5 L 159 19.8 L 157.5 19.8 Z M 165.8 14.3 L 163.8 16.4 L 163.8 19.8 L 162.2 19.8 L 162.2 3.8 L 163.8 3.8 L 163.8 14.5 L 169.3 8.5 L 171.3 8.5 L 166.8 13.2 L 171.6 19.8 L 169.8 19.8 L 165.8 14.3 Z M 180.8 17.7 C 179.9 19.4 178.2 20 176.8 20 C 174.8 20 173.1 18.9 173.1 16.7 C 173.1 14.6 174.6 13.6 176.5 13.4 C 176.5 13.4 179.2 13 179.2 13 C 180 12.9 180.8 12.6 180.8 11.6 C 180.8 10.3 179.6 9.6 178 9.6 C 176.3 9.6 175.3 10.4 175.1 11.7 C 175.1 11.7 173.5 11.7 173.5 11.7 C 173.9 9.4 175.7 8.3 178.1 8.3 C 180.7 8.3 182.3 9.5 182.3 12 C 182.26 11.99 182.3 19.8 182.3 19.8 L 180.8 19.8 C 180.8 19.8 180.77 17.72 180.8 17.7 Z M 178.9 14.3 C 178.9 14.3 177.2 14.5 177.2 14.5 C 175.7 14.7 174.7 15.2 174.7 16.6 C 174.7 18 175.8 18.6 177 18.6 C 178.8 18.6 180.7 17.3 180.7 14.9 C 180.7 14.9 180.7 13.8 180.7 13.8 C 180.3 14.1 179.7 14.2 178.9 14.3 Z M 190.6 19.8 C 190.6 19.8 188.89 19.78 188.9 19.8 C 187.4 19.8 186.1 19.3 186.1 16.8 C 186.06 16.82 186.1 9.9 186.1 9.9 L 183.8 9.9 L 183.8 8.5 L 186.1 8.5 L 186.1 5.3 L 187.6 4.9 L 187.6 8.5 L 190.3 8.5 L 190.3 9.9 L 187.6 9.9 C 187.6 9.9 187.59 16.8 187.6 16.8 C 187.6 17.8 187.9 18.4 189.1 18.4 C 189.15 18.4 190.6 18.4 190.6 18.4 L 190.6 19.8 Z M 194.4 3.8 L 192.7 3.8 L 192.7 5.7 L 194.4 5.7 L 194.4 3.8 Z M 194.3 19.8 L 192.8 19.8 L 192.8 8.5 L 194.3 8.5 L 194.3 19.8 Z M 196.9 14.2 C 196.9 10.5 199.1 8.3 202.2 8.3 C 205.4 8.3 207.6 10.5 207.6 14.2 C 207.6 17.8 205.4 20 202.3 20 C 199.2 20 196.9 17.8 196.9 14.2 Z M 206 14.1 C 206 11.3 204.3 9.7 202.2 9.7 C 200 9.7 198.5 11.4 198.5 14.2 C 198.5 17 200.2 18.6 202.3 18.6 C 204.5 18.6 206 16.9 206 14.1 Z M 219.4 12.1 C 219.39 12.05 219.4 19.8 219.4 19.8 L 217.9 19.8 C 217.9 19.8 217.85 12.24 217.9 12.2 C 217.9 10.7 217 9.7 215.4 9.7 C 213.4 9.7 211.8 11.1 211.8 13.9 C 211.76 13.86 211.8 19.8 211.8 19.8 L 210.2 19.8 L 210.2 8.5 L 211.8 8.5 C 211.8 8.5 211.76 10.6 211.8 10.6 C 212.4 9.3 213.7 8.3 215.7 8.3 C 217.9 8.3 219.4 9.6 219.4 12.1 Z " stroke="none" fill="#000"/>  </g></svg>