<?xml version="1.0" standalone="no"?><!DOCTYPE svg PUBLIC "-//W3C//DTD SVG 1.1//EN" "http://www.w3.org/Graphics/SVG/1.1/DTD/svg11.dtd"><svg xmlns="http://www.w3.org/2000/svg" version="1.1" width="368.3px" height="191.4px" viewBox="0 -4 368.3 191.4" style="top:-4px"><desc>High Conviction to Seek Out Returns We re high-conviction investors, we re not benchmark huggers As yields stay low,</desc><defs/><g id="Polygon12484"><path d="m12.2 150.1c0 4.1-2.6 5.8-5.2 5.8c-1.9 0-3.2-.9-3.8-2.1v6.3H1.7v-15.6h1.5s-.03 2.38 0 2.4c.5-1.4 1.9-2.6 4-2.6c2.4 0 5 1.7 5 5.8zm-1.6 0c0-3.1-1.8-4.3-3.6-4.3c-1.9 0-3.8 1.2-3.8 4.4c0 3.1 1.9 4.3 3.7 4.3c1.9 0 3.7-1.2 3.7-4.4zm3.5.1c0-3.7 2.2-5.9 5.3-5.9c3.1 0 5.4 2.2 5.4 5.9c0 3.6-2.2 5.8-5.4 5.8c-3.1 0-5.3-2.2-5.3-5.8zm9.1-.1c0-2.8-1.7-4.4-3.8-4.4c-2.2 0-3.7 1.7-3.7 4.5c0 2.8 1.7 4.4 3.8 4.4c2.2 0 3.7-1.7 3.7-4.5zm9.3 5.7s-1.61-.02-1.6 0c-1.5 0-2.8-.5-2.8-3c-.04.02 0-6.9 0-6.9h-2.3v-1.4h2.3v-3.2l1.5-.4v3.6h2.7v1.4h-2.7v6.9c0 1 .3 1.6 1.5 1.6h1.4v1.4zm3-5.3c.1 2.8 1.8 4.1 3.8 4.1c1.5 0 3-.7 3.3-2.3h1.4c-.5 2.6-2.7 3.7-4.8 3.7c-2.7 0-5.2-1.8-5.2-5.8c0-4.1 2.6-5.9 5.3-5.9c2.6 0 4.8 1.7 4.8 5.5c.02-.05 0 .7 0 .7h-8.6zm.1-1.3h7c0-2.3-1.5-3.5-3.4-3.5c-1.8 0-3.4 1.1-3.6 3.5zm20.3-1.1v7.7h-1.5s-.03-7.56 0-7.6c0-1.5-.9-2.5-2.5-2.5c-1.9 0-3.6 1.4-3.6 4.2c-.02-.04 0 5.9 0 5.9h-1.6v-11.3h1.6s-.02 2.1 0 2.1c.7-1.3 1.9-2.3 3.9-2.3c2.2 0 3.7 1.3 3.7 3.8zm8.4 7.7s-1.66-.02-1.7 0c-1.4 0-2.8-.5-2.8-3v-6.9h-2.2v-1.4h2.2v-3.2l1.5-.4v3.6h2.8v1.4h-2.8s.04 6.9 0 6.9c0 1 .3 1.6 1.6 1.6h1.4v1.4zm3.8-16h-1.7v1.9h1.7v-1.9zm-.1 16h-1.5v-11.3h1.5v11.3zm10.3-2.1c-.9 1.7-2.6 2.3-4 2.3c-1.9 0-3.6-1.1-3.6-3.3c0-2.1 1.5-3.1 3.4-3.3l2.7-.4c.8-.1 1.5-.4 1.5-1.4c0-1.3-1.1-2-2.7-2c-1.7 0-2.7.8-3 2.1h-1.5c.3-2.3 2.1-3.4 4.6-3.4c2.6 0 4.1 1.2 4.1 3.7c.02-.01 0 7.8 0 7.8h-1.5s.03-2.08 0-2.1zm-1.8-3.4l-1.8.2c-1.4.2-2.5.7-2.5 2.1c0 1.4 1.1 2 2.4 2c1.7 0 3.7-1.3 3.7-3.7v-1.1c-.4.3-1.1.4-1.8.5zm8 5.5H83v-16h1.5v16zm7.9-5.6c0-3.7 2.2-5.9 5.3-5.9c3.1 0 5.4 2.2 5.4 5.9c0 3.6-2.3 5.8-5.4 5.8c-3.1 0-5.3-2.2-5.3-5.8zm9.1-.1c0-2.8-1.7-4.4-3.8-4.4c-2.2 0-3.7 1.7-3.7 4.5c0 2.8 1.7 4.4 3.8 4.4c2.1 0 3.7-1.7 3.7-4.5zm8.5 5.7h-1.7l-4.2-11.3h1.7l3.4 9.7l3.4-9.7h1.6l-4.2 11.3zm6.7-5.3c.1 2.8 1.8 4.1 3.8 4.1c1.5 0 2.9-.7 3.3-2.3h1.4c-.5 2.6-2.7 3.7-4.8 3.7c-2.7 0-5.2-1.8-5.2-5.8c0-4.1 2.5-5.9 5.3-5.9c2.6 0 4.8 1.7 4.8 5.5v.7h-8.6zm.1-1.3h7c0-2.3-1.5-3.5-3.4-3.5c-1.8 0-3.4 1.1-3.6 3.5zm16.8-3.4s-.4.03-.4 0c-2.4 0-3.7 1.4-3.7 4c-.04 0 0 6 0 6h-1.6v-11.3h1.5s.04 2.08 0 2.1c.6-1.5 1.9-2.2 3.7-2.2c-.02-.02.5 0 .5 0v1.4zm8.9 7.9c-.9 1.7-2.6 2.3-4 2.3c-2 0-3.7-1.1-3.7-3.3c0-2.1 1.5-3.1 3.4-3.3l2.7-.4c.8-.1 1.6-.4 1.6-1.4c0-1.3-1.2-2-2.7-2c-1.7 0-2.8.8-3 2.1h-1.5c.3-2.3 2.1-3.4 4.6-3.4c2.5 0 4.1 1.2 4.1 3.7c-.03-.01 0 7.8 0 7.8h-1.5s-.02-2.08 0-2.1zm-1.9-3.4l-1.7.2c-1.4.2-2.5.7-2.5 2.1c0 1.4 1.1 2 2.3 2c1.8 0 3.7-1.3 3.7-3.7v-1.1c-.4.3-1 .4-1.8.5zm8.1 5.5h-1.6v-16h1.6v16zm4.9 0H152v-16h1.6v16zm14.6-10s-.35.03-.3 0c-2.4 0-3.8 1.4-3.8 4v6h-1.5v-11.3h1.5v2.1c.5-1.5 1.9-2.2 3.6-2.2c.02-.02.5 0 .5 0v1.4zm2.6 4.7c0 2.8 1.7 4.1 3.7 4.1c1.5 0 3-.7 3.3-2.3h1.5c-.5 2.6-2.7 3.7-4.9 3.7c-2.6 0-5.1-1.8-5.1-5.8c0-4.1 2.5-5.9 5.2-5.9c2.7 0 4.9 1.7 4.9 5.5c-.04-.05 0 .7 0 .7h-8.6zm0-1.3h7c0-2.3-1.5-3.5-3.4-3.5c-1.7 0-3.4 1.1-3.6 3.5zm16.3 6.6s-1.63-.02-1.6 0c-1.5 0-2.9-.5-2.9-3c.03.02 0-6.9 0-6.9h-2.2v-1.4h2.2v-3.2l1.6-.4v3.6h2.7v1.4h-2.7s-.03 6.9 0 6.9c0 1 .3 1.6 1.5 1.6h1.4v1.4zm9.6 0s.05-2.16 0-2.2c-.7 1.6-2.1 2.3-3.7 2.3c-2.1 0-3.8-1.3-3.8-3.9c.03-.04 0-7.5 0-7.5h1.6s-.04 7.27 0 7.3c0 1.8 1 2.8 2.5 2.8c1.8 0 3.4-1.4 3.4-4.3c-.02.04 0-5.8 0-5.8h1.5v11.3h-1.5zm10.5-10s-.35.03-.4 0c-2.3 0-3.7 1.4-3.7 4v6h-1.5v-11.3h1.5v2.1c.5-1.5 1.9-2.2 3.6-2.2c.02-.02.5 0 .5 0v1.4zm11.2 2.3c-.05-.05 0 7.7 0 7.7h-1.6s.02-7.56 0-7.6c0-1.5-.9-2.5-2.5-2.5c-1.9 0-3.6 1.4-3.6 4.2c.03-.04 0 5.9 0 5.9h-1.5v-11.3h1.5s.03 2.1 0 2.1c.7-1.3 2-2.3 3.9-2.3c2.3 0 3.8 1.3 3.8 3.8zm11.6 4.5c0 2.3-2.1 3.4-4.4 3.4c-2.4 0-4.6-1.2-4.8-3.7h1.6c.3 1.7 1.7 2.3 3.3 2.3c1.4 0 2.7-.5 2.7-1.8c0-1.3-1.3-1.6-2.6-1.8c-2.2-.4-4.8-.8-4.8-3.4c0-2.2 2-3.3 4.3-3.3c2.4 0 4.3 1.1 4.4 3.4h-1.6c-.1-1.4-1.4-2-2.9-2c-1.5 0-2.6.7-2.6 1.8c0 1.5 1.4 1.7 3.1 2c2 .3 4.3.6 4.3 3.1zm1.8 1h2.1v2.2h-2.1v-2.2z" stroke="none" fill="#000"/></g><g id="Polygon12483"><path d="m12.2 124.9c0 3.5-2.1 5.9-5.1 5.9c-2 0-3.4-1.1-4-2.3c.05 0 0 2.1 0 2.1H1.7v-16h1.5v7c.6-1.4 2-2.5 4-2.5c2.9 0 5 2.2 5 5.8zm-1.6.1c0-2.8-1.4-4.4-3.6-4.4c-2.2 0-3.8 1.6-3.8 4.4c0 2.8 1.5 4.5 3.7 4.5c2.2 0 3.7-1.8 3.7-4.5zm5 .3c0 2.8 1.8 4.1 3.8 4.1c1.5 0 2.9-.7 3.3-2.3h1.4c-.5 2.6-2.7 3.7-4.8 3.7c-2.7 0-5.2-1.8-5.2-5.8c0-4.1 2.5-5.9 5.2-5.9c2.7 0 4.9 1.7 4.9 5.5v.7h-8.6zm0-1.3h7c0-2.3-1.4-3.5-3.3-3.5c-1.8 0-3.4 1.1-3.7 3.5zm15.7 6.8c-3.1 0-5.2-2.3-5.2-5.8c0-3.6 2.1-5.9 5.3-5.9c2.5 0 4.5 1.4 4.7 3.9h-1.5c-.2-1.6-1.5-2.5-3.2-2.5c-2.2 0-3.8 1.7-3.8 4.4c0 2.8 1.6 4.5 3.8 4.5c1.7 0 3.1-1 3.2-2.8h1.5c-.2 2.7-2.3 4.2-4.8 4.2zM38 125c0-3.7 2.2-5.9 5.3-5.9c3.1 0 5.4 2.2 5.4 5.9c0 3.6-2.2 5.8-5.4 5.8c-3.1 0-5.3-2.2-5.3-5.8zm9.1-.1c0-2.8-1.7-4.4-3.8-4.4c-2.2 0-3.7 1.7-3.7 4.5c0 2.8 1.7 4.4 3.8 4.4c2.1 0 3.7-1.7 3.7-4.5zm4.2-5.6h1.5v1.9c.6-1.4 1.9-2.1 3.3-2.1c1.6 0 3 .9 3.3 2.3c.5-1.2 1.8-2.3 3.7-2.3c2.1 0 3.7 1.1 3.7 3.4c-.02 0 0 8.1 0 8.1h-1.6s.05-7.56 0-7.6c0-1.7-1-2.5-2.3-2.5c-1.7 0-3.1 1.3-3.1 3.6v6.5h-1.5s-.03-7.56 0-7.6c0-1.7-1.1-2.5-2.4-2.5c-1.7 0-3.1 1.2-3.1 3.6c.04.03 0 6.5 0 6.5h-1.5v-11.3zm19.5 6c.1 2.8 1.8 4.1 3.8 4.1c1.5 0 2.9-.7 3.3-2.3h1.4c-.5 2.6-2.7 3.7-4.8 3.7c-2.7 0-5.2-1.8-5.2-5.8c0-4.1 2.5-5.9 5.2-5.9c2.7 0 4.9 1.7 4.9 5.5v.7h-8.6zm.1-1.3h6.9c0-2.3-1.4-3.5-3.3-3.5c-1.8 0-3.4 1.1-3.6 3.5zm19.5 3.4c0 2.3-2.1 3.4-4.3 3.4c-2.5 0-4.7-1.2-4.9-3.7h1.6c.3 1.7 1.7 2.3 3.3 2.3c1.4 0 2.7-.5 2.7-1.8c0-1.3-1.3-1.6-2.6-1.8c-2.2-.4-4.7-.8-4.7-3.4c0-2.2 1.9-3.3 4.2-3.3c2.4 0 4.3 1.1 4.4 3.4h-1.6c-.1-1.4-1.4-2-2.9-2c-1.5 0-2.5.7-2.5 1.8c0 1.5 1.3 1.7 3 2c2.1.3 4.3.6 4.3 3.1zm14.7 1.1c-.9 1.7-2.6 2.3-4 2.3c-1.9 0-3.7-1.1-3.7-3.3c0-2.1 1.5-3.1 3.5-3.3l2.6-.4c.9-.1 1.6-.4 1.6-1.4c0-1.3-1.2-2-2.7-2c-1.7 0-2.8.8-3 2.1h-1.5c.3-2.3 2.1-3.4 4.6-3.4c2.5 0 4.1 1.2 4.1 3.7v7.8h-1.5v-2.1zm-1.9-3.4l-1.7.2c-1.4.2-2.5.7-2.5 2.1c0 1.4 1.1 2 2.3 2c1.8 0 3.8-1.3 3.8-3.7v-1.1c-.5.3-1.1.4-1.9.5zm22.3-.2c0 3.5-2.1 5.9-5.1 5.9c-2 0-3.3-1.1-3.9-2.3c-.03 0 0 2.1 0 2.1H115v-16h1.5s.03 6.97 0 7c.6-1.4 2-2.5 4.1-2.5c2.8 0 4.9 2.2 4.9 5.8zm-1.5.1c0-2.8-1.5-4.4-3.7-4.4c-2.2 0-3.8 1.6-3.8 4.4c0 2.8 1.6 4.5 3.7 4.5c2.3 0 3.8-1.8 3.8-4.5zm5.8-10.4H128v1.9h1.8v-1.9zm-.1 16h-1.6v-11.3h1.6v11.3zm13-.5c0 3.4-2.2 5.1-5.1 5.1c-2.5 0-4.7-1.3-5-3.9h1.5c.2 1.4 1.3 2.6 3.5 2.6c2.1 0 3.7-1.1 3.7-3.7v-2.3c-.9 1.7-2.6 2.3-4 2.3c-2.8 0-5-1.9-5-5.6c0-3.7 2.4-5.5 5-5.5c1.9 0 3.2.8 3.9 2c.02.03 0-1.8 0-1.8h1.5s.04 10.78 0 10.8zm-1.5-5.5c0-2.8-1.7-4.2-3.7-4.2c-1.9 0-3.7 1.4-3.7 4.2c0 2.8 1.8 4.2 3.7 4.2c1.8 0 3.7-1.2 3.7-4.2zm14.5 5.5c0 3.4-2.2 5.1-5.1 5.1c-2.5 0-4.7-1.3-5.1-3.9h1.6c.2 1.4 1.2 2.6 3.5 2.6c2.1 0 3.6-1.1 3.6-3.7v-2.3c-.8 1.7-2.5 2.3-4 2.3c-2.7 0-4.9-1.9-4.9-5.6c0-3.7 2.3-5.5 5-5.5c1.8 0 3.2.8 3.9 2c-.02.03 0-1.8 0-1.8h1.5v10.8zm-1.6-5.5c0-2.8-1.7-4.2-3.6-4.2c-1.9 0-3.7 1.4-3.7 4.2c0 2.8 1.7 4.2 3.7 4.2c1.8 0 3.6-1.2 3.6-4.2zm5.6.7c.1 2.8 1.8 4.1 3.8 4.1c1.5 0 2.9-.7 3.3-2.3h1.4c-.5 2.6-2.7 3.7-4.8 3.7c-2.7 0-5.2-1.8-5.2-5.8c0-4.1 2.6-5.9 5.3-5.9c2.6 0 4.8 1.7 4.8 5.5v.7h-8.6zm.1-1.3h7c0-2.3-1.5-3.5-3.4-3.5c-1.8 0-3.4 1.1-3.6 3.5zm16.8-3.4s-.39.03-.4 0c-2.4 0-3.7 1.4-3.7 4c-.03 0 0 6 0 6h-1.6v-11.3h1.6s-.05 2.08 0 2.1c.5-1.5 1.8-2.2 3.6-2.2c-.02-.02.5 0 .5 0v1.4zm17.5 4.3c0 4.1-2.6 5.8-5.1 5.8c-2 0-3.2-.9-3.9-2.1c.03.03 0 6.3 0 6.3h-1.5v-15.6h1.5v2.4c.5-1.4 2-2.6 4-2.6c2.5 0 5 1.7 5 5.8zm-1.6 0c0-3.1-1.7-4.3-3.6-4.3c-1.9 0-3.7 1.2-3.7 4.4c0 3.1 1.8 4.3 3.7 4.3c1.8 0 3.6-1.2 3.6-4.4zm11.2 3.6c-.9 1.7-2.6 2.3-4 2.3c-2 0-3.7-1.1-3.7-3.3c0-2.1 1.5-3.1 3.4-3.3l2.7-.4c.8-.1 1.6-.4 1.6-1.4c0-1.3-1.2-2-2.8-2c-1.7 0-2.7.8-2.9 2.1h-1.5c.3-2.3 2.1-3.4 4.6-3.4c2.5 0 4.1 1.2 4.1 3.7c-.03-.01 0 7.8 0 7.8h-1.5s-.02-2.08 0-2.1zm-1.9-3.4l-1.7.2c-1.4.2-2.5.7-2.5 2.1c0 1.4 1.1 2 2.3 2c1.8 0 3.7-1.3 3.7-3.7v-1.1c-.4.3-1 .4-1.8.5zm12.1-4.5s-.31.03-.3 0c-2.4 0-3.7 1.4-3.7 4c-.05 0 0 6 0 6h-1.6v-11.3h1.5s.03 2.08 0 2.1c.6-1.5 1.9-2.2 3.7-2.2c-.04-.02.4 0 .4 0v1.4zm7.6 10s-1.65-.02-1.7 0c-1.4 0-2.8-.5-2.8-3v-6.9h-2.2v-1.4h2.2v-3.2l1.5-.4v3.6h2.8v1.4h-2.8s.04 6.9 0 6.9c0 1 .3 1.6 1.6 1.6h1.4v1.4zm6.5-5.6c0-3.7 2.2-5.9 5.3-5.9c3.2 0 5.4 2.2 5.4 5.9c0 3.6-2.2 5.8-5.3 5.8c-3.1 0-5.4-2.2-5.4-5.8zm9.1-.1c0-2.8-1.7-4.4-3.8-4.4c-2.2 0-3.7 1.7-3.7 4.5c0 2.8 1.7 4.4 3.8 4.4c2.2 0 3.7-1.7 3.7-4.5zm7.8-9c-1.2 0-1.5.6-1.5 1.7c-.03-.04 0 1.7 0 1.7h2.5v1.4h-2.5v9.9h-1.6v-9.9H240v-1.4h1.8s.03-1.78 0-1.8c0-2.5 1.4-2.9 2.9-2.9c-.03-.02 1.5 0 1.5 0v1.3s-1.28.04-1.3 0zm13.4 14.7s-1.62-.02-1.6 0c-1.5 0-2.9-.5-2.9-3c.05.02 0-6.9 0-6.9h-2.2v-1.4h2.2v-3.2l1.6-.4v3.6h2.7v1.4h-2.7s-.02 6.9 0 6.9c0 1 .3 1.6 1.5 1.6h1.4v1.4zm11.4-7.7v7.7h-1.5s-.03-7.56 0-7.6c0-1.5-.9-2.5-2.5-2.5c-1.9 0-3.6 1.4-3.6 4.2c-.02-.04 0 5.9 0 5.9h-1.6v-16h1.6s-.02 6.68 0 6.7c.6-1.3 1.8-2.2 3.8-2.2c2.4 0 3.8 1.3 3.8 3.8zm4 2.4c.1 2.8 1.8 4.1 3.8 4.1c1.5 0 3-.7 3.3-2.3h1.4c-.5 2.6-2.7 3.7-4.8 3.7c-2.7 0-5.2-1.8-5.2-5.8c0-4.1 2.6-5.9 5.3-5.9c2.6 0 4.8 1.7 4.8 5.5c.02-.05 0 .7 0 .7h-8.6zm.1-1.3h7c0-2.3-1.5-3.5-3.4-3.5c-1.8 0-3.4 1.1-3.6 3.5z" stroke="none" fill="#000"/></g><g id="Polygon12482"><path d="m5 107.5c-.4 1.2-1.4 1.6-2.6 1.6c-.01-.02-1.2 0-1.2 0v-1.4h1c.9 0 1.4-.3 1.8-1.3c-.01-.01.5-1.5.5-1.5L.3 94.1h1.6l3.4 8.9l3.3-8.9h1.5L5 107.5zm8.7-18.1H12v1.9h1.7v-1.9zm-.1 16h-1.5V94.1h1.5v11.3zm4.2-5.3c0 2.8 1.7 4.1 3.7 4.1c1.5 0 3-.7 3.3-2.3h1.5c-.5 2.6-2.7 3.7-4.9 3.7c-2.6 0-5.1-1.8-5.1-5.8c0-4.1 2.5-5.9 5.2-5.9c2.7 0 4.9 1.7 4.9 5.5c-.05-.05 0 .7 0 .7h-8.6zm0-1.3h7c0-2.3-1.5-3.5-3.4-3.5c-1.7 0-3.4 1.1-3.6 3.5zm12.7 6.6H29v-16h1.5v16zm13.2 0h-1.5s.01-2.2 0-2.2c-.5 1.3-1.9 2.4-4 2.4c-3 0-5.1-2.3-5.1-5.9c0-3.5 2.1-5.8 5.1-5.8c1.9 0 3.3.9 3.9 2.1c.05.02 0-6.6 0-6.6h1.6v16zm-1.6-5.7c0-2.8-1.5-4.4-3.7-4.4c-2.2 0-3.7 1.7-3.7 4.4c0 2.8 1.5 4.5 3.7 4.5c2.2 0 3.7-1.7 3.7-4.5zm13.3 2.5c0 2.3-2.1 3.4-4.3 3.4c-2.4 0-4.7-1.2-4.9-3.7h1.6c.3 1.7 1.8 2.3 3.3 2.3c1.4 0 2.7-.5 2.7-1.8c0-1.3-1.3-1.6-2.6-1.8c-2.2-.4-4.7-.8-4.7-3.4c0-2.2 1.9-3.3 4.2-3.3c2.4 0 4.3 1.1 4.4 3.4h-1.6c-.1-1.4-1.4-2-2.8-2c-1.6 0-2.6.7-2.6 1.8c0 1.5 1.3 1.7 3 2c2.1.3 4.3.6 4.3 3.1zm15.7 0c0 2.3-2 3.4-4.3 3.4c-2.4 0-4.6-1.2-4.9-3.7h1.7c.2 1.7 1.7 2.3 3.2 2.3c1.5 0 2.8-.5 2.8-1.8c0-1.3-1.4-1.6-2.7-1.8c-2.1-.4-4.7-.8-4.7-3.4c0-2.2 1.9-3.3 4.2-3.3c2.4 0 4.3 1.1 4.5 3.4h-1.6c-.1-1.4-1.4-2-2.9-2c-1.6 0-2.6.7-2.6 1.8c0 1.5 1.4 1.7 3.1 2c2 .3 4.2.6 4.2 3.1zm7.7 3.2s-1.65-.02-1.6 0c-1.5 0-2.9-.5-2.9-3c.02.02 0-6.9 0-6.9h-2.2v-1.4h2.2v-3.2l1.6-.4v3.6h2.7v1.4h-2.7s-.05 6.9 0 6.9c0 1 .2 1.6 1.5 1.6h1.4v1.4zm9.1-2.1c-.8 1.7-2.5 2.3-4 2.3c-1.9 0-3.6-1.1-3.6-3.3c0-2.1 1.5-3.1 3.4-3.3l2.7-.4c.8-.1 1.5-.4 1.5-1.4c0-1.3-1.1-2-2.7-2c-1.7 0-2.7.8-2.9 2.1h-1.6c.3-2.3 2.1-3.4 4.6-3.4c2.6 0 4.1 1.2 4.1 3.7c.04-.01 0 7.8 0 7.8h-1.5s.05-2.08 0-2.1zm-1.8-3.4l-1.7.2c-1.5.2-2.5.7-2.5 2.1c0 1.4 1 2 2.3 2c1.8 0 3.7-1.3 3.7-3.7v-1.1c-.4.3-1.1.4-1.8.5zm9.8 7.6c-.4 1.2-1.4 1.6-2.6 1.6c0-.02-1.2 0-1.2 0v-1.4h1c1 0 1.4-.3 1.8-1.3l.5-1.5l-4.2-10.8h1.6l3.4 8.9l3.3-8.9h1.5s-5.09 13.42-5.1 13.4zm13.9-2.1h-1.5v-16h1.5v16zm2.6-5.6c0-3.7 2.2-5.9 5.3-5.9c3.2 0 5.4 2.2 5.4 5.9c0 3.6-2.2 5.8-5.3 5.8c-3.1 0-5.4-2.2-5.4-5.8zm9.1-.1c0-2.8-1.7-4.4-3.8-4.4c-2.2 0-3.7 1.7-3.7 4.5c0 2.8 1.7 4.4 3.8 4.4c2.2 0 3.7-1.7 3.7-4.5zm15.3 5.7h-1.5l-2.9-9l-3 9h-1.5l-3.6-11.3h1.5l2.9 9.3l2.9-9.3h1.5l3 9.3l2.8-9.3h1.6l-3.7 11.3zm6-.1c.02-.04-1 0-1 0v-2.1h2.2s.04 2.12 0 2.1c0 2.5-1.4 3.4-3 3.5l-.2-.9c1.7-.3 2-1.3 2-2.6zm15.8-2c-.8 1.7-2.6 2.3-4 2.3c-1.9 0-3.6-1.1-3.6-3.3c0-2.1 1.5-3.1 3.4-3.3l2.7-.4c.8-.1 1.5-.4 1.5-1.4c0-1.3-1.1-2-2.7-2c-1.7 0-2.7.8-3 2.1h-1.5c.3-2.3 2.1-3.4 4.6-3.4c2.6 0 4.1 1.2 4.1 3.7c.02-.01 0 7.8 0 7.8h-1.5s.03-2.08 0-2.1zm-1.8-3.4l-1.8.2c-1.4.2-2.5.7-2.5 2.1c0 1.4 1.1 2 2.4 2c1.7 0 3.7-1.3 3.7-3.7v-1.1c-.4.3-1.1.4-1.8.5zm11 5.7c-3.1 0-5.3-2.3-5.3-5.8c0-3.6 2.1-5.9 5.4-5.9c2.5 0 4.5 1.4 4.7 3.9h-1.5c-.2-1.6-1.6-2.5-3.2-2.5c-2.2 0-3.8 1.7-3.8 4.4c0 2.8 1.5 4.5 3.8 4.5c1.7 0 3-1 3.1-2.8h1.6c-.2 2.7-2.3 4.2-4.8 4.2zm12.5-.2s-1.63-.02-1.6 0c-1.5 0-2.9-.5-2.9-3c.03.02 0-6.9 0-6.9h-2.2v-1.4h2.2v-3.2l1.6-.4v3.6h2.7v1.4h-2.7s-.04 6.9 0 6.9c0 1 .3 1.6 1.5 1.6h1.4v1.4zm3.9-16h-1.8v1.9h1.8v-1.9zm-.1 16h-1.6V94.1h1.6v11.3zm7.8 0h-1.7l-4.1-11.3h1.6l3.4 9.7l3.4-9.7h1.6l-4.2 11.3zm6.8-5.3c0 2.8 1.7 4.1 3.7 4.1c1.5 0 3-.7 3.3-2.3h1.5c-.5 2.6-2.7 3.7-4.9 3.7c-2.7 0-5.2-1.8-5.2-5.8c0-4.1 2.6-5.9 5.3-5.9c2.7 0 4.8 1.7 4.8 5.5c.05-.05 0 .7 0 .7c0 0-8.54.01-8.5 0zm0-1.3h7c0-2.3-1.5-3.5-3.4-3.5c-1.7 0-3.4 1.1-3.6 3.5zm16.4-4.7h1.5s.03 1.87 0 1.9c.6-1.4 1.9-2.1 3.3-2.1c1.7 0 3 .9 3.3 2.3c.6-1.2 1.8-2.3 3.7-2.3c2.1 0 3.7 1.1 3.7 3.4v8.1h-1.5s-.03-7.56 0-7.6c0-1.7-1.1-2.5-2.4-2.5c-1.7 0-3.1 1.3-3.1 3.6v6.5h-1.5v-7.6c0-1.7-1-2.5-2.4-2.5c-1.6 0-3 1.2-3 3.6c-.05.03 0 6.5 0 6.5h-1.6V94.1zm25.7 9.2c-.9 1.7-2.6 2.3-4 2.3c-2 0-3.7-1.1-3.7-3.3c0-2.1 1.5-3.1 3.4-3.3l2.7-.4c.8-.1 1.6-.4 1.6-1.4c0-1.3-1.2-2-2.7-2c-1.7 0-2.8.8-3 2.1h-1.5c.3-2.3 2.1-3.4 4.6-3.4c2.5 0 4.1 1.2 4.1 3.7c-.03-.01 0 7.8 0 7.8h-1.5s-.02-2.08 0-2.1zm-1.9-3.4l-1.7.2c-1.4.2-2.5.7-2.5 2.1c0 1.4 1.1 2 2.3 2c1.8 0 3.7-1.3 3.7-3.7v-1.1c-.4.3-1 .4-1.8.5zm15.7-2.2c-.02-.05 0 7.7 0 7.7H253s.05-7.56 0-7.6c0-1.5-.8-2.5-2.4-2.5c-2 0-3.6 1.4-3.6 4.2c-.04-.04 0 5.9 0 5.9h-1.6V94.1h1.6s-.04 2.1 0 2.1c.6-1.3 1.9-2.3 3.9-2.3c2.2 0 3.7 1.3 3.7 3.8zm10.2 5.6c-.9 1.7-2.6 2.3-4 2.3c-2 0-3.7-1.1-3.7-3.3c0-2.1 1.5-3.1 3.4-3.3l2.7-.4c.8-.1 1.6-.4 1.6-1.4c0-1.3-1.2-2-2.8-2c-1.7 0-2.7.8-2.9 2.1h-1.6c.4-2.3 2.2-3.4 4.6-3.4c2.6 0 4.2 1.2 4.2 3.7c-.04-.01 0 7.8 0 7.8h-1.5s-.03-2.08 0-2.1zm-1.9-3.4l-1.7.2c-1.5.2-2.5.7-2.5 2.1c0 1.4 1.1 2 2.3 2c1.8 0 3.7-1.3 3.7-3.7v-1.1c-.4.3-1 .4-1.8.5zm16.2 5c0 3.4-2.2 5.1-5.1 5.1c-2.5 0-4.7-1.3-5.1-3.9h1.6c.2 1.4 1.3 2.6 3.5 2.6c2.1 0 3.6-1.1 3.6-3.7v-2.3c-.8 1.7-2.5 2.3-4 2.3c-2.7 0-4.9-1.9-4.9-5.6c0-3.7 2.3-5.5 5-5.5c1.8 0 3.2.8 3.9 2v-1.8h1.5v10.8zm-1.6-5.5c0-2.8-1.7-4.2-3.6-4.2c-1.9 0-3.7 1.4-3.7 4.2c0 2.8 1.7 4.2 3.7 4.2c1.8 0 3.6-1.2 3.6-4.2zm5.6.7c.1 2.8 1.8 4.1 3.8 4.1c1.5 0 3-.7 3.3-2.3h1.4c-.5 2.6-2.6 3.7-4.8 3.7c-2.7 0-5.2-1.8-5.2-5.8c0-4.1 2.6-5.9 5.3-5.9c2.6 0 4.8 1.7 4.8 5.5c.03-.05 0 .7 0 .7h-8.6zm.1-1.3h7c0-2.3-1.5-3.5-3.4-3.5c-1.7 0-3.4 1.1-3.6 3.5zm11.2-4.7h1.5s-.03 1.87 0 1.9c.6-1.4 1.8-2.1 3.2-2.1c1.7 0 3 .9 3.4 2.3c.5-1.2 1.7-2.3 3.7-2.3c2 0 3.6 1.1 3.6 3.4c.03 0 0 8.1 0 8.1h-1.5v-7.6c0-1.7-1.1-2.5-2.4-2.5c-1.7 0-3.1 1.3-3.1 3.6c.04.03 0 6.5 0 6.5h-1.5s.03-7.56 0-7.6c0-1.7-1-2.5-2.3-2.5c-1.7 0-3.1 1.2-3.1 3.6v6.5h-1.5V94.1zm19.5 6c0 2.8 1.7 4.1 3.7 4.1c1.5 0 3-.7 3.3-2.3h1.5c-.5 2.6-2.7 3.7-4.9 3.7c-2.7 0-5.1-1.8-5.1-5.8c0-4.1 2.5-5.9 5.2-5.9c2.7 0 4.9 1.7 4.9 5.5c-.05-.05 0 .7 0 .7h-8.6zm0-1.3h7c0-2.3-1.5-3.5-3.4-3.5c-1.7 0-3.4 1.1-3.6 3.5zm20.3-1.1c.03-.05 0 7.7 0 7.7h-1.5v-7.6c0-1.5-.9-2.5-2.5-2.5c-1.9 0-3.6 1.4-3.6 4.2v5.9h-1.5V94.1h1.5v2.1c.7-1.3 1.9-2.3 3.9-2.3c2.3 0 3.7 1.3 3.7 3.8zm8.4 7.7s-1.63-.02-1.6 0c-1.5 0-2.9-.5-2.9-3c.04.02 0-6.9 0-6.9h-2.2v-1.4h2.2v-3.2l1.6-.4v3.6h2.7v1.4h-2.7s-.03 6.9 0 6.9c0 1 .3 1.6 1.5 1.6h1.4v1.4z" stroke="none" fill="#000"/></g><g id="Polygon12481"><path d="m13 80.2h-1.6l-2.9-9l-2.9 9H4.1L.4 68.9h1.6l2.9 9.3l2.8-9.3h1.6l2.9 9.3l2.9-9.3h1.5L13 80.2zm6.3-5.3c0 2.8 1.8 4.1 3.8 4.1c1.4 0 2.9-.7 3.3-2.3h1.4c-.5 2.6-2.7 3.7-4.8 3.7c-2.7 0-5.2-1.8-5.2-5.8c0-4.1 2.5-5.9 5.2-5.9c2.7 0 4.9 1.7 4.9 5.5v.7h-8.6zm0-1.3h7c0-2.3-1.4-3.5-3.3-3.5c-1.8 0-3.4 1.1-3.7 3.5zm11.5-7.2c-.03-.02-1 0-1 0v-2.1h2.2s-.02 2.15 0 2.1c0 2.5-1.5 3.4-3.1 3.6l-.2-1c1.7-.3 2.1-1.3 2.1-2.6zm8.6 3.8s-.36.03-.4 0c-2.4 0-3.7 1.4-3.7 4v6h-1.5V68.9h1.5s-.02 2.08 0 2.1c.5-1.5 1.9-2.2 3.6-2.2c.01-.02.5 0 .5 0v1.4zm2.6 4.7c0 2.8 1.7 4.1 3.7 4.1c1.5 0 3-.7 3.3-2.3h1.5c-.5 2.6-2.7 3.7-4.9 3.7c-2.7 0-5.2-1.8-5.2-5.8c0-4.1 2.6-5.9 5.3-5.9c2.7 0 4.8 1.7 4.8 5.5c.05-.05 0 .7 0 .7c0 0-8.54.01-8.5 0zm0-1.3h7c0-2.3-1.5-3.5-3.4-3.5c-1.7 0-3.4 1.1-3.6 3.5zm25.6-1.1c-.02-.05 0 7.7 0 7.7H66s.04-7.56 0-7.6c0-1.5-.8-2.5-2.4-2.5c-2 0-3.6 1.4-3.6 4.2c-.05-.04 0 5.9 0 5.9h-1.6V68.9h1.6s-.05 2.1 0 2.1c.6-1.3 1.9-2.3 3.9-2.3c2.2 0 3.7 1.3 3.7 3.8zm2.5 2.1c0-3.7 2.2-5.9 5.3-5.9c3.1 0 5.4 2.2 5.4 5.9c0 3.6-2.2 5.8-5.3 5.8c-3.2 0-5.4-2.2-5.4-5.8zm9.1-.1c0-2.8-1.7-4.4-3.8-4.4c-2.2 0-3.7 1.7-3.7 4.5c0 2.8 1.7 4.4 3.8 4.4c2.2 0 3.7-1.7 3.7-4.5zm9.4 5.7s-1.7-.02-1.7 0c-1.5 0-2.8-.5-2.8-3c-.04.02 0-6.9 0-6.9h-2.3v-1.4h2.3v-3.2l1.5-.4v3.6h2.7v1.4h-2.7v6.9c0 1 .3 1.6 1.5 1.6h1.5v1.4zm18.1-5.7c0 3.5-2.1 5.9-5.1 5.9c-2 0-3.3-1.1-3.9-2.3v2.1h-1.5v-16h1.6s-.05 6.97 0 7c.5-1.4 1.9-2.5 4-2.5c2.9 0 4.9 2.2 4.9 5.8zm-1.5.1c0-2.8-1.5-4.4-3.7-4.4c-2.2 0-3.7 1.6-3.7 4.4c0 2.8 1.5 4.5 3.7 4.5c2.2 0 3.7-1.8 3.7-4.5zm4.9.3c.1 2.8 1.8 4.1 3.8 4.1c1.5 0 3-.7 3.3-2.3h1.4c-.5 2.6-2.6 3.7-4.8 3.7c-2.7 0-5.2-1.8-5.2-5.8c0-4.1 2.6-5.9 5.3-5.9c2.6 0 4.8 1.7 4.8 5.5c.03-.05 0 .7 0 .7h-8.6zm.1-1.3h7c0-2.3-1.5-3.5-3.4-3.5c-1.7 0-3.4 1.1-3.6 3.5zm20.3-1.1v7.7H129s-.02-7.56 0-7.6c0-1.5-.9-2.5-2.5-2.5c-1.9 0-3.6 1.4-3.6 4.2v5.9h-1.5V68.9h1.5v2.1c.7-1.3 1.9-2.3 3.9-2.3c2.2 0 3.7 1.3 3.7 3.8zm7.8 7.9c-3.1 0-5.3-2.3-5.3-5.8c0-3.6 2.1-5.9 5.4-5.9c2.5 0 4.5 1.4 4.7 3.9h-1.5c-.2-1.6-1.6-2.5-3.2-2.5c-2.2 0-3.8 1.7-3.8 4.4c0 2.8 1.5 4.5 3.7 4.5c1.7 0 3.1-1 3.2-2.8h1.6c-.2 2.7-2.3 4.2-4.8 4.2zm16.5-7.9c.03-.05 0 7.7 0 7.7h-1.5v-7.6c0-1.5-.9-2.5-2.5-2.5c-1.9 0-3.6 1.4-3.6 4.2v5.9h-1.5v-16h1.5s.01 6.68 0 6.7c.7-1.3 1.9-2.2 3.9-2.2c2.3 0 3.7 1.3 3.7 3.8zm3.3-3.6h1.5v1.9c.6-1.4 1.8-2.1 3.3-2.1c1.6 0 3 .9 3.3 2.3c.5-1.2 1.8-2.3 3.7-2.3c2 0 3.7 1.1 3.7 3.4c-.04 0 0 8.1 0 8.1H172s.03-7.56 0-7.6c0-1.7-1-2.5-2.4-2.5c-1.6 0-3 1.3-3 3.6c-.03.03 0 6.5 0 6.5h-1.5s-.04-7.56 0-7.6c0-1.7-1.1-2.5-2.4-2.5c-1.7 0-3.1 1.2-3.1 3.6c.02.03 0 6.5 0 6.5h-1.5V68.9zm25.6 9.2c-.8 1.7-2.5 2.3-4 2.3c-1.9 0-3.6-1.1-3.6-3.3c0-2.1 1.5-3.1 3.4-3.3l2.7-.4c.8-.1 1.5-.4 1.5-1.4c0-1.3-1.1-2-2.7-2c-1.7 0-2.7.8-2.9 2.1h-1.6c.3-2.3 2.1-3.4 4.6-3.4c2.6 0 4.1 1.2 4.1 3.7c.04-.01 0 7.8 0 7.8h-1.5s.05-2.08 0-2.1zm-1.8-3.4l-1.7.2c-1.5.2-2.5.7-2.5 2.1c0 1.4 1.1 2 2.3 2c1.8 0 3.7-1.3 3.7-3.7v-1.1c-.4.3-1.1.4-1.8.5zm12.1-4.5s-.34.03-.3 0c-2.4 0-3.8 1.4-3.8 4c.02 0 0 6 0 6h-1.5V68.9h1.5v2.1c.5-1.5 1.9-2.2 3.6-2.2c.03-.02.5 0 .5 0v1.4zm5.6 4.5l-2.1 2.1v3.4H196v-16h1.5v10.7l5.6-6h2l-4.5 4.7l4.8 6.6h-1.9l-3.9-5.5zm22.4-2.2v7.7h-1.5s-.02-7.56 0-7.6c0-1.5-.9-2.5-2.5-2.5c-1.9 0-3.6 1.4-3.6 4.2v5.9h-1.5v-16h1.5s-.01 6.68 0 6.7c.6-1.3 1.9-2.2 3.9-2.2c2.3 0 3.7 1.3 3.7 3.8zm10.7 7.7s-.02-2.16 0-2.2c-.8 1.6-2.2 2.3-3.8 2.3c-2.1 0-3.7-1.3-3.7-3.9c-.04-.04 0-7.5 0-7.5h1.5v7.3c0 1.8 1 2.8 2.5 2.8c1.8 0 3.4-1.4 3.4-4.3v-5.8h1.5v11.3h-1.4zm14.5-.5c0 3.4-2.2 5.1-5.1 5.1c-2.5 0-4.7-1.3-5.1-3.9h1.6c.2 1.4 1.3 2.6 3.5 2.6c2.1 0 3.6-1.1 3.6-3.7v-2.3c-.8 1.7-2.5 2.3-4 2.3c-2.7 0-4.9-1.9-4.9-5.6c0-3.7 2.3-5.5 5-5.5c1.8 0 3.2.8 3.9 2v-1.8h1.5v10.8zm-1.6-5.5c0-2.8-1.7-4.2-3.6-4.2c-1.9 0-3.7 1.4-3.7 4.2c0 2.8 1.7 4.2 3.7 4.2c1.8 0 3.6-1.2 3.6-4.2zm14.6 5.5c0 3.4-2.2 5.1-5.1 5.1c-2.5 0-4.8-1.3-5.1-3.9h1.5c.3 1.4 1.3 2.6 3.6 2.6c2 0 3.6-1.1 3.6-3.7v-2.3c-.8 1.7-2.5 2.3-4 2.3c-2.7 0-5-1.9-5-5.6c0-3.7 2.4-5.5 5.1-5.5c1.8 0 3.2.8 3.9 2c-.05.03 0-1.8 0-1.8h1.5s-.03 10.78 0 10.8zm-1.6-5.5c0-2.8-1.7-4.2-3.6-4.2c-2 0-3.8 1.4-3.8 4.2c0 2.8 1.8 4.2 3.8 4.2c1.8 0 3.6-1.2 3.6-4.2zm5.6.7c0 2.8 1.8 4.1 3.8 4.1c1.4 0 2.9-.7 3.3-2.3h1.4c-.5 2.6-2.7 3.7-4.8 3.7c-2.7 0-5.2-1.8-5.2-5.8c0-4.1 2.5-5.9 5.2-5.9c2.7 0 4.9 1.7 4.9 5.5v.7h-8.6zm0-1.3h7c0-2.3-1.4-3.5-3.3-3.5c-1.8 0-3.5 1.1-3.7 3.5zm16.8-3.4s-.32.03-.3 0c-2.4 0-3.8 1.4-3.8 4c.04 0 0 6 0 6h-1.5V68.9h1.5s.02 2.08 0 2.1c.5-1.5 1.9-2.2 3.7-2.2c-.04-.02.4 0 .4 0v1.4zm10.4 6.8c0 2.3-2.1 3.4-4.3 3.4c-2.4 0-4.7-1.2-4.9-3.7h1.6c.3 1.7 1.8 2.3 3.3 2.3c1.4 0 2.7-.5 2.7-1.8c0-1.3-1.3-1.6-2.6-1.8c-2.2-.4-4.7-.8-4.7-3.4c0-2.2 1.9-3.3 4.2-3.3c2.4 0 4.3 1.1 4.4 3.4h-1.6c-.1-1.4-1.4-2-2.9-2c-1.5 0-2.5.7-2.5 1.8c0 1.5 1.3 1.7 3 2c2.1.3 4.3.6 4.3 3.1zm1.8 1h2.1v2.2h-2.1V78zm19.6-2.3h-7.5l-1.7 4.5h-1.7l6.3-15.8h1.7l6.5 15.8h-1.8l-1.8-4.5zm-3.8-9.5l-3.1 8.1h6.4l-3.3-8.1zM327.2 77c0 2.3-2.1 3.4-4.3 3.4c-2.5 0-4.7-1.2-4.9-3.7h1.6c.3 1.7 1.7 2.3 3.3 2.3c1.4 0 2.7-.5 2.7-1.8c0-1.3-1.3-1.6-2.6-1.8c-2.2-.4-4.7-.8-4.7-3.4c0-2.2 1.9-3.3 4.2-3.3c2.4 0 4.3 1.1 4.4 3.4h-1.6c-.1-1.4-1.4-2-2.9-2c-1.5 0-2.6.7-2.6 1.8c0 1.5 1.4 1.7 3.1 2c2.1.3 4.3.6 4.3 3.1z" stroke="none" fill="#000"/></g><g id="Polygon12480"><path d="m15.9 55h-1.7l-3.9-13.3L6.4 55H4.7L.6 39.2h1.7l3.3 13.5l3.9-13.5h1.7l3.9 13.5l3.3-13.5h1.5l-4 15.8zm6.1-5.3c0 2.8 1.8 4.1 3.7 4.1c1.5 0 3-.7 3.3-2.3h1.5c-.5 2.6-2.7 3.7-4.8 3.7c-2.7 0-5.2-1.8-5.2-5.8c0-4.1 2.5-5.9 5.2-5.9c2.7 0 4.9 1.7 4.9 5.5c-.02-.05 0 .7 0 .7H22zm0-1.3h7c0-2.3-1.4-3.5-3.3-3.5c-1.8 0-3.5 1.1-3.7 3.5zm11.5-7.2c-.05-.02-1.1 0-1.1 0v-2.1h2.3s-.03 2.15 0 2.1c0 2.5-1.5 3.4-3.1 3.6l-.2-1c1.7-.3 2.1-1.3 2.1-2.6zm8.6 3.8s-.37.03-.4 0c-2.4 0-3.7 1.4-3.7 4v6h-1.5V43.7h1.5s-.03 2.08 0 2.1c.5-1.5 1.9-2.2 3.6-2.2c0-.02.5 0 .5 0v1.4zm2.5 4.7c.1 2.8 1.8 4.1 3.8 4.1c1.5 0 3-.7 3.3-2.3h1.5c-.6 2.6-2.7 3.7-4.9 3.7c-2.7 0-5.2-1.8-5.2-5.8c0-4.1 2.6-5.9 5.3-5.9c2.7 0 4.8 1.7 4.8 5.5c.04-.05 0 .7 0 .7h-8.6zm.1-1.3h7c0-2.3-1.5-3.5-3.4-3.5c-1.7 0-3.4 1.1-3.6 3.5zm25.6-1.1c-.03-.05 0 7.7 0 7.7h-1.6s.03-7.56 0-7.6c0-1.5-.8-2.5-2.4-2.5c-2 0-3.7 1.4-3.7 4.2c.04-.04 0 5.9 0 5.9h-1.5v-16h1.5s.04 6.68 0 6.7c.7-1.3 1.9-2.2 3.9-2.2c2.3 0 3.8 1.3 3.8 3.8zm4.9-8.3h-1.8v1.9h1.8V39zm-.1 16h-1.6V43.7h1.6V55zm13-.5c0 3.4-2.2 5.1-5.1 5.1c-2.5 0-4.7-1.3-5.1-3.9h1.6c.2 1.4 1.3 2.6 3.5 2.6c2.1 0 3.6-1.1 3.6-3.7v-2.3c-.8 1.7-2.5 2.3-3.9 2.3c-2.8 0-5-1.9-5-5.6c0-3.7 2.3-5.5 5-5.5c1.8 0 3.2.8 3.9 2v-1.8h1.5s.02 10.78 0 10.8zM86.5 49c0-2.8-1.7-4.2-3.6-4.2c-1.9 0-3.7 1.4-3.7 4.2c0 2.8 1.7 4.2 3.7 4.2c1.8 0 3.6-1.2 3.6-4.2zm14-1.7c.03-.05 0 7.7 0 7.7H99v-7.6c0-1.5-.9-2.5-2.5-2.5c-1.9 0-3.6 1.4-3.6 4.2v5.9h-1.5v-16h1.5v6.7c.7-1.3 1.9-2.2 3.9-2.2c2.3 0 3.7 1.3 3.7 3.8zm2.7 1.6v-1.4h6.4v1.4h-6.4zm13.6 6.3c-3.1 0-5.2-2.3-5.2-5.8c0-3.6 2.1-5.9 5.4-5.9c2.5 0 4.5 1.4 4.6 3.9h-1.5c-.1-1.6-1.5-2.5-3.2-2.5c-2.2 0-3.7 1.7-3.7 4.4c0 2.8 1.5 4.5 3.7 4.5c1.7 0 3.1-1 3.2-2.8h1.5c-.1 2.7-2.3 4.2-4.8 4.2zm6.7-5.8c0-3.7 2.2-5.9 5.4-5.9c3.1 0 5.3 2.2 5.3 5.9c0 3.6-2.2 5.8-5.3 5.8c-3.1 0-5.4-2.2-5.4-5.8zm9.1-.1c0-2.8-1.7-4.4-3.8-4.4c-2.2 0-3.7 1.7-3.7 4.5c0 2.8 1.7 4.4 3.8 4.4c2.2 0 3.7-1.7 3.7-4.5zm13.4-2v7.7h-1.5s-.04-7.56 0-7.6c0-1.5-.9-2.5-2.5-2.5c-2 0-3.6 1.4-3.6 4.2c-.03-.04 0 5.9 0 5.9h-1.6V43.7h1.6s-.03 2.1 0 2.1c.6-1.3 1.9-2.3 3.9-2.3c2.2 0 3.7 1.3 3.7 3.8zm7.7 7.7h-1.6l-4.2-11.3h1.6l3.4 9.7l3.4-9.7h1.6L153.7 55zm7.9-16h-1.8v1.9h1.8V39zm-.2 16h-1.5V43.7h1.5V55zm7.9.2c-3.1 0-5.2-2.3-5.2-5.8c0-3.6 2.1-5.9 5.3-5.9c2.5 0 4.5 1.4 4.7 3.9h-1.5c-.2-1.6-1.6-2.5-3.2-2.5c-2.2 0-3.8 1.7-3.8 4.4c0 2.8 1.6 4.5 3.8 4.5c1.7 0 3-1 3.2-2.8h1.5c-.2 2.7-2.3 4.2-4.8 4.2zm12.6-.2s-1.7-.02-1.7 0c-1.5 0-2.8-.5-2.8-3c-.04.02 0-6.9 0-6.9h-2.3v-1.4h2.3v-3.2l1.5-.4v3.6h2.7v1.4h-2.7v6.9c0 1 .3 1.6 1.6 1.6h1.4v1.4zm3.8-16H184v1.9h1.7V39zm-.1 16h-1.5V43.7h1.5V55zm2.6-5.6c0-3.7 2.2-5.9 5.4-5.9c3.1 0 5.3 2.2 5.3 5.9c0 3.6-2.2 5.8-5.3 5.8c-3.1 0-5.4-2.2-5.4-5.8zm9.1-.1c0-2.8-1.7-4.4-3.8-4.4c-2.2 0-3.7 1.7-3.7 4.5c0 2.8 1.7 4.4 3.8 4.4c2.2 0 3.7-1.7 3.7-4.5zm13.4-2v7.7h-1.5s-.04-7.56 0-7.6c0-1.5-.9-2.5-2.5-2.5c-2 0-3.6 1.4-3.6 4.2c-.03-.04 0 5.9 0 5.9h-1.6V43.7h1.6s-.03 2.1 0 2.1c.6-1.3 1.9-2.3 3.9-2.3c2.2 0 3.7 1.3 3.7 3.8zm10.6-8.3h-1.8v1.9h1.8V39zm-.2 16h-1.5V43.7h1.5V55zm12.6-7.7c-.04-.05 0 7.7 0 7.7h-1.6s.03-7.56 0-7.6c0-1.5-.9-2.5-2.4-2.5c-2 0-3.7 1.4-3.7 4.2c.04-.04 0 5.9 0 5.9h-1.5V43.7h1.5s.04 2.1 0 2.1c.7-1.3 2-2.3 3.9-2.3c2.3 0 3.8 1.3 3.8 3.8zm7.7 7.7h-1.7l-4.1-11.3h1.6l3.4 9.7l3.4-9.7h1.6L241.4 55zm6.8-5.3c0 2.8 1.7 4.1 3.7 4.1c1.5 0 3-.7 3.3-2.3h1.5c-.5 2.6-2.7 3.7-4.9 3.7c-2.7 0-5.2-1.8-5.2-5.8c0-4.1 2.6-5.9 5.3-5.9c2.7 0 4.8 1.7 4.8 5.5c.04-.05 0 .7 0 .7c0 0-8.55.01-8.5 0zm0-1.3h7c0-2.3-1.5-3.5-3.4-3.5c-1.7 0-3.4 1.1-3.6 3.5zm19.5 3.4c0 2.3-2 3.4-4.3 3.4c-2.4 0-4.6-1.2-4.9-3.7h1.7c.2 1.7 1.7 2.3 3.2 2.3c1.5 0 2.8-.5 2.8-1.8c0-1.3-1.4-1.6-2.7-1.8c-2.1-.4-4.7-.8-4.7-3.4c0-2.2 1.9-3.3 4.2-3.3c2.4 0 4.3 1.1 4.5 3.4h-1.6c-.1-1.4-1.5-2-2.9-2c-1.6 0-2.6.7-2.6 1.8c0 1.5 1.4 1.7 3.1 2c2 .3 4.2.6 4.2 3.1zm7.7 3.2s-1.65-.02-1.6 0c-1.5 0-2.9-.5-2.9-3c.02.02 0-6.9 0-6.9h-2.2v-1.4h2.2v-3.2l1.6-.4v3.6h2.7v1.4h-2.7s-.05 6.9 0 6.9c0 1 .2 1.6 1.5 1.6h1.4v1.4zm1.5-5.6c0-3.7 2.2-5.9 5.3-5.9c3.1 0 5.4 2.2 5.4 5.9c0 3.6-2.3 5.8-5.4 5.8c-3.1 0-5.3-2.2-5.3-5.8zm9.1-.1c0-2.8-1.7-4.4-3.8-4.4c-2.2 0-3.7 1.7-3.7 4.5c0 2.8 1.7 4.4 3.8 4.4c2.1 0 3.7-1.7 3.7-4.5zm9.8-4.3s-.33.03-.3 0c-2.4 0-3.8 1.4-3.8 4c.03 0 0 6 0 6h-1.5V43.7h1.5v2.1c.5-1.5 1.9-2.2 3.6-2.2c.04-.02.5 0 .5 0v1.4zm10.4 6.8c0 2.3-2.1 3.4-4.4 3.4c-2.4 0-4.6-1.2-4.8-3.7h1.6c.3 1.7 1.7 2.3 3.3 2.3c1.4 0 2.7-.5 2.7-1.8c0-1.3-1.3-1.6-2.6-1.8c-2.2-.4-4.7-.8-4.7-3.4c0-2.2 1.9-3.3 4.2-3.3c2.4 0 4.3 1.1 4.4 3.4h-1.6c-.1-1.4-1.4-2-2.9-2c-1.5 0-2.6.7-2.6 1.8c0 1.5 1.4 1.7 3.1 2c2 .3 4.3.6 4.3 3.1zm3.6 3.1c.01-.04-1 0-1 0v-2.1h2.2s.03 2.12 0 2.1c0 2.5-1.4 3.4-3 3.5l-.2-.9c1.7-.3 2-1.3 2-2.6z" stroke="none" fill="#000"/></g><g id="Polygon12479"><path d="m12.6 19.8H9.7l1.5-6.6H4.7l-1.4 6.6h-3L4 4h2.9l-1.5 6.5h6.4L13.3 4h2.9l-3.6 15.8zm5.9-13.1l.7-3.2h3l-.7 3.2h-3zm-2.9 13.1l2.6-11.6h2.8l-2.6 11.6h-2.8zm15.7-.6c-.9 4-3.4 5.2-5.8 5.2c-2.5 0-4.6-1.3-4.6-4.3h2.6c.1.9.5 1.9 2.1 1.9c1.5 0 2.5-.8 3-3l.4-1.3c-.6 1.2-1.7 1.7-3 1.7c-2.8 0-4.3-2.3-4.3-4.8c0-3.1 2.2-6.6 5.8-6.6c1.9 0 2.9.9 3.2 2l.4-1.8h2.7s-2.51 10.99-2.5 11zm-1.4-6.4c0-1.4-.6-2.4-2.1-2.4c-2.1 0-3.4 2-3.4 3.9c0 1.4.8 2.6 2.2 2.6c2 0 3.3-2.1 3.3-4.1zm15.3-1.4c0 .3-.1.7-.1.9l-1.7 7.5h-2.8s1.67-7.31 1.7-7.3v-.6c0-.9-.6-1.4-1.6-1.4c-1.4 0-2.4 1-2.9 2.9c.04-.04-1.4 6.4-1.4 6.4h-2.8l3.7-16h2.7s-1.3 5.75-1.3 5.8c.6-.8 1.6-1.6 3.1-1.6c2.4 0 3.4 1.7 3.4 3.4zM63.8 14h3c-.5 3.8-3.7 6.2-7.4 6.2c-4.6 0-6.9-3.7-6.9-7.5c0-4.4 3.1-9 8.5-9c3.3 0 6.4 1.8 6.4 5.3v.3h-3c0-1.8-1.4-2.9-3.4-2.9c-3.5 0-5.5 3.2-5.5 6.2c0 2.5 1.2 4.8 4.1 4.8c2 0 3.7-1.2 4.2-3.4zm15.3-.9c0 3.9-2.5 6.9-6.1 6.9c-2.7 0-4.8-1.6-4.8-5.1c0-3.9 2.6-6.9 6.1-6.9c2.7 0 4.8 1.7 4.8 5.1zm-4.9-2.5c-1.8 0-3.2 1.8-3.2 4.2c0 1.9.9 2.7 2.2 2.7c1.8 0 3.2-1.9 3.2-4.2c0-1.9-.9-2.7-2.2-2.7zm17.2.8c0 .3-.1.7-.1.9c-.03.05-1.7 7.5-1.7 7.5h-2.8s1.65-7.31 1.7-7.3v-.6c0-.9-.6-1.4-1.6-1.4c-1.5 0-2.5 1-2.9 2.9c.02-.04-1.5 6.4-1.5 6.4h-2.8l2.7-11.6h2.7s-.41 1.67-.4 1.7C85.2 9 86.2 8 88 8c2.3 0 3.4 1.7 3.4 3.4zm6.5 8.4H95L93.1 8.2h2.7l1.2 8.3l4.6-8.3h3.1l-6.8 11.6zm8.4-13.1l.7-3.2h3l-.7 3.2h-3zm-2.9 13.1l2.7-11.6h2.8l-2.7 11.6h-2.8zm13.3-4.1h2.8c-.6 2.6-2.7 4.3-5.3 4.3c-3.1 0-4.5-2.5-4.5-5.3c0-3.3 2.1-6.7 6-6.7c2.5 0 4.4 1.5 4.4 3.9v.5c0-.03-2.7 0-2.7 0v-.1c0-1.1-.9-1.7-1.9-1.7c-2 0-3.1 2.3-3.1 4.2c0 1.4.6 2.7 2 2.7c1.2 0 1.9-.8 2.3-1.8zm7.6.8c0 .4.2.8.9.8c.02-.02 1.5 0 1.5 0l-.6 2.5s-1.99-.02-2 0c-1.8 0-2.6-1.3-2.6-2.8c0-.4 0-.7.1-1.1l1.2-5.2h-2l.6-2.5h2l.6-2.8l2.9-.7l-.8 3.5h2.5l-.6 2.5h-2.4l-1.2 5c-.1.3-.1.5-.1.8zm6.6-9.8l.7-3.2h3l-.7 3.2h-3zm-3 13.1l2.7-11.6h2.8l-2.7 11.6h-2.8zm17.2-6.7c0 3.9-2.6 6.9-6.2 6.9c-2.6 0-4.8-1.6-4.8-5.1c0-3.9 2.6-6.9 6.2-6.9c2.6 0 4.8 1.7 4.8 5.1zm-4.9-2.5c-1.9 0-3.3 1.8-3.3 4.2c0 1.9.9 2.7 2.2 2.7c1.8 0 3.2-1.9 3.2-4.2c0-1.9-.9-2.7-2.1-2.7zm17.1.8c0 .3-.1.7-.1.9l-1.7 7.5h-2.8s1.67-7.31 1.7-7.3v-.6c0-.9-.6-1.4-1.6-1.4c-1.4 0-2.4 1-2.9 2.9c.04-.04-1.5 6.4-1.5 6.4h-2.7l2.6-11.6h2.7l-.4 1.7c.5-.9 1.6-1.9 3.3-1.9c2.4 0 3.4 1.7 3.4 3.4zm9.8 5.1c0 .4.2.8.9.8c.02-.02 1.5 0 1.5 0l-.6 2.5s-1.99-.02-2 0c-1.8 0-2.6-1.3-2.6-2.8c0-.4 0-.7.1-1.1l1.2-5.2h-2l.6-2.5h2l.6-2.8l2.9-.7l-.8 3.5h2.5l-.6 2.5h-2.4l-1.2 5c-.1.3-.1.5-.1.8zm14.8-3.4c0 3.9-2.5 6.9-6.1 6.9c-2.7 0-4.8-1.6-4.8-5.1c0-3.9 2.6-6.9 6.1-6.9c2.7 0 4.8 1.7 4.8 5.1zm-4.9-2.5c-1.9 0-3.3 1.8-3.3 4.2c0 1.9 1 2.7 2.2 2.7c1.9 0 3.2-1.9 3.2-4.2c0-1.9-.9-2.7-2.1-2.7zm24.4-2.2h-3c0-1.6-1.4-2.2-2.7-2.2c-1.5 0-2.7.7-2.7 2.1c0 1.2.8 1.7 2.7 2.4c2 .7 4.4 1.5 4.4 4.5c0 3.3-2.8 5-5.9 5c-3.1 0-6-1.8-6-5.4c0-.1 0-.2.1-.4h2.9c0 .2-.1.4-.1.5c0 1.9 1.7 2.8 3.3 2.8c1.5 0 2.7-.7 2.7-2.1c0-1.3-1-1.8-2.6-2.4c-2.1-.9-4.4-1.8-4.4-4.7c0-2.9 2.1-4.8 5.6-4.8c3.6 0 5.6 2 5.7 4.7zm2.8 6.8c0 1.1.5 2.4 2.2 2.4c1 0 1.9-.4 2.3-1.5h2.7c-.9 2.6-2.9 3.9-5.2 3.9c-2.9 0-4.6-2.1-4.6-5.2c0-3.7 2.4-6.8 6.1-6.8c3.1 0 4.3 2.2 4.3 4.8c0 .6 0 1.4-.2 2h-7.6v.4zm.3-2.4h4.9c.1-.2.1-.3.1-.4c0-1.2-.8-2-2.1-2c-1.3 0-2.4.7-2.9 2.4zm11.2 2.4c0 1.1.6 2.4 2.3 2.4c1 0 1.8-.4 2.2-1.5h2.8c-.9 2.6-3 3.9-5.3 3.9c-2.8 0-4.5-2.1-4.5-5.2c0-3.7 2.4-6.8 6-6.8c3.1 0 4.4 2.2 4.4 4.8c0 .6-.1 1.4-.2 2h-7.6c-.1.2-.1.3-.1.4zm.4-2.4h4.9v-.4c0-1.2-.7-2-2.1-2c-1.2 0-2.3.7-2.8 2.4zm15.3.5l3.1 6.5h-3l-2.2-4.7l-1.6 1.4l-.8 3.3h-2.8l3.7-16h2.8l-2 8.6l4.9-4.2h3.8l-5.9 5.1zm10.7-.4c0-5 3.5-9.2 8.4-9.2c4.2 0 6.8 3.1 6.8 7.3c0 4.9-3.6 9.2-8.4 9.2c-4.1 0-6.8-3.1-6.8-7.3zm2.9-.2c0 2.9 1.5 4.7 4 4.7c3.1 0 5.4-2.8 5.4-6.3c0-2.8-1.4-4.6-4-4.6c-3.1 0-5.4 2.7-5.4 6.2zm22 7.1h-2.6s.39-1.85.4-1.8c-.6 1-1.5 1.9-3.2 1.9c-2.5 0-3.7-1.9-3.2-4.3l1.7-7.4h2.8s-1.68 7.32-1.7 7.3c-.2.9.1 1.9 1.4 1.9c1.5 0 2.4-1.2 3-3.5c-.04.02 1.3-5.7 1.3-5.7h2.8L267 19.8zm6.6-3.3c0 .4.2.8.9.8c.01-.02 1.5 0 1.5 0l-.6 2.5s-2-.02-2 0c-1.8 0-2.6-1.3-2.6-2.8c0-.4 0-.7.1-1.1c-.02.04 1.2-5.2 1.2-5.2h-2l.5-2.5h2.1l.6-2.8l2.9-.7l-.8 3.5h2.4l-.5 2.5h-2.5l-1.1 5c-.1.3-.1.5-.1.8zm21.8 3.3h-3.2l-2.6-6.3h-2.2l-1.5 6.3H283L286.6 4s5.3.03 5.3 0c3.1 0 4.6 2.1 4.6 4.3c0 2-1.4 4.2-4 4.8c.03 0 2.9 6.7 2.9 6.7zm-1.9-11.3c0-1-.7-1.7-2-1.7c-.02-.04-2.6 0-2.6 0l-.9 4h2.8c1.8 0 2.7-1.2 2.7-2.3zm5.8 6.7c0 1.1.6 2.4 2.3 2.4c1 0 1.8-.4 2.2-1.5h2.8c-.9 2.6-3 3.9-5.3 3.9c-2.8 0-4.5-2.1-4.5-5.2c0-3.7 2.4-6.8 6-6.8c3.1 0 4.4 2.2 4.4 4.8c0 .6-.1 1.4-.2 2h-7.7v.4zm.4-2.4h4.9v-.4c0-1.2-.7-2-2.1-2c-1.2 0-2.3.7-2.8 2.4zm11.8 3.7c0 .4.2.8 1 .8c-.04-.02 1.4 0 1.4 0l-.5 2.5s-2.06-.02-2.1 0c-1.7 0-2.6-1.3-2.6-2.8c0-.4 0-.7.1-1.1c.02.04 1.2-5.2 1.2-5.2h-2l.6-2.5h2l.7-2.8l2.9-.7l-.8 3.5h2.4l-.6 2.5h-2.4s-1.16 5.03-1.2 5c0 .3-.1.5-.1.8zm13 3.3h-2.6s.38-1.85.4-1.8c-.6 1-1.5 1.9-3.2 1.9c-2.5 0-3.7-1.9-3.2-4.3l1.7-7.4h2.8s-1.69 7.32-1.7 7.3c-.2.9.1 1.9 1.4 1.9c1.5 0 2.4-1.2 3-3.5c-.04.02 1.3-5.7 1.3-5.7h2.8l-2.7 11.6zm11.1-9s-.84-.03-.8 0c-1.9 0-3.1 1-3.6 3.1c-.01-.02-1.4 5.9-1.4 5.9h-2.7l2.6-11.6h2.8s-.47 2.01-.5 2c.6-1.3 1.6-2.1 3-2.1c.03-.04 1.3 0 1.3 0l-.7 2.7zm11 .6c0 .3-.1.7-.1.9l-1.7 7.5H342s1.66-7.31 1.7-7.3v-.6c0-.9-.6-1.4-1.6-1.4c-1.4 0-2.4 1-2.9 2.9c.03-.04-1.5 6.4-1.5 6.4h-2.8l2.7-11.6h2.7l-.4 1.7c.5-.9 1.6-1.9 3.3-1.9c2.4 0 3.4 1.7 3.4 3.4zm10.8.5h-2.7c0-1-.7-1.6-1.8-1.6c-1 0-1.7.5-1.7 1.2c0 .7.8 1 2.1 1.4c1.7.6 3.3 1.3 3.3 3.3c0 2.5-2.4 3.8-4.7 3.8c-2.3 0-4.6-1.3-4.7-3.9h2.8c.2 1.2.9 1.6 2.1 1.6c.8 0 1.7-.2 1.7-1.2c0-.6-.5-.9-1.4-1.2c-1.5-.5-4-1.1-4-3.7c0-2.4 2.1-3.6 4.5-3.6c2.5 0 4.5 1.4 4.5 3.9z" stroke="none" fill="#000"/></g></svg>