<?xml version="1.0" standalone="no"?><!DOCTYPE svg PUBLIC "-//W3C//DTD SVG 1.1//EN" "http://www.w3.org/Graphics/SVG/1.1/DTD/svg11.dtd"><svg xmlns="http://www.w3.org/2000/svg" version="1.1" width="286.3px" height="102.2px" viewBox="0 -4 286.3 102.2" style="top:-4px"><desc>Samantha Dovey Investment Management, Ravenscroft</desc><defs/><g id="Polygon10938"><path d="m13.3 80.2l-5.1-7.8H4v7.8H2.2v-18h6.4c3.7 0 5.5 2.3 5.5 4.9c0 2.2-1.3 4.3-3.9 5c-.02.02 5.3 8.1 5.3 8.1h-2.2zm-4.9-9.4c2.6 0 3.9-1.8 3.9-3.6c0-1.8-1.2-3.4-3.6-3.4c-.04.02-4.7 0-4.7 0v7h4.4zm17.3 7.1c-1 1.9-2.9 2.6-4.6 2.6c-2.2 0-4.2-1.3-4.2-3.9c0-2.3 1.7-3.4 4-3.7l3-.4c1-.2 1.8-.5 1.8-1.6c0-1.5-1.3-2.4-3.1-2.4c-2 0-3.1 1-3.4 2.4h-1.8c.4-2.5 2.5-3.8 5.3-3.8c2.9 0 4.7 1.3 4.7 4.2v8.9h-1.7v-2.3zm-2.1-4l-2 .3c-1.6.2-2.9.8-2.9 2.4c0 1.6 1.3 2.3 2.7 2.3c2 0 4.3-1.5 4.3-4.3v-1.2c-.5.3-1.3.4-2.1.5zm12.5 6.3h-1.9l-4.8-12.9h1.9l3.9 11.1l3.9-11.1h1.8l-4.8 12.9zm7.7-6c.1 3.2 2.1 4.7 4.3 4.7c1.7 0 3.4-.9 3.8-2.7h1.7c-.6 3-3.1 4.3-5.6 4.3c-3 0-5.9-2.1-5.9-6.7c0-4.6 2.9-6.7 6-6.7c3.1 0 5.6 1.9 5.6 6.2c-.04.02 0 .9 0 .9c0 0-9.85-.02-9.9 0zm.1-1.5h8c0-2.6-1.7-4.1-3.9-4.1c-2 0-3.9 1.3-4.1 4.1zm23.2-1.3c.03-.02 0 8.8 0 8.8h-1.7s-.02-8.61 0-8.6c0-1.8-1-2.9-2.9-2.9c-2.2 0-4.1 1.6-4.1 4.7c.02.04 0 6.8 0 6.8h-1.7V67.3h1.7s.02 2.42 0 2.4c.8-1.5 2.2-2.6 4.5-2.6c2.5 0 4.2 1.4 4.2 4.3zm13.3 5.2c0 2.6-2.4 3.9-4.9 3.9c-2.8 0-5.3-1.4-5.6-4.3h1.9c.2 1.9 1.9 2.7 3.7 2.7c1.6 0 3.1-.7 3.1-2.1c0-1.5-1.5-1.8-3-2.1c-2.5-.4-5.4-.8-5.4-3.8c0-2.6 2.2-3.8 4.8-3.8c2.8 0 4.9 1.3 5.1 3.8h-1.8c-.2-1.5-1.6-2.3-3.3-2.3c-1.8 0-3 .8-3 2.2c0 1.6 1.6 1.9 3.5 2.2c2.4.4 4.9.8 4.9 3.6zm8 3.9c-3.5 0-5.9-2.7-5.9-6.7c0-4 2.4-6.7 6.1-6.7c2.8 0 5.1 1.5 5.3 4.5h-1.7c-.2-1.9-1.8-3-3.6-3c-2.6 0-4.4 2-4.4 5.2c0 3.1 1.8 5.1 4.3 5.1c2 0 3.5-1.2 3.7-3.2h1.7c-.2 3.1-2.6 4.8-5.5 4.8zm14.9-11.7s-.36.03-.4 0c-2.7 0-4.2 1.6-4.2 4.6c-.04-.03 0 6.8 0 6.8h-1.8V67.3h1.7s.04 2.4 0 2.4c.6-1.7 2.2-2.5 4.2-2.5c-.01-.02.5 0 .5 0v1.6zm1.2 5c0-4.2 2.6-6.7 6.1-6.7c3.6 0 6.2 2.5 6.2 6.7c0 4.2-2.6 6.7-6.1 6.7c-3.6 0-6.2-2.5-6.2-6.7zm10.5-.1c0-3.2-2-5-4.4-5c-2.5 0-4.3 2-4.3 5.1c0 3.2 2 5 4.4 5c2.5 0 4.3-1.9 4.3-5.1zm17 6.5c-1.7 0-3.3-.5-3.3-3.4v-7.9h-6.6v11.3h-1.8V68.9h-2.1v-1.6h2.1s.03-2.02 0-2c0-2.9 1.6-3.4 3.3-3.4c-.03.02 1.7 0 1.7 0v1.6s-1.44-.02-1.4 0c-1.5 0-1.8.6-1.8 1.8v2h6.6v-3.6l1.8-.5v4.1h3.1v1.6h-3.1s-.04 7.9 0 7.9c0 1.2.3 1.8 1.7 1.8c.04.02 1.7 0 1.7 0v1.6H132z" stroke="none" fill="#000"/></g><g id="Polygon10937"><path d="m4.1 51.4H2.3v-18h1.8v18zm14.7-8.8c-.03-.02 0 8.8 0 8.8H17s.02-8.61 0-8.6c0-1.8-1-2.9-2.8-2.9c-2.2 0-4.1 1.6-4.1 4.7c-.04.04 0 6.8 0 6.8H8.3V38.5h1.8s-.04 2.42 0 2.4c.7-1.5 2.2-2.6 4.4-2.6c2.6 0 4.3 1.4 4.3 4.3zm8.8 8.8h-1.9l-4.8-12.9h1.9l3.9 11.1l3.9-11.1h1.8l-4.8 12.9zm7.7-6c.1 3.2 2 4.7 4.3 4.7c1.7 0 3.4-.9 3.8-2.7h1.6c-.5 3-3 4.3-5.5 4.3c-3 0-5.9-2.1-5.9-6.7c0-4.6 2.9-6.7 6-6.7c3 0 5.5 1.9 5.5 6.2c.04.02 0 .9 0 .9c0 0-9.77-.02-9.8 0zm.1-1.5h8c0-2.6-1.7-4.1-3.9-4.1c-2 0-3.9 1.3-4.1 4.1zm22.3 3.9c0 2.6-2.4 3.9-4.9 3.9c-2.8 0-5.4-1.4-5.6-4.3h1.9c.2 1.9 1.9 2.7 3.7 2.7c1.6 0 3.1-.7 3.1-2.1c0-1.5-1.5-1.8-3-2.1c-2.5-.4-5.4-.8-5.4-3.8c0-2.6 2.2-3.8 4.8-3.8c2.8 0 4.9 1.3 5.1 3.8h-1.8c-.2-1.5-1.6-2.3-3.3-2.3c-1.8 0-3 .8-3 2.2c0 1.6 1.6 1.9 3.5 2.2c2.4.4 4.9.8 4.9 3.6zm8.8 3.6h-1.9c-1.7 0-3.3-.5-3.3-3.4c.04.02 0-7.9 0-7.9h-2.5v-1.6h2.5v-3.6l1.8-.5v4.1h3.1v1.6h-3.1v7.9c0 1.2.3 1.8 1.8 1.8c-.03.02 1.6 0 1.6 0v1.6zM69 38.5h1.7s.03 2.16 0 2.2c.7-1.7 2.1-2.4 3.8-2.4c1.9 0 3.4 1 3.8 2.7c.6-1.5 2-2.7 4.2-2.7c2.3 0 4.2 1.3 4.2 3.9v9.2h-1.8s.04-8.61 0-8.6c0-2-1.2-3-2.7-3c-1.9 0-3.5 1.5-3.5 4.2v7.4H77s-.03-8.61 0-8.6c0-2-1.2-3-2.7-3c-1.9 0-3.5 1.5-3.5 4.2c-.05.04 0 7.4 0 7.4H69V38.5zm22.3 6.9c0 3.2 2 4.7 4.3 4.7c1.7 0 3.4-.9 3.8-2.7h1.6c-.6 3-3.1 4.3-5.5 4.3c-3.1 0-5.9-2.1-5.9-6.7c0-4.6 2.9-6.7 6-6.7c3 0 5.5 1.9 5.5 6.2c.01.02 0 .9 0 .9c0 0-9.8-.02-9.8 0zm0-1.5h8c0-2.6-1.6-4.1-3.8-4.1c-2 0-3.9 1.3-4.2 4.1zm23.3-1.3c-.02-.02 0 8.8 0 8.8h-1.8s.02-8.61 0-8.6c0-1.8-1-2.9-2.8-2.9c-2.2 0-4.1 1.6-4.1 4.7c-.04.04 0 6.8 0 6.8h-1.8V38.5h1.8s-.04 2.42 0 2.4c.7-1.5 2.2-2.6 4.4-2.6c2.6 0 4.3 1.4 4.3 4.3zm9.6 8.8h-1.9c-1.7 0-3.3-.5-3.3-3.4c.04.02 0-7.9 0-7.9h-2.5v-1.6h2.5v-3.6l1.8-.5v4.1h3.1v1.6h-3.1v7.9c0 1.2.3 1.8 1.8 1.8c-.03.02 1.6 0 1.6 0v1.6zm26 0h-1.8V35.8l-6 15.6h-1.5l-6-15.6v15.6h-1.7v-18h2.7l5.8 15.2l5.8-15.2h2.7v18zm12-2.3c-1 1.9-2.9 2.6-4.6 2.6c-2.2 0-4.1-1.3-4.1-3.9c0-2.3 1.7-3.4 3.9-3.7l3-.4c1-.2 1.8-.5 1.8-1.6c0-1.5-1.3-2.4-3.1-2.4c-1.9 0-3.1 1-3.4 2.4H154c.3-2.5 2.4-3.8 5.2-3.8c2.9 0 4.7 1.3 4.7 4.2c.02 0 0 8.9 0 8.9h-1.7v-2.3zm-2.1-4l-2 .3c-1.6.2-2.8.8-2.8 2.4c0 1.6 1.2 2.3 2.6 2.3c2 0 4.3-1.5 4.3-4.3v-1.2c-.5.3-1.3.4-2.1.5zm17.9-2.5c-.02-.02 0 8.8 0 8.8h-1.8s.03-8.61 0-8.6c0-1.8-1-2.9-2.8-2.9c-2.2 0-4.1 1.6-4.1 4.7c-.03.04 0 6.8 0 6.8h-1.8V38.5h1.8s-.03 2.42 0 2.4c.7-1.5 2.2-2.6 4.4-2.6c2.6 0 4.3 1.4 4.3 4.3zm11.6 6.5c-1 1.9-2.9 2.6-4.6 2.6c-2.2 0-4.1-1.3-4.1-3.9c0-2.3 1.7-3.4 3.9-3.7l3-.4c1-.2 1.8-.5 1.8-1.6c0-1.5-1.3-2.4-3.1-2.4c-1.9 0-3.1 1-3.4 2.4h-1.7c.3-2.5 2.4-3.8 5.2-3.8c3 0 4.7 1.3 4.7 4.2c.03 0 0 8.9 0 8.9h-1.7s.02-2.34 0-2.3zm-2.1-4l-2 .3c-1.6.2-2.8.8-2.8 2.4c0 1.6 1.2 2.3 2.6 2.3c2 0 4.3-1.5 4.3-4.3v-1.2c-.5.3-1.2.4-2.1.5zm18.5 5.7c0 3.9-2.5 5.8-5.8 5.8c-2.9 0-5.4-1.4-5.8-4.4h1.7c.3 1.6 1.5 3 4.1 3c2.4 0 4.1-1.2 4.1-4.3v-2.5c-.9 1.9-2.8 2.5-4.5 2.5c-3.2 0-5.7-2.1-5.7-6.3c0-4.2 2.7-6.3 5.7-6.3c2.1 0 3.7.9 4.5 2.3v-2.1h1.7s.01 12.33 0 12.3zm-1.8-6.2c0-3.3-1.9-4.8-4.1-4.8c-2.2 0-4.3 1.6-4.3 4.8c0 3.2 2 4.7 4.3 4.7c2 0 4.1-1.3 4.1-4.7zm6.4.8c.1 3.2 2 4.7 4.3 4.7c1.7 0 3.4-.9 3.8-2.7h1.6c-.5 3-3 4.3-5.5 4.3c-3.1 0-5.9-2.1-5.9-6.7c0-4.6 2.9-6.7 6-6.7c3 0 5.5 1.9 5.5 6.2c.04.02 0 .9 0 .9c0 0-9.78-.02-9.8 0zm.1-1.5h8c0-2.6-1.7-4.1-3.9-4.1c-2 0-3.9 1.3-4.1 4.1zm12.7-5.4h1.8s-.03 2.16 0 2.2c.7-1.7 2.1-2.4 3.7-2.4c1.9 0 3.4 1 3.8 2.7c.6-1.5 2-2.7 4.2-2.7c2.4 0 4.2 1.3 4.2 3.9c.03-.03 0 9.2 0 9.2h-1.7s-.03-8.61 0-8.6c0-2-1.3-3-2.8-3c-1.9 0-3.5 1.5-3.5 4.2c.03.04 0 7.4 0 7.4h-1.7v-8.6c0-2-1.2-3-2.7-3c-1.9 0-3.5 1.5-3.5 4.2c-.01.04 0 7.4 0 7.4h-1.8V38.5zm22.3 6.9c.1 3.2 2 4.7 4.3 4.7c1.7 0 3.4-.9 3.8-2.7h1.7c-.6 3-3.1 4.3-5.6 4.3c-3 0-5.9-2.1-5.9-6.7c0-4.6 2.9-6.7 6-6.7c3.1 0 5.5 1.9 5.5 6.2c.05.02 0 .9 0 .9c0 0-9.77-.02-9.8 0zm.1-1.5h8c0-2.6-1.7-4.1-3.9-4.1c-2 0-3.9 1.3-4.1 4.1zm23.2-1.3c.01-.02 0 8.8 0 8.8h-1.7s-.04-8.61 0-8.6c0-1.8-1-2.9-2.9-2.9c-2.2 0-4.1 1.6-4.1 4.7v6.8h-1.8V38.5h1.8v2.4c.8-1.5 2.2-2.6 4.5-2.6c2.5 0 4.2 1.4 4.2 4.3zm9.6 8.8h-1.9c-1.7 0-3.2-.5-3.2-3.4c-.02.02 0-7.9 0-7.9h-2.6v-1.6h2.6v-3.6l1.7-.5v4.1h3.1v1.6h-3.1s.03 7.9 0 7.9c0 1.2.4 1.8 1.8 1.8c.01.02 1.6 0 1.6 0v1.6zm3.8-.1c-.02-.04-1.2 0-1.2 0v-2.4h2.6s-.03 2.44 0 2.4c0 2.9-1.7 3.9-3.5 4.1l-.2-1.1c1.9-.4 2.3-1.5 2.3-3z" stroke="none" fill="#000"/></g><g id="Polygon10936"><path d="m8.3 23.1C4.6 23.1.8 21 .8 16.5h3.4c.1 2.7 2.1 3.7 4 3.7c1.8 0 3.3-.9 3.3-2.4c0-1.8-2-2.2-4.1-2.7c-2.6-.6-6-1.5-6-5.4c0-3.7 3.1-5.5 6.5-5.5c3.5 0 6.7 1.8 6.7 5.4h-3.4c-.1-1.8-1.7-2.5-3.4-2.5c-1.7 0-3.1.7-3.1 2.3c0 1.8 1.7 2.3 3.7 2.7c2.3.5 6.5 1.2 6.5 5.5c0 3.6-3.1 5.5-6.6 5.5zm19.5-9.4c.04 0 0 8.9 0 8.9h-3.1s.02-1.91 0-1.9c-1 1.7-2.6 2.2-4 2.2c-2.1 0-4.3-1.3-4.3-4.1c0-2.1 1.2-3.5 4.2-4l2.9-.4c.8-.1 1.3-.4 1.3-1.2c0-1.1-.9-1.6-2.2-1.6c-1.7 0-2.5.9-2.6 2h-3.1c.4-3.1 2.9-4.5 5.9-4.5c3.1 0 5 1.5 5 4.6zM24.7 17v-.7c-.3.2-.9.3-1.5.4l-1.5.2c-1.6.2-2.1.9-2.1 1.7c0 1.1.8 1.6 1.9 1.6c1.6 0 3.2-1.2 3.2-3.2zm24.7-3.3c.02-.02 0 8.9 0 8.9h-3.2s.02-8.3 0-8.3c0-1.6-.7-2.3-2-2.3c-1.6 0-2.5.9-2.5 3.2c-.04-.03 0 7.4 0 7.4h-3.2s-.03-8.3 0-8.3c0-1.6-.8-2.3-2.1-2.3c-1.5 0-2.5 1-2.5 3.1v7.5h-3.2V9.4h3.2s-.04 1.9 0 1.9c.4-1.1 1.4-2.2 3.4-2.2c1.7 0 3 .8 3.6 2.2c.5-.9 1.5-2.2 3.9-2.2c2.8 0 4.6 1.7 4.6 4.6zm13.6 0v8.9h-3.1s-.02-1.91 0-1.9c-1.1 1.7-2.6 2.2-4 2.2c-2.1 0-4.3-1.3-4.3-4.1c0-2.1 1.2-3.5 4.2-4l2.9-.4c.7-.1 1.3-.4 1.3-1.2c0-1.1-1-1.6-2.2-1.6c-1.7 0-2.5.9-2.6 2h-3.1c.3-3.1 2.8-4.5 5.8-4.5c3.1 0 5.1 1.5 5.1 4.6zM59.9 17v-.7c-.3.2-.9.3-1.6.4l-1.4.2c-1.6.2-2.1.9-2.1 1.7c0 1.1.7 1.6 1.8 1.6c1.7 0 3.3-1.2 3.3-3.2zm17.6-2.9c.02-.04 0 8.5 0 8.5h-3.2s.03-8.25 0-8.2c0-1.5-.8-2.4-2.3-2.4c-1.8 0-2.9 1.3-2.9 3.5c-.03-.04 0 7.1 0 7.1h-3.2V9.4h3.1s.05 1.88 0 1.9c.8-1.2 1.9-2.2 4.1-2.2c3 0 4.4 1.8 4.4 5zm9.8 8.5h-2.1c-2.5 0-4.1-.8-4.1-4.3c.04-.01 0-6.1 0-6.1h-2.4V9.4h2.4v-3l3.2-.9v3.9h2.7v2.8h-2.7s.03 6.23 0 6.2c0 .8.3 1.4 1.4 1.4c-.02-.02 1.6 0 1.6 0v2.8zm13.4-8.5c.03-.04 0 8.5 0 8.5h-3.2s.03-8.25 0-8.2c0-1.5-.8-2.4-2.3-2.4c-1.8 0-2.9 1.3-2.9 3.5c-.02-.04 0 7.1 0 7.1h-3.2V4.3h3.2s-.02 6.93 0 6.9c.7-1.2 1.9-2.1 4-2.1c3 0 4.4 1.8 4.4 5zm13.6-.4v8.9h-3.1v-1.9c-1 1.7-2.6 2.2-4 2.2c-2.1 0-4.3-1.3-4.3-4.1c0-2.1 1.2-3.5 4.2-4l2.9-.4c.8-.1 1.3-.4 1.3-1.2c0-1.1-.9-1.6-2.2-1.6c-1.7 0-2.5.9-2.6 2h-3.1c.4-3.1 2.8-4.5 5.8-4.5c3.1 0 5.1 1.5 5.1 4.6zm-3.1 3.3v-.7c-.3.2-.9.3-1.5.4l-1.5.2c-1.6.2-2.1.9-2.1 1.7c0 1.1.7 1.6 1.8 1.6c1.7 0 3.3-1.2 3.3-3.2zm27.4-3.8c0 4.6-3.2 9.4-9.6 9.4h-5.6v-18h6c6.1 0 9.2 4.2 9.2 8.6zm-3.4 0c0-2.8-1.8-5.5-5.7-5.5c0 .03-2.7 0-2.7 0v11.8s2.2-.04 2.2 0c4.2 0 6.2-3.2 6.2-6.3zm18 2.8c0 4.3-2.8 6.9-6.5 6.9c-3.7 0-6.5-2.6-6.5-6.9c0-4.3 2.8-6.9 6.5-6.9c3.7 0 6.5 2.6 6.5 6.9zm-9.7 0c0 2.7 1.5 3.9 3.2 3.9c1.9 0 3.2-1.4 3.2-3.9c0-2.7-1.5-3.9-3.2-3.9c-1.9 0-3.2 1.4-3.2 3.9zm18.4 6.6h-3.4l-4.9-13.2h3.4l3.3 9.4l3.2-9.4h3.3l-4.9 13.2zm8.5-5.7c.1 2.2 1.6 3.2 3.4 3.2c1.3 0 2.5-.5 2.9-1.7h2.9c-.6 2.9-3.2 4.5-5.9 4.5c-3.2 0-6.4-2.2-6.4-6.9c0-4.5 3-6.9 6.4-6.9c3.2 0 5.9 2.2 5.9 6.5c.04.05 0 1.3 0 1.3c0 0-9.18.04-9.2 0zm.1-2.3h6c0-1.7-1.2-2.7-2.8-2.7c-1.5 0-2.9.8-3.2 2.7zm22.8-5.2l-5.8 15.2c-.6 1.6-1.9 2.2-3.7 2.2c-.03.03-2 0-2 0V24h1.4c1.1 0 1.6-.4 1.9-1.3l.2-.6l-4.9-12.7h3.3l3.2 8.7l3.1-8.7h3.3z" stroke="none" fill="#000"/></g></svg>