<?xml version="1.0" standalone="no"?><!DOCTYPE svg PUBLIC "-//W3C//DTD SVG 1.1//EN" "http://www.w3.org/Graphics/SVG/1.1/DTD/svg11.dtd"><svg xmlns="http://www.w3.org/2000/svg" version="1.1" width="1008px" height="584px" viewBox="0 -17 1008 584" style="top:-17px">  <desc>Unfix Your Thinking</desc>  <defs/>  <g id="Polygon13101">    <path d="M 23.3 408.6 L 34.7 404.2 L 34.7 328.5 L 23.1 328.5 L 6.8 348.3 L 1.2 348.3 L 2.7 321.4 L 88.4 321.4 L 89.9 348.3 L 84.3 348.3 L 68.1 328.5 L 56.4 328.5 L 56.4 406 L 67.8 408.1 L 67.8 414.4 L 23.3 414.4 L 23.3 408.6 Z M 93 408.6 L 102.5 405 L 102.5 334.4 L 93.2 330.1 L 93.2 326 L 121.1 319.9 L 121.1 360.6 C 121.1 360.6 133.05 349.68 133.1 349.7 C 135.5 348.9 138.3 348.4 141.1 348.4 C 151 348.4 161.2 354.4 161.2 370.3 C 161.2 370.26 161.2 406.5 161.2 406.5 L 170.7 408.1 L 170.7 414.4 L 134.7 414.4 L 134.7 408 L 142.6 405 C 142.6 405 142.6 374.48 142.6 374.5 C 142.6 366 138.8 362.5 133.9 362.5 C 129.8 362.5 125.1 364.9 121.1 369 C 121.15 369.02 121.1 406.5 121.1 406.5 L 129.1 407.8 L 129.1 414.4 L 93 414.4 L 93 408.6 Z M 181 328.2 C 181 320.9 186.1 316.1 193.4 316.1 C 200.8 316.1 205.8 320.9 205.8 328.2 C 205.8 335.5 200.8 340.4 193.4 340.4 C 186.1 340.4 181 335.5 181 328.2 Z M 175.7 408.6 L 185.3 405 L 185.3 362.9 L 176 358.6 L 176 354.5 L 203.9 348.4 L 203.9 406.5 L 213.4 408.1 L 213.4 414.4 L 175.7 414.4 L 175.7 408.6 Z M 218.4 408.6 L 227.9 405 L 227.9 362.5 L 218.6 358.1 L 218.6 354 L 244.3 348.4 L 244.3 362.6 C 244.3 362.6 258.41 349.68 258.4 349.7 C 260.9 348.9 263.6 348.4 266.5 348.4 C 276.4 348.4 286.6 354.4 286.6 370.3 C 286.56 370.26 286.6 406.5 286.6 406.5 L 296.1 408.1 L 296.1 414.4 L 260 414.4 L 260 408 L 268 405 C 268 405 267.96 374.48 268 374.5 C 268 366 264.1 362.5 259.3 362.5 C 255.2 362.5 250.5 364.9 246.5 369 C 246.51 369.02 246.5 406.5 246.5 406.5 L 254.4 407.8 L 254.4 414.4 L 218.4 414.4 L 218.4 408.6 Z M 299.2 408.6 L 308.8 405 L 308.8 334.4 L 299.5 330.1 L 299.5 326 L 327.4 319.9 L 327.4 406.5 L 336.9 408.1 L 336.9 414.4 L 299.2 414.4 L 299.2 408.6 Z M 352.3 414.4 L 327.5 380.8 L 351.8 358 L 341.1 355.5 L 341.1 349.7 L 373 349.7 L 373 356.3 L 363.6 357.9 L 346.2 374.4 L 373 408.6 L 373 414.4 L 352.3 414.4 Z M 382.7 328.2 C 382.7 320.9 387.7 316.1 395.1 316.1 C 402.4 316.1 407.5 320.9 407.5 328.2 C 407.5 335.5 402.4 340.4 395.1 340.4 C 387.7 340.4 382.7 335.5 382.7 328.2 Z M 377.3 408.6 L 386.9 405 L 386.9 362.9 L 377.6 358.6 L 377.6 354.5 L 405.5 348.4 L 405.5 406.5 L 415 408.1 L 415 414.4 L 377.3 414.4 L 377.3 408.6 Z M 420 408.6 L 429.5 405 L 429.5 362.5 L 420.2 358.1 L 420.2 354 L 445.9 348.4 L 445.9 362.6 C 445.9 362.6 460.03 349.68 460 349.7 C 462.5 348.9 465.2 348.4 468.1 348.4 C 478 348.4 488.2 354.4 488.2 370.3 C 488.18 370.26 488.2 406.5 488.2 406.5 L 497.7 408.1 L 497.7 414.4 L 461.6 414.4 L 461.6 408 L 469.6 405 C 469.6 405 469.58 374.48 469.6 374.5 C 469.6 366 465.7 362.5 460.9 362.5 C 456.8 362.5 452.1 364.9 448.1 369 C 448.13 369.02 448.1 406.5 448.1 406.5 L 456.1 407.8 L 456.1 414.4 L 420 414.4 L 420 408.6 Z M 556.9 358.2 C 561 362.9 563.2 368.8 563.2 374 C 563.2 387 549.6 395.1 535.1 395.1 C 530.8 395.1 526.7 394.3 523.1 393.2 C 520.2 394.3 518.8 396.7 518.8 399.2 C 518.8 402.3 521.2 405.2 525.6 405.2 C 525.6 405.2 552.5 405.2 552.5 405.2 C 565.6 405.2 572.4 413.3 572.4 422.7 C 572.4 439 552.3 446.4 532.7 446.4 C 514 446.4 502.1 439.6 502.1 431 C 502.1 429.5 502.4 428 503.1 426.6 C 503.1 426.6 517.4 417.6 517.4 417.6 C 509.6 415.4 505.9 409.6 505.9 403.9 C 505.9 398 510 392.2 518.1 390.7 C 511.4 386.8 506.9 380.3 506.9 371.8 C 506.9 358.2 517.9 348.4 533.6 348.4 C 537 348.4 540.1 348.9 543 349.7 C 542.99 349.68 572.4 349.7 572.4 349.7 L 572.4 359.4 C 572.4 359.4 556.88 358.23 556.9 358.2 Z M 545 372.7 C 545 363.8 542.1 355.1 534.6 355.1 C 527.2 355.1 525.1 363.2 525.1 370.5 C 525.1 379.4 528.2 387.9 535.8 387.9 C 543.1 387.9 545 380.1 545 372.7 Z M 518.4 428.7 C 518.4 433.6 522.7 438.7 534.9 438.7 C 546.1 438.7 555.6 434.5 555.6 427.4 C 555.6 423.1 552 420 545 420 C 545 420 522.7 420 522.7 420 C 520.2 422.3 518.4 425.6 518.4 428.7 Z M 588.9 392.7 C 595.3 392.7 600 397.4 600 403.9 C 600 410.3 595.3 415 588.9 415 C 582.7 415 578 410.3 578 403.9 C 578 397.4 582.7 392.7 588.9 392.7 Z " stroke="none" fill="#000"/>  </g>  <g id="Polygon13100">    <path d="M 29.3 259.8 L 40.7 255.4 L 40.7 231.8 L 10.8 183.1 L 0.6 178.9 L 0.6 172.6 L 46.3 172.6 L 46.3 179.4 L 33.6 181.4 L 54.3 222.1 L 74 183.1 L 61.4 178.9 L 61.4 172.6 L 95.6 172.6 L 95.6 179.4 L 85.4 181.4 L 62.4 227.7 L 62.4 257.2 L 73.8 259.3 L 73.8 265.6 L 29.3 265.6 L 29.3 259.8 Z M 152.6 233 C 152.6 252.1 140.2 267.1 119 267.1 C 97.7 267.1 86.3 251.8 86.3 233.5 C 86.3 214.5 98.6 199.6 119.9 199.6 C 141.1 199.6 152.6 214.5 152.6 233 Z M 131.6 235.2 C 131.6 217.7 127.2 206.3 118.7 206.3 C 111.1 206.3 107.4 215.3 107.4 231.4 C 107.4 248.9 111.7 260.4 120.3 260.4 C 127.8 260.4 131.6 251.3 131.6 235.2 Z M 223.3 252.5 L 232.1 254.1 L 232.1 259.8 L 207 267.1 L 207 253 C 207 253 192.82 265.85 192.8 265.9 C 191.3 266.6 189.3 267.1 187 267.1 C 178.7 267.1 167.2 261.3 167.2 244.5 C 167.15 244.53 167.2 210.1 167.2 210.1 L 157.6 207 L 157.6 200.9 L 185.8 200.9 C 185.8 200.9 185.75 240.31 185.8 240.3 C 185.8 248.4 189.8 252 194.6 252 C 198.2 252 202 249.9 204.7 246.3 C 204.72 246.26 204.7 210.1 204.7 210.1 L 195.3 207 L 195.3 200.9 L 223.3 200.9 L 223.3 252.5 Z M 236.5 259.8 L 246 256.2 L 246 213.7 L 236.7 209.3 L 236.7 205.2 L 262.4 199.6 L 262.4 215.9 C 262.4 215.9 277.26 200.26 277.3 200.3 C 281.7 200.3 287.7 201.3 291.3 203.2 C 291.3 203.2 286.4 221.7 286.4 221.7 C 283.2 219.6 279.6 218.5 276 218.5 C 271.8 218.5 267.8 219.9 264.6 222.2 C 264.61 222.21 264.6 257.7 264.6 257.7 L 274.2 259.3 L 274.2 265.6 L 236.5 265.6 L 236.5 259.8 Z " stroke="none" fill="#000"/>  </g>  <g id="Polygon13099">    <path d="M 12.6 81 C 12.65 80.97 12.6 32.2 12.6 32.2 L 1.2 30.1 L 1.2 23.8 L 45.8 23.8 L 45.8 29.6 L 34.3 34 C 34.3 34 34.35 85.06 34.3 85.1 C 34.3 102.2 45.4 109.9 56.7 109.9 C 68 109.9 80.1 102.1 80.1 87.8 C 80.1 87.79 80.1 32.2 80.1 32.2 L 68.7 30.1 L 68.7 23.8 L 101.8 23.8 L 101.8 29.6 L 90.4 34 C 90.4 34 90.4 84.69 90.4 84.7 C 90.4 107.4 71.9 119.2 52.8 119.2 C 32.9 119.2 12.6 106.6 12.6 81 Z M 104.9 111 L 114.5 107.4 L 114.5 64.9 L 105.2 60.5 L 105.2 56.4 L 130.8 50.8 L 130.8 65 C 130.8 65 144.96 52.08 145 52.1 C 147.4 51.3 150.2 50.8 153 50.8 C 162.9 50.8 173.1 56.8 173.1 72.7 C 173.1 72.66 173.1 108.9 173.1 108.9 L 182.7 110.5 L 182.7 116.8 L 146.6 116.8 L 146.6 110.4 L 154.5 107.4 C 154.5 107.4 154.5 76.88 154.5 76.9 C 154.5 68.4 150.7 64.9 145.8 64.9 C 141.7 64.9 137 67.3 133.1 71.4 C 133.05 71.42 133.1 108.9 133.1 108.9 L 141 110.2 L 141 116.8 L 104.9 116.8 L 104.9 111 Z M 232.7 116.8 L 232.7 111 L 241.1 107.4 L 241.1 60.4 L 217.1 60.4 L 217.1 108.9 L 226.7 110.5 L 226.7 116.8 L 189 116.8 L 189 111 L 198.5 107.4 L 198.5 59.8 L 185.8 59.8 L 185.8 53.8 L 198.5 50 C 198.5 50 198.52 44.27 198.5 44.3 C 198.5 26.5 212.5 18.6 228 18.6 C 236 18.6 244.2 20.7 251.2 24.6 C 251.22 24.55 245.5 41.4 245.5 41.4 C 245.5 41.4 238.08 41.41 238.1 41.4 C 237.8 30.5 232.4 25.5 227.2 25.5 C 222.1 25.5 217.1 30.4 217.1 39.2 C 217.12 39.18 217.1 52.1 217.1 52.1 L 259.7 52.1 L 259.7 108.9 L 269.2 110.5 L 269.2 116.8 L 232.7 116.8 Z M 350.9 111.2 L 350.9 116.8 L 313 116.8 L 313 110.7 L 321 109.4 L 307 92.3 L 294.1 108 L 303.8 111.2 L 303.8 116.8 L 272.7 116.8 L 272.7 110.7 L 282.1 109.1 L 301.9 85.9 L 281.9 61.3 L 272.3 57.7 L 272.3 52.1 L 310 52.1 L 310 58.3 L 302.1 59.5 L 315.8 76.4 L 328.1 61.4 L 318.7 58 L 318.7 52.1 L 349.6 52.1 L 349.6 58.2 L 340.1 59.8 L 321 82.7 L 341.4 107.6 L 350.9 111.2 Z " stroke="none" fill="#000"/>  </g></svg>