<?xml version="1.0" standalone="no"?><!DOCTYPE svg PUBLIC "-//W3C//DTD SVG 1.1//EN" "http://www.w3.org/Graphics/SVG/1.1/DTD/svg11.dtd"><svg xmlns="http://www.w3.org/2000/svg" version="1.1" width="361.1px" height="139.4px" viewBox="0 0 361.1 139.4">  <desc>Qu puede impulsar al alza los diferenciales de cr dito Es la duraci n el principal riesgo de una inversi n credit</desc>  <defs/>  <g id="Polygon10293">    <path d="M 1.3 82.3 L 4.2 82.3 L 4.2 79.1 L 1.3 79.1 L 1.3 82.3 Z M 1.3 83.8 L 4.1 83.8 L 4.1 95.4 L 1.3 95.4 L 1.3 83.8 Z M 17 87.9 C 17.03 87.91 17 95.4 17 95.4 L 14.2 95.4 C 14.2 95.4 14.24 88.16 14.2 88.2 C 14.2 86.9 13.5 86.1 12.2 86.1 C 10.6 86.1 9.6 87.2 9.6 89.1 C 9.64 89.12 9.6 95.4 9.6 95.4 L 6.8 95.4 L 6.8 83.8 L 9.6 83.8 C 9.6 83.8 9.62 85.47 9.6 85.5 C 10.3 84.4 11.2 83.6 13.1 83.6 C 15.8 83.6 17 85.1 17 87.9 Z M 25.5 95.4 L 22.6 95.4 L 18.3 83.8 L 21.3 83.8 L 24.1 92.1 L 26.9 83.8 L 29.8 83.8 L 25.5 95.4 Z M 33 90.4 C 33 92.3 34.4 93.2 36 93.2 C 37 93.2 38.1 92.8 38.4 91.7 C 38.4 91.7 41 91.7 41 91.7 C 40.5 94.3 38.2 95.6 35.8 95.6 C 33 95.6 30.3 93.7 30.3 89.6 C 30.3 85.6 32.9 83.6 35.8 83.6 C 38.7 83.6 41 85.4 41 89.3 C 41.03 89.29 41 90.4 41 90.4 C 41 90.4 32.97 90.43 33 90.4 Z M 33 88.4 C 33 88.4 38.3 88.4 38.3 88.4 C 38.3 86.9 37.2 86 35.8 86 C 34.5 86 33.3 86.7 33 88.4 Z M 49.6 86.4 C 49.6 86.4 48.85 86.37 48.8 86.4 C 46.9 86.4 45.8 87.4 45.8 89.7 C 45.82 89.71 45.8 95.4 45.8 95.4 L 43 95.4 L 43 83.8 L 45.8 83.8 C 45.8 83.8 45.8 85.45 45.8 85.4 C 46.4 84.2 47.5 83.7 48.8 83.7 C 48.82 83.66 49.6 83.7 49.6 83.7 L 49.6 86.4 Z M 60.2 91.8 C 60.2 94.4 57.9 95.6 55.3 95.6 C 52.9 95.6 50.3 94.6 50.1 91.7 C 50.1 91.7 52.9 91.7 52.9 91.7 C 53.1 92.8 54.1 93.3 55.4 93.3 C 56.6 93.3 57.5 92.9 57.5 92.1 C 57.5 91.3 56.9 91.2 55.3 90.9 C 53 90.5 50.5 90.1 50.5 87.3 C 50.5 84.7 52.7 83.6 55.1 83.6 C 57.8 83.6 59.8 84.9 59.9 87.5 C 59.9 87.5 57.2 87.5 57.2 87.5 C 57.1 86.4 56.3 85.9 55.1 85.9 C 53.7 85.9 53.2 86.5 53.2 87.2 C 53.2 88.1 54.2 88.3 55.6 88.5 C 57.7 88.8 60.2 89.1 60.2 91.8 Z M 62 82.3 L 65 82.3 L 65 79.1 L 62 79.1 L 62 82.3 Z M 62.1 83.8 L 64.9 83.8 L 64.9 95.4 L 62.1 95.4 L 62.1 83.8 Z M 71.2 81.7 L 74.4 76.7 L 76.6 78.4 L 73.6 81.7 L 71.2 81.7 Z M 78.2 89.6 C 78.2 93.4 75.7 95.6 72.5 95.6 C 69.3 95.6 66.8 93.4 66.8 89.6 C 66.8 85.8 69.3 83.6 72.5 83.6 C 75.7 83.6 78.2 85.8 78.2 89.6 Z M 69.7 89.6 C 69.7 91.9 71 93 72.5 93 C 74.2 93 75.3 91.8 75.3 89.6 C 75.3 87.3 74 86.2 72.5 86.2 C 70.8 86.2 69.7 87.4 69.7 89.6 Z M 90.3 87.9 C 90.34 87.91 90.3 95.4 90.3 95.4 L 87.5 95.4 C 87.5 95.4 87.55 88.16 87.5 88.2 C 87.5 86.9 86.8 86.1 85.5 86.1 C 83.9 86.1 82.9 87.2 82.9 89.1 C 82.95 89.12 82.9 95.4 82.9 95.4 L 80.2 95.4 L 80.2 83.8 L 82.9 83.8 C 82.9 83.8 82.93 85.47 82.9 85.5 C 83.6 84.4 84.5 83.6 86.5 83.6 C 89.1 83.6 90.3 85.1 90.3 87.9 Z M 103.1 95.6 C 99.3 95.6 97.5 92.7 97.5 89.6 C 97.5 86.5 99.3 83.6 103.1 83.6 C 105.9 83.6 108.1 85.2 108.2 88 C 108.2 88 105.5 88 105.5 88 C 105.3 86.9 104.5 86.1 103.2 86.1 C 101.1 86.1 100.3 87.8 100.3 89.6 C 100.3 91.5 101.2 93 103.2 93 C 104.5 93 105.3 92.3 105.5 91.3 C 105.5 91.3 108.3 91.3 108.3 91.3 C 107.9 94.1 105.9 95.6 103.1 95.6 Z M 116.8 86.4 C 116.8 86.4 116.11 86.37 116.1 86.4 C 114.2 86.4 113.1 87.4 113.1 89.7 C 113.08 89.71 113.1 95.4 113.1 95.4 L 110.3 95.4 L 110.3 83.8 L 113.1 83.8 C 113.1 83.8 113.06 85.45 113.1 85.4 C 113.7 84.2 114.7 83.7 116.1 83.7 C 116.09 83.66 116.8 83.7 116.8 83.7 L 116.8 86.4 Z M 120 90.4 C 120 92.3 121.4 93.2 123 93.2 C 124 93.2 125.1 92.8 125.4 91.7 C 125.4 91.7 128 91.7 128 91.7 C 127.5 94.3 125.2 95.6 122.8 95.6 C 120 95.6 117.3 93.7 117.3 89.6 C 117.3 85.6 119.9 83.6 122.8 83.6 C 125.7 83.6 128 85.4 128 89.3 C 128.04 89.29 128 90.4 128 90.4 C 128 90.4 119.97 90.43 120 90.4 Z M 120 88.4 C 120 88.4 125.3 88.4 125.3 88.4 C 125.3 86.9 124.2 86 122.8 86 C 121.5 86 120.3 86.7 120 88.4 Z M 140.7 95.4 L 137.9 95.4 C 137.9 95.4 137.95 93.6 137.9 93.6 C 137.3 94.9 136 95.6 134.4 95.6 C 131.7 95.6 129.3 93.6 129.3 89.6 C 129.3 85.6 131.7 83.6 134.4 83.6 C 135.9 83.6 137.2 84.2 137.9 85.3 C 137.88 85.32 137.9 79.4 137.9 79.4 L 140.7 79.4 L 140.7 95.4 Z M 138 89.6 C 138 87.2 136.5 86.1 135 86.1 C 133.5 86.1 132.1 87.2 132.1 89.6 C 132.1 91.9 133.5 93.1 135 93.1 C 136.5 93.1 138 91.9 138 89.6 Z M 143.3 82.3 L 146.3 82.3 L 146.3 79.1 L 143.3 79.1 L 143.3 82.3 Z M 143.4 83.8 L 146.2 83.8 L 146.2 95.4 L 143.4 95.4 L 143.4 83.8 Z M 154.8 95.4 C 154.8 95.4 152.98 95.38 153 95.4 C 150.8 95.4 149.4 94.7 149.4 91.6 C 149.43 91.6 149.4 86.3 149.4 86.3 L 147.3 86.3 L 147.3 83.8 L 149.4 83.8 L 149.4 81.2 L 152.2 80.4 L 152.2 83.8 L 154.5 83.8 L 154.5 86.3 L 152.2 86.3 C 152.2 86.3 152.23 91.73 152.2 91.7 C 152.2 92.4 152.4 92.9 153.4 92.9 C 153.4 92.9 154.8 92.9 154.8 92.9 L 154.8 95.4 Z M 156.3 82.3 L 159.2 82.3 L 159.2 79.1 L 156.3 79.1 L 156.3 82.3 Z M 156.4 83.8 L 159.2 83.8 L 159.2 95.4 L 156.4 95.4 L 156.4 83.8 Z M 166.8 95.6 C 163 95.6 161.1 92.7 161.1 89.6 C 161.1 86.5 162.9 83.6 166.7 83.6 C 169.6 83.6 171.8 85.2 171.9 88 C 171.9 88 169.1 88 169.1 88 C 169 86.9 168.2 86.1 166.8 86.1 C 164.8 86.1 163.9 87.8 163.9 89.6 C 163.9 91.5 164.8 93 166.8 93 C 168.1 93 169 92.3 169.2 91.3 C 169.2 91.3 171.9 91.3 171.9 91.3 C 171.6 94.1 169.6 95.6 166.8 95.6 Z M 173.8 82.3 L 176.8 82.3 L 176.8 79.1 L 173.8 79.1 L 173.8 82.3 Z M 173.9 83.8 L 176.7 83.8 L 176.7 95.4 L 173.9 95.4 L 173.9 83.8 Z M 188.7 87.6 C 188.68 87.59 188.7 95.4 188.7 95.4 L 186 95.4 C 186 95.4 185.95 93.7 186 93.7 C 185 95.2 183.7 95.6 182.4 95.6 C 180.6 95.6 178.7 94.5 178.7 92 C 178.7 90.2 179.7 89 182.4 88.6 C 182.4 88.6 184.9 88.2 184.9 88.2 C 185.6 88.1 186.1 87.9 186.1 87.2 C 186.1 86.2 185.2 85.8 184.1 85.8 C 182.6 85.8 181.9 86.5 181.8 87.5 C 181.8 87.5 179.1 87.5 179.1 87.5 C 179.4 84.8 181.6 83.6 184.2 83.6 C 187 83.6 188.7 84.9 188.7 87.6 Z M 186 90.5 C 186 90.5 186 89.9 186 89.9 C 185.7 90 185.2 90.2 184.6 90.2 C 184.6 90.2 183.3 90.4 183.3 90.4 C 181.9 90.6 181.5 91.2 181.5 91.9 C 181.5 92.8 182.1 93.3 183.1 93.3 C 184.5 93.3 186 92.2 186 90.5 Z M 198 90.4 C 198.1 92.3 199.4 93.2 201 93.2 C 202.1 93.2 203.1 92.8 203.5 91.7 C 203.5 91.7 206 91.7 206 91.7 C 205.5 94.3 203.2 95.6 200.9 95.6 C 198.1 95.6 195.3 93.7 195.3 89.6 C 195.3 85.6 197.9 83.6 200.9 83.6 C 203.7 83.6 206.1 85.4 206.1 89.3 C 206.07 89.29 206.1 90.4 206.1 90.4 C 206.1 90.4 198.01 90.43 198 90.4 Z M 198.1 88.4 C 198.1 88.4 203.3 88.4 203.3 88.4 C 203.3 86.9 202.3 86 200.8 86 C 199.6 86 198.3 86.7 198.1 88.4 Z M 218.3 87.9 C 218.25 87.91 218.3 95.4 218.3 95.4 L 215.5 95.4 C 215.5 95.4 215.46 88.16 215.5 88.2 C 215.5 86.9 214.7 86.1 213.4 86.1 C 211.8 86.1 210.9 87.2 210.9 89.1 C 210.86 89.12 210.9 95.4 210.9 95.4 L 208.1 95.4 L 208.1 83.8 L 210.8 83.8 C 210.8 83.8 210.84 85.47 210.8 85.5 C 211.5 84.4 212.4 83.6 214.4 83.6 C 217 83.6 218.3 85.1 218.3 87.9 Z M 237.3 95.4 L 225.9 95.4 L 225.9 92.8 C 225.9 92.8 229.69 89.67 229.7 89.7 C 232.6 87.3 233.9 86.1 233.9 84.5 C 233.9 83.1 232.8 82.3 231.3 82.3 C 229.7 82.3 228.6 83.2 228.5 85.1 C 228.5 85.1 225.7 85.1 225.7 85.1 C 225.7 81.5 228.4 79.6 231.5 79.6 C 234.4 79.6 236.8 81.2 236.8 84.3 C 236.8 87 234.8 88.8 232.1 91 C 232.07 91.01 229.8 92.8 229.8 92.8 L 237.3 92.8 L 237.3 95.4 Z M 238.6 87.7 C 238.6 82.8 240.3 79.6 244.1 79.6 C 247.9 79.6 249.6 82.8 249.6 87.6 C 249.6 92.5 247.8 95.6 244 95.6 C 240.2 95.6 238.6 92.5 238.6 87.7 Z M 246.8 87.7 C 246.8 84.6 246 82.1 244 82.1 C 242.2 82.1 241.4 84.1 241.4 87.5 C 241.4 91 242.3 93.2 244.1 93.2 C 246 93.2 246.8 90.9 246.8 87.7 Z M 262.5 95.4 L 251.1 95.4 L 251.1 92.8 C 251.1 92.8 254.89 89.67 254.9 89.7 C 257.8 87.3 259.1 86.1 259.1 84.5 C 259.1 83.1 258 82.3 256.5 82.3 C 254.9 82.3 253.8 83.2 253.7 85.1 C 253.7 85.1 250.9 85.1 250.9 85.1 C 250.9 81.5 253.6 79.6 256.7 79.6 C 259.6 79.6 262 81.2 262 84.3 C 262 87 260 88.8 257.3 91 C 257.27 91.01 255 92.8 255 92.8 L 262.5 92.8 L 262.5 95.4 Z M 274.6 92.8 L 274.6 95.4 L 264.2 95.4 L 264.2 92.8 L 268 92.8 C 268 92.8 268.02 83.56 268 83.6 C 266.8 84.3 265.3 84.7 264.2 84.8 C 264.2 84.8 264.2 82 264.2 82 C 265.6 81.8 267.1 81.2 268.4 79.9 C 268.44 79.9 270.8 79.9 270.8 79.9 L 270.8 92.8 L 274.6 92.8 Z M 279.7 89.8 C 279.7 87.1 281.1 86.6 282.3 85.7 C 283.3 85 283.8 84.4 283.8 83.6 C 283.8 82.4 282.9 81.8 281.7 81.8 C 280.2 81.8 279.3 82.6 279.3 84 C 279.3 84 276.4 84 276.4 84 C 276.7 80.6 279.1 79.4 281.8 79.4 C 284.5 79.4 286.7 80.7 286.7 83.5 C 286.7 85.7 285.4 86.6 284 87.6 C 282.9 88.4 282.4 88.9 282.4 89.8 C 282.38 89.84 282.4 90.5 282.4 90.5 L 279.7 90.5 C 279.7 90.5 279.72 89.75 279.7 89.8 Z M 279.5 92.1 L 282.6 92.1 L 282.6 95.4 L 279.5 95.4 L 279.5 92.1 Z " stroke="none" fill="#000"/>  </g>  <g id="Polygon10292">    <path d="M 12 70.2 L 9.3 70.2 C 9.3 70.2 9.28 68.4 9.3 68.4 C 8.7 69.7 7.3 70.4 5.7 70.4 C 3 70.4 0.6 68.4 0.6 64.4 C 0.6 60.4 3 58.4 5.7 58.4 C 7.2 58.4 8.5 59 9.2 60.1 C 9.22 60.12 9.2 54.2 9.2 54.2 L 12 54.2 L 12 70.2 Z M 9.3 64.4 C 9.3 62 7.9 60.9 6.4 60.9 C 4.9 60.9 3.5 62 3.5 64.4 C 3.5 66.7 4.9 67.9 6.4 67.9 C 7.9 67.9 9.3 66.7 9.3 64.4 Z M 24.9 70.2 L 22.2 70.2 C 22.2 70.2 22.15 68.54 22.2 68.5 C 21.5 69.6 20.4 70.3 18.8 70.3 C 16.4 70.3 14.6 68.8 14.6 65.8 C 14.64 65.79 14.6 58.6 14.6 58.6 L 17.4 58.6 C 17.4 58.6 17.43 65.58 17.4 65.6 C 17.4 67.2 18.2 67.8 19.4 67.8 C 21 67.8 22.1 66.9 22.1 64.2 C 22.09 64.2 22.1 58.6 22.1 58.6 L 24.9 58.6 L 24.9 70.2 Z M 34.2 61.2 C 34.2 61.2 33.43 61.17 33.4 61.2 C 31.5 61.2 30.4 62.2 30.4 64.5 C 30.41 64.51 30.4 70.2 30.4 70.2 L 27.6 70.2 L 27.6 58.6 L 30.4 58.6 C 30.4 58.6 30.39 60.25 30.4 60.2 C 31 59 32 58.5 33.4 58.5 C 33.41 58.46 34.2 58.5 34.2 58.5 L 34.2 61.2 Z M 44.8 62.4 C 44.79 62.39 44.8 70.2 44.8 70.2 L 42.1 70.2 C 42.1 70.2 42.06 68.5 42.1 68.5 C 41.2 70 39.8 70.4 38.6 70.4 C 36.7 70.4 34.8 69.3 34.8 66.8 C 34.8 65 35.8 63.8 38.5 63.4 C 38.5 63.4 41 63 41 63 C 41.7 62.9 42.2 62.7 42.2 62 C 42.2 61 41.3 60.6 40.2 60.6 C 38.7 60.6 38.1 61.3 37.9 62.3 C 37.9 62.3 35.3 62.3 35.3 62.3 C 35.6 59.6 37.7 58.4 40.3 58.4 C 43.1 58.4 44.8 59.7 44.8 62.4 Z M 42.1 65.3 C 42.1 65.3 42.1 64.7 42.1 64.7 C 41.8 64.8 41.3 65 40.7 65 C 40.7 65 39.5 65.2 39.5 65.2 C 38.1 65.4 37.6 66 37.6 66.7 C 37.6 67.6 38.2 68.1 39.2 68.1 C 40.7 68.1 42.1 67 42.1 65.3 Z M 52.2 70.4 C 48.4 70.4 46.6 67.5 46.6 64.4 C 46.6 61.3 48.4 58.4 52.2 58.4 C 55 58.4 57.2 60 57.3 62.8 C 57.3 62.8 54.6 62.8 54.6 62.8 C 54.4 61.7 53.6 60.9 52.3 60.9 C 50.2 60.9 49.4 62.6 49.4 64.4 C 49.4 66.3 50.3 67.8 52.2 67.8 C 53.6 67.8 54.4 67.1 54.6 66.1 C 54.6 66.1 57.4 66.1 57.4 66.1 C 57 68.9 55 70.4 52.2 70.4 Z M 59.3 57.1 L 62.2 57.1 L 62.2 53.9 L 59.3 53.9 L 59.3 57.1 Z M 59.4 58.6 L 62.2 58.6 L 62.2 70.2 L 59.4 70.2 L 59.4 58.6 Z M 68.5 56.5 L 71.7 51.5 L 73.9 53.2 L 70.9 56.5 L 68.5 56.5 Z M 75.5 64.4 C 75.5 68.2 73 70.4 69.8 70.4 C 66.5 70.4 64.1 68.2 64.1 64.4 C 64.1 60.6 66.5 58.4 69.8 58.4 C 73 58.4 75.5 60.6 75.5 64.4 Z M 67 64.4 C 67 66.7 68.3 67.8 69.8 67.8 C 71.5 67.8 72.6 66.6 72.6 64.4 C 72.6 62.1 71.3 61 69.8 61 C 68.1 61 67 62.2 67 64.4 Z M 87.6 62.7 C 87.63 62.71 87.6 70.2 87.6 70.2 L 84.8 70.2 C 84.8 70.2 84.84 62.96 84.8 63 C 84.8 61.7 84.1 60.9 82.8 60.9 C 81.2 60.9 80.2 62 80.2 63.9 C 80.24 63.92 80.2 70.2 80.2 70.2 L 77.4 70.2 L 77.4 58.6 L 80.2 58.6 C 80.2 58.6 80.22 60.27 80.2 60.3 C 80.9 59.2 81.8 58.4 83.7 58.4 C 86.4 58.4 87.6 59.9 87.6 62.7 Z M 97.5 65.2 C 97.5 67.1 98.9 68 100.5 68 C 101.6 68 102.6 67.6 102.9 66.5 C 102.9 66.5 105.5 66.5 105.5 66.5 C 105 69.1 102.7 70.4 100.3 70.4 C 97.5 70.4 94.8 68.5 94.8 64.4 C 94.8 60.4 97.4 58.4 100.4 58.4 C 103.2 58.4 105.5 60.2 105.5 64.1 C 105.54 64.09 105.5 65.2 105.5 65.2 C 105.5 65.2 97.48 65.23 97.5 65.2 Z M 97.5 63.2 C 97.5 63.2 102.8 63.2 102.8 63.2 C 102.8 61.7 101.7 60.8 100.3 60.8 C 99 60.8 97.8 61.5 97.5 63.2 Z M 110.3 70.2 L 107.5 70.2 L 107.5 54.2 L 110.3 54.2 L 110.3 70.2 Z M 130.1 64.2 C 130.1 68.4 127.5 70.3 124.8 70.3 C 123.2 70.3 122.2 69.6 121.5 68.8 C 121.53 68.8 121.5 74.5 121.5 74.5 L 118.7 74.5 L 118.7 58.6 L 121.5 58.6 C 121.5 58.6 121.46 60.44 121.5 60.4 C 122.1 59.2 123.4 58.4 125.1 58.4 C 127.8 58.4 130.1 60.3 130.1 64.2 Z M 127.3 64.4 C 127.3 62 125.9 60.9 124.4 60.9 C 122.9 60.9 121.4 62 121.4 64.4 C 121.4 66.7 122.9 67.8 124.4 67.8 C 125.9 67.8 127.3 66.7 127.3 64.4 Z M 138.7 61.2 C 138.7 61.2 137.93 61.17 137.9 61.2 C 136 61.2 134.9 62.2 134.9 64.5 C 134.9 64.51 134.9 70.2 134.9 70.2 L 132.1 70.2 L 132.1 58.6 L 134.9 58.6 C 134.9 58.6 134.88 60.25 134.9 60.2 C 135.5 59 136.5 58.5 137.9 58.5 C 137.91 58.46 138.7 58.5 138.7 58.5 L 138.7 61.2 Z M 139.9 57.1 L 142.9 57.1 L 142.9 53.9 L 139.9 53.9 L 139.9 57.1 Z M 140 58.6 L 142.8 58.6 L 142.8 70.2 L 140 70.2 L 140 58.6 Z M 155.7 62.7 C 155.69 62.71 155.7 70.2 155.7 70.2 L 152.9 70.2 C 152.9 70.2 152.9 62.96 152.9 63 C 152.9 61.7 152.2 60.9 150.9 60.9 C 149.3 60.9 148.3 62 148.3 63.9 C 148.3 63.92 148.3 70.2 148.3 70.2 L 145.5 70.2 L 145.5 58.6 L 148.3 58.6 C 148.3 58.6 148.28 60.27 148.3 60.3 C 148.9 59.2 149.9 58.4 151.8 58.4 C 154.5 58.4 155.7 59.9 155.7 62.7 Z M 163.2 70.4 C 159.4 70.4 157.6 67.5 157.6 64.4 C 157.6 61.3 159.4 58.4 163.2 58.4 C 166 58.4 168.2 60 168.3 62.8 C 168.3 62.8 165.6 62.8 165.6 62.8 C 165.4 61.7 164.6 60.9 163.3 60.9 C 161.2 60.9 160.4 62.6 160.4 64.4 C 160.4 66.3 161.3 67.8 163.3 67.8 C 164.6 67.8 165.4 67.1 165.6 66.1 C 165.6 66.1 168.4 66.1 168.4 66.1 C 168 68.9 166 70.4 163.2 70.4 Z M 170.3 57.1 L 173.2 57.1 L 173.2 53.9 L 170.3 53.9 L 170.3 57.1 Z M 170.4 58.6 L 173.2 58.6 L 173.2 70.2 L 170.4 70.2 L 170.4 58.6 Z M 187.3 64.2 C 187.3 68.4 184.7 70.3 181.9 70.3 C 180.4 70.3 179.3 69.6 178.7 68.8 C 178.67 68.8 178.7 74.5 178.7 74.5 L 175.9 74.5 L 175.9 58.6 L 178.6 58.6 C 178.6 58.6 178.6 60.44 178.6 60.4 C 179.2 59.2 180.5 58.4 182.2 58.4 C 184.9 58.4 187.3 60.3 187.3 64.2 Z M 184.4 64.4 C 184.4 62 183 60.9 181.5 60.9 C 180 60.9 178.6 62 178.6 64.4 C 178.6 66.7 180 67.8 181.5 67.8 C 183 67.8 184.4 66.7 184.4 64.4 Z M 198.5 62.4 C 198.51 62.39 198.5 70.2 198.5 70.2 L 195.8 70.2 C 195.8 70.2 195.78 68.5 195.8 68.5 C 194.9 70 193.5 70.4 192.3 70.4 C 190.4 70.4 188.5 69.3 188.5 66.8 C 188.5 65 189.5 63.8 192.2 63.4 C 192.2 63.4 194.7 63 194.7 63 C 195.4 62.9 195.9 62.7 195.9 62 C 195.9 61 195 60.6 193.9 60.6 C 192.4 60.6 191.8 61.3 191.7 62.3 C 191.7 62.3 189 62.3 189 62.3 C 189.3 59.6 191.4 58.4 194.1 58.4 C 196.8 58.4 198.5 59.7 198.5 62.4 Z M 195.8 65.3 C 195.8 65.3 195.8 64.7 195.8 64.7 C 195.5 64.8 195 65 194.4 65 C 194.4 65 193.2 65.2 193.2 65.2 C 191.8 65.4 191.3 66 191.3 66.7 C 191.3 67.6 192 68.1 192.9 68.1 C 194.4 68.1 195.8 67 195.8 65.3 Z M 203.8 70.2 L 201 70.2 L 201 54.2 L 203.8 54.2 L 203.8 70.2 Z M 218.8 61.2 C 218.8 61.2 218.04 61.17 218 61.2 C 216.1 61.2 215 62.2 215 64.5 C 215.02 64.51 215 70.2 215 70.2 L 212.2 70.2 L 212.2 58.6 L 215 58.6 C 215 58.6 214.99 60.25 215 60.2 C 215.6 59 216.7 58.5 218 58.5 C 218.02 58.46 218.8 58.5 218.8 58.5 L 218.8 61.2 Z M 220 57.1 L 223 57.1 L 223 53.9 L 220 53.9 L 220 57.1 Z M 220.1 58.6 L 222.9 58.6 L 222.9 70.2 L 220.1 70.2 L 220.1 58.6 Z M 227.6 65.2 C 227.7 67.1 229 68 230.6 68 C 231.7 68 232.7 67.6 233.1 66.5 C 233.1 66.5 235.6 66.5 235.6 66.5 C 235.1 69.1 232.8 70.4 230.4 70.4 C 227.7 70.4 224.9 68.5 224.9 64.4 C 224.9 60.4 227.5 58.4 230.5 58.4 C 233.3 58.4 235.7 60.2 235.7 64.1 C 235.66 64.09 235.7 65.2 235.7 65.2 C 235.7 65.2 227.59 65.23 227.6 65.2 Z M 227.7 63.2 C 227.7 63.2 232.9 63.2 232.9 63.2 C 232.9 61.7 231.9 60.8 230.4 60.8 C 229.1 60.8 227.9 61.5 227.7 63.2 Z M 246.9 66.6 C 246.9 69.2 244.6 70.4 242 70.4 C 239.6 70.4 237 69.4 236.8 66.5 C 236.8 66.5 239.6 66.5 239.6 66.5 C 239.8 67.6 240.8 68.1 242.1 68.1 C 243.3 68.1 244.2 67.7 244.2 66.9 C 244.2 66.1 243.6 66 242 65.7 C 239.8 65.3 237.2 64.9 237.2 62.1 C 237.2 59.5 239.4 58.4 241.8 58.4 C 244.5 58.4 246.5 59.7 246.6 62.3 C 246.6 62.3 243.9 62.3 243.9 62.3 C 243.8 61.2 243 60.7 241.8 60.7 C 240.4 60.7 239.9 61.3 239.9 62 C 239.9 62.9 240.9 63.1 242.3 63.3 C 244.4 63.6 246.9 63.9 246.9 66.6 Z M 259.2 69.4 C 259.2 73.1 256.8 74.8 253.7 74.8 C 250.9 74.8 248.6 73.4 248.2 70.5 C 248.2 70.5 250.9 70.5 250.9 70.5 C 251.2 72 252.4 72.4 253.7 72.4 C 255.5 72.4 256.6 71.5 256.6 69.7 C 256.6 69.7 256.6 67.8 256.6 67.8 C 256 69 254.9 69.8 253.1 69.8 C 250.5 69.8 248.1 68 248.1 64.1 C 248.1 60.2 250.5 58.4 253.1 58.4 C 254.8 58.4 256 59.1 256.6 60.2 C 256.55 60.21 256.6 58.6 256.6 58.6 L 259.2 58.6 C 259.2 58.6 259.24 69.4 259.2 69.4 Z M 256.4 64.1 C 256.4 61.9 255.2 60.8 253.7 60.8 C 252.2 60.8 250.8 61.9 250.8 64.1 C 250.8 66.3 252.2 67.3 253.7 67.3 C 255.2 67.3 256.4 66.3 256.4 64.1 Z M 272.4 64.4 C 272.4 68.2 270 70.4 266.8 70.4 C 263.5 70.4 261.1 68.2 261.1 64.4 C 261.1 60.6 263.5 58.4 266.8 58.4 C 270 58.4 272.4 60.6 272.4 64.4 Z M 264 64.4 C 264 66.7 265.3 67.8 266.8 67.8 C 268.5 67.8 269.6 66.6 269.6 64.4 C 269.6 62.1 268.3 61 266.8 61 C 265.1 61 264 62.2 264 64.4 Z M 289.9 70.2 L 287.2 70.2 C 287.2 70.2 287.19 68.4 287.2 68.4 C 286.6 69.7 285.2 70.4 283.6 70.4 C 280.9 70.4 278.5 68.4 278.5 64.4 C 278.5 60.4 280.9 58.4 283.6 58.4 C 285.1 58.4 286.4 59 287.1 60.1 C 287.13 60.12 287.1 54.2 287.1 54.2 L 289.9 54.2 L 289.9 70.2 Z M 287.2 64.4 C 287.2 62 285.8 60.9 284.3 60.9 C 282.8 60.9 281.4 62 281.4 64.4 C 281.4 66.7 282.8 67.9 284.3 67.9 C 285.8 67.9 287.2 66.7 287.2 64.4 Z M 294.6 65.2 C 294.7 67.1 296 68 297.6 68 C 298.7 68 299.7 67.6 300.1 66.5 C 300.1 66.5 302.6 66.5 302.6 66.5 C 302.1 69.1 299.9 70.4 297.5 70.4 C 294.7 70.4 291.9 68.5 291.9 64.4 C 291.9 60.4 294.5 58.4 297.5 58.4 C 300.3 58.4 302.7 60.2 302.7 64.1 C 302.69 64.09 302.7 65.2 302.7 65.2 C 302.7 65.2 294.63 65.23 294.6 65.2 Z M 294.7 63.2 C 294.7 63.2 300 63.2 300 63.2 C 300 61.7 298.9 60.8 297.5 60.8 C 296.2 60.8 294.9 61.5 294.7 63.2 Z M 320.1 70.2 L 317.3 70.2 C 317.3 70.2 317.35 68.54 317.3 68.5 C 316.7 69.6 315.6 70.3 314 70.3 C 311.6 70.3 309.8 68.8 309.8 65.8 C 309.83 65.79 309.8 58.6 309.8 58.6 L 312.6 58.6 C 312.6 58.6 312.62 65.58 312.6 65.6 C 312.6 67.2 313.4 67.8 314.6 67.8 C 316.2 67.8 317.3 66.9 317.3 64.2 C 317.28 64.2 317.3 58.6 317.3 58.6 L 320.1 58.6 L 320.1 70.2 Z M 333 62.7 C 332.99 62.71 333 70.2 333 70.2 L 330.2 70.2 C 330.2 70.2 330.2 62.96 330.2 63 C 330.2 61.7 329.5 60.9 328.2 60.9 C 326.6 60.9 325.6 62 325.6 63.9 C 325.6 63.92 325.6 70.2 325.6 70.2 L 322.8 70.2 L 322.8 58.6 L 325.6 58.6 C 325.6 58.6 325.58 60.27 325.6 60.3 C 326.2 59.2 327.2 58.4 329.1 58.4 C 331.8 58.4 333 59.9 333 62.7 Z M 344.9 62.4 C 344.88 62.39 344.9 70.2 344.9 70.2 L 342.1 70.2 C 342.1 70.2 342.15 68.5 342.1 68.5 C 341.2 70 339.9 70.4 338.6 70.4 C 336.8 70.4 334.9 69.3 334.9 66.8 C 334.9 65 335.9 63.8 338.6 63.4 C 338.6 63.4 341.1 63 341.1 63 C 341.8 62.9 342.3 62.7 342.3 62 C 342.3 61 341.4 60.6 340.3 60.6 C 338.8 60.6 338.1 61.3 338 62.3 C 338 62.3 335.3 62.3 335.3 62.3 C 335.6 59.6 337.8 58.4 340.4 58.4 C 343.2 58.4 344.9 59.7 344.9 62.4 Z M 342.2 65.3 C 342.2 65.3 342.2 64.7 342.2 64.7 C 341.9 64.8 341.4 65 340.8 65 C 340.8 65 339.5 65.2 339.5 65.2 C 338.1 65.4 337.7 66 337.7 66.7 C 337.7 67.6 338.3 68.1 339.3 68.1 C 340.7 68.1 342.2 67 342.2 65.3 Z " stroke="none" fill="#000"/>  </g>  <g id="Polygon10291">    <path d="M 12 45 L 9.3 45 C 9.3 45 9.28 43.2 9.3 43.2 C 8.7 44.5 7.3 45.2 5.7 45.2 C 3 45.2 0.6 43.2 0.6 39.2 C 0.6 35.2 3 33.2 5.7 33.2 C 7.2 33.2 8.5 33.8 9.2 34.9 C 9.22 34.92 9.2 29 9.2 29 L 12 29 L 12 45 Z M 9.3 39.2 C 9.3 36.8 7.9 35.7 6.4 35.7 C 4.9 35.7 3.5 36.8 3.5 39.2 C 3.5 41.5 4.9 42.7 6.4 42.7 C 7.9 42.7 9.3 41.5 9.3 39.2 Z M 14.6 31.9 L 17.6 31.9 L 17.6 28.7 L 14.6 28.7 L 14.6 31.9 Z M 14.7 33.4 L 17.5 33.4 L 17.5 45 L 14.7 45 L 14.7 33.4 Z M 24.5 31.5 C 23.6 31.5 23.4 31.9 23.4 32.6 C 23.37 32.63 23.4 33.4 23.4 33.4 L 25.5 33.4 L 25.5 35.9 L 23.4 35.9 L 23.4 45 L 20.6 45 L 20.6 35.9 L 18.9 35.9 L 18.9 33.4 L 20.6 33.4 C 20.6 33.4 20.58 32.76 20.6 32.8 C 20.6 29.7 22 29 24.1 29 C 24.13 28.98 25.8 29 25.8 29 L 25.8 31.5 C 25.8 31.5 24.55 31.46 24.5 31.5 Z M 28.9 40 C 29 41.9 30.3 42.8 31.9 42.8 C 33 42.8 34.1 42.4 34.4 41.3 C 34.4 41.3 37 41.3 37 41.3 C 36.5 43.9 34.2 45.2 31.8 45.2 C 29 45.2 26.2 43.3 26.2 39.2 C 26.2 35.2 28.9 33.2 31.8 33.2 C 34.6 33.2 37 35 37 38.9 C 37 38.89 37 40 37 40 C 37 40 28.94 40.03 28.9 40 Z M 29 38 C 29 38 34.3 38 34.3 38 C 34.3 36.5 33.2 35.6 31.8 35.6 C 30.5 35.6 29.3 36.3 29 38 Z M 45.5 36 C 45.5 36 44.81 35.97 44.8 36 C 42.9 36 41.8 37 41.8 39.3 C 41.79 39.31 41.8 45 41.8 45 L 39 45 L 39 33.4 L 41.8 33.4 C 41.8 33.4 41.77 35.05 41.8 35 C 42.4 33.8 43.4 33.3 44.8 33.3 C 44.79 33.26 45.5 33.3 45.5 33.3 L 45.5 36 Z M 48.7 40 C 48.7 41.9 50.1 42.8 51.7 42.8 C 52.8 42.8 53.8 42.4 54.1 41.3 C 54.1 41.3 56.7 41.3 56.7 41.3 C 56.2 43.9 53.9 45.2 51.5 45.2 C 48.7 45.2 46 43.3 46 39.2 C 46 35.2 48.6 33.2 51.6 33.2 C 54.4 33.2 56.7 35 56.7 38.9 C 56.74 38.89 56.7 40 56.7 40 C 56.7 40 48.68 40.03 48.7 40 Z M 48.7 38 C 48.7 38 54 38 54 38 C 54 36.5 52.9 35.6 51.5 35.6 C 50.2 35.6 49 36.3 48.7 38 Z M 68.9 37.5 C 68.92 37.51 68.9 45 68.9 45 L 66.1 45 C 66.1 45 66.13 37.76 66.1 37.8 C 66.1 36.5 65.4 35.7 64.1 35.7 C 62.5 35.7 61.5 36.8 61.5 38.7 C 61.53 38.72 61.5 45 61.5 45 L 58.7 45 L 58.7 33.4 L 61.5 33.4 C 61.5 33.4 61.51 35.07 61.5 35.1 C 62.2 34 63.1 33.2 65 33.2 C 67.7 33.2 68.9 34.7 68.9 37.5 Z M 76.4 45.2 C 72.6 45.2 70.8 42.3 70.8 39.2 C 70.8 36.1 72.6 33.2 76.4 33.2 C 79.3 33.2 81.4 34.8 81.5 37.6 C 81.5 37.6 78.8 37.6 78.8 37.6 C 78.7 36.5 77.9 35.7 76.5 35.7 C 74.5 35.7 73.6 37.4 73.6 39.2 C 73.6 41.1 74.5 42.6 76.5 42.6 C 77.8 42.6 78.6 41.9 78.8 40.9 C 78.8 40.9 81.6 40.9 81.6 40.9 C 81.2 43.7 79.2 45.2 76.4 45.2 Z M 83.5 31.9 L 86.5 31.9 L 86.5 28.7 L 83.5 28.7 L 83.5 31.9 Z M 83.6 33.4 L 86.4 33.4 L 86.4 45 L 83.6 45 L 83.6 33.4 Z M 98.4 37.2 C 98.36 37.19 98.4 45 98.4 45 L 95.6 45 C 95.6 45 95.63 43.3 95.6 43.3 C 94.7 44.8 93.3 45.2 92.1 45.2 C 90.3 45.2 88.4 44.1 88.4 41.6 C 88.4 39.8 89.4 38.6 92.1 38.2 C 92.1 38.2 94.6 37.8 94.6 37.8 C 95.3 37.7 95.7 37.5 95.7 36.8 C 95.7 35.8 94.9 35.4 93.8 35.4 C 92.3 35.4 91.6 36.1 91.5 37.1 C 91.5 37.1 88.8 37.1 88.8 37.1 C 89.1 34.4 91.3 33.2 93.9 33.2 C 96.6 33.2 98.4 34.5 98.4 37.2 Z M 95.7 40.1 C 95.7 40.1 95.7 39.5 95.7 39.5 C 95.4 39.6 94.9 39.8 94.3 39.8 C 94.3 39.8 93 40 93 40 C 91.6 40.2 91.2 40.8 91.2 41.5 C 91.2 42.4 91.8 42.9 92.8 42.9 C 94.2 42.9 95.7 41.8 95.7 40.1 Z M 103.7 45 L 100.9 45 L 100.9 29 L 103.7 29 L 103.7 45 Z M 108.4 40 C 108.4 41.9 109.8 42.8 111.4 42.8 C 112.5 42.8 113.5 42.4 113.8 41.3 C 113.8 41.3 116.4 41.3 116.4 41.3 C 115.9 43.9 113.6 45.2 111.2 45.2 C 108.4 45.2 105.7 43.3 105.7 39.2 C 105.7 35.2 108.3 33.2 111.3 33.2 C 114.1 33.2 116.4 35 116.4 38.9 C 116.44 38.89 116.4 40 116.4 40 C 116.4 40 108.38 40.03 108.4 40 Z M 108.4 38 C 108.4 38 113.7 38 113.7 38 C 113.7 36.5 112.6 35.6 111.2 35.6 C 109.9 35.6 108.7 36.3 108.4 38 Z M 127.7 41.4 C 127.7 44 125.4 45.2 122.8 45.2 C 120.4 45.2 117.8 44.2 117.6 41.3 C 117.6 41.3 120.4 41.3 120.4 41.3 C 120.6 42.4 121.6 42.9 122.9 42.9 C 124.1 42.9 124.9 42.5 124.9 41.7 C 124.9 40.9 124.4 40.8 122.8 40.5 C 120.5 40.1 118 39.7 118 36.9 C 118 34.3 120.2 33.2 122.6 33.2 C 125.3 33.2 127.3 34.5 127.4 37.1 C 127.4 37.1 124.7 37.1 124.7 37.1 C 124.6 36 123.8 35.5 122.6 35.5 C 121.2 35.5 120.7 36.1 120.7 36.8 C 120.7 37.7 121.7 37.9 123.1 38.1 C 125.2 38.4 127.7 38.7 127.7 41.4 Z M 145.1 45 L 142.3 45 C 142.3 45 142.34 43.2 142.3 43.2 C 141.7 44.5 140.4 45.2 138.8 45.2 C 136.1 45.2 133.7 43.2 133.7 39.2 C 133.7 35.2 136.1 33.2 138.8 33.2 C 140.3 33.2 141.6 33.8 142.3 34.9 C 142.27 34.92 142.3 29 142.3 29 L 145.1 29 L 145.1 45 Z M 142.4 39.2 C 142.4 36.8 140.9 35.7 139.4 35.7 C 137.9 35.7 136.5 36.8 136.5 39.2 C 136.5 41.5 137.9 42.7 139.4 42.7 C 140.9 42.7 142.4 41.5 142.4 39.2 Z M 149.8 40 C 149.8 41.9 151.2 42.8 152.8 42.8 C 153.8 42.8 154.9 42.4 155.2 41.3 C 155.2 41.3 157.8 41.3 157.8 41.3 C 157.3 43.9 155 45.2 152.6 45.2 C 149.8 45.2 147.1 43.3 147.1 39.2 C 147.1 35.2 149.7 33.2 152.6 33.2 C 155.5 33.2 157.8 35 157.8 38.9 C 157.83 38.89 157.8 40 157.8 40 C 157.8 40 149.77 40.03 149.8 40 Z M 149.8 38 C 149.8 38 155.1 38 155.1 38 C 155.1 36.5 154 35.6 152.6 35.6 C 151.3 35.6 150.1 36.3 149.8 38 Z M 169.6 45.2 C 165.8 45.2 163.9 42.3 163.9 39.2 C 163.9 36.1 165.7 33.2 169.5 33.2 C 172.4 33.2 174.6 34.8 174.7 37.6 C 174.7 37.6 171.9 37.6 171.9 37.6 C 171.8 36.5 171 35.7 169.6 35.7 C 167.6 35.7 166.7 37.4 166.7 39.2 C 166.7 41.1 167.6 42.6 169.6 42.6 C 170.9 42.6 171.8 41.9 171.9 40.9 C 171.9 40.9 174.7 40.9 174.7 40.9 C 174.4 43.7 172.3 45.2 169.6 45.2 Z M 183.3 36 C 183.3 36 182.55 35.97 182.6 36 C 180.6 36 179.5 37 179.5 39.3 C 179.53 39.31 179.5 45 179.5 45 L 176.7 45 L 176.7 33.4 L 179.5 33.4 C 179.5 33.4 179.51 35.05 179.5 35 C 180.1 33.8 181.2 33.3 182.5 33.3 C 182.53 33.26 183.3 33.3 183.3 33.3 L 183.3 36 Z M 188.1 31.3 L 191.2 26.3 L 193.4 28 L 190.4 31.3 L 188.1 31.3 Z M 186.4 40 C 186.5 41.9 187.8 42.8 189.4 42.8 C 190.5 42.8 191.5 42.4 191.9 41.3 C 191.9 41.3 194.4 41.3 194.4 41.3 C 193.9 43.9 191.6 45.2 189.3 45.2 C 186.5 45.2 183.7 43.3 183.7 39.2 C 183.7 35.2 186.3 33.2 189.3 33.2 C 192.1 33.2 194.5 35 194.5 38.9 C 194.48 38.89 194.5 40 194.5 40 C 194.5 40 186.42 40.03 186.4 40 Z M 186.5 38 C 186.5 38 191.7 38 191.7 38 C 191.7 36.5 190.7 35.6 189.3 35.6 C 188 35.6 186.7 36.3 186.5 38 Z M 207.1 45 L 204.4 45 C 204.4 45 204.39 43.2 204.4 43.2 C 203.8 44.5 202.4 45.2 200.8 45.2 C 198.1 45.2 195.7 43.2 195.7 39.2 C 195.7 35.2 198.1 33.2 200.8 33.2 C 202.3 33.2 203.6 33.8 204.3 34.9 C 204.33 34.92 204.3 29 204.3 29 L 207.1 29 L 207.1 45 Z M 204.4 39.2 C 204.4 36.8 203 35.7 201.5 35.7 C 200 35.7 198.6 36.8 198.6 39.2 C 198.6 41.5 200 42.7 201.5 42.7 C 203 42.7 204.4 41.5 204.4 39.2 Z M 209.7 31.9 L 212.7 31.9 L 212.7 28.7 L 209.7 28.7 L 209.7 31.9 Z M 209.8 33.4 L 212.6 33.4 L 212.6 45 L 209.8 45 L 209.8 33.4 Z M 221.3 45 C 221.3 45 219.43 44.98 219.4 45 C 217.3 45 215.9 44.3 215.9 41.2 C 215.88 41.2 215.9 35.9 215.9 35.9 L 213.8 35.9 L 213.8 33.4 L 215.9 33.4 L 215.9 30.8 L 218.7 30 L 218.7 33.4 L 221 33.4 L 221 35.9 L 218.7 35.9 C 218.7 35.9 218.67 41.33 218.7 41.3 C 218.7 42 218.9 42.5 219.8 42.5 C 219.85 42.5 221.3 42.5 221.3 42.5 L 221.3 45 Z M 233.4 39.2 C 233.4 43 231 45.2 227.7 45.2 C 224.5 45.2 222.1 43 222.1 39.2 C 222.1 35.4 224.5 33.2 227.7 33.2 C 231 33.2 233.4 35.4 233.4 39.2 Z M 224.9 39.2 C 224.9 41.5 226.2 42.6 227.8 42.6 C 229.4 42.6 230.6 41.4 230.6 39.2 C 230.6 36.9 229.3 35.8 227.7 35.8 C 226.1 35.8 224.9 37 224.9 39.2 Z M 238.2 39.4 C 238.2 36.7 239.5 36.2 240.8 35.3 C 241.8 34.6 242.2 34 242.2 33.2 C 242.2 32 241.4 31.4 240.2 31.4 C 238.7 31.4 237.8 32.2 237.7 33.6 C 237.7 33.6 234.9 33.6 234.9 33.6 C 235.2 30.2 237.6 29 240.2 29 C 243 29 245.2 30.3 245.2 33.1 C 245.2 35.3 243.8 36.2 242.4 37.2 C 241.4 38 240.8 38.5 240.8 39.4 C 240.85 39.44 240.8 40.1 240.8 40.1 L 238.2 40.1 C 238.2 40.1 238.18 39.35 238.2 39.4 Z M 237.9 41.7 L 241.1 41.7 L 241.1 45 L 237.9 45 L 237.9 41.7 Z M 259.5 37.4 L 256.4 37.4 L 256.4 34.1 L 259.5 34.1 L 259.5 37.4 Z M 259.3 39.8 C 259.3 42.4 258 42.9 256.7 43.8 C 255.7 44.5 255.3 45.1 255.3 45.9 C 255.3 47.1 256.1 47.7 257.3 47.7 C 258.8 47.7 259.7 46.9 259.8 45.5 C 259.8 45.5 262.6 45.5 262.6 45.5 C 262.3 48.9 259.9 50.1 257.3 50.1 C 254.5 50.1 252.3 48.8 252.3 46 C 252.3 43.8 253.6 42.9 255.1 41.9 C 256.1 41.1 256.6 40.6 256.6 39.7 C 256.64 39.67 256.6 39 256.6 39 L 259.3 39 C 259.3 39 259.31 39.75 259.3 39.8 Z M 264.6 45 L 264.6 29.2 L 275.2 29.2 L 275.2 32 L 267.5 32 L 267.5 35.6 L 274.8 35.6 L 274.8 38.4 L 267.5 38.4 L 267.5 42.2 L 275.6 42.2 L 275.6 45 L 264.6 45 Z M 286.9 41.4 C 286.9 44 284.5 45.2 281.9 45.2 C 279.5 45.2 276.9 44.2 276.8 41.3 C 276.8 41.3 279.6 41.3 279.6 41.3 C 279.8 42.4 280.8 42.9 282.1 42.9 C 283.3 42.9 284.1 42.5 284.1 41.7 C 284.1 40.9 283.6 40.8 282 40.5 C 279.7 40.1 277.1 39.7 277.1 36.9 C 277.1 34.3 279.3 33.2 281.7 33.2 C 284.4 33.2 286.4 34.5 286.6 37.1 C 286.6 37.1 283.9 37.1 283.9 37.1 C 283.7 36 282.9 35.5 281.8 35.5 C 280.4 35.5 279.8 36.1 279.8 36.8 C 279.8 37.7 280.9 37.9 282.3 38.1 C 284.3 38.4 286.9 38.7 286.9 41.4 Z M 296.8 45 L 294 45 L 294 29 L 296.8 29 L 296.8 45 Z M 308.8 37.2 C 308.78 37.19 308.8 45 308.8 45 L 306.1 45 C 306.1 45 306.05 43.3 306.1 43.3 C 305.1 44.8 303.8 45.2 302.5 45.2 C 300.7 45.2 298.8 44.1 298.8 41.6 C 298.8 39.8 299.8 38.6 302.5 38.2 C 302.5 38.2 305 37.8 305 37.8 C 305.7 37.7 306.2 37.5 306.2 36.8 C 306.2 35.8 305.3 35.4 304.2 35.4 C 302.7 35.4 302 36.1 301.9 37.1 C 301.9 37.1 299.2 37.1 299.2 37.1 C 299.5 34.4 301.7 33.2 304.3 33.2 C 307.1 33.2 308.8 34.5 308.8 37.2 Z M 306.1 40.1 C 306.1 40.1 306.1 39.5 306.1 39.5 C 305.8 39.6 305.3 39.8 304.7 39.8 C 304.7 39.8 303.4 40 303.4 40 C 302 40.2 301.6 40.8 301.6 41.5 C 301.6 42.4 302.2 42.9 303.2 42.9 C 304.6 42.9 306.1 41.8 306.1 40.1 Z " stroke="none" fill="#000"/>  </g>  <g id="Polygon10290">    <path d="M 7.9 12.2 L 4.7 12.2 L 4.7 8.9 L 7.9 8.9 L 7.9 12.2 Z M 7.6 14.6 C 7.6 17.2 6.3 17.7 5 18.6 C 4 19.3 3.6 19.9 3.6 20.7 C 3.6 21.9 4.4 22.5 5.6 22.5 C 7.1 22.5 8 21.7 8.1 20.3 C 8.1 20.3 10.9 20.3 10.9 20.3 C 10.6 23.7 8.2 24.9 5.6 24.9 C 2.8 24.9 0.6 23.6 0.6 20.8 C 0.6 18.6 2 17.7 3.4 16.7 C 4.5 15.9 5 15.4 5 14.5 C 4.96 14.47 5 13.8 5 13.8 L 7.6 13.8 C 7.6 13.8 7.62 14.55 7.6 14.6 Z M 24.3 18.5 C 24.28 18.52 26.6 22.6 26.6 22.6 L 23.5 22.6 C 23.5 22.6 21.9 19.8 21.9 19.8 C 21.1 20.1 20.3 20.2 19.4 20.2 C 14.8 20.2 11.5 16.4 11.5 11.9 C 11.5 7.4 14.7 3.7 19.4 3.7 C 24.2 3.7 27.3 7.4 27.3 11.9 C 27.3 14.6 26.3 17 24.3 18.5 Z M 19.6 17.4 C 19.8 17.4 20.1 17.3 20.3 17.3 C 20.35 17.32 17.7 12.8 17.7 12.8 L 20.8 12.8 C 20.8 12.8 22.78 16.15 22.8 16.1 C 23.9 15.1 24.4 13.6 24.4 11.9 C 24.4 8.8 22.6 6.5 19.5 6.5 C 16.4 6.5 14.5 8.8 14.5 12 C 14.5 15 16.3 17.4 19.6 17.4 Z M 39.7 19.8 L 36.9 19.8 C 36.9 19.8 36.94 18.14 36.9 18.1 C 36.3 19.2 35.2 19.9 33.6 19.9 C 31.2 19.9 29.4 18.4 29.4 15.4 C 29.42 15.39 29.4 8.2 29.4 8.2 L 32.2 8.2 C 32.2 8.2 32.21 15.18 32.2 15.2 C 32.2 16.8 33 17.4 34.2 17.4 C 35.7 17.4 36.9 16.5 36.9 13.8 C 36.88 13.8 36.9 8.2 36.9 8.2 L 39.7 8.2 L 39.7 19.8 Z M 46 6.1 L 49.2 1.1 L 51.4 2.8 L 48.4 6.1 L 46 6.1 Z M 44.4 14.8 C 44.4 16.7 45.8 17.6 47.4 17.6 C 48.4 17.6 49.5 17.2 49.8 16.1 C 49.8 16.1 52.4 16.1 52.4 16.1 C 51.9 18.7 49.6 20 47.2 20 C 44.4 20 41.7 18.1 41.7 14 C 41.7 10 44.3 8 47.2 8 C 50.1 8 52.4 9.8 52.4 13.7 C 52.44 13.69 52.4 14.8 52.4 14.8 C 52.4 14.8 44.37 14.83 44.4 14.8 Z M 44.4 12.8 C 44.4 12.8 49.7 12.8 49.7 12.8 C 49.7 11.3 48.6 10.4 47.2 10.4 C 45.9 10.4 44.7 11.1 44.4 12.8 Z M 71.1 13.8 C 71.1 18 68.5 19.9 65.8 19.9 C 64.2 19.9 63.1 19.2 62.5 18.4 C 62.47 18.4 62.5 24.1 62.5 24.1 L 59.7 24.1 L 59.7 8.2 L 62.4 8.2 C 62.4 8.2 62.41 10.04 62.4 10 C 63 8.8 64.3 8 66 8 C 68.7 8 71.1 9.9 71.1 13.8 Z M 68.2 14 C 68.2 11.6 66.8 10.5 65.3 10.5 C 63.8 10.5 62.4 11.6 62.4 14 C 62.4 16.3 63.8 17.4 65.3 17.4 C 66.8 17.4 68.2 16.3 68.2 14 Z M 83.2 19.8 L 80.5 19.8 C 80.5 19.8 80.47 18.14 80.5 18.1 C 79.8 19.2 78.7 19.9 77.1 19.9 C 74.7 19.9 73 18.4 73 15.4 C 72.95 15.39 73 8.2 73 8.2 L 75.7 8.2 C 75.7 8.2 75.75 15.18 75.7 15.2 C 75.7 16.8 76.5 17.4 77.7 17.4 C 79.3 17.4 80.4 16.5 80.4 13.8 C 80.41 13.8 80.4 8.2 80.4 8.2 L 83.2 8.2 L 83.2 19.8 Z M 87.9 14.8 C 88 16.7 89.3 17.6 90.9 17.6 C 92 17.6 93 17.2 93.4 16.1 C 93.4 16.1 95.9 16.1 95.9 16.1 C 95.4 18.7 93.1 20 90.8 20 C 88 20 85.2 18.1 85.2 14 C 85.2 10 87.8 8 90.8 8 C 93.6 8 96 9.8 96 13.7 C 95.97 13.69 96 14.8 96 14.8 C 96 14.8 87.91 14.83 87.9 14.8 Z M 88 12.8 C 88 12.8 93.2 12.8 93.2 12.8 C 93.2 11.3 92.2 10.4 90.7 10.4 C 89.5 10.4 88.2 11.1 88 12.8 Z M 108.6 19.8 L 105.9 19.8 C 105.9 19.8 105.88 18 105.9 18 C 105.3 19.3 103.9 20 102.3 20 C 99.6 20 97.2 18 97.2 14 C 97.2 10 99.6 8 102.3 8 C 103.8 8 105.1 8.6 105.8 9.7 C 105.82 9.72 105.8 3.8 105.8 3.8 L 108.6 3.8 L 108.6 19.8 Z M 105.9 14 C 105.9 11.6 104.5 10.5 103 10.5 C 101.5 10.5 100.1 11.6 100.1 14 C 100.1 16.3 101.5 17.5 103 17.5 C 104.5 17.5 105.9 16.3 105.9 14 Z M 113.3 14.8 C 113.4 16.7 114.7 17.6 116.3 17.6 C 117.4 17.6 118.4 17.2 118.8 16.1 C 118.8 16.1 121.3 16.1 121.3 16.1 C 120.8 18.7 118.5 20 116.2 20 C 113.4 20 110.6 18.1 110.6 14 C 110.6 10 113.2 8 116.2 8 C 119 8 121.4 9.8 121.4 13.7 C 121.38 13.69 121.4 14.8 121.4 14.8 C 121.4 14.8 113.32 14.83 113.3 14.8 Z M 113.4 12.8 C 113.4 12.8 118.6 12.8 118.6 12.8 C 118.6 11.3 117.6 10.4 116.2 10.4 C 114.9 10.4 113.6 11.1 113.4 12.8 Z M 128.5 6.7 L 131.5 6.7 L 131.5 3.5 L 128.5 3.5 L 128.5 6.7 Z M 128.6 8.2 L 131.4 8.2 L 131.4 19.8 L 128.6 19.8 L 128.6 8.2 Z M 150.5 12 C 150.46 11.97 150.5 19.8 150.5 19.8 L 147.7 19.8 C 147.7 19.8 147.67 12.52 147.7 12.5 C 147.7 11.1 147 10.5 145.9 10.5 C 144.5 10.5 143.7 11.3 143.7 13.3 C 143.68 13.27 143.7 19.8 143.7 19.8 L 140.9 19.8 C 140.9 19.8 140.89 12.52 140.9 12.5 C 140.9 11.1 140.2 10.5 139.1 10.5 C 137.8 10.5 136.9 11.3 136.9 13.3 C 136.9 13.25 136.9 19.8 136.9 19.8 L 134.1 19.8 L 134.1 8.2 L 136.9 8.2 C 136.9 8.2 136.86 9.89 136.9 9.9 C 137.2 9 138.1 8 139.9 8 C 141.3 8 142.5 8.7 143.1 9.9 C 143.5 9.1 144.3 8 146.4 8 C 148.9 8 150.5 9.5 150.5 12 Z M 164.5 13.8 C 164.5 18 161.9 19.9 159.2 19.9 C 157.6 19.9 156.5 19.2 155.9 18.4 C 155.88 18.4 155.9 24.1 155.9 24.1 L 153.1 24.1 L 153.1 8.2 L 155.8 8.2 C 155.8 8.2 155.82 10.04 155.8 10 C 156.4 8.8 157.7 8 159.4 8 C 162.1 8 164.5 9.9 164.5 13.8 Z M 161.6 14 C 161.6 11.6 160.2 10.5 158.7 10.5 C 157.2 10.5 155.8 11.6 155.8 14 C 155.8 16.3 157.2 17.4 158.7 17.4 C 160.2 17.4 161.6 16.3 161.6 14 Z M 176.6 19.8 L 173.9 19.8 C 173.9 19.8 173.88 18.14 173.9 18.1 C 173.2 19.2 172.2 19.9 170.5 19.9 C 168.1 19.9 166.4 18.4 166.4 15.4 C 166.36 15.39 166.4 8.2 166.4 8.2 L 169.2 8.2 C 169.2 8.2 169.15 15.18 169.2 15.2 C 169.2 16.8 169.9 17.4 171.1 17.4 C 172.7 17.4 173.8 16.5 173.8 13.8 C 173.82 13.8 173.8 8.2 173.8 8.2 L 176.6 8.2 L 176.6 19.8 Z M 182.1 19.8 L 179.3 19.8 L 179.3 3.8 L 182.1 3.8 L 182.1 19.8 Z M 194.1 16.2 C 194.1 18.8 191.8 20 189.2 20 C 186.8 20 184.2 19 184 16.1 C 184 16.1 186.8 16.1 186.8 16.1 C 187 17.2 188.1 17.7 189.4 17.7 C 190.5 17.7 191.4 17.3 191.4 16.5 C 191.4 15.7 190.8 15.6 189.2 15.3 C 187 14.9 184.4 14.5 184.4 11.7 C 184.4 9.1 186.6 8 189 8 C 191.7 8 193.7 9.3 193.8 11.9 C 193.8 11.9 191.1 11.9 191.1 11.9 C 191 10.8 190.2 10.3 189 10.3 C 187.6 10.3 187.1 10.9 187.1 11.6 C 187.1 12.5 188.1 12.7 189.5 12.9 C 191.6 13.2 194.1 13.5 194.1 16.2 Z M 205.3 12 C 205.27 11.99 205.3 19.8 205.3 19.8 L 202.5 19.8 C 202.5 19.8 202.54 18.1 202.5 18.1 C 201.6 19.6 200.3 20 199 20 C 197.2 20 195.3 18.9 195.3 16.4 C 195.3 14.6 196.3 13.4 199 13 C 199 13 201.5 12.6 201.5 12.6 C 202.2 12.5 202.6 12.3 202.6 11.6 C 202.6 10.6 201.8 10.2 200.7 10.2 C 199.2 10.2 198.5 10.9 198.4 11.9 C 198.4 11.9 195.7 11.9 195.7 11.9 C 196 9.2 198.2 8 200.8 8 C 203.6 8 205.3 9.3 205.3 12 Z M 202.6 14.9 C 202.6 14.9 202.6 14.3 202.6 14.3 C 202.3 14.4 201.8 14.6 201.2 14.6 C 201.2 14.6 199.9 14.8 199.9 14.8 C 198.5 15 198.1 15.6 198.1 16.3 C 198.1 17.2 198.7 17.7 199.7 17.7 C 201.1 17.7 202.6 16.6 202.6 14.9 Z M 214.3 10.8 C 214.3 10.8 213.61 10.77 213.6 10.8 C 211.7 10.8 210.6 11.8 210.6 14.1 C 210.59 14.11 210.6 19.8 210.6 19.8 L 207.8 19.8 L 207.8 8.2 L 210.6 8.2 C 210.6 8.2 210.56 9.85 210.6 9.8 C 211.2 8.6 212.2 8.1 213.6 8.1 C 213.59 8.06 214.3 8.1 214.3 8.1 L 214.3 10.8 Z M 230 12 C 230.01 11.99 230 19.8 230 19.8 L 227.3 19.8 C 227.3 19.8 227.28 18.1 227.3 18.1 C 226.4 19.6 225 20 223.8 20 C 221.9 20 220 18.9 220 16.4 C 220 14.6 221 13.4 223.7 13 C 223.7 13 226.2 12.6 226.2 12.6 C 226.9 12.5 227.4 12.3 227.4 11.6 C 227.4 10.6 226.5 10.2 225.4 10.2 C 223.9 10.2 223.3 10.9 223.2 11.9 C 223.2 11.9 220.5 11.9 220.5 11.9 C 220.8 9.2 222.9 8 225.6 8 C 228.3 8 230 9.3 230 12 Z M 227.3 14.9 C 227.3 14.9 227.3 14.3 227.3 14.3 C 227 14.4 226.5 14.6 225.9 14.6 C 225.9 14.6 224.7 14.8 224.7 14.8 C 223.3 15 222.8 15.6 222.8 16.3 C 222.8 17.2 223.5 17.7 224.4 17.7 C 225.9 17.7 227.3 16.6 227.3 14.9 Z M 235.3 19.8 L 232.5 19.8 L 232.5 3.8 L 235.3 3.8 L 235.3 19.8 Z M 253 12 C 252.98 11.99 253 19.8 253 19.8 L 250.3 19.8 C 250.3 19.8 250.25 18.1 250.3 18.1 C 249.4 19.6 248 20 246.7 20 C 244.9 20 243 18.9 243 16.4 C 243 14.6 244 13.4 246.7 13 C 246.7 13 249.2 12.6 249.2 12.6 C 249.9 12.5 250.4 12.3 250.4 11.6 C 250.4 10.6 249.5 10.2 248.4 10.2 C 246.9 10.2 246.2 10.9 246.1 11.9 C 246.1 11.9 243.4 11.9 243.4 11.9 C 243.7 9.2 245.9 8 248.5 8 C 251.3 8 253 9.3 253 12 Z M 250.3 14.9 C 250.3 14.9 250.3 14.3 250.3 14.3 C 250 14.4 249.5 14.6 248.9 14.6 C 248.9 14.6 247.6 14.8 247.6 14.8 C 246.2 15 245.8 15.6 245.8 16.3 C 245.8 17.2 246.4 17.7 247.4 17.7 C 248.8 17.7 250.3 16.6 250.3 14.9 Z M 258.3 19.8 L 255.5 19.8 L 255.5 3.8 L 258.3 3.8 L 258.3 19.8 Z M 270.1 19.8 L 260.3 19.8 L 260.3 17.3 L 266.5 10.6 L 260.4 10.6 L 260.4 8.2 L 270.1 8.2 L 270.1 10.6 L 263.9 17.3 L 270.1 17.3 L 270.1 19.8 Z M 281.6 12 C 281.56 11.99 281.6 19.8 281.6 19.8 L 278.8 19.8 C 278.8 19.8 278.83 18.1 278.8 18.1 C 277.9 19.6 276.5 20 275.3 20 C 273.5 20 271.6 18.9 271.6 16.4 C 271.6 14.6 272.6 13.4 275.3 13 C 275.3 13 277.8 12.6 277.8 12.6 C 278.5 12.5 278.9 12.3 278.9 11.6 C 278.9 10.6 278.1 10.2 277 10.2 C 275.5 10.2 274.8 10.9 274.7 11.9 C 274.7 11.9 272 11.9 272 11.9 C 272.3 9.2 274.5 8 277.1 8 C 279.8 8 281.6 9.3 281.6 12 Z M 278.9 14.9 C 278.9 14.9 278.9 14.3 278.9 14.3 C 278.6 14.4 278.1 14.6 277.5 14.6 C 277.5 14.6 276.2 14.8 276.2 14.8 C 274.8 15 274.4 15.6 274.4 16.3 C 274.4 17.2 275 17.7 276 17.7 C 277.4 17.7 278.9 16.6 278.9 14.9 Z M 292.1 19.8 L 289.3 19.8 L 289.3 3.8 L 292.1 3.8 L 292.1 19.8 Z M 305.4 14 C 305.4 17.8 303 20 299.8 20 C 296.5 20 294.1 17.8 294.1 14 C 294.1 10.2 296.5 8 299.8 8 C 303 8 305.4 10.2 305.4 14 Z M 297 14 C 297 16.3 298.3 17.4 299.8 17.4 C 301.5 17.4 302.6 16.2 302.6 14 C 302.6 11.7 301.3 10.6 299.7 10.6 C 298.1 10.6 297 11.8 297 14 Z M 316.7 16.2 C 316.7 18.8 314.4 20 311.8 20 C 309.4 20 306.8 19 306.6 16.1 C 306.6 16.1 309.4 16.1 309.4 16.1 C 309.6 17.2 310.6 17.7 311.9 17.7 C 313.1 17.7 313.9 17.3 313.9 16.5 C 313.9 15.7 313.4 15.6 311.8 15.3 C 309.5 14.9 307 14.5 307 11.7 C 307 9.1 309.2 8 311.6 8 C 314.3 8 316.3 9.3 316.4 11.9 C 316.4 11.9 313.7 11.9 313.7 11.9 C 313.6 10.8 312.8 10.3 311.6 10.3 C 310.2 10.3 309.7 10.9 309.7 11.6 C 309.7 12.5 310.7 12.7 312.1 12.9 C 314.2 13.2 316.7 13.5 316.7 16.2 Z " stroke="none" fill="#000"/>  </g></svg>