<?xml version="1.0" standalone="no"?><!DOCTYPE svg PUBLIC "-//W3C//DTD SVG 1.1//EN" "http://www.w3.org/Graphics/SVG/1.1/DTD/svg11.dtd"><svg xmlns="http://www.w3.org/2000/svg" version="1.1" width="872px" height="85.4px" viewBox="0 0 872 85.4">  <desc>Im Rahmen unserer Bottom-up-Strategie entwickeln wir ein fundiertes Verst ndnis unserer Anlagen und investieren so mi</desc>  <defs/>  <g id="Polygon11991">    <path d="M 9.1 45 C 9.1 45 9.09 42.84 9.1 42.8 C 8.3 44.4 6.9 45.1 5.3 45.1 C 3.2 45.1 1.6 43.8 1.6 41.2 C 1.57 41.16 1.6 33.7 1.6 33.7 L 3.1 33.7 C 3.1 33.7 3.11 40.97 3.1 41 C 3.1 42.8 4.1 43.8 5.6 43.8 C 7.4 43.8 9 42.4 9 39.5 C 9.03 39.54 9 33.7 9 33.7 L 10.6 33.7 L 10.6 45 L 9.1 45 Z M 23.1 37.3 C 23.08 37.25 23.1 45 23.1 45 L 21.5 45 C 21.5 45 21.55 37.44 21.5 37.4 C 21.5 35.9 20.7 34.9 19.1 34.9 C 17.1 34.9 15.5 36.3 15.5 39.1 C 15.46 39.06 15.5 45 15.5 45 L 13.9 45 L 13.9 33.7 L 15.5 33.7 C 15.5 33.7 15.46 35.8 15.5 35.8 C 16.1 34.5 17.4 33.5 19.4 33.5 C 21.6 33.5 23.1 34.8 23.1 37.3 Z M 34.7 41.8 C 34.7 44.1 32.6 45.2 30.4 45.2 C 28 45.2 25.7 44 25.5 41.5 C 25.5 41.5 27.1 41.5 27.1 41.5 C 27.4 43.2 28.9 43.8 30.4 43.8 C 31.8 43.8 33.1 43.3 33.1 42 C 33.1 40.7 31.8 40.4 30.5 40.2 C 28.3 39.8 25.8 39.4 25.8 36.8 C 25.8 34.6 27.7 33.5 30 33.5 C 32.4 33.5 34.3 34.6 34.4 36.9 C 34.4 36.9 32.8 36.9 32.8 36.9 C 32.7 35.5 31.4 34.9 29.9 34.9 C 28.4 34.9 27.4 35.6 27.4 36.7 C 27.4 38.2 28.7 38.4 30.4 38.7 C 32.5 39 34.7 39.3 34.7 41.8 Z M 38 39.7 C 38.1 42.5 39.8 43.8 41.8 43.8 C 43.3 43.8 44.7 43.1 45.1 41.5 C 45.1 41.5 46.5 41.5 46.5 41.5 C 46 44.1 43.8 45.2 41.7 45.2 C 39 45.2 36.5 43.4 36.5 39.4 C 36.5 35.3 39 33.5 41.7 33.5 C 44.4 33.5 46.6 35.2 46.6 39 C 46.6 38.95 46.6 39.7 46.6 39.7 C 46.6 39.7 38.01 39.71 38 39.7 Z M 38.1 38.4 C 38.1 38.4 45 38.4 45 38.4 C 45 36.1 43.6 34.9 41.7 34.9 C 39.9 34.9 38.3 36 38.1 38.4 Z M 54.9 35 C 54.9 35 54.49 35.03 54.5 35 C 52.1 35 50.8 36.4 50.8 39 C 50.76 39 50.8 45 50.8 45 L 49.2 45 L 49.2 33.7 L 50.7 33.7 C 50.7 33.7 50.74 35.78 50.7 35.8 C 51.3 34.3 52.6 33.6 54.4 33.6 C 54.37 33.58 54.9 33.6 54.9 33.6 L 54.9 35 Z M 57.4 39.7 C 57.5 42.5 59.2 43.8 61.2 43.8 C 62.7 43.8 64.1 43.1 64.5 41.5 C 64.5 41.5 65.9 41.5 65.9 41.5 C 65.4 44.1 63.2 45.2 61.1 45.2 C 58.4 45.2 55.9 43.4 55.9 39.4 C 55.9 35.3 58.4 33.5 61.2 33.5 C 63.8 33.5 66 35.2 66 39 C 66 38.95 66 39.7 66 39.7 C 66 39.7 57.41 39.71 57.4 39.7 Z M 57.5 38.4 C 57.5 38.4 64.4 38.4 64.4 38.4 C 64.4 36.1 63 34.9 61.1 34.9 C 59.3 34.9 57.7 36 57.5 38.4 Z M 74.3 35 C 74.3 35 73.9 35.03 73.9 35 C 71.5 35 70.2 36.4 70.2 39 C 70.16 39 70.2 45 70.2 45 L 68.6 45 L 68.6 33.7 L 70.1 33.7 C 70.1 33.7 70.14 35.78 70.1 35.8 C 70.7 34.3 72 33.6 73.8 33.6 C 73.77 33.58 74.3 33.6 74.3 33.6 L 74.3 35 Z M 90.9 40.5 L 83.4 40.5 L 81.6 45 L 79.9 45 L 86.2 29.2 L 87.9 29.2 L 94.5 45 L 92.7 45 L 90.9 40.5 Z M 87.1 31 L 83.9 39.1 L 90.3 39.1 L 87.1 31 Z M 106 37.3 C 106.05 37.25 106 45 106 45 L 104.5 45 C 104.5 45 104.52 37.44 104.5 37.4 C 104.5 35.9 103.6 34.9 102 34.9 C 100.1 34.9 98.4 36.3 98.4 39.1 C 98.43 39.06 98.4 45 98.4 45 L 96.9 45 L 96.9 33.7 L 98.4 33.7 C 98.4 33.7 98.43 35.8 98.4 35.8 C 99.1 34.5 100.4 33.5 102.3 33.5 C 104.6 33.5 106 34.8 106 37.3 Z M 110.8 45 L 109.3 45 L 109.3 29 L 110.8 29 L 110.8 45 Z M 121.1 42.9 C 120.2 44.6 118.5 45.2 117.1 45.2 C 115.2 45.2 113.5 44.1 113.5 41.9 C 113.5 39.8 115 38.8 116.9 38.6 C 116.9 38.6 119.6 38.2 119.6 38.2 C 120.4 38.1 121.1 37.8 121.1 36.8 C 121.1 35.5 120 34.8 118.4 34.8 C 116.7 34.8 115.7 35.6 115.4 36.9 C 115.4 36.9 113.9 36.9 113.9 36.9 C 114.2 34.6 116 33.5 118.5 33.5 C 121.1 33.5 122.6 34.7 122.6 37.2 C 122.62 37.19 122.6 45 122.6 45 L 121.1 45 C 121.1 45 121.13 42.92 121.1 42.9 Z M 119.3 39.5 C 119.3 39.5 117.5 39.7 117.5 39.7 C 116.1 39.9 115 40.4 115 41.8 C 115 43.2 116.1 43.8 117.4 43.8 C 119.1 43.8 121.1 42.5 121.1 40.1 C 121.1 40.1 121.1 39 121.1 39 C 120.7 39.3 120 39.4 119.3 39.5 Z M 135.5 44.5 C 135.5 47.9 133.3 49.6 130.4 49.6 C 127.9 49.6 125.6 48.3 125.3 45.7 C 125.3 45.7 126.8 45.7 126.8 45.7 C 127.1 47.1 128.1 48.3 130.4 48.3 C 132.4 48.3 134 47.2 134 44.6 C 134 44.6 134 42.3 134 42.3 C 133.2 44 131.5 44.6 130 44.6 C 127.3 44.6 125 42.7 125 39 C 125 35.3 127.4 33.5 130.1 33.5 C 131.9 33.5 133.3 34.3 134 35.5 C 133.96 35.53 134 33.7 134 33.7 L 135.5 33.7 C 135.5 33.7 135.47 44.48 135.5 44.5 Z M 133.9 39 C 133.9 36.2 132.2 34.8 130.3 34.8 C 128.4 34.8 126.5 36.2 126.5 39 C 126.5 41.8 128.3 43.2 130.3 43.2 C 132.1 43.2 133.9 42 133.9 39 Z M 139.5 39.7 C 139.5 42.5 141.3 43.8 143.3 43.8 C 144.8 43.8 146.2 43.1 146.6 41.5 C 146.6 41.5 148 41.5 148 41.5 C 147.5 44.1 145.3 45.2 143.2 45.2 C 140.5 45.2 138 43.4 138 39.4 C 138 35.3 140.5 33.5 143.2 33.5 C 145.9 33.5 148.1 35.2 148.1 39 C 148.09 38.95 148.1 39.7 148.1 39.7 C 148.1 39.7 139.5 39.71 139.5 39.7 Z M 139.5 38.4 C 139.5 38.4 146.5 38.4 146.5 38.4 C 146.5 36.1 145.1 34.9 143.2 34.9 C 141.4 34.9 139.8 36 139.5 38.4 Z M 159.9 37.3 C 159.87 37.25 159.9 45 159.9 45 L 158.3 45 C 158.3 45 158.34 37.44 158.3 37.4 C 158.3 35.9 157.5 34.9 155.9 34.9 C 153.9 34.9 152.2 36.3 152.2 39.1 C 152.25 39.06 152.2 45 152.2 45 L 150.7 45 L 150.7 33.7 L 152.2 33.7 C 152.2 33.7 152.25 35.8 152.2 35.8 C 152.9 34.5 154.2 33.5 156.2 33.5 C 158.4 33.5 159.9 34.8 159.9 37.3 Z M 176.2 45 C 176.2 45 176.21 42.84 176.2 42.8 C 175.4 44.4 174 45.1 172.4 45.1 C 170.3 45.1 168.7 43.8 168.7 41.2 C 168.69 41.16 168.7 33.7 168.7 33.7 L 170.2 33.7 C 170.2 33.7 170.22 40.97 170.2 41 C 170.2 42.8 171.2 43.8 172.7 43.8 C 174.5 43.8 176.1 42.4 176.1 39.5 C 176.15 39.54 176.1 33.7 176.1 33.7 L 177.7 33.7 L 177.7 45 L 176.2 45 Z M 190.2 37.3 C 190.19 37.25 190.2 45 190.2 45 L 188.7 45 C 188.7 45 188.66 37.44 188.7 37.4 C 188.7 35.9 187.8 34.9 186.2 34.9 C 184.3 34.9 182.6 36.3 182.6 39.1 C 182.57 39.06 182.6 45 182.6 45 L 181 45 L 181 33.7 L 182.6 33.7 C 182.6 33.7 182.57 35.8 182.6 35.8 C 183.2 34.5 184.5 33.5 186.5 33.5 C 188.7 33.5 190.2 34.8 190.2 37.3 Z M 203.3 45 L 201.8 45 C 201.8 45 201.79 42.8 201.8 42.8 C 201.2 44.1 199.9 45.2 197.8 45.2 C 194.8 45.2 192.7 42.9 192.7 39.3 C 192.7 35.8 194.8 33.5 197.8 33.5 C 199.7 33.5 201.1 34.4 201.7 35.6 C 201.72 35.62 201.7 29 201.7 29 L 203.3 29 L 203.3 45 Z M 201.7 39.3 C 201.7 36.5 200.1 34.9 198 34.9 C 195.8 34.9 194.3 36.6 194.3 39.3 C 194.3 42.1 195.8 43.8 198 43.8 C 200.2 43.8 201.7 42.1 201.7 39.3 Z M 213.9 29 L 212.2 29 L 212.2 30.9 L 213.9 30.9 L 213.9 29 Z M 213.8 45 L 212.3 45 L 212.3 33.7 L 213.8 33.7 L 213.8 45 Z M 226.3 37.3 C 226.33 37.25 226.3 45 226.3 45 L 224.8 45 C 224.8 45 224.8 37.44 224.8 37.4 C 224.8 35.9 223.9 34.9 222.3 34.9 C 220.4 34.9 218.7 36.3 218.7 39.1 C 218.71 39.06 218.7 45 218.7 45 L 217.2 45 L 217.2 33.7 L 218.7 33.7 C 218.7 33.7 218.71 35.8 218.7 35.8 C 219.4 34.5 220.6 33.5 222.6 33.5 C 224.9 33.5 226.3 34.8 226.3 37.3 Z M 234.1 45 L 232.4 45 L 228.2 33.7 L 229.9 33.7 L 233.3 43.4 L 236.7 33.7 L 238.3 33.7 L 234.1 45 Z M 240.8 39.7 C 240.9 42.5 242.6 43.8 244.6 43.8 C 246.1 43.8 247.5 43.1 247.9 41.5 C 247.9 41.5 249.3 41.5 249.3 41.5 C 248.8 44.1 246.6 45.2 244.5 45.2 C 241.8 45.2 239.3 43.4 239.3 39.4 C 239.3 35.3 241.9 33.5 244.6 33.5 C 247.2 33.5 249.4 35.2 249.4 39 C 249.41 38.95 249.4 39.7 249.4 39.7 C 249.4 39.7 240.82 39.71 240.8 39.7 Z M 240.9 38.4 C 240.9 38.4 247.9 38.4 247.9 38.4 C 247.9 36.1 246.4 34.9 244.5 34.9 C 242.7 34.9 241.1 36 240.9 38.4 Z M 260.4 41.8 C 260.4 44.1 258.3 45.2 256.1 45.2 C 253.7 45.2 251.4 44 251.2 41.5 C 251.2 41.5 252.8 41.5 252.8 41.5 C 253.1 43.2 254.6 43.8 256.1 43.8 C 257.5 43.8 258.8 43.3 258.8 42 C 258.8 40.7 257.5 40.4 256.2 40.2 C 254 39.8 251.5 39.4 251.5 36.8 C 251.5 34.6 253.4 33.5 255.7 33.5 C 258.1 33.5 260 34.6 260.1 36.9 C 260.1 36.9 258.5 36.9 258.5 36.9 C 258.4 35.5 257.1 34.9 255.7 34.9 C 254.1 34.9 253.1 35.6 253.1 36.7 C 253.1 38.2 254.4 38.4 256.1 38.7 C 258.2 39 260.4 39.3 260.4 41.8 Z M 268.1 45 C 268.1 45 266.42 44.98 266.4 45 C 264.9 45 263.6 44.5 263.6 42 C 263.59 42.02 263.6 35.1 263.6 35.1 L 261.4 35.1 L 261.4 33.7 L 263.6 33.7 L 263.6 30.5 L 265.1 30.1 L 265.1 33.7 L 267.9 33.7 L 267.9 35.1 L 265.1 35.1 C 265.1 35.1 265.12 42 265.1 42 C 265.1 43 265.4 43.6 266.7 43.6 C 266.68 43.6 268.1 43.6 268.1 43.6 L 268.1 45 Z M 271.9 29 L 270.2 29 L 270.2 30.9 L 271.9 30.9 L 271.9 29 Z M 271.8 45 L 270.3 45 L 270.3 33.7 L 271.8 33.7 L 271.8 45 Z M 276 39.7 C 276 42.5 277.7 43.8 279.7 43.8 C 281.2 43.8 282.7 43.1 283 41.5 C 283 41.5 284.5 41.5 284.5 41.5 C 284 44.1 281.8 45.2 279.6 45.2 C 276.9 45.2 274.4 43.4 274.4 39.4 C 274.4 35.3 277 33.5 279.7 33.5 C 282.4 33.5 284.5 35.2 284.5 39 C 284.55 38.95 284.5 39.7 284.5 39.7 C 284.5 39.7 275.96 39.71 276 39.7 Z M 276 38.4 C 276 38.4 283 38.4 283 38.4 C 283 36.1 281.5 34.9 279.6 34.9 C 277.9 34.9 276.2 36 276 38.4 Z M 292.8 35 C 292.8 35 292.44 35.03 292.4 35 C 290 35 288.7 36.4 288.7 39 C 288.7 39 288.7 45 288.7 45 L 287.2 45 L 287.2 33.7 L 288.7 33.7 C 288.7 33.7 288.68 35.78 288.7 35.8 C 289.2 34.3 290.6 33.6 292.3 33.6 C 292.32 33.58 292.8 33.6 292.8 33.6 L 292.8 35 Z M 295.4 39.7 C 295.4 42.5 297.1 43.8 299.1 43.8 C 300.6 43.8 302.1 43.1 302.4 41.5 C 302.4 41.5 303.9 41.5 303.9 41.5 C 303.4 44.1 301.2 45.2 299 45.2 C 296.3 45.2 293.8 43.4 293.8 39.4 C 293.8 35.3 296.4 33.5 299.1 33.5 C 301.8 33.5 303.9 35.2 303.9 39 C 303.95 38.95 303.9 39.7 303.9 39.7 C 303.9 39.7 295.36 39.71 295.4 39.7 Z M 295.4 38.4 C 295.4 38.4 302.4 38.4 302.4 38.4 C 302.4 36.1 300.9 34.9 299 34.9 C 297.3 34.9 295.6 36 295.4 38.4 Z M 315.7 37.3 C 315.73 37.25 315.7 45 315.7 45 L 314.2 45 C 314.2 45 314.2 37.44 314.2 37.4 C 314.2 35.9 313.3 34.9 311.7 34.9 C 309.8 34.9 308.1 36.3 308.1 39.1 C 308.11 39.06 308.1 45 308.1 45 L 306.6 45 L 306.6 33.7 L 308.1 33.7 C 308.1 33.7 308.11 35.8 308.1 35.8 C 308.8 34.5 310 33.5 312 33.5 C 314.3 33.5 315.7 34.8 315.7 37.3 Z M 332.6 41.8 C 332.6 44.1 330.5 45.2 328.3 45.2 C 325.9 45.2 323.6 44 323.4 41.5 C 323.4 41.5 325 41.5 325 41.5 C 325.3 43.2 326.8 43.8 328.3 43.8 C 329.7 43.8 331 43.3 331 42 C 331 40.7 329.7 40.4 328.4 40.2 C 326.2 39.8 323.7 39.4 323.7 36.8 C 323.7 34.6 325.6 33.5 327.9 33.5 C 330.3 33.5 332.2 34.6 332.3 36.9 C 332.3 36.9 330.7 36.9 330.7 36.9 C 330.6 35.5 329.3 34.9 327.8 34.9 C 326.3 34.9 325.3 35.6 325.3 36.7 C 325.3 38.2 326.6 38.4 328.3 38.7 C 330.4 39 332.6 39.3 332.6 41.8 Z M 334.4 39.4 C 334.4 35.7 336.6 33.5 339.7 33.5 C 342.8 33.5 345.1 35.7 345.1 39.4 C 345.1 43 342.9 45.2 339.8 45.2 C 336.6 45.2 334.4 43 334.4 39.4 Z M 343.5 39.3 C 343.5 36.5 341.8 34.9 339.7 34.9 C 337.5 34.9 336 36.6 336 39.4 C 336 42.2 337.7 43.8 339.8 43.8 C 342 43.8 343.5 42.1 343.5 39.3 Z M 353 33.7 L 354.5 33.7 C 354.5 33.7 354.48 35.57 354.5 35.6 C 355.1 34.2 356.3 33.5 357.8 33.5 C 359.4 33.5 360.7 34.4 361.1 35.8 C 361.6 34.6 362.8 33.5 364.8 33.5 C 366.8 33.5 368.4 34.6 368.4 36.9 C 368.44 36.9 368.4 45 368.4 45 L 366.9 45 C 366.9 45 366.91 37.44 366.9 37.4 C 366.9 35.7 365.8 34.9 364.5 34.9 C 362.8 34.9 361.4 36.2 361.4 38.5 C 361.45 38.53 361.4 45 361.4 45 L 359.9 45 C 359.9 45 359.94 37.44 359.9 37.4 C 359.9 35.7 358.9 34.9 357.6 34.9 C 355.9 34.9 354.5 36.1 354.5 38.5 C 354.5 38.53 354.5 45 354.5 45 L 353 45 L 353 33.7 Z M 373.3 29 L 371.6 29 L 371.6 30.9 L 373.3 30.9 L 373.3 29 Z M 373.2 45 L 371.7 45 L 371.7 33.7 L 373.2 33.7 L 373.2 45 Z M 381.7 45 C 381.7 45 380.07 44.98 380.1 45 C 378.6 45 377.2 44.5 377.2 42 C 377.24 42.02 377.2 35.1 377.2 35.1 L 375 35.1 L 375 33.7 L 377.2 33.7 L 377.2 30.5 L 378.8 30.1 L 378.8 33.7 L 381.5 33.7 L 381.5 35.1 L 378.8 35.1 C 378.8 35.1 378.77 42 378.8 42 C 378.8 43 379.1 43.6 380.3 43.6 C 380.33 43.6 381.7 43.6 381.7 43.6 L 381.7 45 Z M 398.6 37.3 C 398.55 37.25 398.6 45 398.6 45 L 397 45 C 397 45 397.02 37.44 397 37.4 C 397 35.9 396.1 34.9 394.5 34.9 C 392.6 34.9 390.9 36.3 390.9 39.1 C 390.93 39.06 390.9 45 390.9 45 L 389.4 45 L 389.4 29 L 390.9 29 C 390.9 29 390.93 35.68 390.9 35.7 C 391.6 34.4 392.8 33.5 394.8 33.5 C 397.1 33.5 398.6 34.8 398.6 37.3 Z M 401.1 39.4 C 401.1 35.7 403.3 33.5 406.4 33.5 C 409.5 33.5 411.8 35.7 411.8 39.4 C 411.8 43 409.5 45.2 406.4 45.2 C 403.3 45.2 401.1 43 401.1 39.4 Z M 410.2 39.3 C 410.2 36.5 408.5 34.9 406.4 34.9 C 404.2 34.9 402.6 36.6 402.6 39.4 C 402.6 42.2 404.3 43.8 406.4 43.8 C 408.6 43.8 410.2 42.1 410.2 39.3 Z M 423.5 37.3 C 423.54 37.25 423.5 45 423.5 45 L 422 45 C 422 45 422.01 37.44 422 37.4 C 422 35.9 421.1 34.9 419.5 34.9 C 417.6 34.9 415.9 36.3 415.9 39.1 C 415.92 39.06 415.9 45 415.9 45 L 414.4 45 L 414.4 29 L 415.9 29 C 415.9 29 415.92 35.68 415.9 35.7 C 416.6 34.4 417.8 33.5 419.8 33.5 C 422.1 33.5 423.5 34.8 423.5 37.3 Z M 427.6 39.7 C 427.6 42.5 429.3 43.8 431.3 43.8 C 432.8 43.8 434.3 43.1 434.6 41.5 C 434.6 41.5 436.1 41.5 436.1 41.5 C 435.6 44.1 433.4 45.2 431.3 45.2 C 428.6 45.2 426.1 43.4 426.1 39.4 C 426.1 35.3 428.6 33.5 431.3 33.5 C 434 33.5 436.2 35.2 436.2 39 C 436.16 38.95 436.2 39.7 436.2 39.7 C 436.2 39.7 427.58 39.71 427.6 39.7 Z M 427.6 38.4 C 427.6 38.4 434.6 38.4 434.6 38.4 C 434.6 36.1 433.1 34.9 431.3 34.9 C 429.5 34.9 427.8 36 427.6 38.4 Z M 444.4 35 C 444.4 35 444.06 35.03 444.1 35 C 441.7 35 440.3 36.4 440.3 39 C 440.32 39 440.3 45 440.3 45 L 438.8 45 L 438.8 33.7 L 440.3 33.7 C 440.3 33.7 440.3 35.78 440.3 35.8 C 440.8 34.3 442.2 33.6 443.9 33.6 C 443.93 33.58 444.4 33.6 444.4 33.6 L 444.4 35 Z M 454.3 27.5 L 454.3 25.5 L 456.1 25.5 L 456.1 27.5 L 454.3 27.5 Z M 458.3 27.5 L 458.3 25.5 L 460.2 25.5 L 460.2 27.5 L 458.3 27.5 Z M 463.2 29.2 C 463.2 29.2 463.19 39.48 463.2 39.5 C 463.2 43.4 460.8 45.4 457.2 45.4 C 453.8 45.4 451.2 43.4 451.2 39.5 C 451.24 39.48 451.2 29.2 451.2 29.2 L 452.8 29.2 C 452.8 29.2 452.84 39.33 452.8 39.3 C 452.8 42.5 454.8 43.9 457.3 43.9 C 459.7 43.9 461.6 42.6 461.6 39.6 C 461.64 39.61 461.6 29.2 461.6 29.2 L 463.2 29.2 Z M 477.1 39.3 C 477.1 42.8 475 45.2 472 45.2 C 470 45.2 468.6 44.1 468 42.9 C 468.02 42.9 468 45 468 45 L 466.6 45 L 466.6 29 L 468.1 29 C 468.1 29 468.08 35.97 468.1 36 C 468.7 34.6 470.1 33.5 472.1 33.5 C 475 33.5 477.1 35.7 477.1 39.3 Z M 475.5 39.4 C 475.5 36.6 474 35 471.8 35 C 469.7 35 468.1 36.6 468.1 39.4 C 468.1 42.2 469.6 43.9 471.8 43.9 C 474 43.9 475.5 42.1 475.5 39.4 Z M 480.5 39.7 C 480.5 42.5 482.2 43.8 484.2 43.8 C 485.7 43.8 487.2 43.1 487.5 41.5 C 487.5 41.5 489 41.5 489 41.5 C 488.5 44.1 486.3 45.2 484.1 45.2 C 481.5 45.2 479 43.4 479 39.4 C 479 35.3 481.5 33.5 484.2 33.5 C 486.9 33.5 489.1 35.2 489.1 39 C 489.06 38.95 489.1 39.7 489.1 39.7 C 489.1 39.7 480.47 39.71 480.5 39.7 Z M 480.5 38.4 C 480.5 38.4 487.5 38.4 487.5 38.4 C 487.5 36.1 486 34.9 484.1 34.9 C 482.4 34.9 480.7 36 480.5 38.4 Z M 497.3 35 C 497.3 35 496.96 35.03 497 35 C 494.6 35 493.2 36.4 493.2 39 C 493.22 39 493.2 45 493.2 45 L 491.7 45 L 491.7 33.7 L 493.2 33.7 C 493.2 33.7 493.2 35.78 493.2 35.8 C 493.7 34.3 495.1 33.6 496.8 33.6 C 496.83 33.58 497.3 33.6 497.3 33.6 L 497.3 35 Z M 498.6 43.6 L 505.7 35.1 L 498.7 35.1 L 498.7 33.7 L 507.6 33.7 L 507.6 35.1 L 500.4 43.6 L 507.5 43.6 L 507.5 45 L 498.6 45 L 498.6 43.6 Z M 510.5 39.7 C 510.6 42.5 512.3 43.8 514.3 43.8 C 515.8 43.8 517.3 43.1 517.6 41.5 C 517.6 41.5 519.1 41.5 519.1 41.5 C 518.5 44.1 516.4 45.2 514.2 45.2 C 511.5 45.2 509 43.4 509 39.4 C 509 35.3 511.6 33.5 514.3 33.5 C 517 33.5 519.1 35.2 519.1 39 C 519.13 38.95 519.1 39.7 519.1 39.7 C 519.1 39.7 510.55 39.71 510.5 39.7 Z M 510.6 38.4 C 510.6 38.4 517.6 38.4 517.6 38.4 C 517.6 36.1 516.1 34.9 514.2 34.9 C 512.5 34.9 510.8 36 510.6 38.4 Z M 529.2 45 C 529.2 45 529.17 42.84 529.2 42.8 C 528.4 44.4 527 45.1 525.4 45.1 C 523.3 45.1 521.7 43.8 521.7 41.2 C 521.65 41.16 521.7 33.7 521.7 33.7 L 523.2 33.7 C 523.2 33.7 523.19 40.97 523.2 41 C 523.2 42.8 524.2 43.8 525.7 43.8 C 527.5 43.8 529.1 42.4 529.1 39.5 C 529.11 39.54 529.1 33.7 529.1 33.7 L 530.6 33.7 L 530.6 45 L 529.2 45 Z M 543.7 44.5 C 543.7 47.9 541.5 49.6 538.6 49.6 C 536.1 49.6 533.9 48.3 533.5 45.7 C 533.5 45.7 535.1 45.7 535.1 45.7 C 535.3 47.1 536.4 48.3 538.6 48.3 C 540.7 48.3 542.2 47.2 542.2 44.6 C 542.2 44.6 542.2 42.3 542.2 42.3 C 541.4 44 539.7 44.6 538.2 44.6 C 535.5 44.6 533.3 42.7 533.3 39 C 533.3 35.3 535.6 33.5 538.3 33.5 C 540.1 33.5 541.5 34.3 542.2 35.5 C 542.19 35.53 542.2 33.7 542.2 33.7 L 543.7 33.7 C 543.7 33.7 543.7 44.48 543.7 44.5 Z M 542.1 39 C 542.1 36.2 540.4 34.8 538.5 34.8 C 536.6 34.8 534.8 36.2 534.8 39 C 534.8 41.8 536.5 43.2 538.5 43.2 C 540.3 43.2 542.1 42 542.1 39 Z M 554.4 45 C 554.4 45 554.37 42.84 554.4 42.8 C 553.6 44.4 552.2 45.1 550.6 45.1 C 548.5 45.1 546.9 43.8 546.9 41.2 C 546.85 41.16 546.9 33.7 546.9 33.7 L 548.4 33.7 C 548.4 33.7 548.39 40.97 548.4 41 C 548.4 42.8 549.4 43.8 550.9 43.8 C 552.7 43.8 554.3 42.4 554.3 39.5 C 554.31 39.54 554.3 33.7 554.3 33.7 L 555.8 33.7 L 555.8 45 L 554.4 45 Z M 568.4 37.3 C 568.36 37.25 568.4 45 568.4 45 L 566.8 45 C 566.8 45 566.82 37.44 566.8 37.4 C 566.8 35.9 565.9 34.9 564.3 34.9 C 562.4 34.9 560.7 36.3 560.7 39.1 C 560.73 39.06 560.7 45 560.7 45 L 559.2 45 L 559.2 33.7 L 560.7 33.7 C 560.7 33.7 560.73 35.8 560.7 35.8 C 561.4 34.5 562.7 33.5 564.6 33.5 C 566.9 33.5 568.4 34.8 568.4 37.3 Z M 581.3 44.5 C 581.3 47.9 579.1 49.6 576.2 49.6 C 573.7 49.6 571.5 48.3 571.1 45.7 C 571.1 45.7 572.7 45.7 572.7 45.7 C 572.9 47.1 574 48.3 576.2 48.3 C 578.3 48.3 579.8 47.2 579.8 44.6 C 579.8 44.6 579.8 42.3 579.8 42.3 C 579 44 577.3 44.6 575.9 44.6 C 573.1 44.6 570.9 42.7 570.9 39 C 570.9 35.3 573.2 33.5 575.9 33.5 C 577.7 33.5 579.1 34.3 579.8 35.5 C 579.8 35.53 579.8 33.7 579.8 33.7 L 581.3 33.7 C 581.3 33.7 581.31 44.48 581.3 44.5 Z M 579.7 39 C 579.7 36.2 578 34.8 576.1 34.8 C 574.2 34.8 572.4 36.2 572.4 39 C 572.4 41.8 574.1 43.2 576.1 43.2 C 577.9 43.2 579.7 42 579.7 39 Z M 591.9 29 L 590.1 29 L 590.1 30.9 L 591.9 30.9 L 591.9 29 Z M 591.8 45 L 590.2 45 L 590.2 33.7 L 591.8 33.7 L 591.8 45 Z M 604.3 37.3 C 604.29 37.25 604.3 45 604.3 45 L 602.8 45 C 602.8 45 602.75 37.44 602.8 37.4 C 602.8 35.9 601.9 34.9 600.3 34.9 C 598.3 34.9 596.7 36.3 596.7 39.1 C 596.66 39.06 596.7 45 596.7 45 L 595.1 45 L 595.1 33.7 L 596.7 33.7 C 596.7 33.7 596.66 35.8 596.7 35.8 C 597.3 34.5 598.6 33.5 600.6 33.5 C 602.8 33.5 604.3 34.8 604.3 37.3 Z M 623.4 30.6 L 618 30.6 L 618 45 L 616.4 45 L 616.4 30.6 L 611 30.6 L 611 29.2 L 623.4 29.2 L 623.4 30.6 Z M 627 29 L 625.3 29 L 625.3 30.9 L 627 30.9 L 627 29 Z M 626.9 45 L 625.4 45 L 625.4 33.7 L 626.9 33.7 L 626.9 45 Z M 635.4 45 C 635.4 45 633.75 44.98 633.8 45 C 632.3 45 630.9 44.5 630.9 42 C 630.91 42.02 630.9 35.1 630.9 35.1 L 628.7 35.1 L 628.7 33.7 L 630.9 33.7 L 630.9 30.5 L 632.4 30.1 L 632.4 33.7 L 635.2 33.7 L 635.2 35.1 L 632.4 35.1 C 632.4 35.1 632.45 42 632.4 42 C 632.4 43 632.7 43.6 634 43.6 C 634 43.6 635.4 43.6 635.4 43.6 L 635.4 45 Z M 638.4 39.7 C 638.4 42.5 640.2 43.8 642.1 43.8 C 643.6 43.8 645.1 43.1 645.4 41.5 C 645.4 41.5 646.9 41.5 646.9 41.5 C 646.4 44.1 644.2 45.2 642.1 45.2 C 639.4 45.2 636.9 43.4 636.9 39.4 C 636.9 35.3 639.4 33.5 642.1 33.5 C 644.8 33.5 647 35.2 647 39 C 646.98 38.95 647 39.7 647 39.7 C 647 39.7 638.39 39.71 638.4 39.7 Z M 638.4 38.4 C 638.4 38.4 645.4 38.4 645.4 38.4 C 645.4 36.1 644 34.9 642.1 34.9 C 640.3 34.9 638.6 36 638.4 38.4 Z M 651.1 45 L 649.6 45 L 649.6 29 L 651.1 29 L 651.1 45 Z M 660.2 33.7 L 661.7 33.7 C 661.7 33.7 661.68 35.57 661.7 35.6 C 662.3 34.2 663.5 33.5 665 33.5 C 666.6 33.5 667.9 34.4 668.3 35.8 C 668.8 34.6 670 33.5 672 33.5 C 674 33.5 675.6 34.6 675.6 36.9 C 675.64 36.9 675.6 45 675.6 45 L 674.1 45 C 674.1 45 674.11 37.44 674.1 37.4 C 674.1 35.7 673 34.9 671.7 34.9 C 670 34.9 668.7 36.2 668.7 38.5 C 668.65 38.53 668.7 45 668.7 45 L 667.1 45 C 667.1 45 667.14 37.44 667.1 37.4 C 667.1 35.7 666.1 34.9 664.8 34.9 C 663.1 34.9 661.7 36.1 661.7 38.5 C 661.7 38.53 661.7 45 661.7 45 L 660.2 45 L 660.2 33.7 Z M 680.5 29 L 678.8 29 L 678.8 30.9 L 680.5 30.9 L 680.5 29 Z M 680.4 45 L 678.9 45 L 678.9 33.7 L 680.4 33.7 L 680.4 45 Z M 688.9 45 C 688.9 45 687.28 44.98 687.3 45 C 685.8 45 684.4 44.5 684.4 42 C 684.44 42.02 684.4 35.1 684.4 35.1 L 682.2 35.1 L 682.2 33.7 L 684.4 33.7 L 684.4 30.5 L 686 30.1 L 686 33.7 L 688.7 33.7 L 688.7 35.1 L 686 35.1 C 686 35.1 685.98 42 686 42 C 686 43 686.3 43.6 687.5 43.6 C 687.53 43.6 688.9 43.6 688.9 43.6 L 688.9 45 Z M 705.8 37.3 C 705.76 37.25 705.8 45 705.8 45 L 704.2 45 C 704.2 45 704.22 37.44 704.2 37.4 C 704.2 35.9 703.3 34.9 701.7 34.9 C 699.8 34.9 698.1 36.3 698.1 39.1 C 698.13 39.06 698.1 45 698.1 45 L 696.6 45 L 696.6 29 L 698.1 29 C 698.1 29 698.13 35.68 698.1 35.7 C 698.8 34.4 700 33.5 702 33.5 C 704.3 33.5 705.8 34.8 705.8 37.3 Z M 708.3 39.4 C 708.3 35.7 710.5 33.5 713.6 33.5 C 716.7 33.5 719 35.7 719 39.4 C 719 43 716.7 45.2 713.6 45.2 C 710.5 45.2 708.3 43 708.3 39.4 Z M 717.4 39.3 C 717.4 36.5 715.7 34.9 713.6 34.9 C 711.4 34.9 709.9 36.6 709.9 39.4 C 709.9 42.2 711.6 43.8 713.7 43.8 C 715.8 43.8 717.4 42.1 717.4 39.3 Z M 730.7 37.3 C 730.75 37.25 730.7 45 730.7 45 L 729.2 45 C 729.2 45 729.21 37.44 729.2 37.4 C 729.2 35.9 728.3 34.9 726.7 34.9 C 724.8 34.9 723.1 36.3 723.1 39.1 C 723.12 39.06 723.1 45 723.1 45 L 721.6 45 L 721.6 29 L 723.1 29 C 723.1 29 723.12 35.68 723.1 35.7 C 723.8 34.4 725 33.5 727 33.5 C 729.3 33.5 730.7 34.8 730.7 37.3 Z M 734.8 39.7 C 734.8 42.5 736.5 43.8 738.5 43.8 C 740 43.8 741.5 43.1 741.8 41.5 C 741.8 41.5 743.3 41.5 743.3 41.5 C 742.8 44.1 740.6 45.2 738.5 45.2 C 735.8 45.2 733.3 43.4 733.3 39.4 C 733.3 35.3 735.8 33.5 738.5 33.5 C 741.2 33.5 743.4 35.2 743.4 39 C 743.37 38.95 743.4 39.7 743.4 39.7 C 743.4 39.7 734.78 39.71 734.8 39.7 Z M 734.8 38.4 C 734.8 38.4 741.8 38.4 741.8 38.4 C 741.8 36.1 740.3 34.9 738.5 34.9 C 736.7 34.9 735 36 734.8 38.4 Z M 746 33.7 L 747.5 33.7 C 747.5 33.7 747.51 35.57 747.5 35.6 C 748.1 34.2 749.4 33.5 750.8 33.5 C 752.4 33.5 753.8 34.4 754.1 35.8 C 754.6 34.6 755.9 33.5 757.8 33.5 C 759.9 33.5 761.5 34.6 761.5 36.9 C 761.47 36.9 761.5 45 761.5 45 L 759.9 45 C 759.9 45 759.94 37.44 759.9 37.4 C 759.9 35.7 758.9 34.9 757.5 34.9 C 755.9 34.9 754.5 36.2 754.5 38.5 C 754.48 38.53 754.5 45 754.5 45 L 753 45 C 753 45 752.97 37.44 753 37.4 C 753 35.7 751.9 34.9 750.6 34.9 C 748.9 34.9 747.5 36.1 747.5 38.5 C 747.53 38.53 747.5 45 747.5 45 L 746 45 L 746 33.7 Z M 781.1 33.6 C 781.1 36 779.5 38.3 776.1 38.3 C 776.13 38.32 772.2 38.3 772.2 38.3 L 772.2 45 L 770.6 45 L 770.6 29.2 C 770.6 29.2 776.4 29.23 776.4 29.2 C 779.5 29.2 781.1 31.4 781.1 33.6 Z M 779.5 33.7 C 779.5 32.1 778.4 30.6 776.2 30.6 C 776.19 30.64 772.2 30.6 772.2 30.6 L 772.2 36.9 C 772.2 36.9 776.13 36.92 776.1 36.9 C 778.4 36.9 779.5 35.3 779.5 33.7 Z M 782.2 39.4 C 782.2 35.7 784.4 33.5 787.5 33.5 C 790.6 33.5 792.9 35.7 792.9 39.4 C 792.9 43 790.6 45.2 787.5 45.2 C 784.4 45.2 782.2 43 782.2 39.4 Z M 791.3 39.3 C 791.3 36.5 789.6 34.9 787.5 34.9 C 785.3 34.9 783.8 36.6 783.8 39.4 C 783.8 42.2 785.5 43.8 787.6 43.8 C 789.7 43.8 791.3 42.1 791.3 39.3 Z M 800.6 45 C 800.6 45 798.98 44.98 799 45 C 797.5 45 796.1 44.5 796.1 42 C 796.14 42.02 796.1 35.1 796.1 35.1 L 793.9 35.1 L 793.9 33.7 L 796.1 33.7 L 796.1 30.5 L 797.7 30.1 L 797.7 33.7 L 800.4 33.7 L 800.4 35.1 L 797.7 35.1 C 797.7 35.1 797.67 42 797.7 42 C 797.7 43 798 43.6 799.2 43.6 C 799.23 43.6 800.6 43.6 800.6 43.6 L 800.6 45 Z M 803.6 39.7 C 803.7 42.5 805.4 43.8 807.4 43.8 C 808.9 43.8 810.3 43.1 810.7 41.5 C 810.7 41.5 812.1 41.5 812.1 41.5 C 811.6 44.1 809.4 45.2 807.3 45.2 C 804.6 45.2 802.1 43.4 802.1 39.4 C 802.1 35.3 804.6 33.5 807.4 33.5 C 810 33.5 812.2 35.2 812.2 39 C 812.21 38.95 812.2 39.7 812.2 39.7 C 812.2 39.7 803.62 39.71 803.6 39.7 Z M 803.7 38.4 C 803.7 38.4 810.7 38.4 810.7 38.4 C 810.7 36.1 809.2 34.9 807.3 34.9 C 805.5 34.9 803.9 36 803.7 38.4 Z M 824 37.3 C 823.99 37.25 824 45 824 45 L 822.5 45 C 822.5 45 822.45 37.44 822.5 37.4 C 822.5 35.9 821.6 34.9 820 34.9 C 818 34.9 816.4 36.3 816.4 39.1 C 816.36 39.06 816.4 45 816.4 45 L 814.8 45 L 814.8 33.7 L 816.4 33.7 C 816.4 33.7 816.36 35.8 816.4 35.8 C 817 34.5 818.3 33.5 820.3 33.5 C 822.5 33.5 824 34.8 824 37.3 Z M 826.5 43.6 L 833.6 35.1 L 826.6 35.1 L 826.6 33.7 L 835.5 33.7 L 835.5 35.1 L 828.4 43.6 L 835.5 43.6 L 835.5 45 L 826.5 45 L 826.5 43.6 Z M 840 29 L 838.2 29 L 838.2 30.9 L 840 30.9 L 840 29 Z M 839.9 45 L 838.3 45 L 838.3 33.7 L 839.9 33.7 L 839.9 45 Z M 850.2 42.9 C 849.3 44.6 847.6 45.2 846.1 45.2 C 844.2 45.2 842.5 44.1 842.5 41.9 C 842.5 39.8 844 38.8 845.9 38.6 C 845.9 38.6 848.6 38.2 848.6 38.2 C 849.4 38.1 850.2 37.8 850.2 36.8 C 850.2 35.5 849 34.8 847.4 34.8 C 845.7 34.8 844.7 35.6 844.5 36.9 C 844.5 36.9 842.9 36.9 842.9 36.9 C 843.2 34.6 845 33.5 847.5 33.5 C 850.1 33.5 851.6 34.7 851.6 37.2 C 851.64 37.19 851.6 45 851.6 45 L 850.2 45 C 850.2 45 850.15 42.92 850.2 42.9 Z M 848.3 39.5 C 848.3 39.5 846.6 39.7 846.6 39.7 C 845.1 39.9 844.1 40.4 844.1 41.8 C 844.1 43.2 845.2 43.8 846.4 43.8 C 848.2 43.8 850.1 42.5 850.1 40.1 C 850.1 40.1 850.1 39 850.1 39 C 849.7 39.3 849 39.4 848.3 39.5 Z M 856.3 45 L 854.8 45 L 854.8 29 L 856.3 29 L 856.3 45 Z M 859 42.8 L 861.1 42.8 L 861.1 45 L 859 45 L 859 42.8 Z " stroke="none" fill="#fff"/>  </g>  <g id="Polygon11990">    <path d="M 3.6 19.8 L 2 19.8 L 2 4 L 3.6 4 L 3.6 19.8 Z M 7.3 8.5 L 8.8 8.5 C 8.8 8.5 8.78 10.37 8.8 10.4 C 9.4 9 10.6 8.3 12.1 8.3 C 13.7 8.3 15 9.2 15.4 10.6 C 15.9 9.4 17.1 8.3 19.1 8.3 C 21.1 8.3 22.7 9.4 22.7 11.7 C 22.74 11.7 22.7 19.8 22.7 19.8 L 21.2 19.8 C 21.2 19.8 21.21 12.24 21.2 12.2 C 21.2 10.5 20.1 9.7 18.8 9.7 C 17.1 9.7 15.7 11 15.7 13.3 C 15.75 13.33 15.7 19.8 15.7 19.8 L 14.2 19.8 C 14.2 19.8 14.24 12.24 14.2 12.2 C 14.2 10.5 13.2 9.7 11.9 9.7 C 10.2 9.7 8.8 10.9 8.8 13.3 C 8.8 13.33 8.8 19.8 8.8 19.8 L 7.3 19.8 L 7.3 8.5 Z M 41.6 19.8 L 37.2 13 L 33.5 13 L 33.5 19.8 L 31.9 19.8 L 31.9 4 C 31.9 4 37.48 4.03 37.5 4 C 40.7 4 42.4 6.1 42.4 8.3 C 42.4 10.2 41.2 12.1 38.9 12.7 C 38.89 12.7 43.6 19.8 43.6 19.8 L 41.6 19.8 Z M 37.4 11.5 C 39.6 11.5 40.8 10 40.8 8.4 C 40.8 6.8 39.7 5.4 37.6 5.4 C 37.57 5.44 33.5 5.4 33.5 5.4 L 33.5 11.5 C 33.5 11.5 37.38 11.55 37.4 11.5 Z M 52.5 17.7 C 51.6 19.4 49.9 20 48.5 20 C 46.5 20 44.8 18.9 44.8 16.7 C 44.8 14.6 46.3 13.6 48.2 13.4 C 48.2 13.4 50.9 13 50.9 13 C 51.7 12.9 52.5 12.6 52.5 11.6 C 52.5 10.3 51.3 9.6 49.7 9.6 C 48 9.6 47 10.4 46.8 11.7 C 46.8 11.7 45.3 11.7 45.3 11.7 C 45.6 9.4 47.4 8.3 49.9 8.3 C 52.4 8.3 54 9.5 54 12 C 53.97 11.99 54 19.8 54 19.8 L 52.5 19.8 C 52.5 19.8 52.48 17.72 52.5 17.7 Z M 50.6 14.3 C 50.6 14.3 48.9 14.5 48.9 14.5 C 47.5 14.7 46.4 15.2 46.4 16.6 C 46.4 18 47.5 18.6 48.7 18.6 C 50.5 18.6 52.4 17.3 52.4 14.9 C 52.4 14.9 52.4 13.8 52.4 13.8 C 52 14.1 51.4 14.2 50.6 14.3 Z M 66.3 12.1 C 66.28 12.05 66.3 19.8 66.3 19.8 L 64.7 19.8 C 64.7 19.8 64.74 12.24 64.7 12.2 C 64.7 10.7 63.9 9.7 62.3 9.7 C 60.3 9.7 58.7 11.1 58.7 13.9 C 58.65 13.86 58.7 19.8 58.7 19.8 L 57.1 19.8 L 57.1 3.8 L 58.7 3.8 C 58.7 3.8 58.65 10.48 58.7 10.5 C 59.3 9.2 60.5 8.3 62.5 8.3 C 64.8 8.3 66.3 9.6 66.3 12.1 Z M 69.5 8.5 L 71 8.5 C 71 8.5 71.04 10.37 71 10.4 C 71.7 9 72.9 8.3 74.3 8.3 C 76 8.3 77.3 9.2 77.7 10.6 C 78.2 9.4 79.4 8.3 81.4 8.3 C 83.4 8.3 85 9.4 85 11.7 C 85.01 11.7 85 19.8 85 19.8 L 83.5 19.8 C 83.5 19.8 83.47 12.24 83.5 12.2 C 83.5 10.5 82.4 9.7 81.1 9.7 C 79.4 9.7 78 11 78 13.3 C 78.01 13.33 78 19.8 78 19.8 L 76.5 19.8 C 76.5 19.8 76.5 12.24 76.5 12.2 C 76.5 10.5 75.5 9.7 74.1 9.7 C 72.5 9.7 71.1 10.9 71.1 13.3 C 71.06 13.33 71.1 19.8 71.1 19.8 L 69.5 19.8 L 69.5 8.5 Z M 89 14.5 C 89.1 17.3 90.8 18.6 92.8 18.6 C 94.3 18.6 95.8 17.9 96.1 16.3 C 96.1 16.3 97.5 16.3 97.5 16.3 C 97 18.9 94.9 20 92.7 20 C 90 20 87.5 18.2 87.5 14.2 C 87.5 10.1 90.1 8.3 92.8 8.3 C 95.4 8.3 97.6 10 97.6 13.8 C 97.63 13.75 97.6 14.5 97.6 14.5 C 97.6 14.5 89.04 14.51 89 14.5 Z M 89.1 13.2 C 89.1 13.2 96.1 13.2 96.1 13.2 C 96.1 10.9 94.6 9.7 92.7 9.7 C 91 9.7 89.3 10.8 89.1 13.2 Z M 109.4 12.1 C 109.41 12.05 109.4 19.8 109.4 19.8 L 107.9 19.8 C 107.9 19.8 107.88 12.24 107.9 12.2 C 107.9 10.7 107 9.7 105.4 9.7 C 103.5 9.7 101.8 11.1 101.8 13.9 C 101.79 13.86 101.8 19.8 101.8 19.8 L 100.3 19.8 L 100.3 8.5 L 101.8 8.5 C 101.8 8.5 101.79 10.6 101.8 10.6 C 102.5 9.3 103.7 8.3 105.7 8.3 C 107.9 8.3 109.4 9.6 109.4 12.1 Z M 125.7 19.8 C 125.7 19.8 125.75 17.64 125.7 17.6 C 125 19.2 123.6 19.9 122 19.9 C 119.9 19.9 118.2 18.6 118.2 16 C 118.23 15.96 118.2 8.5 118.2 8.5 L 119.8 8.5 C 119.8 8.5 119.76 15.77 119.8 15.8 C 119.8 17.6 120.8 18.6 122.3 18.6 C 124.1 18.6 125.7 17.2 125.7 14.3 C 125.68 14.34 125.7 8.5 125.7 8.5 L 127.2 8.5 L 127.2 19.8 L 125.7 19.8 Z M 139.7 12.1 C 139.73 12.05 139.7 19.8 139.7 19.8 L 138.2 19.8 C 138.2 19.8 138.2 12.24 138.2 12.2 C 138.2 10.7 137.3 9.7 135.7 9.7 C 133.8 9.7 132.1 11.1 132.1 13.9 C 132.11 13.86 132.1 19.8 132.1 19.8 L 130.6 19.8 L 130.6 8.5 L 132.1 8.5 C 132.1 8.5 132.11 10.6 132.1 10.6 C 132.8 9.3 134 8.3 136 8.3 C 138.3 8.3 139.7 9.6 139.7 12.1 Z M 151.4 16.6 C 151.4 18.9 149.3 20 147 20 C 144.6 20 142.4 18.8 142.1 16.3 C 142.1 16.3 143.8 16.3 143.8 16.3 C 144 18 145.5 18.6 147 18.6 C 148.5 18.6 149.8 18.1 149.8 16.8 C 149.8 15.5 148.5 15.2 147.1 15 C 145 14.6 142.4 14.2 142.4 11.6 C 142.4 9.4 144.4 8.3 146.7 8.3 C 149.1 8.3 150.9 9.4 151.1 11.7 C 151.1 11.7 149.5 11.7 149.5 11.7 C 149.4 10.3 148.1 9.7 146.6 9.7 C 145.1 9.7 144 10.4 144 11.5 C 144 13 145.4 13.2 147.1 13.5 C 149.1 13.8 151.4 14.1 151.4 16.6 Z M 154.7 14.5 C 154.7 17.3 156.4 18.6 158.4 18.6 C 159.9 18.6 161.4 17.9 161.7 16.3 C 161.7 16.3 163.2 16.3 163.2 16.3 C 162.7 18.9 160.5 20 158.3 20 C 155.7 20 153.2 18.2 153.2 14.2 C 153.2 10.1 155.7 8.3 158.4 8.3 C 161.1 8.3 163.3 10 163.3 13.8 C 163.25 13.75 163.3 14.5 163.3 14.5 C 163.3 14.5 154.66 14.51 154.7 14.5 Z M 154.7 13.2 C 154.7 13.2 161.7 13.2 161.7 13.2 C 161.7 10.9 160.2 9.7 158.3 9.7 C 156.6 9.7 154.9 10.8 154.7 13.2 Z M 171.5 9.8 C 171.5 9.8 171.15 9.83 171.1 9.8 C 168.8 9.8 167.4 11.2 167.4 13.8 C 167.41 13.8 167.4 19.8 167.4 19.8 L 165.9 19.8 L 165.9 8.5 L 167.4 8.5 C 167.4 8.5 167.39 10.58 167.4 10.6 C 167.9 9.1 169.3 8.4 171 8.4 C 171.02 8.38 171.5 8.4 171.5 8.4 L 171.5 9.8 Z M 174.1 14.5 C 174.1 17.3 175.8 18.6 177.8 18.6 C 179.3 18.6 180.8 17.9 181.1 16.3 C 181.1 16.3 182.6 16.3 182.6 16.3 C 182.1 18.9 179.9 20 177.7 20 C 175.1 20 172.6 18.2 172.6 14.2 C 172.6 10.1 175.1 8.3 177.8 8.3 C 180.5 8.3 182.7 10 182.7 13.8 C 182.66 13.75 182.7 14.5 182.7 14.5 C 182.7 14.5 174.07 14.51 174.1 14.5 Z M 174.1 13.2 C 174.1 13.2 181.1 13.2 181.1 13.2 C 181.1 10.9 179.6 9.7 177.7 9.7 C 176 9.7 174.3 10.8 174.1 13.2 Z M 190.9 9.8 C 190.9 9.8 190.55 9.83 190.6 9.8 C 188.2 9.8 186.8 11.2 186.8 13.8 C 186.81 13.8 186.8 19.8 186.8 19.8 L 185.3 19.8 L 185.3 8.5 L 186.8 8.5 C 186.8 8.5 186.79 10.58 186.8 10.6 C 187.3 9.1 188.7 8.4 190.4 8.4 C 190.43 8.38 190.9 8.4 190.9 8.4 L 190.9 9.8 Z M 209.2 15.3 C 209.2 17.5 207.5 19.8 204.1 19.8 C 204.12 19.8 198.2 19.8 198.2 19.8 L 198.2 4 C 198.2 4 204.39 4.03 204.4 4 C 207.2 4 208.5 5.8 208.5 7.6 C 208.5 9.1 207.8 10.6 206.2 11.3 C 208.3 12 209.2 13.6 209.2 15.3 Z M 203.7 10.8 C 205.9 10.8 206.9 9.3 206.9 7.9 C 206.9 6.7 206 5.4 204.1 5.4 C 204.1 5.44 199.7 5.4 199.7 5.4 L 199.7 10.8 C 199.7 10.8 203.68 10.75 203.7 10.8 Z M 207.5 15.2 C 207.5 13.6 206.4 12.2 204.3 12.2 C 204.29 12.16 199.7 12.2 199.7 12.2 L 199.7 18.3 C 199.7 18.3 204.12 18.33 204.1 18.3 C 206.5 18.3 207.5 16.8 207.5 15.2 Z M 211.2 14.2 C 211.2 10.5 213.4 8.3 216.5 8.3 C 219.7 8.3 221.9 10.5 221.9 14.2 C 221.9 17.8 219.7 20 216.6 20 C 213.5 20 211.2 17.8 211.2 14.2 Z M 220.3 14.1 C 220.3 11.3 218.6 9.7 216.5 9.7 C 214.3 9.7 212.8 11.4 212.8 14.2 C 212.8 17 214.5 18.6 216.6 18.6 C 218.8 18.6 220.3 16.9 220.3 14.1 Z M 237 19.8 C 237 19.8 235.34 19.78 235.3 19.8 C 233.9 19.8 232.5 19.3 232.5 16.8 C 232.51 16.82 232.5 9.9 232.5 9.9 L 226.7 9.9 C 226.7 9.9 226.71 16.8 226.7 16.8 C 226.7 17.8 227 18.4 228.3 18.4 C 228.27 18.4 229.7 18.4 229.7 18.4 L 229.7 19.8 C 229.7 19.8 228.02 19.78 228 19.8 C 226.5 19.8 225.2 19.3 225.2 16.8 C 225.18 16.82 225.2 9.9 225.2 9.9 L 223 9.9 L 223 8.5 L 225.2 8.5 L 225.2 5.3 L 226.7 4.9 L 226.7 8.5 L 232.5 8.5 L 232.5 5.3 L 234 4.9 L 234 8.5 L 236.8 8.5 L 236.8 9.9 L 234 9.9 C 234 9.9 234.04 16.8 234 16.8 C 234 17.8 234.3 18.4 235.6 18.4 C 235.6 18.4 237 18.4 237 18.4 L 237 19.8 Z M 238.5 14.2 C 238.5 10.5 240.7 8.3 243.8 8.3 C 246.9 8.3 249.2 10.5 249.2 14.2 C 249.2 17.8 247 20 243.8 20 C 240.7 20 238.5 17.8 238.5 14.2 Z M 247.6 14.1 C 247.6 11.3 245.9 9.7 243.8 9.7 C 241.6 9.7 240.1 11.4 240.1 14.2 C 240.1 17 241.8 18.6 243.9 18.6 C 246.1 18.6 247.6 16.9 247.6 14.1 Z M 251.8 8.5 L 253.3 8.5 C 253.3 8.5 253.32 10.37 253.3 10.4 C 253.9 9 255.2 8.3 256.6 8.3 C 258.3 8.3 259.6 9.2 259.9 10.6 C 260.4 9.4 261.7 8.3 263.6 8.3 C 265.7 8.3 267.3 9.4 267.3 11.7 C 267.29 11.7 267.3 19.8 267.3 19.8 L 265.8 19.8 C 265.8 19.8 265.75 12.24 265.8 12.2 C 265.8 10.5 264.7 9.7 263.4 9.7 C 261.7 9.7 260.3 11 260.3 13.3 C 260.29 13.33 260.3 19.8 260.3 19.8 L 258.8 19.8 C 258.8 19.8 258.78 12.24 258.8 12.2 C 258.8 10.5 257.8 9.7 256.4 9.7 C 254.7 9.7 253.3 10.9 253.3 13.3 C 253.34 13.33 253.3 19.8 253.3 19.8 L 251.8 19.8 L 251.8 8.5 Z M 269.9 13.7 L 269.9 12.3 L 276.4 12.3 L 276.4 13.7 L 269.9 13.7 Z M 286.5 19.8 C 286.5 19.8 286.52 17.64 286.5 17.6 C 285.7 19.2 284.4 19.9 282.8 19.9 C 280.6 19.9 279 18.6 279 16 C 279 15.96 279 8.5 279 8.5 L 280.5 8.5 C 280.5 8.5 280.54 15.77 280.5 15.8 C 280.5 17.6 281.5 18.6 283 18.6 C 284.8 18.6 286.5 17.2 286.5 14.3 C 286.46 14.34 286.5 8.5 286.5 8.5 L 288 8.5 L 288 19.8 L 286.5 19.8 Z M 301.9 14.1 C 301.9 18.2 299.3 19.9 296.7 19.9 C 294.8 19.9 293.5 19 292.9 17.8 C 292.88 17.83 292.9 24.1 292.9 24.1 L 291.4 24.1 L 291.4 8.5 L 292.8 8.5 C 292.8 8.5 292.84 10.88 292.8 10.9 C 293.3 9.5 294.8 8.3 296.9 8.3 C 299.3 8.3 301.9 10 301.9 14.1 Z M 300.3 14.1 C 300.3 11 298.5 9.8 296.6 9.8 C 294.8 9.8 292.9 11 292.9 14.2 C 292.9 17.3 294.7 18.5 296.6 18.5 C 298.5 18.5 300.3 17.3 300.3 14.1 Z M 303.9 13.7 L 303.9 12.3 L 310.3 12.3 L 310.3 13.7 L 303.9 13.7 Z M 318.5 20.2 C 315.2 20.2 312.5 18.2 312.4 14.8 C 312.4 14.8 314.2 14.8 314.2 14.8 C 314.2 17.5 316.4 18.7 318.6 18.7 C 320.7 18.7 322.3 17.6 322.3 15.8 C 322.3 13.7 320.1 13.2 318 12.7 C 315.5 12 313 11.2 313 8.1 C 313 5.2 315.2 3.7 318.2 3.7 C 321 3.7 323.5 5 323.6 8.1 C 323.6 8.1 321.9 8.1 321.9 8.1 C 321.9 6 320.1 5.1 318.2 5.1 C 316.2 5.1 314.6 6.1 314.6 8.1 C 314.6 10.2 316.4 10.7 318.6 11.3 C 321.2 11.9 323.9 12.6 323.9 15.7 C 323.9 18.6 321.4 20.2 318.5 20.2 Z M 331.8 19.8 C 331.8 19.8 330.14 19.78 330.1 19.8 C 328.6 19.8 327.3 19.3 327.3 16.8 C 327.3 16.82 327.3 9.9 327.3 9.9 L 325.1 9.9 L 325.1 8.5 L 327.3 8.5 L 327.3 5.3 L 328.8 4.9 L 328.8 8.5 L 331.6 8.5 L 331.6 9.9 L 328.8 9.9 C 328.8 9.9 328.84 16.8 328.8 16.8 C 328.8 17.8 329.1 18.4 330.4 18.4 C 330.39 18.4 331.8 18.4 331.8 18.4 L 331.8 19.8 Z M 339.6 9.8 C 339.6 9.8 339.27 9.83 339.3 9.8 C 336.9 9.8 335.5 11.2 335.5 13.8 C 335.53 13.8 335.5 19.8 335.5 19.8 L 334 19.8 L 334 8.5 L 335.5 8.5 C 335.5 8.5 335.51 10.58 335.5 10.6 C 336 9.1 337.4 8.4 339.1 8.4 C 339.15 8.38 339.6 8.4 339.6 8.4 L 339.6 9.8 Z M 348.6 17.7 C 347.7 19.4 346 20 344.5 20 C 342.6 20 340.9 18.9 340.9 16.7 C 340.9 14.6 342.4 13.6 344.3 13.4 C 344.3 13.4 347 13 347 13 C 347.8 12.9 348.6 12.6 348.6 11.6 C 348.6 10.3 347.4 9.6 345.8 9.6 C 344.1 9.6 343.1 10.4 342.9 11.7 C 342.9 11.7 341.3 11.7 341.3 11.7 C 341.6 9.4 343.5 8.3 345.9 8.3 C 348.5 8.3 350 9.5 350 12 C 350.04 11.99 350 19.8 350 19.8 L 348.6 19.8 C 348.6 19.8 348.55 17.72 348.6 17.7 Z M 346.7 14.3 C 346.7 14.3 345 14.5 345 14.5 C 343.5 14.7 342.5 15.2 342.5 16.6 C 342.5 18 343.6 18.6 344.8 18.6 C 346.6 18.6 348.5 17.3 348.5 14.9 C 348.5 14.9 348.5 13.8 348.5 13.8 C 348.1 14.1 347.4 14.2 346.7 14.3 Z M 358.3 19.8 C 358.3 19.8 356.68 19.78 356.7 19.8 C 355.2 19.8 353.8 19.3 353.8 16.8 C 353.85 16.82 353.8 9.9 353.8 9.9 L 351.6 9.9 L 351.6 8.5 L 353.8 8.5 L 353.8 5.3 L 355.4 4.9 L 355.4 8.5 L 358.1 8.5 L 358.1 9.9 L 355.4 9.9 C 355.4 9.9 355.38 16.8 355.4 16.8 C 355.4 17.8 355.7 18.4 356.9 18.4 C 356.93 18.4 358.3 18.4 358.3 18.4 L 358.3 19.8 Z M 361.3 14.5 C 361.4 17.3 363.1 18.6 365.1 18.6 C 366.6 18.6 368 17.9 368.4 16.3 C 368.4 16.3 369.8 16.3 369.8 16.3 C 369.3 18.9 367.1 20 365 20 C 362.3 20 359.8 18.2 359.8 14.2 C 359.8 10.1 362.4 8.3 365.1 8.3 C 367.7 8.3 369.9 10 369.9 13.8 C 369.91 13.75 369.9 14.5 369.9 14.5 C 369.9 14.5 361.32 14.51 361.3 14.5 Z M 361.4 13.2 C 361.4 13.2 368.4 13.2 368.4 13.2 C 368.4 10.9 366.9 9.7 365 9.7 C 363.2 9.7 361.6 10.8 361.4 13.2 Z M 382.2 19.3 C 382.2 22.7 380 24.4 377.1 24.4 C 374.6 24.4 372.4 23.1 372.1 20.5 C 372.1 20.5 373.6 20.5 373.6 20.5 C 373.8 21.9 374.9 23.1 377.1 23.1 C 379.2 23.1 380.8 22 380.8 19.4 C 380.8 19.4 380.8 17.1 380.8 17.1 C 379.9 18.8 378.2 19.4 376.8 19.4 C 374 19.4 371.8 17.5 371.8 13.8 C 371.8 10.1 374.2 8.3 376.8 8.3 C 378.7 8.3 380 9.1 380.7 10.3 C 380.73 10.33 380.7 8.5 380.7 8.5 L 382.2 8.5 C 382.2 8.5 382.24 19.28 382.2 19.3 Z M 380.7 13.8 C 380.7 11 379 9.6 377.1 9.6 C 375.1 9.6 373.3 11 373.3 13.8 C 373.3 16.6 375.1 18 377 18 C 378.8 18 380.7 16.8 380.7 13.8 Z M 387.1 3.8 L 385.4 3.8 L 385.4 5.7 L 387.1 5.7 L 387.1 3.8 Z M 387 19.8 L 385.5 19.8 L 385.5 8.5 L 387 8.5 L 387 19.8 Z M 391.2 14.5 C 391.2 17.3 392.9 18.6 394.9 18.6 C 396.4 18.6 397.9 17.9 398.2 16.3 C 398.2 16.3 399.7 16.3 399.7 16.3 C 399.2 18.9 397 20 394.8 20 C 392.1 20 389.7 18.2 389.7 14.2 C 389.7 10.1 392.2 8.3 394.9 8.3 C 397.6 8.3 399.8 10 399.8 13.8 C 399.75 13.75 399.8 14.5 399.8 14.5 C 399.8 14.5 391.16 14.51 391.2 14.5 Z M 391.2 13.2 C 391.2 13.2 398.2 13.2 398.2 13.2 C 398.2 10.9 396.7 9.7 394.8 9.7 C 393.1 9.7 391.4 10.8 391.2 13.2 Z M 408 14.5 C 408 17.3 409.7 18.6 411.7 18.6 C 413.2 18.6 414.7 17.9 415 16.3 C 415 16.3 416.5 16.3 416.5 16.3 C 416 18.9 413.8 20 411.7 20 C 409 20 406.5 18.2 406.5 14.2 C 406.5 10.1 409 8.3 411.7 8.3 C 414.4 8.3 416.6 10 416.6 13.8 C 416.57 13.75 416.6 14.5 416.6 14.5 C 416.6 14.5 407.98 14.51 408 14.5 Z M 408 13.2 C 408 13.2 415 13.2 415 13.2 C 415 10.9 413.5 9.7 411.7 9.7 C 409.9 9.7 408.2 10.8 408 13.2 Z M 428.4 12.1 C 428.35 12.05 428.4 19.8 428.4 19.8 L 426.8 19.8 C 426.8 19.8 426.82 12.24 426.8 12.2 C 426.8 10.7 425.9 9.7 424.3 9.7 C 422.4 9.7 420.7 11.1 420.7 13.9 C 420.73 13.86 420.7 19.8 420.7 19.8 L 419.2 19.8 L 419.2 8.5 L 420.7 8.5 C 420.7 8.5 420.73 10.6 420.7 10.6 C 421.4 9.3 422.7 8.3 424.6 8.3 C 426.9 8.3 428.4 9.6 428.4 12.1 Z M 436.8 19.8 C 436.8 19.8 435.09 19.78 435.1 19.8 C 433.6 19.8 432.3 19.3 432.3 16.8 C 432.26 16.82 432.3 9.9 432.3 9.9 L 430 9.9 L 430 8.5 L 432.3 8.5 L 432.3 5.3 L 433.8 4.9 L 433.8 8.5 L 436.5 8.5 L 436.5 9.9 L 433.8 9.9 C 433.8 9.9 433.79 16.8 433.8 16.8 C 433.8 17.8 434.1 18.4 435.3 18.4 C 435.35 18.4 436.8 18.4 436.8 18.4 L 436.8 19.8 Z M 450.2 19.8 L 448.7 19.8 L 445.8 10.8 L 442.9 19.8 L 441.4 19.8 L 437.7 8.5 L 439.3 8.5 L 442.2 17.8 L 445 8.5 L 446.6 8.5 L 449.5 17.8 L 452.3 8.5 L 453.9 8.5 L 450.2 19.8 Z M 457.6 3.8 L 455.9 3.8 L 455.9 5.7 L 457.6 5.7 L 457.6 3.8 Z M 457.5 19.8 L 456 19.8 L 456 8.5 L 457.5 8.5 L 457.5 19.8 Z M 465.4 20 C 462.3 20 460.2 17.7 460.2 14.2 C 460.2 10.6 462.3 8.3 465.5 8.3 C 468 8.3 470 9.7 470.2 12.2 C 470.2 12.2 468.7 12.2 468.7 12.2 C 468.5 10.6 467.1 9.7 465.5 9.7 C 463.3 9.7 461.7 11.4 461.7 14.1 C 461.7 16.9 463.3 18.6 465.5 18.6 C 467.2 18.6 468.5 17.6 468.7 15.8 C 468.7 15.8 470.2 15.8 470.2 15.8 C 470 18.5 467.9 20 465.4 20 Z M 476.4 14.3 L 474.3 16.4 L 474.3 19.8 L 472.8 19.8 L 472.8 3.8 L 474.3 3.8 L 474.3 14.5 L 479.9 8.5 L 481.9 8.5 L 477.4 13.2 L 482.2 19.8 L 480.3 19.8 L 476.4 14.3 Z M 484.5 14.5 C 484.6 17.3 486.3 18.6 488.3 18.6 C 489.8 18.6 491.3 17.9 491.6 16.3 C 491.6 16.3 493.1 16.3 493.1 16.3 C 492.5 18.9 490.4 20 488.2 20 C 485.5 20 483 18.2 483 14.2 C 483 10.1 485.6 8.3 488.3 8.3 C 491 8.3 493.1 10 493.1 13.8 C 493.14 13.75 493.1 14.5 493.1 14.5 C 493.1 14.5 484.55 14.51 484.5 14.5 Z M 484.6 13.2 C 484.6 13.2 491.6 13.2 491.6 13.2 C 491.6 10.9 490.1 9.7 488.2 9.7 C 486.5 9.7 484.8 10.8 484.6 13.2 Z M 497.3 19.8 L 495.8 19.8 L 495.8 3.8 L 497.3 3.8 L 497.3 19.8 Z M 509.8 12.1 C 509.81 12.05 509.8 19.8 509.8 19.8 L 508.3 19.8 C 508.3 19.8 508.28 12.24 508.3 12.2 C 508.3 10.7 507.4 9.7 505.8 9.7 C 503.9 9.7 502.2 11.1 502.2 13.9 C 502.19 13.86 502.2 19.8 502.2 19.8 L 500.7 19.8 L 500.7 8.5 L 502.2 8.5 C 502.2 8.5 502.19 10.6 502.2 10.6 C 502.9 9.3 504.1 8.3 506.1 8.3 C 508.3 8.3 509.8 9.6 509.8 12.1 Z M 529.6 19.8 L 528.1 19.8 L 525.2 10.8 L 522.2 19.8 L 520.7 19.8 L 517.1 8.5 L 518.6 8.5 L 521.5 17.8 L 524.4 8.5 L 525.9 8.5 L 528.9 17.8 L 531.7 8.5 L 533.3 8.5 L 529.6 19.8 Z M 537 3.8 L 535.3 3.8 L 535.3 5.7 L 537 5.7 L 537 3.8 Z M 536.9 19.8 L 535.4 19.8 L 535.4 8.5 L 536.9 8.5 L 536.9 19.8 Z M 545.9 9.8 C 545.9 9.8 545.53 9.83 545.5 9.8 C 543.1 9.8 541.8 11.2 541.8 13.8 C 541.79 13.8 541.8 19.8 541.8 19.8 L 540.3 19.8 L 540.3 8.5 L 541.8 8.5 C 541.8 8.5 541.77 10.58 541.8 10.6 C 542.3 9.1 543.7 8.4 545.4 8.4 C 545.41 8.38 545.9 8.4 545.9 8.4 L 545.9 9.8 Z M 553.3 14.5 C 553.3 17.3 555 18.6 557 18.6 C 558.5 18.6 560 17.9 560.3 16.3 C 560.3 16.3 561.8 16.3 561.8 16.3 C 561.3 18.9 559.1 20 557 20 C 554.3 20 551.8 18.2 551.8 14.2 C 551.8 10.1 554.3 8.3 557 8.3 C 559.7 8.3 561.9 10 561.9 13.8 C 561.87 13.75 561.9 14.5 561.9 14.5 C 561.9 14.5 553.28 14.51 553.3 14.5 Z M 553.3 13.2 C 553.3 13.2 560.3 13.2 560.3 13.2 C 560.3 10.9 558.8 9.7 557 9.7 C 555.2 9.7 553.5 10.8 553.3 13.2 Z M 566.1 3.8 L 564.4 3.8 L 564.4 5.7 L 566.1 5.7 L 566.1 3.8 Z M 566 19.8 L 564.5 19.8 L 564.5 8.5 L 566 8.5 L 566 19.8 Z M 578.5 12.1 C 578.54 12.05 578.5 19.8 578.5 19.8 L 577 19.8 C 577 19.8 577.01 12.24 577 12.2 C 577 10.7 576.1 9.7 574.5 9.7 C 572.6 9.7 570.9 11.1 570.9 13.9 C 570.92 13.86 570.9 19.8 570.9 19.8 L 569.4 19.8 L 569.4 8.5 L 570.9 8.5 C 570.9 8.5 570.92 10.6 570.9 10.6 C 571.6 9.3 572.9 8.3 574.8 8.3 C 577.1 8.3 578.5 9.6 578.5 12.1 Z M 590.8 5.1 C 589.6 5.1 589.3 5.7 589.3 6.8 C 589.29 6.76 589.3 8.5 589.3 8.5 L 591.8 8.5 L 591.8 9.9 L 589.3 9.9 L 589.3 19.8 L 587.8 19.8 L 587.8 9.9 L 585.9 9.9 L 585.9 8.5 L 587.8 8.5 C 587.8 8.5 587.76 6.72 587.8 6.7 C 587.8 4.2 589.1 3.8 590.6 3.8 C 590.6 3.78 592.1 3.8 592.1 3.8 L 592.1 5.1 C 592.1 5.1 590.85 5.14 590.8 5.1 Z M 601.5 19.8 C 601.5 19.8 601.5 17.64 601.5 17.6 C 600.7 19.2 599.3 19.9 597.7 19.9 C 595.6 19.9 594 18.6 594 16 C 593.98 15.96 594 8.5 594 8.5 L 595.5 8.5 C 595.5 8.5 595.51 15.77 595.5 15.8 C 595.5 17.6 596.5 18.6 598 18.6 C 599.8 18.6 601.4 17.2 601.4 14.3 C 601.43 14.34 601.4 8.5 601.4 8.5 L 603 8.5 L 603 19.8 L 601.5 19.8 Z M 615.5 12.1 C 615.48 12.05 615.5 19.8 615.5 19.8 L 613.9 19.8 C 613.9 19.8 613.95 12.24 613.9 12.2 C 613.9 10.7 613.1 9.7 611.5 9.7 C 609.5 9.7 607.9 11.1 607.9 13.9 C 607.86 13.86 607.9 19.8 607.9 19.8 L 606.3 19.8 L 606.3 8.5 L 607.9 8.5 C 607.9 8.5 607.86 10.6 607.9 10.6 C 608.5 9.3 609.8 8.3 611.8 8.3 C 614 8.3 615.5 9.6 615.5 12.1 Z M 628.5 19.8 L 627.1 19.8 C 627.1 19.8 627.07 17.6 627.1 17.6 C 626.5 18.9 625.2 20 623.1 20 C 620.1 20 618 17.7 618 14.1 C 618 10.6 620.1 8.3 623.1 8.3 C 625 8.3 626.4 9.2 627 10.4 C 627.01 10.42 627 3.8 627 3.8 L 628.5 3.8 L 628.5 19.8 Z M 627 14.1 C 627 11.3 625.4 9.7 623.3 9.7 C 621.1 9.7 619.6 11.4 619.6 14.1 C 619.6 16.9 621.1 18.6 623.3 18.6 C 625.5 18.6 627 16.9 627 14.1 Z M 633.5 3.8 L 631.8 3.8 L 631.8 5.7 L 633.5 5.7 L 633.5 3.8 Z M 633.4 19.8 L 631.9 19.8 L 631.9 8.5 L 633.4 8.5 L 633.4 19.8 Z M 637.6 14.5 C 637.6 17.3 639.3 18.6 641.3 18.6 C 642.8 18.6 644.3 17.9 644.6 16.3 C 644.6 16.3 646.1 16.3 646.1 16.3 C 645.6 18.9 643.4 20 641.2 20 C 638.6 20 636.1 18.2 636.1 14.2 C 636.1 10.1 638.6 8.3 641.3 8.3 C 644 8.3 646.2 10 646.2 13.8 C 646.16 13.75 646.2 14.5 646.2 14.5 C 646.2 14.5 637.57 14.51 637.6 14.5 Z M 637.6 13.2 C 637.6 13.2 644.6 13.2 644.6 13.2 C 644.6 10.9 643.1 9.7 641.2 9.7 C 639.5 9.7 637.8 10.8 637.6 13.2 Z M 654.4 9.8 C 654.4 9.8 654.06 9.83 654.1 9.8 C 651.7 9.8 650.3 11.2 650.3 13.8 C 650.32 13.8 650.3 19.8 650.3 19.8 L 648.8 19.8 L 648.8 8.5 L 650.3 8.5 C 650.3 8.5 650.3 10.58 650.3 10.6 C 650.8 9.1 652.2 8.4 653.9 8.4 C 653.93 8.38 654.4 8.4 654.4 8.4 L 654.4 9.8 Z M 662 19.8 C 662 19.8 660.32 19.78 660.3 19.8 C 658.8 19.8 657.5 19.3 657.5 16.8 C 657.48 16.82 657.5 9.9 657.5 9.9 L 655.3 9.9 L 655.3 8.5 L 657.5 8.5 L 657.5 5.3 L 659 4.9 L 659 8.5 L 661.7 8.5 L 661.7 9.9 L 659 9.9 C 659 9.9 659.01 16.8 659 16.8 C 659 17.8 659.3 18.4 660.6 18.4 C 660.57 18.4 662 18.4 662 18.4 L 662 19.8 Z M 665 14.5 C 665 17.3 666.7 18.6 668.7 18.6 C 670.2 18.6 671.7 17.9 672 16.3 C 672 16.3 673.5 16.3 673.5 16.3 C 673 18.9 670.8 20 668.6 20 C 665.9 20 663.4 18.2 663.4 14.2 C 663.4 10.1 666 8.3 668.7 8.3 C 671.4 8.3 673.5 10 673.5 13.8 C 673.54 13.75 673.5 14.5 673.5 14.5 C 673.5 14.5 664.96 14.51 665 14.5 Z M 665 13.2 C 665 13.2 672 13.2 672 13.2 C 672 10.9 670.5 9.7 668.6 9.7 C 666.9 9.7 665.2 10.8 665 13.2 Z M 684.5 16.6 C 684.5 18.9 682.5 20 680.2 20 C 677.8 20 675.6 18.8 675.3 16.3 C 675.3 16.3 677 16.3 677 16.3 C 677.2 18 678.7 18.6 680.2 18.6 C 681.7 18.6 683 18.1 683 16.8 C 683 15.5 681.7 15.2 680.3 15 C 678.2 14.6 675.6 14.2 675.6 11.6 C 675.6 9.4 677.5 8.3 679.8 8.3 C 682.2 8.3 684.1 9.4 684.3 11.7 C 684.3 11.7 682.7 11.7 682.7 11.7 C 682.6 10.3 681.3 9.7 679.8 9.7 C 678.2 9.7 677.2 10.4 677.2 11.5 C 677.2 13 678.6 13.2 680.3 13.5 C 682.3 13.8 684.5 14.1 684.5 16.6 Z M 697.9 19.8 L 696.2 19.8 L 690.7 4 L 692.5 4 L 697 17.9 L 701.7 4 L 703.3 4 L 697.9 19.8 Z M 705.2 14.5 C 705.3 17.3 707 18.6 709 18.6 C 710.5 18.6 711.9 17.9 712.3 16.3 C 712.3 16.3 713.7 16.3 713.7 16.3 C 713.2 18.9 711 20 708.9 20 C 706.2 20 703.7 18.2 703.7 14.2 C 703.7 10.1 706.2 8.3 709 8.3 C 711.6 8.3 713.8 10 713.8 13.8 C 713.8 13.75 713.8 14.5 713.8 14.5 C 713.8 14.5 705.21 14.51 705.2 14.5 Z M 705.3 13.2 C 705.3 13.2 712.2 13.2 712.2 13.2 C 712.2 10.9 710.8 9.7 708.9 9.7 C 707.1 9.7 705.5 10.8 705.3 13.2 Z M 722.1 9.8 C 722.1 9.8 721.7 9.83 721.7 9.8 C 719.3 9.8 718 11.2 718 13.8 C 717.96 13.8 718 19.8 718 19.8 L 716.4 19.8 L 716.4 8.5 L 717.9 8.5 C 717.9 8.5 717.94 10.58 717.9 10.6 C 718.5 9.1 719.8 8.4 721.6 8.4 C 721.57 8.38 722.1 8.4 722.1 8.4 L 722.1 9.8 Z M 732.4 16.6 C 732.4 18.9 730.3 20 728.1 20 C 725.7 20 723.4 18.8 723.2 16.3 C 723.2 16.3 724.8 16.3 724.8 16.3 C 725.1 18 726.6 18.6 728.1 18.6 C 729.6 18.6 730.8 18.1 730.8 16.8 C 730.8 15.5 729.5 15.2 728.2 15 C 726 14.6 723.5 14.2 723.5 11.6 C 723.5 9.4 725.4 8.3 727.7 8.3 C 730.1 8.3 732 9.4 732.1 11.7 C 732.1 11.7 730.5 11.7 730.5 11.7 C 730.4 10.3 729.1 9.7 727.7 9.7 C 726.1 9.7 725.1 10.4 725.1 11.5 C 725.1 13 726.4 13.2 728.1 13.5 C 730.2 13.8 732.4 14.1 732.4 16.6 Z M 740.1 19.8 C 740.1 19.8 738.43 19.78 738.4 19.8 C 736.9 19.8 735.6 19.3 735.6 16.8 C 735.6 16.82 735.6 9.9 735.6 9.9 L 733.4 9.9 L 733.4 8.5 L 735.6 8.5 L 735.6 5.3 L 737.1 4.9 L 737.1 8.5 L 739.9 8.5 L 739.9 9.9 L 737.1 9.9 C 737.1 9.9 737.13 16.8 737.1 16.8 C 737.1 17.8 737.4 18.4 738.7 18.4 C 738.69 18.4 740.1 18.4 740.1 18.4 L 740.1 19.8 Z M 743.7 6.2 L 743.7 4.3 L 745.5 4.3 L 745.5 6.2 L 743.7 6.2 Z M 747.8 6.2 L 747.8 4.3 L 749.6 4.3 L 749.6 6.2 L 747.8 6.2 Z M 749.2 17.7 C 748.3 19.4 746.6 20 745.2 20 C 743.3 20 741.6 18.9 741.6 16.7 C 741.6 14.6 743.1 13.6 745 13.4 C 745 13.4 747.7 13 747.7 13 C 748.5 12.9 749.2 12.6 749.2 11.6 C 749.2 10.3 748.1 9.6 746.5 9.6 C 744.8 9.6 743.8 10.4 743.5 11.7 C 743.5 11.7 742 11.7 742 11.7 C 742.3 9.4 744.1 8.3 746.6 8.3 C 749.2 8.3 750.7 9.5 750.7 12 C 750.72 11.99 750.7 19.8 750.7 19.8 L 749.2 19.8 C 749.2 19.8 749.23 17.72 749.2 17.7 Z M 747.4 14.3 C 747.4 14.3 745.6 14.5 745.6 14.5 C 744.2 14.7 743.1 15.2 743.1 16.6 C 743.1 18 744.2 18.6 745.5 18.6 C 747.2 18.6 749.2 17.3 749.2 14.9 C 749.2 14.9 749.2 13.8 749.2 13.8 C 748.8 14.1 748.1 14.2 747.4 14.3 Z M 763 12.1 C 763.03 12.05 763 19.8 763 19.8 L 761.5 19.8 C 761.5 19.8 761.49 12.24 761.5 12.2 C 761.5 10.7 760.6 9.7 759 9.7 C 757.1 9.7 755.4 11.1 755.4 13.9 C 755.4 13.86 755.4 19.8 755.4 19.8 L 753.9 19.8 L 753.9 8.5 L 755.4 8.5 C 755.4 8.5 755.4 10.6 755.4 10.6 C 756.1 9.3 757.3 8.3 759.3 8.3 C 761.6 8.3 763 9.6 763 12.1 Z M 776.1 19.8 L 774.6 19.8 C 774.6 19.8 774.62 17.6 774.6 17.6 C 774.1 18.9 772.7 20 770.6 20 C 767.6 20 765.5 17.7 765.5 14.1 C 765.5 10.6 767.6 8.3 770.6 8.3 C 772.5 8.3 773.9 9.2 774.6 10.4 C 774.55 10.42 774.6 3.8 774.6 3.8 L 776.1 3.8 L 776.1 19.8 Z M 774.5 14.1 C 774.5 11.3 773 9.7 770.8 9.7 C 768.6 9.7 767.1 11.4 767.1 14.1 C 767.1 16.9 768.6 18.6 770.8 18.6 C 773 18.6 774.5 16.9 774.5 14.1 Z M 788.6 12.1 C 788.6 12.05 788.6 19.8 788.6 19.8 L 787.1 19.8 C 787.1 19.8 787.07 12.24 787.1 12.2 C 787.1 10.7 786.2 9.7 784.6 9.7 C 782.7 9.7 781 11.1 781 13.9 C 780.98 13.86 781 19.8 781 19.8 L 779.4 19.8 L 779.4 8.5 L 781 8.5 C 781 8.5 780.98 10.6 781 10.6 C 781.7 9.3 782.9 8.3 784.9 8.3 C 787.1 8.3 788.6 9.6 788.6 12.1 Z M 793.5 3.8 L 791.8 3.8 L 791.8 5.7 L 793.5 5.7 L 793.5 3.8 Z M 793.4 19.8 L 791.9 19.8 L 791.9 8.5 L 793.4 8.5 L 793.4 19.8 Z M 805.1 16.6 C 805.1 18.9 803.1 20 800.8 20 C 798.4 20 796.1 18.8 795.9 16.3 C 795.9 16.3 797.5 16.3 797.5 16.3 C 797.8 18 799.3 18.6 800.8 18.6 C 802.3 18.6 803.5 18.1 803.5 16.8 C 803.5 15.5 802.2 15.2 800.9 15 C 798.7 14.6 796.2 14.2 796.2 11.6 C 796.2 9.4 798.1 8.3 800.4 8.3 C 802.8 8.3 804.7 9.4 804.8 11.7 C 804.8 11.7 803.2 11.7 803.2 11.7 C 803.1 10.3 801.8 9.7 800.4 9.7 C 798.8 9.7 797.8 10.4 797.8 11.5 C 797.8 13 799.1 13.2 800.8 13.5 C 802.9 13.8 805.1 14.1 805.1 16.6 Z " stroke="none" fill="#fff"/>  </g></svg>