<?xml version="1.0" standalone="no"?><!DOCTYPE svg PUBLIC "-//W3C//DTD SVG 1.1//EN" "http://www.w3.org/Graphics/SVG/1.1/DTD/svg11.dtd"><svg xmlns="http://www.w3.org/2000/svg" version="1.1" width="144px" height="94.5px" viewBox="0 0 144 94.5">  <desc>positive Renditen</desc>  <defs/>  <g id="Polygon9989">    <path d="M 15.1 65.3 L 9.5 56.6 L 6.2 56.6 L 6.2 65.3 L 2.2 65.3 L 2.2 43.6 C 2.2 43.6 10.67 43.57 10.7 43.6 C 15.6 43.6 17.9 46.7 17.9 49.9 C 17.9 52.4 16.5 54.9 13.7 55.9 C 13.72 55.86 19.9 65.3 19.9 65.3 L 15.1 65.3 Z M 13.9 50 C 13.9 48.7 13.1 47.3 10.8 47.3 C 10.85 47.34 6.2 47.3 6.2 47.3 L 6.2 52.9 C 6.2 52.9 10.53 52.93 10.5 52.9 C 12.8 52.9 13.9 51.5 13.9 50 Z M 24.2 58.5 C 24.3 61.1 26.2 62.3 28.4 62.3 C 29.9 62.3 31.3 61.7 31.8 60.2 C 31.8 60.2 35.3 60.2 35.3 60.2 C 34.6 63.8 31.5 65.7 28.2 65.7 C 24.3 65.7 20.5 63.1 20.5 57.4 C 20.5 51.9 24.1 49 28.2 49 C 32.1 49 35.4 51.6 35.4 56.9 C 35.38 56.91 35.4 58.5 35.4 58.5 C 35.4 58.5 24.24 58.47 24.2 58.5 Z M 24.3 55.7 C 24.3 55.7 31.6 55.7 31.6 55.7 C 31.6 53.5 30.1 52.4 28.2 52.4 C 26.4 52.4 24.7 53.3 24.3 55.7 Z M 52.2 55 C 52.2 54.99 52.2 65.3 52.2 65.3 L 48.3 65.3 C 48.3 65.3 48.34 55.34 48.3 55.3 C 48.3 53.5 47.3 52.5 45.5 52.5 C 43.3 52.5 42 54.1 42 56.7 C 41.99 56.68 42 65.3 42 65.3 L 38.1 65.3 L 38.1 49.3 L 42 49.3 C 42 49.3 41.96 51.63 42 51.6 C 42.9 50.2 44.2 49 46.8 49 C 50.5 49 52.2 51.2 52.2 55 Z M 70.5 65.3 L 66.8 65.3 C 66.8 65.3 66.76 62.85 66.8 62.9 C 65.9 64.7 64 65.7 61.8 65.7 C 58.1 65.7 54.8 62.9 54.8 57.3 C 54.8 51.8 58.1 49 61.8 49 C 63.9 49 65.7 49.9 66.7 51.4 C 66.67 51.43 66.7 43.2 66.7 43.2 L 70.5 43.2 L 70.5 65.3 Z M 66.8 57.3 C 66.8 54 64.8 52.4 62.7 52.4 C 60.6 52.4 58.7 54 58.7 57.3 C 58.7 60.5 60.6 62.1 62.7 62.1 C 64.8 62.1 66.8 60.6 66.8 57.3 Z M 74.2 47.2 L 78.2 47.2 L 78.2 42.8 L 74.2 42.8 L 74.2 47.2 Z M 74.3 49.3 L 78.1 49.3 L 78.1 65.3 L 74.3 65.3 L 74.3 49.3 Z M 90 65.3 C 90 65.3 87.52 65.32 87.5 65.3 C 84.5 65.3 82.6 64.4 82.6 60.1 C 82.62 60.1 82.6 52.8 82.6 52.8 L 79.7 52.8 L 79.7 49.3 L 82.6 49.3 L 82.6 45.7 L 86.5 44.6 L 86.5 49.3 L 89.7 49.3 L 89.7 52.8 L 86.5 52.8 C 86.5 52.8 86.48 60.27 86.5 60.3 C 86.5 61.2 86.7 61.9 88.1 61.9 C 88.1 61.9 90 61.9 90 61.9 L 90 65.3 Z M 94.9 58.5 C 95 61.1 96.9 62.3 99.1 62.3 C 100.6 62.3 102 61.7 102.5 60.2 C 102.5 60.2 106 60.2 106 60.2 C 105.3 63.8 102.2 65.7 98.9 65.7 C 95 65.7 91.2 63.1 91.2 57.4 C 91.2 51.9 94.8 49 98.9 49 C 102.8 49 106.1 51.6 106.1 56.9 C 106.08 56.91 106.1 58.5 106.1 58.5 C 106.1 58.5 94.94 58.47 94.9 58.5 Z M 95 55.7 C 95 55.7 102.3 55.7 102.3 55.7 C 102.3 53.5 100.8 52.4 98.9 52.4 C 97.1 52.4 95.4 53.3 95 55.7 Z M 122.9 55 C 122.9 54.99 122.9 65.3 122.9 65.3 L 119 65.3 C 119 65.3 119.04 55.34 119 55.3 C 119 53.5 118 52.5 116.2 52.5 C 114 52.5 112.7 54.1 112.7 56.7 C 112.69 56.68 112.7 65.3 112.7 65.3 L 108.8 65.3 L 108.8 49.3 L 112.7 49.3 C 112.7 49.3 112.66 51.63 112.7 51.6 C 113.6 50.2 114.9 49 117.5 49 C 121.2 49 122.9 51.2 122.9 55 Z " stroke="none" fill="#000"/>  </g>  <g id="Polygon9988">    <path d="M 17.6 19.1 C 17.6 24.8 14 27.4 10.3 27.4 C 8.1 27.4 6.6 26.5 5.7 25.4 C 5.74 25.4 5.7 33.3 5.7 33.3 L 1.9 33.3 L 1.9 11.3 L 5.7 11.3 C 5.7 11.3 5.65 13.86 5.7 13.9 C 6.5 12.1 8.3 11 10.6 11 C 14.4 11 17.6 13.7 17.6 19.1 Z M 13.7 19.3 C 13.7 16 11.8 14.6 9.7 14.6 C 7.6 14.6 5.6 16 5.6 19.3 C 5.6 22.6 7.6 24 9.7 24 C 11.8 24 13.7 22.5 13.7 19.3 Z M 35 19.3 C 35 24.6 31.6 27.7 27.1 27.7 C 22.7 27.7 19.3 24.6 19.3 19.3 C 19.3 14.2 22.7 11 27.1 11 C 31.6 11 35 14.2 35 19.3 Z M 23.3 19.3 C 23.3 22.6 25.1 24.1 27.2 24.1 C 29.5 24.1 31 22.3 31 19.3 C 31 16.1 29.3 14.6 27.1 14.6 C 24.8 14.6 23.3 16.4 23.3 19.3 Z M 50.5 22.4 C 50.5 26 47.3 27.7 43.7 27.7 C 40.4 27.7 36.8 26.2 36.6 22.2 C 36.6 22.2 40.5 22.2 40.5 22.2 C 40.7 23.8 42.1 24.5 43.9 24.5 C 45.6 24.5 46.7 24 46.7 22.7 C 46.7 21.7 46 21.5 43.8 21.1 C 40.6 20.6 37.1 20.1 37.1 16.1 C 37.1 12.5 40.1 11 43.4 11 C 47.2 11 49.9 12.9 50.1 16.4 C 50.1 16.4 46.4 16.4 46.4 16.4 C 46.2 14.8 45.1 14.2 43.5 14.2 C 41.6 14.2 40.8 15.1 40.8 16 C 40.8 17.3 42.2 17.5 44.2 17.8 C 47 18.2 50.5 18.6 50.5 22.4 Z M 53 9.2 L 57.1 9.2 L 57.1 4.8 L 53 4.8 L 53 9.2 Z M 53.1 11.3 L 57 11.3 L 57 27.3 L 53.1 27.3 L 53.1 11.3 Z M 68.9 27.3 C 68.9 27.3 66.35 27.32 66.4 27.3 C 63.4 27.3 61.5 26.4 61.5 22.1 C 61.45 22.1 61.5 14.8 61.5 14.8 L 58.5 14.8 L 58.5 11.3 L 61.5 11.3 L 61.5 7.7 L 65.3 6.6 L 65.3 11.3 L 68.5 11.3 L 68.5 14.8 L 65.3 14.8 C 65.3 14.8 65.31 22.27 65.3 22.3 C 65.3 23.2 65.6 23.9 66.9 23.9 C 66.93 23.9 68.9 23.9 68.9 23.9 L 68.9 27.3 Z M 70.9 9.2 L 75 9.2 L 75 4.8 L 70.9 4.8 L 70.9 9.2 Z M 71 11.3 L 74.9 11.3 L 74.9 27.3 L 71 27.3 L 71 11.3 Z M 86.7 27.3 L 82.6 27.3 L 76.7 11.3 L 80.8 11.3 L 84.7 22.7 L 88.7 11.3 L 92.7 11.3 L 86.7 27.3 Z M 97 20.5 C 97.1 23.1 98.9 24.3 101.1 24.3 C 102.6 24.3 104.1 23.7 104.5 22.2 C 104.5 22.2 108.1 22.2 108.1 22.2 C 107.4 25.8 104.2 27.7 100.9 27.7 C 97.1 27.7 93.3 25.1 93.3 19.4 C 93.3 13.9 96.9 11 101 11 C 104.9 11 108.1 13.6 108.1 18.9 C 108.14 18.91 108.1 20.5 108.1 20.5 C 108.1 20.5 97 20.47 97 20.5 Z M 97.1 17.7 C 97.1 17.7 104.4 17.7 104.4 17.7 C 104.4 15.5 102.9 14.4 100.9 14.4 C 99.1 14.4 97.4 15.3 97.1 17.7 Z " stroke="none" fill="#000"/>  </g></svg>