<?xml version="1.0" standalone="no"?><!DOCTYPE svg PUBLIC "-//W3C//DTD SVG 1.1//EN" "http://www.w3.org/Graphics/SVG/1.1/DTD/svg11.dtd"><svg xmlns="http://www.w3.org/2000/svg" version="1.1" width="862px" height="96.3px" viewBox="0 -5 862 96.3" style="top:-5px">  <desc>In this environment, as an investor, you want someone who is active and knows where the real value is</desc>  <defs/>  <g id="Polygon12758">    <path d="M 21.4 68.5 L 17.3 68.5 L 13.7 57.2 L 10.1 68.5 L 6 68.5 L 0.2 50.9 L 4.7 50.9 L 8.2 62.7 L 11.7 50.9 L 15.9 50.9 L 19.5 62.7 L 22.9 50.9 L 27.3 50.9 L 21.4 68.5 Z M 45.1 57.2 C 45.06 57.15 45.1 68.5 45.1 68.5 L 40.8 68.5 C 40.8 68.5 40.8 57.54 40.8 57.5 C 40.8 55.6 39.7 54.4 37.7 54.4 C 35.3 54.4 33.8 56.1 33.8 59 C 33.79 59.01 33.8 68.5 33.8 68.5 L 29.5 68.5 L 29.5 44.2 L 33.8 44.2 C 33.8 44.2 33.79 53.38 33.8 53.4 C 34.8 51.7 36.3 50.6 39.1 50.6 C 43.2 50.6 45.1 52.9 45.1 57.2 Z M 65.2 59.7 C 65.2 65.5 61.5 68.9 56.5 68.9 C 51.6 68.9 47.9 65.5 47.9 59.7 C 47.9 54 51.6 50.6 56.5 50.6 C 61.5 50.6 65.2 54 65.2 59.7 Z M 52.3 59.7 C 52.3 63.3 54.2 65 56.6 65 C 59.1 65 60.8 63 60.8 59.7 C 60.8 56.2 58.9 54.5 56.5 54.5 C 54 54.5 52.3 56.4 52.3 59.7 Z M 76.1 48.5 L 80.6 48.5 L 80.6 43.7 L 76.1 43.7 L 76.1 48.5 Z M 76.2 50.9 L 80.4 50.9 L 80.4 68.5 L 76.2 68.5 L 76.2 50.9 Z M 98.7 63.1 C 98.7 67 95.2 68.9 91.2 68.9 C 87.6 68.9 83.6 67.4 83.3 62.9 C 83.3 62.9 87.6 62.9 87.6 62.9 C 87.9 64.7 89.4 65.4 91.4 65.4 C 93.2 65.4 94.5 64.8 94.5 63.5 C 94.5 62.4 93.7 62.1 91.2 61.7 C 87.8 61.1 83.8 60.5 83.8 56.2 C 83.8 52.2 87.2 50.6 90.8 50.6 C 95 50.6 98 52.6 98.3 56.5 C 98.3 56.5 94.1 56.5 94.1 56.5 C 94 54.8 92.7 54.1 90.9 54.1 C 88.8 54.1 88 55 88 56.1 C 88 57.4 89.5 57.7 91.7 58 C 94.8 58.5 98.7 58.9 98.7 63.1 Z M 123.7 56.7 C 123.68 56.67 123.7 68.5 123.7 68.5 L 119.5 68.5 C 119.5 68.5 119.52 65.98 119.5 66 C 118.1 68.2 116 68.9 114.2 68.9 C 111.4 68.9 108.4 67.3 108.4 63.5 C 108.4 60.7 110 58.8 114.1 58.2 C 114.1 58.2 117.9 57.6 117.9 57.6 C 118.9 57.5 119.7 57.1 119.7 56 C 119.7 54.5 118.4 53.9 116.7 53.9 C 114.4 53.9 113.4 55 113.2 56.5 C 113.2 56.5 109.2 56.5 109.2 56.5 C 109.6 52.4 112.9 50.6 116.9 50.6 C 121.1 50.6 123.7 52.5 123.7 56.7 Z M 119.6 61.1 C 119.6 61.1 119.6 60.2 119.6 60.2 C 119.1 60.4 118.3 60.6 117.5 60.7 C 117.5 60.7 115.6 61 115.6 61 C 113.4 61.2 112.7 62.1 112.7 63.3 C 112.7 64.6 113.7 65.4 115.2 65.4 C 117.4 65.4 119.6 63.7 119.6 61.1 Z M 135 68.9 C 129.2 68.9 126.4 64.5 126.4 59.7 C 126.4 55 129.1 50.6 134.9 50.6 C 139.3 50.6 142.6 53.1 142.7 57.2 C 142.7 57.2 138.6 57.2 138.6 57.2 C 138.4 55.6 137.1 54.5 135.1 54.5 C 132 54.5 130.7 57 130.7 59.7 C 130.7 62.6 132 65 135 65 C 137.1 65 138.3 63.8 138.6 62.3 C 138.6 62.3 142.8 62.3 142.8 62.3 C 142.3 66.6 139.2 68.9 135 68.9 Z M 154.9 68.5 C 154.9 68.5 152.16 68.54 152.2 68.5 C 148.9 68.5 146.7 67.5 146.7 62.8 C 146.75 62.78 146.7 54.7 146.7 54.7 L 143.5 54.7 L 143.5 50.9 L 146.7 50.9 L 146.7 46.9 L 151 45.7 L 151 50.9 L 154.5 50.9 L 154.5 54.7 L 151 54.7 C 151 54.7 151.01 62.98 151 63 C 151 64 151.3 64.8 152.8 64.8 C 152.8 64.77 154.9 64.8 154.9 64.8 L 154.9 68.5 Z M 157.2 48.5 L 161.7 48.5 L 161.7 43.7 L 157.2 43.7 L 157.2 48.5 Z M 157.3 50.9 L 161.6 50.9 L 161.6 68.5 L 157.3 68.5 L 157.3 50.9 Z M 174.7 68.5 L 170.1 68.5 L 163.6 50.9 L 168.1 50.9 L 172.4 63.5 L 176.8 50.9 L 181.2 50.9 L 174.7 68.5 Z M 186 61 C 186.1 63.9 188.1 65.2 190.5 65.2 C 192.2 65.2 193.8 64.5 194.3 62.9 C 194.3 62.9 198.2 62.9 198.2 62.9 C 197.4 66.8 193.9 68.9 190.3 68.9 C 186.1 68.9 181.9 66 181.9 59.8 C 181.9 53.7 185.9 50.6 190.4 50.6 C 194.7 50.6 198.3 53.4 198.3 59.3 C 198.27 59.26 198.3 61 198.3 61 C 198.3 61 185.98 60.99 186 61 Z M 186.1 57.9 C 186.1 57.9 194.1 57.9 194.1 57.9 C 194.1 55.6 192.5 54.2 190.3 54.2 C 188.3 54.2 186.5 55.3 186.1 57.9 Z M 223.4 56.7 C 223.42 56.67 223.4 68.5 223.4 68.5 L 219.3 68.5 C 219.3 68.5 219.26 65.98 219.3 66 C 217.9 68.2 215.8 68.9 213.9 68.9 C 211.1 68.9 208.2 67.3 208.2 63.5 C 208.2 60.7 209.8 58.8 213.8 58.2 C 213.8 58.2 217.6 57.6 217.6 57.6 C 218.7 57.5 219.4 57.1 219.4 56 C 219.4 54.5 218.1 53.9 216.4 53.9 C 214.2 53.9 213.1 55 213 56.5 C 213 56.5 208.9 56.5 208.9 56.5 C 209.3 52.4 212.6 50.6 216.6 50.6 C 220.8 50.6 223.4 52.5 223.4 56.7 Z M 219.3 61.1 C 219.3 61.1 219.3 60.2 219.3 60.2 C 218.9 60.4 218.1 60.6 217.2 60.7 C 217.2 60.7 215.3 61 215.3 61 C 213.1 61.2 212.4 62.1 212.4 63.3 C 212.4 64.6 213.4 65.4 214.9 65.4 C 217.1 65.4 219.3 63.7 219.3 61.1 Z M 242.8 57.2 C 242.78 57.15 242.8 68.5 242.8 68.5 L 238.5 68.5 C 238.5 68.5 238.52 57.54 238.5 57.5 C 238.5 55.6 237.4 54.4 235.4 54.4 C 233 54.4 231.5 56.1 231.5 59 C 231.52 59.01 231.5 68.5 231.5 68.5 L 227.3 68.5 L 227.3 50.9 L 231.5 50.9 C 231.5 50.9 231.48 53.44 231.5 53.4 C 232.5 51.8 233.9 50.6 236.9 50.6 C 240.9 50.6 242.8 52.9 242.8 57.2 Z M 263 68.5 L 258.8 68.5 C 258.8 68.5 258.84 65.82 258.8 65.8 C 257.9 67.9 255.8 68.9 253.4 68.9 C 249.3 68.9 245.7 65.9 245.7 59.7 C 245.7 53.6 249.3 50.6 253.4 50.6 C 255.7 50.6 257.7 51.5 258.7 53.2 C 258.75 53.22 258.7 44.2 258.7 44.2 L 263 44.2 L 263 68.5 Z M 258.9 59.7 C 258.9 56.1 256.7 54.3 254.4 54.3 C 252.1 54.3 250 56.1 250 59.7 C 250 63.3 252.1 65 254.4 65 C 256.7 65 258.9 63.3 258.9 59.7 Z M 282.1 61.7 L 280.1 63.8 L 280.1 68.5 L 275.8 68.5 L 275.8 44.2 L 280.1 44.2 L 280.1 58 L 286.4 50.9 L 291.9 50.9 L 285 58.5 L 292.2 68.5 L 286.9 68.5 L 282.1 61.7 Z M 310.1 57.2 C 310.11 57.15 310.1 68.5 310.1 68.5 L 305.9 68.5 C 305.9 68.5 305.85 57.54 305.9 57.5 C 305.9 55.6 304.7 54.4 302.7 54.4 C 300.3 54.4 298.8 56.1 298.8 59 C 298.84 59.01 298.8 68.5 298.8 68.5 L 294.6 68.5 L 294.6 50.9 L 298.8 50.9 C 298.8 50.9 298.81 53.44 298.8 53.4 C 299.8 51.8 301.2 50.6 304.2 50.6 C 308.2 50.6 310.1 52.9 310.1 57.2 Z M 330.2 59.7 C 330.2 65.5 326.6 68.9 321.6 68.9 C 316.7 68.9 313 65.5 313 59.7 C 313 54 316.7 50.6 321.6 50.6 C 326.6 50.6 330.2 54 330.2 59.7 Z M 317.3 59.7 C 317.3 63.3 319.3 65 321.7 65 C 324.2 65 325.9 63 325.9 59.7 C 325.9 56.2 323.9 54.5 321.6 54.5 C 319 54.5 317.3 56.4 317.3 59.7 Z M 352.3 68.5 L 348.2 68.5 L 344.6 57.2 L 341 68.5 L 336.9 68.5 L 331 50.9 L 335.6 50.9 L 339.1 62.7 L 342.6 50.9 L 346.7 50.9 L 350.3 62.7 L 353.8 50.9 L 358.2 50.9 L 352.3 68.5 Z M 374.5 63.1 C 374.5 67 371 68.9 367 68.9 C 363.4 68.9 359.4 67.4 359.1 62.9 C 359.1 62.9 363.4 62.9 363.4 62.9 C 363.7 64.7 365.3 65.4 367.3 65.4 C 369.1 65.4 370.3 64.8 370.3 63.5 C 370.3 62.4 369.5 62.1 367.1 61.7 C 363.6 61.1 359.7 60.5 359.7 56.2 C 359.7 52.2 363 50.6 366.7 50.6 C 370.8 50.6 373.9 52.6 374.1 56.5 C 374.1 56.5 369.9 56.5 369.9 56.5 C 369.8 54.8 368.5 54.1 366.7 54.1 C 364.6 54.1 363.8 55 363.8 56.1 C 363.8 57.4 365.4 57.7 367.5 58 C 370.7 58.5 374.5 58.9 374.5 63.1 Z M 404.1 68.5 L 400 68.5 L 396.4 57.2 L 392.8 68.5 L 388.7 68.5 L 382.8 50.9 L 387.4 50.9 L 390.9 62.7 L 394.4 50.9 L 398.6 50.9 L 402.1 62.7 L 405.6 50.9 L 410 50.9 L 404.1 68.5 Z M 427.7 57.2 C 427.74 57.15 427.7 68.5 427.7 68.5 L 423.5 68.5 C 423.5 68.5 423.48 57.54 423.5 57.5 C 423.5 55.6 422.4 54.4 420.4 54.4 C 417.9 54.4 416.5 56.1 416.5 59 C 416.47 59.01 416.5 68.5 416.5 68.5 L 412.2 68.5 L 412.2 44.2 L 416.5 44.2 C 416.5 44.2 416.47 53.38 416.5 53.4 C 417.5 51.7 419 50.6 421.8 50.6 C 425.9 50.6 427.7 52.9 427.7 57.2 Z M 434.7 61 C 434.8 63.9 436.9 65.2 439.3 65.2 C 441 65.2 442.6 64.5 443.1 62.9 C 443.1 62.9 447 62.9 447 62.9 C 446.2 66.8 442.7 68.9 439.1 68.9 C 434.8 68.9 430.6 66 430.6 59.8 C 430.6 53.7 434.6 50.6 439.1 50.6 C 443.4 50.6 447 53.4 447 59.3 C 447.03 59.26 447 61 447 61 C 447 61 434.75 60.99 434.7 61 Z M 434.8 57.9 C 434.8 57.9 442.9 57.9 442.9 57.9 C 442.9 55.6 441.2 54.2 439.1 54.2 C 437.1 54.2 435.2 55.3 434.8 57.9 Z M 460.1 54.8 C 460.1 54.8 458.94 54.82 458.9 54.8 C 456 54.8 454.3 56.4 454.3 59.9 C 454.33 59.9 454.3 68.5 454.3 68.5 L 450.1 68.5 L 450.1 50.9 L 454.3 50.9 C 454.3 50.9 454.3 53.41 454.3 53.4 C 455.2 51.5 456.8 50.7 458.9 50.7 C 458.91 50.69 460.1 50.7 460.1 50.7 L 460.1 54.8 Z M 464.8 61 C 464.9 63.9 467 65.2 469.4 65.2 C 471 65.2 472.6 64.5 473.1 62.9 C 473.1 62.9 477 62.9 477 62.9 C 476.3 66.8 472.8 68.9 469.2 68.9 C 464.9 68.9 460.7 66 460.7 59.8 C 460.7 53.7 464.7 50.6 469.2 50.6 C 473.5 50.6 477.1 53.4 477.1 59.3 C 477.11 59.26 477.1 61 477.1 61 C 477.1 61 464.83 60.99 464.8 61 Z M 464.9 57.9 C 464.9 57.9 473 57.9 473 57.9 C 473 55.6 471.3 54.2 469.1 54.2 C 467.2 54.2 465.3 55.3 464.9 57.9 Z M 496.9 68.5 C 496.9 68.5 494.07 68.54 494.1 68.5 C 490.8 68.5 488.7 67.5 488.7 62.8 C 488.67 62.78 488.7 54.7 488.7 54.7 L 485.4 54.7 L 485.4 50.9 L 488.7 50.9 L 488.7 46.9 L 492.9 45.7 L 492.9 50.9 L 496.4 50.9 L 496.4 54.7 L 492.9 54.7 C 492.9 54.7 492.92 62.98 492.9 63 C 492.9 64 493.2 64.8 494.7 64.8 C 494.71 64.77 496.9 64.8 496.9 64.8 L 496.9 68.5 Z M 514.8 57.2 C 514.78 57.15 514.8 68.5 514.8 68.5 L 510.5 68.5 C 510.5 68.5 510.52 57.54 510.5 57.5 C 510.5 55.6 509.4 54.4 507.4 54.4 C 505 54.4 503.5 56.1 503.5 59 C 503.51 59.01 503.5 68.5 503.5 68.5 L 499.3 68.5 L 499.3 44.2 L 503.5 44.2 C 503.5 44.2 503.51 53.38 503.5 53.4 C 504.5 51.7 506 50.6 508.9 50.6 C 512.9 50.6 514.8 52.9 514.8 57.2 Z M 521.8 61 C 521.9 63.9 523.9 65.2 526.3 65.2 C 528 65.2 529.6 64.5 530.1 62.9 C 530.1 62.9 534 62.9 534 62.9 C 533.2 66.8 529.8 68.9 526.1 68.9 C 521.9 68.9 517.7 66 517.7 59.8 C 517.7 53.7 521.7 50.6 526.2 50.6 C 530.5 50.6 534.1 53.4 534.1 59.3 C 534.07 59.26 534.1 61 534.1 61 C 534.1 61 521.79 60.99 521.8 61 Z M 521.9 57.9 C 521.9 57.9 529.9 57.9 529.9 57.9 C 529.9 55.6 528.3 54.2 526.1 54.2 C 524.2 54.2 522.3 55.3 521.9 57.9 Z M 555.1 54.8 C 555.1 54.8 553.98 54.82 554 54.8 C 551 54.8 549.4 56.4 549.4 59.9 C 549.37 59.9 549.4 68.5 549.4 68.5 L 545.1 68.5 L 545.1 50.9 L 549.3 50.9 C 549.3 50.9 549.34 53.41 549.3 53.4 C 550.2 51.5 551.9 50.7 553.9 50.7 C 553.95 50.69 555.1 50.7 555.1 50.7 L 555.1 54.8 Z M 559.9 61 C 560 63.9 562 65.2 564.4 65.2 C 566.1 65.2 567.7 64.5 568.2 62.9 C 568.2 62.9 572.1 62.9 572.1 62.9 C 571.3 66.8 567.8 68.9 564.2 68.9 C 560 68.9 555.7 66 555.7 59.8 C 555.7 53.7 559.7 50.6 564.2 50.6 C 568.5 50.6 572.2 53.4 572.2 59.3 C 572.15 59.26 572.2 61 572.2 61 C 572.2 61 559.87 60.99 559.9 61 Z M 560 57.9 C 560 57.9 568 57.9 568 57.9 C 568 55.6 566.4 54.2 564.2 54.2 C 562.2 54.2 560.3 55.3 560 57.9 Z M 589.3 56.7 C 589.31 56.67 589.3 68.5 589.3 68.5 L 585.1 68.5 C 585.1 68.5 585.15 65.98 585.1 66 C 583.8 68.2 581.7 68.9 579.8 68.9 C 577 68.9 574.1 67.3 574.1 63.5 C 574.1 60.7 575.6 58.8 579.7 58.2 C 579.7 58.2 583.5 57.6 583.5 57.6 C 584.6 57.5 585.3 57.1 585.3 56 C 585.3 54.5 584 53.9 582.3 53.9 C 580.1 53.9 579 55 578.9 56.5 C 578.9 56.5 574.8 56.5 574.8 56.5 C 575.2 52.4 578.5 50.6 582.5 50.6 C 586.7 50.6 589.3 52.5 589.3 56.7 Z M 585.2 61.1 C 585.2 61.1 585.2 60.2 585.2 60.2 C 584.8 60.4 584 60.6 583.1 60.7 C 583.1 60.7 581.2 61 581.2 61 C 579 61.2 578.3 62.1 578.3 63.3 C 578.3 64.6 579.3 65.4 580.8 65.4 C 583 65.4 585.2 63.7 585.2 61.1 Z M 597.4 68.5 L 593.1 68.5 L 593.1 44.2 L 597.4 44.2 L 597.4 68.5 Z M 618.5 68.5 L 614 68.5 L 607.5 50.9 L 612 50.9 L 616.3 63.5 L 620.7 50.9 L 625.1 50.9 L 618.5 68.5 Z M 641 56.7 C 640.95 56.67 641 68.5 641 68.5 L 636.8 68.5 C 636.8 68.5 636.79 65.98 636.8 66 C 635.4 68.2 633.3 68.9 631.4 68.9 C 628.6 68.9 625.7 67.3 625.7 63.5 C 625.7 60.7 627.3 58.8 631.4 58.2 C 631.4 58.2 635.2 57.6 635.2 57.6 C 636.2 57.5 637 57.1 637 56 C 637 54.5 635.7 53.9 634 53.9 C 631.7 53.9 630.7 55 630.5 56.5 C 630.5 56.5 626.4 56.5 626.4 56.5 C 626.9 52.4 630.2 50.6 634.2 50.6 C 638.3 50.6 641 52.5 641 56.7 Z M 636.8 61.1 C 636.8 61.1 636.8 60.2 636.8 60.2 C 636.4 60.4 635.6 60.6 634.7 60.7 C 634.7 60.7 632.8 61 632.8 61 C 630.7 61.2 630 62.1 630 63.3 C 630 64.6 631 65.4 632.4 65.4 C 634.6 65.4 636.8 63.7 636.8 61.1 Z M 649 68.5 L 644.8 68.5 L 644.8 44.2 L 649 44.2 L 649 68.5 Z M 668.7 68.5 L 664.5 68.5 C 664.5 68.5 664.5 66.05 664.5 66 C 663.5 67.7 661.9 68.7 659.4 68.7 C 655.7 68.7 653 66.4 653 61.9 C 653.05 61.86 653 50.9 653 50.9 L 657.3 50.9 C 657.3 50.9 657.3 61.54 657.3 61.5 C 657.3 63.9 658.5 65 660.3 65 C 662.7 65 664.4 63.5 664.4 59.4 C 664.41 59.42 664.4 50.9 664.4 50.9 L 668.7 50.9 L 668.7 68.5 Z M 675.8 61 C 675.9 63.9 678 65.2 680.4 65.2 C 682 65.2 683.6 64.5 684.2 62.9 C 684.2 62.9 688.1 62.9 688.1 62.9 C 687.3 66.8 683.8 68.9 680.2 68.9 C 675.9 68.9 671.7 66 671.7 59.8 C 671.7 53.7 675.7 50.6 680.2 50.6 C 684.5 50.6 688.1 53.4 688.1 59.3 C 688.12 59.26 688.1 61 688.1 61 C 688.1 61 675.83 60.99 675.8 61 Z M 675.9 57.9 C 675.9 57.9 684 57.9 684 57.9 C 684 55.6 682.3 54.2 680.2 54.2 C 678.2 54.2 676.3 55.3 675.9 57.9 Z M 699 48.5 L 703.5 48.5 L 703.5 43.7 L 699 43.7 L 699 48.5 Z M 699.1 50.9 L 703.4 50.9 L 703.4 68.5 L 699.1 68.5 L 699.1 50.9 Z M 721.6 63.1 C 721.6 67 718.1 68.9 714.1 68.9 C 710.5 68.9 706.5 67.4 706.2 62.9 C 706.2 62.9 710.5 62.9 710.5 62.9 C 710.8 64.7 712.4 65.4 714.4 65.4 C 716.2 65.4 717.4 64.8 717.4 63.5 C 717.4 62.4 716.6 62.1 714.2 61.7 C 710.7 61.1 706.8 60.5 706.8 56.2 C 706.8 52.2 710.1 50.6 713.8 50.6 C 717.9 50.6 721 52.6 721.2 56.5 C 721.2 56.5 717 56.5 717 56.5 C 716.9 54.8 715.6 54.1 713.8 54.1 C 711.7 54.1 710.9 55 710.9 56.1 C 710.9 57.4 712.5 57.7 714.6 58 C 717.8 58.5 721.6 58.9 721.6 63.1 Z M 723.4 63.6 L 728.2 63.6 L 728.2 68.5 L 723.4 68.5 L 723.4 63.6 Z " stroke="none" fill="#000"/>  </g>  <g id="Polygon12757">    <path d="M 7 30.1 L 2.6 30.1 L 2.6 6.1 L 7 6.1 L 7 30.1 Z M 27.2 18.8 C 27.17 18.75 27.2 30.1 27.2 30.1 L 22.9 30.1 C 22.9 30.1 22.91 19.14 22.9 19.1 C 22.9 17.2 21.8 16 19.8 16 C 17.4 16 15.9 17.7 15.9 20.6 C 15.9 20.61 15.9 30.1 15.9 30.1 L 11.6 30.1 L 11.6 12.5 L 15.9 12.5 C 15.9 12.5 15.87 15.04 15.9 15 C 16.9 13.4 18.3 12.2 21.2 12.2 C 25.3 12.2 27.2 14.5 27.2 18.8 Z M 48.5 30.1 C 48.5 30.1 45.73 30.14 45.7 30.1 C 42.4 30.1 40.3 29.1 40.3 24.4 C 40.32 24.38 40.3 16.3 40.3 16.3 L 37.1 16.3 L 37.1 12.5 L 40.3 12.5 L 40.3 8.5 L 44.6 7.3 L 44.6 12.5 L 48.1 12.5 L 48.1 16.3 L 44.6 16.3 C 44.6 16.3 44.58 24.58 44.6 24.6 C 44.6 25.6 44.9 26.4 46.4 26.4 C 46.37 26.37 48.5 26.4 48.5 26.4 L 48.5 30.1 Z M 66.4 18.8 C 66.43 18.75 66.4 30.1 66.4 30.1 L 62.2 30.1 C 62.2 30.1 62.18 19.14 62.2 19.1 C 62.2 17.2 61.1 16 59.1 16 C 56.6 16 55.2 17.7 55.2 20.6 C 55.17 20.61 55.2 30.1 55.2 30.1 L 50.9 30.1 L 50.9 5.8 L 55.2 5.8 C 55.2 5.8 55.17 14.98 55.2 15 C 56.2 13.3 57.7 12.2 60.5 12.2 C 64.5 12.2 66.4 14.5 66.4 18.8 Z M 70.3 10.1 L 74.8 10.1 L 74.8 5.3 L 70.3 5.3 L 70.3 10.1 Z M 70.4 12.5 L 74.7 12.5 L 74.7 30.1 L 70.4 30.1 L 70.4 12.5 Z M 92.9 24.7 C 92.9 28.6 89.4 30.5 85.4 30.5 C 81.8 30.5 77.8 29 77.5 24.5 C 77.5 24.5 81.8 24.5 81.8 24.5 C 82.1 26.3 83.6 27 85.6 27 C 87.4 27 88.7 26.4 88.7 25.1 C 88.7 24 87.9 23.7 85.4 23.3 C 82 22.7 78 22.1 78 17.8 C 78 13.8 81.4 12.2 85.1 12.2 C 89.2 12.2 92.2 14.2 92.5 18.1 C 92.5 18.1 88.3 18.1 88.3 18.1 C 88.2 16.4 86.9 15.7 85.1 15.7 C 83 15.7 82.2 16.6 82.2 17.7 C 82.2 19 83.7 19.3 85.9 19.6 C 89.1 20.1 92.9 20.5 92.9 24.7 Z M 106.1 22.6 C 106.2 25.5 108.3 26.8 110.7 26.8 C 112.4 26.8 114 26.1 114.5 24.5 C 114.5 24.5 118.4 24.5 118.4 24.5 C 117.6 28.4 114.1 30.5 110.5 30.5 C 106.2 30.5 102 27.6 102 21.4 C 102 15.3 106 12.2 110.5 12.2 C 114.8 12.2 118.4 15 118.4 20.9 C 118.43 20.86 118.4 22.6 118.4 22.6 C 118.4 22.6 106.14 22.59 106.1 22.6 Z M 106.2 19.5 C 106.2 19.5 114.3 19.5 114.3 19.5 C 114.3 17.2 112.6 15.8 110.5 15.8 C 108.5 15.8 106.6 16.9 106.2 19.5 Z M 137 18.8 C 136.99 18.75 137 30.1 137 30.1 L 132.7 30.1 C 132.7 30.1 132.73 19.14 132.7 19.1 C 132.7 17.2 131.6 16 129.6 16 C 127.2 16 125.7 17.7 125.7 20.6 C 125.73 20.61 125.7 30.1 125.7 30.1 L 121.5 30.1 L 121.5 12.5 L 125.7 12.5 C 125.7 12.5 125.69 15.04 125.7 15 C 126.7 13.4 128.1 12.2 131.1 12.2 C 135.1 12.2 137 14.5 137 18.8 Z M 149.9 30.1 L 145.4 30.1 L 138.9 12.5 L 143.4 12.5 L 147.7 25.1 L 152.1 12.5 L 156.5 12.5 L 149.9 30.1 Z M 158.4 10.1 L 162.9 10.1 L 162.9 5.3 L 158.4 5.3 L 158.4 10.1 Z M 158.6 12.5 L 162.8 12.5 L 162.8 30.1 L 158.6 30.1 L 158.6 12.5 Z M 176.9 16.4 C 176.9 16.4 175.8 16.42 175.8 16.4 C 172.8 16.4 171.2 18 171.2 21.5 C 171.2 21.5 171.2 30.1 171.2 30.1 L 166.9 30.1 L 166.9 12.5 L 171.2 12.5 C 171.2 12.5 171.16 15.01 171.2 15 C 172.1 13.1 173.7 12.3 175.8 12.3 C 175.77 12.29 176.9 12.3 176.9 12.3 L 176.9 16.4 Z M 194.8 21.3 C 194.8 27.1 191.1 30.5 186.2 30.5 C 181.2 30.5 177.6 27.1 177.6 21.3 C 177.6 15.6 181.2 12.2 186.2 12.2 C 191.1 12.2 194.8 15.6 194.8 21.3 Z M 181.9 21.3 C 181.9 24.9 183.9 26.6 186.2 26.6 C 188.8 26.6 190.5 24.6 190.5 21.3 C 190.5 17.8 188.5 16.1 186.1 16.1 C 183.6 16.1 181.9 18 181.9 21.3 Z M 213.4 18.8 C 213.37 18.75 213.4 30.1 213.4 30.1 L 209.1 30.1 C 209.1 30.1 209.12 19.14 209.1 19.1 C 209.1 17.2 208 16 206 16 C 203.6 16 202.1 17.7 202.1 20.6 C 202.11 20.61 202.1 30.1 202.1 30.1 L 197.9 30.1 L 197.9 12.5 L 202.1 12.5 C 202.1 12.5 202.08 15.04 202.1 15 C 203.1 13.4 204.5 12.2 207.5 12.2 C 211.5 12.2 213.4 14.5 213.4 18.8 Z M 242.3 18.2 C 242.3 18.24 242.3 30.1 242.3 30.1 L 238 30.1 C 238 30.1 238.04 19.07 238 19.1 C 238 17 237.1 16 235.3 16 C 233.3 16 232 17.2 232 20.2 C 231.96 20.22 232 30.1 232 30.1 L 227.7 30.1 C 227.7 30.1 227.71 19.07 227.7 19.1 C 227.7 17 226.7 16 224.9 16 C 222.9 16 221.6 17.3 221.6 20.2 C 221.63 20.19 221.6 30.1 221.6 30.1 L 217.4 30.1 L 217.4 12.5 L 221.6 12.5 C 221.6 12.5 221.56 15.07 221.6 15.1 C 222.1 13.7 223.5 12.2 226.1 12.2 C 228.4 12.2 230.2 13.2 231 15.1 C 231.7 13.8 233 12.2 236.2 12.2 C 239.9 12.2 242.3 14.4 242.3 18.2 Z M 249.3 22.6 C 249.4 25.5 251.5 26.8 253.9 26.8 C 255.5 26.8 257.1 26.1 257.6 24.5 C 257.6 24.5 261.5 24.5 261.5 24.5 C 260.8 28.4 257.3 30.5 253.7 30.5 C 249.4 30.5 245.2 27.6 245.2 21.4 C 245.2 15.3 249.2 12.2 253.7 12.2 C 258 12.2 261.6 15 261.6 20.9 C 261.6 20.86 261.6 22.6 261.6 22.6 C 261.6 22.6 249.31 22.59 249.3 22.6 Z M 249.4 19.5 C 249.4 19.5 257.4 19.5 257.4 19.5 C 257.4 17.2 255.8 15.8 253.6 15.8 C 251.7 15.8 249.8 16.9 249.4 19.5 Z M 280.2 18.8 C 280.16 18.75 280.2 30.1 280.2 30.1 L 275.9 30.1 C 275.9 30.1 275.9 19.14 275.9 19.1 C 275.9 17.2 274.8 16 272.8 16 C 270.4 16 268.9 17.7 268.9 20.6 C 268.89 20.61 268.9 30.1 268.9 30.1 L 264.6 30.1 L 264.6 12.5 L 268.9 12.5 C 268.9 12.5 268.86 15.04 268.9 15 C 269.9 13.4 271.3 12.2 274.2 12.2 C 278.3 12.2 280.2 14.5 280.2 18.8 Z M 293.2 30.1 C 293.2 30.1 290.4 30.14 290.4 30.1 C 287.1 30.1 285 29.1 285 24.4 C 284.99 24.38 285 16.3 285 16.3 L 281.8 16.3 L 281.8 12.5 L 285 12.5 L 285 8.5 L 289.2 7.3 L 289.2 12.5 L 292.8 12.5 L 292.8 16.3 L 289.2 16.3 C 289.2 16.3 289.24 24.58 289.2 24.6 C 289.2 25.6 289.5 26.4 291 26.4 C 291.04 26.37 293.2 26.4 293.2 26.4 L 293.2 30.1 Z M 297.9 29.9 C 297.85 29.86 295.7 29.9 295.7 29.9 L 295.7 25.4 L 300.6 25.4 C 300.6 25.4 300.57 29.25 300.6 29.2 C 300.6 33.9 297.4 35.5 294.6 35.8 C 294.6 35.8 294.1 33.5 294.1 33.5 C 296.4 33.3 297.9 31.9 297.9 29.9 Z M 325.4 18.3 C 325.4 18.27 325.4 30.1 325.4 30.1 L 321.2 30.1 C 321.2 30.1 321.24 27.58 321.2 27.6 C 319.9 29.8 317.8 30.5 315.9 30.5 C 313.1 30.5 310.2 28.9 310.2 25.1 C 310.2 22.3 311.7 20.4 315.8 19.8 C 315.8 19.8 319.6 19.2 319.6 19.2 C 320.7 19.1 321.4 18.7 321.4 17.6 C 321.4 16.1 320.1 15.5 318.4 15.5 C 316.2 15.5 315.1 16.6 315 18.1 C 315 18.1 310.9 18.1 310.9 18.1 C 311.3 14 314.6 12.2 318.6 12.2 C 322.8 12.2 325.4 14.1 325.4 18.3 Z M 321.3 22.7 C 321.3 22.7 321.3 21.8 321.3 21.8 C 320.9 22 320.1 22.2 319.2 22.3 C 319.2 22.3 317.3 22.6 317.3 22.6 C 315.1 22.8 314.4 23.7 314.4 24.9 C 314.4 26.2 315.4 27 316.9 27 C 319.1 27 321.3 25.3 321.3 22.7 Z M 343.4 24.7 C 343.4 28.6 339.8 30.5 335.9 30.5 C 332.2 30.5 328.3 29 328 24.5 C 328 24.5 332.3 24.5 332.3 24.5 C 332.5 26.3 334.1 27 336.1 27 C 337.9 27 339.2 26.4 339.2 25.1 C 339.2 24 338.3 23.7 335.9 23.3 C 332.4 22.7 328.5 22.1 328.5 17.8 C 328.5 13.8 331.9 12.2 335.5 12.2 C 339.6 12.2 342.7 14.2 342.9 18.1 C 342.9 18.1 338.8 18.1 338.8 18.1 C 338.6 16.4 337.4 15.7 335.6 15.7 C 333.5 15.7 332.6 16.6 332.6 17.7 C 332.6 19 334.2 19.3 336.3 19.6 C 339.5 20.1 343.4 20.5 343.4 24.7 Z M 368.3 18.3 C 368.35 18.27 368.3 30.1 368.3 30.1 L 364.2 30.1 C 364.2 30.1 364.19 27.58 364.2 27.6 C 362.8 29.8 360.7 30.5 358.8 30.5 C 356 30.5 353.1 28.9 353.1 25.1 C 353.1 22.3 354.7 20.4 358.7 19.8 C 358.7 19.8 362.6 19.2 362.6 19.2 C 363.6 19.1 364.3 18.7 364.3 17.6 C 364.3 16.1 363.1 15.5 361.4 15.5 C 359.1 15.5 358.1 16.6 357.9 18.1 C 357.9 18.1 353.8 18.1 353.8 18.1 C 354.3 14 357.6 12.2 361.6 12.2 C 365.7 12.2 368.3 14.1 368.3 18.3 Z M 364.2 22.7 C 364.2 22.7 364.2 21.8 364.2 21.8 C 363.8 22 363 22.2 362.1 22.3 C 362.1 22.3 360.2 22.6 360.2 22.6 C 358.1 22.8 357.4 23.7 357.4 24.9 C 357.4 26.2 358.4 27 359.8 27 C 362 27 364.2 25.3 364.2 22.7 Z M 387.7 18.8 C 387.71 18.75 387.7 30.1 387.7 30.1 L 383.5 30.1 C 383.5 30.1 383.45 19.14 383.5 19.1 C 383.5 17.2 382.3 16 380.3 16 C 377.9 16 376.4 17.7 376.4 20.6 C 376.44 20.61 376.4 30.1 376.4 30.1 L 372.2 30.1 L 372.2 12.5 L 376.4 12.5 C 376.4 12.5 376.41 15.04 376.4 15 C 377.4 13.4 378.8 12.2 381.8 12.2 C 385.8 12.2 387.7 14.5 387.7 18.8 Z M 400.2 10.1 L 404.7 10.1 L 404.7 5.3 L 400.2 5.3 L 400.2 10.1 Z M 400.3 12.5 L 404.6 12.5 L 404.6 30.1 L 400.3 30.1 L 400.3 12.5 Z M 424.2 18.8 C 424.22 18.75 424.2 30.1 424.2 30.1 L 420 30.1 C 420 30.1 419.96 19.14 420 19.1 C 420 17.2 418.8 16 416.9 16 C 414.4 16 413 17.7 413 20.6 C 412.95 20.61 413 30.1 413 30.1 L 408.7 30.1 L 408.7 12.5 L 412.9 12.5 C 412.9 12.5 412.92 15.04 412.9 15 C 413.9 13.4 415.4 12.2 418.3 12.2 C 422.3 12.2 424.2 14.5 424.2 18.8 Z M 437.2 30.1 L 432.7 30.1 L 426.1 12.5 L 430.6 12.5 L 435 25.1 L 439.3 12.5 L 443.7 12.5 L 437.2 30.1 Z M 448.5 22.6 C 448.6 25.5 450.6 26.8 453 26.8 C 454.7 26.8 456.3 26.1 456.8 24.5 C 456.8 24.5 460.7 24.5 460.7 24.5 C 460 28.4 456.5 30.5 452.9 30.5 C 448.6 30.5 444.4 27.6 444.4 21.4 C 444.4 15.3 448.4 12.2 452.9 12.2 C 457.2 12.2 460.8 15 460.8 20.9 C 460.79 20.86 460.8 22.6 460.8 22.6 C 460.8 22.6 448.5 22.59 448.5 22.6 Z M 448.6 19.5 C 448.6 19.5 456.6 19.5 456.6 19.5 C 456.6 17.2 455 15.8 452.8 15.8 C 450.9 15.8 449 16.9 448.6 19.5 Z M 477.9 24.7 C 477.9 28.6 474.4 30.5 470.5 30.5 C 466.8 30.5 462.8 29 462.6 24.5 C 462.6 24.5 466.8 24.5 466.8 24.5 C 467.1 26.3 468.7 27 470.7 27 C 472.5 27 473.8 26.4 473.8 25.1 C 473.8 24 472.9 23.7 470.5 23.3 C 467 22.7 463.1 22.1 463.1 17.8 C 463.1 13.8 466.5 12.2 470.1 12.2 C 474.2 12.2 477.3 14.2 477.5 18.1 C 477.5 18.1 473.4 18.1 473.4 18.1 C 473.2 16.4 472 15.7 470.2 15.7 C 468.1 15.7 467.2 16.6 467.2 17.7 C 467.2 19 468.8 19.3 470.9 19.6 C 474.1 20.1 477.9 20.5 477.9 24.7 Z M 489.8 30.1 C 489.8 30.1 487.06 30.14 487.1 30.1 C 483.8 30.1 481.7 29.1 481.7 24.4 C 481.66 24.38 481.7 16.3 481.7 16.3 L 478.4 16.3 L 478.4 12.5 L 481.7 12.5 L 481.7 8.5 L 485.9 7.3 L 485.9 12.5 L 489.4 12.5 L 489.4 16.3 L 485.9 16.3 C 485.9 16.3 485.91 24.58 485.9 24.6 C 485.9 25.6 486.2 26.4 487.7 26.4 C 487.7 26.37 489.8 26.4 489.8 26.4 L 489.8 30.1 Z M 508.4 21.3 C 508.4 27.1 504.7 30.5 499.7 30.5 C 494.8 30.5 491.1 27.1 491.1 21.3 C 491.1 15.6 494.8 12.2 499.7 12.2 C 504.7 12.2 508.4 15.6 508.4 21.3 Z M 495.5 21.3 C 495.5 24.9 497.4 26.6 499.8 26.6 C 502.3 26.6 504 24.6 504 21.3 C 504 17.8 502.1 16.1 499.7 16.1 C 497.2 16.1 495.5 18 495.5 21.3 Z M 521.4 16.4 C 521.4 16.4 520.28 16.42 520.3 16.4 C 517.3 16.4 515.7 18 515.7 21.5 C 515.67 21.5 515.7 30.1 515.7 30.1 L 511.4 30.1 L 511.4 12.5 L 515.6 12.5 C 515.6 12.5 515.64 15.01 515.6 15 C 516.5 13.1 518.2 12.3 520.2 12.3 C 520.25 12.29 521.4 12.3 521.4 12.3 L 521.4 16.4 Z M 524.2 29.9 C 524.15 29.86 522 29.9 522 29.9 L 522 25.4 L 526.9 25.4 C 526.9 25.4 526.87 29.25 526.9 29.2 C 526.9 33.9 523.7 35.5 520.9 35.8 C 520.9 35.8 520.4 33.5 520.4 33.5 C 522.7 33.3 524.2 31.9 524.2 29.9 Z M 552.1 12.5 C 552.1 12.5 544.41 32.8 544.4 32.8 C 543.6 34.9 541.8 35.8 539.4 35.8 C 539.42 35.78 536.8 35.8 536.8 35.8 L 536.8 32 C 536.8 32 538.68 32 538.7 32 C 540.1 32 540.8 31.5 541.2 30.3 C 541.21 30.27 541.5 29.4 541.5 29.4 L 534.9 12.5 L 539.4 12.5 L 543.6 24.1 L 547.7 12.5 L 552.1 12.5 Z M 570 21.3 C 570 27.1 566.3 30.5 561.3 30.5 C 556.4 30.5 552.7 27.1 552.7 21.3 C 552.7 15.6 556.4 12.2 561.3 12.2 C 566.3 12.2 570 15.6 570 21.3 Z M 557.1 21.3 C 557.1 24.9 559 26.6 561.4 26.6 C 563.9 26.6 565.6 24.6 565.6 21.3 C 565.6 17.8 563.7 16.1 561.3 16.1 C 558.8 16.1 557.1 18 557.1 21.3 Z M 588.5 30.1 L 584.3 30.1 C 584.3 30.1 584.31 27.65 584.3 27.6 C 583.3 29.3 581.7 30.3 579.2 30.3 C 575.5 30.3 572.9 28 572.9 23.5 C 572.86 23.46 572.9 12.5 572.9 12.5 L 577.1 12.5 C 577.1 12.5 577.11 23.14 577.1 23.1 C 577.1 25.5 578.3 26.6 580.1 26.6 C 582.5 26.6 584.2 25.1 584.2 21 C 584.22 21.02 584.2 12.5 584.2 12.5 L 588.5 12.5 L 588.5 30.1 Z M 620 30.1 L 615.9 30.1 L 612.3 18.8 L 608.7 30.1 L 604.6 30.1 L 598.7 12.5 L 603.3 12.5 L 606.7 24.3 L 610.3 12.5 L 614.4 12.5 L 618 24.3 L 621.5 12.5 L 625.8 12.5 L 620 30.1 Z M 641.9 18.3 C 641.88 18.27 641.9 30.1 641.9 30.1 L 637.7 30.1 C 637.7 30.1 637.72 27.58 637.7 27.6 C 636.3 29.8 634.2 30.5 632.4 30.5 C 629.6 30.5 626.6 28.9 626.6 25.1 C 626.6 22.3 628.2 20.4 632.3 19.8 C 632.3 19.8 636.1 19.2 636.1 19.2 C 637.1 19.1 637.9 18.7 637.9 17.6 C 637.9 16.1 636.6 15.5 634.9 15.5 C 632.6 15.5 631.6 16.6 631.4 18.1 C 631.4 18.1 627.4 18.1 627.4 18.1 C 627.8 14 631.1 12.2 635.1 12.2 C 639.3 12.2 641.9 14.1 641.9 18.3 Z M 637.8 22.7 C 637.8 22.7 637.8 21.8 637.8 21.8 C 637.3 22 636.5 22.2 635.7 22.3 C 635.7 22.3 633.8 22.6 633.8 22.6 C 631.6 22.8 630.9 23.7 630.9 24.9 C 630.9 26.2 631.9 27 633.4 27 C 635.6 27 637.8 25.3 637.8 22.7 Z M 661.2 18.8 C 661.24 18.75 661.2 30.1 661.2 30.1 L 657 30.1 C 657 30.1 656.98 19.14 657 19.1 C 657 17.2 655.9 16 653.9 16 C 651.4 16 650 17.7 650 20.6 C 649.98 20.61 650 30.1 650 30.1 L 645.7 30.1 L 645.7 12.5 L 649.9 12.5 C 649.9 12.5 649.94 15.04 649.9 15 C 650.9 13.4 652.4 12.2 655.3 12.2 C 659.4 12.2 661.2 14.5 661.2 18.8 Z M 674.3 30.1 C 674.3 30.1 671.48 30.14 671.5 30.1 C 668.2 30.1 666.1 29.1 666.1 24.4 C 666.07 24.38 666.1 16.3 666.1 16.3 L 662.8 16.3 L 662.8 12.5 L 666.1 12.5 L 666.1 8.5 L 670.3 7.3 L 670.3 12.5 L 673.8 12.5 L 673.8 16.3 L 670.3 16.3 C 670.3 16.3 670.33 24.58 670.3 24.6 C 670.3 25.6 670.6 26.4 672.1 26.4 C 672.12 26.37 674.3 26.4 674.3 26.4 L 674.3 30.1 Z M 698.5 24.7 C 698.5 28.6 694.9 30.5 691 30.5 C 687.3 30.5 683.4 29 683.1 24.5 C 683.1 24.5 687.4 24.5 687.4 24.5 C 687.6 26.3 689.2 27 691.2 27 C 693 27 694.3 26.4 694.3 25.1 C 694.3 24 693.4 23.7 691 23.3 C 687.5 22.7 683.6 22.1 683.6 17.8 C 683.6 13.8 687 12.2 690.6 12.2 C 694.7 12.2 697.8 14.2 698 18.1 C 698 18.1 693.9 18.1 693.9 18.1 C 693.7 16.4 692.5 15.7 690.7 15.7 C 688.6 15.7 687.7 16.6 687.7 17.7 C 687.7 19 689.3 19.3 691.4 19.6 C 694.6 20.1 698.5 20.5 698.5 24.7 Z M 717.5 21.3 C 717.5 27.1 713.8 30.5 708.8 30.5 C 703.9 30.5 700.2 27.1 700.2 21.3 C 700.2 15.6 703.9 12.2 708.8 12.2 C 713.8 12.2 717.5 15.6 717.5 21.3 Z M 704.6 21.3 C 704.6 24.9 706.5 26.6 708.9 26.6 C 711.4 26.6 713.1 24.6 713.1 21.3 C 713.1 17.8 711.2 16.1 708.8 16.1 C 706.3 16.1 704.6 18 704.6 21.3 Z M 745.4 18.2 C 745.43 18.24 745.4 30.1 745.4 30.1 L 741.2 30.1 C 741.2 30.1 741.17 19.07 741.2 19.1 C 741.2 17 740.2 16 738.4 16 C 736.4 16 735.1 17.2 735.1 20.2 C 735.09 20.22 735.1 30.1 735.1 30.1 L 730.8 30.1 C 730.8 30.1 730.84 19.07 730.8 19.1 C 730.8 17 729.8 16 728.1 16 C 726.1 16 724.8 17.3 724.8 20.2 C 724.76 20.19 724.8 30.1 724.8 30.1 L 720.5 30.1 L 720.5 12.5 L 724.7 12.5 C 724.7 12.5 724.69 15.07 724.7 15.1 C 725.2 13.7 726.6 12.2 729.3 12.2 C 731.5 12.2 733.3 13.2 734.1 15.1 C 734.8 13.8 736.1 12.2 739.3 12.2 C 743 12.2 745.4 14.4 745.4 18.2 Z M 752.4 22.6 C 752.5 25.5 754.6 26.8 757 26.8 C 758.6 26.8 760.2 26.1 760.8 24.5 C 760.8 24.5 764.7 24.5 764.7 24.5 C 763.9 28.4 760.4 30.5 756.8 30.5 C 752.5 30.5 748.3 27.6 748.3 21.4 C 748.3 15.3 752.3 12.2 756.8 12.2 C 761.1 12.2 764.7 15 764.7 20.9 C 764.73 20.86 764.7 22.6 764.7 22.6 C 764.7 22.6 752.44 22.59 752.4 22.6 Z M 752.5 19.5 C 752.5 19.5 760.6 19.5 760.6 19.5 C 760.6 17.2 758.9 15.8 756.8 15.8 C 754.8 15.8 752.9 16.9 752.5 19.5 Z M 783.9 21.3 C 783.9 27.1 780.2 30.5 775.3 30.5 C 770.3 30.5 766.6 27.1 766.6 21.3 C 766.6 15.6 770.3 12.2 775.3 12.2 C 780.2 12.2 783.9 15.6 783.9 21.3 Z M 771 21.3 C 771 24.9 773 26.6 775.3 26.6 C 777.8 26.6 779.5 24.6 779.5 21.3 C 779.5 17.8 777.6 16.1 775.2 16.1 C 772.7 16.1 771 18 771 21.3 Z M 802.5 18.8 C 802.45 18.75 802.5 30.1 802.5 30.1 L 798.2 30.1 C 798.2 30.1 798.2 19.14 798.2 19.1 C 798.2 17.2 797.1 16 795.1 16 C 792.7 16 791.2 17.7 791.2 20.6 C 791.19 20.61 791.2 30.1 791.2 30.1 L 786.9 30.1 L 786.9 12.5 L 791.2 12.5 C 791.2 12.5 791.16 15.04 791.2 15 C 792.2 13.4 793.6 12.2 796.5 12.2 C 800.6 12.2 802.5 14.5 802.5 18.8 Z M 809.5 22.6 C 809.6 25.5 811.6 26.8 814 26.8 C 815.7 26.8 817.3 26.1 817.8 24.5 C 817.8 24.5 821.7 24.5 821.7 24.5 C 820.9 28.4 817.4 30.5 813.8 30.5 C 809.6 30.5 805.3 27.6 805.3 21.4 C 805.3 15.3 809.3 12.2 813.8 12.2 C 818.1 12.2 821.8 15 821.8 20.9 C 821.75 20.86 821.8 22.6 821.8 22.6 C 821.8 22.6 809.46 22.59 809.5 22.6 Z M 809.6 19.5 C 809.6 19.5 817.6 19.5 817.6 19.5 C 817.6 17.2 816 15.8 813.8 15.8 C 811.8 15.8 809.9 16.9 809.6 19.5 Z " stroke="none" fill="#000"/>  </g></svg>