<?xml version="1.0" standalone="no"?><!DOCTYPE svg PUBLIC "-//W3C//DTD SVG 1.1//EN" "http://www.w3.org/Graphics/SVG/1.1/DTD/svg11.dtd"><svg xmlns="http://www.w3.org/2000/svg" version="1.1" width="418px" height="90.4px" viewBox="0 0 418 90.4">  <desc>Welche Funktion haben Anleihen im Portfolio angesichts historisch niedriger (und sogar negativer) Zinsen</desc>  <defs/>  <g id="Polygon9671">    <path d="M 7.1 73 C 7.1 73 6.2 74.1 6.2 74.1 C 2.8 71.9 0.4 67.9 0.4 63 C 0.4 58.2 2.8 54.1 6.2 51.9 C 6.2 51.9 7.1 53 7.1 53 C 4.3 55.3 2.4 58.8 2.4 63 C 2.4 67.3 4.3 70.8 7.1 73 Z M 18.2 70.2 L 15.4 70.2 C 15.4 70.2 15.44 68.54 15.4 68.5 C 14.8 69.6 13.7 70.3 12.1 70.3 C 9.7 70.3 7.9 68.8 7.9 65.8 C 7.92 65.79 7.9 58.6 7.9 58.6 L 10.7 58.6 C 10.7 58.6 10.71 65.58 10.7 65.6 C 10.7 67.2 11.5 67.8 12.7 67.8 C 14.2 67.8 15.4 66.9 15.4 64.2 C 15.37 64.2 15.4 58.6 15.4 58.6 L 18.2 58.6 L 18.2 70.2 Z M 31.1 62.7 C 31.08 62.71 31.1 70.2 31.1 70.2 L 28.3 70.2 C 28.3 70.2 28.29 62.96 28.3 63 C 28.3 61.7 27.6 60.9 26.2 60.9 C 24.7 60.9 23.7 62 23.7 63.9 C 23.69 63.92 23.7 70.2 23.7 70.2 L 20.9 70.2 L 20.9 58.6 L 23.7 58.6 C 23.7 58.6 23.67 60.27 23.7 60.3 C 24.3 59.2 25.3 58.4 27.2 58.4 C 29.8 58.4 31.1 59.9 31.1 62.7 Z M 44.4 70.2 L 41.6 70.2 C 41.6 70.2 41.62 68.4 41.6 68.4 C 41 69.7 39.6 70.4 38.1 70.4 C 35.3 70.4 33 68.4 33 64.4 C 33 60.4 35.3 58.4 38.1 58.4 C 39.6 58.4 40.9 59 41.6 60.1 C 41.56 60.12 41.6 54.2 41.6 54.2 L 44.4 54.2 L 44.4 70.2 Z M 41.6 64.4 C 41.6 62 40.2 60.9 38.7 60.9 C 37.2 60.9 35.8 62 35.8 64.4 C 35.8 66.7 37.2 67.9 38.7 67.9 C 40.2 67.9 41.6 66.7 41.6 64.4 Z M 61.6 66.6 C 61.6 69.2 59.3 70.4 56.7 70.4 C 54.3 70.4 51.7 69.4 51.5 66.5 C 51.5 66.5 54.3 66.5 54.3 66.5 C 54.5 67.6 55.5 68.1 56.8 68.1 C 58 68.1 58.8 67.7 58.8 66.9 C 58.8 66.1 58.3 66 56.7 65.7 C 54.4 65.3 51.8 64.9 51.8 62.1 C 51.8 59.5 54.1 58.4 56.4 58.4 C 59.2 58.4 61.2 59.7 61.3 62.3 C 61.3 62.3 58.6 62.3 58.6 62.3 C 58.5 61.2 57.7 60.7 56.5 60.7 C 55.1 60.7 54.6 61.3 54.6 62 C 54.6 62.9 55.6 63.1 57 63.3 C 59.1 63.6 61.6 63.9 61.6 66.6 Z M 74.1 64.4 C 74.1 68.2 71.7 70.4 68.4 70.4 C 65.2 70.4 62.7 68.2 62.7 64.4 C 62.7 60.6 65.2 58.4 68.4 58.4 C 71.7 58.4 74.1 60.6 74.1 64.4 Z M 65.6 64.4 C 65.6 66.7 66.9 67.8 68.4 67.8 C 70.1 67.8 71.2 66.6 71.2 64.4 C 71.2 62.1 69.9 61 68.4 61 C 66.7 61 65.6 62.2 65.6 64.4 Z M 86.5 69.4 C 86.5 73.1 84.1 74.8 81 74.8 C 78.2 74.8 75.8 73.4 75.5 70.5 C 75.5 70.5 78.2 70.5 78.2 70.5 C 78.5 72 79.7 72.4 81 72.4 C 82.8 72.4 83.8 71.5 83.8 69.7 C 83.8 69.7 83.8 67.8 83.8 67.8 C 83.3 69 82.2 69.8 80.4 69.8 C 77.8 69.8 75.3 68 75.3 64.1 C 75.3 60.2 77.8 58.4 80.4 58.4 C 82 58.4 83.2 59.1 83.8 60.2 C 83.81 60.21 83.8 58.6 83.8 58.6 L 86.5 58.6 C 86.5 58.6 86.5 69.4 86.5 69.4 Z M 83.7 64.1 C 83.7 61.9 82.5 60.8 81 60.8 C 79.4 60.8 78.1 61.9 78.1 64.1 C 78.1 66.3 79.4 67.3 81 67.3 C 82.5 67.3 83.7 66.3 83.7 64.1 Z M 98.4 62.4 C 98.38 62.39 98.4 70.2 98.4 70.2 L 95.7 70.2 C 95.7 70.2 95.65 68.5 95.7 68.5 C 94.8 70 93.4 70.4 92.1 70.4 C 90.3 70.4 88.4 69.3 88.4 66.8 C 88.4 65 89.4 63.8 92.1 63.4 C 92.1 63.4 94.6 63 94.6 63 C 95.3 62.9 95.8 62.7 95.8 62 C 95.8 61 94.9 60.6 93.8 60.6 C 92.3 60.6 91.6 61.3 91.5 62.3 C 91.5 62.3 88.9 62.3 88.9 62.3 C 89.1 59.6 91.3 58.4 93.9 58.4 C 96.7 58.4 98.4 59.7 98.4 62.4 Z M 95.7 65.3 C 95.7 65.3 95.7 64.7 95.7 64.7 C 95.4 64.8 94.9 65 94.3 65 C 94.3 65 93.1 65.2 93.1 65.2 C 91.6 65.4 91.2 66 91.2 66.7 C 91.2 67.6 91.8 68.1 92.8 68.1 C 94.2 68.1 95.7 67 95.7 65.3 Z M 107.5 61.2 C 107.5 61.2 106.72 61.17 106.7 61.2 C 104.8 61.2 103.7 62.2 103.7 64.5 C 103.7 64.51 103.7 70.2 103.7 70.2 L 100.9 70.2 L 100.9 58.6 L 103.7 58.6 C 103.7 58.6 103.68 60.25 103.7 60.2 C 104.3 59 105.3 58.5 106.7 58.5 C 106.7 58.46 107.5 58.5 107.5 58.5 L 107.5 61.2 Z M 124 62.7 C 124.05 62.71 124 70.2 124 70.2 L 121.3 70.2 C 121.3 70.2 121.25 62.96 121.3 63 C 121.3 61.7 120.5 60.9 119.2 60.9 C 117.6 60.9 116.7 62 116.7 63.9 C 116.65 63.92 116.7 70.2 116.7 70.2 L 113.9 70.2 L 113.9 58.6 L 116.6 58.6 C 116.6 58.6 116.63 60.27 116.6 60.3 C 117.3 59.2 118.2 58.4 120.2 58.4 C 122.8 58.4 124 59.9 124 62.7 Z M 128.6 65.2 C 128.7 67.1 130.1 68 131.6 68 C 132.7 68 133.8 67.6 134.1 66.5 C 134.1 66.5 136.7 66.5 136.7 66.5 C 136.2 69.1 133.9 70.4 131.5 70.4 C 128.7 70.4 125.9 68.5 125.9 64.4 C 125.9 60.4 128.6 58.4 131.5 58.4 C 134.3 58.4 136.7 60.2 136.7 64.1 C 136.71 64.09 136.7 65.2 136.7 65.2 C 136.7 65.2 128.64 65.23 128.6 65.2 Z M 128.7 63.2 C 128.7 63.2 134 63.2 134 63.2 C 134 61.7 132.9 60.8 131.5 60.8 C 130.2 60.8 129 61.5 128.7 63.2 Z M 149.1 69.4 C 149.1 73.1 146.7 74.8 143.6 74.8 C 140.8 74.8 138.5 73.4 138.1 70.5 C 138.1 70.5 140.8 70.5 140.8 70.5 C 141.1 72 142.3 72.4 143.6 72.4 C 145.4 72.4 146.5 71.5 146.5 69.7 C 146.5 69.7 146.5 67.8 146.5 67.8 C 145.9 69 144.8 69.8 143 69.8 C 140.4 69.8 138 68 138 64.1 C 138 60.2 140.4 58.4 143 58.4 C 144.7 58.4 145.9 59.1 146.5 60.2 C 146.45 60.21 146.5 58.6 146.5 58.6 L 149.1 58.6 C 149.1 58.6 149.14 69.4 149.1 69.4 Z M 146.3 64.1 C 146.3 61.9 145.1 60.8 143.6 60.8 C 142.1 60.8 140.7 61.9 140.7 64.1 C 140.7 66.3 142.1 67.3 143.6 67.3 C 145.1 67.3 146.3 66.3 146.3 64.1 Z M 161 62.4 C 161.03 62.39 161 70.2 161 70.2 L 158.3 70.2 C 158.3 70.2 158.3 68.5 158.3 68.5 C 157.4 70 156 70.4 154.8 70.4 C 152.9 70.4 151 69.3 151 66.8 C 151 65 152.1 63.8 154.7 63.4 C 154.7 63.4 157.2 63 157.2 63 C 157.9 62.9 158.4 62.7 158.4 62 C 158.4 61 157.6 60.6 156.4 60.6 C 155 60.6 154.3 61.3 154.2 62.3 C 154.2 62.3 151.5 62.3 151.5 62.3 C 151.8 59.6 153.9 58.4 156.6 58.4 C 159.3 58.4 161 59.7 161 62.4 Z M 158.3 65.3 C 158.3 65.3 158.3 64.7 158.3 64.7 C 158 64.8 157.5 65 157 65 C 157 65 155.7 65.2 155.7 65.2 C 154.3 65.4 153.8 66 153.8 66.7 C 153.8 67.6 154.5 68.1 155.4 68.1 C 156.9 68.1 158.3 67 158.3 65.3 Z M 169.5 70.2 C 169.5 70.2 167.64 70.18 167.6 70.2 C 165.5 70.2 164.1 69.5 164.1 66.4 C 164.09 66.4 164.1 61.1 164.1 61.1 L 162 61.1 L 162 58.6 L 164.1 58.6 L 164.1 56 L 166.9 55.2 L 166.9 58.6 L 169.2 58.6 L 169.2 61.1 L 166.9 61.1 C 166.9 61.1 166.88 66.53 166.9 66.5 C 166.9 67.2 167.1 67.7 168.1 67.7 C 168.06 67.7 169.5 67.7 169.5 67.7 L 169.5 70.2 Z M 170.9 57.1 L 173.9 57.1 L 173.9 53.9 L 170.9 53.9 L 170.9 57.1 Z M 171 58.6 L 173.8 58.6 L 173.8 70.2 L 171 70.2 L 171 58.6 Z M 182.4 70.2 L 179.4 70.2 L 175.2 58.6 L 178.1 58.6 L 181 66.9 L 183.8 58.6 L 186.7 58.6 L 182.4 70.2 Z M 189.8 65.2 C 189.9 67.1 191.2 68 192.8 68 C 193.9 68 195 67.6 195.3 66.5 C 195.3 66.5 197.9 66.5 197.9 66.5 C 197.4 69.1 195.1 70.4 192.7 70.4 C 189.9 70.4 187.1 68.5 187.1 64.4 C 187.1 60.4 189.8 58.4 192.7 58.4 C 195.5 58.4 197.9 60.2 197.9 64.1 C 197.9 64.09 197.9 65.2 197.9 65.2 C 197.9 65.2 189.84 65.23 189.8 65.2 Z M 189.9 63.2 C 189.9 63.2 195.2 63.2 195.2 63.2 C 195.2 61.7 194.1 60.8 192.7 60.8 C 191.4 60.8 190.2 61.5 189.9 63.2 Z M 206.4 61.2 C 206.4 61.2 205.71 61.17 205.7 61.2 C 203.8 61.2 202.7 62.2 202.7 64.5 C 202.69 64.51 202.7 70.2 202.7 70.2 L 199.9 70.2 L 199.9 58.6 L 202.7 58.6 C 202.7 58.6 202.67 60.25 202.7 60.2 C 203.3 59 204.3 58.5 205.7 58.5 C 205.69 58.46 206.4 58.5 206.4 58.5 L 206.4 61.2 Z M 206.7 53 C 206.7 53 207.5 51.9 207.5 51.9 C 210.9 54.1 213.3 58.2 213.3 63 C 213.3 67.9 210.9 71.9 207.5 74.1 C 207.5 74.1 206.7 73 206.7 73 C 209.4 70.8 211.4 67.3 211.4 63 C 211.4 58.8 209.4 55.3 206.7 53 Z M 232.3 70.2 L 219.6 70.2 L 219.6 67.4 L 228.2 57.2 L 219.9 57.2 L 219.9 54.4 L 231.8 54.4 L 231.8 57.2 L 223.3 67.4 L 232.3 67.4 L 232.3 70.2 Z M 234.1 57.1 L 237.1 57.1 L 237.1 53.9 L 234.1 53.9 L 234.1 57.1 Z M 234.2 58.6 L 237 58.6 L 237 70.2 L 234.2 70.2 L 234.2 58.6 Z M 249.9 62.7 C 249.92 62.71 249.9 70.2 249.9 70.2 L 247.1 70.2 C 247.1 70.2 247.12 62.96 247.1 63 C 247.1 61.7 246.4 60.9 245.1 60.9 C 243.5 60.9 242.5 62 242.5 63.9 C 242.53 63.92 242.5 70.2 242.5 70.2 L 239.7 70.2 L 239.7 58.6 L 242.5 58.6 C 242.5 58.6 242.5 60.27 242.5 60.3 C 243.2 59.2 244.1 58.4 246 58.4 C 248.7 58.4 249.9 59.9 249.9 62.7 Z M 261.8 66.6 C 261.8 69.2 259.5 70.4 256.9 70.4 C 254.5 70.4 251.9 69.4 251.7 66.5 C 251.7 66.5 254.5 66.5 254.5 66.5 C 254.7 67.6 255.7 68.1 257 68.1 C 258.2 68.1 259.1 67.7 259.1 66.9 C 259.1 66.1 258.5 66 256.9 65.7 C 254.6 65.3 252.1 64.9 252.1 62.1 C 252.1 59.5 254.3 58.4 256.7 58.4 C 259.4 58.4 261.4 59.7 261.5 62.3 C 261.5 62.3 258.8 62.3 258.8 62.3 C 258.7 61.2 257.9 60.7 256.7 60.7 C 255.3 60.7 254.8 61.3 254.8 62 C 254.8 62.9 255.8 63.1 257.2 63.3 C 259.3 63.6 261.8 63.9 261.8 66.6 Z M 265.7 65.2 C 265.7 67.1 267.1 68 268.6 68 C 269.7 68 270.8 67.6 271.1 66.5 C 271.1 66.5 273.7 66.5 273.7 66.5 C 273.2 69.1 270.9 70.4 268.5 70.4 C 265.7 70.4 263 68.5 263 64.4 C 263 60.4 265.6 58.4 268.5 58.4 C 271.4 58.4 273.7 60.2 273.7 64.1 C 273.73 64.09 273.7 65.2 273.7 65.2 C 273.7 65.2 265.67 65.23 265.7 65.2 Z M 265.7 63.2 C 265.7 63.2 271 63.2 271 63.2 C 271 61.7 269.9 60.8 268.5 60.8 C 267.2 60.8 266 61.5 265.7 63.2 Z M 285.9 62.7 C 285.91 62.71 285.9 70.2 285.9 70.2 L 283.1 70.2 C 283.1 70.2 283.12 62.96 283.1 63 C 283.1 61.7 282.4 60.9 281.1 60.9 C 279.5 60.9 278.5 62 278.5 63.9 C 278.52 63.92 278.5 70.2 278.5 70.2 L 275.7 70.2 L 275.7 58.6 L 278.5 58.6 C 278.5 58.6 278.5 60.27 278.5 60.3 C 279.1 59.2 280.1 58.4 282 58.4 C 284.7 58.4 285.9 59.9 285.9 62.7 Z M 291.3 64.6 C 291.3 61.9 292.7 61.4 293.9 60.5 C 294.9 59.8 295.4 59.2 295.4 58.4 C 295.4 57.2 294.5 56.6 293.3 56.6 C 291.8 56.6 290.9 57.4 290.8 58.8 C 290.8 58.8 288 58.8 288 58.8 C 288.3 55.4 290.7 54.2 293.3 54.2 C 296.1 54.2 298.3 55.5 298.3 58.3 C 298.3 60.5 297 61.4 295.5 62.4 C 294.5 63.2 294 63.7 294 64.6 C 293.97 64.64 294 65.3 294 65.3 L 291.3 65.3 C 291.3 65.3 291.31 64.55 291.3 64.6 Z M 291.1 66.9 L 294.2 66.9 L 294.2 70.2 L 291.1 70.2 L 291.1 66.9 Z " stroke="none" fill="#000"/>  </g>  <g id="Polygon9670">    <path d="M 13.1 33.9 C 13.1 36.5 11.3 39 7.7 39 C 7.71 38.95 4.5 39 4.5 39 L 4.5 45 L 1.6 45 L 1.6 29.2 C 1.6 29.2 7.98 29.23 8 29.2 C 11.4 29.2 13.1 31.5 13.1 33.9 Z M 10.2 34.1 C 10.2 32.9 9.5 32 7.9 32 C 7.9 31.96 4.5 32 4.5 32 L 4.5 36.2 C 4.5 36.2 7.79 36.22 7.8 36.2 C 9.4 36.2 10.2 35.3 10.2 34.1 Z M 24.9 39.2 C 24.9 43 22.5 45.2 19.2 45.2 C 16 45.2 13.6 43 13.6 39.2 C 13.6 35.4 16 33.2 19.2 33.2 C 22.5 33.2 24.9 35.4 24.9 39.2 Z M 16.4 39.2 C 16.4 41.5 17.7 42.6 19.3 42.6 C 20.9 42.6 22 41.4 22 39.2 C 22 36.9 20.7 35.8 19.2 35.8 C 17.5 35.8 16.4 37 16.4 39.2 Z M 33.4 36 C 33.4 36 32.7 35.97 32.7 36 C 30.7 36 29.7 37 29.7 39.3 C 29.67 39.31 29.7 45 29.7 45 L 26.9 45 L 26.9 33.4 L 29.7 33.4 C 29.7 33.4 29.65 35.05 29.7 35 C 30.2 33.8 31.3 33.3 32.7 33.3 C 32.68 33.26 33.4 33.3 33.4 33.3 L 33.4 36 Z M 41.1 45 C 41.1 45 39.31 44.98 39.3 45 C 37.1 45 35.8 44.3 35.8 41.2 C 35.76 41.2 35.8 35.9 35.8 35.9 L 33.6 35.9 L 33.6 33.4 L 35.8 33.4 L 35.8 30.8 L 38.6 30 L 38.6 33.4 L 40.9 33.4 L 40.9 35.9 L 38.6 35.9 C 38.6 35.9 38.56 41.33 38.6 41.3 C 38.6 42 38.7 42.5 39.7 42.5 C 39.73 42.5 41.1 42.5 41.1 42.5 L 41.1 45 Z M 47 31.5 C 46.1 31.5 45.9 31.9 45.9 32.6 C 45.86 32.63 45.9 33.4 45.9 33.4 L 48 33.4 L 48 35.9 L 45.9 35.9 L 45.9 45 L 43.1 45 L 43.1 35.9 L 41.3 35.9 L 41.3 33.4 L 43.1 33.4 C 43.1 33.4 43.07 32.76 43.1 32.8 C 43.1 29.7 44.5 29 46.6 29 C 46.62 28.98 48.3 29 48.3 29 L 48.3 31.5 C 48.3 31.5 47.04 31.46 47 31.5 Z M 60 39.2 C 60 43 57.6 45.2 54.4 45.2 C 51.1 45.2 48.7 43 48.7 39.2 C 48.7 35.4 51.1 33.2 54.4 33.2 C 57.6 33.2 60 35.4 60 39.2 Z M 51.6 39.2 C 51.6 41.5 52.9 42.6 54.4 42.6 C 56.1 42.6 57.2 41.4 57.2 39.2 C 57.2 36.9 55.9 35.8 54.3 35.8 C 52.7 35.8 51.6 37 51.6 39.2 Z M 64.8 45 L 62 45 L 62 29 L 64.8 29 L 64.8 45 Z M 67.5 31.9 L 70.4 31.9 L 70.4 28.7 L 67.5 28.7 L 67.5 31.9 Z M 67.5 33.4 L 70.3 33.4 L 70.3 45 L 67.5 45 L 67.5 33.4 Z M 83.6 39.2 C 83.6 43 81.2 45.2 78 45.2 C 74.7 45.2 72.3 43 72.3 39.2 C 72.3 35.4 74.7 33.2 78 33.2 C 81.2 33.2 83.6 35.4 83.6 39.2 Z M 75.2 39.2 C 75.2 41.5 76.4 42.6 78 42.6 C 79.7 42.6 80.8 41.4 80.8 39.2 C 80.8 36.9 79.5 35.8 77.9 35.8 C 76.3 35.8 75.2 37 75.2 39.2 Z M 100.1 37.2 C 100.13 37.19 100.1 45 100.1 45 L 97.4 45 C 97.4 45 97.4 43.3 97.4 43.3 C 96.5 44.8 95.1 45.2 93.9 45.2 C 92 45.2 90.1 44.1 90.1 41.6 C 90.1 39.8 91.2 38.6 93.8 38.2 C 93.8 38.2 96.3 37.8 96.3 37.8 C 97 37.7 97.5 37.5 97.5 36.8 C 97.5 35.8 96.7 35.4 95.5 35.4 C 94.1 35.4 93.4 36.1 93.3 37.1 C 93.3 37.1 90.6 37.1 90.6 37.1 C 90.9 34.4 93 33.2 95.7 33.2 C 98.4 33.2 100.1 34.5 100.1 37.2 Z M 97.4 40.1 C 97.4 40.1 97.4 39.5 97.4 39.5 C 97.1 39.6 96.6 39.8 96.1 39.8 C 96.1 39.8 94.8 40 94.8 40 C 93.4 40.2 92.9 40.8 92.9 41.5 C 92.9 42.4 93.6 42.9 94.5 42.9 C 96 42.9 97.4 41.8 97.4 40.1 Z M 112.8 37.5 C 112.83 37.51 112.8 45 112.8 45 L 110 45 C 110 45 110.04 37.76 110 37.8 C 110 36.5 109.3 35.7 108 35.7 C 106.4 35.7 105.4 36.8 105.4 38.7 C 105.44 38.72 105.4 45 105.4 45 L 102.6 45 L 102.6 33.4 L 105.4 33.4 C 105.4 33.4 105.42 35.07 105.4 35.1 C 106.1 34 107 33.2 108.9 33.2 C 111.6 33.2 112.8 34.7 112.8 37.5 Z M 125.9 44.2 C 125.9 47.9 123.5 49.6 120.4 49.6 C 117.6 49.6 115.2 48.2 114.9 45.3 C 114.9 45.3 117.6 45.3 117.6 45.3 C 117.9 46.8 119.1 47.2 120.4 47.2 C 122.2 47.2 123.2 46.3 123.2 44.5 C 123.2 44.5 123.2 42.6 123.2 42.6 C 122.7 43.8 121.5 44.6 119.8 44.6 C 117.2 44.6 114.7 42.8 114.7 38.9 C 114.7 35 117.2 33.2 119.8 33.2 C 121.4 33.2 122.6 33.9 123.2 35 C 123.21 35.01 123.2 33.4 123.2 33.4 L 125.9 33.4 C 125.9 33.4 125.89 44.2 125.9 44.2 Z M 123.1 38.9 C 123.1 36.7 121.9 35.6 120.4 35.6 C 118.8 35.6 117.5 36.7 117.5 38.9 C 117.5 41.1 118.8 42.1 120.4 42.1 C 121.9 42.1 123.1 41.1 123.1 38.9 Z M 130.5 40 C 130.6 41.9 131.9 42.8 133.5 42.8 C 134.6 42.8 135.6 42.4 136 41.3 C 136 41.3 138.5 41.3 138.5 41.3 C 138 43.9 135.7 45.2 133.3 45.2 C 130.6 45.2 127.8 43.3 127.8 39.2 C 127.8 35.2 130.4 33.2 133.4 33.2 C 136.2 33.2 138.6 35 138.6 38.9 C 138.56 38.89 138.6 40 138.6 40 C 138.6 40 130.49 40.03 130.5 40 Z M 130.6 38 C 130.6 38 135.8 38 135.8 38 C 135.8 36.5 134.8 35.6 133.3 35.6 C 132 35.6 130.8 36.3 130.6 38 Z M 149.8 41.4 C 149.8 44 147.5 45.2 144.9 45.2 C 142.5 45.2 139.9 44.2 139.7 41.3 C 139.7 41.3 142.5 41.3 142.5 41.3 C 142.7 42.4 143.7 42.9 145 42.9 C 146.2 42.9 147.1 42.5 147.1 41.7 C 147.1 40.9 146.5 40.8 144.9 40.5 C 142.7 40.1 140.1 39.7 140.1 36.9 C 140.1 34.3 142.3 33.2 144.7 33.2 C 147.4 33.2 149.4 34.5 149.5 37.1 C 149.5 37.1 146.8 37.1 146.8 37.1 C 146.7 36 145.9 35.5 144.7 35.5 C 143.3 35.5 142.8 36.1 142.8 36.8 C 142.8 37.7 143.8 37.9 145.2 38.1 C 147.3 38.4 149.8 38.7 149.8 41.4 Z M 151.6 31.9 L 154.6 31.9 L 154.6 28.7 L 151.6 28.7 L 151.6 31.9 Z M 151.7 33.4 L 154.5 33.4 L 154.5 45 L 151.7 45 L 151.7 33.4 Z M 162.1 45.2 C 158.3 45.2 156.4 42.3 156.4 39.2 C 156.4 36.1 158.3 33.2 162.1 33.2 C 164.9 33.2 167.1 34.8 167.2 37.6 C 167.2 37.6 164.4 37.6 164.4 37.6 C 164.3 36.5 163.5 35.7 162.1 35.7 C 160.1 35.7 159.3 37.4 159.3 39.2 C 159.3 41.1 160.1 42.6 162.1 42.6 C 163.5 42.6 164.3 41.9 164.5 40.9 C 164.5 40.9 167.2 40.9 167.2 40.9 C 166.9 43.7 164.9 45.2 162.1 45.2 Z M 179.4 37.5 C 179.44 37.51 179.4 45 179.4 45 L 176.6 45 C 176.6 45 176.65 37.76 176.6 37.8 C 176.6 36.5 175.9 35.7 174.6 35.7 C 173 35.7 172.1 36.8 172.1 38.7 C 172.05 38.72 172.1 45 172.1 45 L 169.3 45 L 169.3 29 L 172.1 29 C 172.1 29 172.05 35.03 172.1 35 C 172.7 33.9 173.7 33.2 175.6 33.2 C 178.2 33.2 179.4 34.7 179.4 37.5 Z M 188 45 C 188 45 186.16 44.98 186.2 45 C 184 45 182.6 44.3 182.6 41.2 C 182.61 41.2 182.6 35.9 182.6 35.9 L 180.5 35.9 L 180.5 33.4 L 182.6 33.4 L 182.6 30.8 L 185.4 30 L 185.4 33.4 L 187.7 33.4 L 187.7 35.9 L 185.4 35.9 C 185.4 35.9 185.41 41.33 185.4 41.3 C 185.4 42 185.6 42.5 186.6 42.5 C 186.58 42.5 188 42.5 188 42.5 L 188 45 Z M 198.8 41.4 C 198.8 44 196.5 45.2 193.9 45.2 C 191.5 45.2 188.9 44.2 188.7 41.3 C 188.7 41.3 191.5 41.3 191.5 41.3 C 191.7 42.4 192.8 42.9 194.1 42.9 C 195.2 42.9 196.1 42.5 196.1 41.7 C 196.1 40.9 195.5 40.8 193.9 40.5 C 191.7 40.1 189.1 39.7 189.1 36.9 C 189.1 34.3 191.3 33.2 193.7 33.2 C 196.4 33.2 198.4 34.5 198.6 37.1 C 198.6 37.1 195.8 37.1 195.8 37.1 C 195.7 36 194.9 35.5 193.7 35.5 C 192.3 35.5 191.8 36.1 191.8 36.8 C 191.8 37.7 192.8 37.9 194.2 38.1 C 196.3 38.4 198.8 38.7 198.8 41.4 Z M 216.2 37.5 C 216.15 37.51 216.2 45 216.2 45 L 213.4 45 C 213.4 45 213.36 37.76 213.4 37.8 C 213.4 36.5 212.6 35.7 211.3 35.7 C 209.7 35.7 208.8 36.8 208.8 38.7 C 208.76 38.72 208.8 45 208.8 45 L 206 45 L 206 29 L 208.8 29 C 208.8 29 208.76 35.03 208.8 35 C 209.4 33.9 210.4 33.2 212.3 33.2 C 214.9 33.2 216.2 34.7 216.2 37.5 Z M 218.7 31.9 L 221.6 31.9 L 221.6 28.7 L 218.7 28.7 L 218.7 31.9 Z M 218.8 33.4 L 221.5 33.4 L 221.5 45 L 218.8 45 L 218.8 33.4 Z M 233.5 41.4 C 233.5 44 231.2 45.2 228.6 45.2 C 226.2 45.2 223.6 44.2 223.4 41.3 C 223.4 41.3 226.2 41.3 226.2 41.3 C 226.4 42.4 227.4 42.9 228.7 42.9 C 229.9 42.9 230.8 42.5 230.8 41.7 C 230.8 40.9 230.2 40.8 228.6 40.5 C 226.4 40.1 223.8 39.7 223.8 36.9 C 223.8 34.3 226 33.2 228.4 33.2 C 231.1 33.2 233.1 34.5 233.2 37.1 C 233.2 37.1 230.5 37.1 230.5 37.1 C 230.4 36 229.6 35.5 228.4 35.5 C 227 35.5 226.5 36.1 226.5 36.8 C 226.5 37.7 227.5 37.9 228.9 38.1 C 231 38.4 233.5 38.7 233.5 41.4 Z M 241.3 45 C 241.3 45 239.5 44.98 239.5 45 C 237.3 45 236 44.3 236 41.2 C 235.95 41.2 236 35.9 236 35.9 L 233.8 35.9 L 233.8 33.4 L 236 33.4 L 236 30.8 L 238.7 30 L 238.7 33.4 L 241.1 33.4 L 241.1 35.9 L 238.7 35.9 C 238.7 35.9 238.75 41.33 238.7 41.3 C 238.7 42 238.9 42.5 239.9 42.5 C 239.92 42.5 241.3 42.5 241.3 42.5 L 241.3 45 Z M 253.5 39.2 C 253.5 43 251.1 45.2 247.8 45.2 C 244.6 45.2 242.2 43 242.2 39.2 C 242.2 35.4 244.6 33.2 247.8 33.2 C 251.1 33.2 253.5 35.4 253.5 39.2 Z M 245 39.2 C 245 41.5 246.3 42.6 247.9 42.6 C 249.5 42.6 250.6 41.4 250.6 39.2 C 250.6 36.9 249.4 35.8 247.8 35.8 C 246.1 35.8 245 37 245 39.2 Z M 262 36 C 262 36 261.3 35.97 261.3 36 C 259.3 36 258.3 37 258.3 39.3 C 258.28 39.31 258.3 45 258.3 45 L 255.5 45 L 255.5 33.4 L 258.3 33.4 C 258.3 33.4 258.25 35.05 258.3 35 C 258.8 33.8 259.9 33.3 261.3 33.3 C 261.28 33.26 262 33.3 262 33.3 L 262 36 Z M 263.3 31.9 L 266.3 31.9 L 266.3 28.7 L 263.3 28.7 L 263.3 31.9 Z M 263.4 33.4 L 266.2 33.4 L 266.2 45 L 263.4 45 L 263.4 33.4 Z M 278.1 41.4 C 278.1 44 275.8 45.2 273.2 45.2 C 270.8 45.2 268.2 44.2 268 41.3 C 268 41.3 270.9 41.3 270.9 41.3 C 271 42.4 272.1 42.9 273.4 42.9 C 274.5 42.9 275.4 42.5 275.4 41.7 C 275.4 40.9 274.8 40.8 273.2 40.5 C 271 40.1 268.4 39.7 268.4 36.9 C 268.4 34.3 270.6 33.2 273 33.2 C 275.7 33.2 277.7 34.5 277.9 37.1 C 277.9 37.1 275.1 37.1 275.1 37.1 C 275 36 274.2 35.5 273 35.5 C 271.7 35.5 271.1 36.1 271.1 36.8 C 271.1 37.7 272.1 37.9 273.5 38.1 C 275.6 38.4 278.1 38.7 278.1 41.4 Z M 284.9 45.2 C 281.1 45.2 279.3 42.3 279.3 39.2 C 279.3 36.1 281.1 33.2 284.9 33.2 C 287.8 33.2 289.9 34.8 290 37.6 C 290 37.6 287.3 37.6 287.3 37.6 C 287.1 36.5 286.4 35.7 285 35.7 C 282.9 35.7 282.1 37.4 282.1 39.2 C 282.1 41.1 283 42.6 285 42.6 C 286.3 42.6 287.1 41.9 287.3 40.9 C 287.3 40.9 290.1 40.9 290.1 40.9 C 289.7 43.7 287.7 45.2 284.9 45.2 Z M 302.3 37.5 C 302.29 37.51 302.3 45 302.3 45 L 299.5 45 C 299.5 45 299.5 37.76 299.5 37.8 C 299.5 36.5 298.8 35.7 297.5 35.7 C 295.9 35.7 294.9 36.8 294.9 38.7 C 294.9 38.72 294.9 45 294.9 45 L 292.1 45 L 292.1 29 L 294.9 29 C 294.9 29 294.9 35.03 294.9 35 C 295.6 33.9 296.6 33.2 298.4 33.2 C 301.1 33.2 302.3 34.7 302.3 37.5 Z M 320.8 37.5 C 320.77 37.51 320.8 45 320.8 45 L 318 45 C 318 45 317.98 37.76 318 37.8 C 318 36.5 317.2 35.7 315.9 35.7 C 314.3 35.7 313.4 36.8 313.4 38.7 C 313.38 38.72 313.4 45 313.4 45 L 310.6 45 L 310.6 33.4 L 313.4 33.4 C 313.4 33.4 313.36 35.07 313.4 35.1 C 314 34 315 33.2 316.9 33.2 C 319.5 33.2 320.8 34.7 320.8 37.5 Z M 323.3 31.9 L 326.3 31.9 L 326.3 28.7 L 323.3 28.7 L 323.3 31.9 Z M 323.4 33.4 L 326.2 33.4 L 326.2 45 L 323.4 45 L 323.4 33.4 Z M 330.8 40 C 330.9 41.9 332.3 42.8 333.8 42.8 C 334.9 42.8 336 42.4 336.3 41.3 C 336.3 41.3 338.9 41.3 338.9 41.3 C 338.4 43.9 336.1 45.2 333.7 45.2 C 330.9 45.2 328.1 43.3 328.1 39.2 C 328.1 35.2 330.8 33.2 333.7 33.2 C 336.5 33.2 338.9 35 338.9 38.9 C 338.91 38.89 338.9 40 338.9 40 C 338.9 40 330.85 40.03 330.8 40 Z M 330.9 38 C 330.9 38 336.2 38 336.2 38 C 336.2 36.5 335.1 35.6 333.7 35.6 C 332.4 35.6 331.2 36.3 330.9 38 Z M 351.6 45 L 348.8 45 C 348.8 45 348.83 43.2 348.8 43.2 C 348.2 44.5 346.9 45.2 345.3 45.2 C 342.5 45.2 340.2 43.2 340.2 39.2 C 340.2 35.2 342.5 33.2 345.3 33.2 C 346.8 33.2 348.1 33.8 348.8 34.9 C 348.76 34.92 348.8 29 348.8 29 L 351.6 29 L 351.6 45 Z M 348.8 39.2 C 348.8 36.8 347.4 35.7 345.9 35.7 C 344.4 35.7 343 36.8 343 39.2 C 343 41.5 344.4 42.7 345.9 42.7 C 347.4 42.7 348.8 41.5 348.8 39.2 Z M 360.8 36 C 360.8 36 360.1 35.97 360.1 36 C 358.1 36 357.1 37 357.1 39.3 C 357.08 39.31 357.1 45 357.1 45 L 354.3 45 L 354.3 33.4 L 357.1 33.4 C 357.1 33.4 357.06 35.05 357.1 35 C 357.6 33.8 358.7 33.3 360.1 33.3 C 360.08 33.26 360.8 33.3 360.8 33.3 L 360.8 36 Z M 362.1 31.9 L 365.1 31.9 L 365.1 28.7 L 362.1 28.7 L 362.1 31.9 Z M 362.2 33.4 L 365 33.4 L 365 45 L 362.2 45 L 362.2 33.4 Z M 378.1 44.2 C 378.1 47.9 375.7 49.6 372.6 49.6 C 369.8 49.6 367.5 48.2 367.1 45.3 C 367.1 45.3 369.8 45.3 369.8 45.3 C 370.1 46.8 371.3 47.2 372.6 47.2 C 374.4 47.2 375.4 46.3 375.4 44.5 C 375.4 44.5 375.4 42.6 375.4 42.6 C 374.9 43.8 373.8 44.6 372 44.6 C 369.4 44.6 366.9 42.8 366.9 38.9 C 366.9 35 369.4 33.2 372 33.2 C 373.7 33.2 374.8 33.9 375.4 35 C 375.43 35.01 375.4 33.4 375.4 33.4 L 378.1 33.4 C 378.1 33.4 378.12 44.2 378.1 44.2 Z M 375.3 38.9 C 375.3 36.7 374.1 35.6 372.6 35.6 C 371.1 35.6 369.7 36.7 369.7 38.9 C 369.7 41.1 371.1 42.1 372.6 42.1 C 374.1 42.1 375.3 41.1 375.3 38.9 Z M 382.7 40 C 382.8 41.9 384.1 42.8 385.7 42.8 C 386.8 42.8 387.8 42.4 388.2 41.3 C 388.2 41.3 390.7 41.3 390.7 41.3 C 390.2 43.9 387.9 45.2 385.6 45.2 C 382.8 45.2 380 43.3 380 39.2 C 380 35.2 382.6 33.2 385.6 33.2 C 388.4 33.2 390.8 35 390.8 38.9 C 390.78 38.89 390.8 40 390.8 40 C 390.8 40 382.72 40.03 382.7 40 Z M 382.8 38 C 382.8 38 388.1 38 388.1 38 C 388.1 36.5 387 35.6 385.6 35.6 C 384.3 35.6 383 36.3 382.8 38 Z M 399.3 36 C 399.3 36 398.59 35.97 398.6 36 C 396.6 36 395.6 37 395.6 39.3 C 395.57 39.31 395.6 45 395.6 45 L 392.8 45 L 392.8 33.4 L 395.5 33.4 C 395.5 33.4 395.55 35.05 395.5 35 C 396.1 33.8 397.2 33.3 398.6 33.3 C 398.57 33.26 399.3 33.3 399.3 33.3 L 399.3 36 Z " stroke="none" fill="#000"/>  </g>  <g id="Polygon9669">    <path d="M 16.8 19.8 L 13.9 19.8 L 10.6 8.5 L 7.3 19.8 L 4.4 19.8 L 0.3 4 L 3.4 4 L 6 15 L 9.2 4 L 12.1 4 L 15.3 15.1 L 17.9 4 L 20.9 4 L 16.8 19.8 Z M 23.5 14.8 C 23.6 16.7 24.9 17.6 26.5 17.6 C 27.6 17.6 28.6 17.2 29 16.1 C 29 16.1 31.5 16.1 31.5 16.1 C 31 18.7 28.7 20 26.4 20 C 23.6 20 20.8 18.1 20.8 14 C 20.8 10 23.4 8 26.4 8 C 29.2 8 31.6 9.8 31.6 13.7 C 31.58 13.69 31.6 14.8 31.6 14.8 C 31.6 14.8 23.52 14.83 23.5 14.8 Z M 23.6 12.8 C 23.6 12.8 28.9 12.8 28.9 12.8 C 28.9 11.3 27.8 10.4 26.4 10.4 C 25.1 10.4 23.8 11.1 23.6 12.8 Z M 36.4 19.8 L 33.6 19.8 L 33.6 3.8 L 36.4 3.8 L 36.4 19.8 Z M 44 20 C 40.2 20 38.4 17.1 38.4 14 C 38.4 10.9 40.2 8 44 8 C 46.8 8 49 9.6 49.1 12.4 C 49.1 12.4 46.4 12.4 46.4 12.4 C 46.2 11.3 45.4 10.5 44.1 10.5 C 42 10.5 41.2 12.2 41.2 14 C 41.2 15.9 42.1 17.4 44 17.4 C 45.4 17.4 46.2 16.7 46.4 15.7 C 46.4 15.7 49.2 15.7 49.2 15.7 C 48.8 18.5 46.8 20 44 20 Z M 61.4 12.3 C 61.36 12.31 61.4 19.8 61.4 19.8 L 58.6 19.8 C 58.6 19.8 58.57 12.56 58.6 12.6 C 58.6 11.3 57.8 10.5 56.5 10.5 C 54.9 10.5 54 11.6 54 13.5 C 53.97 13.52 54 19.8 54 19.8 L 51.2 19.8 L 51.2 3.8 L 54 3.8 C 54 3.8 53.97 9.83 54 9.8 C 54.6 8.7 55.6 8 57.5 8 C 60.1 8 61.4 9.5 61.4 12.3 Z M 66 14.8 C 66 16.7 67.4 17.6 68.9 17.6 C 70 17.6 71.1 17.2 71.4 16.1 C 71.4 16.1 74 16.1 74 16.1 C 73.5 18.7 71.2 20 68.8 20 C 66 20 63.3 18.1 63.3 14 C 63.3 10 65.9 8 68.8 8 C 71.7 8 74 9.8 74 13.7 C 74.02 13.69 74 14.8 74 14.8 C 74 14.8 65.96 14.83 66 14.8 Z M 66 12.8 C 66 12.8 71.3 12.8 71.3 12.8 C 71.3 11.3 70.2 10.4 68.8 10.4 C 67.5 10.4 66.3 11.1 66 12.8 Z M 84.4 19.8 L 81.5 19.8 L 81.5 4 L 92.1 4 L 92.1 6.8 L 84.4 6.8 L 84.4 10.4 L 91.7 10.4 L 91.7 13.2 L 84.4 13.2 L 84.4 19.8 Z M 103.6 19.8 L 100.8 19.8 C 100.8 19.8 100.84 18.14 100.8 18.1 C 100.2 19.2 99.1 19.9 97.5 19.9 C 95.1 19.9 93.3 18.4 93.3 15.4 C 93.32 15.39 93.3 8.2 93.3 8.2 L 96.1 8.2 C 96.1 8.2 96.12 15.18 96.1 15.2 C 96.1 16.8 96.9 17.4 98.1 17.4 C 99.6 17.4 100.8 16.5 100.8 13.8 C 100.78 13.8 100.8 8.2 100.8 8.2 L 103.6 8.2 L 103.6 19.8 Z M 116.5 12.3 C 116.49 12.31 116.5 19.8 116.5 19.8 L 113.7 19.8 C 113.7 19.8 113.69 12.56 113.7 12.6 C 113.7 11.3 113 10.5 111.7 10.5 C 110.1 10.5 109.1 11.6 109.1 13.5 C 109.09 13.52 109.1 19.8 109.1 19.8 L 106.3 19.8 L 106.3 8.2 L 109.1 8.2 C 109.1 8.2 109.07 9.87 109.1 9.9 C 109.7 8.8 110.7 8 112.6 8 C 115.2 8 116.5 9.5 116.5 12.3 Z M 123.2 15.3 L 121.9 16.7 L 121.9 19.8 L 119.1 19.8 L 119.1 3.8 L 121.9 3.8 L 121.9 12.9 L 126 8.2 L 129.7 8.2 L 125.1 13.2 L 129.9 19.8 L 126.4 19.8 L 123.2 15.3 Z M 137.4 19.8 C 137.4 19.8 135.53 19.78 135.5 19.8 C 133.4 19.8 132 19.1 132 16 C 131.98 16 132 10.7 132 10.7 L 129.9 10.7 L 129.9 8.2 L 132 8.2 L 132 5.6 L 134.8 4.8 L 134.8 8.2 L 137.1 8.2 L 137.1 10.7 L 134.8 10.7 C 134.8 10.7 134.78 16.13 134.8 16.1 C 134.8 16.8 135 17.3 136 17.3 C 135.95 17.3 137.4 17.3 137.4 17.3 L 137.4 19.8 Z M 138.8 6.7 L 141.8 6.7 L 141.8 3.5 L 138.8 3.5 L 138.8 6.7 Z M 138.9 8.2 L 141.7 8.2 L 141.7 19.8 L 138.9 19.8 L 138.9 8.2 Z M 155 14 C 155 17.8 152.6 20 149.3 20 C 146.1 20 143.7 17.8 143.7 14 C 143.7 10.2 146.1 8 149.3 8 C 152.6 8 155 10.2 155 14 Z M 146.5 14 C 146.5 16.3 147.8 17.4 149.4 17.4 C 151 17.4 152.1 16.2 152.1 14 C 152.1 11.7 150.9 10.6 149.3 10.6 C 147.6 10.6 146.5 11.8 146.5 14 Z M 167.2 12.3 C 167.18 12.31 167.2 19.8 167.2 19.8 L 164.4 19.8 C 164.4 19.8 164.39 12.56 164.4 12.6 C 164.4 11.3 163.7 10.5 162.3 10.5 C 160.8 10.5 159.8 11.6 159.8 13.5 C 159.79 13.52 159.8 19.8 159.8 19.8 L 157 19.8 L 157 8.2 L 159.8 8.2 C 159.8 8.2 159.77 9.87 159.8 9.9 C 160.4 8.8 161.4 8 163.3 8 C 165.9 8 167.2 9.5 167.2 12.3 Z M 185.7 12.3 C 185.66 12.31 185.7 19.8 185.7 19.8 L 182.9 19.8 C 182.9 19.8 182.87 12.56 182.9 12.6 C 182.9 11.3 182.1 10.5 180.8 10.5 C 179.2 10.5 178.3 11.6 178.3 13.5 C 178.27 13.52 178.3 19.8 178.3 19.8 L 175.5 19.8 L 175.5 3.8 L 178.3 3.8 C 178.3 3.8 178.27 9.83 178.3 9.8 C 178.9 8.7 179.9 8 181.8 8 C 184.4 8 185.7 9.5 185.7 12.3 Z M 197.5 12 C 197.54 11.99 197.5 19.8 197.5 19.8 L 194.8 19.8 C 194.8 19.8 194.81 18.1 194.8 18.1 C 193.9 19.6 192.5 20 191.3 20 C 189.5 20 187.5 18.9 187.5 16.4 C 187.5 14.6 188.6 13.4 191.2 13 C 191.2 13 193.7 12.6 193.7 12.6 C 194.4 12.5 194.9 12.3 194.9 11.6 C 194.9 10.6 194.1 10.2 193 10.2 C 191.5 10.2 190.8 10.9 190.7 11.9 C 190.7 11.9 188 11.9 188 11.9 C 188.3 9.2 190.5 8 193.1 8 C 195.8 8 197.5 9.3 197.5 12 Z M 194.8 14.9 C 194.8 14.9 194.8 14.3 194.8 14.3 C 194.6 14.4 194 14.6 193.5 14.6 C 193.5 14.6 192.2 14.8 192.2 14.8 C 190.8 15 190.3 15.6 190.3 16.3 C 190.3 17.2 191 17.7 192 17.7 C 193.4 17.7 194.8 16.6 194.8 14.9 Z M 211.4 14 C 211.4 18.1 208.9 20 206.2 20 C 204.8 20 203.5 19.5 202.8 18.4 C 202.79 18.4 202.8 19.8 202.8 19.8 L 200.1 19.8 L 200.1 3.8 L 202.9 3.8 C 202.9 3.8 202.86 9.89 202.9 9.9 C 203.5 8.7 204.8 8 206.4 8 C 209.1 8 211.4 10 211.4 14 Z M 208.6 14 C 208.6 11.7 207.2 10.5 205.7 10.5 C 204.2 10.5 202.8 11.7 202.8 14 C 202.8 16.4 204.2 17.6 205.7 17.6 C 207.2 17.6 208.6 16.4 208.6 14 Z M 215.4 14.8 C 215.5 16.7 216.8 17.6 218.4 17.6 C 219.5 17.6 220.5 17.2 220.9 16.1 C 220.9 16.1 223.4 16.1 223.4 16.1 C 222.9 18.7 220.6 20 218.3 20 C 215.5 20 212.7 18.1 212.7 14 C 212.7 10 215.3 8 218.3 8 C 221.1 8 223.5 9.8 223.5 13.7 C 223.48 13.69 223.5 14.8 223.5 14.8 C 223.5 14.8 215.41 14.83 215.4 14.8 Z M 215.5 12.8 C 215.5 12.8 220.7 12.8 220.7 12.8 C 220.7 11.3 219.7 10.4 218.2 10.4 C 217 10.4 215.7 11.1 215.5 12.8 Z M 235.7 12.3 C 235.66 12.31 235.7 19.8 235.7 19.8 L 232.9 19.8 C 232.9 19.8 232.87 12.56 232.9 12.6 C 232.9 11.3 232.1 10.5 230.8 10.5 C 229.2 10.5 228.3 11.6 228.3 13.5 C 228.27 13.52 228.3 19.8 228.3 19.8 L 225.5 19.8 L 225.5 8.2 L 228.2 8.2 C 228.2 8.2 228.25 9.87 228.2 9.9 C 228.9 8.8 229.8 8 231.8 8 C 234.4 8 235.7 9.5 235.7 12.3 Z M 253.7 16.3 L 247 16.3 L 245.7 19.8 L 242.6 19.8 L 248.7 4 L 251.9 4 L 258.2 19.8 L 255 19.8 L 253.7 16.3 Z M 252.6 13.5 L 250.3 7.3 L 248 13.5 L 252.6 13.5 Z M 270.1 12.3 C 270.14 12.31 270.1 19.8 270.1 19.8 L 267.3 19.8 C 267.3 19.8 267.35 12.56 267.3 12.6 C 267.3 11.3 266.6 10.5 265.3 10.5 C 263.7 10.5 262.7 11.6 262.7 13.5 C 262.75 13.52 262.7 19.8 262.7 19.8 L 260 19.8 L 260 8.2 L 262.7 8.2 C 262.7 8.2 262.73 9.87 262.7 9.9 C 263.4 8.8 264.3 8 266.3 8 C 268.9 8 270.1 9.5 270.1 12.3 Z M 275.6 19.8 L 272.8 19.8 L 272.8 3.8 L 275.6 3.8 L 275.6 19.8 Z M 280.3 14.8 C 280.3 16.7 281.7 17.6 283.2 17.6 C 284.3 17.6 285.4 17.2 285.7 16.1 C 285.7 16.1 288.3 16.1 288.3 16.1 C 287.8 18.7 285.5 20 283.1 20 C 280.3 20 277.6 18.1 277.6 14 C 277.6 10 280.2 8 283.1 8 C 286 8 288.3 9.8 288.3 13.7 C 288.33 13.69 288.3 14.8 288.3 14.8 C 288.3 14.8 280.26 14.83 280.3 14.8 Z M 280.3 12.8 C 280.3 12.8 285.6 12.8 285.6 12.8 C 285.6 11.3 284.5 10.4 283.1 10.4 C 281.8 10.4 280.6 11.1 280.3 12.8 Z M 290.2 6.7 L 293.2 6.7 L 293.2 3.5 L 290.2 3.5 L 290.2 6.7 Z M 290.3 8.2 L 293.1 8.2 L 293.1 19.8 L 290.3 19.8 L 290.3 8.2 Z M 306 12.3 C 305.99 12.31 306 19.8 306 19.8 L 303.2 19.8 C 303.2 19.8 303.19 12.56 303.2 12.6 C 303.2 11.3 302.5 10.5 301.2 10.5 C 299.6 10.5 298.6 11.6 298.6 13.5 C 298.59 13.52 298.6 19.8 298.6 19.8 L 295.8 19.8 L 295.8 3.8 L 298.6 3.8 C 298.6 3.8 298.59 9.83 298.6 9.8 C 299.3 8.7 300.3 8 302.1 8 C 304.7 8 306 9.5 306 12.3 Z M 310.6 14.8 C 310.6 16.7 312 17.6 313.6 17.6 C 314.7 17.6 315.7 17.2 316 16.1 C 316 16.1 318.6 16.1 318.6 16.1 C 318.1 18.7 315.8 20 313.4 20 C 310.6 20 307.9 18.1 307.9 14 C 307.9 10 310.5 8 313.5 8 C 316.3 8 318.6 9.8 318.6 13.7 C 318.65 13.69 318.6 14.8 318.6 14.8 C 318.6 14.8 310.59 14.83 310.6 14.8 Z M 310.6 12.8 C 310.6 12.8 315.9 12.8 315.9 12.8 C 315.9 11.3 314.8 10.4 313.4 10.4 C 312.1 10.4 310.9 11.1 310.6 12.8 Z M 330.8 12.3 C 330.83 12.31 330.8 19.8 330.8 19.8 L 328 19.8 C 328 19.8 328.04 12.56 328 12.6 C 328 11.3 327.3 10.5 326 10.5 C 324.4 10.5 323.4 11.6 323.4 13.5 C 323.44 13.52 323.4 19.8 323.4 19.8 L 320.6 19.8 L 320.6 8.2 L 323.4 8.2 C 323.4 8.2 323.42 9.87 323.4 9.9 C 324.1 8.8 325 8 326.9 8 C 329.6 8 330.8 9.5 330.8 12.3 Z M 339 6.7 L 342 6.7 L 342 3.5 L 339 3.5 L 339 6.7 Z M 339.1 8.2 L 341.9 8.2 L 341.9 19.8 L 339.1 19.8 L 339.1 8.2 Z M 361 12 C 360.96 11.97 361 19.8 361 19.8 L 358.2 19.8 C 358.2 19.8 358.17 12.52 358.2 12.5 C 358.2 11.1 357.5 10.5 356.4 10.5 C 355 10.5 354.2 11.3 354.2 13.3 C 354.18 13.27 354.2 19.8 354.2 19.8 L 351.4 19.8 C 351.4 19.8 351.39 12.52 351.4 12.5 C 351.4 11.1 350.7 10.5 349.6 10.5 C 348.3 10.5 347.4 11.3 347.4 13.3 C 347.4 13.25 347.4 19.8 347.4 19.8 L 344.6 19.8 L 344.6 8.2 L 347.4 8.2 C 347.4 8.2 347.36 9.89 347.4 9.9 C 347.7 9 348.6 8 350.4 8 C 351.8 8 353 8.7 353.6 9.9 C 354 9.1 354.8 8 356.9 8 C 359.4 8 361 9.5 361 12 Z " stroke="none" fill="#000"/>  </g></svg>