<?xml version="1.0" standalone="no"?><!DOCTYPE svg PUBLIC "-//W3C//DTD SVG 1.1//EN" "http://www.w3.org/Graphics/SVG/1.1/DTD/svg11.dtd"><svg xmlns="http://www.w3.org/2000/svg" version="1.1" width="304px" height="164.4px" viewBox="0 0 304 164.4">  <desc>Parece ser que hay consenso: el d lar estadounidense se debilitar en 2021 Qu posicionamiento en divisas tiene sen</desc>  <defs/>  <g id="Polygon10526">    <path d="M 1.3 132.7 L 4.2 132.7 L 4.2 129.5 L 1.3 129.5 L 1.3 132.7 Z M 1.3 134.2 L 4.1 134.2 L 4.1 145.8 L 1.3 145.8 L 1.3 134.2 Z M 17 138.3 C 17.03 138.31 17 145.8 17 145.8 L 14.2 145.8 C 14.2 145.8 14.24 138.56 14.2 138.6 C 14.2 137.3 13.5 136.5 12.2 136.5 C 10.6 136.5 9.6 137.6 9.6 139.5 C 9.64 139.52 9.6 145.8 9.6 145.8 L 6.8 145.8 L 6.8 134.2 L 9.6 134.2 C 9.6 134.2 9.62 135.87 9.6 135.9 C 10.3 134.8 11.2 134 13.1 134 C 15.8 134 17 135.5 17 138.3 Z M 25.5 145.8 L 22.6 145.8 L 18.3 134.2 L 21.3 134.2 L 24.1 142.5 L 26.9 134.2 L 29.8 134.2 L 25.5 145.8 Z M 33 140.8 C 33 142.7 34.4 143.6 36 143.6 C 37 143.6 38.1 143.2 38.4 142.1 C 38.4 142.1 41 142.1 41 142.1 C 40.5 144.7 38.2 146 35.8 146 C 33 146 30.3 144.1 30.3 140 C 30.3 136 32.9 134 35.8 134 C 38.7 134 41 135.8 41 139.7 C 41.03 139.69 41 140.8 41 140.8 C 41 140.8 32.97 140.83 33 140.8 Z M 33 138.8 C 33 138.8 38.3 138.8 38.3 138.8 C 38.3 137.3 37.2 136.4 35.8 136.4 C 34.5 136.4 33.3 137.1 33 138.8 Z M 49.6 136.8 C 49.6 136.8 48.85 136.77 48.8 136.8 C 46.9 136.8 45.8 137.8 45.8 140.1 C 45.82 140.11 45.8 145.8 45.8 145.8 L 43 145.8 L 43 134.2 L 45.8 134.2 C 45.8 134.2 45.8 135.85 45.8 135.8 C 46.4 134.6 47.5 134.1 48.8 134.1 C 48.82 134.06 49.6 134.1 49.6 134.1 L 49.6 136.8 Z M 60.2 142.2 C 60.2 144.8 57.9 146 55.3 146 C 52.9 146 50.3 145 50.1 142.1 C 50.1 142.1 52.9 142.1 52.9 142.1 C 53.1 143.2 54.1 143.7 55.4 143.7 C 56.6 143.7 57.5 143.3 57.5 142.5 C 57.5 141.7 56.9 141.6 55.3 141.3 C 53 140.9 50.5 140.5 50.5 137.7 C 50.5 135.1 52.7 134 55.1 134 C 57.8 134 59.8 135.3 59.9 137.9 C 59.9 137.9 57.2 137.9 57.2 137.9 C 57.1 136.8 56.3 136.3 55.1 136.3 C 53.7 136.3 53.2 136.9 53.2 137.6 C 53.2 138.5 54.2 138.7 55.6 138.9 C 57.7 139.2 60.2 139.5 60.2 142.2 Z M 72.7 140 C 72.7 143.8 70.3 146 67 146 C 63.8 146 61.4 143.8 61.4 140 C 61.4 136.2 63.8 134 67 134 C 70.3 134 72.7 136.2 72.7 140 Z M 64.2 140 C 64.2 142.3 65.5 143.4 67.1 143.4 C 68.7 143.4 69.8 142.2 69.8 140 C 69.8 137.7 68.5 136.6 67 136.6 C 65.3 136.6 64.2 137.8 64.2 140 Z M 81.2 136.8 C 81.2 136.8 80.49 136.77 80.5 136.8 C 78.5 136.8 77.5 137.8 77.5 140.1 C 77.47 140.11 77.5 145.8 77.5 145.8 L 74.7 145.8 L 74.7 134.2 L 77.4 134.2 C 77.4 134.2 77.45 135.85 77.4 135.8 C 78 134.6 79.1 134.1 80.5 134.1 C 80.47 134.06 81.2 134.1 81.2 134.1 L 81.2 136.8 Z M 84.4 140.8 C 84.4 142.7 85.8 143.6 87.3 143.6 C 88.4 143.6 89.5 143.2 89.8 142.1 C 89.8 142.1 92.4 142.1 92.4 142.1 C 91.9 144.7 89.6 146 87.2 146 C 84.4 146 81.6 144.1 81.6 140 C 81.6 136 84.3 134 87.2 134 C 90 134 92.4 135.8 92.4 139.7 C 92.42 139.69 92.4 140.8 92.4 140.8 C 92.4 140.8 84.36 140.83 84.4 140.8 Z M 84.4 138.8 C 84.4 138.8 89.7 138.8 89.7 138.8 C 89.7 137.3 88.6 136.4 87.2 136.4 C 85.9 136.4 84.7 137.1 84.4 138.8 Z M 103.7 142.2 C 103.7 144.8 101.4 146 98.8 146 C 96.4 146 93.8 145 93.6 142.1 C 93.6 142.1 96.4 142.1 96.4 142.1 C 96.6 143.2 97.6 143.7 98.9 143.7 C 100.1 143.7 100.9 143.3 100.9 142.5 C 100.9 141.7 100.4 141.6 98.8 141.3 C 96.5 140.9 93.9 140.5 93.9 137.7 C 93.9 135.1 96.1 134 98.5 134 C 101.2 134 103.2 135.3 103.4 137.9 C 103.4 137.9 100.7 137.9 100.7 137.9 C 100.6 136.8 99.7 136.3 98.6 136.3 C 97.2 136.3 96.6 136.9 96.6 137.6 C 96.6 138.5 97.7 138.7 99.1 138.9 C 101.2 139.2 103.7 139.5 103.7 142.2 Z M 112.4 140.8 C 112.4 142.7 113.8 143.6 115.4 143.6 C 116.4 143.6 117.5 143.2 117.8 142.1 C 117.8 142.1 120.4 142.1 120.4 142.1 C 119.9 144.7 117.6 146 115.2 146 C 112.4 146 109.7 144.1 109.7 140 C 109.7 136 112.3 134 115.2 134 C 118.1 134 120.4 135.8 120.4 139.7 C 120.43 139.69 120.4 140.8 120.4 140.8 C 120.4 140.8 112.37 140.83 112.4 140.8 Z M 112.4 138.8 C 112.4 138.8 117.7 138.8 117.7 138.8 C 117.7 137.3 116.6 136.4 115.2 136.4 C 113.9 136.4 112.7 137.1 112.4 138.8 Z M 132.6 138.3 C 132.61 138.31 132.6 145.8 132.6 145.8 L 129.8 145.8 C 129.8 145.8 129.82 138.56 129.8 138.6 C 129.8 137.3 129.1 136.5 127.8 136.5 C 126.2 136.5 125.2 137.6 125.2 139.5 C 125.22 139.52 125.2 145.8 125.2 145.8 L 122.4 145.8 L 122.4 134.2 L 125.2 134.2 C 125.2 134.2 125.2 135.87 125.2 135.9 C 125.9 134.8 126.8 134 128.7 134 C 131.4 134 132.6 135.5 132.6 138.3 Z M 142.5 140.8 C 142.5 142.7 143.9 143.6 145.4 143.6 C 146.5 143.6 147.6 143.2 147.9 142.1 C 147.9 142.1 150.5 142.1 150.5 142.1 C 150 144.7 147.7 146 145.3 146 C 142.5 146 139.8 144.1 139.8 140 C 139.8 136 142.4 134 145.3 134 C 148.2 134 150.5 135.8 150.5 139.7 C 150.53 139.69 150.5 140.8 150.5 140.8 C 150.5 140.8 142.46 140.83 142.5 140.8 Z M 142.5 138.8 C 142.5 138.8 147.8 138.8 147.8 138.8 C 147.8 137.3 146.7 136.4 145.3 136.4 C 144 136.4 142.8 137.1 142.5 138.8 Z M 162.7 145.8 L 159.9 145.8 C 159.9 145.8 159.93 144.14 159.9 144.1 C 159.3 145.2 158.2 145.9 156.6 145.9 C 154.2 145.9 152.4 144.4 152.4 141.4 C 152.42 141.39 152.4 134.2 152.4 134.2 L 155.2 134.2 C 155.2 134.2 155.21 141.18 155.2 141.2 C 155.2 142.8 156 143.4 157.2 143.4 C 158.7 143.4 159.9 142.5 159.9 139.8 C 159.87 139.8 159.9 134.2 159.9 134.2 L 162.7 134.2 L 162.7 145.8 Z M 171.9 136.8 C 171.9 136.8 171.21 136.77 171.2 136.8 C 169.3 136.8 168.2 137.8 168.2 140.1 C 168.19 140.11 168.2 145.8 168.2 145.8 L 165.4 145.8 L 165.4 134.2 L 168.2 134.2 C 168.2 134.2 168.17 135.85 168.2 135.8 C 168.8 134.6 169.8 134.1 171.2 134.1 C 171.19 134.06 171.9 134.1 171.9 134.1 L 171.9 136.8 Z M 183.7 140 C 183.7 143.8 181.3 146 178 146 C 174.8 146 172.4 143.8 172.4 140 C 172.4 136.2 174.8 134 178 134 C 181.3 134 183.7 136.2 183.7 140 Z M 175.2 140 C 175.2 142.3 176.5 143.4 178.1 143.4 C 179.7 143.4 180.8 142.2 180.8 140 C 180.8 137.7 179.5 136.6 178 136.6 C 176.3 136.6 175.2 137.8 175.2 140 Z M 194.9 142.2 C 194.9 144.8 192.6 146 190 146 C 187.6 146 185 145 184.8 142.1 C 184.8 142.1 187.7 142.1 187.7 142.1 C 187.8 143.2 188.9 143.7 190.2 143.7 C 191.4 143.7 192.2 143.3 192.2 142.5 C 192.2 141.7 191.6 141.6 190 141.3 C 187.8 140.9 185.2 140.5 185.2 137.7 C 185.2 135.1 187.4 134 189.8 134 C 192.5 134 194.5 135.3 194.7 137.9 C 194.7 137.9 191.9 137.9 191.9 137.9 C 191.8 136.8 191 136.3 189.8 136.3 C 188.5 136.3 187.9 136.9 187.9 137.6 C 187.9 138.5 188.9 138.7 190.3 138.9 C 192.4 139.2 194.9 139.5 194.9 142.2 Z M 199.6 140.2 C 199.6 137.5 200.9 137 202.2 136.1 C 203.2 135.4 203.7 134.8 203.7 134 C 203.7 132.8 202.8 132.2 201.6 132.2 C 200.1 132.2 199.2 133 199.1 134.4 C 199.1 134.4 196.3 134.4 196.3 134.4 C 196.6 131 199 129.8 201.6 129.8 C 204.4 129.8 206.6 131.1 206.6 133.9 C 206.6 136.1 205.3 137 203.8 138 C 202.8 138.8 202.3 139.3 202.3 140.2 C 202.27 140.24 202.3 140.9 202.3 140.9 L 199.6 140.9 C 199.6 140.9 199.6 140.15 199.6 140.2 Z M 199.4 142.5 L 202.5 142.5 L 202.5 145.8 L 199.4 145.8 L 199.4 142.5 Z " stroke="none" fill="#000"/>  </g>  <g id="Polygon10525">    <path d="M 7.3 120.6 C 7.3 120.6 5.46 120.58 5.5 120.6 C 3.3 120.6 1.9 119.9 1.9 116.8 C 1.91 116.8 1.9 111.5 1.9 111.5 L -0.2 111.5 L -0.2 109 L 1.9 109 L 1.9 106.4 L 4.7 105.6 L 4.7 109 L 7 109 L 7 111.5 L 4.7 111.5 C 4.7 111.5 4.7 116.93 4.7 116.9 C 4.7 117.6 4.9 118.1 5.9 118.1 C 5.88 118.1 7.3 118.1 7.3 118.1 L 7.3 120.6 Z M 8.8 107.5 L 11.7 107.5 L 11.7 104.3 L 8.8 104.3 L 8.8 107.5 Z M 8.8 109 L 11.6 109 L 11.6 120.6 L 8.8 120.6 L 8.8 109 Z M 16.3 115.6 C 16.4 117.5 17.7 118.4 19.3 118.4 C 20.4 118.4 21.4 118 21.8 116.9 C 21.8 116.9 24.3 116.9 24.3 116.9 C 23.8 119.5 21.5 120.8 19.2 120.8 C 16.4 120.8 13.6 118.9 13.6 114.8 C 13.6 110.8 16.2 108.8 19.2 108.8 C 22 108.8 24.4 110.6 24.4 114.5 C 24.38 114.49 24.4 115.6 24.4 115.6 C 24.4 115.6 16.32 115.63 16.3 115.6 Z M 16.4 113.6 C 16.4 113.6 21.7 113.6 21.7 113.6 C 21.7 112.1 20.6 111.2 19.2 111.2 C 17.9 111.2 16.6 111.9 16.4 113.6 Z M 36.6 113.1 C 36.56 113.11 36.6 120.6 36.6 120.6 L 33.8 120.6 C 33.8 120.6 33.77 113.36 33.8 113.4 C 33.8 112.1 33 111.3 31.7 111.3 C 30.1 111.3 29.2 112.4 29.2 114.3 C 29.17 114.32 29.2 120.6 29.2 120.6 L 26.4 120.6 L 26.4 109 L 29.1 109 C 29.1 109 29.15 110.67 29.1 110.7 C 29.8 109.6 30.7 108.8 32.7 108.8 C 35.3 108.8 36.6 110.3 36.6 113.1 Z M 41.2 115.6 C 41.2 117.5 42.6 118.4 44.1 118.4 C 45.2 118.4 46.3 118 46.6 116.9 C 46.6 116.9 49.2 116.9 49.2 116.9 C 48.7 119.5 46.4 120.8 44 120.8 C 41.2 120.8 38.5 118.9 38.5 114.8 C 38.5 110.8 41.1 108.8 44 108.8 C 46.9 108.8 49.2 110.6 49.2 114.5 C 49.22 114.49 49.2 115.6 49.2 115.6 C 49.2 115.6 41.16 115.63 41.2 115.6 Z M 41.2 113.6 C 41.2 113.6 46.5 113.6 46.5 113.6 C 46.5 112.1 45.4 111.2 44 111.2 C 42.7 111.2 41.5 111.9 41.2 113.6 Z M 65.3 117 C 65.3 119.6 63 120.8 60.4 120.8 C 58 120.8 55.4 119.8 55.2 116.9 C 55.2 116.9 58 116.9 58 116.9 C 58.2 118 59.2 118.5 60.5 118.5 C 61.7 118.5 62.6 118.1 62.6 117.3 C 62.6 116.5 62 116.4 60.4 116.1 C 58.1 115.7 55.6 115.3 55.6 112.5 C 55.6 109.9 57.8 108.8 60.2 108.8 C 62.9 108.8 64.9 110.1 65 112.7 C 65 112.7 62.3 112.7 62.3 112.7 C 62.2 111.6 61.4 111.1 60.2 111.1 C 58.8 111.1 58.3 111.7 58.3 112.4 C 58.3 113.3 59.3 113.5 60.7 113.7 C 62.8 114 65.3 114.3 65.3 117 Z M 69.2 115.6 C 69.2 117.5 70.6 118.4 72.2 118.4 C 73.2 118.4 74.3 118 74.6 116.9 C 74.6 116.9 77.2 116.9 77.2 116.9 C 76.7 119.5 74.4 120.8 72 120.8 C 69.2 120.8 66.5 118.9 66.5 114.8 C 66.5 110.8 69.1 108.8 72.1 108.8 C 74.9 108.8 77.2 110.6 77.2 114.5 C 77.24 114.49 77.2 115.6 77.2 115.6 C 77.2 115.6 69.17 115.63 69.2 115.6 Z M 69.2 113.6 C 69.2 113.6 74.5 113.6 74.5 113.6 C 74.5 112.1 73.4 111.2 72 111.2 C 70.7 111.2 69.5 111.9 69.2 113.6 Z M 89.4 113.1 C 89.42 113.11 89.4 120.6 89.4 120.6 L 86.6 120.6 C 86.6 120.6 86.62 113.36 86.6 113.4 C 86.6 112.1 85.9 111.3 84.6 111.3 C 83 111.3 82 112.4 82 114.3 C 82.03 114.32 82 120.6 82 120.6 L 79.2 120.6 L 79.2 109 L 82 109 C 82 109 82 110.67 82 110.7 C 82.7 109.6 83.6 108.8 85.5 108.8 C 88.2 108.8 89.4 110.3 89.4 113.1 Z M 98 120.6 C 98 120.6 96.14 120.58 96.1 120.6 C 94 120.6 92.6 119.9 92.6 116.8 C 92.59 116.8 92.6 111.5 92.6 111.5 L 90.5 111.5 L 90.5 109 L 92.6 109 L 92.6 106.4 L 95.4 105.6 L 95.4 109 L 97.7 109 L 97.7 111.5 L 95.4 111.5 C 95.4 111.5 95.38 116.93 95.4 116.9 C 95.4 117.6 95.6 118.1 96.6 118.1 C 96.56 118.1 98 118.1 98 118.1 L 98 120.6 Z M 99.4 107.5 L 102.4 107.5 L 102.4 104.3 L 99.4 104.3 L 99.4 107.5 Z M 99.5 109 L 102.3 109 L 102.3 120.6 L 99.5 120.6 L 99.5 109 Z M 115.7 120.6 L 112.9 120.6 C 112.9 120.6 112.94 118.8 112.9 118.8 C 112.3 120.1 111 120.8 109.4 120.8 C 106.7 120.8 104.3 118.8 104.3 114.8 C 104.3 110.8 106.7 108.8 109.4 108.8 C 110.9 108.8 112.2 109.4 112.9 110.5 C 112.87 110.52 112.9 104.6 112.9 104.6 L 115.7 104.6 L 115.7 120.6 Z M 113 114.8 C 113 112.4 111.5 111.3 110 111.3 C 108.5 111.3 107.1 112.4 107.1 114.8 C 107.1 117.1 108.5 118.3 110 118.3 C 111.5 118.3 113 117.1 113 114.8 Z M 129 114.8 C 129 118.6 126.6 120.8 123.3 120.8 C 120.1 120.8 117.7 118.6 117.7 114.8 C 117.7 111 120.1 108.8 123.3 108.8 C 126.6 108.8 129 111 129 114.8 Z M 120.5 114.8 C 120.5 117.1 121.8 118.2 123.4 118.2 C 125 118.2 126.1 117 126.1 114.8 C 126.1 112.5 124.8 111.4 123.3 111.4 C 121.6 111.4 120.5 112.6 120.5 114.8 Z M 137.8 115.6 C 137.8 117.5 139.2 118.4 140.8 118.4 C 141.9 118.4 142.9 118 143.2 116.9 C 143.2 116.9 145.8 116.9 145.8 116.9 C 145.3 119.5 143 120.8 140.6 120.8 C 137.8 120.8 135.1 118.9 135.1 114.8 C 135.1 110.8 137.7 108.8 140.7 108.8 C 143.5 108.8 145.8 110.6 145.8 114.5 C 145.84 114.49 145.8 115.6 145.8 115.6 C 145.8 115.6 137.78 115.63 137.8 115.6 Z M 137.8 113.6 C 137.8 113.6 143.1 113.6 143.1 113.6 C 143.1 112.1 142 111.2 140.6 111.2 C 139.3 111.2 138.1 111.9 137.8 113.6 Z M 158 113.1 C 158.02 113.11 158 120.6 158 120.6 L 155.2 120.6 C 155.2 120.6 155.23 113.36 155.2 113.4 C 155.2 112.1 154.5 111.3 153.2 111.3 C 151.6 111.3 150.6 112.4 150.6 114.3 C 150.63 114.32 150.6 120.6 150.6 120.6 L 147.8 120.6 L 147.8 109 L 150.6 109 C 150.6 109 150.61 110.67 150.6 110.7 C 151.3 109.6 152.2 108.8 154.1 108.8 C 156.8 108.8 158 110.3 158 113.1 Z M 177 120.6 L 165.7 120.6 L 165.7 118 C 165.7 118 169.47 114.87 169.5 114.9 C 172.4 112.5 173.6 111.3 173.6 109.7 C 173.6 108.3 172.6 107.5 171.1 107.5 C 169.5 107.5 168.4 108.4 168.3 110.3 C 168.3 110.3 165.5 110.3 165.5 110.3 C 165.5 106.7 168.2 104.8 171.3 104.8 C 174.2 104.8 176.6 106.4 176.6 109.5 C 176.6 112.2 174.6 114 171.8 116.2 C 171.84 116.21 169.6 118 169.6 118 L 177 118 L 177 120.6 Z M 178.4 112.9 C 178.4 108 180 104.8 183.9 104.8 C 187.7 104.8 189.4 108 189.4 112.8 C 189.4 117.7 187.6 120.8 183.8 120.8 C 180 120.8 178.4 117.7 178.4 112.9 Z M 186.6 112.9 C 186.6 109.8 185.8 107.3 183.8 107.3 C 182 107.3 181.1 109.3 181.1 112.7 C 181.1 116.2 182 118.4 183.9 118.4 C 185.7 118.4 186.6 116.1 186.6 112.9 Z M 202.2 120.6 L 190.9 120.6 L 190.9 118 C 190.9 118 194.67 114.87 194.7 114.9 C 197.6 112.5 198.8 111.3 198.8 109.7 C 198.8 108.3 197.8 107.5 196.3 107.5 C 194.7 107.5 193.6 108.4 193.5 110.3 C 193.5 110.3 190.7 110.3 190.7 110.3 C 190.7 106.7 193.4 104.8 196.5 104.8 C 199.4 104.8 201.8 106.4 201.8 109.5 C 201.8 112.2 199.8 114 197 116.2 C 197.04 116.21 194.8 118 194.8 118 L 202.2 118 L 202.2 120.6 Z M 214.4 118 L 214.4 120.6 L 204 120.6 L 204 118 L 207.8 118 C 207.8 118 207.79 108.76 207.8 108.8 C 206.6 109.5 205.1 109.9 204 110 C 204 110 204 107.2 204 107.2 C 205.4 107 206.9 106.4 208.2 105.1 C 208.21 105.1 210.6 105.1 210.6 105.1 L 210.6 118 L 214.4 118 Z M 233.8 114.6 C 233.8 118.8 231.2 120.7 228.5 120.7 C 226.9 120.7 225.8 120 225.2 119.2 C 225.18 119.2 225.2 124.9 225.2 124.9 L 222.4 124.9 L 222.4 109 L 225.1 109 C 225.1 109 225.12 110.84 225.1 110.8 C 225.7 109.6 227 108.8 228.7 108.8 C 231.4 108.8 233.8 110.7 233.8 114.6 Z M 230.9 114.8 C 230.9 112.4 229.5 111.3 228 111.3 C 226.5 111.3 225.1 112.4 225.1 114.8 C 225.1 117.1 226.5 118.2 228 118.2 C 229.5 118.2 230.9 117.1 230.9 114.8 Z M 245 112.8 C 245.02 112.79 245 120.6 245 120.6 L 242.3 120.6 C 242.3 120.6 242.29 118.9 242.3 118.9 C 241.4 120.4 240 120.8 238.8 120.8 C 236.9 120.8 235 119.7 235 117.2 C 235 115.4 236.1 114.2 238.7 113.8 C 238.7 113.8 241.2 113.4 241.2 113.4 C 241.9 113.3 242.4 113.1 242.4 112.4 C 242.4 111.4 241.6 111 240.4 111 C 239 111 238.3 111.7 238.2 112.7 C 238.2 112.7 235.5 112.7 235.5 112.7 C 235.8 110 237.9 108.8 240.6 108.8 C 243.3 108.8 245 110.1 245 112.8 Z M 242.3 115.7 C 242.3 115.7 242.3 115.1 242.3 115.1 C 242 115.2 241.5 115.4 241 115.4 C 241 115.4 239.7 115.6 239.7 115.6 C 238.3 115.8 237.8 116.4 237.8 117.1 C 237.8 118 238.5 118.5 239.4 118.5 C 240.9 118.5 242.3 117.4 242.3 115.7 Z M 254.1 111.6 C 254.1 111.6 253.36 111.57 253.4 111.6 C 251.4 111.6 250.3 112.6 250.3 114.9 C 250.34 114.91 250.3 120.6 250.3 120.6 L 247.5 120.6 L 247.5 109 L 250.3 109 C 250.3 109 250.32 110.65 250.3 110.6 C 250.9 109.4 252 108.9 253.3 108.9 C 253.34 108.86 254.1 108.9 254.1 108.9 L 254.1 111.6 Z M 264.7 112.8 C 264.72 112.79 264.7 120.6 264.7 120.6 L 262 120.6 C 262 120.6 261.99 118.9 262 118.9 C 261.1 120.4 259.7 120.8 258.5 120.8 C 256.6 120.8 254.7 119.7 254.7 117.2 C 254.7 115.4 255.8 114.2 258.4 113.8 C 258.4 113.8 260.9 113.4 260.9 113.4 C 261.6 113.3 262.1 113.1 262.1 112.4 C 262.1 111.4 261.3 111 260.1 111 C 258.7 111 258 111.7 257.9 112.7 C 257.9 112.7 255.2 112.7 255.2 112.7 C 255.5 110 257.6 108.8 260.3 108.8 C 263 108.8 264.7 110.1 264.7 112.8 Z M 262 115.7 C 262 115.7 262 115.1 262 115.1 C 261.7 115.2 261.2 115.4 260.6 115.4 C 260.6 115.4 259.4 115.6 259.4 115.6 C 258 115.8 257.5 116.4 257.5 117.1 C 257.5 118 258.2 118.5 259.1 118.5 C 260.6 118.5 262 117.4 262 115.7 Z M 275.3 120.6 L 272.5 120.6 L 272.5 104.6 L 275.3 104.6 L 275.3 120.6 Z M 288.6 114.8 C 288.6 118.6 286.2 120.8 282.9 120.8 C 279.7 120.8 277.3 118.6 277.3 114.8 C 277.3 111 279.7 108.8 282.9 108.8 C 286.2 108.8 288.6 111 288.6 114.8 Z M 280.1 114.8 C 280.1 117.1 281.4 118.2 283 118.2 C 284.6 118.2 285.7 117 285.7 114.8 C 285.7 112.5 284.5 111.4 282.9 111.4 C 281.2 111.4 280.1 112.6 280.1 114.8 Z M 299.9 117 C 299.9 119.6 297.5 120.8 294.9 120.8 C 292.5 120.8 289.9 119.8 289.8 116.9 C 289.8 116.9 292.6 116.9 292.6 116.9 C 292.8 118 293.8 118.5 295.1 118.5 C 296.3 118.5 297.1 118.1 297.1 117.3 C 297.1 116.5 296.6 116.4 295 116.1 C 292.7 115.7 290.1 115.3 290.1 112.5 C 290.1 109.9 292.3 108.8 294.7 108.8 C 297.4 108.8 299.4 110.1 299.6 112.7 C 299.6 112.7 296.9 112.7 296.9 112.7 C 296.7 111.6 295.9 111.1 294.8 111.1 C 293.4 111.1 292.8 111.7 292.8 112.4 C 292.8 113.3 293.8 113.5 295.3 113.7 C 297.3 114 299.9 114.3 299.9 117 Z " stroke="none" fill="#000"/>  </g>  <g id="Polygon10524">    <path d="M 12.7 89.4 C 12.7 93.6 10.1 95.5 7.4 95.5 C 5.9 95.5 4.8 94.8 4.2 94 C 4.16 94 4.2 99.7 4.2 99.7 L 1.4 99.7 L 1.4 83.8 L 4.1 83.8 C 4.1 83.8 4.09 85.64 4.1 85.6 C 4.7 84.4 6 83.6 7.7 83.6 C 10.4 83.6 12.7 85.5 12.7 89.4 Z M 9.9 89.6 C 9.9 87.2 8.5 86.1 7 86.1 C 5.5 86.1 4.1 87.2 4.1 89.6 C 4.1 91.9 5.5 93 7 93 C 8.5 93 9.9 91.9 9.9 89.6 Z M 25.3 89.6 C 25.3 93.4 22.9 95.6 19.7 95.6 C 16.4 95.6 14 93.4 14 89.6 C 14 85.8 16.4 83.6 19.7 83.6 C 22.9 83.6 25.3 85.8 25.3 89.6 Z M 16.9 89.6 C 16.9 91.9 18.1 93 19.7 93 C 21.4 93 22.5 91.8 22.5 89.6 C 22.5 87.3 21.2 86.2 19.6 86.2 C 18 86.2 16.9 87.4 16.9 89.6 Z M 36.6 91.8 C 36.6 94.4 34.3 95.6 31.7 95.6 C 29.3 95.6 26.7 94.6 26.5 91.7 C 26.5 91.7 29.3 91.7 29.3 91.7 C 29.5 92.8 30.5 93.3 31.8 93.3 C 33 93.3 33.8 92.9 33.8 92.1 C 33.8 91.3 33.3 91.2 31.7 90.9 C 29.4 90.5 26.8 90.1 26.8 87.3 C 26.8 84.7 29 83.6 31.4 83.6 C 34.1 83.6 36.1 84.9 36.3 87.5 C 36.3 87.5 33.6 87.5 33.6 87.5 C 33.5 86.4 32.7 85.9 31.5 85.9 C 30.1 85.9 29.5 86.5 29.5 87.2 C 29.5 88.1 30.6 88.3 32 88.5 C 34.1 88.8 36.6 89.1 36.6 91.8 Z M 38.4 82.3 L 41.3 82.3 L 41.3 79.1 L 38.4 79.1 L 38.4 82.3 Z M 38.5 83.8 L 41.2 83.8 L 41.2 95.4 L 38.5 95.4 L 38.5 83.8 Z M 48.8 95.6 C 45 95.6 43.2 92.7 43.2 89.6 C 43.2 86.5 45 83.6 48.8 83.6 C 51.7 83.6 53.8 85.2 53.9 88 C 53.9 88 51.2 88 51.2 88 C 51.1 86.9 50.3 86.1 48.9 86.1 C 46.9 86.1 46 87.8 46 89.6 C 46 91.5 46.9 93 48.9 93 C 50.2 93 51.1 92.3 51.2 91.3 C 51.2 91.3 54 91.3 54 91.3 C 53.7 94.1 51.6 95.6 48.8 95.6 Z M 55.9 82.3 L 58.9 82.3 L 58.9 79.1 L 55.9 79.1 L 55.9 82.3 Z M 56 83.8 L 58.8 83.8 L 58.8 95.4 L 56 95.4 L 56 83.8 Z M 72.1 89.6 C 72.1 93.4 69.7 95.6 66.4 95.6 C 63.2 95.6 60.8 93.4 60.8 89.6 C 60.8 85.8 63.2 83.6 66.4 83.6 C 69.7 83.6 72.1 85.8 72.1 89.6 Z M 63.6 89.6 C 63.6 91.9 64.9 93 66.5 93 C 68.1 93 69.2 91.8 69.2 89.6 C 69.2 87.3 68 86.2 66.4 86.2 C 64.7 86.2 63.6 87.4 63.6 89.6 Z M 84.3 87.9 C 84.27 87.91 84.3 95.4 84.3 95.4 L 81.5 95.4 C 81.5 95.4 81.48 88.16 81.5 88.2 C 81.5 86.9 80.7 86.1 79.4 86.1 C 77.8 86.1 76.9 87.2 76.9 89.1 C 76.88 89.12 76.9 95.4 76.9 95.4 L 74.1 95.4 L 74.1 83.8 L 76.9 83.8 C 76.9 83.8 76.86 85.47 76.9 85.5 C 77.5 84.4 78.5 83.6 80.4 83.6 C 83 83.6 84.3 85.1 84.3 87.9 Z M 96.2 87.6 C 96.16 87.59 96.2 95.4 96.2 95.4 L 93.4 95.4 C 93.4 95.4 93.43 93.7 93.4 93.7 C 92.5 95.2 91.1 95.6 89.9 95.6 C 88.1 95.6 86.2 94.5 86.2 92 C 86.2 90.2 87.2 89 89.9 88.6 C 89.9 88.6 92.4 88.2 92.4 88.2 C 93 88.1 93.5 87.9 93.5 87.2 C 93.5 86.2 92.7 85.8 91.6 85.8 C 90.1 85.8 89.4 86.5 89.3 87.5 C 89.3 87.5 86.6 87.5 86.6 87.5 C 86.9 84.8 89.1 83.6 91.7 83.6 C 94.4 83.6 96.2 84.9 96.2 87.6 Z M 93.4 90.5 C 93.4 90.5 93.4 89.9 93.4 89.9 C 93.2 90 92.7 90.2 92.1 90.2 C 92.1 90.2 90.8 90.4 90.8 90.4 C 89.4 90.6 89 91.2 89 91.9 C 89 92.8 89.6 93.3 90.6 93.3 C 92 93.3 93.4 92.2 93.4 90.5 Z M 115 87.6 C 115.04 87.57 115 95.4 115 95.4 L 112.2 95.4 C 112.2 95.4 112.24 88.12 112.2 88.1 C 112.2 86.7 111.6 86.1 110.4 86.1 C 109.1 86.1 108.3 86.9 108.3 88.9 C 108.25 88.87 108.3 95.4 108.3 95.4 L 105.5 95.4 C 105.5 95.4 105.46 88.12 105.5 88.1 C 105.5 86.7 104.8 86.1 103.6 86.1 C 102.3 86.1 101.5 86.9 101.5 88.9 C 101.47 88.85 101.5 95.4 101.5 95.4 L 98.7 95.4 L 98.7 83.8 L 101.4 83.8 C 101.4 83.8 101.43 85.49 101.4 85.5 C 101.8 84.6 102.7 83.6 104.4 83.6 C 105.9 83.6 107.1 84.3 107.6 85.5 C 108.1 84.7 108.9 83.6 111 83.6 C 113.5 83.6 115 85.1 115 87.6 Z M 117.6 82.3 L 120.5 82.3 L 120.5 79.1 L 117.6 79.1 L 117.6 82.3 Z M 117.6 83.8 L 120.4 83.8 L 120.4 95.4 L 117.6 95.4 L 117.6 83.8 Z M 125.1 90.4 C 125.2 92.3 126.5 93.2 128.1 93.2 C 129.2 93.2 130.2 92.8 130.6 91.7 C 130.6 91.7 133.1 91.7 133.1 91.7 C 132.6 94.3 130.3 95.6 128 95.6 C 125.2 95.6 122.4 93.7 122.4 89.6 C 122.4 85.6 125 83.6 128 83.6 C 130.8 83.6 133.2 85.4 133.2 89.3 C 133.18 89.29 133.2 90.4 133.2 90.4 C 133.2 90.4 125.12 90.43 125.1 90.4 Z M 125.2 88.4 C 125.2 88.4 130.4 88.4 130.4 88.4 C 130.4 86.9 129.4 86 128 86 C 126.7 86 125.4 86.7 125.2 88.4 Z M 145.4 87.9 C 145.36 87.91 145.4 95.4 145.4 95.4 L 142.6 95.4 C 142.6 95.4 142.57 88.16 142.6 88.2 C 142.6 86.9 141.8 86.1 140.5 86.1 C 138.9 86.1 138 87.2 138 89.1 C 137.97 89.12 138 95.4 138 95.4 L 135.2 95.4 L 135.2 83.8 L 137.9 83.8 C 137.9 83.8 137.95 85.47 137.9 85.5 C 138.6 84.4 139.5 83.6 141.5 83.6 C 144.1 83.6 145.4 85.1 145.4 87.9 Z M 153.9 95.4 C 153.9 95.4 152.08 95.38 152.1 95.4 C 149.9 95.4 148.5 94.7 148.5 91.6 C 148.53 91.6 148.5 86.3 148.5 86.3 L 146.4 86.3 L 146.4 83.8 L 148.5 83.8 L 148.5 81.2 L 151.3 80.4 L 151.3 83.8 L 153.6 83.8 L 153.6 86.3 L 151.3 86.3 C 151.3 86.3 151.32 91.73 151.3 91.7 C 151.3 92.4 151.5 92.9 152.5 92.9 C 152.5 92.9 153.9 92.9 153.9 92.9 L 153.9 95.4 Z M 166.1 89.6 C 166.1 93.4 163.7 95.6 160.4 95.6 C 157.2 95.6 154.7 93.4 154.7 89.6 C 154.7 85.8 157.2 83.6 160.4 83.6 C 163.7 83.6 166.1 85.8 166.1 89.6 Z M 157.6 89.6 C 157.6 91.9 158.9 93 160.4 93 C 162.1 93 163.2 91.8 163.2 89.6 C 163.2 87.3 161.9 86.2 160.4 86.2 C 158.7 86.2 157.6 87.4 157.6 89.6 Z M 174.9 90.4 C 174.9 92.3 176.3 93.2 177.8 93.2 C 178.9 93.2 180 92.8 180.3 91.7 C 180.3 91.7 182.9 91.7 182.9 91.7 C 182.4 94.3 180.1 95.6 177.7 95.6 C 174.9 95.6 172.2 93.7 172.2 89.6 C 172.2 85.6 174.8 83.6 177.7 83.6 C 180.6 83.6 182.9 85.4 182.9 89.3 C 182.93 89.29 182.9 90.4 182.9 90.4 C 182.9 90.4 174.86 90.43 174.9 90.4 Z M 174.9 88.4 C 174.9 88.4 180.2 88.4 180.2 88.4 C 180.2 86.9 179.1 86 177.7 86 C 176.4 86 175.2 86.7 174.9 88.4 Z M 195.1 87.9 C 195.11 87.91 195.1 95.4 195.1 95.4 L 192.3 95.4 C 192.3 95.4 192.32 88.16 192.3 88.2 C 192.3 86.9 191.6 86.1 190.3 86.1 C 188.7 86.1 187.7 87.2 187.7 89.1 C 187.72 89.12 187.7 95.4 187.7 95.4 L 184.9 95.4 L 184.9 83.8 L 187.7 83.8 C 187.7 83.8 187.7 85.47 187.7 85.5 C 188.3 84.4 189.3 83.6 191.2 83.6 C 193.9 83.6 195.1 85.1 195.1 87.9 Z M 213.6 95.4 L 210.9 95.4 C 210.9 95.4 210.9 93.6 210.9 93.6 C 210.3 94.9 208.9 95.6 207.3 95.6 C 204.6 95.6 202.2 93.6 202.2 89.6 C 202.2 85.6 204.6 83.6 207.3 83.6 C 208.8 83.6 210.1 84.2 210.8 85.3 C 210.84 85.32 210.8 79.4 210.8 79.4 L 213.6 79.4 L 213.6 95.4 Z M 210.9 89.6 C 210.9 87.2 209.5 86.1 208 86.1 C 206.5 86.1 205.1 87.2 205.1 89.6 C 205.1 91.9 206.5 93.1 208 93.1 C 209.5 93.1 210.9 91.9 210.9 89.6 Z M 216.3 82.3 L 219.2 82.3 L 219.2 79.1 L 216.3 79.1 L 216.3 82.3 Z M 216.3 83.8 L 219.1 83.8 L 219.1 95.4 L 216.3 95.4 L 216.3 83.8 Z M 227.7 95.4 L 224.8 95.4 L 220.5 83.8 L 223.4 83.8 L 226.3 92.1 L 229.1 83.8 L 232 83.8 L 227.7 95.4 Z M 233.3 82.3 L 236.2 82.3 L 236.2 79.1 L 233.3 79.1 L 233.3 82.3 Z M 233.4 83.8 L 236.2 83.8 L 236.2 95.4 L 233.4 95.4 L 233.4 83.8 Z M 248.1 91.8 C 248.1 94.4 245.8 95.6 243.2 95.6 C 240.8 95.6 238.2 94.6 238 91.7 C 238 91.7 240.8 91.7 240.8 91.7 C 241 92.8 242.1 93.3 243.4 93.3 C 244.5 93.3 245.4 92.9 245.4 92.1 C 245.4 91.3 244.8 91.2 243.2 90.9 C 241 90.5 238.4 90.1 238.4 87.3 C 238.4 84.7 240.6 83.6 243 83.6 C 245.7 83.6 247.7 84.9 247.9 87.5 C 247.9 87.5 245.1 87.5 245.1 87.5 C 245 86.4 244.2 85.9 243 85.9 C 241.6 85.9 241.1 86.5 241.1 87.2 C 241.1 88.1 242.1 88.3 243.5 88.5 C 245.6 88.8 248.1 89.1 248.1 91.8 Z M 259.3 87.6 C 259.28 87.59 259.3 95.4 259.3 95.4 L 256.6 95.4 C 256.6 95.4 256.55 93.7 256.6 93.7 C 255.7 95.2 254.3 95.6 253 95.6 C 251.2 95.6 249.3 94.5 249.3 92 C 249.3 90.2 250.3 89 253 88.6 C 253 88.6 255.5 88.2 255.5 88.2 C 256.2 88.1 256.7 87.9 256.7 87.2 C 256.7 86.2 255.8 85.8 254.7 85.8 C 253.2 85.8 252.5 86.5 252.4 87.5 C 252.4 87.5 249.7 87.5 249.7 87.5 C 250 84.8 252.2 83.6 254.8 83.6 C 257.6 83.6 259.3 84.9 259.3 87.6 Z M 256.6 90.5 C 256.6 90.5 256.6 89.9 256.6 89.9 C 256.3 90 255.8 90.2 255.2 90.2 C 255.2 90.2 253.9 90.4 253.9 90.4 C 252.5 90.6 252.1 91.2 252.1 91.9 C 252.1 92.8 252.7 93.3 253.7 93.3 C 255.1 93.3 256.6 92.2 256.6 90.5 Z M 271.1 91.8 C 271.1 94.4 268.8 95.6 266.2 95.6 C 263.8 95.6 261.2 94.6 261 91.7 C 261 91.7 263.8 91.7 263.8 91.7 C 264 92.8 265 93.3 266.3 93.3 C 267.5 93.3 268.3 92.9 268.3 92.1 C 268.3 91.3 267.8 91.2 266.2 90.9 C 263.9 90.5 261.3 90.1 261.3 87.3 C 261.3 84.7 263.5 83.6 265.9 83.6 C 268.6 83.6 270.6 84.9 270.8 87.5 C 270.8 87.5 268.1 87.5 268.1 87.5 C 268 86.4 267.1 85.9 266 85.9 C 264.6 85.9 264 86.5 264 87.2 C 264 88.1 265.1 88.3 266.5 88.5 C 268.5 88.8 271.1 89.1 271.1 91.8 Z " stroke="none" fill="#000"/>  </g>  <g id="Polygon10523">    <path d="M 12 70.2 L 9.3 70.2 C 9.3 70.2 9.28 68.4 9.3 68.4 C 8.7 69.7 7.3 70.4 5.7 70.4 C 3 70.4 0.6 68.4 0.6 64.4 C 0.6 60.4 3 58.4 5.7 58.4 C 7.2 58.4 8.5 59 9.2 60.1 C 9.22 60.12 9.2 54.2 9.2 54.2 L 12 54.2 L 12 70.2 Z M 9.3 64.4 C 9.3 62 7.9 60.9 6.4 60.9 C 4.9 60.9 3.5 62 3.5 64.4 C 3.5 66.7 4.9 67.9 6.4 67.9 C 7.9 67.9 9.3 66.7 9.3 64.4 Z M 16.7 65.2 C 16.8 67.1 18.1 68 19.7 68 C 20.8 68 21.8 67.6 22.2 66.5 C 22.2 66.5 24.7 66.5 24.7 66.5 C 24.2 69.1 21.9 70.4 19.6 70.4 C 16.8 70.4 14 68.5 14 64.4 C 14 60.4 16.6 58.4 19.6 58.4 C 22.4 58.4 24.8 60.2 24.8 64.1 C 24.78 64.09 24.8 65.2 24.8 65.2 C 24.8 65.2 16.72 65.23 16.7 65.2 Z M 16.8 63.2 C 16.8 63.2 22 63.2 22 63.2 C 22 61.7 21 60.8 19.6 60.8 C 18.3 60.8 17 61.5 16.8 63.2 Z M 38.2 64.4 C 38.2 68.5 35.7 70.4 32.9 70.4 C 31.5 70.4 30.2 69.9 29.5 68.8 C 29.5 68.8 29.5 70.2 29.5 70.2 L 26.8 70.2 L 26.8 54.2 L 29.6 54.2 C 29.6 54.2 29.57 60.29 29.6 60.3 C 30.2 59.1 31.5 58.4 33.1 58.4 C 35.8 58.4 38.2 60.4 38.2 64.4 Z M 35.3 64.4 C 35.3 62.1 33.9 60.9 32.4 60.9 C 30.9 60.9 29.5 62.1 29.5 64.4 C 29.5 66.8 30.9 68 32.4 68 C 33.9 68 35.3 66.8 35.3 64.4 Z M 40 57.1 L 43 57.1 L 43 53.9 L 40 53.9 L 40 57.1 Z M 40.1 58.6 L 42.9 58.6 L 42.9 70.2 L 40.1 70.2 L 40.1 58.6 Z M 48.4 70.2 L 45.6 70.2 L 45.6 54.2 L 48.4 54.2 L 48.4 70.2 Z M 51.1 57.1 L 54 57.1 L 54 53.9 L 51.1 53.9 L 51.1 57.1 Z M 51.1 58.6 L 53.9 58.6 L 53.9 70.2 L 51.1 70.2 L 51.1 58.6 Z M 62.6 70.2 C 62.6 70.2 60.73 70.18 60.7 70.2 C 58.6 70.2 57.2 69.5 57.2 66.4 C 57.18 66.4 57.2 61.1 57.2 61.1 L 55.1 61.1 L 55.1 58.6 L 57.2 58.6 L 57.2 56 L 60 55.2 L 60 58.6 L 62.3 58.6 L 62.3 61.1 L 60 61.1 C 60 61.1 59.97 66.53 60 66.5 C 60 67.2 60.2 67.7 61.2 67.7 C 61.15 67.7 62.6 67.7 62.6 67.7 L 62.6 70.2 Z M 73.4 62.4 C 73.39 62.39 73.4 70.2 73.4 70.2 L 70.7 70.2 C 70.7 70.2 70.66 68.5 70.7 68.5 C 69.8 70 68.4 70.4 67.2 70.4 C 65.3 70.4 63.4 69.3 63.4 66.8 C 63.4 65 64.4 63.8 67.1 63.4 C 67.1 63.4 69.6 63 69.6 63 C 70.3 62.9 70.8 62.7 70.8 62 C 70.8 61 69.9 60.6 68.8 60.6 C 67.3 60.6 66.7 61.3 66.5 62.3 C 66.5 62.3 63.9 62.3 63.9 62.3 C 64.2 59.6 66.3 58.4 68.9 58.4 C 71.7 58.4 73.4 59.7 73.4 62.4 Z M 70.7 65.3 C 70.7 65.3 70.7 64.7 70.7 64.7 C 70.4 64.8 69.9 65 69.3 65 C 69.3 65 68.1 65.2 68.1 65.2 C 66.7 65.4 66.2 66 66.2 66.7 C 66.2 67.6 66.8 68.1 67.8 68.1 C 69.3 68.1 70.7 67 70.7 65.3 Z M 82.5 61.2 C 82.5 61.2 81.73 61.17 81.7 61.2 C 79.8 61.2 78.7 62.2 78.7 64.5 C 78.71 64.51 78.7 70.2 78.7 70.2 L 75.9 70.2 L 75.9 58.6 L 78.7 58.6 C 78.7 58.6 78.69 60.25 78.7 60.2 C 79.3 59 80.3 58.5 81.7 58.5 C 81.71 58.46 82.5 58.5 82.5 58.5 L 82.5 61.2 Z M 87.4 56.5 L 90.6 51.5 L 92.8 53.2 L 89.8 56.5 L 87.4 56.5 Z M 93.1 62.4 C 93.09 62.39 93.1 70.2 93.1 70.2 L 90.4 70.2 C 90.4 70.2 90.36 68.5 90.4 68.5 C 89.5 70 88.1 70.4 86.9 70.4 C 85 70.4 83.1 69.3 83.1 66.8 C 83.1 65 84.1 63.8 86.8 63.4 C 86.8 63.4 89.3 63 89.3 63 C 90 62.9 90.5 62.7 90.5 62 C 90.5 61 89.6 60.6 88.5 60.6 C 87 60.6 86.4 61.3 86.2 62.3 C 86.2 62.3 83.6 62.3 83.6 62.3 C 83.9 59.6 86 58.4 88.6 58.4 C 91.4 58.4 93.1 59.7 93.1 62.4 Z M 90.4 65.3 C 90.4 65.3 90.4 64.7 90.4 64.7 C 90.1 64.8 89.6 65 89 65 C 89 65 87.8 65.2 87.8 65.2 C 86.4 65.4 85.9 66 85.9 66.7 C 85.9 67.6 86.5 68.1 87.5 68.1 C 89 68.1 90.4 67 90.4 65.3 Z M 102.4 65.2 C 102.5 67.1 103.8 68 105.4 68 C 106.5 68 107.5 67.6 107.9 66.5 C 107.9 66.5 110.4 66.5 110.4 66.5 C 109.9 69.1 107.6 70.4 105.3 70.4 C 102.5 70.4 99.7 68.5 99.7 64.4 C 99.7 60.4 102.3 58.4 105.3 58.4 C 108.1 58.4 110.5 60.2 110.5 64.1 C 110.48 64.09 110.5 65.2 110.5 65.2 C 110.5 65.2 102.42 65.23 102.4 65.2 Z M 102.5 63.2 C 102.5 63.2 107.7 63.2 107.7 63.2 C 107.7 61.7 106.7 60.8 105.3 60.8 C 104 60.8 102.7 61.5 102.5 63.2 Z M 122.7 62.7 C 122.66 62.71 122.7 70.2 122.7 70.2 L 119.9 70.2 C 119.9 70.2 119.87 62.96 119.9 63 C 119.9 61.7 119.1 60.9 117.8 60.9 C 116.2 60.9 115.3 62 115.3 63.9 C 115.27 63.92 115.3 70.2 115.3 70.2 L 112.5 70.2 L 112.5 58.6 L 115.2 58.6 C 115.2 58.6 115.25 60.27 115.2 60.3 C 115.9 59.2 116.8 58.4 118.8 58.4 C 121.4 58.4 122.7 59.9 122.7 62.7 Z M 141.7 70.2 L 130.3 70.2 L 130.3 67.6 C 130.3 67.6 134.1 64.47 134.1 64.5 C 137 62.1 138.3 60.9 138.3 59.3 C 138.3 57.9 137.2 57.1 135.7 57.1 C 134.1 57.1 133 58 132.9 59.9 C 132.9 59.9 130.1 59.9 130.1 59.9 C 130.1 56.3 132.8 54.4 135.9 54.4 C 138.8 54.4 141.2 56 141.2 59.1 C 141.2 61.8 139.2 63.6 136.5 65.8 C 136.48 65.81 134.3 67.6 134.3 67.6 L 141.7 67.6 L 141.7 70.2 Z M 143 62.5 C 143 57.6 144.7 54.4 148.5 54.4 C 152.3 54.4 154 57.6 154 62.4 C 154 67.3 152.2 70.4 148.4 70.4 C 144.6 70.4 143 67.3 143 62.5 Z M 151.2 62.5 C 151.2 59.4 150.4 56.9 148.4 56.9 C 146.6 56.9 145.8 58.9 145.8 62.3 C 145.8 65.8 146.7 68 148.5 68 C 150.4 68 151.2 65.7 151.2 62.5 Z M 166.9 70.2 L 155.5 70.2 L 155.5 67.6 C 155.5 67.6 159.3 64.47 159.3 64.5 C 162.2 62.1 163.5 60.9 163.5 59.3 C 163.5 57.9 162.4 57.1 160.9 57.1 C 159.3 57.1 158.2 58 158.1 59.9 C 158.1 59.9 155.3 59.9 155.3 59.9 C 155.3 56.3 158 54.4 161.1 54.4 C 164 54.4 166.4 56 166.4 59.1 C 166.4 61.8 164.4 63.6 161.7 65.8 C 161.68 65.81 159.5 67.6 159.5 67.6 L 166.9 67.6 L 166.9 70.2 Z M 179 67.6 L 179 70.2 L 168.6 70.2 L 168.6 67.6 L 172.4 67.6 C 172.4 67.6 172.43 58.36 172.4 58.4 C 171.2 59.1 169.7 59.5 168.6 59.6 C 168.6 59.6 168.6 56.8 168.6 56.8 C 170 56.6 171.5 56 172.8 54.7 C 172.85 54.7 175.2 54.7 175.2 54.7 L 175.2 67.6 L 179 67.6 Z M 180.6 66.9 L 183.8 66.9 L 183.8 70.2 L 180.6 70.2 L 180.6 66.9 Z M 197.5 62.6 L 194.4 62.6 L 194.4 59.3 L 197.5 59.3 L 197.5 62.6 Z M 197.3 65 C 197.3 67.6 195.9 68.1 194.7 69 C 193.7 69.7 193.2 70.3 193.2 71.1 C 193.2 72.3 194.1 72.9 195.3 72.9 C 196.7 72.9 197.6 72.1 197.7 70.7 C 197.7 70.7 200.6 70.7 200.6 70.7 C 200.3 74.1 197.8 75.3 195.2 75.3 C 192.5 75.3 190.3 74 190.3 71.2 C 190.3 69 191.6 68.1 193 67.1 C 194.1 66.3 194.6 65.8 194.6 64.9 C 194.6 64.87 194.6 64.2 194.6 64.2 L 197.3 64.2 C 197.3 64.2 197.27 64.95 197.3 65 Z M 213.9 68.9 C 213.92 68.92 216.3 73 216.3 73 L 213.2 73 C 213.2 73 211.55 70.2 211.6 70.2 C 210.8 70.5 210 70.6 209.1 70.6 C 204.4 70.6 201.2 66.8 201.2 62.3 C 201.2 57.8 204.4 54.1 209.1 54.1 C 213.8 54.1 217 57.8 217 62.3 C 217 65 215.9 67.4 213.9 68.9 Z M 209.2 67.8 C 209.5 67.8 209.7 67.7 210 67.7 C 210 67.72 207.3 63.2 207.3 63.2 L 210.5 63.2 C 210.5 63.2 212.43 66.55 212.4 66.5 C 213.5 65.5 214 64 214 62.3 C 214 59.2 212.2 56.9 209.1 56.9 C 206.1 56.9 204.1 59.2 204.1 62.4 C 204.1 65.4 206 67.8 209.2 67.8 Z M 229.3 70.2 L 226.6 70.2 C 226.6 70.2 226.59 68.54 226.6 68.5 C 225.9 69.6 224.9 70.3 223.2 70.3 C 220.8 70.3 219.1 68.8 219.1 65.8 C 219.07 65.79 219.1 58.6 219.1 58.6 L 221.9 58.6 C 221.9 58.6 221.86 65.58 221.9 65.6 C 221.9 67.2 222.6 67.8 223.8 67.8 C 225.4 67.8 226.5 66.9 226.5 64.2 C 226.52 64.2 226.5 58.6 226.5 58.6 L 229.3 58.6 L 229.3 70.2 Z M 235.7 56.5 L 238.9 51.5 L 241 53.2 L 238 56.5 L 235.7 56.5 Z M 234 65.2 C 234.1 67.1 235.4 68 237 68 C 238.1 68 239.1 67.6 239.5 66.5 C 239.5 66.5 242 66.5 242 66.5 C 241.5 69.1 239.2 70.4 236.9 70.4 C 234.1 70.4 231.3 68.5 231.3 64.4 C 231.3 60.4 233.9 58.4 236.9 58.4 C 239.7 58.4 242.1 60.2 242.1 64.1 C 242.08 64.09 242.1 65.2 242.1 65.2 C 242.1 65.2 234.02 65.23 234 65.2 Z M 234.1 63.2 C 234.1 63.2 239.4 63.2 239.4 63.2 C 239.4 61.7 238.3 60.8 236.9 60.8 C 235.6 60.8 234.3 61.5 234.1 63.2 Z " stroke="none" fill="#000"/>  </g>  <g id="Polygon10522">    <path d="M 3.3 40 C 3.4 41.9 4.7 42.8 6.3 42.8 C 7.4 42.8 8.5 42.4 8.8 41.3 C 8.8 41.3 11.4 41.3 11.4 41.3 C 10.9 43.9 8.6 45.2 6.2 45.2 C 3.4 45.2 0.6 43.3 0.6 39.2 C 0.6 35.2 3.3 33.2 6.2 33.2 C 9 33.2 11.4 35 11.4 38.9 C 11.4 38.89 11.4 40 11.4 40 C 11.4 40 3.34 40.03 3.3 40 Z M 3.4 38 C 3.4 38 8.7 38 8.7 38 C 8.7 36.5 7.6 35.6 6.2 35.6 C 4.9 35.6 3.7 36.3 3.4 38 Z M 16.2 45 L 13.4 45 L 13.4 29 L 16.2 29 L 16.2 45 Z M 34.8 45 L 32.1 45 C 32.1 45 32.09 43.2 32.1 43.2 C 31.5 44.5 30.1 45.2 28.5 45.2 C 25.8 45.2 23.4 43.2 23.4 39.2 C 23.4 35.2 25.8 33.2 28.5 33.2 C 30 33.2 31.3 33.8 32 34.9 C 32.02 34.92 32 29 32 29 L 34.8 29 L 34.8 45 Z M 32.1 39.2 C 32.1 36.8 30.7 35.7 29.2 35.7 C 27.7 35.7 26.3 36.8 26.3 39.2 C 26.3 41.5 27.7 42.7 29.2 42.7 C 30.7 42.7 32.1 41.5 32.1 39.2 Z M 41.2 31.3 L 44.4 26.3 L 46.6 28 L 43.6 31.3 L 41.2 31.3 Z M 48.1 39.2 C 48.1 43 45.7 45.2 42.5 45.2 C 39.2 45.2 36.8 43 36.8 39.2 C 36.8 35.4 39.2 33.2 42.5 33.2 C 45.7 33.2 48.1 35.4 48.1 39.2 Z M 39.7 39.2 C 39.7 41.5 40.9 42.6 42.5 42.6 C 44.2 42.6 45.3 41.4 45.3 39.2 C 45.3 36.9 44 35.8 42.4 35.8 C 40.8 35.8 39.7 37 39.7 39.2 Z M 52.9 45 L 50.1 45 L 50.1 29 L 52.9 29 L 52.9 45 Z M 64.9 37.2 C 64.91 37.19 64.9 45 64.9 45 L 62.2 45 C 62.2 45 62.18 43.3 62.2 43.3 C 61.3 44.8 59.9 45.2 58.7 45.2 C 56.8 45.2 54.9 44.1 54.9 41.6 C 54.9 39.8 55.9 38.6 58.6 38.2 C 58.6 38.2 61.1 37.8 61.1 37.8 C 61.8 37.7 62.3 37.5 62.3 36.8 C 62.3 35.8 61.4 35.4 60.3 35.4 C 58.8 35.4 58.2 36.1 58.1 37.1 C 58.1 37.1 55.4 37.1 55.4 37.1 C 55.7 34.4 57.8 33.2 60.5 33.2 C 63.2 33.2 64.9 34.5 64.9 37.2 Z M 62.2 40.1 C 62.2 40.1 62.2 39.5 62.2 39.5 C 61.9 39.6 61.4 39.8 60.8 39.8 C 60.8 39.8 59.6 40 59.6 40 C 58.2 40.2 57.7 40.8 57.7 41.5 C 57.7 42.4 58.4 42.9 59.3 42.9 C 60.8 42.9 62.2 41.8 62.2 40.1 Z M 74 36 C 74 36 73.25 35.97 73.2 36 C 71.3 36 70.2 37 70.2 39.3 C 70.22 39.31 70.2 45 70.2 45 L 67.4 45 L 67.4 33.4 L 70.2 33.4 C 70.2 33.4 70.2 35.05 70.2 35 C 70.8 33.8 71.9 33.3 73.2 33.3 C 73.23 33.26 74 33.3 74 33.3 L 74 36 Z M 81.9 40 C 82 41.9 83.3 42.8 84.9 42.8 C 86 42.8 87.1 42.4 87.4 41.3 C 87.4 41.3 90 41.3 90 41.3 C 89.5 43.9 87.2 45.2 84.8 45.2 C 82 45.2 79.2 43.3 79.2 39.2 C 79.2 35.2 81.9 33.2 84.8 33.2 C 87.6 33.2 90 35 90 38.9 C 90 38.89 90 40 90 40 C 90 40 81.94 40.03 81.9 40 Z M 82 38 C 82 38 87.3 38 87.3 38 C 87.3 36.5 86.2 35.6 84.8 35.6 C 83.5 35.6 82.3 36.3 82 38 Z M 101.3 41.4 C 101.3 44 99 45.2 96.3 45.2 C 94 45.2 91.3 44.2 91.2 41.3 C 91.2 41.3 94 41.3 94 41.3 C 94.2 42.4 95.2 42.9 96.5 42.9 C 97.7 42.9 98.5 42.5 98.5 41.7 C 98.5 40.9 98 40.8 96.4 40.5 C 94.1 40.1 91.5 39.7 91.5 36.9 C 91.5 34.3 93.7 33.2 96.1 33.2 C 98.8 33.2 100.8 34.5 101 37.1 C 101 37.1 98.3 37.1 98.3 37.1 C 98.2 36 97.3 35.5 96.2 35.5 C 94.8 35.5 94.2 36.1 94.2 36.8 C 94.2 37.7 95.3 37.9 96.7 38.1 C 98.7 38.4 101.3 38.7 101.3 41.4 Z M 109.1 45 C 109.1 45 107.25 44.98 107.2 45 C 105.1 45 103.7 44.3 103.7 41.2 C 103.7 41.2 103.7 35.9 103.7 35.9 L 101.6 35.9 L 101.6 33.4 L 103.7 33.4 L 103.7 30.8 L 106.5 30 L 106.5 33.4 L 108.8 33.4 L 108.8 35.9 L 106.5 35.9 C 106.5 35.9 106.49 41.33 106.5 41.3 C 106.5 42 106.7 42.5 107.7 42.5 C 107.67 42.5 109.1 42.5 109.1 42.5 L 109.1 45 Z M 119.9 37.2 C 119.91 37.19 119.9 45 119.9 45 L 117.2 45 C 117.2 45 117.18 43.3 117.2 43.3 C 116.3 44.8 114.9 45.2 113.7 45.2 C 111.8 45.2 109.9 44.1 109.9 41.6 C 109.9 39.8 110.9 38.6 113.6 38.2 C 113.6 38.2 116.1 37.8 116.1 37.8 C 116.8 37.7 117.3 37.5 117.3 36.8 C 117.3 35.8 116.4 35.4 115.3 35.4 C 113.8 35.4 113.2 36.1 113.1 37.1 C 113.1 37.1 110.4 37.1 110.4 37.1 C 110.7 34.4 112.8 33.2 115.5 33.2 C 118.2 33.2 119.9 34.5 119.9 37.2 Z M 117.2 40.1 C 117.2 40.1 117.2 39.5 117.2 39.5 C 116.9 39.6 116.4 39.8 115.8 39.8 C 115.8 39.8 114.6 40 114.6 40 C 113.2 40.2 112.7 40.8 112.7 41.5 C 112.7 42.4 113.4 42.9 114.3 42.9 C 115.8 42.9 117.2 41.8 117.2 40.1 Z M 133.1 45 L 130.3 45 C 130.3 45 130.35 43.2 130.3 43.2 C 129.7 44.5 128.4 45.2 126.8 45.2 C 124.1 45.2 121.7 43.2 121.7 39.2 C 121.7 35.2 124.1 33.2 126.8 33.2 C 128.3 33.2 129.6 33.8 130.3 34.9 C 130.28 34.92 130.3 29 130.3 29 L 133.1 29 L 133.1 45 Z M 130.4 39.2 C 130.4 36.8 128.9 35.7 127.4 35.7 C 125.9 35.7 124.5 36.8 124.5 39.2 C 124.5 41.5 125.9 42.7 127.4 42.7 C 128.9 42.7 130.4 41.5 130.4 39.2 Z M 146.4 39.2 C 146.4 43 144 45.2 140.7 45.2 C 137.5 45.2 135.1 43 135.1 39.2 C 135.1 35.4 137.5 33.2 140.7 33.2 C 144 33.2 146.4 35.4 146.4 39.2 Z M 137.9 39.2 C 137.9 41.5 139.2 42.6 140.8 42.6 C 142.4 42.6 143.5 41.4 143.5 39.2 C 143.5 36.9 142.3 35.8 140.7 35.8 C 139 35.8 137.9 37 137.9 39.2 Z M 158.5 45 L 155.8 45 C 155.8 45 155.8 43.34 155.8 43.3 C 155.1 44.4 154.1 45.1 152.5 45.1 C 150 45.1 148.3 43.6 148.3 40.6 C 148.28 40.59 148.3 33.4 148.3 33.4 L 151.1 33.4 C 151.1 33.4 151.07 40.38 151.1 40.4 C 151.1 42 151.8 42.6 153 42.6 C 154.6 42.6 155.7 41.7 155.7 39 C 155.73 39 155.7 33.4 155.7 33.4 L 158.5 33.4 L 158.5 45 Z M 171.4 37.5 C 171.44 37.51 171.4 45 171.4 45 L 168.6 45 C 168.6 45 168.65 37.76 168.6 37.8 C 168.6 36.5 167.9 35.7 166.6 35.7 C 165 35.7 164.1 36.8 164.1 38.7 C 164.05 38.72 164.1 45 164.1 45 L 161.3 45 L 161.3 33.4 L 164 33.4 C 164 33.4 164.03 35.07 164 35.1 C 164.7 34 165.6 33.2 167.6 33.2 C 170.2 33.2 171.4 34.7 171.4 37.5 Z M 174 31.9 L 176.9 31.9 L 176.9 28.7 L 174 28.7 L 174 31.9 Z M 174 33.4 L 176.8 33.4 L 176.8 45 L 174 45 L 174 33.4 Z M 190.2 45 L 187.5 45 C 187.5 45 187.46 43.2 187.5 43.2 C 186.8 44.5 185.5 45.2 183.9 45.2 C 181.2 45.2 178.8 43.2 178.8 39.2 C 178.8 35.2 181.2 33.2 183.9 33.2 C 185.4 33.2 186.7 33.8 187.4 34.9 C 187.4 34.92 187.4 29 187.4 29 L 190.2 29 L 190.2 45 Z M 187.5 39.2 C 187.5 36.8 186.1 35.7 184.5 35.7 C 183 35.7 181.6 36.8 181.6 39.2 C 181.6 41.5 183 42.7 184.5 42.7 C 186.1 42.7 187.5 41.5 187.5 39.2 Z M 194.9 40 C 195 41.9 196.3 42.8 197.9 42.8 C 199 42.8 200 42.4 200.4 41.3 C 200.4 41.3 202.9 41.3 202.9 41.3 C 202.4 43.9 200.1 45.2 197.8 45.2 C 195 45.2 192.2 43.3 192.2 39.2 C 192.2 35.2 194.8 33.2 197.8 33.2 C 200.6 33.2 203 35 203 38.9 C 202.96 38.89 203 40 203 40 C 203 40 194.9 40.03 194.9 40 Z M 195 38 C 195 38 200.2 38 200.2 38 C 200.2 36.5 199.2 35.6 197.7 35.6 C 196.5 35.6 195.2 36.3 195 38 Z M 215.1 37.5 C 215.14 37.51 215.1 45 215.1 45 L 212.3 45 C 212.3 45 212.35 37.76 212.3 37.8 C 212.3 36.5 211.6 35.7 210.3 35.7 C 208.7 35.7 207.8 36.8 207.8 38.7 C 207.75 38.72 207.8 45 207.8 45 L 205 45 L 205 33.4 L 207.7 33.4 C 207.7 33.4 207.73 35.07 207.7 35.1 C 208.4 34 209.3 33.2 211.3 33.2 C 213.9 33.2 215.1 34.7 215.1 37.5 Z M 227 41.4 C 227 44 224.7 45.2 222.1 45.2 C 219.7 45.2 217.1 44.2 216.9 41.3 C 216.9 41.3 219.7 41.3 219.7 41.3 C 219.9 42.4 221 42.9 222.3 42.9 C 223.4 42.9 224.3 42.5 224.3 41.7 C 224.3 40.9 223.7 40.8 222.1 40.5 C 219.9 40.1 217.3 39.7 217.3 36.9 C 217.3 34.3 219.5 33.2 221.9 33.2 C 224.6 33.2 226.6 34.5 226.8 37.1 C 226.8 37.1 224 37.1 224 37.1 C 223.9 36 223.1 35.5 221.9 35.5 C 220.5 35.5 220 36.1 220 36.8 C 220 37.7 221 37.9 222.4 38.1 C 224.5 38.4 227 38.7 227 41.4 Z M 230.9 40 C 231 41.9 232.3 42.8 233.9 42.8 C 235 42.8 236 42.4 236.4 41.3 C 236.4 41.3 238.9 41.3 238.9 41.3 C 238.4 43.9 236.1 45.2 233.7 45.2 C 231 45.2 228.2 43.3 228.2 39.2 C 228.2 35.2 230.8 33.2 233.8 33.2 C 236.6 33.2 239 35 239 38.9 C 238.96 38.89 239 40 239 40 C 239 40 230.89 40.03 230.9 40 Z M 231 38 C 231 38 236.2 38 236.2 38 C 236.2 36.5 235.2 35.6 233.7 35.6 C 232.4 35.6 231.2 36.3 231 38 Z M 255 41.4 C 255 44 252.7 45.2 250.1 45.2 C 247.7 45.2 245.1 44.2 244.9 41.3 C 244.9 41.3 247.8 41.3 247.8 41.3 C 247.9 42.4 249 42.9 250.3 42.9 C 251.5 42.9 252.3 42.5 252.3 41.7 C 252.3 40.9 251.7 40.8 250.1 40.5 C 247.9 40.1 245.3 39.7 245.3 36.9 C 245.3 34.3 247.5 33.2 249.9 33.2 C 252.6 33.2 254.6 34.5 254.8 37.1 C 254.8 37.1 252 37.1 252 37.1 C 251.9 36 251.1 35.5 249.9 35.5 C 248.6 35.5 248 36.1 248 36.8 C 248 37.7 249 37.9 250.4 38.1 C 252.5 38.4 255 38.7 255 41.4 Z M 258.9 40 C 259 41.9 260.3 42.8 261.9 42.8 C 263 42.8 264 42.4 264.4 41.3 C 264.4 41.3 266.9 41.3 266.9 41.3 C 266.4 43.9 264.1 45.2 261.8 45.2 C 259 45.2 256.2 43.3 256.2 39.2 C 256.2 35.2 258.8 33.2 261.8 33.2 C 264.6 33.2 267 35 267 38.9 C 266.97 38.89 267 40 267 40 C 267 40 258.91 40.03 258.9 40 Z M 259 38 C 259 38 264.2 38 264.2 38 C 264.2 36.5 263.2 35.6 261.7 35.6 C 260.5 35.6 259.2 36.3 259 38 Z " stroke="none" fill="#000"/>  </g>  <g id="Polygon10521">    <path d="M 13.1 8.7 C 13.1 11.3 11.3 13.8 7.7 13.8 C 7.71 13.75 4.5 13.8 4.5 13.8 L 4.5 19.8 L 1.6 19.8 L 1.6 4 C 1.6 4 7.98 4.03 8 4 C 11.4 4 13.1 6.3 13.1 8.7 Z M 10.2 8.9 C 10.2 7.7 9.5 6.8 7.9 6.8 C 7.9 6.76 4.5 6.8 4.5 6.8 L 4.5 11 C 4.5 11 7.79 11.02 7.8 11 C 9.4 11 10.2 10.1 10.2 8.9 Z M 23.6 12 C 23.56 11.99 23.6 19.8 23.6 19.8 L 20.8 19.8 C 20.8 19.8 20.83 18.1 20.8 18.1 C 19.9 19.6 18.5 20 17.3 20 C 15.5 20 13.6 18.9 13.6 16.4 C 13.6 14.6 14.6 13.4 17.3 13 C 17.3 13 19.8 12.6 19.8 12.6 C 20.5 12.5 20.9 12.3 20.9 11.6 C 20.9 10.6 20.1 10.2 19 10.2 C 17.5 10.2 16.8 10.9 16.7 11.9 C 16.7 11.9 14 11.9 14 11.9 C 14.3 9.2 16.5 8 19.1 8 C 21.8 8 23.6 9.3 23.6 12 Z M 20.9 14.9 C 20.9 14.9 20.9 14.3 20.9 14.3 C 20.6 14.4 20.1 14.6 19.5 14.6 C 19.5 14.6 18.2 14.8 18.2 14.8 C 16.8 15 16.4 15.6 16.4 16.3 C 16.4 17.2 17 17.7 18 17.7 C 19.4 17.7 20.9 16.6 20.9 14.9 Z M 32.6 10.8 C 32.6 10.8 31.9 10.77 31.9 10.8 C 29.9 10.8 28.9 11.8 28.9 14.1 C 28.87 14.11 28.9 19.8 28.9 19.8 L 26.1 19.8 L 26.1 8.2 L 28.9 8.2 C 28.9 8.2 28.85 9.85 28.9 9.8 C 29.4 8.6 30.5 8.1 31.9 8.1 C 31.88 8.06 32.6 8.1 32.6 8.1 L 32.6 10.8 Z M 35.8 14.8 C 35.8 16.7 37.2 17.6 38.7 17.6 C 39.8 17.6 40.9 17.2 41.2 16.1 C 41.2 16.1 43.8 16.1 43.8 16.1 C 43.3 18.7 41 20 38.6 20 C 35.8 20 33.1 18.1 33.1 14 C 33.1 10 35.7 8 38.6 8 C 41.5 8 43.8 9.8 43.8 13.7 C 43.83 13.69 43.8 14.8 43.8 14.8 C 43.8 14.8 35.76 14.83 35.8 14.8 Z M 35.8 12.8 C 35.8 12.8 41.1 12.8 41.1 12.8 C 41.1 11.3 40 10.4 38.6 10.4 C 37.3 10.4 36.1 11.1 35.8 12.8 Z M 50.7 20 C 46.9 20 45.1 17.1 45.1 14 C 45.1 10.9 46.9 8 50.7 8 C 53.5 8 55.7 9.6 55.8 12.4 C 55.8 12.4 53.1 12.4 53.1 12.4 C 52.9 11.3 52.1 10.5 50.8 10.5 C 48.7 10.5 47.9 12.2 47.9 14 C 47.9 15.9 48.8 17.4 50.8 17.4 C 52.1 17.4 52.9 16.7 53.1 15.7 C 53.1 15.7 55.9 15.7 55.9 15.7 C 55.5 18.5 53.5 20 50.7 20 Z M 59.9 14.8 C 59.9 16.7 61.3 17.6 62.9 17.6 C 63.9 17.6 65 17.2 65.3 16.1 C 65.3 16.1 67.9 16.1 67.9 16.1 C 67.4 18.7 65.1 20 62.7 20 C 59.9 20 57.2 18.1 57.2 14 C 57.2 10 59.8 8 62.7 8 C 65.6 8 67.9 9.8 67.9 13.7 C 67.93 13.69 67.9 14.8 67.9 14.8 C 67.9 14.8 59.87 14.83 59.9 14.8 Z M 59.9 12.8 C 59.9 12.8 65.2 12.8 65.2 12.8 C 65.2 11.3 64.1 10.4 62.7 10.4 C 61.4 10.4 60.2 11.1 59.9 12.8 Z M 84 16.2 C 84 18.8 81.7 20 79.1 20 C 76.7 20 74.1 19 73.9 16.1 C 73.9 16.1 76.7 16.1 76.7 16.1 C 76.9 17.2 78 17.7 79.3 17.7 C 80.4 17.7 81.3 17.3 81.3 16.5 C 81.3 15.7 80.7 15.6 79.1 15.3 C 76.9 14.9 74.3 14.5 74.3 11.7 C 74.3 9.1 76.5 8 78.9 8 C 81.6 8 83.6 9.3 83.7 11.9 C 83.7 11.9 81 11.9 81 11.9 C 80.9 10.8 80.1 10.3 78.9 10.3 C 77.5 10.3 77 10.9 77 11.6 C 77 12.5 78 12.7 79.4 12.9 C 81.5 13.2 84 13.5 84 16.2 Z M 87.9 14.8 C 87.9 16.7 89.3 17.6 90.9 17.6 C 92 17.6 93 17.2 93.3 16.1 C 93.3 16.1 95.9 16.1 95.9 16.1 C 95.4 18.7 93.1 20 90.7 20 C 87.9 20 85.2 18.1 85.2 14 C 85.2 10 87.8 8 90.8 8 C 93.6 8 95.9 9.8 95.9 13.7 C 95.95 13.69 95.9 14.8 95.9 14.8 C 95.9 14.8 87.88 14.83 87.9 14.8 Z M 87.9 12.8 C 87.9 12.8 93.2 12.8 93.2 12.8 C 93.2 11.3 92.1 10.4 90.7 10.4 C 89.4 10.4 88.2 11.1 87.9 12.8 Z M 104.5 10.8 C 104.5 10.8 103.76 10.77 103.8 10.8 C 101.8 10.8 100.7 11.8 100.7 14.1 C 100.74 14.11 100.7 19.8 100.7 19.8 L 97.9 19.8 L 97.9 8.2 L 100.7 8.2 C 100.7 8.2 100.72 9.85 100.7 9.8 C 101.3 8.6 102.4 8.1 103.7 8.1 C 103.74 8.06 104.5 8.1 104.5 8.1 L 104.5 10.8 Z M 121.1 8.2 L 121.1 24.1 L 118.3 24.1 C 118.3 24.1 118.33 18.06 118.3 18.1 C 117.7 19.2 116.5 19.9 114.9 19.9 C 112.2 19.9 109.7 18 109.7 13.9 C 109.7 9.9 112.1 8 114.8 8 C 116.3 8 117.7 8.6 118.4 9.8 C 118.4 9.83 118.4 8.2 118.4 8.2 L 121.1 8.2 Z M 118.4 13.9 C 118.4 11.5 117 10.5 115.5 10.5 C 114 10.5 112.6 11.5 112.6 13.9 C 112.6 16.2 114 17.3 115.5 17.3 C 117 17.3 118.4 16.3 118.4 13.9 Z M 133.9 19.8 L 131.2 19.8 C 131.2 19.8 131.17 18.14 131.2 18.1 C 130.5 19.2 129.4 19.9 127.8 19.9 C 125.4 19.9 123.6 18.4 123.6 15.4 C 123.65 15.39 123.6 8.2 123.6 8.2 L 126.4 8.2 C 126.4 8.2 126.44 15.18 126.4 15.2 C 126.4 16.8 127.2 17.4 128.4 17.4 C 130 17.4 131.1 16.5 131.1 13.8 C 131.1 13.8 131.1 8.2 131.1 8.2 L 133.9 8.2 L 133.9 19.8 Z M 138.6 14.8 C 138.7 16.7 140 17.6 141.6 17.6 C 142.7 17.6 143.7 17.2 144.1 16.1 C 144.1 16.1 146.6 16.1 146.6 16.1 C 146.1 18.7 143.8 20 141.5 20 C 138.7 20 135.9 18.1 135.9 14 C 135.9 10 138.5 8 141.5 8 C 144.3 8 146.7 9.8 146.7 13.7 C 146.66 13.69 146.7 14.8 146.7 14.8 C 146.7 14.8 138.6 14.83 138.6 14.8 Z M 138.7 12.8 C 138.7 12.8 143.9 12.8 143.9 12.8 C 143.9 11.3 142.9 10.4 141.4 10.4 C 140.2 10.4 138.9 11.1 138.7 12.8 Z M 164.1 12.3 C 164.09 12.31 164.1 19.8 164.1 19.8 L 161.3 19.8 C 161.3 19.8 161.3 12.56 161.3 12.6 C 161.3 11.3 160.6 10.5 159.3 10.5 C 157.7 10.5 156.7 11.6 156.7 13.5 C 156.7 13.52 156.7 19.8 156.7 19.8 L 153.9 19.8 L 153.9 3.8 L 156.7 3.8 C 156.7 3.8 156.7 9.83 156.7 9.8 C 157.4 8.7 158.4 8 160.2 8 C 162.9 8 164.1 9.5 164.1 12.3 Z M 176 12 C 175.98 11.99 176 19.8 176 19.8 L 173.2 19.8 C 173.2 19.8 173.25 18.1 173.2 18.1 C 172.3 19.6 171 20 169.7 20 C 167.9 20 166 18.9 166 16.4 C 166 14.6 167 13.4 169.7 13 C 169.7 13 172.2 12.6 172.2 12.6 C 172.9 12.5 173.4 12.3 173.4 11.6 C 173.4 10.6 172.5 10.2 171.4 10.2 C 169.9 10.2 169.2 10.9 169.1 11.9 C 169.1 11.9 166.4 11.9 166.4 11.9 C 166.7 9.2 168.9 8 171.5 8 C 174.3 8 176 9.3 176 12 Z M 173.3 14.9 C 173.3 14.9 173.3 14.3 173.3 14.3 C 173 14.4 172.5 14.6 171.9 14.6 C 171.9 14.6 170.6 14.8 170.6 14.8 C 169.2 15 168.8 15.6 168.8 16.3 C 168.8 17.2 169.4 17.7 170.4 17.7 C 171.8 17.7 173.3 16.6 173.3 14.9 Z M 188.4 8.2 C 188.4 8.2 183.39 21.52 183.4 21.5 C 182.9 22.9 181.7 23.5 180.1 23.5 C 180.12 23.48 178.4 23.5 178.4 23.5 L 178.4 21 C 178.4 21 179.63 21 179.6 21 C 180.6 21 181 20.7 181.3 19.9 C 181.29 19.87 181.5 19.3 181.5 19.3 L 177.1 8.2 L 180.1 8.2 L 182.8 15.8 L 185.6 8.2 L 188.4 8.2 Z M 199.5 20 C 195.7 20 193.9 17.1 193.9 14 C 193.9 10.9 195.7 8 199.5 8 C 202.4 8 204.5 9.6 204.6 12.4 C 204.6 12.4 201.9 12.4 201.9 12.4 C 201.7 11.3 200.9 10.5 199.6 10.5 C 197.5 10.5 196.7 12.2 196.7 14 C 196.7 15.9 197.6 17.4 199.6 17.4 C 200.9 17.4 201.7 16.7 201.9 15.7 C 201.9 15.7 204.7 15.7 204.7 15.7 C 204.3 18.5 202.3 20 199.5 20 Z M 217.3 14 C 217.3 17.8 214.9 20 211.6 20 C 208.4 20 206 17.8 206 14 C 206 10.2 208.4 8 211.6 8 C 214.9 8 217.3 10.2 217.3 14 Z M 208.8 14 C 208.8 16.3 210.1 17.4 211.7 17.4 C 213.3 17.4 214.4 16.2 214.4 14 C 214.4 11.7 213.1 10.6 211.6 10.6 C 209.9 10.6 208.8 11.8 208.8 14 Z M 229.5 12.3 C 229.47 12.31 229.5 19.8 229.5 19.8 L 226.7 19.8 C 226.7 19.8 226.67 12.56 226.7 12.6 C 226.7 11.3 225.9 10.5 224.6 10.5 C 223 10.5 222.1 11.6 222.1 13.5 C 222.07 13.52 222.1 19.8 222.1 19.8 L 219.3 19.8 L 219.3 8.2 L 222.1 8.2 C 222.1 8.2 222.05 9.87 222.1 9.9 C 222.7 8.8 223.6 8 225.6 8 C 228.2 8 229.5 9.5 229.5 12.3 Z M 241.4 16.2 C 241.4 18.8 239 20 236.4 20 C 234 20 231.4 19 231.3 16.1 C 231.3 16.1 234.1 16.1 234.1 16.1 C 234.3 17.2 235.3 17.7 236.6 17.7 C 237.8 17.7 238.6 17.3 238.6 16.5 C 238.6 15.7 238.1 15.6 236.5 15.3 C 234.2 14.9 231.6 14.5 231.6 11.7 C 231.6 9.1 233.8 8 236.2 8 C 238.9 8 240.9 9.3 241.1 11.9 C 241.1 11.9 238.3 11.9 238.3 11.9 C 238.2 10.8 237.4 10.3 236.2 10.3 C 234.9 10.3 234.3 10.9 234.3 11.6 C 234.3 12.5 235.3 12.7 236.8 12.9 C 238.8 13.2 241.4 13.5 241.4 16.2 Z M 245.2 14.8 C 245.3 16.7 246.6 17.6 248.2 17.6 C 249.3 17.6 250.3 17.2 250.7 16.1 C 250.7 16.1 253.2 16.1 253.2 16.1 C 252.7 18.7 250.4 20 248.1 20 C 245.3 20 242.5 18.1 242.5 14 C 242.5 10 245.1 8 248.1 8 C 250.9 8 253.3 9.8 253.3 13.7 C 253.28 13.69 253.3 14.8 253.3 14.8 C 253.3 14.8 245.22 14.83 245.2 14.8 Z M 245.3 12.8 C 245.3 12.8 250.5 12.8 250.5 12.8 C 250.5 11.3 249.5 10.4 248.1 10.4 C 246.8 10.4 245.5 11.1 245.3 12.8 Z M 265.5 12.3 C 265.46 12.31 265.5 19.8 265.5 19.8 L 262.7 19.8 C 262.7 19.8 262.67 12.56 262.7 12.6 C 262.7 11.3 261.9 10.5 260.6 10.5 C 259 10.5 258.1 11.6 258.1 13.5 C 258.07 13.52 258.1 19.8 258.1 19.8 L 255.3 19.8 L 255.3 8.2 L 258 8.2 C 258 8.2 258.05 9.87 258 9.9 C 258.7 8.8 259.6 8 261.6 8 C 264.2 8 265.5 9.5 265.5 12.3 Z M 277.3 16.2 C 277.3 18.8 275 20 272.4 20 C 270 20 267.4 19 267.2 16.1 C 267.2 16.1 270.1 16.1 270.1 16.1 C 270.2 17.2 271.3 17.7 272.6 17.7 C 273.8 17.7 274.6 17.3 274.6 16.5 C 274.6 15.7 274 15.6 272.5 15.3 C 270.2 14.9 267.6 14.5 267.6 11.7 C 267.6 9.1 269.8 8 272.2 8 C 274.9 8 276.9 9.3 277.1 11.9 C 277.1 11.9 274.3 11.9 274.3 11.9 C 274.2 10.8 273.4 10.3 272.2 10.3 C 270.9 10.3 270.3 10.9 270.3 11.6 C 270.3 12.5 271.3 12.7 272.7 12.9 C 274.8 13.2 277.3 13.5 277.3 16.2 Z M 289.8 14 C 289.8 17.8 287.4 20 284.1 20 C 280.9 20 278.5 17.8 278.5 14 C 278.5 10.2 280.9 8 284.1 8 C 287.4 8 289.8 10.2 289.8 14 Z M 281.4 14 C 281.4 16.3 282.6 17.4 284.2 17.4 C 285.8 17.4 287 16.2 287 14 C 287 11.7 285.7 10.6 284.1 10.6 C 282.5 10.6 281.4 11.8 281.4 14 Z M 291.5 7.7 L 294.6 7.7 L 294.6 11 L 291.5 11 L 291.5 7.7 Z M 291.5 16.5 L 294.6 16.5 L 294.6 19.8 L 291.5 19.8 L 291.5 16.5 Z " stroke="none" fill="#000"/>  </g></svg>