<?xml version="1.0" standalone="no"?><!DOCTYPE svg PUBLIC "-//W3C//DTD SVG 1.1//EN" "http://www.w3.org/Graphics/SVG/1.1/DTD/svg11.dtd"><svg xmlns="http://www.w3.org/2000/svg" version="1.1" width="204px" height="80.4px" viewBox="0 0 204 80.4">  <desc>de rendimientos positivos</desc>  <defs/>  <g id="Polygon9992">    <path d="M 15.2 47.5 C 15.2 52.4 12.1 54.6 8.9 54.6 C 7 54.6 5.7 53.9 5 52.9 C 4.95 52.9 5 59.7 5 59.7 L 1.6 59.7 L 1.6 40.7 L 4.9 40.7 C 4.9 40.7 4.88 42.95 4.9 42.9 C 5.6 41.4 7.2 40.5 9.2 40.5 C 12.4 40.5 15.2 42.8 15.2 47.5 Z M 11.8 47.6 C 11.8 44.8 10.2 43.5 8.4 43.5 C 6.6 43.5 4.8 44.8 4.8 47.6 C 4.8 50.4 6.6 51.7 8.4 51.7 C 10.2 51.7 11.8 50.4 11.8 47.6 Z M 30.1 47.7 C 30.1 52.2 27.3 54.8 23.4 54.8 C 19.5 54.8 16.7 52.2 16.7 47.7 C 16.7 43.2 19.5 40.5 23.4 40.5 C 27.3 40.5 30.1 43.2 30.1 47.7 Z M 20.1 47.7 C 20.1 50.4 21.6 51.7 23.4 51.7 C 25.4 51.7 26.7 50.2 26.7 47.7 C 26.7 44.9 25.2 43.6 23.4 43.6 C 21.4 43.6 20.1 45.1 20.1 47.7 Z M 43.5 50.3 C 43.5 53.4 40.8 54.8 37.7 54.8 C 34.8 54.8 31.7 53.6 31.5 50.1 C 31.5 50.1 34.9 50.1 34.9 50.1 C 35.1 51.5 36.3 52.1 37.9 52.1 C 39.3 52.1 40.3 51.6 40.3 50.6 C 40.3 49.7 39.6 49.5 37.7 49.2 C 35 48.7 31.9 48.3 31.9 44.9 C 31.9 41.8 34.6 40.5 37.4 40.5 C 40.6 40.5 43 42.1 43.2 45.2 C 43.2 45.2 40 45.2 40 45.2 C 39.8 43.8 38.9 43.3 37.5 43.3 C 35.8 43.3 35.2 44 35.2 44.8 C 35.2 45.9 36.4 46.1 38.1 46.3 C 40.5 46.7 43.5 47 43.5 50.3 Z M 45.7 38.9 L 49.2 38.9 L 49.2 35.1 L 45.7 35.1 L 45.7 38.9 Z M 45.8 40.7 L 49.1 40.7 L 49.1 54.5 L 45.8 54.5 L 45.8 40.7 Z M 59.4 54.5 C 59.4 54.5 57.2 54.55 57.2 54.5 C 54.6 54.5 53 53.7 53 50 C 52.97 50.05 53 43.7 53 43.7 L 50.4 43.7 L 50.4 40.7 L 53 40.7 L 53 37.6 L 56.3 36.7 L 56.3 40.7 L 59 40.7 L 59 43.7 L 56.3 43.7 C 56.3 43.7 56.3 50.2 56.3 50.2 C 56.3 51 56.5 51.6 57.7 51.6 C 57.7 51.6 59.4 51.6 59.4 51.6 L 59.4 54.5 Z M 61.1 38.9 L 64.6 38.9 L 64.6 35.1 L 61.1 35.1 L 61.1 38.9 Z M 61.2 40.7 L 64.5 40.7 L 64.5 54.5 L 61.2 54.5 L 61.2 40.7 Z M 74.8 54.5 L 71.2 54.5 L 66.1 40.7 L 69.7 40.7 L 73 50.6 L 76.4 40.7 L 79.9 40.7 L 74.8 54.5 Z M 93.9 47.7 C 93.9 52.2 91 54.8 87.1 54.8 C 83.3 54.8 80.4 52.2 80.4 47.7 C 80.4 43.2 83.3 40.5 87.1 40.5 C 91 40.5 93.9 43.2 93.9 47.7 Z M 83.8 47.7 C 83.8 50.4 85.3 51.7 87.2 51.7 C 89.1 51.7 90.5 50.2 90.5 47.7 C 90.5 44.9 88.9 43.6 87.1 43.6 C 85.1 43.6 83.8 45.1 83.8 47.7 Z M 107.3 50.3 C 107.3 53.4 104.5 54.8 101.4 54.8 C 98.6 54.8 95.5 53.6 95.2 50.1 C 95.2 50.1 98.6 50.1 98.6 50.1 C 98.8 51.5 100 52.1 101.6 52.1 C 103 52.1 104 51.6 104 50.6 C 104 49.7 103.3 49.5 101.4 49.2 C 98.7 48.7 95.7 48.3 95.7 44.9 C 95.7 41.8 98.3 40.5 101.1 40.5 C 104.4 40.5 106.7 42.1 106.9 45.2 C 106.9 45.2 103.7 45.2 103.7 45.2 C 103.6 43.8 102.6 43.3 101.2 43.3 C 99.5 43.3 98.9 44 98.9 44.8 C 98.9 45.9 100.1 46.1 101.8 46.3 C 104.3 46.7 107.3 47 107.3 50.3 Z " stroke="none" fill="#000"/>  </g>  <g id="Polygon9991">    <path d="M 14.3 23.5 L 11.1 23.5 C 11.1 23.5 11.05 21.42 11.1 21.4 C 10.3 23 8.7 23.8 6.8 23.8 C 3.6 23.8 0.8 21.5 0.8 16.6 C 0.8 11.9 3.6 9.5 6.8 9.5 C 8.6 9.5 10.2 10.2 11 11.6 C 10.98 11.57 11 4.5 11 4.5 L 14.3 4.5 L 14.3 23.5 Z M 11.1 16.6 C 11.1 13.8 9.4 12.4 7.6 12.4 C 5.8 12.4 4.1 13.8 4.1 16.6 C 4.1 19.4 5.8 20.8 7.6 20.8 C 9.4 20.8 11.1 19.4 11.1 16.6 Z M 19.9 17.6 C 20 19.9 21.6 21 23.4 21 C 24.7 21 26 20.4 26.4 19.1 C 26.4 19.1 29.4 19.1 29.4 19.1 C 28.8 22.2 26.1 23.8 23.3 23.8 C 20 23.8 16.7 21.6 16.7 16.7 C 16.7 11.9 19.8 9.5 23.3 9.5 C 26.7 9.5 29.5 11.7 29.5 16.3 C 29.5 16.3 29.5 17.6 29.5 17.6 C 29.5 17.6 19.9 17.65 19.9 17.6 Z M 20 15.2 C 20 15.2 26.2 15.2 26.2 15.2 C 26.2 13.4 25 12.4 23.3 12.4 C 21.7 12.4 20.3 13.2 20 15.2 Z M 45.9 12.8 C 45.9 12.8 45.05 12.82 45 12.8 C 42.7 12.8 41.4 14.1 41.4 16.8 C 41.45 16.8 41.4 23.5 41.4 23.5 L 38.1 23.5 L 38.1 9.7 L 41.4 9.7 C 41.4 9.7 41.42 11.72 41.4 11.7 C 42.1 10.2 43.4 9.6 45 9.6 C 45.02 9.6 45.9 9.6 45.9 9.6 L 45.9 12.8 Z M 49.6 17.6 C 49.7 19.9 51.3 21 53.2 21 C 54.5 21 55.7 20.4 56.1 19.1 C 56.1 19.1 59.2 19.1 59.2 19.1 C 58.6 22.2 55.9 23.8 53 23.8 C 49.7 23.8 46.4 21.6 46.4 16.7 C 46.4 11.9 49.5 9.5 53.1 9.5 C 56.4 9.5 59.2 11.7 59.2 16.3 C 59.25 16.3 59.2 17.6 59.2 17.6 C 59.2 17.6 49.65 17.65 49.6 17.6 Z M 49.7 15.2 C 49.7 15.2 56 15.2 56 15.2 C 56 13.4 54.7 12.4 53 12.4 C 51.5 12.4 50 13.2 49.7 15.2 Z M 73.7 14.6 C 73.75 14.65 73.7 23.5 73.7 23.5 L 70.4 23.5 C 70.4 23.5 70.42 14.95 70.4 14.9 C 70.4 13.4 69.5 12.5 68 12.5 C 66.1 12.5 64.9 13.8 64.9 16.1 C 64.95 16.1 64.9 23.5 64.9 23.5 L 61.6 23.5 L 61.6 9.7 L 64.9 9.7 C 64.9 9.7 64.92 11.75 64.9 11.7 C 65.7 10.5 66.8 9.5 69.1 9.5 C 72.3 9.5 73.7 11.3 73.7 14.6 Z M 89.5 23.5 L 86.3 23.5 C 86.3 23.5 86.3 21.42 86.3 21.4 C 85.5 23 83.9 23.8 82 23.8 C 78.8 23.8 76 21.5 76 16.6 C 76 11.9 78.8 9.5 82 9.5 C 83.8 9.5 85.4 10.2 86.2 11.6 C 86.22 11.57 86.2 4.5 86.2 4.5 L 89.5 4.5 L 89.5 23.5 Z M 86.3 16.6 C 86.3 13.8 84.6 12.4 82.8 12.4 C 81 12.4 79.4 13.8 79.4 16.6 C 79.4 19.4 81 20.8 82.8 20.8 C 84.6 20.8 86.3 19.4 86.3 16.6 Z M 92.7 7.9 L 96.2 7.9 L 96.2 4.1 L 92.7 4.1 L 92.7 7.9 Z M 92.8 9.7 L 96.1 9.7 L 96.1 23.5 L 92.8 23.5 L 92.8 9.7 Z M 118.8 14.2 C 118.8 14.25 118.8 23.5 118.8 23.5 L 115.5 23.5 C 115.5 23.5 115.47 14.9 115.5 14.9 C 115.5 13.2 114.7 12.5 113.3 12.5 C 111.7 12.5 110.7 13.5 110.7 15.8 C 110.72 15.8 110.7 23.5 110.7 23.5 L 107.4 23.5 C 107.4 23.5 107.4 14.9 107.4 14.9 C 107.4 13.2 106.6 12.5 105.2 12.5 C 103.7 12.5 102.6 13.5 102.6 15.8 C 102.65 15.77 102.6 23.5 102.6 23.5 L 99.3 23.5 L 99.3 9.7 L 102.6 9.7 C 102.6 9.7 102.6 11.77 102.6 11.8 C 103 10.7 104.1 9.5 106.2 9.5 C 107.9 9.5 109.3 10.3 110 11.8 C 110.5 10.8 111.5 9.5 114 9.5 C 116.9 9.5 118.8 11.3 118.8 14.2 Z M 121.8 7.9 L 125.3 7.9 L 125.3 4.1 L 121.8 4.1 L 121.8 7.9 Z M 121.9 9.7 L 125.2 9.7 L 125.2 23.5 L 121.9 23.5 L 121.9 9.7 Z M 130.8 17.6 C 130.9 19.9 132.5 21 134.3 21 C 135.6 21 136.9 20.4 137.3 19.1 C 137.3 19.1 140.3 19.1 140.3 19.1 C 139.7 22.2 137 23.8 134.2 23.8 C 130.9 23.8 127.6 21.6 127.6 16.7 C 127.6 11.9 130.7 9.5 134.2 9.5 C 137.6 9.5 140.4 11.7 140.4 16.3 C 140.4 16.3 140.4 17.6 140.4 17.6 C 140.4 17.6 130.8 17.65 130.8 17.6 Z M 130.9 15.2 C 130.9 15.2 137.1 15.2 137.1 15.2 C 137.1 13.4 135.9 12.4 134.2 12.4 C 132.6 12.4 131.2 13.2 130.9 15.2 Z M 154.9 14.6 C 154.9 14.65 154.9 23.5 154.9 23.5 L 151.6 23.5 C 151.6 23.5 151.57 14.95 151.6 14.9 C 151.6 13.4 150.7 12.5 149.1 12.5 C 147.2 12.5 146.1 13.8 146.1 16.1 C 146.1 16.1 146.1 23.5 146.1 23.5 L 142.8 23.5 L 142.8 9.7 L 146.1 9.7 C 146.1 9.7 146.07 11.75 146.1 11.7 C 146.8 10.5 148 9.5 150.3 9.5 C 153.4 9.5 154.9 11.3 154.9 14.6 Z M 165.1 23.5 C 165.1 23.5 162.9 23.55 162.9 23.5 C 160.3 23.5 158.7 22.7 158.7 19 C 158.67 19.05 158.7 12.7 158.7 12.7 L 156.1 12.7 L 156.1 9.7 L 158.7 9.7 L 158.7 6.6 L 162 5.7 L 162 9.7 L 164.7 9.7 L 164.7 12.7 L 162 12.7 C 162 12.7 162 19.2 162 19.2 C 162 20 162.2 20.6 163.4 20.6 C 163.4 20.6 165.1 20.6 165.1 20.6 L 165.1 23.5 Z M 179.5 16.7 C 179.5 21.2 176.7 23.8 172.8 23.8 C 168.9 23.8 166.1 21.2 166.1 16.7 C 166.1 12.2 168.9 9.5 172.8 9.5 C 176.7 9.5 179.5 12.2 179.5 16.7 Z M 169.5 16.7 C 169.5 19.4 171 20.7 172.8 20.7 C 174.8 20.7 176.1 19.2 176.1 16.7 C 176.1 13.9 174.6 12.6 172.8 12.6 C 170.8 12.6 169.5 14.1 169.5 16.7 Z M 192.9 19.3 C 192.9 22.4 190.2 23.8 187.1 23.8 C 184.2 23.8 181.1 22.6 180.9 19.1 C 180.9 19.1 184.3 19.1 184.3 19.1 C 184.5 20.5 185.7 21.1 187.3 21.1 C 188.7 21.1 189.7 20.6 189.7 19.6 C 189.7 18.7 189 18.5 187.1 18.2 C 184.4 17.7 181.3 17.3 181.3 13.9 C 181.3 10.8 184 9.5 186.8 9.5 C 190 9.5 192.4 11.1 192.6 14.2 C 192.6 14.2 189.4 14.2 189.4 14.2 C 189.2 12.8 188.3 12.3 186.9 12.3 C 185.2 12.3 184.6 13 184.6 13.8 C 184.6 14.9 185.8 15.1 187.5 15.3 C 189.9 15.7 192.9 16 192.9 19.3 Z " stroke="none" fill="#000"/>  </g></svg>