<?xml version="1.0" standalone="no"?><!DOCTYPE svg PUBLIC "-//W3C//DTD SVG 1.1//EN" "http://www.w3.org/Graphics/SVG/1.1/DTD/svg11.dtd"><svg xmlns="http://www.w3.org/2000/svg" version="1.1" width="647.4px" height="404px" viewBox="0 0 647.4 404">  <desc>Sin ideas fijas</desc>  <defs/>  <g id="Polygon9399">    <path d="M 48.9 265.6 L 48.9 259.8 L 57.2 256.2 L 57.2 209.2 L 33.2 209.2 L 33.2 257.7 L 42.8 259.3 L 42.8 265.6 L 5.1 265.6 L 5.1 259.8 L 14.6 256.2 L 14.6 208.6 L 1.9 208.6 L 1.9 202.6 L 14.6 198.8 C 14.6 198.8 14.63 193.07 14.6 193.1 C 14.6 175.3 28.6 167.4 44.1 167.4 C 52.1 167.4 60.3 169.5 67.3 173.4 C 67.33 173.35 61.6 190.2 61.6 190.2 C 61.6 190.2 54.19 190.21 54.2 190.2 C 53.9 179.3 48.5 174.3 43.3 174.3 C 38.2 174.3 33.2 179.2 33.2 188 C 33.23 187.98 33.2 200.9 33.2 200.9 L 75.8 200.9 L 75.8 257.7 L 85.3 259.3 L 85.3 265.6 L 48.9 265.6 Z M 96.2 179.4 C 96.2 172.1 101.3 167.3 108.6 167.3 C 115.9 167.3 121 172.1 121 179.4 C 121 186.7 115.9 191.6 108.6 191.6 C 101.3 191.6 96.2 186.7 96.2 179.4 Z M 87.8 290.7 C 96.2 282.5 100.4 275.9 100.4 266 C 100.44 265.98 100.4 214.1 100.4 214.1 L 91.1 209.8 L 91.1 205.7 L 119 199.6 C 119 199.6 119.04 259.9 119 259.9 C 119 275.4 106.8 283.7 93.2 296.1 C 93.2 296.1 87.8 290.7 87.8 290.7 Z M 160.5 265.9 C 158.3 266.7 154.6 267.1 151.9 267.1 C 139.3 267.1 132.8 258.7 132.8 249 C 132.8 238.7 140.2 232.4 151.7 229.4 C 151.65 229.4 169.6 224.7 169.6 224.7 C 169.6 224.7 169.63 217.25 169.6 217.2 C 169.6 210.7 165.2 207.7 160.6 207.7 C 155.1 207.7 149.3 212.2 149.3 220.5 C 149.3 221.1 149.3 221.7 149.4 222.6 C 149.42 222.58 141.2 222.6 141.2 222.6 C 141.2 222.6 135.53 207.95 135.5 207.9 C 143.1 202.9 153.9 199.6 163.8 199.6 C 176.8 199.6 187.7 205.2 187.7 219.9 C 187.7 219.9 187.7 248.7 187.7 248.7 C 187.7 253 189.7 254.7 192.3 254.7 C 193.9 254.7 195.5 254.1 196.7 252.5 C 196.7 252.5 198.9 258.8 198.9 258.8 C 196.8 263.7 191.7 267.1 186 267.1 C 180.2 267.1 173.5 263.7 173.4 254.1 C 173.4 254.1 160.5 265.9 160.5 265.9 Z M 169.6 231.3 C 169.6 231.3 160.08 234.11 160.1 234.1 C 152.9 236.2 149.2 240.9 149.2 245.6 C 149.2 249.7 152 253.7 158.1 253.7 C 162.9 253.7 167.4 251.2 169.6 248.2 C 169.63 248.25 169.6 231.3 169.6 231.3 Z M 206.1 243.3 C 206.1 243.3 214.02 243.29 214 243.3 C 214.4 254.2 223.3 259.5 230.1 259.5 C 235 259.5 238.7 256.3 238.7 251.5 C 238.7 245.1 231.5 243 223.8 240.2 C 214.8 236.8 205.1 232.7 205.1 220.1 C 205.1 205.8 217.2 199.6 230.1 199.6 C 237.6 199.6 245.6 201.6 251.6 205.2 C 251.59 205.22 248.6 218.5 248.6 218.5 C 248.6 218.5 241.18 218.49 241.2 218.5 C 239.9 210.7 234.9 207.6 229.9 207.6 C 225.9 207.6 221.8 210.1 221.8 215.1 C 221.8 221.2 227.7 223.6 234.6 225.9 C 244.2 229.2 255.7 232.5 255.7 246 C 255.7 260.2 243 267.1 228.7 267.1 C 220.2 267.1 211.2 265 204.5 261.1 C 204.47 261.14 206.1 243.3 206.1 243.3 Z " stroke="none" fill="#000"/>  </g>  <g id="Polygon9398">    <path d="M 6.8 87.7 C 6.8 87.7 16.37 87.67 16.4 87.7 C 16.4 102.8 27.9 110.7 37.6 110.7 C 44.4 110.7 50.3 106.8 50.3 98.5 C 50.3 88.2 41.4 84.2 29.9 78.4 C 16.1 71.4 5.7 65.1 5.7 49.4 C 5.7 29.8 21.9 21.6 39.2 21.6 C 49.7 21.6 60.8 24.7 68.8 30.1 C 68.82 30.13 62.6 48.2 62.6 48.2 C 62.6 48.2 53.69 48.23 53.7 48.2 C 52.9 35.8 44.6 30.3 37.2 30.3 C 30.8 30.3 25 34.5 25 41.9 C 25 52.1 35.3 56.5 46.4 61.6 C 59.5 67.7 71.2 73.9 71.2 90.4 C 71.2 110.6 53.8 119.2 35.8 119.2 C 24.3 119.2 12.5 115.7 4.3 109.5 C 4.34 109.49 6.8 87.7 6.8 87.7 Z M 83.9 30.6 C 83.9 23.3 89 18.5 96.3 18.5 C 103.7 18.5 108.7 23.3 108.7 30.6 C 108.7 37.9 103.7 42.8 96.3 42.8 C 89 42.8 83.9 37.9 83.9 30.6 Z M 78.6 111 L 88.2 107.4 L 88.2 65.3 L 78.9 61 L 78.9 56.9 L 106.8 50.8 L 106.8 108.9 L 116.3 110.5 L 116.3 116.8 L 78.6 116.8 L 78.6 111 Z M 121.3 111 L 130.8 107.4 L 130.8 64.9 L 121.5 60.5 L 121.5 56.4 L 147.2 50.8 L 147.2 65 C 147.2 65 161.32 52.08 161.3 52.1 C 163.8 51.3 166.5 50.8 169.4 50.8 C 179.3 50.8 189.5 56.8 189.5 72.7 C 189.47 72.66 189.5 108.9 189.5 108.9 L 199 110.5 L 199 116.8 L 162.9 116.8 L 162.9 110.4 L 170.9 107.4 C 170.9 107.4 170.87 76.88 170.9 76.9 C 170.9 68.4 167 64.9 162.2 64.9 C 158.1 64.9 153.4 67.3 149.4 71.4 C 149.42 71.42 149.4 108.9 149.4 108.9 L 157.4 110.2 L 157.4 116.8 L 121.3 116.8 L 121.3 111 Z M 237.2 30.6 C 237.2 23.3 242.3 18.5 249.6 18.5 C 256.9 18.5 262 23.3 262 30.6 C 262 37.9 256.9 42.8 249.6 42.8 C 242.3 42.8 237.2 37.9 237.2 30.6 Z M 231.9 111 L 241.4 107.4 L 241.4 65.3 L 232.1 61 L 232.1 56.9 L 260 50.8 L 260 108.9 L 269.6 110.5 L 269.6 116.8 L 231.9 116.8 L 231.9 111 Z M 307.8 50.8 C 311.6 50.8 315.5 51.8 318.4 52.8 C 318.43 52.82 318.4 36.8 318.4 36.8 L 309.1 32.5 L 309.1 28.4 L 337 22.3 L 337 103.7 L 345.8 105.3 L 345.8 111 L 320.7 118.3 L 320.7 105.3 C 320.7 105.3 304.54 117.55 304.5 117.6 C 302.9 118 301.2 118.3 299.3 118.3 C 288.5 118.3 276.4 109 276.4 87.2 C 276.4 61.4 293.4 50.8 307.8 50.8 Z M 318.4 62.4 C 316.1 59.6 312.7 58.2 308.8 58.2 C 299 58.2 294.4 67.2 294.4 79.5 C 294.4 94.6 300.9 103.3 308.9 103.3 C 312 103.3 315.3 102.1 318.4 99.3 C 318.4 99.3 318.4 62.4 318.4 62.4 Z M 409.1 97.6 C 404.9 111.6 393.6 118.3 382 118.3 C 366.9 118.3 351.4 106.8 351.4 84.9 C 351.4 62.2 367.5 50.8 382.5 50.8 C 395.7 50.8 408.6 59.6 408.6 78.5 C 408.6 80.5 408.5 82.7 408.1 84.9 C 408.1 84.9 367 84.9 367 84.9 C 368.5 97.8 377.3 103.3 386.5 103.3 C 393.4 103.3 400.6 99.7 405.6 92.3 C 405.6 92.3 409.1 97.6 409.1 97.6 Z M 391.3 76 C 392.7 64 387.4 58.9 381.3 58.9 C 375.1 58.9 368.2 63.6 367 76 C 367 76 391.3 76 391.3 76 Z M 444.8 117.1 C 442.7 117.9 439 118.3 436.2 118.3 C 423.6 118.3 417.1 109.9 417.1 100.2 C 417.1 89.9 424.6 83.6 436 80.6 C 435.98 80.6 454 75.9 454 75.9 C 454 75.9 453.96 68.45 454 68.4 C 454 61.9 449.5 58.9 444.9 58.9 C 439.5 58.9 433.6 63.4 433.6 71.7 C 433.6 72.3 433.6 72.9 433.7 73.8 C 433.75 73.78 425.6 73.8 425.6 73.8 C 425.6 73.8 419.86 59.15 419.9 59.1 C 427.4 54.1 438.2 50.8 448.1 50.8 C 461.2 50.8 472.1 56.4 472.1 71.1 C 472.1 71.1 472.1 99.9 472.1 99.9 C 472.1 104.2 474 105.9 476.7 105.9 C 478.3 105.9 479.9 105.3 481 103.7 C 481 103.7 483.2 110 483.2 110 C 481.1 114.9 476 118.3 470.3 118.3 C 464.5 118.3 457.8 114.9 457.7 105.3 C 457.7 105.3 444.8 117.1 444.8 117.1 Z M 454 82.5 C 454 82.5 444.41 85.31 444.4 85.3 C 437.2 87.4 433.5 92.1 433.5 96.8 C 433.5 100.9 436.4 104.9 442.4 104.9 C 447.3 104.9 451.7 102.4 454 99.4 C 453.96 99.45 454 82.5 454 82.5 Z M 490.4 94.5 C 490.4 94.5 498.35 94.49 498.4 94.5 C 498.7 105.4 507.7 110.7 514.5 110.7 C 519.3 110.7 523 107.5 523 102.7 C 523 96.3 515.8 94.2 508.1 91.4 C 499.1 88 489.4 83.9 489.4 71.3 C 489.4 57 501.6 50.8 514.5 50.8 C 521.9 50.8 530 52.8 535.9 56.4 C 535.92 56.42 532.9 69.7 532.9 69.7 C 532.9 69.7 525.51 69.69 525.5 69.7 C 524.3 61.9 519.2 58.8 514.2 58.8 C 510.3 58.8 506.2 61.3 506.2 66.3 C 506.2 72.4 512 74.8 518.9 77.1 C 528.5 80.4 540 83.7 540 97.2 C 540 111.4 527.4 118.3 513 118.3 C 504.6 118.3 495.5 116.2 488.8 112.3 C 488.8 112.34 490.4 94.5 490.4 94.5 Z " stroke="none" fill="#000"/>  </g></svg>