<?xml version="1.0" standalone="no"?><!DOCTYPE svg PUBLIC "-//W3C//DTD SVG 1.1//EN" "http://www.w3.org/Graphics/SVG/1.1/DTD/svg11.dtd"><svg xmlns="http://www.w3.org/2000/svg" version="1.1" width="346px" height="274.4px" viewBox="0 0 346 274.4">  <desc>Analyse bottom-up afin d identifier la vraie valeur Le trait distinctif de Vontobel, c est que nous sommes des ad</desc>  <defs/>  <g id="Polygon11916">    <path d="M 10.8 248.9 C 10.84 248.85 10.8 256.6 10.8 256.6 L 9.3 256.6 C 9.3 256.6 9.3 249.04 9.3 249 C 9.3 247.5 8.4 246.5 6.8 246.5 C 4.9 246.5 3.2 247.9 3.2 250.7 C 3.21 250.66 3.2 256.6 3.2 256.6 L 1.7 256.6 L 1.7 245.3 L 3.2 245.3 C 3.2 245.3 3.21 247.4 3.2 247.4 C 3.9 246.1 5.1 245.1 7.1 245.1 C 9.4 245.1 10.8 246.4 10.8 248.9 Z M 13.4 251 C 13.4 247.3 15.6 245.1 18.7 245.1 C 21.8 245.1 24 247.3 24 251 C 24 254.6 21.8 256.8 18.7 256.8 C 15.6 256.8 13.4 254.6 13.4 251 Z M 22.5 250.9 C 22.5 248.1 20.8 246.5 18.7 246.5 C 16.5 246.5 14.9 248.2 14.9 251 C 14.9 253.8 16.6 255.4 18.7 255.4 C 20.9 255.4 22.5 253.7 22.5 250.9 Z M 34.1 256.6 C 34.1 256.6 34.08 254.44 34.1 254.4 C 33.3 256 31.9 256.7 30.3 256.7 C 28.2 256.7 26.6 255.4 26.6 252.8 C 26.56 252.76 26.6 245.3 26.6 245.3 L 28.1 245.3 C 28.1 245.3 28.1 252.57 28.1 252.6 C 28.1 254.4 29.1 255.4 30.6 255.4 C 32.4 255.4 34 254 34 251.1 C 34.02 251.14 34 245.3 34 245.3 L 35.6 245.3 L 35.6 256.6 L 34.1 256.6 Z M 47.3 253.4 C 47.3 255.7 45.2 256.8 42.9 256.8 C 40.5 256.8 38.3 255.6 38.1 253.1 C 38.1 253.1 39.7 253.1 39.7 253.1 C 40 254.8 41.4 255.4 43 255.4 C 44.4 255.4 45.7 254.9 45.7 253.6 C 45.7 252.3 44.4 252 43.1 251.8 C 40.9 251.4 38.3 251 38.3 248.4 C 38.3 246.2 40.3 245.1 42.6 245.1 C 45 245.1 46.9 246.2 47 248.5 C 47 248.5 45.4 248.5 45.4 248.5 C 45.3 247.1 44 246.5 42.5 246.5 C 41 246.5 39.9 247.2 39.9 248.3 C 39.9 249.8 41.3 250 43 250.3 C 45 250.6 47.3 250.9 47.3 253.4 Z M 59.1 256.8 C 56 256.8 53.9 254.5 53.9 251 C 53.9 247.4 56 245.1 59.3 245.1 C 61.8 245.1 63.8 246.5 63.9 249 C 63.9 249 62.4 249 62.4 249 C 62.3 247.4 60.9 246.5 59.2 246.5 C 57 246.5 55.5 248.2 55.5 250.9 C 55.5 253.7 57 255.4 59.2 255.4 C 60.9 255.4 62.3 254.4 62.4 252.6 C 62.4 252.6 63.9 252.6 63.9 252.6 C 63.8 255.3 61.6 256.8 59.1 256.8 Z M 65.8 251 C 65.8 247.3 68 245.1 71.1 245.1 C 74.3 245.1 76.5 247.3 76.5 251 C 76.5 254.6 74.3 256.8 71.2 256.8 C 68.1 256.8 65.8 254.6 65.8 251 Z M 74.9 250.9 C 74.9 248.1 73.2 246.5 71.1 246.5 C 68.9 246.5 67.4 248.2 67.4 251 C 67.4 253.8 69.1 255.4 71.2 255.4 C 73.4 255.4 74.9 253.7 74.9 250.9 Z M 88.3 248.9 C 88.28 248.85 88.3 256.6 88.3 256.6 L 86.8 256.6 C 86.8 256.6 86.75 249.04 86.8 249 C 86.8 247.5 85.9 246.5 84.3 246.5 C 82.3 246.5 80.7 247.9 80.7 250.7 C 80.66 250.66 80.7 256.6 80.7 256.6 L 79.1 256.6 L 79.1 245.3 L 80.7 245.3 C 80.7 245.3 80.66 247.4 80.7 247.4 C 81.3 246.1 82.6 245.1 84.6 245.1 C 86.8 245.1 88.3 246.4 88.3 248.9 Z M 96.7 256.6 C 96.7 256.6 95.02 256.58 95 256.6 C 93.5 256.6 92.2 256.1 92.2 253.6 C 92.19 253.62 92.2 246.7 92.2 246.7 L 90 246.7 L 90 245.3 L 92.2 245.3 L 92.2 242.1 L 93.7 241.7 L 93.7 245.3 L 96.5 245.3 L 96.5 246.7 L 93.7 246.7 C 93.7 246.7 93.72 253.6 93.7 253.6 C 93.7 254.6 94 255.2 95.3 255.2 C 95.28 255.2 96.7 255.2 96.7 255.2 L 96.7 256.6 Z M 100.5 240.6 L 98.8 240.6 L 98.8 242.5 L 100.5 242.5 L 100.5 240.6 Z M 100.4 256.6 L 98.9 256.6 L 98.9 245.3 L 100.4 245.3 L 100.4 256.6 Z M 112.9 248.9 C 112.94 248.85 112.9 256.6 112.9 256.6 L 111.4 256.6 C 111.4 256.6 111.4 249.04 111.4 249 C 111.4 247.5 110.5 246.5 108.9 246.5 C 107 246.5 105.3 247.9 105.3 250.7 C 105.31 250.66 105.3 256.6 105.3 256.6 L 103.8 256.6 L 103.8 245.3 L 105.3 245.3 C 105.3 245.3 105.31 247.4 105.3 247.4 C 106 246.1 107.2 245.1 109.2 245.1 C 111.5 245.1 112.9 246.4 112.9 248.9 Z M 123.6 256.6 C 123.6 256.6 123.6 254.44 123.6 254.4 C 122.8 256 121.4 256.7 119.8 256.7 C 117.7 256.7 116.1 255.4 116.1 252.8 C 116.09 252.76 116.1 245.3 116.1 245.3 L 117.6 245.3 C 117.6 245.3 117.62 252.57 117.6 252.6 C 117.6 254.4 118.6 255.4 120.1 255.4 C 121.9 255.4 123.5 254 123.5 251.1 C 123.54 251.14 123.5 245.3 123.5 245.3 L 125.1 245.3 L 125.1 256.6 L 123.6 256.6 Z M 129.2 251.3 C 129.3 254.1 131 255.4 133 255.4 C 134.5 255.4 135.9 254.7 136.3 253.1 C 136.3 253.1 137.7 253.1 137.7 253.1 C 137.2 255.7 135 256.8 132.9 256.8 C 130.2 256.8 127.7 255 127.7 251 C 127.7 246.9 130.2 245.1 132.9 245.1 C 135.6 245.1 137.8 246.8 137.8 250.6 C 137.8 250.55 137.8 251.3 137.8 251.3 C 137.8 251.3 129.21 251.31 129.2 251.3 Z M 129.3 250 C 129.3 250 136.2 250 136.2 250 C 136.2 247.7 134.8 246.5 132.9 246.5 C 131.1 246.5 129.5 247.6 129.3 250 Z M 146.1 246.6 C 146.1 246.6 145.7 246.63 145.7 246.6 C 143.3 246.6 142 248 142 250.6 C 141.96 250.6 142 256.6 142 256.6 L 140.4 256.6 L 140.4 245.3 L 141.9 245.3 C 141.9 245.3 141.94 247.38 141.9 247.4 C 142.5 245.9 143.8 245.2 145.6 245.2 C 145.57 245.18 146.1 245.2 146.1 245.2 L 146.1 246.6 Z M 146.3 254.4 L 148.4 254.4 L 148.4 256.6 L 146.3 256.6 L 146.3 254.4 Z " stroke="none" fill="#000"/>  </g>  <g id="Polygon11915">    <path d="M 10.1 228.2 C 10.1 230.5 8 231.6 5.7 231.6 C 3.3 231.6 1.1 230.4 0.8 227.9 C 0.8 227.9 2.5 227.9 2.5 227.9 C 2.7 229.6 4.2 230.2 5.7 230.2 C 7.2 230.2 8.5 229.7 8.5 228.4 C 8.5 227.1 7.2 226.8 5.8 226.6 C 3.7 226.2 1.1 225.8 1.1 223.2 C 1.1 221 3 219.9 5.4 219.9 C 7.7 219.9 9.6 221 9.8 223.3 C 9.8 223.3 8.2 223.3 8.2 223.3 C 8.1 221.9 6.8 221.3 5.3 221.3 C 3.8 221.3 2.7 222 2.7 223.1 C 2.7 224.6 4.1 224.8 5.8 225.1 C 7.8 225.4 10.1 225.7 10.1 228.2 Z M 13.7 217.6 C 13.67 217.58 12.7 217.6 12.7 217.6 L 12.7 215.5 L 14.9 215.5 C 14.9 215.5 14.89 217.65 14.9 217.6 C 14.9 220.1 13.4 221 11.8 221.2 C 11.8 221.2 11.6 220.2 11.6 220.2 C 13.3 219.9 13.7 218.9 13.7 217.6 Z M 16.6 226.1 C 16.7 228.9 18.4 230.2 20.4 230.2 C 21.9 230.2 23.3 229.5 23.7 227.9 C 23.7 227.9 25.1 227.9 25.1 227.9 C 24.6 230.5 22.4 231.6 20.3 231.6 C 17.6 231.6 15.1 229.8 15.1 225.8 C 15.1 221.7 17.6 219.9 20.3 219.9 C 23 219.9 25.2 221.6 25.2 225.4 C 25.2 225.35 25.2 226.1 25.2 226.1 C 25.2 226.1 16.61 226.11 16.6 226.1 Z M 16.7 224.8 C 16.7 224.8 23.6 224.8 23.6 224.8 C 23.6 222.5 22.2 221.3 20.3 221.3 C 18.5 221.3 16.9 222.4 16.7 224.8 Z M 37 223.7 C 36.98 223.65 37 231.4 37 231.4 L 35.4 231.4 C 35.4 231.4 35.45 223.84 35.4 223.8 C 35.4 222.3 34.6 221.3 33 221.3 C 31 221.3 29.4 222.7 29.4 225.5 C 29.36 225.46 29.4 231.4 29.4 231.4 L 27.8 231.4 L 27.8 220.1 L 29.4 220.1 C 29.4 220.1 29.36 222.2 29.4 222.2 C 30 220.9 31.3 219.9 33.3 219.9 C 35.5 219.9 37 221.2 37 223.7 Z M 53.8 228.2 C 53.8 230.5 51.7 231.6 49.5 231.6 C 47.1 231.6 44.8 230.4 44.6 227.9 C 44.6 227.9 46.2 227.9 46.2 227.9 C 46.5 229.6 48 230.2 49.5 230.2 C 51 230.2 52.2 229.7 52.2 228.4 C 52.2 227.1 50.9 226.8 49.6 226.6 C 47.4 226.2 44.9 225.8 44.9 223.2 C 44.9 221 46.8 219.9 49.1 219.9 C 51.5 219.9 53.4 221 53.5 223.3 C 53.5 223.3 51.9 223.3 51.9 223.3 C 51.8 221.9 50.5 221.3 49.1 221.3 C 47.5 221.3 46.5 222 46.5 223.1 C 46.5 224.6 47.8 224.8 49.5 225.1 C 51.6 225.4 53.8 225.7 53.8 228.2 Z M 55.6 225.8 C 55.6 222.1 57.8 219.9 60.9 219.9 C 64.1 219.9 66.3 222.1 66.3 225.8 C 66.3 229.4 64.1 231.6 61 231.6 C 57.9 231.6 55.6 229.4 55.6 225.8 Z M 64.7 225.7 C 64.7 222.9 63 221.3 60.9 221.3 C 58.7 221.3 57.2 223 57.2 225.8 C 57.2 228.6 58.9 230.2 61 230.2 C 63.2 230.2 64.7 228.5 64.7 225.7 Z M 78.1 223.7 C 78.08 223.65 78.1 231.4 78.1 231.4 L 76.5 231.4 C 76.5 231.4 76.55 223.84 76.5 223.8 C 76.5 222.3 75.7 221.3 74.1 221.3 C 72.1 221.3 70.5 222.7 70.5 225.5 C 70.46 225.46 70.5 231.4 70.5 231.4 L 68.9 231.4 L 68.9 220.1 L 70.5 220.1 C 70.5 220.1 70.46 222.2 70.5 222.2 C 71.1 220.9 72.4 219.9 74.4 219.9 C 76.6 219.9 78.1 221.2 78.1 223.7 Z M 86.5 231.4 C 86.5 231.4 84.82 231.38 84.8 231.4 C 83.3 231.4 82 230.9 82 228.4 C 81.99 228.42 82 221.5 82 221.5 L 79.8 221.5 L 79.8 220.1 L 82 220.1 L 82 216.9 L 83.5 216.5 L 83.5 220.1 L 86.3 220.1 L 86.3 221.5 L 83.5 221.5 C 83.5 221.5 83.52 228.4 83.5 228.4 C 83.5 229.4 83.8 230 85.1 230 C 85.08 230 86.5 230 86.5 230 L 86.5 231.4 Z M 102.1 228.2 C 102.1 230.5 100 231.6 97.7 231.6 C 95.3 231.6 93.1 230.4 92.8 227.9 C 92.8 227.9 94.5 227.9 94.5 227.9 C 94.7 229.6 96.2 230.2 97.7 230.2 C 99.2 230.2 100.5 229.7 100.5 228.4 C 100.5 227.1 99.2 226.8 97.8 226.6 C 95.7 226.2 93.1 225.8 93.1 223.2 C 93.1 221 95.1 219.9 97.4 219.9 C 99.8 219.9 101.6 221 101.8 223.3 C 101.8 223.3 100.2 223.3 100.2 223.3 C 100.1 221.9 98.8 221.3 97.3 221.3 C 95.8 221.3 94.7 222 94.7 223.1 C 94.7 224.6 96.1 224.8 97.8 225.1 C 99.8 225.4 102.1 225.7 102.1 228.2 Z M 103.9 225.8 C 103.9 222.1 106.1 219.9 109.2 219.9 C 112.3 219.9 114.5 222.1 114.5 225.8 C 114.5 229.4 112.3 231.6 109.2 231.6 C 106.1 231.6 103.9 229.4 103.9 225.8 Z M 113 225.7 C 113 222.9 111.3 221.3 109.2 221.3 C 107 221.3 105.4 223 105.4 225.8 C 105.4 228.6 107.1 230.2 109.2 230.2 C 111.4 230.2 113 228.5 113 225.7 Z M 122.8 221.4 C 122.8 221.4 122.44 221.43 122.4 221.4 C 120 221.4 118.7 222.8 118.7 225.4 C 118.7 225.4 118.7 231.4 118.7 231.4 L 117.2 231.4 L 117.2 220.1 L 118.7 220.1 C 118.7 220.1 118.68 222.18 118.7 222.2 C 119.2 220.7 120.6 220 122.3 220 C 122.31 219.98 122.8 220 122.8 220 L 122.8 221.4 Z M 130.4 231.4 C 130.4 231.4 128.7 231.38 128.7 231.4 C 127.2 231.4 125.9 230.9 125.9 228.4 C 125.86 228.42 125.9 221.5 125.9 221.5 L 123.6 221.5 L 123.6 220.1 L 125.9 220.1 L 125.9 216.9 L 127.4 216.5 L 127.4 220.1 L 130.1 220.1 L 130.1 221.5 L 127.4 221.5 C 127.4 221.5 127.39 228.4 127.4 228.4 C 127.4 229.4 127.7 230 128.9 230 C 128.95 230 130.4 230 130.4 230 L 130.4 231.4 Z M 134.2 215.4 L 132.5 215.4 L 132.5 217.3 L 134.2 217.3 L 134.2 215.4 Z M 134.1 231.4 L 132.6 231.4 L 132.6 220.1 L 134.1 220.1 L 134.1 231.4 Z M 145.8 228.2 C 145.8 230.5 143.8 231.6 141.5 231.6 C 139.1 231.6 136.8 230.4 136.6 227.9 C 136.6 227.9 138.3 227.9 138.3 227.9 C 138.5 229.6 140 230.2 141.5 230.2 C 143 230.2 144.2 229.7 144.2 228.4 C 144.2 227.1 142.9 226.8 141.6 226.6 C 139.4 226.2 136.9 225.8 136.9 223.2 C 136.9 221 138.8 219.9 141.1 219.9 C 143.5 219.9 145.4 221 145.5 223.3 C 145.5 223.3 143.9 223.3 143.9 223.3 C 143.8 221.9 142.5 221.3 141.1 221.3 C 139.5 221.3 138.5 222 138.5 223.1 C 138.5 224.6 139.8 224.8 141.5 225.1 C 143.6 225.4 145.8 225.7 145.8 228.2 Z M 153.9 226.1 C 154 228.9 155.7 230.2 157.7 230.2 C 159.2 230.2 160.6 229.5 161 227.9 C 161 227.9 162.4 227.9 162.4 227.9 C 161.9 230.5 159.7 231.6 157.6 231.6 C 154.9 231.6 152.4 229.8 152.4 225.8 C 152.4 221.7 155 219.9 157.7 219.9 C 160.3 219.9 162.5 221.6 162.5 225.4 C 162.51 225.35 162.5 226.1 162.5 226.1 C 162.5 226.1 153.92 226.11 153.9 226.1 Z M 154 224.8 C 154 224.8 161 224.8 161 224.8 C 161 222.5 159.5 221.3 157.6 221.3 C 155.8 221.3 154.2 222.4 154 224.8 Z M 170.3 231.4 C 170.3 231.4 168.62 231.38 168.6 231.4 C 167.1 231.4 165.8 230.9 165.8 228.4 C 165.79 228.42 165.8 221.5 165.8 221.5 L 163.6 221.5 L 163.6 220.1 L 165.8 220.1 L 165.8 216.9 L 167.3 216.5 L 167.3 220.1 L 170 220.1 L 170 221.5 L 167.3 221.5 C 167.3 221.5 167.32 228.4 167.3 228.4 C 167.3 229.4 167.6 230 168.9 230 C 168.87 230 170.3 230 170.3 230 L 170.3 231.4 Z M 182 231.6 C 178.9 231.6 176.8 229.3 176.8 225.8 C 176.8 222.2 178.9 219.9 182.1 219.9 C 184.6 219.9 186.6 221.3 186.8 223.8 C 186.8 223.8 185.3 223.8 185.3 223.8 C 185.1 222.2 183.7 221.3 182.1 221.3 C 179.9 221.3 178.3 223 178.3 225.7 C 178.3 228.5 179.9 230.2 182.1 230.2 C 183.8 230.2 185.1 229.2 185.3 227.4 C 185.3 227.4 186.8 227.4 186.8 227.4 C 186.6 230.1 184.5 231.6 182 231.6 Z M 190.2 226.1 C 190.2 228.9 191.9 230.2 193.9 230.2 C 195.4 230.2 196.9 229.5 197.2 227.9 C 197.2 227.9 198.7 227.9 198.7 227.9 C 198.2 230.5 196 231.6 193.8 231.6 C 191.2 231.6 188.7 229.8 188.7 225.8 C 188.7 221.7 191.2 219.9 193.9 219.9 C 196.6 219.9 198.8 221.6 198.8 225.4 C 198.76 225.35 198.8 226.1 198.8 226.1 C 198.8 226.1 190.17 226.11 190.2 226.1 Z M 190.2 224.8 C 190.2 224.8 197.2 224.8 197.2 224.8 C 197.2 222.5 195.7 221.3 193.8 221.3 C 192.1 221.3 190.4 222.4 190.2 224.8 Z M 202.9 231.4 L 201.4 231.4 L 201.4 215.4 L 202.9 215.4 L 202.9 231.4 Z M 213.2 229.3 C 212.3 231 210.6 231.6 209.2 231.6 C 207.3 231.6 205.5 230.5 205.5 228.3 C 205.5 226.2 207 225.2 209 225 C 209 225 211.6 224.6 211.6 224.6 C 212.5 224.5 213.2 224.2 213.2 223.2 C 213.2 221.9 212.1 221.2 210.5 221.2 C 208.8 221.2 207.7 222 207.5 223.3 C 207.5 223.3 206 223.3 206 223.3 C 206.3 221 208.1 219.9 210.6 219.9 C 213.1 219.9 214.7 221.1 214.7 223.6 C 214.7 223.59 214.7 231.4 214.7 231.4 L 213.2 231.4 C 213.2 231.4 213.21 229.32 213.2 229.3 Z M 211.3 225.9 C 211.3 225.9 209.6 226.1 209.6 226.1 C 208.2 226.3 207.1 226.8 207.1 228.2 C 207.1 229.6 208.2 230.2 209.4 230.2 C 211.2 230.2 213.2 228.9 213.2 226.5 C 213.2 226.5 213.2 225.4 213.2 225.4 C 212.7 225.7 212.1 225.8 211.3 225.9 Z M 232.4 231.4 L 231 231.4 C 231 231.4 230.98 229.2 231 229.2 C 230.4 230.5 229.1 231.6 227 231.6 C 224 231.6 221.9 229.3 221.9 225.7 C 221.9 222.2 224 219.9 227 219.9 C 228.9 219.9 230.3 220.8 230.9 222 C 230.92 222.02 230.9 215.4 230.9 215.4 L 232.4 215.4 L 232.4 231.4 Z M 230.9 225.7 C 230.9 222.9 229.3 221.3 227.2 221.3 C 225 221.3 223.5 223 223.5 225.7 C 223.5 228.5 225 230.2 227.2 230.2 C 229.4 230.2 230.9 228.5 230.9 225.7 Z M 236.6 226.1 C 236.6 228.9 238.4 230.2 240.3 230.2 C 241.8 230.2 243.3 229.5 243.6 227.9 C 243.6 227.9 245.1 227.9 245.1 227.9 C 244.6 230.5 242.4 231.6 240.3 231.6 C 237.6 231.6 235.1 229.8 235.1 225.8 C 235.1 221.7 237.6 219.9 240.3 219.9 C 243 219.9 245.2 221.6 245.2 225.4 C 245.18 225.35 245.2 226.1 245.2 226.1 C 245.2 226.1 236.59 226.11 236.6 226.1 Z M 236.6 224.8 C 236.6 224.8 243.6 224.8 243.6 224.8 C 243.6 222.5 242.2 221.3 240.3 221.3 C 238.5 221.3 236.8 222.4 236.6 224.8 Z M 252.3 231.4 L 250.6 231.4 L 246.4 220.1 L 248.1 220.1 L 251.5 229.8 L 254.9 220.1 L 256.5 220.1 L 252.3 231.4 Z M 264.1 221.4 C 264.1 221.4 263.74 221.43 263.7 221.4 C 261.3 221.4 260 222.8 260 225.4 C 260 225.4 260 231.4 260 231.4 L 258.5 231.4 L 258.5 220.1 L 260 220.1 C 260 220.1 259.98 222.18 260 222.2 C 260.5 220.7 261.9 220 263.6 220 C 263.61 219.98 264.1 220 264.1 220 L 264.1 221.4 Z M 273 229.3 C 272.1 231 270.4 231.6 269 231.6 C 267.1 231.6 265.4 230.5 265.4 228.3 C 265.4 226.2 266.8 225.2 268.8 225 C 268.8 225 271.4 224.6 271.4 224.6 C 272.3 224.5 273 224.2 273 223.2 C 273 221.9 271.9 221.2 270.3 221.2 C 268.6 221.2 267.6 222 267.3 223.3 C 267.3 223.3 265.8 223.3 265.8 223.3 C 266.1 221 267.9 219.9 270.4 219.9 C 273 219.9 274.5 221.1 274.5 223.6 C 274.51 223.59 274.5 231.4 274.5 231.4 L 273 231.4 C 273 231.4 273.02 229.32 273 229.3 Z M 271.2 225.9 C 271.2 225.9 269.4 226.1 269.4 226.1 C 268 226.3 266.9 226.8 266.9 228.2 C 266.9 229.6 268 230.2 269.3 230.2 C 271 230.2 273 228.9 273 226.5 C 273 226.5 273 225.4 273 225.4 C 272.6 225.7 271.9 225.8 271.2 225.9 Z M 279.3 215.4 L 277.6 215.4 L 277.6 217.3 L 279.3 217.3 L 279.3 215.4 Z M 279.2 231.4 L 277.7 231.4 L 277.7 220.1 L 279.2 220.1 L 279.2 231.4 Z M 287.7 231.4 C 287.7 231.4 286.04 231.38 286 231.4 C 284.5 231.4 283.2 230.9 283.2 228.4 C 283.21 228.42 283.2 221.5 283.2 221.5 L 281 221.5 L 281 220.1 L 283.2 220.1 L 283.2 216.9 L 284.7 216.5 L 284.7 220.1 L 287.5 220.1 L 287.5 221.5 L 284.7 221.5 C 284.7 221.5 284.74 228.4 284.7 228.4 C 284.7 229.4 285 230 286.3 230 C 286.29 230 287.7 230 287.7 230 L 287.7 231.4 Z M 303.3 228.2 C 303.3 230.5 301.2 231.6 298.9 231.6 C 296.5 231.6 294.3 230.4 294.1 227.9 C 294.1 227.9 295.7 227.9 295.7 227.9 C 296 229.6 297.4 230.2 299 230.2 C 300.4 230.2 301.7 229.7 301.7 228.4 C 301.7 227.1 300.4 226.8 299.1 226.6 C 296.9 226.2 294.3 225.8 294.3 223.2 C 294.3 221 296.3 219.9 298.6 219.9 C 301 219.9 302.9 221 303 223.3 C 303 223.3 301.4 223.3 301.4 223.3 C 301.3 221.9 300 221.3 298.5 221.3 C 297 221.3 295.9 222 295.9 223.1 C 295.9 224.6 297.3 224.8 299 225.1 C 301 225.4 303.3 225.7 303.3 228.2 Z M 306.6 226.1 C 306.6 228.9 308.3 230.2 310.3 230.2 C 311.8 230.2 313.3 229.5 313.6 227.9 C 313.6 227.9 315.1 227.9 315.1 227.9 C 314.6 230.5 312.4 231.6 310.3 231.6 C 307.6 231.6 305.1 229.8 305.1 225.8 C 305.1 221.7 307.6 219.9 310.3 219.9 C 313 219.9 315.2 221.6 315.2 225.4 C 315.17 225.35 315.2 226.1 315.2 226.1 C 315.2 226.1 306.58 226.11 306.6 226.1 Z M 306.6 224.8 C 306.6 224.8 313.6 224.8 313.6 224.8 C 313.6 222.5 312.1 221.3 310.3 221.3 C 308.5 221.3 306.8 222.4 306.6 224.8 Z M 319.3 231.4 L 317.8 231.4 L 317.8 215.4 L 319.3 215.4 L 319.3 231.4 Z M 322 225.8 C 322 222.1 324.2 219.9 327.3 219.9 C 330.4 219.9 332.6 222.1 332.6 225.8 C 332.6 229.4 330.4 231.6 327.3 231.6 C 324.2 231.6 322 229.4 322 225.8 Z M 331.1 225.7 C 331.1 222.9 329.4 221.3 327.3 221.3 C 325.1 221.3 323.5 223 323.5 225.8 C 323.5 228.6 325.2 230.2 327.3 230.2 C 329.5 230.2 331.1 228.5 331.1 225.7 Z M 344.4 223.7 C 344.43 223.65 344.4 231.4 344.4 231.4 L 342.9 231.4 C 342.9 231.4 342.89 223.84 342.9 223.8 C 342.9 222.3 342 221.3 340.4 221.3 C 338.5 221.3 336.8 222.7 336.8 225.5 C 336.8 225.46 336.8 231.4 336.8 231.4 L 335.3 231.4 L 335.3 220.1 L 336.8 220.1 C 336.8 220.1 336.8 222.2 336.8 222.2 C 337.5 220.9 338.7 219.9 340.7 219.9 C 343 219.9 344.4 221.2 344.4 223.7 Z " stroke="none" fill="#000"/>  </g>  <g id="Polygon11914">    <path d="M 3.2 206.2 L 1.7 206.2 L 1.7 190.2 L 3.2 190.2 L 3.2 206.2 Z M 7.3 200.9 C 7.4 203.7 9.1 205 11.1 205 C 12.6 205 14.1 204.3 14.4 202.7 C 14.4 202.7 15.9 202.7 15.9 202.7 C 15.4 205.3 13.2 206.4 11 206.4 C 8.3 206.4 5.8 204.6 5.8 200.6 C 5.8 196.5 8.4 194.7 11.1 194.7 C 13.8 194.7 15.9 196.4 15.9 200.2 C 15.94 200.15 15.9 200.9 15.9 200.9 C 15.9 200.9 7.35 200.91 7.3 200.9 Z M 7.4 199.6 C 7.4 199.6 14.4 199.6 14.4 199.6 C 14.4 197.3 12.9 196.1 11 196.1 C 9.3 196.1 7.6 197.2 7.4 199.6 Z M 26.9 203 C 26.9 205.3 24.9 206.4 22.6 206.4 C 20.2 206.4 18 205.2 17.7 202.7 C 17.7 202.7 19.4 202.7 19.4 202.7 C 19.6 204.4 21.1 205 22.6 205 C 24.1 205 25.3 204.5 25.3 203.2 C 25.3 201.9 24 201.6 22.7 201.4 C 20.6 201 18 200.6 18 198 C 18 195.8 19.9 194.7 22.2 194.7 C 24.6 194.7 26.5 195.8 26.6 198.1 C 26.6 198.1 25.1 198.1 25.1 198.1 C 24.9 196.7 23.6 196.1 22.2 196.1 C 20.6 196.1 19.6 196.8 19.6 197.9 C 19.6 199.4 21 199.6 22.7 199.9 C 24.7 200.2 26.9 200.5 26.9 203 Z M 36.4 190.2 L 34.6 190.2 L 34.6 192.1 L 36.4 192.1 L 36.4 190.2 Z M 36.2 206.2 L 34.7 206.2 L 34.7 194.9 L 36.2 194.9 L 36.2 206.2 Z M 48.8 198.5 C 48.76 198.45 48.8 206.2 48.8 206.2 L 47.2 206.2 C 47.2 206.2 47.23 198.64 47.2 198.6 C 47.2 197.1 46.3 196.1 44.8 196.1 C 42.8 196.1 41.1 197.5 41.1 200.3 C 41.14 200.26 41.1 206.2 41.1 206.2 L 39.6 206.2 L 39.6 194.9 L 41.1 194.9 C 41.1 194.9 41.14 197 41.1 197 C 41.8 195.7 43.1 194.7 45 194.7 C 47.3 194.7 48.8 196 48.8 198.5 Z M 56.5 206.2 L 54.8 206.2 L 50.7 194.9 L 52.3 194.9 L 55.7 204.6 L 59.1 194.9 L 60.7 194.9 L 56.5 206.2 Z M 63.3 200.9 C 63.3 203.7 65 205 67 205 C 68.5 205 70 204.3 70.3 202.7 C 70.3 202.7 71.8 202.7 71.8 202.7 C 71.3 205.3 69.1 206.4 66.9 206.4 C 64.2 206.4 61.7 204.6 61.7 200.6 C 61.7 196.5 64.3 194.7 67 194.7 C 69.7 194.7 71.8 196.4 71.8 200.2 C 71.84 200.15 71.8 200.9 71.8 200.9 C 71.8 200.9 63.25 200.91 63.3 200.9 Z M 63.3 199.6 C 63.3 199.6 70.3 199.6 70.3 199.6 C 70.3 197.3 68.8 196.1 66.9 196.1 C 65.2 196.1 63.5 197.2 63.3 199.6 Z M 82.8 203 C 82.8 205.3 80.8 206.4 78.5 206.4 C 76.1 206.4 73.9 205.2 73.6 202.7 C 73.6 202.7 75.3 202.7 75.3 202.7 C 75.5 204.4 77 205 78.5 205 C 80 205 81.2 204.5 81.2 203.2 C 81.2 201.9 79.9 201.6 78.6 201.4 C 76.5 201 73.9 200.6 73.9 198 C 73.9 195.8 75.8 194.7 78.1 194.7 C 80.5 194.7 82.4 195.8 82.6 198.1 C 82.6 198.1 81 198.1 81 198.1 C 80.8 196.7 79.5 196.1 78.1 196.1 C 76.5 196.1 75.5 196.8 75.5 197.9 C 75.5 199.4 76.9 199.6 78.6 199.9 C 80.6 200.2 82.8 200.5 82.8 203 Z M 90.5 206.2 C 90.5 206.2 88.85 206.18 88.9 206.2 C 87.4 206.2 86 205.7 86 203.2 C 86.02 203.22 86 196.3 86 196.3 L 83.8 196.3 L 83.8 194.9 L 86 194.9 L 86 191.7 L 87.5 191.3 L 87.5 194.9 L 90.3 194.9 L 90.3 196.3 L 87.5 196.3 C 87.5 196.3 87.55 203.2 87.5 203.2 C 87.5 204.2 87.8 204.8 89.1 204.8 C 89.1 204.8 90.5 204.8 90.5 204.8 L 90.5 206.2 Z M 94.4 190.2 L 92.6 190.2 L 92.6 192.1 L 94.4 192.1 L 94.4 190.2 Z M 94.2 206.2 L 92.7 206.2 L 92.7 194.9 L 94.2 194.9 L 94.2 206.2 Z M 106 203 C 106 205.3 103.9 206.4 101.6 206.4 C 99.2 206.4 97 205.2 96.8 202.7 C 96.8 202.7 98.4 202.7 98.4 202.7 C 98.7 204.4 100.1 205 101.7 205 C 103.1 205 104.4 204.5 104.4 203.2 C 104.4 201.9 103.1 201.6 101.8 201.4 C 99.6 201 97 200.6 97 198 C 97 195.8 99 194.7 101.3 194.7 C 103.7 194.7 105.6 195.8 105.7 198.1 C 105.7 198.1 104.1 198.1 104.1 198.1 C 104 196.7 102.7 196.1 101.2 196.1 C 99.7 196.1 98.6 196.8 98.6 197.9 C 98.6 199.4 100 199.6 101.7 199.9 C 103.7 200.2 106 200.5 106 203 Z M 116.9 203 C 116.9 205.3 114.8 206.4 112.5 206.4 C 110.1 206.4 107.9 205.2 107.7 202.7 C 107.7 202.7 109.3 202.7 109.3 202.7 C 109.6 204.4 111 205 112.6 205 C 114 205 115.3 204.5 115.3 203.2 C 115.3 201.9 114 201.6 112.7 201.4 C 110.5 201 107.9 200.6 107.9 198 C 107.9 195.8 109.9 194.7 112.2 194.7 C 114.6 194.7 116.5 195.8 116.6 198.1 C 116.6 198.1 115 198.1 115 198.1 C 114.9 196.7 113.6 196.1 112.1 196.1 C 110.6 196.1 109.5 196.8 109.5 197.9 C 109.5 199.4 110.9 199.6 112.6 199.9 C 114.6 200.2 116.9 200.5 116.9 203 Z M 120.2 200.9 C 120.2 203.7 121.9 205 123.9 205 C 125.4 205 126.9 204.3 127.2 202.7 C 127.2 202.7 128.7 202.7 128.7 202.7 C 128.2 205.3 126 206.4 123.9 206.4 C 121.2 206.4 118.7 204.6 118.7 200.6 C 118.7 196.5 121.2 194.7 123.9 194.7 C 126.6 194.7 128.8 196.4 128.8 200.2 C 128.77 200.15 128.8 200.9 128.8 200.9 C 128.8 200.9 120.18 200.91 120.2 200.9 Z M 120.2 199.6 C 120.2 199.6 127.2 199.6 127.2 199.6 C 127.2 197.3 125.7 196.1 123.9 196.1 C 122.1 196.1 120.4 197.2 120.2 199.6 Z M 138.8 206.2 C 138.8 206.2 138.81 204.04 138.8 204 C 138 205.6 136.6 206.3 135 206.3 C 132.9 206.3 131.3 205 131.3 202.4 C 131.29 202.36 131.3 194.9 131.3 194.9 L 132.8 194.9 C 132.8 194.9 132.82 202.17 132.8 202.2 C 132.8 204 133.8 205 135.3 205 C 137.1 205 138.7 203.6 138.7 200.7 C 138.75 200.74 138.7 194.9 138.7 194.9 L 140.3 194.9 L 140.3 206.2 L 138.8 206.2 Z M 149.3 196.2 C 149.3 196.2 148.91 196.23 148.9 196.2 C 146.5 196.2 145.2 197.6 145.2 200.2 C 145.17 200.2 145.2 206.2 145.2 206.2 L 143.6 206.2 L 143.6 194.9 L 145.2 194.9 C 145.2 194.9 145.15 196.98 145.2 197 C 145.7 195.5 147 194.8 148.8 194.8 C 148.78 194.78 149.3 194.8 149.3 194.8 L 149.3 196.2 Z M 159.6 203 C 159.6 205.3 157.6 206.4 155.3 206.4 C 152.9 206.4 150.7 205.2 150.4 202.7 C 150.4 202.7 152.1 202.7 152.1 202.7 C 152.3 204.4 153.8 205 155.3 205 C 156.8 205 158 204.5 158 203.2 C 158 201.9 156.7 201.6 155.4 201.4 C 153.3 201 150.7 200.6 150.7 198 C 150.7 195.8 152.6 194.7 154.9 194.7 C 157.3 194.7 159.2 195.8 159.3 198.1 C 159.3 198.1 157.8 198.1 157.8 198.1 C 157.6 196.7 156.3 196.1 154.9 196.1 C 153.3 196.1 152.3 196.8 152.3 197.9 C 152.3 199.4 153.7 199.6 155.4 199.9 C 157.4 200.2 159.6 200.5 159.6 203 Z M 170.6 203.2 L 169.6 204.1 L 165.7 199.8 L 169.6 195.5 L 170.6 196.4 L 167.6 199.8 L 170.6 203.2 Z M 175.1 203.2 L 174.1 204.1 L 170.2 199.8 L 174.1 195.5 L 175.1 196.4 L 172.2 199.8 L 175.1 203.2 Z M 193.4 200.5 C 193.4 204 191.3 206.4 188.3 206.4 C 186.3 206.4 185 205.3 184.4 204.1 C 184.38 204.1 184.4 206.2 184.4 206.2 L 182.9 206.2 L 182.9 190.2 L 184.4 190.2 C 184.4 190.2 184.44 197.17 184.4 197.2 C 185 195.8 186.4 194.7 188.5 194.7 C 191.3 194.7 193.4 196.9 193.4 200.5 Z M 191.9 200.6 C 191.9 197.8 190.4 196.2 188.2 196.2 C 186 196.2 184.4 197.8 184.4 200.6 C 184.4 203.4 186 205.1 188.1 205.1 C 190.4 205.1 191.9 203.3 191.9 200.6 Z M 195.3 200.6 C 195.3 196.9 197.5 194.7 200.7 194.7 C 203.8 194.7 206 196.9 206 200.6 C 206 204.2 203.8 206.4 200.7 206.4 C 197.6 206.4 195.3 204.2 195.3 200.6 Z M 204.4 200.5 C 204.4 197.7 202.7 196.1 200.6 196.1 C 198.4 196.1 196.9 197.8 196.9 200.6 C 196.9 203.4 198.6 205 200.7 205 C 202.9 205 204.4 203.3 204.4 200.5 Z M 221.1 206.2 C 221.1 206.2 219.45 206.18 219.4 206.2 C 218 206.2 216.6 205.7 216.6 203.2 C 216.61 203.22 216.6 196.3 216.6 196.3 L 210.8 196.3 C 210.8 196.3 210.82 203.2 210.8 203.2 C 210.8 204.2 211.1 204.8 212.4 204.8 C 212.37 204.8 213.8 204.8 213.8 204.8 L 213.8 206.2 C 213.8 206.2 212.12 206.18 212.1 206.2 C 210.6 206.2 209.3 205.7 209.3 203.2 C 209.28 203.22 209.3 196.3 209.3 196.3 L 207.1 196.3 L 207.1 194.9 L 209.3 194.9 L 209.3 191.7 L 210.8 191.3 L 210.8 194.9 L 216.6 194.9 L 216.6 191.7 L 218.1 191.3 L 218.1 194.9 L 220.9 194.9 L 220.9 196.3 L 218.1 196.3 C 218.1 196.3 218.15 203.2 218.1 203.2 C 218.1 204.2 218.4 204.8 219.7 204.8 C 219.7 204.8 221.1 204.8 221.1 204.8 L 221.1 206.2 Z M 222.6 200.6 C 222.6 196.9 224.8 194.7 227.9 194.7 C 231 194.7 233.3 196.9 233.3 200.6 C 233.3 204.2 231.1 206.4 228 206.4 C 224.8 206.4 222.6 204.2 222.6 200.6 Z M 231.7 200.5 C 231.7 197.7 230 196.1 227.9 196.1 C 225.7 196.1 224.2 197.8 224.2 200.6 C 224.2 203.4 225.9 205 228 205 C 230.2 205 231.7 203.3 231.7 200.5 Z M 235.9 194.9 L 237.4 194.9 C 237.4 194.9 237.42 196.77 237.4 196.8 C 238 195.4 239.3 194.7 240.7 194.7 C 242.4 194.7 243.7 195.6 244 197 C 244.5 195.8 245.8 194.7 247.7 194.7 C 249.8 194.7 251.4 195.8 251.4 198.1 C 251.39 198.1 251.4 206.2 251.4 206.2 L 249.9 206.2 C 249.9 206.2 249.86 198.64 249.9 198.6 C 249.9 196.9 248.8 196.1 247.5 196.1 C 245.8 196.1 244.4 197.4 244.4 199.7 C 244.4 199.73 244.4 206.2 244.4 206.2 L 242.9 206.2 C 242.9 206.2 242.88 198.64 242.9 198.6 C 242.9 196.9 241.9 196.1 240.5 196.1 C 238.9 196.1 237.4 197.3 237.4 199.7 C 237.44 199.73 237.4 206.2 237.4 206.2 L 235.9 206.2 L 235.9 194.9 Z M 254 200.1 L 254 198.7 L 260.5 198.7 L 260.5 200.1 L 254 200.1 Z M 270.6 206.2 C 270.6 206.2 270.62 204.04 270.6 204 C 269.8 205.6 268.5 206.3 266.9 206.3 C 264.7 206.3 263.1 205 263.1 202.4 C 263.11 202.36 263.1 194.9 263.1 194.9 L 264.6 194.9 C 264.6 194.9 264.64 202.17 264.6 202.2 C 264.6 204 265.6 205 267.1 205 C 268.9 205 270.6 203.6 270.6 200.7 C 270.56 200.74 270.6 194.9 270.6 194.9 L 272.1 194.9 L 272.1 206.2 L 270.6 206.2 Z M 286 200.5 C 286 204.6 283.4 206.3 280.8 206.3 C 278.9 206.3 277.6 205.4 277 204.2 C 276.99 204.23 277 210.5 277 210.5 L 275.5 210.5 L 275.5 194.9 L 276.9 194.9 C 276.9 194.9 276.95 197.28 276.9 197.3 C 277.4 195.9 278.9 194.7 281 194.7 C 283.4 194.7 286 196.4 286 200.5 Z M 284.4 200.5 C 284.4 197.4 282.6 196.2 280.7 196.2 C 278.9 196.2 277 197.4 277 200.6 C 277 203.7 278.8 204.9 280.7 204.9 C 282.6 204.9 284.4 203.7 284.4 200.5 Z M 292.6 196.4 L 293.6 195.5 L 297.5 199.8 L 293.6 204.1 L 292.6 203.2 L 295.6 199.8 L 292.6 196.4 Z M 297.1 196.4 L 298.2 195.5 L 302 199.8 L 298.2 204.1 L 297.1 203.2 L 300.1 199.8 L 297.1 196.4 Z M 317.2 210.5 C 317.2 210.5 317.18 204.02 317.2 204 C 316.6 205.3 315.2 206.3 313.3 206.3 C 310.8 206.3 308.2 204.6 308.2 200.4 C 308.2 196.4 310.8 194.7 313.3 194.7 C 315.2 194.7 316.6 195.7 317.2 196.9 C 317.22 196.88 317.2 194.9 317.2 194.9 L 318.7 194.9 L 318.7 210.5 L 317.2 210.5 Z M 317.2 200.5 C 317.2 197.3 315.3 196.1 313.4 196.1 C 311.6 196.1 309.8 197.3 309.8 200.5 C 309.8 203.6 311.6 204.9 313.4 204.9 C 315.3 204.9 317.2 203.6 317.2 200.5 Z M 329.4 206.2 C 329.4 206.2 329.38 204.04 329.4 204 C 328.6 205.6 327.2 206.3 325.6 206.3 C 323.5 206.3 321.9 205 321.9 202.4 C 321.86 202.36 321.9 194.9 321.9 194.9 L 323.4 194.9 C 323.4 194.9 323.4 202.17 323.4 202.2 C 323.4 204 324.4 205 325.9 205 C 327.7 205 329.3 203.6 329.3 200.7 C 329.32 200.74 329.3 194.9 329.3 194.9 L 330.9 194.9 L 330.9 206.2 L 329.4 206.2 Z M 335.8 190.2 L 334.1 190.2 L 334.1 192.1 L 335.8 192.1 L 335.8 190.2 Z M 335.7 206.2 L 334.2 206.2 L 334.2 194.9 L 335.7 194.9 L 335.7 206.2 Z " stroke="none" fill="#000"/>  </g>  <g id="Polygon11913">    <path d="M 1.7 169.7 L 3.2 169.7 C 3.2 169.7 3.19 171.57 3.2 171.6 C 3.8 170.2 5 169.5 6.5 169.5 C 8.1 169.5 9.4 170.4 9.8 171.8 C 10.3 170.6 11.6 169.5 13.5 169.5 C 15.5 169.5 17.2 170.6 17.2 172.9 C 17.16 172.9 17.2 181 17.2 181 L 15.6 181 C 15.6 181 15.62 173.44 15.6 173.4 C 15.6 171.7 14.6 170.9 13.2 170.9 C 11.6 170.9 10.2 172.2 10.2 174.5 C 10.16 174.53 10.2 181 10.2 181 L 8.7 181 C 8.7 181 8.65 173.44 8.7 173.4 C 8.7 171.7 7.6 170.9 6.3 170.9 C 4.6 170.9 3.2 172.1 3.2 174.5 C 3.21 174.53 3.2 181 3.2 181 L 1.7 181 L 1.7 169.7 Z M 27.3 178.9 C 26.5 180.6 24.8 181.2 23.3 181.2 C 21.4 181.2 19.7 180.1 19.7 177.9 C 19.7 175.8 21.2 174.8 23.1 174.6 C 23.1 174.6 25.8 174.2 25.8 174.2 C 26.6 174.1 27.3 173.8 27.3 172.8 C 27.3 171.5 26.2 170.8 24.6 170.8 C 22.9 170.8 21.9 171.6 21.7 172.9 C 21.7 172.9 20.1 172.9 20.1 172.9 C 20.4 170.6 22.2 169.5 24.7 169.5 C 27.3 169.5 28.8 170.7 28.8 173.2 C 28.83 173.19 28.8 181 28.8 181 L 27.3 181 C 27.3 181 27.34 178.92 27.3 178.9 Z M 25.5 175.5 C 25.5 175.5 23.8 175.7 23.8 175.7 C 22.3 175.9 21.3 176.4 21.3 177.8 C 21.3 179.2 22.3 179.8 23.6 179.8 C 25.3 179.8 27.3 178.5 27.3 176.1 C 27.3 176.1 27.3 175 27.3 175 C 26.9 175.3 26.2 175.4 25.5 175.5 Z M 36.5 181.2 C 33.4 181.2 31.2 178.9 31.2 175.4 C 31.2 171.8 33.3 169.5 36.6 169.5 C 39.1 169.5 41.1 170.9 41.3 173.4 C 41.3 173.4 39.8 173.4 39.8 173.4 C 39.6 171.8 38.2 170.9 36.6 170.9 C 34.4 170.9 32.8 172.6 32.8 175.3 C 32.8 178.1 34.4 179.8 36.6 179.8 C 38.3 179.8 39.6 178.8 39.8 177 C 39.8 177 41.3 177 41.3 177 C 41.1 179.7 39 181.2 36.5 181.2 Z M 49.5 171 C 49.5 171 49.16 171.03 49.2 171 C 46.8 171 45.4 172.4 45.4 175 C 45.42 175 45.4 181 45.4 181 L 43.9 181 L 43.9 169.7 L 45.4 169.7 C 45.4 169.7 45.4 171.78 45.4 171.8 C 45.9 170.3 47.3 169.6 49 169.6 C 49.03 169.58 49.5 169.6 49.5 169.6 L 49.5 171 Z M 50.6 175.4 C 50.6 171.7 52.8 169.5 55.9 169.5 C 59 169.5 61.3 171.7 61.3 175.4 C 61.3 179 59 181.2 55.9 181.2 C 52.8 181.2 50.6 179 50.6 175.4 Z M 59.7 175.3 C 59.7 172.5 58 170.9 55.9 170.9 C 53.7 170.9 52.1 172.6 52.1 175.4 C 52.1 178.2 53.8 179.8 55.9 179.8 C 58.1 179.8 59.7 178.1 59.7 175.3 Z M 69 167.4 L 67.8 167.4 L 70.3 163.6 L 71.6 164.6 L 69 167.4 Z M 64.7 175.7 C 64.7 178.5 66.4 179.8 68.4 179.8 C 69.9 179.8 71.4 179.1 71.7 177.5 C 71.7 177.5 73.2 177.5 73.2 177.5 C 72.7 180.1 70.5 181.2 68.3 181.2 C 65.6 181.2 63.1 179.4 63.1 175.4 C 63.1 171.3 65.7 169.5 68.4 169.5 C 71.1 169.5 73.2 171.2 73.2 175 C 73.25 174.95 73.2 175.7 73.2 175.7 C 73.2 175.7 64.66 175.71 64.7 175.7 Z M 64.7 174.4 C 64.7 174.4 71.7 174.4 71.7 174.4 C 71.7 172.1 70.2 170.9 68.3 170.9 C 66.6 170.9 64.9 172 64.7 174.4 Z M 80.4 181.2 C 77.3 181.2 75.1 178.9 75.1 175.4 C 75.1 171.8 77.2 169.5 80.5 169.5 C 83 169.5 85 170.9 85.2 173.4 C 85.2 173.4 83.7 173.4 83.7 173.4 C 83.5 171.8 82.1 170.9 80.5 170.9 C 78.3 170.9 76.7 172.6 76.7 175.3 C 76.7 178.1 78.2 179.8 80.5 179.8 C 82.2 179.8 83.5 178.8 83.6 177 C 83.6 177 85.2 177 85.2 177 C 85 179.7 82.9 181.2 80.4 181.2 Z M 87 175.4 C 87 171.7 89.3 169.5 92.4 169.5 C 95.5 169.5 97.7 171.7 97.7 175.4 C 97.7 179 95.5 181.2 92.4 181.2 C 89.3 181.2 87 179 87 175.4 Z M 96.2 175.3 C 96.2 172.5 94.5 170.9 92.4 170.9 C 90.2 170.9 88.6 172.6 88.6 175.4 C 88.6 178.2 90.3 179.8 92.4 179.8 C 94.6 179.8 96.2 178.1 96.2 175.3 Z M 109.5 173.3 C 109.51 173.25 109.5 181 109.5 181 L 108 181 C 108 181 107.98 173.44 108 173.4 C 108 171.9 107.1 170.9 105.5 170.9 C 103.6 170.9 101.9 172.3 101.9 175.1 C 101.89 175.06 101.9 181 101.9 181 L 100.4 181 L 100.4 169.7 L 101.9 169.7 C 101.9 169.7 101.89 171.8 101.9 171.8 C 102.6 170.5 103.8 169.5 105.8 169.5 C 108 169.5 109.5 170.8 109.5 173.3 Z M 112 175.4 C 112 171.7 114.3 169.5 117.4 169.5 C 120.5 169.5 122.7 171.7 122.7 175.4 C 122.7 179 120.5 181.2 117.4 181.2 C 114.3 181.2 112 179 112 175.4 Z M 121.1 175.3 C 121.1 172.5 119.4 170.9 117.3 170.9 C 115.1 170.9 113.6 172.6 113.6 175.4 C 113.6 178.2 115.3 179.8 117.4 179.8 C 119.6 179.8 121.1 178.1 121.1 175.3 Z M 125.3 169.7 L 126.9 169.7 C 126.9 169.7 126.86 171.57 126.9 171.6 C 127.5 170.2 128.7 169.5 130.1 169.5 C 131.8 169.5 133.1 170.4 133.5 171.8 C 134 170.6 135.2 169.5 137.2 169.5 C 139.2 169.5 140.8 170.6 140.8 172.9 C 140.82 172.9 140.8 181 140.8 181 L 139.3 181 C 139.3 181 139.29 173.44 139.3 173.4 C 139.3 171.7 138.2 170.9 136.9 170.9 C 135.2 170.9 133.8 172.2 133.8 174.5 C 133.83 174.53 133.8 181 133.8 181 L 132.3 181 C 132.3 181 132.32 173.44 132.3 173.4 C 132.3 171.7 131.3 170.9 129.9 170.9 C 128.3 170.9 126.9 172.1 126.9 174.5 C 126.88 174.53 126.9 181 126.9 181 L 125.3 181 L 125.3 169.7 Z M 145.7 165 L 144 165 L 144 166.9 L 145.7 166.9 L 145.7 165 Z M 145.6 181 L 144.1 181 L 144.1 169.7 L 145.6 169.7 L 145.6 181 Z M 157.2 185.3 C 157.2 185.3 157.23 178.82 157.2 178.8 C 156.6 180.1 155.2 181.1 153.3 181.1 C 150.8 181.1 148.2 179.4 148.2 175.2 C 148.2 171.2 150.8 169.5 153.3 169.5 C 155.2 169.5 156.7 170.5 157.3 171.7 C 157.27 171.68 157.3 169.7 157.3 169.7 L 158.8 169.7 L 158.8 185.3 L 157.2 185.3 Z M 157.2 175.3 C 157.2 172.1 155.3 170.9 153.5 170.9 C 151.6 170.9 149.8 172.1 149.8 175.3 C 149.8 178.4 151.6 179.7 153.5 179.7 C 155.3 179.7 157.2 178.4 157.2 175.3 Z M 169.4 181 C 169.4 181 169.43 178.84 169.4 178.8 C 168.6 180.4 167.3 181.1 165.7 181.1 C 163.5 181.1 161.9 179.8 161.9 177.2 C 161.91 177.16 161.9 169.7 161.9 169.7 L 163.4 169.7 C 163.4 169.7 163.44 176.97 163.4 177 C 163.4 178.8 164.4 179.8 165.9 179.8 C 167.7 179.8 169.4 178.4 169.4 175.5 C 169.36 175.54 169.4 169.7 169.4 169.7 L 170.9 169.7 L 170.9 181 L 169.4 181 Z M 175 175.7 C 175.1 178.5 176.8 179.8 178.8 179.8 C 180.3 179.8 181.8 179.1 182.1 177.5 C 182.1 177.5 183.5 177.5 183.5 177.5 C 183 180.1 180.9 181.2 178.7 181.2 C 176 181.2 173.5 179.4 173.5 175.4 C 173.5 171.3 176.1 169.5 178.8 169.5 C 181.4 169.5 183.6 171.2 183.6 175 C 183.62 174.95 183.6 175.7 183.6 175.7 C 183.6 175.7 175.03 175.71 175 175.7 Z M 175.1 174.4 C 175.1 174.4 182.1 174.4 182.1 174.4 C 182.1 172.1 180.6 170.9 178.7 170.9 C 176.9 170.9 175.3 172 175.1 174.4 Z M 200.9 181 L 199.4 181 C 199.4 181 199.41 178.8 199.4 178.8 C 198.9 180.1 197.5 181.2 195.4 181.2 C 192.4 181.2 190.3 178.9 190.3 175.3 C 190.3 171.8 192.4 169.5 195.4 169.5 C 197.3 169.5 198.7 170.4 199.4 171.6 C 199.35 171.62 199.4 165 199.4 165 L 200.9 165 L 200.9 181 Z M 199.3 175.3 C 199.3 172.5 197.8 170.9 195.6 170.9 C 193.4 170.9 191.9 172.6 191.9 175.3 C 191.9 178.1 193.4 179.8 195.6 179.8 C 197.8 179.8 199.3 178.1 199.3 175.3 Z M 205.9 165 L 204.1 165 L 204.1 166.9 L 205.9 166.9 L 205.9 165 Z M 205.8 181 L 204.2 181 L 204.2 169.7 L 205.8 169.7 L 205.8 181 Z M 224.5 181 L 224.5 171.1 L 218.7 171.1 L 218.7 181 L 217.2 181 L 217.2 171.1 L 211.2 171.1 L 211.2 181 L 209.6 181 L 209.6 171.1 L 207.8 171.1 L 207.8 169.7 L 209.6 169.7 C 209.6 169.7 209.64 167.92 209.6 167.9 C 209.6 165.4 211 165 212.5 165 C 212.48 164.98 214 165 214 165 L 214 166.3 C 214 166.3 212.73 166.34 212.7 166.3 C 211.5 166.3 211.2 166.9 211.2 168 C 211.17 167.96 211.2 169.7 211.2 169.7 L 217.2 169.7 C 217.2 169.7 217.16 167.92 217.2 167.9 C 217.2 165.4 218.5 165 220 165 C 219.99 164.98 221.5 165 221.5 165 L 221.5 166.3 C 221.5 166.3 220.25 166.34 220.2 166.3 C 219 166.3 218.7 166.9 218.7 168 C 218.69 167.96 218.7 169.7 218.7 169.7 L 226 169.7 L 226 181 L 224.5 181 Z M 233.8 181.2 C 230.7 181.2 228.6 178.9 228.6 175.4 C 228.6 171.8 230.7 169.5 233.9 169.5 C 236.4 169.5 238.4 170.9 238.6 173.4 C 238.6 173.4 237.1 173.4 237.1 173.4 C 236.9 171.8 235.5 170.9 233.9 170.9 C 231.7 170.9 230.1 172.6 230.1 175.3 C 230.1 178.1 231.7 179.8 233.9 179.8 C 235.6 179.8 236.9 178.8 237.1 177 C 237.1 177 238.6 177 238.6 177 C 238.4 179.7 236.3 181.2 233.8 181.2 Z M 242.8 165 L 241.1 165 L 241.1 166.9 L 242.8 166.9 L 242.8 165 Z M 242.7 181 L 241.2 181 L 241.2 169.7 L 242.7 169.7 L 242.7 181 Z M 247.6 181 L 246.1 181 L 246.1 165 L 247.6 165 L 247.6 181 Z M 251.8 175.7 C 251.8 178.5 253.5 179.8 255.5 179.8 C 257 179.8 258.5 179.1 258.8 177.5 C 258.8 177.5 260.3 177.5 260.3 177.5 C 259.8 180.1 257.6 181.2 255.4 181.2 C 252.8 181.2 250.3 179.4 250.3 175.4 C 250.3 171.3 252.8 169.5 255.5 169.5 C 258.2 169.5 260.4 171.2 260.4 175 C 260.35 174.95 260.4 175.7 260.4 175.7 C 260.4 175.7 251.77 175.71 251.8 175.7 Z M 251.8 174.4 C 251.8 174.4 258.8 174.4 258.8 174.4 C 258.8 172.1 257.3 170.9 255.4 170.9 C 253.7 170.9 252 172 251.8 174.4 Z M 264.1 180.9 C 264.07 180.86 263.1 180.9 263.1 180.9 L 263.1 178.8 L 265.3 178.8 C 265.3 178.8 265.29 180.92 265.3 180.9 C 265.3 183.4 263.8 184.3 262.2 184.4 C 262.2 184.4 262 183.5 262 183.5 C 263.7 183.2 264.1 182.2 264.1 180.9 Z M 277 181.2 C 273.9 181.2 271.8 178.9 271.8 175.4 C 271.8 171.8 273.9 169.5 277.2 169.5 C 279.7 169.5 281.6 170.9 281.8 173.4 C 281.8 173.4 280.3 173.4 280.3 173.4 C 280.2 171.8 278.8 170.9 277.1 170.9 C 274.9 170.9 273.4 172.6 273.4 175.3 C 273.4 178.1 274.9 179.8 277.1 179.8 C 278.8 179.8 280.2 178.8 280.3 177 C 280.3 177 281.8 177 281.8 177 C 281.6 179.7 279.5 181.2 277 181.2 Z M 285.2 175.7 C 285.3 178.5 287 179.8 289 179.8 C 290.5 179.8 291.9 179.1 292.3 177.5 C 292.3 177.5 293.7 177.5 293.7 177.5 C 293.2 180.1 291 181.2 288.9 181.2 C 286.2 181.2 283.7 179.4 283.7 175.4 C 283.7 171.3 286.2 169.5 289 169.5 C 291.6 169.5 293.8 171.2 293.8 175 C 293.81 174.95 293.8 175.7 293.8 175.7 C 293.8 175.7 285.22 175.71 285.2 175.7 Z M 285.3 174.4 C 285.3 174.4 292.3 174.4 292.3 174.4 C 292.3 172.1 290.8 170.9 288.9 170.9 C 287.1 170.9 285.5 172 285.3 174.4 Z M 309.6 177.8 C 309.6 180.1 307.6 181.2 305.3 181.2 C 302.9 181.2 300.7 180 300.4 177.5 C 300.4 177.5 302.1 177.5 302.1 177.5 C 302.3 179.2 303.8 179.8 305.3 179.8 C 306.8 179.8 308 179.3 308 178 C 308 176.7 306.7 176.4 305.4 176.2 C 303.3 175.8 300.7 175.4 300.7 172.8 C 300.7 170.6 302.6 169.5 304.9 169.5 C 307.3 169.5 309.2 170.6 309.3 172.9 C 309.3 172.9 307.8 172.9 307.8 172.9 C 307.6 171.5 306.3 170.9 304.9 170.9 C 303.3 170.9 302.3 171.6 302.3 172.7 C 302.3 174.2 303.7 174.4 305.4 174.7 C 307.4 175 309.6 175.3 309.6 177.8 Z M 311.4 175.4 C 311.4 171.7 313.7 169.5 316.8 169.5 C 319.9 169.5 322.1 171.7 322.1 175.4 C 322.1 179 319.9 181.2 316.8 181.2 C 313.7 181.2 311.4 179 311.4 175.4 Z M 320.5 175.3 C 320.5 172.5 318.8 170.9 316.7 170.9 C 314.5 170.9 313 172.6 313 175.4 C 313 178.2 314.7 179.8 316.8 179.8 C 319 179.8 320.5 178.1 320.5 175.3 Z M 333.9 173.3 C 333.9 173.25 333.9 181 333.9 181 L 332.4 181 C 332.4 181 332.36 173.44 332.4 173.4 C 332.4 171.9 331.5 170.9 329.9 170.9 C 328 170.9 326.3 172.3 326.3 175.1 C 326.27 175.06 326.3 181 326.3 181 L 324.7 181 L 324.7 169.7 L 326.3 169.7 C 326.3 169.7 326.27 171.8 326.3 171.8 C 326.9 170.5 328.2 169.5 330.2 169.5 C 332.4 169.5 333.9 170.8 333.9 173.3 Z M 342.3 181 C 342.3 181 340.64 180.98 340.6 181 C 339.1 181 337.8 180.5 337.8 178 C 337.8 178.02 337.8 171.1 337.8 171.1 L 335.6 171.1 L 335.6 169.7 L 337.8 169.7 L 337.8 166.5 L 339.3 166.1 L 339.3 169.7 L 342.1 169.7 L 342.1 171.1 L 339.3 171.1 C 339.3 171.1 339.34 178 339.3 178 C 339.3 179 339.6 179.6 340.9 179.6 C 340.89 179.6 342.3 179.6 342.3 179.6 L 342.3 181 Z " stroke="none" fill="#000"/>  </g>  <g id="Polygon11912">    <path d="M 13.4 144.8 C 13.1 142.5 11 141.1 8.6 141.1 C 5.3 141.1 2.8 143.7 2.8 147.8 C 2.8 151.4 4.8 154.7 8.7 154.7 C 11.3 154.7 13.4 153.2 13.6 150.5 C 13.6 150.5 15.2 150.5 15.2 150.5 C 15.1 154.1 12.2 156.2 8.6 156.2 C 3.7 156.2 1.2 152.2 1.2 147.8 C 1.2 142.8 4.3 139.7 8.7 139.7 C 12 139.7 14.8 141.4 15.1 144.8 C 15.1 144.8 13.4 144.8 13.4 144.8 Z M 17.2 150.2 C 17.2 146.5 19.5 144.3 22.6 144.3 C 25.7 144.3 27.9 146.5 27.9 150.2 C 27.9 153.8 25.7 156 22.6 156 C 19.5 156 17.2 153.8 17.2 150.2 Z M 26.4 150.1 C 26.4 147.3 24.7 145.7 22.6 145.7 C 20.3 145.7 18.8 147.4 18.8 150.2 C 18.8 153 20.5 154.6 22.6 154.6 C 24.8 154.6 26.4 152.9 26.4 150.1 Z M 30.6 144.5 L 32.1 144.5 C 32.1 144.5 32.07 146.37 32.1 146.4 C 32.7 145 33.9 144.3 35.3 144.3 C 37 144.3 38.3 145.2 38.7 146.6 C 39.2 145.4 40.4 144.3 42.4 144.3 C 44.4 144.3 46 145.4 46 147.7 C 46.03 147.7 46 155.8 46 155.8 L 44.5 155.8 C 44.5 155.8 44.5 148.24 44.5 148.2 C 44.5 146.5 43.4 145.7 42.1 145.7 C 40.4 145.7 39 147 39 149.3 C 39.04 149.33 39 155.8 39 155.8 L 37.5 155.8 C 37.5 155.8 37.53 148.24 37.5 148.2 C 37.5 146.5 36.5 145.7 35.2 145.7 C 33.5 145.7 32.1 146.9 32.1 149.3 C 32.09 149.33 32.1 155.8 32.1 155.8 L 30.6 155.8 L 30.6 144.5 Z M 59.8 150.1 C 59.8 154.2 57.2 155.9 54.6 155.9 C 52.7 155.9 51.4 155 50.8 153.8 C 50.82 153.83 50.8 160.1 50.8 160.1 L 49.3 160.1 L 49.3 144.5 L 50.8 144.5 C 50.8 144.5 50.78 146.88 50.8 146.9 C 51.3 145.5 52.8 144.3 54.8 144.3 C 57.2 144.3 59.8 146 59.8 150.1 Z M 58.2 150.1 C 58.2 147 56.4 145.8 54.6 145.8 C 52.7 145.8 50.8 147 50.8 150.2 C 50.8 153.3 52.7 154.5 54.5 154.5 C 56.4 154.5 58.2 153.3 58.2 150.1 Z M 67.6 155.8 C 67.6 155.8 65.92 155.78 65.9 155.8 C 64.4 155.8 63.1 155.3 63.1 152.8 C 63.08 152.82 63.1 145.9 63.1 145.9 L 60.9 145.9 L 60.9 144.5 L 63.1 144.5 L 63.1 141.3 L 64.6 140.9 L 64.6 144.5 L 67.3 144.5 L 67.3 145.9 L 64.6 145.9 C 64.6 145.9 64.62 152.8 64.6 152.8 C 64.6 153.8 64.9 154.4 66.2 154.4 C 66.17 154.4 67.6 154.4 67.6 154.4 L 67.6 155.8 Z M 70.6 150.5 C 70.6 153.3 72.3 154.6 74.3 154.6 C 75.8 154.6 77.3 153.9 77.6 152.3 C 77.6 152.3 79.1 152.3 79.1 152.3 C 78.6 154.9 76.4 156 74.2 156 C 71.5 156 69 154.2 69 150.2 C 69 146.1 71.6 144.3 74.3 144.3 C 77 144.3 79.1 146 79.1 149.8 C 79.15 149.75 79.1 150.5 79.1 150.5 C 79.1 150.5 70.56 150.51 70.6 150.5 Z M 70.6 149.2 C 70.6 149.2 77.6 149.2 77.6 149.2 C 77.6 146.9 76.1 145.7 74.2 145.7 C 72.5 145.7 70.8 146.8 70.6 149.2 Z M 92 155.8 C 92 155.8 90.3 155.78 90.3 155.8 C 88.8 155.8 87.5 155.3 87.5 152.8 C 87.46 152.82 87.5 145.9 87.5 145.9 L 85.2 145.9 L 85.2 144.5 L 87.5 144.5 L 87.5 141.3 L 89 140.9 L 89 144.5 L 91.7 144.5 L 91.7 145.9 L 89 145.9 C 89 145.9 89 152.8 89 152.8 C 89 153.8 89.3 154.4 90.6 154.4 C 90.55 154.4 92 154.4 92 154.4 L 92 155.8 Z M 94.9 150.5 C 95 153.3 96.7 154.6 98.7 154.6 C 100.2 154.6 101.7 153.9 102 152.3 C 102 152.3 103.4 152.3 103.4 152.3 C 102.9 154.9 100.8 156 98.6 156 C 95.9 156 93.4 154.2 93.4 150.2 C 93.4 146.1 96 144.3 98.7 144.3 C 101.3 144.3 103.5 146 103.5 149.8 C 103.53 149.75 103.5 150.5 103.5 150.5 C 103.5 150.5 94.94 150.51 94.9 150.5 Z M 95 149.2 C 95 149.2 102 149.2 102 149.2 C 102 146.9 100.5 145.7 98.6 145.7 C 96.9 145.7 95.2 146.8 95 149.2 Z M 115.3 148.1 C 115.31 148.05 115.3 155.8 115.3 155.8 L 113.8 155.8 C 113.8 155.8 113.78 148.24 113.8 148.2 C 113.8 146.7 112.9 145.7 111.3 145.7 C 109.4 145.7 107.7 147.1 107.7 149.9 C 107.69 149.86 107.7 155.8 107.7 155.8 L 106.2 155.8 L 106.2 144.5 L 107.7 144.5 C 107.7 144.5 107.69 146.6 107.7 146.6 C 108.4 145.3 109.6 144.3 111.6 144.3 C 113.8 144.3 115.3 145.6 115.3 148.1 Z M 126 155.8 C 126 155.8 125.98 153.64 126 153.6 C 125.2 155.2 123.8 155.9 122.2 155.9 C 120.1 155.9 118.5 154.6 118.5 152 C 118.46 151.96 118.5 144.5 118.5 144.5 L 120 144.5 C 120 144.5 119.99 151.77 120 151.8 C 120 153.6 121 154.6 122.5 154.6 C 124.3 154.6 125.9 153.2 125.9 150.3 C 125.91 150.34 125.9 144.5 125.9 144.5 L 127.4 144.5 L 127.4 155.8 L 126 155.8 Z M 145.9 155.8 L 144.4 155.8 C 144.4 155.8 144.39 153.6 144.4 153.6 C 143.8 154.9 142.5 156 140.4 156 C 137.4 156 135.3 153.7 135.3 150.1 C 135.3 146.6 137.4 144.3 140.4 144.3 C 142.3 144.3 143.7 145.2 144.3 146.4 C 144.33 146.42 144.3 139.8 144.3 139.8 L 145.9 139.8 L 145.9 155.8 Z M 144.3 150.1 C 144.3 147.3 142.8 145.7 140.6 145.7 C 138.4 145.7 136.9 147.4 136.9 150.1 C 136.9 152.9 138.4 154.6 140.6 154.6 C 142.8 154.6 144.3 152.9 144.3 150.1 Z M 150 150.5 C 150 153.3 151.8 154.6 153.8 154.6 C 155.3 154.6 156.7 153.9 157.1 152.3 C 157.1 152.3 158.5 152.3 158.5 152.3 C 158 154.9 155.8 156 153.7 156 C 151 156 148.5 154.2 148.5 150.2 C 148.5 146.1 151 144.3 153.7 144.3 C 156.4 144.3 158.6 146 158.6 149.8 C 158.59 149.75 158.6 150.5 158.6 150.5 C 158.6 150.5 150 150.51 150 150.5 Z M 150 149.2 C 150 149.2 157 149.2 157 149.2 C 157 146.9 155.6 145.7 153.7 145.7 C 151.9 145.7 150.3 146.8 150 149.2 Z M 168 155.8 L 166.5 155.8 L 166.5 139.8 L 168 139.8 L 168 155.8 Z M 172.5 142 C 172.45 141.98 171.4 142 171.4 142 L 171.4 139.9 L 173.7 139.9 C 173.7 139.9 173.67 142.05 173.7 142 C 173.7 144.5 172.2 145.4 170.6 145.6 C 170.6 145.6 170.4 144.6 170.4 144.6 C 172.1 144.3 172.5 143.3 172.5 142 Z M 175.4 150.5 C 175.4 153.3 177.2 154.6 179.1 154.6 C 180.6 154.6 182.1 153.9 182.4 152.3 C 182.4 152.3 183.9 152.3 183.9 152.3 C 183.4 154.9 181.2 156 179.1 156 C 176.4 156 173.9 154.2 173.9 150.2 C 173.9 146.1 176.4 144.3 179.1 144.3 C 181.8 144.3 184 146 184 149.8 C 183.98 149.75 184 150.5 184 150.5 C 184 150.5 175.39 150.51 175.4 150.5 Z M 175.4 149.2 C 175.4 149.2 182.4 149.2 182.4 149.2 C 182.4 146.9 181 145.7 179.1 145.7 C 177.3 145.7 175.6 146.8 175.4 149.2 Z M 195.8 148.1 C 195.76 148.05 195.8 155.8 195.8 155.8 L 194.2 155.8 C 194.2 155.8 194.23 148.24 194.2 148.2 C 194.2 146.7 193.3 145.7 191.7 145.7 C 189.8 145.7 188.1 147.1 188.1 149.9 C 188.14 149.86 188.1 155.8 188.1 155.8 L 186.6 155.8 L 186.6 144.5 L 188.1 144.5 C 188.1 144.5 188.14 146.6 188.1 146.6 C 188.8 145.3 190.1 144.3 192 144.3 C 194.3 144.3 195.8 145.6 195.8 148.1 Z M 203.5 155.8 L 201.8 155.8 L 197.7 144.5 L 199.3 144.5 L 202.7 154.2 L 206.1 144.5 L 207.7 144.5 L 203.5 155.8 Z M 211.3 139.8 L 209.6 139.8 L 209.6 141.7 L 211.3 141.7 L 211.3 139.8 Z M 211.2 155.8 L 209.7 155.8 L 209.7 144.5 L 211.2 144.5 L 211.2 155.8 Z M 220.2 145.8 C 220.2 145.8 219.85 145.83 219.8 145.8 C 217.5 145.8 216.1 147.2 216.1 149.8 C 216.11 149.8 216.1 155.8 216.1 155.8 L 214.6 155.8 L 214.6 144.5 L 216.1 144.5 C 216.1 144.5 216.09 146.58 216.1 146.6 C 216.6 145.1 218 144.4 219.7 144.4 C 219.72 144.38 220.2 144.4 220.2 144.4 L 220.2 145.8 Z M 221.3 150.2 C 221.3 146.5 223.5 144.3 226.6 144.3 C 229.7 144.3 231.9 146.5 231.9 150.2 C 231.9 153.8 229.7 156 226.6 156 C 223.5 156 221.3 153.8 221.3 150.2 Z M 230.4 150.1 C 230.4 147.3 228.7 145.7 226.6 145.7 C 224.4 145.7 222.8 147.4 222.8 150.2 C 222.8 153 224.5 154.6 226.6 154.6 C 228.8 154.6 230.4 152.9 230.4 150.1 Z M 243.7 148.1 C 243.72 148.05 243.7 155.8 243.7 155.8 L 242.2 155.8 C 242.2 155.8 242.19 148.24 242.2 148.2 C 242.2 146.7 241.3 145.7 239.7 145.7 C 237.8 145.7 236.1 147.1 236.1 149.9 C 236.1 149.86 236.1 155.8 236.1 155.8 L 234.6 155.8 L 234.6 144.5 L 236.1 144.5 C 236.1 144.5 236.1 146.6 236.1 146.6 C 236.8 145.3 238 144.3 240 144.3 C 242.3 144.3 243.7 145.6 243.7 148.1 Z M 256.1 148.1 C 256.13 148.05 256.1 155.8 256.1 155.8 L 254.6 155.8 C 254.6 155.8 254.6 148.24 254.6 148.2 C 254.6 146.7 253.7 145.7 252.1 145.7 C 250.2 145.7 248.5 147.1 248.5 149.9 C 248.51 149.86 248.5 155.8 248.5 155.8 L 247 155.8 L 247 144.5 L 248.5 144.5 C 248.5 144.5 248.51 146.6 248.5 146.6 C 249.2 145.3 250.4 144.3 252.4 144.3 C 254.7 144.3 256.1 145.6 256.1 148.1 Z M 260.2 150.5 C 260.2 153.3 261.9 154.6 263.9 154.6 C 265.4 154.6 266.9 153.9 267.2 152.3 C 267.2 152.3 268.7 152.3 268.7 152.3 C 268.2 154.9 266 156 263.8 156 C 261.2 156 258.7 154.2 258.7 150.2 C 258.7 146.1 261.2 144.3 263.9 144.3 C 266.6 144.3 268.8 146 268.8 149.8 C 268.76 149.75 268.8 150.5 268.8 150.5 C 268.8 150.5 260.17 150.51 260.2 150.5 Z M 260.2 149.2 C 260.2 149.2 267.2 149.2 267.2 149.2 C 267.2 146.9 265.7 145.7 263.8 145.7 C 262.1 145.7 260.4 146.8 260.2 149.2 Z M 271.4 144.5 L 272.9 144.5 C 272.9 144.5 272.89 146.37 272.9 146.4 C 273.5 145 274.7 144.3 276.2 144.3 C 277.8 144.3 279.2 145.2 279.5 146.6 C 280 145.4 281.3 144.3 283.2 144.3 C 285.2 144.3 286.9 145.4 286.9 147.7 C 286.86 147.7 286.9 155.8 286.9 155.8 L 285.3 155.8 C 285.3 155.8 285.32 148.24 285.3 148.2 C 285.3 146.5 284.3 145.7 282.9 145.7 C 281.3 145.7 279.9 147 279.9 149.3 C 279.86 149.33 279.9 155.8 279.9 155.8 L 278.4 155.8 C 278.4 155.8 278.35 148.24 278.4 148.2 C 278.4 146.5 277.3 145.7 276 145.7 C 274.3 145.7 272.9 146.9 272.9 149.3 C 272.91 149.33 272.9 155.8 272.9 155.8 L 271.4 155.8 L 271.4 144.5 Z M 290.9 150.5 C 290.9 153.3 292.7 154.6 294.6 154.6 C 296.1 154.6 297.6 153.9 297.9 152.3 C 297.9 152.3 299.4 152.3 299.4 152.3 C 298.9 154.9 296.7 156 294.6 156 C 291.9 156 289.4 154.2 289.4 150.2 C 289.4 146.1 291.9 144.3 294.6 144.3 C 297.3 144.3 299.5 146 299.5 149.8 C 299.48 149.75 299.5 150.5 299.5 150.5 C 299.5 150.5 290.89 150.51 290.9 150.5 Z M 290.9 149.2 C 290.9 149.2 297.9 149.2 297.9 149.2 C 297.9 146.9 296.5 145.7 294.6 145.7 C 292.8 145.7 291.1 146.8 290.9 149.2 Z M 311.3 148.1 C 311.26 148.05 311.3 155.8 311.3 155.8 L 309.7 155.8 C 309.7 155.8 309.73 148.24 309.7 148.2 C 309.7 146.7 308.8 145.7 307.2 145.7 C 305.3 145.7 303.6 147.1 303.6 149.9 C 303.64 149.86 303.6 155.8 303.6 155.8 L 302.1 155.8 L 302.1 144.5 L 303.6 144.5 C 303.6 144.5 303.64 146.6 303.6 146.6 C 304.3 145.3 305.6 144.3 307.5 144.3 C 309.8 144.3 311.3 145.6 311.3 148.1 Z M 319.7 155.8 C 319.7 155.8 318 155.78 318 155.8 C 316.5 155.8 315.2 155.3 315.2 152.8 C 315.16 152.82 315.2 145.9 315.2 145.9 L 312.9 145.9 L 312.9 144.5 L 315.2 144.5 L 315.2 141.3 L 316.7 140.9 L 316.7 144.5 L 319.4 144.5 L 319.4 145.9 L 316.7 145.9 C 316.7 145.9 316.7 152.8 316.7 152.8 C 316.7 153.8 317 154.4 318.3 154.4 C 318.25 154.4 319.7 154.4 319.7 154.4 L 319.7 155.8 Z " stroke="none" fill="#000"/>  </g>  <g id="Polygon11911">    <path d="M 11.5 130.6 L 10 130.6 C 10 130.6 10.02 128.4 10 128.4 C 9.5 129.7 8.1 130.8 6 130.8 C 3 130.8 0.9 128.5 0.9 124.9 C 0.9 121.4 3 119.1 6 119.1 C 7.9 119.1 9.3 120 10 121.2 C 9.95 121.22 10 114.6 10 114.6 L 11.5 114.6 L 11.5 130.6 Z M 9.9 124.9 C 9.9 122.1 8.4 120.5 6.2 120.5 C 4 120.5 2.5 122.2 2.5 124.9 C 2.5 127.7 4 129.4 6.2 129.4 C 8.4 129.4 9.9 127.7 9.9 124.9 Z M 15.6 125.3 C 15.7 128.1 17.4 129.4 19.4 129.4 C 20.9 129.4 22.3 128.7 22.7 127.1 C 22.7 127.1 24.1 127.1 24.1 127.1 C 23.6 129.7 21.4 130.8 19.3 130.8 C 16.6 130.8 14.1 129 14.1 125 C 14.1 120.9 16.7 119.1 19.4 119.1 C 22 119.1 24.2 120.8 24.2 124.6 C 24.21 124.55 24.2 125.3 24.2 125.3 C 24.2 125.3 15.62 125.31 15.6 125.3 Z M 15.7 124 C 15.7 124 22.7 124 22.7 124 C 22.7 121.7 21.2 120.5 19.3 120.5 C 17.5 120.5 15.9 121.6 15.7 124 Z M 33.6 130.6 L 32.1 130.6 L 32.1 114.6 L 33.6 114.6 L 33.6 130.6 Z M 38.1 116.8 C 38.07 116.78 37.1 116.8 37.1 116.8 L 37.1 114.7 L 39.3 114.7 C 39.3 114.7 39.29 116.85 39.3 116.8 C 39.3 119.3 37.8 120.2 36.2 120.4 C 36.2 120.4 36 119.4 36 119.4 C 37.7 119.1 38.1 118.1 38.1 116.8 Z M 48.6 128.5 C 47.8 130.2 46.1 130.8 44.6 130.8 C 42.7 130.8 41 129.7 41 127.5 C 41 125.4 42.5 124.4 44.4 124.2 C 44.4 124.2 47.1 123.8 47.1 123.8 C 47.9 123.7 48.6 123.4 48.6 122.4 C 48.6 121.1 47.5 120.4 45.9 120.4 C 44.2 120.4 43.2 121.2 42.9 122.5 C 42.9 122.5 41.4 122.5 41.4 122.5 C 41.7 120.2 43.5 119.1 46 119.1 C 48.6 119.1 50.1 120.3 50.1 122.8 C 50.13 122.79 50.1 130.6 50.1 130.6 L 48.6 130.6 C 48.6 130.6 48.64 128.52 48.6 128.5 Z M 46.8 125.1 C 46.8 125.1 45 125.3 45 125.3 C 43.6 125.5 42.5 126 42.5 127.4 C 42.5 128.8 43.6 129.4 44.9 129.4 C 46.6 129.4 48.6 128.1 48.6 125.7 C 48.6 125.7 48.6 124.6 48.6 124.6 C 48.2 124.9 47.5 125 46.8 125.1 Z M 63.8 124.9 C 63.8 129 61.2 130.7 58.6 130.7 C 56.7 130.7 55.4 129.8 54.8 128.6 C 54.81 128.63 54.8 134.9 54.8 134.9 L 53.3 134.9 L 53.3 119.3 L 54.8 119.3 C 54.8 119.3 54.77 121.68 54.8 121.7 C 55.3 120.3 56.7 119.1 58.8 119.1 C 61.2 119.1 63.8 120.8 63.8 124.9 Z M 62.2 124.9 C 62.2 121.8 60.4 120.6 58.6 120.6 C 56.7 120.6 54.8 121.8 54.8 125 C 54.8 128.1 56.7 129.3 58.5 129.3 C 60.4 129.3 62.2 128.1 62.2 124.9 Z M 76.9 124.9 C 76.9 129 74.4 130.7 71.8 130.7 C 69.8 130.7 68.6 129.8 68 128.6 C 67.96 128.63 68 134.9 68 134.9 L 66.4 134.9 L 66.4 119.3 L 67.9 119.3 C 67.9 119.3 67.91 121.68 67.9 121.7 C 68.4 120.3 69.9 119.1 71.9 119.1 C 74.4 119.1 76.9 120.8 76.9 124.9 Z M 75.4 124.9 C 75.4 121.8 73.6 120.6 71.7 120.6 C 69.8 120.6 68 121.8 68 125 C 68 128.1 69.8 129.3 71.7 129.3 C 73.5 129.3 75.4 128.1 75.4 124.9 Z M 85.2 120.6 C 85.2 120.6 84.84 120.63 84.8 120.6 C 82.4 120.6 81.1 122 81.1 124.6 C 81.1 124.6 81.1 130.6 81.1 130.6 L 79.6 130.6 L 79.6 119.3 L 81.1 119.3 C 81.1 119.3 81.08 121.38 81.1 121.4 C 81.6 119.9 83 119.2 84.7 119.2 C 84.71 119.18 85.2 119.2 85.2 119.2 L 85.2 120.6 Z M 86.2 125 C 86.2 121.3 88.5 119.1 91.6 119.1 C 94.7 119.1 96.9 121.3 96.9 125 C 96.9 128.6 94.7 130.8 91.6 130.8 C 88.5 130.8 86.2 128.6 86.2 125 Z M 95.4 124.9 C 95.4 122.1 93.7 120.5 91.6 120.5 C 89.4 120.5 87.8 122.2 87.8 125 C 87.8 127.8 89.5 129.4 91.6 129.4 C 93.8 129.4 95.4 127.7 95.4 124.9 Z M 104.1 130.8 C 100.9 130.8 98.8 128.5 98.8 125 C 98.8 121.4 100.9 119.1 104.2 119.1 C 106.7 119.1 108.7 120.5 108.8 123 C 108.8 123 107.4 123 107.4 123 C 107.2 121.4 105.8 120.5 104.2 120.5 C 102 120.5 100.4 122.2 100.4 124.9 C 100.4 127.7 101.9 129.4 104.1 129.4 C 105.8 129.4 107.2 128.4 107.3 126.6 C 107.3 126.6 108.8 126.6 108.8 126.6 C 108.7 129.3 106.6 130.8 104.1 130.8 Z M 120.6 122.9 C 120.62 122.85 120.6 130.6 120.6 130.6 L 119.1 130.6 C 119.1 130.6 119.09 123.04 119.1 123 C 119.1 121.5 118.2 120.5 116.6 120.5 C 114.7 120.5 113 121.9 113 124.7 C 113 124.66 113 130.6 113 130.6 L 111.5 130.6 L 111.5 114.6 L 113 114.6 C 113 114.6 113 121.28 113 121.3 C 113.7 120 114.9 119.1 116.9 119.1 C 119.2 119.1 120.6 120.4 120.6 122.9 Z M 124.7 125.3 C 124.7 128.1 126.4 129.4 128.4 129.4 C 129.9 129.4 131.4 128.7 131.7 127.1 C 131.7 127.1 133.2 127.1 133.2 127.1 C 132.7 129.7 130.5 130.8 128.3 130.8 C 125.6 130.8 123.1 129 123.1 125 C 123.1 120.9 125.7 119.1 128.4 119.1 C 131.1 119.1 133.2 120.8 133.2 124.6 C 133.24 124.55 133.2 125.3 133.2 125.3 C 133.2 125.3 124.65 125.31 124.7 125.3 Z M 124.7 124 C 124.7 124 131.7 124 131.7 124 C 131.7 121.7 130.2 120.5 128.3 120.5 C 126.6 120.5 124.9 121.6 124.7 124 Z M 144.3 127.6 L 143.3 128.5 L 139.4 124.2 L 143.3 119.9 L 144.3 120.8 L 141.3 124.2 L 144.3 127.6 Z M 148.8 127.6 L 147.8 128.5 L 144 124.2 L 147.8 119.9 L 148.8 120.8 L 145.9 124.2 L 148.8 127.6 Z M 167.1 124.9 C 167.1 128.4 165 130.8 162 130.8 C 160 130.8 158.7 129.7 158.1 128.5 C 158.09 128.5 158.1 130.6 158.1 130.6 L 156.6 130.6 L 156.6 114.6 L 158.1 114.6 C 158.1 114.6 158.15 121.57 158.1 121.6 C 158.7 120.2 160.1 119.1 162.2 119.1 C 165.1 119.1 167.1 121.3 167.1 124.9 Z M 165.6 125 C 165.6 122.2 164.1 120.6 161.9 120.6 C 159.7 120.6 158.1 122.2 158.1 125 C 158.1 127.8 159.7 129.5 161.8 129.5 C 164.1 129.5 165.6 127.7 165.6 125 Z M 169 125 C 169 121.3 171.3 119.1 174.4 119.1 C 177.5 119.1 179.7 121.3 179.7 125 C 179.7 128.6 177.5 130.8 174.4 130.8 C 171.3 130.8 169 128.6 169 125 Z M 178.1 124.9 C 178.1 122.1 176.4 120.5 174.3 120.5 C 172.1 120.5 170.6 122.2 170.6 125 C 170.6 127.8 172.3 129.4 174.4 129.4 C 176.6 129.4 178.1 127.7 178.1 124.9 Z M 194.8 130.6 C 194.8 130.6 193.16 130.58 193.2 130.6 C 191.7 130.6 190.3 130.1 190.3 127.6 C 190.32 127.62 190.3 120.7 190.3 120.7 L 184.5 120.7 C 184.5 120.7 184.53 127.6 184.5 127.6 C 184.5 128.6 184.8 129.2 186.1 129.2 C 186.08 129.2 187.5 129.2 187.5 129.2 L 187.5 130.6 C 187.5 130.6 185.83 130.58 185.8 130.6 C 184.3 130.6 183 130.1 183 127.6 C 182.99 127.62 183 120.7 183 120.7 L 180.8 120.7 L 180.8 119.3 L 183 119.3 L 183 116.1 L 184.5 115.7 L 184.5 119.3 L 190.3 119.3 L 190.3 116.1 L 191.9 115.7 L 191.9 119.3 L 194.6 119.3 L 194.6 120.7 L 191.9 120.7 C 191.9 120.7 191.85 127.6 191.9 127.6 C 191.9 128.6 192.1 129.2 193.4 129.2 C 193.41 129.2 194.8 129.2 194.8 129.2 L 194.8 130.6 Z M 196.3 125 C 196.3 121.3 198.5 119.1 201.6 119.1 C 204.7 119.1 207 121.3 207 125 C 207 128.6 204.8 130.8 201.7 130.8 C 198.6 130.8 196.3 128.6 196.3 125 Z M 205.4 124.9 C 205.4 122.1 203.7 120.5 201.6 120.5 C 199.4 120.5 197.9 122.2 197.9 125 C 197.9 127.8 199.6 129.4 201.7 129.4 C 203.9 129.4 205.4 127.7 205.4 124.9 Z M 209.6 119.3 L 211.1 119.3 C 211.1 119.3 211.13 121.17 211.1 121.2 C 211.7 119.8 213 119.1 214.4 119.1 C 216.1 119.1 217.4 120 217.7 121.4 C 218.3 120.2 219.5 119.1 221.4 119.1 C 223.5 119.1 225.1 120.2 225.1 122.5 C 225.1 122.5 225.1 130.6 225.1 130.6 L 223.6 130.6 C 223.6 130.6 223.56 123.04 223.6 123 C 223.6 121.3 222.5 120.5 221.2 120.5 C 219.5 120.5 218.1 121.8 218.1 124.1 C 218.1 124.13 218.1 130.6 218.1 130.6 L 216.6 130.6 C 216.6 130.6 216.59 123.04 216.6 123 C 216.6 121.3 215.6 120.5 214.2 120.5 C 212.6 120.5 211.2 121.7 211.2 124.1 C 211.15 124.13 211.2 130.6 211.2 130.6 L 209.6 130.6 L 209.6 119.3 Z M 227.7 124.5 L 227.7 123.1 L 234.2 123.1 L 234.2 124.5 L 227.7 124.5 Z M 244.3 130.6 C 244.3 130.6 244.33 128.44 244.3 128.4 C 243.6 130 242.2 130.7 240.6 130.7 C 238.5 130.7 236.8 129.4 236.8 126.8 C 236.81 126.76 236.8 119.3 236.8 119.3 L 238.3 119.3 C 238.3 119.3 238.35 126.57 238.3 126.6 C 238.3 128.4 239.4 129.4 240.8 129.4 C 242.7 129.4 244.3 128 244.3 125.1 C 244.27 125.14 244.3 119.3 244.3 119.3 L 245.8 119.3 L 245.8 130.6 L 244.3 130.6 Z M 259.7 124.9 C 259.7 129 257.1 130.7 254.5 130.7 C 252.6 130.7 251.3 129.8 250.7 128.6 C 250.7 128.63 250.7 134.9 250.7 134.9 L 249.2 134.9 L 249.2 119.3 L 250.7 119.3 C 250.7 119.3 250.65 121.68 250.7 121.7 C 251.2 120.3 252.6 119.1 254.7 119.1 C 257.1 119.1 259.7 120.8 259.7 124.9 Z M 258.1 124.9 C 258.1 121.8 256.3 120.6 254.5 120.6 C 252.6 120.6 250.7 121.8 250.7 125 C 250.7 128.1 252.5 129.3 254.4 129.3 C 256.3 129.3 258.1 128.1 258.1 124.9 Z M 266.3 120.8 L 267.3 119.9 L 271.2 124.2 L 267.3 128.5 L 266.3 127.6 L 269.3 124.2 L 266.3 120.8 Z M 270.8 120.8 L 271.9 119.9 L 275.7 124.2 L 271.9 128.5 L 270.8 127.6 L 273.8 124.2 L 270.8 120.8 Z M 277.3 128.4 L 279.4 128.4 L 279.4 130.6 L 277.3 130.6 L 277.3 128.4 Z " stroke="none" fill="#000"/>  </g>  <g id="Polygon11910">    <path d="M 9.9 109.7 C 9.9 109.7 9.93 103.22 9.9 103.2 C 9.3 104.5 7.9 105.5 6 105.5 C 3.5 105.5 0.9 103.8 0.9 99.6 C 0.9 95.6 3.5 93.9 6 93.9 C 7.9 93.9 9.4 94.9 10 96.1 C 9.97 96.08 10 94.1 10 94.1 L 11.5 94.1 L 11.5 109.7 L 9.9 109.7 Z M 9.9 99.7 C 9.9 96.5 8 95.3 6.2 95.3 C 4.3 95.3 2.5 96.5 2.5 99.7 C 2.5 102.8 4.3 104.1 6.2 104.1 C 8 104.1 9.9 102.8 9.9 99.7 Z M 22.1 105.4 C 22.1 105.4 22.13 103.24 22.1 103.2 C 21.4 104.8 20 105.5 18.4 105.5 C 16.3 105.5 14.6 104.2 14.6 101.6 C 14.62 101.56 14.6 94.1 14.6 94.1 L 16.1 94.1 C 16.1 94.1 16.15 101.37 16.1 101.4 C 16.1 103.2 17.2 104.2 18.6 104.2 C 20.5 104.2 22.1 102.8 22.1 99.9 C 22.07 99.94 22.1 94.1 22.1 94.1 L 23.6 94.1 L 23.6 105.4 L 22.1 105.4 Z M 27.7 100.1 C 27.8 102.9 29.5 104.2 31.5 104.2 C 33 104.2 34.5 103.5 34.8 101.9 C 34.8 101.9 36.2 101.9 36.2 101.9 C 35.7 104.5 33.6 105.6 31.4 105.6 C 28.7 105.6 26.2 103.8 26.2 99.8 C 26.2 95.7 28.8 93.9 31.5 93.9 C 34.1 93.9 36.3 95.6 36.3 99.4 C 36.33 99.35 36.3 100.1 36.3 100.1 C 36.3 100.1 27.74 100.11 27.7 100.1 Z M 27.8 98.8 C 27.8 98.8 34.8 98.8 34.8 98.8 C 34.8 96.5 33.3 95.3 31.4 95.3 C 29.7 95.3 28 96.4 27.8 98.8 Z M 53.4 97.7 C 53.36 97.65 53.4 105.4 53.4 105.4 L 51.8 105.4 C 51.8 105.4 51.83 97.84 51.8 97.8 C 51.8 96.3 50.9 95.3 49.3 95.3 C 47.4 95.3 45.7 96.7 45.7 99.5 C 45.74 99.46 45.7 105.4 45.7 105.4 L 44.2 105.4 L 44.2 94.1 L 45.7 94.1 C 45.7 94.1 45.74 96.2 45.7 96.2 C 46.4 94.9 47.7 93.9 49.6 93.9 C 51.9 93.9 53.4 95.2 53.4 97.7 Z M 55.9 99.8 C 55.9 96.1 58.1 93.9 61.2 93.9 C 64.3 93.9 66.6 96.1 66.6 99.8 C 66.6 103.4 64.3 105.6 61.2 105.6 C 58.1 105.6 55.9 103.4 55.9 99.8 Z M 65 99.7 C 65 96.9 63.3 95.3 61.2 95.3 C 59 95.3 57.5 97 57.5 99.8 C 57.5 102.6 59.2 104.2 61.3 104.2 C 63.4 104.2 65 102.5 65 99.7 Z M 76.6 105.4 C 76.6 105.4 76.61 103.24 76.6 103.2 C 75.8 104.8 74.4 105.5 72.8 105.5 C 70.7 105.5 69.1 104.2 69.1 101.6 C 69.09 101.56 69.1 94.1 69.1 94.1 L 70.6 94.1 C 70.6 94.1 70.62 101.37 70.6 101.4 C 70.6 103.2 71.6 104.2 73.1 104.2 C 74.9 104.2 76.5 102.8 76.5 99.9 C 76.54 99.94 76.5 94.1 76.5 94.1 L 78.1 94.1 L 78.1 105.4 L 76.6 105.4 Z M 89.8 102.2 C 89.8 104.5 87.7 105.6 85.5 105.6 C 83.1 105.6 80.8 104.4 80.6 101.9 C 80.6 101.9 82.2 101.9 82.2 101.9 C 82.5 103.6 84 104.2 85.5 104.2 C 86.9 104.2 88.2 103.7 88.2 102.4 C 88.2 101.1 86.9 100.8 85.6 100.6 C 83.4 100.2 80.9 99.8 80.9 97.2 C 80.9 95 82.8 93.9 85.1 93.9 C 87.5 93.9 89.4 95 89.5 97.3 C 89.5 97.3 87.9 97.3 87.9 97.3 C 87.8 95.9 86.5 95.3 85 95.3 C 83.5 95.3 82.5 96 82.5 97.1 C 82.5 98.6 83.8 98.8 85.5 99.1 C 87.6 99.4 89.8 99.7 89.8 102.2 Z M 105.5 102.2 C 105.5 104.5 103.5 105.6 101.2 105.6 C 98.8 105.6 96.6 104.4 96.3 101.9 C 96.3 101.9 98 101.9 98 101.9 C 98.2 103.6 99.7 104.2 101.2 104.2 C 102.7 104.2 103.9 103.7 103.9 102.4 C 103.9 101.1 102.6 100.8 101.3 100.6 C 99.2 100.2 96.6 99.8 96.6 97.2 C 96.6 95 98.5 93.9 100.8 93.9 C 103.2 93.9 105.1 95 105.3 97.3 C 105.3 97.3 103.7 97.3 103.7 97.3 C 103.6 95.9 102.2 95.3 100.8 95.3 C 99.2 95.3 98.2 96 98.2 97.1 C 98.2 98.6 99.6 98.8 101.3 99.1 C 103.3 99.4 105.5 99.7 105.5 102.2 Z M 107.3 99.8 C 107.3 96.1 109.6 93.9 112.7 93.9 C 115.8 93.9 118 96.1 118 99.8 C 118 103.4 115.8 105.6 112.7 105.6 C 109.6 105.6 107.3 103.4 107.3 99.8 Z M 116.4 99.7 C 116.4 96.9 114.7 95.3 112.6 95.3 C 110.4 95.3 108.9 97 108.9 99.8 C 108.9 102.6 110.6 104.2 112.7 104.2 C 114.9 104.2 116.4 102.5 116.4 99.7 Z M 120.6 94.1 L 122.2 94.1 C 122.2 94.1 122.16 95.97 122.2 96 C 122.8 94.6 124 93.9 125.4 93.9 C 127.1 93.9 128.4 94.8 128.8 96.2 C 129.3 95 130.5 93.9 132.5 93.9 C 134.5 93.9 136.1 95 136.1 97.3 C 136.12 97.3 136.1 105.4 136.1 105.4 L 134.6 105.4 C 134.6 105.4 134.59 97.84 134.6 97.8 C 134.6 96.1 133.5 95.3 132.2 95.3 C 130.5 95.3 129.1 96.6 129.1 98.9 C 129.13 98.93 129.1 105.4 129.1 105.4 L 127.6 105.4 C 127.6 105.4 127.62 97.84 127.6 97.8 C 127.6 96.1 126.6 95.3 125.2 95.3 C 123.6 95.3 122.2 96.5 122.2 98.9 C 122.18 98.93 122.2 105.4 122.2 105.4 L 120.6 105.4 L 120.6 94.1 Z M 139.4 94.1 L 140.9 94.1 C 140.9 94.1 140.89 95.97 140.9 96 C 141.5 94.6 142.7 93.9 144.2 93.9 C 145.8 93.9 147.1 94.8 147.5 96.2 C 148 95 149.2 93.9 151.2 93.9 C 153.2 93.9 154.9 95 154.9 97.3 C 154.85 97.3 154.9 105.4 154.9 105.4 L 153.3 105.4 C 153.3 105.4 153.32 97.84 153.3 97.8 C 153.3 96.1 152.2 95.3 150.9 95.3 C 149.2 95.3 147.9 96.6 147.9 98.9 C 147.86 98.93 147.9 105.4 147.9 105.4 L 146.3 105.4 C 146.3 105.4 146.35 97.84 146.3 97.8 C 146.3 96.1 145.3 95.3 144 95.3 C 142.3 95.3 140.9 96.5 140.9 98.9 C 140.91 98.93 140.9 105.4 140.9 105.4 L 139.4 105.4 L 139.4 94.1 Z M 158.9 100.1 C 158.9 102.9 160.6 104.2 162.6 104.2 C 164.1 104.2 165.6 103.5 165.9 101.9 C 165.9 101.9 167.4 101.9 167.4 101.9 C 166.9 104.5 164.7 105.6 162.6 105.6 C 159.9 105.6 157.4 103.8 157.4 99.8 C 157.4 95.7 159.9 93.9 162.6 93.9 C 165.3 93.9 167.5 95.6 167.5 99.4 C 167.47 99.35 167.5 100.1 167.5 100.1 C 167.5 100.1 158.89 100.11 158.9 100.1 Z M 158.9 98.8 C 158.9 98.8 165.9 98.8 165.9 98.8 C 165.9 96.5 164.5 95.3 162.6 95.3 C 160.8 95.3 159.1 96.4 158.9 98.8 Z M 178.5 102.2 C 178.5 104.5 176.4 105.6 174.1 105.6 C 171.7 105.6 169.5 104.4 169.3 101.9 C 169.3 101.9 170.9 101.9 170.9 101.9 C 171.1 103.6 172.6 104.2 174.2 104.2 C 175.6 104.2 176.9 103.7 176.9 102.4 C 176.9 101.1 175.6 100.8 174.3 100.6 C 172.1 100.2 169.5 99.8 169.5 97.2 C 169.5 95 171.5 93.9 173.8 93.9 C 176.2 93.9 178.1 95 178.2 97.3 C 178.2 97.3 176.6 97.3 176.6 97.3 C 176.5 95.9 175.2 95.3 173.7 95.3 C 172.2 95.3 171.1 96 171.1 97.1 C 171.1 98.6 172.5 98.8 174.2 99.1 C 176.2 99.4 178.5 99.7 178.5 102.2 Z M 195.6 105.4 L 194.2 105.4 C 194.2 105.4 194.17 103.2 194.2 103.2 C 193.6 104.5 192.3 105.6 190.2 105.6 C 187.2 105.6 185.1 103.3 185.1 99.7 C 185.1 96.2 187.2 93.9 190.2 93.9 C 192.1 93.9 193.5 94.8 194.1 96 C 194.1 96.02 194.1 89.4 194.1 89.4 L 195.6 89.4 L 195.6 105.4 Z M 194.1 99.7 C 194.1 96.9 192.5 95.3 190.4 95.3 C 188.2 95.3 186.7 97 186.7 99.7 C 186.7 102.5 188.2 104.2 190.4 104.2 C 192.5 104.2 194.1 102.5 194.1 99.7 Z M 199.8 100.1 C 199.8 102.9 201.5 104.2 203.5 104.2 C 205 104.2 206.5 103.5 206.8 101.9 C 206.8 101.9 208.3 101.9 208.3 101.9 C 207.8 104.5 205.6 105.6 203.4 105.6 C 200.8 105.6 198.3 103.8 198.3 99.8 C 198.3 95.7 200.8 93.9 203.5 93.9 C 206.2 93.9 208.4 95.6 208.4 99.4 C 208.36 99.35 208.4 100.1 208.4 100.1 C 208.4 100.1 199.77 100.11 199.8 100.1 Z M 199.8 98.8 C 199.8 98.8 206.8 98.8 206.8 98.8 C 206.8 96.5 205.3 95.3 203.4 95.3 C 201.7 95.3 200 96.4 199.8 98.8 Z M 219.4 102.2 C 219.4 104.5 217.3 105.6 215 105.6 C 212.6 105.6 210.4 104.4 210.1 101.9 C 210.1 101.9 211.8 101.9 211.8 101.9 C 212 103.6 213.5 104.2 215 104.2 C 216.5 104.2 217.8 103.7 217.8 102.4 C 217.8 101.1 216.5 100.8 215.1 100.6 C 213 100.2 210.4 99.8 210.4 97.2 C 210.4 95 212.4 93.9 214.7 93.9 C 217.1 93.9 218.9 95 219.1 97.3 C 219.1 97.3 217.5 97.3 217.5 97.3 C 217.4 95.9 216.1 95.3 214.6 95.3 C 213.1 95.3 212 96 212 97.1 C 212 98.6 213.4 98.8 215.1 99.1 C 217.1 99.4 219.4 99.7 219.4 102.2 Z M 234.1 103.3 C 233.2 105 231.5 105.6 230.1 105.6 C 228.1 105.6 226.4 104.5 226.4 102.3 C 226.4 100.2 227.9 99.2 229.8 99 C 229.8 99 232.5 98.6 232.5 98.6 C 233.3 98.5 234.1 98.2 234.1 97.2 C 234.1 95.9 232.9 95.2 231.3 95.2 C 229.6 95.2 228.6 96 228.4 97.3 C 228.4 97.3 226.8 97.3 226.8 97.3 C 227.2 95 229 93.9 231.4 93.9 C 234 93.9 235.6 95.1 235.6 97.6 C 235.56 97.59 235.6 105.4 235.6 105.4 L 234.1 105.4 C 234.1 105.4 234.07 103.32 234.1 103.3 Z M 232.2 99.9 C 232.2 99.9 230.5 100.1 230.5 100.1 C 229 100.3 228 100.8 228 102.2 C 228 103.6 229.1 104.2 230.3 104.2 C 232.1 104.2 234 102.9 234 100.5 C 234 100.5 234 99.4 234 99.4 C 233.6 99.7 233 99.8 232.2 99.9 Z M 248.5 105.4 L 247 105.4 C 247 105.4 247.04 103.2 247 103.2 C 246.5 104.5 245.1 105.6 243 105.6 C 240.1 105.6 238 103.3 238 99.7 C 238 96.2 240.1 93.9 243.1 93.9 C 245 93.9 246.4 94.8 247 96 C 246.98 96.02 247 89.4 247 89.4 L 248.5 89.4 L 248.5 105.4 Z M 247 99.7 C 247 96.9 245.4 95.3 243.2 95.3 C 241 95.3 239.5 97 239.5 99.7 C 239.5 102.5 241.1 104.2 243.2 104.2 C 245.4 104.2 247 102.5 247 99.7 Z M 252.7 100.1 C 252.7 102.9 254.4 104.2 256.4 104.2 C 257.9 104.2 259.4 103.5 259.7 101.9 C 259.7 101.9 261.2 101.9 261.2 101.9 C 260.7 104.5 258.5 105.6 256.3 105.6 C 253.6 105.6 251.1 103.8 251.1 99.8 C 251.1 95.7 253.7 93.9 256.4 93.9 C 259.1 93.9 261.2 95.6 261.2 99.4 C 261.24 99.35 261.2 100.1 261.2 100.1 C 261.2 100.1 252.65 100.11 252.7 100.1 Z M 252.7 98.8 C 252.7 98.8 259.7 98.8 259.7 98.8 C 259.7 96.5 258.2 95.3 256.3 95.3 C 254.6 95.3 252.9 96.4 252.7 98.8 Z M 274.4 99.7 C 274.4 103.8 271.8 105.5 269.2 105.5 C 267.3 105.5 266 104.6 265.4 103.4 C 265.4 103.43 265.4 109.7 265.4 109.7 L 263.9 109.7 L 263.9 94.1 L 265.4 94.1 C 265.4 94.1 265.36 96.48 265.4 96.5 C 265.9 95.1 267.3 93.9 269.4 93.9 C 271.8 93.9 274.4 95.6 274.4 99.7 Z M 272.8 99.7 C 272.8 96.6 271 95.4 269.2 95.4 C 267.3 95.4 265.4 96.6 265.4 99.8 C 265.4 102.9 267.2 104.1 269.1 104.1 C 271 104.1 272.8 102.9 272.8 99.7 Z M 282.2 105.4 C 282.2 105.4 280.5 105.38 280.5 105.4 C 279 105.4 277.7 104.9 277.7 102.4 C 277.66 102.42 277.7 95.5 277.7 95.5 L 275.4 95.5 L 275.4 94.1 L 277.7 94.1 L 277.7 90.9 L 279.2 90.5 L 279.2 94.1 L 281.9 94.1 L 281.9 95.5 L 279.2 95.5 C 279.2 95.5 279.19 102.4 279.2 102.4 C 279.2 103.4 279.5 104 280.7 104 C 280.75 104 282.2 104 282.2 104 L 282.2 105.4 Z M 285.1 100.1 C 285.2 102.9 286.9 104.2 288.9 104.2 C 290.4 104.2 291.9 103.5 292.2 101.9 C 292.2 101.9 293.6 101.9 293.6 101.9 C 293.1 104.5 291 105.6 288.8 105.6 C 286.1 105.6 283.6 103.8 283.6 99.8 C 283.6 95.7 286.2 93.9 288.9 93.9 C 291.5 93.9 293.7 95.6 293.7 99.4 C 293.73 99.35 293.7 100.1 293.7 100.1 C 293.7 100.1 285.14 100.11 285.1 100.1 Z M 285.2 98.8 C 285.2 98.8 292.2 98.8 292.2 98.8 C 292.2 96.5 290.7 95.3 288.8 95.3 C 287 95.3 285.4 96.4 285.2 98.8 Z M 304.7 102.2 C 304.7 104.5 302.7 105.6 300.4 105.6 C 298 105.6 295.7 104.4 295.5 101.9 C 295.5 101.9 297.1 101.9 297.1 101.9 C 297.4 103.6 298.9 104.2 300.4 104.2 C 301.9 104.2 303.1 103.7 303.1 102.4 C 303.1 101.1 301.8 100.8 300.5 100.6 C 298.3 100.2 295.8 99.8 295.8 97.2 C 295.8 95 297.7 93.9 300 93.9 C 302.4 93.9 304.3 95 304.4 97.3 C 304.4 97.3 302.8 97.3 302.8 97.3 C 302.7 95.9 301.4 95.3 300 95.3 C 298.4 95.3 297.4 96 297.4 97.1 C 297.4 98.6 298.7 98.8 300.4 99.1 C 302.5 99.4 304.7 99.7 304.7 102.2 Z " stroke="none" fill="#000"/>  </g>  <g id="Polygon11909">    <path d="M 11.4 80.2 L 1.9 80.2 L 1.9 64.4 L 3.5 64.4 L 3.5 78.7 L 11.4 78.7 L 11.4 80.2 Z M 14.3 74.9 C 14.4 77.7 16.1 79 18.1 79 C 19.6 79 21 78.3 21.4 76.7 C 21.4 76.7 22.8 76.7 22.8 76.7 C 22.3 79.3 20.1 80.4 18 80.4 C 15.3 80.4 12.8 78.6 12.8 74.6 C 12.8 70.5 15.4 68.7 18.1 68.7 C 20.7 68.7 22.9 70.4 22.9 74.2 C 22.91 74.15 22.9 74.9 22.9 74.9 C 22.9 74.9 14.32 74.91 14.3 74.9 Z M 14.4 73.6 C 14.4 73.6 21.4 73.6 21.4 73.6 C 21.4 71.3 19.9 70.1 18 70.1 C 16.2 70.1 14.6 71.2 14.4 73.6 Z M 35.7 80.2 C 35.7 80.2 34.06 80.18 34.1 80.2 C 32.6 80.2 31.2 79.7 31.2 77.2 C 31.23 77.22 31.2 70.3 31.2 70.3 L 29 70.3 L 29 68.9 L 31.2 68.9 L 31.2 65.7 L 32.8 65.3 L 32.8 68.9 L 35.5 68.9 L 35.5 70.3 L 32.8 70.3 C 32.8 70.3 32.76 77.2 32.8 77.2 C 32.8 78.2 33.1 78.8 34.3 78.8 C 34.31 78.8 35.7 78.8 35.7 78.8 L 35.7 80.2 Z M 43.6 70.2 C 43.6 70.2 43.2 70.23 43.2 70.2 C 40.8 70.2 39.5 71.6 39.5 74.2 C 39.46 74.2 39.5 80.2 39.5 80.2 L 37.9 80.2 L 37.9 68.9 L 39.4 68.9 C 39.4 68.9 39.44 70.98 39.4 71 C 40 69.5 41.3 68.8 43.1 68.8 C 43.07 68.78 43.6 68.8 43.6 68.8 L 43.6 70.2 Z M 52.5 78.1 C 51.6 79.8 49.9 80.4 48.5 80.4 C 46.5 80.4 44.8 79.3 44.8 77.1 C 44.8 75 46.3 74 48.2 73.8 C 48.2 73.8 50.9 73.4 50.9 73.4 C 51.7 73.3 52.5 73 52.5 72 C 52.5 70.7 51.3 70 49.7 70 C 48 70 47 70.8 46.8 72.1 C 46.8 72.1 45.3 72.1 45.3 72.1 C 45.6 69.8 47.4 68.7 49.9 68.7 C 52.4 68.7 54 69.9 54 72.4 C 53.97 72.39 54 80.2 54 80.2 L 52.5 80.2 C 52.5 80.2 52.48 78.12 52.5 78.1 Z M 50.6 74.7 C 50.6 74.7 48.9 74.9 48.9 74.9 C 47.5 75.1 46.4 75.6 46.4 77 C 46.4 78.4 47.5 79 48.7 79 C 50.5 79 52.4 77.7 52.4 75.3 C 52.4 75.3 52.4 74.2 52.4 74.2 C 52 74.5 51.4 74.6 50.6 74.7 Z M 58.8 64.2 L 57 64.2 L 57 66.1 L 58.8 66.1 L 58.8 64.2 Z M 58.7 80.2 L 57.1 80.2 L 57.1 68.9 L 58.7 68.9 L 58.7 80.2 Z M 67.2 80.2 C 67.2 80.2 65.5 80.18 65.5 80.2 C 64 80.2 62.7 79.7 62.7 77.2 C 62.66 77.22 62.7 70.3 62.7 70.3 L 60.4 70.3 L 60.4 68.9 L 62.7 68.9 L 62.7 65.7 L 64.2 65.3 L 64.2 68.9 L 66.9 68.9 L 66.9 70.3 L 64.2 70.3 C 64.2 70.3 64.2 77.2 64.2 77.2 C 64.2 78.2 64.5 78.8 65.8 78.8 C 65.75 78.8 67.2 78.8 67.2 78.8 L 67.2 80.2 Z M 84.2 80.2 L 82.7 80.2 C 82.7 80.2 82.74 78 82.7 78 C 82.2 79.3 80.8 80.4 78.7 80.4 C 75.8 80.4 73.7 78.1 73.7 74.5 C 73.7 71 75.8 68.7 78.7 68.7 C 80.7 68.7 82.1 69.6 82.7 70.8 C 82.68 70.82 82.7 64.2 82.7 64.2 L 84.2 64.2 L 84.2 80.2 Z M 82.7 74.5 C 82.7 71.7 81.1 70.1 78.9 70.1 C 76.7 70.1 75.2 71.8 75.2 74.5 C 75.2 77.3 76.8 79 78.9 79 C 81.1 79 82.7 77.3 82.7 74.5 Z M 89.2 64.2 L 87.5 64.2 L 87.5 66.1 L 89.2 66.1 L 89.2 64.2 Z M 89.1 80.2 L 87.6 80.2 L 87.6 68.9 L 89.1 68.9 L 89.1 80.2 Z M 100.8 77 C 100.8 79.3 98.8 80.4 96.5 80.4 C 94.1 80.4 91.9 79.2 91.6 76.7 C 91.6 76.7 93.3 76.7 93.3 76.7 C 93.5 78.4 95 79 96.5 79 C 98 79 99.2 78.5 99.2 77.2 C 99.2 75.9 97.9 75.6 96.6 75.4 C 94.5 75 91.9 74.6 91.9 72 C 91.9 69.8 93.8 68.7 96.1 68.7 C 98.5 68.7 100.4 69.8 100.5 72.1 C 100.5 72.1 99 72.1 99 72.1 C 98.8 70.7 97.5 70.1 96.1 70.1 C 94.5 70.1 93.5 70.8 93.5 71.9 C 93.5 73.4 94.9 73.6 96.6 73.9 C 98.6 74.2 100.8 74.5 100.8 77 Z M 108.5 80.2 C 108.5 80.2 106.85 80.18 106.8 80.2 C 105.4 80.2 104 79.7 104 77.2 C 104.01 77.22 104 70.3 104 70.3 L 101.8 70.3 L 101.8 68.9 L 104 68.9 L 104 65.7 L 105.5 65.3 L 105.5 68.9 L 108.3 68.9 L 108.3 70.3 L 105.5 70.3 C 105.5 70.3 105.54 77.2 105.5 77.2 C 105.5 78.2 105.8 78.8 107.1 78.8 C 107.1 78.8 108.5 78.8 108.5 78.8 L 108.5 80.2 Z M 112.3 64.2 L 110.6 64.2 L 110.6 66.1 L 112.3 66.1 L 112.3 64.2 Z M 112.2 80.2 L 110.7 80.2 L 110.7 68.9 L 112.2 68.9 L 112.2 80.2 Z M 124.8 72.5 C 124.76 72.45 124.8 80.2 124.8 80.2 L 123.2 80.2 C 123.2 80.2 123.23 72.64 123.2 72.6 C 123.2 71.1 122.3 70.1 120.7 70.1 C 118.8 70.1 117.1 71.5 117.1 74.3 C 117.14 74.26 117.1 80.2 117.1 80.2 L 115.6 80.2 L 115.6 68.9 L 117.1 68.9 C 117.1 68.9 117.14 71 117.1 71 C 117.8 69.7 119.1 68.7 121 68.7 C 123.3 68.7 124.8 70 124.8 72.5 Z M 132.5 80.4 C 129.4 80.4 127.3 78.1 127.3 74.6 C 127.3 71 129.4 68.7 132.6 68.7 C 135.1 68.7 137.1 70.1 137.3 72.6 C 137.3 72.6 135.8 72.6 135.8 72.6 C 135.6 71 134.3 70.1 132.6 70.1 C 130.4 70.1 128.8 71.8 128.8 74.5 C 128.8 77.3 130.4 79 132.6 79 C 134.3 79 135.7 78 135.8 76.2 C 135.8 76.2 137.3 76.2 137.3 76.2 C 137.1 78.9 135 80.4 132.5 80.4 Z M 145.1 80.2 C 145.1 80.2 143.41 80.18 143.4 80.2 C 141.9 80.2 140.6 79.7 140.6 77.2 C 140.57 77.22 140.6 70.3 140.6 70.3 L 138.3 70.3 L 138.3 68.9 L 140.6 68.9 L 140.6 65.7 L 142.1 65.3 L 142.1 68.9 L 144.8 68.9 L 144.8 70.3 L 142.1 70.3 C 142.1 70.3 142.1 77.2 142.1 77.2 C 142.1 78.2 142.4 78.8 143.7 78.8 C 143.66 78.8 145.1 78.8 145.1 78.8 L 145.1 80.2 Z M 148.9 64.2 L 147.2 64.2 L 147.2 66.1 L 148.9 66.1 L 148.9 64.2 Z M 148.8 80.2 L 147.3 80.2 L 147.3 68.9 L 148.8 68.9 L 148.8 80.2 Z M 155.8 65.5 C 154.5 65.5 154.2 66.1 154.2 67.2 C 154.2 67.16 154.2 68.9 154.2 68.9 L 156.7 68.9 L 156.7 70.3 L 154.2 70.3 L 154.2 80.2 L 152.7 80.2 L 152.7 70.3 L 150.8 70.3 L 150.8 68.9 L 152.7 68.9 C 152.7 68.9 152.67 67.12 152.7 67.1 C 152.7 64.6 154 64.2 155.5 64.2 C 155.5 64.18 157 64.2 157 64.2 L 157 65.5 C 157 65.5 155.75 65.54 155.8 65.5 Z M 173.6 80.2 L 172.2 80.2 C 172.2 80.2 172.16 78 172.2 78 C 171.6 79.3 170.2 80.4 168.1 80.4 C 165.2 80.4 163.1 78.1 163.1 74.5 C 163.1 71 165.2 68.7 168.2 68.7 C 170.1 68.7 171.5 69.6 172.1 70.8 C 172.09 70.82 172.1 64.2 172.1 64.2 L 173.6 64.2 L 173.6 80.2 Z M 172.1 74.5 C 172.1 71.7 170.5 70.1 168.4 70.1 C 166.1 70.1 164.7 71.8 164.7 74.5 C 164.7 77.3 166.2 79 168.4 79 C 170.5 79 172.1 77.3 172.1 74.5 Z M 177.8 74.9 C 177.8 77.7 179.5 79 181.5 79 C 183 79 184.5 78.3 184.8 76.7 C 184.8 76.7 186.3 76.7 186.3 76.7 C 185.8 79.3 183.6 80.4 181.4 80.4 C 178.7 80.4 176.3 78.6 176.3 74.6 C 176.3 70.5 178.8 68.7 181.5 68.7 C 184.2 68.7 186.4 70.4 186.4 74.2 C 186.35 74.15 186.4 74.9 186.4 74.9 C 186.4 74.9 177.76 74.91 177.8 74.9 Z M 177.8 73.6 C 177.8 73.6 184.8 73.6 184.8 73.6 C 184.8 71.3 183.3 70.1 181.4 70.1 C 179.7 70.1 178 71.2 177.8 73.6 Z M 199.8 80.2 L 198.1 80.2 L 192.7 64.4 L 194.4 64.4 L 199 78.3 L 203.6 64.4 L 205.2 64.4 L 199.8 80.2 Z M 205.6 74.6 C 205.6 70.9 207.8 68.7 210.9 68.7 C 214.1 68.7 216.3 70.9 216.3 74.6 C 216.3 78.2 214.1 80.4 211 80.4 C 207.9 80.4 205.6 78.2 205.6 74.6 Z M 214.7 74.5 C 214.7 71.7 213 70.1 210.9 70.1 C 208.7 70.1 207.2 71.8 207.2 74.6 C 207.2 77.4 208.9 79 211 79 C 213.2 79 214.7 77.3 214.7 74.5 Z M 228.1 72.5 C 228.08 72.45 228.1 80.2 228.1 80.2 L 226.5 80.2 C 226.5 80.2 226.55 72.64 226.5 72.6 C 226.5 71.1 225.7 70.1 224.1 70.1 C 222.1 70.1 220.5 71.5 220.5 74.3 C 220.46 74.26 220.5 80.2 220.5 80.2 L 218.9 80.2 L 218.9 68.9 L 220.5 68.9 C 220.5 68.9 220.46 71 220.5 71 C 221.1 69.7 222.4 68.7 224.4 68.7 C 226.6 68.7 228.1 70 228.1 72.5 Z M 236.5 80.2 C 236.5 80.2 234.82 80.18 234.8 80.2 C 233.3 80.2 232 79.7 232 77.2 C 231.98 77.22 232 70.3 232 70.3 L 229.8 70.3 L 229.8 68.9 L 232 68.9 L 232 65.7 L 233.5 65.3 L 233.5 68.9 L 236.2 68.9 L 236.2 70.3 L 233.5 70.3 C 233.5 70.3 233.52 77.2 233.5 77.2 C 233.5 78.2 233.8 78.8 235.1 78.8 C 235.07 78.8 236.5 78.8 236.5 78.8 L 236.5 80.2 Z M 237.9 74.6 C 237.9 70.9 240.2 68.7 243.3 68.7 C 246.4 68.7 248.6 70.9 248.6 74.6 C 248.6 78.2 246.4 80.4 243.3 80.4 C 240.2 80.4 237.9 78.2 237.9 74.6 Z M 247.1 74.5 C 247.1 71.7 245.4 70.1 243.3 70.1 C 241.1 70.1 239.5 71.8 239.5 74.6 C 239.5 77.4 241.2 79 243.3 79 C 245.5 79 247.1 77.3 247.1 74.5 Z M 261.8 74.5 C 261.8 78 259.7 80.4 256.7 80.4 C 254.7 80.4 253.3 79.3 252.7 78.1 C 252.73 78.1 252.7 80.2 252.7 80.2 L 251.3 80.2 L 251.3 64.2 L 252.8 64.2 C 252.8 64.2 252.8 71.17 252.8 71.2 C 253.4 69.8 254.8 68.7 256.8 68.7 C 259.7 68.7 261.8 70.9 261.8 74.5 Z M 260.2 74.6 C 260.2 71.8 258.7 70.2 256.6 70.2 C 254.4 70.2 252.8 71.8 252.8 74.6 C 252.8 77.4 254.3 79.1 256.5 79.1 C 258.7 79.1 260.2 77.3 260.2 74.6 Z M 265.2 74.9 C 265.2 77.7 266.9 79 268.9 79 C 270.4 79 271.9 78.3 272.2 76.7 C 272.2 76.7 273.7 76.7 273.7 76.7 C 273.2 79.3 271 80.4 268.9 80.4 C 266.2 80.4 263.7 78.6 263.7 74.6 C 263.7 70.5 266.2 68.7 268.9 68.7 C 271.6 68.7 273.8 70.4 273.8 74.2 C 273.77 74.15 273.8 74.9 273.8 74.9 C 273.8 74.9 265.19 74.91 265.2 74.9 Z M 265.2 73.6 C 265.2 73.6 272.2 73.6 272.2 73.6 C 272.2 71.3 270.8 70.1 268.9 70.1 C 267.1 70.1 265.4 71.2 265.2 73.6 Z M 277.9 80.2 L 276.4 80.2 L 276.4 64.2 L 277.9 64.2 L 277.9 80.2 Z M 282.4 80.1 C 282.38 80.06 281.4 80.1 281.4 80.1 L 281.4 78 L 283.6 78 C 283.6 78 283.6 80.12 283.6 80.1 C 283.6 82.6 282.1 83.5 280.6 83.6 C 280.6 83.6 280.3 82.7 280.3 82.7 C 282 82.4 282.4 81.4 282.4 80.1 Z M 295.3 80.4 C 292.2 80.4 290.1 78.1 290.1 74.6 C 290.1 71 292.2 68.7 295.5 68.7 C 298 68.7 300 70.1 300.1 72.6 C 300.1 72.6 298.6 72.6 298.6 72.6 C 298.5 71 297.1 70.1 295.4 70.1 C 293.2 70.1 291.7 71.8 291.7 74.5 C 291.7 77.3 293.2 79 295.4 79 C 297.1 79 298.5 78 298.6 76.2 C 298.6 76.2 300.1 76.2 300.1 76.2 C 300 78.9 297.8 80.4 295.3 80.4 Z M 303.8 66.4 C 303.85 66.38 302.8 66.4 302.8 66.4 L 302.8 64.3 L 305.1 64.3 C 305.1 64.3 305.06 66.45 305.1 66.4 C 305.1 68.9 303.6 69.8 302 70 C 302 70 301.8 69 301.8 69 C 303.5 68.7 303.8 67.7 303.8 66.4 Z M 306.8 74.9 C 306.8 77.7 308.5 79 310.5 79 C 312 79 313.5 78.3 313.8 76.7 C 313.8 76.7 315.3 76.7 315.3 76.7 C 314.8 79.3 312.6 80.4 310.5 80.4 C 307.8 80.4 305.3 78.6 305.3 74.6 C 305.3 70.5 307.8 68.7 310.5 68.7 C 313.2 68.7 315.4 70.4 315.4 74.2 C 315.37 74.15 315.4 74.9 315.4 74.9 C 315.4 74.9 306.79 74.91 306.8 74.9 Z M 306.8 73.6 C 306.8 73.6 313.8 73.6 313.8 73.6 C 313.8 71.3 312.4 70.1 310.5 70.1 C 308.7 70.1 307 71.2 306.8 73.6 Z M 326.4 77 C 326.4 79.3 324.3 80.4 322 80.4 C 319.6 80.4 317.4 79.2 317.2 76.7 C 317.2 76.7 318.8 76.7 318.8 76.7 C 319 78.4 320.5 79 322.1 79 C 323.5 79 324.8 78.5 324.8 77.2 C 324.8 75.9 323.5 75.6 322.2 75.4 C 320 75 317.4 74.6 317.4 72 C 317.4 69.8 319.4 68.7 321.7 68.7 C 324.1 68.7 326 69.8 326.1 72.1 C 326.1 72.1 324.5 72.1 324.5 72.1 C 324.4 70.7 323.1 70.1 321.6 70.1 C 320.1 70.1 319 70.8 319 71.9 C 319 73.4 320.4 73.6 322.1 73.9 C 324.1 74.2 326.4 74.5 326.4 77 Z M 334 80.2 C 334 80.2 332.38 80.18 332.4 80.2 C 330.9 80.2 329.5 79.7 329.5 77.2 C 329.55 77.22 329.5 70.3 329.5 70.3 L 327.3 70.3 L 327.3 68.9 L 329.5 68.9 L 329.5 65.7 L 331.1 65.3 L 331.1 68.9 L 333.8 68.9 L 333.8 70.3 L 331.1 70.3 C 331.1 70.3 331.08 77.2 331.1 77.2 C 331.1 78.2 331.4 78.8 332.6 78.8 C 332.64 78.8 334 78.8 334 78.8 L 334 80.2 Z " stroke="none" fill="#000"/>  </g>  <g id="Polygon11908">    <path d="M 12 45 L 9.3 45 C 9.3 45 9.28 43.2 9.3 43.2 C 8.7 44.5 7.3 45.2 5.7 45.2 C 3 45.2 0.6 43.2 0.6 39.2 C 0.6 35.2 3 33.2 5.7 33.2 C 7.2 33.2 8.5 33.8 9.2 34.9 C 9.22 34.92 9.2 29 9.2 29 L 12 29 L 12 45 Z M 9.3 39.2 C 9.3 36.8 7.9 35.7 6.4 35.7 C 4.9 35.7 3.5 36.8 3.5 39.2 C 3.5 41.5 4.9 42.7 6.4 42.7 C 7.9 42.7 9.3 41.5 9.3 39.2 Z M 16.2 31.3 C 16.23 31.27 14.8 31.3 14.8 31.3 L 14.8 28.3 L 18 28.3 C 18 28.3 18.02 30.87 18 30.9 C 18 33.9 16 34.9 14.1 35.2 C 14.1 35.2 13.8 33.7 13.8 33.7 C 15.3 33.5 16.2 32.6 16.2 31.3 Z M 19.7 31.9 L 22.7 31.9 L 22.7 28.7 L 19.7 28.7 L 19.7 31.9 Z M 19.8 33.4 L 22.6 33.4 L 22.6 45 L 19.8 45 L 19.8 33.4 Z M 35.9 45 L 33.2 45 C 33.2 45 33.2 43.2 33.2 43.2 C 32.6 44.5 31.2 45.2 29.6 45.2 C 26.9 45.2 24.5 43.2 24.5 39.2 C 24.5 35.2 26.9 33.2 29.6 33.2 C 31.1 33.2 32.4 33.8 33.1 34.9 C 33.14 34.92 33.1 29 33.1 29 L 35.9 29 L 35.9 45 Z M 33.2 39.2 C 33.2 36.8 31.8 35.7 30.3 35.7 C 28.8 35.7 27.4 36.8 27.4 39.2 C 27.4 41.5 28.8 42.7 30.3 42.7 C 31.8 42.7 33.2 41.5 33.2 39.2 Z M 40.6 40 C 40.7 41.9 42 42.8 43.6 42.8 C 44.7 42.8 45.8 42.4 46.1 41.3 C 46.1 41.3 48.7 41.3 48.7 41.3 C 48.2 43.9 45.9 45.2 43.5 45.2 C 40.7 45.2 37.9 43.3 37.9 39.2 C 37.9 35.2 40.6 33.2 43.5 33.2 C 46.3 33.2 48.7 35 48.7 38.9 C 48.7 38.89 48.7 40 48.7 40 C 48.7 40 40.63 40.03 40.6 40 Z M 40.7 38 C 40.7 38 46 38 46 38 C 46 36.5 44.9 35.6 43.5 35.6 C 42.2 35.6 40.9 36.3 40.7 38 Z M 60.9 37.5 C 60.88 37.51 60.9 45 60.9 45 L 58.1 45 C 58.1 45 58.09 37.76 58.1 37.8 C 58.1 36.5 57.4 35.7 56 35.7 C 54.5 35.7 53.5 36.8 53.5 38.7 C 53.49 38.72 53.5 45 53.5 45 L 50.7 45 L 50.7 33.4 L 53.5 33.4 C 53.5 33.4 53.47 35.07 53.5 35.1 C 54.1 34 55.1 33.2 57 33.2 C 59.6 33.2 60.9 34.7 60.9 37.5 Z M 69.4 45 C 69.4 45 67.6 44.98 67.6 45 C 65.4 45 64 44.3 64 41.2 C 64.05 41.2 64 35.9 64 35.9 L 61.9 35.9 L 61.9 33.4 L 64 33.4 L 64 30.8 L 66.8 30 L 66.8 33.4 L 69.2 33.4 L 69.2 35.9 L 66.8 35.9 C 66.8 35.9 66.84 41.33 66.8 41.3 C 66.8 42 67 42.5 68 42.5 C 68.02 42.5 69.4 42.5 69.4 42.5 L 69.4 45 Z M 70.9 31.9 L 73.9 31.9 L 73.9 28.7 L 70.9 28.7 L 70.9 31.9 Z M 71 33.4 L 73.8 33.4 L 73.8 45 L 71 45 L 71 33.4 Z M 84.1 45 L 84.1 35.9 L 79.6 35.9 L 79.6 45 L 76.8 45 L 76.8 35.9 L 75.1 35.9 L 75.1 33.4 L 76.8 33.4 C 76.8 33.4 76.84 32.76 76.8 32.8 C 76.8 29.7 78.2 29 80.4 29 C 80.39 28.98 82.1 29 82.1 29 L 82.1 31.5 C 82.1 31.5 80.81 31.46 80.8 31.5 C 79.8 31.5 79.6 31.9 79.6 32.6 C 79.63 32.63 79.6 33.4 79.6 33.4 L 86.9 33.4 L 86.9 45 L 84.1 45 Z M 91.5 40 C 91.5 41.9 92.9 42.8 94.4 42.8 C 95.5 42.8 96.6 42.4 96.9 41.3 C 96.9 41.3 99.5 41.3 99.5 41.3 C 99 43.9 96.7 45.2 94.3 45.2 C 91.5 45.2 88.7 43.3 88.7 39.2 C 88.7 35.2 91.4 33.2 94.3 33.2 C 97.1 33.2 99.5 35 99.5 38.9 C 99.52 38.89 99.5 40 99.5 40 C 99.5 40 91.45 40.03 91.5 40 Z M 91.5 38 C 91.5 38 96.8 38 96.8 38 C 96.8 36.5 95.7 35.6 94.3 35.6 C 93 35.6 91.8 36.3 91.5 38 Z M 108.1 36 C 108.1 36 107.33 35.97 107.3 36 C 105.4 36 104.3 37 104.3 39.3 C 104.31 39.31 104.3 45 104.3 45 L 101.5 45 L 101.5 33.4 L 104.3 33.4 C 104.3 33.4 104.28 35.05 104.3 35 C 104.9 33.8 105.9 33.3 107.3 33.3 C 107.31 33.26 108.1 33.3 108.1 33.3 L 108.1 36 Z M 117.3 45 L 114.5 45 L 114.5 29 L 117.3 29 L 117.3 45 Z M 129.3 37.2 C 129.25 37.19 129.3 45 129.3 45 L 126.5 45 C 126.5 45 126.52 43.3 126.5 43.3 C 125.6 44.8 124.2 45.2 123 45.2 C 121.2 45.2 119.3 44.1 119.3 41.6 C 119.3 39.8 120.3 38.6 123 38.2 C 123 38.2 125.5 37.8 125.5 37.8 C 126.1 37.7 126.6 37.5 126.6 36.8 C 126.6 35.8 125.8 35.4 124.7 35.4 C 123.2 35.4 122.5 36.1 122.4 37.1 C 122.4 37.1 119.7 37.1 119.7 37.1 C 120 34.4 122.2 33.2 124.8 33.2 C 127.5 33.2 129.3 34.5 129.3 37.2 Z M 126.5 40.1 C 126.5 40.1 126.5 39.5 126.5 39.5 C 126.3 39.6 125.7 39.8 125.2 39.8 C 125.2 39.8 123.9 40 123.9 40 C 122.5 40.2 122 40.8 122 41.5 C 122 42.4 122.7 42.9 123.7 42.9 C 125.1 42.9 126.5 41.8 126.5 40.1 Z M 141.3 41.8 L 139.8 43.2 L 135.7 38.6 L 139.8 34 L 141.3 35.4 L 138.5 38.6 L 141.3 41.8 Z M 146.8 41.8 L 145.2 43.2 L 141.1 38.6 L 145.2 34 L 146.8 35.4 L 143.9 38.6 L 146.8 41.8 Z M 159.1 45 L 156.1 45 L 151.8 33.4 L 154.8 33.4 L 157.6 41.7 L 160.5 33.4 L 163.4 33.4 L 159.1 45 Z M 171.3 36 C 171.3 36 170.54 35.97 170.5 36 C 168.6 36 167.5 37 167.5 39.3 C 167.51 39.31 167.5 45 167.5 45 L 164.7 45 L 164.7 33.4 L 167.5 33.4 C 167.5 33.4 167.49 35.05 167.5 35 C 168.1 33.8 169.2 33.3 170.5 33.3 C 170.52 33.26 171.3 33.3 171.3 33.3 L 171.3 36 Z M 181.9 37.2 C 181.9 37.19 181.9 45 181.9 45 L 179.2 45 C 179.2 45 179.17 43.3 179.2 43.3 C 178.3 44.8 176.9 45.2 175.7 45.2 C 173.8 45.2 171.9 44.1 171.9 41.6 C 171.9 39.8 172.9 38.6 175.6 38.2 C 175.6 38.2 178.1 37.8 178.1 37.8 C 178.8 37.7 179.3 37.5 179.3 36.8 C 179.3 35.8 178.4 35.4 177.3 35.4 C 175.8 35.4 175.2 36.1 175.1 37.1 C 175.1 37.1 172.4 37.1 172.4 37.1 C 172.7 34.4 174.8 33.2 177.4 33.2 C 180.2 33.2 181.9 34.5 181.9 37.2 Z M 179.2 40.1 C 179.2 40.1 179.2 39.5 179.2 39.5 C 178.9 39.6 178.4 39.8 177.8 39.8 C 177.8 39.8 176.6 40 176.6 40 C 175.2 40.2 174.7 40.8 174.7 41.5 C 174.7 42.4 175.3 42.9 176.3 42.9 C 177.8 42.9 179.2 41.8 179.2 40.1 Z M 184.3 31.9 L 187.3 31.9 L 187.3 28.7 L 184.3 28.7 L 184.3 31.9 Z M 184.4 33.4 L 187.2 33.4 L 187.2 45 L 184.4 45 L 184.4 33.4 Z M 191.9 40 C 191.9 41.9 193.3 42.8 194.9 42.8 C 195.9 42.8 197 42.4 197.3 41.3 C 197.3 41.3 199.9 41.3 199.9 41.3 C 199.4 43.9 197.1 45.2 194.7 45.2 C 191.9 45.2 189.2 43.3 189.2 39.2 C 189.2 35.2 191.8 33.2 194.8 33.2 C 197.6 33.2 199.9 35 199.9 38.9 C 199.94 38.89 199.9 40 199.9 40 C 199.9 40 191.87 40.03 191.9 40 Z M 191.9 38 C 191.9 38 197.2 38 197.2 38 C 197.2 36.5 196.1 35.6 194.7 35.6 C 193.4 35.6 192.2 36.3 191.9 38 Z M 205.6 35.4 L 207.2 34 L 211.3 38.6 L 207.2 43.2 L 205.6 41.8 L 208.4 38.6 L 205.6 35.4 Z M 211.1 35.4 L 212.6 34 L 216.7 38.6 L 212.6 43.2 L 211.1 41.8 L 213.9 38.6 L 211.1 35.4 Z M 229.2 45 L 226.3 45 L 222 33.4 L 224.9 33.4 L 227.8 41.7 L 230.6 33.4 L 233.5 33.4 L 229.2 45 Z M 243.9 37.2 C 243.93 37.19 243.9 45 243.9 45 L 241.2 45 C 241.2 45 241.2 43.3 241.2 43.3 C 240.3 44.8 238.9 45.2 237.7 45.2 C 235.8 45.2 233.9 44.1 233.9 41.6 C 233.9 39.8 235 38.6 237.6 38.2 C 237.6 38.2 240.1 37.8 240.1 37.8 C 240.8 37.7 241.3 37.5 241.3 36.8 C 241.3 35.8 240.5 35.4 239.4 35.4 C 237.9 35.4 237.2 36.1 237.1 37.1 C 237.1 37.1 234.4 37.1 234.4 37.1 C 234.7 34.4 236.9 33.2 239.5 33.2 C 242.2 33.2 243.9 34.5 243.9 37.2 Z M 241.2 40.1 C 241.2 40.1 241.2 39.5 241.2 39.5 C 241 39.6 240.4 39.8 239.9 39.8 C 239.9 39.8 238.6 40 238.6 40 C 237.2 40.2 236.7 40.8 236.7 41.5 C 236.7 42.4 237.4 42.9 238.3 42.9 C 239.8 42.9 241.2 41.8 241.2 40.1 Z M 249.2 45 L 246.5 45 L 246.5 29 L 249.2 29 L 249.2 45 Z M 253.9 40 C 254 41.9 255.4 42.8 256.9 42.8 C 258 42.8 259.1 42.4 259.4 41.3 C 259.4 41.3 262 41.3 262 41.3 C 261.5 43.9 259.2 45.2 256.8 45.2 C 254 45.2 251.2 43.3 251.2 39.2 C 251.2 35.2 253.9 33.2 256.8 33.2 C 259.6 33.2 262 35 262 38.9 C 262.01 38.89 262 40 262 40 C 262 40 253.95 40.03 253.9 40 Z M 254 38 C 254 38 259.3 38 259.3 38 C 259.3 36.5 258.2 35.6 256.8 35.6 C 255.5 35.6 254.3 36.3 254 38 Z M 274.2 45 L 271.4 45 C 271.4 45 271.42 43.34 271.4 43.3 C 270.7 44.4 269.7 45.1 268.1 45.1 C 265.7 45.1 263.9 43.6 263.9 40.6 C 263.9 40.59 263.9 33.4 263.9 33.4 L 266.7 33.4 C 266.7 33.4 266.7 40.38 266.7 40.4 C 266.7 42 267.5 42.6 268.7 42.6 C 270.2 42.6 271.4 41.7 271.4 39 C 271.36 39 271.4 33.4 271.4 33.4 L 274.2 33.4 L 274.2 45 Z M 283.4 36 C 283.4 36 282.7 35.97 282.7 36 C 280.7 36 279.7 37 279.7 39.3 C 279.67 39.31 279.7 45 279.7 45 L 276.9 45 L 276.9 33.4 L 279.7 33.4 C 279.7 33.4 279.65 35.05 279.7 35 C 280.2 33.8 281.3 33.3 282.7 33.3 C 282.68 33.26 283.4 33.3 283.4 33.3 L 283.4 36 Z " stroke="none" fill="#000"/>  </g>  <g id="Polygon11907">    <path d="M 11.5 16.3 L 4.8 16.3 L 3.5 19.8 L 0.4 19.8 L 6.5 4 L 9.7 4 L 16 19.8 L 12.8 19.8 L 11.5 16.3 Z M 10.4 13.5 L 8.1 7.3 L 5.8 13.5 L 10.4 13.5 Z M 28 12.3 C 27.97 12.31 28 19.8 28 19.8 L 25.2 19.8 C 25.2 19.8 25.18 12.56 25.2 12.6 C 25.2 11.3 24.4 10.5 23.1 10.5 C 21.5 10.5 20.6 11.6 20.6 13.5 C 20.58 13.52 20.6 19.8 20.6 19.8 L 17.8 19.8 L 17.8 8.2 L 20.6 8.2 C 20.6 8.2 20.56 9.87 20.6 9.9 C 21.2 8.8 22.2 8 24.1 8 C 26.7 8 28 9.5 28 12.3 Z M 39.9 12 C 39.86 11.99 39.9 19.8 39.9 19.8 L 37.1 19.8 C 37.1 19.8 37.13 18.1 37.1 18.1 C 36.2 19.6 34.8 20 33.6 20 C 31.8 20 29.9 18.9 29.9 16.4 C 29.9 14.6 30.9 13.4 33.6 13 C 33.6 13 36.1 12.6 36.1 12.6 C 36.7 12.5 37.2 12.3 37.2 11.6 C 37.2 10.6 36.4 10.2 35.3 10.2 C 33.8 10.2 33.1 10.9 33 11.9 C 33 11.9 30.3 11.9 30.3 11.9 C 30.6 9.2 32.8 8 35.4 8 C 38.1 8 39.9 9.3 39.9 12 Z M 37.1 14.9 C 37.1 14.9 37.1 14.3 37.1 14.3 C 36.9 14.4 36.4 14.6 35.8 14.6 C 35.8 14.6 34.5 14.8 34.5 14.8 C 33.1 15 32.7 15.6 32.7 16.3 C 32.7 17.2 33.3 17.7 34.3 17.7 C 35.7 17.7 37.1 16.6 37.1 14.9 Z M 45.2 19.8 L 42.4 19.8 L 42.4 3.8 L 45.2 3.8 L 45.2 19.8 Z M 57.8 8.2 C 57.8 8.2 52.79 21.52 52.8 21.5 C 52.3 22.9 51.1 23.5 49.5 23.5 C 49.52 23.48 47.8 23.5 47.8 23.5 L 47.8 21 C 47.8 21 49.03 21 49 21 C 50 21 50.4 20.7 50.7 19.9 C 50.69 19.87 50.9 19.3 50.9 19.3 L 46.5 8.2 L 49.5 8.2 L 52.2 15.8 L 55 8.2 L 57.8 8.2 Z M 68.2 16.2 C 68.2 18.8 65.9 20 63.3 20 C 60.9 20 58.3 19 58.1 16.1 C 58.1 16.1 61 16.1 61 16.1 C 61.2 17.2 62.2 17.7 63.5 17.7 C 64.7 17.7 65.5 17.3 65.5 16.5 C 65.5 15.7 65 15.6 63.4 15.3 C 61.1 14.9 58.5 14.5 58.5 11.7 C 58.5 9.1 60.7 8 63.1 8 C 65.8 8 67.8 9.3 68 11.9 C 68 11.9 65.2 11.9 65.2 11.9 C 65.1 10.8 64.3 10.3 63.1 10.3 C 61.8 10.3 61.2 10.9 61.2 11.6 C 61.2 12.5 62.2 12.7 63.7 12.9 C 65.7 13.2 68.2 13.5 68.2 16.2 Z M 72.1 14.8 C 72.2 16.7 73.5 17.6 75.1 17.6 C 76.2 17.6 77.2 17.2 77.6 16.1 C 77.6 16.1 80.1 16.1 80.1 16.1 C 79.6 18.7 77.3 20 75 20 C 72.2 20 69.4 18.1 69.4 14 C 69.4 10 72 8 75 8 C 77.8 8 80.2 9.8 80.2 13.7 C 80.18 13.69 80.2 14.8 80.2 14.8 C 80.2 14.8 72.11 14.83 72.1 14.8 Z M 72.2 12.8 C 72.2 12.8 77.4 12.8 77.4 12.8 C 77.4 11.3 76.4 10.4 74.9 10.4 C 73.7 10.4 72.4 11.1 72.2 12.8 Z M 98.8 14 C 98.8 18.1 96.3 20 93.6 20 C 92.1 20 90.8 19.5 90.2 18.4 C 90.15 18.4 90.2 19.8 90.2 19.8 L 87.4 19.8 L 87.4 3.8 L 90.2 3.8 C 90.2 3.8 90.21 9.89 90.2 9.9 C 90.9 8.7 92.2 8 93.8 8 C 96.5 8 98.8 10 98.8 14 Z M 96 14 C 96 11.7 94.6 10.5 93.1 10.5 C 91.6 10.5 90.1 11.7 90.1 14 C 90.1 16.4 91.6 17.6 93.1 17.6 C 94.6 17.6 96 16.4 96 14 Z M 111.4 14 C 111.4 17.8 109 20 105.7 20 C 102.5 20 100.1 17.8 100.1 14 C 100.1 10.2 102.5 8 105.7 8 C 109 8 111.4 10.2 111.4 14 Z M 102.9 14 C 102.9 16.3 104.2 17.4 105.8 17.4 C 107.4 17.4 108.5 16.2 108.5 14 C 108.5 11.7 107.2 10.6 105.7 10.6 C 104 10.6 102.9 11.8 102.9 14 Z M 126.3 19.8 C 126.3 19.8 124.49 19.78 124.5 19.8 C 122.3 19.8 120.9 19.1 120.9 16 C 120.94 16 120.9 10.7 120.9 10.7 L 116.7 10.7 C 116.7 10.7 116.72 16.13 116.7 16.1 C 116.7 16.8 116.9 17.3 117.9 17.3 C 117.89 17.3 119.3 17.3 119.3 17.3 L 119.3 19.8 C 119.3 19.8 117.47 19.78 117.5 19.8 C 115.3 19.8 113.9 19.1 113.9 16 C 113.92 16 113.9 10.7 113.9 10.7 L 111.8 10.7 L 111.8 8.2 L 113.9 8.2 L 113.9 5.6 L 116.7 4.8 L 116.7 8.2 L 120.9 8.2 L 120.9 5.6 L 123.7 4.8 L 123.7 8.2 L 126 8.2 L 126 10.7 L 123.7 10.7 C 123.7 10.7 123.73 16.13 123.7 16.1 C 123.7 16.8 123.9 17.3 124.9 17.3 C 124.91 17.3 126.3 17.3 126.3 17.3 L 126.3 19.8 Z M 138.5 14 C 138.5 17.8 136.1 20 132.8 20 C 129.6 20 127.2 17.8 127.2 14 C 127.2 10.2 129.6 8 132.8 8 C 136.1 8 138.5 10.2 138.5 14 Z M 130 14 C 130 16.3 131.3 17.4 132.8 17.4 C 134.5 17.4 135.6 16.2 135.6 14 C 135.6 11.7 134.3 10.6 132.8 10.6 C 131.1 10.6 130 11.8 130 14 Z M 156.8 12 C 156.83 11.97 156.8 19.8 156.8 19.8 L 154 19.8 C 154 19.8 154.03 12.52 154 12.5 C 154 11.1 153.4 10.5 152.2 10.5 C 150.9 10.5 150 11.3 150 13.3 C 150.04 13.27 150 19.8 150 19.8 L 147.3 19.8 C 147.3 19.8 147.25 12.52 147.3 12.5 C 147.3 11.1 146.6 10.5 145.4 10.5 C 144.1 10.5 143.3 11.3 143.3 13.3 C 143.26 13.25 143.3 19.8 143.3 19.8 L 140.5 19.8 L 140.5 8.2 L 143.2 8.2 C 143.2 8.2 143.22 9.89 143.2 9.9 C 143.6 9 144.5 8 146.2 8 C 147.7 8 148.9 8.7 149.4 9.9 C 149.9 9.1 150.7 8 152.8 8 C 155.3 8 156.8 9.5 156.8 12 Z M 165.6 11.9 L 159.1 11.9 L 159.1 14.4 L 165.6 14.4 L 165.6 11.9 Z M 178.2 19.8 L 175.4 19.8 C 175.4 19.8 175.43 18.14 175.4 18.1 C 174.8 19.2 173.7 19.9 172.1 19.9 C 169.7 19.9 167.9 18.4 167.9 15.4 C 167.91 15.39 167.9 8.2 167.9 8.2 L 170.7 8.2 C 170.7 8.2 170.71 15.18 170.7 15.2 C 170.7 16.8 171.5 17.4 172.7 17.4 C 174.2 17.4 175.4 16.5 175.4 13.8 C 175.37 13.8 175.4 8.2 175.4 8.2 L 178.2 8.2 L 178.2 19.8 Z M 192.3 13.8 C 192.3 18 189.7 19.9 187 19.9 C 185.4 19.9 184.3 19.2 183.7 18.4 C 183.68 18.4 183.7 24.1 183.7 24.1 L 180.9 24.1 L 180.9 8.2 L 183.6 8.2 C 183.6 8.2 183.62 10.04 183.6 10 C 184.2 8.8 185.5 8 187.2 8 C 189.9 8 192.3 9.9 192.3 13.8 Z M 189.4 14 C 189.4 11.6 188.1 10.5 186.5 10.5 C 185 10.5 183.6 11.6 183.6 14 C 183.6 16.3 185 17.4 186.5 17.4 C 188.1 17.4 189.4 16.3 189.4 14 Z M 208.8 12 C 208.78 11.99 208.8 19.8 208.8 19.8 L 206 19.8 C 206 19.8 206.05 18.1 206 18.1 C 205.1 19.6 203.8 20 202.5 20 C 200.7 20 198.8 18.9 198.8 16.4 C 198.8 14.6 199.8 13.4 202.5 13 C 202.5 13 205 12.6 205 12.6 C 205.7 12.5 206.2 12.3 206.2 11.6 C 206.2 10.6 205.3 10.2 204.2 10.2 C 202.7 10.2 202 10.9 201.9 11.9 C 201.9 11.9 199.2 11.9 199.2 11.9 C 199.5 9.2 201.7 8 204.3 8 C 207.1 8 208.8 9.3 208.8 12 Z M 206.1 14.9 C 206.1 14.9 206.1 14.3 206.1 14.3 C 205.8 14.4 205.3 14.6 204.7 14.6 C 204.7 14.6 203.4 14.8 203.4 14.8 C 202 15 201.6 15.6 201.6 16.3 C 201.6 17.2 202.2 17.7 203.2 17.7 C 204.6 17.7 206.1 16.6 206.1 14.9 Z M 218.9 19.8 L 218.9 10.7 L 214.4 10.7 L 214.4 19.8 L 211.7 19.8 L 211.7 10.7 L 209.9 10.7 L 209.9 8.2 L 211.7 8.2 C 211.7 8.2 211.66 7.56 211.7 7.6 C 211.7 4.5 213 3.8 215.2 3.8 C 215.21 3.78 216.9 3.8 216.9 3.8 L 216.9 6.3 C 216.9 6.3 215.63 6.26 215.6 6.3 C 214.6 6.3 214.4 6.7 214.4 7.4 C 214.45 7.43 214.4 8.2 214.4 8.2 L 221.7 8.2 L 221.7 19.8 L 218.9 19.8 Z M 234.5 12.3 C 234.48 12.31 234.5 19.8 234.5 19.8 L 231.7 19.8 C 231.7 19.8 231.69 12.56 231.7 12.6 C 231.7 11.3 231 10.5 229.7 10.5 C 228.1 10.5 227.1 11.6 227.1 13.5 C 227.09 13.52 227.1 19.8 227.1 19.8 L 224.3 19.8 L 224.3 8.2 L 227.1 8.2 C 227.1 8.2 227.07 9.87 227.1 9.9 C 227.7 8.8 228.7 8 230.6 8 C 233.2 8 234.5 9.5 234.5 12.3 Z " stroke="none" fill="#000"/>  </g></svg>