<?xml version="1.0" standalone="no"?><!DOCTYPE svg PUBLIC "-//W3C//DTD SVG 1.1//EN" "http://www.w3.org/Graphics/SVG/1.1/DTD/svg11.dtd"><svg xmlns="http://www.w3.org/2000/svg" version="1.1" width="373px" height="148.4px" viewBox="0 0 373 148.4">  <desc>Die Spreads von hochverzinslichen Anleihen verengten sich und Zahlungsausf lle blieben aus sind solche Papiere nun</desc>  <defs/>  <g id="Polygon11225">    <path d="M 10.9 120.6 L 6.9 114.3 L 4.5 114.3 L 4.5 120.6 L 1.6 120.6 L 1.6 104.8 C 1.6 104.8 7.73 104.83 7.7 104.8 C 11.3 104.8 13 107.1 13 109.4 C 13 111.2 11.9 113.1 9.9 113.7 C 9.93 113.74 14.4 120.6 14.4 120.6 L 10.9 120.6 Z M 10.1 109.5 C 10.1 108.6 9.5 107.6 7.9 107.6 C 7.85 107.56 4.5 107.6 4.5 107.6 L 4.5 111.6 C 4.5 111.6 7.62 111.61 7.6 111.6 C 9.3 111.6 10.1 110.6 10.1 109.5 Z M 17.6 115.6 C 17.6 117.5 19 118.4 20.5 118.4 C 21.6 118.4 22.7 118 23 116.9 C 23 116.9 25.6 116.9 25.6 116.9 C 25.1 119.5 22.8 120.8 20.4 120.8 C 17.6 120.8 14.8 118.9 14.8 114.8 C 14.8 110.8 17.5 108.8 20.4 108.8 C 23.2 108.8 25.6 110.6 25.6 114.5 C 25.62 114.49 25.6 115.6 25.6 115.6 C 25.6 115.6 17.56 115.63 17.6 115.6 Z M 17.6 113.6 C 17.6 113.6 22.9 113.6 22.9 113.6 C 22.9 112.1 21.8 111.2 20.4 111.2 C 19.1 111.2 17.9 111.9 17.6 113.6 Z M 37.8 113.1 C 37.8 113.11 37.8 120.6 37.8 120.6 L 35 120.6 C 35 120.6 35.01 113.36 35 113.4 C 35 112.1 34.3 111.3 33 111.3 C 31.4 111.3 30.4 112.4 30.4 114.3 C 30.41 114.32 30.4 120.6 30.4 120.6 L 27.6 120.6 L 27.6 109 L 30.4 109 C 30.4 109 30.39 110.67 30.4 110.7 C 31 109.6 32 108.8 33.9 108.8 C 36.6 108.8 37.8 110.3 37.8 113.1 Z M 51.1 120.6 L 48.3 120.6 C 48.3 120.6 48.34 118.8 48.3 118.8 C 47.7 120.1 46.4 120.8 44.8 120.8 C 42.1 120.8 39.7 118.8 39.7 114.8 C 39.7 110.8 42.1 108.8 44.8 108.8 C 46.3 108.8 47.6 109.4 48.3 110.5 C 48.28 110.52 48.3 104.6 48.3 104.6 L 51.1 104.6 L 51.1 120.6 Z M 48.4 114.8 C 48.4 112.4 46.9 111.3 45.4 111.3 C 43.9 111.3 42.5 112.4 42.5 114.8 C 42.5 117.1 43.9 118.3 45.4 118.3 C 46.9 118.3 48.4 117.1 48.4 114.8 Z M 53.7 107.5 L 56.7 107.5 L 56.7 104.3 L 53.7 104.3 L 53.7 107.5 Z M 53.8 109 L 56.6 109 L 56.6 120.6 L 53.8 120.6 L 53.8 109 Z M 65.2 120.6 C 65.2 120.6 63.38 120.58 63.4 120.6 C 61.2 120.6 59.8 119.9 59.8 116.8 C 59.83 116.8 59.8 111.5 59.8 111.5 L 57.7 111.5 L 57.7 109 L 59.8 109 L 59.8 106.4 L 62.6 105.6 L 62.6 109 L 64.9 109 L 64.9 111.5 L 62.6 111.5 C 62.6 111.5 62.62 116.93 62.6 116.9 C 62.6 117.6 62.8 118.1 63.8 118.1 C 63.8 118.1 65.2 118.1 65.2 118.1 L 65.2 120.6 Z M 68.8 115.6 C 68.8 117.5 70.2 118.4 71.7 118.4 C 72.8 118.4 73.9 118 74.2 116.9 C 74.2 116.9 76.8 116.9 76.8 116.9 C 76.3 119.5 74 120.8 71.6 120.8 C 68.8 120.8 66 118.9 66 114.8 C 66 110.8 68.7 108.8 71.6 108.8 C 74.4 108.8 76.8 110.6 76.8 114.5 C 76.82 114.49 76.8 115.6 76.8 115.6 C 76.8 115.6 68.75 115.63 68.8 115.6 Z M 68.8 113.6 C 68.8 113.6 74.1 113.6 74.1 113.6 C 74.1 112.1 73 111.2 71.6 111.2 C 70.3 111.2 69.1 111.9 68.8 113.6 Z M 85 112.7 L 78.5 112.7 L 78.5 115.2 L 85 115.2 L 85 112.7 Z M 93.2 121 C 90 121 86.7 119.2 86.7 115.2 C 86.7 115.2 89.7 115.2 89.7 115.2 C 89.8 117.6 91.5 118.5 93.2 118.5 C 94.8 118.5 96.1 117.7 96.1 116.4 C 96.1 114.8 94.3 114.4 92.5 114 C 90.2 113.5 87.3 112.7 87.3 109.3 C 87.3 106 90 104.5 93 104.5 C 95.9 104.5 98.8 106 98.8 109.2 C 98.8 109.2 95.8 109.2 95.8 109.2 C 95.7 107.6 94.4 107 92.9 107 C 91.3 107 90.2 107.7 90.2 109.1 C 90.2 110.6 91.6 111 93.4 111.4 C 95.4 111.9 99 112.5 99 116.2 C 99 119.3 96.3 121 93.2 121 Z M 101 107.5 L 104 107.5 L 104 104.3 L 101 104.3 L 101 107.5 Z M 101.1 109 L 103.9 109 L 103.9 120.6 L 101.1 120.6 L 101.1 109 Z M 111.5 120.8 C 107.7 120.8 105.9 117.9 105.9 114.8 C 105.9 111.7 107.7 108.8 111.5 108.8 C 114.3 108.8 116.5 110.4 116.6 113.2 C 116.6 113.2 113.9 113.2 113.9 113.2 C 113.7 112.1 112.9 111.3 111.6 111.3 C 109.5 111.3 108.7 113 108.7 114.8 C 108.7 116.7 109.6 118.2 111.5 118.2 C 112.9 118.2 113.7 117.5 113.9 116.5 C 113.9 116.5 116.7 116.5 116.7 116.5 C 116.3 119.3 114.3 120.8 111.5 120.8 Z M 128.9 113.1 C 128.85 113.11 128.9 120.6 128.9 120.6 L 126.1 120.6 C 126.1 120.6 126.06 113.36 126.1 113.4 C 126.1 112.1 125.3 111.3 124 111.3 C 122.4 111.3 121.5 112.4 121.5 114.3 C 121.46 114.32 121.5 120.6 121.5 120.6 L 118.7 120.6 L 118.7 104.6 L 121.5 104.6 C 121.5 104.6 121.46 110.63 121.5 110.6 C 122.1 109.5 123.1 108.8 125 108.8 C 127.6 108.8 128.9 110.3 128.9 113.1 Z M 137.4 120.6 C 137.4 120.6 135.57 120.58 135.6 120.6 C 133.4 120.6 132 119.9 132 116.8 C 132.03 116.8 132 111.5 132 111.5 L 129.9 111.5 L 129.9 109 L 132 109 L 132 106.4 L 134.8 105.6 L 134.8 109 L 137.1 109 L 137.1 111.5 L 134.8 111.5 C 134.8 111.5 134.82 116.93 134.8 116.9 C 134.8 117.6 135 118.1 136 118.1 C 135.99 118.1 137.4 118.1 137.4 118.1 L 137.4 120.6 Z M 153.7 112.8 C 153.7 112.79 153.7 120.6 153.7 120.6 L 151 120.6 C 151 120.6 150.97 118.9 151 118.9 C 150.1 120.4 148.7 120.8 147.5 120.8 C 145.6 120.8 143.7 119.7 143.7 117.2 C 143.7 115.4 144.7 114.2 147.4 113.8 C 147.4 113.8 149.9 113.4 149.9 113.4 C 150.6 113.3 151.1 113.1 151.1 112.4 C 151.1 111.4 150.2 111 149.1 111 C 147.6 111 147 111.7 146.9 112.7 C 146.9 112.7 144.2 112.7 144.2 112.7 C 144.5 110 146.6 108.8 149.2 108.8 C 152 108.8 153.7 110.1 153.7 112.8 Z M 151 115.7 C 151 115.7 151 115.1 151 115.1 C 150.7 115.2 150.2 115.4 149.6 115.4 C 149.6 115.4 148.4 115.6 148.4 115.6 C 147 115.8 146.5 116.4 146.5 117.1 C 146.5 118 147.1 118.5 148.1 118.5 C 149.6 118.5 151 117.4 151 115.7 Z M 169.2 120.6 C 169.2 120.6 167.33 120.58 167.3 120.6 C 165.2 120.6 163.8 119.9 163.8 116.8 C 163.78 116.8 163.8 111.5 163.8 111.5 L 159.6 111.5 C 159.6 111.5 159.56 116.93 159.6 116.9 C 159.6 117.6 159.7 118.1 160.7 118.1 C 160.73 118.1 162.1 118.1 162.1 118.1 L 162.1 120.6 C 162.1 120.6 160.31 120.58 160.3 120.6 C 158.1 120.6 156.8 119.9 156.8 116.8 C 156.76 116.8 156.8 111.5 156.8 111.5 L 154.6 111.5 L 154.6 109 L 156.8 109 L 156.8 106.4 L 159.6 105.6 L 159.6 109 L 163.8 109 L 163.8 106.4 L 166.6 105.6 L 166.6 109 L 168.9 109 L 168.9 111.5 L 166.6 111.5 C 166.6 111.5 166.57 116.93 166.6 116.9 C 166.6 117.6 166.8 118.1 167.7 118.1 C 167.75 118.1 169.2 118.1 169.2 118.1 L 169.2 120.6 Z M 177.3 111.6 C 177.3 111.6 176.54 111.57 176.5 111.6 C 174.6 111.6 173.5 112.6 173.5 114.9 C 173.52 114.91 173.5 120.6 173.5 120.6 L 170.7 120.6 L 170.7 109 L 173.5 109 C 173.5 109 173.5 110.65 173.5 110.6 C 174.1 109.4 175.2 108.9 176.5 108.9 C 176.52 108.86 177.3 108.9 177.3 108.9 L 177.3 111.6 Z M 187.9 112.8 C 187.91 112.79 187.9 120.6 187.9 120.6 L 185.2 120.6 C 185.2 120.6 185.18 118.9 185.2 118.9 C 184.3 120.4 182.9 120.8 181.7 120.8 C 179.8 120.8 177.9 119.7 177.9 117.2 C 177.9 115.4 178.9 114.2 181.6 113.8 C 181.6 113.8 184.1 113.4 184.1 113.4 C 184.8 113.3 185.3 113.1 185.3 112.4 C 185.3 111.4 184.4 111 183.3 111 C 181.8 111 181.2 111.7 181.1 112.7 C 181.1 112.7 178.4 112.7 178.4 112.7 C 178.7 110 180.8 108.8 183.5 108.8 C 186.2 108.8 187.9 110.1 187.9 112.8 Z M 185.2 115.7 C 185.2 115.7 185.2 115.1 185.2 115.1 C 184.9 115.2 184.4 115.4 183.8 115.4 C 183.8 115.4 182.6 115.6 182.6 115.6 C 181.2 115.8 180.7 116.4 180.7 117.1 C 180.7 118 181.4 118.5 182.3 118.5 C 183.8 118.5 185.2 117.4 185.2 115.7 Z M 194.5 116.1 L 193.2 117.5 L 193.2 120.6 L 190.4 120.6 L 190.4 104.6 L 193.2 104.6 L 193.2 113.7 L 197.4 109 L 201 109 L 196.5 114 L 201.2 120.6 L 197.7 120.6 L 194.5 116.1 Z M 208.7 120.6 C 208.7 120.6 206.85 120.58 206.8 120.6 C 204.7 120.6 203.3 119.9 203.3 116.8 C 203.3 116.8 203.3 111.5 203.3 111.5 L 201.2 111.5 L 201.2 109 L 203.3 109 L 203.3 106.4 L 206.1 105.6 L 206.1 109 L 208.4 109 L 208.4 111.5 L 206.1 111.5 C 206.1 111.5 206.09 116.93 206.1 116.9 C 206.1 117.6 206.3 118.1 207.3 118.1 C 207.27 118.1 208.7 118.1 208.7 118.1 L 208.7 120.6 Z M 210.1 107.5 L 213.1 107.5 L 213.1 104.3 L 210.1 104.3 L 210.1 107.5 Z M 210.2 109 L 213 109 L 213 120.6 L 210.2 120.6 L 210.2 109 Z M 221.6 120.6 L 218.6 120.6 L 214.4 109 L 217.3 109 L 220.2 117.3 L 223 109 L 225.9 109 L 221.6 120.6 Z M 230.1 115 C 230.1 112.3 231.4 111.8 232.7 110.9 C 233.7 110.2 234.1 109.6 234.1 108.8 C 234.1 107.6 233.3 107 232 107 C 230.6 107 229.7 107.8 229.6 109.2 C 229.6 109.2 226.8 109.2 226.8 109.2 C 227 105.8 229.5 104.6 232.1 104.6 C 234.9 104.6 237 105.9 237 108.7 C 237 110.9 235.7 111.8 234.3 112.8 C 233.2 113.6 232.7 114.1 232.7 115 C 232.72 115.04 232.7 115.7 232.7 115.7 L 230.1 115.7 C 230.1 115.7 230.05 114.95 230.1 115 Z M 229.8 117.3 L 233 117.3 L 233 120.6 L 229.8 120.6 L 229.8 117.3 Z " stroke="none" fill="#000"/>  </g>  <g id="Polygon11224">    <path d="M 10.6 91.8 C 10.6 94.4 8.3 95.6 5.7 95.6 C 3.3 95.6 0.7 94.6 0.5 91.7 C 0.5 91.7 3.3 91.7 3.3 91.7 C 3.5 92.8 4.6 93.3 5.9 93.3 C 7 93.3 7.9 92.9 7.9 92.1 C 7.9 91.3 7.3 91.2 5.7 90.9 C 3.5 90.5 0.9 90.1 0.9 87.3 C 0.9 84.7 3.1 83.6 5.5 83.6 C 8.2 83.6 10.2 84.9 10.4 87.5 C 10.4 87.5 7.6 87.5 7.6 87.5 C 7.5 86.4 6.7 85.9 5.5 85.9 C 4.1 85.9 3.6 86.5 3.6 87.2 C 3.6 88.1 4.6 88.3 6 88.5 C 8.1 88.8 10.6 89.1 10.6 91.8 Z M 23.1 89.6 C 23.1 93.4 20.7 95.6 17.4 95.6 C 14.2 95.6 11.8 93.4 11.8 89.6 C 11.8 85.8 14.2 83.6 17.4 83.6 C 20.7 83.6 23.1 85.8 23.1 89.6 Z M 14.6 89.6 C 14.6 91.9 15.9 93 17.5 93 C 19.1 93 20.2 91.8 20.2 89.6 C 20.2 87.3 19 86.2 17.4 86.2 C 15.7 86.2 14.6 87.4 14.6 89.6 Z M 27.9 95.4 L 25.1 95.4 L 25.1 79.4 L 27.9 79.4 L 27.9 95.4 Z M 35.5 95.6 C 31.7 95.6 29.9 92.7 29.9 89.6 C 29.9 86.5 31.7 83.6 35.5 83.6 C 38.3 83.6 40.5 85.2 40.6 88 C 40.6 88 37.9 88 37.9 88 C 37.7 86.9 36.9 86.1 35.6 86.1 C 33.5 86.1 32.7 87.8 32.7 89.6 C 32.7 91.5 33.6 93 35.6 93 C 36.9 93 37.7 92.3 37.9 91.3 C 37.9 91.3 40.7 91.3 40.7 91.3 C 40.3 94.1 38.3 95.6 35.5 95.6 Z M 52.9 87.9 C 52.88 87.91 52.9 95.4 52.9 95.4 L 50.1 95.4 C 50.1 95.4 50.08 88.16 50.1 88.2 C 50.1 86.9 49.3 86.1 48 86.1 C 46.5 86.1 45.5 87.2 45.5 89.1 C 45.49 89.12 45.5 95.4 45.5 95.4 L 42.7 95.4 L 42.7 79.4 L 45.5 79.4 C 45.5 79.4 45.49 85.43 45.5 85.4 C 46.2 84.3 47.1 83.6 49 83.6 C 51.6 83.6 52.9 85.1 52.9 87.9 Z M 57.5 90.4 C 57.5 92.3 58.9 93.2 60.5 93.2 C 61.6 93.2 62.6 92.8 62.9 91.7 C 62.9 91.7 65.5 91.7 65.5 91.7 C 65 94.3 62.7 95.6 60.3 95.6 C 57.5 95.6 54.8 93.7 54.8 89.6 C 54.8 85.6 57.4 83.6 60.4 83.6 C 63.2 83.6 65.5 85.4 65.5 89.3 C 65.54 89.29 65.5 90.4 65.5 90.4 C 65.5 90.4 57.48 90.43 57.5 90.4 Z M 57.5 88.4 C 57.5 88.4 62.8 88.4 62.8 88.4 C 62.8 86.9 61.7 86 60.3 86 C 59 86 57.8 86.7 57.5 88.4 Z M 84.6 84.3 C 84.6 86.9 82.7 89.4 79.1 89.4 C 79.13 89.35 75.9 89.4 75.9 89.4 L 75.9 95.4 L 73 95.4 L 73 79.6 C 73 79.6 79.4 79.63 79.4 79.6 C 82.8 79.6 84.6 81.9 84.6 84.3 Z M 81.6 84.5 C 81.6 83.3 80.9 82.4 79.3 82.4 C 79.32 82.36 75.9 82.4 75.9 82.4 L 75.9 86.6 C 75.9 86.6 79.21 86.62 79.2 86.6 C 80.9 86.6 81.6 85.7 81.6 84.5 Z M 95 87.6 C 94.98 87.59 95 95.4 95 95.4 L 92.3 95.4 C 92.3 95.4 92.25 93.7 92.3 93.7 C 91.3 95.2 90 95.6 88.7 95.6 C 86.9 95.6 85 94.5 85 92 C 85 90.2 86 89 88.7 88.6 C 88.7 88.6 91.2 88.2 91.2 88.2 C 91.9 88.1 92.4 87.9 92.4 87.2 C 92.4 86.2 91.5 85.8 90.4 85.8 C 88.9 85.8 88.2 86.5 88.1 87.5 C 88.1 87.5 85.4 87.5 85.4 87.5 C 85.7 84.8 87.9 83.6 90.5 83.6 C 93.3 83.6 95 84.9 95 87.6 Z M 92.3 90.5 C 92.3 90.5 92.3 89.9 92.3 89.9 C 92 90 91.5 90.2 90.9 90.2 C 90.9 90.2 89.6 90.4 89.6 90.4 C 88.2 90.6 87.8 91.2 87.8 91.9 C 87.8 92.8 88.4 93.3 89.4 93.3 C 90.8 93.3 92.3 92.2 92.3 90.5 Z M 108.9 89.4 C 108.9 93.6 106.3 95.5 103.6 95.5 C 102 95.5 100.9 94.8 100.3 94 C 100.29 94 100.3 99.7 100.3 99.7 L 97.5 99.7 L 97.5 83.8 L 100.2 83.8 C 100.2 83.8 100.23 85.64 100.2 85.6 C 100.8 84.4 102.1 83.6 103.8 83.6 C 106.6 83.6 108.9 85.5 108.9 89.4 Z M 106 89.6 C 106 87.2 104.7 86.1 103.2 86.1 C 101.6 86.1 100.2 87.2 100.2 89.6 C 100.2 91.9 101.6 93 103.2 93 C 104.7 93 106 91.9 106 89.6 Z M 110.8 82.3 L 113.7 82.3 L 113.7 79.1 L 110.8 79.1 L 110.8 82.3 Z M 110.9 83.8 L 113.7 83.8 L 113.7 95.4 L 110.9 95.4 L 110.9 83.8 Z M 118.3 90.4 C 118.4 92.3 119.7 93.2 121.3 93.2 C 122.4 93.2 123.5 92.8 123.8 91.7 C 123.8 91.7 126.4 91.7 126.4 91.7 C 125.9 94.3 123.6 95.6 121.2 95.6 C 118.4 95.6 115.6 93.7 115.6 89.6 C 115.6 85.6 118.2 83.6 121.2 83.6 C 124 83.6 126.4 85.4 126.4 89.3 C 126.4 89.29 126.4 90.4 126.4 90.4 C 126.4 90.4 118.33 90.43 118.3 90.4 Z M 118.4 88.4 C 118.4 88.4 123.7 88.4 123.7 88.4 C 123.7 86.9 122.6 86 121.2 86 C 119.9 86 118.6 86.7 118.4 88.4 Z M 134.9 86.4 C 134.9 86.4 134.21 86.37 134.2 86.4 C 132.3 86.4 131.2 87.4 131.2 89.7 C 131.19 89.71 131.2 95.4 131.2 95.4 L 128.4 95.4 L 128.4 83.8 L 131.2 83.8 C 131.2 83.8 131.16 85.45 131.2 85.4 C 131.8 84.2 132.8 83.7 134.2 83.7 C 134.19 83.66 134.9 83.7 134.9 83.7 L 134.9 86.4 Z M 138.1 90.4 C 138.1 92.3 139.5 93.2 141.1 93.2 C 142.1 93.2 143.2 92.8 143.5 91.7 C 143.5 91.7 146.1 91.7 146.1 91.7 C 145.6 94.3 143.3 95.6 140.9 95.6 C 138.1 95.6 135.4 93.7 135.4 89.6 C 135.4 85.6 138 83.6 141 83.6 C 143.8 83.6 146.1 85.4 146.1 89.3 C 146.14 89.29 146.1 90.4 146.1 90.4 C 146.1 90.4 138.07 90.43 138.1 90.4 Z M 138.1 88.4 C 138.1 88.4 143.4 88.4 143.4 88.4 C 143.4 86.9 142.3 86 140.9 86 C 139.6 86 138.4 86.7 138.1 88.4 Z M 163.6 87.9 C 163.57 87.91 163.6 95.4 163.6 95.4 L 160.8 95.4 C 160.8 95.4 160.77 88.16 160.8 88.2 C 160.8 86.9 160 86.1 158.7 86.1 C 157.1 86.1 156.2 87.2 156.2 89.1 C 156.18 89.12 156.2 95.4 156.2 95.4 L 153.4 95.4 L 153.4 83.8 L 156.2 83.8 C 156.2 83.8 156.15 85.47 156.2 85.5 C 156.8 84.4 157.8 83.6 159.7 83.6 C 162.3 83.6 163.6 85.1 163.6 87.9 Z M 176.3 95.4 L 173.6 95.4 C 173.6 95.4 173.61 93.74 173.6 93.7 C 172.9 94.8 171.9 95.5 170.3 95.5 C 167.9 95.5 166.1 94 166.1 91 C 166.09 90.99 166.1 83.8 166.1 83.8 L 168.9 83.8 C 168.9 83.8 168.88 90.78 168.9 90.8 C 168.9 92.4 169.7 93 170.9 93 C 172.4 93 173.5 92.1 173.5 89.4 C 173.54 89.4 173.5 83.8 173.5 83.8 L 176.3 83.8 L 176.3 95.4 Z M 189.2 87.9 C 189.25 87.91 189.2 95.4 189.2 95.4 L 186.5 95.4 C 186.5 95.4 186.46 88.16 186.5 88.2 C 186.5 86.9 185.7 86.1 184.4 86.1 C 182.8 86.1 181.9 87.2 181.9 89.1 C 181.86 89.12 181.9 95.4 181.9 95.4 L 179.1 95.4 L 179.1 83.8 L 181.8 83.8 C 181.8 83.8 181.84 85.47 181.8 85.5 C 182.5 84.4 183.4 83.6 185.4 83.6 C 188 83.6 189.2 85.1 189.2 87.9 Z M 206.8 87.6 C 206.81 87.59 206.8 95.4 206.8 95.4 L 204.1 95.4 C 204.1 95.4 204.08 93.7 204.1 93.7 C 203.2 95.2 201.8 95.6 200.6 95.6 C 198.7 95.6 196.8 94.5 196.8 92 C 196.8 90.2 197.8 89 200.5 88.6 C 200.5 88.6 203 88.2 203 88.2 C 203.7 88.1 204.2 87.9 204.2 87.2 C 204.2 86.2 203.3 85.8 202.2 85.8 C 200.7 85.8 200.1 86.5 200 87.5 C 200 87.5 197.3 87.5 197.3 87.5 C 197.6 84.8 199.7 83.6 202.4 83.6 C 205.1 83.6 206.8 84.9 206.8 87.6 Z M 204.1 90.5 C 204.1 90.5 204.1 89.9 204.1 89.9 C 203.8 90 203.3 90.2 202.7 90.2 C 202.7 90.2 201.5 90.4 201.5 90.4 C 200.1 90.6 199.6 91.2 199.6 91.9 C 199.6 92.8 200.3 93.3 201.2 93.3 C 202.7 93.3 204.1 92.2 204.1 90.5 Z M 219.5 95.4 L 216.7 95.4 C 216.7 95.4 216.74 93.74 216.7 93.7 C 216.1 94.8 215 95.5 213.4 95.5 C 211 95.5 209.2 94 209.2 91 C 209.22 90.99 209.2 83.8 209.2 83.8 L 212 83.8 C 212 83.8 212.01 90.78 212 90.8 C 212 92.4 212.8 93 214 93 C 215.5 93 216.7 92.1 216.7 89.4 C 216.68 89.4 216.7 83.8 216.7 83.8 L 219.5 83.8 L 219.5 95.4 Z M 231.5 91.8 C 231.5 94.4 229.1 95.6 226.5 95.6 C 224.2 95.6 221.5 94.6 221.4 91.7 C 221.4 91.7 224.2 91.7 224.2 91.7 C 224.4 92.8 225.4 93.3 226.7 93.3 C 227.9 93.3 228.7 92.9 228.7 92.1 C 228.7 91.3 228.2 91.2 226.6 90.9 C 224.3 90.5 221.7 90.1 221.7 87.3 C 221.7 84.7 223.9 83.6 226.3 83.6 C 229 83.6 231 84.9 231.2 87.5 C 231.2 87.5 228.5 87.5 228.5 87.5 C 228.4 86.4 227.5 85.9 226.4 85.9 C 225 85.9 224.4 86.5 224.4 87.2 C 224.4 88.1 225.5 88.3 226.9 88.5 C 228.9 88.8 231.5 89.1 231.5 91.8 Z M 248.2 95.4 L 244.1 89.1 L 241.7 89.1 L 241.7 95.4 L 238.8 95.4 L 238.8 79.6 C 238.8 79.6 244.96 79.63 245 79.6 C 248.5 79.6 250.2 81.9 250.2 84.2 C 250.2 86 249.2 87.9 247.2 88.5 C 247.17 88.54 251.7 95.4 251.7 95.4 L 248.2 95.4 Z M 247.3 84.3 C 247.3 83.4 246.7 82.4 245.1 82.4 C 245.09 82.36 241.7 82.4 241.7 82.4 L 241.7 86.4 C 241.7 86.4 244.86 86.41 244.9 86.4 C 246.5 86.4 247.3 85.4 247.3 84.3 Z M 252.9 82.3 L 255.9 82.3 L 255.9 79.1 L 252.9 79.1 L 252.9 82.3 Z M 253 83.8 L 255.8 83.8 L 255.8 95.4 L 253 95.4 L 253 83.8 Z M 267.8 91.8 C 267.8 94.4 265.5 95.6 262.9 95.6 C 260.5 95.6 257.9 94.6 257.7 91.7 C 257.7 91.7 260.5 91.7 260.5 91.7 C 260.7 92.8 261.7 93.3 263 93.3 C 264.2 93.3 265 92.9 265 92.1 C 265 91.3 264.5 91.2 262.9 90.9 C 260.6 90.5 258 90.1 258 87.3 C 258 84.7 260.2 83.6 262.6 83.6 C 265.3 83.6 267.3 84.9 267.5 87.5 C 267.5 87.5 264.8 87.5 264.8 87.5 C 264.7 86.4 263.8 85.9 262.7 85.9 C 261.3 85.9 260.7 86.5 260.7 87.2 C 260.7 88.1 261.8 88.3 263.2 88.5 C 265.2 88.8 267.8 89.1 267.8 91.8 Z M 269.6 82.3 L 272.5 82.3 L 272.5 79.1 L 269.6 79.1 L 269.6 82.3 Z M 269.6 83.8 L 272.4 83.8 L 272.4 95.4 L 269.6 95.4 L 269.6 83.8 Z M 279.3 90.9 L 277.9 92.3 L 277.9 95.4 L 275.1 95.4 L 275.1 79.4 L 277.9 79.4 L 277.9 88.5 L 282.1 83.8 L 285.7 83.8 L 281.2 88.8 L 285.9 95.4 L 282.4 95.4 L 279.3 90.9 Z M 297.4 89.6 C 297.4 93.4 295 95.6 291.7 95.6 C 288.5 95.6 286.1 93.4 286.1 89.6 C 286.1 85.8 288.5 83.6 291.7 83.6 C 295 83.6 297.4 85.8 297.4 89.6 Z M 289 89.6 C 289 91.9 290.2 93 291.8 93 C 293.4 93 294.6 91.8 294.6 89.6 C 294.6 87.3 293.3 86.2 291.7 86.2 C 290.1 86.2 289 87.4 289 89.6 Z M 307 78 L 305 78 L 298 97.3 L 300.1 97.3 L 307 78 Z " stroke="none" fill="#000"/>  </g>  <g id="Polygon11223">    <path d="M 13.5 70.2 L 0.8 70.2 L 0.8 67.4 L 9.4 57.2 L 1.1 57.2 L 1.1 54.4 L 13 54.4 L 13 57.2 L 4.5 67.4 L 13.5 67.4 L 13.5 70.2 Z M 24.7 62.4 C 24.74 62.39 24.7 70.2 24.7 70.2 L 22 70.2 C 22 70.2 22.01 68.5 22 68.5 C 21.1 70 19.7 70.4 18.5 70.4 C 16.7 70.4 14.7 69.3 14.7 66.8 C 14.7 65 15.8 63.8 18.4 63.4 C 18.4 63.4 20.9 63 20.9 63 C 21.6 62.9 22.1 62.7 22.1 62 C 22.1 61 21.3 60.6 20.2 60.6 C 18.7 60.6 18 61.3 17.9 62.3 C 17.9 62.3 15.2 62.3 15.2 62.3 C 15.5 59.6 17.7 58.4 20.3 58.4 C 23 58.4 24.7 59.7 24.7 62.4 Z M 22 65.3 C 22 65.3 22 64.7 22 64.7 C 21.8 64.8 21.2 65 20.7 65 C 20.7 65 19.4 65.2 19.4 65.2 C 18 65.4 17.5 66 17.5 66.7 C 17.5 67.6 18.2 68.1 19.2 68.1 C 20.6 68.1 22 67 22 65.3 Z M 37.4 62.7 C 37.44 62.71 37.4 70.2 37.4 70.2 L 34.6 70.2 C 34.6 70.2 34.65 62.96 34.6 63 C 34.6 61.7 33.9 60.9 32.6 60.9 C 31 60.9 30.1 62 30.1 63.9 C 30.05 63.92 30.1 70.2 30.1 70.2 L 27.3 70.2 L 27.3 54.2 L 30.1 54.2 C 30.1 54.2 30.05 60.23 30.1 60.2 C 30.7 59.1 31.7 58.4 33.6 58.4 C 36.2 58.4 37.4 59.9 37.4 62.7 Z M 42.9 70.2 L 40.1 70.2 L 40.1 54.2 L 42.9 54.2 L 42.9 70.2 Z M 55.7 70.2 L 53 70.2 C 53 70.2 53 68.54 53 68.5 C 52.3 69.6 51.3 70.3 49.7 70.3 C 47.2 70.3 45.5 68.8 45.5 65.8 C 45.49 65.79 45.5 58.6 45.5 58.6 L 48.3 58.6 C 48.3 58.6 48.28 65.58 48.3 65.6 C 48.3 67.2 49.1 67.8 50.3 67.8 C 51.8 67.8 52.9 66.9 52.9 64.2 C 52.94 64.2 52.9 58.6 52.9 58.6 L 55.7 58.6 L 55.7 70.2 Z M 68.6 62.7 C 68.65 62.71 68.6 70.2 68.6 70.2 L 65.9 70.2 C 65.9 70.2 65.85 62.96 65.9 63 C 65.9 61.7 65.1 60.9 63.8 60.9 C 62.2 60.9 61.3 62 61.3 63.9 C 61.26 63.92 61.3 70.2 61.3 70.2 L 58.5 70.2 L 58.5 58.6 L 61.2 58.6 C 61.2 58.6 61.23 60.27 61.2 60.3 C 61.9 59.2 62.8 58.4 64.8 58.4 C 67.4 58.4 68.6 59.9 68.6 62.7 Z M 81.7 69.4 C 81.7 73.1 79.3 74.8 76.2 74.8 C 73.4 74.8 71 73.4 70.7 70.5 C 70.7 70.5 73.4 70.5 73.4 70.5 C 73.7 72 74.9 72.4 76.2 72.4 C 78 72.4 79 71.5 79 69.7 C 79 69.7 79 67.8 79 67.8 C 78.5 69 77.4 69.8 75.6 69.8 C 73 69.8 70.5 68 70.5 64.1 C 70.5 60.2 73 58.4 75.6 58.4 C 77.3 58.4 78.4 59.1 79 60.2 C 79.02 60.21 79 58.6 79 58.6 L 81.7 58.6 C 81.7 58.6 81.71 69.4 81.7 69.4 Z M 78.9 64.1 C 78.9 61.9 77.7 60.8 76.2 60.8 C 74.7 60.8 73.3 61.9 73.3 64.1 C 73.3 66.3 74.7 67.3 76.2 67.3 C 77.7 67.3 78.9 66.3 78.9 64.1 Z M 93.6 66.6 C 93.6 69.2 91.3 70.4 88.7 70.4 C 86.3 70.4 83.7 69.4 83.5 66.5 C 83.5 66.5 86.3 66.5 86.3 66.5 C 86.5 67.6 87.5 68.1 88.8 68.1 C 90 68.1 90.8 67.7 90.8 66.9 C 90.8 66.1 90.3 66 88.7 65.7 C 86.4 65.3 83.9 64.9 83.9 62.1 C 83.9 59.5 86.1 58.4 88.5 58.4 C 91.2 58.4 93.2 59.7 93.3 62.3 C 93.3 62.3 90.6 62.3 90.6 62.3 C 90.5 61.2 89.7 60.7 88.5 60.7 C 87.1 60.7 86.6 61.3 86.6 62 C 86.6 62.9 87.6 63.1 89 63.3 C 91.1 63.6 93.6 63.9 93.6 66.6 Z M 104.7 62.4 C 104.75 62.39 104.7 70.2 104.7 70.2 L 102 70.2 C 102 70.2 102.02 68.5 102 68.5 C 101.1 70 99.7 70.4 98.5 70.4 C 96.7 70.4 94.8 69.3 94.8 66.8 C 94.8 65 95.8 63.8 98.4 63.4 C 98.4 63.4 100.9 63 100.9 63 C 101.6 62.9 102.1 62.7 102.1 62 C 102.1 61 101.3 60.6 100.2 60.6 C 98.7 60.6 98 61.3 97.9 62.3 C 97.9 62.3 95.2 62.3 95.2 62.3 C 95.5 59.6 97.7 58.4 100.3 58.4 C 103 58.4 104.7 59.7 104.7 62.4 Z M 102 65.3 C 102 65.3 102 64.7 102 64.7 C 101.8 64.8 101.2 65 100.7 65 C 100.7 65 99.4 65.2 99.4 65.2 C 98 65.4 97.5 66 97.5 66.7 C 97.5 67.6 98.2 68.1 99.2 68.1 C 100.6 68.1 102 67 102 65.3 Z M 117.4 70.2 L 114.7 70.2 C 114.7 70.2 114.68 68.54 114.7 68.5 C 114 69.6 113 70.3 111.3 70.3 C 108.9 70.3 107.2 68.8 107.2 65.8 C 107.16 65.79 107.2 58.6 107.2 58.6 L 110 58.6 C 110 58.6 109.95 65.58 110 65.6 C 110 67.2 110.7 67.8 111.9 67.8 C 113.5 67.8 114.6 66.9 114.6 64.2 C 114.62 64.2 114.6 58.6 114.6 58.6 L 117.4 58.6 L 117.4 70.2 Z M 129.4 66.6 C 129.4 69.2 127.1 70.4 124.5 70.4 C 122.1 70.4 119.5 69.4 119.3 66.5 C 119.3 66.5 122.1 66.5 122.1 66.5 C 122.3 67.6 123.3 68.1 124.6 68.1 C 125.8 68.1 126.6 67.7 126.6 66.9 C 126.6 66.1 126.1 66 124.5 65.7 C 122.2 65.3 119.7 64.9 119.7 62.1 C 119.7 59.5 121.9 58.4 124.3 58.4 C 127 58.4 129 59.7 129.1 62.3 C 129.1 62.3 126.4 62.3 126.4 62.3 C 126.3 61.2 125.5 60.7 124.3 60.7 C 122.9 60.7 122.4 61.3 122.4 62 C 122.4 62.9 123.4 63.1 124.8 63.3 C 126.9 63.6 129.4 63.9 129.4 66.6 Z M 135.6 56.7 C 134.6 56.7 134.4 57.1 134.4 57.8 C 134.44 57.83 134.4 58.6 134.4 58.6 L 136.6 58.6 L 136.6 61.1 L 134.4 61.1 L 134.4 70.2 L 131.6 70.2 L 131.6 61.1 L 129.9 61.1 L 129.9 58.6 L 131.6 58.6 C 131.6 58.6 131.65 57.96 131.6 58 C 131.6 54.9 133 54.2 135.2 54.2 C 135.2 54.18 136.9 54.2 136.9 54.2 L 136.9 56.7 C 136.9 56.7 135.62 56.66 135.6 56.7 Z M 139.6 54 L 142 54 L 142 56.5 L 139.6 56.5 L 139.6 54 Z M 144 54 L 146.4 54 L 146.4 56.5 L 144 56.5 L 144 54 Z M 147.5 62.4 C 147.5 62.39 147.5 70.2 147.5 70.2 L 144.8 70.2 C 144.8 70.2 144.77 68.5 144.8 68.5 C 143.9 70 142.5 70.4 141.3 70.4 C 139.4 70.4 137.5 69.3 137.5 66.8 C 137.5 65 138.5 63.8 141.2 63.4 C 141.2 63.4 143.7 63 143.7 63 C 144.4 62.9 144.9 62.7 144.9 62 C 144.9 61 144 60.6 142.9 60.6 C 141.4 60.6 140.8 61.3 140.7 62.3 C 140.7 62.3 138 62.3 138 62.3 C 138.3 59.6 140.4 58.4 143 58.4 C 145.8 58.4 147.5 59.7 147.5 62.4 Z M 144.8 65.3 C 144.8 65.3 144.8 64.7 144.8 64.7 C 144.5 64.8 144 65 143.4 65 C 143.4 65 142.2 65.2 142.2 65.2 C 140.8 65.4 140.3 66 140.3 66.7 C 140.3 67.6 140.9 68.1 141.9 68.1 C 143.4 68.1 144.8 67 144.8 65.3 Z M 152.8 70.2 L 150 70.2 L 150 54.2 L 152.8 54.2 L 152.8 70.2 Z M 158.3 70.2 L 155.5 70.2 L 155.5 54.2 L 158.3 54.2 L 158.3 70.2 Z M 163 65.2 C 163.1 67.1 164.4 68 166 68 C 167.1 68 168.2 67.6 168.5 66.5 C 168.5 66.5 171.1 66.5 171.1 66.5 C 170.6 69.1 168.3 70.4 165.9 70.4 C 163.1 70.4 160.3 68.5 160.3 64.4 C 160.3 60.4 163 58.4 165.9 58.4 C 168.7 58.4 171.1 60.2 171.1 64.1 C 171.1 64.09 171.1 65.2 171.1 65.2 C 171.1 65.2 163.04 65.23 163 65.2 Z M 163.1 63.2 C 163.1 63.2 168.4 63.2 168.4 63.2 C 168.4 61.7 167.3 60.8 165.9 60.8 C 164.6 60.8 163.4 61.5 163.1 63.2 Z M 189.7 64.4 C 189.7 68.5 187.2 70.4 184.5 70.4 C 183.1 70.4 181.8 69.9 181.1 68.8 C 181.08 68.8 181.1 70.2 181.1 70.2 L 178.3 70.2 L 178.3 54.2 L 181.1 54.2 C 181.1 54.2 181.14 60.29 181.1 60.3 C 181.8 59.1 183.1 58.4 184.7 58.4 C 187.4 58.4 189.7 60.4 189.7 64.4 Z M 186.9 64.4 C 186.9 62.1 185.5 60.9 184 60.9 C 182.5 60.9 181.1 62.1 181.1 64.4 C 181.1 66.8 182.5 68 184 68 C 185.5 68 186.9 66.8 186.9 64.4 Z M 194.5 70.2 L 191.7 70.2 L 191.7 54.2 L 194.5 54.2 L 194.5 70.2 Z M 197.1 57.1 L 200.1 57.1 L 200.1 53.9 L 197.1 53.9 L 197.1 57.1 Z M 197.2 58.6 L 200 58.6 L 200 70.2 L 197.2 70.2 L 197.2 58.6 Z M 204.7 65.2 C 204.8 67.1 206.1 68 207.7 68 C 208.8 68 209.8 67.6 210.2 66.5 C 210.2 66.5 212.7 66.5 212.7 66.5 C 212.2 69.1 209.9 70.4 207.6 70.4 C 204.8 70.4 202 68.5 202 64.4 C 202 60.4 204.6 58.4 207.6 58.4 C 210.4 58.4 212.8 60.2 212.8 64.1 C 212.77 64.09 212.8 65.2 212.8 65.2 C 212.8 65.2 204.7 65.23 204.7 65.2 Z M 204.8 63.2 C 204.8 63.2 210 63.2 210 63.2 C 210 61.7 209 60.8 207.5 60.8 C 206.3 60.8 205 61.5 204.8 63.2 Z M 226.1 64.4 C 226.1 68.5 223.6 70.4 220.9 70.4 C 219.5 70.4 218.2 69.9 217.5 68.8 C 217.49 68.8 217.5 70.2 217.5 70.2 L 214.8 70.2 L 214.8 54.2 L 217.6 54.2 C 217.6 54.2 217.56 60.29 217.6 60.3 C 218.2 59.1 219.5 58.4 221.1 58.4 C 223.8 58.4 226.1 60.4 226.1 64.4 Z M 223.3 64.4 C 223.3 62.1 221.9 60.9 220.4 60.9 C 218.9 60.9 217.5 62.1 217.5 64.4 C 217.5 66.8 218.9 68 220.4 68 C 221.9 68 223.3 66.8 223.3 64.4 Z M 230.1 65.2 C 230.2 67.1 231.5 68 233.1 68 C 234.2 68 235.2 67.6 235.6 66.5 C 235.6 66.5 238.1 66.5 238.1 66.5 C 237.6 69.1 235.3 70.4 233 70.4 C 230.2 70.4 227.4 68.5 227.4 64.4 C 227.4 60.4 230 58.4 233 58.4 C 235.8 58.4 238.2 60.2 238.2 64.1 C 238.18 64.09 238.2 65.2 238.2 65.2 C 238.2 65.2 230.11 65.23 230.1 65.2 Z M 230.2 63.2 C 230.2 63.2 235.4 63.2 235.4 63.2 C 235.4 61.7 234.4 60.8 232.9 60.8 C 231.7 60.8 230.4 61.5 230.2 63.2 Z M 250.4 62.7 C 250.36 62.71 250.4 70.2 250.4 70.2 L 247.6 70.2 C 247.6 70.2 247.56 62.96 247.6 63 C 247.6 61.7 246.8 60.9 245.5 60.9 C 243.9 60.9 243 62 243 63.9 C 242.97 63.92 243 70.2 243 70.2 L 240.2 70.2 L 240.2 58.6 L 242.9 58.6 C 242.9 58.6 242.94 60.27 242.9 60.3 C 243.6 59.2 244.5 58.4 246.5 58.4 C 249.1 58.4 250.4 59.9 250.4 62.7 Z M 267.9 62.4 C 267.91 62.39 267.9 70.2 267.9 70.2 L 265.2 70.2 C 265.2 70.2 265.18 68.5 265.2 68.5 C 264.3 70 262.9 70.4 261.7 70.4 C 259.8 70.4 257.9 69.3 257.9 66.8 C 257.9 65 258.9 63.8 261.6 63.4 C 261.6 63.4 264.1 63 264.1 63 C 264.8 62.9 265.3 62.7 265.3 62 C 265.3 61 264.4 60.6 263.3 60.6 C 261.8 60.6 261.2 61.3 261.1 62.3 C 261.1 62.3 258.4 62.3 258.4 62.3 C 258.7 59.6 260.8 58.4 263.5 58.4 C 266.2 58.4 267.9 59.7 267.9 62.4 Z M 265.2 65.3 C 265.2 65.3 265.2 64.7 265.2 64.7 C 264.9 64.8 264.4 65 263.8 65 C 263.8 65 262.6 65.2 262.6 65.2 C 261.2 65.4 260.7 66 260.7 66.7 C 260.7 67.6 261.4 68.1 262.3 68.1 C 263.8 68.1 265.2 67 265.2 65.3 Z M 280.6 70.2 L 277.8 70.2 C 277.8 70.2 277.85 68.54 277.8 68.5 C 277.2 69.6 276.1 70.3 274.5 70.3 C 272.1 70.3 270.3 68.8 270.3 65.8 C 270.33 65.79 270.3 58.6 270.3 58.6 L 273.1 58.6 C 273.1 58.6 273.12 65.58 273.1 65.6 C 273.1 67.2 273.9 67.8 275.1 67.8 C 276.6 67.8 277.8 66.9 277.8 64.2 C 277.78 64.2 277.8 58.6 277.8 58.6 L 280.6 58.6 L 280.6 70.2 Z M 292.6 66.6 C 292.6 69.2 290.3 70.4 287.7 70.4 C 285.3 70.4 282.7 69.4 282.5 66.5 C 282.5 66.5 285.3 66.5 285.3 66.5 C 285.5 67.6 286.5 68.1 287.8 68.1 C 289 68.1 289.8 67.7 289.8 66.9 C 289.8 66.1 289.3 66 287.7 65.7 C 285.4 65.3 282.8 64.9 282.8 62.1 C 282.8 59.5 285 58.4 287.4 58.4 C 290.1 58.4 292.1 59.7 292.3 62.3 C 292.3 62.3 289.6 62.3 289.6 62.3 C 289.5 61.2 288.6 60.7 287.5 60.7 C 286.1 60.7 285.5 61.3 285.5 62 C 285.5 62.9 286.6 63.1 288 63.3 C 290 63.6 292.6 63.9 292.6 66.6 Z M 299 65.8 L 299 63.4 L 309.5 63.4 L 309.5 65.8 L 299 65.8 Z M 326 66.6 C 326 69.2 323.7 70.4 321.1 70.4 C 318.7 70.4 316.1 69.4 315.9 66.5 C 315.9 66.5 318.7 66.5 318.7 66.5 C 318.9 67.6 319.9 68.1 321.2 68.1 C 322.4 68.1 323.2 67.7 323.2 66.9 C 323.2 66.1 322.7 66 321.1 65.7 C 318.8 65.3 316.2 64.9 316.2 62.1 C 316.2 59.5 318.4 58.4 320.8 58.4 C 323.5 58.4 325.5 59.7 325.7 62.3 C 325.7 62.3 323 62.3 323 62.3 C 322.9 61.2 322.1 60.7 320.9 60.7 C 319.5 60.7 318.9 61.3 318.9 62 C 318.9 62.9 320 63.1 321.4 63.3 C 323.5 63.6 326 63.9 326 66.6 Z M 327.8 57.1 L 330.7 57.1 L 330.7 53.9 L 327.8 53.9 L 327.8 57.1 Z M 327.8 58.6 L 330.6 58.6 L 330.6 70.2 L 327.8 70.2 L 327.8 58.6 Z M 343.5 62.7 C 343.53 62.71 343.5 70.2 343.5 70.2 L 340.7 70.2 C 340.7 70.2 340.74 62.96 340.7 63 C 340.7 61.7 340 60.9 338.7 60.9 C 337.1 60.9 336.1 62 336.1 63.9 C 336.14 63.92 336.1 70.2 336.1 70.2 L 333.3 70.2 L 333.3 58.6 L 336.1 58.6 C 336.1 58.6 336.12 60.27 336.1 60.3 C 336.8 59.2 337.7 58.4 339.6 58.4 C 342.3 58.4 343.5 59.9 343.5 62.7 Z M 356.8 70.2 L 354.1 70.2 C 354.1 70.2 354.08 68.4 354.1 68.4 C 353.4 69.7 352.1 70.4 350.5 70.4 C 347.8 70.4 345.4 68.4 345.4 64.4 C 345.4 60.4 347.8 58.4 350.5 58.4 C 352 58.4 353.3 59 354 60.1 C 354.01 60.12 354 54.2 354 54.2 L 356.8 54.2 L 356.8 70.2 Z M 354.1 64.4 C 354.1 62 352.7 60.9 351.2 60.9 C 349.6 60.9 348.3 62 348.3 64.4 C 348.3 66.7 349.6 67.9 351.2 67.9 C 352.7 67.9 354.1 66.7 354.1 64.4 Z " stroke="none" fill="#000"/>  </g>  <g id="Polygon11222">    <path d="M 11.5 41.5 L 4.8 41.5 L 3.5 45 L 0.4 45 L 6.5 29.2 L 9.7 29.2 L 16 45 L 12.8 45 L 11.5 41.5 Z M 10.4 38.7 L 8.1 32.5 L 5.8 38.7 L 10.4 38.7 Z M 28 37.5 C 27.97 37.51 28 45 28 45 L 25.2 45 C 25.2 45 25.18 37.76 25.2 37.8 C 25.2 36.5 24.4 35.7 23.1 35.7 C 21.5 35.7 20.6 36.8 20.6 38.7 C 20.58 38.72 20.6 45 20.6 45 L 17.8 45 L 17.8 33.4 L 20.6 33.4 C 20.6 33.4 20.56 35.07 20.6 35.1 C 21.2 34 22.2 33.2 24.1 33.2 C 26.7 33.2 28 34.7 28 37.5 Z M 33.4 45 L 30.6 45 L 30.6 29 L 33.4 29 L 33.4 45 Z M 38.1 40 C 38.2 41.9 39.5 42.8 41.1 42.8 C 42.2 42.8 43.2 42.4 43.6 41.3 C 43.6 41.3 46.1 41.3 46.1 41.3 C 45.6 43.9 43.3 45.2 40.9 45.2 C 38.2 45.2 35.4 43.3 35.4 39.2 C 35.4 35.2 38 33.2 41 33.2 C 43.8 33.2 46.2 35 46.2 38.9 C 46.16 38.89 46.2 40 46.2 40 C 46.2 40 38.09 40.03 38.1 40 Z M 38.2 38 C 38.2 38 43.4 38 43.4 38 C 43.4 36.5 42.4 35.6 40.9 35.6 C 39.6 35.6 38.4 36.3 38.2 38 Z M 48 31.9 L 51 31.9 L 51 28.7 L 48 28.7 L 48 31.9 Z M 48.1 33.4 L 50.9 33.4 L 50.9 45 L 48.1 45 L 48.1 33.4 Z M 63.8 37.5 C 63.82 37.51 63.8 45 63.8 45 L 61 45 C 61 45 61.03 37.76 61 37.8 C 61 36.5 60.3 35.7 59 35.7 C 57.4 35.7 56.4 36.8 56.4 38.7 C 56.43 38.72 56.4 45 56.4 45 L 53.6 45 L 53.6 29 L 56.4 29 C 56.4 29 56.43 35.03 56.4 35 C 57.1 33.9 58.1 33.2 59.9 33.2 C 62.6 33.2 63.8 34.7 63.8 37.5 Z M 68.4 40 C 68.5 41.9 69.8 42.8 71.4 42.8 C 72.5 42.8 73.5 42.4 73.9 41.3 C 73.9 41.3 76.4 41.3 76.4 41.3 C 75.9 43.9 73.6 45.2 71.3 45.2 C 68.5 45.2 65.7 43.3 65.7 39.2 C 65.7 35.2 68.3 33.2 71.3 33.2 C 74.1 33.2 76.5 35 76.5 38.9 C 76.48 38.89 76.5 40 76.5 40 C 76.5 40 68.42 40.03 68.4 40 Z M 68.5 38 C 68.5 38 73.8 38 73.8 38 C 73.8 36.5 72.7 35.6 71.3 35.6 C 70 35.6 68.7 36.3 68.5 38 Z M 88.7 37.5 C 88.66 37.51 88.7 45 88.7 45 L 85.9 45 C 85.9 45 85.87 37.76 85.9 37.8 C 85.9 36.5 85.1 35.7 83.8 35.7 C 82.2 35.7 81.3 36.8 81.3 38.7 C 81.27 38.72 81.3 45 81.3 45 L 78.5 45 L 78.5 33.4 L 81.2 33.4 C 81.2 33.4 81.25 35.07 81.2 35.1 C 81.9 34 82.8 33.2 84.8 33.2 C 87.4 33.2 88.7 34.7 88.7 37.5 Z M 102.4 45 L 99.5 45 L 95.2 33.4 L 98.1 33.4 L 101 41.7 L 103.8 33.4 L 106.7 33.4 L 102.4 45 Z M 109.8 40 C 109.9 41.9 111.3 42.8 112.8 42.8 C 113.9 42.8 115 42.4 115.3 41.3 C 115.3 41.3 117.9 41.3 117.9 41.3 C 117.4 43.9 115.1 45.2 112.7 45.2 C 109.9 45.2 107.1 43.3 107.1 39.2 C 107.1 35.2 109.8 33.2 112.7 33.2 C 115.5 33.2 117.9 35 117.9 38.9 C 117.91 38.89 117.9 40 117.9 40 C 117.9 40 109.85 40.03 109.8 40 Z M 109.9 38 C 109.9 38 115.2 38 115.2 38 C 115.2 36.5 114.1 35.6 112.7 35.6 C 111.4 35.6 110.2 36.3 109.9 38 Z M 126.5 36 C 126.5 36 125.73 35.97 125.7 36 C 123.8 36 122.7 37 122.7 39.3 C 122.7 39.31 122.7 45 122.7 45 L 119.9 45 L 119.9 33.4 L 122.7 33.4 C 122.7 33.4 122.68 35.05 122.7 35 C 123.3 33.8 124.3 33.3 125.7 33.3 C 125.7 33.26 126.5 33.3 126.5 33.3 L 126.5 36 Z M 129.6 40 C 129.7 41.9 131 42.8 132.6 42.8 C 133.7 42.8 134.7 42.4 135 41.3 C 135 41.3 137.6 41.3 137.6 41.3 C 137.1 43.9 134.8 45.2 132.4 45.2 C 129.7 45.2 126.9 43.3 126.9 39.2 C 126.9 35.2 129.5 33.2 132.5 33.2 C 135.3 33.2 137.7 35 137.7 38.9 C 137.65 38.89 137.7 40 137.7 40 C 137.7 40 129.59 40.03 129.6 40 Z M 129.7 38 C 129.7 38 134.9 38 134.9 38 C 134.9 36.5 133.9 35.6 132.4 35.6 C 131.1 35.6 129.9 36.3 129.7 38 Z M 149.8 37.5 C 149.83 37.51 149.8 45 149.8 45 L 147 45 C 147 45 147.04 37.76 147 37.8 C 147 36.5 146.3 35.7 145 35.7 C 143.4 35.7 142.4 36.8 142.4 38.7 C 142.44 38.72 142.4 45 142.4 45 L 139.6 45 L 139.6 33.4 L 142.4 33.4 C 142.4 33.4 142.42 35.07 142.4 35.1 C 143.1 34 144 33.2 145.9 33.2 C 148.6 33.2 149.8 34.7 149.8 37.5 Z M 162.9 44.2 C 162.9 47.9 160.5 49.6 157.4 49.6 C 154.6 49.6 152.2 48.2 151.9 45.3 C 151.9 45.3 154.6 45.3 154.6 45.3 C 154.9 46.8 156.1 47.2 157.4 47.2 C 159.2 47.2 160.2 46.3 160.2 44.5 C 160.2 44.5 160.2 42.6 160.2 42.6 C 159.7 43.8 158.5 44.6 156.8 44.6 C 154.2 44.6 151.7 42.8 151.7 38.9 C 151.7 35 154.2 33.2 156.8 33.2 C 158.4 33.2 159.6 33.9 160.2 35 C 160.21 35.01 160.2 33.4 160.2 33.4 L 162.9 33.4 C 162.9 33.4 162.89 44.2 162.9 44.2 Z M 160.1 38.9 C 160.1 36.7 158.9 35.6 157.4 35.6 C 155.8 35.6 154.5 36.7 154.5 38.9 C 154.5 41.1 155.8 42.1 157.4 42.1 C 158.9 42.1 160.1 41.1 160.1 38.9 Z M 171.4 45 C 171.4 45 169.61 44.98 169.6 45 C 167.5 45 166.1 44.3 166.1 41.2 C 166.07 41.2 166.1 35.9 166.1 35.9 L 163.9 35.9 L 163.9 33.4 L 166.1 33.4 L 166.1 30.8 L 168.9 30 L 168.9 33.4 L 171.2 33.4 L 171.2 35.9 L 168.9 35.9 C 168.9 35.9 168.86 41.33 168.9 41.3 C 168.9 42 169 42.5 170 42.5 C 170.03 42.5 171.4 42.5 171.4 42.5 L 171.4 45 Z M 175 40 C 175.1 41.9 176.4 42.8 178 42.8 C 179.1 42.8 180.1 42.4 180.5 41.3 C 180.5 41.3 183 41.3 183 41.3 C 182.5 43.9 180.2 45.2 177.8 45.2 C 175.1 45.2 172.3 43.3 172.3 39.2 C 172.3 35.2 174.9 33.2 177.9 33.2 C 180.7 33.2 183.1 35 183.1 38.9 C 183.05 38.89 183.1 40 183.1 40 C 183.1 40 174.99 40.03 175 40 Z M 175.1 38 C 175.1 38 180.3 38 180.3 38 C 180.3 36.5 179.3 35.6 177.8 35.6 C 176.5 35.6 175.3 36.3 175.1 38 Z M 195.2 37.5 C 195.23 37.51 195.2 45 195.2 45 L 192.4 45 C 192.4 45 192.44 37.76 192.4 37.8 C 192.4 36.5 191.7 35.7 190.4 35.7 C 188.8 35.7 187.8 36.8 187.8 38.7 C 187.84 38.72 187.8 45 187.8 45 L 185 45 L 185 33.4 L 187.8 33.4 C 187.8 33.4 187.82 35.07 187.8 35.1 C 188.5 34 189.4 33.2 191.3 33.2 C 194 33.2 195.2 34.7 195.2 37.5 Z M 212.4 41.4 C 212.4 44 210.1 45.2 207.5 45.2 C 205.1 45.2 202.5 44.2 202.3 41.3 C 202.3 41.3 205.1 41.3 205.1 41.3 C 205.3 42.4 206.3 42.9 207.6 42.9 C 208.8 42.9 209.6 42.5 209.6 41.7 C 209.6 40.9 209.1 40.8 207.5 40.5 C 205.2 40.1 202.6 39.7 202.6 36.9 C 202.6 34.3 204.8 33.2 207.2 33.2 C 209.9 33.2 211.9 34.5 212.1 37.1 C 212.1 37.1 209.4 37.1 209.4 37.1 C 209.3 36 208.4 35.5 207.3 35.5 C 205.9 35.5 205.3 36.1 205.3 36.8 C 205.3 37.7 206.4 37.9 207.8 38.1 C 209.9 38.4 212.4 38.7 212.4 41.4 Z M 214.2 31.9 L 217.1 31.9 L 217.1 28.7 L 214.2 28.7 L 214.2 31.9 Z M 214.2 33.4 L 217 33.4 L 217 45 L 214.2 45 L 214.2 33.4 Z M 224.6 45.2 C 220.8 45.2 219 42.3 219 39.2 C 219 36.1 220.8 33.2 224.6 33.2 C 227.5 33.2 229.6 34.8 229.7 37.6 C 229.7 37.6 227 37.6 227 37.6 C 226.9 36.5 226.1 35.7 224.7 35.7 C 222.7 35.7 221.8 37.4 221.8 39.2 C 221.8 41.1 222.7 42.6 224.7 42.6 C 226 42.6 226.8 41.9 227 40.9 C 227 40.9 229.8 40.9 229.8 40.9 C 229.4 43.7 227.4 45.2 224.6 45.2 Z M 242 37.5 C 242 37.51 242 45 242 45 L 239.2 45 C 239.2 45 239.21 37.76 239.2 37.8 C 239.2 36.5 238.5 35.7 237.2 35.7 C 235.6 35.7 234.6 36.8 234.6 38.7 C 234.61 38.72 234.6 45 234.6 45 L 231.8 45 L 231.8 29 L 234.6 29 C 234.6 29 234.61 35.03 234.6 35 C 235.3 33.9 236.3 33.2 238.1 33.2 C 240.8 33.2 242 34.7 242 37.5 Z M 260.4 45 L 257.7 45 C 257.7 45 257.71 43.34 257.7 43.3 C 257 44.4 256 45.1 254.4 45.1 C 252 45.1 250.2 43.6 250.2 40.6 C 250.19 40.59 250.2 33.4 250.2 33.4 L 253 33.4 C 253 33.4 252.98 40.38 253 40.4 C 253 42 253.8 42.6 255 42.6 C 256.5 42.6 257.6 41.7 257.6 39 C 257.65 39 257.6 33.4 257.6 33.4 L 260.4 33.4 L 260.4 45 Z M 273.4 37.5 C 273.35 37.51 273.4 45 273.4 45 L 270.6 45 C 270.6 45 270.56 37.76 270.6 37.8 C 270.6 36.5 269.8 35.7 268.5 35.7 C 266.9 35.7 266 36.8 266 38.7 C 265.96 38.72 266 45 266 45 L 263.2 45 L 263.2 33.4 L 265.9 33.4 C 265.9 33.4 265.94 35.07 265.9 35.1 C 266.6 34 267.5 33.2 269.5 33.2 C 272.1 33.2 273.4 34.7 273.4 37.5 Z M 286.6 45 L 283.9 45 C 283.9 45 283.89 43.2 283.9 43.2 C 283.3 44.5 281.9 45.2 280.3 45.2 C 277.6 45.2 275.2 43.2 275.2 39.2 C 275.2 35.2 277.6 33.2 280.3 33.2 C 281.8 33.2 283.1 33.8 283.8 34.9 C 283.83 34.92 283.8 29 283.8 29 L 286.6 29 L 286.6 45 Z M 283.9 39.2 C 283.9 36.8 282.5 35.7 281 35.7 C 279.5 35.7 278.1 36.8 278.1 39.2 C 278.1 41.5 279.5 42.7 281 42.7 C 282.5 42.7 283.9 41.5 283.9 39.2 Z " stroke="none" fill="#000"/>  </g>  <g id="Polygon11221">    <path d="M 14.8 11.6 C 14.8 15.6 12.1 19.8 6.4 19.8 C 6.4 19.78 1.6 19.8 1.6 19.8 L 1.6 4 C 1.6 4 6.78 4.03 6.8 4 C 12.2 4 14.8 7.7 14.8 11.6 Z M 11.9 11.6 C 11.9 9.1 10.3 6.8 6.9 6.8 C 6.89 6.76 4.5 6.8 4.5 6.8 L 4.5 17 C 4.5 17 6.45 17.03 6.4 17 C 10.1 17 11.9 14.3 11.9 11.6 Z M 16.9 6.7 L 19.9 6.7 L 19.9 3.5 L 16.9 3.5 L 16.9 6.7 Z M 17 8.2 L 19.8 8.2 L 19.8 19.8 L 17 19.8 L 17 8.2 Z M 24.5 14.8 C 24.5 16.7 25.9 17.6 27.4 17.6 C 28.5 17.6 29.6 17.2 29.9 16.1 C 29.9 16.1 32.5 16.1 32.5 16.1 C 32 18.7 29.7 20 27.3 20 C 24.5 20 21.8 18.1 21.8 14 C 21.8 10 24.4 8 27.3 8 C 30.2 8 32.5 9.8 32.5 13.7 C 32.53 13.69 32.5 14.8 32.5 14.8 C 32.5 14.8 24.46 14.83 24.5 14.8 Z M 24.5 12.8 C 24.5 12.8 29.8 12.8 29.8 12.8 C 29.8 11.3 28.7 10.4 27.3 10.4 C 26 10.4 24.8 11.1 24.5 12.8 Z M 45.6 20.2 C 42.4 20.2 39.1 18.4 39.1 14.4 C 39.1 14.4 42.1 14.4 42.1 14.4 C 42.2 16.8 43.9 17.7 45.6 17.7 C 47.1 17.7 48.5 16.9 48.5 15.6 C 48.5 14 46.7 13.6 44.9 13.2 C 42.6 12.7 39.7 11.9 39.7 8.5 C 39.7 5.2 42.4 3.7 45.4 3.7 C 48.3 3.7 51.2 5.2 51.2 8.4 C 51.2 8.4 48.2 8.4 48.2 8.4 C 48.1 6.8 46.7 6.2 45.3 6.2 C 43.7 6.2 42.5 6.9 42.5 8.3 C 42.5 9.8 44 10.2 45.8 10.6 C 47.8 11.1 51.4 11.7 51.4 15.4 C 51.4 18.5 48.7 20.2 45.6 20.2 Z M 64.9 13.8 C 64.9 18 62.3 19.9 59.6 19.9 C 58 19.9 57 19.2 56.3 18.4 C 56.3 18.4 56.3 24.1 56.3 24.1 L 53.5 24.1 L 53.5 8.2 L 56.2 8.2 C 56.2 8.2 56.24 10.04 56.2 10 C 56.8 8.8 58.1 8 59.8 8 C 62.6 8 64.9 9.9 64.9 13.8 Z M 62.1 14 C 62.1 11.6 60.7 10.5 59.2 10.5 C 57.6 10.5 56.2 11.6 56.2 14 C 56.2 16.3 57.6 17.4 59.2 17.4 C 60.7 17.4 62.1 16.3 62.1 14 Z M 73.4 10.8 C 73.4 10.8 72.7 10.77 72.7 10.8 C 70.7 10.8 69.7 11.8 69.7 14.1 C 69.68 14.11 69.7 19.8 69.7 19.8 L 66.9 19.8 L 66.9 8.2 L 69.7 8.2 C 69.7 8.2 69.66 9.85 69.7 9.8 C 70.2 8.6 71.3 8.1 72.7 8.1 C 72.68 8.06 73.4 8.1 73.4 8.1 L 73.4 10.8 Z M 76.6 14.8 C 76.6 16.7 78 17.6 79.5 17.6 C 80.6 17.6 81.7 17.2 82 16.1 C 82 16.1 84.6 16.1 84.6 16.1 C 84.1 18.7 81.8 20 79.4 20 C 76.6 20 73.9 18.1 73.9 14 C 73.9 10 76.5 8 79.4 8 C 82.3 8 84.6 9.8 84.6 13.7 C 84.63 13.69 84.6 14.8 84.6 14.8 C 84.6 14.8 76.57 14.83 76.6 14.8 Z M 76.6 12.8 C 76.6 12.8 81.9 12.8 81.9 12.8 C 81.9 11.3 80.8 10.4 79.4 10.4 C 78.1 10.4 76.9 11.1 76.6 12.8 Z M 95.9 12 C 95.89 11.99 95.9 19.8 95.9 19.8 L 93.2 19.8 C 93.2 19.8 93.16 18.1 93.2 18.1 C 92.3 19.6 90.9 20 89.6 20 C 87.8 20 85.9 18.9 85.9 16.4 C 85.9 14.6 86.9 13.4 89.6 13 C 89.6 13 92.1 12.6 92.1 12.6 C 92.8 12.5 93.3 12.3 93.3 11.6 C 93.3 10.6 92.4 10.2 91.3 10.2 C 89.8 10.2 89.1 10.9 89 11.9 C 89 11.9 86.4 11.9 86.4 11.9 C 86.6 9.2 88.8 8 91.4 8 C 94.2 8 95.9 9.3 95.9 12 Z M 93.2 14.9 C 93.2 14.9 93.2 14.3 93.2 14.3 C 92.9 14.4 92.4 14.6 91.8 14.6 C 91.8 14.6 90.6 14.8 90.6 14.8 C 89.1 15 88.7 15.6 88.7 16.3 C 88.7 17.2 89.3 17.7 90.3 17.7 C 91.7 17.7 93.2 16.6 93.2 14.9 Z M 109.1 19.8 L 106.3 19.8 C 106.3 19.8 106.32 18 106.3 18 C 105.7 19.3 104.3 20 102.8 20 C 100 20 97.7 18 97.7 14 C 97.7 10 100 8 102.8 8 C 104.3 8 105.6 8.6 106.3 9.7 C 106.26 9.72 106.3 3.8 106.3 3.8 L 109.1 3.8 L 109.1 19.8 Z M 106.3 14 C 106.3 11.6 104.9 10.5 103.4 10.5 C 101.9 10.5 100.5 11.6 100.5 14 C 100.5 16.3 101.9 17.5 103.4 17.5 C 104.9 17.5 106.3 16.3 106.3 14 Z M 121 16.2 C 121 18.8 118.7 20 116.1 20 C 113.7 20 111.1 19 110.9 16.1 C 110.9 16.1 113.8 16.1 113.8 16.1 C 113.9 17.2 115 17.7 116.3 17.7 C 117.5 17.7 118.3 17.3 118.3 16.5 C 118.3 15.7 117.7 15.6 116.1 15.3 C 113.9 14.9 111.3 14.5 111.3 11.7 C 111.3 9.1 113.5 8 115.9 8 C 118.6 8 120.6 9.3 120.8 11.9 C 120.8 11.9 118 11.9 118 11.9 C 117.9 10.8 117.1 10.3 115.9 10.3 C 114.6 10.3 114 10.9 114 11.6 C 114 12.5 115 12.7 116.4 12.9 C 118.5 13.2 121 13.5 121 16.2 Z M 133.6 19.8 L 130.7 19.8 L 126.4 8.2 L 129.4 8.2 L 132.2 16.5 L 135 8.2 L 137.9 8.2 L 133.6 19.8 Z M 149.7 14 C 149.7 17.8 147.3 20 144 20 C 140.8 20 138.4 17.8 138.4 14 C 138.4 10.2 140.8 8 144 8 C 147.3 8 149.7 10.2 149.7 14 Z M 141.2 14 C 141.2 16.3 142.5 17.4 144.1 17.4 C 145.7 17.4 146.8 16.2 146.8 14 C 146.8 11.7 145.5 10.6 144 10.6 C 142.3 10.6 141.2 11.8 141.2 14 Z M 161.9 12.3 C 161.87 12.31 161.9 19.8 161.9 19.8 L 159.1 19.8 C 159.1 19.8 159.07 12.56 159.1 12.6 C 159.1 11.3 158.3 10.5 157 10.5 C 155.4 10.5 154.5 11.6 154.5 13.5 C 154.47 13.52 154.5 19.8 154.5 19.8 L 151.7 19.8 L 151.7 8.2 L 154.5 8.2 C 154.5 8.2 154.45 9.87 154.5 9.9 C 155.1 8.8 156 8 158 8 C 160.6 8 161.9 9.5 161.9 12.3 Z M 180.3 12.3 C 180.35 12.31 180.3 19.8 180.3 19.8 L 177.6 19.8 C 177.6 19.8 177.55 12.56 177.6 12.6 C 177.6 11.3 176.8 10.5 175.5 10.5 C 173.9 10.5 173 11.6 173 13.5 C 172.95 13.52 173 19.8 173 19.8 L 170.2 19.8 L 170.2 3.8 L 173 3.8 C 173 3.8 172.95 9.83 173 9.8 C 173.6 8.7 174.6 8 176.5 8 C 179.1 8 180.3 9.5 180.3 12.3 Z M 193.6 14 C 193.6 17.8 191.1 20 187.9 20 C 184.7 20 182.2 17.8 182.2 14 C 182.2 10.2 184.7 8 187.9 8 C 191.1 8 193.6 10.2 193.6 14 Z M 185.1 14 C 185.1 16.3 186.4 17.4 187.9 17.4 C 189.6 17.4 190.7 16.2 190.7 14 C 190.7 11.7 189.4 10.6 187.9 10.6 C 186.2 10.6 185.1 11.8 185.1 14 Z M 200.4 20 C 196.6 20 194.8 17.1 194.8 14 C 194.8 10.9 196.6 8 200.4 8 C 203.3 8 205.4 9.6 205.5 12.4 C 205.5 12.4 202.8 12.4 202.8 12.4 C 202.7 11.3 201.9 10.5 200.5 10.5 C 198.5 10.5 197.6 12.2 197.6 14 C 197.6 15.9 198.5 17.4 200.5 17.4 C 201.8 17.4 202.6 16.7 202.8 15.7 C 202.8 15.7 205.6 15.7 205.6 15.7 C 205.3 18.5 203.2 20 200.4 20 Z M 217.8 12.3 C 217.81 12.31 217.8 19.8 217.8 19.8 L 215 19.8 C 215 19.8 215.02 12.56 215 12.6 C 215 11.3 214.3 10.5 213 10.5 C 211.4 10.5 210.4 11.6 210.4 13.5 C 210.42 13.52 210.4 19.8 210.4 19.8 L 207.6 19.8 L 207.6 3.8 L 210.4 3.8 C 210.4 3.8 210.42 9.83 210.4 9.8 C 211.1 8.7 212.1 8 213.9 8 C 216.6 8 217.8 9.5 217.8 12.3 Z M 226.3 19.8 L 223.4 19.8 L 219.1 8.2 L 222 8.2 L 224.9 16.5 L 227.7 8.2 L 230.6 8.2 L 226.3 19.8 Z M 233.7 14.8 C 233.8 16.7 235.2 17.6 236.7 17.6 C 237.8 17.6 238.9 17.2 239.2 16.1 C 239.2 16.1 241.8 16.1 241.8 16.1 C 241.3 18.7 239 20 236.6 20 C 233.8 20 231 18.1 231 14 C 231 10 233.7 8 236.6 8 C 239.4 8 241.8 9.8 241.8 13.7 C 241.81 13.69 241.8 14.8 241.8 14.8 C 241.8 14.8 233.75 14.83 233.7 14.8 Z M 233.8 12.8 C 233.8 12.8 239.1 12.8 239.1 12.8 C 239.1 11.3 238 10.4 236.6 10.4 C 235.3 10.4 234.1 11.1 233.8 12.8 Z M 250.4 10.8 C 250.4 10.8 249.62 10.77 249.6 10.8 C 247.7 10.8 246.6 11.8 246.6 14.1 C 246.6 14.11 246.6 19.8 246.6 19.8 L 243.8 19.8 L 243.8 8.2 L 246.6 8.2 C 246.6 8.2 246.58 9.85 246.6 9.8 C 247.2 8.6 248.2 8.1 249.6 8.1 C 249.6 8.06 250.4 8.1 250.4 8.1 L 250.4 10.8 Z M 260.8 19.8 L 251 19.8 L 251 17.3 L 257.2 10.6 L 251.1 10.6 L 251.1 8.2 L 260.8 8.2 L 260.8 10.6 L 254.6 17.3 L 260.8 17.3 L 260.8 19.8 Z M 262.9 6.7 L 265.9 6.7 L 265.9 3.5 L 262.9 3.5 L 262.9 6.7 Z M 263 8.2 L 265.8 8.2 L 265.8 19.8 L 263 19.8 L 263 8.2 Z M 278.7 12.3 C 278.67 12.31 278.7 19.8 278.7 19.8 L 275.9 19.8 C 275.9 19.8 275.87 12.56 275.9 12.6 C 275.9 11.3 275.1 10.5 273.8 10.5 C 272.2 10.5 271.3 11.6 271.3 13.5 C 271.27 13.52 271.3 19.8 271.3 19.8 L 268.5 19.8 L 268.5 8.2 L 271.3 8.2 C 271.3 8.2 271.25 9.87 271.3 9.9 C 271.9 8.8 272.8 8 274.8 8 C 277.4 8 278.7 9.5 278.7 12.3 Z M 290.6 16.2 C 290.6 18.8 288.2 20 285.6 20 C 283.2 20 280.6 19 280.5 16.1 C 280.5 16.1 283.3 16.1 283.3 16.1 C 283.5 17.2 284.5 17.7 285.8 17.7 C 287 17.7 287.8 17.3 287.8 16.5 C 287.8 15.7 287.3 15.6 285.7 15.3 C 283.4 14.9 280.8 14.5 280.8 11.7 C 280.8 9.1 283 8 285.4 8 C 288.1 8 290.1 9.3 290.3 11.9 C 290.3 11.9 287.5 11.9 287.5 11.9 C 287.4 10.8 286.6 10.3 285.4 10.3 C 284.1 10.3 283.5 10.9 283.5 11.6 C 283.5 12.5 284.5 12.7 286 12.9 C 288 13.2 290.6 13.5 290.6 16.2 Z M 295.2 19.8 L 292.4 19.8 L 292.4 3.8 L 295.2 3.8 L 295.2 19.8 Z M 297.9 6.7 L 300.8 6.7 L 300.8 3.5 L 297.9 3.5 L 297.9 6.7 Z M 297.9 8.2 L 300.7 8.2 L 300.7 19.8 L 297.9 19.8 L 297.9 8.2 Z M 308.3 20 C 304.5 20 302.7 17.1 302.7 14 C 302.7 10.9 304.5 8 308.3 8 C 311.2 8 313.3 9.6 313.4 12.4 C 313.4 12.4 310.7 12.4 310.7 12.4 C 310.6 11.3 309.8 10.5 308.4 10.5 C 306.4 10.5 305.5 12.2 305.5 14 C 305.5 15.9 306.4 17.4 308.4 17.4 C 309.7 17.4 310.5 16.7 310.7 15.7 C 310.7 15.7 313.5 15.7 313.5 15.7 C 313.1 18.5 311.1 20 308.3 20 Z M 325.7 12.3 C 325.71 12.31 325.7 19.8 325.7 19.8 L 322.9 19.8 C 322.9 19.8 322.91 12.56 322.9 12.6 C 322.9 11.3 322.2 10.5 320.9 10.5 C 319.3 10.5 318.3 11.6 318.3 13.5 C 318.31 13.52 318.3 19.8 318.3 19.8 L 315.5 19.8 L 315.5 3.8 L 318.3 3.8 C 318.3 3.8 318.31 9.83 318.3 9.8 C 319 8.7 320 8 321.8 8 C 324.5 8 325.7 9.5 325.7 12.3 Z M 330.3 14.8 C 330.4 16.7 331.7 17.6 333.3 17.6 C 334.4 17.6 335.4 17.2 335.8 16.1 C 335.8 16.1 338.3 16.1 338.3 16.1 C 337.8 18.7 335.5 20 333.2 20 C 330.4 20 327.6 18.1 327.6 14 C 327.6 10 330.2 8 333.2 8 C 336 8 338.4 9.8 338.4 13.7 C 338.37 13.69 338.4 14.8 338.4 14.8 C 338.4 14.8 330.3 14.83 330.3 14.8 Z M 330.4 12.8 C 330.4 12.8 335.6 12.8 335.6 12.8 C 335.6 11.3 334.6 10.4 333.1 10.4 C 331.9 10.4 330.6 11.1 330.4 12.8 Z M 350.5 12.3 C 350.55 12.31 350.5 19.8 350.5 19.8 L 347.8 19.8 C 347.8 19.8 347.76 12.56 347.8 12.6 C 347.8 11.3 347 10.5 345.7 10.5 C 344.1 10.5 343.2 11.6 343.2 13.5 C 343.16 13.52 343.2 19.8 343.2 19.8 L 340.4 19.8 L 340.4 8.2 L 343.1 8.2 C 343.1 8.2 343.14 9.87 343.1 9.9 C 343.8 8.8 344.7 8 346.7 8 C 349.3 8 350.5 9.5 350.5 12.3 Z " stroke="none" fill="#000"/>  </g></svg>