<?xml version="1.0" standalone="no"?><!DOCTYPE svg PUBLIC "-//W3C//DTD SVG 1.1//EN" "http://www.w3.org/Graphics/SVG/1.1/DTD/svg11.dtd"><svg xmlns="http://www.w3.org/2000/svg" version="1.1" width="74px" height="160.2px" viewBox="0 -12 74 160.2" style="top:-12px"><desc>8</desc><defs/><g id="Polygon11775"><path d="m2.6 69.2c0-7.5 5.2-14.7 16.6-16.6c-8.9-4.5-13.9-10-13.9-17.9c0-11.7 11.2-17.4 22.5-17.4c10.3 0 20.7 4.8 20.7 15.3c0 7.5-5.6 13.8-15.3 15l2.5 1.3c10.5 5.2 16.6 10.6 16.6 19c0 10.9-10 18-24.8 18c-13.5 0-24.9-5.6-24.9-16.7zm33-36.7c0-5.5-2.9-10.6-8-10.6c-5.4 0-8.1 5.5-8.1 10.6c0 4.7 2.4 9.3 8 12.2l1.5.8c4.2-2.8 6.6-8.1 6.6-13zm2.7 37.9c0-5.2-2.6-11-14.1-15.8C19.2 58 17 64 17 69c0 6.6 4.2 12.2 10.9 12.2c6.1 0 10.4-3.6 10.4-10.8z" stroke="none" fill="#000"/></g></svg>