<?xml version="1.0" standalone="no"?><!DOCTYPE svg PUBLIC "-//W3C//DTD SVG 1.1//EN" "http://www.w3.org/Graphics/SVG/1.1/DTD/svg11.dtd"><svg xmlns="http://www.w3.org/2000/svg" version="1.1" width="387px" height="132.4px" viewBox="0 -4 387 132.4" style="top:-4px"> <desc>Are there certain asset classes sectors that investors should avoid</desc> <defs/> <g id="Polygon12276">  <path d="M 9 27.6 L 7 27.6 L 0 46.9 L 2 46.9 L 9 27.6 Z M 22.2 41.4 C 22.2 44 19.9 45.2 17.3 45.2 C 14.9 45.2 12.3 44.2 12.1 41.3 C 12.1 41.3 15 41.3 15 41.3 C 15.1 42.4 16.2 42.9 17.5 42.9 C 18.6 42.9 19.5 42.5 19.5 41.7 C 19.5 40.9 18.9 40.8 17.3 40.5 C 15.1 40.1 12.5 39.7 12.5 36.9 C 12.5 34.3 14.7 33.2 17.1 33.2 C 19.8 33.2 21.8 34.5 22 37.1 C 22 37.1 19.2 37.1 19.2 37.1 C 19.1 36 18.3 35.5 17.1 35.5 C 15.8 35.5 15.2 36.1 15.2 36.8 C 15.2 37.7 16.2 37.9 17.6 38.1 C 19.7 38.4 22.2 38.7 22.2 41.4 Z M 26.1 40 C 26.2 41.9 27.5 42.8 29.1 42.8 C 30.2 42.8 31.2 42.4 31.6 41.3 C 31.6 41.3 34.1 41.3 34.1 41.3 C 33.6 43.9 31.3 45.2 29 45.2 C 26.2 45.2 23.4 43.3 23.4 39.2 C 23.4 35.2 26 33.2 29 33.2 C 31.8 33.2 34.2 35 34.2 38.9 C 34.17 38.89 34.2 40 34.2 40 C 34.2 40 26.1 40.03 26.1 40 Z M 26.2 38 C 26.2 38 31.4 38 31.4 38 C 31.4 36.5 30.4 35.6 28.9 35.6 C 27.7 35.6 26.4 36.3 26.2 38 Z M 41.1 45.2 C 37.3 45.2 35.4 42.3 35.4 39.2 C 35.4 36.1 37.2 33.2 41 33.2 C 43.9 33.2 46.1 34.8 46.2 37.6 C 46.2 37.6 43.4 37.6 43.4 37.6 C 43.3 36.5 42.5 35.7 41.1 35.7 C 39.1 35.7 38.2 37.4 38.2 39.2 C 38.2 41.1 39.1 42.6 41.1 42.6 C 42.4 42.6 43.3 41.9 43.4 40.9 C 43.4 40.9 46.2 40.9 46.2 40.9 C 45.9 43.7 43.8 45.2 41.1 45.2 Z M 54.2 45 C 54.2 45 52.33 44.98 52.3 45 C 50.2 45 48.8 44.3 48.8 41.2 C 48.78 41.2 48.8 35.9 48.8 35.9 L 46.7 35.9 L 46.7 33.4 L 48.8 33.4 L 48.8 30.8 L 51.6 30 L 51.6 33.4 L 53.9 33.4 L 53.9 35.9 L 51.6 35.9 C 51.6 35.9 51.58 41.33 51.6 41.3 C 51.6 42 51.8 42.5 52.8 42.5 C 52.75 42.5 54.2 42.5 54.2 42.5 L 54.2 45 Z M 66.3 39.2 C 66.3 43 63.9 45.2 60.6 45.2 C 57.4 45.2 55 43 55 39.2 C 55 35.4 57.4 33.2 60.6 33.2 C 63.9 33.2 66.3 35.4 66.3 39.2 Z M 57.9 39.2 C 57.9 41.5 59.1 42.6 60.7 42.6 C 62.3 42.6 63.5 41.4 63.5 39.2 C 63.5 36.9 62.2 35.8 60.6 35.8 C 59 35.8 57.9 37 57.9 39.2 Z M 74.9 36 C 74.9 36 74.13 35.97 74.1 36 C 72.2 36 71.1 37 71.1 39.3 C 71.11 39.31 71.1 45 71.1 45 L 68.3 45 L 68.3 33.4 L 71.1 33.4 C 71.1 33.4 71.08 35.05 71.1 35 C 71.7 33.8 72.7 33.3 74.1 33.3 C 74.11 33.26 74.9 33.3 74.9 33.3 L 74.9 36 Z M 85.5 41.4 C 85.5 44 83.2 45.2 80.6 45.2 C 78.2 45.2 75.6 44.2 75.4 41.3 C 75.4 41.3 78.2 41.3 78.2 41.3 C 78.4 42.4 79.4 42.9 80.7 42.9 C 81.9 42.9 82.7 42.5 82.7 41.7 C 82.7 40.9 82.2 40.8 80.6 40.5 C 78.3 40.1 75.7 39.7 75.7 36.9 C 75.7 34.3 78 33.2 80.3 33.2 C 83.1 33.2 85 34.5 85.2 37.1 C 85.2 37.1 82.5 37.1 82.5 37.1 C 82.4 36 81.6 35.5 80.4 35.5 C 79 35.5 78.5 36.1 78.5 36.8 C 78.5 37.7 79.5 37.9 80.9 38.1 C 83 38.4 85.5 38.7 85.5 41.4 Z M 98.3 45 C 98.3 45 96.52 44.98 96.5 45 C 94.4 45 93 44.3 93 41.2 C 92.97 41.2 93 35.9 93 35.9 L 90.8 35.9 L 90.8 33.4 L 93 33.4 L 93 30.8 L 95.8 30 L 95.8 33.4 L 98.1 33.4 L 98.1 35.9 L 95.8 35.9 C 95.8 35.9 95.76 41.33 95.8 41.3 C 95.8 42 95.9 42.5 96.9 42.5 C 96.94 42.5 98.3 42.5 98.3 42.5 L 98.3 45 Z M 110.1 37.5 C 110.1 37.51 110.1 45 110.1 45 L 107.3 45 C 107.3 45 107.31 37.76 107.3 37.8 C 107.3 36.5 106.6 35.7 105.3 35.7 C 103.7 35.7 102.7 36.8 102.7 38.7 C 102.71 38.72 102.7 45 102.7 45 L 99.9 45 L 99.9 29 L 102.7 29 C 102.7 29 102.71 35.03 102.7 35 C 103.4 33.9 104.4 33.2 106.2 33.2 C 108.9 33.2 110.1 34.7 110.1 37.5 Z M 122 37.2 C 121.99 37.19 122 45 122 45 L 119.3 45 C 119.3 45 119.26 43.3 119.3 43.3 C 118.4 44.8 117 45.2 115.8 45.2 C 113.9 45.2 112 44.1 112 41.6 C 112 39.8 113 38.6 115.7 38.2 C 115.7 38.2 118.2 37.8 118.2 37.8 C 118.9 37.7 119.4 37.5 119.4 36.8 C 119.4 35.8 118.5 35.4 117.4 35.4 C 115.9 35.4 115.2 36.1 115.1 37.1 C 115.1 37.1 112.5 37.1 112.5 37.1 C 112.7 34.4 114.9 33.2 117.5 33.2 C 120.3 33.2 122 34.5 122 37.2 Z M 119.3 40.1 C 119.3 40.1 119.3 39.5 119.3 39.5 C 119 39.6 118.5 39.8 117.9 39.8 C 117.9 39.8 116.7 40 116.7 40 C 115.2 40.2 114.8 40.8 114.8 41.5 C 114.8 42.4 115.4 42.9 116.4 42.9 C 117.9 42.9 119.3 41.8 119.3 40.1 Z M 130.4 45 C 130.4 45 128.6 44.98 128.6 45 C 126.4 45 125.1 44.3 125.1 41.2 C 125.05 41.2 125.1 35.9 125.1 35.9 L 122.9 35.9 L 122.9 33.4 L 125.1 33.4 L 125.1 30.8 L 127.8 30 L 127.8 33.4 L 130.2 33.4 L 130.2 35.9 L 127.8 35.9 C 127.8 35.9 127.85 41.33 127.8 41.3 C 127.8 42 128 42.5 129 42.5 C 129.02 42.5 130.4 42.5 130.4 42.5 L 130.4 45 Z M 137.4 31.9 L 140.3 31.9 L 140.3 28.7 L 137.4 28.7 L 137.4 31.9 Z M 137.4 33.4 L 140.2 33.4 L 140.2 45 L 137.4 45 L 137.4 33.4 Z M 153.1 37.5 C 153.13 37.51 153.1 45 153.1 45 L 150.3 45 C 150.3 45 150.34 37.76 150.3 37.8 C 150.3 36.5 149.6 35.7 148.3 35.7 C 146.7 35.7 145.7 36.8 145.7 38.7 C 145.74 38.72 145.7 45 145.7 45 L 142.9 45 L 142.9 33.4 L 145.7 33.4 C 145.7 33.4 145.72 35.07 145.7 35.1 C 146.4 34 147.3 33.2 149.2 33.2 C 151.9 33.2 153.1 34.7 153.1 37.5 Z M 161.6 45 L 158.7 45 L 154.4 33.4 L 157.4 33.4 L 160.2 41.7 L 163 33.4 L 165.9 33.4 L 161.6 45 Z M 169.1 40 C 169.1 41.9 170.5 42.8 172.1 42.8 C 173.1 42.8 174.2 42.4 174.5 41.3 C 174.5 41.3 177.1 41.3 177.1 41.3 C 176.6 43.9 174.3 45.2 171.9 45.2 C 169.1 45.2 166.4 43.3 166.4 39.2 C 166.4 35.2 169 33.2 171.9 33.2 C 174.8 33.2 177.1 35 177.1 38.9 C 177.13 38.89 177.1 40 177.1 40 C 177.1 40 169.07 40.03 169.1 40 Z M 169.1 38 C 169.1 38 174.4 38 174.4 38 C 174.4 36.5 173.3 35.6 171.9 35.6 C 170.6 35.6 169.4 36.3 169.1 38 Z M 188.4 41.4 C 188.4 44 186.1 45.2 183.5 45.2 C 181.1 45.2 178.5 44.2 178.3 41.3 C 178.3 41.3 181.1 41.3 181.1 41.3 C 181.3 42.4 182.3 42.9 183.6 42.9 C 184.8 42.9 185.6 42.5 185.6 41.7 C 185.6 40.9 185.1 40.8 183.5 40.5 C 181.2 40.1 178.6 39.7 178.6 36.9 C 178.6 34.3 180.9 33.2 183.2 33.2 C 186 33.2 187.9 34.5 188.1 37.1 C 188.1 37.1 185.4 37.1 185.4 37.1 C 185.3 36 184.5 35.5 183.3 35.5 C 181.9 35.5 181.4 36.1 181.4 36.8 C 181.4 37.7 182.4 37.9 183.8 38.1 C 185.9 38.4 188.4 38.7 188.4 41.4 Z M 196.2 45 C 196.2 45 194.37 44.98 194.4 45 C 192.2 45 190.8 44.3 190.8 41.2 C 190.82 41.2 190.8 35.9 190.8 35.9 L 188.7 35.9 L 188.7 33.4 L 190.8 33.4 L 190.8 30.8 L 193.6 30 L 193.6 33.4 L 195.9 33.4 L 195.9 35.9 L 193.6 35.9 C 193.6 35.9 193.62 41.33 193.6 41.3 C 193.6 42 193.8 42.5 194.8 42.5 C 194.79 42.5 196.2 42.5 196.2 42.5 L 196.2 45 Z M 208.4 39.2 C 208.4 43 205.9 45.2 202.7 45.2 C 199.5 45.2 197 43 197 39.2 C 197 35.4 199.5 33.2 202.7 33.2 C 205.9 33.2 208.4 35.4 208.4 39.2 Z M 199.9 39.2 C 199.9 41.5 201.2 42.6 202.7 42.6 C 204.4 42.6 205.5 41.4 205.5 39.2 C 205.5 36.9 204.2 35.8 202.7 35.8 C 201 35.8 199.9 37 199.9 39.2 Z M 216.9 36 C 216.9 36 216.17 35.97 216.2 36 C 214.2 36 213.1 37 213.1 39.3 C 213.15 39.31 213.1 45 213.1 45 L 210.4 45 L 210.4 33.4 L 213.1 33.4 C 213.1 33.4 213.13 35.05 213.1 35 C 213.7 33.8 214.8 33.3 216.2 33.3 C 216.15 33.26 216.9 33.3 216.9 33.3 L 216.9 36 Z M 227.5 41.4 C 227.5 44 225.2 45.2 222.6 45.2 C 220.2 45.2 217.6 44.2 217.4 41.3 C 217.4 41.3 220.2 41.3 220.2 41.3 C 220.4 42.4 221.5 42.9 222.8 42.9 C 223.9 42.9 224.8 42.5 224.8 41.7 C 224.8 40.9 224.2 40.8 222.6 40.5 C 220.4 40.1 217.8 39.7 217.8 36.9 C 217.8 34.3 220 33.2 222.4 33.2 C 225.1 33.2 227.1 34.5 227.3 37.1 C 227.3 37.1 224.5 37.1 224.5 37.1 C 224.4 36 223.6 35.5 222.4 35.5 C 221 35.5 220.5 36.1 220.5 36.8 C 220.5 37.7 221.5 37.9 222.9 38.1 C 225 38.4 227.5 38.7 227.5 41.4 Z M 243.5 41.4 C 243.5 44 241.2 45.2 238.6 45.2 C 236.2 45.2 233.6 44.2 233.4 41.3 C 233.4 41.3 236.2 41.3 236.2 41.3 C 236.4 42.4 237.4 42.9 238.7 42.9 C 239.9 42.9 240.8 42.5 240.8 41.7 C 240.8 40.9 240.2 40.8 238.6 40.5 C 236.4 40.1 233.8 39.7 233.8 36.9 C 233.8 34.3 236 33.2 238.4 33.2 C 241.1 33.2 243.1 34.5 243.2 37.1 C 243.2 37.1 240.5 37.1 240.5 37.1 C 240.4 36 239.6 35.5 238.4 35.5 C 237 35.5 236.5 36.1 236.5 36.8 C 236.5 37.7 237.5 37.9 238.9 38.1 C 241 38.4 243.5 38.7 243.5 41.4 Z M 255.6 37.5 C 255.59 37.51 255.6 45 255.6 45 L 252.8 45 C 252.8 45 252.8 37.76 252.8 37.8 C 252.8 36.5 252.1 35.7 250.8 35.7 C 249.2 35.7 248.2 36.8 248.2 38.7 C 248.2 38.72 248.2 45 248.2 45 L 245.4 45 L 245.4 29 L 248.2 29 C 248.2 29 248.2 35.03 248.2 35 C 248.9 33.9 249.9 33.2 251.7 33.2 C 254.3 33.2 255.6 34.7 255.6 37.5 Z M 268.8 39.2 C 268.8 43 266.4 45.2 263.1 45.2 C 259.9 45.2 257.5 43 257.5 39.2 C 257.5 35.4 259.9 33.2 263.1 33.2 C 266.4 33.2 268.8 35.4 268.8 39.2 Z M 260.3 39.2 C 260.3 41.5 261.6 42.6 263.2 42.6 C 264.8 42.6 265.9 41.4 265.9 39.2 C 265.9 36.9 264.7 35.8 263.1 35.8 C 261.4 35.8 260.3 37 260.3 39.2 Z M 280.9 45 L 278.2 45 C 278.2 45 278.21 43.34 278.2 43.3 C 277.5 44.4 276.5 45.1 274.9 45.1 C 272.5 45.1 270.7 43.6 270.7 40.6 C 270.69 40.59 270.7 33.4 270.7 33.4 L 273.5 33.4 C 273.5 33.4 273.48 40.38 273.5 40.4 C 273.5 42 274.3 42.6 275.5 42.6 C 277 42.6 278.1 41.7 278.1 39 C 278.14 39 278.1 33.4 278.1 33.4 L 280.9 33.4 L 280.9 45 Z M 286.5 45 L 283.7 45 L 283.7 29 L 286.5 29 L 286.5 45 Z M 299.8 45 L 297.1 45 C 297.1 45 297.1 43.2 297.1 43.2 C 296.5 44.5 295.1 45.2 293.5 45.2 C 290.8 45.2 288.5 43.2 288.5 39.2 C 288.5 35.2 290.8 33.2 293.5 33.2 C 295 33.2 296.3 33.8 297 34.9 C 297.04 34.92 297 29 297 29 L 299.8 29 L 299.8 45 Z M 297.1 39.2 C 297.1 36.8 295.7 35.7 294.2 35.7 C 292.7 35.7 291.3 36.8 291.3 39.2 C 291.3 41.5 292.7 42.7 294.2 42.7 C 295.7 42.7 297.1 41.5 297.1 39.2 Z M 317.5 37.2 C 317.5 37.19 317.5 45 317.5 45 L 314.8 45 C 314.8 45 314.77 43.3 314.8 43.3 C 313.9 44.8 312.5 45.2 311.3 45.2 C 309.4 45.2 307.5 44.1 307.5 41.6 C 307.5 39.8 308.5 38.6 311.2 38.2 C 311.2 38.2 313.7 37.8 313.7 37.8 C 314.4 37.7 314.9 37.5 314.9 36.8 C 314.9 35.8 314 35.4 312.9 35.4 C 311.4 35.4 310.8 36.1 310.6 37.1 C 310.6 37.1 308 37.1 308 37.1 C 308.3 34.4 310.4 33.2 313 33.2 C 315.8 33.2 317.5 34.5 317.5 37.2 Z M 314.8 40.1 C 314.8 40.1 314.8 39.5 314.8 39.5 C 314.5 39.6 314 39.8 313.4 39.8 C 313.4 39.8 312.2 40 312.2 40 C 310.8 40.2 310.3 40.8 310.3 41.5 C 310.3 42.4 310.9 42.9 311.9 42.9 C 313.4 42.9 314.8 41.8 314.8 40.1 Z M 325.9 45 L 322.9 45 L 318.7 33.4 L 321.6 33.4 L 324.4 41.7 L 327.3 33.4 L 330.2 33.4 L 325.9 45 Z M 341.9 39.2 C 341.9 43 339.5 45.2 336.3 45.2 C 333 45.2 330.6 43 330.6 39.2 C 330.6 35.4 333 33.2 336.3 33.2 C 339.5 33.2 341.9 35.4 341.9 39.2 Z M 333.5 39.2 C 333.5 41.5 334.8 42.6 336.3 42.6 C 338 42.6 339.1 41.4 339.1 39.2 C 339.1 36.9 337.8 35.8 336.2 35.8 C 334.6 35.8 333.5 37 333.5 39.2 Z M 343.8 31.9 L 346.8 31.9 L 346.8 28.7 L 343.8 28.7 L 343.8 31.9 Z M 343.9 33.4 L 346.7 33.4 L 346.7 45 L 343.9 45 L 343.9 33.4 Z M 360.1 45 L 357.3 45 C 357.3 45 357.33 43.2 357.3 43.2 C 356.7 44.5 355.4 45.2 353.8 45.2 C 351.1 45.2 348.7 43.2 348.7 39.2 C 348.7 35.2 351.1 33.2 353.8 33.2 C 355.3 33.2 356.6 33.8 357.3 34.9 C 357.27 34.92 357.3 29 357.3 29 L 360.1 29 L 360.1 45 Z M 357.4 39.2 C 357.4 36.8 355.9 35.7 354.4 35.7 C 352.9 35.7 351.5 36.8 351.5 39.2 C 351.5 41.5 352.9 42.7 354.4 42.7 C 355.9 42.7 357.4 41.5 357.4 39.2 Z M 365.6 39.4 C 365.6 36.7 366.9 36.2 368.2 35.3 C 369.2 34.6 369.6 34 369.6 33.2 C 369.6 32 368.8 31.4 367.5 31.4 C 366.1 31.4 365.2 32.2 365.1 33.6 C 365.1 33.6 362.3 33.6 362.3 33.6 C 362.5 30.2 365 29 367.6 29 C 370.4 29 372.6 30.3 372.6 33.1 C 372.6 35.3 371.2 36.2 369.8 37.2 C 368.7 38 368.2 38.5 368.2 39.4 C 368.23 39.44 368.2 40.1 368.2 40.1 L 365.6 40.1 C 365.6 40.1 365.56 39.35 365.6 39.4 Z M 365.3 41.7 L 368.5 41.7 L 368.5 45 L 365.3 45 L 365.3 41.7 Z " stroke="none" fill="#000"/> </g> <g id="Polygon12275">  <path d="M 11.5 16.3 L 4.8 16.3 L 3.5 19.8 L 0.4 19.8 L 6.5 4 L 9.7 4 L 16 19.8 L 12.8 19.8 L 11.5 16.3 Z M 10.4 13.5 L 8.1 7.3 L 5.8 13.5 L 10.4 13.5 Z M 24.3 10.8 C 24.3 10.8 23.6 10.77 23.6 10.8 C 21.7 10.8 20.6 11.8 20.6 14.1 C 20.58 14.11 20.6 19.8 20.6 19.8 L 17.8 19.8 L 17.8 8.2 L 20.6 8.2 C 20.6 8.2 20.56 9.85 20.6 9.8 C 21.1 8.6 22.2 8.1 23.6 8.1 C 23.58 8.06 24.3 8.1 24.3 8.1 L 24.3 10.8 Z M 27.5 14.8 C 27.5 16.7 28.9 17.6 30.5 17.6 C 31.5 17.6 32.6 17.2 32.9 16.1 C 32.9 16.1 35.5 16.1 35.5 16.1 C 35 18.7 32.7 20 30.3 20 C 27.5 20 24.8 18.1 24.8 14 C 24.8 10 27.4 8 30.3 8 C 33.2 8 35.5 9.8 35.5 13.7 C 35.53 13.69 35.5 14.8 35.5 14.8 C 35.5 14.8 27.47 14.83 27.5 14.8 Z M 27.5 12.8 C 27.5 12.8 32.8 12.8 32.8 12.8 C 32.8 11.3 31.7 10.4 30.3 10.4 C 29 10.4 27.8 11.1 27.5 12.8 Z M 48.5 19.8 C 48.5 19.8 46.66 19.78 46.7 19.8 C 44.5 19.8 43.1 19.1 43.1 16 C 43.11 16 43.1 10.7 43.1 10.7 L 41 10.7 L 41 8.2 L 43.1 8.2 L 43.1 5.6 L 45.9 4.8 L 45.9 8.2 L 48.2 8.2 L 48.2 10.7 L 45.9 10.7 C 45.9 10.7 45.91 16.13 45.9 16.1 C 45.9 16.8 46.1 17.3 47.1 17.3 C 47.08 17.3 48.5 17.3 48.5 17.3 L 48.5 19.8 Z M 60.2 12.3 C 60.25 12.31 60.2 19.8 60.2 19.8 L 57.5 19.8 C 57.5 19.8 57.46 12.56 57.5 12.6 C 57.5 11.3 56.7 10.5 55.4 10.5 C 53.8 10.5 52.9 11.6 52.9 13.5 C 52.86 13.52 52.9 19.8 52.9 19.8 L 50.1 19.8 L 50.1 3.8 L 52.9 3.8 C 52.9 3.8 52.86 9.83 52.9 9.8 C 53.5 8.7 54.5 8 56.4 8 C 59 8 60.2 9.5 60.2 12.3 Z M 64.8 14.8 C 64.9 16.7 66.3 17.6 67.8 17.6 C 68.9 17.6 70 17.2 70.3 16.1 C 70.3 16.1 72.9 16.1 72.9 16.1 C 72.4 18.7 70.1 20 67.7 20 C 64.9 20 62.1 18.1 62.1 14 C 62.1 10 64.8 8 67.7 8 C 70.5 8 72.9 9.8 72.9 13.7 C 72.91 13.69 72.9 14.8 72.9 14.8 C 72.9 14.8 64.85 14.83 64.8 14.8 Z M 64.9 12.8 C 64.9 12.8 70.2 12.8 70.2 12.8 C 70.2 11.3 69.1 10.4 67.7 10.4 C 66.4 10.4 65.2 11.1 64.9 12.8 Z M 81.5 10.8 C 81.5 10.8 80.72 10.77 80.7 10.8 C 78.8 10.8 77.7 11.8 77.7 14.1 C 77.7 14.11 77.7 19.8 77.7 19.8 L 74.9 19.8 L 74.9 8.2 L 77.7 8.2 C 77.7 8.2 77.68 9.85 77.7 9.8 C 78.3 8.6 79.3 8.1 80.7 8.1 C 80.7 8.06 81.5 8.1 81.5 8.1 L 81.5 10.8 Z M 84.6 14.8 C 84.7 16.7 86 17.6 87.6 17.6 C 88.7 17.6 89.7 17.2 90 16.1 C 90 16.1 92.6 16.1 92.6 16.1 C 92.1 18.7 89.8 20 87.4 20 C 84.7 20 81.9 18.1 81.9 14 C 81.9 10 84.5 8 87.5 8 C 90.3 8 92.7 9.8 92.7 13.7 C 92.65 13.69 92.7 14.8 92.7 14.8 C 92.7 14.8 84.59 14.83 84.6 14.8 Z M 84.7 12.8 C 84.7 12.8 89.9 12.8 89.9 12.8 C 89.9 11.3 88.9 10.4 87.4 10.4 C 86.1 10.4 84.9 11.1 84.7 12.8 Z M 104.4 20 C 100.6 20 98.7 17.1 98.7 14 C 98.7 10.9 100.5 8 104.3 8 C 107.2 8 109.4 9.6 109.5 12.4 C 109.5 12.4 106.7 12.4 106.7 12.4 C 106.6 11.3 105.8 10.5 104.4 10.5 C 102.4 10.5 101.6 12.2 101.6 14 C 101.6 15.9 102.4 17.4 104.4 17.4 C 105.8 17.4 106.6 16.7 106.8 15.7 C 106.8 15.7 109.5 15.7 109.5 15.7 C 109.2 18.5 107.2 20 104.4 20 Z M 113.5 14.8 C 113.6 16.7 114.9 17.6 116.5 17.6 C 117.6 17.6 118.6 17.2 119 16.1 C 119 16.1 121.5 16.1 121.5 16.1 C 121 18.7 118.8 20 116.4 20 C 113.6 20 110.8 18.1 110.8 14 C 110.8 10 113.4 8 116.4 8 C 119.2 8 121.6 9.8 121.6 13.7 C 121.59 13.69 121.6 14.8 121.6 14.8 C 121.6 14.8 113.53 14.83 113.5 14.8 Z M 113.6 12.8 C 113.6 12.8 118.9 12.8 118.9 12.8 C 118.9 11.3 117.8 10.4 116.4 10.4 C 115.1 10.4 113.8 11.1 113.6 12.8 Z M 130.1 10.8 C 130.1 10.8 129.4 10.77 129.4 10.8 C 127.4 10.8 126.4 11.8 126.4 14.1 C 126.38 14.11 126.4 19.8 126.4 19.8 L 123.6 19.8 L 123.6 8.2 L 126.4 8.2 C 126.4 8.2 126.36 9.85 126.4 9.8 C 126.9 8.6 128 8.1 129.4 8.1 C 129.38 8.06 130.1 8.1 130.1 8.1 L 130.1 10.8 Z M 137.8 19.8 C 137.8 19.8 136.02 19.78 136 19.8 C 133.9 19.8 132.5 19.1 132.5 16 C 132.47 16 132.5 10.7 132.5 10.7 L 130.3 10.7 L 130.3 8.2 L 132.5 8.2 L 132.5 5.6 L 135.3 4.8 L 135.3 8.2 L 137.6 8.2 L 137.6 10.7 L 135.3 10.7 C 135.3 10.7 135.26 16.13 135.3 16.1 C 135.3 16.8 135.4 17.3 136.4 17.3 C 136.44 17.3 137.8 17.3 137.8 17.3 L 137.8 19.8 Z M 148.7 12 C 148.68 11.99 148.7 19.8 148.7 19.8 L 145.9 19.8 C 145.9 19.8 145.95 18.1 145.9 18.1 C 145 19.6 143.7 20 142.4 20 C 140.6 20 138.7 18.9 138.7 16.4 C 138.7 14.6 139.7 13.4 142.4 13 C 142.4 13 144.9 12.6 144.9 12.6 C 145.6 12.5 146.1 12.3 146.1 11.6 C 146.1 10.6 145.2 10.2 144.1 10.2 C 142.6 10.2 141.9 10.9 141.8 11.9 C 141.8 11.9 139.1 11.9 139.1 11.9 C 139.4 9.2 141.6 8 144.2 8 C 147 8 148.7 9.3 148.7 12 Z M 146 14.9 C 146 14.9 146 14.3 146 14.3 C 145.7 14.4 145.2 14.6 144.6 14.6 C 144.6 14.6 143.3 14.8 143.3 14.8 C 141.9 15 141.5 15.6 141.5 16.3 C 141.5 17.2 142.1 17.7 143.1 17.7 C 144.5 17.7 146 16.6 146 14.9 Z M 151.1 6.7 L 154.1 6.7 L 154.1 3.5 L 151.1 3.5 L 151.1 6.7 Z M 151.2 8.2 L 154 8.2 L 154 19.8 L 151.2 19.8 L 151.2 8.2 Z M 166.9 12.3 C 166.86 12.31 166.9 19.8 166.9 19.8 L 164.1 19.8 C 164.1 19.8 164.07 12.56 164.1 12.6 C 164.1 11.3 163.3 10.5 162 10.5 C 160.4 10.5 159.5 11.6 159.5 13.5 C 159.47 13.52 159.5 19.8 159.5 19.8 L 156.7 19.8 L 156.7 8.2 L 159.5 8.2 C 159.5 8.2 159.45 9.87 159.5 9.9 C 160.1 8.8 161 8 163 8 C 165.6 8 166.9 9.5 166.9 12.3 Z M 184.4 12 C 184.42 11.99 184.4 19.8 184.4 19.8 L 181.7 19.8 C 181.7 19.8 181.69 18.1 181.7 18.1 C 180.8 19.6 179.4 20 178.2 20 C 176.3 20 174.4 18.9 174.4 16.4 C 174.4 14.6 175.5 13.4 178.1 13 C 178.1 13 180.6 12.6 180.6 12.6 C 181.3 12.5 181.8 12.3 181.8 11.6 C 181.8 10.6 181 10.2 179.8 10.2 C 178.4 10.2 177.7 10.9 177.6 11.9 C 177.6 11.9 174.9 11.9 174.9 11.9 C 175.2 9.2 177.3 8 180 8 C 182.7 8 184.4 9.3 184.4 12 Z M 181.7 14.9 C 181.7 14.9 181.7 14.3 181.7 14.3 C 181.4 14.4 180.9 14.6 180.3 14.6 C 180.3 14.6 179.1 14.8 179.1 14.8 C 177.7 15 177.2 15.6 177.2 16.3 C 177.2 17.2 177.9 17.7 178.8 17.7 C 180.3 17.7 181.7 16.6 181.7 14.9 Z M 196.2 16.2 C 196.2 18.8 193.9 20 191.3 20 C 188.9 20 186.3 19 186.1 16.1 C 186.1 16.1 188.9 16.1 188.9 16.1 C 189.1 17.2 190.1 17.7 191.4 17.7 C 192.6 17.7 193.5 17.3 193.5 16.5 C 193.5 15.7 192.9 15.6 191.3 15.3 C 189 14.9 186.5 14.5 186.5 11.7 C 186.5 9.1 188.7 8 191.1 8 C 193.8 8 195.8 9.3 195.9 11.9 C 195.9 11.9 193.2 11.9 193.2 11.9 C 193.1 10.8 192.3 10.3 191.1 10.3 C 189.7 10.3 189.2 10.9 189.2 11.6 C 189.2 12.5 190.2 12.7 191.6 12.9 C 193.7 13.2 196.2 13.5 196.2 16.2 Z M 207.4 16.2 C 207.4 18.8 205 20 202.4 20 C 200 20 197.4 19 197.3 16.1 C 197.3 16.1 200.1 16.1 200.1 16.1 C 200.3 17.2 201.3 17.7 202.6 17.7 C 203.8 17.7 204.6 17.3 204.6 16.5 C 204.6 15.7 204.1 15.6 202.5 15.3 C 200.2 14.9 197.6 14.5 197.6 11.7 C 197.6 9.1 199.8 8 202.2 8 C 204.9 8 206.9 9.3 207.1 11.9 C 207.1 11.9 204.3 11.9 204.3 11.9 C 204.2 10.8 203.4 10.3 202.2 10.3 C 200.9 10.3 200.3 10.9 200.3 11.6 C 200.3 12.5 201.3 12.7 202.8 12.9 C 204.8 13.2 207.4 13.5 207.4 16.2 Z M 211.2 14.8 C 211.3 16.7 212.6 17.6 214.2 17.6 C 215.3 17.6 216.3 17.2 216.7 16.1 C 216.7 16.1 219.2 16.1 219.2 16.1 C 218.7 18.7 216.4 20 214.1 20 C 211.3 20 208.5 18.1 208.5 14 C 208.5 10 211.1 8 214.1 8 C 216.9 8 219.3 9.8 219.3 13.7 C 219.28 13.69 219.3 14.8 219.3 14.8 C 219.3 14.8 211.22 14.83 211.2 14.8 Z M 211.3 12.8 C 211.3 12.8 216.5 12.8 216.5 12.8 C 216.5 11.3 215.5 10.4 214.1 10.4 C 212.8 10.4 211.5 11.1 211.3 12.8 Z M 227.2 19.8 C 227.2 19.8 225.37 19.78 225.4 19.8 C 223.2 19.8 221.8 19.1 221.8 16 C 221.82 16 221.8 10.7 221.8 10.7 L 219.7 10.7 L 219.7 8.2 L 221.8 8.2 L 221.8 5.6 L 224.6 4.8 L 224.6 8.2 L 226.9 8.2 L 226.9 10.7 L 224.6 10.7 C 224.6 10.7 224.61 16.13 224.6 16.1 C 224.6 16.8 224.8 17.3 225.8 17.3 C 225.79 17.3 227.2 17.3 227.2 17.3 L 227.2 19.8 Z M 238.7 20 C 234.9 20 233.1 17.1 233.1 14 C 233.1 10.9 234.9 8 238.7 8 C 241.5 8 243.7 9.6 243.8 12.4 C 243.8 12.4 241.1 12.4 241.1 12.4 C 240.9 11.3 240.1 10.5 238.8 10.5 C 236.7 10.5 235.9 12.2 235.9 14 C 235.9 15.9 236.8 17.4 238.7 17.4 C 240.1 17.4 240.9 16.7 241.1 15.7 C 241.1 15.7 243.9 15.7 243.9 15.7 C 243.5 18.5 241.5 20 238.7 20 Z M 248.7 19.8 L 245.9 19.8 L 245.9 3.8 L 248.7 3.8 L 248.7 19.8 Z M 260.7 12 C 260.67 11.99 260.7 19.8 260.7 19.8 L 257.9 19.8 C 257.9 19.8 257.94 18.1 257.9 18.1 C 257 19.6 255.7 20 254.4 20 C 252.6 20 250.7 18.9 250.7 16.4 C 250.7 14.6 251.7 13.4 254.4 13 C 254.4 13 256.9 12.6 256.9 12.6 C 257.6 12.5 258 12.3 258 11.6 C 258 10.6 257.2 10.2 256.1 10.2 C 254.6 10.2 253.9 10.9 253.8 11.9 C 253.8 11.9 251.1 11.9 251.1 11.9 C 251.4 9.2 253.6 8 256.2 8 C 258.9 8 260.7 9.3 260.7 12 Z M 258 14.9 C 258 14.9 258 14.3 258 14.3 C 257.7 14.4 257.2 14.6 256.6 14.6 C 256.6 14.6 255.3 14.8 255.3 14.8 C 253.9 15 253.5 15.6 253.5 16.3 C 253.5 17.2 254.1 17.7 255.1 17.7 C 256.5 17.7 258 16.6 258 14.9 Z M 272.5 16.2 C 272.5 18.8 270.1 20 267.5 20 C 265.1 20 262.5 19 262.4 16.1 C 262.4 16.1 265.2 16.1 265.2 16.1 C 265.4 17.2 266.4 17.7 267.7 17.7 C 268.9 17.7 269.7 17.3 269.7 16.5 C 269.7 15.7 269.2 15.6 267.6 15.3 C 265.3 14.9 262.7 14.5 262.7 11.7 C 262.7 9.1 264.9 8 267.3 8 C 270 8 272 9.3 272.2 11.9 C 272.2 11.9 269.4 11.9 269.4 11.9 C 269.3 10.8 268.5 10.3 267.3 10.3 C 266 10.3 265.4 10.9 265.4 11.6 C 265.4 12.5 266.4 12.7 267.9 12.9 C 269.9 13.2 272.5 13.5 272.5 16.2 Z M 283.6 16.2 C 283.6 18.8 281.3 20 278.7 20 C 276.3 20 273.7 19 273.5 16.1 C 273.5 16.1 276.3 16.1 276.3 16.1 C 276.5 17.2 277.5 17.7 278.8 17.7 C 280 17.7 280.9 17.3 280.9 16.5 C 280.9 15.7 280.3 15.6 278.7 15.3 C 276.4 14.9 273.9 14.5 273.9 11.7 C 273.9 9.1 276.1 8 278.5 8 C 281.2 8 283.2 9.3 283.3 11.9 C 283.3 11.9 280.6 11.9 280.6 11.9 C 280.5 10.8 279.7 10.3 278.5 10.3 C 277.1 10.3 276.6 10.9 276.6 11.6 C 276.6 12.5 277.6 12.7 279 12.9 C 281.1 13.2 283.6 13.5 283.6 16.2 Z M 287.5 14.8 C 287.5 16.7 288.9 17.6 290.4 17.6 C 291.5 17.6 292.6 17.2 292.9 16.1 C 292.9 16.1 295.5 16.1 295.5 16.1 C 295 18.7 292.7 20 290.3 20 C 287.5 20 284.8 18.1 284.8 14 C 284.8 10 287.4 8 290.3 8 C 293.2 8 295.5 9.8 295.5 13.7 C 295.53 13.69 295.5 14.8 295.5 14.8 C 295.5 14.8 287.47 14.83 287.5 14.8 Z M 287.5 12.8 C 287.5 12.8 292.8 12.8 292.8 12.8 C 292.8 11.3 291.7 10.4 290.3 10.4 C 289 10.4 287.8 11.1 287.5 12.8 Z M 306.8 16.2 C 306.8 18.8 304.5 20 301.9 20 C 299.5 20 296.9 19 296.7 16.1 C 296.7 16.1 299.5 16.1 299.5 16.1 C 299.7 17.2 300.7 17.7 302 17.7 C 303.2 17.7 304 17.3 304 16.5 C 304 15.7 303.5 15.6 301.9 15.3 C 299.6 14.9 297 14.5 297 11.7 C 297 9.1 299.2 8 301.6 8 C 304.3 8 306.3 9.3 306.5 11.9 C 306.5 11.9 303.8 11.9 303.8 11.9 C 303.7 10.8 302.9 10.3 301.7 10.3 C 300.3 10.3 299.8 10.9 299.8 11.6 C 299.8 12.5 300.8 12.7 302.2 12.9 C 304.3 13.2 306.8 13.5 306.8 16.2 Z " stroke="none" fill="#000"/> </g></svg>