<?xml version="1.0" standalone="no"?><!DOCTYPE svg PUBLIC "-//W3C//DTD SVG 1.1//EN" "http://www.w3.org/Graphics/SVG/1.1/DTD/svg11.dtd"><svg xmlns="http://www.w3.org/2000/svg" version="1.1" width="51px" height="53.7px" viewBox="0 -1 51 53.7" style="top:-1px">  <desc>4 3</desc>  <defs/>  <g id="Polygon13033">    <path d="M 22.9 27.7 L 22.9 32 L 18.9 32 L 18.9 27.7 L 8.8 27.7 L 8.8 24.5 L 18.6 9.9 L 22.9 9.9 L 22.9 24 L 25.8 24 L 25.8 27.7 L 22.9 27.7 Z M 18.9 24 L 18.9 15.3 L 13.1 24 L 18.9 24 Z M 27.2 27.4 L 31.7 27.4 L 31.7 32 L 27.2 32 L 27.2 27.4 Z M 49.8 25.8 C 49.8 30.1 46.1 32.4 42 32.4 C 37.6 32.4 33.4 29.8 33.4 24.7 C 33.4 24.7 37.6 24.7 37.6 24.7 C 37.4 27.4 39.5 28.8 41.9 28.8 C 43.9 28.8 45.7 27.7 45.7 25.7 C 45.7 23.8 44 22.8 41.1 22.8 C 41.12 22.79 39.4 22.8 39.4 22.8 L 39.4 19.2 C 39.4 19.2 41 19.19 41 19.2 C 43.7 19.2 45.2 17.9 45.2 16 C 45.2 14.1 43.7 13.1 41.7 13.1 C 39.5 13.1 37.8 14.5 37.8 17.3 C 37.8 17.3 33.7 17.3 33.7 17.3 C 33.7 12 37.5 9.5 41.9 9.5 C 45.9 9.5 49.4 11.5 49.4 15.5 C 49.4 18.3 47.6 20 45.7 20.6 C 48 21.5 49.8 22.9 49.8 25.8 Z " stroke="none" fill="#000"/>  </g></svg>