<?xml version="1.0" standalone="no"?><!DOCTYPE svg PUBLIC "-//W3C//DTD SVG 1.1//EN" "http://www.w3.org/Graphics/SVG/1.1/DTD/svg11.dtd"><svg xmlns="http://www.w3.org/2000/svg" version="1.1" width="304px" height="205.4px" viewBox="0 -4 304 205.4" style="top:-4px"><desc>There seems to be consensus that the US dollar will weaken in 2021 What currency positioning makes sense for a euro</desc><defs/><g id="Polygon10600"><path d="m1.3 132.7h2.9v-3.2H1.3v3.2zm0 1.5h2.8v11.6H1.3v-11.6zm15.7 4.1c.03.01 0 7.5 0 7.5h-2.8s.04-7.24 0-7.2c0-1.3-.7-2.1-2-2.1c-1.6 0-2.6 1.1-2.6 3c.04.02 0 6.3 0 6.3H6.8v-11.6h2.8s.02 1.67 0 1.7c.7-1.1 1.6-1.9 3.5-1.9c2.7 0 3.9 1.5 3.9 4.3zm8.5 7.5h-2.9l-4.3-11.6h3l2.8 8.3l2.8-8.3h2.9l-4.3 11.6zm7.5-5c0 1.9 1.4 2.8 3 2.8c1 0 2.1-.4 2.4-1.5h2.6c-.5 2.6-2.8 3.9-5.2 3.9c-2.8 0-5.5-1.9-5.5-6c0-4 2.6-6 5.5-6c2.9 0 5.2 1.8 5.2 5.7c.03-.01 0 1.1 0 1.1c0 0-8.03.03-8 0zm0-2h5.3c0-1.5-1.1-2.4-2.5-2.4c-1.3 0-2.5.7-2.8 2.4zm19.3 3.4c0 2.6-2.3 3.8-4.9 3.8c-2.4 0-5-1-5.2-3.9h2.8c.2 1.1 1.2 1.6 2.5 1.6c1.2 0 2-.4 2-1.2c0-.8-.5-.9-2.1-1.2c-2.3-.4-4.9-.8-4.9-3.6c0-2.6 2.3-3.7 4.6-3.7c2.8 0 4.7 1.3 4.9 3.9h-2.7c-.1-1.1-.9-1.6-2.1-1.6c-1.4 0-1.9.6-1.9 1.3c0 .9 1 1.1 2.4 1.3c2.1.3 4.6.6 4.6 3.3zm7.8 3.6s-1.83-.02-1.8 0c-2.2 0-3.6-.7-3.6-3.8c.03 0 0-5.3 0-5.3h-2.1v-2.5h2.1v-2.6l2.8-.8v3.4h2.3v2.5h-2.3s.02 5.43 0 5.4c0 .7.2 1.2 1.2 1.2h1.4v2.5zm12.2-5.8c0 3.8-2.5 6-5.7 6c-3.2 0-5.7-2.2-5.7-6c0-3.8 2.5-6 5.7-6c3.2 0 5.7 2.2 5.7 6zm-8.5 0c0 2.3 1.3 3.4 2.8 3.4c1.7 0 2.8-1.2 2.8-3.4c0-2.3-1.3-3.4-2.8-3.4c-1.7 0-2.8 1.2-2.8 3.4zm17-3.2s-.73-.03-.7 0c-2 0-3.1 1-3.1 3.3c.05.01 0 5.7 0 5.7h-2.7v-11.6h2.7s.03 1.65 0 1.6c.6-1.2 1.7-1.7 3.1-1.7c-.05-.04.7 0 .7 0v2.7zm6.3-4.1h3v-3.2h-3v3.2zm.1 1.5h2.8v11.6h-2.8v-11.6zm15.7 4.1c-.02.01 0 7.5 0 7.5h-2.8s-.02-7.24 0-7.2c0-1.3-.8-2.1-2.1-2.1c-1.5 0-2.5 1.1-2.5 3v6.3h-2.8v-11.6h2.8s-.04 1.67 0 1.7c.6-1.1 1.6-1.9 3.5-1.9c2.6 0 3.9 1.5 3.9 4.3zm19 7.5h-11.4v-2.6s3.82-3.13 3.8-3.1c2.9-2.4 4.2-3.6 4.2-5.2c0-1.4-1-2.2-2.5-2.2c-1.6 0-2.8.9-2.9 2.8h-2.7c0-3.6 2.6-5.5 5.7-5.5c2.9 0 5.3 1.6 5.3 4.7c0 2.7-2 4.5-4.7 6.7l-2.2 1.8h7.4v2.6zm1.3-7.7c0-4.9 1.7-8.1 5.5-8.1c3.8 0 5.5 3.2 5.5 8c0 4.9-1.7 8-5.5 8c-3.8 0-5.5-3.1-5.5-7.9zm8.2 0c0-3.1-.8-5.6-2.8-5.6c-1.7 0-2.6 2-2.6 5.4c0 3.5.9 5.7 2.7 5.7c1.9 0 2.7-2.3 2.7-5.5zm15.7 7.7h-11.4v-2.6s3.82-3.13 3.8-3.1c2.9-2.4 4.2-3.6 4.2-5.2c0-1.4-1-2.2-2.5-2.2c-1.6 0-2.8.9-2.9 2.8h-2.7c0-3.6 2.6-5.5 5.7-5.5c2.9 0 5.3 1.6 5.3 4.7c0 2.7-2 4.5-4.7 6.7l-2.2 1.8h7.4v2.6zm12.1-2.6v2.6h-10.3v-2.6h3.7s.05-9.24 0-9.2c-1.2.7-2.6 1.1-3.7 1.2v-2.8c1.4-.2 2.9-.8 4.2-2.1h2.3v12.9h3.8zm5.1-3c0-2.7 1.4-3.2 2.6-4.1c1.1-.7 1.5-1.3 1.5-2.1c0-1.2-.8-1.8-2.1-1.8c-1.4 0-2.3.8-2.4 2.2H161c.3-3.4 2.8-4.6 5.4-4.6c2.8 0 4.9 1.3 4.9 4.1c0 2.2-1.3 3.1-2.7 4.1c-1.1.8-1.6 1.3-1.6 2.2v.7h-2.7s.04-.75 0-.7zm-.2 2.3h3.2v3.3h-3.2v-3.3z" stroke="none" fill="#000"/></g><g id="Polygon10599"><path d="m17.7 112.8c.02-.03 0 7.8 0 7.8h-2.8s.03-7.28 0-7.3c0-1.4-.6-2-1.8-2c-1.3 0-2.2.8-2.2 2.8c.04-.03 0 6.5 0 6.5H8.1s.05-7.28 0-7.3c0-1.4-.6-2-1.8-2c-1.3 0-2.1.8-2.1 2.8c-.04-.05 0 6.5 0 6.5H1.4V109h2.7s.02 1.69 0 1.7c.4-.9 1.3-1.9 3-1.9c1.5 0 2.7.7 3.2 1.9c.5-.8 1.3-1.9 3.4-1.9c2.4 0 4 1.5 4 4zm11.9 0v7.8h-2.7s-.02-1.7 0-1.7c-.9 1.5-2.3 1.9-3.5 1.9c-1.9 0-3.8-1.1-3.8-3.6c0-1.8 1-3 3.7-3.4l2.5-.4c.7-.1 1.2-.3 1.2-1c0-1-.9-1.4-2-1.4c-1.5 0-2.1.7-2.2 1.7h-2.7c.3-2.7 2.4-3.9 5.1-3.9c2.7 0 4.4 1.3 4.4 4zm-2.7 2.9v-.6c-.3.1-.8.3-1.4.3l-1.2.2c-1.4.2-1.9.8-1.9 1.5c0 .9.7 1.4 1.6 1.4c1.5 0 2.9-1.1 2.9-2.8zm9.3.4l-1.3 1.4v3.1h-2.8v-16h2.8v9.1l4.2-4.7h3.6l-4.5 5l4.7 6.6h-3.5l-3.2-4.5zm9.6-.5c.1 1.9 1.4 2.8 3 2.8c1.1 0 2.1-.4 2.5-1.5h2.5c-.5 2.6-2.8 3.9-5.1 3.9c-2.8 0-5.6-1.9-5.6-6c0-4 2.6-6 5.6-6c2.8 0 5.2 1.8 5.2 5.7c-.04-.01 0 1.1 0 1.1c0 0-8.1.03-8.1 0zm.1-2h5.2c0-1.5-1-2.4-2.5-2.4c-1.2 0-2.5.7-2.7 2.4zm19.2 3.4c0 2.6-2.3 3.8-4.9 3.8c-2.4 0-5-1-5.2-3.9h2.8c.2 1.1 1.3 1.6 2.6 1.6c1.1 0 2-.4 2-1.2c0-.8-.6-.9-2.2-1.2c-2.2-.4-4.8-.8-4.8-3.6c0-2.6 2.2-3.7 4.6-3.7c2.7 0 4.7 1.3 4.8 3.9h-2.7c-.1-1.1-.9-1.6-2.1-1.6c-1.4 0-1.9.6-1.9 1.3c0 .9 1 1.1 2.4 1.3c2.1.3 4.6.6 4.6 3.3zm16 0c0 2.6-2.3 3.8-4.9 3.8c-2.4 0-5-1-5.2-3.9h2.8c.2 1.1 1.2 1.6 2.5 1.6c1.2 0 2.1-.4 2.1-1.2c0-.8-.6-.9-2.2-1.2c-2.3-.4-4.8-.8-4.8-3.6c0-2.6 2.2-3.7 4.6-3.7c2.7 0 4.7 1.3 4.8 3.9h-2.7c-.1-1.1-.9-1.6-2.1-1.6c-1.4 0-1.9.6-1.9 1.3c0 .9 1 1.1 2.4 1.3c2.1.3 4.6.6 4.6 3.3zm3.9-1.4c0 1.9 1.4 2.8 2.9 2.8c1.1 0 2.2-.4 2.5-1.5h2.6c-.5 2.6-2.8 3.9-5.2 3.9c-2.8 0-5.5-1.9-5.5-6c0-4 2.6-6 5.5-6c2.9 0 5.2 1.8 5.2 5.7c.03-.01 0 1.1 0 1.1c0 0-8.03.03-8 0zm0-2h5.3c0-1.5-1.1-2.4-2.5-2.4c-1.3 0-2.5.7-2.8 2.4zm20.2-.5v7.5h-2.8s.02-7.24 0-7.2c0-1.3-.7-2.1-2-2.1c-1.6 0-2.6 1.1-2.6 3c.02.02 0 6.3 0 6.3H95V109h2.8v1.7c.6-1.1 1.6-1.9 3.5-1.9c2.7 0 3.9 1.5 3.9 4.3zm11.9 3.9c0 2.6-2.3 3.8-4.9 3.8c-2.4 0-5-1-5.2-3.9h2.8c.2 1.1 1.2 1.6 2.5 1.6c1.2 0 2-.4 2-1.2c0-.8-.5-.9-2.1-1.2c-2.3-.4-4.8-.8-4.8-3.6c0-2.6 2.2-3.7 4.5-3.7c2.8 0 4.8 1.3 4.9 3.9h-2.7c-.1-1.1-.9-1.6-2.1-1.6c-1.4 0-1.9.6-1.9 1.3c0 .9 1 1.1 2.4 1.3c2.1.3 4.6.6 4.6 3.3zm3.9-1.4c0 1.9 1.4 2.8 2.9 2.8c1.1 0 2.2-.4 2.5-1.5h2.6c-.5 2.6-2.8 3.9-5.2 3.9c-2.8 0-5.6-1.9-5.6-6c0-4 2.7-6 5.6-6c2.8 0 5.2 1.8 5.2 5.7c.02-.01 0 1.1 0 1.1c0 0-8.04.03-8 0zm0-2h5.3c0-1.5-1.1-2.4-2.5-2.4c-1.3 0-2.5.7-2.8 2.4zm19.4-6.5c-1 0-1.2.4-1.2 1.1v.8h2.1v2.5h-2.1v9.1h-2.8v-9.1h-1.7V109h1.7v-.6c0-3.1 1.4-3.8 3.6-3.8c-.04-.02 1.6 0 1.6 0v2.5s-1.22-.04-1.2 0zm13 7.7c0 3.8-2.4 6-5.7 6c-3.2 0-5.6-2.2-5.6-6c0-3.8 2.4-6 5.6-6c3.3 0 5.7 2.2 5.7 6zm-8.5 0c0 2.3 1.3 3.4 2.9 3.4c1.6 0 2.7-1.2 2.7-3.4c0-2.3-1.3-3.4-2.8-3.4c-1.7 0-2.8 1.2-2.8 3.4zm17-3.2s-.71-.03-.7 0c-2 0-3 1-3 3.3c-.03.01 0 5.7 0 5.7h-2.8V109h2.7s.05 1.65 0 1.6c.6-1.2 1.7-1.7 3.1-1.7c-.03-.04.7 0 .7 0v2.7zm15.7 1.2v7.8h-2.7s-.03-1.7 0-1.7c-.9 1.5-2.3 1.9-3.5 1.9c-1.9 0-3.8-1.1-3.8-3.6c0-1.8 1-3 3.7-3.4l2.5-.4c.7-.1 1.2-.3 1.2-1c0-1-.9-1.4-2-1.4c-1.5 0-2.1.7-2.3 1.7h-2.6c.3-2.7 2.4-3.9 5-3.9c2.8 0 4.5 1.3 4.5 4zm-2.7 2.9v-.6c-.3.1-.8.3-1.4.3l-1.2.2c-1.4.2-1.9.8-1.9 1.5c0 .9.6 1.4 1.6 1.4c1.5 0 2.9-1.1 2.9-2.8zm12-.1c.1 1.9 1.4 2.8 3 2.8c1.1 0 2.1-.4 2.5-1.5h2.5c-.5 2.6-2.8 3.9-5.1 3.9c-2.8 0-5.6-1.9-5.6-6c0-4 2.6-6 5.6-6c2.8 0 5.2 1.8 5.2 5.7c-.02-.01 0 1.1 0 1.1c0 0-8.08.03-8.1 0zm.1-2h5.3c0-1.5-1.1-2.4-2.5-2.4c-1.3 0-2.6.7-2.8 2.4zm20.1 7h-2.7s-.01-1.66 0-1.7c-.7 1.1-1.7 1.8-3.3 1.8c-2.5 0-4.2-1.5-4.2-4.5c-.03-.01 0-7.2 0-7.2h2.8s-.03 6.98 0 7c0 1.6.7 2.2 1.9 2.2c1.6 0 2.7-.9 2.7-3.6c.03 0 0-5.6 0-5.6h2.8v11.6zm9.3-9s-.73-.03-.7 0c-2 0-3.1 1-3.1 3.3c.04.01 0 5.7 0 5.7h-2.7V109h2.7s.02 1.65 0 1.6c.6-1.2 1.7-1.7 3-1.7c.05-.04.8 0 .8 0v2.7zm11.7 3.2c0 3.8-2.4 6-5.6 6c-3.3 0-5.7-2.2-5.7-6c0-3.8 2.4-6 5.7-6c3.2 0 5.6 2.2 5.6 6zm-8.4 0c0 2.3 1.3 3.4 2.8 3.4c1.7 0 2.8-1.2 2.8-3.4c0-2.3-1.3-3.4-2.8-3.4c-1.7 0-2.8 1.2-2.8 3.4z" stroke="none" fill="#000"/></g><g id="Polygon10598"><path d="m16.8 95.4h-2.9l-3.3-11.3l-3.3 11.3H4.4L.3 79.6h3.1l2.6 11l3.2-11h2.9l3.2 11.1l2.6-11.1h3l-4.1 15.8zm16-7.5c-.02.01 0 7.5 0 7.5H30s-.01-7.24 0-7.2c0-1.3-.7-2.1-2-2.1c-1.6 0-2.6 1.1-2.6 3v6.3h-2.8v-16h2.8v6c.7-1.1 1.6-1.8 3.5-1.8c2.6 0 3.9 1.5 3.9 4.3zm11.9-.3c-.03-.01 0 7.8 0 7.8h-2.8s.04-1.7 0-1.7c-.9 1.5-2.3 1.9-3.5 1.9c-1.8 0-3.7-1.1-3.7-3.6c0-1.8 1-3 3.7-3.4l2.5-.4c.7-.1 1.1-.3 1.1-1c0-1-.8-1.4-1.9-1.4c-1.5 0-2.2.7-2.3 1.7h-2.7c.3-2.7 2.5-3.9 5.1-3.9c2.7 0 4.5 1.3 4.5 4zM42 90.5v-.6c-.3.1-.8.3-1.4.3l-1.3.2c-1.4.2-1.8.8-1.8 1.5c0 .9.6 1.4 1.6 1.4c1.4 0 2.9-1.1 2.9-2.8zm11.1 4.9s-1.82-.02-1.8 0c-2.2 0-3.6-.7-3.6-3.8c.03 0 0-5.3 0-5.3h-2.1v-2.5h2.1v-2.6l2.8-.8v3.4h2.3v2.5h-2.3s.03 5.43 0 5.4c0 .7.2 1.2 1.2 1.2h1.4v2.5zm11.5.2c-3.8 0-5.6-2.9-5.6-6c0-3.1 1.8-6 5.6-6c2.9 0 5 1.6 5.1 4.4H67c-.2-1.1-1-1.9-2.3-1.9c-2.1 0-2.9 1.7-2.9 3.5c0 1.9.9 3.4 2.9 3.4c1.3 0 2.1-.7 2.3-1.7h2.8c-.4 2.8-2.4 4.3-5.2 4.3zm17.3-.2h-2.7s.01-1.66 0-1.7c-.7 1.1-1.7 1.8-3.3 1.8c-2.4 0-4.2-1.5-4.2-4.5c-.01-.01 0-7.2 0-7.2h2.8v7c0 1.6.8 2.2 2 2.2c1.5 0 2.6-.9 2.6-3.6c.05 0 0-5.6 0-5.6h2.8v11.6zm9.3-9s-.71-.03-.7 0c-2 0-3 1-3 3.3c-.04.01 0 5.7 0 5.7h-2.8V83.8h2.7s.04 1.65 0 1.6c.6-1.2 1.7-1.7 3.1-1.7c-.03-.04.7 0 .7 0v2.7zm7.9 0s-.7-.03-.7 0c-1.9 0-3 1-3 3.3c-.02.01 0 5.7 0 5.7h-2.8V83.8h2.8s-.04 1.65 0 1.6c.5-1.2 1.6-1.7 3-1.7c-.02-.04.7 0 .7 0v2.7zm3.2 4c0 1.9 1.4 2.8 3 2.8c1 0 2.1-.4 2.4-1.5h2.6c-.5 2.6-2.8 3.9-5.2 3.9c-2.8 0-5.5-1.9-5.5-6c0-4 2.6-6 5.5-6c2.9 0 5.2 1.8 5.2 5.7c.03-.01 0 1.1 0 1.1c0 0-8.03.03-8 0zm0-2h5.3c0-1.5-1.1-2.4-2.5-2.4c-1.3 0-2.5.7-2.8 2.4zm20.2-.5v7.5h-2.8s.02-7.24 0-7.2c0-1.3-.7-2.1-2-2.1c-1.6 0-2.6 1.1-2.6 3c.02.02 0 6.3 0 6.3h-2.8V83.8h2.8v1.7c.7-1.1 1.6-1.9 3.5-1.9c2.7 0 3.9 1.5 3.9 4.3zm7.5 7.7c-3.8 0-5.6-2.9-5.6-6c0-3.1 1.8-6 5.6-6c2.9 0 5 1.6 5.1 4.4h-2.7c-.1-1.1-.9-1.9-2.3-1.9c-2 0-2.9 1.7-2.9 3.5c0 1.9.9 3.4 2.9 3.4c1.3 0 2.1-.7 2.3-1.7h2.8c-.4 2.8-2.4 4.3-5.2 4.3zm17.1-11.8s-4.99 13.32-5 13.3c-.5 1.4-1.7 2-3.3 2c.03-.02-1.7 0-1.7 0v-2.5h1.2c1 0 1.4-.3 1.7-1.1l.2-.6l-4.4-11.1h3l2.8 7.6l2.7-7.6h2.8zm18 5.6c0 4.2-2.6 6.1-5.3 6.1c-1.5 0-2.6-.7-3.2-1.5c-.05 0 0 5.7 0 5.7h-2.8V83.8h2.7s-.01 1.84 0 1.8c.6-1.2 1.9-2 3.6-2c2.7 0 5 1.9 5 5.8zm-2.8.2c0-2.4-1.4-3.5-2.9-3.5c-1.5 0-2.9 1.1-2.9 3.5c0 2.3 1.4 3.4 2.9 3.4c1.5 0 2.9-1.1 2.9-3.4zm15.4 0c0 3.8-2.4 6-5.6 6c-3.3 0-5.7-2.2-5.7-6c0-3.8 2.4-6 5.7-6c3.2 0 5.6 2.2 5.6 6zm-8.4 0c0 2.3 1.2 3.4 2.8 3.4c1.7 0 2.8-1.2 2.8-3.4c0-2.3-1.3-3.4-2.9-3.4c-1.6 0-2.7 1.2-2.7 3.4zm19.7 2.2c0 2.6-2.3 3.8-4.9 3.8c-2.4 0-5-1-5.2-3.9h2.8c.2 1.1 1.2 1.6 2.5 1.6c1.2 0 2-.4 2-1.2c0-.8-.5-.9-2.1-1.2c-2.3-.4-4.9-.8-4.9-3.6c0-2.6 2.2-3.7 4.6-3.7c2.7 0 4.7 1.3 4.9 3.9H186c-.1-1.1-.9-1.6-2.1-1.6c-1.4 0-2 .6-2 1.3c0 .9 1.1 1.1 2.5 1.3c2.1.3 4.6.6 4.6 3.3zm1.8-9.5h2.9v-3.2h-2.9v3.2zm0 1.5h2.8v11.6h-2.8V83.8zm11.5 11.6s-1.86-.02-1.9 0c-2.1 0-3.5-.7-3.5-3.8v-5.3h-2.1v-2.5h2.1v-2.6l2.8-.8v3.4h2.3v2.5h-2.3v5.4c0 .7.2 1.2 1.2 1.2h1.4v2.5zm1.4-13.1h3v-3.2h-3v3.2zm.1 1.5h2.8v11.6h-2.8V83.8zm16.1 5.8c0 3.8-2.4 6-5.7 6c-3.2 0-5.6-2.2-5.6-6c0-3.8 2.4-6 5.6-6c3.3 0 5.7 2.2 5.7 6zm-8.5 0c0 2.3 1.3 3.4 2.9 3.4c1.6 0 2.8-1.2 2.8-3.4c0-2.3-1.3-3.4-2.9-3.4c-1.6 0-2.8 1.2-2.8 3.4zm20.7-1.7v7.5h-2.8v-7.2c0-1.3-.7-2.1-2-2.1c-1.6 0-2.6 1.1-2.6 3v6.3h-2.8V83.8h2.8s-.02 1.67 0 1.7c.6-1.1 1.6-1.9 3.5-1.9c2.7 0 3.9 1.5 3.9 4.3zm2.5-5.6h3v-3.2h-3v3.2zm.1 1.5h2.8v11.6h-2.8V83.8zm15.7 4.1c-.02.01 0 7.5 0 7.5h-2.8s-.01-7.24 0-7.2c0-1.3-.7-2.1-2.1-2.1c-1.5 0-2.5 1.1-2.5 3v6.3h-2.8V83.8h2.8s-.03 1.67 0 1.7c.6-1.1 1.6-1.9 3.5-1.9c2.6 0 3.9 1.5 3.9 4.3zm13 6.7c0 3.7-2.4 5.4-5.5 5.4c-2.8 0-5.1-1.4-5.5-4.3h2.7c.3 1.5 1.5 1.9 2.8 1.9c1.8 0 2.9-.9 2.9-2.7V93c-.6 1.2-1.7 2-3.5 2c-2.6 0-5-1.8-5-5.7c0-3.9 2.4-5.7 5-5.7c1.7 0 2.9.7 3.5 1.8c-.05.01 0-1.6 0-1.6h2.6s.04 10.8 0 10.8zm-2.8-5.3c0-2.2-1.2-3.3-2.7-3.3c-1.5 0-2.9 1.1-2.9 3.3c0 2.2 1.4 3.2 2.9 3.2c1.5 0 2.7-1 2.7-3.2z" stroke="none" fill="#000"/></g><g id="Polygon10597"><path d="m12 70.2H9.3s-.02-1.8 0-1.8c-.6 1.3-2 2-3.6 2c-2.7 0-5.1-2-5.1-6c0-4 2.4-6 5.1-6c1.5 0 2.8.6 3.5 1.7c.02.02 0-5.9 0-5.9h2.8v16zm-2.7-5.8c0-2.4-1.4-3.5-2.9-3.5c-1.5 0-2.9 1.1-2.9 3.5c0 2.3 1.4 3.5 2.9 3.5c1.5 0 2.9-1.2 2.9-3.5zm16 0c0 3.8-2.4 6-5.6 6c-3.3 0-5.7-2.2-5.7-6c0-3.8 2.4-6 5.7-6c3.2 0 5.6 2.2 5.6 6zm-8.4 0c0 2.3 1.2 3.4 2.8 3.4c1.7 0 2.8-1.2 2.8-3.4c0-2.3-1.3-3.4-2.9-3.4c-1.6 0-2.7 1.2-2.7 3.4zm13.2 5.8h-2.8v-16h2.8v16zm5.5 0h-2.8v-16h2.8v16zm12-7.8c.03-.01 0 7.8 0 7.8h-2.7v-1.7c-.9 1.5-2.3 1.9-3.5 1.9c-1.9 0-3.8-1.1-3.8-3.6c0-1.8 1.1-3 3.7-3.4l2.5-.4c.7-.1 1.2-.3 1.2-1c0-1-.8-1.4-2-1.4c-1.4 0-2.1.7-2.2 1.7h-2.7c.3-2.7 2.5-3.9 5.1-3.9c2.7 0 4.4 1.3 4.4 4zm-2.7 2.9v-.6c-.3.1-.8.3-1.3.3l-1.3.2c-1.4.2-1.9.8-1.9 1.5c0 .9.7 1.4 1.6 1.4c1.5 0 2.9-1.1 2.9-2.8zm11.8-4.1s-.74-.03-.7 0c-2 0-3.1 1-3.1 3.3c.04.01 0 5.7 0 5.7h-2.8V58.6h2.8s.02 1.65 0 1.6c.6-1.2 1.7-1.7 3-1.7c.04-.04.8 0 .8 0v2.7zm18.7 9h-2.7l-2.4-7.4l-2.3 7.4h-2.7l-3.9-11.6h3l2.3 7.7l2.3-7.7h2.7l2.4 7.7l2.3-7.7h2.8l-3.8 11.6zm5.2-13.1h3v-3.2h-3v3.2zm.1 1.5h2.8v11.6h-2.8V58.6zM89 70.2h-2.8v-16h2.8v16zm5.5 0h-2.8v-16h2.8v16zm20.7 0h-2.7l-2.4-7.4l-2.3 7.4h-2.7l-3.9-11.6h3l2.3 7.7l2.3-7.7h2.7l2.4 7.7l2.2-7.7h2.9l-3.8 11.6zm7.1-5c0 1.9 1.4 2.8 2.9 2.8c1.1 0 2.2-.4 2.5-1.5h2.6c-.5 2.6-2.8 3.9-5.2 3.9c-2.8 0-5.5-1.9-5.5-6c0-4 2.6-6 5.5-6c2.9 0 5.2 1.8 5.2 5.7c.02-.01 0 1.1 0 1.1c0 0-8.04.03-8 0zm0-2h5.3c0-1.5-1.1-2.4-2.5-2.4c-1.3 0-2.5.7-2.8 2.4zm19.3-.8c-.02-.01 0 7.8 0 7.8h-2.8s.05-1.7 0-1.7c-.9 1.5-2.2 1.9-3.5 1.9c-1.8 0-3.7-1.1-3.7-3.6c0-1.8 1-3 3.7-3.4l2.5-.4c.7-.1 1.2-.3 1.2-1c0-1-.9-1.4-2-1.4c-1.5 0-2.2.7-2.3 1.7H132c.3-2.7 2.5-3.9 5.1-3.9c2.8 0 4.5 1.3 4.5 4zm-2.7 2.9v-.6c-.3.1-.8.3-1.4.3l-1.3.2c-1.4.2-1.8.8-1.8 1.5c0 .9.6 1.4 1.6 1.4c1.4 0 2.9-1.1 2.9-2.8zm9.3.4l-1.3 1.4v3.1h-2.8v-16h2.8v9.1l4.1-4.7h3.7l-4.6 5l4.8 6.6h-3.5l-3.2-4.5zm9.6-.5c0 1.9 1.4 2.8 3 2.8c1 0 2.1-.4 2.4-1.5h2.6c-.5 2.6-2.8 3.9-5.2 3.9c-2.8 0-5.5-1.9-5.5-6c0-4 2.6-6 5.5-6c2.9 0 5.2 1.8 5.2 5.7c.03-.01 0 1.1 0 1.1c0 0-8.03.03-8 0zm0-2h5.3c0-1.5-1.1-2.4-2.5-2.4c-1.3 0-2.5.7-2.8 2.4zm20.2-.5v7.5h-2.8s.02-7.24 0-7.2c0-1.3-.7-2.1-2-2.1c-1.6 0-2.6 1.1-2.6 3c.02.02 0 6.3 0 6.3h-2.8V58.6h2.8v1.7c.7-1.1 1.6-1.9 3.5-1.9c2.7 0 3.9 1.5 3.9 4.3zm8.2-5.6h3v-3.2h-3v3.2zm.1 1.5h2.8v11.6h-2.8V58.6zm15.7 4.1c-.03.01 0 7.5 0 7.5h-2.8s-.02-7.24 0-7.2c0-1.3-.8-2.1-2.1-2.1c-1.6 0-2.5 1.1-2.5 3c-.02.02 0 6.3 0 6.3h-2.8V58.6h2.8s-.04 1.67 0 1.7c.6-1.1 1.6-1.9 3.5-1.9c2.6 0 3.9 1.5 3.9 4.3zm19 7.5h-11.4v-2.6s3.82-3.13 3.8-3.1c2.9-2.4 4.2-3.6 4.2-5.2c0-1.4-1.1-2.2-2.5-2.2c-1.6 0-2.8.9-2.9 2.8h-2.8c0-3.6 2.7-5.5 5.8-5.5c2.9 0 5.3 1.6 5.3 4.7c0 2.7-2 4.5-4.7 6.7l-2.2 1.8h7.4v2.6zm1.3-7.7c0-4.9 1.7-8.1 5.5-8.1c3.8 0 5.5 3.2 5.5 8c0 4.9-1.7 8-5.5 8c-3.8 0-5.5-3.1-5.5-7.9zm8.2 0c0-3.1-.8-5.6-2.8-5.6c-1.7 0-2.6 2-2.6 5.4c0 3.5.9 5.7 2.7 5.7c1.9 0 2.7-2.3 2.7-5.5zm15.7 7.7h-11.4v-2.6s3.82-3.13 3.8-3.1c2.9-2.4 4.2-3.6 4.2-5.2c0-1.4-1.1-2.2-2.5-2.2c-1.6 0-2.8.9-2.9 2.8h-2.8c0-3.6 2.7-5.5 5.8-5.5c2.9 0 5.3 1.6 5.3 4.7c0 2.7-2 4.5-4.7 6.7l-2.2 1.8h7.4v2.6zm12.1-2.6v2.6H248v-2.6h3.7s.04-9.24 0-9.2c-1.2.7-2.6 1.1-3.7 1.2v-2.8c1.3-.2 2.9-.8 4.2-2.1h2.3v12.9h3.8zm1.6-.7h3.2v3.3h-3.2v-3.3z" stroke="none" fill="#000"/></g><g id="Polygon10596"><path d="m12.7 39.2c0 4.1-2.5 6-5.2 6c-1.4 0-2.7-.5-3.4-1.6v1.4H1.4v-16h2.8s-.04 6.09 0 6.1c.6-1.2 1.9-1.9 3.5-1.9c2.7 0 5 2 5 6zm-2.8 0c0-2.3-1.4-3.5-2.9-3.5c-1.5 0-2.9 1.2-2.9 3.5c0 2.4 1.4 3.6 2.9 3.6c1.5 0 2.9-1.2 2.9-3.6zm6.8.8c.1 1.9 1.4 2.8 3 2.8c1.1 0 2.1-.4 2.5-1.5h2.5c-.5 2.6-2.8 3.9-5.1 3.9c-2.8 0-5.6-1.9-5.6-6c0-4 2.6-6 5.6-6c2.8 0 5.2 1.8 5.2 5.7c-.02-.01 0 1.1 0 1.1c0 0-8.08.03-8.1 0zm.1-2h5.2c0-1.5-1-2.4-2.4-2.4c-1.3 0-2.6.7-2.8 2.4zm19.7 7.2c-3.8 0-5.6-2.9-5.6-6c0-3.1 1.8-6 5.6-6c2.8 0 5 1.6 5.1 4.4h-2.7c-.2-1.1-1-1.9-2.3-1.9c-2.1 0-2.9 1.7-2.9 3.5c0 1.9.9 3.4 2.8 3.4c1.4 0 2.2-.7 2.4-1.7h2.8c-.4 2.8-2.4 4.3-5.2 4.3zm17.8-6c0 3.8-2.5 6-5.7 6c-3.2 0-5.7-2.2-5.7-6c0-3.8 2.5-6 5.7-6c3.2 0 5.7 2.2 5.7 6zm-8.5 0c0 2.3 1.3 3.4 2.8 3.4c1.7 0 2.8-1.2 2.8-3.4c0-2.3-1.3-3.4-2.8-3.4c-1.7 0-2.8 1.2-2.8 3.4zm20.6-1.7c.04.01 0 7.5 0 7.5h-2.7s-.05-7.24 0-7.2c0-1.3-.8-2.1-2.1-2.1c-1.6 0-2.5 1.1-2.5 3c-.05.02 0 6.3 0 6.3h-2.8V33.4h2.7s.03 1.67 0 1.7c.7-1.1 1.6-1.9 3.6-1.9c2.6 0 3.8 1.5 3.8 4.3zm11.9 3.9c0 2.6-2.3 3.8-4.9 3.8c-2.4 0-5-1-5.2-3.9h2.8c.2 1.1 1.3 1.6 2.6 1.6c1.1 0 2-.4 2-1.2c0-.8-.6-.9-2.2-1.2c-2.2-.4-4.8-.8-4.8-3.6c0-2.6 2.2-3.7 4.6-3.7c2.7 0 4.7 1.3 4.9 3.9h-2.8c-.1-1.1-.9-1.6-2.1-1.6c-1.4 0-1.9.6-1.9 1.3c0 .9 1 1.1 2.4 1.3c2.1.3 4.6.6 4.6 3.3zm3.9-1.4c.1 1.9 1.4 2.8 3 2.8c1.1 0 2.1-.4 2.5-1.5h2.5c-.5 2.6-2.8 3.9-5.2 3.9c-2.7 0-5.5-1.9-5.5-6c0-4 2.6-6 5.6-6c2.8 0 5.2 1.8 5.2 5.7c-.04-.01 0 1.1 0 1.1c0 0-8.11.03-8.1 0zm.1-2h5.2c0-1.5-1-2.4-2.5-2.4c-1.3 0-2.5.7-2.7 2.4zm20.1-.5c.04.01 0 7.5 0 7.5h-2.8s.04-7.24 0-7.2c0-1.3-.7-2.1-2-2.1c-1.6 0-2.6 1.1-2.6 3c.05.02 0 6.3 0 6.3h-2.7V33.4h2.7s.02 1.67 0 1.7c.7-1.1 1.6-1.9 3.6-1.9c2.6 0 3.8 1.5 3.8 4.3zm11.9 3.9c0 2.6-2.3 3.8-4.9 3.8c-2.4 0-5-1-5.2-3.9h2.8c.2 1.1 1.3 1.6 2.6 1.6c1.1 0 2-.4 2-1.2c0-.8-.6-.9-2.2-1.2c-2.2-.4-4.8-.8-4.8-3.6c0-2.6 2.2-3.7 4.6-3.7c2.7 0 4.7 1.3 4.9 3.9h-2.8c-.1-1.1-.9-1.6-2.1-1.6c-1.4 0-1.9.6-1.9 1.3c0 .9 1 1.1 2.4 1.3c2.1.3 4.6.6 4.6 3.3zm12.1 3.6h-2.8s.03-1.66 0-1.7c-.6 1.1-1.7 1.8-3.3 1.8c-2.4 0-4.2-1.5-4.2-4.5c.01-.01 0-7.2 0-7.2h2.8v7c0 1.6.8 2.2 2 2.2c1.5 0 2.7-.9 2.7-3.6c-.04 0 0-5.6 0-5.6h2.8V45zm11.9-3.6c0 2.6-2.3 3.8-4.9 3.8c-2.4 0-5-1-5.2-3.9h2.9c.1 1.1 1.2 1.6 2.5 1.6c1.2 0 2-.4 2-1.2c0-.8-.6-.9-2.1-1.2c-2.3-.4-4.9-.8-4.9-3.6c0-2.6 2.2-3.7 4.6-3.7c2.7 0 4.7 1.3 4.9 3.9h-2.8c-.1-1.1-.9-1.6-2.1-1.6c-1.3 0-1.9.6-1.9 1.3c0 .9 1 1.1 2.4 1.3c2.1.3 4.6.6 4.6 3.3zm12.9 3.6s-1.83-.02-1.8 0c-2.2 0-3.6-.7-3.6-3.8c.02 0 0-5.3 0-5.3h-2.1v-2.5h2.1v-2.6l2.8-.8v3.4h2.3v2.5h-2.3s.02 5.43 0 5.4c0 .7.2 1.2 1.2 1.2h1.4v2.5zm11.8-7.5c-.04.01 0 7.5 0 7.5h-2.8s-.03-7.24 0-7.2c0-1.3-.8-2.1-2.1-2.1c-1.6 0-2.5 1.1-2.5 3c-.03.02 0 6.3 0 6.3h-2.8v-16h2.8s-.03 6.03 0 6c.6-1.1 1.6-1.8 3.5-1.8c2.6 0 3.9 1.5 3.9 4.3zm11.8-.3c.04-.01 0 7.8 0 7.8h-2.7s.01-1.7 0-1.7c-.9 1.5-2.3 1.9-3.5 1.9c-1.8 0-3.8-1.1-3.8-3.6c0-1.8 1.1-3 3.7-3.4l2.5-.4c.7-.1 1.2-.3 1.2-1c0-1-.8-1.4-1.9-1.4c-1.5 0-2.2.7-2.3 1.7h-2.7c.3-2.7 2.5-3.9 5.1-3.9c2.7 0 4.4 1.3 4.4 4zm-2.7 2.9v-.6c-.2.1-.8.3-1.3.3l-1.3.2c-1.4.2-1.9.8-1.9 1.5c0 .9.7 1.4 1.7 1.4c1.4 0 2.8-1.1 2.8-2.8zm11.2 4.9s-1.84-.02-1.8 0c-2.2 0-3.6-.7-3.6-3.8v-5.3h-2.1v-2.5h2.1v-2.6l2.8-.8v3.4h2.3v2.5h-2.3v5.4c0 .7.2 1.2 1.2 1.2h1.4v2.5zm12.7 0s-1.79-.02-1.8 0c-2.2 0-3.5-.7-3.5-3.8c-.04 0 0-5.3 0-5.3h-2.2v-2.5h2.2v-2.6l2.7-.8v3.4h2.4v2.5h-2.4s.05 5.43 0 5.4c0 .7.2 1.2 1.2 1.2h1.4v2.5zm11.8-7.5v7.5H205v-7.2c0-1.3-.7-2.1-2-2.1c-1.6 0-2.6 1.1-2.6 3v6.3h-2.8v-16h2.8v6c.7-1.1 1.7-1.8 3.5-1.8c2.7 0 3.9 1.5 3.9 4.3zm4.6 2.5c.1 1.9 1.4 2.8 3 2.8c1.1 0 2.1-.4 2.5-1.5h2.5c-.5 2.6-2.8 3.9-5.2 3.9c-2.7 0-5.5-1.9-5.5-6c0-4 2.6-6 5.6-6c2.8 0 5.2 1.8 5.2 5.7c-.04-.01 0 1.1 0 1.1c0 0-8.11.03-8.1 0zm.1-2h5.2c0-1.5-1-2.4-2.5-2.4c-1.3 0-2.5.7-2.7 2.4zm27.7-8.8v9.8c0 4.3-2.5 6.4-6.3 6.4c-3.8 0-6.4-2.1-6.4-6.4v-9.8h2.9v9.6c0 2.5 1.4 3.8 3.6 3.8c2 0 3.3-1.1 3.3-3.5c.02-.02 0-9.9 0-9.9h2.9zm8.6 16.2c-3.2 0-6.5-1.8-6.5-5.8h2.9c.1 2.4 1.9 3.3 3.6 3.3c1.5 0 2.8-.8 2.8-2.1c0-1.6-1.7-2-3.6-2.4c-2.2-.5-5.2-1.3-5.2-4.7c0-3.3 2.7-4.8 5.7-4.8c3 0 5.8 1.5 5.8 4.7h-3c0-1.6-1.4-2.2-2.9-2.2c-1.5 0-2.7.7-2.7 2.1c0 1.5 1.4 1.9 3.2 2.3c2 .5 5.7 1.1 5.7 4.8c0 3.1-2.7 4.8-5.8 4.8z" stroke="none" fill="#000"/></g><g id="Polygon10595"><path d="m13.2 6.8H8v13H5.1v-13H0V4h13.2v2.8zm11.5 5.5c.04.01 0 7.5 0 7.5h-2.8s.04-7.24 0-7.2c0-1.3-.7-2.1-2-2.1c-1.6 0-2.6 1.1-2.6 3c.05.02 0 6.3 0 6.3h-2.7v-16h2.7s.05 6.03 0 6C18 8.7 19 8 20.9 8c2.6 0 3.8 1.5 3.8 4.3zm4.6 2.5c.1 1.9 1.4 2.8 3 2.8c1.1 0 2.2-.4 2.5-1.5h2.6c-.5 2.6-2.8 3.9-5.2 3.9c-2.8 0-5.6-1.9-5.6-6c0-4 2.7-6 5.6-6c2.8 0 5.2 1.8 5.2 5.7v1.1s-8.06.03-8.1 0zm.1-2h5.3c0-1.5-1.1-2.4-2.5-2.4c-1.3 0-2.5.7-2.8 2.4zm16.5-2s-.69-.03-.7 0c-1.9 0-3 1-3 3.3v5.7h-2.8V8.2h2.8s-.03 1.65 0 1.6c.6-1.2 1.6-1.7 3-1.7c-.01-.04.7 0 .7 0v2.7zm3.2 4c0 1.9 1.4 2.8 3 2.8c1.1 0 2.1-.4 2.4-1.5h2.6c-.5 2.6-2.8 3.9-5.2 3.9c-2.8 0-5.5-1.9-5.5-6c0-4 2.6-6 5.6-6c2.8 0 5.1 1.8 5.1 5.7c.04-.01 0 1.1 0 1.1c0 0-8.02.03-8 0zm0-2h5.3c0-1.5-1.1-2.4-2.5-2.4c-1.3 0-2.5.7-2.8 2.4zm24.1 3.4c0 2.6-2.3 3.8-4.9 3.8c-2.4 0-5-1-5.2-3.9h2.8c.2 1.1 1.3 1.6 2.6 1.6c1.1 0 2-.4 2-1.2c0-.8-.6-.9-2.2-1.2c-2.2-.4-4.8-.8-4.8-3.6c0-2.6 2.2-3.7 4.6-3.7c2.7 0 4.7 1.3 4.9 3.9h-2.8c-.1-1.1-.9-1.6-2.1-1.6c-1.4 0-1.9.6-1.9 1.3c0 .9 1 1.1 2.4 1.3c2.1.3 4.6.6 4.6 3.3zm3.9-1.4c.1 1.9 1.4 2.8 3 2.8c1.1 0 2.1-.4 2.5-1.5h2.5c-.5 2.6-2.8 3.9-5.2 3.9c-2.7 0-5.5-1.9-5.5-6c0-4 2.6-6 5.6-6c2.8 0 5.2 1.8 5.2 5.7c-.05-.01 0 1.1 0 1.1c0 0-8.11.03-8.1 0zm.1-2h5.2c0-1.5-1-2.4-2.5-2.4c-1.3 0-2.5.7-2.7 2.4zm11.9 2c.1 1.9 1.4 2.8 3 2.8c1.1 0 2.1-.4 2.5-1.5h2.5c-.5 2.6-2.7 3.9-5.1 3.9c-2.8 0-5.6-1.9-5.6-6c0-4 2.6-6 5.6-6c2.8 0 5.2 1.8 5.2 5.7c-.01-.01 0 1.1 0 1.1c0 0-8.08.03-8.1 0zm.1-2h5.3c0-1.5-1.1-2.4-2.5-2.4c-1.3 0-2.6.7-2.8 2.4zm26.3-.8c.04-.03 0 7.8 0 7.8h-2.8s.05-7.28 0-7.3c0-1.4-.6-2-1.8-2c-1.3 0-2.1.8-2.1 2.8c-.04-.03 0 6.5 0 6.5H106s-.03-7.28 0-7.3c0-1.4-.7-2-1.9-2c-1.3 0-2.1.8-2.1 2.8c-.02-.05 0 6.5 0 6.5h-2.8V8.2h2.7s.03 1.69 0 1.7c.4-.9 1.3-1.9 3-1.9c1.5 0 2.7.7 3.2 1.9c.5-.8 1.3-1.9 3.4-1.9c2.5 0 4 1.5 4 4zm11.9 4.2c0 2.6-2.3 3.8-4.9 3.8c-2.4 0-5-1-5.2-3.9h2.8c.2 1.1 1.3 1.6 2.6 1.6c1.1 0 2-.4 2-1.2c0-.8-.6-.9-2.2-1.2c-2.2-.4-4.8-.8-4.8-3.6c0-2.6 2.2-3.7 4.6-3.7c2.7 0 4.7 1.3 4.9 3.9h-2.8c-.1-1.1-.9-1.6-2.1-1.6c-1.4 0-1.9.6-1.9 1.3c0 .9 1 1.1 2.4 1.3c2.1.3 4.6.6 4.6 3.3zm12.9 3.6s-1.85-.02-1.8 0c-2.2 0-3.6-.7-3.6-3.8v-5.3h-2.1V8.2h2.1V5.6l2.8-.8v3.4h2.3v2.5h-2.3v5.4c0 .7.2 1.2 1.2 1.2h1.4v2.5zm12.1-5.8c0 3.8-2.4 6-5.6 6c-3.3 0-5.7-2.2-5.7-6c0-3.8 2.4-6 5.7-6c3.2 0 5.6 2.2 5.6 6zm-8.4 0c0 2.3 1.3 3.4 2.8 3.4c1.7 0 2.8-1.2 2.8-3.4c0-2.3-1.3-3.4-2.9-3.4c-1.6 0-2.7 1.2-2.7 3.4z" stroke="none" fill="#000"/></g></svg>