<?xml version="1.0" standalone="no"?><!DOCTYPE svg PUBLIC "-//W3C//DTD SVG 1.1//EN" "http://www.w3.org/Graphics/SVG/1.1/DTD/svg11.dtd"><svg xmlns="http://www.w3.org/2000/svg" version="1.1" width="437.4px" height="111.4px" viewBox="0 -4 437.4 111.4" style="top:-4px">  <desc>With more than 30% of the bonds universe offering negative yields, where should clients invest</desc>  <defs/>  <g id="Polygon10106">    <path d="M 6.3 70.4 C 2.5 70.4 0.6 67.5 0.6 64.4 C 0.6 61.3 2.4 58.4 6.2 58.4 C 9.1 58.4 11.3 60 11.4 62.8 C 11.4 62.8 8.6 62.8 8.6 62.8 C 8.5 61.7 7.7 60.9 6.3 60.9 C 4.3 60.9 3.4 62.6 3.4 64.4 C 3.4 66.3 4.3 67.8 6.3 67.8 C 7.6 67.8 8.5 67.1 8.7 66.1 C 8.7 66.1 11.4 66.1 11.4 66.1 C 11.1 68.9 9.1 70.4 6.3 70.4 Z M 16.2 70.2 L 13.4 70.2 L 13.4 54.2 L 16.2 54.2 L 16.2 70.2 Z M 18.9 57.1 L 21.8 57.1 L 21.8 53.9 L 18.9 53.9 L 18.9 57.1 Z M 18.9 58.6 L 21.7 58.6 L 21.7 70.2 L 18.9 70.2 L 18.9 58.6 Z M 26.4 65.2 C 26.5 67.1 27.8 68 29.4 68 C 30.5 68 31.5 67.6 31.9 66.5 C 31.9 66.5 34.4 66.5 34.4 66.5 C 33.9 69.1 31.6 70.4 29.3 70.4 C 26.5 70.4 23.7 68.5 23.7 64.4 C 23.7 60.4 26.3 58.4 29.3 58.4 C 32.1 58.4 34.5 60.2 34.5 64.1 C 34.48 64.09 34.5 65.2 34.5 65.2 C 34.5 65.2 26.42 65.23 26.4 65.2 Z M 26.5 63.2 C 26.5 63.2 31.8 63.2 31.8 63.2 C 31.8 61.7 30.7 60.8 29.3 60.8 C 28 60.8 26.7 61.5 26.5 63.2 Z M 46.7 62.7 C 46.66 62.71 46.7 70.2 46.7 70.2 L 43.9 70.2 C 43.9 70.2 43.87 62.96 43.9 63 C 43.9 61.7 43.1 60.9 41.8 60.9 C 40.2 60.9 39.3 62 39.3 63.9 C 39.27 63.92 39.3 70.2 39.3 70.2 L 36.5 70.2 L 36.5 58.6 L 39.2 58.6 C 39.2 58.6 39.25 60.27 39.2 60.3 C 39.9 59.2 40.8 58.4 42.8 58.4 C 45.4 58.4 46.7 59.9 46.7 62.7 Z M 55.2 70.2 C 55.2 70.2 53.38 70.18 53.4 70.2 C 51.2 70.2 49.8 69.5 49.8 66.4 C 49.83 66.4 49.8 61.1 49.8 61.1 L 47.7 61.1 L 47.7 58.6 L 49.8 58.6 L 49.8 56 L 52.6 55.2 L 52.6 58.6 L 54.9 58.6 L 54.9 61.1 L 52.6 61.1 C 52.6 61.1 52.62 66.53 52.6 66.5 C 52.6 67.2 52.8 67.7 53.8 67.7 C 53.8 67.7 55.2 67.7 55.2 67.7 L 55.2 70.2 Z M 66 66.6 C 66 69.2 63.7 70.4 61.1 70.4 C 58.7 70.4 56.1 69.4 55.9 66.5 C 55.9 66.5 58.8 66.5 58.8 66.5 C 58.9 67.6 60 68.1 61.3 68.1 C 62.5 68.1 63.3 67.7 63.3 66.9 C 63.3 66.1 62.7 66 61.2 65.7 C 58.9 65.3 56.3 64.9 56.3 62.1 C 56.3 59.5 58.5 58.4 60.9 58.4 C 63.6 58.4 65.6 59.7 65.8 62.3 C 65.8 62.3 63 62.3 63 62.3 C 62.9 61.2 62.1 60.7 60.9 60.7 C 59.6 60.7 59 61.3 59 62 C 59 62.9 60 63.1 61.4 63.3 C 63.5 63.6 66 63.9 66 66.6 Z M 73.1 57.1 L 76 57.1 L 76 53.9 L 73.1 53.9 L 73.1 57.1 Z M 73.2 58.6 L 76 58.6 L 76 70.2 L 73.2 70.2 L 73.2 58.6 Z M 88.8 62.7 C 88.85 62.71 88.8 70.2 88.8 70.2 L 86.1 70.2 C 86.1 70.2 86.06 62.96 86.1 63 C 86.1 61.7 85.3 60.9 84 60.9 C 82.4 60.9 81.5 62 81.5 63.9 C 81.46 63.92 81.5 70.2 81.5 70.2 L 78.7 70.2 L 78.7 58.6 L 81.4 58.6 C 81.4 58.6 81.44 60.27 81.4 60.3 C 82.1 59.2 83 58.4 85 58.4 C 87.6 58.4 88.8 59.9 88.8 62.7 Z M 97.4 70.2 L 94.4 70.2 L 90.1 58.6 L 93.1 58.6 L 95.9 66.9 L 98.8 58.6 L 101.7 58.6 L 97.4 70.2 Z M 104.8 65.2 C 104.9 67.1 106.2 68 107.8 68 C 108.9 68 109.9 67.6 110.2 66.5 C 110.2 66.5 112.8 66.5 112.8 66.5 C 112.3 69.1 110 70.4 107.6 70.4 C 104.9 70.4 102.1 68.5 102.1 64.4 C 102.1 60.4 104.7 58.4 107.7 58.4 C 110.5 58.4 112.9 60.2 112.9 64.1 C 112.85 64.09 112.9 65.2 112.9 65.2 C 112.9 65.2 104.79 65.23 104.8 65.2 Z M 104.9 63.2 C 104.9 63.2 110.1 63.2 110.1 63.2 C 110.1 61.7 109.1 60.8 107.6 60.8 C 106.3 60.8 105.1 61.5 104.9 63.2 Z M 124.1 66.6 C 124.1 69.2 121.8 70.4 119.2 70.4 C 116.8 70.4 114.2 69.4 114 66.5 C 114 66.5 116.8 66.5 116.8 66.5 C 117 67.6 118 68.1 119.3 68.1 C 120.5 68.1 121.4 67.7 121.4 66.9 C 121.4 66.1 120.8 66 119.2 65.7 C 116.9 65.3 114.4 64.9 114.4 62.1 C 114.4 59.5 116.6 58.4 119 58.4 C 121.7 58.4 123.7 59.7 123.8 62.3 C 123.8 62.3 121.1 62.3 121.1 62.3 C 121 61.2 120.2 60.7 119 60.7 C 117.6 60.7 117.1 61.3 117.1 62 C 117.1 62.9 118.1 63.1 119.5 63.3 C 121.6 63.6 124.1 63.9 124.1 66.6 Z M 131.9 70.2 C 131.9 70.2 130.09 70.18 130.1 70.2 C 127.9 70.2 126.5 69.5 126.5 66.4 C 126.54 66.4 126.5 61.1 126.5 61.1 L 124.4 61.1 L 124.4 58.6 L 126.5 58.6 L 126.5 56 L 129.3 55.2 L 129.3 58.6 L 131.6 58.6 L 131.6 61.1 L 129.3 61.1 C 129.3 61.1 129.34 66.53 129.3 66.5 C 129.3 67.2 129.5 67.7 130.5 67.7 C 130.51 67.7 131.9 67.7 131.9 67.7 L 131.9 70.2 Z M 136.3 64.6 C 136.3 61.9 137.6 61.4 138.9 60.5 C 139.9 59.8 140.3 59.2 140.3 58.4 C 140.3 57.2 139.5 56.6 138.2 56.6 C 136.8 56.6 135.9 57.4 135.8 58.8 C 135.8 58.8 133 58.8 133 58.8 C 133.2 55.4 135.7 54.2 138.3 54.2 C 141.1 54.2 143.3 55.5 143.3 58.3 C 143.3 60.5 141.9 61.4 140.5 62.4 C 139.4 63.2 138.9 63.7 138.9 64.6 C 138.93 64.64 138.9 65.3 138.9 65.3 L 136.3 65.3 C 136.3 65.3 136.27 64.55 136.3 64.6 Z M 136 66.9 L 139.2 66.9 L 139.2 70.2 L 136 70.2 L 136 66.9 Z " stroke="none" fill="#000"/>  </g>  <g id="Polygon10105">    <path d="M 11.9 39.2 C 11.9 43 9.5 45.2 6.3 45.2 C 3 45.2 0.6 43 0.6 39.2 C 0.6 35.4 3 33.2 6.3 33.2 C 9.5 33.2 11.9 35.4 11.9 39.2 Z M 3.5 39.2 C 3.5 41.5 4.8 42.6 6.3 42.6 C 8 42.6 9.1 41.4 9.1 39.2 C 9.1 36.9 7.8 35.8 6.3 35.8 C 4.6 35.8 3.5 37 3.5 39.2 Z M 24.3 32.6 C 24.32 32.63 24.3 33.4 24.3 33.4 L 26.5 33.4 L 26.5 35.9 L 24.3 35.9 L 24.3 45 L 21.5 45 L 21.5 35.9 L 17.1 35.9 L 17.1 45 L 14.3 45 L 14.3 35.9 L 12.6 35.9 L 12.6 33.4 L 14.3 33.4 C 14.3 33.4 14.3 32.76 14.3 32.8 C 14.3 29.7 15.7 29 17.8 29 C 17.85 28.98 19.5 29 19.5 29 L 19.5 31.5 C 19.5 31.5 18.27 31.46 18.3 31.5 C 17.3 31.5 17.1 31.9 17.1 32.6 C 17.09 32.63 17.1 33.4 17.1 33.4 L 21.5 33.4 C 21.5 33.4 21.52 32.76 21.5 32.8 C 21.5 29.7 22.9 29 25.1 29 C 25.07 28.98 26.8 29 26.8 29 L 26.8 31.5 C 26.8 31.5 25.49 31.46 25.5 31.5 C 24.5 31.5 24.3 31.9 24.3 32.6 Z M 29.9 40 C 29.9 41.9 31.3 42.8 32.9 42.8 C 34 42.8 35 42.4 35.3 41.3 C 35.3 41.3 37.9 41.3 37.9 41.3 C 37.4 43.9 35.1 45.2 32.7 45.2 C 29.9 45.2 27.2 43.3 27.2 39.2 C 27.2 35.2 29.8 33.2 32.8 33.2 C 35.6 33.2 37.9 35 37.9 38.9 C 37.95 38.89 37.9 40 37.9 40 C 37.9 40 29.88 40.03 29.9 40 Z M 29.9 38 C 29.9 38 35.2 38 35.2 38 C 35.2 36.5 34.1 35.6 32.7 35.6 C 31.4 35.6 30.2 36.3 29.9 38 Z M 46.5 36 C 46.5 36 45.76 35.97 45.8 36 C 43.8 36 42.7 37 42.7 39.3 C 42.73 39.31 42.7 45 42.7 45 L 39.9 45 L 39.9 33.4 L 42.7 33.4 C 42.7 33.4 42.71 35.05 42.7 35 C 43.3 33.8 44.4 33.3 45.7 33.3 C 45.74 33.26 46.5 33.3 46.5 33.3 L 46.5 36 Z M 47.8 31.9 L 50.7 31.9 L 50.7 28.7 L 47.8 28.7 L 47.8 31.9 Z M 47.8 33.4 L 50.6 33.4 L 50.6 45 L 47.8 45 L 47.8 33.4 Z M 63.5 37.5 C 63.52 37.51 63.5 45 63.5 45 L 60.7 45 C 60.7 45 60.73 37.76 60.7 37.8 C 60.7 36.5 60 35.7 58.7 35.7 C 57.1 35.7 56.1 36.8 56.1 38.7 C 56.13 38.72 56.1 45 56.1 45 L 53.3 45 L 53.3 33.4 L 56.1 33.4 C 56.1 33.4 56.11 35.07 56.1 35.1 C 56.8 34 57.7 33.2 59.6 33.2 C 62.3 33.2 63.5 34.7 63.5 37.5 Z M 76.6 44.2 C 76.6 47.9 74.2 49.6 71.1 49.6 C 68.2 49.6 65.9 48.2 65.6 45.3 C 65.6 45.3 68.3 45.3 68.3 45.3 C 68.6 46.8 69.8 47.2 71.1 47.2 C 72.9 47.2 73.9 46.3 73.9 44.5 C 73.9 44.5 73.9 42.6 73.9 42.6 C 73.4 43.8 72.2 44.6 70.5 44.6 C 67.9 44.6 65.4 42.8 65.4 38.9 C 65.4 35 67.9 33.2 70.5 33.2 C 72.1 33.2 73.3 33.9 73.9 35 C 73.9 35.01 73.9 33.4 73.9 33.4 L 76.6 33.4 C 76.6 33.4 76.59 44.2 76.6 44.2 Z M 73.8 38.9 C 73.8 36.7 72.6 35.6 71.1 35.6 C 69.5 35.6 68.2 36.7 68.2 38.9 C 68.2 41.1 69.5 42.1 71.1 42.1 C 72.6 42.1 73.8 41.1 73.8 38.9 Z M 95.1 37.5 C 95.07 37.51 95.1 45 95.1 45 L 92.3 45 C 92.3 45 92.27 37.76 92.3 37.8 C 92.3 36.5 91.5 35.7 90.2 35.7 C 88.6 35.7 87.7 36.8 87.7 38.7 C 87.67 38.72 87.7 45 87.7 45 L 84.9 45 L 84.9 33.4 L 87.7 33.4 C 87.7 33.4 87.65 35.07 87.7 35.1 C 88.3 34 89.2 33.2 91.2 33.2 C 93.8 33.2 95.1 34.7 95.1 37.5 Z M 99.7 40 C 99.7 41.9 101.1 42.8 102.6 42.8 C 103.7 42.8 104.8 42.4 105.1 41.3 C 105.1 41.3 107.7 41.3 107.7 41.3 C 107.2 43.9 104.9 45.2 102.5 45.2 C 99.7 45.2 97 43.3 97 39.2 C 97 35.2 99.6 33.2 102.5 33.2 C 105.4 33.2 107.7 35 107.7 38.9 C 107.73 38.89 107.7 40 107.7 40 C 107.7 40 99.66 40.03 99.7 40 Z M 99.7 38 C 99.7 38 105 38 105 38 C 105 36.5 103.9 35.6 102.5 35.6 C 101.2 35.6 100 36.3 99.7 38 Z M 120.2 44.2 C 120.2 47.9 117.8 49.6 114.6 49.6 C 111.8 49.6 109.5 48.2 109.2 45.3 C 109.2 45.3 111.9 45.3 111.9 45.3 C 112.2 46.8 113.3 47.2 114.6 47.2 C 116.4 47.2 117.5 46.3 117.5 44.5 C 117.5 44.5 117.5 42.6 117.5 42.6 C 116.9 43.8 115.8 44.6 114 44.6 C 111.4 44.6 109 42.8 109 38.9 C 109 35 111.4 33.2 114 33.2 C 115.7 33.2 116.9 33.9 117.5 35 C 117.47 35.01 117.5 33.4 117.5 33.4 L 120.2 33.4 C 120.2 33.4 120.16 44.2 120.2 44.2 Z M 117.4 38.9 C 117.4 36.7 116.1 35.6 114.6 35.6 C 113.1 35.6 111.7 36.7 111.7 38.9 C 111.7 41.1 113.1 42.1 114.6 42.1 C 116.1 42.1 117.4 41.1 117.4 38.9 Z M 132 37.2 C 132.05 37.19 132 45 132 45 L 129.3 45 C 129.3 45 129.32 43.3 129.3 43.3 C 128.4 44.8 127 45.2 125.8 45.2 C 124 45.2 122.1 44.1 122.1 41.6 C 122.1 39.8 123.1 38.6 125.7 38.2 C 125.7 38.2 128.2 37.8 128.2 37.8 C 128.9 37.7 129.4 37.5 129.4 36.8 C 129.4 35.8 128.6 35.4 127.5 35.4 C 126 35.4 125.3 36.1 125.2 37.1 C 125.2 37.1 122.5 37.1 122.5 37.1 C 122.8 34.4 125 33.2 127.6 33.2 C 130.3 33.2 132 34.5 132 37.2 Z M 129.3 40.1 C 129.3 40.1 129.3 39.5 129.3 39.5 C 129.1 39.6 128.5 39.8 128 39.8 C 128 39.8 126.7 40 126.7 40 C 125.3 40.2 124.8 40.8 124.8 41.5 C 124.8 42.4 125.5 42.9 126.5 42.9 C 127.9 42.9 129.3 41.8 129.3 40.1 Z M 140.5 45 C 140.5 45 138.66 44.98 138.7 45 C 136.5 45 135.1 44.3 135.1 41.2 C 135.11 41.2 135.1 35.9 135.1 35.9 L 133 35.9 L 133 33.4 L 135.1 33.4 L 135.1 30.8 L 137.9 30 L 137.9 33.4 L 140.2 33.4 L 140.2 35.9 L 137.9 35.9 C 137.9 35.9 137.91 41.33 137.9 41.3 C 137.9 42 138.1 42.5 139.1 42.5 C 139.08 42.5 140.5 42.5 140.5 42.5 L 140.5 45 Z M 142 31.9 L 144.9 31.9 L 144.9 28.7 L 142 28.7 L 142 31.9 Z M 142 33.4 L 144.8 33.4 L 144.8 45 L 142 45 L 142 33.4 Z M 153.4 45 L 150.5 45 L 146.2 33.4 L 149.1 33.4 L 152 41.7 L 154.8 33.4 L 157.7 33.4 L 153.4 45 Z M 160.9 40 C 160.9 41.9 162.3 42.8 163.8 42.8 C 164.9 42.8 166 42.4 166.3 41.3 C 166.3 41.3 168.9 41.3 168.9 41.3 C 168.4 43.9 166.1 45.2 163.7 45.2 C 160.9 45.2 158.1 43.3 158.1 39.2 C 158.1 35.2 160.8 33.2 163.7 33.2 C 166.5 33.2 168.9 35 168.9 38.9 C 168.92 38.89 168.9 40 168.9 40 C 168.9 40 160.86 40.03 160.9 40 Z M 160.9 38 C 160.9 38 166.2 38 166.2 38 C 166.2 36.5 165.1 35.6 163.7 35.6 C 162.4 35.6 161.2 36.3 160.9 38 Z M 185.7 33.4 C 185.7 33.4 180.64 46.72 180.6 46.7 C 180.1 48.1 178.9 48.7 177.4 48.7 C 177.36 48.68 175.6 48.7 175.6 48.7 L 175.6 46.2 C 175.6 46.2 176.88 46.2 176.9 46.2 C 177.8 46.2 178.3 45.9 178.5 45.1 C 178.54 45.07 178.7 44.5 178.7 44.5 L 174.4 33.4 L 177.3 33.4 L 180.1 41 L 182.8 33.4 L 185.7 33.4 Z M 186.9 31.9 L 189.9 31.9 L 189.9 28.7 L 186.9 28.7 L 186.9 31.9 Z M 187 33.4 L 189.8 33.4 L 189.8 45 L 187 45 L 187 33.4 Z M 194.5 40 C 194.6 41.9 195.9 42.8 197.5 42.8 C 198.6 42.8 199.6 42.4 200 41.3 C 200 41.3 202.5 41.3 202.5 41.3 C 202 43.9 199.7 45.2 197.4 45.2 C 194.6 45.2 191.8 43.3 191.8 39.2 C 191.8 35.2 194.4 33.2 197.4 33.2 C 200.2 33.2 202.6 35 202.6 38.9 C 202.56 38.89 202.6 40 202.6 40 C 202.6 40 194.5 40.03 194.5 40 Z M 194.6 38 C 194.6 38 199.8 38 199.8 38 C 199.8 36.5 198.8 35.6 197.3 35.6 C 196.1 35.6 194.8 36.3 194.6 38 Z M 207.4 45 L 204.6 45 L 204.6 29 L 207.4 29 L 207.4 45 Z M 220.7 45 L 218 45 C 218 45 218 43.2 218 43.2 C 217.4 44.5 216 45.2 214.4 45.2 C 211.7 45.2 209.3 43.2 209.3 39.2 C 209.3 35.2 211.7 33.2 214.4 33.2 C 215.9 33.2 217.2 33.8 217.9 34.9 C 217.94 34.92 217.9 29 217.9 29 L 220.7 29 L 220.7 45 Z M 218 39.2 C 218 36.8 216.6 35.7 215.1 35.7 C 213.6 35.7 212.2 36.8 212.2 39.2 C 212.2 41.5 213.6 42.7 215.1 42.7 C 216.6 42.7 218 41.5 218 39.2 Z M 232.7 41.4 C 232.7 44 230.4 45.2 227.8 45.2 C 225.4 45.2 222.8 44.2 222.6 41.3 C 222.6 41.3 225.4 41.3 225.4 41.3 C 225.6 42.4 226.6 42.9 228 42.9 C 229.1 42.9 230 42.5 230 41.7 C 230 40.9 229.4 40.8 227.8 40.5 C 225.6 40.1 223 39.7 223 36.9 C 223 34.3 225.2 33.2 227.6 33.2 C 230.3 33.2 232.3 34.5 232.4 37.1 C 232.4 37.1 229.7 37.1 229.7 37.1 C 229.6 36 228.8 35.5 227.6 35.5 C 226.2 35.5 225.7 36.1 225.7 36.8 C 225.7 37.7 226.7 37.9 228.1 38.1 C 230.2 38.4 232.7 38.7 232.7 41.4 Z M 236.1 44.8 C 236.1 44.79 234.7 44.8 234.7 44.8 L 234.7 41.9 L 237.9 41.9 C 237.9 41.9 237.88 44.39 237.9 44.4 C 237.9 47.4 235.8 48.5 233.9 48.7 C 233.9 48.7 233.7 47.2 233.7 47.2 C 235.2 47 236.1 46.1 236.1 44.8 Z M 257.2 45 L 254.5 45 L 252.1 37.6 L 249.8 45 L 247.1 45 L 243.2 33.4 L 246.2 33.4 L 248.5 41.1 L 250.8 33.4 L 253.6 33.4 L 255.9 41.1 L 258.2 33.4 L 261 33.4 L 257.2 45 Z M 272.7 37.5 C 272.7 37.51 272.7 45 272.7 45 L 269.9 45 C 269.9 45 269.91 37.76 269.9 37.8 C 269.9 36.5 269.2 35.7 267.9 35.7 C 266.3 35.7 265.3 36.8 265.3 38.7 C 265.31 38.72 265.3 45 265.3 45 L 262.5 45 L 262.5 29 L 265.3 29 C 265.3 29 265.31 35.03 265.3 35 C 266 33.9 267 33.2 268.8 33.2 C 271.5 33.2 272.7 34.7 272.7 37.5 Z M 277.3 40 C 277.4 41.9 278.7 42.8 280.3 42.8 C 281.4 42.8 282.4 42.4 282.8 41.3 C 282.8 41.3 285.3 41.3 285.3 41.3 C 284.8 43.9 282.5 45.2 280.2 45.2 C 277.4 45.2 274.6 43.3 274.6 39.2 C 274.6 35.2 277.2 33.2 280.2 33.2 C 283 33.2 285.4 35 285.4 38.9 C 285.37 38.89 285.4 40 285.4 40 C 285.4 40 277.3 40.03 277.3 40 Z M 277.4 38 C 277.4 38 282.6 38 282.6 38 C 282.6 36.5 281.6 35.6 280.1 35.6 C 278.9 35.6 277.6 36.3 277.4 38 Z M 293.9 36 C 293.9 36 293.18 35.97 293.2 36 C 291.2 36 290.2 37 290.2 39.3 C 290.15 39.31 290.2 45 290.2 45 L 287.4 45 L 287.4 33.4 L 290.1 33.4 C 290.1 33.4 290.13 35.05 290.1 35 C 290.7 33.8 291.8 33.3 293.2 33.3 C 293.16 33.26 293.9 33.3 293.9 33.3 L 293.9 36 Z M 297 40 C 297.1 41.9 298.4 42.8 300 42.8 C 301.1 42.8 302.2 42.4 302.5 41.3 C 302.5 41.3 305.1 41.3 305.1 41.3 C 304.6 43.9 302.3 45.2 299.9 45.2 C 297.1 45.2 294.3 43.3 294.3 39.2 C 294.3 35.2 297 33.2 299.9 33.2 C 302.7 33.2 305.1 35 305.1 38.9 C 305.11 38.89 305.1 40 305.1 40 C 305.1 40 297.04 40.03 297 40 Z M 297.1 38 C 297.1 38 302.4 38 302.4 38 C 302.4 36.5 301.3 35.6 299.9 35.6 C 298.6 35.6 297.4 36.3 297.1 38 Z M 321.2 41.4 C 321.2 44 318.9 45.2 316.3 45.2 C 313.9 45.2 311.3 44.2 311.1 41.3 C 311.1 41.3 313.9 41.3 313.9 41.3 C 314.1 42.4 315.1 42.9 316.4 42.9 C 317.6 42.9 318.4 42.5 318.4 41.7 C 318.4 40.9 317.9 40.8 316.3 40.5 C 314 40.1 311.4 39.7 311.4 36.9 C 311.4 34.3 313.7 33.2 316 33.2 C 318.8 33.2 320.8 34.5 320.9 37.1 C 320.9 37.1 318.2 37.1 318.2 37.1 C 318.1 36 317.3 35.5 316.1 35.5 C 314.7 35.5 314.2 36.1 314.2 36.8 C 314.2 37.7 315.2 37.9 316.6 38.1 C 318.7 38.4 321.2 38.7 321.2 41.4 Z M 333.3 37.5 C 333.27 37.51 333.3 45 333.3 45 L 330.5 45 C 330.5 45 330.47 37.76 330.5 37.8 C 330.5 36.5 329.7 35.7 328.4 35.7 C 326.8 35.7 325.9 36.8 325.9 38.7 C 325.87 38.72 325.9 45 325.9 45 L 323.1 45 L 323.1 29 L 325.9 29 C 325.9 29 325.87 35.03 325.9 35 C 326.5 33.9 327.5 33.2 329.4 33.2 C 332 33.2 333.3 34.7 333.3 37.5 Z M 346.5 39.2 C 346.5 43 344.1 45.2 340.8 45.2 C 337.6 45.2 335.2 43 335.2 39.2 C 335.2 35.4 337.6 33.2 340.8 33.2 C 344.1 33.2 346.5 35.4 346.5 39.2 Z M 338 39.2 C 338 41.5 339.3 42.6 340.8 42.6 C 342.5 42.6 343.6 41.4 343.6 39.2 C 343.6 36.9 342.3 35.8 340.8 35.8 C 339.1 35.8 338 37 338 39.2 Z M 358.6 45 L 355.9 45 C 355.9 45 355.88 43.34 355.9 43.3 C 355.2 44.4 354.2 45.1 352.5 45.1 C 350.1 45.1 348.4 43.6 348.4 40.6 C 348.36 40.59 348.4 33.4 348.4 33.4 L 351.2 33.4 C 351.2 33.4 351.16 40.38 351.2 40.4 C 351.2 42 351.9 42.6 353.1 42.6 C 354.7 42.6 355.8 41.7 355.8 39 C 355.82 39 355.8 33.4 355.8 33.4 L 358.6 33.4 L 358.6 45 Z M 364.1 45 L 361.3 45 L 361.3 29 L 364.1 29 L 364.1 45 Z M 377.5 45 L 374.8 45 C 374.8 45 374.78 43.2 374.8 43.2 C 374.2 44.5 372.8 45.2 371.2 45.2 C 368.5 45.2 366.1 43.2 366.1 39.2 C 366.1 35.2 368.5 33.2 371.2 33.2 C 372.7 33.2 374 33.8 374.7 34.9 C 374.72 34.92 374.7 29 374.7 29 L 377.5 29 L 377.5 45 Z M 374.8 39.2 C 374.8 36.8 373.4 35.7 371.9 35.7 C 370.4 35.7 369 36.8 369 39.2 C 369 41.5 370.4 42.7 371.9 42.7 C 373.4 42.7 374.8 41.5 374.8 39.2 Z " stroke="none" fill="#000"/>  </g>  <g id="Polygon10104">    <path d="M 16.8 19.8 L 13.9 19.8 L 10.6 8.5 L 7.3 19.8 L 4.4 19.8 L 0.3 4 L 3.4 4 L 6 15 L 9.2 4 L 12.1 4 L 15.3 15.1 L 17.9 4 L 20.9 4 L 16.8 19.8 Z M 22.5 6.7 L 25.5 6.7 L 25.5 3.5 L 22.5 3.5 L 22.5 6.7 Z M 22.6 8.2 L 25.4 8.2 L 25.4 19.8 L 22.6 19.8 L 22.6 8.2 Z M 34 19.8 C 34 19.8 32.17 19.78 32.2 19.8 C 30 19.8 28.6 19.1 28.6 16 C 28.62 16 28.6 10.7 28.6 10.7 L 26.5 10.7 L 26.5 8.2 L 28.6 8.2 L 28.6 5.6 L 31.4 4.8 L 31.4 8.2 L 33.7 8.2 L 33.7 10.7 L 31.4 10.7 C 31.4 10.7 31.42 16.13 31.4 16.1 C 31.4 16.8 31.6 17.3 32.6 17.3 C 32.59 17.3 34 17.3 34 17.3 L 34 19.8 Z M 45.8 12.3 C 45.76 12.31 45.8 19.8 45.8 19.8 L 43 19.8 C 43 19.8 42.97 12.56 43 12.6 C 43 11.3 42.2 10.5 40.9 10.5 C 39.3 10.5 38.4 11.6 38.4 13.5 C 38.37 13.52 38.4 19.8 38.4 19.8 L 35.6 19.8 L 35.6 3.8 L 38.4 3.8 C 38.4 3.8 38.37 9.83 38.4 9.8 C 39 8.7 40 8 41.9 8 C 44.5 8 45.8 9.5 45.8 12.3 Z M 70.4 12 C 70.41 11.97 70.4 19.8 70.4 19.8 L 67.6 19.8 C 67.6 19.8 67.62 12.52 67.6 12.5 C 67.6 11.1 67 10.5 65.8 10.5 C 64.5 10.5 63.6 11.3 63.6 13.3 C 63.63 13.27 63.6 19.8 63.6 19.8 L 60.8 19.8 C 60.8 19.8 60.84 12.52 60.8 12.5 C 60.8 11.1 60.1 10.5 59 10.5 C 57.7 10.5 56.8 11.3 56.8 13.3 C 56.85 13.25 56.8 19.8 56.8 19.8 L 54.1 19.8 L 54.1 8.2 L 56.8 8.2 C 56.8 8.2 56.8 9.89 56.8 9.9 C 57.2 9 58 8 59.8 8 C 61.3 8 62.5 8.7 63 9.9 C 63.4 9.1 64.3 8 66.4 8 C 68.8 8 70.4 9.5 70.4 12 Z M 83.6 14 C 83.6 17.8 81.2 20 78 20 C 74.7 20 72.3 17.8 72.3 14 C 72.3 10.2 74.7 8 78 8 C 81.2 8 83.6 10.2 83.6 14 Z M 75.2 14 C 75.2 16.3 76.4 17.4 78 17.4 C 79.7 17.4 80.8 16.2 80.8 14 C 80.8 11.7 79.5 10.6 77.9 10.6 C 76.3 10.6 75.2 11.8 75.2 14 Z M 92.2 10.8 C 92.2 10.8 91.43 10.77 91.4 10.8 C 89.5 10.8 88.4 11.8 88.4 14.1 C 88.41 14.11 88.4 19.8 88.4 19.8 L 85.6 19.8 L 85.6 8.2 L 88.4 8.2 C 88.4 8.2 88.39 9.85 88.4 9.8 C 89 8.6 90 8.1 91.4 8.1 C 91.41 8.06 92.2 8.1 92.2 8.1 L 92.2 10.8 Z M 95.3 14.8 C 95.4 16.7 96.7 17.6 98.3 17.6 C 99.4 17.6 100.4 17.2 100.8 16.1 C 100.8 16.1 103.3 16.1 103.3 16.1 C 102.8 18.7 100.5 20 98.2 20 C 95.4 20 92.6 18.1 92.6 14 C 92.6 10 95.2 8 98.2 8 C 101 8 103.4 9.8 103.4 13.7 C 103.36 13.69 103.4 14.8 103.4 14.8 C 103.4 14.8 95.3 14.83 95.3 14.8 Z M 95.4 12.8 C 95.4 12.8 100.6 12.8 100.6 12.8 C 100.6 11.3 99.6 10.4 98.1 10.4 C 96.9 10.4 95.6 11.1 95.4 12.8 Z M 116.3 19.8 C 116.3 19.8 114.49 19.78 114.5 19.8 C 112.3 19.8 110.9 19.1 110.9 16 C 110.94 16 110.9 10.7 110.9 10.7 L 108.8 10.7 L 108.8 8.2 L 110.9 8.2 L 110.9 5.6 L 113.7 4.8 L 113.7 8.2 L 116 8.2 L 116 10.7 L 113.7 10.7 C 113.7 10.7 113.73 16.13 113.7 16.1 C 113.7 16.8 113.9 17.3 114.9 17.3 C 114.91 17.3 116.3 17.3 116.3 17.3 L 116.3 19.8 Z M 128.1 12.3 C 128.08 12.31 128.1 19.8 128.1 19.8 L 125.3 19.8 C 125.3 19.8 125.28 12.56 125.3 12.6 C 125.3 11.3 124.5 10.5 123.2 10.5 C 121.7 10.5 120.7 11.6 120.7 13.5 C 120.69 13.52 120.7 19.8 120.7 19.8 L 117.9 19.8 L 117.9 3.8 L 120.7 3.8 C 120.7 3.8 120.69 9.83 120.7 9.8 C 121.4 8.7 122.3 8 124.2 8 C 126.8 8 128.1 9.5 128.1 12.3 Z M 140 12 C 139.96 11.99 140 19.8 140 19.8 L 137.2 19.8 C 137.2 19.8 137.23 18.1 137.2 18.1 C 136.3 19.6 134.9 20 133.7 20 C 131.9 20 130 18.9 130 16.4 C 130 14.6 131 13.4 133.7 13 C 133.7 13 136.2 12.6 136.2 12.6 C 136.9 12.5 137.3 12.3 137.3 11.6 C 137.3 10.6 136.5 10.2 135.4 10.2 C 133.9 10.2 133.2 10.9 133.1 11.9 C 133.1 11.9 130.4 11.9 130.4 11.9 C 130.7 9.2 132.9 8 135.5 8 C 138.2 8 140 9.3 140 12 Z M 137.3 14.9 C 137.3 14.9 137.3 14.3 137.3 14.3 C 137 14.4 136.5 14.6 135.9 14.6 C 135.9 14.6 134.6 14.8 134.6 14.8 C 133.2 15 132.8 15.6 132.8 16.3 C 132.8 17.2 133.4 17.7 134.4 17.7 C 135.8 17.7 137.3 16.6 137.3 14.9 Z M 152.7 12.3 C 152.67 12.31 152.7 19.8 152.7 19.8 L 149.9 19.8 C 149.9 19.8 149.88 12.56 149.9 12.6 C 149.9 11.3 149.1 10.5 147.8 10.5 C 146.2 10.5 145.3 11.6 145.3 13.5 C 145.28 13.52 145.3 19.8 145.3 19.8 L 142.5 19.8 L 142.5 8.2 L 145.3 8.2 C 145.3 8.2 145.26 9.87 145.3 9.9 C 145.9 8.8 146.9 8 148.8 8 C 151.4 8 152.7 9.5 152.7 12.3 Z M 171.7 15.5 C 171.7 18.5 169 20 166.1 20 C 163.1 20 160.2 18.3 160.2 14.7 C 160.2 14.7 163.1 14.7 163.1 14.7 C 162.9 16.5 164.4 17.5 166.1 17.5 C 167.5 17.5 168.7 16.8 168.7 15.4 C 168.7 14 167.6 13.3 165.5 13.3 C 165.54 13.33 164.4 13.3 164.4 13.3 L 164.4 10.8 C 164.4 10.8 165.46 10.81 165.5 10.8 C 167.3 10.8 168.4 9.9 168.4 8.6 C 168.4 7.3 167.4 6.6 166 6.6 C 164.4 6.6 163.2 7.5 163.2 9.5 C 163.2 9.5 160.3 9.5 160.3 9.5 C 160.3 5.8 163 4 166.1 4 C 168.9 4 171.3 5.5 171.3 8.2 C 171.3 10.2 170.1 11.4 168.8 11.8 C 170.4 12.4 171.7 13.4 171.7 15.5 Z M 173 12.1 C 173 7.2 174.7 4 178.5 4 C 182.3 4 184 7.2 184 12 C 184 16.9 182.3 20 178.5 20 C 174.7 20 173 16.9 173 12.1 Z M 181.2 12.1 C 181.2 9 180.4 6.5 178.4 6.5 C 176.6 6.5 175.8 8.5 175.8 11.9 C 175.8 15.4 176.7 17.6 178.5 17.6 C 180.4 17.6 181.2 15.3 181.2 12.1 Z M 189 3.5 C 191.3 3.5 193 5.1 193 7.5 C 193 9.8 191.3 11.5 189 11.5 C 186.7 11.5 185 9.8 185 7.5 C 185 5.1 186.7 3.5 189 3.5 Z M 190.2 19.8 L 188.5 19.8 L 198.4 4 L 200.1 4 L 190.2 19.8 Z M 189 5.3 C 187.8 5.3 186.9 6.2 186.9 7.5 C 186.9 8.8 187.8 9.7 189 9.7 C 190.2 9.7 191.1 8.8 191.1 7.5 C 191.1 6.2 190.2 5.3 189 5.3 Z M 199.1 12.4 C 201.4 12.4 203.2 14 203.2 16.4 C 203.2 18.7 201.4 20.4 199.1 20.4 C 196.9 20.4 195.2 18.7 195.2 16.4 C 195.2 14 196.9 12.4 199.1 12.4 Z M 199.1 14.2 C 197.9 14.2 197.1 15.1 197.1 16.4 C 197.1 17.7 197.9 18.6 199.1 18.6 C 200.4 18.6 201.2 17.7 201.2 16.4 C 201.2 15.1 200.4 14.2 199.1 14.2 Z M 220.6 14 C 220.6 17.8 218.1 20 214.9 20 C 211.7 20 209.2 17.8 209.2 14 C 209.2 10.2 211.7 8 214.9 8 C 218.1 8 220.6 10.2 220.6 14 Z M 212.1 14 C 212.1 16.3 213.4 17.4 214.9 17.4 C 216.6 17.4 217.7 16.2 217.7 14 C 217.7 11.7 216.4 10.6 214.9 10.6 C 213.2 10.6 212.1 11.8 212.1 14 Z M 226.9 6.3 C 225.9 6.3 225.7 6.7 225.7 7.4 C 225.7 7.43 225.7 8.2 225.7 8.2 L 227.8 8.2 L 227.8 10.7 L 225.7 10.7 L 225.7 19.8 L 222.9 19.8 L 222.9 10.7 L 221.2 10.7 L 221.2 8.2 L 222.9 8.2 C 222.9 8.2 222.91 7.56 222.9 7.6 C 222.9 4.5 224.3 3.8 226.5 3.8 C 226.46 3.78 228.1 3.8 228.1 3.8 L 228.1 6.3 C 228.1 6.3 226.88 6.26 226.9 6.3 Z M 240.5 19.8 C 240.5 19.8 238.64 19.78 238.6 19.8 C 236.5 19.8 235.1 19.1 235.1 16 C 235.09 16 235.1 10.7 235.1 10.7 L 233 10.7 L 233 8.2 L 235.1 8.2 L 235.1 5.6 L 237.9 4.8 L 237.9 8.2 L 240.2 8.2 L 240.2 10.7 L 237.9 10.7 C 237.9 10.7 237.88 16.13 237.9 16.1 C 237.9 16.8 238.1 17.3 239.1 17.3 C 239.06 17.3 240.5 17.3 240.5 17.3 L 240.5 19.8 Z M 252.2 12.3 C 252.23 12.31 252.2 19.8 252.2 19.8 L 249.4 19.8 C 249.4 19.8 249.43 12.56 249.4 12.6 C 249.4 11.3 248.7 10.5 247.4 10.5 C 245.8 10.5 244.8 11.6 244.8 13.5 C 244.84 13.52 244.8 19.8 244.8 19.8 L 242 19.8 L 242 3.8 L 244.8 3.8 C 244.8 3.8 244.84 9.83 244.8 9.8 C 245.5 8.7 246.5 8 248.3 8 C 251 8 252.2 9.5 252.2 12.3 Z M 256.8 14.8 C 256.9 16.7 258.2 17.6 259.8 17.6 C 260.9 17.6 262 17.2 262.3 16.1 C 262.3 16.1 264.8 16.1 264.8 16.1 C 264.3 18.7 262.1 20 259.7 20 C 256.9 20 254.1 18.1 254.1 14 C 254.1 10 256.7 8 259.7 8 C 262.5 8 264.9 9.8 264.9 13.7 C 264.89 13.69 264.9 14.8 264.9 14.8 C 264.9 14.8 256.83 14.83 256.8 14.8 Z M 256.9 12.8 C 256.9 12.8 262.2 12.8 262.2 12.8 C 262.2 11.3 261.1 10.4 259.7 10.4 C 258.4 10.4 257.1 11.1 256.9 12.8 Z M 283.5 14 C 283.5 18.1 281 20 278.3 20 C 276.8 20 275.6 19.5 274.9 18.4 C 274.87 18.4 274.9 19.8 274.9 19.8 L 272.1 19.8 L 272.1 3.8 L 274.9 3.8 C 274.9 3.8 274.93 9.89 274.9 9.9 C 275.6 8.7 276.9 8 278.5 8 C 281.2 8 283.5 10 283.5 14 Z M 280.7 14 C 280.7 11.7 279.3 10.5 277.8 10.5 C 276.3 10.5 274.8 11.7 274.8 14 C 274.8 16.4 276.3 17.6 277.8 17.6 C 279.3 17.6 280.7 16.4 280.7 14 Z M 296.1 14 C 296.1 17.8 293.7 20 290.4 20 C 287.2 20 284.8 17.8 284.8 14 C 284.8 10.2 287.2 8 290.4 8 C 293.7 8 296.1 10.2 296.1 14 Z M 287.6 14 C 287.6 16.3 288.9 17.4 290.5 17.4 C 292.1 17.4 293.2 16.2 293.2 14 C 293.2 11.7 292 10.6 290.4 10.6 C 288.7 10.6 287.6 11.8 287.6 14 Z M 308.3 12.3 C 308.28 12.31 308.3 19.8 308.3 19.8 L 305.5 19.8 C 305.5 19.8 305.48 12.56 305.5 12.6 C 305.5 11.3 304.7 10.5 303.4 10.5 C 301.9 10.5 300.9 11.6 300.9 13.5 C 300.88 13.52 300.9 19.8 300.9 19.8 L 298.1 19.8 L 298.1 8.2 L 300.9 8.2 C 300.9 8.2 300.86 9.87 300.9 9.9 C 301.5 8.8 302.5 8 304.4 8 C 307 8 308.3 9.5 308.3 12.3 Z M 321.5 19.8 L 318.8 19.8 C 318.8 19.8 318.82 18 318.8 18 C 318.2 19.3 316.8 20 315.2 20 C 312.5 20 310.2 18 310.2 14 C 310.2 10 312.5 8 315.2 8 C 316.8 8 318.1 8.6 318.8 9.7 C 318.75 9.72 318.8 3.8 318.8 3.8 L 321.5 3.8 L 321.5 19.8 Z M 318.8 14 C 318.8 11.6 317.4 10.5 315.9 10.5 C 314.4 10.5 313 11.6 313 14 C 313 16.3 314.4 17.5 315.9 17.5 C 317.4 17.5 318.8 16.3 318.8 14 Z M 333.5 16.2 C 333.5 18.8 331.2 20 328.6 20 C 326.2 20 323.6 19 323.4 16.1 C 323.4 16.1 326.3 16.1 326.3 16.1 C 326.4 17.2 327.5 17.7 328.8 17.7 C 329.9 17.7 330.8 17.3 330.8 16.5 C 330.8 15.7 330.2 15.6 328.6 15.3 C 326.4 14.9 323.8 14.5 323.8 11.7 C 323.8 9.1 326 8 328.4 8 C 331.1 8 333.1 9.3 333.3 11.9 C 333.3 11.9 330.5 11.9 330.5 11.9 C 330.4 10.8 329.6 10.3 328.4 10.3 C 327 10.3 326.5 10.9 326.5 11.6 C 326.5 12.5 327.5 12.7 328.9 12.9 C 331 13.2 333.5 13.5 333.5 16.2 Z M 350.8 19.8 L 348.1 19.8 C 348.1 19.8 348.09 18.14 348.1 18.1 C 347.4 19.2 346.4 19.9 344.8 19.9 C 342.3 19.9 340.6 18.4 340.6 15.4 C 340.57 15.39 340.6 8.2 340.6 8.2 L 343.4 8.2 C 343.4 8.2 343.37 15.18 343.4 15.2 C 343.4 16.8 344.1 17.4 345.3 17.4 C 346.9 17.4 348 16.5 348 13.8 C 348.03 13.8 348 8.2 348 8.2 L 350.8 8.2 L 350.8 19.8 Z M 363.7 12.3 C 363.74 12.31 363.7 19.8 363.7 19.8 L 360.9 19.8 C 360.9 19.8 360.94 12.56 360.9 12.6 C 360.9 11.3 360.2 10.5 358.9 10.5 C 357.3 10.5 356.3 11.6 356.3 13.5 C 356.34 13.52 356.3 19.8 356.3 19.8 L 353.6 19.8 L 353.6 8.2 L 356.3 8.2 C 356.3 8.2 356.32 9.87 356.3 9.9 C 357 8.8 357.9 8 359.9 8 C 362.5 8 363.7 9.5 363.7 12.3 Z M 366.3 6.7 L 369.2 6.7 L 369.2 3.5 L 366.3 3.5 L 366.3 6.7 Z M 366.3 8.2 L 369.1 8.2 L 369.1 19.8 L 366.3 19.8 L 366.3 8.2 Z M 377.7 19.8 L 374.8 19.8 L 370.5 8.2 L 373.4 8.2 L 376.3 16.5 L 379.1 8.2 L 382 8.2 L 377.7 19.8 Z M 385.2 14.8 C 385.2 16.7 386.6 17.6 388.1 17.6 C 389.2 17.6 390.3 17.2 390.6 16.1 C 390.6 16.1 393.2 16.1 393.2 16.1 C 392.7 18.7 390.4 20 388 20 C 385.2 20 382.4 18.1 382.4 14 C 382.4 10 385.1 8 388 8 C 390.8 8 393.2 9.8 393.2 13.7 C 393.22 13.69 393.2 14.8 393.2 14.8 C 393.2 14.8 385.16 14.83 385.2 14.8 Z M 385.2 12.8 C 385.2 12.8 390.5 12.8 390.5 12.8 C 390.5 11.3 389.4 10.4 388 10.4 C 386.7 10.4 385.5 11.1 385.2 12.8 Z M 401.8 10.8 C 401.8 10.8 401.03 10.77 401 10.8 C 399.1 10.8 398 11.8 398 14.1 C 398.01 14.11 398 19.8 398 19.8 L 395.2 19.8 L 395.2 8.2 L 398 8.2 C 398 8.2 397.99 9.85 398 9.8 C 398.6 8.6 399.6 8.1 401 8.1 C 401.01 8.06 401.8 8.1 401.8 8.1 L 401.8 10.8 Z M 412.4 16.2 C 412.4 18.8 410.1 20 407.5 20 C 405.1 20 402.5 19 402.3 16.1 C 402.3 16.1 405.1 16.1 405.1 16.1 C 405.3 17.2 406.3 17.7 407.6 17.7 C 408.8 17.7 409.6 17.3 409.6 16.5 C 409.6 15.7 409.1 15.6 407.5 15.3 C 405.2 14.9 402.6 14.5 402.6 11.7 C 402.6 9.1 404.9 8 407.2 8 C 410 8 412 9.3 412.1 11.9 C 412.1 11.9 409.4 11.9 409.4 11.9 C 409.3 10.8 408.5 10.3 407.3 10.3 C 405.9 10.3 405.4 10.9 405.4 11.6 C 405.4 12.5 406.4 12.7 407.8 12.9 C 409.9 13.2 412.4 13.5 412.4 16.2 Z M 416.3 14.8 C 416.3 16.7 417.7 17.6 419.2 17.6 C 420.3 17.6 421.4 17.2 421.7 16.1 C 421.7 16.1 424.3 16.1 424.3 16.1 C 423.8 18.7 421.5 20 419.1 20 C 416.3 20 413.5 18.1 413.5 14 C 413.5 10 416.2 8 419.1 8 C 421.9 8 424.3 9.8 424.3 13.7 C 424.32 13.69 424.3 14.8 424.3 14.8 C 424.3 14.8 416.26 14.83 416.3 14.8 Z M 416.3 12.8 C 416.3 12.8 421.6 12.8 421.6 12.8 C 421.6 11.3 420.5 10.4 419.1 10.4 C 417.8 10.4 416.6 11.1 416.3 12.8 Z " stroke="none" fill="#000"/>  </g></svg>