<?xml version="1.0" standalone="no"?><!DOCTYPE svg PUBLIC "-//W3C//DTD SVG 1.1//EN" "http://www.w3.org/Graphics/SVG/1.1/DTD/svg11.dtd"><svg xmlns="http://www.w3.org/2000/svg" version="1.1" width="418px" height="90.4px" viewBox="0 -4 418 90.4" style="top:-4px">  <desc>With interest rates so low (and even negative), what role does Fixed Income have in a portfolio</desc>  <defs/>  <g id="Polygon9746">    <path d="M 11.6 62.7 C 11.55 62.71 11.6 70.2 11.6 70.2 L 8.8 70.2 C 8.8 70.2 8.76 62.96 8.8 63 C 8.8 61.7 8 60.9 6.7 60.9 C 5.1 60.9 4.2 62 4.2 63.9 C 4.16 63.92 4.2 70.2 4.2 70.2 L 1.4 70.2 L 1.4 54.2 L 4.2 54.2 C 4.2 54.2 4.16 60.23 4.2 60.2 C 4.8 59.1 5.8 58.4 7.7 58.4 C 10.3 58.4 11.6 59.9 11.6 62.7 Z M 23.4 62.4 C 23.44 62.39 23.4 70.2 23.4 70.2 L 20.7 70.2 C 20.7 70.2 20.71 68.5 20.7 68.5 C 19.8 70 18.4 70.4 17.2 70.4 C 15.4 70.4 13.4 69.3 13.4 66.8 C 13.4 65 14.5 63.8 17.1 63.4 C 17.1 63.4 19.6 63 19.6 63 C 20.3 62.9 20.8 62.7 20.8 62 C 20.8 61 20 60.6 18.9 60.6 C 17.4 60.6 16.7 61.3 16.6 62.3 C 16.6 62.3 13.9 62.3 13.9 62.3 C 14.2 59.6 16.4 58.4 19 58.4 C 21.7 58.4 23.4 59.7 23.4 62.4 Z M 20.7 65.3 C 20.7 65.3 20.7 64.7 20.7 64.7 C 20.5 64.8 19.9 65 19.4 65 C 19.4 65 18.1 65.2 18.1 65.2 C 16.7 65.4 16.2 66 16.2 66.7 C 16.2 67.6 16.9 68.1 17.8 68.1 C 19.3 68.1 20.7 67 20.7 65.3 Z M 31.8 70.2 L 28.9 70.2 L 24.6 58.6 L 27.6 58.6 L 30.4 66.9 L 33.2 58.6 L 36.1 58.6 L 31.8 70.2 Z M 39.3 65.2 C 39.3 67.1 40.7 68 42.3 68 C 43.3 68 44.4 67.6 44.7 66.5 C 44.7 66.5 47.3 66.5 47.3 66.5 C 46.8 69.1 44.5 70.4 42.1 70.4 C 39.3 70.4 36.6 68.5 36.6 64.4 C 36.6 60.4 39.2 58.4 42.1 58.4 C 45 58.4 47.3 60.2 47.3 64.1 C 47.33 64.09 47.3 65.2 47.3 65.2 C 47.3 65.2 39.27 65.23 39.3 65.2 Z M 39.3 63.2 C 39.3 63.2 44.6 63.2 44.6 63.2 C 44.6 61.7 43.5 60.8 42.1 60.8 C 40.8 60.8 39.6 61.5 39.3 63.2 Z M 54.5 57.1 L 57.4 57.1 L 57.4 53.9 L 54.5 53.9 L 54.5 57.1 Z M 54.6 58.6 L 57.4 58.6 L 57.4 70.2 L 54.6 70.2 L 54.6 58.6 Z M 70.2 62.7 C 70.24 62.71 70.2 70.2 70.2 70.2 L 67.5 70.2 C 67.5 70.2 67.45 62.96 67.5 63 C 67.5 61.7 66.7 60.9 65.4 60.9 C 63.8 60.9 62.9 62 62.9 63.9 C 62.85 63.92 62.9 70.2 62.9 70.2 L 60.1 70.2 L 60.1 58.6 L 62.8 58.6 C 62.8 58.6 62.83 60.27 62.8 60.3 C 63.5 59.2 64.4 58.4 66.4 58.4 C 69 58.4 70.2 59.9 70.2 62.7 Z M 87.8 62.4 C 87.8 62.39 87.8 70.2 87.8 70.2 L 85.1 70.2 C 85.1 70.2 85.07 68.5 85.1 68.5 C 84.2 70 82.8 70.4 81.6 70.4 C 79.7 70.4 77.8 69.3 77.8 66.8 C 77.8 65 78.8 63.8 81.5 63.4 C 81.5 63.4 84 63 84 63 C 84.7 62.9 85.2 62.7 85.2 62 C 85.2 61 84.3 60.6 83.2 60.6 C 81.7 60.6 81.1 61.3 81 62.3 C 81 62.3 78.3 62.3 78.3 62.3 C 78.6 59.6 80.7 58.4 83.3 58.4 C 86.1 58.4 87.8 59.7 87.8 62.4 Z M 85.1 65.3 C 85.1 65.3 85.1 64.7 85.1 64.7 C 84.8 64.8 84.3 65 83.7 65 C 83.7 65 82.5 65.2 82.5 65.2 C 81.1 65.4 80.6 66 80.6 66.7 C 80.6 67.6 81.2 68.1 82.2 68.1 C 83.7 68.1 85.1 67 85.1 65.3 Z M 107 64.2 C 107 68.4 104.3 70.3 101.6 70.3 C 100.1 70.3 99 69.6 98.4 68.8 C 98.36 68.8 98.4 74.5 98.4 74.5 L 95.6 74.5 L 95.6 58.6 L 98.3 58.6 C 98.3 58.6 98.3 60.44 98.3 60.4 C 98.9 59.2 100.2 58.4 101.9 58.4 C 104.6 58.4 107 60.3 107 64.2 Z M 104.1 64.4 C 104.1 62 102.7 60.9 101.2 60.9 C 99.7 60.9 98.3 62 98.3 64.4 C 98.3 66.7 99.7 67.8 101.2 67.8 C 102.7 67.8 104.1 66.7 104.1 64.4 Z M 119.5 64.4 C 119.5 68.2 117.1 70.4 113.9 70.4 C 110.6 70.4 108.2 68.2 108.2 64.4 C 108.2 60.6 110.6 58.4 113.9 58.4 C 117.1 58.4 119.5 60.6 119.5 64.4 Z M 111.1 64.4 C 111.1 66.7 112.3 67.8 113.9 67.8 C 115.6 67.8 116.7 66.6 116.7 64.4 C 116.7 62.1 115.4 61 113.8 61 C 112.2 61 111.1 62.2 111.1 64.4 Z M 128.1 61.2 C 128.1 61.2 127.34 61.17 127.3 61.2 C 125.4 61.2 124.3 62.2 124.3 64.5 C 124.32 64.51 124.3 70.2 124.3 70.2 L 121.5 70.2 L 121.5 58.6 L 124.3 58.6 C 124.3 58.6 124.3 60.25 124.3 60.2 C 124.9 59 126 58.5 127.3 58.5 C 127.32 58.46 128.1 58.5 128.1 58.5 L 128.1 61.2 Z M 135.8 70.2 C 135.8 70.2 133.96 70.18 134 70.2 C 131.8 70.2 130.4 69.5 130.4 66.4 C 130.41 66.4 130.4 61.1 130.4 61.1 L 128.3 61.1 L 128.3 58.6 L 130.4 58.6 L 130.4 56 L 133.2 55.2 L 133.2 58.6 L 135.5 58.6 L 135.5 61.1 L 133.2 61.1 C 133.2 61.1 133.2 66.53 133.2 66.5 C 133.2 67.2 133.4 67.7 134.4 67.7 C 134.38 67.7 135.8 67.7 135.8 67.7 L 135.8 70.2 Z M 141.7 56.7 C 140.7 56.7 140.5 57.1 140.5 57.8 C 140.51 57.83 140.5 58.6 140.5 58.6 L 142.7 58.6 L 142.7 61.1 L 140.5 61.1 L 140.5 70.2 L 137.7 70.2 L 137.7 61.1 L 136 61.1 L 136 58.6 L 137.7 58.6 C 137.7 58.6 137.72 57.96 137.7 58 C 137.7 54.9 139.1 54.2 141.3 54.2 C 141.26 54.18 142.9 54.2 142.9 54.2 L 142.9 56.7 C 142.9 56.7 141.68 56.66 141.7 56.7 Z M 154.7 64.4 C 154.7 68.2 152.3 70.4 149 70.4 C 145.8 70.4 143.4 68.2 143.4 64.4 C 143.4 60.6 145.8 58.4 149 58.4 C 152.3 58.4 154.7 60.6 154.7 64.4 Z M 146.2 64.4 C 146.2 66.7 147.5 67.8 149.1 67.8 C 150.7 67.8 151.8 66.6 151.8 64.4 C 151.8 62.1 150.5 61 149 61 C 147.3 61 146.2 62.2 146.2 64.4 Z M 159.5 70.2 L 156.7 70.2 L 156.7 54.2 L 159.5 54.2 L 159.5 70.2 Z M 162.1 57.1 L 165.1 57.1 L 165.1 53.9 L 162.1 53.9 L 162.1 57.1 Z M 162.2 58.6 L 165 58.6 L 165 70.2 L 162.2 70.2 L 162.2 58.6 Z M 178.3 64.4 C 178.3 68.2 175.9 70.4 172.6 70.4 C 169.4 70.4 166.9 68.2 166.9 64.4 C 166.9 60.6 169.4 58.4 172.6 58.4 C 175.9 58.4 178.3 60.6 178.3 64.4 Z M 169.8 64.4 C 169.8 66.7 171.1 67.8 172.6 67.8 C 174.3 67.8 175.4 66.6 175.4 64.4 C 175.4 62.1 174.1 61 172.6 61 C 170.9 61 169.8 62.2 169.8 64.4 Z M 183 64.6 C 183 61.9 184.4 61.4 185.6 60.5 C 186.6 59.8 187.1 59.2 187.1 58.4 C 187.1 57.2 186.2 56.6 185 56.6 C 183.6 56.6 182.7 57.4 182.6 58.8 C 182.6 58.8 179.7 58.8 179.7 58.8 C 180 55.4 182.5 54.2 185.1 54.2 C 187.8 54.2 190 55.5 190 58.3 C 190 60.5 188.7 61.4 187.3 62.4 C 186.2 63.2 185.7 63.7 185.7 64.6 C 185.7 64.64 185.7 65.3 185.7 65.3 L 183 65.3 C 183 65.3 183.03 64.55 183 64.6 Z M 182.8 66.9 L 186 66.9 L 186 70.2 L 182.8 70.2 L 182.8 66.9 Z " stroke="none" fill="#000"/>  </g>  <g id="Polygon9745">    <path d="M 11.6 37.5 C 11.55 37.51 11.6 45 11.6 45 L 8.8 45 C 8.8 45 8.76 37.76 8.8 37.8 C 8.8 36.5 8 35.7 6.7 35.7 C 5.1 35.7 4.2 36.8 4.2 38.7 C 4.16 38.72 4.2 45 4.2 45 L 1.4 45 L 1.4 33.4 L 4.1 33.4 C 4.1 33.4 4.14 35.07 4.1 35.1 C 4.8 34 5.7 33.2 7.7 33.2 C 10.3 33.2 11.6 34.7 11.6 37.5 Z M 16.1 40 C 16.2 41.9 17.6 42.8 19.1 42.8 C 20.2 42.8 21.3 42.4 21.6 41.3 C 21.6 41.3 24.2 41.3 24.2 41.3 C 23.7 43.9 21.4 45.2 19 45.2 C 16.2 45.2 13.4 43.3 13.4 39.2 C 13.4 35.2 16.1 33.2 19 33.2 C 21.8 33.2 24.2 35 24.2 38.9 C 24.21 38.89 24.2 40 24.2 40 C 24.2 40 16.15 40.03 16.1 40 Z M 16.2 38 C 16.2 38 21.5 38 21.5 38 C 21.5 36.5 20.4 35.6 19 35.6 C 17.7 35.6 16.5 36.3 16.2 38 Z M 36.6 44.2 C 36.6 47.9 34.3 49.6 31.1 49.6 C 28.3 49.6 26 48.2 25.6 45.3 C 25.6 45.3 28.3 45.3 28.3 45.3 C 28.6 46.8 29.8 47.2 31.1 47.2 C 32.9 47.2 34 46.3 34 44.5 C 34 44.5 34 42.6 34 42.6 C 33.4 43.8 32.3 44.6 30.5 44.6 C 27.9 44.6 25.5 42.8 25.5 38.9 C 25.5 35 27.9 33.2 30.5 33.2 C 32.2 33.2 33.4 33.9 34 35 C 33.96 35.01 34 33.4 34 33.4 L 36.6 33.4 C 36.6 33.4 36.64 44.2 36.6 44.2 Z M 33.9 38.9 C 33.9 36.7 32.6 35.6 31.1 35.6 C 29.6 35.6 28.2 36.7 28.2 38.9 C 28.2 41.1 29.6 42.1 31.1 42.1 C 32.6 42.1 33.9 41.1 33.9 38.9 Z M 48.5 37.2 C 48.53 37.19 48.5 45 48.5 45 L 45.8 45 C 45.8 45 45.8 43.3 45.8 43.3 C 44.9 44.8 43.5 45.2 42.3 45.2 C 40.4 45.2 38.5 44.1 38.5 41.6 C 38.5 39.8 39.6 38.6 42.2 38.2 C 42.2 38.2 44.7 37.8 44.7 37.8 C 45.4 37.7 45.9 37.5 45.9 36.8 C 45.9 35.8 45.1 35.4 44 35.4 C 42.5 35.4 41.8 36.1 41.7 37.1 C 41.7 37.1 39 37.1 39 37.1 C 39.3 34.4 41.5 33.2 44.1 33.2 C 46.8 33.2 48.5 34.5 48.5 37.2 Z M 45.8 40.1 C 45.8 40.1 45.8 39.5 45.8 39.5 C 45.5 39.6 45 39.8 44.5 39.8 C 44.5 39.8 43.2 40 43.2 40 C 41.8 40.2 41.3 40.8 41.3 41.5 C 41.3 42.4 42 42.9 42.9 42.9 C 44.4 42.9 45.8 41.8 45.8 40.1 Z M 57 45 C 57 45 55.15 44.98 55.1 45 C 53 45 51.6 44.3 51.6 41.2 C 51.6 41.2 51.6 35.9 51.6 35.9 L 49.5 35.9 L 49.5 33.4 L 51.6 33.4 L 51.6 30.8 L 54.4 30 L 54.4 33.4 L 56.7 33.4 L 56.7 35.9 L 54.4 35.9 C 54.4 35.9 54.39 41.33 54.4 41.3 C 54.4 42 54.6 42.5 55.6 42.5 C 55.57 42.5 57 42.5 57 42.5 L 57 45 Z M 58.4 31.9 L 61.4 31.9 L 61.4 28.7 L 58.4 28.7 L 58.4 31.9 Z M 58.5 33.4 L 61.3 33.4 L 61.3 45 L 58.5 45 L 58.5 33.4 Z M 69.9 45 L 66.9 45 L 62.7 33.4 L 65.6 33.4 L 68.5 41.7 L 71.3 33.4 L 74.2 33.4 L 69.9 45 Z M 77.3 40 C 77.4 41.9 78.7 42.8 80.3 42.8 C 81.4 42.8 82.5 42.4 82.8 41.3 C 82.8 41.3 85.4 41.3 85.4 41.3 C 84.9 43.9 82.6 45.2 80.2 45.2 C 77.4 45.2 74.6 43.3 74.6 39.2 C 74.6 35.2 77.3 33.2 80.2 33.2 C 83 33.2 85.4 35 85.4 38.9 C 85.41 38.89 85.4 40 85.4 40 C 85.4 40 77.34 40.03 77.3 40 Z M 77.4 38 C 77.4 38 82.7 38 82.7 38 C 82.7 36.5 81.6 35.6 80.2 35.6 C 78.9 35.6 77.7 36.3 77.4 38 Z M 86.2 27.8 C 86.2 27.8 87.1 26.7 87.1 26.7 C 90.5 28.9 92.9 33 92.9 37.8 C 92.9 42.7 90.5 46.7 87.1 48.9 C 87.1 48.9 86.2 47.8 86.2 47.8 C 89 45.6 91 42.1 91 37.8 C 91 33.6 89 30.1 86.2 27.8 Z M 96.2 44.8 C 96.18 44.79 94.8 44.8 94.8 44.8 L 94.8 41.9 L 98 41.9 C 98 41.9 97.96 44.39 98 44.4 C 98 47.4 95.9 48.5 94 48.7 C 94 48.7 93.7 47.2 93.7 47.2 C 95.3 47 96.2 46.1 96.2 44.8 Z M 117.3 45 L 114.6 45 L 112.2 37.6 L 109.9 45 L 107.2 45 L 103.3 33.4 L 106.3 33.4 L 108.6 41.1 L 110.9 33.4 L 113.6 33.4 L 116 41.1 L 118.2 33.4 L 121.1 33.4 L 117.3 45 Z M 132.8 37.5 C 132.78 37.51 132.8 45 132.8 45 L 130 45 C 130 45 129.99 37.76 130 37.8 C 130 36.5 129.3 35.7 128 35.7 C 126.4 35.7 125.4 36.8 125.4 38.7 C 125.39 38.72 125.4 45 125.4 45 L 122.6 45 L 122.6 29 L 125.4 29 C 125.4 29 125.39 35.03 125.4 35 C 126.1 33.9 127 33.2 128.9 33.2 C 131.5 33.2 132.8 34.7 132.8 37.5 Z M 144.7 37.2 C 144.67 37.19 144.7 45 144.7 45 L 141.9 45 C 141.9 45 141.94 43.3 141.9 43.3 C 141 44.8 139.6 45.2 138.4 45.2 C 136.6 45.2 134.7 44.1 134.7 41.6 C 134.7 39.8 135.7 38.6 138.4 38.2 C 138.4 38.2 140.9 37.8 140.9 37.8 C 141.6 37.7 142 37.5 142 36.8 C 142 35.8 141.2 35.4 140.1 35.4 C 138.6 35.4 137.9 36.1 137.8 37.1 C 137.8 37.1 135.1 37.1 135.1 37.1 C 135.4 34.4 137.6 33.2 140.2 33.2 C 142.9 33.2 144.7 34.5 144.7 37.2 Z M 142 40.1 C 142 40.1 142 39.5 142 39.5 C 141.7 39.6 141.2 39.8 140.6 39.8 C 140.6 39.8 139.3 40 139.3 40 C 137.9 40.2 137.5 40.8 137.5 41.5 C 137.5 42.4 138.1 42.9 139.1 42.9 C 140.5 42.9 142 41.8 142 40.1 Z M 153.1 45 C 153.1 45 151.28 44.98 151.3 45 C 149.1 45 147.7 44.3 147.7 41.2 C 147.73 41.2 147.7 35.9 147.7 35.9 L 145.6 35.9 L 145.6 33.4 L 147.7 33.4 L 147.7 30.8 L 150.5 30 L 150.5 33.4 L 152.8 33.4 L 152.8 35.9 L 150.5 35.9 C 150.5 35.9 150.53 41.33 150.5 41.3 C 150.5 42 150.7 42.5 151.7 42.5 C 151.7 42.5 153.1 42.5 153.1 42.5 L 153.1 45 Z M 166.7 36 C 166.7 36 165.96 35.97 166 36 C 164 36 162.9 37 162.9 39.3 C 162.94 39.31 162.9 45 162.9 45 L 160.1 45 L 160.1 33.4 L 162.9 33.4 C 162.9 33.4 162.92 35.05 162.9 35 C 163.5 33.8 164.6 33.3 165.9 33.3 C 165.94 33.26 166.7 33.3 166.7 33.3 L 166.7 36 Z M 178.4 39.2 C 178.4 43 176 45.2 172.8 45.2 C 169.5 45.2 167.1 43 167.1 39.2 C 167.1 35.4 169.5 33.2 172.8 33.2 C 176 33.2 178.4 35.4 178.4 39.2 Z M 170 39.2 C 170 41.5 171.3 42.6 172.8 42.6 C 174.5 42.6 175.6 41.4 175.6 39.2 C 175.6 36.9 174.3 35.8 172.7 35.8 C 171.1 35.8 170 37 170 39.2 Z M 183.2 45 L 180.4 45 L 180.4 29 L 183.2 29 L 183.2 45 Z M 187.9 40 C 188 41.9 189.3 42.8 190.9 42.8 C 192 42.8 193.1 42.4 193.4 41.3 C 193.4 41.3 195.9 41.3 195.9 41.3 C 195.4 43.9 193.2 45.2 190.8 45.2 C 188 45.2 185.2 43.3 185.2 39.2 C 185.2 35.2 187.8 33.2 190.8 33.2 C 193.6 33.2 196 35 196 38.9 C 195.99 38.89 196 40 196 40 C 196 40 187.93 40.03 187.9 40 Z M 188 38 C 188 38 193.3 38 193.3 38 C 193.3 36.5 192.2 35.6 190.8 35.6 C 189.5 35.6 188.2 36.3 188 38 Z M 213.5 45 L 210.7 45 C 210.7 45 210.73 43.2 210.7 43.2 C 210.1 44.5 208.8 45.2 207.2 45.2 C 204.5 45.2 202.1 43.2 202.1 39.2 C 202.1 35.2 204.5 33.2 207.2 33.2 C 208.7 33.2 210 33.8 210.7 34.9 C 210.67 34.92 210.7 29 210.7 29 L 213.5 29 L 213.5 45 Z M 210.8 39.2 C 210.8 36.8 209.3 35.7 207.8 35.7 C 206.3 35.7 204.9 36.8 204.9 39.2 C 204.9 41.5 206.3 42.7 207.8 42.7 C 209.3 42.7 210.8 41.5 210.8 39.2 Z M 226.8 39.2 C 226.8 43 224.4 45.2 221.1 45.2 C 217.9 45.2 215.5 43 215.5 39.2 C 215.5 35.4 217.9 33.2 221.1 33.2 C 224.4 33.2 226.8 35.4 226.8 39.2 Z M 218.3 39.2 C 218.3 41.5 219.6 42.6 221.1 42.6 C 222.8 42.6 223.9 41.4 223.9 39.2 C 223.9 36.9 222.6 35.8 221.1 35.8 C 219.4 35.8 218.3 37 218.3 39.2 Z M 230.7 40 C 230.8 41.9 232.2 42.8 233.7 42.8 C 234.8 42.8 235.9 42.4 236.2 41.3 C 236.2 41.3 238.8 41.3 238.8 41.3 C 238.3 43.9 236 45.2 233.6 45.2 C 230.8 45.2 228 43.3 228 39.2 C 228 35.2 230.7 33.2 233.6 33.2 C 236.4 33.2 238.8 35 238.8 38.9 C 238.81 38.89 238.8 40 238.8 40 C 238.8 40 230.75 40.03 230.7 40 Z M 230.8 38 C 230.8 38 236.1 38 236.1 38 C 236.1 36.5 235 35.6 233.6 35.6 C 232.3 35.6 231.1 36.3 230.8 38 Z M 250.1 41.4 C 250.1 44 247.8 45.2 245.2 45.2 C 242.8 45.2 240.2 44.2 240 41.3 C 240 41.3 242.8 41.3 242.8 41.3 C 243 42.4 244 42.9 245.3 42.9 C 246.5 42.9 247.3 42.5 247.3 41.7 C 247.3 40.9 246.8 40.8 245.2 40.5 C 242.9 40.1 240.3 39.7 240.3 36.9 C 240.3 34.3 242.5 33.2 244.9 33.2 C 247.6 33.2 249.6 34.5 249.8 37.1 C 249.8 37.1 247.1 37.1 247.1 37.1 C 247 36 246.1 35.5 245 35.5 C 243.6 35.5 243 36.1 243 36.8 C 243 37.7 244.1 37.9 245.5 38.1 C 247.5 38.4 250.1 38.7 250.1 41.4 Z M 260.3 45 L 257.4 45 L 257.4 29.2 L 268 29.2 L 268 32 L 260.3 32 L 260.3 35.6 L 267.6 35.6 L 267.6 38.4 L 260.3 38.4 L 260.3 45 Z M 269.3 31.9 L 272.2 31.9 L 272.2 28.7 L 269.3 28.7 L 269.3 31.9 Z M 269.3 33.4 L 272.1 33.4 L 272.1 45 L 269.3 45 L 269.3 33.4 Z M 279.9 41.3 L 277.3 45 L 273.8 45 L 278.1 39.2 L 273.7 33.4 L 277.3 33.4 L 279.9 37 L 282.5 33.4 L 285.9 33.4 L 281.7 39 L 286.2 45 L 282.6 45 L 279.9 41.3 Z M 289.3 40 C 289.4 41.9 290.7 42.8 292.3 42.8 C 293.4 42.8 294.4 42.4 294.8 41.3 C 294.8 41.3 297.3 41.3 297.3 41.3 C 296.8 43.9 294.5 45.2 292.2 45.2 C 289.4 45.2 286.6 43.3 286.6 39.2 C 286.6 35.2 289.2 33.2 292.2 33.2 C 295 33.2 297.4 35 297.4 38.9 C 297.38 38.89 297.4 40 297.4 40 C 297.4 40 289.31 40.03 289.3 40 Z M 289.4 38 C 289.4 38 294.6 38 294.6 38 C 294.6 36.5 293.6 35.6 292.1 35.6 C 290.9 35.6 289.6 36.3 289.4 38 Z M 310 45 L 307.3 45 C 307.3 45 307.29 43.2 307.3 43.2 C 306.7 44.5 305.3 45.2 303.7 45.2 C 301 45.2 298.6 43.2 298.6 39.2 C 298.6 35.2 301 33.2 303.7 33.2 C 305.2 33.2 306.5 33.8 307.2 34.9 C 307.23 34.92 307.2 29 307.2 29 L 310 29 L 310 45 Z M 307.3 39.2 C 307.3 36.8 305.9 35.7 304.4 35.7 C 302.9 35.7 301.5 36.8 301.5 39.2 C 301.5 41.5 302.9 42.7 304.4 42.7 C 305.9 42.7 307.3 41.5 307.3 39.2 Z M 321.7 45 L 318.7 45 L 318.7 29.2 L 321.7 29.2 L 321.7 45 Z M 334.9 37.5 C 334.88 37.51 334.9 45 334.9 45 L 332.1 45 C 332.1 45 332.09 37.76 332.1 37.8 C 332.1 36.5 331.4 35.7 330.1 35.7 C 328.5 35.7 327.5 36.8 327.5 38.7 C 327.49 38.72 327.5 45 327.5 45 L 324.7 45 L 324.7 33.4 L 327.5 33.4 C 327.5 33.4 327.47 35.07 327.5 35.1 C 328.1 34 329.1 33.2 331 33.2 C 333.6 33.2 334.9 34.7 334.9 37.5 Z M 342.4 45.2 C 338.6 45.2 336.8 42.3 336.8 39.2 C 336.8 36.1 338.6 33.2 342.4 33.2 C 345.2 33.2 347.4 34.8 347.5 37.6 C 347.5 37.6 344.8 37.6 344.8 37.6 C 344.6 36.5 343.8 35.7 342.5 35.7 C 340.4 35.7 339.6 37.4 339.6 39.2 C 339.6 41.1 340.5 42.6 342.4 42.6 C 343.8 42.6 344.6 41.9 344.8 40.9 C 344.8 40.9 347.6 40.9 347.6 40.9 C 347.2 43.7 345.2 45.2 342.4 45.2 Z M 360.2 39.2 C 360.2 43 357.8 45.2 354.5 45.2 C 351.3 45.2 348.8 43 348.8 39.2 C 348.8 35.4 351.3 33.2 354.5 33.2 C 357.8 33.2 360.2 35.4 360.2 39.2 Z M 351.7 39.2 C 351.7 41.5 353 42.6 354.5 42.6 C 356.2 42.6 357.3 41.4 357.3 39.2 C 357.3 36.9 356 35.8 354.5 35.8 C 352.8 35.8 351.7 37 351.7 39.2 Z M 378.5 37.2 C 378.52 37.17 378.5 45 378.5 45 L 375.7 45 C 375.7 45 375.73 37.72 375.7 37.7 C 375.7 36.3 375.1 35.7 373.9 35.7 C 372.6 35.7 371.7 36.5 371.7 38.5 C 371.74 38.47 371.7 45 371.7 45 L 368.9 45 C 368.9 45 368.94 37.72 368.9 37.7 C 368.9 36.3 368.3 35.7 367.1 35.7 C 365.8 35.7 365 36.5 365 38.5 C 364.95 38.45 365 45 365 45 L 362.2 45 L 362.2 33.4 L 364.9 33.4 C 364.9 33.4 364.91 35.09 364.9 35.1 C 365.3 34.2 366.2 33.2 367.9 33.2 C 369.4 33.2 370.6 33.9 371.1 35.1 C 371.5 34.3 372.4 33.2 374.5 33.2 C 376.9 33.2 378.5 34.7 378.5 37.2 Z M 383.1 40 C 383.2 41.9 384.5 42.8 386.1 42.8 C 387.2 42.8 388.2 42.4 388.6 41.3 C 388.6 41.3 391.1 41.3 391.1 41.3 C 390.6 43.9 388.3 45.2 386 45.2 C 383.2 45.2 380.4 43.3 380.4 39.2 C 380.4 35.2 383 33.2 386 33.2 C 388.8 33.2 391.2 35 391.2 38.9 C 391.18 38.89 391.2 40 391.2 40 C 391.2 40 383.12 40.03 383.1 40 Z M 383.2 38 C 383.2 38 388.5 38 388.5 38 C 388.5 36.5 387.4 35.6 386 35.6 C 384.7 35.6 383.4 36.3 383.2 38 Z " stroke="none" fill="#000"/>  </g>  <g id="Polygon9744">    <path d="M 16.8 19.8 L 13.9 19.8 L 10.6 8.5 L 7.3 19.8 L 4.4 19.8 L 0.3 4 L 3.4 4 L 6 15 L 9.2 4 L 12.1 4 L 15.3 15.1 L 17.9 4 L 20.9 4 L 16.8 19.8 Z M 22.5 6.7 L 25.5 6.7 L 25.5 3.5 L 22.5 3.5 L 22.5 6.7 Z M 22.6 8.2 L 25.4 8.2 L 25.4 19.8 L 22.6 19.8 L 22.6 8.2 Z M 34 19.8 C 34 19.8 32.17 19.78 32.2 19.8 C 30 19.8 28.6 19.1 28.6 16 C 28.62 16 28.6 10.7 28.6 10.7 L 26.5 10.7 L 26.5 8.2 L 28.6 8.2 L 28.6 5.6 L 31.4 4.8 L 31.4 8.2 L 33.7 8.2 L 33.7 10.7 L 31.4 10.7 C 31.4 10.7 31.42 16.13 31.4 16.1 C 31.4 16.8 31.6 17.3 32.6 17.3 C 32.59 17.3 34 17.3 34 17.3 L 34 19.8 Z M 45.8 12.3 C 45.76 12.31 45.8 19.8 45.8 19.8 L 43 19.8 C 43 19.8 42.97 12.56 43 12.6 C 43 11.3 42.2 10.5 40.9 10.5 C 39.3 10.5 38.4 11.6 38.4 13.5 C 38.37 13.52 38.4 19.8 38.4 19.8 L 35.6 19.8 L 35.6 3.8 L 38.4 3.8 C 38.4 3.8 38.37 9.83 38.4 9.8 C 39 8.7 40 8 41.9 8 C 44.5 8 45.8 9.5 45.8 12.3 Z M 53.9 6.7 L 56.9 6.7 L 56.9 3.5 L 53.9 3.5 L 53.9 6.7 Z M 54 8.2 L 56.8 8.2 L 56.8 19.8 L 54 19.8 L 54 8.2 Z M 69.7 12.3 C 69.72 12.31 69.7 19.8 69.7 19.8 L 66.9 19.8 C 66.9 19.8 66.93 12.56 66.9 12.6 C 66.9 11.3 66.2 10.5 64.9 10.5 C 63.3 10.5 62.3 11.6 62.3 13.5 C 62.33 13.52 62.3 19.8 62.3 19.8 L 59.5 19.8 L 59.5 8.2 L 62.3 8.2 C 62.3 8.2 62.31 9.87 62.3 9.9 C 63 8.8 63.9 8 65.8 8 C 68.5 8 69.7 9.5 69.7 12.3 Z M 78.3 19.8 C 78.3 19.8 76.44 19.78 76.4 19.8 C 74.3 19.8 72.9 19.1 72.9 16 C 72.89 16 72.9 10.7 72.9 10.7 L 70.8 10.7 L 70.8 8.2 L 72.9 8.2 L 72.9 5.6 L 75.7 4.8 L 75.7 8.2 L 78 8.2 L 78 10.7 L 75.7 10.7 C 75.7 10.7 75.68 16.13 75.7 16.1 C 75.7 16.8 75.9 17.3 76.9 17.3 C 76.86 17.3 78.3 17.3 78.3 17.3 L 78.3 19.8 Z M 81.8 14.8 C 81.9 16.7 83.2 17.6 84.8 17.6 C 85.9 17.6 86.9 17.2 87.3 16.1 C 87.3 16.1 89.8 16.1 89.8 16.1 C 89.3 18.7 87 20 84.7 20 C 81.9 20 79.1 18.1 79.1 14 C 79.1 10 81.7 8 84.7 8 C 87.5 8 89.9 9.8 89.9 13.7 C 89.88 13.69 89.9 14.8 89.9 14.8 C 89.9 14.8 81.81 14.83 81.8 14.8 Z M 81.9 12.8 C 81.9 12.8 87.1 12.8 87.1 12.8 C 87.1 11.3 86.1 10.4 84.6 10.4 C 83.4 10.4 82.1 11.1 81.9 12.8 Z M 98.4 10.8 C 98.4 10.8 97.69 10.77 97.7 10.8 C 95.7 10.8 94.7 11.8 94.7 14.1 C 94.67 14.11 94.7 19.8 94.7 19.8 L 91.9 19.8 L 91.9 8.2 L 94.6 8.2 C 94.6 8.2 94.65 9.85 94.6 9.8 C 95.2 8.6 96.3 8.1 97.7 8.1 C 97.67 8.06 98.4 8.1 98.4 8.1 L 98.4 10.8 Z M 101.6 14.8 C 101.6 16.7 103 17.6 104.5 17.6 C 105.6 17.6 106.7 17.2 107 16.1 C 107 16.1 109.6 16.1 109.6 16.1 C 109.1 18.7 106.8 20 104.4 20 C 101.6 20 98.8 18.1 98.8 14 C 98.8 10 101.5 8 104.4 8 C 107.2 8 109.6 9.8 109.6 13.7 C 109.62 13.69 109.6 14.8 109.6 14.8 C 109.6 14.8 101.55 14.83 101.6 14.8 Z M 101.6 12.8 C 101.6 12.8 106.9 12.8 106.9 12.8 C 106.9 11.3 105.8 10.4 104.4 10.4 C 103.1 10.4 101.9 11.1 101.6 12.8 Z M 120.9 16.2 C 120.9 18.8 118.6 20 116 20 C 113.6 20 111 19 110.8 16.1 C 110.8 16.1 113.6 16.1 113.6 16.1 C 113.8 17.2 114.8 17.7 116.1 17.7 C 117.3 17.7 118.1 17.3 118.1 16.5 C 118.1 15.7 117.6 15.6 116 15.3 C 113.7 14.9 111.1 14.5 111.1 11.7 C 111.1 9.1 113.3 8 115.7 8 C 118.4 8 120.4 9.3 120.6 11.9 C 120.6 11.9 117.9 11.9 117.9 11.9 C 117.8 10.8 116.9 10.3 115.8 10.3 C 114.4 10.3 113.8 10.9 113.8 11.6 C 113.8 12.5 114.9 12.7 116.3 12.9 C 118.4 13.2 120.9 13.5 120.9 16.2 Z M 128.7 19.8 C 128.7 19.8 126.86 19.78 126.9 19.8 C 124.7 19.8 123.3 19.1 123.3 16 C 123.31 16 123.3 10.7 123.3 10.7 L 121.2 10.7 L 121.2 8.2 L 123.3 8.2 L 123.3 5.6 L 126.1 4.8 L 126.1 8.2 L 128.4 8.2 L 128.4 10.7 L 126.1 10.7 C 126.1 10.7 126.1 16.13 126.1 16.1 C 126.1 16.8 126.3 17.3 127.3 17.3 C 127.28 17.3 128.7 17.3 128.7 17.3 L 128.7 19.8 Z M 142.3 10.8 C 142.3 10.8 141.54 10.77 141.5 10.8 C 139.6 10.8 138.5 11.8 138.5 14.1 C 138.51 14.11 138.5 19.8 138.5 19.8 L 135.7 19.8 L 135.7 8.2 L 138.5 8.2 C 138.5 8.2 138.49 9.85 138.5 9.8 C 139.1 8.6 140.2 8.1 141.5 8.1 C 141.52 8.06 142.3 8.1 142.3 8.1 L 142.3 10.8 Z M 152.9 12 C 152.9 11.99 152.9 19.8 152.9 19.8 L 150.2 19.8 C 150.2 19.8 150.17 18.1 150.2 18.1 C 149.3 19.6 147.9 20 146.7 20 C 144.8 20 142.9 18.9 142.9 16.4 C 142.9 14.6 143.9 13.4 146.6 13 C 146.6 13 149.1 12.6 149.1 12.6 C 149.8 12.5 150.3 12.3 150.3 11.6 C 150.3 10.6 149.4 10.2 148.3 10.2 C 146.8 10.2 146.2 10.9 146.1 11.9 C 146.1 11.9 143.4 11.9 143.4 11.9 C 143.7 9.2 145.8 8 148.4 8 C 151.2 8 152.9 9.3 152.9 12 Z M 150.2 14.9 C 150.2 14.9 150.2 14.3 150.2 14.3 C 149.9 14.4 149.4 14.6 148.8 14.6 C 148.8 14.6 147.6 14.8 147.6 14.8 C 146.2 15 145.7 15.6 145.7 16.3 C 145.7 17.2 146.3 17.7 147.3 17.7 C 148.8 17.7 150.2 16.6 150.2 14.9 Z M 161.3 19.8 C 161.3 19.8 159.51 19.78 159.5 19.8 C 157.4 19.8 156 19.1 156 16 C 155.96 16 156 10.7 156 10.7 L 153.8 10.7 L 153.8 8.2 L 156 8.2 L 156 5.6 L 158.8 4.8 L 158.8 8.2 L 161.1 8.2 L 161.1 10.7 L 158.8 10.7 C 158.8 10.7 158.76 16.13 158.8 16.1 C 158.8 16.8 158.9 17.3 159.9 17.3 C 159.93 17.3 161.3 17.3 161.3 17.3 L 161.3 19.8 Z M 164.9 14.8 C 165 16.7 166.3 17.6 167.9 17.6 C 169 17.6 170 17.2 170.3 16.1 C 170.3 16.1 172.9 16.1 172.9 16.1 C 172.4 18.7 170.1 20 167.7 20 C 165 20 162.2 18.1 162.2 14 C 162.2 10 164.8 8 167.8 8 C 170.6 8 173 9.8 173 13.7 C 172.95 13.69 173 14.8 173 14.8 C 173 14.8 164.89 14.83 164.9 14.8 Z M 165 12.8 C 165 12.8 170.2 12.8 170.2 12.8 C 170.2 11.3 169.2 10.4 167.7 10.4 C 166.4 10.4 165.2 11.1 165 12.8 Z M 184.2 16.2 C 184.2 18.8 181.9 20 179.3 20 C 176.9 20 174.3 19 174.1 16.1 C 174.1 16.1 176.9 16.1 176.9 16.1 C 177.1 17.2 178.1 17.7 179.4 17.7 C 180.6 17.7 181.5 17.3 181.5 16.5 C 181.5 15.7 180.9 15.6 179.3 15.3 C 177 14.9 174.5 14.5 174.5 11.7 C 174.5 9.1 176.7 8 179.1 8 C 181.8 8 183.8 9.3 183.9 11.9 C 183.9 11.9 181.2 11.9 181.2 11.9 C 181.1 10.8 180.3 10.3 179.1 10.3 C 177.7 10.3 177.2 10.9 177.2 11.6 C 177.2 12.5 178.2 12.7 179.6 12.9 C 181.7 13.2 184.2 13.5 184.2 16.2 Z M 200.2 16.2 C 200.2 18.8 197.9 20 195.3 20 C 192.9 20 190.3 19 190.1 16.1 C 190.1 16.1 192.9 16.1 192.9 16.1 C 193.1 17.2 194.1 17.7 195.4 17.7 C 196.6 17.7 197.4 17.3 197.4 16.5 C 197.4 15.7 196.9 15.6 195.3 15.3 C 193 14.9 190.4 14.5 190.4 11.7 C 190.4 9.1 192.7 8 195 8 C 197.8 8 199.7 9.3 199.9 11.9 C 199.9 11.9 197.2 11.9 197.2 11.9 C 197.1 10.8 196.3 10.3 195.1 10.3 C 193.7 10.3 193.2 10.9 193.2 11.6 C 193.2 12.5 194.2 12.7 195.6 12.9 C 197.7 13.2 200.2 13.5 200.2 16.2 Z M 212.7 14 C 212.7 17.8 210.2 20 207 20 C 203.8 20 201.3 17.8 201.3 14 C 201.3 10.2 203.8 8 207 8 C 210.2 8 212.7 10.2 212.7 14 Z M 204.2 14 C 204.2 16.3 205.5 17.4 207 17.4 C 208.7 17.4 209.8 16.2 209.8 14 C 209.8 11.7 208.5 10.6 207 10.6 C 205.3 10.6 204.2 11.8 204.2 14 Z M 222.7 19.8 L 219.9 19.8 L 219.9 3.8 L 222.7 3.8 L 222.7 19.8 Z M 236 14 C 236 17.8 233.6 20 230.3 20 C 227.1 20 224.7 17.8 224.7 14 C 224.7 10.2 227.1 8 230.3 8 C 233.6 8 236 10.2 236 14 Z M 227.6 14 C 227.6 16.3 228.8 17.4 230.4 17.4 C 232 17.4 233.2 16.2 233.2 14 C 233.2 11.7 231.9 10.6 230.3 10.6 C 228.7 10.6 227.6 11.8 227.6 14 Z M 250.5 19.8 L 247.8 19.8 L 245.4 12.4 L 243.1 19.8 L 240.4 19.8 L 236.5 8.2 L 239.5 8.2 L 241.8 15.9 L 244.1 8.2 L 246.9 8.2 L 249.2 15.9 L 251.5 8.2 L 254.3 8.2 L 250.5 19.8 Z M 266.8 22.6 C 266.8 22.6 265.9 23.7 265.9 23.7 C 262.5 21.5 260.1 17.5 260.1 12.6 C 260.1 7.8 262.5 3.7 265.9 1.5 C 265.9 1.5 266.8 2.6 266.8 2.6 C 264.1 4.9 262.1 8.4 262.1 12.6 C 262.1 16.9 264.1 20.4 266.8 22.6 Z M 277.4 12 C 277.41 11.99 277.4 19.8 277.4 19.8 L 274.7 19.8 C 274.7 19.8 274.68 18.1 274.7 18.1 C 273.8 19.6 272.4 20 271.2 20 C 269.3 20 267.4 18.9 267.4 16.4 C 267.4 14.6 268.4 13.4 271.1 13 C 271.1 13 273.6 12.6 273.6 12.6 C 274.3 12.5 274.8 12.3 274.8 11.6 C 274.8 10.6 273.9 10.2 272.8 10.2 C 271.3 10.2 270.7 10.9 270.6 11.9 C 270.6 11.9 267.9 11.9 267.9 11.9 C 268.2 9.2 270.3 8 273 8 C 275.7 8 277.4 9.3 277.4 12 Z M 274.7 14.9 C 274.7 14.9 274.7 14.3 274.7 14.3 C 274.4 14.4 273.9 14.6 273.3 14.6 C 273.3 14.6 272.1 14.8 272.1 14.8 C 270.7 15 270.2 15.6 270.2 16.3 C 270.2 17.2 270.9 17.7 271.8 17.7 C 273.3 17.7 274.7 16.6 274.7 14.9 Z M 290.1 12.3 C 290.11 12.31 290.1 19.8 290.1 19.8 L 287.3 19.8 C 287.3 19.8 287.32 12.56 287.3 12.6 C 287.3 11.3 286.6 10.5 285.3 10.5 C 283.7 10.5 282.7 11.6 282.7 13.5 C 282.72 13.52 282.7 19.8 282.7 19.8 L 279.9 19.8 L 279.9 8.2 L 282.7 8.2 C 282.7 8.2 282.7 9.87 282.7 9.9 C 283.3 8.8 284.3 8 286.2 8 C 288.9 8 290.1 9.5 290.1 12.3 Z M 303.4 19.8 L 300.7 19.8 C 300.7 19.8 300.65 18 300.7 18 C 300 19.3 298.7 20 297.1 20 C 294.4 20 292 18 292 14 C 292 10 294.4 8 297.1 8 C 298.6 8 299.9 8.6 300.6 9.7 C 300.59 9.72 300.6 3.8 300.6 3.8 L 303.4 3.8 L 303.4 19.8 Z M 300.7 14 C 300.7 11.6 299.2 10.5 297.7 10.5 C 296.2 10.5 294.8 11.6 294.8 14 C 294.8 16.3 296.2 17.5 297.7 17.5 C 299.2 17.5 300.7 16.3 300.7 14 Z M 313.3 14.8 C 313.4 16.7 314.7 17.6 316.3 17.6 C 317.4 17.6 318.5 17.2 318.8 16.1 C 318.8 16.1 321.4 16.1 321.4 16.1 C 320.9 18.7 318.6 20 316.2 20 C 313.4 20 310.6 18.1 310.6 14 C 310.6 10 313.3 8 316.2 8 C 319 8 321.4 9.8 321.4 13.7 C 321.4 13.69 321.4 14.8 321.4 14.8 C 321.4 14.8 313.34 14.83 313.3 14.8 Z M 313.4 12.8 C 313.4 12.8 318.7 12.8 318.7 12.8 C 318.7 11.3 317.6 10.4 316.2 10.4 C 314.9 10.4 313.7 11.1 313.4 12.8 Z M 329.3 19.8 L 326.3 19.8 L 322 8.2 L 325 8.2 L 327.8 16.5 L 330.7 8.2 L 333.6 8.2 L 329.3 19.8 Z M 336.7 14.8 C 336.8 16.7 338.1 17.6 339.7 17.6 C 340.8 17.6 341.8 17.2 342.2 16.1 C 342.2 16.1 344.7 16.1 344.7 16.1 C 344.2 18.7 341.9 20 339.6 20 C 336.8 20 334 18.1 334 14 C 334 10 336.6 8 339.6 8 C 342.4 8 344.8 9.8 344.8 13.7 C 344.77 13.69 344.8 14.8 344.8 14.8 C 344.8 14.8 336.71 14.83 336.7 14.8 Z M 336.8 12.8 C 336.8 12.8 342 12.8 342 12.8 C 342 11.3 341 10.4 339.5 10.4 C 338.3 10.4 337 11.1 336.8 12.8 Z M 357 12.3 C 356.95 12.31 357 19.8 357 19.8 L 354.2 19.8 C 354.2 19.8 354.16 12.56 354.2 12.6 C 354.2 11.3 353.4 10.5 352.1 10.5 C 350.5 10.5 349.6 11.6 349.6 13.5 C 349.56 13.52 349.6 19.8 349.6 19.8 L 346.8 19.8 L 346.8 8.2 L 349.5 8.2 C 349.5 8.2 349.54 9.87 349.5 9.9 C 350.2 8.8 351.1 8 353.1 8 C 355.7 8 357 9.5 357 12.3 Z " stroke="none" fill="#000"/>  </g></svg>