<?xml version="1.0" standalone="no"?><!DOCTYPE svg PUBLIC "-//W3C//DTD SVG 1.1//EN" "http://www.w3.org/Graphics/SVG/1.1/DTD/svg11.dtd"><svg xmlns="http://www.w3.org/2000/svg" version="1.1" width="353px" height="129.2px" viewBox="0 -4 353 129.2" style="top:-4px"><desc>César Gil Cano Head of Funds and Absolute Return, Bankia Asset Managemente</desc><defs/><g id="Polygon10182"><path d="m19.2 109h-1.8V93.4l-6 15.6H9.9l-6-15.6V109H2.2v-18h2.7l5.8 15.2L16.5 91h2.7v18zm12-2.3c-1 1.9-3 2.6-4.6 2.6c-2.2 0-4.2-1.3-4.2-3.9c0-2.3 1.7-3.4 4-3.7l3-.4c1-.2 1.8-.5 1.8-1.6c0-1.5-1.3-2.4-3.1-2.4c-2 0-3.1 1-3.4 2.4h-1.8c.4-2.5 2.5-3.8 5.3-3.8c2.9 0 4.7 1.3 4.7 4.2v8.9h-1.7v-2.3zm-2.1-4l-2 .3c-1.6.2-2.9.8-2.9 2.4c0 1.6 1.3 2.3 2.7 2.3c2 0 4.3-1.5 4.3-4.3v-1.2c-.5.3-1.3.4-2.1.5zm17.9-2.5c-.03-.02 0 8.8 0 8.8h-1.8s.02-8.61 0-8.6c0-1.8-1-2.9-2.8-2.9c-2.2 0-4.1 1.6-4.1 4.7c-.04.04 0 6.8 0 6.8h-1.8V96.1h1.8s-.04 2.42 0 2.4c.7-1.5 2.2-2.6 4.4-2.6c2.6 0 4.3 1.4 4.3 4.3zm11.6 6.5c-1 1.9-2.9 2.6-4.6 2.6c-2.2 0-4.2-1.3-4.2-3.9c0-2.3 1.8-3.4 4-3.7l3-.4c1-.2 1.8-.5 1.8-1.6c0-1.5-1.3-2.4-3.1-2.4c-2 0-3.1 1-3.4 2.4h-1.7c.3-2.5 2.4-3.8 5.2-3.8c2.9 0 4.7 1.3 4.7 4.2v8.9h-1.7v-2.3zm-2.1-4l-2 .3c-1.6.2-2.9.8-2.9 2.4c0 1.6 1.3 2.3 2.7 2.3c2 0 4.3-1.5 4.3-4.3v-1.2c-.5.3-1.3.4-2.1.5zm18.5 5.7c0 3.9-2.5 5.8-5.8 5.8c-2.9 0-5.4-1.4-5.8-4.4h1.7c.3 1.6 1.5 3 4.1 3c2.3 0 4.1-1.2 4.1-4.3V106c-.9 1.9-2.9 2.5-4.5 2.5c-3.2 0-5.7-2.1-5.7-6.3c0-4.2 2.7-6.3 5.7-6.3c2.1 0 3.7.9 4.5 2.3c-.03.01 0-2.1 0-2.1h1.7v12.3zm-1.8-6.2c0-3.3-1.9-4.8-4.1-4.8c-2.2 0-4.3 1.6-4.3 4.8c0 3.2 2 4.7 4.2 4.7c2.1 0 4.2-1.3 4.2-4.7zm6.4.8c.1 3.2 2 4.7 4.3 4.7c1.7 0 3.4-.9 3.8-2.7h1.6c-.5 3-3 4.3-5.5 4.3c-3.1 0-5.9-2.1-5.9-6.7c0-4.6 2.9-6.7 6-6.7c3 0 5.5 1.9 5.5 6.2c.02.02 0 .9 0 .9c0 0-9.79-.02-9.8 0zm.1-1.5h7.9c0-2.6-1.6-4.1-3.8-4.1c-2 0-3.9 1.3-4.1 4.1zm12.7-5.4h1.8s-.05 2.16 0 2.2c.6-1.7 2.1-2.4 3.7-2.4c1.9 0 3.4 1 3.8 2.7c.6-1.5 2-2.7 4.2-2.7c2.4 0 4.2 1.3 4.2 3.9v9.2h-1.7s-.04-8.61 0-8.6c0-2-1.3-3-2.8-3c-1.9 0-3.5 1.5-3.5 4.2c.02.04 0 7.4 0 7.4h-1.7v-8.6c0-2-1.2-3-2.7-3c-1.9 0-3.5 1.5-3.5 4.2c-.02.04 0 7.4 0 7.4h-1.8V96.1zm22.3 6.9c.1 3.2 2 4.7 4.3 4.7c1.7 0 3.4-.9 3.8-2.7h1.6c-.5 3-3 4.3-5.5 4.3c-3.1 0-5.9-2.1-5.9-6.7c0-4.6 2.9-6.7 6-6.7c3 0 5.5 1.9 5.5 6.2c.04.02 0 .9 0 .9c0 0-9.78-.02-9.8 0zm.1-1.5h8c0-2.6-1.7-4.1-3.9-4.1c-2 0-3.9 1.3-4.1 4.1zm23.2-1.3v8.8h-1.8s.05-8.61 0-8.6c0-1.8-1-2.9-2.8-2.9c-2.2 0-4.1 1.6-4.1 4.7c-.01.04 0 6.8 0 6.8h-1.8V96.1h1.8v2.4c.8-1.5 2.2-2.6 4.5-2.6c2.5 0 4.2 1.4 4.2 4.3zm9.6 8.8h-1.9c-1.7 0-3.2-.5-3.2-3.4c-.04.02 0-7.9 0-7.9h-2.6v-1.6h2.6v-3.6l1.7-.5v4.1h3.1v1.6h-3.1v7.9c0 1.2.4 1.8 1.8 1.8c-.01.02 1.6 0 1.6 0v1.6zm3.4-6c.1 3.2 2 4.7 4.3 4.7c1.7 0 3.4-.9 3.8-2.7h1.6c-.5 3-3 4.3-5.5 4.3c-3.1 0-5.9-2.1-5.9-6.7c0-4.6 2.9-6.7 6-6.7c3 0 5.5 1.9 5.5 6.2c.02.02 0 .9 0 .9c0 0-9.79-.02-9.8 0zm.1-1.5h7.9c0-2.6-1.6-4.1-3.8-4.1c-2 0-3.9 1.3-4.1 4.1z" stroke="none" fill="#000"/></g><g id="Polygon10181"><path d="m13.3 80.2l-5.1-7.8H4v7.8H2.2v-18h6.4c3.7 0 5.5 2.3 5.5 4.9c0 2.2-1.3 4.3-3.9 5c-.02.02 5.3 8.1 5.3 8.1h-2.2zm-4.9-9.4c2.6 0 3.9-1.8 3.9-3.6c0-1.8-1.2-3.4-3.6-3.4c-.04.02-4.7 0-4.7 0v7h4.4zm10 3.4c.1 3.2 2 4.7 4.3 4.7c1.7 0 3.4-.9 3.8-2.7h1.7c-.6 3-3.1 4.3-5.6 4.3c-3 0-5.9-2.1-5.9-6.7c0-4.6 2.9-6.7 6-6.7c3.1 0 5.5 1.9 5.5 6.2c.05.02 0 .9 0 .9c0 0-9.77-.02-9.8 0zm.1-1.5h8c0-2.6-1.7-4.1-3.9-4.1c-2 0-3.9 1.3-4.1 4.1zm18.6 7.5h-1.9c-1.7 0-3.2-.5-3.2-3.4v-7.9h-2.6v-1.6h2.6v-3.6l1.7-.5v4.1h3.2v1.6h-3.2s.04 7.9 0 7.9c0 1.2.4 1.8 1.8 1.8c.02.02 1.6 0 1.6 0v1.6zm11 0s.02-2.44 0-2.4c-.9 1.7-2.5 2.6-4.3 2.6c-2.4 0-4.3-1.6-4.3-4.6c.03.04 0-8.5 0-8.5h1.8s-.02 8.32 0 8.3c0 2.1 1.1 3.2 2.8 3.2c2.1 0 3.9-1.5 3.9-4.8c.05-.01 0-6.7 0-6.7h1.8v12.9h-1.7zm12-11.4s-.44.03-.4 0c-2.8 0-4.3 1.6-4.3 4.6c-.01-.03 0 6.8 0 6.8h-1.8V67.3h1.8s-.03 2.4 0 2.4c.6-1.7 2.1-2.5 4.1-2.5c.02-.02.6 0 .6 0v1.6zm12.7 2.6c.02-.02 0 8.8 0 8.8h-1.7s-.04-8.61 0-8.6c0-1.8-1-2.9-2.9-2.9c-2.2 0-4.1 1.6-4.1 4.7v6.8h-1.7V67.3h1.7v2.4c.8-1.5 2.2-2.6 4.5-2.6c2.5 0 4.2 1.4 4.2 4.3zm5 8.7c-.02-.04-1.2 0-1.2 0v-2.4h2.6s-.02 2.44 0 2.4c0 2.9-1.7 3.9-3.5 4.1l-.2-1.1c1.9-.4 2.3-1.5 2.3-3zm23-5.1c0 2.6-2 5.3-5.8 5.2c-.01.03-6.8 0-6.8 0v-18h7.1c3.2 0 4.7 2 4.7 4.1c0 1.6-.9 3.4-2.6 4.2c2.3.8 3.4 2.7 3.4 4.5zm-6.3-5.1c2.5 0 3.7-1.6 3.7-3.2c0-1.5-1-2.9-3.2-2.9c-.03.02-5 0-5 0v6.1h4.5zm4.4 5.1c0-1.8-1.2-3.5-3.7-3.5H90v7.1s4.99-.05 5 0c2.7 0 3.9-1.8 3.9-3.6zm13 2.9c-1 1.9-3 2.6-4.6 2.6c-2.2 0-4.2-1.3-4.2-3.9c0-2.3 1.7-3.4 3.9-3.7l3.1-.4c.9-.2 1.8-.5 1.8-1.6c0-1.5-1.4-2.4-3.2-2.4c-1.9 0-3.1 1-3.3 2.4h-1.8c.4-2.5 2.4-3.8 5.3-3.8c2.9 0 4.7 1.3 4.7 4.2c-.03 0 0 8.9 0 8.9h-1.7s-.04-2.34 0-2.3zm-2.2-4l-1.9.3c-1.7.2-2.9.8-2.9 2.4c0 1.6 1.3 2.3 2.7 2.3c2 0 4.2-1.5 4.2-4.3v-1.2c-.5.3-1.2.4-2.1.5zm17.9-2.5c.03-.02 0 8.8 0 8.8h-1.7s-.02-8.61 0-8.6c0-1.8-1-2.9-2.9-2.9c-2.2 0-4.1 1.6-4.1 4.7c.02.04 0 6.8 0 6.8h-1.7V67.3h1.7s.02 2.42 0 2.4c.8-1.5 2.2-2.6 4.5-2.6c2.6 0 4.2 1.4 4.2 4.3zm7.8 2.5l-2.3 2.5v3.8h-1.7V61.9h1.7v12.3l6.3-6.9h2.3l-5.1 5.4l5.5 7.5h-2.2l-4.5-6.3zm11.1-12h-2v2.2h2v-2.2zm-.2 18.3h-1.7V67.3h1.7v12.9zm11.8-2.3c-1 1.9-2.9 2.6-4.6 2.6c-2.2 0-4.2-1.3-4.2-3.9c0-2.3 1.8-3.4 4-3.7l3-.4c1-.2 1.8-.5 1.8-1.6c0-1.5-1.3-2.4-3.1-2.4c-2 0-3.1 1-3.4 2.4h-1.7c.3-2.5 2.4-3.8 5.2-3.8c2.9 0 4.7 1.3 4.7 4.2v8.9h-1.7v-2.3zm-2.1-4l-2 .3c-1.6.2-2.9.8-2.9 2.4c0 1.6 1.3 2.3 2.7 2.3c2 0 4.3-1.5 4.3-4.3v-1.2c-.5.3-1.3.4-2.1.5zm24.4 1.2h-8.6l-2 5.1h-1.9l7.2-18h1.9l7.5 18h-2.1l-2-5.1zM176 64.3l-3.6 9.2h7.4l-3.8-9.2zm20.8 12.3c0 2.6-2.4 3.9-4.9 3.9c-2.8 0-5.4-1.4-5.6-4.3h1.9c.2 1.9 1.9 2.7 3.7 2.7c1.6 0 3.1-.7 3.1-2.1c0-1.5-1.5-1.8-3-2.1c-2.5-.4-5.4-.8-5.4-3.8c0-2.6 2.2-3.8 4.8-3.8c2.8 0 4.9 1.3 5.1 3.8h-1.8c-.2-1.5-1.6-2.3-3.3-2.3c-1.8 0-3 .8-3 2.2c0 1.6 1.6 1.9 3.5 2.2c2.4.4 4.9.8 4.9 3.6zm12.5 0c0 2.6-2.4 3.9-5 3.9c-2.8 0-5.3-1.4-5.6-4.3h1.9c.3 1.9 2 2.7 3.7 2.7c1.7 0 3.2-.7 3.2-2.1c0-1.5-1.5-1.8-3-2.1c-2.5-.4-5.4-.8-5.4-3.8c0-2.6 2.2-3.8 4.8-3.8c2.7 0 4.9 1.3 5 3.8h-1.8c-.1-1.5-1.6-2.3-3.3-2.3c-1.7 0-2.9.8-2.9 2.2c0 1.6 1.5 1.9 3.5 2.2c2.3.4 4.9.8 4.9 3.6zm3.7-2.4c.1 3.2 2.1 4.7 4.3 4.7c1.7 0 3.4-.9 3.8-2.7h1.7c-.6 3-3.1 4.3-5.6 4.3c-3 0-5.9-2.1-5.9-6.7c0-4.6 2.9-6.7 6-6.7c3.1 0 5.6 1.9 5.6 6.2c-.04.02 0 .9 0 .9c0 0-9.85-.02-9.9 0zm.1-1.5h8c0-2.6-1.7-4.1-3.9-4.1c-2 0-3.9 1.3-4.1 4.1zm18.6 7.5h-1.9c-1.7 0-3.2-.5-3.2-3.4v-7.9h-2.5v-1.6h2.5v-3.6l1.8-.5v4.1h3.1v1.6h-3.1s-.04 7.9 0 7.9c0 1.2.3 1.8 1.7 1.8c.03.02 1.6 0 1.6 0v1.6z" stroke="none" fill="#000"/></g><g id="Polygon10180"><path d="m15.7 51.4h-1.9v-8.2H4v8.2H2.2v-18h1.8v8.1h9.8v-8.1h1.9v18zm4.9-6c.1 3.2 2.1 4.7 4.3 4.7c1.7 0 3.4-.9 3.8-2.7h1.7c-.6 3-3.1 4.3-5.6 4.3c-3 0-5.9-2.1-5.9-6.7c0-4.6 2.9-6.7 6-6.7c3.1 0 5.6 1.9 5.6 6.2c-.04.02 0 .9 0 .9c0 0-9.86-.02-9.9 0zm.1-1.5h8c0-2.6-1.7-4.1-3.9-4.1c-2 0-3.9 1.3-4.1 4.1zm20.7 5.2c-1 1.9-3 2.6-4.6 2.6c-2.2 0-4.2-1.3-4.2-3.9c0-2.3 1.7-3.4 3.9-3.7l3.1-.4c.9-.2 1.8-.5 1.8-1.6c0-1.5-1.3-2.4-3.1-2.4c-2 0-3.2 1-3.4 2.4h-1.8c.4-2.5 2.4-3.8 5.3-3.8c2.9 0 4.7 1.3 4.7 4.2c-.02 0 0 8.9 0 8.9h-1.7s-.02-2.34 0-2.3zm-2.2-4l-1.9.3c-1.7.2-2.9.8-2.9 2.4c0 1.6 1.3 2.3 2.7 2.3c2 0 4.2-1.5 4.2-4.3v-1.2c-.5.3-1.2.4-2.1.5zm18.7 6.3h-1.7s.01-2.49 0-2.5c-.6 1.5-2.2 2.8-4.6 2.8c-3.4 0-5.8-2.7-5.8-6.7c0-4.1 2.4-6.7 5.8-6.7c2.2 0 3.8 1.1 4.5 2.4c.04 0 0-7.6 0-7.6h1.8v18.3zm-1.8-6.5c0-3.2-1.8-5-4.2-5c-2.6 0-4.3 1.9-4.3 5.1c0 3.1 1.8 5.1 4.3 5.1c2.5 0 4.2-2 4.2-5.2zm10.8.1c0-4.2 2.5-6.7 6.1-6.7c3.5 0 6.1 2.5 6.1 6.7c0 4.2-2.5 6.7-6.1 6.7c-3.5 0-6.1-2.5-6.1-6.7zm10.4-.1c0-3.2-1.9-5-4.3-5c-2.6 0-4.3 2-4.3 5.1c0 3.2 1.9 5 4.3 5c2.5 0 4.3-1.9 4.3-5.1zm8.9-10.2c-1.4 0-1.8.6-1.8 1.8c.03.03 0 2 0 2h2.9v1.6h-2.9v11.3h-1.7V40.1h-2.2v-1.6h2.2s-.02-2.02 0-2c0-2.9 1.5-3.4 3.2-3.4c.02.02 1.7 0 1.7 0v1.6s-1.39-.02-1.4 0zM98 51.4h-1.9v-18h11.3v1.6H98v6.5h8.9v1.6H98v8.3zm20.2 0s-.02-2.44 0-2.4c-.9 1.7-2.5 2.6-4.3 2.6c-2.4 0-4.3-1.6-4.3-4.6c-.02.04 0-8.5 0-8.5h1.7s.04 8.32 0 8.3c0 2.1 1.2 3.2 2.9 3.2c2.1 0 3.9-1.5 3.9-4.8v-6.7h1.8v12.9h-1.7zm16-8.8c-.04-.02 0 8.8 0 8.8h-1.8v-8.6c0-1.8-1-2.9-2.8-2.9c-2.2 0-4.2 1.6-4.2 4.7c.05.04 0 6.8 0 6.8h-1.7V38.5h1.7s.05 2.42 0 2.4c.8-1.5 2.3-2.6 4.5-2.6c2.6 0 4.3 1.4 4.3 4.3zm14.9 8.8h-1.7s.01-2.49 0-2.5c-.6 1.5-2.2 2.8-4.6 2.8c-3.4 0-5.8-2.7-5.8-6.7c0-4.1 2.4-6.7 5.8-6.7c2.2 0 3.8 1.1 4.5 2.4c.04 0 0-7.6 0-7.6h1.8v18.3zm-1.8-6.5c0-3.2-1.8-5-4.2-5c-2.6 0-4.3 1.9-4.3 5.1c0 3.1 1.8 5.1 4.3 5.1c2.5 0 4.2-2 4.2-5.2zm15.2 2.9c0 2.6-2.4 3.9-5 3.9c-2.7 0-5.3-1.4-5.5-4.3h1.8c.3 1.9 2 2.7 3.8 2.7c1.6 0 3.1-.7 3.1-2.1c0-1.5-1.5-1.8-3-2.1c-2.5-.4-5.4-.8-5.4-3.8c0-2.6 2.2-3.8 4.8-3.8c2.8 0 4.9 1.3 5.1 3.8h-1.9c-.1-1.5-1.6-2.3-3.2-2.3c-1.8 0-3 .8-3 2.2c0 1.6 1.6 1.9 3.5 2.2c2.3.4 4.9.8 4.9 3.6zm16.8 1.3c-1 1.9-2.9 2.6-4.6 2.6c-2.2 0-4.2-1.3-4.2-3.9c0-2.3 1.7-3.4 4-3.7l3-.4c1-.2 1.8-.5 1.8-1.6c0-1.5-1.3-2.4-3.1-2.4c-2 0-3.1 1-3.4 2.4H171c.4-2.5 2.5-3.8 5.3-3.8c2.9 0 4.7 1.3 4.7 4.2v8.9h-1.7v-2.3zm-2.1-4l-2 .3c-1.6.2-2.9.8-2.9 2.4c0 1.6 1.3 2.3 2.7 2.3c2 0 4.3-1.5 4.3-4.3v-1.2c-.5.3-1.3.4-2.1.5zm17.9-2.5c-.03-.02 0 8.8 0 8.8h-1.8s.02-8.61 0-8.6c0-1.8-1-2.9-2.8-2.9c-2.2 0-4.1 1.6-4.1 4.7c-.04.04 0 6.8 0 6.8h-1.8V38.5h1.8s-.04 2.42 0 2.4c.7-1.5 2.2-2.6 4.4-2.6c2.6 0 4.3 1.4 4.3 4.3zm14.9 8.8h-1.7s.02-2.49 0-2.5c-.6 1.5-2.2 2.8-4.6 2.8c-3.3 0-5.7-2.7-5.7-6.7c0-4.1 2.4-6.7 5.8-6.7c2.1 0 3.8 1.1 4.4 2.4c.05 0 0-7.6 0-7.6h1.8v18.3zm-1.8-6.5c0-3.2-1.8-5-4.2-5c-2.5 0-4.2 1.9-4.2 5.1c0 3.1 1.7 5.1 4.2 5.1c2.5 0 4.2-2 4.2-5.2zm23.1 1.4h-8.6l-2 5.1h-1.9l7.2-18h1.9l7.5 18h-2l-2.1-5.1zm-4.4-10.8l-3.6 9.2h7.4l-3.8-9.2zm23.3 9.4c0 4.1-2.4 6.8-5.9 6.8c-2.3 0-3.8-1.3-4.5-2.7c.03.03 0 2.4 0 2.4h-1.6V33.1h1.7v8c.7-1.5 2.3-2.8 4.6-2.8c3.3 0 5.7 2.5 5.7 6.6zm-1.8.1c0-3.2-1.7-5-4.2-5c-2.5 0-4.3 1.9-4.3 5.1c0 3.1 1.8 5.1 4.2 5.1c2.6 0 4.3-2.1 4.3-5.2zm14.4 2.8c0 2.6-2.4 3.9-5 3.9c-2.8 0-5.3-1.4-5.6-4.3h1.9c.3 1.9 2 2.7 3.7 2.7c1.7 0 3.1-.7 3.1-2.1c0-1.5-1.5-1.8-3-2.1c-2.4-.4-5.4-.8-5.4-3.8c0-2.6 2.2-3.8 4.9-3.8c2.7 0 4.9 1.3 5 3.8h-1.8c-.1-1.5-1.6-2.3-3.3-2.3c-1.7 0-2.9.8-2.9 2.2c0 1.6 1.5 1.9 3.5 2.2c2.3.4 4.9.8 4.9 3.6zm2-2.8c0-4.2 2.5-6.7 6.1-6.7c3.5 0 6.1 2.5 6.1 6.7c0 4.2-2.5 6.7-6.1 6.7c-3.5 0-6.1-2.5-6.1-6.7zm10.4-.1c0-3.2-1.9-5-4.3-5c-2.6 0-4.3 2-4.3 5.1c0 3.2 1.9 5 4.3 5c2.5 0 4.3-1.9 4.3-5.1zm6.6 6.5H280V33.1h1.8v18.3zm12.3 0s-.03-2.44 0-2.4c-.9 1.7-2.5 2.6-4.3 2.6c-2.5 0-4.3-1.6-4.3-4.6c-.02.04 0-8.5 0-8.5h1.7s.03 8.32 0 8.3c0 2.1 1.2 3.2 2.9 3.2c2 0 3.9-1.5 3.9-4.8v-6.7h1.7v12.9h-1.6zm11.4 0h-1.9c-1.7 0-3.3-.5-3.3-3.4c.03.02 0-7.9 0-7.9h-2.5v-1.6h2.5v-3.6l1.8-.5v4.1h3.1v1.6h-3.1v7.9c0 1.2.3 1.8 1.8 1.8c-.04.02 1.6 0 1.6 0v1.6zm3.4-6c0 3.2 2 4.7 4.3 4.7c1.7 0 3.4-.9 3.7-2.7h1.7c-.6 3-3.1 4.3-5.5 4.3c-3.1 0-6-2.1-6-6.7c0-4.6 3-6.7 6-6.7c3.1 0 5.6 1.9 5.6 6.2c-.01.02 0 .9 0 .9c0 0-9.82-.02-9.8 0zm0-1.5h8c0-2.6-1.7-4.1-3.8-4.1c-2 0-3.9 1.3-4.2 4.1z" stroke="none" fill="#000"/></g><g id="Polygon10179"><path d="m14.3 16h3.4c-.3 4.7-3.9 7.1-8 7.1C4 23.1 1 18.5 1 13.5c0-4.7 2.7-9.3 8.8-9.3c4.2 0 7.4 2.3 7.8 6.4h-3.4c-.2-2-2.1-3.3-4.5-3.3c-3.7 0-5.4 3-5.4 6.2c0 3.3 1.9 6.3 5.4 6.3c2.2 0 4.4-1 4.6-3.8zm9.9-9l3.7-5.7l2.5 1.9L26.9 7h-2.7zm-1.8 9.9c0 2.2 1.6 3.2 3.4 3.2c1.2 0 2.4-.5 2.8-1.7h2.9c-.5 2.9-3.2 4.5-5.9 4.5c-3.2 0-6.3-2.2-6.3-6.9c0-4.5 3-6.9 6.4-6.9c3.2 0 5.9 2.2 5.9 6.5c-.02.05 0 1.3 0 1.3c0 0-9.23.04-9.2 0zm0-2.3h6.1c0-1.7-1.3-2.7-2.9-2.7c-1.5 0-2.9.8-3.2 2.7zm22 3.9c0 3-2.6 4.4-5.6 4.4c-2.7 0-5.7-1.2-5.9-4.5h3.2c.2 1.3 1.4 1.9 2.9 1.9c1.3 0 2.3-.5 2.3-1.5c0-.8-.6-1-2.4-1.3c-2.6-.5-5.6-.9-5.6-4.2c0-3 2.5-4.2 5.3-4.2c3.1 0 5.3 1.6 5.5 4.5H41c-.1-1.3-1-1.8-2.4-1.8c-1.6 0-2.2.7-2.2 1.4c0 1.1 1.2 1.3 2.8 1.5c2.4.4 5.2.7 5.2 3.8zm12.8-4.8v8.9h-3.1s-.03-1.91 0-1.9c-1.1 1.7-2.6 2.2-4 2.2c-2.1 0-4.3-1.3-4.3-4.1c0-2.1 1.1-3.5 4.2-4l2.8-.4c.8-.1 1.4-.4 1.4-1.2c0-1.1-1-1.6-2.2-1.6c-1.7 0-2.5.9-2.6 2h-3.1c.3-3.1 2.8-4.5 5.8-4.5c3.1 0 5.1 1.5 5.1 4.6zM54.1 17v-.7c-.3.2-.9.3-1.6.4l-1.4.2c-1.6.2-2.1.9-2.1 1.7c0 1.1.7 1.6 1.8 1.6c1.7 0 3.3-1.2 3.3-3.2zm13.5-4.7s-.88.01-.9 0c-2.2 0-3.4 1.2-3.4 3.8c-.04.03 0 6.5 0 6.5h-3.2V9.4h3.1s.04 1.86 0 1.9c.7-1.5 1.9-2.1 3.5-2.1c0 .02.9 0 .9 0v3.1zm22.6.7v9.6h-3.1v-2.1c-.7 1.2-2.3 2.6-5.3 2.6c-5 0-8.2-4-8.2-9.3c0-5 2.7-9.6 8.8-9.6c4.2 0 7.4 2.3 7.8 6.4h-3.4c-.2-2-2.1-3.3-4.5-3.3c-3.7 0-5.4 2.9-5.4 6.4c0 3.7 1.9 6.2 5.4 6.2c2.5 0 4.5-1.2 4.8-3.8c.02-.02-5.3 0-5.3 0V13h8.4zm3.1-5.4h3.4V4h-3.4v3.6zm.1 1.8h3.2v13.2h-3.2V9.4zm9.5 13.2h-3.2V4.3h3.2v18.3zm21.6-6.6h3.4c-.2 4.7-3.9 7.1-8 7.1c-5.7 0-8.7-4.6-8.7-9.6c0-4.7 2.8-9.3 8.8-9.3c4.2 0 7.4 2.3 7.8 6.4h-3.4c-.2-2-2.1-3.3-4.5-3.3c-3.6 0-5.4 3-5.4 6.2c0 3.3 1.9 6.3 5.5 6.3c2.1 0 4.3-1 4.5-3.8zm16.4-2.3c.03 0 0 8.9 0 8.9h-3.1v-1.9c-1 1.7-2.6 2.2-4 2.2c-2.1 0-4.3-1.3-4.3-4.1c0-2.1 1.2-3.5 4.2-4l2.9-.4c.8-.1 1.3-.4 1.3-1.2c0-1.1-.9-1.6-2.2-1.6c-1.7 0-2.5.9-2.6 2H130c.4-3.1 2.8-4.5 5.8-4.5c3.2 0 5.1 1.5 5.1 4.6zm-3.1 3.3v-.7c-.3.2-.9.3-1.5.4l-1.5.2c-1.6.2-2.1.9-2.1 1.7c0 1.1.7 1.6 1.8 1.6c1.7 0 3.3-1.2 3.3-3.2zm17.6-2.9c.05-.04 0 8.5 0 8.5h-3.1s-.05-8.25 0-8.2c0-1.5-.9-2.4-2.4-2.4c-1.8 0-2.9 1.3-2.9 3.5v7.1h-3.2V9.4h3.2s-.03 1.88 0 1.9c.7-1.2 1.8-2.2 4-2.2c3 0 4.4 1.8 4.4 5zm15.1 1.9c0 4.3-2.7 6.9-6.4 6.9c-3.7 0-6.5-2.6-6.5-6.9c0-4.3 2.8-6.9 6.5-6.9c3.7 0 6.4 2.6 6.4 6.9zm-9.6 0c0 2.7 1.4 3.9 3.2 3.9c1.9 0 3.2-1.4 3.2-3.9c0-2.7-1.5-3.9-3.3-3.9c-1.9 0-3.1 1.4-3.1 3.9z" stroke="none" fill="#000"/></g></svg>