<?xml version="1.0" standalone="no"?><!DOCTYPE svg PUBLIC "-//W3C//DTD SVG 1.1//EN" "http://www.w3.org/Graphics/SVG/1.1/DTD/svg11.dtd"><svg xmlns="http://www.w3.org/2000/svg" version="1.1" width="387px" height="71.2px" viewBox="0 -4 387 71.2" style="top:-4px">  <desc>Rüdiger Sälzle FondsConsult Research, GmbH</desc>  <defs/>  <g id="Polygon11846">    <path d="M 4 51.4 L 2.2 51.4 L 2.2 33.4 L 13.4 33.4 L 13.4 35 L 4 35 L 4 41.5 L 12.9 41.5 L 12.9 43.1 L 4 43.1 L 4 51.4 Z M 14.9 45 C 14.9 40.8 17.4 38.3 21 38.3 C 24.5 38.3 27.1 40.8 27.1 45 C 27.1 49.2 24.6 51.7 21 51.7 C 17.4 51.7 14.9 49.2 14.9 45 Z M 25.3 44.9 C 25.3 41.7 23.4 39.9 21 39.9 C 18.4 39.9 16.7 41.9 16.7 45 C 16.7 48.2 18.6 50 21 50 C 23.5 50 25.3 48.1 25.3 44.9 Z M 40.6 42.6 C 40.56 42.58 40.6 51.4 40.6 51.4 L 38.8 51.4 C 38.8 51.4 38.81 42.79 38.8 42.8 C 38.8 41 37.8 39.9 36 39.9 C 33.8 39.9 31.8 41.5 31.8 44.6 C 31.85 44.64 31.8 51.4 31.8 51.4 L 30.1 51.4 L 30.1 38.5 L 31.8 38.5 C 31.8 38.5 31.85 40.92 31.8 40.9 C 32.6 39.4 34.1 38.3 36.3 38.3 C 38.9 38.3 40.6 39.7 40.6 42.6 Z M 55.5 51.4 L 53.8 51.4 C 53.8 51.4 53.81 48.91 53.8 48.9 C 53.2 50.4 51.6 51.7 49.2 51.7 C 45.8 51.7 43.4 49 43.4 45 C 43.4 40.9 45.8 38.3 49.2 38.3 C 51.4 38.3 53 39.4 53.7 40.7 C 53.74 40.7 53.7 33.1 53.7 33.1 L 55.5 33.1 L 55.5 51.4 Z M 53.7 44.9 C 53.7 41.7 51.9 39.9 49.5 39.9 C 46.9 39.9 45.2 41.8 45.2 45 C 45.2 48.1 47 50.1 49.5 50.1 C 52 50.1 53.7 48.1 53.7 44.9 Z M 68.9 47.8 C 68.9 50.4 66.5 51.7 63.9 51.7 C 61.2 51.7 58.6 50.3 58.4 47.4 C 58.4 47.4 60.2 47.4 60.2 47.4 C 60.5 49.3 62.2 50.1 64 50.1 C 65.6 50.1 67.1 49.4 67.1 48 C 67.1 46.5 65.6 46.2 64.1 45.9 C 61.6 45.5 58.7 45.1 58.7 42.1 C 58.7 39.5 60.9 38.3 63.5 38.3 C 66.3 38.3 68.4 39.6 68.6 42.1 C 68.6 42.1 66.7 42.1 66.7 42.1 C 66.6 40.6 65.1 39.8 63.5 39.8 C 61.7 39.8 60.5 40.6 60.5 42 C 60.5 43.6 62.1 43.9 64 44.2 C 66.3 44.6 68.9 45 68.9 47.8 Z M 85.2 38.8 C 84.9 36.2 82.5 34.7 79.7 34.7 C 75.9 34.7 73.1 37.6 73.1 42.2 C 73.1 46.4 75.3 50.1 79.8 50.1 C 82.8 50.1 85.2 48.5 85.4 45.3 C 85.4 45.3 87.3 45.3 87.3 45.3 C 87.1 49.4 83.8 51.9 79.7 51.9 C 74.1 51.9 71.2 47.4 71.2 42.3 C 71.2 36.6 74.8 33 79.8 33 C 83.5 33 86.7 35 87.1 38.8 C 87.1 38.8 85.2 38.8 85.2 38.8 Z M 89.6 45 C 89.6 40.8 92.1 38.3 95.7 38.3 C 99.2 38.3 101.8 40.8 101.8 45 C 101.8 49.2 99.2 51.7 95.7 51.7 C 92.1 51.7 89.6 49.2 89.6 45 Z M 100 44.9 C 100 41.7 98 39.9 95.6 39.9 C 93.1 39.9 91.4 41.9 91.4 45 C 91.4 48.2 93.3 50 95.7 50 C 98.2 50 100 48.1 100 44.9 Z M 115.2 42.6 C 115.25 42.58 115.2 51.4 115.2 51.4 L 113.5 51.4 C 113.5 51.4 113.5 42.79 113.5 42.8 C 113.5 41 112.5 39.9 110.7 39.9 C 108.5 39.9 106.5 41.5 106.5 44.6 C 106.54 44.64 106.5 51.4 106.5 51.4 L 104.8 51.4 L 104.8 38.5 L 106.5 38.5 C 106.5 38.5 106.54 40.92 106.5 40.9 C 107.3 39.4 108.7 38.3 111 38.3 C 113.6 38.3 115.2 39.7 115.2 42.6 Z M 128.5 47.8 C 128.5 50.4 126.2 51.7 123.6 51.7 C 120.8 51.7 118.3 50.3 118 47.4 C 118 47.4 119.9 47.4 119.9 47.4 C 120.2 49.3 121.8 50.1 123.6 50.1 C 125.3 50.1 126.7 49.4 126.7 48 C 126.7 46.5 125.2 46.2 123.7 45.9 C 121.2 45.5 118.3 45.1 118.3 42.1 C 118.3 39.5 120.5 38.3 123.2 38.3 C 125.9 38.3 128.1 39.6 128.2 42.1 C 128.2 42.1 126.4 42.1 126.4 42.1 C 126.3 40.6 124.8 39.8 123.1 39.8 C 121.3 39.8 120.1 40.6 120.1 42 C 120.1 43.6 121.7 43.9 123.6 44.2 C 126 44.6 128.5 45 128.5 47.8 Z M 139.9 51.4 C 139.9 51.4 139.89 48.96 139.9 49 C 139 50.7 137.4 51.6 135.6 51.6 C 133.2 51.6 131.3 50 131.3 47 C 131.3 47.04 131.3 38.5 131.3 38.5 L 133.1 38.5 C 133.1 38.5 133.05 46.82 133.1 46.8 C 133.1 48.9 134.2 50 135.9 50 C 138 50 139.8 48.5 139.8 45.2 C 139.82 45.19 139.8 38.5 139.8 38.5 L 141.6 38.5 L 141.6 51.4 L 139.9 51.4 Z M 147.2 51.4 L 145.4 51.4 L 145.4 33.1 L 147.2 33.1 L 147.2 51.4 Z M 156.9 51.4 C 156.9 51.4 154.99 51.41 155 51.4 C 153.3 51.4 151.8 50.9 151.8 48 C 151.75 48.02 151.8 40.1 151.8 40.1 L 149.2 40.1 L 149.2 38.5 L 151.8 38.5 L 151.8 34.9 L 153.5 34.4 L 153.5 38.5 L 156.6 38.5 L 156.6 40.1 L 153.5 40.1 C 153.5 40.1 153.5 48 153.5 48 C 153.5 49.2 153.8 49.8 155.3 49.8 C 155.28 49.82 156.9 49.8 156.9 49.8 L 156.9 51.4 Z M 177 51.4 L 171.9 43.6 L 167.7 43.6 L 167.7 51.4 L 165.9 51.4 L 165.9 33.4 C 165.9 33.4 172.29 33.41 172.3 33.4 C 176 33.4 177.9 35.7 177.9 38.3 C 177.9 40.5 176.5 42.6 173.9 43.3 C 173.9 43.32 179.2 51.4 179.2 51.4 L 177 51.4 Z M 172.2 42 C 174.7 42 176.1 40.2 176.1 38.4 C 176.1 36.6 174.9 35 172.4 35 C 172.39 35.02 167.7 35 167.7 35 L 167.7 42 C 167.7 42 172.17 42 172.2 42 Z M 182.2 45.4 C 182.2 48.6 184.2 50.1 186.5 50.1 C 188.2 50.1 189.8 49.2 190.2 47.4 C 190.2 47.4 191.9 47.4 191.9 47.4 C 191.3 50.4 188.8 51.7 186.4 51.7 C 183.3 51.7 180.4 49.6 180.4 45 C 180.4 40.4 183.3 38.3 186.4 38.3 C 189.5 38.3 192 40.2 192 44.5 C 191.97 44.52 192 45.4 192 45.4 C 192 45.4 182.16 45.38 182.2 45.4 Z M 182.2 43.9 C 182.2 43.9 190.2 43.9 190.2 43.9 C 190.2 41.3 188.5 39.8 186.4 39.8 C 184.3 39.8 182.4 41.1 182.2 43.9 Z M 204.5 47.8 C 204.5 50.4 202.2 51.7 199.6 51.7 C 196.8 51.7 194.3 50.3 194 47.4 C 194 47.4 195.9 47.4 195.9 47.4 C 196.2 49.3 197.9 50.1 199.6 50.1 C 201.3 50.1 202.7 49.4 202.7 48 C 202.7 46.5 201.2 46.2 199.7 45.9 C 197.3 45.5 194.3 45.1 194.3 42.1 C 194.3 39.5 196.5 38.3 199.2 38.3 C 201.9 38.3 204.1 39.6 204.2 42.1 C 204.2 42.1 202.4 42.1 202.4 42.1 C 202.3 40.6 200.8 39.8 199.1 39.8 C 197.3 39.8 196.1 40.6 196.1 42 C 196.1 43.6 197.7 43.9 199.7 44.2 C 202 44.6 204.5 45 204.5 47.8 Z M 208.3 45.4 C 208.4 48.6 210.3 50.1 212.6 50.1 C 214.3 50.1 216 49.2 216.4 47.4 C 216.4 47.4 218 47.4 218 47.4 C 217.5 50.4 215 51.7 212.5 51.7 C 209.4 51.7 206.6 49.6 206.6 45 C 206.6 40.4 209.5 38.3 212.6 38.3 C 215.6 38.3 218.1 40.2 218.1 44.5 C 218.13 44.52 218.1 45.4 218.1 45.4 C 218.1 45.4 208.32 45.38 208.3 45.4 Z M 208.4 43.9 C 208.4 43.9 216.4 43.9 216.4 43.9 C 216.4 41.3 214.7 39.8 212.5 39.8 C 210.5 39.8 208.6 41.1 208.4 43.9 Z M 229.1 49.1 C 228 51 226.1 51.7 224.5 51.7 C 222.3 51.7 220.3 50.4 220.3 47.8 C 220.3 45.5 222 44.4 224.2 44.1 C 224.2 44.1 227.3 43.7 227.3 43.7 C 228.2 43.5 229.1 43.2 229.1 42.1 C 229.1 40.6 227.7 39.7 225.9 39.7 C 224 39.7 222.8 40.7 222.5 42.1 C 222.5 42.1 220.8 42.1 220.8 42.1 C 221.2 39.6 223.2 38.3 226.1 38.3 C 229 38.3 230.8 39.6 230.8 42.5 C 230.76 42.5 230.8 51.4 230.8 51.4 L 229.1 51.4 C 229.1 51.4 229.05 49.06 229.1 49.1 Z M 226.9 45.1 C 226.9 45.1 224.9 45.4 224.9 45.4 C 223.3 45.6 222.1 46.2 222.1 47.8 C 222.1 49.4 223.3 50.1 224.8 50.1 C 226.8 50.1 229 48.6 229 45.8 C 229 45.8 229 44.6 229 44.6 C 228.5 44.9 227.8 45 226.9 45.1 Z M 240.8 40 C 240.8 40 240.38 40.03 240.4 40 C 237.6 40 236.1 41.6 236.1 44.6 C 236.11 44.57 236.1 51.4 236.1 51.4 L 234.4 51.4 L 234.4 38.5 L 236.1 38.5 C 236.1 38.5 236.09 40.9 236.1 40.9 C 236.7 39.2 238.2 38.4 240.2 38.4 C 240.24 38.38 240.8 38.4 240.8 38.4 L 240.8 40 Z M 248 51.7 C 244.4 51.7 242 49 242 45 C 242 41 244.4 38.3 248.1 38.3 C 251 38.3 253.2 39.8 253.4 42.8 C 253.4 42.8 251.7 42.8 251.7 42.8 C 251.5 40.9 250 39.8 248.1 39.8 C 245.6 39.8 243.8 41.8 243.8 45 C 243.8 48.1 245.5 50.1 248.1 50.1 C 250 50.1 251.6 48.9 251.7 46.9 C 251.7 46.9 253.4 46.9 253.4 46.9 C 253.2 50 250.8 51.7 248 51.7 Z M 266.9 42.6 C 266.9 42.58 266.9 51.4 266.9 51.4 L 265.1 51.4 C 265.1 51.4 265.15 42.79 265.1 42.8 C 265.1 41 264.1 39.9 262.3 39.9 C 260.1 39.9 258.2 41.5 258.2 44.6 C 258.19 44.64 258.2 51.4 258.2 51.4 L 256.4 51.4 L 256.4 33.1 L 258.2 33.1 C 258.2 33.1 258.19 40.78 258.2 40.8 C 258.9 39.4 260.3 38.3 262.6 38.3 C 265.2 38.3 266.9 39.7 266.9 42.6 Z M 271.9 51.3 C 271.87 51.26 270.7 51.3 270.7 51.3 L 270.7 48.9 L 273.3 48.9 C 273.3 48.9 273.26 51.34 273.3 51.3 C 273.3 54.2 271.6 55.2 269.8 55.4 C 269.8 55.4 269.5 54.3 269.5 54.3 C 271.5 53.9 271.9 52.8 271.9 51.3 Z M 296.7 42.4 L 296.7 51.4 L 295 51.4 C 295 51.4 295 48.72 295 48.7 C 294 50.6 291.8 51.9 288.9 51.9 C 283.5 51.9 280.7 47.4 280.7 42.3 C 280.7 36.7 284.2 33 289.2 33 C 292.9 33 296.3 35 296.7 38.8 C 296.7 38.8 294.8 38.8 294.8 38.8 C 294.4 36.2 292.1 34.7 289.3 34.7 C 285.5 34.7 282.6 37.6 282.6 42.3 C 282.6 46.5 284.8 50.2 289.1 50.2 C 292.5 50.2 295 47.9 295 44 C 294.96 44.04 288.9 44 288.9 44 L 288.9 42.4 L 296.7 42.4 Z M 300.6 38.5 L 302.4 38.5 C 302.4 38.5 302.37 40.66 302.4 40.7 C 303.1 39 304.5 38.3 306.1 38.3 C 308 38.3 309.5 39.3 309.9 41 C 310.5 39.5 311.9 38.3 314.2 38.3 C 316.5 38.3 318.3 39.6 318.3 42.2 C 318.33 42.17 318.3 51.4 318.3 51.4 L 316.6 51.4 C 316.6 51.4 316.58 42.79 316.6 42.8 C 316.6 40.8 315.4 39.8 313.8 39.8 C 311.9 39.8 310.3 41.3 310.3 44 C 310.34 44.04 310.3 51.4 310.3 51.4 L 308.6 51.4 C 308.6 51.4 308.61 42.79 308.6 42.8 C 308.6 40.8 307.4 39.8 305.9 39.8 C 304 39.8 302.4 41.3 302.4 44 C 302.4 44.04 302.4 51.4 302.4 51.4 L 300.6 51.4 L 300.6 38.5 Z M 334.1 44.9 C 334.1 49 331.7 51.7 328.2 51.7 C 325.9 51.7 324.4 50.4 323.7 49 C 323.73 49.03 323.7 51.4 323.7 51.4 L 322.1 51.4 L 322.1 33.1 L 323.8 33.1 C 323.8 33.1 323.8 41.11 323.8 41.1 C 324.5 39.6 326.1 38.3 328.4 38.3 C 331.7 38.3 334.1 40.8 334.1 44.9 Z M 332.3 45 C 332.3 41.8 330.6 40 328.1 40 C 325.6 40 323.8 41.9 323.8 45.1 C 323.8 48.2 325.6 50.2 328 50.2 C 330.6 50.2 332.3 48.1 332.3 45 Z M 350.8 51.4 L 349 51.4 L 349 43.2 L 339.1 43.2 L 339.1 51.4 L 337.3 51.4 L 337.3 33.4 L 339.1 33.4 L 339.1 41.5 L 349 41.5 L 349 33.4 L 350.8 33.4 L 350.8 51.4 Z " stroke="none" fill="#000"/>  </g>  <g id="Polygon11845">    <path d="M 12.5 22.6 L 7.9 15.4 L 5.1 15.4 L 5.1 22.6 L 1.8 22.6 L 1.8 4.6 C 1.8 4.6 8.83 4.61 8.8 4.6 C 12.9 4.6 14.8 7.2 14.8 9.8 C 14.8 11.9 13.6 14 11.4 14.8 C 11.35 14.78 16.5 22.6 16.5 22.6 L 12.5 22.6 Z M 11.5 9.9 C 11.5 8.9 10.8 7.7 9 7.7 C 8.98 7.73 5.1 7.7 5.1 7.7 L 5.1 12.4 C 5.1 12.4 8.71 12.36 8.7 12.4 C 10.6 12.4 11.5 11.2 11.5 9.9 Z M 19.7 4.1 L 22.5 4.1 L 22.5 7 L 19.7 7 L 19.7 4.1 Z M 24.7 4.1 L 27.5 4.1 L 27.5 7 L 24.7 7 L 24.7 4.1 Z M 29.4 22.6 L 26.3 22.6 C 26.3 22.6 26.28 20.74 26.3 20.7 C 25.5 22 24.3 22.8 22.5 22.8 C 19.7 22.8 17.7 21 17.7 17.6 C 17.69 17.59 17.7 9.4 17.7 9.4 L 20.9 9.4 C 20.9 9.4 20.88 17.35 20.9 17.4 C 20.9 19.2 21.8 19.9 23.1 19.9 C 24.9 19.9 26.2 18.8 26.2 15.8 C 26.21 15.77 26.2 9.4 26.2 9.4 L 29.4 9.4 L 29.4 22.6 Z M 44.7 22.6 L 41.6 22.6 C 41.6 22.6 41.57 20.57 41.6 20.6 C 40.8 22.1 39.3 22.9 37.5 22.9 C 34.4 22.9 31.7 20.6 31.7 16 C 31.7 11.4 34.4 9.1 37.5 9.1 C 39.2 9.1 40.7 9.8 41.5 11.1 C 41.5 11.11 41.5 4.3 41.5 4.3 L 44.7 4.3 L 44.7 22.6 Z M 41.6 16 C 41.6 13.2 40 12 38.2 12 C 36.5 12 34.9 13.3 34.9 16 C 34.9 18.6 36.5 20 38.2 20 C 40 20 41.6 18.7 41.6 16 Z M 47.7 7.6 L 51.1 7.6 L 51.1 4 L 47.7 4 L 47.7 7.6 Z M 47.8 9.4 L 51 9.4 L 51 22.6 L 47.8 22.6 L 47.8 9.4 Z M 66 21.7 C 66 26 63.3 27.8 59.7 27.8 C 56.5 27.8 53.8 26.3 53.4 23 C 53.4 23 56.5 23 56.5 23 C 56.9 24.6 58.2 25.2 59.7 25.2 C 61.8 25.2 62.9 24.1 62.9 22.1 C 62.9 22.1 62.9 19.8 62.9 19.8 C 62.3 21.2 61 22.1 59 22.1 C 56 22.1 53.2 20.1 53.2 15.6 C 53.2 11.2 56 9.1 59 9.1 C 60.9 9.1 62.3 10 62.9 11.2 C 62.93 11.21 62.9 9.4 62.9 9.4 L 66 9.4 C 66 9.4 66 21.72 66 21.7 Z M 62.8 15.6 C 62.8 13.1 61.4 11.9 59.7 11.9 C 57.9 11.9 56.4 13.1 56.4 15.6 C 56.4 18.1 57.9 19.3 59.7 19.3 C 61.4 19.3 62.8 18.1 62.8 15.6 Z M 71.3 16.9 C 71.3 19.1 72.9 20.1 74.7 20.1 C 75.9 20.1 77.1 19.6 77.5 18.4 C 77.5 18.4 80.4 18.4 80.4 18.4 C 79.8 21.3 77.2 22.9 74.5 22.9 C 71.3 22.9 68.2 20.7 68.2 16 C 68.2 11.5 71.2 9.1 74.5 9.1 C 77.8 9.1 80.5 11.3 80.5 15.6 C 80.47 15.65 80.5 16.9 80.5 16.9 C 80.5 16.9 71.26 16.94 71.3 16.9 Z M 71.3 14.6 C 71.3 14.6 77.4 14.6 77.4 14.6 C 77.4 12.9 76.1 11.9 74.5 11.9 C 73 11.9 71.6 12.7 71.3 14.6 Z M 90.2 12.3 C 90.2 12.3 89.4 12.31 89.4 12.3 C 87.2 12.3 85.9 13.5 85.9 16.1 C 85.94 16.13 85.9 22.6 85.9 22.6 L 82.8 22.6 L 82.8 9.4 L 85.9 9.4 C 85.9 9.4 85.92 11.26 85.9 11.3 C 86.6 9.8 87.8 9.2 89.4 9.2 C 89.38 9.22 90.2 9.2 90.2 9.2 L 90.2 12.3 Z M 104.3 23.1 C 100.6 23.1 96.8 21 96.8 16.5 C 96.8 16.5 100.2 16.5 100.2 16.5 C 100.3 19.2 102.3 20.2 104.2 20.2 C 106 20.2 107.5 19.3 107.5 17.8 C 107.5 16 105.5 15.6 103.4 15.1 C 100.8 14.5 97.4 13.6 97.4 9.7 C 97.4 6 100.5 4.2 103.9 4.2 C 107.4 4.2 110.6 6 110.6 9.6 C 110.6 9.6 107.2 9.6 107.2 9.6 C 107.1 7.8 105.5 7.1 103.8 7.1 C 102.1 7.1 100.7 7.8 100.7 9.4 C 100.7 11.2 102.4 11.7 104.4 12.1 C 106.7 12.6 110.9 13.3 110.9 17.6 C 110.9 21.2 107.8 23.1 104.3 23.1 Z M 114.8 4.1 L 117.6 4.1 L 117.6 7 L 114.8 7 L 114.8 4.1 Z M 119.8 4.1 L 122.6 4.1 L 122.6 7 L 119.8 7 L 119.8 4.1 Z M 123.8 13.7 C 123.84 13.7 123.8 22.6 123.8 22.6 L 120.7 22.6 C 120.7 22.6 120.72 20.69 120.7 20.7 C 119.7 22.4 118.1 22.9 116.7 22.9 C 114.6 22.9 112.4 21.6 112.4 18.8 C 112.4 16.7 113.6 15.3 116.6 14.8 C 116.6 14.8 119.5 14.4 119.5 14.4 C 120.3 14.3 120.8 14 120.8 13.2 C 120.8 12.1 119.9 11.6 118.6 11.6 C 116.9 11.6 116.1 12.5 116 13.6 C 116 13.6 112.9 13.6 112.9 13.6 C 113.3 10.5 115.8 9.1 118.8 9.1 C 121.9 9.1 123.8 10.6 123.8 13.7 Z M 120.7 17 C 120.7 17 120.7 16.3 120.7 16.3 C 120.4 16.5 119.8 16.6 119.2 16.7 C 119.2 16.7 117.7 16.9 117.7 16.9 C 116.1 17.1 115.6 17.8 115.6 18.6 C 115.6 19.7 116.4 20.2 117.5 20.2 C 119.1 20.2 120.7 19 120.7 17 Z M 129.9 22.6 L 126.7 22.6 L 126.7 4.3 L 129.9 4.3 L 129.9 22.6 Z M 143.4 22.6 L 132.2 22.6 L 132.2 19.8 L 139.3 12.1 L 132.3 12.1 L 132.3 9.4 L 143.4 9.4 L 143.4 12.1 L 136.3 19.8 L 143.4 19.8 L 143.4 22.6 Z M 149.1 22.6 L 145.9 22.6 L 145.9 4.3 L 149.1 4.3 L 149.1 22.6 Z M 154.5 16.9 C 154.6 19.1 156.1 20.1 157.9 20.1 C 159.1 20.1 160.3 19.6 160.7 18.4 C 160.7 18.4 163.7 18.4 163.7 18.4 C 163.1 21.3 160.5 22.9 157.7 22.9 C 154.6 22.9 151.4 20.7 151.4 16 C 151.4 11.5 154.4 9.1 157.8 9.1 C 161 9.1 163.7 11.3 163.7 15.6 C 163.7 15.65 163.7 16.9 163.7 16.9 C 163.7 16.9 154.49 16.94 154.5 16.9 Z M 154.6 14.6 C 154.6 14.6 160.6 14.6 160.6 14.6 C 160.6 12.9 159.4 11.9 157.7 11.9 C 156.3 11.9 154.8 12.7 154.6 14.6 Z " stroke="none" fill="#000"/>  </g></svg>