<?xml version="1.0" standalone="no"?><!DOCTYPE svg PUBLIC "-//W3C//DTD SVG 1.1//EN" "http://www.w3.org/Graphics/SVG/1.1/DTD/svg11.dtd"><svg xmlns="http://www.w3.org/2000/svg" version="1.1" width="51px" height="44.6px" viewBox="0 -1 51 44.6" style="top:-1px"><desc>3 9</desc><defs/><g id="Polygon13033"><path d="m38.9 19.1c0 2-1.7 3-3.7 3c-2 0-3.9-1.2-3.9-3.6h1.9c-.1 1.3.9 1.9 2 1.9c1 0 1.8-.4 1.8-1.4c0-.9-.8-1.4-2.1-1.4c-.05.04-.8 0-.8 0V16s.7-.04.7 0c1.3 0 2-.7 2-1.5c0-.9-.7-1.4-1.7-1.4c-1 0-1.8.6-1.8 2h-1.9c0-2.5 1.8-3.7 3.8-3.7c1.9 0 3.5 1 3.5 2.8c0 1.3-.8 2.2-1.7 2.4c1.1.4 1.9 1.1 1.9 2.5zm.8.7h2.1v2.1h-2.1v-2.1zm10.6-3c0 4.5-2.4 5.3-4.1 5.3c-1.8 0-3.3-1.1-3.4-3h1.8c.1 1 1 1.4 1.8 1.4c1.1 0 2.1-.8 2.1-2.8v-.3c-.7.8-1.7 1.1-2.5 1.1c-1.7 0-3.4-1.2-3.4-3.4c0-2.2 1.6-3.7 3.6-3.7c2.1 0 4.1 1.5 4.1 5.4zM48.1 15c0-1.2-1-1.9-1.9-1.9c-.9 0-1.8.7-1.8 1.9c0 1.3 1 1.8 1.9 1.8c1 0 1.8-.6 1.8-1.8z" stroke="none" fill="#000"/></g></svg>