<?xml version="1.0" standalone="no"?><!DOCTYPE svg PUBLIC "-//W3C//DTD SVG 1.1//EN" "http://www.w3.org/Graphics/SVG/1.1/DTD/svg11.dtd"><svg xmlns="http://www.w3.org/2000/svg" version="1.1" width="333px" height="65.4px" viewBox="0 -3 333 65.4" style="top:-3px">  <desc>Travel and hospitality faced a cyclical downturn But</desc>  <defs/>  <g id="Polygon12061">    <path d="M 6.2 45.2 C 3.1 45.2 0.9 42.9 0.9 39.4 C 0.9 35.8 3 33.5 6.3 33.5 C 8.8 33.5 10.8 34.9 11 37.4 C 11 37.4 9.5 37.4 9.5 37.4 C 9.3 35.8 7.9 34.9 6.3 34.9 C 4.1 34.9 2.5 36.6 2.5 39.3 C 2.5 42.1 4.1 43.8 6.3 43.8 C 8 43.8 9.3 42.8 9.4 41 C 9.4 41 11 41 11 41 C 10.8 43.7 8.7 45.2 6.2 45.2 Z M 16.9 47.1 C 16.5 48.3 15.5 48.7 14.3 48.7 C 14.3 48.68 13.1 48.7 13.1 48.7 L 13.1 47.3 C 13.1 47.3 14.09 47.31 14.1 47.3 C 15.1 47.3 15.5 47 15.9 46 C 15.9 45.99 16.4 44.5 16.4 44.5 L 12.2 33.7 L 13.8 33.7 L 17.2 42.6 L 20.5 33.7 L 22 33.7 C 22 33.7 16.9 47.12 16.9 47.1 Z M 28.3 45.2 C 25.2 45.2 23.1 42.9 23.1 39.4 C 23.1 35.8 25.2 33.5 28.4 33.5 C 30.9 33.5 32.9 34.9 33.1 37.4 C 33.1 37.4 31.6 37.4 31.6 37.4 C 31.4 35.8 30 34.9 28.4 34.9 C 26.2 34.9 24.6 36.6 24.6 39.3 C 24.6 42.1 26.2 43.8 28.4 43.8 C 30.1 43.8 31.4 42.8 31.6 41 C 31.6 41 33.1 41 33.1 41 C 32.9 43.7 30.8 45.2 28.3 45.2 Z M 37.2 45 L 35.7 45 L 35.7 29 L 37.2 29 L 37.2 45 Z M 42.2 29 L 40.5 29 L 40.5 30.9 L 42.2 30.9 L 42.2 29 Z M 42.1 45 L 40.6 45 L 40.6 33.7 L 42.1 33.7 L 42.1 45 Z M 50 45.2 C 46.9 45.2 44.7 42.9 44.7 39.4 C 44.7 35.8 46.8 33.5 50.1 33.5 C 52.6 33.5 54.6 34.9 54.8 37.4 C 54.8 37.4 53.3 37.4 53.3 37.4 C 53.1 35.8 51.7 34.9 50.1 34.9 C 47.9 34.9 46.3 36.6 46.3 39.3 C 46.3 42.1 47.9 43.8 50.1 43.8 C 51.8 43.8 53.1 42.8 53.3 41 C 53.3 41 54.8 41 54.8 41 C 54.6 43.7 52.5 45.2 50 45.2 Z M 64.3 42.9 C 63.4 44.6 61.7 45.2 60.3 45.2 C 58.4 45.2 56.7 44.1 56.7 41.9 C 56.7 39.8 58.1 38.8 60.1 38.6 C 60.1 38.6 62.7 38.2 62.7 38.2 C 63.6 38.1 64.3 37.8 64.3 36.8 C 64.3 35.5 63.2 34.8 61.6 34.8 C 59.9 34.8 58.9 35.6 58.6 36.9 C 58.6 36.9 57.1 36.9 57.1 36.9 C 57.4 34.6 59.2 33.5 61.7 33.5 C 64.3 33.5 65.8 34.7 65.8 37.2 C 65.81 37.19 65.8 45 65.8 45 L 64.3 45 C 64.3 45 64.32 42.92 64.3 42.9 Z M 62.5 39.5 C 62.5 39.5 60.7 39.7 60.7 39.7 C 59.3 39.9 58.2 40.4 58.2 41.8 C 58.2 43.2 59.3 43.8 60.6 43.8 C 62.3 43.8 64.3 42.5 64.3 40.1 C 64.3 40.1 64.3 39 64.3 39 C 63.9 39.3 63.2 39.4 62.5 39.5 Z M 70.5 45 L 69 45 L 69 29 L 70.5 29 L 70.5 45 Z M 88.9 45 L 87.4 45 C 87.4 45 87.44 42.8 87.4 42.8 C 86.9 44.1 85.5 45.2 83.4 45.2 C 80.5 45.2 78.4 42.9 78.4 39.3 C 78.4 35.8 80.5 33.5 83.5 33.5 C 85.4 33.5 86.8 34.4 87.4 35.6 C 87.38 35.62 87.4 29 87.4 29 L 88.9 29 L 88.9 45 Z M 87.4 39.3 C 87.4 36.5 85.8 34.9 83.6 34.9 C 81.4 34.9 79.9 36.6 79.9 39.3 C 79.9 42.1 81.5 43.8 83.6 43.8 C 85.8 43.8 87.4 42.1 87.4 39.3 Z M 91.5 39.4 C 91.5 35.7 93.8 33.5 96.9 33.5 C 100 33.5 102.2 35.7 102.2 39.4 C 102.2 43 100 45.2 96.9 45.2 C 93.8 45.2 91.5 43 91.5 39.4 Z M 100.7 39.3 C 100.7 36.5 98.9 34.9 96.8 34.9 C 94.6 34.9 93.1 36.6 93.1 39.4 C 93.1 42.2 94.8 43.8 96.9 43.8 C 99.1 43.8 100.7 42.1 100.7 39.3 Z M 115.9 45 L 114.4 45 L 111.5 36 L 108.6 45 L 107.1 45 L 103.4 33.7 L 105 33.7 L 107.9 43 L 110.7 33.7 L 112.3 33.7 L 115.2 43 L 118 33.7 L 119.6 33.7 L 115.9 45 Z M 130.8 37.3 C 130.85 37.25 130.8 45 130.8 45 L 129.3 45 C 129.3 45 129.32 37.44 129.3 37.4 C 129.3 35.9 128.4 34.9 126.8 34.9 C 124.9 34.9 123.2 36.3 123.2 39.1 C 123.23 39.06 123.2 45 123.2 45 L 121.7 45 L 121.7 33.7 L 123.2 33.7 C 123.2 33.7 123.23 35.8 123.2 35.8 C 123.9 34.5 125.2 33.5 127.1 33.5 C 129.4 33.5 130.8 34.8 130.8 37.3 Z M 139.2 45 C 139.2 45 137.59 44.98 137.6 45 C 136.1 45 134.8 44.5 134.8 42 C 134.75 42.02 134.8 35.1 134.8 35.1 L 132.5 35.1 L 132.5 33.7 L 134.8 33.7 L 134.8 30.5 L 136.3 30.1 L 136.3 33.7 L 139 33.7 L 139 35.1 L 136.3 35.1 C 136.3 35.1 136.29 42 136.3 42 C 136.3 43 136.6 43.6 137.8 43.6 C 137.84 43.6 139.2 43.6 139.2 43.6 L 139.2 45 Z M 148.9 45 C 148.9 45 148.87 42.84 148.9 42.8 C 148.1 44.4 146.7 45.1 145.1 45.1 C 143 45.1 141.3 43.8 141.3 41.2 C 141.35 41.16 141.3 33.7 141.3 33.7 L 142.9 33.7 C 142.9 33.7 142.88 40.97 142.9 41 C 142.9 42.8 143.9 43.8 145.4 43.8 C 147.2 43.8 148.8 42.4 148.8 39.5 C 148.8 39.54 148.8 33.7 148.8 33.7 L 150.3 33.7 L 150.3 45 L 148.9 45 Z M 159.3 35 C 159.3 35 158.97 35.03 159 35 C 156.6 35 155.2 36.4 155.2 39 C 155.23 39 155.2 45 155.2 45 L 153.7 45 L 153.7 33.7 L 155.2 33.7 C 155.2 33.7 155.21 35.78 155.2 35.8 C 155.7 34.3 157.1 33.6 158.8 33.6 C 158.84 33.58 159.3 33.6 159.3 33.6 L 159.3 35 Z M 170.5 37.3 C 170.48 37.25 170.5 45 170.5 45 L 168.9 45 C 168.9 45 168.94 37.44 168.9 37.4 C 168.9 35.9 168.1 34.9 166.5 34.9 C 164.5 34.9 162.9 36.3 162.9 39.1 C 162.85 39.06 162.9 45 162.9 45 L 161.3 45 L 161.3 33.7 L 162.9 33.7 C 162.9 33.7 162.85 35.8 162.9 35.8 C 163.5 34.5 164.8 33.5 166.8 33.5 C 169 33.5 170.5 34.8 170.5 37.3 Z M 173 42.8 L 175.1 42.8 L 175.1 45 L 173 45 L 173 42.8 Z M 194.3 40.5 C 194.3 42.7 192.5 45 189.2 45 C 189.19 45 183.2 45 183.2 45 L 183.2 29.2 C 183.2 29.2 189.46 29.23 189.5 29.2 C 192.3 29.2 193.6 31 193.6 32.8 C 193.6 34.3 192.8 35.8 191.3 36.5 C 193.3 37.2 194.3 38.8 194.3 40.5 Z M 188.7 36 C 190.9 36 192 34.5 192 33.1 C 192 31.9 191.1 30.6 189.2 30.6 C 189.16 30.64 184.8 30.6 184.8 30.6 L 184.8 36 C 184.8 36 188.74 35.95 188.7 36 Z M 192.6 40.4 C 192.6 38.8 191.5 37.4 189.4 37.4 C 189.35 37.36 184.8 37.4 184.8 37.4 L 184.8 43.5 C 184.8 43.5 189.19 43.53 189.2 43.5 C 191.5 43.5 192.6 42 192.6 40.4 Z M 204.4 45 C 204.4 45 204.43 42.84 204.4 42.8 C 203.7 44.4 202.3 45.1 200.7 45.1 C 198.6 45.1 196.9 43.8 196.9 41.2 C 196.91 41.16 196.9 33.7 196.9 33.7 L 198.4 33.7 C 198.4 33.7 198.45 40.97 198.4 41 C 198.4 42.8 199.5 43.8 200.9 43.8 C 202.8 43.8 204.4 42.4 204.4 39.5 C 204.37 39.54 204.4 33.7 204.4 33.7 L 205.9 33.7 L 205.9 45 L 204.4 45 Z M 214.4 45 C 214.4 45 212.75 44.98 212.7 45 C 211.3 45 209.9 44.5 209.9 42 C 209.91 42.02 209.9 35.1 209.9 35.1 L 207.7 35.1 L 207.7 33.7 L 209.9 33.7 L 209.9 30.5 L 211.4 30.1 L 211.4 33.7 L 214.2 33.7 L 214.2 35.1 L 211.4 35.1 C 211.4 35.1 211.45 42 211.4 42 C 211.4 43 211.7 43.6 213 43.6 C 213 43.6 214.4 43.6 214.4 43.6 L 214.4 45 Z M 215.9 42.8 L 218 42.8 L 218 45 L 215.9 45 L 215.9 42.8 Z M 219.9 42.8 L 222 42.8 L 222 45 L 219.9 45 L 219.9 42.8 Z M 223.9 42.8 L 226.1 42.8 L 226.1 45 L 223.9 45 L 223.9 42.8 Z " stroke="none" fill="#000"/>  </g>  <g id="Polygon12060">    <path d="M 12.7 5.4 L 7.3 5.4 L 7.3 19.8 L 5.7 19.8 L 5.7 5.4 L 0.3 5.4 L 0.3 4 L 12.7 4 L 12.7 5.4 Z M 19.3 9.8 C 19.3 9.8 18.9 9.83 18.9 9.8 C 16.5 9.8 15.2 11.2 15.2 13.8 C 15.16 13.8 15.2 19.8 15.2 19.8 L 13.6 19.8 L 13.6 8.5 L 15.1 8.5 C 15.1 8.5 15.14 10.58 15.1 10.6 C 15.7 9.1 17 8.4 18.8 8.4 C 18.77 8.38 19.3 8.4 19.3 8.4 L 19.3 9.8 Z M 28.2 17.7 C 27.3 19.4 25.6 20 24.2 20 C 22.2 20 20.5 18.9 20.5 16.7 C 20.5 14.6 22 13.6 23.9 13.4 C 23.9 13.4 26.6 13 26.6 13 C 27.4 12.9 28.2 12.6 28.2 11.6 C 28.2 10.3 27 9.6 25.5 9.6 C 23.8 9.6 22.7 10.4 22.5 11.7 C 22.5 11.7 21 11.7 21 11.7 C 21.3 9.4 23.1 8.3 25.6 8.3 C 28.1 8.3 29.7 9.5 29.7 12 C 29.67 11.99 29.7 19.8 29.7 19.8 L 28.2 19.8 C 28.2 19.8 28.18 17.72 28.2 17.7 Z M 26.3 14.3 C 26.3 14.3 24.6 14.5 24.6 14.5 C 23.2 14.7 22.1 15.2 22.1 16.6 C 22.1 18 23.2 18.6 24.4 18.6 C 26.2 18.6 28.1 17.3 28.1 14.9 C 28.1 14.9 28.1 13.8 28.1 13.8 C 27.7 14.1 27.1 14.2 26.3 14.3 Z M 37.3 19.8 L 35.6 19.8 L 31.5 8.5 L 33.1 8.5 L 36.5 18.2 L 39.9 8.5 L 41.5 8.5 L 37.3 19.8 Z M 44.1 14.5 C 44.1 17.3 45.8 18.6 47.8 18.6 C 49.3 18.6 50.8 17.9 51.1 16.3 C 51.1 16.3 52.6 16.3 52.6 16.3 C 52.1 18.9 49.9 20 47.7 20 C 45 20 42.5 18.2 42.5 14.2 C 42.5 10.1 45.1 8.3 47.8 8.3 C 50.5 8.3 52.6 10 52.6 13.8 C 52.65 13.75 52.6 14.5 52.6 14.5 C 52.6 14.5 44.06 14.51 44.1 14.5 Z M 44.1 13.2 C 44.1 13.2 51.1 13.2 51.1 13.2 C 51.1 10.9 49.6 9.7 47.7 9.7 C 46 9.7 44.3 10.8 44.1 13.2 Z M 56.8 19.8 L 55.3 19.8 L 55.3 3.8 L 56.8 3.8 L 56.8 19.8 Z M 72.8 17.7 C 71.9 19.4 70.2 20 68.8 20 C 66.8 20 65.1 18.9 65.1 16.7 C 65.1 14.6 66.6 13.6 68.5 13.4 C 68.5 13.4 71.2 13 71.2 13 C 72 12.9 72.8 12.6 72.8 11.6 C 72.8 10.3 71.6 9.6 70 9.6 C 68.3 9.6 67.3 10.4 67.1 11.7 C 67.1 11.7 65.5 11.7 65.5 11.7 C 65.9 9.4 67.7 8.3 70.1 8.3 C 72.7 8.3 74.3 9.5 74.3 12 C 74.26 11.99 74.3 19.8 74.3 19.8 L 72.8 19.8 C 72.8 19.8 72.76 17.72 72.8 17.7 Z M 70.9 14.3 C 70.9 14.3 69.2 14.5 69.2 14.5 C 67.7 14.7 66.7 15.2 66.7 16.6 C 66.7 18 67.8 18.6 69 18.6 C 70.8 18.6 72.7 17.3 72.7 14.9 C 72.7 14.9 72.7 13.8 72.7 13.8 C 72.3 14.1 71.7 14.2 70.9 14.3 Z M 86.6 12.1 C 86.56 12.05 86.6 19.8 86.6 19.8 L 85 19.8 C 85 19.8 85.03 12.24 85 12.2 C 85 10.7 84.1 9.7 82.6 9.7 C 80.6 9.7 78.9 11.1 78.9 13.9 C 78.94 13.86 78.9 19.8 78.9 19.8 L 77.4 19.8 L 77.4 8.5 L 78.9 8.5 C 78.9 8.5 78.94 10.6 78.9 10.6 C 79.6 9.3 80.9 8.3 82.8 8.3 C 85.1 8.3 86.6 9.6 86.6 12.1 Z M 99.6 19.8 L 98.2 19.8 C 98.2 19.8 98.15 17.6 98.2 17.6 C 97.6 18.9 96.2 20 94.1 20 C 91.2 20 89.1 17.7 89.1 14.1 C 89.1 10.6 91.2 8.3 94.2 8.3 C 96.1 8.3 97.5 9.2 98.1 10.4 C 98.09 10.42 98.1 3.8 98.1 3.8 L 99.6 3.8 L 99.6 19.8 Z M 98.1 14.1 C 98.1 11.3 96.5 9.7 94.4 9.7 C 92.1 9.7 90.7 11.4 90.7 14.1 C 90.7 16.9 92.2 18.6 94.4 18.6 C 96.5 18.6 98.1 16.9 98.1 14.1 Z M 117.8 12.1 C 117.81 12.05 117.8 19.8 117.8 19.8 L 116.3 19.8 C 116.3 19.8 116.28 12.24 116.3 12.2 C 116.3 10.7 115.4 9.7 113.8 9.7 C 111.9 9.7 110.2 11.1 110.2 13.9 C 110.19 13.86 110.2 19.8 110.2 19.8 L 108.7 19.8 L 108.7 3.8 L 110.2 3.8 C 110.2 3.8 110.19 10.48 110.2 10.5 C 110.8 9.2 112.1 8.3 114 8.3 C 116.4 8.3 117.8 9.6 117.8 12.1 Z M 120.3 14.2 C 120.3 10.5 122.6 8.3 125.7 8.3 C 128.8 8.3 131 10.5 131 14.2 C 131 17.8 128.8 20 125.7 20 C 122.6 20 120.3 17.8 120.3 14.2 Z M 129.4 14.1 C 129.4 11.3 127.7 9.7 125.6 9.7 C 123.4 9.7 121.9 11.4 121.9 14.2 C 121.9 17 123.6 18.6 125.7 18.6 C 127.9 18.6 129.4 16.9 129.4 14.1 Z M 142 16.6 C 142 18.9 139.9 20 137.7 20 C 135.3 20 133 18.8 132.8 16.3 C 132.8 16.3 134.4 16.3 134.4 16.3 C 134.7 18 136.2 18.6 137.7 18.6 C 139.1 18.6 140.4 18.1 140.4 16.8 C 140.4 15.5 139.1 15.2 137.8 15 C 135.6 14.6 133.1 14.2 133.1 11.6 C 133.1 9.4 135 8.3 137.3 8.3 C 139.7 8.3 141.6 9.4 141.7 11.7 C 141.7 11.7 140.1 11.7 140.1 11.7 C 140 10.3 138.7 9.7 137.3 9.7 C 135.7 9.7 134.7 10.4 134.7 11.5 C 134.7 13 136 13.2 137.7 13.5 C 139.8 13.8 142 14.1 142 16.6 Z M 155.1 14.1 C 155.1 18.2 152.5 19.9 149.9 19.9 C 148 19.9 146.7 19 146.1 17.8 C 146.07 17.83 146.1 24.1 146.1 24.1 L 144.5 24.1 L 144.5 8.5 L 146 8.5 C 146 8.5 146.03 10.88 146 10.9 C 146.5 9.5 148 8.3 150.1 8.3 C 152.5 8.3 155.1 10 155.1 14.1 Z M 153.5 14.1 C 153.5 11 151.7 9.8 149.8 9.8 C 148 9.8 146.1 11 146.1 14.2 C 146.1 17.3 147.9 18.5 149.8 18.5 C 151.7 18.5 153.5 17.3 153.5 14.1 Z M 159.3 3.8 L 157.6 3.8 L 157.6 5.7 L 159.3 5.7 L 159.3 3.8 Z M 159.2 19.8 L 157.7 19.8 L 157.7 8.5 L 159.2 8.5 L 159.2 19.8 Z M 167.7 19.8 C 167.7 19.8 166.07 19.78 166.1 19.8 C 164.6 19.8 163.2 19.3 163.2 16.8 C 163.23 16.82 163.2 9.9 163.2 9.9 L 161 9.9 L 161 8.5 L 163.2 8.5 L 163.2 5.3 L 164.8 4.9 L 164.8 8.5 L 167.5 8.5 L 167.5 9.9 L 164.8 9.9 C 164.8 9.9 164.76 16.8 164.8 16.8 C 164.8 17.8 165.1 18.4 166.3 18.4 C 166.32 18.4 167.7 18.4 167.7 18.4 L 167.7 19.8 Z M 176.9 17.7 C 176 19.4 174.3 20 172.8 20 C 170.9 20 169.2 18.9 169.2 16.7 C 169.2 14.6 170.7 13.6 172.6 13.4 C 172.6 13.4 175.3 13 175.3 13 C 176.1 12.9 176.9 12.6 176.9 11.6 C 176.9 10.3 175.7 9.6 174.1 9.6 C 172.4 9.6 171.4 10.4 171.2 11.7 C 171.2 11.7 169.6 11.7 169.6 11.7 C 170 9.4 171.8 8.3 174.2 8.3 C 176.8 8.3 178.4 9.5 178.4 12 C 178.35 11.99 178.4 19.8 178.4 19.8 L 176.9 19.8 C 176.9 19.8 176.86 17.72 176.9 17.7 Z M 175 14.3 C 175 14.3 173.3 14.5 173.3 14.5 C 171.8 14.7 170.8 15.2 170.8 16.6 C 170.8 18 171.9 18.6 173.1 18.6 C 174.9 18.6 176.8 17.3 176.8 14.9 C 176.8 14.9 176.8 13.8 176.8 13.8 C 176.4 14.1 175.7 14.2 175 14.3 Z M 183 19.8 L 181.5 19.8 L 181.5 3.8 L 183 3.8 L 183 19.8 Z M 188 3.8 L 186.3 3.8 L 186.3 5.7 L 188 5.7 L 188 3.8 Z M 187.9 19.8 L 186.4 19.8 L 186.4 8.5 L 187.9 8.5 L 187.9 19.8 Z M 196.4 19.8 C 196.4 19.8 194.77 19.78 194.8 19.8 C 193.3 19.8 191.9 19.3 191.9 16.8 C 191.94 16.82 191.9 9.9 191.9 9.9 L 189.7 9.9 L 189.7 8.5 L 191.9 8.5 L 191.9 5.3 L 193.5 4.9 L 193.5 8.5 L 196.2 8.5 L 196.2 9.9 L 193.5 9.9 C 193.5 9.9 193.47 16.8 193.5 16.8 C 193.5 17.8 193.8 18.4 195 18.4 C 195.02 18.4 196.4 18.4 196.4 18.4 L 196.4 19.8 Z M 202 21.9 C 201.5 23.1 200.5 23.5 199.3 23.5 C 199.35 23.48 198.2 23.5 198.2 23.5 L 198.2 22.1 C 198.2 22.1 199.14 22.11 199.1 22.1 C 200.1 22.1 200.6 21.8 200.9 20.8 C 200.95 20.79 201.5 19.3 201.5 19.3 L 197.3 8.5 L 198.9 8.5 L 202.2 17.4 L 205.5 8.5 L 207.1 8.5 C 207.1 8.5 201.95 21.92 202 21.9 Z M 217.7 5.1 C 216.4 5.1 216.1 5.7 216.1 6.8 C 216.13 6.76 216.1 8.5 216.1 8.5 L 218.6 8.5 L 218.6 9.9 L 216.1 9.9 L 216.1 19.8 L 214.6 19.8 L 214.6 9.9 L 212.7 9.9 L 212.7 8.5 L 214.6 8.5 C 214.6 8.5 214.6 6.72 214.6 6.7 C 214.6 4.2 215.9 3.8 217.4 3.8 C 217.43 3.78 218.9 3.8 218.9 3.8 L 218.9 5.1 C 218.9 5.1 217.68 5.14 217.7 5.1 Z M 227.8 17.7 C 227 19.4 225.3 20 223.8 20 C 221.9 20 220.2 18.9 220.2 16.7 C 220.2 14.6 221.7 13.6 223.6 13.4 C 223.6 13.4 226.3 13 226.3 13 C 227.1 12.9 227.8 12.6 227.8 11.6 C 227.8 10.3 226.7 9.6 225.1 9.6 C 223.4 9.6 222.4 10.4 222.2 11.7 C 222.2 11.7 220.6 11.7 220.6 11.7 C 220.9 9.4 222.7 8.3 225.2 8.3 C 227.8 8.3 229.3 9.5 229.3 12 C 229.34 11.99 229.3 19.8 229.3 19.8 L 227.8 19.8 C 227.8 19.8 227.85 17.72 227.8 17.7 Z M 226 14.3 C 226 14.3 224.3 14.5 224.3 14.5 C 222.8 14.7 221.8 15.2 221.8 16.6 C 221.8 18 222.8 18.6 224.1 18.6 C 225.9 18.6 227.8 17.3 227.8 14.9 C 227.8 14.9 227.8 13.8 227.8 13.8 C 227.4 14.1 226.7 14.2 226 14.3 Z M 237 20 C 233.9 20 231.8 17.7 231.8 14.2 C 231.8 10.6 233.9 8.3 237.1 8.3 C 239.6 8.3 241.6 9.7 241.8 12.2 C 241.8 12.2 240.3 12.2 240.3 12.2 C 240.1 10.6 238.7 9.7 237.1 9.7 C 234.9 9.7 233.3 11.4 233.3 14.1 C 233.3 16.9 234.9 18.6 237.1 18.6 C 238.8 18.6 240.1 17.6 240.3 15.8 C 240.3 15.8 241.8 15.8 241.8 15.8 C 241.6 18.5 239.5 20 237 20 Z M 245.2 14.5 C 245.2 17.3 246.9 18.6 248.9 18.6 C 250.4 18.6 251.9 17.9 252.2 16.3 C 252.2 16.3 253.7 16.3 253.7 16.3 C 253.2 18.9 251 20 248.8 20 C 246.2 20 243.7 18.2 243.7 14.2 C 243.7 10.1 246.2 8.3 248.9 8.3 C 251.6 8.3 253.8 10 253.8 13.8 C 253.76 13.75 253.8 14.5 253.8 14.5 C 253.8 14.5 245.17 14.51 245.2 14.5 Z M 245.2 13.2 C 245.2 13.2 252.2 13.2 252.2 13.2 C 252.2 10.9 250.7 9.7 248.8 9.7 C 247.1 9.7 245.4 10.8 245.2 13.2 Z M 266.2 19.8 L 264.7 19.8 C 264.7 19.8 264.72 17.6 264.7 17.6 C 264.2 18.9 262.8 20 260.7 20 C 257.8 20 255.7 17.7 255.7 14.1 C 255.7 10.6 257.8 8.3 260.7 8.3 C 262.6 8.3 264.1 9.2 264.7 10.4 C 264.66 10.42 264.7 3.8 264.7 3.8 L 266.2 3.8 L 266.2 19.8 Z M 264.6 14.1 C 264.6 11.3 263.1 9.7 260.9 9.7 C 258.7 9.7 257.2 11.4 257.2 14.1 C 257.2 16.9 258.7 18.6 260.9 18.6 C 263.1 18.6 264.6 16.9 264.6 14.1 Z M 282.2 17.7 C 281.3 19.4 279.6 20 278.1 20 C 276.2 20 274.5 18.9 274.5 16.7 C 274.5 14.6 276 13.6 277.9 13.4 C 277.9 13.4 280.6 13 280.6 13 C 281.4 12.9 282.2 12.6 282.2 11.6 C 282.2 10.3 281 9.6 279.4 9.6 C 277.7 9.6 276.7 10.4 276.5 11.7 C 276.5 11.7 274.9 11.7 274.9 11.7 C 275.2 9.4 277 8.3 279.5 8.3 C 282.1 8.3 283.6 9.5 283.6 12 C 283.64 11.99 283.6 19.8 283.6 19.8 L 282.2 19.8 C 282.2 19.8 282.15 17.72 282.2 17.7 Z M 280.3 14.3 C 280.3 14.3 278.6 14.5 278.6 14.5 C 277.1 14.7 276.1 15.2 276.1 16.6 C 276.1 18 277.2 18.6 278.4 18.6 C 280.2 18.6 282.1 17.3 282.1 14.9 C 282.1 14.9 282.1 13.8 282.1 13.8 C 281.7 14.1 281 14.2 280.3 14.3 Z " stroke="none" fill="#000"/>  </g></svg>