<?xml version="1.0" standalone="no"?><!DOCTYPE svg PUBLIC "-//W3C//DTD SVG 1.1//EN" "http://www.w3.org/Graphics/SVG/1.1/DTD/svg11.dtd"><svg xmlns="http://www.w3.org/2000/svg" version="1.1" width="262.3px" height="117.4px" viewBox="0 0 262.3 117.4">  <desc>S agissant des pays mergents, comment prenez-vous en compte les crit res ESG</desc>  <defs/>  <g id="Polygon11009">    <path d="M 4.2 95.4 L 1.4 95.4 L 1.4 79.4 L 4.2 79.4 L 4.2 95.4 Z M 8.9 90.4 C 8.9 92.3 10.3 93.2 11.8 93.2 C 12.9 93.2 14 92.8 14.3 91.7 C 14.3 91.7 16.9 91.7 16.9 91.7 C 16.4 94.3 14.1 95.6 11.7 95.6 C 8.9 95.6 6.2 93.7 6.2 89.6 C 6.2 85.6 8.8 83.6 11.7 83.6 C 14.6 83.6 16.9 85.4 16.9 89.3 C 16.93 89.29 16.9 90.4 16.9 90.4 C 16.9 90.4 8.86 90.43 8.9 90.4 Z M 8.9 88.4 C 8.9 88.4 14.2 88.4 14.2 88.4 C 14.2 86.9 13.1 86 11.7 86 C 10.4 86 9.2 86.7 8.9 88.4 Z M 28.2 91.8 C 28.2 94.4 25.9 95.6 23.3 95.6 C 20.9 95.6 18.3 94.6 18.1 91.7 C 18.1 91.7 20.9 91.7 20.9 91.7 C 21.1 92.8 22.1 93.3 23.4 93.3 C 24.6 93.3 25.4 92.9 25.4 92.1 C 25.4 91.3 24.9 91.2 23.3 90.9 C 21 90.5 18.4 90.1 18.4 87.3 C 18.4 84.7 20.6 83.6 23 83.6 C 25.7 83.6 27.7 84.9 27.9 87.5 C 27.9 87.5 25.2 87.5 25.2 87.5 C 25.1 86.4 24.3 85.9 23.1 85.9 C 21.7 85.9 21.1 86.5 21.1 87.2 C 21.1 88.1 22.2 88.3 23.6 88.5 C 25.7 88.8 28.2 89.1 28.2 91.8 Z M 39.8 95.6 C 36 95.6 34.2 92.7 34.2 89.6 C 34.2 86.5 36 83.6 39.8 83.6 C 42.6 83.6 44.8 85.2 44.9 88 C 44.9 88 42.2 88 42.2 88 C 42 86.9 41.2 86.1 39.9 86.1 C 37.8 86.1 37 87.8 37 89.6 C 37 91.5 37.9 93 39.8 93 C 41.2 93 42 92.3 42.2 91.3 C 42.2 91.3 45 91.3 45 91.3 C 44.6 94.1 42.6 95.6 39.8 95.6 Z M 53.5 86.4 C 53.5 86.4 52.79 86.37 52.8 86.4 C 50.8 86.4 49.8 87.4 49.8 89.7 C 49.77 89.71 49.8 95.4 49.8 95.4 L 47 95.4 L 47 83.8 L 49.7 83.8 C 49.7 83.8 49.75 85.45 49.7 85.4 C 50.3 84.2 51.4 83.7 52.8 83.7 C 52.77 83.66 53.5 83.7 53.5 83.7 L 53.5 86.4 Z M 54.8 82.3 L 57.7 82.3 L 57.7 79.1 L 54.8 79.1 L 54.8 82.3 Z M 54.9 83.8 L 57.7 83.8 L 57.7 95.4 L 54.9 95.4 L 54.9 83.8 Z M 66.3 95.4 C 66.3 95.4 64.47 95.38 64.5 95.4 C 62.3 95.4 60.9 94.7 60.9 91.6 C 60.92 91.6 60.9 86.3 60.9 86.3 L 58.8 86.3 L 58.8 83.8 L 60.9 83.8 L 60.9 81.2 L 63.7 80.4 L 63.7 83.8 L 66 83.8 L 66 86.3 L 63.7 86.3 C 63.7 86.3 63.71 91.73 63.7 91.7 C 63.7 92.4 63.9 92.9 64.9 92.9 C 64.89 92.9 66.3 92.9 66.3 92.9 L 66.3 95.4 Z M 69.1 78.4 L 71.3 76.7 L 74.5 81.7 L 72.1 81.7 L 69.1 78.4 Z M 69.8 90.4 C 69.9 92.3 71.3 93.2 72.8 93.2 C 73.9 93.2 75 92.8 75.3 91.7 C 75.3 91.7 77.9 91.7 77.9 91.7 C 77.4 94.3 75.1 95.6 72.7 95.6 C 69.9 95.6 67.1 93.7 67.1 89.6 C 67.1 85.6 69.8 83.6 72.7 83.6 C 75.5 83.6 77.9 85.4 77.9 89.3 C 77.91 89.29 77.9 90.4 77.9 90.4 C 77.9 90.4 69.85 90.43 69.8 90.4 Z M 69.9 88.4 C 69.9 88.4 75.2 88.4 75.2 88.4 C 75.2 86.9 74.1 86 72.7 86 C 71.4 86 70.2 86.7 69.9 88.4 Z M 86.5 86.4 C 86.5 86.4 85.72 86.37 85.7 86.4 C 83.8 86.4 82.7 87.4 82.7 89.7 C 82.7 89.71 82.7 95.4 82.7 95.4 L 79.9 95.4 L 79.9 83.8 L 82.7 83.8 C 82.7 83.8 82.68 85.45 82.7 85.4 C 83.3 84.2 84.3 83.7 85.7 83.7 C 85.7 83.66 86.5 83.7 86.5 83.7 L 86.5 86.4 Z M 89.6 90.4 C 89.6 92.3 91 93.2 92.6 93.2 C 93.7 93.2 94.7 92.8 95 91.7 C 95 91.7 97.6 91.7 97.6 91.7 C 97.1 94.3 94.8 95.6 92.4 95.6 C 89.6 95.6 86.9 93.7 86.9 89.6 C 86.9 85.6 89.5 83.6 92.5 83.6 C 95.3 83.6 97.6 85.4 97.6 89.3 C 97.65 89.29 97.6 90.4 97.6 90.4 C 97.6 90.4 89.59 90.43 89.6 90.4 Z M 89.6 88.4 C 89.6 88.4 94.9 88.4 94.9 88.4 C 94.9 86.9 93.8 86 92.4 86 C 91.1 86 89.9 86.7 89.6 88.4 Z M 108.9 91.8 C 108.9 94.4 106.6 95.6 104 95.6 C 101.6 95.6 99 94.6 98.8 91.7 C 98.8 91.7 101.6 91.7 101.6 91.7 C 101.8 92.8 102.8 93.3 104.1 93.3 C 105.3 93.3 106.2 92.9 106.2 92.1 C 106.2 91.3 105.6 91.2 104 90.9 C 101.7 90.5 99.2 90.1 99.2 87.3 C 99.2 84.7 101.4 83.6 103.8 83.6 C 106.5 83.6 108.5 84.9 108.6 87.5 C 108.6 87.5 105.9 87.5 105.9 87.5 C 105.8 86.4 105 85.9 103.8 85.9 C 102.4 85.9 101.9 86.5 101.9 87.2 C 101.9 88.1 102.9 88.3 104.3 88.5 C 106.4 88.8 108.9 89.1 108.9 91.8 Z M 116.3 95.4 L 116.3 79.6 L 126.8 79.6 L 126.8 82.4 L 119.2 82.4 L 119.2 86 L 126.5 86 L 126.5 88.8 L 119.2 88.8 L 119.2 92.6 L 127.3 92.6 L 127.3 95.4 L 116.3 95.4 Z M 134.9 95.8 C 131.7 95.8 128.4 94 128.4 90 C 128.4 90 131.4 90 131.4 90 C 131.4 92.4 133.2 93.3 134.9 93.3 C 136.4 93.3 137.8 92.5 137.8 91.2 C 137.8 89.6 136 89.2 134.1 88.8 C 131.9 88.3 128.9 87.5 128.9 84.1 C 128.9 80.8 131.6 79.3 134.6 79.3 C 137.6 79.3 140.4 80.8 140.4 84 C 140.4 84 137.5 84 137.5 84 C 137.4 82.4 136 81.8 134.5 81.8 C 133 81.8 131.8 82.5 131.8 83.9 C 131.8 85.4 133.3 85.8 135.1 86.2 C 137 86.7 140.7 87.3 140.7 91 C 140.7 94.1 138 95.8 134.9 95.8 Z M 156.8 86.9 L 156.8 95.4 L 154.1 95.4 C 154.1 95.4 154.1 93.58 154.1 93.6 C 153.5 94.6 152.1 95.8 149.5 95.8 C 145.1 95.8 142.3 92.3 142.3 87.6 C 142.3 83.3 144.7 79.3 150 79.3 C 153.7 79.3 156.4 81.3 156.8 84.9 C 156.8 84.9 153.8 84.9 153.8 84.9 C 153.7 83.1 152 82 149.9 82 C 146.7 82 145.2 84.5 145.2 87.5 C 145.2 90.8 146.9 93.1 149.9 93.1 C 152.1 93.1 153.8 92 154.1 89.7 C 154.12 89.67 149.5 89.7 149.5 89.7 L 149.5 86.9 L 156.8 86.9 Z M 168.1 89.8 C 168.1 87.1 169.4 86.6 170.7 85.7 C 171.7 85 172.2 84.4 172.2 83.6 C 172.2 82.4 171.3 81.8 170.1 81.8 C 168.6 81.8 167.7 82.6 167.6 84 C 167.6 84 164.8 84 164.8 84 C 165.1 80.6 167.5 79.4 170.1 79.4 C 172.9 79.4 175.1 80.7 175.1 83.5 C 175.1 85.7 173.8 86.6 172.3 87.6 C 171.3 88.4 170.8 88.9 170.8 89.8 C 170.77 89.84 170.8 90.5 170.8 90.5 L 168.1 90.5 C 168.1 90.5 168.1 89.75 168.1 89.8 Z M 167.9 92.1 L 171 92.1 L 171 95.4 L 167.9 95.4 L 167.9 92.1 Z " stroke="none" fill="#000"/>  </g>  <g id="Polygon11008">    <path d="M 12.7 64.2 C 12.7 68.4 10.1 70.3 7.4 70.3 C 5.9 70.3 4.8 69.6 4.2 68.8 C 4.16 68.8 4.2 74.5 4.2 74.5 L 1.4 74.5 L 1.4 58.6 L 4.1 58.6 C 4.1 58.6 4.09 60.44 4.1 60.4 C 4.7 59.2 6 58.4 7.7 58.4 C 10.4 58.4 12.7 60.3 12.7 64.2 Z M 9.9 64.4 C 9.9 62 8.5 60.9 7 60.9 C 5.5 60.9 4.1 62 4.1 64.4 C 4.1 66.7 5.5 67.8 7 67.8 C 8.5 67.8 9.9 66.7 9.9 64.4 Z M 21.3 61.2 C 21.3 61.2 20.56 61.17 20.6 61.2 C 18.6 61.2 17.5 62.2 17.5 64.5 C 17.53 64.51 17.5 70.2 17.5 70.2 L 14.7 70.2 L 14.7 58.6 L 17.5 58.6 C 17.5 58.6 17.51 60.25 17.5 60.2 C 18.1 59 19.2 58.5 20.5 58.5 C 20.54 58.46 21.3 58.5 21.3 58.5 L 21.3 61.2 Z M 24.4 65.2 C 24.5 67.1 25.8 68 27.4 68 C 28.5 68 29.5 67.6 29.9 66.5 C 29.9 66.5 32.4 66.5 32.4 66.5 C 31.9 69.1 29.7 70.4 27.3 70.4 C 24.5 70.4 21.7 68.5 21.7 64.4 C 21.7 60.4 24.3 58.4 27.3 58.4 C 30.1 58.4 32.5 60.2 32.5 64.1 C 32.49 64.09 32.5 65.2 32.5 65.2 C 32.5 65.2 24.42 65.23 24.4 65.2 Z M 24.5 63.2 C 24.5 63.2 29.8 63.2 29.8 63.2 C 29.8 61.7 28.7 60.8 27.3 60.8 C 26 60.8 24.7 61.5 24.5 63.2 Z M 44.7 62.7 C 44.67 62.71 44.7 70.2 44.7 70.2 L 41.9 70.2 C 41.9 70.2 41.87 62.96 41.9 63 C 41.9 61.7 41.1 60.9 39.8 60.9 C 38.2 60.9 37.3 62 37.3 63.9 C 37.27 63.92 37.3 70.2 37.3 70.2 L 34.5 70.2 L 34.5 58.6 L 37.3 58.6 C 37.3 58.6 37.25 60.27 37.3 60.3 C 37.9 59.2 38.8 58.4 40.8 58.4 C 43.4 58.4 44.7 59.9 44.7 62.7 Z M 49.3 65.2 C 49.3 67.1 50.7 68 52.2 68 C 53.3 68 54.4 67.6 54.7 66.5 C 54.7 66.5 57.3 66.5 57.3 66.5 C 56.8 69.1 54.5 70.4 52.1 70.4 C 49.3 70.4 46.6 68.5 46.6 64.4 C 46.6 60.4 49.2 58.4 52.1 58.4 C 55 58.4 57.3 60.2 57.3 64.1 C 57.33 64.09 57.3 65.2 57.3 65.2 C 57.3 65.2 49.27 65.23 49.3 65.2 Z M 49.3 63.2 C 49.3 63.2 54.6 63.2 54.6 63.2 C 54.6 61.7 53.5 60.8 52.1 60.8 C 50.8 60.8 49.6 61.5 49.3 63.2 Z M 68.2 70.2 L 58.4 70.2 L 58.4 67.7 L 64.6 61 L 58.5 61 L 58.5 58.6 L 68.2 58.6 L 68.2 61 L 61.9 67.7 L 68.2 67.7 L 68.2 70.2 Z M 76.5 62.3 L 70.1 62.3 L 70.1 64.8 L 76.5 64.8 L 76.5 62.3 Z M 84.8 70.2 L 81.9 70.2 L 77.6 58.6 L 80.6 58.6 L 83.4 66.9 L 86.2 58.6 L 89.1 58.6 L 84.8 70.2 Z M 100.9 64.4 C 100.9 68.2 98.5 70.4 95.2 70.4 C 92 70.4 89.6 68.2 89.6 64.4 C 89.6 60.6 92 58.4 95.2 58.4 C 98.5 58.4 100.9 60.6 100.9 64.4 Z M 92.4 64.4 C 92.4 66.7 93.7 67.8 95.3 67.8 C 96.9 67.8 98 66.6 98 64.4 C 98 62.1 96.7 61 95.2 61 C 93.5 61 92.4 62.2 92.4 64.4 Z M 113 70.2 L 110.3 70.2 C 110.3 70.2 110.29 68.54 110.3 68.5 C 109.6 69.6 108.6 70.3 107 70.3 C 104.5 70.3 102.8 68.8 102.8 65.8 C 102.77 65.79 102.8 58.6 102.8 58.6 L 105.6 58.6 C 105.6 58.6 105.57 65.58 105.6 65.6 C 105.6 67.2 106.3 67.8 107.5 67.8 C 109.1 67.8 110.2 66.9 110.2 64.2 C 110.23 64.2 110.2 58.6 110.2 58.6 L 113 58.6 L 113 70.2 Z M 125 66.6 C 125 69.2 122.7 70.4 120.1 70.4 C 117.7 70.4 115.1 69.4 114.9 66.5 C 114.9 66.5 117.7 66.5 117.7 66.5 C 117.9 67.6 118.9 68.1 120.2 68.1 C 121.4 68.1 122.3 67.7 122.3 66.9 C 122.3 66.1 121.7 66 120.1 65.7 C 117.9 65.3 115.3 64.9 115.3 62.1 C 115.3 59.5 117.5 58.4 119.9 58.4 C 122.6 58.4 124.6 59.7 124.7 62.3 C 124.7 62.3 122 62.3 122 62.3 C 121.9 61.2 121.1 60.7 119.9 60.7 C 118.5 60.7 118 61.3 118 62 C 118 62.9 119 63.1 120.4 63.3 C 122.5 63.6 125 63.9 125 66.6 Z M 133.7 65.2 C 133.8 67.1 135.1 68 136.7 68 C 137.8 68 138.8 67.6 139.2 66.5 C 139.2 66.5 141.7 66.5 141.7 66.5 C 141.2 69.1 138.9 70.4 136.6 70.4 C 133.8 70.4 131 68.5 131 64.4 C 131 60.4 133.6 58.4 136.6 58.4 C 139.4 58.4 141.8 60.2 141.8 64.1 C 141.77 64.09 141.8 65.2 141.8 65.2 C 141.8 65.2 133.71 65.23 133.7 65.2 Z M 133.8 63.2 C 133.8 63.2 139 63.2 139 63.2 C 139 61.7 138 60.8 136.5 60.8 C 135.3 60.8 134 61.5 133.8 63.2 Z M 153.9 62.7 C 153.95 62.71 153.9 70.2 153.9 70.2 L 151.2 70.2 C 151.2 70.2 151.16 62.96 151.2 63 C 151.2 61.7 150.4 60.9 149.1 60.9 C 147.5 60.9 146.6 62 146.6 63.9 C 146.56 63.92 146.6 70.2 146.6 70.2 L 143.8 70.2 L 143.8 58.6 L 146.5 58.6 C 146.5 58.6 146.54 60.27 146.5 60.3 C 147.2 59.2 148.1 58.4 150.1 58.4 C 152.7 58.4 153.9 59.9 153.9 62.7 Z M 166.7 70.4 C 162.9 70.4 161.1 67.5 161.1 64.4 C 161.1 61.3 162.9 58.4 166.7 58.4 C 169.6 58.4 171.7 60 171.8 62.8 C 171.8 62.8 169.1 62.8 169.1 62.8 C 168.9 61.7 168.1 60.9 166.8 60.9 C 164.7 60.9 163.9 62.6 163.9 64.4 C 163.9 66.3 164.8 67.8 166.8 67.8 C 168.1 67.8 168.9 67.1 169.1 66.1 C 169.1 66.1 171.9 66.1 171.9 66.1 C 171.5 68.9 169.5 70.4 166.7 70.4 Z M 184.5 64.4 C 184.5 68.2 182.1 70.4 178.8 70.4 C 175.6 70.4 173.2 68.2 173.2 64.4 C 173.2 60.6 175.6 58.4 178.8 58.4 C 182.1 58.4 184.5 60.6 184.5 64.4 Z M 176 64.4 C 176 66.7 177.3 67.8 178.9 67.8 C 180.5 67.8 181.6 66.6 181.6 64.4 C 181.6 62.1 180.3 61 178.8 61 C 177.1 61 176 62.2 176 64.4 Z M 202.8 62.4 C 202.84 62.37 202.8 70.2 202.8 70.2 L 200 70.2 C 200 70.2 200.04 62.92 200 62.9 C 200 61.5 199.4 60.9 198.2 60.9 C 196.9 60.9 196.1 61.7 196.1 63.7 C 196.05 63.67 196.1 70.2 196.1 70.2 L 193.3 70.2 C 193.3 70.2 193.26 62.92 193.3 62.9 C 193.3 61.5 192.6 60.9 191.4 60.9 C 190.1 60.9 189.3 61.7 189.3 63.7 C 189.27 63.65 189.3 70.2 189.3 70.2 L 186.5 70.2 L 186.5 58.6 L 189.2 58.6 C 189.2 58.6 189.23 60.29 189.2 60.3 C 189.6 59.4 190.5 58.4 192.2 58.4 C 193.7 58.4 194.9 59.1 195.4 60.3 C 195.9 59.5 196.7 58.4 198.8 58.4 C 201.3 58.4 202.8 59.9 202.8 62.4 Z M 216.8 64.2 C 216.8 68.4 214.2 70.3 211.5 70.3 C 210 70.3 208.9 69.6 208.3 68.8 C 208.26 68.8 208.3 74.5 208.3 74.5 L 205.5 74.5 L 205.5 58.6 L 208.2 58.6 C 208.2 58.6 208.19 60.44 208.2 60.4 C 208.8 59.2 210.1 58.4 211.8 58.4 C 214.5 58.4 216.8 60.3 216.8 64.2 Z M 214 64.4 C 214 62 212.6 60.9 211.1 60.9 C 209.6 60.9 208.2 62 208.2 64.4 C 208.2 66.7 209.6 67.8 211.1 67.8 C 212.6 67.8 214 66.7 214 64.4 Z M 224.8 70.2 C 224.8 70.2 222.93 70.18 222.9 70.2 C 220.8 70.2 219.4 69.5 219.4 66.4 C 219.39 66.4 219.4 61.1 219.4 61.1 L 217.3 61.1 L 217.3 58.6 L 219.4 58.6 L 219.4 56 L 222.2 55.2 L 222.2 58.6 L 224.5 58.6 L 224.5 61.1 L 222.2 61.1 C 222.2 61.1 222.18 66.53 222.2 66.5 C 222.2 67.2 222.4 67.7 223.4 67.7 C 223.35 67.7 224.8 67.7 224.8 67.7 L 224.8 70.2 Z M 228.3 65.2 C 228.4 67.1 229.7 68 231.3 68 C 232.4 68 233.4 67.6 233.8 66.5 C 233.8 66.5 236.3 66.5 236.3 66.5 C 235.8 69.1 233.5 70.4 231.2 70.4 C 228.4 70.4 225.6 68.5 225.6 64.4 C 225.6 60.4 228.2 58.4 231.2 58.4 C 234 58.4 236.4 60.2 236.4 64.1 C 236.37 64.09 236.4 65.2 236.4 65.2 C 236.4 65.2 228.31 65.23 228.3 65.2 Z M 228.4 63.2 C 228.4 63.2 233.6 63.2 233.6 63.2 C 233.6 61.7 232.6 60.8 231.1 60.8 C 229.9 60.8 228.6 61.5 228.4 63.2 Z " stroke="none" fill="#000"/>  </g>  <g id="Polygon11007">    <path d="M 5 31.3 L 8.2 26.3 L 10.4 28 L 7.3 31.3 L 5 31.3 Z M 3.3 40 C 3.4 41.9 4.7 42.8 6.3 42.8 C 7.4 42.8 8.5 42.4 8.8 41.3 C 8.8 41.3 11.4 41.3 11.4 41.3 C 10.9 43.9 8.6 45.2 6.2 45.2 C 3.4 45.2 0.6 43.3 0.6 39.2 C 0.6 35.2 3.3 33.2 6.2 33.2 C 9 33.2 11.4 35 11.4 38.9 C 11.4 38.89 11.4 40 11.4 40 C 11.4 40 3.34 40.03 3.3 40 Z M 3.4 38 C 3.4 38 8.7 38 8.7 38 C 8.7 36.5 7.6 35.6 6.2 35.6 C 4.9 35.6 3.7 36.3 3.4 38 Z M 29.8 37.2 C 29.76 37.17 29.8 45 29.8 45 L 27 45 C 27 45 26.96 37.72 27 37.7 C 27 36.3 26.3 35.7 25.2 35.7 C 23.8 35.7 23 36.5 23 38.5 C 22.97 38.47 23 45 23 45 L 20.2 45 C 20.2 45 20.18 37.72 20.2 37.7 C 20.2 36.3 19.5 35.7 18.4 35.7 C 17.1 35.7 16.2 36.5 16.2 38.5 C 16.19 38.45 16.2 45 16.2 45 L 13.4 45 L 13.4 33.4 L 16.1 33.4 C 16.1 33.4 16.15 35.09 16.1 35.1 C 16.5 34.2 17.4 33.2 19.2 33.2 C 20.6 33.2 21.8 33.9 22.3 35.1 C 22.8 34.3 23.6 33.2 25.7 33.2 C 28.2 33.2 29.8 34.7 29.8 37.2 Z M 34.4 40 C 34.4 41.9 35.8 42.8 37.3 42.8 C 38.4 42.8 39.5 42.4 39.8 41.3 C 39.8 41.3 42.4 41.3 42.4 41.3 C 41.9 43.9 39.6 45.2 37.2 45.2 C 34.4 45.2 31.6 43.3 31.6 39.2 C 31.6 35.2 34.3 33.2 37.2 33.2 C 40 33.2 42.4 35 42.4 38.9 C 42.42 38.89 42.4 40 42.4 40 C 42.4 40 34.36 40.03 34.4 40 Z M 34.4 38 C 34.4 38 39.7 38 39.7 38 C 39.7 36.5 38.6 35.6 37.2 35.6 C 35.9 35.6 34.7 36.3 34.4 38 Z M 51 36 C 51 36 50.23 35.97 50.2 36 C 48.3 36 47.2 37 47.2 39.3 C 47.21 39.31 47.2 45 47.2 45 L 44.4 45 L 44.4 33.4 L 47.2 33.4 C 47.2 33.4 47.19 35.05 47.2 35 C 47.8 33.8 48.8 33.3 50.2 33.3 C 50.21 33.26 51 33.3 51 33.3 L 51 36 Z M 62.6 44.2 C 62.6 47.9 60.2 49.6 57 49.6 C 54.2 49.6 51.9 48.2 51.6 45.3 C 51.6 45.3 54.3 45.3 54.3 45.3 C 54.6 46.8 55.7 47.2 57 47.2 C 58.8 47.2 59.9 46.3 59.9 44.5 C 59.9 44.5 59.9 42.6 59.9 42.6 C 59.3 43.8 58.2 44.6 56.4 44.6 C 53.8 44.6 51.4 42.8 51.4 38.9 C 51.4 35 53.8 33.2 56.4 33.2 C 58.1 33.2 59.3 33.9 59.9 35 C 59.87 35.01 59.9 33.4 59.9 33.4 L 62.6 33.4 C 62.6 33.4 62.56 44.2 62.6 44.2 Z M 59.8 38.9 C 59.8 36.7 58.5 35.6 57 35.6 C 55.5 35.6 54.1 36.7 54.1 38.9 C 54.1 41.1 55.5 42.1 57 42.1 C 58.5 42.1 59.8 41.1 59.8 38.9 Z M 67.2 40 C 67.2 41.9 68.6 42.8 70.1 42.8 C 71.2 42.8 72.3 42.4 72.6 41.3 C 72.6 41.3 75.2 41.3 75.2 41.3 C 74.7 43.9 72.4 45.2 70 45.2 C 67.2 45.2 64.4 43.3 64.4 39.2 C 64.4 35.2 67.1 33.2 70 33.2 C 72.8 33.2 75.2 35 75.2 38.9 C 75.22 38.89 75.2 40 75.2 40 C 75.2 40 67.16 40.03 67.2 40 Z M 67.2 38 C 67.2 38 72.5 38 72.5 38 C 72.5 36.5 71.4 35.6 70 35.6 C 68.7 35.6 67.5 36.3 67.2 38 Z M 87.4 37.5 C 87.4 37.51 87.4 45 87.4 45 L 84.6 45 C 84.6 45 84.61 37.76 84.6 37.8 C 84.6 36.5 83.9 35.7 82.6 35.7 C 81 35.7 80 36.8 80 38.7 C 80.01 38.72 80 45 80 45 L 77.2 45 L 77.2 33.4 L 80 33.4 C 80 33.4 79.99 35.07 80 35.1 C 80.6 34 81.6 33.2 83.5 33.2 C 86.2 33.2 87.4 34.7 87.4 37.5 Z M 95.9 45 C 95.9 45 94.12 44.98 94.1 45 C 92 45 90.6 44.3 90.6 41.2 C 90.57 41.2 90.6 35.9 90.6 35.9 L 88.5 35.9 L 88.5 33.4 L 90.6 33.4 L 90.6 30.8 L 93.4 30 L 93.4 33.4 L 95.7 33.4 L 95.7 35.9 L 93.4 35.9 C 93.4 35.9 93.37 41.33 93.4 41.3 C 93.4 42 93.6 42.5 94.5 42.5 C 94.54 42.5 95.9 42.5 95.9 42.5 L 95.9 45 Z M 106.8 41.4 C 106.8 44 104.5 45.2 101.9 45.2 C 99.5 45.2 96.9 44.2 96.7 41.3 C 96.7 41.3 99.5 41.3 99.5 41.3 C 99.7 42.4 100.7 42.9 102 42.9 C 103.2 42.9 104 42.5 104 41.7 C 104 40.9 103.5 40.8 101.9 40.5 C 99.6 40.1 97 39.7 97 36.9 C 97 34.3 99.2 33.2 101.6 33.2 C 104.3 33.2 106.3 34.5 106.5 37.1 C 106.5 37.1 103.8 37.1 103.8 37.1 C 103.7 36 102.9 35.5 101.7 35.5 C 100.3 35.5 99.7 36.1 99.7 36.8 C 99.7 37.7 100.8 37.9 102.2 38.1 C 104.3 38.4 106.8 38.7 106.8 41.4 Z M 110.2 44.8 C 110.17 44.79 108.7 44.8 108.7 44.8 L 108.7 41.9 L 112 41.9 C 112 41.9 111.95 44.39 112 44.4 C 112 47.4 109.9 48.5 108 48.7 C 108 48.7 107.7 47.2 107.7 47.2 C 109.2 47 110.2 46.1 110.2 44.8 Z M 123.5 45.2 C 119.7 45.2 117.8 42.3 117.8 39.2 C 117.8 36.1 119.6 33.2 123.4 33.2 C 126.3 33.2 128.5 34.8 128.6 37.6 C 128.6 37.6 125.8 37.6 125.8 37.6 C 125.7 36.5 124.9 35.7 123.5 35.7 C 121.5 35.7 120.6 37.4 120.6 39.2 C 120.6 41.1 121.5 42.6 123.5 42.6 C 124.8 42.6 125.7 41.9 125.9 40.9 C 125.9 40.9 128.6 40.9 128.6 40.9 C 128.3 43.7 126.3 45.2 123.5 45.2 Z M 141.2 39.2 C 141.2 43 138.8 45.2 135.6 45.2 C 132.3 45.2 129.9 43 129.9 39.2 C 129.9 35.4 132.3 33.2 135.6 33.2 C 138.8 33.2 141.2 35.4 141.2 39.2 Z M 132.8 39.2 C 132.8 41.5 134 42.6 135.6 42.6 C 137.3 42.6 138.4 41.4 138.4 39.2 C 138.4 36.9 137.1 35.8 135.5 35.8 C 133.9 35.8 132.8 37 132.8 39.2 Z M 159.6 37.2 C 159.58 37.17 159.6 45 159.6 45 L 156.8 45 C 156.8 45 156.79 37.72 156.8 37.7 C 156.8 36.3 156.1 35.7 155 35.7 C 153.7 35.7 152.8 36.5 152.8 38.5 C 152.8 38.47 152.8 45 152.8 45 L 150 45 C 150 45 150 37.72 150 37.7 C 150 36.3 149.3 35.7 148.2 35.7 C 146.9 35.7 146 36.5 146 38.5 C 146.01 38.45 146 45 146 45 L 143.2 45 L 143.2 33.4 L 146 33.4 C 146 33.4 145.97 35.09 146 35.1 C 146.3 34.2 147.2 33.2 149 33.2 C 150.5 33.2 151.6 33.9 152.2 35.1 C 152.6 34.3 153.4 33.2 155.5 33.2 C 158 33.2 159.6 34.7 159.6 37.2 Z M 178.6 37.2 C 178.56 37.17 178.6 45 178.6 45 L 175.8 45 C 175.8 45 175.77 37.72 175.8 37.7 C 175.8 36.3 175.1 35.7 174 35.7 C 172.6 35.7 171.8 36.5 171.8 38.5 C 171.78 38.47 171.8 45 171.8 45 L 169 45 C 169 45 168.99 37.72 169 37.7 C 169 36.3 168.3 35.7 167.2 35.7 C 165.9 35.7 165 36.5 165 38.5 C 165 38.45 165 45 165 45 L 162.2 45 L 162.2 33.4 L 165 33.4 C 165 33.4 164.95 35.09 165 35.1 C 165.3 34.2 166.2 33.2 168 33.2 C 169.4 33.2 170.6 33.9 171.1 35.1 C 171.6 34.3 172.4 33.2 174.5 33.2 C 177 33.2 178.6 34.7 178.6 37.2 Z M 183.2 40 C 183.2 41.9 184.6 42.8 186.1 42.8 C 187.2 42.8 188.3 42.4 188.6 41.3 C 188.6 41.3 191.2 41.3 191.2 41.3 C 190.7 43.9 188.4 45.2 186 45.2 C 183.2 45.2 180.5 43.3 180.5 39.2 C 180.5 35.2 183.1 33.2 186 33.2 C 188.9 33.2 191.2 35 191.2 38.9 C 191.22 38.89 191.2 40 191.2 40 C 191.2 40 183.16 40.03 183.2 40 Z M 183.2 38 C 183.2 38 188.5 38 188.5 38 C 188.5 36.5 187.4 35.6 186 35.6 C 184.7 35.6 183.5 36.3 183.2 38 Z M 203.4 37.5 C 203.4 37.51 203.4 45 203.4 45 L 200.6 45 C 200.6 45 200.61 37.76 200.6 37.8 C 200.6 36.5 199.9 35.7 198.6 35.7 C 197 35.7 196 36.8 196 38.7 C 196.01 38.72 196 45 196 45 L 193.2 45 L 193.2 33.4 L 196 33.4 C 196 33.4 195.99 35.07 196 35.1 C 196.6 34 197.6 33.2 199.5 33.2 C 202.2 33.2 203.4 34.7 203.4 37.5 Z M 212 45 C 212 45 210.12 44.98 210.1 45 C 208 45 206.6 44.3 206.6 41.2 C 206.58 41.2 206.6 35.9 206.6 35.9 L 204.5 35.9 L 204.5 33.4 L 206.6 33.4 L 206.6 30.8 L 209.4 30 L 209.4 33.4 L 211.7 33.4 L 211.7 35.9 L 209.4 35.9 C 209.4 35.9 209.37 41.33 209.4 41.3 C 209.4 42 209.6 42.5 210.5 42.5 C 210.54 42.5 212 42.5 212 42.5 L 212 45 Z " stroke="none" fill="#000"/>  </g>  <g id="Polygon11006">    <path d="M 7.2 20.2 C 4 20.2 0.7 18.4 0.7 14.4 C 0.7 14.4 3.7 14.4 3.7 14.4 C 3.8 16.8 5.5 17.7 7.2 17.7 C 8.7 17.7 10.1 16.9 10.1 15.6 C 10.1 14 8.3 13.6 6.5 13.2 C 4.2 12.7 1.3 11.9 1.3 8.5 C 1.3 5.2 3.9 3.7 7 3.7 C 9.9 3.7 12.7 5.2 12.7 8.4 C 12.7 8.4 9.8 8.4 9.8 8.4 C 9.7 6.8 8.3 6.2 6.8 6.2 C 5.3 6.2 4.1 6.9 4.1 8.3 C 4.1 9.8 5.6 10.2 7.4 10.6 C 9.4 11.1 13 11.7 13 15.4 C 13 18.5 10.3 20.2 7.2 20.2 Z M 16.6 6.1 C 16.59 6.07 15.2 6.1 15.2 6.1 L 15.2 3.1 L 18.4 3.1 C 18.4 3.1 18.37 5.67 18.4 5.7 C 18.4 8.7 16.3 9.7 14.4 10 C 14.4 10 14.2 8.5 14.2 8.5 C 15.7 8.3 16.6 7.4 16.6 6.1 Z M 29.4 12 C 29.42 11.99 29.4 19.8 29.4 19.8 L 26.7 19.8 C 26.7 19.8 26.69 18.1 26.7 18.1 C 25.8 19.6 24.4 20 23.2 20 C 21.3 20 19.4 18.9 19.4 16.4 C 19.4 14.6 20.5 13.4 23.1 13 C 23.1 13 25.6 12.6 25.6 12.6 C 26.3 12.5 26.8 12.3 26.8 11.6 C 26.8 10.6 26 10.2 24.8 10.2 C 23.4 10.2 22.7 10.9 22.6 11.9 C 22.6 11.9 19.9 11.9 19.9 11.9 C 20.2 9.2 22.3 8 25 8 C 27.7 8 29.4 9.3 29.4 12 Z M 26.7 14.9 C 26.7 14.9 26.7 14.3 26.7 14.3 C 26.4 14.4 25.9 14.6 25.3 14.6 C 25.3 14.6 24.1 14.8 24.1 14.8 C 22.7 15 22.2 15.6 22.2 16.3 C 22.2 17.2 22.9 17.7 23.8 17.7 C 25.3 17.7 26.7 16.6 26.7 14.9 Z M 42.4 19 C 42.4 22.7 40 24.4 36.9 24.4 C 34 24.4 31.7 23 31.4 20.1 C 31.4 20.1 34.1 20.1 34.1 20.1 C 34.4 21.6 35.6 22 36.9 22 C 38.7 22 39.7 21.1 39.7 19.3 C 39.7 19.3 39.7 17.4 39.7 17.4 C 39.2 18.6 38 19.4 36.3 19.4 C 33.7 19.4 31.2 17.6 31.2 13.7 C 31.2 9.8 33.7 8 36.3 8 C 37.9 8 39.1 8.7 39.7 9.8 C 39.69 9.81 39.7 8.2 39.7 8.2 L 42.4 8.2 C 42.4 8.2 42.38 19 42.4 19 Z M 39.6 13.7 C 39.6 11.5 38.4 10.4 36.9 10.4 C 35.3 10.4 34 11.5 34 13.7 C 34 15.9 35.3 16.9 36.9 16.9 C 38.4 16.9 39.6 15.9 39.6 13.7 Z M 44.9 6.7 L 47.9 6.7 L 47.9 3.5 L 44.9 3.5 L 44.9 6.7 Z M 45 8.2 L 47.8 8.2 L 47.8 19.8 L 45 19.8 L 45 8.2 Z M 59.7 16.2 C 59.7 18.8 57.4 20 54.8 20 C 52.4 20 49.8 19 49.6 16.1 C 49.6 16.1 52.5 16.1 52.5 16.1 C 52.6 17.2 53.7 17.7 55 17.7 C 56.2 17.7 57 17.3 57 16.5 C 57 15.7 56.4 15.6 54.9 15.3 C 52.6 14.9 50 14.5 50 11.7 C 50 9.1 52.2 8 54.6 8 C 57.3 8 59.3 9.3 59.5 11.9 C 59.5 11.9 56.7 11.9 56.7 11.9 C 56.6 10.8 55.8 10.3 54.6 10.3 C 53.3 10.3 52.7 10.9 52.7 11.6 C 52.7 12.5 53.7 12.7 55.1 12.9 C 57.2 13.2 59.7 13.5 59.7 16.2 Z M 70.9 16.2 C 70.9 18.8 68.6 20 66 20 C 63.6 20 61 19 60.8 16.1 C 60.8 16.1 63.6 16.1 63.6 16.1 C 63.8 17.2 64.8 17.7 66.1 17.7 C 67.3 17.7 68.1 17.3 68.1 16.5 C 68.1 15.7 67.6 15.6 66 15.3 C 63.7 14.9 61.2 14.5 61.2 11.7 C 61.2 9.1 63.4 8 65.7 8 C 68.5 8 70.5 9.3 70.6 11.9 C 70.6 11.9 67.9 11.9 67.9 11.9 C 67.8 10.8 67 10.3 65.8 10.3 C 64.4 10.3 63.9 10.9 63.9 11.6 C 63.9 12.5 64.9 12.7 66.3 12.9 C 68.4 13.2 70.9 13.5 70.9 16.2 Z M 82 12 C 82.05 11.99 82 19.8 82 19.8 L 79.3 19.8 C 79.3 19.8 79.32 18.1 79.3 18.1 C 78.4 19.6 77 20 75.8 20 C 74 20 72 18.9 72 16.4 C 72 14.6 73.1 13.4 75.7 13 C 75.7 13 78.2 12.6 78.2 12.6 C 78.9 12.5 79.4 12.3 79.4 11.6 C 79.4 10.6 78.6 10.2 77.5 10.2 C 76 10.2 75.3 10.9 75.2 11.9 C 75.2 11.9 72.5 11.9 72.5 11.9 C 72.8 9.2 75 8 77.6 8 C 80.3 8 82 9.3 82 12 Z M 79.3 14.9 C 79.3 14.9 79.3 14.3 79.3 14.3 C 79.1 14.4 78.5 14.6 78 14.6 C 78 14.6 76.7 14.8 76.7 14.8 C 75.3 15 74.8 15.6 74.8 16.3 C 74.8 17.2 75.5 17.7 76.5 17.7 C 77.9 17.7 79.3 16.6 79.3 14.9 Z M 94.8 12.3 C 94.75 12.31 94.8 19.8 94.8 19.8 L 92 19.8 C 92 19.8 91.96 12.56 92 12.6 C 92 11.3 91.2 10.5 89.9 10.5 C 88.3 10.5 87.4 11.6 87.4 13.5 C 87.36 13.52 87.4 19.8 87.4 19.8 L 84.6 19.8 L 84.6 8.2 L 87.3 8.2 C 87.3 8.2 87.34 9.87 87.3 9.9 C 88 8.8 88.9 8 90.9 8 C 93.5 8 94.8 9.5 94.8 12.3 Z M 103.3 19.8 C 103.3 19.8 101.47 19.78 101.5 19.8 C 99.3 19.8 97.9 19.1 97.9 16 C 97.92 16 97.9 10.7 97.9 10.7 L 95.8 10.7 L 95.8 8.2 L 97.9 8.2 L 97.9 5.6 L 100.7 4.8 L 100.7 8.2 L 103 8.2 L 103 10.7 L 100.7 10.7 C 100.7 10.7 100.71 16.13 100.7 16.1 C 100.7 16.8 100.9 17.3 101.9 17.3 C 101.89 17.3 103.3 17.3 103.3 17.3 L 103.3 19.8 Z M 120.6 19.8 L 117.8 19.8 C 117.8 19.8 117.83 18 117.8 18 C 117.2 19.3 115.9 20 114.3 20 C 111.6 20 109.2 18 109.2 14 C 109.2 10 111.6 8 114.3 8 C 115.8 8 117.1 8.6 117.8 9.7 C 117.77 9.72 117.8 3.8 117.8 3.8 L 120.6 3.8 L 120.6 19.8 Z M 117.9 14 C 117.9 11.6 116.4 10.5 114.9 10.5 C 113.4 10.5 112 11.6 112 14 C 112 16.3 113.4 17.5 114.9 17.5 C 116.4 17.5 117.9 16.3 117.9 14 Z M 125.3 14.8 C 125.3 16.7 126.7 17.6 128.2 17.6 C 129.3 17.6 130.4 17.2 130.7 16.1 C 130.7 16.1 133.3 16.1 133.3 16.1 C 132.8 18.7 130.5 20 128.1 20 C 125.3 20 122.6 18.1 122.6 14 C 122.6 10 125.2 8 128.1 8 C 131 8 133.3 9.8 133.3 13.7 C 133.33 13.69 133.3 14.8 133.3 14.8 C 133.3 14.8 125.26 14.83 125.3 14.8 Z M 125.3 12.8 C 125.3 12.8 130.6 12.8 130.6 12.8 C 130.6 11.3 129.5 10.4 128.1 10.4 C 126.8 10.4 125.6 11.1 125.3 12.8 Z M 144.6 16.2 C 144.6 18.8 142.3 20 139.7 20 C 137.3 20 134.7 19 134.5 16.1 C 134.5 16.1 137.3 16.1 137.3 16.1 C 137.5 17.2 138.5 17.7 139.8 17.7 C 141 17.7 141.8 17.3 141.8 16.5 C 141.8 15.7 141.3 15.6 139.7 15.3 C 137.4 14.9 134.8 14.5 134.8 11.7 C 134.8 9.1 137 8 139.4 8 C 142.1 8 144.1 9.3 144.3 11.9 C 144.3 11.9 141.6 11.9 141.6 11.9 C 141.5 10.8 140.7 10.3 139.5 10.3 C 138.1 10.3 137.5 10.9 137.5 11.6 C 137.5 12.5 138.6 12.7 140 12.9 C 142.1 13.2 144.6 13.5 144.6 16.2 Z M 163.1 13.8 C 163.1 18 160.5 19.9 157.8 19.9 C 156.2 19.9 155.2 19.2 154.5 18.4 C 154.52 18.4 154.5 24.1 154.5 24.1 L 151.7 24.1 L 151.7 8.2 L 154.5 8.2 C 154.5 8.2 154.45 10.04 154.5 10 C 155 8.8 156.4 8 158.1 8 C 160.8 8 163.1 9.9 163.1 13.8 Z M 160.3 14 C 160.3 11.6 158.9 10.5 157.4 10.5 C 155.9 10.5 154.4 11.6 154.4 14 C 154.4 16.3 155.9 17.4 157.4 17.4 C 158.9 17.4 160.3 16.3 160.3 14 Z M 174.4 12 C 174.36 11.99 174.4 19.8 174.4 19.8 L 171.6 19.8 C 171.6 19.8 171.63 18.1 171.6 18.1 C 170.7 19.6 169.3 20 168.1 20 C 166.3 20 164.4 18.9 164.4 16.4 C 164.4 14.6 165.4 13.4 168.1 13 C 168.1 13 170.6 12.6 170.6 12.6 C 171.3 12.5 171.7 12.3 171.7 11.6 C 171.7 10.6 170.9 10.2 169.8 10.2 C 168.3 10.2 167.6 10.9 167.5 11.9 C 167.5 11.9 164.8 11.9 164.8 11.9 C 165.1 9.2 167.3 8 169.9 8 C 172.6 8 174.4 9.3 174.4 12 Z M 171.7 14.9 C 171.7 14.9 171.7 14.3 171.7 14.3 C 171.4 14.4 170.9 14.6 170.3 14.6 C 170.3 14.6 169 14.8 169 14.8 C 167.6 15 167.2 15.6 167.2 16.3 C 167.2 17.2 167.8 17.7 168.8 17.7 C 170.2 17.7 171.7 16.6 171.7 14.9 Z M 186.8 8.2 C 186.8 8.2 181.77 21.52 181.8 21.5 C 181.2 22.9 180.1 23.5 178.5 23.5 C 178.5 23.48 176.8 23.5 176.8 23.5 L 176.8 21 C 176.8 21 178.01 21 178 21 C 178.9 21 179.4 20.7 179.7 19.9 C 179.67 19.87 179.9 19.3 179.9 19.3 L 175.5 8.2 L 178.5 8.2 L 181.2 15.8 L 183.9 8.2 L 186.8 8.2 Z M 197.2 16.2 C 197.2 18.8 194.9 20 192.3 20 C 189.9 20 187.3 19 187.1 16.1 C 187.1 16.1 189.9 16.1 189.9 16.1 C 190.1 17.2 191.2 17.7 192.5 17.7 C 193.6 17.7 194.5 17.3 194.5 16.5 C 194.5 15.7 193.9 15.6 192.3 15.3 C 190.1 14.9 187.5 14.5 187.5 11.7 C 187.5 9.1 189.7 8 192.1 8 C 194.8 8 196.8 9.3 197 11.9 C 197 11.9 194.2 11.9 194.2 11.9 C 194.1 10.8 193.3 10.3 192.1 10.3 C 190.7 10.3 190.2 10.9 190.2 11.6 C 190.2 12.5 191.2 12.7 192.6 12.9 C 194.7 13.2 197.2 13.5 197.2 16.2 Z " stroke="none" fill="#000"/>  </g></svg>