<?xml version="1.0" standalone="no"?><!DOCTYPE svg PUBLIC "-//W3C//DTD SVG 1.1//EN" "http://www.w3.org/Graphics/SVG/1.1/DTD/svg11.dtd"><svg xmlns="http://www.w3.org/2000/svg" version="1.1" width="527px" height="104.4px" viewBox="0 0 527 104.4">  <desc>Como gestor activo, qu tipo de apalancamiento va a emplear para ofrecer una rentabilidad atractiva pese a los bajos</desc>  <defs/>  <g id="Polygon12116">    <path d="M 12.7 64.2 C 12.7 68.4 10.1 70.3 7.4 70.3 C 5.9 70.3 4.8 69.6 4.2 68.8 C 4.16 68.8 4.2 74.5 4.2 74.5 L 1.4 74.5 L 1.4 58.6 L 4.1 58.6 C 4.1 58.6 4.09 60.44 4.1 60.4 C 4.7 59.2 6 58.4 7.7 58.4 C 10.4 58.4 12.7 60.3 12.7 64.2 Z M 9.9 64.4 C 9.9 62 8.5 60.9 7 60.9 C 5.5 60.9 4.1 62 4.1 64.4 C 4.1 66.7 5.5 67.8 7 67.8 C 8.5 67.8 9.9 66.7 9.9 64.4 Z M 16.7 65.2 C 16.8 67.1 18.1 68 19.7 68 C 20.8 68 21.8 67.6 22.2 66.5 C 22.2 66.5 24.7 66.5 24.7 66.5 C 24.2 69.1 21.9 70.4 19.6 70.4 C 16.8 70.4 14 68.5 14 64.4 C 14 60.4 16.6 58.4 19.6 58.4 C 22.4 58.4 24.8 60.2 24.8 64.1 C 24.78 64.09 24.8 65.2 24.8 65.2 C 24.8 65.2 16.72 65.23 16.7 65.2 Z M 16.8 63.2 C 16.8 63.2 22 63.2 22 63.2 C 22 61.7 21 60.8 19.6 60.8 C 18.3 60.8 17 61.5 16.8 63.2 Z M 36 66.6 C 36 69.2 33.7 70.4 31.1 70.4 C 28.7 70.4 26.1 69.4 25.9 66.5 C 25.9 66.5 28.7 66.5 28.7 66.5 C 28.9 67.6 30 68.1 31.3 68.1 C 32.4 68.1 33.3 67.7 33.3 66.9 C 33.3 66.1 32.7 66 31.1 65.7 C 28.9 65.3 26.3 64.9 26.3 62.1 C 26.3 59.5 28.5 58.4 30.9 58.4 C 33.6 58.4 35.6 59.7 35.8 62.3 C 35.8 62.3 33 62.3 33 62.3 C 32.9 61.2 32.1 60.7 30.9 60.7 C 29.5 60.7 29 61.3 29 62 C 29 62.9 30 63.1 31.4 63.3 C 33.5 63.6 36 63.9 36 66.6 Z M 39.9 65.2 C 40 67.1 41.3 68 42.9 68 C 44 68 45 67.6 45.4 66.5 C 45.4 66.5 47.9 66.5 47.9 66.5 C 47.4 69.1 45.1 70.4 42.8 70.4 C 40 70.4 37.2 68.5 37.2 64.4 C 37.2 60.4 39.8 58.4 42.8 58.4 C 45.6 58.4 48 60.2 48 64.1 C 47.96 64.09 48 65.2 48 65.2 C 48 65.2 39.9 65.23 39.9 65.2 Z M 40 63.2 C 40 63.2 45.2 63.2 45.2 63.2 C 45.2 61.7 44.2 60.8 42.7 60.8 C 41.5 60.8 40.2 61.5 40 63.2 Z M 64.5 62.4 C 64.47 62.39 64.5 70.2 64.5 70.2 L 61.7 70.2 C 61.7 70.2 61.74 68.5 61.7 68.5 C 60.8 70 59.5 70.4 58.2 70.4 C 56.4 70.4 54.5 69.3 54.5 66.8 C 54.5 65 55.5 63.8 58.2 63.4 C 58.2 63.4 60.7 63 60.7 63 C 61.4 62.9 61.8 62.7 61.8 62 C 61.8 61 61 60.6 59.9 60.6 C 58.4 60.6 57.7 61.3 57.6 62.3 C 57.6 62.3 54.9 62.3 54.9 62.3 C 55.2 59.6 57.4 58.4 60 58.4 C 62.7 58.4 64.5 59.7 64.5 62.4 Z M 61.8 65.3 C 61.8 65.3 61.8 64.7 61.8 64.7 C 61.5 64.8 61 65 60.4 65 C 60.4 65 59.1 65.2 59.1 65.2 C 57.7 65.4 57.3 66 57.3 66.7 C 57.3 67.6 57.9 68.1 58.9 68.1 C 60.3 68.1 61.8 67 61.8 65.3 Z M 75 70.2 L 72.2 70.2 L 72.2 54.2 L 75 54.2 L 75 70.2 Z M 88.3 64.4 C 88.3 68.2 85.9 70.4 82.7 70.4 C 79.4 70.4 77 68.2 77 64.4 C 77 60.6 79.4 58.4 82.7 58.4 C 85.9 58.4 88.3 60.6 88.3 64.4 Z M 79.9 64.4 C 79.9 66.7 81.2 67.8 82.7 67.8 C 84.4 67.8 85.5 66.6 85.5 64.4 C 85.5 62.1 84.2 61 82.7 61 C 81 61 79.9 62.2 79.9 64.4 Z M 99.6 66.6 C 99.6 69.2 97.3 70.4 94.7 70.4 C 92.3 70.4 89.7 69.4 89.5 66.5 C 89.5 66.5 92.3 66.5 92.3 66.5 C 92.5 67.6 93.5 68.1 94.8 68.1 C 96 68.1 96.9 67.7 96.9 66.9 C 96.9 66.1 96.3 66 94.7 65.7 C 92.4 65.3 89.9 64.9 89.9 62.1 C 89.9 59.5 92.1 58.4 94.5 58.4 C 97.2 58.4 99.2 59.7 99.3 62.3 C 99.3 62.3 96.6 62.3 96.6 62.3 C 96.5 61.2 95.7 60.7 94.5 60.7 C 93.1 60.7 92.6 61.3 92.6 62 C 92.6 62.9 93.6 63.1 95 63.3 C 97.1 63.6 99.6 63.9 99.6 66.6 Z M 118.1 64.4 C 118.1 68.5 115.6 70.4 112.9 70.4 C 111.4 70.4 110.2 69.9 109.5 68.8 C 109.47 68.8 109.5 70.2 109.5 70.2 L 106.7 70.2 L 106.7 54.2 L 109.5 54.2 C 109.5 54.2 109.53 60.29 109.5 60.3 C 110.2 59.1 111.5 58.4 113.1 58.4 C 115.8 58.4 118.1 60.4 118.1 64.4 Z M 115.3 64.4 C 115.3 62.1 113.9 60.9 112.4 60.9 C 110.9 60.9 109.5 62.1 109.5 64.4 C 109.5 66.8 110.9 68 112.4 68 C 113.9 68 115.3 66.8 115.3 64.4 Z M 129.4 62.4 C 129.38 62.39 129.4 70.2 129.4 70.2 L 126.6 70.2 C 126.6 70.2 126.65 68.5 126.6 68.5 C 125.7 70 124.4 70.4 123.1 70.4 C 121.3 70.4 119.4 69.3 119.4 66.8 C 119.4 65 120.4 63.8 123.1 63.4 C 123.1 63.4 125.6 63 125.6 63 C 126.3 62.9 126.8 62.7 126.8 62 C 126.8 61 125.9 60.6 124.8 60.6 C 123.3 60.6 122.6 61.3 122.5 62.3 C 122.5 62.3 119.8 62.3 119.8 62.3 C 120.1 59.6 122.3 58.4 124.9 58.4 C 127.7 58.4 129.4 59.7 129.4 62.4 Z M 126.7 65.3 C 126.7 65.3 126.7 64.7 126.7 64.7 C 126.4 64.8 125.9 65 125.3 65 C 125.3 65 124 65.2 124 65.2 C 122.6 65.4 122.2 66 122.2 66.7 C 122.2 67.6 122.8 68.1 123.8 68.1 C 125.2 68.1 126.7 67 126.7 65.3 Z M 135.1 57.1 L 132.2 57.1 L 132.2 53.9 L 135.1 53.9 L 135.1 57.1 Z M 135 58.6 C 135 58.6 135.03 70.73 135 70.7 C 135 73.8 133.6 74.5 131.5 74.5 C 131.48 74.51 130.1 74.5 130.1 74.5 L 130.1 72 C 130.1 72 131.06 72.03 131.1 72 C 132 72 132.2 71.5 132.2 70.9 C 132.24 70.85 132.2 58.6 132.2 58.6 L 135 58.6 Z M 148.2 64.4 C 148.2 68.2 145.8 70.4 142.5 70.4 C 139.3 70.4 136.9 68.2 136.9 64.4 C 136.9 60.6 139.3 58.4 142.5 58.4 C 145.8 58.4 148.2 60.6 148.2 64.4 Z M 139.8 64.4 C 139.8 66.7 141 67.8 142.6 67.8 C 144.2 67.8 145.4 66.6 145.4 64.4 C 145.4 62.1 144.1 61 142.5 61 C 140.9 61 139.8 62.2 139.8 64.4 Z M 159.5 66.6 C 159.5 69.2 157.2 70.4 154.6 70.4 C 152.2 70.4 149.6 69.4 149.4 66.5 C 149.4 66.5 152.2 66.5 152.2 66.5 C 152.4 67.6 153.4 68.1 154.7 68.1 C 155.9 68.1 156.7 67.7 156.7 66.9 C 156.7 66.1 156.2 66 154.6 65.7 C 152.3 65.3 149.7 64.9 149.7 62.1 C 149.7 59.5 151.9 58.4 154.3 58.4 C 157 58.4 159 59.7 159.2 62.3 C 159.2 62.3 156.5 62.3 156.5 62.3 C 156.4 61.2 155.5 60.7 154.4 60.7 C 153 60.7 152.4 61.3 152.4 62 C 152.4 62.9 153.5 63.1 154.9 63.3 C 157 63.6 159.5 63.9 159.5 66.6 Z M 173.2 61.2 C 173.2 61.2 172.43 61.17 172.4 61.2 C 170.5 61.2 169.4 62.2 169.4 64.5 C 169.41 64.51 169.4 70.2 169.4 70.2 L 166.6 70.2 L 166.6 58.6 L 169.4 58.6 C 169.4 58.6 169.38 60.25 169.4 60.2 C 170 59 171 58.5 172.4 58.5 C 172.41 58.46 173.2 58.5 173.2 58.5 L 173.2 61.2 Z M 176.3 65.2 C 176.4 67.1 177.7 68 179.3 68 C 180.4 68 181.4 67.6 181.8 66.5 C 181.8 66.5 184.3 66.5 184.3 66.5 C 183.8 69.1 181.5 70.4 179.1 70.4 C 176.4 70.4 173.6 68.5 173.6 64.4 C 173.6 60.4 176.2 58.4 179.2 58.4 C 182 58.4 184.4 60.2 184.4 64.1 C 184.36 64.09 184.4 65.2 184.4 65.2 C 184.4 65.2 176.29 65.23 176.3 65.2 Z M 176.4 63.2 C 176.4 63.2 181.6 63.2 181.6 63.2 C 181.6 61.7 180.6 60.8 179.1 60.8 C 177.8 60.8 176.6 61.5 176.4 63.2 Z M 196.5 62.7 C 196.54 62.71 196.5 70.2 196.5 70.2 L 193.7 70.2 C 193.7 70.2 193.74 62.96 193.7 63 C 193.7 61.7 193 60.9 191.7 60.9 C 190.1 60.9 189.1 62 189.1 63.9 C 189.15 63.92 189.1 70.2 189.1 70.2 L 186.4 70.2 L 186.4 58.6 L 189.1 58.6 C 189.1 58.6 189.12 60.27 189.1 60.3 C 189.8 59.2 190.7 58.4 192.7 58.4 C 195.3 58.4 196.5 59.9 196.5 62.7 Z M 209.8 70.2 L 207.1 70.2 C 207.1 70.2 207.08 68.4 207.1 68.4 C 206.4 69.7 205.1 70.4 203.5 70.4 C 200.8 70.4 198.4 68.4 198.4 64.4 C 198.4 60.4 200.8 58.4 203.5 58.4 C 205 58.4 206.3 59 207 60.1 C 207.02 60.12 207 54.2 207 54.2 L 209.8 54.2 L 209.8 70.2 Z M 207.1 64.4 C 207.1 62 205.7 60.9 204.2 60.9 C 202.6 60.9 201.3 62 201.3 64.4 C 201.3 66.7 202.6 67.9 204.2 67.9 C 205.7 67.9 207.1 66.7 207.1 64.4 Z M 212.4 57.1 L 215.4 57.1 L 215.4 53.9 L 212.4 53.9 L 212.4 57.1 Z M 212.5 58.6 L 215.3 58.6 L 215.3 70.2 L 212.5 70.2 L 212.5 58.6 Z M 234.4 62.4 C 234.38 62.37 234.4 70.2 234.4 70.2 L 231.6 70.2 C 231.6 70.2 231.59 62.92 231.6 62.9 C 231.6 61.5 230.9 60.9 229.8 60.9 C 228.5 60.9 227.6 61.7 227.6 63.7 C 227.6 63.67 227.6 70.2 227.6 70.2 L 224.8 70.2 C 224.8 70.2 224.8 62.92 224.8 62.9 C 224.8 61.5 224.1 60.9 223 60.9 C 221.7 60.9 220.8 61.7 220.8 63.7 C 220.81 63.65 220.8 70.2 220.8 70.2 L 218 70.2 L 218 58.6 L 220.8 58.6 C 220.8 58.6 220.77 60.29 220.8 60.3 C 221.1 59.4 222 58.4 223.8 58.4 C 225.3 58.4 226.4 59.1 227 60.3 C 227.4 59.5 228.2 58.4 230.3 58.4 C 232.8 58.4 234.4 59.9 234.4 62.4 Z M 236.9 57.1 L 239.9 57.1 L 239.9 53.9 L 236.9 53.9 L 236.9 57.1 Z M 237 58.6 L 239.8 58.6 L 239.8 70.2 L 237 70.2 L 237 58.6 Z M 244.5 65.2 C 244.5 67.1 245.9 68 247.4 68 C 248.5 68 249.6 67.6 249.9 66.5 C 249.9 66.5 252.5 66.5 252.5 66.5 C 252 69.1 249.7 70.4 247.3 70.4 C 244.5 70.4 241.7 68.5 241.7 64.4 C 241.7 60.4 244.4 58.4 247.3 58.4 C 250.1 58.4 252.5 60.2 252.5 64.1 C 252.52 64.09 252.5 65.2 252.5 65.2 C 252.5 65.2 244.46 65.23 244.5 65.2 Z M 244.5 63.2 C 244.5 63.2 249.8 63.2 249.8 63.2 C 249.8 61.7 248.7 60.8 247.3 60.8 C 246 60.8 244.8 61.5 244.5 63.2 Z M 264.7 62.7 C 264.7 62.71 264.7 70.2 264.7 70.2 L 261.9 70.2 C 261.9 70.2 261.91 62.96 261.9 63 C 261.9 61.7 261.2 60.9 259.9 60.9 C 258.3 60.9 257.3 62 257.3 63.9 C 257.31 63.92 257.3 70.2 257.3 70.2 L 254.5 70.2 L 254.5 58.6 L 257.3 58.6 C 257.3 58.6 257.29 60.27 257.3 60.3 C 257.9 59.2 258.9 58.4 260.8 58.4 C 263.5 58.4 264.7 59.9 264.7 62.7 Z M 273.2 70.2 C 273.2 70.2 271.42 70.18 271.4 70.2 C 269.3 70.2 267.9 69.5 267.9 66.4 C 267.87 66.4 267.9 61.1 267.9 61.1 L 265.8 61.1 L 265.8 58.6 L 267.9 58.6 L 267.9 56 L 270.7 55.2 L 270.7 58.6 L 273 58.6 L 273 61.1 L 270.7 61.1 C 270.7 61.1 270.67 66.53 270.7 66.5 C 270.7 67.2 270.9 67.7 271.8 67.7 C 271.84 67.7 273.2 67.7 273.2 67.7 L 273.2 70.2 Z M 285.4 64.4 C 285.4 68.2 283 70.4 279.7 70.4 C 276.5 70.4 274.1 68.2 274.1 64.4 C 274.1 60.6 276.5 58.4 279.7 58.4 C 283 58.4 285.4 60.6 285.4 64.4 Z M 276.9 64.4 C 276.9 66.7 278.2 67.8 279.8 67.8 C 281.4 67.8 282.6 66.6 282.6 64.4 C 282.6 62.1 281.3 61 279.7 61 C 278.1 61 276.9 62.2 276.9 64.4 Z M 296.7 66.6 C 296.7 69.2 294.4 70.4 291.7 70.4 C 289.4 70.4 286.8 69.4 286.6 66.5 C 286.6 66.5 289.4 66.5 289.4 66.5 C 289.6 67.6 290.6 68.1 291.9 68.1 C 293.1 68.1 293.9 67.7 293.9 66.9 C 293.9 66.1 293.4 66 291.8 65.7 C 289.5 65.3 286.9 64.9 286.9 62.1 C 286.9 59.5 289.1 58.4 291.5 58.4 C 294.2 58.4 296.2 59.7 296.4 62.3 C 296.4 62.3 293.7 62.3 293.7 62.3 C 293.6 61.2 292.7 60.7 291.6 60.7 C 290.2 60.7 289.6 61.3 289.6 62 C 289.6 62.9 290.7 63.1 292.1 63.3 C 294.1 63.6 296.7 63.9 296.7 66.6 Z M 303.7 57.1 L 306.7 57.1 L 306.7 53.9 L 303.7 53.9 L 303.7 57.1 Z M 303.8 58.6 L 306.6 58.6 L 306.6 70.2 L 303.8 70.2 L 303.8 58.6 Z M 319.5 62.7 C 319.47 62.71 319.5 70.2 319.5 70.2 L 316.7 70.2 C 316.7 70.2 316.68 62.96 316.7 63 C 316.7 61.7 315.9 60.9 314.6 60.9 C 313 60.9 312.1 62 312.1 63.9 C 312.08 63.92 312.1 70.2 312.1 70.2 L 309.3 70.2 L 309.3 58.6 L 312.1 58.6 C 312.1 58.6 312.06 60.27 312.1 60.3 C 312.7 59.2 313.7 58.4 315.6 58.4 C 318.2 58.4 319.5 59.9 319.5 62.7 Z M 322 57.1 L 324.9 57.1 L 324.9 53.9 L 322 53.9 L 322 57.1 Z M 322.1 58.6 L 324.9 58.6 L 324.9 70.2 L 322.1 70.2 L 322.1 58.6 Z M 332.5 70.4 C 328.7 70.4 326.8 67.5 326.8 64.4 C 326.8 61.3 328.6 58.4 332.4 58.4 C 335.3 58.4 337.5 60 337.6 62.8 C 337.6 62.8 334.8 62.8 334.8 62.8 C 334.7 61.7 333.9 60.9 332.5 60.9 C 330.5 60.9 329.7 62.6 329.7 64.4 C 329.7 66.3 330.5 67.8 332.5 67.8 C 333.9 67.8 334.7 67.1 334.9 66.1 C 334.9 66.1 337.6 66.1 337.6 66.1 C 337.3 68.9 335.3 70.4 332.5 70.4 Z M 339.5 57.1 L 342.5 57.1 L 342.5 53.9 L 339.5 53.9 L 339.5 57.1 Z M 339.6 58.6 L 342.4 58.6 L 342.4 70.2 L 339.6 70.2 L 339.6 58.6 Z M 354.4 62.4 C 354.39 62.39 354.4 70.2 354.4 70.2 L 351.7 70.2 C 351.7 70.2 351.66 68.5 351.7 68.5 C 350.8 70 349.4 70.4 348.2 70.4 C 346.3 70.4 344.4 69.3 344.4 66.8 C 344.4 65 345.4 63.8 348.1 63.4 C 348.1 63.4 350.6 63 350.6 63 C 351.3 62.9 351.8 62.7 351.8 62 C 351.8 61 350.9 60.6 349.8 60.6 C 348.3 60.6 347.7 61.3 347.5 62.3 C 347.5 62.3 344.9 62.3 344.9 62.3 C 345.2 59.6 347.3 58.4 349.9 58.4 C 352.7 58.4 354.4 59.7 354.4 62.4 Z M 351.7 65.3 C 351.7 65.3 351.7 64.7 351.7 64.7 C 351.4 64.8 350.9 65 350.3 65 C 350.3 65 349.1 65.2 349.1 65.2 C 347.7 65.4 347.2 66 347.2 66.7 C 347.2 67.6 347.8 68.1 348.8 68.1 C 350.3 68.1 351.7 67 351.7 65.3 Z M 359.7 70.2 L 356.9 70.2 L 356.9 54.2 L 359.7 54.2 L 359.7 70.2 Z M 364.4 65.2 C 364.5 67.1 365.8 68 367.4 68 C 368.5 68 369.5 67.6 369.9 66.5 C 369.9 66.5 372.4 66.5 372.4 66.5 C 371.9 69.1 369.6 70.4 367.3 70.4 C 364.5 70.4 361.7 68.5 361.7 64.4 C 361.7 60.4 364.3 58.4 367.3 58.4 C 370.1 58.4 372.5 60.2 372.5 64.1 C 372.47 64.09 372.5 65.2 372.5 65.2 C 372.5 65.2 364.41 65.23 364.4 65.2 Z M 364.5 63.2 C 364.5 63.2 369.7 63.2 369.7 63.2 C 369.7 61.7 368.7 60.8 367.2 60.8 C 366 60.8 364.7 61.5 364.5 63.2 Z M 383.7 66.6 C 383.7 69.2 381.4 70.4 378.8 70.4 C 376.4 70.4 373.8 69.4 373.6 66.5 C 373.6 66.5 376.4 66.5 376.4 66.5 C 376.6 67.6 377.7 68.1 379 68.1 C 380.1 68.1 381 67.7 381 66.9 C 381 66.1 380.4 66 378.8 65.7 C 376.6 65.3 374 64.9 374 62.1 C 374 59.5 376.2 58.4 378.6 58.4 C 381.3 58.4 383.3 59.7 383.5 62.3 C 383.5 62.3 380.7 62.3 380.7 62.3 C 380.6 61.2 379.8 60.7 378.6 60.7 C 377.2 60.7 376.7 61.3 376.7 62 C 376.7 62.9 377.7 63.1 379.1 63.3 C 381.2 63.6 383.7 63.9 383.7 66.6 Z M 388.4 64.6 C 388.4 61.9 389.7 61.4 391 60.5 C 392 59.8 392.4 59.2 392.4 58.4 C 392.4 57.2 391.6 56.6 390.4 56.6 C 388.9 56.6 388 57.4 387.9 58.8 C 387.9 58.8 385.1 58.8 385.1 58.8 C 385.4 55.4 387.8 54.2 390.4 54.2 C 393.2 54.2 395.4 55.5 395.4 58.3 C 395.4 60.5 394.1 61.4 392.6 62.4 C 391.6 63.2 391.1 63.7 391.1 64.6 C 391.06 64.64 391.1 65.3 391.1 65.3 L 388.4 65.3 C 388.4 65.3 388.39 64.55 388.4 64.6 Z M 388.2 66.9 L 391.3 66.9 L 391.3 70.2 L 388.2 70.2 L 388.2 66.9 Z " stroke="none" fill="#000"/>  </g>  <g id="Polygon12115">    <path d="M 7.2 45 L 4.3 45 L 0 33.4 L 3 33.4 L 5.8 41.7 L 8.7 33.4 L 11.6 33.4 L 7.2 45 Z M 22 37.2 C 21.97 37.19 22 45 22 45 L 19.2 45 C 19.2 45 19.24 43.3 19.2 43.3 C 18.3 44.8 16.9 45.2 15.7 45.2 C 13.9 45.2 12 44.1 12 41.6 C 12 39.8 13 38.6 15.7 38.2 C 15.7 38.2 18.2 37.8 18.2 37.8 C 18.9 37.7 19.3 37.5 19.3 36.8 C 19.3 35.8 18.5 35.4 17.4 35.4 C 15.9 35.4 15.2 36.1 15.1 37.1 C 15.1 37.1 12.4 37.1 12.4 37.1 C 12.7 34.4 14.9 33.2 17.5 33.2 C 20.2 33.2 22 34.5 22 37.2 Z M 19.3 40.1 C 19.3 40.1 19.3 39.5 19.3 39.5 C 19 39.6 18.5 39.8 17.9 39.8 C 17.9 39.8 16.6 40 16.6 40 C 15.2 40.2 14.8 40.8 14.8 41.5 C 14.8 42.4 15.4 42.9 16.4 42.9 C 17.8 42.9 19.3 41.8 19.3 40.1 Z M 39 37.2 C 39 37.19 39 45 39 45 L 36.3 45 C 36.3 45 36.27 43.3 36.3 43.3 C 35.4 44.8 34 45.2 32.8 45.2 C 30.9 45.2 29 44.1 29 41.6 C 29 39.8 30 38.6 32.7 38.2 C 32.7 38.2 35.2 37.8 35.2 37.8 C 35.9 37.7 36.4 37.5 36.4 36.8 C 36.4 35.8 35.5 35.4 34.4 35.4 C 32.9 35.4 32.3 36.1 32.2 37.1 C 32.2 37.1 29.5 37.1 29.5 37.1 C 29.8 34.4 31.9 33.2 34.5 33.2 C 37.3 33.2 39 34.5 39 37.2 Z M 36.3 40.1 C 36.3 40.1 36.3 39.5 36.3 39.5 C 36 39.6 35.5 39.8 34.9 39.8 C 34.9 39.8 33.7 40 33.7 40 C 32.3 40.2 31.8 40.8 31.8 41.5 C 31.8 42.4 32.4 42.9 33.4 42.9 C 34.9 42.9 36.3 41.8 36.3 40.1 Z M 48.3 40 C 48.4 41.9 49.7 42.8 51.3 42.8 C 52.4 42.8 53.4 42.4 53.8 41.3 C 53.8 41.3 56.3 41.3 56.3 41.3 C 55.8 43.9 53.5 45.2 51.2 45.2 C 48.4 45.2 45.6 43.3 45.6 39.2 C 45.6 35.2 48.2 33.2 51.2 33.2 C 54 33.2 56.4 35 56.4 38.9 C 56.38 38.89 56.4 40 56.4 40 C 56.4 40 48.32 40.03 48.3 40 Z M 48.4 38 C 48.4 38 53.7 38 53.7 38 C 53.7 36.5 52.6 35.6 51.2 35.6 C 49.9 35.6 48.6 36.3 48.4 38 Z M 74.7 37.2 C 74.74 37.17 74.7 45 74.7 45 L 71.9 45 C 71.9 45 71.95 37.72 71.9 37.7 C 71.9 36.3 71.3 35.7 70.1 35.7 C 68.8 35.7 68 36.5 68 38.5 C 67.96 38.47 68 45 68 45 L 65.2 45 C 65.2 45 65.16 37.72 65.2 37.7 C 65.2 36.3 64.5 35.7 63.3 35.7 C 62 35.7 61.2 36.5 61.2 38.5 C 61.17 38.45 61.2 45 61.2 45 L 58.4 45 L 58.4 33.4 L 61.1 33.4 C 61.1 33.4 61.13 35.09 61.1 35.1 C 61.5 34.2 62.4 33.2 64.1 33.2 C 65.6 33.2 66.8 33.9 67.3 35.1 C 67.8 34.3 68.6 33.2 70.7 33.2 C 73.2 33.2 74.7 34.7 74.7 37.2 Z M 88.7 39 C 88.7 43.2 86.1 45.1 83.4 45.1 C 81.9 45.1 80.8 44.4 80.2 43.6 C 80.16 43.6 80.2 49.3 80.2 49.3 L 77.4 49.3 L 77.4 33.4 L 80.1 33.4 C 80.1 33.4 80.09 35.24 80.1 35.2 C 80.7 34 82 33.2 83.7 33.2 C 86.4 33.2 88.7 35.1 88.7 39 Z M 85.9 39.2 C 85.9 36.8 84.5 35.7 83 35.7 C 81.5 35.7 80.1 36.8 80.1 39.2 C 80.1 41.5 81.5 42.6 83 42.6 C 84.5 42.6 85.9 41.5 85.9 39.2 Z M 93.5 45 L 90.7 45 L 90.7 29 L 93.5 29 L 93.5 45 Z M 98.2 40 C 98.3 41.9 99.6 42.8 101.2 42.8 C 102.3 42.8 103.4 42.4 103.7 41.3 C 103.7 41.3 106.3 41.3 106.3 41.3 C 105.8 43.9 103.5 45.2 101.1 45.2 C 98.3 45.2 95.5 43.3 95.5 39.2 C 95.5 35.2 98.2 33.2 101.1 33.2 C 103.9 33.2 106.3 35 106.3 38.9 C 106.3 38.89 106.3 40 106.3 40 C 106.3 40 98.24 40.03 98.2 40 Z M 98.3 38 C 98.3 38 103.6 38 103.6 38 C 103.6 36.5 102.5 35.6 101.1 35.6 C 99.8 35.6 98.6 36.3 98.3 38 Z M 117.6 37.2 C 117.56 37.19 117.6 45 117.6 45 L 114.8 45 C 114.8 45 114.83 43.3 114.8 43.3 C 113.9 44.8 112.5 45.2 111.3 45.2 C 109.5 45.2 107.6 44.1 107.6 41.6 C 107.6 39.8 108.6 38.6 111.3 38.2 C 111.3 38.2 113.8 37.8 113.8 37.8 C 114.4 37.7 114.9 37.5 114.9 36.8 C 114.9 35.8 114.1 35.4 113 35.4 C 111.5 35.4 110.8 36.1 110.7 37.1 C 110.7 37.1 108 37.1 108 37.1 C 108.3 34.4 110.5 33.2 113.1 33.2 C 115.8 33.2 117.6 34.5 117.6 37.2 Z M 114.8 40.1 C 114.8 40.1 114.8 39.5 114.8 39.5 C 114.6 39.6 114 39.8 113.5 39.8 C 113.5 39.8 112.2 40 112.2 40 C 110.8 40.2 110.4 40.8 110.4 41.5 C 110.4 42.4 111 42.9 112 42.9 C 113.4 42.9 114.8 41.8 114.8 40.1 Z M 126.6 36 C 126.6 36 125.89 35.97 125.9 36 C 123.9 36 122.9 37 122.9 39.3 C 122.87 39.31 122.9 45 122.9 45 L 120.1 45 L 120.1 33.4 L 122.8 33.4 C 122.8 33.4 122.85 35.05 122.8 35 C 123.4 33.8 124.5 33.3 125.9 33.3 C 125.87 33.26 126.6 33.3 126.6 33.3 L 126.6 36 Z M 144.4 39 C 144.4 43.2 141.8 45.1 139.1 45.1 C 137.5 45.1 136.5 44.4 135.8 43.6 C 135.83 43.6 135.8 49.3 135.8 49.3 L 133 49.3 L 133 33.4 L 135.8 33.4 C 135.8 33.4 135.76 35.24 135.8 35.2 C 136.4 34 137.7 33.2 139.4 33.2 C 142.1 33.2 144.4 35.1 144.4 39 Z M 141.6 39.2 C 141.6 36.8 140.2 35.7 138.7 35.7 C 137.2 35.7 135.7 36.8 135.7 39.2 C 135.7 41.5 137.2 42.6 138.7 42.6 C 140.2 42.6 141.6 41.5 141.6 39.2 Z M 155.7 37.2 C 155.67 37.19 155.7 45 155.7 45 L 152.9 45 C 152.9 45 152.94 43.3 152.9 43.3 C 152 44.8 150.7 45.2 149.4 45.2 C 147.6 45.2 145.7 44.1 145.7 41.6 C 145.7 39.8 146.7 38.6 149.4 38.2 C 149.4 38.2 151.9 37.8 151.9 37.8 C 152.6 37.7 153 37.5 153 36.8 C 153 35.8 152.2 35.4 151.1 35.4 C 149.6 35.4 148.9 36.1 148.8 37.1 C 148.8 37.1 146.1 37.1 146.1 37.1 C 146.4 34.4 148.6 33.2 151.2 33.2 C 153.9 33.2 155.7 34.5 155.7 37.2 Z M 153 40.1 C 153 40.1 153 39.5 153 39.5 C 152.7 39.6 152.2 39.8 151.6 39.8 C 151.6 39.8 150.3 40 150.3 40 C 148.9 40.2 148.5 40.8 148.5 41.5 C 148.5 42.4 149.1 42.9 150.1 42.9 C 151.5 42.9 153 41.8 153 40.1 Z M 164.7 36 C 164.7 36 164.01 35.97 164 36 C 162.1 36 161 37 161 39.3 C 160.98 39.31 161 45 161 45 L 158.2 45 L 158.2 33.4 L 161 33.4 C 161 33.4 160.96 35.05 161 35 C 161.6 33.8 162.6 33.3 164 33.3 C 163.99 33.26 164.7 33.3 164.7 33.3 L 164.7 36 Z M 175.4 37.2 C 175.37 37.19 175.4 45 175.4 45 L 172.6 45 C 172.6 45 172.64 43.3 172.6 43.3 C 171.7 44.8 170.4 45.2 169.1 45.2 C 167.3 45.2 165.4 44.1 165.4 41.6 C 165.4 39.8 166.4 38.6 169.1 38.2 C 169.1 38.2 171.6 37.8 171.6 37.8 C 172.3 37.7 172.7 37.5 172.7 36.8 C 172.7 35.8 171.9 35.4 170.8 35.4 C 169.3 35.4 168.6 36.1 168.5 37.1 C 168.5 37.1 165.8 37.1 165.8 37.1 C 166.1 34.4 168.3 33.2 170.9 33.2 C 173.6 33.2 175.4 34.5 175.4 37.2 Z M 172.7 40.1 C 172.7 40.1 172.7 39.5 172.7 39.5 C 172.4 39.6 171.9 39.8 171.3 39.8 C 171.3 39.8 170 40 170 40 C 168.6 40.2 168.2 40.8 168.2 41.5 C 168.2 42.4 168.8 42.9 169.8 42.9 C 171.2 42.9 172.7 41.8 172.7 40.1 Z M 193.3 39.2 C 193.3 43 190.9 45.2 187.6 45.2 C 184.4 45.2 182 43 182 39.2 C 182 35.4 184.4 33.2 187.6 33.2 C 190.9 33.2 193.3 35.4 193.3 39.2 Z M 184.8 39.2 C 184.8 41.5 186.1 42.6 187.7 42.6 C 189.3 42.6 190.4 41.4 190.4 39.2 C 190.4 36.9 189.2 35.8 187.6 35.8 C 186 35.8 184.8 37 184.8 39.2 Z M 199.6 31.5 C 198.6 31.5 198.4 31.9 198.4 32.6 C 198.45 32.63 198.4 33.4 198.4 33.4 L 200.6 33.4 L 200.6 35.9 L 198.4 35.9 L 198.4 45 L 195.7 45 L 195.7 35.9 L 193.9 35.9 L 193.9 33.4 L 195.7 33.4 C 195.7 33.4 195.66 32.76 195.7 32.8 C 195.7 29.7 197 29 199.2 29 C 199.2 28.98 200.9 29 200.9 29 L 200.9 31.5 C 200.9 31.5 199.62 31.46 199.6 31.5 Z M 208.8 36 C 208.8 36 208.07 35.97 208.1 36 C 206.1 36 205 37 205 39.3 C 205.04 39.31 205 45 205 45 L 202.2 45 L 202.2 33.4 L 205 33.4 C 205 33.4 205.02 35.05 205 35 C 205.6 33.8 206.7 33.3 208 33.3 C 208.04 33.26 208.8 33.3 208.8 33.3 L 208.8 36 Z M 211.9 40 C 212 41.9 213.3 42.8 214.9 42.8 C 216 42.8 217.1 42.4 217.4 41.3 C 217.4 41.3 220 41.3 220 41.3 C 219.4 43.9 217.2 45.2 214.8 45.2 C 212 45.2 209.2 43.3 209.2 39.2 C 209.2 35.2 211.8 33.2 214.8 33.2 C 217.6 33.2 220 35 220 38.9 C 219.99 38.89 220 40 220 40 C 220 40 211.93 40.03 211.9 40 Z M 212 38 C 212 38 217.3 38 217.3 38 C 217.3 36.5 216.2 35.6 214.8 35.6 C 213.5 35.6 212.2 36.3 212 38 Z M 226.9 45.2 C 223.1 45.2 221.3 42.3 221.3 39.2 C 221.3 36.1 223.1 33.2 226.9 33.2 C 229.7 33.2 231.9 34.8 232 37.6 C 232 37.6 229.3 37.6 229.3 37.6 C 229.1 36.5 228.3 35.7 226.9 35.7 C 224.9 35.7 224.1 37.4 224.1 39.2 C 224.1 41.1 225 42.6 226.9 42.6 C 228.3 42.6 229.1 41.9 229.3 40.9 C 229.3 40.9 232 40.9 232 40.9 C 231.7 43.7 229.7 45.2 226.9 45.2 Z M 236 40 C 236.1 41.9 237.4 42.8 239 42.8 C 240.1 42.8 241.2 42.4 241.5 41.3 C 241.5 41.3 244.1 41.3 244.1 41.3 C 243.6 43.9 241.3 45.2 238.9 45.2 C 236.1 45.2 233.3 43.3 233.3 39.2 C 233.3 35.2 236 33.2 238.9 33.2 C 241.7 33.2 244.1 35 244.1 38.9 C 244.1 38.89 244.1 40 244.1 40 C 244.1 40 236.04 40.03 236 40 Z M 236.1 38 C 236.1 38 241.4 38 241.4 38 C 241.4 36.5 240.3 35.6 238.9 35.6 C 237.6 35.6 236.4 36.3 236.1 38 Z M 252.6 36 C 252.6 36 251.91 35.97 251.9 36 C 250 36 248.9 37 248.9 39.3 C 248.89 39.31 248.9 45 248.9 45 L 246.1 45 L 246.1 33.4 L 248.9 33.4 C 248.9 33.4 248.87 35.05 248.9 35 C 249.5 33.8 250.5 33.3 251.9 33.3 C 251.89 33.26 252.6 33.3 252.6 33.3 L 252.6 36 Z M 269.2 45 L 266.5 45 C 266.5 45 266.47 43.34 266.5 43.3 C 265.8 44.4 264.7 45.1 263.1 45.1 C 260.7 45.1 258.9 43.6 258.9 40.6 C 258.95 40.59 258.9 33.4 258.9 33.4 L 261.7 33.4 C 261.7 33.4 261.74 40.38 261.7 40.4 C 261.7 42 262.5 42.6 263.7 42.6 C 265.3 42.6 266.4 41.7 266.4 39 C 266.4 39 266.4 33.4 266.4 33.4 L 269.2 33.4 L 269.2 45 Z M 282.1 37.5 C 282.11 37.51 282.1 45 282.1 45 L 279.3 45 C 279.3 45 279.32 37.76 279.3 37.8 C 279.3 36.5 278.6 35.7 277.3 35.7 C 275.7 35.7 274.7 36.8 274.7 38.7 C 274.72 38.72 274.7 45 274.7 45 L 271.9 45 L 271.9 33.4 L 274.7 33.4 C 274.7 33.4 274.7 35.07 274.7 35.1 C 275.3 34 276.3 33.2 278.2 33.2 C 280.9 33.2 282.1 34.7 282.1 37.5 Z M 294 37.2 C 294 37.19 294 45 294 45 L 291.3 45 C 291.3 45 291.27 43.3 291.3 43.3 C 290.4 44.8 289 45.2 287.8 45.2 C 285.9 45.2 284 44.1 284 41.6 C 284 39.8 285 38.6 287.7 38.2 C 287.7 38.2 290.2 37.8 290.2 37.8 C 290.9 37.7 291.4 37.5 291.4 36.8 C 291.4 35.8 290.5 35.4 289.4 35.4 C 287.9 35.4 287.3 36.1 287.2 37.1 C 287.2 37.1 284.5 37.1 284.5 37.1 C 284.8 34.4 286.9 33.2 289.5 33.2 C 292.3 33.2 294 34.5 294 37.2 Z M 291.3 40.1 C 291.3 40.1 291.3 39.5 291.3 39.5 C 291 39.6 290.5 39.8 289.9 39.8 C 289.9 39.8 288.7 40 288.7 40 C 287.3 40.2 286.8 40.8 286.8 41.5 C 286.8 42.4 287.4 42.9 288.4 42.9 C 289.9 42.9 291.3 41.8 291.3 40.1 Z M 308.3 36 C 308.3 36 307.58 35.97 307.6 36 C 305.6 36 304.6 37 304.6 39.3 C 304.56 39.31 304.6 45 304.6 45 L 301.8 45 L 301.8 33.4 L 304.5 33.4 C 304.5 33.4 304.54 35.05 304.5 35 C 305.1 33.8 306.2 33.3 307.6 33.3 C 307.56 33.26 308.3 33.3 308.3 33.3 L 308.3 36 Z M 311.4 40 C 311.5 41.9 312.9 42.8 314.4 42.8 C 315.5 42.8 316.6 42.4 316.9 41.3 C 316.9 41.3 319.5 41.3 319.5 41.3 C 319 43.9 316.7 45.2 314.3 45.2 C 311.5 45.2 308.7 43.3 308.7 39.2 C 308.7 35.2 311.4 33.2 314.3 33.2 C 317.1 33.2 319.5 35 319.5 38.9 C 319.51 38.89 319.5 40 319.5 40 C 319.5 40 311.45 40.03 311.4 40 Z M 311.5 38 C 311.5 38 316.8 38 316.8 38 C 316.8 36.5 315.7 35.6 314.3 35.6 C 313 35.6 311.8 36.3 311.5 38 Z M 331.7 37.5 C 331.69 37.51 331.7 45 331.7 45 L 328.9 45 C 328.9 45 328.9 37.76 328.9 37.8 C 328.9 36.5 328.2 35.7 326.9 35.7 C 325.3 35.7 324.3 36.8 324.3 38.7 C 324.3 38.72 324.3 45 324.3 45 L 321.5 45 L 321.5 33.4 L 324.3 33.4 C 324.3 33.4 324.28 35.07 324.3 35.1 C 324.9 34 325.9 33.2 327.8 33.2 C 330.5 33.2 331.7 34.7 331.7 37.5 Z M 340.2 45 C 340.2 45 338.41 44.98 338.4 45 C 336.2 45 334.9 44.3 334.9 41.2 C 334.86 41.2 334.9 35.9 334.9 35.9 L 332.7 35.9 L 332.7 33.4 L 334.9 33.4 L 334.9 30.8 L 337.7 30 L 337.7 33.4 L 340 33.4 L 340 35.9 L 337.7 35.9 C 337.7 35.9 337.66 41.33 337.7 41.3 C 337.7 42 337.8 42.5 338.8 42.5 C 338.83 42.5 340.2 42.5 340.2 42.5 L 340.2 45 Z M 351.1 37.2 C 351.07 37.19 351.1 45 351.1 45 L 348.3 45 C 348.3 45 348.34 43.3 348.3 43.3 C 347.4 44.8 346.1 45.2 344.8 45.2 C 343 45.2 341.1 44.1 341.1 41.6 C 341.1 39.8 342.1 38.6 344.8 38.2 C 344.8 38.2 347.3 37.8 347.3 37.8 C 348 37.7 348.4 37.5 348.4 36.8 C 348.4 35.8 347.6 35.4 346.5 35.4 C 345 35.4 344.3 36.1 344.2 37.1 C 344.2 37.1 341.5 37.1 341.5 37.1 C 341.8 34.4 344 33.2 346.6 33.2 C 349.4 33.2 351.1 34.5 351.1 37.2 Z M 348.4 40.1 C 348.4 40.1 348.4 39.5 348.4 39.5 C 348.1 39.6 347.6 39.8 347 39.8 C 347 39.8 345.7 40 345.7 40 C 344.3 40.2 343.9 40.8 343.9 41.5 C 343.9 42.4 344.5 42.9 345.5 42.9 C 346.9 42.9 348.4 41.8 348.4 40.1 Z M 365 39.2 C 365 43.3 362.5 45.2 359.8 45.2 C 358.3 45.2 357 44.7 356.3 43.6 C 356.32 43.6 356.3 45 356.3 45 L 353.6 45 L 353.6 29 L 356.4 29 C 356.4 29 356.39 35.09 356.4 35.1 C 357 33.9 358.4 33.2 359.9 33.2 C 362.6 33.2 365 35.2 365 39.2 Z M 362.1 39.2 C 362.1 36.9 360.8 35.7 359.2 35.7 C 357.7 35.7 356.3 36.9 356.3 39.2 C 356.3 41.6 357.7 42.8 359.2 42.8 C 360.8 42.8 362.1 41.6 362.1 39.2 Z M 366.9 31.9 L 369.8 31.9 L 369.8 28.7 L 366.9 28.7 L 366.9 31.9 Z M 367 33.4 L 369.7 33.4 L 369.7 45 L 367 45 L 367 33.4 Z M 375.2 45 L 372.5 45 L 372.5 29 L 375.2 29 L 375.2 45 Z M 377.9 31.9 L 380.8 31.9 L 380.8 28.7 L 377.9 28.7 L 377.9 31.9 Z M 378 33.4 L 380.7 33.4 L 380.7 45 L 378 45 L 378 33.4 Z M 394.1 45 L 391.4 45 C 391.4 45 391.37 43.2 391.4 43.2 C 390.7 44.5 389.4 45.2 387.8 45.2 C 385.1 45.2 382.7 43.2 382.7 39.2 C 382.7 35.2 385.1 33.2 387.8 33.2 C 389.3 33.2 390.6 33.8 391.3 34.9 C 391.31 34.92 391.3 29 391.3 29 L 394.1 29 L 394.1 45 Z M 391.4 39.2 C 391.4 36.8 390 35.7 388.5 35.7 C 386.9 35.7 385.6 36.8 385.6 39.2 C 385.6 41.5 386.9 42.7 388.5 42.7 C 390 42.7 391.4 41.5 391.4 39.2 Z M 406.1 37.2 C 406.09 37.19 406.1 45 406.1 45 L 403.4 45 C 403.4 45 403.36 43.3 403.4 43.3 C 402.5 44.8 401.1 45.2 399.9 45.2 C 398 45.2 396.1 44.1 396.1 41.6 C 396.1 39.8 397.1 38.6 399.8 38.2 C 399.8 38.2 402.3 37.8 402.3 37.8 C 403 37.7 403.5 37.5 403.5 36.8 C 403.5 35.8 402.6 35.4 401.5 35.4 C 400 35.4 399.4 36.1 399.2 37.1 C 399.2 37.1 396.6 37.1 396.6 37.1 C 396.9 34.4 399 33.2 401.6 33.2 C 404.4 33.2 406.1 34.5 406.1 37.2 Z M 403.4 40.1 C 403.4 40.1 403.4 39.5 403.4 39.5 C 403.1 39.6 402.6 39.8 402 39.8 C 402 39.8 400.8 40 400.8 40 C 399.4 40.2 398.9 40.8 398.9 41.5 C 398.9 42.4 399.5 42.9 400.5 42.9 C 402 42.9 403.4 41.8 403.4 40.1 Z M 419.3 45 L 416.5 45 C 416.5 45 416.53 43.2 416.5 43.2 C 415.9 44.5 414.6 45.2 413 45.2 C 410.3 45.2 407.9 43.2 407.9 39.2 C 407.9 35.2 410.3 33.2 413 33.2 C 414.5 33.2 415.8 33.8 416.5 34.9 C 416.47 34.92 416.5 29 416.5 29 L 419.3 29 L 419.3 45 Z M 416.6 39.2 C 416.6 36.8 415.1 35.7 413.6 35.7 C 412.1 35.7 410.7 36.8 410.7 39.2 C 410.7 41.5 412.1 42.7 413.6 42.7 C 415.1 42.7 416.6 41.5 416.6 39.2 Z M 436.9 37.2 C 436.92 37.19 436.9 45 436.9 45 L 434.2 45 C 434.2 45 434.19 43.3 434.2 43.3 C 433.3 44.8 431.9 45.2 430.7 45.2 C 428.8 45.2 426.9 44.1 426.9 41.6 C 426.9 39.8 428 38.6 430.6 38.2 C 430.6 38.2 433.1 37.8 433.1 37.8 C 433.8 37.7 434.3 37.5 434.3 36.8 C 434.3 35.8 433.5 35.4 432.3 35.4 C 430.9 35.4 430.2 36.1 430.1 37.1 C 430.1 37.1 427.4 37.1 427.4 37.1 C 427.7 34.4 429.8 33.2 432.5 33.2 C 435.2 33.2 436.9 34.5 436.9 37.2 Z M 434.2 40.1 C 434.2 40.1 434.2 39.5 434.2 39.5 C 433.9 39.6 433.4 39.8 432.8 39.8 C 432.8 39.8 431.6 40 431.6 40 C 430.2 40.2 429.7 40.8 429.7 41.5 C 429.7 42.4 430.4 42.9 431.3 42.9 C 432.8 42.9 434.2 41.8 434.2 40.1 Z M 445.4 45 C 445.4 45 443.54 44.98 443.5 45 C 441.4 45 440 44.3 440 41.2 C 439.99 41.2 440 35.9 440 35.9 L 437.9 35.9 L 437.9 33.4 L 440 33.4 L 440 30.8 L 442.8 30 L 442.8 33.4 L 445.1 33.4 L 445.1 35.9 L 442.8 35.9 C 442.8 35.9 442.78 41.33 442.8 41.3 C 442.8 42 443 42.5 444 42.5 C 443.96 42.5 445.4 42.5 445.4 42.5 L 445.4 45 Z M 453.5 36 C 453.5 36 452.75 35.97 452.8 36 C 450.8 36 449.7 37 449.7 39.3 C 449.73 39.31 449.7 45 449.7 45 L 446.9 45 L 446.9 33.4 L 449.7 33.4 C 449.7 33.4 449.71 35.05 449.7 35 C 450.3 33.8 451.4 33.3 452.7 33.3 C 452.73 33.26 453.5 33.3 453.5 33.3 L 453.5 36 Z M 464.1 37.2 C 464.12 37.19 464.1 45 464.1 45 L 461.4 45 C 461.4 45 461.39 43.3 461.4 43.3 C 460.5 44.8 459.1 45.2 457.9 45.2 C 456 45.2 454.1 44.1 454.1 41.6 C 454.1 39.8 455.1 38.6 457.8 38.2 C 457.8 38.2 460.3 37.8 460.3 37.8 C 461 37.7 461.5 37.5 461.5 36.8 C 461.5 35.8 460.7 35.4 459.5 35.4 C 458 35.4 457.4 36.1 457.3 37.1 C 457.3 37.1 454.6 37.1 454.6 37.1 C 454.9 34.4 457 33.2 459.7 33.2 C 462.4 33.2 464.1 34.5 464.1 37.2 Z M 461.4 40.1 C 461.4 40.1 461.4 39.5 461.4 39.5 C 461.1 39.6 460.6 39.8 460 39.8 C 460 39.8 458.8 40 458.8 40 C 457.4 40.2 456.9 40.8 456.9 41.5 C 456.9 42.4 457.6 42.9 458.5 42.9 C 460 42.9 461.4 41.8 461.4 40.1 Z M 471.5 45.2 C 467.7 45.2 465.9 42.3 465.9 39.2 C 465.9 36.1 467.7 33.2 471.5 33.2 C 474.4 33.2 476.5 34.8 476.6 37.6 C 476.6 37.6 473.9 37.6 473.9 37.6 C 473.8 36.5 473 35.7 471.6 35.7 C 469.6 35.7 468.7 37.4 468.7 39.2 C 468.7 41.1 469.6 42.6 471.6 42.6 C 472.9 42.6 473.7 41.9 473.9 40.9 C 473.9 40.9 476.7 40.9 476.7 40.9 C 476.3 43.7 474.3 45.2 471.5 45.2 Z M 484.6 45 C 484.6 45 482.8 44.98 482.8 45 C 480.6 45 479.3 44.3 479.3 41.2 C 479.26 41.2 479.3 35.9 479.3 35.9 L 477.1 35.9 L 477.1 33.4 L 479.3 33.4 L 479.3 30.8 L 482 30 L 482 33.4 L 484.4 33.4 L 484.4 35.9 L 482 35.9 C 482 35.9 482.05 41.33 482 41.3 C 482 42 482.2 42.5 483.2 42.5 C 483.22 42.5 484.6 42.5 484.6 42.5 L 484.6 45 Z M 486.1 31.9 L 489.1 31.9 L 489.1 28.7 L 486.1 28.7 L 486.1 31.9 Z M 486.2 33.4 L 489 33.4 L 489 45 L 486.2 45 L 486.2 33.4 Z M 497.6 45 L 494.6 45 L 490.3 33.4 L 493.3 33.4 L 496.1 41.7 L 499 33.4 L 501.9 33.4 L 497.6 45 Z M 512.3 37.2 C 512.29 37.19 512.3 45 512.3 45 L 509.6 45 C 509.6 45 509.56 43.3 509.6 43.3 C 508.7 44.8 507.3 45.2 506.1 45.2 C 504.2 45.2 502.3 44.1 502.3 41.6 C 502.3 39.8 503.3 38.6 506 38.2 C 506 38.2 508.5 37.8 508.5 37.8 C 509.2 37.7 509.7 37.5 509.7 36.8 C 509.7 35.8 508.8 35.4 507.7 35.4 C 506.2 35.4 505.5 36.1 505.4 37.1 C 505.4 37.1 502.8 37.1 502.8 37.1 C 503 34.4 505.2 33.2 507.8 33.2 C 510.6 33.2 512.3 34.5 512.3 37.2 Z M 509.6 40.1 C 509.6 40.1 509.6 39.5 509.6 39.5 C 509.3 39.6 508.8 39.8 508.2 39.8 C 508.2 39.8 507 40 507 40 C 505.5 40.2 505.1 40.8 505.1 41.5 C 505.1 42.4 505.7 42.9 506.7 42.9 C 508.2 42.9 509.6 41.8 509.6 40.1 Z " stroke="none" fill="#000"/>  </g>  <g id="Polygon12114">    <path d="M 12.5 14 C 12.5 14 15.5 14 15.5 14 C 15.3 18.1 12.1 20.2 8.5 20.2 C 3.5 20.2 0.8 16.2 0.8 11.8 C 0.8 7.7 3.3 3.7 8.5 3.7 C 12.3 3.7 15 5.7 15.4 9.3 C 15.4 9.3 12.4 9.3 12.4 9.3 C 12.2 7.5 10.6 6.4 8.5 6.4 C 5.3 6.4 3.8 9 3.8 11.8 C 3.8 14.7 5.4 17.4 8.5 17.4 C 10.4 17.4 12.3 16.4 12.5 14 Z M 28.2 14 C 28.2 17.8 25.8 20 22.5 20 C 19.3 20 16.9 17.8 16.9 14 C 16.9 10.2 19.3 8 22.5 8 C 25.8 8 28.2 10.2 28.2 14 Z M 19.7 14 C 19.7 16.3 21 17.4 22.6 17.4 C 24.2 17.4 25.3 16.2 25.3 14 C 25.3 11.7 24 10.6 22.5 10.6 C 20.8 10.6 19.7 11.8 19.7 14 Z M 46.5 12 C 46.54 11.97 46.5 19.8 46.5 19.8 L 43.7 19.8 C 43.7 19.8 43.74 12.52 43.7 12.5 C 43.7 11.1 43.1 10.5 41.9 10.5 C 40.6 10.5 39.8 11.3 39.8 13.3 C 39.75 13.27 39.8 19.8 39.8 19.8 L 37 19.8 C 37 19.8 36.96 12.52 37 12.5 C 37 11.1 36.3 10.5 35.1 10.5 C 33.8 10.5 33 11.3 33 13.3 C 32.97 13.25 33 19.8 33 19.8 L 30.2 19.8 L 30.2 8.2 L 32.9 8.2 C 32.9 8.2 32.93 9.89 32.9 9.9 C 33.3 9 34.2 8 35.9 8 C 37.4 8 38.6 8.7 39.1 9.9 C 39.6 9.1 40.4 8 42.5 8 C 45 8 46.5 9.5 46.5 12 Z M 59.7 14 C 59.7 17.8 57.3 20 54.1 20 C 50.8 20 48.4 17.8 48.4 14 C 48.4 10.2 50.8 8 54.1 8 C 57.3 8 59.7 10.2 59.7 14 Z M 51.3 14 C 51.3 16.3 52.6 17.4 54.1 17.4 C 55.8 17.4 56.9 16.2 56.9 14 C 56.9 11.7 55.6 10.6 54.1 10.6 C 52.4 10.6 51.3 11.8 51.3 14 Z M 77 19 C 77 22.7 74.6 24.4 71.5 24.4 C 68.7 24.4 66.3 23 66 20.1 C 66 20.1 68.7 20.1 68.7 20.1 C 69 21.6 70.2 22 71.5 22 C 73.3 22 74.3 21.1 74.3 19.3 C 74.3 19.3 74.3 17.4 74.3 17.4 C 73.8 18.6 72.7 19.4 70.9 19.4 C 68.3 19.4 65.8 17.6 65.8 13.7 C 65.8 9.8 68.3 8 70.9 8 C 72.6 8 73.7 8.7 74.3 9.8 C 74.32 9.81 74.3 8.2 74.3 8.2 L 77 8.2 C 77 8.2 77.01 19 77 19 Z M 74.2 13.7 C 74.2 11.5 73 10.4 71.5 10.4 C 70 10.4 68.6 11.5 68.6 13.7 C 68.6 15.9 70 16.9 71.5 16.9 C 73 16.9 74.2 15.9 74.2 13.7 Z M 81.6 14.8 C 81.7 16.7 83 17.6 84.6 17.6 C 85.7 17.6 86.7 17.2 87.1 16.1 C 87.1 16.1 89.6 16.1 89.6 16.1 C 89.1 18.7 86.8 20 84.5 20 C 81.7 20 78.9 18.1 78.9 14 C 78.9 10 81.5 8 84.5 8 C 87.3 8 89.7 9.8 89.7 13.7 C 89.67 13.69 89.7 14.8 89.7 14.8 C 89.7 14.8 81.61 14.83 81.6 14.8 Z M 81.7 12.8 C 81.7 12.8 86.9 12.8 86.9 12.8 C 86.9 11.3 85.9 10.4 84.4 10.4 C 83.2 10.4 81.9 11.1 81.7 12.8 Z M 100.9 16.2 C 100.9 18.8 98.6 20 96 20 C 93.6 20 91 19 90.8 16.1 C 90.8 16.1 93.6 16.1 93.6 16.1 C 93.8 17.2 94.9 17.7 96.2 17.7 C 97.3 17.7 98.2 17.3 98.2 16.5 C 98.2 15.7 97.6 15.6 96 15.3 C 93.8 14.9 91.2 14.5 91.2 11.7 C 91.2 9.1 93.4 8 95.8 8 C 98.5 8 100.5 9.3 100.7 11.9 C 100.7 11.9 97.9 11.9 97.9 11.9 C 97.8 10.8 97 10.3 95.8 10.3 C 94.4 10.3 93.9 10.9 93.9 11.6 C 93.9 12.5 94.9 12.7 96.3 12.9 C 98.4 13.2 100.9 13.5 100.9 16.2 Z M 108.7 19.8 C 108.7 19.8 106.91 19.78 106.9 19.8 C 104.7 19.8 103.4 19.1 103.4 16 C 103.36 16 103.4 10.7 103.4 10.7 L 101.2 10.7 L 101.2 8.2 L 103.4 8.2 L 103.4 5.6 L 106.2 4.8 L 106.2 8.2 L 108.5 8.2 L 108.5 10.7 L 106.2 10.7 C 106.2 10.7 106.15 16.13 106.2 16.1 C 106.2 16.8 106.3 17.3 107.3 17.3 C 107.33 17.3 108.7 17.3 108.7 17.3 L 108.7 19.8 Z M 120.9 14 C 120.9 17.8 118.5 20 115.2 20 C 112 20 109.6 17.8 109.6 14 C 109.6 10.2 112 8 115.2 8 C 118.5 8 120.9 10.2 120.9 14 Z M 112.4 14 C 112.4 16.3 113.7 17.4 115.3 17.4 C 116.9 17.4 118 16.2 118 14 C 118 11.7 116.8 10.6 115.2 10.6 C 113.5 10.6 112.4 11.8 112.4 14 Z M 129.4 10.8 C 129.4 10.8 128.71 10.77 128.7 10.8 C 126.8 10.8 125.7 11.8 125.7 14.1 C 125.68 14.11 125.7 19.8 125.7 19.8 L 122.9 19.8 L 122.9 8.2 L 125.7 8.2 C 125.7 8.2 125.66 9.85 125.7 9.8 C 126.3 8.6 127.3 8.1 128.7 8.1 C 128.69 8.06 129.4 8.1 129.4 8.1 L 129.4 10.8 Z M 145.1 12 C 145.11 11.99 145.1 19.8 145.1 19.8 L 142.4 19.8 C 142.4 19.8 142.38 18.1 142.4 18.1 C 141.5 19.6 140.1 20 138.9 20 C 137 20 135.1 18.9 135.1 16.4 C 135.1 14.6 136.1 13.4 138.8 13 C 138.8 13 141.3 12.6 141.3 12.6 C 142 12.5 142.5 12.3 142.5 11.6 C 142.5 10.6 141.6 10.2 140.5 10.2 C 139 10.2 138.4 10.9 138.3 11.9 C 138.3 11.9 135.6 11.9 135.6 11.9 C 135.9 9.2 138 8 140.7 8 C 143.4 8 145.1 9.3 145.1 12 Z M 142.4 14.9 C 142.4 14.9 142.4 14.3 142.4 14.3 C 142.1 14.4 141.6 14.6 141 14.6 C 141 14.6 139.8 14.8 139.8 14.8 C 138.4 15 137.9 15.6 137.9 16.3 C 137.9 17.2 138.6 17.7 139.5 17.7 C 141 17.7 142.4 16.6 142.4 14.9 Z M 152.5 20 C 148.7 20 146.9 17.1 146.9 14 C 146.9 10.9 148.7 8 152.5 8 C 155.4 8 157.5 9.6 157.6 12.4 C 157.6 12.4 154.9 12.4 154.9 12.4 C 154.7 11.3 153.9 10.5 152.6 10.5 C 150.5 10.5 149.7 12.2 149.7 14 C 149.7 15.9 150.6 17.4 152.6 17.4 C 153.9 17.4 154.7 16.7 154.9 15.7 C 154.9 15.7 157.7 15.7 157.7 15.7 C 157.3 18.5 155.3 20 152.5 20 Z M 165.6 19.8 C 165.6 19.8 163.8 19.78 163.8 19.8 C 161.6 19.8 160.2 19.1 160.2 16 C 160.25 16 160.2 10.7 160.2 10.7 L 158.1 10.7 L 158.1 8.2 L 160.2 8.2 L 160.2 5.6 L 163 4.8 L 163 8.2 L 165.4 8.2 L 165.4 10.7 L 163 10.7 C 163 10.7 163.04 16.13 163 16.1 C 163 16.8 163.2 17.3 164.2 17.3 C 164.22 17.3 165.6 17.3 165.6 17.3 L 165.6 19.8 Z M 167.1 6.7 L 170.1 6.7 L 170.1 3.5 L 167.1 3.5 L 167.1 6.7 Z M 167.2 8.2 L 170 8.2 L 170 19.8 L 167.2 19.8 L 167.2 8.2 Z M 178.6 19.8 L 175.6 19.8 L 171.3 8.2 L 174.3 8.2 L 177.1 16.5 L 180 8.2 L 182.9 8.2 L 178.6 19.8 Z M 194.6 14 C 194.6 17.8 192.2 20 188.9 20 C 185.7 20 183.3 17.8 183.3 14 C 183.3 10.2 185.7 8 188.9 8 C 192.2 8 194.6 10.2 194.6 14 Z M 186.1 14 C 186.1 16.3 187.4 17.4 189 17.4 C 190.6 17.4 191.7 16.2 191.7 14 C 191.7 11.7 190.5 10.6 188.9 10.6 C 187.3 10.6 186.1 11.8 186.1 14 Z M 198.1 19.6 C 198.09 19.59 196.7 19.6 196.7 19.6 L 196.7 16.7 L 199.9 16.7 C 199.9 16.7 199.88 19.19 199.9 19.2 C 199.9 22.2 197.8 23.3 195.9 23.5 C 195.9 23.5 195.7 22 195.7 22 C 197.2 21.8 198.1 20.9 198.1 19.6 Z M 213.4 12.2 L 210.3 12.2 L 210.3 8.9 L 213.4 8.9 L 213.4 12.2 Z M 213.2 14.6 C 213.2 17.2 211.8 17.7 210.6 18.6 C 209.6 19.3 209.1 19.9 209.1 20.7 C 209.1 21.9 210 22.5 211.2 22.5 C 212.6 22.5 213.5 21.7 213.6 20.3 C 213.6 20.3 216.5 20.3 216.5 20.3 C 216.2 23.7 213.7 24.9 211.1 24.9 C 208.4 24.9 206.2 23.6 206.2 20.8 C 206.2 18.6 207.5 17.7 208.9 16.7 C 210 15.9 210.5 15.4 210.5 14.5 C 210.5 14.47 210.5 13.8 210.5 13.8 L 213.2 13.8 C 213.2 13.8 213.17 14.55 213.2 14.6 Z M 228.9 8.2 L 228.9 24.1 L 226.1 24.1 C 226.1 24.1 226.11 18.06 226.1 18.1 C 225.4 19.2 224.3 19.9 222.7 19.9 C 220 19.9 217.5 18 217.5 13.9 C 217.5 9.9 219.8 8 222.6 8 C 224.1 8 225.5 8.6 226.2 9.8 C 226.17 9.83 226.2 8.2 226.2 8.2 L 228.9 8.2 Z M 226.2 13.9 C 226.2 11.5 224.8 10.5 223.2 10.5 C 221.7 10.5 220.4 11.5 220.4 13.9 C 220.4 16.2 221.7 17.3 223.2 17.3 C 224.8 17.3 226.2 16.3 226.2 13.9 Z M 241.7 19.8 L 238.9 19.8 C 238.9 19.8 238.94 18.14 238.9 18.1 C 238.3 19.2 237.2 19.9 235.6 19.9 C 233.2 19.9 231.4 18.4 231.4 15.4 C 231.42 15.39 231.4 8.2 231.4 8.2 L 234.2 8.2 C 234.2 8.2 234.21 15.18 234.2 15.2 C 234.2 16.8 235 17.4 236.2 17.4 C 237.7 17.4 238.9 16.5 238.9 13.8 C 238.87 13.8 238.9 8.2 238.9 8.2 L 241.7 8.2 L 241.7 19.8 Z M 248 6.1 L 251.2 1.1 L 253.4 2.8 L 250.4 6.1 L 248 6.1 Z M 246.4 14.8 C 246.4 16.7 247.8 17.6 249.4 17.6 C 250.4 17.6 251.5 17.2 251.8 16.1 C 251.8 16.1 254.4 16.1 254.4 16.1 C 253.9 18.7 251.6 20 249.2 20 C 246.4 20 243.7 18.1 243.7 14 C 243.7 10 246.3 8 249.2 8 C 252.1 8 254.4 9.8 254.4 13.7 C 254.43 13.69 254.4 14.8 254.4 14.8 C 254.4 14.8 246.37 14.83 246.4 14.8 Z M 246.4 12.8 C 246.4 12.8 251.7 12.8 251.7 12.8 C 251.7 11.3 250.6 10.4 249.2 10.4 C 247.9 10.4 246.7 11.1 246.4 12.8 Z M 267.4 19.8 C 267.4 19.8 265.56 19.78 265.6 19.8 C 263.4 19.8 262 19.1 262 16 C 262.01 16 262 10.7 262 10.7 L 259.9 10.7 L 259.9 8.2 L 262 8.2 L 262 5.6 L 264.8 4.8 L 264.8 8.2 L 267.1 8.2 L 267.1 10.7 L 264.8 10.7 C 264.8 10.7 264.81 16.13 264.8 16.1 C 264.8 16.8 265 17.3 266 17.3 C 265.98 17.3 267.4 17.3 267.4 17.3 L 267.4 19.8 Z M 268.9 6.7 L 271.8 6.7 L 271.8 3.5 L 268.9 3.5 L 268.9 6.7 Z M 268.9 8.2 L 271.7 8.2 L 271.7 19.8 L 268.9 19.8 L 268.9 8.2 Z M 285.8 13.8 C 285.8 18 283.2 19.9 280.5 19.9 C 279 19.9 277.9 19.2 277.2 18.4 C 277.24 18.4 277.2 24.1 277.2 24.1 L 274.4 24.1 L 274.4 8.2 L 277.2 8.2 C 277.2 8.2 277.18 10.04 277.2 10 C 277.8 8.8 279.1 8 280.8 8 C 283.5 8 285.8 9.9 285.8 13.8 Z M 283 14 C 283 11.6 281.6 10.5 280.1 10.5 C 278.6 10.5 277.2 11.6 277.2 14 C 277.2 16.3 278.6 17.4 280.1 17.4 C 281.6 17.4 283 16.3 283 14 Z M 298.4 14 C 298.4 17.8 296 20 292.7 20 C 289.5 20 287.1 17.8 287.1 14 C 287.1 10.2 289.5 8 292.7 8 C 296 8 298.4 10.2 298.4 14 Z M 289.9 14 C 289.9 16.3 291.2 17.4 292.8 17.4 C 294.4 17.4 295.6 16.2 295.6 14 C 295.6 11.7 294.3 10.6 292.7 10.6 C 291.1 10.6 289.9 11.8 289.9 14 Z M 315.9 19.8 L 313.1 19.8 C 313.1 19.8 313.15 18 313.1 18 C 312.5 19.3 311.2 20 309.6 20 C 306.9 20 304.5 18 304.5 14 C 304.5 10 306.9 8 309.6 8 C 311.1 8 312.4 8.6 313.1 9.7 C 313.09 9.72 313.1 3.8 313.1 3.8 L 315.9 3.8 L 315.9 19.8 Z M 313.2 14 C 313.2 11.6 311.7 10.5 310.2 10.5 C 308.7 10.5 307.3 11.6 307.3 14 C 307.3 16.3 308.7 17.5 310.2 17.5 C 311.7 17.5 313.2 16.3 313.2 14 Z M 320.6 14.8 C 320.6 16.7 322 17.6 323.6 17.6 C 324.7 17.6 325.7 17.2 326 16.1 C 326 16.1 328.6 16.1 328.6 16.1 C 328.1 18.7 325.8 20 323.4 20 C 320.6 20 317.9 18.1 317.9 14 C 317.9 10 320.5 8 323.5 8 C 326.3 8 328.6 9.8 328.6 13.7 C 328.65 13.69 328.6 14.8 328.6 14.8 C 328.6 14.8 320.58 14.83 320.6 14.8 Z M 320.6 12.8 C 320.6 12.8 325.9 12.8 325.9 12.8 C 325.9 11.3 324.8 10.4 323.4 10.4 C 322.1 10.4 320.9 11.1 320.6 12.8 Z M 345.2 12 C 345.15 11.99 345.2 19.8 345.2 19.8 L 342.4 19.8 C 342.4 19.8 342.42 18.1 342.4 18.1 C 341.5 19.6 340.1 20 338.9 20 C 337.1 20 335.2 18.9 335.2 16.4 C 335.2 14.6 336.2 13.4 338.9 13 C 338.9 13 341.4 12.6 341.4 12.6 C 342 12.5 342.5 12.3 342.5 11.6 C 342.5 10.6 341.7 10.2 340.6 10.2 C 339.1 10.2 338.4 10.9 338.3 11.9 C 338.3 11.9 335.6 11.9 335.6 11.9 C 335.9 9.2 338.1 8 340.7 8 C 343.4 8 345.2 9.3 345.2 12 Z M 342.4 14.9 C 342.4 14.9 342.4 14.3 342.4 14.3 C 342.2 14.4 341.6 14.6 341.1 14.6 C 341.1 14.6 339.8 14.8 339.8 14.8 C 338.4 15 338 15.6 338 16.3 C 338 17.2 338.6 17.7 339.6 17.7 C 341 17.7 342.4 16.6 342.4 14.9 Z M 359.1 13.8 C 359.1 18 356.5 19.9 353.7 19.9 C 352.2 19.9 351.1 19.2 350.5 18.4 C 350.47 18.4 350.5 24.1 350.5 24.1 L 347.7 24.1 L 347.7 8.2 L 350.4 8.2 C 350.4 8.2 350.4 10.04 350.4 10 C 351 8.8 352.3 8 354 8 C 356.7 8 359.1 9.9 359.1 13.8 Z M 356.2 14 C 356.2 11.6 354.8 10.5 353.3 10.5 C 351.8 10.5 350.4 11.6 350.4 14 C 350.4 16.3 351.8 17.4 353.3 17.4 C 354.8 17.4 356.2 16.3 356.2 14 Z M 370.3 12 C 370.31 11.99 370.3 19.8 370.3 19.8 L 367.6 19.8 C 367.6 19.8 367.58 18.1 367.6 18.1 C 366.7 19.6 365.3 20 364.1 20 C 362.2 20 360.3 18.9 360.3 16.4 C 360.3 14.6 361.3 13.4 364 13 C 364 13 366.5 12.6 366.5 12.6 C 367.2 12.5 367.7 12.3 367.7 11.6 C 367.7 10.6 366.8 10.2 365.7 10.2 C 364.2 10.2 363.6 10.9 363.5 11.9 C 363.5 11.9 360.8 11.9 360.8 11.9 C 361.1 9.2 363.2 8 365.9 8 C 368.6 8 370.3 9.3 370.3 12 Z M 367.6 14.9 C 367.6 14.9 367.6 14.3 367.6 14.3 C 367.3 14.4 366.8 14.6 366.2 14.6 C 366.2 14.6 365 14.8 365 14.8 C 363.6 15 363.1 15.6 363.1 16.3 C 363.1 17.2 363.8 17.7 364.7 17.7 C 366.2 17.7 367.6 16.6 367.6 14.9 Z M 375.6 19.8 L 372.8 19.8 L 372.8 3.8 L 375.6 3.8 L 375.6 19.8 Z M 387.6 12 C 387.61 11.99 387.6 19.8 387.6 19.8 L 384.9 19.8 C 384.9 19.8 384.88 18.1 384.9 18.1 C 384 19.6 382.6 20 381.4 20 C 379.5 20 377.6 18.9 377.6 16.4 C 377.6 14.6 378.6 13.4 381.3 13 C 381.3 13 383.8 12.6 383.8 12.6 C 384.5 12.5 385 12.3 385 11.6 C 385 10.6 384.1 10.2 383 10.2 C 381.5 10.2 380.9 10.9 380.8 11.9 C 380.8 11.9 378.1 11.9 378.1 11.9 C 378.4 9.2 380.5 8 383.2 8 C 385.9 8 387.6 9.3 387.6 12 Z M 384.9 14.9 C 384.9 14.9 384.9 14.3 384.9 14.3 C 384.6 14.4 384.1 14.6 383.5 14.6 C 383.5 14.6 382.3 14.8 382.3 14.8 C 380.9 15 380.4 15.6 380.4 16.3 C 380.4 17.2 381.1 17.7 382 17.7 C 383.5 17.7 384.9 16.6 384.9 14.9 Z M 400.3 12.3 C 400.32 12.31 400.3 19.8 400.3 19.8 L 397.5 19.8 C 397.5 19.8 397.53 12.56 397.5 12.6 C 397.5 11.3 396.8 10.5 395.5 10.5 C 393.9 10.5 392.9 11.6 392.9 13.5 C 392.93 13.52 392.9 19.8 392.9 19.8 L 390.1 19.8 L 390.1 8.2 L 392.9 8.2 C 392.9 8.2 392.91 9.87 392.9 9.9 C 393.6 8.8 394.5 8 396.4 8 C 399.1 8 400.3 9.5 400.3 12.3 Z M 407.8 20 C 404 20 402.2 17.1 402.2 14 C 402.2 10.9 404 8 407.8 8 C 410.7 8 412.8 9.6 412.9 12.4 C 412.9 12.4 410.2 12.4 410.2 12.4 C 410.1 11.3 409.3 10.5 407.9 10.5 C 405.9 10.5 405 12.2 405 14 C 405 15.9 405.9 17.4 407.9 17.4 C 409.2 17.4 410 16.7 410.2 15.7 C 410.2 15.7 413 15.7 413 15.7 C 412.6 18.5 410.6 20 407.8 20 Z M 424.3 12 C 424.28 11.99 424.3 19.8 424.3 19.8 L 421.5 19.8 C 421.5 19.8 421.55 18.1 421.5 18.1 C 420.6 19.6 419.3 20 418 20 C 416.2 20 414.3 18.9 414.3 16.4 C 414.3 14.6 415.3 13.4 418 13 C 418 13 420.5 12.6 420.5 12.6 C 421.2 12.5 421.7 12.3 421.7 11.6 C 421.7 10.6 420.8 10.2 419.7 10.2 C 418.2 10.2 417.5 10.9 417.4 11.9 C 417.4 11.9 414.7 11.9 414.7 11.9 C 415 9.2 417.2 8 419.8 8 C 422.6 8 424.3 9.3 424.3 12 Z M 421.6 14.9 C 421.6 14.9 421.6 14.3 421.6 14.3 C 421.3 14.4 420.8 14.6 420.2 14.6 C 420.2 14.6 418.9 14.8 418.9 14.8 C 417.5 15 417.1 15.6 417.1 16.3 C 417.1 17.2 417.7 17.7 418.7 17.7 C 420.1 17.7 421.6 16.6 421.6 14.9 Z M 443.2 12 C 443.16 11.97 443.2 19.8 443.2 19.8 L 440.4 19.8 C 440.4 19.8 440.37 12.52 440.4 12.5 C 440.4 11.1 439.7 10.5 438.6 10.5 C 437.2 10.5 436.4 11.3 436.4 13.3 C 436.38 13.27 436.4 19.8 436.4 19.8 L 433.6 19.8 C 433.6 19.8 433.58 12.52 433.6 12.5 C 433.6 11.1 432.9 10.5 431.8 10.5 C 430.5 10.5 429.6 11.3 429.6 13.3 C 429.59 13.25 429.6 19.8 429.6 19.8 L 426.8 19.8 L 426.8 8.2 L 429.6 8.2 C 429.6 8.2 429.55 9.89 429.6 9.9 C 429.9 9 430.8 8 432.6 8 C 434 8 435.2 8.7 435.7 9.9 C 436.2 9.1 437 8 439.1 8 C 441.6 8 443.2 9.5 443.2 12 Z M 445.7 6.7 L 448.6 6.7 L 448.6 3.5 L 445.7 3.5 L 445.7 6.7 Z M 445.8 8.2 L 448.6 8.2 L 448.6 19.8 L 445.8 19.8 L 445.8 8.2 Z M 453.2 14.8 C 453.3 16.7 454.6 17.6 456.2 17.6 C 457.3 17.6 458.4 17.2 458.7 16.1 C 458.7 16.1 461.3 16.1 461.3 16.1 C 460.8 18.7 458.5 20 456.1 20 C 453.3 20 450.5 18.1 450.5 14 C 450.5 10 453.2 8 456.1 8 C 458.9 8 461.3 9.8 461.3 13.7 C 461.3 13.69 461.3 14.8 461.3 14.8 C 461.3 14.8 453.24 14.83 453.2 14.8 Z M 453.3 12.8 C 453.3 12.8 458.6 12.8 458.6 12.8 C 458.6 11.3 457.5 10.4 456.1 10.4 C 454.8 10.4 453.6 11.1 453.3 12.8 Z M 473.5 12.3 C 473.48 12.31 473.5 19.8 473.5 19.8 L 470.7 19.8 C 470.7 19.8 470.69 12.56 470.7 12.6 C 470.7 11.3 470 10.5 468.7 10.5 C 467.1 10.5 466.1 11.6 466.1 13.5 C 466.09 13.52 466.1 19.8 466.1 19.8 L 463.3 19.8 L 463.3 8.2 L 466.1 8.2 C 466.1 8.2 466.07 9.87 466.1 9.9 C 466.7 8.8 467.7 8 469.6 8 C 472.2 8 473.5 9.5 473.5 12.3 Z M 482 19.8 C 482 19.8 480.2 19.78 480.2 19.8 C 478 19.8 476.7 19.1 476.7 16 C 476.65 16 476.7 10.7 476.7 10.7 L 474.5 10.7 L 474.5 8.2 L 476.7 8.2 L 476.7 5.6 L 479.4 4.8 L 479.4 8.2 L 481.8 8.2 L 481.8 10.7 L 479.4 10.7 C 479.4 10.7 479.45 16.13 479.4 16.1 C 479.4 16.8 479.6 17.3 480.6 17.3 C 480.62 17.3 482 17.3 482 17.3 L 482 19.8 Z M 494.2 14 C 494.2 17.8 491.8 20 488.5 20 C 485.3 20 482.9 17.8 482.9 14 C 482.9 10.2 485.3 8 488.5 8 C 491.8 8 494.2 10.2 494.2 14 Z M 485.7 14 C 485.7 16.3 487 17.4 488.6 17.4 C 490.2 17.4 491.3 16.2 491.3 14 C 491.3 11.7 490.1 10.6 488.5 10.6 C 486.8 10.6 485.7 11.8 485.7 14 Z " stroke="none" fill="#000"/>  </g></svg>