<?xml version="1.0" standalone="no"?><!DOCTYPE svg PUBLIC "-//W3C//DTD SVG 1.1//EN" "http://www.w3.org/Graphics/SVG/1.1/DTD/svg11.dtd"><svg xmlns="http://www.w3.org/2000/svg" version="1.1" width="418px" height="343.4px" viewBox="0 -4 418 343.4" style="top:-4px">  <desc>With interest rates so low (and even negative), what role does Fixed Income have in a portfolio Mark Holman: Fixed I</desc>  <defs/>  <g id="Polygon9474">    <path d="M 3.7 251.4 L 2.1 251.4 L 2.1 235.6 L 12 235.6 L 12 237 L 3.7 237 L 3.7 242.7 L 11.5 242.7 L 11.5 244.1 L 3.7 244.1 L 3.7 251.4 Z M 13.2 245.8 C 13.2 242.1 15.5 239.9 18.6 239.9 C 21.7 239.9 23.9 242.1 23.9 245.8 C 23.9 249.4 21.7 251.6 18.6 251.6 C 15.5 251.6 13.2 249.4 13.2 245.8 Z M 22.3 245.7 C 22.3 242.9 20.6 241.3 18.5 241.3 C 16.3 241.3 14.8 243 14.8 245.8 C 14.8 248.6 16.5 250.2 18.6 250.2 C 20.8 250.2 22.3 248.5 22.3 245.7 Z M 32.2 241.4 C 32.2 241.4 31.81 241.43 31.8 241.4 C 29.4 241.4 28.1 242.8 28.1 245.4 C 28.07 245.4 28.1 251.4 28.1 251.4 L 26.5 251.4 L 26.5 240.1 L 28.1 240.1 C 28.1 240.1 28.05 242.18 28.1 242.2 C 28.6 240.7 29.9 240 31.7 240 C 31.68 239.98 32.2 240 32.2 240 L 32.2 241.4 Z M 39.6 246.1 C 39.6 248.9 41.3 250.2 43.3 250.2 C 44.8 250.2 46.3 249.5 46.6 247.9 C 46.6 247.9 48.1 247.9 48.1 247.9 C 47.6 250.5 45.4 251.6 43.2 251.6 C 40.5 251.6 38 249.8 38 245.8 C 38 241.7 40.6 239.9 43.3 239.9 C 46 239.9 48.1 241.6 48.1 245.4 C 48.15 245.35 48.1 246.1 48.1 246.1 C 48.1 246.1 39.56 246.11 39.6 246.1 Z M 39.6 244.8 C 39.6 244.8 46.6 244.8 46.6 244.8 C 46.6 242.5 45.1 241.3 43.2 241.3 C 41.5 241.3 39.8 242.4 39.6 244.8 Z M 53.8 245.6 L 49.6 240.1 L 51.6 240.1 L 54.7 244.5 L 57.9 240.1 L 59.7 240.1 L 55.7 245.5 L 60.1 251.4 L 58.1 251.4 L 54.7 246.7 L 51.3 251.4 L 49.4 251.4 L 53.8 245.6 Z M 69.2 249.3 C 68.3 251 66.6 251.6 65.2 251.6 C 63.2 251.6 61.5 250.5 61.5 248.3 C 61.5 246.2 63 245.2 64.9 245 C 64.9 245 67.6 244.6 67.6 244.6 C 68.5 244.5 69.2 244.2 69.2 243.2 C 69.2 241.9 68 241.2 66.5 241.2 C 64.8 241.2 63.7 242 63.5 243.3 C 63.5 243.3 62 243.3 62 243.3 C 62.3 241 64.1 239.9 66.6 239.9 C 69.1 239.9 70.7 241.1 70.7 243.6 C 70.68 243.59 70.7 251.4 70.7 251.4 L 69.2 251.4 C 69.2 251.4 69.19 249.32 69.2 249.3 Z M 67.3 245.9 C 67.3 245.9 65.6 246.1 65.6 246.1 C 64.2 246.3 63.1 246.8 63.1 248.2 C 63.1 249.6 64.2 250.2 65.4 250.2 C 67.2 250.2 69.1 248.9 69.1 246.5 C 69.1 246.5 69.1 245.4 69.1 245.4 C 68.7 245.7 68.1 245.8 67.3 245.9 Z M 73.8 240.1 L 75.3 240.1 C 75.3 240.1 75.34 241.97 75.3 242 C 76 240.6 77.2 239.9 78.6 239.9 C 80.3 239.9 81.6 240.8 82 242.2 C 82.5 241 83.7 239.9 85.7 239.9 C 87.7 239.9 89.3 241 89.3 243.3 C 89.31 243.3 89.3 251.4 89.3 251.4 L 87.8 251.4 C 87.8 251.4 87.78 243.84 87.8 243.8 C 87.8 242.1 86.7 241.3 85.4 241.3 C 83.7 241.3 82.3 242.6 82.3 244.9 C 82.32 244.93 82.3 251.4 82.3 251.4 L 80.8 251.4 C 80.8 251.4 80.8 243.84 80.8 243.8 C 80.8 242.1 79.8 241.3 78.4 241.3 C 76.8 241.3 75.4 242.5 75.4 244.9 C 75.36 244.93 75.4 251.4 75.4 251.4 L 73.8 251.4 L 73.8 240.1 Z M 103.1 245.7 C 103.1 249.8 100.5 251.5 97.9 251.5 C 96 251.5 94.7 250.6 94.1 249.4 C 94.1 249.43 94.1 255.7 94.1 255.7 L 92.6 255.7 L 92.6 240.1 L 94.1 240.1 C 94.1 240.1 94.05 242.48 94.1 242.5 C 94.6 241.1 96 239.9 98.1 239.9 C 100.5 239.9 103.1 241.6 103.1 245.7 Z M 101.5 245.7 C 101.5 242.6 99.7 241.4 97.9 241.4 C 96 241.4 94.1 242.6 94.1 245.8 C 94.1 248.9 95.9 250.1 97.8 250.1 C 99.7 250.1 101.5 248.9 101.5 245.7 Z M 107.2 251.4 L 105.7 251.4 L 105.7 235.4 L 107.2 235.4 L 107.2 251.4 Z M 111.4 246.1 C 111.4 248.9 113.1 250.2 115.1 250.2 C 116.6 250.2 118.1 249.5 118.4 247.9 C 118.4 247.9 119.9 247.9 119.9 247.9 C 119.4 250.5 117.2 251.6 115.1 251.6 C 112.4 251.6 109.9 249.8 109.9 245.8 C 109.9 241.7 112.4 239.9 115.1 239.9 C 117.8 239.9 120 241.6 120 245.4 C 119.97 245.35 120 246.1 120 246.1 C 120 246.1 111.38 246.11 111.4 246.1 Z M 111.4 244.8 C 111.4 244.8 118.4 244.8 118.4 244.8 C 118.4 242.5 116.9 241.3 115.1 241.3 C 113.3 241.3 111.6 242.4 111.4 244.8 Z M 123.7 251.3 C 123.68 251.26 122.7 251.3 122.7 251.3 L 122.7 249.2 L 124.9 249.2 C 124.9 249.2 124.9 251.32 124.9 251.3 C 124.9 253.8 123.4 254.7 121.9 254.8 C 121.9 254.8 121.6 253.9 121.6 253.9 C 123.3 253.6 123.7 252.6 123.7 251.3 Z M 134.2 235.4 L 132.5 235.4 L 132.5 237.3 L 134.2 237.3 L 134.2 235.4 Z M 134.1 251.4 L 132.6 251.4 L 132.6 240.1 L 134.1 240.1 L 134.1 251.4 Z M 142.6 251.4 C 142.6 251.4 140.95 251.38 140.9 251.4 C 139.5 251.4 138.1 250.9 138.1 248.4 C 138.11 248.42 138.1 241.5 138.1 241.5 L 135.9 241.5 L 135.9 240.1 L 138.1 240.1 L 138.1 236.9 L 139.6 236.5 L 139.6 240.1 L 142.4 240.1 L 142.4 241.5 L 139.6 241.5 C 139.6 241.5 139.64 248.4 139.6 248.4 C 139.6 249.4 139.9 250 141.2 250 C 141.2 250 142.6 250 142.6 250 L 142.6 251.4 Z M 154.3 251.6 C 151.2 251.6 149.1 249.3 149.1 245.8 C 149.1 242.2 151.2 239.9 154.5 239.9 C 157 239.9 159 241.3 159.1 243.8 C 159.1 243.8 157.6 243.8 157.6 243.8 C 157.5 242.2 156.1 241.3 154.4 241.3 C 152.2 241.3 150.7 243 150.7 245.7 C 150.7 248.5 152.2 250.2 154.4 250.2 C 156.1 250.2 157.5 249.2 157.6 247.4 C 157.6 247.4 159.1 247.4 159.1 247.4 C 159 250.1 156.8 251.6 154.3 251.6 Z M 168.7 249.3 C 167.8 251 166.1 251.6 164.7 251.6 C 162.7 251.6 161 250.5 161 248.3 C 161 246.2 162.5 245.2 164.4 245 C 164.4 245 167.1 244.6 167.1 244.6 C 168 244.5 168.7 244.2 168.7 243.2 C 168.7 241.9 167.5 241.2 166 241.2 C 164.3 241.2 163.2 242 163 243.3 C 163 243.3 161.5 243.3 161.5 243.3 C 161.8 241 163.6 239.9 166.1 239.9 C 168.6 239.9 170.2 241.1 170.2 243.6 C 170.18 243.59 170.2 251.4 170.2 251.4 L 168.7 251.4 C 168.7 251.4 168.69 249.32 168.7 249.3 Z M 166.8 245.9 C 166.8 245.9 165.1 246.1 165.1 246.1 C 163.7 246.3 162.6 246.8 162.6 248.2 C 162.6 249.6 163.7 250.2 164.9 250.2 C 166.7 250.2 168.6 248.9 168.6 246.5 C 168.6 246.5 168.6 245.4 168.6 245.4 C 168.2 245.7 167.6 245.8 166.8 245.9 Z M 182.5 243.7 C 182.48 243.65 182.5 251.4 182.5 251.4 L 181 251.4 C 181 251.4 180.95 243.84 181 243.8 C 181 242.3 180.1 241.3 178.5 241.3 C 176.5 241.3 174.9 242.7 174.9 245.5 C 174.86 245.46 174.9 251.4 174.9 251.4 L 173.3 251.4 L 173.3 240.1 L 174.9 240.1 C 174.9 240.1 174.86 242.2 174.9 242.2 C 175.5 240.9 176.8 239.9 178.8 239.9 C 181 239.9 182.5 241.2 182.5 243.7 Z M 185.4 240.3 L 187.6 240.3 L 187.6 242.5 L 185.4 242.5 L 185.4 240.3 Z M 185.4 249.2 L 187.6 249.2 L 187.6 251.4 L 185.4 251.4 L 185.4 249.2 Z " stroke="none" fill="#000"/>  </g>  <g id="Polygon9473">    <path d="M 9 214.1 C 8.2 215.8 6.5 216.4 5 216.4 C 3.1 216.4 1.4 215.3 1.4 213.1 C 1.4 211 2.9 210 4.8 209.8 C 4.8 209.8 7.5 209.4 7.5 209.4 C 8.3 209.3 9 209 9 208 C 9 206.7 7.9 206 6.3 206 C 4.6 206 3.6 206.8 3.4 208.1 C 3.4 208.1 1.8 208.1 1.8 208.1 C 2.1 205.8 3.9 204.7 6.4 204.7 C 9 204.7 10.5 205.9 10.5 208.4 C 10.54 208.39 10.5 216.2 10.5 216.2 L 9 216.2 C 9 216.2 9.05 214.12 9 214.1 Z M 7.2 210.7 C 7.2 210.7 5.5 210.9 5.5 210.9 C 4 211.1 3 211.6 3 213 C 3 214.4 4.1 215 5.3 215 C 7.1 215 9 213.7 9 211.3 C 9 211.3 9 210.2 9 210.2 C 8.6 210.5 7.9 210.6 7.2 210.7 Z M 29.8 216.2 L 28.3 216.2 L 25.4 207.2 L 22.4 216.2 L 20.9 216.2 L 17.3 204.9 L 18.8 204.9 L 21.7 214.2 L 24.6 204.9 L 26.1 204.9 L 29.1 214.2 L 31.9 204.9 L 33.5 204.9 L 29.8 216.2 Z M 36.1 210.9 C 36.2 213.7 37.9 215 39.9 215 C 41.4 215 42.9 214.3 43.2 212.7 C 43.2 212.7 44.6 212.7 44.6 212.7 C 44.1 215.3 42 216.4 39.8 216.4 C 37.1 216.4 34.6 214.6 34.6 210.6 C 34.6 206.5 37.2 204.7 39.9 204.7 C 42.5 204.7 44.7 206.4 44.7 210.2 C 44.73 210.15 44.7 210.9 44.7 210.9 C 44.7 210.9 36.14 210.91 36.1 210.9 Z M 36.2 209.6 C 36.2 209.6 43.2 209.6 43.2 209.6 C 43.2 207.3 41.7 206.1 39.8 206.1 C 38.1 206.1 36.4 207.2 36.2 209.6 Z M 48.9 216.2 L 47.4 216.2 L 47.4 200.2 L 48.9 200.2 L 48.9 216.2 Z M 53.8 216.2 L 52.2 216.2 L 52.2 200.2 L 53.8 200.2 L 53.8 216.2 Z M 56.5 210.1 L 56.5 208.7 L 63 208.7 L 63 210.1 L 56.5 210.1 Z M 76.2 210.5 C 76.2 214 74.1 216.4 71.1 216.4 C 69.1 216.4 67.8 215.3 67.2 214.1 C 67.18 214.1 67.2 216.2 67.2 216.2 L 65.7 216.2 L 65.7 200.2 L 67.2 200.2 C 67.2 200.2 67.24 207.17 67.2 207.2 C 67.8 205.8 69.2 204.7 71.3 204.7 C 74.1 204.7 76.2 206.9 76.2 210.5 Z M 74.7 210.6 C 74.7 207.8 73.2 206.2 71 206.2 C 68.8 206.2 67.2 207.8 67.2 210.6 C 67.2 213.4 68.8 215.1 70.9 215.1 C 73.2 215.1 74.7 213.3 74.7 210.6 Z M 85.8 214.1 C 84.9 215.8 83.2 216.4 81.8 216.4 C 79.8 216.4 78.1 215.3 78.1 213.1 C 78.1 211 79.6 210 81.5 209.8 C 81.5 209.8 84.2 209.4 84.2 209.4 C 85 209.3 85.8 209 85.8 208 C 85.8 206.7 84.6 206 83.1 206 C 81.4 206 80.3 206.8 80.1 208.1 C 80.1 208.1 78.6 208.1 78.6 208.1 C 78.9 205.8 80.7 204.7 83.2 204.7 C 85.7 204.7 87.3 205.9 87.3 208.4 C 87.27 208.39 87.3 216.2 87.3 216.2 L 85.8 216.2 C 85.8 216.2 85.78 214.12 85.8 214.1 Z M 83.9 210.7 C 83.9 210.7 82.2 210.9 82.2 210.9 C 80.8 211.1 79.7 211.6 79.7 213 C 79.7 214.4 80.8 215 82 215 C 83.8 215 85.7 213.7 85.7 211.3 C 85.7 211.3 85.7 210.2 85.7 210.2 C 85.3 210.5 84.7 210.6 83.9 210.7 Z M 92 216.2 L 90.4 216.2 L 90.4 200.2 L 92 200.2 L 92 216.2 Z M 102.2 214.1 C 101.4 215.8 99.7 216.4 98.2 216.4 C 96.3 216.4 94.6 215.3 94.6 213.1 C 94.6 211 96.1 210 98 209.8 C 98 209.8 100.7 209.4 100.7 209.4 C 101.5 209.3 102.2 209 102.2 208 C 102.2 206.7 101.1 206 99.5 206 C 97.8 206 96.8 206.8 96.6 208.1 C 96.6 208.1 95 208.1 95 208.1 C 95.3 205.8 97.1 204.7 99.6 204.7 C 102.2 204.7 103.7 205.9 103.7 208.4 C 103.74 208.39 103.7 216.2 103.7 216.2 L 102.2 216.2 C 102.2 216.2 102.25 214.12 102.2 214.1 Z M 100.4 210.7 C 100.4 210.7 98.7 210.9 98.7 210.9 C 97.2 211.1 96.2 211.6 96.2 213 C 96.2 214.4 97.2 215 98.5 215 C 100.3 215 102.2 213.7 102.2 211.3 C 102.2 211.3 102.2 210.2 102.2 210.2 C 101.8 210.5 101.1 210.6 100.4 210.7 Z M 116 208.5 C 116.04 208.45 116 216.2 116 216.2 L 114.5 216.2 C 114.5 216.2 114.51 208.64 114.5 208.6 C 114.5 207.1 113.6 206.1 112 206.1 C 110.1 206.1 108.4 207.5 108.4 210.3 C 108.42 210.26 108.4 216.2 108.4 216.2 L 106.9 216.2 L 106.9 204.9 L 108.4 204.9 C 108.4 204.9 108.42 207 108.4 207 C 109.1 205.7 110.4 204.7 112.3 204.7 C 114.6 204.7 116 206 116 208.5 Z M 123.8 216.4 C 120.7 216.4 118.6 214.1 118.6 210.6 C 118.6 207 120.7 204.7 123.9 204.7 C 126.4 204.7 128.4 206.1 128.6 208.6 C 128.6 208.6 127.1 208.6 127.1 208.6 C 126.9 207 125.5 206.1 123.9 206.1 C 121.7 206.1 120.1 207.8 120.1 210.5 C 120.1 213.3 121.7 215 123.9 215 C 125.6 215 126.9 214 127.1 212.2 C 127.1 212.2 128.6 212.2 128.6 212.2 C 128.4 214.9 126.3 216.4 123.8 216.4 Z M 132 210.9 C 132 213.7 133.7 215 135.7 215 C 137.2 215 138.7 214.3 139 212.7 C 139 212.7 140.5 212.7 140.5 212.7 C 140 215.3 137.8 216.4 135.7 216.4 C 133 216.4 130.5 214.6 130.5 210.6 C 130.5 206.5 133 204.7 135.7 204.7 C 138.4 204.7 140.6 206.4 140.6 210.2 C 140.57 210.15 140.6 210.9 140.6 210.9 C 140.6 210.9 131.98 210.91 132 210.9 Z M 132 209.6 C 132 209.6 139 209.6 139 209.6 C 139 207.3 137.5 206.1 135.7 206.1 C 133.9 206.1 132.2 207.2 132 209.6 Z M 153 216.2 L 151.5 216.2 C 151.5 216.2 151.53 214 151.5 214 C 151 215.3 149.6 216.4 147.5 216.4 C 144.6 216.4 142.5 214.1 142.5 210.5 C 142.5 207 144.6 204.7 147.5 204.7 C 149.5 204.7 150.9 205.6 151.5 206.8 C 151.47 206.82 151.5 200.2 151.5 200.2 L 153 200.2 L 153 216.2 Z M 151.4 210.5 C 151.4 207.7 149.9 206.1 147.7 206.1 C 145.5 206.1 144 207.8 144 210.5 C 144 213.3 145.5 215 147.7 215 C 149.9 215 151.4 213.3 151.4 210.5 Z M 172.6 210.5 C 172.6 214.6 170 216.3 167.4 216.3 C 165.5 216.3 164.2 215.4 163.6 214.2 C 163.56 214.23 163.6 220.5 163.6 220.5 L 162 220.5 L 162 204.9 L 163.5 204.9 C 163.5 204.9 163.52 207.28 163.5 207.3 C 164 205.9 165.5 204.7 167.6 204.7 C 170 204.7 172.6 206.4 172.6 210.5 Z M 171 210.5 C 171 207.4 169.2 206.2 167.3 206.2 C 165.5 206.2 163.6 207.4 163.6 210.6 C 163.6 213.7 165.4 214.9 167.3 214.9 C 169.2 214.9 171 213.7 171 210.5 Z M 174.4 210.6 C 174.4 206.9 176.7 204.7 179.8 204.7 C 182.9 204.7 185.1 206.9 185.1 210.6 C 185.1 214.2 182.9 216.4 179.8 216.4 C 176.7 216.4 174.4 214.2 174.4 210.6 Z M 183.6 210.5 C 183.6 207.7 181.9 206.1 179.8 206.1 C 177.6 206.1 176 207.8 176 210.6 C 176 213.4 177.7 215 179.8 215 C 182 215 183.6 213.3 183.6 210.5 Z M 193.4 206.2 C 193.4 206.2 193.03 206.23 193 206.2 C 190.6 206.2 189.3 207.6 189.3 210.2 C 189.29 210.2 189.3 216.2 189.3 216.2 L 187.8 216.2 L 187.8 204.9 L 189.3 204.9 C 189.3 204.9 189.27 206.98 189.3 207 C 189.8 205.5 191.2 204.8 192.9 204.8 C 192.9 204.78 193.4 204.8 193.4 204.8 L 193.4 206.2 Z M 200.9 216.2 C 200.9 216.2 199.29 216.18 199.3 216.2 C 197.8 216.2 196.5 215.7 196.5 213.2 C 196.45 213.22 196.5 206.3 196.5 206.3 L 194.2 206.3 L 194.2 204.9 L 196.5 204.9 L 196.5 201.7 L 198 201.3 L 198 204.9 L 200.7 204.9 L 200.7 206.3 L 198 206.3 C 198 206.3 197.98 213.2 198 213.2 C 198 214.2 198.3 214.8 199.5 214.8 C 199.54 214.8 200.9 214.8 200.9 214.8 L 200.9 216.2 Z M 206.7 201.5 C 205.5 201.5 205.2 202.1 205.2 203.2 C 205.19 203.16 205.2 204.9 205.2 204.9 L 207.7 204.9 L 207.7 206.3 L 205.2 206.3 L 205.2 216.2 L 203.7 216.2 L 203.7 206.3 L 201.8 206.3 L 201.8 204.9 L 203.7 204.9 C 203.7 204.9 203.65 203.12 203.7 203.1 C 203.7 200.6 205 200.2 206.5 200.2 C 206.49 200.18 208 200.2 208 200.2 L 208 201.5 C 208 201.5 206.74 201.54 206.7 201.5 Z M 209 210.6 C 209 206.9 211.3 204.7 214.4 204.7 C 217.5 204.7 219.7 206.9 219.7 210.6 C 219.7 214.2 217.5 216.4 214.4 216.4 C 211.3 216.4 209 214.2 209 210.6 Z M 218.1 210.5 C 218.1 207.7 216.4 206.1 214.3 206.1 C 212.1 206.1 210.6 207.8 210.6 210.6 C 210.6 213.4 212.3 215 214.4 215 C 216.6 215 218.1 213.3 218.1 210.5 Z M 223.9 216.2 L 222.3 216.2 L 222.3 200.2 L 223.9 200.2 L 223.9 216.2 Z M 228.9 200.2 L 227.1 200.2 L 227.1 202.1 L 228.9 202.1 L 228.9 200.2 Z M 228.8 216.2 L 227.2 216.2 L 227.2 204.9 L 228.8 204.9 L 228.8 216.2 Z M 231.4 210.6 C 231.4 206.9 233.6 204.7 236.7 204.7 C 239.8 204.7 242.1 206.9 242.1 210.6 C 242.1 214.2 239.9 216.4 236.7 216.4 C 233.6 216.4 231.4 214.2 231.4 210.6 Z M 240.5 210.5 C 240.5 207.7 238.8 206.1 236.7 206.1 C 234.5 206.1 233 207.8 233 210.6 C 233 213.4 234.7 215 236.8 215 C 239 215 240.5 213.3 240.5 210.5 Z M 244 214 L 246.1 214 L 246.1 216.2 L 244 216.2 L 244 214 Z " stroke="none" fill="#000"/>  </g>  <g id="Polygon9472">    <path d="M 9 188.9 C 8.2 190.6 6.5 191.2 5 191.2 C 3.1 191.2 1.4 190.1 1.4 187.9 C 1.4 185.8 2.9 184.8 4.8 184.6 C 4.8 184.6 7.5 184.2 7.5 184.2 C 8.3 184.1 9 183.8 9 182.8 C 9 181.5 7.9 180.8 6.3 180.8 C 4.6 180.8 3.6 181.6 3.4 182.9 C 3.4 182.9 1.8 182.9 1.8 182.9 C 2.1 180.6 3.9 179.5 6.4 179.5 C 9 179.5 10.5 180.7 10.5 183.2 C 10.54 183.19 10.5 191 10.5 191 L 9 191 C 9 191 9.05 188.92 9 188.9 Z M 7.2 185.5 C 7.2 185.5 5.5 185.7 5.5 185.7 C 4 185.9 3 186.4 3 187.8 C 3 189.2 4.1 189.8 5.3 189.8 C 7.1 189.8 9 188.5 9 186.1 C 9 186.1 9 185 9 185 C 8.6 185.3 7.9 185.4 7.2 185.5 Z M 26.2 191 C 26.2 191 24.5 190.98 24.5 191 C 23 191 21.7 190.5 21.7 188 C 21.67 188.02 21.7 181.1 21.7 181.1 L 15.9 181.1 C 15.9 181.1 15.87 188 15.9 188 C 15.9 189 16.2 189.6 17.4 189.6 C 17.43 189.6 18.8 189.6 18.8 189.6 L 18.8 191 C 18.8 191 17.18 190.98 17.2 191 C 15.7 191 14.3 190.5 14.3 188 C 14.34 188.02 14.3 181.1 14.3 181.1 L 12.1 181.1 L 12.1 179.7 L 14.3 179.7 L 14.3 176.5 L 15.9 176.1 L 15.9 179.7 L 21.7 179.7 L 21.7 176.5 L 23.2 176.1 L 23.2 179.7 L 25.9 179.7 L 25.9 181.1 L 23.2 181.1 C 23.2 181.1 23.2 188 23.2 188 C 23.2 189 23.5 189.6 24.8 189.6 C 24.76 189.6 26.2 189.6 26.2 189.6 L 26.2 191 Z M 34 181 C 34 181 33.66 181.03 33.7 181 C 31.3 181 29.9 182.4 29.9 185 C 29.92 185 29.9 191 29.9 191 L 28.4 191 L 28.4 179.7 L 29.9 179.7 C 29.9 179.7 29.9 181.78 29.9 181.8 C 30.4 180.3 31.8 179.6 33.5 179.6 C 33.53 179.58 34 179.6 34 179.6 L 34 181 Z M 37.7 175 L 35.9 175 L 35.9 176.9 L 37.7 176.9 L 37.7 175 Z M 37.5 191 L 36 191 L 36 179.7 L 37.5 179.7 L 37.5 191 Z M 51.4 185.3 C 51.4 188.8 49.3 191.2 46.3 191.2 C 44.3 191.2 43 190.1 42.4 188.9 C 42.38 188.9 42.4 191 42.4 191 L 40.9 191 L 40.9 175 L 42.4 175 C 42.4 175 42.44 181.97 42.4 182 C 43 180.6 44.4 179.5 46.5 179.5 C 49.3 179.5 51.4 181.7 51.4 185.3 Z M 49.9 185.4 C 49.9 182.6 48.4 181 46.2 181 C 44 181 42.4 182.6 42.4 185.4 C 42.4 188.2 44 189.9 46.1 189.9 C 48.4 189.9 49.9 188.1 49.9 185.4 Z M 61.5 191 C 61.5 191 61.46 188.84 61.5 188.8 C 60.7 190.4 59.3 191.1 57.7 191.1 C 55.6 191.1 53.9 189.8 53.9 187.2 C 53.95 187.16 53.9 179.7 53.9 179.7 L 55.5 179.7 C 55.5 179.7 55.48 186.97 55.5 187 C 55.5 188.8 56.5 189.8 58 189.8 C 59.8 189.8 61.4 188.4 61.4 185.5 C 61.4 185.54 61.4 179.7 61.4 179.7 L 62.9 179.7 L 62.9 191 L 61.5 191 Z M 71.4 191 C 71.4 191 69.78 190.98 69.8 191 C 68.3 191 66.9 190.5 66.9 188 C 66.94 188.02 66.9 181.1 66.9 181.1 L 64.7 181.1 L 64.7 179.7 L 66.9 179.7 L 66.9 176.5 L 68.5 176.1 L 68.5 179.7 L 71.2 179.7 L 71.2 181.1 L 68.5 181.1 C 68.5 181.1 68.48 188 68.5 188 C 68.5 189 68.8 189.6 70 189.6 C 70.03 189.6 71.4 189.6 71.4 189.6 L 71.4 191 Z M 74.4 185.7 C 74.5 188.5 76.2 189.8 78.2 189.8 C 79.7 189.8 81.1 189.1 81.5 187.5 C 81.5 187.5 82.9 187.5 82.9 187.5 C 82.4 190.1 80.2 191.2 78.1 191.2 C 75.4 191.2 72.9 189.4 72.9 185.4 C 72.9 181.3 75.4 179.5 78.2 179.5 C 80.8 179.5 83 181.2 83 185 C 83.01 184.95 83 185.7 83 185.7 C 83 185.7 74.42 185.71 74.4 185.7 Z M 74.5 184.4 C 74.5 184.4 81.5 184.4 81.5 184.4 C 81.5 182.1 80 180.9 78.1 180.9 C 76.3 180.9 74.7 182 74.5 184.4 Z M 94 187.8 C 94 190.1 91.9 191.2 89.7 191.2 C 87.3 191.2 85 190 84.8 187.5 C 84.8 187.5 86.4 187.5 86.4 187.5 C 86.7 189.2 88.2 189.8 89.7 189.8 C 91.1 189.8 92.4 189.3 92.4 188 C 92.4 186.7 91.1 186.4 89.8 186.2 C 87.6 185.8 85.1 185.4 85.1 182.8 C 85.1 180.6 87 179.5 89.3 179.5 C 91.7 179.5 93.6 180.6 93.7 182.9 C 93.7 182.9 92.1 182.9 92.1 182.9 C 92 181.5 90.7 180.9 89.2 180.9 C 87.7 180.9 86.7 181.6 86.7 182.7 C 86.7 184.2 88 184.4 89.7 184.7 C 91.8 185 94 185.3 94 187.8 Z M 106.7 191 C 106.7 191 105.06 190.98 105.1 191 C 103.6 191 102.2 190.5 102.2 188 C 102.22 188.02 102.2 181.1 102.2 181.1 L 100 181.1 L 100 179.7 L 102.2 179.7 L 102.2 176.5 L 103.8 176.1 L 103.8 179.7 L 106.5 179.7 L 106.5 181.1 L 103.8 181.1 C 103.8 181.1 103.76 188 103.8 188 C 103.8 189 104.1 189.6 105.3 189.6 C 105.31 189.6 106.7 189.6 106.7 189.6 L 106.7 191 Z M 118.1 183.3 C 118.08 183.25 118.1 191 118.1 191 L 116.5 191 C 116.5 191 116.55 183.44 116.5 183.4 C 116.5 181.9 115.7 180.9 114.1 180.9 C 112.1 180.9 110.5 182.3 110.5 185.1 C 110.46 185.06 110.5 191 110.5 191 L 108.9 191 L 108.9 175 L 110.5 175 C 110.5 175 110.46 181.68 110.5 181.7 C 111.1 180.4 112.3 179.5 114.3 179.5 C 116.6 179.5 118.1 180.8 118.1 183.3 Z M 128.3 188.9 C 127.4 190.6 125.7 191.2 124.3 191.2 C 122.3 191.2 120.6 190.1 120.6 187.9 C 120.6 185.8 122.1 184.8 124 184.6 C 124 184.6 126.7 184.2 126.7 184.2 C 127.5 184.1 128.3 183.8 128.3 182.8 C 128.3 181.5 127.1 180.8 125.5 180.8 C 123.8 180.8 122.8 181.6 122.6 182.9 C 122.6 182.9 121 182.9 121 182.9 C 121.4 180.6 123.2 179.5 125.6 179.5 C 128.2 179.5 129.8 180.7 129.8 183.2 C 129.76 183.19 129.8 191 129.8 191 L 128.3 191 C 128.3 191 128.26 188.92 128.3 188.9 Z M 126.4 185.5 C 126.4 185.5 124.7 185.7 124.7 185.7 C 123.2 185.9 122.2 186.4 122.2 187.8 C 122.2 189.2 123.3 189.8 124.5 189.8 C 126.3 189.8 128.2 188.5 128.2 186.1 C 128.2 186.1 128.2 185 128.2 185 C 127.8 185.3 127.2 185.4 126.4 185.5 Z M 138.1 191 C 138.1 191 136.39 190.98 136.4 191 C 134.9 191 133.6 190.5 133.6 188 C 133.56 188.02 133.6 181.1 133.6 181.1 L 131.3 181.1 L 131.3 179.7 L 133.6 179.7 L 133.6 176.5 L 135.1 176.1 L 135.1 179.7 L 137.8 179.7 L 137.8 181.1 L 135.1 181.1 C 135.1 181.1 135.09 188 135.1 188 C 135.1 189 135.4 189.6 136.6 189.6 C 136.64 189.6 138.1 189.6 138.1 189.6 L 138.1 191 Z M 145.7 179.7 L 147.2 179.7 C 147.2 179.7 147.23 181.57 147.2 181.6 C 147.8 180.2 149.1 179.5 150.5 179.5 C 152.2 179.5 153.5 180.4 153.8 181.8 C 154.3 180.6 155.6 179.5 157.5 179.5 C 159.6 179.5 161.2 180.6 161.2 182.9 C 161.19 182.9 161.2 191 161.2 191 L 159.7 191 C 159.7 191 159.66 183.44 159.7 183.4 C 159.7 181.7 158.6 180.9 157.3 180.9 C 155.6 180.9 154.2 182.2 154.2 184.5 C 154.2 184.53 154.2 191 154.2 191 L 152.7 191 C 152.7 191 152.69 183.44 152.7 183.4 C 152.7 181.7 151.7 180.9 150.3 180.9 C 148.7 180.9 147.2 182.1 147.2 184.5 C 147.25 184.53 147.2 191 147.2 191 L 145.7 191 L 145.7 179.7 Z M 171.4 188.9 C 170.5 190.6 168.8 191.2 167.4 191.2 C 165.4 191.2 163.7 190.1 163.7 187.9 C 163.7 185.8 165.2 184.8 167.1 184.6 C 167.1 184.6 169.8 184.2 169.8 184.2 C 170.6 184.1 171.4 183.8 171.4 182.8 C 171.4 181.5 170.2 180.8 168.6 180.8 C 166.9 180.8 165.9 181.6 165.7 182.9 C 165.7 182.9 164.2 182.9 164.2 182.9 C 164.5 180.6 166.3 179.5 168.8 179.5 C 171.3 179.5 172.9 180.7 172.9 183.2 C 172.87 183.19 172.9 191 172.9 191 L 171.4 191 C 171.4 191 171.38 188.92 171.4 188.9 Z M 169.5 185.5 C 169.5 185.5 167.8 185.7 167.8 185.7 C 166.4 185.9 165.3 186.4 165.3 187.8 C 165.3 189.2 166.4 189.8 167.6 189.8 C 169.4 189.8 171.3 188.5 171.3 186.1 C 171.3 186.1 171.3 185 171.3 185 C 170.9 185.3 170.3 185.4 169.5 185.5 Z M 179.6 185.5 L 177.6 187.6 L 177.6 191 L 176 191 L 176 175 L 177.6 175 L 177.6 185.7 L 183.1 179.7 L 185.1 179.7 L 180.6 184.4 L 185.4 191 L 183.5 191 L 179.6 185.5 Z M 187.8 185.7 C 187.8 188.5 189.5 189.8 191.5 189.8 C 193 189.8 194.5 189.1 194.8 187.5 C 194.8 187.5 196.3 187.5 196.3 187.5 C 195.8 190.1 193.6 191.2 191.4 191.2 C 188.7 191.2 186.2 189.4 186.2 185.4 C 186.2 181.3 188.8 179.5 191.5 179.5 C 194.2 179.5 196.3 181.2 196.3 185 C 196.35 184.95 196.3 185.7 196.3 185.7 C 196.3 185.7 187.76 185.71 187.8 185.7 Z M 187.8 184.4 C 187.8 184.4 194.8 184.4 194.8 184.4 C 194.8 182.1 193.3 180.9 191.4 180.9 C 189.7 180.9 188 182 187.8 184.4 Z M 205.9 175 L 204.1 175 L 204.1 176.9 L 205.9 176.9 L 205.9 175 Z M 205.8 191 L 204.2 191 L 204.2 179.7 L 205.8 179.7 L 205.8 191 Z M 214.3 191 C 214.3 191 212.6 190.98 212.6 191 C 211.1 191 209.8 190.5 209.8 188 C 209.76 188.02 209.8 181.1 209.8 181.1 L 207.5 181.1 L 207.5 179.7 L 209.8 179.7 L 209.8 176.5 L 211.3 176.1 L 211.3 179.7 L 214 179.7 L 214 181.1 L 211.3 181.1 C 211.3 181.1 211.3 188 211.3 188 C 211.3 189 211.6 189.6 212.9 189.6 C 212.85 189.6 214.3 189.6 214.3 189.6 L 214.3 191 Z M 228.9 188.9 C 228 190.6 226.3 191.2 224.8 191.2 C 222.9 191.2 221.2 190.1 221.2 187.9 C 221.2 185.8 222.7 184.8 224.6 184.6 C 224.6 184.6 227.3 184.2 227.3 184.2 C 228.1 184.1 228.9 183.8 228.9 182.8 C 228.9 181.5 227.7 180.8 226.1 180.8 C 224.4 180.8 223.4 181.6 223.2 182.9 C 223.2 182.9 221.6 182.9 221.6 182.9 C 221.9 180.6 223.7 179.5 226.2 179.5 C 228.8 179.5 230.3 180.7 230.3 183.2 C 230.34 183.19 230.3 191 230.3 191 L 228.9 191 C 228.9 191 228.85 188.92 228.9 188.9 Z M 227 185.5 C 227 185.5 225.3 185.7 225.3 185.7 C 223.8 185.9 222.8 186.4 222.8 187.8 C 222.8 189.2 223.9 189.8 225.1 189.8 C 226.9 189.8 228.8 188.5 228.8 186.1 C 228.8 186.1 228.8 185 228.8 185 C 228.4 185.3 227.7 185.4 227 185.5 Z M 242.6 183.3 C 242.65 183.25 242.6 191 242.6 191 L 241.1 191 C 241.1 191 241.12 183.44 241.1 183.4 C 241.1 181.9 240.2 180.9 238.6 180.9 C 236.7 180.9 235 182.3 235 185.1 C 235.03 185.06 235 191 235 191 L 233.5 191 L 233.5 179.7 L 235 179.7 C 235 179.7 235.03 181.8 235 181.8 C 235.7 180.5 237 179.5 238.9 179.5 C 241.2 179.5 242.6 180.8 242.6 183.3 Z M 253.2 175 L 251.5 175 L 251.5 176.9 L 253.2 176.9 L 253.2 175 Z M 253.1 191 L 251.6 191 L 251.6 179.7 L 253.1 179.7 L 253.1 191 Z M 256.5 179.7 L 258 179.7 C 258 179.7 257.98 181.57 258 181.6 C 258.6 180.2 259.8 179.5 261.3 179.5 C 262.9 179.5 264.2 180.4 264.6 181.8 C 265.1 180.6 266.3 179.5 268.3 179.5 C 270.3 179.5 271.9 180.6 271.9 182.9 C 271.94 182.9 271.9 191 271.9 191 L 270.4 191 C 270.4 191 270.41 183.44 270.4 183.4 C 270.4 181.7 269.3 180.9 268 180.9 C 266.3 180.9 265 182.2 265 184.5 C 264.95 184.53 265 191 265 191 L 263.4 191 C 263.4 191 263.44 183.44 263.4 183.4 C 263.4 181.7 262.4 180.9 261.1 180.9 C 259.4 180.9 258 182.1 258 184.5 C 258 184.53 258 191 258 191 L 256.5 191 L 256.5 179.7 Z M 285.7 185.3 C 285.7 189.4 283.1 191.1 280.6 191.1 C 278.6 191.1 277.4 190.2 276.7 189 C 276.73 189.03 276.7 195.3 276.7 195.3 L 275.2 195.3 L 275.2 179.7 L 276.7 179.7 C 276.7 179.7 276.69 182.08 276.7 182.1 C 277.2 180.7 278.7 179.5 280.7 179.5 C 283.2 179.5 285.7 181.2 285.7 185.3 Z M 284.1 185.3 C 284.1 182.2 282.4 181 280.5 181 C 278.6 181 276.8 182.2 276.8 185.4 C 276.8 188.5 278.6 189.7 280.4 189.7 C 282.3 189.7 284.1 188.5 284.1 185.3 Z M 287.6 185.4 C 287.6 181.7 289.8 179.5 292.9 179.5 C 296.1 179.5 298.3 181.7 298.3 185.4 C 298.3 189 296.1 191.2 293 191.2 C 289.9 191.2 287.6 189 287.6 185.4 Z M 296.7 185.3 C 296.7 182.5 295 180.9 292.9 180.9 C 290.7 180.9 289.2 182.6 289.2 185.4 C 289.2 188.2 290.9 189.8 293 189.8 C 295.2 189.8 296.7 188.1 296.7 185.3 Z M 306.6 181 C 306.6 181 306.19 181.03 306.2 181 C 303.8 181 302.5 182.4 302.5 185 C 302.46 185 302.5 191 302.5 191 L 300.9 191 L 300.9 179.7 L 302.4 179.7 C 302.4 179.7 302.44 181.78 302.4 181.8 C 303 180.3 304.3 179.6 306.1 179.6 C 306.07 179.58 306.6 179.6 306.6 179.6 L 306.6 181 Z M 314.1 191 C 314.1 191 312.45 190.98 312.5 191 C 311 191 309.6 190.5 309.6 188 C 309.62 188.02 309.6 181.1 309.6 181.1 L 307.4 181.1 L 307.4 179.7 L 309.6 179.7 L 309.6 176.5 L 311.2 176.1 L 311.2 179.7 L 313.9 179.7 L 313.9 181.1 L 311.2 181.1 C 311.2 181.1 311.15 188 311.2 188 C 311.2 189 311.4 189.6 312.7 189.6 C 312.7 189.6 314.1 189.6 314.1 189.6 L 314.1 191 Z M 323.2 188.9 C 322.4 190.6 320.7 191.2 319.2 191.2 C 317.3 191.2 315.6 190.1 315.6 187.9 C 315.6 185.8 317.1 184.8 319 184.6 C 319 184.6 321.7 184.2 321.7 184.2 C 322.5 184.1 323.2 183.8 323.2 182.8 C 323.2 181.5 322.1 180.8 320.5 180.8 C 318.8 180.8 317.8 181.6 317.6 182.9 C 317.6 182.9 316 182.9 316 182.9 C 316.3 180.6 318.1 179.5 320.6 179.5 C 323.2 179.5 324.7 180.7 324.7 183.2 C 324.74 183.19 324.7 191 324.7 191 L 323.2 191 C 323.2 191 323.25 188.92 323.2 188.9 Z M 321.4 185.5 C 321.4 185.5 319.7 185.7 319.7 185.7 C 318.2 185.9 317.2 186.4 317.2 187.8 C 317.2 189.2 318.2 189.8 319.5 189.8 C 321.3 189.8 323.2 188.5 323.2 186.1 C 323.2 186.1 323.2 185 323.2 185 C 322.8 185.3 322.1 185.4 321.4 185.5 Z M 337 183.3 C 337.04 183.25 337 191 337 191 L 335.5 191 C 335.5 191 335.51 183.44 335.5 183.4 C 335.5 181.9 334.6 180.9 333 180.9 C 331.1 180.9 329.4 182.3 329.4 185.1 C 329.42 185.06 329.4 191 329.4 191 L 327.9 191 L 327.9 179.7 L 329.4 179.7 C 329.4 179.7 329.42 181.8 329.4 181.8 C 330.1 180.5 331.4 179.5 333.3 179.5 C 335.6 179.5 337 180.8 337 183.3 Z M 345.4 191 C 345.4 191 343.78 190.98 343.8 191 C 342.3 191 340.9 190.5 340.9 188 C 340.95 188.02 340.9 181.1 340.9 181.1 L 338.7 181.1 L 338.7 179.7 L 340.9 179.7 L 340.9 176.5 L 342.5 176.1 L 342.5 179.7 L 345.2 179.7 L 345.2 181.1 L 342.5 181.1 C 342.5 181.1 342.48 188 342.5 188 C 342.5 189 342.8 189.6 344 189.6 C 344.04 189.6 345.4 189.6 345.4 189.6 L 345.4 191 Z M 363.6 185.3 C 363.6 189.4 361 191.1 358.5 191.1 C 356.5 191.1 355.3 190.2 354.6 189 C 354.64 189.03 354.6 195.3 354.6 195.3 L 353.1 195.3 L 353.1 179.7 L 354.6 179.7 C 354.6 179.7 354.6 182.08 354.6 182.1 C 355.1 180.7 356.6 179.5 358.6 179.5 C 361.1 179.5 363.6 181.2 363.6 185.3 Z M 362.1 185.3 C 362.1 182.2 360.3 181 358.4 181 C 356.5 181 354.7 182.2 354.7 185.4 C 354.7 188.5 356.5 189.7 358.4 189.7 C 360.2 189.7 362.1 188.5 362.1 185.3 Z M 373.2 188.9 C 372.3 190.6 370.6 191.2 369.2 191.2 C 367.2 191.2 365.5 190.1 365.5 187.9 C 365.5 185.8 367 184.8 368.9 184.6 C 368.9 184.6 371.6 184.2 371.6 184.2 C 372.4 184.1 373.2 183.8 373.2 182.8 C 373.2 181.5 372 180.8 370.5 180.8 C 368.8 180.8 367.7 181.6 367.5 182.9 C 367.5 182.9 366 182.9 366 182.9 C 366.3 180.6 368.1 179.5 370.6 179.5 C 373.1 179.5 374.7 180.7 374.7 183.2 C 374.67 183.19 374.7 191 374.7 191 L 373.2 191 C 373.2 191 373.18 188.92 373.2 188.9 Z M 371.3 185.5 C 371.3 185.5 369.6 185.7 369.6 185.7 C 368.2 185.9 367.1 186.4 367.1 187.8 C 367.1 189.2 368.2 189.8 369.4 189.8 C 371.2 189.8 373.1 188.5 373.1 186.1 C 373.1 186.1 373.1 185 373.1 185 C 372.7 185.3 372.1 185.4 371.3 185.5 Z M 383.5 181 C 383.5 181 383.1 181.03 383.1 181 C 380.7 181 379.4 182.4 379.4 185 C 379.36 185 379.4 191 379.4 191 L 377.8 191 L 377.8 179.7 L 379.3 179.7 C 379.3 179.7 379.34 181.78 379.3 181.8 C 379.9 180.3 381.2 179.6 383 179.6 C 382.97 179.58 383.5 179.6 383.5 179.6 L 383.5 181 Z M 391 191 C 391 191 389.35 190.98 389.4 191 C 387.9 191 386.5 190.5 386.5 188 C 386.52 188.02 386.5 181.1 386.5 181.1 L 384.3 181.1 L 384.3 179.7 L 386.5 179.7 L 386.5 176.5 L 388.1 176.1 L 388.1 179.7 L 390.8 179.7 L 390.8 181.1 L 388.1 181.1 C 388.1 181.1 388.05 188 388.1 188 C 388.1 189 388.3 189.6 389.6 189.6 C 389.6 189.6 391 189.6 391 189.6 L 391 191 Z M 397.5 185.4 C 397.5 181.7 399.7 179.5 402.9 179.5 C 406 179.5 408.2 181.7 408.2 185.4 C 408.2 189 406 191.2 402.9 191.2 C 399.8 191.2 397.5 189 397.5 185.4 Z M 406.6 185.3 C 406.6 182.5 404.9 180.9 402.8 180.9 C 400.6 180.9 399.1 182.6 399.1 185.4 C 399.1 188.2 400.8 189.8 402.9 189.8 C 405.1 189.8 406.6 188.1 406.6 185.3 Z M 414.4 176.3 C 413.2 176.3 412.9 176.9 412.9 178 C 412.87 177.96 412.9 179.7 412.9 179.7 L 415.4 179.7 L 415.4 181.1 L 412.9 181.1 L 412.9 191 L 411.3 191 L 411.3 181.1 L 409.5 181.1 L 409.5 179.7 L 411.3 179.7 C 411.3 179.7 411.34 177.92 411.3 177.9 C 411.3 175.4 412.7 175 414.2 175 C 414.17 174.98 415.7 175 415.7 175 L 415.7 176.3 C 415.7 176.3 414.43 176.34 414.4 176.3 Z " stroke="none" fill="#000"/>  </g>  <g id="Polygon9471">    <path d="M 2.1 165.8 L 2.1 150 L 12 150 L 12 151.4 L 3.7 151.4 L 3.7 157.1 L 11.5 157.1 L 11.5 158.5 L 3.7 158.5 L 3.7 164.3 L 12.4 164.3 L 12.4 165.8 L 2.1 165.8 Z M 19.5 165.8 L 17.8 165.8 L 13.6 154.5 L 15.3 154.5 L 18.7 164.2 L 22.1 154.5 L 23.7 154.5 L 19.5 165.8 Z M 26.2 160.5 C 26.3 163.3 28 164.6 30 164.6 C 31.5 164.6 33 163.9 33.3 162.3 C 33.3 162.3 34.8 162.3 34.8 162.3 C 34.2 164.9 32.1 166 29.9 166 C 27.2 166 24.7 164.2 24.7 160.2 C 24.7 156.1 27.3 154.3 30 154.3 C 32.7 154.3 34.8 156 34.8 159.8 C 34.83 159.75 34.8 160.5 34.8 160.5 C 34.8 160.5 26.25 160.51 26.2 160.5 Z M 26.3 159.2 C 26.3 159.2 33.3 159.2 33.3 159.2 C 33.3 156.9 31.8 155.7 29.9 155.7 C 28.2 155.7 26.5 156.8 26.3 159.2 Z M 46.6 158.1 C 46.62 158.05 46.6 165.8 46.6 165.8 L 45.1 165.8 C 45.1 165.8 45.08 158.24 45.1 158.2 C 45.1 156.7 44.2 155.7 42.6 155.7 C 40.7 155.7 39 157.1 39 159.9 C 38.99 159.86 39 165.8 39 165.8 L 37.5 165.8 L 37.5 154.5 L 39 154.5 C 39 154.5 38.99 156.6 39 156.6 C 39.7 155.3 40.9 154.3 42.9 154.3 C 45.1 154.3 46.6 155.6 46.6 158.1 Z M 64.7 158.1 C 64.7 158.05 64.7 165.8 64.7 165.8 L 63.2 165.8 C 63.2 165.8 63.16 158.24 63.2 158.2 C 63.2 156.7 62.3 155.7 60.7 155.7 C 58.8 155.7 57.1 157.1 57.1 159.9 C 57.07 159.86 57.1 165.8 57.1 165.8 L 55.5 165.8 L 55.5 154.5 L 57.1 154.5 C 57.1 154.5 57.07 156.6 57.1 156.6 C 57.7 155.3 59 154.3 61 154.3 C 63.2 154.3 64.7 155.6 64.7 158.1 Z M 67.2 160.2 C 67.2 156.5 69.4 154.3 72.6 154.3 C 75.7 154.3 77.9 156.5 77.9 160.2 C 77.9 163.8 75.7 166 72.6 166 C 69.5 166 67.2 163.8 67.2 160.2 Z M 76.3 160.1 C 76.3 157.3 74.6 155.7 72.5 155.7 C 70.3 155.7 68.8 157.4 68.8 160.2 C 68.8 163 70.5 164.6 72.6 164.6 C 74.8 164.6 76.3 162.9 76.3 160.1 Z M 91.6 165.8 L 90.1 165.8 L 87.2 156.8 L 84.2 165.8 L 82.7 165.8 L 79.1 154.5 L 80.6 154.5 L 83.5 163.8 L 86.4 154.5 L 87.9 154.5 L 90.9 163.8 L 93.7 154.5 L 95.3 154.5 L 91.6 165.8 Z M 97.6 165.7 C 97.62 165.66 96.6 165.7 96.6 165.7 L 96.6 163.6 L 98.8 163.6 C 98.8 163.6 98.84 165.72 98.8 165.7 C 98.8 168.2 97.4 169.1 95.8 169.2 C 95.8 169.2 95.6 168.3 95.6 168.3 C 97.3 168 97.6 167 97.6 165.7 Z M 108.1 149.8 L 106.4 149.8 L 106.4 151.7 L 108.1 151.7 L 108.1 149.8 Z M 108 165.8 L 106.5 165.8 L 106.5 154.5 L 108 154.5 L 108 165.8 Z M 116.5 165.8 C 116.5 165.8 114.89 165.78 114.9 165.8 C 113.4 165.8 112.1 165.3 112.1 162.8 C 112.05 162.82 112.1 155.9 112.1 155.9 L 109.8 155.9 L 109.8 154.5 L 112.1 154.5 L 112.1 151.3 L 113.6 150.9 L 113.6 154.5 L 116.3 154.5 L 116.3 155.9 L 113.6 155.9 C 113.6 155.9 113.58 162.8 113.6 162.8 C 113.6 163.8 113.9 164.4 115.1 164.4 C 115.14 164.4 116.5 164.4 116.5 164.4 L 116.5 165.8 Z M 123.1 160.2 C 123.1 156.5 125.3 154.3 128.4 154.3 C 131.5 154.3 133.7 156.5 133.7 160.2 C 133.7 163.8 131.5 166 128.4 166 C 125.3 166 123.1 163.8 123.1 160.2 Z M 132.2 160.1 C 132.2 157.3 130.5 155.7 128.4 155.7 C 126.2 155.7 124.6 157.4 124.6 160.2 C 124.6 163 126.3 164.6 128.4 164.6 C 130.6 164.6 132.2 162.9 132.2 160.1 Z M 145.9 152.8 C 145.94 152.76 145.9 154.5 145.9 154.5 L 148.4 154.5 L 148.4 155.9 L 145.9 155.9 L 145.9 165.8 L 144.4 165.8 L 144.4 155.9 L 138.4 155.9 L 138.4 165.8 L 136.9 165.8 L 136.9 155.9 L 135 155.9 L 135 154.5 L 136.9 154.5 C 136.9 154.5 136.87 152.72 136.9 152.7 C 136.9 150.2 138.2 149.8 139.7 149.8 C 139.71 149.78 141.2 149.8 141.2 149.8 L 141.2 151.1 C 141.2 151.1 139.96 151.14 140 151.1 C 138.7 151.1 138.4 151.7 138.4 152.8 C 138.41 152.76 138.4 154.5 138.4 154.5 L 144.4 154.5 C 144.4 154.5 144.41 152.72 144.4 152.7 C 144.4 150.2 145.8 149.8 147.2 149.8 C 147.25 149.78 148.7 149.8 148.7 149.8 L 148.7 151.1 C 148.7 151.1 147.5 151.14 147.5 151.1 C 146.2 151.1 145.9 151.7 145.9 152.8 Z M 151.3 160.5 C 151.3 163.3 153.1 164.6 155.1 164.6 C 156.5 164.6 158 163.9 158.4 162.3 C 158.4 162.3 159.8 162.3 159.8 162.3 C 159.3 164.9 157.1 166 155 166 C 152.3 166 149.8 164.2 149.8 160.2 C 149.8 156.1 152.3 154.3 155 154.3 C 157.7 154.3 159.9 156 159.9 159.8 C 159.89 159.75 159.9 160.5 159.9 160.5 C 159.9 160.5 151.3 160.51 151.3 160.5 Z M 151.3 159.2 C 151.3 159.2 158.3 159.2 158.3 159.2 C 158.3 156.9 156.9 155.7 155 155.7 C 153.2 155.7 151.6 156.8 151.3 159.2 Z M 168.1 155.8 C 168.1 155.8 167.78 155.83 167.8 155.8 C 165.4 155.8 164 157.2 164 159.8 C 164.05 159.8 164 165.8 164 165.8 L 162.5 165.8 L 162.5 154.5 L 164 154.5 C 164 154.5 164.03 156.58 164 156.6 C 164.6 155.1 165.9 154.4 167.7 154.4 C 167.66 154.38 168.1 154.4 168.1 154.4 L 168.1 155.8 Z M 178.5 162.6 C 178.5 164.9 176.4 166 174.2 166 C 171.8 166 169.5 164.8 169.3 162.3 C 169.3 162.3 170.9 162.3 170.9 162.3 C 171.2 164 172.7 164.6 174.2 164.6 C 175.6 164.6 176.9 164.1 176.9 162.8 C 176.9 161.5 175.6 161.2 174.3 161 C 172.1 160.6 169.6 160.2 169.6 157.6 C 169.6 155.4 171.5 154.3 173.8 154.3 C 176.2 154.3 178.1 155.4 178.2 157.7 C 178.2 157.7 176.6 157.7 176.6 157.7 C 176.5 156.3 175.2 155.7 173.7 155.7 C 172.2 155.7 171.2 156.4 171.2 157.5 C 171.2 159 172.5 159.2 174.2 159.5 C 176.3 159.8 178.5 160.1 178.5 162.6 Z M 194.2 162.6 C 194.2 164.9 192.2 166 189.9 166 C 187.5 166 185.3 164.8 185 162.3 C 185 162.3 186.7 162.3 186.7 162.3 C 186.9 164 188.4 164.6 189.9 164.6 C 191.4 164.6 192.6 164.1 192.6 162.8 C 192.6 161.5 191.3 161.2 190 161 C 187.9 160.6 185.3 160.2 185.3 157.6 C 185.3 155.4 187.2 154.3 189.5 154.3 C 191.9 154.3 193.8 155.4 194 157.7 C 194 157.7 192.4 157.7 192.4 157.7 C 192.2 156.3 190.9 155.7 189.5 155.7 C 187.9 155.7 186.9 156.4 186.9 157.5 C 186.9 159 188.3 159.2 190 159.5 C 192 159.8 194.2 160.1 194.2 162.6 Z M 196 160.2 C 196 156.5 198.3 154.3 201.4 154.3 C 204.5 154.3 206.7 156.5 206.7 160.2 C 206.7 163.8 204.5 166 201.4 166 C 198.3 166 196 163.8 196 160.2 Z M 205.1 160.1 C 205.1 157.3 203.4 155.7 201.3 155.7 C 199.1 155.7 197.6 157.4 197.6 160.2 C 197.6 163 199.3 164.6 201.4 164.6 C 203.6 164.6 205.1 162.9 205.1 160.1 Z M 209.3 154.5 L 210.9 154.5 C 210.9 154.5 210.86 156.37 210.9 156.4 C 211.5 155 212.7 154.3 214.1 154.3 C 215.8 154.3 217.1 155.2 217.5 156.6 C 218 155.4 219.2 154.3 221.2 154.3 C 223.2 154.3 224.8 155.4 224.8 157.7 C 224.82 157.7 224.8 165.8 224.8 165.8 L 223.3 165.8 C 223.3 165.8 223.29 158.24 223.3 158.2 C 223.3 156.5 222.2 155.7 220.9 155.7 C 219.2 155.7 217.8 157 217.8 159.3 C 217.83 159.33 217.8 165.8 217.8 165.8 L 216.3 165.8 C 216.3 165.8 216.32 158.24 216.3 158.2 C 216.3 156.5 215.3 155.7 213.9 155.7 C 212.3 155.7 210.9 156.9 210.9 159.3 C 210.88 159.33 210.9 165.8 210.9 165.8 L 209.3 165.8 L 209.3 154.5 Z M 228.9 160.5 C 228.9 163.3 230.6 164.6 232.6 164.6 C 234.1 164.6 235.6 163.9 235.9 162.3 C 235.9 162.3 237.4 162.3 237.4 162.3 C 236.9 164.9 234.7 166 232.5 166 C 229.8 166 227.3 164.2 227.3 160.2 C 227.3 156.1 229.9 154.3 232.6 154.3 C 235.3 154.3 237.4 156 237.4 159.8 C 237.44 159.75 237.4 160.5 237.4 160.5 C 237.4 160.5 228.85 160.51 228.9 160.5 Z M 228.9 159.2 C 228.9 159.2 235.9 159.2 235.9 159.2 C 235.9 156.9 234.4 155.7 232.5 155.7 C 230.8 155.7 229.1 156.8 228.9 159.2 Z M 249.4 165.8 L 247.7 165.8 L 243.5 154.5 L 245.2 154.5 L 248.6 164.2 L 252 154.5 L 253.6 154.5 L 249.4 165.8 Z M 262.3 163.7 C 261.4 165.4 259.7 166 258.3 166 C 256.3 166 254.6 164.9 254.6 162.7 C 254.6 160.6 256.1 159.6 258 159.4 C 258 159.4 260.7 159 260.7 159 C 261.5 158.9 262.3 158.6 262.3 157.6 C 262.3 156.3 261.1 155.6 259.6 155.6 C 257.9 155.6 256.8 156.4 256.6 157.7 C 256.6 157.7 255.1 157.7 255.1 157.7 C 255.4 155.4 257.2 154.3 259.7 154.3 C 262.2 154.3 263.8 155.5 263.8 158 C 263.78 157.99 263.8 165.8 263.8 165.8 L 262.3 165.8 C 262.3 165.8 262.28 163.72 262.3 163.7 Z M 260.4 160.3 C 260.4 160.3 258.7 160.5 258.7 160.5 C 257.3 160.7 256.2 161.2 256.2 162.6 C 256.2 164 257.3 164.6 258.5 164.6 C 260.3 164.6 262.2 163.3 262.2 160.9 C 262.2 160.9 262.2 159.8 262.2 159.8 C 261.8 160.1 261.2 160.2 260.4 160.3 Z M 268.5 165.8 L 266.9 165.8 L 266.9 149.8 L 268.5 149.8 L 268.5 165.8 Z M 279.2 165.8 C 279.2 165.8 279.23 163.64 279.2 163.6 C 278.5 165.2 277.1 165.9 275.5 165.9 C 273.4 165.9 271.7 164.6 271.7 162 C 271.71 161.96 271.7 154.5 271.7 154.5 L 273.2 154.5 C 273.2 154.5 273.25 161.77 273.2 161.8 C 273.2 163.6 274.3 164.6 275.7 164.6 C 277.6 164.6 279.2 163.2 279.2 160.3 C 279.17 160.34 279.2 154.5 279.2 154.5 L 280.7 154.5 L 280.7 165.8 L 279.2 165.8 Z M 291 163.7 C 290.1 165.4 288.4 166 287 166 C 285 166 283.3 164.9 283.3 162.7 C 283.3 160.6 284.8 159.6 286.7 159.4 C 286.7 159.4 289.4 159 289.4 159 C 290.3 158.9 291 158.6 291 157.6 C 291 156.3 289.8 155.6 288.3 155.6 C 286.6 155.6 285.5 156.4 285.3 157.7 C 285.3 157.7 283.8 157.7 283.8 157.7 C 284.1 155.4 285.9 154.3 288.4 154.3 C 290.9 154.3 292.5 155.5 292.5 158 C 292.48 157.99 292.5 165.8 292.5 165.8 L 291 165.8 C 291 165.8 290.99 163.72 291 163.7 Z M 289.1 160.3 C 289.1 160.3 287.4 160.5 287.4 160.5 C 286 160.7 284.9 161.2 284.9 162.6 C 284.9 164 286 164.6 287.2 164.6 C 289 164.6 290.9 163.3 290.9 160.9 C 290.9 160.9 290.9 159.8 290.9 159.8 C 290.5 160.1 289.9 160.2 289.1 160.3 Z M 306.2 160.1 C 306.2 163.6 304.1 166 301.1 166 C 299 166 297.7 164.9 297.1 163.7 C 297.1 163.7 297.1 165.8 297.1 165.8 L 295.6 165.8 L 295.6 149.8 L 297.2 149.8 C 297.2 149.8 297.17 156.77 297.2 156.8 C 297.7 155.4 299.2 154.3 301.2 154.3 C 304.1 154.3 306.2 156.5 306.2 160.1 Z M 304.6 160.2 C 304.6 157.4 303.1 155.8 300.9 155.8 C 298.7 155.8 297.2 157.4 297.2 160.2 C 297.2 163 298.7 164.7 300.9 164.7 C 303.1 164.7 304.6 162.9 304.6 160.2 Z M 310.3 165.8 L 308.8 165.8 L 308.8 149.8 L 310.3 149.8 L 310.3 165.8 Z M 314.4 160.5 C 314.5 163.3 316.2 164.6 318.2 164.6 C 319.7 164.6 321.2 163.9 321.5 162.3 C 321.5 162.3 323 162.3 323 162.3 C 322.4 164.9 320.3 166 318.1 166 C 315.4 166 312.9 164.2 312.9 160.2 C 312.9 156.1 315.5 154.3 318.2 154.3 C 320.9 154.3 323 156 323 159.8 C 323.04 159.75 323 160.5 323 160.5 C 323 160.5 314.45 160.51 314.4 160.5 Z M 314.5 159.2 C 314.5 159.2 321.5 159.2 321.5 159.2 C 321.5 156.9 320 155.7 318.1 155.7 C 316.4 155.7 314.7 156.8 314.5 159.2 Z " stroke="none" fill="#000"/>  </g>  <g id="Polygon9470">    <path d="M 9 128.5 C 8.2 130.2 6.5 130.8 5 130.8 C 3.1 130.8 1.4 129.7 1.4 127.5 C 1.4 125.4 2.9 124.4 4.8 124.2 C 4.8 124.2 7.5 123.8 7.5 123.8 C 8.3 123.7 9 123.4 9 122.4 C 9 121.1 7.9 120.4 6.3 120.4 C 4.6 120.4 3.6 121.2 3.4 122.5 C 3.4 122.5 1.8 122.5 1.8 122.5 C 2.1 120.2 3.9 119.1 6.4 119.1 C 9 119.1 10.5 120.3 10.5 122.8 C 10.54 122.79 10.5 130.6 10.5 130.6 L 9 130.6 C 9 130.6 9.05 128.52 9 128.5 Z M 7.2 125.1 C 7.2 125.1 5.5 125.3 5.5 125.3 C 4 125.5 3 126 3 127.4 C 3 128.8 4.1 129.4 5.3 129.4 C 7.1 129.4 9 128.1 9 125.7 C 9 125.7 9 124.6 9 124.6 C 8.6 124.9 7.9 125 7.2 125.1 Z M 29.5 124.9 C 29.5 129 26.9 130.7 24.3 130.7 C 22.4 130.7 21.1 129.8 20.5 128.6 C 20.47 128.63 20.5 134.9 20.5 134.9 L 18.9 134.9 L 18.9 119.3 L 20.4 119.3 C 20.4 119.3 20.43 121.68 20.4 121.7 C 20.9 120.3 22.4 119.1 24.5 119.1 C 26.9 119.1 29.5 120.8 29.5 124.9 Z M 27.9 124.9 C 27.9 121.8 26.1 120.6 24.2 120.6 C 22.4 120.6 20.5 121.8 20.5 125 C 20.5 128.1 22.3 129.3 24.2 129.3 C 26.1 129.3 27.9 128.1 27.9 124.9 Z M 33.6 130.6 L 32.1 130.6 L 32.1 114.6 L 33.6 114.6 L 33.6 130.6 Z M 43.9 128.5 C 43 130.2 41.3 130.8 39.9 130.8 C 38 130.8 36.2 129.7 36.2 127.5 C 36.2 125.4 37.7 124.4 39.7 124.2 C 39.7 124.2 42.3 123.8 42.3 123.8 C 43.2 123.7 43.9 123.4 43.9 122.4 C 43.9 121.1 42.8 120.4 41.2 120.4 C 39.5 120.4 38.4 121.2 38.2 122.5 C 38.2 122.5 36.7 122.5 36.7 122.5 C 37 120.2 38.8 119.1 41.3 119.1 C 43.8 119.1 45.4 120.3 45.4 122.8 C 45.4 122.79 45.4 130.6 45.4 130.6 L 43.9 130.6 C 43.9 130.6 43.91 128.52 43.9 128.5 Z M 42 125.1 C 42 125.1 40.3 125.3 40.3 125.3 C 38.9 125.5 37.8 126 37.8 127.4 C 37.8 128.8 38.9 129.4 40.1 129.4 C 41.9 129.4 43.9 128.1 43.9 125.7 C 43.9 125.7 43.9 124.6 43.9 124.6 C 43.4 124.9 42.8 125 42 125.1 Z M 53 130.8 C 49.9 130.8 47.8 128.5 47.8 125 C 47.8 121.4 49.9 119.1 53.2 119.1 C 55.7 119.1 57.7 120.5 57.8 123 C 57.8 123 56.3 123 56.3 123 C 56.2 121.4 54.8 120.5 53.1 120.5 C 50.9 120.5 49.4 122.2 49.4 124.9 C 49.4 127.7 50.9 129.4 53.1 129.4 C 54.8 129.4 56.2 128.4 56.3 126.6 C 56.3 126.6 57.8 126.6 57.8 126.6 C 57.7 129.3 55.5 130.8 53 130.8 Z M 61.2 125.3 C 61.3 128.1 63 129.4 65 129.4 C 66.5 129.4 68 128.7 68.3 127.1 C 68.3 127.1 69.7 127.1 69.7 127.1 C 69.2 129.7 67 130.8 64.9 130.8 C 62.2 130.8 59.7 129 59.7 125 C 59.7 120.9 62.3 119.1 65 119.1 C 67.6 119.1 69.8 120.8 69.8 124.6 C 69.82 124.55 69.8 125.3 69.8 125.3 C 69.8 125.3 61.23 125.31 61.2 125.3 Z M 61.3 124 C 61.3 124 68.3 124 68.3 124 C 68.3 121.7 66.8 120.5 64.9 120.5 C 63.1 120.5 61.5 121.6 61.3 124 Z M 79.3 114.6 L 77.6 114.6 L 77.6 116.5 L 79.3 116.5 L 79.3 114.6 Z M 79.2 130.6 L 77.7 130.6 L 77.7 119.3 L 79.2 119.3 L 79.2 130.6 Z M 91.7 122.9 C 91.75 122.85 91.7 130.6 91.7 130.6 L 90.2 130.6 C 90.2 130.6 90.21 123.04 90.2 123 C 90.2 121.5 89.3 120.5 87.7 120.5 C 85.8 120.5 84.1 121.9 84.1 124.7 C 84.12 124.66 84.1 130.6 84.1 130.6 L 82.6 130.6 L 82.6 119.3 L 84.1 119.3 C 84.1 119.3 84.12 121.4 84.1 121.4 C 84.8 120.1 86.1 119.1 88 119.1 C 90.3 119.1 91.7 120.4 91.7 122.9 Z M 108.6 127.4 C 108.6 129.7 106.6 130.8 104.3 130.8 C 101.9 130.8 99.6 129.6 99.4 127.1 C 99.4 127.1 101 127.1 101 127.1 C 101.3 128.8 102.8 129.4 104.3 129.4 C 105.8 129.4 107 128.9 107 127.6 C 107 126.3 105.7 126 104.4 125.8 C 102.2 125.4 99.7 125 99.7 122.4 C 99.7 120.2 101.6 119.1 103.9 119.1 C 106.3 119.1 108.2 120.2 108.3 122.5 C 108.3 122.5 106.7 122.5 106.7 122.5 C 106.6 121.1 105.3 120.5 103.9 120.5 C 102.3 120.5 101.3 121.2 101.3 122.3 C 101.3 123.8 102.6 124 104.3 124.3 C 106.4 124.6 108.6 124.9 108.6 127.4 Z M 111.1 119.3 L 112.7 119.3 C 112.7 119.3 112.66 121.17 112.7 121.2 C 113.3 119.8 114.5 119.1 115.9 119.1 C 117.6 119.1 118.9 120 119.3 121.4 C 119.8 120.2 121 119.1 123 119.1 C 125 119.1 126.6 120.2 126.6 122.5 C 126.63 122.5 126.6 130.6 126.6 130.6 L 125.1 130.6 C 125.1 130.6 125.09 123.04 125.1 123 C 125.1 121.3 124 120.5 122.7 120.5 C 121 120.5 119.6 121.8 119.6 124.1 C 119.63 124.13 119.6 130.6 119.6 130.6 L 118.1 130.6 C 118.1 130.6 118.12 123.04 118.1 123 C 118.1 121.3 117.1 120.5 115.7 120.5 C 114.1 120.5 112.7 121.7 112.7 124.1 C 112.68 124.13 112.7 130.6 112.7 130.6 L 111.1 130.6 L 111.1 119.3 Z M 136.8 128.5 C 135.9 130.2 134.2 130.8 132.8 130.8 C 130.9 130.8 129.1 129.7 129.1 127.5 C 129.1 125.4 130.6 124.4 132.6 124.2 C 132.6 124.2 135.2 123.8 135.2 123.8 C 136.1 123.7 136.8 123.4 136.8 122.4 C 136.8 121.1 135.7 120.4 134.1 120.4 C 132.4 120.4 131.4 121.2 131.1 122.5 C 131.1 122.5 129.6 122.5 129.6 122.5 C 129.9 120.2 131.7 119.1 134.2 119.1 C 136.7 119.1 138.3 120.3 138.3 122.8 C 138.3 122.79 138.3 130.6 138.3 130.6 L 136.8 130.6 C 136.8 130.6 136.81 128.52 136.8 128.5 Z M 134.9 125.1 C 134.9 125.1 133.2 125.3 133.2 125.3 C 131.8 125.5 130.7 126 130.7 127.4 C 130.7 128.8 131.8 129.4 133.1 129.4 C 134.8 129.4 136.8 128.1 136.8 125.7 C 136.8 125.7 136.8 124.6 136.8 124.6 C 136.3 124.9 135.7 125 134.9 125.1 Z M 147.1 120.6 C 147.1 120.6 146.72 120.63 146.7 120.6 C 144.3 120.6 143 122 143 124.6 C 142.99 124.6 143 130.6 143 130.6 L 141.5 130.6 L 141.5 119.3 L 143 119.3 C 143 119.3 142.96 121.38 143 121.4 C 143.5 119.9 144.9 119.2 146.6 119.2 C 146.6 119.18 147.1 119.2 147.1 119.2 L 147.1 120.6 Z M 154.6 130.6 C 154.6 130.6 152.98 130.58 153 130.6 C 151.5 130.6 150.1 130.1 150.1 127.6 C 150.15 127.62 150.1 120.7 150.1 120.7 L 147.9 120.7 L 147.9 119.3 L 150.1 119.3 L 150.1 116.1 L 151.7 115.7 L 151.7 119.3 L 154.4 119.3 L 154.4 120.7 L 151.7 120.7 C 151.7 120.7 151.68 127.6 151.7 127.6 C 151.7 128.6 152 129.2 153.2 129.2 C 153.23 129.2 154.6 129.2 154.6 129.2 L 154.6 130.6 Z M 163.9 114.6 L 162.2 114.6 L 162.2 116.5 L 163.9 116.5 L 163.9 114.6 Z M 163.8 130.6 L 162.3 130.6 L 162.3 119.3 L 163.8 119.3 L 163.8 130.6 Z M 176.4 122.9 C 176.35 122.85 176.4 130.6 176.4 130.6 L 174.8 130.6 C 174.8 130.6 174.82 123.04 174.8 123 C 174.8 121.5 173.9 120.5 172.3 120.5 C 170.4 120.5 168.7 121.9 168.7 124.7 C 168.73 124.66 168.7 130.6 168.7 130.6 L 167.2 130.6 L 167.2 119.3 L 168.7 119.3 C 168.7 119.3 168.73 121.4 168.7 121.4 C 169.4 120.1 170.7 119.1 172.6 119.1 C 174.9 119.1 176.4 120.4 176.4 122.9 Z M 184.1 130.6 L 182.4 130.6 L 178.2 119.3 L 179.9 119.3 L 183.3 129 L 186.7 119.3 L 188.3 119.3 L 184.1 130.6 Z M 190.8 125.3 C 190.9 128.1 192.6 129.4 194.6 129.4 C 196.1 129.4 197.6 128.7 197.9 127.1 C 197.9 127.1 199.3 127.1 199.3 127.1 C 198.8 129.7 196.7 130.8 194.5 130.8 C 191.8 130.8 189.3 129 189.3 125 C 189.3 120.9 191.9 119.1 194.6 119.1 C 197.2 119.1 199.4 120.8 199.4 124.6 C 199.43 124.55 199.4 125.3 199.4 125.3 C 199.4 125.3 190.84 125.31 190.8 125.3 Z M 190.9 124 C 190.9 124 197.9 124 197.9 124 C 197.9 121.7 196.4 120.5 194.5 120.5 C 192.8 120.5 191.1 121.6 190.9 124 Z M 210.4 127.4 C 210.4 129.7 208.4 130.8 206.1 130.8 C 203.7 130.8 201.4 129.6 201.2 127.1 C 201.2 127.1 202.9 127.1 202.9 127.1 C 203.1 128.8 204.6 129.4 206.1 129.4 C 207.6 129.4 208.8 128.9 208.8 127.6 C 208.8 126.3 207.5 126 206.2 125.8 C 204.1 125.4 201.5 125 201.5 122.4 C 201.5 120.2 203.4 119.1 205.7 119.1 C 208.1 119.1 210 120.2 210.1 122.5 C 210.1 122.5 208.5 122.5 208.5 122.5 C 208.4 121.1 207.1 120.5 205.7 120.5 C 204.1 120.5 203.1 121.2 203.1 122.3 C 203.1 123.8 204.5 124 206.2 124.3 C 208.2 124.6 210.4 124.9 210.4 127.4 Z M 218.1 130.6 C 218.1 130.6 216.44 130.58 216.4 130.6 C 215 130.6 213.6 130.1 213.6 127.6 C 213.61 127.62 213.6 120.7 213.6 120.7 L 211.4 120.7 L 211.4 119.3 L 213.6 119.3 L 213.6 116.1 L 215.1 115.7 L 215.1 119.3 L 217.9 119.3 L 217.9 120.7 L 215.1 120.7 C 215.1 120.7 215.14 127.6 215.1 127.6 C 215.1 128.6 215.4 129.2 216.7 129.2 C 216.69 129.2 218.1 129.2 218.1 129.2 L 218.1 130.6 Z M 219.6 125 C 219.6 121.3 221.8 119.1 224.9 119.1 C 228 119.1 230.3 121.3 230.3 125 C 230.3 128.6 228 130.8 224.9 130.8 C 221.8 130.8 219.6 128.6 219.6 125 Z M 228.7 124.9 C 228.7 122.1 227 120.5 224.9 120.5 C 222.7 120.5 221.1 122.2 221.1 125 C 221.1 127.8 222.8 129.4 224.9 129.4 C 227.1 129.4 228.7 127.7 228.7 124.9 Z M 238.5 120.6 C 238.5 120.6 238.16 120.63 238.2 120.6 C 235.8 120.6 234.4 122 234.4 124.6 C 234.42 124.6 234.4 130.6 234.4 130.6 L 232.9 130.6 L 232.9 119.3 L 234.4 119.3 C 234.4 119.3 234.4 121.38 234.4 121.4 C 234.9 119.9 236.3 119.2 238 119.2 C 238.03 119.18 238.5 119.2 238.5 119.2 L 238.5 120.6 Z M 248.9 127.4 C 248.9 129.7 246.8 130.8 244.5 130.8 C 242.1 130.8 239.9 129.6 239.7 127.1 C 239.7 127.1 241.3 127.1 241.3 127.1 C 241.6 128.8 243 129.4 244.6 129.4 C 246 129.4 247.3 128.9 247.3 127.6 C 247.3 126.3 246 126 244.7 125.8 C 242.5 125.4 239.9 125 239.9 122.4 C 239.9 120.2 241.9 119.1 244.2 119.1 C 246.6 119.1 248.5 120.2 248.6 122.5 C 248.6 122.5 247 122.5 247 122.5 C 246.9 121.1 245.6 120.5 244.1 120.5 C 242.6 120.5 241.5 121.2 241.5 122.3 C 241.5 123.8 242.9 124 244.6 124.3 C 246.6 124.6 248.9 124.9 248.9 127.4 Z M 252.5 116.8 C 252.5 116.78 251.5 116.8 251.5 116.8 L 251.5 114.7 L 253.7 114.7 C 253.7 114.7 253.72 116.85 253.7 116.8 C 253.7 119.3 252.2 120.2 250.7 120.4 C 250.7 120.4 250.5 119.4 250.5 119.4 C 252.2 119.1 252.5 118.1 252.5 116.8 Z M 272.3 124.9 C 272.3 129 269.7 130.7 267.2 130.7 C 265.2 130.7 264 129.8 263.3 128.6 C 263.33 128.63 263.3 134.9 263.3 134.9 L 261.8 134.9 L 261.8 119.3 L 263.3 119.3 C 263.3 119.3 263.29 121.68 263.3 121.7 C 263.8 120.3 265.3 119.1 267.3 119.1 C 269.8 119.1 272.3 120.8 272.3 124.9 Z M 270.7 124.9 C 270.7 121.8 269 120.6 267.1 120.6 C 265.2 120.6 263.4 121.8 263.4 125 C 263.4 128.1 265.2 129.3 267.1 129.3 C 268.9 129.3 270.7 128.1 270.7 124.9 Z M 274.2 125 C 274.2 121.3 276.4 119.1 279.5 119.1 C 282.7 119.1 284.9 121.3 284.9 125 C 284.9 128.6 282.7 130.8 279.6 130.8 C 276.5 130.8 274.2 128.6 274.2 125 Z M 283.3 124.9 C 283.3 122.1 281.6 120.5 279.5 120.5 C 277.3 120.5 275.8 122.2 275.8 125 C 275.8 127.8 277.5 129.4 279.6 129.4 C 281.8 129.4 283.3 127.7 283.3 124.9 Z M 293.2 120.6 C 293.2 120.6 292.8 120.63 292.8 120.6 C 290.4 120.6 289.1 122 289.1 124.6 C 289.06 124.6 289.1 130.6 289.1 130.6 L 287.5 130.6 L 287.5 119.3 L 289 119.3 C 289 119.3 289.04 121.38 289 121.4 C 289.6 119.9 290.9 119.2 292.7 119.2 C 292.67 119.18 293.2 119.2 293.2 119.2 L 293.2 120.6 Z M 300.7 130.6 C 300.7 130.6 299.05 130.58 299.1 130.6 C 297.6 130.6 296.2 130.1 296.2 127.6 C 296.22 127.62 296.2 120.7 296.2 120.7 L 294 120.7 L 294 119.3 L 296.2 119.3 L 296.2 116.1 L 297.8 115.7 L 297.8 119.3 L 300.5 119.3 L 300.5 120.7 L 297.8 120.7 C 297.8 120.7 297.75 127.6 297.8 127.6 C 297.8 128.6 298 129.2 299.3 129.2 C 299.31 129.2 300.7 129.2 300.7 129.2 L 300.7 130.6 Z M 306.5 115.9 C 305.2 115.9 305 116.5 305 117.6 C 304.96 117.56 305 119.3 305 119.3 L 307.5 119.3 L 307.5 120.7 L 305 120.7 L 305 130.6 L 303.4 130.6 L 303.4 120.7 L 301.6 120.7 L 301.6 119.3 L 303.4 119.3 C 303.4 119.3 303.42 117.52 303.4 117.5 C 303.4 115 304.8 114.6 306.3 114.6 C 306.26 114.58 307.7 114.6 307.7 114.6 L 307.7 115.9 C 307.7 115.9 306.51 115.94 306.5 115.9 Z M 308.8 125 C 308.8 121.3 311 119.1 314.1 119.1 C 317.2 119.1 319.5 121.3 319.5 125 C 319.5 128.6 317.3 130.8 314.2 130.8 C 311 130.8 308.8 128.6 308.8 125 Z M 317.9 124.9 C 317.9 122.1 316.2 120.5 314.1 120.5 C 311.9 120.5 310.4 122.2 310.4 125 C 310.4 127.8 312.1 129.4 314.2 129.4 C 316.4 129.4 317.9 127.7 317.9 124.9 Z M 323.6 130.6 L 322.1 130.6 L 322.1 114.6 L 323.6 114.6 L 323.6 130.6 Z M 328.6 114.6 L 326.9 114.6 L 326.9 116.5 L 328.6 116.5 L 328.6 114.6 Z M 328.5 130.6 L 327 130.6 L 327 119.3 L 328.5 119.3 L 328.5 130.6 Z M 331.2 125 C 331.2 121.3 333.4 119.1 336.5 119.1 C 339.6 119.1 341.9 121.3 341.9 125 C 341.9 128.6 339.6 130.8 336.5 130.8 C 333.4 130.8 331.2 128.6 331.2 125 Z M 340.3 124.9 C 340.3 122.1 338.6 120.5 336.5 120.5 C 334.3 120.5 332.7 122.2 332.7 125 C 332.7 127.8 334.4 129.4 336.5 129.4 C 338.7 129.4 340.3 127.7 340.3 124.9 Z M 352.9 127.4 C 352.9 129.7 350.8 130.8 348.5 130.8 C 346.1 130.8 343.9 129.6 343.6 127.1 C 343.6 127.1 345.3 127.1 345.3 127.1 C 345.5 128.8 347 129.4 348.5 129.4 C 350 129.4 351.3 128.9 351.3 127.6 C 351.3 126.3 350 126 348.6 125.8 C 346.5 125.4 343.9 125 343.9 122.4 C 343.9 120.2 345.8 119.1 348.2 119.1 C 350.5 119.1 352.4 120.2 352.6 122.5 C 352.6 122.5 351 122.5 351 122.5 C 350.9 121.1 349.6 120.5 348.1 120.5 C 346.6 120.5 345.5 121.2 345.5 122.3 C 345.5 123.8 346.9 124 348.6 124.3 C 350.6 124.6 352.9 124.9 352.9 127.4 Z M 354.6 128.4 L 356.8 128.4 L 356.8 130.6 L 354.6 130.6 L 354.6 128.4 Z " stroke="none" fill="#000"/>  </g>  <g id="Polygon9469">    <path d="M 18.3 105.4 L 15.5 105.4 L 15.5 94.5 L 11.5 105.4 L 8.8 105.4 L 4.8 94.5 L 4.8 105.4 L 2.1 105.4 L 2.1 89.6 L 5.8 89.6 L 10.2 101.2 L 14.5 89.6 L 18.3 89.6 L 18.3 105.4 Z M 30.5 97.6 C 30.47 97.59 30.5 105.4 30.5 105.4 L 27.7 105.4 C 27.7 105.4 27.74 103.7 27.7 103.7 C 26.8 105.2 25.4 105.6 24.2 105.6 C 22.4 105.6 20.5 104.5 20.5 102 C 20.5 100.2 21.5 99 24.2 98.6 C 24.2 98.6 26.7 98.2 26.7 98.2 C 27.4 98.1 27.8 97.9 27.8 97.2 C 27.8 96.2 27 95.8 25.9 95.8 C 24.4 95.8 23.7 96.5 23.6 97.5 C 23.6 97.5 20.9 97.5 20.9 97.5 C 21.2 94.8 23.4 93.6 26 93.6 C 28.7 93.6 30.5 94.9 30.5 97.6 Z M 27.8 100.5 C 27.8 100.5 27.8 99.9 27.8 99.9 C 27.5 100 27 100.2 26.4 100.2 C 26.4 100.2 25.1 100.4 25.1 100.4 C 23.7 100.6 23.3 101.2 23.3 101.9 C 23.3 102.8 23.9 103.3 24.9 103.3 C 26.3 103.3 27.8 102.2 27.8 100.5 Z M 39.5 96.4 C 39.5 96.4 38.8 96.37 38.8 96.4 C 36.9 96.4 35.8 97.4 35.8 99.7 C 35.78 99.71 35.8 105.4 35.8 105.4 L 33 105.4 L 33 93.8 L 35.8 93.8 C 35.8 93.8 35.76 95.45 35.8 95.4 C 36.3 94.2 37.4 93.7 38.8 93.7 C 38.78 93.66 39.5 93.7 39.5 93.7 L 39.5 96.4 Z M 45 100.9 L 43.7 102.3 L 43.7 105.4 L 40.9 105.4 L 40.9 89.4 L 43.7 89.4 L 43.7 98.5 L 47.8 93.8 L 51.5 93.8 L 46.9 98.8 L 51.7 105.4 L 48.2 105.4 L 45 100.9 Z M 71.7 105.4 L 68.7 105.4 L 68.7 98.8 L 61.6 98.8 L 61.6 105.4 L 58.7 105.4 L 58.7 89.6 L 61.6 89.6 L 61.6 96.1 L 68.7 96.1 L 68.7 89.6 L 71.7 89.6 L 71.7 105.4 Z M 85.2 99.6 C 85.2 103.4 82.8 105.6 79.5 105.6 C 76.3 105.6 73.9 103.4 73.9 99.6 C 73.9 95.8 76.3 93.6 79.5 93.6 C 82.8 93.6 85.2 95.8 85.2 99.6 Z M 76.7 99.6 C 76.7 101.9 78 103 79.6 103 C 81.2 103 82.3 101.8 82.3 99.6 C 82.3 97.3 81.1 96.2 79.5 96.2 C 77.8 96.2 76.7 97.4 76.7 99.6 Z M 90 105.4 L 87.2 105.4 L 87.2 89.4 L 90 89.4 L 90 105.4 Z M 109.1 97.6 C 109.07 97.57 109.1 105.4 109.1 105.4 L 106.3 105.4 C 106.3 105.4 106.28 98.12 106.3 98.1 C 106.3 96.7 105.6 96.1 104.5 96.1 C 103.1 96.1 102.3 96.9 102.3 98.9 C 102.29 98.87 102.3 105.4 102.3 105.4 L 99.5 105.4 C 99.5 105.4 99.49 98.12 99.5 98.1 C 99.5 96.7 98.8 96.1 97.7 96.1 C 96.4 96.1 95.5 96.9 95.5 98.9 C 95.5 98.85 95.5 105.4 95.5 105.4 L 92.7 105.4 L 92.7 93.8 L 95.5 93.8 C 95.5 93.8 95.46 95.49 95.5 95.5 C 95.8 94.6 96.7 93.6 98.5 93.6 C 100 93.6 101.1 94.3 101.7 95.5 C 102.1 94.7 102.9 93.6 105 93.6 C 107.5 93.6 109.1 95.1 109.1 97.6 Z M 121 97.6 C 120.95 97.59 121 105.4 121 105.4 L 118.2 105.4 C 118.2 105.4 118.22 103.7 118.2 103.7 C 117.3 105.2 115.9 105.6 114.7 105.6 C 112.9 105.6 111 104.5 111 102 C 111 100.2 112 99 114.7 98.6 C 114.7 98.6 117.2 98.2 117.2 98.2 C 117.8 98.1 118.3 97.9 118.3 97.2 C 118.3 96.2 117.5 95.8 116.4 95.8 C 114.9 95.8 114.2 96.5 114.1 97.5 C 114.1 97.5 111.4 97.5 111.4 97.5 C 111.7 94.8 113.9 93.6 116.5 93.6 C 119.2 93.6 121 94.9 121 97.6 Z M 118.2 100.5 C 118.2 100.5 118.2 99.9 118.2 99.9 C 118 100 117.4 100.2 116.9 100.2 C 116.9 100.2 115.6 100.4 115.6 100.4 C 114.2 100.6 113.8 101.2 113.8 101.9 C 113.8 102.8 114.4 103.3 115.4 103.3 C 116.8 103.3 118.2 102.2 118.2 100.5 Z M 133.7 97.9 C 133.66 97.91 133.7 105.4 133.7 105.4 L 130.9 105.4 C 130.9 105.4 130.87 98.16 130.9 98.2 C 130.9 96.9 130.1 96.1 128.8 96.1 C 127.2 96.1 126.3 97.2 126.3 99.1 C 126.27 99.12 126.3 105.4 126.3 105.4 L 123.5 105.4 L 123.5 93.8 L 126.2 93.8 C 126.2 93.8 126.25 95.47 126.2 95.5 C 126.9 94.4 127.8 93.6 129.8 93.6 C 132.4 93.6 133.7 95.1 133.7 97.9 Z M 136.3 94.3 L 138.4 94.3 L 138.4 96.5 L 136.3 96.5 L 136.3 94.3 Z M 136.3 103.2 L 138.4 103.2 L 138.4 105.4 L 136.3 105.4 L 136.3 103.2 Z M 148.9 105.4 L 147.4 105.4 L 147.4 89.6 L 157.2 89.6 L 157.2 91 L 148.9 91 L 148.9 96.7 L 156.7 96.7 L 156.7 98.1 L 148.9 98.1 L 148.9 105.4 Z M 160.9 89.4 L 159.1 89.4 L 159.1 91.3 L 160.9 91.3 L 160.9 89.4 Z M 160.7 105.4 L 159.2 105.4 L 159.2 94.1 L 160.7 94.1 L 160.7 105.4 Z M 167.3 99.6 L 163.2 94.1 L 165.1 94.1 L 168.3 98.5 L 171.4 94.1 L 173.3 94.1 L 169.2 99.5 L 173.6 105.4 L 171.6 105.4 L 168.2 100.7 L 164.9 105.4 L 163 105.4 L 167.3 99.6 Z M 176.2 100.1 C 176.2 102.9 177.9 104.2 179.9 104.2 C 181.4 104.2 182.9 103.5 183.2 101.9 C 183.2 101.9 184.7 101.9 184.7 101.9 C 184.2 104.5 182 105.6 179.8 105.6 C 177.1 105.6 174.7 103.8 174.7 99.8 C 174.7 95.7 177.2 93.9 179.9 93.9 C 182.6 93.9 184.8 95.6 184.8 99.4 C 184.75 99.35 184.8 100.1 184.8 100.1 C 184.8 100.1 176.16 100.11 176.2 100.1 Z M 176.2 98.8 C 176.2 98.8 183.2 98.8 183.2 98.8 C 183.2 96.5 181.7 95.3 179.8 95.3 C 178.1 95.3 176.4 96.4 176.2 98.8 Z M 197.2 105.4 L 195.7 105.4 C 195.7 105.4 195.71 103.2 195.7 103.2 C 195.2 104.5 193.8 105.6 191.7 105.6 C 188.7 105.6 186.6 103.3 186.6 99.7 C 186.6 96.2 188.7 93.9 191.7 93.9 C 193.6 93.9 195 94.8 195.7 96 C 195.65 96.02 195.7 89.4 195.7 89.4 L 197.2 89.4 L 197.2 105.4 Z M 195.6 99.7 C 195.6 96.9 194.1 95.3 191.9 95.3 C 189.7 95.3 188.2 97 188.2 99.7 C 188.2 102.5 189.7 104.2 191.9 104.2 C 194.1 104.2 195.6 102.5 195.6 99.7 Z M 208.1 105.4 L 206.5 105.4 L 206.5 89.6 L 208.1 89.6 L 208.1 105.4 Z M 221 97.7 C 220.95 97.65 221 105.4 221 105.4 L 219.4 105.4 C 219.4 105.4 219.42 97.84 219.4 97.8 C 219.4 96.3 218.5 95.3 216.9 95.3 C 215 95.3 213.3 96.7 213.3 99.5 C 213.33 99.46 213.3 105.4 213.3 105.4 L 211.8 105.4 L 211.8 94.1 L 213.3 94.1 C 213.3 94.1 213.33 96.2 213.3 96.2 C 214 94.9 215.3 93.9 217.2 93.9 C 219.5 93.9 221 95.2 221 97.7 Z M 228.7 105.6 C 225.6 105.6 223.5 103.3 223.5 99.8 C 223.5 96.2 225.6 93.9 228.8 93.9 C 231.3 93.9 233.3 95.3 233.5 97.8 C 233.5 97.8 232 97.8 232 97.8 C 231.8 96.2 230.4 95.3 228.8 95.3 C 226.6 95.3 225 97 225 99.7 C 225 102.5 226.6 104.2 228.8 104.2 C 230.5 104.2 231.9 103.2 232 101.4 C 232 101.4 233.5 101.4 233.5 101.4 C 233.3 104.1 231.2 105.6 228.7 105.6 Z M 235.4 99.8 C 235.4 96.1 237.6 93.9 240.7 93.9 C 243.8 93.9 246.1 96.1 246.1 99.8 C 246.1 103.4 243.8 105.6 240.7 105.6 C 237.6 105.6 235.4 103.4 235.4 99.8 Z M 244.5 99.7 C 244.5 96.9 242.8 95.3 240.7 95.3 C 238.5 95.3 237 97 237 99.8 C 237 102.6 238.7 104.2 240.8 104.2 C 242.9 104.2 244.5 102.5 244.5 99.7 Z M 248.7 94.1 L 250.2 94.1 C 250.2 94.1 250.21 95.97 250.2 96 C 250.8 94.6 252.1 93.9 253.5 93.9 C 255.1 93.9 256.5 94.8 256.8 96.2 C 257.3 95 258.6 93.9 260.5 93.9 C 262.6 93.9 264.2 95 264.2 97.3 C 264.17 97.3 264.2 105.4 264.2 105.4 L 262.6 105.4 C 262.6 105.4 262.64 97.84 262.6 97.8 C 262.6 96.1 261.6 95.3 260.2 95.3 C 258.6 95.3 257.2 96.6 257.2 98.9 C 257.18 98.93 257.2 105.4 257.2 105.4 L 255.7 105.4 C 255.7 105.4 255.67 97.84 255.7 97.8 C 255.7 96.1 254.6 95.3 253.3 95.3 C 251.6 95.3 250.2 96.5 250.2 98.9 C 250.23 98.93 250.2 105.4 250.2 105.4 L 248.7 105.4 L 248.7 94.1 Z M 268.2 100.1 C 268.2 102.9 270 104.2 272 104.2 C 273.5 104.2 274.9 103.5 275.3 101.9 C 275.3 101.9 276.7 101.9 276.7 101.9 C 276.2 104.5 274 105.6 271.9 105.6 C 269.2 105.6 266.7 103.8 266.7 99.8 C 266.7 95.7 269.2 93.9 271.9 93.9 C 274.6 93.9 276.8 95.6 276.8 99.4 C 276.79 99.35 276.8 100.1 276.8 100.1 C 276.8 100.1 268.2 100.11 268.2 100.1 Z M 268.2 98.8 C 268.2 98.8 275.2 98.8 275.2 98.8 C 275.2 96.5 273.8 95.3 271.9 95.3 C 270.1 95.3 268.5 96.4 268.2 98.8 Z M 293.8 97.7 C 293.82 97.65 293.8 105.4 293.8 105.4 L 292.3 105.4 C 292.3 105.4 292.29 97.84 292.3 97.8 C 292.3 96.3 291.4 95.3 289.8 95.3 C 287.9 95.3 286.2 96.7 286.2 99.5 C 286.2 99.46 286.2 105.4 286.2 105.4 L 284.7 105.4 L 284.7 89.4 L 286.2 89.4 C 286.2 89.4 286.2 96.08 286.2 96.1 C 286.9 94.8 288.1 93.9 290.1 93.9 C 292.4 93.9 293.8 95.2 293.8 97.7 Z M 304 103.3 C 303.1 105 301.4 105.6 300 105.6 C 298.1 105.6 296.3 104.5 296.3 102.3 C 296.3 100.2 297.8 99.2 299.8 99 C 299.8 99 302.4 98.6 302.4 98.6 C 303.3 98.5 304 98.2 304 97.2 C 304 95.9 302.9 95.2 301.3 95.2 C 299.6 95.2 298.5 96 298.3 97.3 C 298.3 97.3 296.8 97.3 296.8 97.3 C 297.1 95 298.9 93.9 301.4 93.9 C 303.9 93.9 305.5 95.1 305.5 97.6 C 305.5 97.59 305.5 105.4 305.5 105.4 L 304 105.4 C 304 105.4 304.01 103.32 304 103.3 Z M 302.1 99.9 C 302.1 99.9 300.4 100.1 300.4 100.1 C 299 100.3 297.9 100.8 297.9 102.2 C 297.9 103.6 299 104.2 300.3 104.2 C 302 104.2 304 102.9 304 100.5 C 304 100.5 304 99.4 304 99.4 C 303.5 99.7 302.9 99.8 302.1 99.9 Z M 317 102.2 C 317 104.5 315 105.6 312.7 105.6 C 310.3 105.6 308 104.4 307.8 101.9 C 307.8 101.9 309.4 101.9 309.4 101.9 C 309.7 103.6 311.2 104.2 312.7 104.2 C 314.2 104.2 315.4 103.7 315.4 102.4 C 315.4 101.1 314.1 100.8 312.8 100.6 C 310.6 100.2 308.1 99.8 308.1 97.2 C 308.1 95 310 93.9 312.3 93.9 C 314.7 93.9 316.6 95 316.7 97.3 C 316.7 97.3 315.1 97.3 315.1 97.3 C 315 95.9 313.7 95.3 312.3 95.3 C 310.7 95.3 309.7 96 309.7 97.1 C 309.7 98.6 311 98.8 312.7 99.1 C 314.8 99.4 317 99.7 317 102.2 Z M 326.3 105.4 L 324.8 105.4 L 324.8 89.4 L 326.3 89.4 L 326.3 105.4 Z M 329 99.8 C 329 96.1 331.2 93.9 334.3 93.9 C 337.4 93.9 339.6 96.1 339.6 99.8 C 339.6 103.4 337.4 105.6 334.3 105.6 C 331.2 105.6 329 103.4 329 99.8 Z M 338.1 99.7 C 338.1 96.9 336.4 95.3 334.3 95.3 C 332.1 95.3 330.5 97 330.5 99.8 C 330.5 102.6 332.2 104.2 334.3 104.2 C 336.5 104.2 338.1 102.5 338.1 99.7 Z M 351.4 97.7 C 351.43 97.65 351.4 105.4 351.4 105.4 L 349.9 105.4 C 349.9 105.4 349.89 97.84 349.9 97.8 C 349.9 96.3 349 95.3 347.4 95.3 C 345.5 95.3 343.8 96.7 343.8 99.5 C 343.8 99.46 343.8 105.4 343.8 105.4 L 342.3 105.4 L 342.3 94.1 L 343.8 94.1 C 343.8 94.1 343.8 96.2 343.8 96.2 C 344.5 94.9 345.7 93.9 347.7 93.9 C 350 93.9 351.4 95.2 351.4 97.7 Z M 364.4 104.9 C 364.4 108.3 362.2 110 359.3 110 C 356.8 110 354.6 108.7 354.2 106.1 C 354.2 106.1 355.8 106.1 355.8 106.1 C 356 107.5 357 108.7 359.3 108.7 C 361.4 108.7 362.9 107.6 362.9 105 C 362.9 105 362.9 102.7 362.9 102.7 C 362.1 104.4 360.4 105 358.9 105 C 356.2 105 353.9 103.1 353.9 99.4 C 353.9 95.7 356.3 93.9 359 93.9 C 360.8 93.9 362.2 94.7 362.9 95.9 C 362.87 95.93 362.9 94.1 362.9 94.1 L 364.4 94.1 C 364.4 94.1 364.38 104.88 364.4 104.9 Z M 362.8 99.4 C 362.8 96.6 361.1 95.2 359.2 95.2 C 357.3 95.2 355.5 96.6 355.5 99.4 C 355.5 102.2 357.2 103.6 359.2 103.6 C 361 103.6 362.8 102.4 362.8 99.4 Z M 382.5 97.7 C 382.46 97.65 382.5 105.4 382.5 105.4 L 380.9 105.4 C 380.9 105.4 380.93 97.84 380.9 97.8 C 380.9 96.3 380 95.3 378.5 95.3 C 376.5 95.3 374.8 96.7 374.8 99.5 C 374.84 99.46 374.8 105.4 374.8 105.4 L 373.3 105.4 L 373.3 89.4 L 374.8 89.4 C 374.8 89.4 374.84 96.08 374.8 96.1 C 375.5 94.8 376.7 93.9 378.7 93.9 C 381 93.9 382.5 95.2 382.5 97.7 Z M 392.6 103.3 C 391.8 105 390.1 105.6 388.6 105.6 C 386.7 105.6 385 104.5 385 102.3 C 385 100.2 386.5 99.2 388.4 99 C 388.4 99 391.1 98.6 391.1 98.6 C 391.9 98.5 392.6 98.2 392.6 97.2 C 392.6 95.9 391.5 95.2 389.9 95.2 C 388.2 95.2 387.2 96 387 97.3 C 387 97.3 385.4 97.3 385.4 97.3 C 385.7 95 387.5 93.9 390 93.9 C 392.6 93.9 394.1 95.1 394.1 97.6 C 394.14 97.59 394.1 105.4 394.1 105.4 L 392.6 105.4 C 392.6 105.4 392.65 103.32 392.6 103.3 Z M 390.8 99.9 C 390.8 99.9 389.1 100.1 389.1 100.1 C 387.6 100.3 386.6 100.8 386.6 102.2 C 386.6 103.6 387.7 104.2 388.9 104.2 C 390.7 104.2 392.6 102.9 392.6 100.5 C 392.6 100.5 392.6 99.4 392.6 99.4 C 392.2 99.7 391.5 99.8 390.8 99.9 Z M 407.1 105.4 L 405.6 105.4 C 405.6 105.4 405.63 103.2 405.6 103.2 C 405.1 104.5 403.7 105.6 401.6 105.6 C 398.7 105.6 396.6 103.3 396.6 99.7 C 396.6 96.2 398.7 93.9 401.6 93.9 C 403.5 93.9 405 94.8 405.6 96 C 405.56 96.02 405.6 89.4 405.6 89.4 L 407.1 89.4 L 407.1 105.4 Z M 405.5 99.7 C 405.5 96.9 404 95.3 401.8 95.3 C 399.6 95.3 398.1 97 398.1 99.7 C 398.1 102.5 399.6 104.2 401.8 104.2 C 404 104.2 405.5 102.5 405.5 99.7 Z " stroke="none" fill="#000"/>  </g>  <g id="Polygon9468">    <path d="M 12.3 62.7 C 12.28 62.71 12.3 70.2 12.3 70.2 L 9.5 70.2 C 9.5 70.2 9.49 62.96 9.5 63 C 9.5 61.7 8.8 60.9 7.5 60.9 C 5.9 60.9 4.9 62 4.9 63.9 C 4.89 63.92 4.9 70.2 4.9 70.2 L 2.1 70.2 L 2.1 54.2 L 4.9 54.2 C 4.9 54.2 4.89 60.23 4.9 60.2 C 5.6 59.1 6.5 58.4 8.4 58.4 C 11 58.4 12.3 59.9 12.3 62.7 Z M 24.2 62.4 C 24.17 62.39 24.2 70.2 24.2 70.2 L 21.4 70.2 C 21.4 70.2 21.44 68.5 21.4 68.5 C 20.5 70 19.1 70.4 17.9 70.4 C 16.1 70.4 14.2 69.3 14.2 66.8 C 14.2 65 15.2 63.8 17.9 63.4 C 17.9 63.4 20.4 63 20.4 63 C 21.1 62.9 21.5 62.7 21.5 62 C 21.5 61 20.7 60.6 19.6 60.6 C 18.1 60.6 17.4 61.3 17.3 62.3 C 17.3 62.3 14.6 62.3 14.6 62.3 C 14.9 59.6 17.1 58.4 19.7 58.4 C 22.4 58.4 24.2 59.7 24.2 62.4 Z M 21.5 65.3 C 21.5 65.3 21.5 64.7 21.5 64.7 C 21.2 64.8 20.7 65 20.1 65 C 20.1 65 18.8 65.2 18.8 65.2 C 17.4 65.4 17 66 17 66.7 C 17 67.6 17.6 68.1 18.6 68.1 C 20 68.1 21.5 67 21.5 65.3 Z M 32.6 70.2 L 29.6 70.2 L 25.3 58.6 L 28.3 58.6 L 31.1 66.9 L 34 58.6 L 36.9 58.6 L 32.6 70.2 Z M 40 65.2 C 40.1 67.1 41.4 68 43 68 C 44.1 68 45.1 67.6 45.5 66.5 C 45.5 66.5 48 66.5 48 66.5 C 47.5 69.1 45.2 70.4 42.9 70.4 C 40.1 70.4 37.3 68.5 37.3 64.4 C 37.3 60.4 39.9 58.4 42.9 58.4 C 45.7 58.4 48.1 60.2 48.1 64.1 C 48.06 64.09 48.1 65.2 48.1 65.2 C 48.1 65.2 40 65.23 40 65.2 Z M 40.1 63.2 C 40.1 63.2 45.3 63.2 45.3 63.2 C 45.3 61.7 44.3 60.8 42.8 60.8 C 41.6 60.8 40.3 61.5 40.1 63.2 Z M 55.2 57.1 L 58.2 57.1 L 58.2 53.9 L 55.2 53.9 L 55.2 57.1 Z M 55.3 58.6 L 58.1 58.6 L 58.1 70.2 L 55.3 70.2 L 55.3 58.6 Z M 71 62.7 C 70.97 62.71 71 70.2 71 70.2 L 68.2 70.2 C 68.2 70.2 68.18 62.96 68.2 63 C 68.2 61.7 67.4 60.9 66.1 60.9 C 64.5 60.9 63.6 62 63.6 63.9 C 63.58 63.92 63.6 70.2 63.6 70.2 L 60.8 70.2 L 60.8 58.6 L 63.6 58.6 C 63.6 58.6 63.56 60.27 63.6 60.3 C 64.2 59.2 65.2 58.4 67.1 58.4 C 69.7 58.4 71 59.9 71 62.7 Z M 88.5 62.4 C 88.53 62.39 88.5 70.2 88.5 70.2 L 85.8 70.2 C 85.8 70.2 85.8 68.5 85.8 68.5 C 84.9 70 83.5 70.4 82.3 70.4 C 80.4 70.4 78.5 69.3 78.5 66.8 C 78.5 65 79.6 63.8 82.2 63.4 C 82.2 63.4 84.7 63 84.7 63 C 85.4 62.9 85.9 62.7 85.9 62 C 85.9 61 85.1 60.6 84 60.6 C 82.5 60.6 81.8 61.3 81.7 62.3 C 81.7 62.3 79 62.3 79 62.3 C 79.3 59.6 81.5 58.4 84.1 58.4 C 86.8 58.4 88.5 59.7 88.5 62.4 Z M 85.8 65.3 C 85.8 65.3 85.8 64.7 85.8 64.7 C 85.5 64.8 85 65 84.5 65 C 84.5 65 83.2 65.2 83.2 65.2 C 81.8 65.4 81.3 66 81.3 66.7 C 81.3 67.6 82 68.1 82.9 68.1 C 84.4 68.1 85.8 67 85.8 65.3 Z M 107.7 64.2 C 107.7 68.4 105.1 70.3 102.4 70.3 C 100.8 70.3 99.7 69.6 99.1 68.8 C 99.09 68.8 99.1 74.5 99.1 74.5 L 96.3 74.5 L 96.3 58.6 L 99 58.6 C 99 58.6 99.03 60.44 99 60.4 C 99.6 59.2 100.9 58.4 102.6 58.4 C 105.4 58.4 107.7 60.3 107.7 64.2 Z M 104.8 64.4 C 104.8 62 103.5 60.9 101.9 60.9 C 100.4 60.9 99 62 99 64.4 C 99 66.7 100.4 67.8 101.9 67.8 C 103.5 67.8 104.8 66.7 104.8 64.4 Z M 120.3 64.4 C 120.3 68.2 117.8 70.4 114.6 70.4 C 111.4 70.4 108.9 68.2 108.9 64.4 C 108.9 60.6 111.4 58.4 114.6 58.4 C 117.8 58.4 120.3 60.6 120.3 64.4 Z M 111.8 64.4 C 111.8 66.7 113.1 67.8 114.6 67.8 C 116.3 67.8 117.4 66.6 117.4 64.4 C 117.4 62.1 116.1 61 114.6 61 C 112.9 61 111.8 62.2 111.8 64.4 Z M 128.8 61.2 C 128.8 61.2 128.07 61.17 128.1 61.2 C 126.1 61.2 125 62.2 125 64.5 C 125.05 64.51 125 70.2 125 70.2 L 122.3 70.2 L 122.3 58.6 L 125 58.6 C 125 58.6 125.03 60.25 125 60.2 C 125.6 59 126.7 58.5 128.1 58.5 C 128.05 58.46 128.8 58.5 128.8 58.5 L 128.8 61.2 Z M 136.5 70.2 C 136.5 70.2 134.69 70.18 134.7 70.2 C 132.5 70.2 131.1 69.5 131.1 66.4 C 131.14 66.4 131.1 61.1 131.1 61.1 L 129 61.1 L 129 58.6 L 131.1 58.6 L 131.1 56 L 133.9 55.2 L 133.9 58.6 L 136.2 58.6 L 136.2 61.1 L 133.9 61.1 C 133.9 61.1 133.93 66.53 133.9 66.5 C 133.9 67.2 134.1 67.7 135.1 67.7 C 135.11 67.7 136.5 67.7 136.5 67.7 L 136.5 70.2 Z M 142.4 56.7 C 141.4 56.7 141.2 57.1 141.2 57.8 C 141.24 57.83 141.2 58.6 141.2 58.6 L 143.4 58.6 L 143.4 61.1 L 141.2 61.1 L 141.2 70.2 L 138.4 70.2 L 138.4 61.1 L 136.7 61.1 L 136.7 58.6 L 138.4 58.6 C 138.4 58.6 138.45 57.96 138.4 58 C 138.4 54.9 139.8 54.2 142 54.2 C 142 54.18 143.7 54.2 143.7 54.2 L 143.7 56.7 C 143.7 56.7 142.42 56.66 142.4 56.7 Z M 155.4 64.4 C 155.4 68.2 153 70.4 149.7 70.4 C 146.5 70.4 144.1 68.2 144.1 64.4 C 144.1 60.6 146.5 58.4 149.7 58.4 C 153 58.4 155.4 60.6 155.4 64.4 Z M 147 64.4 C 147 66.7 148.2 67.8 149.8 67.8 C 151.4 67.8 152.6 66.6 152.6 64.4 C 152.6 62.1 151.3 61 149.7 61 C 148.1 61 147 62.2 147 64.4 Z M 160.2 70.2 L 157.4 70.2 L 157.4 54.2 L 160.2 54.2 L 160.2 70.2 Z M 162.8 57.1 L 165.8 57.1 L 165.8 53.9 L 162.8 53.9 L 162.8 57.1 Z M 162.9 58.6 L 165.7 58.6 L 165.7 70.2 L 162.9 70.2 L 162.9 58.6 Z M 179 64.4 C 179 68.2 176.6 70.4 173.3 70.4 C 170.1 70.4 167.7 68.2 167.7 64.4 C 167.7 60.6 170.1 58.4 173.3 58.4 C 176.6 58.4 179 60.6 179 64.4 Z M 170.5 64.4 C 170.5 66.7 171.8 67.8 173.4 67.8 C 175 67.8 176.1 66.6 176.1 64.4 C 176.1 62.1 174.9 61 173.3 61 C 171.6 61 170.5 62.2 170.5 64.4 Z M 183.8 64.6 C 183.8 61.9 185.1 61.4 186.4 60.5 C 187.4 59.8 187.8 59.2 187.8 58.4 C 187.8 57.2 187 56.6 185.7 56.6 C 184.3 56.6 183.4 57.4 183.3 58.8 C 183.3 58.8 180.5 58.8 180.5 58.8 C 180.7 55.4 183.2 54.2 185.8 54.2 C 188.6 54.2 190.8 55.5 190.8 58.3 C 190.8 60.5 189.4 61.4 188 62.4 C 186.9 63.2 186.4 63.7 186.4 64.6 C 186.43 64.64 186.4 65.3 186.4 65.3 L 183.8 65.3 C 183.8 65.3 183.76 64.55 183.8 64.6 Z M 183.5 66.9 L 186.7 66.9 L 186.7 70.2 L 183.5 70.2 L 183.5 66.9 Z " stroke="none" fill="#000"/>  </g>  <g id="Polygon9467">    <path d="M 12.3 37.5 C 12.28 37.51 12.3 45 12.3 45 L 9.5 45 C 9.5 45 9.49 37.76 9.5 37.8 C 9.5 36.5 8.8 35.7 7.5 35.7 C 5.9 35.7 4.9 36.8 4.9 38.7 C 4.89 38.72 4.9 45 4.9 45 L 2.1 45 L 2.1 33.4 L 4.9 33.4 C 4.9 33.4 4.87 35.07 4.9 35.1 C 5.5 34 6.5 33.2 8.4 33.2 C 11 33.2 12.3 34.7 12.3 37.5 Z M 16.9 40 C 16.9 41.9 18.3 42.8 19.9 42.8 C 21 42.8 22 42.4 22.3 41.3 C 22.3 41.3 24.9 41.3 24.9 41.3 C 24.4 43.9 22.1 45.2 19.7 45.2 C 16.9 45.2 14.2 43.3 14.2 39.2 C 14.2 35.2 16.8 33.2 19.8 33.2 C 22.6 33.2 24.9 35 24.9 38.9 C 24.94 38.89 24.9 40 24.9 40 C 24.9 40 16.88 40.03 16.9 40 Z M 16.9 38 C 16.9 38 22.2 38 22.2 38 C 22.2 36.5 21.1 35.6 19.7 35.6 C 18.4 35.6 17.2 36.3 16.9 38 Z M 37.4 44.2 C 37.4 47.9 35 49.6 31.9 49.6 C 29 49.6 26.7 48.2 26.4 45.3 C 26.4 45.3 29.1 45.3 29.1 45.3 C 29.4 46.8 30.6 47.2 31.9 47.2 C 33.7 47.2 34.7 46.3 34.7 44.5 C 34.7 44.5 34.7 42.6 34.7 42.6 C 34.2 43.8 33 44.6 31.3 44.6 C 28.7 44.6 26.2 42.8 26.2 38.9 C 26.2 35 28.7 33.2 31.3 33.2 C 32.9 33.2 34.1 33.9 34.7 35 C 34.69 35.01 34.7 33.4 34.7 33.4 L 37.4 33.4 C 37.4 33.4 37.38 44.2 37.4 44.2 Z M 34.6 38.9 C 34.6 36.7 33.4 35.6 31.9 35.6 C 30.3 35.6 29 36.7 29 38.9 C 29 41.1 30.3 42.1 31.9 42.1 C 33.4 42.1 34.6 41.1 34.6 38.9 Z M 49.3 37.2 C 49.26 37.19 49.3 45 49.3 45 L 46.5 45 C 46.5 45 46.53 43.3 46.5 43.3 C 45.6 44.8 44.2 45.2 43 45.2 C 41.2 45.2 39.3 44.1 39.3 41.6 C 39.3 39.8 40.3 38.6 43 38.2 C 43 38.2 45.5 37.8 45.5 37.8 C 46.2 37.7 46.6 37.5 46.6 36.8 C 46.6 35.8 45.8 35.4 44.7 35.4 C 43.2 35.4 42.5 36.1 42.4 37.1 C 42.4 37.1 39.7 37.1 39.7 37.1 C 40 34.4 42.2 33.2 44.8 33.2 C 47.5 33.2 49.3 34.5 49.3 37.2 Z M 46.6 40.1 C 46.6 40.1 46.6 39.5 46.6 39.5 C 46.3 39.6 45.8 39.8 45.2 39.8 C 45.2 39.8 43.9 40 43.9 40 C 42.5 40.2 42.1 40.8 42.1 41.5 C 42.1 42.4 42.7 42.9 43.7 42.9 C 45.1 42.9 46.6 41.8 46.6 40.1 Z M 57.7 45 C 57.7 45 55.88 44.98 55.9 45 C 53.7 45 52.3 44.3 52.3 41.2 C 52.33 41.2 52.3 35.9 52.3 35.9 L 50.2 35.9 L 50.2 33.4 L 52.3 33.4 L 52.3 30.8 L 55.1 30 L 55.1 33.4 L 57.4 33.4 L 57.4 35.9 L 55.1 35.9 C 55.1 35.9 55.12 41.33 55.1 41.3 C 55.1 42 55.3 42.5 56.3 42.5 C 56.3 42.5 57.7 42.5 57.7 42.5 L 57.7 45 Z M 59.2 31.9 L 62.1 31.9 L 62.1 28.7 L 59.2 28.7 L 59.2 31.9 Z M 59.3 33.4 L 62 33.4 L 62 45 L 59.3 45 L 59.3 33.4 Z M 70.6 45 L 67.7 45 L 63.4 33.4 L 66.4 33.4 L 69.2 41.7 L 72 33.4 L 74.9 33.4 L 70.6 45 Z M 78.1 40 C 78.1 41.9 79.5 42.8 81.1 42.8 C 82.1 42.8 83.2 42.4 83.5 41.3 C 83.5 41.3 86.1 41.3 86.1 41.3 C 85.6 43.9 83.3 45.2 80.9 45.2 C 78.1 45.2 75.4 43.3 75.4 39.2 C 75.4 35.2 78 33.2 80.9 33.2 C 83.8 33.2 86.1 35 86.1 38.9 C 86.14 38.89 86.1 40 86.1 40 C 86.1 40 78.07 40.03 78.1 40 Z M 78.1 38 C 78.1 38 83.4 38 83.4 38 C 83.4 36.5 82.3 35.6 80.9 35.6 C 79.6 35.6 78.4 36.3 78.1 38 Z M 87 27.8 C 87 27.8 87.8 26.7 87.8 26.7 C 91.3 28.9 93.6 33 93.6 37.8 C 93.6 42.7 91.3 46.7 87.8 48.9 C 87.8 48.9 87 47.8 87 47.8 C 89.7 45.6 91.7 42.1 91.7 37.8 C 91.7 33.6 89.7 30.1 87 27.8 Z M 96.9 44.8 C 96.91 44.79 95.5 44.8 95.5 44.8 L 95.5 41.9 L 98.7 41.9 C 98.7 41.9 98.69 44.39 98.7 44.4 C 98.7 47.4 96.6 48.5 94.7 48.7 C 94.7 48.7 94.5 47.2 94.5 47.2 C 96 47 96.9 46.1 96.9 44.8 Z M 118 45 L 115.3 45 L 113 37.6 L 110.6 45 L 107.9 45 L 104 33.4 L 107 33.4 L 109.3 41.1 L 111.7 33.4 L 114.4 33.4 L 116.7 41.1 L 119 33.4 L 121.9 33.4 L 118 45 Z M 133.5 37.5 C 133.51 37.51 133.5 45 133.5 45 L 130.7 45 C 130.7 45 130.72 37.76 130.7 37.8 C 130.7 36.5 130 35.7 128.7 35.7 C 127.1 35.7 126.1 36.8 126.1 38.7 C 126.12 38.72 126.1 45 126.1 45 L 123.3 45 L 123.3 29 L 126.1 29 C 126.1 29 126.12 35.03 126.1 35 C 126.8 33.9 127.8 33.2 129.6 33.2 C 132.3 33.2 133.5 34.7 133.5 37.5 Z M 145.4 37.2 C 145.4 37.19 145.4 45 145.4 45 L 142.7 45 C 142.7 45 142.67 43.3 142.7 43.3 C 141.8 44.8 140.4 45.2 139.2 45.2 C 137.3 45.2 135.4 44.1 135.4 41.6 C 135.4 39.8 136.4 38.6 139.1 38.2 C 139.1 38.2 141.6 37.8 141.6 37.8 C 142.3 37.7 142.8 37.5 142.8 36.8 C 142.8 35.8 141.9 35.4 140.8 35.4 C 139.3 35.4 138.7 36.1 138.6 37.1 C 138.6 37.1 135.9 37.1 135.9 37.1 C 136.2 34.4 138.3 33.2 140.9 33.2 C 143.7 33.2 145.4 34.5 145.4 37.2 Z M 142.7 40.1 C 142.7 40.1 142.7 39.5 142.7 39.5 C 142.4 39.6 141.9 39.8 141.3 39.8 C 141.3 39.8 140.1 40 140.1 40 C 138.7 40.2 138.2 40.8 138.2 41.5 C 138.2 42.4 138.8 42.9 139.8 42.9 C 141.3 42.9 142.7 41.8 142.7 40.1 Z M 153.8 45 C 153.8 45 152.01 44.98 152 45 C 149.8 45 148.5 44.3 148.5 41.2 C 148.46 41.2 148.5 35.9 148.5 35.9 L 146.3 35.9 L 146.3 33.4 L 148.5 33.4 L 148.5 30.8 L 151.3 30 L 151.3 33.4 L 153.6 33.4 L 153.6 35.9 L 151.3 35.9 C 151.3 35.9 151.26 41.33 151.3 41.3 C 151.3 42 151.4 42.5 152.4 42.5 C 152.43 42.5 153.8 42.5 153.8 42.5 L 153.8 45 Z M 167.4 36 C 167.4 36 166.69 35.97 166.7 36 C 164.7 36 163.7 37 163.7 39.3 C 163.67 39.31 163.7 45 163.7 45 L 160.9 45 L 160.9 33.4 L 163.6 33.4 C 163.6 33.4 163.65 35.05 163.6 35 C 164.2 33.8 165.3 33.3 166.7 33.3 C 166.67 33.26 167.4 33.3 167.4 33.3 L 167.4 36 Z M 179.2 39.2 C 179.2 43 176.8 45.2 173.5 45.2 C 170.3 45.2 167.8 43 167.8 39.2 C 167.8 35.4 170.3 33.2 173.5 33.2 C 176.8 33.2 179.2 35.4 179.2 39.2 Z M 170.7 39.2 C 170.7 41.5 172 42.6 173.5 42.6 C 175.2 42.6 176.3 41.4 176.3 39.2 C 176.3 36.9 175 35.8 173.5 35.8 C 171.8 35.8 170.7 37 170.7 39.2 Z M 184 45 L 181.2 45 L 181.2 29 L 184 29 L 184 45 Z M 188.7 40 C 188.7 41.9 190.1 42.8 191.6 42.8 C 192.7 42.8 193.8 42.4 194.1 41.3 C 194.1 41.3 196.7 41.3 196.7 41.3 C 196.2 43.9 193.9 45.2 191.5 45.2 C 188.7 45.2 185.9 43.3 185.9 39.2 C 185.9 35.2 188.6 33.2 191.5 33.2 C 194.3 33.2 196.7 35 196.7 38.9 C 196.72 38.89 196.7 40 196.7 40 C 196.7 40 188.66 40.03 188.7 40 Z M 188.7 38 C 188.7 38 194 38 194 38 C 194 36.5 192.9 35.6 191.5 35.6 C 190.2 35.6 189 36.3 188.7 38 Z M 214.2 45 L 211.5 45 C 211.5 45 211.46 43.2 211.5 43.2 C 210.8 44.5 209.5 45.2 207.9 45.2 C 205.2 45.2 202.8 43.2 202.8 39.2 C 202.8 35.2 205.2 33.2 207.9 33.2 C 209.4 33.2 210.7 33.8 211.4 34.9 C 211.4 34.92 211.4 29 211.4 29 L 214.2 29 L 214.2 45 Z M 211.5 39.2 C 211.5 36.8 210.1 35.7 208.5 35.7 C 207 35.7 205.6 36.8 205.6 39.2 C 205.6 41.5 207 42.7 208.5 42.7 C 210.1 42.7 211.5 41.5 211.5 39.2 Z M 227.5 39.2 C 227.5 43 225.1 45.2 221.8 45.2 C 218.6 45.2 216.2 43 216.2 39.2 C 216.2 35.4 218.6 33.2 221.8 33.2 C 225.1 33.2 227.5 35.4 227.5 39.2 Z M 219 39.2 C 219 41.5 220.3 42.6 221.9 42.6 C 223.5 42.6 224.7 41.4 224.7 39.2 C 224.7 36.9 223.4 35.8 221.8 35.8 C 220.2 35.8 219 37 219 39.2 Z M 231.5 40 C 231.5 41.9 232.9 42.8 234.5 42.8 C 235.6 42.8 236.6 42.4 236.9 41.3 C 236.9 41.3 239.5 41.3 239.5 41.3 C 239 43.9 236.7 45.2 234.3 45.2 C 231.5 45.2 228.8 43.3 228.8 39.2 C 228.8 35.2 231.4 33.2 234.4 33.2 C 237.2 33.2 239.5 35 239.5 38.9 C 239.54 38.89 239.5 40 239.5 40 C 239.5 40 231.48 40.03 231.5 40 Z M 231.5 38 C 231.5 38 236.8 38 236.8 38 C 236.8 36.5 235.7 35.6 234.3 35.6 C 233 35.6 231.8 36.3 231.5 38 Z M 250.8 41.4 C 250.8 44 248.5 45.2 245.9 45.2 C 243.5 45.2 240.9 44.2 240.7 41.3 C 240.7 41.3 243.5 41.3 243.5 41.3 C 243.7 42.4 244.7 42.9 246 42.9 C 247.2 42.9 248 42.5 248 41.7 C 248 40.9 247.5 40.8 245.9 40.5 C 243.6 40.1 241.1 39.7 241.1 36.9 C 241.1 34.3 243.3 33.2 245.7 33.2 C 248.4 33.2 250.4 34.5 250.5 37.1 C 250.5 37.1 247.8 37.1 247.8 37.1 C 247.7 36 246.9 35.5 245.7 35.5 C 244.3 35.5 243.8 36.1 243.8 36.8 C 243.8 37.7 244.8 37.9 246.2 38.1 C 248.3 38.4 250.8 38.7 250.8 41.4 Z M 261.1 45 L 258.1 45 L 258.1 29.2 L 268.7 29.2 L 268.7 32 L 261.1 32 L 261.1 35.6 L 268.4 35.6 L 268.4 38.4 L 261.1 38.4 L 261.1 45 Z M 270 31.9 L 273 31.9 L 273 28.7 L 270 28.7 L 270 31.9 Z M 270.1 33.4 L 272.9 33.4 L 272.9 45 L 270.1 45 L 270.1 33.4 Z M 280.7 41.3 L 278 45 L 274.5 45 L 278.8 39.2 L 274.4 33.4 L 278 33.4 L 280.6 37 L 283.2 33.4 L 286.7 33.4 L 282.4 39 L 286.9 45 L 283.3 45 L 280.7 41.3 Z M 290 40 C 290.1 41.9 291.5 42.8 293 42.8 C 294.1 42.8 295.2 42.4 295.5 41.3 C 295.5 41.3 298.1 41.3 298.1 41.3 C 297.6 43.9 295.3 45.2 292.9 45.2 C 290.1 45.2 287.3 43.3 287.3 39.2 C 287.3 35.2 290 33.2 292.9 33.2 C 295.7 33.2 298.1 35 298.1 38.9 C 298.11 38.89 298.1 40 298.1 40 C 298.1 40 290.04 40.03 290 40 Z M 290.1 38 C 290.1 38 295.4 38 295.4 38 C 295.4 36.5 294.3 35.6 292.9 35.6 C 291.6 35.6 290.4 36.3 290.1 38 Z M 310.8 45 L 308 45 C 308 45 308.02 43.2 308 43.2 C 307.4 44.5 306 45.2 304.5 45.2 C 301.7 45.2 299.4 43.2 299.4 39.2 C 299.4 35.2 301.7 33.2 304.5 33.2 C 306 33.2 307.3 33.8 308 34.9 C 307.96 34.92 308 29 308 29 L 310.8 29 L 310.8 45 Z M 308 39.2 C 308 36.8 306.6 35.7 305.1 35.7 C 303.6 35.7 302.2 36.8 302.2 39.2 C 302.2 41.5 303.6 42.7 305.1 42.7 C 306.6 42.7 308 41.5 308 39.2 Z M 322.4 45 L 319.5 45 L 319.5 29.2 L 322.4 29.2 L 322.4 45 Z M 335.6 37.5 C 335.61 37.51 335.6 45 335.6 45 L 332.8 45 C 332.8 45 332.82 37.76 332.8 37.8 C 332.8 36.5 332.1 35.7 330.8 35.7 C 329.2 35.7 328.2 36.8 328.2 38.7 C 328.22 38.72 328.2 45 328.2 45 L 325.4 45 L 325.4 33.4 L 328.2 33.4 C 328.2 33.4 328.2 35.07 328.2 35.1 C 328.9 34 329.8 33.2 331.7 33.2 C 334.4 33.2 335.6 34.7 335.6 37.5 Z M 343.1 45.2 C 339.3 45.2 337.5 42.3 337.5 39.2 C 337.5 36.1 339.3 33.2 343.1 33.2 C 346 33.2 348.1 34.8 348.2 37.6 C 348.2 37.6 345.5 37.6 345.5 37.6 C 345.4 36.5 344.6 35.7 343.2 35.7 C 341.2 35.7 340.3 37.4 340.3 39.2 C 340.3 41.1 341.2 42.6 343.2 42.6 C 344.5 42.6 345.3 41.9 345.5 40.9 C 345.5 40.9 348.3 40.9 348.3 40.9 C 347.9 43.7 345.9 45.2 343.1 45.2 Z M 360.9 39.2 C 360.9 43 358.5 45.2 355.2 45.2 C 352 45.2 349.6 43 349.6 39.2 C 349.6 35.4 352 33.2 355.2 33.2 C 358.5 33.2 360.9 35.4 360.9 39.2 Z M 352.4 39.2 C 352.4 41.5 353.7 42.6 355.3 42.6 C 356.9 42.6 358 41.4 358 39.2 C 358 36.9 356.8 35.8 355.2 35.8 C 353.5 35.8 352.4 37 352.4 39.2 Z M 379.3 37.2 C 379.25 37.17 379.3 45 379.3 45 L 376.5 45 C 376.5 45 376.46 37.72 376.5 37.7 C 376.5 36.3 375.8 35.7 374.7 35.7 C 373.3 35.7 372.5 36.5 372.5 38.5 C 372.47 38.47 372.5 45 372.5 45 L 369.7 45 C 369.7 45 369.68 37.72 369.7 37.7 C 369.7 36.3 369 35.7 367.8 35.7 C 366.5 35.7 365.7 36.5 365.7 38.5 C 365.69 38.45 365.7 45 365.7 45 L 362.9 45 L 362.9 33.4 L 365.6 33.4 C 365.6 33.4 365.64 35.09 365.6 35.1 C 366 34.2 366.9 33.2 368.6 33.2 C 370.1 33.2 371.3 33.9 371.8 35.1 C 372.3 34.3 373.1 33.2 375.2 33.2 C 377.7 33.2 379.3 34.7 379.3 37.2 Z M 383.9 40 C 383.9 41.9 385.3 42.8 386.8 42.8 C 387.9 42.8 389 42.4 389.3 41.3 C 389.3 41.3 391.9 41.3 391.9 41.3 C 391.4 43.9 389.1 45.2 386.7 45.2 C 383.9 45.2 381.1 43.3 381.1 39.2 C 381.1 35.2 383.8 33.2 386.7 33.2 C 389.5 33.2 391.9 35 391.9 38.9 C 391.91 38.89 391.9 40 391.9 40 C 391.9 40 383.85 40.03 383.9 40 Z M 383.9 38 C 383.9 38 389.2 38 389.2 38 C 389.2 36.5 388.1 35.6 386.7 35.6 C 385.4 35.6 384.2 36.3 383.9 38 Z " stroke="none" fill="#000"/>  </g>  <g id="Polygon9466">    <path d="M 16.6 19.8 L 13.7 19.8 L 10.4 8.5 L 7.1 19.8 L 4.2 19.8 L 0.1 4 L 3.2 4 L 5.8 15 L 9 4 L 11.9 4 L 15.1 15.1 L 17.7 4 L 20.7 4 L 16.6 19.8 Z M 22.3 6.7 L 25.3 6.7 L 25.3 3.5 L 22.3 3.5 L 22.3 6.7 Z M 22.4 8.2 L 25.2 8.2 L 25.2 19.8 L 22.4 19.8 L 22.4 8.2 Z M 33.8 19.8 C 33.8 19.8 31.97 19.78 32 19.8 C 29.8 19.8 28.4 19.1 28.4 16 C 28.42 16 28.4 10.7 28.4 10.7 L 26.3 10.7 L 26.3 8.2 L 28.4 8.2 L 28.4 5.6 L 31.2 4.8 L 31.2 8.2 L 33.5 8.2 L 33.5 10.7 L 31.2 10.7 C 31.2 10.7 31.21 16.13 31.2 16.1 C 31.2 16.8 31.4 17.3 32.4 17.3 C 32.39 17.3 33.8 17.3 33.8 17.3 L 33.8 19.8 Z M 45.6 12.3 C 45.56 12.31 45.6 19.8 45.6 19.8 L 42.8 19.8 C 42.8 19.8 42.76 12.56 42.8 12.6 C 42.8 11.3 42 10.5 40.7 10.5 C 39.1 10.5 38.2 11.6 38.2 13.5 C 38.16 13.52 38.2 19.8 38.2 19.8 L 35.4 19.8 L 35.4 3.8 L 38.2 3.8 C 38.2 3.8 38.16 9.83 38.2 9.8 C 38.8 8.7 39.8 8 41.7 8 C 44.3 8 45.6 9.5 45.6 12.3 Z M 53.7 6.7 L 56.7 6.7 L 56.7 3.5 L 53.7 3.5 L 53.7 6.7 Z M 53.8 8.2 L 56.6 8.2 L 56.6 19.8 L 53.8 19.8 L 53.8 8.2 Z M 69.5 12.3 C 69.52 12.31 69.5 19.8 69.5 19.8 L 66.7 19.8 C 66.7 19.8 66.72 12.56 66.7 12.6 C 66.7 11.3 66 10.5 64.7 10.5 C 63.1 10.5 62.1 11.6 62.1 13.5 C 62.12 13.52 62.1 19.8 62.1 19.8 L 59.3 19.8 L 59.3 8.2 L 62.1 8.2 C 62.1 8.2 62.1 9.87 62.1 9.9 C 62.8 8.8 63.7 8 65.6 8 C 68.3 8 69.5 9.5 69.5 12.3 Z M 78.1 19.8 C 78.1 19.8 76.24 19.78 76.2 19.8 C 74.1 19.8 72.7 19.1 72.7 16 C 72.69 16 72.7 10.7 72.7 10.7 L 70.6 10.7 L 70.6 8.2 L 72.7 8.2 L 72.7 5.6 L 75.5 4.8 L 75.5 8.2 L 77.8 8.2 L 77.8 10.7 L 75.5 10.7 C 75.5 10.7 75.48 16.13 75.5 16.1 C 75.5 16.8 75.7 17.3 76.7 17.3 C 76.66 17.3 78.1 17.3 78.1 17.3 L 78.1 19.8 Z M 81.6 14.8 C 81.7 16.7 83 17.6 84.6 17.6 C 85.7 17.6 86.7 17.2 87.1 16.1 C 87.1 16.1 89.6 16.1 89.6 16.1 C 89.1 18.7 86.8 20 84.5 20 C 81.7 20 78.9 18.1 78.9 14 C 78.9 10 81.5 8 84.5 8 C 87.3 8 89.7 9.8 89.7 13.7 C 89.68 13.69 89.7 14.8 89.7 14.8 C 89.7 14.8 81.61 14.83 81.6 14.8 Z M 81.7 12.8 C 81.7 12.8 86.9 12.8 86.9 12.8 C 86.9 11.3 85.9 10.4 84.4 10.4 C 83.2 10.4 81.9 11.1 81.7 12.8 Z M 98.2 10.8 C 98.2 10.8 97.49 10.77 97.5 10.8 C 95.5 10.8 94.5 11.8 94.5 14.1 C 94.46 14.11 94.5 19.8 94.5 19.8 L 91.7 19.8 L 91.7 8.2 L 94.4 8.2 C 94.4 8.2 94.44 9.85 94.4 9.8 C 95 8.6 96.1 8.1 97.5 8.1 C 97.47 8.06 98.2 8.1 98.2 8.1 L 98.2 10.8 Z M 101.4 14.8 C 101.4 16.7 102.8 17.6 104.3 17.6 C 105.4 17.6 106.5 17.2 106.8 16.1 C 106.8 16.1 109.4 16.1 109.4 16.1 C 108.9 18.7 106.6 20 104.2 20 C 101.4 20 98.6 18.1 98.6 14 C 98.6 10 101.3 8 104.2 8 C 107 8 109.4 9.8 109.4 13.7 C 109.42 13.69 109.4 14.8 109.4 14.8 C 109.4 14.8 101.35 14.83 101.4 14.8 Z M 101.4 12.8 C 101.4 12.8 106.7 12.8 106.7 12.8 C 106.7 11.3 105.6 10.4 104.2 10.4 C 102.9 10.4 101.7 11.1 101.4 12.8 Z M 120.7 16.2 C 120.7 18.8 118.4 20 115.8 20 C 113.4 20 110.8 19 110.6 16.1 C 110.6 16.1 113.4 16.1 113.4 16.1 C 113.6 17.2 114.6 17.7 115.9 17.7 C 117.1 17.7 117.9 17.3 117.9 16.5 C 117.9 15.7 117.4 15.6 115.8 15.3 C 113.5 14.9 110.9 14.5 110.9 11.7 C 110.9 9.1 113.1 8 115.5 8 C 118.2 8 120.2 9.3 120.4 11.9 C 120.4 11.9 117.7 11.9 117.7 11.9 C 117.6 10.8 116.7 10.3 115.6 10.3 C 114.2 10.3 113.6 10.9 113.6 11.6 C 113.6 12.5 114.7 12.7 116.1 12.9 C 118.2 13.2 120.7 13.5 120.7 16.2 Z M 128.5 19.8 C 128.5 19.8 126.66 19.78 126.7 19.8 C 124.5 19.8 123.1 19.1 123.1 16 C 123.11 16 123.1 10.7 123.1 10.7 L 121 10.7 L 121 8.2 L 123.1 8.2 L 123.1 5.6 L 125.9 4.8 L 125.9 8.2 L 128.2 8.2 L 128.2 10.7 L 125.9 10.7 C 125.9 10.7 125.9 16.13 125.9 16.1 C 125.9 16.8 126.1 17.3 127.1 17.3 C 127.08 17.3 128.5 17.3 128.5 17.3 L 128.5 19.8 Z M 142.1 10.8 C 142.1 10.8 141.34 10.77 141.3 10.8 C 139.4 10.8 138.3 11.8 138.3 14.1 C 138.31 14.11 138.3 19.8 138.3 19.8 L 135.5 19.8 L 135.5 8.2 L 138.3 8.2 C 138.3 8.2 138.29 9.85 138.3 9.8 C 138.9 8.6 140 8.1 141.3 8.1 C 141.32 8.06 142.1 8.1 142.1 8.1 L 142.1 10.8 Z M 152.7 12 C 152.7 11.99 152.7 19.8 152.7 19.8 L 150 19.8 C 150 19.8 149.97 18.1 150 18.1 C 149.1 19.6 147.7 20 146.5 20 C 144.6 20 142.7 18.9 142.7 16.4 C 142.7 14.6 143.7 13.4 146.4 13 C 146.4 13 148.9 12.6 148.9 12.6 C 149.6 12.5 150.1 12.3 150.1 11.6 C 150.1 10.6 149.2 10.2 148.1 10.2 C 146.6 10.2 146 10.9 145.9 11.9 C 145.9 11.9 143.2 11.9 143.2 11.9 C 143.5 9.2 145.6 8 148.2 8 C 151 8 152.7 9.3 152.7 12 Z M 150 14.9 C 150 14.9 150 14.3 150 14.3 C 149.7 14.4 149.2 14.6 148.6 14.6 C 148.6 14.6 147.4 14.8 147.4 14.8 C 146 15 145.5 15.6 145.5 16.3 C 145.5 17.2 146.1 17.7 147.1 17.7 C 148.6 17.7 150 16.6 150 14.9 Z M 161.1 19.8 C 161.1 19.8 159.31 19.78 159.3 19.8 C 157.1 19.8 155.8 19.1 155.8 16 C 155.76 16 155.8 10.7 155.8 10.7 L 153.6 10.7 L 153.6 8.2 L 155.8 8.2 L 155.8 5.6 L 158.6 4.8 L 158.6 8.2 L 160.9 8.2 L 160.9 10.7 L 158.6 10.7 C 158.6 10.7 158.56 16.13 158.6 16.1 C 158.6 16.8 158.7 17.3 159.7 17.3 C 159.73 17.3 161.1 17.3 161.1 17.3 L 161.1 19.8 Z M 164.7 14.8 C 164.8 16.7 166.1 17.6 167.7 17.6 C 168.8 17.6 169.8 17.2 170.1 16.1 C 170.1 16.1 172.7 16.1 172.7 16.1 C 172.2 18.7 169.9 20 167.5 20 C 164.8 20 162 18.1 162 14 C 162 10 164.6 8 167.6 8 C 170.4 8 172.8 9.8 172.8 13.7 C 172.75 13.69 172.8 14.8 172.8 14.8 C 172.8 14.8 164.69 14.83 164.7 14.8 Z M 164.8 12.8 C 164.8 12.8 170 12.8 170 12.8 C 170 11.3 169 10.4 167.5 10.4 C 166.2 10.4 165 11.1 164.8 12.8 Z M 184 16.2 C 184 18.8 181.7 20 179.1 20 C 176.7 20 174.1 19 173.9 16.1 C 173.9 16.1 176.7 16.1 176.7 16.1 C 176.9 17.2 177.9 17.7 179.2 17.7 C 180.4 17.7 181.3 17.3 181.3 16.5 C 181.3 15.7 180.7 15.6 179.1 15.3 C 176.8 14.9 174.3 14.5 174.3 11.7 C 174.3 9.1 176.5 8 178.9 8 C 181.6 8 183.6 9.3 183.7 11.9 C 183.7 11.9 181 11.9 181 11.9 C 180.9 10.8 180.1 10.3 178.9 10.3 C 177.5 10.3 177 10.9 177 11.6 C 177 12.5 178 12.7 179.4 12.9 C 181.5 13.2 184 13.5 184 16.2 Z M 200 16.2 C 200 18.8 197.7 20 195.1 20 C 192.7 20 190.1 19 189.9 16.1 C 189.9 16.1 192.7 16.1 192.7 16.1 C 192.9 17.2 193.9 17.7 195.2 17.7 C 196.4 17.7 197.2 17.3 197.2 16.5 C 197.2 15.7 196.7 15.6 195.1 15.3 C 192.8 14.9 190.2 14.5 190.2 11.7 C 190.2 9.1 192.4 8 194.8 8 C 197.6 8 199.5 9.3 199.7 11.9 C 199.7 11.9 197 11.9 197 11.9 C 196.9 10.8 196.1 10.3 194.9 10.3 C 193.5 10.3 193 10.9 193 11.6 C 193 12.5 194 12.7 195.4 12.9 C 197.5 13.2 200 13.5 200 16.2 Z M 212.5 14 C 212.5 17.8 210 20 206.8 20 C 203.6 20 201.1 17.8 201.1 14 C 201.1 10.2 203.6 8 206.8 8 C 210 8 212.5 10.2 212.5 14 Z M 204 14 C 204 16.3 205.3 17.4 206.8 17.4 C 208.5 17.4 209.6 16.2 209.6 14 C 209.6 11.7 208.3 10.6 206.8 10.6 C 205.1 10.6 204 11.8 204 14 Z M 222.5 19.8 L 219.7 19.8 L 219.7 3.8 L 222.5 3.8 L 222.5 19.8 Z M 235.8 14 C 235.8 17.8 233.4 20 230.1 20 C 226.9 20 224.5 17.8 224.5 14 C 224.5 10.2 226.9 8 230.1 8 C 233.4 8 235.8 10.2 235.8 14 Z M 227.4 14 C 227.4 16.3 228.6 17.4 230.2 17.4 C 231.8 17.4 233 16.2 233 14 C 233 11.7 231.7 10.6 230.1 10.6 C 228.5 10.6 227.4 11.8 227.4 14 Z M 250.3 19.8 L 247.6 19.8 L 245.2 12.4 L 242.9 19.8 L 240.2 19.8 L 236.3 8.2 L 239.3 8.2 L 241.6 15.9 L 243.9 8.2 L 246.7 8.2 L 249 15.9 L 251.3 8.2 L 254.1 8.2 L 250.3 19.8 Z M 266.6 22.6 C 266.6 22.6 265.7 23.7 265.7 23.7 C 262.3 21.5 259.9 17.5 259.9 12.6 C 259.9 7.8 262.3 3.7 265.7 1.5 C 265.7 1.5 266.6 2.6 266.6 2.6 C 263.8 4.9 261.9 8.4 261.9 12.6 C 261.9 16.9 263.8 20.4 266.6 22.6 Z M 277.2 12 C 277.2 11.99 277.2 19.8 277.2 19.8 L 274.5 19.8 C 274.5 19.8 274.47 18.1 274.5 18.1 C 273.6 19.6 272.2 20 271 20 C 269.1 20 267.2 18.9 267.2 16.4 C 267.2 14.6 268.2 13.4 270.9 13 C 270.9 13 273.4 12.6 273.4 12.6 C 274.1 12.5 274.6 12.3 274.6 11.6 C 274.6 10.6 273.7 10.2 272.6 10.2 C 271.1 10.2 270.5 10.9 270.4 11.9 C 270.4 11.9 267.7 11.9 267.7 11.9 C 268 9.2 270.1 8 272.8 8 C 275.5 8 277.2 9.3 277.2 12 Z M 274.5 14.9 C 274.5 14.9 274.5 14.3 274.5 14.3 C 274.2 14.4 273.7 14.6 273.1 14.6 C 273.1 14.6 271.9 14.8 271.9 14.8 C 270.5 15 270 15.6 270 16.3 C 270 17.2 270.7 17.7 271.6 17.7 C 273.1 17.7 274.5 16.6 274.5 14.9 Z M 289.9 12.3 C 289.91 12.31 289.9 19.8 289.9 19.8 L 287.1 19.8 C 287.1 19.8 287.12 12.56 287.1 12.6 C 287.1 11.3 286.4 10.5 285.1 10.5 C 283.5 10.5 282.5 11.6 282.5 13.5 C 282.52 13.52 282.5 19.8 282.5 19.8 L 279.7 19.8 L 279.7 8.2 L 282.5 8.2 C 282.5 8.2 282.5 9.87 282.5 9.9 C 283.1 8.8 284.1 8 286 8 C 288.7 8 289.9 9.5 289.9 12.3 Z M 303.2 19.8 L 300.5 19.8 C 300.5 19.8 300.45 18 300.5 18 C 299.8 19.3 298.5 20 296.9 20 C 294.2 20 291.8 18 291.8 14 C 291.8 10 294.2 8 296.9 8 C 298.4 8 299.7 8.6 300.4 9.7 C 300.39 9.72 300.4 3.8 300.4 3.8 L 303.2 3.8 L 303.2 19.8 Z M 300.5 14 C 300.5 11.6 299 10.5 297.5 10.5 C 296 10.5 294.6 11.6 294.6 14 C 294.6 16.3 296 17.5 297.5 17.5 C 299 17.5 300.5 16.3 300.5 14 Z M 313.1 14.8 C 313.2 16.7 314.5 17.6 316.1 17.6 C 317.2 17.6 318.3 17.2 318.6 16.1 C 318.6 16.1 321.2 16.1 321.2 16.1 C 320.7 18.7 318.4 20 316 20 C 313.2 20 310.4 18.1 310.4 14 C 310.4 10 313.1 8 316 8 C 318.8 8 321.2 9.8 321.2 13.7 C 321.2 13.69 321.2 14.8 321.2 14.8 C 321.2 14.8 313.14 14.83 313.1 14.8 Z M 313.2 12.8 C 313.2 12.8 318.5 12.8 318.5 12.8 C 318.5 11.3 317.4 10.4 316 10.4 C 314.7 10.4 313.5 11.1 313.2 12.8 Z M 329.1 19.8 L 326.1 19.8 L 321.8 8.2 L 324.8 8.2 L 327.6 16.5 L 330.5 8.2 L 333.4 8.2 L 329.1 19.8 Z M 336.5 14.8 C 336.6 16.7 337.9 17.6 339.5 17.6 C 340.6 17.6 341.6 17.2 342 16.1 C 342 16.1 344.5 16.1 344.5 16.1 C 344 18.7 341.7 20 339.4 20 C 336.6 20 333.8 18.1 333.8 14 C 333.8 10 336.4 8 339.4 8 C 342.2 8 344.6 9.8 344.6 13.7 C 344.57 13.69 344.6 14.8 344.6 14.8 C 344.6 14.8 336.51 14.83 336.5 14.8 Z M 336.6 12.8 C 336.6 12.8 341.8 12.8 341.8 12.8 C 341.8 11.3 340.8 10.4 339.3 10.4 C 338.1 10.4 336.8 11.1 336.6 12.8 Z M 356.8 12.3 C 356.75 12.31 356.8 19.8 356.8 19.8 L 354 19.8 C 354 19.8 353.96 12.56 354 12.6 C 354 11.3 353.2 10.5 351.9 10.5 C 350.3 10.5 349.4 11.6 349.4 13.5 C 349.36 13.52 349.4 19.8 349.4 19.8 L 346.6 19.8 L 346.6 8.2 L 349.3 8.2 C 349.3 8.2 349.34 9.87 349.3 9.9 C 350 8.8 350.9 8 352.9 8 C 355.5 8 356.8 9.5 356.8 12.3 Z " stroke="none" fill="#000"/>  </g></svg>