<?xml version="1.0" standalone="no"?><!DOCTYPE svg PUBLIC "-//W3C//DTD SVG 1.1//EN" "http://www.w3.org/Graphics/SVG/1.1/DTD/svg11.dtd"><svg xmlns="http://www.w3.org/2000/svg" version="1.1" width="404px" height="111.4px" viewBox="0 0 404 111.4">  <desc>30% aller Anleihen rentieren negativ welche M glichkeiten bieten sich noch f r Anleger</desc>  <defs/>  <g id="Polygon10044">    <path d="M 5.7 56.7 C 4.7 56.7 4.5 57.1 4.5 57.8 C 4.51 57.83 4.5 58.6 4.5 58.6 L 6.7 58.6 L 6.7 61.1 L 4.5 61.1 L 4.5 70.2 L 1.7 70.2 L 1.7 61.1 L 0 61.1 L 0 58.6 L 1.7 58.6 C 1.7 58.6 1.72 57.96 1.7 58 C 1.7 54.9 3.1 54.2 5.3 54.2 C 5.27 54.18 7 54.2 7 54.2 L 7 56.7 C 7 56.7 5.69 56.66 5.7 56.7 Z M 10 54 L 12.4 54 L 12.4 56.5 L 10 56.5 L 10 54 Z M 14.3 54 L 16.8 54 L 16.8 56.5 L 14.3 56.5 L 14.3 54 Z M 18.5 70.2 L 15.7 70.2 C 15.7 70.2 15.73 68.54 15.7 68.5 C 15.1 69.6 14 70.3 12.4 70.3 C 10 70.3 8.2 68.8 8.2 65.8 C 8.21 65.79 8.2 58.6 8.2 58.6 L 11 58.6 C 11 58.6 11 65.58 11 65.6 C 11 67.2 11.8 67.8 13 67.8 C 14.5 67.8 15.7 66.9 15.7 64.2 C 15.67 64.2 15.7 58.6 15.7 58.6 L 18.5 58.6 L 18.5 70.2 Z M 27.7 61.2 C 27.7 61.2 27.01 61.17 27 61.2 C 25.1 61.2 24 62.2 24 64.5 C 23.98 64.51 24 70.2 24 70.2 L 21.2 70.2 L 21.2 58.6 L 24 58.6 C 24 58.6 23.96 60.25 24 60.2 C 24.5 59 25.6 58.5 27 58.5 C 26.98 58.46 27.7 58.5 27.7 58.5 L 27.7 61.2 Z M 43.8 66.7 L 37.2 66.7 L 35.9 70.2 L 32.8 70.2 L 38.8 54.4 L 42.1 54.4 L 48.4 70.2 L 45.1 70.2 L 43.8 66.7 Z M 42.8 63.9 L 40.5 57.7 L 38.2 63.9 L 42.8 63.9 Z M 60.3 62.7 C 60.33 62.71 60.3 70.2 60.3 70.2 L 57.5 70.2 C 57.5 70.2 57.54 62.96 57.5 63 C 57.5 61.7 56.8 60.9 55.5 60.9 C 53.9 60.9 52.9 62 52.9 63.9 C 52.94 63.92 52.9 70.2 52.9 70.2 L 50.1 70.2 L 50.1 58.6 L 52.9 58.6 C 52.9 58.6 52.92 60.27 52.9 60.3 C 53.6 59.2 54.5 58.4 56.4 58.4 C 59.1 58.4 60.3 59.9 60.3 62.7 Z M 65.8 70.2 L 63 70.2 L 63 54.2 L 65.8 54.2 L 65.8 70.2 Z M 70.5 65.2 C 70.5 67.1 71.9 68 73.4 68 C 74.5 68 75.6 67.6 75.9 66.5 C 75.9 66.5 78.5 66.5 78.5 66.5 C 78 69.1 75.7 70.4 73.3 70.4 C 70.5 70.4 67.7 68.5 67.7 64.4 C 67.7 60.4 70.4 58.4 73.3 58.4 C 76.1 58.4 78.5 60.2 78.5 64.1 C 78.52 64.09 78.5 65.2 78.5 65.2 C 78.5 65.2 70.45 65.23 70.5 65.2 Z M 70.5 63.2 C 70.5 63.2 75.8 63.2 75.8 63.2 C 75.8 61.7 74.7 60.8 73.3 60.8 C 72 60.8 70.8 61.5 70.5 63.2 Z M 90.9 69.4 C 90.9 73.1 88.6 74.8 85.4 74.8 C 82.6 74.8 80.3 73.4 79.9 70.5 C 79.9 70.5 82.7 70.5 82.7 70.5 C 82.9 72 84.1 72.4 85.4 72.4 C 87.2 72.4 88.3 71.5 88.3 69.7 C 88.3 69.7 88.3 67.8 88.3 67.8 C 87.7 69 86.6 69.8 84.8 69.8 C 82.2 69.8 79.8 68 79.8 64.1 C 79.8 60.2 82.2 58.4 84.8 58.4 C 86.5 58.4 87.7 59.1 88.3 60.2 C 88.26 60.21 88.3 58.6 88.3 58.6 L 90.9 58.6 C 90.9 58.6 90.95 69.4 90.9 69.4 Z M 88.2 64.1 C 88.2 61.9 86.9 60.8 85.4 60.8 C 83.9 60.8 82.5 61.9 82.5 64.1 C 82.5 66.3 83.9 67.3 85.4 67.3 C 86.9 67.3 88.2 66.3 88.2 64.1 Z M 95.5 65.2 C 95.6 67.1 97 68 98.5 68 C 99.6 68 100.7 67.6 101 66.5 C 101 66.5 103.6 66.5 103.6 66.5 C 103.1 69.1 100.8 70.4 98.4 70.4 C 95.6 70.4 92.8 68.5 92.8 64.4 C 92.8 60.4 95.5 58.4 98.4 58.4 C 101.2 58.4 103.6 60.2 103.6 64.1 C 103.61 64.09 103.6 65.2 103.6 65.2 C 103.6 65.2 95.55 65.23 95.5 65.2 Z M 95.6 63.2 C 95.6 63.2 100.9 63.2 100.9 63.2 C 100.9 61.7 99.8 60.8 98.4 60.8 C 97.1 60.8 95.9 61.5 95.6 63.2 Z M 112.2 61.2 C 112.2 61.2 111.42 61.17 111.4 61.2 C 109.5 61.2 108.4 62.2 108.4 64.5 C 108.4 64.51 108.4 70.2 108.4 70.2 L 105.6 70.2 L 105.6 58.6 L 108.4 58.6 C 108.4 58.6 108.38 60.25 108.4 60.2 C 109 59 110 58.5 111.4 58.5 C 111.4 58.46 112.2 58.5 112.2 58.5 L 112.2 61.2 Z M 116.3 64.6 C 116.3 61.9 117.6 61.4 118.9 60.5 C 119.9 59.8 120.3 59.2 120.3 58.4 C 120.3 57.2 119.5 56.6 118.3 56.6 C 116.8 56.6 115.9 57.4 115.8 58.8 C 115.8 58.8 113 58.8 113 58.8 C 113.3 55.4 115.7 54.2 118.3 54.2 C 121.1 54.2 123.3 55.5 123.3 58.3 C 123.3 60.5 122 61.4 120.5 62.4 C 119.5 63.2 119 63.7 119 64.6 C 118.96 64.64 119 65.3 119 65.3 L 116.3 65.3 C 116.3 65.3 116.3 64.55 116.3 64.6 Z M 116.1 66.9 L 119.2 66.9 L 119.2 70.2 L 116.1 70.2 L 116.1 66.9 Z " stroke="none" fill="#000"/>  </g>  <g id="Polygon10043">    <path d="M 14 45 L 11.4 45 L 9 37.6 L 6.7 45 L 4 45 L 0.1 33.4 L 3.1 33.4 L 5.4 41.1 L 7.7 33.4 L 10.4 33.4 L 12.8 41.1 L 15 33.4 L 17.9 33.4 L 14 45 Z M 21.1 40 C 21.2 41.9 22.6 42.8 24.1 42.8 C 25.2 42.8 26.3 42.4 26.6 41.3 C 26.6 41.3 29.2 41.3 29.2 41.3 C 28.7 43.9 26.4 45.2 24 45.2 C 21.2 45.2 18.4 43.3 18.4 39.2 C 18.4 35.2 21.1 33.2 24 33.2 C 26.8 33.2 29.2 35 29.2 38.9 C 29.21 38.89 29.2 40 29.2 40 C 29.2 40 21.15 40.03 21.1 40 Z M 21.2 38 C 21.2 38 26.5 38 26.5 38 C 26.5 36.5 25.4 35.6 24 35.6 C 22.7 35.6 21.5 36.3 21.2 38 Z M 34 45 L 31.2 45 L 31.2 29 L 34 29 L 34 45 Z M 41.6 45.2 C 37.8 45.2 36 42.3 36 39.2 C 36 36.1 37.8 33.2 41.6 33.2 C 44.5 33.2 46.6 34.8 46.7 37.6 C 46.7 37.6 44 37.6 44 37.6 C 43.8 36.5 43 35.7 41.7 35.7 C 39.6 35.7 38.8 37.4 38.8 39.2 C 38.8 41.1 39.7 42.6 41.7 42.6 C 43 42.6 43.8 41.9 44 40.9 C 44 40.9 46.8 40.9 46.8 40.9 C 46.4 43.7 44.4 45.2 41.6 45.2 Z M 59 37.5 C 58.99 37.51 59 45 59 45 L 56.2 45 C 56.2 45 56.2 37.76 56.2 37.8 C 56.2 36.5 55.5 35.7 54.2 35.7 C 52.6 35.7 51.6 36.8 51.6 38.7 C 51.6 38.72 51.6 45 51.6 45 L 48.8 45 L 48.8 29 L 51.6 29 C 51.6 29 51.6 35.03 51.6 35 C 52.3 33.9 53.3 33.2 55.1 33.2 C 57.7 33.2 59 34.7 59 37.5 Z M 63.6 40 C 63.7 41.9 65 42.8 66.6 42.8 C 67.7 42.8 68.7 42.4 69 41.3 C 69 41.3 71.6 41.3 71.6 41.3 C 71.1 43.9 68.8 45.2 66.4 45.2 C 63.7 45.2 60.9 43.3 60.9 39.2 C 60.9 35.2 63.5 33.2 66.5 33.2 C 69.3 33.2 71.7 35 71.7 38.9 C 71.65 38.89 71.7 40 71.7 40 C 71.7 40 63.59 40.03 63.6 40 Z M 63.7 38 C 63.7 38 68.9 38 68.9 38 C 68.9 36.5 67.9 35.6 66.4 35.6 C 65.1 35.6 63.9 36.3 63.7 38 Z M 95.3 45 L 92.5 45 L 92.5 34.1 L 88.5 45 L 85.8 45 L 81.8 34.1 L 81.8 45 L 79.1 45 L 79.1 29.2 L 82.8 29.2 L 87.2 40.8 L 91.6 29.2 L 95.3 29.2 L 95.3 45 Z M 99.7 28.8 L 102.2 28.8 L 102.2 31.3 L 99.7 31.3 L 99.7 28.8 Z M 104.1 28.8 L 106.5 28.8 L 106.5 31.3 L 104.1 31.3 L 104.1 28.8 Z M 108.8 39.2 C 108.8 43 106.4 45.2 103.1 45.2 C 99.9 45.2 97.5 43 97.5 39.2 C 97.5 35.4 99.9 33.2 103.1 33.2 C 106.4 33.2 108.8 35.4 108.8 39.2 Z M 100.3 39.2 C 100.3 41.5 101.6 42.6 103.2 42.6 C 104.8 42.6 105.9 41.4 105.9 39.2 C 105.9 36.9 104.7 35.8 103.1 35.8 C 101.5 35.8 100.3 37 100.3 39.2 Z M 121.2 44.2 C 121.2 47.9 118.8 49.6 115.7 49.6 C 112.9 49.6 110.6 48.2 110.2 45.3 C 110.2 45.3 112.9 45.3 112.9 45.3 C 113.2 46.8 114.4 47.2 115.7 47.2 C 117.5 47.2 118.5 46.3 118.5 44.5 C 118.5 44.5 118.5 42.6 118.5 42.6 C 118 43.8 116.9 44.6 115.1 44.6 C 112.5 44.6 110.1 42.8 110.1 38.9 C 110.1 35 112.5 33.2 115.1 33.2 C 116.8 33.2 118 33.9 118.5 35 C 118.54 35.01 118.5 33.4 118.5 33.4 L 121.2 33.4 C 121.2 33.4 121.23 44.2 121.2 44.2 Z M 118.4 38.9 C 118.4 36.7 117.2 35.6 115.7 35.6 C 114.2 35.6 112.8 36.7 112.8 38.9 C 112.8 41.1 114.2 42.1 115.7 42.1 C 117.2 42.1 118.4 41.1 118.4 38.9 Z M 126.6 45 L 123.9 45 L 123.9 29 L 126.6 29 L 126.6 45 Z M 129.3 31.9 L 132.2 31.9 L 132.2 28.7 L 129.3 28.7 L 129.3 31.9 Z M 129.4 33.4 L 132.2 33.4 L 132.2 45 L 129.4 45 L 129.4 33.4 Z M 139.8 45.2 C 136 45.2 134.1 42.3 134.1 39.2 C 134.1 36.1 135.9 33.2 139.7 33.2 C 142.6 33.2 144.8 34.8 144.9 37.6 C 144.9 37.6 142.1 37.6 142.1 37.6 C 142 36.5 141.2 35.7 139.8 35.7 C 137.8 35.7 136.9 37.4 136.9 39.2 C 136.9 41.1 137.8 42.6 139.8 42.6 C 141.1 42.6 142 41.9 142.1 40.9 C 142.1 40.9 144.9 40.9 144.9 40.9 C 144.6 43.7 142.5 45.2 139.8 45.2 Z M 157.1 37.5 C 157.12 37.51 157.1 45 157.1 45 L 154.3 45 C 154.3 45 154.33 37.76 154.3 37.8 C 154.3 36.5 153.6 35.7 152.3 35.7 C 150.7 35.7 149.7 36.8 149.7 38.7 C 149.73 38.72 149.7 45 149.7 45 L 146.9 45 L 146.9 29 L 149.7 29 C 149.7 29 149.73 35.03 149.7 35 C 150.4 33.9 151.4 33.2 153.2 33.2 C 155.9 33.2 157.1 34.7 157.1 37.5 Z M 163.9 40.5 L 162.5 41.9 L 162.5 45 L 159.7 45 L 159.7 29 L 162.5 29 L 162.5 38.1 L 166.7 33.4 L 170.3 33.4 L 165.8 38.4 L 170.5 45 L 167.1 45 L 163.9 40.5 Z M 173.4 40 C 173.5 41.9 174.8 42.8 176.4 42.8 C 177.5 42.8 178.5 42.4 178.9 41.3 C 178.9 41.3 181.4 41.3 181.4 41.3 C 180.9 43.9 178.6 45.2 176.3 45.2 C 173.5 45.2 170.7 43.3 170.7 39.2 C 170.7 35.2 173.3 33.2 176.3 33.2 C 179.1 33.2 181.5 35 181.5 38.9 C 181.48 38.89 181.5 40 181.5 40 C 181.5 40 173.42 40.03 173.4 40 Z M 173.5 38 C 173.5 38 178.7 38 178.7 38 C 178.7 36.5 177.7 35.6 176.3 35.6 C 175 35.6 173.7 36.3 173.5 38 Z M 183.4 31.9 L 186.3 31.9 L 186.3 28.7 L 183.4 28.7 L 183.4 31.9 Z M 183.5 33.4 L 186.2 33.4 L 186.2 45 L 183.5 45 L 183.5 33.4 Z M 194.9 45 C 194.9 45 193.05 44.98 193.1 45 C 190.9 45 189.5 44.3 189.5 41.2 C 189.5 41.2 189.5 35.9 189.5 35.9 L 187.4 35.9 L 187.4 33.4 L 189.5 33.4 L 189.5 30.8 L 192.3 30 L 192.3 33.4 L 194.6 33.4 L 194.6 35.9 L 192.3 35.9 C 192.3 35.9 192.29 41.33 192.3 41.3 C 192.3 42 192.5 42.5 193.5 42.5 C 193.47 42.5 194.9 42.5 194.9 42.5 L 194.9 45 Z M 198.4 40 C 198.5 41.9 199.8 42.8 201.4 42.8 C 202.5 42.8 203.6 42.4 203.9 41.3 C 203.9 41.3 206.4 41.3 206.4 41.3 C 205.9 43.9 203.7 45.2 201.3 45.2 C 198.5 45.2 195.7 43.3 195.7 39.2 C 195.7 35.2 198.3 33.2 201.3 33.2 C 204.1 33.2 206.5 35 206.5 38.9 C 206.49 38.89 206.5 40 206.5 40 C 206.5 40 198.43 40.03 198.4 40 Z M 198.5 38 C 198.5 38 203.8 38 203.8 38 C 203.8 36.5 202.7 35.6 201.3 35.6 C 200 35.6 198.7 36.3 198.5 38 Z M 218.7 37.5 C 218.67 37.51 218.7 45 218.7 45 L 215.9 45 C 215.9 45 215.88 37.76 215.9 37.8 C 215.9 36.5 215.1 35.7 213.8 35.7 C 212.2 35.7 211.3 36.8 211.3 38.7 C 211.28 38.72 211.3 45 211.3 45 L 208.5 45 L 208.5 33.4 L 211.3 33.4 C 211.3 33.4 211.26 35.07 211.3 35.1 C 211.9 34 212.9 33.2 214.8 33.2 C 217.4 33.2 218.7 34.7 218.7 37.5 Z M 238.3 39.2 C 238.3 43.3 235.8 45.2 233.1 45.2 C 231.7 45.2 230.4 44.7 229.7 43.6 C 229.69 43.6 229.7 45 229.7 45 L 227 45 L 227 29 L 229.8 29 C 229.8 29 229.76 35.09 229.8 35.1 C 230.4 33.9 231.7 33.2 233.3 33.2 C 236 33.2 238.3 35.2 238.3 39.2 Z M 235.5 39.2 C 235.5 36.9 234.1 35.7 232.6 35.7 C 231.1 35.7 229.7 36.9 229.7 39.2 C 229.7 41.6 231.1 42.8 232.6 42.8 C 234.1 42.8 235.5 41.6 235.5 39.2 Z M 240.2 31.9 L 243.2 31.9 L 243.2 28.7 L 240.2 28.7 L 240.2 31.9 Z M 240.3 33.4 L 243.1 33.4 L 243.1 45 L 240.3 45 L 240.3 33.4 Z M 247.8 40 C 247.9 41.9 249.2 42.8 250.8 42.8 C 251.9 42.8 252.9 42.4 253.3 41.3 C 253.3 41.3 255.8 41.3 255.8 41.3 C 255.3 43.9 253 45.2 250.7 45.2 C 247.9 45.2 245.1 43.3 245.1 39.2 C 245.1 35.2 247.7 33.2 250.7 33.2 C 253.5 33.2 255.9 35 255.9 38.9 C 255.86 38.89 255.9 40 255.9 40 C 255.9 40 247.8 40.03 247.8 40 Z M 247.9 38 C 247.9 38 253.1 38 253.1 38 C 253.1 36.5 252.1 35.6 250.6 35.6 C 249.4 35.6 248.1 36.3 247.9 38 Z M 263.8 45 C 263.8 45 261.95 44.98 262 45 C 259.8 45 258.4 44.3 258.4 41.2 C 258.4 41.2 258.4 35.9 258.4 35.9 L 256.3 35.9 L 256.3 33.4 L 258.4 33.4 L 258.4 30.8 L 261.2 30 L 261.2 33.4 L 263.5 33.4 L 263.5 35.9 L 261.2 35.9 C 261.2 35.9 261.19 41.33 261.2 41.3 C 261.2 42 261.4 42.5 262.4 42.5 C 262.37 42.5 263.8 42.5 263.8 42.5 L 263.8 45 Z M 267.3 40 C 267.4 41.9 268.7 42.8 270.3 42.8 C 271.4 42.8 272.5 42.4 272.8 41.3 C 272.8 41.3 275.3 41.3 275.3 41.3 C 274.8 43.9 272.6 45.2 270.2 45.2 C 267.4 45.2 264.6 43.3 264.6 39.2 C 264.6 35.2 267.2 33.2 270.2 33.2 C 273 33.2 275.4 35 275.4 38.9 C 275.39 38.89 275.4 40 275.4 40 C 275.4 40 267.33 40.03 267.3 40 Z M 267.4 38 C 267.4 38 272.7 38 272.7 38 C 272.7 36.5 271.6 35.6 270.2 35.6 C 268.9 35.6 267.6 36.3 267.4 38 Z M 287.6 37.5 C 287.57 37.51 287.6 45 287.6 45 L 284.8 45 C 284.8 45 284.78 37.76 284.8 37.8 C 284.8 36.5 284 35.7 282.7 35.7 C 281.1 35.7 280.2 36.8 280.2 38.7 C 280.18 38.72 280.2 45 280.2 45 L 277.4 45 L 277.4 33.4 L 280.2 33.4 C 280.2 33.4 280.16 35.07 280.2 35.1 C 280.8 34 281.8 33.2 283.7 33.2 C 286.3 33.2 287.6 34.7 287.6 37.5 Z M 304.7 41.4 C 304.7 44 302.4 45.2 299.8 45.2 C 297.4 45.2 294.8 44.2 294.6 41.3 C 294.6 41.3 297.4 41.3 297.4 41.3 C 297.6 42.4 298.6 42.9 299.9 42.9 C 301.1 42.9 302 42.5 302 41.7 C 302 40.9 301.4 40.8 299.8 40.5 C 297.5 40.1 295 39.7 295 36.9 C 295 34.3 297.2 33.2 299.6 33.2 C 302.3 33.2 304.3 34.5 304.4 37.1 C 304.4 37.1 301.7 37.1 301.7 37.1 C 301.6 36 300.8 35.5 299.6 35.5 C 298.2 35.5 297.7 36.1 297.7 36.8 C 297.7 37.7 298.7 37.9 300.1 38.1 C 302.2 38.4 304.7 38.7 304.7 41.4 Z M 306.5 31.9 L 309.5 31.9 L 309.5 28.7 L 306.5 28.7 L 306.5 31.9 Z M 306.6 33.4 L 309.4 33.4 L 309.4 45 L 306.6 45 L 306.6 33.4 Z M 317 45.2 C 313.2 45.2 311.3 42.3 311.3 39.2 C 311.3 36.1 313.1 33.2 316.9 33.2 C 319.8 33.2 322 34.8 322.1 37.6 C 322.1 37.6 319.3 37.6 319.3 37.6 C 319.2 36.5 318.4 35.7 317 35.7 C 315 35.7 314.2 37.4 314.2 39.2 C 314.2 41.1 315 42.6 317 42.6 C 318.4 42.6 319.2 41.9 319.4 40.9 C 319.4 40.9 322.1 40.9 322.1 40.9 C 321.8 43.7 319.8 45.2 317 45.2 Z M 334.3 37.5 C 334.34 37.51 334.3 45 334.3 45 L 331.5 45 C 331.5 45 331.54 37.76 331.5 37.8 C 331.5 36.5 330.8 35.7 329.5 35.7 C 327.9 35.7 326.9 36.8 326.9 38.7 C 326.94 38.72 326.9 45 326.9 45 L 324.2 45 L 324.2 29 L 326.9 29 C 326.9 29 326.94 35.03 326.9 35 C 327.6 33.9 328.6 33.2 330.5 33.2 C 333.1 33.2 334.3 34.7 334.3 37.5 Z M 352.8 37.5 C 352.82 37.51 352.8 45 352.8 45 L 350 45 C 350 45 350.02 37.76 350 37.8 C 350 36.5 349.3 35.7 348 35.7 C 346.4 35.7 345.4 36.8 345.4 38.7 C 345.42 38.72 345.4 45 345.4 45 L 342.6 45 L 342.6 33.4 L 345.4 33.4 C 345.4 33.4 345.4 35.07 345.4 35.1 C 346.1 34 347 33.2 348.9 33.2 C 351.6 33.2 352.8 34.7 352.8 37.5 Z M 366 39.2 C 366 43 363.6 45.2 360.4 45.2 C 357.1 45.2 354.7 43 354.7 39.2 C 354.7 35.4 357.1 33.2 360.4 33.2 C 363.6 33.2 366 35.4 366 39.2 Z M 357.6 39.2 C 357.6 41.5 358.8 42.6 360.4 42.6 C 362.1 42.6 363.2 41.4 363.2 39.2 C 363.2 36.9 361.9 35.8 360.3 35.8 C 358.7 35.8 357.6 37 357.6 39.2 Z M 372.9 45.2 C 369.1 45.2 367.3 42.3 367.3 39.2 C 367.3 36.1 369.1 33.2 372.9 33.2 C 375.7 33.2 377.9 34.8 378 37.6 C 378 37.6 375.3 37.6 375.3 37.6 C 375.1 36.5 374.3 35.7 373 35.7 C 370.9 35.7 370.1 37.4 370.1 39.2 C 370.1 41.1 371 42.6 373 42.6 C 374.3 42.6 375.1 41.9 375.3 40.9 C 375.3 40.9 378.1 40.9 378.1 40.9 C 377.7 43.7 375.7 45.2 372.9 45.2 Z M 390.3 37.5 C 390.28 37.51 390.3 45 390.3 45 L 387.5 45 C 387.5 45 387.49 37.76 387.5 37.8 C 387.5 36.5 386.8 35.7 385.4 35.7 C 383.9 35.7 382.9 36.8 382.9 38.7 C 382.89 38.72 382.9 45 382.9 45 L 380.1 45 L 380.1 29 L 382.9 29 C 382.9 29 382.89 35.03 382.9 35 C 383.6 33.9 384.5 33.2 386.4 33.2 C 389 33.2 390.3 34.7 390.3 37.5 Z " stroke="none" fill="#000"/>  </g>  <g id="Polygon10042">    <path d="M 12.1 15.5 C 12.1 18.5 9.4 20 6.5 20 C 3.5 20 0.6 18.3 0.6 14.7 C 0.6 14.7 3.5 14.7 3.5 14.7 C 3.3 16.5 4.8 17.5 6.5 17.5 C 7.9 17.5 9.1 16.8 9.1 15.4 C 9.1 14 8 13.3 5.9 13.3 C 5.94 13.33 4.8 13.3 4.8 13.3 L 4.8 10.8 C 4.8 10.8 5.86 10.81 5.9 10.8 C 7.7 10.8 8.8 9.9 8.8 8.6 C 8.8 7.3 7.8 6.6 6.4 6.6 C 4.8 6.6 3.6 7.5 3.6 9.5 C 3.6 9.5 0.7 9.5 0.7 9.5 C 0.7 5.8 3.4 4 6.5 4 C 9.3 4 11.7 5.5 11.7 8.2 C 11.7 10.2 10.5 11.4 9.2 11.8 C 10.8 12.4 12.1 13.4 12.1 15.5 Z M 13.4 12.1 C 13.4 7.2 15.1 4 18.9 4 C 22.7 4 24.4 7.2 24.4 12 C 24.4 16.9 22.7 20 18.9 20 C 15.1 20 13.4 16.9 13.4 12.1 Z M 21.6 12.1 C 21.6 9 20.8 6.5 18.8 6.5 C 17.1 6.5 16.2 8.5 16.2 11.9 C 16.2 15.4 17.1 17.6 18.9 17.6 C 20.8 17.6 21.6 15.3 21.6 12.1 Z M 29.4 3.5 C 31.7 3.5 33.4 5.1 33.4 7.5 C 33.4 9.8 31.7 11.5 29.4 11.5 C 27.1 11.5 25.4 9.8 25.4 7.5 C 25.4 5.1 27.1 3.5 29.4 3.5 Z M 30.6 19.8 L 28.9 19.8 L 38.8 4 L 40.5 4 L 30.6 19.8 Z M 29.4 5.3 C 28.2 5.3 27.3 6.2 27.3 7.5 C 27.3 8.8 28.2 9.7 29.4 9.7 C 30.6 9.7 31.5 8.8 31.5 7.5 C 31.5 6.2 30.6 5.3 29.4 5.3 Z M 39.5 12.4 C 41.8 12.4 43.6 14 43.6 16.4 C 43.6 18.7 41.8 20.4 39.5 20.4 C 37.3 20.4 35.6 18.7 35.6 16.4 C 35.6 14 37.3 12.4 39.5 12.4 Z M 39.5 14.2 C 38.3 14.2 37.5 15.1 37.5 16.4 C 37.5 17.7 38.3 18.6 39.5 18.6 C 40.8 18.6 41.6 17.7 41.6 16.4 C 41.6 15.1 40.8 14.2 39.5 14.2 Z M 60.1 12 C 60.06 11.99 60.1 19.8 60.1 19.8 L 57.3 19.8 C 57.3 19.8 57.33 18.1 57.3 18.1 C 56.4 19.6 55 20 53.8 20 C 52 20 50.1 18.9 50.1 16.4 C 50.1 14.6 51.1 13.4 53.8 13 C 53.8 13 56.3 12.6 56.3 12.6 C 57 12.5 57.4 12.3 57.4 11.6 C 57.4 10.6 56.6 10.2 55.5 10.2 C 54 10.2 53.3 10.9 53.2 11.9 C 53.2 11.9 50.5 11.9 50.5 11.9 C 50.8 9.2 53 8 55.6 8 C 58.3 8 60.1 9.3 60.1 12 Z M 57.4 14.9 C 57.4 14.9 57.4 14.3 57.4 14.3 C 57.1 14.4 56.6 14.6 56 14.6 C 56 14.6 54.7 14.8 54.7 14.8 C 53.3 15 52.9 15.6 52.9 16.3 C 52.9 17.2 53.5 17.7 54.5 17.7 C 55.9 17.7 57.4 16.6 57.4 14.9 Z M 65.4 19.8 L 62.6 19.8 L 62.6 3.8 L 65.4 3.8 L 65.4 19.8 Z M 70.9 19.8 L 68.1 19.8 L 68.1 3.8 L 70.9 3.8 L 70.9 19.8 Z M 75.6 14.8 C 75.7 16.7 77 17.6 78.6 17.6 C 79.7 17.6 80.7 17.2 81.1 16.1 C 81.1 16.1 83.6 16.1 83.6 16.1 C 83.1 18.7 80.8 20 78.5 20 C 75.7 20 72.9 18.1 72.9 14 C 72.9 10 75.5 8 78.5 8 C 81.3 8 83.7 9.8 83.7 13.7 C 83.66 13.69 83.7 14.8 83.7 14.8 C 83.7 14.8 75.6 14.83 75.6 14.8 Z M 75.7 12.8 C 75.7 12.8 80.9 12.8 80.9 12.8 C 80.9 11.3 79.9 10.4 78.4 10.4 C 77.2 10.4 75.9 11.1 75.7 12.8 Z M 92.2 10.8 C 92.2 10.8 91.47 10.77 91.5 10.8 C 89.5 10.8 88.5 11.8 88.5 14.1 C 88.45 14.11 88.5 19.8 88.5 19.8 L 85.7 19.8 L 85.7 8.2 L 88.4 8.2 C 88.4 8.2 88.43 9.85 88.4 9.8 C 89 8.6 90.1 8.1 91.5 8.1 C 91.45 8.06 92.2 8.1 92.2 8.1 L 92.2 10.8 Z M 108.3 16.3 L 101.6 16.3 L 100.4 19.8 L 97.2 19.8 L 103.3 4 L 106.6 4 L 112.8 19.8 L 109.6 19.8 L 108.3 16.3 Z M 107.3 13.5 L 104.9 7.3 L 102.6 13.5 L 107.3 13.5 Z M 124.8 12.3 C 124.8 12.31 124.8 19.8 124.8 19.8 L 122 19.8 C 122 19.8 122.01 12.56 122 12.6 C 122 11.3 121.3 10.5 120 10.5 C 118.4 10.5 117.4 11.6 117.4 13.5 C 117.41 13.52 117.4 19.8 117.4 19.8 L 114.6 19.8 L 114.6 8.2 L 117.4 8.2 C 117.4 8.2 117.39 9.87 117.4 9.9 C 118 8.8 119 8 120.9 8 C 123.6 8 124.8 9.5 124.8 12.3 Z M 130.2 19.8 L 127.4 19.8 L 127.4 3.8 L 130.2 3.8 L 130.2 19.8 Z M 134.9 14.8 C 135 16.7 136.3 17.6 137.9 17.6 C 139 17.6 140 17.2 140.4 16.1 C 140.4 16.1 142.9 16.1 142.9 16.1 C 142.4 18.7 140.2 20 137.8 20 C 135 20 132.2 18.1 132.2 14 C 132.2 10 134.8 8 137.8 8 C 140.6 8 143 9.8 143 13.7 C 142.99 13.69 143 14.8 143 14.8 C 143 14.8 134.92 14.83 134.9 14.8 Z M 135 12.8 C 135 12.8 140.3 12.8 140.3 12.8 C 140.3 11.3 139.2 10.4 137.8 10.4 C 136.5 10.4 135.2 11.1 135 12.8 Z M 144.9 6.7 L 147.8 6.7 L 147.8 3.5 L 144.9 3.5 L 144.9 6.7 Z M 145 8.2 L 147.8 8.2 L 147.8 19.8 L 145 19.8 L 145 8.2 Z M 160.6 12.3 C 160.65 12.31 160.6 19.8 160.6 19.8 L 157.9 19.8 C 157.9 19.8 157.85 12.56 157.9 12.6 C 157.9 11.3 157.1 10.5 155.8 10.5 C 154.2 10.5 153.3 11.6 153.3 13.5 C 153.26 13.52 153.3 19.8 153.3 19.8 L 150.5 19.8 L 150.5 3.8 L 153.3 3.8 C 153.3 3.8 153.26 9.83 153.3 9.8 C 153.9 8.7 154.9 8 156.8 8 C 159.4 8 160.6 9.5 160.6 12.3 Z M 165.2 14.8 C 165.3 16.7 166.7 17.6 168.2 17.6 C 169.3 17.6 170.4 17.2 170.7 16.1 C 170.7 16.1 173.3 16.1 173.3 16.1 C 172.8 18.7 170.5 20 168.1 20 C 165.3 20 162.5 18.1 162.5 14 C 162.5 10 165.2 8 168.1 8 C 170.9 8 173.3 9.8 173.3 13.7 C 173.31 13.69 173.3 14.8 173.3 14.8 C 173.3 14.8 165.25 14.83 165.2 14.8 Z M 165.3 12.8 C 165.3 12.8 170.6 12.8 170.6 12.8 C 170.6 11.3 169.5 10.4 168.1 10.4 C 166.8 10.4 165.6 11.1 165.3 12.8 Z M 185.5 12.3 C 185.49 12.31 185.5 19.8 185.5 19.8 L 182.7 19.8 C 182.7 19.8 182.7 12.56 182.7 12.6 C 182.7 11.3 182 10.5 180.7 10.5 C 179.1 10.5 178.1 11.6 178.1 13.5 C 178.1 13.52 178.1 19.8 178.1 19.8 L 175.3 19.8 L 175.3 8.2 L 178.1 8.2 C 178.1 8.2 178.08 9.87 178.1 9.9 C 178.7 8.8 179.7 8 181.6 8 C 184.3 8 185.5 9.5 185.5 12.3 Z M 200.3 10.8 C 200.3 10.8 199.6 10.77 199.6 10.8 C 197.6 10.8 196.6 11.8 196.6 14.1 C 196.58 14.11 196.6 19.8 196.6 19.8 L 193.8 19.8 L 193.8 8.2 L 196.6 8.2 C 196.6 8.2 196.56 9.85 196.6 9.8 C 197.1 8.6 198.2 8.1 199.6 8.1 C 199.58 8.06 200.3 8.1 200.3 8.1 L 200.3 10.8 Z M 203.5 14.8 C 203.5 16.7 204.9 17.6 206.4 17.6 C 207.5 17.6 208.6 17.2 208.9 16.1 C 208.9 16.1 211.5 16.1 211.5 16.1 C 211 18.7 208.7 20 206.3 20 C 203.5 20 200.8 18.1 200.8 14 C 200.8 10 203.4 8 206.3 8 C 209.2 8 211.5 9.8 211.5 13.7 C 211.53 13.69 211.5 14.8 211.5 14.8 C 211.5 14.8 203.47 14.83 203.5 14.8 Z M 203.5 12.8 C 203.5 12.8 208.8 12.8 208.8 12.8 C 208.8 11.3 207.7 10.4 206.3 10.4 C 205 10.4 203.8 11.1 203.5 12.8 Z M 223.7 12.3 C 223.71 12.31 223.7 19.8 223.7 19.8 L 220.9 19.8 C 220.9 19.8 220.92 12.56 220.9 12.6 C 220.9 11.3 220.2 10.5 218.9 10.5 C 217.3 10.5 216.3 11.6 216.3 13.5 C 216.32 13.52 216.3 19.8 216.3 19.8 L 213.5 19.8 L 213.5 8.2 L 216.3 8.2 C 216.3 8.2 216.3 9.87 216.3 9.9 C 216.9 8.8 217.9 8 219.8 8 C 222.5 8 223.7 9.5 223.7 12.3 Z M 232.3 19.8 C 232.3 19.8 230.43 19.78 230.4 19.8 C 228.3 19.8 226.9 19.1 226.9 16 C 226.88 16 226.9 10.7 226.9 10.7 L 224.8 10.7 L 224.8 8.2 L 226.9 8.2 L 226.9 5.6 L 229.7 4.8 L 229.7 8.2 L 232 8.2 L 232 10.7 L 229.7 10.7 C 229.7 10.7 229.67 16.13 229.7 16.1 C 229.7 16.8 229.9 17.3 230.8 17.3 C 230.85 17.3 232.3 17.3 232.3 17.3 L 232.3 19.8 Z M 233.7 6.7 L 236.7 6.7 L 236.7 3.5 L 233.7 3.5 L 233.7 6.7 Z M 233.8 8.2 L 236.6 8.2 L 236.6 19.8 L 233.8 19.8 L 233.8 8.2 Z M 241.3 14.8 C 241.3 16.7 242.7 17.6 244.3 17.6 C 245.4 17.6 246.4 17.2 246.7 16.1 C 246.7 16.1 249.3 16.1 249.3 16.1 C 248.8 18.7 246.5 20 244.1 20 C 241.3 20 238.6 18.1 238.6 14 C 238.6 10 241.2 8 244.2 8 C 247 8 249.3 9.8 249.3 13.7 C 249.35 13.69 249.3 14.8 249.3 14.8 C 249.3 14.8 241.29 14.83 241.3 14.8 Z M 241.3 12.8 C 241.3 12.8 246.6 12.8 246.6 12.8 C 246.6 11.3 245.5 10.4 244.1 10.4 C 242.8 10.4 241.6 11.1 241.3 12.8 Z M 257.9 10.8 C 257.9 10.8 257.16 10.77 257.2 10.8 C 255.2 10.8 254.1 11.8 254.1 14.1 C 254.14 14.11 254.1 19.8 254.1 19.8 L 251.3 19.8 L 251.3 8.2 L 254.1 8.2 C 254.1 8.2 254.12 9.85 254.1 9.8 C 254.7 8.6 255.8 8.1 257.1 8.1 C 257.14 8.06 257.9 8.1 257.9 8.1 L 257.9 10.8 Z M 261 14.8 C 261.1 16.7 262.4 17.6 264 17.6 C 265.1 17.6 266.1 17.2 266.5 16.1 C 266.5 16.1 269 16.1 269 16.1 C 268.5 18.7 266.3 20 263.9 20 C 261.1 20 258.3 18.1 258.3 14 C 258.3 10 260.9 8 263.9 8 C 266.7 8 269.1 9.8 269.1 13.7 C 269.09 13.69 269.1 14.8 269.1 14.8 C 269.1 14.8 261.03 14.83 261 14.8 Z M 261.1 12.8 C 261.1 12.8 266.4 12.8 266.4 12.8 C 266.4 11.3 265.3 10.4 263.9 10.4 C 262.6 10.4 261.3 11.1 261.1 12.8 Z M 281.3 12.3 C 281.27 12.31 281.3 19.8 281.3 19.8 L 278.5 19.8 C 278.5 19.8 278.48 12.56 278.5 12.6 C 278.5 11.3 277.7 10.5 276.4 10.5 C 274.8 10.5 273.9 11.6 273.9 13.5 C 273.88 13.52 273.9 19.8 273.9 19.8 L 271.1 19.8 L 271.1 8.2 L 273.9 8.2 C 273.9 8.2 273.86 9.87 273.9 9.9 C 274.5 8.8 275.5 8 277.4 8 C 280 8 281.3 9.5 281.3 12.3 Z M 299.7 12.3 C 299.75 12.31 299.7 19.8 299.7 19.8 L 297 19.8 C 297 19.8 296.96 12.56 297 12.6 C 297 11.3 296.2 10.5 294.9 10.5 C 293.3 10.5 292.4 11.6 292.4 13.5 C 292.36 13.52 292.4 19.8 292.4 19.8 L 289.6 19.8 L 289.6 8.2 L 292.3 8.2 C 292.3 8.2 292.34 9.87 292.3 9.9 C 293 8.8 293.9 8 295.9 8 C 298.5 8 299.7 9.5 299.7 12.3 Z M 304.3 14.8 C 304.4 16.7 305.8 17.6 307.3 17.6 C 308.4 17.6 309.5 17.2 309.8 16.1 C 309.8 16.1 312.4 16.1 312.4 16.1 C 311.9 18.7 309.6 20 307.2 20 C 304.4 20 301.6 18.1 301.6 14 C 301.6 10 304.3 8 307.2 8 C 310 8 312.4 9.8 312.4 13.7 C 312.41 13.69 312.4 14.8 312.4 14.8 C 312.4 14.8 304.35 14.83 304.3 14.8 Z M 304.4 12.8 C 304.4 12.8 309.7 12.8 309.7 12.8 C 309.7 11.3 308.6 10.4 307.2 10.4 C 305.9 10.4 304.7 11.1 304.4 12.8 Z M 324.8 19 C 324.8 22.7 322.4 24.4 319.3 24.4 C 316.5 24.4 314.2 23 313.8 20.1 C 313.8 20.1 316.5 20.1 316.5 20.1 C 316.8 21.6 318 22 319.3 22 C 321.1 22 322.2 21.1 322.2 19.3 C 322.2 19.3 322.2 17.4 322.2 17.4 C 321.6 18.6 320.5 19.4 318.7 19.4 C 316.1 19.4 313.7 17.6 313.7 13.7 C 313.7 9.8 316.1 8 318.7 8 C 320.4 8 321.6 8.7 322.2 9.8 C 322.16 9.81 322.2 8.2 322.2 8.2 L 324.8 8.2 C 324.8 8.2 324.84 19 324.8 19 Z M 322.1 13.7 C 322.1 11.5 320.8 10.4 319.3 10.4 C 317.8 10.4 316.4 11.5 316.4 13.7 C 316.4 15.9 317.8 16.9 319.3 16.9 C 320.8 16.9 322.1 15.9 322.1 13.7 Z M 336.7 12 C 336.73 11.99 336.7 19.8 336.7 19.8 L 334 19.8 C 334 19.8 334 18.1 334 18.1 C 333.1 19.6 331.7 20 330.5 20 C 328.6 20 326.7 18.9 326.7 16.4 C 326.7 14.6 327.8 13.4 330.4 13 C 330.4 13 332.9 12.6 332.9 12.6 C 333.6 12.5 334.1 12.3 334.1 11.6 C 334.1 10.6 333.3 10.2 332.2 10.2 C 330.7 10.2 330 10.9 329.9 11.9 C 329.9 11.9 327.2 11.9 327.2 11.9 C 327.5 9.2 329.7 8 332.3 8 C 335 8 336.7 9.3 336.7 12 Z M 334 14.9 C 334 14.9 334 14.3 334 14.3 C 333.7 14.4 333.2 14.6 332.7 14.6 C 332.7 14.6 331.4 14.8 331.4 14.8 C 330 15 329.5 15.6 329.5 16.3 C 329.5 17.2 330.2 17.7 331.1 17.7 C 332.6 17.7 334 16.6 334 14.9 Z M 345.2 19.8 C 345.2 19.8 343.34 19.78 343.3 19.8 C 341.2 19.8 339.8 19.1 339.8 16 C 339.8 16 339.8 10.7 339.8 10.7 L 337.7 10.7 L 337.7 8.2 L 339.8 8.2 L 339.8 5.6 L 342.6 4.8 L 342.6 8.2 L 344.9 8.2 L 344.9 10.7 L 342.6 10.7 C 342.6 10.7 342.59 16.13 342.6 16.1 C 342.6 16.8 342.8 17.3 343.8 17.3 C 343.76 17.3 345.2 17.3 345.2 17.3 L 345.2 19.8 Z M 346.6 6.7 L 349.6 6.7 L 349.6 3.5 L 346.6 3.5 L 346.6 6.7 Z M 346.7 8.2 L 349.5 8.2 L 349.5 19.8 L 346.7 19.8 L 346.7 8.2 Z M 358.1 19.8 L 355.1 19.8 L 350.9 8.2 L 353.8 8.2 L 356.7 16.5 L 359.5 8.2 L 362.4 8.2 L 358.1 19.8 Z M 368.3 15.4 L 368.3 13 L 378.8 13 L 378.8 15.4 L 368.3 15.4 Z " stroke="none" fill="#000"/>  </g></svg>