<?xml version="1.0" standalone="no"?><!DOCTYPE svg PUBLIC "-//W3C//DTD SVG 1.1//EN" "http://www.w3.org/Graphics/SVG/1.1/DTD/svg11.dtd"><svg xmlns="http://www.w3.org/2000/svg" version="1.1" width="373px" height="148.4px" viewBox="0 -4 373 148.4" style="top:-4px"> <desc>Since spreads narrowed in high-yield and there was no wave of defaults, do these bonds offer attractive risk returns</desc> <defs/> <g id="Polygon11714">  <path d="M 7.9 86.4 C 7.9 86.4 7.18 86.37 7.2 86.4 C 5.2 86.4 4.2 87.4 4.2 89.7 C 4.16 89.71 4.2 95.4 4.2 95.4 L 1.4 95.4 L 1.4 83.8 L 4.1 83.8 C 4.1 83.8 4.14 85.45 4.1 85.4 C 4.7 84.2 5.8 83.7 7.2 83.7 C 7.16 83.66 7.9 83.7 7.9 83.7 L 7.9 86.4 Z M 11 90.4 C 11.1 92.3 12.5 93.2 14 93.2 C 15.1 93.2 16.2 92.8 16.5 91.7 C 16.5 91.7 19.1 91.7 19.1 91.7 C 18.6 94.3 16.3 95.6 13.9 95.6 C 11.1 95.6 8.3 93.7 8.3 89.6 C 8.3 85.6 11 83.6 13.9 83.6 C 16.7 83.6 19.1 85.4 19.1 89.3 C 19.11 89.29 19.1 90.4 19.1 90.4 C 19.1 90.4 11.05 90.43 11 90.4 Z M 11.1 88.4 C 11.1 88.4 16.4 88.4 16.4 88.4 C 16.4 86.9 15.3 86 13.9 86 C 12.6 86 11.4 86.7 11.1 88.4 Z M 27 95.4 C 27 95.4 25.2 95.38 25.2 95.4 C 23 95.4 21.7 94.7 21.7 91.6 C 21.65 91.6 21.7 86.3 21.7 86.3 L 19.5 86.3 L 19.5 83.8 L 21.7 83.8 L 21.7 81.2 L 24.4 80.4 L 24.4 83.8 L 26.8 83.8 L 26.8 86.3 L 24.4 86.3 C 24.4 86.3 24.44 91.73 24.4 91.7 C 24.4 92.4 24.6 92.9 25.6 92.9 C 25.62 92.9 27 92.9 27 92.9 L 27 95.4 Z M 38.7 95.4 L 36 95.4 C 36 95.4 36.01 93.74 36 93.7 C 35.3 94.8 34.3 95.5 32.7 95.5 C 30.3 95.5 28.5 94 28.5 91 C 28.5 90.99 28.5 83.8 28.5 83.8 L 31.3 83.8 C 31.3 83.8 31.29 90.78 31.3 90.8 C 31.3 92.4 32.1 93 33.3 93 C 34.8 93 36 92.1 36 89.4 C 35.95 89.4 36 83.8 36 83.8 L 38.7 83.8 L 38.7 95.4 Z M 48 86.4 C 48 86.4 47.29 86.37 47.3 86.4 C 45.3 86.4 44.3 87.4 44.3 89.7 C 44.27 89.71 44.3 95.4 44.3 95.4 L 41.5 95.4 L 41.5 83.8 L 44.2 83.8 C 44.2 83.8 44.25 85.45 44.2 85.4 C 44.8 84.2 45.9 83.7 47.3 83.7 C 47.27 83.66 48 83.7 48 83.7 L 48 86.4 Z M 59.6 87.9 C 59.58 87.91 59.6 95.4 59.6 95.4 L 56.8 95.4 C 56.8 95.4 56.78 88.16 56.8 88.2 C 56.8 86.9 56 86.1 54.7 86.1 C 53.2 86.1 52.2 87.2 52.2 89.1 C 52.18 89.12 52.2 95.4 52.2 95.4 L 49.4 95.4 L 49.4 83.8 L 52.2 83.8 C 52.2 83.8 52.16 85.47 52.2 85.5 C 52.8 84.4 53.8 83.6 55.7 83.6 C 58.3 83.6 59.6 85.1 59.6 87.9 Z M 71.5 91.8 C 71.5 94.4 69.2 95.6 66.5 95.6 C 64.2 95.6 61.6 94.6 61.4 91.7 C 61.4 91.7 64.2 91.7 64.2 91.7 C 64.4 92.8 65.4 93.3 66.7 93.3 C 67.9 93.3 68.7 92.9 68.7 92.1 C 68.7 91.3 68.2 91.2 66.6 90.9 C 64.3 90.5 61.7 90.1 61.7 87.3 C 61.7 84.7 63.9 83.6 66.3 83.6 C 69 83.6 71 84.9 71.2 87.5 C 71.2 87.5 68.5 87.5 68.5 87.5 C 68.4 86.4 67.5 85.9 66.4 85.9 C 65 85.9 64.4 86.5 64.4 87.2 C 64.4 88.1 65.5 88.3 66.9 88.5 C 68.9 88.8 71.5 89.1 71.5 91.8 Z M 87.9 87.6 C 87.86 87.59 87.9 95.4 87.9 95.4 L 85.1 95.4 C 85.1 95.4 85.13 93.7 85.1 93.7 C 84.2 95.2 82.8 95.6 81.6 95.6 C 79.8 95.6 77.9 94.5 77.9 92 C 77.9 90.2 78.9 89 81.6 88.6 C 81.6 88.6 84.1 88.2 84.1 88.2 C 84.8 88.1 85.2 87.9 85.2 87.2 C 85.2 86.2 84.4 85.8 83.3 85.8 C 81.8 85.8 81.1 86.5 81 87.5 C 81 87.5 78.3 87.5 78.3 87.5 C 78.6 84.8 80.8 83.6 83.4 83.6 C 86.1 83.6 87.9 84.9 87.9 87.6 Z M 85.2 90.5 C 85.2 90.5 85.2 89.9 85.2 89.9 C 84.9 90 84.4 90.2 83.8 90.2 C 83.8 90.2 82.5 90.4 82.5 90.4 C 81.1 90.6 80.7 91.2 80.7 91.9 C 80.7 92.8 81.3 93.3 82.3 93.3 C 83.7 93.3 85.2 92.2 85.2 90.5 Z M 96.3 95.4 C 96.3 95.4 94.48 95.38 94.5 95.4 C 92.3 95.4 90.9 94.7 90.9 91.6 C 90.93 91.6 90.9 86.3 90.9 86.3 L 88.8 86.3 L 88.8 83.8 L 90.9 83.8 L 90.9 81.2 L 93.7 80.4 L 93.7 83.8 L 96 83.8 L 96 86.3 L 93.7 86.3 C 93.7 86.3 93.72 91.73 93.7 91.7 C 93.7 92.4 93.9 92.9 94.9 92.9 C 94.9 92.9 96.3 92.9 96.3 92.9 L 96.3 95.4 Z M 107.8 95.6 C 104 95.6 102.2 92.7 102.2 89.6 C 102.2 86.5 104 83.6 107.8 83.6 C 110.6 83.6 112.8 85.2 112.9 88 C 112.9 88 110.2 88 110.2 88 C 110 86.9 109.2 86.1 107.9 86.1 C 105.8 86.1 105 87.8 105 89.6 C 105 91.5 105.9 93 107.9 93 C 109.2 93 110 92.3 110.2 91.3 C 110.2 91.3 113 91.3 113 91.3 C 112.6 94.1 110.6 95.6 107.8 95.6 Z M 125.1 95.4 L 122.4 95.4 C 122.4 95.4 122.41 93.74 122.4 93.7 C 121.7 94.8 120.7 95.5 119.1 95.5 C 116.7 95.5 114.9 94 114.9 91 C 114.89 90.99 114.9 83.8 114.9 83.8 L 117.7 83.8 C 117.7 83.8 117.68 90.78 117.7 90.8 C 117.7 92.4 118.5 93 119.7 93 C 121.2 93 122.3 92.1 122.3 89.4 C 122.34 89.4 122.3 83.8 122.3 83.8 L 125.1 83.8 L 125.1 95.4 Z M 134.4 86.4 C 134.4 86.4 133.68 86.37 133.7 86.4 C 131.7 86.4 130.7 87.4 130.7 89.7 C 130.66 89.71 130.7 95.4 130.7 95.4 L 127.9 95.4 L 127.9 83.8 L 130.6 83.8 C 130.6 83.8 130.64 85.45 130.6 85.4 C 131.2 84.2 132.3 83.7 133.7 83.7 C 133.66 83.66 134.4 83.7 134.4 83.7 L 134.4 86.4 Z M 142.3 86.4 C 142.3 86.4 141.6 86.37 141.6 86.4 C 139.6 86.4 138.6 87.4 138.6 89.7 C 138.58 89.71 138.6 95.4 138.6 95.4 L 135.8 95.4 L 135.8 83.8 L 138.6 83.8 C 138.6 83.8 138.56 85.45 138.6 85.4 C 139.1 84.2 140.2 83.7 141.6 83.7 C 141.58 83.66 142.3 83.7 142.3 83.7 L 142.3 86.4 Z M 145.5 90.4 C 145.5 92.3 146.9 93.2 148.4 93.2 C 149.5 93.2 150.6 92.8 150.9 91.7 C 150.9 91.7 153.5 91.7 153.5 91.7 C 153 94.3 150.7 95.6 148.3 95.6 C 145.5 95.6 142.8 93.7 142.8 89.6 C 142.8 85.6 145.4 83.6 148.3 83.6 C 151.2 83.6 153.5 85.4 153.5 89.3 C 153.53 89.29 153.5 90.4 153.5 90.4 C 153.5 90.4 145.47 90.43 145.5 90.4 Z M 145.5 88.4 C 145.5 88.4 150.8 88.4 150.8 88.4 C 150.8 86.9 149.7 86 148.3 86 C 147 86 145.8 86.7 145.5 88.4 Z M 165.7 87.9 C 165.71 87.91 165.7 95.4 165.7 95.4 L 162.9 95.4 C 162.9 95.4 162.92 88.16 162.9 88.2 C 162.9 86.9 162.2 86.1 160.9 86.1 C 159.3 86.1 158.3 87.2 158.3 89.1 C 158.32 89.12 158.3 95.4 158.3 95.4 L 155.5 95.4 L 155.5 83.8 L 158.3 83.8 C 158.3 83.8 158.3 85.47 158.3 85.5 C 158.9 84.4 159.9 83.6 161.8 83.6 C 164.5 83.6 165.7 85.1 165.7 87.9 Z M 174.3 95.4 C 174.3 95.4 172.43 95.38 172.4 95.4 C 170.3 95.4 168.9 94.7 168.9 91.6 C 168.88 91.6 168.9 86.3 168.9 86.3 L 166.8 86.3 L 166.8 83.8 L 168.9 83.8 L 168.9 81.2 L 171.7 80.4 L 171.7 83.8 L 174 83.8 L 174 86.3 L 171.7 86.3 C 171.7 86.3 171.67 91.73 171.7 91.7 C 171.7 92.4 171.9 92.9 172.8 92.9 C 172.85 92.9 174.3 92.9 174.3 92.9 L 174.3 95.4 Z M 190.1 91.8 C 190.1 94.4 187.8 95.6 185.2 95.6 C 182.8 95.6 180.2 94.6 180 91.7 C 180 91.7 182.8 91.7 182.8 91.7 C 183 92.8 184.1 93.3 185.4 93.3 C 186.5 93.3 187.4 92.9 187.4 92.1 C 187.4 91.3 186.8 91.2 185.2 90.9 C 183 90.5 180.4 90.1 180.4 87.3 C 180.4 84.7 182.6 83.6 185 83.6 C 187.7 83.6 189.7 84.9 189.9 87.5 C 189.9 87.5 187.1 87.5 187.1 87.5 C 187 86.4 186.2 85.9 185 85.9 C 183.6 85.9 183.1 86.5 183.1 87.2 C 183.1 88.1 184.1 88.3 185.5 88.5 C 187.6 88.8 190.1 89.1 190.1 91.8 Z M 203.4 89.4 C 203.4 93.6 200.8 95.5 198.1 95.5 C 196.5 95.5 195.5 94.8 194.8 94 C 194.82 94 194.8 99.7 194.8 99.7 L 192 99.7 L 192 83.8 L 194.8 83.8 C 194.8 83.8 194.75 85.64 194.8 85.6 C 195.3 84.4 196.7 83.6 198.4 83.6 C 201.1 83.6 203.4 85.5 203.4 89.4 Z M 200.6 89.6 C 200.6 87.2 199.2 86.1 197.7 86.1 C 196.2 86.1 194.7 87.2 194.7 89.6 C 194.7 91.9 196.2 93 197.7 93 C 199.2 93 200.6 91.9 200.6 89.6 Z M 212 86.4 C 212 86.4 211.22 86.37 211.2 86.4 C 209.3 86.4 208.2 87.4 208.2 89.7 C 208.19 89.71 208.2 95.4 208.2 95.4 L 205.4 95.4 L 205.4 83.8 L 208.2 83.8 C 208.2 83.8 208.17 85.45 208.2 85.4 C 208.8 84.2 209.8 83.7 211.2 83.7 C 211.2 83.66 212 83.7 212 83.7 L 212 86.4 Z M 215.1 90.4 C 215.1 92.3 216.5 93.2 218.1 93.2 C 219.2 93.2 220.2 92.8 220.5 91.7 C 220.5 91.7 223.1 91.7 223.1 91.7 C 222.6 94.3 220.3 95.6 217.9 95.6 C 215.1 95.6 212.4 93.7 212.4 89.6 C 212.4 85.6 215 83.6 218 83.6 C 220.8 83.6 223.1 85.4 223.1 89.3 C 223.14 89.29 223.1 90.4 223.1 90.4 C 223.1 90.4 215.08 90.43 215.1 90.4 Z M 215.1 88.4 C 215.1 88.4 220.4 88.4 220.4 88.4 C 220.4 86.9 219.3 86 217.9 86 C 216.6 86 215.4 86.7 215.1 88.4 Z M 234.4 87.6 C 234.4 87.59 234.4 95.4 234.4 95.4 L 231.7 95.4 C 231.7 95.4 231.67 93.7 231.7 93.7 C 230.8 95.2 229.4 95.6 228.2 95.6 C 226.3 95.6 224.4 94.5 224.4 92 C 224.4 90.2 225.4 89 228.1 88.6 C 228.1 88.6 230.6 88.2 230.6 88.2 C 231.3 88.1 231.8 87.9 231.8 87.2 C 231.8 86.2 230.9 85.8 229.8 85.8 C 228.3 85.8 227.7 86.5 227.6 87.5 C 227.6 87.5 224.9 87.5 224.9 87.5 C 225.2 84.8 227.3 83.6 229.9 83.6 C 232.7 83.6 234.4 84.9 234.4 87.6 Z M 231.7 90.5 C 231.7 90.5 231.7 89.9 231.7 89.9 C 231.4 90 230.9 90.2 230.3 90.2 C 230.3 90.2 229.1 90.4 229.1 90.4 C 227.7 90.6 227.2 91.2 227.2 91.9 C 227.2 92.8 227.8 93.3 228.8 93.3 C 230.3 93.3 231.7 92.2 231.7 90.5 Z M 247.6 95.4 L 244.8 95.4 C 244.8 95.4 244.84 93.6 244.8 93.6 C 244.2 94.9 242.9 95.6 241.3 95.6 C 238.6 95.6 236.2 93.6 236.2 89.6 C 236.2 85.6 238.6 83.6 241.3 83.6 C 242.8 83.6 244.1 84.2 244.8 85.3 C 244.77 85.32 244.8 79.4 244.8 79.4 L 247.6 79.4 L 247.6 95.4 Z M 244.9 89.6 C 244.9 87.2 243.4 86.1 241.9 86.1 C 240.4 86.1 239 87.2 239 89.6 C 239 91.9 240.4 93.1 241.9 93.1 C 243.4 93.1 244.9 91.9 244.9 89.6 Z M 258.8 95.4 L 256 95.4 L 256 79.4 L 258.8 79.4 L 258.8 95.4 Z M 263.5 90.4 C 263.5 92.3 264.9 93.2 266.4 93.2 C 267.5 93.2 268.6 92.8 268.9 91.7 C 268.9 91.7 271.5 91.7 271.5 91.7 C 271 94.3 268.7 95.6 266.3 95.6 C 263.5 95.6 260.8 93.7 260.8 89.6 C 260.8 85.6 263.4 83.6 266.3 83.6 C 269.2 83.6 271.5 85.4 271.5 89.3 C 271.53 89.29 271.5 90.4 271.5 90.4 C 271.5 90.4 263.46 90.43 263.5 90.4 Z M 263.5 88.4 C 263.5 88.4 268.8 88.4 268.8 88.4 C 268.8 86.9 267.7 86 266.3 86 C 265 86 263.8 86.7 263.5 88.4 Z M 279.4 95.4 L 276.4 95.4 L 272.2 83.8 L 275.1 83.8 L 278 92.1 L 280.8 83.8 L 283.7 83.8 L 279.4 95.4 Z M 286.8 90.4 C 286.9 92.3 288.2 93.2 289.8 93.2 C 290.9 93.2 292 92.8 292.3 91.7 C 292.3 91.7 294.9 91.7 294.9 91.7 C 294.4 94.3 292.1 95.6 289.7 95.6 C 286.9 95.6 284.1 93.7 284.1 89.6 C 284.1 85.6 286.8 83.6 289.7 83.6 C 292.5 83.6 294.9 85.4 294.9 89.3 C 294.9 89.29 294.9 90.4 294.9 90.4 C 294.9 90.4 286.84 90.43 286.8 90.4 Z M 286.9 88.4 C 286.9 88.4 292.2 88.4 292.2 88.4 C 292.2 86.9 291.1 86 289.7 86 C 288.4 86 287.2 86.7 286.9 88.4 Z M 299.7 95.4 L 296.9 95.4 L 296.9 79.4 L 299.7 79.4 L 299.7 95.4 Z M 311.7 91.8 C 311.7 94.4 309.4 95.6 306.8 95.6 C 304.4 95.6 301.8 94.6 301.6 91.7 C 301.6 91.7 304.4 91.7 304.4 91.7 C 304.6 92.8 305.6 93.3 306.9 93.3 C 308.1 93.3 308.9 92.9 308.9 92.1 C 308.9 91.3 308.4 91.2 306.8 90.9 C 304.5 90.5 301.9 90.1 301.9 87.3 C 301.9 84.7 304.1 83.6 306.5 83.6 C 309.2 83.6 311.2 84.9 311.4 87.5 C 311.4 87.5 308.7 87.5 308.7 87.5 C 308.6 86.4 307.8 85.9 306.6 85.9 C 305.2 85.9 304.6 86.5 304.6 87.2 C 304.6 88.1 305.7 88.3 307.1 88.5 C 309.2 88.8 311.7 89.1 311.7 91.8 Z M 316.3 89.8 C 316.3 87.1 317.7 86.6 318.9 85.7 C 320 85 320.4 84.4 320.4 83.6 C 320.4 82.4 319.6 81.8 318.3 81.8 C 316.9 81.8 316 82.6 315.9 84 C 315.9 84 313 84 313 84 C 313.3 80.6 315.8 79.4 318.4 79.4 C 321.1 79.4 323.3 80.7 323.3 83.5 C 323.3 85.7 322 86.6 320.6 87.6 C 319.5 88.4 319 88.9 319 89.8 C 319.01 89.84 319 90.5 319 90.5 L 316.3 90.5 C 316.3 90.5 316.34 89.75 316.3 89.8 Z M 316.1 92.1 L 319.3 92.1 L 319.3 95.4 L 316.1 95.4 L 316.1 92.1 Z " stroke="none" fill="#000"/> </g> <g id="Polygon11713">  <path d="M 12 70.2 L 9.3 70.2 C 9.3 70.2 9.28 68.4 9.3 68.4 C 8.7 69.7 7.3 70.4 5.7 70.4 C 3 70.4 0.6 68.4 0.6 64.4 C 0.6 60.4 3 58.4 5.7 58.4 C 7.2 58.4 8.5 59 9.2 60.1 C 9.22 60.12 9.2 54.2 9.2 54.2 L 12 54.2 L 12 70.2 Z M 9.3 64.4 C 9.3 62 7.9 60.9 6.4 60.9 C 4.9 60.9 3.5 62 3.5 64.4 C 3.5 66.7 4.9 67.9 6.4 67.9 C 7.9 67.9 9.3 66.7 9.3 64.4 Z M 25.3 64.4 C 25.3 68.2 22.9 70.4 19.7 70.4 C 16.4 70.4 14 68.2 14 64.4 C 14 60.6 16.4 58.4 19.7 58.4 C 22.9 58.4 25.3 60.6 25.3 64.4 Z M 16.9 64.4 C 16.9 66.7 18.1 67.8 19.7 67.8 C 21.4 67.8 22.5 66.6 22.5 64.4 C 22.5 62.1 21.2 61 19.6 61 C 18 61 16.9 62.2 16.9 64.4 Z M 38.3 70.2 C 38.3 70.2 36.46 70.18 36.5 70.2 C 34.3 70.2 32.9 69.5 32.9 66.4 C 32.91 66.4 32.9 61.1 32.9 61.1 L 30.8 61.1 L 30.8 58.6 L 32.9 58.6 L 32.9 56 L 35.7 55.2 L 35.7 58.6 L 38 58.6 L 38 61.1 L 35.7 61.1 C 35.7 61.1 35.7 66.53 35.7 66.5 C 35.7 67.2 35.9 67.7 36.9 67.7 C 36.88 67.7 38.3 67.7 38.3 67.7 L 38.3 70.2 Z M 50 62.7 C 50.04 62.71 50 70.2 50 70.2 L 47.2 70.2 C 47.2 70.2 47.25 62.96 47.2 63 C 47.2 61.7 46.5 60.9 45.2 60.9 C 43.6 60.9 42.7 62 42.7 63.9 C 42.65 63.92 42.7 70.2 42.7 70.2 L 39.9 70.2 L 39.9 54.2 L 42.7 54.2 C 42.7 54.2 42.65 60.23 42.7 60.2 C 43.3 59.1 44.3 58.4 46.2 58.4 C 48.8 58.4 50 59.9 50 62.7 Z M 54.6 65.2 C 54.7 67.1 56 68 57.6 68 C 58.7 68 59.8 67.6 60.1 66.5 C 60.1 66.5 62.7 66.5 62.7 66.5 C 62.2 69.1 59.9 70.4 57.5 70.4 C 54.7 70.4 51.9 68.5 51.9 64.4 C 51.9 60.4 54.6 58.4 57.5 58.4 C 60.3 58.4 62.7 60.2 62.7 64.1 C 62.71 64.09 62.7 65.2 62.7 65.2 C 62.7 65.2 54.64 65.23 54.6 65.2 Z M 54.7 63.2 C 54.7 63.2 60 63.2 60 63.2 C 60 61.7 58.9 60.8 57.5 60.8 C 56.2 60.8 55 61.5 54.7 63.2 Z M 74 66.6 C 74 69.2 71.7 70.4 69 70.4 C 66.7 70.4 64 69.4 63.9 66.5 C 63.9 66.5 66.7 66.5 66.7 66.5 C 66.9 67.6 67.9 68.1 69.2 68.1 C 70.4 68.1 71.2 67.7 71.2 66.9 C 71.2 66.1 70.7 66 69.1 65.7 C 66.8 65.3 64.2 64.9 64.2 62.1 C 64.2 59.5 66.4 58.4 68.8 58.4 C 71.5 58.4 73.5 59.7 73.7 62.3 C 73.7 62.3 71 62.3 71 62.3 C 70.9 61.2 70 60.7 68.9 60.7 C 67.5 60.7 66.9 61.3 66.9 62 C 66.9 62.9 68 63.1 69.4 63.3 C 71.4 63.6 74 63.9 74 66.6 Z M 77.8 65.2 C 77.9 67.1 79.2 68 80.8 68 C 81.9 68 82.9 67.6 83.3 66.5 C 83.3 66.5 85.8 66.5 85.8 66.5 C 85.3 69.1 83.1 70.4 80.7 70.4 C 77.9 70.4 75.1 68.5 75.1 64.4 C 75.1 60.4 77.7 58.4 80.7 58.4 C 83.5 58.4 85.9 60.2 85.9 64.1 C 85.89 64.09 85.9 65.2 85.9 65.2 C 85.9 65.2 77.83 65.23 77.8 65.2 Z M 77.9 63.2 C 77.9 63.2 83.2 63.2 83.2 63.2 C 83.2 61.7 82.1 60.8 80.7 60.8 C 79.4 60.8 78.1 61.5 77.9 63.2 Z M 104.5 64.4 C 104.5 68.5 102 70.4 99.3 70.4 C 97.8 70.4 96.6 69.9 95.9 68.8 C 95.86 68.8 95.9 70.2 95.9 70.2 L 93.1 70.2 L 93.1 54.2 L 95.9 54.2 C 95.9 54.2 95.93 60.29 95.9 60.3 C 96.6 59.1 97.9 58.4 99.5 58.4 C 102.2 58.4 104.5 60.4 104.5 64.4 Z M 101.7 64.4 C 101.7 62.1 100.3 60.9 98.8 60.9 C 97.3 60.9 95.8 62.1 95.8 64.4 C 95.8 66.8 97.3 68 98.8 68 C 100.3 68 101.7 66.8 101.7 64.4 Z M 117.1 64.4 C 117.1 68.2 114.7 70.4 111.4 70.4 C 108.2 70.4 105.8 68.2 105.8 64.4 C 105.8 60.6 108.2 58.4 111.4 58.4 C 114.7 58.4 117.1 60.6 117.1 64.4 Z M 108.6 64.4 C 108.6 66.7 109.9 67.8 111.5 67.8 C 113.1 67.8 114.2 66.6 114.2 64.4 C 114.2 62.1 113 61 111.4 61 C 109.7 61 108.6 62.2 108.6 64.4 Z M 129.3 62.7 C 129.28 62.71 129.3 70.2 129.3 70.2 L 126.5 70.2 C 126.5 70.2 126.48 62.96 126.5 63 C 126.5 61.7 125.7 60.9 124.4 60.9 C 122.8 60.9 121.9 62 121.9 63.9 C 121.88 63.92 121.9 70.2 121.9 70.2 L 119.1 70.2 L 119.1 58.6 L 121.9 58.6 C 121.9 58.6 121.86 60.27 121.9 60.3 C 122.5 59.2 123.5 58.4 125.4 58.4 C 128 58.4 129.3 59.9 129.3 62.7 Z M 142.5 70.2 L 139.8 70.2 C 139.8 70.2 139.82 68.4 139.8 68.4 C 139.2 69.7 137.8 70.4 136.2 70.4 C 133.5 70.4 131.2 68.4 131.2 64.4 C 131.2 60.4 133.5 58.4 136.2 58.4 C 137.8 58.4 139.1 59 139.8 60.1 C 139.75 60.12 139.8 54.2 139.8 54.2 L 142.5 54.2 L 142.5 70.2 Z M 139.8 64.4 C 139.8 62 138.4 60.9 136.9 60.9 C 135.4 60.9 134 62 134 64.4 C 134 66.7 135.4 67.9 136.9 67.9 C 138.4 67.9 139.8 66.7 139.8 64.4 Z M 154.5 66.6 C 154.5 69.2 152.2 70.4 149.6 70.4 C 147.2 70.4 144.6 69.4 144.4 66.5 C 144.4 66.5 147.3 66.5 147.3 66.5 C 147.4 67.6 148.5 68.1 149.8 68.1 C 150.9 68.1 151.8 67.7 151.8 66.9 C 151.8 66.1 151.2 66 149.6 65.7 C 147.4 65.3 144.8 64.9 144.8 62.1 C 144.8 59.5 147 58.4 149.4 58.4 C 152.1 58.4 154.1 59.7 154.3 62.3 C 154.3 62.3 151.5 62.3 151.5 62.3 C 151.4 61.2 150.6 60.7 149.4 60.7 C 148 60.7 147.5 61.3 147.5 62 C 147.5 62.9 148.5 63.1 149.9 63.3 C 152 63.6 154.5 63.9 154.5 66.6 Z M 171.8 64.4 C 171.8 68.2 169.4 70.4 166.2 70.4 C 162.9 70.4 160.5 68.2 160.5 64.4 C 160.5 60.6 162.9 58.4 166.2 58.4 C 169.4 58.4 171.8 60.6 171.8 64.4 Z M 163.4 64.4 C 163.4 66.7 164.7 67.8 166.2 67.8 C 167.9 67.8 169 66.6 169 64.4 C 169 62.1 167.7 61 166.2 61 C 164.5 61 163.4 62.2 163.4 64.4 Z M 184.2 57.8 C 184.21 57.83 184.2 58.6 184.2 58.6 L 186.4 58.6 L 186.4 61.1 L 184.2 61.1 L 184.2 70.2 L 181.4 70.2 L 181.4 61.1 L 177 61.1 L 177 70.2 L 174.2 70.2 L 174.2 61.1 L 172.5 61.1 L 172.5 58.6 L 174.2 58.6 C 174.2 58.6 174.19 57.96 174.2 58 C 174.2 54.9 175.6 54.2 177.7 54.2 C 177.74 54.18 179.4 54.2 179.4 54.2 L 179.4 56.7 C 179.4 56.7 178.16 56.66 178.2 56.7 C 177.2 56.7 177 57.1 177 57.8 C 176.99 57.83 177 58.6 177 58.6 L 181.4 58.6 C 181.4 58.6 181.42 57.96 181.4 58 C 181.4 54.9 182.8 54.2 185 54.2 C 184.97 54.18 186.6 54.2 186.6 54.2 L 186.6 56.7 C 186.6 56.7 185.39 56.66 185.4 56.7 C 184.4 56.7 184.2 57.1 184.2 57.8 Z M 189.8 65.2 C 189.8 67.1 191.2 68 192.8 68 C 193.8 68 194.9 67.6 195.2 66.5 C 195.2 66.5 197.8 66.5 197.8 66.5 C 197.3 69.1 195 70.4 192.6 70.4 C 189.8 70.4 187.1 68.5 187.1 64.4 C 187.1 60.4 189.7 58.4 192.7 58.4 C 195.5 58.4 197.8 60.2 197.8 64.1 C 197.84 64.09 197.8 65.2 197.8 65.2 C 197.8 65.2 189.78 65.23 189.8 65.2 Z M 189.8 63.2 C 189.8 63.2 195.1 63.2 195.1 63.2 C 195.1 61.7 194 60.8 192.6 60.8 C 191.3 60.8 190.1 61.5 189.8 63.2 Z M 206.4 61.2 C 206.4 61.2 205.65 61.17 205.7 61.2 C 203.7 61.2 202.6 62.2 202.6 64.5 C 202.63 64.51 202.6 70.2 202.6 70.2 L 199.8 70.2 L 199.8 58.6 L 202.6 58.6 C 202.6 58.6 202.61 60.25 202.6 60.2 C 203.2 59 204.3 58.5 205.6 58.5 C 205.63 58.46 206.4 58.5 206.4 58.5 L 206.4 61.2 Z M 222.1 62.4 C 222.05 62.39 222.1 70.2 222.1 70.2 L 219.3 70.2 C 219.3 70.2 219.32 68.5 219.3 68.5 C 218.4 70 217 70.4 215.8 70.4 C 214 70.4 212.1 69.3 212.1 66.8 C 212.1 65 213.1 63.8 215.8 63.4 C 215.8 63.4 218.3 63 218.3 63 C 218.9 62.9 219.4 62.7 219.4 62 C 219.4 61 218.6 60.6 217.5 60.6 C 216 60.6 215.3 61.3 215.2 62.3 C 215.2 62.3 212.5 62.3 212.5 62.3 C 212.8 59.6 215 58.4 217.6 58.4 C 220.3 58.4 222.1 59.7 222.1 62.4 Z M 219.3 65.3 C 219.3 65.3 219.3 64.7 219.3 64.7 C 219.1 64.8 218.5 65 218 65 C 218 65 216.7 65.2 216.7 65.2 C 215.3 65.4 214.8 66 214.8 66.7 C 214.8 67.6 215.5 68.1 216.5 68.1 C 217.9 68.1 219.3 67 219.3 65.3 Z M 237.5 70.2 C 237.5 70.2 235.68 70.18 235.7 70.2 C 233.5 70.2 232.1 69.5 232.1 66.4 C 232.13 66.4 232.1 61.1 232.1 61.1 L 227.9 61.1 C 227.9 61.1 227.91 66.53 227.9 66.5 C 227.9 67.2 228.1 67.7 229.1 67.7 C 229.09 67.7 230.5 67.7 230.5 67.7 L 230.5 70.2 C 230.5 70.2 228.67 70.18 228.7 70.2 C 226.5 70.2 225.1 69.5 225.1 66.4 C 225.12 66.4 225.1 61.1 225.1 61.1 L 223 61.1 L 223 58.6 L 225.1 58.6 L 225.1 56 L 227.9 55.2 L 227.9 58.6 L 232.1 58.6 L 232.1 56 L 234.9 55.2 L 234.9 58.6 L 237.2 58.6 L 237.2 61.1 L 234.9 61.1 C 234.9 61.1 234.93 66.53 234.9 66.5 C 234.9 67.2 235.1 67.7 236.1 67.7 C 236.1 67.7 237.5 67.7 237.5 67.7 L 237.5 70.2 Z M 245.6 61.2 C 245.6 61.2 244.9 61.17 244.9 61.2 C 242.9 61.2 241.9 62.2 241.9 64.5 C 241.88 64.51 241.9 70.2 241.9 70.2 L 239.1 70.2 L 239.1 58.6 L 241.9 58.6 C 241.9 58.6 241.85 60.25 241.9 60.2 C 242.4 59 243.5 58.5 244.9 58.5 C 244.88 58.46 245.6 58.5 245.6 58.5 L 245.6 61.2 Z M 256.3 62.4 C 256.26 62.39 256.3 70.2 256.3 70.2 L 253.5 70.2 C 253.5 70.2 253.53 68.5 253.5 68.5 C 252.6 70 251.2 70.4 250 70.4 C 248.2 70.4 246.3 69.3 246.3 66.8 C 246.3 65 247.3 63.8 250 63.4 C 250 63.4 252.5 63 252.5 63 C 253.2 62.9 253.6 62.7 253.6 62 C 253.6 61 252.8 60.6 251.7 60.6 C 250.2 60.6 249.5 61.3 249.4 62.3 C 249.4 62.3 246.7 62.3 246.7 62.3 C 247 59.6 249.2 58.4 251.8 58.4 C 254.5 58.4 256.3 59.7 256.3 62.4 Z M 253.6 65.3 C 253.6 65.3 253.6 64.7 253.6 64.7 C 253.3 64.8 252.8 65 252.2 65 C 252.2 65 250.9 65.2 250.9 65.2 C 249.5 65.4 249.1 66 249.1 66.7 C 249.1 67.6 249.7 68.1 250.7 68.1 C 252.1 68.1 253.6 67 253.6 65.3 Z M 263.7 70.4 C 259.9 70.4 258 67.5 258 64.4 C 258 61.3 259.9 58.4 263.7 58.4 C 266.5 58.4 268.7 60 268.8 62.8 C 268.8 62.8 266 62.8 266 62.8 C 265.9 61.7 265.1 60.9 263.7 60.9 C 261.7 60.9 260.9 62.6 260.9 64.4 C 260.9 66.3 261.7 67.8 263.7 67.8 C 265.1 67.8 265.9 67.1 266.1 66.1 C 266.1 66.1 268.8 66.1 268.8 66.1 C 268.5 68.9 266.5 70.4 263.7 70.4 Z M 276.8 70.2 C 276.8 70.2 274.95 70.18 275 70.2 C 272.8 70.2 271.4 69.5 271.4 66.4 C 271.4 66.4 271.4 61.1 271.4 61.1 L 269.3 61.1 L 269.3 58.6 L 271.4 58.6 L 271.4 56 L 274.2 55.2 L 274.2 58.6 L 276.5 58.6 L 276.5 61.1 L 274.2 61.1 C 274.2 61.1 274.19 66.53 274.2 66.5 C 274.2 67.2 274.4 67.7 275.4 67.7 C 275.37 67.7 276.8 67.7 276.8 67.7 L 276.8 70.2 Z M 278.2 57.1 L 281.2 57.1 L 281.2 53.9 L 278.2 53.9 L 278.2 57.1 Z M 278.3 58.6 L 281.1 58.6 L 281.1 70.2 L 278.3 70.2 L 278.3 58.6 Z M 289.7 70.2 L 286.8 70.2 L 282.5 58.6 L 285.4 58.6 L 288.3 66.9 L 291.1 58.6 L 294 58.6 L 289.7 70.2 Z M 297.1 65.2 C 297.2 67.1 298.6 68 300.1 68 C 301.2 68 302.3 67.6 302.6 66.5 C 302.6 66.5 305.2 66.5 305.2 66.5 C 304.7 69.1 302.4 70.4 300 70.4 C 297.2 70.4 294.4 68.5 294.4 64.4 C 294.4 60.4 297.1 58.4 300 58.4 C 302.8 58.4 305.2 60.2 305.2 64.1 C 305.21 64.09 305.2 65.2 305.2 65.2 C 305.2 65.2 297.15 65.23 297.1 65.2 Z M 297.2 63.2 C 297.2 63.2 302.5 63.2 302.5 63.2 C 302.5 61.7 301.4 60.8 300 60.8 C 298.7 60.8 297.5 61.5 297.2 63.2 Z M 319 61.2 C 319 61.2 318.27 61.17 318.3 61.2 C 316.3 61.2 315.2 62.2 315.2 64.5 C 315.25 64.51 315.2 70.2 315.2 70.2 L 312.5 70.2 L 312.5 58.6 L 315.2 58.6 C 315.2 58.6 315.23 60.25 315.2 60.2 C 315.8 59 316.9 58.5 318.3 58.5 C 318.25 58.46 319 58.5 319 58.5 L 319 61.2 Z M 320.3 57.1 L 323.2 57.1 L 323.2 53.9 L 320.3 53.9 L 320.3 57.1 Z M 320.4 58.6 L 323.1 58.6 L 323.1 70.2 L 320.4 70.2 L 320.4 58.6 Z M 335.1 66.6 C 335.1 69.2 332.8 70.4 330.2 70.4 C 327.8 70.4 325.2 69.4 325 66.5 C 325 66.5 327.8 66.5 327.8 66.5 C 328 67.6 329 68.1 330.3 68.1 C 331.5 68.1 332.4 67.7 332.4 66.9 C 332.4 66.1 331.8 66 330.2 65.7 C 328 65.3 325.4 64.9 325.4 62.1 C 325.4 59.5 327.6 58.4 330 58.4 C 332.7 58.4 334.7 59.7 334.8 62.3 C 334.8 62.3 332.1 62.3 332.1 62.3 C 332 61.2 331.2 60.7 330 60.7 C 328.6 60.7 328.1 61.3 328.1 62 C 328.1 62.9 329.1 63.1 330.5 63.3 C 332.6 63.6 335.1 63.9 335.1 66.6 Z M 341.1 65.7 L 339.8 67.1 L 339.8 70.2 L 337 70.2 L 337 54.2 L 339.8 54.2 L 339.8 63.3 L 343.9 58.6 L 347.6 58.6 L 343 63.6 L 347.8 70.2 L 344.3 70.2 L 341.1 65.7 Z M 359.2 52.8 L 357.1 52.8 L 350.2 72.1 L 352.2 72.1 L 359.2 52.8 Z " stroke="none" fill="#000"/> </g> <g id="Polygon11712">  <path d="M 10.6 37.2 C 10.63 37.19 10.6 45 10.6 45 L 7.9 45 C 7.9 45 7.9 43.3 7.9 43.3 C 7 44.8 5.6 45.2 4.4 45.2 C 2.5 45.2 0.6 44.1 0.6 41.6 C 0.6 39.8 1.7 38.6 4.3 38.2 C 4.3 38.2 6.8 37.8 6.8 37.8 C 7.5 37.7 8 37.5 8 36.8 C 8 35.8 7.2 35.4 6 35.4 C 4.6 35.4 3.9 36.1 3.8 37.1 C 3.8 37.1 1.1 37.1 1.1 37.1 C 1.4 34.4 3.5 33.2 6.2 33.2 C 8.9 33.2 10.6 34.5 10.6 37.2 Z M 7.9 40.1 C 7.9 40.1 7.9 39.5 7.9 39.5 C 7.6 39.6 7.1 39.8 6.6 39.8 C 6.6 39.8 5.3 40 5.3 40 C 3.9 40.2 3.4 40.8 3.4 41.5 C 3.4 42.4 4.1 42.9 5 42.9 C 6.5 42.9 7.9 41.8 7.9 40.1 Z M 23.3 37.5 C 23.33 37.51 23.3 45 23.3 45 L 20.5 45 C 20.5 45 20.54 37.76 20.5 37.8 C 20.5 36.5 19.8 35.7 18.5 35.7 C 16.9 35.7 15.9 36.8 15.9 38.7 C 15.94 38.72 15.9 45 15.9 45 L 13.1 45 L 13.1 33.4 L 15.9 33.4 C 15.9 33.4 15.92 35.07 15.9 35.1 C 16.6 34 17.5 33.2 19.4 33.2 C 22.1 33.2 23.3 34.7 23.3 37.5 Z M 36.6 45 L 33.9 45 C 33.9 45 33.87 43.2 33.9 43.2 C 33.2 44.5 31.9 45.2 30.3 45.2 C 27.6 45.2 25.2 43.2 25.2 39.2 C 25.2 35.2 27.6 33.2 30.3 33.2 C 31.8 33.2 33.1 33.8 33.8 34.9 C 33.81 34.92 33.8 29 33.8 29 L 36.6 29 L 36.6 45 Z M 33.9 39.2 C 33.9 36.8 32.5 35.7 31 35.7 C 29.4 35.7 28.1 36.8 28.1 39.2 C 28.1 41.5 29.4 42.7 31 42.7 C 32.5 42.7 33.9 41.5 33.9 39.2 Z M 50.7 45 C 50.7 45 48.89 44.98 48.9 45 C 46.7 45 45.3 44.3 45.3 41.2 C 45.34 41.2 45.3 35.9 45.3 35.9 L 43.2 35.9 L 43.2 33.4 L 45.3 33.4 L 45.3 30.8 L 48.1 30 L 48.1 33.4 L 50.4 33.4 L 50.4 35.9 L 48.1 35.9 C 48.1 35.9 48.13 41.33 48.1 41.3 C 48.1 42 48.3 42.5 49.3 42.5 C 49.31 42.5 50.7 42.5 50.7 42.5 L 50.7 45 Z M 62.5 37.5 C 62.47 37.51 62.5 45 62.5 45 L 59.7 45 C 59.7 45 59.68 37.76 59.7 37.8 C 59.7 36.5 58.9 35.7 57.6 35.7 C 56 35.7 55.1 36.8 55.1 38.7 C 55.08 38.72 55.1 45 55.1 45 L 52.3 45 L 52.3 29 L 55.1 29 C 55.1 29 55.08 35.03 55.1 35 C 55.8 33.9 56.7 33.2 58.6 33.2 C 61.2 33.2 62.5 34.7 62.5 37.5 Z M 67.1 40 C 67.1 41.9 68.5 42.8 70.1 42.8 C 71.1 42.8 72.2 42.4 72.5 41.3 C 72.5 41.3 75.1 41.3 75.1 41.3 C 74.6 43.9 72.3 45.2 69.9 45.2 C 67.1 45.2 64.4 43.3 64.4 39.2 C 64.4 35.2 67 33.2 69.9 33.2 C 72.8 33.2 75.1 35 75.1 38.9 C 75.14 38.89 75.1 40 75.1 40 C 75.1 40 67.07 40.03 67.1 40 Z M 67.1 38 C 67.1 38 72.4 38 72.4 38 C 72.4 36.5 71.3 35.6 69.9 35.6 C 68.6 35.6 67.4 36.3 67.1 38 Z M 83.7 36 C 83.7 36 82.95 35.97 82.9 36 C 81 36 79.9 37 79.9 39.3 C 79.92 39.31 79.9 45 79.9 45 L 77.1 45 L 77.1 33.4 L 79.9 33.4 C 79.9 33.4 79.9 35.05 79.9 35 C 80.5 33.8 81.6 33.3 82.9 33.3 C 82.93 33.26 83.7 33.3 83.7 33.3 L 83.7 36 Z M 86.8 40 C 86.9 41.9 88.2 42.8 89.8 42.8 C 90.9 42.8 91.9 42.4 92.3 41.3 C 92.3 41.3 94.8 41.3 94.8 41.3 C 94.3 43.9 92 45.2 89.7 45.2 C 86.9 45.2 84.1 43.3 84.1 39.2 C 84.1 35.2 86.7 33.2 89.7 33.2 C 92.5 33.2 94.9 35 94.9 38.9 C 94.88 38.89 94.9 40 94.9 40 C 94.9 40 86.81 40.03 86.8 40 Z M 86.9 38 C 86.9 38 92.1 38 92.1 38 C 92.1 36.5 91.1 35.6 89.6 35.6 C 88.4 35.6 87.1 36.3 86.9 38 Z M 114.4 45 L 111.7 45 L 109.3 37.6 L 107 45 L 104.3 45 L 100.4 33.4 L 103.4 33.4 L 105.7 41.1 L 108 33.4 L 110.8 33.4 L 113.1 41.1 L 115.4 33.4 L 118.3 33.4 L 114.4 45 Z M 128.8 37.2 C 128.77 37.19 128.8 45 128.8 45 L 126 45 C 126 45 126.04 43.3 126 43.3 C 125.1 44.8 123.8 45.2 122.5 45.2 C 120.7 45.2 118.8 44.1 118.8 41.6 C 118.8 39.8 119.8 38.6 122.5 38.2 C 122.5 38.2 125 37.8 125 37.8 C 125.7 37.7 126.1 37.5 126.1 36.8 C 126.1 35.8 125.3 35.4 124.2 35.4 C 122.7 35.4 122 36.1 121.9 37.1 C 121.9 37.1 119.2 37.1 119.2 37.1 C 119.5 34.4 121.7 33.2 124.3 33.2 C 127 33.2 128.8 34.5 128.8 37.2 Z M 126.1 40.1 C 126.1 40.1 126.1 39.5 126.1 39.5 C 125.8 39.6 125.3 39.8 124.7 39.8 C 124.7 39.8 123.4 40 123.4 40 C 122 40.2 121.6 40.8 121.6 41.5 C 121.6 42.4 122.2 42.9 123.2 42.9 C 124.6 42.9 126.1 41.8 126.1 40.1 Z M 140.6 41.4 C 140.6 44 138.2 45.2 135.6 45.2 C 133.2 45.2 130.6 44.2 130.5 41.3 C 130.5 41.3 133.3 41.3 133.3 41.3 C 133.5 42.4 134.5 42.9 135.8 42.9 C 137 42.9 137.8 42.5 137.8 41.7 C 137.8 40.9 137.3 40.8 135.7 40.5 C 133.4 40.1 130.8 39.7 130.8 36.9 C 130.8 34.3 133 33.2 135.4 33.2 C 138.1 33.2 140.1 34.5 140.3 37.1 C 140.3 37.1 137.5 37.1 137.5 37.1 C 137.4 36 136.6 35.5 135.4 35.5 C 134.1 35.5 133.5 36.1 133.5 36.8 C 133.5 37.7 134.5 37.9 136 38.1 C 138 38.4 140.6 38.7 140.6 41.4 Z M 157.9 37.5 C 157.88 37.51 157.9 45 157.9 45 L 155.1 45 C 155.1 45 155.08 37.76 155.1 37.8 C 155.1 36.5 154.3 35.7 153 35.7 C 151.5 35.7 150.5 36.8 150.5 38.7 C 150.48 38.72 150.5 45 150.5 45 L 147.7 45 L 147.7 33.4 L 150.5 33.4 C 150.5 33.4 150.46 35.07 150.5 35.1 C 151.1 34 152.1 33.2 154 33.2 C 156.6 33.2 157.9 34.7 157.9 37.5 Z M 171.1 39.2 C 171.1 43 168.7 45.2 165.4 45.2 C 162.2 45.2 159.8 43 159.8 39.2 C 159.8 35.4 162.2 33.2 165.4 33.2 C 168.7 33.2 171.1 35.4 171.1 39.2 Z M 162.6 39.2 C 162.6 41.5 163.9 42.6 165.5 42.6 C 167.1 42.6 168.2 41.4 168.2 39.2 C 168.2 36.9 166.9 35.8 165.4 35.8 C 163.7 35.8 162.6 37 162.6 39.2 Z M 190.6 45 L 187.9 45 L 185.6 37.6 L 183.2 45 L 180.5 45 L 176.7 33.4 L 179.6 33.4 L 181.9 41.1 L 184.3 33.4 L 187 33.4 L 189.3 41.1 L 191.6 33.4 L 194.5 33.4 L 190.6 45 Z M 205 37.2 C 204.98 37.19 205 45 205 45 L 202.2 45 C 202.2 45 202.25 43.3 202.2 43.3 C 201.3 44.8 200 45.2 198.7 45.2 C 196.9 45.2 195 44.1 195 41.6 C 195 39.8 196 38.6 198.7 38.2 C 198.7 38.2 201.2 37.8 201.2 37.8 C 201.9 37.7 202.4 37.5 202.4 36.8 C 202.4 35.8 201.5 35.4 200.4 35.4 C 198.9 35.4 198.2 36.1 198.1 37.1 C 198.1 37.1 195.4 37.1 195.4 37.1 C 195.7 34.4 197.9 33.2 200.5 33.2 C 203.3 33.2 205 34.5 205 37.2 Z M 202.3 40.1 C 202.3 40.1 202.3 39.5 202.3 39.5 C 202 39.6 201.5 39.8 200.9 39.8 C 200.9 39.8 199.6 40 199.6 40 C 198.2 40.2 197.8 40.8 197.8 41.5 C 197.8 42.4 198.4 42.9 199.4 42.9 C 200.8 42.9 202.3 41.8 202.3 40.1 Z M 213.4 45 L 210.4 45 L 206.1 33.4 L 209.1 33.4 L 211.9 41.7 L 214.8 33.4 L 217.7 33.4 L 213.4 45 Z M 220.8 40 C 220.9 41.9 222.2 42.8 223.8 42.8 C 224.9 42.8 225.9 42.4 226.3 41.3 C 226.3 41.3 228.8 41.3 228.8 41.3 C 228.3 43.9 226 45.2 223.7 45.2 C 220.9 45.2 218.1 43.3 218.1 39.2 C 218.1 35.2 220.7 33.2 223.7 33.2 C 226.5 33.2 228.9 35 228.9 38.9 C 228.88 38.89 228.9 40 228.9 40 C 228.9 40 220.81 40.03 220.8 40 Z M 220.9 38 C 220.9 38 226.1 38 226.1 38 C 226.1 36.5 225.1 35.6 223.6 35.6 C 222.4 35.6 221.1 36.3 220.9 38 Z M 246.3 39.2 C 246.3 43 243.9 45.2 240.6 45.2 C 237.4 45.2 235 43 235 39.2 C 235 35.4 237.4 33.2 240.6 33.2 C 243.9 33.2 246.3 35.4 246.3 39.2 Z M 237.8 39.2 C 237.8 41.5 239.1 42.6 240.7 42.6 C 242.3 42.6 243.4 41.4 243.4 39.2 C 243.4 36.9 242.1 35.8 240.6 35.8 C 238.9 35.8 237.8 37 237.8 39.2 Z M 252.6 31.5 C 251.6 31.5 251.4 31.9 251.4 32.6 C 251.43 32.63 251.4 33.4 251.4 33.4 L 253.6 33.4 L 253.6 35.9 L 251.4 35.9 L 251.4 45 L 248.6 45 L 248.6 35.9 L 246.9 35.9 L 246.9 33.4 L 248.6 33.4 C 248.6 33.4 248.64 32.76 248.6 32.8 C 248.6 29.7 250 29 252.2 29 C 252.19 28.98 253.9 29 253.9 29 L 253.9 31.5 C 253.9 31.5 252.61 31.46 252.6 31.5 Z M 270.7 45 L 268 45 C 268 45 267.98 43.2 268 43.2 C 267.3 44.5 266 45.2 264.4 45.2 C 261.7 45.2 259.3 43.2 259.3 39.2 C 259.3 35.2 261.7 33.2 264.4 33.2 C 265.9 33.2 267.2 33.8 267.9 34.9 C 267.92 34.92 267.9 29 267.9 29 L 270.7 29 L 270.7 45 Z M 268 39.2 C 268 36.8 266.6 35.7 265.1 35.7 C 263.5 35.7 262.2 36.8 262.2 39.2 C 262.2 41.5 263.5 42.7 265.1 42.7 C 266.6 42.7 268 41.5 268 39.2 Z M 275.4 40 C 275.5 41.9 276.8 42.8 278.4 42.8 C 279.5 42.8 280.5 42.4 280.9 41.3 C 280.9 41.3 283.4 41.3 283.4 41.3 C 282.9 43.9 280.6 45.2 278.3 45.2 C 275.5 45.2 272.7 43.3 272.7 39.2 C 272.7 35.2 275.3 33.2 278.3 33.2 C 281.1 33.2 283.5 35 283.5 38.9 C 283.48 38.89 283.5 40 283.5 40 C 283.5 40 275.41 40.03 275.4 40 Z M 275.5 38 C 275.5 38 280.7 38 280.7 38 C 280.7 36.5 279.7 35.6 278.2 35.6 C 277 35.6 275.7 36.3 275.5 38 Z M 289.8 31.5 C 288.8 31.5 288.6 31.9 288.6 32.6 C 288.62 32.63 288.6 33.4 288.6 33.4 L 290.8 33.4 L 290.8 35.9 L 288.6 35.9 L 288.6 45 L 285.8 45 L 285.8 35.9 L 284.1 35.9 L 284.1 33.4 L 285.8 33.4 C 285.8 33.4 285.83 32.76 285.8 32.8 C 285.8 29.7 287.2 29 289.4 29 C 289.38 28.98 291.1 29 291.1 29 L 291.1 31.5 C 291.1 31.5 289.8 31.46 289.8 31.5 Z M 301.7 37.2 C 301.68 37.19 301.7 45 301.7 45 L 299 45 C 299 45 298.95 43.3 299 43.3 C 298.1 44.8 296.7 45.2 295.4 45.2 C 293.6 45.2 291.7 44.1 291.7 41.6 C 291.7 39.8 292.7 38.6 295.4 38.2 C 295.4 38.2 297.9 37.8 297.9 37.8 C 298.6 37.7 299.1 37.5 299.1 36.8 C 299.1 35.8 298.2 35.4 297.1 35.4 C 295.6 35.4 294.9 36.1 294.8 37.1 C 294.8 37.1 292.1 37.1 292.1 37.1 C 292.4 34.4 294.6 33.2 297.2 33.2 C 300 33.2 301.7 34.5 301.7 37.2 Z M 299 40.1 C 299 40.1 299 39.5 299 39.5 C 298.7 39.6 298.2 39.8 297.6 39.8 C 297.6 39.8 296.3 40 296.3 40 C 294.9 40.2 294.5 40.8 294.5 41.5 C 294.5 42.4 295.1 42.9 296.1 42.9 C 297.5 42.9 299 41.8 299 40.1 Z M 314.3 45 L 311.6 45 C 311.6 45 311.62 43.34 311.6 43.3 C 310.9 44.4 309.9 45.1 308.3 45.1 C 305.9 45.1 304.1 43.6 304.1 40.6 C 304.1 40.59 304.1 33.4 304.1 33.4 L 306.9 33.4 C 306.9 33.4 306.89 40.38 306.9 40.4 C 306.9 42 307.7 42.6 308.9 42.6 C 310.4 42.6 311.6 41.7 311.6 39 C 311.55 39 311.6 33.4 311.6 33.4 L 314.3 33.4 L 314.3 45 Z M 319.9 45 L 317.1 45 L 317.1 29 L 319.9 29 L 319.9 45 Z M 328.5 45 C 328.5 45 326.69 44.98 326.7 45 C 324.5 45 323.1 44.3 323.1 41.2 C 323.15 41.2 323.1 35.9 323.1 35.9 L 321 35.9 L 321 33.4 L 323.1 33.4 L 323.1 30.8 L 325.9 30 L 325.9 33.4 L 328.2 33.4 L 328.2 35.9 L 325.9 35.9 C 325.9 35.9 325.94 41.33 325.9 41.3 C 325.9 42 326.1 42.5 327.1 42.5 C 327.11 42.5 328.5 42.5 328.5 42.5 L 328.5 45 Z M 339.4 41.4 C 339.4 44 337 45.2 334.4 45.2 C 332 45.2 329.4 44.2 329.3 41.3 C 329.3 41.3 332.1 41.3 332.1 41.3 C 332.3 42.4 333.3 42.9 334.6 42.9 C 335.8 42.9 336.6 42.5 336.6 41.7 C 336.6 40.9 336.1 40.8 334.5 40.5 C 332.2 40.1 329.6 39.7 329.6 36.9 C 329.6 34.3 331.8 33.2 334.2 33.2 C 336.9 33.2 338.9 34.5 339.1 37.1 C 339.1 37.1 336.4 37.1 336.4 37.1 C 336.2 36 335.4 35.5 334.3 35.5 C 332.9 35.5 332.3 36.1 332.3 36.8 C 332.3 37.7 333.4 37.9 334.8 38.1 C 336.8 38.4 339.4 38.7 339.4 41.4 Z M 342.7 44.8 C 342.74 44.79 341.3 44.8 341.3 44.8 L 341.3 41.9 L 344.5 41.9 C 344.5 41.9 344.52 44.39 344.5 44.4 C 344.5 47.4 342.5 48.5 340.6 48.7 C 340.6 48.7 340.3 47.2 340.3 47.2 C 341.8 47 342.7 46.1 342.7 44.8 Z " stroke="none" fill="#000"/> </g> <g id="Polygon11711">  <path d="M 7.2 20.2 C 4 20.2 0.7 18.4 0.7 14.4 C 0.7 14.4 3.7 14.4 3.7 14.4 C 3.8 16.8 5.5 17.7 7.2 17.7 C 8.7 17.7 10.1 16.9 10.1 15.6 C 10.1 14 8.3 13.6 6.5 13.2 C 4.2 12.7 1.3 11.9 1.3 8.5 C 1.3 5.2 3.9 3.7 7 3.7 C 9.9 3.7 12.7 5.2 12.7 8.4 C 12.7 8.4 9.8 8.4 9.8 8.4 C 9.7 6.8 8.3 6.2 6.8 6.2 C 5.3 6.2 4.1 6.9 4.1 8.3 C 4.1 9.8 5.6 10.2 7.4 10.6 C 9.4 11.1 13 11.7 13 15.4 C 13 18.5 10.3 20.2 7.2 20.2 Z M 15 6.7 L 18 6.7 L 18 3.5 L 15 3.5 L 15 6.7 Z M 15.1 8.2 L 17.9 8.2 L 17.9 19.8 L 15.1 19.8 L 15.1 8.2 Z M 30.8 12.3 C 30.76 12.31 30.8 19.8 30.8 19.8 L 28 19.8 C 28 19.8 27.97 12.56 28 12.6 C 28 11.3 27.2 10.5 25.9 10.5 C 24.3 10.5 23.4 11.6 23.4 13.5 C 23.37 13.52 23.4 19.8 23.4 19.8 L 20.6 19.8 L 20.6 8.2 L 23.4 8.2 C 23.4 8.2 23.35 9.87 23.4 9.9 C 24 8.8 24.9 8 26.9 8 C 29.5 8 30.8 9.5 30.8 12.3 Z M 38.3 20 C 34.5 20 32.7 17.1 32.7 14 C 32.7 10.9 34.5 8 38.3 8 C 41.1 8 43.3 9.6 43.4 12.4 C 43.4 12.4 40.7 12.4 40.7 12.4 C 40.5 11.3 39.7 10.5 38.3 10.5 C 36.3 10.5 35.5 12.2 35.5 14 C 35.5 15.9 36.4 17.4 38.3 17.4 C 39.7 17.4 40.5 16.7 40.7 15.7 C 40.7 15.7 43.4 15.7 43.4 15.7 C 43.1 18.5 41.1 20 38.3 20 Z M 47.4 14.8 C 47.5 16.7 48.8 17.6 50.4 17.6 C 51.5 17.6 52.6 17.2 52.9 16.1 C 52.9 16.1 55.5 16.1 55.5 16.1 C 55 18.7 52.7 20 50.3 20 C 47.5 20 44.7 18.1 44.7 14 C 44.7 10 47.4 8 50.3 8 C 53.1 8 55.5 9.8 55.5 13.7 C 55.5 13.69 55.5 14.8 55.5 14.8 C 55.5 14.8 47.44 14.83 47.4 14.8 Z M 47.5 12.8 C 47.5 12.8 52.8 12.8 52.8 12.8 C 52.8 11.3 51.7 10.4 50.3 10.4 C 49 10.4 47.8 11.1 47.5 12.8 Z M 71.6 16.2 C 71.6 18.8 69.3 20 66.7 20 C 64.3 20 61.7 19 61.5 16.1 C 61.5 16.1 64.3 16.1 64.3 16.1 C 64.5 17.2 65.5 17.7 66.8 17.7 C 68 17.7 68.8 17.3 68.8 16.5 C 68.8 15.7 68.3 15.6 66.7 15.3 C 64.4 14.9 61.8 14.5 61.8 11.7 C 61.8 9.1 64 8 66.4 8 C 69.2 8 71.1 9.3 71.3 11.9 C 71.3 11.9 68.6 11.9 68.6 11.9 C 68.5 10.8 67.7 10.3 66.5 10.3 C 65.1 10.3 64.6 10.9 64.6 11.6 C 64.6 12.5 65.6 12.7 67 12.9 C 69.1 13.2 71.6 13.5 71.6 16.2 Z M 84.9 13.8 C 84.9 18 82.3 19.9 79.5 19.9 C 78 19.9 76.9 19.2 76.3 18.4 C 76.27 18.4 76.3 24.1 76.3 24.1 L 73.5 24.1 L 73.5 8.2 L 76.2 8.2 C 76.2 8.2 76.21 10.04 76.2 10 C 76.8 8.8 78.1 8 79.8 8 C 82.5 8 84.9 9.9 84.9 13.8 Z M 82 14 C 82 11.6 80.6 10.5 79.1 10.5 C 77.6 10.5 76.2 11.6 76.2 14 C 76.2 16.3 77.6 17.4 79.1 17.4 C 80.6 17.4 82 16.3 82 14 Z M 93.4 10.8 C 93.4 10.8 92.67 10.77 92.7 10.8 C 90.7 10.8 89.6 11.8 89.6 14.1 C 89.65 14.11 89.6 19.8 89.6 19.8 L 86.9 19.8 L 86.9 8.2 L 89.6 8.2 C 89.6 8.2 89.63 9.85 89.6 9.8 C 90.2 8.6 91.3 8.1 92.7 8.1 C 92.65 8.06 93.4 8.1 93.4 8.1 L 93.4 10.8 Z M 96.5 14.8 C 96.6 16.7 97.9 17.6 99.5 17.6 C 100.6 17.6 101.7 17.2 102 16.1 C 102 16.1 104.6 16.1 104.6 16.1 C 104.1 18.7 101.8 20 99.4 20 C 96.6 20 93.8 18.1 93.8 14 C 93.8 10 96.5 8 99.4 8 C 102.2 8 104.6 9.8 104.6 13.7 C 104.6 13.69 104.6 14.8 104.6 14.8 C 104.6 14.8 96.54 14.83 96.5 14.8 Z M 96.6 12.8 C 96.6 12.8 101.9 12.8 101.9 12.8 C 101.9 11.3 100.8 10.4 99.4 10.4 C 98.1 10.4 96.9 11.1 96.6 12.8 Z M 115.9 12 C 115.86 11.99 115.9 19.8 115.9 19.8 L 113.1 19.8 C 113.1 19.8 113.13 18.1 113.1 18.1 C 112.2 19.6 110.8 20 109.6 20 C 107.8 20 105.9 18.9 105.9 16.4 C 105.9 14.6 106.9 13.4 109.6 13 C 109.6 13 112.1 12.6 112.1 12.6 C 112.7 12.5 113.2 12.3 113.2 11.6 C 113.2 10.6 112.4 10.2 111.3 10.2 C 109.8 10.2 109.1 10.9 109 11.9 C 109 11.9 106.3 11.9 106.3 11.9 C 106.6 9.2 108.8 8 111.4 8 C 114.1 8 115.9 9.3 115.9 12 Z M 113.1 14.9 C 113.1 14.9 113.1 14.3 113.1 14.3 C 112.9 14.4 112.3 14.6 111.8 14.6 C 111.8 14.6 110.5 14.8 110.5 14.8 C 109.1 15 108.7 15.6 108.7 16.3 C 108.7 17.2 109.3 17.7 110.3 17.7 C 111.7 17.7 113.1 16.6 113.1 14.9 Z M 129 19.8 L 126.3 19.8 C 126.3 19.8 126.29 18 126.3 18 C 125.7 19.3 124.3 20 122.7 20 C 120 20 117.6 18 117.6 14 C 117.6 10 120 8 122.7 8 C 124.2 8 125.5 8.6 126.2 9.7 C 126.23 9.72 126.2 3.8 126.2 3.8 L 129 3.8 L 129 19.8 Z M 126.3 14 C 126.3 11.6 124.9 10.5 123.4 10.5 C 121.9 10.5 120.5 11.6 120.5 14 C 120.5 16.3 121.9 17.5 123.4 17.5 C 124.9 17.5 126.3 16.3 126.3 14 Z M 141 16.2 C 141 18.8 138.7 20 136.1 20 C 133.7 20 131.1 19 130.9 16.1 C 130.9 16.1 133.7 16.1 133.7 16.1 C 133.9 17.2 134.9 17.7 136.2 17.7 C 137.4 17.7 138.3 17.3 138.3 16.5 C 138.3 15.7 137.7 15.6 136.1 15.3 C 133.9 14.9 131.3 14.5 131.3 11.7 C 131.3 9.1 133.5 8 135.9 8 C 138.6 8 140.6 9.3 140.7 11.9 C 140.7 11.9 138 11.9 138 11.9 C 137.9 10.8 137.1 10.3 135.9 10.3 C 134.5 10.3 134 10.9 134 11.6 C 134 12.5 135 12.7 136.4 12.9 C 138.5 13.2 141 13.5 141 16.2 Z M 158.3 12.3 C 158.34 12.31 158.3 19.8 158.3 19.8 L 155.5 19.8 C 155.5 19.8 155.55 12.56 155.5 12.6 C 155.5 11.3 154.8 10.5 153.5 10.5 C 151.9 10.5 150.9 11.6 150.9 13.5 C 150.95 13.52 150.9 19.8 150.9 19.8 L 148.2 19.8 L 148.2 8.2 L 150.9 8.2 C 150.9 8.2 150.93 9.87 150.9 9.9 C 151.6 8.8 152.5 8 154.5 8 C 157.1 8 158.3 9.5 158.3 12.3 Z M 170.2 12 C 170.22 11.99 170.2 19.8 170.2 19.8 L 167.5 19.8 C 167.5 19.8 167.49 18.1 167.5 18.1 C 166.6 19.6 165.2 20 164 20 C 162.1 20 160.2 18.9 160.2 16.4 C 160.2 14.6 161.3 13.4 163.9 13 C 163.9 13 166.4 12.6 166.4 12.6 C 167.1 12.5 167.6 12.3 167.6 11.6 C 167.6 10.6 166.8 10.2 165.6 10.2 C 164.2 10.2 163.5 10.9 163.4 11.9 C 163.4 11.9 160.7 11.9 160.7 11.9 C 161 9.2 163.1 8 165.8 8 C 168.5 8 170.2 9.3 170.2 12 Z M 167.5 14.9 C 167.5 14.9 167.5 14.3 167.5 14.3 C 167.2 14.4 166.7 14.6 166.2 14.6 C 166.2 14.6 164.9 14.8 164.9 14.8 C 163.5 15 163 15.6 163 16.3 C 163 17.2 163.7 17.7 164.6 17.7 C 166.1 17.7 167.5 16.6 167.5 14.9 Z M 179.3 10.8 C 179.3 10.8 178.56 10.77 178.6 10.8 C 176.6 10.8 175.5 11.8 175.5 14.1 C 175.54 14.11 175.5 19.8 175.5 19.8 L 172.7 19.8 L 172.7 8.2 L 175.5 8.2 C 175.5 8.2 175.52 9.85 175.5 9.8 C 176.1 8.6 177.2 8.1 178.5 8.1 C 178.54 8.06 179.3 8.1 179.3 8.1 L 179.3 10.8 Z M 187.2 10.8 C 187.2 10.8 186.48 10.77 186.5 10.8 C 184.5 10.8 183.5 11.8 183.5 14.1 C 183.45 14.11 183.5 19.8 183.5 19.8 L 180.7 19.8 L 180.7 8.2 L 183.4 8.2 C 183.4 8.2 183.43 9.85 183.4 9.8 C 184 8.6 185.1 8.1 186.5 8.1 C 186.46 8.06 187.2 8.1 187.2 8.1 L 187.2 10.8 Z M 199 14 C 199 17.8 196.5 20 193.3 20 C 190 20 187.6 17.8 187.6 14 C 187.6 10.2 190 8 193.3 8 C 196.5 8 199 10.2 199 14 Z M 190.5 14 C 190.5 16.3 191.8 17.4 193.3 17.4 C 195 17.4 196.1 16.2 196.1 14 C 196.1 11.7 194.8 10.6 193.3 10.6 C 191.6 10.6 190.5 11.8 190.5 14 Z M 213.4 19.8 L 210.7 19.8 L 208.4 12.4 L 206 19.8 L 203.3 19.8 L 199.5 8.2 L 202.5 8.2 L 204.7 15.9 L 207.1 8.2 L 209.8 8.2 L 212.1 15.9 L 214.4 8.2 L 217.3 8.2 L 213.4 19.8 Z M 220.5 14.8 C 220.6 16.7 221.9 17.6 223.5 17.6 C 224.6 17.6 225.6 17.2 226 16.1 C 226 16.1 228.5 16.1 228.5 16.1 C 228 18.7 225.7 20 223.4 20 C 220.6 20 217.8 18.1 217.8 14 C 217.8 10 220.4 8 223.4 8 C 226.2 8 228.6 9.8 228.6 13.7 C 228.58 13.69 228.6 14.8 228.6 14.8 C 228.6 14.8 220.52 14.83 220.5 14.8 Z M 220.6 12.8 C 220.6 12.8 225.9 12.8 225.9 12.8 C 225.9 11.3 224.8 10.4 223.4 10.4 C 222.1 10.4 220.8 11.1 220.6 12.8 Z M 241.2 19.8 L 238.5 19.8 C 238.5 19.8 238.49 18 238.5 18 C 237.9 19.3 236.5 20 234.9 20 C 232.2 20 229.8 18 229.8 14 C 229.8 10 232.2 8 234.9 8 C 236.4 8 237.7 8.6 238.4 9.7 C 238.43 9.72 238.4 3.8 238.4 3.8 L 241.2 3.8 L 241.2 19.8 Z M 238.5 14 C 238.5 11.6 237.1 10.5 235.6 10.5 C 234.1 10.5 232.7 11.6 232.7 14 C 232.7 16.3 234.1 17.5 235.6 17.5 C 237.1 17.5 238.5 16.3 238.5 14 Z M 249.5 6.7 L 252.5 6.7 L 252.5 3.5 L 249.5 3.5 L 249.5 6.7 Z M 249.6 8.2 L 252.4 8.2 L 252.4 19.8 L 249.6 19.8 L 249.6 8.2 Z M 265.3 12.3 C 265.29 12.31 265.3 19.8 265.3 19.8 L 262.5 19.8 C 262.5 19.8 262.5 12.56 262.5 12.6 C 262.5 11.3 261.8 10.5 260.5 10.5 C 258.9 10.5 257.9 11.6 257.9 13.5 C 257.9 13.52 257.9 19.8 257.9 19.8 L 255.1 19.8 L 255.1 8.2 L 257.9 8.2 C 257.9 8.2 257.88 9.87 257.9 9.9 C 258.5 8.8 259.5 8 261.4 8 C 264.1 8 265.3 9.5 265.3 12.3 Z M 283.8 12.3 C 283.77 12.31 283.8 19.8 283.8 19.8 L 281 19.8 C 281 19.8 280.98 12.56 281 12.6 C 281 11.3 280.2 10.5 278.9 10.5 C 277.3 10.5 276.4 11.6 276.4 13.5 C 276.38 13.52 276.4 19.8 276.4 19.8 L 273.6 19.8 L 273.6 3.8 L 276.4 3.8 C 276.4 3.8 276.38 9.83 276.4 9.8 C 277 8.7 278 8 279.9 8 C 282.5 8 283.8 9.5 283.8 12.3 Z M 286.3 6.7 L 289.3 6.7 L 289.3 3.5 L 286.3 3.5 L 286.3 6.7 Z M 286.4 8.2 L 289.2 8.2 L 289.2 19.8 L 286.4 19.8 L 286.4 8.2 Z M 302.3 19 C 302.3 22.7 299.9 24.4 296.8 24.4 C 294 24.4 291.6 23 291.3 20.1 C 291.3 20.1 294 20.1 294 20.1 C 294.3 21.6 295.5 22 296.8 22 C 298.6 22 299.6 21.1 299.6 19.3 C 299.6 19.3 299.6 17.4 299.6 17.4 C 299.1 18.6 298 19.4 296.2 19.4 C 293.6 19.4 291.1 17.6 291.1 13.7 C 291.1 9.8 293.6 8 296.2 8 C 297.9 8 299 8.7 299.6 9.8 C 299.62 9.81 299.6 8.2 299.6 8.2 L 302.3 8.2 C 302.3 8.2 302.31 19 302.3 19 Z M 299.5 13.7 C 299.5 11.5 298.3 10.4 296.8 10.4 C 295.3 10.4 293.9 11.5 293.9 13.7 C 293.9 15.9 295.3 16.9 296.8 16.9 C 298.3 16.9 299.5 15.9 299.5 13.7 Z M 315.1 12.3 C 315.12 12.31 315.1 19.8 315.1 19.8 L 312.3 19.8 C 312.3 19.8 312.33 12.56 312.3 12.6 C 312.3 11.3 311.6 10.5 310.3 10.5 C 308.7 10.5 307.7 11.6 307.7 13.5 C 307.73 13.52 307.7 19.8 307.7 19.8 L 304.9 19.8 L 304.9 3.8 L 307.7 3.8 C 307.7 3.8 307.73 9.83 307.7 9.8 C 308.4 8.7 309.4 8 311.2 8 C 313.9 8 315.1 9.5 315.1 12.3 Z M 323.9 11.9 L 317.4 11.9 L 317.4 14.4 L 323.9 14.4 L 323.9 11.9 Z M 336.2 8.2 C 336.2 8.2 331.21 21.52 331.2 21.5 C 330.7 22.9 329.5 23.5 327.9 23.5 C 327.93 23.48 326.2 23.5 326.2 23.5 L 326.2 21 C 326.2 21 327.45 21 327.4 21 C 328.4 21 328.8 20.7 329.1 19.9 C 329.11 19.87 329.3 19.3 329.3 19.3 L 324.9 8.2 L 327.9 8.2 L 330.7 15.8 L 333.4 8.2 L 336.2 8.2 Z M 337.5 6.7 L 340.5 6.7 L 340.5 3.5 L 337.5 3.5 L 337.5 6.7 Z M 337.6 8.2 L 340.4 8.2 L 340.4 19.8 L 337.6 19.8 L 337.6 8.2 Z M 345.1 14.8 C 345.1 16.7 346.5 17.6 348 17.6 C 349.1 17.6 350.2 17.2 350.5 16.1 C 350.5 16.1 353.1 16.1 353.1 16.1 C 352.6 18.7 350.3 20 347.9 20 C 345.1 20 342.4 18.1 342.4 14 C 342.4 10 345 8 347.9 8 C 350.8 8 353.1 9.8 353.1 13.7 C 353.13 13.69 353.1 14.8 353.1 14.8 C 353.1 14.8 345.07 14.83 345.1 14.8 Z M 345.1 12.8 C 345.1 12.8 350.4 12.8 350.4 12.8 C 350.4 11.3 349.3 10.4 347.9 10.4 C 346.6 10.4 345.4 11.1 345.1 12.8 Z M 357.9 19.8 L 355.1 19.8 L 355.1 3.8 L 357.9 3.8 L 357.9 19.8 Z M 371.3 19.8 L 368.6 19.8 C 368.6 19.8 368.57 18 368.6 18 C 367.9 19.3 366.6 20 365 20 C 362.3 20 359.9 18 359.9 14 C 359.9 10 362.3 8 365 8 C 366.5 8 367.8 8.6 368.5 9.7 C 368.5 9.72 368.5 3.8 368.5 3.8 L 371.3 3.8 L 371.3 19.8 Z M 368.6 14 C 368.6 11.6 367.2 10.5 365.6 10.5 C 364.1 10.5 362.7 11.6 362.7 14 C 362.7 16.3 364.1 17.5 365.6 17.5 C 367.2 17.5 368.6 16.3 368.6 14 Z " stroke="none" fill="#000"/> </g></svg>