<?xml version="1.0" standalone="no"?><!DOCTYPE svg PUBLIC "-//W3C//DTD SVG 1.1//EN" "http://www.w3.org/Graphics/SVG/1.1/DTD/svg11.dtd"><svg xmlns="http://www.w3.org/2000/svg" version="1.1" width="461px" height="206.4px" viewBox="0 0 461 206.4">  <desc>Daneben werden nderungen des regulatorischen Umfelds eine Rolle spielen Branchen, die 2020 Unterst tzung ben tigten</desc>  <defs/>  <g id="Polygon11445">    <path d="M 13.4 160 C 13.1 157.7 11 156.3 8.6 156.3 C 5.3 156.3 2.8 158.9 2.8 163 C 2.8 166.6 4.8 169.9 8.7 169.9 C 11.3 169.9 13.4 168.4 13.6 165.7 C 13.6 165.7 15.2 165.7 15.2 165.7 C 15.1 169.3 12.2 171.4 8.6 171.4 C 3.7 171.4 1.2 167.4 1.2 163 C 1.2 158 4.3 154.9 8.7 154.9 C 12 154.9 14.8 156.6 15.1 160 C 15.1 160 13.4 160 13.4 160 Z M 27.1 163.3 C 27.13 163.25 27.1 171 27.1 171 L 25.6 171 C 25.6 171 25.6 163.44 25.6 163.4 C 25.6 161.9 24.7 160.9 23.1 160.9 C 21.2 160.9 19.5 162.3 19.5 165.1 C 19.51 165.06 19.5 171 19.5 171 L 18 171 L 18 155 L 19.5 155 C 19.5 155 19.51 161.68 19.5 161.7 C 20.2 160.4 21.4 159.5 23.4 159.5 C 25.7 159.5 27.1 160.8 27.1 163.3 Z M 37.3 168.9 C 36.4 170.6 34.7 171.2 33.3 171.2 C 31.4 171.2 29.7 170.1 29.7 167.9 C 29.7 165.8 31.1 164.8 33.1 164.6 C 33.1 164.6 35.7 164.2 35.7 164.2 C 36.6 164.1 37.3 163.8 37.3 162.8 C 37.3 161.5 36.2 160.8 34.6 160.8 C 32.9 160.8 31.9 161.6 31.6 162.9 C 31.6 162.9 30.1 162.9 30.1 162.9 C 30.4 160.6 32.2 159.5 34.7 159.5 C 37.3 159.5 38.8 160.7 38.8 163.2 C 38.81 163.19 38.8 171 38.8 171 L 37.3 171 C 37.3 171 37.32 168.92 37.3 168.9 Z M 35.4 165.5 C 35.4 165.5 33.7 165.7 33.7 165.7 C 32.3 165.9 31.2 166.4 31.2 167.8 C 31.2 169.2 32.3 169.8 33.6 169.8 C 35.3 169.8 37.3 168.5 37.3 166.1 C 37.3 166.1 37.3 165 37.3 165 C 36.9 165.3 36.2 165.4 35.4 165.5 Z M 51.1 163.3 C 51.11 163.25 51.1 171 51.1 171 L 49.6 171 C 49.6 171 49.58 163.44 49.6 163.4 C 49.6 161.9 48.7 160.9 47.1 160.9 C 45.2 160.9 43.5 162.3 43.5 165.1 C 43.49 165.06 43.5 171 43.5 171 L 42 171 L 42 159.7 L 43.5 159.7 C 43.5 159.7 43.49 161.8 43.5 161.8 C 44.2 160.5 45.4 159.5 47.4 159.5 C 49.6 159.5 51.1 160.8 51.1 163.3 Z M 58.9 171.2 C 55.8 171.2 53.6 168.9 53.6 165.4 C 53.6 161.8 55.7 159.5 59 159.5 C 61.5 159.5 63.5 160.9 63.7 163.4 C 63.7 163.4 62.2 163.4 62.2 163.4 C 62 161.8 60.6 160.9 59 160.9 C 56.8 160.9 55.2 162.6 55.2 165.3 C 55.2 168.1 56.7 169.8 58.9 169.8 C 60.6 169.8 62 168.8 62.1 167 C 62.1 167 63.7 167 63.7 167 C 63.5 169.7 61.4 171.2 58.9 171.2 Z M 67.1 165.7 C 67.1 168.5 68.8 169.8 70.8 169.8 C 72.3 169.8 73.8 169.1 74.1 167.5 C 74.1 167.5 75.6 167.5 75.6 167.5 C 75.1 170.1 72.9 171.2 70.7 171.2 C 68 171.2 65.5 169.4 65.5 165.4 C 65.5 161.3 68.1 159.5 70.8 159.5 C 73.5 159.5 75.6 161.2 75.6 165 C 75.64 164.95 75.6 165.7 75.6 165.7 C 75.6 165.7 67.05 165.71 67.1 165.7 Z M 67.1 164.4 C 67.1 164.4 74.1 164.4 74.1 164.4 C 74.1 162.1 72.6 160.9 70.7 160.9 C 69 160.9 67.3 162 67.1 164.4 Z M 87.4 163.3 C 87.42 163.25 87.4 171 87.4 171 L 85.9 171 C 85.9 171 85.89 163.44 85.9 163.4 C 85.9 161.9 85 160.9 83.4 160.9 C 81.5 160.9 79.8 162.3 79.8 165.1 C 79.8 165.06 79.8 171 79.8 171 L 78.3 171 L 78.3 159.7 L 79.8 159.7 C 79.8 159.7 79.8 161.8 79.8 161.8 C 80.5 160.5 81.7 159.5 83.7 159.5 C 86 159.5 87.4 160.8 87.4 163.3 Z M 99.7 156.3 C 98.5 156.3 98.2 156.9 98.2 158 C 98.17 157.96 98.2 159.7 98.2 159.7 L 100.7 159.7 L 100.7 161.1 L 98.2 161.1 L 98.2 171 L 96.6 171 L 96.6 161.1 L 94.8 161.1 L 94.8 159.7 L 96.6 159.7 C 96.6 159.7 96.64 157.92 96.6 157.9 C 96.6 155.4 98 155 99.5 155 C 99.48 154.98 101 155 101 155 L 101 156.3 C 101 156.3 99.73 156.34 99.7 156.3 Z M 104.5 157.4 L 104.5 155.5 L 106.3 155.5 L 106.3 157.4 L 104.5 157.4 Z M 108.5 157.4 L 108.5 155.5 L 110.3 155.5 L 110.3 157.4 L 108.5 157.4 Z M 110.4 171 C 110.4 171 110.37 168.84 110.4 168.8 C 109.6 170.4 108.2 171.1 106.6 171.1 C 104.5 171.1 102.9 169.8 102.9 167.2 C 102.86 167.16 102.9 159.7 102.9 159.7 L 104.4 159.7 C 104.4 159.7 104.39 166.97 104.4 167 C 104.4 168.8 105.4 169.8 106.9 169.8 C 108.7 169.8 110.3 168.4 110.3 165.5 C 110.31 165.54 110.3 159.7 110.3 159.7 L 111.8 159.7 L 111.8 171 L 110.4 171 Z M 120.8 161 C 120.8 161 120.48 161.03 120.5 161 C 118.1 161 116.7 162.4 116.7 165 C 116.74 165 116.7 171 116.7 171 L 115.2 171 L 115.2 159.7 L 116.7 159.7 C 116.7 159.7 116.72 161.78 116.7 161.8 C 117.2 160.3 118.6 159.6 120.3 159.6 C 120.35 159.58 120.8 159.6 120.8 159.6 L 120.8 161 Z M 137.5 166.5 L 130 166.5 L 128.2 171 L 126.5 171 L 132.8 155.2 L 134.5 155.2 L 141.1 171 L 139.3 171 L 137.5 166.5 Z M 133.7 157 L 130.5 165.1 L 136.9 165.1 L 133.7 157 Z M 152.6 163.3 C 152.63 163.25 152.6 171 152.6 171 L 151.1 171 C 151.1 171 151.09 163.44 151.1 163.4 C 151.1 161.9 150.2 160.9 148.6 160.9 C 146.7 160.9 145 162.3 145 165.1 C 145 165.06 145 171 145 171 L 143.5 171 L 143.5 159.7 L 145 159.7 C 145 159.7 145 161.8 145 161.8 C 145.7 160.5 146.9 159.5 148.9 159.5 C 151.2 159.5 152.6 160.8 152.6 163.3 Z M 157.4 171 L 155.9 171 L 155.9 155 L 157.4 155 L 157.4 171 Z M 161.6 165.7 C 161.6 168.5 163.3 169.8 165.3 169.8 C 166.8 169.8 168.3 169.1 168.6 167.5 C 168.6 167.5 170.1 167.5 170.1 167.5 C 169.6 170.1 167.4 171.2 165.2 171.2 C 162.5 171.2 160 169.4 160 165.4 C 160 161.3 162.6 159.5 165.3 159.5 C 168 159.5 170.1 161.2 170.1 165 C 170.14 164.95 170.1 165.7 170.1 165.7 C 170.1 165.7 161.55 165.71 161.6 165.7 Z M 161.6 164.4 C 161.6 164.4 168.6 164.4 168.6 164.4 C 168.6 162.1 167.1 160.9 165.2 160.9 C 163.5 160.9 161.8 162 161.6 164.4 Z M 174.4 155 L 172.7 155 L 172.7 156.9 L 174.4 156.9 L 174.4 155 Z M 174.3 171 L 172.8 171 L 172.8 159.7 L 174.3 159.7 L 174.3 171 Z M 186.8 163.3 C 186.81 163.25 186.8 171 186.8 171 L 185.3 171 C 185.3 171 185.28 163.44 185.3 163.4 C 185.3 161.9 184.4 160.9 182.8 160.9 C 180.9 160.9 179.2 162.3 179.2 165.1 C 179.19 165.06 179.2 171 179.2 171 L 177.7 171 L 177.7 155 L 179.2 155 C 179.2 155 179.19 161.68 179.2 161.7 C 179.8 160.4 181.1 159.5 183.1 159.5 C 185.4 159.5 186.8 160.8 186.8 163.3 Z M 190.8 165.7 C 190.9 168.5 192.6 169.8 194.6 169.8 C 196.1 169.8 197.6 169.1 197.9 167.5 C 197.9 167.5 199.3 167.5 199.3 167.5 C 198.8 170.1 196.7 171.2 194.5 171.2 C 191.8 171.2 189.3 169.4 189.3 165.4 C 189.3 161.3 191.9 159.5 194.6 159.5 C 197.2 159.5 199.4 161.2 199.4 165 C 199.43 164.95 199.4 165.7 199.4 165.7 C 199.4 165.7 190.84 165.71 190.8 165.7 Z M 190.9 164.4 C 190.9 164.4 197.9 164.4 197.9 164.4 C 197.9 162.1 196.4 160.9 194.5 160.9 C 192.8 160.9 191.1 162 190.9 164.4 Z M 203.7 155 L 202 155 L 202 156.9 L 203.7 156.9 L 203.7 155 Z M 203.6 171 L 202.1 171 L 202.1 159.7 L 203.6 159.7 L 203.6 171 Z M 216.1 163.3 C 216.11 163.25 216.1 171 216.1 171 L 214.6 171 C 214.6 171 214.57 163.44 214.6 163.4 C 214.6 161.9 213.7 160.9 212.1 160.9 C 210.2 160.9 208.5 162.3 208.5 165.1 C 208.48 165.06 208.5 171 208.5 171 L 207 171 L 207 159.7 L 208.5 159.7 C 208.5 159.7 208.48 161.8 208.5 161.8 C 209.2 160.5 210.4 159.5 212.4 159.5 C 214.6 159.5 216.1 160.8 216.1 163.3 Z M 228.5 163.3 C 228.52 163.25 228.5 171 228.5 171 L 227 171 C 227 171 226.99 163.44 227 163.4 C 227 161.9 226.1 160.9 224.5 160.9 C 222.6 160.9 220.9 162.3 220.9 165.1 C 220.9 165.06 220.9 171 220.9 171 L 219.4 171 L 219.4 155 L 220.9 155 C 220.9 155 220.9 161.68 220.9 161.7 C 221.5 160.4 222.8 159.5 224.8 159.5 C 227.1 159.5 228.5 160.8 228.5 163.3 Z M 238.7 168.9 C 237.8 170.6 236.1 171.2 234.7 171.2 C 232.8 171.2 231 170.1 231 167.9 C 231 165.8 232.5 164.8 234.5 164.6 C 234.5 164.6 237.1 164.2 237.1 164.2 C 238 164.1 238.7 163.8 238.7 162.8 C 238.7 161.5 237.5 160.8 236 160.8 C 234.3 160.8 233.2 161.6 233 162.9 C 233 162.9 231.5 162.9 231.5 162.9 C 231.8 160.6 233.6 159.5 236.1 159.5 C 238.6 159.5 240.2 160.7 240.2 163.2 C 240.19 163.19 240.2 171 240.2 171 L 238.7 171 C 238.7 171 238.7 168.92 238.7 168.9 Z M 236.8 165.5 C 236.8 165.5 235.1 165.7 235.1 165.7 C 233.7 165.9 232.6 166.4 232.6 167.8 C 232.6 169.2 233.7 169.8 234.9 169.8 C 236.7 169.8 238.7 168.5 238.7 166.1 C 238.7 166.1 238.7 165 238.7 165 C 238.2 165.3 237.6 165.4 236.8 165.5 Z M 253.9 165.3 C 253.9 168.8 251.8 171.2 248.8 171.2 C 246.7 171.2 245.4 170.1 244.8 168.9 C 244.81 168.9 244.8 171 244.8 171 L 243.3 171 L 243.3 155 L 244.9 155 C 244.9 155 244.88 161.97 244.9 162 C 245.4 160.6 246.9 159.5 248.9 159.5 C 251.8 159.5 253.9 161.7 253.9 165.3 Z M 252.3 165.4 C 252.3 162.6 250.8 161 248.6 161 C 246.5 161 244.9 162.6 244.9 165.4 C 244.9 168.2 246.4 169.9 248.6 169.9 C 250.8 169.9 252.3 168.1 252.3 165.4 Z M 257.3 165.7 C 257.3 168.5 259 169.8 261 169.8 C 262.5 169.8 264 169.1 264.3 167.5 C 264.3 167.5 265.8 167.5 265.8 167.5 C 265.3 170.1 263.1 171.2 260.9 171.2 C 258.3 171.2 255.8 169.4 255.8 165.4 C 255.8 161.3 258.3 159.5 261 159.5 C 263.7 159.5 265.9 161.2 265.9 165 C 265.86 164.95 265.9 165.7 265.9 165.7 C 265.9 165.7 257.27 165.71 257.3 165.7 Z M 257.3 164.4 C 257.3 164.4 264.3 164.4 264.3 164.4 C 264.3 162.1 262.8 160.9 260.9 160.9 C 259.2 160.9 257.5 162 257.3 164.4 Z M 274.1 161 C 274.1 161 273.75 161.03 273.8 161 C 271.4 161 270 162.4 270 165 C 270.01 165 270 171 270 171 L 268.5 171 L 268.5 159.7 L 270 159.7 C 270 159.7 269.99 161.78 270 161.8 C 270.5 160.3 271.9 159.6 273.6 159.6 C 273.63 159.58 274.1 159.6 274.1 159.6 L 274.1 161 Z M 281.1 159.7 L 282.7 159.7 C 282.7 159.7 282.66 161.57 282.7 161.6 C 283.3 160.2 284.5 159.5 285.9 159.5 C 287.6 159.5 288.9 160.4 289.3 161.8 C 289.8 160.6 291 159.5 293 159.5 C 295 159.5 296.6 160.6 296.6 162.9 C 296.62 162.9 296.6 171 296.6 171 L 295.1 171 C 295.1 171 295.09 163.44 295.1 163.4 C 295.1 161.7 294 160.9 292.7 160.9 C 291 160.9 289.6 162.2 289.6 164.5 C 289.63 164.53 289.6 171 289.6 171 L 288.1 171 C 288.1 171 288.12 163.44 288.1 163.4 C 288.1 161.7 287.1 160.9 285.7 160.9 C 284.1 160.9 282.7 162.1 282.7 164.5 C 282.68 164.53 282.7 171 282.7 171 L 281.1 171 L 281.1 159.7 Z M 301.5 155 L 299.8 155 L 299.8 156.9 L 301.5 156.9 L 301.5 155 Z M 301.4 171 L 299.9 171 L 299.9 159.7 L 301.4 159.7 L 301.4 171 Z M 309.9 171 C 309.9 171 308.25 170.98 308.3 171 C 306.8 171 305.4 170.5 305.4 168 C 305.42 168.02 305.4 161.1 305.4 161.1 L 303.2 161.1 L 303.2 159.7 L 305.4 159.7 L 305.4 156.5 L 307 156.1 L 307 159.7 L 309.7 159.7 L 309.7 161.1 L 307 161.1 C 307 161.1 306.95 168 307 168 C 307 169 307.2 169.6 308.5 169.6 C 308.51 169.6 309.9 169.6 309.9 169.6 L 309.9 171 Z M 325.5 167.8 C 325.5 170.1 323.5 171.2 321.2 171.2 C 318.8 171.2 316.5 170 316.3 167.5 C 316.3 167.5 318 167.5 318 167.5 C 318.2 169.2 319.7 169.8 321.2 169.8 C 322.7 169.8 323.9 169.3 323.9 168 C 323.9 166.7 322.6 166.4 321.3 166.2 C 319.2 165.8 316.6 165.4 316.6 162.8 C 316.6 160.6 318.5 159.5 320.8 159.5 C 323.2 159.5 325.1 160.6 325.2 162.9 C 325.2 162.9 323.6 162.9 323.6 162.9 C 323.5 161.5 322.2 160.9 320.8 160.9 C 319.2 160.9 318.2 161.6 318.2 162.7 C 318.2 164.2 319.6 164.4 321.3 164.7 C 323.3 165 325.5 165.3 325.5 167.8 Z M 329.7 155 L 328 155 L 328 156.9 L 329.7 156.9 L 329.7 155 Z M 329.6 171 L 328.1 171 L 328.1 159.7 L 329.6 159.7 L 329.6 171 Z M 337.4 171.2 C 334.3 171.2 332.2 168.9 332.2 165.4 C 332.2 161.8 334.3 159.5 337.6 159.5 C 340.1 159.5 342.1 160.9 342.2 163.4 C 342.2 163.4 340.7 163.4 340.7 163.4 C 340.6 161.8 339.2 160.9 337.5 160.9 C 335.3 160.9 333.8 162.6 333.8 165.3 C 333.8 168.1 335.3 169.8 337.5 169.8 C 339.2 169.8 340.6 168.8 340.7 167 C 340.7 167 342.2 167 342.2 167 C 342.1 169.7 339.9 171.2 337.4 171.2 Z M 354 163.3 C 354.01 163.25 354 171 354 171 L 352.5 171 C 352.5 171 352.48 163.44 352.5 163.4 C 352.5 161.9 351.6 160.9 350 160.9 C 348.1 160.9 346.4 162.3 346.4 165.1 C 346.39 165.06 346.4 171 346.4 171 L 344.9 171 L 344.9 155 L 346.4 155 C 346.4 155 346.39 161.68 346.4 161.7 C 347 160.4 348.3 159.5 350.3 159.5 C 352.6 159.5 354 160.8 354 163.3 Z M 373.5 165.3 C 373.5 168.8 371.4 171.2 368.4 171.2 C 366.3 171.2 365 170.1 364.4 168.9 C 364.41 168.9 364.4 171 364.4 171 L 362.9 171 L 362.9 155 L 364.5 155 C 364.5 155 364.47 161.97 364.5 162 C 365 160.6 366.5 159.5 368.5 159.5 C 371.4 159.5 373.5 161.7 373.5 165.3 Z M 371.9 165.4 C 371.9 162.6 370.4 161 368.2 161 C 366 161 364.5 162.6 364.5 165.4 C 364.5 168.2 366 169.9 368.2 169.9 C 370.4 169.9 371.9 168.1 371.9 165.4 Z M 381.7 161 C 381.7 161 381.35 161.03 381.4 161 C 379 161 377.6 162.4 377.6 165 C 377.62 165 377.6 171 377.6 171 L 376.1 171 L 376.1 159.7 L 377.6 159.7 C 377.6 159.7 377.59 161.78 377.6 161.8 C 378.1 160.3 379.5 159.6 381.2 159.6 C 381.23 159.58 381.7 159.6 381.7 159.6 L 381.7 161 Z M 385.3 155 L 383.6 155 L 383.6 156.9 L 385.3 156.9 L 385.3 155 Z M 385.2 171 L 383.7 171 L 383.7 159.7 L 385.2 159.7 L 385.2 171 Z M 397.8 163.3 C 397.75 163.25 397.8 171 397.8 171 L 396.2 171 C 396.2 171 396.22 163.44 396.2 163.4 C 396.2 161.9 395.3 160.9 393.7 160.9 C 391.8 160.9 390.1 162.3 390.1 165.1 C 390.13 165.06 390.1 171 390.1 171 L 388.6 171 L 388.6 159.7 L 390.1 159.7 C 390.1 159.7 390.13 161.8 390.1 161.8 C 390.8 160.5 392.1 159.5 394 159.5 C 396.3 159.5 397.8 160.8 397.8 163.3 Z M 410.7 170.5 C 410.7 173.9 408.5 175.6 405.6 175.6 C 403.1 175.6 400.9 174.3 400.5 171.7 C 400.5 171.7 402.1 171.7 402.1 171.7 C 402.3 173.1 403.4 174.3 405.6 174.3 C 407.7 174.3 409.2 173.2 409.2 170.6 C 409.2 170.6 409.2 168.3 409.2 168.3 C 408.4 170 406.7 170.6 405.3 170.6 C 402.5 170.6 400.3 168.7 400.3 165 C 400.3 161.3 402.6 159.5 405.3 159.5 C 407.1 159.5 408.5 160.3 409.2 161.5 C 409.2 161.53 409.2 159.7 409.2 159.7 L 410.7 159.7 C 410.7 159.7 410.71 170.48 410.7 170.5 Z M 409.1 165 C 409.1 162.2 407.4 160.8 405.5 160.8 C 403.6 160.8 401.8 162.2 401.8 165 C 401.8 167.8 403.5 169.2 405.5 169.2 C 407.3 169.2 409.1 168 409.1 165 Z M 414.7 165.7 C 414.8 168.5 416.5 169.8 418.5 169.8 C 420 169.8 421.5 169.1 421.8 167.5 C 421.8 167.5 423.2 167.5 423.2 167.5 C 422.7 170.1 420.6 171.2 418.4 171.2 C 415.7 171.2 413.2 169.4 413.2 165.4 C 413.2 161.3 415.8 159.5 418.5 159.5 C 421.1 159.5 423.3 161.2 423.3 165 C 423.33 164.95 423.3 165.7 423.3 165.7 C 423.3 165.7 414.74 165.71 414.7 165.7 Z M 414.8 164.4 C 414.8 164.4 421.8 164.4 421.8 164.4 C 421.8 162.1 420.3 160.9 418.4 160.9 C 416.7 160.9 415 162 414.8 164.4 Z M 435.1 163.3 C 435.11 163.25 435.1 171 435.1 171 L 433.6 171 C 433.6 171 433.58 163.44 433.6 163.4 C 433.6 161.9 432.7 160.9 431.1 160.9 C 429.2 160.9 427.5 162.3 427.5 165.1 C 427.49 165.06 427.5 171 427.5 171 L 426 171 L 426 159.7 L 427.5 159.7 C 427.5 159.7 427.49 161.8 427.5 161.8 C 428.2 160.5 429.4 159.5 431.4 159.5 C 433.6 159.5 435.1 160.8 435.1 163.3 Z M 437.6 168.8 L 439.8 168.8 L 439.8 171 L 437.6 171 L 437.6 168.8 Z " stroke="none" fill="#000"/>  </g>  <g id="Polygon11444">    <path d="M 14.3 137.6 C 14.3 141.7 11.8 145.8 6.4 145.8 C 6.45 145.78 1.9 145.8 1.9 145.8 L 1.9 130 C 1.9 130 6.72 130.03 6.7 130 C 11.8 130 14.3 133.7 14.3 137.6 Z M 12.7 137.7 C 12.7 134.5 10.7 131.4 6.6 131.4 C 6.59 131.44 3.5 131.4 3.5 131.4 L 3.5 144.3 C 3.5 144.3 6.47 144.33 6.5 144.3 C 10.6 144.3 12.7 141 12.7 137.7 Z M 18.8 129.8 L 17.1 129.8 L 17.1 131.7 L 18.8 131.7 L 18.8 129.8 Z M 18.7 145.8 L 17.2 145.8 L 17.2 134.5 L 18.7 134.5 L 18.7 145.8 Z M 22.8 140.5 C 22.9 143.3 24.6 144.6 26.6 144.6 C 28.1 144.6 29.6 143.9 29.9 142.3 C 29.9 142.3 31.4 142.3 31.4 142.3 C 30.8 144.9 28.7 146 26.5 146 C 23.8 146 21.3 144.2 21.3 140.2 C 21.3 136.1 23.9 134.3 26.6 134.3 C 29.3 134.3 31.4 136 31.4 139.8 C 31.44 139.75 31.4 140.5 31.4 140.5 C 31.4 140.5 22.85 140.51 22.8 140.5 Z M 22.9 139.2 C 22.9 139.2 29.9 139.2 29.9 139.2 C 29.9 136.9 28.4 135.7 26.5 135.7 C 24.8 135.7 23.1 136.8 22.9 139.2 Z M 42.4 142.6 C 42.4 144.9 40.4 146 38.1 146 C 35.7 146 33.5 144.8 33.2 142.3 C 33.2 142.3 34.9 142.3 34.9 142.3 C 35.1 144 36.6 144.6 38.1 144.6 C 39.6 144.6 40.8 144.1 40.8 142.8 C 40.8 141.5 39.5 141.2 38.2 141 C 36.1 140.6 33.5 140.2 33.5 137.6 C 33.5 135.4 35.4 134.3 37.7 134.3 C 40.1 134.3 42 135.4 42.1 137.7 C 42.1 137.7 40.6 137.7 40.6 137.7 C 40.4 136.3 39.1 135.7 37.7 135.7 C 36.1 135.7 35.1 136.4 35.1 137.5 C 35.1 139 36.5 139.2 38.2 139.5 C 40.2 139.8 42.4 140.1 42.4 142.6 Z M 45.7 140.5 C 45.8 143.3 47.5 144.6 49.5 144.6 C 51 144.6 52.5 143.9 52.8 142.3 C 52.8 142.3 54.2 142.3 54.2 142.3 C 53.7 144.9 51.6 146 49.4 146 C 46.7 146 44.2 144.2 44.2 140.2 C 44.2 136.1 46.8 134.3 49.5 134.3 C 52.1 134.3 54.3 136 54.3 139.8 C 54.33 139.75 54.3 140.5 54.3 140.5 C 54.3 140.5 45.74 140.51 45.7 140.5 Z M 45.8 139.2 C 45.8 139.2 52.8 139.2 52.8 139.2 C 52.8 136.9 51.3 135.7 49.4 135.7 C 47.6 135.7 46 136.8 45.8 139.2 Z M 65.2 128.3 L 65.2 126.3 L 67 126.3 L 67 128.3 L 65.2 128.3 Z M 69.2 128.3 L 69.2 126.3 L 71.1 126.3 L 71.1 128.3 L 69.2 128.3 Z M 71.8 141.3 L 64.3 141.3 L 62.6 145.8 L 60.8 145.8 L 67.2 130 L 68.9 130 L 75.4 145.8 L 73.6 145.8 L 71.8 141.3 Z M 68 131.8 L 64.8 139.9 L 71.3 139.9 L 68 131.8 Z M 87 138.1 C 86.96 138.05 87 145.8 87 145.8 L 85.4 145.8 C 85.4 145.8 85.43 138.24 85.4 138.2 C 85.4 136.7 84.5 135.7 82.9 135.7 C 81 135.7 79.3 137.1 79.3 139.9 C 79.34 139.86 79.3 145.8 79.3 145.8 L 77.8 145.8 L 77.8 134.5 L 79.3 134.5 C 79.3 134.5 79.34 136.6 79.3 136.6 C 80 135.3 81.3 134.3 83.2 134.3 C 85.5 134.3 87 135.6 87 138.1 Z M 100 145.8 L 98.6 145.8 C 98.6 145.8 98.55 143.6 98.6 143.6 C 98 144.9 96.6 146 94.5 146 C 91.6 146 89.5 143.7 89.5 140.1 C 89.5 136.6 91.6 134.3 94.6 134.3 C 96.5 134.3 97.9 135.2 98.5 136.4 C 98.49 136.42 98.5 129.8 98.5 129.8 L 100 129.8 L 100 145.8 Z M 98.5 140.1 C 98.5 137.3 96.9 135.7 94.8 135.7 C 92.5 135.7 91.1 137.4 91.1 140.1 C 91.1 142.9 92.6 144.6 94.8 144.6 C 96.9 144.6 98.5 142.9 98.5 140.1 Z M 104.2 140.5 C 104.2 143.3 105.9 144.6 107.9 144.6 C 109.4 144.6 110.9 143.9 111.2 142.3 C 111.2 142.3 112.7 142.3 112.7 142.3 C 112.2 144.9 110 146 107.8 146 C 105.1 146 102.6 144.2 102.6 140.2 C 102.6 136.1 105.2 134.3 107.9 134.3 C 110.6 134.3 112.7 136 112.7 139.8 C 112.75 139.75 112.7 140.5 112.7 140.5 C 112.7 140.5 104.16 140.51 104.2 140.5 Z M 104.2 139.2 C 104.2 139.2 111.2 139.2 111.2 139.2 C 111.2 136.9 109.7 135.7 107.8 135.7 C 106.1 135.7 104.4 136.8 104.2 139.2 Z M 121 135.8 C 121 135.8 120.64 135.83 120.6 135.8 C 118.3 135.8 116.9 137.2 116.9 139.8 C 116.91 139.8 116.9 145.8 116.9 145.8 L 115.4 145.8 L 115.4 134.5 L 116.9 134.5 C 116.9 134.5 116.89 136.58 116.9 136.6 C 117.4 135.1 118.8 134.4 120.5 134.4 C 120.52 134.38 121 134.4 121 134.4 L 121 135.8 Z M 130.4 145.8 C 130.4 145.8 130.41 143.64 130.4 143.6 C 129.6 145.2 128.2 145.9 126.6 145.9 C 124.5 145.9 122.9 144.6 122.9 142 C 122.89 141.96 122.9 134.5 122.9 134.5 L 124.4 134.5 C 124.4 134.5 124.42 141.77 124.4 141.8 C 124.4 143.6 125.4 144.6 126.9 144.6 C 128.7 144.6 130.3 143.2 130.3 140.3 C 130.35 140.34 130.3 134.5 130.3 134.5 L 131.9 134.5 L 131.9 145.8 L 130.4 145.8 Z M 144.4 138.1 C 144.39 138.05 144.4 145.8 144.4 145.8 L 142.9 145.8 C 142.9 145.8 142.86 138.24 142.9 138.2 C 142.9 136.7 142 135.7 140.4 135.7 C 138.5 135.7 136.8 137.1 136.8 139.9 C 136.77 139.86 136.8 145.8 136.8 145.8 L 135.2 145.8 L 135.2 134.5 L 136.8 134.5 C 136.8 134.5 136.77 136.6 136.8 136.6 C 137.4 135.3 138.7 134.3 140.7 134.3 C 142.9 134.3 144.4 135.6 144.4 138.1 Z M 157.4 145.3 C 157.4 148.7 155.1 150.4 152.2 150.4 C 149.7 150.4 147.5 149.1 147.2 146.5 C 147.2 146.5 148.7 146.5 148.7 146.5 C 149 147.9 150 149.1 152.2 149.1 C 154.3 149.1 155.9 148 155.9 145.4 C 155.9 145.4 155.9 143.1 155.9 143.1 C 155 144.8 153.4 145.4 151.9 145.4 C 149.1 145.4 146.9 143.5 146.9 139.8 C 146.9 136.1 149.3 134.3 152 134.3 C 153.8 134.3 155.1 135.1 155.8 136.3 C 155.84 136.33 155.8 134.5 155.8 134.5 L 157.4 134.5 C 157.4 134.5 157.35 145.28 157.4 145.3 Z M 155.8 139.8 C 155.8 137 154.1 135.6 152.2 135.6 C 150.2 135.6 148.4 137 148.4 139.8 C 148.4 142.6 150.2 144 152.1 144 C 153.9 144 155.8 142.8 155.8 139.8 Z M 161.4 140.5 C 161.4 143.3 163.1 144.6 165.1 144.6 C 166.6 144.6 168.1 143.9 168.4 142.3 C 168.4 142.3 169.9 142.3 169.9 142.3 C 169.4 144.9 167.2 146 165.1 146 C 162.4 146 159.9 144.2 159.9 140.2 C 159.9 136.1 162.4 134.3 165.1 134.3 C 167.8 134.3 170 136 170 139.8 C 169.97 139.75 170 140.5 170 140.5 C 170 140.5 161.38 140.51 161.4 140.5 Z M 161.4 139.2 C 161.4 139.2 168.4 139.2 168.4 139.2 C 168.4 136.9 166.9 135.7 165.1 135.7 C 163.3 135.7 161.6 136.8 161.4 139.2 Z M 181.8 138.1 C 181.75 138.05 181.8 145.8 181.8 145.8 L 180.2 145.8 C 180.2 145.8 180.22 138.24 180.2 138.2 C 180.2 136.7 179.3 135.7 177.7 135.7 C 175.8 135.7 174.1 137.1 174.1 139.9 C 174.13 139.86 174.1 145.8 174.1 145.8 L 172.6 145.8 L 172.6 134.5 L 174.1 134.5 C 174.1 134.5 174.13 136.6 174.1 136.6 C 174.8 135.3 176.1 134.3 178 134.3 C 180.3 134.3 181.8 135.6 181.8 138.1 Z M 194.2 140.3 L 192.2 142.4 L 192.2 145.8 L 190.7 145.8 L 190.7 129.8 L 192.2 129.8 L 192.2 140.5 L 197.8 134.5 L 199.7 134.5 L 195.3 139.2 L 200.1 145.8 L 198.2 145.8 L 194.2 140.3 Z M 203.3 132.2 L 203.3 130.3 L 205.1 130.3 L 205.1 132.2 L 203.3 132.2 Z M 207.4 132.2 L 207.4 130.3 L 209.2 130.3 L 209.2 132.2 L 207.4 132.2 Z M 200.9 140.2 C 200.9 136.5 203.1 134.3 206.2 134.3 C 209.3 134.3 211.6 136.5 211.6 140.2 C 211.6 143.8 209.4 146 206.3 146 C 203.2 146 200.9 143.8 200.9 140.2 Z M 210 140.1 C 210 137.3 208.3 135.7 206.2 135.7 C 204 135.7 202.5 137.4 202.5 140.2 C 202.5 143 204.2 144.6 206.3 144.6 C 208.5 144.6 210 142.9 210 140.1 Z M 223.4 138.1 C 223.37 138.05 223.4 145.8 223.4 145.8 L 221.8 145.8 C 221.8 145.8 221.84 138.24 221.8 138.2 C 221.8 136.7 221 135.7 219.4 135.7 C 217.4 135.7 215.8 137.1 215.8 139.9 C 215.75 139.86 215.8 145.8 215.8 145.8 L 214.2 145.8 L 214.2 134.5 L 215.8 134.5 C 215.8 134.5 215.75 136.6 215.8 136.6 C 216.4 135.3 217.7 134.3 219.7 134.3 C 221.9 134.3 223.4 135.6 223.4 138.1 Z M 235.8 138.1 C 235.79 138.05 235.8 145.8 235.8 145.8 L 234.3 145.8 C 234.3 145.8 234.25 138.24 234.3 138.2 C 234.3 136.7 233.4 135.7 231.8 135.7 C 229.8 135.7 228.2 137.1 228.2 139.9 C 228.16 139.86 228.2 145.8 228.2 145.8 L 226.6 145.8 L 226.6 134.5 L 228.2 134.5 C 228.2 134.5 228.16 136.6 228.2 136.6 C 228.8 135.3 230.1 134.3 232.1 134.3 C 234.3 134.3 235.8 135.6 235.8 138.1 Z M 244.2 145.8 C 244.2 145.8 242.53 145.78 242.5 145.8 C 241 145.8 239.7 145.3 239.7 142.8 C 239.69 142.82 239.7 135.9 239.7 135.9 L 237.5 135.9 L 237.5 134.5 L 239.7 134.5 L 239.7 131.3 L 241.2 130.9 L 241.2 134.5 L 244 134.5 L 244 135.9 L 241.2 135.9 C 241.2 135.9 241.22 142.8 241.2 142.8 C 241.2 143.8 241.5 144.4 242.8 144.4 C 242.78 144.4 244.2 144.4 244.2 144.4 L 244.2 145.8 Z M 247.2 140.5 C 247.2 143.3 248.9 144.6 250.9 144.6 C 252.4 144.6 253.9 143.9 254.2 142.3 C 254.2 142.3 255.7 142.3 255.7 142.3 C 255.2 144.9 253 146 250.8 146 C 248.2 146 245.7 144.2 245.7 140.2 C 245.7 136.1 248.2 134.3 250.9 134.3 C 253.6 134.3 255.8 136 255.8 139.8 C 255.76 139.75 255.8 140.5 255.8 140.5 C 255.8 140.5 247.17 140.51 247.2 140.5 Z M 247.2 139.2 C 247.2 139.2 254.2 139.2 254.2 139.2 C 254.2 136.9 252.7 135.7 250.8 135.7 C 249.1 135.7 247.4 136.8 247.2 139.2 Z M 267.5 138.1 C 267.54 138.05 267.5 145.8 267.5 145.8 L 266 145.8 C 266 145.8 266 138.24 266 138.2 C 266 136.7 265.1 135.7 263.5 135.7 C 261.6 135.7 259.9 137.1 259.9 139.9 C 259.91 139.86 259.9 145.8 259.9 145.8 L 258.4 145.8 L 258.4 134.5 L 259.9 134.5 C 259.9 134.5 259.91 136.6 259.9 136.6 C 260.6 135.3 261.8 134.3 263.8 134.3 C 266.1 134.3 267.5 135.6 267.5 138.1 Z M 276.8 140.5 C 276.9 143.3 278.6 144.6 280.6 144.6 C 282.1 144.6 283.5 143.9 283.9 142.3 C 283.9 142.3 285.3 142.3 285.3 142.3 C 284.8 144.9 282.6 146 280.5 146 C 277.8 146 275.3 144.2 275.3 140.2 C 275.3 136.1 277.8 134.3 280.6 134.3 C 283.2 134.3 285.4 136 285.4 139.8 C 285.41 139.75 285.4 140.5 285.4 140.5 C 285.4 140.5 276.82 140.51 276.8 140.5 Z M 276.9 139.2 C 276.9 139.2 283.9 139.2 283.9 139.2 C 283.9 136.9 282.4 135.7 280.5 135.7 C 278.7 135.7 277.1 136.8 276.9 139.2 Z M 289.7 129.8 L 287.9 129.8 L 287.9 131.7 L 289.7 131.7 L 289.7 129.8 Z M 289.6 145.8 L 288 145.8 L 288 134.5 L 289.6 134.5 L 289.6 145.8 Z M 302.1 138.1 C 302.08 138.05 302.1 145.8 302.1 145.8 L 300.5 145.8 C 300.5 145.8 300.55 138.24 300.5 138.2 C 300.5 136.7 299.7 135.7 298.1 135.7 C 296.1 135.7 294.5 137.1 294.5 139.9 C 294.46 139.86 294.5 145.8 294.5 145.8 L 292.9 145.8 L 292.9 134.5 L 294.5 134.5 C 294.5 134.5 294.46 136.6 294.5 136.6 C 295.1 135.3 296.4 134.3 298.4 134.3 C 300.6 134.3 302.1 135.6 302.1 138.1 Z M 306.1 140.5 C 306.2 143.3 307.9 144.6 309.9 144.6 C 311.4 144.6 312.8 143.9 313.2 142.3 C 313.2 142.3 314.6 142.3 314.6 142.3 C 314.1 144.9 311.9 146 309.8 146 C 307.1 146 304.6 144.2 304.6 140.2 C 304.6 136.1 307.1 134.3 309.9 134.3 C 312.5 134.3 314.7 136 314.7 139.8 C 314.7 139.75 314.7 140.5 314.7 140.5 C 314.7 140.5 306.11 140.51 306.1 140.5 Z M 306.2 139.2 C 306.2 139.2 313.1 139.2 313.1 139.2 C 313.1 136.9 311.7 135.7 309.8 135.7 C 308 135.7 306.4 136.8 306.2 139.2 Z M 332.6 145.8 L 328.1 139 L 324.4 139 L 324.4 145.8 L 322.8 145.8 L 322.8 130 C 322.8 130 328.39 130.03 328.4 130 C 331.6 130 333.3 132.1 333.3 134.3 C 333.3 136.2 332.1 138.1 329.8 138.7 C 329.8 138.7 334.5 145.8 334.5 145.8 L 332.6 145.8 Z M 328.3 137.5 C 330.5 137.5 331.7 136 331.7 134.4 C 331.7 132.8 330.6 131.4 328.5 131.4 C 328.48 131.44 324.4 131.4 324.4 131.4 L 324.4 137.5 C 324.4 137.5 328.29 137.55 328.3 137.5 Z M 337 140.5 C 337.1 143.3 338.8 144.6 340.8 144.6 C 342.3 144.6 343.7 143.9 344.1 142.3 C 344.1 142.3 345.5 142.3 345.5 142.3 C 345 144.9 342.8 146 340.7 146 C 338 146 335.5 144.2 335.5 140.2 C 335.5 136.1 338.1 134.3 340.8 134.3 C 343.4 134.3 345.6 136 345.6 139.8 C 345.61 139.75 345.6 140.5 345.6 140.5 C 345.6 140.5 337.02 140.51 337 140.5 Z M 337.1 139.2 C 337.1 139.2 344.1 139.2 344.1 139.2 C 344.1 136.9 342.6 135.7 340.7 135.7 C 338.9 135.7 337.3 136.8 337.1 139.2 Z M 349.9 129.8 L 348.1 129.8 L 348.1 131.7 L 349.9 131.7 L 349.9 129.8 Z M 349.8 145.8 L 348.2 145.8 L 348.2 134.5 L 349.8 134.5 L 349.8 145.8 Z M 362.3 138.1 C 362.29 138.05 362.3 145.8 362.3 145.8 L 360.8 145.8 C 360.8 145.8 360.75 138.24 360.8 138.2 C 360.8 136.7 359.9 135.7 358.3 135.7 C 356.3 135.7 354.7 137.1 354.7 139.9 C 354.66 139.86 354.7 145.8 354.7 145.8 L 353.1 145.8 L 353.1 129.8 L 354.7 129.8 C 354.7 129.8 354.66 136.48 354.7 136.5 C 355.3 135.2 356.5 134.3 358.5 134.3 C 360.8 134.3 362.3 135.6 362.3 138.1 Z M 366.3 140.5 C 366.4 143.3 368.1 144.6 370.1 144.6 C 371.6 144.6 373 143.9 373.4 142.3 C 373.4 142.3 374.8 142.3 374.8 142.3 C 374.3 144.9 372.1 146 370 146 C 367.3 146 364.8 144.2 364.8 140.2 C 364.8 136.1 367.3 134.3 370.1 134.3 C 372.7 134.3 374.9 136 374.9 139.8 C 374.91 139.75 374.9 140.5 374.9 140.5 C 374.9 140.5 366.32 140.51 366.3 140.5 Z M 366.4 139.2 C 366.4 139.2 373.4 139.2 373.4 139.2 C 373.4 136.9 371.9 135.7 370 135.7 C 368.2 135.7 366.6 136.8 366.4 139.2 Z M 391.9 138.1 C 391.94 138.05 391.9 145.8 391.9 145.8 L 390.4 145.8 C 390.4 145.8 390.41 138.24 390.4 138.2 C 390.4 136.7 389.5 135.7 387.9 135.7 C 386 135.7 384.3 137.1 384.3 139.9 C 384.32 139.86 384.3 145.8 384.3 145.8 L 382.8 145.8 L 382.8 134.5 L 384.3 134.5 C 384.3 134.5 384.32 136.6 384.3 136.6 C 385 135.3 386.2 134.3 388.2 134.3 C 390.5 134.3 391.9 135.6 391.9 138.1 Z M 396 140.5 C 396 143.3 397.7 144.6 399.7 144.6 C 401.2 144.6 402.7 143.9 403 142.3 C 403 142.3 404.5 142.3 404.5 142.3 C 404 144.9 401.8 146 399.6 146 C 397 146 394.5 144.2 394.5 140.2 C 394.5 136.1 397 134.3 399.7 134.3 C 402.4 134.3 404.6 136 404.6 139.8 C 404.56 139.75 404.6 140.5 404.6 140.5 C 404.6 140.5 395.97 140.51 396 140.5 Z M 396 139.2 C 396 139.2 403 139.2 403 139.2 C 403 136.9 401.5 135.7 399.6 135.7 C 397.9 135.7 396.2 136.8 396 139.2 Z M 414.6 145.8 C 414.6 145.8 414.6 143.64 414.6 143.6 C 413.8 145.2 412.4 145.9 410.8 145.9 C 408.7 145.9 407.1 144.6 407.1 142 C 407.08 141.96 407.1 134.5 407.1 134.5 L 408.6 134.5 C 408.6 134.5 408.61 141.77 408.6 141.8 C 408.6 143.6 409.6 144.6 411.1 144.6 C 412.9 144.6 414.5 143.2 414.5 140.3 C 414.54 140.34 414.5 134.5 414.5 134.5 L 416.1 134.5 L 416.1 145.8 L 414.6 145.8 Z M 420.2 140.5 C 420.2 143.3 422 144.6 424 144.6 C 425.5 144.6 426.9 143.9 427.3 142.3 C 427.3 142.3 428.7 142.3 428.7 142.3 C 428.2 144.9 426 146 423.9 146 C 421.2 146 418.7 144.2 418.7 140.2 C 418.7 136.1 421.2 134.3 423.9 134.3 C 426.6 134.3 428.8 136 428.8 139.8 C 428.79 139.75 428.8 140.5 428.8 140.5 C 428.8 140.5 420.2 140.51 420.2 140.5 Z M 420.2 139.2 C 420.2 139.2 427.2 139.2 427.2 139.2 C 427.2 136.9 425.8 135.7 423.9 135.7 C 422.1 135.7 420.5 136.8 420.2 139.2 Z M 437 135.8 C 437 135.8 436.69 135.83 436.7 135.8 C 434.3 135.8 433 137.2 433 139.8 C 432.95 139.8 433 145.8 433 145.8 L 431.4 145.8 L 431.4 134.5 L 432.9 134.5 C 432.9 134.5 432.93 136.58 432.9 136.6 C 433.5 135.1 434.8 134.4 436.6 134.4 C 436.56 134.38 437 134.4 437 134.4 L 437 135.8 Z " stroke="none" fill="#000"/>  </g>  <g id="Polygon11443">    <path d="M 3.3 104.6 L 1.6 104.6 L 1.6 106.5 L 3.3 106.5 L 3.3 104.6 Z M 3.2 120.6 L 1.7 120.6 L 1.7 109.3 L 3.2 109.3 L 3.2 120.6 Z M 15.7 112.9 C 15.73 112.85 15.7 120.6 15.7 120.6 L 14.2 120.6 C 14.2 120.6 14.2 113.04 14.2 113 C 14.2 111.5 13.3 110.5 11.7 110.5 C 9.8 110.5 8.1 111.9 8.1 114.7 C 8.11 114.66 8.1 120.6 8.1 120.6 L 6.6 120.6 L 6.6 104.6 L 8.1 104.6 C 8.1 104.6 8.11 111.28 8.1 111.3 C 8.8 110 10 109.1 12 109.1 C 14.3 109.1 15.7 110.4 15.7 112.9 Z M 24.6 110.6 C 24.6 110.6 24.25 110.63 24.3 110.6 C 21.9 110.6 20.5 112 20.5 114.6 C 20.52 114.6 20.5 120.6 20.5 120.6 L 19 120.6 L 19 109.3 L 20.5 109.3 C 20.5 109.3 20.5 111.38 20.5 111.4 C 21 109.9 22.4 109.2 24.1 109.2 C 24.13 109.18 24.6 109.2 24.6 109.2 L 24.6 110.6 Z M 27.2 115.3 C 27.2 118.1 28.9 119.4 30.9 119.4 C 32.4 119.4 33.9 118.7 34.2 117.1 C 34.2 117.1 35.7 117.1 35.7 117.1 C 35.2 119.7 33 120.8 30.8 120.8 C 28.2 120.8 25.7 119 25.7 115 C 25.7 110.9 28.2 109.1 30.9 109.1 C 33.6 109.1 35.8 110.8 35.8 114.6 C 35.76 114.55 35.8 115.3 35.8 115.3 C 35.8 115.3 27.17 115.31 27.2 115.3 Z M 27.2 114 C 27.2 114 34.2 114 34.2 114 C 34.2 111.7 32.7 110.5 30.8 110.5 C 29.1 110.5 27.4 111.6 27.2 114 Z M 47.2 115.1 L 45.2 117.2 L 45.2 120.6 L 43.6 120.6 L 43.6 104.6 L 45.2 104.6 L 45.2 115.3 L 50.7 109.3 L 52.7 109.3 L 48.2 114 L 53 120.6 L 51.2 120.6 L 47.2 115.1 Z M 56.5 107 L 56.5 105.1 L 58.3 105.1 L 58.3 107 L 56.5 107 Z M 60.6 107 L 60.6 105.1 L 62.4 105.1 L 62.4 107 L 60.6 107 Z M 62.4 120.6 C 62.4 120.6 62.43 118.44 62.4 118.4 C 61.7 120 60.3 120.7 58.7 120.7 C 56.6 120.7 54.9 119.4 54.9 116.8 C 54.91 116.76 54.9 109.3 54.9 109.3 L 56.4 109.3 C 56.4 109.3 56.45 116.57 56.4 116.6 C 56.4 118.4 57.5 119.4 58.9 119.4 C 60.8 119.4 62.4 118 62.4 115.1 C 62.37 115.14 62.4 109.3 62.4 109.3 L 63.9 109.3 L 63.9 120.6 L 62.4 120.6 Z M 76.4 112.9 C 76.42 112.85 76.4 120.6 76.4 120.6 L 74.9 120.6 C 74.9 120.6 74.89 113.04 74.9 113 C 74.9 111.5 74 110.5 72.4 110.5 C 70.5 110.5 68.8 111.9 68.8 114.7 C 68.8 114.66 68.8 120.6 68.8 120.6 L 67.3 120.6 L 67.3 109.3 L 68.8 109.3 C 68.8 109.3 68.8 111.4 68.8 111.4 C 69.5 110.1 70.7 109.1 72.7 109.1 C 74.9 109.1 76.4 110.4 76.4 112.9 Z M 90.3 120.6 C 88.9 120.6 87.5 120.1 87.5 117.6 C 87.51 117.62 87.5 110.7 87.5 110.7 L 81.7 110.7 L 81.7 120.6 L 80.2 120.6 L 80.2 110.7 L 78.3 110.7 L 78.3 109.3 L 80.2 109.3 C 80.2 109.3 80.18 107.52 80.2 107.5 C 80.2 105 81.5 104.6 83 104.6 C 83.01 104.58 84.5 104.6 84.5 104.6 L 84.5 105.9 C 84.5 105.9 83.26 105.94 83.3 105.9 C 82 105.9 81.7 106.5 81.7 107.6 C 81.71 107.56 81.7 109.3 81.7 109.3 L 87.5 109.3 L 87.5 106.1 L 89 105.7 L 89 109.3 L 91.8 109.3 L 91.8 110.7 L 89 110.7 C 89 110.7 89.04 117.6 89 117.6 C 89 118.6 89.3 119.2 90.6 119.2 C 90.59 119.2 92 119.2 92 119.2 L 92 120.6 C 92 120.6 90.34 120.58 90.3 120.6 Z M 95.9 104.6 L 94.1 104.6 L 94.1 106.5 L 95.9 106.5 L 95.9 104.6 Z M 95.8 120.6 L 94.2 120.6 L 94.2 109.3 L 95.8 109.3 L 95.8 120.6 Z M 108.8 120.1 C 108.8 123.5 106.6 125.2 103.7 125.2 C 101.2 125.2 99 123.9 98.6 121.3 C 98.6 121.3 100.2 121.3 100.2 121.3 C 100.4 122.7 101.5 123.9 103.7 123.9 C 105.8 123.9 107.4 122.8 107.4 120.2 C 107.4 120.2 107.4 117.9 107.4 117.9 C 106.5 119.6 104.8 120.2 103.4 120.2 C 100.6 120.2 98.4 118.3 98.4 114.6 C 98.4 110.9 100.7 109.1 103.4 109.1 C 105.3 109.1 106.6 109.9 107.3 111.1 C 107.31 111.13 107.3 109.3 107.3 109.3 L 108.8 109.3 C 108.8 109.3 108.82 120.08 108.8 120.1 Z M 107.2 114.6 C 107.2 111.8 105.5 110.4 103.6 110.4 C 101.7 110.4 99.9 111.8 99.9 114.6 C 99.9 117.4 101.6 118.8 103.6 118.8 C 105.4 118.8 107.2 117.6 107.2 114.6 Z M 112.9 115.3 C 112.9 118.1 114.6 119.4 116.6 119.4 C 118.1 119.4 119.6 118.7 119.9 117.1 C 119.9 117.1 121.4 117.1 121.4 117.1 C 120.9 119.7 118.7 120.8 116.5 120.8 C 113.8 120.8 111.3 119 111.3 115 C 111.3 110.9 113.9 109.1 116.6 109.1 C 119.3 109.1 121.4 110.8 121.4 114.6 C 121.44 114.55 121.4 115.3 121.4 115.3 C 121.4 115.3 112.85 115.31 112.9 115.3 Z M 112.9 114 C 112.9 114 119.9 114 119.9 114 C 119.9 111.7 118.4 110.5 116.5 110.5 C 114.8 110.5 113.1 111.6 112.9 114 Z M 143.1 120.6 L 141.5 120.6 L 137.5 107.3 L 133.6 120.6 L 131.9 120.6 L 127.8 104.8 L 129.5 104.8 L 132.8 118.3 L 136.7 104.8 L 138.4 104.8 L 142.3 118.3 L 145.6 104.8 L 147.2 104.8 L 143.1 120.6 Z M 151.1 104.6 L 149.4 104.6 L 149.4 106.5 L 151.1 106.5 L 151.1 104.6 Z M 151 120.6 L 149.5 120.6 L 149.5 109.3 L 151 109.3 L 151 120.6 Z M 164.2 120.6 L 162.7 120.6 C 162.7 120.6 162.71 118.4 162.7 118.4 C 162.2 119.7 160.8 120.8 158.7 120.8 C 155.7 120.8 153.6 118.5 153.6 114.9 C 153.6 111.4 155.7 109.1 158.7 109.1 C 160.6 109.1 162 110 162.6 111.2 C 162.64 111.22 162.6 104.6 162.6 104.6 L 164.2 104.6 L 164.2 120.6 Z M 162.6 114.9 C 162.6 112.1 161.1 110.5 158.9 110.5 C 156.7 110.5 155.2 112.2 155.2 114.9 C 155.2 117.7 156.7 119.4 158.9 119.4 C 161.1 119.4 162.6 117.7 162.6 114.9 Z M 168.3 115.3 C 168.4 118.1 170.1 119.4 172.1 119.4 C 173.6 119.4 175 118.7 175.4 117.1 C 175.4 117.1 176.8 117.1 176.8 117.1 C 176.3 119.7 174.1 120.8 172 120.8 C 169.3 120.8 166.8 119 166.8 115 C 166.8 110.9 169.3 109.1 172.1 109.1 C 174.7 109.1 176.9 110.8 176.9 114.6 C 176.9 114.55 176.9 115.3 176.9 115.3 C 176.9 115.3 168.31 115.31 168.3 115.3 Z M 168.4 114 C 168.4 114 175.3 114 175.3 114 C 175.3 111.7 173.9 110.5 172 110.5 C 170.2 110.5 168.6 111.6 168.4 114 Z M 185.2 110.6 C 185.2 110.6 184.8 110.63 184.8 110.6 C 182.4 110.6 181.1 112 181.1 114.6 C 181.06 114.6 181.1 120.6 181.1 120.6 L 179.5 120.6 L 179.5 109.3 L 181 109.3 C 181 109.3 181.04 111.38 181 111.4 C 181.6 109.9 182.9 109.2 184.7 109.2 C 184.67 109.18 185.2 109.2 185.2 109.2 L 185.2 110.6 Z M 195.5 117.4 C 195.5 119.7 193.4 120.8 191.2 120.8 C 188.8 120.8 186.5 119.6 186.3 117.1 C 186.3 117.1 187.9 117.1 187.9 117.1 C 188.2 118.8 189.7 119.4 191.2 119.4 C 192.7 119.4 193.9 118.9 193.9 117.6 C 193.9 116.3 192.6 116 191.3 115.8 C 189.1 115.4 186.6 115 186.6 112.4 C 186.6 110.2 188.5 109.1 190.8 109.1 C 193.2 109.1 195.1 110.2 195.2 112.5 C 195.2 112.5 193.6 112.5 193.6 112.5 C 193.5 111.1 192.2 110.5 190.8 110.5 C 189.2 110.5 188.2 111.2 188.2 112.3 C 188.2 113.8 189.5 114 191.2 114.3 C 193.3 114.6 195.5 114.9 195.5 117.4 Z M 203.2 120.6 C 203.2 120.6 201.53 120.58 201.5 120.6 C 200 120.6 198.7 120.1 198.7 117.6 C 198.7 117.62 198.7 110.7 198.7 110.7 L 196.5 110.7 L 196.5 109.3 L 198.7 109.3 L 198.7 106.1 L 200.2 105.7 L 200.2 109.3 L 203 109.3 L 203 110.7 L 200.2 110.7 C 200.2 110.7 200.23 117.6 200.2 117.6 C 200.2 118.6 200.5 119.2 201.8 119.2 C 201.79 119.2 203.2 119.2 203.2 119.2 L 203.2 120.6 Z M 212.3 118.5 C 211.4 120.2 209.7 120.8 208.3 120.8 C 206.4 120.8 204.7 119.7 204.7 117.5 C 204.7 115.4 206.2 114.4 208.1 114.2 C 208.1 114.2 210.8 113.8 210.8 113.8 C 211.6 113.7 212.3 113.4 212.3 112.4 C 212.3 111.1 211.2 110.4 209.6 110.4 C 207.9 110.4 206.9 111.2 206.6 112.5 C 206.6 112.5 205.1 112.5 205.1 112.5 C 205.4 110.2 207.2 109.1 209.7 109.1 C 212.3 109.1 213.8 110.3 213.8 112.8 C 213.82 112.79 213.8 120.6 213.8 120.6 L 212.3 120.6 C 212.3 120.6 212.33 118.52 212.3 118.5 Z M 210.5 115.1 C 210.5 115.1 208.7 115.3 208.7 115.3 C 207.3 115.5 206.2 116 206.2 117.4 C 206.2 118.8 207.3 119.4 208.6 119.4 C 210.3 119.4 212.3 118.1 212.3 115.7 C 212.3 115.7 212.3 114.6 212.3 114.6 C 211.9 114.9 211.2 115 210.5 115.1 Z M 226.1 112.9 C 226.13 112.85 226.1 120.6 226.1 120.6 L 224.6 120.6 C 224.6 120.6 224.59 113.04 224.6 113 C 224.6 111.5 223.7 110.5 222.1 110.5 C 220.2 110.5 218.5 111.9 218.5 114.7 C 218.5 114.66 218.5 120.6 218.5 120.6 L 217 120.6 L 217 109.3 L 218.5 109.3 C 218.5 109.3 218.5 111.4 218.5 111.4 C 219.2 110.1 220.4 109.1 222.4 109.1 C 224.7 109.1 226.1 110.4 226.1 112.9 Z M 239.2 120.6 L 237.7 120.6 C 237.7 120.6 237.72 118.4 237.7 118.4 C 237.2 119.7 235.8 120.8 233.7 120.8 C 230.7 120.8 228.6 118.5 228.6 114.9 C 228.6 111.4 230.7 109.1 233.7 109.1 C 235.6 109.1 237 110 237.7 111.2 C 237.65 111.22 237.7 104.6 237.7 104.6 L 239.2 104.6 L 239.2 120.6 Z M 237.6 114.9 C 237.6 112.1 236.1 110.5 233.9 110.5 C 231.7 110.5 230.2 112.2 230.2 114.9 C 230.2 117.7 231.7 119.4 233.9 119.4 C 236.1 119.4 237.6 117.7 237.6 114.9 Z M 250.9 117.4 C 250.9 119.7 248.8 120.8 246.6 120.8 C 244.2 120.8 241.9 119.6 241.7 117.1 C 241.7 117.1 243.3 117.1 243.3 117.1 C 243.6 118.8 245.1 119.4 246.6 119.4 C 248 119.4 249.3 118.9 249.3 117.6 C 249.3 116.3 248 116 246.7 115.8 C 244.5 115.4 242 115 242 112.4 C 242 110.2 243.9 109.1 246.2 109.1 C 248.6 109.1 250.5 110.2 250.6 112.5 C 250.6 112.5 249 112.5 249 112.5 C 248.9 111.1 247.6 110.5 246.2 110.5 C 244.6 110.5 243.6 111.2 243.6 112.3 C 243.6 113.8 244.9 114 246.6 114.3 C 248.7 114.6 250.9 114.9 250.9 117.4 Z M 257 105.9 C 255.8 105.9 255.5 106.5 255.5 107.6 C 255.48 107.56 255.5 109.3 255.5 109.3 L 258 109.3 L 258 110.7 L 255.5 110.7 L 255.5 120.6 L 254 120.6 L 254 110.7 L 252.1 110.7 L 252.1 109.3 L 254 109.3 C 254 109.3 253.95 107.52 254 107.5 C 254 105 255.3 104.6 256.8 104.6 C 256.79 104.58 258.3 104.6 258.3 104.6 L 258.3 105.9 C 258.3 105.9 257.04 105.94 257 105.9 Z M 261.7 107 L 261.7 105.1 L 263.5 105.1 L 263.5 107 L 261.7 107 Z M 265.7 107 L 265.7 105.1 L 267.5 105.1 L 267.5 107 L 265.7 107 Z M 267.2 118.5 C 266.3 120.2 264.6 120.8 263.2 120.8 C 261.3 120.8 259.5 119.7 259.5 117.5 C 259.5 115.4 261 114.4 263 114.2 C 263 114.2 265.6 113.8 265.6 113.8 C 266.5 113.7 267.2 113.4 267.2 112.4 C 267.2 111.1 266 110.4 264.5 110.4 C 262.8 110.4 261.7 111.2 261.5 112.5 C 261.5 112.5 260 112.5 260 112.5 C 260.3 110.2 262.1 109.1 264.6 109.1 C 267.1 109.1 268.7 110.3 268.7 112.8 C 268.69 112.79 268.7 120.6 268.7 120.6 L 267.2 120.6 C 267.2 120.6 267.2 118.52 267.2 118.5 Z M 265.3 115.1 C 265.3 115.1 263.6 115.3 263.6 115.3 C 262.2 115.5 261.1 116 261.1 117.4 C 261.1 118.8 262.2 119.4 263.4 119.4 C 265.2 119.4 267.2 118.1 267.2 115.7 C 267.2 115.7 267.2 114.6 267.2 114.6 C 266.7 114.9 266.1 115 265.3 115.1 Z M 281 112.9 C 281 112.85 281 120.6 281 120.6 L 279.5 120.6 C 279.5 120.6 279.46 113.04 279.5 113 C 279.5 111.5 278.6 110.5 277 110.5 C 275.1 110.5 273.4 111.9 273.4 114.7 C 273.37 114.66 273.4 120.6 273.4 120.6 L 271.8 120.6 L 271.8 104.6 L 273.4 104.6 C 273.4 104.6 273.37 111.28 273.4 111.3 C 274 110 275.2 109.1 277.2 109.1 C 279.5 109.1 281 110.4 281 112.9 Z M 285.9 104.6 L 284.1 104.6 L 284.1 106.5 L 285.9 106.5 L 285.9 104.6 Z M 285.8 120.6 L 284.3 120.6 L 284.3 109.3 L 285.8 109.3 L 285.8 120.6 Z M 298.8 120.1 C 298.8 123.5 296.6 125.2 293.7 125.2 C 291.2 125.2 289 123.9 288.7 121.3 C 288.7 121.3 290.2 121.3 290.2 121.3 C 290.4 122.7 291.5 123.9 293.7 123.9 C 295.8 123.9 297.4 122.8 297.4 120.2 C 297.4 120.2 297.4 117.9 297.4 117.9 C 296.5 119.6 294.9 120.2 293.4 120.2 C 290.6 120.2 288.4 118.3 288.4 114.6 C 288.4 110.9 290.8 109.1 293.5 109.1 C 295.3 109.1 296.6 109.9 297.3 111.1 C 297.34 111.13 297.3 109.3 297.3 109.3 L 298.8 109.3 C 298.8 109.3 298.85 120.08 298.8 120.1 Z M 297.3 114.6 C 297.3 111.8 295.6 110.4 293.7 110.4 C 291.7 110.4 289.9 111.8 289.9 114.6 C 289.9 117.4 291.7 118.8 293.6 118.8 C 295.4 118.8 297.3 117.6 297.3 114.6 Z M 305.7 115.1 L 303.6 117.2 L 303.6 120.6 L 302.1 120.6 L 302.1 104.6 L 303.6 104.6 L 303.6 115.3 L 309.2 109.3 L 311.2 109.3 L 306.7 114 L 311.5 120.6 L 309.6 120.6 L 305.7 115.1 Z M 313.8 115.3 C 313.9 118.1 315.6 119.4 317.6 119.4 C 319.1 119.4 320.6 118.7 320.9 117.1 C 320.9 117.1 322.3 117.1 322.3 117.1 C 321.8 119.7 319.7 120.8 317.5 120.8 C 314.8 120.8 312.3 119 312.3 115 C 312.3 110.9 314.9 109.1 317.6 109.1 C 320.2 109.1 322.4 110.8 322.4 114.6 C 322.43 114.55 322.4 115.3 322.4 115.3 C 322.4 115.3 313.84 115.31 313.8 115.3 Z M 313.9 114 C 313.9 114 320.9 114 320.9 114 C 320.9 111.7 319.4 110.5 317.5 110.5 C 315.8 110.5 314.1 111.6 313.9 114 Z M 326.7 104.6 L 324.9 104.6 L 324.9 106.5 L 326.7 106.5 L 326.7 104.6 Z M 326.6 120.6 L 325.1 120.6 L 325.1 109.3 L 326.6 109.3 L 326.6 120.6 Z M 335.1 120.6 C 335.1 120.6 333.43 120.58 333.4 120.6 C 331.9 120.6 330.6 120.1 330.6 117.6 C 330.6 117.62 330.6 110.7 330.6 110.7 L 328.4 110.7 L 328.4 109.3 L 330.6 109.3 L 330.6 106.1 L 332.1 105.7 L 332.1 109.3 L 334.9 109.3 L 334.9 110.7 L 332.1 110.7 C 332.1 110.7 332.13 117.6 332.1 117.6 C 332.1 118.6 332.4 119.2 333.7 119.2 C 333.69 119.2 335.1 119.2 335.1 119.2 L 335.1 120.6 Z M 341.8 119.2 L 348.9 110.7 L 341.9 110.7 L 341.9 109.3 L 350.8 109.3 L 350.8 110.7 L 343.7 119.2 L 350.8 119.2 L 350.8 120.6 L 341.8 120.6 L 341.8 119.2 Z M 361 120.6 C 361 120.6 361.05 118.44 361 118.4 C 360.3 120 358.9 120.7 357.3 120.7 C 355.2 120.7 353.5 119.4 353.5 116.8 C 353.53 116.76 353.5 109.3 353.5 109.3 L 355.1 109.3 C 355.1 109.3 355.06 116.57 355.1 116.6 C 355.1 118.4 356.1 119.4 357.6 119.4 C 359.4 119.4 361 118 361 115.1 C 360.99 115.14 361 109.3 361 109.3 L 362.5 109.3 L 362.5 120.6 L 361 120.6 Z M 379.5 117.4 C 379.5 119.7 377.4 120.8 375.2 120.8 C 372.7 120.8 370.5 119.6 370.3 117.1 C 370.3 117.1 371.9 117.1 371.9 117.1 C 372.2 118.8 373.6 119.4 375.2 119.4 C 376.6 119.4 377.9 118.9 377.9 117.6 C 377.9 116.3 376.6 116 375.3 115.8 C 373.1 115.4 370.6 115 370.6 112.4 C 370.6 110.2 372.5 109.1 374.8 109.1 C 377.2 109.1 379.1 110.2 379.2 112.5 C 379.2 112.5 377.6 112.5 377.6 112.5 C 377.5 111.1 376.2 110.5 374.7 110.5 C 373.2 110.5 372.2 111.2 372.2 112.3 C 372.2 113.8 373.5 114 375.2 114.3 C 377.3 114.6 379.5 114.9 379.5 117.4 Z M 383.7 104.6 L 381.9 104.6 L 381.9 106.5 L 383.7 106.5 L 383.7 104.6 Z M 383.6 120.6 L 382 120.6 L 382 109.3 L 383.6 109.3 L 383.6 120.6 Z M 391.4 120.8 C 388.3 120.8 386.2 118.5 386.2 115 C 386.2 111.4 388.3 109.1 391.5 109.1 C 394 109.1 396 110.5 396.2 113 C 396.2 113 394.7 113 394.7 113 C 394.5 111.4 393.2 110.5 391.5 110.5 C 389.3 110.5 387.7 112.2 387.7 114.9 C 387.7 117.7 389.3 119.4 391.5 119.4 C 393.2 119.4 394.6 118.4 394.7 116.6 C 394.7 116.6 396.2 116.6 396.2 116.6 C 396 119.3 393.9 120.8 391.4 120.8 Z M 408 112.9 C 407.98 112.85 408 120.6 408 120.6 L 406.4 120.6 C 406.4 120.6 406.45 113.04 406.4 113 C 406.4 111.5 405.6 110.5 404 110.5 C 402 110.5 400.4 111.9 400.4 114.7 C 400.36 114.66 400.4 120.6 400.4 120.6 L 398.8 120.6 L 398.8 104.6 L 400.4 104.6 C 400.4 104.6 400.36 111.28 400.4 111.3 C 401 110 402.2 109.1 404.2 109.1 C 406.5 109.1 408 110.4 408 112.9 Z M 412 115.3 C 412.1 118.1 413.8 119.4 415.8 119.4 C 417.3 119.4 418.7 118.7 419.1 117.1 C 419.1 117.1 420.5 117.1 420.5 117.1 C 420 119.7 417.8 120.8 415.7 120.8 C 413 120.8 410.5 119 410.5 115 C 410.5 110.9 413 109.1 415.8 109.1 C 418.4 109.1 420.6 110.8 420.6 114.6 C 420.6 114.55 420.6 115.3 420.6 115.3 C 420.6 115.3 412.01 115.31 412 115.3 Z M 412.1 114 C 412.1 114 419 114 419 114 C 419 111.7 417.6 110.5 415.7 110.5 C 413.9 110.5 412.3 111.6 412.1 114 Z M 428.9 110.6 C 428.9 110.6 428.5 110.63 428.5 110.6 C 426.1 110.6 424.8 112 424.8 114.6 C 424.76 114.6 424.8 120.6 424.8 120.6 L 423.2 120.6 L 423.2 109.3 L 424.7 109.3 C 424.7 109.3 424.74 111.38 424.7 111.4 C 425.3 109.9 426.6 109.2 428.4 109.2 C 428.37 109.18 428.9 109.2 428.9 109.2 L 428.9 110.6 Z M 440 112.9 C 440.01 112.85 440 120.6 440 120.6 L 438.5 120.6 C 438.5 120.6 438.47 113.04 438.5 113 C 438.5 111.5 437.6 110.5 436 110.5 C 434.1 110.5 432.4 111.9 432.4 114.7 C 432.38 114.66 432.4 120.6 432.4 120.6 L 430.9 120.6 L 430.9 109.3 L 432.4 109.3 C 432.4 109.3 432.38 111.4 432.4 111.4 C 433.1 110.1 434.3 109.1 436.3 109.1 C 438.5 109.1 440 110.4 440 112.9 Z M 442.5 118.4 L 444.7 118.4 L 444.7 120.6 L 442.5 120.6 L 442.5 118.4 Z " stroke="none" fill="#000"/>  </g>  <g id="Polygon11442">    <path d="M 5.2 89.9 L 3.2 92 L 3.2 95.4 L 1.7 95.4 L 1.7 79.4 L 3.2 79.4 L 3.2 90.1 L 8.8 84.1 L 10.7 84.1 L 6.3 88.8 L 11.1 95.4 L 9.2 95.4 L 5.2 89.9 Z M 14.3 81.8 L 14.3 79.9 L 16.1 79.9 L 16.1 81.8 L 14.3 81.8 Z M 18.4 81.8 L 18.4 79.9 L 20.2 79.9 L 20.2 81.8 L 18.4 81.8 Z M 11.9 89.8 C 11.9 86.1 14.1 83.9 17.2 83.9 C 20.3 83.9 22.6 86.1 22.6 89.8 C 22.6 93.4 20.4 95.6 17.3 95.6 C 14.2 95.6 11.9 93.4 11.9 89.8 Z M 21 89.7 C 21 86.9 19.3 85.3 17.2 85.3 C 15 85.3 13.5 87 13.5 89.8 C 13.5 92.6 15.2 94.2 17.3 94.2 C 19.5 94.2 21 92.5 21 89.7 Z M 34.4 87.7 C 34.38 87.65 34.4 95.4 34.4 95.4 L 32.8 95.4 C 32.8 95.4 32.84 87.84 32.8 87.8 C 32.8 86.3 32 85.3 30.4 85.3 C 28.4 85.3 26.8 86.7 26.8 89.5 C 26.75 89.46 26.8 95.4 26.8 95.4 L 25.2 95.4 L 25.2 84.1 L 26.8 84.1 C 26.8 84.1 26.75 86.2 26.8 86.2 C 27.4 84.9 28.7 83.9 30.7 83.9 C 32.9 83.9 34.4 85.2 34.4 87.7 Z M 46.8 87.7 C 46.79 87.65 46.8 95.4 46.8 95.4 L 45.3 95.4 C 45.3 95.4 45.25 87.84 45.3 87.8 C 45.3 86.3 44.4 85.3 42.8 85.3 C 40.8 85.3 39.2 86.7 39.2 89.5 C 39.16 89.46 39.2 95.4 39.2 95.4 L 37.6 95.4 L 37.6 84.1 L 39.2 84.1 C 39.2 84.1 39.16 86.2 39.2 86.2 C 39.8 84.9 41.1 83.9 43.1 83.9 C 45.3 83.9 46.8 85.2 46.8 87.7 Z M 55.2 95.4 C 55.2 95.4 53.53 95.38 53.5 95.4 C 52 95.4 50.7 94.9 50.7 92.4 C 50.69 92.42 50.7 85.5 50.7 85.5 L 48.5 85.5 L 48.5 84.1 L 50.7 84.1 L 50.7 80.9 L 52.2 80.5 L 52.2 84.1 L 55 84.1 L 55 85.5 L 52.2 85.5 C 52.2 85.5 52.23 92.4 52.2 92.4 C 52.2 93.4 52.5 94 53.8 94 C 53.78 94 55.2 94 55.2 94 L 55.2 95.4 Z M 58.2 90.1 C 58.2 92.9 59.9 94.2 61.9 94.2 C 63.4 94.2 64.9 93.5 65.2 91.9 C 65.2 91.9 66.7 91.9 66.7 91.9 C 66.2 94.5 64 95.6 61.8 95.6 C 59.2 95.6 56.7 93.8 56.7 89.8 C 56.7 85.7 59.2 83.9 61.9 83.9 C 64.6 83.9 66.8 85.6 66.8 89.4 C 66.76 89.35 66.8 90.1 66.8 90.1 C 66.8 90.1 58.17 90.11 58.2 90.1 Z M 58.2 88.8 C 58.2 88.8 65.2 88.8 65.2 88.8 C 65.2 86.5 63.7 85.3 61.8 85.3 C 60.1 85.3 58.4 86.4 58.2 88.8 Z M 78.5 87.7 C 78.54 87.65 78.5 95.4 78.5 95.4 L 77 95.4 C 77 95.4 77.01 87.84 77 87.8 C 77 86.3 76.1 85.3 74.5 85.3 C 72.6 85.3 70.9 86.7 70.9 89.5 C 70.92 89.46 70.9 95.4 70.9 95.4 L 69.4 95.4 L 69.4 84.1 L 70.9 84.1 C 70.9 84.1 70.92 86.2 70.9 86.2 C 71.6 84.9 72.8 83.9 74.8 83.9 C 77.1 83.9 78.5 85.2 78.5 87.7 Z M 93.1 85.4 C 93.1 85.4 92.73 85.43 92.7 85.4 C 90.3 85.4 89 86.8 89 89.4 C 89 89.4 89 95.4 89 95.4 L 87.5 95.4 L 87.5 84.1 L 89 84.1 C 89 84.1 88.98 86.18 89 86.2 C 89.5 84.7 90.9 84 92.6 84 C 92.61 83.98 93.1 84 93.1 84 L 93.1 85.4 Z M 95.7 90.1 C 95.7 92.9 97.4 94.2 99.4 94.2 C 100.9 94.2 102.4 93.5 102.7 91.9 C 102.7 91.9 104.2 91.9 104.2 91.9 C 103.7 94.5 101.5 95.6 99.3 95.6 C 96.6 95.6 94.1 93.8 94.1 89.8 C 94.1 85.7 96.7 83.9 99.4 83.9 C 102.1 83.9 104.2 85.6 104.2 89.4 C 104.24 89.35 104.2 90.1 104.2 90.1 C 104.2 90.1 95.65 90.11 95.7 90.1 Z M 95.7 88.8 C 95.7 88.8 102.7 88.8 102.7 88.8 C 102.7 86.5 101.2 85.3 99.3 85.3 C 97.6 85.3 95.9 86.4 95.7 88.8 Z M 116.6 94.9 C 116.6 98.3 114.4 100 111.5 100 C 109 100 106.7 98.7 106.4 96.1 C 106.4 96.1 107.9 96.1 107.9 96.1 C 108.2 97.5 109.2 98.7 111.5 98.7 C 113.5 98.7 115.1 97.6 115.1 95 C 115.1 95 115.1 92.7 115.1 92.7 C 114.3 94.4 112.6 95 111.1 95 C 108.4 95 106.1 93.1 106.1 89.4 C 106.1 85.7 108.5 83.9 111.2 83.9 C 113 83.9 114.4 84.7 115.1 85.9 C 115.06 85.93 115.1 84.1 115.1 84.1 L 116.6 84.1 C 116.6 84.1 116.57 94.88 116.6 94.9 Z M 115 89.4 C 115 86.6 113.3 85.2 111.4 85.2 C 109.5 85.2 107.6 86.6 107.6 89.4 C 107.6 92.2 109.4 93.6 111.4 93.6 C 113.2 93.6 115 92.4 115 89.4 Z M 127.2 95.4 C 127.2 95.4 127.24 93.24 127.2 93.2 C 126.5 94.8 125.1 95.5 123.5 95.5 C 121.4 95.5 119.7 94.2 119.7 91.6 C 119.72 91.56 119.7 84.1 119.7 84.1 L 121.3 84.1 C 121.3 84.1 121.25 91.37 121.3 91.4 C 121.3 93.2 122.3 94.2 123.8 94.2 C 125.6 94.2 127.2 92.8 127.2 89.9 C 127.17 89.94 127.2 84.1 127.2 84.1 L 128.7 84.1 L 128.7 95.4 L 127.2 95.4 Z M 133.6 95.4 L 132.1 95.4 L 132.1 79.4 L 133.6 79.4 L 133.6 95.4 Z M 143.9 93.3 C 143 95 141.3 95.6 139.9 95.6 C 137.9 95.6 136.2 94.5 136.2 92.3 C 136.2 90.2 137.7 89.2 139.6 89 C 139.6 89 142.3 88.6 142.3 88.6 C 143.2 88.5 143.9 88.2 143.9 87.2 C 143.9 85.9 142.7 85.2 141.2 85.2 C 139.5 85.2 138.4 86 138.2 87.3 C 138.2 87.3 136.7 87.3 136.7 87.3 C 137 85 138.8 83.9 141.3 83.9 C 143.8 83.9 145.4 85.1 145.4 87.6 C 145.38 87.59 145.4 95.4 145.4 95.4 L 143.9 95.4 C 143.9 95.4 143.89 93.32 143.9 93.3 Z M 142 89.9 C 142 89.9 140.3 90.1 140.3 90.1 C 138.9 90.3 137.8 90.8 137.8 92.2 C 137.8 93.6 138.9 94.2 140.1 94.2 C 141.9 94.2 143.8 92.9 143.8 90.5 C 143.8 90.5 143.8 89.4 143.8 89.4 C 143.4 89.7 142.8 89.8 142 89.9 Z M 153.7 95.4 C 153.7 95.4 152.02 95.38 152 95.4 C 150.5 95.4 149.2 94.9 149.2 92.4 C 149.18 92.42 149.2 85.5 149.2 85.5 L 147 85.5 L 147 84.1 L 149.2 84.1 L 149.2 80.9 L 150.7 80.5 L 150.7 84.1 L 153.4 84.1 L 153.4 85.5 L 150.7 85.5 C 150.7 85.5 150.71 92.4 150.7 92.4 C 150.7 93.4 151 94 152.3 94 C 152.27 94 153.7 94 153.7 94 L 153.7 95.4 Z M 155.1 89.8 C 155.1 86.1 157.4 83.9 160.5 83.9 C 163.6 83.9 165.8 86.1 165.8 89.8 C 165.8 93.4 163.6 95.6 160.5 95.6 C 157.4 95.6 155.1 93.4 155.1 89.8 Z M 164.3 89.7 C 164.3 86.9 162.6 85.3 160.5 85.3 C 158.3 85.3 156.7 87 156.7 89.8 C 156.7 92.6 158.4 94.2 160.5 94.2 C 162.7 94.2 164.3 92.5 164.3 89.7 Z M 174.1 85.4 C 174.1 85.4 173.73 85.43 173.7 85.4 C 171.3 85.4 170 86.8 170 89.4 C 169.99 89.4 170 95.4 170 95.4 L 168.5 95.4 L 168.5 84.1 L 170 84.1 C 170 84.1 169.97 86.18 170 86.2 C 170.5 84.7 171.9 84 173.6 84 C 173.6 83.98 174.1 84 174.1 84 L 174.1 85.4 Z M 177.7 79.4 L 176 79.4 L 176 81.3 L 177.7 81.3 L 177.7 79.4 Z M 177.6 95.4 L 176.1 95.4 L 176.1 84.1 L 177.6 84.1 L 177.6 95.4 Z M 189.4 92.2 C 189.4 94.5 187.3 95.6 185 95.6 C 182.6 95.6 180.4 94.4 180.1 91.9 C 180.1 91.9 181.8 91.9 181.8 91.9 C 182 93.6 183.5 94.2 185 94.2 C 186.5 94.2 187.8 93.7 187.8 92.4 C 187.8 91.1 186.5 90.8 185.1 90.6 C 183 90.2 180.4 89.8 180.4 87.2 C 180.4 85 182.3 83.9 184.6 83.9 C 187 83.9 188.9 85 189.1 87.3 C 189.1 87.3 187.5 87.3 187.5 87.3 C 187.4 85.9 186.1 85.3 184.6 85.3 C 183.1 85.3 182 86 182 87.1 C 182 88.6 183.4 88.8 185.1 89.1 C 187.1 89.4 189.4 89.7 189.4 92.2 Z M 196.4 95.6 C 193.3 95.6 191.1 93.3 191.1 89.8 C 191.1 86.2 193.2 83.9 196.5 83.9 C 199 83.9 201 85.3 201.2 87.8 C 201.2 87.8 199.7 87.8 199.7 87.8 C 199.5 86.2 198.1 85.3 196.5 85.3 C 194.3 85.3 192.7 87 192.7 89.7 C 192.7 92.5 194.2 94.2 196.5 94.2 C 198.2 94.2 199.5 93.2 199.6 91.4 C 199.6 91.4 201.2 91.4 201.2 91.4 C 201 94.1 198.9 95.6 196.4 95.6 Z M 212.9 87.7 C 212.94 87.65 212.9 95.4 212.9 95.4 L 211.4 95.4 C 211.4 95.4 211.4 87.84 211.4 87.8 C 211.4 86.3 210.5 85.3 208.9 85.3 C 207 85.3 205.3 86.7 205.3 89.5 C 205.31 89.46 205.3 95.4 205.3 95.4 L 203.8 95.4 L 203.8 79.4 L 205.3 79.4 C 205.3 79.4 205.31 86.08 205.3 86.1 C 206 84.8 207.2 83.9 209.2 83.9 C 211.5 83.9 212.9 85.2 212.9 87.7 Z M 217 90.1 C 217 92.9 218.7 94.2 220.7 94.2 C 222.2 94.2 223.7 93.5 224 91.9 C 224 91.9 225.5 91.9 225.5 91.9 C 225 94.5 222.8 95.6 220.6 95.6 C 218 95.6 215.5 93.8 215.5 89.8 C 215.5 85.7 218 83.9 220.7 83.9 C 223.4 83.9 225.6 85.6 225.6 89.4 C 225.56 89.35 225.6 90.1 225.6 90.1 C 225.6 90.1 216.97 90.11 217 90.1 Z M 217 88.8 C 217 88.8 224 88.8 224 88.8 C 224 86.5 222.5 85.3 220.6 85.3 C 218.9 85.3 217.2 86.4 217 88.8 Z M 243 90.9 L 235.5 90.9 L 233.8 95.4 L 232.1 95.4 L 238.4 79.6 L 240.1 79.6 L 246.6 95.4 L 244.8 95.4 L 243 90.9 Z M 239.2 81.4 L 236.1 89.5 L 242.5 89.5 L 239.2 81.4 Z M 256 95.4 C 256 95.4 256.03 93.24 256 93.2 C 255.3 94.8 253.9 95.5 252.3 95.5 C 250.1 95.5 248.5 94.2 248.5 91.6 C 248.51 91.56 248.5 84.1 248.5 84.1 L 250 84.1 C 250 84.1 250.04 91.37 250 91.4 C 250 93.2 251.1 94.2 252.5 94.2 C 254.3 94.2 256 92.8 256 89.9 C 255.97 89.94 256 84.1 256 84.1 L 257.5 84.1 L 257.5 95.4 L 256 95.4 Z M 264.4 80.7 C 263.2 80.7 262.9 81.3 262.9 82.4 C 262.9 82.36 262.9 84.1 262.9 84.1 L 265.4 84.1 L 265.4 85.5 L 262.9 85.5 L 262.9 95.4 L 261.4 95.4 L 261.4 85.5 L 259.5 85.5 L 259.5 84.1 L 261.4 84.1 C 261.4 84.1 261.36 82.32 261.4 82.3 C 261.4 79.8 262.7 79.4 264.2 79.4 C 264.2 79.38 265.7 79.4 265.7 79.4 L 265.7 80.7 C 265.7 80.7 264.45 80.74 264.4 80.7 Z M 269.2 95.4 L 267.7 95.4 L 267.7 79.4 L 269.2 79.4 L 269.2 95.4 Z M 279.5 93.3 C 278.6 95 276.9 95.6 275.5 95.6 C 273.6 95.6 271.8 94.5 271.8 92.3 C 271.8 90.2 273.3 89.2 275.3 89 C 275.3 89 277.9 88.6 277.9 88.6 C 278.8 88.5 279.5 88.2 279.5 87.2 C 279.5 85.9 278.4 85.2 276.8 85.2 C 275.1 85.2 274 86 273.8 87.3 C 273.8 87.3 272.3 87.3 272.3 87.3 C 272.6 85 274.4 83.9 276.9 83.9 C 279.4 83.9 281 85.1 281 87.6 C 281 87.59 281 95.4 281 95.4 L 279.5 95.4 C 279.5 95.4 279.51 93.32 279.5 93.3 Z M 277.6 89.9 C 277.6 89.9 275.9 90.1 275.9 90.1 C 274.5 90.3 273.4 90.8 273.4 92.2 C 273.4 93.6 274.5 94.2 275.7 94.2 C 277.5 94.2 279.5 92.9 279.5 90.5 C 279.5 90.5 279.5 89.4 279.5 89.4 C 279 89.7 278.4 89.8 277.6 89.9 Z M 293.8 94.9 C 293.8 98.3 291.6 100 288.7 100 C 286.2 100 284 98.7 283.7 96.1 C 283.7 96.1 285.2 96.1 285.2 96.1 C 285.4 97.5 286.5 98.7 288.7 98.7 C 290.8 98.7 292.4 97.6 292.4 95 C 292.4 95 292.4 92.7 292.4 92.7 C 291.5 94.4 289.9 95 288.4 95 C 285.6 95 283.4 93.1 283.4 89.4 C 283.4 85.7 285.8 83.9 288.5 83.9 C 290.3 83.9 291.6 84.7 292.3 85.9 C 292.34 85.93 292.3 84.1 292.3 84.1 L 293.8 84.1 C 293.8 84.1 293.85 94.88 293.8 94.9 Z M 292.3 89.4 C 292.3 86.6 290.6 85.2 288.7 85.2 C 286.7 85.2 284.9 86.6 284.9 89.4 C 284.9 92.2 286.7 93.6 288.6 93.6 C 290.4 93.6 292.3 92.4 292.3 89.4 Z M 297.9 90.1 C 297.9 92.9 299.6 94.2 301.6 94.2 C 303.1 94.2 304.6 93.5 304.9 91.9 C 304.9 91.9 306.4 91.9 306.4 91.9 C 305.9 94.5 303.7 95.6 301.6 95.6 C 298.9 95.6 296.4 93.8 296.4 89.8 C 296.4 85.7 298.9 83.9 301.6 83.9 C 304.3 83.9 306.5 85.6 306.5 89.4 C 306.47 89.35 306.5 90.1 306.5 90.1 C 306.5 90.1 297.88 90.11 297.9 90.1 Z M 297.9 88.8 C 297.9 88.8 304.9 88.8 304.9 88.8 C 304.9 86.5 303.4 85.3 301.6 85.3 C 299.8 85.3 298.1 86.4 297.9 88.8 Z M 318.3 87.7 C 318.25 87.65 318.3 95.4 318.3 95.4 L 316.7 95.4 C 316.7 95.4 316.72 87.84 316.7 87.8 C 316.7 86.3 315.8 85.3 314.2 85.3 C 312.3 85.3 310.6 86.7 310.6 89.5 C 310.63 89.46 310.6 95.4 310.6 95.4 L 309.1 95.4 L 309.1 84.1 L 310.6 84.1 C 310.6 84.1 310.63 86.2 310.6 86.2 C 311.3 84.9 312.6 83.9 314.5 83.9 C 316.8 83.9 318.3 85.2 318.3 87.7 Z M 327.5 90.1 C 327.6 92.9 329.3 94.2 331.3 94.2 C 332.8 94.2 334.3 93.5 334.6 91.9 C 334.6 91.9 336 91.9 336 91.9 C 335.5 94.5 333.3 95.6 331.2 95.6 C 328.5 95.6 326 93.8 326 89.8 C 326 85.7 328.6 83.9 331.3 83.9 C 333.9 83.9 336.1 85.6 336.1 89.4 C 336.12 89.35 336.1 90.1 336.1 90.1 C 336.1 90.1 327.53 90.11 327.5 90.1 Z M 327.6 88.8 C 327.6 88.8 334.6 88.8 334.6 88.8 C 334.6 86.5 333.1 85.3 331.2 85.3 C 329.4 85.3 327.8 86.4 327.6 88.8 Z M 344.4 85.4 C 344.4 85.4 344.02 85.43 344 85.4 C 341.6 85.4 340.3 86.8 340.3 89.4 C 340.28 89.4 340.3 95.4 340.3 95.4 L 338.7 95.4 L 338.7 84.1 L 340.3 84.1 C 340.3 84.1 340.26 86.18 340.3 86.2 C 340.8 84.7 342.1 84 343.9 84 C 343.89 83.98 344.4 84 344.4 84 L 344.4 85.4 Z M 355.5 87.7 C 355.53 87.65 355.5 95.4 355.5 95.4 L 354 95.4 C 354 95.4 353.99 87.84 354 87.8 C 354 86.3 353.1 85.3 351.5 85.3 C 349.6 85.3 347.9 86.7 347.9 89.5 C 347.9 89.46 347.9 95.4 347.9 95.4 L 346.4 95.4 L 346.4 79.4 L 347.9 79.4 C 347.9 79.4 347.9 86.08 347.9 86.1 C 348.6 84.8 349.8 83.9 351.8 83.9 C 354.1 83.9 355.5 85.2 355.5 87.7 Z M 365.7 93.3 C 364.8 95 363.1 95.6 361.7 95.6 C 359.8 95.6 358 94.5 358 92.3 C 358 90.2 359.5 89.2 361.5 89 C 361.5 89 364.1 88.6 364.1 88.6 C 365 88.5 365.7 88.2 365.7 87.2 C 365.7 85.9 364.6 85.2 363 85.2 C 361.3 85.2 360.2 86 360 87.3 C 360 87.3 358.5 87.3 358.5 87.3 C 358.8 85 360.6 83.9 363.1 83.9 C 365.6 83.9 367.2 85.1 367.2 87.6 C 367.2 87.59 367.2 95.4 367.2 95.4 L 365.7 95.4 C 365.7 95.4 365.71 93.32 365.7 93.3 Z M 363.8 89.9 C 363.8 89.9 362.1 90.1 362.1 90.1 C 360.7 90.3 359.6 90.8 359.6 92.2 C 359.6 93.6 360.7 94.2 362 94.2 C 363.7 94.2 365.7 92.9 365.7 90.5 C 365.7 90.5 365.7 89.4 365.7 89.4 C 365.2 89.7 364.6 89.8 363.8 89.9 Z M 371.9 95.4 L 370.4 95.4 L 370.4 79.4 L 371.9 79.4 L 371.9 95.4 Z M 380.4 95.4 C 380.4 95.4 378.73 95.38 378.7 95.4 C 377.2 95.4 375.9 94.9 375.9 92.4 C 375.89 92.42 375.9 85.5 375.9 85.5 L 373.7 85.5 L 373.7 84.1 L 375.9 84.1 L 375.9 80.9 L 377.4 80.5 L 377.4 84.1 L 380.2 84.1 L 380.2 85.5 L 377.4 85.5 C 377.4 85.5 377.43 92.4 377.4 92.4 C 377.4 93.4 377.7 94 379 94 C 378.98 94 380.4 94 380.4 94 L 380.4 95.4 Z M 383.4 90.1 C 383.4 92.9 385.1 94.2 387.1 94.2 C 388.6 94.2 390.1 93.5 390.4 91.9 C 390.4 91.9 391.9 91.9 391.9 91.9 C 391.4 94.5 389.2 95.6 387 95.6 C 384.4 95.6 381.9 93.8 381.9 89.8 C 381.9 85.7 384.4 83.9 387.1 83.9 C 389.8 83.9 392 85.6 392 89.4 C 391.96 89.35 392 90.1 392 90.1 C 392 90.1 383.37 90.11 383.4 90.1 Z M 383.4 88.8 C 383.4 88.8 390.4 88.8 390.4 88.8 C 390.4 86.5 388.9 85.3 387 85.3 C 385.3 85.3 383.6 86.4 383.4 88.8 Z M 403.7 87.7 C 403.74 87.65 403.7 95.4 403.7 95.4 L 402.2 95.4 C 402.2 95.4 402.21 87.84 402.2 87.8 C 402.2 86.3 401.3 85.3 399.7 85.3 C 397.8 85.3 396.1 86.7 396.1 89.5 C 396.12 89.46 396.1 95.4 396.1 95.4 L 394.6 95.4 L 394.6 84.1 L 396.1 84.1 C 396.1 84.1 396.12 86.2 396.1 86.2 C 396.8 84.9 398 83.9 400 83.9 C 402.3 83.9 403.7 85.2 403.7 87.7 Z M 408.1 95.3 C 408.09 95.26 407.1 95.3 407.1 95.3 L 407.1 93.2 L 409.3 93.2 C 409.3 93.2 409.31 95.32 409.3 95.3 C 409.3 97.8 407.8 98.7 406.3 98.8 C 406.3 98.8 406.1 97.9 406.1 97.9 C 407.8 97.6 408.1 96.6 408.1 95.3 Z M 424.4 95.4 C 424.4 95.4 424.38 93.24 424.4 93.2 C 423.6 94.8 422.2 95.5 420.6 95.5 C 418.5 95.5 416.9 94.2 416.9 91.6 C 416.86 91.56 416.9 84.1 416.9 84.1 L 418.4 84.1 C 418.4 84.1 418.4 91.37 418.4 91.4 C 418.4 93.2 419.4 94.2 420.9 94.2 C 422.7 94.2 424.3 92.8 424.3 89.9 C 424.32 89.94 424.3 84.1 424.3 84.1 L 425.9 84.1 L 425.9 95.4 L 424.4 95.4 Z M 429.2 84.1 L 430.7 84.1 C 430.7 84.1 430.72 85.97 430.7 86 C 431.3 84.6 432.6 83.9 434 83.9 C 435.7 83.9 437 84.8 437.3 86.2 C 437.8 85 439.1 83.9 441 83.9 C 443.1 83.9 444.7 85 444.7 87.3 C 444.69 87.3 444.7 95.4 444.7 95.4 L 443.2 95.4 C 443.2 95.4 443.16 87.84 443.2 87.8 C 443.2 86.1 442.1 85.3 440.8 85.3 C 439.1 85.3 437.7 86.6 437.7 88.9 C 437.7 88.93 437.7 95.4 437.7 95.4 L 436.2 95.4 C 436.2 95.4 436.18 87.84 436.2 87.8 C 436.2 86.1 435.2 85.3 433.8 85.3 C 432.2 85.3 430.7 86.5 430.7 88.9 C 430.75 88.93 430.7 95.4 430.7 95.4 L 429.2 95.4 L 429.2 84.1 Z " stroke="none" fill="#000"/>  </g>  <g id="Polygon11441">    <path d="M 13 65.7 C 13 67.9 11.2 70.2 7.9 70.2 C 7.85 70.2 1.9 70.2 1.9 70.2 L 1.9 54.4 C 1.9 54.4 8.13 54.43 8.1 54.4 C 10.9 54.4 12.3 56.2 12.3 58 C 12.3 59.5 11.5 61 10 61.7 C 12 62.4 13 64 13 65.7 Z M 7.4 61.2 C 9.6 61.2 10.7 59.7 10.7 58.3 C 10.7 57.1 9.8 55.8 7.8 55.8 C 7.83 55.84 3.5 55.8 3.5 55.8 L 3.5 61.2 C 3.5 61.2 7.41 61.15 7.4 61.2 Z M 11.3 65.6 C 11.3 64 10.2 62.6 8 62.6 C 8.02 62.56 3.5 62.6 3.5 62.6 L 3.5 68.7 C 3.5 68.7 7.85 68.73 7.9 68.7 C 10.2 68.7 11.3 67.2 11.3 65.6 Z M 21.3 60.2 C 21.3 60.2 20.96 60.23 21 60.2 C 18.6 60.2 17.2 61.6 17.2 64.2 C 17.22 64.2 17.2 70.2 17.2 70.2 L 15.7 70.2 L 15.7 58.9 L 17.2 58.9 C 17.2 58.9 17.2 60.98 17.2 61 C 17.7 59.5 19.1 58.8 20.8 58.8 C 20.83 58.78 21.3 58.8 21.3 58.8 L 21.3 60.2 Z M 30.2 68.1 C 29.4 69.8 27.7 70.4 26.2 70.4 C 24.3 70.4 22.6 69.3 22.6 67.1 C 22.6 65 24.1 64 26 63.8 C 26 63.8 28.7 63.4 28.7 63.4 C 29.5 63.3 30.2 63 30.2 62 C 30.2 60.7 29.1 60 27.5 60 C 25.8 60 24.8 60.8 24.5 62.1 C 24.5 62.1 23 62.1 23 62.1 C 23.3 59.8 25.1 58.7 27.6 58.7 C 30.2 58.7 31.7 59.9 31.7 62.4 C 31.73 62.39 31.7 70.2 31.7 70.2 L 30.2 70.2 C 30.2 70.2 30.24 68.12 30.2 68.1 Z M 28.4 64.7 C 28.4 64.7 26.6 64.9 26.6 64.9 C 25.2 65.1 24.1 65.6 24.1 67 C 24.1 68.4 25.2 69 26.5 69 C 28.2 69 30.2 67.7 30.2 65.3 C 30.2 65.3 30.2 64.2 30.2 64.2 C 29.8 64.5 29.1 64.6 28.4 64.7 Z M 44 62.5 C 44.04 62.45 44 70.2 44 70.2 L 42.5 70.2 C 42.5 70.2 42.5 62.64 42.5 62.6 C 42.5 61.1 41.6 60.1 40 60.1 C 38.1 60.1 36.4 61.5 36.4 64.3 C 36.41 64.26 36.4 70.2 36.4 70.2 L 34.9 70.2 L 34.9 58.9 L 36.4 58.9 C 36.4 58.9 36.41 61 36.4 61 C 37.1 59.7 38.3 58.7 40.3 58.7 C 42.6 58.7 44 60 44 62.5 Z M 51.8 70.4 C 48.7 70.4 46.6 68.1 46.6 64.6 C 46.6 61 48.7 58.7 51.9 58.7 C 54.4 58.7 56.4 60.1 56.6 62.6 C 56.6 62.6 55.1 62.6 55.1 62.6 C 54.9 61 53.5 60.1 51.9 60.1 C 49.7 60.1 48.1 61.8 48.1 64.5 C 48.1 67.3 49.7 69 51.9 69 C 53.6 69 54.9 68 55.1 66.2 C 55.1 66.2 56.6 66.2 56.6 66.2 C 56.4 68.9 54.3 70.4 51.8 70.4 Z M 68.4 62.5 C 68.35 62.45 68.4 70.2 68.4 70.2 L 66.8 70.2 C 66.8 70.2 66.82 62.64 66.8 62.6 C 66.8 61.1 65.9 60.1 64.3 60.1 C 62.4 60.1 60.7 61.5 60.7 64.3 C 60.73 64.26 60.7 70.2 60.7 70.2 L 59.2 70.2 L 59.2 54.2 L 60.7 54.2 C 60.7 54.2 60.73 60.88 60.7 60.9 C 61.4 59.6 62.6 58.7 64.6 58.7 C 66.9 58.7 68.4 60 68.4 62.5 Z M 72.4 64.9 C 72.4 67.7 74.1 69 76.1 69 C 77.6 69 79.1 68.3 79.4 66.7 C 79.4 66.7 80.9 66.7 80.9 66.7 C 80.4 69.3 78.2 70.4 76.1 70.4 C 73.4 70.4 70.9 68.6 70.9 64.6 C 70.9 60.5 73.4 58.7 76.1 58.7 C 78.8 58.7 81 60.4 81 64.2 C 80.97 64.15 81 64.9 81 64.9 C 81 64.9 72.39 64.91 72.4 64.9 Z M 72.4 63.6 C 72.4 63.6 79.4 63.6 79.4 63.6 C 79.4 61.3 78 60.1 76.1 60.1 C 74.3 60.1 72.6 61.2 72.4 63.6 Z M 92.8 62.5 C 92.76 62.45 92.8 70.2 92.8 70.2 L 91.2 70.2 C 91.2 70.2 91.22 62.64 91.2 62.6 C 91.2 61.1 90.3 60.1 88.7 60.1 C 86.8 60.1 85.1 61.5 85.1 64.3 C 85.13 64.26 85.1 70.2 85.1 70.2 L 83.6 70.2 L 83.6 58.9 L 85.1 58.9 C 85.1 58.9 85.13 61 85.1 61 C 85.8 59.7 87.1 58.7 89 58.7 C 91.3 58.7 92.8 60 92.8 62.5 Z M 97.1 70.1 C 97.1 70.06 96.1 70.1 96.1 70.1 L 96.1 68 L 98.3 68 C 98.3 68 98.32 70.12 98.3 70.1 C 98.3 72.6 96.9 73.5 95.3 73.6 C 95.3 73.6 95.1 72.7 95.1 72.7 C 96.8 72.4 97.1 71.4 97.1 70.1 Z M 115.4 70.2 L 113.9 70.2 C 113.9 70.2 113.9 68 113.9 68 C 113.4 69.3 112 70.4 109.9 70.4 C 106.9 70.4 104.8 68.1 104.8 64.5 C 104.8 61 106.9 58.7 109.9 58.7 C 111.8 58.7 113.2 59.6 113.8 60.8 C 113.84 60.82 113.8 54.2 113.8 54.2 L 115.4 54.2 L 115.4 70.2 Z M 113.8 64.5 C 113.8 61.7 112.3 60.1 110.1 60.1 C 107.9 60.1 106.4 61.8 106.4 64.5 C 106.4 67.3 107.9 69 110.1 69 C 112.3 69 113.8 67.3 113.8 64.5 Z M 120.4 54.2 L 118.6 54.2 L 118.6 56.1 L 120.4 56.1 L 120.4 54.2 Z M 120.3 70.2 L 118.7 70.2 L 118.7 58.9 L 120.3 58.9 L 120.3 70.2 Z M 124.4 64.9 C 124.4 67.7 126.2 69 128.2 69 C 129.7 69 131.1 68.3 131.5 66.7 C 131.5 66.7 132.9 66.7 132.9 66.7 C 132.4 69.3 130.2 70.4 128.1 70.4 C 125.4 70.4 122.9 68.6 122.9 64.6 C 122.9 60.5 125.4 58.7 128.1 58.7 C 130.8 58.7 133 60.4 133 64.2 C 132.99 64.15 133 64.9 133 64.9 C 133 64.9 124.4 64.91 124.4 64.9 Z M 124.4 63.6 C 124.4 63.6 131.4 63.6 131.4 63.6 C 131.4 61.3 130 60.1 128.1 60.1 C 126.3 60.1 124.7 61.2 124.4 63.6 Z M 150.9 70.2 L 140.2 70.2 L 140.2 68.7 C 140.2 68.7 144.16 65.16 144.2 65.2 C 146.9 62.7 148.7 61.2 148.7 58.9 C 148.7 57 147.3 55.9 145.4 55.9 C 143.5 55.9 141.9 57 141.7 59.5 C 141.7 59.5 140.1 59.5 140.1 59.5 C 140.2 56.1 142.7 54.4 145.5 54.4 C 148.2 54.4 150.4 56 150.4 58.8 C 150.4 61.4 148.7 63 145.8 65.6 C 145.8 65.56 142.3 68.8 142.3 68.8 L 150.9 68.8 L 150.9 70.2 Z M 153 62.5 C 153 57.6 154.5 54.4 158.1 54.4 C 161.7 54.4 163.2 57.6 163.2 62.4 C 163.2 67.3 161.6 70.4 158.1 70.4 C 154.5 70.4 153 67.3 153 62.5 Z M 161.6 62.5 C 161.7 58.9 160.6 55.9 158 55.9 C 155.6 55.9 154.5 58.5 154.5 62.3 C 154.5 66.2 155.6 68.9 158.1 68.9 C 160.6 68.9 161.6 66.3 161.6 62.5 Z M 176.1 70.2 L 165.4 70.2 L 165.4 68.7 C 165.4 68.7 169.36 65.16 169.4 65.2 C 172.1 62.7 173.9 61.2 173.9 58.9 C 173.9 57 172.5 55.9 170.6 55.9 C 168.7 55.9 167.1 57 166.9 59.5 C 166.9 59.5 165.3 59.5 165.3 59.5 C 165.4 56.1 167.9 54.4 170.7 54.4 C 173.4 54.4 175.6 56 175.6 58.8 C 175.6 61.4 173.9 63 171 65.6 C 171 65.56 167.5 68.8 167.5 68.8 L 176.1 68.8 L 176.1 70.2 Z M 178.2 62.5 C 178.2 57.6 179.7 54.4 183.3 54.4 C 186.9 54.4 188.4 57.6 188.4 62.4 C 188.4 67.3 186.8 70.4 183.3 70.4 C 179.7 70.4 178.2 67.3 178.2 62.5 Z M 186.8 62.5 C 186.9 58.9 185.8 55.9 183.2 55.9 C 180.8 55.9 179.7 58.5 179.7 62.3 C 179.7 66.2 180.8 68.9 183.3 68.9 C 185.8 68.9 186.8 66.3 186.8 62.5 Z M 208.7 54.4 C 208.7 54.4 208.67 64.68 208.7 64.7 C 208.7 68.6 206.2 70.6 202.7 70.6 C 199.3 70.6 196.7 68.6 196.7 64.7 C 196.73 64.68 196.7 54.4 196.7 54.4 L 198.3 54.4 C 198.3 54.4 198.32 64.53 198.3 64.5 C 198.3 67.7 200.3 69.1 202.8 69.1 C 205.2 69.1 207.1 67.8 207.1 64.8 C 207.12 64.81 207.1 54.4 207.1 54.4 L 208.7 54.4 Z M 221.2 62.5 C 221.19 62.45 221.2 70.2 221.2 70.2 L 219.7 70.2 C 219.7 70.2 219.66 62.64 219.7 62.6 C 219.7 61.1 218.8 60.1 217.2 60.1 C 215.2 60.1 213.6 61.5 213.6 64.3 C 213.57 64.26 213.6 70.2 213.6 70.2 L 212 70.2 L 212 58.9 L 213.6 58.9 C 213.6 58.9 213.57 61 213.6 61 C 214.2 59.7 215.5 58.7 217.5 58.7 C 219.7 58.7 221.2 60 221.2 62.5 Z M 229.6 70.2 C 229.6 70.2 227.93 70.18 227.9 70.2 C 226.4 70.2 225.1 69.7 225.1 67.2 C 225.1 67.22 225.1 60.3 225.1 60.3 L 222.9 60.3 L 222.9 58.9 L 225.1 58.9 L 225.1 55.7 L 226.6 55.3 L 226.6 58.9 L 229.4 58.9 L 229.4 60.3 L 226.6 60.3 C 226.6 60.3 226.63 67.2 226.6 67.2 C 226.6 68.2 226.9 68.8 228.2 68.8 C 228.18 68.8 229.6 68.8 229.6 68.8 L 229.6 70.2 Z M 232.6 64.9 C 232.6 67.7 234.3 69 236.3 69 C 237.8 69 239.3 68.3 239.6 66.7 C 239.6 66.7 241.1 66.7 241.1 66.7 C 240.6 69.3 238.4 70.4 236.2 70.4 C 233.6 70.4 231.1 68.6 231.1 64.6 C 231.1 60.5 233.6 58.7 236.3 58.7 C 239 58.7 241.2 60.4 241.2 64.2 C 241.16 64.15 241.2 64.9 241.2 64.9 C 241.2 64.9 232.57 64.91 232.6 64.9 Z M 232.6 63.6 C 232.6 63.6 239.6 63.6 239.6 63.6 C 239.6 61.3 238.1 60.1 236.2 60.1 C 234.5 60.1 232.8 61.2 232.6 63.6 Z M 249.4 60.2 C 249.4 60.2 249.06 60.23 249.1 60.2 C 246.7 60.2 245.3 61.6 245.3 64.2 C 245.32 64.2 245.3 70.2 245.3 70.2 L 243.8 70.2 L 243.8 58.9 L 245.3 58.9 C 245.3 58.9 245.3 60.98 245.3 61 C 245.8 59.5 247.2 58.8 248.9 58.8 C 248.93 58.78 249.4 58.8 249.4 58.8 L 249.4 60.2 Z M 259.8 67 C 259.8 69.3 257.7 70.4 255.4 70.4 C 253 70.4 250.8 69.2 250.6 66.7 C 250.6 66.7 252.2 66.7 252.2 66.7 C 252.5 68.4 253.9 69 255.5 69 C 256.9 69 258.2 68.5 258.2 67.2 C 258.2 65.9 256.9 65.6 255.6 65.4 C 253.4 65 250.8 64.6 250.8 62 C 250.8 59.8 252.8 58.7 255.1 58.7 C 257.5 58.7 259.4 59.8 259.5 62.1 C 259.5 62.1 257.9 62.1 257.9 62.1 C 257.8 60.7 256.5 60.1 255 60.1 C 253.5 60.1 252.4 60.8 252.4 61.9 C 252.4 63.4 253.8 63.6 255.5 63.9 C 257.5 64.2 259.8 64.5 259.8 67 Z M 267.5 70.2 C 267.5 70.2 265.79 70.18 265.8 70.2 C 264.3 70.2 263 69.7 263 67.2 C 262.96 67.22 263 60.3 263 60.3 L 260.7 60.3 L 260.7 58.9 L 263 58.9 L 263 55.7 L 264.5 55.3 L 264.5 58.9 L 267.2 58.9 L 267.2 60.3 L 264.5 60.3 C 264.5 60.3 264.49 67.2 264.5 67.2 C 264.5 68.2 264.8 68.8 266 68.8 C 266.05 68.8 267.5 68.8 267.5 68.8 L 267.5 70.2 Z M 271.2 56.6 L 271.2 54.7 L 273 54.7 L 273 56.6 L 271.2 56.6 Z M 275.2 56.6 L 275.2 54.7 L 277 54.7 L 277 56.6 L 275.2 56.6 Z M 277.1 70.2 C 277.1 70.2 277.07 68.04 277.1 68 C 276.3 69.6 274.9 70.3 273.3 70.3 C 271.2 70.3 269.6 69 269.6 66.4 C 269.55 66.36 269.6 58.9 269.6 58.9 L 271.1 58.9 C 271.1 58.9 271.09 66.17 271.1 66.2 C 271.1 68 272.1 69 273.6 69 C 275.4 69 277 67.6 277 64.7 C 277.01 64.74 277 58.9 277 58.9 L 278.5 58.9 L 278.5 70.2 L 277.1 70.2 Z M 287 70.2 C 287 70.2 285.39 70.18 285.4 70.2 C 283.9 70.2 282.6 69.7 282.6 67.2 C 282.55 67.22 282.6 60.3 282.6 60.3 L 280.3 60.3 L 280.3 58.9 L 282.6 58.9 L 282.6 55.7 L 284.1 55.3 L 284.1 58.9 L 286.8 58.9 L 286.8 60.3 L 284.1 60.3 C 284.1 60.3 284.08 67.2 284.1 67.2 C 284.1 68.2 284.4 68.8 285.6 68.8 C 285.64 68.8 287 68.8 287 68.8 L 287 70.2 Z M 288.5 68.8 L 295.6 60.3 L 288.6 60.3 L 288.6 58.9 L 297.5 58.9 L 297.5 60.3 L 290.4 68.8 L 297.5 68.8 L 297.5 70.2 L 288.5 70.2 L 288.5 68.8 Z M 307.8 70.2 C 307.8 70.2 307.75 68.04 307.8 68 C 307 69.6 305.6 70.3 304 70.3 C 301.9 70.3 300.2 69 300.2 66.4 C 300.23 66.36 300.2 58.9 300.2 58.9 L 301.8 58.9 C 301.8 58.9 301.77 66.17 301.8 66.2 C 301.8 68 302.8 69 304.3 69 C 306.1 69 307.7 67.6 307.7 64.7 C 307.69 64.74 307.7 58.9 307.7 58.9 L 309.2 58.9 L 309.2 70.2 L 307.8 70.2 Z M 321.7 62.5 C 321.74 62.45 321.7 70.2 321.7 70.2 L 320.2 70.2 C 320.2 70.2 320.2 62.64 320.2 62.6 C 320.2 61.1 319.3 60.1 317.7 60.1 C 315.8 60.1 314.1 61.5 314.1 64.3 C 314.11 64.26 314.1 70.2 314.1 70.2 L 312.6 70.2 L 312.6 58.9 L 314.1 58.9 C 314.1 58.9 314.11 61 314.1 61 C 314.8 59.7 316 58.7 318 58.7 C 320.3 58.7 321.7 60 321.7 62.5 Z M 334.7 69.7 C 334.7 73.1 332.5 74.8 329.6 74.8 C 327.1 74.8 324.9 73.5 324.5 70.9 C 324.5 70.9 326.1 70.9 326.1 70.9 C 326.3 72.3 327.3 73.5 329.6 73.5 C 331.7 73.5 333.2 72.4 333.2 69.8 C 333.2 69.8 333.2 67.5 333.2 67.5 C 332.4 69.2 330.7 69.8 329.2 69.8 C 326.5 69.8 324.3 67.9 324.3 64.2 C 324.3 60.5 326.6 58.7 329.3 58.7 C 331.1 58.7 332.5 59.5 333.2 60.7 C 333.18 60.73 333.2 58.9 333.2 58.9 L 334.7 58.9 C 334.7 58.9 334.69 69.68 334.7 69.7 Z M 333.1 64.2 C 333.1 61.4 331.4 60 329.5 60 C 327.6 60 325.8 61.4 325.8 64.2 C 325.8 67 327.5 68.4 329.5 68.4 C 331.3 68.4 333.1 67.2 333.1 64.2 Z M 354.1 64.5 C 354.1 68 352 70.4 349 70.4 C 347 70.4 345.7 69.3 345.1 68.1 C 345.09 68.1 345.1 70.2 345.1 70.2 L 343.6 70.2 L 343.6 54.2 L 345.2 54.2 C 345.2 54.2 345.15 61.17 345.2 61.2 C 345.7 59.8 347.1 58.7 349.2 58.7 C 352.1 58.7 354.1 60.9 354.1 64.5 Z M 352.6 64.6 C 352.6 61.8 351.1 60.2 348.9 60.2 C 346.7 60.2 345.2 61.8 345.2 64.6 C 345.2 67.4 346.7 69.1 348.8 69.1 C 351.1 69.1 352.6 67.3 352.6 64.6 Z M 357.5 64.9 C 357.6 67.7 359.3 69 361.3 69 C 362.8 69 364.3 68.3 364.6 66.7 C 364.6 66.7 366 66.7 366 66.7 C 365.5 69.3 363.4 70.4 361.2 70.4 C 358.5 70.4 356 68.6 356 64.6 C 356 60.5 358.6 58.7 361.3 58.7 C 363.9 58.7 366.1 60.4 366.1 64.2 C 366.13 64.15 366.1 64.9 366.1 64.9 C 366.1 64.9 357.54 64.91 357.5 64.9 Z M 357.6 63.6 C 357.6 63.6 364.6 63.6 364.6 63.6 C 364.6 61.3 363.1 60.1 361.2 60.1 C 359.5 60.1 357.8 61.2 357.6 63.6 Z M 377.9 62.5 C 377.91 62.45 377.9 70.2 377.9 70.2 L 376.4 70.2 C 376.4 70.2 376.38 62.64 376.4 62.6 C 376.4 61.1 375.5 60.1 373.9 60.1 C 372 60.1 370.3 61.5 370.3 64.3 C 370.29 64.26 370.3 70.2 370.3 70.2 L 368.8 70.2 L 368.8 58.9 L 370.3 58.9 C 370.3 58.9 370.29 61 370.3 61 C 371 59.7 372.2 58.7 374.2 58.7 C 376.4 58.7 377.9 60 377.9 62.5 Z M 382.8 56.6 L 382.8 54.7 L 384.7 54.7 L 384.7 56.6 L 382.8 56.6 Z M 386.9 56.6 L 386.9 54.7 L 388.7 54.7 L 388.7 56.6 L 386.9 56.6 Z M 380.4 64.6 C 380.4 60.9 382.7 58.7 385.8 58.7 C 388.9 58.7 391.1 60.9 391.1 64.6 C 391.1 68.2 388.9 70.4 385.8 70.4 C 382.7 70.4 380.4 68.2 380.4 64.6 Z M 389.5 64.5 C 389.5 61.7 387.8 60.1 385.7 60.1 C 383.5 60.1 382 61.8 382 64.6 C 382 67.4 383.7 69 385.8 69 C 388 69 389.5 67.3 389.5 64.5 Z M 398.9 70.2 C 398.9 70.2 397.23 70.18 397.2 70.2 C 395.7 70.2 394.4 69.7 394.4 67.2 C 394.4 67.22 394.4 60.3 394.4 60.3 L 392.2 60.3 L 392.2 58.9 L 394.4 58.9 L 394.4 55.7 L 395.9 55.3 L 395.9 58.9 L 398.7 58.9 L 398.7 60.3 L 395.9 60.3 C 395.9 60.3 395.93 67.2 395.9 67.2 C 395.9 68.2 396.2 68.8 397.5 68.8 C 397.48 68.8 398.9 68.8 398.9 68.8 L 398.9 70.2 Z M 402.7 54.2 L 401 54.2 L 401 56.1 L 402.7 56.1 L 402.7 54.2 Z M 402.6 70.2 L 401.1 70.2 L 401.1 58.9 L 402.6 58.9 L 402.6 70.2 Z M 415.7 69.7 C 415.7 73.1 413.5 74.8 410.6 74.8 C 408.1 74.8 405.9 73.5 405.5 70.9 C 405.5 70.9 407.1 70.9 407.1 70.9 C 407.3 72.3 408.3 73.5 410.6 73.5 C 412.7 73.5 414.2 72.4 414.2 69.8 C 414.2 69.8 414.2 67.5 414.2 67.5 C 413.4 69.2 411.7 69.8 410.2 69.8 C 407.5 69.8 405.3 67.9 405.3 64.2 C 405.3 60.5 407.6 58.7 410.3 58.7 C 412.1 58.7 413.5 59.5 414.2 60.7 C 414.18 60.73 414.2 58.9 414.2 58.9 L 415.7 58.9 C 415.7 58.9 415.69 69.68 415.7 69.7 Z M 414.1 64.2 C 414.1 61.4 412.4 60 410.5 60 C 408.6 60 406.8 61.4 406.8 64.2 C 406.8 67 408.5 68.4 410.5 68.4 C 412.3 68.4 414.1 67.2 414.1 64.2 Z M 424.1 70.2 C 424.1 70.2 422.43 70.18 422.4 70.2 C 420.9 70.2 419.6 69.7 419.6 67.2 C 419.59 67.22 419.6 60.3 419.6 60.3 L 417.4 60.3 L 417.4 58.9 L 419.6 58.9 L 419.6 55.7 L 421.1 55.3 L 421.1 58.9 L 423.9 58.9 L 423.9 60.3 L 421.1 60.3 C 421.1 60.3 421.13 67.2 421.1 67.2 C 421.1 68.2 421.4 68.8 422.7 68.8 C 422.68 68.8 424.1 68.8 424.1 68.8 L 424.1 70.2 Z M 427.1 64.9 C 427.1 67.7 428.8 69 430.8 69 C 432.3 69 433.8 68.3 434.1 66.7 C 434.1 66.7 435.6 66.7 435.6 66.7 C 435.1 69.3 432.9 70.4 430.7 70.4 C 428.1 70.4 425.6 68.6 425.6 64.6 C 425.6 60.5 428.1 58.7 430.8 58.7 C 433.5 58.7 435.7 60.4 435.7 64.2 C 435.66 64.15 435.7 64.9 435.7 64.9 C 435.7 64.9 427.07 64.91 427.1 64.9 Z M 427.1 63.6 C 427.1 63.6 434.1 63.6 434.1 63.6 C 434.1 61.3 432.6 60.1 430.7 60.1 C 429 60.1 427.3 61.2 427.1 63.6 Z M 447.4 62.5 C 447.44 62.45 447.4 70.2 447.4 70.2 L 445.9 70.2 C 445.9 70.2 445.91 62.64 445.9 62.6 C 445.9 61.1 445 60.1 443.4 60.1 C 441.5 60.1 439.8 61.5 439.8 64.3 C 439.82 64.26 439.8 70.2 439.8 70.2 L 438.3 70.2 L 438.3 58.9 L 439.8 58.9 C 439.8 58.9 439.82 61 439.8 61 C 440.5 59.7 441.7 58.7 443.7 58.7 C 446 58.7 447.4 60 447.4 62.5 Z M 451.8 70.1 C 451.79 70.06 450.8 70.1 450.8 70.1 L 450.8 68 L 453 68 C 453 68 453.01 70.12 453 70.1 C 453 72.6 451.5 73.5 450 73.6 C 450 73.6 449.8 72.7 449.8 72.7 C 451.5 72.4 451.8 71.4 451.8 70.1 Z " stroke="none" fill="#000"/>  </g>  <g id="Polygon11440">    <path d="M 7.3 35 C 7.3 35 6.95 35.03 7 35 C 4.6 35 3.2 36.4 3.2 39 C 3.21 39 3.2 45 3.2 45 L 1.7 45 L 1.7 33.7 L 3.2 33.7 C 3.2 33.7 3.19 35.78 3.2 35.8 C 3.7 34.3 5.1 33.6 6.8 33.6 C 6.82 33.58 7.3 33.6 7.3 33.6 L 7.3 35 Z M 9.9 39.7 C 9.9 42.5 11.6 43.8 13.6 43.8 C 15.1 43.8 16.6 43.1 16.9 41.5 C 16.9 41.5 18.4 41.5 18.4 41.5 C 17.9 44.1 15.7 45.2 13.5 45.2 C 10.9 45.2 8.4 43.4 8.4 39.4 C 8.4 35.3 10.9 33.5 13.6 33.5 C 16.3 33.5 18.5 35.2 18.5 39 C 18.46 38.95 18.5 39.7 18.5 39.7 C 18.5 39.7 9.87 39.71 9.9 39.7 Z M 9.9 38.4 C 9.9 38.4 16.9 38.4 16.9 38.4 C 16.9 36.1 15.4 34.9 13.5 34.9 C 11.8 34.9 10.1 36 9.9 38.4 Z M 30.8 44.5 C 30.8 47.9 28.6 49.6 25.7 49.6 C 23.2 49.6 21 48.3 20.6 45.7 C 20.6 45.7 22.2 45.7 22.2 45.7 C 22.4 47.1 23.4 48.3 25.7 48.3 C 27.8 48.3 29.3 47.2 29.3 44.6 C 29.3 44.6 29.3 42.3 29.3 42.3 C 28.5 44 26.8 44.6 25.3 44.6 C 22.6 44.6 20.3 42.7 20.3 39 C 20.3 35.3 22.7 33.5 25.4 33.5 C 27.2 33.5 28.6 34.3 29.3 35.5 C 29.27 35.53 29.3 33.7 29.3 33.7 L 30.8 33.7 C 30.8 33.7 30.79 44.48 30.8 44.5 Z M 29.2 39 C 29.2 36.2 27.5 34.8 25.6 34.8 C 23.7 34.8 21.9 36.2 21.9 39 C 21.9 41.8 23.6 43.2 25.6 43.2 C 27.4 43.2 29.2 42 29.2 39 Z M 41.5 45 C 41.5 45 41.45 42.84 41.5 42.8 C 40.7 44.4 39.3 45.1 37.7 45.1 C 35.6 45.1 33.9 43.8 33.9 41.2 C 33.94 41.16 33.9 33.7 33.9 33.7 L 35.5 33.7 C 35.5 33.7 35.47 40.97 35.5 41 C 35.5 42.8 36.5 43.8 38 43.8 C 39.8 43.8 41.4 42.4 41.4 39.5 C 41.39 39.54 41.4 33.7 41.4 33.7 L 42.9 33.7 L 42.9 45 L 41.5 45 Z M 47.8 45 L 46.3 45 L 46.3 29 L 47.8 29 L 47.8 45 Z M 58.1 42.9 C 57.2 44.6 55.5 45.2 54.1 45.2 C 52.2 45.2 50.4 44.1 50.4 41.9 C 50.4 39.8 51.9 38.8 53.9 38.6 C 53.9 38.6 56.5 38.2 56.5 38.2 C 57.4 38.1 58.1 37.8 58.1 36.8 C 58.1 35.5 57 34.8 55.4 34.8 C 53.7 34.8 52.6 35.6 52.4 36.9 C 52.4 36.9 50.9 36.9 50.9 36.9 C 51.2 34.6 53 33.5 55.5 33.5 C 58 33.5 59.6 34.7 59.6 37.2 C 59.6 37.19 59.6 45 59.6 45 L 58.1 45 C 58.1 45 58.11 42.92 58.1 42.9 Z M 56.2 39.5 C 56.2 39.5 54.5 39.7 54.5 39.7 C 53.1 39.9 52 40.4 52 41.8 C 52 43.2 53.1 43.8 54.3 43.8 C 56.1 43.8 58.1 42.5 58.1 40.1 C 58.1 40.1 58.1 39 58.1 39 C 57.6 39.3 57 39.4 56.2 39.5 Z M 67.9 45 C 67.9 45 66.23 44.98 66.2 45 C 64.7 45 63.4 44.5 63.4 42 C 63.4 42.02 63.4 35.1 63.4 35.1 L 61.2 35.1 L 61.2 33.7 L 63.4 33.7 L 63.4 30.5 L 64.9 30.1 L 64.9 33.7 L 67.7 33.7 L 67.7 35.1 L 64.9 35.1 C 64.9 35.1 64.93 42 64.9 42 C 64.9 43 65.2 43.6 66.5 43.6 C 66.49 43.6 67.9 43.6 67.9 43.6 L 67.9 45 Z M 69.4 39.4 C 69.4 35.7 71.6 33.5 74.7 33.5 C 77.8 33.5 80.1 35.7 80.1 39.4 C 80.1 43 77.8 45.2 74.7 45.2 C 71.6 45.2 69.4 43 69.4 39.4 Z M 78.5 39.3 C 78.5 36.5 76.8 34.9 74.7 34.9 C 72.5 34.9 70.9 36.6 70.9 39.4 C 70.9 42.2 72.6 43.8 74.7 43.8 C 76.9 43.8 78.5 42.1 78.5 39.3 Z M 88.3 35 C 88.3 35 87.95 35.03 87.9 35 C 85.6 35 84.2 36.4 84.2 39 C 84.21 39 84.2 45 84.2 45 L 82.7 45 L 82.7 33.7 L 84.2 33.7 C 84.2 33.7 84.19 35.78 84.2 35.8 C 84.7 34.3 86.1 33.6 87.8 33.6 C 87.82 33.58 88.3 33.6 88.3 33.6 L 88.3 35 Z M 91.9 29 L 90.2 29 L 90.2 30.9 L 91.9 30.9 L 91.9 29 Z M 91.8 45 L 90.3 45 L 90.3 33.7 L 91.8 33.7 L 91.8 45 Z M 103.6 41.8 C 103.6 44.1 101.5 45.2 99.2 45.2 C 96.8 45.2 94.6 44 94.4 41.5 C 94.4 41.5 96 41.5 96 41.5 C 96.2 43.2 97.7 43.8 99.2 43.8 C 100.7 43.8 102 43.3 102 42 C 102 40.7 100.7 40.4 99.3 40.2 C 97.2 39.8 94.6 39.4 94.6 36.8 C 94.6 34.6 96.6 33.5 98.9 33.5 C 101.3 33.5 103.2 34.6 103.3 36.9 C 103.3 36.9 101.7 36.9 101.7 36.9 C 101.6 35.5 100.3 34.9 98.8 34.9 C 97.3 34.9 96.2 35.6 96.2 36.7 C 96.2 38.2 97.6 38.4 99.3 38.7 C 101.3 39 103.6 39.3 103.6 41.8 Z M 110.6 45.2 C 107.5 45.2 105.4 42.9 105.4 39.4 C 105.4 35.8 107.5 33.5 110.7 33.5 C 113.2 33.5 115.2 34.9 115.4 37.4 C 115.4 37.4 113.9 37.4 113.9 37.4 C 113.7 35.8 112.3 34.9 110.7 34.9 C 108.5 34.9 106.9 36.6 106.9 39.3 C 106.9 42.1 108.5 43.8 110.7 43.8 C 112.4 43.8 113.7 42.8 113.9 41 C 113.9 41 115.4 41 115.4 41 C 115.2 43.7 113.1 45.2 110.6 45.2 Z M 127.2 37.3 C 127.15 37.25 127.2 45 127.2 45 L 125.6 45 C 125.6 45 125.62 37.44 125.6 37.4 C 125.6 35.9 124.7 34.9 123.1 34.9 C 121.2 34.9 119.5 36.3 119.5 39.1 C 119.53 39.06 119.5 45 119.5 45 L 118 45 L 118 29 L 119.5 29 C 119.5 29 119.53 35.68 119.5 35.7 C 120.2 34.4 121.4 33.5 123.4 33.5 C 125.7 33.5 127.2 34.8 127.2 37.3 Z M 131.2 39.7 C 131.2 42.5 132.9 43.8 134.9 43.8 C 136.4 43.8 137.9 43.1 138.2 41.5 C 138.2 41.5 139.7 41.5 139.7 41.5 C 139.2 44.1 137 45.2 134.9 45.2 C 132.2 45.2 129.7 43.4 129.7 39.4 C 129.7 35.3 132.2 33.5 134.9 33.5 C 137.6 33.5 139.8 35.2 139.8 39 C 139.77 38.95 139.8 39.7 139.8 39.7 C 139.8 39.7 131.18 39.71 131.2 39.7 Z M 131.2 38.4 C 131.2 38.4 138.2 38.4 138.2 38.4 C 138.2 36.1 136.7 34.9 134.9 34.9 C 133.1 34.9 131.4 36 131.2 38.4 Z M 151.6 37.3 C 151.55 37.25 151.6 45 151.6 45 L 150 45 C 150 45 150.02 37.44 150 37.4 C 150 35.9 149.1 34.9 147.5 34.9 C 145.6 34.9 143.9 36.3 143.9 39.1 C 143.93 39.06 143.9 45 143.9 45 L 142.4 45 L 142.4 33.7 L 143.9 33.7 C 143.9 33.7 143.93 35.8 143.9 35.8 C 144.6 34.5 145.9 33.5 147.8 33.5 C 150.1 33.5 151.6 34.8 151.6 37.3 Z M 172.2 29.2 C 172.2 29.2 172.22 39.48 172.2 39.5 C 172.2 43.4 169.8 45.4 166.3 45.4 C 162.8 45.4 160.3 43.4 160.3 39.5 C 160.27 39.48 160.3 29.2 160.3 29.2 L 161.9 29.2 C 161.9 29.2 161.87 39.33 161.9 39.3 C 161.9 42.5 163.8 43.9 166.3 43.9 C 168.8 43.9 170.7 42.6 170.7 39.6 C 170.66 39.61 170.7 29.2 170.7 29.2 L 172.2 29.2 Z M 175.6 33.7 L 177.1 33.7 C 177.1 33.7 177.09 35.57 177.1 35.6 C 177.7 34.2 178.9 33.5 180.4 33.5 C 182 33.5 183.3 34.4 183.7 35.8 C 184.2 34.6 185.4 33.5 187.4 33.5 C 189.4 33.5 191.1 34.6 191.1 36.9 C 191.06 36.9 191.1 45 191.1 45 L 189.5 45 C 189.5 45 189.52 37.44 189.5 37.4 C 189.5 35.7 188.5 34.9 187.1 34.9 C 185.4 34.9 184.1 36.2 184.1 38.5 C 184.06 38.53 184.1 45 184.1 45 L 182.6 45 C 182.6 45 182.55 37.44 182.6 37.4 C 182.6 35.7 181.5 34.9 180.2 34.9 C 178.5 34.9 177.1 36.1 177.1 38.5 C 177.11 38.53 177.1 45 177.1 45 L 175.6 45 L 175.6 33.7 Z M 197.9 30.3 C 196.6 30.3 196.3 30.9 196.3 32 C 196.35 31.96 196.3 33.7 196.3 33.7 L 198.8 33.7 L 198.8 35.1 L 196.3 35.1 L 196.3 45 L 194.8 45 L 194.8 35.1 L 192.9 35.1 L 192.9 33.7 L 194.8 33.7 C 194.8 33.7 194.81 31.92 194.8 31.9 C 194.8 29.4 196.2 29 197.6 29 C 197.65 28.98 199.1 29 199.1 29 L 199.1 30.3 C 199.1 30.3 197.9 30.34 197.9 30.3 Z M 201.7 39.7 C 201.7 42.5 203.5 43.8 205.5 43.8 C 207 43.8 208.4 43.1 208.8 41.5 C 208.8 41.5 210.2 41.5 210.2 41.5 C 209.7 44.1 207.5 45.2 205.4 45.2 C 202.7 45.2 200.2 43.4 200.2 39.4 C 200.2 35.3 202.7 33.5 205.4 33.5 C 208.1 33.5 210.3 35.2 210.3 39 C 210.29 38.95 210.3 39.7 210.3 39.7 C 210.3 39.7 201.7 39.71 201.7 39.7 Z M 201.7 38.4 C 201.7 38.4 208.7 38.4 208.7 38.4 C 208.7 36.1 207.3 34.9 205.4 34.9 C 203.6 34.9 202 36 201.7 38.4 Z M 214.4 45 L 212.9 45 L 212.9 29 L 214.4 29 L 214.4 45 Z M 227.6 45 L 226.1 45 C 226.1 45 226.15 42.8 226.1 42.8 C 225.6 44.1 224.2 45.2 222.1 45.2 C 219.2 45.2 217.1 42.9 217.1 39.3 C 217.1 35.8 219.2 33.5 222.2 33.5 C 224.1 33.5 225.5 34.4 226.1 35.6 C 226.08 35.62 226.1 29 226.1 29 L 227.6 29 L 227.6 45 Z M 226.1 39.3 C 226.1 36.5 224.5 34.9 222.3 34.9 C 220.1 34.9 218.6 36.6 218.6 39.3 C 218.6 42.1 220.2 43.8 222.3 43.8 C 224.5 43.8 226.1 42.1 226.1 39.3 Z M 239.4 41.8 C 239.4 44.1 237.3 45.2 235 45.2 C 232.6 45.2 230.4 44 230.1 41.5 C 230.1 41.5 231.8 41.5 231.8 41.5 C 232 43.2 233.5 43.8 235 43.8 C 236.5 43.8 237.8 43.3 237.8 42 C 237.8 40.7 236.5 40.4 235.1 40.2 C 233 39.8 230.4 39.4 230.4 36.8 C 230.4 34.6 232.3 33.5 234.7 33.5 C 237 33.5 238.9 34.6 239.1 36.9 C 239.1 36.9 237.5 36.9 237.5 36.9 C 237.4 35.5 236.1 34.9 234.6 34.9 C 233.1 34.9 232 35.6 232 36.7 C 232 38.2 233.4 38.4 235.1 38.7 C 237.1 39 239.4 39.3 239.4 41.8 Z M 247.5 39.7 C 247.5 42.5 249.2 43.8 251.2 43.8 C 252.7 43.8 254.2 43.1 254.5 41.5 C 254.5 41.5 256 41.5 256 41.5 C 255.5 44.1 253.3 45.2 251.2 45.2 C 248.5 45.2 246 43.4 246 39.4 C 246 35.3 248.5 33.5 251.2 33.5 C 253.9 33.5 256.1 35.2 256.1 39 C 256.07 38.95 256.1 39.7 256.1 39.7 C 256.1 39.7 247.48 39.71 247.5 39.7 Z M 247.5 38.4 C 247.5 38.4 254.5 38.4 254.5 38.4 C 254.5 36.1 253 34.9 251.2 34.9 C 249.4 34.9 247.7 36 247.5 38.4 Z M 260.3 29 L 258.6 29 L 258.6 30.9 L 260.3 30.9 L 260.3 29 Z M 260.2 45 L 258.7 45 L 258.7 33.7 L 260.2 33.7 L 260.2 45 Z M 272.7 37.3 C 272.74 37.25 272.7 45 272.7 45 L 271.2 45 C 271.2 45 271.21 37.44 271.2 37.4 C 271.2 35.9 270.3 34.9 268.7 34.9 C 266.8 34.9 265.1 36.3 265.1 39.1 C 265.12 39.06 265.1 45 265.1 45 L 263.6 45 L 263.6 33.7 L 265.1 33.7 C 265.1 33.7 265.12 35.8 265.1 35.8 C 265.8 34.5 267.1 33.5 269 33.5 C 271.3 33.5 272.7 34.8 272.7 37.3 Z M 276.8 39.7 C 276.8 42.5 278.5 43.8 280.5 43.8 C 282 43.8 283.5 43.1 283.8 41.5 C 283.8 41.5 285.3 41.5 285.3 41.5 C 284.8 44.1 282.6 45.2 280.5 45.2 C 277.8 45.2 275.3 43.4 275.3 39.4 C 275.3 35.3 277.8 33.5 280.5 33.5 C 283.2 33.5 285.4 35.2 285.4 39 C 285.37 38.95 285.4 39.7 285.4 39.7 C 285.4 39.7 276.78 39.71 276.8 39.7 Z M 276.8 38.4 C 276.8 38.4 283.8 38.4 283.8 38.4 C 283.8 36.1 282.3 34.9 280.5 34.9 C 278.7 34.9 277 36 276.8 38.4 Z M 303.2 45 L 298.7 38.2 L 295 38.2 L 295 45 L 293.5 45 L 293.5 29.2 C 293.5 29.2 299.06 29.23 299.1 29.2 C 302.3 29.2 303.9 31.3 303.9 33.5 C 303.9 35.4 302.8 37.3 300.5 37.9 C 300.46 37.9 305.1 45 305.1 45 L 303.2 45 Z M 299 36.7 C 301.2 36.7 302.4 35.2 302.4 33.6 C 302.4 32 301.3 30.6 299.1 30.6 C 299.14 30.64 295 30.6 295 30.6 L 295 36.7 C 295 36.7 298.95 36.75 299 36.7 Z M 306.2 39.4 C 306.2 35.7 308.4 33.5 311.5 33.5 C 314.6 33.5 316.9 35.7 316.9 39.4 C 316.9 43 314.6 45.2 311.5 45.2 C 308.4 45.2 306.2 43 306.2 39.4 Z M 315.3 39.3 C 315.3 36.5 313.6 34.9 311.5 34.9 C 309.3 34.9 307.8 36.6 307.8 39.4 C 307.8 42.2 309.5 43.8 311.6 43.8 C 313.7 43.8 315.3 42.1 315.3 39.3 Z M 321 45 L 319.5 45 L 319.5 29 L 321 29 L 321 45 Z M 325.9 45 L 324.4 45 L 324.4 29 L 325.9 29 L 325.9 45 Z M 330.1 39.7 C 330.1 42.5 331.8 43.8 333.8 43.8 C 335.3 43.8 336.8 43.1 337.1 41.5 C 337.1 41.5 338.6 41.5 338.6 41.5 C 338.1 44.1 335.9 45.2 333.7 45.2 C 331 45.2 328.5 43.4 328.5 39.4 C 328.5 35.3 331.1 33.5 333.8 33.5 C 336.5 33.5 338.6 35.2 338.6 39 C 338.64 38.95 338.6 39.7 338.6 39.7 C 338.6 39.7 330.05 39.71 330.1 39.7 Z M 330.1 38.4 C 330.1 38.4 337.1 38.4 337.1 38.4 C 337.1 36.1 335.6 34.9 333.7 34.9 C 332 34.9 330.3 36 330.1 38.4 Z M 354.5 41.8 C 354.5 44.1 352.4 45.2 350.1 45.2 C 347.7 45.2 345.5 44 345.3 41.5 C 345.3 41.5 346.9 41.5 346.9 41.5 C 347.1 43.2 348.6 43.8 350.2 43.8 C 351.6 43.8 352.9 43.3 352.9 42 C 352.9 40.7 351.6 40.4 350.3 40.2 C 348.1 39.8 345.5 39.4 345.5 36.8 C 345.5 34.6 347.5 33.5 349.8 33.5 C 352.2 33.5 354.1 34.6 354.2 36.9 C 354.2 36.9 352.6 36.9 352.6 36.9 C 352.5 35.5 351.2 34.9 349.7 34.9 C 348.2 34.9 347.1 35.6 347.1 36.7 C 347.1 38.2 348.5 38.4 350.2 38.7 C 352.2 39 354.5 39.3 354.5 41.8 Z M 367.5 39.3 C 367.5 43.4 364.9 45.1 362.4 45.1 C 360.4 45.1 359.2 44.2 358.5 43 C 358.53 43.03 358.5 49.3 358.5 49.3 L 357 49.3 L 357 33.7 L 358.5 33.7 C 358.5 33.7 358.49 36.08 358.5 36.1 C 359 34.7 360.5 33.5 362.5 33.5 C 365 33.5 367.5 35.2 367.5 39.3 Z M 365.9 39.3 C 365.9 36.2 364.2 35 362.3 35 C 360.4 35 358.6 36.2 358.6 39.4 C 358.6 42.5 360.4 43.7 362.2 43.7 C 364.1 43.7 365.9 42.5 365.9 39.3 Z M 371.8 29 L 370 29 L 370 30.9 L 371.8 30.9 L 371.8 29 Z M 371.7 45 L 370.1 45 L 370.1 33.7 L 371.7 33.7 L 371.7 45 Z M 375.8 39.7 C 375.9 42.5 377.6 43.8 379.6 43.8 C 381.1 43.8 382.5 43.1 382.9 41.5 C 382.9 41.5 384.3 41.5 384.3 41.5 C 383.8 44.1 381.6 45.2 379.5 45.2 C 376.8 45.2 374.3 43.4 374.3 39.4 C 374.3 35.3 376.8 33.5 379.5 33.5 C 382.2 33.5 384.4 35.2 384.4 39 C 384.4 38.95 384.4 39.7 384.4 39.7 C 384.4 39.7 375.81 39.71 375.8 39.7 Z M 375.9 38.4 C 375.9 38.4 382.8 38.4 382.8 38.4 C 382.8 36.1 381.4 34.9 379.5 34.9 C 377.7 34.9 376.1 36 375.9 38.4 Z M 388.6 45 L 387 45 L 387 29 L 388.6 29 L 388.6 45 Z M 392.7 39.7 C 392.7 42.5 394.5 43.8 396.5 43.8 C 397.9 43.8 399.4 43.1 399.8 41.5 C 399.8 41.5 401.2 41.5 401.2 41.5 C 400.7 44.1 398.5 45.2 396.4 45.2 C 393.7 45.2 391.2 43.4 391.2 39.4 C 391.2 35.3 393.7 33.5 396.4 33.5 C 399.1 33.5 401.3 35.2 401.3 39 C 401.28 38.95 401.3 39.7 401.3 39.7 C 401.3 39.7 392.7 39.71 392.7 39.7 Z M 392.7 38.4 C 392.7 38.4 399.7 38.4 399.7 38.4 C 399.7 36.1 398.3 34.9 396.4 34.9 C 394.6 34.9 392.9 36 392.7 38.4 Z M 413.1 37.3 C 413.07 37.25 413.1 45 413.1 45 L 411.5 45 C 411.5 45 411.53 37.44 411.5 37.4 C 411.5 35.9 410.7 34.9 409.1 34.9 C 407.1 34.9 405.4 36.3 405.4 39.1 C 405.44 39.06 405.4 45 405.4 45 L 403.9 45 L 403.9 33.7 L 405.4 33.7 C 405.4 33.7 405.44 35.8 405.4 35.8 C 406.1 34.5 407.4 33.5 409.3 33.5 C 411.6 33.5 413.1 34.8 413.1 37.3 Z M 415.6 42.8 L 417.7 42.8 L 417.7 45 L 415.6 45 L 415.6 42.8 Z " stroke="none" fill="#000"/>  </g>  <g id="Polygon11439">    <path d="M 14.3 11.6 C 14.3 15.7 11.8 19.8 6.4 19.8 C 6.45 19.78 1.9 19.8 1.9 19.8 L 1.9 4 C 1.9 4 6.72 4.03 6.7 4 C 11.8 4 14.3 7.7 14.3 11.6 Z M 12.7 11.7 C 12.7 8.5 10.7 5.4 6.6 5.4 C 6.59 5.44 3.5 5.4 3.5 5.4 L 3.5 18.3 C 3.5 18.3 6.47 18.33 6.5 18.3 C 10.6 18.3 12.7 15 12.7 11.7 Z M 24.1 17.7 C 23.2 19.4 21.5 20 20.1 20 C 18.2 20 16.4 18.9 16.4 16.7 C 16.4 14.6 17.9 13.6 19.9 13.4 C 19.9 13.4 22.5 13 22.5 13 C 23.4 12.9 24.1 12.6 24.1 11.6 C 24.1 10.3 23 9.6 21.4 9.6 C 19.7 9.6 18.6 10.4 18.4 11.7 C 18.4 11.7 16.9 11.7 16.9 11.7 C 17.2 9.4 19 8.3 21.5 8.3 C 24 8.3 25.6 9.5 25.6 12 C 25.6 11.99 25.6 19.8 25.6 19.8 L 24.1 19.8 C 24.1 19.8 24.11 17.72 24.1 17.7 Z M 22.2 14.3 C 22.2 14.3 20.5 14.5 20.5 14.5 C 19.1 14.7 18 15.2 18 16.6 C 18 18 19.1 18.6 20.3 18.6 C 22.1 18.6 24.1 17.3 24.1 14.9 C 24.1 14.9 24.1 13.8 24.1 13.8 C 23.6 14.1 23 14.2 22.2 14.3 Z M 37.9 12.1 C 37.9 12.05 37.9 19.8 37.9 19.8 L 36.4 19.8 C 36.4 19.8 36.37 12.24 36.4 12.2 C 36.4 10.7 35.5 9.7 33.9 9.7 C 32 9.7 30.3 11.1 30.3 13.9 C 30.28 13.86 30.3 19.8 30.3 19.8 L 28.7 19.8 L 28.7 8.5 L 30.3 8.5 C 30.3 8.5 30.28 10.6 30.3 10.6 C 31 9.3 32.2 8.3 34.2 8.3 C 36.4 8.3 37.9 9.6 37.9 12.1 Z M 41.9 14.5 C 42 17.3 43.7 18.6 45.7 18.6 C 47.2 18.6 48.7 17.9 49 16.3 C 49 16.3 50.4 16.3 50.4 16.3 C 49.9 18.9 47.8 20 45.6 20 C 42.9 20 40.4 18.2 40.4 14.2 C 40.4 10.1 43 8.3 45.7 8.3 C 48.3 8.3 50.5 10 50.5 13.8 C 50.53 13.75 50.5 14.5 50.5 14.5 C 50.5 14.5 41.94 14.51 41.9 14.5 Z M 42 13.2 C 42 13.2 49 13.2 49 13.2 C 49 10.9 47.5 9.7 45.6 9.7 C 43.8 9.7 42.2 10.8 42 13.2 Z M 63.7 14.1 C 63.7 17.6 61.6 20 58.6 20 C 56.6 20 55.2 18.9 54.6 17.7 C 54.62 17.7 54.6 19.8 54.6 19.8 L 53.2 19.8 L 53.2 3.8 L 54.7 3.8 C 54.7 3.8 54.68 10.77 54.7 10.8 C 55.3 9.4 56.7 8.3 58.7 8.3 C 61.6 8.3 63.7 10.5 63.7 14.1 Z M 62.1 14.2 C 62.1 11.4 60.6 9.8 58.4 9.8 C 56.3 9.8 54.7 11.4 54.7 14.2 C 54.7 17 56.2 18.7 58.4 18.7 C 60.6 18.7 62.1 16.9 62.1 14.2 Z M 67.1 14.5 C 67.1 17.3 68.8 18.6 70.8 18.6 C 72.3 18.6 73.8 17.9 74.1 16.3 C 74.1 16.3 75.6 16.3 75.6 16.3 C 75.1 18.9 72.9 20 70.7 20 C 68.1 20 65.6 18.2 65.6 14.2 C 65.6 10.1 68.1 8.3 70.8 8.3 C 73.5 8.3 75.7 10 75.7 13.8 C 75.66 13.75 75.7 14.5 75.7 14.5 C 75.7 14.5 67.07 14.51 67.1 14.5 Z M 67.1 13.2 C 67.1 13.2 74.1 13.2 74.1 13.2 C 74.1 10.9 72.6 9.7 70.7 9.7 C 69 9.7 67.3 10.8 67.1 13.2 Z M 87.4 12.1 C 87.44 12.05 87.4 19.8 87.4 19.8 L 85.9 19.8 C 85.9 19.8 85.91 12.24 85.9 12.2 C 85.9 10.7 85 9.7 83.4 9.7 C 81.5 9.7 79.8 11.1 79.8 13.9 C 79.82 13.86 79.8 19.8 79.8 19.8 L 78.3 19.8 L 78.3 8.5 L 79.8 8.5 C 79.8 8.5 79.82 10.6 79.8 10.6 C 80.5 9.3 81.8 8.3 83.7 8.3 C 86 8.3 87.4 9.6 87.4 12.1 Z M 107.2 19.8 L 105.7 19.8 L 102.8 10.8 L 99.9 19.8 L 98.4 19.8 L 94.7 8.5 L 96.3 8.5 L 99.2 17.8 L 102 8.5 L 103.6 8.5 L 106.5 17.8 L 109.3 8.5 L 110.9 8.5 L 107.2 19.8 Z M 113.6 14.5 C 113.6 17.3 115.3 18.6 117.3 18.6 C 118.8 18.6 120.3 17.9 120.6 16.3 C 120.6 16.3 122.1 16.3 122.1 16.3 C 121.6 18.9 119.4 20 117.2 20 C 114.6 20 112.1 18.2 112.1 14.2 C 112.1 10.1 114.6 8.3 117.3 8.3 C 120 8.3 122.2 10 122.2 13.8 C 122.16 13.75 122.2 14.5 122.2 14.5 C 122.2 14.5 113.57 14.51 113.6 14.5 Z M 113.6 13.2 C 113.6 13.2 120.6 13.2 120.6 13.2 C 120.6 10.9 119.1 9.7 117.2 9.7 C 115.5 9.7 113.8 10.8 113.6 13.2 Z M 130.4 9.8 C 130.4 9.8 130.05 9.83 130.1 9.8 C 127.7 9.8 126.3 11.2 126.3 13.8 C 126.31 13.8 126.3 19.8 126.3 19.8 L 124.8 19.8 L 124.8 8.5 L 126.3 8.5 C 126.3 8.5 126.29 10.58 126.3 10.6 C 126.8 9.1 128.2 8.4 129.9 8.4 C 129.93 8.38 130.4 8.4 130.4 8.4 L 130.4 9.8 Z M 142 19.8 L 140.5 19.8 C 140.5 19.8 140.53 17.6 140.5 17.6 C 140 18.9 138.6 20 136.5 20 C 133.6 20 131.5 17.7 131.5 14.1 C 131.5 10.6 133.6 8.3 136.5 8.3 C 138.5 8.3 139.9 9.2 140.5 10.4 C 140.47 10.42 140.5 3.8 140.5 3.8 L 142 3.8 L 142 19.8 Z M 140.4 14.1 C 140.4 11.3 138.9 9.7 136.7 9.7 C 134.5 9.7 133 11.4 133 14.1 C 133 16.9 134.5 18.6 136.7 18.6 C 138.9 18.6 140.4 16.9 140.4 14.1 Z M 146.1 14.5 C 146.2 17.3 147.9 18.6 149.9 18.6 C 151.4 18.6 152.9 17.9 153.2 16.3 C 153.2 16.3 154.6 16.3 154.6 16.3 C 154.1 18.9 152 20 149.8 20 C 147.1 20 144.6 18.2 144.6 14.2 C 144.6 10.1 147.2 8.3 149.9 8.3 C 152.5 8.3 154.7 10 154.7 13.8 C 154.73 13.75 154.7 14.5 154.7 14.5 C 154.7 14.5 146.14 14.51 146.1 14.5 Z M 146.2 13.2 C 146.2 13.2 153.2 13.2 153.2 13.2 C 153.2 10.9 151.7 9.7 149.8 9.7 C 148 9.7 146.4 10.8 146.2 13.2 Z M 166.5 12.1 C 166.51 12.05 166.5 19.8 166.5 19.8 L 165 19.8 C 165 19.8 164.97 12.24 165 12.2 C 165 10.7 164.1 9.7 162.5 9.7 C 160.6 9.7 158.9 11.1 158.9 13.9 C 158.88 13.86 158.9 19.8 158.9 19.8 L 157.4 19.8 L 157.4 8.5 L 158.9 8.5 C 158.9 8.5 158.88 10.6 158.9 10.6 C 159.6 9.3 160.8 8.3 162.8 8.3 C 165 8.3 166.5 9.6 166.5 12.1 Z M 178.4 2.3 L 178.4 0.3 L 180.2 0.3 L 180.2 2.3 L 178.4 2.3 Z M 182.5 2.3 L 182.5 0.3 L 184.3 0.3 L 184.3 2.3 L 182.5 2.3 Z M 185 15.3 L 177.5 15.3 L 175.8 19.8 L 174.1 19.8 L 180.4 4 L 182.1 4 L 188.6 19.8 L 186.8 19.8 L 185 15.3 Z M 181.2 5.8 L 178.1 13.9 L 184.5 13.9 L 181.2 5.8 Z M 200.2 12.1 C 200.19 12.05 200.2 19.8 200.2 19.8 L 198.7 19.8 C 198.7 19.8 198.66 12.24 198.7 12.2 C 198.7 10.7 197.8 9.7 196.2 9.7 C 194.2 9.7 192.6 11.1 192.6 13.9 C 192.57 13.86 192.6 19.8 192.6 19.8 L 191 19.8 L 191 8.5 L 192.6 8.5 C 192.6 8.5 192.57 10.6 192.6 10.6 C 193.2 9.3 194.5 8.3 196.5 8.3 C 198.7 8.3 200.2 9.6 200.2 12.1 Z M 213.3 19.8 L 211.8 19.8 C 211.8 19.8 211.78 17.6 211.8 17.6 C 211.2 18.9 209.9 20 207.8 20 C 204.8 20 202.7 17.7 202.7 14.1 C 202.7 10.6 204.8 8.3 207.8 8.3 C 209.7 8.3 211.1 9.2 211.7 10.4 C 211.72 10.42 211.7 3.8 211.7 3.8 L 213.3 3.8 L 213.3 19.8 Z M 211.7 14.1 C 211.7 11.3 210.1 9.7 208 9.7 C 205.8 9.7 204.3 11.4 204.3 14.1 C 204.3 16.9 205.8 18.6 208 18.6 C 210.2 18.6 211.7 16.9 211.7 14.1 Z M 217.4 14.5 C 217.4 17.3 219.2 18.6 221.1 18.6 C 222.6 18.6 224.1 17.9 224.4 16.3 C 224.4 16.3 225.9 16.3 225.9 16.3 C 225.4 18.9 223.2 20 221.1 20 C 218.4 20 215.9 18.2 215.9 14.2 C 215.9 10.1 218.4 8.3 221.1 8.3 C 223.8 8.3 226 10 226 13.8 C 225.98 13.75 226 14.5 226 14.5 C 226 14.5 217.39 14.51 217.4 14.5 Z M 217.4 13.2 C 217.4 13.2 224.4 13.2 224.4 13.2 C 224.4 10.9 223 9.7 221.1 9.7 C 219.3 9.7 217.6 10.8 217.4 13.2 Z M 234.2 9.8 C 234.2 9.8 233.88 9.83 233.9 9.8 C 231.5 9.8 230.1 11.2 230.1 13.8 C 230.14 13.8 230.1 19.8 230.1 19.8 L 228.6 19.8 L 228.6 8.5 L 230.1 8.5 C 230.1 8.5 230.12 10.58 230.1 10.6 C 230.6 9.1 232 8.4 233.7 8.4 C 233.75 8.38 234.2 8.4 234.2 8.4 L 234.2 9.8 Z M 243.6 19.8 C 243.6 19.8 243.64 17.64 243.6 17.6 C 242.9 19.2 241.5 19.9 239.9 19.9 C 237.8 19.9 236.1 18.6 236.1 16 C 236.12 15.96 236.1 8.5 236.1 8.5 L 237.7 8.5 C 237.7 8.5 237.65 15.77 237.7 15.8 C 237.7 17.6 238.7 18.6 240.2 18.6 C 242 18.6 243.6 17.2 243.6 14.3 C 243.58 14.34 243.6 8.5 243.6 8.5 L 245.1 8.5 L 245.1 19.8 L 243.6 19.8 Z M 257.6 12.1 C 257.63 12.05 257.6 19.8 257.6 19.8 L 256.1 19.8 C 256.1 19.8 256.09 12.24 256.1 12.2 C 256.1 10.7 255.2 9.7 253.6 9.7 C 251.7 9.7 250 11.1 250 13.9 C 250 13.86 250 19.8 250 19.8 L 248.5 19.8 L 248.5 8.5 L 250 8.5 C 250 8.5 250 10.6 250 10.6 C 250.7 9.3 251.9 8.3 253.9 8.3 C 256.2 8.3 257.6 9.6 257.6 12.1 Z M 270.6 19.3 C 270.6 22.7 268.4 24.4 265.5 24.4 C 263 24.4 260.8 23.1 260.4 20.5 C 260.4 20.5 262 20.5 262 20.5 C 262.2 21.9 263.2 23.1 265.5 23.1 C 267.6 23.1 269.1 22 269.1 19.4 C 269.1 19.4 269.1 17.1 269.1 17.1 C 268.3 18.8 266.6 19.4 265.1 19.4 C 262.4 19.4 260.1 17.5 260.1 13.8 C 260.1 10.1 262.5 8.3 265.2 8.3 C 267 8.3 268.4 9.1 269.1 10.3 C 269.07 10.33 269.1 8.5 269.1 8.5 L 270.6 8.5 C 270.6 8.5 270.58 19.28 270.6 19.3 Z M 269 13.8 C 269 11 267.3 9.6 265.4 9.6 C 263.5 9.6 261.7 11 261.7 13.8 C 261.7 16.6 263.4 18 265.4 18 C 267.2 18 269 16.8 269 13.8 Z M 274.6 14.5 C 274.7 17.3 276.4 18.6 278.4 18.6 C 279.9 18.6 281.3 17.9 281.7 16.3 C 281.7 16.3 283.1 16.3 283.1 16.3 C 282.6 18.9 280.4 20 278.3 20 C 275.6 20 273.1 18.2 273.1 14.2 C 273.1 10.1 275.6 8.3 278.4 8.3 C 281 8.3 283.2 10 283.2 13.8 C 283.2 13.75 283.2 14.5 283.2 14.5 C 283.2 14.5 274.61 14.51 274.6 14.5 Z M 274.7 13.2 C 274.7 13.2 281.6 13.2 281.6 13.2 C 281.6 10.9 280.2 9.7 278.3 9.7 C 276.5 9.7 274.9 10.8 274.7 13.2 Z M 295 12.1 C 294.98 12.05 295 19.8 295 19.8 L 293.5 19.8 C 293.5 19.8 293.45 12.24 293.5 12.2 C 293.5 10.7 292.6 9.7 291 9.7 C 289 9.7 287.4 11.1 287.4 13.9 C 287.36 13.86 287.4 19.8 287.4 19.8 L 285.8 19.8 L 285.8 8.5 L 287.4 8.5 C 287.4 8.5 287.36 10.6 287.4 10.6 C 288 9.3 289.3 8.3 291.3 8.3 C 293.5 8.3 295 9.6 295 12.1 Z M 313.3 19.8 L 311.8 19.8 C 311.8 19.8 311.83 17.6 311.8 17.6 C 311.3 18.9 309.9 20 307.8 20 C 304.9 20 302.8 17.7 302.8 14.1 C 302.8 10.6 304.9 8.3 307.8 8.3 C 309.7 8.3 311.2 9.2 311.8 10.4 C 311.76 10.42 311.8 3.8 311.8 3.8 L 313.3 3.8 L 313.3 19.8 Z M 311.7 14.1 C 311.7 11.3 310.2 9.7 308 9.7 C 305.8 9.7 304.3 11.4 304.3 14.1 C 304.3 16.9 305.8 18.6 308 18.6 C 310.2 18.6 311.7 16.9 311.7 14.1 Z M 317.4 14.5 C 317.5 17.3 319.2 18.6 321.2 18.6 C 322.7 18.6 324.2 17.9 324.5 16.3 C 324.5 16.3 325.9 16.3 325.9 16.3 C 325.4 18.9 323.2 20 321.1 20 C 318.4 20 315.9 18.2 315.9 14.2 C 315.9 10.1 318.5 8.3 321.2 8.3 C 323.8 8.3 326 10 326 13.8 C 326.02 13.75 326 14.5 326 14.5 C 326 14.5 317.43 14.51 317.4 14.5 Z M 317.5 13.2 C 317.5 13.2 324.5 13.2 324.5 13.2 C 324.5 10.9 323 9.7 321.1 9.7 C 319.3 9.7 317.7 10.8 317.5 13.2 Z M 337 16.6 C 337 18.9 334.9 20 332.7 20 C 330.3 20 328 18.8 327.8 16.3 C 327.8 16.3 329.4 16.3 329.4 16.3 C 329.7 18 331.2 18.6 332.7 18.6 C 334.1 18.6 335.4 18.1 335.4 16.8 C 335.4 15.5 334.1 15.2 332.8 15 C 330.6 14.6 328.1 14.2 328.1 11.6 C 328.1 9.4 330 8.3 332.3 8.3 C 334.7 8.3 336.6 9.4 336.7 11.7 C 336.7 11.7 335.1 11.7 335.1 11.7 C 335 10.3 333.7 9.7 332.3 9.7 C 330.7 9.7 329.7 10.4 329.7 11.5 C 329.7 13 331 13.2 332.7 13.5 C 334.8 13.8 337 14.1 337 16.6 Z " stroke="none" fill="#000"/>  </g></svg>