<?xml version="1.0" standalone="no"?><!DOCTYPE svg PUBLIC "-//W3C//DTD SVG 1.1//EN" "http://www.w3.org/Graphics/SVG/1.1/DTD/svg11.dtd"><svg xmlns="http://www.w3.org/2000/svg" version="1.1" width="65.2px" height="53.7px" viewBox="0 -1 65.2 53.7" style="top:-1px">  <desc>4 9</desc>  <defs/>  <g id="Polygon13033">    <path d="M 37.5 27.7 L 37.5 32 L 33.5 32 L 33.5 27.7 L 23.4 27.7 L 23.4 24.5 L 33.1 9.9 L 37.5 9.9 L 37.5 24 L 40.4 24 L 40.4 27.7 L 37.5 27.7 Z M 33.5 24 L 33.5 15.3 L 27.7 24 L 33.5 24 Z M 41.8 27.4 L 46.3 27.4 L 46.3 32 L 41.8 32 L 41.8 27.4 Z M 64.4 21 C 64.4 30.5 59.3 32.4 55.8 32.4 C 51.7 32.4 48.7 29.9 48.3 26 C 48.3 26 52.3 26 52.3 26 C 52.4 28 54.3 29 56 29 C 58.4 29 60.6 27.1 60.6 22.9 C 60.6 22.9 60.6 22.2 60.6 22.2 C 59.2 24.1 57 24.7 55.2 24.7 C 51.5 24.7 48 22.1 48 17.3 C 48 12.6 51.4 9.5 55.8 9.5 C 60.1 9.5 64.4 12.5 64.4 21 Z M 59.7 17.2 C 59.7 14.5 57.6 13.2 55.7 13.2 C 53.7 13.2 51.8 14.6 51.8 17.1 C 51.8 19.9 54.1 21 56 21 C 58 21 59.7 19.7 59.7 17.2 Z " stroke="none" fill="#000"/>  </g></svg>