<?xml version="1.0" standalone="no"?><!DOCTYPE svg PUBLIC "-//W3C//DTD SVG 1.1//EN" "http://www.w3.org/Graphics/SVG/1.1/DTD/svg11.dtd"><svg xmlns="http://www.w3.org/2000/svg" version="1.1" width="418px" height="90.4px" viewBox="0 -4 418 90.4" style="top:-4px"><desc>With interest rates so low (and even negative), what role does Fixed Income have in a portfolio</desc><defs/><g id="Polygon9756"><path d="m4.6 70.2H1.7V54.4h2.9v15.8zm13.2-7.5c.03.01 0 7.5 0 7.5H15s.04-7.24 0-7.2c0-1.3-.7-2.1-2-2.1c-1.6 0-2.6 1.1-2.6 3c.04.02 0 6.3 0 6.3H7.6V58.6h2.8s.02 1.67 0 1.7c.7-1.1 1.6-1.9 3.5-1.9c2.7 0 3.9 1.5 3.9 4.3zm7.5 7.7c-3.8 0-5.6-2.9-5.6-6c0-3.1 1.8-6 5.6-6c2.9 0 5 1.6 5.1 4.4h-2.7c-.1-1.1-.9-1.9-2.3-1.9c-2 0-2.9 1.7-2.9 3.5c0 1.9.9 3.4 2.9 3.4c1.3 0 2.2-.7 2.3-1.7h2.8c-.3 2.8-2.4 4.3-5.2 4.3zm17.8-6c0 3.8-2.4 6-5.7 6c-3.2 0-5.6-2.2-5.6-6c0-3.8 2.4-6 5.6-6c3.3 0 5.7 2.2 5.7 6zm-8.5 0c0 2.3 1.3 3.4 2.9 3.4c1.6 0 2.8-1.2 2.8-3.4c0-2.3-1.3-3.4-2.9-3.4c-1.6 0-2.8 1.2-2.8 3.4zm26.9-2c-.03-.03 0 7.8 0 7.8h-2.8s-.03-7.28 0-7.3c0-1.4-.7-2-1.8-2c-1.4 0-2.2.8-2.2 2.8c-.02-.03 0 6.5 0 6.5h-2.8v-7.3c0-1.4-.7-2-1.8-2c-1.3 0-2.2.8-2.2 2.8v6.5h-2.8V58.6h2.8s-.04 1.69 0 1.7c.3-.9 1.2-1.9 3-1.9c1.5 0 2.6.7 3.2 1.9c.4-.8 1.2-1.9 3.3-1.9c2.5 0 4.1 1.5 4.1 4zm4.6 2.8c0 1.9 1.4 2.8 2.9 2.8c1.1 0 2.2-.4 2.5-1.5h2.6c-.5 2.6-2.8 3.9-5.2 3.9c-2.8 0-5.5-1.9-5.5-6c0-4 2.6-6 5.5-6c2.9 0 5.2 1.8 5.2 5.7c.03-.01 0 1.1 0 1.1c0 0-8.03.03-8 0zm0-2h5.3c0-1.5-1.1-2.4-2.5-2.4c-1.3 0-2.5.7-2.8 2.4zm25.5-.5c-.04.01 0 7.5 0 7.5h-2.8s-.03-7.24 0-7.2c0-1.3-.8-2.1-2.1-2.1c-1.6 0-2.5 1.1-2.5 3c-.03.02 0 6.3 0 6.3h-2.8v-16h2.8s-.03 6.03 0 6c.6-1.1 1.6-1.8 3.5-1.8c2.6 0 3.9 1.5 3.9 4.3zm11.8-.3c.04-.01 0 7.8 0 7.8h-2.7s.01-1.7 0-1.7c-.9 1.5-2.3 1.9-3.5 1.9c-1.8 0-3.8-1.1-3.8-3.6c0-1.8 1.1-3 3.7-3.4l2.5-.4c.7-.1 1.2-.3 1.2-1c0-1-.8-1.4-1.9-1.4c-1.5 0-2.2.7-2.3 1.7h-2.7c.3-2.7 2.5-3.9 5.1-3.9c2.7 0 4.4 1.3 4.4 4zm-2.7 2.9v-.6c-.2.1-.8.3-1.3.3l-1.3.2c-1.4.2-1.9.8-1.9 1.5c0 .9.7 1.4 1.7 1.4c1.4 0 2.8-1.1 2.8-2.8zm11.1 4.9h-2.9l-4.3-11.6h3l2.8 8.3l2.9-8.3h2.8l-4.3 11.6zm7.5-5c0 1.9 1.4 2.8 3 2.8c1.1 0 2.1-.4 2.4-1.5h2.6c-.5 2.6-2.8 3.9-5.2 3.9c-2.8 0-5.5-1.9-5.5-6c0-4 2.6-6 5.6-6c2.8 0 5.1 1.8 5.1 5.7c.04-.01 0 1.1 0 1.1c0 0-8.02.03-8 0zm0-2h5.3c0-1.5-1.1-2.4-2.5-2.4c-1.3 0-2.5.7-2.8 2.4zm15.2-6.1h2.9v-3.2h-2.9v3.2zm.1 1.5h2.8v11.6h-2.8V58.6zm15.7 4.1c-.05.01 0 7.5 0 7.5h-2.8s-.04-7.24 0-7.2c0-1.3-.8-2.1-2.1-2.1c-1.6 0-2.5 1.1-2.5 3c-.04.02 0 6.3 0 6.3h-2.8V58.6h2.7s.04 1.67 0 1.7c.7-1.1 1.6-1.9 3.6-1.9c2.6 0 3.9 1.5 3.9 4.3zm17.5-.3v7.8h-2.7s-.02-1.7 0-1.7c-.9 1.5-2.3 1.9-3.5 1.9c-1.9 0-3.8-1.1-3.8-3.6c0-1.8 1-3 3.7-3.4l2.5-.4c.7-.1 1.2-.3 1.2-1c0-1-.9-1.4-2-1.4c-1.5 0-2.1.7-2.2 1.7h-2.7c.3-2.7 2.4-3.9 5.1-3.9c2.7 0 4.4 1.3 4.4 4zm-2.7 2.9v-.6c-.3.1-.8.3-1.4.3l-1.2.2c-1.4.2-1.9.8-1.9 1.5c0 .9.7 1.4 1.6 1.4c1.5 0 2.9-1.1 2.9-2.8zm21.9-1.1c0 4.2-2.6 6.1-5.4 6.1c-1.5 0-2.6-.7-3.2-1.5c-.03 0 0 5.7 0 5.7h-2.8V58.6h2.7s.01 1.84 0 1.8c.6-1.2 1.9-2 3.6-2c2.7 0 5.1 1.9 5.1 5.8zm-2.9.2c0-2.4-1.4-3.5-2.9-3.5c-1.5 0-2.9 1.1-2.9 3.5c0 2.3 1.4 3.4 2.9 3.4c1.5 0 2.9-1.1 2.9-3.4zm15.4 0c0 3.8-2.4 6-5.6 6c-3.3 0-5.7-2.2-5.7-6c0-3.8 2.4-6 5.7-6c3.2 0 5.6 2.2 5.6 6zm-8.4 0c0 2.3 1.3 3.4 2.8 3.4c1.7 0 2.8-1.2 2.8-3.4c0-2.3-1.3-3.4-2.9-3.4c-1.6 0-2.7 1.2-2.7 3.4zm17-3.2s-.75-.03-.7 0c-2 0-3.1 1-3.1 3.3c.03.01 0 5.7 0 5.7h-2.8V58.6h2.8v1.6c.6-1.2 1.7-1.7 3-1.7c.03-.04.8 0 .8 0v2.7zm7.7 9s-1.83-.02-1.8 0c-2.2 0-3.6-.7-3.6-3.8c.02 0 0-5.3 0-5.3h-2.1v-2.5h2.1V56l2.8-.8v3.4h2.3v2.5h-2.3v5.4c0 .7.2 1.2 1.2 1.2h1.4v2.5zm5.9-13.5c-1 0-1.2.4-1.2 1.1c.02.03 0 .8 0 .8h2.2v2.5h-2.2v9.1h-2.8v-9.1H216v-2.5h1.7s.03-.64 0-.6c0-3.1 1.4-3.8 3.6-3.8c-.03-.02 1.7 0 1.7 0v2.5s-1.31-.04-1.3 0zm13 7.7c0 3.8-2.4 6-5.7 6c-3.2 0-5.6-2.2-5.6-6c0-3.8 2.4-6 5.6-6c3.3 0 5.7 2.2 5.7 6zm-8.5 0c0 2.3 1.3 3.4 2.9 3.4c1.6 0 2.7-1.2 2.7-3.4c0-2.3-1.2-3.4-2.8-3.4c-1.7 0-2.8 1.2-2.8 3.4zm13.3 5.8h-2.8v-16h2.8v16zm2.6-13.1h3v-3.2h-3v3.2zm.1 1.5h2.8v11.6h-2.8V58.6zm16.1 5.8c0 3.8-2.4 6-5.7 6c-3.2 0-5.6-2.2-5.6-6c0-3.8 2.4-6 5.6-6c3.3 0 5.7 2.2 5.7 6zm-8.5 0c0 2.3 1.3 3.4 2.8 3.4c1.7 0 2.8-1.2 2.8-3.4c0-2.3-1.3-3.4-2.8-3.4c-1.7 0-2.8 1.2-2.8 3.4zm13.2.2c0-2.7 1.4-3.2 2.6-4.1c1.1-.7 1.5-1.3 1.5-2.1c0-1.2-.8-1.8-2.1-1.8c-1.4 0-2.3.8-2.4 2.2h-2.9c.3-3.4 2.8-4.6 5.4-4.6c2.8 0 4.9 1.3 4.9 4.1c0 2.2-1.3 3.1-2.7 4.1c-1.1.8-1.6 1.3-1.6 2.2v.7H263s.04-.75 0-.7zm-.2 2.3h3.2v3.3h-3.2v-3.3z" stroke="none" fill="#000"/></g><g id="Polygon9755"><path d="m7.1 47.8l-.9 1.1C2.8 46.7.4 42.7.4 37.8c0-4.8 2.4-8.9 5.8-11.1l.9 1.1c-2.8 2.3-4.7 5.8-4.7 10c0 4.3 1.9 7.8 4.7 10zm10.6-10.6v7.8H15s-.03-1.7 0-1.7c-.9 1.5-2.3 1.9-3.5 1.9c-1.9 0-3.8-1.1-3.8-3.6c0-1.8 1-3 3.7-3.4l2.5-.4c.7-.1 1.2-.3 1.2-1c0-1-.9-1.4-2-1.4c-1.5 0-2.1.7-2.2 1.7H8.2c.3-2.7 2.4-3.9 5.1-3.9c2.7 0 4.4 1.3 4.4 4zM15 40.1v-.6c-.3.1-.8.3-1.4.3l-1.2.2c-1.4.2-1.9.8-1.9 1.5c0 .9.7 1.4 1.6 1.4c1.5 0 2.9-1.1 2.9-2.8zm15.4-2.6v7.5h-2.8s.01-7.24 0-7.2c0-1.3-.7-2.1-2-2.1c-1.6 0-2.6 1.1-2.6 3c.02.02 0 6.3 0 6.3h-2.8V33.4h2.8s-.01 1.67 0 1.7c.6-1.1 1.6-1.9 3.5-1.9c2.7 0 3.9 1.5 3.9 4.3zM43.7 45h-2.8s.05-1.8 0-1.8c-.6 1.3-1.9 2-3.5 2c-2.7 0-5.1-2-5.1-6c0-4 2.4-6 5.1-6c1.5 0 2.8.6 3.5 1.7V29h2.8v16zM41 39.2c0-2.4-1.5-3.5-3-3.5c-1.5 0-2.9 1.1-2.9 3.5c0 2.3 1.4 3.5 2.9 3.5c1.5 0 3-1.2 3-3.5zm12.6.8c.1 1.9 1.4 2.8 3 2.8c1.1 0 2.2-.4 2.5-1.5h2.6c-.5 2.6-2.8 3.9-5.2 3.9c-2.8 0-5.6-1.9-5.6-6c0-4 2.6-6 5.6-6c2.8 0 5.2 1.8 5.2 5.7v1.1s-8.07.03-8.1 0zm.1-2h5.3c0-1.5-1.1-2.4-2.5-2.4c-1.3 0-2.6.7-2.8 2.4zm15.9 7h-3l-4.3-11.6h3l2.8 8.3l2.9-8.3h2.9L69.6 45zm7.4-5c.1 1.9 1.4 2.8 3 2.8c1.1 0 2.1-.4 2.5-1.5h2.5c-.5 2.6-2.8 3.9-5.1 3.9c-2.8 0-5.6-1.9-5.6-6c0-4 2.6-6 5.6-6c2.8 0 5.2 1.8 5.2 5.7c-.03-.01 0 1.1 0 1.1c0 0-8.09.03-8.1 0zm.1-2h5.2c0-1.5-1-2.4-2.5-2.4c-1.2 0-2.5.7-2.7 2.4zm20.1-.5c.05.01 0 7.5 0 7.5h-2.7s-.04-7.24 0-7.2c0-1.3-.8-2.1-2.1-2.1c-1.6 0-2.5 1.1-2.5 3c-.04.02 0 6.3 0 6.3h-2.8V33.4h2.7s.04 1.67 0 1.7c.7-1.1 1.6-1.9 3.6-1.9c2.6 0 3.8 1.5 3.8 4.3zm18.5 0c.03.01 0 7.5 0 7.5h-2.8s.04-7.24 0-7.2c0-1.3-.7-2.1-2-2.1c-1.6 0-2.6 1.1-2.6 3c.04.02 0 6.3 0 6.3h-2.8V33.4h2.8s.02 1.67 0 1.7c.7-1.1 1.6-1.9 3.5-1.9c2.7 0 3.9 1.5 3.9 4.3zm4.6 2.5c.1 1.9 1.4 2.8 3 2.8c1.1 0 2.2-.4 2.5-1.5h2.6c-.6 2.6-2.8 3.9-5.2 3.9c-2.8 0-5.6-1.9-5.6-6c0-4 2.6-6 5.6-6c2.8 0 5.2 1.8 5.2 5.7c-.01-.01 0 1.1 0 1.1c0 0-8.07.03-8.1 0zm.1-2h5.3c0-1.5-1.1-2.4-2.5-2.4c-1.3 0-2.6.7-2.8 2.4zm20.4 6.2c0 3.7-2.4 5.4-5.5 5.4c-2.8 0-5.1-1.4-5.5-4.3h2.7c.3 1.5 1.5 1.9 2.8 1.9c1.8 0 2.8-.9 2.8-2.7v-1.9c-.5 1.2-1.6 2-3.4 2c-2.6 0-5-1.8-5-5.7c0-3.9 2.4-5.7 5-5.7c1.7 0 2.8.7 3.4 1.8c.04.01 0-1.6 0-1.6h2.7s.02 10.8 0 10.8zm-2.8-5.3c0-2.2-1.2-3.3-2.7-3.3c-1.5 0-2.9 1.1-2.9 3.3c0 2.2 1.4 3.2 2.9 3.2c1.5 0 2.7-1 2.7-3.2zm14.7-1.7v7.8H150s-.02-1.7 0-1.7c-.9 1.5-2.3 1.9-3.5 1.9c-1.9 0-3.8-1.1-3.8-3.6c0-1.8 1-3 3.7-3.4l2.5-.4c.7-.1 1.2-.3 1.2-1c0-1-.9-1.4-2-1.4c-1.5 0-2.1.7-2.2 1.7h-2.7c.3-2.7 2.4-3.9 5.1-3.9c2.7 0 4.4 1.3 4.4 4zm-2.7 2.9v-.6c-.3.1-.8.3-1.4.3l-1.2.2c-1.4.2-1.9.8-1.9 1.5c0 .9.7 1.4 1.6 1.4c1.5 0 2.9-1.1 2.9-2.8zm11.2 4.9s-1.88-.02-1.9 0c-2.1 0-3.5-.7-3.5-3.8c-.02 0 0-5.3 0-5.3h-2.1v-2.5h2.1v-2.6l2.8-.8v3.4h2.3v2.5h-2.3s-.03 5.43 0 5.4c0 .7.2 1.2 1.1 1.2h1.5v2.5zm1.4-13.1h3v-3.2h-3v3.2zm.1 1.5h2.8V45h-2.8V33.4zM174.1 45h-3l-4.3-11.6h3l2.8 8.3l2.9-8.3h2.9L174.1 45zm7.4-5c.1 1.9 1.4 2.8 3 2.8c1.1 0 2.1-.4 2.5-1.5h2.5c-.5 2.6-2.7 3.9-5.1 3.9c-2.8 0-5.6-1.9-5.6-6c0-4 2.6-6 5.6-6c2.8 0 5.2 1.8 5.2 5.7c-.01-.01 0 1.1 0 1.1c0 0-8.08.03-8.1 0zm.1-2h5.3c0-1.5-1.1-2.4-2.5-2.4c-1.3 0-2.6.7-2.8 2.4zm8.8-10.2l.9-1.1c3.4 2.2 5.8 6.3 5.8 11.1c0 4.9-2.4 8.9-5.8 11.1l-.9-1.1c2.8-2.2 4.8-5.7 4.8-10c0-4.2-2-7.7-4.8-10zm10 17h-1.5v-2.9h3.2s.04 2.49 0 2.5c0 3-2 4.1-3.9 4.3l-.3-1.5c1.5-.2 2.5-1.1 2.5-2.4zm21 .2h-2.6l-2.4-7.4L214 45h-2.6l-3.9-11.6h3l2.3 7.7l2.3-7.7h2.7l2.4 7.7l2.2-7.7h2.9L221.4 45zm15.6-7.5c-.04.01 0 7.5 0 7.5h-2.8s-.03-7.24 0-7.2c0-1.3-.8-2.1-2.1-2.1c-1.6 0-2.5 1.1-2.5 3c-.03.02 0 6.3 0 6.3h-2.8v-16h2.8s-.03 6.03 0 6c.6-1.1 1.6-1.8 3.5-1.8c2.6 0 3.9 1.5 3.9 4.3zm11.8-.3c.05-.01 0 7.8 0 7.8h-2.7s.02-1.7 0-1.7c-.9 1.5-2.3 1.9-3.5 1.9c-1.8 0-3.7-1.1-3.7-3.6c0-1.8 1-3 3.6-3.4l2.5-.4c.7-.1 1.2-.3 1.2-1c0-1-.8-1.4-1.9-1.4c-1.5 0-2.2.7-2.3 1.7h-2.7c.3-2.7 2.5-3.9 5.1-3.9c2.7 0 4.4 1.3 4.4 4zm-2.7 2.9v-.6c-.2.1-.8.3-1.3.3l-1.3.2c-1.4.2-1.9.8-1.9 1.5c0 .9.7 1.4 1.7 1.4c1.4 0 2.8-1.1 2.8-2.8zm11.2 4.9s-1.84-.02-1.8 0c-2.2 0-3.6-.7-3.6-3.8v-5.3h-2.1v-2.5h2.1v-2.6l2.8-.8v3.4h2.3v2.5h-2.3v5.4c0 .7.2 1.2 1.2 1.2h1.4v2.5zm13.6-9s-.76-.03-.8 0c-1.9 0-3 1-3 3.3c.02.01 0 5.7 0 5.7h-2.8V33.4h2.8v1.6c.6-1.2 1.7-1.7 3-1.7c.02-.04.8 0 .8 0v2.7zm11.7 3.2c0 3.8-2.4 6-5.7 6c-3.2 0-5.6-2.2-5.6-6c0-3.8 2.4-6 5.6-6c3.3 0 5.7 2.2 5.7 6zm-8.4 0c0 2.3 1.2 3.4 2.8 3.4c1.6 0 2.8-1.2 2.8-3.4c0-2.3-1.3-3.4-2.9-3.4c-1.6 0-2.7 1.2-2.7 3.4zm13.2 5.8h-2.8v-16h2.8v16zm4.7-5c.1 1.9 1.4 2.8 3 2.8c1.1 0 2.1-.4 2.5-1.5h2.5c-.5 2.6-2.8 3.9-5.1 3.9c-2.8 0-5.6-1.9-5.6-6c0-4 2.6-6 5.6-6c2.8 0 5.2 1.8 5.2 5.7c-.03-.01 0 1.1 0 1.1c0 0-8.09.03-8.1 0zm.1-2h5.2c0-1.5-1-2.4-2.5-2.4c-1.2 0-2.5.7-2.7 2.4zm25.4 7h-2.7s.01-1.8 0-1.8c-.6 1.3-2 2-3.6 2c-2.7 0-5-2-5-6c0-4 2.3-6 5-6c1.6 0 2.9.6 3.5 1.7c.05.02 0-5.9 0-5.9h2.8v16zm-2.7-5.8c0-2.4-1.4-3.5-2.9-3.5c-1.5 0-2.9 1.1-2.9 3.5c0 2.3 1.4 3.5 2.9 3.5c1.5 0 2.9-1.2 2.9-3.5zm16.1 0c0 3.8-2.5 6-5.7 6c-3.2 0-5.7-2.2-5.7-6c0-3.8 2.5-6 5.7-6c3.2 0 5.7 2.2 5.7 6zm-8.5 0c0 2.3 1.3 3.4 2.8 3.4c1.7 0 2.8-1.2 2.8-3.4c0-2.3-1.3-3.4-2.8-3.4c-1.7 0-2.8 1.2-2.8 3.4zm12.4.8c.1 1.9 1.4 2.8 3 2.8c1.1 0 2.1-.4 2.5-1.5h2.5c-.5 2.6-2.7 3.9-5.1 3.9c-2.8 0-5.6-1.9-5.6-6c0-4 2.6-6 5.6-6c2.8 0 5.2 1.8 5.2 5.7c-.01-.01 0 1.1 0 1.1c0 0-8.08.03-8.1 0zm.1-2h5.3c0-1.5-1.1-2.4-2.5-2.4c-1.3 0-2.6.7-2.8 2.4zm19.2 3.4c0 2.6-2.3 3.8-4.9 3.8c-2.4 0-5-1-5.2-3.9h2.9c.1 1.1 1.2 1.6 2.5 1.6c1.2 0 2-.4 2-1.2c0-.8-.6-.9-2.1-1.2c-2.3-.4-4.9-.8-4.9-3.6c0-2.6 2.2-3.7 4.6-3.7c2.7 0 4.7 1.3 4.9 3.9h-2.8c-.1-1.1-.9-1.6-2.1-1.6c-1.3 0-1.9.6-1.9 1.3c0 .9 1 1.1 2.4 1.3c2.1.3 4.6.6 4.6 3.3zm10.3 3.6h-2.9V29.2h10.6v2.8h-7.7v3.6h7.3v2.8h-7.3v6.6zm8.9-13.1h3v-3.2h-3v3.2zm.1 1.5h2.8V45h-2.8V33.4zm10.6 7.9l-2.7 3.7h-3.5l4.4-5.8l-4.4-5.8h3.6l2.6 3.6l2.5-3.6h3.5l-4.2 5.6l4.5 6h-3.6l-2.7-3.7zm9.4-1.3c.1 1.9 1.4 2.8 3 2.8c1.1 0 2.1-.4 2.5-1.5h2.5c-.5 2.6-2.8 3.9-5.2 3.9c-2.7 0-5.5-1.9-5.5-6c0-4 2.6-6 5.6-6c2.8 0 5.2 1.8 5.2 5.7c-.04-.01 0 1.1 0 1.1c0 0-8.11.03-8.1 0zm.1-2h5.2c0-1.5-1-2.4-2.5-2.4c-1.3 0-2.5.7-2.7 2.4zm20.6 7h-2.7s-.03-1.8 0-1.8c-.7 1.3-2 2-3.6 2c-2.7 0-5.1-2-5.1-6c0-4 2.4-6 5.1-6c1.5 0 2.8.6 3.5 1.7V29h2.8v16zm-2.7-5.8c0-2.4-1.4-3.5-2.9-3.5c-1.6 0-2.9 1.1-2.9 3.5c0 2.3 1.3 3.5 2.9 3.5c1.5 0 2.9-1.2 2.9-3.5z" stroke="none" fill="#000"/></g><g id="Polygon9754"><path d="m16.8 19.8h-2.9L10.6 8.5l-3.3 11.3H4.4L.3 4h3.1L6 15L9.2 4h2.9l3.2 11.1L17.9 4h3l-4.1 15.8zm5.7-13.1h3V3.5h-3v3.2zm.1 1.5h2.8v11.6h-2.8V8.2zM34 19.8s-1.83-.02-1.8 0c-2.2 0-3.6-.7-3.6-3.8c.02 0 0-5.3 0-5.3h-2.1V8.2h2.1V5.6l2.8-.8v3.4h2.3v2.5h-2.3s.02 5.43 0 5.4c0 .7.2 1.2 1.2 1.2h1.4v2.5zm11.8-7.5c-.04.01 0 7.5 0 7.5H43s-.03-7.24 0-7.2c0-1.3-.8-2.1-2.1-2.1c-1.6 0-2.5 1.1-2.5 3c-.03.02 0 6.3 0 6.3h-2.8v-16h2.8s-.03 6.03 0 6C39 8.7 40 8 41.9 8c2.6 0 3.9 1.5 3.9 4.3zm8.1-5.6h3V3.5h-3v3.2zm.1 1.5h2.8v11.6H54V8.2zm15.7 4.1c.02.01 0 7.5 0 7.5h-2.8s.03-7.24 0-7.2c0-1.3-.7-2.1-2-2.1c-1.6 0-2.6 1.1-2.6 3c.03.02 0 6.3 0 6.3h-2.8V8.2h2.8s.01 1.67 0 1.7C63 8.8 63.9 8 65.8 8c2.7 0 3.9 1.5 3.9 4.3zm8.6 7.5s-1.86-.02-1.9 0c-2.1 0-3.5-.7-3.5-3.8v-5.3h-2.1V8.2h2.1V5.6l2.8-.8v3.4h2.3v2.5h-2.3s-.02 5.43 0 5.4c0 .7.2 1.2 1.2 1.2h1.4v2.5zm3.5-5c.1 1.9 1.4 2.8 3 2.8c1.1 0 2.1-.4 2.5-1.5h2.5c-.5 2.6-2.8 3.9-5.1 3.9c-2.8 0-5.6-1.9-5.6-6c0-4 2.6-6 5.6-6c2.8 0 5.2 1.8 5.2 5.7c-.02-.01 0 1.1 0 1.1c0 0-8.09.03-8.1 0zm.1-2h5.2c0-1.5-1-2.4-2.5-2.4c-1.2 0-2.5.7-2.7 2.4zm16.5-2s-.71-.03-.7 0c-2 0-3 1-3 3.3c-.03.01 0 5.7 0 5.7h-2.8V8.2h2.7s.05 1.65 0 1.6c.6-1.2 1.7-1.7 3.1-1.7c-.03-.04.7 0 .7 0v2.7zm3.2 4c0 1.9 1.4 2.8 2.9 2.8c1.1 0 2.2-.4 2.5-1.5h2.6c-.5 2.6-2.8 3.9-5.2 3.9c-2.8 0-5.6-1.9-5.6-6c0-4 2.7-6 5.6-6c2.8 0 5.2 1.8 5.2 5.7c.02-.01 0 1.1 0 1.1c0 0-8.05.03-8 0zm0-2h5.3c0-1.5-1.1-2.4-2.5-2.4c-1.3 0-2.5.7-2.8 2.4zm19.3 3.4c0 2.6-2.3 3.8-4.9 3.8c-2.4 0-5-1-5.2-3.9h2.8c.2 1.1 1.2 1.6 2.5 1.6c1.2 0 2-.4 2-1.2c0-.8-.5-.9-2.1-1.2c-2.3-.4-4.9-.8-4.9-3.6c0-2.6 2.2-3.7 4.6-3.7c2.7 0 4.7 1.3 4.9 3.9h-2.7c-.1-1.1-1-1.6-2.1-1.6c-1.4 0-2 .6-2 1.3c0 .9 1.1 1.1 2.5 1.3c2.1.3 4.6.6 4.6 3.3zm7.8 3.6s-1.84-.02-1.8 0c-2.2 0-3.6-.7-3.6-3.8v-5.3h-2.1V8.2h2.1V5.6l2.8-.8v3.4h2.3v2.5h-2.3v5.4c0 .7.2 1.2 1.2 1.2h1.4v2.5zm13.6-9s-.76-.03-.8 0c-1.9 0-3 1-3 3.3v5.7h-2.8V8.2h2.8v1.6c.6-1.2 1.7-1.7 3-1.7c.02-.04.8 0 .8 0v2.7zm10.6 1.2v7.8h-2.7s-.03-1.7 0-1.7c-.9 1.5-2.3 1.9-3.5 1.9c-1.9 0-3.8-1.1-3.8-3.6c0-1.8 1-3 3.7-3.4l2.5-.4c.7-.1 1.2-.3 1.2-1c0-1-.9-1.4-2-1.4c-1.5 0-2.1.7-2.2 1.7h-2.7c.3-2.7 2.4-3.9 5-3.9c2.8 0 4.5 1.3 4.5 4zm-2.7 2.9v-.6c-.3.1-.8.3-1.4.3l-1.2.2c-1.4.2-1.9.8-1.9 1.5c0 .9.6 1.4 1.6 1.4c1.5 0 2.9-1.1 2.9-2.8zm11.1 4.9s-1.79-.02-1.8 0c-2.1 0-3.5-.7-3.5-3.8c-.04 0 0-5.3 0-5.3h-2.2V8.2h2.2V5.6l2.8-.8v3.4h2.3v2.5h-2.3s-.04 5.43 0 5.4c0 .7.1 1.2 1.1 1.2h1.4v2.5zm3.6-5c.1 1.9 1.4 2.8 3 2.8c1.1 0 2.1-.4 2.4-1.5h2.6c-.5 2.6-2.8 3.9-5.2 3.9c-2.7 0-5.5-1.9-5.5-6c0-4 2.6-6 5.6-6c2.8 0 5.2 1.8 5.2 5.7c-.05-.01 0 1.1 0 1.1c0 0-8.11.03-8.1 0zm.1-2h5.2c0-1.5-1-2.4-2.5-2.4c-1.3 0-2.5.7-2.7 2.4zm19.2 3.4c0 2.6-2.3 3.8-4.9 3.8c-2.4 0-5-1-5.2-3.9h2.8c.2 1.1 1.2 1.6 2.5 1.6c1.2 0 2.1-.4 2.1-1.2c0-.8-.6-.9-2.2-1.2c-2.3-.4-4.8-.8-4.8-3.6c0-2.6 2.2-3.7 4.6-3.7c2.7 0 4.7 1.3 4.8 3.9h-2.7c-.1-1.1-.9-1.6-2.1-1.6c-1.4 0-1.9.6-1.9 1.3c0 .9 1 1.1 2.4 1.3c2.1.3 4.6.6 4.6 3.3zm16 0c0 2.6-2.3 3.8-4.9 3.8c-2.4 0-5-1-5.2-3.9h2.8c.2 1.1 1.2 1.6 2.5 1.6c1.2 0 2-.4 2-1.2c0-.8-.5-.9-2.1-1.2c-2.3-.4-4.9-.8-4.9-3.6c0-2.6 2.3-3.7 4.6-3.7c2.8 0 4.7 1.3 4.9 3.9h-2.7c-.1-1.1-.9-1.6-2.1-1.6c-1.4 0-1.9.6-1.9 1.3c0 .9 1 1.1 2.4 1.3c2.1.3 4.6.6 4.6 3.3zm12.5-2.2c0 3.8-2.5 6-5.7 6c-3.2 0-5.7-2.2-5.7-6c0-3.8 2.5-6 5.7-6c3.2 0 5.7 2.2 5.7 6zm-8.5 0c0 2.3 1.3 3.4 2.8 3.4c1.7 0 2.8-1.2 2.8-3.4c0-2.3-1.3-3.4-2.8-3.4c-1.7 0-2.8 1.2-2.8 3.4zm18.5 5.8h-2.8v-16h2.8v16zM236 14c0 3.8-2.4 6-5.7 6c-3.2 0-5.6-2.2-5.6-6c0-3.8 2.4-6 5.6-6c3.3 0 5.7 2.2 5.7 6zm-8.4 0c0 2.3 1.2 3.4 2.8 3.4c1.6 0 2.8-1.2 2.8-3.4c0-2.3-1.3-3.4-2.9-3.4c-1.6 0-2.7 1.2-2.7 3.4zm22.9 5.8h-2.7l-2.4-7.4l-2.3 7.4h-2.7l-3.9-11.6h3l2.3 7.7l2.3-7.7h2.8l2.3 7.7l2.3-7.7h2.8l-3.8 11.6z" stroke="none" fill="#000"/></g></svg>