<?xml version="1.0" standalone="no"?><!DOCTYPE svg PUBLIC "-//W3C//DTD SVG 1.1//EN" "http://www.w3.org/Graphics/SVG/1.1/DTD/svg11.dtd"><svg xmlns="http://www.w3.org/2000/svg" version="1.1" width="353px" height="109.2px" viewBox="0 0 353 109.2">  <desc>Duco Slob Senior Portfolio Manager SRI, InsingerGilissen</desc>  <defs/>  <g id="Polygon9724">    <path d="M 4.1 80.2 L 2.3 80.2 L 2.3 62.2 L 4.1 62.2 L 4.1 80.2 Z M 18.8 71.4 C 18.77 71.38 18.8 80.2 18.8 80.2 L 17 80.2 C 17 80.2 17.02 71.59 17 71.6 C 17 69.8 16 68.7 14.2 68.7 C 12 68.7 10.1 70.3 10.1 73.4 C 10.06 73.44 10.1 80.2 10.1 80.2 L 8.3 80.2 L 8.3 67.3 L 10.1 67.3 C 10.1 67.3 10.06 69.72 10.1 69.7 C 10.8 68.2 12.3 67.1 14.5 67.1 C 17.1 67.1 18.8 68.5 18.8 71.4 Z M 32.1 76.6 C 32.1 79.2 29.7 80.5 27.1 80.5 C 24.3 80.5 21.8 79.1 21.5 76.2 C 21.5 76.2 23.4 76.2 23.4 76.2 C 23.7 78.1 25.4 78.9 27.1 78.9 C 28.8 78.9 30.2 78.2 30.2 76.8 C 30.2 75.3 28.8 75 27.2 74.7 C 24.8 74.3 21.8 73.9 21.8 70.9 C 21.8 68.3 24 67.1 26.7 67.1 C 29.4 67.1 31.6 68.4 31.7 70.9 C 31.7 70.9 29.9 70.9 29.9 70.9 C 29.8 69.4 28.3 68.6 26.6 68.6 C 24.9 68.6 23.7 69.4 23.7 70.8 C 23.7 72.4 25.2 72.7 27.2 73 C 29.5 73.4 32.1 73.8 32.1 76.6 Z M 36.8 61.9 L 34.8 61.9 L 34.8 64.1 L 36.8 64.1 L 36.8 61.9 Z M 36.7 80.2 L 34.9 80.2 L 34.9 67.3 L 36.7 67.3 L 36.7 80.2 Z M 51 71.4 C 51 71.38 51 80.2 51 80.2 L 49.2 80.2 C 49.2 80.2 49.25 71.59 49.2 71.6 C 49.2 69.8 48.2 68.7 46.4 68.7 C 44.2 68.7 42.3 70.3 42.3 73.4 C 42.29 73.44 42.3 80.2 42.3 80.2 L 40.5 80.2 L 40.5 67.3 L 42.3 67.3 C 42.3 67.3 42.29 69.72 42.3 69.7 C 43.1 68.2 44.5 67.1 46.8 67.1 C 49.3 67.1 51 68.5 51 71.4 Z M 65.8 79.6 C 65.8 83.5 63.3 85.4 60 85.4 C 57.1 85.4 54.6 84 54.2 81 C 54.2 81 55.9 81 55.9 81 C 56.2 82.6 57.4 84 60 84 C 62.4 84 64.1 82.8 64.1 79.7 C 64.1 79.7 64.1 77.2 64.1 77.2 C 63.2 79.1 61.2 79.7 59.6 79.7 C 56.4 79.7 53.9 77.6 53.9 73.4 C 53.9 69.2 56.6 67.1 59.6 67.1 C 61.7 67.1 63.3 68 64.1 69.4 C 64.08 69.41 64.1 67.3 64.1 67.3 L 65.8 67.3 C 65.8 67.3 65.81 79.63 65.8 79.6 Z M 64 73.4 C 64 70.1 62.1 68.6 59.9 68.6 C 57.7 68.6 55.6 70.2 55.6 73.4 C 55.6 76.6 57.6 78.1 59.9 78.1 C 61.9 78.1 64 76.8 64 73.4 Z M 70.4 74.2 C 70.5 77.4 72.4 78.9 74.7 78.9 C 76.4 78.9 78.1 78 78.5 76.2 C 78.5 76.2 80.1 76.2 80.1 76.2 C 79.6 79.2 77.1 80.5 74.6 80.5 C 71.5 80.5 68.7 78.4 68.7 73.8 C 68.7 69.2 71.6 67.1 74.7 67.1 C 77.7 67.1 80.2 69 80.2 73.3 C 80.23 73.32 80.2 74.2 80.2 74.2 C 80.2 74.2 70.41 74.18 70.4 74.2 Z M 70.5 72.7 C 70.5 72.7 78.5 72.7 78.5 72.7 C 78.5 70.1 76.8 68.6 74.6 68.6 C 72.6 68.6 70.7 69.9 70.5 72.7 Z M 89.7 68.8 C 89.7 68.8 89.25 68.83 89.3 68.8 C 86.5 68.8 85 70.4 85 73.4 C 84.98 73.37 85 80.2 85 80.2 L 83.2 80.2 L 83.2 67.3 L 85 67.3 C 85 67.3 84.96 69.7 85 69.7 C 85.6 68 87.1 67.2 89.1 67.2 C 89.11 67.18 89.7 67.2 89.7 67.2 L 89.7 68.8 Z M 107.3 71.2 L 107.3 80.2 L 105.6 80.2 C 105.6 80.2 105.65 77.52 105.6 77.5 C 104.6 79.4 102.5 80.7 99.6 80.7 C 94.2 80.7 91.3 76.2 91.3 71.1 C 91.3 65.5 94.9 61.8 99.9 61.8 C 103.6 61.8 106.9 63.8 107.3 67.6 C 107.3 67.6 105.4 67.6 105.4 67.6 C 105.1 65 102.7 63.5 99.9 63.5 C 96.1 63.5 93.2 66.4 93.2 71.1 C 93.2 75.3 95.4 79 99.8 79 C 103.2 79 105.6 76.7 105.6 72.8 C 105.6 72.84 99.5 72.8 99.5 72.8 L 99.5 71.2 L 107.3 71.2 Z M 113.2 61.9 L 111.2 61.9 L 111.2 64.1 L 113.2 64.1 L 113.2 61.9 Z M 113 80.2 L 111.3 80.2 L 111.3 67.3 L 113 67.3 L 113 80.2 Z M 118.6 80.2 L 116.9 80.2 L 116.9 61.9 L 118.6 61.9 L 118.6 80.2 Z M 124.3 61.9 L 122.3 61.9 L 122.3 64.1 L 124.3 64.1 L 124.3 61.9 Z M 124.2 80.2 L 122.5 80.2 L 122.5 67.3 L 124.2 67.3 L 124.2 80.2 Z M 137.6 76.6 C 137.6 79.2 135.3 80.5 132.7 80.5 C 129.9 80.5 127.4 79.1 127.1 76.2 C 127.1 76.2 129 76.2 129 76.2 C 129.3 78.1 130.9 78.9 132.7 78.9 C 134.3 78.9 135.8 78.2 135.8 76.8 C 135.8 75.3 134.3 75 132.8 74.7 C 130.3 74.3 127.4 73.9 127.4 70.9 C 127.4 68.3 129.6 67.1 132.3 67.1 C 135 67.1 137.2 68.4 137.3 70.9 C 137.3 70.9 135.5 70.9 135.5 70.9 C 135.4 69.4 133.9 68.6 132.2 68.6 C 130.4 68.6 129.2 69.4 129.2 70.8 C 129.2 72.4 130.8 72.7 132.7 73 C 135.1 73.4 137.6 73.8 137.6 76.6 Z M 150.1 76.6 C 150.1 79.2 147.7 80.5 145.1 80.5 C 142.4 80.5 139.8 79.1 139.6 76.2 C 139.6 76.2 141.4 76.2 141.4 76.2 C 141.7 78.1 143.4 78.9 145.1 78.9 C 146.8 78.9 148.3 78.2 148.3 76.8 C 148.3 75.3 146.8 75 145.3 74.7 C 142.8 74.3 139.9 73.9 139.9 70.9 C 139.9 68.3 142.1 67.1 144.7 67.1 C 147.5 67.1 149.6 68.4 149.8 70.9 C 149.8 70.9 147.9 70.9 147.9 70.9 C 147.8 69.4 146.3 68.6 144.6 68.6 C 142.9 68.6 141.7 69.4 141.7 70.8 C 141.7 72.4 143.3 72.7 145.2 73 C 147.5 73.4 150.1 73.8 150.1 76.6 Z M 153.9 74.2 C 153.9 77.4 155.9 78.9 158.2 78.9 C 159.9 78.9 161.5 78 161.9 76.2 C 161.9 76.2 163.6 76.2 163.6 76.2 C 163 79.2 160.5 80.5 158.1 80.5 C 155 80.5 152.1 78.4 152.1 73.8 C 152.1 69.2 155 67.1 158.1 67.1 C 161.2 67.1 163.7 69 163.7 73.3 C 163.68 73.32 163.7 74.2 163.7 74.2 C 163.7 74.2 153.86 74.18 153.9 74.2 Z M 153.9 72.7 C 153.9 72.7 161.9 72.7 161.9 72.7 C 161.9 70.1 160.2 68.6 158.1 68.6 C 156 68.6 154.1 69.9 153.9 72.7 Z M 177.1 71.4 C 177.14 71.38 177.1 80.2 177.1 80.2 L 175.4 80.2 C 175.4 80.2 175.39 71.59 175.4 71.6 C 175.4 69.8 174.4 68.7 172.6 68.7 C 170.3 68.7 168.4 70.3 168.4 73.4 C 168.43 73.44 168.4 80.2 168.4 80.2 L 166.7 80.2 L 166.7 67.3 L 168.4 67.3 C 168.4 67.3 168.43 69.72 168.4 69.7 C 169.2 68.2 170.6 67.1 172.9 67.1 C 175.5 67.1 177.1 68.5 177.1 71.4 Z " stroke="none" fill="#000"/>  </g>  <g id="Polygon9723">    <path d="M 8.2 51.9 C 4.4 51.9 1.3 49.6 1.2 45.7 C 1.2 45.7 3.2 45.7 3.2 45.7 C 3.3 48.8 5.7 50.2 8.2 50.2 C 10.6 50.2 12.4 49 12.4 46.9 C 12.4 44.5 10 43.9 7.5 43.3 C 4.7 42.6 1.8 41.6 1.8 38.1 C 1.8 34.8 4.4 33 7.8 33 C 11 33 13.8 34.5 14 38 C 14 38 12.1 38 12.1 38 C 12 35.6 10 34.6 7.8 34.6 C 5.5 34.6 3.6 35.7 3.6 38 C 3.6 40.5 5.8 41 8.3 41.7 C 11.2 42.4 14.3 43.2 14.3 46.7 C 14.3 50.1 11.5 51.9 8.2 51.9 Z M 18.3 45.4 C 18.4 48.6 20.4 50.1 22.6 50.1 C 24.3 50.1 26 49.2 26.4 47.4 C 26.4 47.4 28.1 47.4 28.1 47.4 C 27.5 50.4 25 51.7 22.5 51.7 C 19.5 51.7 16.6 49.6 16.6 45 C 16.6 40.4 19.5 38.3 22.6 38.3 C 25.7 38.3 28.2 40.2 28.2 44.5 C 28.15 44.52 28.2 45.4 28.2 45.4 C 28.2 45.4 18.34 45.38 18.3 45.4 Z M 18.4 43.9 C 18.4 43.9 26.4 43.9 26.4 43.9 C 26.4 41.3 24.7 39.8 22.5 39.8 C 20.5 39.8 18.6 41.1 18.4 43.9 Z M 41.6 42.6 C 41.62 42.58 41.6 51.4 41.6 51.4 L 39.9 51.4 C 39.9 51.4 39.86 42.79 39.9 42.8 C 39.9 41 38.9 39.9 37 39.9 C 34.8 39.9 32.9 41.5 32.9 44.6 C 32.9 44.64 32.9 51.4 32.9 51.4 L 31.2 51.4 L 31.2 38.5 L 32.9 38.5 C 32.9 38.5 32.9 40.92 32.9 40.9 C 33.7 39.4 35.1 38.3 37.4 38.3 C 39.9 38.3 41.6 39.7 41.6 42.6 Z M 47.2 33.1 L 45.2 33.1 L 45.2 35.3 L 47.2 35.3 L 47.2 33.1 Z M 47.1 51.4 L 45.3 51.4 L 45.3 38.5 L 47.1 38.5 L 47.1 51.4 Z M 50.1 45 C 50.1 40.8 52.6 38.3 56.2 38.3 C 59.7 38.3 62.3 40.8 62.3 45 C 62.3 49.2 59.8 51.7 56.2 51.7 C 52.7 51.7 50.1 49.2 50.1 45 Z M 60.5 44.9 C 60.5 41.7 58.6 39.9 56.2 39.9 C 53.6 39.9 51.9 41.9 51.9 45 C 51.9 48.2 53.8 50 56.2 50 C 58.7 50 60.5 48.1 60.5 44.9 Z M 71.7 40 C 71.7 40 71.33 40.03 71.3 40 C 68.6 40 67.1 41.6 67.1 44.6 C 67.06 44.57 67.1 51.4 67.1 51.4 L 65.3 51.4 L 65.3 38.5 L 67 38.5 C 67 38.5 67.03 40.9 67 40.9 C 67.6 39.2 69.2 38.4 71.2 38.4 C 71.18 38.38 71.7 38.4 71.7 38.4 L 71.7 40 Z M 92 38.4 C 92 41.1 90.1 43.8 86.3 43.8 C 86.33 43.8 81.8 43.8 81.8 43.8 L 81.8 51.4 L 80 51.4 L 80 33.4 C 80 33.4 86.64 33.41 86.6 33.4 C 90.2 33.4 92 35.8 92 38.4 Z M 90.2 38.6 C 90.2 36.7 88.9 35 86.4 35 C 86.4 35.02 81.8 35 81.8 35 L 81.8 42.2 C 81.8 42.2 86.33 42.19 86.3 42.2 C 88.9 42.2 90.2 40.4 90.2 38.6 Z M 93.2 45 C 93.2 40.8 95.8 38.3 99.3 38.3 C 102.9 38.3 105.5 40.8 105.5 45 C 105.5 49.2 102.9 51.7 99.4 51.7 C 95.8 51.7 93.2 49.2 93.2 45 Z M 103.7 44.9 C 103.7 41.7 101.7 39.9 99.3 39.9 C 96.8 39.9 95 41.9 95 45 C 95 48.2 97 50 99.4 50 C 101.9 50 103.7 48.1 103.7 44.9 Z M 114.9 40 C 114.9 40 114.48 40.03 114.5 40 C 111.7 40 110.2 41.6 110.2 44.6 C 110.21 44.57 110.2 51.4 110.2 51.4 L 108.5 51.4 L 108.5 38.5 L 110.2 38.5 C 110.2 38.5 110.18 40.9 110.2 40.9 C 110.8 39.2 112.3 38.4 114.3 38.4 C 114.33 38.38 114.9 38.4 114.9 38.4 L 114.9 40 Z M 123.5 51.4 C 123.5 51.4 121.63 51.41 121.6 51.4 C 119.9 51.4 118.4 50.9 118.4 48 C 118.39 48.02 118.4 40.1 118.4 40.1 L 115.8 40.1 L 115.8 38.5 L 118.4 38.5 L 118.4 34.9 L 120.1 34.4 L 120.1 38.5 L 123.3 38.5 L 123.3 40.1 L 120.1 40.1 C 120.1 40.1 120.14 48 120.1 48 C 120.1 49.2 120.5 49.8 121.9 49.8 C 121.92 49.82 123.5 49.8 123.5 49.8 L 123.5 51.4 Z M 130.1 34.7 C 128.7 34.7 128.4 35.3 128.4 36.5 C 128.37 36.53 128.4 38.5 128.4 38.5 L 131.2 38.5 L 131.2 40.1 L 128.4 40.1 L 128.4 51.4 L 126.6 51.4 L 126.6 40.1 L 124.5 40.1 L 124.5 38.5 L 126.6 38.5 C 126.6 38.5 126.62 36.48 126.6 36.5 C 126.6 33.6 128.2 33.1 129.9 33.1 C 129.86 33.12 131.6 33.1 131.6 33.1 L 131.6 34.7 C 131.6 34.7 130.15 34.68 130.1 34.7 Z M 132.8 45 C 132.8 40.8 135.3 38.3 138.9 38.3 C 142.4 38.3 145 40.8 145 45 C 145 49.2 142.4 51.7 138.9 51.7 C 135.3 51.7 132.8 49.2 132.8 45 Z M 143.2 44.9 C 143.2 41.7 141.2 39.9 138.8 39.9 C 136.3 39.9 134.6 41.9 134.6 45 C 134.6 48.2 136.5 50 138.9 50 C 141.4 50 143.2 48.1 143.2 44.9 Z M 149.7 51.4 L 148 51.4 L 148 33.1 L 149.7 33.1 L 149.7 51.4 Z M 155.4 33.1 L 153.5 33.1 L 153.5 35.3 L 155.4 35.3 L 155.4 33.1 Z M 155.3 51.4 L 153.6 51.4 L 153.6 38.5 L 155.3 38.5 L 155.3 51.4 Z M 158.3 45 C 158.3 40.8 160.9 38.3 164.4 38.3 C 168 38.3 170.5 40.8 170.5 45 C 170.5 49.2 168 51.7 164.4 51.7 C 160.9 51.7 158.3 49.2 158.3 45 Z M 168.7 44.9 C 168.7 41.7 166.8 39.9 164.4 39.9 C 161.9 39.9 160.1 41.9 160.1 45 C 160.1 48.2 162.1 50 164.5 50 C 167 50 168.7 48.1 168.7 44.9 Z M 196.8 51.4 L 195 51.4 L 195 35.8 L 189 51.4 L 187.5 51.4 L 181.5 35.8 L 181.5 51.4 L 179.8 51.4 L 179.8 33.4 L 182.5 33.4 L 188.3 48.6 L 194.1 33.4 L 196.8 33.4 L 196.8 51.4 Z M 208.8 49.1 C 207.8 51 205.9 51.7 204.2 51.7 C 202 51.7 200.1 50.4 200.1 47.8 C 200.1 45.5 201.8 44.4 204 44.1 C 204 44.1 207 43.7 207 43.7 C 208 43.5 208.8 43.2 208.8 42.1 C 208.8 40.6 207.5 39.7 205.7 39.7 C 203.8 39.7 202.6 40.7 202.3 42.1 C 202.3 42.1 200.6 42.1 200.6 42.1 C 200.9 39.6 203 38.3 205.8 38.3 C 208.7 38.3 210.5 39.6 210.5 42.5 C 210.53 42.5 210.5 51.4 210.5 51.4 L 208.8 51.4 C 208.8 51.4 208.82 49.06 208.8 49.1 Z M 206.7 45.1 C 206.7 45.1 204.7 45.4 204.7 45.4 C 203.1 45.6 201.9 46.2 201.9 47.8 C 201.9 49.4 203.1 50.1 204.5 50.1 C 206.5 50.1 208.8 48.6 208.8 45.8 C 208.8 45.8 208.8 44.6 208.8 44.6 C 208.3 44.9 207.5 45 206.7 45.1 Z M 224.6 42.6 C 224.59 42.58 224.6 51.4 224.6 51.4 L 222.8 51.4 C 222.8 51.4 222.84 42.79 222.8 42.8 C 222.8 41 221.8 39.9 220 39.9 C 217.8 39.9 215.9 41.5 215.9 44.6 C 215.88 44.64 215.9 51.4 215.9 51.4 L 214.1 51.4 L 214.1 38.5 L 215.9 38.5 C 215.9 38.5 215.88 40.92 215.9 40.9 C 216.6 39.4 218.1 38.3 220.3 38.3 C 222.9 38.3 224.6 39.7 224.6 42.6 Z M 236.2 49.1 C 235.2 51 233.3 51.7 231.6 51.7 C 229.4 51.7 227.5 50.4 227.5 47.8 C 227.5 45.5 229.2 44.4 231.4 44.1 C 231.4 44.1 234.4 43.7 234.4 43.7 C 235.4 43.5 236.2 43.2 236.2 42.1 C 236.2 40.6 234.9 39.7 233.1 39.7 C 231.2 39.7 230 40.7 229.7 42.1 C 229.7 42.1 228 42.1 228 42.1 C 228.3 39.6 230.4 38.3 233.2 38.3 C 236.2 38.3 237.9 39.6 237.9 42.5 C 237.93 42.5 237.9 51.4 237.9 51.4 L 236.2 51.4 C 236.2 51.4 236.23 49.06 236.2 49.1 Z M 234.1 45.1 C 234.1 45.1 232.1 45.4 232.1 45.4 C 230.5 45.6 229.3 46.2 229.3 47.8 C 229.3 49.4 230.5 50.1 231.9 50.1 C 233.9 50.1 236.2 48.6 236.2 45.8 C 236.2 45.8 236.2 44.6 236.2 44.6 C 235.7 44.9 235 45 234.1 45.1 Z M 252.6 50.8 C 252.6 54.7 250.1 56.6 246.8 56.6 C 243.9 56.6 241.4 55.2 241 52.2 C 241 52.2 242.8 52.2 242.8 52.2 C 243 53.8 244.2 55.2 246.8 55.2 C 249.2 55.2 250.9 54 250.9 50.9 C 250.9 50.9 250.9 48.4 250.9 48.4 C 250 50.3 248.1 50.9 246.4 50.9 C 243.2 50.9 240.7 48.8 240.7 44.6 C 240.7 40.4 243.4 38.3 246.5 38.3 C 248.5 38.3 250.1 39.2 250.9 40.6 C 250.89 40.61 250.9 38.5 250.9 38.5 L 252.6 38.5 C 252.6 38.5 252.62 50.83 252.6 50.8 Z M 250.8 44.6 C 250.8 41.3 248.9 39.8 246.7 39.8 C 244.5 39.8 242.4 41.4 242.4 44.6 C 242.4 47.8 244.4 49.3 246.7 49.3 C 248.7 49.3 250.8 48 250.8 44.6 Z M 257.2 45.4 C 257.3 48.6 259.2 50.1 261.5 50.1 C 263.2 50.1 264.9 49.2 265.3 47.4 C 265.3 47.4 266.9 47.4 266.9 47.4 C 266.4 50.4 263.9 51.7 261.4 51.7 C 258.4 51.7 255.5 49.6 255.5 45 C 255.5 40.4 258.4 38.3 261.5 38.3 C 264.5 38.3 267 40.2 267 44.5 C 267.04 44.52 267 45.4 267 45.4 C 267 45.4 257.23 45.38 257.2 45.4 Z M 257.3 43.9 C 257.3 43.9 265.3 43.9 265.3 43.9 C 265.3 41.3 263.6 39.8 261.4 39.8 C 259.4 39.8 257.5 41.1 257.3 43.9 Z M 276.5 40 C 276.5 40 276.07 40.03 276.1 40 C 273.3 40 271.8 41.6 271.8 44.6 C 271.8 44.57 271.8 51.4 271.8 51.4 L 270 51.4 L 270 38.5 L 271.8 38.5 C 271.8 38.5 271.77 40.9 271.8 40.9 C 272.4 39.2 273.9 38.4 275.9 38.4 C 275.92 38.38 276.5 38.4 276.5 38.4 L 276.5 40 Z M 290.8 51.9 C 287 51.9 283.9 49.6 283.8 45.7 C 283.8 45.7 285.8 45.7 285.8 45.7 C 285.9 48.8 288.3 50.2 290.8 50.2 C 293.2 50.2 295 49 295 46.9 C 295 44.5 292.6 43.9 290.1 43.3 C 287.3 42.6 284.4 41.6 284.4 38.1 C 284.4 34.8 287 33 290.4 33 C 293.6 33 296.4 34.5 296.6 38 C 296.6 38 294.7 38 294.7 38 C 294.6 35.6 292.6 34.6 290.4 34.6 C 288.1 34.6 286.2 35.7 286.2 38 C 286.2 40.5 288.4 41 290.9 41.7 C 293.8 42.4 296.9 43.2 296.9 46.7 C 296.9 50.1 294.1 51.9 290.8 51.9 Z M 311.4 51.4 L 306.3 43.6 L 302.1 43.6 L 302.1 51.4 L 300.3 51.4 L 300.3 33.4 C 300.3 33.4 306.69 33.41 306.7 33.4 C 310.4 33.4 312.3 35.7 312.3 38.3 C 312.3 40.5 310.9 42.6 308.3 43.3 C 308.3 43.32 313.6 51.4 313.6 51.4 L 311.4 51.4 Z M 306.6 42 C 309.1 42 310.5 40.2 310.5 38.4 C 310.5 36.6 309.3 35 306.8 35 C 306.79 35.02 302.1 35 302.1 35 L 302.1 42 C 302.1 42 306.57 42 306.6 42 Z M 318.1 51.4 L 316.3 51.4 L 316.3 33.4 L 318.1 33.4 L 318.1 51.4 Z M 323.5 51.3 C 323.54 51.26 322.4 51.3 322.4 51.3 L 322.4 48.9 L 324.9 48.9 C 324.9 48.9 324.93 51.34 324.9 51.3 C 324.9 54.2 323.3 55.2 321.5 55.4 C 321.5 55.4 321.2 54.3 321.2 54.3 C 323.2 53.9 323.5 52.8 323.5 51.3 Z " stroke="none" fill="#000"/>  </g>  <g id="Polygon9722">    <path d="M 16.9 13.2 C 16.9 17.8 13.8 22.6 7.3 22.6 C 7.32 22.61 1.8 22.6 1.8 22.6 L 1.8 4.6 C 1.8 4.6 7.75 4.61 7.8 4.6 C 13.9 4.6 16.9 8.8 16.9 13.2 Z M 13.6 13.2 C 13.6 10.4 11.8 7.7 7.9 7.7 C 7.87 7.73 5.1 7.7 5.1 7.7 L 5.1 19.5 C 5.1 19.5 7.37 19.46 7.4 19.5 C 11.5 19.5 13.6 16.3 13.6 13.2 Z M 31 22.6 L 27.9 22.6 C 27.9 22.6 27.91 20.74 27.9 20.7 C 27.1 22 25.9 22.8 24.1 22.8 C 21.3 22.8 19.3 21 19.3 17.6 C 19.32 17.59 19.3 9.4 19.3 9.4 L 22.5 9.4 C 22.5 9.4 22.51 17.35 22.5 17.4 C 22.5 19.2 23.4 19.9 24.8 19.9 C 26.5 19.9 27.8 18.8 27.8 15.8 C 27.84 15.77 27.8 9.4 27.8 9.4 L 31 9.4 L 31 22.6 Z M 39.7 22.9 C 35.4 22.9 33.3 19.6 33.3 16 C 33.3 12.4 35.4 9.1 39.7 9.1 C 43 9.1 45.5 11 45.6 14.1 C 45.6 14.1 42.5 14.1 42.5 14.1 C 42.3 12.9 41.4 12 39.8 12 C 37.5 12 36.5 13.9 36.5 16 C 36.5 18.1 37.5 19.9 39.8 19.9 C 41.3 19.9 42.3 19.1 42.5 17.9 C 42.5 17.9 45.6 17.9 45.6 17.9 C 45.2 21.1 42.9 22.9 39.7 22.9 Z M 60 16 C 60 20.3 57.3 22.9 53.6 22.9 C 49.9 22.9 47.1 20.3 47.1 16 C 47.1 11.7 49.9 9.1 53.6 9.1 C 57.3 9.1 60 11.7 60 16 Z M 50.4 16 C 50.4 18.7 51.8 19.9 53.6 19.9 C 55.5 19.9 56.8 18.5 56.8 16 C 56.8 13.3 55.3 12.1 53.5 12.1 C 51.6 12.1 50.4 13.5 50.4 16 Z M 75 23.1 C 71.3 23.1 67.6 21 67.6 16.5 C 67.6 16.5 71 16.5 71 16.5 C 71.1 19.2 73.1 20.2 75 20.2 C 76.8 20.2 78.3 19.3 78.3 17.8 C 78.3 16 76.3 15.6 74.2 15.1 C 71.6 14.5 68.2 13.6 68.2 9.7 C 68.2 6 71.3 4.2 74.7 4.2 C 78.1 4.2 81.3 6 81.3 9.6 C 81.3 9.6 78 9.6 78 9.6 C 77.9 7.8 76.3 7.1 74.6 7.1 C 72.8 7.1 71.5 7.8 71.5 9.4 C 71.5 11.2 73.2 11.7 75.2 12.1 C 77.5 12.6 81.6 13.3 81.6 17.6 C 81.6 21.2 78.6 23.1 75 23.1 Z M 87.2 22.6 L 84 22.6 L 84 4.3 L 87.2 4.3 L 87.2 22.6 Z M 102.4 16 C 102.4 20.3 99.7 22.9 96 22.9 C 92.3 22.9 89.5 20.3 89.5 16 C 89.5 11.7 92.3 9.1 96 9.1 C 99.7 9.1 102.4 11.7 102.4 16 Z M 92.8 16 C 92.8 18.7 94.2 19.9 96 19.9 C 97.9 19.9 99.2 18.5 99.2 16 C 99.2 13.3 97.7 12.1 95.9 12.1 C 94 12.1 92.8 13.5 92.8 16 Z M 117.7 16 C 117.7 20.6 114.9 22.9 111.8 22.9 C 110.1 22.9 108.6 22.2 107.8 21 C 107.83 21.02 107.8 22.6 107.8 22.6 L 104.7 22.6 L 104.7 4.3 L 107.9 4.3 C 107.9 4.3 107.9 11.3 107.9 11.3 C 108.6 9.9 110.2 9.1 112 9.1 C 115.1 9.1 117.7 11.4 117.7 16 Z M 114.5 16.1 C 114.5 13.4 112.9 12 111.2 12 C 109.4 12 107.8 13.3 107.8 16.1 C 107.8 18.8 109.4 20.1 111.2 20.1 C 112.9 20.1 114.5 18.7 114.5 16.1 Z " stroke="none" fill="#000"/>  </g></svg>