<?xml version="1.0" standalone="no"?><!DOCTYPE svg PUBLIC "-//W3C//DTD SVG 1.1//EN" "http://www.w3.org/Graphics/SVG/1.1/DTD/svg11.dtd"><svg xmlns="http://www.w3.org/2000/svg" version="1.1" width="368.3px" height="191.4px" viewBox="0 -4 368.3 191.4" style="top:-4px"> <desc>High Conviction to Seek Out Returns We re high-conviction investors, we re not benchmark huggers As yields stay low,</desc> <defs/> <g id="Polygon12485">  <path d="M 12.2 150.1 C 12.2 154.2 9.6 155.9 7 155.9 C 5.1 155.9 3.8 155 3.2 153.8 C 3.21 153.83 3.2 160.1 3.2 160.1 L 1.7 160.1 L 1.7 144.5 L 3.2 144.5 C 3.2 144.5 3.17 146.88 3.2 146.9 C 3.7 145.5 5.1 144.3 7.2 144.3 C 9.6 144.3 12.2 146 12.2 150.1 Z M 10.6 150.1 C 10.6 147 8.8 145.8 7 145.8 C 5.1 145.8 3.2 147 3.2 150.2 C 3.2 153.3 5.1 154.5 6.9 154.5 C 8.8 154.5 10.6 153.3 10.6 150.1 Z M 14.1 150.2 C 14.1 146.5 16.3 144.3 19.4 144.3 C 22.5 144.3 24.8 146.5 24.8 150.2 C 24.8 153.8 22.6 156 19.4 156 C 16.3 156 14.1 153.8 14.1 150.2 Z M 23.2 150.1 C 23.2 147.3 21.5 145.7 19.4 145.7 C 17.2 145.7 15.7 147.4 15.7 150.2 C 15.7 153 17.4 154.6 19.5 154.6 C 21.7 154.6 23.2 152.9 23.2 150.1 Z M 32.5 155.8 C 32.5 155.8 30.89 155.78 30.9 155.8 C 29.4 155.8 28.1 155.3 28.1 152.8 C 28.06 152.82 28.1 145.9 28.1 145.9 L 25.8 145.9 L 25.8 144.5 L 28.1 144.5 L 28.1 141.3 L 29.6 140.9 L 29.6 144.5 L 32.3 144.5 L 32.3 145.9 L 29.6 145.9 C 29.6 145.9 29.59 152.8 29.6 152.8 C 29.6 153.8 29.9 154.4 31.1 154.4 C 31.14 154.4 32.5 154.4 32.5 154.4 L 32.5 155.8 Z M 35.5 150.5 C 35.6 153.3 37.3 154.6 39.3 154.6 C 40.8 154.6 42.3 153.9 42.6 152.3 C 42.6 152.3 44 152.3 44 152.3 C 43.5 154.9 41.3 156 39.2 156 C 36.5 156 34 154.2 34 150.2 C 34 146.1 36.6 144.3 39.3 144.3 C 41.9 144.3 44.1 146 44.1 149.8 C 44.12 149.75 44.1 150.5 44.1 150.5 C 44.1 150.5 35.53 150.51 35.5 150.5 Z M 35.6 149.2 C 35.6 149.2 42.6 149.2 42.6 149.2 C 42.6 146.9 41.1 145.7 39.2 145.7 C 37.4 145.7 35.8 146.8 35.6 149.2 Z M 55.9 148.1 C 55.9 148.05 55.9 155.8 55.9 155.8 L 54.4 155.8 C 54.4 155.8 54.37 148.24 54.4 148.2 C 54.4 146.7 53.5 145.7 51.9 145.7 C 50 145.7 48.3 147.1 48.3 149.9 C 48.28 149.86 48.3 155.8 48.3 155.8 L 46.7 155.8 L 46.7 144.5 L 48.3 144.5 C 48.3 144.5 48.28 146.6 48.3 146.6 C 49 145.3 50.2 144.3 52.2 144.3 C 54.4 144.3 55.9 145.6 55.9 148.1 Z M 64.3 155.8 C 64.3 155.8 62.64 155.78 62.6 155.8 C 61.2 155.8 59.8 155.3 59.8 152.8 C 59.81 152.82 59.8 145.9 59.8 145.9 L 57.6 145.9 L 57.6 144.5 L 59.8 144.5 L 59.8 141.3 L 61.3 140.9 L 61.3 144.5 L 64.1 144.5 L 64.1 145.9 L 61.3 145.9 C 61.3 145.9 61.34 152.8 61.3 152.8 C 61.3 153.8 61.6 154.4 62.9 154.4 C 62.89 154.4 64.3 154.4 64.3 154.4 L 64.3 155.8 Z M 68.1 139.8 L 66.4 139.8 L 66.4 141.7 L 68.1 141.7 L 68.1 139.8 Z M 68 155.8 L 66.5 155.8 L 66.5 144.5 L 68 144.5 L 68 155.8 Z M 78.3 153.7 C 77.4 155.4 75.7 156 74.3 156 C 72.4 156 70.7 154.9 70.7 152.7 C 70.7 150.6 72.2 149.6 74.1 149.4 C 74.1 149.4 76.8 149 76.8 149 C 77.6 148.9 78.3 148.6 78.3 147.6 C 78.3 146.3 77.2 145.6 75.6 145.6 C 73.9 145.6 72.9 146.4 72.6 147.7 C 72.6 147.7 71.1 147.7 71.1 147.7 C 71.4 145.4 73.2 144.3 75.7 144.3 C 78.3 144.3 79.8 145.5 79.8 148 C 79.82 147.99 79.8 155.8 79.8 155.8 L 78.3 155.8 C 78.3 155.8 78.33 153.72 78.3 153.7 Z M 76.5 150.3 C 76.5 150.3 74.7 150.5 74.7 150.5 C 73.3 150.7 72.2 151.2 72.2 152.6 C 72.2 154 73.3 154.6 74.6 154.6 C 76.3 154.6 78.3 153.3 78.3 150.9 C 78.3 150.9 78.3 149.8 78.3 149.8 C 77.9 150.1 77.2 150.2 76.5 150.3 Z M 84.5 155.8 L 83 155.8 L 83 139.8 L 84.5 139.8 L 84.5 155.8 Z M 92.4 150.2 C 92.4 146.5 94.6 144.3 97.7 144.3 C 100.8 144.3 103.1 146.5 103.1 150.2 C 103.1 153.8 100.8 156 97.7 156 C 94.6 156 92.4 153.8 92.4 150.2 Z M 101.5 150.1 C 101.5 147.3 99.8 145.7 97.7 145.7 C 95.5 145.7 94 147.4 94 150.2 C 94 153 95.7 154.6 97.8 154.6 C 99.9 154.6 101.5 152.9 101.5 150.1 Z M 110 155.8 L 108.3 155.8 L 104.1 144.5 L 105.8 144.5 L 109.2 154.2 L 112.6 144.5 L 114.2 144.5 L 110 155.8 Z M 116.7 150.5 C 116.8 153.3 118.5 154.6 120.5 154.6 C 122 154.6 123.4 153.9 123.8 152.3 C 123.8 152.3 125.2 152.3 125.2 152.3 C 124.7 154.9 122.5 156 120.4 156 C 117.7 156 115.2 154.2 115.2 150.2 C 115.2 146.1 117.7 144.3 120.5 144.3 C 123.1 144.3 125.3 146 125.3 149.8 C 125.31 149.75 125.3 150.5 125.3 150.5 C 125.3 150.5 116.72 150.51 116.7 150.5 Z M 116.8 149.2 C 116.8 149.2 123.8 149.2 123.8 149.2 C 123.8 146.9 122.3 145.7 120.4 145.7 C 118.6 145.7 117 146.8 116.8 149.2 Z M 133.6 145.8 C 133.6 145.8 133.2 145.83 133.2 145.8 C 130.8 145.8 129.5 147.2 129.5 149.8 C 129.46 149.8 129.5 155.8 129.5 155.8 L 127.9 155.8 L 127.9 144.5 L 129.4 144.5 C 129.4 144.5 129.44 146.58 129.4 146.6 C 130 145.1 131.3 144.4 133.1 144.4 C 133.08 144.38 133.6 144.4 133.6 144.4 L 133.6 145.8 Z M 142.5 153.7 C 141.6 155.4 139.9 156 138.5 156 C 136.5 156 134.8 154.9 134.8 152.7 C 134.8 150.6 136.3 149.6 138.2 149.4 C 138.2 149.4 140.9 149 140.9 149 C 141.7 148.9 142.5 148.6 142.5 147.6 C 142.5 146.3 141.3 145.6 139.8 145.6 C 138.1 145.6 137 146.4 136.8 147.7 C 136.8 147.7 135.3 147.7 135.3 147.7 C 135.6 145.4 137.4 144.3 139.9 144.3 C 142.4 144.3 144 145.5 144 148 C 143.97 147.99 144 155.8 144 155.8 L 142.5 155.8 C 142.5 155.8 142.48 153.72 142.5 153.7 Z M 140.6 150.3 C 140.6 150.3 138.9 150.5 138.9 150.5 C 137.5 150.7 136.4 151.2 136.4 152.6 C 136.4 154 137.5 154.6 138.7 154.6 C 140.5 154.6 142.4 153.3 142.4 150.9 C 142.4 150.9 142.4 149.8 142.4 149.8 C 142 150.1 141.4 150.2 140.6 150.3 Z M 148.7 155.8 L 147.1 155.8 L 147.1 139.8 L 148.7 139.8 L 148.7 155.8 Z M 153.6 155.8 L 152 155.8 L 152 139.8 L 153.6 139.8 L 153.6 155.8 Z M 168.2 145.8 C 168.2 145.8 167.85 145.83 167.9 145.8 C 165.5 145.8 164.1 147.2 164.1 149.8 C 164.11 149.8 164.1 155.8 164.1 155.8 L 162.6 155.8 L 162.6 144.5 L 164.1 144.5 C 164.1 144.5 164.09 146.58 164.1 146.6 C 164.6 145.1 166 144.4 167.7 144.4 C 167.72 144.38 168.2 144.4 168.2 144.4 L 168.2 145.8 Z M 170.8 150.5 C 170.8 153.3 172.5 154.6 174.5 154.6 C 176 154.6 177.5 153.9 177.8 152.3 C 177.8 152.3 179.3 152.3 179.3 152.3 C 178.8 154.9 176.6 156 174.4 156 C 171.8 156 169.3 154.2 169.3 150.2 C 169.3 146.1 171.8 144.3 174.5 144.3 C 177.2 144.3 179.4 146 179.4 149.8 C 179.36 149.75 179.4 150.5 179.4 150.5 C 179.4 150.5 170.77 150.51 170.8 150.5 Z M 170.8 149.2 C 170.8 149.2 177.8 149.2 177.8 149.2 C 177.8 146.9 176.3 145.7 174.4 145.7 C 172.7 145.7 171 146.8 170.8 149.2 Z M 187.1 155.8 C 187.1 155.8 185.47 155.78 185.5 155.8 C 184 155.8 182.6 155.3 182.6 152.8 C 182.63 152.82 182.6 145.9 182.6 145.9 L 180.4 145.9 L 180.4 144.5 L 182.6 144.5 L 182.6 141.3 L 184.2 140.9 L 184.2 144.5 L 186.9 144.5 L 186.9 145.9 L 184.2 145.9 C 184.2 145.9 184.17 152.8 184.2 152.8 C 184.2 153.8 184.5 154.4 185.7 154.4 C 185.72 154.4 187.1 154.4 187.1 154.4 L 187.1 155.8 Z M 196.7 155.8 C 196.7 155.8 196.75 153.64 196.7 153.6 C 196 155.2 194.6 155.9 193 155.9 C 190.9 155.9 189.2 154.6 189.2 152 C 189.23 151.96 189.2 144.5 189.2 144.5 L 190.8 144.5 C 190.8 144.5 190.76 151.77 190.8 151.8 C 190.8 153.6 191.8 154.6 193.3 154.6 C 195.1 154.6 196.7 153.2 196.7 150.3 C 196.68 150.34 196.7 144.5 196.7 144.5 L 198.2 144.5 L 198.2 155.8 L 196.7 155.8 Z M 207.2 145.8 C 207.2 145.8 206.85 145.83 206.8 145.8 C 204.5 145.8 203.1 147.2 203.1 149.8 C 203.11 149.8 203.1 155.8 203.1 155.8 L 201.6 155.8 L 201.6 144.5 L 203.1 144.5 C 203.1 144.5 203.09 146.58 203.1 146.6 C 203.6 145.1 205 144.4 206.7 144.4 C 206.72 144.38 207.2 144.4 207.2 144.4 L 207.2 145.8 Z M 218.4 148.1 C 218.35 148.05 218.4 155.8 218.4 155.8 L 216.8 155.8 C 216.8 155.8 216.82 148.24 216.8 148.2 C 216.8 146.7 215.9 145.7 214.3 145.7 C 212.4 145.7 210.7 147.1 210.7 149.9 C 210.73 149.86 210.7 155.8 210.7 155.8 L 209.2 155.8 L 209.2 144.5 L 210.7 144.5 C 210.7 144.5 210.73 146.6 210.7 146.6 C 211.4 145.3 212.7 144.3 214.6 144.3 C 216.9 144.3 218.4 145.6 218.4 148.1 Z M 230 152.6 C 230 154.9 227.9 156 225.6 156 C 223.2 156 221 154.8 220.8 152.3 C 220.8 152.3 222.4 152.3 222.4 152.3 C 222.7 154 224.1 154.6 225.7 154.6 C 227.1 154.6 228.4 154.1 228.4 152.8 C 228.4 151.5 227.1 151.2 225.8 151 C 223.6 150.6 221 150.2 221 147.6 C 221 145.4 223 144.3 225.3 144.3 C 227.7 144.3 229.6 145.4 229.7 147.7 C 229.7 147.7 228.1 147.7 228.1 147.7 C 228 146.3 226.7 145.7 225.2 145.7 C 223.7 145.7 222.6 146.4 222.6 147.5 C 222.6 149 224 149.2 225.7 149.5 C 227.7 149.8 230 150.1 230 152.6 Z M 231.8 153.6 L 233.9 153.6 L 233.9 155.8 L 231.8 155.8 L 231.8 153.6 Z " stroke="none" fill="#000"/> </g> <g id="Polygon12484">  <path d="M 12.2 124.9 C 12.2 128.4 10.1 130.8 7.1 130.8 C 5.1 130.8 3.7 129.7 3.1 128.5 C 3.15 128.5 3.1 130.6 3.1 130.6 L 1.7 130.6 L 1.7 114.6 L 3.2 114.6 C 3.2 114.6 3.21 121.57 3.2 121.6 C 3.8 120.2 5.2 119.1 7.2 119.1 C 10.1 119.1 12.2 121.3 12.2 124.9 Z M 10.6 125 C 10.6 122.2 9.2 120.6 7 120.6 C 4.8 120.6 3.2 122.2 3.2 125 C 3.2 127.8 4.7 129.5 6.9 129.5 C 9.1 129.5 10.6 127.7 10.6 125 Z M 15.6 125.3 C 15.6 128.1 17.4 129.4 19.4 129.4 C 20.9 129.4 22.3 128.7 22.7 127.1 C 22.7 127.1 24.1 127.1 24.1 127.1 C 23.6 129.7 21.4 130.8 19.3 130.8 C 16.6 130.8 14.1 129 14.1 125 C 14.1 120.9 16.6 119.1 19.3 119.1 C 22 119.1 24.2 120.8 24.2 124.6 C 24.19 124.55 24.2 125.3 24.2 125.3 C 24.2 125.3 15.6 125.31 15.6 125.3 Z M 15.6 124 C 15.6 124 22.6 124 22.6 124 C 22.6 121.7 21.2 120.5 19.3 120.5 C 17.5 120.5 15.9 121.6 15.6 124 Z M 31.3 130.8 C 28.2 130.8 26.1 128.5 26.1 125 C 26.1 121.4 28.2 119.1 31.4 119.1 C 33.9 119.1 35.9 120.5 36.1 123 C 36.1 123 34.6 123 34.6 123 C 34.4 121.4 33.1 120.5 31.4 120.5 C 29.2 120.5 27.6 122.2 27.6 124.9 C 27.6 127.7 29.2 129.4 31.4 129.4 C 33.1 129.4 34.5 128.4 34.6 126.6 C 34.6 126.6 36.1 126.6 36.1 126.6 C 35.9 129.3 33.8 130.8 31.3 130.8 Z M 38 125 C 38 121.3 40.2 119.1 43.3 119.1 C 46.4 119.1 48.7 121.3 48.7 125 C 48.7 128.6 46.5 130.8 43.3 130.8 C 40.2 130.8 38 128.6 38 125 Z M 47.1 124.9 C 47.1 122.1 45.4 120.5 43.3 120.5 C 41.1 120.5 39.6 122.2 39.6 125 C 39.6 127.8 41.3 129.4 43.4 129.4 C 45.5 129.4 47.1 127.7 47.1 124.9 Z M 51.3 119.3 L 52.8 119.3 C 52.8 119.3 52.81 121.17 52.8 121.2 C 53.4 119.8 54.7 119.1 56.1 119.1 C 57.7 119.1 59.1 120 59.4 121.4 C 59.9 120.2 61.2 119.1 63.1 119.1 C 65.2 119.1 66.8 120.2 66.8 122.5 C 66.78 122.5 66.8 130.6 66.8 130.6 L 65.2 130.6 C 65.2 130.6 65.25 123.04 65.2 123 C 65.2 121.3 64.2 120.5 62.9 120.5 C 61.2 120.5 59.8 121.8 59.8 124.1 C 59.79 124.13 59.8 130.6 59.8 130.6 L 58.3 130.6 C 58.3 130.6 58.27 123.04 58.3 123 C 58.3 121.3 57.2 120.5 55.9 120.5 C 54.2 120.5 52.8 121.7 52.8 124.1 C 52.84 124.13 52.8 130.6 52.8 130.6 L 51.3 130.6 L 51.3 119.3 Z M 70.8 125.3 C 70.9 128.1 72.6 129.4 74.6 129.4 C 76.1 129.4 77.5 128.7 77.9 127.1 C 77.9 127.1 79.3 127.1 79.3 127.1 C 78.8 129.7 76.6 130.8 74.5 130.8 C 71.8 130.8 69.3 129 69.3 125 C 69.3 120.9 71.8 119.1 74.5 119.1 C 77.2 119.1 79.4 120.8 79.4 124.6 C 79.4 124.55 79.4 125.3 79.4 125.3 C 79.4 125.3 70.81 125.31 70.8 125.3 Z M 70.9 124 C 70.9 124 77.8 124 77.8 124 C 77.8 121.7 76.4 120.5 74.5 120.5 C 72.7 120.5 71.1 121.6 70.9 124 Z M 90.4 127.4 C 90.4 129.7 88.3 130.8 86.1 130.8 C 83.6 130.8 81.4 129.6 81.2 127.1 C 81.2 127.1 82.8 127.1 82.8 127.1 C 83.1 128.8 84.5 129.4 86.1 129.4 C 87.5 129.4 88.8 128.9 88.8 127.6 C 88.8 126.3 87.5 126 86.2 125.8 C 84 125.4 81.5 125 81.5 122.4 C 81.5 120.2 83.4 119.1 85.7 119.1 C 88.1 119.1 90 120.2 90.1 122.5 C 90.1 122.5 88.5 122.5 88.5 122.5 C 88.4 121.1 87.1 120.5 85.6 120.5 C 84.1 120.5 83.1 121.2 83.1 122.3 C 83.1 123.8 84.4 124 86.1 124.3 C 88.2 124.6 90.4 124.9 90.4 127.4 Z M 105.1 128.5 C 104.2 130.2 102.5 130.8 101.1 130.8 C 99.2 130.8 97.4 129.7 97.4 127.5 C 97.4 125.4 98.9 124.4 100.9 124.2 C 100.9 124.2 103.5 123.8 103.5 123.8 C 104.4 123.7 105.1 123.4 105.1 122.4 C 105.1 121.1 103.9 120.4 102.4 120.4 C 100.7 120.4 99.6 121.2 99.4 122.5 C 99.4 122.5 97.9 122.5 97.9 122.5 C 98.2 120.2 100 119.1 102.5 119.1 C 105 119.1 106.6 120.3 106.6 122.8 C 106.6 122.79 106.6 130.6 106.6 130.6 L 105.1 130.6 C 105.1 130.6 105.1 128.52 105.1 128.5 Z M 103.2 125.1 C 103.2 125.1 101.5 125.3 101.5 125.3 C 100.1 125.5 99 126 99 127.4 C 99 128.8 100.1 129.4 101.3 129.4 C 103.1 129.4 105.1 128.1 105.1 125.7 C 105.1 125.7 105.1 124.6 105.1 124.6 C 104.6 124.9 104 125 103.2 125.1 Z M 125.5 124.9 C 125.5 128.4 123.4 130.8 120.4 130.8 C 118.4 130.8 117.1 129.7 116.5 128.5 C 116.47 128.5 116.5 130.6 116.5 130.6 L 115 130.6 L 115 114.6 L 116.5 114.6 C 116.5 114.6 116.53 121.57 116.5 121.6 C 117.1 120.2 118.5 119.1 120.6 119.1 C 123.4 119.1 125.5 121.3 125.5 124.9 Z M 124 125 C 124 122.2 122.5 120.6 120.3 120.6 C 118.1 120.6 116.5 122.2 116.5 125 C 116.5 127.8 118.1 129.5 120.2 129.5 C 122.5 129.5 124 127.7 124 125 Z M 129.8 114.6 L 128 114.6 L 128 116.5 L 129.8 116.5 L 129.8 114.6 Z M 129.7 130.6 L 128.1 130.6 L 128.1 119.3 L 129.7 119.3 L 129.7 130.6 Z M 142.7 130.1 C 142.7 133.5 140.5 135.2 137.6 135.2 C 135.1 135.2 132.9 133.9 132.6 131.3 C 132.6 131.3 134.1 131.3 134.1 131.3 C 134.3 132.7 135.4 133.9 137.6 133.9 C 139.7 133.9 141.3 132.8 141.3 130.2 C 141.3 130.2 141.3 127.9 141.3 127.9 C 140.4 129.6 138.7 130.2 137.3 130.2 C 134.5 130.2 132.3 128.3 132.3 124.6 C 132.3 120.9 134.7 119.1 137.3 119.1 C 139.2 119.1 140.5 119.9 141.2 121.1 C 141.22 121.13 141.2 119.3 141.2 119.3 L 142.7 119.3 C 142.7 119.3 142.74 130.08 142.7 130.1 Z M 141.2 124.6 C 141.2 121.8 139.5 120.4 137.5 120.4 C 135.6 120.4 133.8 121.8 133.8 124.6 C 133.8 127.4 135.6 128.8 137.5 128.8 C 139.3 128.8 141.2 127.6 141.2 124.6 Z M 155.7 130.1 C 155.7 133.5 153.5 135.2 150.6 135.2 C 148.1 135.2 145.9 133.9 145.5 131.3 C 145.5 131.3 147.1 131.3 147.1 131.3 C 147.3 132.7 148.3 133.9 150.6 133.9 C 152.7 133.9 154.2 132.8 154.2 130.2 C 154.2 130.2 154.2 127.9 154.2 127.9 C 153.4 129.6 151.7 130.2 150.2 130.2 C 147.5 130.2 145.3 128.3 145.3 124.6 C 145.3 120.9 147.6 119.1 150.3 119.1 C 152.1 119.1 153.5 119.9 154.2 121.1 C 154.18 121.13 154.2 119.3 154.2 119.3 L 155.7 119.3 C 155.7 119.3 155.69 130.08 155.7 130.1 Z M 154.1 124.6 C 154.1 121.8 152.4 120.4 150.5 120.4 C 148.6 120.4 146.8 121.8 146.8 124.6 C 146.8 127.4 148.5 128.8 150.5 128.8 C 152.3 128.8 154.1 127.6 154.1 124.6 Z M 159.7 125.3 C 159.8 128.1 161.5 129.4 163.5 129.4 C 165 129.4 166.4 128.7 166.8 127.1 C 166.8 127.1 168.2 127.1 168.2 127.1 C 167.7 129.7 165.5 130.8 163.4 130.8 C 160.7 130.8 158.2 129 158.2 125 C 158.2 120.9 160.8 119.1 163.5 119.1 C 166.1 119.1 168.3 120.8 168.3 124.6 C 168.31 124.55 168.3 125.3 168.3 125.3 C 168.3 125.3 159.72 125.31 159.7 125.3 Z M 159.8 124 C 159.8 124 166.8 124 166.8 124 C 166.8 121.7 165.3 120.5 163.4 120.5 C 161.6 120.5 160 121.6 159.8 124 Z M 176.6 120.6 C 176.6 120.6 176.21 120.63 176.2 120.6 C 173.8 120.6 172.5 122 172.5 124.6 C 172.47 124.6 172.5 130.6 172.5 130.6 L 170.9 130.6 L 170.9 119.3 L 172.5 119.3 C 172.5 119.3 172.45 121.38 172.5 121.4 C 173 119.9 174.3 119.2 176.1 119.2 C 176.08 119.18 176.6 119.2 176.6 119.2 L 176.6 120.6 Z M 194.1 124.9 C 194.1 129 191.5 130.7 189 130.7 C 187 130.7 185.8 129.8 185.1 128.6 C 185.13 128.63 185.1 134.9 185.1 134.9 L 183.6 134.9 L 183.6 119.3 L 185.1 119.3 C 185.1 119.3 185.09 121.68 185.1 121.7 C 185.6 120.3 187.1 119.1 189.1 119.1 C 191.6 119.1 194.1 120.8 194.1 124.9 Z M 192.5 124.9 C 192.5 121.8 190.8 120.6 188.9 120.6 C 187 120.6 185.2 121.8 185.2 125 C 185.2 128.1 187 129.3 188.9 129.3 C 190.7 129.3 192.5 128.1 192.5 124.9 Z M 203.7 128.5 C 202.8 130.2 201.1 130.8 199.7 130.8 C 197.7 130.8 196 129.7 196 127.5 C 196 125.4 197.5 124.4 199.4 124.2 C 199.4 124.2 202.1 123.8 202.1 123.8 C 202.9 123.7 203.7 123.4 203.7 122.4 C 203.7 121.1 202.5 120.4 200.9 120.4 C 199.2 120.4 198.2 121.2 198 122.5 C 198 122.5 196.5 122.5 196.5 122.5 C 196.8 120.2 198.6 119.1 201.1 119.1 C 203.6 119.1 205.2 120.3 205.2 122.8 C 205.17 122.79 205.2 130.6 205.2 130.6 L 203.7 130.6 C 203.7 130.6 203.68 128.52 203.7 128.5 Z M 201.8 125.1 C 201.8 125.1 200.1 125.3 200.1 125.3 C 198.7 125.5 197.6 126 197.6 127.4 C 197.6 128.8 198.7 129.4 199.9 129.4 C 201.7 129.4 203.6 128.1 203.6 125.7 C 203.6 125.7 203.6 124.6 203.6 124.6 C 203.2 124.9 202.6 125 201.8 125.1 Z M 213.9 120.6 C 213.9 120.6 213.59 120.63 213.6 120.6 C 211.2 120.6 209.9 122 209.9 124.6 C 209.85 124.6 209.9 130.6 209.9 130.6 L 208.3 130.6 L 208.3 119.3 L 209.8 119.3 C 209.8 119.3 209.83 121.38 209.8 121.4 C 210.4 119.9 211.7 119.2 213.5 119.2 C 213.46 119.18 213.9 119.2 213.9 119.2 L 213.9 120.6 Z M 221.5 130.6 C 221.5 130.6 219.85 130.58 219.8 130.6 C 218.4 130.6 217 130.1 217 127.6 C 217.01 127.62 217 120.7 217 120.7 L 214.8 120.7 L 214.8 119.3 L 217 119.3 L 217 116.1 L 218.5 115.7 L 218.5 119.3 L 221.3 119.3 L 221.3 120.7 L 218.5 120.7 C 218.5 120.7 218.54 127.6 218.5 127.6 C 218.5 128.6 218.8 129.2 220.1 129.2 C 220.1 129.2 221.5 129.2 221.5 129.2 L 221.5 130.6 Z M 228 125 C 228 121.3 230.2 119.1 233.3 119.1 C 236.5 119.1 238.7 121.3 238.7 125 C 238.7 128.6 236.5 130.8 233.4 130.8 C 230.3 130.8 228 128.6 228 125 Z M 237.1 124.9 C 237.1 122.1 235.4 120.5 233.3 120.5 C 231.1 120.5 229.6 122.2 229.6 125 C 229.6 127.8 231.3 129.4 233.4 129.4 C 235.6 129.4 237.1 127.7 237.1 124.9 Z M 244.9 115.9 C 243.7 115.9 243.4 116.5 243.4 117.6 C 243.37 117.56 243.4 119.3 243.4 119.3 L 245.9 119.3 L 245.9 120.7 L 243.4 120.7 L 243.4 130.6 L 241.8 130.6 L 241.8 120.7 L 240 120.7 L 240 119.3 L 241.8 119.3 C 241.8 119.3 241.83 117.52 241.8 117.5 C 241.8 115 243.2 114.6 244.7 114.6 C 244.67 114.58 246.2 114.6 246.2 114.6 L 246.2 115.9 C 246.2 115.9 244.92 115.94 244.9 115.9 Z M 258.3 130.6 C 258.3 130.6 256.68 130.58 256.7 130.6 C 255.2 130.6 253.8 130.1 253.8 127.6 C 253.85 127.62 253.8 120.7 253.8 120.7 L 251.6 120.7 L 251.6 119.3 L 253.8 119.3 L 253.8 116.1 L 255.4 115.7 L 255.4 119.3 L 258.1 119.3 L 258.1 120.7 L 255.4 120.7 C 255.4 120.7 255.38 127.6 255.4 127.6 C 255.4 128.6 255.7 129.2 256.9 129.2 C 256.93 129.2 258.3 129.2 258.3 129.2 L 258.3 130.6 Z M 269.7 122.9 C 269.7 122.85 269.7 130.6 269.7 130.6 L 268.2 130.6 C 268.2 130.6 268.17 123.04 268.2 123 C 268.2 121.5 267.3 120.5 265.7 120.5 C 263.8 120.5 262.1 121.9 262.1 124.7 C 262.08 124.66 262.1 130.6 262.1 130.6 L 260.5 130.6 L 260.5 114.6 L 262.1 114.6 C 262.1 114.6 262.08 121.28 262.1 121.3 C 262.7 120 263.9 119.1 265.9 119.1 C 268.3 119.1 269.7 120.4 269.7 122.9 Z M 273.7 125.3 C 273.8 128.1 275.5 129.4 277.5 129.4 C 279 129.4 280.5 128.7 280.8 127.1 C 280.8 127.1 282.2 127.1 282.2 127.1 C 281.7 129.7 279.5 130.8 277.4 130.8 C 274.7 130.8 272.2 129 272.2 125 C 272.2 120.9 274.8 119.1 277.5 119.1 C 280.1 119.1 282.3 120.8 282.3 124.6 C 282.32 124.55 282.3 125.3 282.3 125.3 C 282.3 125.3 273.73 125.31 273.7 125.3 Z M 273.8 124 C 273.8 124 280.8 124 280.8 124 C 280.8 121.7 279.3 120.5 277.4 120.5 C 275.6 120.5 274 121.6 273.8 124 Z " stroke="none" fill="#000"/> </g> <g id="Polygon12483">  <path d="M 5 107.5 C 4.6 108.7 3.6 109.1 2.4 109.1 C 2.39 109.08 1.2 109.1 1.2 109.1 L 1.2 107.7 C 1.2 107.7 2.18 107.71 2.2 107.7 C 3.1 107.7 3.6 107.4 4 106.4 C 3.99 106.39 4.5 104.9 4.5 104.9 L 0.3 94.1 L 1.9 94.1 L 5.3 103 L 8.6 94.1 L 10.1 94.1 C 10.1 94.1 5 107.52 5 107.5 Z M 13.7 89.4 L 12 89.4 L 12 91.3 L 13.7 91.3 L 13.7 89.4 Z M 13.6 105.4 L 12.1 105.4 L 12.1 94.1 L 13.6 94.1 L 13.6 105.4 Z M 17.8 100.1 C 17.8 102.9 19.5 104.2 21.5 104.2 C 23 104.2 24.5 103.5 24.8 101.9 C 24.8 101.9 26.3 101.9 26.3 101.9 C 25.8 104.5 23.6 105.6 21.4 105.6 C 18.8 105.6 16.3 103.8 16.3 99.8 C 16.3 95.7 18.8 93.9 21.5 93.9 C 24.2 93.9 26.4 95.6 26.4 99.4 C 26.35 99.35 26.4 100.1 26.4 100.1 C 26.4 100.1 17.77 100.11 17.8 100.1 Z M 17.8 98.8 C 17.8 98.8 24.8 98.8 24.8 98.8 C 24.8 96.5 23.3 95.3 21.4 95.3 C 19.7 95.3 18 96.4 17.8 98.8 Z M 30.5 105.4 L 29 105.4 L 29 89.4 L 30.5 89.4 L 30.5 105.4 Z M 43.7 105.4 L 42.2 105.4 C 42.2 105.4 42.21 103.2 42.2 103.2 C 41.7 104.5 40.3 105.6 38.2 105.6 C 35.2 105.6 33.1 103.3 33.1 99.7 C 33.1 96.2 35.2 93.9 38.2 93.9 C 40.1 93.9 41.5 94.8 42.1 96 C 42.15 96.02 42.1 89.4 42.1 89.4 L 43.7 89.4 L 43.7 105.4 Z M 42.1 99.7 C 42.1 96.9 40.6 95.3 38.4 95.3 C 36.2 95.3 34.7 97 34.7 99.7 C 34.7 102.5 36.2 104.2 38.4 104.2 C 40.6 104.2 42.1 102.5 42.1 99.7 Z M 55.4 102.2 C 55.4 104.5 53.3 105.6 51.1 105.6 C 48.7 105.6 46.4 104.4 46.2 101.9 C 46.2 101.9 47.8 101.9 47.8 101.9 C 48.1 103.6 49.6 104.2 51.1 104.2 C 52.5 104.2 53.8 103.7 53.8 102.4 C 53.8 101.1 52.5 100.8 51.2 100.6 C 49 100.2 46.5 99.8 46.5 97.2 C 46.5 95 48.4 93.9 50.7 93.9 C 53.1 93.9 55 95 55.1 97.3 C 55.1 97.3 53.5 97.3 53.5 97.3 C 53.4 95.9 52.1 95.3 50.7 95.3 C 49.1 95.3 48.1 96 48.1 97.1 C 48.1 98.6 49.4 98.8 51.1 99.1 C 53.2 99.4 55.4 99.7 55.4 102.2 Z M 71.1 102.2 C 71.1 104.5 69.1 105.6 66.8 105.6 C 64.4 105.6 62.2 104.4 61.9 101.9 C 61.9 101.9 63.6 101.9 63.6 101.9 C 63.8 103.6 65.3 104.2 66.8 104.2 C 68.3 104.2 69.6 103.7 69.6 102.4 C 69.6 101.1 68.2 100.8 66.9 100.6 C 64.8 100.2 62.2 99.8 62.2 97.2 C 62.2 95 64.1 93.9 66.4 93.9 C 68.8 93.9 70.7 95 70.9 97.3 C 70.9 97.3 69.3 97.3 69.3 97.3 C 69.2 95.9 67.9 95.3 66.4 95.3 C 64.8 95.3 63.8 96 63.8 97.1 C 63.8 98.6 65.2 98.8 66.9 99.1 C 68.9 99.4 71.1 99.7 71.1 102.2 Z M 78.8 105.4 C 78.8 105.4 77.15 105.38 77.2 105.4 C 75.7 105.4 74.3 104.9 74.3 102.4 C 74.32 102.42 74.3 95.5 74.3 95.5 L 72.1 95.5 L 72.1 94.1 L 74.3 94.1 L 74.3 90.9 L 75.9 90.5 L 75.9 94.1 L 78.6 94.1 L 78.6 95.5 L 75.9 95.5 C 75.9 95.5 75.85 102.4 75.9 102.4 C 75.9 103.4 76.1 104 77.4 104 C 77.41 104 78.8 104 78.8 104 L 78.8 105.4 Z M 87.9 103.3 C 87.1 105 85.4 105.6 83.9 105.6 C 82 105.6 80.3 104.5 80.3 102.3 C 80.3 100.2 81.8 99.2 83.7 99 C 83.7 99 86.4 98.6 86.4 98.6 C 87.2 98.5 87.9 98.2 87.9 97.2 C 87.9 95.9 86.8 95.2 85.2 95.2 C 83.5 95.2 82.5 96 82.3 97.3 C 82.3 97.3 80.7 97.3 80.7 97.3 C 81 95 82.8 93.9 85.3 93.9 C 87.9 93.9 89.4 95.1 89.4 97.6 C 89.44 97.59 89.4 105.4 89.4 105.4 L 87.9 105.4 C 87.9 105.4 87.95 103.32 87.9 103.3 Z M 86.1 99.9 C 86.1 99.9 84.4 100.1 84.4 100.1 C 82.9 100.3 81.9 100.8 81.9 102.2 C 81.9 103.6 82.9 104.2 84.2 104.2 C 86 104.2 87.9 102.9 87.9 100.5 C 87.9 100.5 87.9 99.4 87.9 99.4 C 87.5 99.7 86.8 99.8 86.1 99.9 Z M 95.9 107.5 C 95.5 108.7 94.5 109.1 93.3 109.1 C 93.3 109.08 92.1 109.1 92.1 109.1 L 92.1 107.7 C 92.1 107.7 93.09 107.71 93.1 107.7 C 94.1 107.7 94.5 107.4 94.9 106.4 C 94.9 106.39 95.4 104.9 95.4 104.9 L 91.2 94.1 L 92.8 94.1 L 96.2 103 L 99.5 94.1 L 101 94.1 C 101 94.1 95.91 107.52 95.9 107.5 Z M 109.8 105.4 L 108.3 105.4 L 108.3 89.4 L 109.8 89.4 L 109.8 105.4 Z M 112.4 99.8 C 112.4 96.1 114.6 93.9 117.7 93.9 C 120.9 93.9 123.1 96.1 123.1 99.8 C 123.1 103.4 120.9 105.6 117.8 105.6 C 114.7 105.6 112.4 103.4 112.4 99.8 Z M 121.5 99.7 C 121.5 96.9 119.8 95.3 117.7 95.3 C 115.5 95.3 114 97 114 99.8 C 114 102.6 115.7 104.2 117.8 104.2 C 120 104.2 121.5 102.5 121.5 99.7 Z M 136.8 105.4 L 135.3 105.4 L 132.4 96.4 L 129.4 105.4 L 127.9 105.4 L 124.3 94.1 L 125.8 94.1 L 128.7 103.4 L 131.6 94.1 L 133.1 94.1 L 136.1 103.4 L 138.9 94.1 L 140.5 94.1 L 136.8 105.4 Z M 142.8 105.3 C 142.82 105.26 141.8 105.3 141.8 105.3 L 141.8 103.2 L 144 103.2 C 144 103.2 144.04 105.32 144 105.3 C 144 107.8 142.6 108.7 141 108.8 C 141 108.8 140.8 107.9 140.8 107.9 C 142.5 107.6 142.8 106.6 142.8 105.3 Z M 158.6 103.3 C 157.8 105 156 105.6 154.6 105.6 C 152.7 105.6 151 104.5 151 102.3 C 151 100.2 152.5 99.2 154.4 99 C 154.4 99 157.1 98.6 157.1 98.6 C 157.9 98.5 158.6 98.2 158.6 97.2 C 158.6 95.9 157.5 95.2 155.9 95.2 C 154.2 95.2 153.2 96 152.9 97.3 C 152.9 97.3 151.4 97.3 151.4 97.3 C 151.7 95 153.5 93.9 156 93.9 C 158.6 93.9 160.1 95.1 160.1 97.6 C 160.12 97.59 160.1 105.4 160.1 105.4 L 158.6 105.4 C 158.6 105.4 158.63 103.32 158.6 103.3 Z M 156.8 99.9 C 156.8 99.9 155 100.1 155 100.1 C 153.6 100.3 152.5 100.8 152.5 102.2 C 152.5 103.6 153.6 104.2 154.9 104.2 C 156.6 104.2 158.6 102.9 158.6 100.5 C 158.6 100.5 158.6 99.4 158.6 99.4 C 158.2 99.7 157.5 99.8 156.8 99.9 Z M 167.8 105.6 C 164.7 105.6 162.5 103.3 162.5 99.8 C 162.5 96.2 164.6 93.9 167.9 93.9 C 170.4 93.9 172.4 95.3 172.6 97.8 C 172.6 97.8 171.1 97.8 171.1 97.8 C 170.9 96.2 169.5 95.3 167.9 95.3 C 165.7 95.3 164.1 97 164.1 99.7 C 164.1 102.5 165.6 104.2 167.9 104.2 C 169.6 104.2 170.9 103.2 171 101.4 C 171 101.4 172.6 101.4 172.6 101.4 C 172.4 104.1 170.3 105.6 167.8 105.6 Z M 180.3 105.4 C 180.3 105.4 178.67 105.38 178.7 105.4 C 177.2 105.4 175.8 104.9 175.8 102.4 C 175.83 102.42 175.8 95.5 175.8 95.5 L 173.6 95.5 L 173.6 94.1 L 175.8 94.1 L 175.8 90.9 L 177.4 90.5 L 177.4 94.1 L 180.1 94.1 L 180.1 95.5 L 177.4 95.5 C 177.4 95.5 177.36 102.4 177.4 102.4 C 177.4 103.4 177.7 104 178.9 104 C 178.92 104 180.3 104 180.3 104 L 180.3 105.4 Z M 184.2 89.4 L 182.4 89.4 L 182.4 91.3 L 184.2 91.3 L 184.2 89.4 Z M 184.1 105.4 L 182.5 105.4 L 182.5 94.1 L 184.1 94.1 L 184.1 105.4 Z M 191.9 105.4 L 190.2 105.4 L 186.1 94.1 L 187.7 94.1 L 191.1 103.8 L 194.5 94.1 L 196.1 94.1 L 191.9 105.4 Z M 198.7 100.1 C 198.7 102.9 200.4 104.2 202.4 104.2 C 203.9 104.2 205.4 103.5 205.7 101.9 C 205.7 101.9 207.2 101.9 207.2 101.9 C 206.7 104.5 204.5 105.6 202.3 105.6 C 199.6 105.6 197.1 103.8 197.1 99.8 C 197.1 95.7 199.7 93.9 202.4 93.9 C 205.1 93.9 207.2 95.6 207.2 99.4 C 207.25 99.35 207.2 100.1 207.2 100.1 C 207.2 100.1 198.66 100.11 198.7 100.1 Z M 198.7 98.8 C 198.7 98.8 205.7 98.8 205.7 98.8 C 205.7 96.5 204.2 95.3 202.3 95.3 C 200.6 95.3 198.9 96.4 198.7 98.8 Z M 215.1 94.1 L 216.6 94.1 C 216.6 94.1 216.63 95.97 216.6 96 C 217.2 94.6 218.5 93.9 219.9 93.9 C 221.6 93.9 222.9 94.8 223.2 96.2 C 223.8 95 225 93.9 226.9 93.9 C 229 93.9 230.6 95 230.6 97.3 C 230.6 97.3 230.6 105.4 230.6 105.4 L 229.1 105.4 C 229.1 105.4 229.07 97.84 229.1 97.8 C 229.1 96.1 228 95.3 226.7 95.3 C 225 95.3 223.6 96.6 223.6 98.9 C 223.61 98.93 223.6 105.4 223.6 105.4 L 222.1 105.4 C 222.1 105.4 222.09 97.84 222.1 97.8 C 222.1 96.1 221.1 95.3 219.7 95.3 C 218.1 95.3 216.7 96.5 216.7 98.9 C 216.65 98.93 216.7 105.4 216.7 105.4 L 215.1 105.4 L 215.1 94.1 Z M 240.8 103.3 C 239.9 105 238.2 105.6 236.8 105.6 C 234.8 105.6 233.1 104.5 233.1 102.3 C 233.1 100.2 234.6 99.2 236.5 99 C 236.5 99 239.2 98.6 239.2 98.6 C 240 98.5 240.8 98.2 240.8 97.2 C 240.8 95.9 239.6 95.2 238.1 95.2 C 236.4 95.2 235.3 96 235.1 97.3 C 235.1 97.3 233.6 97.3 233.6 97.3 C 233.9 95 235.7 93.9 238.2 93.9 C 240.7 93.9 242.3 95.1 242.3 97.6 C 242.27 97.59 242.3 105.4 242.3 105.4 L 240.8 105.4 C 240.8 105.4 240.78 103.32 240.8 103.3 Z M 238.9 99.9 C 238.9 99.9 237.2 100.1 237.2 100.1 C 235.8 100.3 234.7 100.8 234.7 102.2 C 234.7 103.6 235.8 104.2 237 104.2 C 238.8 104.2 240.7 102.9 240.7 100.5 C 240.7 100.5 240.7 99.4 240.7 99.4 C 240.3 99.7 239.7 99.8 238.9 99.9 Z M 254.6 97.7 C 254.58 97.65 254.6 105.4 254.6 105.4 L 253 105.4 C 253 105.4 253.05 97.84 253 97.8 C 253 96.3 252.2 95.3 250.6 95.3 C 248.6 95.3 247 96.7 247 99.5 C 246.96 99.46 247 105.4 247 105.4 L 245.4 105.4 L 245.4 94.1 L 247 94.1 C 247 94.1 246.96 96.2 247 96.2 C 247.6 94.9 248.9 93.9 250.9 93.9 C 253.1 93.9 254.6 95.2 254.6 97.7 Z M 264.8 103.3 C 263.9 105 262.2 105.6 260.8 105.6 C 258.8 105.6 257.1 104.5 257.1 102.3 C 257.1 100.2 258.6 99.2 260.5 99 C 260.5 99 263.2 98.6 263.2 98.6 C 264 98.5 264.8 98.2 264.8 97.2 C 264.8 95.9 263.6 95.2 262 95.2 C 260.3 95.2 259.3 96 259.1 97.3 C 259.1 97.3 257.5 97.3 257.5 97.3 C 257.9 95 259.7 93.9 262.1 93.9 C 264.7 93.9 266.3 95.1 266.3 97.6 C 266.26 97.59 266.3 105.4 266.3 105.4 L 264.8 105.4 C 264.8 105.4 264.77 103.32 264.8 103.3 Z M 262.9 99.9 C 262.9 99.9 261.2 100.1 261.2 100.1 C 259.7 100.3 258.7 100.8 258.7 102.2 C 258.7 103.6 259.8 104.2 261 104.2 C 262.8 104.2 264.7 102.9 264.7 100.5 C 264.7 100.5 264.7 99.4 264.7 99.4 C 264.3 99.7 263.7 99.8 262.9 99.9 Z M 279.1 104.9 C 279.1 108.3 276.9 110 274 110 C 271.5 110 269.3 108.7 268.9 106.1 C 268.9 106.1 270.5 106.1 270.5 106.1 C 270.7 107.5 271.8 108.7 274 108.7 C 276.1 108.7 277.6 107.6 277.6 105 C 277.6 105 277.6 102.7 277.6 102.7 C 276.8 104.4 275.1 105 273.6 105 C 270.9 105 268.7 103.1 268.7 99.4 C 268.7 95.7 271 93.9 273.7 93.9 C 275.5 93.9 276.9 94.7 277.6 95.9 C 277.6 95.93 277.6 94.1 277.6 94.1 L 279.1 94.1 C 279.1 94.1 279.11 104.88 279.1 104.9 Z M 277.5 99.4 C 277.5 96.6 275.8 95.2 273.9 95.2 C 272 95.2 270.2 96.6 270.2 99.4 C 270.2 102.2 271.9 103.6 273.9 103.6 C 275.7 103.6 277.5 102.4 277.5 99.4 Z M 283.1 100.1 C 283.2 102.9 284.9 104.2 286.9 104.2 C 288.4 104.2 289.9 103.5 290.2 101.9 C 290.2 101.9 291.6 101.9 291.6 101.9 C 291.1 104.5 289 105.6 286.8 105.6 C 284.1 105.6 281.6 103.8 281.6 99.8 C 281.6 95.7 284.2 93.9 286.9 93.9 C 289.5 93.9 291.7 95.6 291.7 99.4 C 291.73 99.35 291.7 100.1 291.7 100.1 C 291.7 100.1 283.14 100.11 283.1 100.1 Z M 283.2 98.8 C 283.2 98.8 290.2 98.8 290.2 98.8 C 290.2 96.5 288.7 95.3 286.8 95.3 C 285.1 95.3 283.4 96.4 283.2 98.8 Z M 294.4 94.1 L 295.9 94.1 C 295.9 94.1 295.87 95.97 295.9 96 C 296.5 94.6 297.7 93.9 299.1 93.9 C 300.8 93.9 302.1 94.8 302.5 96.2 C 303 95 304.2 93.9 306.2 93.9 C 308.2 93.9 309.8 95 309.8 97.3 C 309.83 97.3 309.8 105.4 309.8 105.4 L 308.3 105.4 C 308.3 105.4 308.3 97.84 308.3 97.8 C 308.3 96.1 307.2 95.3 305.9 95.3 C 304.2 95.3 302.8 96.6 302.8 98.9 C 302.84 98.93 302.8 105.4 302.8 105.4 L 301.3 105.4 C 301.3 105.4 301.33 97.84 301.3 97.8 C 301.3 96.1 300.3 95.3 299 95.3 C 297.3 95.3 295.9 96.5 295.9 98.9 C 295.89 98.93 295.9 105.4 295.9 105.4 L 294.4 105.4 L 294.4 94.1 Z M 313.9 100.1 C 313.9 102.9 315.6 104.2 317.6 104.2 C 319.1 104.2 320.6 103.5 320.9 101.9 C 320.9 101.9 322.4 101.9 322.4 101.9 C 321.9 104.5 319.7 105.6 317.5 105.6 C 314.8 105.6 312.4 103.8 312.4 99.8 C 312.4 95.7 314.9 93.9 317.6 93.9 C 320.3 93.9 322.5 95.6 322.5 99.4 C 322.45 99.35 322.5 100.1 322.5 100.1 C 322.5 100.1 313.86 100.11 313.9 100.1 Z M 313.9 98.8 C 313.9 98.8 320.9 98.8 320.9 98.8 C 320.9 96.5 319.4 95.3 317.5 95.3 C 315.8 95.3 314.1 96.4 313.9 98.8 Z M 334.2 97.7 C 334.23 97.65 334.2 105.4 334.2 105.4 L 332.7 105.4 C 332.7 105.4 332.7 97.84 332.7 97.8 C 332.7 96.3 331.8 95.3 330.2 95.3 C 328.3 95.3 326.6 96.7 326.6 99.5 C 326.61 99.46 326.6 105.4 326.6 105.4 L 325.1 105.4 L 325.1 94.1 L 326.6 94.1 C 326.6 94.1 326.61 96.2 326.6 96.2 C 327.3 94.9 328.5 93.9 330.5 93.9 C 332.8 93.9 334.2 95.2 334.2 97.7 Z M 342.6 105.4 C 342.6 105.4 340.97 105.38 341 105.4 C 339.5 105.4 338.1 104.9 338.1 102.4 C 338.14 102.42 338.1 95.5 338.1 95.5 L 335.9 95.5 L 335.9 94.1 L 338.1 94.1 L 338.1 90.9 L 339.7 90.5 L 339.7 94.1 L 342.4 94.1 L 342.4 95.5 L 339.7 95.5 C 339.7 95.5 339.67 102.4 339.7 102.4 C 339.7 103.4 340 104 341.2 104 C 341.23 104 342.6 104 342.6 104 L 342.6 105.4 Z " stroke="none" fill="#000"/> </g> <g id="Polygon12482">  <path d="M 13 80.2 L 11.4 80.2 L 8.5 71.2 L 5.6 80.2 L 4.1 80.2 L 0.4 68.9 L 2 68.9 L 4.9 78.2 L 7.7 68.9 L 9.3 68.9 L 12.2 78.2 L 15.1 68.9 L 16.6 68.9 L 13 80.2 Z M 19.3 74.9 C 19.3 77.7 21.1 79 23.1 79 C 24.5 79 26 78.3 26.4 76.7 C 26.4 76.7 27.8 76.7 27.8 76.7 C 27.3 79.3 25.1 80.4 23 80.4 C 20.3 80.4 17.8 78.6 17.8 74.6 C 17.8 70.5 20.3 68.7 23 68.7 C 25.7 68.7 27.9 70.4 27.9 74.2 C 27.89 74.15 27.9 74.9 27.9 74.9 C 27.9 74.9 19.3 74.91 19.3 74.9 Z M 19.3 73.6 C 19.3 73.6 26.3 73.6 26.3 73.6 C 26.3 71.3 24.9 70.1 23 70.1 C 21.2 70.1 19.6 71.2 19.3 73.6 Z M 30.8 66.4 C 30.77 66.38 29.8 66.4 29.8 66.4 L 29.8 64.3 L 32 64.3 C 32 64.3 31.98 66.45 32 66.4 C 32 68.9 30.5 69.8 28.9 70 C 28.9 70 28.7 69 28.7 69 C 30.4 68.7 30.8 67.7 30.8 66.4 Z M 39.4 70.2 C 39.4 70.2 39.04 70.23 39 70.2 C 36.6 70.2 35.3 71.6 35.3 74.2 C 35.3 74.2 35.3 80.2 35.3 80.2 L 33.8 80.2 L 33.8 68.9 L 35.3 68.9 C 35.3 68.9 35.28 70.98 35.3 71 C 35.8 69.5 37.2 68.8 38.9 68.8 C 38.91 68.78 39.4 68.8 39.4 68.8 L 39.4 70.2 Z M 42 74.9 C 42 77.7 43.7 79 45.7 79 C 47.2 79 48.7 78.3 49 76.7 C 49 76.7 50.5 76.7 50.5 76.7 C 50 79.3 47.8 80.4 45.6 80.4 C 42.9 80.4 40.4 78.6 40.4 74.6 C 40.4 70.5 43 68.7 45.7 68.7 C 48.4 68.7 50.5 70.4 50.5 74.2 C 50.55 74.15 50.5 74.9 50.5 74.9 C 50.5 74.9 41.96 74.91 42 74.9 Z M 42 73.6 C 42 73.6 49 73.6 49 73.6 C 49 71.3 47.5 70.1 45.6 70.1 C 43.9 70.1 42.2 71.2 42 73.6 Z M 67.6 72.5 C 67.58 72.45 67.6 80.2 67.6 80.2 L 66 80.2 C 66 80.2 66.04 72.64 66 72.6 C 66 71.1 65.2 70.1 63.6 70.1 C 61.6 70.1 60 71.5 60 74.3 C 59.95 74.26 60 80.2 60 80.2 L 58.4 80.2 L 58.4 68.9 L 60 68.9 C 60 68.9 59.95 71 60 71 C 60.6 69.7 61.9 68.7 63.9 68.7 C 66.1 68.7 67.6 70 67.6 72.5 Z M 70.1 74.6 C 70.1 70.9 72.3 68.7 75.4 68.7 C 78.5 68.7 80.8 70.9 80.8 74.6 C 80.8 78.2 78.6 80.4 75.5 80.4 C 72.3 80.4 70.1 78.2 70.1 74.6 Z M 79.2 74.5 C 79.2 71.7 77.5 70.1 75.4 70.1 C 73.2 70.1 71.7 71.8 71.7 74.6 C 71.7 77.4 73.4 79 75.5 79 C 77.7 79 79.2 77.3 79.2 74.5 Z M 88.6 80.2 C 88.6 80.2 86.9 80.18 86.9 80.2 C 85.4 80.2 84.1 79.7 84.1 77.2 C 84.06 77.22 84.1 70.3 84.1 70.3 L 81.8 70.3 L 81.8 68.9 L 84.1 68.9 L 84.1 65.7 L 85.6 65.3 L 85.6 68.9 L 88.3 68.9 L 88.3 70.3 L 85.6 70.3 C 85.6 70.3 85.6 77.2 85.6 77.2 C 85.6 78.2 85.9 78.8 87.1 78.8 C 87.15 78.8 88.6 78.8 88.6 78.8 L 88.6 80.2 Z M 106.7 74.5 C 106.7 78 104.6 80.4 101.6 80.4 C 99.6 80.4 98.3 79.3 97.7 78.1 C 97.69 78.1 97.7 80.2 97.7 80.2 L 96.2 80.2 L 96.2 64.2 L 97.8 64.2 C 97.8 64.2 97.75 71.17 97.8 71.2 C 98.3 69.8 99.7 68.7 101.8 68.7 C 104.7 68.7 106.7 70.9 106.7 74.5 Z M 105.2 74.6 C 105.2 71.8 103.7 70.2 101.5 70.2 C 99.3 70.2 97.8 71.8 97.8 74.6 C 97.8 77.4 99.3 79.1 101.5 79.1 C 103.7 79.1 105.2 77.3 105.2 74.6 Z M 110.1 74.9 C 110.2 77.7 111.9 79 113.9 79 C 115.4 79 116.9 78.3 117.2 76.7 C 117.2 76.7 118.6 76.7 118.6 76.7 C 118.1 79.3 116 80.4 113.8 80.4 C 111.1 80.4 108.6 78.6 108.6 74.6 C 108.6 70.5 111.2 68.7 113.9 68.7 C 116.5 68.7 118.7 70.4 118.7 74.2 C 118.73 74.15 118.7 74.9 118.7 74.9 C 118.7 74.9 110.14 74.91 110.1 74.9 Z M 110.2 73.6 C 110.2 73.6 117.2 73.6 117.2 73.6 C 117.2 71.3 115.7 70.1 113.8 70.1 C 112.1 70.1 110.4 71.2 110.2 73.6 Z M 130.5 72.5 C 130.51 72.45 130.5 80.2 130.5 80.2 L 129 80.2 C 129 80.2 128.98 72.64 129 72.6 C 129 71.1 128.1 70.1 126.5 70.1 C 124.6 70.1 122.9 71.5 122.9 74.3 C 122.89 74.26 122.9 80.2 122.9 80.2 L 121.4 80.2 L 121.4 68.9 L 122.9 68.9 C 122.9 68.9 122.89 71 122.9 71 C 123.6 69.7 124.8 68.7 126.8 68.7 C 129 68.7 130.5 70 130.5 72.5 Z M 138.3 80.4 C 135.2 80.4 133 78.1 133 74.6 C 133 71 135.1 68.7 138.4 68.7 C 140.9 68.7 142.9 70.1 143.1 72.6 C 143.1 72.6 141.6 72.6 141.6 72.6 C 141.4 71 140 70.1 138.4 70.1 C 136.2 70.1 134.6 71.8 134.6 74.5 C 134.6 77.3 136.1 79 138.3 79 C 140 79 141.4 78 141.5 76.2 C 141.5 76.2 143.1 76.2 143.1 76.2 C 142.9 78.9 140.8 80.4 138.3 80.4 Z M 154.8 72.5 C 154.83 72.45 154.8 80.2 154.8 80.2 L 153.3 80.2 C 153.3 80.2 153.3 72.64 153.3 72.6 C 153.3 71.1 152.4 70.1 150.8 70.1 C 148.9 70.1 147.2 71.5 147.2 74.3 C 147.21 74.26 147.2 80.2 147.2 80.2 L 145.7 80.2 L 145.7 64.2 L 147.2 64.2 C 147.2 64.2 147.21 70.88 147.2 70.9 C 147.9 69.6 149.1 68.7 151.1 68.7 C 153.4 68.7 154.8 70 154.8 72.5 Z M 158.1 68.9 L 159.6 68.9 C 159.6 68.9 159.6 70.77 159.6 70.8 C 160.2 69.4 161.4 68.7 162.9 68.7 C 164.5 68.7 165.9 69.6 166.2 71 C 166.7 69.8 168 68.7 169.9 68.7 C 171.9 68.7 173.6 69.8 173.6 72.1 C 173.56 72.1 173.6 80.2 173.6 80.2 L 172 80.2 C 172 80.2 172.03 72.64 172 72.6 C 172 70.9 171 70.1 169.6 70.1 C 168 70.1 166.6 71.4 166.6 73.7 C 166.57 73.73 166.6 80.2 166.6 80.2 L 165.1 80.2 C 165.1 80.2 165.06 72.64 165.1 72.6 C 165.1 70.9 164 70.1 162.7 70.1 C 161 70.1 159.6 71.3 159.6 73.7 C 159.62 73.73 159.6 80.2 159.6 80.2 L 158.1 80.2 L 158.1 68.9 Z M 183.7 78.1 C 182.9 79.8 181.2 80.4 179.7 80.4 C 177.8 80.4 176.1 79.3 176.1 77.1 C 176.1 75 177.6 74 179.5 73.8 C 179.5 73.8 182.2 73.4 182.2 73.4 C 183 73.3 183.7 73 183.7 72 C 183.7 70.7 182.6 70 181 70 C 179.3 70 178.3 70.8 178.1 72.1 C 178.1 72.1 176.5 72.1 176.5 72.1 C 176.8 69.8 178.6 68.7 181.1 68.7 C 183.7 68.7 185.2 69.9 185.2 72.4 C 185.24 72.39 185.2 80.2 185.2 80.2 L 183.7 80.2 C 183.7 80.2 183.75 78.12 183.7 78.1 Z M 181.9 74.7 C 181.9 74.7 180.2 74.9 180.2 74.9 C 178.7 75.1 177.7 75.6 177.7 77 C 177.7 78.4 178.8 79 180 79 C 181.8 79 183.7 77.7 183.7 75.3 C 183.7 75.3 183.7 74.2 183.7 74.2 C 183.3 74.5 182.6 74.6 181.9 74.7 Z M 194 70.2 C 194 70.2 193.66 70.23 193.7 70.2 C 191.3 70.2 189.9 71.6 189.9 74.2 C 189.92 74.2 189.9 80.2 189.9 80.2 L 188.4 80.2 L 188.4 68.9 L 189.9 68.9 C 189.9 68.9 189.9 70.98 189.9 71 C 190.4 69.5 191.8 68.8 193.5 68.8 C 193.53 68.78 194 68.8 194 68.8 L 194 70.2 Z M 199.6 74.7 L 197.5 76.8 L 197.5 80.2 L 196 80.2 L 196 64.2 L 197.5 64.2 L 197.5 74.9 L 203.1 68.9 L 205.1 68.9 L 200.6 73.6 L 205.4 80.2 L 203.5 80.2 L 199.6 74.7 Z M 222 72.5 C 222.01 72.45 222 80.2 222 80.2 L 220.5 80.2 C 220.5 80.2 220.48 72.64 220.5 72.6 C 220.5 71.1 219.6 70.1 218 70.1 C 216.1 70.1 214.4 71.5 214.4 74.3 C 214.39 74.26 214.4 80.2 214.4 80.2 L 212.9 80.2 L 212.9 64.2 L 214.4 64.2 C 214.4 64.2 214.39 70.88 214.4 70.9 C 215 69.6 216.3 68.7 218.3 68.7 C 220.6 68.7 222 70 222 72.5 Z M 232.7 80.2 C 232.7 80.2 232.68 78.04 232.7 78 C 231.9 79.6 230.5 80.3 228.9 80.3 C 226.8 80.3 225.2 79 225.2 76.4 C 225.16 76.36 225.2 68.9 225.2 68.9 L 226.7 68.9 C 226.7 68.9 226.69 76.17 226.7 76.2 C 226.7 78 227.7 79 229.2 79 C 231 79 232.6 77.6 232.6 74.7 C 232.61 74.74 232.6 68.9 232.6 68.9 L 234.1 68.9 L 234.1 80.2 L 232.7 80.2 Z M 247.2 79.7 C 247.2 83.1 245 84.8 242.1 84.8 C 239.6 84.8 237.4 83.5 237 80.9 C 237 80.9 238.6 80.9 238.6 80.9 C 238.8 82.3 239.9 83.5 242.1 83.5 C 244.2 83.5 245.7 82.4 245.7 79.8 C 245.7 79.8 245.7 77.5 245.7 77.5 C 244.9 79.2 243.2 79.8 241.7 79.8 C 239 79.8 236.8 77.9 236.8 74.2 C 236.8 70.5 239.1 68.7 241.8 68.7 C 243.6 68.7 245 69.5 245.7 70.7 C 245.7 70.73 245.7 68.9 245.7 68.9 L 247.2 68.9 C 247.2 68.9 247.21 79.68 247.2 79.7 Z M 245.6 74.2 C 245.6 71.4 243.9 70 242 70 C 240.1 70 238.3 71.4 238.3 74.2 C 238.3 77 240 78.4 242 78.4 C 243.8 78.4 245.6 77.2 245.6 74.2 Z M 260.2 79.7 C 260.2 83.1 258 84.8 255.1 84.8 C 252.6 84.8 250.3 83.5 250 80.9 C 250 80.9 251.5 80.9 251.5 80.9 C 251.8 82.3 252.8 83.5 255.1 83.5 C 257.1 83.5 258.7 82.4 258.7 79.8 C 258.7 79.8 258.7 77.5 258.7 77.5 C 257.9 79.2 256.2 79.8 254.7 79.8 C 252 79.8 249.7 77.9 249.7 74.2 C 249.7 70.5 252.1 68.7 254.8 68.7 C 256.6 68.7 258 69.5 258.7 70.7 C 258.65 70.73 258.7 68.9 258.7 68.9 L 260.2 68.9 C 260.2 68.9 260.17 79.68 260.2 79.7 Z M 258.6 74.2 C 258.6 71.4 256.9 70 255 70 C 253 70 251.2 71.4 251.2 74.2 C 251.2 77 253 78.4 255 78.4 C 256.8 78.4 258.6 77.2 258.6 74.2 Z M 264.2 74.9 C 264.2 77.7 266 79 268 79 C 269.4 79 270.9 78.3 271.3 76.7 C 271.3 76.7 272.7 76.7 272.7 76.7 C 272.2 79.3 270 80.4 267.9 80.4 C 265.2 80.4 262.7 78.6 262.7 74.6 C 262.7 70.5 265.2 68.7 267.9 68.7 C 270.6 68.7 272.8 70.4 272.8 74.2 C 272.79 74.15 272.8 74.9 272.8 74.9 C 272.8 74.9 264.2 74.91 264.2 74.9 Z M 264.2 73.6 C 264.2 73.6 271.2 73.6 271.2 73.6 C 271.2 71.3 269.8 70.1 267.9 70.1 C 266.1 70.1 264.4 71.2 264.2 73.6 Z M 281 70.2 C 281 70.2 280.68 70.23 280.7 70.2 C 278.3 70.2 276.9 71.6 276.9 74.2 C 276.94 74.2 276.9 80.2 276.9 80.2 L 275.4 80.2 L 275.4 68.9 L 276.9 68.9 C 276.9 68.9 276.92 70.98 276.9 71 C 277.4 69.5 278.8 68.8 280.6 68.8 C 280.56 68.78 281 68.8 281 68.8 L 281 70.2 Z M 291.4 77 C 291.4 79.3 289.3 80.4 287.1 80.4 C 284.7 80.4 282.4 79.2 282.2 76.7 C 282.2 76.7 283.8 76.7 283.8 76.7 C 284.1 78.4 285.6 79 287.1 79 C 288.5 79 289.8 78.5 289.8 77.2 C 289.8 75.9 288.5 75.6 287.2 75.4 C 285 75 282.5 74.6 282.5 72 C 282.5 69.8 284.4 68.7 286.7 68.7 C 289.1 68.7 291 69.8 291.1 72.1 C 291.1 72.1 289.5 72.1 289.5 72.1 C 289.4 70.7 288.1 70.1 286.6 70.1 C 285.1 70.1 284.1 70.8 284.1 71.9 C 284.1 73.4 285.4 73.6 287.1 73.9 C 289.2 74.2 291.4 74.5 291.4 77 Z M 293.2 78 L 295.3 78 L 295.3 80.2 L 293.2 80.2 L 293.2 78 Z M 312.8 75.7 L 305.3 75.7 L 303.6 80.2 L 301.9 80.2 L 308.2 64.4 L 309.9 64.4 L 316.4 80.2 L 314.6 80.2 L 312.8 75.7 Z M 309 66.2 L 305.9 74.3 L 312.3 74.3 L 309 66.2 Z M 327.2 77 C 327.2 79.3 325.1 80.4 322.9 80.4 C 320.4 80.4 318.2 79.2 318 76.7 C 318 76.7 319.6 76.7 319.6 76.7 C 319.9 78.4 321.3 79 322.9 79 C 324.3 79 325.6 78.5 325.6 77.2 C 325.6 75.9 324.3 75.6 323 75.4 C 320.8 75 318.3 74.6 318.3 72 C 318.3 69.8 320.2 68.7 322.5 68.7 C 324.9 68.7 326.8 69.8 326.9 72.1 C 326.9 72.1 325.3 72.1 325.3 72.1 C 325.2 70.7 323.9 70.1 322.4 70.1 C 320.9 70.1 319.8 70.8 319.8 71.9 C 319.8 73.4 321.2 73.6 322.9 73.9 C 325 74.2 327.2 74.5 327.2 77 Z " stroke="none" fill="#000"/> </g> <g id="Polygon12481">  <path d="M 15.9 55 L 14.2 55 L 10.3 41.7 L 6.4 55 L 4.7 55 L 0.6 39.2 L 2.3 39.2 L 5.6 52.7 L 9.5 39.2 L 11.2 39.2 L 15.1 52.7 L 18.4 39.2 L 19.9 39.2 L 15.9 55 Z M 22 49.7 C 22 52.5 23.8 53.8 25.7 53.8 C 27.2 53.8 28.7 53.1 29 51.5 C 29 51.5 30.5 51.5 30.5 51.5 C 30 54.1 27.8 55.2 25.7 55.2 C 23 55.2 20.5 53.4 20.5 49.4 C 20.5 45.3 23 43.5 25.7 43.5 C 28.4 43.5 30.6 45.2 30.6 49 C 30.58 48.95 30.6 49.7 30.6 49.7 C 30.6 49.7 21.99 49.71 22 49.7 Z M 22 48.4 C 22 48.4 29 48.4 29 48.4 C 29 46.1 27.6 44.9 25.7 44.9 C 23.9 44.9 22.2 46 22 48.4 Z M 33.5 41.2 C 33.45 41.18 32.4 41.2 32.4 41.2 L 32.4 39.1 L 34.7 39.1 C 34.7 39.1 34.67 41.25 34.7 41.2 C 34.7 43.7 33.2 44.6 31.6 44.8 C 31.6 44.8 31.4 43.8 31.4 43.8 C 33.1 43.5 33.5 42.5 33.5 41.2 Z M 42.1 45 C 42.1 45 41.73 45.03 41.7 45 C 39.3 45 38 46.4 38 49 C 37.99 49 38 55 38 55 L 36.5 55 L 36.5 43.7 L 38 43.7 C 38 43.7 37.97 45.78 38 45.8 C 38.5 44.3 39.9 43.6 41.6 43.6 C 41.6 43.58 42.1 43.6 42.1 43.6 L 42.1 45 Z M 44.6 49.7 C 44.7 52.5 46.4 53.8 48.4 53.8 C 49.9 53.8 51.4 53.1 51.7 51.5 C 51.7 51.5 53.2 51.5 53.2 51.5 C 52.6 54.1 50.5 55.2 48.3 55.2 C 45.6 55.2 43.1 53.4 43.1 49.4 C 43.1 45.3 45.7 43.5 48.4 43.5 C 51.1 43.5 53.2 45.2 53.2 49 C 53.24 48.95 53.2 49.7 53.2 49.7 C 53.2 49.7 44.65 49.71 44.6 49.7 Z M 44.7 48.4 C 44.7 48.4 51.7 48.4 51.7 48.4 C 51.7 46.1 50.2 44.9 48.3 44.9 C 46.6 44.9 44.9 46 44.7 48.4 Z M 70.3 47.3 C 70.27 47.25 70.3 55 70.3 55 L 68.7 55 C 68.7 55 68.73 47.44 68.7 47.4 C 68.7 45.9 67.9 44.9 66.3 44.9 C 64.3 44.9 62.6 46.3 62.6 49.1 C 62.64 49.06 62.6 55 62.6 55 L 61.1 55 L 61.1 39 L 62.6 39 C 62.6 39 62.64 45.68 62.6 45.7 C 63.3 44.4 64.5 43.5 66.5 43.5 C 68.8 43.5 70.3 44.8 70.3 47.3 Z M 75.2 39 L 73.4 39 L 73.4 40.9 L 75.2 40.9 L 75.2 39 Z M 75.1 55 L 73.5 55 L 73.5 43.7 L 75.1 43.7 L 75.1 55 Z M 88.1 54.5 C 88.1 57.9 85.9 59.6 83 59.6 C 80.5 59.6 78.3 58.3 77.9 55.7 C 77.9 55.7 79.5 55.7 79.5 55.7 C 79.7 57.1 80.8 58.3 83 58.3 C 85.1 58.3 86.6 57.2 86.6 54.6 C 86.6 54.6 86.6 52.3 86.6 52.3 C 85.8 54 84.1 54.6 82.7 54.6 C 79.9 54.6 77.7 52.7 77.7 49 C 77.7 45.3 80 43.5 82.7 43.5 C 84.5 43.5 85.9 44.3 86.6 45.5 C 86.6 45.53 86.6 43.7 86.6 43.7 L 88.1 43.7 C 88.1 43.7 88.12 54.48 88.1 54.5 Z M 86.5 49 C 86.5 46.2 84.8 44.8 82.9 44.8 C 81 44.8 79.2 46.2 79.2 49 C 79.2 51.8 80.9 53.2 82.9 53.2 C 84.7 53.2 86.5 52 86.5 49 Z M 100.5 47.3 C 100.53 47.25 100.5 55 100.5 55 L 99 55 C 99 55 98.99 47.44 99 47.4 C 99 45.9 98.1 44.9 96.5 44.9 C 94.6 44.9 92.9 46.3 92.9 49.1 C 92.9 49.06 92.9 55 92.9 55 L 91.4 55 L 91.4 39 L 92.9 39 C 92.9 39 92.9 45.68 92.9 45.7 C 93.6 44.4 94.8 43.5 96.8 43.5 C 99.1 43.5 100.5 44.8 100.5 47.3 Z M 103.2 48.9 L 103.2 47.5 L 109.6 47.5 L 109.6 48.9 L 103.2 48.9 Z M 116.8 55.2 C 113.7 55.2 111.6 52.9 111.6 49.4 C 111.6 45.8 113.7 43.5 117 43.5 C 119.5 43.5 121.5 44.9 121.6 47.4 C 121.6 47.4 120.1 47.4 120.1 47.4 C 120 45.8 118.6 44.9 116.9 44.9 C 114.7 44.9 113.2 46.6 113.2 49.3 C 113.2 52.1 114.7 53.8 116.9 53.8 C 118.6 53.8 120 52.8 120.1 51 C 120.1 51 121.6 51 121.6 51 C 121.5 53.7 119.3 55.2 116.8 55.2 Z M 123.5 49.4 C 123.5 45.7 125.7 43.5 128.9 43.5 C 132 43.5 134.2 45.7 134.2 49.4 C 134.2 53 132 55.2 128.9 55.2 C 125.8 55.2 123.5 53 123.5 49.4 Z M 132.6 49.3 C 132.6 46.5 130.9 44.9 128.8 44.9 C 126.6 44.9 125.1 46.6 125.1 49.4 C 125.1 52.2 126.8 53.8 128.9 53.8 C 131.1 53.8 132.6 52.1 132.6 49.3 Z M 146 47.3 C 145.99 47.25 146 55 146 55 L 144.5 55 C 144.5 55 144.46 47.44 144.5 47.4 C 144.5 45.9 143.6 44.9 142 44.9 C 140 44.9 138.4 46.3 138.4 49.1 C 138.37 49.06 138.4 55 138.4 55 L 136.8 55 L 136.8 43.7 L 138.4 43.7 C 138.4 43.7 138.37 45.8 138.4 45.8 C 139 44.5 140.3 43.5 142.3 43.5 C 144.5 43.5 146 44.8 146 47.3 Z M 153.7 55 L 152.1 55 L 147.9 43.7 L 149.5 43.7 L 152.9 53.4 L 156.3 43.7 L 157.9 43.7 L 153.7 55 Z M 161.6 39 L 159.8 39 L 159.8 40.9 L 161.6 40.9 L 161.6 39 Z M 161.4 55 L 159.9 55 L 159.9 43.7 L 161.4 43.7 L 161.4 55 Z M 169.3 55.2 C 166.2 55.2 164.1 52.9 164.1 49.4 C 164.1 45.8 166.2 43.5 169.4 43.5 C 171.9 43.5 173.9 44.9 174.1 47.4 C 174.1 47.4 172.6 47.4 172.6 47.4 C 172.4 45.8 171 44.9 169.4 44.9 C 167.2 44.9 165.6 46.6 165.6 49.3 C 165.6 52.1 167.2 53.8 169.4 53.8 C 171.1 53.8 172.4 52.8 172.6 51 C 172.6 51 174.1 51 174.1 51 C 173.9 53.7 171.8 55.2 169.3 55.2 Z M 181.9 55 C 181.9 55 180.2 54.98 180.2 55 C 178.7 55 177.4 54.5 177.4 52 C 177.36 52.02 177.4 45.1 177.4 45.1 L 175.1 45.1 L 175.1 43.7 L 177.4 43.7 L 177.4 40.5 L 178.9 40.1 L 178.9 43.7 L 181.6 43.7 L 181.6 45.1 L 178.9 45.1 C 178.9 45.1 178.9 52 178.9 52 C 178.9 53 179.2 53.6 180.5 53.6 C 180.45 53.6 181.9 53.6 181.9 53.6 L 181.9 55 Z M 185.7 39 L 184 39 L 184 40.9 L 185.7 40.9 L 185.7 39 Z M 185.6 55 L 184.1 55 L 184.1 43.7 L 185.6 43.7 L 185.6 55 Z M 188.2 49.4 C 188.2 45.7 190.4 43.5 193.6 43.5 C 196.7 43.5 198.9 45.7 198.9 49.4 C 198.9 53 196.7 55.2 193.6 55.2 C 190.5 55.2 188.2 53 188.2 49.4 Z M 197.3 49.3 C 197.3 46.5 195.6 44.9 193.5 44.9 C 191.3 44.9 189.8 46.6 189.8 49.4 C 189.8 52.2 191.5 53.8 193.6 53.8 C 195.8 53.8 197.3 52.1 197.3 49.3 Z M 210.7 47.3 C 210.69 47.25 210.7 55 210.7 55 L 209.2 55 C 209.2 55 209.16 47.44 209.2 47.4 C 209.2 45.9 208.3 44.9 206.7 44.9 C 204.7 44.9 203.1 46.3 203.1 49.1 C 203.07 49.06 203.1 55 203.1 55 L 201.5 55 L 201.5 43.7 L 203.1 43.7 C 203.1 43.7 203.07 45.8 203.1 45.8 C 203.7 44.5 205 43.5 207 43.5 C 209.2 43.5 210.7 44.8 210.7 47.3 Z M 221.3 39 L 219.5 39 L 219.5 40.9 L 221.3 40.9 L 221.3 39 Z M 221.1 55 L 219.6 55 L 219.6 43.7 L 221.1 43.7 L 221.1 55 Z M 233.7 47.3 C 233.66 47.25 233.7 55 233.7 55 L 232.1 55 C 232.1 55 232.13 47.44 232.1 47.4 C 232.1 45.9 231.2 44.9 229.7 44.9 C 227.7 44.9 226 46.3 226 49.1 C 226.04 49.06 226 55 226 55 L 224.5 55 L 224.5 43.7 L 226 43.7 C 226 43.7 226.04 45.8 226 45.8 C 226.7 44.5 228 43.5 229.9 43.5 C 232.2 43.5 233.7 44.8 233.7 47.3 Z M 241.4 55 L 239.7 55 L 235.6 43.7 L 237.2 43.7 L 240.6 53.4 L 244 43.7 L 245.6 43.7 L 241.4 55 Z M 248.2 49.7 C 248.2 52.5 249.9 53.8 251.9 53.8 C 253.4 53.8 254.9 53.1 255.2 51.5 C 255.2 51.5 256.7 51.5 256.7 51.5 C 256.2 54.1 254 55.2 251.8 55.2 C 249.1 55.2 246.6 53.4 246.6 49.4 C 246.6 45.3 249.2 43.5 251.9 43.5 C 254.6 43.5 256.7 45.2 256.7 49 C 256.74 48.95 256.7 49.7 256.7 49.7 C 256.7 49.7 248.15 49.71 248.2 49.7 Z M 248.2 48.4 C 248.2 48.4 255.2 48.4 255.2 48.4 C 255.2 46.1 253.7 44.9 251.8 44.9 C 250.1 44.9 248.4 46 248.2 48.4 Z M 267.7 51.8 C 267.7 54.1 265.7 55.2 263.4 55.2 C 261 55.2 258.8 54 258.5 51.5 C 258.5 51.5 260.2 51.5 260.2 51.5 C 260.4 53.2 261.9 53.8 263.4 53.8 C 264.9 53.8 266.2 53.3 266.2 52 C 266.2 50.7 264.8 50.4 263.5 50.2 C 261.4 49.8 258.8 49.4 258.8 46.8 C 258.8 44.6 260.7 43.5 263 43.5 C 265.4 43.5 267.3 44.6 267.5 46.9 C 267.5 46.9 265.9 46.9 265.9 46.9 C 265.8 45.5 264.4 44.9 263 44.9 C 261.4 44.9 260.4 45.6 260.4 46.7 C 260.4 48.2 261.8 48.4 263.5 48.7 C 265.5 49 267.7 49.3 267.7 51.8 Z M 275.4 55 C 275.4 55 273.75 54.98 273.8 55 C 272.3 55 270.9 54.5 270.9 52 C 270.92 52.02 270.9 45.1 270.9 45.1 L 268.7 45.1 L 268.7 43.7 L 270.9 43.7 L 270.9 40.5 L 272.5 40.1 L 272.5 43.7 L 275.2 43.7 L 275.2 45.1 L 272.5 45.1 C 272.5 45.1 272.45 52 272.5 52 C 272.5 53 272.7 53.6 274 53.6 C 274 53.6 275.4 53.6 275.4 53.6 L 275.4 55 Z M 276.9 49.4 C 276.9 45.7 279.1 43.5 282.2 43.5 C 285.3 43.5 287.6 45.7 287.6 49.4 C 287.6 53 285.3 55.2 282.2 55.2 C 279.1 55.2 276.9 53 276.9 49.4 Z M 286 49.3 C 286 46.5 284.3 44.9 282.2 44.9 C 280 44.9 278.5 46.6 278.5 49.4 C 278.5 52.2 280.2 53.8 282.3 53.8 C 284.4 53.8 286 52.1 286 49.3 Z M 295.8 45 C 295.8 45 295.47 45.03 295.5 45 C 293.1 45 291.7 46.4 291.7 49 C 291.73 49 291.7 55 291.7 55 L 290.2 55 L 290.2 43.7 L 291.7 43.7 C 291.7 43.7 291.71 45.78 291.7 45.8 C 292.2 44.3 293.6 43.6 295.3 43.6 C 295.34 43.58 295.8 43.6 295.8 43.6 L 295.8 45 Z M 306.2 51.8 C 306.2 54.1 304.1 55.2 301.8 55.2 C 299.4 55.2 297.2 54 297 51.5 C 297 51.5 298.6 51.5 298.6 51.5 C 298.9 53.2 300.3 53.8 301.9 53.8 C 303.3 53.8 304.6 53.3 304.6 52 C 304.6 50.7 303.3 50.4 302 50.2 C 299.8 49.8 297.3 49.4 297.3 46.8 C 297.3 44.6 299.2 43.5 301.5 43.5 C 303.9 43.5 305.8 44.6 305.9 46.9 C 305.9 46.9 304.3 46.9 304.3 46.9 C 304.2 45.5 302.9 44.9 301.4 44.9 C 299.9 44.9 298.8 45.6 298.8 46.7 C 298.8 48.2 300.2 48.4 301.9 48.7 C 303.9 49 306.2 49.3 306.2 51.8 Z M 309.8 54.9 C 309.81 54.86 308.8 54.9 308.8 54.9 L 308.8 52.8 L 311 52.8 C 311 52.8 311.03 54.92 311 54.9 C 311 57.4 309.6 58.3 308 58.4 C 308 58.4 307.8 57.5 307.8 57.5 C 309.5 57.2 309.8 56.2 309.8 54.9 Z " stroke="none" fill="#000"/> </g> <g id="Polygon12480">  <path d="M 12.6 19.8 L 9.7 19.8 L 11.2 13.2 L 4.7 13.2 L 3.3 19.8 L 0.3 19.8 L 4 4 L 6.9 4 L 5.4 10.5 L 11.8 10.5 L 13.3 4 L 16.2 4 L 12.6 19.8 Z M 18.5 6.7 L 19.2 3.5 L 22.2 3.5 L 21.5 6.7 L 18.5 6.7 Z M 15.6 19.8 L 18.2 8.2 L 21 8.2 L 18.4 19.8 L 15.6 19.8 Z M 31.3 19.2 C 30.4 23.2 27.9 24.4 25.5 24.4 C 23 24.4 20.9 23.1 20.9 20.1 C 20.9 20.1 23.5 20.1 23.5 20.1 C 23.6 21 24 22 25.6 22 C 27.1 22 28.1 21.2 28.6 19 C 28.6 19 29 17.7 29 17.7 C 28.4 18.9 27.3 19.4 26 19.4 C 23.2 19.4 21.7 17.1 21.7 14.6 C 21.7 11.5 23.9 8 27.5 8 C 29.4 8 30.4 8.9 30.7 10 C 30.72 9.95 31.1 8.2 31.1 8.2 L 33.8 8.2 C 33.8 8.2 31.29 19.19 31.3 19.2 Z M 29.9 12.8 C 29.9 11.4 29.3 10.4 27.8 10.4 C 25.7 10.4 24.4 12.4 24.4 14.3 C 24.4 15.7 25.2 16.9 26.6 16.9 C 28.6 16.9 29.9 14.8 29.9 12.8 Z M 45.2 11.4 C 45.2 11.7 45.1 12.1 45.1 12.3 C 45.09 12.35 43.4 19.8 43.4 19.8 L 40.6 19.8 C 40.6 19.8 42.27 12.49 42.3 12.5 C 42.3 12.3 42.3 12.1 42.3 11.9 C 42.3 11 41.7 10.5 40.7 10.5 C 39.3 10.5 38.3 11.5 37.8 13.4 C 37.84 13.36 36.4 19.8 36.4 19.8 L 33.6 19.8 L 37.3 3.8 L 40 3.8 C 40 3.8 38.7 9.55 38.7 9.6 C 39.3 8.8 40.3 8 41.8 8 C 44.2 8 45.2 9.7 45.2 11.4 Z M 63.8 14 C 63.8 14 66.8 14 66.8 14 C 66.3 17.8 63.1 20.2 59.4 20.2 C 54.8 20.2 52.5 16.5 52.5 12.7 C 52.5 8.3 55.6 3.7 61 3.7 C 64.3 3.7 67.4 5.5 67.4 9 C 67.4 9 67.4 9.1 67.4 9.3 C 67.4 9.3 64.4 9.3 64.4 9.3 C 64.4 7.5 63 6.4 61 6.4 C 57.5 6.4 55.5 9.6 55.5 12.6 C 55.5 15.1 56.7 17.4 59.6 17.4 C 61.6 17.4 63.3 16.2 63.8 14 Z M 79.1 13.1 C 79.1 17 76.6 20 73 20 C 70.3 20 68.2 18.4 68.2 14.9 C 68.2 11 70.8 8 74.3 8 C 77 8 79.1 9.7 79.1 13.1 Z M 74.2 10.6 C 72.4 10.6 71 12.4 71 14.8 C 71 16.7 71.9 17.5 73.2 17.5 C 75 17.5 76.4 15.6 76.4 13.3 C 76.4 11.4 75.5 10.6 74.2 10.6 Z M 91.4 11.4 C 91.4 11.7 91.3 12.1 91.3 12.3 C 91.27 12.35 89.6 19.8 89.6 19.8 L 86.8 19.8 C 86.8 19.8 88.45 12.49 88.5 12.5 C 88.5 12.3 88.5 12.1 88.5 11.9 C 88.5 11 87.9 10.5 86.9 10.5 C 85.4 10.5 84.4 11.5 84 13.4 C 84.02 13.36 82.5 19.8 82.5 19.8 L 79.7 19.8 L 82.4 8.2 L 85.1 8.2 C 85.1 8.2 84.69 9.87 84.7 9.9 C 85.2 9 86.2 8 88 8 C 90.3 8 91.4 9.7 91.4 11.4 Z M 97.9 19.8 L 95 19.8 L 93.1 8.2 L 95.8 8.2 L 97 16.5 L 101.6 8.2 L 104.7 8.2 L 97.9 19.8 Z M 106.3 6.7 L 107 3.5 L 110 3.5 L 109.3 6.7 L 106.3 6.7 Z M 103.4 19.8 L 106.1 8.2 L 108.9 8.2 L 106.2 19.8 L 103.4 19.8 Z M 116.7 15.7 C 116.7 15.7 119.5 15.7 119.5 15.7 C 118.9 18.3 116.8 20 114.2 20 C 111.1 20 109.7 17.5 109.7 14.7 C 109.7 11.4 111.8 8 115.7 8 C 118.2 8 120.1 9.5 120.1 11.9 C 120.1 12.1 120.1 12.2 120.1 12.4 C 120.1 12.37 117.4 12.4 117.4 12.4 C 117.4 12.4 117.41 12.26 117.4 12.3 C 117.4 11.2 116.5 10.6 115.5 10.6 C 113.5 10.6 112.4 12.9 112.4 14.8 C 112.4 16.2 113 17.5 114.4 17.5 C 115.6 17.5 116.3 16.7 116.7 15.7 Z M 124.3 16.5 C 124.3 16.9 124.5 17.3 125.2 17.3 C 125.22 17.28 126.7 17.3 126.7 17.3 L 126.1 19.8 C 126.1 19.8 124.11 19.78 124.1 19.8 C 122.3 19.8 121.5 18.5 121.5 17 C 121.5 16.6 121.5 16.3 121.6 15.9 C 121.59 15.94 122.8 10.7 122.8 10.7 L 120.8 10.7 L 121.4 8.2 L 123.4 8.2 L 124 5.4 L 126.9 4.7 L 126.1 8.2 L 128.6 8.2 L 128 10.7 L 125.6 10.7 C 125.6 10.7 124.4 15.73 124.4 15.7 C 124.3 16 124.3 16.2 124.3 16.5 Z M 130.9 6.7 L 131.6 3.5 L 134.6 3.5 L 133.9 6.7 L 130.9 6.7 Z M 127.9 19.8 L 130.6 8.2 L 133.4 8.2 L 130.7 19.8 L 127.9 19.8 Z M 145.1 13.1 C 145.1 17 142.5 20 138.9 20 C 136.3 20 134.1 18.4 134.1 14.9 C 134.1 11 136.7 8 140.3 8 C 142.9 8 145.1 9.7 145.1 13.1 Z M 140.2 10.6 C 138.3 10.6 136.9 12.4 136.9 14.8 C 136.9 16.7 137.8 17.5 139.1 17.5 C 140.9 17.5 142.3 15.6 142.3 13.3 C 142.3 11.4 141.4 10.6 140.2 10.6 Z M 157.3 11.4 C 157.3 11.7 157.2 12.1 157.2 12.3 C 157.18 12.35 155.5 19.8 155.5 19.8 L 152.7 19.8 C 152.7 19.8 154.37 12.49 154.4 12.5 C 154.4 12.3 154.4 12.1 154.4 11.9 C 154.4 11 153.8 10.5 152.8 10.5 C 151.4 10.5 150.4 11.5 149.9 13.4 C 149.94 13.36 148.4 19.8 148.4 19.8 L 145.7 19.8 L 148.3 8.2 L 151 8.2 C 151 8.2 150.61 9.87 150.6 9.9 C 151.1 9 152.2 8 153.9 8 C 156.3 8 157.3 9.7 157.3 11.4 Z M 167.1 16.5 C 167.1 16.9 167.3 17.3 168 17.3 C 168.02 17.28 169.5 17.3 169.5 17.3 L 168.9 19.8 C 168.9 19.8 166.91 19.78 166.9 19.8 C 165.1 19.8 164.3 18.5 164.3 17 C 164.3 16.6 164.3 16.3 164.4 15.9 C 164.39 15.94 165.6 10.7 165.6 10.7 L 163.6 10.7 L 164.2 8.2 L 166.2 8.2 L 166.8 5.4 L 169.7 4.7 L 168.9 8.2 L 171.4 8.2 L 170.8 10.7 L 168.4 10.7 C 168.4 10.7 167.2 15.73 167.2 15.7 C 167.1 16 167.1 16.2 167.1 16.5 Z M 181.9 13.1 C 181.9 17 179.4 20 175.8 20 C 173.1 20 171 18.4 171 14.9 C 171 11 173.6 8 177.1 8 C 179.8 8 181.9 9.7 181.9 13.1 Z M 177 10.6 C 175.1 10.6 173.7 12.4 173.7 14.8 C 173.7 16.7 174.7 17.5 175.9 17.5 C 177.8 17.5 179.1 15.6 179.1 13.3 C 179.1 11.4 178.2 10.6 177 10.6 Z M 201.4 8.4 C 201.4 8.4 198.4 8.4 198.4 8.4 C 198.4 6.8 197 6.2 195.7 6.2 C 194.2 6.2 193 6.9 193 8.3 C 193 9.5 193.8 10 195.7 10.7 C 197.7 11.4 200.1 12.2 200.1 15.2 C 200.1 18.5 197.3 20.2 194.2 20.2 C 191.1 20.2 188.2 18.4 188.2 14.8 C 188.2 14.7 188.2 14.6 188.3 14.4 C 188.3 14.4 191.2 14.4 191.2 14.4 C 191.2 14.6 191.1 14.8 191.1 14.9 C 191.1 16.8 192.8 17.7 194.4 17.7 C 195.9 17.7 197.1 17 197.1 15.6 C 197.1 14.3 196.1 13.8 194.5 13.2 C 192.4 12.3 190.1 11.4 190.1 8.5 C 190.1 5.6 192.2 3.7 195.7 3.7 C 199.3 3.7 201.3 5.7 201.4 8.4 Z M 204.2 15.2 C 204.2 16.3 204.7 17.6 206.4 17.6 C 207.4 17.6 208.3 17.2 208.7 16.1 C 208.7 16.1 211.4 16.1 211.4 16.1 C 210.5 18.7 208.5 20 206.2 20 C 203.3 20 201.6 17.9 201.6 14.8 C 201.6 11.1 204 8 207.7 8 C 210.8 8 212 10.2 212 12.8 C 212 13.4 212 14.2 211.8 14.8 C 211.8 14.8 204.2 14.8 204.2 14.8 C 204.2 15 204.2 15.1 204.2 15.2 Z M 204.5 12.8 C 204.5 12.8 209.4 12.8 209.4 12.8 C 209.5 12.6 209.5 12.5 209.5 12.4 C 209.5 11.2 208.7 10.4 207.4 10.4 C 206.1 10.4 205 11.1 204.5 12.8 Z M 215.7 15.2 C 215.7 16.3 216.3 17.6 218 17.6 C 219 17.6 219.8 17.2 220.2 16.1 C 220.2 16.1 223 16.1 223 16.1 C 222.1 18.7 220 20 217.7 20 C 214.9 20 213.2 17.9 213.2 14.8 C 213.2 11.1 215.6 8 219.2 8 C 222.3 8 223.6 10.2 223.6 12.8 C 223.6 13.4 223.5 14.2 223.4 14.8 C 223.4 14.8 215.8 14.8 215.8 14.8 C 215.7 15 215.7 15.1 215.7 15.2 Z M 216.1 12.8 C 216.1 12.8 221 12.8 221 12.8 C 221 12.6 221 12.5 221 12.4 C 221 11.2 220.3 10.4 218.9 10.4 C 217.7 10.4 216.6 11.1 216.1 12.8 Z M 231.4 13.3 L 234.5 19.8 L 231.5 19.8 L 229.3 15.1 L 227.7 16.5 L 226.9 19.8 L 224.1 19.8 L 227.8 3.8 L 230.6 3.8 L 228.6 12.4 L 233.5 8.2 L 237.3 8.2 L 231.4 13.3 Z M 242.1 12.9 C 242.1 7.9 245.6 3.7 250.5 3.7 C 254.7 3.7 257.3 6.8 257.3 11 C 257.3 15.9 253.7 20.2 248.9 20.2 C 244.8 20.2 242.1 17.1 242.1 12.9 Z M 245 12.7 C 245 15.6 246.5 17.4 249 17.4 C 252.1 17.4 254.4 14.6 254.4 11.1 C 254.4 8.3 253 6.5 250.4 6.5 C 247.3 6.5 245 9.2 245 12.7 Z M 267 19.8 L 264.4 19.8 C 264.4 19.8 264.79 17.95 264.8 18 C 264.2 19 263.3 19.9 261.6 19.9 C 259.1 19.9 257.9 18 258.4 15.6 C 258.4 15.6 260.1 8.2 260.1 8.2 L 262.9 8.2 C 262.9 8.2 261.22 15.52 261.2 15.5 C 261 16.4 261.3 17.4 262.6 17.4 C 264.1 17.4 265 16.2 265.6 13.9 C 265.56 13.92 266.9 8.2 266.9 8.2 L 269.7 8.2 L 267 19.8 Z M 273.6 16.5 C 273.6 16.9 273.8 17.3 274.5 17.3 C 274.51 17.28 276 17.3 276 17.3 L 275.4 19.8 C 275.4 19.8 273.4 19.78 273.4 19.8 C 271.6 19.8 270.8 18.5 270.8 17 C 270.8 16.6 270.8 16.3 270.9 15.9 C 270.88 15.94 272.1 10.7 272.1 10.7 L 270.1 10.7 L 270.6 8.2 L 272.7 8.2 L 273.3 5.4 L 276.2 4.7 L 275.4 8.2 L 277.8 8.2 L 277.3 10.7 L 274.8 10.7 C 274.8 10.7 273.69 15.73 273.7 15.7 C 273.6 16 273.6 16.2 273.6 16.5 Z M 295.4 19.8 L 292.2 19.8 L 289.6 13.5 L 287.4 13.5 L 285.9 19.8 L 283 19.8 L 286.6 4 C 286.6 4 291.9 4.03 291.9 4 C 295 4 296.5 6.1 296.5 8.3 C 296.5 10.3 295.1 12.5 292.5 13.1 C 292.53 13.1 295.4 19.8 295.4 19.8 Z M 293.5 8.5 C 293.5 7.5 292.8 6.8 291.5 6.8 C 291.48 6.76 288.9 6.8 288.9 6.8 L 288 10.8 C 288 10.8 290.83 10.81 290.8 10.8 C 292.6 10.8 293.5 9.6 293.5 8.5 Z M 299.3 15.2 C 299.3 16.3 299.9 17.6 301.6 17.6 C 302.6 17.6 303.4 17.2 303.8 16.1 C 303.8 16.1 306.6 16.1 306.6 16.1 C 305.7 18.7 303.6 20 301.3 20 C 298.5 20 296.8 17.9 296.8 14.8 C 296.8 11.1 299.2 8 302.8 8 C 305.9 8 307.2 10.2 307.2 12.8 C 307.2 13.4 307.1 14.2 307 14.8 C 307 14.8 299.3 14.8 299.3 14.8 C 299.3 15 299.3 15.1 299.3 15.2 Z M 299.7 12.8 C 299.7 12.8 304.6 12.8 304.6 12.8 C 304.6 12.6 304.6 12.5 304.6 12.4 C 304.6 11.2 303.9 10.4 302.5 10.4 C 301.3 10.4 300.2 11.1 299.7 12.8 Z M 311.5 16.5 C 311.5 16.9 311.7 17.3 312.5 17.3 C 312.46 17.28 313.9 17.3 313.9 17.3 L 313.4 19.8 C 313.4 19.8 311.34 19.78 311.3 19.8 C 309.6 19.8 308.7 18.5 308.7 17 C 308.7 16.6 308.7 16.3 308.8 15.9 C 308.82 15.94 310 10.7 310 10.7 L 308 10.7 L 308.6 8.2 L 310.6 8.2 L 311.3 5.4 L 314.2 4.7 L 313.4 8.2 L 315.8 8.2 L 315.2 10.7 L 312.8 10.7 C 312.8 10.7 311.64 15.73 311.6 15.7 C 311.6 16 311.5 16.2 311.5 16.5 Z M 324.5 19.8 L 321.9 19.8 C 321.9 19.8 322.28 17.95 322.3 18 C 321.7 19 320.8 19.9 319.1 19.9 C 316.6 19.9 315.4 18 315.9 15.6 C 315.9 15.6 317.6 8.2 317.6 8.2 L 320.4 8.2 C 320.4 8.2 318.71 15.52 318.7 15.5 C 318.5 16.4 318.8 17.4 320.1 17.4 C 321.6 17.4 322.5 16.2 323.1 13.9 C 323.06 13.92 324.4 8.2 324.4 8.2 L 327.2 8.2 L 324.5 19.8 Z M 335.6 10.8 C 335.6 10.8 334.76 10.77 334.8 10.8 C 332.9 10.8 331.7 11.8 331.2 13.9 C 331.19 13.88 329.8 19.8 329.8 19.8 L 327.1 19.8 L 329.7 8.2 L 332.5 8.2 C 332.5 8.2 332.03 10.21 332 10.2 C 332.6 8.9 333.6 8.1 335 8.1 C 335.03 8.06 336.3 8.1 336.3 8.1 L 335.6 10.8 Z M 346.6 11.4 C 346.6 11.7 346.5 12.1 346.5 12.3 C 346.48 12.35 344.8 19.8 344.8 19.8 L 342 19.8 C 342 19.8 343.66 12.49 343.7 12.5 C 343.7 12.3 343.7 12.1 343.7 11.9 C 343.7 11 343.1 10.5 342.1 10.5 C 340.7 10.5 339.7 11.5 339.2 13.4 C 339.23 13.36 337.7 19.8 337.7 19.8 L 334.9 19.8 L 337.6 8.2 L 340.3 8.2 C 340.3 8.2 339.9 9.87 339.9 9.9 C 340.4 9 341.5 8 343.2 8 C 345.6 8 346.6 9.7 346.6 11.4 Z M 357.4 11.9 C 357.4 11.9 354.7 11.9 354.7 11.9 C 354.7 10.9 354 10.3 352.9 10.3 C 351.9 10.3 351.2 10.8 351.2 11.5 C 351.2 12.2 352 12.5 353.3 12.9 C 355 13.5 356.6 14.2 356.6 16.2 C 356.6 18.7 354.2 20 351.9 20 C 349.6 20 347.3 18.7 347.2 16.1 C 347.2 16.1 350 16.1 350 16.1 C 350.2 17.3 350.9 17.7 352.1 17.7 C 352.9 17.7 353.8 17.5 353.8 16.5 C 353.8 15.9 353.3 15.6 352.4 15.3 C 350.9 14.8 348.4 14.2 348.4 11.6 C 348.4 9.2 350.5 8 352.9 8 C 355.4 8 357.4 9.4 357.4 11.9 Z " stroke="none" fill="#000"/> </g></svg>