<?xml version="1.0" standalone="no"?><!DOCTYPE svg PUBLIC "-//W3C//DTD SVG 1.1//EN" "http://www.w3.org/Graphics/SVG/1.1/DTD/svg11.dtd"><svg xmlns="http://www.w3.org/2000/svg" version="1.1" width="346px" height="198.4px" viewBox="0 -4 346 198.4" style="top:-4px"><desc>Look Bottom-Up to Find True Value Specific to us in Vontobel: we re bottom-up investors and given how challenging the</desc><defs/><g id="Polygon11942"><path d="m13 181h-1.6l-2.9-9l-2.9 9H4.1L.4 169.7h1.6l2.9 9.3l2.8-9.3h1.6l2.9 9.3l2.9-9.3h1.5L13 181zm6.3-5.3c0 2.8 1.8 4.1 3.8 4.1c1.4 0 2.9-.7 3.3-2.3h1.4c-.5 2.6-2.7 3.7-4.8 3.7c-2.7 0-5.2-1.8-5.2-5.8c0-4.1 2.5-5.9 5.2-5.9c2.7 0 4.9 1.7 4.9 5.5v.7h-8.6zm0-1.3h7c0-2.3-1.4-3.5-3.3-3.5c-1.8 0-3.4 1.1-3.7 3.5zm21.4 6.6s-1.66-.02-1.7 0c-1.5 0-2.8-.5-2.8-3v-6.9H34v-1.4h2.2v-3.2l1.5-.4v3.6h2.8v1.4h-2.8s.04 6.9 0 6.9c0 1 .3 1.6 1.6 1.6h1.4v1.4zm11.4-7.7c-.04-.05 0 7.7 0 7.7h-1.6s.03-7.56 0-7.6c0-1.5-.9-2.5-2.5-2.5c-1.9 0-3.6 1.4-3.6 4.2c.04-.04 0 5.9 0 5.9h-1.5v-16h1.5s.04 6.68 0 6.7c.7-1.3 1.9-2.2 3.9-2.2c2.3 0 3.8 1.3 3.8 3.8zM57 165h-1.8v1.9h1.8V165zm-.2 16h-1.5v-11.3h1.5V181zm12.6-7.7c-.04-.05 0 7.7 0 7.7h-1.6s.03-7.56 0-7.6c0-1.5-.9-2.5-2.4-2.5c-2 0-3.7 1.4-3.7 4.2c.04-.04 0 5.9 0 5.9h-1.5v-11.3h1.5s.04 2.1 0 2.1c.7-1.3 2-2.3 3.9-2.3c2.3 0 3.8 1.3 3.8 3.8zm6.8 2.2l-2 2.1v3.4h-1.6v-16h1.6v10.7l5.5-6h2l-4.5 4.7L82 181h-1.9l-3.9-5.5zm18.2 5.5s-1.66-.02-1.7 0c-1.5 0-2.8-.5-2.8-3v-6.9h-2.2v-1.4h2.2v-3.2l1.5-.4v3.6h2.8v1.4h-2.8s.03 6.9 0 6.9c0 1 .3 1.6 1.6 1.6h1.4v1.4zm11.4-7.7c-.05-.05 0 7.7 0 7.7h-1.6s.02-7.56 0-7.6c0-1.5-.9-2.5-2.5-2.5c-1.9 0-3.6 1.4-3.6 4.2c.03-.04 0 5.9 0 5.9h-1.5v-16h1.5s.03 6.68 0 6.7c.7-1.3 1.9-2.2 3.9-2.2c2.3 0 3.8 1.3 3.8 3.8zm10.1 5.6c-.8 1.7-2.5 2.3-4 2.3c-1.9 0-3.6-1.1-3.6-3.3c0-2.1 1.5-3.1 3.4-3.3l2.7-.4c.8-.1 1.5-.4 1.5-1.4c0-1.3-1.1-2-2.7-2c-1.7 0-2.7.8-3 2.1h-1.5c.3-2.3 2.1-3.4 4.6-3.4c2.6 0 4.1 1.2 4.1 3.7c.03-.01 0 7.8 0 7.8h-1.5s.04-2.08 0-2.1zm-1.8-3.4l-1.8.2c-1.4.2-2.5.7-2.5 2.1c0 1.4 1.1 2 2.4 2c1.7 0 3.7-1.3 3.7-3.7V175c-.4.3-1.1.4-1.8.5zm11.6 5.5s-1.63-.02-1.6 0c-1.5 0-2.9-.5-2.9-3c.03.02 0-6.9 0-6.9H119v-1.4h2.2v-3.2l1.6-.4v3.6h2.7v1.4h-2.7s-.04 6.9 0 6.9c0 1 .3 1.6 1.5 1.6h1.4v1.4zm18.5 0h-1.5l-2.9-9l-2.9 9h-1.5l-3.7-11.3h1.6l2.9 9.3l2.8-9.3h1.6l2.9 9.3l2.8-9.3h1.6l-3.7 11.3zm7.5-16h-1.8v1.9h1.8V165zm-.1 16H150v-11.3h1.6V181zm4.8 0h-1.5v-16h1.5v16zm4.9 0h-1.5v-16h1.5v16zm13.1.2c-3.1 0-5.2-2.3-5.2-5.8c0-3.6 2.1-5.9 5.4-5.9c2.5 0 4.5 1.4 4.6 3.9h-1.5c-.1-1.6-1.5-2.5-3.2-2.5c-2.2 0-3.7 1.7-3.7 4.4c0 2.8 1.5 4.5 3.7 4.5c1.7 0 3.1-1 3.2-2.8h1.5c-.1 2.7-2.3 4.2-4.8 4.2zm6.7-5.8c0-3.7 2.2-5.9 5.4-5.9c3.1 0 5.3 2.2 5.3 5.9c0 3.6-2.2 5.8-5.3 5.8c-3.1 0-5.4-2.2-5.4-5.8zm9.1-.1c0-2.8-1.7-4.4-3.8-4.4c-2.2 0-3.7 1.7-3.7 4.5c0 2.8 1.7 4.4 3.8 4.4c2.2 0 3.7-1.7 3.7-4.5zm13.4-2v7.7h-1.5s-.04-7.56 0-7.6c0-1.5-.9-2.5-2.5-2.5c-2 0-3.6 1.4-3.6 4.2c-.03-.04 0 5.9 0 5.9h-1.6v-11.3h1.6s-.03 2.1 0 2.1c.6-1.3 1.9-2.3 3.9-2.3c2.2 0 3.7 1.3 3.7 3.8zm8.4 7.7s-1.67-.02-1.7 0c-1.5 0-2.8-.5-2.8-3v-6.9h-2.2v-1.4h2.2v-3.2l1.5-.4v3.6h2.8v1.4H209s.03 6.9 0 6.9c0 1 .3 1.6 1.6 1.6h1.4v1.4zm3.8-16h-1.7v1.9h1.7V165zm-.1 16h-1.5v-11.3h1.5V181zm12.5-7.7c.05-.05 0 7.7 0 7.7h-1.5v-7.6c0-1.5-.9-2.5-2.5-2.5c-1.9 0-3.6 1.4-3.6 4.2c.02-.04 0 5.9 0 5.9h-1.5v-11.3h1.5s.02 2.1 0 2.1c.7-1.3 2-2.3 3.9-2.3c2.3 0 3.7 1.3 3.7 3.8zm10.7 7.7s.01-2.16 0-2.2c-.8 1.6-2.1 2.3-3.7 2.3c-2.2 0-3.8-1.3-3.8-3.9v-7.5h1.5s.03 7.27 0 7.3c0 1.8 1 2.8 2.5 2.8c1.8 0 3.5-1.4 3.5-4.3c-.05.04 0-5.8 0-5.8h1.5V181h-1.5zm5.6-5.3c.1 2.8 1.8 4.1 3.8 4.1c1.5 0 2.9-.7 3.3-2.3h1.4c-.5 2.6-2.7 3.7-4.8 3.7c-2.7 0-5.2-1.8-5.2-5.8c0-4.1 2.5-5.9 5.3-5.9c2.6 0 4.8 1.7 4.8 5.5v.7h-8.6zm.1-1.3h7c0-2.3-1.5-3.5-3.4-3.5c-1.8 0-3.4 1.1-3.6 3.5zm10.4 4.4h2.1v2.2H255v-2.2z" stroke="none" fill="#000"/></g><g id="Polygon11941"><path d="m3.3 139.8H1.6v1.9h1.7v-1.9zm-.1 16H1.7v-11.3h1.5v11.3zm12.5-7.7c.03-.05 0 7.7 0 7.7h-1.5v-7.6c0-1.5-.9-2.5-2.5-2.5c-1.9 0-3.6 1.4-3.6 4.2v5.9H6.6v-11.3h1.5v2.1c.7-1.3 1.9-2.3 3.9-2.3c2.3 0 3.7 1.3 3.7 3.8zm7.8 7.7h-1.7l-4.2-11.3h1.7l3.4 9.7l3.4-9.7h1.6l-4.2 11.3zm6.7-5.3c.1 2.8 1.8 4.1 3.8 4.1c1.5 0 2.9-.7 3.3-2.3h1.4c-.5 2.6-2.7 3.7-4.8 3.7c-2.7 0-5.2-1.8-5.2-5.8c0-4.1 2.5-5.9 5.3-5.9c2.6 0 4.8 1.7 4.8 5.5v.7h-8.6zm.1-1.3h7c0-2.3-1.5-3.5-3.4-3.5c-1.8 0-3.4 1.1-3.6 3.5zm19.5 3.4c0 2.3-2.1 3.4-4.3 3.4c-2.5 0-4.7-1.2-4.9-3.7h1.6c.3 1.7 1.8 2.3 3.3 2.3c1.4 0 2.7-.5 2.7-1.8c0-1.3-1.3-1.6-2.6-1.8c-2.2-.4-4.7-.8-4.7-3.4c0-2.2 1.9-3.3 4.2-3.3c2.4 0 4.3 1.1 4.4 3.4h-1.6c-.1-1.4-1.4-2-2.9-2c-1.5 0-2.5.7-2.5 1.8c0 1.5 1.3 1.7 3 2c2.1.3 4.3.6 4.3 3.1zm7.7 3.2s-1.68-.02-1.7 0c-1.5 0-2.8-.5-2.8-3c-.02.02 0-6.9 0-6.9h-2.2v-1.4h2.2v-3.2l1.5-.4v3.6h2.7v1.4h-2.7s.02 6.9 0 6.9c0 1 .3 1.6 1.6 1.6h1.4v1.4zm1.4-5.6c0-3.7 2.3-5.9 5.4-5.9c3.1 0 5.3 2.2 5.3 5.9c0 3.6-2.2 5.8-5.3 5.8c-3.1 0-5.4-2.2-5.4-5.8zm9.2-.1c0-2.8-1.7-4.4-3.8-4.4c-2.2 0-3.8 1.7-3.8 4.5c0 2.8 1.7 4.4 3.8 4.4c2.2 0 3.8-1.7 3.8-4.5zm9.8-4.3s-.37.03-.4 0c-2.4 0-3.7 1.4-3.7 4v6h-1.5v-11.3h1.5s-.03 2.08 0 2.1c.5-1.5 1.9-2.2 3.6-2.2c.01-.02.5 0 .5 0v1.4zm10.4 6.8c0 2.3-2.1 3.4-4.4 3.4c-2.4 0-4.6-1.2-4.9-3.7h1.7c.2 1.7 1.7 2.3 3.2 2.3c1.5 0 2.8-.5 2.8-1.8c0-1.3-1.3-1.6-2.7-1.8c-2.1-.4-4.7-.8-4.7-3.4c0-2.2 1.9-3.3 4.3-3.3c2.4 0 4.2 1.1 4.4 3.4h-1.6c-.1-1.4-1.4-2-2.9-2c-1.5 0-2.6.7-2.6 1.8c0 1.5 1.4 1.7 3.1 2c2 .3 4.3.6 4.3 3.1zm12.7 3.2s-1.69-.02-1.7 0c-1.5 0-2.8-.5-2.8-3c-.03.02 0-6.9 0-6.9h-2.3v-1.4h2.3v-3.2l1.5-.4v3.6h2.7v1.4H98v6.9c0 1 .3 1.6 1.6 1.6h1.4v1.4zm11.3-7.7c.03-.05 0 7.7 0 7.7h-1.5v-7.6c0-1.5-.9-2.5-2.5-2.5c-1.9 0-3.6 1.4-3.6 4.2v5.9h-1.5v-16h1.5v6.7c.7-1.3 1.9-2.2 3.9-2.2c2.3 0 3.7 1.3 3.7 3.8zm10.2 5.6c-.9 1.7-2.6 2.3-4 2.3c-1.9 0-3.7-1.1-3.7-3.3c0-2.1 1.5-3.1 3.5-3.3l2.6-.4c.9-.1 1.6-.4 1.6-1.4c0-1.3-1.1-2-2.7-2c-1.7 0-2.7.8-3 2.1h-1.5c.3-2.3 2.1-3.4 4.6-3.4c2.5 0 4.1 1.2 4.1 3.7v7.8h-1.5v-2.1zm-1.9-3.4l-1.7.2c-1.4.2-2.5.7-2.5 2.1c0 1.4 1.1 2 2.4 2c1.7 0 3.7-1.3 3.7-3.7v-1.1c-.4.3-1.1.4-1.9.5zm11.7 5.5s-1.66-.02-1.7 0c-1.5 0-2.8-.5-2.8-3v-6.9h-2.2v-1.4h2.2v-3.2l1.5-.4v3.6h2.8v1.4h-2.8s.04 6.9 0 6.9c0 1 .3 1.6 1.6 1.6h1.4v1.4zm16.8-7.7c.02-.05 0 7.7 0 7.7h-1.5v-7.6c0-1.5-.9-2.5-2.5-2.5c-1.9 0-3.6 1.4-3.6 4.2v5.9H140v-16h1.5v6.7c.6-1.3 1.9-2.2 3.9-2.2c2.3 0 3.7 1.3 3.7 3.8zm10.2 5.6c-.9 1.7-2.6 2.3-4 2.3c-1.9 0-3.7-1.1-3.7-3.3c0-2.1 1.5-3.1 3.5-3.3l2.6-.4c.9-.1 1.6-.4 1.6-1.4c0-1.3-1.2-2-2.7-2c-1.7 0-2.8.8-3 2.1h-1.5c.3-2.3 2.1-3.4 4.6-3.4c2.5 0 4.1 1.2 4.1 3.7v7.8h-1.5v-2.1zm-1.9-3.4l-1.7.2c-1.4.2-2.5.7-2.5 2.1c0 1.4 1.1 2 2.3 2c1.8 0 3.8-1.3 3.8-3.7v-1.1c-.5.3-1.1.4-1.9.5zm11 5.5h-1.6l-4.2-11.3h1.6l3.4 9.7l3.4-9.7h1.6l-4.2 11.3zm6.8-5.3c0 2.8 1.7 4.1 3.7 4.1c1.5 0 3-.7 3.3-2.3h1.5c-.5 2.6-2.7 3.7-4.8 3.7c-2.7 0-5.2-1.8-5.2-5.8c0-4.1 2.5-5.9 5.2-5.9c2.7 0 4.9 1.7 4.9 5.5c-.03-.05 0 .7 0 .7h-8.6zm0-1.3h7c0-2.3-1.5-3.5-3.3-3.5c-1.8 0-3.5 1.1-3.7 3.5zm25.8 6.6h-1.4s-.04-2.2 0-2.2c-.6 1.3-1.9 2.4-4 2.4c-3 0-5.1-2.3-5.1-5.9c0-3.5 2.1-5.8 5.1-5.8c1.9 0 3.3.9 3.9 2.1v-6.6h1.5v16zm-1.5-5.7c0-2.8-1.6-4.4-3.7-4.4c-2.2 0-3.7 1.7-3.7 4.4c0 2.8 1.5 4.5 3.7 4.5c2.1 0 3.7-1.7 3.7-4.5zm4.2.1c0-3.7 2.2-5.9 5.3-5.9c3.1 0 5.3 2.2 5.3 5.9c0 3.6-2.2 5.8-5.3 5.8c-3.1 0-5.3-2.2-5.3-5.8zm9.1-.1c0-2.8-1.7-4.4-3.8-4.4c-2.2 0-3.8 1.7-3.8 4.5c0 2.8 1.7 4.4 3.8 4.4c2.2 0 3.8-1.7 3.8-4.5zm13.3-2c.03-.05 0 7.7 0 7.7h-1.5v-7.6c0-1.5-.9-2.5-2.5-2.5c-1.9 0-3.6 1.4-3.6 4.2v5.9H217v-11.3h1.5v2.1c.7-1.3 1.9-2.3 3.9-2.3c2.3 0 3.7 1.3 3.7 3.8zm4.1 2.4c0 2.8 1.7 4.1 3.7 4.1c1.5 0 3-.7 3.3-2.3h1.5c-.5 2.6-2.7 3.7-4.9 3.7c-2.7 0-5.2-1.8-5.2-5.8c0-4.1 2.6-5.9 5.3-5.9c2.7 0 4.8 1.7 4.8 5.5c.05-.05 0 .7 0 .7c0 0-8.54.01-8.5 0zm0-1.3h7c0-2.3-1.5-3.5-3.4-3.5c-1.7 0-3.4 1.1-3.6 3.5zm27.3 6.6H256l-3-9l-2.9 9h-1.5l-3.7-11.3h1.6l2.9 9.3l2.9-9.3h1.5l3 9.3l2.8-9.3h1.6l-3.7 11.3zm6.3-5.3c.1 2.8 1.8 4.1 3.8 4.1c1.5 0 2.9-.7 3.3-2.3h1.4c-.5 2.6-2.7 3.7-4.8 3.7c-2.7 0-5.2-1.8-5.2-5.8c0-4.1 2.6-5.9 5.3-5.9c2.6 0 4.8 1.7 4.8 5.5v.7h-8.6zm.1-1.3h7c0-2.3-1.5-3.5-3.4-3.5c-1.8 0-3.4 1.1-3.6 3.5zm12.7 6.6H275v-16h1.6v16zm4.9 0h-1.6v-16h1.6v16zm15.9-2.1c-.9 1.7-2.6 2.3-4 2.3c-1.9 0-3.6-1.1-3.6-3.3c0-2.1 1.4-3.1 3.4-3.3l2.6-.4c.9-.1 1.6-.4 1.6-1.4c0-1.3-1.1-2-2.7-2c-1.7 0-2.7.8-3 2.1h-1.5c.3-2.3 2.1-3.4 4.6-3.4c2.6 0 4.1 1.2 4.1 3.7v7.8h-1.5s.02-2.08 0-2.1zm-1.8-3.4l-1.8.2c-1.4.2-2.5.7-2.5 2.1c0 1.4 1.1 2 2.4 2c1.7 0 3.7-1.3 3.7-3.7v-1.1c-.4.3-1.1.4-1.8.5zm15.6-2.2c.02-.05 0 7.7 0 7.7h-1.5s-.02-7.56 0-7.6c0-1.5-.9-2.5-2.5-2.5c-1.9 0-3.6 1.4-3.6 4.2v5.9h-1.5v-11.3h1.5v2.1c.7-1.3 1.9-2.3 3.9-2.3c2.2 0 3.7 1.3 3.7 3.8zm13.1 7.7h-1.5s.01-2.2 0-2.2c-.5 1.3-1.9 2.4-4 2.4c-3 0-5.1-2.3-5.1-5.9c0-3.5 2.1-5.8 5.1-5.8c1.9 0 3.3.9 3.9 2.1c.05.02 0-6.6 0-6.6h1.6v16zm-1.6-5.7c0-2.8-1.5-4.4-3.7-4.4c-2.2 0-3.7 1.7-3.7 4.4c0 2.8 1.5 4.5 3.7 4.5c2.2 0 3.7-1.7 3.7-4.5z" stroke="none" fill="#000"/></g><g id="Polygon11940"><path d="m10.1 127.4c0 2.3-2.1 3.4-4.4 3.4c-2.4 0-4.6-1.2-4.9-3.7h1.7c.2 1.7 1.7 2.3 3.2 2.3c1.5 0 2.8-.5 2.8-1.8c0-1.3-1.3-1.6-2.7-1.8c-2.1-.4-4.7-.8-4.7-3.4c0-2.2 1.9-3.3 4.3-3.3c2.3 0 4.2 1.1 4.4 3.4H8.2c-.1-1.4-1.4-2-2.9-2c-1.5 0-2.6.7-2.6 1.8c0 1.5 1.4 1.7 3.1 2c2 .3 4.3.6 4.3 3.1zm4.1-12.8h-1.7v1.9h1.7v-1.9zm-.1 16h-1.5v-11.3h1.5v11.3zm8.5 0s-1.64-.02-1.6 0c-1.5 0-2.9-.5-2.9-3c.02.02 0-6.9 0-6.9h-2.2v-1.4h2.2v-3.2l1.6-.4v3.6h2.7v1.4h-2.7s-.04 6.9 0 6.9c0 1 .2 1.6 1.5 1.6h1.4v1.4zm9.6 0s.03-2.16 0-2.2c-.7 1.6-2.1 2.3-3.7 2.3c-2.1 0-3.8-1.3-3.8-3.9c.02-.04 0-7.5 0-7.5h1.5s.05 7.27 0 7.3c0 1.8 1.1 2.8 2.5 2.8c1.9 0 3.5-1.4 3.5-4.3c-.03.04 0-5.8 0-5.8h1.5v11.3h-1.5zm11.8-2.1c-.9 1.7-2.6 2.3-4 2.3c-1.9 0-3.7-1.1-3.7-3.3c0-2.1 1.5-3.1 3.5-3.3l2.6-.4c.9-.1 1.6-.4 1.6-1.4c0-1.3-1.2-2-2.7-2c-1.7 0-2.8.8-3 2.1h-1.5c.3-2.3 2.1-3.4 4.6-3.4c2.5 0 4.1 1.2 4.1 3.7v7.8H44v-2.1zm-1.9-3.4l-1.7.2c-1.4.2-2.5.7-2.5 2.1c0 1.4 1.1 2 2.3 2c1.8 0 3.8-1.3 3.8-3.7v-1.1c-.5.3-1.1.4-1.9.5zm11.7 5.5s-1.68-.02-1.7 0c-1.5 0-2.8-.5-2.8-3v-6.9h-2.2v-1.4h2.2v-3.2l1.5-.4v3.6h2.7v1.4h-2.7s.02 6.9 0 6.9c0 1 .3 1.6 1.6 1.6h1.4v1.4zm3.8-16h-1.7v1.9h1.7v-1.9zm-.1 16H56v-11.3h1.5v11.3zm2.6-5.6c0-3.7 2.3-5.9 5.4-5.9c3.1 0 5.3 2.2 5.3 5.9c0 3.6-2.2 5.8-5.3 5.8c-3.1 0-5.4-2.2-5.4-5.8zm9.2-.1c0-2.8-1.7-4.4-3.8-4.4c-2.2 0-3.8 1.7-3.8 4.5c0 2.8 1.7 4.4 3.8 4.4c2.2 0 3.8-1.7 3.8-4.5zm13.3-2v7.7h-1.5s-.02-7.56 0-7.6c0-1.5-.9-2.5-2.5-2.5c-1.9 0-3.6 1.4-3.6 4.2v5.9h-1.5v-11.3h1.5v2.1c.7-1.3 1.9-2.3 3.9-2.3c2.2 0 3.7 1.3 3.7 3.8zm18.1 0v7.7h-1.5s-.04-7.56 0-7.6c0-1.5-.9-2.5-2.5-2.5c-1.9 0-3.6 1.4-3.6 4.2c-.03-.04 0 5.9 0 5.9h-1.6v-16h1.6s-.03 6.68 0 6.7c.6-1.3 1.8-2.2 3.8-2.2c2.3 0 3.8 1.3 3.8 3.8zm10.2 5.6c-.9 1.7-2.6 2.3-4 2.3c-2 0-3.7-1.1-3.7-3.3c0-2.1 1.5-3.1 3.4-3.3l2.7-.4c.8-.1 1.6-.4 1.6-1.4c0-1.3-1.2-2-2.8-2c-1.7 0-2.7.8-2.9 2.1h-1.5c.3-2.3 2.1-3.4 4.6-3.4c2.5 0 4.1 1.2 4.1 3.7c-.03-.01 0 7.8 0 7.8h-1.5s-.02-2.08 0-2.1zm-1.9-3.4l-1.7.2c-1.4.2-2.5.7-2.5 2.1c0 1.4 1.1 2 2.3 2c1.8 0 3.7-1.3 3.7-3.7v-1.1c-.4.3-1 .4-1.8.5zm14.9 2.3c0 2.3-2.1 3.4-4.3 3.4c-2.5 0-4.7-1.2-4.9-3.7h1.6c.3 1.7 1.7 2.3 3.3 2.3c1.4 0 2.7-.5 2.7-1.8c0-1.3-1.3-1.6-2.6-1.8c-2.2-.4-4.7-.8-4.7-3.4c0-2.2 1.9-3.3 4.2-3.3c2.4 0 4.3 1.1 4.4 3.4H122c-.1-1.4-1.4-2-2.9-2c-1.5 0-2.6.7-2.6 1.8c0 1.5 1.4 1.7 3.1 2c2.1.3 4.3.6 4.3 3.1zm18.3-2.5c0 3.5-2.1 5.9-5.1 5.9c-2 0-3.4-1.1-4-2.3c.04 0 0 2.1 0 2.1h-1.4v-16h1.5v7c.6-1.4 2-2.5 4-2.5c2.9 0 5 2.2 5 5.8zm-1.6.1c0-2.8-1.5-4.4-3.6-4.4c-2.2 0-3.8 1.6-3.8 4.4c0 2.8 1.5 4.5 3.7 4.5c2.2 0 3.7-1.8 3.7-4.5zm5 .3c0 2.8 1.8 4.1 3.7 4.1c1.5 0 3-.7 3.3-2.3h1.5c-.5 2.6-2.7 3.7-4.8 3.7c-2.7 0-5.2-1.8-5.2-5.8c0-4.1 2.5-5.9 5.2-5.9c2.7 0 4.9 1.7 4.9 5.5c-.02-.05 0 .7 0 .7h-8.6zm0-1.3h7c0-2.3-1.4-3.5-3.3-3.5c-1.8 0-3.5 1.1-3.7 3.5zm12 1.3c0 2.8 1.7 4.1 3.7 4.1c1.5 0 3-.7 3.3-2.3h1.5c-.5 2.6-2.7 3.7-4.8 3.7c-2.7 0-5.2-1.8-5.2-5.8c0-4.1 2.5-5.9 5.2-5.9c2.7 0 4.9 1.7 4.9 5.5c-.03-.05 0 .7 0 .7h-8.6zm0-1.3h7c0-2.3-1.5-3.5-3.3-3.5c-1.8 0-3.5 1.1-3.7 3.5zm20.4-1.1c-.05-.05 0 7.7 0 7.7h-1.6s.02-7.56 0-7.6c0-1.5-.9-2.5-2.5-2.5c-1.9 0-3.6 1.4-3.6 4.2c.03-.04 0 5.9 0 5.9h-1.5v-11.3h1.5s.03 2.1 0 2.1c.7-1.3 2-2.3 3.9-2.3c2.3 0 3.8 1.3 3.8 3.8zm4.3 7.6c0-.04-1 0-1 0v-2.1h2.2s.02 2.12 0 2.1c0 2.5-1.5 3.4-3 3.5l-.2-.9c1.7-.3 2-1.3 2-2.6zm10.5-15.9h-1.7v1.9h1.7v-1.9zm-.1 16h-1.5v-11.3h1.5v11.3zm8.5 0s-1.64-.02-1.6 0c-1.5 0-2.9-.5-2.9-3c.02.02 0-6.9 0-6.9h-2.2v-1.4h2.2v-3.2l1.6-.4v3.6h2.7v1.4h-2.7s-.04 6.9 0 6.9c0 1 .3 1.6 1.5 1.6h1.4v1.4zm3.3-13.8c.02-.02-1 0-1 0v-2.1h2.2s.03 2.15 0 2.1c0 2.5-1.4 3.4-3 3.6l-.2-1c1.7-.3 2-1.3 2-2.6zm12 10.6c0 2.3-2.1 3.4-4.3 3.4c-2.4 0-4.7-1.2-4.9-3.7h1.6c.3 1.7 1.8 2.3 3.3 2.3c1.5 0 2.7-.5 2.7-1.8c0-1.3-1.3-1.6-2.6-1.8c-2.2-.4-4.7-.8-4.7-3.4c0-2.2 1.9-3.3 4.2-3.3c2.4 0 4.3 1.1 4.4 3.4h-1.6c-.1-1.4-1.4-2-2.8-2c-1.6 0-2.6.7-2.6 1.8c0 1.5 1.3 1.7 3 2c2.1.3 4.3.6 4.3 3.1zm18.3-2.5c0 3.5-2.1 5.9-5.1 5.9c-2 0-3.3-1.1-3.9-2.3c-.03 0 0 2.1 0 2.1h-1.5v-16h1.5s.03 6.97 0 7c.6-1.4 2-2.5 4.1-2.5c2.8 0 4.9 2.2 4.9 5.8zm-1.5.1c0-2.8-1.5-4.4-3.7-4.4c-2.2 0-3.8 1.6-3.8 4.4c0 2.8 1.6 4.5 3.7 4.5c2.3 0 3.8-1.8 3.8-4.5zm3.4 0c0-3.7 2.2-5.9 5.3-5.9c3.2 0 5.4 2.2 5.4 5.9c0 3.6-2.2 5.8-5.3 5.8c-3.1 0-5.4-2.2-5.4-5.8zm9.1-.1c0-2.8-1.7-4.4-3.8-4.4c-2.2 0-3.7 1.7-3.7 4.5c0 2.8 1.7 4.4 3.8 4.4c2.2 0 3.7-1.7 3.7-4.5zm16.7 5.7s-1.66-.02-1.7 0c-1.4 0-2.8-.5-2.8-3v-6.9h-5.8v6.9c0 1 .3 1.6 1.6 1.6h1.4v1.4s-1.69-.02-1.7 0c-1.5 0-2.8-.5-2.8-3c-.03.02 0-6.9 0-6.9h-2.3v-1.4h2.3v-3.2l1.5-.4v3.6h5.8v-3.2l1.5-.4v3.6h2.8v1.4h-2.8s.04 6.9 0 6.9c0 1 .3 1.6 1.6 1.6h1.4v1.4zm1.5-5.6c0-3.7 2.2-5.9 5.3-5.9c3.1 0 5.4 2.2 5.4 5.9c0 3.6-2.2 5.8-5.4 5.8c-3.1 0-5.3-2.2-5.3-5.8zm9.1-.1c0-2.8-1.7-4.4-3.8-4.4c-2.2 0-3.7 1.7-3.7 4.5c0 2.8 1.7 4.4 3.8 4.4c2.1 0 3.7-1.7 3.7-4.5zm4.2-5.6h1.5v1.9c.6-1.4 1.9-2.1 3.3-2.1c1.6 0 3 .9 3.3 2.3c.5-1.2 1.8-2.3 3.7-2.3c2.1 0 3.7 1.1 3.7 3.4c-.02 0 0 8.1 0 8.1h-1.6s.05-7.56 0-7.6c0-1.7-1-2.5-2.3-2.5c-1.7 0-3.1 1.3-3.1 3.6v6.5h-1.5s-.03-7.56 0-7.6c0-1.7-1.1-2.5-2.4-2.5c-1.7 0-3.1 1.2-3.1 3.6c.03.03 0 6.5 0 6.5h-1.5v-11.3zm18.1 5.2v-1.4h6.5v1.4h-6.5zm16.6 6.1s.01-2.16 0-2.2c-.8 1.6-2.1 2.3-3.7 2.3c-2.2 0-3.8-1.3-3.8-3.9v-7.5h1.5s.03 7.27 0 7.3c0 1.8 1 2.8 2.5 2.8c1.8 0 3.5-1.4 3.5-4.3c-.05.04 0-5.8 0-5.8h1.5v11.3H312zm15.4-5.7c0 4.1-2.6 5.8-5.2 5.8c-1.9 0-3.2-.9-3.8-2.1c-.02.03 0 6.3 0 6.3h-1.6v-15.6h1.5s.03 2.38 0 2.4c.5-1.4 2-2.6 4.1-2.6c2.4 0 5 1.7 5 5.8zm-1.6 0c0-3.1-1.8-4.3-3.7-4.3c-1.8 0-3.7 1.2-3.7 4.4c0 3.1 1.8 4.3 3.7 4.3c1.9 0 3.7-1.2 3.7-4.4z" stroke="none" fill="#000"/></g><g id="Polygon11939"><path d="m10.8 97.7c.04-.05 0 7.7 0 7.7H9.3v-7.6c0-1.5-.9-2.5-2.5-2.5c-1.9 0-3.6 1.4-3.6 4.2v5.9H1.7v-16h1.5s.01 6.68 0 6.7c.7-1.3 1.9-2.2 3.9-2.2c2.3 0 3.7 1.3 3.7 3.8zm2.6 2.1c0-3.7 2.2-5.9 5.3-5.9c3.1 0 5.3 2.2 5.3 5.9c0 3.6-2.2 5.8-5.3 5.8c-3.1 0-5.3-2.2-5.3-5.8zm9.1-.1c0-2.8-1.7-4.4-3.8-4.4c-2.2 0-3.8 1.7-3.8 4.5c0 2.8 1.7 4.4 3.8 4.4c2.2 0 3.8-1.7 3.8-4.5zm15.2 5.7h-1.5l-2.9-9l-2.9 9h-1.5l-3.7-11.3h1.6l2.9 9.3l2.8-9.3h1.6l2.9 9.3l2.8-9.3h1.6l-3.7 11.3zm15.1.2c-3.1 0-5.2-2.3-5.2-5.8c0-3.6 2.1-5.9 5.4-5.9c2.5 0 4.5 1.4 4.6 3.9h-1.5c-.1-1.6-1.5-2.5-3.2-2.5c-2.2 0-3.7 1.7-3.7 4.4c0 2.8 1.5 4.5 3.7 4.5c1.7 0 3.1-1 3.2-2.8h1.5c-.1 2.7-2.3 4.2-4.8 4.2zm16.6-7.9v7.7h-1.5s-.03-7.56 0-7.6c0-1.5-.9-2.5-2.5-2.5c-1.9 0-3.6 1.4-3.6 4.2c-.02-.04 0 5.9 0 5.9h-1.6v-16h1.6s-.02 6.68 0 6.7c.6-1.3 1.9-2.2 3.8-2.2c2.4 0 3.8 1.3 3.8 3.8zm10.2 5.6c-.9 1.7-2.6 2.3-4 2.3c-2 0-3.7-1.1-3.7-3.3c0-2.1 1.5-3.1 3.4-3.3l2.7-.4c.9-.1 1.6-.4 1.6-1.4c0-1.3-1.2-2-2.7-2c-1.7 0-2.8.8-3 2.1h-1.5c.3-2.3 2.1-3.4 4.6-3.4c2.5 0 4.1 1.2 4.1 3.7c-.02-.01 0 7.8 0 7.8h-1.5v-2.1zm-1.9-3.4l-1.7.2c-1.4.2-2.5.7-2.5 2.1c0 1.4 1.1 2 2.3 2c1.8 0 3.7-1.3 3.7-3.7v-1.1c-.4.3-1 .4-1.8.5zm8.1 5.5h-1.6v-16h1.6v16zm4.9 0h-1.6v-16h1.6v16zm4.1-5.3c0 2.8 1.8 4.1 3.8 4.1c1.4 0 2.9-.7 3.2-2.3h1.5c-.5 2.6-2.7 3.7-4.8 3.7c-2.7 0-5.2-1.8-5.2-5.8c0-4.1 2.5-5.9 5.2-5.9c2.7 0 4.9 1.7 4.9 5.5c-.02-.05 0 .7 0 .7h-8.6zm0-1.3h7c0-2.3-1.4-3.5-3.3-3.5c-1.8 0-3.5 1.1-3.7 3.5zm20.4-1.1c-.04-.05 0 7.7 0 7.7h-1.6s.03-7.56 0-7.6c0-1.5-.9-2.5-2.4-2.5c-2 0-3.7 1.4-3.7 4.2c.04-.04 0 5.9 0 5.9H106V94.1h1.5s.04 2.1 0 2.1c.7-1.3 2-2.3 3.9-2.3c2.3 0 3.8 1.3 3.8 3.8zm12.9 7.2c0 3.4-2.2 5.1-5.1 5.1c-2.5 0-4.7-1.3-5.1-3.9h1.6c.2 1.4 1.3 2.6 3.5 2.6c2.1 0 3.6-1.1 3.6-3.7v-2.3c-.8 1.7-2.5 2.3-3.9 2.3c-2.8 0-5-1.9-5-5.6c0-3.7 2.3-5.5 5-5.5c1.8 0 3.2.8 3.9 2c.01.03 0-1.8 0-1.8h1.5s.02 10.78 0 10.8zm-1.6-5.5c0-2.8-1.7-4.2-3.6-4.2c-1.9 0-3.7 1.4-3.7 4.2c0 2.8 1.7 4.2 3.7 4.2c1.8 0 3.6-1.2 3.6-4.2zm6.5-10h-1.7v1.9h1.7v-1.9zm-.1 16h-1.5V94.1h1.5v11.3zm12.5-7.7c.02-.05 0 7.7 0 7.7h-1.5v-7.6c0-1.5-.9-2.5-2.5-2.5c-1.9 0-3.6 1.4-3.6 4.2v5.9h-1.5V94.1h1.5v2.1c.7-1.3 1.9-2.3 3.9-2.3c2.3 0 3.7 1.3 3.7 3.8zm13 7.2c0 3.4-2.2 5.1-5.1 5.1c-2.5 0-4.7-1.3-5.1-3.9h1.5c.3 1.4 1.3 2.6 3.6 2.6c2.1 0 3.6-1.1 3.6-3.7v-2.3c-.8 1.7-2.5 2.3-4 2.3c-2.7 0-5-1.9-5-5.6c0-3.7 2.4-5.5 5.1-5.5c1.8 0 3.2.8 3.9 2c-.03.03 0-1.8 0-1.8h1.5s-.02 10.78 0 10.8zm-1.6-5.5c0-2.8-1.7-4.2-3.6-4.2c-1.9 0-3.7 1.4-3.7 4.2c0 2.8 1.7 4.2 3.7 4.2c1.8 0 3.6-1.2 3.6-4.2zm15.4 6s-1.62-.02-1.6 0c-1.5 0-2.9-.5-2.9-3c.05.02 0-6.9 0-6.9h-2.2v-1.4h2.2v-3.2l1.6-.4v3.6h2.7v1.4h-2.7s-.02 6.9 0 6.9c0 1 .3 1.6 1.5 1.6h1.4v1.4zm11.4-7.7v7.7h-1.5s-.03-7.56 0-7.6c0-1.5-.9-2.5-2.5-2.5c-1.9 0-3.6 1.4-3.6 4.2c-.02-.04 0 5.9 0 5.9h-1.6v-16h1.6s-.02 6.68 0 6.7c.6-1.3 1.8-2.2 3.8-2.2c2.4 0 3.8 1.3 3.8 3.8zm4 2.4c.1 2.8 1.8 4.1 3.8 4.1c1.5 0 3-.7 3.3-2.3h1.4c-.5 2.6-2.7 3.7-4.8 3.7c-2.7 0-5.2-1.8-5.2-5.8c0-4.1 2.6-5.9 5.3-5.9c2.6 0 4.8 1.7 4.8 5.5c.02-.05 0 .7 0 .7h-8.6zm.1-1.3h7c0-2.3-1.5-3.5-3.4-3.5c-1.8 0-3.4 1.1-3.6 3.5zm16.4-4.7h1.5v1.9c.6-1.4 1.9-2.1 3.3-2.1c1.6 0 3 .9 3.3 2.3c.5-1.2 1.8-2.3 3.7-2.3c2.1 0 3.7 1.1 3.7 3.4c-.03 0 0 8.1 0 8.1H218s.04-7.56 0-7.6c0-1.7-1-2.5-2.4-2.5c-1.6 0-3 1.3-3 3.6c-.02.03 0 6.5 0 6.5h-1.5s-.03-7.56 0-7.6c0-1.7-1.1-2.5-2.4-2.5c-1.7 0-3.1 1.2-3.1 3.6c.03.03 0 6.5 0 6.5h-1.5V94.1zm25.7 9.2c-.9 1.7-2.6 2.3-4.1 2.3c-1.9 0-3.6-1.1-3.6-3.3c0-2.1 1.5-3.1 3.4-3.3l2.7-.4c.8-.1 1.6-.4 1.6-1.4c0-1.3-1.2-2-2.8-2c-1.7 0-2.7.8-2.9 2.1h-1.6c.3-2.3 2.2-3.4 4.6-3.4c2.6 0 4.1 1.2 4.1 3.7c.05-.01 0 7.8 0 7.8h-1.4s-.04-2.08 0-2.1zm-1.9-3.4l-1.7.2c-1.5.2-2.5.7-2.5 2.1c0 1.4 1.1 2 2.3 2c1.8 0 3.7-1.3 3.7-3.7v-1.1c-.4.3-1.1.4-1.8.5zm11 5.7c-3.1 0-5.2-2.3-5.2-5.8c0-3.6 2.1-5.9 5.3-5.9c2.5 0 4.5 1.4 4.7 3.9h-1.5c-.2-1.6-1.6-2.5-3.2-2.5c-2.2 0-3.8 1.7-3.8 4.4c0 2.8 1.6 4.5 3.8 4.5c1.7 0 3-1 3.2-2.8h1.5c-.2 2.7-2.3 4.2-4.8 4.2zm13-10.2s-.32.03-.3 0c-2.4 0-3.8 1.4-3.8 4c.04 0 0 6 0 6h-1.5V94.1h1.5s.02 2.08 0 2.1c.5-1.5 1.9-2.2 3.7-2.2c-.05-.02.4 0 .4 0v1.4zm1.1 4.4c0-3.7 2.2-5.9 5.3-5.9c3.1 0 5.4 2.2 5.4 5.9c0 3.6-2.3 5.8-5.4 5.8c-3.1 0-5.3-2.2-5.3-5.8zm9.1-.1c0-2.8-1.7-4.4-3.8-4.4c-2.2 0-3.7 1.7-3.7 4.5c0 2.8 1.7 4.4 3.8 4.4c2.1 0 3.7-1.7 3.7-4.5z" stroke="none" fill="#000"/></g><g id="Polygon11938"><path d="m12.2 74.5c0 3.5-2.1 5.9-5.1 5.9c-2 0-3.4-1.1-4-2.3c.05 0 0 2.1 0 2.1H1.7v-16h1.5v7c.6-1.4 2-2.5 4-2.5c2.9 0 5 2.2 5 5.8zm-1.6.1c0-2.8-1.4-4.4-3.6-4.4c-2.2 0-3.8 1.6-3.8 4.4c0 2.8 1.5 4.5 3.7 4.5c2.2 0 3.7-1.8 3.7-4.5zm3.5 0c0-3.7 2.2-5.9 5.3-5.9c3.1 0 5.4 2.2 5.4 5.9c0 3.6-2.2 5.8-5.4 5.8c-3.1 0-5.3-2.2-5.3-5.8zm9.1-.1c0-2.8-1.7-4.4-3.8-4.4c-2.2 0-3.7 1.7-3.7 4.5c0 2.8 1.7 4.4 3.8 4.4c2.2 0 3.7-1.7 3.7-4.5zm16.7 5.7s-1.68-.02-1.7 0c-1.5 0-2.8-.5-2.8-3c-.02.02 0-6.9 0-6.9h-5.8v6.9c0 1 .3 1.6 1.5 1.6h1.4v1.4s-1.61-.02-1.6 0c-1.5 0-2.8-.5-2.8-3c-.04.02 0-6.9 0-6.9h-2.3v-1.4h2.3v-3.2l1.5-.4v3.6h5.8v-3.2l1.5-.4v3.6h2.7v1.4h-2.7s.02 6.9 0 6.9c0 1 .3 1.6 1.6 1.6h1.4v1.4zm1.5-5.6c0-3.7 2.2-5.9 5.3-5.9c3.1 0 5.4 2.2 5.4 5.9c0 3.6-2.3 5.8-5.4 5.8c-3.1 0-5.3-2.2-5.3-5.8zm9.1-.1c0-2.8-1.7-4.4-3.8-4.4c-2.2 0-3.8 1.7-3.8 4.5c0 2.8 1.7 4.4 3.8 4.4c2.2 0 3.8-1.7 3.8-4.5zm4.2-5.6h1.5v1.9c.6-1.4 1.8-2.1 3.3-2.1c1.6 0 3 .9 3.3 2.3c.5-1.2 1.8-2.3 3.7-2.3c2 0 3.7 1.1 3.7 3.4c-.04 0 0 8.1 0 8.1h-1.6s.03-7.56 0-7.6c0-1.7-1-2.5-2.4-2.5c-1.6 0-3 1.3-3 3.6c-.03.03 0 6.5 0 6.5h-1.5s-.04-7.56 0-7.6c0-1.7-1.1-2.5-2.4-2.5c-1.7 0-3.1 1.2-3.1 3.6c.02.03 0 6.5 0 6.5h-1.5V68.9zm18.1 5.2v-1.4h6.5v1.4h-6.5zm16.6 6.1V78c-.8 1.6-2.2 2.3-3.8 2.3c-2.1 0-3.7-1.3-3.7-3.9c-.02-.04 0-7.5 0-7.5h1.5v7.3c0 1.8 1 2.8 2.5 2.8c1.8 0 3.4-1.4 3.4-4.3c.03.04 0-5.8 0-5.8h1.6v11.3h-1.5zm15.3-5.7c0 4.1-2.5 5.8-5.1 5.8c-2 0-3.2-.9-3.8-2.1c-.04.03 0 6.3 0 6.3h-1.6V68.9h1.5s.02 2.38 0 2.4c.5-1.4 2-2.6 4-2.6c2.5 0 5 1.7 5 5.8zm-1.5 0c0-3.1-1.8-4.3-3.7-4.3c-1.9 0-3.7 1.2-3.7 4.4c0 3.1 1.8 4.3 3.7 4.3c1.8 0 3.7-1.2 3.7-4.4zm11.1-10.3h-1.8v1.9h1.8v-1.9zm-.1 16h-1.6V68.9h1.6v11.3zm12.5-7.7c-.03-.05 0 7.7 0 7.7h-1.6s.04-7.56 0-7.6c0-1.5-.8-2.5-2.4-2.5c-2 0-3.7 1.4-3.7 4.2c.05-.04 0 5.9 0 5.9h-1.5V68.9h1.5s.05 2.1 0 2.1c.7-1.3 2-2.3 4-2.3c2.2 0 3.7 1.3 3.7 3.8zm7.7 7.7h-1.7l-4.1-11.3h1.6l3.4 9.7l3.4-9.7h1.6l-4.2 11.3zm6.8-5.3c0 2.8 1.7 4.1 3.7 4.1c1.5 0 3-.7 3.3-2.3h1.5c-.5 2.6-2.7 3.7-4.9 3.7c-2.7 0-5.2-1.8-5.2-5.8c0-4.1 2.6-5.9 5.3-5.9c2.7 0 4.8 1.7 4.8 5.5c.05-.05 0 .7 0 .7c0 0-8.54.01-8.5 0zm0-1.3h7c0-2.3-1.5-3.5-3.4-3.5c-1.7 0-3.4 1.1-3.6 3.5zm19.6 3.4c0 2.3-2.1 3.4-4.4 3.4c-2.4 0-4.6-1.2-4.9-3.7h1.7c.2 1.7 1.7 2.3 3.2 2.3c1.5 0 2.8-.5 2.8-1.8c0-1.3-1.3-1.6-2.7-1.8c-2.1-.4-4.7-.8-4.7-3.4c0-2.2 1.9-3.3 4.2-3.3c2.4 0 4.3 1.1 4.5 3.4h-1.6c-.1-1.4-1.4-2-2.9-2c-1.5 0-2.6.7-2.6 1.8c0 1.5 1.4 1.7 3.1 2c2 .3 4.3.6 4.3 3.1zm7.6 3.2s-1.64-.02-1.6 0c-1.5 0-2.9-.5-2.9-3c.02.02 0-6.9 0-6.9h-2.2v-1.4h2.2v-3.2l1.6-.4v3.6h2.7v1.4h-2.7s-.04 6.9 0 6.9c0 1 .3 1.6 1.5 1.6h1.4v1.4zm1.5-5.6c0-3.7 2.2-5.9 5.3-5.9c3.1 0 5.4 2.2 5.4 5.9c0 3.6-2.2 5.8-5.4 5.8c-3.1 0-5.3-2.2-5.3-5.8zm9.1-.1c0-2.8-1.7-4.4-3.8-4.4c-2.2 0-3.7 1.7-3.7 4.5c0 2.8 1.7 4.4 3.8 4.4c2.1 0 3.7-1.7 3.7-4.5zm9.8-4.3s-.33.03-.3 0c-2.4 0-3.8 1.4-3.8 4c.04 0 0 6 0 6h-1.5V68.9h1.5v2.1c.5-1.5 1.9-2.2 3.6-2.2c.05-.02.5 0 .5 0v1.4zm10.4 6.8c0 2.3-2.1 3.4-4.3 3.4c-2.5 0-4.7-1.2-4.9-3.7h1.6c.3 1.7 1.7 2.3 3.3 2.3c1.4 0 2.7-.5 2.7-1.8c0-1.3-1.3-1.6-2.6-1.8c-2.2-.4-4.7-.8-4.7-3.4c0-2.2 1.9-3.3 4.2-3.3c2.4 0 4.3 1.1 4.4 3.4h-1.6c-.1-1.4-1.4-2-2.9-2c-1.5 0-2.5.7-2.5 1.8c0 1.5 1.3 1.7 3 2c2.1.3 4.3.6 4.3 3.1zm14.7 1.1c-.9 1.7-2.6 2.3-4 2.3c-1.9 0-3.7-1.1-3.7-3.3c0-2.1 1.5-3.1 3.5-3.3l2.6-.4c.9-.1 1.6-.4 1.6-1.4c0-1.3-1.2-2-2.7-2c-1.7 0-2.8.8-3 2.1h-1.5c.3-2.3 2.1-3.4 4.6-3.4c2.5 0 4.1 1.2 4.1 3.7v7.8h-1.5v-2.1zm-1.9-3.4l-1.7.2c-1.4.2-2.5.7-2.5 2.1c0 1.4 1.1 2 2.3 2c1.8 0 3.8-1.3 3.8-3.7v-1.1c-.5.3-1.1.4-1.9.5zm15.7-2.2v7.7h-1.5s-.03-7.56 0-7.6c0-1.5-.9-2.5-2.5-2.5c-1.9 0-3.6 1.4-3.6 4.2c-.02-.04 0 5.9 0 5.9h-1.6V68.9h1.6s-.02 2.1 0 2.1c.6-1.3 1.9-2.3 3.9-2.3c2.2 0 3.7 1.3 3.7 3.8zm13.1 7.7h-1.5s-.01-2.2 0-2.2c-.6 1.3-1.9 2.4-4 2.4c-3 0-5.1-2.3-5.1-5.9c0-3.5 2.1-5.8 5.1-5.8c1.9 0 3.3.9 3.9 2.1c.03.02 0-6.6 0-6.6h1.6v16zm-1.6-5.7c0-2.8-1.5-4.4-3.7-4.4c-2.2 0-3.7 1.7-3.7 4.4c0 2.8 1.5 4.5 3.7 4.5c2.2 0 3.7-1.7 3.7-4.5zm19.9 5.2c0 3.4-2.2 5.1-5.1 5.1c-2.5 0-4.8-1.3-5.1-3.9h1.5c.3 1.4 1.3 2.6 3.6 2.6c2.1 0 3.6-1.1 3.6-3.7v-2.3c-.8 1.7-2.5 2.3-4 2.3c-2.7 0-5-1.9-5-5.6c0-3.7 2.4-5.5 5.1-5.5c1.8 0 3.2.8 3.9 2c-.04.03 0-1.8 0-1.8h1.5s-.03 10.78 0 10.8zm-1.6-5.5c0-2.8-1.7-4.2-3.6-4.2c-1.9 0-3.8 1.4-3.8 4.2c0 2.8 1.8 4.2 3.8 4.2c1.8 0 3.6-1.2 3.6-4.2zm6.5-10h-1.8v1.9h1.8v-1.9zm-.1 16h-1.6V68.9h1.6v11.3zm7.8 0H270l-4.1-11.3h1.6l3.4 9.7l3.4-9.7h1.6l-4.2 11.3zm6.8-5.3c0 2.8 1.7 4.1 3.7 4.1c1.5 0 3-.7 3.3-2.3h1.5c-.5 2.6-2.7 3.7-4.9 3.7c-2.7 0-5.2-1.8-5.2-5.8c0-4.1 2.6-5.9 5.3-5.9c2.7 0 4.8 1.7 4.8 5.5c.05-.05 0 .7 0 .7c0 0-8.54.01-8.5 0zm0-1.3h7c0-2.3-1.5-3.5-3.4-3.5c-1.7 0-3.4 1.1-3.6 3.5zm20.3-1.1c.03-.05 0 7.7 0 7.7h-1.5v-7.6c0-1.5-.9-2.5-2.5-2.5c-1.9 0-3.6 1.4-3.6 4.2v5.9h-1.5V68.9h1.5v2.1c.7-1.3 1.9-2.3 3.9-2.3c2.3 0 3.7 1.3 3.7 3.8z" stroke="none" fill="#000"/></g><g id="Polygon11937"><path d="m7.1 55.4c-3.2 0-5.9-2-6.1-5.4h1.8c.1 2.7 2.2 3.9 4.4 3.9c2.1 0 3.7-1.1 3.7-2.9c0-2.1-2.2-2.6-4.3-3.1c-2.5-.7-5-1.5-5-4.6c0-2.9 2.2-4.4 5.2-4.4c2.8 0 5.3 1.3 5.4 4.4h-1.6c-.1-2.1-1.8-3-3.8-3c-2 0-3.6 1-3.6 3c0 2.1 1.8 2.6 4 3.2c2.6.6 5.3 1.3 5.3 4.4c0 2.9-2.4 4.5-5.4 4.5zm18.7-6.1c0 4.1-2.6 5.8-5.2 5.8c-1.9 0-3.2-.9-3.8-2.1v6.3h-1.5V43.7h1.5s-.04 2.38 0 2.4c.5-1.4 1.9-2.6 4-2.6c2.4 0 5 1.7 5 5.8zm-1.6 0c0-3.1-1.8-4.3-3.6-4.3c-1.9 0-3.8 1.2-3.8 4.4c0 3.1 1.8 4.3 3.7 4.3c1.9 0 3.7-1.2 3.7-4.4zm5 .4c0 2.8 1.8 4.1 3.7 4.1c1.5 0 3-.7 3.3-2.3h1.5c-.5 2.6-2.7 3.7-4.8 3.7c-2.7 0-5.2-1.8-5.2-5.8c0-4.1 2.5-5.9 5.2-5.9c2.7 0 4.9 1.7 4.9 5.5c-.02-.05 0 .7 0 .7h-8.6zm0-1.3h7c0-2.3-1.4-3.5-3.3-3.5c-1.8 0-3.5 1.1-3.7 3.5zm15.7 6.8c-3.1 0-5.2-2.3-5.2-5.8c0-3.6 2.1-5.9 5.3-5.9c2.5 0 4.5 1.4 4.7 3.9h-1.5c-.2-1.6-1.6-2.5-3.2-2.5c-2.2 0-3.8 1.7-3.8 4.4c0 2.8 1.6 4.5 3.8 4.5c1.7 0 3-1 3.2-2.8h1.5c-.2 2.7-2.3 4.2-4.8 4.2zm9-16.2h-1.7v1.9h1.7V39zm-.1 16h-1.5V43.7h1.5V55zM65 55v-9.9h-5.8v9.9h-1.5v-9.9h-1.9v-1.4h1.9s.01-1.78 0-1.8c0-2.5 1.4-2.9 2.8-2.9c.04-.02 1.5 0 1.5 0v1.3s-1.21.04-1.2 0c-1.3 0-1.6.6-1.6 1.7c.04-.04 0 1.7 0 1.7h7.4V55H65zm9.3.2c-3.1 0-5.2-2.3-5.2-5.8c0-3.6 2.1-5.9 5.3-5.9c2.5 0 4.5 1.4 4.7 3.9h-1.5c-.2-1.6-1.5-2.5-3.2-2.5c-2.2 0-3.8 1.7-3.8 4.4c0 2.8 1.6 4.5 3.8 4.5c1.7 0 3.1-1 3.2-2.8h1.5c-.2 2.7-2.3 4.2-4.8 4.2zm17.4-.2s-1.65-.02-1.7 0c-1.4 0-2.8-.5-2.8-3v-6.9H85v-1.4h2.2v-3.2l1.5-.4v3.6h2.8v1.4h-2.8s.04 6.9 0 6.9c0 1 .3 1.6 1.6 1.6h1.4v1.4zm1.5-5.6c0-3.7 2.2-5.9 5.3-5.9c3.1 0 5.4 2.2 5.4 5.9c0 3.6-2.3 5.8-5.4 5.8c-3.1 0-5.3-2.2-5.3-5.8zm9.1-.1c0-2.8-1.7-4.4-3.8-4.4c-2.2 0-3.7 1.7-3.7 4.5c0 2.8 1.7 4.4 3.8 4.4c2.1 0 3.7-1.7 3.7-4.5zm16.9 5.7s-.05-2.16 0-2.2c-.8 1.6-2.2 2.3-3.8 2.3c-2.1 0-3.8-1.3-3.8-3.9c.03-.04 0-7.5 0-7.5h1.6s-.03 7.27 0 7.3c0 1.8 1 2.8 2.5 2.8c1.8 0 3.4-1.4 3.4-4.3v-5.8h1.5V55h-1.4zm13.2-3.2c0 2.3-2.1 3.4-4.4 3.4c-2.4 0-4.6-1.2-4.9-3.7h1.7c.2 1.7 1.7 2.3 3.2 2.3c1.5 0 2.8-.5 2.8-1.8c0-1.3-1.3-1.6-2.7-1.8c-2.1-.4-4.7-.8-4.7-3.4c0-2.2 1.9-3.3 4.3-3.3c2.4 0 4.2 1.1 4.4 3.4h-1.6c-.1-1.4-1.4-2-2.9-2c-1.5 0-2.6.7-2.6 1.8c0 1.5 1.4 1.7 3.1 2c2 .3 4.3.6 4.3 3.1zm9.4-12.8H140v1.9h1.8V39zm-.1 16h-1.6V43.7h1.6V55zm12.5-7.7c-.02-.05 0 7.7 0 7.7h-1.6s.05-7.56 0-7.6c0-1.5-.8-2.5-2.4-2.5c-2 0-3.6 1.4-3.6 4.2c-.04-.04 0 5.9 0 5.9H145V43.7h1.6s-.04 2.1 0 2.1c.6-1.3 1.9-2.3 3.9-2.3c2.2 0 3.7 1.3 3.7 3.8zm14.5 7.7H167l-5.5-15.8h1.8l4.5 13.9l4.7-13.9h1.6L168.7 55zm5.8-5.6c0-3.7 2.2-5.9 5.3-5.9c3.1 0 5.4 2.2 5.4 5.9c0 3.6-2.3 5.8-5.4 5.8c-3.1 0-5.3-2.2-5.3-5.8zm9.1-.1c0-2.8-1.7-4.4-3.8-4.4c-2.2 0-3.7 1.7-3.7 4.5c0 2.8 1.7 4.4 3.8 4.4c2.1 0 3.7-1.7 3.7-4.5zm13.4-2c-.04-.05 0 7.7 0 7.7h-1.6s.02-7.56 0-7.6c0-1.5-.9-2.5-2.5-2.5c-1.9 0-3.6 1.4-3.6 4.2c.03-.04 0 5.9 0 5.9h-1.5V43.7h1.5s.03 2.1 0 2.1c.7-1.3 2-2.3 3.9-2.3c2.3 0 3.8 1.3 3.8 3.8zm8.4 7.7s-1.7-.02-1.7 0c-1.5 0-2.8-.5-2.8-3c-.04.02 0-6.9 0-6.9h-2.3v-1.4h2.3v-3.2l1.5-.4v3.6h2.7v1.4h-2.7v6.9c0 1 .3 1.6 1.5 1.6h1.5v1.4zm1.4-5.6c0-3.7 2.3-5.9 5.4-5.9c3.1 0 5.3 2.2 5.3 5.9c0 3.6-2.2 5.8-5.3 5.8c-3.1 0-5.4-2.2-5.4-5.8zm9.1-.1c0-2.8-1.7-4.4-3.8-4.4c-2.2 0-3.7 1.7-3.7 4.5c0 2.8 1.7 4.4 3.8 4.4c2.2 0 3.7-1.7 3.7-4.5zm14.8 0c0 3.5-2.1 5.9-5.1 5.9c-2.1 0-3.4-1.1-4-2.3v2.1h-1.5v-16h1.6s-.03 6.97 0 7c.5-1.4 2-2.5 4-2.5c2.9 0 5 2.2 5 5.8zm-1.6.1c0-2.8-1.5-4.4-3.7-4.4c-2.2 0-3.7 1.6-3.7 4.4c0 2.8 1.5 4.5 3.7 4.5c2.2 0 3.7-1.8 3.7-4.5zm5 .3c0 2.8 1.7 4.1 3.7 4.1c1.5 0 3-.7 3.3-2.3h1.5c-.5 2.6-2.7 3.7-4.9 3.7c-2.7 0-5.1-1.8-5.1-5.8c0-4.1 2.5-5.9 5.2-5.9c2.7 0 4.9 1.7 4.9 5.5c-.05-.05 0 .7 0 .7h-8.6zm0-1.3h7c0-2.3-1.5-3.5-3.4-3.5c-1.7 0-3.4 1.1-3.6 3.5zm12.7 6.6h-1.5v-16h1.5v16zm3.1-11.1h2.1v2.2h-2.1v-2.2zm0 8.9h2.1v2.2h-2.1v-2.2zm21.7 2.2h-1.5l-3-9l-2.9 9h-1.5L259 43.7h1.6l2.9 9.3l2.9-9.3h1.5l3 9.3l2.8-9.3h1.5L271.6 55zm6.3-5.3c.1 2.8 1.8 4.1 3.8 4.1c1.5 0 2.9-.7 3.3-2.3h1.4c-.5 2.6-2.7 3.7-4.8 3.7c-2.7 0-5.2-1.8-5.2-5.8c0-4.1 2.5-5.9 5.2-5.9c2.7 0 4.9 1.7 4.9 5.5v.7h-8.6zm.1-1.3h6.9c0-2.3-1.4-3.5-3.3-3.5c-1.8 0-3.4 1.1-3.6 3.5zm11.4-7.2c-.02-.02-1 0-1 0v-2.1h2.2v2.1c0 2.5-1.5 3.4-3.1 3.6l-.2-1c1.7-.3 2.1-1.3 2.1-2.6zM298 45s-.35.03-.3 0c-2.4 0-3.8 1.4-3.8 4v6h-1.5V43.7h1.5v2.1c.5-1.5 1.9-2.2 3.6-2.2c.02-.02.5 0 .5 0v1.4zm2.6 4.7c0 2.8 1.7 4.1 3.7 4.1c1.5 0 3-.7 3.3-2.3h1.5c-.5 2.6-2.7 3.7-4.9 3.7c-2.6 0-5.1-1.8-5.1-5.8c0-4.1 2.5-5.9 5.2-5.9c2.7 0 4.9 1.7 4.9 5.5c-.04-.05 0 .7 0 .7h-8.6zm0-1.3h7c0-2.3-1.5-3.5-3.4-3.5c-1.7 0-3.4 1.1-3.6 3.5z" stroke="none" fill="#000"/></g><g id="Polygon11936"><path d="m4 4h2.9l-3 13h7.2l-.6 2.8H.3L4 4zm19 9.1c0 3.9-2.6 6.9-6.2 6.9c-2.6 0-4.8-1.6-4.8-5.1C12 11 14.6 8 18.1 8c2.7 0 4.9 1.7 4.9 5.1zm-5-2.5c-1.8 0-3.2 1.8-3.2 4.2c0 1.9.9 2.7 2.2 2.7c1.8 0 3.2-1.9 3.2-4.2c0-1.9-.9-2.7-2.2-2.7zm17 2.5c0 3.9-2.5 6.9-6.1 6.9c-2.7 0-4.8-1.6-4.8-5.1c0-3.9 2.6-6.9 6.1-6.9c2.7 0 4.8 1.7 4.8 5.1zm-4.9-2.5c-1.8 0-3.2 1.8-3.2 4.2c0 1.9.9 2.7 2.2 2.7c1.8 0 3.2-1.9 3.2-4.2c0-1.9-.9-2.7-2.2-2.7zm12.8 2.7l3.1 6.5h-3l-2.2-4.7l-1.6 1.4l-.8 3.3h-2.8l3.7-16h2.8l-2 8.6L45 8.2h3.8l-5.9 5.1zm23 1.4c0 2.5-2.4 5.1-6.2 5.1H53L56.6 4s5.94.03 5.9 0c2.8 0 4.2 1.8 4.2 3.7c0 1.6-1 3.3-2.9 3.9c1.3.4 2.1 1.7 2.1 3.1zm-2.1-6.4c0-.8-.7-1.5-1.9-1.5c-.03-.04-3 0-3 0l-.8 3.6s3.09-.05 3.1 0c1.7 0 2.6-1.1 2.6-2.1zm-.9 6.4c0-1-.7-1.8-2-1.8c.02-.05-3.4 0-3.4 0l-1 4.2s3.43-.05 3.4 0c2 0 3-1.3 3-2.4zm15.5-1.6c0 3.9-2.5 6.9-6.1 6.9c-2.7 0-4.8-1.6-4.8-5.1c0-3.9 2.6-6.9 6.1-6.9c2.7 0 4.8 1.7 4.8 5.1zm-4.9-2.5c-1.9 0-3.3 1.8-3.3 4.2c0 1.9 1 2.7 2.2 2.7c1.9 0 3.2-1.9 3.2-4.2c0-1.9-.9-2.7-2.1-2.7zm16.3 5.1c0 .3-.1.5-.1.8c0 .4.2.8.9.8c.04-.02 1.5 0 1.5 0l-.6 2.5s-1.98-.02-2 0c-1.8 0-2.6-1.3-2.6-2.8c0-.4 0-.7.1-1.1l1.2-5.2h-4.1s-1.17 5.03-1.2 5c0 .3-.1.5-.1.8c0 .4.2.8.9.8c.05-.02 1.5 0 1.5 0l-.5 2.5s-2.07-.02-2.1 0c-1.8 0-2.6-1.3-2.6-2.8c0-.4 0-.7.1-1.1c.01.04 1.2-5.2 1.2-5.2h-2l.6-2.5h2l.7-2.8l2.9-.7l-.8 3.5h4.1l.6-2.8l3-.7l-.8 3.5h2.4l-.6 2.5H91s-1.18 5.03-1.2 5zm14.7-2.6c0 3.9-2.5 6.9-6.1 6.9c-2.7 0-4.8-1.6-4.8-5.1c0-3.9 2.6-6.9 6.1-6.9c2.7 0 4.8 1.7 4.8 5.1zm-4.9-2.5c-1.8 0-3.3 1.8-3.3 4.2c0 1.9 1 2.7 2.3 2.7c1.8 0 3.2-1.9 3.2-4.2c0-1.9-1-2.7-2.2-2.7zm23 .4c0 .3-.1.6-.1.9c-.03.03-1.8 7.9-1.8 7.9h-2.8s1.74-7.54 1.7-7.5c.1-.2.1-.4.1-.5c0-.8-.4-1.3-1.4-1.3c-1.3 0-2.1.9-2.5 2.8l-1.5 6.5h-2.8s1.75-7.54 1.8-7.5v-.5c0-.8-.4-1.3-1.4-1.3c-1.4 0-2.1 1.2-2.5 2.7c.01.03-1.5 6.6-1.5 6.6h-2.8l2.7-11.6h2.7s-.34 1.46-.3 1.5c.4-.8 1.4-1.7 3-1.7c1.5 0 2.5.8 2.6 2c.7-1.2 1.7-2 3.5-2c2.4 0 3.3 1.4 3.3 3zm7.5 3.4h-6.5l.6-2.5h6.5l-.6 2.5zm7.6 5.8c-3.7 0-6.2-2.7-5.3-6.8c.02-.02 2.2-9.4 2.2-9.4h2.9s-2.16 9.59-2.2 9.6c-.6 2.7.7 3.8 2.7 3.8c2 0 3.3-1.1 3.8-3.4c-.01-.01 2.2-10 2.2-10h2.9s-2.27 10.2-2.3 10.2c-.9 4.2-3.8 6-6.9 6zm20.5-7.3c0 3.3-2.2 7-5.8 7c-1.7 0-2.9-.8-3.2-2.1c-.02.01-1.5 6.3-1.5 6.3H145l3.6-15.9h2.7s-.29 1.44-.3 1.4c.7-1 1.5-1.6 3-1.6c2.8 0 4.2 2.4 4.2 4.9zm-2.8.4c0-1.5-.7-2.8-2.1-2.8c-1.7 0-3.4 1.7-3.4 4.2c0 2 1.1 2.7 2.3 2.7c2 0 3.2-2.2 3.2-4.1zm12.3 3.2c0 .4.2.8.9.8c.01-.02 1.5 0 1.5 0l-.6 2.5s-2.01-.02-2 0c-1.8 0-2.7-1.3-2.7-2.8c0-.4.1-.7.2-1.1c-.03.04 1.2-5.2 1.2-5.2h-2l.5-2.5h2.1l.6-2.8l2.9-.7l-.8 3.5h2.4l-.5 2.5h-2.5l-1.1 5c-.1.3-.1.5-.1.8zm14.8-3.4c0 3.9-2.6 6.9-6.1 6.9c-2.7 0-4.8-1.6-4.8-5.1c0-3.9 2.6-6.9 6.1-6.9c2.7 0 4.8 1.7 4.8 5.1zm-4.9-2.5c-1.9 0-3.3 1.8-3.3 4.2c0 1.9 1 2.7 2.2 2.7c1.9 0 3.2-1.9 3.2-4.2c0-1.9-.9-2.7-2.1-2.7zM192.4 4h10.4l-.7 2.8h-7.4l-.9 3.6h7.1l-.6 2.8h-7.1l-1.5 6.6h-2.9L192.4 4zm11.5 2.7l.8-3.2h3l-.7 3.2h-3.1zM201 19.8l2.7-11.6h2.8l-2.7 11.6H201zm17.3-8.4c0 .3 0 .7-.1.9l-1.7 7.5h-2.8s1.67-7.31 1.7-7.3v-.6c0-.9-.6-1.4-1.6-1.4c-1.4 0-2.4 1-2.9 2.9c.04-.04-1.4 6.4-1.4 6.4h-2.8l2.6-11.6h2.7l-.4 1.7c.5-.9 1.6-1.9 3.3-1.9c2.4 0 3.4 1.7 3.4 3.4zm10.6 8.4h-2.6s.43-1.74.4-1.7c-.6 1.1-1.8 1.9-3.3 1.9c-2.5 0-3.9-2.3-3.9-5c0-3.3 1.9-7 5.9-7c1.9 0 2.7.9 3.1 1.7c-.04.04 1.3-5.9 1.3-5.9h2.8l-3.7 16zm-1.2-6.8c0-1.7-.9-2.6-2.1-2.6c-1.7 0-3.3 1.6-3.3 4.4c0 1.5.5 2.7 2 2.7c2 0 3.4-2.4 3.4-4.5zm15.8 6.8h-3l3-13h-4.9l.7-2.8H252l-.7 2.8h-4.8l-3 13zm14.8-9s-.88-.03-.9 0c-1.8 0-3.1 1-3.6 3.1c.05-.02-1.3 5.9-1.3 5.9h-2.8l2.7-11.6h2.7l-.4 2c.6-1.3 1.6-2.1 3-2.1c-.01-.04 1.2 0 1.2 0l-.6 2.7zm8.8 9h-2.7s.43-1.85.4-1.8c-.5 1-1.5 1.9-3.2 1.9c-2.5 0-3.7-1.9-3.2-4.3c.04 0 1.8-7.4 1.8-7.4h2.7s-1.64 7.32-1.6 7.3c-.3.9 0 1.9 1.4 1.9c1.5 0 2.4-1.2 2.9-3.5c.01.02 1.3-5.7 1.3-5.7h2.8l-2.6 11.6zm5.7-4.6c0 1.1.6 2.4 2.3 2.4c.9 0 1.8-.4 2.2-1.5h2.7c-.8 2.6-2.9 3.9-5.2 3.9c-2.9 0-4.6-2.1-4.6-5.2c0-3.7 2.4-6.8 6.1-6.8c3.1 0 4.3 2.2 4.3 4.8c0 .6 0 1.4-.2 2h-7.6v.4zm.3-2.4h4.9c.1-.2.1-.3.1-.4c0-1.2-.8-2-2.1-2c-1.3 0-2.4.7-2.9 2.4zm20.8 7h-2.8L288.3 4h3.1l1.7 11.3L298.8 4h3.2l-8.1 15.8zm16.4-8.4c0 .3 0 .7-.1 1c-.03-.01-1.7 7.4-1.7 7.4h-2.6s.34-1.61.3-1.6c-.7 1.2-2 1.8-3.3 1.8c-1.7 0-3.3-1-3.3-3.2c0-2.3 1.8-3.5 3.9-3.8l2.5-.3c1.2-.2 1.7-.6 1.7-1.3c0-.9-.8-1.2-1.7-1.2c-1 0-2.1.5-2.3 1.7H301c.7-2.7 2.8-3.9 5.4-3.9c2.8 0 3.9 1.5 3.9 3.4zm-4.6 3.2l-1.2.2c-1.3.2-2.2.7-2.2 1.8c0 .9.6 1.1 1.5 1.1c1.4 0 2.6-.7 3.1-3l.1-.4c-.5.2-1 .3-1.3.3zm8.9-10.8h2.8l-3.7 16h-2.8l3.7-16zm11.1 16h-2.6s.38-1.85.4-1.8c-.6 1-1.6 1.9-3.2 1.9c-2.5 0-3.7-1.9-3.2-4.3l1.7-7.4h2.8s-1.69 7.32-1.7 7.3c-.2.9.1 1.9 1.4 1.9c1.5 0 2.4-1.2 3-3.5c-.04.02 1.3-5.7 1.3-5.7h2.8l-2.7 11.6zm5.7-4.6c0 1.1.6 2.4 2.3 2.4c1 0 1.8-.4 2.2-1.5h2.8c-.9 2.6-3 3.9-5.3 3.9c-2.8 0-4.5-2.1-4.5-5.2c0-3.7 2.4-6.8 6-6.8c3.1 0 4.4 2.2 4.4 4.8c0 .6-.1 1.4-.2 2h-7.7v.4zm.4-2.4h4.9v-.4c0-1.2-.7-2-2.1-2c-1.2 0-2.3.7-2.8 2.4z" stroke="none" fill="#000"/></g></svg>