<?xml version="1.0" standalone="no"?><!DOCTYPE svg PUBLIC "-//W3C//DTD SVG 1.1//EN" "http://www.w3.org/Graphics/SVG/1.1/DTD/svg11.dtd"><svg xmlns="http://www.w3.org/2000/svg" version="1.1" width="858px" height="90.4px" viewBox="0 0 858 90.4">  <desc>Hemos observado que, con un sesgo hacia un enfoque bottom-up, un aut ntico conocimiento y convicci n en las empresas</desc>  <defs/>  <g id="Polygon12012">    <path d="M 2.5 64.9 C 2.5 67.7 4.2 69 6.2 69 C 7.7 69 9.2 68.3 9.5 66.7 C 9.5 66.7 11 66.7 11 66.7 C 10.5 69.3 8.3 70.4 6.1 70.4 C 3.4 70.4 0.9 68.6 0.9 64.6 C 0.9 60.5 3.5 58.7 6.2 58.7 C 8.9 58.7 11 60.4 11 64.2 C 11.05 64.15 11 64.9 11 64.9 C 11 64.9 2.46 64.91 2.5 64.9 Z M 2.5 63.6 C 2.5 63.6 9.5 63.6 9.5 63.6 C 9.5 61.3 8 60.1 6.1 60.1 C 4.4 60.1 2.7 61.2 2.5 63.6 Z M 22.8 62.5 C 22.83 62.45 22.8 70.2 22.8 70.2 L 21.3 70.2 C 21.3 70.2 21.29 62.64 21.3 62.6 C 21.3 61.1 20.4 60.1 18.8 60.1 C 16.9 60.1 15.2 61.5 15.2 64.3 C 15.2 64.26 15.2 70.2 15.2 70.2 L 13.7 70.2 L 13.7 58.9 L 15.2 58.9 C 15.2 58.9 15.2 61 15.2 61 C 15.9 59.7 17.1 58.7 19.1 58.7 C 21.4 58.7 22.8 60 22.8 62.5 Z M 30.6 70.4 C 27.5 70.4 25.3 68.1 25.3 64.6 C 25.3 61 27.4 58.7 30.7 58.7 C 33.2 58.7 35.2 60.1 35.4 62.6 C 35.4 62.6 33.9 62.6 33.9 62.6 C 33.7 61 32.3 60.1 30.7 60.1 C 28.5 60.1 26.9 61.8 26.9 64.5 C 26.9 67.3 28.5 69 30.7 69 C 32.4 69 33.7 68 33.9 66.2 C 33.9 66.2 35.4 66.2 35.4 66.2 C 35.2 68.9 33.1 70.4 30.6 70.4 Z M 37.3 64.6 C 37.3 60.9 39.5 58.7 42.6 58.7 C 45.7 58.7 47.9 60.9 47.9 64.6 C 47.9 68.2 45.7 70.4 42.6 70.4 C 39.5 70.4 37.3 68.2 37.3 64.6 Z M 46.4 64.5 C 46.4 61.7 44.7 60.1 42.6 60.1 C 40.4 60.1 38.8 61.8 38.8 64.6 C 38.8 67.4 40.5 69 42.6 69 C 44.8 69 46.4 67.3 46.4 64.5 Z M 59.7 62.5 C 59.72 62.45 59.7 70.2 59.7 70.2 L 58.2 70.2 C 58.2 70.2 58.19 62.64 58.2 62.6 C 58.2 61.1 57.3 60.1 55.7 60.1 C 53.8 60.1 52.1 61.5 52.1 64.3 C 52.1 64.26 52.1 70.2 52.1 70.2 L 50.6 70.2 L 50.6 58.9 L 52.1 58.9 C 52.1 58.9 52.1 61 52.1 61 C 52.8 59.7 54 58.7 56 58.7 C 58.3 58.7 59.7 60 59.7 62.5 Z M 68.1 70.2 C 68.1 70.2 66.46 70.18 66.5 70.2 C 65 70.2 63.6 69.7 63.6 67.2 C 63.63 67.22 63.6 60.3 63.6 60.3 L 61.4 60.3 L 61.4 58.9 L 63.6 58.9 L 63.6 55.7 L 65.2 55.3 L 65.2 58.9 L 67.9 58.9 L 67.9 60.3 L 65.2 60.3 C 65.2 60.3 65.16 67.2 65.2 67.2 C 65.2 68.2 65.5 68.8 66.7 68.8 C 66.72 68.8 68.1 68.8 68.1 68.8 L 68.1 70.2 Z M 76 60.2 C 76 60.2 75.6 60.23 75.6 60.2 C 73.2 60.2 71.9 61.6 71.9 64.2 C 71.86 64.2 71.9 70.2 71.9 70.2 L 70.3 70.2 L 70.3 58.9 L 71.8 58.9 C 71.8 58.9 71.84 60.98 71.8 61 C 72.4 59.5 73.7 58.8 75.5 58.8 C 75.47 58.78 76 58.8 76 58.8 L 76 60.2 Z M 84.9 68.1 C 84 69.8 82.3 70.4 80.9 70.4 C 78.9 70.4 77.2 69.3 77.2 67.1 C 77.2 65 78.7 64 80.6 63.8 C 80.6 63.8 83.3 63.4 83.3 63.4 C 84.1 63.3 84.9 63 84.9 62 C 84.9 60.7 83.7 60 82.2 60 C 80.4 60 79.4 60.8 79.2 62.1 C 79.2 62.1 77.7 62.1 77.7 62.1 C 78 59.8 79.8 58.7 82.3 58.7 C 84.8 58.7 86.4 59.9 86.4 62.4 C 86.37 62.39 86.4 70.2 86.4 70.2 L 84.9 70.2 C 84.9 70.2 84.88 68.12 84.9 68.1 Z M 83 64.7 C 83 64.7 81.3 64.9 81.3 64.9 C 79.9 65.1 78.8 65.6 78.8 67 C 78.8 68.4 79.9 69 81.1 69 C 82.9 69 84.8 67.7 84.8 65.3 C 84.8 65.3 84.8 64.2 84.8 64.2 C 84.4 64.5 83.8 64.6 83 64.7 Z M 95.1 60.2 C 95.1 60.2 94.79 60.23 94.8 60.2 C 92.4 60.2 91.1 61.6 91.1 64.2 C 91.05 64.2 91.1 70.2 91.1 70.2 L 89.5 70.2 L 89.5 58.9 L 91 58.9 C 91 58.9 91.03 60.98 91 61 C 91.6 59.5 92.9 58.8 94.7 58.8 C 94.67 58.78 95.1 58.8 95.1 58.8 L 95.1 60.2 Z M 106.2 70.2 L 104.6 70.2 L 100.4 58.9 L 102.1 58.9 L 105.4 68.6 L 108.8 58.9 L 110.4 58.9 L 106.2 70.2 Z M 119.2 68.1 C 118.3 69.8 116.6 70.4 115.1 70.4 C 113.2 70.4 111.5 69.3 111.5 67.1 C 111.5 65 113 64 114.9 63.8 C 114.9 63.8 117.6 63.4 117.6 63.4 C 118.4 63.3 119.2 63 119.2 62 C 119.2 60.7 118 60 116.4 60 C 114.7 60 113.7 60.8 113.5 62.1 C 113.5 62.1 111.9 62.1 111.9 62.1 C 112.2 59.8 114 58.7 116.5 58.7 C 119.1 58.7 120.6 59.9 120.6 62.4 C 120.64 62.39 120.6 70.2 120.6 70.2 L 119.2 70.2 C 119.2 70.2 119.15 68.12 119.2 68.1 Z M 117.3 64.7 C 117.3 64.7 115.6 64.9 115.6 64.9 C 114.1 65.1 113.1 65.6 113.1 67 C 113.1 68.4 114.2 69 115.4 69 C 117.2 69 119.1 67.7 119.1 65.3 C 119.1 65.3 119.1 64.2 119.1 64.2 C 118.7 64.5 118 64.6 117.3 64.7 Z M 125.3 70.2 L 123.8 70.2 L 123.8 54.2 L 125.3 54.2 L 125.3 70.2 Z M 128 64.6 C 128 60.9 130.2 58.7 133.3 58.7 C 136.4 58.7 138.6 60.9 138.6 64.6 C 138.6 68.2 136.4 70.4 133.3 70.4 C 130.2 70.4 128 68.2 128 64.6 Z M 137.1 64.5 C 137.1 61.7 135.4 60.1 133.3 60.1 C 131.1 60.1 129.5 61.8 129.5 64.6 C 129.5 67.4 131.2 69 133.3 69 C 135.5 69 137.1 67.3 137.1 64.5 Z M 146.9 60.2 C 146.9 60.2 146.54 60.23 146.5 60.2 C 144.1 60.2 142.8 61.6 142.8 64.2 C 142.8 64.2 142.8 70.2 142.8 70.2 L 141.3 70.2 L 141.3 58.9 L 142.8 58.9 C 142.8 58.9 142.78 60.98 142.8 61 C 143.3 59.5 144.7 58.8 146.4 58.8 C 146.41 58.78 146.9 58.8 146.9 58.8 L 146.9 60.2 Z M 158 70.2 L 156.3 70.2 L 152.1 58.9 L 153.8 58.9 L 157.2 68.6 L 160.6 58.9 L 162.2 58.9 L 158 70.2 Z M 164.7 64.9 C 164.8 67.7 166.5 69 168.5 69 C 170 69 171.5 68.3 171.8 66.7 C 171.8 66.7 173.2 66.7 173.2 66.7 C 172.7 69.3 170.6 70.4 168.4 70.4 C 165.7 70.4 163.2 68.6 163.2 64.6 C 163.2 60.5 165.8 58.7 168.5 58.7 C 171.1 58.7 173.3 60.4 173.3 64.2 C 173.33 64.15 173.3 64.9 173.3 64.9 C 173.3 64.9 164.74 64.91 164.7 64.9 Z M 164.8 63.6 C 164.8 63.6 171.8 63.6 171.8 63.6 C 171.8 61.3 170.3 60.1 168.4 60.1 C 166.7 60.1 165 61.2 164.8 63.6 Z M 181.6 60.2 C 181.6 60.2 181.23 60.23 181.2 60.2 C 178.8 60.2 177.5 61.6 177.5 64.2 C 177.49 64.2 177.5 70.2 177.5 70.2 L 176 70.2 L 176 58.9 L 177.5 58.9 C 177.5 58.9 177.47 60.98 177.5 61 C 178 59.5 179.4 58.8 181.1 58.8 C 181.1 58.78 181.6 58.8 181.6 58.8 L 181.6 60.2 Z M 193.2 70.2 L 191.7 70.2 C 191.7 70.2 191.71 68 191.7 68 C 191.2 69.3 189.8 70.4 187.7 70.4 C 184.7 70.4 182.6 68.1 182.6 64.5 C 182.6 61 184.7 58.7 187.7 58.7 C 189.6 58.7 191 59.6 191.6 60.8 C 191.64 60.82 191.6 54.2 191.6 54.2 L 193.2 54.2 L 193.2 70.2 Z M 191.6 64.5 C 191.6 61.7 190.1 60.1 187.9 60.1 C 185.7 60.1 184.2 61.8 184.2 64.5 C 184.2 67.3 185.7 69 187.9 69 C 190.1 69 191.6 67.3 191.6 64.5 Z M 203.5 68.1 C 202.6 69.8 200.9 70.4 199.5 70.4 C 197.5 70.4 195.8 69.3 195.8 67.1 C 195.8 65 197.3 64 199.2 63.8 C 199.2 63.8 201.9 63.4 201.9 63.4 C 202.7 63.3 203.5 63 203.5 62 C 203.5 60.7 202.3 60 200.7 60 C 199 60 198 60.8 197.8 62.1 C 197.8 62.1 196.2 62.1 196.2 62.1 C 196.6 59.8 198.4 58.7 200.8 58.7 C 203.4 58.7 205 59.9 205 62.4 C 204.96 62.39 205 70.2 205 70.2 L 203.5 70.2 C 203.5 70.2 203.47 68.12 203.5 68.1 Z M 201.6 64.7 C 201.6 64.7 199.9 64.9 199.9 64.9 C 198.4 65.1 197.4 65.6 197.4 67 C 197.4 68.4 198.5 69 199.7 69 C 201.5 69 203.4 67.7 203.4 65.3 C 203.4 65.3 203.4 64.2 203.4 64.2 C 203 64.5 202.4 64.6 201.6 64.7 Z M 217.9 70.2 L 216.4 70.2 C 216.4 70.2 216.44 68 216.4 68 C 215.9 69.3 214.5 70.4 212.4 70.4 C 209.5 70.4 207.4 68.1 207.4 64.5 C 207.4 61 209.5 58.7 212.5 58.7 C 214.4 58.7 215.8 59.6 216.4 60.8 C 216.38 60.82 216.4 54.2 216.4 54.2 L 217.9 54.2 L 217.9 70.2 Z M 216.4 64.5 C 216.4 61.7 214.8 60.1 212.6 60.1 C 210.4 60.1 208.9 61.8 208.9 64.5 C 208.9 67.3 210.5 69 212.6 69 C 214.8 69 216.4 67.3 216.4 64.5 Z M 222.1 64.9 C 222.1 67.7 223.8 69 225.8 69 C 227.3 69 228.8 68.3 229.1 66.7 C 229.1 66.7 230.6 66.7 230.6 66.7 C 230.1 69.3 227.9 70.4 225.7 70.4 C 223 70.4 220.5 68.6 220.5 64.6 C 220.5 60.5 223.1 58.7 225.8 58.7 C 228.5 58.7 230.6 60.4 230.6 64.2 C 230.64 64.15 230.6 64.9 230.6 64.9 C 230.6 64.9 222.05 64.91 222.1 64.9 Z M 222.1 63.6 C 222.1 63.6 229.1 63.6 229.1 63.6 C 229.1 61.3 227.6 60.1 225.7 60.1 C 224 60.1 222.3 61.2 222.1 63.6 Z M 238.9 60.2 C 238.9 60.2 238.54 60.23 238.5 60.2 C 236.1 60.2 234.8 61.6 234.8 64.2 C 234.8 64.2 234.8 70.2 234.8 70.2 L 233.3 70.2 L 233.3 58.9 L 234.8 58.9 C 234.8 58.9 234.78 60.98 234.8 61 C 235.3 59.5 236.7 58.8 238.4 58.8 C 238.41 58.78 238.9 58.8 238.9 58.8 L 238.9 60.2 Z M 239.9 64.6 C 239.9 60.9 242.2 58.7 245.3 58.7 C 248.4 58.7 250.6 60.9 250.6 64.6 C 250.6 68.2 248.4 70.4 245.3 70.4 C 242.2 70.4 239.9 68.2 239.9 64.6 Z M 249.1 64.5 C 249.1 61.7 247.4 60.1 245.3 60.1 C 243.1 60.1 241.5 61.8 241.5 64.6 C 241.5 67.4 243.2 69 245.3 69 C 247.5 69 249.1 67.3 249.1 64.5 Z M 258.9 64.9 C 258.9 67.7 260.6 69 262.6 69 C 264.1 69 265.6 68.3 265.9 66.7 C 265.9 66.7 267.4 66.7 267.4 66.7 C 266.9 69.3 264.7 70.4 262.5 70.4 C 259.9 70.4 257.4 68.6 257.4 64.6 C 257.4 60.5 259.9 58.7 262.6 58.7 C 265.3 58.7 267.5 60.4 267.5 64.2 C 267.45 64.15 267.5 64.9 267.5 64.9 C 267.5 64.9 258.86 64.91 258.9 64.9 Z M 258.9 63.6 C 258.9 63.6 265.9 63.6 265.9 63.6 C 265.9 61.3 264.4 60.1 262.5 60.1 C 260.8 60.1 259.1 61.2 258.9 63.6 Z M 279.2 62.5 C 279.23 62.45 279.2 70.2 279.2 70.2 L 277.7 70.2 C 277.7 70.2 277.7 62.64 277.7 62.6 C 277.7 61.1 276.8 60.1 275.2 60.1 C 273.3 60.1 271.6 61.5 271.6 64.3 C 271.61 64.26 271.6 70.2 271.6 70.2 L 270.1 70.2 L 270.1 58.9 L 271.6 58.9 C 271.6 58.9 271.61 61 271.6 61 C 272.3 59.7 273.5 58.7 275.5 58.7 C 277.8 58.7 279.2 60 279.2 62.5 Z M 288.5 64.9 C 288.6 67.7 290.3 69 292.3 69 C 293.8 69 295.2 68.3 295.6 66.7 C 295.6 66.7 297 66.7 297 66.7 C 296.5 69.3 294.3 70.4 292.2 70.4 C 289.5 70.4 287 68.6 287 64.6 C 287 60.5 289.5 58.7 292.3 58.7 C 294.9 58.7 297.1 60.4 297.1 64.2 C 297.11 64.15 297.1 64.9 297.1 64.9 C 297.1 64.9 288.52 64.91 288.5 64.9 Z M 288.6 63.6 C 288.6 63.6 295.6 63.6 295.6 63.6 C 295.6 61.3 294.1 60.1 292.2 60.1 C 290.4 60.1 288.8 61.2 288.6 63.6 Z M 301.3 70.2 L 299.7 70.2 L 299.7 54.2 L 301.3 54.2 L 301.3 70.2 Z M 310.3 58.9 L 311.8 58.9 C 311.8 58.9 311.81 60.77 311.8 60.8 C 312.4 59.4 313.7 58.7 315.1 58.7 C 316.7 58.7 318.1 59.6 318.4 61 C 318.9 59.8 320.2 58.7 322.1 58.7 C 324.2 58.7 325.8 59.8 325.8 62.1 C 325.77 62.1 325.8 70.2 325.8 70.2 L 324.2 70.2 C 324.2 70.2 324.24 62.64 324.2 62.6 C 324.2 60.9 323.2 60.1 321.8 60.1 C 320.2 60.1 318.8 61.4 318.8 63.7 C 318.78 63.73 318.8 70.2 318.8 70.2 L 317.3 70.2 C 317.3 70.2 317.27 62.64 317.3 62.6 C 317.3 60.9 316.2 60.1 314.9 60.1 C 313.2 60.1 311.8 61.3 311.8 63.7 C 311.83 63.73 311.8 70.2 311.8 70.2 L 310.3 70.2 L 310.3 58.9 Z M 329.8 64.9 C 329.8 67.7 331.6 69 333.6 69 C 335.1 69 336.5 68.3 336.9 66.7 C 336.9 66.7 338.3 66.7 338.3 66.7 C 337.8 69.3 335.6 70.4 333.5 70.4 C 330.8 70.4 328.3 68.6 328.3 64.6 C 328.3 60.5 330.8 58.7 333.5 58.7 C 336.2 58.7 338.4 60.4 338.4 64.2 C 338.39 64.15 338.4 64.9 338.4 64.9 C 338.4 64.9 329.8 64.91 329.8 64.9 Z M 329.8 63.6 C 329.8 63.6 336.8 63.6 336.8 63.6 C 336.8 61.3 335.4 60.1 333.5 60.1 C 331.7 60.1 330.1 61.2 329.8 63.6 Z M 346.6 60.2 C 346.6 60.2 346.29 60.23 346.3 60.2 C 343.9 60.2 342.5 61.6 342.5 64.2 C 342.55 64.2 342.5 70.2 342.5 70.2 L 341 70.2 L 341 58.9 L 342.5 58.9 C 342.5 58.9 342.53 60.98 342.5 61 C 343.1 59.5 344.4 58.8 346.2 58.8 C 346.16 58.78 346.6 58.8 346.6 58.8 L 346.6 60.2 Z M 352.9 70.4 C 349.8 70.4 347.7 68.1 347.7 64.6 C 347.7 61 349.8 58.7 353 58.7 C 355.5 58.7 357.5 60.1 357.7 62.6 C 357.7 62.6 356.2 62.6 356.2 62.6 C 356.1 61 354.7 60.1 353 60.1 C 350.8 60.1 349.2 61.8 349.2 64.5 C 349.2 67.3 350.8 69 353 69 C 354.7 69 356.1 68 356.2 66.2 C 356.2 66.2 357.7 66.2 357.7 66.2 C 357.5 68.9 355.4 70.4 352.9 70.4 Z M 367.3 68.1 C 366.4 69.8 364.7 70.4 363.3 70.4 C 361.3 70.4 359.6 69.3 359.6 67.1 C 359.6 65 361.1 64 363 63.8 C 363 63.8 365.7 63.4 365.7 63.4 C 366.5 63.3 367.3 63 367.3 62 C 367.3 60.7 366.1 60 364.5 60 C 362.8 60 361.8 60.8 361.6 62.1 C 361.6 62.1 360 62.1 360 62.1 C 360.4 59.8 362.2 58.7 364.6 58.7 C 367.2 58.7 368.8 59.9 368.8 62.4 C 368.76 62.39 368.8 70.2 368.8 70.2 L 367.3 70.2 C 367.3 70.2 367.27 68.12 367.3 68.1 Z M 365.4 64.7 C 365.4 64.7 363.7 64.9 363.7 64.9 C 362.2 65.1 361.2 65.6 361.2 67 C 361.2 68.4 362.3 69 363.5 69 C 365.3 69 367.2 67.7 367.2 65.3 C 367.2 65.3 367.2 64.2 367.2 64.2 C 366.8 64.5 366.2 64.6 365.4 64.7 Z M 381.7 70.2 L 380.2 70.2 C 380.2 70.2 380.24 68 380.2 68 C 379.7 69.3 378.3 70.4 376.2 70.4 C 373.3 70.4 371.2 68.1 371.2 64.5 C 371.2 61 373.3 58.7 376.3 58.7 C 378.2 58.7 379.6 59.6 380.2 60.8 C 380.18 60.82 380.2 54.2 380.2 54.2 L 381.7 54.2 L 381.7 70.2 Z M 380.2 64.5 C 380.2 61.7 378.6 60.1 376.4 60.1 C 374.2 60.1 372.7 61.8 372.7 64.5 C 372.7 67.3 374.3 69 376.4 69 C 378.6 69 380.2 67.3 380.2 64.5 Z M 384.3 64.6 C 384.3 60.9 386.6 58.7 389.7 58.7 C 392.8 58.7 395 60.9 395 64.6 C 395 68.2 392.8 70.4 389.7 70.4 C 386.6 70.4 384.3 68.2 384.3 64.6 Z M 393.5 64.5 C 393.5 61.7 391.8 60.1 389.7 60.1 C 387.4 60.1 385.9 61.8 385.9 64.6 C 385.9 67.4 387.6 69 389.7 69 C 391.9 69 393.5 67.3 393.5 64.5 Z M 396.9 68 L 399.1 68 L 399.1 70.2 L 396.9 70.2 L 396.9 68 Z " stroke="none" fill="#fff"/>  </g>  <g id="Polygon12011">    <path d="M 6.2 45.2 C 3.1 45.2 0.9 42.9 0.9 39.4 C 0.9 35.8 3 33.5 6.3 33.5 C 8.8 33.5 10.8 34.9 11 37.4 C 11 37.4 9.5 37.4 9.5 37.4 C 9.3 35.8 7.9 34.9 6.3 34.9 C 4.1 34.9 2.5 36.6 2.5 39.3 C 2.5 42.1 4.1 43.8 6.3 43.8 C 8 43.8 9.3 42.8 9.4 41 C 9.4 41 11 41 11 41 C 10.8 43.7 8.7 45.2 6.2 45.2 Z M 12.9 39.4 C 12.9 35.7 15.1 33.5 18.2 33.5 C 21.3 33.5 23.5 35.7 23.5 39.4 C 23.5 43 21.3 45.2 18.2 45.2 C 15.1 45.2 12.9 43 12.9 39.4 Z M 22 39.3 C 22 36.5 20.3 34.9 18.2 34.9 C 16 34.9 14.4 36.6 14.4 39.4 C 14.4 42.2 16.1 43.8 18.2 43.8 C 20.4 43.8 22 42.1 22 39.3 Z M 35.3 37.3 C 35.32 37.25 35.3 45 35.3 45 L 33.8 45 C 33.8 45 33.79 37.44 33.8 37.4 C 33.8 35.9 32.9 34.9 31.3 34.9 C 29.4 34.9 27.7 36.3 27.7 39.1 C 27.7 39.06 27.7 45 27.7 45 L 26.2 45 L 26.2 33.7 L 27.7 33.7 C 27.7 33.7 27.7 35.8 27.7 35.8 C 28.4 34.5 29.6 33.5 31.6 33.5 C 33.9 33.5 35.3 34.8 35.3 37.3 Z M 37.8 39.4 C 37.8 35.7 40.1 33.5 43.2 33.5 C 46.3 33.5 48.5 35.7 48.5 39.4 C 48.5 43 46.3 45.2 43.2 45.2 C 40.1 45.2 37.8 43 37.8 39.4 Z M 47 39.3 C 47 36.5 45.3 34.9 43.2 34.9 C 40.9 34.9 39.4 36.6 39.4 39.4 C 39.4 42.2 41.1 43.8 43.2 43.8 C 45.4 43.8 47 42.1 47 39.3 Z M 55.6 45.2 C 52.5 45.2 50.4 42.9 50.4 39.4 C 50.4 35.8 52.5 33.5 55.8 33.5 C 58.3 33.5 60.3 34.9 60.4 37.4 C 60.4 37.4 58.9 37.4 58.9 37.4 C 58.8 35.8 57.4 34.9 55.8 34.9 C 53.5 34.9 52 36.6 52 39.3 C 52 42.1 53.5 43.8 55.7 43.8 C 57.4 43.8 58.8 42.8 58.9 41 C 58.9 41 60.4 41 60.4 41 C 60.3 43.7 58.1 45.2 55.6 45.2 Z M 64.7 29 L 63 29 L 63 30.9 L 64.7 30.9 L 64.7 29 Z M 64.6 45 L 63.1 45 L 63.1 33.7 L 64.6 33.7 L 64.6 45 Z M 68 33.7 L 69.5 33.7 C 69.5 33.7 69.47 35.57 69.5 35.6 C 70.1 34.2 71.3 33.5 72.7 33.5 C 74.4 33.5 75.7 34.4 76.1 35.8 C 76.6 34.6 77.8 33.5 79.8 33.5 C 81.8 33.5 83.4 34.6 83.4 36.9 C 83.43 36.9 83.4 45 83.4 45 L 81.9 45 C 81.9 45 81.9 37.44 81.9 37.4 C 81.9 35.7 80.8 34.9 79.5 34.9 C 77.8 34.9 76.4 36.2 76.4 38.5 C 76.44 38.53 76.4 45 76.4 45 L 74.9 45 C 74.9 45 74.93 37.44 74.9 37.4 C 74.9 35.7 73.9 34.9 72.6 34.9 C 70.9 34.9 69.5 36.1 69.5 38.5 C 69.49 38.53 69.5 45 69.5 45 L 68 45 L 68 33.7 Z M 88.3 29 L 86.6 29 L 86.6 30.9 L 88.3 30.9 L 88.3 29 Z M 88.2 45 L 86.7 45 L 86.7 33.7 L 88.2 33.7 L 88.2 45 Z M 92.4 39.7 C 92.4 42.5 94.1 43.8 96.1 43.8 C 97.6 43.8 99.1 43.1 99.4 41.5 C 99.4 41.5 100.9 41.5 100.9 41.5 C 100.4 44.1 98.2 45.2 96 45.2 C 93.3 45.2 90.8 43.4 90.8 39.4 C 90.8 35.3 93.4 33.5 96.1 33.5 C 98.8 33.5 100.9 35.2 100.9 39 C 100.95 38.95 100.9 39.7 100.9 39.7 C 100.9 39.7 92.36 39.71 92.4 39.7 Z M 92.4 38.4 C 92.4 38.4 99.4 38.4 99.4 38.4 C 99.4 36.1 97.9 34.9 96 34.9 C 94.3 34.9 92.6 36 92.4 38.4 Z M 112.7 37.3 C 112.73 37.25 112.7 45 112.7 45 L 111.2 45 C 111.2 45 111.19 37.44 111.2 37.4 C 111.2 35.9 110.3 34.9 108.7 34.9 C 106.8 34.9 105.1 36.3 105.1 39.1 C 105.1 39.06 105.1 45 105.1 45 L 103.6 45 L 103.6 33.7 L 105.1 33.7 C 105.1 33.7 105.1 35.8 105.1 35.8 C 105.8 34.5 107 33.5 109 33.5 C 111.3 33.5 112.7 34.8 112.7 37.3 Z M 121.1 45 C 121.1 45 119.47 44.98 119.5 45 C 118 45 116.6 44.5 116.6 42 C 116.63 42.02 116.6 35.1 116.6 35.1 L 114.4 35.1 L 114.4 33.7 L 116.6 33.7 L 116.6 30.5 L 118.2 30.1 L 118.2 33.7 L 120.9 33.7 L 120.9 35.1 L 118.2 35.1 C 118.2 35.1 118.17 42 118.2 42 C 118.2 43 118.5 43.6 119.7 43.6 C 119.72 43.6 121.1 43.6 121.1 43.6 L 121.1 45 Z M 122.6 39.4 C 122.6 35.7 124.8 33.5 127.9 33.5 C 131 33.5 133.3 35.7 133.3 39.4 C 133.3 43 131.1 45.2 128 45.2 C 124.8 45.2 122.6 43 122.6 39.4 Z M 131.7 39.3 C 131.7 36.5 130 34.9 127.9 34.9 C 125.7 34.9 124.2 36.6 124.2 39.4 C 124.2 42.2 125.9 43.8 128 43.8 C 130.2 43.8 131.7 42.1 131.7 39.3 Z M 144.1 47.1 C 143.6 48.3 142.6 48.7 141.5 48.7 C 141.45 48.68 140.3 48.7 140.3 48.7 L 140.3 47.3 C 140.3 47.3 141.24 47.31 141.2 47.3 C 142.2 47.3 142.7 47 143.1 46 C 143.05 45.99 143.6 44.5 143.6 44.5 L 139.4 33.7 L 141 33.7 L 144.3 42.6 L 147.6 33.7 L 149.2 33.7 C 149.2 33.7 144.06 47.12 144.1 47.1 Z M 160.5 45.2 C 157.4 45.2 155.3 42.9 155.3 39.4 C 155.3 35.8 157.4 33.5 160.6 33.5 C 163.1 33.5 165.1 34.9 165.3 37.4 C 165.3 37.4 163.8 37.4 163.8 37.4 C 163.6 35.8 162.2 34.9 160.6 34.9 C 158.4 34.9 156.8 36.6 156.8 39.3 C 156.8 42.1 158.4 43.8 160.6 43.8 C 162.3 43.8 163.6 42.8 163.8 41 C 163.8 41 165.3 41 165.3 41 C 165.1 43.7 163 45.2 160.5 45.2 Z M 167.2 39.4 C 167.2 35.7 169.4 33.5 172.5 33.5 C 175.6 33.5 177.8 35.7 177.8 39.4 C 177.8 43 175.6 45.2 172.5 45.2 C 169.4 45.2 167.2 43 167.2 39.4 Z M 176.3 39.3 C 176.3 36.5 174.6 34.9 172.5 34.9 C 170.3 34.9 168.7 36.6 168.7 39.4 C 168.7 42.2 170.4 43.8 172.5 43.8 C 174.7 43.8 176.3 42.1 176.3 39.3 Z M 189.6 37.3 C 189.63 37.25 189.6 45 189.6 45 L 188.1 45 C 188.1 45 188.09 37.44 188.1 37.4 C 188.1 35.9 187.2 34.9 185.6 34.9 C 183.7 34.9 182 36.3 182 39.1 C 182 39.06 182 45 182 45 L 180.5 45 L 180.5 33.7 L 182 33.7 C 182 33.7 182 35.8 182 35.8 C 182.7 34.5 183.9 33.5 185.9 33.5 C 188.2 33.5 189.6 34.8 189.6 37.3 Z M 197.4 45 L 195.7 45 L 191.5 33.7 L 193.2 33.7 L 196.6 43.4 L 200 33.7 L 201.6 33.7 L 197.4 45 Z M 205.2 29 L 203.4 29 L 203.4 30.9 L 205.2 30.9 L 205.2 29 Z M 205.1 45 L 203.6 45 L 203.6 33.7 L 205.1 33.7 L 205.1 45 Z M 212.9 45.2 C 209.8 45.2 207.7 42.9 207.7 39.4 C 207.7 35.8 209.8 33.5 213.1 33.5 C 215.6 33.5 217.6 34.9 217.7 37.4 C 217.7 37.4 216.2 37.4 216.2 37.4 C 216.1 35.8 214.7 34.9 213 34.9 C 210.8 34.9 209.3 36.6 209.3 39.3 C 209.3 42.1 210.8 43.8 213 43.8 C 214.7 43.8 216.1 42.8 216.2 41 C 216.2 41 217.7 41 217.7 41 C 217.6 43.7 215.4 45.2 212.9 45.2 Z M 224.8 45.2 C 221.7 45.2 219.6 42.9 219.6 39.4 C 219.6 35.8 221.7 33.5 225 33.5 C 227.5 33.5 229.5 34.9 229.6 37.4 C 229.6 37.4 228.1 37.4 228.1 37.4 C 228 35.8 226.6 34.9 224.9 34.9 C 222.7 34.9 221.2 36.6 221.2 39.3 C 221.2 42.1 222.7 43.8 224.9 43.8 C 226.6 43.8 228 42.8 228.1 41 C 228.1 41 229.6 41 229.6 41 C 229.5 43.7 227.3 45.2 224.8 45.2 Z M 233.9 29 L 232.2 29 L 232.2 30.9 L 233.9 30.9 L 233.9 29 Z M 233.8 45 L 232.3 45 L 232.3 33.7 L 233.8 33.7 L 233.8 45 Z M 242.4 31.4 L 241.1 31.4 L 243.6 27.6 L 244.9 28.6 L 242.4 31.4 Z M 236.4 39.4 C 236.4 35.7 238.6 33.5 241.7 33.5 C 244.9 33.5 247.1 35.7 247.1 39.4 C 247.1 43 244.9 45.2 241.8 45.2 C 238.7 45.2 236.4 43 236.4 39.4 Z M 245.5 39.3 C 245.5 36.5 243.8 34.9 241.7 34.9 C 239.5 34.9 238 36.6 238 39.4 C 238 42.2 239.7 43.8 241.8 43.8 C 244 43.8 245.5 42.1 245.5 39.3 Z M 258.9 37.3 C 258.88 37.25 258.9 45 258.9 45 L 257.4 45 C 257.4 45 257.35 37.44 257.4 37.4 C 257.4 35.9 256.5 34.9 254.9 34.9 C 252.9 34.9 251.3 36.3 251.3 39.1 C 251.26 39.06 251.3 45 251.3 45 L 249.7 45 L 249.7 33.7 L 251.3 33.7 C 251.3 33.7 251.26 35.8 251.3 35.8 C 251.9 34.5 253.2 33.5 255.2 33.5 C 257.4 33.5 258.9 34.8 258.9 37.3 Z M 268.2 39.7 C 268.2 42.5 269.9 43.8 271.9 43.8 C 273.4 43.8 274.9 43.1 275.2 41.5 C 275.2 41.5 276.7 41.5 276.7 41.5 C 276.2 44.1 274 45.2 271.8 45.2 C 269.2 45.2 266.7 43.4 266.7 39.4 C 266.7 35.3 269.2 33.5 271.9 33.5 C 274.6 33.5 276.8 35.2 276.8 39 C 276.76 38.95 276.8 39.7 276.8 39.7 C 276.8 39.7 268.17 39.71 268.2 39.7 Z M 268.2 38.4 C 268.2 38.4 275.2 38.4 275.2 38.4 C 275.2 36.1 273.7 34.9 271.8 34.9 C 270.1 34.9 268.4 36 268.2 38.4 Z M 288.5 37.3 C 288.54 37.25 288.5 45 288.5 45 L 287 45 C 287 45 287 37.44 287 37.4 C 287 35.9 286.1 34.9 284.5 34.9 C 282.6 34.9 280.9 36.3 280.9 39.1 C 280.91 39.06 280.9 45 280.9 45 L 279.4 45 L 279.4 33.7 L 280.9 33.7 C 280.9 33.7 280.91 35.8 280.9 35.8 C 281.6 34.5 282.8 33.5 284.8 33.5 C 287.1 33.5 288.5 34.8 288.5 37.3 Z M 299 45 L 297.5 45 L 297.5 29 L 299 29 L 299 45 Z M 309.3 42.9 C 308.4 44.6 306.7 45.2 305.3 45.2 C 303.3 45.2 301.6 44.1 301.6 41.9 C 301.6 39.8 303.1 38.8 305 38.6 C 305 38.6 307.7 38.2 307.7 38.2 C 308.5 38.1 309.3 37.8 309.3 36.8 C 309.3 35.5 308.1 34.8 306.6 34.8 C 304.9 34.8 303.8 35.6 303.6 36.9 C 303.6 36.9 302.1 36.9 302.1 36.9 C 302.4 34.6 304.2 33.5 306.7 33.5 C 309.2 33.5 310.8 34.7 310.8 37.2 C 310.77 37.19 310.8 45 310.8 45 L 309.3 45 C 309.3 45 309.28 42.92 309.3 42.9 Z M 307.4 39.5 C 307.4 39.5 305.7 39.7 305.7 39.7 C 304.3 39.9 303.2 40.4 303.2 41.8 C 303.2 43.2 304.3 43.8 305.5 43.8 C 307.3 43.8 309.2 42.5 309.2 40.1 C 309.2 40.1 309.2 39 309.2 39 C 308.8 39.3 308.2 39.4 307.4 39.5 Z M 322.3 41.8 C 322.3 44.1 320.2 45.2 318 45.2 C 315.5 45.2 313.3 44 313.1 41.5 C 313.1 41.5 314.7 41.5 314.7 41.5 C 315 43.2 316.4 43.8 318 43.8 C 319.4 43.8 320.7 43.3 320.7 42 C 320.7 40.7 319.4 40.4 318.1 40.2 C 315.9 39.8 313.4 39.4 313.4 36.8 C 313.4 34.6 315.3 33.5 317.6 33.5 C 320 33.5 321.9 34.6 322 36.9 C 322 36.9 320.4 36.9 320.4 36.9 C 320.3 35.5 319 34.9 317.5 34.9 C 316 34.9 315 35.6 315 36.7 C 315 38.2 316.3 38.4 318 38.7 C 320.1 39 322.3 39.3 322.3 41.8 Z M 330.4 39.7 C 330.5 42.5 332.2 43.8 334.2 43.8 C 335.7 43.8 337.2 43.1 337.5 41.5 C 337.5 41.5 338.9 41.5 338.9 41.5 C 338.4 44.1 336.2 45.2 334.1 45.2 C 331.4 45.2 328.9 43.4 328.9 39.4 C 328.9 35.3 331.5 33.5 334.2 33.5 C 336.8 33.5 339 35.2 339 39 C 339.02 38.95 339 39.7 339 39.7 C 339 39.7 330.43 39.71 330.4 39.7 Z M 330.5 38.4 C 330.5 38.4 337.5 38.4 337.5 38.4 C 337.5 36.1 336 34.9 334.1 34.9 C 332.3 34.9 330.7 36 330.5 38.4 Z M 341.6 33.7 L 343.2 33.7 C 343.2 33.7 343.16 35.57 343.2 35.6 C 343.8 34.2 345 33.5 346.4 33.5 C 348.1 33.5 349.4 34.4 349.8 35.8 C 350.3 34.6 351.5 33.5 353.5 33.5 C 355.5 33.5 357.1 34.6 357.1 36.9 C 357.12 36.9 357.1 45 357.1 45 L 355.6 45 C 355.6 45 355.59 37.44 355.6 37.4 C 355.6 35.7 354.5 34.9 353.2 34.9 C 351.5 34.9 350.1 36.2 350.1 38.5 C 350.13 38.53 350.1 45 350.1 45 L 348.6 45 C 348.6 45 348.62 37.44 348.6 37.4 C 348.6 35.7 347.6 34.9 346.2 34.9 C 344.6 34.9 343.2 36.1 343.2 38.5 C 343.18 38.53 343.2 45 343.2 45 L 341.6 45 L 341.6 33.7 Z M 370.9 39.3 C 370.9 43.4 368.3 45.1 365.7 45.1 C 363.8 45.1 362.5 44.2 361.9 43 C 361.91 43.03 361.9 49.3 361.9 49.3 L 360.4 49.3 L 360.4 33.7 L 361.9 33.7 C 361.9 33.7 361.87 36.08 361.9 36.1 C 362.4 34.7 363.8 33.5 365.9 33.5 C 368.3 33.5 370.9 35.2 370.9 39.3 Z M 369.3 39.3 C 369.3 36.2 367.5 35 365.7 35 C 363.8 35 361.9 36.2 361.9 39.4 C 361.9 42.5 363.8 43.7 365.6 43.7 C 367.5 43.7 369.3 42.5 369.3 39.3 Z M 379.2 35 C 379.2 35 378.79 35.03 378.8 35 C 376.4 35 375.1 36.4 375.1 39 C 375.06 39 375.1 45 375.1 45 L 373.5 45 L 373.5 33.7 L 375 33.7 C 375 33.7 375.03 35.78 375 35.8 C 375.6 34.3 376.9 33.6 378.7 33.6 C 378.67 33.58 379.2 33.6 379.2 33.6 L 379.2 35 Z M 381.7 39.7 C 381.8 42.5 383.5 43.8 385.5 43.8 C 387 43.8 388.4 43.1 388.8 41.5 C 388.8 41.5 390.2 41.5 390.2 41.5 C 389.7 44.1 387.5 45.2 385.4 45.2 C 382.7 45.2 380.2 43.4 380.2 39.4 C 380.2 35.3 382.7 33.5 385.5 33.5 C 388.1 33.5 390.3 35.2 390.3 39 C 390.3 38.95 390.3 39.7 390.3 39.7 C 390.3 39.7 381.71 39.71 381.7 39.7 Z M 381.8 38.4 C 381.8 38.4 388.7 38.4 388.7 38.4 C 388.7 36.1 387.3 34.9 385.4 34.9 C 383.6 34.9 382 36 381.8 38.4 Z M 401.3 41.8 C 401.3 44.1 399.2 45.2 397 45.2 C 394.5 45.2 392.3 44 392.1 41.5 C 392.1 41.5 393.7 41.5 393.7 41.5 C 394 43.2 395.4 43.8 397 43.8 C 398.4 43.8 399.7 43.3 399.7 42 C 399.7 40.7 398.4 40.4 397.1 40.2 C 394.9 39.8 392.4 39.4 392.4 36.8 C 392.4 34.6 394.3 33.5 396.6 33.5 C 399 33.5 400.9 34.6 401 36.9 C 401 36.9 399.4 36.9 399.4 36.9 C 399.3 35.5 398 34.9 396.5 34.9 C 395 34.9 394 35.6 394 36.7 C 394 38.2 395.3 38.4 397 38.7 C 399.1 39 401.3 39.3 401.3 41.8 Z M 410.8 42.9 C 409.9 44.6 408.2 45.2 406.7 45.2 C 404.8 45.2 403.1 44.1 403.1 41.9 C 403.1 39.8 404.6 38.8 406.5 38.6 C 406.5 38.6 409.2 38.2 409.2 38.2 C 410 38.1 410.8 37.8 410.8 36.8 C 410.8 35.5 409.6 34.8 408 34.8 C 406.3 34.8 405.3 35.6 405.1 36.9 C 405.1 36.9 403.5 36.9 403.5 36.9 C 403.8 34.6 405.7 33.5 408.1 33.5 C 410.7 33.5 412.2 34.7 412.2 37.2 C 412.25 37.19 412.2 45 412.2 45 L 410.8 45 C 410.8 45 410.76 42.92 410.8 42.9 Z M 408.9 39.5 C 408.9 39.5 407.2 39.7 407.2 39.7 C 405.7 39.9 404.7 40.4 404.7 41.8 C 404.7 43.2 405.8 43.8 407 43.8 C 408.8 43.8 410.7 42.5 410.7 40.1 C 410.7 40.1 410.7 39 410.7 39 C 410.3 39.3 409.6 39.4 408.9 39.5 Z M 423.8 41.8 C 423.8 44.1 421.7 45.2 419.4 45.2 C 417 45.2 414.8 44 414.6 41.5 C 414.6 41.5 416.2 41.5 416.2 41.5 C 416.4 43.2 417.9 43.8 419.4 43.8 C 420.9 43.8 422.2 43.3 422.2 42 C 422.2 40.7 420.9 40.4 419.6 40.2 C 417.4 39.8 414.8 39.4 414.8 36.8 C 414.8 34.6 416.8 33.5 419.1 33.5 C 421.5 33.5 423.4 34.6 423.5 36.9 C 423.5 36.9 421.9 36.9 421.9 36.9 C 421.8 35.5 420.5 34.9 419 34.9 C 417.5 34.9 416.4 35.6 416.4 36.7 C 416.4 38.2 417.8 38.4 419.5 38.7 C 421.5 39 423.8 39.3 423.8 41.8 Z M 431.9 39.7 C 431.9 42.5 433.7 43.8 435.7 43.8 C 437.2 43.8 438.6 43.1 439 41.5 C 439 41.5 440.4 41.5 440.4 41.5 C 439.9 44.1 437.7 45.2 435.6 45.2 C 432.9 45.2 430.4 43.4 430.4 39.4 C 430.4 35.3 432.9 33.5 435.6 33.5 C 438.3 33.5 440.5 35.2 440.5 39 C 440.49 38.95 440.5 39.7 440.5 39.7 C 440.5 39.7 431.9 39.71 431.9 39.7 Z M 431.9 38.4 C 431.9 38.4 438.9 38.4 438.9 38.4 C 438.9 36.1 437.5 34.9 435.6 34.9 C 433.8 34.9 432.2 36 431.9 38.4 Z M 452.3 37.3 C 452.27 37.25 452.3 45 452.3 45 L 450.7 45 C 450.7 45 450.74 37.44 450.7 37.4 C 450.7 35.9 449.9 34.9 448.3 34.9 C 446.3 34.9 444.6 36.3 444.6 39.1 C 444.65 39.06 444.6 45 444.6 45 L 443.1 45 L 443.1 33.7 L 444.6 33.7 C 444.6 33.7 444.65 35.8 444.6 35.8 C 445.3 34.5 446.6 33.5 448.6 33.5 C 450.8 33.5 452.3 34.8 452.3 37.3 Z M 462.7 45 L 461.2 45 L 461.2 29 L 462.7 29 L 462.7 45 Z M 473 42.9 C 472.1 44.6 470.4 45.2 469 45.2 C 467.1 45.2 465.4 44.1 465.4 41.9 C 465.4 39.8 466.8 38.8 468.8 38.6 C 468.8 38.6 471.4 38.2 471.4 38.2 C 472.3 38.1 473 37.8 473 36.8 C 473 35.5 471.9 34.8 470.3 34.8 C 468.6 34.8 467.6 35.6 467.3 36.9 C 467.3 36.9 465.8 36.9 465.8 36.9 C 466.1 34.6 467.9 33.5 470.4 33.5 C 473 33.5 474.5 34.7 474.5 37.2 C 474.51 37.19 474.5 45 474.5 45 L 473 45 C 473 45 473.02 42.92 473 42.9 Z M 471.2 39.5 C 471.2 39.5 469.4 39.7 469.4 39.7 C 468 39.9 466.9 40.4 466.9 41.8 C 466.9 43.2 468 43.8 469.3 43.8 C 471 43.8 473 42.5 473 40.1 C 473 40.1 473 39 473 39 C 472.6 39.3 471.9 39.4 471.2 39.5 Z M 486 41.8 C 486 44.1 484 45.2 481.7 45.2 C 479.3 45.2 477.1 44 476.8 41.5 C 476.8 41.5 478.5 41.5 478.5 41.5 C 478.7 43.2 480.2 43.8 481.7 43.8 C 483.2 43.8 484.4 43.3 484.4 42 C 484.4 40.7 483.1 40.4 481.8 40.2 C 479.7 39.8 477.1 39.4 477.1 36.8 C 477.1 34.6 479 33.5 481.3 33.5 C 483.7 33.5 485.6 34.6 485.7 36.9 C 485.7 36.9 484.1 36.9 484.1 36.9 C 484 35.5 482.7 34.9 481.3 34.9 C 479.7 34.9 478.7 35.6 478.7 36.7 C 478.7 38.2 480.1 38.4 481.8 38.7 C 483.8 39 486 39.3 486 41.8 Z M 501.6 49.3 C 501.6 49.3 501.64 42.82 501.6 42.8 C 501 44.1 499.6 45.1 497.7 45.1 C 495.2 45.1 492.7 43.4 492.7 39.2 C 492.7 35.2 495.2 33.5 497.7 33.5 C 499.6 33.5 501.1 34.5 501.7 35.7 C 501.68 35.68 501.7 33.7 501.7 33.7 L 503.2 33.7 L 503.2 49.3 L 501.6 49.3 Z M 501.6 39.3 C 501.6 36.1 499.8 34.9 497.9 34.9 C 496 34.9 494.2 36.1 494.2 39.3 C 494.2 42.4 496 43.7 497.9 43.7 C 499.8 43.7 501.6 42.4 501.6 39.3 Z M 513.8 45 C 513.8 45 513.84 42.84 513.8 42.8 C 513.1 44.4 511.7 45.1 510.1 45.1 C 508 45.1 506.3 43.8 506.3 41.2 C 506.33 41.16 506.3 33.7 506.3 33.7 L 507.9 33.7 C 507.9 33.7 507.86 40.97 507.9 41 C 507.9 42.8 508.9 43.8 510.4 43.8 C 512.2 43.8 513.8 42.4 513.8 39.5 C 513.78 39.54 513.8 33.7 513.8 33.7 L 515.3 33.7 L 515.3 45 L 513.8 45 Z M 519.4 39.7 C 519.5 42.5 521.2 43.8 523.2 43.8 C 524.7 43.8 526.2 43.1 526.5 41.5 C 526.5 41.5 528 41.5 528 41.5 C 527.5 44.1 525.3 45.2 523.1 45.2 C 520.4 45.2 517.9 43.4 517.9 39.4 C 517.9 35.3 520.5 33.5 523.2 33.5 C 525.9 33.5 528 35.2 528 39 C 528.04 38.95 528 39.7 528 39.7 C 528 39.7 519.45 39.71 519.4 39.7 Z M 519.5 38.4 C 519.5 38.4 526.5 38.4 526.5 38.4 C 526.5 36.1 525 34.9 523.1 34.9 C 521.4 34.9 519.7 36 519.5 38.4 Z M 537.6 29 L 535.8 29 L 535.8 30.9 L 537.6 30.9 L 537.6 29 Z M 537.4 45 L 535.9 45 L 535.9 33.7 L 537.4 33.7 L 537.4 45 Z M 550 37.3 C 549.96 37.25 550 45 550 45 L 548.4 45 C 548.4 45 548.43 37.44 548.4 37.4 C 548.4 35.9 547.5 34.9 546 34.9 C 544 34.9 542.3 36.3 542.3 39.1 C 542.34 39.06 542.3 45 542.3 45 L 540.8 45 L 540.8 33.7 L 542.3 33.7 C 542.3 33.7 542.34 35.8 542.3 35.8 C 543 34.5 544.3 33.5 546.2 33.5 C 548.5 33.5 550 34.8 550 37.3 Z M 557.7 45 L 556 45 L 551.9 33.7 L 553.5 33.7 L 556.9 43.4 L 560.3 33.7 L 561.9 33.7 L 557.7 45 Z M 564.5 39.7 C 564.5 42.5 566.2 43.8 568.2 43.8 C 569.7 43.8 571.2 43.1 571.5 41.5 C 571.5 41.5 573 41.5 573 41.5 C 572.5 44.1 570.3 45.2 568.1 45.2 C 565.4 45.2 562.9 43.4 562.9 39.4 C 562.9 35.3 565.5 33.5 568.2 33.5 C 570.9 33.5 573 35.2 573 39 C 573.04 38.95 573 39.7 573 39.7 C 573 39.7 564.45 39.71 564.5 39.7 Z M 564.5 38.4 C 564.5 38.4 571.5 38.4 571.5 38.4 C 571.5 36.1 570 34.9 568.1 34.9 C 566.4 34.9 564.7 36 564.5 38.4 Z M 581.3 35 C 581.3 35 580.94 35.03 580.9 35 C 578.5 35 577.2 36.4 577.2 39 C 577.2 39 577.2 45 577.2 45 L 575.7 45 L 575.7 33.7 L 577.2 33.7 C 577.2 33.7 577.18 35.78 577.2 35.8 C 577.7 34.3 579.1 33.6 580.8 33.6 C 580.81 33.58 581.3 33.6 581.3 33.6 L 581.3 35 Z M 588.9 45 C 588.9 45 587.2 44.98 587.2 45 C 585.7 45 584.4 44.5 584.4 42 C 584.36 42.02 584.4 35.1 584.4 35.1 L 582.1 35.1 L 582.1 33.7 L 584.4 33.7 L 584.4 30.5 L 585.9 30.1 L 585.9 33.7 L 588.6 33.7 L 588.6 35.1 L 585.9 35.1 C 585.9 35.1 585.89 42 585.9 42 C 585.9 43 586.2 43.6 587.4 43.6 C 587.45 43.6 588.9 43.6 588.9 43.6 L 588.9 45 Z M 592.7 29 L 591 29 L 591 30.9 L 592.7 30.9 L 592.7 29 Z M 592.6 45 L 591.1 45 L 591.1 33.7 L 592.6 33.7 L 592.6 45 Z M 596 33.7 L 597.5 33.7 C 597.5 33.7 597.46 35.57 597.5 35.6 C 598.1 34.2 599.3 33.5 600.7 33.5 C 602.4 33.5 603.7 34.4 604.1 35.8 C 604.6 34.6 605.8 33.5 607.8 33.5 C 609.8 33.5 611.4 34.6 611.4 36.9 C 611.43 36.9 611.4 45 611.4 45 L 609.9 45 C 609.9 45 609.9 37.44 609.9 37.4 C 609.9 35.7 608.8 34.9 607.5 34.9 C 605.8 34.9 604.4 36.2 604.4 38.5 C 604.44 38.53 604.4 45 604.4 45 L 602.9 45 C 602.9 45 602.92 37.44 602.9 37.4 C 602.9 35.7 601.9 34.9 600.6 34.9 C 598.9 34.9 597.5 36.1 597.5 38.5 C 597.48 38.53 597.5 45 597.5 45 L 596 45 L 596 33.7 Z M 613.9 39.4 C 613.9 35.7 616.2 33.5 619.3 33.5 C 622.4 33.5 624.6 35.7 624.6 39.4 C 624.6 43 622.4 45.2 619.3 45.2 C 616.2 45.2 613.9 43 613.9 39.4 Z M 623.1 39.3 C 623.1 36.5 621.4 34.9 619.3 34.9 C 617.1 34.9 615.5 36.6 615.5 39.4 C 615.5 42.2 617.2 43.8 619.3 43.8 C 621.5 43.8 623.1 42.1 623.1 39.3 Z M 635.6 41.8 C 635.6 44.1 633.6 45.2 631.3 45.2 C 628.9 45.2 626.7 44 626.4 41.5 C 626.4 41.5 628.1 41.5 628.1 41.5 C 628.3 43.2 629.8 43.8 631.3 43.8 C 632.8 43.8 634 43.3 634 42 C 634 40.7 632.7 40.4 631.4 40.2 C 629.3 39.8 626.7 39.4 626.7 36.8 C 626.7 34.6 628.6 33.5 630.9 33.5 C 633.3 33.5 635.2 34.6 635.3 36.9 C 635.3 36.9 633.8 36.9 633.8 36.9 C 633.6 35.5 632.3 34.9 630.9 34.9 C 629.3 34.9 628.3 35.6 628.3 36.7 C 628.3 38.2 629.7 38.4 631.4 38.7 C 633.4 39 635.6 39.3 635.6 41.8 Z M 639.3 44.9 C 639.25 44.86 638.2 44.9 638.2 44.9 L 638.2 42.8 L 640.5 42.8 C 640.5 42.8 640.47 44.92 640.5 44.9 C 640.5 47.4 639 48.3 637.4 48.4 C 637.4 48.4 637.2 47.5 637.2 47.5 C 638.9 47.2 639.3 46.2 639.3 44.9 Z M 656.1 41.8 C 656.1 44.1 654 45.2 651.7 45.2 C 649.3 45.2 647.1 44 646.9 41.5 C 646.9 41.5 648.5 41.5 648.5 41.5 C 648.8 43.2 650.2 43.8 651.8 43.8 C 653.2 43.8 654.5 43.3 654.5 42 C 654.5 40.7 653.2 40.4 651.9 40.2 C 649.7 39.8 647.1 39.4 647.1 36.8 C 647.1 34.6 649.1 33.5 651.4 33.5 C 653.8 33.5 655.7 34.6 655.8 36.9 C 655.8 36.9 654.2 36.9 654.2 36.9 C 654.1 35.5 652.8 34.9 651.3 34.9 C 649.8 34.9 648.7 35.6 648.7 36.7 C 648.7 38.2 650.1 38.4 651.8 38.7 C 653.8 39 656.1 39.3 656.1 41.8 Z M 657.9 39.4 C 657.9 35.7 660.1 33.5 663.2 33.5 C 666.3 33.5 668.6 35.7 668.6 39.4 C 668.6 43 666.3 45.2 663.2 45.2 C 660.1 45.2 657.9 43 657.9 39.4 Z M 667 39.3 C 667 36.5 665.3 34.9 663.2 34.9 C 661 34.9 659.5 36.6 659.5 39.4 C 659.5 42.2 661.2 43.8 663.3 43.8 C 665.4 43.8 667 42.1 667 39.3 Z M 671.2 33.7 L 672.7 33.7 C 672.7 33.7 672.71 35.57 672.7 35.6 C 673.3 34.2 674.6 33.5 676 33.5 C 677.6 33.5 679 34.4 679.3 35.8 C 679.8 34.6 681.1 33.5 683 33.5 C 685.1 33.5 686.7 34.6 686.7 36.9 C 686.67 36.9 686.7 45 686.7 45 L 685.1 45 C 685.1 45 685.14 37.44 685.1 37.4 C 685.1 35.7 684.1 34.9 682.7 34.9 C 681.1 34.9 679.7 36.2 679.7 38.5 C 679.68 38.53 679.7 45 679.7 45 L 678.2 45 C 678.2 45 678.17 37.44 678.2 37.4 C 678.2 35.7 677.1 34.9 675.8 34.9 C 674.1 34.9 672.7 36.1 672.7 38.5 C 672.73 38.53 672.7 45 672.7 45 L 671.2 45 L 671.2 33.7 Z M 689.2 39.4 C 689.2 35.7 691.4 33.5 694.5 33.5 C 697.6 33.5 699.9 35.7 699.9 39.4 C 699.9 43 697.7 45.2 694.5 45.2 C 691.4 45.2 689.2 43 689.2 39.4 Z M 698.3 39.3 C 698.3 36.5 696.6 34.9 694.5 34.9 C 692.3 34.9 690.8 36.6 690.8 39.4 C 690.8 42.2 692.5 43.8 694.6 43.8 C 696.8 43.8 698.3 42.1 698.3 39.3 Z M 710.9 41.8 C 710.9 44.1 708.8 45.2 706.5 45.2 C 704.1 45.2 701.9 44 701.7 41.5 C 701.7 41.5 703.3 41.5 703.3 41.5 C 703.6 43.2 705 43.8 706.6 43.8 C 708 43.8 709.3 43.3 709.3 42 C 709.3 40.7 708 40.4 706.7 40.2 C 704.5 39.8 701.9 39.4 701.9 36.8 C 701.9 34.6 703.9 33.5 706.2 33.5 C 708.6 33.5 710.5 34.6 710.6 36.9 C 710.6 36.9 709 36.9 709 36.9 C 708.9 35.5 707.6 34.9 706.1 34.9 C 704.6 34.9 703.5 35.6 703.5 36.7 C 703.5 38.2 704.9 38.4 706.6 38.7 C 708.6 39 710.9 39.3 710.9 41.8 Z M 722.7 45.2 C 719.6 45.2 717.5 42.9 717.5 39.4 C 717.5 35.8 719.6 33.5 722.9 33.5 C 725.4 33.5 727.3 34.9 727.5 37.4 C 727.5 37.4 726 37.4 726 37.4 C 725.9 35.8 724.5 34.9 722.8 34.9 C 720.6 34.9 719.1 36.6 719.1 39.3 C 719.1 42.1 720.6 43.8 722.8 43.8 C 724.5 43.8 725.9 42.8 726 41 C 726 41 727.5 41 727.5 41 C 727.3 43.7 725.2 45.2 722.7 45.2 Z M 737.1 42.9 C 736.2 44.6 734.5 45.2 733.1 45.2 C 731.1 45.2 729.4 44.1 729.4 41.9 C 729.4 39.8 730.9 38.8 732.8 38.6 C 732.8 38.6 735.5 38.2 735.5 38.2 C 736.3 38.1 737.1 37.8 737.1 36.8 C 737.1 35.5 735.9 34.8 734.3 34.8 C 732.6 34.8 731.6 35.6 731.4 36.9 C 731.4 36.9 729.8 36.9 729.8 36.9 C 730.2 34.6 732 33.5 734.4 33.5 C 737 33.5 738.6 34.7 738.6 37.2 C 738.56 37.19 738.6 45 738.6 45 L 737.1 45 C 737.1 45 737.07 42.92 737.1 42.9 Z M 735.2 39.5 C 735.2 39.5 733.5 39.7 733.5 39.7 C 732.1 39.9 731 40.4 731 41.8 C 731 43.2 732.1 43.8 733.3 43.8 C 735.1 43.8 737 42.5 737 40.1 C 737 40.1 737 39 737 39 C 736.6 39.3 736 39.4 735.2 39.5 Z M 752.2 39.3 C 752.2 43.4 749.7 45.1 747.1 45.1 C 745.1 45.1 743.9 44.2 743.2 43 C 743.25 43.03 743.2 49.3 743.2 49.3 L 741.7 49.3 L 741.7 33.7 L 743.2 33.7 C 743.2 33.7 743.2 36.08 743.2 36.1 C 743.7 34.7 745.2 33.5 747.2 33.5 C 749.7 33.5 752.2 35.2 752.2 39.3 Z M 750.7 39.3 C 750.7 36.2 748.9 35 747 35 C 745.1 35 743.3 36.2 743.3 39.4 C 743.3 42.5 745.1 43.7 747 43.7 C 748.8 43.7 750.7 42.5 750.7 39.3 Z M 761.8 42.9 C 760.9 44.6 759.2 45.2 757.8 45.2 C 755.8 45.2 754.1 44.1 754.1 41.9 C 754.1 39.8 755.6 38.8 757.5 38.6 C 757.5 38.6 760.2 38.2 760.2 38.2 C 761.1 38.1 761.8 37.8 761.8 36.8 C 761.8 35.5 760.6 34.8 759.1 34.8 C 757.4 34.8 756.3 35.6 756.1 36.9 C 756.1 36.9 754.6 36.9 754.6 36.9 C 754.9 34.6 756.7 33.5 759.2 33.5 C 761.7 33.5 763.3 34.7 763.3 37.2 C 763.28 37.19 763.3 45 763.3 45 L 761.8 45 C 761.8 45 761.79 42.92 761.8 42.9 Z M 759.9 39.5 C 759.9 39.5 758.2 39.7 758.2 39.7 C 756.8 39.9 755.7 40.4 755.7 41.8 C 755.7 43.2 756.8 43.8 758 43.8 C 759.8 43.8 761.7 42.5 761.7 40.1 C 761.7 40.1 761.7 39 761.7 39 C 761.3 39.3 760.7 39.4 759.9 39.5 Z M 770.9 45.2 C 767.8 45.2 765.7 42.9 765.7 39.4 C 765.7 35.8 767.8 33.5 771 33.5 C 773.5 33.5 775.5 34.9 775.7 37.4 C 775.7 37.4 774.2 37.4 774.2 37.4 C 774.1 35.8 772.7 34.9 771 34.9 C 768.8 34.9 767.2 36.6 767.2 39.3 C 767.2 42.1 768.8 43.8 771 43.8 C 772.7 43.8 774.1 42.8 774.2 41 C 774.2 41 775.7 41 775.7 41 C 775.5 43.7 773.4 45.2 770.9 45.2 Z M 779.1 39.7 C 779.2 42.5 780.9 43.8 782.9 43.8 C 784.4 43.8 785.8 43.1 786.2 41.5 C 786.2 41.5 787.6 41.5 787.6 41.5 C 787.1 44.1 784.9 45.2 782.8 45.2 C 780.1 45.2 777.6 43.4 777.6 39.4 C 777.6 35.3 780.1 33.5 782.9 33.5 C 785.5 33.5 787.7 35.2 787.7 39 C 787.7 38.95 787.7 39.7 787.7 39.7 C 787.7 39.7 779.11 39.71 779.1 39.7 Z M 779.2 38.4 C 779.2 38.4 786.1 38.4 786.1 38.4 C 786.1 36.1 784.7 34.9 782.8 34.9 C 781 34.9 779.4 36 779.2 38.4 Z M 798.7 41.8 C 798.7 44.1 796.6 45.2 794.4 45.2 C 791.9 45.2 789.7 44 789.5 41.5 C 789.5 41.5 791.1 41.5 791.1 41.5 C 791.4 43.2 792.8 43.8 794.4 43.8 C 795.8 43.8 797.1 43.3 797.1 42 C 797.1 40.7 795.8 40.4 794.5 40.2 C 792.3 39.8 789.8 39.4 789.8 36.8 C 789.8 34.6 791.7 33.5 794 33.5 C 796.4 33.5 798.3 34.6 798.4 36.9 C 798.4 36.9 796.8 36.9 796.8 36.9 C 796.7 35.5 795.4 34.9 793.9 34.9 C 792.4 34.9 791.4 35.6 791.4 36.7 C 791.4 38.2 792.7 38.4 794.4 38.7 C 796.5 39 798.7 39.3 798.7 41.8 Z M 815.9 45 L 814.4 45 C 814.4 45 814.39 42.8 814.4 42.8 C 813.8 44.1 812.5 45.2 810.4 45.2 C 807.4 45.2 805.3 42.9 805.3 39.3 C 805.3 35.8 807.4 33.5 810.4 33.5 C 812.3 33.5 813.7 34.4 814.3 35.6 C 814.33 35.62 814.3 29 814.3 29 L 815.9 29 L 815.9 45 Z M 814.3 39.3 C 814.3 36.5 812.8 34.9 810.6 34.9 C 808.4 34.9 806.9 36.6 806.9 39.3 C 806.9 42.1 808.4 43.8 810.6 43.8 C 812.8 43.8 814.3 42.1 814.3 39.3 Z M 820 39.7 C 820 42.5 821.8 43.8 823.8 43.8 C 825.2 43.8 826.7 43.1 827.1 41.5 C 827.1 41.5 828.5 41.5 828.5 41.5 C 828 44.1 825.8 45.2 823.7 45.2 C 821 45.2 818.5 43.4 818.5 39.4 C 818.5 35.3 821 33.5 823.7 33.5 C 826.4 33.5 828.6 35.2 828.6 39 C 828.59 38.95 828.6 39.7 828.6 39.7 C 828.6 39.7 820 39.71 820 39.7 Z M 820 38.4 C 820 38.4 827 38.4 827 38.4 C 827 36.1 825.6 34.9 823.7 34.9 C 821.9 34.9 820.3 36 820 38.4 Z " stroke="none" fill="#fff"/>  </g>  <g id="Polygon12010">    <path d="M 13.7 19.8 L 12.1 19.8 L 12.1 12.6 L 3.5 12.6 L 3.5 19.8 L 1.9 19.8 L 1.9 4 L 3.5 4 L 3.5 11.1 L 12.1 11.1 L 12.1 4 L 13.7 4 L 13.7 19.8 Z M 18.1 14.5 C 18.1 17.3 19.8 18.6 21.8 18.6 C 23.3 18.6 24.8 17.9 25.1 16.3 C 25.1 16.3 26.6 16.3 26.6 16.3 C 26.1 18.9 23.9 20 21.7 20 C 19 20 16.5 18.2 16.5 14.2 C 16.5 10.1 19.1 8.3 21.8 8.3 C 24.5 8.3 26.6 10 26.6 13.8 C 26.65 13.75 26.6 14.5 26.6 14.5 C 26.6 14.5 18.06 14.51 18.1 14.5 Z M 18.1 13.2 C 18.1 13.2 25.1 13.2 25.1 13.2 C 25.1 10.9 23.6 9.7 21.7 9.7 C 20 9.7 18.3 10.8 18.1 13.2 Z M 29.3 8.5 L 30.8 8.5 C 30.8 8.5 30.79 10.37 30.8 10.4 C 31.4 9 32.6 8.3 34.1 8.3 C 35.7 8.3 37 9.2 37.4 10.6 C 37.9 9.4 39.1 8.3 41.1 8.3 C 43.1 8.3 44.8 9.4 44.8 11.7 C 44.75 11.7 44.8 19.8 44.8 19.8 L 43.2 19.8 C 43.2 19.8 43.22 12.24 43.2 12.2 C 43.2 10.5 42.1 9.7 40.8 9.7 C 39.1 9.7 37.8 11 37.8 13.3 C 37.76 13.33 37.8 19.8 37.8 19.8 L 36.2 19.8 C 36.2 19.8 36.25 12.24 36.2 12.2 C 36.2 10.5 35.2 9.7 33.9 9.7 C 32.2 9.7 30.8 10.9 30.8 13.3 C 30.81 13.33 30.8 19.8 30.8 19.8 L 29.3 19.8 L 29.3 8.5 Z M 47.3 14.2 C 47.3 10.5 49.5 8.3 52.6 8.3 C 55.7 8.3 58 10.5 58 14.2 C 58 17.8 55.7 20 52.6 20 C 49.5 20 47.3 17.8 47.3 14.2 Z M 56.4 14.1 C 56.4 11.3 54.7 9.7 52.6 9.7 C 50.4 9.7 48.8 11.4 48.8 14.2 C 48.8 17 50.5 18.6 52.6 18.6 C 54.8 18.6 56.4 16.9 56.4 14.1 Z M 69 16.6 C 69 18.9 66.9 20 64.6 20 C 62.2 20 60 18.8 59.7 16.3 C 59.7 16.3 61.4 16.3 61.4 16.3 C 61.6 18 63.1 18.6 64.6 18.6 C 66.1 18.6 67.4 18.1 67.4 16.8 C 67.4 15.5 66.1 15.2 64.7 15 C 62.6 14.6 60 14.2 60 11.6 C 60 9.4 61.9 8.3 64.3 8.3 C 66.7 8.3 68.5 9.4 68.7 11.7 C 68.7 11.7 67.1 11.7 67.1 11.7 C 67 10.3 65.7 9.7 64.2 9.7 C 62.7 9.7 61.6 10.4 61.6 11.5 C 61.6 13 63 13.2 64.7 13.5 C 66.7 13.8 69 14.1 69 16.6 Z M 75.6 14.2 C 75.6 10.5 77.8 8.3 80.9 8.3 C 84 8.3 86.3 10.5 86.3 14.2 C 86.3 17.8 84 20 80.9 20 C 77.8 20 75.6 17.8 75.6 14.2 Z M 84.7 14.1 C 84.7 11.3 83 9.7 80.9 9.7 C 78.7 9.7 77.2 11.4 77.2 14.2 C 77.2 17 78.9 18.6 81 18.6 C 83.1 18.6 84.7 16.9 84.7 14.1 Z M 99.4 14.1 C 99.4 17.6 97.3 20 94.3 20 C 92.3 20 91 18.9 90.4 17.7 C 90.36 17.7 90.4 19.8 90.4 19.8 L 88.9 19.8 L 88.9 3.8 L 90.4 3.8 C 90.4 3.8 90.43 10.77 90.4 10.8 C 91 9.4 92.4 8.3 94.5 8.3 C 97.3 8.3 99.4 10.5 99.4 14.1 Z M 97.9 14.2 C 97.9 11.4 96.4 9.8 94.2 9.8 C 92 9.8 90.4 11.4 90.4 14.2 C 90.4 17 92 18.7 94.1 18.7 C 96.3 18.7 97.9 16.9 97.9 14.2 Z M 110.4 16.6 C 110.4 18.9 108.3 20 106.1 20 C 103.7 20 101.4 18.8 101.2 16.3 C 101.2 16.3 102.8 16.3 102.8 16.3 C 103.1 18 104.6 18.6 106.1 18.6 C 107.5 18.6 108.8 18.1 108.8 16.8 C 108.8 15.5 107.5 15.2 106.2 15 C 104 14.6 101.5 14.2 101.5 11.6 C 101.5 9.4 103.4 8.3 105.7 8.3 C 108.1 8.3 110 9.4 110.1 11.7 C 110.1 11.7 108.5 11.7 108.5 11.7 C 108.4 10.3 107.1 9.7 105.7 9.7 C 104.1 9.7 103.1 10.4 103.1 11.5 C 103.1 13 104.4 13.2 106.1 13.5 C 108.2 13.8 110.4 14.1 110.4 16.6 Z M 113.7 14.5 C 113.8 17.3 115.5 18.6 117.5 18.6 C 119 18.6 120.4 17.9 120.8 16.3 C 120.8 16.3 122.2 16.3 122.2 16.3 C 121.7 18.9 119.5 20 117.4 20 C 114.7 20 112.2 18.2 112.2 14.2 C 112.2 10.1 114.7 8.3 117.5 8.3 C 120.1 8.3 122.3 10 122.3 13.8 C 122.3 13.75 122.3 14.5 122.3 14.5 C 122.3 14.5 113.71 14.51 113.7 14.5 Z M 113.8 13.2 C 113.8 13.2 120.7 13.2 120.7 13.2 C 120.7 10.9 119.3 9.7 117.4 9.7 C 115.6 9.7 114 10.8 113.8 13.2 Z M 130.6 9.8 C 130.6 9.8 130.2 9.83 130.2 9.8 C 127.8 9.8 126.5 11.2 126.5 13.8 C 126.46 13.8 126.5 19.8 126.5 19.8 L 124.9 19.8 L 124.9 8.5 L 126.4 8.5 C 126.4 8.5 126.44 10.58 126.4 10.6 C 127 9.1 128.3 8.4 130.1 8.4 C 130.07 8.38 130.6 8.4 130.6 8.4 L 130.6 9.8 Z M 137.4 19.8 L 135.8 19.8 L 131.6 8.5 L 133.3 8.5 L 136.6 18.2 L 140 8.5 L 141.6 8.5 L 137.4 19.8 Z M 150.4 17.7 C 149.5 19.4 147.8 20 146.3 20 C 144.4 20 142.7 18.9 142.7 16.7 C 142.7 14.6 144.2 13.6 146.1 13.4 C 146.1 13.4 148.8 13 148.8 13 C 149.6 12.9 150.4 12.6 150.4 11.6 C 150.4 10.3 149.2 9.6 147.6 9.6 C 145.9 9.6 144.9 10.4 144.7 11.7 C 144.7 11.7 143.1 11.7 143.1 11.7 C 143.5 9.4 145.3 8.3 147.7 8.3 C 150.3 8.3 151.9 9.5 151.9 12 C 151.85 11.99 151.9 19.8 151.9 19.8 L 150.4 19.8 C 150.4 19.8 150.36 17.72 150.4 17.7 Z M 148.5 14.3 C 148.5 14.3 146.8 14.5 146.8 14.5 C 145.3 14.7 144.3 15.2 144.3 16.6 C 144.3 18 145.4 18.6 146.6 18.6 C 148.4 18.6 150.3 17.3 150.3 14.9 C 150.3 14.9 150.3 13.8 150.3 13.8 C 149.9 14.1 149.2 14.2 148.5 14.3 Z M 164.8 19.8 L 163.3 19.8 C 163.3 19.8 163.34 17.6 163.3 17.6 C 162.8 18.9 161.4 20 159.3 20 C 156.4 20 154.3 17.7 154.3 14.1 C 154.3 10.6 156.4 8.3 159.3 8.3 C 161.3 8.3 162.7 9.2 163.3 10.4 C 163.27 10.42 163.3 3.8 163.3 3.8 L 164.8 3.8 L 164.8 19.8 Z M 163.3 14.1 C 163.3 11.3 161.7 9.7 159.5 9.7 C 157.3 9.7 155.8 11.4 155.8 14.1 C 155.8 16.9 157.4 18.6 159.5 18.6 C 161.7 18.6 163.3 16.9 163.3 14.1 Z M 167.4 14.2 C 167.4 10.5 169.7 8.3 172.8 8.3 C 175.9 8.3 178.1 10.5 178.1 14.2 C 178.1 17.8 175.9 20 172.8 20 C 169.7 20 167.4 17.8 167.4 14.2 Z M 176.5 14.1 C 176.5 11.3 174.8 9.7 172.7 9.7 C 170.5 9.7 169 11.4 169 14.2 C 169 17 170.7 18.6 172.8 18.6 C 175 18.6 176.5 16.9 176.5 14.1 Z M 193.8 24.1 C 193.8 24.1 193.83 17.62 193.8 17.6 C 193.2 18.9 191.8 19.9 189.9 19.9 C 187.4 19.9 184.8 18.2 184.8 14 C 184.8 10 187.4 8.3 189.9 8.3 C 191.8 8.3 193.3 9.3 193.9 10.5 C 193.87 10.48 193.9 8.5 193.9 8.5 L 195.4 8.5 L 195.4 24.1 L 193.8 24.1 Z M 193.8 14.1 C 193.8 10.9 191.9 9.7 190.1 9.7 C 188.2 9.7 186.4 10.9 186.4 14.1 C 186.4 17.2 188.2 18.5 190.1 18.5 C 191.9 18.5 193.8 17.2 193.8 14.1 Z M 206 19.8 C 206 19.8 206.03 17.64 206 17.6 C 205.3 19.2 203.9 19.9 202.3 19.9 C 200.2 19.9 198.5 18.6 198.5 16 C 198.51 15.96 198.5 8.5 198.5 8.5 L 200 8.5 C 200 8.5 200.05 15.77 200 15.8 C 200 17.6 201.1 18.6 202.5 18.6 C 204.4 18.6 206 17.2 206 14.3 C 205.97 14.34 206 8.5 206 8.5 L 207.5 8.5 L 207.5 19.8 L 206 19.8 Z M 211.6 14.5 C 211.7 17.3 213.4 18.6 215.4 18.6 C 216.9 18.6 218.4 17.9 218.7 16.3 C 218.7 16.3 220.1 16.3 220.1 16.3 C 219.6 18.9 217.5 20 215.3 20 C 212.6 20 210.1 18.2 210.1 14.2 C 210.1 10.1 212.7 8.3 215.4 8.3 C 218 8.3 220.2 10 220.2 13.8 C 220.23 13.75 220.2 14.5 220.2 14.5 C 220.2 14.5 211.64 14.51 211.6 14.5 Z M 211.7 13.2 C 211.7 13.2 218.7 13.2 218.7 13.2 C 218.7 10.9 217.2 9.7 215.3 9.7 C 213.5 9.7 211.9 10.8 211.7 13.2 Z M 223.9 19.7 C 223.94 19.66 222.9 19.7 222.9 19.7 L 222.9 17.6 L 225.2 17.6 C 225.2 17.6 225.16 19.72 225.2 19.7 C 225.2 22.2 223.7 23.1 222.1 23.2 C 222.1 23.2 221.9 22.3 221.9 22.3 C 223.6 22 223.9 21 223.9 19.7 Z M 236.9 20 C 233.8 20 231.7 17.7 231.7 14.2 C 231.7 10.6 233.8 8.3 237 8.3 C 239.5 8.3 241.5 9.7 241.7 12.2 C 241.7 12.2 240.2 12.2 240.2 12.2 C 240 10.6 238.6 9.7 237 9.7 C 234.8 9.7 233.2 11.4 233.2 14.1 C 233.2 16.9 234.8 18.6 237 18.6 C 238.7 18.6 240.1 17.6 240.2 15.8 C 240.2 15.8 241.7 15.8 241.7 15.8 C 241.5 18.5 239.4 20 236.9 20 Z M 243.6 14.2 C 243.6 10.5 245.8 8.3 248.9 8.3 C 252 8.3 254.3 10.5 254.3 14.2 C 254.3 17.8 252 20 248.9 20 C 245.8 20 243.6 17.8 243.6 14.2 Z M 252.7 14.1 C 252.7 11.3 251 9.7 248.9 9.7 C 246.7 9.7 245.2 11.4 245.2 14.2 C 245.2 17 246.9 18.6 249 18.6 C 251.1 18.6 252.7 16.9 252.7 14.1 Z M 266 12.1 C 266.05 12.05 266 19.8 266 19.8 L 264.5 19.8 C 264.5 19.8 264.51 12.24 264.5 12.2 C 264.5 10.7 263.6 9.7 262 9.7 C 260.1 9.7 258.4 11.1 258.4 13.9 C 258.42 13.86 258.4 19.8 258.4 19.8 L 256.9 19.8 L 256.9 8.5 L 258.4 8.5 C 258.4 8.5 258.42 10.6 258.4 10.6 C 259.1 9.3 260.4 8.3 262.3 8.3 C 264.6 8.3 266 9.6 266 12.1 Z M 282.4 19.8 C 282.4 19.8 282.39 17.64 282.4 17.6 C 281.6 19.2 280.2 19.9 278.6 19.9 C 276.5 19.9 274.9 18.6 274.9 16 C 274.87 15.96 274.9 8.5 274.9 8.5 L 276.4 8.5 C 276.4 8.5 276.4 15.77 276.4 15.8 C 276.4 17.6 277.4 18.6 278.9 18.6 C 280.7 18.6 282.3 17.2 282.3 14.3 C 282.32 14.34 282.3 8.5 282.3 8.5 L 283.9 8.5 L 283.9 19.8 L 282.4 19.8 Z M 296.4 12.1 C 296.37 12.05 296.4 19.8 296.4 19.8 L 294.8 19.8 C 294.8 19.8 294.84 12.24 294.8 12.2 C 294.8 10.7 294 9.7 292.4 9.7 C 290.4 9.7 288.7 11.1 288.7 13.9 C 288.75 13.86 288.7 19.8 288.7 19.8 L 287.2 19.8 L 287.2 8.5 L 288.7 8.5 C 288.7 8.5 288.75 10.6 288.7 10.6 C 289.4 9.3 290.7 8.3 292.7 8.3 C 294.9 8.3 296.4 9.6 296.4 12.1 Z M 313.3 16.6 C 313.3 18.9 311.2 20 308.9 20 C 306.5 20 304.3 18.8 304 16.3 C 304 16.3 305.7 16.3 305.7 16.3 C 305.9 18 307.4 18.6 308.9 18.6 C 310.4 18.6 311.7 18.1 311.7 16.8 C 311.7 15.5 310.4 15.2 309 15 C 306.9 14.6 304.3 14.2 304.3 11.6 C 304.3 9.4 306.2 8.3 308.6 8.3 C 310.9 8.3 312.8 9.4 313 11.7 C 313 11.7 311.4 11.7 311.4 11.7 C 311.3 10.3 310 9.7 308.5 9.7 C 307 9.7 305.9 10.4 305.9 11.5 C 305.9 13 307.3 13.2 309 13.5 C 311 13.8 313.3 14.1 313.3 16.6 Z M 316.6 14.5 C 316.6 17.3 318.3 18.6 320.3 18.6 C 321.8 18.6 323.3 17.9 323.6 16.3 C 323.6 16.3 325.1 16.3 325.1 16.3 C 324.6 18.9 322.4 20 320.2 20 C 317.5 20 315 18.2 315 14.2 C 315 10.1 317.6 8.3 320.3 8.3 C 323 8.3 325.1 10 325.1 13.8 C 325.14 13.75 325.1 14.5 325.1 14.5 C 325.1 14.5 316.55 14.51 316.6 14.5 Z M 316.6 13.2 C 316.6 13.2 323.6 13.2 323.6 13.2 C 323.6 10.9 322.1 9.7 320.2 9.7 C 318.5 9.7 316.8 10.8 316.6 13.2 Z M 336.1 16.6 C 336.1 18.9 334.1 20 331.8 20 C 329.4 20 327.2 18.8 326.9 16.3 C 326.9 16.3 328.6 16.3 328.6 16.3 C 328.8 18 330.3 18.6 331.8 18.6 C 333.3 18.6 334.5 18.1 334.5 16.8 C 334.5 15.5 333.2 15.2 331.9 15 C 329.8 14.6 327.2 14.2 327.2 11.6 C 327.2 9.4 329.1 8.3 331.4 8.3 C 333.8 8.3 335.7 9.4 335.9 11.7 C 335.9 11.7 334.3 11.7 334.3 11.7 C 334.1 10.3 332.8 9.7 331.4 9.7 C 329.8 9.7 328.8 10.4 328.8 11.5 C 328.8 13 330.2 13.2 331.9 13.5 C 333.9 13.8 336.1 14.1 336.1 16.6 Z M 348.4 19.3 C 348.4 22.7 346.2 24.4 343.3 24.4 C 340.8 24.4 338.5 23.1 338.2 20.5 C 338.2 20.5 339.7 20.5 339.7 20.5 C 340 21.9 341 23.1 343.3 23.1 C 345.3 23.1 346.9 22 346.9 19.4 C 346.9 19.4 346.9 17.1 346.9 17.1 C 346.1 18.8 344.4 19.4 342.9 19.4 C 340.2 19.4 337.9 17.5 337.9 13.8 C 337.9 10.1 340.3 8.3 343 8.3 C 344.8 8.3 346.2 9.1 346.9 10.3 C 346.85 10.33 346.9 8.5 346.9 8.5 L 348.4 8.5 C 348.4 8.5 348.37 19.28 348.4 19.3 Z M 346.8 13.8 C 346.8 11 345.1 9.6 343.2 9.6 C 341.2 9.6 339.4 11 339.4 13.8 C 339.4 16.6 341.2 18 343.2 18 C 345 18 346.8 16.8 346.8 13.8 Z M 350.9 14.2 C 350.9 10.5 353.1 8.3 356.2 8.3 C 359.3 8.3 361.6 10.5 361.6 14.2 C 361.6 17.8 359.3 20 356.2 20 C 353.1 20 350.9 17.8 350.9 14.2 Z M 360 14.1 C 360 11.3 358.3 9.7 356.2 9.7 C 354 9.7 352.5 11.4 352.5 14.2 C 352.5 17 354.2 18.6 356.3 18.6 C 358.4 18.6 360 16.9 360 14.1 Z M 378.6 12.1 C 378.61 12.05 378.6 19.8 378.6 19.8 L 377.1 19.8 C 377.1 19.8 377.07 12.24 377.1 12.2 C 377.1 10.7 376.2 9.7 374.6 9.7 C 372.7 9.7 371 11.1 371 13.9 C 370.98 13.86 371 19.8 371 19.8 L 369.5 19.8 L 369.5 3.8 L 371 3.8 C 371 3.8 370.98 10.48 371 10.5 C 371.6 9.2 372.9 8.3 374.8 8.3 C 377.2 8.3 378.6 9.6 378.6 12.1 Z M 388.8 17.7 C 387.9 19.4 386.2 20 384.8 20 C 382.8 20 381.1 18.9 381.1 16.7 C 381.1 14.6 382.6 13.6 384.5 13.4 C 384.5 13.4 387.2 13 387.2 13 C 388.1 12.9 388.8 12.6 388.8 11.6 C 388.8 10.3 387.6 9.6 386.1 9.6 C 384.4 9.6 383.3 10.4 383.1 11.7 C 383.1 11.7 381.6 11.7 381.6 11.7 C 381.9 9.4 383.7 8.3 386.2 8.3 C 388.7 8.3 390.3 9.5 390.3 12 C 390.28 11.99 390.3 19.8 390.3 19.8 L 388.8 19.8 C 388.8 19.8 388.79 17.72 388.8 17.7 Z M 386.9 14.3 C 386.9 14.3 385.2 14.5 385.2 14.5 C 383.8 14.7 382.7 15.2 382.7 16.6 C 382.7 18 383.8 18.6 385 18.6 C 386.8 18.6 388.7 17.3 388.7 14.9 C 388.7 14.9 388.7 13.8 388.7 13.8 C 388.3 14.1 387.7 14.2 386.9 14.3 Z M 397.9 20 C 394.8 20 392.7 17.7 392.7 14.2 C 392.7 10.6 394.8 8.3 398.1 8.3 C 400.6 8.3 402.5 9.7 402.7 12.2 C 402.7 12.2 401.2 12.2 401.2 12.2 C 401.1 10.6 399.7 9.7 398 9.7 C 395.8 9.7 394.3 11.4 394.3 14.1 C 394.3 16.9 395.8 18.6 398 18.6 C 399.7 18.6 401.1 17.6 401.2 15.8 C 401.2 15.8 402.7 15.8 402.7 15.8 C 402.5 18.5 400.4 20 397.9 20 Z M 407 3.8 L 405.2 3.8 L 405.2 5.7 L 407 5.7 L 407 3.8 Z M 406.9 19.8 L 405.3 19.8 L 405.3 8.5 L 406.9 8.5 L 406.9 19.8 Z M 417.2 17.7 C 416.3 19.4 414.6 20 413.2 20 C 411.2 20 409.5 18.9 409.5 16.7 C 409.5 14.6 411 13.6 412.9 13.4 C 412.9 13.4 415.6 13 415.6 13 C 416.4 12.9 417.2 12.6 417.2 11.6 C 417.2 10.3 416 9.6 414.4 9.6 C 412.7 9.6 411.7 10.4 411.5 11.7 C 411.5 11.7 409.9 11.7 409.9 11.7 C 410.3 9.4 412.1 8.3 414.5 8.3 C 417.1 8.3 418.7 9.5 418.7 12 C 418.65 11.99 418.7 19.8 418.7 19.8 L 417.2 19.8 C 417.2 19.8 417.16 17.72 417.2 17.7 Z M 415.3 14.3 C 415.3 14.3 413.6 14.5 413.6 14.5 C 412.1 14.7 411.1 15.2 411.1 16.6 C 411.1 18 412.2 18.6 413.4 18.6 C 415.2 18.6 417.1 17.3 417.1 14.9 C 417.1 14.9 417.1 13.8 417.1 13.8 C 416.7 14.1 416 14.2 415.3 14.3 Z M 434.5 19.8 C 434.5 19.8 434.47 17.64 434.5 17.6 C 433.7 19.2 432.3 19.9 430.7 19.9 C 428.6 19.9 426.9 18.6 426.9 16 C 426.95 15.96 426.9 8.5 426.9 8.5 L 428.5 8.5 C 428.5 8.5 428.48 15.77 428.5 15.8 C 428.5 17.6 429.5 18.6 431 18.6 C 432.8 18.6 434.4 17.2 434.4 14.3 C 434.4 14.34 434.4 8.5 434.4 8.5 L 435.9 8.5 L 435.9 19.8 L 434.5 19.8 Z M 448.5 12.1 C 448.45 12.05 448.5 19.8 448.5 19.8 L 446.9 19.8 C 446.9 19.8 446.92 12.24 446.9 12.2 C 446.9 10.7 446 9.7 444.4 9.7 C 442.5 9.7 440.8 11.1 440.8 13.9 C 440.83 13.86 440.8 19.8 440.8 19.8 L 439.3 19.8 L 439.3 8.5 L 440.8 8.5 C 440.8 8.5 440.83 10.6 440.8 10.6 C 441.5 9.3 442.8 8.3 444.7 8.3 C 447 8.3 448.5 9.6 448.5 12.1 Z M 457.7 14.5 C 457.8 17.3 459.5 18.6 461.5 18.6 C 463 18.6 464.5 17.9 464.8 16.3 C 464.8 16.3 466.2 16.3 466.2 16.3 C 465.7 18.9 463.5 20 461.4 20 C 458.7 20 456.2 18.2 456.2 14.2 C 456.2 10.1 458.8 8.3 461.5 8.3 C 464.1 8.3 466.3 10 466.3 13.8 C 466.32 13.75 466.3 14.5 466.3 14.5 C 466.3 14.5 457.73 14.51 457.7 14.5 Z M 457.8 13.2 C 457.8 13.2 464.8 13.2 464.8 13.2 C 464.8 10.9 463.3 9.7 461.4 9.7 C 459.6 9.7 458 10.8 457.8 13.2 Z M 478.1 12.1 C 478.1 12.05 478.1 19.8 478.1 19.8 L 476.6 19.8 C 476.6 19.8 476.57 12.24 476.6 12.2 C 476.6 10.7 475.7 9.7 474.1 9.7 C 472.2 9.7 470.5 11.1 470.5 13.9 C 470.48 13.86 470.5 19.8 470.5 19.8 L 468.9 19.8 L 468.9 8.5 L 470.5 8.5 C 470.5 8.5 470.48 10.6 470.5 10.6 C 471.2 9.3 472.4 8.3 474.4 8.3 C 476.6 8.3 478.1 9.6 478.1 12.1 Z M 484.9 5.1 C 483.7 5.1 483.4 5.7 483.4 6.8 C 483.39 6.76 483.4 8.5 483.4 8.5 L 485.9 8.5 L 485.9 9.9 L 483.4 9.9 L 483.4 19.8 L 481.9 19.8 L 481.9 9.9 L 480 9.9 L 480 8.5 L 481.9 8.5 C 481.9 8.5 481.86 6.72 481.9 6.7 C 481.9 4.2 483.2 3.8 484.7 3.8 C 484.7 3.78 486.2 3.8 486.2 3.8 L 486.2 5.1 C 486.2 5.1 484.95 5.14 484.9 5.1 Z M 487.2 14.2 C 487.2 10.5 489.5 8.3 492.6 8.3 C 495.7 8.3 497.9 10.5 497.9 14.2 C 497.9 17.8 495.7 20 492.6 20 C 489.5 20 487.2 17.8 487.2 14.2 Z M 496.4 14.1 C 496.4 11.3 494.7 9.7 492.6 9.7 C 490.3 9.7 488.8 11.4 488.8 14.2 C 488.8 17 490.5 18.6 492.6 18.6 C 494.8 18.6 496.4 16.9 496.4 14.1 Z M 508.8 24.1 C 508.8 24.1 508.8 17.62 508.8 17.6 C 508.2 18.9 506.8 19.9 504.9 19.9 C 502.4 19.9 499.8 18.2 499.8 14 C 499.8 10 502.4 8.3 504.9 8.3 C 506.8 8.3 508.2 9.3 508.8 10.5 C 508.85 10.48 508.8 8.5 508.8 8.5 L 510.3 8.5 L 510.3 24.1 L 508.8 24.1 Z M 508.8 14.1 C 508.8 10.9 506.9 9.7 505.1 9.7 C 503.2 9.7 501.4 10.9 501.4 14.1 C 501.4 17.2 503.2 18.5 505.1 18.5 C 506.9 18.5 508.8 17.2 508.8 14.1 Z M 521 19.8 C 521 19.8 521.01 17.64 521 17.6 C 520.2 19.2 518.8 19.9 517.2 19.9 C 515.1 19.9 513.5 18.6 513.5 16 C 513.49 15.96 513.5 8.5 513.5 8.5 L 515 8.5 C 515 8.5 515.02 15.77 515 15.8 C 515 17.6 516 18.6 517.5 18.6 C 519.3 18.6 520.9 17.2 520.9 14.3 C 520.94 14.34 520.9 8.5 520.9 8.5 L 522.5 8.5 L 522.5 19.8 L 521 19.8 Z M 526.6 14.5 C 526.7 17.3 528.4 18.6 530.4 18.6 C 531.9 18.6 533.3 17.9 533.7 16.3 C 533.7 16.3 535.1 16.3 535.1 16.3 C 534.6 18.9 532.4 20 530.3 20 C 527.6 20 525.1 18.2 525.1 14.2 C 525.1 10.1 527.6 8.3 530.4 8.3 C 533 8.3 535.2 10 535.2 13.8 C 535.2 13.75 535.2 14.5 535.2 14.5 C 535.2 14.5 526.61 14.51 526.6 14.5 Z M 526.7 13.2 C 526.7 13.2 533.6 13.2 533.6 13.2 C 533.6 10.9 532.2 9.7 530.3 9.7 C 528.5 9.7 526.9 10.8 526.7 13.2 Z M 553.6 14.1 C 553.6 17.6 551.5 20 548.5 20 C 546.5 20 545.1 18.9 544.5 17.7 C 544.55 17.7 544.5 19.8 544.5 19.8 L 543.1 19.8 L 543.1 3.8 L 544.6 3.8 C 544.6 3.8 544.61 10.77 544.6 10.8 C 545.2 9.4 546.6 8.3 548.6 8.3 C 551.5 8.3 553.6 10.5 553.6 14.1 Z M 552 14.2 C 552 11.4 550.6 9.8 548.4 9.8 C 546.2 9.8 544.6 11.4 544.6 14.2 C 544.6 17 546.1 18.7 548.3 18.7 C 550.5 18.7 552 16.9 552 14.2 Z M 555.5 14.2 C 555.5 10.5 557.7 8.3 560.8 8.3 C 563.9 8.3 566.2 10.5 566.2 14.2 C 566.2 17.8 564 20 560.8 20 C 557.7 20 555.5 17.8 555.5 14.2 Z M 564.6 14.1 C 564.6 11.3 562.9 9.7 560.8 9.7 C 558.6 9.7 557.1 11.4 557.1 14.2 C 557.1 17 558.8 18.6 560.9 18.6 C 563 18.6 564.6 16.9 564.6 14.1 Z M 581.3 19.8 C 581.3 19.8 579.62 19.78 579.6 19.8 C 578.1 19.8 576.8 19.3 576.8 16.8 C 576.78 16.82 576.8 9.9 576.8 9.9 L 571 9.9 C 571 9.9 570.99 16.8 571 16.8 C 571 17.8 571.3 18.4 572.5 18.4 C 572.54 18.4 573.9 18.4 573.9 18.4 L 573.9 19.8 C 573.9 19.8 572.29 19.78 572.3 19.8 C 570.8 19.8 569.5 19.3 569.5 16.8 C 569.45 16.82 569.5 9.9 569.5 9.9 L 567.2 9.9 L 567.2 8.5 L 569.5 8.5 L 569.5 5.3 L 571 4.9 L 571 8.5 L 576.8 8.5 L 576.8 5.3 L 578.3 4.9 L 578.3 8.5 L 581 8.5 L 581 9.9 L 578.3 9.9 C 578.3 9.9 578.31 16.8 578.3 16.8 C 578.3 17.8 578.6 18.4 579.9 18.4 C 579.87 18.4 581.3 18.4 581.3 18.4 L 581.3 19.8 Z M 582.8 14.2 C 582.8 10.5 585 8.3 588.1 8.3 C 591.2 8.3 593.5 10.5 593.5 14.2 C 593.5 17.8 591.2 20 588.1 20 C 585 20 582.8 17.8 582.8 14.2 Z M 591.9 14.1 C 591.9 11.3 590.2 9.7 588.1 9.7 C 585.9 9.7 584.3 11.4 584.3 14.2 C 584.3 17 586 18.6 588.1 18.6 C 590.3 18.6 591.9 16.9 591.9 14.1 Z M 596.1 8.5 L 597.6 8.5 C 597.6 8.5 597.59 10.37 597.6 10.4 C 598.2 9 599.4 8.3 600.9 8.3 C 602.5 8.3 603.9 9.2 604.2 10.6 C 604.7 9.4 606 8.3 607.9 8.3 C 609.9 8.3 611.6 9.4 611.6 11.7 C 611.56 11.7 611.6 19.8 611.6 19.8 L 610 19.8 C 610 19.8 610.02 12.24 610 12.2 C 610 10.5 609 9.7 607.6 9.7 C 606 9.7 604.6 11 604.6 13.3 C 604.56 13.33 604.6 19.8 604.6 19.8 L 603.1 19.8 C 603.1 19.8 603.05 12.24 603.1 12.2 C 603.1 10.5 602 9.7 600.7 9.7 C 599 9.7 597.6 10.9 597.6 13.3 C 597.61 13.33 597.6 19.8 597.6 19.8 L 596.1 19.8 L 596.1 8.5 Z M 614.2 13.7 L 614.2 12.3 L 620.6 12.3 L 620.6 13.7 L 614.2 13.7 Z M 630.8 19.8 C 630.8 19.8 630.79 17.64 630.8 17.6 C 630 19.2 628.6 19.9 627 19.9 C 624.9 19.9 623.3 18.6 623.3 16 C 623.27 15.96 623.3 8.5 623.3 8.5 L 624.8 8.5 C 624.8 8.5 624.81 15.77 624.8 15.8 C 624.8 17.6 625.8 18.6 627.3 18.6 C 629.1 18.6 630.7 17.2 630.7 14.3 C 630.73 14.34 630.7 8.5 630.7 8.5 L 632.3 8.5 L 632.3 19.8 L 630.8 19.8 Z M 646.1 14.1 C 646.1 18.2 643.6 19.9 641 19.9 C 639 19.9 637.8 19 637.2 17.8 C 637.16 17.83 637.2 24.1 637.2 24.1 L 635.6 24.1 L 635.6 8.5 L 637.1 8.5 C 637.1 8.5 637.11 10.88 637.1 10.9 C 637.6 9.5 639.1 8.3 641.1 8.3 C 643.6 8.3 646.1 10 646.1 14.1 Z M 644.6 14.1 C 644.6 11 642.8 9.8 640.9 9.8 C 639 9.8 637.2 11 637.2 14.2 C 637.2 17.3 639 18.5 640.9 18.5 C 642.7 18.5 644.6 17.3 644.6 14.1 Z M 649.9 19.7 C 649.86 19.66 648.9 19.7 648.9 19.7 L 648.9 17.6 L 651.1 17.6 C 651.1 17.6 651.08 19.72 651.1 19.7 C 651.1 22.2 649.6 23.1 648 23.2 C 648 23.2 647.8 22.3 647.8 22.3 C 649.5 22 649.9 21 649.9 19.7 Z M 666.2 19.8 C 666.2 19.8 666.16 17.64 666.2 17.6 C 665.4 19.2 664 19.9 662.4 19.9 C 660.3 19.9 658.6 18.6 658.6 16 C 658.64 15.96 658.6 8.5 658.6 8.5 L 660.2 8.5 C 660.2 8.5 660.17 15.77 660.2 15.8 C 660.2 17.6 661.2 18.6 662.7 18.6 C 664.5 18.6 666.1 17.2 666.1 14.3 C 666.09 14.34 666.1 8.5 666.1 8.5 L 667.6 8.5 L 667.6 19.8 L 666.2 19.8 Z M 680.1 12.1 C 680.14 12.05 680.1 19.8 680.1 19.8 L 678.6 19.8 C 678.6 19.8 678.61 12.24 678.6 12.2 C 678.6 10.7 677.7 9.7 676.1 9.7 C 674.2 9.7 672.5 11.1 672.5 13.9 C 672.52 13.86 672.5 19.8 672.5 19.8 L 671 19.8 L 671 8.5 L 672.5 8.5 C 672.5 8.5 672.52 10.6 672.5 10.6 C 673.2 9.3 674.5 8.3 676.4 8.3 C 678.7 8.3 680.1 9.6 680.1 12.1 Z M 696 17.7 C 695.1 19.4 693.4 20 692 20 C 690.1 20 688.3 18.9 688.3 16.7 C 688.3 14.6 689.8 13.6 691.8 13.4 C 691.8 13.4 694.4 13 694.4 13 C 695.3 12.9 696 12.6 696 11.6 C 696 10.3 694.8 9.6 693.3 9.6 C 691.6 9.6 690.5 10.4 690.3 11.7 C 690.3 11.7 688.8 11.7 688.8 11.7 C 689.1 9.4 690.9 8.3 693.4 8.3 C 695.9 8.3 697.5 9.5 697.5 12 C 697.49 11.99 697.5 19.8 697.5 19.8 L 696 19.8 C 696 19.8 696 17.72 696 17.7 Z M 694.1 14.3 C 694.1 14.3 692.4 14.5 692.4 14.5 C 691 14.7 689.9 15.2 689.9 16.6 C 689.9 18 691 18.6 692.2 18.6 C 694 18.6 696 17.3 696 14.9 C 696 14.9 696 13.8 696 13.8 C 695.5 14.1 694.9 14.2 694.1 14.3 Z M 708.1 19.8 C 708.1 19.8 708.05 17.64 708.1 17.6 C 707.3 19.2 705.9 19.9 704.3 19.9 C 702.2 19.9 700.5 18.6 700.5 16 C 700.53 15.96 700.5 8.5 700.5 8.5 L 702.1 8.5 C 702.1 8.5 702.07 15.77 702.1 15.8 C 702.1 17.6 703.1 18.6 704.6 18.6 C 706.4 18.6 708 17.2 708 14.3 C 707.99 14.34 708 8.5 708 8.5 L 709.5 8.5 L 709.5 19.8 L 708.1 19.8 Z M 718 19.8 C 718 19.8 716.37 19.78 716.4 19.8 C 714.9 19.8 713.5 19.3 713.5 16.8 C 713.53 16.82 713.5 9.9 713.5 9.9 L 711.3 9.9 L 711.3 8.5 L 713.5 8.5 L 713.5 5.3 L 715.1 4.9 L 715.1 8.5 L 717.8 8.5 L 717.8 9.9 L 715.1 9.9 C 715.1 9.9 715.06 16.8 715.1 16.8 C 715.1 17.8 715.4 18.4 716.6 18.4 C 716.62 18.4 718 18.4 718 18.4 L 718 19.8 Z M 725.4 6.2 L 724.1 6.2 L 726.6 2.4 L 727.9 3.4 L 725.4 6.2 Z M 721 14.5 C 721 17.3 722.8 18.6 724.8 18.6 C 726.3 18.6 727.7 17.9 728.1 16.3 C 728.1 16.3 729.5 16.3 729.5 16.3 C 729 18.9 726.8 20 724.7 20 C 722 20 719.5 18.2 719.5 14.2 C 719.5 10.1 722 8.3 724.7 8.3 C 727.4 8.3 729.6 10 729.6 13.8 C 729.6 13.75 729.6 14.5 729.6 14.5 C 729.6 14.5 721.01 14.51 721 14.5 Z M 721 13.2 C 721 13.2 728 13.2 728 13.2 C 728 10.9 726.6 9.7 724.7 9.7 C 722.9 9.7 721.3 10.8 721 13.2 Z M 741.4 12.1 C 741.38 12.05 741.4 19.8 741.4 19.8 L 739.8 19.8 C 739.8 19.8 739.84 12.24 739.8 12.2 C 739.8 10.7 739 9.7 737.4 9.7 C 735.4 9.7 733.8 11.1 733.8 13.9 C 733.75 13.86 733.8 19.8 733.8 19.8 L 732.2 19.8 L 732.2 8.5 L 733.8 8.5 C 733.8 8.5 733.75 10.6 733.8 10.6 C 734.4 9.3 735.7 8.3 737.7 8.3 C 739.9 8.3 741.4 9.6 741.4 12.1 Z M 749.8 19.8 C 749.8 19.8 748.12 19.78 748.1 19.8 C 746.6 19.8 745.3 19.3 745.3 16.8 C 745.28 16.82 745.3 9.9 745.3 9.9 L 743.1 9.9 L 743.1 8.5 L 745.3 8.5 L 745.3 5.3 L 746.8 4.9 L 746.8 8.5 L 749.5 8.5 L 749.5 9.9 L 746.8 9.9 C 746.8 9.9 746.82 16.8 746.8 16.8 C 746.8 17.8 747.1 18.4 748.4 18.4 C 748.37 18.4 749.8 18.4 749.8 18.4 L 749.8 19.8 Z M 753.6 3.8 L 751.9 3.8 L 751.9 5.7 L 753.6 5.7 L 753.6 3.8 Z M 753.5 19.8 L 752 19.8 L 752 8.5 L 753.5 8.5 L 753.5 19.8 Z M 761.4 20 C 758.3 20 756.1 17.7 756.1 14.2 C 756.1 10.6 758.2 8.3 761.5 8.3 C 764 8.3 766 9.7 766.2 12.2 C 766.2 12.2 764.7 12.2 764.7 12.2 C 764.5 10.6 763.1 9.7 761.5 9.7 C 759.3 9.7 757.7 11.4 757.7 14.1 C 757.7 16.9 759.2 18.6 761.5 18.6 C 763.2 18.6 764.5 17.6 764.6 15.8 C 764.6 15.8 766.2 15.8 766.2 15.8 C 766 18.5 763.9 20 761.4 20 Z M 768 14.2 C 768 10.5 770.3 8.3 773.4 8.3 C 776.5 8.3 778.7 10.5 778.7 14.2 C 778.7 17.8 776.5 20 773.4 20 C 770.3 20 768 17.8 768 14.2 Z M 777.2 14.1 C 777.2 11.3 775.5 9.7 773.4 9.7 C 771.2 9.7 769.6 11.4 769.6 14.2 C 769.6 17 771.3 18.6 773.4 18.6 C 775.6 18.6 777.2 16.9 777.2 14.1 Z " stroke="none" fill="#fff"/>  </g></svg>