<?xml version="1.0" standalone="no"?><!DOCTYPE svg PUBLIC "-//W3C//DTD SVG 1.1//EN" "http://www.w3.org/Graphics/SVG/1.1/DTD/svg11.dtd"><svg xmlns="http://www.w3.org/2000/svg" version="1.1" width="338px" height="65.4px" viewBox="0 0 338 65.4">  <desc>Vermeidung Minderung von Volatilit t</desc>  <defs/>  <g id="Polygon9512">    <path d="M 7.7 45 L 6 45 L 0.5 29.2 L 2.3 29.2 L 6.8 43.1 L 11.5 29.2 L 13.1 29.2 L 7.7 45 Z M 13.5 39.4 C 13.5 35.7 15.7 33.5 18.8 33.5 C 21.9 33.5 24.2 35.7 24.2 39.4 C 24.2 43 21.9 45.2 18.8 45.2 C 15.7 45.2 13.5 43 13.5 39.4 Z M 22.6 39.3 C 22.6 36.5 20.9 34.9 18.8 34.9 C 16.6 34.9 15.1 36.6 15.1 39.4 C 15.1 42.2 16.8 43.8 18.9 43.8 C 21 43.8 22.6 42.1 22.6 39.3 Z M 28.3 45 L 26.8 45 L 26.8 29 L 28.3 29 L 28.3 45 Z M 38.6 42.9 C 37.7 44.6 36 45.2 34.6 45.2 C 32.7 45.2 31 44.1 31 41.9 C 31 39.8 32.4 38.8 34.4 38.6 C 34.4 38.6 37 38.2 37 38.2 C 37.9 38.1 38.6 37.8 38.6 36.8 C 38.6 35.5 37.5 34.8 35.9 34.8 C 34.2 34.8 33.2 35.6 32.9 36.9 C 32.9 36.9 31.4 36.9 31.4 36.9 C 31.7 34.6 33.5 33.5 36 33.5 C 38.6 33.5 40.1 34.7 40.1 37.2 C 40.11 37.19 40.1 45 40.1 45 L 38.6 45 C 38.6 45 38.62 42.92 38.6 42.9 Z M 36.7 39.5 C 36.7 39.5 35 39.7 35 39.7 C 33.6 39.9 32.5 40.4 32.5 41.8 C 32.5 43.2 33.6 43.8 34.9 43.8 C 36.6 43.8 38.6 42.5 38.6 40.1 C 38.6 40.1 38.6 39 38.6 39 C 38.2 39.3 37.5 39.4 36.7 39.5 Z M 48.4 45 C 48.4 45 46.75 44.98 46.7 45 C 45.3 45 43.9 44.5 43.9 42 C 43.91 42.02 43.9 35.1 43.9 35.1 L 41.7 35.1 L 41.7 33.7 L 43.9 33.7 L 43.9 30.5 L 45.4 30.1 L 45.4 33.7 L 48.2 33.7 L 48.2 35.1 L 45.4 35.1 C 45.4 35.1 45.44 42 45.4 42 C 45.4 43 45.7 43.6 47 43.6 C 47 43.6 48.4 43.6 48.4 43.6 L 48.4 45 Z M 52.2 29 L 50.5 29 L 50.5 30.9 L 52.2 30.9 L 52.2 29 Z M 52.1 45 L 50.6 45 L 50.6 33.7 L 52.1 33.7 L 52.1 45 Z M 57 45 L 55.5 45 L 55.5 29 L 57 29 L 57 45 Z M 62 29 L 60.3 29 L 60.3 30.9 L 62 30.9 L 62 29 Z M 61.9 45 L 60.4 45 L 60.4 33.7 L 61.9 33.7 L 61.9 45 Z M 70.4 45 C 70.4 45 68.77 44.98 68.8 45 C 67.3 45 65.9 44.5 65.9 42 C 65.94 42.02 65.9 35.1 65.9 35.1 L 63.7 35.1 L 63.7 33.7 L 65.9 33.7 L 65.9 30.5 L 67.5 30.1 L 67.5 33.7 L 70.2 33.7 L 70.2 35.1 L 67.5 35.1 C 67.5 35.1 67.47 42 67.5 42 C 67.5 43 67.8 43.6 69 43.6 C 69.03 43.6 70.4 43.6 70.4 43.6 L 70.4 45 Z M 74 31.4 L 74 29.5 L 75.9 29.5 L 75.9 31.4 L 74 31.4 Z M 78.1 31.4 L 78.1 29.5 L 79.9 29.5 L 79.9 31.4 L 78.1 31.4 Z M 79.6 42.9 C 78.7 44.6 77 45.2 75.6 45.2 C 73.6 45.2 71.9 44.1 71.9 41.9 C 71.9 39.8 73.4 38.8 75.3 38.6 C 75.3 38.6 78 38.2 78 38.2 C 78.8 38.1 79.6 37.8 79.6 36.8 C 79.6 35.5 78.4 34.8 76.8 34.8 C 75.1 34.8 74.1 35.6 73.9 36.9 C 73.9 36.9 72.3 36.9 72.3 36.9 C 72.7 34.6 74.5 33.5 76.9 33.5 C 79.5 33.5 81.1 34.7 81.1 37.2 C 81.06 37.19 81.1 45 81.1 45 L 79.6 45 C 79.6 45 79.57 42.92 79.6 42.9 Z M 77.7 39.5 C 77.7 39.5 76 39.7 76 39.7 C 74.5 39.9 73.5 40.4 73.5 41.8 C 73.5 43.2 74.6 43.8 75.8 43.8 C 77.6 43.8 79.5 42.5 79.5 40.1 C 79.5 40.1 79.5 39 79.5 39 C 79.1 39.3 78.5 39.4 77.7 39.5 Z M 89.4 45 C 89.4 45 87.69 44.98 87.7 45 C 86.2 45 84.9 44.5 84.9 42 C 84.86 42.02 84.9 35.1 84.9 35.1 L 82.6 35.1 L 82.6 33.7 L 84.9 33.7 L 84.9 30.5 L 86.4 30.1 L 86.4 33.7 L 89.1 33.7 L 89.1 35.1 L 86.4 35.1 C 86.4 35.1 86.39 42 86.4 42 C 86.4 43 86.7 43.6 87.9 43.6 C 87.95 43.6 89.4 43.6 89.4 43.6 L 89.4 45 Z " stroke="none" fill="#000"/>  </g>  <g id="Polygon9511">    <path d="M 7.7 19.8 L 6 19.8 L 0.5 4 L 2.3 4 L 6.8 17.9 L 11.5 4 L 13.1 4 L 7.7 19.8 Z M 15 14.5 C 15 17.3 16.8 18.6 18.8 18.6 C 20.2 18.6 21.7 17.9 22.1 16.3 C 22.1 16.3 23.5 16.3 23.5 16.3 C 23 18.9 20.8 20 18.7 20 C 16 20 13.5 18.2 13.5 14.2 C 13.5 10.1 16 8.3 18.7 8.3 C 21.4 8.3 23.6 10 23.6 13.8 C 23.58 13.75 23.6 14.5 23.6 14.5 C 23.6 14.5 14.99 14.51 15 14.5 Z M 15 13.2 C 15 13.2 22 13.2 22 13.2 C 22 10.9 20.6 9.7 18.7 9.7 C 16.9 9.7 15.2 10.8 15 13.2 Z M 31.8 9.8 C 31.8 9.8 31.48 9.83 31.5 9.8 C 29.1 9.8 27.7 11.2 27.7 13.8 C 27.74 13.8 27.7 19.8 27.7 19.8 L 26.2 19.8 L 26.2 8.5 L 27.7 8.5 C 27.7 8.5 27.72 10.58 27.7 10.6 C 28.2 9.1 29.6 8.4 31.4 8.4 C 31.35 8.38 31.8 8.4 31.8 8.4 L 31.8 9.8 Z M 33.8 8.5 L 35.3 8.5 C 35.3 8.5 35.34 10.37 35.3 10.4 C 36 9 37.2 8.3 38.6 8.3 C 40.3 8.3 41.6 9.2 42 10.6 C 42.5 9.4 43.7 8.3 45.7 8.3 C 47.7 8.3 49.3 9.4 49.3 11.7 C 49.31 11.7 49.3 19.8 49.3 19.8 L 47.8 19.8 C 47.8 19.8 47.77 12.24 47.8 12.2 C 47.8 10.5 46.7 9.7 45.4 9.7 C 43.7 9.7 42.3 11 42.3 13.3 C 42.31 13.33 42.3 19.8 42.3 19.8 L 40.8 19.8 C 40.8 19.8 40.8 12.24 40.8 12.2 C 40.8 10.5 39.8 9.7 38.4 9.7 C 36.8 9.7 35.4 10.9 35.4 13.3 C 35.36 13.33 35.4 19.8 35.4 19.8 L 33.8 19.8 L 33.8 8.5 Z M 53.3 14.5 C 53.4 17.3 55.1 18.6 57.1 18.6 C 58.6 18.6 60.1 17.9 60.4 16.3 C 60.4 16.3 61.8 16.3 61.8 16.3 C 61.3 18.9 59.2 20 57 20 C 54.3 20 51.8 18.2 51.8 14.2 C 51.8 10.1 54.4 8.3 57.1 8.3 C 59.7 8.3 61.9 10 61.9 13.8 C 61.93 13.75 61.9 14.5 61.9 14.5 C 61.9 14.5 53.34 14.51 53.3 14.5 Z M 53.4 13.2 C 53.4 13.2 60.4 13.2 60.4 13.2 C 60.4 10.9 58.9 9.7 57 9.7 C 55.3 9.7 53.6 10.8 53.4 13.2 Z M 66.2 3.8 L 64.4 3.8 L 64.4 5.7 L 66.2 5.7 L 66.2 3.8 Z M 66.1 19.8 L 64.6 19.8 L 64.6 8.5 L 66.1 8.5 L 66.1 19.8 Z M 79.3 19.8 L 77.8 19.8 C 77.8 19.8 77.78 17.6 77.8 17.6 C 77.2 18.9 75.9 20 73.8 20 C 70.8 20 68.7 17.7 68.7 14.1 C 68.7 10.6 70.8 8.3 73.8 8.3 C 75.7 8.3 77.1 9.2 77.7 10.4 C 77.72 10.42 77.7 3.8 77.7 3.8 L 79.3 3.8 L 79.3 19.8 Z M 77.7 14.1 C 77.7 11.3 76.1 9.7 74 9.7 C 71.8 9.7 70.3 11.4 70.3 14.1 C 70.3 16.9 71.8 18.6 74 18.6 C 76.2 18.6 77.7 16.9 77.7 14.1 Z M 90 19.8 C 90 19.8 90.03 17.64 90 17.6 C 89.2 19.2 87.9 19.9 86.3 19.9 C 84.1 19.9 82.5 18.6 82.5 16 C 82.51 15.96 82.5 8.5 82.5 8.5 L 84 8.5 C 84 8.5 84.04 15.77 84 15.8 C 84 17.6 85 18.6 86.5 18.6 C 88.3 18.6 90 17.2 90 14.3 C 89.96 14.34 90 8.5 90 8.5 L 91.5 8.5 L 91.5 19.8 L 90 19.8 Z M 104 12.1 C 104.01 12.05 104 19.8 104 19.8 L 102.5 19.8 C 102.5 19.8 102.48 12.24 102.5 12.2 C 102.5 10.7 101.6 9.7 100 9.7 C 98.1 9.7 96.4 11.1 96.4 13.9 C 96.39 13.86 96.4 19.8 96.4 19.8 L 94.9 19.8 L 94.9 8.5 L 96.4 8.5 C 96.4 8.5 96.39 10.6 96.4 10.6 C 97.1 9.3 98.3 8.3 100.3 8.3 C 102.5 8.3 104 9.6 104 12.1 Z M 117 19.3 C 117 22.7 114.8 24.4 111.9 24.4 C 109.4 24.4 107.1 23.1 106.8 20.5 C 106.8 20.5 108.3 20.5 108.3 20.5 C 108.6 21.9 109.6 23.1 111.9 23.1 C 113.9 23.1 115.5 22 115.5 19.4 C 115.5 19.4 115.5 17.1 115.5 17.1 C 114.7 18.8 113 19.4 111.5 19.4 C 108.8 19.4 106.5 17.5 106.5 13.8 C 106.5 10.1 108.9 8.3 111.6 8.3 C 113.4 8.3 114.8 9.1 115.5 10.3 C 115.46 10.33 115.5 8.5 115.5 8.5 L 117 8.5 C 117 8.5 116.97 19.28 117 19.3 Z M 115.4 13.8 C 115.4 11 113.7 9.6 111.8 9.6 C 109.9 9.6 108 11 108 13.8 C 108 16.6 109.8 18 111.8 18 C 113.6 18 115.4 16.8 115.4 13.8 Z M 118.9 21.7 L 125.8 2.4 L 127.2 2.4 L 120.3 21.7 L 118.9 21.7 Z M 144.8 19.8 L 143.2 19.8 L 143.2 6.1 L 137.9 19.8 L 136.6 19.8 L 131.4 6.2 L 131.4 19.8 L 129.8 19.8 L 129.8 4 L 132.2 4 L 137.3 17.3 L 142.4 4 L 144.8 4 L 144.8 19.8 Z M 150 3.8 L 148.2 3.8 L 148.2 5.7 L 150 5.7 L 150 3.8 Z M 149.9 19.8 L 148.3 19.8 L 148.3 8.5 L 149.9 8.5 L 149.9 19.8 Z M 162.4 12.1 C 162.37 12.05 162.4 19.8 162.4 19.8 L 160.8 19.8 C 160.8 19.8 160.84 12.24 160.8 12.2 C 160.8 10.7 160 9.7 158.4 9.7 C 156.4 9.7 154.7 11.1 154.7 13.9 C 154.75 13.86 154.7 19.8 154.7 19.8 L 153.2 19.8 L 153.2 8.5 L 154.7 8.5 C 154.7 8.5 154.75 10.6 154.7 10.6 C 155.4 9.3 156.7 8.3 158.7 8.3 C 160.9 8.3 162.4 9.6 162.4 12.1 Z M 175.4 19.8 L 174 19.8 C 174 19.8 173.96 17.6 174 17.6 C 173.4 18.9 172.1 20 170 20 C 167 20 164.9 17.7 164.9 14.1 C 164.9 10.6 167 8.3 170 8.3 C 171.9 8.3 173.3 9.2 173.9 10.4 C 173.9 10.42 173.9 3.8 173.9 3.8 L 175.4 3.8 L 175.4 19.8 Z M 173.9 14.1 C 173.9 11.3 172.3 9.7 170.2 9.7 C 168 9.7 166.5 11.4 166.5 14.1 C 166.5 16.9 168 18.6 170.2 18.6 C 172.3 18.6 173.9 16.9 173.9 14.1 Z M 179.6 14.5 C 179.6 17.3 181.3 18.6 183.3 18.6 C 184.8 18.6 186.3 17.9 186.6 16.3 C 186.6 16.3 188.1 16.3 188.1 16.3 C 187.6 18.9 185.4 20 183.2 20 C 180.6 20 178.1 18.2 178.1 14.2 C 178.1 10.1 180.6 8.3 183.3 8.3 C 186 8.3 188.2 10 188.2 13.8 C 188.16 13.75 188.2 14.5 188.2 14.5 C 188.2 14.5 179.57 14.51 179.6 14.5 Z M 179.6 13.2 C 179.6 13.2 186.6 13.2 186.6 13.2 C 186.6 10.9 185.1 9.7 183.2 9.7 C 181.5 9.7 179.8 10.8 179.6 13.2 Z M 196.4 9.8 C 196.4 9.8 196.05 9.83 196.1 9.8 C 193.7 9.8 192.3 11.2 192.3 13.8 C 192.32 13.8 192.3 19.8 192.3 19.8 L 190.8 19.8 L 190.8 8.5 L 192.3 8.5 C 192.3 8.5 192.3 10.58 192.3 10.6 C 192.8 9.1 194.2 8.4 195.9 8.4 C 195.93 8.38 196.4 8.4 196.4 8.4 L 196.4 9.8 Z M 205.8 19.8 C 205.8 19.8 205.82 17.64 205.8 17.6 C 205 19.2 203.7 19.9 202.1 19.9 C 199.9 19.9 198.3 18.6 198.3 16 C 198.3 15.96 198.3 8.5 198.3 8.5 L 199.8 8.5 C 199.8 8.5 199.83 15.77 199.8 15.8 C 199.8 17.6 200.8 18.6 202.3 18.6 C 204.1 18.6 205.8 17.2 205.8 14.3 C 205.76 14.34 205.8 8.5 205.8 8.5 L 207.3 8.5 L 207.3 19.8 L 205.8 19.8 Z M 219.8 12.1 C 219.8 12.05 219.8 19.8 219.8 19.8 L 218.3 19.8 C 218.3 19.8 218.27 12.24 218.3 12.2 C 218.3 10.7 217.4 9.7 215.8 9.7 C 213.9 9.7 212.2 11.1 212.2 13.9 C 212.18 13.86 212.2 19.8 212.2 19.8 L 210.6 19.8 L 210.6 8.5 L 212.2 8.5 C 212.2 8.5 212.18 10.6 212.2 10.6 C 212.9 9.3 214.1 8.3 216.1 8.3 C 218.3 8.3 219.8 9.6 219.8 12.1 Z M 232.8 19.3 C 232.8 22.7 230.6 24.4 227.7 24.4 C 225.2 24.4 222.9 23.1 222.6 20.5 C 222.6 20.5 224.1 20.5 224.1 20.5 C 224.4 21.9 225.4 23.1 227.7 23.1 C 229.7 23.1 231.3 22 231.3 19.4 C 231.3 19.4 231.3 17.1 231.3 17.1 C 230.5 18.8 228.8 19.4 227.3 19.4 C 224.6 19.4 222.3 17.5 222.3 13.8 C 222.3 10.1 224.7 8.3 227.4 8.3 C 229.2 8.3 230.6 9.1 231.2 10.3 C 231.25 10.33 231.2 8.5 231.2 8.5 L 232.8 8.5 C 232.8 8.5 232.76 19.28 232.8 19.3 Z M 231.2 13.8 C 231.2 11 229.5 9.6 227.6 9.6 C 225.6 9.6 223.8 11 223.8 13.8 C 223.8 16.6 225.6 18 227.6 18 C 229.4 18 231.2 16.8 231.2 13.8 Z M 245.7 19.8 L 244.1 19.8 L 239.9 8.5 L 241.6 8.5 L 244.9 18.2 L 248.3 8.5 L 249.9 8.5 L 245.7 19.8 Z M 251 14.2 C 251 10.5 253.2 8.3 256.3 8.3 C 259.4 8.3 261.7 10.5 261.7 14.2 C 261.7 17.8 259.5 20 256.3 20 C 253.2 20 251 17.8 251 14.2 Z M 260.1 14.1 C 260.1 11.3 258.4 9.7 256.3 9.7 C 254.1 9.7 252.6 11.4 252.6 14.2 C 252.6 17 254.3 18.6 256.4 18.6 C 258.5 18.6 260.1 16.9 260.1 14.1 Z M 273.5 12.1 C 273.46 12.05 273.5 19.8 273.5 19.8 L 271.9 19.8 C 271.9 19.8 271.93 12.24 271.9 12.2 C 271.9 10.7 271 9.7 269.4 9.7 C 267.5 9.7 265.8 11.1 265.8 13.9 C 265.84 13.86 265.8 19.8 265.8 19.8 L 264.3 19.8 L 264.3 8.5 L 265.8 8.5 C 265.8 8.5 265.84 10.6 265.8 10.6 C 266.5 9.3 267.8 8.3 269.7 8.3 C 272 8.3 273.5 9.6 273.5 12.1 Z " stroke="none" fill="#000"/>  </g></svg>