<?xml version="1.0" standalone="no"?><!DOCTYPE svg PUBLIC "-//W3C//DTD SVG 1.1//EN" "http://www.w3.org/Graphics/SVG/1.1/DTD/svg11.dtd"><svg xmlns="http://www.w3.org/2000/svg" version="1.1" width="373px" height="155.4px" viewBox="0 0 373 155.4">  <desc>D nde observa oportunidades en los mercados emergentes En hard o en local currencies O incluso en bonos corporat</desc>  <defs/>  <g id="Polygon10774">    <path d="M 12.7 89.6 C 12.7 93.7 10.2 95.6 7.5 95.6 C 6.1 95.6 4.8 95.1 4.1 94 C 4.09 94 4.1 95.4 4.1 95.4 L 1.4 95.4 L 1.4 79.4 L 4.2 79.4 C 4.2 79.4 4.16 85.49 4.2 85.5 C 4.8 84.3 6.1 83.6 7.7 83.6 C 10.4 83.6 12.7 85.6 12.7 89.6 Z M 9.9 89.6 C 9.9 87.3 8.5 86.1 7 86.1 C 5.5 86.1 4.1 87.3 4.1 89.6 C 4.1 92 5.5 93.2 7 93.2 C 8.5 93.2 9.9 92 9.9 89.6 Z M 25.3 89.6 C 25.3 93.4 22.9 95.6 19.7 95.6 C 16.4 95.6 14 93.4 14 89.6 C 14 85.8 16.4 83.6 19.7 83.6 C 22.9 83.6 25.3 85.8 25.3 89.6 Z M 16.9 89.6 C 16.9 91.9 18.1 93 19.7 93 C 21.4 93 22.5 91.8 22.5 89.6 C 22.5 87.3 21.2 86.2 19.6 86.2 C 18 86.2 16.9 87.4 16.9 89.6 Z M 37.5 87.9 C 37.51 87.91 37.5 95.4 37.5 95.4 L 34.7 95.4 C 34.7 95.4 34.71 88.16 34.7 88.2 C 34.7 86.9 34 86.1 32.7 86.1 C 31.1 86.1 30.1 87.2 30.1 89.1 C 30.11 89.12 30.1 95.4 30.1 95.4 L 27.3 95.4 L 27.3 83.8 L 30.1 83.8 C 30.1 83.8 30.09 85.47 30.1 85.5 C 30.7 84.4 31.7 83.6 33.6 83.6 C 36.3 83.6 37.5 85.1 37.5 87.9 Z M 50.7 89.6 C 50.7 93.4 48.3 95.6 45 95.6 C 41.8 95.6 39.4 93.4 39.4 89.6 C 39.4 85.8 41.8 83.6 45 83.6 C 48.3 83.6 50.7 85.8 50.7 89.6 Z M 42.3 89.6 C 42.3 91.9 43.5 93 45.1 93 C 46.7 93 47.9 91.8 47.9 89.6 C 47.9 87.3 46.6 86.2 45 86.2 C 43.4 86.2 42.3 87.4 42.3 89.6 Z M 62 91.8 C 62 94.4 59.7 95.6 57.1 95.6 C 54.7 95.6 52.1 94.6 51.9 91.7 C 51.9 91.7 54.7 91.7 54.7 91.7 C 54.9 92.8 55.9 93.3 57.2 93.3 C 58.4 93.3 59.2 92.9 59.2 92.1 C 59.2 91.3 58.7 91.2 57.1 90.9 C 54.8 90.5 52.2 90.1 52.2 87.3 C 52.2 84.7 54.4 83.6 56.8 83.6 C 59.5 83.6 61.5 84.9 61.7 87.5 C 61.7 87.5 59 87.5 59 87.5 C 58.9 86.4 58 85.9 56.9 85.9 C 55.5 85.9 54.9 86.5 54.9 87.2 C 54.9 88.1 56 88.3 57.4 88.5 C 59.5 88.8 62 89.1 62 91.8 Z M 73.6 95.6 C 69.8 95.6 68 92.7 68 89.6 C 68 86.5 69.8 83.6 73.6 83.6 C 76.4 83.6 78.6 85.2 78.7 88 C 78.7 88 76 88 76 88 C 75.8 86.9 75 86.1 73.6 86.1 C 71.6 86.1 70.8 87.8 70.8 89.6 C 70.8 91.5 71.7 93 73.6 93 C 75 93 75.8 92.3 76 91.3 C 76 91.3 78.7 91.3 78.7 91.3 C 78.4 94.1 76.4 95.6 73.6 95.6 Z M 91.3 89.6 C 91.3 93.4 88.9 95.6 85.7 95.6 C 82.4 95.6 80 93.4 80 89.6 C 80 85.8 82.4 83.6 85.7 83.6 C 88.9 83.6 91.3 85.8 91.3 89.6 Z M 82.9 89.6 C 82.9 91.9 84.2 93 85.7 93 C 87.4 93 88.5 91.8 88.5 89.6 C 88.5 87.3 87.2 86.2 85.7 86.2 C 84 86.2 82.9 87.4 82.9 89.6 Z M 99.9 86.4 C 99.9 86.4 99.16 86.37 99.2 86.4 C 97.2 86.4 96.1 87.4 96.1 89.7 C 96.14 89.71 96.1 95.4 96.1 95.4 L 93.3 95.4 L 93.3 83.8 L 96.1 83.8 C 96.1 83.8 96.12 85.45 96.1 85.4 C 96.7 84.2 97.8 83.7 99.1 83.7 C 99.14 83.66 99.9 83.7 99.9 83.7 L 99.9 86.4 Z M 112.6 89.4 C 112.6 93.6 110 95.5 107.3 95.5 C 105.8 95.5 104.7 94.8 104.1 94 C 104.05 94 104.1 99.7 104.1 99.7 L 101.3 99.7 L 101.3 83.8 L 104 83.8 C 104 83.8 103.99 85.64 104 85.6 C 104.6 84.4 105.9 83.6 107.6 83.6 C 110.3 83.6 112.6 85.5 112.6 89.4 Z M 109.8 89.6 C 109.8 87.2 108.4 86.1 106.9 86.1 C 105.4 86.1 104 87.2 104 89.6 C 104 91.9 105.4 93 106.9 93 C 108.4 93 109.8 91.9 109.8 89.6 Z M 125.2 89.6 C 125.2 93.4 122.8 95.6 119.6 95.6 C 116.3 95.6 113.9 93.4 113.9 89.6 C 113.9 85.8 116.3 83.6 119.6 83.6 C 122.8 83.6 125.2 85.8 125.2 89.6 Z M 116.8 89.6 C 116.8 91.9 118 93 119.6 93 C 121.3 93 122.4 91.8 122.4 89.6 C 122.4 87.3 121.1 86.2 119.5 86.2 C 117.9 86.2 116.8 87.4 116.8 89.6 Z M 133.8 86.4 C 133.8 86.4 133.03 86.37 133 86.4 C 131.1 86.4 130 87.4 130 89.7 C 130.01 89.71 130 95.4 130 95.4 L 127.2 95.4 L 127.2 83.8 L 130 83.8 C 130 83.8 129.99 85.45 130 85.4 C 130.6 84.2 131.6 83.7 133 83.7 C 133.01 83.66 133.8 83.7 133.8 83.7 L 133.8 86.4 Z M 144.4 87.6 C 144.4 87.59 144.4 95.4 144.4 95.4 L 141.7 95.4 C 141.7 95.4 141.67 93.7 141.7 93.7 C 140.8 95.2 139.4 95.6 138.2 95.6 C 136.3 95.6 134.4 94.5 134.4 92 C 134.4 90.2 135.4 89 138.1 88.6 C 138.1 88.6 140.6 88.2 140.6 88.2 C 141.3 88.1 141.8 87.9 141.8 87.2 C 141.8 86.2 140.9 85.8 139.8 85.8 C 138.3 85.8 137.7 86.5 137.5 87.5 C 137.5 87.5 134.9 87.5 134.9 87.5 C 135.2 84.8 137.3 83.6 139.9 83.6 C 142.7 83.6 144.4 84.9 144.4 87.6 Z M 141.7 90.5 C 141.7 90.5 141.7 89.9 141.7 89.9 C 141.4 90 140.9 90.2 140.3 90.2 C 140.3 90.2 139.1 90.4 139.1 90.4 C 137.7 90.6 137.2 91.2 137.2 91.9 C 137.2 92.8 137.8 93.3 138.8 93.3 C 140.3 93.3 141.7 92.2 141.7 90.5 Z M 152.8 95.4 C 152.8 95.4 151.01 95.38 151 95.4 C 148.8 95.4 147.5 94.7 147.5 91.6 C 147.46 91.6 147.5 86.3 147.5 86.3 L 145.3 86.3 L 145.3 83.8 L 147.5 83.8 L 147.5 81.2 L 150.3 80.4 L 150.3 83.8 L 152.6 83.8 L 152.6 86.3 L 150.3 86.3 C 150.3 86.3 150.25 91.73 150.3 91.7 C 150.3 92.4 150.4 92.9 151.4 92.9 C 151.43 92.9 152.8 92.9 152.8 92.9 L 152.8 95.4 Z M 154.3 82.3 L 157.3 82.3 L 157.3 79.1 L 154.3 79.1 L 154.3 82.3 Z M 154.4 83.8 L 157.2 83.8 L 157.2 95.4 L 154.4 95.4 L 154.4 83.8 Z M 165.8 95.4 L 162.8 95.4 L 158.5 83.8 L 161.5 83.8 L 164.3 92.1 L 167.2 83.8 L 170.1 83.8 L 165.8 95.4 Z M 181.8 89.6 C 181.8 93.4 179.4 95.6 176.1 95.6 C 172.9 95.6 170.5 93.4 170.5 89.6 C 170.5 85.8 172.9 83.6 176.1 83.6 C 179.4 83.6 181.8 85.8 181.8 89.6 Z M 173.4 89.6 C 173.4 91.9 174.6 93 176.2 93 C 177.8 93 179 91.8 179 89.6 C 179 87.3 177.7 86.2 176.1 86.2 C 174.5 86.2 173.4 87.4 173.4 89.6 Z M 193.1 91.8 C 193.1 94.4 190.8 95.6 188.2 95.6 C 185.8 95.6 183.2 94.6 183 91.7 C 183 91.7 185.8 91.7 185.8 91.7 C 186 92.8 187 93.3 188.3 93.3 C 189.5 93.3 190.3 92.9 190.3 92.1 C 190.3 91.3 189.8 91.2 188.2 90.9 C 185.9 90.5 183.3 90.1 183.3 87.3 C 183.3 84.7 185.5 83.6 187.9 83.6 C 190.6 83.6 192.6 84.9 192.8 87.5 C 192.8 87.5 190.1 87.5 190.1 87.5 C 190 86.4 189.1 85.9 188 85.9 C 186.6 85.9 186 86.5 186 87.2 C 186 88.1 187.1 88.3 188.5 88.5 C 190.6 88.8 193.1 89.1 193.1 91.8 Z M 197.7 89.8 C 197.7 87.1 199.1 86.6 200.3 85.7 C 201.3 85 201.8 84.4 201.8 83.6 C 201.8 82.4 200.9 81.8 199.7 81.8 C 198.3 81.8 197.4 82.6 197.3 84 C 197.3 84 194.4 84 194.4 84 C 194.7 80.6 197.2 79.4 199.8 79.4 C 202.5 79.4 204.7 80.7 204.7 83.5 C 204.7 85.7 203.4 86.6 202 87.6 C 200.9 88.4 200.4 88.9 200.4 89.8 C 200.4 89.84 200.4 90.5 200.4 90.5 L 197.7 90.5 C 197.7 90.5 197.73 89.75 197.7 89.8 Z M 197.5 92.1 L 200.7 92.1 L 200.7 95.4 L 197.5 95.4 L 197.5 92.1 Z " stroke="none" fill="#000"/>  </g>  <g id="Polygon10773">    <path d="M 11.9 64.4 C 11.9 68.2 9.5 70.4 6.3 70.4 C 3 70.4 0.6 68.2 0.6 64.4 C 0.6 60.6 3 58.4 6.3 58.4 C 9.5 58.4 11.9 60.6 11.9 64.4 Z M 3.5 64.4 C 3.5 66.7 4.8 67.8 6.3 67.8 C 8 67.8 9.1 66.6 9.1 64.4 C 9.1 62.1 7.8 61 6.3 61 C 4.6 61 3.5 62.2 3.5 64.4 Z M 20.7 65.2 C 20.8 67.1 22.2 68 23.7 68 C 24.8 68 25.9 67.6 26.2 66.5 C 26.2 66.5 28.8 66.5 28.8 66.5 C 28.3 69.1 26 70.4 23.6 70.4 C 20.8 70.4 18 68.5 18 64.4 C 18 60.4 20.7 58.4 23.6 58.4 C 26.4 58.4 28.8 60.2 28.8 64.1 C 28.81 64.09 28.8 65.2 28.8 65.2 C 28.8 65.2 20.75 65.23 20.7 65.2 Z M 20.8 63.2 C 20.8 63.2 26.1 63.2 26.1 63.2 C 26.1 61.7 25 60.8 23.6 60.8 C 22.3 60.8 21.1 61.5 20.8 63.2 Z M 41 62.7 C 40.99 62.71 41 70.2 41 70.2 L 38.2 70.2 C 38.2 70.2 38.2 62.96 38.2 63 C 38.2 61.7 37.5 60.9 36.2 60.9 C 34.6 60.9 33.6 62 33.6 63.9 C 33.6 63.92 33.6 70.2 33.6 70.2 L 30.8 70.2 L 30.8 58.6 L 33.6 58.6 C 33.6 58.6 33.58 60.27 33.6 60.3 C 34.2 59.2 35.2 58.4 37.1 58.4 C 39.8 58.4 41 59.9 41 62.7 Z M 52.1 70.2 L 49.3 70.2 L 49.3 54.2 L 52.1 54.2 L 52.1 70.2 Z M 65.4 64.4 C 65.4 68.2 63 70.4 59.7 70.4 C 56.5 70.4 54.1 68.2 54.1 64.4 C 54.1 60.6 56.5 58.4 59.7 58.4 C 63 58.4 65.4 60.6 65.4 64.4 Z M 56.9 64.4 C 56.9 66.7 58.2 67.8 59.8 67.8 C 61.4 67.8 62.5 66.6 62.5 64.4 C 62.5 62.1 61.3 61 59.7 61 C 58 61 56.9 62.2 56.9 64.4 Z M 72.3 70.4 C 68.5 70.4 66.7 67.5 66.7 64.4 C 66.7 61.3 68.5 58.4 72.3 58.4 C 75.1 58.4 77.3 60 77.4 62.8 C 77.4 62.8 74.7 62.8 74.7 62.8 C 74.5 61.7 73.7 60.9 72.3 60.9 C 70.3 60.9 69.5 62.6 69.5 64.4 C 69.5 66.3 70.3 67.8 72.3 67.8 C 73.7 67.8 74.5 67.1 74.7 66.1 C 74.7 66.1 77.4 66.1 77.4 66.1 C 77.1 68.9 75.1 70.4 72.3 70.4 Z M 88.7 62.4 C 88.72 62.39 88.7 70.2 88.7 70.2 L 86 70.2 C 86 70.2 85.99 68.5 86 68.5 C 85.1 70 83.7 70.4 82.5 70.4 C 80.6 70.4 78.7 69.3 78.7 66.8 C 78.7 65 79.8 63.8 82.4 63.4 C 82.4 63.4 84.9 63 84.9 63 C 85.6 62.9 86.1 62.7 86.1 62 C 86.1 61 85.3 60.6 84.1 60.6 C 82.7 60.6 82 61.3 81.9 62.3 C 81.9 62.3 79.2 62.3 79.2 62.3 C 79.5 59.6 81.6 58.4 84.3 58.4 C 87 58.4 88.7 59.7 88.7 62.4 Z M 86 65.3 C 86 65.3 86 64.7 86 64.7 C 85.7 64.8 85.2 65 84.7 65 C 84.7 65 83.4 65.2 83.4 65.2 C 82 65.4 81.5 66 81.5 66.7 C 81.5 67.6 82.2 68.1 83.1 68.1 C 84.6 68.1 86 67 86 65.3 Z M 94 70.2 L 91.2 70.2 L 91.2 54.2 L 94 54.2 L 94 70.2 Z M 106.9 70.4 C 103.1 70.4 101.3 67.5 101.3 64.4 C 101.3 61.3 103.1 58.4 106.9 58.4 C 109.7 58.4 111.9 60 112 62.8 C 112 62.8 109.3 62.8 109.3 62.8 C 109.1 61.7 108.3 60.9 107 60.9 C 104.9 60.9 104.1 62.6 104.1 64.4 C 104.1 66.3 105 67.8 107 67.8 C 108.3 67.8 109.1 67.1 109.3 66.1 C 109.3 66.1 112.1 66.1 112.1 66.1 C 111.7 68.9 109.7 70.4 106.9 70.4 Z M 124.2 70.2 L 121.5 70.2 C 121.5 70.2 121.5 68.54 121.5 68.5 C 120.8 69.6 119.8 70.3 118.2 70.3 C 115.8 70.3 114 68.8 114 65.8 C 113.99 65.79 114 58.6 114 58.6 L 116.8 58.6 C 116.8 58.6 116.78 65.58 116.8 65.6 C 116.8 67.2 117.6 67.8 118.8 67.8 C 120.3 67.8 121.4 66.9 121.4 64.2 C 121.44 64.2 121.4 58.6 121.4 58.6 L 124.2 58.6 L 124.2 70.2 Z M 133.5 61.2 C 133.5 61.2 132.78 61.17 132.8 61.2 C 130.8 61.2 129.8 62.2 129.8 64.5 C 129.76 64.51 129.8 70.2 129.8 70.2 L 127 70.2 L 127 58.6 L 129.7 58.6 C 129.7 58.6 129.74 60.25 129.7 60.2 C 130.3 59 131.4 58.5 132.8 58.5 C 132.76 58.46 133.5 58.5 133.5 58.5 L 133.5 61.2 Z M 141.4 61.2 C 141.4 61.2 140.7 61.17 140.7 61.2 C 138.7 61.2 137.7 62.2 137.7 64.5 C 137.67 64.51 137.7 70.2 137.7 70.2 L 134.9 70.2 L 134.9 58.6 L 137.7 58.6 C 137.7 58.6 137.65 60.25 137.7 60.2 C 138.2 59 139.3 58.5 140.7 58.5 C 140.68 58.46 141.4 58.5 141.4 58.5 L 141.4 61.2 Z M 144.6 65.2 C 144.6 67.1 146 68 147.5 68 C 148.6 68 149.7 67.6 150 66.5 C 150 66.5 152.6 66.5 152.6 66.5 C 152.1 69.1 149.8 70.4 147.4 70.4 C 144.6 70.4 141.9 68.5 141.9 64.4 C 141.9 60.4 144.5 58.4 147.4 58.4 C 150.3 58.4 152.6 60.2 152.6 64.1 C 152.63 64.09 152.6 65.2 152.6 65.2 C 152.6 65.2 144.56 65.23 144.6 65.2 Z M 144.6 63.2 C 144.6 63.2 149.9 63.2 149.9 63.2 C 149.9 61.7 148.8 60.8 147.4 60.8 C 146.1 60.8 144.9 61.5 144.6 63.2 Z M 164.8 62.7 C 164.81 62.71 164.8 70.2 164.8 70.2 L 162 70.2 C 162 70.2 162.01 62.96 162 63 C 162 61.7 161.3 60.9 160 60.9 C 158.4 60.9 157.4 62 157.4 63.9 C 157.41 63.92 157.4 70.2 157.4 70.2 L 154.6 70.2 L 154.6 58.6 L 157.4 58.6 C 157.4 58.6 157.39 60.27 157.4 60.3 C 158 59.2 159 58.4 160.9 58.4 C 163.6 58.4 164.8 59.9 164.8 62.7 Z M 172.3 70.4 C 168.5 70.4 166.7 67.5 166.7 64.4 C 166.7 61.3 168.5 58.4 172.3 58.4 C 175.2 58.4 177.3 60 177.4 62.8 C 177.4 62.8 174.7 62.8 174.7 62.8 C 174.6 61.7 173.8 60.9 172.4 60.9 C 170.4 60.9 169.5 62.6 169.5 64.4 C 169.5 66.3 170.4 67.8 172.4 67.8 C 173.7 67.8 174.5 67.1 174.7 66.1 C 174.7 66.1 177.5 66.1 177.5 66.1 C 177.1 68.9 175.1 70.4 172.3 70.4 Z M 179.4 57.1 L 182.4 57.1 L 182.4 53.9 L 179.4 53.9 L 179.4 57.1 Z M 179.5 58.6 L 182.3 58.6 L 182.3 70.2 L 179.5 70.2 L 179.5 58.6 Z M 187 65.2 C 187 67.1 188.4 68 189.9 68 C 191 68 192.1 67.6 192.4 66.5 C 192.4 66.5 195 66.5 195 66.5 C 194.5 69.1 192.2 70.4 189.8 70.4 C 187 70.4 184.3 68.5 184.3 64.4 C 184.3 60.4 186.9 58.4 189.8 58.4 C 192.7 58.4 195 60.2 195 64.1 C 195.02 64.09 195 65.2 195 65.2 C 195 65.2 186.96 65.23 187 65.2 Z M 187 63.2 C 187 63.2 192.3 63.2 192.3 63.2 C 192.3 61.7 191.2 60.8 189.8 60.8 C 188.5 60.8 187.3 61.5 187 63.2 Z M 206.3 66.6 C 206.3 69.2 204 70.4 201.4 70.4 C 199 70.4 196.4 69.4 196.2 66.5 C 196.2 66.5 199 66.5 199 66.5 C 199.2 67.6 200.2 68.1 201.5 68.1 C 202.7 68.1 203.5 67.7 203.5 66.9 C 203.5 66.1 203 66 201.4 65.7 C 199.1 65.3 196.5 64.9 196.5 62.1 C 196.5 59.5 198.7 58.4 201.1 58.4 C 203.8 58.4 205.8 59.7 206 62.3 C 206 62.3 203.3 62.3 203.3 62.3 C 203.2 61.2 202.4 60.7 201.2 60.7 C 199.8 60.7 199.2 61.3 199.2 62 C 199.2 62.9 200.3 63.1 201.7 63.3 C 203.8 63.6 206.3 63.9 206.3 66.6 Z M 210.9 64.6 C 210.9 61.9 212.3 61.4 213.5 60.5 C 214.6 59.8 215 59.2 215 58.4 C 215 57.2 214.2 56.6 212.9 56.6 C 211.5 56.6 210.6 57.4 210.5 58.8 C 210.5 58.8 207.6 58.8 207.6 58.8 C 207.9 55.4 210.4 54.2 213 54.2 C 215.8 54.2 217.9 55.5 217.9 58.3 C 217.9 60.5 216.6 61.4 215.2 62.4 C 214.1 63.2 213.6 63.7 213.6 64.6 C 213.61 64.64 213.6 65.3 213.6 65.3 L 210.9 65.3 C 210.9 65.3 210.94 64.55 210.9 64.6 Z M 210.7 66.9 L 213.9 66.9 L 213.9 70.2 L 210.7 70.2 L 210.7 66.9 Z M 232.3 62.6 L 229.1 62.6 L 229.1 59.3 L 232.3 59.3 L 232.3 62.6 Z M 232.1 65 C 232.1 67.6 230.7 68.1 229.5 69 C 228.5 69.7 228 70.3 228 71.1 C 228 72.3 228.9 72.9 230.1 72.9 C 231.5 72.9 232.4 72.1 232.5 70.7 C 232.5 70.7 235.4 70.7 235.4 70.7 C 235.1 74.1 232.6 75.3 230 75.3 C 227.3 75.3 225.1 74 225.1 71.2 C 225.1 69 226.4 68.1 227.8 67.1 C 228.9 66.3 229.4 65.8 229.4 64.9 C 229.4 64.87 229.4 64.2 229.4 64.2 L 232.1 64.2 C 232.1 64.2 232.07 64.95 232.1 65 Z M 236 62.3 C 236 57.8 239.2 54.1 243.9 54.1 C 248.6 54.1 251.8 57.8 251.8 62.3 C 251.8 66.8 248.7 70.6 243.9 70.6 C 239.2 70.6 236 66.8 236 62.3 Z M 239 62.3 C 239 65.4 240.8 67.8 243.9 67.8 C 247 67.8 248.8 65.4 248.8 62.3 C 248.8 59.2 247 56.9 243.9 56.9 C 240.9 56.9 239 59.2 239 62.3 Z M 258.9 57.1 L 261.9 57.1 L 261.9 53.9 L 258.9 53.9 L 258.9 57.1 Z M 259 58.6 L 261.8 58.6 L 261.8 70.2 L 259 70.2 L 259 58.6 Z M 274.7 62.7 C 274.68 62.71 274.7 70.2 274.7 70.2 L 271.9 70.2 C 271.9 70.2 271.88 62.96 271.9 63 C 271.9 61.7 271.1 60.9 269.8 60.9 C 268.3 60.9 267.3 62 267.3 63.9 C 267.28 63.92 267.3 70.2 267.3 70.2 L 264.5 70.2 L 264.5 58.6 L 267.3 58.6 C 267.3 58.6 267.26 60.27 267.3 60.3 C 267.9 59.2 268.9 58.4 270.8 58.4 C 273.4 58.4 274.7 59.9 274.7 62.7 Z M 282.2 70.4 C 278.4 70.4 276.6 67.5 276.6 64.4 C 276.6 61.3 278.4 58.4 282.2 58.4 C 285 58.4 287.2 60 287.3 62.8 C 287.3 62.8 284.6 62.8 284.6 62.8 C 284.4 61.7 283.6 60.9 282.3 60.9 C 280.2 60.9 279.4 62.6 279.4 64.4 C 279.4 66.3 280.3 67.8 282.2 67.8 C 283.6 67.8 284.4 67.1 284.6 66.1 C 284.6 66.1 287.4 66.1 287.4 66.1 C 287 68.9 285 70.4 282.2 70.4 Z M 292.2 70.2 L 289.4 70.2 L 289.4 54.2 L 292.2 54.2 L 292.2 70.2 Z M 305 70.2 L 302.3 70.2 C 302.3 70.2 302.31 68.54 302.3 68.5 C 301.6 69.6 300.6 70.3 299 70.3 C 296.6 70.3 294.8 68.8 294.8 65.8 C 294.79 65.79 294.8 58.6 294.8 58.6 L 297.6 58.6 C 297.6 58.6 297.59 65.58 297.6 65.6 C 297.6 67.2 298.4 67.8 299.6 67.8 C 301.1 67.8 302.2 66.9 302.2 64.2 C 302.25 64.2 302.2 58.6 302.2 58.6 L 305 58.6 L 305 70.2 Z M 317 66.6 C 317 69.2 314.7 70.4 312.1 70.4 C 309.7 70.4 307.1 69.4 306.9 66.5 C 306.9 66.5 309.7 66.5 309.7 66.5 C 309.9 67.6 311 68.1 312.3 68.1 C 313.4 68.1 314.3 67.7 314.3 66.9 C 314.3 66.1 313.7 66 312.1 65.7 C 309.9 65.3 307.3 64.9 307.3 62.1 C 307.3 59.5 309.5 58.4 311.9 58.4 C 314.6 58.4 316.6 59.7 316.8 62.3 C 316.8 62.3 314 62.3 314 62.3 C 313.9 61.2 313.1 60.7 311.9 60.7 C 310.5 60.7 310 61.3 310 62 C 310 62.9 311 63.1 312.4 63.3 C 314.5 63.6 317 63.9 317 66.6 Z M 329.5 64.4 C 329.5 68.2 327.1 70.4 323.8 70.4 C 320.6 70.4 318.2 68.2 318.2 64.4 C 318.2 60.6 320.6 58.4 323.8 58.4 C 327.1 58.4 329.5 60.6 329.5 64.4 Z M 321 64.4 C 321 66.7 322.3 67.8 323.9 67.8 C 325.5 67.8 326.7 66.6 326.7 64.4 C 326.7 62.1 325.4 61 323.8 61 C 322.2 61 321 62.2 321 64.4 Z M 338.3 65.2 C 338.4 67.1 339.7 68 341.3 68 C 342.4 68 343.4 67.6 343.8 66.5 C 343.8 66.5 346.3 66.5 346.3 66.5 C 345.8 69.1 343.5 70.4 341.2 70.4 C 338.4 70.4 335.6 68.5 335.6 64.4 C 335.6 60.4 338.2 58.4 341.2 58.4 C 344 58.4 346.4 60.2 346.4 64.1 C 346.37 64.09 346.4 65.2 346.4 65.2 C 346.4 65.2 338.31 65.23 338.3 65.2 Z M 338.4 63.2 C 338.4 63.2 343.6 63.2 343.6 63.2 C 343.6 61.7 342.6 60.8 341.1 60.8 C 339.9 60.8 338.6 61.5 338.4 63.2 Z M 358.5 62.7 C 358.55 62.71 358.5 70.2 358.5 70.2 L 355.8 70.2 C 355.8 70.2 355.76 62.96 355.8 63 C 355.8 61.7 355 60.9 353.7 60.9 C 352.1 60.9 351.2 62 351.2 63.9 C 351.16 63.92 351.2 70.2 351.2 70.2 L 348.4 70.2 L 348.4 58.6 L 351.1 58.6 C 351.1 58.6 351.14 60.27 351.1 60.3 C 351.8 59.2 352.7 58.4 354.7 58.4 C 357.3 58.4 358.5 59.9 358.5 62.7 Z " stroke="none" fill="#000"/>  </g>  <g id="Polygon10772">    <path d="M 4.2 45 L 1.4 45 L 1.4 29 L 4.2 29 L 4.2 45 Z M 17.5 39.2 C 17.5 43 15.1 45.2 11.8 45.2 C 8.6 45.2 6.2 43 6.2 39.2 C 6.2 35.4 8.6 33.2 11.8 33.2 C 15.1 33.2 17.5 35.4 17.5 39.2 Z M 9 39.2 C 9 41.5 10.3 42.6 11.8 42.6 C 13.5 42.6 14.6 41.4 14.6 39.2 C 14.6 36.9 13.3 35.8 11.8 35.8 C 10.1 35.8 9 37 9 39.2 Z M 28.7 41.4 C 28.7 44 26.4 45.2 23.8 45.2 C 21.4 45.2 18.8 44.2 18.6 41.3 C 18.6 41.3 21.4 41.3 21.4 41.3 C 21.6 42.4 22.7 42.9 24 42.9 C 25.1 42.9 26 42.5 26 41.7 C 26 40.9 25.4 40.8 23.8 40.5 C 21.6 40.1 19 39.7 19 36.9 C 19 34.3 21.2 33.2 23.6 33.2 C 26.3 33.2 28.3 34.5 28.5 37.1 C 28.5 37.1 25.7 37.1 25.7 37.1 C 25.6 36 24.8 35.5 23.6 35.5 C 22.2 35.5 21.7 36.1 21.7 36.8 C 21.7 37.7 22.7 37.9 24.1 38.1 C 26.2 38.4 28.7 38.7 28.7 41.4 Z M 52.2 37.2 C 52.23 37.17 52.2 45 52.2 45 L 49.4 45 C 49.4 45 49.43 37.72 49.4 37.7 C 49.4 36.3 48.8 35.7 47.6 35.7 C 46.3 35.7 45.4 36.5 45.4 38.5 C 45.44 38.47 45.4 45 45.4 45 L 42.7 45 C 42.7 45 42.65 37.72 42.7 37.7 C 42.7 36.3 42 35.7 40.8 35.7 C 39.5 35.7 38.7 36.5 38.7 38.5 C 38.66 38.45 38.7 45 38.7 45 L 35.9 45 L 35.9 33.4 L 38.6 33.4 C 38.6 33.4 38.62 35.09 38.6 35.1 C 39 34.2 39.9 33.2 41.6 33.2 C 43.1 33.2 44.3 33.9 44.8 35.1 C 45.3 34.3 46.1 33.2 48.2 33.2 C 50.7 33.2 52.2 34.7 52.2 37.2 Z M 56.8 40 C 56.9 41.9 58.2 42.8 59.8 42.8 C 60.9 42.8 61.9 42.4 62.3 41.3 C 62.3 41.3 64.8 41.3 64.8 41.3 C 64.3 43.9 62.1 45.2 59.7 45.2 C 56.9 45.2 54.1 43.3 54.1 39.2 C 54.1 35.2 56.7 33.2 59.7 33.2 C 62.5 33.2 64.9 35 64.9 38.9 C 64.89 38.89 64.9 40 64.9 40 C 64.9 40 56.83 40.03 56.8 40 Z M 56.9 38 C 56.9 38 62.2 38 62.2 38 C 62.2 36.5 61.1 35.6 59.7 35.6 C 58.4 35.6 57.1 36.3 56.9 38 Z M 73.4 36 C 73.4 36 72.7 35.97 72.7 36 C 70.7 36 69.7 37 69.7 39.3 C 69.68 39.31 69.7 45 69.7 45 L 66.9 45 L 66.9 33.4 L 69.7 33.4 C 69.7 33.4 69.66 35.05 69.7 35 C 70.2 33.8 71.3 33.3 72.7 33.3 C 72.68 33.26 73.4 33.3 73.4 33.3 L 73.4 36 Z M 79.5 45.2 C 75.7 45.2 73.9 42.3 73.9 39.2 C 73.9 36.1 75.7 33.2 79.5 33.2 C 82.3 33.2 84.5 34.8 84.6 37.6 C 84.6 37.6 81.9 37.6 81.9 37.6 C 81.7 36.5 80.9 35.7 79.5 35.7 C 77.5 35.7 76.7 37.4 76.7 39.2 C 76.7 41.1 77.6 42.6 79.5 42.6 C 80.9 42.6 81.7 41.9 81.9 40.9 C 81.9 40.9 84.7 40.9 84.7 40.9 C 84.3 43.7 82.3 45.2 79.5 45.2 Z M 95.9 37.2 C 95.93 37.19 95.9 45 95.9 45 L 93.2 45 C 93.2 45 93.2 43.3 93.2 43.3 C 92.3 44.8 90.9 45.2 89.7 45.2 C 87.8 45.2 85.9 44.1 85.9 41.6 C 85.9 39.8 87 38.6 89.6 38.2 C 89.6 38.2 92.1 37.8 92.1 37.8 C 92.8 37.7 93.3 37.5 93.3 36.8 C 93.3 35.8 92.5 35.4 91.3 35.4 C 89.9 35.4 89.2 36.1 89.1 37.1 C 89.1 37.1 86.4 37.1 86.4 37.1 C 86.7 34.4 88.9 33.2 91.5 33.2 C 94.2 33.2 95.9 34.5 95.9 37.2 Z M 93.2 40.1 C 93.2 40.1 93.2 39.5 93.2 39.5 C 92.9 39.6 92.4 39.8 91.9 39.8 C 91.9 39.8 90.6 40 90.6 40 C 89.2 40.2 88.7 40.8 88.7 41.5 C 88.7 42.4 89.4 42.9 90.3 42.9 C 91.8 42.9 93.2 41.8 93.2 40.1 Z M 109.1 45 L 106.4 45 C 106.4 45 106.36 43.2 106.4 43.2 C 105.7 44.5 104.4 45.2 102.8 45.2 C 100.1 45.2 97.7 43.2 97.7 39.2 C 97.7 35.2 100.1 33.2 102.8 33.2 C 104.3 33.2 105.6 33.8 106.3 34.9 C 106.3 34.92 106.3 29 106.3 29 L 109.1 29 L 109.1 45 Z M 106.4 39.2 C 106.4 36.8 105 35.7 103.4 35.7 C 101.9 35.7 100.5 36.8 100.5 39.2 C 100.5 41.5 101.9 42.7 103.4 42.7 C 105 42.7 106.4 41.5 106.4 39.2 Z M 122.4 39.2 C 122.4 43 120 45.2 116.7 45.2 C 113.5 45.2 111.1 43 111.1 39.2 C 111.1 35.4 113.5 33.2 116.7 33.2 C 120 33.2 122.4 35.4 122.4 39.2 Z M 113.9 39.2 C 113.9 41.5 115.2 42.6 116.8 42.6 C 118.4 42.6 119.6 41.4 119.6 39.2 C 119.6 36.9 118.3 35.8 116.7 35.8 C 115.1 35.8 113.9 37 113.9 39.2 Z M 133.7 41.4 C 133.7 44 131.4 45.2 128.7 45.2 C 126.4 45.2 123.8 44.2 123.6 41.3 C 123.6 41.3 126.4 41.3 126.4 41.3 C 126.6 42.4 127.6 42.9 128.9 42.9 C 130.1 42.9 130.9 42.5 130.9 41.7 C 130.9 40.9 130.4 40.8 128.8 40.5 C 126.5 40.1 123.9 39.7 123.9 36.9 C 123.9 34.3 126.1 33.2 128.5 33.2 C 131.2 33.2 133.2 34.5 133.4 37.1 C 133.4 37.1 130.7 37.1 130.7 37.1 C 130.6 36 129.7 35.5 128.6 35.5 C 127.2 35.5 126.6 36.1 126.6 36.8 C 126.6 37.7 127.7 37.9 129.1 38.1 C 131.1 38.4 133.7 38.7 133.7 41.4 Z M 142.4 40 C 142.4 41.9 143.8 42.8 145.3 42.8 C 146.4 42.8 147.5 42.4 147.8 41.3 C 147.8 41.3 150.4 41.3 150.4 41.3 C 149.9 43.9 147.6 45.2 145.2 45.2 C 142.4 45.2 139.6 43.3 139.6 39.2 C 139.6 35.2 142.3 33.2 145.2 33.2 C 148 33.2 150.4 35 150.4 38.9 C 150.42 38.89 150.4 40 150.4 40 C 150.4 40 142.36 40.03 142.4 40 Z M 142.4 38 C 142.4 38 147.7 38 147.7 38 C 147.7 36.5 146.6 35.6 145.2 35.6 C 143.9 35.6 142.7 36.3 142.4 38 Z M 168.8 37.2 C 168.78 37.17 168.8 45 168.8 45 L 166 45 C 166 45 165.98 37.72 166 37.7 C 166 36.3 165.3 35.7 164.2 35.7 C 162.9 35.7 162 36.5 162 38.5 C 161.99 38.47 162 45 162 45 L 159.2 45 C 159.2 45 159.2 37.72 159.2 37.7 C 159.2 36.3 158.5 35.7 157.4 35.7 C 156.1 35.7 155.2 36.5 155.2 38.5 C 155.21 38.45 155.2 45 155.2 45 L 152.4 45 L 152.4 33.4 L 155.2 33.4 C 155.2 33.4 155.17 35.09 155.2 35.1 C 155.5 34.2 156.4 33.2 158.2 33.2 C 159.7 33.2 160.8 33.9 161.4 35.1 C 161.8 34.3 162.6 33.2 164.7 33.2 C 167.2 33.2 168.8 34.7 168.8 37.2 Z M 173.4 40 C 173.4 41.9 174.8 42.8 176.4 42.8 C 177.4 42.8 178.5 42.4 178.8 41.3 C 178.8 41.3 181.4 41.3 181.4 41.3 C 180.9 43.9 178.6 45.2 176.2 45.2 C 173.4 45.2 170.7 43.3 170.7 39.2 C 170.7 35.2 173.3 33.2 176.3 33.2 C 179.1 33.2 181.4 35 181.4 38.9 C 181.44 38.89 181.4 40 181.4 40 C 181.4 40 173.37 40.03 173.4 40 Z M 173.4 38 C 173.4 38 178.7 38 178.7 38 C 178.7 36.5 177.6 35.6 176.2 35.6 C 174.9 35.6 173.7 36.3 173.4 38 Z M 190 36 C 190 36 189.25 35.97 189.3 36 C 187.3 36 186.2 37 186.2 39.3 C 186.23 39.31 186.2 45 186.2 45 L 183.4 45 L 183.4 33.4 L 186.2 33.4 C 186.2 33.4 186.21 35.05 186.2 35 C 186.8 33.8 187.9 33.3 189.2 33.3 C 189.23 33.26 190 33.3 190 33.3 L 190 36 Z M 201.6 44.2 C 201.6 47.9 199.2 49.6 196.1 49.6 C 193.2 49.6 190.9 48.2 190.6 45.3 C 190.6 45.3 193.3 45.3 193.3 45.3 C 193.6 46.8 194.8 47.2 196.1 47.2 C 197.9 47.2 198.9 46.3 198.9 44.5 C 198.9 44.5 198.9 42.6 198.9 42.6 C 198.4 43.8 197.2 44.6 195.5 44.6 C 192.9 44.6 190.4 42.8 190.4 38.9 C 190.4 35 192.9 33.2 195.5 33.2 C 197.1 33.2 198.3 33.9 198.9 35 C 198.89 35.01 198.9 33.4 198.9 33.4 L 201.6 33.4 C 201.6 33.4 201.58 44.2 201.6 44.2 Z M 198.8 38.9 C 198.8 36.7 197.6 35.6 196.1 35.6 C 194.5 35.6 193.2 36.7 193.2 38.9 C 193.2 41.1 194.5 42.1 196.1 42.1 C 197.6 42.1 198.8 41.1 198.8 38.9 Z M 206.2 40 C 206.2 41.9 207.6 42.8 209.2 42.8 C 210.3 42.8 211.3 42.4 211.6 41.3 C 211.6 41.3 214.2 41.3 214.2 41.3 C 213.7 43.9 211.4 45.2 209 45.2 C 206.2 45.2 203.5 43.3 203.5 39.2 C 203.5 35.2 206.1 33.2 209.1 33.2 C 211.9 33.2 214.2 35 214.2 38.9 C 214.24 38.89 214.2 40 214.2 40 C 214.2 40 206.18 40.03 206.2 40 Z M 206.2 38 C 206.2 38 211.5 38 211.5 38 C 211.5 36.5 210.4 35.6 209 35.6 C 207.7 35.6 206.5 36.3 206.2 38 Z M 226.4 37.5 C 226.42 37.51 226.4 45 226.4 45 L 223.6 45 C 223.6 45 223.63 37.76 223.6 37.8 C 223.6 36.5 222.9 35.7 221.6 35.7 C 220 35.7 219 36.8 219 38.7 C 219.03 38.72 219 45 219 45 L 216.2 45 L 216.2 33.4 L 219 33.4 C 219 33.4 219.01 35.07 219 35.1 C 219.7 34 220.6 33.2 222.5 33.2 C 225.2 33.2 226.4 34.7 226.4 37.5 Z M 235 45 C 235 45 233.14 44.98 233.1 45 C 231 45 229.6 44.3 229.6 41.2 C 229.59 41.2 229.6 35.9 229.6 35.9 L 227.5 35.9 L 227.5 33.4 L 229.6 33.4 L 229.6 30.8 L 232.4 30 L 232.4 33.4 L 234.7 33.4 L 234.7 35.9 L 232.4 35.9 C 232.4 35.9 232.38 41.33 232.4 41.3 C 232.4 42 232.6 42.5 233.6 42.5 C 233.56 42.5 235 42.5 235 42.5 L 235 45 Z M 238.5 40 C 238.6 41.9 239.9 42.8 241.5 42.8 C 242.6 42.8 243.6 42.4 244 41.3 C 244 41.3 246.5 41.3 246.5 41.3 C 246 43.9 243.7 45.2 241.4 45.2 C 238.6 45.2 235.8 43.3 235.8 39.2 C 235.8 35.2 238.4 33.2 241.4 33.2 C 244.2 33.2 246.6 35 246.6 38.9 C 246.58 38.89 246.6 40 246.6 40 C 246.6 40 238.52 40.03 238.5 40 Z M 238.6 38 C 238.6 38 243.9 38 243.9 38 C 243.9 36.5 242.8 35.6 241.4 35.6 C 240.1 35.6 238.8 36.3 238.6 38 Z M 257.8 41.4 C 257.8 44 255.5 45.2 252.9 45.2 C 250.5 45.2 247.9 44.2 247.7 41.3 C 247.7 41.3 250.5 41.3 250.5 41.3 C 250.7 42.4 251.8 42.9 253.1 42.9 C 254.2 42.9 255.1 42.5 255.1 41.7 C 255.1 40.9 254.5 40.8 252.9 40.5 C 250.7 40.1 248.1 39.7 248.1 36.9 C 248.1 34.3 250.3 33.2 252.7 33.2 C 255.4 33.2 257.4 34.5 257.6 37.1 C 257.6 37.1 254.8 37.1 254.8 37.1 C 254.7 36 253.9 35.5 252.7 35.5 C 251.3 35.5 250.8 36.1 250.8 36.8 C 250.8 37.7 251.8 37.9 253.2 38.1 C 255.3 38.4 257.8 38.7 257.8 41.4 Z M 262.5 39.4 C 262.5 36.7 263.8 36.2 265.1 35.3 C 266.1 34.6 266.6 34 266.6 33.2 C 266.6 32 265.7 31.4 264.5 31.4 C 263 31.4 262.1 32.2 262 33.6 C 262 33.6 259.2 33.6 259.2 33.6 C 259.5 30.2 261.9 29 264.5 29 C 267.3 29 269.5 30.3 269.5 33.1 C 269.5 35.3 268.2 36.2 266.7 37.2 C 265.7 38 265.2 38.5 265.2 39.4 C 265.16 39.44 265.2 40.1 265.2 40.1 L 262.5 40.1 C 262.5 40.1 262.5 39.35 262.5 39.4 Z M 262.3 41.7 L 265.4 41.7 L 265.4 45 L 262.3 45 L 262.3 41.7 Z M 283.9 37.4 L 280.7 37.4 L 280.7 34.1 L 283.9 34.1 L 283.9 37.4 Z M 283.6 39.8 C 283.6 42.4 282.3 42.9 281 43.8 C 280 44.5 279.6 45.1 279.6 45.9 C 279.6 47.1 280.4 47.7 281.6 47.7 C 283.1 47.7 284 46.9 284.1 45.5 C 284.1 45.5 286.9 45.5 286.9 45.5 C 286.6 48.9 284.2 50.1 281.6 50.1 C 278.8 50.1 276.6 48.8 276.6 46 C 276.6 43.8 278 42.9 279.4 41.9 C 280.5 41.1 281 40.6 281 39.7 C 280.96 39.67 281 39 281 39 L 283.6 39 C 283.6 39 283.62 39.75 283.6 39.8 Z M 288.9 45 L 288.9 29.2 L 299.5 29.2 L 299.5 32 L 291.8 32 L 291.8 35.6 L 299.1 35.6 L 299.1 38.4 L 291.8 38.4 L 291.8 42.2 L 299.9 42.2 L 299.9 45 L 288.9 45 Z M 312.1 37.5 C 312.1 37.51 312.1 45 312.1 45 L 309.3 45 C 309.3 45 309.31 37.76 309.3 37.8 C 309.3 36.5 308.6 35.7 307.3 35.7 C 305.7 35.7 304.7 36.8 304.7 38.7 C 304.71 38.72 304.7 45 304.7 45 L 301.9 45 L 301.9 33.4 L 304.7 33.4 C 304.7 33.4 304.69 35.07 304.7 35.1 C 305.3 34 306.3 33.2 308.2 33.2 C 310.9 33.2 312.1 34.7 312.1 37.5 Z M 330.6 37.5 C 330.58 37.51 330.6 45 330.6 45 L 327.8 45 C 327.8 45 327.79 37.76 327.8 37.8 C 327.8 36.5 327.1 35.7 325.7 35.7 C 324.2 35.7 323.2 36.8 323.2 38.7 C 323.19 38.72 323.2 45 323.2 45 L 320.4 45 L 320.4 29 L 323.2 29 C 323.2 29 323.19 35.03 323.2 35 C 323.9 33.9 324.8 33.2 326.7 33.2 C 329.3 33.2 330.6 34.7 330.6 37.5 Z M 342.5 37.2 C 342.46 37.19 342.5 45 342.5 45 L 339.7 45 C 339.7 45 339.73 43.3 339.7 43.3 C 338.8 44.8 337.4 45.2 336.2 45.2 C 334.4 45.2 332.5 44.1 332.5 41.6 C 332.5 39.8 333.5 38.6 336.2 38.2 C 336.2 38.2 338.7 37.8 338.7 37.8 C 339.4 37.7 339.8 37.5 339.8 36.8 C 339.8 35.8 339 35.4 337.9 35.4 C 336.4 35.4 335.7 36.1 335.6 37.1 C 335.6 37.1 332.9 37.1 332.9 37.1 C 333.2 34.4 335.4 33.2 338 33.2 C 340.7 33.2 342.5 34.5 342.5 37.2 Z M 339.8 40.1 C 339.8 40.1 339.8 39.5 339.8 39.5 C 339.5 39.6 339 39.8 338.4 39.8 C 338.4 39.8 337.1 40 337.1 40 C 335.7 40.2 335.3 40.8 335.3 41.5 C 335.3 42.4 335.9 42.9 336.9 42.9 C 338.3 42.9 339.8 41.8 339.8 40.1 Z M 351.5 36 C 351.5 36 350.8 35.97 350.8 36 C 348.8 36 347.8 37 347.8 39.3 C 347.78 39.31 347.8 45 347.8 45 L 345 45 L 345 33.4 L 347.8 33.4 C 347.8 33.4 347.76 35.05 347.8 35 C 348.3 33.8 349.4 33.3 350.8 33.3 C 350.78 33.26 351.5 33.3 351.5 33.3 L 351.5 36 Z M 363.3 45 L 360.6 45 C 360.6 45 360.61 43.2 360.6 43.2 C 360 44.5 358.6 45.2 357 45.2 C 354.3 45.2 352 43.2 352 39.2 C 352 35.2 354.3 33.2 357 33.2 C 358.6 33.2 359.9 33.8 360.5 34.9 C 360.55 34.92 360.5 29 360.5 29 L 363.3 29 L 363.3 45 Z M 360.6 39.2 C 360.6 36.8 359.2 35.7 357.7 35.7 C 356.2 35.7 354.8 36.8 354.8 39.2 C 354.8 41.5 356.2 42.7 357.7 42.7 C 359.2 42.7 360.6 41.5 360.6 39.2 Z " stroke="none" fill="#000"/>  </g>  <g id="Polygon10771">    <path d="M 7.9 12.2 L 4.7 12.2 L 4.7 8.9 L 7.9 8.9 L 7.9 12.2 Z M 7.6 14.6 C 7.6 17.2 6.3 17.7 5 18.6 C 4 19.3 3.6 19.9 3.6 20.7 C 3.6 21.9 4.4 22.5 5.6 22.5 C 7.1 22.5 8 21.7 8.1 20.3 C 8.1 20.3 10.9 20.3 10.9 20.3 C 10.6 23.7 8.2 24.9 5.6 24.9 C 2.8 24.9 0.6 23.6 0.6 20.8 C 0.6 18.6 2 17.7 3.4 16.7 C 4.5 15.9 5 15.4 5 14.5 C 4.96 14.47 5 13.8 5 13.8 L 7.6 13.8 C 7.6 13.8 7.62 14.55 7.6 14.6 Z M 26.1 11.6 C 26.1 15.6 23.4 19.8 17.7 19.8 C 17.74 19.78 12.9 19.8 12.9 19.8 L 12.9 4 C 12.9 4 18.12 4.03 18.1 4 C 23.5 4 26.1 7.7 26.1 11.6 Z M 23.2 11.6 C 23.2 9.1 21.6 6.8 18.2 6.8 C 18.23 6.76 15.8 6.8 15.8 6.8 L 15.8 17 C 15.8 17 17.79 17.03 17.8 17 C 21.4 17 23.2 14.3 23.2 11.6 Z M 32 6.1 L 35.2 1.1 L 37.4 2.8 L 34.4 6.1 L 32 6.1 Z M 38.9 14 C 38.9 17.8 36.5 20 33.3 20 C 30 20 27.6 17.8 27.6 14 C 27.6 10.2 30 8 33.3 8 C 36.5 8 38.9 10.2 38.9 14 Z M 30.5 14 C 30.5 16.3 31.8 17.4 33.3 17.4 C 35 17.4 36.1 16.2 36.1 14 C 36.1 11.7 34.8 10.6 33.2 10.6 C 31.6 10.6 30.5 11.8 30.5 14 Z M 51.1 12.3 C 51.11 12.31 51.1 19.8 51.1 19.8 L 48.3 19.8 C 48.3 19.8 48.32 12.56 48.3 12.6 C 48.3 11.3 47.6 10.5 46.3 10.5 C 44.7 10.5 43.7 11.6 43.7 13.5 C 43.72 13.52 43.7 19.8 43.7 19.8 L 40.9 19.8 L 40.9 8.2 L 43.7 8.2 C 43.7 8.2 43.7 9.87 43.7 9.9 C 44.4 8.8 45.3 8 47.2 8 C 49.9 8 51.1 9.5 51.1 12.3 Z M 64.4 19.8 L 61.7 19.8 C 61.7 19.8 61.66 18 61.7 18 C 61 19.3 59.7 20 58.1 20 C 55.4 20 53 18 53 14 C 53 10 55.4 8 58.1 8 C 59.6 8 60.9 8.6 61.6 9.7 C 61.59 9.72 61.6 3.8 61.6 3.8 L 64.4 3.8 L 64.4 19.8 Z M 61.7 14 C 61.7 11.6 60.2 10.5 58.7 10.5 C 57.2 10.5 55.8 11.6 55.8 14 C 55.8 16.3 57.2 17.5 58.7 17.5 C 60.2 17.5 61.7 16.3 61.7 14 Z M 69.1 14.8 C 69.2 16.7 70.5 17.6 72.1 17.6 C 73.2 17.6 74.2 17.2 74.5 16.1 C 74.5 16.1 77.1 16.1 77.1 16.1 C 76.6 18.7 74.3 20 71.9 20 C 69.2 20 66.4 18.1 66.4 14 C 66.4 10 69 8 72 8 C 74.8 8 77.2 9.8 77.2 13.7 C 77.15 13.69 77.2 14.8 77.2 14.8 C 77.2 14.8 69.09 14.83 69.1 14.8 Z M 69.2 12.8 C 69.2 12.8 74.4 12.8 74.4 12.8 C 74.4 11.3 73.4 10.4 71.9 10.4 C 70.6 10.4 69.4 11.1 69.2 12.8 Z M 94.6 14 C 94.6 17.8 92.1 20 88.9 20 C 85.7 20 83.2 17.8 83.2 14 C 83.2 10.2 85.7 8 88.9 8 C 92.1 8 94.6 10.2 94.6 14 Z M 86.1 14 C 86.1 16.3 87.4 17.4 88.9 17.4 C 90.6 17.4 91.7 16.2 91.7 14 C 91.7 11.7 90.4 10.6 88.9 10.6 C 87.2 10.6 86.1 11.8 86.1 14 Z M 107.9 14 C 107.9 18.1 105.4 20 102.7 20 C 101.3 20 100 19.5 99.3 18.4 C 99.29 18.4 99.3 19.8 99.3 19.8 L 96.6 19.8 L 96.6 3.8 L 99.4 3.8 C 99.4 3.8 99.35 9.89 99.4 9.9 C 100 8.7 101.3 8 102.9 8 C 105.6 8 107.9 10 107.9 14 Z M 105.1 14 C 105.1 11.7 103.7 10.5 102.2 10.5 C 100.7 10.5 99.3 11.7 99.3 14 C 99.3 16.4 100.7 17.6 102.2 17.6 C 103.7 17.6 105.1 16.4 105.1 14 Z M 119.2 16.2 C 119.2 18.8 116.9 20 114.3 20 C 111.9 20 109.3 19 109.1 16.1 C 109.1 16.1 111.9 16.1 111.9 16.1 C 112.1 17.2 113.1 17.7 114.4 17.7 C 115.6 17.7 116.4 17.3 116.4 16.5 C 116.4 15.7 115.9 15.6 114.3 15.3 C 112 14.9 109.5 14.5 109.5 11.7 C 109.5 9.1 111.7 8 114.1 8 C 116.8 8 118.8 9.3 118.9 11.9 C 118.9 11.9 116.2 11.9 116.2 11.9 C 116.1 10.8 115.3 10.3 114.1 10.3 C 112.7 10.3 112.2 10.9 112.2 11.6 C 112.2 12.5 113.2 12.7 114.6 12.9 C 116.7 13.2 119.2 13.5 119.2 16.2 Z M 123.1 14.8 C 123.1 16.7 124.5 17.6 126 17.6 C 127.1 17.6 128.2 17.2 128.5 16.1 C 128.5 16.1 131.1 16.1 131.1 16.1 C 130.6 18.7 128.3 20 125.9 20 C 123.1 20 120.4 18.1 120.4 14 C 120.4 10 123 8 125.9 8 C 128.8 8 131.1 9.8 131.1 13.7 C 131.12 13.69 131.1 14.8 131.1 14.8 C 131.1 14.8 123.06 14.83 123.1 14.8 Z M 123.1 12.8 C 123.1 12.8 128.4 12.8 128.4 12.8 C 128.4 11.3 127.3 10.4 125.9 10.4 C 124.6 10.4 123.4 11.1 123.1 12.8 Z M 139.7 10.8 C 139.7 10.8 138.94 10.77 138.9 10.8 C 137 10.8 135.9 11.8 135.9 14.1 C 135.91 14.11 135.9 19.8 135.9 19.8 L 133.1 19.8 L 133.1 8.2 L 135.9 8.2 C 135.9 8.2 135.89 9.85 135.9 9.8 C 136.5 8.6 137.5 8.1 138.9 8.1 C 138.91 8.06 139.7 8.1 139.7 8.1 L 139.7 10.8 Z M 147.3 19.8 L 144.4 19.8 L 140.1 8.2 L 143.1 8.2 L 145.9 16.5 L 148.7 8.2 L 151.6 8.2 L 147.3 19.8 Z M 162.1 12 C 162.06 11.99 162.1 19.8 162.1 19.8 L 159.3 19.8 C 159.3 19.8 159.33 18.1 159.3 18.1 C 158.4 19.6 157 20 155.8 20 C 154 20 152.1 18.9 152.1 16.4 C 152.1 14.6 153.1 13.4 155.8 13 C 155.8 13 158.3 12.6 158.3 12.6 C 158.9 12.5 159.4 12.3 159.4 11.6 C 159.4 10.6 158.6 10.2 157.5 10.2 C 156 10.2 155.3 10.9 155.2 11.9 C 155.2 11.9 152.5 11.9 152.5 11.9 C 152.8 9.2 155 8 157.6 8 C 160.3 8 162.1 9.3 162.1 12 Z M 159.3 14.9 C 159.3 14.9 159.3 14.3 159.3 14.3 C 159.1 14.4 158.5 14.6 158 14.6 C 158 14.6 156.7 14.8 156.7 14.8 C 155.3 15 154.9 15.6 154.9 16.3 C 154.9 17.2 155.5 17.7 156.5 17.7 C 157.9 17.7 159.3 16.6 159.3 14.9 Z M 180 14 C 180 17.8 177.6 20 174.3 20 C 171.1 20 168.7 17.8 168.7 14 C 168.7 10.2 171.1 8 174.3 8 C 177.6 8 180 10.2 180 14 Z M 171.5 14 C 171.5 16.3 172.8 17.4 174.4 17.4 C 176 17.4 177.1 16.2 177.1 14 C 177.1 11.7 175.9 10.6 174.3 10.6 C 172.6 10.6 171.5 11.8 171.5 14 Z M 193.4 13.8 C 193.4 18 190.8 19.9 188.1 19.9 C 186.5 19.9 185.4 19.2 184.8 18.4 C 184.78 18.4 184.8 24.1 184.8 24.1 L 182 24.1 L 182 8.2 L 184.7 8.2 C 184.7 8.2 184.71 10.04 184.7 10 C 185.3 8.8 186.6 8 188.3 8 C 191 8 193.4 9.9 193.4 13.8 Z M 190.5 14 C 190.5 11.6 189.1 10.5 187.6 10.5 C 186.1 10.5 184.7 11.6 184.7 14 C 184.7 16.3 186.1 17.4 187.6 17.4 C 189.1 17.4 190.5 16.3 190.5 14 Z M 205.9 14 C 205.9 17.8 203.5 20 200.3 20 C 197 20 194.6 17.8 194.6 14 C 194.6 10.2 197 8 200.3 8 C 203.5 8 205.9 10.2 205.9 14 Z M 197.5 14 C 197.5 16.3 198.8 17.4 200.3 17.4 C 202 17.4 203.1 16.2 203.1 14 C 203.1 11.7 201.8 10.6 200.3 10.6 C 198.6 10.6 197.5 11.8 197.5 14 Z M 214.5 10.8 C 214.5 10.8 213.76 10.77 213.8 10.8 C 211.8 10.8 210.7 11.8 210.7 14.1 C 210.73 14.11 210.7 19.8 210.7 19.8 L 207.9 19.8 L 207.9 8.2 L 210.7 8.2 C 210.7 8.2 210.71 9.85 210.7 9.8 C 211.3 8.6 212.4 8.1 213.7 8.1 C 213.74 8.06 214.5 8.1 214.5 8.1 L 214.5 10.8 Z M 222.2 19.8 C 222.2 19.8 220.37 19.78 220.4 19.8 C 218.2 19.8 216.8 19.1 216.8 16 C 216.82 16 216.8 10.7 216.8 10.7 L 214.7 10.7 L 214.7 8.2 L 216.8 8.2 L 216.8 5.6 L 219.6 4.8 L 219.6 8.2 L 221.9 8.2 L 221.9 10.7 L 219.6 10.7 C 219.6 10.7 219.62 16.13 219.6 16.1 C 219.6 16.8 219.8 17.3 220.8 17.3 C 220.79 17.3 222.2 17.3 222.2 17.3 L 222.2 19.8 Z M 233.9 19.8 L 231.2 19.8 C 231.2 19.8 231.19 18.14 231.2 18.1 C 230.5 19.2 229.5 19.9 227.8 19.9 C 225.4 19.9 223.7 18.4 223.7 15.4 C 223.67 15.39 223.7 8.2 223.7 8.2 L 226.5 8.2 C 226.5 8.2 226.46 15.18 226.5 15.2 C 226.5 16.8 227.2 17.4 228.4 17.4 C 230 17.4 231.1 16.5 231.1 13.8 C 231.12 13.8 231.1 8.2 231.1 8.2 L 233.9 8.2 L 233.9 19.8 Z M 246.8 12.3 C 246.83 12.31 246.8 19.8 246.8 19.8 L 244 19.8 C 244 19.8 244.04 12.56 244 12.6 C 244 11.3 243.3 10.5 242 10.5 C 240.4 10.5 239.4 11.6 239.4 13.5 C 239.44 13.52 239.4 19.8 239.4 19.8 L 236.6 19.8 L 236.6 8.2 L 239.4 8.2 C 239.4 8.2 239.42 9.87 239.4 9.9 C 240.1 8.8 241 8 242.9 8 C 245.6 8 246.8 9.5 246.8 12.3 Z M 249.4 6.7 L 252.3 6.7 L 252.3 3.5 L 249.4 3.5 L 249.4 6.7 Z M 249.4 8.2 L 252.2 8.2 L 252.2 19.8 L 249.4 19.8 L 249.4 8.2 Z M 265.6 19.8 L 262.9 19.8 C 262.9 19.8 262.85 18 262.9 18 C 262.2 19.3 260.9 20 259.3 20 C 256.6 20 254.2 18 254.2 14 C 254.2 10 256.6 8 259.3 8 C 260.8 8 262.1 8.6 262.8 9.7 C 262.79 9.72 262.8 3.8 262.8 3.8 L 265.6 3.8 L 265.6 19.8 Z M 262.9 14 C 262.9 11.6 261.4 10.5 259.9 10.5 C 258.4 10.5 257 11.6 257 14 C 257 16.3 258.4 17.5 259.9 17.5 C 261.4 17.5 262.9 16.3 262.9 14 Z M 277.6 12 C 277.58 11.99 277.6 19.8 277.6 19.8 L 274.8 19.8 C 274.8 19.8 274.85 18.1 274.8 18.1 C 273.9 19.6 272.6 20 271.3 20 C 269.5 20 267.6 18.9 267.6 16.4 C 267.6 14.6 268.6 13.4 271.3 13 C 271.3 13 273.8 12.6 273.8 12.6 C 274.5 12.5 275 12.3 275 11.6 C 275 10.6 274.1 10.2 273 10.2 C 271.5 10.2 270.8 10.9 270.7 11.9 C 270.7 11.9 268 11.9 268 11.9 C 268.3 9.2 270.5 8 273.1 8 C 275.9 8 277.6 9.3 277.6 12 Z M 274.9 14.9 C 274.9 14.9 274.9 14.3 274.9 14.3 C 274.6 14.4 274.1 14.6 273.5 14.6 C 273.5 14.6 272.2 14.8 272.2 14.8 C 270.8 15 270.4 15.6 270.4 16.3 C 270.4 17.2 271 17.7 272 17.7 C 273.4 17.7 274.9 16.6 274.9 14.9 Z M 290.7 19.8 L 288 19.8 C 288 19.8 288.01 18 288 18 C 287.4 19.3 286 20 284.4 20 C 281.7 20 279.4 18 279.4 14 C 279.4 10 281.7 8 284.4 8 C 286 8 287.3 8.6 287.9 9.7 C 287.95 9.72 287.9 3.8 287.9 3.8 L 290.7 3.8 L 290.7 19.8 Z M 288 14 C 288 11.6 286.6 10.5 285.1 10.5 C 283.6 10.5 282.2 11.6 282.2 14 C 282.2 16.3 283.6 17.5 285.1 17.5 C 286.6 17.5 288 16.3 288 14 Z M 295.4 14.8 C 295.5 16.7 296.9 17.6 298.4 17.6 C 299.5 17.6 300.6 17.2 300.9 16.1 C 300.9 16.1 303.5 16.1 303.5 16.1 C 303 18.7 300.7 20 298.3 20 C 295.5 20 292.7 18.1 292.7 14 C 292.7 10 295.4 8 298.3 8 C 301.1 8 303.5 9.8 303.5 13.7 C 303.51 13.69 303.5 14.8 303.5 14.8 C 303.5 14.8 295.45 14.83 295.4 14.8 Z M 295.5 12.8 C 295.5 12.8 300.8 12.8 300.8 12.8 C 300.8 11.3 299.7 10.4 298.3 10.4 C 297 10.4 295.8 11.1 295.5 12.8 Z M 314.8 16.2 C 314.8 18.8 312.5 20 309.9 20 C 307.5 20 304.9 19 304.7 16.1 C 304.7 16.1 307.5 16.1 307.5 16.1 C 307.7 17.2 308.7 17.7 310 17.7 C 311.2 17.7 312 17.3 312 16.5 C 312 15.7 311.5 15.6 309.9 15.3 C 307.6 14.9 305 14.5 305 11.7 C 305 9.1 307.2 8 309.6 8 C 312.3 8 314.3 9.3 314.5 11.9 C 314.5 11.9 311.8 11.9 311.8 11.9 C 311.7 10.8 310.8 10.3 309.7 10.3 C 308.3 10.3 307.7 10.9 307.7 11.6 C 307.7 12.5 308.8 12.7 310.2 12.9 C 312.2 13.2 314.8 13.5 314.8 16.2 Z M 323.5 14.8 C 323.5 16.7 324.9 17.6 326.4 17.6 C 327.5 17.6 328.6 17.2 328.9 16.1 C 328.9 16.1 331.5 16.1 331.5 16.1 C 331 18.7 328.7 20 326.3 20 C 323.5 20 320.8 18.1 320.8 14 C 320.8 10 323.4 8 326.3 8 C 329.2 8 331.5 9.8 331.5 13.7 C 331.52 13.69 331.5 14.8 331.5 14.8 C 331.5 14.8 323.46 14.83 323.5 14.8 Z M 323.5 12.8 C 323.5 12.8 328.8 12.8 328.8 12.8 C 328.8 11.3 327.7 10.4 326.3 10.4 C 325 10.4 323.8 11.1 323.5 12.8 Z M 343.7 12.3 C 343.7 12.31 343.7 19.8 343.7 19.8 L 340.9 19.8 C 340.9 19.8 340.91 12.56 340.9 12.6 C 340.9 11.3 340.2 10.5 338.9 10.5 C 337.3 10.5 336.3 11.6 336.3 13.5 C 336.31 13.52 336.3 19.8 336.3 19.8 L 333.5 19.8 L 333.5 8.2 L 336.3 8.2 C 336.3 8.2 336.29 9.87 336.3 9.9 C 336.9 8.8 337.9 8 339.8 8 C 342.5 8 343.7 9.5 343.7 12.3 Z " stroke="none" fill="#000"/>  </g></svg>