<?xml version="1.0" standalone="no"?><!DOCTYPE svg PUBLIC "-//W3C//DTD SVG 1.1//EN" "http://www.w3.org/Graphics/SVG/1.1/DTD/svg11.dtd"><svg xmlns="http://www.w3.org/2000/svg" version="1.1" width="76px" height="160.2px" viewBox="0 -12 76 160.2" style="top:-12px"> <desc>6</desc> <defs/> <g id="Polygon11480">  <path d="M 47.1 23.2 C 32.9 23.2 19.2 33.8 16.8 50.3 C 21.3 45.2 27.4 42.9 33.1 42.9 C 43.2 42.9 52.8 49.9 52.8 63.2 C 52.8 74.8 45.5 85.8 29.4 85.8 C 11.6 85.8 2.1 72.4 2.1 57.1 C 2.1 38.9 15.8 17.8 42.5 17.8 C 42.48 17.82 47.1 17.8 47.1 17.8 C 47.1 17.8 47.07 23.22 47.1 23.2 Z M 16.5 60.7 C 16.5 69.1 20 81.2 28.6 81.2 C 35.1 81.2 38.7 74.3 38.7 66.7 C 38.7 57.5 33.5 51.7 26.9 51.7 C 23.9 51.7 20.4 53 17.1 55.6 C 16.7 57 16.5 58.8 16.5 60.7 Z " stroke="none" fill="#000"/> </g></svg>