<?xml version="1.0" standalone="no"?><!DOCTYPE svg PUBLIC "-//W3C//DTD SVG 1.1//EN" "http://www.w3.org/Graphics/SVG/1.1/DTD/svg11.dtd"><svg xmlns="http://www.w3.org/2000/svg" version="1.1" width="479px" height="181.4px" viewBox="0 -4 479 181.4" style="top:-4px"><desc>As an active manager, what levers are you going to use to deliver attractive returns despite low initial yields</desc><defs/><g id="Polygon12828"><path d="m4.2 70.2H1.4v-16h2.8v16zm13.3-5.8c0 3.8-2.4 6-5.7 6c-3.2 0-5.6-2.2-5.6-6c0-3.8 2.4-6 5.6-6c3.3 0 5.7 2.2 5.7 6zm-8.5 0c0 2.3 1.3 3.4 2.8 3.4c1.7 0 2.8-1.2 2.8-3.4c0-2.3-1.3-3.4-2.8-3.4c-1.7 0-2.8 1.2-2.8 3.4zm22.9 5.8h-2.6l-2.4-7.4l-2.4 7.4h-2.6L18 58.6h3l2.3 7.7l2.3-7.7h2.7l2.4 7.7l2.2-7.7h2.9l-3.9 11.6zm10.5-13.1h3v-3.2h-3v3.2zm.1 1.5h2.8v11.6h-2.8V58.6zm15.7 4.1v7.5h-2.8V63c0-1.3-.7-2.1-2-2.1c-1.6 0-2.6 1.1-2.6 3v6.3H48V58.6h2.8s-.02 1.67 0 1.7c.6-1.1 1.6-1.9 3.5-1.9c2.7 0 3.9 1.5 3.9 4.3zm2.5-5.6h3v-3.2h-3v3.2zm.1 1.5h2.8v11.6h-2.8V58.6zm11.4 11.6s-1.81-.02-1.8 0c-2.2 0-3.6-.7-3.6-3.8c.04 0 0-5.3 0-5.3h-2.1v-2.5h2.1V56l2.8-.8v3.4h2.3v2.5h-2.3s.03 5.43 0 5.4c0 .7.2 1.2 1.2 1.2h1.4v2.5zm1.5-13.1h2.9v-3.2h-2.9v3.2zm.1 1.5h2.8v11.6h-2.8V58.6zm14.7 3.8c.03-.01 0 7.8 0 7.8h-2.7v-1.7c-.9 1.5-2.3 1.9-3.5 1.9c-1.9 0-3.8-1.1-3.8-3.6c0-1.8 1.1-3 3.7-3.4l2.5-.4c.7-.1 1.2-.3 1.2-1c0-1-.8-1.4-1.9-1.4c-1.5 0-2.2.7-2.3 1.7H79c.3-2.7 2.5-3.9 5.1-3.9c2.7 0 4.4 1.3 4.4 4zm-2.7 2.9v-.6c-.2.1-.8.3-1.3.3l-1.3.2c-1.4.2-1.9.8-1.9 1.5c0 .9.7 1.4 1.6 1.4c1.5 0 2.9-1.1 2.9-2.8zm8 4.9h-2.7v-16h2.7v16zm18-11.6s-5.08 13.32-5.1 13.3c-.5 1.4-1.7 2-3.3 2c.04-.02-1.7 0-1.7 0v-2.5h1.3c.9 0 1.3-.3 1.6-1.1l.2-.6l-4.3-11.1h2.9l2.8 7.6l2.7-7.6h2.9zm1.2-1.5h3v-3.2h-3v3.2zm.1 1.5h2.8v11.6h-2.8V58.6zm7.5 6.6c0 1.9 1.4 2.8 3 2.8c1.1 0 2.1-.4 2.4-1.5h2.6c-.5 2.6-2.8 3.9-5.2 3.9c-2.8 0-5.5-1.9-5.5-6c0-4 2.6-6 5.6-6c2.8 0 5.1 1.8 5.1 5.7c.04-.01 0 1.1 0 1.1c0 0-8.02.03-8 0zm0-2h5.3c0-1.5-1.1-2.4-2.5-2.4c-1.3 0-2.5.7-2.8 2.4zm12.8 7h-2.8v-16h2.8v16zm13.4 0h-2.7s-.02-1.8 0-1.8c-.7 1.3-2 2-3.6 2c-2.7 0-5.1-2-5.1-6c0-4 2.4-6 5.1-6c1.5 0 2.8.6 3.5 1.7v-5.9h2.8v16zm-2.7-5.8c0-2.4-1.4-3.5-2.9-3.5c-1.6 0-2.9 1.1-2.9 3.5c0 2.3 1.3 3.5 2.9 3.5c1.5 0 2.9-1.2 2.9-3.5zm14.7 2.2c0 2.6-2.3 3.8-4.9 3.8c-2.4 0-5-1-5.2-3.9h2.8c.2 1.1 1.2 1.6 2.5 1.6c1.2 0 2-.4 2-1.2c0-.8-.5-.9-2.1-1.2c-2.3-.4-4.8-.8-4.8-3.6c0-2.6 2.2-3.7 4.6-3.7c2.7 0 4.7 1.3 4.8 3.9h-2.7c-.1-1.1-.9-1.6-2.1-1.6c-1.4 0-1.9.6-1.9 1.3c0 .9 1 1.1 2.4 1.3c2.1.3 4.6.6 4.6 3.3zm4.7-2c0-2.7 1.3-3.2 2.6-4.1c1-.7 1.4-1.3 1.4-2.1c0-1.2-.8-1.8-2.1-1.8c-1.4 0-2.3.8-2.4 2.2h-2.8c.2-3.4 2.7-4.6 5.3-4.6c2.8 0 5 1.3 5 4.1c0 2.2-1.4 3.1-2.8 4.1c-1.1.8-1.6 1.3-1.6 2.2c.03.04 0 .7 0 .7h-2.6s-.04-.75 0-.7zm-.3 2.3h3.2v3.3h-3.2v-3.3z" stroke="none" fill="#000"/></g><g id="Polygon12827"><path d="m11.8 44.2c0 3.7-2.4 5.4-5.5 5.4c-2.8 0-5.2-1.4-5.5-4.3h2.7c.3 1.5 1.5 1.9 2.8 1.9c1.8 0 2.8-.9 2.8-2.7v-1.9c-.5 1.2-1.6 2-3.4 2c-2.6 0-5.1-1.8-5.1-5.7c0-3.9 2.5-5.7 5.1-5.7c1.6 0 2.8.7 3.4 1.8v-1.6h2.7v10.8zM9 38.9c0-2.2-1.2-3.3-2.7-3.3c-1.6 0-2.9 1.1-2.9 3.3c0 2.2 1.3 3.2 2.9 3.2c1.5 0 2.7-1 2.7-3.2zm16 .3c0 3.8-2.4 6-5.7 6c-3.2 0-5.6-2.2-5.6-6c0-3.8 2.4-6 5.6-6c3.3 0 5.7 2.2 5.7 6zm-8.5 0c0 2.3 1.3 3.4 2.9 3.4c1.6 0 2.8-1.2 2.8-3.4c0-2.3-1.3-3.4-2.9-3.4c-1.6 0-2.8 1.2-2.8 3.4zm10.4-7.3h3v-3.2h-3v3.2zm.1 1.5h2.8V45H27V33.4zm15.7 4.1c-.03.01 0 7.5 0 7.5h-2.8s-.02-7.24 0-7.2c0-1.3-.8-2.1-2.1-2.1c-1.6 0-2.5 1.1-2.5 3c-.02.02 0 6.3 0 6.3h-2.8V33.4h2.8s-.04 1.67 0 1.7c.6-1.1 1.6-1.9 3.5-1.9c2.6 0 3.9 1.5 3.9 4.3zm13 6.7c0 3.7-2.4 5.4-5.5 5.4c-2.8 0-5.1-1.4-5.5-4.3h2.7c.3 1.5 1.5 1.9 2.8 1.9c1.8 0 2.8-.9 2.8-2.7v-1.9c-.5 1.2-1.6 2-3.4 2c-2.6 0-5-1.8-5-5.7c0-3.9 2.4-5.7 5-5.7c1.7 0 2.9.7 3.4 1.8c.05.01 0-1.6 0-1.6h2.7s.03 10.8 0 10.8zm-2.8-5.3c0-2.2-1.2-3.3-2.7-3.3c-1.5 0-2.9 1.1-2.9 3.3c0 2.2 1.4 3.2 2.9 3.2c1.5 0 2.7-1 2.7-3.2zM69.7 45s-1.79-.02-1.8 0c-2.1 0-3.5-.7-3.5-3.8c-.04 0 0-5.3 0-5.3h-2.2v-2.5h2.2v-2.6l2.8-.8v3.4h2.3v2.5h-2.3s-.04 5.43 0 5.4c0 .7.1 1.2 1.1 1.2h1.4v2.5zm12.2-5.8c0 3.8-2.4 6-5.7 6c-3.2 0-5.6-2.2-5.6-6c0-3.8 2.4-6 5.6-6c3.3 0 5.7 2.2 5.7 6zm-8.5 0c0 2.3 1.3 3.4 2.9 3.4c1.6 0 2.7-1.2 2.7-3.4c0-2.3-1.2-3.4-2.8-3.4c-1.7 0-2.8 1.2-2.8 3.4zM99.3 45h-2.7s-.04-1.66 0-1.7c-.7 1.1-1.8 1.8-3.4 1.8c-2.4 0-4.2-1.5-4.2-4.5c.04-.01 0-7.2 0-7.2h2.8s.03 6.98 0 7c0 1.6.8 2.2 2 2.2c1.6 0 2.7-.9 2.7-3.6v-5.6h2.8V45zm12-3.6c0 2.6-2.3 3.8-4.9 3.8c-2.4 0-5-1-5.2-3.9h2.8c.2 1.1 1.2 1.6 2.5 1.6c1.2 0 2-.4 2-1.2c0-.8-.5-.9-2.1-1.2c-2.3-.4-4.9-.8-4.9-3.6c0-2.6 2.2-3.7 4.6-3.7c2.7 0 4.7 1.3 4.9 3.9h-2.7c-.1-1.1-.9-1.6-2.1-1.6c-1.4 0-2 .6-2 1.3c0 .9 1.1 1.1 2.5 1.3c2.1.3 4.6.6 4.6 3.3zm3.8-1.4c.1 1.9 1.4 2.8 3 2.8c1.1 0 2.2-.4 2.5-1.5h2.6c-.5 2.6-2.8 3.9-5.2 3.9c-2.8 0-5.6-1.9-5.6-6c0-4 2.7-6 5.6-6c2.8 0 5.2 1.8 5.2 5.7c.01-.01 0 1.1 0 1.1c0 0-8.06.03-8.1 0zm.1-2h5.3c0-1.5-1.1-2.4-2.5-2.4c-1.3 0-2.5.7-2.8 2.4zm21 7s-1.86-.02-1.9 0c-2.1 0-3.5-.7-3.5-3.8v-5.3h-2.1v-2.5h2.1v-2.6l2.8-.8v3.4h2.3v2.5h-2.3s-.02 5.43 0 5.4c0 .7.2 1.2 1.2 1.2h1.4v2.5zm12.1-5.8c0 3.8-2.4 6-5.6 6c-3.3 0-5.7-2.2-5.7-6c0-3.8 2.4-6 5.7-6c3.2 0 5.6 2.2 5.6 6zm-8.4 0c0 2.3 1.2 3.4 2.8 3.4c1.7 0 2.8-1.2 2.8-3.4c0-2.3-1.3-3.4-2.9-3.4c-1.6 0-2.7 1.2-2.7 3.4zm25.9 5.8h-2.7s-.04-1.8 0-1.8c-.7 1.3-2 2-3.6 2c-2.7 0-5.1-2-5.1-6c0-4 2.4-6 5.1-6c1.5 0 2.8.6 3.5 1.7V29h2.8v16zm-2.7-5.8c0-2.4-1.4-3.5-3-3.5c-1.5 0-2.9 1.1-2.9 3.5c0 2.3 1.4 3.5 2.9 3.5c1.6 0 3-1.2 3-3.5zm7.4.8c.1 1.9 1.4 2.8 3 2.8c1.1 0 2.1-.4 2.5-1.5h2.5c-.5 2.6-2.8 3.9-5.1 3.9c-2.8 0-5.6-1.9-5.6-6c0-4 2.6-6 5.6-6c2.8 0 5.2 1.8 5.2 5.7c-.04-.01 0 1.1 0 1.1c0 0-8.1.03-8.1 0zm.1-2h5.2c0-1.5-1-2.4-2.5-2.4c-1.2 0-2.5.7-2.7 2.4zm12.7 7h-2.7v-16h2.7v16zm2.7-13.1h2.9v-3.2H186v3.2zm.1 1.5h2.8V45h-2.8V33.4zM197.4 45h-2.9l-4.3-11.6h3l2.8 8.3l2.8-8.3h2.9L197.4 45zm7.5-5c0 1.9 1.4 2.8 3 2.8c1 0 2.1-.4 2.4-1.5h2.6c-.5 2.6-2.8 3.9-5.2 3.9c-2.8 0-5.5-1.9-5.5-6c0-4 2.6-6 5.6-6c2.8 0 5.1 1.8 5.1 5.7c.04-.01 0 1.1 0 1.1c0 0-8.03.03-8 0zm0-2h5.3c0-1.5-1.1-2.4-2.5-2.4c-1.3 0-2.5.7-2.8 2.4zm16.6-2s-.75-.03-.8 0c-1.9 0-3 1-3 3.3c.03.01 0 5.7 0 5.7h-2.8V33.4h2.8v1.6c.6-1.2 1.7-1.7 3-1.7c.03-.04.8 0 .8 0v2.7zm15.7 1.2c-.05-.01 0 7.8 0 7.8h-2.8s.02-1.7 0-1.7c-.9 1.5-2.3 1.9-3.5 1.9c-1.8 0-3.7-1.1-3.7-3.6c0-1.8 1-3 3.7-3.4l2.4-.4c.7-.1 1.2-.3 1.2-1c0-1-.8-1.4-1.9-1.4c-1.5 0-2.2.7-2.3 1.7h-2.7c.3-2.7 2.5-3.9 5.1-3.9c2.7 0 4.5 1.3 4.5 4zm-2.8 2.9v-.6c-.2.1-.8.3-1.3.3l-1.3.2c-1.4.2-1.9.8-1.9 1.5c0 .9.7 1.4 1.7 1.4c1.4 0 2.8-1.1 2.8-2.8zm18.2 4.9s-1.82-.02-1.8 0c-2.2 0-3.6-.7-3.6-3.8c.03 0 0-5.3 0-5.3H243v5.4c0 .7.2 1.2 1.2 1.2h1.4v2.5s-1.83-.02-1.8 0c-2.2 0-3.6-.7-3.6-3.8c.02 0 0-5.3 0-5.3h-2.1v-2.5h2.1v-2.6l2.8-.8v3.4h4.2v-2.6l2.8-.8v3.4h2.3v2.5H250s.02 5.43 0 5.4c0 .7.2 1.2 1.2 1.2h1.4v2.5zm8.1-9s-.7-.03-.7 0c-2 0-3 1-3 3.3c-.03.01 0 5.7 0 5.7h-2.8V33.4h2.8s-.05 1.65 0 1.6c.5-1.2 1.6-1.7 3-1.7c-.02-.04.7 0 .7 0v2.7zm10.7 1.2c-.04-.01 0 7.8 0 7.8h-2.8s.03-1.7 0-1.7c-.9 1.5-2.3 1.9-3.5 1.9c-1.8 0-3.7-1.1-3.7-3.6c0-1.8 1-3 3.7-3.4l2.5-.4c.7-.1 1.1-.3 1.1-1c0-1-.8-1.4-1.9-1.4c-1.5 0-2.2.7-2.3 1.7h-2.7c.3-2.7 2.5-3.9 5.1-3.9c2.7 0 4.5 1.3 4.5 4zm-2.7 2.9v-.6c-.3.1-.8.3-1.4.3l-1.3.2c-1.4.2-1.8.8-1.8 1.5c0 .9.6 1.4 1.6 1.4c1.4 0 2.9-1.1 2.9-2.8zm10.1 5.1c-3.8 0-5.7-2.9-5.7-6c0-3.1 1.8-6 5.7-6c2.8 0 5 1.6 5.1 4.4h-2.8c-.1-1.1-.9-1.9-2.3-1.9c-2 0-2.8 1.7-2.8 3.5c0 1.9.8 3.4 2.8 3.4c1.4 0 2.2-.7 2.4-1.7h2.7c-.3 2.8-2.3 4.3-5.1 4.3zm13.1-.2s-1.85-.02-1.9 0c-2.1 0-3.5-.7-3.5-3.8v-5.3h-2.1v-2.5h2.1v-2.6l2.8-.8v3.4h2.3v2.5h-2.3v5.4c0 .7.2 1.2 1.2 1.2h1.4v2.5zm1.4-13.1h3v-3.2h-3v3.2zm.1 1.5h2.8V45h-2.8V33.4zM304.8 45h-2.9l-4.3-11.6h2.9l2.9 8.3l2.8-8.3h2.9L304.8 45zm7.4-5c.1 1.9 1.5 2.8 3 2.8c1.1 0 2.2-.4 2.5-1.5h2.6c-.5 2.6-2.8 3.9-5.2 3.9c-2.8 0-5.6-1.9-5.6-6c0-4 2.7-6 5.6-6c2.8 0 5.2 1.8 5.2 5.7c.01-.01 0 1.1 0 1.1c0 0-8.05.03-8.1 0zm.1-2h5.3c0-1.5-1.1-2.4-2.5-2.4c-1.3 0-2.5.7-2.8 2.4zm21.8-2s-.73-.03-.7 0c-2 0-3.1 1-3.1 3.3c.05.01 0 5.7 0 5.7h-2.7V33.4h2.7s.03 1.65 0 1.6c.6-1.2 1.7-1.7 3.1-1.7c-.05-.04.7 0 .7 0v2.7zm3.1 4c.1 1.9 1.4 2.8 3 2.8c1.1 0 2.2-.4 2.5-1.5h2.6c-.5 2.6-2.8 3.9-5.2 3.9c-2.8 0-5.6-1.9-5.6-6c0-4 2.7-6 5.6-6c2.8 0 5.2 1.8 5.2 5.7v1.1s-8.06.03-8.1 0zm.1-2h5.3c0-1.5-1.1-2.4-2.5-2.4c-1.3 0-2.5.7-2.8 2.4zm15.9 7s-1.81-.02-1.8 0c-2.2 0-3.6-.7-3.6-3.8c.04 0 0-5.3 0-5.3h-2.1v-2.5h2.1v-2.6l2.8-.8v3.4h2.3v2.5h-2.3s.03 5.43 0 5.4c0 .7.2 1.2 1.2 1.2h1.4v2.5zm11.7 0h-2.7v-1.7c-.7 1.1-1.7 1.8-3.3 1.8c-2.4 0-4.2-1.5-4.2-4.5c-.01-.01 0-7.2 0-7.2h2.8s-.02 6.98 0 7c0 1.6.8 2.2 2 2.2c1.5 0 2.6-.9 2.6-3.6c.04 0 0-5.6 0-5.6h2.8V45zm9.3-9s-.72-.03-.7 0c-2 0-3 1-3 3.3c-.04.01 0 5.7 0 5.7h-2.8V33.4h2.7s.04 1.65 0 1.6c.6-1.2 1.7-1.7 3.1-1.7c-.04-.04.7 0 .7 0v2.7zm11.6 1.5c-.03.01 0 7.5 0 7.5H383s-.03-7.24 0-7.2c0-1.3-.8-2.1-2.1-2.1c-1.6 0-2.5 1.1-2.5 3c-.03.02 0 6.3 0 6.3h-2.8V33.4h2.8s-.05 1.67 0 1.7c.6-1.1 1.5-1.9 3.5-1.9c2.6 0 3.9 1.5 3.9 4.3zm11.9 3.9c0 2.6-2.4 3.8-5 3.8c-2.4 0-5-1-5.1-3.9h2.8c.2 1.1 1.2 1.6 2.5 1.6c1.2 0 2-.4 2-1.2c0-.8-.5-.9-2.1-1.2c-2.3-.4-4.9-.8-4.9-3.6c0-2.6 2.2-3.7 4.6-3.7c2.7 0 4.7 1.3 4.9 3.9h-2.8c-.1-1.1-.9-1.6-2.1-1.6c-1.3 0-1.9.6-1.9 1.3c0 .9 1 1.1 2.5 1.3c2 .3 4.6.6 4.6 3.3zM415 45h-2.7s-.01-1.8 0-1.8c-.6 1.3-2 2-3.6 2c-2.7 0-5.1-2-5.1-6c0-4 2.4-6 5.1-6c1.5 0 2.8.6 3.5 1.7c.03.02 0-5.9 0-5.9h2.8v16zm-2.7-5.8c0-2.4-1.4-3.5-2.9-3.5c-1.5 0-2.9 1.1-2.9 3.5c0 2.3 1.4 3.5 2.9 3.5c1.5 0 2.9-1.2 2.9-3.5zm7.4.8c.1 1.9 1.4 2.8 3 2.8c1.1 0 2.1-.4 2.5-1.5h2.5c-.5 2.6-2.7 3.9-5.1 3.9c-2.8 0-5.6-1.9-5.6-6c0-4 2.6-6 5.6-6c2.8 0 5.2 1.8 5.2 5.7c-.01-.01 0 1.1 0 1.1c0 0-8.08.03-8.1 0zm.1-2h5.3c0-1.5-1.1-2.4-2.5-2.4c-1.3 0-2.6.7-2.8 2.4zm19.2 3.4c0 2.6-2.3 3.8-4.9 3.8c-2.4 0-5-1-5.2-3.9h2.9c.1 1.1 1.2 1.6 2.5 1.6c1.2 0 2-.4 2-1.2c0-.8-.6-.9-2.2-1.2c-2.2-.4-4.8-.8-4.8-3.6c0-2.6 2.2-3.7 4.6-3.7c2.7 0 4.7 1.3 4.9 3.9H436c-.1-1.1-.9-1.6-2.1-1.6c-1.3 0-1.9.6-1.9 1.3c0 .9 1 1.1 2.4 1.3c2.1.3 4.6.6 4.6 3.3zm13.3-2.4c0 4.2-2.6 6.1-5.3 6.1c-1.6 0-2.6-.7-3.3-1.5c.03 0 0 5.7 0 5.7h-2.8V33.4h2.8s-.04 1.84 0 1.8c.6-1.2 1.9-2 3.6-2c2.7 0 5 1.9 5 5.8zm-2.8.2c0-2.4-1.4-3.5-2.9-3.5c-1.5 0-3 1.1-3 3.5c0 2.3 1.5 3.4 3 3.4c1.5 0 2.9-1.1 2.9-3.4zm4.7-7.3h3v-3.2h-3v3.2zm.1 1.5h2.8V45h-2.8V33.4zM465.7 45s-1.82-.02-1.8 0c-2.2 0-3.6-.7-3.6-3.8c.04 0 0-5.3 0-5.3h-2.1v-2.5h2.1v-2.6l2.8-.8v3.4h2.3v2.5h-2.3s.03 5.43 0 5.4c0 .7.2 1.2 1.2 1.2h1.4v2.5zm3.6-5c0 1.9 1.4 2.8 2.9 2.8c1.1 0 2.2-.4 2.5-1.5h2.6c-.5 2.6-2.8 3.9-5.2 3.9c-2.8 0-5.5-1.9-5.5-6c0-4 2.6-6 5.5-6c2.9 0 5.2 1.8 5.2 5.7c.02-.01 0 1.1 0 1.1c0 0-8.04.03-8 0zm0-2h5.3c0-1.5-1.1-2.4-2.5-2.4c-1.3 0-2.5.7-2.8 2.4z" stroke="none" fill="#000"/></g><g id="Polygon12826"><path d="m11.5 16.3H4.8l-1.3 3.5H.4L6.5 4h3.2L16 19.8h-3.2l-1.3-3.5zm-1.1-2.8L8.1 7.3l-2.3 6.2h4.6zM27 16.2c0 2.6-2.3 3.8-4.9 3.8c-2.4 0-5-1-5.2-3.9h2.9c.1 1.1 1.2 1.6 2.5 1.6c1.2 0 2-.4 2-1.2c0-.8-.5-.9-2.1-1.2c-2.3-.4-4.9-.8-4.9-3.6c0-2.6 2.2-3.7 4.6-3.7c2.7 0 4.7 1.3 4.9 3.9H24c-.1-1.1-.9-1.6-2.1-1.6c-1.3 0-1.9.6-1.9 1.3c0 .9 1 1.1 2.4 1.3c2.1.3 4.6.6 4.6 3.3zM43.4 12c.05-.01 0 7.8 0 7.8h-2.7s.02-1.7 0-1.7c-.9 1.5-2.3 1.9-3.5 1.9c-1.8 0-3.7-1.1-3.7-3.6c0-1.8 1-3 3.6-3.4l2.5-.4c.7-.1 1.2-.3 1.2-1c0-1-.8-1.4-1.9-1.4c-1.5 0-2.2.7-2.3 1.7h-2.7C34.2 9.2 36.4 8 39 8c2.7 0 4.4 1.3 4.4 4zm-2.7 2.9v-.6c-.2.1-.8.3-1.3.3l-1.3.2c-1.4.2-1.9.8-1.9 1.5c0 .9.7 1.4 1.7 1.4c1.4 0 2.8-1.1 2.8-2.8zm15.5-2.6c-.05.01 0 7.5 0 7.5h-2.8s-.04-7.24 0-7.2c0-1.3-.8-2.1-2.1-2.1c-1.6 0-2.5 1.1-2.5 3c-.04.02 0 6.3 0 6.3H46V8.2h2.7s.04 1.67 0 1.7c.7-1.1 1.6-1.9 3.6-1.9c2.6 0 3.9 1.5 3.9 4.3zm17.5-.3v7.8H71s-.02-1.7 0-1.7c-.9 1.5-2.3 1.9-3.5 1.9c-1.9 0-3.8-1.1-3.8-3.6c0-1.8 1-3 3.7-3.4l2.5-.4c.7-.1 1.2-.3 1.2-1c0-1-.9-1.4-2-1.4c-1.5 0-2.1.7-2.2 1.7h-2.7c.3-2.7 2.4-3.9 5.1-3.9c2.7 0 4.4 1.3 4.4 4zM71 14.9v-.6c-.3.1-.8.3-1.4.3l-1.2.2c-1.4.2-1.9.8-1.9 1.5c0 .9.7 1.4 1.6 1.4c1.5 0 2.9-1.1 2.9-2.8zM81.1 20c-3.8 0-5.6-2.9-5.6-6c0-3.1 1.8-6 5.6-6c2.9 0 5 1.6 5.1 4.4h-2.7c-.2-1.1-1-1.9-2.3-1.9c-2.1 0-2.9 1.7-2.9 3.5c0 1.9.9 3.4 2.9 3.4c1.3 0 2.1-.7 2.3-1.7h2.8c-.4 2.8-2.4 4.3-5.2 4.3zm13.1-.2s-1.8-.02-1.8 0c-2.2 0-3.6-.7-3.6-3.8c.05 0 0-5.3 0-5.3h-2.1V8.2h2.1V5.6l2.8-.8v3.4h2.4v2.5h-2.4s.04 5.43 0 5.4c0 .7.2 1.2 1.2 1.2h1.4v2.5zm1.5-13.1h3V3.5h-3v3.2zm.1 1.5h2.8v11.6h-2.8V8.2zm11.4 11.6h-3L99.9 8.2h3l2.8 8.3l2.9-8.3h2.9l-4.3 11.6zm7.4-5c.1 1.9 1.4 2.8 3 2.8c1.1 0 2.1-.4 2.5-1.5h2.5c-.5 2.6-2.8 3.9-5.1 3.9c-2.8 0-5.6-1.9-5.6-6c0-4 2.6-6 5.6-6c2.8 0 5.2 1.8 5.2 5.7c-.04-.01 0 1.1 0 1.1c0 0-8.1.03-8.1 0zm.1-2h5.2c0-1.5-1-2.4-2.5-2.4c-1.3 0-2.5.7-2.7 2.4zm31.6-.8c-.04-.03 0 7.8 0 7.8h-2.8s-.03-7.28 0-7.3c0-1.4-.7-2-1.8-2c-1.4 0-2.2.8-2.2 2.8c-.02-.03 0 6.5 0 6.5h-2.8v-7.3c0-1.4-.7-2-1.8-2c-1.3 0-2.2.8-2.2 2.8v6.5h-2.8V8.2h2.8s-.04 1.69 0 1.7c.3-.9 1.2-1.9 3-1.9c1.4 0 2.6.7 3.2 1.9c.4-.8 1.2-1.9 3.3-1.9c2.5 0 4.1 1.5 4.1 4zm11.8 0c.05-.01 0 7.8 0 7.8h-2.7s.02-1.7 0-1.7c-.9 1.5-2.3 1.9-3.5 1.9c-1.8 0-3.7-1.1-3.7-3.6c0-1.8 1-3 3.6-3.4l2.5-.4c.7-.1 1.2-.3 1.2-1c0-1-.8-1.4-1.9-1.4c-1.5 0-2.2.7-2.3 1.7h-2.7c.3-2.7 2.5-3.9 5.1-3.9c2.7 0 4.4 1.3 4.4 4zm-2.7 2.9v-.6c-.2.1-.8.3-1.3.3l-1.3.2c-1.4.2-1.9.8-1.9 1.5c0 .9.7 1.4 1.7 1.4c1.4 0 2.8-1.1 2.8-2.8zm15.5-2.6c-.05.01 0 7.5 0 7.5h-2.8s-.04-7.24 0-7.2c0-1.3-.8-2.1-2.1-2.1c-1.6 0-2.5 1.1-2.5 3c-.04.02 0 6.3 0 6.3h-2.8V8.2h2.7s.04 1.67 0 1.7C164.1 8.8 165 8 167 8c2.6 0 3.9 1.5 3.9 4.3zm11.8-.3c.04-.01 0 7.8 0 7.8H180s.01-1.7 0-1.7c-.9 1.5-2.3 1.9-3.5 1.9c-1.8 0-3.8-1.1-3.8-3.6c0-1.8 1.1-3 3.7-3.4l2.5-.4c.7-.1 1.2-.3 1.2-1c0-1-.8-1.4-1.9-1.4c-1.5 0-2.2.7-2.3 1.7h-2.7c.3-2.7 2.5-3.9 5.1-3.9c2.7 0 4.4 1.3 4.4 4zm-2.7 2.9v-.6c-.2.1-.8.3-1.3.3l-1.3.2c-1.4.2-1.9.8-1.9 1.5c0 .9.7 1.4 1.7 1.4c1.4 0 2.8-1.1 2.8-2.8zm15.7 4.1c0 3.7-2.4 5.4-5.5 5.4c-2.8 0-5.2-1.4-5.5-4.3h2.7c.3 1.5 1.5 1.9 2.8 1.9c1.8 0 2.8-.9 2.8-2.7v-1.9c-.5 1.2-1.7 2-3.4 2c-2.6 0-5.1-1.8-5.1-5.7c0-3.9 2.5-5.7 5.1-5.7c1.6 0 2.8.7 3.4 1.8V8.2h2.7V19zm-2.8-5.3c0-2.2-1.2-3.3-2.7-3.3c-1.6 0-2.9 1.1-2.9 3.3c0 2.2 1.3 3.2 2.9 3.2c1.5 0 2.7-1 2.7-3.2zm7.4 1.1c.1 1.9 1.4 2.8 3 2.8c1.1 0 2.1-.4 2.5-1.5h2.5c-.5 2.6-2.8 3.9-5.1 3.9c-2.8 0-5.6-1.9-5.6-6c0-4 2.6-6 5.6-6c2.8 0 5.2 1.8 5.2 5.7c-.04-.01 0 1.1 0 1.1c0 0-8.1.03-8.1 0zm.1-2h5.2c0-1.5-1-2.4-2.5-2.4c-1.3 0-2.5.7-2.7 2.4zm16.5-2s-.73-.03-.7 0c-2 0-3.1 1-3.1 3.3c.05.01 0 5.7 0 5.7h-2.7V8.2h2.7s.03 1.65 0 1.6c.6-1.2 1.7-1.7 3.1-1.7c-.05-.04.7 0 .7 0v2.7zm1.8 8.8h-1.4v-2.9h3.2v2.5c0 3-2.1 4.1-4 4.3l-.2-1.5c1.5-.2 2.4-1.1 2.4-2.4zm21.1.2h-2.7l-2.3-7.4l-2.4 7.4h-2.7l-3.8-11.6h2.9l2.3 7.7l2.4-7.7h2.7l2.3 7.7l2.3-7.7h2.9l-3.9 11.6zm15.5-7.5c.02.01 0 7.5 0 7.5h-2.8s.02-7.24 0-7.2c0-1.3-.7-2.1-2-2.1c-1.6 0-2.6 1.1-2.6 3c.02.02 0 6.3 0 6.3h-2.8v-16h2.8s.02 6.03 0 6c.7-1.1 1.7-1.8 3.5-1.8c2.7 0 3.9 1.5 3.9 4.3zm11.9-.3v7.8h-2.7s-.03-1.7 0-1.7c-.9 1.5-2.3 1.9-3.5 1.9c-1.9 0-3.8-1.1-3.8-3.6c0-1.8 1-3 3.7-3.4l2.5-.4c.7-.1 1.2-.3 1.2-1c0-1-.9-1.4-2-1.4c-1.5 0-2.1.7-2.2 1.7h-2.7c.3-2.7 2.4-3.9 5-3.9c2.8 0 4.5 1.3 4.5 4zm-2.7 2.9v-.6c-.3.1-.8.3-1.4.3l-1.2.2c-1.4.2-1.9.8-1.9 1.5c0 .9.6 1.4 1.6 1.4c1.5 0 2.9-1.1 2.9-2.8zm11.1 4.9s-1.78-.02-1.8 0c-2.1 0-3.5-.7-3.5-3.8c-.03 0 0-5.3 0-5.3h-2.2V8.2h2.2V5.6l2.8-.8v3.4h2.3v2.5h-2.3s-.04 5.43 0 5.4c0 .7.1 1.2 1.1 1.2h1.4v2.5zm9.9 0h-2.8v-16h2.8v16zm4.7-5c0 1.9 1.4 2.8 3 2.8c1 0 2.1-.4 2.4-1.5h2.6c-.5 2.6-2.8 3.9-5.2 3.9c-2.8 0-5.5-1.9-5.5-6c0-4 2.6-6 5.6-6c2.8 0 5.1 1.8 5.1 5.7c.04-.01 0 1.1 0 1.1c0 0-8.03.03-8 0zm0-2h5.3c0-1.5-1.1-2.4-2.5-2.4c-1.3 0-2.5.7-2.8 2.4zm15.9 7h-2.9l-4.3-11.6h2.9l2.9 8.3l2.8-8.3h2.9l-4.3 11.6zm7.4-5c.1 1.9 1.5 2.8 3 2.8c1.1 0 2.2-.4 2.5-1.5h2.6c-.5 2.6-2.8 3.9-5.2 3.9c-2.8 0-5.6-1.9-5.6-6c0-4 2.7-6 5.6-6c2.8 0 5.2 1.8 5.2 5.7c.01-.01 0 1.1 0 1.1c0 0-8.05.03-8.1 0zm.1-2h5.3c0-1.5-1.1-2.4-2.5-2.4c-1.3 0-2.5.7-2.8 2.4zm16.6-2s-.78-.03-.8 0c-1.9 0-3 1-3 3.3v5.7h-2.8V8.2h2.8s-.02 1.65 0 1.6c.6-1.2 1.6-1.7 3-1.7c0-.04.8 0 .8 0v2.7zm10.6 5.4c0 2.6-2.3 3.8-4.9 3.8c-2.4 0-5-1-5.2-3.9h2.8c.2 1.1 1.2 1.6 2.5 1.6c1.2 0 2-.4 2-1.2c0-.8-.5-.9-2.1-1.2c-2.3-.4-4.9-.8-4.9-3.6c0-2.6 2.2-3.7 4.6-3.7c2.7 0 4.7 1.3 4.9 3.9h-2.7c-.1-1.1-.9-1.6-2.1-1.6c-1.4 0-2 .6-2 1.3c0 .9 1.1 1.1 2.5 1.3c2.1.3 4.6.6 4.6 3.3zm16.4-4.2c-.02-.01 0 7.8 0 7.8h-2.7s-.05-1.7 0-1.7c-.9 1.5-2.3 1.9-3.6 1.9c-1.8 0-3.7-1.1-3.7-3.6c0-1.8 1-3 3.7-3.4l2.5-.4c.7-.1 1.2-.3 1.2-1c0-1-.9-1.4-2-1.4c-1.5 0-2.2.7-2.3 1.7h-2.6c.2-2.7 2.4-3.9 5-3.9c2.8 0 4.5 1.3 4.5 4zm-2.7 2.9v-.6c-.3.1-.8.3-1.4.3l-1.2.2c-1.5.2-1.9.8-1.9 1.5c0 .9.6 1.4 1.6 1.4c1.4 0 2.9-1.1 2.9-2.8zm11.8-4.1s-.78-.03-.8 0c-1.9 0-3 1-3 3.3v5.7h-2.8V8.2h2.8s-.02 1.65 0 1.6c.6-1.2 1.6-1.7 3-1.7c0-.04.8 0 .8 0v2.7zm3.1 4c0 1.9 1.4 2.8 3 2.8c1.1 0 2.1-.4 2.4-1.5h2.6c-.5 2.6-2.8 3.9-5.2 3.9c-2.8 0-5.5-1.9-5.5-6c0-4 2.6-6 5.6-6c2.8 0 5.1 1.8 5.1 5.7c.05-.01 0 1.1 0 1.1c0 0-8.01.03-8 0zm0-2h5.3c0-1.5-1.1-2.4-2.5-2.4c-1.3 0-2.5.7-2.8 2.4zm24.8-4.6s-5.03 13.32-5 13.3c-.6 1.4-1.7 2-3.3 2c-.01-.02-1.8 0-1.8 0V21h1.3c.9 0 1.4-.3 1.7-1.1c-.03-.03.2-.6.2-.6l-4.4-11.1h3l2.7 7.6l2.7-7.6h2.9zm11.7 5.8c0 3.8-2.4 6-5.6 6c-3.3 0-5.7-2.2-5.7-6c0-3.8 2.4-6 5.7-6c3.2 0 5.6 2.2 5.6 6zm-8.4 0c0 2.3 1.3 3.4 2.8 3.4c1.7 0 2.8-1.2 2.8-3.4c0-2.3-1.3-3.4-2.8-3.4c-1.7 0-2.8 1.2-2.8 3.4zm20.6 5.8h-2.7s-.05-1.66 0-1.7c-.7 1.1-1.8 1.8-3.4 1.8c-2.4 0-4.2-1.5-4.2-4.5c.04-.01 0-7.2 0-7.2h2.8s.03 6.98 0 7c0 1.6.8 2.2 2 2.2c1.6 0 2.7-.9 2.7-3.6V8.2h2.8v11.6z" stroke="none" fill="#000"/></g></svg>