<?xml version="1.0" standalone="no"?><!DOCTYPE svg PUBLIC "-//W3C//DTD SVG 1.1//EN" "http://www.w3.org/Graphics/SVG/1.1/DTD/svg11.dtd"><svg xmlns="http://www.w3.org/2000/svg" version="1.1" width="858px" height="61.4px" viewBox="0 -3 858 61.4" style="top:-3px"><desc>We have found that by having a bias towards the bottom-up, really knowing and having conviction in the names we inves</desc><defs/><g id="Polygon12047"><path d="m6.2 45.2c-3.1 0-5.3-2.3-5.3-5.8c0-3.6 2.1-5.9 5.4-5.9c2.5 0 4.5 1.4 4.7 3.9H9.5c-.2-1.6-1.6-2.5-3.2-2.5c-2.2 0-3.8 1.7-3.8 4.4c0 2.8 1.6 4.5 3.8 4.5c1.7 0 3-1 3.1-2.8h1.6c-.2 2.7-2.3 4.2-4.8 4.2zm6.7-5.8c0-3.7 2.2-5.9 5.3-5.9c3.1 0 5.3 2.2 5.3 5.9c0 3.6-2.2 5.8-5.3 5.8c-3.1 0-5.3-2.2-5.3-5.8zm9.1-.1c0-2.8-1.7-4.4-3.8-4.4c-2.2 0-3.8 1.7-3.8 4.5c0 2.8 1.7 4.4 3.8 4.4c2.2 0 3.8-1.7 3.8-4.5zm13.3-2c.02-.05 0 7.7 0 7.7h-1.5v-7.6c0-1.5-.9-2.5-2.5-2.5c-1.9 0-3.6 1.4-3.6 4.2v5.9h-1.5V33.7h1.5v2.1c.7-1.3 1.9-2.3 3.9-2.3c2.3 0 3.7 1.3 3.7 3.8zM43 45h-1.6l-4.2-11.3h1.7l3.4 9.7l3.4-9.7h1.5L43 45zm7.9-16h-1.8v1.9h1.8V29zm-.1 16h-1.6V33.7h1.6V45zm7.8.2c-3.1 0-5.2-2.3-5.2-5.8c0-3.6 2.1-5.9 5.4-5.9c2.5 0 4.5 1.4 4.6 3.9h-1.5c-.1-1.6-1.5-2.5-3.2-2.5c-2.2 0-3.7 1.7-3.7 4.4c0 2.8 1.5 4.5 3.7 4.5c1.7 0 3.1-1 3.2-2.8h1.5c-.1 2.7-2.3 4.2-4.8 4.2zm12.6-.2s-1.67-.02-1.7 0c-1.5 0-2.8-.5-2.8-3v-6.9h-2.2v-1.4h2.2v-3.2l1.5-.4v3.6h2.8v1.4h-2.8s.03 6.9 0 6.9c0 1 .3 1.6 1.6 1.6h1.4v1.4zM75 29h-1.7v1.9h1.7V29zm-.1 16h-1.5V33.7h1.5V45zm2.7-5.6c0-3.7 2.2-5.9 5.3-5.9c3.1 0 5.3 2.2 5.3 5.9c0 3.6-2.2 5.8-5.3 5.8c-3.1 0-5.3-2.2-5.3-5.8zm9.1-.1c0-2.8-1.7-4.4-3.8-4.4c-2.2 0-3.8 1.7-3.8 4.5c0 2.8 1.7 4.4 3.8 4.4c2.2 0 3.8-1.7 3.8-4.5zm13.3-2c.02-.05 0 7.7 0 7.7h-1.5v-7.6c0-1.5-.9-2.5-2.5-2.5c-1.9 0-3.6 1.4-3.6 4.2v5.9h-1.5V33.7h1.5v2.1c.7-1.3 1.9-2.3 3.9-2.3c2.3 0 3.7 1.3 3.7 3.8zm10.6-8.3h-1.8v1.9h1.8V29zm-.1 16h-1.6V33.7h1.6V45zm12.5-7.7v7.7h-1.5s-.04-7.56 0-7.6c0-1.5-.9-2.5-2.5-2.5c-1.9 0-3.6 1.4-3.6 4.2c-.03-.04 0 5.9 0 5.9h-1.6V33.7h1.6s-.03 2.1 0 2.1c.6-1.3 1.9-2.3 3.9-2.3c2.2 0 3.7 1.3 3.7 3.8zm13.9 7.7s-1.7-.02-1.7 0c-1.5 0-2.8-.5-2.8-3c-.04.02 0-6.9 0-6.9h-2.3v-1.4h2.3v-3.2l1.5-.4v3.6h2.7v1.4h-2.7v6.9c0 1 .3 1.6 1.5 1.6h1.5v1.4zm11.3-7.7v7.7h-1.5s-.02-7.56 0-7.6c0-1.5-.9-2.5-2.5-2.5c-1.9 0-3.6 1.4-3.6 4.2v5.9h-1.5v-16h1.5s-.01 6.68 0 6.7c.6-1.3 1.9-2.2 3.9-2.2c2.3 0 3.7 1.3 3.7 3.8zm4 2.4c.1 2.8 1.8 4.1 3.8 4.1c1.5 0 3-.7 3.3-2.3h1.5c-.6 2.6-2.7 3.7-4.9 3.7c-2.7 0-5.2-1.8-5.2-5.8c0-4.1 2.6-5.9 5.3-5.9c2.7 0 4.8 1.7 4.8 5.5c.04-.05 0 .7 0 .7h-8.6zm.1-1.3h7c0-2.3-1.5-3.5-3.4-3.5c-1.7 0-3.4 1.1-3.6 3.5zm25.6-1.1c-.03-.05 0 7.7 0 7.7h-1.6s.03-7.56 0-7.6c0-1.5-.8-2.5-2.4-2.5c-2 0-3.7 1.4-3.7 4.2c.04-.04 0 5.9 0 5.9h-1.5V33.7h1.5s.04 2.1 0 2.1c.7-1.3 2-2.3 3.9-2.3c2.3 0 3.8 1.3 3.8 3.8zm10.2 5.6c-.9 1.7-2.6 2.3-4.1 2.3c-1.9 0-3.6-1.1-3.6-3.3c0-2.1 1.5-3.1 3.4-3.3l2.7-.4c.8-.1 1.6-.4 1.6-1.4c0-1.3-1.2-2-2.8-2c-1.7 0-2.7.8-2.9 2.1h-1.6c.3-2.3 2.1-3.4 4.6-3.4c2.6 0 4.1 1.2 4.1 3.7c.04-.01 0 7.8 0 7.8h-1.4s-.05-2.08 0-2.1zm-1.9-3.4l-1.7.2c-1.5.2-2.5.7-2.5 2.1c0 1.4 1.1 2 2.3 2c1.8 0 3.7-1.3 3.7-3.7V39c-.4.3-1.1.4-1.8.5zm6.5-5.8h1.5v1.9c.6-1.4 1.9-2.1 3.3-2.1c1.6 0 3 .9 3.3 2.3c.5-1.2 1.8-2.3 3.7-2.3c2.1 0 3.7 1.1 3.7 3.4c-.03 0 0 8.1 0 8.1h-1.6s.04-7.56 0-7.6c0-1.7-1-2.5-2.4-2.5c-1.6 0-3 1.3-3 3.6c-.02.03 0 6.5 0 6.5h-1.5s-.04-7.56 0-7.6c0-1.7-1.1-2.5-2.4-2.5c-1.7 0-3.1 1.2-3.1 3.6c.03.03 0 6.5 0 6.5h-1.5V33.7zm19.5 6c0 2.8 1.8 4.1 3.8 4.1c1.5 0 2.9-.7 3.3-2.3h1.4c-.5 2.6-2.7 3.7-4.8 3.7c-2.7 0-5.2-1.8-5.2-5.8c0-4.1 2.5-5.9 5.2-5.9c2.7 0 4.9 1.7 4.9 5.5v.7h-8.6zm0-1.3h7c0-2.3-1.4-3.5-3.3-3.5c-1.8 0-3.4 1.1-3.7 3.5zm19.6 3.4c0 2.3-2.1 3.4-4.4 3.4c-2.4 0-4.6-1.2-4.8-3.7h1.6c.3 1.7 1.7 2.3 3.3 2.3c1.4 0 2.7-.5 2.7-1.8c0-1.3-1.3-1.6-2.6-1.8c-2.2-.4-4.8-.8-4.8-3.4c0-2.2 2-3.3 4.3-3.3c2.4 0 4.3 1.1 4.4 3.4h-1.6c-.1-1.4-1.4-2-2.9-2c-1.5 0-2.6.7-2.6 1.8c0 1.5 1.4 1.7 3.1 2c2 .3 4.3.6 4.3 3.1zm18.6 3.2h-1.5l-2.9-9l-2.9 9h-1.5l-3.7-11.3h1.6l2.9 9.3l2.8-9.3h1.6l2.9 9.3l2.8-9.3h1.6L250.4 45zm6.4-5.3c0 2.8 1.7 4.1 3.7 4.1c1.5 0 3-.7 3.3-2.3h1.5c-.5 2.6-2.7 3.7-4.9 3.7c-2.6 0-5.1-1.8-5.1-5.8c0-4.1 2.5-5.9 5.2-5.9c2.7 0 4.9 1.7 4.9 5.5c-.05-.05 0 .7 0 .7h-8.6zm0-1.3h7c0-2.3-1.5-3.5-3.4-3.5c-1.7 0-3.4 1.1-3.6 3.5zm18.1-9.4h-1.8v1.9h1.8V29zm-.1 16h-1.6V33.7h1.6V45zm12.5-7.7c-.02-.05 0 7.7 0 7.7h-1.6s.04-7.56 0-7.6c0-1.5-.8-2.5-2.4-2.5c-2 0-3.6 1.4-3.6 4.2c-.05-.04 0 5.9 0 5.9h-1.6V33.7h1.6s-.05 2.1 0 2.1c.6-1.3 1.9-2.3 3.9-2.3c2.2 0 3.7 1.3 3.7 3.8zM295 45h-1.7l-4.1-11.3h1.6l3.4 9.7l3.4-9.7h1.6L295 45zm6.8-5.3c0 2.8 1.7 4.1 3.7 4.1c1.5 0 3-.7 3.3-2.3h1.5c-.5 2.6-2.7 3.7-4.9 3.7c-2.6 0-5.1-1.8-5.1-5.8c0-4.1 2.5-5.9 5.2-5.9c2.7 0 4.9 1.7 4.9 5.5c-.05-.05 0 .7 0 .7h-8.6zm0-1.3h7c0-2.3-1.5-3.5-3.4-3.5c-1.7 0-3.4 1.1-3.6 3.5zm19.6 3.4c0 2.3-2.1 3.4-4.4 3.4c-2.4 0-4.6-1.2-4.9-3.7h1.7c.2 1.7 1.7 2.3 3.2 2.3c1.5 0 2.8-.5 2.8-1.8c0-1.3-1.3-1.6-2.7-1.8c-2.1-.4-4.7-.8-4.7-3.4c0-2.2 1.9-3.3 4.3-3.3c2.3 0 4.2 1.1 4.4 3.4h-1.6c-.1-1.4-1.4-2-2.9-2c-1.5 0-2.6.7-2.6 1.8c0 1.5 1.4 1.7 3.1 2c2 .3 4.3.6 4.3 3.1zM329 45s-1.64-.02-1.6 0c-1.5 0-2.9-.5-2.9-3c.03.02 0-6.9 0-6.9h-2.2v-1.4h2.2v-3.2l1.6-.4v3.6h2.7v1.4h-2.7s-.04 6.9 0 6.9c0 1 .3 1.6 1.5 1.6h1.4v1.4zm9.3-16h-1.7v1.9h1.7V29zm-.1 16h-1.5V33.7h1.5V45zm12.5-7.7c.04-.05 0 7.7 0 7.7h-1.5v-7.6c0-1.5-.9-2.5-2.5-2.5c-1.9 0-3.6 1.4-3.6 4.2v5.9h-1.5V33.7h1.5v2.1c.7-1.3 1.9-2.3 3.9-2.3c2.3 0 3.7 1.3 3.7 3.8zm4.4 7.6c-.02-.04-1 0-1 0v-2.1h2.2v2.1c0 2.5-1.5 3.4-3 3.5l-.3-.9c1.7-.3 2.1-1.3 2.1-2.6zm19.7.1h-1.5l-2.9-9l-2.9 9H366l-3.7-11.3h1.6l2.9 9.3l2.8-9.3h1.6l2.9 9.3l2.8-9.3h1.6L374.8 45zm6.4-5.3c0 2.8 1.7 4.1 3.7 4.1c1.5 0 3-.7 3.3-2.3h1.5c-.5 2.6-2.7 3.7-4.9 3.7c-2.6 0-5.1-1.8-5.1-5.8c0-4.1 2.5-5.9 5.2-5.9c2.7 0 4.9 1.7 4.9 5.5c-.04-.05 0 .7 0 .7h-8.6zm0-1.3h7c0-2.3-1.5-3.5-3.4-3.5c-1.7 0-3.4 1.1-3.6 3.5zm11.4-7.2c.03-.02-1 0-1 0v-2.1h2.3s-.05 2.15 0 2.1c0 2.5-1.5 3.4-3.1 3.6l-.2-1c1.7-.3 2-1.3 2-2.6zm8.7 3.8s-.39.03-.4 0c-2.4 0-3.7 1.4-3.7 4c-.03 0 0 6 0 6h-1.6V33.7h1.5s.05 2.08 0 2.1c.6-1.5 1.9-2.2 3.7-2.2c-.02-.02.5 0 .5 0v1.4zm2.5 4.7c.1 2.8 1.8 4.1 3.8 4.1c1.5 0 2.9-.7 3.3-2.3h1.4c-.5 2.6-2.7 3.7-4.8 3.7c-2.7 0-5.2-1.8-5.2-5.8c0-4.1 2.6-5.9 5.3-5.9c2.6 0 4.8 1.7 4.8 5.5v.7h-8.6zm.1-1.3h7c0-2.3-1.5-3.5-3.4-3.5c-1.8 0-3.4 1.1-3.6 3.5zm23.3 4.5c-.9 1.7-2.6 2.3-4 2.3c-1.9 0-3.6-1.1-3.6-3.3c0-2.1 1.4-3.1 3.4-3.3l2.6-.4c.9-.1 1.6-.4 1.6-1.4c0-1.3-1.1-2-2.7-2c-1.7 0-2.7.8-3 2.1H420c.3-2.3 2.1-3.4 4.6-3.4c2.6 0 4.1 1.2 4.1 3.7v7.8h-1.5s.02-2.08 0-2.1zm-1.8-3.4l-1.8.2c-1.4.2-2.5.7-2.5 2.1c0 1.4 1.1 2 2.4 2c1.7 0 3.7-1.3 3.7-3.7V39c-.4.3-1.1.4-1.8.5zm17-.2c0 3.5-2.1 5.9-5.1 5.9c-2 0-3.4-1.1-4-2.3c.03 0 0 2.1 0 2.1h-1.4v-16h1.5v7c.6-1.4 2-2.5 4-2.5c2.9 0 5 2.2 5 5.8zm-1.6.1c0-2.8-1.5-4.4-3.6-4.4c-2.2 0-3.8 1.6-3.8 4.4c0 2.8 1.5 4.5 3.7 4.5c2.2 0 3.7-1.8 3.7-4.5zm5.7 5.6H445v-16h1.5v16zm4.2-5.3c0 2.8 1.7 4.1 3.7 4.1c1.5 0 3-.7 3.3-2.3h1.5c-.5 2.6-2.7 3.7-4.8 3.7c-2.7 0-5.2-1.8-5.2-5.8c0-4.1 2.5-5.9 5.2-5.9c2.7 0 4.9 1.7 4.9 5.5c-.04-.05 0 .7 0 .7h-8.6zm0-1.3h7c0-2.3-1.5-3.5-3.3-3.5c-1.8 0-3.5 1.1-3.7 3.5zm21.4 6.6s-1.68-.02-1.7 0c-1.5 0-2.8-.5-2.8-3c-.02.02 0-6.9 0-6.9h-2.2v-1.4h2.2v-3.2l1.5-.4v3.6h2.7v1.4h-2.7v6.9c0 1 .3 1.6 1.6 1.6h1.4v1.4zm1.4-5.6c0-3.7 2.3-5.9 5.4-5.9c3.1 0 5.3 2.2 5.3 5.9c0 3.6-2.2 5.8-5.3 5.8c-3.1 0-5.4-2.2-5.4-5.8zm9.2-.1c0-2.8-1.7-4.4-3.8-4.4c-2.2 0-3.8 1.7-3.8 4.5c0 2.8 1.7 4.4 3.8 4.4c2.2 0 3.8-1.7 3.8-4.5zm18.8 5.7H500s.03-2.2 0-2.2c-.5 1.3-1.9 2.4-4 2.4c-2.9 0-5-2.3-5-5.9c0-3.5 2.1-5.8 5-5.8c1.9 0 3.4.9 4 2.1c-.04.02 0-6.6 0-6.6h1.5v16zm-1.6-5.7c0-2.8-1.5-4.4-3.7-4.4c-2.2 0-3.7 1.7-3.7 4.4c0 2.8 1.5 4.5 3.7 4.5c2.2 0 3.7-1.7 3.7-4.5zm6.6-10.3h-1.7v1.9h1.7V29zm-.1 16h-1.5V33.7h1.5V45zm11.7-3.2c0 2.3-2.1 3.4-4.3 3.4c-2.4 0-4.7-1.2-4.9-3.7h1.6c.3 1.7 1.8 2.3 3.3 2.3c1.5 0 2.7-.5 2.7-1.8c0-1.3-1.3-1.6-2.6-1.8c-2.2-.4-4.7-.8-4.7-3.4c0-2.2 1.9-3.3 4.2-3.3c2.4 0 4.3 1.1 4.4 3.4h-1.6c-.1-1.4-1.4-2-2.8-2c-1.6 0-2.6.7-2.6 1.8c0 1.5 1.3 1.7 3 2c2.1.3 4.3.6 4.3 3.1zm7 3.4c-3.1 0-5.2-2.3-5.2-5.8c0-3.6 2.1-5.9 5.4-5.9c2.5 0 4.5 1.4 4.6 3.9h-1.5c-.1-1.6-1.5-2.5-3.2-2.5c-2.2 0-3.7 1.7-3.7 4.4c0 2.8 1.5 4.5 3.7 4.5c1.7 0 3.1-1 3.2-2.8h1.5c-.1 2.7-2.3 4.2-4.8 4.2zm6.7-5.8c0-3.7 2.2-5.9 5.4-5.9c3.1 0 5.3 2.2 5.3 5.9c0 3.6-2.2 5.8-5.3 5.8c-3.1 0-5.4-2.2-5.4-5.8zm9.1-.1c0-2.8-1.7-4.4-3.8-4.4c-2.2 0-3.7 1.7-3.7 4.5c0 2.8 1.7 4.4 3.8 4.4c2.2 0 3.7-1.7 3.7-4.5zm8.5 5.7h-1.7l-4.1-11.3h1.6l3.4 9.7l3.4-9.7h1.6L549.4 45zm6.8-5.3c0 2.8 1.7 4.1 3.7 4.1c1.5 0 3-.7 3.3-2.3h1.5c-.5 2.6-2.7 3.7-4.9 3.7c-2.7 0-5.2-1.8-5.2-5.8c0-4.1 2.6-5.9 5.3-5.9c2.7 0 4.8 1.7 4.8 5.5c.05-.05 0 .7 0 .7c0 0-8.54.01-8.5 0zm0-1.3h7c0-2.3-1.5-3.5-3.4-3.5c-1.7 0-3.4 1.1-3.6 3.5zM573 35s-.36.03-.4 0c-2.4 0-3.7 1.4-3.7 4v6h-1.5V33.7h1.5s-.02 2.08 0 2.1c.5-1.5 1.9-2.2 3.6-2.2c.02-.02.5 0 .5 0v1.4zm12 10s-1.69-.02-1.7 0c-1.5 0-2.8-.5-2.8-3c-.02.02 0-6.9 0-6.9h-2.3v-1.4h2.3v-3.2l1.5-.4v3.6h2.7v1.4H582v6.9c0 1 .3 1.6 1.6 1.6h1.4v1.4zm7.8-10s-.35.03-.4 0c-2.3 0-3.7 1.4-3.7 4v6h-1.5V33.7h1.5v2.1c.5-1.5 1.9-2.2 3.6-2.2c.02-.02.5 0 .5 0v1.4zm9.4 10s.01-2.16 0-2.2c-.8 1.6-2.2 2.3-3.7 2.3c-2.2 0-3.8-1.3-3.8-3.9v-7.5h1.5s.03 7.27 0 7.3c0 1.8 1 2.8 2.5 2.8c1.8 0 3.4-1.4 3.4-4.3c.05.04 0-5.8 0-5.8h1.6V45h-1.5zm5.6-5.3c.1 2.8 1.8 4.1 3.8 4.1c1.5 0 2.9-.7 3.3-2.3h1.4c-.5 2.6-2.7 3.7-4.8 3.7c-2.7 0-5.2-1.8-5.2-5.8c0-4.1 2.5-5.9 5.3-5.9c2.6 0 4.8 1.7 4.8 5.5v.7h-8.6zm.1-1.3h7c0-2.3-1.5-3.5-3.4-3.5c-1.8 0-3.4 1.1-3.6 3.5zm20.4 6.6h-1.6l-4.2-11.3h1.7l3.3 9.7l3.4-9.7h1.6L628.3 45zm12.9-2.1c-.8 1.7-2.5 2.3-4 2.3c-1.9 0-3.6-1.1-3.6-3.3c0-2.1 1.5-3.1 3.4-3.3l2.7-.4c.8-.1 1.5-.4 1.5-1.4c0-1.3-1.1-2-2.7-2c-1.7 0-2.7.8-2.9 2.1H634c.3-2.3 2.1-3.4 4.6-3.4c2.6 0 4.1 1.2 4.1 3.7c.04-.01 0 7.8 0 7.8h-1.5s.05-2.08 0-2.1zm-1.8-3.4l-1.7.2c-1.5.2-2.5.7-2.5 2.1c0 1.4 1.1 2 2.3 2c1.8 0 3.7-1.3 3.7-3.7V39c-.4.3-1.1.4-1.8.5zm8 5.5h-1.5v-16h1.5v16zm10.8 0v-2.2c-.8 1.6-2.2 2.3-3.8 2.3c-2.1 0-3.7-1.3-3.7-3.9c-.02-.04 0-7.5 0-7.5h1.5v7.3c0 1.8 1 2.8 2.5 2.8c1.8 0 3.4-1.4 3.4-4.3c.03.04 0-5.8 0-5.8h1.6V45h-1.5zm5.6-5.3c0 2.8 1.8 4.1 3.8 4.1c1.5 0 2.9-.7 3.3-2.3h1.4c-.5 2.6-2.7 3.7-4.8 3.7c-2.7 0-5.2-1.8-5.2-5.8c0-4.1 2.5-5.9 5.2-5.9c2.7 0 4.9 1.7 4.9 5.5v.7h-8.6zm0-1.3h7c0-2.3-1.4-3.5-3.3-3.5c-1.8 0-3.4 1.1-3.7 3.5zm18.1-9.4h-1.7v1.9h1.7V29zm-.1 16h-1.5V33.7h1.5V45zm12.5-7.7c.02-.05 0 7.7 0 7.7h-1.5s-.02-7.56 0-7.6c0-1.5-.9-2.5-2.5-2.5c-1.9 0-3.6 1.4-3.6 4.2v5.9h-1.5V33.7h1.5v2.1c.7-1.3 1.9-2.3 3.9-2.3c2.2 0 3.7 1.3 3.7 3.8zm13.9 7.7s-1.68-.02-1.7 0c-1.5 0-2.8-.5-2.8-3c-.02.02 0-6.9 0-6.9h-2.2v-1.4h2.2v-3.2l1.5-.4v3.6h2.7v1.4h-2.7v6.9c0 1 .3 1.6 1.6 1.6h1.4v1.4zm11.3-7.7c.04-.05 0 7.7 0 7.7H718v-7.6c0-1.5-.9-2.5-2.5-2.5c-1.9 0-3.6 1.4-3.6 4.2v5.9h-1.5v-16h1.5s.01 6.68 0 6.7c.7-1.3 1.9-2.2 3.9-2.2c2.3 0 3.7 1.3 3.7 3.8zm4.1 2.4c0 2.8 1.7 4.1 3.7 4.1c1.5 0 3-.7 3.3-2.3h1.5c-.5 2.6-2.7 3.7-4.9 3.7c-2.6 0-5.1-1.8-5.1-5.8c0-4.1 2.5-5.9 5.2-5.9c2.7 0 4.9 1.7 4.9 5.5c-.04-.05 0 .7 0 .7h-8.6zm0-1.3h7c0-2.3-1.5-3.5-3.4-3.5c-1.7 0-3.4 1.1-3.6 3.5zm16.4-4.7h1.5s.04 1.87 0 1.9c.7-1.4 1.9-2.1 3.3-2.1c1.7 0 3 .9 3.4 2.3c.5-1.2 1.7-2.3 3.7-2.3c2 0 3.6 1.1 3.6 3.4v8.1H754s-.02-7.56 0-7.6c0-1.7-1.1-2.5-2.4-2.5c-1.7 0-3.1 1.3-3.1 3.6c.02.03 0 6.5 0 6.5H747v-7.6c0-1.7-1-2.5-2.4-2.5c-1.6 0-3 1.2-3 3.6c-.04.03 0 6.5 0 6.5H740V33.7zm25.7 9.2c-.9 1.7-2.6 2.3-4 2.3c-1.9 0-3.7-1.1-3.7-3.3c0-2.1 1.5-3.1 3.5-3.3l2.6-.4c.9-.1 1.6-.4 1.6-1.4c0-1.3-1.2-2-2.7-2c-1.7 0-2.8.8-3 2.1h-1.5c.3-2.3 2.1-3.4 4.6-3.4c2.5 0 4.1 1.2 4.1 3.7c-.02-.01 0 7.8 0 7.8h-1.5v-2.1zm-1.9-3.4l-1.7.2c-1.4.2-2.5.7-2.5 2.1c0 1.4 1.1 2 2.3 2c1.8 0 3.8-1.3 3.8-3.7V39c-.5.3-1.1.4-1.9.5zM776 35s-.39.03-.4 0c-2.4 0-3.7 1.4-3.7 4c-.03 0 0 6 0 6h-1.6V33.7h1.5s.05 2.08 0 2.1c.6-1.5 1.9-2.2 3.7-2.2c-.02-.02.5 0 .5 0v1.4zm5.5 4.5l-2 2.1v3.4H778v-16h1.5v10.7l5.5-6h2l-4.4 4.7l4.7 6.6h-1.8l-4-5.5zm8.2.2c0 2.8 1.8 4.1 3.8 4.1c1.4 0 2.9-.7 3.3-2.3h1.4c-.5 2.6-2.7 3.7-4.8 3.7c-2.7 0-5.2-1.8-5.2-5.8c0-4.1 2.5-5.9 5.2-5.9c2.7 0 4.9 1.7 4.9 5.5v.7h-8.6zm0-1.3h7c0-2.3-1.4-3.5-3.3-3.5c-1.8 0-3.5 1.1-3.7 3.5zm16.4 6.6s-1.7-.02-1.7 0c-1.5 0-2.8-.5-2.8-3c-.04.02 0-6.9 0-6.9h-2.3v-1.4h2.3v-3.2l1.5-.4v3.6h2.7v1.4h-2.7v6.9c0 1 .3 1.6 1.5 1.6h1.5v1.4zm1.4-2.2h2.2v2.2h-2.2v-2.2z" stroke="none" fill="#fff"/></g><g id="Polygon12046"><path d="m15.9 19.8h-1.7L10.3 6.5l-3.9 13.3H4.7L.6 4h1.7l3.3 13.5L9.5 4h1.7l3.9 13.5L18.4 4h1.5l-4 15.8zm6.1-5.3c0 2.8 1.8 4.1 3.7 4.1c1.5 0 3-.7 3.3-2.3h1.5c-.5 2.6-2.7 3.7-4.8 3.7c-2.7 0-5.2-1.8-5.2-5.8c0-4.1 2.5-5.9 5.2-5.9c2.7 0 4.9 1.7 4.9 5.5c-.02-.05 0 .7 0 .7H22zm0-1.3h7c0-2.3-1.4-3.5-3.3-3.5c-1.8 0-3.5 1.1-3.7 3.5zm25.6-1.1v7.7h-1.5s-.03-7.56 0-7.6c0-1.5-.9-2.5-2.5-2.5c-1.9 0-3.6 1.4-3.6 4.2c-.02-.04 0 5.9 0 5.9h-1.5v-16h1.5s-.02 6.68 0 6.7c.6-1.3 1.9-2.2 3.8-2.2c2.4 0 3.8 1.3 3.8 3.8zm10.2 5.6c-.9 1.7-2.6 2.3-4 2.3c-2 0-3.7-1.1-3.7-3.3c0-2.1 1.5-3.1 3.4-3.3l2.7-.4c.9-.1 1.6-.4 1.6-1.4c0-1.3-1.2-2-2.7-2c-1.7 0-2.8.8-3 2.1h-1.5c.3-2.3 2.1-3.4 4.6-3.4c2.5 0 4.1 1.2 4.1 3.7c-.02-.01 0 7.8 0 7.8h-1.5v-2.1zm-1.9-3.4l-1.7.2c-1.4.2-2.5.7-2.5 2.1c0 1.4 1.1 2 2.3 2c1.8 0 3.7-1.3 3.7-3.7v-1.1c-.4.3-1 .4-1.8.5zm11 5.5h-1.7L61.1 8.5h1.6l3.4 9.7l3.4-9.7h1.6l-4.2 11.3zm6.8-5.3c0 2.8 1.7 4.1 3.7 4.1c1.5 0 3-.7 3.3-2.3h1.5c-.5 2.6-2.7 3.7-4.9 3.7c-2.6 0-5.1-1.8-5.1-5.8c0-4.1 2.5-5.9 5.2-5.9c2.7 0 4.9 1.7 4.9 5.5c-.04-.05 0 .7 0 .7h-8.6zm0-1.3h7c0-2.3-1.5-3.5-3.4-3.5c-1.7 0-3.4 1.1-3.6 3.5zm19.8-8.1c-1.2 0-1.5.6-1.5 1.7c-.04-.04 0 1.7 0 1.7h2.5v1.4H92v9.9h-1.6V9.9h-1.8V8.5h1.8s.03-1.78 0-1.8c0-2.5 1.4-2.9 2.9-2.9c-.04-.02 1.5 0 1.5 0v1.3s-1.29.04-1.3 0zm2.3 9.1c0-3.7 2.2-5.9 5.3-5.9c3.1 0 5.4 2.2 5.4 5.9c0 3.6-2.2 5.8-5.3 5.8c-3.2 0-5.4-2.2-5.4-5.8zm9.1-.1c0-2.8-1.7-4.4-3.8-4.4c-2.2 0-3.7 1.7-3.7 4.5c0 2.8 1.7 4.4 3.8 4.4c2.2 0 3.7-1.7 3.7-4.5zm11.6 5.7s.03-2.16 0-2.2c-.7 1.6-2.1 2.3-3.7 2.3c-2.2 0-3.8-1.3-3.8-3.9V8.5h1.5s.04 7.27 0 7.3c0 1.8 1.1 2.8 2.5 2.8c1.8 0 3.5-1.4 3.5-4.3c-.03.04 0-5.8 0-5.8h1.5v11.3h-1.5zm14-7.7v7.7H129s-.02-7.56 0-7.6c0-1.5-.9-2.5-2.5-2.5c-1.9 0-3.6 1.4-3.6 4.2v5.9h-1.5V8.5h1.5v2.1c.7-1.3 1.9-2.3 3.9-2.3c2.2 0 3.7 1.3 3.7 3.8zm13.1 7.7h-1.5s.01-2.2 0-2.2c-.5 1.3-1.9 2.4-4 2.4c-3 0-5.1-2.3-5.1-5.9c0-3.5 2.1-5.8 5.1-5.8c1.9 0 3.3.9 3.9 2.1c.04.02 0-6.6 0-6.6h1.6v16zm-1.6-5.7c0-2.8-1.5-4.4-3.7-4.4c-2.2 0-3.7 1.7-3.7 4.4c0 2.8 1.5 4.5 3.7 4.5c2.2 0 3.7-1.7 3.7-4.5zm15.5 5.7s-1.62-.02-1.6 0c-1.5 0-2.9-.5-2.9-3c.05.02 0-6.9 0-6.9h-2.2V8.5h2.2V5.3l1.6-.4v3.6h2.7v1.4h-2.7s-.02 6.9 0 6.9c0 1 .3 1.6 1.5 1.6h1.4v1.4zm11.4-7.7v7.7h-1.5s-.03-7.56 0-7.6c0-1.5-.9-2.5-2.5-2.5c-1.9 0-3.6 1.4-3.6 4.2c-.02-.04 0 5.9 0 5.9h-1.6v-16h1.6s-.02 6.68 0 6.7c.6-1.3 1.8-2.2 3.8-2.2c2.4 0 3.8 1.3 3.8 3.8zm10.2 5.6c-.9 1.7-2.6 2.3-4 2.3c-2 0-3.7-1.1-3.7-3.3c0-2.1 1.5-3.1 3.4-3.3l2.7-.4c.9-.1 1.6-.4 1.6-1.4c0-1.3-1.2-2-2.7-2c-1.7 0-2.8.8-3 2.1h-1.5c.3-2.3 2.1-3.4 4.6-3.4c2.5 0 4.1 1.2 4.1 3.7c-.02-.01 0 7.8 0 7.8h-1.5v-2.1zm-1.9-3.4l-1.7.2c-1.4.2-2.5.7-2.5 2.1c0 1.4 1.1 2 2.3 2c1.8 0 3.7-1.3 3.7-3.7v-1.1c-.4.3-1 .4-1.8.5zm11.7 5.5s-1.69-.02-1.7 0c-1.5 0-2.8-.5-2.8-3c-.02.02 0-6.9 0-6.9h-2.2V8.5h2.2V5.3l1.5-.4v3.6h2.7v1.4h-2.7v6.9c0 1 .3 1.6 1.6 1.6h1.4v1.4zm18.2-5.7c0 3.5-2.1 5.9-5.1 5.9c-2.1 0-3.4-1.1-4-2.3v2.1h-1.5v-16h1.6s-.03 6.97 0 7c.5-1.4 2-2.5 4-2.5c2.9 0 5 2.2 5 5.8zm-1.6.1c0-2.8-1.5-4.4-3.7-4.4c-2.2 0-3.7 1.6-3.7 4.4c0 2.8 1.5 4.5 3.7 4.5c2.2 0 3.7-1.8 3.7-4.5zm7.3 7.7c-.4 1.2-1.4 1.6-2.6 1.6c-.01-.02-1.2 0-1.2 0v-1.4h1c.9 0 1.4-.3 1.8-1.3c-.02-.01.5-1.5.5-1.5l-4.2-10.8h1.6l3.3 8.9l3.4-8.9h1.5l-5.1 13.4zm21.5-9.8v7.7h-1.5s-.04-7.56 0-7.6c0-1.5-.9-2.5-2.5-2.5c-1.9 0-3.6 1.4-3.6 4.2c-.03-.04 0 5.9 0 5.9h-1.6v-16h1.6s-.03 6.68 0 6.7c.6-1.3 1.8-2.2 3.8-2.2c2.3 0 3.8 1.3 3.8 3.8zm10.2 5.6c-.9 1.7-2.6 2.3-4 2.3c-2 0-3.7-1.1-3.7-3.3c0-2.1 1.5-3.1 3.4-3.3l2.7-.4c.8-.1 1.6-.4 1.6-1.4c0-1.3-1.2-2-2.8-2c-1.7 0-2.7.8-2.9 2.1h-1.5c.3-2.3 2.1-3.4 4.6-3.4c2.5 0 4.1 1.2 4.1 3.7c-.03-.01 0 7.8 0 7.8h-1.5s-.02-2.08 0-2.1zm-1.9-3.4l-1.7.2c-1.4.2-2.5.7-2.5 2.1c0 1.4 1.1 2 2.3 2c1.8 0 3.7-1.3 3.7-3.7v-1.1c-.4.3-1 .4-1.8.5zm11 5.5h-1.7l-4.1-11.3h1.6l3.4 9.7l3.4-9.7h1.6l-4.2 11.3zm7.8-16h-1.7v1.9h1.7V3.8zm-.1 16h-1.5V8.5h1.5v11.3zm12.5-7.7c.04-.05 0 7.7 0 7.7h-1.5v-7.6c0-1.5-.9-2.5-2.5-2.5c-1.9 0-3.6 1.4-3.6 4.2v5.9h-1.5V8.5h1.5v2.1c.7-1.3 1.9-2.3 3.9-2.3c2.3 0 3.7 1.3 3.7 3.8zm13 7.2c0 3.4-2.2 5.1-5.1 5.1c-2.5 0-4.7-1.3-5.1-3.9h1.6c.2 1.4 1.2 2.6 3.5 2.6c2.1 0 3.6-1.1 3.6-3.7v-2.3c-.8 1.7-2.5 2.3-4 2.3c-2.7 0-4.9-1.9-4.9-5.6c0-3.7 2.3-5.5 5-5.5c1.8 0 3.2.8 3.9 2c-.02.03 0-1.8 0-1.8h1.5v10.8zm-1.6-5.5c0-2.8-1.7-4.2-3.6-4.2c-1.9 0-3.7 1.4-3.7 4.2c0 2.8 1.7 4.2 3.7 4.2c1.8 0 3.6-1.2 3.6-4.2zm17.4 3.9c-.8 1.7-2.5 2.3-4 2.3c-1.9 0-3.6-1.1-3.6-3.3c0-2.1 1.5-3.1 3.4-3.3l2.7-.4c.8-.1 1.5-.4 1.5-1.4c0-1.3-1.1-2-2.7-2c-1.7 0-2.7.8-2.9 2.1h-1.6c.3-2.3 2.1-3.4 4.6-3.4c2.6 0 4.1 1.2 4.1 3.7c.04-.01 0 7.8 0 7.8h-1.5s.05-2.08 0-2.1zm-1.8-3.4l-1.7.2c-1.5.2-2.5.7-2.5 2.1c0 1.4 1.1 2 2.3 2c1.8 0 3.7-1.3 3.7-3.7v-1.1c-.4.3-1.1.4-1.8.5zm22.3-.2c0 3.5-2.1 5.9-5.1 5.9c-2.1 0-3.4-1.1-4-2.3v2.1h-1.5v-16h1.6s-.03 6.97 0 7c.5-1.4 2-2.5 4-2.5c2.9 0 5 2.2 5 5.8zm-1.6.1c0-2.8-1.5-4.4-3.7-4.4c-2.2 0-3.7 1.6-3.7 4.4c0 2.8 1.5 4.5 3.7 4.5c2.2 0 3.7-1.8 3.7-4.5zm5.8-10.4h-1.7v1.9h1.7V3.8zm-.1 16h-1.5V8.5h1.5v11.3zm10.3-2.1c-.9 1.7-2.6 2.3-4 2.3c-1.9 0-3.7-1.1-3.7-3.3c0-2.1 1.5-3.1 3.5-3.3l2.6-.4c.9-.1 1.6-.4 1.6-1.4c0-1.3-1.1-2-2.7-2c-1.7 0-2.8.8-3 2.1h-1.5c.3-2.3 2.1-3.4 4.6-3.4c2.5 0 4.1 1.2 4.1 3.7v7.8h-1.5v-2.1zm-1.9-3.4l-1.7.2c-1.4.2-2.5.7-2.5 2.1c0 1.4 1.1 2 2.3 2c1.8 0 3.8-1.3 3.8-3.7v-1.1c-.5.3-1.1.4-1.9.5zm14.9 2.3c0 2.3-2.1 3.4-4.3 3.4c-2.4 0-4.7-1.2-4.9-3.7h1.6c.3 1.7 1.8 2.3 3.3 2.3c1.5 0 2.7-.5 2.7-1.8c0-1.3-1.3-1.6-2.6-1.8c-2.2-.4-4.7-.8-4.7-3.4c0-2.2 1.9-3.3 4.2-3.3c2.4 0 4.3 1.1 4.4 3.4h-1.6c-.1-1.4-1.4-2-2.8-2c-1.6 0-2.6.7-2.6 1.8c0 1.5 1.3 1.7 3 2c2.1.3 4.3.6 4.3 3.1zm12.7 3.2s-1.63-.02-1.6 0c-1.5 0-2.9-.5-2.9-3c.04.02 0-6.9 0-6.9h-2.2V8.5h2.2V5.3l1.6-.4v3.6h2.7v1.4h-2.7s-.03 6.9 0 6.9c0 1 .3 1.6 1.5 1.6h1.4v1.4zm1.5-5.6c0-3.7 2.2-5.9 5.3-5.9c3.1 0 5.4 2.2 5.4 5.9c0 3.6-2.2 5.8-5.3 5.8c-3.2 0-5.4-2.2-5.4-5.8zm9.1-.1c0-2.8-1.7-4.4-3.8-4.4c-2.2 0-3.7 1.7-3.7 4.5c0 2.8 1.7 4.4 3.8 4.4c2.2 0 3.7-1.7 3.7-4.5zm15.3 5.7h-1.5l-2.9-9l-3 9h-1.5l-3.7-11.3h1.6l2.9 9.3l2.9-9.3h1.5l3 9.3l2.8-9.3h1.6l-3.7 11.3zm12.5-2.1c-.9 1.7-2.6 2.3-4 2.3c-2 0-3.7-1.1-3.7-3.3c0-2.1 1.5-3.1 3.4-3.3l2.7-.4c.8-.1 1.6-.4 1.6-1.4c0-1.3-1.2-2-2.8-2c-1.7 0-2.7.8-2.9 2.1h-1.5c.3-2.3 2.1-3.4 4.6-3.4c2.5 0 4.1 1.2 4.1 3.7c-.03-.01 0 7.8 0 7.8h-1.5s-.02-2.08 0-2.1zm-1.9-3.4l-1.7.2c-1.4.2-2.5.7-2.5 2.1c0 1.4 1.1 2 2.3 2c1.8 0 3.7-1.3 3.7-3.7v-1.1c-.4.3-1 .4-1.8.5zm12.1-4.5s-.31.03-.3 0c-2.4 0-3.7 1.4-3.7 4c-.05 0 0 6 0 6h-1.6V8.5h1.5s.03 2.08 0 2.1c.6-1.5 1.9-2.2 3.7-2.2c-.04-.02.4 0 .4 0v1.4zm11.6 10H422s-.03-2.2 0-2.2c-.6 1.3-1.9 2.4-4 2.4c-3 0-5.1-2.3-5.1-5.9c0-3.5 2.1-5.8 5.1-5.8c1.9 0 3.3.9 3.9 2.1c.01.02 0-6.6 0-6.6h1.5v16zm-1.5-5.7c0-2.8-1.6-4.4-3.7-4.4c-2.2 0-3.7 1.7-3.7 4.4c0 2.8 1.5 4.5 3.7 4.5c2.2 0 3.7-1.7 3.7-4.5zm13.3 2.5c0 2.3-2.1 3.4-4.4 3.4c-2.4 0-4.6-1.2-4.8-3.7h1.6c.2 1.7 1.7 2.3 3.3 2.3c1.4 0 2.7-.5 2.7-1.8c0-1.3-1.3-1.6-2.6-1.8c-2.2-.4-4.8-.8-4.8-3.4c0-2.2 2-3.3 4.3-3.3c2.4 0 4.3 1.1 4.4 3.4h-1.6c-.1-1.4-1.4-2-2.9-2c-1.5 0-2.6.7-2.6 1.8c0 1.5 1.4 1.7 3.1 2c2 .3 4.3.6 4.3 3.1zm12.7 3.2s-1.68-.02-1.7 0c-1.5 0-2.8-.5-2.8-3V9.9h-2.2V8.5h2.2V5.3l1.5-.4v3.6h2.8v1.4h-2.8s.02 6.9 0 6.9c0 1 .3 1.6 1.6 1.6h1.4v1.4zm11.3-7.7c.04-.05 0 7.7 0 7.7h-1.5v-7.6c0-1.5-.9-2.5-2.5-2.5c-1.9 0-3.6 1.4-3.6 4.2c.02-.04 0 5.9 0 5.9h-1.5v-16h1.5s.02 6.68 0 6.7c.7-1.3 1.9-2.2 3.9-2.2c2.3 0 3.7 1.3 3.7 3.8zm4.1 2.4c0 2.8 1.7 4.1 3.7 4.1c1.5 0 3-.7 3.3-2.3h1.5c-.5 2.6-2.7 3.7-4.8 3.7c-2.7 0-5.2-1.8-5.2-5.8c0-4.1 2.5-5.9 5.2-5.9c2.7 0 4.9 1.7 4.9 5.5c-.03-.05 0 .7 0 .7h-8.6zm0-1.3h7c0-2.3-1.5-3.5-3.3-3.5c-1.8 0-3.5 1.1-3.7 3.5zm27 .9c0 3.5-2.1 5.9-5.1 5.9c-2.1 0-3.4-1.1-4-2.3v2.1h-1.5v-16h1.6s-.03 6.97 0 7c.5-1.4 2-2.5 4-2.5c2.9 0 5 2.2 5 5.8zm-1.6.1c0-2.8-1.5-4.4-3.7-4.4c-2.2 0-3.7 1.6-3.7 4.4c0 2.8 1.5 4.5 3.7 4.5c2.2 0 3.7-1.8 3.7-4.5zm3.5 0c0-3.7 2.2-5.9 5.3-5.9c3.1 0 5.3 2.2 5.3 5.9c0 3.6-2.2 5.8-5.3 5.8c-3.1 0-5.3-2.2-5.3-5.8zm9.1-.1c0-2.8-1.7-4.4-3.8-4.4c-2.2 0-3.8 1.7-3.8 4.5c0 2.8 1.7 4.4 3.8 4.4c2.2 0 3.8-1.7 3.8-4.5zm16.7 5.7s-1.72-.02-1.7 0c-1.5 0-2.9-.5-2.9-3c.05.02 0-6.9 0-6.9h-5.8s.05 6.9 0 6.9c0 1 .3 1.6 1.6 1.6h1.4v1.4s-1.65-.02-1.6 0c-1.5 0-2.9-.5-2.9-3c.02.02 0-6.9 0-6.9h-2.2V8.5h2.2V5.3l1.5-.4v3.6h5.8V5.3l1.6-.4v3.6h2.7v1.4H515s-.02 6.9 0 6.9c0 1 .3 1.6 1.5 1.6h1.5v1.4zm1.4-5.6c0-3.7 2.3-5.9 5.4-5.9c3.1 0 5.3 2.2 5.3 5.9c0 3.6-2.2 5.8-5.3 5.8c-3.1 0-5.4-2.2-5.4-5.8zm9.1-.1c0-2.8-1.7-4.4-3.8-4.4c-2.2 0-3.7 1.7-3.7 4.5c0 2.8 1.7 4.4 3.8 4.4c2.2 0 3.7-1.7 3.7-4.5zm4.2-5.6h1.6s-.04 1.87 0 1.9c.6-1.4 1.8-2.1 3.2-2.1c1.7 0 3 .9 3.4 2.3c.5-1.2 1.7-2.3 3.7-2.3c2 0 3.6 1.1 3.6 3.4c.02 0 0 8.1 0 8.1h-1.5v-7.6c0-1.7-1.1-2.5-2.4-2.5c-1.7 0-3.1 1.3-3.1 3.6c.03.03 0 6.5 0 6.5h-1.5s.02-7.56 0-7.6c0-1.7-1-2.5-2.4-2.5c-1.6 0-3 1.2-3 3.6c-.02.03 0 6.5 0 6.5h-1.6V8.5zm18.1 5.2v-1.4h6.5v1.4h-6.5zm16.7 6.1s-.04-2.16 0-2.2c-.8 1.6-2.2 2.3-3.8 2.3c-2.1 0-3.8-1.3-3.8-3.9c.04-.04 0-7.5 0-7.5h1.6s-.03 7.27 0 7.3c0 1.8 1 2.8 2.5 2.8c1.8 0 3.4-1.4 3.4-4.3V8.5h1.5v11.3h-1.4zm15.3-5.7c0 4.1-2.6 5.8-5.2 5.8c-1.9 0-3.2-.9-3.8-2.1c.02.03 0 6.3 0 6.3h-1.5V8.5h1.5s-.02 2.38 0 2.4c.5-1.4 2-2.6 4-2.6c2.4 0 5 1.7 5 5.8zm-1.6 0c0-3.1-1.8-4.3-3.6-4.3c-1.9 0-3.8 1.2-3.8 4.4c0 3.1 1.9 4.3 3.7 4.3c1.9 0 3.7-1.2 3.7-4.4zm5.3 5.6c.02-.04-1 0-1 0v-2.1h2.2s.04 2.12 0 2.1c0 2.5-1.4 3.4-3 3.5l-.2-.9c1.7-.3 2-1.3 2-2.6zM601 9.8s-.32.03-.3 0c-2.4 0-3.8 1.4-3.8 4c.04 0 0 6 0 6h-1.5V8.5h1.5s.02 2.08 0 2.1c.5-1.5 1.9-2.2 3.7-2.2c-.05-.02.4 0 .4 0v1.4zm2.6 4.7c0 2.8 1.8 4.1 3.8 4.1c1.4 0 2.9-.7 3.3-2.3h1.4c-.5 2.6-2.7 3.7-4.8 3.7c-2.7 0-5.2-1.8-5.2-5.8c0-4.1 2.5-5.9 5.2-5.9c2.7 0 4.9 1.7 4.9 5.5v.7h-8.6zm0-1.3h7c0-2.3-1.4-3.5-3.3-3.5c-1.8 0-3.5 1.1-3.7 3.5zm18.1 4.5c-.8 1.7-2.5 2.3-4 2.3c-1.9 0-3.6-1.1-3.6-3.3c0-2.1 1.5-3.1 3.4-3.3l2.7-.4c.8-.1 1.5-.4 1.5-1.4c0-1.3-1.1-2-2.7-2c-1.7 0-2.7.8-2.9 2.1h-1.6c.3-2.3 2.1-3.4 4.6-3.4c2.6 0 4.1 1.2 4.1 3.7c.03-.01 0 7.8 0 7.8h-1.5s.04-2.08 0-2.1zm-1.8-3.4l-1.7.2c-1.5.2-2.5.7-2.5 2.1c0 1.4 1 2 2.3 2c1.7 0 3.7-1.3 3.7-3.7v-1.1c-.4.3-1.1.4-1.8.5zm8 5.5h-1.5v-16h1.5v16zm4.9 0h-1.5v-16h1.5v16zm6.7 2.1c-.5 1.2-1.4 1.6-2.6 1.6c-.02-.02-1.2 0-1.2 0v-1.4h1c.9 0 1.4-.3 1.8-1.3c-.02-.01.5-1.5.5-1.5l-4.2-10.8h1.6l3.3 8.9l3.4-8.9h1.5l-5.1 13.4zm15.9-7.6l-2 2.1v3.4h-1.6v-16h1.6v10.7l5.5-6h2l-4.5 4.7l4.8 6.6h-1.8l-4-5.5zm17.2-2.2c-.02-.05 0 7.7 0 7.7H671s.05-7.56 0-7.6c0-1.5-.8-2.5-2.4-2.5c-2 0-3.6 1.4-3.6 4.2c-.04-.04 0 5.9 0 5.9h-1.6V8.5h1.6s-.04 2.1 0 2.1c.6-1.3 1.9-2.3 3.9-2.3c2.2 0 3.7 1.3 3.7 3.8zm2.5 2.1c0-3.7 2.2-5.9 5.3-5.9c3.1 0 5.4 2.2 5.4 5.9c0 3.6-2.2 5.8-5.3 5.8c-3.2 0-5.4-2.2-5.4-5.8zm9.1-.1c0-2.8-1.7-4.4-3.8-4.4c-2.2 0-3.7 1.7-3.7 4.5c0 2.8 1.7 4.4 3.8 4.4c2.2 0 3.7-1.7 3.7-4.5zm15.3 5.7H698l-2.9-9l-3 9h-1.5l-3.7-11.3h1.6l2.9 9.3l2.9-9.3h1.5l3 9.3l2.8-9.3h1.6l-3.7 11.3zm7.4-16h-1.7v1.9h1.7V3.8zm-.1 16h-1.5V8.5h1.5v11.3zm12.5-7.7v7.7h-1.5s-.03-7.56 0-7.6c0-1.5-.9-2.5-2.5-2.5c-1.9 0-3.6 1.4-3.6 4.2c-.02-.04 0 5.9 0 5.9h-1.6V8.5h1.6s-.02 2.1 0 2.1c.7-1.3 1.9-2.3 3.9-2.3c2.2 0 3.7 1.3 3.7 3.8zm13 7.2c0 3.4-2.2 5.1-5.1 5.1c-2.5 0-4.8-1.3-5.1-3.9h1.5c.3 1.4 1.3 2.6 3.6 2.6c2 0 3.6-1.1 3.6-3.7v-2.3c-.8 1.7-2.5 2.3-4 2.3c-2.7 0-5-1.9-5-5.6c0-3.7 2.4-5.5 5.1-5.5c1.8 0 3.2.8 3.9 2c-.05.03 0-1.8 0-1.8h1.5s-.04 10.78 0 10.8zm-1.6-5.5c0-2.8-1.7-4.2-3.6-4.2c-2 0-3.8 1.4-3.8 4.2c0 2.8 1.8 4.2 3.8 4.2c1.8 0 3.6-1.2 3.6-4.2zm17.4 3.9c-.9 1.7-2.6 2.3-4 2.3c-1.9 0-3.6-1.1-3.6-3.3c0-2.1 1.4-3.1 3.4-3.3l2.6-.4c.9-.1 1.6-.4 1.6-1.4c0-1.3-1.1-2-2.7-2c-1.7 0-2.7.8-3 2.1h-1.5c.3-2.3 2.1-3.4 4.6-3.4c2.6 0 4.1 1.2 4.1 3.7v7.8h-1.5s.02-2.08 0-2.1zm-1.9-3.4l-1.7.2c-1.4.2-2.5.7-2.5 2.1c0 1.4 1.1 2 2.4 2c1.7 0 3.7-1.3 3.7-3.7v-1.1c-.4.3-1.1.4-1.9.5zm15.7-2.2v7.7h-1.5s-.02-7.56 0-7.6c0-1.5-.9-2.5-2.5-2.5c-1.9 0-3.6 1.4-3.6 4.2v5.9h-1.5V8.5h1.5v2.1c.7-1.3 1.9-2.3 3.9-2.3c2.2 0 3.7 1.3 3.7 3.8zm13.1 7.7h-1.5s.01-2.2 0-2.2c-.5 1.3-1.9 2.4-4 2.4c-3 0-5.1-2.3-5.1-5.9c0-3.5 2.1-5.8 5.1-5.8c1.9 0 3.3.9 3.9 2.1c.04.02 0-6.6 0-6.6h1.6v16zm-1.6-5.7c0-2.8-1.5-4.4-3.7-4.4c-2.2 0-3.7 1.7-3.7 4.4c0 2.8 1.5 4.5 3.7 4.5c2.2 0 3.7-1.7 3.7-4.5zm19.8-2c-.04-.05 0 7.7 0 7.7h-1.6s.03-7.56 0-7.6c0-1.5-.9-2.5-2.4-2.5c-2 0-3.7 1.4-3.7 4.2c.04-.04 0 5.9 0 5.9H784v-16h1.5s.04 6.68 0 6.7c.7-1.3 1.9-2.2 3.9-2.2c2.3 0 3.8 1.3 3.8 3.8zm10.1 5.6c-.8 1.7-2.5 2.3-4 2.3c-1.9 0-3.6-1.1-3.6-3.3c0-2.1 1.5-3.1 3.4-3.3l2.7-.4c.8-.1 1.5-.4 1.5-1.4c0-1.3-1.1-2-2.7-2c-1.7 0-2.7.8-2.9 2.1h-1.6c.3-2.3 2.1-3.4 4.6-3.4c2.6 0 4.1 1.2 4.1 3.7c.04-.01 0 7.8 0 7.8h-1.5s.05-2.08 0-2.1zm-1.8-3.4l-1.7.2c-1.5.2-2.5.7-2.5 2.1c0 1.4 1 2 2.3 2c1.8 0 3.7-1.3 3.7-3.7v-1.1c-.4.3-1.1.4-1.8.5zm11 5.5h-1.7l-4.2-11.3h1.7l3.4 9.7l3.4-9.7h1.6l-4.2 11.3zm7.8-16h-1.8v1.9h1.8V3.8zm-.1 16h-1.5V8.5h1.5v11.3zm12.5-7.7v7.7h-1.5s-.03-7.56 0-7.6c0-1.5-.9-2.5-2.5-2.5c-1.9 0-3.6 1.4-3.6 4.2c-.02-.04 0 5.9 0 5.9h-1.6V8.5h1.6s-.02 2.1 0 2.1c.7-1.3 1.9-2.3 3.9-2.3c2.2 0 3.7 1.3 3.7 3.8zm13 7.2c0 3.4-2.2 5.1-5.1 5.1c-2.5 0-4.8-1.3-5.1-3.9h1.5c.3 1.4 1.3 2.6 3.6 2.6c2 0 3.6-1.1 3.6-3.7v-2.3c-.8 1.7-2.5 2.3-4 2.3c-2.8 0-5-1.9-5-5.6c0-3.7 2.4-5.5 5.1-5.5c1.8 0 3.2.8 3.8 2c.05.03 0-1.8 0-1.8h1.6s-.04 10.78 0 10.8zm-1.6-5.5c0-2.8-1.7-4.2-3.6-4.2c-2 0-3.8 1.4-3.8 4.2c0 2.8 1.8 4.2 3.8 4.2c1.8 0 3.6-1.2 3.6-4.2z" stroke="none" fill="#fff"/></g></svg>