<?xml version="1.0" standalone="no"?><!DOCTYPE svg PUBLIC "-//W3C//DTD SVG 1.1//EN" "http://www.w3.org/Graphics/SVG/1.1/DTD/svg11.dtd"><svg xmlns="http://www.w3.org/2000/svg" version="1.1" width="193.1px" height="133.6px" viewBox="0 0 193.1 133.6">  <desc>70%</desc>  <defs/>  <g id="Polygon9942">    <path d="M 43.5 25.5 L 21.2 71.6 L 10.8 71.6 L 33 25.6 L 2.1 25.6 L 2.1 15.6 L 43.5 15.6 L 43.5 25.5 Z M 48.5 43.7 C 48.5 26.1 54.6 14.6 68.4 14.6 C 82.2 14.6 88.3 26.1 88.3 43.5 C 88.3 61.1 82 72.5 68.2 72.5 C 54.5 72.5 48.5 61.1 48.5 43.7 Z M 78.2 43.9 C 78.2 32.7 75.3 23.6 68.2 23.6 C 61.7 23.6 58.6 30.9 58.6 43.2 C 58.6 55.7 61.9 63.6 68.5 63.6 C 75.2 63.6 78.2 55.3 78.2 43.9 Z M 106.2 12.7 C 114.7 12.7 120.9 18.5 120.9 27.1 C 120.9 35.6 114.7 41.6 106.2 41.6 C 98.2 41.6 92 35.6 92 27.1 C 92 18.5 98.2 12.7 106.2 12.7 Z M 110.7 71.6 L 104.7 71.6 L 140.6 14.6 L 146.7 14.6 L 110.7 71.6 Z M 106.4 19.2 C 101.9 19.2 98.9 22.3 98.9 27.1 C 98.9 31.8 101.9 35.1 106.4 35.1 C 110.8 35.1 114 31.8 114 27.1 C 114 22.3 110.8 19.2 106.4 19.2 Z M 143 44.8 C 151.4 44.8 157.6 50.6 157.6 59.3 C 157.6 67.8 151.4 73.8 143 73.8 C 134.9 73.8 128.7 67.8 128.7 59.3 C 128.7 50.6 134.9 44.8 143 44.8 Z M 143.1 51.3 C 138.6 51.3 135.6 54.5 135.6 59.2 C 135.6 64 138.6 67.3 143.1 67.3 C 147.5 67.3 150.7 64 150.7 59.2 C 150.7 54.5 147.5 51.3 143.1 51.3 Z " stroke="none" fill="#000"/>  </g></svg>