<?xml version="1.0" standalone="no"?><!DOCTYPE svg PUBLIC "-//W3C//DTD SVG 1.1//EN" "http://www.w3.org/Graphics/SVG/1.1/DTD/svg11.dtd"><svg xmlns="http://www.w3.org/2000/svg" version="1.1" width="51px" height="61.3px" viewBox="0 -1 51 61.3" style="top:-1px"><desc>2 9</desc><defs/><g id="Polygon9491"><path d="m20.8 36.9H2.5v-2.5s6.73-6.07 6.7-6.1c4.6-4.1 7.8-6.7 7.8-10.6c0-3.4-2.4-5.3-5.6-5.3c-3.2 0-6.1 2-6.4 6.2H2.3c.2-5.8 4.4-8.7 9.2-8.7c4.6 0 8.4 2.7 8.4 7.6c0 4.3-3 7.1-7.9 11.5c.04.02-6 5.5-6 5.5h14.8v2.4zm3.1-3.8h3.7v3.8h-3.7v-3.8zm25.5-9.3c0 11.6-5.8 13.6-9.8 13.6c-4.8 0-7.9-2.8-8.3-7.2h2.8c.3 2.8 2.3 4.7 5.5 4.7c3.6 0 7.3-2.2 7.3-10.6c0-.4 0-.6-.1-.9c-1.6 2.9-4.6 4.2-7.6 4.2c-5 0-8.6-3.7-8.6-8.7c0-4.5 3-9 8.9-9c5 0 9.9 3.3 9.9 13.9zm-3.6-5c0-3.7-2.6-6.4-6.3-6.4c-3.7 0-6.3 2.7-6.3 6.4c0 3.7 2.6 6.3 6.3 6.3c3.8 0 6.3-2.7 6.3-6.3z" stroke="none" fill="#000"/></g></svg>