<?xml version="1.0" standalone="no"?><!DOCTYPE svg PUBLIC "-//W3C//DTD SVG 1.1//EN" "http://www.w3.org/Graphics/SVG/1.1/DTD/svg11.dtd"><svg xmlns="http://www.w3.org/2000/svg" version="1.1" width="380.4px" height="137.4px" viewBox="0 0 380.4 137.4">  <desc>alors que d autres comme le commerce de d tail et l automobile taient d j sous la pression des de changements struc</desc>  <defs/>  <g id="Polygon11579">    <path d="M 3.2 120.6 L 1.7 120.6 L 1.7 104.6 L 3.2 104.6 L 3.2 120.6 Z M 7.7 106.8 C 7.66 106.78 6.7 106.8 6.7 106.8 L 6.7 104.7 L 8.9 104.7 C 8.9 104.7 8.88 106.85 8.9 106.8 C 8.9 109.3 7.4 110.2 5.8 110.4 C 5.8 110.4 5.6 109.4 5.6 109.4 C 7.3 109.1 7.7 108.1 7.7 106.8 Z M 18.2 118.5 C 17.3 120.2 15.6 120.8 14.2 120.8 C 12.3 120.8 10.6 119.7 10.6 117.5 C 10.6 115.4 12.1 114.4 14 114.2 C 14 114.2 16.7 113.8 16.7 113.8 C 17.5 113.7 18.2 113.4 18.2 112.4 C 18.2 111.1 17.1 110.4 15.5 110.4 C 13.8 110.4 12.8 111.2 12.5 112.5 C 12.5 112.5 11 112.5 11 112.5 C 11.3 110.2 13.1 109.1 15.6 109.1 C 18.2 109.1 19.7 110.3 19.7 112.8 C 19.72 112.79 19.7 120.6 19.7 120.6 L 18.2 120.6 C 18.2 120.6 18.23 118.52 18.2 118.5 Z M 16.4 115.1 C 16.4 115.1 14.6 115.3 14.6 115.3 C 13.2 115.5 12.1 116 12.1 117.4 C 12.1 118.8 13.2 119.4 14.5 119.4 C 16.2 119.4 18.2 118.1 18.2 115.7 C 18.2 115.7 18.2 114.6 18.2 114.6 C 17.8 114.9 17.1 115 16.4 115.1 Z M 33.4 114.9 C 33.4 119 30.8 120.7 28.2 120.7 C 26.3 120.7 25 119.8 24.4 118.6 C 24.4 118.63 24.4 124.9 24.4 124.9 L 22.9 124.9 L 22.9 109.3 L 24.4 109.3 C 24.4 109.3 24.36 111.68 24.4 111.7 C 24.9 110.3 26.3 109.1 28.4 109.1 C 30.8 109.1 33.4 110.8 33.4 114.9 Z M 31.8 114.9 C 31.8 111.8 30 110.6 28.2 110.6 C 26.3 110.6 24.4 111.8 24.4 115 C 24.4 118.1 26.2 119.3 28.1 119.3 C 30 119.3 31.8 118.1 31.8 114.9 Z M 46.5 114.9 C 46.5 119 44 120.7 41.4 120.7 C 39.4 120.7 38.2 119.8 37.5 118.6 C 37.55 118.63 37.5 124.9 37.5 124.9 L 36 124.9 L 36 109.3 L 37.5 109.3 C 37.5 109.3 37.51 111.68 37.5 111.7 C 38 110.3 39.5 109.1 41.5 109.1 C 44 109.1 46.5 110.8 46.5 114.9 Z M 45 114.9 C 45 111.8 43.2 110.6 41.3 110.6 C 39.4 110.6 37.6 111.8 37.6 115 C 37.6 118.1 39.4 119.3 41.3 119.3 C 43.1 119.3 45 118.1 45 114.9 Z M 56.1 118.5 C 55.2 120.2 53.5 120.8 52.1 120.8 C 50.1 120.8 48.4 119.7 48.4 117.5 C 48.4 115.4 49.9 114.4 51.8 114.2 C 51.8 114.2 54.5 113.8 54.5 113.8 C 55.4 113.7 56.1 113.4 56.1 112.4 C 56.1 111.1 54.9 110.4 53.4 110.4 C 51.7 110.4 50.6 111.2 50.4 112.5 C 50.4 112.5 48.9 112.5 48.9 112.5 C 49.2 110.2 51 109.1 53.5 109.1 C 56 109.1 57.6 110.3 57.6 112.8 C 57.58 112.79 57.6 120.6 57.6 120.6 L 56.1 120.6 C 56.1 120.6 56.09 118.52 56.1 118.5 Z M 54.2 115.1 C 54.2 115.1 52.5 115.3 52.5 115.3 C 51.1 115.5 50 116 50 117.4 C 50 118.8 51.1 119.4 52.3 119.4 C 54.1 119.4 56 118.1 56 115.7 C 56 115.7 56 114.6 56 114.6 C 55.6 114.9 55 115 54.2 115.1 Z M 66.4 110.6 C 66.4 110.6 66 110.63 66 110.6 C 63.6 110.6 62.3 112 62.3 114.6 C 62.26 114.6 62.3 120.6 62.3 120.6 L 60.7 120.6 L 60.7 109.3 L 62.2 109.3 C 62.2 109.3 62.24 111.38 62.2 111.4 C 62.8 109.9 64.1 109.2 65.9 109.2 C 65.88 109.18 66.4 109.2 66.4 109.2 L 66.4 110.6 Z M 70 104.6 L 68.2 104.6 L 68.2 106.5 L 70 106.5 L 70 104.6 Z M 69.9 120.6 L 68.4 120.6 L 68.4 109.3 L 69.9 109.3 L 69.9 120.6 Z M 78.4 120.6 C 78.4 120.6 76.73 120.58 76.7 120.6 C 75.2 120.6 73.9 120.1 73.9 117.6 C 73.9 117.62 73.9 110.7 73.9 110.7 L 71.7 110.7 L 71.7 109.3 L 73.9 109.3 L 73.9 106.1 L 75.4 105.7 L 75.4 109.3 L 78.2 109.3 L 78.2 110.7 L 75.4 110.7 C 75.4 110.7 75.43 117.6 75.4 117.6 C 75.4 118.6 75.7 119.2 77 119.2 C 76.98 119.2 78.4 119.2 78.4 119.2 L 78.4 120.6 Z M 82.2 104.6 L 80.5 104.6 L 80.5 106.5 L 82.2 106.5 L 82.2 104.6 Z M 82.1 120.6 L 80.6 120.6 L 80.6 109.3 L 82.1 109.3 L 82.1 120.6 Z M 84.8 115 C 84.8 111.3 87 109.1 90.1 109.1 C 93.2 109.1 95.4 111.3 95.4 115 C 95.4 118.6 93.2 120.8 90.1 120.8 C 87 120.8 84.8 118.6 84.8 115 Z M 93.9 114.9 C 93.9 112.1 92.2 110.5 90.1 110.5 C 87.9 110.5 86.3 112.2 86.3 115 C 86.3 117.8 88 119.4 90.1 119.4 C 92.3 119.4 93.9 117.7 93.9 114.9 Z M 107.2 112.9 C 107.22 112.85 107.2 120.6 107.2 120.6 L 105.7 120.6 C 105.7 120.6 105.69 113.04 105.7 113 C 105.7 111.5 104.8 110.5 103.2 110.5 C 101.3 110.5 99.6 111.9 99.6 114.7 C 99.6 114.66 99.6 120.6 99.6 120.6 L 98.1 120.6 L 98.1 109.3 L 99.6 109.3 C 99.6 109.3 99.6 111.4 99.6 111.4 C 100.3 110.1 101.5 109.1 103.5 109.1 C 105.8 109.1 107.2 110.4 107.2 112.9 Z M 125.5 120.6 L 124.1 120.6 C 124.1 120.6 124.07 118.4 124.1 118.4 C 123.5 119.7 122.2 120.8 120.1 120.8 C 117.1 120.8 115 118.5 115 114.9 C 115 111.4 117.1 109.1 120.1 109.1 C 122 109.1 123.4 110 124 111.2 C 124 111.22 124 104.6 124 104.6 L 125.5 104.6 L 125.5 120.6 Z M 124 114.9 C 124 112.1 122.4 110.5 120.3 110.5 C 118.1 110.5 116.6 112.2 116.6 114.9 C 116.6 117.7 118.1 119.4 120.3 119.4 C 122.4 119.4 124 117.7 124 114.9 Z M 136.3 120.6 C 136.3 120.6 136.31 118.44 136.3 118.4 C 135.5 120 134.1 120.7 132.5 120.7 C 130.4 120.7 128.8 119.4 128.8 116.8 C 128.79 116.76 128.8 109.3 128.8 109.3 L 130.3 109.3 C 130.3 109.3 130.32 116.57 130.3 116.6 C 130.3 118.4 131.3 119.4 132.8 119.4 C 134.6 119.4 136.2 118 136.2 115.1 C 136.25 115.14 136.2 109.3 136.2 109.3 L 137.8 109.3 L 137.8 120.6 L 136.3 120.6 Z M 157.9 109.6 C 157.6 107.3 155.5 105.9 153.1 105.9 C 149.8 105.9 147.3 108.5 147.3 112.6 C 147.3 116.2 149.3 119.5 153.2 119.5 C 155.8 119.5 157.9 118 158.1 115.3 C 158.1 115.3 159.7 115.3 159.7 115.3 C 159.6 118.9 156.7 121 153.1 121 C 148.2 121 145.7 117 145.7 112.6 C 145.7 107.6 148.8 104.5 153.2 104.5 C 156.5 104.5 159.3 106.2 159.6 109.6 C 159.6 109.6 157.9 109.6 157.9 109.6 Z M 161.9 112.7 C 161.9 108.3 164.8 104.5 169.6 104.5 C 174.4 104.5 177.2 108.3 177.2 112.7 C 177.2 117.1 174.4 121 169.6 121 C 164.8 121 161.9 117.1 161.9 112.7 Z M 163.6 112.7 C 163.6 116.3 165.8 119.5 169.6 119.5 C 173.4 119.5 175.5 116.4 175.5 112.8 C 175.5 109.1 173.4 106 169.6 106 C 165.8 106 163.6 109.1 163.6 112.7 Z M 185.6 120.6 L 183.9 120.6 L 178.5 104.8 L 180.2 104.8 L 184.8 118.7 L 189.4 104.8 L 191 104.8 L 185.6 120.6 Z M 195.1 120.6 L 193.5 120.6 L 193.5 104.8 L 195.1 104.8 L 195.1 120.6 Z M 211.4 112.4 C 211.4 116.5 208.9 120.6 203.5 120.6 C 203.55 120.58 199 120.6 199 120.6 L 199 104.8 C 199 104.8 203.82 104.83 203.8 104.8 C 208.9 104.8 211.4 108.5 211.4 112.4 Z M 209.8 112.5 C 209.8 109.3 207.8 106.2 203.7 106.2 C 203.7 106.24 200.6 106.2 200.6 106.2 L 200.6 119.1 C 200.6 119.1 203.57 119.13 203.6 119.1 C 207.7 119.1 209.8 115.8 209.8 112.5 Z M 214.5 120.5 C 214.53 120.46 213.5 120.5 213.5 120.5 L 213.5 118.4 L 215.8 118.4 C 215.8 118.4 215.75 120.52 215.8 120.5 C 215.8 123 214.3 123.9 212.7 124 C 212.7 124 212.5 123.1 212.5 123.1 C 214.2 122.8 214.5 121.8 214.5 120.5 Z " stroke="none" fill="#000"/>  </g>  <g id="Polygon11578">    <path d="M 11.5 95.4 L 10 95.4 C 10 95.4 10.02 93.2 10 93.2 C 9.5 94.5 8.1 95.6 6 95.6 C 3 95.6 0.9 93.3 0.9 89.7 C 0.9 86.2 3 83.9 6 83.9 C 7.9 83.9 9.3 84.8 10 86 C 9.95 86.02 10 79.4 10 79.4 L 11.5 79.4 L 11.5 95.4 Z M 9.9 89.7 C 9.9 86.9 8.4 85.3 6.2 85.3 C 4 85.3 2.5 87 2.5 89.7 C 2.5 92.5 4 94.2 6.2 94.2 C 8.4 94.2 9.9 92.5 9.9 89.7 Z M 15.6 90.1 C 15.7 92.9 17.4 94.2 19.4 94.2 C 20.9 94.2 22.3 93.5 22.7 91.9 C 22.7 91.9 24.1 91.9 24.1 91.9 C 23.6 94.5 21.4 95.6 19.3 95.6 C 16.6 95.6 14.1 93.8 14.1 89.8 C 14.1 85.7 16.7 83.9 19.4 83.9 C 22 83.9 24.2 85.6 24.2 89.4 C 24.21 89.35 24.2 90.1 24.2 90.1 C 24.2 90.1 15.62 90.11 15.6 90.1 Z M 15.7 88.8 C 15.7 88.8 22.7 88.8 22.7 88.8 C 22.7 86.5 21.2 85.3 19.3 85.3 C 17.5 85.3 15.9 86.4 15.7 88.8 Z M 36.2 95.6 C 33.1 95.6 30.9 93.3 30.9 89.8 C 30.9 86.2 33 83.9 36.3 83.9 C 38.8 83.9 40.8 85.3 41 87.8 C 41 87.8 39.5 87.8 39.5 87.8 C 39.3 86.2 37.9 85.3 36.3 85.3 C 34.1 85.3 32.5 87 32.5 89.7 C 32.5 92.5 34 94.2 36.2 94.2 C 37.9 94.2 39.3 93.2 39.4 91.4 C 39.4 91.4 41 91.4 41 91.4 C 40.8 94.1 38.7 95.6 36.2 95.6 Z M 52.7 87.7 C 52.73 87.65 52.7 95.4 52.7 95.4 L 51.2 95.4 C 51.2 95.4 51.2 87.84 51.2 87.8 C 51.2 86.3 50.3 85.3 48.7 85.3 C 46.8 85.3 45.1 86.7 45.1 89.5 C 45.11 89.46 45.1 95.4 45.1 95.4 L 43.6 95.4 L 43.6 79.4 L 45.1 79.4 C 45.1 79.4 45.11 86.08 45.1 86.1 C 45.8 84.8 47 83.9 49 83.9 C 51.3 83.9 52.7 85.2 52.7 87.7 Z M 62.9 93.3 C 62 95 60.3 95.6 58.9 95.6 C 57 95.6 55.3 94.5 55.3 92.3 C 55.3 90.2 56.7 89.2 58.7 89 C 58.7 89 61.3 88.6 61.3 88.6 C 62.2 88.5 62.9 88.2 62.9 87.2 C 62.9 85.9 61.8 85.2 60.2 85.2 C 58.5 85.2 57.5 86 57.2 87.3 C 57.2 87.3 55.7 87.3 55.7 87.3 C 56 85 57.8 83.9 60.3 83.9 C 62.9 83.9 64.4 85.1 64.4 87.6 C 64.41 87.59 64.4 95.4 64.4 95.4 L 62.9 95.4 C 62.9 95.4 62.92 93.32 62.9 93.3 Z M 61 89.9 C 61 89.9 59.3 90.1 59.3 90.1 C 57.9 90.3 56.8 90.8 56.8 92.2 C 56.8 93.6 57.9 94.2 59.2 94.2 C 60.9 94.2 62.9 92.9 62.9 90.5 C 62.9 90.5 62.9 89.4 62.9 89.4 C 62.5 89.7 61.8 89.8 61 89.9 Z M 76.7 87.7 C 76.71 87.65 76.7 95.4 76.7 95.4 L 75.2 95.4 C 75.2 95.4 75.18 87.84 75.2 87.8 C 75.2 86.3 74.3 85.3 72.7 85.3 C 70.8 85.3 69.1 86.7 69.1 89.5 C 69.09 89.46 69.1 95.4 69.1 95.4 L 67.6 95.4 L 67.6 84.1 L 69.1 84.1 C 69.1 84.1 69.09 86.2 69.1 86.2 C 69.8 84.9 71 83.9 73 83.9 C 75.2 83.9 76.7 85.2 76.7 87.7 Z M 89.7 94.9 C 89.7 98.3 87.5 100 84.6 100 C 82.1 100 79.8 98.7 79.5 96.1 C 79.5 96.1 81 96.1 81 96.1 C 81.3 97.5 82.3 98.7 84.6 98.7 C 86.6 98.7 88.2 97.6 88.2 95 C 88.2 95 88.2 92.7 88.2 92.7 C 87.4 94.4 85.7 95 84.2 95 C 81.5 95 79.2 93.1 79.2 89.4 C 79.2 85.7 81.6 83.9 84.3 83.9 C 86.1 83.9 87.5 84.7 88.2 85.9 C 88.16 85.93 88.2 84.1 88.2 84.1 L 89.7 84.1 C 89.7 84.1 89.67 94.88 89.7 94.9 Z M 88.1 89.4 C 88.1 86.6 86.4 85.2 84.5 85.2 C 82.6 85.2 80.7 86.6 80.7 89.4 C 80.7 92.2 82.5 93.6 84.5 93.6 C 86.3 93.6 88.1 92.4 88.1 89.4 Z M 93.7 90.1 C 93.7 92.9 95.5 94.2 97.5 94.2 C 99 94.2 100.4 93.5 100.8 91.9 C 100.8 91.9 102.2 91.9 102.2 91.9 C 101.7 94.5 99.5 95.6 97.4 95.6 C 94.7 95.6 92.2 93.8 92.2 89.8 C 92.2 85.7 94.7 83.9 97.4 83.9 C 100.1 83.9 102.3 85.6 102.3 89.4 C 102.29 89.35 102.3 90.1 102.3 90.1 C 102.3 90.1 93.7 90.11 93.7 90.1 Z M 93.7 88.8 C 93.7 88.8 100.7 88.8 100.7 88.8 C 100.7 86.5 99.3 85.3 97.4 85.3 C 95.6 85.3 94 86.4 93.7 88.8 Z M 104.9 84.1 L 106.4 84.1 C 106.4 84.1 106.43 85.97 106.4 86 C 107 84.6 108.3 83.9 109.7 83.9 C 111.4 83.9 112.7 84.8 113 86.2 C 113.5 85 114.8 83.9 116.7 83.9 C 118.8 83.9 120.4 85 120.4 87.3 C 120.39 87.3 120.4 95.4 120.4 95.4 L 118.9 95.4 C 118.9 95.4 118.86 87.84 118.9 87.8 C 118.9 86.1 117.8 85.3 116.5 85.3 C 114.8 85.3 113.4 86.6 113.4 88.9 C 113.4 88.93 113.4 95.4 113.4 95.4 L 111.9 95.4 C 111.9 95.4 111.89 87.84 111.9 87.8 C 111.9 86.1 110.9 85.3 109.5 85.3 C 107.9 85.3 106.4 86.5 106.4 88.9 C 106.45 88.93 106.4 95.4 106.4 95.4 L 104.9 95.4 L 104.9 84.1 Z M 124.4 90.1 C 124.5 92.9 126.2 94.2 128.2 94.2 C 129.7 94.2 131.1 93.5 131.5 91.9 C 131.5 91.9 132.9 91.9 132.9 91.9 C 132.4 94.5 130.2 95.6 128.1 95.6 C 125.4 95.6 122.9 93.8 122.9 89.8 C 122.9 85.7 125.5 83.9 128.2 83.9 C 130.8 83.9 133 85.6 133 89.4 C 133.01 89.35 133 90.1 133 90.1 C 133 90.1 124.42 90.11 124.4 90.1 Z M 124.5 88.8 C 124.5 88.8 131.5 88.8 131.5 88.8 C 131.5 86.5 130 85.3 128.1 85.3 C 126.3 85.3 124.7 86.4 124.5 88.8 Z M 144.8 87.7 C 144.79 87.65 144.8 95.4 144.8 95.4 L 143.3 95.4 C 143.3 95.4 143.26 87.84 143.3 87.8 C 143.3 86.3 142.4 85.3 140.8 85.3 C 138.9 85.3 137.2 86.7 137.2 89.5 C 137.17 89.46 137.2 95.4 137.2 95.4 L 135.6 95.4 L 135.6 84.1 L 137.2 84.1 C 137.2 84.1 137.17 86.2 137.2 86.2 C 137.8 84.9 139.1 83.9 141.1 83.9 C 143.3 83.9 144.8 85.2 144.8 87.7 Z M 153.2 95.4 C 153.2 95.4 151.53 95.38 151.5 95.4 C 150 95.4 148.7 94.9 148.7 92.4 C 148.7 92.42 148.7 85.5 148.7 85.5 L 146.5 85.5 L 146.5 84.1 L 148.7 84.1 L 148.7 80.9 L 150.2 80.5 L 150.2 84.1 L 153 84.1 L 153 85.5 L 150.2 85.5 C 150.2 85.5 150.23 92.4 150.2 92.4 C 150.2 93.4 150.5 94 151.8 94 C 151.79 94 153.2 94 153.2 94 L 153.2 95.4 Z M 163.8 92.2 C 163.8 94.5 161.7 95.6 159.4 95.6 C 157 95.6 154.8 94.4 154.6 91.9 C 154.6 91.9 156.2 91.9 156.2 91.9 C 156.4 93.6 157.9 94.2 159.5 94.2 C 160.9 94.2 162.2 93.7 162.2 92.4 C 162.2 91.1 160.9 90.8 159.6 90.6 C 157.4 90.2 154.8 89.8 154.8 87.2 C 154.8 85 156.8 83.9 159.1 83.9 C 161.5 83.9 163.4 85 163.5 87.3 C 163.5 87.3 161.9 87.3 161.9 87.3 C 161.8 85.9 160.5 85.3 159 85.3 C 157.5 85.3 156.4 86 156.4 87.1 C 156.4 88.6 157.8 88.8 159.5 89.1 C 161.5 89.4 163.8 89.7 163.8 92.2 Z M 179.5 92.2 C 179.5 94.5 177.4 95.6 175.2 95.6 C 172.7 95.6 170.5 94.4 170.3 91.9 C 170.3 91.9 171.9 91.9 171.9 91.9 C 172.2 93.6 173.6 94.2 175.2 94.2 C 176.6 94.2 177.9 93.7 177.9 92.4 C 177.9 91.1 176.6 90.8 175.3 90.6 C 173.1 90.2 170.6 89.8 170.6 87.2 C 170.6 85 172.5 83.9 174.8 83.9 C 177.2 83.9 179.1 85 179.2 87.3 C 179.2 87.3 177.6 87.3 177.6 87.3 C 177.5 85.9 176.2 85.3 174.7 85.3 C 173.2 85.3 172.2 86 172.2 87.1 C 172.2 88.6 173.5 88.8 175.2 89.1 C 177.3 89.4 179.5 89.7 179.5 92.2 Z M 187.2 95.4 C 187.2 95.4 185.51 95.38 185.5 95.4 C 184 95.4 182.7 94.9 182.7 92.4 C 182.68 92.42 182.7 85.5 182.7 85.5 L 180.5 85.5 L 180.5 84.1 L 182.7 84.1 L 182.7 80.9 L 184.2 80.5 L 184.2 84.1 L 186.9 84.1 L 186.9 85.5 L 184.2 85.5 C 184.2 85.5 184.21 92.4 184.2 92.4 C 184.2 93.4 184.5 94 185.8 94 C 185.76 94 187.2 94 187.2 94 L 187.2 95.4 Z M 195 85.4 C 195 85.4 194.65 85.43 194.6 85.4 C 192.3 85.4 190.9 86.8 190.9 89.4 C 190.91 89.4 190.9 95.4 190.9 95.4 L 189.4 95.4 L 189.4 84.1 L 190.9 84.1 C 190.9 84.1 190.89 86.18 190.9 86.2 C 191.4 84.7 192.8 84 194.5 84 C 194.52 83.98 195 84 195 84 L 195 85.4 Z M 204.4 95.4 C 204.4 95.4 204.41 93.24 204.4 93.2 C 203.6 94.8 202.2 95.5 200.7 95.5 C 198.5 95.5 196.9 94.2 196.9 91.6 C 196.89 91.56 196.9 84.1 196.9 84.1 L 198.4 84.1 C 198.4 84.1 198.43 91.37 198.4 91.4 C 198.4 93.2 199.4 94.2 200.9 94.2 C 202.7 94.2 204.3 92.8 204.3 89.9 C 204.35 89.94 204.3 84.1 204.3 84.1 L 205.9 84.1 L 205.9 95.4 L 204.4 95.4 Z M 213.7 95.6 C 210.6 95.6 208.5 93.3 208.5 89.8 C 208.5 86.2 210.6 83.9 213.9 83.9 C 216.4 83.9 218.4 85.3 218.5 87.8 C 218.5 87.8 217 87.8 217 87.8 C 216.9 86.2 215.5 85.3 213.8 85.3 C 211.6 85.3 210.1 87 210.1 89.7 C 210.1 92.5 211.6 94.2 213.8 94.2 C 215.5 94.2 216.9 93.2 217 91.4 C 217 91.4 218.5 91.4 218.5 91.4 C 218.4 94.1 216.2 95.6 213.7 95.6 Z M 226.3 95.4 C 226.3 95.4 224.63 95.38 224.6 95.4 C 223.1 95.4 221.8 94.9 221.8 92.4 C 221.8 92.42 221.8 85.5 221.8 85.5 L 219.6 85.5 L 219.6 84.1 L 221.8 84.1 L 221.8 80.9 L 223.3 80.5 L 223.3 84.1 L 226.1 84.1 L 226.1 85.5 L 223.3 85.5 C 223.3 85.5 223.33 92.4 223.3 92.4 C 223.3 93.4 223.6 94 224.9 94 C 224.89 94 226.3 94 226.3 94 L 226.3 95.4 Z M 235.9 95.4 C 235.9 95.4 235.91 93.24 235.9 93.2 C 235.1 94.8 233.7 95.5 232.2 95.5 C 230 95.5 228.4 94.2 228.4 91.6 C 228.39 91.56 228.4 84.1 228.4 84.1 L 229.9 84.1 C 229.9 84.1 229.93 91.37 229.9 91.4 C 229.9 93.2 230.9 94.2 232.4 94.2 C 234.2 94.2 235.8 92.8 235.8 89.9 C 235.85 89.94 235.8 84.1 235.8 84.1 L 237.4 84.1 L 237.4 95.4 L 235.9 95.4 Z M 246.4 85.4 C 246.4 85.4 246.01 85.43 246 85.4 C 243.6 85.4 242.3 86.8 242.3 89.4 C 242.27 89.4 242.3 95.4 242.3 95.4 L 240.7 95.4 L 240.7 84.1 L 242.3 84.1 C 242.3 84.1 242.25 86.18 242.3 86.2 C 242.8 84.7 244.1 84 245.9 84 C 245.89 83.98 246.4 84 246.4 84 L 246.4 85.4 Z M 248.9 90.1 C 249 92.9 250.7 94.2 252.7 94.2 C 254.2 94.2 255.7 93.5 256 91.9 C 256 91.9 257.4 91.9 257.4 91.9 C 256.9 94.5 254.7 95.6 252.6 95.6 C 249.9 95.6 247.4 93.8 247.4 89.8 C 247.4 85.7 250 83.9 252.7 83.9 C 255.3 83.9 257.5 85.6 257.5 89.4 C 257.52 89.35 257.5 90.1 257.5 90.1 C 257.5 90.1 248.93 90.11 248.9 90.1 Z M 249 88.8 C 249 88.8 256 88.8 256 88.8 C 256 86.5 254.5 85.3 252.6 85.3 C 250.8 85.3 249.2 86.4 249 88.8 Z M 261.7 95.4 L 260.1 95.4 L 260.1 79.4 L 261.7 79.4 L 261.7 95.4 Z M 273.4 92.2 C 273.4 94.5 271.3 95.6 269.1 95.6 C 266.7 95.6 264.4 94.4 264.2 91.9 C 264.2 91.9 265.8 91.9 265.8 91.9 C 266.1 93.6 267.6 94.2 269.1 94.2 C 270.5 94.2 271.8 93.7 271.8 92.4 C 271.8 91.1 270.5 90.8 269.2 90.6 C 267 90.2 264.5 89.8 264.5 87.2 C 264.5 85 266.4 83.9 268.7 83.9 C 271.1 83.9 273 85 273.1 87.3 C 273.1 87.3 271.5 87.3 271.5 87.3 C 271.4 85.9 270.1 85.3 268.7 85.3 C 267.1 85.3 266.1 86 266.1 87.1 C 266.1 88.6 267.4 88.8 269.1 89.1 C 271.2 89.4 273.4 89.7 273.4 92.2 Z M 288.1 93.3 C 287.2 95 285.5 95.6 284.1 95.6 C 282.2 95.6 280.5 94.5 280.5 92.3 C 280.5 90.2 281.9 89.2 283.9 89 C 283.9 89 286.5 88.6 286.5 88.6 C 287.4 88.5 288.1 88.2 288.1 87.2 C 288.1 85.9 287 85.2 285.4 85.2 C 283.7 85.2 282.7 86 282.4 87.3 C 282.4 87.3 280.9 87.3 280.9 87.3 C 281.2 85 283 83.9 285.5 83.9 C 288.1 83.9 289.6 85.1 289.6 87.6 C 289.61 87.59 289.6 95.4 289.6 95.4 L 288.1 95.4 C 288.1 95.4 288.12 93.32 288.1 93.3 Z M 286.2 89.9 C 286.2 89.9 284.5 90.1 284.5 90.1 C 283.1 90.3 282 90.8 282 92.2 C 282 93.6 283.1 94.2 284.4 94.2 C 286.1 94.2 288.1 92.9 288.1 90.5 C 288.1 90.5 288.1 89.4 288.1 89.4 C 287.7 89.7 287 89.8 286.2 89.9 Z M 297.2 95.4 L 295.6 95.4 L 291.4 84.1 L 293.1 84.1 L 296.4 93.8 L 299.8 84.1 L 301.4 84.1 L 297.2 95.4 Z M 310.1 93.3 C 309.3 95 307.6 95.6 306.1 95.6 C 304.2 95.6 302.5 94.5 302.5 92.3 C 302.5 90.2 304 89.2 305.9 89 C 305.9 89 308.6 88.6 308.6 88.6 C 309.4 88.5 310.1 88.2 310.1 87.2 C 310.1 85.9 309 85.2 307.4 85.2 C 305.7 85.2 304.7 86 304.5 87.3 C 304.5 87.3 302.9 87.3 302.9 87.3 C 303.2 85 305 83.9 307.5 83.9 C 310.1 83.9 311.6 85.1 311.6 87.6 C 311.64 87.59 311.6 95.4 311.6 95.4 L 310.1 95.4 C 310.1 95.4 310.15 93.32 310.1 93.3 Z M 308.3 89.9 C 308.3 89.9 306.6 90.1 306.6 90.1 C 305.1 90.3 304.1 90.8 304.1 92.2 C 304.1 93.6 305.1 94.2 306.4 94.2 C 308.2 94.2 310.1 92.9 310.1 90.5 C 310.1 90.5 310.1 89.4 310.1 89.4 C 309.7 89.7 309 89.8 308.3 89.9 Z M 323.9 87.7 C 323.94 87.65 323.9 95.4 323.9 95.4 L 322.4 95.4 C 322.4 95.4 322.41 87.84 322.4 87.8 C 322.4 86.3 321.5 85.3 319.9 85.3 C 318 85.3 316.3 86.7 316.3 89.5 C 316.32 89.46 316.3 95.4 316.3 95.4 L 314.8 95.4 L 314.8 84.1 L 316.3 84.1 C 316.3 84.1 316.32 86.2 316.3 86.2 C 317 84.9 318.3 83.9 320.2 83.9 C 322.5 83.9 323.9 85.2 323.9 87.7 Z M 332.3 95.4 C 332.3 95.4 330.68 95.38 330.7 95.4 C 329.2 95.4 327.8 94.9 327.8 92.4 C 327.85 92.42 327.8 85.5 327.8 85.5 L 325.6 85.5 L 325.6 84.1 L 327.8 84.1 L 327.8 80.9 L 329.4 80.5 L 329.4 84.1 L 332.1 84.1 L 332.1 85.5 L 329.4 85.5 C 329.4 85.5 329.38 92.4 329.4 92.4 C 329.4 93.4 329.7 94 330.9 94 C 330.94 94 332.3 94 332.3 94 L 332.3 95.4 Z " stroke="none" fill="#000"/>  </g>  <g id="Polygon11577">    <path d="M 6.8 56.6 L 5.6 56.6 L 8.1 52.8 L 9.4 53.8 L 6.8 56.6 Z M 2.5 64.9 C 2.5 67.7 4.2 69 6.2 69 C 7.7 69 9.2 68.3 9.5 66.7 C 9.5 66.7 11 66.7 11 66.7 C 10.5 69.3 8.3 70.4 6.1 70.4 C 3.4 70.4 0.9 68.6 0.9 64.6 C 0.9 60.5 3.5 58.7 6.2 58.7 C 8.9 58.7 11 60.4 11 64.2 C 11.05 64.15 11 64.9 11 64.9 C 11 64.9 2.46 64.91 2.5 64.9 Z M 2.5 63.6 C 2.5 63.6 9.5 63.6 9.5 63.6 C 9.5 61.3 8 60.1 6.1 60.1 C 4.4 60.1 2.7 61.2 2.5 63.6 Z M 18.8 70.2 C 18.8 70.2 17.16 70.18 17.2 70.2 C 15.7 70.2 14.3 69.7 14.3 67.2 C 14.32 67.22 14.3 60.3 14.3 60.3 L 12.1 60.3 L 12.1 58.9 L 14.3 58.9 L 14.3 55.7 L 15.9 55.3 L 15.9 58.9 L 18.6 58.9 L 18.6 60.3 L 15.9 60.3 C 15.9 60.3 15.85 67.2 15.9 67.2 C 15.9 68.2 16.1 68.8 17.4 68.8 C 17.41 68.8 18.8 68.8 18.8 68.8 L 18.8 70.2 Z M 28 68.1 C 27.1 69.8 25.4 70.4 23.9 70.4 C 22 70.4 20.3 69.3 20.3 67.1 C 20.3 65 21.8 64 23.7 63.8 C 23.7 63.8 26.4 63.4 26.4 63.4 C 27.2 63.3 28 63 28 62 C 28 60.7 26.8 60 25.2 60 C 23.5 60 22.5 60.8 22.3 62.1 C 22.3 62.1 20.7 62.1 20.7 62.1 C 21 59.8 22.8 58.7 25.3 58.7 C 27.9 58.7 29.4 59.9 29.4 62.4 C 29.44 62.39 29.4 70.2 29.4 70.2 L 28 70.2 C 28 70.2 27.95 68.12 28 68.1 Z M 26.1 64.7 C 26.1 64.7 24.4 64.9 24.4 64.9 C 22.9 65.1 21.9 65.6 21.9 67 C 21.9 68.4 23 69 24.2 69 C 26 69 27.9 67.7 27.9 65.3 C 27.9 65.3 27.9 64.2 27.9 64.2 C 27.5 64.5 26.8 64.6 26.1 64.7 Z M 34.2 54.2 L 32.5 54.2 L 32.5 56.1 L 34.2 56.1 L 34.2 54.2 Z M 34.1 70.2 L 32.6 70.2 L 32.6 58.9 L 34.1 58.9 L 34.1 70.2 Z M 38.3 64.9 C 38.3 67.7 40 69 42 69 C 43.5 69 45 68.3 45.3 66.7 C 45.3 66.7 46.8 66.7 46.8 66.7 C 46.3 69.3 44.1 70.4 41.9 70.4 C 39.2 70.4 36.7 68.6 36.7 64.6 C 36.7 60.5 39.3 58.7 42 58.7 C 44.7 58.7 46.9 60.4 46.9 64.2 C 46.85 64.15 46.9 64.9 46.9 64.9 C 46.9 64.9 38.26 64.91 38.3 64.9 Z M 38.3 63.6 C 38.3 63.6 45.3 63.6 45.3 63.6 C 45.3 61.3 43.8 60.1 41.9 60.1 C 40.2 60.1 38.5 61.2 38.3 63.6 Z M 58.6 62.5 C 58.63 62.45 58.6 70.2 58.6 70.2 L 57.1 70.2 C 57.1 70.2 57.1 62.64 57.1 62.6 C 57.1 61.1 56.2 60.1 54.6 60.1 C 52.7 60.1 51 61.5 51 64.3 C 51.01 64.26 51 70.2 51 70.2 L 49.5 70.2 L 49.5 58.9 L 51 58.9 C 51 58.9 51.01 61 51 61 C 51.7 59.7 52.9 58.7 54.9 58.7 C 57.2 58.7 58.6 60 58.6 62.5 Z M 67 70.2 C 67 70.2 65.37 70.18 65.4 70.2 C 63.9 70.2 62.5 69.7 62.5 67.2 C 62.54 67.22 62.5 60.3 62.5 60.3 L 60.3 60.3 L 60.3 58.9 L 62.5 58.9 L 62.5 55.7 L 64.1 55.3 L 64.1 58.9 L 66.8 58.9 L 66.8 60.3 L 64.1 60.3 C 64.1 60.3 64.07 67.2 64.1 67.2 C 64.1 68.2 64.4 68.8 65.6 68.8 C 65.62 68.8 67 68.8 67 68.8 L 67 70.2 Z M 84.1 70.2 L 82.6 70.2 C 82.6 70.2 82.61 68 82.6 68 C 82.1 69.3 80.7 70.4 78.6 70.4 C 75.6 70.4 73.5 68.1 73.5 64.5 C 73.5 61 75.6 58.7 78.6 58.7 C 80.5 58.7 81.9 59.6 82.6 60.8 C 82.55 60.82 82.6 54.2 82.6 54.2 L 84.1 54.2 L 84.1 70.2 Z M 82.5 64.5 C 82.5 61.7 81 60.1 78.8 60.1 C 76.6 60.1 75.1 61.8 75.1 64.5 C 75.1 67.3 76.6 69 78.8 69 C 81 69 82.5 67.3 82.5 64.5 Z M 92.6 56.6 L 91.3 56.6 L 93.8 52.8 L 95.2 53.8 L 92.6 56.6 Z M 88.2 64.9 C 88.3 67.7 90 69 92 69 C 93.5 69 94.9 68.3 95.3 66.7 C 95.3 66.7 96.7 66.7 96.7 66.7 C 96.2 69.3 94 70.4 91.9 70.4 C 89.2 70.4 86.7 68.6 86.7 64.6 C 86.7 60.5 89.2 58.7 92 58.7 C 94.6 58.7 96.8 60.4 96.8 64.2 C 96.81 64.15 96.8 64.9 96.8 64.9 C 96.8 64.9 88.22 64.91 88.2 64.9 Z M 88.3 63.6 C 88.3 63.6 95.3 63.6 95.3 63.6 C 95.3 61.3 93.8 60.1 91.9 60.1 C 90.1 60.1 88.5 61.2 88.3 63.6 Z M 101.2 56.1 L 99.5 56.1 L 99.5 54.2 L 101.2 54.2 L 101.2 56.1 Z M 97.4 73.1 C 97.4 73.1 98.03 73.14 98 73.1 C 99.3 73.1 99.6 72.6 99.6 71.5 C 99.58 71.53 99.6 58.9 99.6 58.9 L 101.1 58.9 C 101.1 58.9 101.11 71.57 101.1 71.6 C 101.1 74 99.8 74.5 98.3 74.5 C 98.28 74.51 97.4 74.5 97.4 74.5 L 97.4 73.1 Z M 107.2 52.8 L 109.7 56.6 L 108.5 56.6 L 105.9 53.8 L 107.2 52.8 Z M 111.3 68.1 C 110.4 69.8 108.7 70.4 107.3 70.4 C 105.4 70.4 103.6 69.3 103.6 67.1 C 103.6 65 105.1 64 107.1 63.8 C 107.1 63.8 109.7 63.4 109.7 63.4 C 110.6 63.3 111.3 63 111.3 62 C 111.3 60.7 110.1 60 108.6 60 C 106.9 60 105.8 60.8 105.6 62.1 C 105.6 62.1 104.1 62.1 104.1 62.1 C 104.4 59.8 106.2 58.7 108.7 58.7 C 111.2 58.7 112.8 59.9 112.8 62.4 C 112.79 62.39 112.8 70.2 112.8 70.2 L 111.3 70.2 C 111.3 70.2 111.3 68.12 111.3 68.1 Z M 109.4 64.7 C 109.4 64.7 107.7 64.9 107.7 64.9 C 106.3 65.1 105.2 65.6 105.2 67 C 105.2 68.4 106.3 69 107.5 69 C 109.3 69 111.3 67.7 111.3 65.3 C 111.3 65.3 111.3 64.2 111.3 64.2 C 110.8 64.5 110.2 64.6 109.4 64.7 Z M 129.1 67 C 129.1 69.3 127.1 70.4 124.8 70.4 C 122.4 70.4 120.2 69.2 119.9 66.7 C 119.9 66.7 121.6 66.7 121.6 66.7 C 121.8 68.4 123.3 69 124.8 69 C 126.3 69 127.6 68.5 127.6 67.2 C 127.6 65.9 126.3 65.6 124.9 65.4 C 122.8 65 120.2 64.6 120.2 62 C 120.2 59.8 122.1 58.7 124.4 58.7 C 126.8 58.7 128.7 59.8 128.9 62.1 C 128.9 62.1 127.3 62.1 127.3 62.1 C 127.2 60.7 125.9 60.1 124.4 60.1 C 122.8 60.1 121.8 60.8 121.8 61.9 C 121.8 63.4 123.2 63.6 124.9 63.9 C 126.9 64.2 129.1 64.5 129.1 67 Z M 130.9 64.6 C 130.9 60.9 133.2 58.7 136.3 58.7 C 139.4 58.7 141.6 60.9 141.6 64.6 C 141.6 68.2 139.4 70.4 136.3 70.4 C 133.2 70.4 130.9 68.2 130.9 64.6 Z M 140 64.5 C 140 61.7 138.3 60.1 136.2 60.1 C 134 60.1 132.5 61.8 132.5 64.6 C 132.5 67.4 134.2 69 136.3 69 C 138.5 69 140 67.3 140 64.5 Z M 151.7 70.2 C 151.7 70.2 151.66 68.04 151.7 68 C 150.9 69.6 149.5 70.3 147.9 70.3 C 145.8 70.3 144.1 69 144.1 66.4 C 144.14 66.36 144.1 58.9 144.1 58.9 L 145.7 58.9 C 145.7 58.9 145.68 66.17 145.7 66.2 C 145.7 68 146.7 69 148.2 69 C 150 69 151.6 67.6 151.6 64.7 C 151.6 64.74 151.6 58.9 151.6 58.9 L 153.1 58.9 L 153.1 70.2 L 151.7 70.2 Z M 164.9 67 C 164.9 69.3 162.8 70.4 160.5 70.4 C 158.1 70.4 155.9 69.2 155.7 66.7 C 155.7 66.7 157.3 66.7 157.3 66.7 C 157.5 68.4 159 69 160.5 69 C 162 69 163.3 68.5 163.3 67.2 C 163.3 65.9 162 65.6 160.6 65.4 C 158.5 65 155.9 64.6 155.9 62 C 155.9 59.8 157.9 58.7 160.2 58.7 C 162.6 58.7 164.4 59.8 164.6 62.1 C 164.6 62.1 163 62.1 163 62.1 C 162.9 60.7 161.6 60.1 160.1 60.1 C 158.6 60.1 157.5 60.8 157.5 61.9 C 157.5 63.4 158.9 63.6 160.6 63.9 C 162.6 64.2 164.9 64.5 164.9 67 Z M 174.2 70.2 L 172.6 70.2 L 172.6 54.2 L 174.2 54.2 L 174.2 70.2 Z M 184.5 68.1 C 183.6 69.8 181.9 70.4 180.5 70.4 C 178.5 70.4 176.8 69.3 176.8 67.1 C 176.8 65 178.3 64 180.2 63.8 C 180.2 63.8 182.9 63.4 182.9 63.4 C 183.7 63.3 184.5 63 184.5 62 C 184.5 60.7 183.3 60 181.7 60 C 180 60 179 60.8 178.8 62.1 C 178.8 62.1 177.2 62.1 177.2 62.1 C 177.6 59.8 179.4 58.7 181.8 58.7 C 184.4 58.7 186 59.9 186 62.4 C 185.95 62.39 186 70.2 186 70.2 L 184.5 70.2 C 184.5 70.2 184.46 68.12 184.5 68.1 Z M 182.6 64.7 C 182.6 64.7 180.9 64.9 180.9 64.9 C 179.4 65.1 178.4 65.6 178.4 67 C 178.4 68.4 179.5 69 180.7 69 C 182.5 69 184.4 67.7 184.4 65.3 C 184.4 65.3 184.4 64.2 184.4 64.2 C 184 64.5 183.3 64.6 182.6 64.7 Z M 204.9 64.5 C 204.9 68.6 202.3 70.3 199.7 70.3 C 197.8 70.3 196.5 69.4 195.9 68.2 C 195.89 68.23 195.9 74.5 195.9 74.5 L 194.4 74.5 L 194.4 58.9 L 195.8 58.9 C 195.8 58.9 195.84 61.28 195.8 61.3 C 196.3 59.9 197.8 58.7 199.9 58.7 C 202.3 58.7 204.9 60.4 204.9 64.5 Z M 203.3 64.5 C 203.3 61.4 201.5 60.2 199.6 60.2 C 197.8 60.2 195.9 61.4 195.9 64.6 C 195.9 67.7 197.7 68.9 199.6 68.9 C 201.5 68.9 203.3 67.7 203.3 64.5 Z M 213.1 60.2 C 213.1 60.2 212.77 60.23 212.8 60.2 C 210.4 60.2 209 61.6 209 64.2 C 209.03 64.2 209 70.2 209 70.2 L 207.5 70.2 L 207.5 58.9 L 209 58.9 C 209 58.9 209.01 60.98 209 61 C 209.5 59.5 210.9 58.8 212.6 58.8 C 212.64 58.78 213.1 58.8 213.1 58.8 L 213.1 60.2 Z M 215.7 64.9 C 215.7 67.7 217.5 69 219.4 69 C 220.9 69 222.4 68.3 222.7 66.7 C 222.7 66.7 224.2 66.7 224.2 66.7 C 223.7 69.3 221.5 70.4 219.4 70.4 C 216.7 70.4 214.2 68.6 214.2 64.6 C 214.2 60.5 216.7 58.7 219.4 58.7 C 222.1 58.7 224.3 60.4 224.3 64.2 C 224.28 64.15 224.3 64.9 224.3 64.9 C 224.3 64.9 215.69 64.91 215.7 64.9 Z M 215.7 63.6 C 215.7 63.6 222.7 63.6 222.7 63.6 C 222.7 61.3 221.3 60.1 219.4 60.1 C 217.6 60.1 215.9 61.2 215.7 63.6 Z M 235.3 67 C 235.3 69.3 233.2 70.4 230.9 70.4 C 228.5 70.4 226.3 69.2 226.1 66.7 C 226.1 66.7 227.7 66.7 227.7 66.7 C 228 68.4 229.4 69 231 69 C 232.4 69 233.7 68.5 233.7 67.2 C 233.7 65.9 232.4 65.6 231.1 65.4 C 228.9 65 226.3 64.6 226.3 62 C 226.3 59.8 228.3 58.7 230.6 58.7 C 233 58.7 234.9 59.8 235 62.1 C 235 62.1 233.4 62.1 233.4 62.1 C 233.3 60.7 232 60.1 230.5 60.1 C 229 60.1 227.9 60.8 227.9 61.9 C 227.9 63.4 229.3 63.6 231 63.9 C 233 64.2 235.3 64.5 235.3 67 Z M 246.2 67 C 246.2 69.3 244.1 70.4 241.8 70.4 C 239.4 70.4 237.2 69.2 237 66.7 C 237 66.7 238.6 66.7 238.6 66.7 C 238.9 68.4 240.3 69 241.9 69 C 243.3 69 244.6 68.5 244.6 67.2 C 244.6 65.9 243.3 65.6 242 65.4 C 239.8 65 237.2 64.6 237.2 62 C 237.2 59.8 239.2 58.7 241.5 58.7 C 243.9 58.7 245.8 59.8 245.9 62.1 C 245.9 62.1 244.3 62.1 244.3 62.1 C 244.2 60.7 242.9 60.1 241.4 60.1 C 239.9 60.1 238.8 60.8 238.8 61.9 C 238.8 63.4 240.2 63.6 241.9 63.9 C 243.9 64.2 246.2 64.5 246.2 67 Z M 250.3 54.2 L 248.6 54.2 L 248.6 56.1 L 250.3 56.1 L 250.3 54.2 Z M 250.2 70.2 L 248.7 70.2 L 248.7 58.9 L 250.2 58.9 L 250.2 70.2 Z M 252.9 64.6 C 252.9 60.9 255.1 58.7 258.2 58.7 C 261.3 58.7 263.5 60.9 263.5 64.6 C 263.5 68.2 261.3 70.4 258.2 70.4 C 255.1 70.4 252.9 68.2 252.9 64.6 Z M 262 64.5 C 262 61.7 260.3 60.1 258.2 60.1 C 256 60.1 254.4 61.8 254.4 64.6 C 254.4 67.4 256.1 69 258.2 69 C 260.4 69 262 67.3 262 64.5 Z M 275.3 62.5 C 275.33 62.45 275.3 70.2 275.3 70.2 L 273.8 70.2 C 273.8 70.2 273.8 62.64 273.8 62.6 C 273.8 61.1 272.9 60.1 271.3 60.1 C 269.4 60.1 267.7 61.5 267.7 64.3 C 267.71 64.26 267.7 70.2 267.7 70.2 L 266.2 70.2 L 266.2 58.9 L 267.7 58.9 C 267.7 58.9 267.71 61 267.7 61 C 268.4 59.7 269.6 58.7 271.6 58.7 C 273.9 58.7 275.3 60 275.3 62.5 Z M 293.6 70.2 L 292.2 70.2 C 292.2 70.2 292.17 68 292.2 68 C 291.6 69.3 290.3 70.4 288.2 70.4 C 285.2 70.4 283.1 68.1 283.1 64.5 C 283.1 61 285.2 58.7 288.2 58.7 C 290.1 58.7 291.5 59.6 292.1 60.8 C 292.11 60.82 292.1 54.2 292.1 54.2 L 293.6 54.2 L 293.6 70.2 Z M 292.1 64.5 C 292.1 61.7 290.5 60.1 288.4 60.1 C 286.2 60.1 284.7 61.8 284.7 64.5 C 284.7 67.3 286.2 69 288.4 69 C 290.6 69 292.1 67.3 292.1 64.5 Z M 297.8 64.9 C 297.8 67.7 299.5 69 301.5 69 C 303 69 304.5 68.3 304.8 66.7 C 304.8 66.7 306.3 66.7 306.3 66.7 C 305.8 69.3 303.6 70.4 301.5 70.4 C 298.8 70.4 296.3 68.6 296.3 64.6 C 296.3 60.5 298.8 58.7 301.5 58.7 C 304.2 58.7 306.4 60.4 306.4 64.2 C 306.37 64.15 306.4 64.9 306.4 64.9 C 306.4 64.9 297.78 64.91 297.8 64.9 Z M 297.8 63.6 C 297.8 63.6 304.8 63.6 304.8 63.6 C 304.8 61.3 303.3 60.1 301.5 60.1 C 299.7 60.1 298 61.2 297.8 63.6 Z M 317.4 67 C 317.4 69.3 315.3 70.4 313 70.4 C 310.6 70.4 308.4 69.2 308.2 66.7 C 308.2 66.7 309.8 66.7 309.8 66.7 C 310 68.4 311.5 69 313 69 C 314.5 69 315.8 68.5 315.8 67.2 C 315.8 65.9 314.5 65.6 313.1 65.4 C 311 65 308.4 64.6 308.4 62 C 308.4 59.8 310.4 58.7 312.7 58.7 C 315.1 58.7 317 59.8 317.1 62.1 C 317.1 62.1 315.5 62.1 315.5 62.1 C 315.4 60.7 314.1 60.1 312.6 60.1 C 311.1 60.1 310 60.8 310 61.9 C 310 63.4 311.4 63.6 313.1 63.9 C 315.1 64.2 317.4 64.5 317.4 67 Z " stroke="none" fill="#000"/>  </g>  <g id="Polygon11576">    <path d="M 6.2 45.2 C 3.1 45.2 0.9 42.9 0.9 39.4 C 0.9 35.8 3 33.5 6.3 33.5 C 8.8 33.5 10.8 34.9 11 37.4 C 11 37.4 9.5 37.4 9.5 37.4 C 9.3 35.8 7.9 34.9 6.3 34.9 C 4.1 34.9 2.5 36.6 2.5 39.3 C 2.5 42.1 4.1 43.8 6.3 43.8 C 8 43.8 9.3 42.8 9.4 41 C 9.4 41 11 41 11 41 C 10.8 43.7 8.7 45.2 6.2 45.2 Z M 12.9 39.4 C 12.9 35.7 15.1 33.5 18.2 33.5 C 21.3 33.5 23.5 35.7 23.5 39.4 C 23.5 43 21.3 45.2 18.2 45.2 C 15.1 45.2 12.9 43 12.9 39.4 Z M 22 39.3 C 22 36.5 20.3 34.9 18.2 34.9 C 16 34.9 14.4 36.6 14.4 39.4 C 14.4 42.2 16.1 43.8 18.2 43.8 C 20.4 43.8 22 42.1 22 39.3 Z M 26.2 33.7 L 27.7 33.7 C 27.7 33.7 27.68 35.57 27.7 35.6 C 28.3 34.2 29.5 33.5 31 33.5 C 32.6 33.5 33.9 34.4 34.3 35.8 C 34.8 34.6 36 33.5 38 33.5 C 40 33.5 41.6 34.6 41.6 36.9 C 41.64 36.9 41.6 45 41.6 45 L 40.1 45 C 40.1 45 40.11 37.44 40.1 37.4 C 40.1 35.7 39 34.9 37.7 34.9 C 36 34.9 34.6 36.2 34.6 38.5 C 34.65 38.53 34.6 45 34.6 45 L 33.1 45 C 33.1 45 33.14 37.44 33.1 37.4 C 33.1 35.7 32.1 34.9 30.8 34.9 C 29.1 34.9 27.7 36.1 27.7 38.5 C 27.7 38.53 27.7 45 27.7 45 L 26.2 45 L 26.2 33.7 Z M 44.9 33.7 L 46.4 33.7 C 46.4 33.7 46.41 35.57 46.4 35.6 C 47 34.2 48.3 33.5 49.7 33.5 C 51.3 33.5 52.7 34.4 53 35.8 C 53.5 34.6 54.8 33.5 56.7 33.5 C 58.8 33.5 60.4 34.6 60.4 36.9 C 60.37 36.9 60.4 45 60.4 45 L 58.8 45 C 58.8 45 58.84 37.44 58.8 37.4 C 58.8 35.7 57.8 34.9 56.4 34.9 C 54.8 34.9 53.4 36.2 53.4 38.5 C 53.38 38.53 53.4 45 53.4 45 L 51.9 45 C 51.9 45 51.87 37.44 51.9 37.4 C 51.9 35.7 50.8 34.9 49.5 34.9 C 47.8 34.9 46.4 36.1 46.4 38.5 C 46.43 38.53 46.4 45 46.4 45 L 44.9 45 L 44.9 33.7 Z M 64.4 39.7 C 64.4 42.5 66.2 43.8 68.2 43.8 C 69.7 43.8 71.1 43.1 71.5 41.5 C 71.5 41.5 72.9 41.5 72.9 41.5 C 72.4 44.1 70.2 45.2 68.1 45.2 C 65.4 45.2 62.9 43.4 62.9 39.4 C 62.9 35.3 65.4 33.5 68.1 33.5 C 70.8 33.5 73 35.2 73 39 C 73 38.95 73 39.7 73 39.7 C 73 39.7 64.41 39.71 64.4 39.7 Z M 64.4 38.4 C 64.4 38.4 71.4 38.4 71.4 38.4 C 71.4 36.1 70 34.9 68.1 34.9 C 66.3 34.9 64.7 36 64.4 38.4 Z M 81.2 35 C 81.2 35 80.89 35.03 80.9 35 C 78.5 35 77.2 36.4 77.2 39 C 77.15 39 77.2 45 77.2 45 L 75.6 45 L 75.6 33.7 L 77.1 33.7 C 77.1 33.7 77.13 35.78 77.1 35.8 C 77.7 34.3 79 33.6 80.8 33.6 C 80.77 33.58 81.2 33.6 81.2 33.6 L 81.2 35 Z M 87.5 45.2 C 84.4 45.2 82.3 42.9 82.3 39.4 C 82.3 35.8 84.4 33.5 87.7 33.5 C 90.2 33.5 92.1 34.9 92.3 37.4 C 92.3 37.4 90.8 37.4 90.8 37.4 C 90.7 35.8 89.3 34.9 87.6 34.9 C 85.4 34.9 83.9 36.6 83.9 39.3 C 83.9 42.1 85.4 43.8 87.6 43.8 C 89.3 43.8 90.7 42.8 90.8 41 C 90.8 41 92.3 41 92.3 41 C 92.1 43.7 90 45.2 87.5 45.2 Z M 95.7 39.7 C 95.8 42.5 97.5 43.8 99.5 43.8 C 101 43.8 102.4 43.1 102.8 41.5 C 102.8 41.5 104.2 41.5 104.2 41.5 C 103.7 44.1 101.5 45.2 99.4 45.2 C 96.7 45.2 94.2 43.4 94.2 39.4 C 94.2 35.3 96.7 33.5 99.5 33.5 C 102.1 33.5 104.3 35.2 104.3 39 C 104.31 38.95 104.3 39.7 104.3 39.7 C 104.3 39.7 95.72 39.71 95.7 39.7 Z M 95.8 38.4 C 95.8 38.4 102.8 38.4 102.8 38.4 C 102.8 36.1 101.3 34.9 99.4 34.9 C 97.6 34.9 96 36 95.8 38.4 Z M 121.6 45 L 120.1 45 C 120.1 45 120.1 42.8 120.1 42.8 C 119.6 44.1 118.2 45.2 116.1 45.2 C 113.1 45.2 111 42.9 111 39.3 C 111 35.8 113.1 33.5 116.1 33.5 C 118 33.5 119.4 34.4 120 35.6 C 120.04 35.62 120 29 120 29 L 121.6 29 L 121.6 45 Z M 120 39.3 C 120 36.5 118.5 34.9 116.3 34.9 C 114.1 34.9 112.6 36.6 112.6 39.3 C 112.6 42.1 114.1 43.8 116.3 43.8 C 118.5 43.8 120 42.1 120 39.3 Z M 125.7 39.7 C 125.7 42.5 127.5 43.8 129.5 43.8 C 131 43.8 132.4 43.1 132.8 41.5 C 132.8 41.5 134.2 41.5 134.2 41.5 C 133.7 44.1 131.5 45.2 129.4 45.2 C 126.7 45.2 124.2 43.4 124.2 39.4 C 124.2 35.3 126.7 33.5 129.4 33.5 C 132.1 33.5 134.3 35.2 134.3 39 C 134.29 38.95 134.3 39.7 134.3 39.7 C 134.3 39.7 125.71 39.71 125.7 39.7 Z M 125.7 38.4 C 125.7 38.4 132.7 38.4 132.7 38.4 C 132.7 36.1 131.3 34.9 129.4 34.9 C 127.6 34.9 126 36 125.7 38.4 Z M 151.6 45 L 150.1 45 C 150.1 45 150.09 42.8 150.1 42.8 C 149.5 44.1 148.2 45.2 146.1 45.2 C 143.1 45.2 141 42.9 141 39.3 C 141 35.8 143.1 33.5 146.1 33.5 C 148 33.5 149.4 34.4 150 35.6 C 150.02 35.62 150 29 150 29 L 151.6 29 L 151.6 45 Z M 150 39.3 C 150 36.5 148.4 34.9 146.3 34.9 C 144.1 34.9 142.6 36.6 142.6 39.3 C 142.6 42.1 144.1 43.8 146.3 43.8 C 148.5 43.8 150 42.1 150 39.3 Z M 160.1 31.4 L 158.8 31.4 L 161.3 27.6 L 162.6 28.6 L 160.1 31.4 Z M 155.7 39.7 C 155.7 42.5 157.5 43.8 159.5 43.8 C 160.9 43.8 162.4 43.1 162.7 41.5 C 162.7 41.5 164.2 41.5 164.2 41.5 C 163.7 44.1 161.5 45.2 159.4 45.2 C 156.7 45.2 154.2 43.4 154.2 39.4 C 154.2 35.3 156.7 33.5 159.4 33.5 C 162.1 33.5 164.3 35.2 164.3 39 C 164.28 38.95 164.3 39.7 164.3 39.7 C 164.3 39.7 155.69 39.71 155.7 39.7 Z M 155.7 38.4 C 155.7 38.4 162.7 38.4 162.7 38.4 C 162.7 36.1 161.3 34.9 159.4 34.9 C 157.6 34.9 155.9 36 155.7 38.4 Z M 172.1 45 C 172.1 45 170.39 44.98 170.4 45 C 168.9 45 167.6 44.5 167.6 42 C 167.56 42.02 167.6 35.1 167.6 35.1 L 165.3 35.1 L 165.3 33.7 L 167.6 33.7 L 167.6 30.5 L 169.1 30.1 L 169.1 33.7 L 171.8 33.7 L 171.8 35.1 L 169.1 35.1 C 169.1 35.1 169.09 42 169.1 42 C 169.1 43 169.4 43.6 170.6 43.6 C 170.65 43.6 172.1 43.6 172.1 43.6 L 172.1 45 Z M 181.2 42.9 C 180.3 44.6 178.6 45.2 177.2 45.2 C 175.2 45.2 173.5 44.1 173.5 41.9 C 173.5 39.8 175 38.8 176.9 38.6 C 176.9 38.6 179.6 38.2 179.6 38.2 C 180.5 38.1 181.2 37.8 181.2 36.8 C 181.2 35.5 180 34.8 178.5 34.8 C 176.8 34.8 175.7 35.6 175.5 36.9 C 175.5 36.9 174 36.9 174 36.9 C 174.3 34.6 176.1 33.5 178.6 33.5 C 181.1 33.5 182.7 34.7 182.7 37.2 C 182.68 37.19 182.7 45 182.7 45 L 181.2 45 C 181.2 45 181.19 42.92 181.2 42.9 Z M 179.3 39.5 C 179.3 39.5 177.6 39.7 177.6 39.7 C 176.2 39.9 175.1 40.4 175.1 41.8 C 175.1 43.2 176.2 43.8 177.4 43.8 C 179.2 43.8 181.1 42.5 181.1 40.1 C 181.1 40.1 181.1 39 181.1 39 C 180.7 39.3 180.1 39.4 179.3 39.5 Z M 187.5 29 L 185.7 29 L 185.7 30.9 L 187.5 30.9 L 187.5 29 Z M 187.4 45 L 185.8 45 L 185.8 33.7 L 187.4 33.7 L 187.4 45 Z M 192.3 45 L 190.7 45 L 190.7 29 L 192.3 29 L 192.3 45 Z M 201.6 39.7 C 201.7 42.5 203.4 43.8 205.4 43.8 C 206.9 43.8 208.4 43.1 208.7 41.5 C 208.7 41.5 210.1 41.5 210.1 41.5 C 209.6 44.1 207.5 45.2 205.3 45.2 C 202.6 45.2 200.1 43.4 200.1 39.4 C 200.1 35.3 202.7 33.5 205.4 33.5 C 208 33.5 210.2 35.2 210.2 39 C 210.23 38.95 210.2 39.7 210.2 39.7 C 210.2 39.7 201.64 39.71 201.6 39.7 Z M 201.7 38.4 C 201.7 38.4 208.7 38.4 208.7 38.4 C 208.7 36.1 207.2 34.9 205.3 34.9 C 203.6 34.9 201.9 36 201.7 38.4 Z M 218 45 C 218 45 216.34 44.98 216.3 45 C 214.8 45 213.5 44.5 213.5 42 C 213.51 42.02 213.5 35.1 213.5 35.1 L 211.3 35.1 L 211.3 33.7 L 213.5 33.7 L 213.5 30.5 L 215 30.1 L 215 33.7 L 217.8 33.7 L 217.8 35.1 L 215 35.1 C 215 35.1 215.04 42 215 42 C 215 43 215.3 43.6 216.6 43.6 C 216.59 43.6 218 43.6 218 43.6 L 218 45 Z M 227.2 45 L 225.7 45 L 225.7 29 L 227.2 29 L 227.2 45 Z M 231.6 31.2 C 231.65 31.18 230.6 31.2 230.6 31.2 L 230.6 29.1 L 232.9 29.1 C 232.9 29.1 232.87 31.25 232.9 31.2 C 232.9 33.7 231.4 34.6 229.8 34.8 C 229.8 34.8 229.6 33.8 229.6 33.8 C 231.3 33.5 231.6 32.5 231.6 31.2 Z M 242.2 42.9 C 241.3 44.6 239.6 45.2 238.2 45.2 C 236.3 45.2 234.5 44.1 234.5 41.9 C 234.5 39.8 236 38.8 238 38.6 C 238 38.6 240.6 38.2 240.6 38.2 C 241.5 38.1 242.2 37.8 242.2 36.8 C 242.2 35.5 241.1 34.8 239.5 34.8 C 237.8 34.8 236.8 35.6 236.5 36.9 C 236.5 36.9 235 36.9 235 36.9 C 235.3 34.6 237.1 33.5 239.6 33.5 C 242.1 33.5 243.7 34.7 243.7 37.2 C 243.7 37.19 243.7 45 243.7 45 L 242.2 45 C 242.2 45 242.21 42.92 242.2 42.9 Z M 240.3 39.5 C 240.3 39.5 238.6 39.7 238.6 39.7 C 237.2 39.9 236.1 40.4 236.1 41.8 C 236.1 43.2 237.2 43.8 238.5 43.8 C 240.2 43.8 242.2 42.5 242.2 40.1 C 242.2 40.1 242.2 39 242.2 39 C 241.7 39.3 241.1 39.4 240.3 39.5 Z M 254.3 45 C 254.3 45 254.27 42.84 254.3 42.8 C 253.5 44.4 252.1 45.1 250.5 45.1 C 248.4 45.1 246.7 43.8 246.7 41.2 C 246.75 41.16 246.7 33.7 246.7 33.7 L 248.3 33.7 C 248.3 33.7 248.28 40.97 248.3 41 C 248.3 42.8 249.3 43.8 250.8 43.8 C 252.6 43.8 254.2 42.4 254.2 39.5 C 254.2 39.54 254.2 33.7 254.2 33.7 L 255.7 33.7 L 255.7 45 L 254.3 45 Z M 264.2 45 C 264.2 45 262.58 44.98 262.6 45 C 261.1 45 259.7 44.5 259.7 42 C 259.75 42.02 259.7 35.1 259.7 35.1 L 257.5 35.1 L 257.5 33.7 L 259.7 33.7 L 259.7 30.5 L 261.3 30.1 L 261.3 33.7 L 264 33.7 L 264 35.1 L 261.3 35.1 C 261.3 35.1 261.28 42 261.3 42 C 261.3 43 261.6 43.6 262.8 43.6 C 262.83 43.6 264.2 43.6 264.2 43.6 L 264.2 45 Z M 265.7 39.4 C 265.7 35.7 267.9 33.5 271 33.5 C 274.2 33.5 276.4 35.7 276.4 39.4 C 276.4 43 274.2 45.2 271.1 45.2 C 268 45.2 265.7 43 265.7 39.4 Z M 274.8 39.3 C 274.8 36.5 273.1 34.9 271 34.9 C 268.8 34.9 267.3 36.6 267.3 39.4 C 267.3 42.2 269 43.8 271.1 43.8 C 273.3 43.8 274.8 42.1 274.8 39.3 Z M 279 33.7 L 280.5 33.7 C 280.5 33.7 280.54 35.57 280.5 35.6 C 281.1 34.2 282.4 33.5 283.8 33.5 C 285.5 33.5 286.8 34.4 287.2 35.8 C 287.7 34.6 288.9 33.5 290.8 33.5 C 292.9 33.5 294.5 34.6 294.5 36.9 C 294.5 36.9 294.5 45 294.5 45 L 293 45 C 293 45 292.97 37.44 293 37.4 C 293 35.7 291.9 34.9 290.6 34.9 C 288.9 34.9 287.5 36.2 287.5 38.5 C 287.51 38.53 287.5 45 287.5 45 L 286 45 C 286 45 286 37.44 286 37.4 C 286 35.7 285 34.9 283.6 34.9 C 282 34.9 280.6 36.1 280.6 38.5 C 280.56 38.53 280.6 45 280.6 45 L 279 45 L 279 33.7 Z M 297 39.4 C 297 35.7 299.2 33.5 302.4 33.5 C 305.5 33.5 307.7 35.7 307.7 39.4 C 307.7 43 305.5 45.2 302.4 45.2 C 299.3 45.2 297 43 297 39.4 Z M 306.1 39.3 C 306.1 36.5 304.4 34.9 302.3 34.9 C 300.1 34.9 298.6 36.6 298.6 39.4 C 298.6 42.2 300.3 43.8 302.4 43.8 C 304.6 43.8 306.1 42.1 306.1 39.3 Z M 320.9 39.3 C 320.9 42.8 318.8 45.2 315.8 45.2 C 313.7 45.2 312.4 44.1 311.8 42.9 C 311.81 42.9 311.8 45 311.8 45 L 310.3 45 L 310.3 29 L 311.9 29 C 311.9 29 311.87 35.97 311.9 36 C 312.4 34.6 313.9 33.5 315.9 33.5 C 318.8 33.5 320.9 35.7 320.9 39.3 Z M 319.3 39.4 C 319.3 36.6 317.8 35 315.6 35 C 313.4 35 311.9 36.6 311.9 39.4 C 311.9 42.2 313.4 43.9 315.6 43.9 C 317.8 43.9 319.3 42.1 319.3 39.4 Z M 325.1 29 L 323.4 29 L 323.4 30.9 L 325.1 30.9 L 325.1 29 Z M 325 45 L 323.5 45 L 323.5 33.7 L 325 33.7 L 325 45 Z M 329.9 45 L 328.4 45 L 328.4 29 L 329.9 29 L 329.9 45 Z M 334 39.7 C 334.1 42.5 335.8 43.8 337.8 43.8 C 339.3 43.8 340.8 43.1 341.1 41.5 C 341.1 41.5 342.5 41.5 342.5 41.5 C 342 44.1 339.9 45.2 337.7 45.2 C 335 45.2 332.5 43.4 332.5 39.4 C 332.5 35.3 335.1 33.5 337.8 33.5 C 340.4 33.5 342.6 35.2 342.6 39 C 342.63 38.95 342.6 39.7 342.6 39.7 C 342.6 39.7 334.04 39.71 334 39.7 Z M 334.1 38.4 C 334.1 38.4 341.1 38.4 341.1 38.4 C 341.1 36.1 339.6 34.9 337.7 34.9 C 336 34.9 334.3 36 334.1 38.4 Z " stroke="none" fill="#000"/>  </g>  <g id="Polygon11575">    <path d="M 8.6 17.7 C 7.7 19.4 6 20 4.6 20 C 2.7 20 0.9 18.9 0.9 16.7 C 0.9 14.6 2.4 13.6 4.4 13.4 C 4.4 13.4 7 13 7 13 C 7.9 12.9 8.6 12.6 8.6 11.6 C 8.6 10.3 7.5 9.6 5.9 9.6 C 4.2 9.6 3.1 10.4 2.9 11.7 C 2.9 11.7 1.4 11.7 1.4 11.7 C 1.7 9.4 3.5 8.3 6 8.3 C 8.5 8.3 10.1 9.5 10.1 12 C 10.1 11.99 10.1 19.8 10.1 19.8 L 8.6 19.8 C 8.6 19.8 8.61 17.72 8.6 17.7 Z M 6.7 14.3 C 6.7 14.3 5 14.5 5 14.5 C 3.6 14.7 2.5 15.2 2.5 16.6 C 2.5 18 3.6 18.6 4.9 18.6 C 6.6 18.6 8.6 17.3 8.6 14.9 C 8.6 14.9 8.6 13.8 8.6 13.8 C 8.1 14.1 7.5 14.2 6.7 14.3 Z M 14.8 19.8 L 13.3 19.8 L 13.3 3.8 L 14.8 3.8 L 14.8 19.8 Z M 17.4 14.2 C 17.4 10.5 19.6 8.3 22.7 8.3 C 25.9 8.3 28.1 10.5 28.1 14.2 C 28.1 17.8 25.9 20 22.8 20 C 19.7 20 17.4 17.8 17.4 14.2 Z M 26.5 14.1 C 26.5 11.3 24.8 9.7 22.7 9.7 C 20.5 9.7 19 11.4 19 14.2 C 19 17 20.7 18.6 22.8 18.6 C 25 18.6 26.5 16.9 26.5 14.1 Z M 36.4 9.8 C 36.4 9.8 35.99 9.83 36 9.8 C 33.6 9.8 32.3 11.2 32.3 13.8 C 32.26 13.8 32.3 19.8 32.3 19.8 L 30.7 19.8 L 30.7 8.5 L 32.2 8.5 C 32.2 8.5 32.23 10.58 32.2 10.6 C 32.8 9.1 34.1 8.4 35.9 8.4 C 35.87 8.38 36.4 8.4 36.4 8.4 L 36.4 9.8 Z M 46.7 16.6 C 46.7 18.9 44.6 20 42.4 20 C 40 20 37.7 18.8 37.5 16.3 C 37.5 16.3 39.1 16.3 39.1 16.3 C 39.4 18 40.9 18.6 42.4 18.6 C 43.8 18.6 45.1 18.1 45.1 16.8 C 45.1 15.5 43.8 15.2 42.5 15 C 40.3 14.6 37.8 14.2 37.8 11.6 C 37.8 9.4 39.7 8.3 42 8.3 C 44.4 8.3 46.3 9.4 46.4 11.7 C 46.4 11.7 44.8 11.7 44.8 11.7 C 44.7 10.3 43.4 9.7 42 9.7 C 40.4 9.7 39.4 10.4 39.4 11.5 C 39.4 13 40.7 13.2 42.4 13.5 C 44.5 13.8 46.7 14.1 46.7 16.6 Z M 62.3 24.1 C 62.3 24.1 62.33 17.62 62.3 17.6 C 61.7 18.9 60.3 19.9 58.4 19.9 C 55.9 19.9 53.3 18.2 53.3 14 C 53.3 10 55.9 8.3 58.4 8.3 C 60.3 8.3 61.8 9.3 62.4 10.5 C 62.37 10.48 62.4 8.5 62.4 8.5 L 63.9 8.5 L 63.9 24.1 L 62.3 24.1 Z M 62.3 14.1 C 62.3 10.9 60.4 9.7 58.6 9.7 C 56.7 9.7 54.9 10.9 54.9 14.1 C 54.9 17.2 56.7 18.5 58.6 18.5 C 60.4 18.5 62.3 17.2 62.3 14.1 Z M 74.5 19.8 C 74.5 19.8 74.53 17.64 74.5 17.6 C 73.8 19.2 72.4 19.9 70.8 19.9 C 68.6 19.9 67 18.6 67 16 C 67.01 15.96 67 8.5 67 8.5 L 68.5 8.5 C 68.5 8.5 68.54 15.77 68.5 15.8 C 68.5 17.6 69.6 18.6 71 18.6 C 72.8 18.6 74.5 17.2 74.5 14.3 C 74.47 14.34 74.5 8.5 74.5 8.5 L 76 8.5 L 76 19.8 L 74.5 19.8 Z M 80.1 14.5 C 80.2 17.3 81.9 18.6 83.9 18.6 C 85.4 18.6 86.9 17.9 87.2 16.3 C 87.2 16.3 88.6 16.3 88.6 16.3 C 88.1 18.9 86 20 83.8 20 C 81.1 20 78.6 18.2 78.6 14.2 C 78.6 10.1 81.2 8.3 83.9 8.3 C 86.5 8.3 88.7 10 88.7 13.8 C 88.72 13.75 88.7 14.5 88.7 14.5 C 88.7 14.5 80.14 14.51 80.1 14.5 Z M 80.2 13.2 C 80.2 13.2 87.2 13.2 87.2 13.2 C 87.2 10.9 85.7 9.7 83.8 9.7 C 82 9.7 80.4 10.8 80.2 13.2 Z M 106 19.8 L 104.5 19.8 C 104.5 19.8 104.52 17.6 104.5 17.6 C 104 18.9 102.6 20 100.5 20 C 97.5 20 95.4 17.7 95.4 14.1 C 95.4 10.6 97.5 8.3 100.5 8.3 C 102.4 8.3 103.8 9.2 104.5 10.4 C 104.45 10.42 104.5 3.8 104.5 3.8 L 106 3.8 L 106 19.8 Z M 104.4 14.1 C 104.4 11.3 102.9 9.7 100.7 9.7 C 98.5 9.7 97 11.4 97 14.1 C 97 16.9 98.5 18.6 100.7 18.6 C 102.9 18.6 104.4 16.9 104.4 14.1 Z M 110.4 6 C 110.44 5.98 109.4 6 109.4 6 L 109.4 3.9 L 111.7 3.9 C 111.7 3.9 111.66 6.05 111.7 6 C 111.7 8.5 110.2 9.4 108.6 9.6 C 108.6 9.6 108.4 8.6 108.4 8.6 C 110.1 8.3 110.4 7.3 110.4 6 Z M 121 17.7 C 120.1 19.4 118.4 20 117 20 C 115.1 20 113.3 18.9 113.3 16.7 C 113.3 14.6 114.8 13.6 116.8 13.4 C 116.8 13.4 119.4 13 119.4 13 C 120.3 12.9 121 12.6 121 11.6 C 121 10.3 119.8 9.6 118.3 9.6 C 116.6 9.6 115.5 10.4 115.3 11.7 C 115.3 11.7 113.8 11.7 113.8 11.7 C 114.1 9.4 115.9 8.3 118.4 8.3 C 120.9 8.3 122.5 9.5 122.5 12 C 122.49 11.99 122.5 19.8 122.5 19.8 L 121 19.8 C 121 19.8 121 17.72 121 17.7 Z M 119.1 14.3 C 119.1 14.3 117.4 14.5 117.4 14.5 C 116 14.7 114.9 15.2 114.9 16.6 C 114.9 18 116 18.6 117.2 18.6 C 119 18.6 121 17.3 121 14.9 C 121 14.9 121 13.8 121 13.8 C 120.5 14.1 119.9 14.2 119.1 14.3 Z M 133.1 19.8 C 133.1 19.8 133.06 17.64 133.1 17.6 C 132.3 19.2 130.9 19.9 129.3 19.9 C 127.2 19.9 125.5 18.6 125.5 16 C 125.54 15.96 125.5 8.5 125.5 8.5 L 127.1 8.5 C 127.1 8.5 127.07 15.77 127.1 15.8 C 127.1 17.6 128.1 18.6 129.6 18.6 C 131.4 18.6 133 17.2 133 14.3 C 132.99 14.34 133 8.5 133 8.5 L 134.5 8.5 L 134.5 19.8 L 133.1 19.8 Z M 143 19.8 C 143 19.8 141.37 19.78 141.4 19.8 C 139.9 19.8 138.5 19.3 138.5 16.8 C 138.54 16.82 138.5 9.9 138.5 9.9 L 136.3 9.9 L 136.3 8.5 L 138.5 8.5 L 138.5 5.3 L 140.1 4.9 L 140.1 8.5 L 142.8 8.5 L 142.8 9.9 L 140.1 9.9 C 140.1 9.9 140.07 16.8 140.1 16.8 C 140.1 17.8 140.4 18.4 141.6 18.4 C 141.62 18.4 143 18.4 143 18.4 L 143 19.8 Z M 150.9 9.8 C 150.9 9.8 150.51 9.83 150.5 9.8 C 148.1 9.8 146.8 11.2 146.8 13.8 C 146.77 13.8 146.8 19.8 146.8 19.8 L 145.2 19.8 L 145.2 8.5 L 146.7 8.5 C 146.7 8.5 146.75 10.58 146.7 10.6 C 147.3 9.1 148.6 8.4 150.4 8.4 C 150.38 8.38 150.9 8.4 150.9 8.4 L 150.9 9.8 Z M 153.4 14.5 C 153.5 17.3 155.2 18.6 157.2 18.6 C 158.7 18.6 160.1 17.9 160.5 16.3 C 160.5 16.3 161.9 16.3 161.9 16.3 C 161.4 18.9 159.2 20 157.1 20 C 154.4 20 151.9 18.2 151.9 14.2 C 151.9 10.1 154.5 8.3 157.2 8.3 C 159.8 8.3 162 10 162 13.8 C 162.01 13.75 162 14.5 162 14.5 C 162 14.5 153.42 14.51 153.4 14.5 Z M 153.5 13.2 C 153.5 13.2 160.5 13.2 160.5 13.2 C 160.5 10.9 159 9.7 157.1 9.7 C 155.3 9.7 153.7 10.8 153.5 13.2 Z M 173 16.6 C 173 18.9 170.9 20 168.7 20 C 166.3 20 164 18.8 163.8 16.3 C 163.8 16.3 165.4 16.3 165.4 16.3 C 165.7 18 167.2 18.6 168.7 18.6 C 170.1 18.6 171.4 18.1 171.4 16.8 C 171.4 15.5 170.1 15.2 168.8 15 C 166.6 14.6 164.1 14.2 164.1 11.6 C 164.1 9.4 166 8.3 168.3 8.3 C 170.7 8.3 172.6 9.4 172.7 11.7 C 172.7 11.7 171.1 11.7 171.1 11.7 C 171 10.3 169.7 9.7 168.3 9.7 C 166.7 9.7 165.7 10.4 165.7 11.5 C 165.7 13 167 13.2 168.7 13.5 C 170.8 13.8 173 14.1 173 16.6 Z M 184.9 20 C 181.8 20 179.6 17.7 179.6 14.2 C 179.6 10.6 181.7 8.3 185 8.3 C 187.5 8.3 189.5 9.7 189.6 12.2 C 189.6 12.2 188.2 12.2 188.2 12.2 C 188 10.6 186.6 9.7 185 9.7 C 182.8 9.7 181.2 11.4 181.2 14.1 C 181.2 16.9 182.7 18.6 184.9 18.6 C 186.6 18.6 188 17.6 188.1 15.8 C 188.1 15.8 189.6 15.8 189.6 15.8 C 189.5 18.5 187.4 20 184.9 20 Z M 191.5 14.2 C 191.5 10.5 193.8 8.3 196.9 8.3 C 200 8.3 202.2 10.5 202.2 14.2 C 202.2 17.8 200 20 196.9 20 C 193.8 20 191.5 17.8 191.5 14.2 Z M 200.7 14.1 C 200.7 11.3 199 9.7 196.9 9.7 C 194.6 9.7 193.1 11.4 193.1 14.2 C 193.1 17 194.8 18.6 196.9 18.6 C 199.1 18.6 200.7 16.9 200.7 14.1 Z M 204.9 8.5 L 206.4 8.5 C 206.4 8.5 206.37 10.37 206.4 10.4 C 207 9 208.2 8.3 209.6 8.3 C 211.3 8.3 212.6 9.2 213 10.6 C 213.5 9.4 214.7 8.3 216.7 8.3 C 218.7 8.3 220.3 9.4 220.3 11.7 C 220.33 11.7 220.3 19.8 220.3 19.8 L 218.8 19.8 C 218.8 19.8 218.8 12.24 218.8 12.2 C 218.8 10.5 217.7 9.7 216.4 9.7 C 214.7 9.7 213.3 11 213.3 13.3 C 213.34 13.33 213.3 19.8 213.3 19.8 L 211.8 19.8 C 211.8 19.8 211.83 12.24 211.8 12.2 C 211.8 10.5 210.8 9.7 209.5 9.7 C 207.8 9.7 206.4 10.9 206.4 13.3 C 206.39 13.33 206.4 19.8 206.4 19.8 L 204.9 19.8 L 204.9 8.5 Z M 223.6 8.5 L 225.1 8.5 C 225.1 8.5 225.1 10.37 225.1 10.4 C 225.7 9 226.9 8.3 228.4 8.3 C 230 8.3 231.4 9.2 231.7 10.6 C 232.2 9.4 233.5 8.3 235.4 8.3 C 237.4 8.3 239.1 9.4 239.1 11.7 C 239.06 11.7 239.1 19.8 239.1 19.8 L 237.5 19.8 C 237.5 19.8 237.53 12.24 237.5 12.2 C 237.5 10.5 236.5 9.7 235.1 9.7 C 233.5 9.7 232.1 11 232.1 13.3 C 232.07 13.33 232.1 19.8 232.1 19.8 L 230.6 19.8 C 230.6 19.8 230.56 12.24 230.6 12.2 C 230.6 10.5 229.5 9.7 228.2 9.7 C 226.5 9.7 225.1 10.9 225.1 13.3 C 225.12 13.33 225.1 19.8 225.1 19.8 L 223.6 19.8 L 223.6 8.5 Z M 243.1 14.5 C 243.1 17.3 244.9 18.6 246.9 18.6 C 248.3 18.6 249.8 17.9 250.2 16.3 C 250.2 16.3 251.6 16.3 251.6 16.3 C 251.1 18.9 248.9 20 246.8 20 C 244.1 20 241.6 18.2 241.6 14.2 C 241.6 10.1 244.1 8.3 246.8 8.3 C 249.5 8.3 251.7 10 251.7 13.8 C 251.68 13.75 251.7 14.5 251.7 14.5 C 251.7 14.5 243.09 14.51 243.1 14.5 Z M 243.1 13.2 C 243.1 13.2 250.1 13.2 250.1 13.2 C 250.1 10.9 248.7 9.7 246.8 9.7 C 245 9.7 243.3 10.8 243.1 13.2 Z M 261.1 19.8 L 259.6 19.8 L 259.6 3.8 L 261.1 3.8 L 261.1 19.8 Z M 265.2 14.5 C 265.3 17.3 267 18.6 269 18.6 C 270.5 18.6 271.9 17.9 272.3 16.3 C 272.3 16.3 273.7 16.3 273.7 16.3 C 273.2 18.9 271 20 268.9 20 C 266.2 20 263.7 18.2 263.7 14.2 C 263.7 10.1 266.3 8.3 269 8.3 C 271.6 8.3 273.8 10 273.8 13.8 C 273.82 13.75 273.8 14.5 273.8 14.5 C 273.8 14.5 265.23 14.51 265.2 14.5 Z M 265.3 13.2 C 265.3 13.2 272.3 13.2 272.3 13.2 C 272.3 10.9 270.8 9.7 268.9 9.7 C 267.1 9.7 265.5 10.8 265.3 13.2 Z " stroke="none" fill="#000"/>  </g></svg>