<?xml version="1.0" standalone="no"?><!DOCTYPE svg PUBLIC "-//W3C//DTD SVG 1.1//EN" "http://www.w3.org/Graphics/SVG/1.1/DTD/svg11.dtd"><svg xmlns="http://www.w3.org/2000/svg" version="1.1" width="389.4px" height="125.2px" viewBox="0 -4 389.4 125.2" style="top:-4px">  <desc>César Gil Cano Head of Funds and Absolute Return, Bankia Asset Management</desc>  <defs/>  <g id="Polygon10158">    <path d="M 13.3 80.2 L 8.2 72.4 L 4 72.4 L 4 80.2 L 2.2 80.2 L 2.2 62.2 C 2.2 62.2 8.57 62.21 8.6 62.2 C 12.3 62.2 14.1 64.5 14.1 67.1 C 14.1 69.3 12.8 71.4 10.2 72.1 C 10.18 72.12 15.5 80.2 15.5 80.2 L 13.3 80.2 Z M 8.4 70.8 C 11 70.8 12.3 69 12.3 67.2 C 12.3 65.4 11.1 63.8 8.7 63.8 C 8.66 63.82 4 63.8 4 63.8 L 4 70.8 C 4 70.8 8.45 70.8 8.4 70.8 Z M 18.4 74.2 C 18.5 77.4 20.4 78.9 22.7 78.9 C 24.4 78.9 26.1 78 26.5 76.2 C 26.5 76.2 28.2 76.2 28.2 76.2 C 27.6 79.2 25.1 80.5 22.6 80.5 C 19.6 80.5 16.7 78.4 16.7 73.8 C 16.7 69.2 19.6 67.1 22.7 67.1 C 25.8 67.1 28.2 69 28.2 73.3 C 28.25 73.32 28.2 74.2 28.2 74.2 C 28.2 74.2 18.43 74.18 18.4 74.2 Z M 18.5 72.7 C 18.5 72.7 26.5 72.7 26.5 72.7 C 26.5 70.1 24.8 68.6 22.6 68.6 C 20.6 68.6 18.7 69.9 18.5 72.7 Z M 37.1 80.2 C 37.1 80.2 35.23 80.21 35.2 80.2 C 33.5 80.2 32 79.7 32 76.8 C 31.99 76.82 32 68.9 32 68.9 L 29.4 68.9 L 29.4 67.3 L 32 67.3 L 32 63.7 L 33.7 63.2 L 33.7 67.3 L 36.9 67.3 L 36.9 68.9 L 33.7 68.9 C 33.7 68.9 33.74 76.8 33.7 76.8 C 33.7 78 34.1 78.6 35.5 78.6 C 35.52 78.62 37.1 78.6 37.1 78.6 L 37.1 80.2 Z M 48.1 80.2 C 48.1 80.2 48.12 77.76 48.1 77.8 C 47.2 79.5 45.6 80.4 43.8 80.4 C 41.4 80.4 39.5 78.8 39.5 75.8 C 39.53 75.84 39.5 67.3 39.5 67.3 L 41.3 67.3 C 41.3 67.3 41.28 75.62 41.3 75.6 C 41.3 77.7 42.4 78.8 44.1 78.8 C 46.2 78.8 48 77.3 48 74 C 48.05 73.99 48 67.3 48 67.3 L 49.8 67.3 L 49.8 80.2 L 48.1 80.2 Z M 60.1 68.8 C 60.1 68.8 59.66 68.83 59.7 68.8 C 56.9 68.8 55.4 70.4 55.4 73.4 C 55.39 73.37 55.4 80.2 55.4 80.2 L 53.6 80.2 L 53.6 67.3 L 55.4 67.3 C 55.4 67.3 55.37 69.7 55.4 69.7 C 56 68 57.5 67.2 59.5 67.2 C 59.52 67.18 60.1 67.2 60.1 67.2 L 60.1 68.8 Z M 72.8 71.4 C 72.82 71.38 72.8 80.2 72.8 80.2 L 71.1 80.2 C 71.1 80.2 71.06 71.59 71.1 71.6 C 71.1 69.8 70.1 68.7 68.2 68.7 C 66 68.7 64.1 70.3 64.1 73.4 C 64.1 73.44 64.1 80.2 64.1 80.2 L 62.4 80.2 L 62.4 67.3 L 64.1 67.3 C 64.1 67.3 64.1 69.72 64.1 69.7 C 64.9 68.2 66.3 67.1 68.6 67.1 C 71.1 67.1 72.8 68.5 72.8 71.4 Z M 77.8 80.1 C 77.78 80.06 76.6 80.1 76.6 80.1 L 76.6 77.7 L 79.2 77.7 C 79.2 77.7 79.18 80.14 79.2 80.1 C 79.2 83 77.5 84 75.7 84.2 C 75.7 84.2 75.5 83.1 75.5 83.1 C 77.4 82.7 77.8 81.6 77.8 80.1 Z M 100.8 75 C 100.8 77.6 98.8 80.3 95 80.2 C 94.99 80.23 88.2 80.2 88.2 80.2 L 88.2 62.2 C 88.2 62.2 95.3 62.21 95.3 62.2 C 98.5 62.2 100 64.2 100 66.3 C 100 67.9 99.1 69.7 97.4 70.5 C 99.7 71.3 100.8 73.2 100.8 75 Z M 94.5 69.9 C 97 69.9 98.2 68.3 98.2 66.7 C 98.2 65.2 97.2 63.8 95 63.8 C 94.97 63.82 90 63.8 90 63.8 L 90 69.9 C 90 69.9 94.49 69.89 94.5 69.9 Z M 98.9 75 C 98.9 73.2 97.7 71.5 95.2 71.5 C 95.18 71.5 90 71.5 90 71.5 L 90 78.6 C 90 78.6 94.99 78.55 95 78.6 C 97.7 78.6 98.9 76.8 98.9 75 Z M 111.9 77.9 C 110.9 79.8 108.9 80.5 107.3 80.5 C 105.1 80.5 103.1 79.2 103.1 76.6 C 103.1 74.3 104.8 73.2 107 72.9 C 107 72.9 110.1 72.5 110.1 72.5 C 111 72.3 111.9 72 111.9 70.9 C 111.9 69.4 110.5 68.5 108.7 68.5 C 106.8 68.5 105.6 69.5 105.4 70.9 C 105.4 70.9 103.6 70.9 103.6 70.9 C 104 68.4 106 67.1 108.9 67.1 C 111.8 67.1 113.6 68.4 113.6 71.3 C 113.57 71.3 113.6 80.2 113.6 80.2 L 111.9 80.2 C 111.9 80.2 111.86 77.86 111.9 77.9 Z M 109.7 73.9 C 109.7 73.9 107.8 74.2 107.8 74.2 C 106.1 74.4 104.9 75 104.9 76.6 C 104.9 78.2 106.2 78.9 107.6 78.9 C 109.6 78.9 111.8 77.4 111.8 74.6 C 111.8 74.6 111.8 73.4 111.8 73.4 C 111.3 73.7 110.6 73.8 109.7 73.9 Z M 127.6 71.4 C 127.63 71.38 127.6 80.2 127.6 80.2 L 125.9 80.2 C 125.9 80.2 125.88 71.59 125.9 71.6 C 125.9 69.8 124.9 68.7 123 68.7 C 120.8 68.7 118.9 70.3 118.9 73.4 C 118.92 73.44 118.9 80.2 118.9 80.2 L 117.2 80.2 L 117.2 67.3 L 118.9 67.3 C 118.9 67.3 118.92 69.72 118.9 69.7 C 119.7 68.2 121.1 67.1 123.4 67.1 C 126 67.1 127.6 68.5 127.6 71.4 Z M 135.4 73.9 L 133.1 76.4 L 133.1 80.2 L 131.4 80.2 L 131.4 61.9 L 133.1 61.9 L 133.1 74.2 L 139.4 67.3 L 141.7 67.3 L 136.6 72.7 L 142.1 80.2 L 139.9 80.2 L 135.4 73.9 Z M 146.5 61.9 L 144.5 61.9 L 144.5 64.1 L 146.5 64.1 L 146.5 61.9 Z M 146.3 80.2 L 144.6 80.2 L 144.6 67.3 L 146.3 67.3 L 146.3 80.2 Z M 158.1 77.9 C 157.1 79.8 155.2 80.5 153.5 80.5 C 151.3 80.5 149.3 79.2 149.3 76.6 C 149.3 74.3 151.1 73.2 153.3 72.9 C 153.3 72.9 156.3 72.5 156.3 72.5 C 157.3 72.3 158.1 72 158.1 70.9 C 158.1 69.4 156.8 68.5 155 68.5 C 153 68.5 151.9 69.5 151.6 70.9 C 151.6 70.9 149.9 70.9 149.9 70.9 C 150.2 68.4 152.3 67.1 155.1 67.1 C 158 67.1 159.8 68.4 159.8 71.3 C 159.81 71.3 159.8 80.2 159.8 80.2 L 158.1 80.2 C 158.1 80.2 158.11 77.86 158.1 77.9 Z M 156 73.9 C 156 73.9 154 74.2 154 74.2 C 152.4 74.4 151.1 75 151.1 76.6 C 151.1 78.2 152.4 78.9 153.8 78.9 C 155.8 78.9 158.1 77.4 158.1 74.6 C 158.1 74.6 158.1 73.4 158.1 73.4 C 157.6 73.7 156.8 73.8 156 73.9 Z M 180.4 75.1 L 171.8 75.1 L 169.8 80.2 L 167.9 80.2 L 175.1 62.2 L 177 62.2 L 184.5 80.2 L 182.4 80.2 L 180.4 75.1 Z M 176 64.3 L 172.4 73.5 L 179.8 73.5 L 176 64.3 Z M 196.8 76.6 C 196.8 79.2 194.4 80.5 191.9 80.5 C 189.1 80.5 186.5 79.1 186.3 76.2 C 186.3 76.2 188.2 76.2 188.2 76.2 C 188.4 78.1 190.1 78.9 191.9 78.9 C 193.5 78.9 195 78.2 195 76.8 C 195 75.3 193.5 75 192 74.7 C 189.5 74.3 186.6 73.9 186.6 70.9 C 186.6 68.3 188.8 67.1 191.4 67.1 C 194.2 67.1 196.3 68.4 196.5 70.9 C 196.5 70.9 194.7 70.9 194.7 70.9 C 194.5 69.4 193.1 68.6 191.4 68.6 C 189.6 68.6 188.4 69.4 188.4 70.8 C 188.4 72.4 190 72.7 191.9 73 C 194.3 73.4 196.8 73.8 196.8 76.6 Z M 209.3 76.6 C 209.3 79.2 206.9 80.5 204.3 80.5 C 201.5 80.5 199 79.1 198.7 76.2 C 198.7 76.2 200.6 76.2 200.6 76.2 C 200.9 78.1 202.6 78.9 204.3 78.9 C 206 78.9 207.5 78.2 207.5 76.8 C 207.5 75.3 206 75 204.5 74.7 C 202 74.3 199.1 73.9 199.1 70.9 C 199.1 68.3 201.3 67.1 203.9 67.1 C 206.6 67.1 208.8 68.4 208.9 70.9 C 208.9 70.9 207.1 70.9 207.1 70.9 C 207 69.4 205.5 68.6 203.8 68.6 C 202.1 68.6 200.9 69.4 200.9 70.8 C 200.9 72.4 202.4 72.7 204.4 73 C 206.7 73.4 209.3 73.8 209.3 76.6 Z M 213 74.2 C 213.1 77.4 215.1 78.9 217.3 78.9 C 219 78.9 220.7 78 221.1 76.2 C 221.1 76.2 222.8 76.2 222.8 76.2 C 222.2 79.2 219.7 80.5 217.2 80.5 C 214.2 80.5 211.3 78.4 211.3 73.8 C 211.3 69.2 214.2 67.1 217.3 67.1 C 220.4 67.1 222.9 69 222.9 73.3 C 222.86 73.32 222.9 74.2 222.9 74.2 C 222.9 74.2 213.05 74.18 213 74.2 Z M 213.1 72.7 C 213.1 72.7 221.1 72.7 221.1 72.7 C 221.1 70.1 219.4 68.6 217.2 68.6 C 215.2 68.6 213.3 69.9 213.1 72.7 Z M 231.7 80.2 C 231.7 80.2 229.85 80.21 229.8 80.2 C 228.1 80.2 226.6 79.7 226.6 76.8 C 226.61 76.82 226.6 68.9 226.6 68.9 L 224.1 68.9 L 224.1 67.3 L 226.6 67.3 L 226.6 63.7 L 228.4 63.2 L 228.4 67.3 L 231.5 67.3 L 231.5 68.9 L 228.4 68.9 C 228.4 68.9 228.36 76.8 228.4 76.8 C 228.4 78 228.7 78.6 230.1 78.6 C 230.13 78.62 231.7 78.6 231.7 78.6 L 231.7 80.2 Z M 257.8 80.2 L 256 80.2 L 256 64.6 L 249.9 80.2 L 248.5 80.2 L 242.5 64.6 L 242.5 80.2 L 240.7 80.2 L 240.7 62.2 L 243.5 62.2 L 249.2 77.4 L 255 62.2 L 257.8 62.2 L 257.8 80.2 Z M 269.8 77.9 C 268.8 79.8 266.8 80.5 265.2 80.5 C 263 80.5 261 79.2 261 76.6 C 261 74.3 262.7 73.2 264.9 72.9 C 264.9 72.9 268 72.5 268 72.5 C 268.9 72.3 269.8 72 269.8 70.9 C 269.8 69.4 268.5 68.5 266.7 68.5 C 264.7 68.5 263.5 69.5 263.3 70.9 C 263.3 70.9 261.5 70.9 261.5 70.9 C 261.9 68.4 263.9 67.1 266.8 67.1 C 269.7 67.1 271.5 68.4 271.5 71.3 C 271.48 71.3 271.5 80.2 271.5 80.2 L 269.8 80.2 C 269.8 80.2 269.78 77.86 269.8 77.9 Z M 267.6 73.9 C 267.6 73.9 265.7 74.2 265.7 74.2 C 264 74.4 262.8 75 262.8 76.6 C 262.8 78.2 264.1 78.9 265.5 78.9 C 267.5 78.9 269.7 77.4 269.7 74.6 C 269.7 74.6 269.7 73.4 269.7 73.4 C 269.3 73.7 268.5 73.8 267.6 73.9 Z M 285.5 71.4 C 285.55 71.38 285.5 80.2 285.5 80.2 L 283.8 80.2 C 283.8 80.2 283.8 71.59 283.8 71.6 C 283.8 69.8 282.8 68.7 281 68.7 C 278.8 68.7 276.8 70.3 276.8 73.4 C 276.84 73.44 276.8 80.2 276.8 80.2 L 275.1 80.2 L 275.1 67.3 L 276.8 67.3 C 276.8 67.3 276.84 69.72 276.8 69.7 C 277.6 68.2 279 67.1 281.3 67.1 C 283.9 67.1 285.5 68.5 285.5 71.4 Z M 297.2 77.9 C 296.2 79.8 294.2 80.5 292.6 80.5 C 290.4 80.5 288.4 79.2 288.4 76.6 C 288.4 74.3 290.1 73.2 292.3 72.9 C 292.3 72.9 295.4 72.5 295.4 72.5 C 296.3 72.3 297.2 72 297.2 70.9 C 297.2 69.4 295.9 68.5 294.1 68.5 C 292.1 68.5 290.9 69.5 290.7 70.9 C 290.7 70.9 288.9 70.9 288.9 70.9 C 289.3 68.4 291.4 67.1 294.2 67.1 C 297.1 67.1 298.9 68.4 298.9 71.3 C 298.89 71.3 298.9 80.2 298.9 80.2 L 297.2 80.2 C 297.2 80.2 297.19 77.86 297.2 77.9 Z M 295.1 73.9 C 295.1 73.9 293.1 74.2 293.1 74.2 C 291.5 74.4 290.2 75 290.2 76.6 C 290.2 78.2 291.5 78.9 292.9 78.9 C 294.9 78.9 297.1 77.4 297.1 74.6 C 297.1 74.6 297.1 73.4 297.1 73.4 C 296.7 73.7 295.9 73.8 295.1 73.9 Z M 313.6 79.6 C 313.6 83.5 311.1 85.4 307.7 85.4 C 304.9 85.4 302.3 84 301.9 81 C 301.9 81 303.7 81 303.7 81 C 304 82.6 305.2 84 307.7 84 C 310.1 84 311.9 82.8 311.9 79.7 C 311.9 79.7 311.9 77.2 311.9 77.2 C 310.9 79.1 309 79.7 307.3 79.7 C 304.2 79.7 301.7 77.6 301.7 73.4 C 301.7 69.2 304.3 67.1 307.4 67.1 C 309.5 67.1 311.1 68 311.9 69.4 C 311.85 69.41 311.9 67.3 311.9 67.3 L 313.6 67.3 C 313.6 67.3 313.58 79.63 313.6 79.6 Z M 311.8 73.4 C 311.8 70.1 309.8 68.6 307.7 68.6 C 305.4 68.6 303.4 70.2 303.4 73.4 C 303.4 76.6 305.4 78.1 307.6 78.1 C 309.7 78.1 311.8 76.8 311.8 73.4 Z M 318.2 74.2 C 318.2 77.4 320.2 78.9 322.5 78.9 C 324.2 78.9 325.9 78 326.3 76.2 C 326.3 76.2 327.9 76.2 327.9 76.2 C 327.3 79.2 324.8 80.5 322.4 80.5 C 319.3 80.5 316.5 78.4 316.5 73.8 C 316.5 69.2 319.4 67.1 322.5 67.1 C 325.5 67.1 328 69 328 73.3 C 328 73.32 328 74.2 328 74.2 C 328 74.2 318.19 74.18 318.2 74.2 Z M 318.2 72.7 C 318.2 72.7 326.2 72.7 326.2 72.7 C 326.2 70.1 324.5 68.6 322.4 68.6 C 320.4 68.6 318.5 69.9 318.2 72.7 Z M 331 67.3 L 332.7 67.3 C 332.7 67.3 332.73 69.46 332.7 69.5 C 333.4 67.8 334.8 67.1 336.5 67.1 C 338.4 67.1 339.9 68.1 340.3 69.8 C 340.9 68.3 342.3 67.1 344.5 67.1 C 346.8 67.1 348.7 68.4 348.7 71 C 348.69 70.97 348.7 80.2 348.7 80.2 L 346.9 80.2 C 346.9 80.2 346.94 71.59 346.9 71.6 C 346.9 69.6 345.7 68.6 344.2 68.6 C 342.3 68.6 340.7 70.1 340.7 72.8 C 340.7 72.84 340.7 80.2 340.7 80.2 L 339 80.2 C 339 80.2 338.97 71.59 339 71.6 C 339 69.6 337.8 68.6 336.3 68.6 C 334.4 68.6 332.8 70.1 332.8 72.8 C 332.76 72.84 332.8 80.2 332.8 80.2 L 331 80.2 L 331 67.3 Z M 353.3 74.2 C 353.3 77.4 355.3 78.9 357.6 78.9 C 359.3 78.9 361 78 361.4 76.2 C 361.4 76.2 363 76.2 363 76.2 C 362.4 79.2 359.9 80.5 357.5 80.5 C 354.4 80.5 351.6 78.4 351.6 73.8 C 351.6 69.2 354.5 67.1 357.6 67.1 C 360.6 67.1 363.1 69 363.1 73.3 C 363.12 73.32 363.1 74.2 363.1 74.2 C 363.1 74.2 353.3 74.18 353.3 74.2 Z M 353.3 72.7 C 353.3 72.7 361.3 72.7 361.3 72.7 C 361.3 70.1 359.7 68.6 357.5 68.6 C 355.5 68.6 353.6 69.9 353.3 72.7 Z M 376.6 71.4 C 376.58 71.38 376.6 80.2 376.6 80.2 L 374.8 80.2 C 374.8 80.2 374.83 71.59 374.8 71.6 C 374.8 69.8 373.8 68.7 372 68.7 C 369.8 68.7 367.9 70.3 367.9 73.4 C 367.87 73.44 367.9 80.2 367.9 80.2 L 366.1 80.2 L 366.1 67.3 L 367.9 67.3 C 367.9 67.3 367.87 69.72 367.9 69.7 C 368.6 68.2 370.1 67.1 372.3 67.1 C 374.9 67.1 376.6 68.5 376.6 71.4 Z M 386.2 80.2 C 386.2 80.2 384.28 80.21 384.3 80.2 C 382.6 80.2 381 79.7 381 76.8 C 381.04 76.82 381 68.9 381 68.9 L 378.5 68.9 L 378.5 67.3 L 381 67.3 L 381 63.7 L 382.8 63.2 L 382.8 67.3 L 385.9 67.3 L 385.9 68.9 L 382.8 68.9 C 382.8 68.9 382.8 76.8 382.8 76.8 C 382.8 78 383.1 78.6 384.6 78.6 C 384.57 78.62 386.2 78.6 386.2 78.6 L 386.2 80.2 Z " stroke="none" fill="#000"/>  </g>  <g id="Polygon10157">    <path d="M 15.7 51.4 L 13.8 51.4 L 13.8 43.2 L 4 43.2 L 4 51.4 L 2.2 51.4 L 2.2 33.4 L 4 33.4 L 4 41.5 L 13.8 41.5 L 13.8 33.4 L 15.7 33.4 L 15.7 51.4 Z M 20.6 45.4 C 20.7 48.6 22.7 50.1 24.9 50.1 C 26.6 50.1 28.3 49.2 28.7 47.4 C 28.7 47.4 30.4 47.4 30.4 47.4 C 29.8 50.4 27.3 51.7 24.8 51.7 C 21.8 51.7 18.9 49.6 18.9 45 C 18.9 40.4 21.8 38.3 24.9 38.3 C 28 38.3 30.5 40.2 30.5 44.5 C 30.46 44.52 30.5 45.4 30.5 45.4 C 30.5 45.4 20.64 45.38 20.6 45.4 Z M 20.7 43.9 C 20.7 43.9 28.7 43.9 28.7 43.9 C 28.7 41.3 27 39.8 24.8 39.8 C 22.8 39.8 20.9 41.1 20.7 43.9 Z M 41.4 49.1 C 40.4 51 38.4 51.7 36.8 51.7 C 34.6 51.7 32.6 50.4 32.6 47.8 C 32.6 45.5 34.3 44.4 36.5 44.1 C 36.5 44.1 39.6 43.7 39.6 43.7 C 40.5 43.5 41.4 43.2 41.4 42.1 C 41.4 40.6 40.1 39.7 38.3 39.7 C 36.3 39.7 35.1 40.7 34.9 42.1 C 34.9 42.1 33.1 42.1 33.1 42.1 C 33.5 39.6 35.5 38.3 38.4 38.3 C 41.3 38.3 43.1 39.6 43.1 42.5 C 43.08 42.5 43.1 51.4 43.1 51.4 L 41.4 51.4 C 41.4 51.4 41.38 49.06 41.4 49.1 Z M 39.2 45.1 C 39.2 45.1 37.3 45.4 37.3 45.4 C 35.6 45.6 34.4 46.2 34.4 47.8 C 34.4 49.4 35.7 50.1 37.1 50.1 C 39.1 50.1 41.3 48.6 41.3 45.8 C 41.3 45.8 41.3 44.6 41.3 44.6 C 40.8 44.9 40.1 45 39.2 45.1 Z M 57.9 51.4 L 56.2 51.4 C 56.2 51.4 56.21 48.91 56.2 48.9 C 55.6 50.4 54 51.7 51.6 51.7 C 48.2 51.7 45.8 49 45.8 45 C 45.8 40.9 48.2 38.3 51.6 38.3 C 53.8 38.3 55.4 39.4 56.1 40.7 C 56.14 40.7 56.1 33.1 56.1 33.1 L 57.9 33.1 L 57.9 51.4 Z M 56.1 44.9 C 56.1 41.7 54.3 39.9 51.9 39.9 C 49.3 39.9 47.6 41.8 47.6 45 C 47.6 48.1 49.4 50.1 51.9 50.1 C 54.4 50.1 56.1 48.1 56.1 44.9 Z M 66.9 45 C 66.9 40.8 69.4 38.3 73 38.3 C 76.5 38.3 79.1 40.8 79.1 45 C 79.1 49.2 76.6 51.7 73 51.7 C 69.5 51.7 66.9 49.2 66.9 45 Z M 77.3 44.9 C 77.3 41.7 75.4 39.9 73 39.9 C 70.4 39.9 68.7 41.9 68.7 45 C 68.7 48.2 70.6 50 73 50 C 75.5 50 77.3 48.1 77.3 44.9 Z M 86.2 34.7 C 84.8 34.7 84.4 35.3 84.4 36.5 C 84.43 36.53 84.4 38.5 84.4 38.5 L 87.3 38.5 L 87.3 40.1 L 84.4 40.1 L 84.4 51.4 L 82.7 51.4 L 82.7 40.1 L 80.5 40.1 L 80.5 38.5 L 82.7 38.5 C 82.7 38.5 82.68 36.48 82.7 36.5 C 82.7 33.6 84.2 33.1 85.9 33.1 C 85.92 33.12 87.6 33.1 87.6 33.1 L 87.6 34.7 C 87.6 34.7 86.21 34.68 86.2 34.7 Z M 98 51.4 L 96.1 51.4 L 96.1 33.4 L 107.4 33.4 L 107.4 35 L 98 35 L 98 41.5 L 106.9 41.5 L 106.9 43.1 L 98 43.1 L 98 51.4 Z M 118.2 51.4 C 118.2 51.4 118.18 48.96 118.2 49 C 117.3 50.7 115.7 51.6 113.9 51.6 C 111.5 51.6 109.6 50 109.6 47 C 109.58 47.04 109.6 38.5 109.6 38.5 L 111.3 38.5 C 111.3 38.5 111.34 46.82 111.3 46.8 C 111.3 48.9 112.5 50 114.2 50 C 116.3 50 118.1 48.5 118.1 45.2 C 118.1 45.19 118.1 38.5 118.1 38.5 L 119.9 38.5 L 119.9 51.4 L 118.2 51.4 Z M 134.2 42.6 C 134.16 42.58 134.2 51.4 134.2 51.4 L 132.4 51.4 C 132.4 51.4 132.41 42.79 132.4 42.8 C 132.4 41 131.4 39.9 129.6 39.9 C 127.4 39.9 125.4 41.5 125.4 44.6 C 125.45 44.64 125.4 51.4 125.4 51.4 L 123.7 51.4 L 123.7 38.5 L 125.4 38.5 C 125.4 38.5 125.45 40.92 125.4 40.9 C 126.2 39.4 127.7 38.3 129.9 38.3 C 132.5 38.3 134.2 39.7 134.2 42.6 Z M 149.1 51.4 L 147.4 51.4 C 147.4 51.4 147.41 48.91 147.4 48.9 C 146.8 50.4 145.2 51.7 142.8 51.7 C 139.4 51.7 137 49 137 45 C 137 40.9 139.4 38.3 142.8 38.3 C 145 38.3 146.6 39.4 147.3 40.7 C 147.34 40.7 147.3 33.1 147.3 33.1 L 149.1 33.1 L 149.1 51.4 Z M 147.3 44.9 C 147.3 41.7 145.5 39.9 143.1 39.9 C 140.5 39.9 138.8 41.8 138.8 45 C 138.8 48.1 140.6 50.1 143.1 50.1 C 145.6 50.1 147.3 48.1 147.3 44.9 Z M 162.5 47.8 C 162.5 50.4 160.1 51.7 157.5 51.7 C 154.8 51.7 152.2 50.3 152 47.4 C 152 47.4 153.8 47.4 153.8 47.4 C 154.1 49.3 155.8 50.1 157.6 50.1 C 159.2 50.1 160.7 49.4 160.7 48 C 160.7 46.5 159.2 46.2 157.7 45.9 C 155.2 45.5 152.3 45.1 152.3 42.1 C 152.3 39.5 154.5 38.3 157.1 38.3 C 159.9 38.3 162 39.6 162.2 42.1 C 162.2 42.1 160.3 42.1 160.3 42.1 C 160.2 40.6 158.7 39.8 157.1 39.8 C 155.3 39.8 154.1 40.6 154.1 42 C 154.1 43.6 155.7 43.9 157.6 44.2 C 159.9 44.6 162.5 45 162.5 47.8 Z M 179.3 49.1 C 178.3 51 176.4 51.7 174.7 51.7 C 172.5 51.7 170.5 50.4 170.5 47.8 C 170.5 45.5 172.2 44.4 174.5 44.1 C 174.5 44.1 177.5 43.7 177.5 43.7 C 178.5 43.5 179.3 43.2 179.3 42.1 C 179.3 40.6 178 39.7 176.2 39.7 C 174.2 39.7 173.1 40.7 172.8 42.1 C 172.8 42.1 171 42.1 171 42.1 C 171.4 39.6 173.5 38.3 176.3 38.3 C 179.2 38.3 181 39.6 181 42.5 C 181.01 42.5 181 51.4 181 51.4 L 179.3 51.4 C 179.3 51.4 179.3 49.06 179.3 49.1 Z M 177.2 45.1 C 177.2 45.1 175.2 45.4 175.2 45.4 C 173.6 45.6 172.3 46.2 172.3 47.8 C 172.3 49.4 173.6 50.1 175 50.1 C 177 50.1 179.3 48.6 179.3 45.8 C 179.3 45.8 179.3 44.6 179.3 44.6 C 178.8 44.9 178 45 177.2 45.1 Z M 195.1 42.6 C 195.07 42.58 195.1 51.4 195.1 51.4 L 193.3 51.4 C 193.3 51.4 193.32 42.79 193.3 42.8 C 193.3 41 192.3 39.9 190.5 39.9 C 188.3 39.9 186.4 41.5 186.4 44.6 C 186.36 44.64 186.4 51.4 186.4 51.4 L 184.6 51.4 L 184.6 38.5 L 186.4 38.5 C 186.4 38.5 186.36 40.92 186.4 40.9 C 187.1 39.4 188.6 38.3 190.8 38.3 C 193.4 38.3 195.1 39.7 195.1 42.6 Z M 210 51.4 L 208.3 51.4 C 208.3 51.4 208.32 48.91 208.3 48.9 C 207.7 50.4 206.1 51.7 203.7 51.7 C 200.4 51.7 198 49 198 45 C 198 40.9 200.4 38.3 203.8 38.3 C 205.9 38.3 207.6 39.4 208.2 40.7 C 208.25 40.7 208.2 33.1 208.2 33.1 L 210 33.1 L 210 51.4 Z M 208.2 44.9 C 208.2 41.7 206.4 39.9 204 39.9 C 201.5 39.9 199.8 41.8 199.8 45 C 199.8 48.1 201.5 50.1 204 50.1 C 206.5 50.1 208.2 48.1 208.2 44.9 Z M 231.3 46.3 L 222.7 46.3 L 220.7 51.4 L 218.8 51.4 L 226 33.4 L 227.9 33.4 L 235.4 51.4 L 233.4 51.4 L 231.3 46.3 Z M 226.9 35.5 L 223.3 44.7 L 230.7 44.7 L 226.9 35.5 Z M 250.2 44.9 C 250.2 49 247.8 51.7 244.3 51.7 C 242 51.7 240.5 50.4 239.8 49 C 239.83 49.03 239.8 51.4 239.8 51.4 L 238.2 51.4 L 238.2 33.1 L 239.9 33.1 C 239.9 33.1 239.9 41.11 239.9 41.1 C 240.6 39.6 242.2 38.3 244.5 38.3 C 247.8 38.3 250.2 40.8 250.2 44.9 Z M 248.4 45 C 248.4 41.8 246.7 40 244.2 40 C 241.7 40 239.9 41.9 239.9 45.1 C 239.9 48.2 241.7 50.2 244.1 50.2 C 246.7 50.2 248.4 48.1 248.4 45 Z M 262.8 47.8 C 262.8 50.4 260.4 51.7 257.8 51.7 C 255 51.7 252.5 50.3 252.2 47.4 C 252.2 47.4 254.1 47.4 254.1 47.4 C 254.4 49.3 256.1 50.1 257.8 50.1 C 259.5 50.1 260.9 49.4 260.9 48 C 260.9 46.5 259.4 46.2 257.9 45.9 C 255.5 45.5 252.5 45.1 252.5 42.1 C 252.5 39.5 254.7 38.3 257.4 38.3 C 260.1 38.3 262.3 39.6 262.4 42.1 C 262.4 42.1 260.6 42.1 260.6 42.1 C 260.5 40.6 259 39.8 257.3 39.8 C 255.6 39.8 254.4 40.6 254.4 42 C 254.4 43.6 255.9 43.9 257.9 44.2 C 260.2 44.6 262.8 45 262.8 47.8 Z M 264.8 45 C 264.8 40.8 267.3 38.3 270.9 38.3 C 274.4 38.3 277 40.8 277 45 C 277 49.2 274.5 51.7 270.9 51.7 C 267.4 51.7 264.8 49.2 264.8 45 Z M 275.2 44.9 C 275.2 41.7 273.3 39.9 270.9 39.9 C 268.3 39.9 266.6 41.9 266.6 45 C 266.6 48.2 268.5 50 270.9 50 C 273.4 50 275.2 48.1 275.2 44.9 Z M 281.8 51.4 L 280 51.4 L 280 33.1 L 281.8 33.1 L 281.8 51.4 Z M 294.1 51.4 C 294.1 51.4 294.07 48.96 294.1 49 C 293.2 50.7 291.6 51.6 289.8 51.6 C 287.3 51.6 285.5 50 285.5 47 C 285.48 47.04 285.5 38.5 285.5 38.5 L 287.2 38.5 C 287.2 38.5 287.23 46.82 287.2 46.8 C 287.2 48.9 288.4 50 290.1 50 C 292.1 50 294 48.5 294 45.2 C 294 45.19 294 38.5 294 38.5 L 295.7 38.5 L 295.7 51.4 L 294.1 51.4 Z M 305.5 51.4 C 305.5 51.4 303.57 51.41 303.6 51.4 C 301.9 51.4 300.3 50.9 300.3 48 C 300.33 48.02 300.3 40.1 300.3 40.1 L 297.8 40.1 L 297.8 38.5 L 300.3 38.5 L 300.3 34.9 L 302.1 34.4 L 302.1 38.5 L 305.2 38.5 L 305.2 40.1 L 302.1 40.1 C 302.1 40.1 302.09 48 302.1 48 C 302.1 49.2 302.4 49.8 303.9 49.8 C 303.86 49.82 305.5 49.8 305.5 49.8 L 305.5 51.4 Z M 308.9 45.4 C 308.9 48.6 310.9 50.1 313.2 50.1 C 314.9 50.1 316.6 49.2 316.9 47.4 C 316.9 47.4 318.6 47.4 318.6 47.4 C 318 50.4 315.5 51.7 313.1 51.7 C 310 51.7 307.1 49.6 307.1 45 C 307.1 40.4 310.1 38.3 313.1 38.3 C 316.2 38.3 318.7 40.2 318.7 44.5 C 318.69 44.52 318.7 45.4 318.7 45.4 C 318.7 45.4 308.88 45.38 308.9 45.4 Z M 308.9 43.9 C 308.9 43.9 316.9 43.9 316.9 43.9 C 316.9 41.3 315.2 39.8 313.1 39.8 C 311.1 39.8 309.2 41.1 308.9 43.9 Z " stroke="none" fill="#000"/>  </g>  <g id="Polygon10156">    <path d="M 14.3 16 C 14.3 16 17.7 16 17.7 16 C 17.4 20.7 13.8 23.1 9.7 23.1 C 4 23.1 1 18.5 1 13.5 C 1 8.8 3.7 4.2 9.8 4.2 C 14 4.2 17.2 6.5 17.6 10.6 C 17.6 10.6 14.2 10.6 14.2 10.6 C 14 8.6 12.1 7.3 9.7 7.3 C 6 7.3 4.3 10.3 4.3 13.5 C 4.3 16.8 6.2 19.8 9.7 19.8 C 11.9 19.8 14.1 18.8 14.3 16 Z M 24.2 7 L 27.9 1.3 L 30.4 3.2 L 26.9 7 L 24.2 7 Z M 22.4 16.9 C 22.4 19.1 24 20.1 25.8 20.1 C 27 20.1 28.2 19.6 28.6 18.4 C 28.6 18.4 31.5 18.4 31.5 18.4 C 31 21.3 28.3 22.9 25.6 22.9 C 22.4 22.9 19.3 20.7 19.3 16 C 19.3 11.5 22.3 9.1 25.7 9.1 C 28.9 9.1 31.6 11.3 31.6 15.6 C 31.58 15.65 31.6 16.9 31.6 16.9 C 31.6 16.9 22.37 16.94 22.4 16.9 Z M 22.4 14.6 C 22.4 14.6 28.5 14.6 28.5 14.6 C 28.5 12.9 27.2 11.9 25.6 11.9 C 24.1 11.9 22.7 12.7 22.4 14.6 Z M 44.4 18.5 C 44.4 21.5 41.8 22.9 38.8 22.9 C 36.1 22.9 33.1 21.7 32.9 18.4 C 32.9 18.4 36.1 18.4 36.1 18.4 C 36.3 19.7 37.5 20.3 39 20.3 C 40.3 20.3 41.3 19.8 41.3 18.8 C 41.3 18 40.7 17.8 38.9 17.5 C 36.3 17 33.3 16.6 33.3 13.3 C 33.3 10.3 35.8 9.1 38.6 9.1 C 41.7 9.1 43.9 10.7 44.1 13.6 C 44.1 13.6 41 13.6 41 13.6 C 40.9 12.3 40 11.8 38.6 11.8 C 37 11.8 36.4 12.5 36.4 13.2 C 36.4 14.3 37.6 14.5 39.2 14.7 C 41.6 15.1 44.4 15.4 44.4 18.5 Z M 57.2 13.7 C 57.19 13.7 57.2 22.6 57.2 22.6 L 54.1 22.6 C 54.1 22.6 54.07 20.69 54.1 20.7 C 53 22.4 51.5 22.9 50.1 22.9 C 48 22.9 45.8 21.6 45.8 18.8 C 45.8 16.7 46.9 15.3 50 14.8 C 50 14.8 52.8 14.4 52.8 14.4 C 53.6 14.3 54.2 14 54.2 13.2 C 54.2 12.1 53.2 11.6 52 11.6 C 50.3 11.6 49.5 12.5 49.4 13.6 C 49.4 13.6 46.3 13.6 46.3 13.6 C 46.6 10.5 49.1 9.1 52.1 9.1 C 55.2 9.1 57.2 10.6 57.2 13.7 Z M 54.1 17 C 54.1 17 54.1 16.3 54.1 16.3 C 53.8 16.5 53.2 16.6 52.5 16.7 C 52.5 16.7 51.1 16.9 51.1 16.9 C 49.5 17.1 49 17.8 49 18.6 C 49 19.7 49.7 20.2 50.8 20.2 C 52.5 20.2 54.1 19 54.1 17 Z M 67.6 12.3 C 67.6 12.3 66.72 12.31 66.7 12.3 C 64.5 12.3 63.3 13.5 63.3 16.1 C 63.26 16.13 63.3 22.6 63.3 22.6 L 60.1 22.6 L 60.1 9.4 L 63.2 9.4 C 63.2 9.4 63.24 11.26 63.2 11.3 C 63.9 9.8 65.1 9.2 66.7 9.2 C 66.7 9.22 67.6 9.2 67.6 9.2 L 67.6 12.3 Z M 90.2 13 L 90.2 22.6 L 87.1 22.6 C 87.1 22.6 87.1 20.54 87.1 20.5 C 86.4 21.7 84.8 23.1 81.8 23.1 C 76.8 23.1 73.6 19.1 73.6 13.8 C 73.6 8.8 76.3 4.2 82.4 4.2 C 86.6 4.2 89.8 6.5 90.2 10.6 C 90.2 10.6 86.8 10.6 86.8 10.6 C 86.6 8.6 84.7 7.3 82.3 7.3 C 78.6 7.3 76.9 10.2 76.9 13.7 C 76.9 17.4 78.8 19.9 82.3 19.9 C 84.8 19.9 86.8 18.7 87.1 16.1 C 87.12 16.08 81.8 16.1 81.8 16.1 L 81.8 13 L 90.2 13 Z M 93.3 7.6 L 96.7 7.6 L 96.7 4 L 93.3 4 L 93.3 7.6 Z M 93.4 9.4 L 96.6 9.4 L 96.6 22.6 L 93.4 22.6 L 93.4 9.4 Z M 102.9 22.6 L 99.7 22.6 L 99.7 4.3 L 102.9 4.3 L 102.9 22.6 Z M 124.5 16 C 124.5 16 127.9 16 127.9 16 C 127.7 20.7 124 23.1 119.9 23.1 C 114.2 23.1 111.2 18.5 111.2 13.5 C 111.2 8.8 114 4.2 120 4.2 C 124.2 4.2 127.4 6.5 127.8 10.6 C 127.8 10.6 124.4 10.6 124.4 10.6 C 124.2 8.6 122.3 7.3 119.9 7.3 C 116.3 7.3 114.5 10.3 114.5 13.5 C 114.5 16.8 116.4 19.8 120 19.8 C 122.1 19.8 124.3 18.8 124.5 16 Z M 140.9 13.7 C 140.93 13.7 140.9 22.6 140.9 22.6 L 137.8 22.6 C 137.8 22.6 137.81 20.69 137.8 20.7 C 136.8 22.4 135.2 22.9 133.8 22.9 C 131.7 22.9 129.5 21.6 129.5 18.8 C 129.5 16.7 130.7 15.3 133.7 14.8 C 133.7 14.8 136.6 14.4 136.6 14.4 C 137.4 14.3 137.9 14 137.9 13.2 C 137.9 12.1 137 11.6 135.7 11.6 C 134 11.6 133.2 12.5 133.1 13.6 C 133.1 13.6 130 13.6 130 13.6 C 130.4 10.5 132.8 9.1 135.8 9.1 C 139 9.1 140.9 10.6 140.9 13.7 Z M 137.8 17 C 137.8 17 137.8 16.3 137.8 16.3 C 137.5 16.5 136.9 16.6 136.3 16.7 C 136.3 16.7 134.8 16.9 134.8 16.9 C 133.2 17.1 132.7 17.8 132.7 18.6 C 132.7 19.7 133.4 20.2 134.5 20.2 C 136.2 20.2 137.8 19 137.8 17 Z M 155.4 14.1 C 155.45 14.06 155.4 22.6 155.4 22.6 L 152.3 22.6 C 152.3 22.6 152.25 14.35 152.3 14.4 C 152.3 12.9 151.4 12 149.9 12 C 148.1 12 147 13.3 147 15.5 C 147 15.46 147 22.6 147 22.6 L 143.8 22.6 L 143.8 9.4 L 147 9.4 C 147 9.4 146.97 11.28 147 11.3 C 147.7 10.1 148.8 9.1 151 9.1 C 154 9.1 155.4 10.9 155.4 14.1 Z M 170.5 16 C 170.5 20.3 167.8 22.9 164.1 22.9 C 160.4 22.9 157.6 20.3 157.6 16 C 157.6 11.7 160.4 9.1 164.1 9.1 C 167.8 9.1 170.5 11.7 170.5 16 Z M 160.9 16 C 160.9 18.7 162.3 19.9 164.1 19.9 C 166 19.9 167.3 18.5 167.3 16 C 167.3 13.3 165.8 12.1 164 12.1 C 162.1 12.1 160.9 13.5 160.9 16 Z " stroke="none" fill="#000"/>  </g></svg>