<?xml version="1.0" standalone="no"?><!DOCTYPE svg PUBLIC "-//W3C//DTD SVG 1.1//EN" "http://www.w3.org/Graphics/SVG/1.1/DTD/svg11.dtd"><svg xmlns="http://www.w3.org/2000/svg" version="1.1" width="51px" height="61.3px" viewBox="0 -1 51 61.3" style="top:-1px"><desc>3 4</desc><defs/><g id="Polygon9488"><path d="m20.8 29.8c0 4.4-3.8 7.6-9.2 7.6c-5.1 0-9.4-3-9.4-8.7h2.8c-.1 4.2 3 6.3 6.8 6.3c3.9 0 6.1-2.4 6.1-5c0-2.9-2.4-5.4-7-5.4H9.7v-2.4h.7c4.6 0 7-2.6 7-5.4c0-2.7-2.4-4.5-5.7-4.5c-3.7 0-6.4 2.2-6.4 6.3H2.6c0-5.6 4-8.7 9.3-8.7c4.6 0 8.3 2.5 8.3 6.7c0 3-1.8 5.5-4.8 6.5c3.4.9 5.4 3.5 5.4 6.7zm3.1 3.3h3.7v3.8h-3.7v-3.8zm25.9-5.2v2.5h-4.4v6.5h-2.6v-6.6H30.2v-2.6l11.6-17.2h3.6v17.4h4.4zm-7 0V13.1L32.7 27.9h10.1z" stroke="none" fill="#000"/></g></svg>