<?xml version="1.0" standalone="no"?><!DOCTYPE svg PUBLIC "-//W3C//DTD SVG 1.1//EN" "http://www.w3.org/Graphics/SVG/1.1/DTD/svg11.dtd"><svg xmlns="http://www.w3.org/2000/svg" version="1.1" width="380.4px" height="104.4px" viewBox="0 -3 380.4 104.4" style="top:-3px">  <desc>Sectors like retail and automotive were already under pressure from structural change pre-COVID Whilst</desc>  <defs/>  <g id="Polygon12127">    <path d="M 6.2 70.4 C 3.1 70.4 0.9 68.1 0.9 64.6 C 0.9 61 3 58.7 6.3 58.7 C 8.8 58.7 10.8 60.1 11 62.6 C 11 62.6 9.5 62.6 9.5 62.6 C 9.3 61 7.9 60.1 6.3 60.1 C 4.1 60.1 2.5 61.8 2.5 64.5 C 2.5 67.3 4.1 69 6.3 69 C 8 69 9.3 68 9.4 66.2 C 9.4 66.2 11 66.2 11 66.2 C 10.8 68.9 8.7 70.4 6.2 70.4 Z M 22.7 62.5 C 22.74 62.45 22.7 70.2 22.7 70.2 L 21.2 70.2 C 21.2 70.2 21.21 62.64 21.2 62.6 C 21.2 61.1 20.3 60.1 18.7 60.1 C 16.8 60.1 15.1 61.5 15.1 64.3 C 15.12 64.26 15.1 70.2 15.1 70.2 L 13.6 70.2 L 13.6 54.2 L 15.1 54.2 C 15.1 54.2 15.12 60.88 15.1 60.9 C 15.8 59.6 17 58.7 19 58.7 C 21.3 58.7 22.7 60 22.7 62.5 Z M 32.9 68.1 C 32 69.8 30.3 70.4 28.9 70.4 C 27 70.4 25.3 69.3 25.3 67.1 C 25.3 65 26.8 64 28.7 63.8 C 28.7 63.8 31.4 63.4 31.4 63.4 C 32.2 63.3 32.9 63 32.9 62 C 32.9 60.7 31.8 60 30.2 60 C 28.5 60 27.5 60.8 27.2 62.1 C 27.2 62.1 25.7 62.1 25.7 62.1 C 26 59.8 27.8 58.7 30.3 58.7 C 32.9 58.7 34.4 59.9 34.4 62.4 C 34.42 62.39 34.4 70.2 34.4 70.2 L 32.9 70.2 C 32.9 70.2 32.93 68.12 32.9 68.1 Z M 31.1 64.7 C 31.1 64.7 29.3 64.9 29.3 64.9 C 27.9 65.1 26.8 65.6 26.8 67 C 26.8 68.4 27.9 69 29.2 69 C 30.9 69 32.9 67.7 32.9 65.3 C 32.9 65.3 32.9 64.2 32.9 64.2 C 32.5 64.5 31.8 64.6 31.1 64.7 Z M 46.7 62.5 C 46.72 62.45 46.7 70.2 46.7 70.2 L 45.2 70.2 C 45.2 70.2 45.19 62.64 45.2 62.6 C 45.2 61.1 44.3 60.1 42.7 60.1 C 40.8 60.1 39.1 61.5 39.1 64.3 C 39.1 64.26 39.1 70.2 39.1 70.2 L 37.6 70.2 L 37.6 58.9 L 39.1 58.9 C 39.1 58.9 39.1 61 39.1 61 C 39.8 59.7 41 58.7 43 58.7 C 45.3 58.7 46.7 60 46.7 62.5 Z M 59.7 69.7 C 59.7 73.1 57.5 74.8 54.6 74.8 C 52.1 74.8 49.9 73.5 49.5 70.9 C 49.5 70.9 51.1 70.9 51.1 70.9 C 51.3 72.3 52.3 73.5 54.6 73.5 C 56.7 73.5 58.2 72.4 58.2 69.8 C 58.2 69.8 58.2 67.5 58.2 67.5 C 57.4 69.2 55.7 69.8 54.2 69.8 C 51.5 69.8 49.2 67.9 49.2 64.2 C 49.2 60.5 51.6 58.7 54.3 58.7 C 56.1 58.7 57.5 59.5 58.2 60.7 C 58.17 60.73 58.2 58.9 58.2 58.9 L 59.7 58.9 C 59.7 58.9 59.68 69.68 59.7 69.7 Z M 58.1 64.2 C 58.1 61.4 56.4 60 54.5 60 C 52.6 60 50.8 61.4 50.8 64.2 C 50.8 67 52.5 68.4 54.5 68.4 C 56.3 68.4 58.1 67.2 58.1 64.2 Z M 63.7 64.9 C 63.8 67.7 65.5 69 67.5 69 C 69 69 70.4 68.3 70.8 66.7 C 70.8 66.7 72.2 66.7 72.2 66.7 C 71.7 69.3 69.5 70.4 67.4 70.4 C 64.7 70.4 62.2 68.6 62.2 64.6 C 62.2 60.5 64.7 58.7 67.5 58.7 C 70.1 58.7 72.3 60.4 72.3 64.2 C 72.3 64.15 72.3 64.9 72.3 64.9 C 72.3 64.9 63.71 64.91 63.7 64.9 Z M 63.8 63.6 C 63.8 63.6 70.7 63.6 70.7 63.6 C 70.7 61.3 69.3 60.1 67.4 60.1 C 65.6 60.1 64 61.2 63.8 63.6 Z M 90.7 64.5 C 90.7 68.6 88.1 70.3 85.5 70.3 C 83.6 70.3 82.3 69.4 81.7 68.2 C 81.71 68.23 81.7 74.5 81.7 74.5 L 80.2 74.5 L 80.2 58.9 L 81.7 58.9 C 81.7 58.9 81.67 61.28 81.7 61.3 C 82.2 59.9 83.6 58.7 85.7 58.7 C 88.1 58.7 90.7 60.4 90.7 64.5 Z M 89.1 64.5 C 89.1 61.4 87.3 60.2 85.5 60.2 C 83.6 60.2 81.7 61.4 81.7 64.6 C 81.7 67.7 83.6 68.9 85.4 68.9 C 87.3 68.9 89.1 67.7 89.1 64.5 Z M 99 60.2 C 99 60.2 98.59 60.23 98.6 60.2 C 96.2 60.2 94.9 61.6 94.9 64.2 C 94.86 64.2 94.9 70.2 94.9 70.2 L 93.3 70.2 L 93.3 58.9 L 94.8 58.9 C 94.8 58.9 94.83 60.98 94.8 61 C 95.4 59.5 96.7 58.8 98.5 58.8 C 98.47 58.78 99 58.8 99 58.8 L 99 60.2 Z M 101.5 64.9 C 101.6 67.7 103.3 69 105.3 69 C 106.8 69 108.2 68.3 108.6 66.7 C 108.6 66.7 110 66.7 110 66.7 C 109.5 69.3 107.3 70.4 105.2 70.4 C 102.5 70.4 100 68.6 100 64.6 C 100 60.5 102.5 58.7 105.3 58.7 C 107.9 58.7 110.1 60.4 110.1 64.2 C 110.1 64.15 110.1 64.9 110.1 64.9 C 110.1 64.9 101.51 64.91 101.5 64.9 Z M 101.6 63.6 C 101.6 63.6 108.5 63.6 108.5 63.6 C 108.5 61.3 107.1 60.1 105.2 60.1 C 103.4 60.1 101.8 61.2 101.6 63.6 Z M 112.1 64.1 L 112.1 62.7 L 118.6 62.7 L 118.6 64.1 L 112.1 64.1 Z M 133.1 59.2 C 132.8 56.9 130.7 55.5 128.2 55.5 C 124.9 55.5 122.4 58.1 122.4 62.2 C 122.4 65.8 124.4 69.1 128.4 69.1 C 131 69.1 133 67.6 133.2 64.9 C 133.2 64.9 134.9 64.9 134.9 64.9 C 134.7 68.5 131.8 70.6 128.2 70.6 C 123.3 70.6 120.8 66.6 120.8 62.2 C 120.8 57.2 123.9 54.1 128.3 54.1 C 131.6 54.1 134.4 55.8 134.7 59.2 C 134.7 59.2 133.1 59.2 133.1 59.2 Z M 137.1 62.3 C 137.1 57.9 139.9 54.1 144.7 54.1 C 149.5 54.1 152.3 57.9 152.3 62.3 C 152.3 66.7 149.5 70.6 144.7 70.6 C 139.9 70.6 137.1 66.7 137.1 62.3 Z M 138.7 62.3 C 138.7 65.9 140.9 69.1 144.8 69.1 C 148.6 69.1 150.7 66 150.7 62.4 C 150.7 58.7 148.5 55.6 144.7 55.6 C 140.9 55.6 138.7 58.7 138.7 62.3 Z M 160.8 70.2 L 159.1 70.2 L 153.6 54.4 L 155.3 54.4 L 159.9 68.3 L 164.5 54.4 L 166.1 54.4 L 160.8 70.2 Z M 170.2 70.2 L 168.6 70.2 L 168.6 54.4 L 170.2 54.4 L 170.2 70.2 Z M 186.6 62 C 186.6 66.1 184 70.2 178.7 70.2 C 178.67 70.18 174.1 70.2 174.1 70.2 L 174.1 54.4 C 174.1 54.4 178.94 54.43 178.9 54.4 C 184 54.4 186.6 58.1 186.6 62 Z M 184.9 62.1 C 184.9 58.9 182.9 55.8 178.8 55.8 C 178.81 55.84 175.7 55.8 175.7 55.8 L 175.7 68.7 C 175.7 68.7 178.69 68.73 178.7 68.7 C 182.8 68.7 184.9 65.4 184.9 62.1 Z M 187.8 68 L 190 68 L 190 70.2 L 187.8 70.2 L 187.8 68 Z M 211.6 70.2 L 210 70.2 L 206 56.9 L 202.1 70.2 L 200.5 70.2 L 196.4 54.4 L 198 54.4 L 201.3 67.9 L 205.3 54.4 L 206.9 54.4 L 210.8 67.9 L 214.1 54.4 L 215.7 54.4 L 211.6 70.2 Z M 227.2 62.5 C 227.15 62.45 227.2 70.2 227.2 70.2 L 225.6 70.2 C 225.6 70.2 225.62 62.64 225.6 62.6 C 225.6 61.1 224.7 60.1 223.1 60.1 C 221.2 60.1 219.5 61.5 219.5 64.3 C 219.53 64.26 219.5 70.2 219.5 70.2 L 218 70.2 L 218 54.2 L 219.5 54.2 C 219.5 54.2 219.53 60.88 219.5 60.9 C 220.2 59.6 221.4 58.7 223.4 58.7 C 225.7 58.7 227.2 60 227.2 62.5 Z M 232 54.2 L 230.3 54.2 L 230.3 56.1 L 232 56.1 L 232 54.2 Z M 231.9 70.2 L 230.4 70.2 L 230.4 58.9 L 231.9 58.9 L 231.9 70.2 Z M 236.8 70.2 L 235.3 70.2 L 235.3 54.2 L 236.8 54.2 L 236.8 70.2 Z M 248.6 67 C 248.6 69.3 246.5 70.4 244.2 70.4 C 241.8 70.4 239.6 69.2 239.4 66.7 C 239.4 66.7 241 66.7 241 66.7 C 241.2 68.4 242.7 69 244.2 69 C 245.7 69 247 68.5 247 67.2 C 247 65.9 245.7 65.6 244.4 65.4 C 242.2 65 239.6 64.6 239.6 62 C 239.6 59.8 241.6 58.7 243.9 58.7 C 246.3 58.7 248.2 59.8 248.3 62.1 C 248.3 62.1 246.7 62.1 246.7 62.1 C 246.6 60.7 245.3 60.1 243.8 60.1 C 242.3 60.1 241.2 60.8 241.2 61.9 C 241.2 63.4 242.6 63.6 244.3 63.9 C 246.3 64.2 248.6 64.5 248.6 67 Z M 256.2 70.2 C 256.2 70.2 254.58 70.18 254.6 70.2 C 253.1 70.2 251.7 69.7 251.7 67.2 C 251.74 67.22 251.7 60.3 251.7 60.3 L 249.5 60.3 L 249.5 58.9 L 251.7 58.9 L 251.7 55.7 L 253.3 55.3 L 253.3 58.9 L 256 58.9 L 256 60.3 L 253.3 60.3 C 253.3 60.3 253.28 67.2 253.3 67.2 C 253.3 68.2 253.6 68.8 254.8 68.8 C 254.83 68.8 256.2 68.8 256.2 68.8 L 256.2 70.2 Z M 257.7 68 L 259.9 68 L 259.9 70.2 L 257.7 70.2 L 257.7 68 Z M 261.7 68 L 263.9 68 L 263.9 70.2 L 261.7 70.2 L 261.7 68 Z M 265.8 68 L 267.9 68 L 267.9 70.2 L 265.8 70.2 L 265.8 68 Z " stroke="none" fill="#000"/>  </g>  <g id="Polygon12126">    <path d="M 8.6 42.9 C 7.7 44.6 6 45.2 4.6 45.2 C 2.7 45.2 0.9 44.1 0.9 41.9 C 0.9 39.8 2.4 38.8 4.4 38.6 C 4.4 38.6 7 38.2 7 38.2 C 7.9 38.1 8.6 37.8 8.6 36.8 C 8.6 35.5 7.5 34.8 5.9 34.8 C 4.2 34.8 3.1 35.6 2.9 36.9 C 2.9 36.9 1.4 36.9 1.4 36.9 C 1.7 34.6 3.5 33.5 6 33.5 C 8.5 33.5 10.1 34.7 10.1 37.2 C 10.1 37.19 10.1 45 10.1 45 L 8.6 45 C 8.6 45 8.61 42.92 8.6 42.9 Z M 6.7 39.5 C 6.7 39.5 5 39.7 5 39.7 C 3.6 39.9 2.5 40.4 2.5 41.8 C 2.5 43.2 3.6 43.8 4.9 43.8 C 6.6 43.8 8.6 42.5 8.6 40.1 C 8.6 40.1 8.6 39 8.6 39 C 8.1 39.3 7.5 39.4 6.7 39.5 Z M 14.8 45 L 13.3 45 L 13.3 29 L 14.8 29 L 14.8 45 Z M 23.8 35 C 23.8 35 23.41 35.03 23.4 35 C 21 35 19.7 36.4 19.7 39 C 19.68 39 19.7 45 19.7 45 L 18.1 45 L 18.1 33.7 L 19.7 33.7 C 19.7 33.7 19.66 35.78 19.7 35.8 C 20.2 34.3 21.5 33.6 23.3 33.6 C 23.29 33.58 23.8 33.6 23.8 33.6 L 23.8 35 Z M 26.3 39.7 C 26.4 42.5 28.1 43.8 30.1 43.8 C 31.6 43.8 33.1 43.1 33.4 41.5 C 33.4 41.5 34.8 41.5 34.8 41.5 C 34.3 44.1 32.2 45.2 30 45.2 C 27.3 45.2 24.8 43.4 24.8 39.4 C 24.8 35.3 27.4 33.5 30.1 33.5 C 32.7 33.5 34.9 35.2 34.9 39 C 34.92 38.95 34.9 39.7 34.9 39.7 C 34.9 39.7 26.33 39.71 26.3 39.7 Z M 26.4 38.4 C 26.4 38.4 33.4 38.4 33.4 38.4 C 33.4 36.1 31.9 34.9 30 34.9 C 28.2 34.9 26.6 36 26.4 38.4 Z M 44.5 42.9 C 43.6 44.6 41.9 45.2 40.5 45.2 C 38.5 45.2 36.8 44.1 36.8 41.9 C 36.8 39.8 38.3 38.8 40.2 38.6 C 40.2 38.6 42.9 38.2 42.9 38.2 C 43.7 38.1 44.5 37.8 44.5 36.8 C 44.5 35.5 43.3 34.8 41.7 34.8 C 40 34.8 39 35.6 38.8 36.9 C 38.8 36.9 37.3 36.9 37.3 36.9 C 37.6 34.6 39.4 33.5 41.9 33.5 C 44.4 33.5 46 34.7 46 37.2 C 45.97 37.19 46 45 46 45 L 44.5 45 C 44.5 45 44.48 42.92 44.5 42.9 Z M 42.6 39.5 C 42.6 39.5 40.9 39.7 40.9 39.7 C 39.5 39.9 38.4 40.4 38.4 41.8 C 38.4 43.2 39.5 43.8 40.7 43.8 C 42.5 43.8 44.4 42.5 44.4 40.1 C 44.4 40.1 44.4 39 44.4 39 C 44 39.3 43.4 39.4 42.6 39.5 Z M 58.9 45 L 57.5 45 C 57.5 45 57.46 42.8 57.5 42.8 C 56.9 44.1 55.5 45.2 53.4 45.2 C 50.5 45.2 48.4 42.9 48.4 39.3 C 48.4 35.8 50.5 33.5 53.5 33.5 C 55.4 33.5 56.8 34.4 57.4 35.6 C 57.39 35.62 57.4 29 57.4 29 L 58.9 29 L 58.9 45 Z M 57.4 39.3 C 57.4 36.5 55.8 34.9 53.7 34.9 C 51.4 34.9 50 36.6 50 39.3 C 50 42.1 51.5 43.8 53.7 43.8 C 55.8 43.8 57.4 42.1 57.4 39.3 Z M 65.6 47.1 C 65.2 48.3 64.2 48.7 63 48.7 C 63 48.68 61.8 48.7 61.8 48.7 L 61.8 47.3 C 61.8 47.3 62.79 47.31 62.8 47.3 C 63.8 47.3 64.2 47 64.6 46 C 64.6 45.99 65.1 44.5 65.1 44.5 L 60.9 33.7 L 62.5 33.7 L 65.9 42.6 L 69.2 33.7 L 70.7 33.7 C 70.7 33.7 65.6 47.12 65.6 47.1 Z M 85.4 45 C 85.4 45 85.36 42.84 85.4 42.8 C 84.6 44.4 83.2 45.1 81.6 45.1 C 79.5 45.1 77.8 43.8 77.8 41.2 C 77.85 41.16 77.8 33.7 77.8 33.7 L 79.4 33.7 C 79.4 33.7 79.38 40.97 79.4 41 C 79.4 42.8 80.4 43.8 81.9 43.8 C 83.7 43.8 85.3 42.4 85.3 39.5 C 85.3 39.54 85.3 33.7 85.3 33.7 L 86.8 33.7 L 86.8 45 L 85.4 45 Z M 99.3 37.3 C 99.35 37.25 99.3 45 99.3 45 L 97.8 45 C 97.8 45 97.82 37.44 97.8 37.4 C 97.8 35.9 96.9 34.9 95.3 34.9 C 93.4 34.9 91.7 36.3 91.7 39.1 C 91.73 39.06 91.7 45 91.7 45 L 90.2 45 L 90.2 33.7 L 91.7 33.7 C 91.7 33.7 91.73 35.8 91.7 35.8 C 92.4 34.5 93.7 33.5 95.6 33.5 C 97.9 33.5 99.3 34.8 99.3 37.3 Z M 112.4 45 L 110.9 45 C 110.9 45 110.94 42.8 110.9 42.8 C 110.4 44.1 109 45.2 106.9 45.2 C 104 45.2 101.9 42.9 101.9 39.3 C 101.9 35.8 104 33.5 107 33.5 C 108.9 33.5 110.3 34.4 110.9 35.6 C 110.88 35.62 110.9 29 110.9 29 L 112.4 29 L 112.4 45 Z M 110.9 39.3 C 110.9 36.5 109.3 34.9 107.1 34.9 C 104.9 34.9 103.4 36.6 103.4 39.3 C 103.4 42.1 105 43.8 107.1 43.8 C 109.3 43.8 110.9 42.1 110.9 39.3 Z M 116.5 39.7 C 116.6 42.5 118.3 43.8 120.3 43.8 C 121.8 43.8 123.3 43.1 123.6 41.5 C 123.6 41.5 125.1 41.5 125.1 41.5 C 124.5 44.1 122.4 45.2 120.2 45.2 C 117.5 45.2 115 43.4 115 39.4 C 115 35.3 117.6 33.5 120.3 33.5 C 123 33.5 125.1 35.2 125.1 39 C 125.14 38.95 125.1 39.7 125.1 39.7 C 125.1 39.7 116.55 39.71 116.5 39.7 Z M 116.6 38.4 C 116.6 38.4 123.6 38.4 123.6 38.4 C 123.6 36.1 122.1 34.9 120.2 34.9 C 118.5 34.9 116.8 36 116.6 38.4 Z M 133.4 35 C 133.4 35 133.03 35.03 133 35 C 130.6 35 129.3 36.4 129.3 39 C 129.3 39 129.3 45 129.3 45 L 127.8 45 L 127.8 33.7 L 129.3 33.7 C 129.3 33.7 129.27 35.78 129.3 35.8 C 129.8 34.3 131.2 33.6 132.9 33.6 C 132.91 33.58 133.4 33.6 133.4 33.6 L 133.4 35 Z M 150.9 39.3 C 150.9 43.4 148.4 45.1 145.8 45.1 C 143.8 45.1 142.6 44.2 142 43 C 141.96 43.03 142 49.3 142 49.3 L 140.4 49.3 L 140.4 33.7 L 141.9 33.7 C 141.9 33.7 141.92 36.08 141.9 36.1 C 142.4 34.7 143.9 33.5 145.9 33.5 C 148.4 33.5 150.9 35.2 150.9 39.3 Z M 149.4 39.3 C 149.4 36.2 147.6 35 145.7 35 C 143.8 35 142 36.2 142 39.4 C 142 42.5 143.8 43.7 145.7 43.7 C 147.5 43.7 149.4 42.5 149.4 39.3 Z M 159.2 35 C 159.2 35 158.84 35.03 158.8 35 C 156.4 35 155.1 36.4 155.1 39 C 155.1 39 155.1 45 155.1 45 L 153.6 45 L 153.6 33.7 L 155.1 33.7 C 155.1 33.7 155.08 35.78 155.1 35.8 C 155.6 34.3 157 33.6 158.7 33.6 C 158.72 33.58 159.2 33.6 159.2 33.6 L 159.2 35 Z M 161.8 39.7 C 161.8 42.5 163.5 43.8 165.5 43.8 C 167 43.8 168.5 43.1 168.8 41.5 C 168.8 41.5 170.3 41.5 170.3 41.5 C 169.8 44.1 167.6 45.2 165.4 45.2 C 162.7 45.2 160.2 43.4 160.2 39.4 C 160.2 35.3 162.8 33.5 165.5 33.5 C 168.2 33.5 170.4 35.2 170.4 39 C 170.35 38.95 170.4 39.7 170.4 39.7 C 170.4 39.7 161.76 39.71 161.8 39.7 Z M 161.8 38.4 C 161.8 38.4 168.8 38.4 168.8 38.4 C 168.8 36.1 167.3 34.9 165.4 34.9 C 163.7 34.9 162 36 161.8 38.4 Z M 181.4 41.8 C 181.4 44.1 179.3 45.2 177 45.2 C 174.6 45.2 172.4 44 172.1 41.5 C 172.1 41.5 173.8 41.5 173.8 41.5 C 174 43.2 175.5 43.8 177 43.8 C 178.5 43.8 179.8 43.3 179.8 42 C 179.8 40.7 178.5 40.4 177.1 40.2 C 175 39.8 172.4 39.4 172.4 36.8 C 172.4 34.6 174.3 33.5 176.7 33.5 C 179 33.5 180.9 34.6 181.1 36.9 C 181.1 36.9 179.5 36.9 179.5 36.9 C 179.4 35.5 178.1 34.9 176.6 34.9 C 175.1 34.9 174 35.6 174 36.7 C 174 38.2 175.4 38.4 177.1 38.7 C 179.1 39 181.4 39.3 181.4 41.8 Z M 192.3 41.8 C 192.3 44.1 190.2 45.2 187.9 45.2 C 185.5 45.2 183.3 44 183 41.5 C 183 41.5 184.7 41.5 184.7 41.5 C 184.9 43.2 186.4 43.8 187.9 43.8 C 189.4 43.8 190.7 43.3 190.7 42 C 190.7 40.7 189.4 40.4 188 40.2 C 185.9 39.8 183.3 39.4 183.3 36.8 C 183.3 34.6 185.2 33.5 187.5 33.5 C 189.9 33.5 191.8 34.6 192 36.9 C 192 36.9 190.4 36.9 190.4 36.9 C 190.3 35.5 189 34.9 187.5 34.9 C 186 34.9 184.9 35.6 184.9 36.7 C 184.9 38.2 186.3 38.4 188 38.7 C 190 39 192.3 39.3 192.3 41.8 Z M 202.2 45 C 202.2 45 202.19 42.84 202.2 42.8 C 201.4 44.4 200 45.1 198.4 45.1 C 196.3 45.1 194.7 43.8 194.7 41.2 C 194.67 41.16 194.7 33.7 194.7 33.7 L 196.2 33.7 C 196.2 33.7 196.2 40.97 196.2 41 C 196.2 42.8 197.2 43.8 198.7 43.8 C 200.5 43.8 202.1 42.4 202.1 39.5 C 202.12 39.54 202.1 33.7 202.1 33.7 L 203.7 33.7 L 203.7 45 L 202.2 45 Z M 212.6 35 C 212.6 35 212.29 35.03 212.3 35 C 209.9 35 208.5 36.4 208.5 39 C 208.55 39 208.5 45 208.5 45 L 207 45 L 207 33.7 L 208.5 33.7 C 208.5 33.7 208.53 35.78 208.5 35.8 C 209.1 34.3 210.4 33.6 212.2 33.6 C 212.16 33.58 212.6 33.6 212.6 33.6 L 212.6 35 Z M 215.2 39.7 C 215.2 42.5 217 43.8 219 43.8 C 220.5 43.8 221.9 43.1 222.3 41.5 C 222.3 41.5 223.7 41.5 223.7 41.5 C 223.2 44.1 221 45.2 218.9 45.2 C 216.2 45.2 213.7 43.4 213.7 39.4 C 213.7 35.3 216.2 33.5 218.9 33.5 C 221.6 33.5 223.8 35.2 223.8 39 C 223.79 38.95 223.8 39.7 223.8 39.7 C 223.8 39.7 215.21 39.71 215.2 39.7 Z M 215.2 38.4 C 215.2 38.4 222.2 38.4 222.2 38.4 C 222.2 36.1 220.8 34.9 218.9 34.9 C 217.1 34.9 215.5 36 215.2 38.4 Z M 235.1 30.3 C 233.8 30.3 233.5 30.9 233.5 32 C 233.5 31.96 233.5 33.7 233.5 33.7 L 236 33.7 L 236 35.1 L 233.5 35.1 L 233.5 45 L 232 45 L 232 35.1 L 230.1 35.1 L 230.1 33.7 L 232 33.7 C 232 33.7 231.96 31.92 232 31.9 C 232 29.4 233.3 29 234.8 29 C 234.8 28.98 236.3 29 236.3 29 L 236.3 30.3 C 236.3 30.3 235.05 30.34 235.1 30.3 Z M 243.9 35 C 243.9 35 243.56 35.03 243.6 35 C 241.2 35 239.8 36.4 239.8 39 C 239.82 39 239.8 45 239.8 45 L 238.3 45 L 238.3 33.7 L 239.8 33.7 C 239.8 33.7 239.8 35.78 239.8 35.8 C 240.3 34.3 241.7 33.6 243.4 33.6 C 243.43 33.58 243.9 33.6 243.9 33.6 L 243.9 35 Z M 245 39.4 C 245 35.7 247.2 33.5 250.3 33.5 C 253.4 33.5 255.7 35.7 255.7 39.4 C 255.7 43 253.4 45.2 250.3 45.2 C 247.2 45.2 245 43 245 39.4 Z M 254.1 39.3 C 254.1 36.5 252.4 34.9 250.3 34.9 C 248.1 34.9 246.5 36.6 246.5 39.4 C 246.5 42.2 248.2 43.8 250.3 43.8 C 252.5 43.8 254.1 42.1 254.1 39.3 Z M 258.3 33.7 L 259.8 33.7 C 259.8 33.7 259.79 35.57 259.8 35.6 C 260.4 34.2 261.6 33.5 263.1 33.5 C 264.7 33.5 266 34.4 266.4 35.8 C 266.9 34.6 268.1 33.5 270.1 33.5 C 272.1 33.5 273.8 34.6 273.8 36.9 C 273.75 36.9 273.8 45 273.8 45 L 272.2 45 C 272.2 45 272.22 37.44 272.2 37.4 C 272.2 35.7 271.1 34.9 269.8 34.9 C 268.1 34.9 266.8 36.2 266.8 38.5 C 266.76 38.53 266.8 45 266.8 45 L 265.2 45 C 265.2 45 265.25 37.44 265.2 37.4 C 265.2 35.7 264.2 34.9 262.9 34.9 C 261.2 34.9 259.8 36.1 259.8 38.5 C 259.81 38.53 259.8 45 259.8 45 L 258.3 45 L 258.3 33.7 Z M 290.6 41.8 C 290.6 44.1 288.6 45.2 286.3 45.2 C 283.9 45.2 281.6 44 281.4 41.5 C 281.4 41.5 283.1 41.5 283.1 41.5 C 283.3 43.2 284.8 43.8 286.3 43.8 C 287.8 43.8 289 43.3 289 42 C 289 40.7 287.7 40.4 286.4 40.2 C 284.3 39.8 281.7 39.4 281.7 36.8 C 281.7 34.6 283.6 33.5 285.9 33.5 C 288.3 33.5 290.2 34.6 290.3 36.9 C 290.3 36.9 288.7 36.9 288.7 36.9 C 288.6 35.5 287.3 34.9 285.9 34.9 C 284.3 34.9 283.3 35.6 283.3 36.7 C 283.3 38.2 284.7 38.4 286.4 38.7 C 288.4 39 290.6 39.3 290.6 41.8 Z M 298.3 45 C 298.3 45 296.64 44.98 296.6 45 C 295.2 45 293.8 44.5 293.8 42 C 293.81 42.02 293.8 35.1 293.8 35.1 L 291.6 35.1 L 291.6 33.7 L 293.8 33.7 L 293.8 30.5 L 295.3 30.1 L 295.3 33.7 L 298.1 33.7 L 298.1 35.1 L 295.3 35.1 C 295.3 35.1 295.34 42 295.3 42 C 295.3 43 295.6 43.6 296.9 43.6 C 296.9 43.6 298.3 43.6 298.3 43.6 L 298.3 45 Z M 306.1 35 C 306.1 35 305.78 35.03 305.8 35 C 303.4 35 302 36.4 302 39 C 302.04 39 302 45 302 45 L 300.5 45 L 300.5 33.7 L 302 33.7 C 302 33.7 302.02 35.78 302 35.8 C 302.5 34.3 303.9 33.6 305.7 33.6 C 305.65 33.58 306.1 33.6 306.1 33.6 L 306.1 35 Z M 315.5 45 C 315.5 45 315.54 42.84 315.5 42.8 C 314.8 44.4 313.4 45.1 311.8 45.1 C 309.7 45.1 308 43.8 308 41.2 C 308.03 41.16 308 33.7 308 33.7 L 309.6 33.7 C 309.6 33.7 309.56 40.97 309.6 41 C 309.6 42.8 310.6 43.8 312.1 43.8 C 313.9 43.8 315.5 42.4 315.5 39.5 C 315.48 39.54 315.5 33.7 315.5 33.7 L 317 33.7 L 317 45 L 315.5 45 Z M 324.9 45.2 C 321.8 45.2 319.6 42.9 319.6 39.4 C 319.6 35.8 321.7 33.5 325 33.5 C 327.5 33.5 329.5 34.9 329.7 37.4 C 329.7 37.4 328.2 37.4 328.2 37.4 C 328 35.8 326.6 34.9 325 34.9 C 322.8 34.9 321.2 36.6 321.2 39.3 C 321.2 42.1 322.7 43.8 325 43.8 C 326.7 43.8 328 42.8 328.1 41 C 328.1 41 329.7 41 329.7 41 C 329.5 43.7 327.4 45.2 324.9 45.2 Z M 337.4 45 C 337.4 45 335.77 44.98 335.8 45 C 334.3 45 332.9 44.5 332.9 42 C 332.93 42.02 332.9 35.1 332.9 35.1 L 330.7 35.1 L 330.7 33.7 L 332.9 33.7 L 332.9 30.5 L 334.5 30.1 L 334.5 33.7 L 337.2 33.7 L 337.2 35.1 L 334.5 35.1 C 334.5 35.1 334.46 42 334.5 42 C 334.5 43 334.8 43.6 336 43.6 C 336.02 43.6 337.4 43.6 337.4 43.6 L 337.4 45 Z M 347 45 C 347 45 347.04 42.84 347 42.8 C 346.3 44.4 344.9 45.1 343.3 45.1 C 341.2 45.1 339.5 43.8 339.5 41.2 C 339.52 41.16 339.5 33.7 339.5 33.7 L 341.1 33.7 C 341.1 33.7 341.06 40.97 341.1 41 C 341.1 42.8 342.1 43.8 343.6 43.8 C 345.4 43.8 347 42.4 347 39.5 C 346.98 39.54 347 33.7 347 33.7 L 348.5 33.7 L 348.5 45 L 347 45 Z M 357.5 35 C 357.5 35 357.14 35.03 357.1 35 C 354.7 35 353.4 36.4 353.4 39 C 353.41 39 353.4 45 353.4 45 L 351.9 45 L 351.9 33.7 L 353.4 33.7 C 353.4 33.7 353.38 35.78 353.4 35.8 C 353.9 34.3 355.3 33.6 357 33.6 C 357.02 33.58 357.5 33.6 357.5 33.6 L 357.5 35 Z M 366.4 42.9 C 365.5 44.6 363.8 45.2 362.4 45.2 C 360.5 45.2 358.8 44.1 358.8 41.9 C 358.8 39.8 360.3 38.8 362.2 38.6 C 362.2 38.6 364.9 38.2 364.9 38.2 C 365.7 38.1 366.4 37.8 366.4 36.8 C 366.4 35.5 365.3 34.8 363.7 34.8 C 362 34.8 361 35.6 360.7 36.9 C 360.7 36.9 359.2 36.9 359.2 36.9 C 359.5 34.6 361.3 33.5 363.8 33.5 C 366.4 33.5 367.9 34.7 367.9 37.2 C 367.92 37.19 367.9 45 367.9 45 L 366.4 45 C 366.4 45 366.43 42.92 366.4 42.9 Z M 364.6 39.5 C 364.6 39.5 362.8 39.7 362.8 39.7 C 361.4 39.9 360.3 40.4 360.3 41.8 C 360.3 43.2 361.4 43.8 362.7 43.8 C 364.4 43.8 366.4 42.5 366.4 40.1 C 366.4 40.1 366.4 39 366.4 39 C 366 39.3 365.3 39.4 364.6 39.5 Z M 372.6 45 L 371.1 45 L 371.1 29 L 372.6 29 L 372.6 45 Z " stroke="none" fill="#000"/>  </g>  <g id="Polygon12125">    <path d="M 7.1 20.2 C 3.9 20.2 1.2 18.2 1 14.8 C 1 14.8 2.8 14.8 2.8 14.8 C 2.9 17.5 5 18.7 7.2 18.7 C 9.3 18.7 10.9 17.6 10.9 15.8 C 10.9 13.7 8.7 13.2 6.6 12.7 C 4.1 12 1.6 11.2 1.6 8.1 C 1.6 5.2 3.8 3.7 6.8 3.7 C 9.6 3.7 12.1 5 12.2 8.1 C 12.2 8.1 10.6 8.1 10.6 8.1 C 10.5 6 8.8 5.1 6.8 5.1 C 4.8 5.1 3.2 6.1 3.2 8.1 C 3.2 10.2 5 10.7 7.2 11.3 C 9.8 11.9 12.5 12.6 12.5 15.7 C 12.5 18.6 10.1 20.2 7.1 20.2 Z M 16 14.5 C 16.1 17.3 17.8 18.6 19.8 18.6 C 21.3 18.6 22.8 17.9 23.1 16.3 C 23.1 16.3 24.5 16.3 24.5 16.3 C 24 18.9 21.9 20 19.7 20 C 17 20 14.5 18.2 14.5 14.2 C 14.5 10.1 17.1 8.3 19.8 8.3 C 22.4 8.3 24.6 10 24.6 13.8 C 24.63 13.75 24.6 14.5 24.6 14.5 C 24.6 14.5 16.04 14.51 16 14.5 Z M 16.1 13.2 C 16.1 13.2 23.1 13.2 23.1 13.2 C 23.1 10.9 21.6 9.7 19.7 9.7 C 18 9.7 16.3 10.8 16.1 13.2 Z M 31.8 20 C 28.6 20 26.5 17.7 26.5 14.2 C 26.5 10.6 28.6 8.3 31.9 8.3 C 34.4 8.3 36.4 9.7 36.5 12.2 C 36.5 12.2 35 12.2 35 12.2 C 34.9 10.6 33.5 9.7 31.9 9.7 C 29.7 9.7 28.1 11.4 28.1 14.1 C 28.1 16.9 29.6 18.6 31.8 18.6 C 33.5 18.6 34.9 17.6 35 15.8 C 35 15.8 36.5 15.8 36.5 15.8 C 36.4 18.5 34.3 20 31.8 20 Z M 44.3 19.8 C 44.3 19.8 42.65 19.78 42.7 19.8 C 41.2 19.8 39.8 19.3 39.8 16.8 C 39.82 16.82 39.8 9.9 39.8 9.9 L 37.6 9.9 L 37.6 8.5 L 39.8 8.5 L 39.8 5.3 L 41.3 4.9 L 41.3 8.5 L 44.1 8.5 L 44.1 9.9 L 41.3 9.9 C 41.3 9.9 41.35 16.8 41.3 16.8 C 41.3 17.8 41.6 18.4 42.9 18.4 C 42.9 18.4 44.3 18.4 44.3 18.4 L 44.3 19.8 Z M 45.8 14.2 C 45.8 10.5 48 8.3 51.1 8.3 C 54.2 8.3 56.5 10.5 56.5 14.2 C 56.5 17.8 54.2 20 51.1 20 C 48 20 45.8 17.8 45.8 14.2 Z M 54.9 14.1 C 54.9 11.3 53.2 9.7 51.1 9.7 C 48.9 9.7 47.4 11.4 47.4 14.2 C 47.4 17 49.1 18.6 51.2 18.6 C 53.3 18.6 54.9 16.9 54.9 14.1 Z M 64.7 9.8 C 64.7 9.8 64.36 9.83 64.4 9.8 C 62 9.8 60.6 11.2 60.6 13.8 C 60.63 13.8 60.6 19.8 60.6 19.8 L 59.1 19.8 L 59.1 8.5 L 60.6 8.5 C 60.6 8.5 60.61 10.58 60.6 10.6 C 61.1 9.1 62.5 8.4 64.2 8.4 C 64.24 8.38 64.7 8.4 64.7 8.4 L 64.7 9.8 Z M 75.1 16.6 C 75.1 18.9 73 20 70.7 20 C 68.3 20 66.1 18.8 65.9 16.3 C 65.9 16.3 67.5 16.3 67.5 16.3 C 67.8 18 69.2 18.6 70.8 18.6 C 72.2 18.6 73.5 18.1 73.5 16.8 C 73.5 15.5 72.2 15.2 70.9 15 C 68.7 14.6 66.1 14.2 66.1 11.6 C 66.1 9.4 68.1 8.3 70.4 8.3 C 72.8 8.3 74.7 9.4 74.8 11.7 C 74.8 11.7 73.2 11.7 73.2 11.7 C 73.1 10.3 71.8 9.7 70.3 9.7 C 68.8 9.7 67.7 10.4 67.7 11.5 C 67.7 13 69.1 13.2 70.8 13.5 C 72.8 13.8 75.1 14.1 75.1 16.6 Z M 84.4 19.8 L 82.9 19.8 L 82.9 3.8 L 84.4 3.8 L 84.4 19.8 Z M 89.4 3.8 L 87.7 3.8 L 87.7 5.7 L 89.4 5.7 L 89.4 3.8 Z M 89.3 19.8 L 87.8 19.8 L 87.8 8.5 L 89.3 8.5 L 89.3 19.8 Z M 96.2 14.3 L 94.2 16.4 L 94.2 19.8 L 92.7 19.8 L 92.7 3.8 L 94.2 3.8 L 94.2 14.5 L 99.7 8.5 L 101.7 8.5 L 97.2 13.2 L 102 19.8 L 100.2 19.8 L 96.2 14.3 Z M 104.4 14.5 C 104.4 17.3 106.2 18.6 108.1 18.6 C 109.6 18.6 111.1 17.9 111.4 16.3 C 111.4 16.3 112.9 16.3 112.9 16.3 C 112.4 18.9 110.2 20 108.1 20 C 105.4 20 102.9 18.2 102.9 14.2 C 102.9 10.1 105.4 8.3 108.1 8.3 C 110.8 8.3 113 10 113 13.8 C 112.98 13.75 113 14.5 113 14.5 C 113 14.5 104.39 14.51 104.4 14.5 Z M 104.4 13.2 C 104.4 13.2 111.4 13.2 111.4 13.2 C 111.4 10.9 110 9.7 108.1 9.7 C 106.3 9.7 104.6 10.8 104.4 13.2 Z M 126.5 9.8 C 126.5 9.8 126.12 9.83 126.1 9.8 C 123.7 9.8 122.4 11.2 122.4 13.8 C 122.39 13.8 122.4 19.8 122.4 19.8 L 120.9 19.8 L 120.9 8.5 L 122.4 8.5 C 122.4 8.5 122.37 10.58 122.4 10.6 C 122.9 9.1 124.3 8.4 126 8.4 C 126 8.38 126.5 8.4 126.5 8.4 L 126.5 9.8 Z M 129 14.5 C 129.1 17.3 130.8 18.6 132.8 18.6 C 134.3 18.6 135.8 17.9 136.1 16.3 C 136.1 16.3 137.5 16.3 137.5 16.3 C 137 18.9 134.9 20 132.7 20 C 130 20 127.5 18.2 127.5 14.2 C 127.5 10.1 130.1 8.3 132.8 8.3 C 135.4 8.3 137.6 10 137.6 13.8 C 137.63 13.75 137.6 14.5 137.6 14.5 C 137.6 14.5 129.04 14.51 129 14.5 Z M 129.1 13.2 C 129.1 13.2 136.1 13.2 136.1 13.2 C 136.1 10.9 134.6 9.7 132.7 9.7 C 131 9.7 129.3 10.8 129.1 13.2 Z M 145.4 19.8 C 145.4 19.8 143.74 19.78 143.7 19.8 C 142.3 19.8 140.9 19.3 140.9 16.8 C 140.91 16.82 140.9 9.9 140.9 9.9 L 138.7 9.9 L 138.7 8.5 L 140.9 8.5 L 140.9 5.3 L 142.4 4.9 L 142.4 8.5 L 145.2 8.5 L 145.2 9.9 L 142.4 9.9 C 142.4 9.9 142.44 16.8 142.4 16.8 C 142.4 17.8 142.7 18.4 144 18.4 C 144 18.4 145.4 18.4 145.4 18.4 L 145.4 19.8 Z M 154.5 17.7 C 153.7 19.4 152 20 150.5 20 C 148.6 20 146.9 18.9 146.9 16.7 C 146.9 14.6 148.4 13.6 150.3 13.4 C 150.3 13.4 153 13 153 13 C 153.8 12.9 154.5 12.6 154.5 11.6 C 154.5 10.3 153.4 9.6 151.8 9.6 C 150.1 9.6 149.1 10.4 148.8 11.7 C 148.8 11.7 147.3 11.7 147.3 11.7 C 147.6 9.4 149.4 8.3 151.9 8.3 C 154.5 8.3 156 9.5 156 12 C 156.03 11.99 156 19.8 156 19.8 L 154.5 19.8 C 154.5 19.8 154.54 17.72 154.5 17.7 Z M 152.7 14.3 C 152.7 14.3 150.9 14.5 150.9 14.5 C 149.5 14.7 148.4 15.2 148.4 16.6 C 148.4 18 149.5 18.6 150.8 18.6 C 152.5 18.6 154.5 17.3 154.5 14.9 C 154.5 14.9 154.5 13.8 154.5 13.8 C 154.1 14.1 153.4 14.2 152.7 14.3 Z M 160.8 3.8 L 159.1 3.8 L 159.1 5.7 L 160.8 5.7 L 160.8 3.8 Z M 160.7 19.8 L 159.2 19.8 L 159.2 8.5 L 160.7 8.5 L 160.7 19.8 Z M 165.6 19.8 L 164.1 19.8 L 164.1 3.8 L 165.6 3.8 L 165.6 19.8 Z M 181.6 17.7 C 180.7 19.4 179 20 177.6 20 C 175.6 20 173.9 18.9 173.9 16.7 C 173.9 14.6 175.4 13.6 177.3 13.4 C 177.3 13.4 180 13 180 13 C 180.8 12.9 181.6 12.6 181.6 11.6 C 181.6 10.3 180.4 9.6 178.8 9.6 C 177.1 9.6 176.1 10.4 175.9 11.7 C 175.9 11.7 174.3 11.7 174.3 11.7 C 174.7 9.4 176.5 8.3 178.9 8.3 C 181.5 8.3 183.1 9.5 183.1 12 C 183.05 11.99 183.1 19.8 183.1 19.8 L 181.6 19.8 C 181.6 19.8 181.56 17.72 181.6 17.7 Z M 179.7 14.3 C 179.7 14.3 178 14.5 178 14.5 C 176.5 14.7 175.5 15.2 175.5 16.6 C 175.5 18 176.6 18.6 177.8 18.6 C 179.6 18.6 181.5 17.3 181.5 14.9 C 181.5 14.9 181.5 13.8 181.5 13.8 C 181.1 14.1 180.4 14.2 179.7 14.3 Z M 195.4 12.1 C 195.36 12.05 195.4 19.8 195.4 19.8 L 193.8 19.8 C 193.8 19.8 193.83 12.24 193.8 12.2 C 193.8 10.7 192.9 9.7 191.3 9.7 C 189.4 9.7 187.7 11.1 187.7 13.9 C 187.74 13.86 187.7 19.8 187.7 19.8 L 186.2 19.8 L 186.2 8.5 L 187.7 8.5 C 187.7 8.5 187.74 10.6 187.7 10.6 C 188.4 9.3 189.7 8.3 191.6 8.3 C 193.9 8.3 195.4 9.6 195.4 12.1 Z M 208.4 19.8 L 207 19.8 C 207 19.8 206.95 17.6 207 17.6 C 206.4 18.9 205 20 202.9 20 C 200 20 197.9 17.7 197.9 14.1 C 197.9 10.6 200 8.3 203 8.3 C 204.9 8.3 206.3 9.2 206.9 10.4 C 206.89 10.42 206.9 3.8 206.9 3.8 L 208.4 3.8 L 208.4 19.8 Z M 206.9 14.1 C 206.9 11.3 205.3 9.7 203.2 9.7 C 200.9 9.7 199.5 11.4 199.5 14.1 C 199.5 16.9 201 18.6 203.2 18.6 C 205.3 18.6 206.9 16.9 206.9 14.1 Z M 224.4 17.7 C 223.5 19.4 221.8 20 220.4 20 C 218.4 20 216.7 18.9 216.7 16.7 C 216.7 14.6 218.2 13.6 220.1 13.4 C 220.1 13.4 222.8 13 222.8 13 C 223.6 12.9 224.4 12.6 224.4 11.6 C 224.4 10.3 223.2 9.6 221.7 9.6 C 220 9.6 218.9 10.4 218.7 11.7 C 218.7 11.7 217.2 11.7 217.2 11.7 C 217.5 9.4 219.3 8.3 221.8 8.3 C 224.3 8.3 225.9 9.5 225.9 12 C 225.87 11.99 225.9 19.8 225.9 19.8 L 224.4 19.8 C 224.4 19.8 224.38 17.72 224.4 17.7 Z M 222.5 14.3 C 222.5 14.3 220.8 14.5 220.8 14.5 C 219.4 14.7 218.3 15.2 218.3 16.6 C 218.3 18 219.4 18.6 220.6 18.6 C 222.4 18.6 224.3 17.3 224.3 14.9 C 224.3 14.9 224.3 13.8 224.3 13.8 C 223.9 14.1 223.3 14.2 222.5 14.3 Z M 236.4 19.8 C 236.4 19.8 236.44 17.64 236.4 17.6 C 235.7 19.2 234.3 19.9 232.7 19.9 C 230.6 19.9 228.9 18.6 228.9 16 C 228.92 15.96 228.9 8.5 228.9 8.5 L 230.5 8.5 C 230.5 8.5 230.45 15.77 230.5 15.8 C 230.5 17.6 231.5 18.6 232.9 18.6 C 234.8 18.6 236.4 17.2 236.4 14.3 C 236.37 14.34 236.4 8.5 236.4 8.5 L 237.9 8.5 L 237.9 19.8 L 236.4 19.8 Z M 246.4 19.8 C 246.4 19.8 244.75 19.78 244.8 19.8 C 243.3 19.8 241.9 19.3 241.9 16.8 C 241.92 16.82 241.9 9.9 241.9 9.9 L 239.7 9.9 L 239.7 8.5 L 241.9 8.5 L 241.9 5.3 L 243.4 4.9 L 243.4 8.5 L 246.2 8.5 L 246.2 9.9 L 243.4 9.9 C 243.4 9.9 243.45 16.8 243.4 16.8 C 243.4 17.8 243.7 18.4 245 18.4 C 245 18.4 246.4 18.4 246.4 18.4 L 246.4 19.8 Z M 247.9 14.2 C 247.9 10.5 250.1 8.3 253.2 8.3 C 256.3 8.3 258.6 10.5 258.6 14.2 C 258.6 17.8 256.3 20 253.2 20 C 250.1 20 247.9 17.8 247.9 14.2 Z M 257 14.1 C 257 11.3 255.3 9.7 253.2 9.7 C 251 9.7 249.5 11.4 249.5 14.2 C 249.5 17 251.2 18.6 253.3 18.6 C 255.4 18.6 257 16.9 257 14.1 Z M 261.2 8.5 L 262.7 8.5 C 262.7 8.5 262.71 10.37 262.7 10.4 C 263.3 9 264.6 8.3 266 8.3 C 267.6 8.3 269 9.2 269.3 10.6 C 269.8 9.4 271.1 8.3 273 8.3 C 275.1 8.3 276.7 9.4 276.7 11.7 C 276.67 11.7 276.7 19.8 276.7 19.8 L 275.1 19.8 C 275.1 19.8 275.14 12.24 275.1 12.2 C 275.1 10.5 274.1 9.7 272.7 9.7 C 271.1 9.7 269.7 11 269.7 13.3 C 269.68 13.33 269.7 19.8 269.7 19.8 L 268.2 19.8 C 268.2 19.8 268.17 12.24 268.2 12.2 C 268.2 10.5 267.1 9.7 265.8 9.7 C 264.1 9.7 262.7 10.9 262.7 13.3 C 262.73 13.33 262.7 19.8 262.7 19.8 L 261.2 19.8 L 261.2 8.5 Z M 279.2 14.2 C 279.2 10.5 281.4 8.3 284.5 8.3 C 287.6 8.3 289.9 10.5 289.9 14.2 C 289.9 17.8 287.7 20 284.5 20 C 281.4 20 279.2 17.8 279.2 14.2 Z M 288.3 14.1 C 288.3 11.3 286.6 9.7 284.5 9.7 C 282.3 9.7 280.8 11.4 280.8 14.2 C 280.8 17 282.5 18.6 284.6 18.6 C 286.8 18.6 288.3 16.9 288.3 14.1 Z M 297.6 19.8 C 297.6 19.8 295.99 19.78 296 19.8 C 294.5 19.8 293.2 19.3 293.2 16.8 C 293.16 16.82 293.2 9.9 293.2 9.9 L 290.9 9.9 L 290.9 8.5 L 293.2 8.5 L 293.2 5.3 L 294.7 4.9 L 294.7 8.5 L 297.4 8.5 L 297.4 9.9 L 294.7 9.9 C 294.7 9.9 294.69 16.8 294.7 16.8 C 294.7 17.8 295 18.4 296.2 18.4 C 296.24 18.4 297.6 18.4 297.6 18.4 L 297.6 19.8 Z M 301.5 3.8 L 299.7 3.8 L 299.7 5.7 L 301.5 5.7 L 301.5 3.8 Z M 301.4 19.8 L 299.9 19.8 L 299.9 8.5 L 301.4 8.5 L 301.4 19.8 Z M 309.2 19.8 L 307.6 19.8 L 303.4 8.5 L 305 8.5 L 308.4 18.2 L 311.8 8.5 L 313.4 8.5 L 309.2 19.8 Z M 316 14.5 C 316 17.3 317.7 18.6 319.7 18.6 C 321.2 18.6 322.7 17.9 323 16.3 C 323 16.3 324.5 16.3 324.5 16.3 C 324 18.9 321.8 20 319.7 20 C 317 20 314.5 18.2 314.5 14.2 C 314.5 10.1 317 8.3 319.7 8.3 C 322.4 8.3 324.6 10 324.6 13.8 C 324.57 13.75 324.6 14.5 324.6 14.5 C 324.6 14.5 315.98 14.51 316 14.5 Z M 316 13.2 C 316 13.2 323 13.2 323 13.2 C 323 10.9 321.5 9.7 319.7 9.7 C 317.9 9.7 316.2 10.8 316 13.2 Z M 343.3 19.8 L 341.8 19.8 L 338.9 10.8 L 336 19.8 L 334.4 19.8 L 330.8 8.5 L 332.3 8.5 L 335.2 17.8 L 338.1 8.5 L 339.6 8.5 L 342.6 17.8 L 345.4 8.5 L 347 8.5 L 343.3 19.8 Z M 349.6 14.5 C 349.7 17.3 351.4 18.6 353.4 18.6 C 354.9 18.6 356.4 17.9 356.7 16.3 C 356.7 16.3 358.2 16.3 358.2 16.3 C 357.6 18.9 355.5 20 353.3 20 C 350.6 20 348.1 18.2 348.1 14.2 C 348.1 10.1 350.7 8.3 353.4 8.3 C 356.1 8.3 358.2 10 358.2 13.8 C 358.23 13.75 358.2 14.5 358.2 14.5 C 358.2 14.5 349.65 14.51 349.6 14.5 Z M 349.7 13.2 C 349.7 13.2 356.7 13.2 356.7 13.2 C 356.7 10.9 355.2 9.7 353.3 9.7 C 351.6 9.7 349.9 10.8 349.7 13.2 Z M 366.5 9.8 C 366.5 9.8 366.13 9.83 366.1 9.8 C 363.7 9.8 362.4 11.2 362.4 13.8 C 362.39 13.8 362.4 19.8 362.4 19.8 L 360.9 19.8 L 360.9 8.5 L 362.4 8.5 C 362.4 8.5 362.37 10.58 362.4 10.6 C 362.9 9.1 364.3 8.4 366 8.4 C 366 8.38 366.5 8.4 366.5 8.4 L 366.5 9.8 Z M 369 14.5 C 369.1 17.3 370.8 18.6 372.8 18.6 C 374.3 18.6 375.8 17.9 376.1 16.3 C 376.1 16.3 377.6 16.3 377.6 16.3 C 377.1 18.9 374.9 20 372.7 20 C 370 20 367.5 18.2 367.5 14.2 C 367.5 10.1 370.1 8.3 372.8 8.3 C 375.5 8.3 377.6 10 377.6 13.8 C 377.64 13.75 377.6 14.5 377.6 14.5 C 377.6 14.5 369.05 14.51 369 14.5 Z M 369.1 13.2 C 369.1 13.2 376.1 13.2 376.1 13.2 C 376.1 10.9 374.6 9.7 372.7 9.7 C 371 9.7 369.3 10.8 369.1 13.2 Z " stroke="none" fill="#000"/>  </g></svg>