<?xml version="1.0" standalone="no"?><!DOCTYPE svg PUBLIC "-//W3C//DTD SVG 1.1//EN" "http://www.w3.org/Graphics/SVG/1.1/DTD/svg11.dtd"><svg xmlns="http://www.w3.org/2000/svg" version="1.1" width="320px" height="110.2px" viewBox="0 0 320 110.2">  <desc>Anna Radenovska Head FI Asset Management, VZ Depotbank AG</desc>  <defs/>  <g id="Polygon10391">    <path d="M 8.8 80.2 L 6.9 80.2 L 0.6 62.2 L 2.6 62.2 L 7.8 78 L 13.1 62.2 L 14.9 62.2 L 8.8 80.2 Z M 16.8 78.6 L 28 63.8 L 17.2 63.8 L 17.2 62.2 L 30.2 62.2 L 30.2 63.8 L 19.1 78.6 L 30.4 78.6 L 30.4 80.2 L 16.8 80.2 L 16.8 78.6 Z M 53.6 70.9 C 53.6 75.5 50.7 80.2 44.6 80.2 C 44.62 80.21 39.4 80.2 39.4 80.2 L 39.4 62.2 C 39.4 62.2 44.93 62.21 44.9 62.2 C 50.7 62.2 53.6 66.4 53.6 70.9 Z M 51.7 71 C 51.7 67.3 49.4 63.8 44.8 63.8 C 44.78 63.82 41.2 63.8 41.2 63.8 L 41.2 78.6 C 41.2 78.6 44.64 78.55 44.6 78.6 C 49.4 78.6 51.7 74.8 51.7 71 Z M 57.8 74.2 C 57.8 77.4 59.8 78.9 62.1 78.9 C 63.8 78.9 65.4 78 65.8 76.2 C 65.8 76.2 67.5 76.2 67.5 76.2 C 66.9 79.2 64.4 80.5 62 80.5 C 58.9 80.5 56 78.4 56 73.8 C 56 69.2 58.9 67.1 62 67.1 C 65.1 67.1 67.6 69 67.6 73.3 C 67.58 73.32 67.6 74.2 67.6 74.2 C 67.6 74.2 57.77 74.18 57.8 74.2 Z M 57.8 72.7 C 57.8 72.7 65.8 72.7 65.8 72.7 C 65.8 70.1 64.1 68.6 62 68.6 C 60 68.6 58.1 69.9 57.8 72.7 Z M 82.6 73.7 C 82.6 78.4 79.7 80.3 76.7 80.3 C 74.5 80.3 73.1 79.3 72.3 78 C 72.34 77.98 72.3 85.2 72.3 85.2 L 70.6 85.2 L 70.6 67.3 L 72.3 67.3 C 72.3 67.3 72.29 70.03 72.3 70 C 72.9 68.4 74.5 67.1 76.9 67.1 C 79.7 67.1 82.6 69 82.6 73.7 Z M 80.8 73.8 C 80.8 70.2 78.8 68.8 76.6 68.8 C 74.5 68.8 72.4 70.2 72.4 73.8 C 72.4 77.3 74.4 78.8 76.6 78.8 C 78.7 78.8 80.8 77.3 80.8 73.8 Z M 84.8 73.8 C 84.8 69.6 87.3 67.1 90.9 67.1 C 94.4 67.1 97 69.6 97 73.8 C 97 78 94.4 80.5 90.9 80.5 C 87.3 80.5 84.8 78 84.8 73.8 Z M 95.2 73.7 C 95.2 70.5 93.2 68.7 90.8 68.7 C 88.3 68.7 86.6 70.7 86.6 73.8 C 86.6 77 88.5 78.8 90.9 78.8 C 93.4 78.8 95.2 76.9 95.2 73.7 Z M 105.9 80.2 C 105.9 80.2 103.97 80.21 104 80.2 C 102.3 80.2 100.7 79.7 100.7 76.8 C 100.73 76.82 100.7 68.9 100.7 68.9 L 98.2 68.9 L 98.2 67.3 L 100.7 67.3 L 100.7 63.7 L 102.5 63.2 L 102.5 67.3 L 105.6 67.3 L 105.6 68.9 L 102.5 68.9 C 102.5 68.9 102.48 76.8 102.5 76.8 C 102.5 78 102.8 78.6 104.3 78.6 C 104.25 78.62 105.9 78.6 105.9 78.6 L 105.9 80.2 Z M 120.4 73.7 C 120.4 77.8 118 80.5 114.6 80.5 C 112.3 80.5 110.7 79.2 110.1 77.8 C 110.06 77.83 110.1 80.2 110.1 80.2 L 108.4 80.2 L 108.4 61.9 L 110.1 61.9 C 110.1 61.9 110.13 69.91 110.1 69.9 C 110.8 68.4 112.4 67.1 114.7 67.1 C 118 67.1 120.4 69.6 120.4 73.7 Z M 118.6 73.8 C 118.6 70.6 116.9 68.8 114.4 68.8 C 111.9 68.8 110.1 70.7 110.1 73.9 C 110.1 77 111.9 79 114.4 79 C 116.9 79 118.6 76.9 118.6 73.8 Z M 131.3 77.9 C 130.3 79.8 128.4 80.5 126.7 80.5 C 124.5 80.5 122.6 79.2 122.6 76.6 C 122.6 74.3 124.3 73.2 126.5 72.9 C 126.5 72.9 129.5 72.5 129.5 72.5 C 130.5 72.3 131.3 72 131.3 70.9 C 131.3 69.4 130 68.5 128.2 68.5 C 126.3 68.5 125.1 69.5 124.8 70.9 C 124.8 70.9 123.1 70.9 123.1 70.9 C 123.4 68.4 125.5 67.1 128.3 67.1 C 131.3 67.1 133 68.4 133 71.3 C 133.03 71.3 133 80.2 133 80.2 L 131.3 80.2 C 131.3 80.2 131.33 77.86 131.3 77.9 Z M 129.2 73.9 C 129.2 73.9 127.2 74.2 127.2 74.2 C 125.6 74.4 124.4 75 124.4 76.6 C 124.4 78.2 125.6 78.9 127 78.9 C 129 78.9 131.3 77.4 131.3 74.6 C 131.3 74.6 131.3 73.4 131.3 73.4 C 130.8 73.7 130.1 73.8 129.2 73.9 Z M 147.1 71.4 C 147.09 71.38 147.1 80.2 147.1 80.2 L 145.3 80.2 C 145.3 80.2 145.34 71.59 145.3 71.6 C 145.3 69.8 144.3 68.7 142.5 68.7 C 140.3 68.7 138.4 70.3 138.4 73.4 C 138.38 73.44 138.4 80.2 138.4 80.2 L 136.6 80.2 L 136.6 67.3 L 138.4 67.3 C 138.4 67.3 138.38 69.72 138.4 69.7 C 139.2 68.2 140.6 67.1 142.8 67.1 C 145.4 67.1 147.1 68.5 147.1 71.4 Z M 154.9 73.9 L 152.6 76.4 L 152.6 80.2 L 150.8 80.2 L 150.8 61.9 L 152.6 61.9 L 152.6 74.2 L 158.9 67.3 L 161.2 67.3 L 156.1 72.7 L 161.5 80.2 L 159.4 80.2 L 154.9 73.9 Z M 181 75.1 L 172.5 75.1 L 170.5 80.2 L 168.5 80.2 L 175.7 62.2 L 177.7 62.2 L 185.1 80.2 L 183.1 80.2 L 181 75.1 Z M 176.7 64.3 L 173.1 73.5 L 180.4 73.5 L 176.7 64.3 Z M 202.1 71.2 L 202.1 80.2 L 200.4 80.2 C 200.4 80.2 200.4 77.52 200.4 77.5 C 199.4 79.4 197.2 80.7 194.3 80.7 C 188.9 80.7 186.1 76.2 186.1 71.1 C 186.1 65.5 189.6 61.8 194.6 61.8 C 198.3 61.8 201.7 63.8 202.1 67.6 C 202.1 67.6 200.2 67.6 200.2 67.6 C 199.8 65 197.4 63.5 194.7 63.5 C 190.9 63.5 188 66.4 188 71.1 C 188 75.3 190.2 79 194.5 79 C 197.9 79 200.4 76.7 200.3 72.8 C 200.35 72.84 194.3 72.8 194.3 72.8 L 194.3 71.2 L 202.1 71.2 Z " stroke="none" fill="#000"/>  </g>  <g id="Polygon10390">    <path d="M 15.7 51.4 L 13.8 51.4 L 13.8 43.2 L 4 43.2 L 4 51.4 L 2.2 51.4 L 2.2 33.4 L 4 33.4 L 4 41.5 L 13.8 41.5 L 13.8 33.4 L 15.7 33.4 L 15.7 51.4 Z M 20.6 45.4 C 20.7 48.6 22.7 50.1 24.9 50.1 C 26.6 50.1 28.3 49.2 28.7 47.4 C 28.7 47.4 30.4 47.4 30.4 47.4 C 29.8 50.4 27.3 51.7 24.8 51.7 C 21.8 51.7 18.9 49.6 18.9 45 C 18.9 40.4 21.8 38.3 24.9 38.3 C 28 38.3 30.5 40.2 30.5 44.5 C 30.46 44.52 30.5 45.4 30.5 45.4 C 30.5 45.4 20.64 45.38 20.6 45.4 Z M 20.7 43.9 C 20.7 43.9 28.7 43.9 28.7 43.9 C 28.7 41.3 27 39.8 24.8 39.8 C 22.8 39.8 20.9 41.1 20.7 43.9 Z M 41.4 49.1 C 40.4 51 38.4 51.7 36.8 51.7 C 34.6 51.7 32.6 50.4 32.6 47.8 C 32.6 45.5 34.3 44.4 36.5 44.1 C 36.5 44.1 39.6 43.7 39.6 43.7 C 40.5 43.5 41.4 43.2 41.4 42.1 C 41.4 40.6 40.1 39.7 38.3 39.7 C 36.3 39.7 35.1 40.7 34.9 42.1 C 34.9 42.1 33.1 42.1 33.1 42.1 C 33.5 39.6 35.5 38.3 38.4 38.3 C 41.3 38.3 43.1 39.6 43.1 42.5 C 43.08 42.5 43.1 51.4 43.1 51.4 L 41.4 51.4 C 41.4 51.4 41.38 49.06 41.4 49.1 Z M 39.2 45.1 C 39.2 45.1 37.3 45.4 37.3 45.4 C 35.6 45.6 34.4 46.2 34.4 47.8 C 34.4 49.4 35.7 50.1 37.1 50.1 C 39.1 50.1 41.3 48.6 41.3 45.8 C 41.3 45.8 41.3 44.6 41.3 44.6 C 40.8 44.9 40.1 45 39.2 45.1 Z M 57.9 51.4 L 56.2 51.4 C 56.2 51.4 56.21 48.91 56.2 48.9 C 55.6 50.4 54 51.7 51.6 51.7 C 48.2 51.7 45.8 49 45.8 45 C 45.8 40.9 48.2 38.3 51.6 38.3 C 53.8 38.3 55.4 39.4 56.1 40.7 C 56.14 40.7 56.1 33.1 56.1 33.1 L 57.9 33.1 L 57.9 51.4 Z M 56.1 44.9 C 56.1 41.7 54.3 39.9 51.9 39.9 C 49.3 39.9 47.6 41.8 47.6 45 C 47.6 48.1 49.4 50.1 51.9 50.1 C 54.4 50.1 56.1 48.1 56.1 44.9 Z M 70.3 51.4 L 68.4 51.4 L 68.4 33.4 L 79.7 33.4 L 79.7 35 L 70.3 35 L 70.3 41.5 L 79.2 41.5 L 79.2 43.1 L 70.3 43.1 L 70.3 51.4 Z M 84.2 51.4 L 82.4 51.4 L 82.4 33.4 L 84.2 33.4 L 84.2 51.4 Z M 105.8 46.3 L 97.3 46.3 L 95.3 51.4 L 93.3 51.4 L 100.5 33.4 L 102.5 33.4 L 109.9 51.4 L 107.9 51.4 L 105.8 46.3 Z M 101.5 35.5 L 97.9 44.7 L 105.2 44.7 L 101.5 35.5 Z M 122.3 47.8 C 122.3 50.4 119.9 51.7 117.3 51.7 C 114.6 51.7 112 50.3 111.7 47.4 C 111.7 47.4 113.6 47.4 113.6 47.4 C 113.9 49.3 115.6 50.1 117.3 50.1 C 119 50.1 120.5 49.4 120.5 48 C 120.5 46.5 119 46.2 117.5 45.9 C 115 45.5 112.1 45.1 112.1 42.1 C 112.1 39.5 114.3 38.3 116.9 38.3 C 119.6 38.3 121.8 39.6 121.9 42.1 C 121.9 42.1 120.1 42.1 120.1 42.1 C 120 40.6 118.5 39.8 116.8 39.8 C 115.1 39.8 113.9 40.6 113.9 42 C 113.9 43.6 115.4 43.9 117.4 44.2 C 119.7 44.6 122.3 45 122.3 47.8 Z M 134.7 47.8 C 134.7 50.4 132.4 51.7 129.8 51.7 C 127 51.7 124.5 50.3 124.2 47.4 C 124.2 47.4 126.1 47.4 126.1 47.4 C 126.4 49.3 128 50.1 129.8 50.1 C 131.4 50.1 132.9 49.4 132.9 48 C 132.9 46.5 131.4 46.2 129.9 45.9 C 127.4 45.5 124.5 45.1 124.5 42.1 C 124.5 39.5 126.7 38.3 129.4 38.3 C 132.1 38.3 134.3 39.6 134.4 42.1 C 134.4 42.1 132.6 42.1 132.6 42.1 C 132.5 40.6 131 39.8 129.3 39.8 C 127.5 39.8 126.3 40.6 126.3 42 C 126.3 43.6 127.9 43.9 129.8 44.2 C 132.2 44.6 134.7 45 134.7 47.8 Z M 138.5 45.4 C 138.6 48.6 140.5 50.1 142.8 50.1 C 144.5 50.1 146.2 49.2 146.6 47.4 C 146.6 47.4 148.2 47.4 148.2 47.4 C 147.6 50.4 145.2 51.7 142.7 51.7 C 139.6 51.7 136.8 49.6 136.8 45 C 136.8 40.4 139.7 38.3 142.8 38.3 C 145.8 38.3 148.3 40.2 148.3 44.5 C 148.32 44.52 148.3 45.4 148.3 45.4 C 148.3 45.4 138.5 45.38 138.5 45.4 Z M 138.6 43.9 C 138.6 43.9 146.5 43.9 146.5 43.9 C 146.5 41.3 144.9 39.8 142.7 39.8 C 140.7 39.8 138.8 41.1 138.6 43.9 Z M 157.2 51.4 C 157.2 51.4 155.3 51.41 155.3 51.4 C 153.6 51.4 152.1 50.9 152.1 48 C 152.06 48.02 152.1 40.1 152.1 40.1 L 149.5 40.1 L 149.5 38.5 L 152.1 38.5 L 152.1 34.9 L 153.8 34.4 L 153.8 38.5 L 156.9 38.5 L 156.9 40.1 L 153.8 40.1 C 153.8 40.1 153.81 48 153.8 48 C 153.8 49.2 154.2 49.8 155.6 49.8 C 155.59 49.82 157.2 49.8 157.2 49.8 L 157.2 51.4 Z M 183.2 51.4 L 181.4 51.4 L 181.4 35.8 L 175.4 51.4 L 174 51.4 L 168 35.8 L 168 51.4 L 166.2 51.4 L 166.2 33.4 L 168.9 33.4 L 174.7 48.6 L 180.5 33.4 L 183.2 33.4 L 183.2 51.4 Z M 195.2 49.1 C 194.2 51 192.3 51.7 190.7 51.7 C 188.4 51.7 186.5 50.4 186.5 47.8 C 186.5 45.5 188.2 44.4 190.4 44.1 C 190.4 44.1 193.4 43.7 193.4 43.7 C 194.4 43.5 195.2 43.2 195.2 42.1 C 195.2 40.6 193.9 39.7 192.1 39.7 C 190.2 39.7 189 40.7 188.7 42.1 C 188.7 42.1 187 42.1 187 42.1 C 187.3 39.6 189.4 38.3 192.2 38.3 C 195.2 38.3 196.9 39.6 196.9 42.5 C 196.94 42.5 196.9 51.4 196.9 51.4 L 195.2 51.4 C 195.2 51.4 195.24 49.06 195.2 49.1 Z M 193.1 45.1 C 193.1 45.1 191.1 45.4 191.1 45.4 C 189.5 45.6 188.3 46.2 188.3 47.8 C 188.3 49.4 189.5 50.1 190.9 50.1 C 193 50.1 195.2 48.6 195.2 45.8 C 195.2 45.8 195.2 44.6 195.2 44.6 C 194.7 44.9 194 45 193.1 45.1 Z M 211 42.6 C 211.01 42.58 211 51.4 211 51.4 L 209.3 51.4 C 209.3 51.4 209.25 42.79 209.3 42.8 C 209.3 41 208.2 39.9 206.4 39.9 C 204.2 39.9 202.3 41.5 202.3 44.6 C 202.29 44.64 202.3 51.4 202.3 51.4 L 200.5 51.4 L 200.5 38.5 L 202.3 38.5 C 202.3 38.5 202.29 40.92 202.3 40.9 C 203.1 39.4 204.5 38.3 206.8 38.3 C 209.3 38.3 211 39.7 211 42.6 Z M 222.6 49.1 C 221.6 51 219.7 51.7 218.1 51.7 C 215.9 51.7 213.9 50.4 213.9 47.8 C 213.9 45.5 215.6 44.4 217.8 44.1 C 217.8 44.1 220.8 43.7 220.8 43.7 C 221.8 43.5 222.6 43.2 222.6 42.1 C 222.6 40.6 221.3 39.7 219.5 39.7 C 217.6 39.7 216.4 40.7 216.1 42.1 C 216.1 42.1 214.4 42.1 214.4 42.1 C 214.7 39.6 216.8 38.3 219.6 38.3 C 222.6 38.3 224.3 39.6 224.3 42.5 C 224.35 42.5 224.3 51.4 224.3 51.4 L 222.6 51.4 C 222.6 51.4 222.65 49.06 222.6 49.1 Z M 220.5 45.1 C 220.5 45.1 218.5 45.4 218.5 45.4 C 216.9 45.6 215.7 46.2 215.7 47.8 C 215.7 49.4 216.9 50.1 218.3 50.1 C 220.4 50.1 222.6 48.6 222.6 45.8 C 222.6 45.8 222.6 44.6 222.6 44.6 C 222.1 44.9 221.4 45 220.5 45.1 Z M 239 50.8 C 239 54.7 236.5 56.6 233.2 56.6 C 230.3 56.6 227.8 55.2 227.4 52.2 C 227.4 52.2 229.2 52.2 229.2 52.2 C 229.4 53.8 230.6 55.2 233.2 55.2 C 235.6 55.2 237.4 54 237.4 50.9 C 237.4 50.9 237.4 48.4 237.4 48.4 C 236.4 50.3 234.5 50.9 232.8 50.9 C 229.7 50.9 227.1 48.8 227.1 44.6 C 227.1 40.4 229.8 38.3 232.9 38.3 C 235 38.3 236.5 39.2 237.3 40.6 C 237.31 40.61 237.3 38.5 237.3 38.5 L 239 38.5 C 239 38.5 239.04 50.83 239 50.8 Z M 237.2 44.6 C 237.2 41.3 235.3 39.8 233.1 39.8 C 230.9 39.8 228.8 41.4 228.8 44.6 C 228.8 47.8 230.8 49.3 233.1 49.3 C 235.1 49.3 237.2 48 237.2 44.6 Z M 243.6 45.4 C 243.7 48.6 245.7 50.1 247.9 50.1 C 249.6 50.1 251.3 49.2 251.7 47.4 C 251.7 47.4 253.4 47.4 253.4 47.4 C 252.8 50.4 250.3 51.7 247.8 51.7 C 244.8 51.7 241.9 49.6 241.9 45 C 241.9 40.4 244.8 38.3 247.9 38.3 C 251 38.3 253.5 40.2 253.5 44.5 C 253.46 44.52 253.5 45.4 253.5 45.4 C 253.5 45.4 243.65 45.38 243.6 45.4 Z M 243.7 43.9 C 243.7 43.9 251.7 43.9 251.7 43.9 C 251.7 41.3 250 39.8 247.8 39.8 C 245.8 39.8 243.9 41.1 243.7 43.9 Z M 256.5 38.5 L 258.2 38.5 C 258.2 38.5 258.19 40.66 258.2 40.7 C 258.9 39 260.3 38.3 261.9 38.3 C 263.8 38.3 265.3 39.3 265.7 41 C 266.3 39.5 267.7 38.3 270 38.3 C 272.3 38.3 274.1 39.6 274.1 42.2 C 274.15 42.17 274.1 51.4 274.1 51.4 L 272.4 51.4 C 272.4 51.4 272.4 42.79 272.4 42.8 C 272.4 40.8 271.2 39.8 269.7 39.8 C 267.7 39.8 266.2 41.3 266.2 44 C 266.16 44.04 266.2 51.4 266.2 51.4 L 264.4 51.4 C 264.4 51.4 264.43 42.79 264.4 42.8 C 264.4 40.8 263.3 39.8 261.7 39.8 C 259.8 39.8 258.2 41.3 258.2 44 C 258.21 44.04 258.2 51.4 258.2 51.4 L 256.5 51.4 L 256.5 38.5 Z M 278.8 45.4 C 278.8 48.6 280.8 50.1 283.1 50.1 C 284.8 50.1 286.4 49.2 286.8 47.4 C 286.8 47.4 288.5 47.4 288.5 47.4 C 287.9 50.4 285.4 51.7 283 51.7 C 279.9 51.7 277 49.6 277 45 C 277 40.4 279.9 38.3 283 38.3 C 286.1 38.3 288.6 40.2 288.6 44.5 C 288.57 44.52 288.6 45.4 288.6 45.4 C 288.6 45.4 278.76 45.38 278.8 45.4 Z M 278.8 43.9 C 278.8 43.9 286.8 43.9 286.8 43.9 C 286.8 41.3 285.1 39.8 283 39.8 C 280.9 39.8 279 41.1 278.8 43.9 Z M 302 42.6 C 302.04 42.58 302 51.4 302 51.4 L 300.3 51.4 C 300.3 51.4 300.29 42.79 300.3 42.8 C 300.3 41 299.3 39.9 297.5 39.9 C 295.2 39.9 293.3 41.5 293.3 44.6 C 293.33 44.64 293.3 51.4 293.3 51.4 L 291.6 51.4 L 291.6 38.5 L 293.3 38.5 C 293.3 38.5 293.33 40.92 293.3 40.9 C 294.1 39.4 295.5 38.3 297.8 38.3 C 300.4 38.3 302 39.7 302 42.6 Z M 311.6 51.4 C 311.6 51.4 309.74 51.41 309.7 51.4 C 308 51.4 306.5 50.9 306.5 48 C 306.5 48.02 306.5 40.1 306.5 40.1 L 304 40.1 L 304 38.5 L 306.5 38.5 L 306.5 34.9 L 308.3 34.4 L 308.3 38.5 L 311.4 38.5 L 311.4 40.1 L 308.3 40.1 C 308.3 40.1 308.25 48 308.3 48 C 308.3 49.2 308.6 49.8 310 49.8 C 310.03 49.82 311.6 49.8 311.6 49.8 L 311.6 51.4 Z M 315.4 51.3 C 315.4 51.26 314.3 51.3 314.3 51.3 L 314.3 48.9 L 316.8 48.9 C 316.8 48.9 316.8 51.34 316.8 51.3 C 316.8 54.2 315.1 55.2 313.3 55.4 C 313.3 55.4 313.1 54.3 313.1 54.3 C 315 53.9 315.4 52.8 315.4 51.3 Z " stroke="none" fill="#000"/>  </g>  <g id="Polygon10389">    <path d="M 13.1 18.6 L 5.5 18.6 L 4 22.6 L 0.5 22.6 L 7.4 4.6 L 11.1 4.6 L 18.3 22.6 L 14.6 22.6 L 13.1 18.6 Z M 11.9 15.5 L 9.3 8.4 L 6.6 15.5 L 11.9 15.5 Z M 32 14.1 C 31.97 14.06 32 22.6 32 22.6 L 28.8 22.6 C 28.8 22.6 28.78 14.35 28.8 14.4 C 28.8 12.9 27.9 12 26.4 12 C 24.6 12 23.5 13.3 23.5 15.5 C 23.52 15.46 23.5 22.6 23.5 22.6 L 20.3 22.6 L 20.3 9.4 L 23.5 9.4 C 23.5 9.4 23.5 11.28 23.5 11.3 C 24.2 10.1 25.3 9.1 27.5 9.1 C 30.6 9.1 32 10.9 32 14.1 Z M 46.6 14.1 C 46.61 14.06 46.6 22.6 46.6 22.6 L 43.4 22.6 C 43.4 22.6 43.42 14.35 43.4 14.4 C 43.4 12.9 42.6 12 41.1 12 C 39.3 12 38.2 13.3 38.2 15.5 C 38.16 15.46 38.2 22.6 38.2 22.6 L 35 22.6 L 35 9.4 L 38.1 9.4 C 38.1 9.4 38.14 11.28 38.1 11.3 C 38.9 10.1 40 9.1 42.2 9.1 C 45.2 9.1 46.6 10.9 46.6 14.1 Z M 60.2 13.7 C 60.19 13.7 60.2 22.6 60.2 22.6 L 57.1 22.6 C 57.1 22.6 57.07 20.69 57.1 20.7 C 56 22.4 54.5 22.9 53.1 22.9 C 51 22.9 48.8 21.6 48.8 18.8 C 48.8 16.7 49.9 15.3 53 14.8 C 53 14.8 55.8 14.4 55.8 14.4 C 56.6 14.3 57.2 14 57.2 13.2 C 57.2 12.1 56.2 11.6 55 11.6 C 53.3 11.6 52.5 12.5 52.4 13.6 C 52.4 13.6 49.3 13.6 49.3 13.6 C 49.6 10.5 52.1 9.1 55.1 9.1 C 58.2 9.1 60.2 10.6 60.2 13.7 Z M 57.1 17 C 57.1 17 57.1 16.3 57.1 16.3 C 56.8 16.5 56.2 16.6 55.5 16.7 C 55.5 16.7 54.1 16.9 54.1 16.9 C 52.5 17.1 52 17.8 52 18.6 C 52 19.7 52.7 20.2 53.8 20.2 C 55.5 20.2 57.1 19 57.1 17 Z M 80 22.6 L 75.4 15.4 L 72.6 15.4 L 72.6 22.6 L 69.3 22.6 L 69.3 4.6 C 69.3 4.6 76.34 4.61 76.3 4.6 C 80.4 4.6 82.3 7.2 82.3 9.8 C 82.3 11.9 81.1 14 78.9 14.8 C 78.86 14.78 84 22.6 84 22.6 L 80 22.6 Z M 79 9.9 C 79 8.9 78.3 7.7 76.5 7.7 C 76.49 7.73 72.6 7.7 72.6 7.7 L 72.6 12.4 C 72.6 12.4 76.22 12.36 76.2 12.4 C 78.1 12.4 79 11.2 79 9.9 Z M 96.1 13.7 C 96.14 13.7 96.1 22.6 96.1 22.6 L 93 22.6 C 93 22.6 93.02 20.69 93 20.7 C 92 22.4 90.4 22.9 89 22.9 C 86.9 22.9 84.7 21.6 84.7 18.8 C 84.7 16.7 85.9 15.3 88.9 14.8 C 88.9 14.8 91.8 14.4 91.8 14.4 C 92.6 14.3 93.1 14 93.1 13.2 C 93.1 12.1 92.2 11.6 90.9 11.6 C 89.2 11.6 88.4 12.5 88.3 13.6 C 88.3 13.6 85.2 13.6 85.2 13.6 C 85.6 10.5 88.1 9.1 91.1 9.1 C 94.2 9.1 96.1 10.6 96.1 13.7 Z M 93 17 C 93 17 93 16.3 93 16.3 C 92.7 16.5 92.1 16.6 91.5 16.7 C 91.5 16.7 90 16.9 90 16.9 C 88.4 17.1 87.9 17.8 87.9 18.6 C 87.9 19.7 88.7 20.2 89.8 20.2 C 91.4 20.2 93 19 93 17 Z M 111.2 22.6 L 108.1 22.6 C 108.1 22.6 108.07 20.57 108.1 20.6 C 107.4 22.1 105.8 22.9 104 22.9 C 100.9 22.9 98.2 20.6 98.2 16 C 98.2 11.4 100.9 9.1 104 9.1 C 105.7 9.1 107.2 9.8 108 11.1 C 108 11.11 108 4.3 108 4.3 L 111.2 4.3 L 111.2 22.6 Z M 108.1 16 C 108.1 13.2 106.5 12 104.7 12 C 103 12 101.4 13.3 101.4 16 C 101.4 18.6 103 20 104.7 20 C 106.5 20 108.1 18.7 108.1 16 Z M 116.6 16.9 C 116.6 19.1 118.2 20.1 120 20.1 C 121.2 20.1 122.4 19.6 122.8 18.4 C 122.8 18.4 125.7 18.4 125.7 18.4 C 125.2 21.3 122.5 22.9 119.8 22.9 C 116.6 22.9 113.5 20.7 113.5 16 C 113.5 11.5 116.5 9.1 119.9 9.1 C 123.1 9.1 125.8 11.3 125.8 15.6 C 125.78 15.65 125.8 16.9 125.8 16.9 C 125.8 16.9 116.57 16.94 116.6 16.9 Z M 116.6 14.6 C 116.6 14.6 122.7 14.6 122.7 14.6 C 122.7 12.9 121.4 11.9 119.8 11.9 C 118.3 11.9 116.9 12.7 116.6 14.6 Z M 139.7 14.1 C 139.7 14.06 139.7 22.6 139.7 22.6 L 136.5 22.6 C 136.5 22.6 136.51 14.35 136.5 14.4 C 136.5 12.9 135.7 12 134.2 12 C 132.4 12 131.3 13.3 131.3 15.5 C 131.25 15.46 131.3 22.6 131.3 22.6 L 128.1 22.6 L 128.1 9.4 L 131.2 9.4 C 131.2 9.4 131.23 11.28 131.2 11.3 C 132 10.1 133.1 9.1 135.3 9.1 C 138.3 9.1 139.7 10.9 139.7 14.1 Z M 154.8 16 C 154.8 20.3 152 22.9 148.3 22.9 C 144.6 22.9 141.9 20.3 141.9 16 C 141.9 11.7 144.6 9.1 148.3 9.1 C 152 9.1 154.8 11.7 154.8 16 Z M 145.1 16 C 145.1 18.7 146.6 19.9 148.4 19.9 C 150.3 19.9 151.5 18.5 151.5 16 C 151.5 13.3 150.1 12.1 148.3 12.1 C 146.4 12.1 145.1 13.5 145.1 16 Z M 163.6 22.6 L 160.2 22.6 L 155.3 9.4 L 158.7 9.4 L 161.9 18.8 L 165.2 9.4 L 168.5 9.4 L 163.6 22.6 Z M 180.6 18.5 C 180.6 21.5 178 22.9 175 22.9 C 172.3 22.9 169.3 21.7 169.1 18.4 C 169.1 18.4 172.3 18.4 172.3 18.4 C 172.5 19.7 173.7 20.3 175.2 20.3 C 176.5 20.3 177.5 19.8 177.5 18.8 C 177.5 18 176.9 17.8 175 17.5 C 172.4 17 169.5 16.6 169.5 13.3 C 169.5 10.3 172 9.1 174.7 9.1 C 177.8 9.1 180.1 10.7 180.3 13.6 C 180.3 13.6 177.2 13.6 177.2 13.6 C 177.1 12.3 176.1 11.8 174.8 11.8 C 173.2 11.8 172.6 12.5 172.6 13.2 C 172.6 14.3 173.8 14.5 175.4 14.7 C 177.7 15.1 180.6 15.4 180.6 18.5 Z M 187.5 17.4 L 186 19.1 L 186 22.6 L 182.8 22.6 L 182.8 4.3 L 186 4.3 L 186 14.7 L 190.7 9.4 L 194.9 9.4 L 189.7 15 L 195.1 22.6 L 191.1 22.6 L 187.5 17.4 Z M 207.5 13.7 C 207.45 13.7 207.5 22.6 207.5 22.6 L 204.3 22.6 C 204.3 22.6 204.33 20.69 204.3 20.7 C 203.3 22.4 201.7 22.9 200.3 22.9 C 198.2 22.9 196 21.6 196 18.8 C 196 16.7 197.2 15.3 200.3 14.8 C 200.3 14.8 203.1 14.4 203.1 14.4 C 203.9 14.3 204.5 14 204.5 13.2 C 204.5 12.1 203.5 11.6 202.2 11.6 C 200.5 11.6 199.7 12.5 199.6 13.6 C 199.6 13.6 196.6 13.6 196.6 13.6 C 196.9 10.5 199.4 9.1 202.4 9.1 C 205.5 9.1 207.5 10.6 207.5 13.7 Z M 204.4 17 C 204.4 17 204.4 16.3 204.4 16.3 C 204 16.5 203.4 16.6 202.8 16.7 C 202.8 16.7 201.4 16.9 201.4 16.9 C 199.7 17.1 199.2 17.8 199.2 18.6 C 199.2 19.7 200 20.2 201.1 20.2 C 202.7 20.2 204.4 19 204.4 17 Z " stroke="none" fill="#000"/>  </g></svg>