<?xml version="1.0" standalone="no"?><!DOCTYPE svg PUBLIC "-//W3C//DTD SVG 1.1//EN" "http://www.w3.org/Graphics/SVG/1.1/DTD/svg11.dtd"><svg xmlns="http://www.w3.org/2000/svg" version="1.1" width="294px" height="96.4px" viewBox="0 0 294 96.4">  <desc>Sollten Anleger bestimmte Anlageklassen oder Sektoren meiden</desc>  <defs/>  <g id="Polygon11667">    <path d="M 7.2 70.6 C 4 70.6 0.7 68.8 0.7 64.8 C 0.7 64.8 3.7 64.8 3.7 64.8 C 3.8 67.2 5.5 68.1 7.2 68.1 C 8.7 68.1 10.1 67.3 10.1 66 C 10.1 64.4 8.3 64 6.5 63.6 C 4.2 63.1 1.3 62.3 1.3 58.9 C 1.3 55.6 3.9 54.1 7 54.1 C 9.9 54.1 12.7 55.6 12.7 58.8 C 12.7 58.8 9.8 58.8 9.8 58.8 C 9.7 57.2 8.3 56.6 6.8 56.6 C 5.3 56.6 4.1 57.3 4.1 58.7 C 4.1 60.2 5.6 60.6 7.4 61 C 9.4 61.5 13 62.1 13 65.8 C 13 68.9 10.3 70.6 7.2 70.6 Z M 17.1 65.2 C 17.1 67.1 18.5 68 20.1 68 C 21.1 68 22.2 67.6 22.5 66.5 C 22.5 66.5 25.1 66.5 25.1 66.5 C 24.6 69.1 22.3 70.4 19.9 70.4 C 17.1 70.4 14.4 68.5 14.4 64.4 C 14.4 60.4 17 58.4 19.9 58.4 C 22.8 58.4 25.1 60.2 25.1 64.1 C 25.14 64.09 25.1 65.2 25.1 65.2 C 25.1 65.2 17.07 65.23 17.1 65.2 Z M 17.1 63.2 C 17.1 63.2 22.4 63.2 22.4 63.2 C 22.4 61.7 21.3 60.8 19.9 60.8 C 18.6 60.8 17.4 61.5 17.1 63.2 Z M 31.2 65.7 L 29.9 67.1 L 29.9 70.2 L 27.1 70.2 L 27.1 54.2 L 29.9 54.2 L 29.9 63.3 L 34.1 58.6 L 37.7 58.6 L 33.2 63.6 L 37.9 70.2 L 34.4 70.2 L 31.2 65.7 Z M 45.4 70.2 C 45.4 70.2 43.55 70.18 43.6 70.2 C 41.4 70.2 40 69.5 40 66.4 C 40 66.4 40 61.1 40 61.1 L 37.9 61.1 L 37.9 58.6 L 40 58.6 L 40 56 L 42.8 55.2 L 42.8 58.6 L 45.1 58.6 L 45.1 61.1 L 42.8 61.1 C 42.8 61.1 42.8 66.53 42.8 66.5 C 42.8 67.2 43 67.7 44 67.7 C 43.97 67.7 45.4 67.7 45.4 67.7 L 45.4 70.2 Z M 57.5 64.4 C 57.5 68.2 55.1 70.4 51.9 70.4 C 48.6 70.4 46.2 68.2 46.2 64.4 C 46.2 60.6 48.6 58.4 51.9 58.4 C 55.1 58.4 57.5 60.6 57.5 64.4 Z M 49.1 64.4 C 49.1 66.7 50.4 67.8 51.9 67.8 C 53.6 67.8 54.7 66.6 54.7 64.4 C 54.7 62.1 53.4 61 51.8 61 C 50.2 61 49.1 62.2 49.1 64.4 Z M 66.1 61.2 C 66.1 61.2 65.35 61.17 65.4 61.2 C 63.4 61.2 62.3 62.2 62.3 64.5 C 62.33 64.51 62.3 70.2 62.3 70.2 L 59.5 70.2 L 59.5 58.6 L 62.3 58.6 C 62.3 58.6 62.31 60.25 62.3 60.2 C 62.9 59 64 58.5 65.3 58.5 C 65.33 58.46 66.1 58.5 66.1 58.5 L 66.1 61.2 Z M 69.2 65.2 C 69.3 67.1 70.6 68 72.2 68 C 73.3 68 74.3 67.6 74.7 66.5 C 74.7 66.5 77.2 66.5 77.2 66.5 C 76.7 69.1 74.4 70.4 72.1 70.4 C 69.3 70.4 66.5 68.5 66.5 64.4 C 66.5 60.4 69.1 58.4 72.1 58.4 C 74.9 58.4 77.3 60.2 77.3 64.1 C 77.28 64.09 77.3 65.2 77.3 65.2 C 77.3 65.2 69.22 65.23 69.2 65.2 Z M 69.3 63.2 C 69.3 63.2 74.5 63.2 74.5 63.2 C 74.5 61.7 73.5 60.8 72.1 60.8 C 70.8 60.8 69.5 61.5 69.3 63.2 Z M 89.5 62.7 C 89.46 62.71 89.5 70.2 89.5 70.2 L 86.7 70.2 C 86.7 70.2 86.67 62.96 86.7 63 C 86.7 61.7 85.9 60.9 84.6 60.9 C 83 60.9 82.1 62 82.1 63.9 C 82.07 63.92 82.1 70.2 82.1 70.2 L 79.3 70.2 L 79.3 58.6 L 82 58.6 C 82 58.6 82.05 60.27 82 60.3 C 82.7 59.2 83.6 58.4 85.6 58.4 C 88.2 58.4 89.5 59.9 89.5 62.7 Z M 114.1 62.4 C 114.11 62.37 114.1 70.2 114.1 70.2 L 111.3 70.2 C 111.3 70.2 111.32 62.92 111.3 62.9 C 111.3 61.5 110.7 60.9 109.5 60.9 C 108.2 60.9 107.3 61.7 107.3 63.7 C 107.33 63.67 107.3 70.2 107.3 70.2 L 104.5 70.2 C 104.5 70.2 104.54 62.92 104.5 62.9 C 104.5 61.5 103.8 60.9 102.7 60.9 C 101.4 60.9 100.5 61.7 100.5 63.7 C 100.55 63.65 100.5 70.2 100.5 70.2 L 97.8 70.2 L 97.8 58.6 L 100.5 58.6 C 100.5 58.6 100.5 60.29 100.5 60.3 C 100.9 59.4 101.7 58.4 103.5 58.4 C 105 58.4 106.2 59.1 106.7 60.3 C 107.1 59.5 108 58.4 110.1 58.4 C 112.5 58.4 114.1 59.9 114.1 62.4 Z M 118.7 65.2 C 118.8 67.1 120.1 68 121.7 68 C 122.8 68 123.8 67.6 124.2 66.5 C 124.2 66.5 126.7 66.5 126.7 66.5 C 126.2 69.1 123.9 70.4 121.6 70.4 C 118.8 70.4 116 68.5 116 64.4 C 116 60.4 118.6 58.4 121.6 58.4 C 124.4 58.4 126.8 60.2 126.8 64.1 C 126.78 64.09 126.8 65.2 126.8 65.2 C 126.8 65.2 118.71 65.23 118.7 65.2 Z M 118.8 63.2 C 118.8 63.2 124 63.2 124 63.2 C 124 61.7 123 60.8 121.5 60.8 C 120.3 60.8 119 61.5 118.8 63.2 Z M 128.7 57.1 L 131.6 57.1 L 131.6 53.9 L 128.7 53.9 L 128.7 57.1 Z M 128.7 58.6 L 131.5 58.6 L 131.5 70.2 L 128.7 70.2 L 128.7 58.6 Z M 144.9 70.2 L 142.2 70.2 C 142.2 70.2 142.17 68.4 142.2 68.4 C 141.5 69.7 140.2 70.4 138.6 70.4 C 135.9 70.4 133.5 68.4 133.5 64.4 C 133.5 60.4 135.9 58.4 138.6 58.4 C 140.1 58.4 141.4 59 142.1 60.1 C 142.11 60.12 142.1 54.2 142.1 54.2 L 144.9 54.2 L 144.9 70.2 Z M 142.2 64.4 C 142.2 62 140.8 60.9 139.2 60.9 C 137.7 60.9 136.4 62 136.4 64.4 C 136.4 66.7 137.7 67.9 139.2 67.9 C 140.8 67.9 142.2 66.7 142.2 64.4 Z M 149.6 65.2 C 149.7 67.1 151 68 152.6 68 C 153.7 68 154.7 67.6 155.1 66.5 C 155.1 66.5 157.6 66.5 157.6 66.5 C 157.1 69.1 154.8 70.4 152.5 70.4 C 149.7 70.4 146.9 68.5 146.9 64.4 C 146.9 60.4 149.5 58.4 152.5 58.4 C 155.3 58.4 157.7 60.2 157.7 64.1 C 157.67 64.09 157.7 65.2 157.7 65.2 C 157.7 65.2 149.6 65.23 149.6 65.2 Z M 149.7 63.2 C 149.7 63.2 154.9 63.2 154.9 63.2 C 154.9 61.7 153.9 60.8 152.4 60.8 C 151.2 60.8 149.9 61.5 149.7 63.2 Z M 169.8 62.7 C 169.85 62.71 169.8 70.2 169.8 70.2 L 167.1 70.2 C 167.1 70.2 167.05 62.96 167.1 63 C 167.1 61.7 166.3 60.9 165 60.9 C 163.4 60.9 162.5 62 162.5 63.9 C 162.45 63.92 162.5 70.2 162.5 70.2 L 159.7 70.2 L 159.7 58.6 L 162.4 58.6 C 162.4 58.6 162.43 60.27 162.4 60.3 C 163.1 59.2 164 58.4 166 58.4 C 168.6 58.4 169.8 59.9 169.8 62.7 Z M 175.2 64.6 C 175.2 61.9 176.6 61.4 177.8 60.5 C 178.9 59.8 179.3 59.2 179.3 58.4 C 179.3 57.2 178.5 56.6 177.2 56.6 C 175.8 56.6 174.9 57.4 174.8 58.8 C 174.8 58.8 171.9 58.8 171.9 58.8 C 172.2 55.4 174.7 54.2 177.3 54.2 C 180.1 54.2 182.2 55.5 182.2 58.3 C 182.2 60.5 180.9 61.4 179.5 62.4 C 178.4 63.2 177.9 63.7 177.9 64.6 C 177.91 64.64 177.9 65.3 177.9 65.3 L 175.2 65.3 C 175.2 65.3 175.24 64.55 175.2 64.6 Z M 175 66.9 L 178.2 66.9 L 178.2 70.2 L 175 70.2 L 175 66.9 Z " stroke="none" fill="#000"/>  </g>  <g id="Polygon11666">    <path d="M 11.5 41.5 L 4.8 41.5 L 3.5 45 L 0.4 45 L 6.5 29.2 L 9.7 29.2 L 16 45 L 12.8 45 L 11.5 41.5 Z M 10.4 38.7 L 8.1 32.5 L 5.8 38.7 L 10.4 38.7 Z M 28 37.5 C 27.97 37.51 28 45 28 45 L 25.2 45 C 25.2 45 25.18 37.76 25.2 37.8 C 25.2 36.5 24.4 35.7 23.1 35.7 C 21.5 35.7 20.6 36.8 20.6 38.7 C 20.58 38.72 20.6 45 20.6 45 L 17.8 45 L 17.8 33.4 L 20.6 33.4 C 20.6 33.4 20.56 35.07 20.6 35.1 C 21.2 34 22.2 33.2 24.1 33.2 C 26.7 33.2 28 34.7 28 37.5 Z M 33.4 45 L 30.6 45 L 30.6 29 L 33.4 29 L 33.4 45 Z M 45.4 37.2 C 45.38 37.19 45.4 45 45.4 45 L 42.7 45 C 42.7 45 42.65 43.3 42.7 43.3 C 41.7 44.8 40.4 45.2 39.1 45.2 C 37.3 45.2 35.4 44.1 35.4 41.6 C 35.4 39.8 36.4 38.6 39.1 38.2 C 39.1 38.2 41.6 37.8 41.6 37.8 C 42.3 37.7 42.8 37.5 42.8 36.8 C 42.8 35.8 41.9 35.4 40.8 35.4 C 39.3 35.4 38.6 36.1 38.5 37.1 C 38.5 37.1 35.8 37.1 35.8 37.1 C 36.1 34.4 38.3 33.2 40.9 33.2 C 43.7 33.2 45.4 34.5 45.4 37.2 Z M 42.7 40.1 C 42.7 40.1 42.7 39.5 42.7 39.5 C 42.4 39.6 41.9 39.8 41.3 39.8 C 41.3 39.8 40 40 40 40 C 38.6 40.2 38.2 40.8 38.2 41.5 C 38.2 42.4 38.8 42.9 39.8 42.9 C 41.2 42.9 42.7 41.8 42.7 40.1 Z M 58.3 44.2 C 58.3 47.9 55.9 49.6 52.8 49.6 C 50 49.6 47.7 48.2 47.3 45.3 C 47.3 45.3 50 45.3 50 45.3 C 50.3 46.8 51.5 47.2 52.8 47.2 C 54.6 47.2 55.6 46.3 55.6 44.5 C 55.6 44.5 55.6 42.6 55.6 42.6 C 55.1 43.8 54 44.6 52.2 44.6 C 49.6 44.6 47.2 42.8 47.2 38.9 C 47.2 35 49.6 33.2 52.2 33.2 C 53.9 33.2 55.1 33.9 55.6 35 C 55.65 35.01 55.6 33.4 55.6 33.4 L 58.3 33.4 C 58.3 33.4 58.34 44.2 58.3 44.2 Z M 55.5 38.9 C 55.5 36.7 54.3 35.6 52.8 35.6 C 51.3 35.6 49.9 36.7 49.9 38.9 C 49.9 41.1 51.3 42.1 52.8 42.1 C 54.3 42.1 55.5 41.1 55.5 38.9 Z M 62.9 40 C 63 41.9 64.3 42.8 65.9 42.8 C 67 42.8 68.1 42.4 68.4 41.3 C 68.4 41.3 71 41.3 71 41.3 C 70.5 43.9 68.2 45.2 65.8 45.2 C 63 45.2 60.2 43.3 60.2 39.2 C 60.2 35.2 62.9 33.2 65.8 33.2 C 68.6 33.2 71 35 71 38.9 C 71 38.89 71 40 71 40 C 71 40 62.94 40.03 62.9 40 Z M 63 38 C 63 38 68.3 38 68.3 38 C 68.3 36.5 67.2 35.6 65.8 35.6 C 64.5 35.6 63.3 36.3 63 38 Z M 77.1 40.5 L 75.8 41.9 L 75.8 45 L 73 45 L 73 29 L 75.8 29 L 75.8 38.1 L 79.9 33.4 L 83.6 33.4 L 79 38.4 L 83.7 45 L 80.3 45 L 77.1 40.5 Z M 88.1 45 L 85.3 45 L 85.3 29 L 88.1 29 L 88.1 45 Z M 100.1 37.2 C 100.11 37.19 100.1 45 100.1 45 L 97.4 45 C 97.4 45 97.38 43.3 97.4 43.3 C 96.5 44.8 95.1 45.2 93.9 45.2 C 92 45.2 90.1 44.1 90.1 41.6 C 90.1 39.8 91.1 38.6 93.8 38.2 C 93.8 38.2 96.3 37.8 96.3 37.8 C 97 37.7 97.5 37.5 97.5 36.8 C 97.5 35.8 96.6 35.4 95.5 35.4 C 94 35.4 93.4 36.1 93.3 37.1 C 93.3 37.1 90.6 37.1 90.6 37.1 C 90.9 34.4 93 33.2 95.7 33.2 C 98.4 33.2 100.1 34.5 100.1 37.2 Z M 97.4 40.1 C 97.4 40.1 97.4 39.5 97.4 39.5 C 97.1 39.6 96.6 39.8 96 39.8 C 96 39.8 94.8 40 94.8 40 C 93.4 40.2 92.9 40.8 92.9 41.5 C 92.9 42.4 93.6 42.9 94.5 42.9 C 96 42.9 97.4 41.8 97.4 40.1 Z M 111.9 41.4 C 111.9 44 109.6 45.2 107 45.2 C 104.6 45.2 102 44.2 101.8 41.3 C 101.8 41.3 104.6 41.3 104.6 41.3 C 104.8 42.4 105.8 42.9 107.1 42.9 C 108.3 42.9 109.1 42.5 109.1 41.7 C 109.1 40.9 108.6 40.8 107 40.5 C 104.7 40.1 102.1 39.7 102.1 36.9 C 102.1 34.3 104.3 33.2 106.7 33.2 C 109.5 33.2 111.4 34.5 111.6 37.1 C 111.6 37.1 108.9 37.1 108.9 37.1 C 108.8 36 108 35.5 106.8 35.5 C 105.4 35.5 104.9 36.1 104.9 36.8 C 104.9 37.7 105.9 37.9 107.3 38.1 C 109.4 38.4 111.9 38.7 111.9 41.4 Z M 123 41.4 C 123 44 120.7 45.2 118.1 45.2 C 115.7 45.2 113.1 44.2 112.9 41.3 C 112.9 41.3 115.8 41.3 115.8 41.3 C 115.9 42.4 117 42.9 118.3 42.9 C 119.4 42.9 120.3 42.5 120.3 41.7 C 120.3 40.9 119.7 40.8 118.1 40.5 C 115.9 40.1 113.3 39.7 113.3 36.9 C 113.3 34.3 115.5 33.2 117.9 33.2 C 120.6 33.2 122.6 34.5 122.8 37.1 C 122.8 37.1 120 37.1 120 37.1 C 119.9 36 119.1 35.5 117.9 35.5 C 116.5 35.5 116 36.1 116 36.8 C 116 37.7 117 37.9 118.4 38.1 C 120.5 38.4 123 38.7 123 41.4 Z M 126.9 40 C 127 41.9 128.3 42.8 129.9 42.8 C 131 42.8 132 42.4 132.4 41.3 C 132.4 41.3 134.9 41.3 134.9 41.3 C 134.4 43.9 132.1 45.2 129.8 45.2 C 127 45.2 124.2 43.3 124.2 39.2 C 124.2 35.2 126.8 33.2 129.8 33.2 C 132.6 33.2 135 35 135 38.9 C 134.96 38.89 135 40 135 40 C 135 40 126.9 40.03 126.9 40 Z M 127 38 C 127 38 132.2 38 132.2 38 C 132.2 36.5 131.2 35.6 129.7 35.6 C 128.5 35.6 127.2 36.3 127 38 Z M 147.1 37.5 C 147.14 37.51 147.1 45 147.1 45 L 144.4 45 C 144.4 45 144.35 37.76 144.4 37.8 C 144.4 36.5 143.6 35.7 142.3 35.7 C 140.7 35.7 139.8 36.8 139.8 38.7 C 139.75 38.72 139.8 45 139.8 45 L 137 45 L 137 33.4 L 139.7 33.4 C 139.7 33.4 139.73 35.07 139.7 35.1 C 140.4 34 141.3 33.2 143.3 33.2 C 145.9 33.2 147.1 34.7 147.1 37.5 Z M 165.6 39.2 C 165.6 43 163.2 45.2 159.9 45.2 C 156.7 45.2 154.3 43 154.3 39.2 C 154.3 35.4 156.7 33.2 159.9 33.2 C 163.2 33.2 165.6 35.4 165.6 39.2 Z M 157.1 39.2 C 157.1 41.5 158.4 42.6 160 42.6 C 161.6 42.6 162.7 41.4 162.7 39.2 C 162.7 36.9 161.5 35.8 159.9 35.8 C 158.3 35.8 157.1 37 157.1 39.2 Z M 178.2 45 L 175.5 45 C 175.5 45 175.52 43.2 175.5 43.2 C 174.9 44.5 173.5 45.2 171.9 45.2 C 169.2 45.2 166.9 43.2 166.9 39.2 C 166.9 35.2 169.2 33.2 171.9 33.2 C 173.5 33.2 174.8 33.8 175.5 34.9 C 175.45 34.92 175.5 29 175.5 29 L 178.2 29 L 178.2 45 Z M 175.5 39.2 C 175.5 36.8 174.1 35.7 172.6 35.7 C 171.1 35.7 169.7 36.8 169.7 39.2 C 169.7 41.5 171.1 42.7 172.6 42.7 C 174.1 42.7 175.5 41.5 175.5 39.2 Z M 182.9 40 C 183 41.9 184.4 42.8 185.9 42.8 C 187 42.8 188.1 42.4 188.4 41.3 C 188.4 41.3 191 41.3 191 41.3 C 190.5 43.9 188.2 45.2 185.8 45.2 C 183 45.2 180.2 43.3 180.2 39.2 C 180.2 35.2 182.9 33.2 185.8 33.2 C 188.6 33.2 191 35 191 38.9 C 191.01 38.89 191 40 191 40 C 191 40 182.95 40.03 182.9 40 Z M 183 38 C 183 38 188.3 38 188.3 38 C 188.3 36.5 187.2 35.6 185.8 35.6 C 184.5 35.6 183.3 36.3 183 38 Z M 199.6 36 C 199.6 36 198.83 35.97 198.8 36 C 196.9 36 195.8 37 195.8 39.3 C 195.8 39.31 195.8 45 195.8 45 L 193 45 L 193 33.4 L 195.8 33.4 C 195.8 33.4 195.78 35.05 195.8 35 C 196.4 33.8 197.4 33.3 198.8 33.3 C 198.8 33.26 199.6 33.3 199.6 33.3 L 199.6 36 Z " stroke="none" fill="#000"/>  </g>  <g id="Polygon11665">    <path d="M 7.2 20.2 C 4 20.2 0.7 18.4 0.7 14.4 C 0.7 14.4 3.7 14.4 3.7 14.4 C 3.8 16.8 5.5 17.7 7.2 17.7 C 8.7 17.7 10.1 16.9 10.1 15.6 C 10.1 14 8.3 13.6 6.5 13.2 C 4.2 12.7 1.3 11.9 1.3 8.5 C 1.3 5.2 3.9 3.7 7 3.7 C 9.9 3.7 12.7 5.2 12.7 8.4 C 12.7 8.4 9.8 8.4 9.8 8.4 C 9.7 6.8 8.3 6.2 6.8 6.2 C 5.3 6.2 4.1 6.9 4.1 8.3 C 4.1 9.8 5.6 10.2 7.4 10.6 C 9.4 11.1 13 11.7 13 15.4 C 13 18.5 10.3 20.2 7.2 20.2 Z M 25.7 14 C 25.7 17.8 23.3 20 20 20 C 16.8 20 14.4 17.8 14.4 14 C 14.4 10.2 16.8 8 20 8 C 23.3 8 25.7 10.2 25.7 14 Z M 17.2 14 C 17.2 16.3 18.5 17.4 20.1 17.4 C 21.7 17.4 22.8 16.2 22.8 14 C 22.8 11.7 21.5 10.6 20 10.6 C 18.3 10.6 17.2 11.8 17.2 14 Z M 30.5 19.8 L 27.7 19.8 L 27.7 3.8 L 30.5 3.8 L 30.5 19.8 Z M 36 19.8 L 33.2 19.8 L 33.2 3.8 L 36 3.8 L 36 19.8 Z M 44.6 19.8 C 44.6 19.8 42.82 19.78 42.8 19.8 C 40.7 19.8 39.3 19.1 39.3 16 C 39.27 16 39.3 10.7 39.3 10.7 L 37.1 10.7 L 37.1 8.2 L 39.3 8.2 L 39.3 5.6 L 42.1 4.8 L 42.1 8.2 L 44.4 8.2 L 44.4 10.7 L 42.1 10.7 C 42.1 10.7 42.06 16.13 42.1 16.1 C 42.1 16.8 42.3 17.3 43.2 17.3 C 43.24 17.3 44.6 17.3 44.6 17.3 L 44.6 19.8 Z M 48.2 14.8 C 48.3 16.7 49.6 17.6 51.2 17.6 C 52.3 17.6 53.3 17.2 53.7 16.1 C 53.7 16.1 56.2 16.1 56.2 16.1 C 55.7 18.7 53.4 20 51.1 20 C 48.3 20 45.5 18.1 45.5 14 C 45.5 10 48.1 8 51.1 8 C 53.9 8 56.3 9.8 56.3 13.7 C 56.26 13.69 56.3 14.8 56.3 14.8 C 56.3 14.8 48.19 14.83 48.2 14.8 Z M 48.3 12.8 C 48.3 12.8 53.5 12.8 53.5 12.8 C 53.5 11.3 52.5 10.4 51 10.4 C 49.7 10.4 48.5 11.1 48.3 12.8 Z M 68.4 12.3 C 68.44 12.31 68.4 19.8 68.4 19.8 L 65.6 19.8 C 65.6 19.8 65.65 12.56 65.6 12.6 C 65.6 11.3 64.9 10.5 63.6 10.5 C 62 10.5 61 11.6 61 13.5 C 61.05 13.52 61 19.8 61 19.8 L 58.3 19.8 L 58.3 8.2 L 61 8.2 C 61 8.2 61.03 9.87 61 9.9 C 61.7 8.8 62.6 8 64.6 8 C 67.2 8 68.4 9.5 68.4 12.3 Z M 86.4 16.3 L 79.8 16.3 L 78.5 19.8 L 75.4 19.8 L 81.4 4 L 84.7 4 L 90.9 19.8 L 87.7 19.8 L 86.4 16.3 Z M 85.4 13.5 L 83.1 7.3 L 80.8 13.5 L 85.4 13.5 Z M 102.9 12.3 C 102.92 12.31 102.9 19.8 102.9 19.8 L 100.1 19.8 C 100.1 19.8 100.13 12.56 100.1 12.6 C 100.1 11.3 99.4 10.5 98.1 10.5 C 96.5 10.5 95.5 11.6 95.5 13.5 C 95.53 13.52 95.5 19.8 95.5 19.8 L 92.7 19.8 L 92.7 8.2 L 95.5 8.2 C 95.5 8.2 95.51 9.87 95.5 9.9 C 96.2 8.8 97.1 8 99 8 C 101.7 8 102.9 9.5 102.9 12.3 Z M 108.3 19.8 L 105.5 19.8 L 105.5 3.8 L 108.3 3.8 L 108.3 19.8 Z M 113 14.8 C 113.1 16.7 114.4 17.6 116 17.6 C 117.1 17.6 118.2 17.2 118.5 16.1 C 118.5 16.1 121.1 16.1 121.1 16.1 C 120.6 18.7 118.3 20 115.9 20 C 113.1 20 110.3 18.1 110.3 14 C 110.3 10 113 8 115.9 8 C 118.7 8 121.1 9.8 121.1 13.7 C 121.11 13.69 121.1 14.8 121.1 14.8 C 121.1 14.8 113.04 14.83 113 14.8 Z M 113.1 12.8 C 113.1 12.8 118.4 12.8 118.4 12.8 C 118.4 11.3 117.3 10.4 115.9 10.4 C 114.6 10.4 113.4 11.1 113.1 12.8 Z M 133.5 19 C 133.5 22.7 131.1 24.4 128 24.4 C 125.2 24.4 122.9 23 122.5 20.1 C 122.5 20.1 125.2 20.1 125.2 20.1 C 125.5 21.6 126.7 22 128 22 C 129.8 22 130.8 21.1 130.8 19.3 C 130.8 19.3 130.8 17.4 130.8 17.4 C 130.3 18.6 129.2 19.4 127.4 19.4 C 124.8 19.4 122.4 17.6 122.4 13.7 C 122.4 9.8 124.8 8 127.4 8 C 129.1 8 130.3 8.7 130.8 9.8 C 130.85 9.81 130.8 8.2 130.8 8.2 L 133.5 8.2 C 133.5 8.2 133.54 19 133.5 19 Z M 130.7 13.7 C 130.7 11.5 129.5 10.4 128 10.4 C 126.5 10.4 125.1 11.5 125.1 13.7 C 125.1 15.9 126.5 16.9 128 16.9 C 129.5 16.9 130.7 15.9 130.7 13.7 Z M 138.1 14.8 C 138.2 16.7 139.5 17.6 141.1 17.6 C 142.2 17.6 143.3 17.2 143.6 16.1 C 143.6 16.1 146.2 16.1 146.2 16.1 C 145.7 18.7 143.4 20 141 20 C 138.2 20 135.4 18.1 135.4 14 C 135.4 10 138.1 8 141 8 C 143.8 8 146.2 9.8 146.2 13.7 C 146.2 13.69 146.2 14.8 146.2 14.8 C 146.2 14.8 138.14 14.83 138.1 14.8 Z M 138.2 12.8 C 138.2 12.8 143.5 12.8 143.5 12.8 C 143.5 11.3 142.4 10.4 141 10.4 C 139.7 10.4 138.5 11.1 138.2 12.8 Z M 154.7 10.8 C 154.7 10.8 154.01 10.77 154 10.8 C 152.1 10.8 151 11.8 151 14.1 C 150.99 14.11 151 19.8 151 19.8 L 148.2 19.8 L 148.2 8.2 L 151 8.2 C 151 8.2 150.97 9.85 151 9.8 C 151.6 8.6 152.6 8.1 154 8.1 C 153.99 8.06 154.7 8.1 154.7 8.1 L 154.7 10.8 Z M 172.5 14 C 172.5 18.1 170 20 167.3 20 C 165.9 20 164.6 19.5 163.9 18.4 C 163.88 18.4 163.9 19.8 163.9 19.8 L 161.2 19.8 L 161.2 3.8 L 163.9 3.8 C 163.9 3.8 163.94 9.89 163.9 9.9 C 164.6 8.7 165.9 8 167.5 8 C 170.2 8 172.5 10 172.5 14 Z M 169.7 14 C 169.7 11.7 168.3 10.5 166.8 10.5 C 165.3 10.5 163.9 11.7 163.9 14 C 163.9 16.4 165.3 17.6 166.8 17.6 C 168.3 17.6 169.7 16.4 169.7 14 Z M 176.5 14.8 C 176.6 16.7 177.9 17.6 179.5 17.6 C 180.6 17.6 181.6 17.2 182 16.1 C 182 16.1 184.5 16.1 184.5 16.1 C 184 18.7 181.7 20 179.4 20 C 176.6 20 173.8 18.1 173.8 14 C 173.8 10 176.4 8 179.4 8 C 182.2 8 184.6 9.8 184.6 13.7 C 184.57 13.69 184.6 14.8 184.6 14.8 C 184.6 14.8 176.5 14.83 176.5 14.8 Z M 176.6 12.8 C 176.6 12.8 181.8 12.8 181.8 12.8 C 181.8 11.3 180.8 10.4 179.3 10.4 C 178.1 10.4 176.8 11.1 176.6 12.8 Z M 195.8 16.2 C 195.8 18.8 193.5 20 190.9 20 C 188.5 20 185.9 19 185.7 16.1 C 185.7 16.1 188.5 16.1 188.5 16.1 C 188.7 17.2 189.8 17.7 191.1 17.7 C 192.2 17.7 193.1 17.3 193.1 16.5 C 193.1 15.7 192.5 15.6 190.9 15.3 C 188.7 14.9 186.1 14.5 186.1 11.7 C 186.1 9.1 188.3 8 190.7 8 C 193.4 8 195.4 9.3 195.5 11.9 C 195.5 11.9 192.8 11.9 192.8 11.9 C 192.7 10.8 191.9 10.3 190.7 10.3 C 189.3 10.3 188.8 10.9 188.8 11.6 C 188.8 12.5 189.8 12.7 191.2 12.9 C 193.3 13.2 195.8 13.5 195.8 16.2 Z M 203.6 19.8 C 203.6 19.8 201.81 19.78 201.8 19.8 C 199.6 19.8 198.3 19.1 198.3 16 C 198.26 16 198.3 10.7 198.3 10.7 L 196.1 10.7 L 196.1 8.2 L 198.3 8.2 L 198.3 5.6 L 201.1 4.8 L 201.1 8.2 L 203.4 8.2 L 203.4 10.7 L 201.1 10.7 C 201.1 10.7 201.05 16.13 201.1 16.1 C 201.1 16.8 201.2 17.3 202.2 17.3 C 202.23 17.3 203.6 17.3 203.6 17.3 L 203.6 19.8 Z M 205.1 6.7 L 208.1 6.7 L 208.1 3.5 L 205.1 3.5 L 205.1 6.7 Z M 205.2 8.2 L 208 8.2 L 208 19.8 L 205.2 19.8 L 205.2 8.2 Z M 227 12 C 227.05 11.97 227 19.8 227 19.8 L 224.3 19.8 C 224.3 19.8 224.26 12.52 224.3 12.5 C 224.3 11.1 223.6 10.5 222.4 10.5 C 221.1 10.5 220.3 11.3 220.3 13.3 C 220.27 13.27 220.3 19.8 220.3 19.8 L 217.5 19.8 C 217.5 19.8 217.47 12.52 217.5 12.5 C 217.5 11.1 216.8 10.5 215.6 10.5 C 214.3 10.5 213.5 11.3 213.5 13.3 C 213.48 13.25 213.5 19.8 213.5 19.8 L 210.7 19.8 L 210.7 8.2 L 213.4 8.2 C 213.4 8.2 213.44 9.89 213.4 9.9 C 213.8 9 214.7 8 216.4 8 C 217.9 8 219.1 8.7 219.6 9.9 C 220.1 9.1 220.9 8 223 8 C 225.5 8 227 9.5 227 12 Z M 246 12 C 246.03 11.97 246 19.8 246 19.8 L 243.2 19.8 C 243.2 19.8 243.24 12.52 243.2 12.5 C 243.2 11.1 242.6 10.5 241.4 10.5 C 240.1 10.5 239.2 11.3 239.2 13.3 C 239.25 13.27 239.2 19.8 239.2 19.8 L 236.5 19.8 C 236.5 19.8 236.46 12.52 236.5 12.5 C 236.5 11.1 235.8 10.5 234.6 10.5 C 233.3 10.5 232.5 11.3 232.5 13.3 C 232.47 13.25 232.5 19.8 232.5 19.8 L 229.7 19.8 L 229.7 8.2 L 232.4 8.2 C 232.4 8.2 232.42 9.89 232.4 9.9 C 232.8 9 233.7 8 235.4 8 C 236.9 8 238.1 8.7 238.6 9.9 C 239.1 9.1 239.9 8 242 8 C 244.5 8 246 9.5 246 12 Z M 254.6 19.8 C 254.6 19.8 252.75 19.78 252.8 19.8 C 250.6 19.8 249.2 19.1 249.2 16 C 249.2 16 249.2 10.7 249.2 10.7 L 247.1 10.7 L 247.1 8.2 L 249.2 8.2 L 249.2 5.6 L 252 4.8 L 252 8.2 L 254.3 8.2 L 254.3 10.7 L 252 10.7 C 252 10.7 252 16.13 252 16.1 C 252 16.8 252.2 17.3 253.2 17.3 C 253.17 17.3 254.6 17.3 254.6 17.3 L 254.6 19.8 Z M 258.1 14.8 C 258.2 16.7 259.5 17.6 261.1 17.6 C 262.2 17.6 263.3 17.2 263.6 16.1 C 263.6 16.1 266.2 16.1 266.2 16.1 C 265.6 18.7 263.4 20 261 20 C 258.2 20 255.4 18.1 255.4 14 C 255.4 10 258 8 261 8 C 263.8 8 266.2 9.8 266.2 13.7 C 266.19 13.69 266.2 14.8 266.2 14.8 C 266.2 14.8 258.13 14.83 258.1 14.8 Z M 258.2 12.8 C 258.2 12.8 263.5 12.8 263.5 12.8 C 263.5 11.3 262.4 10.4 261 10.4 C 259.7 10.4 258.4 11.1 258.2 12.8 Z " stroke="none" fill="#000"/>  </g></svg>