<?xml version="1.0" standalone="no"?><!DOCTYPE svg PUBLIC "-//W3C//DTD SVG 1.1//EN" "http://www.w3.org/Graphics/SVG/1.1/DTD/svg11.dtd"><svg xmlns="http://www.w3.org/2000/svg" version="1.1" width="193.1px" height="133.6px" viewBox="0 -11 193.1 133.6" style="top:-11px"><desc>70%</desc><defs/><g id="Polygon10094"><path d="m43.5 25.5L21.2 71.6H10.8l22.2-46H2.1v-10h41.4v9.9zm5 18.2c0-17.6 6.1-29.1 19.9-29.1c13.8 0 19.9 11.5 19.9 28.9c0 17.6-6.3 29-20.1 29c-13.7 0-19.7-11.4-19.7-28.8zm29.7.2c0-11.2-2.9-20.3-10-20.3c-6.5 0-9.6 7.3-9.6 19.6c0 12.5 3.3 20.4 9.9 20.4c6.7 0 9.7-8.3 9.7-19.7zm28-31.2c8.5 0 14.7 5.8 14.7 14.4c0 8.5-6.2 14.5-14.7 14.5c-8 0-14.2-6-14.2-14.5c0-8.6 6.2-14.4 14.2-14.4zm4.5 58.9h-6l35.9-57h6.1l-36 57zm-4.3-52.4c-4.5 0-7.5 3.1-7.5 7.9c0 4.7 3 8 7.5 8c4.4 0 7.6-3.3 7.6-8c0-4.8-3.2-7.9-7.6-7.9zM143 44.8c8.4 0 14.6 5.8 14.6 14.5c0 8.5-6.2 14.5-14.6 14.5c-8.1 0-14.3-6-14.3-14.5c0-8.7 6.2-14.5 14.3-14.5zm.1 6.5c-4.5 0-7.5 3.2-7.5 7.9c0 4.8 3 8.1 7.5 8.1c4.4 0 7.6-3.3 7.6-8.1c0-4.7-3.2-7.9-7.6-7.9z" stroke="none" fill="#000"/></g></svg>