<?xml version="1.0" standalone="no"?><!DOCTYPE svg PUBLIC "-//W3C//DTD SVG 1.1//EN" "http://www.w3.org/Graphics/SVG/1.1/DTD/svg11.dtd"><svg xmlns="http://www.w3.org/2000/svg" version="1.1" width="387px" height="132.4px" viewBox="0 -4 387 132.4" style="top:-4px">  <desc>Are there certain asset classes sectors that investors should avoid</desc>  <defs/>  <g id="Polygon11700">    <path d="M 10.6 41.4 C 10.6 44 8.3 45.2 5.7 45.2 C 3.3 45.2 0.7 44.2 0.5 41.3 C 0.5 41.3 3.3 41.3 3.3 41.3 C 3.5 42.4 4.6 42.9 5.9 42.9 C 7 42.9 7.9 42.5 7.9 41.7 C 7.9 40.9 7.3 40.8 5.7 40.5 C 3.5 40.1 0.9 39.7 0.9 36.9 C 0.9 34.3 3.1 33.2 5.5 33.2 C 8.2 33.2 10.2 34.5 10.4 37.1 C 10.4 37.1 7.6 37.1 7.6 37.1 C 7.5 36 6.7 35.5 5.5 35.5 C 4.1 35.5 3.6 36.1 3.6 36.8 C 3.6 37.7 4.6 37.9 6 38.1 C 8.1 38.4 10.6 38.7 10.6 41.4 Z M 14.5 40 C 14.6 41.9 15.9 42.8 17.5 42.8 C 18.6 42.8 19.6 42.4 19.9 41.3 C 19.9 41.3 22.5 41.3 22.5 41.3 C 22 43.9 19.7 45.2 17.3 45.2 C 14.6 45.2 11.8 43.3 11.8 39.2 C 11.8 35.2 14.4 33.2 17.4 33.2 C 20.2 33.2 22.6 35 22.6 38.9 C 22.55 38.89 22.6 40 22.6 40 C 22.6 40 14.49 40.03 14.5 40 Z M 14.6 38 C 14.6 38 19.8 38 19.8 38 C 19.8 36.5 18.8 35.6 17.3 35.6 C 16 35.6 14.8 36.3 14.6 38 Z M 29.4 45.2 C 25.6 45.2 23.8 42.3 23.8 39.2 C 23.8 36.1 25.6 33.2 29.4 33.2 C 32.3 33.2 34.4 34.8 34.5 37.6 C 34.5 37.6 31.8 37.6 31.8 37.6 C 31.7 36.5 30.9 35.7 29.5 35.7 C 27.5 35.7 26.6 37.4 26.6 39.2 C 26.6 41.1 27.5 42.6 29.5 42.6 C 30.8 42.6 31.6 41.9 31.8 40.9 C 31.8 40.9 34.6 40.9 34.6 40.9 C 34.3 43.7 32.2 45.2 29.4 45.2 Z M 42.5 45 C 42.5 45 40.72 44.98 40.7 45 C 38.6 45 37.2 44.3 37.2 41.2 C 37.17 41.2 37.2 35.9 37.2 35.9 L 35 35.9 L 35 33.4 L 37.2 33.4 L 37.2 30.8 L 40 30 L 40 33.4 L 42.3 33.4 L 42.3 35.9 L 40 35.9 C 40 35.9 39.96 41.33 40 41.3 C 40 42 40.2 42.5 41.1 42.5 C 41.14 42.5 42.5 42.5 42.5 42.5 L 42.5 45 Z M 54.7 39.2 C 54.7 43 52.3 45.2 49 45.2 C 45.8 45.2 43.4 43 43.4 39.2 C 43.4 35.4 45.8 33.2 49 33.2 C 52.3 33.2 54.7 35.4 54.7 39.2 Z M 46.2 39.2 C 46.2 41.5 47.5 42.6 49.1 42.6 C 50.7 42.6 51.8 41.4 51.8 39.2 C 51.8 36.9 50.6 35.8 49 35.8 C 47.4 35.8 46.2 37 46.2 39.2 Z M 63.3 36 C 63.3 36 62.52 35.97 62.5 36 C 60.6 36 59.5 37 59.5 39.3 C 59.49 39.31 59.5 45 59.5 45 L 56.7 45 L 56.7 33.4 L 59.5 33.4 C 59.5 33.4 59.47 35.05 59.5 35 C 60.1 33.8 61.1 33.3 62.5 33.3 C 62.5 33.26 63.3 33.3 63.3 33.3 L 63.3 36 Z M 73.9 41.4 C 73.9 44 71.6 45.2 69 45.2 C 66.6 45.2 64 44.2 63.8 41.3 C 63.8 41.3 66.6 41.3 66.6 41.3 C 66.8 42.4 67.8 42.9 69.1 42.9 C 70.3 42.9 71.1 42.5 71.1 41.7 C 71.1 40.9 70.6 40.8 69 40.5 C 66.7 40.1 64.1 39.7 64.1 36.9 C 64.1 34.3 66.3 33.2 68.7 33.2 C 71.4 33.2 73.4 34.5 73.6 37.1 C 73.6 37.1 70.9 37.1 70.9 37.1 C 70.8 36 70 35.5 68.8 35.5 C 67.4 35.5 66.8 36.1 66.8 36.8 C 66.8 37.7 67.9 37.9 69.3 38.1 C 71.4 38.4 73.9 38.7 73.9 41.4 Z M 86.7 45 C 86.7 45 84.9 44.98 84.9 45 C 82.7 45 81.4 44.3 81.4 41.2 C 81.35 41.2 81.4 35.9 81.4 35.9 L 79.2 35.9 L 79.2 33.4 L 81.4 33.4 L 81.4 30.8 L 84.1 30 L 84.1 33.4 L 86.5 33.4 L 86.5 35.9 L 84.1 35.9 C 84.1 35.9 84.15 41.33 84.1 41.3 C 84.1 42 84.3 42.5 85.3 42.5 C 85.32 42.5 86.7 42.5 86.7 42.5 L 86.7 45 Z M 98.5 37.5 C 98.49 37.51 98.5 45 98.5 45 L 95.7 45 C 95.7 45 95.7 37.76 95.7 37.8 C 95.7 36.5 95 35.7 93.7 35.7 C 92.1 35.7 91.1 36.8 91.1 38.7 C 91.1 38.72 91.1 45 91.1 45 L 88.3 45 L 88.3 29 L 91.1 29 C 91.1 29 91.1 35.03 91.1 35 C 91.8 33.9 92.8 33.2 94.6 33.2 C 97.3 33.2 98.5 34.7 98.5 37.5 Z M 110.4 37.2 C 110.38 37.19 110.4 45 110.4 45 L 107.6 45 C 107.6 45 107.65 43.3 107.6 43.3 C 106.7 44.8 105.4 45.2 104.1 45.2 C 102.3 45.2 100.4 44.1 100.4 41.6 C 100.4 39.8 101.4 38.6 104.1 38.2 C 104.1 38.2 106.6 37.8 106.6 37.8 C 107.3 37.7 107.8 37.5 107.8 36.8 C 107.8 35.8 106.9 35.4 105.8 35.4 C 104.3 35.4 103.6 36.1 103.5 37.1 C 103.5 37.1 100.8 37.1 100.8 37.1 C 101.1 34.4 103.3 33.2 105.9 33.2 C 108.7 33.2 110.4 34.5 110.4 37.2 Z M 107.7 40.1 C 107.7 40.1 107.7 39.5 107.7 39.5 C 107.4 39.6 106.9 39.8 106.3 39.8 C 106.3 39.8 105 40 105 40 C 103.6 40.2 103.2 40.8 103.2 41.5 C 103.2 42.4 103.8 42.9 104.8 42.9 C 106.2 42.9 107.7 41.8 107.7 40.1 Z M 118.8 45 C 118.8 45 116.99 44.98 117 45 C 114.8 45 113.4 44.3 113.4 41.2 C 113.44 41.2 113.4 35.9 113.4 35.9 L 111.3 35.9 L 111.3 33.4 L 113.4 33.4 L 113.4 30.8 L 116.2 30 L 116.2 33.4 L 118.5 33.4 L 118.5 35.9 L 116.2 35.9 C 116.2 35.9 116.23 41.33 116.2 41.3 C 116.2 42 116.4 42.5 117.4 42.5 C 117.41 42.5 118.8 42.5 118.8 42.5 L 118.8 45 Z M 125.7 31.9 L 128.7 31.9 L 128.7 28.7 L 125.7 28.7 L 125.7 31.9 Z M 125.8 33.4 L 128.6 33.4 L 128.6 45 L 125.8 45 L 125.8 33.4 Z M 141.5 37.5 C 141.52 37.51 141.5 45 141.5 45 L 138.7 45 C 138.7 45 138.72 37.76 138.7 37.8 C 138.7 36.5 138 35.7 136.7 35.7 C 135.1 35.7 134.1 36.8 134.1 38.7 C 134.13 38.72 134.1 45 134.1 45 L 131.3 45 L 131.3 33.4 L 134.1 33.4 C 134.1 33.4 134.1 35.07 134.1 35.1 C 134.8 34 135.7 33.2 137.6 33.2 C 140.3 33.2 141.5 34.7 141.5 37.5 Z M 150 45 L 147.1 45 L 142.8 33.4 L 145.7 33.4 L 148.6 41.7 L 151.4 33.4 L 154.3 33.4 L 150 45 Z M 157.5 40 C 157.5 41.9 158.9 42.8 160.4 42.8 C 161.5 42.8 162.6 42.4 162.9 41.3 C 162.9 41.3 165.5 41.3 165.5 41.3 C 165 43.9 162.7 45.2 160.3 45.2 C 157.5 45.2 154.7 43.3 154.7 39.2 C 154.7 35.2 157.4 33.2 160.3 33.2 C 163.1 33.2 165.5 35 165.5 38.9 C 165.52 38.89 165.5 40 165.5 40 C 165.5 40 157.46 40.03 157.5 40 Z M 157.5 38 C 157.5 38 162.8 38 162.8 38 C 162.8 36.5 161.7 35.6 160.3 35.6 C 159 35.6 157.8 36.3 157.5 38 Z M 176.8 41.4 C 176.8 44 174.5 45.2 171.9 45.2 C 169.5 45.2 166.9 44.2 166.7 41.3 C 166.7 41.3 169.5 41.3 169.5 41.3 C 169.7 42.4 170.7 42.9 172 42.9 C 173.2 42.9 174 42.5 174 41.7 C 174 40.9 173.5 40.8 171.9 40.5 C 169.6 40.1 167 39.7 167 36.9 C 167 34.3 169.2 33.2 171.6 33.2 C 174.3 33.2 176.3 34.5 176.5 37.1 C 176.5 37.1 173.8 37.1 173.8 37.1 C 173.7 36 172.8 35.5 171.7 35.5 C 170.3 35.5 169.7 36.1 169.7 36.8 C 169.7 37.7 170.8 37.9 172.2 38.1 C 174.3 38.4 176.8 38.7 176.8 41.4 Z M 184.6 45 C 184.6 45 182.76 44.98 182.8 45 C 180.6 45 179.2 44.3 179.2 41.2 C 179.21 41.2 179.2 35.9 179.2 35.9 L 177.1 35.9 L 177.1 33.4 L 179.2 33.4 L 179.2 30.8 L 182 30 L 182 33.4 L 184.3 33.4 L 184.3 35.9 L 182 35.9 C 182 35.9 182 41.33 182 41.3 C 182 42 182.2 42.5 183.2 42.5 C 183.18 42.5 184.6 42.5 184.6 42.5 L 184.6 45 Z M 196.7 39.2 C 196.7 43 194.3 45.2 191.1 45.2 C 187.8 45.2 185.4 43 185.4 39.2 C 185.4 35.4 187.8 33.2 191.1 33.2 C 194.3 33.2 196.7 35.4 196.7 39.2 Z M 188.3 39.2 C 188.3 41.5 189.6 42.6 191.1 42.6 C 192.8 42.6 193.9 41.4 193.9 39.2 C 193.9 36.9 192.6 35.8 191.1 35.8 C 189.4 35.8 188.3 37 188.3 39.2 Z M 205.3 36 C 205.3 36 204.56 35.97 204.6 36 C 202.6 36 201.5 37 201.5 39.3 C 201.53 39.31 201.5 45 201.5 45 L 198.7 45 L 198.7 33.4 L 201.5 33.4 C 201.5 33.4 201.51 35.05 201.5 35 C 202.1 33.8 203.2 33.3 204.5 33.3 C 204.54 33.26 205.3 33.3 205.3 33.3 L 205.3 36 Z M 215.9 41.4 C 215.9 44 213.6 45.2 211 45.2 C 208.6 45.2 206 44.2 205.8 41.3 C 205.8 41.3 208.6 41.3 208.6 41.3 C 208.8 42.4 209.9 42.9 211.2 42.9 C 212.3 42.9 213.2 42.5 213.2 41.7 C 213.2 40.9 212.6 40.8 211 40.5 C 208.8 40.1 206.2 39.7 206.2 36.9 C 206.2 34.3 208.4 33.2 210.8 33.2 C 213.5 33.2 215.5 34.5 215.6 37.1 C 215.6 37.1 212.9 37.1 212.9 37.1 C 212.8 36 212 35.5 210.8 35.5 C 209.4 35.5 208.9 36.1 208.9 36.8 C 208.9 37.7 209.9 37.9 211.3 38.1 C 213.4 38.4 215.9 38.7 215.9 41.4 Z M 231.9 41.4 C 231.9 44 229.6 45.2 227 45.2 C 224.6 45.2 222 44.2 221.8 41.3 C 221.8 41.3 224.6 41.3 224.6 41.3 C 224.8 42.4 225.8 42.9 227.1 42.9 C 228.3 42.9 229.1 42.5 229.1 41.7 C 229.1 40.9 228.6 40.8 227 40.5 C 224.7 40.1 222.2 39.7 222.2 36.9 C 222.2 34.3 224.4 33.2 226.8 33.2 C 229.5 33.2 231.5 34.5 231.6 37.1 C 231.6 37.1 228.9 37.1 228.9 37.1 C 228.8 36 228 35.5 226.8 35.5 C 225.4 35.5 224.9 36.1 224.9 36.8 C 224.9 37.7 225.9 37.9 227.3 38.1 C 229.4 38.4 231.9 38.7 231.9 41.4 Z M 244 37.5 C 243.98 37.51 244 45 244 45 L 241.2 45 C 241.2 45 241.18 37.76 241.2 37.8 C 241.2 36.5 240.4 35.7 239.1 35.7 C 237.5 35.7 236.6 36.8 236.6 38.7 C 236.58 38.72 236.6 45 236.6 45 L 233.8 45 L 233.8 29 L 236.6 29 C 236.6 29 236.58 35.03 236.6 35 C 237.3 33.9 238.2 33.2 240.1 33.2 C 242.7 33.2 244 34.7 244 37.5 Z M 257.2 39.2 C 257.2 43 254.8 45.2 251.5 45.2 C 248.3 45.2 245.9 43 245.9 39.2 C 245.9 35.4 248.3 33.2 251.5 33.2 C 254.8 33.2 257.2 35.4 257.2 39.2 Z M 248.7 39.2 C 248.7 41.5 250 42.6 251.6 42.6 C 253.2 42.6 254.3 41.4 254.3 39.2 C 254.3 36.9 253 35.8 251.5 35.8 C 249.8 35.8 248.7 37 248.7 39.2 Z M 269.3 45 L 266.6 45 C 266.6 45 266.59 43.34 266.6 43.3 C 265.9 44.4 264.9 45.1 263.3 45.1 C 260.8 45.1 259.1 43.6 259.1 40.6 C 259.07 40.59 259.1 33.4 259.1 33.4 L 261.9 33.4 C 261.9 33.4 261.87 40.38 261.9 40.4 C 261.9 42 262.6 42.6 263.8 42.6 C 265.4 42.6 266.5 41.7 266.5 39 C 266.53 39 266.5 33.4 266.5 33.4 L 269.3 33.4 L 269.3 45 Z M 274.8 45 L 272.1 45 L 272.1 29 L 274.8 29 L 274.8 45 Z M 288.2 45 L 285.5 45 C 285.5 45 285.49 43.2 285.5 43.2 C 284.9 44.5 283.5 45.2 281.9 45.2 C 279.2 45.2 276.8 43.2 276.8 39.2 C 276.8 35.2 279.2 33.2 281.9 33.2 C 283.4 33.2 284.7 33.8 285.4 34.9 C 285.43 34.92 285.4 29 285.4 29 L 288.2 29 L 288.2 45 Z M 285.5 39.2 C 285.5 36.8 284.1 35.7 282.6 35.7 C 281.1 35.7 279.7 36.8 279.7 39.2 C 279.7 41.5 281.1 42.7 282.6 42.7 C 284.1 42.7 285.5 41.5 285.5 39.2 Z M 305.9 37.2 C 305.88 37.19 305.9 45 305.9 45 L 303.2 45 C 303.2 45 303.15 43.3 303.2 43.3 C 302.2 44.8 300.9 45.2 299.6 45.2 C 297.8 45.2 295.9 44.1 295.9 41.6 C 295.9 39.8 296.9 38.6 299.6 38.2 C 299.6 38.2 302.1 37.8 302.1 37.8 C 302.8 37.7 303.3 37.5 303.3 36.8 C 303.3 35.8 302.4 35.4 301.3 35.4 C 299.8 35.4 299.1 36.1 299 37.1 C 299 37.1 296.3 37.1 296.3 37.1 C 296.6 34.4 298.8 33.2 301.4 33.2 C 304.2 33.2 305.9 34.5 305.9 37.2 Z M 303.2 40.1 C 303.2 40.1 303.2 39.5 303.2 39.5 C 302.9 39.6 302.4 39.8 301.8 39.8 C 301.8 39.8 300.5 40 300.5 40 C 299.1 40.2 298.7 40.8 298.7 41.5 C 298.7 42.4 299.3 42.9 300.3 42.9 C 301.7 42.9 303.2 41.8 303.2 40.1 Z M 314.3 45 L 311.3 45 L 307 33.4 L 310 33.4 L 312.8 41.7 L 315.7 33.4 L 318.6 33.4 L 314.3 45 Z M 330.3 39.2 C 330.3 43 327.9 45.2 324.7 45.2 C 321.4 45.2 319 43 319 39.2 C 319 35.4 321.4 33.2 324.7 33.2 C 327.9 33.2 330.3 35.4 330.3 39.2 Z M 321.9 39.2 C 321.9 41.5 323.1 42.6 324.7 42.6 C 326.4 42.6 327.5 41.4 327.5 39.2 C 327.5 36.9 326.2 35.8 324.6 35.8 C 323 35.8 321.9 37 321.9 39.2 Z M 332.2 31.9 L 335.2 31.9 L 335.2 28.7 L 332.2 28.7 L 332.2 31.9 Z M 332.3 33.4 L 335.1 33.4 L 335.1 45 L 332.3 45 L 332.3 33.4 Z M 348.4 45 L 345.7 45 C 345.7 45 345.72 43.2 345.7 43.2 C 345.1 44.5 343.7 45.2 342.1 45.2 C 339.4 45.2 337.1 43.2 337.1 39.2 C 337.1 35.2 339.4 33.2 342.1 33.2 C 343.7 33.2 345 33.8 345.7 34.9 C 345.66 34.92 345.7 29 345.7 29 L 348.4 29 L 348.4 45 Z M 345.7 39.2 C 345.7 36.8 344.3 35.7 342.8 35.7 C 341.3 35.7 339.9 36.8 339.9 39.2 C 339.9 41.5 341.3 42.7 342.8 42.7 C 344.3 42.7 345.7 41.5 345.7 39.2 Z M 354 39.4 C 354 36.7 355.3 36.2 356.6 35.3 C 357.6 34.6 358 34 358 33.2 C 358 32 357.2 31.4 355.9 31.4 C 354.5 31.4 353.6 32.2 353.5 33.6 C 353.5 33.6 350.7 33.6 350.7 33.6 C 350.9 30.2 353.4 29 356 29 C 358.8 29 360.9 30.3 360.9 33.1 C 360.9 35.3 359.6 36.2 358.2 37.2 C 357.1 38 356.6 38.5 356.6 39.4 C 356.62 39.44 356.6 40.1 356.6 40.1 L 354 40.1 C 354 40.1 353.95 39.35 354 39.4 Z M 353.7 41.7 L 356.9 41.7 L 356.9 45 L 353.7 45 L 353.7 41.7 Z " stroke="none" fill="#000"/>  </g>  <g id="Polygon11699">    <path d="M 11.5 16.3 L 4.8 16.3 L 3.5 19.8 L 0.4 19.8 L 6.5 4 L 9.7 4 L 16 19.8 L 12.8 19.8 L 11.5 16.3 Z M 10.4 13.5 L 8.1 7.3 L 5.8 13.5 L 10.4 13.5 Z M 24.3 10.8 C 24.3 10.8 23.6 10.77 23.6 10.8 C 21.7 10.8 20.6 11.8 20.6 14.1 C 20.58 14.11 20.6 19.8 20.6 19.8 L 17.8 19.8 L 17.8 8.2 L 20.6 8.2 C 20.6 8.2 20.56 9.85 20.6 9.8 C 21.1 8.6 22.2 8.1 23.6 8.1 C 23.58 8.06 24.3 8.1 24.3 8.1 L 24.3 10.8 Z M 27.5 14.8 C 27.5 16.7 28.9 17.6 30.5 17.6 C 31.5 17.6 32.6 17.2 32.9 16.1 C 32.9 16.1 35.5 16.1 35.5 16.1 C 35 18.7 32.7 20 30.3 20 C 27.5 20 24.8 18.1 24.8 14 C 24.8 10 27.4 8 30.3 8 C 33.2 8 35.5 9.8 35.5 13.7 C 35.53 13.69 35.5 14.8 35.5 14.8 C 35.5 14.8 27.47 14.83 27.5 14.8 Z M 27.5 12.8 C 27.5 12.8 32.8 12.8 32.8 12.8 C 32.8 11.3 31.7 10.4 30.3 10.4 C 29 10.4 27.8 11.1 27.5 12.8 Z M 48.5 19.8 C 48.5 19.8 46.66 19.78 46.7 19.8 C 44.5 19.8 43.1 19.1 43.1 16 C 43.11 16 43.1 10.7 43.1 10.7 L 41 10.7 L 41 8.2 L 43.1 8.2 L 43.1 5.6 L 45.9 4.8 L 45.9 8.2 L 48.2 8.2 L 48.2 10.7 L 45.9 10.7 C 45.9 10.7 45.91 16.13 45.9 16.1 C 45.9 16.8 46.1 17.3 47.1 17.3 C 47.08 17.3 48.5 17.3 48.5 17.3 L 48.5 19.8 Z M 60.2 12.3 C 60.25 12.31 60.2 19.8 60.2 19.8 L 57.5 19.8 C 57.5 19.8 57.46 12.56 57.5 12.6 C 57.5 11.3 56.7 10.5 55.4 10.5 C 53.8 10.5 52.9 11.6 52.9 13.5 C 52.86 13.52 52.9 19.8 52.9 19.8 L 50.1 19.8 L 50.1 3.8 L 52.9 3.8 C 52.9 3.8 52.86 9.83 52.9 9.8 C 53.5 8.7 54.5 8 56.4 8 C 59 8 60.2 9.5 60.2 12.3 Z M 64.8 14.8 C 64.9 16.7 66.3 17.6 67.8 17.6 C 68.9 17.6 70 17.2 70.3 16.1 C 70.3 16.1 72.9 16.1 72.9 16.1 C 72.4 18.7 70.1 20 67.7 20 C 64.9 20 62.1 18.1 62.1 14 C 62.1 10 64.8 8 67.7 8 C 70.5 8 72.9 9.8 72.9 13.7 C 72.91 13.69 72.9 14.8 72.9 14.8 C 72.9 14.8 64.85 14.83 64.8 14.8 Z M 64.9 12.8 C 64.9 12.8 70.2 12.8 70.2 12.8 C 70.2 11.3 69.1 10.4 67.7 10.4 C 66.4 10.4 65.2 11.1 64.9 12.8 Z M 81.5 10.8 C 81.5 10.8 80.72 10.77 80.7 10.8 C 78.8 10.8 77.7 11.8 77.7 14.1 C 77.7 14.11 77.7 19.8 77.7 19.8 L 74.9 19.8 L 74.9 8.2 L 77.7 8.2 C 77.7 8.2 77.68 9.85 77.7 9.8 C 78.3 8.6 79.3 8.1 80.7 8.1 C 80.7 8.06 81.5 8.1 81.5 8.1 L 81.5 10.8 Z M 84.6 14.8 C 84.7 16.7 86 17.6 87.6 17.6 C 88.7 17.6 89.7 17.2 90 16.1 C 90 16.1 92.6 16.1 92.6 16.1 C 92.1 18.7 89.8 20 87.4 20 C 84.7 20 81.9 18.1 81.9 14 C 81.9 10 84.5 8 87.5 8 C 90.3 8 92.7 9.8 92.7 13.7 C 92.65 13.69 92.7 14.8 92.7 14.8 C 92.7 14.8 84.59 14.83 84.6 14.8 Z M 84.7 12.8 C 84.7 12.8 89.9 12.8 89.9 12.8 C 89.9 11.3 88.9 10.4 87.4 10.4 C 86.1 10.4 84.9 11.1 84.7 12.8 Z M 104.4 20 C 100.6 20 98.7 17.1 98.7 14 C 98.7 10.9 100.5 8 104.3 8 C 107.2 8 109.4 9.6 109.5 12.4 C 109.5 12.4 106.7 12.4 106.7 12.4 C 106.6 11.3 105.8 10.5 104.4 10.5 C 102.4 10.5 101.6 12.2 101.6 14 C 101.6 15.9 102.4 17.4 104.4 17.4 C 105.8 17.4 106.6 16.7 106.8 15.7 C 106.8 15.7 109.5 15.7 109.5 15.7 C 109.2 18.5 107.2 20 104.4 20 Z M 113.5 14.8 C 113.6 16.7 114.9 17.6 116.5 17.6 C 117.6 17.6 118.6 17.2 119 16.1 C 119 16.1 121.5 16.1 121.5 16.1 C 121 18.7 118.8 20 116.4 20 C 113.6 20 110.8 18.1 110.8 14 C 110.8 10 113.4 8 116.4 8 C 119.2 8 121.6 9.8 121.6 13.7 C 121.59 13.69 121.6 14.8 121.6 14.8 C 121.6 14.8 113.53 14.83 113.5 14.8 Z M 113.6 12.8 C 113.6 12.8 118.9 12.8 118.9 12.8 C 118.9 11.3 117.8 10.4 116.4 10.4 C 115.1 10.4 113.8 11.1 113.6 12.8 Z M 130.1 10.8 C 130.1 10.8 129.4 10.77 129.4 10.8 C 127.4 10.8 126.4 11.8 126.4 14.1 C 126.38 14.11 126.4 19.8 126.4 19.8 L 123.6 19.8 L 123.6 8.2 L 126.4 8.2 C 126.4 8.2 126.36 9.85 126.4 9.8 C 126.9 8.6 128 8.1 129.4 8.1 C 129.38 8.06 130.1 8.1 130.1 8.1 L 130.1 10.8 Z M 137.8 19.8 C 137.8 19.8 136.02 19.78 136 19.8 C 133.9 19.8 132.5 19.1 132.5 16 C 132.47 16 132.5 10.7 132.5 10.7 L 130.3 10.7 L 130.3 8.2 L 132.5 8.2 L 132.5 5.6 L 135.3 4.8 L 135.3 8.2 L 137.6 8.2 L 137.6 10.7 L 135.3 10.7 C 135.3 10.7 135.26 16.13 135.3 16.1 C 135.3 16.8 135.4 17.3 136.4 17.3 C 136.44 17.3 137.8 17.3 137.8 17.3 L 137.8 19.8 Z M 148.7 12 C 148.68 11.99 148.7 19.8 148.7 19.8 L 145.9 19.8 C 145.9 19.8 145.95 18.1 145.9 18.1 C 145 19.6 143.7 20 142.4 20 C 140.6 20 138.7 18.9 138.7 16.4 C 138.7 14.6 139.7 13.4 142.4 13 C 142.4 13 144.9 12.6 144.9 12.6 C 145.6 12.5 146.1 12.3 146.1 11.6 C 146.1 10.6 145.2 10.2 144.1 10.2 C 142.6 10.2 141.9 10.9 141.8 11.9 C 141.8 11.9 139.1 11.9 139.1 11.9 C 139.4 9.2 141.6 8 144.2 8 C 147 8 148.7 9.3 148.7 12 Z M 146 14.9 C 146 14.9 146 14.3 146 14.3 C 145.7 14.4 145.2 14.6 144.6 14.6 C 144.6 14.6 143.3 14.8 143.3 14.8 C 141.9 15 141.5 15.6 141.5 16.3 C 141.5 17.2 142.1 17.7 143.1 17.7 C 144.5 17.7 146 16.6 146 14.9 Z M 151.1 6.7 L 154.1 6.7 L 154.1 3.5 L 151.1 3.5 L 151.1 6.7 Z M 151.2 8.2 L 154 8.2 L 154 19.8 L 151.2 19.8 L 151.2 8.2 Z M 166.9 12.3 C 166.86 12.31 166.9 19.8 166.9 19.8 L 164.1 19.8 C 164.1 19.8 164.07 12.56 164.1 12.6 C 164.1 11.3 163.3 10.5 162 10.5 C 160.4 10.5 159.5 11.6 159.5 13.5 C 159.47 13.52 159.5 19.8 159.5 19.8 L 156.7 19.8 L 156.7 8.2 L 159.5 8.2 C 159.5 8.2 159.45 9.87 159.5 9.9 C 160.1 8.8 161 8 163 8 C 165.6 8 166.9 9.5 166.9 12.3 Z M 184.4 12 C 184.42 11.99 184.4 19.8 184.4 19.8 L 181.7 19.8 C 181.7 19.8 181.69 18.1 181.7 18.1 C 180.8 19.6 179.4 20 178.2 20 C 176.3 20 174.4 18.9 174.4 16.4 C 174.4 14.6 175.5 13.4 178.1 13 C 178.1 13 180.6 12.6 180.6 12.6 C 181.3 12.5 181.8 12.3 181.8 11.6 C 181.8 10.6 181 10.2 179.8 10.2 C 178.4 10.2 177.7 10.9 177.6 11.9 C 177.6 11.9 174.9 11.9 174.9 11.9 C 175.2 9.2 177.3 8 180 8 C 182.7 8 184.4 9.3 184.4 12 Z M 181.7 14.9 C 181.7 14.9 181.7 14.3 181.7 14.3 C 181.4 14.4 180.9 14.6 180.3 14.6 C 180.3 14.6 179.1 14.8 179.1 14.8 C 177.7 15 177.2 15.6 177.2 16.3 C 177.2 17.2 177.9 17.7 178.8 17.7 C 180.3 17.7 181.7 16.6 181.7 14.9 Z M 196.2 16.2 C 196.2 18.8 193.9 20 191.3 20 C 188.9 20 186.3 19 186.1 16.1 C 186.1 16.1 188.9 16.1 188.9 16.1 C 189.1 17.2 190.1 17.7 191.4 17.7 C 192.6 17.7 193.5 17.3 193.5 16.5 C 193.5 15.7 192.9 15.6 191.3 15.3 C 189 14.9 186.5 14.5 186.5 11.7 C 186.5 9.1 188.7 8 191.1 8 C 193.8 8 195.8 9.3 195.9 11.9 C 195.9 11.9 193.2 11.9 193.2 11.9 C 193.1 10.8 192.3 10.3 191.1 10.3 C 189.7 10.3 189.2 10.9 189.2 11.6 C 189.2 12.5 190.2 12.7 191.6 12.9 C 193.7 13.2 196.2 13.5 196.2 16.2 Z M 207.4 16.2 C 207.4 18.8 205 20 202.4 20 C 200 20 197.4 19 197.3 16.1 C 197.3 16.1 200.1 16.1 200.1 16.1 C 200.3 17.2 201.3 17.7 202.6 17.7 C 203.8 17.7 204.6 17.3 204.6 16.5 C 204.6 15.7 204.1 15.6 202.5 15.3 C 200.2 14.9 197.6 14.5 197.6 11.7 C 197.6 9.1 199.8 8 202.2 8 C 204.9 8 206.9 9.3 207.1 11.9 C 207.1 11.9 204.3 11.9 204.3 11.9 C 204.2 10.8 203.4 10.3 202.2 10.3 C 200.9 10.3 200.3 10.9 200.3 11.6 C 200.3 12.5 201.3 12.7 202.8 12.9 C 204.8 13.2 207.4 13.5 207.4 16.2 Z M 211.2 14.8 C 211.3 16.7 212.6 17.6 214.2 17.6 C 215.3 17.6 216.3 17.2 216.7 16.1 C 216.7 16.1 219.2 16.1 219.2 16.1 C 218.7 18.7 216.4 20 214.1 20 C 211.3 20 208.5 18.1 208.5 14 C 208.5 10 211.1 8 214.1 8 C 216.9 8 219.3 9.8 219.3 13.7 C 219.28 13.69 219.3 14.8 219.3 14.8 C 219.3 14.8 211.22 14.83 211.2 14.8 Z M 211.3 12.8 C 211.3 12.8 216.5 12.8 216.5 12.8 C 216.5 11.3 215.5 10.4 214.1 10.4 C 212.8 10.4 211.5 11.1 211.3 12.8 Z M 227.2 19.8 C 227.2 19.8 225.37 19.78 225.4 19.8 C 223.2 19.8 221.8 19.1 221.8 16 C 221.82 16 221.8 10.7 221.8 10.7 L 219.7 10.7 L 219.7 8.2 L 221.8 8.2 L 221.8 5.6 L 224.6 4.8 L 224.6 8.2 L 226.9 8.2 L 226.9 10.7 L 224.6 10.7 C 224.6 10.7 224.61 16.13 224.6 16.1 C 224.6 16.8 224.8 17.3 225.8 17.3 C 225.79 17.3 227.2 17.3 227.2 17.3 L 227.2 19.8 Z M 238.7 20 C 234.9 20 233.1 17.1 233.1 14 C 233.1 10.9 234.9 8 238.7 8 C 241.5 8 243.7 9.6 243.8 12.4 C 243.8 12.4 241.1 12.4 241.1 12.4 C 240.9 11.3 240.1 10.5 238.8 10.5 C 236.7 10.5 235.9 12.2 235.9 14 C 235.9 15.9 236.8 17.4 238.7 17.4 C 240.1 17.4 240.9 16.7 241.1 15.7 C 241.1 15.7 243.9 15.7 243.9 15.7 C 243.5 18.5 241.5 20 238.7 20 Z M 248.7 19.8 L 245.9 19.8 L 245.9 3.8 L 248.7 3.8 L 248.7 19.8 Z M 260.7 12 C 260.67 11.99 260.7 19.8 260.7 19.8 L 257.9 19.8 C 257.9 19.8 257.94 18.1 257.9 18.1 C 257 19.6 255.7 20 254.4 20 C 252.6 20 250.7 18.9 250.7 16.4 C 250.7 14.6 251.7 13.4 254.4 13 C 254.4 13 256.9 12.6 256.9 12.6 C 257.6 12.5 258 12.3 258 11.6 C 258 10.6 257.2 10.2 256.1 10.2 C 254.6 10.2 253.9 10.9 253.8 11.9 C 253.8 11.9 251.1 11.9 251.1 11.9 C 251.4 9.2 253.6 8 256.2 8 C 258.9 8 260.7 9.3 260.7 12 Z M 258 14.9 C 258 14.9 258 14.3 258 14.3 C 257.7 14.4 257.2 14.6 256.6 14.6 C 256.6 14.6 255.3 14.8 255.3 14.8 C 253.9 15 253.5 15.6 253.5 16.3 C 253.5 17.2 254.1 17.7 255.1 17.7 C 256.5 17.7 258 16.6 258 14.9 Z M 272.5 16.2 C 272.5 18.8 270.1 20 267.5 20 C 265.1 20 262.5 19 262.4 16.1 C 262.4 16.1 265.2 16.1 265.2 16.1 C 265.4 17.2 266.4 17.7 267.7 17.7 C 268.9 17.7 269.7 17.3 269.7 16.5 C 269.7 15.7 269.2 15.6 267.6 15.3 C 265.3 14.9 262.7 14.5 262.7 11.7 C 262.7 9.1 264.9 8 267.3 8 C 270 8 272 9.3 272.2 11.9 C 272.2 11.9 269.4 11.9 269.4 11.9 C 269.3 10.8 268.5 10.3 267.3 10.3 C 266 10.3 265.4 10.9 265.4 11.6 C 265.4 12.5 266.4 12.7 267.9 12.9 C 269.9 13.2 272.5 13.5 272.5 16.2 Z M 283.6 16.2 C 283.6 18.8 281.3 20 278.7 20 C 276.3 20 273.7 19 273.5 16.1 C 273.5 16.1 276.3 16.1 276.3 16.1 C 276.5 17.2 277.5 17.7 278.8 17.7 C 280 17.7 280.9 17.3 280.9 16.5 C 280.9 15.7 280.3 15.6 278.7 15.3 C 276.4 14.9 273.9 14.5 273.9 11.7 C 273.9 9.1 276.1 8 278.5 8 C 281.2 8 283.2 9.3 283.3 11.9 C 283.3 11.9 280.6 11.9 280.6 11.9 C 280.5 10.8 279.7 10.3 278.5 10.3 C 277.1 10.3 276.6 10.9 276.6 11.6 C 276.6 12.5 277.6 12.7 279 12.9 C 281.1 13.2 283.6 13.5 283.6 16.2 Z M 287.5 14.8 C 287.5 16.7 288.9 17.6 290.4 17.6 C 291.5 17.6 292.6 17.2 292.9 16.1 C 292.9 16.1 295.5 16.1 295.5 16.1 C 295 18.7 292.7 20 290.3 20 C 287.5 20 284.8 18.1 284.8 14 C 284.8 10 287.4 8 290.3 8 C 293.2 8 295.5 9.8 295.5 13.7 C 295.53 13.69 295.5 14.8 295.5 14.8 C 295.5 14.8 287.47 14.83 287.5 14.8 Z M 287.5 12.8 C 287.5 12.8 292.8 12.8 292.8 12.8 C 292.8 11.3 291.7 10.4 290.3 10.4 C 289 10.4 287.8 11.1 287.5 12.8 Z M 306.8 16.2 C 306.8 18.8 304.5 20 301.9 20 C 299.5 20 296.9 19 296.7 16.1 C 296.7 16.1 299.5 16.1 299.5 16.1 C 299.7 17.2 300.7 17.7 302 17.7 C 303.2 17.7 304 17.3 304 16.5 C 304 15.7 303.5 15.6 301.9 15.3 C 299.6 14.9 297 14.5 297 11.7 C 297 9.1 299.2 8 301.6 8 C 304.3 8 306.3 9.3 306.5 11.9 C 306.5 11.9 303.8 11.9 303.8 11.9 C 303.7 10.8 302.9 10.3 301.7 10.3 C 300.3 10.3 299.8 10.9 299.8 11.6 C 299.8 12.5 300.8 12.7 302.2 12.9 C 304.3 13.2 306.8 13.5 306.8 16.2 Z M 318.5 2.4 L 316.5 2.4 L 309.5 21.7 L 311.6 21.7 L 318.5 2.4 Z " stroke="none" fill="#000"/>  </g></svg>