<?xml version="1.0" standalone="no"?><!DOCTYPE svg PUBLIC "-//W3C//DTD SVG 1.1//EN" "http://www.w3.org/Graphics/SVG/1.1/DTD/svg11.dtd"><svg xmlns="http://www.w3.org/2000/svg" version="1.1" width="997px" height="581px" viewBox="0 0 997 581">  <desc>Adoptons une autre mani re de penser</desc>  <defs/>  <g id="Polygon12338">    <path d="M 35.1 348.4 C 38.9 348.4 42.8 349.4 45.8 350.4 C 45.76 350.42 45.8 334.4 45.8 334.4 L 36.5 330.1 L 36.5 326 L 64.4 319.9 L 64.4 401.3 L 73.2 402.9 L 73.2 408.6 L 48 415.9 L 48 402.9 C 48 402.9 31.87 415.15 31.9 415.2 C 30.3 415.6 28.5 415.9 26.7 415.9 C 15.9 415.9 3.7 406.6 3.7 384.8 C 3.7 359 20.7 348.4 35.1 348.4 Z M 45.8 360 C 43.4 357.2 40.1 355.8 36.1 355.8 C 26.3 355.8 21.7 364.8 21.7 377.1 C 21.7 392.2 28.3 400.9 36.2 400.9 C 39.3 400.9 42.7 399.7 45.8 396.9 C 45.8 396.9 45.8 360 45.8 360 Z M 136.4 395.2 C 132.2 409.2 120.9 415.9 109.4 415.9 C 94.2 415.9 78.7 404.4 78.7 382.5 C 78.7 359.8 94.9 348.4 109.9 348.4 C 123 348.4 135.9 357.2 135.9 376.1 C 135.9 378.1 135.8 380.3 135.4 382.5 C 135.4 382.5 94.4 382.5 94.4 382.5 C 95.9 395.4 104.7 400.9 113.8 400.9 C 120.8 400.9 128 397.3 132.9 389.9 C 132.9 389.9 136.4 395.2 136.4 395.2 Z M 118.7 373.6 C 120 361.6 114.7 356.5 108.6 356.5 C 102.4 356.5 95.5 361.2 94.4 373.6 C 94.4 373.6 118.7 373.6 118.7 373.6 Z M 170.5 439.1 L 180 435.5 L 180 362.2 L 170.7 357.9 L 170.7 353.8 L 196.4 348.4 L 196.4 361.5 C 196.4 361.5 212.29 349.18 212.3 349.2 C 213.9 348.7 215.8 348.4 217.7 348.4 C 233.4 348.4 241.6 362.6 241.6 378.7 C 241.6 403.4 224.9 414.9 209.2 414.9 C 205.6 414.9 202 414.3 198.6 413 C 198.65 413.04 198.6 437 198.6 437 L 210.9 439.1 L 210.9 444.9 L 170.5 444.9 L 170.5 439.1 Z M 223.2 385.8 C 223.2 374.4 218.6 363.2 208.9 363.2 C 205.6 363.2 201.7 364.6 198.6 367.5 C 198.6 367.5 198.6 402.9 198.6 402.9 C 201.9 405.6 205.3 407.1 208.8 407.1 C 216.4 407.1 223.2 400.1 223.2 385.8 Z M 307.9 395.2 C 303.7 409.2 292.4 415.9 280.9 415.9 C 265.7 415.9 250.2 404.4 250.2 382.5 C 250.2 359.8 266.4 348.4 281.4 348.4 C 294.5 348.4 307.4 357.2 307.4 376.1 C 307.4 378.1 307.3 380.3 306.9 382.5 C 306.9 382.5 265.9 382.5 265.9 382.5 C 267.3 395.4 276.1 400.9 285.3 400.9 C 292.3 400.9 299.5 397.3 304.4 389.9 C 304.4 389.9 307.9 395.2 307.9 395.2 Z M 290.2 373.6 C 291.5 361.6 286.2 356.5 280.1 356.5 C 273.9 356.5 267 361.2 265.9 373.6 C 265.9 373.6 290.2 373.6 290.2 373.6 Z M 314.1 408.6 L 323.6 405 L 323.6 362.5 L 314.3 358.1 L 314.3 354 L 340 348.4 L 340 362.6 C 340 362.6 354.14 349.68 354.1 349.7 C 356.6 348.9 359.4 348.4 362.2 348.4 C 372.1 348.4 382.3 354.4 382.3 370.3 C 382.29 370.26 382.3 406.5 382.3 406.5 L 391.8 408.1 L 391.8 414.4 L 355.8 414.4 L 355.8 408 L 363.7 405 C 363.7 405 363.69 374.48 363.7 374.5 C 363.7 366 359.8 362.5 355 362.5 C 350.9 362.5 346.2 364.9 342.2 369 C 342.24 369.02 342.2 406.5 342.2 406.5 L 350.2 407.8 L 350.2 414.4 L 314.1 414.4 L 314.1 408.6 Z M 399 392.1 C 399 392.1 406.97 392.09 407 392.1 C 407.3 403 416.3 408.3 423.1 408.3 C 427.9 408.3 431.6 405.1 431.6 400.3 C 431.6 393.9 424.4 391.8 416.8 389 C 407.7 385.6 398 381.5 398 368.9 C 398 354.6 410.2 348.4 423.1 348.4 C 430.5 348.4 438.6 350.4 444.5 354 C 444.54 354.02 441.6 367.3 441.6 367.3 C 441.6 367.3 434.12 367.29 434.1 367.3 C 432.9 359.5 427.8 356.4 422.8 356.4 C 418.9 356.4 414.8 358.9 414.8 363.9 C 414.8 370 420.6 372.4 427.5 374.7 C 437.1 378 448.6 381.3 448.6 394.8 C 448.6 409 436 415.9 421.6 415.9 C 413.2 415.9 404.1 413.8 397.4 409.9 C 397.42 409.94 399 392.1 399 392.1 Z M 513.7 395.2 C 509.5 409.2 498.2 415.9 486.7 415.9 C 471.6 415.9 456.1 404.4 456.1 382.5 C 456.1 359.8 472.2 348.4 487.2 348.4 C 500.3 348.4 513.2 357.2 513.2 376.1 C 513.2 378.1 513.1 380.3 512.7 382.5 C 512.7 382.5 471.7 382.5 471.7 382.5 C 473.2 395.4 482 400.9 491.2 400.9 C 498.1 400.9 505.3 397.3 510.3 389.9 C 510.3 389.9 513.7 395.2 513.7 395.2 Z M 496 373.6 C 497.4 361.6 492 356.5 486 356.5 C 479.8 356.5 472.8 361.2 471.7 373.6 C 471.7 373.6 496 373.6 496 373.6 Z M 521.2 408.6 L 530.7 405 L 530.7 362.5 L 521.4 358.1 L 521.4 354 L 547.1 348.4 L 547.1 364.7 C 547.1 364.7 561.97 349.06 562 349.1 C 566.4 349.1 572.4 350.1 576 352 C 576 352 571.1 370.5 571.1 370.5 C 567.9 368.4 564.3 367.3 560.7 367.3 C 556.5 367.3 552.5 368.7 549.3 371 C 549.32 371.01 549.3 406.5 549.3 406.5 L 558.9 408.1 L 558.9 414.4 L 521.2 414.4 L 521.2 408.6 Z " stroke="none" fill="#000"/>  </g>  <g id="Polygon12337">    <path d="M 31.4 265.9 C 29.3 266.7 25.5 267.1 22.8 267.1 C 10.2 267.1 3.7 258.7 3.7 249 C 3.7 238.7 11.2 232.4 22.6 229.4 C 22.57 229.4 40.5 224.7 40.5 224.7 C 40.5 224.7 40.55 217.25 40.5 217.2 C 40.5 210.7 36.1 207.7 31.5 207.7 C 26 207.7 20.2 212.2 20.2 220.5 C 20.2 221.1 20.2 221.7 20.3 222.6 C 20.34 222.58 12.2 222.6 12.2 222.6 C 12.2 222.6 6.45 207.95 6.4 207.9 C 14 202.9 24.8 199.6 34.7 199.6 C 47.7 199.6 58.7 205.2 58.7 219.9 C 58.7 219.9 58.7 248.7 58.7 248.7 C 58.7 253 60.6 254.7 63.2 254.7 C 64.9 254.7 66.5 254.1 67.6 252.5 C 67.6 252.5 69.8 258.8 69.8 258.8 C 67.7 263.7 62.6 267.1 56.9 267.1 C 51.1 267.1 44.4 263.7 44.3 254.1 C 44.3 254.1 31.4 265.9 31.4 265.9 Z M 40.5 231.3 C 40.5 231.3 31 234.11 31 234.1 C 23.8 236.2 20.1 240.9 20.1 245.6 C 20.1 249.7 22.9 253.7 29 253.7 C 33.9 253.7 38.3 251.2 40.5 248.2 C 40.55 248.25 40.5 231.3 40.5 231.3 Z M 138 252.5 L 146.8 254.1 L 146.8 259.8 L 121.6 267.1 L 121.6 253 C 121.6 253 107.51 265.85 107.5 265.9 C 106 266.6 104 267.1 101.7 267.1 C 93.4 267.1 81.8 261.3 81.8 244.5 C 81.84 244.53 81.8 210.1 81.8 210.1 L 72.3 207 L 72.3 200.9 L 100.4 200.9 C 100.4 200.9 100.44 240.31 100.4 240.3 C 100.4 248.4 104.5 252 109.2 252 C 112.8 252 116.7 249.9 119.4 246.3 C 119.41 246.26 119.4 210.1 119.4 210.1 L 110 207 L 110 200.9 L 138 200.9 L 138 252.5 Z M 178.1 244.8 C 178.1 253.5 183.3 255.8 189.1 255.8 C 191.5 255.8 193.9 255.4 196.2 254.8 C 196.2 254.8 196.2 262.6 196.2 262.6 C 191.3 265.5 185.6 267.1 180 267.1 C 169.3 267.1 159.5 261.3 159.5 246.8 C 159.46 246.76 159.5 208.6 159.5 208.6 L 146.8 208.6 L 146.8 202.6 L 159.5 198.8 L 159.5 186.4 L 178.1 182.5 L 178.1 200.9 L 196.2 200.9 L 196.2 209.2 L 178.1 209.2 C 178.1 209.2 178.06 244.77 178.1 244.8 Z M 200.5 259.8 L 210.1 256.2 L 210.1 213.7 L 200.8 209.3 L 200.8 205.2 L 226.4 199.6 L 226.4 215.9 C 226.4 215.9 241.3 200.26 241.3 200.3 C 245.8 200.3 251.7 201.3 255.3 203.2 C 255.3 203.2 250.5 221.7 250.5 221.7 C 247.3 219.6 243.7 218.5 240.1 218.5 C 235.8 218.5 231.9 219.9 228.7 222.2 C 228.65 222.21 228.7 257.7 228.7 257.7 L 238.2 259.3 L 238.2 265.6 L 200.5 265.6 L 200.5 259.8 Z M 316.1 246.4 C 311.9 260.4 300.6 267.1 289 267.1 C 273.9 267.1 258.4 255.6 258.4 233.7 C 258.4 211 274.5 199.6 289.5 199.6 C 302.7 199.6 315.6 208.4 315.6 227.3 C 315.6 229.3 315.5 231.5 315.1 233.7 C 315.1 233.7 274 233.7 274 233.7 C 275.5 246.6 284.3 252.1 293.5 252.1 C 300.4 252.1 307.6 248.5 312.6 241.1 C 312.6 241.1 316.1 246.4 316.1 246.4 Z M 298.3 224.8 C 299.7 212.8 294.4 207.7 288.3 207.7 C 282.1 207.7 275.2 212.4 274 224.8 C 274 224.8 298.3 224.8 298.3 224.8 Z M 348.9 259.8 L 358.5 256.2 L 358.5 213.7 L 349.2 209.3 L 349.2 205.2 L 374.8 199.6 L 374.8 213.8 C 374.8 213.8 388.98 200.88 389 200.9 C 391.3 200.1 394.2 199.6 397 199.6 C 404.4 199.6 412 202.9 414 213.2 C 414 213.2 427.4 200.9 427.4 200.9 C 430.3 200.1 433.4 199.6 436.5 199.6 C 445.4 199.6 454.2 204.1 454.2 218.5 C 454.21 218.49 454.2 257.7 454.2 257.7 L 463.8 259.3 L 463.8 265.6 L 427.9 265.6 L 427.9 259.3 L 435.6 256.6 C 435.6 256.6 435.61 224.69 435.6 224.7 C 435.6 217.4 432.1 214 427.5 214 C 423.8 214 419.4 216.3 415.5 220.5 C 415.52 220.47 415.5 258.7 415.5 258.7 L 423.2 260 L 423.2 265.6 L 389.5 265.6 L 389.5 259.3 L 396.9 256.6 C 396.9 256.6 396.92 224.69 396.9 224.7 C 396.9 217.4 393.4 214 389 214 C 385.3 214 380.9 216.3 377.1 220.5 C 377.08 220.47 377.1 258.7 377.1 258.7 L 384.8 260 L 384.8 265.6 L 348.9 265.6 L 348.9 259.8 Z M 497 265.9 C 494.9 266.7 491.2 267.1 488.4 267.1 C 475.8 267.1 469.3 258.7 469.3 249 C 469.3 238.7 476.8 232.4 488.2 229.4 C 488.18 229.4 506.2 224.7 506.2 224.7 C 506.2 224.7 506.16 217.25 506.2 217.2 C 506.2 210.7 501.7 207.7 497.1 207.7 C 491.7 207.7 485.8 212.2 485.8 220.5 C 485.8 221.1 485.8 221.7 486 222.6 C 485.95 222.58 477.8 222.6 477.8 222.6 C 477.8 222.6 472.06 207.95 472.1 207.9 C 479.6 202.9 490.4 199.6 500.3 199.6 C 513.4 199.6 524.3 205.2 524.3 219.9 C 524.3 219.9 524.3 248.7 524.3 248.7 C 524.3 253 526.3 254.7 528.9 254.7 C 530.5 254.7 532.1 254.1 533.2 252.5 C 533.2 252.5 535.4 258.8 535.4 258.8 C 533.3 263.7 528.2 267.1 522.5 267.1 C 516.7 267.1 510 263.7 509.9 254.1 C 509.9 254.1 497 265.9 497 265.9 Z M 506.2 231.3 C 506.2 231.3 496.62 234.11 496.6 234.1 C 489.4 236.2 485.7 240.9 485.7 245.6 C 485.7 249.7 488.6 253.7 494.6 253.7 C 499.5 253.7 503.9 251.2 506.2 248.2 C 506.16 248.25 506.2 231.3 506.2 231.3 Z M 538.5 259.8 L 548.1 256.2 L 548.1 213.7 L 538.8 209.3 L 538.8 205.2 L 564.4 199.6 L 564.4 213.8 C 564.4 213.8 578.58 200.88 578.6 200.9 C 581.1 200.1 583.8 199.6 586.6 199.6 C 596.6 199.6 606.7 205.6 606.7 221.5 C 606.73 221.46 606.7 257.7 606.7 257.7 L 616.3 259.3 L 616.3 265.6 L 580.2 265.6 L 580.2 259.2 L 588.1 256.2 C 588.1 256.2 588.13 225.68 588.1 225.7 C 588.1 217.2 584.3 213.7 579.4 213.7 C 575.4 213.7 570.6 216.1 566.7 220.2 C 566.68 220.22 566.7 257.7 566.7 257.7 L 574.6 259 L 574.6 265.6 L 538.5 265.6 L 538.5 259.8 Z M 625.9 179.4 C 625.9 172.1 631 167.3 638.3 167.3 C 645.7 167.3 650.7 172.1 650.7 179.4 C 650.7 186.7 645.7 191.6 638.3 191.6 C 631 191.6 625.9 186.7 625.9 179.4 Z M 620.6 259.8 L 630.2 256.2 L 630.2 214.1 L 620.9 209.8 L 620.9 205.7 L 648.8 199.6 L 648.8 257.7 L 658.3 259.3 L 658.3 265.6 L 620.6 265.6 L 620.6 259.8 Z M 689.4 169.4 L 703.4 192.4 L 694.4 192.4 L 674.2 176.1 L 689.4 169.4 Z M 722.8 246.4 C 718.6 260.4 707.3 267.1 695.8 267.1 C 680.6 267.1 665.1 255.6 665.1 233.7 C 665.1 211 681.3 199.6 696.3 199.6 C 709.4 199.6 722.3 208.4 722.3 227.3 C 722.3 229.3 722.2 231.5 721.8 233.7 C 721.8 233.7 680.8 233.7 680.8 233.7 C 682.2 246.6 691 252.1 700.2 252.1 C 707.2 252.1 714.4 248.5 719.3 241.1 C 719.3 241.1 722.8 246.4 722.8 246.4 Z M 705.1 224.8 C 706.4 212.8 701.1 207.7 695 207.7 C 688.8 207.7 681.9 212.4 680.8 224.8 C 680.8 224.8 705.1 224.8 705.1 224.8 Z M 730.2 259.8 L 739.8 256.2 L 739.8 213.7 L 730.5 209.3 L 730.5 205.2 L 756.1 199.6 L 756.1 215.9 C 756.1 215.9 771.03 200.26 771 200.3 C 775.5 200.3 781.4 201.3 785 203.2 C 785 203.2 780.2 221.7 780.2 221.7 C 777 219.6 773.4 218.5 769.8 218.5 C 765.6 218.5 761.6 219.9 758.4 222.2 C 758.38 222.21 758.4 257.7 758.4 257.7 L 767.9 259.3 L 767.9 265.6 L 730.2 265.6 L 730.2 259.8 Z M 845.8 246.4 C 841.6 260.4 830.3 267.1 818.8 267.1 C 803.6 267.1 788.1 255.6 788.1 233.7 C 788.1 211 804.3 199.6 819.3 199.6 C 832.4 199.6 845.3 208.4 845.3 227.3 C 845.3 229.3 845.2 231.5 844.8 233.7 C 844.8 233.7 803.8 233.7 803.8 233.7 C 805.2 246.6 814.1 252.1 823.2 252.1 C 830.2 252.1 837.4 248.5 842.3 241.1 C 842.3 241.1 845.8 246.4 845.8 246.4 Z M 828.1 224.8 C 829.4 212.8 824.1 207.7 818 207.7 C 811.8 207.7 804.9 212.4 803.8 224.8 C 803.8 224.8 828.1 224.8 828.1 224.8 Z " stroke="none" fill="#000"/>  </g>  <g id="Polygon12336">    <path d="M 0 111 L 11.4 106.8 L 40.1 36.1 L 37 28.3 L 37 23.8 L 57.4 23.8 L 92.1 108.6 L 102.3 110.5 L 102.3 116.8 L 56.3 116.8 L 56.3 111 L 67.7 106.6 L 60.6 88.8 L 28.5 88.8 L 20.8 108.4 L 32.2 110.5 L 32.2 116.8 L 0 116.8 L 0 111 Z M 57.3 80.1 L 44.6 47.9 L 32 80.1 L 57.3 80.1 Z M 133.7 50.8 C 137.5 50.8 141.4 51.8 144.3 52.8 C 144.34 52.82 144.3 36.8 144.3 36.8 L 135 32.5 L 135 28.4 L 162.9 22.3 L 162.9 103.7 L 171.7 105.3 L 171.7 111 L 146.6 118.3 L 146.6 105.3 C 146.6 105.3 130.45 117.55 130.4 117.6 C 128.8 118 127.1 118.3 125.2 118.3 C 114.5 118.3 102.3 109 102.3 87.2 C 102.3 61.4 119.3 50.8 133.7 50.8 Z M 144.3 62.4 C 142 59.6 138.6 58.2 134.7 58.2 C 124.9 58.2 120.3 67.2 120.3 79.5 C 120.3 94.6 126.9 103.3 134.8 103.3 C 137.9 103.3 141.2 102.1 144.3 99.3 C 144.3 99.3 144.3 62.4 144.3 62.4 Z M 243.7 84.2 C 243.7 103.3 231.3 118.3 210.1 118.3 C 188.7 118.3 177.3 103 177.3 84.7 C 177.3 65.7 189.6 50.8 210.9 50.8 C 232.1 50.8 243.7 65.7 243.7 84.2 Z M 222.6 86.4 C 222.6 68.9 218.2 57.5 209.7 57.5 C 202.1 57.5 198.4 66.5 198.4 82.6 C 198.4 100.1 202.7 111.6 211.3 111.6 C 218.9 111.6 222.6 102.5 222.6 86.4 Z M 251.1 141.5 L 260.6 137.9 L 260.6 64.6 L 251.3 60.3 L 251.3 56.2 L 277 50.8 L 277 63.9 C 277 63.9 292.89 51.58 292.9 51.6 C 294.5 51.1 296.4 50.8 298.3 50.8 C 314 50.8 322.1 65 322.1 81.1 C 322.1 105.8 305.5 117.3 289.8 117.3 C 286.2 117.3 282.6 116.7 279.2 115.4 C 279.25 115.44 279.2 139.4 279.2 139.4 L 291.5 141.5 L 291.5 147.3 L 251.1 147.3 L 251.1 141.5 Z M 303.8 88.2 C 303.8 76.8 299.2 65.6 289.5 65.6 C 286.2 65.6 282.3 67 279.2 69.9 C 279.2 69.9 279.2 105.3 279.2 105.3 C 282.5 108 285.9 109.5 289.4 109.5 C 297 109.5 303.8 102.5 303.8 88.2 Z M 357.1 96 C 357.1 104.7 362.3 107 368.2 107 C 370.5 107 373 106.6 375.2 106 C 375.2 106 375.2 113.8 375.2 113.8 C 370.4 116.7 364.7 118.3 359.1 118.3 C 348.3 118.3 338.5 112.5 338.5 98 C 338.52 97.96 338.5 59.8 338.5 59.8 L 325.9 59.8 L 325.9 53.8 L 338.5 50 L 338.5 37.6 L 357.1 33.7 L 357.1 52.1 L 375.2 52.1 L 375.2 60.4 L 357.1 60.4 C 357.1 60.4 357.12 95.97 357.1 96 Z M 446.5 84.2 C 446.5 103.3 434.1 118.3 412.9 118.3 C 391.6 118.3 380.2 103 380.2 84.7 C 380.2 65.7 392.5 50.8 413.8 50.8 C 435 50.8 446.5 65.7 446.5 84.2 Z M 425.4 86.4 C 425.4 68.9 421.1 57.5 412.5 57.5 C 405 57.5 401.3 66.5 401.3 82.6 C 401.3 100.1 405.6 111.6 414.2 111.6 C 421.7 111.6 425.4 102.5 425.4 86.4 Z M 452.1 111 L 461.6 107.4 L 461.6 64.9 L 452.3 60.5 L 452.3 56.4 L 478 50.8 L 478 65 C 478 65 492.15 52.08 492.1 52.1 C 494.6 51.3 497.4 50.8 500.2 50.8 C 510.1 50.8 520.3 56.8 520.3 72.7 C 520.3 72.66 520.3 108.9 520.3 108.9 L 529.8 110.5 L 529.8 116.8 L 493.8 116.8 L 493.8 110.4 L 501.7 107.4 C 501.7 107.4 501.7 76.88 501.7 76.9 C 501.7 68.4 497.9 64.9 493 64.9 C 488.9 64.9 484.2 67.3 480.2 71.4 C 480.25 71.42 480.2 108.9 480.2 108.9 L 488.2 110.2 L 488.2 116.8 L 452.1 116.8 L 452.1 111 Z M 537 94.5 C 537 94.5 544.97 94.49 545 94.5 C 545.3 105.4 554.3 110.7 561.1 110.7 C 565.9 110.7 569.6 107.5 569.6 102.7 C 569.6 96.3 562.5 94.2 554.8 91.4 C 545.7 88 536 83.9 536 71.3 C 536 57 548.2 50.8 561.1 50.8 C 568.5 50.8 576.6 52.8 582.5 56.4 C 582.55 56.42 579.6 69.7 579.6 69.7 C 579.6 69.7 572.13 69.69 572.1 69.7 C 570.9 61.9 565.8 58.8 560.8 58.8 C 556.9 58.8 552.8 61.3 552.8 66.3 C 552.8 72.4 558.6 74.8 565.6 77.1 C 575.1 80.4 586.6 83.7 586.6 97.2 C 586.6 111.4 574 118.3 559.6 118.3 C 551.2 118.3 542.1 116.2 535.4 112.3 C 535.43 112.34 537 94.5 537 94.5 Z M 679.6 103.7 L 688.4 105.3 L 688.4 111 L 663.3 118.3 L 663.3 104.2 C 663.3 104.2 649.13 117.05 649.1 117.1 C 647.6 117.8 645.7 118.3 643.3 118.3 C 635 118.3 623.5 112.5 623.5 95.7 C 623.47 95.73 623.5 61.3 623.5 61.3 L 613.9 58.2 L 613.9 52.1 L 642.1 52.1 C 642.1 52.1 642.07 91.51 642.1 91.5 C 642.1 99.6 646.2 103.2 650.9 103.2 C 654.5 103.2 658.3 101.1 661 97.5 C 661.04 97.46 661 61.3 661 61.3 L 651.6 58.2 L 651.6 52.1 L 679.6 52.1 L 679.6 103.7 Z M 691.5 111 L 701.1 107.4 L 701.1 64.9 L 691.8 60.5 L 691.8 56.4 L 717.5 50.8 L 717.5 65 C 717.5 65 731.59 52.08 731.6 52.1 C 734.1 51.3 736.8 50.8 739.7 50.8 C 749.6 50.8 759.7 56.8 759.7 72.7 C 759.74 72.66 759.7 108.9 759.7 108.9 L 769.3 110.5 L 769.3 116.8 L 733.2 116.8 L 733.2 110.4 L 741.1 107.4 C 741.1 107.4 741.14 76.88 741.1 76.9 C 741.1 68.4 737.3 64.9 732.5 64.9 C 728.4 64.9 723.7 67.3 719.7 71.4 C 719.69 71.42 719.7 108.9 719.7 108.9 L 727.6 110.2 L 727.6 116.8 L 691.5 116.8 L 691.5 111 Z M 831.9 97.6 C 827.7 111.6 816.4 118.3 804.9 118.3 C 789.7 118.3 774.2 106.8 774.2 84.9 C 774.2 62.2 790.4 50.8 805.4 50.8 C 818.5 50.8 831.4 59.6 831.4 78.5 C 831.4 80.5 831.3 82.7 830.9 84.9 C 830.9 84.9 789.9 84.9 789.9 84.9 C 791.4 97.8 800.2 103.3 809.3 103.3 C 816.3 103.3 823.5 99.7 828.4 92.3 C 828.4 92.3 831.9 97.6 831.9 97.6 Z M 814.2 76 C 815.5 64 810.2 58.9 804.1 58.9 C 797.9 58.9 791 63.6 789.9 76 C 789.9 76 814.2 76 814.2 76 Z " stroke="none" fill="#000"/>  </g></svg>