<?xml version="1.0" standalone="no"?><!DOCTYPE svg PUBLIC "-//W3C//DTD SVG 1.1//EN" "http://www.w3.org/Graphics/SVG/1.1/DTD/svg11.dtd"><svg xmlns="http://www.w3.org/2000/svg" version="1.1" width="320px" height="110.2px" viewBox="0 -4 320 110.2" style="top:-4px"><desc>Anna Radenovska Head FI Asset Management, VZ Depotbank AG</desc><defs/><g id="Polygon10667"><path d="m8.8 80.2H6.9l-6.3-18h2L7.8 78l5.3-15.8h1.8l-6.1 18zm8-1.6L28 63.8H17.2v-1.6h13v1.6L19.1 78.6h11.3v1.6H16.8v-1.6zm36.8-7.7c0 4.6-2.9 9.3-9 9.3h-5.2v-18h5.5c5.8 0 8.7 4.2 8.7 8.7zm-1.9.1c0-3.7-2.3-7.2-6.9-7.2c-.02.02-3.6 0-3.6 0v14.8s3.44-.05 3.4 0c4.8 0 7.1-3.8 7.1-7.6zm6.1 3.2c0 3.2 2 4.7 4.3 4.7c1.7 0 3.3-.9 3.7-2.7h1.7c-.6 3-3.1 4.3-5.5 4.3c-3.1 0-6-2.1-6-6.7c0-4.6 2.9-6.7 6-6.7c3.1 0 5.6 1.9 5.6 6.2c-.02.02 0 .9 0 .9c0 0-9.83-.02-9.8 0zm0-1.5h8c0-2.6-1.7-4.1-3.8-4.1c-2 0-3.9 1.3-4.2 4.1zm24.8 1c0 4.7-2.9 6.6-5.9 6.6c-2.2 0-3.6-1-4.4-2.3c.04-.02 0 7.2 0 7.2h-1.7V67.3h1.7v2.7c.6-1.6 2.2-2.9 4.6-2.9c2.8 0 5.7 1.9 5.7 6.6zm-1.8.1c0-3.6-2-5-4.2-5c-2.1 0-4.2 1.4-4.2 5c0 3.5 2 5 4.2 5c2.1 0 4.2-1.5 4.2-5zm4 0c0-4.2 2.5-6.7 6.1-6.7c3.5 0 6.1 2.5 6.1 6.7c0 4.2-2.6 6.7-6.1 6.7c-3.6 0-6.1-2.5-6.1-6.7zm10.4-.1c0-3.2-2-5-4.4-5c-2.5 0-4.2 2-4.2 5.1c0 3.2 1.9 5 4.3 5c2.5 0 4.3-1.9 4.3-5.1zm10.7 6.5H104c-1.7 0-3.3-.5-3.3-3.4c.03.02 0-7.9 0-7.9h-2.5v-1.6h2.5v-3.6l1.8-.5v4.1h3.1v1.6h-3.1s-.02 7.9 0 7.9c0 1.2.3 1.8 1.8 1.8c-.05.02 1.6 0 1.6 0v1.6zm14.5-6.5c0 4.1-2.4 6.8-5.8 6.8c-2.3 0-3.9-1.3-4.5-2.7c-.04.03 0 2.4 0 2.4h-1.7V61.9h1.7s.03 8.01 0 8c.7-1.5 2.3-2.8 4.6-2.8c3.3 0 5.7 2.5 5.7 6.6zm-1.8.1c0-3.2-1.7-5-4.2-5c-2.5 0-4.3 1.9-4.3 5.1c0 3.1 1.8 5.1 4.3 5.1c2.5 0 4.2-2.1 4.2-5.2zm12.7 4.1c-1 1.9-2.9 2.6-4.6 2.6c-2.2 0-4.1-1.3-4.1-3.9c0-2.3 1.7-3.4 3.9-3.7l3-.4c1-.2 1.8-.5 1.8-1.6c0-1.5-1.3-2.4-3.1-2.4c-1.9 0-3.1 1-3.4 2.4h-1.7c.3-2.5 2.4-3.8 5.2-3.8c3 0 4.7 1.3 4.7 4.2c.03 0 0 8.9 0 8.9h-1.7s.03-2.34 0-2.3zm-2.1-4l-2 .3c-1.6.2-2.8.8-2.8 2.4c0 1.6 1.2 2.3 2.6 2.3c2 0 4.3-1.5 4.3-4.3v-1.2c-.5.3-1.2.4-2.1.5zm17.9-2.5c-.01-.02 0 8.8 0 8.8h-1.8s.04-8.61 0-8.6c0-1.8-1-2.9-2.8-2.9c-2.2 0-4.1 1.6-4.1 4.7c-.02.04 0 6.8 0 6.8h-1.8V67.3h1.8s-.02 2.42 0 2.4c.8-1.5 2.2-2.6 4.4-2.6c2.6 0 4.3 1.4 4.3 4.3zm7.8 2.5l-2.3 2.5v3.8h-1.8V61.9h1.8v12.3l6.3-6.9h2.3l-5.1 5.4l5.4 7.5h-2.1l-4.5-6.3zm26.1 1.2h-8.5l-2 5.1h-2l7.2-18h2l7.4 18h-2l-2.1-5.1zm-4.3-10.8l-3.6 9.2h7.3l-3.7-9.2zm25.4 6.9v9h-1.7v-2.7c-1 1.9-3.2 3.2-6.1 3.2c-5.4 0-8.2-4.5-8.2-9.6c0-5.6 3.5-9.3 8.5-9.3c3.7 0 7.1 2 7.5 5.8h-1.9c-.4-2.6-2.8-4.1-5.5-4.1c-3.8 0-6.7 2.9-6.7 7.6c0 4.2 2.2 7.9 6.5 7.9c3.4 0 5.9-2.3 5.8-6.2c.05.04-6 0-6 0v-1.6h7.8z" stroke="none" fill="#000"/></g><g id="Polygon10666"><path d="m15.7 51.4h-1.9v-8.2H4v8.2H2.2v-18h1.8v8.1h9.8v-8.1h1.9v18zm4.9-6c.1 3.2 2.1 4.7 4.3 4.7c1.7 0 3.4-.9 3.8-2.7h1.7c-.6 3-3.1 4.3-5.6 4.3c-3 0-5.9-2.1-5.9-6.7c0-4.6 2.9-6.7 6-6.7c3.1 0 5.6 1.9 5.6 6.2c-.04.02 0 .9 0 .9c0 0-9.86-.02-9.9 0zm.1-1.5h8c0-2.6-1.7-4.1-3.9-4.1c-2 0-3.9 1.3-4.1 4.1zm20.7 5.2c-1 1.9-3 2.6-4.6 2.6c-2.2 0-4.2-1.3-4.2-3.9c0-2.3 1.7-3.4 3.9-3.7l3.1-.4c.9-.2 1.8-.5 1.8-1.6c0-1.5-1.3-2.4-3.1-2.4c-2 0-3.2 1-3.4 2.4h-1.8c.4-2.5 2.4-3.8 5.3-3.8c2.9 0 4.7 1.3 4.7 4.2c-.02 0 0 8.9 0 8.9h-1.7s-.02-2.34 0-2.3zm-2.2-4l-1.9.3c-1.7.2-2.9.8-2.9 2.4c0 1.6 1.3 2.3 2.7 2.3c2 0 4.2-1.5 4.2-4.3v-1.2c-.5.3-1.2.4-2.1.5zm18.7 6.3h-1.7s.01-2.49 0-2.5c-.6 1.5-2.2 2.8-4.6 2.8c-3.4 0-5.8-2.7-5.8-6.7c0-4.1 2.4-6.7 5.8-6.7c2.2 0 3.8 1.1 4.5 2.4c.04 0 0-7.6 0-7.6h1.8v18.3zm-1.8-6.5c0-3.2-1.8-5-4.2-5c-2.6 0-4.3 1.9-4.3 5.1c0 3.1 1.8 5.1 4.3 5.1c2.5 0 4.2-2 4.2-5.2zm14.2 6.5h-1.9v-18h11.3v1.6h-9.4v6.5h8.9v1.6h-8.9v8.3zm13.9 0h-1.8v-18h1.8v18zm21.6-5.1h-8.5l-2 5.1h-2l7.2-18h2l7.4 18h-2l-2.1-5.1zm-4.3-10.8l-3.6 9.2h7.3l-3.7-9.2zm20.8 12.3c0 2.6-2.4 3.9-5 3.9c-2.7 0-5.3-1.4-5.6-4.3h1.9c.3 1.9 2 2.7 3.7 2.7c1.7 0 3.2-.7 3.2-2.1c0-1.5-1.5-1.8-3-2.1c-2.5-.4-5.4-.8-5.4-3.8c0-2.6 2.2-3.8 4.8-3.8c2.7 0 4.9 1.3 5 3.8h-1.8c-.1-1.5-1.6-2.3-3.3-2.3c-1.7 0-2.9.8-2.9 2.2c0 1.6 1.5 1.9 3.5 2.2c2.3.4 4.9.8 4.9 3.6zm12.4 0c0 2.6-2.3 3.9-4.9 3.9c-2.8 0-5.3-1.4-5.6-4.3h1.9c.3 1.9 1.9 2.7 3.7 2.7c1.6 0 3.1-.7 3.1-2.1c0-1.5-1.5-1.8-3-2.1c-2.5-.4-5.4-.8-5.4-3.8c0-2.6 2.2-3.8 4.9-3.8c2.7 0 4.9 1.3 5 3.8h-1.8c-.1-1.5-1.6-2.3-3.3-2.3c-1.8 0-3 .8-3 2.2c0 1.6 1.6 1.9 3.5 2.2c2.4.4 4.9.8 4.9 3.6zm3.8-2.4c.1 3.2 2 4.7 4.3 4.7c1.7 0 3.4-.9 3.8-2.7h1.6c-.6 3-3 4.3-5.5 4.3c-3.1 0-5.9-2.1-5.9-6.7c0-4.6 2.9-6.7 6-6.7c3 0 5.5 1.9 5.5 6.2c.02.02 0 .9 0 .9c0 0-9.8-.02-9.8 0zm.1-1.5h7.9c0-2.6-1.6-4.1-3.8-4.1c-2 0-3.9 1.3-4.1 4.1zm18.6 7.5h-1.9c-1.7 0-3.2-.5-3.2-3.4c-.04.02 0-7.9 0-7.9h-2.6v-1.6h2.6v-3.6l1.7-.5v4.1h3.1v1.6h-3.1v7.9c0 1.2.4 1.8 1.8 1.8c-.01.02 1.6 0 1.6 0v1.6zm26 0h-1.8V35.8l-6 15.6H174l-6-15.6v15.6h-1.8v-18h2.7l5.8 15.2l5.8-15.2h2.7v18zm12-2.3c-1 1.9-2.9 2.6-4.5 2.6c-2.3 0-4.2-1.3-4.2-3.9c0-2.3 1.7-3.4 3.9-3.7l3-.4c1-.2 1.8-.5 1.8-1.6c0-1.5-1.3-2.4-3.1-2.4c-1.9 0-3.1 1-3.4 2.4H187c.3-2.5 2.4-3.8 5.2-3.8c3 0 4.7 1.3 4.7 4.2c.04 0 0 8.9 0 8.9h-1.7s.04-2.34 0-2.3zm-2.1-4l-2 .3c-1.6.2-2.8.8-2.8 2.4c0 1.6 1.2 2.3 2.6 2.3c2.1 0 4.3-1.5 4.3-4.3v-1.2c-.5.3-1.2.4-2.1.5zm17.9-2.5c.01-.02 0 8.8 0 8.8h-1.7s-.05-8.61 0-8.6c0-1.8-1.1-2.9-2.9-2.9c-2.2 0-4.1 1.6-4.1 4.7c-.01.04 0 6.8 0 6.8h-1.8V38.5h1.8v2.4c.8-1.5 2.2-2.6 4.5-2.6c2.5 0 4.2 1.4 4.2 4.3zm11.6 6.5c-1 1.9-2.9 2.6-4.5 2.6c-2.2 0-4.2-1.3-4.2-3.9c0-2.3 1.7-3.4 3.9-3.7l3-.4c1-.2 1.8-.5 1.8-1.6c0-1.5-1.3-2.4-3.1-2.4c-1.9 0-3.1 1-3.4 2.4h-1.7c.3-2.5 2.4-3.8 5.2-3.8c3 0 4.7 1.3 4.7 4.2c.05 0 0 8.9 0 8.9h-1.7s.05-2.34 0-2.3zm-2.1-4l-2 .3c-1.6.2-2.8.8-2.8 2.4c0 1.6 1.2 2.3 2.6 2.3c2.1 0 4.3-1.5 4.3-4.3v-1.2c-.5.3-1.2.4-2.1.5zm18.5 5.7c0 3.9-2.5 5.8-5.8 5.8c-2.9 0-5.4-1.4-5.8-4.4h1.8c.2 1.6 1.4 3 4 3c2.4 0 4.2-1.2 4.2-4.3v-2.5c-1 1.9-2.9 2.5-4.6 2.5c-3.1 0-5.7-2.1-5.7-6.3c0-4.2 2.7-6.3 5.8-6.3c2.1 0 3.6.9 4.4 2.3v-2.1h1.7s.04 12.33 0 12.3zm-1.8-6.2c0-3.3-1.9-4.8-4.1-4.8c-2.2 0-4.3 1.6-4.3 4.8c0 3.2 2 4.7 4.3 4.7c2 0 4.1-1.3 4.1-4.7zm6.4.8c.1 3.2 2.1 4.7 4.3 4.7c1.7 0 3.4-.9 3.8-2.7h1.7c-.6 3-3.1 4.3-5.6 4.3c-3 0-5.9-2.1-5.9-6.7c0-4.6 2.9-6.7 6-6.7c3.1 0 5.6 1.9 5.6 6.2c-.04.02 0 .9 0 .9c0 0-9.85-.02-9.9 0zm.1-1.5h8c0-2.6-1.7-4.1-3.9-4.1c-2 0-3.9 1.3-4.1 4.1zm12.8-5.4h1.7s-.01 2.16 0 2.2c.7-1.7 2.1-2.4 3.7-2.4c1.9 0 3.4 1 3.8 2.7c.6-1.5 2-2.7 4.3-2.7c2.3 0 4.1 1.3 4.1 3.9c.05-.03 0 9.2 0 9.2h-1.7v-8.6c0-2-1.2-3-2.7-3c-2 0-3.5 1.5-3.5 4.2c-.04.04 0 7.4 0 7.4h-1.8s.03-8.61 0-8.6c0-2-1.1-3-2.7-3c-1.9 0-3.5 1.5-3.5 4.2c.01.04 0 7.4 0 7.4h-1.7V38.5zm22.3 6.9c0 3.2 2 4.7 4.3 4.7c1.7 0 3.3-.9 3.7-2.7h1.7c-.6 3-3.1 4.3-5.5 4.3c-3.1 0-6-2.1-6-6.7c0-4.6 2.9-6.7 6-6.7c3.1 0 5.6 1.9 5.6 6.2c-.03.02 0 .9 0 .9c0 0-9.84-.02-9.8 0zm0-1.5h8c0-2.6-1.7-4.1-3.8-4.1c-2.1 0-4 1.3-4.2 4.1zm23.2-1.3c.04-.02 0 8.8 0 8.8h-1.7v-8.6c0-1.8-1-2.9-2.8-2.9c-2.3 0-4.2 1.6-4.2 4.7c.03.04 0 6.8 0 6.8h-1.7V38.5h1.7s.03 2.42 0 2.4c.8-1.5 2.2-2.6 4.5-2.6c2.6 0 4.2 1.4 4.2 4.3zm9.6 8.8h-1.9c-1.7 0-3.2-.5-3.2-3.4v-7.9H304v-1.6h2.5v-3.6l1.8-.5v4.1h3.1v1.6h-3.1s-.05 7.9 0 7.9c0 1.2.3 1.8 1.7 1.8c.03.02 1.6 0 1.6 0v1.6zm3.8-.1c0-.04-1.1 0-1.1 0v-2.4h2.5v2.4c0 2.9-1.7 3.9-3.5 4.1l-.2-1.1c1.9-.4 2.3-1.5 2.3-3z" stroke="none" fill="#000"/></g><g id="Polygon10665"><path d="m13.1 18.6H5.5l-1.5 4H.5l6.9-18h3.7l7.2 18h-3.7l-1.5-4zm-1.2-3.1L9.3 8.4l-2.7 7.1h5.3zM32 14.1c-.03-.04 0 8.5 0 8.5h-3.2s-.02-8.25 0-8.2c0-1.5-.9-2.4-2.4-2.4c-1.8 0-2.9 1.3-2.9 3.5c.02-.04 0 7.1 0 7.1h-3.2V9.4h3.2v1.9c.7-1.2 1.8-2.2 4-2.2c3.1 0 4.5 1.8 4.5 5zm14.6 0c.01-.04 0 8.5 0 8.5h-3.2s.02-8.25 0-8.2c0-1.5-.8-2.4-2.3-2.4c-1.8 0-2.9 1.3-2.9 3.5c-.04-.04 0 7.1 0 7.1H35V9.4h3.1s.04 1.88 0 1.9c.8-1.2 1.9-2.2 4.1-2.2c3 0 4.4 1.8 4.4 5zm13.6-.4v8.9h-3.1s-.03-1.91 0-1.9c-1.1 1.7-2.6 2.2-4 2.2c-2.1 0-4.3-1.3-4.3-4.1c0-2.1 1.1-3.5 4.2-4l2.8-.4c.8-.1 1.4-.4 1.4-1.2c0-1.1-1-1.6-2.2-1.6c-1.7 0-2.5.9-2.6 2h-3.1c.3-3.1 2.8-4.5 5.8-4.5c3.1 0 5.1 1.5 5.1 4.6zM57.1 17v-.7c-.3.2-.9.3-1.6.4l-1.4.2c-1.6.2-2.1.9-2.1 1.7c0 1.1.7 1.6 1.8 1.6c1.7 0 3.3-1.2 3.3-3.2zM80 22.6l-4.6-7.2h-2.8v7.2h-3.3v-18h7c4.1 0 6 2.6 6 5.2c0 2.1-1.2 4.2-3.4 5c-.04-.02 5.1 7.8 5.1 7.8h-4zM79 9.9c0-1-.7-2.2-2.5-2.2c-.01.03-3.9 0-3.9 0v4.7s3.62-.04 3.6 0c1.9 0 2.8-1.2 2.8-2.5zm17.1 3.8c.04 0 0 8.9 0 8.9H93s.02-1.91 0-1.9c-1 1.7-2.6 2.2-4 2.2c-2.1 0-4.3-1.3-4.3-4.1c0-2.1 1.2-3.5 4.2-4l2.9-.4c.8-.1 1.3-.4 1.3-1.2c0-1.1-.9-1.6-2.2-1.6c-1.7 0-2.5.9-2.6 2h-3.1c.4-3.1 2.9-4.5 5.9-4.5c3.1 0 5 1.5 5 4.6zM93 17v-.7c-.3.2-.9.3-1.5.4l-1.5.2c-1.6.2-2.1.9-2.1 1.7c0 1.1.8 1.6 1.9 1.6c1.6 0 3.2-1.2 3.2-3.2zm18.2 5.6h-3.1s-.03-2.03 0-2c-.7 1.5-2.3 2.3-4.1 2.3c-3.1 0-5.8-2.3-5.8-6.9c0-4.6 2.7-6.9 5.8-6.9c1.7 0 3.2.7 4 2V4.3h3.2v18.3zm-3.1-6.6c0-2.8-1.6-4-3.4-4c-1.7 0-3.3 1.3-3.3 4c0 2.6 1.6 4 3.3 4c1.8 0 3.4-1.3 3.4-4zm8.5.9c0 2.2 1.6 3.2 3.4 3.2c1.2 0 2.4-.5 2.8-1.7h2.9c-.5 2.9-3.2 4.5-5.9 4.5c-3.2 0-6.3-2.2-6.3-6.9c0-4.5 3-6.9 6.4-6.9c3.2 0 5.9 2.2 5.9 6.5c-.02.05 0 1.3 0 1.3c0 0-9.23.04-9.2 0zm0-2.3h6.1c0-1.7-1.3-2.7-2.9-2.7c-1.5 0-2.9.8-3.2 2.7zm23.1-.5v8.5h-3.2v-8.2c0-1.5-.8-2.4-2.3-2.4c-1.8 0-2.9 1.3-2.9 3.5c-.05-.04 0 7.1 0 7.1h-3.2V9.4h3.1s.03 1.88 0 1.9c.8-1.2 1.9-2.2 4.1-2.2c3 0 4.4 1.8 4.4 5zm15.1 1.9c0 4.3-2.8 6.9-6.5 6.9c-3.7 0-6.4-2.6-6.4-6.9c0-4.3 2.7-6.9 6.4-6.9c3.7 0 6.5 2.6 6.5 6.9zm-9.7 0c0 2.7 1.5 3.9 3.3 3.9c1.9 0 3.1-1.4 3.1-3.9c0-2.7-1.4-3.9-3.2-3.9c-1.9 0-3.2 1.4-3.2 3.9zm18.5 6.6h-3.4l-4.9-13.2h3.4l3.2 9.4l3.3-9.4h3.3l-4.9 13.2zm17-4.1c0 3-2.6 4.4-5.6 4.4c-2.7 0-5.7-1.2-5.9-4.5h3.2c.2 1.3 1.4 1.9 2.9 1.9c1.3 0 2.3-.5 2.3-1.5c0-.8-.6-1-2.5-1.3c-2.6-.5-5.5-.9-5.5-4.2c0-3 2.5-4.2 5.2-4.2c3.1 0 5.4 1.6 5.6 4.5h-3.1c-.1-1.3-1.1-1.8-2.4-1.8c-1.6 0-2.2.7-2.2 1.4c0 1.1 1.2 1.3 2.8 1.5c2.3.4 5.2.7 5.2 3.8zm6.9-1.1l-1.5 1.7v3.5h-3.2V4.3h3.2v10.4l4.7-5.3h4.2l-5.2 5.6l5.4 7.6h-4l-3.6-5.2zm20-3.7c-.05 0 0 8.9 0 8.9h-3.2s.03-1.91 0-1.9c-1 1.7-2.6 2.2-4 2.2c-2.1 0-4.3-1.3-4.3-4.1c0-2.1 1.2-3.5 4.3-4l2.8-.4c.8-.1 1.4-.4 1.4-1.2c0-1.1-1-1.6-2.3-1.6c-1.7 0-2.5.9-2.6 2h-3c.3-3.1 2.8-4.5 5.8-4.5c3.1 0 5.1 1.5 5.1 4.6zm-3.1 3.3v-.7c-.4.2-1 .3-1.6.4l-1.4.2c-1.7.2-2.2.9-2.2 1.7c0 1.1.8 1.6 1.9 1.6c1.6 0 3.3-1.2 3.3-3.2z" stroke="none" fill="#000"/></g></svg>