<?xml version="1.0" standalone="no"?><!DOCTYPE svg PUBLIC "-//W3C//DTD SVG 1.1//EN" "http://www.w3.org/Graphics/SVG/1.1/DTD/svg11.dtd"><svg xmlns="http://www.w3.org/2000/svg" version="1.1" width="461px" height="162.4px" viewBox="0 -3 461 162.4" style="top:-3px">  <desc>Then there s regulatory change Sectors that required assistance in 2020 may face regulatory change to try to make th</desc>  <defs/>  <g id="Polygon11483">    <path d="M 0.9 140.2 C 0.9 136.5 3.2 134.3 6.3 134.3 C 9.4 134.3 11.6 136.5 11.6 140.2 C 11.6 143.8 9.4 146 6.3 146 C 3.2 146 0.9 143.8 0.9 140.2 Z M 10.1 140.1 C 10.1 137.3 8.4 135.7 6.3 135.7 C 4.1 135.7 2.5 137.4 2.5 140.2 C 2.5 143 4.2 144.6 6.3 144.6 C 8.5 144.6 10.1 142.9 10.1 140.1 Z M 24.8 140.1 C 24.8 144.2 22.2 145.9 19.6 145.9 C 17.7 145.9 16.4 145 15.8 143.8 C 15.79 143.83 15.8 150.1 15.8 150.1 L 14.3 150.1 L 14.3 134.5 L 15.7 134.5 C 15.7 134.5 15.75 136.88 15.7 136.9 C 16.3 135.5 17.7 134.3 19.8 134.3 C 22.2 134.3 24.8 136 24.8 140.1 Z M 23.2 140.1 C 23.2 137 21.4 135.8 19.6 135.8 C 17.7 135.8 15.8 137 15.8 140.2 C 15.8 143.3 17.6 144.5 19.5 144.5 C 21.4 144.5 23.2 143.3 23.2 140.1 Z M 37.9 140.1 C 37.9 144.2 35.3 145.9 32.8 145.9 C 30.8 145.9 29.6 145 28.9 143.8 C 28.94 143.83 28.9 150.1 28.9 150.1 L 27.4 150.1 L 27.4 134.5 L 28.9 134.5 C 28.9 134.5 28.9 136.88 28.9 136.9 C 29.4 135.5 30.9 134.3 32.9 134.3 C 35.4 134.3 37.9 136 37.9 140.1 Z M 36.4 140.1 C 36.4 137 34.6 135.8 32.7 135.8 C 30.8 135.8 29 137 29 140.2 C 29 143.3 30.8 144.5 32.7 144.5 C 34.5 144.5 36.4 143.3 36.4 140.1 Z M 39.8 140.2 C 39.8 136.5 42 134.3 45.1 134.3 C 48.3 134.3 50.5 136.5 50.5 140.2 C 50.5 143.8 48.3 146 45.2 146 C 42.1 146 39.8 143.8 39.8 140.2 Z M 48.9 140.1 C 48.9 137.3 47.2 135.7 45.1 135.7 C 42.9 135.7 41.4 137.4 41.4 140.2 C 41.4 143 43.1 144.6 45.2 144.6 C 47.4 144.6 48.9 142.9 48.9 140.1 Z M 58.8 135.8 C 58.8 135.8 58.4 135.83 58.4 135.8 C 56 135.8 54.7 137.2 54.7 139.8 C 54.66 139.8 54.7 145.8 54.7 145.8 L 53.1 145.8 L 53.1 134.5 L 54.6 134.5 C 54.6 134.5 54.64 136.58 54.6 136.6 C 55.2 135.1 56.5 134.4 58.3 134.4 C 58.27 134.38 58.8 134.4 58.8 134.4 L 58.8 135.8 Z M 66.3 145.8 C 66.3 145.8 64.66 145.78 64.7 145.8 C 63.2 145.8 61.8 145.3 61.8 142.8 C 61.82 142.82 61.8 135.9 61.8 135.9 L 59.6 135.9 L 59.6 134.5 L 61.8 134.5 L 61.8 131.3 L 63.4 130.9 L 63.4 134.5 L 66.1 134.5 L 66.1 135.9 L 63.4 135.9 C 63.4 135.9 63.36 142.8 63.4 142.8 C 63.4 143.8 63.7 144.4 64.9 144.4 C 64.91 144.4 66.3 144.4 66.3 144.4 L 66.3 145.8 Z M 75.9 145.8 C 75.9 145.8 75.94 143.64 75.9 143.6 C 75.2 145.2 73.8 145.9 72.2 145.9 C 70.1 145.9 68.4 144.6 68.4 142 C 68.42 141.96 68.4 134.5 68.4 134.5 L 70 134.5 C 70 134.5 69.95 141.77 70 141.8 C 70 143.6 71 144.6 72.4 144.6 C 74.3 144.6 75.9 143.2 75.9 140.3 C 75.87 140.34 75.9 134.5 75.9 134.5 L 77.4 134.5 L 77.4 145.8 L 75.9 145.8 Z M 89.9 138.1 C 89.92 138.05 89.9 145.8 89.9 145.8 L 88.4 145.8 C 88.4 145.8 88.39 138.24 88.4 138.2 C 88.4 136.7 87.5 135.7 85.9 135.7 C 84 135.7 82.3 137.1 82.3 139.9 C 82.3 139.86 82.3 145.8 82.3 145.8 L 80.8 145.8 L 80.8 134.5 L 82.3 134.5 C 82.3 134.5 82.3 136.6 82.3 136.6 C 83 135.3 84.2 134.3 86.2 134.3 C 88.5 134.3 89.9 135.6 89.9 138.1 Z M 94.8 129.8 L 93.1 129.8 L 93.1 131.7 L 94.8 131.7 L 94.8 129.8 Z M 94.7 145.8 L 93.2 145.8 L 93.2 134.5 L 94.7 134.5 L 94.7 145.8 Z M 103.2 145.8 C 103.2 145.8 101.55 145.78 101.6 145.8 C 100.1 145.8 98.7 145.3 98.7 142.8 C 98.72 142.82 98.7 135.9 98.7 135.9 L 96.5 135.9 L 96.5 134.5 L 98.7 134.5 L 98.7 131.3 L 100.3 130.9 L 100.3 134.5 L 103 134.5 L 103 135.9 L 100.3 135.9 C 100.3 135.9 100.25 142.8 100.3 142.8 C 100.3 143.8 100.5 144.4 101.8 144.4 C 101.81 144.4 103.2 144.4 103.2 144.4 L 103.2 145.8 Z M 107.1 129.8 L 105.3 129.8 L 105.3 131.7 L 107.1 131.7 L 107.1 129.8 Z M 107 145.8 L 105.4 145.8 L 105.4 134.5 L 107 134.5 L 107 145.8 Z M 111.1 140.5 C 111.1 143.3 112.9 144.6 114.8 144.6 C 116.3 144.6 117.8 143.9 118.1 142.3 C 118.1 142.3 119.6 142.3 119.6 142.3 C 119.1 144.9 116.9 146 114.8 146 C 112.1 146 109.6 144.2 109.6 140.2 C 109.6 136.1 112.1 134.3 114.8 134.3 C 117.5 134.3 119.7 136 119.7 139.8 C 119.68 139.75 119.7 140.5 119.7 140.5 C 119.7 140.5 111.09 140.51 111.1 140.5 Z M 111.1 139.2 C 111.1 139.2 118.1 139.2 118.1 139.2 C 118.1 136.9 116.7 135.7 114.8 135.7 C 113 135.7 111.3 136.8 111.1 139.2 Z M 130.7 142.6 C 130.7 144.9 128.6 146 126.3 146 C 123.9 146 121.7 144.8 121.5 142.3 C 121.5 142.3 123.1 142.3 123.1 142.3 C 123.4 144 124.8 144.6 126.4 144.6 C 127.8 144.6 129.1 144.1 129.1 142.8 C 129.1 141.5 127.8 141.2 126.5 141 C 124.3 140.6 121.7 140.2 121.7 137.6 C 121.7 135.4 123.7 134.3 126 134.3 C 128.4 134.3 130.3 135.4 130.4 137.7 C 130.4 137.7 128.8 137.7 128.8 137.7 C 128.7 136.3 127.4 135.7 125.9 135.7 C 124.4 135.7 123.3 136.4 123.3 137.5 C 123.3 139 124.7 139.2 126.4 139.5 C 128.4 139.8 130.7 140.1 130.7 142.6 Z M 141.8 131.1 C 140.6 131.1 140.3 131.7 140.3 132.8 C 140.28 132.76 140.3 134.5 140.3 134.5 L 142.8 134.5 L 142.8 135.9 L 140.3 135.9 L 140.3 145.8 L 138.7 145.8 L 138.7 135.9 L 136.9 135.9 L 136.9 134.5 L 138.7 134.5 C 138.7 134.5 138.74 132.72 138.7 132.7 C 138.7 130.2 140.1 129.8 141.6 129.8 C 141.58 129.78 143.1 129.8 143.1 129.8 L 143.1 131.1 C 143.1 131.1 141.83 131.14 141.8 131.1 Z M 144.1 140.2 C 144.1 136.5 146.3 134.3 149.5 134.3 C 152.6 134.3 154.8 136.5 154.8 140.2 C 154.8 143.8 152.6 146 149.5 146 C 146.4 146 144.1 143.8 144.1 140.2 Z M 153.2 140.1 C 153.2 137.3 151.5 135.7 149.4 135.7 C 147.2 135.7 145.7 137.4 145.7 140.2 C 145.7 143 147.4 144.6 149.5 144.6 C 151.7 144.6 153.2 142.9 153.2 140.1 Z M 163.1 135.8 C 163.1 135.8 162.71 135.83 162.7 135.8 C 160.3 135.8 159 137.2 159 139.8 C 158.97 139.8 159 145.8 159 145.8 L 157.4 145.8 L 157.4 134.5 L 158.9 134.5 C 158.9 134.5 158.95 136.58 158.9 136.6 C 159.5 135.1 160.8 134.4 162.6 134.4 C 162.58 134.38 163.1 134.4 163.1 134.4 L 163.1 135.8 Z M 180.6 140.1 C 180.6 143.6 178.5 146 175.5 146 C 173.5 146 172.2 144.9 171.6 143.7 C 171.57 143.7 171.6 145.8 171.6 145.8 L 170.1 145.8 L 170.1 129.8 L 171.6 129.8 C 171.6 129.8 171.63 136.77 171.6 136.8 C 172.2 135.4 173.6 134.3 175.7 134.3 C 178.5 134.3 180.6 136.5 180.6 140.1 Z M 179.1 140.2 C 179.1 137.4 177.6 135.8 175.4 135.8 C 173.2 135.8 171.6 137.4 171.6 140.2 C 171.6 143 173.2 144.7 175.3 144.7 C 177.6 144.7 179.1 142.9 179.1 140.2 Z M 182.5 140.2 C 182.5 136.5 184.7 134.3 187.8 134.3 C 191 134.3 193.2 136.5 193.2 140.2 C 193.2 143.8 191 146 187.9 146 C 184.8 146 182.5 143.8 182.5 140.2 Z M 191.6 140.1 C 191.6 137.3 189.9 135.7 187.8 135.7 C 185.6 135.7 184.1 137.4 184.1 140.2 C 184.1 143 185.8 144.6 187.9 144.6 C 190.1 144.6 191.6 142.9 191.6 140.1 Z M 205 138.1 C 204.98 138.05 205 145.8 205 145.8 L 203.4 145.8 C 203.4 145.8 203.45 138.24 203.4 138.2 C 203.4 136.7 202.6 135.7 201 135.7 C 199 135.7 197.4 137.1 197.4 139.9 C 197.36 139.86 197.4 145.8 197.4 145.8 L 195.8 145.8 L 195.8 134.5 L 197.4 134.5 C 197.4 134.5 197.36 136.6 197.4 136.6 C 198 135.3 199.3 134.3 201.3 134.3 C 203.5 134.3 205 135.6 205 138.1 Z M 218 145.8 L 216.6 145.8 C 216.6 145.8 216.57 143.6 216.6 143.6 C 216 144.9 214.7 146 212.6 146 C 209.6 146 207.5 143.7 207.5 140.1 C 207.5 136.6 209.6 134.3 212.6 134.3 C 214.5 134.3 215.9 135.2 216.5 136.4 C 216.51 136.42 216.5 129.8 216.5 129.8 L 218 129.8 L 218 145.8 Z M 216.5 140.1 C 216.5 137.3 214.9 135.7 212.8 135.7 C 210.6 135.7 209.1 137.4 209.1 140.1 C 209.1 142.9 210.6 144.6 212.8 144.6 C 215 144.6 216.5 142.9 216.5 140.1 Z M 230.6 138.1 C 230.56 138.05 230.6 145.8 230.6 145.8 L 229 145.8 C 229 145.8 229.02 138.24 229 138.2 C 229 136.7 228.1 135.7 226.5 135.7 C 224.6 135.7 222.9 137.1 222.9 139.9 C 222.93 139.86 222.9 145.8 222.9 145.8 L 221.4 145.8 L 221.4 129.8 L 222.9 129.8 C 222.9 129.8 222.93 136.48 222.9 136.5 C 223.6 135.2 224.8 134.3 226.8 134.3 C 229.1 134.3 230.6 135.6 230.6 138.1 Z M 233.1 140.2 C 233.1 136.5 235.3 134.3 238.4 134.3 C 241.5 134.3 243.8 136.5 243.8 140.2 C 243.8 143.8 241.5 146 238.4 146 C 235.3 146 233.1 143.8 233.1 140.2 Z M 242.2 140.1 C 242.2 137.3 240.5 135.7 238.4 135.7 C 236.2 135.7 234.7 137.4 234.7 140.2 C 234.7 143 236.4 144.6 238.5 144.6 C 240.6 144.6 242.2 142.9 242.2 140.1 Z M 247.9 145.8 L 246.4 145.8 L 246.4 129.8 L 247.9 129.8 L 247.9 145.8 Z M 261.1 145.8 L 259.6 145.8 C 259.6 145.8 259.62 143.6 259.6 143.6 C 259.1 144.9 257.7 146 255.6 146 C 252.6 146 250.5 143.7 250.5 140.1 C 250.5 136.6 252.6 134.3 255.6 134.3 C 257.5 134.3 258.9 135.2 259.6 136.4 C 259.56 136.42 259.6 129.8 259.6 129.8 L 261.1 129.8 L 261.1 145.8 Z M 259.5 140.1 C 259.5 137.3 258 135.7 255.8 135.7 C 253.6 135.7 252.1 137.4 252.1 140.1 C 252.1 142.9 253.6 144.6 255.8 144.6 C 258 144.6 259.5 142.9 259.5 140.1 Z M 265.2 140.5 C 265.3 143.3 267 144.6 269 144.6 C 270.5 144.6 271.9 143.9 272.3 142.3 C 272.3 142.3 273.7 142.3 273.7 142.3 C 273.2 144.9 271 146 268.9 146 C 266.2 146 263.7 144.2 263.7 140.2 C 263.7 136.1 266.3 134.3 269 134.3 C 271.6 134.3 273.8 136 273.8 139.8 C 273.82 139.75 273.8 140.5 273.8 140.5 C 273.8 140.5 265.23 140.51 265.2 140.5 Z M 265.3 139.2 C 265.3 139.2 272.3 139.2 272.3 139.2 C 272.3 136.9 270.8 135.7 268.9 135.7 C 267.1 135.7 265.5 136.8 265.3 139.2 Z M 282.1 135.8 C 282.1 135.8 281.71 135.83 281.7 135.8 C 279.3 135.8 278 137.2 278 139.8 C 277.97 139.8 278 145.8 278 145.8 L 276.4 145.8 L 276.4 134.5 L 278 134.5 C 278 134.5 277.95 136.58 278 136.6 C 278.5 135.1 279.8 134.4 281.6 134.4 C 281.59 134.38 282.1 134.4 282.1 134.4 L 282.1 135.8 Z M 292.4 142.6 C 292.4 144.9 290.4 146 288.1 146 C 285.7 146 283.5 144.8 283.2 142.3 C 283.2 142.3 284.9 142.3 284.9 142.3 C 285.1 144 286.6 144.6 288.1 144.6 C 289.6 144.6 290.8 144.1 290.8 142.8 C 290.8 141.5 289.5 141.2 288.2 141 C 286.1 140.6 283.5 140.2 283.5 137.6 C 283.5 135.4 285.4 134.3 287.7 134.3 C 290.1 134.3 292 135.4 292.1 137.7 C 292.1 137.7 290.6 137.7 290.6 137.7 C 290.4 136.3 289.1 135.7 287.7 135.7 C 286.1 135.7 285.1 136.4 285.1 137.5 C 285.1 139 286.5 139.2 288.2 139.5 C 290.2 139.8 292.4 140.1 292.4 142.6 Z M 294.2 143.6 L 296.4 143.6 L 296.4 145.8 L 294.2 145.8 L 294.2 143.6 Z " stroke="none" fill="#000"/>  </g>  <g id="Polygon11482">    <path d="M 6.8 120.6 C 6.8 120.6 5.17 120.58 5.2 120.6 C 3.7 120.6 2.3 120.1 2.3 117.6 C 2.33 117.62 2.3 110.7 2.3 110.7 L 0.1 110.7 L 0.1 109.3 L 2.3 109.3 L 2.3 106.1 L 3.9 105.7 L 3.9 109.3 L 6.6 109.3 L 6.6 110.7 L 3.9 110.7 C 3.9 110.7 3.86 117.6 3.9 117.6 C 3.9 118.6 4.2 119.2 5.4 119.2 C 5.42 119.2 6.8 119.2 6.8 119.2 L 6.8 120.6 Z M 18.2 112.9 C 18.19 112.85 18.2 120.6 18.2 120.6 L 16.7 120.6 C 16.7 120.6 16.65 113.04 16.7 113 C 16.7 111.5 15.8 110.5 14.2 110.5 C 12.2 110.5 10.6 111.9 10.6 114.7 C 10.56 114.66 10.6 120.6 10.6 120.6 L 9 120.6 L 9 104.6 L 10.6 104.6 C 10.6 104.6 10.56 111.28 10.6 111.3 C 11.2 110 12.4 109.1 14.4 109.1 C 16.7 109.1 18.2 110.4 18.2 112.9 Z M 22.2 115.3 C 22.3 118.1 24 119.4 26 119.4 C 27.5 119.4 28.9 118.7 29.3 117.1 C 29.3 117.1 30.7 117.1 30.7 117.1 C 30.2 119.7 28 120.8 25.9 120.8 C 23.2 120.8 20.7 119 20.7 115 C 20.7 110.9 23.2 109.1 26 109.1 C 28.6 109.1 30.8 110.8 30.8 114.6 C 30.81 114.55 30.8 115.3 30.8 115.3 C 30.8 115.3 22.22 115.31 22.2 115.3 Z M 22.3 114 C 22.3 114 29.3 114 29.3 114 C 29.3 111.7 27.8 110.5 25.9 110.5 C 24.1 110.5 22.5 111.6 22.3 114 Z M 41.8 117.4 C 41.8 119.7 39.7 120.8 37.5 120.8 C 35 120.8 32.8 119.6 32.6 117.1 C 32.6 117.1 34.2 117.1 34.2 117.1 C 34.5 118.8 36 119.4 37.5 119.4 C 38.9 119.4 40.2 118.9 40.2 117.6 C 40.2 116.3 38.9 116 37.6 115.8 C 35.4 115.4 32.9 115 32.9 112.4 C 32.9 110.2 34.8 109.1 37.1 109.1 C 39.5 109.1 41.4 110.2 41.5 112.5 C 41.5 112.5 39.9 112.5 39.9 112.5 C 39.8 111.1 38.5 110.5 37 110.5 C 35.5 110.5 34.5 111.2 34.5 112.3 C 34.5 113.8 35.8 114 37.5 114.3 C 39.6 114.6 41.8 114.9 41.8 117.4 Z M 45.1 115.3 C 45.1 118.1 46.9 119.4 48.9 119.4 C 50.4 119.4 51.8 118.7 52.2 117.1 C 52.2 117.1 53.6 117.1 53.6 117.1 C 53.1 119.7 50.9 120.8 48.8 120.8 C 46.1 120.8 43.6 119 43.6 115 C 43.6 110.9 46.1 109.1 48.8 109.1 C 51.5 109.1 53.7 110.8 53.7 114.6 C 53.7 114.55 53.7 115.3 53.7 115.3 C 53.7 115.3 45.11 115.31 45.1 115.3 Z M 45.1 114 C 45.1 114 52.1 114 52.1 114 C 52.1 111.7 50.7 110.5 48.8 110.5 C 47 110.5 45.4 111.6 45.1 114 Z M 65.6 120.8 C 62.5 120.8 60.4 118.5 60.4 115 C 60.4 111.4 62.5 109.1 65.8 109.1 C 68.3 109.1 70.3 110.5 70.4 113 C 70.4 113 68.9 113 68.9 113 C 68.8 111.4 67.4 110.5 65.8 110.5 C 63.5 110.5 62 112.2 62 114.9 C 62 117.7 63.5 119.4 65.7 119.4 C 67.4 119.4 68.8 118.4 68.9 116.6 C 68.9 116.6 70.4 116.6 70.4 116.6 C 70.3 119.3 68.1 120.8 65.6 120.8 Z M 82.2 112.9 C 82.21 112.85 82.2 120.6 82.2 120.6 L 80.7 120.6 C 80.7 120.6 80.68 113.04 80.7 113 C 80.7 111.5 79.8 110.5 78.2 110.5 C 76.3 110.5 74.6 111.9 74.6 114.7 C 74.59 114.66 74.6 120.6 74.6 120.6 L 73.1 120.6 L 73.1 104.6 L 74.6 104.6 C 74.6 104.6 74.59 111.28 74.6 111.3 C 75.2 110 76.5 109.1 78.5 109.1 C 80.8 109.1 82.2 110.4 82.2 112.9 Z M 92.4 118.5 C 91.5 120.2 89.8 120.8 88.4 120.8 C 86.5 120.8 84.7 119.7 84.7 117.5 C 84.7 115.4 86.2 114.4 88.2 114.2 C 88.2 114.2 90.8 113.8 90.8 113.8 C 91.7 113.7 92.4 113.4 92.4 112.4 C 92.4 111.1 91.2 110.4 89.7 110.4 C 88 110.4 86.9 111.2 86.7 112.5 C 86.7 112.5 85.2 112.5 85.2 112.5 C 85.5 110.2 87.3 109.1 89.8 109.1 C 92.3 109.1 93.9 110.3 93.9 112.8 C 93.89 112.79 93.9 120.6 93.9 120.6 L 92.4 120.6 C 92.4 120.6 92.4 118.52 92.4 118.5 Z M 90.5 115.1 C 90.5 115.1 88.8 115.3 88.8 115.3 C 87.4 115.5 86.3 116 86.3 117.4 C 86.3 118.8 87.4 119.4 88.6 119.4 C 90.4 119.4 92.4 118.1 92.4 115.7 C 92.4 115.7 92.4 114.6 92.4 114.6 C 91.9 114.9 91.3 115 90.5 115.1 Z M 106.2 112.9 C 106.2 112.85 106.2 120.6 106.2 120.6 L 104.7 120.6 C 104.7 120.6 104.66 113.04 104.7 113 C 104.7 111.5 103.8 110.5 102.2 110.5 C 100.3 110.5 98.6 111.9 98.6 114.7 C 98.57 114.66 98.6 120.6 98.6 120.6 L 97 120.6 L 97 109.3 L 98.6 109.3 C 98.6 109.3 98.57 111.4 98.6 111.4 C 99.2 110.1 100.5 109.1 102.5 109.1 C 104.7 109.1 106.2 110.4 106.2 112.9 Z M 119.2 120.1 C 119.2 123.5 116.9 125.2 114 125.2 C 111.6 125.2 109.3 123.9 109 121.3 C 109 121.3 110.5 121.3 110.5 121.3 C 110.8 122.7 111.8 123.9 114 123.9 C 116.1 123.9 117.7 122.8 117.7 120.2 C 117.7 120.2 117.7 117.9 117.7 117.9 C 116.8 119.6 115.2 120.2 113.7 120.2 C 110.9 120.2 108.7 118.3 108.7 114.6 C 108.7 110.9 111.1 109.1 113.8 109.1 C 115.6 109.1 116.9 109.9 117.6 111.1 C 117.64 111.13 117.6 109.3 117.6 109.3 L 119.2 109.3 C 119.2 109.3 119.15 120.08 119.2 120.1 Z M 117.6 114.6 C 117.6 111.8 115.9 110.4 114 110.4 C 112 110.4 110.2 111.8 110.2 114.6 C 110.2 117.4 112 118.8 113.9 118.8 C 115.8 118.8 117.6 117.6 117.6 114.6 Z M 123.2 115.3 C 123.2 118.1 124.9 119.4 126.9 119.4 C 128.4 119.4 129.9 118.7 130.2 117.1 C 130.2 117.1 131.7 117.1 131.7 117.1 C 131.2 119.7 129 120.8 126.9 120.8 C 124.2 120.8 121.7 119 121.7 115 C 121.7 110.9 124.2 109.1 126.9 109.1 C 129.6 109.1 131.8 110.8 131.8 114.6 C 131.77 114.55 131.8 115.3 131.8 115.3 C 131.8 115.3 123.18 115.31 123.2 115.3 Z M 123.2 114 C 123.2 114 130.2 114 130.2 114 C 130.2 111.7 128.7 110.5 126.9 110.5 C 125.1 110.5 123.4 111.6 123.2 114 Z M 142.8 117.4 C 142.8 119.7 140.7 120.8 138.4 120.8 C 136 120.8 133.8 119.6 133.6 117.1 C 133.6 117.1 135.2 117.1 135.2 117.1 C 135.4 118.8 136.9 119.4 138.5 119.4 C 139.9 119.4 141.2 118.9 141.2 117.6 C 141.2 116.3 139.9 116 138.6 115.8 C 136.4 115.4 133.8 115 133.8 112.4 C 133.8 110.2 135.8 109.1 138.1 109.1 C 140.5 109.1 142.4 110.2 142.5 112.5 C 142.5 112.5 140.9 112.5 140.9 112.5 C 140.8 111.1 139.5 110.5 138 110.5 C 136.5 110.5 135.4 111.2 135.4 112.3 C 135.4 113.8 136.8 114 138.5 114.3 C 140.5 114.6 142.8 114.9 142.8 117.4 Z M 154.6 120.8 C 151.5 120.8 149.4 118.5 149.4 115 C 149.4 111.4 151.5 109.1 154.7 109.1 C 157.2 109.1 159.2 110.5 159.4 113 C 159.4 113 157.9 113 157.9 113 C 157.8 111.4 156.4 110.5 154.7 110.5 C 152.5 110.5 150.9 112.2 150.9 114.9 C 150.9 117.7 152.5 119.4 154.7 119.4 C 156.4 119.4 157.8 118.4 157.9 116.6 C 157.9 116.6 159.4 116.6 159.4 116.6 C 159.2 119.3 157.1 120.8 154.6 120.8 Z M 161.3 115 C 161.3 111.3 163.5 109.1 166.6 109.1 C 169.7 109.1 172 111.3 172 115 C 172 118.6 169.8 120.8 166.7 120.8 C 163.5 120.8 161.3 118.6 161.3 115 Z M 170.4 114.9 C 170.4 112.1 168.7 110.5 166.6 110.5 C 164.4 110.5 162.9 112.2 162.9 115 C 162.9 117.8 164.6 119.4 166.7 119.4 C 168.9 119.4 170.4 117.7 170.4 114.9 Z M 182 120.6 C 182 120.6 182.03 118.44 182 118.4 C 181.2 120 179.9 120.7 178.3 120.7 C 176.1 120.7 174.5 119.4 174.5 116.8 C 174.51 116.76 174.5 109.3 174.5 109.3 L 176 109.3 C 176 109.3 176.04 116.57 176 116.6 C 176 118.4 177 119.4 178.5 119.4 C 180.3 119.4 182 118 182 115.1 C 181.96 115.14 182 109.3 182 109.3 L 183.5 109.3 L 183.5 120.6 L 182 120.6 Z M 188.4 120.6 L 186.9 120.6 L 186.9 104.6 L 188.4 104.6 L 188.4 120.6 Z M 201.6 120.6 L 200.1 120.6 C 200.1 120.6 200.09 118.4 200.1 118.4 C 199.5 119.7 198.2 120.8 196.1 120.8 C 193.1 120.8 191 118.5 191 114.9 C 191 111.4 193.1 109.1 196.1 109.1 C 198 109.1 199.4 110 200 111.2 C 200.02 111.22 200 104.6 200 104.6 L 201.6 104.6 L 201.6 120.6 Z M 200 114.9 C 200 112.1 198.4 110.5 196.3 110.5 C 194.1 110.5 192.6 112.2 192.6 114.9 C 192.6 117.7 194.1 119.4 196.3 119.4 C 198.5 119.4 200 117.7 200 114.9 Z M 221.1 114.9 C 221.1 119 218.5 120.7 215.9 120.7 C 214 120.7 212.7 119.8 212.1 118.6 C 212.12 118.63 212.1 124.9 212.1 124.9 L 210.6 124.9 L 210.6 109.3 L 212.1 109.3 C 212.1 109.3 212.08 111.68 212.1 111.7 C 212.6 110.3 214.1 109.1 216.1 109.1 C 218.5 109.1 221.1 110.8 221.1 114.9 Z M 219.5 114.9 C 219.5 111.8 217.7 110.6 215.9 110.6 C 214 110.6 212.1 111.8 212.1 115 C 212.1 118.1 214 119.3 215.8 119.3 C 217.7 119.3 219.5 118.1 219.5 114.9 Z M 229.4 110.6 C 229.4 110.6 229 110.63 229 110.6 C 226.6 110.6 225.3 112 225.3 114.6 C 225.26 114.6 225.3 120.6 225.3 120.6 L 223.7 120.6 L 223.7 109.3 L 225.2 109.3 C 225.2 109.3 225.24 111.38 225.2 111.4 C 225.8 109.9 227.1 109.2 228.9 109.2 C 228.88 109.18 229.4 109.2 229.4 109.2 L 229.4 110.6 Z M 231.9 115.3 C 232 118.1 233.7 119.4 235.7 119.4 C 237.2 119.4 238.6 118.7 239 117.1 C 239 117.1 240.4 117.1 240.4 117.1 C 239.9 119.7 237.7 120.8 235.6 120.8 C 232.9 120.8 230.4 119 230.4 115 C 230.4 110.9 233 109.1 235.7 109.1 C 238.3 109.1 240.5 110.8 240.5 114.6 C 240.51 114.55 240.5 115.3 240.5 115.3 C 240.5 115.3 231.92 115.31 231.9 115.3 Z M 232 114 C 232 114 239 114 239 114 C 239 111.7 237.5 110.5 235.6 110.5 C 233.8 110.5 232.2 111.6 232 114 Z M 251.5 117.4 C 251.5 119.7 249.4 120.8 247.2 120.8 C 244.8 120.8 242.5 119.6 242.3 117.1 C 242.3 117.1 243.9 117.1 243.9 117.1 C 244.2 118.8 245.7 119.4 247.2 119.4 C 248.6 119.4 249.9 118.9 249.9 117.6 C 249.9 116.3 248.6 116 247.3 115.8 C 245.1 115.4 242.6 115 242.6 112.4 C 242.6 110.2 244.5 109.1 246.8 109.1 C 249.2 109.1 251.1 110.2 251.2 112.5 C 251.2 112.5 249.6 112.5 249.6 112.5 C 249.5 111.1 248.2 110.5 246.7 110.5 C 245.2 110.5 244.2 111.2 244.2 112.3 C 244.2 113.8 245.5 114 247.2 114.3 C 249.3 114.6 251.5 114.9 251.5 117.4 Z M 254.8 115.3 C 254.9 118.1 256.6 119.4 258.6 119.4 C 260.1 119.4 261.5 118.7 261.9 117.1 C 261.9 117.1 263.3 117.1 263.3 117.1 C 262.8 119.7 260.6 120.8 258.5 120.8 C 255.8 120.8 253.3 119 253.3 115 C 253.3 110.9 255.8 109.1 258.5 109.1 C 261.2 109.1 263.4 110.8 263.4 114.6 C 263.4 114.55 263.4 115.3 263.4 115.3 C 263.4 115.3 254.81 115.31 254.8 115.3 Z M 254.9 114 C 254.9 114 261.8 114 261.8 114 C 261.8 111.7 260.4 110.5 258.5 110.5 C 256.7 110.5 255.1 111.6 254.9 114 Z M 275.2 112.9 C 275.18 112.85 275.2 120.6 275.2 120.6 L 273.6 120.6 C 273.6 120.6 273.65 113.04 273.6 113 C 273.6 111.5 272.8 110.5 271.2 110.5 C 269.2 110.5 267.6 111.9 267.6 114.7 C 267.56 114.66 267.6 120.6 267.6 120.6 L 266 120.6 L 266 109.3 L 267.6 109.3 C 267.6 109.3 267.56 111.4 267.6 111.4 C 268.2 110.1 269.5 109.1 271.5 109.1 C 273.7 109.1 275.2 110.4 275.2 112.9 Z M 283.6 120.6 C 283.6 120.6 281.92 120.58 281.9 120.6 C 280.4 120.6 279.1 120.1 279.1 117.6 C 279.09 117.62 279.1 110.7 279.1 110.7 L 276.9 110.7 L 276.9 109.3 L 279.1 109.3 L 279.1 106.1 L 280.6 105.7 L 280.6 109.3 L 283.4 109.3 L 283.4 110.7 L 280.6 110.7 C 280.6 110.7 280.62 117.6 280.6 117.6 C 280.6 118.6 280.9 119.2 282.2 119.2 C 282.17 119.2 283.6 119.2 283.6 119.2 L 283.6 120.6 Z M 298.2 118.5 C 297.3 120.2 295.6 120.8 294.2 120.8 C 292.2 120.8 290.5 119.7 290.5 117.5 C 290.5 115.4 292 114.4 293.9 114.2 C 293.9 114.2 296.6 113.8 296.6 113.8 C 297.4 113.7 298.2 113.4 298.2 112.4 C 298.2 111.1 297 110.4 295.4 110.4 C 293.7 110.4 292.7 111.2 292.5 112.5 C 292.5 112.5 291 112.5 291 112.5 C 291.3 110.2 293.1 109.1 295.6 109.1 C 298.1 109.1 299.7 110.3 299.7 112.8 C 299.67 112.79 299.7 120.6 299.7 120.6 L 298.2 120.6 C 298.2 120.6 298.18 118.52 298.2 118.5 Z M 296.3 115.1 C 296.3 115.1 294.6 115.3 294.6 115.3 C 293.2 115.5 292.1 116 292.1 117.4 C 292.1 118.8 293.2 119.4 294.4 119.4 C 296.2 119.4 298.1 118.1 298.1 115.7 C 298.1 115.7 298.1 114.6 298.1 114.6 C 297.7 114.9 297.1 115 296.3 115.1 Z M 317.2 112.9 C 317.22 112.85 317.2 120.6 317.2 120.6 L 315.7 120.6 C 315.7 120.6 315.69 113.04 315.7 113 C 315.7 111.5 314.8 110.5 313.2 110.5 C 311.3 110.5 309.6 111.9 309.6 114.7 C 309.6 114.66 309.6 120.6 309.6 120.6 L 308.1 120.6 L 308.1 109.3 L 309.6 109.3 C 309.6 109.3 309.6 111.4 309.6 111.4 C 310.3 110.1 311.5 109.1 313.5 109.1 C 315.8 109.1 317.2 110.4 317.2 112.9 Z M 321.3 115.3 C 321.3 118.1 323 119.4 325 119.4 C 326.5 119.4 328 118.7 328.3 117.1 C 328.3 117.1 329.8 117.1 329.8 117.1 C 329.3 119.7 327.1 120.8 324.9 120.8 C 322.2 120.8 319.7 119 319.7 115 C 319.7 110.9 322.3 109.1 325 109.1 C 327.7 109.1 329.8 110.8 329.8 114.6 C 329.84 114.55 329.8 115.3 329.8 115.3 C 329.8 115.3 321.25 115.31 321.3 115.3 Z M 321.3 114 C 321.3 114 328.3 114 328.3 114 C 328.3 111.7 326.8 110.5 324.9 110.5 C 323.2 110.5 321.5 111.6 321.3 114 Z M 343.7 120.6 L 342.2 120.6 L 339.3 111.6 L 336.4 120.6 L 334.9 120.6 L 331.2 109.3 L 332.8 109.3 L 335.7 118.6 L 338.5 109.3 L 340.1 109.3 L 343 118.6 L 345.8 109.3 L 347.4 109.3 L 343.7 120.6 Z M 360.4 110.6 C 360.4 110.6 360.04 110.63 360 110.6 C 357.6 110.6 356.3 112 356.3 114.6 C 356.3 114.6 356.3 120.6 356.3 120.6 L 354.8 120.6 L 354.8 109.3 L 356.3 109.3 C 356.3 109.3 356.28 111.38 356.3 111.4 C 356.8 109.9 358.2 109.2 359.9 109.2 C 359.92 109.18 360.4 109.2 360.4 109.2 L 360.4 110.6 Z M 369.3 118.5 C 368.4 120.2 366.7 120.8 365.3 120.8 C 363.4 120.8 361.7 119.7 361.7 117.5 C 361.7 115.4 363.1 114.4 365.1 114.2 C 365.1 114.2 367.7 113.8 367.7 113.8 C 368.6 113.7 369.3 113.4 369.3 112.4 C 369.3 111.1 368.2 110.4 366.6 110.4 C 364.9 110.4 363.9 111.2 363.6 112.5 C 363.6 112.5 362.1 112.5 362.1 112.5 C 362.4 110.2 364.2 109.1 366.7 109.1 C 369.3 109.1 370.8 110.3 370.8 112.8 C 370.81 112.79 370.8 120.6 370.8 120.6 L 369.3 120.6 C 369.3 120.6 369.32 118.52 369.3 118.5 Z M 367.5 115.1 C 367.5 115.1 365.7 115.3 365.7 115.3 C 364.3 115.5 363.2 116 363.2 117.4 C 363.2 118.8 364.3 119.4 365.6 119.4 C 367.3 119.4 369.3 118.1 369.3 115.7 C 369.3 115.7 369.3 114.6 369.3 114.6 C 368.9 114.9 368.2 115 367.5 115.1 Z M 383.1 112.9 C 383.12 112.85 383.1 120.6 383.1 120.6 L 381.6 120.6 C 381.6 120.6 381.59 113.04 381.6 113 C 381.6 111.5 380.7 110.5 379.1 110.5 C 377.2 110.5 375.5 111.9 375.5 114.7 C 375.5 114.66 375.5 120.6 375.5 120.6 L 374 120.6 L 374 109.3 L 375.5 109.3 C 375.5 109.3 375.5 111.4 375.5 111.4 C 376.2 110.1 377.4 109.1 379.4 109.1 C 381.7 109.1 383.1 110.4 383.1 112.9 Z M 396.1 120.1 C 396.1 123.5 393.9 125.2 391 125.2 C 388.5 125.2 386.2 123.9 385.9 121.3 C 385.9 121.3 387.4 121.3 387.4 121.3 C 387.7 122.7 388.7 123.9 391 123.9 C 393.1 123.9 394.6 122.8 394.6 120.2 C 394.6 120.2 394.6 117.9 394.6 117.9 C 393.8 119.6 392.1 120.2 390.6 120.2 C 387.9 120.2 385.6 118.3 385.6 114.6 C 385.6 110.9 388 109.1 390.7 109.1 C 392.5 109.1 393.9 109.9 394.6 111.1 C 394.56 111.13 394.6 109.3 394.6 109.3 L 396.1 109.3 C 396.1 109.3 396.08 120.08 396.1 120.1 Z M 394.5 114.6 C 394.5 111.8 392.8 110.4 390.9 110.4 C 389 110.4 387.2 111.8 387.2 114.6 C 387.2 117.4 388.9 118.8 390.9 118.8 C 392.7 118.8 394.5 117.6 394.5 114.6 Z M 400.1 115.3 C 400.2 118.1 401.9 119.4 403.9 119.4 C 405.4 119.4 406.8 118.7 407.2 117.1 C 407.2 117.1 408.6 117.1 408.6 117.1 C 408.1 119.7 405.9 120.8 403.8 120.8 C 401.1 120.8 398.6 119 398.6 115 C 398.6 110.9 401.1 109.1 403.8 109.1 C 406.5 109.1 408.7 110.8 408.7 114.6 C 408.7 114.55 408.7 115.3 408.7 115.3 C 408.7 115.3 400.11 115.31 400.1 115.3 Z M 400.2 114 C 400.2 114 407.1 114 407.1 114 C 407.1 111.7 405.7 110.5 403.8 110.5 C 402 110.5 400.4 111.6 400.2 114 Z M 415.4 115 C 415.4 111.3 417.6 109.1 420.8 109.1 C 423.9 109.1 426.1 111.3 426.1 115 C 426.1 118.6 423.9 120.8 420.8 120.8 C 417.7 120.8 415.4 118.6 415.4 115 Z M 424.5 114.9 C 424.5 112.1 422.8 110.5 420.7 110.5 C 418.5 110.5 417 112.2 417 115 C 417 117.8 418.7 119.4 420.8 119.4 C 423 119.4 424.5 117.7 424.5 114.9 Z M 432.3 105.9 C 431.1 105.9 430.8 106.5 430.8 107.6 C 430.77 107.56 430.8 109.3 430.8 109.3 L 433.3 109.3 L 433.3 110.7 L 430.8 110.7 L 430.8 120.6 L 429.2 120.6 L 429.2 110.7 L 427.4 110.7 L 427.4 109.3 L 429.2 109.3 C 429.2 109.3 429.24 107.52 429.2 107.5 C 429.2 105 430.6 104.6 432.1 104.6 C 432.07 104.58 433.6 104.6 433.6 104.6 L 433.6 105.9 C 433.6 105.9 432.32 105.94 432.3 105.9 Z " stroke="none" fill="#000"/>  </g>  <g id="Polygon11481">    <path d="M 7.3 85.4 C 7.3 85.4 6.95 85.43 7 85.4 C 4.6 85.4 3.2 86.8 3.2 89.4 C 3.21 89.4 3.2 95.4 3.2 95.4 L 1.7 95.4 L 1.7 84.1 L 3.2 84.1 C 3.2 84.1 3.19 86.18 3.2 86.2 C 3.7 84.7 5.1 84 6.8 84 C 6.82 83.98 7.3 84 7.3 84 L 7.3 85.4 Z M 9.9 90.1 C 9.9 92.9 11.6 94.2 13.6 94.2 C 15.1 94.2 16.6 93.5 16.9 91.9 C 16.9 91.9 18.4 91.9 18.4 91.9 C 17.9 94.5 15.7 95.6 13.5 95.6 C 10.9 95.6 8.4 93.8 8.4 89.8 C 8.4 85.7 10.9 83.9 13.6 83.9 C 16.3 83.9 18.5 85.6 18.5 89.4 C 18.46 89.35 18.5 90.1 18.5 90.1 C 18.5 90.1 9.87 90.11 9.9 90.1 Z M 9.9 88.8 C 9.9 88.8 16.9 88.8 16.9 88.8 C 16.9 86.5 15.4 85.3 13.5 85.3 C 11.8 85.3 10.1 86.4 9.9 88.8 Z M 29.5 92.2 C 29.5 94.5 27.4 95.6 25.1 95.6 C 22.7 95.6 20.5 94.4 20.2 91.9 C 20.2 91.9 21.9 91.9 21.9 91.9 C 22.1 93.6 23.6 94.2 25.1 94.2 C 26.6 94.2 27.9 93.7 27.9 92.4 C 27.9 91.1 26.6 90.8 25.2 90.6 C 23.1 90.2 20.5 89.8 20.5 87.2 C 20.5 85 22.4 83.9 24.8 83.9 C 27.2 83.9 29 85 29.2 87.3 C 29.2 87.3 27.6 87.3 27.6 87.3 C 27.5 85.9 26.2 85.3 24.7 85.3 C 23.2 85.3 22.1 86 22.1 87.1 C 22.1 88.6 23.5 88.8 25.2 89.1 C 27.2 89.4 29.5 89.7 29.5 92.2 Z M 33.6 79.4 L 31.9 79.4 L 31.9 81.3 L 33.6 81.3 L 33.6 79.4 Z M 33.5 95.4 L 32 95.4 L 32 84.1 L 33.5 84.1 L 33.5 95.4 Z M 38.4 95.4 L 36.9 95.4 L 36.9 79.4 L 38.4 79.4 L 38.4 95.4 Z M 43.4 79.4 L 41.7 79.4 L 41.7 81.3 L 43.4 81.3 L 43.4 79.4 Z M 43.3 95.4 L 41.8 95.4 L 41.8 84.1 L 43.3 84.1 L 43.3 95.4 Z M 47.4 90.1 C 47.5 92.9 49.2 94.2 51.2 94.2 C 52.7 94.2 54.2 93.5 54.5 91.9 C 54.5 91.9 55.9 91.9 55.9 91.9 C 55.4 94.5 53.3 95.6 51.1 95.6 C 48.4 95.6 45.9 93.8 45.9 89.8 C 45.9 85.7 48.5 83.9 51.2 83.9 C 53.8 83.9 56 85.6 56 89.4 C 56.03 89.35 56 90.1 56 90.1 C 56 90.1 47.44 90.11 47.4 90.1 Z M 47.5 88.8 C 47.5 88.8 54.5 88.8 54.5 88.8 C 54.5 86.5 53 85.3 51.1 85.3 C 49.3 85.3 47.7 86.4 47.5 88.8 Z M 67.8 87.7 C 67.81 87.65 67.8 95.4 67.8 95.4 L 66.3 95.4 C 66.3 95.4 66.27 87.84 66.3 87.8 C 66.3 86.3 65.4 85.3 63.8 85.3 C 61.9 85.3 60.2 86.7 60.2 89.5 C 60.18 89.46 60.2 95.4 60.2 95.4 L 58.7 95.4 L 58.7 84.1 L 60.2 84.1 C 60.2 84.1 60.18 86.2 60.2 86.2 C 60.9 84.9 62.1 83.9 64.1 83.9 C 66.3 83.9 67.8 85.2 67.8 87.7 Z M 76.2 95.4 C 76.2 95.4 74.55 95.38 74.5 95.4 C 73.1 95.4 71.7 94.9 71.7 92.4 C 71.71 92.42 71.7 85.5 71.7 85.5 L 69.5 85.5 L 69.5 84.1 L 71.7 84.1 L 71.7 80.9 L 73.2 80.5 L 73.2 84.1 L 76 84.1 L 76 85.5 L 73.2 85.5 C 73.2 85.5 73.25 92.4 73.2 92.4 C 73.2 93.4 73.5 94 74.8 94 C 74.8 94 76.2 94 76.2 94 L 76.2 95.4 Z M 87.3 80.7 C 86 80.7 85.7 81.3 85.7 82.4 C 85.7 82.36 85.7 84.1 85.7 84.1 L 88.2 84.1 L 88.2 85.5 L 85.7 85.5 L 85.7 95.4 L 84.2 95.4 L 84.2 85.5 L 82.3 85.5 L 82.3 84.1 L 84.2 84.1 C 84.2 84.1 84.17 82.32 84.2 82.3 C 84.2 79.8 85.5 79.4 87 79.4 C 87 79.38 88.5 79.4 88.5 79.4 L 88.5 80.7 C 88.5 80.7 87.25 80.74 87.3 80.7 Z M 89.5 89.8 C 89.5 86.1 91.8 83.9 94.9 83.9 C 98 83.9 100.2 86.1 100.2 89.8 C 100.2 93.4 98 95.6 94.9 95.6 C 91.8 95.6 89.5 93.4 89.5 89.8 Z M 98.7 89.7 C 98.7 86.9 97 85.3 94.9 85.3 C 92.7 85.3 91.1 87 91.1 89.8 C 91.1 92.6 92.8 94.2 94.9 94.2 C 97.1 94.2 98.7 92.5 98.7 89.7 Z M 108.5 85.4 C 108.5 85.4 108.13 85.43 108.1 85.4 C 105.7 85.4 104.4 86.8 104.4 89.4 C 104.39 89.4 104.4 95.4 104.4 95.4 L 102.9 95.4 L 102.9 84.1 L 104.4 84.1 C 104.4 84.1 104.37 86.18 104.4 86.2 C 104.9 84.7 106.3 84 108 84 C 108 83.98 108.5 84 108.5 84 L 108.5 85.4 Z M 120.5 95.4 C 120.5 95.4 118.8 95.38 118.8 95.4 C 117.3 95.4 116 94.9 116 92.4 C 115.96 92.42 116 85.5 116 85.5 L 113.7 85.5 L 113.7 84.1 L 116 84.1 L 116 80.9 L 117.5 80.5 L 117.5 84.1 L 120.2 84.1 L 120.2 85.5 L 117.5 85.5 C 117.5 85.5 117.49 92.4 117.5 92.4 C 117.5 93.4 117.8 94 119 94 C 119.05 94 120.5 94 120.5 94 L 120.5 95.4 Z M 131.8 87.7 C 131.82 87.65 131.8 95.4 131.8 95.4 L 130.3 95.4 C 130.3 95.4 130.28 87.84 130.3 87.8 C 130.3 86.3 129.4 85.3 127.8 85.3 C 125.9 85.3 124.2 86.7 124.2 89.5 C 124.19 89.46 124.2 95.4 124.2 95.4 L 122.7 95.4 L 122.7 79.4 L 124.2 79.4 C 124.2 79.4 124.19 86.08 124.2 86.1 C 124.8 84.8 126.1 83.9 128.1 83.9 C 130.4 83.9 131.8 85.2 131.8 87.7 Z M 135.8 90.1 C 135.9 92.9 137.6 94.2 139.6 94.2 C 141.1 94.2 142.6 93.5 142.9 91.9 C 142.9 91.9 144.4 91.9 144.4 91.9 C 143.8 94.5 141.7 95.6 139.5 95.6 C 136.8 95.6 134.3 93.8 134.3 89.8 C 134.3 85.7 136.9 83.9 139.6 83.9 C 142.3 83.9 144.4 85.6 144.4 89.4 C 144.44 89.35 144.4 90.1 144.4 90.1 C 144.4 90.1 135.85 90.11 135.8 90.1 Z M 135.9 88.8 C 135.9 88.8 142.9 88.8 142.9 88.8 C 142.9 86.5 141.4 85.3 139.5 85.3 C 137.8 85.3 136.1 86.4 135.9 88.8 Z M 155.7 80.7 C 154.4 80.7 154.1 81.3 154.1 82.4 C 154.14 82.36 154.1 84.1 154.1 84.1 L 156.6 84.1 L 156.6 85.5 L 154.1 85.5 L 154.1 95.4 L 152.6 95.4 L 152.6 85.5 L 150.7 85.5 L 150.7 84.1 L 152.6 84.1 C 152.6 84.1 152.6 82.32 152.6 82.3 C 152.6 79.8 153.9 79.4 155.4 79.4 C 155.44 79.38 156.9 79.4 156.9 79.4 L 156.9 80.7 C 156.9 80.7 155.69 80.74 155.7 80.7 Z M 166.3 95.4 C 166.3 95.4 166.34 93.24 166.3 93.2 C 165.6 94.8 164.2 95.5 162.6 95.5 C 160.5 95.5 158.8 94.2 158.8 91.6 C 158.82 91.56 158.8 84.1 158.8 84.1 L 160.4 84.1 C 160.4 84.1 160.35 91.37 160.4 91.4 C 160.4 93.2 161.4 94.2 162.9 94.2 C 164.7 94.2 166.3 92.8 166.3 89.9 C 166.28 89.94 166.3 84.1 166.3 84.1 L 167.8 84.1 L 167.8 95.4 L 166.3 95.4 Z M 176.3 95.4 C 176.3 95.4 174.65 95.38 174.7 95.4 C 173.2 95.4 171.8 94.9 171.8 92.4 C 171.82 92.42 171.8 85.5 171.8 85.5 L 169.6 85.5 L 169.6 84.1 L 171.8 84.1 L 171.8 80.9 L 173.4 80.5 L 173.4 84.1 L 176.1 84.1 L 176.1 85.5 L 173.4 85.5 C 173.4 85.5 173.35 92.4 173.4 92.4 C 173.4 93.4 173.6 94 174.9 94 C 174.91 94 176.3 94 176.3 94 L 176.3 95.4 Z M 185.9 95.4 C 185.9 95.4 185.93 93.24 185.9 93.2 C 185.2 94.8 183.8 95.5 182.2 95.5 C 180.1 95.5 178.4 94.2 178.4 91.6 C 178.41 91.56 178.4 84.1 178.4 84.1 L 179.9 84.1 C 179.9 84.1 179.95 91.37 179.9 91.4 C 179.9 93.2 181 94.2 182.4 94.2 C 184.3 94.2 185.9 92.8 185.9 89.9 C 185.87 89.94 185.9 84.1 185.9 84.1 L 187.4 84.1 L 187.4 95.4 L 185.9 95.4 Z M 196.4 85.4 C 196.4 85.4 196.03 85.43 196 85.4 C 193.6 85.4 192.3 86.8 192.3 89.4 C 192.29 89.4 192.3 95.4 192.3 95.4 L 190.8 95.4 L 190.8 84.1 L 192.3 84.1 C 192.3 84.1 192.27 86.18 192.3 86.2 C 192.8 84.7 194.2 84 195.9 84 C 195.91 83.98 196.4 84 196.4 84 L 196.4 85.4 Z M 199 90.1 C 199 92.9 200.7 94.2 202.7 94.2 C 204.2 94.2 205.7 93.5 206 91.9 C 206 91.9 207.5 91.9 207.5 91.9 C 207 94.5 204.8 95.6 202.6 95.6 C 199.9 95.6 197.4 93.8 197.4 89.8 C 197.4 85.7 200 83.9 202.7 83.9 C 205.4 83.9 207.5 85.6 207.5 89.4 C 207.54 89.35 207.5 90.1 207.5 90.1 C 207.5 90.1 198.95 90.11 199 90.1 Z M 199 88.8 C 199 88.8 206 88.8 206 88.8 C 206 86.5 204.5 85.3 202.6 85.3 C 200.9 85.3 199.2 86.4 199 88.8 Z M 209.4 93.2 L 211.6 93.2 L 211.6 95.4 L 209.4 95.4 L 209.4 93.2 Z M 221.4 95.4 L 219.8 95.4 L 219.8 79.6 L 221.4 79.6 L 221.4 95.4 Z M 234.2 87.7 C 234.19 87.65 234.2 95.4 234.2 95.4 L 232.7 95.4 C 232.7 95.4 232.66 87.84 232.7 87.8 C 232.7 86.3 231.8 85.3 230.2 85.3 C 228.2 85.3 226.6 86.7 226.6 89.5 C 226.57 89.46 226.6 95.4 226.6 95.4 L 225 95.4 L 225 84.1 L 226.6 84.1 C 226.6 84.1 226.57 86.2 226.6 86.2 C 227.2 84.9 228.5 83.9 230.5 83.9 C 232.7 83.9 234.2 85.2 234.2 87.7 Z M 248 95.4 C 248 95.4 246.39 95.38 246.4 95.4 C 244.9 95.4 243.6 94.9 243.6 92.4 C 243.55 92.42 243.6 85.5 243.6 85.5 L 241.3 85.5 L 241.3 84.1 L 243.6 84.1 L 243.6 80.9 L 245.1 80.5 L 245.1 84.1 L 247.8 84.1 L 247.8 85.5 L 245.1 85.5 C 245.1 85.5 245.09 92.4 245.1 92.4 C 245.1 93.4 245.4 94 246.6 94 C 246.64 94 248 94 248 94 L 248 95.4 Z M 259.4 87.7 C 259.41 87.65 259.4 95.4 259.4 95.4 L 257.9 95.4 C 257.9 95.4 257.88 87.84 257.9 87.8 C 257.9 86.3 257 85.3 255.4 85.3 C 253.5 85.3 251.8 86.7 251.8 89.5 C 251.79 89.46 251.8 95.4 251.8 95.4 L 250.3 95.4 L 250.3 79.4 L 251.8 79.4 C 251.8 79.4 251.79 86.08 251.8 86.1 C 252.4 84.8 253.7 83.9 255.7 83.9 C 258 83.9 259.4 85.2 259.4 87.7 Z M 263.4 90.1 C 263.5 92.9 265.2 94.2 267.2 94.2 C 268.7 94.2 270.2 93.5 270.5 91.9 C 270.5 91.9 271.9 91.9 271.9 91.9 C 271.4 94.5 269.3 95.6 267.1 95.6 C 264.4 95.6 261.9 93.8 261.9 89.8 C 261.9 85.7 264.5 83.9 267.2 83.9 C 269.8 83.9 272 85.6 272 89.4 C 272.03 89.35 272 90.1 272 90.1 C 272 90.1 263.44 90.11 263.4 90.1 Z M 263.5 88.8 C 263.5 88.8 270.5 88.8 270.5 88.8 C 270.5 86.5 269 85.3 267.1 85.3 C 265.4 85.3 263.7 86.4 263.5 88.8 Z M 279.9 84.1 L 281.4 84.1 C 281.4 84.1 281.42 85.97 281.4 86 C 282 84.6 283.3 83.9 284.7 83.9 C 286.4 83.9 287.7 84.8 288 86.2 C 288.5 85 289.8 83.9 291.7 83.9 C 293.8 83.9 295.4 85 295.4 87.3 C 295.38 87.3 295.4 95.4 295.4 95.4 L 293.8 95.4 C 293.8 95.4 293.85 87.84 293.8 87.8 C 293.8 86.1 292.8 85.3 291.5 85.3 C 289.8 85.3 288.4 86.6 288.4 88.9 C 288.39 88.93 288.4 95.4 288.4 95.4 L 286.9 95.4 C 286.9 95.4 286.88 87.84 286.9 87.8 C 286.9 86.1 285.8 85.3 284.5 85.3 C 282.8 85.3 281.4 86.5 281.4 88.9 C 281.44 88.93 281.4 95.4 281.4 95.4 L 279.9 95.4 L 279.9 84.1 Z M 299.4 90.1 C 299.5 92.9 301.2 94.2 303.2 94.2 C 304.7 94.2 306.1 93.5 306.5 91.9 C 306.5 91.9 307.9 91.9 307.9 91.9 C 307.4 94.5 305.2 95.6 303.1 95.6 C 300.4 95.6 297.9 93.8 297.9 89.8 C 297.9 85.7 300.4 83.9 303.2 83.9 C 305.8 83.9 308 85.6 308 89.4 C 308 89.35 308 90.1 308 90.1 C 308 90.1 299.41 90.11 299.4 90.1 Z M 299.5 88.8 C 299.5 88.8 306.4 88.8 306.4 88.8 C 306.4 86.5 305 85.3 303.1 85.3 C 301.3 85.3 299.7 86.4 299.5 88.8 Z M 320.4 95.4 L 319 95.4 C 319 95.4 318.96 93.2 319 93.2 C 318.4 94.5 317.1 95.6 315 95.6 C 312 95.6 309.9 93.3 309.9 89.7 C 309.9 86.2 312 83.9 315 83.9 C 316.9 83.9 318.3 84.8 318.9 86 C 318.9 86.02 318.9 79.4 318.9 79.4 L 320.4 79.4 L 320.4 95.4 Z M 318.9 89.7 C 318.9 86.9 317.3 85.3 315.2 85.3 C 313 85.3 311.5 87 311.5 89.7 C 311.5 92.5 313 94.2 315.2 94.2 C 317.3 94.2 318.9 92.5 318.9 89.7 Z M 325.4 79.4 L 323.7 79.4 L 323.7 81.3 L 325.4 81.3 L 325.4 79.4 Z M 325.3 95.4 L 323.8 95.4 L 323.8 84.1 L 325.3 84.1 L 325.3 95.4 Z M 336.1 95.4 C 336.1 95.4 336.1 93.24 336.1 93.2 C 335.3 94.8 333.9 95.5 332.3 95.5 C 330.2 95.5 328.6 94.2 328.6 91.6 C 328.58 91.56 328.6 84.1 328.6 84.1 L 330.1 84.1 C 330.1 84.1 330.12 91.37 330.1 91.4 C 330.1 93.2 331.1 94.2 332.6 94.2 C 334.4 94.2 336 92.8 336 89.9 C 336.04 89.94 336 84.1 336 84.1 L 337.6 84.1 L 337.6 95.4 L 336.1 95.4 Z M 340.9 84.1 L 342.4 84.1 C 342.4 84.1 342.44 85.97 342.4 86 C 343.1 84.6 344.3 83.9 345.7 83.9 C 347.4 83.9 348.7 84.8 349.1 86.2 C 349.6 85 350.8 83.9 352.8 83.9 C 354.8 83.9 356.4 85 356.4 87.3 C 356.41 87.3 356.4 95.4 356.4 95.4 L 354.9 95.4 C 354.9 95.4 354.87 87.84 354.9 87.8 C 354.9 86.1 353.8 85.3 352.5 85.3 C 350.8 85.3 349.4 86.6 349.4 88.9 C 349.41 88.93 349.4 95.4 349.4 95.4 L 347.9 95.4 C 347.9 95.4 347.9 87.84 347.9 87.8 C 347.9 86.1 346.9 85.3 345.5 85.3 C 343.9 85.3 342.5 86.5 342.5 88.9 C 342.46 88.93 342.5 95.4 342.5 95.4 L 340.9 95.4 L 340.9 84.1 Z M 370.3 95.4 C 370.3 95.4 368.61 95.38 368.6 95.4 C 367.1 95.4 365.8 94.9 365.8 92.4 C 365.77 92.42 365.8 85.5 365.8 85.5 L 363.5 85.5 L 363.5 84.1 L 365.8 84.1 L 365.8 80.9 L 367.3 80.5 L 367.3 84.1 L 370 84.1 L 370 85.5 L 367.3 85.5 C 367.3 85.5 367.31 92.4 367.3 92.4 C 367.3 93.4 367.6 94 368.9 94 C 368.86 94 370.3 94 370.3 94 L 370.3 95.4 Z M 373.2 90.1 C 373.3 92.9 375 94.2 377 94.2 C 378.5 94.2 380 93.5 380.3 91.9 C 380.3 91.9 381.8 91.9 381.8 91.9 C 381.3 94.5 379.1 95.6 376.9 95.6 C 374.2 95.6 371.7 93.8 371.7 89.8 C 371.7 85.7 374.3 83.9 377 83.9 C 379.7 83.9 381.8 85.6 381.8 89.4 C 381.84 89.35 381.8 90.1 381.8 90.1 C 381.8 90.1 373.25 90.11 373.2 90.1 Z M 373.3 88.8 C 373.3 88.8 380.3 88.8 380.3 88.8 C 380.3 86.5 378.8 85.3 376.9 85.3 C 375.2 85.3 373.5 86.4 373.3 88.8 Z M 390.1 85.4 C 390.1 85.4 389.73 85.43 389.7 85.4 C 387.3 85.4 386 86.8 386 89.4 C 386 89.4 386 95.4 386 95.4 L 384.5 95.4 L 384.5 84.1 L 386 84.1 C 386 84.1 385.98 86.18 386 86.2 C 386.5 84.7 387.9 84 389.6 84 C 389.61 83.98 390.1 84 390.1 84 L 390.1 85.4 Z M 392.1 84.1 L 393.6 84.1 C 393.6 84.1 393.6 85.97 393.6 86 C 394.2 84.6 395.4 83.9 396.9 83.9 C 398.5 83.9 399.9 84.8 400.2 86.2 C 400.7 85 402 83.9 403.9 83.9 C 405.9 83.9 407.6 85 407.6 87.3 C 407.56 87.3 407.6 95.4 407.6 95.4 L 406 95.4 C 406 95.4 406.03 87.84 406 87.8 C 406 86.1 405 85.3 403.6 85.3 C 402 85.3 400.6 86.6 400.6 88.9 C 400.57 88.93 400.6 95.4 400.6 95.4 L 399.1 95.4 C 399.1 95.4 399.06 87.84 399.1 87.8 C 399.1 86.1 398 85.3 396.7 85.3 C 395 85.3 393.6 86.5 393.6 88.9 C 393.62 88.93 393.6 95.4 393.6 95.4 L 392.1 95.4 L 392.1 84.1 Z M 411.9 95.3 C 411.91 95.26 410.9 95.3 410.9 95.3 L 410.9 93.2 L 413.1 93.2 C 413.1 93.2 413.13 95.32 413.1 95.3 C 413.1 97.8 411.7 98.7 410.1 98.8 C 410.1 98.8 409.9 97.9 409.9 97.9 C 411.6 97.6 411.9 96.6 411.9 95.3 Z " stroke="none" fill="#000"/>  </g>  <g id="Polygon11480">    <path d="M 7.3 60.2 C 7.3 60.2 6.95 60.23 7 60.2 C 4.6 60.2 3.2 61.6 3.2 64.2 C 3.21 64.2 3.2 70.2 3.2 70.2 L 1.7 70.2 L 1.7 58.9 L 3.2 58.9 C 3.2 58.9 3.19 60.98 3.2 61 C 3.7 59.5 5.1 58.8 6.8 58.8 C 6.82 58.78 7.3 58.8 7.3 58.8 L 7.3 60.2 Z M 9.9 64.9 C 9.9 67.7 11.6 69 13.6 69 C 15.1 69 16.6 68.3 16.9 66.7 C 16.9 66.7 18.4 66.7 18.4 66.7 C 17.9 69.3 15.7 70.4 13.5 70.4 C 10.9 70.4 8.4 68.6 8.4 64.6 C 8.4 60.5 10.9 58.7 13.6 58.7 C 16.3 58.7 18.5 60.4 18.5 64.2 C 18.46 64.15 18.5 64.9 18.5 64.9 C 18.5 64.9 9.87 64.91 9.9 64.9 Z M 9.9 63.6 C 9.9 63.6 16.9 63.6 16.9 63.6 C 16.9 61.3 15.4 60.1 13.5 60.1 C 11.8 60.1 10.1 61.2 9.9 63.6 Z M 30.8 69.7 C 30.8 73.1 28.6 74.8 25.7 74.8 C 23.2 74.8 21 73.5 20.6 70.9 C 20.6 70.9 22.2 70.9 22.2 70.9 C 22.4 72.3 23.4 73.5 25.7 73.5 C 27.8 73.5 29.3 72.4 29.3 69.8 C 29.3 69.8 29.3 67.5 29.3 67.5 C 28.5 69.2 26.8 69.8 25.3 69.8 C 22.6 69.8 20.3 67.9 20.3 64.2 C 20.3 60.5 22.7 58.7 25.4 58.7 C 27.2 58.7 28.6 59.5 29.3 60.7 C 29.27 60.73 29.3 58.9 29.3 58.9 L 30.8 58.9 C 30.8 58.9 30.79 69.68 30.8 69.7 Z M 29.2 64.2 C 29.2 61.4 27.5 60 25.6 60 C 23.7 60 21.9 61.4 21.9 64.2 C 21.9 67 23.6 68.4 25.6 68.4 C 27.4 68.4 29.2 67.2 29.2 64.2 Z M 41.5 70.2 C 41.5 70.2 41.45 68.04 41.5 68 C 40.7 69.6 39.3 70.3 37.7 70.3 C 35.6 70.3 33.9 69 33.9 66.4 C 33.94 66.36 33.9 58.9 33.9 58.9 L 35.5 58.9 C 35.5 58.9 35.47 66.17 35.5 66.2 C 35.5 68 36.5 69 38 69 C 39.8 69 41.4 67.6 41.4 64.7 C 41.39 64.74 41.4 58.9 41.4 58.9 L 42.9 58.9 L 42.9 70.2 L 41.5 70.2 Z M 47.8 70.2 L 46.3 70.2 L 46.3 54.2 L 47.8 54.2 L 47.8 70.2 Z M 58.1 68.1 C 57.2 69.8 55.5 70.4 54.1 70.4 C 52.2 70.4 50.4 69.3 50.4 67.1 C 50.4 65 51.9 64 53.9 63.8 C 53.9 63.8 56.5 63.4 56.5 63.4 C 57.4 63.3 58.1 63 58.1 62 C 58.1 60.7 57 60 55.4 60 C 53.7 60 52.6 60.8 52.4 62.1 C 52.4 62.1 50.9 62.1 50.9 62.1 C 51.2 59.8 53 58.7 55.5 58.7 C 58 58.7 59.6 59.9 59.6 62.4 C 59.6 62.39 59.6 70.2 59.6 70.2 L 58.1 70.2 C 58.1 70.2 58.11 68.12 58.1 68.1 Z M 56.2 64.7 C 56.2 64.7 54.5 64.9 54.5 64.9 C 53.1 65.1 52 65.6 52 67 C 52 68.4 53.1 69 54.3 69 C 56.1 69 58.1 67.7 58.1 65.3 C 58.1 65.3 58.1 64.2 58.1 64.2 C 57.6 64.5 57 64.6 56.2 64.7 Z M 67.9 70.2 C 67.9 70.2 66.23 70.18 66.2 70.2 C 64.7 70.2 63.4 69.7 63.4 67.2 C 63.4 67.22 63.4 60.3 63.4 60.3 L 61.2 60.3 L 61.2 58.9 L 63.4 58.9 L 63.4 55.7 L 64.9 55.3 L 64.9 58.9 L 67.7 58.9 L 67.7 60.3 L 64.9 60.3 C 64.9 60.3 64.93 67.2 64.9 67.2 C 64.9 68.2 65.2 68.8 66.5 68.8 C 66.49 68.8 67.9 68.8 67.9 68.8 L 67.9 70.2 Z M 69.4 64.6 C 69.4 60.9 71.6 58.7 74.7 58.7 C 77.8 58.7 80.1 60.9 80.1 64.6 C 80.1 68.2 77.8 70.4 74.7 70.4 C 71.6 70.4 69.4 68.2 69.4 64.6 Z M 78.5 64.5 C 78.5 61.7 76.8 60.1 74.7 60.1 C 72.5 60.1 70.9 61.8 70.9 64.6 C 70.9 67.4 72.6 69 74.7 69 C 76.9 69 78.5 67.3 78.5 64.5 Z M 88.3 60.2 C 88.3 60.2 87.95 60.23 87.9 60.2 C 85.6 60.2 84.2 61.6 84.2 64.2 C 84.21 64.2 84.2 70.2 84.2 70.2 L 82.7 70.2 L 82.7 58.9 L 84.2 58.9 C 84.2 58.9 84.19 60.98 84.2 61 C 84.7 59.5 86.1 58.8 87.8 58.8 C 87.82 58.78 88.3 58.8 88.3 58.8 L 88.3 60.2 Z M 94 72.3 C 93.6 73.5 92.6 73.9 91.4 73.9 C 91.43 73.88 90.3 73.9 90.3 73.9 L 90.3 72.5 C 90.3 72.5 91.22 72.51 91.2 72.5 C 92.2 72.5 92.7 72.2 93 71.2 C 93.03 71.19 93.6 69.7 93.6 69.7 L 89.4 58.9 L 91 58.9 L 94.3 67.8 L 97.6 58.9 L 99.1 58.9 C 99.1 58.9 94.04 72.32 94 72.3 Z M 110.5 70.4 C 107.4 70.4 105.2 68.1 105.2 64.6 C 105.2 61 107.3 58.7 110.6 58.7 C 113.1 58.7 115.1 60.1 115.2 62.6 C 115.2 62.6 113.8 62.6 113.8 62.6 C 113.6 61 112.2 60.1 110.6 60.1 C 108.4 60.1 106.8 61.8 106.8 64.5 C 106.8 67.3 108.3 69 110.5 69 C 112.2 69 113.6 68 113.7 66.2 C 113.7 66.2 115.2 66.2 115.2 66.2 C 115.1 68.9 113 70.4 110.5 70.4 Z M 127 62.5 C 127.03 62.45 127 70.2 127 70.2 L 125.5 70.2 C 125.5 70.2 125.49 62.64 125.5 62.6 C 125.5 61.1 124.6 60.1 123 60.1 C 121.1 60.1 119.4 61.5 119.4 64.3 C 119.4 64.26 119.4 70.2 119.4 70.2 L 117.9 70.2 L 117.9 54.2 L 119.4 54.2 C 119.4 54.2 119.4 60.88 119.4 60.9 C 120.1 59.6 121.3 58.7 123.3 58.7 C 125.6 58.7 127 60 127 62.5 Z M 137.2 68.1 C 136.3 69.8 134.6 70.4 133.2 70.4 C 131.3 70.4 129.5 69.3 129.5 67.1 C 129.5 65 131 64 133 63.8 C 133 63.8 135.6 63.4 135.6 63.4 C 136.5 63.3 137.2 63 137.2 62 C 137.2 60.7 136.1 60 134.5 60 C 132.8 60 131.8 60.8 131.5 62.1 C 131.5 62.1 130 62.1 130 62.1 C 130.3 59.8 132.1 58.7 134.6 58.7 C 137.1 58.7 138.7 59.9 138.7 62.4 C 138.7 62.39 138.7 70.2 138.7 70.2 L 137.2 70.2 C 137.2 70.2 137.21 68.12 137.2 68.1 Z M 135.3 64.7 C 135.3 64.7 133.6 64.9 133.6 64.9 C 132.2 65.1 131.1 65.6 131.1 67 C 131.1 68.4 132.2 69 133.5 69 C 135.2 69 137.2 67.7 137.2 65.3 C 137.2 65.3 137.2 64.2 137.2 64.2 C 136.7 64.5 136.1 64.6 135.3 64.7 Z M 151 62.5 C 151.01 62.45 151 70.2 151 70.2 L 149.5 70.2 C 149.5 70.2 149.48 62.64 149.5 62.6 C 149.5 61.1 148.6 60.1 147 60.1 C 145.1 60.1 143.4 61.5 143.4 64.3 C 143.39 64.26 143.4 70.2 143.4 70.2 L 141.9 70.2 L 141.9 58.9 L 143.4 58.9 C 143.4 58.9 143.39 61 143.4 61 C 144.1 59.7 145.3 58.7 147.3 58.7 C 149.5 58.7 151 60 151 62.5 Z M 164 69.7 C 164 73.1 161.8 74.8 158.9 74.8 C 156.4 74.8 154.1 73.5 153.8 70.9 C 153.8 70.9 155.3 70.9 155.3 70.9 C 155.6 72.3 156.6 73.5 158.9 73.5 C 160.9 73.5 162.5 72.4 162.5 69.8 C 162.5 69.8 162.5 67.5 162.5 67.5 C 161.7 69.2 160 69.8 158.5 69.8 C 155.8 69.8 153.5 67.9 153.5 64.2 C 153.5 60.5 155.9 58.7 158.6 58.7 C 160.4 58.7 161.8 59.5 162.5 60.7 C 162.45 60.73 162.5 58.9 162.5 58.9 L 164 58.9 C 164 58.9 163.97 69.68 164 69.7 Z M 162.4 64.2 C 162.4 61.4 160.7 60 158.8 60 C 156.8 60 155 61.4 155 64.2 C 155 67 156.8 68.4 158.8 68.4 C 160.6 68.4 162.4 67.2 162.4 64.2 Z M 168 64.9 C 168 67.7 169.8 69 171.8 69 C 173.2 69 174.7 68.3 175.1 66.7 C 175.1 66.7 176.5 66.7 176.5 66.7 C 176 69.3 173.8 70.4 171.7 70.4 C 169 70.4 166.5 68.6 166.5 64.6 C 166.5 60.5 169 58.7 171.7 58.7 C 174.4 58.7 176.6 60.4 176.6 64.2 C 176.59 64.15 176.6 64.9 176.6 64.9 C 176.6 64.9 168 64.91 168 64.9 Z M 168 63.6 C 168 63.6 175 63.6 175 63.6 C 175 61.3 173.6 60.1 171.7 60.1 C 169.9 60.1 168.2 61.2 168 63.6 Z M 189.4 70.2 C 189.4 70.2 187.74 70.18 187.7 70.2 C 186.2 70.2 184.9 69.7 184.9 67.2 C 184.9 67.22 184.9 60.3 184.9 60.3 L 182.7 60.3 L 182.7 58.9 L 184.9 58.9 L 184.9 55.7 L 186.4 55.3 L 186.4 58.9 L 189.2 58.9 L 189.2 60.3 L 186.4 60.3 C 186.4 60.3 186.44 67.2 186.4 67.2 C 186.4 68.2 186.7 68.8 188 68.8 C 187.99 68.8 189.4 68.8 189.4 68.8 L 189.4 70.2 Z M 190.9 64.6 C 190.9 60.9 193.1 58.7 196.2 58.7 C 199.3 58.7 201.6 60.9 201.6 64.6 C 201.6 68.2 199.3 70.4 196.2 70.4 C 193.1 70.4 190.9 68.2 190.9 64.6 Z M 200 64.5 C 200 61.7 198.3 60.1 196.2 60.1 C 194 60.1 192.4 61.8 192.4 64.6 C 192.4 67.4 194.1 69 196.2 69 C 198.4 69 200 67.3 200 64.5 Z M 214.4 70.2 C 214.4 70.2 212.71 70.18 212.7 70.2 C 211.2 70.2 209.9 69.7 209.9 67.2 C 209.87 67.22 209.9 60.3 209.9 60.3 L 207.6 60.3 L 207.6 58.9 L 209.9 58.9 L 209.9 55.7 L 211.4 55.3 L 211.4 58.9 L 214.1 58.9 L 214.1 60.3 L 211.4 60.3 C 211.4 60.3 211.4 67.2 211.4 67.2 C 211.4 68.2 211.7 68.8 213 68.8 C 212.96 68.8 214.4 68.8 214.4 68.8 L 214.4 70.2 Z M 222.2 60.2 C 222.2 60.2 221.84 60.23 221.8 60.2 C 219.4 60.2 218.1 61.6 218.1 64.2 C 218.1 64.2 218.1 70.2 218.1 70.2 L 216.6 70.2 L 216.6 58.9 L 218.1 58.9 C 218.1 58.9 218.08 60.98 218.1 61 C 218.6 59.5 220 58.8 221.7 58.8 C 221.72 58.78 222.2 58.8 222.2 58.8 L 222.2 60.2 Z M 227.9 72.3 C 227.5 73.5 226.5 73.9 225.3 73.9 C 225.33 73.88 224.2 73.9 224.2 73.9 L 224.2 72.5 C 224.2 72.5 225.12 72.51 225.1 72.5 C 226.1 72.5 226.6 72.2 226.9 71.2 C 226.92 71.19 227.4 69.7 227.4 69.7 L 223.2 58.9 L 224.9 58.9 L 228.2 67.8 L 231.5 58.9 L 233 58.9 C 233 58.9 227.93 72.32 227.9 72.3 Z M 245.2 70.2 C 245.2 70.2 243.55 70.18 243.6 70.2 C 242.1 70.2 240.7 69.7 240.7 67.2 C 240.72 67.22 240.7 60.3 240.7 60.3 L 238.5 60.3 L 238.5 58.9 L 240.7 58.9 L 240.7 55.7 L 242.3 55.3 L 242.3 58.9 L 245 58.9 L 245 60.3 L 242.3 60.3 C 242.3 60.3 242.25 67.2 242.3 67.2 C 242.3 68.2 242.5 68.8 243.8 68.8 C 243.81 68.8 245.2 68.8 245.2 68.8 L 245.2 70.2 Z M 246.7 64.6 C 246.7 60.9 248.9 58.7 252 58.7 C 255.1 58.7 257.4 60.9 257.4 64.6 C 257.4 68.2 255.1 70.4 252 70.4 C 248.9 70.4 246.7 68.2 246.7 64.6 Z M 255.8 64.5 C 255.8 61.7 254.1 60.1 252 60.1 C 249.8 60.1 248.3 61.8 248.3 64.6 C 248.3 67.4 250 69 252.1 69 C 254.2 69 255.8 67.3 255.8 64.5 Z M 265.2 58.9 L 266.8 58.9 C 266.8 58.9 266.76 60.77 266.8 60.8 C 267.4 59.4 268.6 58.7 270 58.7 C 271.7 58.7 273 59.6 273.4 61 C 273.9 59.8 275.1 58.7 277.1 58.7 C 279.1 58.7 280.7 59.8 280.7 62.1 C 280.72 62.1 280.7 70.2 280.7 70.2 L 279.2 70.2 C 279.2 70.2 279.19 62.64 279.2 62.6 C 279.2 60.9 278.1 60.1 276.8 60.1 C 275.1 60.1 273.7 61.4 273.7 63.7 C 273.73 63.73 273.7 70.2 273.7 70.2 L 272.2 70.2 C 272.2 70.2 272.22 62.64 272.2 62.6 C 272.2 60.9 271.2 60.1 269.8 60.1 C 268.2 60.1 266.8 61.3 266.8 63.7 C 266.78 63.73 266.8 70.2 266.8 70.2 L 265.2 70.2 L 265.2 58.9 Z M 290.9 68.1 C 290 69.8 288.3 70.4 286.9 70.4 C 285 70.4 283.2 69.3 283.2 67.1 C 283.2 65 284.7 64 286.7 63.8 C 286.7 63.8 289.3 63.4 289.3 63.4 C 290.2 63.3 290.9 63 290.9 62 C 290.9 60.7 289.8 60 288.2 60 C 286.5 60 285.4 60.8 285.2 62.1 C 285.2 62.1 283.7 62.1 283.7 62.1 C 284 59.8 285.8 58.7 288.3 58.7 C 290.8 58.7 292.4 59.9 292.4 62.4 C 292.4 62.39 292.4 70.2 292.4 70.2 L 290.9 70.2 C 290.9 70.2 290.91 68.12 290.9 68.1 Z M 289 64.7 C 289 64.7 287.3 64.9 287.3 64.9 C 285.9 65.1 284.8 65.6 284.8 67 C 284.8 68.4 285.9 69 287.2 69 C 288.9 69 290.9 67.7 290.9 65.3 C 290.9 65.3 290.9 64.2 290.9 64.2 C 290.4 64.5 289.8 64.6 289 64.7 Z M 299.1 64.7 L 297.1 66.8 L 297.1 70.2 L 295.6 70.2 L 295.6 54.2 L 297.1 54.2 L 297.1 64.9 L 302.6 58.9 L 304.6 58.9 L 300.1 63.6 L 304.9 70.2 L 303.1 70.2 L 299.1 64.7 Z M 307.3 64.9 C 307.3 67.7 309.1 69 311 69 C 312.5 69 314 68.3 314.3 66.7 C 314.3 66.7 315.8 66.7 315.8 66.7 C 315.3 69.3 313.1 70.4 311 70.4 C 308.3 70.4 305.8 68.6 305.8 64.6 C 305.8 60.5 308.3 58.7 311 58.7 C 313.7 58.7 315.9 60.4 315.9 64.2 C 315.88 64.15 315.9 64.9 315.9 64.9 C 315.9 64.9 307.29 64.91 307.3 64.9 Z M 307.3 63.6 C 307.3 63.6 314.3 63.6 314.3 63.6 C 314.3 61.3 312.9 60.1 311 60.1 C 309.2 60.1 307.5 61.2 307.3 63.6 Z M 328.7 70.2 C 328.7 70.2 327.03 70.18 327 70.2 C 325.5 70.2 324.2 69.7 324.2 67.2 C 324.19 67.22 324.2 60.3 324.2 60.3 L 322 60.3 L 322 58.9 L 324.2 58.9 L 324.2 55.7 L 325.7 55.3 L 325.7 58.9 L 328.5 58.9 L 328.5 60.3 L 325.7 60.3 C 325.7 60.3 325.73 67.2 325.7 67.2 C 325.7 68.2 326 68.8 327.3 68.8 C 327.28 68.8 328.7 68.8 328.7 68.8 L 328.7 70.2 Z M 340 62.5 C 340.05 62.45 340 70.2 340 70.2 L 338.5 70.2 C 338.5 70.2 338.52 62.64 338.5 62.6 C 338.5 61.1 337.6 60.1 336 60.1 C 334.1 60.1 332.4 61.5 332.4 64.3 C 332.43 64.26 332.4 70.2 332.4 70.2 L 330.9 70.2 L 330.9 54.2 L 332.4 54.2 C 332.4 54.2 332.43 60.88 332.4 60.9 C 333.1 59.6 334.3 58.7 336.3 58.7 C 338.6 58.7 340 60 340 62.5 Z M 344.1 64.9 C 344.1 67.7 345.8 69 347.8 69 C 349.3 69 350.8 68.3 351.1 66.7 C 351.1 66.7 352.6 66.7 352.6 66.7 C 352.1 69.3 349.9 70.4 347.8 70.4 C 345.1 70.4 342.6 68.6 342.6 64.6 C 342.6 60.5 345.1 58.7 347.8 58.7 C 350.5 58.7 352.7 60.4 352.7 64.2 C 352.67 64.15 352.7 64.9 352.7 64.9 C 352.7 64.9 344.08 64.91 344.1 64.9 Z M 344.1 63.6 C 344.1 63.6 351.1 63.6 351.1 63.6 C 351.1 61.3 349.6 60.1 347.8 60.1 C 346 60.1 344.3 61.2 344.1 63.6 Z M 355.3 58.9 L 356.8 58.9 C 356.8 58.9 356.81 60.77 356.8 60.8 C 357.4 59.4 358.7 58.7 360.1 58.7 C 361.7 58.7 363.1 59.6 363.4 61 C 363.9 59.8 365.2 58.7 367.1 58.7 C 369.2 58.7 370.8 59.8 370.8 62.1 C 370.77 62.1 370.8 70.2 370.8 70.2 L 369.2 70.2 C 369.2 70.2 369.24 62.64 369.2 62.6 C 369.2 60.9 368.2 60.1 366.8 60.1 C 365.2 60.1 363.8 61.4 363.8 63.7 C 363.78 63.73 363.8 70.2 363.8 70.2 L 362.3 70.2 C 362.3 70.2 362.27 62.64 362.3 62.6 C 362.3 60.9 361.2 60.1 359.9 60.1 C 358.2 60.1 356.8 61.3 356.8 63.7 C 356.83 63.73 356.8 70.2 356.8 70.2 L 355.3 70.2 L 355.3 58.9 Z M 379.7 58.9 L 381.2 58.9 C 381.2 58.9 381.21 60.77 381.2 60.8 C 381.8 59.4 383.1 58.7 384.5 58.7 C 386.1 58.7 387.5 59.6 387.8 61 C 388.3 59.8 389.6 58.7 391.5 58.7 C 393.6 58.7 395.2 59.8 395.2 62.1 C 395.17 62.1 395.2 70.2 395.2 70.2 L 393.6 70.2 C 393.6 70.2 393.64 62.64 393.6 62.6 C 393.6 60.9 392.6 60.1 391.2 60.1 C 389.6 60.1 388.2 61.4 388.2 63.7 C 388.18 63.73 388.2 70.2 388.2 70.2 L 386.7 70.2 C 386.7 70.2 386.67 62.64 386.7 62.6 C 386.7 60.9 385.6 60.1 384.3 60.1 C 382.6 60.1 381.2 61.3 381.2 63.7 C 381.23 63.73 381.2 70.2 381.2 70.2 L 379.7 70.2 L 379.7 58.9 Z M 397.7 64.6 C 397.7 60.9 399.9 58.7 403 58.7 C 406.1 58.7 408.4 60.9 408.4 64.6 C 408.4 68.2 406.2 70.4 403 70.4 C 399.9 70.4 397.7 68.2 397.7 64.6 Z M 406.8 64.5 C 406.8 61.7 405.1 60.1 403 60.1 C 400.8 60.1 399.3 61.8 399.3 64.6 C 399.3 67.4 401 69 403.1 69 C 405.3 69 406.8 67.3 406.8 64.5 Z M 416.6 60.2 C 416.6 60.2 416.28 60.23 416.3 60.2 C 413.9 60.2 412.5 61.6 412.5 64.2 C 412.54 64.2 412.5 70.2 412.5 70.2 L 411 70.2 L 411 58.9 L 412.5 58.9 C 412.5 58.9 412.52 60.98 412.5 61 C 413 59.5 414.4 58.8 416.2 58.8 C 416.15 58.78 416.6 58.8 416.6 58.8 L 416.6 60.2 Z M 419.2 64.9 C 419.2 67.7 421 69 423 69 C 424.4 69 425.9 68.3 426.3 66.7 C 426.3 66.7 427.7 66.7 427.7 66.7 C 427.2 69.3 425 70.4 422.9 70.4 C 420.2 70.4 417.7 68.6 417.7 64.6 C 417.7 60.5 420.2 58.7 422.9 58.7 C 425.6 58.7 427.8 60.4 427.8 64.2 C 427.79 64.15 427.8 64.9 427.8 64.9 C 427.8 64.9 419.2 64.91 419.2 64.9 Z M 419.2 63.6 C 419.2 63.6 426.2 63.6 426.2 63.6 C 426.2 61.3 424.8 60.1 422.9 60.1 C 421.1 60.1 419.4 61.2 419.2 63.6 Z " stroke="none" fill="#000"/>  </g>  <g id="Polygon11479">    <path d="M 6.8 45 C 6.8 45 5.17 44.98 5.2 45 C 3.7 45 2.3 44.5 2.3 42 C 2.33 42.02 2.3 35.1 2.3 35.1 L 0.1 35.1 L 0.1 33.7 L 2.3 33.7 L 2.3 30.5 L 3.9 30.1 L 3.9 33.7 L 6.6 33.7 L 6.6 35.1 L 3.9 35.1 C 3.9 35.1 3.86 42 3.9 42 C 3.9 43 4.2 43.6 5.4 43.6 C 5.42 43.6 6.8 43.6 6.8 43.6 L 6.8 45 Z M 18.2 37.3 C 18.19 37.25 18.2 45 18.2 45 L 16.7 45 C 16.7 45 16.65 37.44 16.7 37.4 C 16.7 35.9 15.8 34.9 14.2 34.9 C 12.2 34.9 10.6 36.3 10.6 39.1 C 10.56 39.06 10.6 45 10.6 45 L 9 45 L 9 29 L 10.6 29 C 10.6 29 10.56 35.68 10.6 35.7 C 11.2 34.4 12.4 33.5 14.4 33.5 C 16.7 33.5 18.2 34.8 18.2 37.3 Z M 28.4 42.9 C 27.5 44.6 25.8 45.2 24.4 45.2 C 22.4 45.2 20.7 44.1 20.7 41.9 C 20.7 39.8 22.2 38.8 24.1 38.6 C 24.1 38.6 26.8 38.2 26.8 38.2 C 27.6 38.1 28.4 37.8 28.4 36.8 C 28.4 35.5 27.2 34.8 25.6 34.8 C 23.9 34.8 22.9 35.6 22.7 36.9 C 22.7 36.9 21.1 36.9 21.1 36.9 C 21.5 34.6 23.3 33.5 25.7 33.5 C 28.3 33.5 29.9 34.7 29.9 37.2 C 29.86 37.19 29.9 45 29.9 45 L 28.4 45 C 28.4 45 28.37 42.92 28.4 42.9 Z M 26.5 39.5 C 26.5 39.5 24.8 39.7 24.8 39.7 C 23.4 39.9 22.3 40.4 22.3 41.8 C 22.3 43.2 23.4 43.8 24.6 43.8 C 26.4 43.8 28.3 42.5 28.3 40.1 C 28.3 40.1 28.3 39 28.3 39 C 27.9 39.3 27.3 39.4 26.5 39.5 Z M 38.2 45 C 38.2 45 36.5 44.98 36.5 45 C 35 45 33.7 44.5 33.7 42 C 33.66 42.02 33.7 35.1 33.7 35.1 L 31.4 35.1 L 31.4 33.7 L 33.7 33.7 L 33.7 30.5 L 35.2 30.1 L 35.2 33.7 L 37.9 33.7 L 37.9 35.1 L 35.2 35.1 C 35.2 35.1 35.2 42 35.2 42 C 35.2 43 35.5 43.6 36.7 43.6 C 36.75 43.6 38.2 43.6 38.2 43.6 L 38.2 45 Z M 51.4 35 C 51.4 35 51.09 35.03 51.1 35 C 48.7 35 47.4 36.4 47.4 39 C 47.35 39 47.4 45 47.4 45 L 45.8 45 L 45.8 33.7 L 47.3 33.7 C 47.3 33.7 47.33 35.78 47.3 35.8 C 47.9 34.3 49.2 33.6 51 33.6 C 50.97 33.58 51.4 33.6 51.4 33.6 L 51.4 35 Z M 54 39.7 C 54.1 42.5 55.8 43.8 57.8 43.8 C 59.3 43.8 60.7 43.1 61.1 41.5 C 61.1 41.5 62.5 41.5 62.5 41.5 C 62 44.1 59.8 45.2 57.7 45.2 C 55 45.2 52.5 43.4 52.5 39.4 C 52.5 35.3 55 33.5 57.7 33.5 C 60.4 33.5 62.6 35.2 62.6 39 C 62.6 38.95 62.6 39.7 62.6 39.7 C 62.6 39.7 54.01 39.71 54 39.7 Z M 54.1 38.4 C 54.1 38.4 61 38.4 61 38.4 C 61 36.1 59.6 34.9 57.7 34.9 C 55.9 34.9 54.3 36 54.1 38.4 Z M 73.5 49.3 C 73.5 49.3 73.48 42.82 73.5 42.8 C 72.8 44.1 71.5 45.1 69.6 45.1 C 67.1 45.1 64.5 43.4 64.5 39.2 C 64.5 35.2 67.1 33.5 69.6 33.5 C 71.5 33.5 72.9 34.5 73.5 35.7 C 73.52 35.68 73.5 33.7 73.5 33.7 L 75 33.7 L 75 49.3 L 73.5 49.3 Z M 73.5 39.3 C 73.5 36.1 71.6 34.9 69.7 34.9 C 67.9 34.9 66.1 36.1 66.1 39.3 C 66.1 42.4 67.9 43.7 69.7 43.7 C 71.6 43.7 73.5 42.4 73.5 39.3 Z M 85.7 45 C 85.7 45 85.68 42.84 85.7 42.8 C 84.9 44.4 83.5 45.1 81.9 45.1 C 79.8 45.1 78.2 43.8 78.2 41.2 C 78.16 41.16 78.2 33.7 78.2 33.7 L 79.7 33.7 C 79.7 33.7 79.69 40.97 79.7 41 C 79.7 42.8 80.7 43.8 82.2 43.8 C 84 43.8 85.6 42.4 85.6 39.5 C 85.62 39.54 85.6 33.7 85.6 33.7 L 87.1 33.7 L 87.1 45 L 85.7 45 Z M 92.1 29 L 90.4 29 L 90.4 30.9 L 92.1 30.9 L 92.1 29 Z M 92 45 L 90.5 45 L 90.5 33.7 L 92 33.7 L 92 45 Z M 101 35 C 101 35 100.67 35.03 100.7 35 C 98.3 35 96.9 36.4 96.9 39 C 96.93 39 96.9 45 96.9 45 L 95.4 45 L 95.4 33.7 L 96.9 33.7 C 96.9 33.7 96.91 35.78 96.9 35.8 C 97.4 34.3 98.8 33.6 100.5 33.6 C 100.55 33.58 101 33.6 101 33.6 L 101 35 Z M 103.6 39.7 C 103.6 42.5 105.4 43.8 107.4 43.8 C 108.8 43.8 110.3 43.1 110.6 41.5 C 110.6 41.5 112.1 41.5 112.1 41.5 C 111.6 44.1 109.4 45.2 107.3 45.2 C 104.6 45.2 102.1 43.4 102.1 39.4 C 102.1 35.3 104.6 33.5 107.3 33.5 C 110 33.5 112.2 35.2 112.2 39 C 112.18 38.95 112.2 39.7 112.2 39.7 C 112.2 39.7 103.59 39.71 103.6 39.7 Z M 103.6 38.4 C 103.6 38.4 110.6 38.4 110.6 38.4 C 110.6 36.1 109.2 34.9 107.3 34.9 C 105.5 34.9 103.8 36 103.6 38.4 Z M 124.6 45 L 123.1 45 C 123.1 45 123.14 42.8 123.1 42.8 C 122.6 44.1 121.2 45.2 119.1 45.2 C 116.2 45.2 114.1 42.9 114.1 39.3 C 114.1 35.8 116.2 33.5 119.2 33.5 C 121.1 33.5 122.5 34.4 123.1 35.6 C 123.08 35.62 123.1 29 123.1 29 L 124.6 29 L 124.6 45 Z M 123.1 39.3 C 123.1 36.5 121.5 34.9 119.3 34.9 C 117.1 34.9 115.6 36.6 115.6 39.3 C 115.6 42.1 117.2 43.8 119.3 43.8 C 121.5 43.8 123.1 42.1 123.1 39.3 Z M 140.6 42.9 C 139.7 44.6 138 45.2 136.6 45.2 C 134.6 45.2 132.9 44.1 132.9 41.9 C 132.9 39.8 134.4 38.8 136.3 38.6 C 136.3 38.6 139 38.2 139 38.2 C 139.8 38.1 140.6 37.8 140.6 36.8 C 140.6 35.5 139.4 34.8 137.8 34.8 C 136.1 34.8 135.1 35.6 134.9 36.9 C 134.9 36.9 133.3 36.9 133.3 36.9 C 133.7 34.6 135.5 33.5 137.9 33.5 C 140.5 33.5 142.1 34.7 142.1 37.2 C 142.06 37.19 142.1 45 142.1 45 L 140.6 45 C 140.6 45 140.57 42.92 140.6 42.9 Z M 138.7 39.5 C 138.7 39.5 137 39.7 137 39.7 C 135.6 39.9 134.5 40.4 134.5 41.8 C 134.5 43.2 135.6 43.8 136.8 43.8 C 138.6 43.8 140.5 42.5 140.5 40.1 C 140.5 40.1 140.5 39 140.5 39 C 140.1 39.3 139.5 39.4 138.7 39.5 Z M 153.6 41.8 C 153.6 44.1 151.5 45.2 149.2 45.2 C 146.8 45.2 144.6 44 144.4 41.5 C 144.4 41.5 146 41.5 146 41.5 C 146.3 43.2 147.7 43.8 149.3 43.8 C 150.7 43.8 152 43.3 152 42 C 152 40.7 150.7 40.4 149.4 40.2 C 147.2 39.8 144.6 39.4 144.6 36.8 C 144.6 34.6 146.6 33.5 148.9 33.5 C 151.3 33.5 153.2 34.6 153.3 36.9 C 153.3 36.9 151.7 36.9 151.7 36.9 C 151.6 35.5 150.3 34.9 148.8 34.9 C 147.3 34.9 146.2 35.6 146.2 36.7 C 146.2 38.2 147.6 38.4 149.3 38.7 C 151.3 39 153.6 39.3 153.6 41.8 Z M 164.5 41.8 C 164.5 44.1 162.4 45.2 160.1 45.2 C 157.7 45.2 155.5 44 155.3 41.5 C 155.3 41.5 156.9 41.5 156.9 41.5 C 157.2 43.2 158.6 43.8 160.2 43.8 C 161.6 43.8 162.9 43.3 162.9 42 C 162.9 40.7 161.6 40.4 160.3 40.2 C 158.1 39.8 155.5 39.4 155.5 36.8 C 155.5 34.6 157.5 33.5 159.8 33.5 C 162.2 33.5 164.1 34.6 164.2 36.9 C 164.2 36.9 162.6 36.9 162.6 36.9 C 162.5 35.5 161.2 34.9 159.7 34.9 C 158.2 34.9 157.1 35.6 157.1 36.7 C 157.1 38.2 158.5 38.4 160.2 38.7 C 162.2 39 164.5 39.3 164.5 41.8 Z M 168.6 29 L 166.9 29 L 166.9 30.9 L 168.6 30.9 L 168.6 29 Z M 168.5 45 L 167 45 L 167 33.7 L 168.5 33.7 L 168.5 45 Z M 180.3 41.8 C 180.3 44.1 178.2 45.2 175.9 45.2 C 173.5 45.2 171.3 44 171.1 41.5 C 171.1 41.5 172.7 41.5 172.7 41.5 C 173 43.2 174.4 43.8 176 43.8 C 177.4 43.8 178.7 43.3 178.7 42 C 178.7 40.7 177.4 40.4 176.1 40.2 C 173.9 39.8 171.3 39.4 171.3 36.8 C 171.3 34.6 173.3 33.5 175.6 33.5 C 178 33.5 179.9 34.6 180 36.9 C 180 36.9 178.4 36.9 178.4 36.9 C 178.3 35.5 177 34.9 175.5 34.9 C 174 34.9 172.9 35.6 172.9 36.7 C 172.9 38.2 174.3 38.4 176 38.7 C 178 39 180.3 39.3 180.3 41.8 Z M 187.9 45 C 187.9 45 186.29 44.98 186.3 45 C 184.8 45 183.5 44.5 183.5 42 C 183.45 42.02 183.5 35.1 183.5 35.1 L 181.2 35.1 L 181.2 33.7 L 183.5 33.7 L 183.5 30.5 L 185 30.1 L 185 33.7 L 187.7 33.7 L 187.7 35.1 L 185 35.1 C 185 35.1 184.99 42 185 42 C 185 43 185.3 43.6 186.5 43.6 C 186.54 43.6 187.9 43.6 187.9 43.6 L 187.9 45 Z M 197.1 42.9 C 196.2 44.6 194.5 45.2 193.1 45.2 C 191.1 45.2 189.4 44.1 189.4 41.9 C 189.4 39.8 190.9 38.8 192.8 38.6 C 192.8 38.6 195.5 38.2 195.5 38.2 C 196.3 38.1 197.1 37.8 197.1 36.8 C 197.1 35.5 195.9 34.8 194.4 34.8 C 192.7 34.8 191.6 35.6 191.4 36.9 C 191.4 36.9 189.9 36.9 189.9 36.9 C 190.2 34.6 192 33.5 194.5 33.5 C 197 33.5 198.6 34.7 198.6 37.2 C 198.57 37.19 198.6 45 198.6 45 L 197.1 45 C 197.1 45 197.08 42.92 197.1 42.9 Z M 195.2 39.5 C 195.2 39.5 193.5 39.7 193.5 39.7 C 192.1 39.9 191 40.4 191 41.8 C 191 43.2 192.1 43.8 193.3 43.8 C 195.1 43.8 197 42.5 197 40.1 C 197 40.1 197 39 197 39 C 196.6 39.3 196 39.4 195.2 39.5 Z M 210.9 37.3 C 210.88 37.25 210.9 45 210.9 45 L 209.3 45 C 209.3 45 209.35 37.44 209.3 37.4 C 209.3 35.9 208.5 34.9 206.9 34.9 C 204.9 34.9 203.3 36.3 203.3 39.1 C 203.26 39.06 203.3 45 203.3 45 L 201.7 45 L 201.7 33.7 L 203.3 33.7 C 203.3 33.7 203.26 35.8 203.3 35.8 C 203.9 34.5 205.2 33.5 207.2 33.5 C 209.4 33.5 210.9 34.8 210.9 37.3 Z M 218.6 45.2 C 215.5 45.2 213.4 42.9 213.4 39.4 C 213.4 35.8 215.5 33.5 218.8 33.5 C 221.3 33.5 223.2 34.9 223.4 37.4 C 223.4 37.4 221.9 37.4 221.9 37.4 C 221.8 35.8 220.4 34.9 218.7 34.9 C 216.5 34.9 215 36.6 215 39.3 C 215 42.1 216.5 43.8 218.7 43.8 C 220.4 43.8 221.8 42.8 221.9 41 C 221.9 41 223.4 41 223.4 41 C 223.2 43.7 221.1 45.2 218.6 45.2 Z M 226.8 39.7 C 226.9 42.5 228.6 43.8 230.6 43.8 C 232.1 43.8 233.5 43.1 233.9 41.5 C 233.9 41.5 235.3 41.5 235.3 41.5 C 234.8 44.1 232.6 45.2 230.5 45.2 C 227.8 45.2 225.3 43.4 225.3 39.4 C 225.3 35.3 227.8 33.5 230.6 33.5 C 233.2 33.5 235.4 35.2 235.4 39 C 235.41 38.95 235.4 39.7 235.4 39.7 C 235.4 39.7 226.82 39.71 226.8 39.7 Z M 226.9 38.4 C 226.9 38.4 233.9 38.4 233.9 38.4 C 233.9 36.1 232.4 34.9 230.5 34.9 C 228.7 34.9 227.1 36 226.9 38.4 Z M 244.9 29 L 243.2 29 L 243.2 30.9 L 244.9 30.9 L 244.9 29 Z M 244.8 45 L 243.3 45 L 243.3 33.7 L 244.8 33.7 L 244.8 45 Z M 257.3 37.3 C 257.33 37.25 257.3 45 257.3 45 L 255.8 45 C 255.8 45 255.8 37.44 255.8 37.4 C 255.8 35.9 254.9 34.9 253.3 34.9 C 251.4 34.9 249.7 36.3 249.7 39.1 C 249.71 39.06 249.7 45 249.7 45 L 248.2 45 L 248.2 33.7 L 249.7 33.7 C 249.7 33.7 249.71 35.8 249.7 35.8 C 250.4 34.5 251.6 33.5 253.6 33.5 C 255.9 33.5 257.3 34.8 257.3 37.3 Z M 276.3 45 L 265.6 45 L 265.6 43.5 C 265.6 43.5 269.55 39.96 269.6 40 C 272.2 37.5 274.1 36 274.1 33.7 C 274.1 31.8 272.7 30.7 270.8 30.7 C 268.9 30.7 267.2 31.8 267.1 34.3 C 267.1 34.3 265.5 34.3 265.5 34.3 C 265.6 30.9 268.1 29.2 270.9 29.2 C 273.6 29.2 275.7 30.8 275.7 33.6 C 275.7 36.2 274 37.8 271.2 40.4 C 271.19 40.36 267.6 43.6 267.6 43.6 L 276.3 43.6 L 276.3 45 Z M 278.4 37.3 C 278.4 32.4 279.9 29.2 283.5 29.2 C 287 29.2 288.6 32.4 288.6 37.2 C 288.6 42.1 287 45.2 283.5 45.2 C 279.9 45.2 278.4 42.1 278.4 37.3 Z M 287 37.3 C 287 33.7 286 30.7 283.4 30.7 C 281 30.7 279.9 33.3 279.9 37.1 C 279.9 41 281 43.7 283.5 43.7 C 286 43.7 287 41.1 287 37.3 Z M 301.5 45 L 290.8 45 L 290.8 43.5 C 290.8 43.5 294.75 39.96 294.8 40 C 297.4 37.5 299.3 36 299.3 33.7 C 299.3 31.8 297.9 30.7 296 30.7 C 294.1 30.7 292.4 31.8 292.3 34.3 C 292.3 34.3 290.7 34.3 290.7 34.3 C 290.8 30.9 293.3 29.2 296.1 29.2 C 298.8 29.2 300.9 30.8 300.9 33.6 C 300.9 36.2 299.2 37.8 296.4 40.4 C 296.39 40.36 292.8 43.6 292.8 43.6 L 301.5 43.6 L 301.5 45 Z M 303.6 37.3 C 303.6 32.4 305.1 29.2 308.7 29.2 C 312.2 29.2 313.8 32.4 313.8 37.2 C 313.8 42.1 312.2 45.2 308.7 45.2 C 305.1 45.2 303.6 42.1 303.6 37.3 Z M 312.2 37.3 C 312.2 33.7 311.2 30.7 308.6 30.7 C 306.2 30.7 305.1 33.3 305.1 37.1 C 305.1 41 306.2 43.7 308.7 43.7 C 311.2 43.7 312.2 41.1 312.2 37.3 Z M 322.3 33.7 L 323.8 33.7 C 323.8 33.7 323.84 35.57 323.8 35.6 C 324.4 34.2 325.7 33.5 327.1 33.5 C 328.8 33.5 330.1 34.4 330.5 35.8 C 331 34.6 332.2 33.5 334.1 33.5 C 336.2 33.5 337.8 34.6 337.8 36.9 C 337.8 36.9 337.8 45 337.8 45 L 336.3 45 C 336.3 45 336.27 37.44 336.3 37.4 C 336.3 35.7 335.2 34.9 333.9 34.9 C 332.2 34.9 330.8 36.2 330.8 38.5 C 330.81 38.53 330.8 45 330.8 45 L 329.3 45 C 329.3 45 329.3 37.44 329.3 37.4 C 329.3 35.7 328.3 34.9 326.9 34.9 C 325.3 34.9 323.9 36.1 323.9 38.5 C 323.86 38.53 323.9 45 323.9 45 L 322.3 45 L 322.3 33.7 Z M 348 42.9 C 347.1 44.6 345.4 45.2 344 45.2 C 342 45.2 340.3 44.1 340.3 41.9 C 340.3 39.8 341.8 38.8 343.7 38.6 C 343.7 38.6 346.4 38.2 346.4 38.2 C 347.3 38.1 348 37.8 348 36.8 C 348 35.5 346.8 34.8 345.3 34.8 C 343.6 34.8 342.5 35.6 342.3 36.9 C 342.3 36.9 340.8 36.9 340.8 36.9 C 341.1 34.6 342.9 33.5 345.4 33.5 C 347.9 33.5 349.5 34.7 349.5 37.2 C 349.48 37.19 349.5 45 349.5 45 L 348 45 C 348 45 347.99 42.92 348 42.9 Z M 346.1 39.5 C 346.1 39.5 344.4 39.7 344.4 39.7 C 343 39.9 341.9 40.4 341.9 41.8 C 341.9 43.2 343 43.8 344.2 43.8 C 346 43.8 347.9 42.5 347.9 40.1 C 347.9 40.1 347.9 39 347.9 39 C 347.5 39.3 346.9 39.4 346.1 39.5 Z M 355.9 47.1 C 355.5 48.3 354.5 48.7 353.3 48.7 C 353.34 48.68 352.2 48.7 352.2 48.7 L 352.2 47.3 C 352.2 47.3 353.13 47.31 353.1 47.3 C 354.1 47.3 354.6 47 354.9 46 C 354.94 45.99 355.5 44.5 355.5 44.5 L 351.3 33.7 L 352.9 33.7 L 356.2 42.6 L 359.5 33.7 L 361 33.7 C 361 33.7 355.94 47.12 355.9 47.1 Z M 371.7 30.3 C 370.4 30.3 370.1 30.9 370.1 32 C 370.12 31.96 370.1 33.7 370.1 33.7 L 372.6 33.7 L 372.6 35.1 L 370.1 35.1 L 370.1 45 L 368.6 45 L 368.6 35.1 L 366.7 35.1 L 366.7 33.7 L 368.6 33.7 C 368.6 33.7 368.59 31.92 368.6 31.9 C 368.6 29.4 369.9 29 371.4 29 C 371.42 28.98 372.9 29 372.9 29 L 372.9 30.3 C 372.9 30.3 371.67 30.34 371.7 30.3 Z M 381.8 42.9 C 381 44.6 379.3 45.2 377.8 45.2 C 375.9 45.2 374.2 44.1 374.2 41.9 C 374.2 39.8 375.7 38.8 377.6 38.6 C 377.6 38.6 380.3 38.2 380.3 38.2 C 381.1 38.1 381.8 37.8 381.8 36.8 C 381.8 35.5 380.7 34.8 379.1 34.8 C 377.4 34.8 376.4 35.6 376.1 36.9 C 376.1 36.9 374.6 36.9 374.6 36.9 C 374.9 34.6 376.7 33.5 379.2 33.5 C 381.8 33.5 383.3 34.7 383.3 37.2 C 383.33 37.19 383.3 45 383.3 45 L 381.8 45 C 381.8 45 381.84 42.92 381.8 42.9 Z M 380 39.5 C 380 39.5 378.2 39.7 378.2 39.7 C 376.8 39.9 375.7 40.4 375.7 41.8 C 375.7 43.2 376.8 43.8 378.1 43.8 C 379.8 43.8 381.8 42.5 381.8 40.1 C 381.8 40.1 381.8 39 381.8 39 C 381.4 39.3 380.7 39.4 380 39.5 Z M 391 45.2 C 387.9 45.2 385.7 42.9 385.7 39.4 C 385.7 35.8 387.8 33.5 391.1 33.5 C 393.6 33.5 395.6 34.9 395.8 37.4 C 395.8 37.4 394.3 37.4 394.3 37.4 C 394.1 35.8 392.7 34.9 391.1 34.9 C 388.9 34.9 387.3 36.6 387.3 39.3 C 387.3 42.1 388.9 43.8 391.1 43.8 C 392.8 43.8 394.1 42.8 394.2 41 C 394.2 41 395.8 41 395.8 41 C 395.6 43.7 393.5 45.2 391 45.2 Z M 399.2 39.7 C 399.2 42.5 400.9 43.8 402.9 43.8 C 404.4 43.8 405.9 43.1 406.2 41.5 C 406.2 41.5 407.7 41.5 407.7 41.5 C 407.2 44.1 405 45.2 402.8 45.2 C 400.1 45.2 397.7 43.4 397.7 39.4 C 397.7 35.3 400.2 33.5 402.9 33.5 C 405.6 33.5 407.8 35.2 407.8 39 C 407.75 38.95 407.8 39.7 407.8 39.7 C 407.8 39.7 399.16 39.71 399.2 39.7 Z M 399.2 38.4 C 399.2 38.4 406.2 38.4 406.2 38.4 C 406.2 36.1 404.7 34.9 402.8 34.9 C 401.1 34.9 399.4 36 399.2 38.4 Z " stroke="none" fill="#000"/>  </g>  <g id="Polygon11478">    <path d="M 12.7 5.4 L 7.3 5.4 L 7.3 19.8 L 5.7 19.8 L 5.7 5.4 L 0.3 5.4 L 0.3 4 L 12.7 4 L 12.7 5.4 Z M 23.8 12.1 C 23.83 12.05 23.8 19.8 23.8 19.8 L 22.3 19.8 C 22.3 19.8 22.3 12.24 22.3 12.2 C 22.3 10.7 21.4 9.7 19.8 9.7 C 17.9 9.7 16.2 11.1 16.2 13.9 C 16.21 13.86 16.2 19.8 16.2 19.8 L 14.7 19.8 L 14.7 3.8 L 16.2 3.8 C 16.2 3.8 16.21 10.48 16.2 10.5 C 16.9 9.2 18.1 8.3 20.1 8.3 C 22.4 8.3 23.8 9.6 23.8 12.1 Z M 27.9 14.5 C 27.9 17.3 29.6 18.6 31.6 18.6 C 33.1 18.6 34.6 17.9 34.9 16.3 C 34.9 16.3 36.4 16.3 36.4 16.3 C 35.9 18.9 33.7 20 31.5 20 C 28.9 20 26.4 18.2 26.4 14.2 C 26.4 10.1 28.9 8.3 31.6 8.3 C 34.3 8.3 36.5 10 36.5 13.8 C 36.46 13.75 36.5 14.5 36.5 14.5 C 36.5 14.5 27.87 14.51 27.9 14.5 Z M 27.9 13.2 C 27.9 13.2 34.9 13.2 34.9 13.2 C 34.9 10.9 33.4 9.7 31.5 9.7 C 29.8 9.7 28.1 10.8 27.9 13.2 Z M 48.2 12.1 C 48.24 12.05 48.2 19.8 48.2 19.8 L 46.7 19.8 C 46.7 19.8 46.7 12.24 46.7 12.2 C 46.7 10.7 45.8 9.7 44.2 9.7 C 42.3 9.7 40.6 11.1 40.6 13.9 C 40.61 13.86 40.6 19.8 40.6 19.8 L 39.1 19.8 L 39.1 8.5 L 40.6 8.5 C 40.6 8.5 40.61 10.6 40.6 10.6 C 41.3 9.3 42.5 8.3 44.5 8.3 C 46.8 8.3 48.2 9.6 48.2 12.1 Z M 62.1 19.8 C 62.1 19.8 60.44 19.78 60.4 19.8 C 58.9 19.8 57.6 19.3 57.6 16.8 C 57.6 16.82 57.6 9.9 57.6 9.9 L 55.4 9.9 L 55.4 8.5 L 57.6 8.5 L 57.6 5.3 L 59.1 4.9 L 59.1 8.5 L 61.9 8.5 L 61.9 9.9 L 59.1 9.9 C 59.1 9.9 59.14 16.8 59.1 16.8 C 59.1 17.8 59.4 18.4 60.7 18.4 C 60.69 18.4 62.1 18.4 62.1 18.4 L 62.1 19.8 Z M 73.5 12.1 C 73.46 12.05 73.5 19.8 73.5 19.8 L 71.9 19.8 C 71.9 19.8 71.92 12.24 71.9 12.2 C 71.9 10.7 71 9.7 69.4 9.7 C 67.5 9.7 65.8 11.1 65.8 13.9 C 65.83 13.86 65.8 19.8 65.8 19.8 L 64.3 19.8 L 64.3 3.8 L 65.8 3.8 C 65.8 3.8 65.83 10.48 65.8 10.5 C 66.5 9.2 67.7 8.3 69.7 8.3 C 72 8.3 73.5 9.6 73.5 12.1 Z M 77.5 14.5 C 77.5 17.3 79.3 18.6 81.2 18.6 C 82.7 18.6 84.2 17.9 84.5 16.3 C 84.5 16.3 86 16.3 86 16.3 C 85.5 18.9 83.3 20 81.2 20 C 78.5 20 76 18.2 76 14.2 C 76 10.1 78.5 8.3 81.2 8.3 C 83.9 8.3 86.1 10 86.1 13.8 C 86.08 13.75 86.1 14.5 86.1 14.5 C 86.1 14.5 77.49 14.51 77.5 14.5 Z M 77.5 13.2 C 77.5 13.2 84.5 13.2 84.5 13.2 C 84.5 10.9 83.1 9.7 81.2 9.7 C 79.4 9.7 77.7 10.8 77.5 13.2 Z M 94.3 9.8 C 94.3 9.8 93.97 9.83 94 9.8 C 91.6 9.8 90.2 11.2 90.2 13.8 C 90.24 13.8 90.2 19.8 90.2 19.8 L 88.7 19.8 L 88.7 8.5 L 90.2 8.5 C 90.2 8.5 90.21 10.58 90.2 10.6 C 90.7 9.1 92.1 8.4 93.8 8.4 C 93.85 8.38 94.3 8.4 94.3 8.4 L 94.3 9.8 Z M 96.9 14.5 C 96.9 17.3 98.7 18.6 100.7 18.6 C 102.1 18.6 103.6 17.9 103.9 16.3 C 103.9 16.3 105.4 16.3 105.4 16.3 C 104.9 18.9 102.7 20 100.6 20 C 97.9 20 95.4 18.2 95.4 14.2 C 95.4 10.1 97.9 8.3 100.6 8.3 C 103.3 8.3 105.5 10 105.5 13.8 C 105.48 13.75 105.5 14.5 105.5 14.5 C 105.5 14.5 96.89 14.51 96.9 14.5 Z M 96.9 13.2 C 96.9 13.2 103.9 13.2 103.9 13.2 C 103.9 10.9 102.5 9.7 100.6 9.7 C 98.8 9.7 97.1 10.8 96.9 13.2 Z M 108.4 6 C 108.36 5.98 107.4 6 107.4 6 L 107.4 3.9 L 109.6 3.9 C 109.6 3.9 109.58 6.05 109.6 6 C 109.6 8.5 108.1 9.4 106.5 9.6 C 106.5 9.6 106.3 8.6 106.3 8.6 C 108 8.3 108.4 7.3 108.4 6 Z M 120.4 16.6 C 120.4 18.9 118.3 20 116 20 C 113.6 20 111.4 18.8 111.2 16.3 C 111.2 16.3 112.8 16.3 112.8 16.3 C 113 18 114.5 18.6 116 18.6 C 117.5 18.6 118.8 18.1 118.8 16.8 C 118.8 15.5 117.5 15.2 116.1 15 C 114 14.6 111.4 14.2 111.4 11.6 C 111.4 9.4 113.4 8.3 115.7 8.3 C 118.1 8.3 120 9.4 120.1 11.7 C 120.1 11.7 118.5 11.7 118.5 11.7 C 118.4 10.3 117.1 9.7 115.6 9.7 C 114.1 9.7 113 10.4 113 11.5 C 113 13 114.4 13.2 116.1 13.5 C 118.1 13.8 120.4 14.1 120.4 16.6 Z M 133.8 9.8 C 133.8 9.8 133.41 9.83 133.4 9.8 C 131 9.8 129.7 11.2 129.7 13.8 C 129.67 13.8 129.7 19.8 129.7 19.8 L 128.1 19.8 L 128.1 8.5 L 129.7 8.5 C 129.7 8.5 129.65 10.58 129.7 10.6 C 130.2 9.1 131.5 8.4 133.3 8.4 C 133.29 8.38 133.8 8.4 133.8 8.4 L 133.8 9.8 Z M 136.3 14.5 C 136.4 17.3 138.1 18.6 140.1 18.6 C 141.6 18.6 143.1 17.9 143.4 16.3 C 143.4 16.3 144.8 16.3 144.8 16.3 C 144.3 18.9 142.1 20 140 20 C 137.3 20 134.8 18.2 134.8 14.2 C 134.8 10.1 137.4 8.3 140.1 8.3 C 142.7 8.3 144.9 10 144.9 13.8 C 144.92 13.75 144.9 14.5 144.9 14.5 C 144.9 14.5 136.33 14.51 136.3 14.5 Z M 136.4 13.2 C 136.4 13.2 143.4 13.2 143.4 13.2 C 143.4 10.9 141.9 9.7 140 9.7 C 138.2 9.7 136.6 10.8 136.4 13.2 Z M 157.2 19.3 C 157.2 22.7 155 24.4 152.1 24.4 C 149.6 24.4 147.4 23.1 147.1 20.5 C 147.1 20.5 148.6 20.5 148.6 20.5 C 148.8 21.9 149.9 23.1 152.1 23.1 C 154.2 23.1 155.8 22 155.8 19.4 C 155.8 19.4 155.8 17.1 155.8 17.1 C 154.9 18.8 153.3 19.4 151.8 19.4 C 149 19.4 146.8 17.5 146.8 13.8 C 146.8 10.1 149.2 8.3 151.8 8.3 C 153.7 8.3 155 9.1 155.7 10.3 C 155.73 10.33 155.7 8.5 155.7 8.5 L 157.2 8.5 C 157.2 8.5 157.25 19.28 157.2 19.3 Z M 155.7 13.8 C 155.7 11 154 9.6 152.1 9.6 C 150.1 9.6 148.3 11 148.3 13.8 C 148.3 16.6 150.1 18 152 18 C 153.8 18 155.7 16.8 155.7 13.8 Z M 167.9 19.8 C 167.9 19.8 167.91 17.64 167.9 17.6 C 167.1 19.2 165.8 19.9 164.2 19.9 C 162 19.9 160.4 18.6 160.4 16 C 160.4 15.96 160.4 8.5 160.4 8.5 L 161.9 8.5 C 161.9 8.5 161.93 15.77 161.9 15.8 C 161.9 17.6 162.9 18.6 164.4 18.6 C 166.2 18.6 167.9 17.2 167.9 14.3 C 167.85 14.34 167.9 8.5 167.9 8.5 L 169.4 8.5 L 169.4 19.8 L 167.9 19.8 Z M 174.3 19.8 L 172.7 19.8 L 172.7 3.8 L 174.3 3.8 L 174.3 19.8 Z M 184.6 17.7 C 183.7 19.4 182 20 180.6 20 C 178.6 20 176.9 18.9 176.9 16.7 C 176.9 14.6 178.4 13.6 180.3 13.4 C 180.3 13.4 183 13 183 13 C 183.8 12.9 184.6 12.6 184.6 11.6 C 184.6 10.3 183.4 9.6 181.8 9.6 C 180.1 9.6 179.1 10.4 178.9 11.7 C 178.9 11.7 177.3 11.7 177.3 11.7 C 177.7 9.4 179.5 8.3 181.9 8.3 C 184.5 8.3 186.1 9.5 186.1 12 C 186.06 11.99 186.1 19.8 186.1 19.8 L 184.6 19.8 C 184.6 19.8 184.57 17.72 184.6 17.7 Z M 182.7 14.3 C 182.7 14.3 181 14.5 181 14.5 C 179.5 14.7 178.5 15.2 178.5 16.6 C 178.5 18 179.6 18.6 180.8 18.6 C 182.6 18.6 184.5 17.3 184.5 14.9 C 184.5 14.9 184.5 13.8 184.5 13.8 C 184.1 14.1 183.5 14.2 182.7 14.3 Z M 194.4 19.8 C 194.4 19.8 192.69 19.78 192.7 19.8 C 191.2 19.8 189.9 19.3 189.9 16.8 C 189.86 16.82 189.9 9.9 189.9 9.9 L 187.6 9.9 L 187.6 8.5 L 189.9 8.5 L 189.9 5.3 L 191.4 4.9 L 191.4 8.5 L 194.1 8.5 L 194.1 9.9 L 191.4 9.9 C 191.4 9.9 191.39 16.8 191.4 16.8 C 191.4 17.8 191.7 18.4 192.9 18.4 C 192.95 18.4 194.4 18.4 194.4 18.4 L 194.4 19.8 Z M 195.8 14.2 C 195.8 10.5 198 8.3 201.2 8.3 C 204.3 8.3 206.5 10.5 206.5 14.2 C 206.5 17.8 204.3 20 201.2 20 C 198.1 20 195.8 17.8 195.8 14.2 Z M 204.9 14.1 C 204.9 11.3 203.2 9.7 201.1 9.7 C 198.9 9.7 197.4 11.4 197.4 14.2 C 197.4 17 199.1 18.6 201.2 18.6 C 203.4 18.6 204.9 16.9 204.9 14.1 Z M 214.8 9.8 C 214.8 9.8 214.41 9.83 214.4 9.8 C 212 9.8 210.7 11.2 210.7 13.8 C 210.67 13.8 210.7 19.8 210.7 19.8 L 209.1 19.8 L 209.1 8.5 L 210.6 8.5 C 210.6 8.5 210.65 10.58 210.6 10.6 C 211.2 9.1 212.5 8.4 214.3 8.4 C 214.28 8.38 214.8 8.4 214.8 8.4 L 214.8 9.8 Z M 220.5 21.9 C 220.1 23.1 219.1 23.5 217.9 23.5 C 217.89 23.48 216.7 23.5 216.7 23.5 L 216.7 22.1 C 216.7 22.1 217.68 22.11 217.7 22.1 C 218.6 22.1 219.1 21.8 219.5 20.8 C 219.49 20.79 220 19.3 220 19.3 L 215.8 8.5 L 217.4 8.5 L 220.7 17.4 L 224.1 8.5 L 225.6 8.5 C 225.6 8.5 220.5 21.92 220.5 21.9 Z M 236.9 20 C 233.8 20 231.7 17.7 231.7 14.2 C 231.7 10.6 233.8 8.3 237 8.3 C 239.5 8.3 241.5 9.7 241.7 12.2 C 241.7 12.2 240.2 12.2 240.2 12.2 C 240 10.6 238.7 9.7 237 9.7 C 234.8 9.7 233.2 11.4 233.2 14.1 C 233.2 16.9 234.8 18.6 237 18.6 C 238.7 18.6 240.1 17.6 240.2 15.8 C 240.2 15.8 241.7 15.8 241.7 15.8 C 241.5 18.5 239.4 20 236.9 20 Z M 253.5 12.1 C 253.49 12.05 253.5 19.8 253.5 19.8 L 252 19.8 C 252 19.8 251.95 12.24 252 12.2 C 252 10.7 251.1 9.7 249.5 9.7 C 247.5 9.7 245.9 11.1 245.9 13.9 C 245.86 13.86 245.9 19.8 245.9 19.8 L 244.3 19.8 L 244.3 3.8 L 245.9 3.8 C 245.9 3.8 245.86 10.48 245.9 10.5 C 246.5 9.2 247.7 8.3 249.7 8.3 C 252 8.3 253.5 9.6 253.5 12.1 Z M 263.7 17.7 C 262.8 19.4 261.1 20 259.7 20 C 257.7 20 256 18.9 256 16.7 C 256 14.6 257.5 13.6 259.4 13.4 C 259.4 13.4 262.1 13 262.1 13 C 262.9 12.9 263.7 12.6 263.7 11.6 C 263.7 10.3 262.5 9.6 260.9 9.6 C 259.2 9.6 258.2 10.4 258 11.7 C 258 11.7 256.4 11.7 256.4 11.7 C 256.8 9.4 258.6 8.3 261 8.3 C 263.6 8.3 265.2 9.5 265.2 12 C 265.16 11.99 265.2 19.8 265.2 19.8 L 263.7 19.8 C 263.7 19.8 263.67 17.72 263.7 17.7 Z M 261.8 14.3 C 261.8 14.3 260.1 14.5 260.1 14.5 C 258.7 14.7 257.6 15.2 257.6 16.6 C 257.6 18 258.7 18.6 259.9 18.6 C 261.7 18.6 263.6 17.3 263.6 14.9 C 263.6 14.9 263.6 13.8 263.6 13.8 C 263.2 14.1 262.6 14.2 261.8 14.3 Z M 277.5 12.1 C 277.47 12.05 277.5 19.8 277.5 19.8 L 275.9 19.8 C 275.9 19.8 275.94 12.24 275.9 12.2 C 275.9 10.7 275.1 9.7 273.5 9.7 C 271.5 9.7 269.8 11.1 269.8 13.9 C 269.85 13.86 269.8 19.8 269.8 19.8 L 268.3 19.8 L 268.3 8.5 L 269.8 8.5 C 269.8 8.5 269.85 10.6 269.8 10.6 C 270.5 9.3 271.8 8.3 273.8 8.3 C 276 8.3 277.5 9.6 277.5 12.1 Z M 290.4 19.3 C 290.4 22.7 288.2 24.4 285.3 24.4 C 282.8 24.4 280.6 23.1 280.2 20.5 C 280.2 20.5 281.8 20.5 281.8 20.5 C 282 21.9 283.1 23.1 285.3 23.1 C 287.4 23.1 289 22 289 19.4 C 289 19.4 289 17.1 289 17.1 C 288.1 18.8 286.4 19.4 285 19.4 C 282.2 19.4 280 17.5 280 13.8 C 280 10.1 282.3 8.3 285 8.3 C 286.9 8.3 288.2 9.1 288.9 10.3 C 288.91 10.33 288.9 8.5 288.9 8.5 L 290.4 8.5 C 290.4 8.5 290.43 19.28 290.4 19.3 Z M 288.9 13.8 C 288.9 11 287.2 9.6 285.2 9.6 C 283.3 9.6 281.5 11 281.5 13.8 C 281.5 16.6 283.2 18 285.2 18 C 287 18 288.9 16.8 288.9 13.8 Z M 294.5 14.5 C 294.5 17.3 296.2 18.6 298.2 18.6 C 299.7 18.6 301.2 17.9 301.5 16.3 C 301.5 16.3 303 16.3 303 16.3 C 302.5 18.9 300.3 20 298.1 20 C 295.4 20 292.9 18.2 292.9 14.2 C 292.9 10.1 295.5 8.3 298.2 8.3 C 300.9 8.3 303 10 303 13.8 C 303.05 13.75 303 14.5 303 14.5 C 303 14.5 294.46 14.51 294.5 14.5 Z M 294.5 13.2 C 294.5 13.2 301.5 13.2 301.5 13.2 C 301.5 10.9 300 9.7 298.1 9.7 C 296.4 9.7 294.7 10.8 294.5 13.2 Z M 304.9 17.6 L 307.1 17.6 L 307.1 19.8 L 304.9 19.8 L 304.9 17.6 Z M 320.4 20.2 C 317.1 20.2 314.4 18.2 314.3 14.8 C 314.3 14.8 316 14.8 316 14.8 C 316.1 17.5 318.3 18.7 320.5 18.7 C 322.6 18.7 324.2 17.6 324.2 15.8 C 324.2 13.7 322 13.2 319.9 12.7 C 317.3 12 314.8 11.2 314.8 8.1 C 314.8 5.2 317.1 3.7 320.1 3.7 C 322.9 3.7 325.4 5 325.5 8.1 C 325.5 8.1 323.8 8.1 323.8 8.1 C 323.8 6 322 5.1 320.1 5.1 C 318.1 5.1 316.4 6.1 316.4 8.1 C 316.4 10.2 318.3 10.7 320.5 11.3 C 323.1 11.9 325.8 12.6 325.8 15.7 C 325.8 18.6 323.3 20.2 320.4 20.2 Z M 329.3 14.5 C 329.4 17.3 331.1 18.6 333.1 18.6 C 334.6 18.6 336 17.9 336.4 16.3 C 336.4 16.3 337.8 16.3 337.8 16.3 C 337.3 18.9 335.1 20 333 20 C 330.3 20 327.8 18.2 327.8 14.2 C 327.8 10.1 330.3 8.3 333.1 8.3 C 335.7 8.3 337.9 10 337.9 13.8 C 337.91 13.75 337.9 14.5 337.9 14.5 C 337.9 14.5 329.32 14.51 329.3 14.5 Z M 329.4 13.2 C 329.4 13.2 336.4 13.2 336.4 13.2 C 336.4 10.9 334.9 9.7 333 9.7 C 331.2 9.7 329.6 10.8 329.4 13.2 Z M 345 20 C 341.9 20 339.8 17.7 339.8 14.2 C 339.8 10.6 341.9 8.3 345.2 8.3 C 347.7 8.3 349.6 9.7 349.8 12.2 C 349.8 12.2 348.3 12.2 348.3 12.2 C 348.2 10.6 346.8 9.7 345.1 9.7 C 342.9 9.7 341.4 11.4 341.4 14.1 C 341.4 16.9 342.9 18.6 345.1 18.6 C 346.8 18.6 348.2 17.6 348.3 15.8 C 348.3 15.8 349.8 15.8 349.8 15.8 C 349.6 18.5 347.5 20 345 20 Z M 357.6 19.8 C 357.6 19.8 355.92 19.78 355.9 19.8 C 354.4 19.8 353.1 19.3 353.1 16.8 C 353.09 16.82 353.1 9.9 353.1 9.9 L 350.9 9.9 L 350.9 8.5 L 353.1 8.5 L 353.1 5.3 L 354.6 4.9 L 354.6 8.5 L 357.4 8.5 L 357.4 9.9 L 354.6 9.9 C 354.6 9.9 354.62 16.8 354.6 16.8 C 354.6 17.8 354.9 18.4 356.2 18.4 C 356.18 18.4 357.6 18.4 357.6 18.4 L 357.6 19.8 Z M 359.1 14.2 C 359.1 10.5 361.3 8.3 364.4 8.3 C 367.5 8.3 369.7 10.5 369.7 14.2 C 369.7 17.8 367.5 20 364.4 20 C 361.3 20 359.1 17.8 359.1 14.2 Z M 368.2 14.1 C 368.2 11.3 366.5 9.7 364.4 9.7 C 362.2 9.7 360.6 11.4 360.6 14.2 C 360.6 17 362.3 18.6 364.4 18.6 C 366.6 18.6 368.2 16.9 368.2 14.1 Z M 378 9.8 C 378 9.8 377.64 9.83 377.6 9.8 C 375.2 9.8 373.9 11.2 373.9 13.8 C 373.9 13.8 373.9 19.8 373.9 19.8 L 372.4 19.8 L 372.4 8.5 L 373.9 8.5 C 373.9 8.5 373.88 10.58 373.9 10.6 C 374.4 9.1 375.8 8.4 377.5 8.4 C 377.51 8.38 378 8.4 378 8.4 L 378 9.8 Z M 388.4 16.6 C 388.4 18.9 386.3 20 384 20 C 381.6 20 379.4 18.8 379.1 16.3 C 379.1 16.3 380.8 16.3 380.8 16.3 C 381 18 382.5 18.6 384 18.6 C 385.5 18.6 386.8 18.1 386.8 16.8 C 386.8 15.5 385.5 15.2 384.1 15 C 382 14.6 379.4 14.2 379.4 11.6 C 379.4 9.4 381.4 8.3 383.7 8.3 C 386.1 8.3 387.9 9.4 388.1 11.7 C 388.1 11.7 386.5 11.7 386.5 11.7 C 386.4 10.3 385.1 9.7 383.6 9.7 C 382.1 9.7 381 10.4 381 11.5 C 381 13 382.4 13.2 384.1 13.5 C 386.1 13.8 388.4 14.1 388.4 16.6 Z " stroke="none" fill="#000"/>  </g></svg>