<?xml version="1.0" standalone="no"?><!DOCTYPE svg PUBLIC "-//W3C//DTD SVG 1.1//EN" "http://www.w3.org/Graphics/SVG/1.1/DTD/svg11.dtd"><svg xmlns="http://www.w3.org/2000/svg" version="1.1" width="65.2px" height="60.7px" viewBox="0 -1 65.2 60.7" style="top:-1px">  <desc>5 03</desc>  <defs/>  <g id="Polygon9465">    <path d="M 21.9 31.5 C 21.9 35.4 19.2 39.4 13.9 39.4 C 9.7 39.4 5.9 36.8 5.9 31.7 C 5.9 31.7 9.8 31.7 9.8 31.7 C 9.8 34.7 11.7 35.9 13.9 35.9 C 16.7 35.9 18 34 18 31.8 C 18 29.8 16.8 27.8 14.1 27.8 C 12.9 27.8 11.7 28.2 10.8 29 C 10.76 29.04 6.6 29 6.6 29 L 8.6 16.9 L 20.8 16.9 L 20.8 20.6 L 11.7 20.6 C 11.7 20.6 10.94 25.47 10.9 25.5 C 12 24.5 13.2 24.1 14.7 24.1 C 19.5 24.1 21.9 27.8 21.9 31.5 Z M 23.8 34.4 L 28.3 34.4 L 28.3 39 L 23.8 39 L 23.8 34.4 Z M 30.3 28 C 30.3 21.1 32.7 16.5 38.2 16.5 C 43.6 16.5 46 21.1 46 27.9 C 46 34.9 43.5 39.4 38.1 39.4 C 32.7 39.4 30.3 34.9 30.3 28 Z M 42 28.1 C 42 23.6 40.9 20 38.1 20 C 35.5 20 34.3 23 34.3 27.8 C 34.3 32.7 35.6 35.9 38.2 35.9 C 40.9 35.9 42 32.6 42 28.1 Z M 64.4 32.8 C 64.4 37.1 60.6 39.4 56.5 39.4 C 52.1 39.4 48 36.8 48 31.7 C 48 31.7 52.1 31.7 52.1 31.7 C 51.9 34.4 54 35.8 56.4 35.8 C 58.5 35.8 60.2 34.7 60.2 32.7 C 60.2 30.8 58.5 29.8 55.7 29.8 C 55.67 29.79 54 29.8 54 29.8 L 54 26.2 C 54 26.2 55.55 26.19 55.5 26.2 C 58.2 26.2 59.8 24.9 59.8 23 C 59.8 21.1 58.3 20.1 56.3 20.1 C 54 20.1 52.4 21.5 52.4 24.3 C 52.4 24.3 48.2 24.3 48.2 24.3 C 48.2 19 52.1 16.5 56.4 16.5 C 60.4 16.5 63.9 18.5 63.9 22.5 C 63.9 25.3 62.2 27 60.3 27.6 C 62.6 28.5 64.4 29.9 64.4 32.8 Z " stroke="none" fill="#000"/>  </g></svg>