<?xml version="1.0" standalone="no"?><!DOCTYPE svg PUBLIC "-//W3C//DTD SVG 1.1//EN" "http://www.w3.org/Graphics/SVG/1.1/DTD/svg11.dtd"><svg xmlns="http://www.w3.org/2000/svg" version="1.1" width="380.4px" height="86.4px" viewBox="0 0 380.4 86.4">  <desc>y el mercado inmobiliario comercial, por su parte, afronta un cambio estructural acelerado</desc>  <defs/>  <g id="Polygon11620">    <path d="M 2.5 64.9 C 2.5 67.7 4.2 69 6.2 69 C 7.7 69 9.2 68.3 9.5 66.7 C 9.5 66.7 11 66.7 11 66.7 C 10.5 69.3 8.3 70.4 6.1 70.4 C 3.4 70.4 0.9 68.6 0.9 64.6 C 0.9 60.5 3.5 58.7 6.2 58.7 C 8.9 58.7 11 60.4 11 64.2 C 11.05 64.15 11 64.9 11 64.9 C 11 64.9 2.46 64.91 2.5 64.9 Z M 2.5 63.6 C 2.5 63.6 9.5 63.6 9.5 63.6 C 9.5 61.3 8 60.1 6.1 60.1 C 4.4 60.1 2.7 61.2 2.5 63.6 Z M 22 67 C 22 69.3 20 70.4 17.7 70.4 C 15.3 70.4 13.1 69.2 12.8 66.7 C 12.8 66.7 14.5 66.7 14.5 66.7 C 14.7 68.4 16.2 69 17.7 69 C 19.2 69 20.5 68.5 20.5 67.2 C 20.5 65.9 19.2 65.6 17.8 65.4 C 15.7 65 13.1 64.6 13.1 62 C 13.1 59.8 15 58.7 17.3 58.7 C 19.7 58.7 21.6 59.8 21.8 62.1 C 21.8 62.1 20.2 62.1 20.2 62.1 C 20.1 60.7 18.8 60.1 17.3 60.1 C 15.7 60.1 14.7 60.8 14.7 61.9 C 14.7 63.4 16.1 63.6 17.8 63.9 C 19.8 64.2 22 64.5 22 67 Z M 29.7 70.2 C 29.7 70.2 28.06 70.18 28.1 70.2 C 26.6 70.2 25.2 69.7 25.2 67.2 C 25.22 67.22 25.2 60.3 25.2 60.3 L 23 60.3 L 23 58.9 L 25.2 58.9 L 25.2 55.7 L 26.8 55.3 L 26.8 58.9 L 29.5 58.9 L 29.5 60.3 L 26.8 60.3 C 26.8 60.3 26.75 67.2 26.8 67.2 C 26.8 68.2 27 68.8 28.3 68.8 C 28.31 68.8 29.7 68.8 29.7 68.8 L 29.7 70.2 Z M 37.5 60.2 C 37.5 60.2 37.19 60.23 37.2 60.2 C 34.8 60.2 33.5 61.6 33.5 64.2 C 33.45 64.2 33.5 70.2 33.5 70.2 L 31.9 70.2 L 31.9 58.9 L 33.4 58.9 C 33.4 58.9 33.43 60.98 33.4 61 C 34 59.5 35.3 58.8 37.1 58.8 C 37.06 58.78 37.5 58.8 37.5 58.8 L 37.5 60.2 Z M 47 70.2 C 47 70.2 46.96 68.04 47 68 C 46.2 69.6 44.8 70.3 43.2 70.3 C 41.1 70.3 39.4 69 39.4 66.4 C 39.44 66.36 39.4 58.9 39.4 58.9 L 41 58.9 C 41 58.9 40.97 66.17 41 66.2 C 41 68 42 69 43.5 69 C 45.3 69 46.9 67.6 46.9 64.7 C 46.89 64.74 46.9 58.9 46.9 58.9 L 48.4 58.9 L 48.4 70.2 L 47 70.2 Z M 56.3 70.4 C 53.2 70.4 51.1 68.1 51.1 64.6 C 51.1 61 53.2 58.7 56.4 58.7 C 58.9 58.7 60.9 60.1 61.1 62.6 C 61.1 62.6 59.6 62.6 59.6 62.6 C 59.4 61 58 60.1 56.4 60.1 C 54.2 60.1 52.6 61.8 52.6 64.5 C 52.6 67.3 54.2 69 56.4 69 C 58.1 69 59.4 68 59.6 66.2 C 59.6 66.2 61.1 66.2 61.1 66.2 C 60.9 68.9 58.8 70.4 56.3 70.4 Z M 68.8 70.2 C 68.8 70.2 67.18 70.18 67.2 70.2 C 65.7 70.2 64.3 69.7 64.3 67.2 C 64.34 67.22 64.3 60.3 64.3 60.3 L 62.1 60.3 L 62.1 58.9 L 64.3 58.9 L 64.3 55.7 L 65.9 55.3 L 65.9 58.9 L 68.6 58.9 L 68.6 60.3 L 65.9 60.3 C 65.9 60.3 65.88 67.2 65.9 67.2 C 65.9 68.2 66.2 68.8 67.4 68.8 C 67.43 68.8 68.8 68.8 68.8 68.8 L 68.8 70.2 Z M 78.5 70.2 C 78.5 70.2 78.45 68.04 78.5 68 C 77.7 69.6 76.3 70.3 74.7 70.3 C 72.6 70.3 70.9 69 70.9 66.4 C 70.94 66.36 70.9 58.9 70.9 58.9 L 72.5 58.9 C 72.5 58.9 72.47 66.17 72.5 66.2 C 72.5 68 73.5 69 75 69 C 76.8 69 78.4 67.6 78.4 64.7 C 78.39 64.74 78.4 58.9 78.4 58.9 L 79.9 58.9 L 79.9 70.2 L 78.5 70.2 Z M 88.9 60.2 C 88.9 60.2 88.56 60.23 88.6 60.2 C 86.2 60.2 84.8 61.6 84.8 64.2 C 84.82 64.2 84.8 70.2 84.8 70.2 L 83.3 70.2 L 83.3 58.9 L 84.8 58.9 C 84.8 58.9 84.8 60.98 84.8 61 C 85.3 59.5 86.7 58.8 88.4 58.8 C 88.43 58.78 88.9 58.8 88.9 58.8 L 88.9 60.2 Z M 97.8 68.1 C 97 69.8 95.3 70.4 93.8 70.4 C 91.9 70.4 90.2 69.3 90.2 67.1 C 90.2 65 91.7 64 93.6 63.8 C 93.6 63.8 96.3 63.4 96.3 63.4 C 97.1 63.3 97.8 63 97.8 62 C 97.8 60.7 96.7 60 95.1 60 C 93.4 60 92.4 60.8 92.1 62.1 C 92.1 62.1 90.6 62.1 90.6 62.1 C 90.9 59.8 92.7 58.7 95.2 58.7 C 97.8 58.7 99.3 59.9 99.3 62.4 C 99.33 62.39 99.3 70.2 99.3 70.2 L 97.8 70.2 C 97.8 70.2 97.84 68.12 97.8 68.1 Z M 96 64.7 C 96 64.7 94.2 64.9 94.2 64.9 C 92.8 65.1 91.7 65.6 91.7 67 C 91.7 68.4 92.8 69 94.1 69 C 95.8 69 97.8 67.7 97.8 65.3 C 97.8 65.3 97.8 64.2 97.8 64.2 C 97.4 64.5 96.7 64.6 96 64.7 Z M 104 70.2 L 102.5 70.2 L 102.5 54.2 L 104 54.2 L 104 70.2 Z M 120 68.1 C 119.1 69.8 117.4 70.4 116 70.4 C 114 70.4 112.3 69.3 112.3 67.1 C 112.3 65 113.8 64 115.7 63.8 C 115.7 63.8 118.4 63.4 118.4 63.4 C 119.2 63.3 120 63 120 62 C 120 60.7 118.8 60 117.2 60 C 115.5 60 114.5 60.8 114.3 62.1 C 114.3 62.1 112.7 62.1 112.7 62.1 C 113.1 59.8 114.9 58.7 117.3 58.7 C 119.9 58.7 121.5 59.9 121.5 62.4 C 121.46 62.39 121.5 70.2 121.5 70.2 L 120 70.2 C 120 70.2 119.97 68.12 120 68.1 Z M 118.1 64.7 C 118.1 64.7 116.4 64.9 116.4 64.9 C 115 65.1 113.9 65.6 113.9 67 C 113.9 68.4 115 69 116.2 69 C 118 69 119.9 67.7 119.9 65.3 C 119.9 65.3 119.9 64.2 119.9 64.2 C 119.5 64.5 118.9 64.6 118.1 64.7 Z M 129.1 70.4 C 126 70.4 123.9 68.1 123.9 64.6 C 123.9 61 126 58.7 129.2 58.7 C 131.7 58.7 133.7 60.1 133.9 62.6 C 133.9 62.6 132.4 62.6 132.4 62.6 C 132.2 61 130.8 60.1 129.2 60.1 C 127 60.1 125.4 61.8 125.4 64.5 C 125.4 67.3 127 69 129.2 69 C 130.9 69 132.3 68 132.4 66.2 C 132.4 66.2 133.9 66.2 133.9 66.2 C 133.7 68.9 131.6 70.4 129.1 70.4 Z M 137.3 64.9 C 137.3 67.7 139.1 69 141.1 69 C 142.5 69 144 68.3 144.4 66.7 C 144.4 66.7 145.8 66.7 145.8 66.7 C 145.3 69.3 143.1 70.4 141 70.4 C 138.3 70.4 135.8 68.6 135.8 64.6 C 135.8 60.5 138.3 58.7 141 58.7 C 143.7 58.7 145.9 60.4 145.9 64.2 C 145.88 64.15 145.9 64.9 145.9 64.9 C 145.9 64.9 137.3 64.91 137.3 64.9 Z M 137.3 63.6 C 137.3 63.6 144.3 63.6 144.3 63.6 C 144.3 61.3 142.9 60.1 141 60.1 C 139.2 60.1 137.5 61.2 137.3 63.6 Z M 150 70.2 L 148.5 70.2 L 148.5 54.2 L 150 54.2 L 150 70.2 Z M 154.2 64.9 C 154.2 67.7 155.9 69 157.9 69 C 159.4 69 160.9 68.3 161.2 66.7 C 161.2 66.7 162.7 66.7 162.7 66.7 C 162.2 69.3 160 70.4 157.9 70.4 C 155.2 70.4 152.7 68.6 152.7 64.6 C 152.7 60.5 155.2 58.7 157.9 58.7 C 160.6 58.7 162.8 60.4 162.8 64.2 C 162.77 64.15 162.8 64.9 162.8 64.9 C 162.8 64.9 154.18 64.91 154.2 64.9 Z M 154.2 63.6 C 154.2 63.6 161.2 63.6 161.2 63.6 C 161.2 61.3 159.7 60.1 157.9 60.1 C 156.1 60.1 154.4 61.2 154.2 63.6 Z M 171 60.2 C 171 60.2 170.66 60.23 170.7 60.2 C 168.3 60.2 166.9 61.6 166.9 64.2 C 166.93 64.2 166.9 70.2 166.9 70.2 L 165.4 70.2 L 165.4 58.9 L 166.9 58.9 C 166.9 58.9 166.91 60.98 166.9 61 C 167.4 59.5 168.8 58.8 170.5 58.8 C 170.54 58.78 171 58.8 171 58.8 L 171 60.2 Z M 179.9 68.1 C 179.1 69.8 177.4 70.4 175.9 70.4 C 174 70.4 172.3 69.3 172.3 67.1 C 172.3 65 173.8 64 175.7 63.8 C 175.7 63.8 178.4 63.4 178.4 63.4 C 179.2 63.3 179.9 63 179.9 62 C 179.9 60.7 178.8 60 177.2 60 C 175.5 60 174.5 60.8 174.3 62.1 C 174.3 62.1 172.7 62.1 172.7 62.1 C 173 59.8 174.8 58.7 177.3 58.7 C 179.9 58.7 181.4 59.9 181.4 62.4 C 181.44 62.39 181.4 70.2 181.4 70.2 L 179.9 70.2 C 179.9 70.2 179.95 68.12 179.9 68.1 Z M 178.1 64.7 C 178.1 64.7 176.4 64.9 176.4 64.9 C 174.9 65.1 173.9 65.6 173.9 67 C 173.9 68.4 174.9 69 176.2 69 C 178 69 179.9 67.7 179.9 65.3 C 179.9 65.3 179.9 64.2 179.9 64.2 C 179.5 64.5 178.8 64.6 178.1 64.7 Z M 194.4 70.2 L 192.9 70.2 C 192.9 70.2 192.92 68 192.9 68 C 192.4 69.3 191 70.4 188.9 70.4 C 186 70.4 183.9 68.1 183.9 64.5 C 183.9 61 186 58.7 188.9 58.7 C 190.8 58.7 192.3 59.6 192.9 60.8 C 192.86 60.82 192.9 54.2 192.9 54.2 L 194.4 54.2 L 194.4 70.2 Z M 192.8 64.5 C 192.8 61.7 191.3 60.1 189.1 60.1 C 186.9 60.1 185.4 61.8 185.4 64.5 C 185.4 67.3 186.9 69 189.1 69 C 191.3 69 192.8 67.3 192.8 64.5 Z M 197 64.6 C 197 60.9 199.2 58.7 202.4 58.7 C 205.5 58.7 207.7 60.9 207.7 64.6 C 207.7 68.2 205.5 70.4 202.4 70.4 C 199.3 70.4 197 68.2 197 64.6 Z M 206.1 64.5 C 206.1 61.7 204.4 60.1 202.3 60.1 C 200.1 60.1 198.6 61.8 198.6 64.6 C 198.6 67.4 200.3 69 202.4 69 C 204.6 69 206.1 67.3 206.1 64.5 Z M 209.6 68 L 211.7 68 L 211.7 70.2 L 209.6 70.2 L 209.6 68 Z " stroke="none" fill="#000"/>  </g>  <g id="Polygon11619">    <path d="M 12.2 39.3 C 12.2 43.4 9.6 45.1 7 45.1 C 5.1 45.1 3.8 44.2 3.2 43 C 3.21 43.03 3.2 49.3 3.2 49.3 L 1.7 49.3 L 1.7 33.7 L 3.2 33.7 C 3.2 33.7 3.17 36.08 3.2 36.1 C 3.7 34.7 5.1 33.5 7.2 33.5 C 9.6 33.5 12.2 35.2 12.2 39.3 Z M 10.6 39.3 C 10.6 36.2 8.8 35 7 35 C 5.1 35 3.2 36.2 3.2 39.4 C 3.2 42.5 5.1 43.7 6.9 43.7 C 8.8 43.7 10.6 42.5 10.6 39.3 Z M 14.1 39.4 C 14.1 35.7 16.3 33.5 19.4 33.5 C 22.5 33.5 24.8 35.7 24.8 39.4 C 24.8 43 22.6 45.2 19.4 45.2 C 16.3 45.2 14.1 43 14.1 39.4 Z M 23.2 39.3 C 23.2 36.5 21.5 34.9 19.4 34.9 C 17.2 34.9 15.7 36.6 15.7 39.4 C 15.7 42.2 17.4 43.8 19.5 43.8 C 21.7 43.8 23.2 42.1 23.2 39.3 Z M 33 35 C 33 35 32.68 35.03 32.7 35 C 30.3 35 28.9 36.4 28.9 39 C 28.94 39 28.9 45 28.9 45 L 27.4 45 L 27.4 33.7 L 28.9 33.7 C 28.9 33.7 28.92 35.78 28.9 35.8 C 29.4 34.3 30.8 33.6 32.5 33.6 C 32.55 33.58 33 33.6 33 33.6 L 33 35 Z M 48 41.8 C 48 44.1 45.9 45.2 43.7 45.2 C 41.3 45.2 39 44 38.8 41.5 C 38.8 41.5 40.4 41.5 40.4 41.5 C 40.7 43.2 42.2 43.8 43.7 43.8 C 45.1 43.8 46.4 43.3 46.4 42 C 46.4 40.7 45.1 40.4 43.8 40.2 C 41.6 39.8 39.1 39.4 39.1 36.8 C 39.1 34.6 41 33.5 43.3 33.5 C 45.7 33.5 47.6 34.6 47.7 36.9 C 47.7 36.9 46.1 36.9 46.1 36.9 C 46 35.5 44.7 34.9 43.3 34.9 C 41.7 34.9 40.7 35.6 40.7 36.7 C 40.7 38.2 42 38.4 43.7 38.7 C 45.8 39 48 39.3 48 41.8 Z M 58 45 C 58 45 57.96 42.84 58 42.8 C 57.2 44.4 55.8 45.1 54.2 45.1 C 52.1 45.1 50.4 43.8 50.4 41.2 C 50.44 41.16 50.4 33.7 50.4 33.7 L 52 33.7 C 52 33.7 51.97 40.97 52 41 C 52 42.8 53 43.8 54.5 43.8 C 56.3 43.8 57.9 42.4 57.9 39.5 C 57.9 39.54 57.9 33.7 57.9 33.7 L 59.4 33.7 L 59.4 45 L 58 45 Z M 79 39.3 C 79 43.4 76.4 45.1 73.8 45.1 C 71.9 45.1 70.6 44.2 70 43 C 69.99 43.03 70 49.3 70 49.3 L 68.5 49.3 L 68.5 33.7 L 70 33.7 C 70 33.7 69.95 36.08 70 36.1 C 70.5 34.7 71.9 33.5 74 33.5 C 76.4 33.5 79 35.2 79 39.3 Z M 77.4 39.3 C 77.4 36.2 75.6 35 73.8 35 C 71.9 35 70 36.2 70 39.4 C 70 42.5 71.8 43.7 73.7 43.7 C 75.6 43.7 77.4 42.5 77.4 39.3 Z M 88.5 42.9 C 87.7 44.6 86 45.2 84.5 45.2 C 82.6 45.2 80.9 44.1 80.9 41.9 C 80.9 39.8 82.4 38.8 84.3 38.6 C 84.3 38.6 87 38.2 87 38.2 C 87.8 38.1 88.5 37.8 88.5 36.8 C 88.5 35.5 87.4 34.8 85.8 34.8 C 84.1 34.8 83.1 35.6 82.8 36.9 C 82.8 36.9 81.3 36.9 81.3 36.9 C 81.6 34.6 83.4 33.5 85.9 33.5 C 88.5 33.5 90 34.7 90 37.2 C 90.03 37.19 90 45 90 45 L 88.5 45 C 88.5 45 88.54 42.92 88.5 42.9 Z M 86.7 39.5 C 86.7 39.5 84.9 39.7 84.9 39.7 C 83.5 39.9 82.4 40.4 82.4 41.8 C 82.4 43.2 83.5 43.8 84.8 43.8 C 86.5 43.8 88.5 42.5 88.5 40.1 C 88.5 40.1 88.5 39 88.5 39 C 88.1 39.3 87.4 39.4 86.7 39.5 Z M 98.8 35 C 98.8 35 98.45 35.03 98.4 35 C 96.1 35 94.7 36.4 94.7 39 C 94.71 39 94.7 45 94.7 45 L 93.2 45 L 93.2 33.7 L 94.7 33.7 C 94.7 33.7 94.69 35.78 94.7 35.8 C 95.2 34.3 96.6 33.6 98.3 33.6 C 98.32 33.58 98.8 33.6 98.8 33.6 L 98.8 35 Z M 106.4 45 C 106.4 45 104.7 44.98 104.7 45 C 103.2 45 101.9 44.5 101.9 42 C 101.87 42.02 101.9 35.1 101.9 35.1 L 99.6 35.1 L 99.6 33.7 L 101.9 33.7 L 101.9 30.5 L 103.4 30.1 L 103.4 33.7 L 106.1 33.7 L 106.1 35.1 L 103.4 35.1 C 103.4 35.1 103.4 42 103.4 42 C 103.4 43 103.7 43.6 105 43.6 C 104.96 43.6 106.4 43.6 106.4 43.6 L 106.4 45 Z M 109.3 39.7 C 109.4 42.5 111.1 43.8 113.1 43.8 C 114.6 43.8 116.1 43.1 116.4 41.5 C 116.4 41.5 117.9 41.5 117.9 41.5 C 117.3 44.1 115.2 45.2 113 45.2 C 110.3 45.2 107.8 43.4 107.8 39.4 C 107.8 35.3 110.4 33.5 113.1 33.5 C 115.8 33.5 117.9 35.2 117.9 39 C 117.93 38.95 117.9 39.7 117.9 39.7 C 117.9 39.7 109.35 39.71 109.3 39.7 Z M 109.4 38.4 C 109.4 38.4 116.4 38.4 116.4 38.4 C 116.4 36.1 114.9 34.9 113 34.9 C 111.3 34.9 109.6 36 109.4 38.4 Z M 121.7 44.9 C 121.65 44.86 120.6 44.9 120.6 44.9 L 120.6 42.8 L 122.9 42.8 C 122.9 42.8 122.87 44.92 122.9 44.9 C 122.9 47.4 121.4 48.3 119.8 48.4 C 119.8 48.4 119.6 47.5 119.6 47.5 C 121.3 47.2 121.7 46.2 121.7 44.9 Z M 137.5 42.9 C 136.6 44.6 134.9 45.2 133.5 45.2 C 131.5 45.2 129.8 44.1 129.8 41.9 C 129.8 39.8 131.3 38.8 133.2 38.6 C 133.2 38.6 135.9 38.2 135.9 38.2 C 136.7 38.1 137.5 37.8 137.5 36.8 C 137.5 35.5 136.3 34.8 134.7 34.8 C 133 34.8 132 35.6 131.8 36.9 C 131.8 36.9 130.2 36.9 130.2 36.9 C 130.6 34.6 132.4 33.5 134.8 33.5 C 137.4 33.5 139 34.7 139 37.2 C 138.96 37.19 139 45 139 45 L 137.5 45 C 137.5 45 137.46 42.92 137.5 42.9 Z M 135.6 39.5 C 135.6 39.5 133.9 39.7 133.9 39.7 C 132.4 39.9 131.4 40.4 131.4 41.8 C 131.4 43.2 132.5 43.8 133.7 43.8 C 135.5 43.8 137.4 42.5 137.4 40.1 C 137.4 40.1 137.4 39 137.4 39 C 137 39.3 136.4 39.4 135.6 39.5 Z M 145.7 30.3 C 144.4 30.3 144.1 30.9 144.1 32 C 144.14 31.96 144.1 33.7 144.1 33.7 L 146.6 33.7 L 146.6 35.1 L 144.1 35.1 L 144.1 45 L 142.6 45 L 142.6 35.1 L 140.7 35.1 L 140.7 33.7 L 142.6 33.7 C 142.6 33.7 142.61 31.92 142.6 31.9 C 142.6 29.4 144 29 145.4 29 C 145.44 28.98 146.9 29 146.9 29 L 146.9 30.3 C 146.9 30.3 145.7 30.34 145.7 30.3 Z M 154.6 35 C 154.6 35 154.2 35.03 154.2 35 C 151.8 35 150.5 36.4 150.5 39 C 150.46 39 150.5 45 150.5 45 L 148.9 45 L 148.9 33.7 L 150.4 33.7 C 150.4 33.7 150.44 35.78 150.4 35.8 C 151 34.3 152.3 33.6 154.1 33.6 C 154.07 33.58 154.6 33.6 154.6 33.6 L 154.6 35 Z M 155.6 39.4 C 155.6 35.7 157.8 33.5 160.9 33.5 C 164 33.5 166.3 35.7 166.3 39.4 C 166.3 43 164.1 45.2 161 45.2 C 157.9 45.2 155.6 43 155.6 39.4 Z M 164.7 39.3 C 164.7 36.5 163 34.9 160.9 34.9 C 158.7 34.9 157.2 36.6 157.2 39.4 C 157.2 42.2 158.9 43.8 161 43.8 C 163.2 43.8 164.7 42.1 164.7 39.3 Z M 178.1 37.3 C 178.08 37.25 178.1 45 178.1 45 L 176.5 45 C 176.5 45 176.54 37.44 176.5 37.4 C 176.5 35.9 175.7 34.9 174.1 34.9 C 172.1 34.9 170.5 36.3 170.5 39.1 C 170.45 39.06 170.5 45 170.5 45 L 168.9 45 L 168.9 33.7 L 170.5 33.7 C 170.5 33.7 170.45 35.8 170.5 35.8 C 171.1 34.5 172.4 33.5 174.4 33.5 C 176.6 33.5 178.1 34.8 178.1 37.3 Z M 186.5 45 C 186.5 45 184.82 44.98 184.8 45 C 183.3 45 182 44.5 182 42 C 181.98 42.02 182 35.1 182 35.1 L 179.8 35.1 L 179.8 33.7 L 182 33.7 L 182 30.5 L 183.5 30.1 L 183.5 33.7 L 186.2 33.7 L 186.2 35.1 L 183.5 35.1 C 183.5 35.1 183.52 42 183.5 42 C 183.5 43 183.8 43.6 185.1 43.6 C 185.07 43.6 186.5 43.6 186.5 43.6 L 186.5 45 Z M 195.6 42.9 C 194.7 44.6 193 45.2 191.6 45.2 C 189.7 45.2 187.9 44.1 187.9 41.9 C 187.9 39.8 189.4 38.8 191.4 38.6 C 191.4 38.6 194 38.2 194 38.2 C 194.9 38.1 195.6 37.8 195.6 36.8 C 195.6 35.5 194.5 34.8 192.9 34.8 C 191.2 34.8 190.2 35.6 189.9 36.9 C 189.9 36.9 188.4 36.9 188.4 36.9 C 188.7 34.6 190.5 33.5 193 33.5 C 195.5 33.5 197.1 34.7 197.1 37.2 C 197.1 37.19 197.1 45 197.1 45 L 195.6 45 C 195.6 45 195.61 42.92 195.6 42.9 Z M 193.7 39.5 C 193.7 39.5 192 39.7 192 39.7 C 190.6 39.9 189.5 40.4 189.5 41.8 C 189.5 43.2 190.6 43.8 191.9 43.8 C 193.6 43.8 195.6 42.5 195.6 40.1 C 195.6 40.1 195.6 39 195.6 39 C 195.2 39.3 194.5 39.4 193.7 39.5 Z M 212.9 45 C 212.9 45 212.92 42.84 212.9 42.8 C 212.1 44.4 210.8 45.1 209.2 45.1 C 207 45.1 205.4 43.8 205.4 41.2 C 205.4 41.16 205.4 33.7 205.4 33.7 L 206.9 33.7 C 206.9 33.7 206.93 40.97 206.9 41 C 206.9 42.8 207.9 43.8 209.4 43.8 C 211.2 43.8 212.9 42.4 212.9 39.5 C 212.85 39.54 212.9 33.7 212.9 33.7 L 214.4 33.7 L 214.4 45 L 212.9 45 Z M 226.9 37.3 C 226.9 37.25 226.9 45 226.9 45 L 225.4 45 C 225.4 45 225.37 37.44 225.4 37.4 C 225.4 35.9 224.5 34.9 222.9 34.9 C 221 34.9 219.3 36.3 219.3 39.1 C 219.28 39.06 219.3 45 219.3 45 L 217.7 45 L 217.7 33.7 L 219.3 33.7 C 219.3 33.7 219.28 35.8 219.3 35.8 C 220 34.5 221.2 33.5 223.2 33.5 C 225.4 33.5 226.9 34.8 226.9 37.3 Z M 239.9 45.2 C 236.8 45.2 234.7 42.9 234.7 39.4 C 234.7 35.8 236.8 33.5 240 33.5 C 242.5 33.5 244.5 34.9 244.7 37.4 C 244.7 37.4 243.2 37.4 243.2 37.4 C 243 35.8 241.6 34.9 240 34.9 C 237.8 34.9 236.2 36.6 236.2 39.3 C 236.2 42.1 237.8 43.8 240 43.8 C 241.7 43.8 243.1 42.8 243.2 41 C 243.2 41 244.7 41 244.7 41 C 244.5 43.7 242.4 45.2 239.9 45.2 Z M 254.2 42.9 C 253.4 44.6 251.7 45.2 250.2 45.2 C 248.3 45.2 246.6 44.1 246.6 41.9 C 246.6 39.8 248.1 38.8 250 38.6 C 250 38.6 252.7 38.2 252.7 38.2 C 253.5 38.1 254.2 37.8 254.2 36.8 C 254.2 35.5 253.1 34.8 251.5 34.8 C 249.8 34.8 248.8 35.6 248.6 36.9 C 248.6 36.9 247 36.9 247 36.9 C 247.3 34.6 249.1 33.5 251.6 33.5 C 254.2 33.5 255.7 34.7 255.7 37.2 C 255.73 37.19 255.7 45 255.7 45 L 254.2 45 C 254.2 45 254.24 42.92 254.2 42.9 Z M 252.4 39.5 C 252.4 39.5 250.7 39.7 250.7 39.7 C 249.2 39.9 248.2 40.4 248.2 41.8 C 248.2 43.2 249.2 43.8 250.5 43.8 C 252.2 43.8 254.2 42.5 254.2 40.1 C 254.2 40.1 254.2 39 254.2 39 C 253.8 39.3 253.1 39.4 252.4 39.5 Z M 258.9 33.7 L 260.4 33.7 C 260.4 33.7 260.4 35.57 260.4 35.6 C 261 34.2 262.2 33.5 263.7 33.5 C 265.3 33.5 266.7 34.4 267 35.8 C 267.5 34.6 268.8 33.5 270.7 33.5 C 272.7 33.5 274.4 34.6 274.4 36.9 C 274.36 36.9 274.4 45 274.4 45 L 272.8 45 C 272.8 45 272.83 37.44 272.8 37.4 C 272.8 35.7 271.8 34.9 270.4 34.9 C 268.8 34.9 267.4 36.2 267.4 38.5 C 267.37 38.53 267.4 45 267.4 45 L 265.9 45 C 265.9 45 265.86 37.44 265.9 37.4 C 265.9 35.7 264.8 34.9 263.5 34.9 C 261.8 34.9 260.4 36.1 260.4 38.5 C 260.42 38.53 260.4 45 260.4 45 L 258.9 45 L 258.9 33.7 Z M 288.1 39.3 C 288.1 42.8 286 45.2 283 45.2 C 281 45.2 279.7 44.1 279.1 42.9 C 279.09 42.9 279.1 45 279.1 45 L 277.6 45 L 277.6 29 L 279.1 29 C 279.1 29 279.15 35.97 279.1 36 C 279.7 34.6 281.1 33.5 283.2 33.5 C 286.1 33.5 288.1 35.7 288.1 39.3 Z M 286.6 39.4 C 286.6 36.6 285.1 35 282.9 35 C 280.7 35 279.1 36.6 279.1 39.4 C 279.1 42.2 280.7 43.9 282.8 43.9 C 285.1 43.9 286.6 42.1 286.6 39.4 Z M 292.4 29 L 290.7 29 L 290.7 30.9 L 292.4 30.9 L 292.4 29 Z M 292.3 45 L 290.8 45 L 290.8 33.7 L 292.3 33.7 L 292.3 45 Z M 294.9 39.4 C 294.9 35.7 297.1 33.5 300.3 33.5 C 303.4 33.5 305.6 35.7 305.6 39.4 C 305.6 43 303.4 45.2 300.3 45.2 C 297.2 45.2 294.9 43 294.9 39.4 Z M 304 39.3 C 304 36.5 302.3 34.9 300.2 34.9 C 298 34.9 296.5 36.6 296.5 39.4 C 296.5 42.2 298.2 43.8 300.3 43.8 C 302.5 43.8 304 42.1 304 39.3 Z " stroke="none" fill="#000"/>  </g>  <g id="Polygon11618">    <path d="M 5 21.9 C 4.6 23.1 3.6 23.5 2.4 23.5 C 2.39 23.48 1.2 23.5 1.2 23.5 L 1.2 22.1 C 1.2 22.1 2.18 22.11 2.2 22.1 C 3.1 22.1 3.6 21.8 4 20.8 C 3.99 20.79 4.5 19.3 4.5 19.3 L 0.3 8.5 L 1.9 8.5 L 5.3 17.4 L 8.6 8.5 L 10.1 8.5 C 10.1 8.5 5 21.92 5 21.9 Z M 17.7 14.5 C 17.7 17.3 19.5 18.6 21.5 18.6 C 23 18.6 24.4 17.9 24.8 16.3 C 24.8 16.3 26.2 16.3 26.2 16.3 C 25.7 18.9 23.5 20 21.4 20 C 18.7 20 16.2 18.2 16.2 14.2 C 16.2 10.1 18.7 8.3 21.4 8.3 C 24.1 8.3 26.3 10 26.3 13.8 C 26.29 13.75 26.3 14.5 26.3 14.5 C 26.3 14.5 17.7 14.51 17.7 14.5 Z M 17.7 13.2 C 17.7 13.2 24.7 13.2 24.7 13.2 C 24.7 10.9 23.3 9.7 21.4 9.7 C 19.6 9.7 18 10.8 17.7 13.2 Z M 30.4 19.8 L 28.9 19.8 L 28.9 3.8 L 30.4 3.8 L 30.4 19.8 Z M 39.5 8.5 L 41 8.5 C 41 8.5 40.99 10.37 41 10.4 C 41.6 9 42.8 8.3 44.3 8.3 C 45.9 8.3 47.2 9.2 47.6 10.6 C 48.1 9.4 49.3 8.3 51.3 8.3 C 53.3 8.3 55 9.4 55 11.7 C 54.96 11.7 55 19.8 55 19.8 L 53.4 19.8 C 53.4 19.8 53.42 12.24 53.4 12.2 C 53.4 10.5 52.4 9.7 51 9.7 C 49.3 9.7 48 11 48 13.3 C 47.96 13.33 48 19.8 48 19.8 L 46.5 19.8 C 46.5 19.8 46.45 12.24 46.5 12.2 C 46.5 10.5 45.4 9.7 44.1 9.7 C 42.4 9.7 41 10.9 41 13.3 C 41.01 13.33 41 19.8 41 19.8 L 39.5 19.8 L 39.5 8.5 Z M 59 14.5 C 59 17.3 60.8 18.6 62.7 18.6 C 64.2 18.6 65.7 17.9 66 16.3 C 66 16.3 67.5 16.3 67.5 16.3 C 67 18.9 64.8 20 62.7 20 C 60 20 57.5 18.2 57.5 14.2 C 57.5 10.1 60 8.3 62.7 8.3 C 65.4 8.3 67.6 10 67.6 13.8 C 67.58 13.75 67.6 14.5 67.6 14.5 C 67.6 14.5 58.99 14.51 59 14.5 Z M 59 13.2 C 59 13.2 66 13.2 66 13.2 C 66 10.9 64.6 9.7 62.7 9.7 C 60.9 9.7 59.2 10.8 59 13.2 Z M 75.8 9.8 C 75.8 9.8 75.47 9.83 75.5 9.8 C 73.1 9.8 71.7 11.2 71.7 13.8 C 71.74 13.8 71.7 19.8 71.7 19.8 L 70.2 19.8 L 70.2 8.5 L 71.7 8.5 C 71.7 8.5 71.71 10.58 71.7 10.6 C 72.2 9.1 73.6 8.4 75.3 8.4 C 75.35 8.38 75.8 8.4 75.8 8.4 L 75.8 9.8 Z M 82.1 20 C 79 20 76.9 17.7 76.9 14.2 C 76.9 10.6 79 8.3 82.2 8.3 C 84.7 8.3 86.7 9.7 86.9 12.2 C 86.9 12.2 85.4 12.2 85.4 12.2 C 85.2 10.6 83.9 9.7 82.2 9.7 C 80 9.7 78.4 11.4 78.4 14.1 C 78.4 16.9 80 18.6 82.2 18.6 C 83.9 18.6 85.3 17.6 85.4 15.8 C 85.4 15.8 86.9 15.8 86.9 15.8 C 86.7 18.5 84.6 20 82.1 20 Z M 96.5 17.7 C 95.6 19.4 93.9 20 92.4 20 C 90.5 20 88.8 18.9 88.8 16.7 C 88.8 14.6 90.3 13.6 92.2 13.4 C 92.2 13.4 94.9 13 94.9 13 C 95.7 12.9 96.5 12.6 96.5 11.6 C 96.5 10.3 95.3 9.6 93.7 9.6 C 92 9.6 91 10.4 90.8 11.7 C 90.8 11.7 89.2 11.7 89.2 11.7 C 89.5 9.4 91.3 8.3 93.8 8.3 C 96.4 8.3 97.9 9.5 97.9 12 C 97.94 11.99 97.9 19.8 97.9 19.8 L 96.5 19.8 C 96.5 19.8 96.45 17.72 96.5 17.7 Z M 94.6 14.3 C 94.6 14.3 92.9 14.5 92.9 14.5 C 91.4 14.7 90.4 15.2 90.4 16.6 C 90.4 18 91.5 18.6 92.7 18.6 C 94.5 18.6 96.4 17.3 96.4 14.9 C 96.4 14.9 96.4 13.8 96.4 13.8 C 96 14.1 95.3 14.2 94.6 14.3 Z M 110.9 19.8 L 109.4 19.8 C 109.4 19.8 109.43 17.6 109.4 17.6 C 108.9 18.9 107.5 20 105.4 20 C 102.5 20 100.4 17.7 100.4 14.1 C 100.4 10.6 102.5 8.3 105.4 8.3 C 107.4 8.3 108.8 9.2 109.4 10.4 C 109.37 10.42 109.4 3.8 109.4 3.8 L 110.9 3.8 L 110.9 19.8 Z M 109.3 14.1 C 109.3 11.3 107.8 9.7 105.6 9.7 C 103.4 9.7 101.9 11.4 101.9 14.1 C 101.9 16.9 103.4 18.6 105.6 18.6 C 107.8 18.6 109.3 16.9 109.3 14.1 Z M 113.5 14.2 C 113.5 10.5 115.8 8.3 118.9 8.3 C 122 8.3 124.2 10.5 124.2 14.2 C 124.2 17.8 122 20 118.9 20 C 115.8 20 113.5 17.8 113.5 14.2 Z M 122.6 14.1 C 122.6 11.3 120.9 9.7 118.8 9.7 C 116.6 9.7 115.1 11.4 115.1 14.2 C 115.1 17 116.8 18.6 118.9 18.6 C 121.1 18.6 122.6 16.9 122.6 14.1 Z M 133.7 3.8 L 132 3.8 L 132 5.7 L 133.7 5.7 L 133.7 3.8 Z M 133.6 19.8 L 132.1 19.8 L 132.1 8.5 L 133.6 8.5 L 133.6 19.8 Z M 146.1 12.1 C 146.14 12.05 146.1 19.8 146.1 19.8 L 144.6 19.8 C 144.6 19.8 144.6 12.24 144.6 12.2 C 144.6 10.7 143.7 9.7 142.1 9.7 C 140.2 9.7 138.5 11.1 138.5 13.9 C 138.51 13.86 138.5 19.8 138.5 19.8 L 137 19.8 L 137 8.5 L 138.5 8.5 C 138.5 8.5 138.51 10.6 138.5 10.6 C 139.2 9.3 140.4 8.3 142.4 8.3 C 144.7 8.3 146.1 9.6 146.1 12.1 Z M 149.4 8.5 L 150.9 8.5 C 150.9 8.5 150.9 10.37 150.9 10.4 C 151.5 9 152.8 8.3 154.2 8.3 C 155.8 8.3 157.2 9.2 157.5 10.6 C 158 9.4 159.3 8.3 161.2 8.3 C 163.3 8.3 164.9 9.4 164.9 11.7 C 164.87 11.7 164.9 19.8 164.9 19.8 L 163.3 19.8 C 163.3 19.8 163.34 12.24 163.3 12.2 C 163.3 10.5 162.3 9.7 160.9 9.7 C 159.3 9.7 157.9 11 157.9 13.3 C 157.88 13.33 157.9 19.8 157.9 19.8 L 156.4 19.8 C 156.4 19.8 156.36 12.24 156.4 12.2 C 156.4 10.5 155.3 9.7 154 9.7 C 152.3 9.7 150.9 10.9 150.9 13.3 C 150.93 13.33 150.9 19.8 150.9 19.8 L 149.4 19.8 L 149.4 8.5 Z M 167.4 14.2 C 167.4 10.5 169.6 8.3 172.7 8.3 C 175.8 8.3 178.1 10.5 178.1 14.2 C 178.1 17.8 175.9 20 172.7 20 C 169.6 20 167.4 17.8 167.4 14.2 Z M 176.5 14.1 C 176.5 11.3 174.8 9.7 172.7 9.7 C 170.5 9.7 169 11.4 169 14.2 C 169 17 170.7 18.6 172.8 18.6 C 174.9 18.6 176.5 16.9 176.5 14.1 Z M 191.2 14.1 C 191.2 17.6 189.1 20 186.1 20 C 184.1 20 182.8 18.9 182.2 17.7 C 182.17 17.7 182.2 19.8 182.2 19.8 L 180.7 19.8 L 180.7 3.8 L 182.2 3.8 C 182.2 3.8 182.24 10.77 182.2 10.8 C 182.8 9.4 184.2 8.3 186.3 8.3 C 189.1 8.3 191.2 10.5 191.2 14.1 Z M 189.7 14.2 C 189.7 11.4 188.2 9.8 186 9.8 C 183.8 9.8 182.2 11.4 182.2 14.2 C 182.2 17 183.8 18.7 185.9 18.7 C 188.2 18.7 189.7 16.9 189.7 14.2 Z M 195.5 3.8 L 193.7 3.8 L 193.7 5.7 L 195.5 5.7 L 195.5 3.8 Z M 195.4 19.8 L 193.8 19.8 L 193.8 8.5 L 195.4 8.5 L 195.4 19.8 Z M 200.3 19.8 L 198.7 19.8 L 198.7 3.8 L 200.3 3.8 L 200.3 19.8 Z M 205.3 3.8 L 203.5 3.8 L 203.5 5.7 L 205.3 5.7 L 205.3 3.8 Z M 205.2 19.8 L 203.6 19.8 L 203.6 8.5 L 205.2 8.5 L 205.2 19.8 Z M 215.5 17.7 C 214.6 19.4 212.9 20 211.4 20 C 209.5 20 207.8 18.9 207.8 16.7 C 207.8 14.6 209.3 13.6 211.2 13.4 C 211.2 13.4 213.9 13 213.9 13 C 214.7 12.9 215.5 12.6 215.5 11.6 C 215.5 10.3 214.3 9.6 212.7 9.6 C 211 9.6 210 10.4 209.8 11.7 C 209.8 11.7 208.2 11.7 208.2 11.7 C 208.5 9.4 210.4 8.3 212.8 8.3 C 215.4 8.3 216.9 9.5 216.9 12 C 216.95 11.99 216.9 19.8 216.9 19.8 L 215.5 19.8 C 215.5 19.8 215.46 17.72 215.5 17.7 Z M 213.6 14.3 C 213.6 14.3 211.9 14.5 211.9 14.5 C 210.4 14.7 209.4 15.2 209.4 16.6 C 209.4 18 210.5 18.6 211.7 18.6 C 213.5 18.6 215.4 17.3 215.4 14.9 C 215.4 14.9 215.4 13.8 215.4 13.8 C 215 14.1 214.3 14.2 213.6 14.3 Z M 225.7 9.8 C 225.7 9.8 225.37 9.83 225.4 9.8 C 223 9.8 221.6 11.2 221.6 13.8 C 221.63 13.8 221.6 19.8 221.6 19.8 L 220.1 19.8 L 220.1 8.5 L 221.6 8.5 C 221.6 8.5 221.61 10.58 221.6 10.6 C 222.1 9.1 223.5 8.4 225.2 8.4 C 225.24 8.38 225.7 8.4 225.7 8.4 L 225.7 9.8 Z M 229.4 3.8 L 227.6 3.8 L 227.6 5.7 L 229.4 5.7 L 229.4 3.8 Z M 229.3 19.8 L 227.7 19.8 L 227.7 8.5 L 229.3 8.5 L 229.3 19.8 Z M 231.9 14.2 C 231.9 10.5 234.1 8.3 237.2 8.3 C 240.3 8.3 242.6 10.5 242.6 14.2 C 242.6 17.8 240.3 20 237.2 20 C 234.1 20 231.9 17.8 231.9 14.2 Z M 241 14.1 C 241 11.3 239.3 9.7 237.2 9.7 C 235 9.7 233.5 11.4 233.5 14.2 C 233.5 17 235.2 18.6 237.3 18.6 C 239.4 18.6 241 16.9 241 14.1 Z M 254.5 20 C 251.4 20 249.3 17.7 249.3 14.2 C 249.3 10.6 251.4 8.3 254.6 8.3 C 257.1 8.3 259.1 9.7 259.3 12.2 C 259.3 12.2 257.8 12.2 257.8 12.2 C 257.6 10.6 256.3 9.7 254.6 9.7 C 252.4 9.7 250.8 11.4 250.8 14.1 C 250.8 16.9 252.4 18.6 254.6 18.6 C 256.3 18.6 257.7 17.6 257.8 15.8 C 257.8 15.8 259.3 15.8 259.3 15.8 C 259.1 18.5 257 20 254.5 20 Z M 261.2 14.2 C 261.2 10.5 263.4 8.3 266.5 8.3 C 269.6 8.3 271.9 10.5 271.9 14.2 C 271.9 17.8 269.7 20 266.5 20 C 263.4 20 261.2 17.8 261.2 14.2 Z M 270.3 14.1 C 270.3 11.3 268.6 9.7 266.5 9.7 C 264.3 9.7 262.8 11.4 262.8 14.2 C 262.8 17 264.5 18.6 266.6 18.6 C 268.8 18.6 270.3 16.9 270.3 14.1 Z M 274.5 8.5 L 276 8.5 C 276 8.5 276.02 10.37 276 10.4 C 276.6 9 277.9 8.3 279.3 8.3 C 281 8.3 282.3 9.2 282.6 10.6 C 283.1 9.4 284.4 8.3 286.3 8.3 C 288.4 8.3 290 9.4 290 11.7 C 289.99 11.7 290 19.8 290 19.8 L 288.5 19.8 C 288.5 19.8 288.45 12.24 288.5 12.2 C 288.5 10.5 287.4 9.7 286.1 9.7 C 284.4 9.7 283 11 283 13.3 C 282.99 13.33 283 19.8 283 19.8 L 281.5 19.8 C 281.5 19.8 281.48 12.24 281.5 12.2 C 281.5 10.5 280.5 9.7 279.1 9.7 C 277.4 9.7 276 10.9 276 13.3 C 276.04 13.33 276 19.8 276 19.8 L 274.5 19.8 L 274.5 8.5 Z M 294 14.5 C 294.1 17.3 295.8 18.6 297.8 18.6 C 299.3 18.6 300.7 17.9 301.1 16.3 C 301.1 16.3 302.5 16.3 302.5 16.3 C 302 18.9 299.8 20 297.7 20 C 295 20 292.5 18.2 292.5 14.2 C 292.5 10.1 295 8.3 297.8 8.3 C 300.4 8.3 302.6 10 302.6 13.8 C 302.61 13.75 302.6 14.5 302.6 14.5 C 302.6 14.5 294.02 14.51 294 14.5 Z M 294.1 13.2 C 294.1 13.2 301.1 13.2 301.1 13.2 C 301.1 10.9 299.6 9.7 297.7 9.7 C 295.9 9.7 294.3 10.8 294.1 13.2 Z M 310.9 9.8 C 310.9 9.8 310.5 9.83 310.5 9.8 C 308.1 9.8 306.8 11.2 306.8 13.8 C 306.76 13.8 306.8 19.8 306.8 19.8 L 305.2 19.8 L 305.2 8.5 L 306.7 8.5 C 306.7 8.5 306.74 10.58 306.7 10.6 C 307.3 9.1 308.6 8.4 310.4 8.4 C 310.38 8.38 310.9 8.4 310.9 8.4 L 310.9 9.8 Z M 317.1 20 C 314 20 311.9 17.7 311.9 14.2 C 311.9 10.6 314 8.3 317.3 8.3 C 319.8 8.3 321.8 9.7 321.9 12.2 C 321.9 12.2 320.4 12.2 320.4 12.2 C 320.3 10.6 318.9 9.7 317.2 9.7 C 315 9.7 313.5 11.4 313.5 14.1 C 313.5 16.9 315 18.6 317.2 18.6 C 318.9 18.6 320.3 17.6 320.4 15.8 C 320.4 15.8 321.9 15.8 321.9 15.8 C 321.8 18.5 319.6 20 317.1 20 Z M 326.2 3.8 L 324.4 3.8 L 324.4 5.7 L 326.2 5.7 L 326.2 3.8 Z M 326.1 19.8 L 324.6 19.8 L 324.6 8.5 L 326.1 8.5 L 326.1 19.8 Z M 336.4 17.7 C 335.5 19.4 333.8 20 332.4 20 C 330.4 20 328.7 18.9 328.7 16.7 C 328.7 14.6 330.2 13.6 332.1 13.4 C 332.1 13.4 334.8 13 334.8 13 C 335.6 12.9 336.4 12.6 336.4 11.6 C 336.4 10.3 335.2 9.6 333.6 9.6 C 331.9 9.6 330.9 10.4 330.7 11.7 C 330.7 11.7 329.1 11.7 329.1 11.7 C 329.5 9.4 331.3 8.3 333.7 8.3 C 336.3 8.3 337.9 9.5 337.9 12 C 337.86 11.99 337.9 19.8 337.9 19.8 L 336.4 19.8 C 336.4 19.8 336.37 17.72 336.4 17.7 Z M 334.5 14.3 C 334.5 14.3 332.8 14.5 332.8 14.5 C 331.4 14.7 330.3 15.2 330.3 16.6 C 330.3 18 331.4 18.6 332.6 18.6 C 334.4 18.6 336.3 17.3 336.3 14.9 C 336.3 14.9 336.3 13.8 336.3 13.8 C 335.9 14.1 335.3 14.2 334.5 14.3 Z M 342.5 19.8 L 341 19.8 L 341 3.8 L 342.5 3.8 L 342.5 19.8 Z M 347 19.7 C 347 19.66 346 19.7 346 19.7 L 346 17.6 L 348.2 17.6 C 348.2 17.6 348.22 19.72 348.2 19.7 C 348.2 22.2 346.7 23.1 345.2 23.2 C 345.2 23.2 345 22.3 345 22.3 C 346.7 22 347 21 347 19.7 Z " stroke="none" fill="#000"/>  </g></svg>