<?xml version="1.0" standalone="no"?><!DOCTYPE svg PUBLIC "-//W3C//DTD SVG 1.1//EN" "http://www.w3.org/Graphics/SVG/1.1/DTD/svg11.dtd"><svg xmlns="http://www.w3.org/2000/svg" version="1.1" width="621px" height="457.2px" viewBox="0 0 621 457.2">  <desc>Denken Sie um</desc>  <defs/>  <g id="Polygon12281">    <path d="M 7.9 274.6 C 7.9 274.6 19.01 274.61 19 274.6 C 19 292.2 32.4 301.4 43.6 301.4 C 51.6 301.4 58.5 296.8 58.5 287.1 C 58.5 275.2 48.1 270.6 34.7 263.8 C 18.7 255.7 6.6 248.4 6.6 230.1 C 6.6 207.4 25.5 197.9 45.5 197.9 C 57.7 197.9 70.6 201.5 79.9 207.8 C 79.92 207.79 72.7 228.8 72.7 228.8 C 72.7 228.8 62.35 228.81 62.4 228.8 C 61.5 214.4 51.8 207.9 43.2 207.9 C 35.7 207.9 29.1 212.8 29.1 221.5 C 29.1 233.3 41 238.5 53.9 244.4 C 69.1 251.4 82.7 258.6 82.7 277.8 C 82.7 301.2 62.5 311.2 41.6 311.2 C 28.2 311.2 14.5 307.1 5 299.9 C 5.04 299.95 7.9 274.6 7.9 274.6 Z M 97.5 208.4 C 97.5 199.9 103.4 194.3 111.9 194.3 C 120.4 194.3 126.3 199.9 126.3 208.4 C 126.3 216.9 120.4 222.5 111.9 222.5 C 103.4 222.5 97.5 216.9 97.5 208.4 Z M 91.3 301.7 L 102.4 297.5 L 102.4 248.7 L 91.6 243.6 L 91.6 238.9 L 124 231.8 L 124 299.2 L 135.1 301.1 L 135.1 308.4 L 91.3 308.4 L 91.3 301.7 Z M 209.9 286.1 C 205.1 302.4 191.9 310.2 178.6 310.2 C 161 310.2 143 296.8 143 271.4 C 143 245.1 161.7 231.8 179.1 231.8 C 194.4 231.8 209.4 242.1 209.4 263.9 C 209.4 266.3 209.2 268.8 208.8 271.4 C 208.8 271.4 161.1 271.4 161.1 271.4 C 162.9 286.4 173.1 292.7 183.7 292.7 C 191.8 292.7 200.2 288.6 205.9 279.9 C 205.9 279.9 209.9 286.1 209.9 286.1 Z M 189.4 261.1 C 190.9 247.1 184.7 241.2 177.7 241.2 C 170.5 241.2 162.4 246.7 161.1 261.1 C 161.1 261.1 189.4 261.1 189.4 261.1 Z M 318.7 293.2 L 328.9 295.1 L 328.9 301.7 L 299.7 310.2 L 299.7 293.8 C 299.7 293.8 283.25 308.73 283.2 308.7 C 281.5 309.6 279.2 310.2 276.5 310.2 C 266.8 310.2 253.4 303.4 253.4 284 C 253.44 283.97 253.4 243.9 253.4 243.9 L 242.4 240.3 L 242.4 233.3 L 275 233.3 C 275 233.3 275.04 279.07 275 279.1 C 275 288.4 279.8 292.6 285.3 292.6 C 289.4 292.6 293.9 290.2 297.1 286 C 297.07 285.98 297.1 243.9 297.1 243.9 L 286.1 240.3 L 286.1 233.3 L 318.7 233.3 L 318.7 293.2 Z M 333.2 301.7 L 344.3 297.5 L 344.3 248.1 L 333.5 243.1 L 333.5 238.3 L 363.3 231.8 L 363.3 248.3 C 363.3 248.3 379.72 233.28 379.7 233.3 C 382.5 232.4 385.8 231.8 389.1 231.8 C 397.6 231.8 406.5 235.6 408.8 247.5 C 408.8 247.5 424.4 233.3 424.4 233.3 C 427.7 232.4 431.3 231.8 434.9 231.8 C 445.2 231.8 455.5 237 455.5 253.7 C 455.47 253.73 455.5 299.2 455.5 299.2 L 466.6 301.1 L 466.6 308.4 L 424.9 308.4 L 424.9 301.1 L 433.9 297.9 C 433.9 297.9 433.87 260.93 433.9 260.9 C 433.9 252.4 429.8 248.5 424.5 248.5 C 420.2 248.5 415 251.1 410.5 256 C 410.54 256.03 410.5 300.4 410.5 300.4 L 419.5 302 L 419.5 308.4 L 380.3 308.4 L 380.3 301.1 L 388.9 297.9 C 388.9 297.9 388.94 260.93 388.9 260.9 C 388.9 252.4 384.9 248.5 379.7 248.5 C 375.4 248.5 370.4 251.1 365.9 256 C 365.9 256.03 365.9 300.4 365.9 300.4 L 374.8 302 L 374.8 308.4 L 333.2 308.4 L 333.2 301.7 Z M 488.6 276.5 L 478.8 200.4 L 507.3 200.4 L 497.5 276.5 L 488.6 276.5 Z M 480.2 296.2 C 480.2 288.7 485.7 283.2 493.1 283.2 C 500.4 283.2 505.9 288.7 505.9 296.2 C 505.9 303.7 500.4 309.2 493.1 309.2 C 485.7 309.2 480.2 303.7 480.2 296.2 Z " stroke="none" fill="#000"/>  </g>  <g id="Polygon12280">    <path d="M 3.6 128.9 L 16.8 123.8 L 16.8 37.4 L 3.6 35 L 3.6 27.6 C 3.6 27.6 56.16 27.65 56.2 27.6 C 92.9 27.6 110.3 53.3 110.3 79.3 C 110.3 107.1 90.3 135.6 51.8 135.6 C 51.84 135.65 3.6 135.6 3.6 135.6 L 3.6 128.9 Z M 51.1 126.3 C 73.6 126.3 82.7 104.8 82.7 83.4 C 82.7 59.6 71.6 35.9 48.5 35.9 C 48.53 35.85 42 35.9 42 35.9 L 42 126.3 C 42 126.3 51.12 126.29 51.1 126.3 Z M 185.9 113.3 C 181 129.6 167.9 137.4 154.5 137.4 C 136.9 137.4 118.9 124 118.9 98.6 C 118.9 72.3 137.7 59 155.1 59 C 170.4 59 185.3 69.3 185.3 91.1 C 185.3 93.5 185.2 96 184.8 98.6 C 184.8 98.6 137.1 98.6 137.1 98.6 C 138.8 113.6 149 119.9 159.7 119.9 C 167.8 119.9 176.1 115.8 181.9 107.1 C 181.9 107.1 185.9 113.3 185.9 113.3 Z M 165.3 88.3 C 166.9 74.3 160.7 68.4 153.6 68.4 C 146.4 68.4 138.4 73.9 137.1 88.3 C 137.1 88.3 165.3 88.3 165.3 88.3 Z M 193.1 128.9 L 204.2 124.7 L 204.2 75.3 L 193.4 70.3 L 193.4 65.5 L 223.2 59 L 223.2 75.5 C 223.2 75.5 239.61 60.48 239.6 60.5 C 242.5 59.6 245.7 59 249 59 C 260.5 59 272.3 65.9 272.3 84.4 C 272.3 84.38 272.3 126.4 272.3 126.4 L 283.4 128.3 L 283.4 135.6 L 241.5 135.6 L 241.5 128.2 L 250.7 124.7 C 250.7 124.7 250.7 89.28 250.7 89.3 C 250.7 79.5 246.2 75.3 240.6 75.3 C 235.9 75.3 230.4 78.2 225.8 82.9 C 225.79 82.94 225.8 126.4 225.8 126.4 L 235 128 L 235 135.6 L 193.1 135.6 L 193.1 128.9 Z M 287 128.9 L 298.1 124.7 L 298.1 42.8 L 287.3 37.7 L 287.3 33 L 319.7 25.9 L 319.7 126.4 L 330.8 128.3 L 330.8 135.6 L 287 135.6 L 287 128.9 Z M 348.6 135.6 L 319.8 96.6 L 348 70.1 L 335.7 67.2 L 335.7 60.5 L 372.7 60.5 L 372.7 68.1 L 361.7 70 L 341.6 89.1 L 372.7 128.9 L 372.7 135.6 L 348.6 135.6 Z M 442.5 113.3 C 437.6 129.6 424.5 137.4 411.1 137.4 C 393.6 137.4 375.6 124 375.6 98.6 C 375.6 72.3 394.3 59 411.7 59 C 427 59 441.9 69.3 441.9 91.1 C 441.9 93.5 441.8 96 441.4 98.6 C 441.4 98.6 393.7 98.6 393.7 98.6 C 395.4 113.6 405.6 119.9 416.3 119.9 C 424.4 119.9 432.7 115.8 438.5 107.1 C 438.5 107.1 442.5 113.3 442.5 113.3 Z M 421.9 88.3 C 423.5 74.3 417.3 68.4 410.3 68.4 C 403.1 68.4 395 73.9 393.7 88.3 C 393.7 88.3 421.9 88.3 421.9 88.3 Z M 449.7 128.9 L 460.8 124.7 L 460.8 75.3 L 450 70.3 L 450 65.5 L 479.8 59 L 479.8 75.5 C 479.8 75.5 496.22 60.48 496.2 60.5 C 499.1 59.6 502.3 59 505.6 59 C 517.1 59 528.9 65.9 528.9 84.4 C 528.91 84.38 528.9 126.4 528.9 126.4 L 540 128.3 L 540 135.6 L 498.1 135.6 L 498.1 128.2 L 507.3 124.7 C 507.3 124.7 507.31 89.28 507.3 89.3 C 507.3 79.5 502.8 75.3 497.2 75.3 C 492.5 75.3 487 78.2 482.4 82.9 C 482.4 82.94 482.4 126.4 482.4 126.4 L 491.6 128 L 491.6 135.6 L 449.7 135.6 L 449.7 128.9 Z " stroke="none" fill="#000"/>  </g></svg>