<?xml version="1.0" standalone="no"?><!DOCTYPE svg PUBLIC "-//W3C//DTD SVG 1.1//EN" "http://www.w3.org/Graphics/SVG/1.1/DTD/svg11.dtd"><svg xmlns="http://www.w3.org/2000/svg" version="1.1" width="387px" height="132.4px" viewBox="0 0 387 132.4">  <desc>Existen determinadas clases de activos o sectores que los inversores deber an evitar</desc>  <defs/>  <g id="Polygon11684">    <path d="M 12 70.2 L 9.3 70.2 C 9.3 70.2 9.28 68.4 9.3 68.4 C 8.7 69.7 7.3 70.4 5.7 70.4 C 3 70.4 0.6 68.4 0.6 64.4 C 0.6 60.4 3 58.4 5.7 58.4 C 7.2 58.4 8.5 59 9.2 60.1 C 9.22 60.12 9.2 54.2 9.2 54.2 L 12 54.2 L 12 70.2 Z M 9.3 64.4 C 9.3 62 7.9 60.9 6.4 60.9 C 4.9 60.9 3.5 62 3.5 64.4 C 3.5 66.7 4.9 67.9 6.4 67.9 C 7.9 67.9 9.3 66.7 9.3 64.4 Z M 16.7 65.2 C 16.8 67.1 18.1 68 19.7 68 C 20.8 68 21.8 67.6 22.2 66.5 C 22.2 66.5 24.7 66.5 24.7 66.5 C 24.2 69.1 21.9 70.4 19.6 70.4 C 16.8 70.4 14 68.5 14 64.4 C 14 60.4 16.6 58.4 19.6 58.4 C 22.4 58.4 24.8 60.2 24.8 64.1 C 24.78 64.09 24.8 65.2 24.8 65.2 C 24.8 65.2 16.72 65.23 16.7 65.2 Z M 16.8 63.2 C 16.8 63.2 22 63.2 22 63.2 C 22 61.7 21 60.8 19.6 60.8 C 18.3 60.8 17 61.5 16.8 63.2 Z M 38.2 64.4 C 38.2 68.5 35.7 70.4 32.9 70.4 C 31.5 70.4 30.2 69.9 29.5 68.8 C 29.5 68.8 29.5 70.2 29.5 70.2 L 26.8 70.2 L 26.8 54.2 L 29.6 54.2 C 29.6 54.2 29.57 60.29 29.6 60.3 C 30.2 59.1 31.5 58.4 33.1 58.4 C 35.8 58.4 38.2 60.4 38.2 64.4 Z M 35.3 64.4 C 35.3 62.1 33.9 60.9 32.4 60.9 C 30.9 60.9 29.5 62.1 29.5 64.4 C 29.5 66.8 30.9 68 32.4 68 C 33.9 68 35.3 66.8 35.3 64.4 Z M 42.1 65.2 C 42.2 67.1 43.5 68 45.1 68 C 46.2 68 47.2 67.6 47.6 66.5 C 47.6 66.5 50.1 66.5 50.1 66.5 C 49.6 69.1 47.4 70.4 45 70.4 C 42.2 70.4 39.4 68.5 39.4 64.4 C 39.4 60.4 42 58.4 45 58.4 C 47.8 58.4 50.2 60.2 50.2 64.1 C 50.19 64.09 50.2 65.2 50.2 65.2 C 50.2 65.2 42.13 65.23 42.1 65.2 Z M 42.2 63.2 C 42.2 63.2 47.5 63.2 47.5 63.2 C 47.5 61.7 46.4 60.8 45 60.8 C 43.7 60.8 42.4 61.5 42.2 63.2 Z M 58.7 61.2 C 58.7 61.2 58 61.17 58 61.2 C 56 61.2 55 62.2 55 64.5 C 54.98 64.51 55 70.2 55 70.2 L 52.2 70.2 L 52.2 58.6 L 55 58.6 C 55 58.6 54.96 60.25 55 60.2 C 55.5 59 56.6 58.5 58 58.5 C 57.98 58.46 58.7 58.5 58.7 58.5 L 58.7 61.2 Z M 60.2 56.5 L 63.4 51.5 L 65.6 53.2 L 62.6 56.5 L 60.2 56.5 Z M 60.1 58.6 L 62.9 58.6 L 62.9 70.2 L 60.1 70.2 L 60.1 58.6 Z M 74.8 62.4 C 74.84 62.39 74.8 70.2 74.8 70.2 L 72.1 70.2 C 72.1 70.2 72.11 68.5 72.1 68.5 C 71.2 70 69.8 70.4 68.6 70.4 C 66.8 70.4 64.8 69.3 64.8 66.8 C 64.8 65 65.9 63.8 68.5 63.4 C 68.5 63.4 71 63 71 63 C 71.7 62.9 72.2 62.7 72.2 62 C 72.2 61 71.4 60.6 70.3 60.6 C 68.8 60.6 68.1 61.3 68 62.3 C 68 62.3 65.3 62.3 65.3 62.3 C 65.6 59.6 67.8 58.4 70.4 58.4 C 73.1 58.4 74.8 59.7 74.8 62.4 Z M 72.1 65.3 C 72.1 65.3 72.1 64.7 72.1 64.7 C 71.9 64.8 71.3 65 70.8 65 C 70.8 65 69.5 65.2 69.5 65.2 C 68.1 65.4 67.6 66 67.6 66.7 C 67.6 67.6 68.3 68.1 69.3 68.1 C 70.7 68.1 72.1 67 72.1 65.3 Z M 87.5 62.7 C 87.55 62.71 87.5 70.2 87.5 70.2 L 84.8 70.2 C 84.8 70.2 84.76 62.96 84.8 63 C 84.8 61.7 84 60.9 82.7 60.9 C 81.1 60.9 80.2 62 80.2 63.9 C 80.16 63.92 80.2 70.2 80.2 70.2 L 77.4 70.2 L 77.4 58.6 L 80.1 58.6 C 80.1 58.6 80.14 60.27 80.1 60.3 C 80.8 59.2 81.7 58.4 83.7 58.4 C 86.3 58.4 87.5 59.9 87.5 62.7 Z M 97.4 65.2 C 97.5 67.1 98.8 68 100.4 68 C 101.5 68 102.5 67.6 102.9 66.5 C 102.9 66.5 105.4 66.5 105.4 66.5 C 104.9 69.1 102.6 70.4 100.3 70.4 C 97.5 70.4 94.7 68.5 94.7 64.4 C 94.7 60.4 97.3 58.4 100.3 58.4 C 103.1 58.4 105.5 60.2 105.5 64.1 C 105.46 64.09 105.5 65.2 105.5 65.2 C 105.5 65.2 97.4 65.23 97.4 65.2 Z M 97.5 63.2 C 97.5 63.2 102.7 63.2 102.7 63.2 C 102.7 61.7 101.7 60.8 100.2 60.8 C 99 60.8 97.7 61.5 97.5 63.2 Z M 113.3 70.2 L 110.4 70.2 L 106.1 58.6 L 109.1 58.6 L 111.9 66.9 L 114.7 58.6 L 117.6 58.6 L 113.3 70.2 Z M 118.9 57.1 L 121.9 57.1 L 121.9 53.9 L 118.9 53.9 L 118.9 57.1 Z M 119 58.6 L 121.8 58.6 L 121.8 70.2 L 119 70.2 L 119 58.6 Z M 130.4 70.2 C 130.4 70.2 128.58 70.18 128.6 70.2 C 126.4 70.2 125 69.5 125 66.4 C 125.03 66.4 125 61.1 125 61.1 L 122.9 61.1 L 122.9 58.6 L 125 58.6 L 125 56 L 127.8 55.2 L 127.8 58.6 L 130.1 58.6 L 130.1 61.1 L 127.8 61.1 C 127.8 61.1 127.83 66.53 127.8 66.5 C 127.8 67.2 128 67.7 129 67.7 C 129 67.7 130.4 67.7 130.4 67.7 L 130.4 70.2 Z M 141.2 62.4 C 141.24 62.39 141.2 70.2 141.2 70.2 L 138.5 70.2 C 138.5 70.2 138.51 68.5 138.5 68.5 C 137.6 70 136.2 70.4 135 70.4 C 133.2 70.4 131.2 69.3 131.2 66.8 C 131.2 65 132.3 63.8 134.9 63.4 C 134.9 63.4 137.4 63 137.4 63 C 138.1 62.9 138.6 62.7 138.6 62 C 138.6 61 137.8 60.6 136.7 60.6 C 135.2 60.6 134.5 61.3 134.4 62.3 C 134.4 62.3 131.7 62.3 131.7 62.3 C 132 59.6 134.2 58.4 136.8 58.4 C 139.5 58.4 141.2 59.7 141.2 62.4 Z M 138.5 65.3 C 138.5 65.3 138.5 64.7 138.5 64.7 C 138.3 64.8 137.7 65 137.2 65 C 137.2 65 135.9 65.2 135.9 65.2 C 134.5 65.4 134 66 134 66.7 C 134 67.6 134.7 68.1 135.7 68.1 C 137.1 68.1 138.5 67 138.5 65.3 Z M 150.3 61.2 C 150.3 61.2 149.58 61.17 149.6 61.2 C 147.6 61.2 146.6 62.2 146.6 64.5 C 146.56 64.51 146.6 70.2 146.6 70.2 L 143.8 70.2 L 143.8 58.6 L 146.5 58.6 C 146.5 58.6 146.54 60.25 146.5 60.2 C 147.1 59 148.2 58.5 149.6 58.5 C 149.56 58.46 150.3 58.5 150.3 58.5 L 150.3 61.2 Z M 154.5 64.6 C 154.5 61.9 155.8 61.4 157.1 60.5 C 158.1 59.8 158.5 59.2 158.5 58.4 C 158.5 57.2 157.7 56.6 156.4 56.6 C 155 56.6 154.1 57.4 154 58.8 C 154 58.8 151.2 58.8 151.2 58.8 C 151.4 55.4 153.9 54.2 156.5 54.2 C 159.3 54.2 161.4 55.5 161.4 58.3 C 161.4 60.5 160.1 61.4 158.7 62.4 C 157.6 63.2 157.1 63.7 157.1 64.6 C 157.12 64.64 157.1 65.3 157.1 65.3 L 154.5 65.3 C 154.5 65.3 154.45 64.55 154.5 64.6 Z M 154.2 66.9 L 157.4 66.9 L 157.4 70.2 L 154.2 70.2 L 154.2 66.9 Z " stroke="none" fill="#000"/>  </g>  <g id="Polygon11683">    <path d="M 10.6 37.2 C 10.63 37.19 10.6 45 10.6 45 L 7.9 45 C 7.9 45 7.9 43.3 7.9 43.3 C 7 44.8 5.6 45.2 4.4 45.2 C 2.5 45.2 0.6 44.1 0.6 41.6 C 0.6 39.8 1.7 38.6 4.3 38.2 C 4.3 38.2 6.8 37.8 6.8 37.8 C 7.5 37.7 8 37.5 8 36.8 C 8 35.8 7.2 35.4 6 35.4 C 4.6 35.4 3.9 36.1 3.8 37.1 C 3.8 37.1 1.1 37.1 1.1 37.1 C 1.4 34.4 3.5 33.2 6.2 33.2 C 8.9 33.2 10.6 34.5 10.6 37.2 Z M 7.9 40.1 C 7.9 40.1 7.9 39.5 7.9 39.5 C 7.6 39.6 7.1 39.8 6.6 39.8 C 6.6 39.8 5.3 40 5.3 40 C 3.9 40.2 3.4 40.8 3.4 41.5 C 3.4 42.4 4.1 42.9 5 42.9 C 6.5 42.9 7.9 41.8 7.9 40.1 Z M 18 45.2 C 14.2 45.2 12.4 42.3 12.4 39.2 C 12.4 36.1 14.2 33.2 18 33.2 C 20.9 33.2 23 34.8 23.1 37.6 C 23.1 37.6 20.4 37.6 20.4 37.6 C 20.3 36.5 19.5 35.7 18.1 35.7 C 16.1 35.7 15.2 37.4 15.2 39.2 C 15.2 41.1 16.1 42.6 18.1 42.6 C 19.4 42.6 20.2 41.9 20.4 40.9 C 20.4 40.9 23.2 40.9 23.2 40.9 C 22.8 43.7 20.8 45.2 18 45.2 Z M 31.1 45 C 31.1 45 29.32 44.98 29.3 45 C 27.2 45 25.8 44.3 25.8 41.2 C 25.77 41.2 25.8 35.9 25.8 35.9 L 23.6 35.9 L 23.6 33.4 L 25.8 33.4 L 25.8 30.8 L 28.6 30 L 28.6 33.4 L 30.9 33.4 L 30.9 35.9 L 28.6 35.9 C 28.6 35.9 28.56 41.33 28.6 41.3 C 28.6 42 28.7 42.5 29.7 42.5 C 29.74 42.5 31.1 42.5 31.1 42.5 L 31.1 45 Z M 32.6 31.9 L 35.6 31.9 L 35.6 28.7 L 32.6 28.7 L 32.6 31.9 Z M 32.7 33.4 L 35.5 33.4 L 35.5 45 L 32.7 45 L 32.7 33.4 Z M 44.1 45 L 41.1 45 L 36.8 33.4 L 39.8 33.4 L 42.6 41.7 L 45.5 33.4 L 48.4 33.4 L 44.1 45 Z M 60.1 39.2 C 60.1 43 57.7 45.2 54.5 45.2 C 51.2 45.2 48.8 43 48.8 39.2 C 48.8 35.4 51.2 33.2 54.5 33.2 C 57.7 33.2 60.1 35.4 60.1 39.2 Z M 51.7 39.2 C 51.7 41.5 52.9 42.6 54.5 42.6 C 56.2 42.6 57.3 41.4 57.3 39.2 C 57.3 36.9 56 35.8 54.4 35.8 C 52.8 35.8 51.7 37 51.7 39.2 Z M 71.4 41.4 C 71.4 44 69.1 45.2 66.5 45.2 C 64.1 45.2 61.5 44.2 61.3 41.3 C 61.3 41.3 64.1 41.3 64.1 41.3 C 64.3 42.4 65.3 42.9 66.6 42.9 C 67.8 42.9 68.6 42.5 68.6 41.7 C 68.6 40.9 68.1 40.8 66.5 40.5 C 64.2 40.1 61.6 39.7 61.6 36.9 C 61.6 34.3 63.8 33.2 66.2 33.2 C 68.9 33.2 70.9 34.5 71.1 37.1 C 71.1 37.1 68.4 37.1 68.4 37.1 C 68.3 36 67.5 35.5 66.3 35.5 C 64.9 35.5 64.3 36.1 64.3 36.8 C 64.3 37.7 65.4 37.9 66.8 38.1 C 68.9 38.4 71.4 38.7 71.4 41.4 Z M 88.7 39.2 C 88.7 43 86.3 45.2 83 45.2 C 79.8 45.2 77.4 43 77.4 39.2 C 77.4 35.4 79.8 33.2 83 33.2 C 86.3 33.2 88.7 35.4 88.7 39.2 Z M 80.2 39.2 C 80.2 41.5 81.5 42.6 83.1 42.6 C 84.7 42.6 85.8 41.4 85.8 39.2 C 85.8 36.9 84.5 35.8 83 35.8 C 81.3 35.8 80.2 37 80.2 39.2 Z M 104.8 41.4 C 104.8 44 102.5 45.2 99.9 45.2 C 97.5 45.2 94.9 44.2 94.7 41.3 C 94.7 41.3 97.5 41.3 97.5 41.3 C 97.7 42.4 98.7 42.9 100 42.9 C 101.2 42.9 102 42.5 102 41.7 C 102 40.9 101.5 40.8 99.9 40.5 C 97.6 40.1 95 39.7 95 36.9 C 95 34.3 97.2 33.2 99.6 33.2 C 102.3 33.2 104.3 34.5 104.5 37.1 C 104.5 37.1 101.8 37.1 101.8 37.1 C 101.7 36 100.8 35.5 99.7 35.5 C 98.3 35.5 97.7 36.1 97.7 36.8 C 97.7 37.7 98.8 37.9 100.2 38.1 C 102.2 38.4 104.8 38.7 104.8 41.4 Z M 108.6 40 C 108.7 41.9 110 42.8 111.6 42.8 C 112.7 42.8 113.8 42.4 114.1 41.3 C 114.1 41.3 116.7 41.3 116.7 41.3 C 116.2 43.9 113.9 45.2 111.5 45.2 C 108.7 45.2 105.9 43.3 105.9 39.2 C 105.9 35.2 108.5 33.2 111.5 33.2 C 114.3 33.2 116.7 35 116.7 38.9 C 116.7 38.89 116.7 40 116.7 40 C 116.7 40 108.63 40.03 108.6 40 Z M 108.7 38 C 108.7 38 114 38 114 38 C 114 36.5 112.9 35.6 111.5 35.6 C 110.2 35.6 108.9 36.3 108.7 38 Z M 123.6 45.2 C 119.8 45.2 118 42.3 118 39.2 C 118 36.1 119.8 33.2 123.6 33.2 C 126.4 33.2 128.6 34.8 128.7 37.6 C 128.7 37.6 126 37.6 126 37.6 C 125.8 36.5 125 35.7 123.6 35.7 C 121.6 35.7 120.8 37.4 120.8 39.2 C 120.8 41.1 121.7 42.6 123.6 42.6 C 125 42.6 125.8 41.9 126 40.9 C 126 40.9 128.8 40.9 128.8 40.9 C 128.4 43.7 126.4 45.2 123.6 45.2 Z M 136.7 45 C 136.7 45 134.86 44.98 134.9 45 C 132.7 45 131.3 44.3 131.3 41.2 C 131.31 41.2 131.3 35.9 131.3 35.9 L 129.2 35.9 L 129.2 33.4 L 131.3 33.4 L 131.3 30.8 L 134.1 30 L 134.1 33.4 L 136.4 33.4 L 136.4 35.9 L 134.1 35.9 C 134.1 35.9 134.11 41.33 134.1 41.3 C 134.1 42 134.3 42.5 135.3 42.5 C 135.28 42.5 136.7 42.5 136.7 42.5 L 136.7 45 Z M 148.8 39.2 C 148.8 43 146.4 45.2 143.2 45.2 C 139.9 45.2 137.5 43 137.5 39.2 C 137.5 35.4 139.9 33.2 143.2 33.2 C 146.4 33.2 148.8 35.4 148.8 39.2 Z M 140.4 39.2 C 140.4 41.5 141.7 42.6 143.2 42.6 C 144.9 42.6 146 41.4 146 39.2 C 146 36.9 144.7 35.8 143.2 35.8 C 141.5 35.8 140.4 37 140.4 39.2 Z M 157.4 36 C 157.4 36 156.66 35.97 156.7 36 C 154.7 36 153.6 37 153.6 39.3 C 153.63 39.31 153.6 45 153.6 45 L 150.8 45 L 150.8 33.4 L 153.6 33.4 C 153.6 33.4 153.61 35.05 153.6 35 C 154.2 33.8 155.3 33.3 156.6 33.3 C 156.64 33.26 157.4 33.3 157.4 33.3 L 157.4 36 Z M 160.5 40 C 160.6 41.9 161.9 42.8 163.5 42.8 C 164.6 42.8 165.6 42.4 166 41.3 C 166 41.3 168.5 41.3 168.5 41.3 C 168 43.9 165.8 45.2 163.4 45.2 C 160.6 45.2 157.8 43.3 157.8 39.2 C 157.8 35.2 160.4 33.2 163.4 33.2 C 166.2 33.2 168.6 35 168.6 38.9 C 168.59 38.89 168.6 40 168.6 40 C 168.6 40 160.52 40.03 160.5 40 Z M 160.6 38 C 160.6 38 165.9 38 165.9 38 C 165.9 36.5 164.8 35.6 163.4 35.6 C 162.1 35.6 160.8 36.3 160.6 38 Z M 179.8 41.4 C 179.8 44 177.5 45.2 174.9 45.2 C 172.5 45.2 169.9 44.2 169.7 41.3 C 169.7 41.3 172.6 41.3 172.6 41.3 C 172.7 42.4 173.8 42.9 175.1 42.9 C 176.3 42.9 177.1 42.5 177.1 41.7 C 177.1 40.9 176.5 40.8 175 40.5 C 172.7 40.1 170.1 39.7 170.1 36.9 C 170.1 34.3 172.3 33.2 174.7 33.2 C 177.4 33.2 179.4 34.5 179.6 37.1 C 179.6 37.1 176.8 37.1 176.8 37.1 C 176.7 36 175.9 35.5 174.7 35.5 C 173.4 35.5 172.8 36.1 172.8 36.8 C 172.8 37.7 173.8 37.9 175.2 38.1 C 177.3 38.4 179.8 38.7 179.8 41.4 Z M 197.2 33.4 L 197.2 49.3 L 194.4 49.3 C 194.4 49.3 194.42 43.26 194.4 43.3 C 193.7 44.4 192.6 45.1 191 45.1 C 188.3 45.1 185.8 43.2 185.8 39.1 C 185.8 35.1 188.2 33.2 190.9 33.2 C 192.4 33.2 193.8 33.8 194.5 35 C 194.48 35.03 194.5 33.4 194.5 33.4 L 197.2 33.4 Z M 194.5 39.1 C 194.5 36.7 193.1 35.7 191.6 35.7 C 190 35.7 188.7 36.7 188.7 39.1 C 188.7 41.4 190 42.5 191.6 42.5 C 193.1 42.5 194.5 41.5 194.5 39.1 Z M 210 45 L 207.2 45 C 207.2 45 207.25 43.34 207.2 43.3 C 206.6 44.4 205.5 45.1 203.9 45.1 C 201.5 45.1 199.7 43.6 199.7 40.6 C 199.73 40.59 199.7 33.4 199.7 33.4 L 202.5 33.4 C 202.5 33.4 202.52 40.38 202.5 40.4 C 202.5 42 203.3 42.6 204.5 42.6 C 206.1 42.6 207.2 41.7 207.2 39 C 207.18 39 207.2 33.4 207.2 33.4 L 210 33.4 L 210 45 Z M 214.7 40 C 214.7 41.9 216.1 42.8 217.7 42.8 C 218.8 42.8 219.8 42.4 220.1 41.3 C 220.1 41.3 222.7 41.3 222.7 41.3 C 222.2 43.9 219.9 45.2 217.5 45.2 C 214.7 45.2 212 43.3 212 39.2 C 212 35.2 214.6 33.2 217.6 33.2 C 220.4 33.2 222.7 35 222.7 38.9 C 222.75 38.89 222.7 40 222.7 40 C 222.7 40 214.68 40.03 214.7 40 Z M 214.7 38 C 214.7 38 220 38 220 38 C 220 36.5 218.9 35.6 217.5 35.6 C 216.2 35.6 215 36.3 214.7 38 Z M 232.8 45 L 230 45 L 230 29 L 232.8 29 L 232.8 45 Z M 246.1 39.2 C 246.1 43 243.7 45.2 240.4 45.2 C 237.2 45.2 234.8 43 234.8 39.2 C 234.8 35.4 237.2 33.2 240.4 33.2 C 243.7 33.2 246.1 35.4 246.1 39.2 Z M 237.6 39.2 C 237.6 41.5 238.9 42.6 240.5 42.6 C 242.1 42.6 243.2 41.4 243.2 39.2 C 243.2 36.9 242 35.8 240.4 35.8 C 238.7 35.8 237.6 37 237.6 39.2 Z M 257.4 41.4 C 257.4 44 255 45.2 252.4 45.2 C 250 45.2 247.4 44.2 247.3 41.3 C 247.3 41.3 250.1 41.3 250.1 41.3 C 250.3 42.4 251.3 42.9 252.6 42.9 C 253.8 42.9 254.6 42.5 254.6 41.7 C 254.6 40.9 254.1 40.8 252.5 40.5 C 250.2 40.1 247.6 39.7 247.6 36.9 C 247.6 34.3 249.8 33.2 252.2 33.2 C 254.9 33.2 256.9 34.5 257.1 37.1 C 257.1 37.1 254.4 37.1 254.4 37.1 C 254.2 36 253.4 35.5 252.3 35.5 C 250.9 35.5 250.3 36.1 250.3 36.8 C 250.3 37.7 251.3 37.9 252.8 38.1 C 254.8 38.4 257.4 38.7 257.4 41.4 Z M 264.4 31.9 L 267.3 31.9 L 267.3 28.7 L 264.4 28.7 L 264.4 31.9 Z M 264.5 33.4 L 267.3 33.4 L 267.3 45 L 264.5 45 L 264.5 33.4 Z M 280.2 37.5 C 280.16 37.51 280.2 45 280.2 45 L 277.4 45 C 277.4 45 277.37 37.76 277.4 37.8 C 277.4 36.5 276.6 35.7 275.3 35.7 C 273.7 35.7 272.8 36.8 272.8 38.7 C 272.77 38.72 272.8 45 272.8 45 L 270 45 L 270 33.4 L 272.7 33.4 C 272.7 33.4 272.75 35.07 272.7 35.1 C 273.4 34 274.3 33.2 276.3 33.2 C 278.9 33.2 280.2 34.7 280.2 37.5 Z M 288.7 45 L 285.7 45 L 281.4 33.4 L 284.4 33.4 L 287.2 41.7 L 290.1 33.4 L 293 33.4 L 288.7 45 Z M 296.1 40 C 296.2 41.9 297.5 42.8 299.1 42.8 C 300.2 42.8 301.2 42.4 301.6 41.3 C 301.6 41.3 304.1 41.3 304.1 41.3 C 303.6 43.9 301.3 45.2 299 45.2 C 296.2 45.2 293.4 43.3 293.4 39.2 C 293.4 35.2 296 33.2 299 33.2 C 301.8 33.2 304.2 35 304.2 38.9 C 304.16 38.89 304.2 40 304.2 40 C 304.2 40 296.1 40.03 296.1 40 Z M 296.2 38 C 296.2 38 301.4 38 301.4 38 C 301.4 36.5 300.4 35.6 298.9 35.6 C 297.7 35.6 296.4 36.3 296.2 38 Z M 312.7 36 C 312.7 36 311.97 35.97 312 36 C 310 36 308.9 37 308.9 39.3 C 308.95 39.31 308.9 45 308.9 45 L 306.2 45 L 306.2 33.4 L 308.9 33.4 C 308.9 33.4 308.93 35.05 308.9 35 C 309.5 33.8 310.6 33.3 312 33.3 C 311.95 33.26 312.7 33.3 312.7 33.3 L 312.7 36 Z M 323.3 41.4 C 323.3 44 321 45.2 318.4 45.2 C 316 45.2 313.4 44.2 313.2 41.3 C 313.2 41.3 316 41.3 316 41.3 C 316.2 42.4 317.3 42.9 318.6 42.9 C 319.7 42.9 320.6 42.5 320.6 41.7 C 320.6 40.9 320 40.8 318.4 40.5 C 316.2 40.1 313.6 39.7 313.6 36.9 C 313.6 34.3 315.8 33.2 318.2 33.2 C 320.9 33.2 322.9 34.5 323.1 37.1 C 323.1 37.1 320.3 37.1 320.3 37.1 C 320.2 36 319.4 35.5 318.2 35.5 C 316.8 35.5 316.3 36.1 316.3 36.8 C 316.3 37.7 317.3 37.9 318.7 38.1 C 320.8 38.4 323.3 38.7 323.3 41.4 Z M 335.8 39.2 C 335.8 43 333.4 45.2 330.1 45.2 C 326.9 45.2 324.5 43 324.5 39.2 C 324.5 35.4 326.9 33.2 330.1 33.2 C 333.4 33.2 335.8 35.4 335.8 39.2 Z M 327.3 39.2 C 327.3 41.5 328.6 42.6 330.2 42.6 C 331.8 42.6 333 41.4 333 39.2 C 333 36.9 331.7 35.8 330.1 35.8 C 328.5 35.8 327.3 37 327.3 39.2 Z M 344.4 36 C 344.4 36 343.62 35.97 343.6 36 C 341.7 36 340.6 37 340.6 39.3 C 340.6 39.31 340.6 45 340.6 45 L 337.8 45 L 337.8 33.4 L 340.6 33.4 C 340.6 33.4 340.58 35.05 340.6 35 C 341.2 33.8 342.2 33.3 343.6 33.3 C 343.6 33.26 344.4 33.3 344.4 33.3 L 344.4 36 Z M 347.5 40 C 347.5 41.9 348.9 42.8 350.5 42.8 C 351.6 42.8 352.6 42.4 352.9 41.3 C 352.9 41.3 355.5 41.3 355.5 41.3 C 355 43.9 352.7 45.2 350.3 45.2 C 347.5 45.2 344.8 43.3 344.8 39.2 C 344.8 35.2 347.4 33.2 350.4 33.2 C 353.2 33.2 355.5 35 355.5 38.9 C 355.55 38.89 355.5 40 355.5 40 C 355.5 40 347.48 40.03 347.5 40 Z M 347.5 38 C 347.5 38 352.8 38 352.8 38 C 352.8 36.5 351.7 35.6 350.3 35.6 C 349 35.6 347.8 36.3 347.5 38 Z M 366.8 41.4 C 366.8 44 364.5 45.2 361.9 45.2 C 359.5 45.2 356.9 44.2 356.7 41.3 C 356.7 41.3 359.5 41.3 359.5 41.3 C 359.7 42.4 360.7 42.9 362 42.9 C 363.2 42.9 364.1 42.5 364.1 41.7 C 364.1 40.9 363.5 40.8 361.9 40.5 C 359.6 40.1 357.1 39.7 357.1 36.9 C 357.1 34.3 359.3 33.2 361.7 33.2 C 364.4 33.2 366.4 34.5 366.5 37.1 C 366.5 37.1 363.8 37.1 363.8 37.1 C 363.7 36 362.9 35.5 361.7 35.5 C 360.3 35.5 359.8 36.1 359.8 36.8 C 359.8 37.7 360.8 37.9 362.2 38.1 C 364.3 38.4 366.8 38.7 366.8 41.4 Z " stroke="none" fill="#000"/>  </g>  <g id="Polygon11682">    <path d="M 7.9 12.2 L 4.7 12.2 L 4.7 8.9 L 7.9 8.9 L 7.9 12.2 Z M 7.6 14.6 C 7.6 17.2 6.3 17.7 5 18.6 C 4 19.3 3.6 19.9 3.6 20.7 C 3.6 21.9 4.4 22.5 5.6 22.5 C 7.1 22.5 8 21.7 8.1 20.3 C 8.1 20.3 10.9 20.3 10.9 20.3 C 10.6 23.7 8.2 24.9 5.6 24.9 C 2.8 24.9 0.6 23.6 0.6 20.8 C 0.6 18.6 2 17.7 3.4 16.7 C 4.5 15.9 5 15.4 5 14.5 C 4.96 14.47 5 13.8 5 13.8 L 7.6 13.8 C 7.6 13.8 7.62 14.55 7.6 14.6 Z M 12.9 19.8 L 12.9 4 L 23.5 4 L 23.5 6.8 L 15.8 6.8 L 15.8 10.4 L 23.1 10.4 L 23.1 13.2 L 15.8 13.2 L 15.8 17 L 23.9 17 L 23.9 19.8 L 12.9 19.8 Z M 31 16.1 L 28.3 19.8 L 24.8 19.8 L 29.1 14 L 24.8 8.2 L 28.3 8.2 L 31 11.8 L 33.5 8.2 L 37 8.2 L 32.8 13.8 L 37.3 19.8 L 33.6 19.8 L 31 16.1 Z M 38.7 6.7 L 41.7 6.7 L 41.7 3.5 L 38.7 3.5 L 38.7 6.7 Z M 38.8 8.2 L 41.6 8.2 L 41.6 19.8 L 38.8 19.8 L 38.8 8.2 Z M 53.6 16.2 C 53.6 18.8 51.3 20 48.7 20 C 46.3 20 43.7 19 43.5 16.1 C 43.5 16.1 46.3 16.1 46.3 16.1 C 46.5 17.2 47.5 17.7 48.8 17.7 C 50 17.7 50.8 17.3 50.8 16.5 C 50.8 15.7 50.3 15.6 48.7 15.3 C 46.4 14.9 43.8 14.5 43.8 11.7 C 43.8 9.1 46 8 48.4 8 C 51.1 8 53.1 9.3 53.3 11.9 C 53.3 11.9 50.6 11.9 50.6 11.9 C 50.5 10.8 49.6 10.3 48.5 10.3 C 47.1 10.3 46.5 10.9 46.5 11.6 C 46.5 12.5 47.6 12.7 49 12.9 C 51.1 13.2 53.6 13.5 53.6 16.2 Z M 61.4 19.8 C 61.4 19.8 59.56 19.78 59.6 19.8 C 57.4 19.8 56 19.1 56 16 C 56.01 16 56 10.7 56 10.7 L 53.9 10.7 L 53.9 8.2 L 56 8.2 L 56 5.6 L 58.8 4.8 L 58.8 8.2 L 61.1 8.2 L 61.1 10.7 L 58.8 10.7 C 58.8 10.7 58.8 16.13 58.8 16.1 C 58.8 16.8 59 17.3 60 17.3 C 59.98 17.3 61.4 17.3 61.4 17.3 L 61.4 19.8 Z M 64.9 14.8 C 65 16.7 66.3 17.6 67.9 17.6 C 69 17.6 70.1 17.2 70.4 16.1 C 70.4 16.1 73 16.1 73 16.1 C 72.4 18.7 70.2 20 67.8 20 C 65 20 62.2 18.1 62.2 14 C 62.2 10 64.8 8 67.8 8 C 70.6 8 73 9.8 73 13.7 C 73 13.69 73 14.8 73 14.8 C 73 14.8 64.93 14.83 64.9 14.8 Z M 65 12.8 C 65 12.8 70.3 12.8 70.3 12.8 C 70.3 11.3 69.2 10.4 67.8 10.4 C 66.5 10.4 65.2 11.1 65 12.8 Z M 85.2 12.3 C 85.17 12.31 85.2 19.8 85.2 19.8 L 82.4 19.8 C 82.4 19.8 82.38 12.56 82.4 12.6 C 82.4 11.3 81.6 10.5 80.3 10.5 C 78.7 10.5 77.8 11.6 77.8 13.5 C 77.78 13.52 77.8 19.8 77.8 19.8 L 75 19.8 L 75 8.2 L 77.8 8.2 C 77.8 8.2 77.76 9.87 77.8 9.9 C 78.4 8.8 79.4 8 81.3 8 C 83.9 8 85.2 9.5 85.2 12.3 Z M 103.7 19.8 L 101 19.8 C 101 19.8 100.97 18 101 18 C 100.3 19.3 99 20 97.4 20 C 94.7 20 92.3 18 92.3 14 C 92.3 10 94.7 8 97.4 8 C 98.9 8 100.2 8.6 100.9 9.7 C 100.9 9.72 100.9 3.8 100.9 3.8 L 103.7 3.8 L 103.7 19.8 Z M 101 14 C 101 11.6 99.6 10.5 98 10.5 C 96.5 10.5 95.1 11.6 95.1 14 C 95.1 16.3 96.5 17.5 98 17.5 C 99.6 17.5 101 16.3 101 14 Z M 108.4 14.8 C 108.5 16.7 109.8 17.6 111.4 17.6 C 112.5 17.6 113.5 17.2 113.9 16.1 C 113.9 16.1 116.4 16.1 116.4 16.1 C 115.9 18.7 113.6 20 111.3 20 C 108.5 20 105.7 18.1 105.7 14 C 105.7 10 108.3 8 111.3 8 C 114.1 8 116.5 9.8 116.5 13.7 C 116.46 13.69 116.5 14.8 116.5 14.8 C 116.5 14.8 108.4 14.83 108.4 14.8 Z M 108.5 12.8 C 108.5 12.8 113.7 12.8 113.7 12.8 C 113.7 11.3 112.7 10.4 111.2 10.4 C 110 10.4 108.7 11.1 108.5 12.8 Z M 124.4 19.8 C 124.4 19.8 122.55 19.78 122.6 19.8 C 120.4 19.8 119 19.1 119 16 C 119.01 16 119 10.7 119 10.7 L 116.9 10.7 L 116.9 8.2 L 119 8.2 L 119 5.6 L 121.8 4.8 L 121.8 8.2 L 124.1 8.2 L 124.1 10.7 L 121.8 10.7 C 121.8 10.7 121.8 16.13 121.8 16.1 C 121.8 16.8 122 17.3 123 17.3 C 122.97 17.3 124.4 17.3 124.4 17.3 L 124.4 19.8 Z M 127.9 14.8 C 128 16.7 129.3 17.6 130.9 17.6 C 132 17.6 133.1 17.2 133.4 16.1 C 133.4 16.1 136 16.1 136 16.1 C 135.4 18.7 133.2 20 130.8 20 C 128 20 125.2 18.1 125.2 14 C 125.2 10 127.8 8 130.8 8 C 133.6 8 136 9.8 136 13.7 C 135.99 13.69 136 14.8 136 14.8 C 136 14.8 127.93 14.83 127.9 14.8 Z M 128 12.8 C 128 12.8 133.3 12.8 133.3 12.8 C 133.3 11.3 132.2 10.4 130.8 10.4 C 129.5 10.4 128.2 11.1 128 12.8 Z M 144.5 10.8 C 144.5 10.8 143.81 10.77 143.8 10.8 C 141.9 10.8 140.8 11.8 140.8 14.1 C 140.78 14.11 140.8 19.8 140.8 19.8 L 138 19.8 L 138 8.2 L 140.8 8.2 C 140.8 8.2 140.76 9.85 140.8 9.8 C 141.3 8.6 142.4 8.1 143.8 8.1 C 143.79 8.06 144.5 8.1 144.5 8.1 L 144.5 10.8 Z M 162.3 12 C 162.27 11.97 162.3 19.8 162.3 19.8 L 159.5 19.8 C 159.5 19.8 159.47 12.52 159.5 12.5 C 159.5 11.1 158.8 10.5 157.7 10.5 C 156.3 10.5 155.5 11.3 155.5 13.3 C 155.48 13.27 155.5 19.8 155.5 19.8 L 152.7 19.8 C 152.7 19.8 152.69 12.52 152.7 12.5 C 152.7 11.1 152 10.5 150.9 10.5 C 149.6 10.5 148.7 11.3 148.7 13.3 C 148.7 13.25 148.7 19.8 148.7 19.8 L 145.9 19.8 L 145.9 8.2 L 148.7 8.2 C 148.7 8.2 148.66 9.89 148.7 9.9 C 149 9 149.9 8 151.7 8 C 153.2 8 154.3 8.7 154.9 9.9 C 155.3 9.1 156.1 8 158.2 8 C 160.7 8 162.3 9.5 162.3 12 Z M 164.8 6.7 L 167.7 6.7 L 167.7 3.5 L 164.8 3.5 L 164.8 6.7 Z M 164.9 8.2 L 167.7 8.2 L 167.7 19.8 L 164.9 19.8 L 164.9 8.2 Z M 180.6 12.3 C 180.56 12.31 180.6 19.8 180.6 19.8 L 177.8 19.8 C 177.8 19.8 177.76 12.56 177.8 12.6 C 177.8 11.3 177 10.5 175.7 10.5 C 174.1 10.5 173.2 11.6 173.2 13.5 C 173.16 13.52 173.2 19.8 173.2 19.8 L 170.4 19.8 L 170.4 8.2 L 173.1 8.2 C 173.1 8.2 173.14 9.87 173.1 9.9 C 173.8 8.8 174.7 8 176.7 8 C 179.3 8 180.6 9.5 180.6 12.3 Z M 192.4 12 C 192.44 11.99 192.4 19.8 192.4 19.8 L 189.7 19.8 C 189.7 19.8 189.71 18.1 189.7 18.1 C 188.8 19.6 187.4 20 186.2 20 C 184.4 20 182.4 18.9 182.4 16.4 C 182.4 14.6 183.5 13.4 186.1 13 C 186.1 13 188.6 12.6 188.6 12.6 C 189.3 12.5 189.8 12.3 189.8 11.6 C 189.8 10.6 189 10.2 187.9 10.2 C 186.4 10.2 185.7 10.9 185.6 11.9 C 185.6 11.9 182.9 11.9 182.9 11.9 C 183.2 9.2 185.4 8 188 8 C 190.7 8 192.4 9.3 192.4 12 Z M 189.7 14.9 C 189.7 14.9 189.7 14.3 189.7 14.3 C 189.5 14.4 188.9 14.6 188.4 14.6 C 188.4 14.6 187.1 14.8 187.1 14.8 C 185.7 15 185.2 15.6 185.2 16.3 C 185.2 17.2 185.9 17.7 186.9 17.7 C 188.3 17.7 189.7 16.6 189.7 14.9 Z M 205.6 19.8 L 202.9 19.8 C 202.9 19.8 202.88 18 202.9 18 C 202.2 19.3 200.9 20 199.3 20 C 196.6 20 194.2 18 194.2 14 C 194.2 10 196.6 8 199.3 8 C 200.8 8 202.1 8.6 202.8 9.7 C 202.82 9.72 202.8 3.8 202.8 3.8 L 205.6 3.8 L 205.6 19.8 Z M 202.9 14 C 202.9 11.6 201.5 10.5 200 10.5 C 198.4 10.5 197.1 11.6 197.1 14 C 197.1 16.3 198.4 17.5 200 17.5 C 201.5 17.5 202.9 16.3 202.9 14 Z M 217.6 12 C 217.6 11.99 217.6 19.8 217.6 19.8 L 214.9 19.8 C 214.9 19.8 214.87 18.1 214.9 18.1 C 214 19.6 212.6 20 211.4 20 C 209.5 20 207.6 18.9 207.6 16.4 C 207.6 14.6 208.6 13.4 211.3 13 C 211.3 13 213.8 12.6 213.8 12.6 C 214.5 12.5 215 12.3 215 11.6 C 215 10.6 214.1 10.2 213 10.2 C 211.5 10.2 210.9 10.9 210.8 11.9 C 210.8 11.9 208.1 11.9 208.1 11.9 C 208.4 9.2 210.5 8 213.1 8 C 215.9 8 217.6 9.3 217.6 12 Z M 214.9 14.9 C 214.9 14.9 214.9 14.3 214.9 14.3 C 214.6 14.4 214.1 14.6 213.5 14.6 C 213.5 14.6 212.3 14.8 212.3 14.8 C 210.9 15 210.4 15.6 210.4 16.3 C 210.4 17.2 211 17.7 212 17.7 C 213.5 17.7 214.9 16.6 214.9 14.9 Z M 229.4 16.2 C 229.4 18.8 227.1 20 224.5 20 C 222.1 20 219.5 19 219.3 16.1 C 219.3 16.1 222.1 16.1 222.1 16.1 C 222.3 17.2 223.3 17.7 224.6 17.7 C 225.8 17.7 226.6 17.3 226.6 16.5 C 226.6 15.7 226.1 15.6 224.5 15.3 C 222.2 14.9 219.6 14.5 219.6 11.7 C 219.6 9.1 221.8 8 224.2 8 C 226.9 8 228.9 9.3 229.1 11.9 C 229.1 11.9 226.4 11.9 226.4 11.9 C 226.3 10.8 225.5 10.3 224.3 10.3 C 222.9 10.3 222.3 10.9 222.3 11.6 C 222.3 12.5 223.4 12.7 224.8 12.9 C 226.9 13.2 229.4 13.5 229.4 16.2 Z M 241 20 C 237.2 20 235.4 17.1 235.4 14 C 235.4 10.9 237.2 8 241 8 C 243.8 8 246 9.6 246.1 12.4 C 246.1 12.4 243.4 12.4 243.4 12.4 C 243.2 11.3 242.4 10.5 241.1 10.5 C 239 10.5 238.2 12.2 238.2 14 C 238.2 15.9 239.1 17.4 241 17.4 C 242.4 17.4 243.2 16.7 243.4 15.7 C 243.4 15.7 246.2 15.7 246.2 15.7 C 245.8 18.5 243.8 20 241 20 Z M 251 19.8 L 248.2 19.8 L 248.2 3.8 L 251 3.8 L 251 19.8 Z M 263 12 C 262.96 11.99 263 19.8 263 19.8 L 260.2 19.8 C 260.2 19.8 260.23 18.1 260.2 18.1 C 259.3 19.6 257.9 20 256.7 20 C 254.9 20 253 18.9 253 16.4 C 253 14.6 254 13.4 256.7 13 C 256.7 13 259.2 12.6 259.2 12.6 C 259.9 12.5 260.3 12.3 260.3 11.6 C 260.3 10.6 259.5 10.2 258.4 10.2 C 256.9 10.2 256.2 10.9 256.1 11.9 C 256.1 11.9 253.4 11.9 253.4 11.9 C 253.7 9.2 255.9 8 258.5 8 C 261.2 8 263 9.3 263 12 Z M 260.2 14.9 C 260.2 14.9 260.2 14.3 260.2 14.3 C 260 14.4 259.5 14.6 258.9 14.6 C 258.9 14.6 257.6 14.8 257.6 14.8 C 256.2 15 255.8 15.6 255.8 16.3 C 255.8 17.2 256.4 17.7 257.4 17.7 C 258.8 17.7 260.2 16.6 260.2 14.9 Z M 274.7 16.2 C 274.7 18.8 272.4 20 269.8 20 C 267.4 20 264.8 19 264.6 16.1 C 264.6 16.1 267.5 16.1 267.5 16.1 C 267.6 17.2 268.7 17.7 270 17.7 C 271.1 17.7 272 17.3 272 16.5 C 272 15.7 271.4 15.6 269.8 15.3 C 267.6 14.9 265 14.5 265 11.7 C 265 9.1 267.2 8 269.6 8 C 272.3 8 274.3 9.3 274.5 11.9 C 274.5 11.9 271.7 11.9 271.7 11.9 C 271.6 10.8 270.8 10.3 269.6 10.3 C 268.3 10.3 267.7 10.9 267.7 11.6 C 267.7 12.5 268.7 12.7 270.1 12.9 C 272.2 13.2 274.7 13.5 274.7 16.2 Z M 278.6 14.8 C 278.7 16.7 280 17.6 281.6 17.6 C 282.7 17.6 283.7 17.2 284.1 16.1 C 284.1 16.1 286.6 16.1 286.6 16.1 C 286.1 18.7 283.8 20 281.5 20 C 278.7 20 275.9 18.1 275.9 14 C 275.9 10 278.5 8 281.5 8 C 284.3 8 286.7 9.8 286.7 13.7 C 286.67 13.69 286.7 14.8 286.7 14.8 C 286.7 14.8 278.6 14.83 278.6 14.8 Z M 278.7 12.8 C 278.7 12.8 283.9 12.8 283.9 12.8 C 283.9 11.3 282.9 10.4 281.4 10.4 C 280.2 10.4 278.9 11.1 278.7 12.8 Z M 297.9 16.2 C 297.9 18.8 295.6 20 293 20 C 290.6 20 288 19 287.8 16.1 C 287.8 16.1 290.6 16.1 290.6 16.1 C 290.8 17.2 291.9 17.7 293.2 17.7 C 294.3 17.7 295.2 17.3 295.2 16.5 C 295.2 15.7 294.6 15.6 293 15.3 C 290.8 14.9 288.2 14.5 288.2 11.7 C 288.2 9.1 290.4 8 292.8 8 C 295.5 8 297.5 9.3 297.7 11.9 C 297.7 11.9 294.9 11.9 294.9 11.9 C 294.8 10.8 294 10.3 292.8 10.3 C 291.4 10.3 290.9 10.9 290.9 11.6 C 290.9 12.5 291.9 12.7 293.3 12.9 C 295.4 13.2 297.9 13.5 297.9 16.2 Z M 315.3 19.8 L 312.6 19.8 C 312.6 19.8 312.56 18 312.6 18 C 311.9 19.3 310.6 20 309 20 C 306.3 20 303.9 18 303.9 14 C 303.9 10 306.3 8 309 8 C 310.5 8 311.8 8.6 312.5 9.7 C 312.5 9.72 312.5 3.8 312.5 3.8 L 315.3 3.8 L 315.3 19.8 Z M 312.6 14 C 312.6 11.6 311.2 10.5 309.6 10.5 C 308.1 10.5 306.7 11.6 306.7 14 C 306.7 16.3 308.1 17.5 309.6 17.5 C 311.2 17.5 312.6 16.3 312.6 14 Z M 320 14.8 C 320.1 16.7 321.4 17.6 323 17.6 C 324.1 17.6 325.1 17.2 325.5 16.1 C 325.5 16.1 328 16.1 328 16.1 C 327.5 18.7 325.2 20 322.9 20 C 320.1 20 317.3 18.1 317.3 14 C 317.3 10 319.9 8 322.9 8 C 325.7 8 328.1 9.8 328.1 13.7 C 328.06 13.69 328.1 14.8 328.1 14.8 C 328.1 14.8 319.99 14.83 320 14.8 Z M 320.1 12.8 C 320.1 12.8 325.3 12.8 325.3 12.8 C 325.3 11.3 324.3 10.4 322.8 10.4 C 321.5 10.4 320.3 11.1 320.1 12.8 Z " stroke="none" fill="#000"/>  </g></svg>