<?xml version="1.0" standalone="no"?><!DOCTYPE svg PUBLIC "-//W3C//DTD SVG 1.1//EN" "http://www.w3.org/Graphics/SVG/1.1/DTD/svg11.dtd"><svg xmlns="http://www.w3.org/2000/svg" version="1.1" width="76px" height="160.2px" viewBox="0 -12 76 160.2" style="top:-12px"> <desc>5</desc> <defs/> <g id="Polygon11194">  <path d="M 47.5 18.2 L 47.5 31.1 L 19.6 31.1 C 19.6 31.1 17.91 42.39 17.9 42.4 C 20.6 41.6 23.6 41.1 26.7 41.1 C 38 41.1 50.2 46.8 50.2 63.1 C 50.2 78.9 38.1 85.9 25.2 85.9 C 17.9 85.9 10.4 83.7 4.7 79.6 C 4.68 79.56 7.2 63.4 7.2 63.4 C 7.2 63.4 14.04 63.36 14 63.4 C 14 64.1 14 64.8 14 65.5 C 14 76.1 19.8 81.2 25.7 81.2 C 31.4 81.2 37.1 76.5 37.1 67.1 C 37.1 55.6 28.8 51.2 20.1 51.2 C 16.7 51.2 13.1 52 10 53.3 C 9.99 53.28 15.6 18.2 15.6 18.2 L 47.5 18.2 Z " stroke="none" fill="#000"/> </g></svg>