<?xml version="1.0" standalone="no"?><!DOCTYPE svg PUBLIC "-//W3C//DTD SVG 1.1//EN" "http://www.w3.org/Graphics/SVG/1.1/DTD/svg11.dtd"><svg xmlns="http://www.w3.org/2000/svg" version="1.1" width="373px" height="155.4px" viewBox="0 0 373 155.4">  <desc>Wo bieten sich Emerging-Markets-Anlegern Chancen Hart- oder Lokalw hrung Oder gar Unternehmensanleihen</desc>  <defs/>  <g id="Polygon10762">    <path d="M 14.1 79.6 C 14.1 79.6 14.07 89.35 14.1 89.4 C 14.1 93.7 11.5 95.8 7.7 95.8 C 4 95.8 1.4 93.7 1.4 89.4 C 1.37 89.35 1.4 79.6 1.4 79.6 L 4.3 79.6 C 4.3 79.6 4.28 89.21 4.3 89.2 C 4.3 91.7 5.7 93 7.8 93 C 9.8 93 11.2 91.9 11.2 89.5 C 11.19 89.48 11.2 79.6 11.2 79.6 L 14.1 79.6 Z M 27 87.9 C 26.98 87.91 27 95.4 27 95.4 L 24.2 95.4 C 24.2 95.4 24.19 88.16 24.2 88.2 C 24.2 86.9 23.5 86.1 22.2 86.1 C 20.6 86.1 19.6 87.2 19.6 89.1 C 19.59 89.12 19.6 95.4 19.6 95.4 L 16.8 95.4 L 16.8 83.8 L 19.6 83.8 C 19.6 83.8 19.57 85.47 19.6 85.5 C 20.2 84.4 21.2 83.6 23.1 83.6 C 25.7 83.6 27 85.1 27 87.9 Z M 35.5 95.4 C 35.5 95.4 33.7 95.38 33.7 95.4 C 31.5 95.4 30.2 94.7 30.2 91.6 C 30.16 91.6 30.2 86.3 30.2 86.3 L 28 86.3 L 28 83.8 L 30.2 83.8 L 30.2 81.2 L 32.9 80.4 L 32.9 83.8 L 35.3 83.8 L 35.3 86.3 L 32.9 86.3 C 32.9 86.3 32.95 91.73 32.9 91.7 C 32.9 92.4 33.1 92.9 34.1 92.9 C 34.12 92.9 35.5 92.9 35.5 92.9 L 35.5 95.4 Z M 39.1 90.4 C 39.1 92.3 40.5 93.2 42.1 93.2 C 43.2 93.2 44.2 92.8 44.5 91.7 C 44.5 91.7 47.1 91.7 47.1 91.7 C 46.6 94.3 44.3 95.6 41.9 95.6 C 39.1 95.6 36.4 93.7 36.4 89.6 C 36.4 85.6 39 83.6 42 83.6 C 44.8 83.6 47.1 85.4 47.1 89.3 C 47.14 89.29 47.1 90.4 47.1 90.4 C 47.1 90.4 39.08 90.43 39.1 90.4 Z M 39.1 88.4 C 39.1 88.4 44.4 88.4 44.4 88.4 C 44.4 86.9 43.3 86 41.9 86 C 40.6 86 39.4 86.7 39.1 88.4 Z M 55.7 86.4 C 55.7 86.4 54.96 86.37 55 86.4 C 53 86.4 51.9 87.4 51.9 89.7 C 51.93 89.71 51.9 95.4 51.9 95.4 L 49.1 95.4 L 49.1 83.8 L 51.9 83.8 C 51.9 83.8 51.91 85.45 51.9 85.4 C 52.5 84.2 53.6 83.7 54.9 83.7 C 54.94 83.66 55.7 83.7 55.7 83.7 L 55.7 86.4 Z M 67.2 87.9 C 67.24 87.91 67.2 95.4 67.2 95.4 L 64.4 95.4 C 64.4 95.4 64.45 88.16 64.4 88.2 C 64.4 86.9 63.7 86.1 62.4 86.1 C 60.8 86.1 59.8 87.2 59.8 89.1 C 59.85 89.12 59.8 95.4 59.8 95.4 L 57.1 95.4 L 57.1 83.8 L 59.8 83.8 C 59.8 83.8 59.83 85.47 59.8 85.5 C 60.5 84.4 61.4 83.6 63.4 83.6 C 66 83.6 67.2 85.1 67.2 87.9 Z M 71.8 90.4 C 71.9 92.3 73.2 93.2 74.8 93.2 C 75.9 93.2 77 92.8 77.3 91.7 C 77.3 91.7 79.9 91.7 79.9 91.7 C 79.4 94.3 77.1 95.6 74.7 95.6 C 71.9 95.6 69.1 93.7 69.1 89.6 C 69.1 85.6 71.8 83.6 74.7 83.6 C 77.5 83.6 79.9 85.4 79.9 89.3 C 79.9 89.29 79.9 90.4 79.9 90.4 C 79.9 90.4 71.84 90.43 71.8 90.4 Z M 71.9 88.4 C 71.9 88.4 77.2 88.4 77.2 88.4 C 77.2 86.9 76.1 86 74.7 86 C 73.4 86 72.2 86.7 71.9 88.4 Z M 92.1 87.9 C 92.08 87.91 92.1 95.4 92.1 95.4 L 89.3 95.4 C 89.3 95.4 89.29 88.16 89.3 88.2 C 89.3 86.9 88.6 86.1 87.3 86.1 C 85.7 86.1 84.7 87.2 84.7 89.1 C 84.69 89.12 84.7 95.4 84.7 95.4 L 81.9 95.4 L 81.9 79.4 L 84.7 79.4 C 84.7 79.4 84.69 85.43 84.7 85.4 C 85.4 84.3 86.4 83.6 88.2 83.6 C 90.8 83.6 92.1 85.1 92.1 87.9 Z M 111.1 87.6 C 111.07 87.57 111.1 95.4 111.1 95.4 L 108.3 95.4 C 108.3 95.4 108.27 88.12 108.3 88.1 C 108.3 86.7 107.6 86.1 106.5 86.1 C 105.1 86.1 104.3 86.9 104.3 88.9 C 104.28 88.87 104.3 95.4 104.3 95.4 L 101.5 95.4 C 101.5 95.4 101.49 88.12 101.5 88.1 C 101.5 86.7 100.8 86.1 99.7 86.1 C 98.4 86.1 97.5 86.9 97.5 88.9 C 97.5 88.85 97.5 95.4 97.5 95.4 L 94.7 95.4 L 94.7 83.8 L 97.5 83.8 C 97.5 83.8 97.46 85.49 97.5 85.5 C 97.8 84.6 98.7 83.6 100.5 83.6 C 102 83.6 103.1 84.3 103.7 85.5 C 104.1 84.7 104.9 83.6 107 83.6 C 109.5 83.6 111.1 85.1 111.1 87.6 Z M 115.7 90.4 C 115.7 92.3 117.1 93.2 118.6 93.2 C 119.7 93.2 120.8 92.8 121.1 91.7 C 121.1 91.7 123.7 91.7 123.7 91.7 C 123.2 94.3 120.9 95.6 118.5 95.6 C 115.7 95.6 113 93.7 113 89.6 C 113 85.6 115.6 83.6 118.5 83.6 C 121.4 83.6 123.7 85.4 123.7 89.3 C 123.73 89.29 123.7 90.4 123.7 90.4 C 123.7 90.4 115.67 90.43 115.7 90.4 Z M 115.7 88.4 C 115.7 88.4 121 88.4 121 88.4 C 121 86.9 119.9 86 118.5 86 C 117.2 86 116 86.7 115.7 88.4 Z M 135.9 87.9 C 135.91 87.91 135.9 95.4 135.9 95.4 L 133.1 95.4 C 133.1 95.4 133.12 88.16 133.1 88.2 C 133.1 86.9 132.4 86.1 131.1 86.1 C 129.5 86.1 128.5 87.2 128.5 89.1 C 128.52 89.12 128.5 95.4 128.5 95.4 L 125.7 95.4 L 125.7 83.8 L 128.5 83.8 C 128.5 83.8 128.5 85.47 128.5 85.5 C 129.1 84.4 130.1 83.6 132 83.6 C 134.7 83.6 135.9 85.1 135.9 87.9 Z M 147.8 91.8 C 147.8 94.4 145.5 95.6 142.9 95.6 C 140.5 95.6 137.9 94.6 137.7 91.7 C 137.7 91.7 140.5 91.7 140.5 91.7 C 140.7 92.8 141.7 93.3 143 93.3 C 144.2 93.3 145 92.9 145 92.1 C 145 91.3 144.5 91.2 142.9 90.9 C 140.6 90.5 138.1 90.1 138.1 87.3 C 138.1 84.7 140.3 83.6 142.7 83.6 C 145.4 83.6 147.4 84.9 147.5 87.5 C 147.5 87.5 144.8 87.5 144.8 87.5 C 144.7 86.4 143.9 85.9 142.7 85.9 C 141.3 85.9 140.8 86.5 140.8 87.2 C 140.8 88.1 141.8 88.3 143.2 88.5 C 145.3 88.8 147.8 89.1 147.8 91.8 Z M 158.9 87.6 C 158.95 87.59 158.9 95.4 158.9 95.4 L 156.2 95.4 C 156.2 95.4 156.22 93.7 156.2 93.7 C 155.3 95.2 153.9 95.6 152.7 95.6 C 150.9 95.6 149 94.5 149 92 C 149 90.2 150 89 152.6 88.6 C 152.6 88.6 155.1 88.2 155.1 88.2 C 155.8 88.1 156.3 87.9 156.3 87.2 C 156.3 86.2 155.5 85.8 154.4 85.8 C 152.9 85.8 152.2 86.5 152.1 87.5 C 152.1 87.5 149.4 87.5 149.4 87.5 C 149.7 84.8 151.9 83.6 154.5 83.6 C 157.2 83.6 158.9 84.9 158.9 87.6 Z M 156.2 90.5 C 156.2 90.5 156.2 89.9 156.2 89.9 C 156 90 155.4 90.2 154.9 90.2 C 154.9 90.2 153.6 90.4 153.6 90.4 C 152.2 90.6 151.7 91.2 151.7 91.9 C 151.7 92.8 152.4 93.3 153.4 93.3 C 154.8 93.3 156.2 92.2 156.2 90.5 Z M 171.7 87.9 C 171.65 87.91 171.7 95.4 171.7 95.4 L 168.9 95.4 C 168.9 95.4 168.86 88.16 168.9 88.2 C 168.9 86.9 168.1 86.1 166.8 86.1 C 165.2 86.1 164.3 87.2 164.3 89.1 C 164.26 89.12 164.3 95.4 164.3 95.4 L 161.5 95.4 L 161.5 83.8 L 164.2 83.8 C 164.2 83.8 164.24 85.47 164.2 85.5 C 164.9 84.4 165.8 83.6 167.8 83.6 C 170.4 83.6 171.7 85.1 171.7 87.9 Z M 177.1 95.4 L 174.3 95.4 L 174.3 79.4 L 177.1 79.4 L 177.1 95.4 Z M 181.8 90.4 C 181.8 92.3 183.2 93.2 184.8 93.2 C 185.8 93.2 186.9 92.8 187.2 91.7 C 187.2 91.7 189.8 91.7 189.8 91.7 C 189.3 94.3 187 95.6 184.6 95.6 C 181.8 95.6 179.1 93.7 179.1 89.6 C 179.1 85.6 181.7 83.6 184.6 83.6 C 187.5 83.6 189.8 85.4 189.8 89.3 C 189.84 89.29 189.8 90.4 189.8 90.4 C 189.8 90.4 181.77 90.43 181.8 90.4 Z M 181.8 88.4 C 181.8 88.4 187.1 88.4 187.1 88.4 C 187.1 86.9 186 86 184.6 86 C 183.3 86 182.1 86.7 181.8 88.4 Z M 191.7 82.3 L 194.7 82.3 L 194.7 79.1 L 191.7 79.1 L 191.7 82.3 Z M 191.8 83.8 L 194.6 83.8 L 194.6 95.4 L 191.8 95.4 L 191.8 83.8 Z M 207.5 87.9 C 207.5 87.91 207.5 95.4 207.5 95.4 L 204.7 95.4 C 204.7 95.4 204.7 88.16 204.7 88.2 C 204.7 86.9 204 86.1 202.7 86.1 C 201.1 86.1 200.1 87.2 200.1 89.1 C 200.11 89.12 200.1 95.4 200.1 95.4 L 197.3 95.4 L 197.3 79.4 L 200.1 79.4 C 200.1 79.4 200.11 85.43 200.1 85.4 C 200.8 84.3 201.8 83.6 203.6 83.6 C 206.3 83.6 207.5 85.1 207.5 87.9 Z M 212.1 90.4 C 212.2 92.3 213.5 93.2 215.1 93.2 C 216.2 93.2 217.2 92.8 217.6 91.7 C 217.6 91.7 220.1 91.7 220.1 91.7 C 219.6 94.3 217.3 95.6 215 95.6 C 212.2 95.6 209.4 93.7 209.4 89.6 C 209.4 85.6 212 83.6 215 83.6 C 217.8 83.6 220.2 85.4 220.2 89.3 C 220.16 89.29 220.2 90.4 220.2 90.4 C 220.2 90.4 212.1 90.43 212.1 90.4 Z M 212.2 88.4 C 212.2 88.4 217.4 88.4 217.4 88.4 C 217.4 86.9 216.4 86 214.9 86 C 213.7 86 212.4 86.7 212.2 88.4 Z M 232.3 87.9 C 232.34 87.91 232.3 95.4 232.3 95.4 L 229.5 95.4 C 229.5 95.4 229.55 88.16 229.5 88.2 C 229.5 86.9 228.8 86.1 227.5 86.1 C 225.9 86.1 224.9 87.2 224.9 89.1 C 224.95 89.12 224.9 95.4 224.9 95.4 L 222.2 95.4 L 222.2 83.8 L 224.9 83.8 C 224.9 83.8 224.93 85.47 224.9 85.5 C 225.6 84.4 226.5 83.6 228.5 83.6 C 231.1 83.6 232.3 85.1 232.3 87.9 Z M 237.7 89.8 C 237.7 87.1 239.1 86.6 240.3 85.7 C 241.3 85 241.8 84.4 241.8 83.6 C 241.8 82.4 241 81.8 239.7 81.8 C 238.3 81.8 237.4 82.6 237.3 84 C 237.3 84 234.4 84 234.4 84 C 234.7 80.6 237.2 79.4 239.8 79.4 C 242.5 79.4 244.7 80.7 244.7 83.5 C 244.7 85.7 243.4 86.6 242 87.6 C 240.9 88.4 240.4 88.9 240.4 89.8 C 240.4 89.84 240.4 90.5 240.4 90.5 L 237.7 90.5 C 237.7 90.5 237.74 89.75 237.7 89.8 Z M 237.5 92.1 L 240.7 92.1 L 240.7 95.4 L 237.5 95.4 L 237.5 92.1 Z " stroke="none" fill="#000"/>  </g>  <g id="Polygon10761">    <path d="M 11.9 64.4 C 11.9 68.2 9.5 70.4 6.3 70.4 C 3 70.4 0.6 68.2 0.6 64.4 C 0.6 60.6 3 58.4 6.3 58.4 C 9.5 58.4 11.9 60.6 11.9 64.4 Z M 3.5 64.4 C 3.5 66.7 4.8 67.8 6.3 67.8 C 8 67.8 9.1 66.6 9.1 64.4 C 9.1 62.1 7.8 61 6.3 61 C 4.6 61 3.5 62.2 3.5 64.4 Z M 24.6 70.2 L 21.9 70.2 C 21.9 70.2 21.86 68.4 21.9 68.4 C 21.2 69.7 19.9 70.4 18.3 70.4 C 15.6 70.4 13.2 68.4 13.2 64.4 C 13.2 60.4 15.6 58.4 18.3 58.4 C 19.8 58.4 21.1 59 21.8 60.1 C 21.8 60.12 21.8 54.2 21.8 54.2 L 24.6 54.2 L 24.6 70.2 Z M 21.9 64.4 C 21.9 62 20.5 60.9 18.9 60.9 C 17.4 60.9 16 62 16 64.4 C 16 66.7 17.4 67.9 18.9 67.9 C 20.5 67.9 21.9 66.7 21.9 64.4 Z M 29.3 65.2 C 29.4 67.1 30.7 68 32.3 68 C 33.4 68 34.4 67.6 34.8 66.5 C 34.8 66.5 37.3 66.5 37.3 66.5 C 36.8 69.1 34.5 70.4 32.2 70.4 C 29.4 70.4 26.6 68.5 26.6 64.4 C 26.6 60.4 29.2 58.4 32.2 58.4 C 35 58.4 37.4 60.2 37.4 64.1 C 37.36 64.09 37.4 65.2 37.4 65.2 C 37.4 65.2 29.29 65.23 29.3 65.2 Z M 29.4 63.2 C 29.4 63.2 34.6 63.2 34.6 63.2 C 34.6 61.7 33.6 60.8 32.1 60.8 C 30.8 60.8 29.6 61.5 29.4 63.2 Z M 45.9 61.2 C 45.9 61.2 45.17 61.17 45.2 61.2 C 43.2 61.2 42.1 62.2 42.1 64.5 C 42.15 64.51 42.1 70.2 42.1 70.2 L 39.4 70.2 L 39.4 58.6 L 42.1 58.6 C 42.1 58.6 42.13 60.25 42.1 60.2 C 42.7 59 43.8 58.5 45.1 58.5 C 45.15 58.46 45.9 58.5 45.9 58.5 L 45.9 61.2 Z M 62.9 70.2 L 52.5 70.2 L 52.5 54.4 L 55.4 54.4 L 55.4 67.4 L 62.9 67.4 L 62.9 70.2 Z M 75 64.4 C 75 68.2 72.6 70.4 69.3 70.4 C 66.1 70.4 63.7 68.2 63.7 64.4 C 63.7 60.6 66.1 58.4 69.3 58.4 C 72.6 58.4 75 60.6 75 64.4 Z M 66.5 64.4 C 66.5 66.7 67.8 67.8 69.3 67.8 C 71 67.8 72.1 66.6 72.1 64.4 C 72.1 62.1 70.8 61 69.3 61 C 67.6 61 66.5 62.2 66.5 64.4 Z M 81.1 65.7 L 79.8 67.1 L 79.8 70.2 L 77 70.2 L 77 54.2 L 79.8 54.2 L 79.8 63.3 L 83.9 58.6 L 87.5 58.6 L 83 63.6 L 87.7 70.2 L 84.3 70.2 L 81.1 65.7 Z M 98.6 62.4 C 98.55 62.39 98.6 70.2 98.6 70.2 L 95.8 70.2 C 95.8 70.2 95.82 68.5 95.8 68.5 C 94.9 70 93.5 70.4 92.3 70.4 C 90.5 70.4 88.6 69.3 88.6 66.8 C 88.6 65 89.6 63.8 92.3 63.4 C 92.3 63.4 94.8 63 94.8 63 C 95.4 62.9 95.9 62.7 95.9 62 C 95.9 61 95.1 60.6 94 60.6 C 92.5 60.6 91.8 61.3 91.7 62.3 C 91.7 62.3 89 62.3 89 62.3 C 89.3 59.6 91.5 58.4 94.1 58.4 C 96.8 58.4 98.6 59.7 98.6 62.4 Z M 95.8 65.3 C 95.8 65.3 95.8 64.7 95.8 64.7 C 95.6 64.8 95 65 94.5 65 C 94.5 65 93.2 65.2 93.2 65.2 C 91.8 65.4 91.3 66 91.3 66.7 C 91.3 67.6 92 68.1 93 68.1 C 94.4 68.1 95.8 67 95.8 65.3 Z M 103.9 70.2 L 101.1 70.2 L 101.1 54.2 L 103.9 54.2 L 103.9 70.2 Z M 119.3 70.2 L 116.6 70.2 L 114.2 62.8 L 111.9 70.2 L 109.2 70.2 L 105.3 58.6 L 108.3 58.6 L 110.6 66.3 L 112.9 58.6 L 115.6 58.6 L 118 66.3 L 120.3 58.6 L 123.1 58.6 L 119.3 70.2 Z M 125.8 54 L 128.2 54 L 128.2 56.5 L 125.8 56.5 L 125.8 54 Z M 130.1 54 L 132.6 54 L 132.6 56.5 L 130.1 56.5 L 130.1 54 Z M 133.7 62.4 C 133.66 62.39 133.7 70.2 133.7 70.2 L 130.9 70.2 C 130.9 70.2 130.93 68.5 130.9 68.5 C 130 70 128.6 70.4 127.4 70.4 C 125.6 70.4 123.7 69.3 123.7 66.8 C 123.7 65 124.7 63.8 127.4 63.4 C 127.4 63.4 129.9 63 129.9 63 C 130.6 62.9 131 62.7 131 62 C 131 61 130.2 60.6 129.1 60.6 C 127.6 60.6 126.9 61.3 126.8 62.3 C 126.8 62.3 124.1 62.3 124.1 62.3 C 124.4 59.6 126.6 58.4 129.2 58.4 C 131.9 58.4 133.7 59.7 133.7 62.4 Z M 131 65.3 C 131 65.3 131 64.7 131 64.7 C 130.7 64.8 130.2 65 129.6 65 C 129.6 65 128.3 65.2 128.3 65.2 C 126.9 65.4 126.5 66 126.5 66.7 C 126.5 67.6 127.1 68.1 128.1 68.1 C 129.5 68.1 131 67 131 65.3 Z M 146.4 62.7 C 146.37 62.71 146.4 70.2 146.4 70.2 L 143.6 70.2 C 143.6 70.2 143.58 62.96 143.6 63 C 143.6 61.7 142.8 60.9 141.5 60.9 C 139.9 60.9 139 62 139 63.9 C 138.98 63.92 139 70.2 139 70.2 L 136.2 70.2 L 136.2 54.2 L 139 54.2 C 139 54.2 138.98 60.23 139 60.2 C 139.6 59.1 140.6 58.4 142.5 58.4 C 145.1 58.4 146.4 59.9 146.4 62.7 Z M 155.5 61.2 C 155.5 61.2 154.81 61.17 154.8 61.2 C 152.9 61.2 151.8 62.2 151.8 64.5 C 151.79 64.51 151.8 70.2 151.8 70.2 L 149 70.2 L 149 58.6 L 151.8 58.6 C 151.8 58.6 151.77 60.25 151.8 60.2 C 152.4 59 153.4 58.5 154.8 58.5 C 154.79 58.46 155.5 58.5 155.5 58.5 L 155.5 61.2 Z M 167.1 70.2 L 164.3 70.2 C 164.3 70.2 164.32 68.54 164.3 68.5 C 163.7 69.6 162.6 70.3 161 70.3 C 158.6 70.3 156.8 68.8 156.8 65.8 C 156.81 65.79 156.8 58.6 156.8 58.6 L 159.6 58.6 C 159.6 58.6 159.6 65.58 159.6 65.6 C 159.6 67.2 160.4 67.8 161.6 67.8 C 163.1 67.8 164.3 66.9 164.3 64.2 C 164.26 64.2 164.3 58.6 164.3 58.6 L 167.1 58.6 L 167.1 70.2 Z M 180 62.7 C 179.97 62.71 180 70.2 180 70.2 L 177.2 70.2 C 177.2 70.2 177.17 62.96 177.2 63 C 177.2 61.7 176.4 60.9 175.1 60.9 C 173.5 60.9 172.6 62 172.6 63.9 C 172.58 63.92 172.6 70.2 172.6 70.2 L 169.8 70.2 L 169.8 58.6 L 172.6 58.6 C 172.6 58.6 172.55 60.27 172.6 60.3 C 173.2 59.2 174.2 58.4 176.1 58.4 C 178.7 58.4 180 59.9 180 62.7 Z M 193 69.4 C 193 73.1 190.6 74.8 187.5 74.8 C 184.7 74.8 182.4 73.4 182 70.5 C 182 70.5 184.7 70.5 184.7 70.5 C 185 72 186.2 72.4 187.5 72.4 C 189.3 72.4 190.3 71.5 190.3 69.7 C 190.3 69.7 190.3 67.8 190.3 67.8 C 189.8 69 188.7 69.8 186.9 69.8 C 184.3 69.8 181.9 68 181.9 64.1 C 181.9 60.2 184.3 58.4 186.9 58.4 C 188.6 58.4 189.8 59.1 190.3 60.2 C 190.34 60.21 190.3 58.6 190.3 58.6 L 193 58.6 C 193 58.6 193.03 69.4 193 69.4 Z M 190.2 64.1 C 190.2 61.9 189 60.8 187.5 60.8 C 186 60.8 184.6 61.9 184.6 64.1 C 184.6 66.3 186 67.3 187.5 67.3 C 189 67.3 190.2 66.3 190.2 64.1 Z M 198.4 64.6 C 198.4 61.9 199.8 61.4 201 60.5 C 202 59.8 202.5 59.2 202.5 58.4 C 202.5 57.2 201.6 56.6 200.4 56.6 C 199 56.6 198 57.4 198 58.8 C 198 58.8 195.1 58.8 195.1 58.8 C 195.4 55.4 197.9 54.2 200.5 54.2 C 203.2 54.2 205.4 55.5 205.4 58.3 C 205.4 60.5 204.1 61.4 202.7 62.4 C 201.6 63.2 201.1 63.7 201.1 64.6 C 201.09 64.64 201.1 65.3 201.1 65.3 L 198.4 65.3 C 198.4 65.3 198.43 64.55 198.4 64.6 Z M 198.2 66.9 L 201.3 66.9 L 201.3 70.2 L 198.2 70.2 L 198.2 66.9 Z M 212.1 62.3 C 212.1 57.8 215.3 54.1 220 54.1 C 224.8 54.1 227.9 57.8 227.9 62.3 C 227.9 66.8 224.8 70.6 220.1 70.6 C 215.4 70.6 212.1 66.8 212.1 62.3 Z M 215.1 62.3 C 215.1 65.4 217 67.8 220 67.8 C 223.1 67.8 224.9 65.4 224.9 62.3 C 224.9 59.2 223.1 56.9 220.1 56.9 C 217 56.9 215.1 59.2 215.1 62.3 Z M 240.8 70.2 L 238 70.2 C 238 70.2 238.03 68.4 238 68.4 C 237.4 69.7 236.1 70.4 234.5 70.4 C 231.8 70.4 229.4 68.4 229.4 64.4 C 229.4 60.4 231.8 58.4 234.5 58.4 C 236 58.4 237.3 59 238 60.1 C 237.97 60.12 238 54.2 238 54.2 L 240.8 54.2 L 240.8 70.2 Z M 238.1 64.4 C 238.1 62 236.6 60.9 235.1 60.9 C 233.6 60.9 232.2 62 232.2 64.4 C 232.2 66.7 233.6 67.9 235.1 67.9 C 236.6 67.9 238.1 66.7 238.1 64.4 Z M 245.5 65.2 C 245.5 67.1 246.9 68 248.4 68 C 249.5 68 250.6 67.6 250.9 66.5 C 250.9 66.5 253.5 66.5 253.5 66.5 C 253 69.1 250.7 70.4 248.3 70.4 C 245.5 70.4 242.8 68.5 242.8 64.4 C 242.8 60.4 245.4 58.4 248.3 58.4 C 251.2 58.4 253.5 60.2 253.5 64.1 C 253.53 64.09 253.5 65.2 253.5 65.2 C 253.5 65.2 245.47 65.23 245.5 65.2 Z M 245.5 63.2 C 245.5 63.2 250.8 63.2 250.8 63.2 C 250.8 61.7 249.7 60.8 248.3 60.8 C 247 60.8 245.8 61.5 245.5 63.2 Z M 262.1 61.2 C 262.1 61.2 261.34 61.17 261.3 61.2 C 259.4 61.2 258.3 62.2 258.3 64.5 C 258.32 64.51 258.3 70.2 258.3 70.2 L 255.5 70.2 L 255.5 58.6 L 258.3 58.6 C 258.3 58.6 258.3 60.25 258.3 60.2 C 258.9 59 260 58.5 261.3 58.5 C 261.32 58.46 262.1 58.5 262.1 58.5 L 262.1 61.2 Z M 278.5 69.4 C 278.5 73.1 276.1 74.8 273 74.8 C 270.2 74.8 267.8 73.4 267.5 70.5 C 267.5 70.5 270.2 70.5 270.2 70.5 C 270.5 72 271.7 72.4 273 72.4 C 274.8 72.4 275.8 71.5 275.8 69.7 C 275.8 69.7 275.8 67.8 275.8 67.8 C 275.3 69 274.2 69.8 272.4 69.8 C 269.8 69.8 267.3 68 267.3 64.1 C 267.3 60.2 269.8 58.4 272.4 58.4 C 274 58.4 275.2 59.1 275.8 60.2 C 275.81 60.21 275.8 58.6 275.8 58.6 L 278.5 58.6 C 278.5 58.6 278.5 69.4 278.5 69.4 Z M 275.7 64.1 C 275.7 61.9 274.5 60.8 273 60.8 C 271.4 60.8 270.1 61.9 270.1 64.1 C 270.1 66.3 271.4 67.3 273 67.3 C 274.5 67.3 275.7 66.3 275.7 64.1 Z M 290.4 62.4 C 290.38 62.39 290.4 70.2 290.4 70.2 L 287.7 70.2 C 287.7 70.2 287.65 68.5 287.7 68.5 C 286.8 70 285.4 70.4 284.1 70.4 C 282.3 70.4 280.4 69.3 280.4 66.8 C 280.4 65 281.4 63.8 284.1 63.4 C 284.1 63.4 286.6 63 286.6 63 C 287.3 62.9 287.8 62.7 287.8 62 C 287.8 61 286.9 60.6 285.8 60.6 C 284.3 60.6 283.6 61.3 283.5 62.3 C 283.5 62.3 280.9 62.3 280.9 62.3 C 281.1 59.6 283.3 58.4 285.9 58.4 C 288.7 58.4 290.4 59.7 290.4 62.4 Z M 287.7 65.3 C 287.7 65.3 287.7 64.7 287.7 64.7 C 287.4 64.8 286.9 65 286.3 65 C 286.3 65 285.1 65.2 285.1 65.2 C 283.6 65.4 283.2 66 283.2 66.7 C 283.2 67.6 283.8 68.1 284.8 68.1 C 286.2 68.1 287.7 67 287.7 65.3 Z M 299.5 61.2 C 299.5 61.2 298.72 61.17 298.7 61.2 C 296.8 61.2 295.7 62.2 295.7 64.5 C 295.7 64.51 295.7 70.2 295.7 70.2 L 292.9 70.2 L 292.9 58.6 L 295.7 58.6 C 295.7 58.6 295.68 60.25 295.7 60.2 C 296.3 59 297.3 58.5 298.7 58.5 C 298.7 58.46 299.5 58.5 299.5 58.5 L 299.5 61.2 Z " stroke="none" fill="#000"/>  </g>  <g id="Polygon10760">    <path d="M 17.7 45 L 15 45 L 15 34.1 L 10.9 45 L 8.3 45 L 4.3 34.1 L 4.3 45 L 1.6 45 L 1.6 29.2 L 5.3 29.2 L 9.7 40.8 L 14 29.2 L 17.7 29.2 L 17.7 45 Z M 29.9 37.2 C 29.95 37.19 29.9 45 29.9 45 L 27.2 45 C 27.2 45 27.22 43.3 27.2 43.3 C 26.3 44.8 24.9 45.2 23.7 45.2 C 21.9 45.2 19.9 44.1 19.9 41.6 C 19.9 39.8 21 38.6 23.6 38.2 C 23.6 38.2 26.1 37.8 26.1 37.8 C 26.8 37.7 27.3 37.5 27.3 36.8 C 27.3 35.8 26.5 35.4 25.4 35.4 C 23.9 35.4 23.2 36.1 23.1 37.1 C 23.1 37.1 20.4 37.1 20.4 37.1 C 20.7 34.4 22.9 33.2 25.5 33.2 C 28.2 33.2 29.9 34.5 29.9 37.2 Z M 27.2 40.1 C 27.2 40.1 27.2 39.5 27.2 39.5 C 27 39.6 26.4 39.8 25.9 39.8 C 25.9 39.8 24.6 40 24.6 40 C 23.2 40.2 22.7 40.8 22.7 41.5 C 22.7 42.4 23.4 42.9 24.4 42.9 C 25.8 42.9 27.2 41.8 27.2 40.1 Z M 39 36 C 39 36 38.28 35.97 38.3 36 C 36.3 36 35.3 37 35.3 39.3 C 35.26 39.31 35.3 45 35.3 45 L 32.5 45 L 32.5 33.4 L 35.2 33.4 C 35.2 33.4 35.24 35.05 35.2 35 C 35.8 33.8 36.9 33.3 38.3 33.3 C 38.26 33.26 39 33.3 39 33.3 L 39 36 Z M 44.5 40.5 L 43.2 41.9 L 43.2 45 L 40.4 45 L 40.4 29 L 43.2 29 L 43.2 38.1 L 47.3 33.4 L 50.9 33.4 L 46.4 38.4 L 51.1 45 L 47.7 45 L 44.5 40.5 Z M 54.1 40 C 54.1 41.9 55.5 42.8 57 42.8 C 58.1 42.8 59.2 42.4 59.5 41.3 C 59.5 41.3 62.1 41.3 62.1 41.3 C 61.6 43.9 59.3 45.2 56.9 45.2 C 54.1 45.2 51.3 43.3 51.3 39.2 C 51.3 35.2 54 33.2 56.9 33.2 C 59.7 33.2 62.1 35 62.1 38.9 C 62.12 38.89 62.1 40 62.1 40 C 62.1 40 54.05 40.03 54.1 40 Z M 54.1 38 C 54.1 38 59.4 38 59.4 38 C 59.4 36.5 58.3 35.6 56.9 35.6 C 55.6 35.6 54.4 36.3 54.1 38 Z M 70 45 C 70 45 68.21 44.98 68.2 45 C 66 45 64.7 44.3 64.7 41.2 C 64.66 41.2 64.7 35.9 64.7 35.9 L 62.5 35.9 L 62.5 33.4 L 64.7 33.4 L 64.7 30.8 L 67.5 30 L 67.5 33.4 L 69.8 33.4 L 69.8 35.9 L 67.5 35.9 C 67.5 35.9 67.45 41.33 67.5 41.3 C 67.5 42 67.6 42.5 68.6 42.5 C 68.63 42.5 70 42.5 70 42.5 L 70 45 Z M 80.9 41.4 C 80.9 44 78.6 45.2 76 45.2 C 73.6 45.2 71 44.2 70.8 41.3 C 70.8 41.3 73.6 41.3 73.6 41.3 C 73.8 42.4 74.8 42.9 76.1 42.9 C 77.3 42.9 78.1 42.5 78.1 41.7 C 78.1 40.9 77.6 40.8 76 40.5 C 73.7 40.1 71.1 39.7 71.1 36.9 C 71.1 34.3 73.3 33.2 75.7 33.2 C 78.4 33.2 80.4 34.5 80.6 37.1 C 80.6 37.1 77.9 37.1 77.9 37.1 C 77.8 36 76.9 35.5 75.8 35.5 C 74.4 35.5 73.8 36.1 73.8 36.8 C 73.8 37.7 74.9 37.9 76.3 38.1 C 78.4 38.4 80.9 38.7 80.9 41.4 Z M 88.9 37.1 L 82.4 37.1 L 82.4 39.6 L 88.9 39.6 L 88.9 37.1 Z M 100.8 41.5 L 94.1 41.5 L 92.9 45 L 89.8 45 L 95.8 29.2 L 99.1 29.2 L 105.3 45 L 102.1 45 L 100.8 41.5 Z M 99.8 38.7 L 97.4 32.5 L 95.1 38.7 L 99.8 38.7 Z M 117.3 37.5 C 117.3 37.51 117.3 45 117.3 45 L 114.5 45 C 114.5 45 114.51 37.76 114.5 37.8 C 114.5 36.5 113.8 35.7 112.5 35.7 C 110.9 35.7 109.9 36.8 109.9 38.7 C 109.91 38.72 109.9 45 109.9 45 L 107.1 45 L 107.1 33.4 L 109.9 33.4 C 109.9 33.4 109.89 35.07 109.9 35.1 C 110.5 34 111.5 33.2 113.4 33.2 C 116.1 33.2 117.3 34.7 117.3 37.5 Z M 122.7 45 L 119.9 45 L 119.9 29 L 122.7 29 L 122.7 45 Z M 127.4 40 C 127.5 41.9 128.8 42.8 130.4 42.8 C 131.5 42.8 132.6 42.4 132.9 41.3 C 132.9 41.3 135.4 41.3 135.4 41.3 C 134.9 43.9 132.7 45.2 130.3 45.2 C 127.5 45.2 124.7 43.3 124.7 39.2 C 124.7 35.2 127.3 33.2 130.3 33.2 C 133.1 33.2 135.5 35 135.5 38.9 C 135.49 38.89 135.5 40 135.5 40 C 135.5 40 127.43 40.03 127.4 40 Z M 127.5 38 C 127.5 38 132.8 38 132.8 38 C 132.8 36.5 131.7 35.6 130.3 35.6 C 129 35.6 127.7 36.3 127.5 38 Z M 147.9 44.2 C 147.9 47.9 145.5 49.6 142.4 49.6 C 139.6 49.6 137.3 48.2 136.9 45.3 C 136.9 45.3 139.6 45.3 139.6 45.3 C 139.9 46.8 141.1 47.2 142.4 47.2 C 144.2 47.2 145.2 46.3 145.2 44.5 C 145.2 44.5 145.2 42.6 145.2 42.6 C 144.7 43.8 143.6 44.6 141.8 44.6 C 139.2 44.6 136.8 42.8 136.8 38.9 C 136.8 35 139.2 33.2 141.8 33.2 C 143.5 33.2 144.6 33.9 145.2 35 C 145.23 35.01 145.2 33.4 145.2 33.4 L 147.9 33.4 C 147.9 33.4 147.92 44.2 147.9 44.2 Z M 145.1 38.9 C 145.1 36.7 143.9 35.6 142.4 35.6 C 140.9 35.6 139.5 36.7 139.5 38.9 C 139.5 41.1 140.9 42.1 142.4 42.1 C 143.9 42.1 145.1 41.1 145.1 38.9 Z M 152.5 40 C 152.6 41.9 153.9 42.8 155.5 42.8 C 156.6 42.8 157.6 42.4 158 41.3 C 158 41.3 160.5 41.3 160.5 41.3 C 160 43.9 157.8 45.2 155.4 45.2 C 152.6 45.2 149.8 43.3 149.8 39.2 C 149.8 35.2 152.4 33.2 155.4 33.2 C 158.2 33.2 160.6 35 160.6 38.9 C 160.59 38.89 160.6 40 160.6 40 C 160.6 40 152.52 40.03 152.5 40 Z M 152.6 38 C 152.6 38 157.9 38 157.9 38 C 157.9 36.5 156.8 35.6 155.4 35.6 C 154.1 35.6 152.8 36.3 152.6 38 Z M 169.1 36 C 169.1 36 168.4 35.97 168.4 36 C 166.4 36 165.4 37 165.4 39.3 C 165.37 39.31 165.4 45 165.4 45 L 162.6 45 L 162.6 33.4 L 165.4 33.4 C 165.4 33.4 165.35 35.05 165.4 35 C 165.9 33.8 167 33.3 168.4 33.3 C 168.38 33.26 169.1 33.3 169.1 33.3 L 169.1 36 Z M 180.7 37.5 C 180.68 37.51 180.7 45 180.7 45 L 177.9 45 C 177.9 45 177.89 37.76 177.9 37.8 C 177.9 36.5 177.2 35.7 175.9 35.7 C 174.3 35.7 173.3 36.8 173.3 38.7 C 173.29 38.72 173.3 45 173.3 45 L 170.5 45 L 170.5 33.4 L 173.3 33.4 C 173.3 33.4 173.27 35.07 173.3 35.1 C 173.9 34 174.9 33.2 176.8 33.2 C 179.4 33.2 180.7 34.7 180.7 37.5 Z M 199.5 39.2 C 199.5 39.2 202.5 39.2 202.5 39.2 C 202.2 43.3 199.1 45.4 195.5 45.4 C 190.5 45.4 187.8 41.4 187.8 37 C 187.8 32.9 190.3 28.9 195.5 28.9 C 199.2 28.9 202 30.9 202.4 34.5 C 202.4 34.5 199.4 34.5 199.4 34.5 C 199.2 32.7 197.5 31.6 195.5 31.6 C 192.3 31.6 190.8 34.2 190.8 37 C 190.8 39.9 192.4 42.6 195.5 42.6 C 197.4 42.6 199.3 41.6 199.5 39.2 Z M 214.8 37.5 C 214.76 37.51 214.8 45 214.8 45 L 212 45 C 212 45 211.97 37.76 212 37.8 C 212 36.5 211.2 35.7 209.9 35.7 C 208.3 35.7 207.4 36.8 207.4 38.7 C 207.37 38.72 207.4 45 207.4 45 L 204.6 45 L 204.6 29 L 207.4 29 C 207.4 29 207.37 35.03 207.4 35 C 208 33.9 209 33.2 210.9 33.2 C 213.5 33.2 214.8 34.7 214.8 37.5 Z M 226.7 37.2 C 226.65 37.19 226.7 45 226.7 45 L 223.9 45 C 223.9 45 223.92 43.3 223.9 43.3 C 223 44.8 221.6 45.2 220.4 45.2 C 218.6 45.2 216.7 44.1 216.7 41.6 C 216.7 39.8 217.7 38.6 220.4 38.2 C 220.4 38.2 222.8 37.8 222.8 37.8 C 223.5 37.7 224 37.5 224 36.8 C 224 35.8 223.2 35.4 222.1 35.4 C 220.6 35.4 219.9 36.1 219.8 37.1 C 219.8 37.1 217.1 37.1 217.1 37.1 C 217.4 34.4 219.6 33.2 222.2 33.2 C 224.9 33.2 226.7 34.5 226.7 37.2 Z M 223.9 40.1 C 223.9 40.1 223.9 39.5 223.9 39.5 C 223.7 39.6 223.1 39.8 222.6 39.8 C 222.6 39.8 221.3 40 221.3 40 C 219.9 40.2 219.4 40.8 219.4 41.5 C 219.4 42.4 220.1 42.9 221.1 42.9 C 222.5 42.9 223.9 41.8 223.9 40.1 Z M 239.4 37.5 C 239.35 37.51 239.4 45 239.4 45 L 236.6 45 C 236.6 45 236.56 37.76 236.6 37.8 C 236.6 36.5 235.8 35.7 234.5 35.7 C 232.9 35.7 232 36.8 232 38.7 C 231.96 38.72 232 45 232 45 L 229.2 45 L 229.2 33.4 L 231.9 33.4 C 231.9 33.4 231.94 35.07 231.9 35.1 C 232.6 34 233.5 33.2 235.5 33.2 C 238.1 33.2 239.4 34.7 239.4 37.5 Z M 246.9 45.2 C 243.1 45.2 241.2 42.3 241.2 39.2 C 241.2 36.1 243.1 33.2 246.9 33.2 C 249.7 33.2 251.9 34.8 252 37.6 C 252 37.6 249.2 37.6 249.2 37.6 C 249.1 36.5 248.3 35.7 246.9 35.7 C 244.9 35.7 244.1 37.4 244.1 39.2 C 244.1 41.1 244.9 42.6 246.9 42.6 C 248.3 42.6 249.1 41.9 249.3 40.9 C 249.3 40.9 252 40.9 252 40.9 C 251.7 43.7 249.7 45.2 246.9 45.2 Z M 256 40 C 256.1 41.9 257.4 42.8 259 42.8 C 260.1 42.8 261.2 42.4 261.5 41.3 C 261.5 41.3 264.1 41.3 264.1 41.3 C 263.5 43.9 261.3 45.2 258.9 45.2 C 256.1 45.2 253.3 43.3 253.3 39.2 C 253.3 35.2 255.9 33.2 258.9 33.2 C 261.7 33.2 264.1 35 264.1 38.9 C 264.09 38.89 264.1 40 264.1 40 C 264.1 40 256.03 40.03 256 40 Z M 256.1 38 C 256.1 38 261.4 38 261.4 38 C 261.4 36.5 260.3 35.6 258.9 35.6 C 257.6 35.6 256.3 36.3 256.1 38 Z M 276.3 37.5 C 276.27 37.51 276.3 45 276.3 45 L 273.5 45 C 273.5 45 273.48 37.76 273.5 37.8 C 273.5 36.5 272.7 35.7 271.4 35.7 C 269.8 35.7 268.9 36.8 268.9 38.7 C 268.88 38.72 268.9 45 268.9 45 L 266.1 45 L 266.1 33.4 L 268.9 33.4 C 268.9 33.4 268.86 35.07 268.9 35.1 C 269.5 34 270.5 33.2 272.4 33.2 C 275 33.2 276.3 34.7 276.3 37.5 Z M 281.7 39.4 C 281.7 36.7 283 36.2 284.3 35.3 C 285.3 34.6 285.7 34 285.7 33.2 C 285.7 32 284.9 31.4 283.6 31.4 C 282.2 31.4 281.3 32.2 281.2 33.6 C 281.2 33.6 278.4 33.6 278.4 33.6 C 278.6 30.2 281.1 29 283.7 29 C 286.5 29 288.7 30.3 288.7 33.1 C 288.7 35.3 287.3 36.2 285.9 37.2 C 284.8 38 284.3 38.5 284.3 39.4 C 284.34 39.44 284.3 40.1 284.3 40.1 L 281.7 40.1 C 281.7 40.1 281.67 39.35 281.7 39.4 Z M 281.4 41.7 L 284.6 41.7 L 284.6 45 L 281.4 45 L 281.4 41.7 Z M 309.7 45 L 306.8 45 L 306.8 38.4 L 299.7 38.4 L 299.7 45 L 296.7 45 L 296.7 29.2 L 299.7 29.2 L 299.7 35.7 L 306.8 35.7 L 306.8 29.2 L 309.7 29.2 L 309.7 45 Z M 321.9 37.2 C 321.93 37.19 321.9 45 321.9 45 L 319.2 45 C 319.2 45 319.2 43.3 319.2 43.3 C 318.3 44.8 316.9 45.2 315.7 45.2 C 313.8 45.2 311.9 44.1 311.9 41.6 C 311.9 39.8 313 38.6 315.6 38.2 C 315.6 38.2 318.1 37.8 318.1 37.8 C 318.8 37.7 319.3 37.5 319.3 36.8 C 319.3 35.8 318.5 35.4 317.3 35.4 C 315.9 35.4 315.2 36.1 315.1 37.1 C 315.1 37.1 312.4 37.1 312.4 37.1 C 312.7 34.4 314.8 33.2 317.5 33.2 C 320.2 33.2 321.9 34.5 321.9 37.2 Z M 319.2 40.1 C 319.2 40.1 319.2 39.5 319.2 39.5 C 318.9 39.6 318.4 39.8 317.9 39.8 C 317.9 39.8 316.6 40 316.6 40 C 315.2 40.2 314.7 40.8 314.7 41.5 C 314.7 42.4 315.4 42.9 316.3 42.9 C 317.8 42.9 319.2 41.8 319.2 40.1 Z M 331 36 C 331 36 330.26 35.97 330.3 36 C 328.3 36 327.2 37 327.2 39.3 C 327.24 39.31 327.2 45 327.2 45 L 324.4 45 L 324.4 33.4 L 327.2 33.4 C 327.2 33.4 327.22 35.05 327.2 35 C 327.8 33.8 328.9 33.3 330.2 33.3 C 330.24 33.26 331 33.3 331 33.3 L 331 36 Z M 338.7 45 C 338.7 45 336.88 44.98 336.9 45 C 334.7 45 333.3 44.3 333.3 41.2 C 333.33 41.2 333.3 35.9 333.3 35.9 L 331.2 35.9 L 331.2 33.4 L 333.3 33.4 L 333.3 30.8 L 336.1 30 L 336.1 33.4 L 338.4 33.4 L 338.4 35.9 L 336.1 35.9 C 336.1 35.9 336.12 41.33 336.1 41.3 C 336.1 42 336.3 42.5 337.3 42.5 C 337.3 42.5 338.7 42.5 338.7 42.5 L 338.7 45 Z M 346.4 37.1 L 340 37.1 L 340 39.6 L 346.4 39.6 L 346.4 37.1 Z " stroke="none" fill="#000"/>  </g>  <g id="Polygon10759">    <path d="M 16.8 19.8 L 13.9 19.8 L 10.6 8.5 L 7.3 19.8 L 4.4 19.8 L 0.3 4 L 3.4 4 L 6 15 L 9.2 4 L 12.1 4 L 15.3 15.1 L 17.9 4 L 20.9 4 L 16.8 19.8 Z M 32.1 14 C 32.1 17.8 29.7 20 26.5 20 C 23.2 20 20.8 17.8 20.8 14 C 20.8 10.2 23.2 8 26.5 8 C 29.7 8 32.1 10.2 32.1 14 Z M 23.7 14 C 23.7 16.3 24.9 17.4 26.5 17.4 C 28.2 17.4 29.3 16.2 29.3 14 C 29.3 11.7 28 10.6 26.4 10.6 C 24.8 10.6 23.7 11.8 23.7 14 Z M 50.8 14 C 50.8 18.1 48.3 20 45.5 20 C 44.1 20 42.8 19.5 42.1 18.4 C 42.1 18.4 42.1 19.8 42.1 19.8 L 39.4 19.8 L 39.4 3.8 L 42.2 3.8 C 42.2 3.8 42.17 9.89 42.2 9.9 C 42.8 8.7 44.1 8 45.7 8 C 48.4 8 50.8 10 50.8 14 Z M 47.9 14 C 47.9 11.7 46.5 10.5 45 10.5 C 43.5 10.5 42.1 11.7 42.1 14 C 42.1 16.4 43.5 17.6 45 17.6 C 46.5 17.6 47.9 16.4 47.9 14 Z M 52.6 6.7 L 55.6 6.7 L 55.6 3.5 L 52.6 3.5 L 52.6 6.7 Z M 52.7 8.2 L 55.5 8.2 L 55.5 19.8 L 52.7 19.8 L 52.7 8.2 Z M 60.2 14.8 C 60.3 16.7 61.6 17.6 63.2 17.6 C 64.3 17.6 65.3 17.2 65.7 16.1 C 65.7 16.1 68.2 16.1 68.2 16.1 C 67.7 18.7 65.4 20 63.1 20 C 60.3 20 57.5 18.1 57.5 14 C 57.5 10 60.1 8 63.1 8 C 65.9 8 68.3 9.8 68.3 13.7 C 68.27 13.69 68.3 14.8 68.3 14.8 C 68.3 14.8 60.21 14.83 60.2 14.8 Z M 60.3 12.8 C 60.3 12.8 65.5 12.8 65.5 12.8 C 65.5 11.3 64.5 10.4 63 10.4 C 61.8 10.4 60.5 11.1 60.3 12.8 Z M 76.2 19.8 C 76.2 19.8 74.36 19.78 74.4 19.8 C 72.2 19.8 70.8 19.1 70.8 16 C 70.81 16 70.8 10.7 70.8 10.7 L 68.7 10.7 L 68.7 8.2 L 70.8 8.2 L 70.8 5.6 L 73.6 4.8 L 73.6 8.2 L 75.9 8.2 L 75.9 10.7 L 73.6 10.7 C 73.6 10.7 73.6 16.13 73.6 16.1 C 73.6 16.8 73.8 17.3 74.8 17.3 C 74.78 17.3 76.2 17.3 76.2 17.3 L 76.2 19.8 Z M 79.7 14.8 C 79.8 16.7 81.1 17.6 82.7 17.6 C 83.8 17.6 84.9 17.2 85.2 16.1 C 85.2 16.1 87.8 16.1 87.8 16.1 C 87.3 18.7 85 20 82.6 20 C 79.8 20 77 18.1 77 14 C 77 10 79.7 8 82.6 8 C 85.4 8 87.8 9.8 87.8 13.7 C 87.8 13.69 87.8 14.8 87.8 14.8 C 87.8 14.8 79.74 14.83 79.7 14.8 Z M 79.8 12.8 C 79.8 12.8 85.1 12.8 85.1 12.8 C 85.1 11.3 84 10.4 82.6 10.4 C 81.3 10.4 80.1 11.1 79.8 12.8 Z M 100 12.3 C 99.98 12.31 100 19.8 100 19.8 L 97.2 19.8 C 97.2 19.8 97.19 12.56 97.2 12.6 C 97.2 11.3 96.5 10.5 95.2 10.5 C 93.6 10.5 92.6 11.6 92.6 13.5 C 92.59 13.52 92.6 19.8 92.6 19.8 L 89.8 19.8 L 89.8 8.2 L 92.6 8.2 C 92.6 8.2 92.57 9.87 92.6 9.9 C 93.2 8.8 94.2 8 96.1 8 C 98.7 8 100 9.5 100 12.3 Z M 117.1 16.2 C 117.1 18.8 114.8 20 112.2 20 C 109.8 20 107.2 19 107 16.1 C 107 16.1 109.8 16.1 109.8 16.1 C 110 17.2 111 17.7 112.3 17.7 C 113.5 17.7 114.4 17.3 114.4 16.5 C 114.4 15.7 113.8 15.6 112.2 15.3 C 110 14.9 107.4 14.5 107.4 11.7 C 107.4 9.1 109.6 8 112 8 C 114.7 8 116.7 9.3 116.8 11.9 C 116.8 11.9 114.1 11.9 114.1 11.9 C 114 10.8 113.2 10.3 112 10.3 C 110.6 10.3 110.1 10.9 110.1 11.6 C 110.1 12.5 111.1 12.7 112.5 12.9 C 114.6 13.2 117.1 13.5 117.1 16.2 Z M 118.9 6.7 L 121.9 6.7 L 121.9 3.5 L 118.9 3.5 L 118.9 6.7 Z M 119 8.2 L 121.8 8.2 L 121.8 19.8 L 119 19.8 L 119 8.2 Z M 129.4 20 C 125.6 20 123.8 17.1 123.8 14 C 123.8 10.9 125.6 8 129.4 8 C 132.2 8 134.4 9.6 134.5 12.4 C 134.5 12.4 131.8 12.4 131.8 12.4 C 131.6 11.3 130.8 10.5 129.4 10.5 C 127.4 10.5 126.6 12.2 126.6 14 C 126.6 15.9 127.4 17.4 129.4 17.4 C 130.8 17.4 131.6 16.7 131.8 15.7 C 131.8 15.7 134.5 15.7 134.5 15.7 C 134.2 18.5 132.2 20 129.4 20 Z M 146.7 12.3 C 146.75 12.31 146.7 19.8 146.7 19.8 L 144 19.8 C 144 19.8 143.95 12.56 144 12.6 C 144 11.3 143.2 10.5 141.9 10.5 C 140.3 10.5 139.4 11.6 139.4 13.5 C 139.35 13.52 139.4 19.8 139.4 19.8 L 136.6 19.8 L 136.6 3.8 L 139.4 3.8 C 139.4 3.8 139.35 9.83 139.4 9.8 C 140 8.7 141 8 142.9 8 C 145.5 8 146.7 9.5 146.7 12.3 Z M 155.3 19.8 L 155.3 4 L 165.8 4 L 165.8 6.8 L 158.2 6.8 L 158.2 10.4 L 165.5 10.4 L 165.5 13.2 L 158.2 13.2 L 158.2 17 L 166.3 17 L 166.3 19.8 L 155.3 19.8 Z M 184.6 12 C 184.61 11.97 184.6 19.8 184.6 19.8 L 181.8 19.8 C 181.8 19.8 181.82 12.52 181.8 12.5 C 181.8 11.1 181.2 10.5 180 10.5 C 178.7 10.5 177.8 11.3 177.8 13.3 C 177.83 13.27 177.8 19.8 177.8 19.8 L 175 19.8 C 175 19.8 175.03 12.52 175 12.5 C 175 11.1 174.3 10.5 173.2 10.5 C 171.9 10.5 171 11.3 171 13.3 C 171.04 13.25 171 19.8 171 19.8 L 168.2 19.8 L 168.2 8.2 L 171 8.2 C 171 8.2 171 9.89 171 9.9 C 171.4 9 172.2 8 174 8 C 175.5 8 176.6 8.7 177.2 9.9 C 177.6 9.1 178.5 8 180.6 8 C 183 8 184.6 9.5 184.6 12 Z M 189.2 14.8 C 189.3 16.7 190.6 17.6 192.2 17.6 C 193.3 17.6 194.3 17.2 194.7 16.1 C 194.7 16.1 197.2 16.1 197.2 16.1 C 196.7 18.7 194.4 20 192.1 20 C 189.3 20 186.5 18.1 186.5 14 C 186.5 10 189.1 8 192.1 8 C 194.9 8 197.3 9.8 197.3 13.7 C 197.27 13.69 197.3 14.8 197.3 14.8 C 197.3 14.8 189.21 14.83 189.2 14.8 Z M 189.3 12.8 C 189.3 12.8 194.5 12.8 194.5 12.8 C 194.5 11.3 193.5 10.4 192 10.4 C 190.8 10.4 189.5 11.1 189.3 12.8 Z M 205.8 10.8 C 205.8 10.8 205.08 10.77 205.1 10.8 C 203.1 10.8 202.1 11.8 202.1 14.1 C 202.06 14.11 202.1 19.8 202.1 19.8 L 199.3 19.8 L 199.3 8.2 L 202 8.2 C 202 8.2 202.04 9.85 202 9.8 C 202.6 8.6 203.7 8.1 205.1 8.1 C 205.06 8.06 205.8 8.1 205.8 8.1 L 205.8 10.8 Z M 217.4 19 C 217.4 22.7 215 24.4 211.9 24.4 C 209.1 24.4 206.7 23 206.4 20.1 C 206.4 20.1 209.1 20.1 209.1 20.1 C 209.4 21.6 210.6 22 211.9 22 C 213.7 22 214.7 21.1 214.7 19.3 C 214.7 19.3 214.7 17.4 214.7 17.4 C 214.2 18.6 213.1 19.4 211.3 19.4 C 208.7 19.4 206.2 17.6 206.2 13.7 C 206.2 9.8 208.7 8 211.3 8 C 213 8 214.1 8.7 214.7 9.8 C 214.72 9.81 214.7 8.2 214.7 8.2 L 217.4 8.2 C 217.4 8.2 217.41 19 217.4 19 Z M 214.6 13.7 C 214.6 11.5 213.4 10.4 211.9 10.4 C 210.4 10.4 209 11.5 209 13.7 C 209 15.9 210.4 16.9 211.9 16.9 C 213.4 16.9 214.6 15.9 214.6 13.7 Z M 219.9 6.7 L 222.9 6.7 L 222.9 3.5 L 219.9 3.5 L 219.9 6.7 Z M 220 8.2 L 222.8 8.2 L 222.8 19.8 L 220 19.8 L 220 8.2 Z M 235.7 12.3 C 235.7 12.31 235.7 19.8 235.7 19.8 L 232.9 19.8 C 232.9 19.8 232.91 12.56 232.9 12.6 C 232.9 11.3 232.2 10.5 230.9 10.5 C 229.3 10.5 228.3 11.6 228.3 13.5 C 228.31 13.52 228.3 19.8 228.3 19.8 L 225.5 19.8 L 225.5 8.2 L 228.3 8.2 C 228.3 8.2 228.29 9.87 228.3 9.9 C 228.9 8.8 229.9 8 231.8 8 C 234.5 8 235.7 9.5 235.7 12.3 Z M 248.8 19 C 248.8 22.7 246.4 24.4 243.2 24.4 C 240.4 24.4 238.1 23 237.8 20.1 C 237.8 20.1 240.5 20.1 240.5 20.1 C 240.8 21.6 241.9 22 243.2 22 C 245 22 246.1 21.1 246.1 19.3 C 246.1 19.3 246.1 17.4 246.1 17.4 C 245.6 18.6 244.4 19.4 242.7 19.4 C 240 19.4 237.6 17.6 237.6 13.7 C 237.6 9.8 240 8 242.7 8 C 244.3 8 245.5 8.7 246.1 9.8 C 246.08 9.81 246.1 8.2 246.1 8.2 L 248.8 8.2 C 248.8 8.2 248.76 19 248.8 19 Z M 246 13.7 C 246 11.5 244.8 10.4 243.2 10.4 C 241.7 10.4 240.3 11.5 240.3 13.7 C 240.3 15.9 241.7 16.9 243.2 16.9 C 244.8 16.9 246 15.9 246 13.7 Z M 257.5 11.9 L 251.1 11.9 L 251.1 14.4 L 257.5 14.4 L 257.5 11.9 Z " stroke="none" fill="#000"/>  </g></svg>