<?xml version="1.0" standalone="no"?><!DOCTYPE svg PUBLIC "-//W3C//DTD SVG 1.1//EN" "http://www.w3.org/Graphics/SVG/1.1/DTD/svg11.dtd"><svg xmlns="http://www.w3.org/2000/svg" version="1.1" width="1008px" height="584px" viewBox="0 -17 1008 584" style="top:-17px"><desc>Unfix Your Thinking</desc><defs/><g id="Polygon12361"><path d="m23.3 408.6l11.4-4.4v-75.7H23.1L6.8 348.3H1.2l1.5-26.9h85.7l1.5 26.9h-5.6l-16.2-19.8H56.4V406l11.4 2.1v6.3H23.3v-5.8zm69.7 0l9.5-3.6v-70.6l-9.3-4.3V326l27.9-6.1v40.7s11.95-10.92 12-10.9c2.4-.8 5.2-1.3 8-1.3c9.9 0 20.1 6 20.1 21.9v36.2l9.5 1.6v6.3h-36V408l7.9-3v-30.5c0-8.5-3.8-12-8.7-12c-4.1 0-8.8 2.4-12.8 6.5c.05.02 0 37.5 0 37.5l8 1.3v6.6H93v-5.8zm88-80.4c0-7.3 5.1-12.1 12.4-12.1c7.4 0 12.4 4.8 12.4 12.1c0 7.3-5 12.2-12.4 12.2c-7.3 0-12.4-4.9-12.4-12.2zm-5.3 80.4l9.6-3.6v-42.1l-9.3-4.3v-4.1l27.9-6.1v58.1l9.5 1.6v6.3h-37.7v-5.8zm42.7 0l9.5-3.6v-42.5l-9.3-4.4V354l25.7-5.6v14.2l14.1-12.9c2.5-.8 5.2-1.3 8.1-1.3c9.9 0 20.1 6 20.1 21.9c-.04-.04 0 36.2 0 36.2l9.5 1.6v6.3H260V408l8-3s-.04-30.52 0-30.5c0-8.5-3.9-12-8.7-12c-4.1 0-8.8 2.4-12.8 6.5v37.5l7.9 1.3v6.6h-36v-5.8zm80.8 0l9.6-3.6v-70.6l-9.3-4.3V326l27.9-6.1v86.6l9.5 1.6v6.3h-37.7v-5.8zm53.1 5.8l-24.8-33.6l24.3-22.8l-10.7-2.5v-5.8H373v6.6l-9.4 1.6l-17.4 16.5l26.8 34.2v5.8h-20.7zm30.4-86.2c0-7.3 5-12.1 12.4-12.1c7.3 0 12.4 4.8 12.4 12.1c0 7.3-5.1 12.2-12.4 12.2c-7.4 0-12.4-4.9-12.4-12.2zm-5.4 80.4l9.6-3.6v-42.1l-9.3-4.3v-4.1l27.9-6.1v58.1l9.5 1.6v6.3h-37.7v-5.8zm42.7 0l9.5-3.6v-42.5l-9.3-4.4V354l25.7-5.6v14.2l14.1-12.9c2.5-.8 5.2-1.3 8.1-1.3c9.9 0 20.1 6 20.1 21.9c-.02-.04 0 36.2 0 36.2l9.5 1.6v6.3h-36.1V408l8-3s-.02-30.52 0-30.5c0-8.5-3.9-12-8.7-12c-4.1 0-8.8 2.4-12.8 6.5c.03.02 0 37.5 0 37.5l8 1.3v6.6H420v-5.8zm136.9-50.4c4.1 4.7 6.3 10.6 6.3 15.8c0 13-13.6 21.1-28.1 21.1c-4.3 0-8.4-.8-12-1.9c-2.9 1.1-4.3 3.5-4.3 6c0 3.1 2.4 6 6.8 6h26.9c13.1 0 19.9 8.1 19.9 17.5c0 16.3-20.1 23.7-39.7 23.7c-18.7 0-30.6-6.8-30.6-15.4c0-1.5.3-3 1-4.4l14.3-9c-7.8-2.2-11.5-8-11.5-13.7c0-5.9 4.1-11.7 12.2-13.2c-6.7-3.9-11.2-10.4-11.2-18.9c0-13.6 11-23.4 26.7-23.4c3.4 0 6.5.5 9.4 1.3c-.01-.02 29.4 0 29.4 0v9.7s-15.52-1.17-15.5-1.2zM545 372.7c0-8.9-2.9-17.6-10.4-17.6c-7.4 0-9.5 8.1-9.5 15.4c0 8.9 3.1 17.4 10.7 17.4c7.3 0 9.2-7.8 9.2-15.2zm-26.6 56c0 4.9 4.3 10 16.5 10c11.2 0 20.7-4.2 20.7-11.3c0-4.3-3.6-7.4-10.6-7.4h-22.3c-2.5 2.3-4.3 5.6-4.3 8.7zm70.5-36c6.4 0 11.1 4.7 11.1 11.2c0 6.4-4.7 11.1-11.1 11.1c-6.2 0-10.9-4.7-10.9-11.1c0-6.5 4.7-11.2 10.9-11.2z" stroke="none" fill="#000"/></g><g id="Polygon12360"><path d="m29.3 259.8l11.4-4.4v-23.6l-29.9-48.7l-10.2-4.2v-6.3h45.7v6.8l-12.7 2l20.7 40.7l19.7-39l-12.6-4.2v-6.3h34.2v6.8l-10.2 2l-23 46.3v29.5l11.4 2.1v6.3H29.3v-5.8zM152.6 233c0 19.1-12.4 34.1-33.6 34.1c-21.3 0-32.7-15.3-32.7-33.6c0-19 12.3-33.9 33.6-33.9c21.2 0 32.7 14.9 32.7 33.4zm-21 2.2c0-17.5-4.4-28.9-12.9-28.9c-7.6 0-11.3 9-11.3 25.1c0 17.5 4.3 29 12.9 29c7.5 0 11.3-9.1 11.3-25.2zm91.7 17.3l8.8 1.6v5.7l-25.1 7.3V253s-14.18 12.85-14.2 12.9c-1.5.7-3.5 1.2-5.8 1.2c-8.3 0-19.8-5.8-19.8-22.6c-.05.03 0-34.4 0-34.4l-9.6-3.1v-6.1h28.2s-.05 39.41 0 39.4c0 8.1 4 11.7 8.8 11.7c3.6 0 7.4-2.1 10.1-5.7c.02-.04 0-36.2 0-36.2l-9.4-3.1v-6.1h28v51.6zm13.2 7.3l9.5-3.6v-42.5l-9.3-4.4v-4.1l25.7-5.6v16.3s14.86-15.64 14.9-15.6c4.4 0 10.4 1 14 2.9l-4.9 18.5c-3.2-2.1-6.8-3.2-10.4-3.2c-4.2 0-8.2 1.4-11.4 3.7v35.5l9.6 1.6v6.3h-37.7v-5.8z" stroke="none" fill="#000"/></g><g id="Polygon12359"><path d="m12.6 81c.05-.03 0-48.8 0-48.8L1.2 30.1v-6.3h44.6v5.8L34.3 34s.05 51.06 0 51.1c0 17.1 11.1 24.8 22.4 24.8c11.3 0 23.4-7.8 23.4-22.1V32.2l-11.4-2.1v-6.3h33.1v5.8L90.4 34v50.7c0 22.7-18.5 34.5-37.6 34.5c-19.9 0-40.2-12.6-40.2-38.2zm92.3 30l9.6-3.6V64.9l-9.3-4.4v-4.1l25.6-5.6V65s14.16-12.92 14.2-12.9c2.4-.8 5.2-1.3 8-1.3c9.9 0 20.1 6 20.1 21.9v36.2l9.6 1.6v6.3h-36.1v-6.4l7.9-3V76.9c0-8.5-3.8-12-8.7-12c-4.1 0-8.8 2.4-12.7 6.5c-.05.02 0 37.5 0 37.5l7.9 1.3v6.6h-36.1V111zm127.8 5.8V111l8.4-3.6v-47h-24v48.5l9.6 1.6v6.3H189V111l9.5-3.6V59.8h-12.7v-6l12.7-3.8s.02-5.73 0-5.7c0-17.8 14-25.7 29.5-25.7c8 0 16.2 2.1 23.2 6l-5.7 16.8s-7.42.01-7.4 0c-.3-10.9-5.7-15.9-10.9-15.9c-5.1 0-10.1 4.9-10.1 13.7c.02-.02 0 12.9 0 12.9h42.6v56.8l9.5 1.6v6.3h-36.5zm118.2-5.6v5.6H313v-6.1l8-1.3l-14-17.1l-12.9 15.7l9.7 3.2v5.6h-31.1v-6.1l9.4-1.6l19.8-23.2l-20-24.6l-9.6-3.6v-5.6H310v6.2l-7.9 1.2l13.7 16.9l12.3-15l-9.4-3.4v-5.9h30.9v6.1l-9.5 1.6L321 82.7l20.4 24.9l9.5 3.6z" stroke="none" fill="#000"/></g></svg>