<?xml version="1.0" standalone="no"?><!DOCTYPE svg PUBLIC "-//W3C//DTD SVG 1.1//EN" "http://www.w3.org/Graphics/SVG/1.1/DTD/svg11.dtd"><svg xmlns="http://www.w3.org/2000/svg" version="1.1" width="406.4px" height="113.2px" viewBox="0 0 406.4 113.2">  <desc>C sar Gil Cano Head of Funds and Absolute Return, Bankia Asset Management</desc>  <defs/>  <g id="Polygon10099">    <path d="M 14.8 75 C 14.8 77.6 12.8 80.3 9 80.2 C 8.98 80.23 2.2 80.2 2.2 80.2 L 2.2 62.2 C 2.2 62.2 9.29 62.21 9.3 62.2 C 12.5 62.2 14 64.2 14 66.3 C 14 67.9 13.1 69.7 11.4 70.5 C 13.7 71.3 14.8 73.2 14.8 75 Z M 8.5 69.9 C 11 69.9 12.2 68.3 12.2 66.7 C 12.2 65.2 11.2 63.8 9 63.8 C 8.95 63.82 4 63.8 4 63.8 L 4 69.9 C 4 69.9 8.47 69.89 8.5 69.9 Z M 12.9 75 C 12.9 73.2 11.6 71.5 9.2 71.5 C 9.17 71.5 4 71.5 4 71.5 L 4 78.6 C 4 78.6 8.98 78.55 9 78.6 C 11.7 78.6 12.9 76.8 12.9 75 Z M 25.8 77.9 C 24.8 79.8 22.9 80.5 21.3 80.5 C 19.1 80.5 17.1 79.2 17.1 76.6 C 17.1 74.3 18.8 73.2 21 72.9 C 21 72.9 24 72.5 24 72.5 C 25 72.3 25.8 72 25.8 70.9 C 25.8 69.4 24.5 68.5 22.7 68.5 C 20.8 68.5 19.6 69.5 19.3 70.9 C 19.3 70.9 17.6 70.9 17.6 70.9 C 18 68.4 20 67.1 22.8 67.1 C 25.8 67.1 27.6 68.4 27.6 71.3 C 27.55 71.3 27.6 80.2 27.6 80.2 L 25.8 80.2 C 25.8 80.2 25.85 77.86 25.8 77.9 Z M 23.7 73.9 C 23.7 73.9 21.7 74.2 21.7 74.2 C 20.1 74.4 18.9 75 18.9 76.6 C 18.9 78.2 20.1 78.9 21.6 78.9 C 23.6 78.9 25.8 77.4 25.8 74.6 C 25.8 74.6 25.8 73.4 25.8 73.4 C 25.3 73.7 24.6 73.8 23.7 73.9 Z M 41.6 71.4 C 41.62 71.38 41.6 80.2 41.6 80.2 L 39.9 80.2 C 39.9 80.2 39.86 71.59 39.9 71.6 C 39.9 69.8 38.9 68.7 37 68.7 C 34.8 68.7 32.9 70.3 32.9 73.4 C 32.9 73.44 32.9 80.2 32.9 80.2 L 31.2 80.2 L 31.2 67.3 L 32.9 67.3 C 32.9 67.3 32.9 69.72 32.9 69.7 C 33.7 68.2 35.1 67.1 37.4 67.1 C 39.9 67.1 41.6 68.5 41.6 71.4 Z M 49.4 73.9 L 47.1 76.4 L 47.1 80.2 L 45.3 80.2 L 45.3 61.9 L 47.1 61.9 L 47.1 74.2 L 53.4 67.3 L 55.7 67.3 L 50.6 72.7 L 56.1 80.2 L 53.9 80.2 L 49.4 73.9 Z M 60.5 61.9 L 58.5 61.9 L 58.5 64.1 L 60.5 64.1 L 60.5 61.9 Z M 60.3 80.2 L 58.6 80.2 L 58.6 67.3 L 60.3 67.3 L 60.3 80.2 Z M 72.1 77.9 C 71.1 79.8 69.1 80.5 67.5 80.5 C 65.3 80.5 63.3 79.2 63.3 76.6 C 63.3 74.3 65 73.2 67.2 72.9 C 67.2 72.9 70.3 72.5 70.3 72.5 C 71.3 72.3 72.1 72 72.1 70.9 C 72.1 69.4 70.8 68.5 69 68.5 C 67 68.5 65.9 69.5 65.6 70.9 C 65.6 70.9 63.8 70.9 63.8 70.9 C 64.2 68.4 66.3 67.1 69.1 67.1 C 72 67.1 73.8 68.4 73.8 71.3 C 73.8 71.3 73.8 80.2 73.8 80.2 L 72.1 80.2 C 72.1 80.2 72.09 77.86 72.1 77.9 Z M 70 73.9 C 70 73.9 68 74.2 68 74.2 C 66.4 74.4 65.1 75 65.1 76.6 C 65.1 78.2 66.4 78.9 67.8 78.9 C 69.8 78.9 72 77.4 72 74.6 C 72 74.6 72 73.4 72 73.4 C 71.6 73.7 70.8 73.8 70 73.9 Z M 94.4 75.1 L 85.8 75.1 L 83.8 80.2 L 81.8 80.2 L 89.1 62.2 L 91 62.2 L 98.5 80.2 L 96.4 80.2 L 94.4 75.1 Z M 90 64.3 L 86.4 73.5 L 93.7 73.5 L 90 64.3 Z M 110.8 76.6 C 110.8 79.2 108.4 80.5 105.8 80.5 C 103.1 80.5 100.5 79.1 100.3 76.2 C 100.3 76.2 102.1 76.2 102.1 76.2 C 102.4 78.1 104.1 78.9 105.9 78.9 C 107.5 78.9 109 78.2 109 76.8 C 109 75.3 107.5 75 106 74.7 C 103.5 74.3 100.6 73.9 100.6 70.9 C 100.6 68.3 102.8 67.1 105.4 67.1 C 108.2 67.1 110.3 68.4 110.5 70.9 C 110.5 70.9 108.6 70.9 108.6 70.9 C 108.5 69.4 107 68.6 105.4 68.6 C 103.6 68.6 102.4 69.4 102.4 70.8 C 102.4 72.4 104 72.7 105.9 73 C 108.2 73.4 110.8 73.8 110.8 76.6 Z M 123.3 76.6 C 123.3 79.2 120.9 80.5 118.3 80.5 C 115.5 80.5 113 79.1 112.7 76.2 C 112.7 76.2 114.6 76.2 114.6 76.2 C 114.9 78.1 116.6 78.9 118.3 78.9 C 120 78.9 121.4 78.2 121.4 76.8 C 121.4 75.3 120 75 118.4 74.7 C 116 74.3 113 73.9 113 70.9 C 113 68.3 115.2 67.1 117.9 67.1 C 120.6 67.1 122.8 68.4 122.9 70.9 C 122.9 70.9 121.1 70.9 121.1 70.9 C 121 69.4 119.5 68.6 117.8 68.6 C 116.1 68.6 114.9 69.4 114.9 70.8 C 114.9 72.4 116.4 72.7 118.4 73 C 120.7 73.4 123.3 73.8 123.3 76.6 Z M 127 74.2 C 127.1 77.4 129 78.9 131.3 78.9 C 133 78.9 134.7 78 135.1 76.2 C 135.1 76.2 136.8 76.2 136.8 76.2 C 136.2 79.2 133.7 80.5 131.2 80.5 C 128.2 80.5 125.3 78.4 125.3 73.8 C 125.3 69.2 128.2 67.1 131.3 67.1 C 134.4 67.1 136.8 69 136.8 73.3 C 136.85 73.32 136.8 74.2 136.8 74.2 C 136.8 74.2 127.03 74.18 127 74.2 Z M 127.1 72.7 C 127.1 72.7 135.1 72.7 135.1 72.7 C 135.1 70.1 133.4 68.6 131.2 68.6 C 129.2 68.6 127.3 69.9 127.1 72.7 Z M 145.7 80.2 C 145.7 80.2 143.83 80.21 143.8 80.2 C 142.1 80.2 140.6 79.7 140.6 76.8 C 140.59 76.82 140.6 68.9 140.6 68.9 L 138 68.9 L 138 67.3 L 140.6 67.3 L 140.6 63.7 L 142.3 63.2 L 142.3 67.3 L 145.5 67.3 L 145.5 68.9 L 142.3 68.9 C 142.3 68.9 142.34 76.8 142.3 76.8 C 142.3 78 142.7 78.6 144.1 78.6 C 144.12 78.62 145.7 78.6 145.7 78.6 L 145.7 80.2 Z M 171.8 80.2 L 170 80.2 L 170 64.6 L 163.9 80.2 L 162.5 80.2 L 156.5 64.6 L 156.5 80.2 L 154.7 80.2 L 154.7 62.2 L 157.5 62.2 L 163.2 77.4 L 169 62.2 L 171.8 62.2 L 171.8 80.2 Z M 183.8 77.9 C 182.8 79.8 180.8 80.5 179.2 80.5 C 177 80.5 175 79.2 175 76.6 C 175 74.3 176.7 73.2 178.9 72.9 C 178.9 72.9 182 72.5 182 72.5 C 182.9 72.3 183.8 72 183.8 70.9 C 183.8 69.4 182.4 68.5 180.6 68.5 C 178.7 68.5 177.5 69.5 177.3 70.9 C 177.3 70.9 175.5 70.9 175.5 70.9 C 175.9 68.4 177.9 67.1 180.8 67.1 C 183.7 67.1 185.5 68.4 185.5 71.3 C 185.47 71.3 185.5 80.2 185.5 80.2 L 183.8 80.2 C 183.8 80.2 183.77 77.86 183.8 77.9 Z M 181.6 73.9 C 181.6 73.9 179.7 74.2 179.7 74.2 C 178 74.4 176.8 75 176.8 76.6 C 176.8 78.2 178.1 78.9 179.5 78.9 C 181.5 78.9 183.7 77.4 183.7 74.6 C 183.7 74.6 183.7 73.4 183.7 73.4 C 183.2 73.7 182.5 73.8 181.6 73.9 Z M 199.5 71.4 C 199.53 71.38 199.5 80.2 199.5 80.2 L 197.8 80.2 C 197.8 80.2 197.78 71.59 197.8 71.6 C 197.8 69.8 196.8 68.7 194.9 68.7 C 192.7 68.7 190.8 70.3 190.8 73.4 C 190.82 73.44 190.8 80.2 190.8 80.2 L 189.1 80.2 L 189.1 67.3 L 190.8 67.3 C 190.8 67.3 190.82 69.72 190.8 69.7 C 191.6 68.2 193 67.1 195.3 67.1 C 197.9 67.1 199.5 68.5 199.5 71.4 Z M 211.2 77.9 C 210.2 79.8 208.2 80.5 206.6 80.5 C 204.4 80.5 202.4 79.2 202.4 76.6 C 202.4 74.3 204.1 73.2 206.3 72.9 C 206.3 72.9 209.4 72.5 209.4 72.5 C 210.3 72.3 211.2 72 211.2 70.9 C 211.2 69.4 209.9 68.5 208.1 68.5 C 206.1 68.5 204.9 69.5 204.7 70.9 C 204.7 70.9 202.9 70.9 202.9 70.9 C 203.3 68.4 205.3 67.1 208.2 67.1 C 211.1 67.1 212.9 68.4 212.9 71.3 C 212.88 71.3 212.9 80.2 212.9 80.2 L 211.2 80.2 C 211.2 80.2 211.17 77.86 211.2 77.9 Z M 209 73.9 C 209 73.9 207.1 74.2 207.1 74.2 C 205.4 74.4 204.2 75 204.2 76.6 C 204.2 78.2 205.5 78.9 206.9 78.9 C 208.9 78.9 211.1 77.4 211.1 74.6 C 211.1 74.6 211.1 73.4 211.1 73.4 C 210.6 73.7 209.9 73.8 209 73.9 Z M 227.6 79.6 C 227.6 83.5 225 85.4 221.7 85.4 C 218.9 85.4 216.3 84 215.9 81 C 215.9 81 217.7 81 217.7 81 C 218 82.6 219.2 84 221.7 84 C 224.1 84 225.9 82.8 225.9 79.7 C 225.9 79.7 225.9 77.2 225.9 77.2 C 224.9 79.1 223 79.7 221.3 79.7 C 218.2 79.7 215.6 77.6 215.6 73.4 C 215.6 69.2 218.3 67.1 221.4 67.1 C 223.5 67.1 225 68 225.8 69.4 C 225.84 69.41 225.8 67.3 225.8 67.3 L 227.6 67.3 C 227.6 67.3 227.57 79.63 227.6 79.6 Z M 225.8 73.4 C 225.8 70.1 223.8 68.6 221.6 68.6 C 219.4 68.6 217.4 70.2 217.4 73.4 C 217.4 76.6 219.4 78.1 221.6 78.1 C 223.7 78.1 225.8 76.8 225.8 73.4 Z M 232.2 74.2 C 232.2 77.4 234.2 78.9 236.5 78.9 C 238.2 78.9 239.9 78 240.2 76.2 C 240.2 76.2 241.9 76.2 241.9 76.2 C 241.3 79.2 238.8 80.5 236.4 80.5 C 233.3 80.5 230.4 78.4 230.4 73.8 C 230.4 69.2 233.3 67.1 236.4 67.1 C 239.5 67.1 242 69 242 73.3 C 241.99 73.32 242 74.2 242 74.2 C 242 74.2 232.17 74.18 232.2 74.2 Z M 232.2 72.7 C 232.2 72.7 240.2 72.7 240.2 72.7 C 240.2 70.1 238.5 68.6 236.4 68.6 C 234.4 68.6 232.5 69.9 232.2 72.7 Z M 245 67.3 L 246.7 67.3 C 246.7 67.3 246.72 69.46 246.7 69.5 C 247.4 67.8 248.8 67.1 250.5 67.1 C 252.4 67.1 253.9 68.1 254.3 69.8 C 254.9 68.3 256.3 67.1 258.5 67.1 C 260.8 67.1 262.7 68.4 262.7 71 C 262.68 70.97 262.7 80.2 262.7 80.2 L 260.9 80.2 C 260.9 80.2 260.93 71.59 260.9 71.6 C 260.9 69.6 259.7 68.6 258.2 68.6 C 256.3 68.6 254.7 70.1 254.7 72.8 C 254.69 72.84 254.7 80.2 254.7 80.2 L 253 80.2 C 253 80.2 252.96 71.59 253 71.6 C 253 69.6 251.8 68.6 250.2 68.6 C 248.3 68.6 246.7 70.1 246.7 72.8 C 246.74 72.84 246.7 80.2 246.7 80.2 L 245 80.2 L 245 67.3 Z M 267.3 74.2 C 267.3 77.4 269.3 78.9 271.6 78.9 C 273.3 78.9 275 78 275.3 76.2 C 275.3 76.2 277 76.2 277 76.2 C 276.4 79.2 273.9 80.5 271.5 80.5 C 268.4 80.5 265.6 78.4 265.6 73.8 C 265.6 69.2 268.5 67.1 271.6 67.1 C 274.6 67.1 277.1 69 277.1 73.3 C 277.1 73.32 277.1 74.2 277.1 74.2 C 277.1 74.2 267.29 74.18 267.3 74.2 Z M 267.3 72.7 C 267.3 72.7 275.3 72.7 275.3 72.7 C 275.3 70.1 273.6 68.6 271.5 68.6 C 269.5 68.6 267.6 69.9 267.3 72.7 Z M 290.6 71.4 C 290.57 71.38 290.6 80.2 290.6 80.2 L 288.8 80.2 C 288.8 80.2 288.81 71.59 288.8 71.6 C 288.8 69.8 287.8 68.7 286 68.7 C 283.8 68.7 281.9 70.3 281.9 73.4 C 281.85 73.44 281.9 80.2 281.9 80.2 L 280.1 80.2 L 280.1 67.3 L 281.9 67.3 C 281.9 67.3 281.85 69.72 281.9 69.7 C 282.6 68.2 284.1 67.1 286.3 67.1 C 288.9 67.1 290.6 68.5 290.6 71.4 Z M 300.2 80.2 C 300.2 80.2 298.27 80.21 298.3 80.2 C 296.6 80.2 295 79.7 295 76.8 C 295.03 76.82 295 68.9 295 68.9 L 292.5 68.9 L 292.5 67.3 L 295 67.3 L 295 63.7 L 296.8 63.2 L 296.8 67.3 L 299.9 67.3 L 299.9 68.9 L 296.8 68.9 C 296.8 68.9 296.78 76.8 296.8 76.8 C 296.8 78 297.1 78.6 298.6 78.6 C 298.56 78.62 300.2 78.6 300.2 78.6 L 300.2 80.2 Z " stroke="none" fill="#000"/>  </g>  <g id="Polygon10098">    <path d="M 15.7 51.4 L 13.8 51.4 L 13.8 43.2 L 4 43.2 L 4 51.4 L 2.2 51.4 L 2.2 33.4 L 4 33.4 L 4 41.5 L 13.8 41.5 L 13.8 33.4 L 15.7 33.4 L 15.7 51.4 Z M 20.6 45.4 C 20.7 48.6 22.7 50.1 24.9 50.1 C 26.6 50.1 28.3 49.2 28.7 47.4 C 28.7 47.4 30.4 47.4 30.4 47.4 C 29.8 50.4 27.3 51.7 24.8 51.7 C 21.8 51.7 18.9 49.6 18.9 45 C 18.9 40.4 21.8 38.3 24.9 38.3 C 28 38.3 30.5 40.2 30.5 44.5 C 30.46 44.52 30.5 45.4 30.5 45.4 C 30.5 45.4 20.64 45.38 20.6 45.4 Z M 20.7 43.9 C 20.7 43.9 28.7 43.9 28.7 43.9 C 28.7 41.3 27 39.8 24.8 39.8 C 22.8 39.8 20.9 41.1 20.7 43.9 Z M 41.4 49.1 C 40.4 51 38.4 51.7 36.8 51.7 C 34.6 51.7 32.6 50.4 32.6 47.8 C 32.6 45.5 34.3 44.4 36.5 44.1 C 36.5 44.1 39.6 43.7 39.6 43.7 C 40.5 43.5 41.4 43.2 41.4 42.1 C 41.4 40.6 40.1 39.7 38.3 39.7 C 36.3 39.7 35.1 40.7 34.9 42.1 C 34.9 42.1 33.1 42.1 33.1 42.1 C 33.5 39.6 35.5 38.3 38.4 38.3 C 41.3 38.3 43.1 39.6 43.1 42.5 C 43.08 42.5 43.1 51.4 43.1 51.4 L 41.4 51.4 C 41.4 51.4 41.38 49.06 41.4 49.1 Z M 39.2 45.1 C 39.2 45.1 37.3 45.4 37.3 45.4 C 35.6 45.6 34.4 46.2 34.4 47.8 C 34.4 49.4 35.7 50.1 37.1 50.1 C 39.1 50.1 41.3 48.6 41.3 45.8 C 41.3 45.8 41.3 44.6 41.3 44.6 C 40.8 44.9 40.1 45 39.2 45.1 Z M 57.9 51.4 L 56.2 51.4 C 56.2 51.4 56.21 48.91 56.2 48.9 C 55.6 50.4 54 51.7 51.6 51.7 C 48.2 51.7 45.8 49 45.8 45 C 45.8 40.9 48.2 38.3 51.6 38.3 C 53.8 38.3 55.4 39.4 56.1 40.7 C 56.14 40.7 56.1 33.1 56.1 33.1 L 57.9 33.1 L 57.9 51.4 Z M 56.1 44.9 C 56.1 41.7 54.3 39.9 51.9 39.9 C 49.3 39.9 47.6 41.8 47.6 45 C 47.6 48.1 49.4 50.1 51.9 50.1 C 54.4 50.1 56.1 48.1 56.1 44.9 Z M 66.9 45 C 66.9 40.8 69.4 38.3 73 38.3 C 76.5 38.3 79.1 40.8 79.1 45 C 79.1 49.2 76.6 51.7 73 51.7 C 69.5 51.7 66.9 49.2 66.9 45 Z M 77.3 44.9 C 77.3 41.7 75.4 39.9 73 39.9 C 70.4 39.9 68.7 41.9 68.7 45 C 68.7 48.2 70.6 50 73 50 C 75.5 50 77.3 48.1 77.3 44.9 Z M 86.2 34.7 C 84.8 34.7 84.4 35.3 84.4 36.5 C 84.43 36.53 84.4 38.5 84.4 38.5 L 87.3 38.5 L 87.3 40.1 L 84.4 40.1 L 84.4 51.4 L 82.7 51.4 L 82.7 40.1 L 80.5 40.1 L 80.5 38.5 L 82.7 38.5 C 82.7 38.5 82.68 36.48 82.7 36.5 C 82.7 33.6 84.2 33.1 85.9 33.1 C 85.92 33.12 87.6 33.1 87.6 33.1 L 87.6 34.7 C 87.6 34.7 86.21 34.68 86.2 34.7 Z M 98 51.4 L 96.1 51.4 L 96.1 33.4 L 107.4 33.4 L 107.4 35 L 98 35 L 98 41.5 L 106.9 41.5 L 106.9 43.1 L 98 43.1 L 98 51.4 Z M 118.2 51.4 C 118.2 51.4 118.18 48.96 118.2 49 C 117.3 50.7 115.7 51.6 113.9 51.6 C 111.5 51.6 109.6 50 109.6 47 C 109.58 47.04 109.6 38.5 109.6 38.5 L 111.3 38.5 C 111.3 38.5 111.34 46.82 111.3 46.8 C 111.3 48.9 112.5 50 114.2 50 C 116.3 50 118.1 48.5 118.1 45.2 C 118.1 45.19 118.1 38.5 118.1 38.5 L 119.9 38.5 L 119.9 51.4 L 118.2 51.4 Z M 134.2 42.6 C 134.16 42.58 134.2 51.4 134.2 51.4 L 132.4 51.4 C 132.4 51.4 132.41 42.79 132.4 42.8 C 132.4 41 131.4 39.9 129.6 39.9 C 127.4 39.9 125.4 41.5 125.4 44.6 C 125.45 44.64 125.4 51.4 125.4 51.4 L 123.7 51.4 L 123.7 38.5 L 125.4 38.5 C 125.4 38.5 125.45 40.92 125.4 40.9 C 126.2 39.4 127.7 38.3 129.9 38.3 C 132.5 38.3 134.2 39.7 134.2 42.6 Z M 149.1 51.4 L 147.4 51.4 C 147.4 51.4 147.41 48.91 147.4 48.9 C 146.8 50.4 145.2 51.7 142.8 51.7 C 139.4 51.7 137 49 137 45 C 137 40.9 139.4 38.3 142.8 38.3 C 145 38.3 146.6 39.4 147.3 40.7 C 147.34 40.7 147.3 33.1 147.3 33.1 L 149.1 33.1 L 149.1 51.4 Z M 147.3 44.9 C 147.3 41.7 145.5 39.9 143.1 39.9 C 140.5 39.9 138.8 41.8 138.8 45 C 138.8 48.1 140.6 50.1 143.1 50.1 C 145.6 50.1 147.3 48.1 147.3 44.9 Z M 162.5 47.8 C 162.5 50.4 160.1 51.7 157.5 51.7 C 154.8 51.7 152.2 50.3 152 47.4 C 152 47.4 153.8 47.4 153.8 47.4 C 154.1 49.3 155.8 50.1 157.6 50.1 C 159.2 50.1 160.7 49.4 160.7 48 C 160.7 46.5 159.2 46.2 157.7 45.9 C 155.2 45.5 152.3 45.1 152.3 42.1 C 152.3 39.5 154.5 38.3 157.1 38.3 C 159.9 38.3 162 39.6 162.2 42.1 C 162.2 42.1 160.3 42.1 160.3 42.1 C 160.2 40.6 158.7 39.8 157.1 39.8 C 155.3 39.8 154.1 40.6 154.1 42 C 154.1 43.6 155.7 43.9 157.6 44.2 C 159.9 44.6 162.5 45 162.5 47.8 Z M 179.3 49.1 C 178.3 51 176.4 51.7 174.7 51.7 C 172.5 51.7 170.5 50.4 170.5 47.8 C 170.5 45.5 172.2 44.4 174.5 44.1 C 174.5 44.1 177.5 43.7 177.5 43.7 C 178.5 43.5 179.3 43.2 179.3 42.1 C 179.3 40.6 178 39.7 176.2 39.7 C 174.2 39.7 173.1 40.7 172.8 42.1 C 172.8 42.1 171 42.1 171 42.1 C 171.4 39.6 173.5 38.3 176.3 38.3 C 179.2 38.3 181 39.6 181 42.5 C 181.01 42.5 181 51.4 181 51.4 L 179.3 51.4 C 179.3 51.4 179.3 49.06 179.3 49.1 Z M 177.2 45.1 C 177.2 45.1 175.2 45.4 175.2 45.4 C 173.6 45.6 172.3 46.2 172.3 47.8 C 172.3 49.4 173.6 50.1 175 50.1 C 177 50.1 179.3 48.6 179.3 45.8 C 179.3 45.8 179.3 44.6 179.3 44.6 C 178.8 44.9 178 45 177.2 45.1 Z M 195.1 42.6 C 195.07 42.58 195.1 51.4 195.1 51.4 L 193.3 51.4 C 193.3 51.4 193.32 42.79 193.3 42.8 C 193.3 41 192.3 39.9 190.5 39.9 C 188.3 39.9 186.4 41.5 186.4 44.6 C 186.36 44.64 186.4 51.4 186.4 51.4 L 184.6 51.4 L 184.6 38.5 L 186.4 38.5 C 186.4 38.5 186.36 40.92 186.4 40.9 C 187.1 39.4 188.6 38.3 190.8 38.3 C 193.4 38.3 195.1 39.7 195.1 42.6 Z M 210 51.4 L 208.3 51.4 C 208.3 51.4 208.32 48.91 208.3 48.9 C 207.7 50.4 206.1 51.7 203.7 51.7 C 200.4 51.7 198 49 198 45 C 198 40.9 200.4 38.3 203.8 38.3 C 205.9 38.3 207.6 39.4 208.2 40.7 C 208.25 40.7 208.2 33.1 208.2 33.1 L 210 33.1 L 210 51.4 Z M 208.2 44.9 C 208.2 41.7 206.4 39.9 204 39.9 C 201.5 39.9 199.8 41.8 199.8 45 C 199.8 48.1 201.5 50.1 204 50.1 C 206.5 50.1 208.2 48.1 208.2 44.9 Z M 231.3 46.3 L 222.7 46.3 L 220.7 51.4 L 218.8 51.4 L 226 33.4 L 227.9 33.4 L 235.4 51.4 L 233.4 51.4 L 231.3 46.3 Z M 226.9 35.5 L 223.3 44.7 L 230.7 44.7 L 226.9 35.5 Z M 250.2 44.9 C 250.2 49 247.8 51.7 244.3 51.7 C 242 51.7 240.5 50.4 239.8 49 C 239.83 49.03 239.8 51.4 239.8 51.4 L 238.2 51.4 L 238.2 33.1 L 239.9 33.1 C 239.9 33.1 239.9 41.11 239.9 41.1 C 240.6 39.6 242.2 38.3 244.5 38.3 C 247.8 38.3 250.2 40.8 250.2 44.9 Z M 248.4 45 C 248.4 41.8 246.7 40 244.2 40 C 241.7 40 239.9 41.9 239.9 45.1 C 239.9 48.2 241.7 50.2 244.1 50.2 C 246.7 50.2 248.4 48.1 248.4 45 Z M 262.8 47.8 C 262.8 50.4 260.4 51.7 257.8 51.7 C 255 51.7 252.5 50.3 252.2 47.4 C 252.2 47.4 254.1 47.4 254.1 47.4 C 254.4 49.3 256.1 50.1 257.8 50.1 C 259.5 50.1 260.9 49.4 260.9 48 C 260.9 46.5 259.4 46.2 257.9 45.9 C 255.5 45.5 252.5 45.1 252.5 42.1 C 252.5 39.5 254.7 38.3 257.4 38.3 C 260.1 38.3 262.3 39.6 262.4 42.1 C 262.4 42.1 260.6 42.1 260.6 42.1 C 260.5 40.6 259 39.8 257.3 39.8 C 255.6 39.8 254.4 40.6 254.4 42 C 254.4 43.6 255.9 43.9 257.9 44.2 C 260.2 44.6 262.8 45 262.8 47.8 Z M 264.8 45 C 264.8 40.8 267.3 38.3 270.9 38.3 C 274.4 38.3 277 40.8 277 45 C 277 49.2 274.5 51.7 270.9 51.7 C 267.4 51.7 264.8 49.2 264.8 45 Z M 275.2 44.9 C 275.2 41.7 273.3 39.9 270.9 39.9 C 268.3 39.9 266.6 41.9 266.6 45 C 266.6 48.2 268.5 50 270.9 50 C 273.4 50 275.2 48.1 275.2 44.9 Z M 281.8 51.4 L 280 51.4 L 280 33.1 L 281.8 33.1 L 281.8 51.4 Z M 294.1 51.4 C 294.1 51.4 294.07 48.96 294.1 49 C 293.2 50.7 291.6 51.6 289.8 51.6 C 287.3 51.6 285.5 50 285.5 47 C 285.48 47.04 285.5 38.5 285.5 38.5 L 287.2 38.5 C 287.2 38.5 287.23 46.82 287.2 46.8 C 287.2 48.9 288.4 50 290.1 50 C 292.1 50 294 48.5 294 45.2 C 294 45.19 294 38.5 294 38.5 L 295.7 38.5 L 295.7 51.4 L 294.1 51.4 Z M 305.5 51.4 C 305.5 51.4 303.57 51.41 303.6 51.4 C 301.9 51.4 300.3 50.9 300.3 48 C 300.33 48.02 300.3 40.1 300.3 40.1 L 297.8 40.1 L 297.8 38.5 L 300.3 38.5 L 300.3 34.9 L 302.1 34.4 L 302.1 38.5 L 305.2 38.5 L 305.2 40.1 L 302.1 40.1 C 302.1 40.1 302.09 48 302.1 48 C 302.1 49.2 302.4 49.8 303.9 49.8 C 303.86 49.82 305.5 49.8 305.5 49.8 L 305.5 51.4 Z M 308.9 45.4 C 308.9 48.6 310.9 50.1 313.2 50.1 C 314.9 50.1 316.6 49.2 316.9 47.4 C 316.9 47.4 318.6 47.4 318.6 47.4 C 318 50.4 315.5 51.7 313.1 51.7 C 310 51.7 307.1 49.6 307.1 45 C 307.1 40.4 310.1 38.3 313.1 38.3 C 316.2 38.3 318.7 40.2 318.7 44.5 C 318.69 44.52 318.7 45.4 318.7 45.4 C 318.7 45.4 308.88 45.38 308.9 45.4 Z M 308.9 43.9 C 308.9 43.9 316.9 43.9 316.9 43.9 C 316.9 41.3 315.2 39.8 313.1 39.8 C 311.1 39.8 309.2 41.1 308.9 43.9 Z M 339.1 51.4 L 334 43.6 L 329.7 43.6 L 329.7 51.4 L 327.9 51.4 L 327.9 33.4 C 327.9 33.4 334.34 33.41 334.3 33.4 C 338 33.4 339.9 35.7 339.9 38.3 C 339.9 40.5 338.6 42.6 335.9 43.3 C 335.95 43.32 341.3 51.4 341.3 51.4 L 339.1 51.4 Z M 334.2 42 C 336.8 42 338.1 40.2 338.1 38.4 C 338.1 36.6 336.9 35 334.4 35 C 334.44 35.02 329.7 35 329.7 35 L 329.7 42 C 329.7 42 334.22 42 334.2 42 Z M 344.2 45.4 C 344.3 48.6 346.2 50.1 348.5 50.1 C 350.2 50.1 351.9 49.2 352.3 47.4 C 352.3 47.4 353.9 47.4 353.9 47.4 C 353.3 50.4 350.9 51.7 348.4 51.7 C 345.3 51.7 342.5 49.6 342.5 45 C 342.5 40.4 345.4 38.3 348.5 38.3 C 351.5 38.3 354 40.2 354 44.5 C 354.02 44.52 354 45.4 354 45.4 C 354 45.4 344.21 45.38 344.2 45.4 Z M 344.3 43.9 C 344.3 43.9 352.2 43.9 352.2 43.9 C 352.2 41.3 350.6 39.8 348.4 39.8 C 346.4 39.8 344.5 41.1 344.3 43.9 Z M 362.9 51.4 C 362.9 51.4 361.01 51.41 361 51.4 C 359.3 51.4 357.8 50.9 357.8 48 C 357.77 48.02 357.8 40.1 357.8 40.1 L 355.2 40.1 L 355.2 38.5 L 357.8 38.5 L 357.8 34.9 L 359.5 34.4 L 359.5 38.5 L 362.6 38.5 L 362.6 40.1 L 359.5 40.1 C 359.5 40.1 359.52 48 359.5 48 C 359.5 49.2 359.9 49.8 361.3 49.8 C 361.29 49.82 362.9 49.8 362.9 49.8 L 362.9 51.4 Z M 373.9 51.4 C 373.9 51.4 373.89 48.96 373.9 49 C 373 50.7 371.4 51.6 369.6 51.6 C 367.2 51.6 365.3 50 365.3 47 C 365.3 47.04 365.3 38.5 365.3 38.5 L 367.1 38.5 C 367.1 38.5 367.05 46.82 367.1 46.8 C 367.1 48.9 368.2 50 369.9 50 C 372 50 373.8 48.5 373.8 45.2 C 373.82 45.19 373.8 38.5 373.8 38.5 L 375.6 38.5 L 375.6 51.4 L 373.9 51.4 Z M 385.8 40 C 385.8 40 385.44 40.03 385.4 40 C 382.7 40 381.2 41.6 381.2 44.6 C 381.16 44.57 381.2 51.4 381.2 51.4 L 379.4 51.4 L 379.4 38.5 L 381.1 38.5 C 381.1 38.5 381.14 40.9 381.1 40.9 C 381.7 39.2 383.3 38.4 385.3 38.4 C 385.29 38.38 385.8 38.4 385.8 38.4 L 385.8 40 Z M 398.6 42.6 C 398.59 42.58 398.6 51.4 398.6 51.4 L 396.8 51.4 C 396.8 51.4 396.84 42.79 396.8 42.8 C 396.8 41 395.8 39.9 394 39.9 C 391.8 39.9 389.9 41.5 389.9 44.6 C 389.88 44.64 389.9 51.4 389.9 51.4 L 388.1 51.4 L 388.1 38.5 L 389.9 38.5 C 389.9 38.5 389.88 40.92 389.9 40.9 C 390.6 39.4 392.1 38.3 394.3 38.3 C 396.9 38.3 398.6 39.7 398.6 42.6 Z M 403.6 51.3 C 403.56 51.26 402.4 51.3 402.4 51.3 L 402.4 48.9 L 404.9 48.9 C 404.9 48.9 404.95 51.34 404.9 51.3 C 404.9 54.2 403.3 55.2 401.5 55.4 C 401.5 55.4 401.2 54.3 401.2 54.3 C 403.2 53.9 403.6 52.8 403.6 51.3 Z " stroke="none" fill="#000"/>  </g>  <g id="Polygon10097">    <path d="M 14.3 16 C 14.3 16 17.7 16 17.7 16 C 17.4 20.7 13.8 23.1 9.7 23.1 C 4 23.1 1 18.5 1 13.5 C 1 8.8 3.7 4.2 9.8 4.2 C 14 4.2 17.2 6.5 17.6 10.6 C 17.6 10.6 14.2 10.6 14.2 10.6 C 14 8.6 12.1 7.3 9.7 7.3 C 6 7.3 4.3 10.3 4.3 13.5 C 4.3 16.8 6.2 19.8 9.7 19.8 C 11.9 19.8 14.1 18.8 14.3 16 Z M 24.2 7 L 27.9 1.3 L 30.4 3.2 L 26.9 7 L 24.2 7 Z M 22.4 16.9 C 22.4 19.1 24 20.1 25.8 20.1 C 27 20.1 28.2 19.6 28.6 18.4 C 28.6 18.4 31.5 18.4 31.5 18.4 C 31 21.3 28.3 22.9 25.6 22.9 C 22.4 22.9 19.3 20.7 19.3 16 C 19.3 11.5 22.3 9.1 25.7 9.1 C 28.9 9.1 31.6 11.3 31.6 15.6 C 31.58 15.65 31.6 16.9 31.6 16.9 C 31.6 16.9 22.37 16.94 22.4 16.9 Z M 22.4 14.6 C 22.4 14.6 28.5 14.6 28.5 14.6 C 28.5 12.9 27.2 11.9 25.6 11.9 C 24.1 11.9 22.7 12.7 22.4 14.6 Z M 44.4 18.5 C 44.4 21.5 41.8 22.9 38.8 22.9 C 36.1 22.9 33.1 21.7 32.9 18.4 C 32.9 18.4 36.1 18.4 36.1 18.4 C 36.3 19.7 37.5 20.3 39 20.3 C 40.3 20.3 41.3 19.8 41.3 18.8 C 41.3 18 40.7 17.8 38.9 17.5 C 36.3 17 33.3 16.6 33.3 13.3 C 33.3 10.3 35.8 9.1 38.6 9.1 C 41.7 9.1 43.9 10.7 44.1 13.6 C 44.1 13.6 41 13.6 41 13.6 C 40.9 12.3 40 11.8 38.6 11.8 C 37 11.8 36.4 12.5 36.4 13.2 C 36.4 14.3 37.6 14.5 39.2 14.7 C 41.6 15.1 44.4 15.4 44.4 18.5 Z M 57.2 13.7 C 57.19 13.7 57.2 22.6 57.2 22.6 L 54.1 22.6 C 54.1 22.6 54.07 20.69 54.1 20.7 C 53 22.4 51.5 22.9 50.1 22.9 C 48 22.9 45.8 21.6 45.8 18.8 C 45.8 16.7 46.9 15.3 50 14.8 C 50 14.8 52.8 14.4 52.8 14.4 C 53.6 14.3 54.2 14 54.2 13.2 C 54.2 12.1 53.2 11.6 52 11.6 C 50.3 11.6 49.5 12.5 49.4 13.6 C 49.4 13.6 46.3 13.6 46.3 13.6 C 46.6 10.5 49.1 9.1 52.1 9.1 C 55.2 9.1 57.2 10.6 57.2 13.7 Z M 54.1 17 C 54.1 17 54.1 16.3 54.1 16.3 C 53.8 16.5 53.2 16.6 52.5 16.7 C 52.5 16.7 51.1 16.9 51.1 16.9 C 49.5 17.1 49 17.8 49 18.6 C 49 19.7 49.7 20.2 50.8 20.2 C 52.5 20.2 54.1 19 54.1 17 Z M 67.6 12.3 C 67.6 12.3 66.72 12.31 66.7 12.3 C 64.5 12.3 63.3 13.5 63.3 16.1 C 63.26 16.13 63.3 22.6 63.3 22.6 L 60.1 22.6 L 60.1 9.4 L 63.2 9.4 C 63.2 9.4 63.24 11.26 63.2 11.3 C 63.9 9.8 65.1 9.2 66.7 9.2 C 66.7 9.22 67.6 9.2 67.6 9.2 L 67.6 12.3 Z M 90.2 13 L 90.2 22.6 L 87.1 22.6 C 87.1 22.6 87.1 20.54 87.1 20.5 C 86.4 21.7 84.8 23.1 81.8 23.1 C 76.8 23.1 73.6 19.1 73.6 13.8 C 73.6 8.8 76.3 4.2 82.4 4.2 C 86.6 4.2 89.8 6.5 90.2 10.6 C 90.2 10.6 86.8 10.6 86.8 10.6 C 86.6 8.6 84.7 7.3 82.3 7.3 C 78.6 7.3 76.9 10.2 76.9 13.7 C 76.9 17.4 78.8 19.9 82.3 19.9 C 84.8 19.9 86.8 18.7 87.1 16.1 C 87.12 16.08 81.8 16.1 81.8 16.1 L 81.8 13 L 90.2 13 Z M 93.3 7.6 L 96.7 7.6 L 96.7 4 L 93.3 4 L 93.3 7.6 Z M 93.4 9.4 L 96.6 9.4 L 96.6 22.6 L 93.4 22.6 L 93.4 9.4 Z M 102.9 22.6 L 99.7 22.6 L 99.7 4.3 L 102.9 4.3 L 102.9 22.6 Z M 124.5 16 C 124.5 16 127.9 16 127.9 16 C 127.7 20.7 124 23.1 119.9 23.1 C 114.2 23.1 111.2 18.5 111.2 13.5 C 111.2 8.8 114 4.2 120 4.2 C 124.2 4.2 127.4 6.5 127.8 10.6 C 127.8 10.6 124.4 10.6 124.4 10.6 C 124.2 8.6 122.3 7.3 119.9 7.3 C 116.3 7.3 114.5 10.3 114.5 13.5 C 114.5 16.8 116.4 19.8 120 19.8 C 122.1 19.8 124.3 18.8 124.5 16 Z M 140.9 13.7 C 140.93 13.7 140.9 22.6 140.9 22.6 L 137.8 22.6 C 137.8 22.6 137.81 20.69 137.8 20.7 C 136.8 22.4 135.2 22.9 133.8 22.9 C 131.7 22.9 129.5 21.6 129.5 18.8 C 129.5 16.7 130.7 15.3 133.7 14.8 C 133.7 14.8 136.6 14.4 136.6 14.4 C 137.4 14.3 137.9 14 137.9 13.2 C 137.9 12.1 137 11.6 135.7 11.6 C 134 11.6 133.2 12.5 133.1 13.6 C 133.1 13.6 130 13.6 130 13.6 C 130.4 10.5 132.8 9.1 135.8 9.1 C 139 9.1 140.9 10.6 140.9 13.7 Z M 137.8 17 C 137.8 17 137.8 16.3 137.8 16.3 C 137.5 16.5 136.9 16.6 136.3 16.7 C 136.3 16.7 134.8 16.9 134.8 16.9 C 133.2 17.1 132.7 17.8 132.7 18.6 C 132.7 19.7 133.4 20.2 134.5 20.2 C 136.2 20.2 137.8 19 137.8 17 Z M 155.4 14.1 C 155.45 14.06 155.4 22.6 155.4 22.6 L 152.3 22.6 C 152.3 22.6 152.25 14.35 152.3 14.4 C 152.3 12.9 151.4 12 149.9 12 C 148.1 12 147 13.3 147 15.5 C 147 15.46 147 22.6 147 22.6 L 143.8 22.6 L 143.8 9.4 L 147 9.4 C 147 9.4 146.97 11.28 147 11.3 C 147.7 10.1 148.8 9.1 151 9.1 C 154 9.1 155.4 10.9 155.4 14.1 Z M 170.5 16 C 170.5 20.3 167.8 22.9 164.1 22.9 C 160.4 22.9 157.6 20.3 157.6 16 C 157.6 11.7 160.4 9.1 164.1 9.1 C 167.8 9.1 170.5 11.7 170.5 16 Z M 160.9 16 C 160.9 18.7 162.3 19.9 164.1 19.9 C 166 19.9 167.3 18.5 167.3 16 C 167.3 13.3 165.8 12.1 164 12.1 C 162.1 12.1 160.9 13.5 160.9 16 Z " stroke="none" fill="#000"/>  </g></svg>