<?xml version="1.0" standalone="no"?><!DOCTYPE svg PUBLIC "-//W3C//DTD SVG 1.1//EN" "http://www.w3.org/Graphics/SVG/1.1/DTD/svg11.dtd"><svg xmlns="http://www.w3.org/2000/svg" version="1.1" width="380.4px" height="142.4px" viewBox="0 0 380.4 142.4">  <desc>wohingegen der Einzelhandel und die Automobilbranche auch schon vor dem Ausbruch des Virus aufgrund von strukturellen</desc>  <defs/>  <g id="Polygon11551">    <path d="M 14.3 112.4 C 14.3 116.5 11.8 120.6 6.4 120.6 C 6.45 120.58 1.9 120.6 1.9 120.6 L 1.9 104.8 C 1.9 104.8 6.72 104.83 6.7 104.8 C 11.8 104.8 14.3 108.5 14.3 112.4 Z M 12.7 112.5 C 12.7 109.3 10.7 106.2 6.6 106.2 C 6.59 106.24 3.5 106.2 3.5 106.2 L 3.5 119.1 C 3.5 119.1 6.47 119.13 6.5 119.1 C 10.6 119.1 12.7 115.8 12.7 112.5 Z M 22.8 110.6 C 22.8 110.6 22.45 110.63 22.4 110.6 C 20.1 110.6 18.7 112 18.7 114.6 C 18.71 114.6 18.7 120.6 18.7 120.6 L 17.2 120.6 L 17.2 109.3 L 18.7 109.3 C 18.7 109.3 18.69 111.38 18.7 111.4 C 19.2 109.9 20.6 109.2 22.3 109.2 C 22.32 109.18 22.8 109.2 22.8 109.2 L 22.8 110.6 Z M 32.2 120.6 C 32.2 120.6 32.21 118.44 32.2 118.4 C 31.4 120 30.1 120.7 28.5 120.7 C 26.3 120.7 24.7 119.4 24.7 116.8 C 24.7 116.76 24.7 109.3 24.7 109.3 L 26.2 109.3 C 26.2 109.3 26.23 116.57 26.2 116.6 C 26.2 118.4 27.2 119.4 28.7 119.4 C 30.5 119.4 32.2 118 32.2 115.1 C 32.15 115.14 32.2 109.3 32.2 109.3 L 33.7 109.3 L 33.7 120.6 L 32.2 120.6 Z M 41.5 120.8 C 38.4 120.8 36.3 118.5 36.3 115 C 36.3 111.4 38.4 109.1 41.7 109.1 C 44.2 109.1 46.2 110.5 46.3 113 C 46.3 113 44.8 113 44.8 113 C 44.7 111.4 43.3 110.5 41.6 110.5 C 39.4 110.5 37.9 112.2 37.9 114.9 C 37.9 117.7 39.4 119.4 41.6 119.4 C 43.3 119.4 44.7 118.4 44.8 116.6 C 44.8 116.6 46.3 116.6 46.3 116.6 C 46.2 119.3 44 120.8 41.5 120.8 Z M 52.5 115.1 L 50.5 117.2 L 50.5 120.6 L 49 120.6 L 49 104.6 L 50.5 104.6 L 50.5 115.3 L 56 109.3 L 58 109.3 L 53.5 114 L 58.3 120.6 L 56.5 120.6 L 52.5 115.1 Z M 73.8 117.4 C 73.8 119.7 71.7 120.8 69.4 120.8 C 67 120.8 64.8 119.6 64.5 117.1 C 64.5 117.1 66.2 117.1 66.2 117.1 C 66.4 118.8 67.9 119.4 69.4 119.4 C 70.9 119.4 72.2 118.9 72.2 117.6 C 72.2 116.3 70.9 116 69.5 115.8 C 67.4 115.4 64.8 115 64.8 112.4 C 64.8 110.2 66.7 109.1 69 109.1 C 71.4 109.1 73.3 110.2 73.5 112.5 C 73.5 112.5 71.9 112.5 71.9 112.5 C 71.8 111.1 70.5 110.5 69 110.5 C 67.5 110.5 66.4 111.2 66.4 112.3 C 66.4 113.8 67.8 114 69.5 114.3 C 71.5 114.6 73.8 114.9 73.8 117.4 Z M 81.4 120.6 C 81.4 120.6 79.76 120.58 79.8 120.6 C 78.3 120.6 76.9 120.1 76.9 117.6 C 76.92 117.62 76.9 110.7 76.9 110.7 L 74.7 110.7 L 74.7 109.3 L 76.9 109.3 L 76.9 106.1 L 78.5 105.7 L 78.5 109.3 L 81.2 109.3 L 81.2 110.7 L 78.5 110.7 C 78.5 110.7 78.46 117.6 78.5 117.6 C 78.5 118.6 78.7 119.2 80 119.2 C 80.01 119.2 81.4 119.2 81.4 119.2 L 81.4 120.6 Z M 90.6 118.5 C 89.7 120.2 88 120.8 86.5 120.8 C 84.6 120.8 82.9 119.7 82.9 117.5 C 82.9 115.4 84.4 114.4 86.3 114.2 C 86.3 114.2 89 113.8 89 113.8 C 89.8 113.7 90.6 113.4 90.6 112.4 C 90.6 111.1 89.4 110.4 87.8 110.4 C 86.1 110.4 85.1 111.2 84.9 112.5 C 84.9 112.5 83.3 112.5 83.3 112.5 C 83.6 110.2 85.4 109.1 87.9 109.1 C 90.5 109.1 92 110.3 92 112.8 C 92.04 112.79 92 120.6 92 120.6 L 90.6 120.6 C 90.6 120.6 90.55 118.52 90.6 118.5 Z M 88.7 115.1 C 88.7 115.1 87 115.3 87 115.3 C 85.5 115.5 84.5 116 84.5 117.4 C 84.5 118.8 85.6 119.4 86.8 119.4 C 88.6 119.4 90.5 118.1 90.5 115.7 C 90.5 115.7 90.5 114.6 90.5 114.6 C 90.1 114.9 89.4 115 88.7 115.1 Z M 104.3 112.9 C 104.35 112.85 104.3 120.6 104.3 120.6 L 102.8 120.6 C 102.8 120.6 102.81 113.04 102.8 113 C 102.8 111.5 101.9 110.5 100.3 110.5 C 98.4 110.5 96.7 111.9 96.7 114.7 C 96.72 114.66 96.7 120.6 96.7 120.6 L 95.2 120.6 L 95.2 109.3 L 96.7 109.3 C 96.7 109.3 96.72 111.4 96.7 111.4 C 97.4 110.1 98.7 109.1 100.6 109.1 C 102.9 109.1 104.3 110.4 104.3 112.9 Z M 117.4 120.6 L 115.9 120.6 C 115.9 120.6 115.94 118.4 115.9 118.4 C 115.4 119.7 114 120.8 111.9 120.8 C 109 120.8 106.9 118.5 106.9 114.9 C 106.9 111.4 109 109.1 111.9 109.1 C 113.9 109.1 115.3 110 115.9 111.2 C 115.88 111.22 115.9 104.6 115.9 104.6 L 117.4 104.6 L 117.4 120.6 Z M 115.9 114.9 C 115.9 112.1 114.3 110.5 112.1 110.5 C 109.9 110.5 108.4 112.2 108.4 114.9 C 108.4 117.7 110 119.4 112.1 119.4 C 114.3 119.4 115.9 117.7 115.9 114.9 Z M 121.5 115.3 C 121.6 118.1 123.3 119.4 125.3 119.4 C 126.8 119.4 128.3 118.7 128.6 117.1 C 128.6 117.1 130.1 117.1 130.1 117.1 C 129.5 119.7 127.4 120.8 125.2 120.8 C 122.5 120.8 120 119 120 115 C 120 110.9 122.6 109.1 125.3 109.1 C 128 109.1 130.1 110.8 130.1 114.6 C 130.14 114.55 130.1 115.3 130.1 115.3 C 130.1 115.3 121.55 115.31 121.5 115.3 Z M 121.6 114 C 121.6 114 128.6 114 128.6 114 C 128.6 111.7 127.1 110.5 125.2 110.5 C 123.5 110.5 121.8 111.6 121.6 114 Z M 141.9 112.9 C 141.92 112.85 141.9 120.6 141.9 120.6 L 140.4 120.6 C 140.4 120.6 140.38 113.04 140.4 113 C 140.4 111.5 139.5 110.5 137.9 110.5 C 136 110.5 134.3 111.9 134.3 114.7 C 134.29 114.66 134.3 120.6 134.3 120.6 L 132.8 120.6 L 132.8 109.3 L 134.3 109.3 C 134.3 109.3 134.29 111.4 134.3 111.4 C 135 110.1 136.2 109.1 138.2 109.1 C 140.4 109.1 141.9 110.4 141.9 112.9 Z M 144.4 118.4 L 146.6 118.4 L 146.6 120.6 L 144.4 120.6 L 144.4 118.4 Z " stroke="none" fill="#000"/>  </g>  <g id="Polygon11550">    <path d="M 10.1 92.2 C 10.1 94.5 8 95.6 5.7 95.6 C 3.3 95.6 1.1 94.4 0.8 91.9 C 0.8 91.9 2.5 91.9 2.5 91.9 C 2.7 93.6 4.2 94.2 5.7 94.2 C 7.2 94.2 8.5 93.7 8.5 92.4 C 8.5 91.1 7.2 90.8 5.8 90.6 C 3.7 90.2 1.1 89.8 1.1 87.2 C 1.1 85 3 83.9 5.4 83.9 C 7.7 83.9 9.6 85 9.8 87.3 C 9.8 87.3 8.2 87.3 8.2 87.3 C 8.1 85.9 6.8 85.3 5.3 85.3 C 3.8 85.3 2.7 86 2.7 87.1 C 2.7 88.6 4.1 88.8 5.8 89.1 C 7.8 89.4 10.1 89.7 10.1 92.2 Z M 17.7 95.4 C 17.7 95.4 16.06 95.38 16.1 95.4 C 14.6 95.4 13.2 94.9 13.2 92.4 C 13.23 92.42 13.2 85.5 13.2 85.5 L 11 85.5 L 11 84.1 L 13.2 84.1 L 13.2 80.9 L 14.8 80.5 L 14.8 84.1 L 17.5 84.1 L 17.5 85.5 L 14.8 85.5 C 14.8 85.5 14.76 92.4 14.8 92.4 C 14.8 93.4 15.1 94 16.3 94 C 16.32 94 17.7 94 17.7 94 L 17.7 95.4 Z M 25.6 85.4 C 25.6 85.4 25.2 85.43 25.2 85.4 C 22.8 85.4 21.5 86.8 21.5 89.4 C 21.46 89.4 21.5 95.4 21.5 95.4 L 19.9 95.4 L 19.9 84.1 L 21.4 84.1 C 21.4 84.1 21.44 86.18 21.4 86.2 C 22 84.7 23.3 84 25.1 84 C 25.07 83.98 25.6 84 25.6 84 L 25.6 85.4 Z M 35 95.4 C 35 95.4 34.96 93.24 35 93.2 C 34.2 94.8 32.8 95.5 31.2 95.5 C 29.1 95.5 27.4 94.2 27.4 91.6 C 27.45 91.56 27.4 84.1 27.4 84.1 L 29 84.1 C 29 84.1 28.98 91.37 29 91.4 C 29 93.2 30 94.2 31.5 94.2 C 33.3 94.2 34.9 92.8 34.9 89.9 C 34.9 89.94 34.9 84.1 34.9 84.1 L 36.4 84.1 L 36.4 95.4 L 35 95.4 Z M 43.3 89.9 L 41.3 92 L 41.3 95.4 L 39.8 95.4 L 39.8 79.4 L 41.3 79.4 L 41.3 90.1 L 46.9 84.1 L 48.8 84.1 L 44.4 88.8 L 49.2 95.4 L 47.3 95.4 L 43.3 89.9 Z M 56.5 95.4 C 56.5 95.4 54.87 95.38 54.9 95.4 C 53.4 95.4 52 94.9 52 92.4 C 52.04 92.42 52 85.5 52 85.5 L 49.8 85.5 L 49.8 84.1 L 52 84.1 L 52 80.9 L 53.6 80.5 L 53.6 84.1 L 56.3 84.1 L 56.3 85.5 L 53.6 85.5 C 53.6 85.5 53.57 92.4 53.6 92.4 C 53.6 93.4 53.9 94 55.1 94 C 55.12 94 56.5 94 56.5 94 L 56.5 95.4 Z M 66.1 95.4 C 66.1 95.4 66.15 93.24 66.1 93.2 C 65.4 94.8 64 95.5 62.4 95.5 C 60.3 95.5 58.6 94.2 58.6 91.6 C 58.63 91.56 58.6 84.1 58.6 84.1 L 60.2 84.1 C 60.2 84.1 60.16 91.37 60.2 91.4 C 60.2 93.2 61.2 94.2 62.7 94.2 C 64.5 94.2 66.1 92.8 66.1 89.9 C 66.09 89.94 66.1 84.1 66.1 84.1 L 67.6 84.1 L 67.6 95.4 L 66.1 95.4 Z M 76.6 85.4 C 76.6 85.4 76.25 85.43 76.2 85.4 C 73.9 85.4 72.5 86.8 72.5 89.4 C 72.51 89.4 72.5 95.4 72.5 95.4 L 71 95.4 L 71 84.1 L 72.5 84.1 C 72.5 84.1 72.49 86.18 72.5 86.2 C 73 84.7 74.4 84 76.1 84 C 76.12 83.98 76.6 84 76.6 84 L 76.6 85.4 Z M 79.2 90.1 C 79.2 92.9 80.9 94.2 82.9 94.2 C 84.4 94.2 85.9 93.5 86.2 91.9 C 86.2 91.9 87.7 91.9 87.7 91.9 C 87.2 94.5 85 95.6 82.8 95.6 C 80.2 95.6 77.7 93.8 77.7 89.8 C 77.7 85.7 80.2 83.9 82.9 83.9 C 85.6 83.9 87.8 85.6 87.8 89.4 C 87.76 89.35 87.8 90.1 87.8 90.1 C 87.8 90.1 79.17 90.11 79.2 90.1 Z M 79.2 88.8 C 79.2 88.8 86.2 88.8 86.2 88.8 C 86.2 86.5 84.7 85.3 82.8 85.3 C 81.1 85.3 79.4 86.4 79.2 88.8 Z M 91.9 95.4 L 90.4 95.4 L 90.4 79.4 L 91.9 79.4 L 91.9 95.4 Z M 96.8 95.4 L 95.3 95.4 L 95.3 79.4 L 96.8 79.4 L 96.8 95.4 Z M 100.9 90.1 C 101 92.9 102.7 94.2 104.7 94.2 C 106.2 94.2 107.7 93.5 108 91.9 C 108 91.9 109.5 91.9 109.5 91.9 C 108.9 94.5 106.8 95.6 104.6 95.6 C 101.9 95.6 99.4 93.8 99.4 89.8 C 99.4 85.7 102 83.9 104.7 83.9 C 107.4 83.9 109.5 85.6 109.5 89.4 C 109.53 89.35 109.5 90.1 109.5 90.1 C 109.5 90.1 100.95 90.11 100.9 90.1 Z M 101 88.8 C 101 88.8 108 88.8 108 88.8 C 108 86.5 106.5 85.3 104.6 85.3 C 102.9 85.3 101.2 86.4 101 88.8 Z M 121.3 87.7 C 121.32 87.65 121.3 95.4 121.3 95.4 L 119.8 95.4 C 119.8 95.4 119.78 87.84 119.8 87.8 C 119.8 86.3 118.9 85.3 117.3 85.3 C 115.4 85.3 113.7 86.7 113.7 89.5 C 113.69 89.46 113.7 95.4 113.7 95.4 L 112.2 95.4 L 112.2 84.1 L 113.7 84.1 C 113.7 84.1 113.69 86.2 113.7 86.2 C 114.4 84.9 115.6 83.9 117.6 83.9 C 119.8 83.9 121.3 85.2 121.3 87.7 Z M 135.8 95.4 L 134.1 95.4 L 128.7 79.6 L 130.4 79.6 L 135 93.5 L 139.6 79.6 L 141.2 79.6 L 135.8 95.4 Z M 143.1 90.1 C 143.2 92.9 144.9 94.2 146.9 94.2 C 148.4 94.2 149.9 93.5 150.2 91.9 C 150.2 91.9 151.6 91.9 151.6 91.9 C 151.1 94.5 149 95.6 146.8 95.6 C 144.1 95.6 141.6 93.8 141.6 89.8 C 141.6 85.7 144.2 83.9 146.9 83.9 C 149.5 83.9 151.7 85.6 151.7 89.4 C 151.72 89.35 151.7 90.1 151.7 90.1 C 151.7 90.1 143.13 90.11 143.1 90.1 Z M 143.2 88.8 C 143.2 88.8 150.2 88.8 150.2 88.8 C 150.2 86.5 148.7 85.3 146.8 85.3 C 145 85.3 143.4 86.4 143.2 88.8 Z M 160 85.4 C 160 85.4 159.62 85.43 159.6 85.4 C 157.2 85.4 155.9 86.8 155.9 89.4 C 155.88 89.4 155.9 95.4 155.9 95.4 L 154.3 95.4 L 154.3 84.1 L 155.9 84.1 C 155.9 84.1 155.86 86.18 155.9 86.2 C 156.4 84.7 157.7 84 159.5 84 C 159.49 83.98 160 84 160 84 L 160 85.4 Z M 163.4 81.8 L 163.4 79.9 L 165.2 79.9 L 165.2 81.8 L 163.4 81.8 Z M 167.4 81.8 L 167.4 79.9 L 169.2 79.9 L 169.2 81.8 L 167.4 81.8 Z M 168.9 93.3 C 168 95 166.3 95.6 164.9 95.6 C 163 95.6 161.2 94.5 161.2 92.3 C 161.2 90.2 162.7 89.2 164.7 89 C 164.7 89 167.3 88.6 167.3 88.6 C 168.2 88.5 168.9 88.2 168.9 87.2 C 168.9 85.9 167.7 85.2 166.2 85.2 C 164.5 85.2 163.4 86 163.2 87.3 C 163.2 87.3 161.7 87.3 161.7 87.3 C 162 85 163.8 83.9 166.3 83.9 C 168.8 83.9 170.4 85.1 170.4 87.6 C 170.39 87.59 170.4 95.4 170.4 95.4 L 168.9 95.4 C 168.9 95.4 168.9 93.32 168.9 93.3 Z M 167 89.9 C 167 89.9 165.3 90.1 165.3 90.1 C 163.9 90.3 162.8 90.8 162.8 92.2 C 162.8 93.6 163.9 94.2 165.1 94.2 C 166.9 94.2 168.9 92.9 168.9 90.5 C 168.9 90.5 168.9 89.4 168.9 89.4 C 168.4 89.7 167.8 89.8 167 89.9 Z M 182.7 87.7 C 182.7 87.65 182.7 95.4 182.7 95.4 L 181.2 95.4 C 181.2 95.4 181.16 87.84 181.2 87.8 C 181.2 86.3 180.3 85.3 178.7 85.3 C 176.8 85.3 175.1 86.7 175.1 89.5 C 175.07 89.46 175.1 95.4 175.1 95.4 L 173.5 95.4 L 173.5 84.1 L 175.1 84.1 C 175.1 84.1 175.07 86.2 175.1 86.2 C 175.7 84.9 177 83.9 179 83.9 C 181.2 83.9 182.7 85.2 182.7 87.7 Z M 195.8 95.4 L 194.3 95.4 C 194.3 95.4 194.29 93.2 194.3 93.2 C 193.7 94.5 192.4 95.6 190.3 95.6 C 187.3 95.6 185.2 93.3 185.2 89.7 C 185.2 86.2 187.3 83.9 190.3 83.9 C 192.2 83.9 193.6 84.8 194.2 86 C 194.23 86.02 194.2 79.4 194.2 79.4 L 195.8 79.4 L 195.8 95.4 Z M 194.2 89.7 C 194.2 86.9 192.7 85.3 190.5 85.3 C 188.3 85.3 186.8 87 186.8 89.7 C 186.8 92.5 188.3 94.2 190.5 94.2 C 192.7 94.2 194.2 92.5 194.2 89.7 Z M 199.9 90.1 C 199.9 92.9 201.7 94.2 203.7 94.2 C 205.1 94.2 206.6 93.5 207 91.9 C 207 91.9 208.4 91.9 208.4 91.9 C 207.9 94.5 205.7 95.6 203.6 95.6 C 200.9 95.6 198.4 93.8 198.4 89.8 C 198.4 85.7 200.9 83.9 203.6 83.9 C 206.3 83.9 208.5 85.6 208.5 89.4 C 208.49 89.35 208.5 90.1 208.5 90.1 C 208.5 90.1 199.9 90.11 199.9 90.1 Z M 199.9 88.8 C 199.9 88.8 206.9 88.8 206.9 88.8 C 206.9 86.5 205.5 85.3 203.6 85.3 C 201.8 85.3 200.1 86.4 199.9 88.8 Z M 216.7 85.4 C 216.7 85.4 216.38 85.43 216.4 85.4 C 214 85.4 212.6 86.8 212.6 89.4 C 212.64 89.4 212.6 95.4 212.6 95.4 L 211.1 95.4 L 211.1 84.1 L 212.6 84.1 C 212.6 84.1 212.62 86.18 212.6 86.2 C 213.1 84.7 214.5 84 216.3 84 C 216.26 83.98 216.7 84 216.7 84 L 216.7 85.4 Z M 226.1 95.4 C 226.1 95.4 226.15 93.24 226.1 93.2 C 225.4 94.8 224 95.5 222.4 95.5 C 220.3 95.5 218.6 94.2 218.6 91.6 C 218.63 91.56 218.6 84.1 218.6 84.1 L 220.2 84.1 C 220.2 84.1 220.16 91.37 220.2 91.4 C 220.2 93.2 221.2 94.2 222.7 94.2 C 224.5 94.2 226.1 92.8 226.1 89.9 C 226.08 89.94 226.1 84.1 226.1 84.1 L 227.6 84.1 L 227.6 95.4 L 226.1 95.4 Z M 240.1 87.7 C 240.13 87.65 240.1 95.4 240.1 95.4 L 238.6 95.4 C 238.6 95.4 238.6 87.84 238.6 87.8 C 238.6 86.3 237.7 85.3 236.1 85.3 C 234.2 85.3 232.5 86.7 232.5 89.5 C 232.51 89.46 232.5 95.4 232.5 95.4 L 231 95.4 L 231 84.1 L 232.5 84.1 C 232.5 84.1 232.51 86.2 232.5 86.2 C 233.2 84.9 234.4 83.9 236.4 83.9 C 238.7 83.9 240.1 85.2 240.1 87.7 Z M 253.1 94.9 C 253.1 98.3 250.9 100 248 100 C 245.5 100 243.3 98.7 242.9 96.1 C 242.9 96.1 244.5 96.1 244.5 96.1 C 244.7 97.5 245.7 98.7 248 98.7 C 250.1 98.7 251.6 97.6 251.6 95 C 251.6 95 251.6 92.7 251.6 92.7 C 250.8 94.4 249.1 95 247.6 95 C 244.9 95 242.7 93.1 242.7 89.4 C 242.7 85.7 245 83.9 247.7 83.9 C 249.5 83.9 250.9 84.7 251.6 85.9 C 251.58 85.93 251.6 84.1 251.6 84.1 L 253.1 84.1 C 253.1 84.1 253.09 94.88 253.1 94.9 Z M 251.5 89.4 C 251.5 86.6 249.8 85.2 247.9 85.2 C 246 85.2 244.2 86.6 244.2 89.4 C 244.2 92.2 245.9 93.6 247.9 93.6 C 249.7 93.6 251.5 92.4 251.5 89.4 Z M 257.1 90.1 C 257.2 92.9 258.9 94.2 260.9 94.2 C 262.4 94.2 263.8 93.5 264.2 91.9 C 264.2 91.9 265.6 91.9 265.6 91.9 C 265.1 94.5 262.9 95.6 260.8 95.6 C 258.1 95.6 255.6 93.8 255.6 89.8 C 255.6 85.7 258.1 83.9 260.9 83.9 C 263.5 83.9 265.7 85.6 265.7 89.4 C 265.71 89.35 265.7 90.1 265.7 90.1 C 265.7 90.1 257.12 90.11 257.1 90.1 Z M 257.2 88.8 C 257.2 88.8 264.2 88.8 264.2 88.8 C 264.2 86.5 262.7 85.3 260.8 85.3 C 259 85.3 257.4 86.4 257.2 88.8 Z M 277.5 87.7 C 277.49 87.65 277.5 95.4 277.5 95.4 L 276 95.4 C 276 95.4 275.96 87.84 276 87.8 C 276 86.3 275.1 85.3 273.5 85.3 C 271.5 85.3 269.9 86.7 269.9 89.5 C 269.87 89.46 269.9 95.4 269.9 95.4 L 268.3 95.4 L 268.3 84.1 L 269.9 84.1 C 269.9 84.1 269.87 86.2 269.9 86.2 C 270.5 84.9 271.8 83.9 273.8 83.9 C 276 83.9 277.5 85.2 277.5 87.7 Z M 293.8 95.4 C 293.8 95.4 293.83 93.24 293.8 93.2 C 293.1 94.8 291.7 95.5 290.1 95.5 C 287.9 95.5 286.3 94.2 286.3 91.6 C 286.31 91.56 286.3 84.1 286.3 84.1 L 287.8 84.1 C 287.8 84.1 287.84 91.37 287.8 91.4 C 287.8 93.2 288.9 94.2 290.3 94.2 C 292.1 94.2 293.8 92.8 293.8 89.9 C 293.76 89.94 293.8 84.1 293.8 84.1 L 295.3 84.1 L 295.3 95.4 L 293.8 95.4 Z M 307.8 87.7 C 307.81 87.65 307.8 95.4 307.8 95.4 L 306.3 95.4 C 306.3 95.4 306.28 87.84 306.3 87.8 C 306.3 86.3 305.4 85.3 303.8 85.3 C 301.9 85.3 300.2 86.7 300.2 89.5 C 300.19 89.46 300.2 95.4 300.2 95.4 L 298.7 95.4 L 298.7 84.1 L 300.2 84.1 C 300.2 84.1 300.19 86.2 300.2 86.2 C 300.9 84.9 302.1 83.9 304.1 83.9 C 306.3 83.9 307.8 85.2 307.8 87.7 Z M 316.2 95.4 C 316.2 95.4 314.55 95.38 314.6 95.4 C 313.1 95.4 311.7 94.9 311.7 92.4 C 311.72 92.42 311.7 85.5 311.7 85.5 L 309.5 85.5 L 309.5 84.1 L 311.7 84.1 L 311.7 80.9 L 313.3 80.5 L 313.3 84.1 L 316 84.1 L 316 85.5 L 313.3 85.5 C 313.3 85.5 313.25 92.4 313.3 92.4 C 313.3 93.4 313.5 94 314.8 94 C 314.81 94 316.2 94 316.2 94 L 316.2 95.4 Z M 319.2 90.1 C 319.2 92.9 321 94.2 323 94.2 C 324.4 94.2 325.9 93.5 326.3 91.9 C 326.3 91.9 327.7 91.9 327.7 91.9 C 327.2 94.5 325 95.6 322.9 95.6 C 320.2 95.6 317.7 93.8 317.7 89.8 C 317.7 85.7 320.2 83.9 322.9 83.9 C 325.6 83.9 327.8 85.6 327.8 89.4 C 327.78 89.35 327.8 90.1 327.8 90.1 C 327.8 90.1 319.2 90.11 319.2 90.1 Z M 319.2 88.8 C 319.2 88.8 326.2 88.8 326.2 88.8 C 326.2 86.5 324.8 85.3 322.9 85.3 C 321.1 85.3 319.4 86.4 319.2 88.8 Z M 336 85.4 C 336 85.4 335.68 85.43 335.7 85.4 C 333.3 85.4 331.9 86.8 331.9 89.4 C 331.94 89.4 331.9 95.4 331.9 95.4 L 330.4 95.4 L 330.4 84.1 L 331.9 84.1 C 331.9 84.1 331.92 86.18 331.9 86.2 C 332.4 84.7 333.8 84 335.6 84 C 335.55 83.98 336 84 336 84 L 336 85.4 Z " stroke="none" fill="#000"/>  </g>  <g id="Polygon11549">    <path d="M 11.5 70.2 L 10 70.2 C 10 70.2 10.02 68 10 68 C 9.5 69.3 8.1 70.4 6 70.4 C 3 70.4 0.9 68.1 0.9 64.5 C 0.9 61 3 58.7 6 58.7 C 7.9 58.7 9.3 59.6 10 60.8 C 9.95 60.82 10 54.2 10 54.2 L 11.5 54.2 L 11.5 70.2 Z M 9.9 64.5 C 9.9 61.7 8.4 60.1 6.2 60.1 C 4 60.1 2.5 61.8 2.5 64.5 C 2.5 67.3 4 69 6.2 69 C 8.4 69 9.9 67.3 9.9 64.5 Z M 15.6 64.9 C 15.7 67.7 17.4 69 19.4 69 C 20.9 69 22.3 68.3 22.7 66.7 C 22.7 66.7 24.1 66.7 24.1 66.7 C 23.6 69.3 21.4 70.4 19.3 70.4 C 16.6 70.4 14.1 68.6 14.1 64.6 C 14.1 60.5 16.7 58.7 19.4 58.7 C 22 58.7 24.2 60.4 24.2 64.2 C 24.21 64.15 24.2 64.9 24.2 64.9 C 24.2 64.9 15.62 64.91 15.6 64.9 Z M 15.7 63.6 C 15.7 63.6 22.7 63.6 22.7 63.6 C 22.7 61.3 21.2 60.1 19.3 60.1 C 17.5 60.1 15.9 61.2 15.7 63.6 Z M 26.8 58.9 L 28.3 58.9 C 28.3 58.9 28.35 60.77 28.3 60.8 C 29 59.4 30.2 58.7 31.6 58.7 C 33.3 58.7 34.6 59.6 35 61 C 35.5 59.8 36.7 58.7 38.7 58.7 C 40.7 58.7 42.3 59.8 42.3 62.1 C 42.31 62.1 42.3 70.2 42.3 70.2 L 40.8 70.2 C 40.8 70.2 40.78 62.64 40.8 62.6 C 40.8 60.9 39.7 60.1 38.4 60.1 C 36.7 60.1 35.3 61.4 35.3 63.7 C 35.32 63.73 35.3 70.2 35.3 70.2 L 33.8 70.2 C 33.8 70.2 33.81 62.64 33.8 62.6 C 33.8 60.9 32.8 60.1 31.4 60.1 C 29.8 60.1 28.4 61.3 28.4 63.7 C 28.37 63.73 28.4 70.2 28.4 70.2 L 26.8 70.2 L 26.8 58.9 Z M 60.8 65.7 L 53.3 65.7 L 51.6 70.2 L 49.9 70.2 L 56.2 54.4 L 57.9 54.4 L 64.4 70.2 L 62.6 70.2 L 60.8 65.7 Z M 57 56.2 L 53.9 64.3 L 60.3 64.3 L 57 56.2 Z M 73.8 70.2 C 73.8 70.2 73.84 68.04 73.8 68 C 73.1 69.6 71.7 70.3 70.1 70.3 C 68 70.3 66.3 69 66.3 66.4 C 66.32 66.36 66.3 58.9 66.3 58.9 L 67.9 58.9 C 67.9 58.9 67.85 66.17 67.9 66.2 C 67.9 68 68.9 69 70.3 69 C 72.2 69 73.8 67.6 73.8 64.7 C 73.77 64.74 73.8 58.9 73.8 58.9 L 75.3 58.9 L 75.3 70.2 L 73.8 70.2 Z M 87 67 C 87 69.3 85 70.4 82.7 70.4 C 80.3 70.4 78.1 69.2 77.8 66.7 C 77.8 66.7 79.5 66.7 79.5 66.7 C 79.7 68.4 81.2 69 82.7 69 C 84.2 69 85.4 68.5 85.4 67.2 C 85.4 65.9 84.1 65.6 82.8 65.4 C 80.7 65 78.1 64.6 78.1 62 C 78.1 59.8 80 58.7 82.3 58.7 C 84.7 58.7 86.6 59.8 86.8 62.1 C 86.8 62.1 85.2 62.1 85.2 62.1 C 85 60.7 83.7 60.1 82.3 60.1 C 80.7 60.1 79.7 60.8 79.7 61.9 C 79.7 63.4 81.1 63.6 82.8 63.9 C 84.8 64.2 87 64.5 87 67 Z M 100.1 64.5 C 100.1 68 98 70.4 95 70.4 C 93 70.4 91.6 69.3 91 68.1 C 91.03 68.1 91 70.2 91 70.2 L 89.6 70.2 L 89.6 54.2 L 91.1 54.2 C 91.1 54.2 91.1 61.17 91.1 61.2 C 91.7 59.8 93.1 58.7 95.1 58.7 C 98 58.7 100.1 60.9 100.1 64.5 Z M 98.5 64.6 C 98.5 61.8 97 60.2 94.9 60.2 C 92.7 60.2 91.1 61.8 91.1 64.6 C 91.1 67.4 92.6 69.1 94.8 69.1 C 97 69.1 98.5 67.3 98.5 64.6 Z M 108.3 60.2 C 108.3 60.2 107.98 60.23 108 60.2 C 105.6 60.2 104.2 61.6 104.2 64.2 C 104.24 64.2 104.2 70.2 104.2 70.2 L 102.7 70.2 L 102.7 58.9 L 104.2 58.9 C 104.2 58.9 104.22 60.98 104.2 61 C 104.7 59.5 106.1 58.8 107.9 58.8 C 107.86 58.78 108.3 58.8 108.3 58.8 L 108.3 60.2 Z M 117.7 70.2 C 117.7 70.2 117.75 68.04 117.7 68 C 117 69.6 115.6 70.3 114 70.3 C 111.9 70.3 110.2 69 110.2 66.4 C 110.23 66.36 110.2 58.9 110.2 58.9 L 111.8 58.9 C 111.8 58.9 111.76 66.17 111.8 66.2 C 111.8 68 112.8 69 114.3 69 C 116.1 69 117.7 67.6 117.7 64.7 C 117.68 64.74 117.7 58.9 117.7 58.9 L 119.2 58.9 L 119.2 70.2 L 117.7 70.2 Z M 127.1 70.4 C 124 70.4 121.8 68.1 121.8 64.6 C 121.8 61 123.9 58.7 127.2 58.7 C 129.7 58.7 131.7 60.1 131.9 62.6 C 131.9 62.6 130.4 62.6 130.4 62.6 C 130.2 61 128.8 60.1 127.2 60.1 C 125 60.1 123.4 61.8 123.4 64.5 C 123.4 67.3 124.9 69 127.2 69 C 128.9 69 130.2 68 130.3 66.2 C 130.3 66.2 131.9 66.2 131.9 66.2 C 131.7 68.9 129.6 70.4 127.1 70.4 Z M 143.6 62.5 C 143.64 62.45 143.6 70.2 143.6 70.2 L 142.1 70.2 C 142.1 70.2 142.11 62.64 142.1 62.6 C 142.1 61.1 141.2 60.1 139.6 60.1 C 137.7 60.1 136 61.5 136 64.3 C 136.02 64.26 136 70.2 136 70.2 L 134.5 70.2 L 134.5 54.2 L 136 54.2 C 136 54.2 136.02 60.88 136 60.9 C 136.7 59.6 137.9 58.7 139.9 58.7 C 142.2 58.7 143.6 60 143.6 62.5 Z M 162 70.2 L 160.5 70.2 C 160.5 70.2 160.48 68 160.5 68 C 159.9 69.3 158.6 70.4 156.5 70.4 C 153.5 70.4 151.4 68.1 151.4 64.5 C 151.4 61 153.5 58.7 156.5 58.7 C 158.4 58.7 159.8 59.6 160.4 60.8 C 160.42 60.82 160.4 54.2 160.4 54.2 L 162 54.2 L 162 70.2 Z M 160.4 64.5 C 160.4 61.7 158.8 60.1 156.7 60.1 C 154.5 60.1 153 61.8 153 64.5 C 153 67.3 154.5 69 156.7 69 C 158.9 69 160.4 67.3 160.4 64.5 Z M 166.1 64.9 C 166.1 67.7 167.9 69 169.8 69 C 171.3 69 172.8 68.3 173.1 66.7 C 173.1 66.7 174.6 66.7 174.6 66.7 C 174.1 69.3 171.9 70.4 169.8 70.4 C 167.1 70.4 164.6 68.6 164.6 64.6 C 164.6 60.5 167.1 58.7 169.8 58.7 C 172.5 58.7 174.7 60.4 174.7 64.2 C 174.68 64.15 174.7 64.9 174.7 64.9 C 174.7 64.9 166.09 64.91 166.1 64.9 Z M 166.1 63.6 C 166.1 63.6 173.1 63.6 173.1 63.6 C 173.1 61.3 171.7 60.1 169.8 60.1 C 168 60.1 166.3 61.2 166.1 63.6 Z M 185.7 67 C 185.7 69.3 183.6 70.4 181.3 70.4 C 178.9 70.4 176.7 69.2 176.5 66.7 C 176.5 66.7 178.1 66.7 178.1 66.7 C 178.4 68.4 179.8 69 181.4 69 C 182.8 69 184.1 68.5 184.1 67.2 C 184.1 65.9 182.8 65.6 181.5 65.4 C 179.3 65 176.7 64.6 176.7 62 C 176.7 59.8 178.7 58.7 181 58.7 C 183.4 58.7 185.3 59.8 185.4 62.1 C 185.4 62.1 183.8 62.1 183.8 62.1 C 183.7 60.7 182.4 60.1 180.9 60.1 C 179.4 60.1 178.3 60.8 178.3 61.9 C 178.3 63.4 179.7 63.6 181.4 63.9 C 183.4 64.2 185.7 64.5 185.7 67 Z M 199.1 70.2 L 197.4 70.2 L 191.9 54.4 L 193.6 54.4 L 198.2 68.3 L 202.8 54.4 L 204.4 54.4 L 199.1 70.2 Z M 208.3 54.2 L 206.5 54.2 L 206.5 56.1 L 208.3 56.1 L 208.3 54.2 Z M 208.2 70.2 L 206.6 70.2 L 206.6 58.9 L 208.2 58.9 L 208.2 70.2 Z M 217.1 60.2 C 217.1 60.2 216.78 60.23 216.8 60.2 C 214.4 60.2 213 61.6 213 64.2 C 213.04 64.2 213 70.2 213 70.2 L 211.5 70.2 L 211.5 58.9 L 213 58.9 C 213 58.9 213.02 60.98 213 61 C 213.5 59.5 214.9 58.8 216.7 58.8 C 216.66 58.78 217.1 58.8 217.1 58.8 L 217.1 60.2 Z M 226.5 70.2 C 226.5 70.2 226.55 68.04 226.5 68 C 225.8 69.6 224.4 70.3 222.8 70.3 C 220.7 70.3 219 69 219 66.4 C 219.03 66.36 219 58.9 219 58.9 L 220.6 58.9 C 220.6 58.9 220.56 66.17 220.6 66.2 C 220.6 68 221.6 69 223.1 69 C 224.9 69 226.5 67.6 226.5 64.7 C 226.48 64.74 226.5 58.9 226.5 58.9 L 228 58.9 L 228 70.2 L 226.5 70.2 Z M 239.8 67 C 239.8 69.3 237.7 70.4 235.4 70.4 C 233 70.4 230.8 69.2 230.5 66.7 C 230.5 66.7 232.2 66.7 232.2 66.7 C 232.4 68.4 233.9 69 235.4 69 C 236.9 69 238.2 68.5 238.2 67.2 C 238.2 65.9 236.9 65.6 235.5 65.4 C 233.4 65 230.8 64.6 230.8 62 C 230.8 59.8 232.7 58.7 235.1 58.7 C 237.4 58.7 239.3 59.8 239.5 62.1 C 239.5 62.1 237.9 62.1 237.9 62.1 C 237.8 60.7 236.5 60.1 235 60.1 C 233.5 60.1 232.4 60.8 232.4 61.9 C 232.4 63.4 233.8 63.6 235.5 63.9 C 237.5 64.2 239.8 64.5 239.8 67 Z M 254.5 68.1 C 253.6 69.8 251.9 70.4 250.4 70.4 C 248.5 70.4 246.8 69.3 246.8 67.1 C 246.8 65 248.3 64 250.2 63.8 C 250.2 63.8 252.9 63.4 252.9 63.4 C 253.7 63.3 254.5 63 254.5 62 C 254.5 60.7 253.3 60 251.7 60 C 250 60 249 60.8 248.8 62.1 C 248.8 62.1 247.2 62.1 247.2 62.1 C 247.5 59.8 249.4 58.7 251.8 58.7 C 254.4 58.7 255.9 59.9 255.9 62.4 C 255.95 62.39 255.9 70.2 255.9 70.2 L 254.5 70.2 C 254.5 70.2 254.45 68.12 254.5 68.1 Z M 252.6 64.7 C 252.6 64.7 250.9 64.9 250.9 64.9 C 249.4 65.1 248.4 65.6 248.4 67 C 248.4 68.4 249.5 69 250.7 69 C 252.5 69 254.4 67.7 254.4 65.3 C 254.4 65.3 254.4 64.2 254.4 64.2 C 254 64.5 253.3 64.6 252.6 64.7 Z M 266.5 70.2 C 266.5 70.2 266.51 68.04 266.5 68 C 265.7 69.6 264.3 70.3 262.7 70.3 C 260.6 70.3 259 69 259 66.4 C 258.99 66.36 259 58.9 259 58.9 L 260.5 58.9 C 260.5 58.9 260.52 66.17 260.5 66.2 C 260.5 68 261.5 69 263 69 C 264.8 69 266.4 67.6 266.4 64.7 C 266.45 64.74 266.4 58.9 266.4 58.9 L 268 58.9 L 268 70.2 L 266.5 70.2 Z M 274.9 55.5 C 273.7 55.5 273.4 56.1 273.4 57.2 C 273.38 57.16 273.4 58.9 273.4 58.9 L 275.9 58.9 L 275.9 60.3 L 273.4 60.3 L 273.4 70.2 L 271.8 70.2 L 271.8 60.3 L 270 60.3 L 270 58.9 L 271.8 58.9 C 271.8 58.9 271.84 57.12 271.8 57.1 C 271.8 54.6 273.2 54.2 274.7 54.2 C 274.68 54.18 276.2 54.2 276.2 54.2 L 276.2 55.5 C 276.2 55.5 274.93 55.54 274.9 55.5 Z M 287.7 69.7 C 287.7 73.1 285.5 74.8 282.6 74.8 C 280.1 74.8 277.8 73.5 277.5 70.9 C 277.5 70.9 279 70.9 279 70.9 C 279.3 72.3 280.3 73.5 282.6 73.5 C 284.6 73.5 286.2 72.4 286.2 69.8 C 286.2 69.8 286.2 67.5 286.2 67.5 C 285.3 69.2 283.7 69.8 282.2 69.8 C 279.4 69.8 277.2 67.9 277.2 64.2 C 277.2 60.5 279.6 58.7 282.3 58.7 C 284.1 58.7 285.5 59.5 286.1 60.7 C 286.14 60.73 286.1 58.9 286.1 58.9 L 287.7 58.9 C 287.7 58.9 287.66 69.68 287.7 69.7 Z M 286.1 64.2 C 286.1 61.4 284.4 60 282.5 60 C 280.5 60 278.7 61.4 278.7 64.2 C 278.7 67 280.5 68.4 282.4 68.4 C 284.3 68.4 286.1 67.2 286.1 64.2 Z M 296.5 60.2 C 296.5 60.2 296.18 60.23 296.2 60.2 C 293.8 60.2 292.4 61.6 292.4 64.2 C 292.44 64.2 292.4 70.2 292.4 70.2 L 290.9 70.2 L 290.9 58.9 L 292.4 58.9 C 292.4 58.9 292.42 60.98 292.4 61 C 292.9 59.5 294.3 58.8 296.1 58.8 C 296.06 58.78 296.5 58.8 296.5 58.8 L 296.5 60.2 Z M 305.9 70.2 C 305.9 70.2 305.95 68.04 305.9 68 C 305.2 69.6 303.8 70.3 302.2 70.3 C 300.1 70.3 298.4 69 298.4 66.4 C 298.43 66.36 298.4 58.9 298.4 58.9 L 300 58.9 C 300 58.9 299.96 66.17 300 66.2 C 300 68 301 69 302.5 69 C 304.3 69 305.9 67.6 305.9 64.7 C 305.88 64.74 305.9 58.9 305.9 58.9 L 307.4 58.9 L 307.4 70.2 L 305.9 70.2 Z M 319.9 62.5 C 319.93 62.45 319.9 70.2 319.9 70.2 L 318.4 70.2 C 318.4 70.2 318.4 62.64 318.4 62.6 C 318.4 61.1 317.5 60.1 315.9 60.1 C 314 60.1 312.3 61.5 312.3 64.3 C 312.31 64.26 312.3 70.2 312.3 70.2 L 310.8 70.2 L 310.8 58.9 L 312.3 58.9 C 312.3 58.9 312.31 61 312.3 61 C 313 59.7 314.2 58.7 316.2 58.7 C 318.5 58.7 319.9 60 319.9 62.5 Z M 333 70.2 L 331.5 70.2 C 331.5 70.2 331.52 68 331.5 68 C 331 69.3 329.6 70.4 327.5 70.4 C 324.6 70.4 322.5 68.1 322.5 64.5 C 322.5 61 324.6 58.7 327.5 58.7 C 329.4 58.7 330.9 59.6 331.5 60.8 C 331.46 60.82 331.5 54.2 331.5 54.2 L 333 54.2 L 333 70.2 Z M 331.4 64.5 C 331.4 61.7 329.9 60.1 327.7 60.1 C 325.5 60.1 324 61.8 324 64.5 C 324 67.3 325.5 69 327.7 69 C 329.9 69 331.4 67.3 331.4 64.5 Z M 346.1 70.2 L 344.4 70.2 L 340.2 58.9 L 341.9 58.9 L 345.3 68.6 L 348.7 58.9 L 350.3 58.9 L 346.1 70.2 Z M 351.3 64.6 C 351.3 60.9 353.6 58.7 356.7 58.7 C 359.8 58.7 362 60.9 362 64.6 C 362 68.2 359.8 70.4 356.7 70.4 C 353.6 70.4 351.3 68.2 351.3 64.6 Z M 360.4 64.5 C 360.4 61.7 358.7 60.1 356.6 60.1 C 354.4 60.1 352.9 61.8 352.9 64.6 C 352.9 67.4 354.6 69 356.7 69 C 358.9 69 360.4 67.3 360.4 64.5 Z M 373.8 62.5 C 373.8 62.45 373.8 70.2 373.8 70.2 L 372.3 70.2 C 372.3 70.2 372.26 62.64 372.3 62.6 C 372.3 61.1 371.4 60.1 369.8 60.1 C 367.9 60.1 366.2 61.5 366.2 64.3 C 366.17 64.26 366.2 70.2 366.2 70.2 L 364.6 70.2 L 364.6 58.9 L 366.2 58.9 C 366.2 58.9 366.17 61 366.2 61 C 366.8 59.7 368.1 58.7 370.1 58.7 C 372.3 58.7 373.8 60 373.8 62.5 Z " stroke="none" fill="#000"/>  </g>  <g id="Polygon11548">    <path d="M 11.7 40.5 L 4.2 40.5 L 2.5 45 L 0.7 45 L 7.1 29.2 L 8.8 29.2 L 15.3 45 L 13.5 45 L 11.7 40.5 Z M 7.9 31 L 4.7 39.1 L 11.2 39.1 L 7.9 31 Z M 24.7 45 C 24.7 45 24.7 42.84 24.7 42.8 C 23.9 44.4 22.5 45.1 20.9 45.1 C 18.8 45.1 17.2 43.8 17.2 41.2 C 17.18 41.16 17.2 33.7 17.2 33.7 L 18.7 33.7 C 18.7 33.7 18.71 40.97 18.7 41 C 18.7 42.8 19.7 43.8 21.2 43.8 C 23 43.8 24.6 42.4 24.6 39.5 C 24.63 39.54 24.6 33.7 24.6 33.7 L 26.2 33.7 L 26.2 45 L 24.7 45 Z M 34.7 45 C 34.7 45 33.01 44.98 33 45 C 31.5 45 30.2 44.5 30.2 42 C 30.18 42.02 30.2 35.1 30.2 35.1 L 28 35.1 L 28 33.7 L 30.2 33.7 L 30.2 30.5 L 31.7 30.1 L 31.7 33.7 L 34.4 33.7 L 34.4 35.1 L 31.7 35.1 C 31.7 35.1 31.71 42 31.7 42 C 31.7 43 32 43.6 33.3 43.6 C 33.26 43.6 34.7 43.6 34.7 43.6 L 34.7 45 Z M 36.1 39.4 C 36.1 35.7 38.4 33.5 41.5 33.5 C 44.6 33.5 46.8 35.7 46.8 39.4 C 46.8 43 44.6 45.2 41.5 45.2 C 38.4 45.2 36.1 43 36.1 39.4 Z M 45.3 39.3 C 45.3 36.5 43.6 34.9 41.5 34.9 C 39.2 34.9 37.7 36.6 37.7 39.4 C 37.7 42.2 39.4 43.8 41.5 43.8 C 43.7 43.8 45.3 42.1 45.3 39.3 Z M 49.5 33.7 L 51 33.7 C 51 33.7 50.97 35.57 51 35.6 C 51.6 34.2 52.8 33.5 54.2 33.5 C 55.9 33.5 57.2 34.4 57.6 35.8 C 58.1 34.6 59.3 33.5 61.3 33.5 C 63.3 33.5 64.9 34.6 64.9 36.9 C 64.93 36.9 64.9 45 64.9 45 L 63.4 45 C 63.4 45 63.4 37.44 63.4 37.4 C 63.4 35.7 62.3 34.9 61 34.9 C 59.3 34.9 57.9 36.2 57.9 38.5 C 57.94 38.53 57.9 45 57.9 45 L 56.4 45 C 56.4 45 56.43 37.44 56.4 37.4 C 56.4 35.7 55.4 34.9 54.1 34.9 C 52.4 34.9 51 36.1 51 38.5 C 50.99 38.53 51 45 51 45 L 49.5 45 L 49.5 33.7 Z M 67.5 39.4 C 67.5 35.7 69.7 33.5 72.8 33.5 C 75.9 33.5 78.1 35.7 78.1 39.4 C 78.1 43 75.9 45.2 72.8 45.2 C 69.7 45.2 67.5 43 67.5 39.4 Z M 76.6 39.3 C 76.6 36.5 74.9 34.9 72.8 34.9 C 70.6 34.9 69 36.6 69 39.4 C 69 42.2 70.7 43.8 72.8 43.8 C 75 43.8 76.6 42.1 76.6 39.3 Z M 91.3 39.3 C 91.3 42.8 89.2 45.2 86.2 45.2 C 84.2 45.2 82.8 44.1 82.2 42.9 C 82.24 42.9 82.2 45 82.2 45 L 80.8 45 L 80.8 29 L 82.3 29 C 82.3 29 82.3 35.97 82.3 36 C 82.9 34.6 84.3 33.5 86.3 33.5 C 89.2 33.5 91.3 35.7 91.3 39.3 Z M 89.7 39.4 C 89.7 36.6 88.2 35 86.1 35 C 83.9 35 82.3 36.6 82.3 39.4 C 82.3 42.2 83.8 43.9 86 43.9 C 88.2 43.9 89.7 42.1 89.7 39.4 Z M 95.5 29 L 93.8 29 L 93.8 30.9 L 95.5 30.9 L 95.5 29 Z M 95.4 45 L 93.9 45 L 93.9 33.7 L 95.4 33.7 L 95.4 45 Z M 100.3 45 L 98.8 45 L 98.8 29 L 100.3 29 L 100.3 45 Z M 114.2 39.3 C 114.2 42.8 112.1 45.2 109.1 45.2 C 107.1 45.2 105.8 44.1 105.2 42.9 C 105.17 42.9 105.2 45 105.2 45 L 103.7 45 L 103.7 29 L 105.2 29 C 105.2 29 105.23 35.97 105.2 36 C 105.8 34.6 107.2 33.5 109.3 33.5 C 112.1 33.5 114.2 35.7 114.2 39.3 Z M 112.7 39.4 C 112.7 36.6 111.2 35 109 35 C 106.8 35 105.2 36.6 105.2 39.4 C 105.2 42.2 106.8 43.9 108.9 43.9 C 111.2 43.9 112.7 42.1 112.7 39.4 Z M 122.5 35 C 122.5 35 122.11 35.03 122.1 35 C 119.7 35 118.4 36.4 118.4 39 C 118.38 39 118.4 45 118.4 45 L 116.8 45 L 116.8 33.7 L 118.4 33.7 C 118.4 33.7 118.35 35.78 118.4 35.8 C 118.9 34.3 120.2 33.6 122 33.6 C 121.99 33.58 122.5 33.6 122.5 33.6 L 122.5 35 Z M 131.4 42.9 C 130.5 44.6 128.8 45.2 127.4 45.2 C 125.5 45.2 123.7 44.1 123.7 41.9 C 123.7 39.8 125.2 38.8 127.2 38.6 C 127.2 38.6 129.8 38.2 129.8 38.2 C 130.7 38.1 131.4 37.8 131.4 36.8 C 131.4 35.5 130.2 34.8 128.7 34.8 C 127 34.8 125.9 35.6 125.7 36.9 C 125.7 36.9 124.2 36.9 124.2 36.9 C 124.5 34.6 126.3 33.5 128.8 33.5 C 131.3 33.5 132.9 34.7 132.9 37.2 C 132.89 37.19 132.9 45 132.9 45 L 131.4 45 C 131.4 45 131.4 42.92 131.4 42.9 Z M 129.5 39.5 C 129.5 39.5 127.8 39.7 127.8 39.7 C 126.4 39.9 125.3 40.4 125.3 41.8 C 125.3 43.2 126.4 43.8 127.6 43.8 C 129.4 43.8 131.4 42.5 131.4 40.1 C 131.4 40.1 131.4 39 131.4 39 C 130.9 39.3 130.3 39.4 129.5 39.5 Z M 145.2 37.3 C 145.19 37.25 145.2 45 145.2 45 L 143.7 45 C 143.7 45 143.66 37.44 143.7 37.4 C 143.7 35.9 142.8 34.9 141.2 34.9 C 139.2 34.9 137.6 36.3 137.6 39.1 C 137.57 39.06 137.6 45 137.6 45 L 136 45 L 136 33.7 L 137.6 33.7 C 137.6 33.7 137.57 35.8 137.6 35.8 C 138.2 34.5 139.5 33.5 141.5 33.5 C 143.7 33.5 145.2 34.8 145.2 37.3 Z M 152.9 45.2 C 149.8 45.2 147.7 42.9 147.7 39.4 C 147.7 35.8 149.8 33.5 153.1 33.5 C 155.6 33.5 157.6 34.9 157.7 37.4 C 157.7 37.4 156.2 37.4 156.2 37.4 C 156.1 35.8 154.7 34.9 153 34.9 C 150.8 34.9 149.3 36.6 149.3 39.3 C 149.3 42.1 150.8 43.8 153 43.8 C 154.7 43.8 156.1 42.8 156.2 41 C 156.2 41 157.7 41 157.7 41 C 157.6 43.7 155.4 45.2 152.9 45.2 Z M 169.5 37.3 C 169.51 37.25 169.5 45 169.5 45 L 168 45 C 168 45 167.98 37.44 168 37.4 C 168 35.9 167.1 34.9 165.5 34.9 C 163.6 34.9 161.9 36.3 161.9 39.1 C 161.89 39.06 161.9 45 161.9 45 L 160.4 45 L 160.4 29 L 161.9 29 C 161.9 29 161.89 35.68 161.9 35.7 C 162.5 34.4 163.8 33.5 165.8 33.5 C 168.1 33.5 169.5 34.8 169.5 37.3 Z M 173.5 39.7 C 173.6 42.5 175.3 43.8 177.3 43.8 C 178.8 43.8 180.3 43.1 180.6 41.5 C 180.6 41.5 182 41.5 182 41.5 C 181.5 44.1 179.4 45.2 177.2 45.2 C 174.5 45.2 172 43.4 172 39.4 C 172 35.3 174.6 33.5 177.3 33.5 C 179.9 33.5 182.1 35.2 182.1 39 C 182.13 38.95 182.1 39.7 182.1 39.7 C 182.1 39.7 173.54 39.71 173.5 39.7 Z M 173.6 38.4 C 173.6 38.4 180.6 38.4 180.6 38.4 C 180.6 36.1 179.1 34.9 177.2 34.9 C 175.5 34.9 173.8 36 173.6 38.4 Z M 196.9 42.9 C 196.1 44.6 194.4 45.2 192.9 45.2 C 191 45.2 189.3 44.1 189.3 41.9 C 189.3 39.8 190.8 38.8 192.7 38.6 C 192.7 38.6 195.4 38.2 195.4 38.2 C 196.2 38.1 196.9 37.8 196.9 36.8 C 196.9 35.5 195.8 34.8 194.2 34.8 C 192.5 34.8 191.5 35.6 191.2 36.9 C 191.2 36.9 189.7 36.9 189.7 36.9 C 190 34.6 191.8 33.5 194.3 33.5 C 196.9 33.5 198.4 34.7 198.4 37.2 C 198.43 37.19 198.4 45 198.4 45 L 196.9 45 C 196.9 45 196.94 42.92 196.9 42.9 Z M 195.1 39.5 C 195.1 39.5 193.3 39.7 193.3 39.7 C 191.9 39.9 190.8 40.4 190.8 41.8 C 190.8 43.2 191.9 43.8 193.2 43.8 C 194.9 43.8 196.9 42.5 196.9 40.1 C 196.9 40.1 196.9 39 196.9 39 C 196.5 39.3 195.8 39.4 195.1 39.5 Z M 209 45 C 209 45 208.99 42.84 209 42.8 C 208.2 44.4 206.8 45.1 205.2 45.1 C 203.1 45.1 201.5 43.8 201.5 41.2 C 201.47 41.16 201.5 33.7 201.5 33.7 L 203 33.7 C 203 33.7 203 40.97 203 41 C 203 42.8 204 43.8 205.5 43.8 C 207.3 43.8 208.9 42.4 208.9 39.5 C 208.93 39.54 208.9 33.7 208.9 33.7 L 210.5 33.7 L 210.5 45 L 209 45 Z M 218.3 45.2 C 215.2 45.2 213.1 42.9 213.1 39.4 C 213.1 35.8 215.2 33.5 218.4 33.5 C 220.9 33.5 222.9 34.9 223.1 37.4 C 223.1 37.4 221.6 37.4 221.6 37.4 C 221.4 35.8 220.1 34.9 218.4 34.9 C 216.2 34.9 214.6 36.6 214.6 39.3 C 214.6 42.1 216.2 43.8 218.4 43.8 C 220.1 43.8 221.5 42.8 221.6 41 C 221.6 41 223.1 41 223.1 41 C 222.9 43.7 220.8 45.2 218.3 45.2 Z M 234.9 37.3 C 234.88 37.25 234.9 45 234.9 45 L 233.3 45 C 233.3 45 233.35 37.44 233.3 37.4 C 233.3 35.9 232.5 34.9 230.9 34.9 C 228.9 34.9 227.3 36.3 227.3 39.1 C 227.26 39.06 227.3 45 227.3 45 L 225.7 45 L 225.7 29 L 227.3 29 C 227.3 29 227.26 35.68 227.3 35.7 C 227.9 34.4 229.1 33.5 231.1 33.5 C 233.4 33.5 234.9 34.8 234.9 37.3 Z M 251.8 41.8 C 251.8 44.1 249.7 45.2 247.4 45.2 C 245 45.2 242.8 44 242.5 41.5 C 242.5 41.5 244.2 41.5 244.2 41.5 C 244.4 43.2 245.9 43.8 247.4 43.8 C 248.9 43.8 250.2 43.3 250.2 42 C 250.2 40.7 248.9 40.4 247.5 40.2 C 245.4 39.8 242.8 39.4 242.8 36.8 C 242.8 34.6 244.8 33.5 247.1 33.5 C 249.5 33.5 251.3 34.6 251.5 36.9 C 251.5 36.9 249.9 36.9 249.9 36.9 C 249.8 35.5 248.5 34.9 247 34.9 C 245.5 34.9 244.4 35.6 244.4 36.7 C 244.4 38.2 245.8 38.4 247.5 38.7 C 249.5 39 251.8 39.3 251.8 41.8 Z M 258.8 45.2 C 255.7 45.2 253.6 42.9 253.6 39.4 C 253.6 35.8 255.7 33.5 258.9 33.5 C 261.4 33.5 263.4 34.9 263.6 37.4 C 263.6 37.4 262.1 37.4 262.1 37.4 C 261.9 35.8 260.5 34.9 258.9 34.9 C 256.7 34.9 255.1 36.6 255.1 39.3 C 255.1 42.1 256.7 43.8 258.9 43.8 C 260.6 43.8 261.9 42.8 262.1 41 C 262.1 41 263.6 41 263.6 41 C 263.4 43.7 261.3 45.2 258.8 45.2 Z M 275.3 37.3 C 275.35 37.25 275.3 45 275.3 45 L 273.8 45 C 273.8 45 273.82 37.44 273.8 37.4 C 273.8 35.9 272.9 34.9 271.3 34.9 C 269.4 34.9 267.7 36.3 267.7 39.1 C 267.73 39.06 267.7 45 267.7 45 L 266.2 45 L 266.2 29 L 267.7 29 C 267.7 29 267.73 35.68 267.7 35.7 C 268.4 34.4 269.6 33.5 271.6 33.5 C 273.9 33.5 275.3 34.8 275.3 37.3 Z M 277.9 39.4 C 277.9 35.7 280.1 33.5 283.2 33.5 C 286.3 33.5 288.6 35.7 288.6 39.4 C 288.6 43 286.3 45.2 283.2 45.2 C 280.1 45.2 277.9 43 277.9 39.4 Z M 287 39.3 C 287 36.5 285.3 34.9 283.2 34.9 C 281 34.9 279.4 36.6 279.4 39.4 C 279.4 42.2 281.1 43.8 283.2 43.8 C 285.4 43.8 287 42.1 287 39.3 Z M 300.3 37.3 C 300.34 37.25 300.3 45 300.3 45 L 298.8 45 C 298.8 45 298.81 37.44 298.8 37.4 C 298.8 35.9 297.9 34.9 296.3 34.9 C 294.4 34.9 292.7 36.3 292.7 39.1 C 292.72 39.06 292.7 45 292.7 45 L 291.2 45 L 291.2 33.7 L 292.7 33.7 C 292.7 33.7 292.72 35.8 292.7 35.8 C 293.4 34.5 294.6 33.5 296.6 33.5 C 298.9 33.5 300.3 34.8 300.3 37.3 Z M 313.3 45 L 311.7 45 L 307.5 33.7 L 309.1 33.7 L 312.5 43.4 L 315.9 33.7 L 317.5 33.7 L 313.3 45 Z M 318.6 39.4 C 318.6 35.7 320.8 33.5 323.9 33.5 C 327 33.5 329.3 35.7 329.3 39.4 C 329.3 43 327 45.2 323.9 45.2 C 320.8 45.2 318.6 43 318.6 39.4 Z M 327.7 39.3 C 327.7 36.5 326 34.9 323.9 34.9 C 321.7 34.9 320.1 36.6 320.1 39.4 C 320.1 42.2 321.8 43.8 323.9 43.8 C 326.1 43.8 327.7 42.1 327.7 39.3 Z M 337.5 35 C 337.5 35 337.15 35.03 337.2 35 C 334.8 35 333.4 36.4 333.4 39 C 333.41 39 333.4 45 333.4 45 L 331.9 45 L 331.9 33.7 L 333.4 33.7 C 333.4 33.7 333.39 35.78 333.4 35.8 C 333.9 34.3 335.3 33.6 337 33.6 C 337.02 33.58 337.5 33.6 337.5 33.6 L 337.5 35 Z " stroke="none" fill="#000"/>  </g>  <g id="Polygon11547">    <path d="M 13 19.8 L 11.4 19.8 L 8.5 10.8 L 5.6 19.8 L 4.1 19.8 L 0.4 8.5 L 2 8.5 L 4.9 17.8 L 7.7 8.5 L 9.3 8.5 L 12.2 17.8 L 15.1 8.5 L 16.6 8.5 L 13 19.8 Z M 17.8 14.2 C 17.8 10.5 20 8.3 23.1 8.3 C 26.2 8.3 28.5 10.5 28.5 14.2 C 28.5 17.8 26.3 20 23.1 20 C 20 20 17.8 17.8 17.8 14.2 Z M 26.9 14.1 C 26.9 11.3 25.2 9.7 23.1 9.7 C 20.9 9.7 19.4 11.4 19.4 14.2 C 19.4 17 21.1 18.6 23.2 18.6 C 25.3 18.6 26.9 16.9 26.9 14.1 Z M 40.3 12.1 C 40.26 12.05 40.3 19.8 40.3 19.8 L 38.7 19.8 C 38.7 19.8 38.72 12.24 38.7 12.2 C 38.7 10.7 37.8 9.7 36.2 9.7 C 34.3 9.7 32.6 11.1 32.6 13.9 C 32.63 13.86 32.6 19.8 32.6 19.8 L 31.1 19.8 L 31.1 3.8 L 32.6 3.8 C 32.6 3.8 32.63 10.48 32.6 10.5 C 33.3 9.2 34.5 8.3 36.5 8.3 C 38.8 8.3 40.3 9.6 40.3 12.1 Z M 45.1 3.8 L 43.4 3.8 L 43.4 5.7 L 45.1 5.7 L 45.1 3.8 Z M 45 19.8 L 43.5 19.8 L 43.5 8.5 L 45 8.5 L 45 19.8 Z M 57.6 12.1 C 57.56 12.05 57.6 19.8 57.6 19.8 L 56 19.8 C 56 19.8 56.03 12.24 56 12.2 C 56 10.7 55.1 9.7 53.5 9.7 C 51.6 9.7 49.9 11.1 49.9 13.9 C 49.94 13.86 49.9 19.8 49.9 19.8 L 48.4 19.8 L 48.4 8.5 L 49.9 8.5 C 49.9 8.5 49.94 10.6 49.9 10.6 C 50.6 9.3 51.9 8.3 53.8 8.3 C 56.1 8.3 57.6 9.6 57.6 12.1 Z M 70.5 19.3 C 70.5 22.7 68.3 24.4 65.4 24.4 C 62.9 24.4 60.7 23.1 60.3 20.5 C 60.3 20.5 61.9 20.5 61.9 20.5 C 62.1 21.9 63.2 23.1 65.4 23.1 C 67.5 23.1 69 22 69 19.4 C 69 19.4 69 17.1 69 17.1 C 68.2 18.8 66.5 19.4 65.1 19.4 C 62.3 19.4 60.1 17.5 60.1 13.8 C 60.1 10.1 62.4 8.3 65.1 8.3 C 66.9 8.3 68.3 9.1 69 10.3 C 69.01 10.33 69 8.5 69 8.5 L 70.5 8.5 C 70.5 8.5 70.52 19.28 70.5 19.3 Z M 68.9 13.8 C 68.9 11 67.2 9.6 65.3 9.6 C 63.4 9.6 61.6 11 61.6 13.8 C 61.6 16.6 63.3 18 65.3 18 C 67.1 18 68.9 16.8 68.9 13.8 Z M 74.5 14.5 C 74.6 17.3 76.3 18.6 78.3 18.6 C 79.8 18.6 81.3 17.9 81.6 16.3 C 81.6 16.3 83.1 16.3 83.1 16.3 C 82.6 18.9 80.4 20 78.2 20 C 75.5 20 73 18.2 73 14.2 C 73 10.1 75.6 8.3 78.3 8.3 C 81 8.3 83.1 10 83.1 13.8 C 83.14 13.75 83.1 14.5 83.1 14.5 C 83.1 14.5 74.55 14.51 74.5 14.5 Z M 74.6 13.2 C 74.6 13.2 81.6 13.2 81.6 13.2 C 81.6 10.9 80.1 9.7 78.2 9.7 C 76.5 9.7 74.8 10.8 74.6 13.2 Z M 95.5 19.3 C 95.5 22.7 93.3 24.4 90.4 24.4 C 87.9 24.4 85.6 23.1 85.3 20.5 C 85.3 20.5 86.8 20.5 86.8 20.5 C 87.1 21.9 88.1 23.1 90.4 23.1 C 92.4 23.1 94 22 94 19.4 C 94 19.4 94 17.1 94 17.1 C 93.2 18.8 91.5 19.4 90 19.4 C 87.3 19.4 85 17.5 85 13.8 C 85 10.1 87.4 8.3 90.1 8.3 C 91.9 8.3 93.3 9.1 94 10.3 C 93.95 10.33 94 8.5 94 8.5 L 95.5 8.5 C 95.5 8.5 95.46 19.28 95.5 19.3 Z M 93.9 13.8 C 93.9 11 92.2 9.6 90.3 9.6 C 88.3 9.6 86.5 11 86.5 13.8 C 86.5 16.6 88.3 18 90.3 18 C 92.1 18 93.9 16.8 93.9 13.8 Z M 99.5 14.5 C 99.5 17.3 101.3 18.6 103.3 18.6 C 104.7 18.6 106.2 17.9 106.6 16.3 C 106.6 16.3 108 16.3 108 16.3 C 107.5 18.9 105.3 20 103.2 20 C 100.5 20 98 18.2 98 14.2 C 98 10.1 100.5 8.3 103.2 8.3 C 105.9 8.3 108.1 10 108.1 13.8 C 108.09 13.75 108.1 14.5 108.1 14.5 C 108.1 14.5 99.5 14.51 99.5 14.5 Z M 99.5 13.2 C 99.5 13.2 106.5 13.2 106.5 13.2 C 106.5 10.9 105.1 9.7 103.2 9.7 C 101.4 9.7 99.7 10.8 99.5 13.2 Z M 119.9 12.1 C 119.87 12.05 119.9 19.8 119.9 19.8 L 118.3 19.8 C 118.3 19.8 118.33 12.24 118.3 12.2 C 118.3 10.7 117.5 9.7 115.9 9.7 C 113.9 9.7 112.2 11.1 112.2 13.9 C 112.24 13.86 112.2 19.8 112.2 19.8 L 110.7 19.8 L 110.7 8.5 L 112.2 8.5 C 112.2 8.5 112.24 10.6 112.2 10.6 C 112.9 9.3 114.2 8.3 116.1 8.3 C 118.4 8.3 119.9 9.6 119.9 12.1 Z M 138.2 19.8 L 136.7 19.8 C 136.7 19.8 136.71 17.6 136.7 17.6 C 136.2 18.9 134.8 20 132.7 20 C 129.7 20 127.6 17.7 127.6 14.1 C 127.6 10.6 129.7 8.3 132.7 8.3 C 134.6 8.3 136 9.2 136.6 10.4 C 136.65 10.42 136.6 3.8 136.6 3.8 L 138.2 3.8 L 138.2 19.8 Z M 136.6 14.1 C 136.6 11.3 135.1 9.7 132.9 9.7 C 130.7 9.7 129.2 11.4 129.2 14.1 C 129.2 16.9 130.7 18.6 132.9 18.6 C 135.1 18.6 136.6 16.9 136.6 14.1 Z M 142.3 14.5 C 142.4 17.3 144.1 18.6 146.1 18.6 C 147.6 18.6 149 17.9 149.4 16.3 C 149.4 16.3 150.8 16.3 150.8 16.3 C 150.3 18.9 148.1 20 146 20 C 143.3 20 140.8 18.2 140.8 14.2 C 140.8 10.1 143.3 8.3 146.1 8.3 C 148.7 8.3 150.9 10 150.9 13.8 C 150.9 13.75 150.9 14.5 150.9 14.5 C 150.9 14.5 142.32 14.51 142.3 14.5 Z M 142.4 13.2 C 142.4 13.2 149.4 13.2 149.4 13.2 C 149.4 10.9 147.9 9.7 146 9.7 C 144.2 9.7 142.6 10.8 142.4 13.2 Z M 159.2 9.8 C 159.2 9.8 158.8 9.83 158.8 9.8 C 156.4 9.8 155.1 11.2 155.1 13.8 C 155.06 13.8 155.1 19.8 155.1 19.8 L 153.5 19.8 L 153.5 8.5 L 155 8.5 C 155 8.5 155.04 10.58 155 10.6 C 155.6 9.1 156.9 8.4 158.7 8.4 C 158.67 8.38 159.2 8.4 159.2 8.4 L 159.2 9.8 Z M 166.4 19.8 L 166.4 4 L 176.3 4 L 176.3 5.4 L 168 5.4 L 168 11.1 L 175.8 11.1 L 175.8 12.5 L 168 12.5 L 168 18.3 L 176.7 18.3 L 176.7 19.8 L 166.4 19.8 Z M 181 3.8 L 179.2 3.8 L 179.2 5.7 L 181 5.7 L 181 3.8 Z M 180.9 19.8 L 179.3 19.8 L 179.3 8.5 L 180.9 8.5 L 180.9 19.8 Z M 193.4 12.1 C 193.37 12.05 193.4 19.8 193.4 19.8 L 191.8 19.8 C 191.8 19.8 191.83 12.24 191.8 12.2 C 191.8 10.7 191 9.7 189.4 9.7 C 187.4 9.7 185.7 11.1 185.7 13.9 C 185.74 13.86 185.7 19.8 185.7 19.8 L 184.2 19.8 L 184.2 8.5 L 185.7 8.5 C 185.7 8.5 185.74 10.6 185.7 10.6 C 186.4 9.3 187.7 8.3 189.6 8.3 C 191.9 8.3 193.4 9.6 193.4 12.1 Z M 195.9 18.4 L 203 9.9 L 196 9.9 L 196 8.5 L 204.9 8.5 L 204.9 9.9 L 197.7 18.4 L 204.9 18.4 L 204.9 19.8 L 195.9 19.8 L 195.9 18.4 Z M 207.9 14.5 C 207.9 17.3 209.6 18.6 211.6 18.6 C 213.1 18.6 214.6 17.9 214.9 16.3 C 214.9 16.3 216.4 16.3 216.4 16.3 C 215.9 18.9 213.7 20 211.5 20 C 208.8 20 206.3 18.2 206.3 14.2 C 206.3 10.1 208.9 8.3 211.6 8.3 C 214.3 8.3 216.4 10 216.4 13.8 C 216.44 13.75 216.4 14.5 216.4 14.5 C 216.4 14.5 207.86 14.51 207.9 14.5 Z M 207.9 13.2 C 207.9 13.2 214.9 13.2 214.9 13.2 C 214.9 10.9 213.4 9.7 211.5 9.7 C 209.8 9.7 208.1 10.8 207.9 13.2 Z M 220.6 19.8 L 219.1 19.8 L 219.1 3.8 L 220.6 3.8 L 220.6 19.8 Z M 233.1 12.1 C 233.12 12.05 233.1 19.8 233.1 19.8 L 231.6 19.8 C 231.6 19.8 231.59 12.24 231.6 12.2 C 231.6 10.7 230.7 9.7 229.1 9.7 C 227.2 9.7 225.5 11.1 225.5 13.9 C 225.5 13.86 225.5 19.8 225.5 19.8 L 224 19.8 L 224 3.8 L 225.5 3.8 C 225.5 3.8 225.5 10.48 225.5 10.5 C 226.1 9.2 227.4 8.3 229.4 8.3 C 231.7 8.3 233.1 9.6 233.1 12.1 Z M 243.3 17.7 C 242.4 19.4 240.7 20 239.3 20 C 237.4 20 235.6 18.9 235.6 16.7 C 235.6 14.6 237.1 13.6 239.1 13.4 C 239.1 13.4 241.7 13 241.7 13 C 242.6 12.9 243.3 12.6 243.3 11.6 C 243.3 10.3 242.1 9.6 240.6 9.6 C 238.9 9.6 237.8 10.4 237.6 11.7 C 237.6 11.7 236.1 11.7 236.1 11.7 C 236.4 9.4 238.2 8.3 240.7 8.3 C 243.2 8.3 244.8 9.5 244.8 12 C 244.79 11.99 244.8 19.8 244.8 19.8 L 243.3 19.8 C 243.3 19.8 243.3 17.72 243.3 17.7 Z M 241.4 14.3 C 241.4 14.3 239.7 14.5 239.7 14.5 C 238.3 14.7 237.2 15.2 237.2 16.6 C 237.2 18 238.3 18.6 239.5 18.6 C 241.3 18.6 243.3 17.3 243.3 14.9 C 243.3 14.9 243.3 13.8 243.3 13.8 C 242.8 14.1 242.2 14.2 241.4 14.3 Z M 257.1 12.1 C 257.1 12.05 257.1 19.8 257.1 19.8 L 255.6 19.8 C 255.6 19.8 255.57 12.24 255.6 12.2 C 255.6 10.7 254.7 9.7 253.1 9.7 C 251.2 9.7 249.5 11.1 249.5 13.9 C 249.48 13.86 249.5 19.8 249.5 19.8 L 247.9 19.8 L 247.9 8.5 L 249.5 8.5 C 249.5 8.5 249.48 10.6 249.5 10.6 C 250.1 9.3 251.4 8.3 253.4 8.3 C 255.6 8.3 257.1 9.6 257.1 12.1 Z M 270.2 19.8 L 268.7 19.8 C 268.7 19.8 268.69 17.6 268.7 17.6 C 268.1 18.9 266.8 20 264.7 20 C 261.7 20 259.6 17.7 259.6 14.1 C 259.6 10.6 261.7 8.3 264.7 8.3 C 266.6 8.3 268 9.2 268.6 10.4 C 268.63 10.42 268.6 3.8 268.6 3.8 L 270.2 3.8 L 270.2 19.8 Z M 268.6 14.1 C 268.6 11.3 267.1 9.7 264.9 9.7 C 262.7 9.7 261.2 11.4 261.2 14.1 C 261.2 16.9 262.7 18.6 264.9 18.6 C 267.1 18.6 268.6 16.9 268.6 14.1 Z M 274.3 14.5 C 274.3 17.3 276.1 18.6 278.1 18.6 C 279.5 18.6 281 17.9 281.4 16.3 C 281.4 16.3 282.8 16.3 282.8 16.3 C 282.3 18.9 280.1 20 278 20 C 275.3 20 272.8 18.2 272.8 14.2 C 272.8 10.1 275.3 8.3 278 8.3 C 280.7 8.3 282.9 10 282.9 13.8 C 282.89 13.75 282.9 14.5 282.9 14.5 C 282.9 14.5 274.3 14.51 274.3 14.5 Z M 274.3 13.2 C 274.3 13.2 281.3 13.2 281.3 13.2 C 281.3 10.9 279.9 9.7 278 9.7 C 276.2 9.7 274.6 10.8 274.3 13.2 Z M 287 19.8 L 285.5 19.8 L 285.5 3.8 L 287 3.8 L 287 19.8 Z M 303.5 19.8 C 303.5 19.8 303.49 17.64 303.5 17.6 C 302.7 19.2 301.3 19.9 299.7 19.9 C 297.6 19.9 296 18.6 296 16 C 295.97 15.96 296 8.5 296 8.5 L 297.5 8.5 C 297.5 8.5 297.5 15.77 297.5 15.8 C 297.5 17.6 298.5 18.6 300 18.6 C 301.8 18.6 303.4 17.2 303.4 14.3 C 303.43 14.34 303.4 8.5 303.4 8.5 L 305 8.5 L 305 19.8 L 303.5 19.8 Z M 317.5 12.1 C 317.47 12.05 317.5 19.8 317.5 19.8 L 315.9 19.8 C 315.9 19.8 315.94 12.24 315.9 12.2 C 315.9 10.7 315.1 9.7 313.5 9.7 C 311.5 9.7 309.9 11.1 309.9 13.9 C 309.85 13.86 309.9 19.8 309.9 19.8 L 308.3 19.8 L 308.3 8.5 L 309.9 8.5 C 309.9 8.5 309.85 10.6 309.9 10.6 C 310.5 9.3 311.8 8.3 313.8 8.3 C 316 8.3 317.5 9.6 317.5 12.1 Z M 330.5 19.8 L 329.1 19.8 C 329.1 19.8 329.07 17.6 329.1 17.6 C 328.5 18.9 327.2 20 325.1 20 C 322.1 20 320 17.7 320 14.1 C 320 10.6 322.1 8.3 325.1 8.3 C 327 8.3 328.4 9.2 329 10.4 C 329 10.42 329 3.8 329 3.8 L 330.5 3.8 L 330.5 19.8 Z M 329 14.1 C 329 11.3 327.4 9.7 325.3 9.7 C 323.1 9.7 321.6 11.4 321.6 14.1 C 321.6 16.9 323.1 18.6 325.3 18.6 C 327.4 18.6 329 16.9 329 14.1 Z M 349 19.8 L 347.5 19.8 C 347.5 19.8 347.48 17.6 347.5 17.6 C 346.9 18.9 345.6 20 343.5 20 C 340.5 20 338.4 17.7 338.4 14.1 C 338.4 10.6 340.5 8.3 343.5 8.3 C 345.4 8.3 346.8 9.2 347.4 10.4 C 347.42 10.42 347.4 3.8 347.4 3.8 L 349 3.8 L 349 19.8 Z M 347.4 14.1 C 347.4 11.3 345.8 9.7 343.7 9.7 C 341.5 9.7 340 11.4 340 14.1 C 340 16.9 341.5 18.6 343.7 18.6 C 345.9 18.6 347.4 16.9 347.4 14.1 Z M 354 3.8 L 352.2 3.8 L 352.2 5.7 L 354 5.7 L 354 3.8 Z M 353.8 19.8 L 352.3 19.8 L 352.3 8.5 L 353.8 8.5 L 353.8 19.8 Z M 358 14.5 C 358 17.3 359.7 18.6 361.7 18.6 C 363.2 18.6 364.7 17.9 365 16.3 C 365 16.3 366.5 16.3 366.5 16.3 C 366 18.9 363.8 20 361.7 20 C 359 20 356.5 18.2 356.5 14.2 C 356.5 10.1 359 8.3 361.7 8.3 C 364.4 8.3 366.6 10 366.6 13.8 C 366.57 13.75 366.6 14.5 366.6 14.5 C 366.6 14.5 357.98 14.51 358 14.5 Z M 358 13.2 C 358 13.2 365 13.2 365 13.2 C 365 10.9 363.5 9.7 361.7 9.7 C 359.9 9.7 358.2 10.8 358 13.2 Z " stroke="none" fill="#000"/>  </g></svg>