<?xml version="1.0" standalone="no"?><!DOCTYPE svg PUBLIC "-//W3C//DTD SVG 1.1//EN" "http://www.w3.org/Graphics/SVG/1.1/DTD/svg11.dtd"><svg xmlns="http://www.w3.org/2000/svg" version="1.1" width="504px" height="430.4px" viewBox="0 -4 504 430.4" style="top:-4px"><desc>How do you factor in ESG criteria for EM countries Simon: ESG is (and will become even more of) a key criterion in t</desc><defs/><g id="Polygon11002"><path d="m3.3 396.6H1.6v1.9h1.7v-1.9zm-.1 16H1.7v-11.3h1.5v11.3zm3.4-11.3h1.5s-.02 1.87 0 1.9c.6-1.4 1.8-2.1 3.3-2.1c1.6 0 2.9.9 3.3 2.3c.5-1.2 1.7-2.3 3.7-2.3c2 0 3.6 1.1 3.6 3.4c.05 0 0 8.1 0 8.1h-1.5s.02-7.56 0-7.6c0-1.7-1.1-2.5-2.4-2.5c-1.7 0-3 1.3-3 3.6c-.04.03 0 6.5 0 6.5h-1.6s.04-7.56 0-7.6c0-1.7-1-2.5-2.3-2.5c-1.7 0-3.1 1.2-3.1 3.6v6.5H6.6v-11.3zm29.2 5.6c0 4.1-2.6 5.8-5.1 5.8c-2 0-3.2-.9-3.9-2.1c.04.03 0 6.3 0 6.3h-1.5v-15.6h1.5v2.4c.5-1.4 2-2.6 4-2.6c2.5 0 5 1.7 5 5.8zm-1.5 0c0-3.1-1.8-4.3-3.7-4.3c-1.9 0-3.7 1.2-3.7 4.4c0 3.1 1.8 4.3 3.7 4.3c1.8 0 3.7-1.2 3.7-4.4zm5.7 5.7h-1.5v-16h1.5v16zm4.1-5.3c.1 2.8 1.8 4.1 3.8 4.1c1.5 0 2.9-.7 3.3-2.3h1.4c-.5 2.6-2.7 3.7-4.8 3.7c-2.7 0-5.2-1.8-5.2-5.8c0-4.1 2.5-5.9 5.3-5.9c2.6 0 4.8 1.7 4.8 5.5v.7h-8.6zm.1-1.3h7c0-2.3-1.5-3.5-3.4-3.5c-1.8 0-3.4 1.1-3.6 3.5zm11.1-4.7h1.5s.05 1.87 0 1.9c.7-1.4 1.9-2.1 3.3-2.1c1.7 0 3 .9 3.4 2.3c.5-1.2 1.7-2.3 3.7-2.3c2 0 3.6 1.1 3.6 3.4v8.1h-1.5s-.02-7.56 0-7.6c0-1.7-1.1-2.5-2.4-2.5c-1.7 0-3.1 1.3-3.1 3.6c.02.03 0 6.5 0 6.5h-1.5V405c0-1.7-1-2.5-2.4-2.5c-1.6 0-3 1.2-3 3.6c-.03.03 0 6.5 0 6.5h-1.6v-11.3zm19.5 6c.1 2.8 1.8 4.1 3.8 4.1c1.5 0 3-.7 3.3-2.3h1.4c-.5 2.6-2.6 3.7-4.8 3.7c-2.7 0-5.2-1.8-5.2-5.8c0-4.1 2.6-5.9 5.3-5.9c2.6 0 4.8 1.7 4.8 5.5c.03-.05 0 .7 0 .7h-8.6zm.1-1.3h7c0-2.3-1.5-3.5-3.4-3.5c-1.7 0-3.4 1.1-3.6 3.5zm20.3-1.1v7.7h-1.5s-.02-7.56 0-7.6c0-1.5-.9-2.5-2.5-2.5c-1.9 0-3.6 1.4-3.6 4.2v5.9h-1.5v-11.3h1.5v2.1c.7-1.3 1.9-2.3 3.9-2.3c2.2 0 3.7 1.3 3.7 3.8zm8.4 7.7s-1.65-.02-1.6 0c-1.5 0-2.9-.5-2.9-3c.02.02 0-6.9 0-6.9h-2.2v-1.4h2.2v-3.2l1.6-.4v3.6h2.7v1.4h-2.7s-.05 6.9 0 6.9c0 1 .2 1.6 1.5 1.6h1.4v1.4zm3.9-16h-1.8v1.9h1.8v-1.9zm-.1 16h-1.6v-11.3h1.6v11.3zm12.5-7.7c-.03-.05 0 7.7 0 7.7h-1.6s.03-7.56 0-7.6c0-1.5-.8-2.5-2.4-2.5c-2 0-3.7 1.4-3.7 4.2c.04-.04 0 5.9 0 5.9h-1.5v-11.3h1.5s.04 2.1 0 2.1c.7-1.3 2-2.3 3.9-2.3c2.3 0 3.8 1.3 3.8 3.8zm12.9 7.2c0 3.4-2.2 5.1-5.1 5.1c-2.5 0-4.7-1.3-5.1-3.9h1.6c.2 1.4 1.3 2.6 3.5 2.6c2.1 0 3.7-1.1 3.7-3.7v-2.3c-.9 1.7-2.6 2.3-4 2.3c-2.8 0-5-1.9-5-5.6c0-3.7 2.3-5.5 5-5.5c1.9 0 3.2.8 3.9 2c.01.03 0-1.8 0-1.8h1.5s.02 10.78 0 10.8zm-1.6-5.5c0-2.8-1.7-4.2-3.6-4.2c-1.9 0-3.7 1.4-3.7 4.2c0 2.8 1.7 4.2 3.7 4.2c1.8 0 3.6-1.2 3.6-4.2zm10.8 6v-15.8h9.8v1.4h-8.2v5.7h7.7v1.4h-7.7v5.8h8.6v1.5H142zm18.1.4c-3.3 0-6-2-6.1-5.4h1.8c0 2.7 2.2 3.9 4.4 3.9c2.1 0 3.7-1.1 3.7-2.9c0-2.1-2.2-2.6-4.3-3.1c-2.5-.7-5-1.5-5-4.6c0-2.9 2.2-4.4 5.2-4.4c2.8 0 5.3 1.3 5.4 4.4h-1.7c0-2.1-1.8-3-3.7-3c-2 0-3.6 1-3.6 3c0 2.1 1.8 2.6 4 3.2c2.6.6 5.3 1.3 5.3 4.4c0 2.9-2.5 4.5-5.4 4.5zm21.6-8.3v7.9h-1.5s.04-2.37 0-2.4c-.8 1.6-2.7 2.8-5.3 2.8c-4.7 0-7.2-3.9-7.2-8.4c0-4.9 3.1-8.1 7.5-8.1c3.2 0 6.2 1.7 6.5 5.1H180c-.3-2.3-2.3-3.7-4.8-3.7c-3.3 0-5.8 2.6-5.8 6.7c0 3.7 1.9 6.9 5.7 6.9c3 0 5.1-2 5.1-5.4c0 .03-5.3 0-5.3 0v-1.4h6.8zm10.8-8.1h-1.8v1.9h1.8v-1.9zm-.1 16h-1.6v-11.3h1.6v11.3zm12.5-7.7v7.7h-1.5s-.04-7.56 0-7.6c0-1.5-.9-2.5-2.5-2.5c-1.9 0-3.6 1.4-3.6 4.2c-.03-.04 0 5.9 0 5.9h-1.6v-11.3h1.6s-.03 2.1 0 2.1c.6-1.3 1.9-2.3 3.9-2.3c2.2 0 3.7 1.3 3.7 3.8zm8.4 7.7s-1.67-.02-1.7 0c-1.5 0-2.8-.5-2.8-3v-6.9h-2.2v-1.4h2.2v-3.2l1.5-.4v3.6h2.8v1.4h-2.8s.03 6.9 0 6.9c0 1 .3 1.6 1.6 1.6h1.4v1.4zm1.5-5.6c0-3.7 2.2-5.9 5.3-5.9c3.1 0 5.4 2.2 5.4 5.9c0 3.6-2.3 5.8-5.4 5.8c-3.1 0-5.3-2.2-5.3-5.8zm9.1-.1c0-2.8-1.7-4.4-3.8-4.4c-2.2 0-3.8 1.7-3.8 4.5c0 2.8 1.7 4.4 3.8 4.4c2.2 0 3.8-1.7 3.8-4.5zm14.4 5.7s-1.7-.02-1.7 0c-1.5 0-2.8-.5-2.8-3c-.03.02 0-6.9 0-6.9h-2.3v-1.4h2.3v-3.2l1.5-.4v3.6h2.7v1.4h-2.7v6.9c0 1 .3 1.6 1.6 1.6h1.4v1.4zm11.3-7.7c.02-.05 0 7.7 0 7.7h-1.5V405c0-1.5-.9-2.5-2.5-2.5c-1.9 0-3.6 1.4-3.6 4.2v5.9h-1.5v-16h1.5v6.7c.7-1.3 1.9-2.2 3.9-2.2c2.3 0 3.7 1.3 3.7 3.8zm4.1 2.4c0 2.8 1.7 4.1 3.7 4.1c1.5 0 3-.7 3.3-2.3h1.5c-.5 2.6-2.7 3.7-4.9 3.7c-2.7 0-5.2-1.8-5.2-5.8c0-4.1 2.6-5.9 5.3-5.9c2.7 0 4.8 1.7 4.8 5.5c.04-.05 0 .7 0 .7c0 0-8.54.01-8.5 0zm0-1.3h7c0-2.3-1.5-3.5-3.4-3.5c-1.7 0-3.4 1.1-3.6 3.5zm12.8-9.4h-1.7v1.9h1.7v-1.9zm-.1 16h-1.5v-11.3h1.5v11.3zm9-10s-.37.03-.4 0c-2.4 0-3.7 1.4-3.7 4v6h-1.5v-11.3h1.5s-.03 2.08 0 2.1c.5-1.5 1.9-2.2 3.6-2.2c.01-.02.5 0 .5 0v1.4zm16.4 10h-1.5s.04-2.2 0-2.2c-.5 1.3-1.9 2.4-4 2.4c-2.9 0-5-2.3-5-5.9c0-3.5 2.1-5.8 5.1-5.8c1.9 0 3.3.9 3.9 2.1c-.02.02 0-6.6 0-6.6h1.5v16zm-1.5-5.7c0-2.8-1.6-4.4-3.8-4.4c-2.2 0-3.7 1.7-3.7 4.4c0 2.8 1.6 4.5 3.7 4.5c2.2 0 3.8-1.7 3.8-4.5zm11.8 3.6c-.9 1.7-2.6 2.3-4 2.3c-1.9 0-3.7-1.1-3.7-3.3c0-2.1 1.5-3.1 3.5-3.3l2.6-.4c.9-.1 1.6-.4 1.6-1.4c0-1.3-1.2-2-2.7-2c-1.7 0-2.8.8-3 2.1h-1.5c.3-2.3 2.1-3.4 4.6-3.4c2.5 0 4.1 1.2 4.1 3.7v7.8h-1.5v-2.1zm-1.9-3.4l-1.7.2c-1.4.2-2.5.7-2.5 2.1c0 1.4 1.1 2 2.3 2c1.8 0 3.8-1.3 3.8-3.7v-1.1c-.5.3-1.1.4-1.9.5zm8.2-10.5h-1.8v1.9h1.8v-1.9zm-.1 16h-1.6v-11.3h1.6v11.3zm4.9 0h-1.6v-16h1.6v16zm6.6 2.1c-.4 1.2-1.4 1.6-2.6 1.6c.04-.02-1.1 0-1.1 0v-1.4s.93.01.9 0c1 0 1.5-.3 1.8-1.3c.04-.01.6-1.5.6-1.5l-4.2-10.8h1.6l3.3 8.9l3.3-8.9h1.5s-5.05 13.42-5.1 13.4zM331 407c0-3.7 2.3-5.9 5.4-5.9c3.1 0 5.3 2.2 5.3 5.9c0 3.6-2.2 5.8-5.3 5.8c-3.1 0-5.4-2.2-5.4-5.8zm9.2-.1c0-2.8-1.7-4.4-3.8-4.4c-2.3 0-3.8 1.7-3.8 4.5c0 2.8 1.7 4.4 3.8 4.4c2.2 0 3.8-1.7 3.8-4.5zm14.7 0c0 4.1-2.6 5.8-5.2 5.8c-1.9 0-3.2-.9-3.8-2.1v6.3h-1.5v-15.6h1.4s.04 2.38 0 2.4c.5-1.4 2-2.6 4.1-2.6c2.4 0 5 1.7 5 5.8zm-1.6 0c0-3.1-1.8-4.3-3.7-4.3c-1.8 0-3.7 1.2-3.7 4.4c0 3.1 1.8 4.3 3.7 4.3c1.9 0 3.7-1.2 3.7-4.4zm5 .4c0 2.8 1.7 4.1 3.7 4.1c1.5 0 3-.7 3.3-2.3h1.5c-.5 2.6-2.7 3.7-4.8 3.7c-2.7 0-5.2-1.8-5.2-5.8c0-4.1 2.5-5.9 5.2-5.9c2.7 0 4.9 1.7 4.9 5.5c-.04-.05 0 .7 0 .7h-8.6zm0-1.3h7c0-2.3-1.5-3.5-3.3-3.5c-1.8 0-3.5 1.1-3.7 3.5zm16.8-3.4s-.34.03-.3 0c-2.4 0-3.8 1.4-3.8 4c.02 0 0 6 0 6h-1.5v-11.3h1.5v2.1c.5-1.5 1.9-2.2 3.6-2.2c.03-.02.5 0 .5 0v1.4zm8.9 7.9c-.8 1.7-2.5 2.3-4 2.3c-1.9 0-3.6-1.1-3.6-3.3c0-2.1 1.5-3.1 3.4-3.3l2.7-.4c.8-.1 1.5-.4 1.5-1.4c0-1.3-1.1-2-2.7-2c-1.7 0-2.7.8-2.9 2.1h-1.6c.3-2.3 2.1-3.4 4.6-3.4c2.6 0 4.1 1.2 4.1 3.7c.03-.01 0 7.8 0 7.8H384s.04-2.08 0-2.1zm-1.8-3.4l-1.7.2c-1.5.2-2.5.7-2.5 2.1c0 1.4 1 2 2.3 2c1.7 0 3.7-1.3 3.7-3.7v-1.1c-.4.3-1.1.4-1.8.5zm11.6 5.5s-1.63-.02-1.6 0c-1.5 0-2.9-.5-2.9-3c.03.02 0-6.9 0-6.9h-2.2v-1.4h2.2v-3.2l1.6-.4v3.6h2.7v1.4h-2.7s-.03 6.9 0 6.9c0 1 .3 1.6 1.5 1.6h1.4v1.4zm3.9-16h-1.8v1.9h1.8v-1.9zm-.1 16H396v-11.3h1.6v11.3zm2.6-5.6c0-3.7 2.2-5.9 5.3-5.9c3.1 0 5.4 2.2 5.4 5.9c0 3.6-2.2 5.8-5.4 5.8c-3.1 0-5.3-2.2-5.3-5.8zm9.1-.1c0-2.8-1.7-4.4-3.8-4.4c-2.2 0-3.7 1.7-3.7 4.5c0 2.8 1.7 4.4 3.8 4.4c2.2 0 3.7-1.7 3.7-4.5zm13.4-2c-.04-.05 0 7.7 0 7.7h-1.6s.03-7.56 0-7.6c0-1.5-.9-2.5-2.4-2.5c-2 0-3.7 1.4-3.7 4.2c.04-.04 0 5.9 0 5.9h-1.5v-11.3h1.5s.04 2.1 0 2.1c.7-1.3 2-2.3 3.9-2.3c2.3 0 3.8 1.3 3.8 3.8zm11.6 4.5c0 2.3-2.1 3.4-4.4 3.4c-2.4 0-4.6-1.2-4.8-3.7h1.6c.3 1.7 1.7 2.3 3.3 2.3c1.4 0 2.7-.5 2.7-1.8c0-1.3-1.3-1.6-2.6-1.8c-2.2-.4-4.8-.8-4.8-3.4c0-2.2 2-3.3 4.3-3.3c2.4 0 4.3 1.1 4.4 3.4h-1.6c-.1-1.4-1.4-2-2.9-2c-1.5 0-2.6.7-2.6 1.8c0 1.5 1.4 1.7 3.1 2c2 .3 4.3.6 4.3 3.1zm1.8 1h2.1v2.2h-2.1v-2.2z" stroke="none" fill="#fff"/></g><g id="Polygon11001"><path d="m8.6 385.3c-.9 1.7-2.6 2.3-4 2.3c-1.9 0-3.7-1.1-3.7-3.3c0-2.1 1.5-3.1 3.5-3.3l2.6-.4c.9-.1 1.6-.4 1.6-1.4c0-1.3-1.1-2-2.7-2c-1.7 0-2.8.8-3 2.1H1.4c.3-2.3 2.1-3.4 4.6-3.4c2.5 0 4.1 1.2 4.1 3.7v7.8H8.6v-2.1zm-1.9-3.4l-1.7.2c-1.4.2-2.5.7-2.5 2.1c0 1.4 1.1 2 2.4 2c1.7 0 3.7-1.3 3.7-3.7v-1.1c-.5.3-1.1.4-1.9.5zm15.7-2.2v7.7h-1.5s-.03-7.56 0-7.6c0-1.5-.9-2.5-2.5-2.5c-1.9 0-3.6 1.4-3.6 4.2c-.02-.04 0 5.9 0 5.9h-1.5v-11.3h1.5s-.02 2.1 0 2.1c.7-1.3 1.9-2.3 3.9-2.3c2.2 0 3.7 1.3 3.7 3.8zm13.1 7.7H34v-2.2c-.5 1.3-1.9 2.4-4 2.4c-3 0-5.1-2.3-5.1-5.9c0-3.5 2.1-5.8 5.1-5.8c1.9 0 3.3.9 3.9 2.1c.04.02 0-6.6 0-6.6h1.6v16zm-1.6-5.7c0-2.8-1.5-4.4-3.7-4.4c-2.2 0-3.7 1.7-3.7 4.4c0 2.8 1.5 4.5 3.7 4.5c2.2 0 3.7-1.7 3.7-4.5zm17.5 3.6c-.9 1.7-2.6 2.3-4 2.3c-1.9 0-3.6-1.1-3.6-3.3c0-2.1 1.5-3.1 3.4-3.3l2.7-.4c.8-.1 1.5-.4 1.5-1.4c0-1.3-1.1-2-2.7-2c-1.7 0-2.7.8-3 2.1h-1.5c.3-2.3 2.1-3.4 4.6-3.4c2.6 0 4.1 1.2 4.1 3.7c.02-.01 0 7.8 0 7.8h-1.5s.03-2.08 0-2.1zm-1.8-3.4l-1.8.2c-1.4.2-2.5.7-2.5 2.1c0 1.4 1.1 2 2.4 2c1.7 0 3.7-1.3 3.7-3.7v-1.1c-.4.3-1.1.4-1.8.5zm14.8 2.3c0 2.3-2 3.4-4.3 3.4c-2.4 0-4.6-1.2-4.9-3.7h1.7c.2 1.7 1.7 2.3 3.2 2.3c1.5 0 2.8-.5 2.8-1.8c0-1.3-1.3-1.6-2.7-1.8c-2.1-.4-4.7-.8-4.7-3.4c0-2.2 1.9-3.3 4.2-3.3c2.4 0 4.3 1.1 4.5 3.4h-1.6c-.1-1.4-1.4-2-2.9-2c-1.6 0-2.6.7-2.6 1.8c0 1.5 1.4 1.7 3.1 2c2 .3 4.2.6 4.2 3.1zm10.9 0c0 2.3-2 3.4-4.3 3.4c-2.4 0-4.6-1.2-4.9-3.7h1.7c.2 1.7 1.7 2.3 3.2 2.3c1.5 0 2.8-.5 2.8-1.8c0-1.3-1.4-1.6-2.7-1.8c-2.1-.4-4.7-.8-4.7-3.4c0-2.2 1.9-3.3 4.2-3.3c2.4 0 4.3 1.1 4.5 3.4h-1.6c-.1-1.4-1.4-2-2.9-2c-1.6 0-2.6.7-2.6 1.8c0 1.5 1.4 1.7 3.1 2c2 .3 4.2.6 4.2 3.1zm3.3-2.1c.1 2.8 1.8 4.1 3.8 4.1c1.5 0 3-.7 3.3-2.3h1.4c-.5 2.6-2.6 3.7-4.8 3.7c-2.7 0-5.2-1.8-5.2-5.8c0-4.1 2.6-5.9 5.3-5.9c2.6 0 4.8 1.7 4.8 5.5c.03-.05 0 .7 0 .7h-8.6zm.1-1.3h7c0-2.3-1.5-3.5-3.4-3.5c-1.7 0-3.4 1.1-3.6 3.5zm19.5 3.4c0 2.3-2 3.4-4.3 3.4c-2.4 0-4.7-1.2-4.9-3.7h1.7c.2 1.7 1.7 2.3 3.2 2.3c1.5 0 2.7-.5 2.7-1.8c0-1.3-1.3-1.6-2.6-1.8c-2.1-.4-4.7-.8-4.7-3.4c0-2.2 1.9-3.3 4.2-3.3c2.4 0 4.3 1.1 4.4 3.4h-1.6c-.1-1.4-1.4-2-2.8-2c-1.6 0-2.6.7-2.6 1.8c0 1.5 1.4 1.7 3.1 2c2 .3 4.2.6 4.2 3.1zm10.9 0c0 2.3-2 3.4-4.3 3.4c-2.4 0-4.7-1.2-4.9-3.7h1.7c.2 1.7 1.7 2.3 3.2 2.3c1.5 0 2.7-.5 2.7-1.8c0-1.3-1.3-1.6-2.6-1.8c-2.1-.4-4.7-.8-4.7-3.4c0-2.2 1.9-3.3 4.2-3.3c2.4 0 4.3 1.1 4.4 3.4h-1.6c-.1-1.4-1.4-2-2.8-2c-1.6 0-2.6.7-2.6 1.8c0 1.5 1.4 1.7 3.1 2c2 .3 4.2.6 4.2 3.1zm17-4.5c-.04-.05 0 7.7 0 7.7h-1.6s.03-7.56 0-7.6c0-1.5-.9-2.5-2.4-2.5c-2 0-3.7 1.4-3.7 4.2c.04-.04 0 5.9 0 5.9h-1.5v-16h1.5s.04 6.68 0 6.7c.7-1.3 1.9-2.2 3.9-2.2c2.3 0 3.8 1.3 3.8 3.8zm2.5 2.1c0-3.7 2.2-5.9 5.3-5.9c3.1 0 5.4 2.2 5.4 5.9c0 3.6-2.3 5.8-5.4 5.8c-3.1 0-5.3-2.2-5.3-5.8zm9.1-.1c0-2.8-1.7-4.4-3.8-4.4c-2.2 0-3.7 1.7-3.7 4.5c0 2.8 1.7 4.4 3.8 4.4c2.1 0 3.7-1.7 3.7-4.5zm15.3 5.7h-1.5l-3-9l-2.9 9h-1.5l-3.7-11.3h1.6l2.9 9.3l2.9-9.3h1.5l2.9 9.3l2.9-9.3h1.5l-3.6 11.3zm21.8 0h-1.5l-2.9-9l-2.9 9H166l-3.7-11.3h1.6l2.9 9.3l2.8-9.3h1.6l2.9 9.3l2.8-9.3h1.6l-3.7 11.3zm6.4-5.3c0 2.8 1.8 4.1 3.7 4.1c1.5 0 3-.7 3.3-2.3h1.5c-.5 2.6-2.7 3.7-4.8 3.7c-2.7 0-5.2-1.8-5.2-5.8c0-4.1 2.5-5.9 5.2-5.9c2.7 0 4.9 1.7 4.9 5.5c-.02-.05 0 .7 0 .7h-8.6zm0-1.3h7c0-2.3-1.4-3.5-3.3-3.5c-1.8 0-3.5 1.1-3.7 3.5zm12.7 6.6h-1.5v-16h1.5v16zm4.9 0h-1.5v-16h1.5v16zm13.1.2c-3.1 0-5.2-2.3-5.2-5.8c0-3.6 2.1-5.9 5.4-5.9c2.5 0 4.5 1.4 4.6 3.9h-1.5c-.1-1.6-1.5-2.5-3.2-2.5c-2.2 0-3.7 1.7-3.7 4.4c0 2.8 1.5 4.5 3.7 4.5c1.7 0 3.1-1 3.2-2.8h1.5c-.1 2.7-2.3 4.2-4.8 4.2zm6.7-5.8c0-3.7 2.2-5.9 5.3-5.9c3.2 0 5.4 2.2 5.4 5.9c0 3.6-2.2 5.8-5.3 5.8c-3.1 0-5.4-2.2-5.4-5.8zm9.1-.1c0-2.8-1.7-4.4-3.8-4.4c-2.2 0-3.7 1.7-3.7 4.5c0 2.8 1.7 4.4 3.8 4.4c2.2 0 3.7-1.7 3.7-4.5zm11.6 5.7s.04-2.16 0-2.2c-.7 1.6-2.1 2.3-3.7 2.3c-2.1 0-3.8-1.3-3.8-3.9c.02-.04 0-7.5 0-7.5h1.6s-.05 7.27 0 7.3c0 1.8 1 2.8 2.4 2.8c1.9 0 3.5-1.4 3.5-4.3c-.03.04 0-5.8 0-5.8h1.5v11.3h-1.5zm14-7.7c.02-.05 0 7.7 0 7.7h-1.5v-7.6c0-1.5-.9-2.5-2.5-2.5c-1.9 0-3.6 1.4-3.6 4.2v5.9h-1.5v-11.3h1.5v2.1c.7-1.3 1.9-2.3 3.9-2.3c2.3 0 3.7 1.3 3.7 3.8zm8.4 7.7s-1.64-.02-1.6 0c-1.5 0-2.9-.5-2.9-3c.03.02 0-6.9 0-6.9H255v-1.4h2.2v-3.2l1.6-.4v3.6h2.7v1.4h-2.7s-.04 6.9 0 6.9c0 1 .3 1.6 1.5 1.6h1.4v1.4zm7.9-10s-.4.03-.4 0c-2.4 0-3.7 1.4-3.7 4c-.04 0 0 6 0 6h-1.6v-11.3h1.5s.04 2.08 0 2.1c.6-1.5 1.9-2.2 3.7-2.2c-.03-.02.5 0 .5 0v1.4zm3.6-6h-1.8v1.9h1.8v-1.9zm-.1 16h-1.6v-11.3h1.6v11.3zm4.1-5.3c.1 2.8 1.8 4.1 3.8 4.1c1.5 0 2.9-.7 3.3-2.3h1.4c-.5 2.6-2.7 3.7-4.8 3.7c-2.7 0-5.2-1.8-5.2-5.8c0-4.1 2.5-5.9 5.3-5.9c2.6 0 4.8 1.7 4.8 5.5v.7h-8.6zm.1-1.3h7c0-2.3-1.5-3.5-3.4-3.5c-1.8 0-3.4 1.1-3.6 3.5zm19.5 3.4c0 2.3-2.1 3.4-4.3 3.4c-2.5 0-4.7-1.2-4.9-3.7h1.6c.3 1.7 1.8 2.3 3.3 2.3c1.4 0 2.7-.5 2.7-1.8c0-1.3-1.3-1.6-2.6-1.8c-2.2-.4-4.7-.8-4.7-3.4c0-2.2 1.9-3.3 4.2-3.3c2.4 0 4.3 1.1 4.4 3.4h-1.6c-.1-1.4-1.4-2-2.9-2c-1.5 0-2.5.7-2.5 1.8c0 1.5 1.3 1.7 3 2c2.1.3 4.3.6 4.3 3.1zm14.7 1.1c-.9 1.7-2.6 2.3-4 2.3c-1.9 0-3.7-1.1-3.7-3.3c0-2.1 1.5-3.1 3.5-3.3l2.6-.4c.9-.1 1.6-.4 1.6-1.4c0-1.3-1.1-2-2.7-2c-1.7 0-2.7.8-3 2.1h-1.5c.3-2.3 2.1-3.4 4.6-3.4c2.5 0 4.1 1.2 4.1 3.7v7.8h-1.5v-2.1zm-1.9-3.4l-1.7.2c-1.4.2-2.5.7-2.5 2.1c0 1.4 1.1 2 2.4 2c1.7 0 3.7-1.3 3.7-3.7v-1.1c-.5.3-1.1.4-1.9.5zm15.7-2.2v7.7h-1.5s-.03-7.56 0-7.6c0-1.5-.9-2.5-2.5-2.5c-1.9 0-3.6 1.4-3.6 4.2c-.02-.04 0 5.9 0 5.9h-1.5v-11.3h1.5s-.02 2.1 0 2.1c.7-1.3 1.9-2.3 3.9-2.3c2.2 0 3.7 1.3 3.7 3.8zm13.1 7.7h-1.5v-2.2c-.5 1.3-1.9 2.4-4 2.4c-3 0-5.1-2.3-5.1-5.9c0-3.5 2.1-5.8 5.1-5.8c1.9 0 3.3.9 3.9 2.1c.04.02 0-6.6 0-6.6h1.6v16zm-1.6-5.7c0-2.8-1.5-4.4-3.7-4.4c-2.2 0-3.7 1.7-3.7 4.4c0 2.8 1.5 4.5 3.7 4.5c2.2 0 3.7-1.7 3.7-4.5zm14.7 5.9c-3.1 0-5.3-2.3-5.3-5.8c0-3.6 2.1-5.9 5.4-5.9c2.5 0 4.5 1.4 4.7 3.9h-1.5c-.2-1.6-1.6-2.5-3.2-2.5c-2.2 0-3.8 1.7-3.8 4.4c0 2.8 1.6 4.5 3.8 4.5c1.7 0 3-1 3.1-2.8h1.6c-.2 2.7-2.3 4.2-4.8 4.2zm6.7-5.8c0-3.7 2.2-5.9 5.3-5.9c3.1 0 5.3 2.2 5.3 5.9c0 3.6-2.2 5.8-5.3 5.8c-3.1 0-5.3-2.2-5.3-5.8zm9.1-.1c0-2.8-1.7-4.4-3.8-4.4c-2.2 0-3.8 1.7-3.8 4.5c0 2.8 1.7 4.4 3.8 4.4c2.2 0 3.8-1.7 3.8-4.5zm4.2-5.6h1.5s-.02 1.87 0 1.9c.6-1.4 1.8-2.1 3.3-2.1c1.6 0 2.9.9 3.3 2.3c.5-1.2 1.7-2.3 3.7-2.3c2 0 3.6 1.1 3.6 3.4c.04 0 0 8.1 0 8.1h-1.5v-7.6c0-1.7-1.1-2.5-2.4-2.5c-1.7 0-3.1 1.3-3.1 3.6c.05.03 0 6.5 0 6.5h-1.5s.04-7.56 0-7.6c0-1.7-1-2.5-2.3-2.5c-1.7 0-3.1 1.2-3.1 3.6v6.5h-1.5v-11.3zm29.2 5.6c0 4.1-2.6 5.8-5.1 5.8c-2 0-3.2-.9-3.9-2.1c.03.03 0 6.3 0 6.3h-1.5v-15.6h1.5v2.4c.5-1.4 2-2.6 4-2.6c2.5 0 5 1.7 5 5.8zm-1.6 0c0-3.1-1.7-4.3-3.6-4.3c-1.9 0-3.7 1.2-3.7 4.4c0 3.1 1.8 4.3 3.6 4.3c1.9 0 3.7-1.2 3.7-4.4zm11.2 3.6c-.9 1.7-2.6 2.3-4 2.3c-2 0-3.7-1.1-3.7-3.3c0-2.1 1.5-3.1 3.4-3.3l2.7-.4c.8-.1 1.6-.4 1.6-1.4c0-1.3-1.2-2-2.8-2c-1.7 0-2.7.8-2.9 2.1H403c.4-2.3 2.2-3.4 4.6-3.4c2.6 0 4.2 1.2 4.2 3.7c-.04-.01 0 7.8 0 7.8h-1.5s-.03-2.08 0-2.1zm-1.9-3.4l-1.7.2c-1.4.2-2.5.7-2.5 2.1c0 1.4 1.1 2 2.3 2c1.8 0 3.7-1.3 3.7-3.7v-1.1c-.4.3-1 .4-1.8.5zm15.7-2.2c-.03-.05 0 7.7 0 7.7h-1.6s.04-7.56 0-7.6c0-1.5-.8-2.5-2.4-2.5c-2 0-3.7 1.4-3.7 4.2c.05-.04 0 5.9 0 5.9h-1.5v-11.3h1.5s.05 2.1 0 2.1c.7-1.3 2-2.3 4-2.3c2.2 0 3.7 1.3 3.7 3.8zm4.9-8.3h-1.8v1.9h1.8v-1.9zm-.1 16h-1.6v-11.3h1.6v11.3zm4.1-5.3c0 2.8 1.8 4.1 3.8 4.1c1.4 0 2.9-.7 3.3-2.3h1.4c-.5 2.6-2.7 3.7-4.8 3.7c-2.7 0-5.2-1.8-5.2-5.8c0-4.1 2.5-5.9 5.2-5.9c2.7 0 4.9 1.7 4.9 5.5c-.02-.05 0 .7 0 .7H433zm0-1.3h7c0-2.3-1.4-3.5-3.3-3.5c-1.8 0-3.5 1.1-3.7 3.5zm19.6 3.4c0 2.3-2.1 3.4-4.4 3.4c-2.4 0-4.6-1.2-4.8-3.7h1.6c.3 1.7 1.7 2.3 3.3 2.3c1.4 0 2.7-.5 2.7-1.8c0-1.3-1.3-1.6-2.6-1.8c-2.2-.4-4.8-.8-4.8-3.4c0-2.2 2-3.3 4.3-3.3c2.4 0 4.3 1.1 4.4 3.4h-1.6c-.1-1.4-1.4-2-2.9-2c-1.5 0-2.6.7-2.6 1.8c0 1.5 1.4 1.7 3.1 2c2 .3 4.3.6 4.3 3.1zm14.7 1.1c-.9 1.7-2.6 2.3-4 2.3c-2 0-3.7-1.1-3.7-3.3c0-2.1 1.5-3.1 3.4-3.3l2.7-.4c.9-.1 1.6-.4 1.6-1.4c0-1.3-1.2-2-2.7-2c-1.7 0-2.8.8-3 2.1h-1.5c.3-2.3 2.1-3.4 4.6-3.4c2.5 0 4.1 1.2 4.1 3.7c-.02-.01 0 7.8 0 7.8h-1.5v-2.1zm-1.9-3.4l-1.7.2c-1.4.2-2.5.7-2.5 2.1c0 1.4 1.1 2 2.3 2c1.8 0 3.7-1.3 3.7-3.7v-1.1c-.4.3-1 .4-1.8.5zm12.2-4.5s-.4.03-.4 0c-2.4 0-3.7 1.4-3.7 4c-.04 0 0 6 0 6h-1.6v-11.3h1.5s.04 2.08 0 2.1c.6-1.5 1.9-2.2 3.7-2.2c-.03-.02.5 0 .5 0v1.4zm2.5 4.7c.1 2.8 1.8 4.1 3.8 4.1c1.5 0 2.9-.7 3.3-2.3h1.4c-.5 2.6-2.7 3.7-4.8 3.7c-2.7 0-5.2-1.8-5.2-5.8c0-4.1 2.5-5.9 5.3-5.9c2.6 0 4.8 1.7 4.8 5.5v.7h-8.6zm.1-1.3h7c0-2.3-1.5-3.5-3.4-3.5c-1.8 0-3.4 1.1-3.6 3.5z" stroke="none" fill="#fff"/></g><g id="Polygon11000"><path d="m3.5 362.2H1.9v-15.8h9.9v1.4H3.5v5.7h7.8v1.4H3.5v7.3zm9.5-5.6c0-3.7 2.2-5.9 5.4-5.9c3.1 0 5.3 2.2 5.3 5.9c0 3.6-2.2 5.8-5.3 5.8c-3.1 0-5.4-2.2-5.4-5.8zm9.1-.1c0-2.8-1.7-4.4-3.8-4.4c-2.2 0-3.7 1.7-3.7 4.5c0 2.8 1.7 4.4 3.8 4.4c2.2 0 3.7-1.7 3.7-4.5zm9.9-4.3s-.4.03-.4 0c-2.4 0-3.7 1.4-3.7 4c-.03 0 0 6 0 6h-1.6v-11.3h1.5s.05 2.08 0 2.1c.6-1.5 1.9-2.2 3.7-2.2c-.02-.02.5 0 .5 0v1.4zm11.8 10s-1.62-.02-1.6 0c-1.5 0-2.9-.5-2.9-3c.04.02 0-6.9 0-6.9h-2.2v-1.4h2.2v-3.2l1.6-.4v3.6h2.7v1.4h-2.7s-.02 6.9 0 6.9c0 1 .3 1.6 1.5 1.6h1.4v1.4zm11.4-7.7v7.7h-1.5s-.04-7.56 0-7.6c0-1.5-.9-2.5-2.5-2.5c-1.9 0-3.6 1.4-3.6 4.2c-.03-.04 0 5.9 0 5.9H46v-16h1.6s-.03 6.68 0 6.7c.6-1.3 1.8-2.2 3.8-2.2c2.3 0 3.8 1.3 3.8 3.8zm4.9-8.3h-1.8v1.9h1.8v-1.9zm-.1 16h-1.5v-11.3h1.5v11.3zm11.7-3.2c0 2.3-2.1 3.4-4.3 3.4c-2.4 0-4.7-1.2-4.9-3.7h1.6c.3 1.7 1.8 2.3 3.3 2.3c1.4 0 2.7-.5 2.7-1.8c0-1.3-1.3-1.6-2.6-1.8c-2.2-.4-4.7-.8-4.7-3.4c0-2.2 1.9-3.3 4.2-3.3c2.4 0 4.3 1.1 4.4 3.4h-1.6c-.1-1.4-1.4-2-2.8-2c-1.6 0-2.6.7-2.6 1.8c0 1.5 1.3 1.7 3 2c2.1.3 4.3.6 4.3 3.1zm3.6 3.1c.04-.04-1 0-1 0V360h2.3s-.05 2.12 0 2.1c0 2.5-1.5 3.4-3.1 3.5l-.2-.9c1.7-.3 2-1.3 2-2.6zm21.7-7.8v7.9h-1.5s-.02-2.37 0-2.4c-.9 1.6-2.8 2.8-5.3 2.8c-4.8 0-7.2-3.9-7.2-8.4c0-4.9 3.1-8.1 7.4-8.1c3.3 0 6.2 1.7 6.6 5.1h-1.7c-.3-2.3-2.4-3.7-4.8-3.7c-3.4 0-5.9 2.6-5.9 6.7c0 3.7 2 6.9 5.7 6.9c3 0 5.2-2 5.1-5.4c.04.03-5.3 0-5.3 0v-1.4h6.9zm2.7 2.3c0-3.7 2.2-5.9 5.3-5.9c3.1 0 5.4 2.2 5.4 5.9c0 3.6-2.3 5.8-5.4 5.8c-3.1 0-5.3-2.2-5.3-5.8zm9.1-.1c0-2.8-1.7-4.4-3.8-4.4c-2.2 0-3.7 1.7-3.7 4.5c0 2.8 1.7 4.4 3.8 4.4c2.1 0 3.7-1.7 3.7-4.5zm8.5 5.7h-1.7l-4.2-11.3h1.7l3.4 9.7l3.4-9.7h1.6l-4.2 11.3zm6.7-5.3c.1 2.8 1.8 4.1 3.8 4.1c1.5 0 2.9-.7 3.3-2.3h1.4c-.5 2.6-2.7 3.7-4.8 3.7c-2.7 0-5.2-1.8-5.2-5.8c0-4.1 2.6-5.9 5.3-5.9c2.6 0 4.8 1.7 4.8 5.5v.7H124zm.1-1.3h7c0-2.3-1.5-3.5-3.4-3.5c-1.8 0-3.4 1.1-3.6 3.5zm16.8-3.4s-.39.03-.4 0c-2.4 0-3.7 1.4-3.7 4c-.03 0 0 6 0 6h-1.6v-11.3h1.5s.05 2.08 0 2.1c.6-1.5 1.9-2.2 3.7-2.2c-.02-.02.5 0 .5 0v1.4zm11.1 2.3c.02-.05 0 7.7 0 7.7h-1.5s-.02-7.56 0-7.6c0-1.5-.9-2.5-2.5-2.5c-1.9 0-3.6 1.4-3.6 4.2v5.9h-1.5v-11.3h1.5v2.1c.7-1.3 1.9-2.3 3.9-2.3c2.2 0 3.7 1.3 3.7 3.8zm10.2 5.6c-.9 1.7-2.6 2.3-4 2.3c-1.9 0-3.7-1.1-3.7-3.3c0-2.1 1.5-3.1 3.5-3.3l2.6-.4c.9-.1 1.6-.4 1.6-1.4c0-1.3-1.2-2-2.7-2c-1.7 0-2.8.8-3 2.1H155c.3-2.3 2.1-3.4 4.6-3.4c2.5 0 4.1 1.2 4.1 3.7v7.8h-1.5v-2.1zm-1.9-3.4l-1.7.2c-1.4.2-2.5.7-2.5 2.1c0 1.4 1.1 2 2.3 2c1.8 0 3.8-1.3 3.8-3.7v-1.1c-.5.3-1.1.4-1.9.5zm15.7-2.2v7.7h-1.5s-.04-7.56 0-7.6c0-1.5-.9-2.5-2.5-2.5c-1.9 0-3.6 1.4-3.6 4.2c-.03-.04 0 5.9 0 5.9h-1.6v-11.3h1.6s-.03 2.1 0 2.1c.6-1.3 1.9-2.3 3.9-2.3c2.2 0 3.7 1.3 3.7 3.8zm7.7 7.9c-3.1 0-5.2-2.3-5.2-5.8c0-3.6 2.1-5.9 5.4-5.9c2.5 0 4.5 1.4 4.6 3.9H187c-.1-1.6-1.5-2.5-3.1-2.5c-2.3 0-3.8 1.7-3.8 4.4c0 2.8 1.5 4.5 3.7 4.5c1.7 0 3.1-1 3.2-2.8h1.5c-.1 2.7-2.3 4.2-4.8 4.2zm8.2-5.5c.1 2.8 1.8 4.1 3.8 4.1c1.5 0 3-.7 3.3-2.3h1.4c-.5 2.6-2.6 3.7-4.8 3.7c-2.7 0-5.2-1.8-5.2-5.8c0-4.1 2.6-5.9 5.3-5.9c2.6 0 4.8 1.7 4.8 5.5c.03-.05 0 .7 0 .7h-8.6zm.1-1.3h7c0-2.3-1.5-3.5-3.4-3.5c-1.8 0-3.4 1.1-3.6 3.5zm17.9-9.4h-1.7v1.9h1.7v-1.9zm-.1 16h-1.5v-11.3h1.5v11.3zm11.8-3.2c0 2.3-2.1 3.4-4.4 3.4c-2.4 0-4.6-1.2-4.8-3.7h1.6c.2 1.7 1.7 2.3 3.3 2.3c1.4 0 2.7-.5 2.7-1.8c0-1.3-1.3-1.6-2.6-1.8c-2.2-.4-4.8-.8-4.8-3.4c0-2.2 2-3.3 4.3-3.3c2.4 0 4.3 1.1 4.4 3.4h-1.6c-.1-1.4-1.4-2-2.9-2c-1.5 0-2.6.7-2.6 1.8c0 1.5 1.4 1.7 3.1 2c2 .3 4.3.6 4.3 3.1zm18.5 3.2h-1.5l-2.9-9l-2.9 9h-1.6l-3.6-11.3h1.5l2.9 9.3l2.9-9.3h1.6l2.9 9.3l2.8-9.3h1.6l-3.7 11.3zm14.9-7.7c.04-.05 0 7.7 0 7.7h-1.5v-7.6c0-1.5-.9-2.5-2.5-2.5c-1.9 0-3.6 1.4-3.6 4.2c.02-.04 0 5.9 0 5.9h-1.5v-16h1.5s.02 6.68 0 6.7c.7-1.3 1.9-2.2 3.9-2.2c2.3 0 3.7 1.3 3.7 3.8zm4.1 2.4c0 2.8 1.7 4.1 3.7 4.1c1.5 0 3-.7 3.3-2.3h1.5c-.5 2.6-2.7 3.7-4.9 3.7c-2.6 0-5.1-1.8-5.1-5.8c0-4.1 2.5-5.9 5.2-5.9c2.7 0 4.9 1.7 4.9 5.5c-.04-.05 0 .7 0 .7h-8.6zm0-1.3h7c0-2.3-1.5-3.5-3.4-3.5c-1.7 0-3.4 1.1-3.6 3.5zm16.8-3.4s-.34.03-.3 0c-2.4 0-3.8 1.4-3.8 4c.02 0 0 6 0 6h-1.5v-11.3h1.5v2.1c.5-1.5 1.9-2.2 3.6-2.2c.03-.02.5 0 .5 0v1.4zm2.6 4.7c0 2.8 1.7 4.1 3.7 4.1c1.5 0 3-.7 3.3-2.3h1.5c-.5 2.6-2.7 3.7-4.8 3.7c-2.7 0-5.2-1.8-5.2-5.8c0-4.1 2.5-5.9 5.2-5.9c2.7 0 4.9 1.7 4.9 5.5c-.04-.05 0 .7 0 .7h-8.6zm0-1.3h7c0-2.3-1.5-3.5-3.3-3.5c-1.8 0-3.5 1.1-3.7 3.5zm18-9.4h-1.8v1.9h1.8v-1.9zm-.1 16h-1.6v-11.3h1.6v11.3zm12.5-7.7v7.7h-1.5s-.04-7.56 0-7.6c0-1.5-.9-2.5-2.5-2.5c-2 0-3.6 1.4-3.6 4.2c-.03-.04 0 5.9 0 5.9h-1.6v-11.3h1.6s-.03 2.1 0 2.1c.6-1.3 1.9-2.3 3.9-2.3c2.2 0 3.7 1.3 3.7 3.8zm7.7 7.7H315l-4.2-11.3h1.6l3.4 9.7l3.4-9.7h1.6l-4.2 11.3zm6.8-5.3c0 2.8 1.7 4.1 3.7 4.1c1.5 0 3-.7 3.3-2.3h1.5c-.5 2.6-2.7 3.7-4.8 3.7c-2.7 0-5.2-1.8-5.2-5.8c0-4.1 2.5-5.9 5.2-5.9c2.7 0 4.9 1.7 4.9 5.5c-.03-.05 0 .7 0 .7h-8.6zm0-1.3h7c0-2.3-1.5-3.5-3.3-3.5c-1.8 0-3.5 1.1-3.7 3.5zM343 359c0 2.3-2.1 3.4-4.4 3.4c-2.4 0-4.6-1.2-4.8-3.7h1.6c.2 1.7 1.7 2.3 3.2 2.3c1.5 0 2.8-.5 2.8-1.8c0-1.3-1.3-1.6-2.6-1.8c-2.2-.4-4.8-.8-4.8-3.4c0-2.2 2-3.3 4.3-3.3c2.4 0 4.3 1.1 4.4 3.4h-1.6c-.1-1.4-1.4-2-2.9-2c-1.5 0-2.6.7-2.6 1.8c0 1.5 1.4 1.7 3.1 2c2 .3 4.3.6 4.3 3.1zm7.6 3.2s-1.62-.02-1.6 0c-1.5 0-2.9-.5-2.9-3c.05.02 0-6.9 0-6.9h-2.2v-1.4h2.2v-3.2l1.6-.4v3.6h2.7v1.4h-2.7s-.02 6.9 0 6.9c0 1 .3 1.6 1.5 1.6h1.4v1.4zm1.5-5.6c0-3.7 2.2-5.9 5.3-5.9c3.2 0 5.4 2.2 5.4 5.9c0 3.6-2.2 5.8-5.3 5.8c-3.1 0-5.4-2.2-5.4-5.8zm9.1-.1c0-2.8-1.7-4.4-3.8-4.4c-2.2 0-3.7 1.7-3.7 4.5c0 2.8 1.7 4.4 3.8 4.4c2.2 0 3.7-1.7 3.7-4.5zm9.9-4.3s-.4.03-.4 0c-2.4 0-3.7 1.4-3.7 4c-.04 0 0 6 0 6h-1.6v-11.3h1.5s.04 2.08 0 2.1c.6-1.5 1.9-2.2 3.7-2.2c-.03-.02.5 0 .5 0v1.4zm10.3 6.8c0 2.3-2.1 3.4-4.3 3.4c-2.4 0-4.7-1.2-4.9-3.7h1.6c.3 1.7 1.8 2.3 3.3 2.3c1.4 0 2.7-.5 2.7-1.8c0-1.3-1.3-1.6-2.6-1.8c-2.2-.4-4.7-.8-4.7-3.4c0-2.2 1.9-3.3 4.2-3.3c2.4 0 4.3 1.1 4.4 3.4h-1.6c-.1-1.4-1.4-2-2.8-2c-1.6 0-2.6.7-2.6 1.8c0 1.5 1.3 1.7 3 2c2.1.3 4.3.6 4.3 3.1zm11.8 3.4c-3.1 0-5.3-2.3-5.3-5.8c0-3.6 2.1-5.9 5.4-5.9c2.5 0 4.5 1.4 4.7 3.9h-1.5c-.2-1.6-1.6-2.5-3.2-2.5c-2.2 0-3.8 1.7-3.8 4.4c0 2.8 1.6 4.5 3.8 4.5c1.7 0 3-1 3.2-2.8h1.5c-.2 2.7-2.3 4.2-4.8 4.2zm14.3-2.3c-.9 1.7-2.6 2.3-4 2.3c-1.9 0-3.6-1.1-3.6-3.3c0-2.1 1.4-3.1 3.4-3.3l2.6-.4c.9-.1 1.6-.4 1.6-1.4c0-1.3-1.1-2-2.7-2c-1.7 0-2.7.8-3 2.1h-1.5c.3-2.3 2.1-3.4 4.6-3.4c2.6 0 4.1 1.2 4.1 3.7v7.8h-1.5s.02-2.08 0-2.1zm-1.9-3.4l-1.7.2c-1.4.2-2.5.7-2.5 2.1c0 1.4 1.1 2 2.4 2c1.7 0 3.7-1.3 3.7-3.7v-1.1c-.4.3-1.1.4-1.9.5zm15.7-2.2v7.7h-1.5s-.02-7.56 0-7.6c0-1.5-.9-2.5-2.5-2.5c-1.9 0-3.6 1.4-3.6 4.2v5.9h-1.5v-11.3h1.5v2.1c.7-1.3 1.9-2.3 3.9-2.3c2.2 0 3.7 1.3 3.7 3.8zm8.8-3.6h1.6s-.04 1.87 0 1.9c.6-1.4 1.8-2.1 3.2-2.1c1.7 0 3 .9 3.4 2.3c.5-1.2 1.7-2.3 3.7-2.3c2 0 3.6 1.1 3.6 3.4c.02 0 0 8.1 0 8.1h-1.5v-7.6c0-1.7-1.1-2.5-2.4-2.5c-1.7 0-3.1 1.3-3.1 3.6c.03.03 0 6.5 0 6.5h-1.5s.02-7.56 0-7.6c0-1.7-1-2.5-2.4-2.5c-1.6 0-3 1.2-3 3.6c-.02.03 0 6.5 0 6.5h-1.6v-11.3zm18 5.7c0-3.7 2.3-5.9 5.4-5.9c3.1 0 5.3 2.2 5.3 5.9c0 3.6-2.2 5.8-5.3 5.8c-3.1 0-5.4-2.2-5.4-5.8zm9.2-.1c0-2.8-1.7-4.4-3.8-4.4c-2.3 0-3.8 1.7-3.8 4.5c0 2.8 1.7 4.4 3.8 4.4c2.2 0 3.8-1.7 3.8-4.5zm13.3-2v7.7h-1.5s-.02-7.56 0-7.6c0-1.5-.9-2.5-2.5-2.5c-1.9 0-3.6 1.4-3.6 4.2v5.9h-1.5v-11.3h1.5v2.1c.7-1.3 1.9-2.3 3.9-2.3c2.2 0 3.7 1.3 3.7 3.8zm4.9-8.3h-1.7v1.9h1.7v-1.9zm-.1 16h-1.5v-11.3h1.5v11.3zm8.5 0s-1.66-.02-1.7 0c-1.4 0-2.8-.5-2.8-3v-6.9h-2.2v-1.4h2.2v-3.2l1.5-.4v3.6h2.8v1.4h-2.8s.04 6.9 0 6.9c0 1 .3 1.6 1.6 1.6h1.4v1.4zm1.5-5.6c0-3.7 2.2-5.9 5.3-5.9c3.1 0 5.4 2.2 5.4 5.9c0 3.6-2.3 5.8-5.4 5.8c-3.1 0-5.3-2.2-5.3-5.8zm9.1-.1c0-2.8-1.7-4.4-3.8-4.4c-2.2 0-3.8 1.7-3.8 4.5c0 2.8 1.7 4.4 3.8 4.4c2.2 0 3.8-1.7 3.8-4.5zm9.8-4.3s-.34.03-.3 0c-2.4 0-3.8 1.4-3.8 4c.02 0 0 6 0 6h-1.5v-11.3h1.5v2.1c.5-1.5 1.9-2.2 3.6-2.2c.03-.02.5 0 .5 0v1.4z" stroke="none" fill="#fff"/></g><g id="Polygon10999"><path d="m1.9 327v-15.8h9.9v1.4H3.5v5.7h7.8v1.4H3.5v5.8h8.7v1.5H1.9zm18.2.4c-3.3 0-6-2-6.1-5.4h1.7c.1 2.7 2.2 3.9 4.4 3.9c2.1 0 3.7-1.1 3.7-2.9c0-2.1-2.2-2.6-4.3-3.1c-2.5-.7-5-1.5-5-4.6c0-2.9 2.2-4.4 5.3-4.4c2.7 0 5.2 1.3 5.3 4.4h-1.6c-.1-2.1-1.8-3-3.7-3c-2.1 0-3.7 1-3.7 3c0 2.1 1.9 2.6 4 3.2c2.6.6 5.4 1.3 5.4 4.4c0 2.9-2.5 4.5-5.4 4.5zm21.5-8.3v7.9h-1.4s-.03-2.37 0-2.4c-.9 1.6-2.8 2.8-5.3 2.8c-4.8 0-7.2-3.9-7.2-8.4c0-4.9 3-8.1 7.4-8.1c3.3 0 6.2 1.7 6.5 5.1H40c-.3-2.3-2.4-3.7-4.8-3.7c-3.4 0-5.9 2.6-5.9 6.7c0 3.7 1.9 6.9 5.7 6.9c3 0 5.2-2 5.1-5.4c.03.03-5.3 0-5.3 0v-1.4h6.8zm13.3 8.1c-3.2 0-5.3-2.3-5.3-5.8c0-3.6 2.1-5.9 5.4-5.9c2.5 0 4.5 1.4 4.6 3.9h-1.5c-.1-1.6-1.5-2.5-3.1-2.5c-2.2 0-3.8 1.7-3.8 4.4c0 2.8 1.5 4.5 3.7 4.5c1.7 0 3.1-1 3.2-2.8h1.5c-.1 2.7-2.2 4.2-4.7 4.2zm13-10.2s-.36.03-.4 0c-2.4 0-3.7 1.4-3.7 4v6h-1.5v-11.3h1.5s-.02 2.08 0 2.1c.5-1.5 1.9-2.2 3.6-2.2c.01-.02.5 0 .5 0v1.4zm3.6-6h-1.7v1.9h1.7V311zm-.1 16h-1.5v-11.3h1.5V327zm8.5 0s-1.63-.02-1.6 0c-1.5 0-2.9-.5-2.9-3c.03.02 0-6.9 0-6.9h-2.2v-1.4h2.2v-3.2l1.6-.4v3.6h2.7v1.4H77s-.04 6.9 0 6.9c0 1 .3 1.6 1.5 1.6h1.4v1.4zm3-5.3c0 2.8 1.8 4.1 3.8 4.1c1.5 0 2.9-.7 3.3-2.3h1.4c-.5 2.6-2.7 3.7-4.8 3.7c-2.7 0-5.2-1.8-5.2-5.8c0-4.1 2.5-5.9 5.2-5.9c2.7 0 4.9 1.7 4.9 5.5v.7h-8.6zm0-1.3h7c0-2.3-1.4-3.5-3.3-3.5c-1.8 0-3.4 1.1-3.7 3.5zm16.8-3.4s-.31.03-.3 0c-2.4 0-3.7 1.4-3.7 4c-.05 0 0 6 0 6h-1.6v-11.3h1.5s.03 2.08 0 2.1c.6-1.5 1.9-2.2 3.7-2.2c-.03-.02.4 0 .4 0v1.4zm3.7-6h-1.8v1.9h1.8V311zm-.1 16h-1.6v-11.3h1.6V327zm10.3-2.1c-.9 1.7-2.6 2.3-4 2.3c-2 0-3.7-1.1-3.7-3.3c0-2.1 1.5-3.1 3.4-3.3l2.7-.4c.8-.1 1.6-.4 1.6-1.4c0-1.3-1.2-2-2.8-2c-1.7 0-2.7.8-2.9 2.1h-1.6c.4-2.3 2.2-3.4 4.6-3.4c2.6 0 4.2 1.2 4.2 3.7c-.04-.01 0 7.8 0 7.8h-1.5s-.03-2.08 0-2.1zm-1.9-3.4l-1.7.2c-1.5.2-2.5.7-2.5 2.1c0 1.4 1.1 2 2.3 2c1.8 0 3.7-1.3 3.7-3.7V321c-.4.3-1 .4-1.8.5zm5.8 3.3h2.1v2.2h-2.1v-2.2z" stroke="none" fill="#fff"/></g><g id="Polygon10998"><path d="m6.8 301.8s-1.63-.02-1.6 0c-1.5 0-2.9-.5-2.9-3c.03.02 0-6.9 0-6.9H.1v-1.4h2.2v-3.2l1.6-.4v3.6h2.7v1.4H3.9s-.04 6.9 0 6.9c0 1 .3 1.6 1.5 1.6h1.4v1.4zm11.4-7.7v7.7h-1.5s-.05-7.56 0-7.6c0-1.5-.9-2.5-2.5-2.5c-2 0-3.6 1.4-3.6 4.2c-.04-.04 0 5.9 0 5.9H9v-16h1.6s-.04 6.68 0 6.7c.6-1.3 1.8-2.2 3.8-2.2c2.3 0 3.8 1.3 3.8 3.8zm10.2 5.6c-.9 1.7-2.6 2.3-4 2.3c-2 0-3.7-1.1-3.7-3.3c0-2.1 1.5-3.1 3.4-3.3l2.7-.4c.8-.1 1.6-.4 1.6-1.4c0-1.3-1.2-2-2.8-2c-1.7 0-2.7.8-2.9 2.1h-1.6c.4-2.3 2.2-3.4 4.6-3.4c2.6 0 4.2 1.2 4.2 3.7c-.04-.01 0 7.8 0 7.8h-1.5s-.03-2.08 0-2.1zm-1.9-3.4l-1.7.2c-1.4.2-2.5.7-2.5 2.1c0 1.4 1.1 2 2.3 2c1.8 0 3.7-1.3 3.7-3.7v-1.1c-.4.3-1 .4-1.8.5zm11.7 5.5s-1.7-.02-1.7 0c-1.5 0-2.8-.5-2.8-3c-.04.02 0-6.9 0-6.9h-2.3v-1.4h2.3v-3.2l1.5-.4v3.6h2.7v1.4h-2.7v6.9c0 1 .3 1.6 1.5 1.6h1.5v1.4zm3.3-13.8c-.05-.02-1.1 0-1.1 0v-2.1h2.3s-.03 2.15 0 2.1c0 2.5-1.5 3.4-3.1 3.6l-.2-1c1.7-.3 2.1-1.3 2.1-2.6zm12 10.6c0 2.3-2.1 3.4-4.4 3.4c-2.4 0-4.6-1.2-4.9-3.7h1.7c.2 1.7 1.7 2.3 3.2 2.3c1.5 0 2.8-.5 2.8-1.8c0-1.3-1.3-1.6-2.7-1.8c-2.1-.4-4.7-.8-4.7-3.4c0-2.2 2-3.3 4.3-3.3c2.4 0 4.2 1.1 4.4 3.4h-1.6c-.1-1.4-1.4-2-2.9-2c-1.5 0-2.6.7-2.6 1.8c0 1.5 1.4 1.7 3.1 2c2 .3 4.3.6 4.3 3.1zm7.7-8.1h1.5s.05 1.87 0 1.9c.7-1.4 1.9-2.1 3.3-2.1c1.7 0 3 .9 3.4 2.3c.5-1.2 1.7-2.3 3.7-2.3c2 0 3.6 1.1 3.6 3.4v8.1h-1.5s-.02-7.56 0-7.6c0-1.7-1.1-2.5-2.4-2.5c-1.7 0-3.1 1.3-3.1 3.6c.02.03 0 6.5 0 6.5h-1.5v-7.6c0-1.7-1-2.5-2.4-2.5c-1.6 0-3 1.2-3 3.6c-.03.03 0 6.5 0 6.5h-1.6v-11.3zm25.7 9.2c-.9 1.7-2.6 2.3-4 2.3c-1.9 0-3.7-1.1-3.7-3.3c0-2.1 1.5-3.1 3.5-3.3l2.6-.4c.9-.1 1.6-.4 1.6-1.4c0-1.3-1.2-2-2.7-2c-1.7 0-2.8.8-3 2.1h-1.5c.3-2.3 2.1-3.4 4.6-3.4c2.5 0 4.1 1.2 4.1 3.7v7.8h-1.5v-2.1zm-1.9-3.4l-1.7.2c-1.4.2-2.5.7-2.5 2.1c0 1.4 1.1 2 2.3 2c1.8 0 3.8-1.3 3.8-3.7v-1.1c-.5.3-1.1.4-1.9.5zm19 5.5s-1.65-.02-1.6 0c-1.5 0-2.9-.5-2.9-3c.02.02 0-6.9 0-6.9h-5.8s.02 6.9 0 6.9c0 1 .3 1.6 1.6 1.6h1.4v1.4s-1.68-.02-1.7 0c-1.5 0-2.8-.5-2.8-3v-6.9H90v-1.4h2.2v-3.2l1.5-.4v3.6h5.8v-3.2l1.6-.4v3.6h2.7v1.4h-2.7s-.05 6.9 0 6.9c0 1 .2 1.6 1.5 1.6h1.4v1.4zm3-5.3c.1 2.8 1.8 4.1 3.8 4.1c1.5 0 2.9-.7 3.3-2.3h1.4c-.5 2.6-2.7 3.7-4.8 3.7c-2.7 0-5.2-1.8-5.2-5.8c0-4.1 2.5-5.9 5.3-5.9c2.6 0 4.8 1.7 4.8 5.5v.7H107zm.1-1.3h6.9c0-2.3-1.4-3.5-3.3-3.5c-1.8 0-3.4 1.1-3.6 3.5zm16.8-3.4s-.4.03-.4 0c-2.4 0-3.7 1.4-3.7 4c-.04 0 0 6 0 6h-1.6v-11.3h1.5s.04 2.08 0 2.1c.6-1.5 1.9-2.2 3.7-2.2c-.03-.02.5 0 .5 0v1.4zm10.3 6.8c0 2.3-2 3.4-4.3 3.4c-2.4 0-4.7-1.2-4.9-3.7h1.6c.3 1.7 1.8 2.3 3.3 2.3c1.5 0 2.7-.5 2.7-1.8c0-1.3-1.3-1.6-2.6-1.8c-2.2-.4-4.7-.8-4.7-3.4c0-2.2 1.9-3.3 4.2-3.3c2.4 0 4.3 1.1 4.4 3.4h-1.6c-.1-1.4-1.4-2-2.8-2c-1.6 0-2.6.7-2.6 1.8c0 1.5 1.3 1.7 3 2c2.1.3 4.3.6 4.3 3.1zm2.2-7.9h2.2v2.2h-2.2v-2.2zm0 8.9h2.2v2.2h-2.2v-2.2zm20-5.5c.05-.05 0 7.7 0 7.7h-1.5s.02-7.56 0-7.6c0-1.5-.9-2.5-2.5-2.5c-1.9 0-3.6 1.4-3.6 4.2c.03-.04 0 5.9 0 5.9h-1.5v-16h1.5s.03 6.68 0 6.7c.7-1.3 1.9-2.2 3.9-2.2c2.3 0 3.7 1.3 3.7 3.8zm2.6 2.1c0-3.7 2.2-5.9 5.3-5.9c3.1 0 5.4 2.2 5.4 5.9c0 3.6-2.3 5.8-5.4 5.8c-3.1 0-5.3-2.2-5.3-5.8zm9.1-.1c0-2.8-1.7-4.4-3.8-4.4c-2.2 0-3.8 1.7-3.8 4.5c0 2.8 1.7 4.4 3.8 4.4c2.2 0 3.8-1.7 3.8-4.5zm15.2 5.7h-1.5l-2.9-9l-2.9 9h-1.5l-3.7-11.3h1.6l2.9 9.3l2.8-9.3h1.6l2.9 9.3l2.8-9.3h1.6l-3.7 11.3zm16 0s-1.65-.02-1.6 0c-1.5 0-2.9-.5-2.9-3c.02.02 0-6.9 0-6.9h-2.2v-1.4h2.2v-3.2l1.5-.4v3.6h2.8v1.4h-2.8s.05 6.9 0 6.9c0 1 .3 1.6 1.6 1.6h1.4v1.4zm11.4-7.7c-.03-.05 0 7.7 0 7.7h-1.6s.04-7.56 0-7.6c0-1.5-.8-2.5-2.4-2.5c-2 0-3.7 1.4-3.7 4.2c.05-.04 0 5.9 0 5.9h-1.5v-16h1.5s.05 6.68 0 6.7c.7-1.3 1.9-2.2 3.9-2.2c2.3 0 3.8 1.3 3.8 3.8zm4 2.4c0 2.8 1.8 4.1 3.8 4.1c1.5 0 2.9-.7 3.3-2.3h1.4c-.5 2.6-2.7 3.7-4.8 3.7c-2.7 0-5.2-1.8-5.2-5.8c0-4.1 2.5-5.9 5.2-5.9c2.7 0 4.9 1.7 4.9 5.5v.7h-8.6zm0-1.3h7c0-2.3-1.4-3.5-3.3-3.5c-1.8 0-3.4 1.1-3.7 3.5zm14.5 8.7c-.4 1.2-1.4 1.6-2.6 1.6c.03-.02-1.1 0-1.1 0v-1.4s.92.01.9 0c1 0 1.5-.3 1.8-1.3c.03-.01.6-1.5.6-1.5l-4.2-10.8h1.6l3.3 8.9l3.3-8.9h1.5s-5.07 13.42-5.1 13.4zm12.4-13.4h1.5v1.9c.6-1.4 1.8-2.1 3.3-2.1c1.6 0 3 .9 3.3 2.3c.5-1.2 1.8-2.3 3.7-2.3c2 0 3.7 1.1 3.7 3.4c-.04 0 0 8.1 0 8.1h-1.6s.03-7.56 0-7.6c0-1.7-1-2.5-2.4-2.5c-1.6 0-3 1.3-3 3.6c-.03.03 0 6.5 0 6.5h-1.5s-.05-7.56 0-7.6c0-1.7-1.1-2.5-2.4-2.5c-1.7 0-3.1 1.2-3.1 3.6v6.5h-1.5v-11.3zm25.6 9.2c-.8 1.7-2.5 2.3-4 2.3c-1.9 0-3.6-1.1-3.6-3.3c0-2.1 1.5-3.1 3.4-3.3l2.7-.4c.8-.1 1.5-.4 1.5-1.4c0-1.3-1.1-2-2.7-2c-1.7 0-2.7.8-2.9 2.1H260c.3-2.3 2.1-3.4 4.6-3.4c2.6 0 4.1 1.2 4.1 3.7c.03-.01 0 7.8 0 7.8h-1.5s.04-2.08 0-2.1zm-1.8-3.4l-1.7.2c-1.5.2-2.5.7-2.5 2.1c0 1.4 1 2 2.3 2c1.7 0 3.7-1.3 3.7-3.7v-1.1c-.4.3-1.1.4-1.8.5zm15.6-2.2c.04-.05 0 7.7 0 7.7h-1.5v-7.6c0-1.5-.9-2.5-2.5-2.5c-1.9 0-3.6 1.4-3.6 4.2c.02-.04 0 5.9 0 5.9h-1.5v-11.3h1.5s.02 2.1 0 2.1c.7-1.3 1.9-2.3 3.9-2.3c2.3 0 3.7 1.3 3.7 3.8zm10.2 5.6c-.9 1.7-2.6 2.3-4 2.3c-1.9 0-3.6-1.1-3.6-3.3c0-2.1 1.5-3.1 3.4-3.3l2.6-.4c.9-.1 1.6-.4 1.6-1.4c0-1.3-1.1-2-2.7-2c-1.7 0-2.7.8-3 2.1H284c.3-2.3 2.1-3.4 4.6-3.4c2.6 0 4.1 1.2 4.1 3.7c.02-.01 0 7.8 0 7.8h-1.5s.02-2.08 0-2.1zm-1.8-3.4l-1.8.2c-1.4.2-2.5.7-2.5 2.1c0 1.4 1.1 2 2.4 2c1.7 0 3.7-1.3 3.7-3.7v-1.1c-.4.3-1.1.4-1.8.5zm16.2 5c0 3.4-2.2 5.1-5.1 5.1c-2.5 0-4.8-1.3-5.1-3.9h1.5c.3 1.4 1.3 2.6 3.6 2.6c2 0 3.6-1.1 3.6-3.7v-2.3c-.8 1.7-2.5 2.3-4 2.3c-2.7 0-5-1.9-5-5.6c0-3.7 2.4-5.5 5.1-5.5c1.8 0 3.2.8 3.9 2c-.04.03 0-1.8 0-1.8h1.5s-.03 10.78 0 10.8zm-1.6-5.5c0-2.8-1.7-4.2-3.6-4.2c-2 0-3.8 1.4-3.8 4.2c0 2.8 1.8 4.2 3.8 4.2c1.8 0 3.6-1.2 3.6-4.2zm5.6.7c0 2.8 1.8 4.1 3.8 4.1c1.4 0 2.9-.7 3.3-2.3h1.4c-.5 2.6-2.7 3.7-4.8 3.7c-2.7 0-5.2-1.8-5.2-5.8c0-4.1 2.5-5.9 5.2-5.9c2.7 0 4.9 1.7 4.9 5.5v.7h-8.6zm0-1.3h7c0-2.3-1.4-3.5-3.3-3.5c-1.8 0-3.4 1.1-3.7 3.5zm23.4 4.5c-.9 1.7-2.6 2.3-4 2.3c-1.9 0-3.7-1.1-3.7-3.3c0-2.1 1.5-3.1 3.5-3.3l2.6-.4c.9-.1 1.6-.4 1.6-1.4c0-1.3-1.2-2-2.7-2c-1.7 0-2.8.8-3 2.1h-1.5c.3-2.3 2.1-3.4 4.6-3.4c2.5 0 4.1 1.2 4.1 3.7c-.02-.01 0 7.8 0 7.8H333v-2.1zm-1.9-3.4l-1.7.2c-1.4.2-2.5.7-2.5 2.1c0 1.4 1.1 2 2.3 2c1.8 0 3.8-1.3 3.8-3.7v-1.1c-.5.3-1.1.4-1.9.5zm15.7-2.2v7.7h-1.5s-.04-7.56 0-7.6c0-1.5-.9-2.5-2.5-2.5c-2 0-3.6 1.4-3.6 4.2c-.03-.04 0 5.9 0 5.9h-1.6v-11.3h1.6s-.03 2.1 0 2.1c.6-1.3 1.9-2.3 3.9-2.3c2.2 0 3.7 1.3 3.7 3.8zm13.1 7.7h-1.5s-.02-2.2 0-2.2c-.6 1.3-1.9 2.4-4 2.4c-3 0-5.1-2.3-5.1-5.9c0-3.5 2.1-5.8 5.1-5.8c1.9 0 3.3.9 3.9 2.1c.02.02 0-6.6 0-6.6h1.6v16zm-1.6-5.7c0-2.8-1.6-4.4-3.7-4.4c-2.2 0-3.7 1.7-3.7 4.4c0 2.8 1.5 4.5 3.7 4.5c2.2 0 3.7-1.7 3.7-4.5zm12.2-10.3h-1.7v1.9h1.7v-1.9zm-.1 16h-1.5v-11.3h1.5v11.3zm3.4-11.3h1.5v1.9c.6-1.4 1.8-2.1 3.3-2.1c1.6 0 2.9.9 3.3 2.3c.5-1.2 1.7-2.3 3.7-2.3c2 0 3.7 1.1 3.7 3.4c-.05 0 0 8.1 0 8.1h-1.6s.02-7.56 0-7.6c0-1.7-1.1-2.5-2.4-2.5c-1.7 0-3 1.3-3 3.6c-.04.03 0 6.5 0 6.5h-1.6s.05-7.56 0-7.6c0-1.7-1-2.5-2.3-2.5c-1.7 0-3.1 1.2-3.1 3.6v6.5h-1.5v-11.3zm29.2 5.6c0 4.1-2.6 5.8-5.1 5.8c-2 0-3.2-.9-3.9-2.1c.04.03 0 6.3 0 6.3h-1.5v-15.6h1.5v2.4c.5-1.4 2-2.6 4-2.6c2.5 0 5 1.7 5 5.8zm-1.5 0c0-3.1-1.8-4.3-3.7-4.3c-1.9 0-3.7 1.2-3.7 4.4c0 3.1 1.8 4.3 3.7 4.3c1.8 0 3.7-1.2 3.7-4.4zm5.7 5.7h-1.5v-16h1.5v16zm4.1-5.3c.1 2.8 1.8 4.1 3.8 4.1c1.5 0 2.9-.7 3.3-2.3h1.4c-.5 2.6-2.7 3.7-4.8 3.7c-2.7 0-5.2-1.8-5.2-5.8c0-4.1 2.6-5.9 5.3-5.9c2.6 0 4.8 1.7 4.8 5.5v.7h-8.6zm.1-1.3h7c0-2.3-1.5-3.5-3.4-3.5c-1.8 0-3.4 1.1-3.6 3.5zm11.1-4.7h1.5s.05 1.87 0 1.9c.7-1.4 1.9-2.1 3.3-2.1c1.7 0 3 .9 3.4 2.3c.5-1.2 1.7-2.3 3.7-2.3c2 0 3.6 1.1 3.6 3.4v8.1h-1.5s-.02-7.56 0-7.6c0-1.7-1.1-2.5-2.4-2.5c-1.7 0-3.1 1.3-3.1 3.6c.02.03 0 6.5 0 6.5h-1.5v-7.6c0-1.7-1-2.5-2.4-2.5c-1.6 0-3 1.2-3 3.6c-.03.03 0 6.5 0 6.5h-1.6v-11.3zm19.5 6c.1 2.8 1.8 4.1 3.8 4.1c1.5 0 3-.7 3.3-2.3h1.5c-.6 2.6-2.7 3.7-4.9 3.7c-2.7 0-5.2-1.8-5.2-5.8c0-4.1 2.6-5.9 5.3-5.9c2.7 0 4.8 1.7 4.8 5.5c.03-.05 0 .7 0 .7H442zm.1-1.3h7c0-2.3-1.5-3.5-3.4-3.5c-1.7 0-3.4 1.1-3.6 3.5zm20.3-1.1c.02-.05 0 7.7 0 7.7h-1.5s-.02-7.56 0-7.6c0-1.5-.9-2.5-2.5-2.5c-1.9 0-3.6 1.4-3.6 4.2v5.9h-1.5v-11.3h1.5v2.1c.7-1.3 1.9-2.3 3.9-2.3c2.2 0 3.7 1.3 3.7 3.8zm8.4 7.7s-1.64-.02-1.6 0c-1.5 0-2.9-.5-2.9-3c.02.02 0-6.9 0-6.9h-2.2v-1.4h2.2v-3.2l1.6-.4v3.6h2.7v1.4h-2.7s-.05 6.9 0 6.9c0 1 .2 1.6 1.5 1.6h1.4v1.4z" stroke="none" fill="#fff"/></g><g id="Polygon10997"><path d="m8.6 274.5c-.9 1.7-2.6 2.3-4 2.3c-1.9 0-3.7-1.1-3.7-3.3c0-2.1 1.5-3.1 3.5-3.3l2.6-.4c.9-.1 1.6-.4 1.6-1.4c0-1.3-1.1-2-2.7-2c-1.7 0-2.8.8-3 2.1H1.4c.3-2.3 2.1-3.4 4.6-3.4c2.5 0 4.1 1.2 4.1 3.7v7.8H8.6v-2.1zm-1.9-3.4l-1.7.2c-1.4.2-2.5.7-2.5 2.1c0 1.4 1.1 2 2.4 2c1.7 0 3.7-1.3 3.7-3.7v-1.1c-.5.3-1.1.4-1.9.5zm22.7 5.5h-1.6l-2.9-9l-2.9 9h-1.5l-3.7-11.3h1.6l2.9 9.3l2.9-9.3h1.5l2.9 9.3l2.9-9.3h1.5l-3.6 11.3zm7.4-16H35v1.9h1.8v-1.9zm-.1 16h-1.6v-11.3h1.6v11.3zm4.9 0H40v-16h1.6v16zm4.9 0h-1.6v-16h1.6v16zm4.9-16h-1.7v1.9h1.7v-1.9zm-.1 16h-1.5v-11.3h1.5v11.3zm12.6-7.7c-.04-.05 0 7.7 0 7.7h-1.6s.03-7.56 0-7.6c0-1.5-.9-2.5-2.5-2.5c-1.9 0-3.6 1.4-3.6 4.2c.04-.04 0 5.9 0 5.9h-1.5v-11.3h1.5s.04 2.1 0 2.1c.7-1.3 2-2.3 3.9-2.3c2.3 0 3.8 1.3 3.8 3.8zm12.9 7.2c0 3.4-2.2 5.1-5.1 5.1c-2.5 0-4.7-1.3-5.1-3.9h1.6c.2 1.4 1.3 2.6 3.5 2.6c2.1 0 3.6-1.1 3.6-3.7v-2.3c-.8 1.7-2.5 2.3-3.9 2.3c-2.8 0-5-1.9-5-5.6c0-3.7 2.3-5.5 5-5.5c1.8 0 3.2.8 3.9 2v-1.8h1.5s.02 10.78 0 10.8zm-1.6-5.5c0-2.8-1.7-4.2-3.6-4.2c-1.9 0-3.7 1.4-3.7 4.2c0 2.8 1.7 4.2 3.7 4.2c1.8 0 3.6-1.2 3.6-4.2zm14-1.7c.03-.05 0 7.7 0 7.7h-1.5V269c0-1.5-.9-2.5-2.5-2.5c-1.9 0-3.6 1.4-3.6 4.2v5.9h-1.5v-11.3h1.5v2.1c.7-1.3 1.9-2.3 3.9-2.3c2.3 0 3.7 1.3 3.7 3.8zm4.1 2.4c0 2.8 1.7 4.1 3.7 4.1c1.5 0 3-.7 3.3-2.3h1.5c-.5 2.6-2.7 3.7-4.9 3.7c-2.7 0-5.2-1.8-5.2-5.8c0-4.1 2.6-5.9 5.3-5.9c2.7 0 4.8 1.7 4.8 5.5c.05-.05 0 .7 0 .7c0 0-8.54.01-8.5 0zm0-1.3h7c0-2.3-1.5-3.5-3.4-3.5c-1.7 0-3.4 1.1-3.6 3.5zm19.6 3.4c0 2.3-2.1 3.4-4.4 3.4c-2.4 0-4.6-1.2-4.9-3.7h1.7c.2 1.7 1.7 2.3 3.2 2.3c1.5 0 2.8-.5 2.8-1.8c0-1.3-1.3-1.6-2.7-1.8c-2.1-.4-4.7-.8-4.7-3.4c0-2.2 1.9-3.3 4.2-3.3c2.4 0 4.3 1.1 4.5 3.4H111c-.1-1.4-1.4-2-2.9-2c-1.5 0-2.6.7-2.6 1.8c0 1.5 1.4 1.7 3.1 2c2 .3 4.3.6 4.3 3.1zm10.9 0c0 2.3-2.1 3.4-4.4 3.4c-2.4 0-4.6-1.2-4.9-3.7h1.7c.2 1.7 1.7 2.3 3.2 2.3c1.5 0 2.8-.5 2.8-1.8c0-1.3-1.3-1.6-2.7-1.8c-2.1-.4-4.7-.8-4.7-3.4c0-2.2 1.9-3.3 4.2-3.3c2.4 0 4.3 1.1 4.5 3.4h-1.6c-.1-1.4-1.4-2-2.9-2c-1.5 0-2.6.7-2.6 1.8c0 1.5 1.4 1.7 3.1 2c2 .3 4.3.6 4.3 3.1zm12.7 3.2s-1.7-.02-1.7 0c-1.5 0-2.8-.5-2.8-3c-.04.02 0-6.9 0-6.9h-2.3v-1.4h2.3v-3.2l1.5-.4v3.6h2.7v1.4h-2.7v6.9c0 1 .3 1.6 1.5 1.6h1.5v1.4zm1.4-5.6c0-3.7 2.3-5.9 5.4-5.9c3.1 0 5.3 2.2 5.3 5.9c0 3.6-2.2 5.8-5.3 5.8c-3.1 0-5.4-2.2-5.4-5.8zm9.1-.1c0-2.8-1.7-4.4-3.8-4.4c-2.2 0-3.7 1.7-3.7 4.5c0 2.8 1.7 4.4 3.8 4.4c2.2 0 3.7-1.7 3.7-4.5zm11.1-10.3h-1.7v1.9h1.7v-1.9zm-.1 16h-1.5v-11.3h1.5v11.3zm3.4-11.3h1.5v1.9c.6-1.4 1.8-2.1 3.3-2.1c1.6 0 3 .9 3.3 2.3c.5-1.2 1.8-2.3 3.7-2.3c2 0 3.7 1.1 3.7 3.4c-.04 0 0 8.1 0 8.1h-1.6s.03-7.56 0-7.6c0-1.7-1-2.5-2.4-2.5c-1.6 0-3 1.3-3 3.6c-.03.03 0 6.5 0 6.5h-1.5s-.05-7.56 0-7.6c0-1.7-1.1-2.5-2.4-2.5c-1.7 0-3.1 1.2-3.1 3.6c.02.03 0 6.5 0 6.5h-1.5v-11.3zm29.2 5.6c0 4.1-2.5 5.8-5.1 5.8c-2 0-3.2-.9-3.9-2.1c.05.03 0 6.3 0 6.3h-1.5v-15.6h1.5v2.4c.5-1.4 2-2.6 4-2.6c2.5 0 5 1.7 5 5.8zm-1.5 0c0-3.1-1.8-4.3-3.7-4.3c-1.9 0-3.7 1.2-3.7 4.4c0 3.1 1.8 4.3 3.7 4.3c1.8 0 3.7-1.2 3.7-4.4zm9.8-4.3s-.37.03-.4 0c-2.4 0-3.7 1.4-3.7 4v6h-1.5v-11.3h1.5s-.03 2.08 0 2.1c.5-1.5 1.9-2.2 3.6-2.2c.01-.02.5 0 .5 0v1.4zm1 4.4c0-3.7 2.3-5.9 5.4-5.9c3.1 0 5.3 2.2 5.3 5.9c0 3.6-2.2 5.8-5.3 5.8c-3.1 0-5.4-2.2-5.4-5.8zm9.2-.1c0-2.8-1.7-4.4-3.8-4.4c-2.3 0-3.8 1.7-3.8 4.5c0 2.8 1.7 4.4 3.8 4.4c2.2 0 3.8-1.7 3.8-4.5zm8.4 5.7h-1.6l-4.2-11.3h1.6l3.4 9.7l3.4-9.7h1.6l-4.2 11.3zm6.8-5.3c0 2.8 1.7 4.1 3.7 4.1c1.5 0 3-.7 3.3-2.3h1.5c-.5 2.6-2.7 3.7-4.8 3.7c-2.7 0-5.2-1.8-5.2-5.8c0-4.1 2.5-5.9 5.2-5.9c2.7 0 4.9 1.7 4.9 5.5c-.03-.05 0 .7 0 .7h-8.6zm0-1.3h7c0-2.3-1.5-3.5-3.3-3.5c-1.8 0-3.5 1.1-3.7 3.5zm16.7 6.6v-15.8h9.8v1.4h-8.3v5.7h7.8v1.4h-7.8v5.8h8.7v1.5H241zm18.1.4c-3.3 0-6-2-6.1-5.4h1.7c.1 2.7 2.3 3.9 4.5 3.9c2.1 0 3.7-1.1 3.7-2.9c0-2.1-2.2-2.6-4.3-3.1c-2.5-.7-5-1.5-5-4.6c0-2.9 2.2-4.4 5.2-4.4c2.8 0 5.3 1.3 5.4 4.4h-1.7c0-2.1-1.8-3-3.7-3c-2 0-3.7 1-3.7 3c0 2.1 1.9 2.6 4.1 3.2c2.6.6 5.3 1.3 5.3 4.4c0 2.9-2.5 4.5-5.4 4.5zm21.6-8.3v7.9h-1.5s.03-2.37 0-2.4c-.8 1.6-2.7 2.8-5.3 2.8c-4.7 0-7.2-3.9-7.2-8.4c0-4.9 3.1-8.1 7.5-8.1c3.2 0 6.1 1.7 6.5 5.1H279c-.3-2.3-2.3-3.7-4.8-3.7c-3.3 0-5.8 2.6-5.8 6.7c0 3.7 1.9 6.9 5.7 6.9c3 0 5.1-2 5.1-5.4c-.01.03-5.3 0-5.3 0v-1.4h6.8zm2.7 5.7h2.2v2.2h-2.2v-2.2zm12 2.2h-1.6v-15.8h1.6v15.8zm8.8 0s-1.68-.02-1.7 0c-1.5 0-2.8-.5-2.8-3v-6.9h-2.2v-1.4h2.2v-3.2l1.5-.4v3.6h2.8v1.4h-2.8s.02 6.9 0 6.9c0 1 .3 1.6 1.6 1.6h1.4v1.4zm3.3-13.8c-.02-.02-1 0-1 0v-2.1h2.2v2.1c0 2.5-1.5 3.4-3 3.6l-.3-1c1.7-.3 2.1-1.3 2.1-2.6zm12 10.6c0 2.3-2.1 3.4-4.4 3.4c-2.4 0-4.6-1.2-4.8-3.7h1.6c.3 1.7 1.7 2.3 3.3 2.3c1.4 0 2.7-.5 2.7-1.8c0-1.3-1.3-1.6-2.6-1.8c-2.2-.4-4.8-.8-4.8-3.4c0-2.2 2-3.3 4.3-3.3c2.4 0 4.3 1.1 4.4 3.4h-1.6c-.1-1.4-1.4-2-2.9-2c-1.5 0-2.6.7-2.6 1.8c0 1.5 1.4 1.7 3.1 2c2 .3 4.3.6 4.3 3.1zm12.7 3.2s-1.66-.02-1.7 0c-1.5 0-2.8-.5-2.8-3v-6.9h-2.2v-1.4h2.2v-3.2l1.5-.4v3.6h2.8v1.4h-2.8s.03 6.9 0 6.9c0 1 .3 1.6 1.6 1.6h1.4v1.4zm11.4-7.7c-.04-.05 0 7.7 0 7.7H342s.02-7.56 0-7.6c0-1.5-.9-2.5-2.5-2.5c-1.9 0-3.6 1.4-3.6 4.2c.03-.04 0 5.9 0 5.9h-1.5v-16h1.5s.03 6.68 0 6.7c.7-1.3 1.9-2.2 3.9-2.2c2.3 0 3.8 1.3 3.8 3.8zm4 2.4c0 2.8 1.8 4.1 3.7 4.1c1.5 0 3-.7 3.3-2.3h1.5c-.5 2.6-2.7 3.7-4.8 3.7c-2.7 0-5.2-1.8-5.2-5.8c0-4.1 2.5-5.9 5.2-5.9c2.7 0 4.9 1.7 4.9 5.5c-.02-.05 0 .7 0 .7h-8.6zm0-1.3h7c0-2.3-1.4-3.5-3.3-3.5c-1.8 0-3.5 1.1-3.7 3.5zm16.5-4.7h1.5s-.04 1.87 0 1.9c.6-1.4 1.8-2.1 3.2-2.1c1.7 0 3 .9 3.4 2.3c.5-1.2 1.7-2.3 3.7-2.3c2 0 3.6 1.1 3.6 3.4c.03 0 0 8.1 0 8.1H378V269c0-1.7-1.1-2.5-2.4-2.5c-1.7 0-3.1 1.3-3.1 3.6c.04.03 0 6.5 0 6.5H371s.02-7.56 0-7.6c0-1.7-1-2.5-2.3-2.5c-1.7 0-3.1 1.2-3.1 3.6v6.5h-1.5v-11.3zM382 271c0-3.7 2.3-5.9 5.4-5.9c3.1 0 5.3 2.2 5.3 5.9c0 3.6-2.2 5.8-5.3 5.8c-3.1 0-5.4-2.2-5.4-5.8zm9.2-.1c0-2.8-1.7-4.4-3.8-4.4c-2.2 0-3.8 1.7-3.8 4.5c0 2.8 1.7 4.4 3.8 4.4c2.2 0 3.8-1.7 3.8-4.5zm4.2-5.6h1.5s-.02 1.87 0 1.9c.6-1.4 1.8-2.1 3.3-2.1c1.6 0 2.9.9 3.3 2.3c.5-1.2 1.7-2.3 3.7-2.3c2 0 3.6 1.1 3.6 3.4c.04 0 0 8.1 0 8.1h-1.5V269c0-1.7-1.1-2.5-2.4-2.5c-1.7 0-3.1 1.3-3.1 3.6c.05.03 0 6.5 0 6.5h-1.5s.04-7.56 0-7.6c0-1.7-1-2.5-2.3-2.5c-1.7 0-3.1 1.2-3.1 3.6v6.5h-1.5v-11.3zm19.5 6c0 2.8 1.7 4.1 3.7 4.1c1.5 0 3-.7 3.3-2.3h1.5c-.5 2.6-2.7 3.7-4.9 3.7c-2.6 0-5.1-1.8-5.1-5.8c0-4.1 2.5-5.9 5.2-5.9c2.7 0 4.9 1.7 4.9 5.5c-.04-.05 0 .7 0 .7h-8.6zm0-1.3h7c0-2.3-1.5-3.5-3.4-3.5c-1.7 0-3.4 1.1-3.6 3.5zm20.3-1.1c.04-.05 0 7.7 0 7.7h-1.5V269c0-1.5-.9-2.5-2.5-2.5c-1.9 0-3.6 1.4-3.6 4.2c.02-.04 0 5.9 0 5.9h-1.5v-11.3h1.5s.02 2.1 0 2.1c.7-1.3 2-2.3 3.9-2.3c2.3 0 3.7 1.3 3.7 3.8zm8.4 7.7s-1.62-.02-1.6 0c-1.5 0-2.9-.5-2.9-3c.05.02 0-6.9 0-6.9h-2.2v-1.4h2.2v-3.2l1.6-.4v3.6h2.7v1.4h-2.7s-.02 6.9 0 6.9c0 1 .3 1.6 1.5 1.6h1.4v1.4zm9.7 0s-.04-2.16 0-2.2c-.8 1.6-2.2 2.3-3.8 2.3c-2.1 0-3.8-1.3-3.8-3.9c.04-.04 0-7.5 0-7.5h1.6s-.03 7.27 0 7.3c0 1.8 1 2.8 2.5 2.8c1.8 0 3.4-1.4 3.4-4.3v-5.8h1.5v11.3h-1.4zm4.8-11.3h1.5v1.9c.6-1.4 1.8-2.1 3.3-2.1c1.6 0 3 .9 3.3 2.3c.5-1.2 1.8-2.3 3.7-2.3c2 0 3.7 1.1 3.7 3.4c-.03 0 0 8.1 0 8.1H472s.03-7.56 0-7.6c0-1.7-1-2.5-2.4-2.5c-1.6 0-3 1.3-3 3.6c-.03.03 0 6.5 0 6.5h-1.5s-.04-7.56 0-7.6c0-1.7-1.1-2.5-2.4-2.5c-1.7 0-3.1 1.2-3.1 3.6c.02.03 0 6.5 0 6.5h-1.5v-11.3z" stroke="none" fill="#fff"/></g><g id="Polygon10996"><path d="m3.3 235.4H1.6v1.9h1.7v-1.9zm-.1 16H1.7v-11.3h1.5v11.3zm11.8-3.2c0 2.3-2.1 3.4-4.4 3.4c-2.4 0-4.6-1.2-4.9-3.7h1.7c.2 1.7 1.7 2.3 3.2 2.3c1.5 0 2.8-.5 2.8-1.8c0-1.3-1.3-1.6-2.7-1.8c-2.1-.4-4.7-.8-4.7-3.4c0-2.2 1.9-3.3 4.2-3.3c2.4 0 4.3 1.1 4.5 3.4h-1.6c-.1-1.4-1.4-2-2.9-2c-1.5 0-2.6.7-2.6 1.8c0 1.5 1.4 1.7 3.1 2c2 .3 4.3.6 4.3 3.1zm9.4-12.8h-1.8v1.9h1.8v-1.9zm-.1 16h-1.6v-11.3h1.6v11.3zm3.3-11.3h1.5s.03 1.87 0 1.9c.6-1.4 1.9-2.1 3.3-2.1c1.7 0 3 .9 3.3 2.3c.5-1.2 1.8-2.3 3.7-2.3c2.1 0 3.7 1.1 3.7 3.4v8.1h-1.5s-.04-7.56 0-7.6c0-1.7-1.1-2.5-2.4-2.5c-1.7 0-3.1 1.3-3.1 3.6v6.5h-1.5v-7.6c0-1.7-1-2.5-2.4-2.5c-1.6 0-3.1 1.2-3.1 3.6c.05.03 0 6.5 0 6.5h-1.5v-11.3zm29.3 5.6c0 4.1-2.6 5.8-5.2 5.8c-1.9 0-3.2-.9-3.8-2.1c-.02.03 0 6.3 0 6.3h-1.6v-15.6h1.5s.04 2.38 0 2.4c.5-1.4 2-2.6 4.1-2.6c2.4 0 5 1.7 5 5.8zm-1.6 0c0-3.1-1.8-4.3-3.7-4.3c-1.8 0-3.7 1.2-3.7 4.4c0 3.1 1.8 4.3 3.7 4.3c1.9 0 3.7-1.2 3.7-4.4zm3.5.1c0-3.7 2.2-5.9 5.3-5.9c3.1 0 5.3 2.2 5.3 5.9c0 3.6-2.2 5.8-5.3 5.8c-3.1 0-5.3-2.2-5.3-5.8zm9.1-.1c0-2.8-1.7-4.4-3.8-4.4c-2.2 0-3.8 1.7-3.8 4.5c0 2.8 1.7 4.4 3.8 4.4c2.2 0 3.8-1.7 3.8-4.5zm9.8-4.3s-.36.03-.4 0c-2.4 0-3.7 1.4-3.7 4v6h-1.5v-11.3h1.5s-.02 2.08 0 2.1c.5-1.5 1.9-2.2 3.6-2.2c.02-.02.5 0 .5 0v1.4zm7.6 10s-1.7-.02-1.7 0c-1.5 0-2.8-.5-2.8-3c-.04.02 0-6.9 0-6.9h-2.3v-1.4h2.3v-3.2l1.5-.4v3.6h2.7v1.4h-2.7v6.9c0 1 .3 1.6 1.6 1.6h1.4v1.4zm9.1-2.1c-.9 1.7-2.6 2.3-4 2.3c-1.9 0-3.7-1.1-3.7-3.3c0-2.1 1.5-3.1 3.5-3.3l2.6-.4c.9-.1 1.6-.4 1.6-1.4c0-1.3-1.2-2-2.7-2c-1.7 0-2.8.8-3 2.1h-1.5c.3-2.3 2.1-3.4 4.6-3.4c2.5 0 4.1 1.2 4.1 3.7c-.02-.01 0 7.8 0 7.8h-1.5v-2.1zm-1.9-3.4l-1.7.2c-1.4.2-2.5.7-2.5 2.1c0 1.4 1.1 2 2.3 2c1.8 0 3.8-1.3 3.8-3.7v-1.1c-.5.3-1.1.4-1.9.5zm15.7-2.2v7.7h-1.5s-.04-7.56 0-7.6c0-1.5-.9-2.5-2.5-2.5c-2 0-3.6 1.4-3.6 4.2c-.03-.04 0 5.9 0 5.9H99v-11.3h1.6s-.03 2.1 0 2.1c.6-1.3 1.9-2.3 3.9-2.3c2.2 0 3.7 1.3 3.7 3.8zm8.4 7.7s-1.67-.02-1.7 0c-1.5 0-2.8-.5-2.8-3v-6.9h-2.2v-1.4h2.2v-3.2l1.5-.4v3.6h2.8v1.4h-2.8s.03 6.9 0 6.9c0 1 .3 1.6 1.6 1.6h1.4v1.4zm1.5-2.2h2.1v2.2h-2.1v-2.2zm23.8 2.2h-1.7l-3.9-13.3l-4 13.3h-1.6l-4.1-15.8h1.7l3.3 13.5l3.9-13.5h1.6l4 13.5l3.2-13.5h1.6l-4 15.8zm6.1-5.3c0 2.8 1.7 4.1 3.7 4.1c1.5 0 3-.7 3.3-2.3h1.5c-.5 2.6-2.7 3.7-4.9 3.7c-2.6 0-5.1-1.8-5.1-5.8c0-4.1 2.5-5.9 5.2-5.9c2.7 0 4.9 1.7 4.9 5.5c-.05-.05 0 .7 0 .7H148zm0-1.3h7c0-2.3-1.5-3.5-3.4-3.5c-1.7 0-3.4 1.1-3.6 3.5zm11.4-7.2c.03-.02-1 0-1 0v-2.1h2.2s.05 2.15 0 2.1c0 2.5-1.4 3.4-3 3.6l-.2-1c1.7-.3 2-1.3 2-2.6zm8.7 3.8s-.4.03-.4 0c-2.4 0-3.7 1.4-3.7 4c-.03 0 0 6 0 6h-1.6v-11.3h1.5s.05 2.08 0 2.1c.6-1.5 1.9-2.2 3.7-2.2c-.02-.02.5 0 .5 0v1.4zm2.5 4.7c.1 2.8 1.8 4.1 3.8 4.1c1.5 0 2.9-.7 3.3-2.3h1.4c-.5 2.6-2.7 3.7-4.8 3.7c-2.7 0-5.2-1.8-5.2-5.8c0-4.1 2.6-5.9 5.3-5.9c2.6 0 4.8 1.7 4.8 5.5v.7h-8.6zm.1-1.3h7c0-2.3-1.5-3.5-3.4-3.5c-1.8 0-3.4 1.1-3.6 3.5zm17.9 6.6h-1.5v-16h1.5v16zm2.6-5.6c0-3.7 2.3-5.9 5.4-5.9c3.1 0 5.3 2.2 5.3 5.9c0 3.6-2.2 5.8-5.3 5.8c-3.1 0-5.4-2.2-5.4-5.8zm9.2-.1c0-2.8-1.7-4.4-3.8-4.4c-2.2 0-3.8 1.7-3.8 4.5c0 2.8 1.7 4.4 3.8 4.4c2.2 0 3.8-1.7 3.8-4.5zm3.4.1c0-3.7 2.2-5.9 5.4-5.9c3.1 0 5.3 2.2 5.3 5.9c0 3.6-2.2 5.8-5.3 5.8c-3.1 0-5.4-2.2-5.4-5.8zm9.1-.1c0-2.8-1.7-4.4-3.8-4.4c-2.2 0-3.7 1.7-3.7 4.5c0 2.8 1.7 4.4 3.8 4.4c2.2 0 3.7-1.7 3.7-4.5zm7.8.2l-2 2.1v3.4h-1.6v-16h1.6v10.7l5.5-6h2l-4.5 4.7l4.8 6.6h-1.8l-4-5.5zm9.7-10.5h-1.8v1.9h1.8v-1.9zm-.1 16h-1.6v-11.3h1.6v11.3zm12.5-7.7c-.02-.05 0 7.7 0 7.7h-1.6s.05-7.56 0-7.6c0-1.5-.8-2.5-2.4-2.5c-2 0-3.6 1.4-3.6 4.2c-.04-.04 0 5.9 0 5.9h-1.6v-11.3h1.6s-.04 2.1 0 2.1c.6-1.3 1.9-2.3 3.9-2.3c2.2 0 3.7 1.3 3.7 3.8zm12.9 7.2c0 3.4-2.2 5.1-5.1 5.1c-2.5 0-4.7-1.3-5.1-3.9h1.6c.2 1.4 1.3 2.6 3.5 2.6c2.1 0 3.7-1.1 3.7-3.7v-2.3c-.9 1.7-2.6 2.3-4 2.3c-2.8 0-5-1.9-5-5.6c0-3.7 2.3-5.5 5-5.5c1.9 0 3.2.8 3.9 2c.02.03 0-1.8 0-1.8h1.5s.03 10.78 0 10.8zm-1.5-5.5c0-2.8-1.7-4.2-3.7-4.2c-1.9 0-3.7 1.4-3.7 4.2c0 2.8 1.8 4.2 3.7 4.2c1.8 0 3.7-1.2 3.7-4.2zm13.8-8.7c-1.2 0-1.5.6-1.5 1.7c-.01-.04 0 1.7 0 1.7h2.5v1.4h-2.5v9.9H265v-9.9h-1.9v-1.4h1.9s-.05-1.78 0-1.8c0-2.5 1.3-2.9 2.8-2.9c-.01-.02 1.5 0 1.5 0v1.3s-1.26.04-1.3 0zm2.3 9.1c0-3.7 2.3-5.9 5.4-5.9c3.1 0 5.3 2.2 5.3 5.9c0 3.6-2.2 5.8-5.3 5.8c-3.1 0-5.4-2.2-5.4-5.8zm9.1-.1c0-2.8-1.7-4.4-3.8-4.4c-2.2 0-3.7 1.7-3.7 4.5c0 2.8 1.7 4.4 3.8 4.4c2.2 0 3.7-1.7 3.7-4.5zm9.9-4.3s-.39.03-.4 0c-2.4 0-3.7 1.4-3.7 4c-.02 0 0 6 0 6h-1.6v-11.3h1.6s-.04 2.08 0 2.1c.5-1.5 1.8-2.2 3.6-2.2c-.01-.02.5 0 .5 0v1.4zm11.1 10.2c-3.1 0-5.2-2.3-5.2-5.8c0-3.6 2.1-5.9 5.3-5.9c2.5 0 4.5 1.4 4.7 3.9h-1.5c-.2-1.6-1.6-2.5-3.2-2.5c-2.2 0-3.8 1.7-3.8 4.4c0 2.8 1.6 4.5 3.8 4.5c1.7 0 3-1 3.2-2.8h1.5c-.2 2.7-2.3 4.2-4.8 4.2zm6.7-5.8c0-3.7 2.2-5.9 5.3-5.9c3.1 0 5.3 2.2 5.3 5.9c0 3.6-2.2 5.8-5.3 5.8c-3.1 0-5.3-2.2-5.3-5.8zm9.1-.1c0-2.8-1.7-4.4-3.8-4.4c-2.2 0-3.8 1.7-3.8 4.5c0 2.8 1.7 4.4 3.8 4.4c2.2 0 3.8-1.7 3.8-4.5zm11.6 5.7s-.01-2.16 0-2.2c-.8 1.6-2.2 2.3-3.8 2.3c-2.1 0-3.7-1.3-3.7-3.9c-.03-.04 0-7.5 0-7.5h1.5v7.3c0 1.8 1 2.8 2.5 2.8c1.8 0 3.4-1.4 3.4-4.3c.02.04 0-5.8 0-5.8h1.6v11.3h-1.5zm14-7.7c-.03-.05 0 7.7 0 7.7h-1.6s.04-7.56 0-7.6c0-1.5-.8-2.5-2.4-2.5c-2 0-3.7 1.4-3.7 4.2c.05-.04 0 5.9 0 5.9h-1.5v-11.3h1.5s.05 2.1 0 2.1c.7-1.3 2-2.3 4-2.3c2.2 0 3.7 1.3 3.7 3.8zm8.4 7.7s-1.69-.02-1.7 0c-1.5 0-2.8-.5-2.8-3c-.02.02 0-6.9 0-6.9h-2.2v-1.4h2.2v-3.2l1.5-.4v3.6h2.7v1.4h-2.7v6.9c0 1 .3 1.6 1.6 1.6h1.4v1.4zm7.8-10s-.35.03-.4 0c-2.3 0-3.7 1.4-3.7 4v6h-1.5v-11.3h1.5v2.1c.5-1.5 1.9-2.2 3.6-2.2c.02-.02.5 0 .5 0v1.4zm3.6-6h-1.7v1.9h1.7v-1.9zm-.1 16H360v-11.3h1.5v11.3zm4.2-5.3c0 2.8 1.7 4.1 3.7 4.1c1.5 0 3-.7 3.3-2.3h1.5c-.5 2.6-2.7 3.7-4.9 3.7c-2.6 0-5.1-1.8-5.1-5.8c0-4.1 2.5-5.9 5.2-5.9c2.7 0 4.9 1.7 4.9 5.5c-.04-.05 0 .7 0 .7h-8.6zm0-1.3h7c0-2.3-1.5-3.5-3.4-3.5c-1.7 0-3.4 1.1-3.6 3.5zm19.6 3.4c0 2.3-2.1 3.4-4.4 3.4c-2.4 0-4.6-1.2-4.9-3.7h1.7c.2 1.7 1.7 2.3 3.2 2.3c1.5 0 2.8-.5 2.8-1.8c0-1.3-1.3-1.6-2.7-1.8c-2.1-.4-4.7-.8-4.7-3.4c0-2.2 1.9-3.3 4.3-3.3c2.4 0 4.2 1.1 4.4 3.4h-1.6c-.1-1.4-1.4-2-2.9-2c-1.5 0-2.6.7-2.6 1.8c0 1.5 1.4 1.7 3.1 2c2 .3 4.3.6 4.3 3.1zm12.7 3.2s-1.69-.02-1.7 0c-1.5 0-2.8-.5-2.8-3c-.03.02 0-6.9 0-6.9h-2.3v-1.4h2.3v-3.2l1.5-.4v3.6h2.7v1.4H395v6.9c0 1 .3 1.6 1.6 1.6h1.4v1.4zm11.3-7.7c.03-.05 0 7.7 0 7.7h-1.5v-7.6c0-1.5-.9-2.5-2.5-2.5c-1.9 0-3.6 1.4-3.6 4.2v5.9h-1.5v-16h1.5v6.7c.7-1.3 1.9-2.2 3.9-2.2c2.3 0 3.7 1.3 3.7 3.8zm10.2 5.6c-.9 1.7-2.6 2.3-4 2.3c-1.9 0-3.7-1.1-3.7-3.3c0-2.1 1.5-3.1 3.5-3.3l2.6-.4c.9-.1 1.6-.4 1.6-1.4c0-1.3-1.1-2-2.7-2c-1.7 0-2.7.8-3 2.1h-1.5c.3-2.3 2.1-3.4 4.6-3.4c2.5 0 4.1 1.2 4.1 3.7v7.8h-1.5v-2.1zm-1.9-3.4l-1.7.2c-1.4.2-2.5.7-2.5 2.1c0 1.4 1.1 2 2.4 2c1.7 0 3.7-1.3 3.7-3.7v-1.1c-.5.3-1.1.4-1.9.5zm11.7 5.5s-1.66-.02-1.7 0c-1.5 0-2.8-.5-2.8-3v-6.9h-2.2v-1.4h2.2v-3.2l1.5-.4v3.6h2.8v1.4h-2.8s.04 6.9 0 6.9c0 1 .3 1.6 1.6 1.6h1.4v1.4zm15.6-3.2c0 2.3-2.1 3.4-4.3 3.4c-2.4 0-4.7-1.2-4.9-3.7h1.6c.3 1.7 1.8 2.3 3.3 2.3c1.4 0 2.7-.5 2.7-1.8c0-1.3-1.3-1.6-2.6-1.8c-2.2-.4-4.7-.8-4.7-3.4c0-2.2 1.9-3.3 4.2-3.3c2.4 0 4.3 1.1 4.4 3.4H443c-.1-1.4-1.4-2-2.8-2c-1.6 0-2.6.7-2.6 1.8c0 1.5 1.3 1.7 3 2c2.1.3 4.3.6 4.3 3.1zm11.7-4.5v7.7h-1.5s-.04-7.56 0-7.6c0-1.5-.9-2.5-2.5-2.5c-1.9 0-3.6 1.4-3.6 4.2c-.03-.04 0 5.9 0 5.9h-1.6v-16h1.6s-.03 6.68 0 6.7c.6-1.3 1.8-2.2 3.8-2.2c2.3 0 3.8 1.3 3.8 3.8zm2.5 2.1c0-3.7 2.2-5.9 5.4-5.9c3.1 0 5.3 2.2 5.3 5.9c0 3.6-2.2 5.8-5.3 5.8c-3.1 0-5.4-2.2-5.4-5.8zm9.1-.1c0-2.8-1.7-4.4-3.8-4.4c-2.2 0-3.7 1.7-3.7 4.5c0 2.8 1.7 4.4 3.8 4.4c2.2 0 3.7-1.7 3.7-4.5zm15.3 5.7H482l-2.9-9l-3 9h-1.5l-3.6-11.3h1.5l2.9 9.3l2.9-9.3h1.5l3 9.3l2.8-9.3h1.6l-3.7 11.3z" stroke="none" fill="#fff"/></g><g id="Polygon10995"><path d="m15.9 226.2h-1.7l-3.9-13.3l-3.9 13.3H4.7L.6 210.4h1.7l3.3 13.5l3.9-13.5h1.7l3.9 13.5l3.3-13.5h1.5l-4 15.8zm6.1-5.3c0 2.8 1.8 4.1 3.7 4.1c1.5 0 3-.7 3.3-2.3h1.5c-.5 2.6-2.7 3.7-4.8 3.7c-2.7 0-5.2-1.8-5.2-5.8c0-4.1 2.5-5.9 5.2-5.9c2.7 0 4.9 1.7 4.9 5.5c-.02-.05 0 .7 0 .7H22zm0-1.3h7c0-2.3-1.4-3.5-3.3-3.5c-1.8 0-3.5 1.1-3.7 3.5zm27 .9c0 3.5-2.1 5.9-5.1 5.9c-2 0-3.4-1.1-4-2.3c.02 0 0 2.1 0 2.1h-1.4v-16h1.5s-.02 6.97 0 7c.6-1.4 2-2.5 4-2.5c2.9 0 5 2.2 5 5.8zm-1.6.1c0-2.8-1.5-4.4-3.7-4.4c-2.1 0-3.7 1.6-3.7 4.4c0 2.8 1.5 4.5 3.7 4.5c2.2 0 3.7-1.8 3.7-4.5zm5 .3c0 2.8 1.7 4.1 3.7 4.1c1.5 0 3-.7 3.3-2.3h1.5c-.5 2.6-2.7 3.7-4.9 3.7c-2.6 0-5.1-1.8-5.1-5.8c0-4.1 2.5-5.9 5.2-5.9c2.7 0 4.9 1.7 4.9 5.5c-.04-.05 0 .7 0 .7h-8.6zm0-1.3h7c0-2.3-1.5-3.5-3.4-3.5c-1.7 0-3.4 1.1-3.6 3.5zm12.7 6.6h-1.5v-16h1.5v16zm5-16h-1.7v1.9h1.7v-1.9zm-.1 16h-1.5v-11.3h1.5v11.3zm4.2-5.3c0 2.8 1.7 4.1 3.7 4.1c1.5 0 3-.7 3.3-2.3h1.5c-.5 2.6-2.7 3.7-4.9 3.7c-2.7 0-5.2-1.8-5.2-5.8c0-4.1 2.6-5.9 5.3-5.9c2.7 0 4.8 1.7 4.8 5.5c.04-.05 0 .7 0 .7c0 0-8.55.01-8.5 0zm0-1.3h7c0-2.3-1.5-3.5-3.4-3.5c-1.7 0-3.4 1.1-3.6 3.5zm15.6 6.6h-1.6L84 214.9h1.7l3.3 9.7l3.4-9.7h1.6l-4.2 11.3zm6.8-5.3c0 2.8 1.8 4.1 3.8 4.1c1.4 0 2.9-.7 3.3-2.3h1.4c-.5 2.6-2.7 3.7-4.8 3.7c-2.7 0-5.2-1.8-5.2-5.8c0-4.1 2.5-5.9 5.2-5.9c2.7 0 4.9 1.7 4.9 5.5v.7h-8.6zm0-1.3h7c0-2.3-1.4-3.5-3.3-3.5c-1.8 0-3.4 1.1-3.7 3.5zm21.4 6.6s-1.66-.02-1.7 0c-1.5 0-2.8-.5-2.8-3v-6.9h-2.2v-1.4h2.2v-3.2l1.5-.4v3.6h2.8v1.4H115s.04 6.9 0 6.9c0 1 .3 1.6 1.6 1.6h1.4v1.4zm11.4-7.7c-.04-.05 0 7.7 0 7.7h-1.6s.03-7.56 0-7.6c0-1.5-.9-2.5-2.5-2.5c-1.9 0-3.6 1.4-3.6 4.2c.04-.04 0 5.9 0 5.9h-1.5v-16h1.5s.04 6.68 0 6.7c.7-1.3 1.9-2.2 3.9-2.2c2.3 0 3.8 1.3 3.8 3.8zm10.1 5.6c-.8 1.7-2.5 2.3-4 2.3c-1.9 0-3.6-1.1-3.6-3.3c0-2.1 1.5-3.1 3.4-3.3l2.7-.4c.8-.1 1.5-.4 1.5-1.4c0-1.3-1.1-2-2.7-2c-1.7 0-2.7.8-2.9 2.1h-1.6c.3-2.3 2.1-3.4 4.6-3.4c2.6 0 4.1 1.2 4.1 3.7c.04-.01 0 7.8 0 7.8h-1.5s.04-2.08 0-2.1zm-1.8-3.4l-1.7.2c-1.5.2-2.5.7-2.5 2.1c0 1.4 1 2 2.3 2c1.7 0 3.7-1.3 3.7-3.7v-1.1c-.4.3-1.1.4-1.8.5zm11.6 5.5s-1.63-.02-1.6 0c-1.5 0-2.9-.5-2.9-3c.04.02 0-6.9 0-6.9h-2.2v-1.4h2.2v-3.2l1.6-.4v3.6h2.7v1.4h-2.7s-.03 6.9 0 6.9c0 1 .3 1.6 1.5 1.6h1.4v1.4zm18.6 0h-1.6l-2.9-9l-2.9 9H159l-3.7-11.3h1.6l2.9 9.3l2.8-9.3h1.6l2.9 9.3l2.9-9.3h1.5l-3.6 11.3zm7.4-16h-1.8v1.9h1.8v-1.9zm-.1 16h-1.6v-11.3h1.6v11.3zm8.5 0s-1.69-.02-1.7 0c-1.5 0-2.8-.5-2.8-3c-.03.02 0-6.9 0-6.9h-2.3v-1.4h2.3v-3.2l1.5-.4v3.6h2.7v1.4h-2.7v6.9c0 1 .3 1.6 1.6 1.6h1.4v1.4zm11.3-7.7c.03-.05 0 7.7 0 7.7h-1.5v-7.6c0-1.5-.9-2.5-2.5-2.5c-1.9 0-3.6 1.4-3.6 4.2v5.9h-1.5v-16h1.5v6.7c.7-1.3 1.9-2.2 3.9-2.2c2.3 0 3.7 1.3 3.7 3.8zm9.2 7.7v-15.8h9.8v1.4h-8.2v5.7h7.7v1.4h-7.7v5.8h8.6v1.5h-10.2zm28 0h-1.6v-13.7l-5.3 13.7h-1.2l-5.3-13.6v13.6h-1.5v-15.8h2.4l5 13.3l5.1-13.3h2.4v15.8zm14.2 0s-1.69-.02-1.7 0c-1.5 0-2.8-.5-2.8-3c-.02.02 0-6.9 0-6.9h-2.3v-1.4h2.3v-3.2l1.5-.4v3.6h2.7v1.4h-2.7v6.9c0 1 .3 1.6 1.6 1.6h1.4v1.4zm11.3-7.7c.03-.05 0 7.7 0 7.7h-1.5v-7.6c0-1.5-.9-2.5-2.5-2.5c-1.9 0-3.6 1.4-3.6 4.2v5.9h-1.5v-16h1.5s.01 6.68 0 6.7c.7-1.3 1.9-2.2 3.9-2.2c2.3 0 3.7 1.3 3.7 3.8zm4.1 2.4c0 2.8 1.7 4.1 3.7 4.1c1.5 0 3-.7 3.3-2.3h1.5c-.5 2.6-2.7 3.7-4.9 3.7c-2.7 0-5.1-1.8-5.1-5.8c0-4.1 2.5-5.9 5.2-5.9c2.7 0 4.9 1.7 4.9 5.5c-.05-.05 0 .7 0 .7h-8.6zm0-1.3h7c0-2.3-1.5-3.5-3.4-3.5c-1.7 0-3.4 1.1-3.6 3.5zm25.8 6.6h-1.5s.04-2.2 0-2.2c-.5 1.3-1.9 2.4-4 2.4c-2.9 0-5-2.3-5-5.9c0-3.5 2.1-5.8 5.1-5.8c1.9 0 3.3.9 3.9 2.1c-.02.02 0-6.6 0-6.6h1.5v16zm-1.5-5.7c0-2.8-1.6-4.4-3.8-4.4c-2.2 0-3.7 1.7-3.7 4.4c0 2.8 1.6 4.5 3.7 4.5c2.2 0 3.8-1.7 3.8-4.5zm6.5-10.3h-1.7v1.9h1.7v-1.9zm-.1 16H291v-11.3h1.5v11.3zm9-10s-.36.03-.4 0c-2.4 0-3.7 1.4-3.7 4v6h-1.5v-11.3h1.5s-.02 2.08 0 2.1c.5-1.5 1.9-2.2 3.6-2.2c.01-.02.5 0 .5 0v1.4zm2.6 4.7c0 2.8 1.7 4.1 3.7 4.1c1.5 0 3-.7 3.3-2.3h1.5c-.5 2.6-2.7 3.7-4.9 3.7c-2.7 0-5.2-1.8-5.2-5.8c0-4.1 2.6-5.9 5.3-5.9c2.7 0 4.8 1.7 4.8 5.5c.05-.05 0 .7 0 .7c0 0-8.54.01-8.5 0zm0-1.3h7c0-2.3-1.5-3.5-3.4-3.5c-1.7 0-3.4 1.1-3.6 3.5zm15.7 6.8c-3.1 0-5.3-2.3-5.3-5.8c0-3.6 2.1-5.9 5.4-5.9c2.5 0 4.5 1.4 4.7 3.9h-1.5c-.2-1.6-1.6-2.5-3.2-2.5c-2.2 0-3.8 1.7-3.8 4.4c0 2.8 1.5 4.5 3.7 4.5c1.7 0 3.1-1 3.2-2.8h1.6c-.2 2.7-2.3 4.2-4.8 4.2zm12.5-.2s-1.64-.02-1.6 0c-1.5 0-2.9-.5-2.9-3c.03.02 0-6.9 0-6.9h-2.2v-1.4h2.2v-3.2l1.6-.4v3.6h2.7v1.4h-2.7s-.04 6.9 0 6.9c0 1 .3 1.6 1.5 1.6h1.4v1.4zm3.9-16h-1.8v1.9h1.8v-1.9zm-.1 16h-1.6v-11.3h1.6v11.3zm2.6-5.6c0-3.7 2.2-5.9 5.3-5.9c3.1 0 5.4 2.2 5.4 5.9c0 3.6-2.3 5.8-5.4 5.8c-3.1 0-5.3-2.2-5.3-5.8zm9.1-.1c0-2.8-1.7-4.4-3.8-4.4c-2.2 0-3.7 1.7-3.7 4.5c0 2.8 1.7 4.4 3.8 4.4c2.1 0 3.7-1.7 3.7-4.5zm13.4-2c-.05-.05 0 7.7 0 7.7h-1.6s.02-7.56 0-7.6c0-1.5-.9-2.5-2.5-2.5c-1.9 0-3.6 1.4-3.6 4.2c.03-.04 0 5.9 0 5.9H352v-11.3h1.5s.03 2.1 0 2.1c.7-1.3 2-2.3 3.9-2.3c2.3 0 3.8 1.3 3.8 3.8zm7.7 2.1c0-3.7 2.3-5.9 5.4-5.9c3.1 0 5.3 2.2 5.3 5.9c0 3.6-2.2 5.8-5.3 5.8c-3.1 0-5.4-2.2-5.4-5.8zm9.1-.1c0-2.8-1.7-4.4-3.8-4.4c-2.2 0-3.7 1.7-3.7 4.5c0 2.8 1.7 4.4 3.8 4.4c2.2 0 3.7-1.7 3.7-4.5zm7.8-9c-1.2 0-1.5.6-1.5 1.7c-.02-.04 0 1.7 0 1.7h2.5v1.4h-2.5v9.9h-1.6v-9.9h-1.8v-1.4h1.8s.04-1.78 0-1.8c0-2.5 1.4-2.9 2.9-2.9c-.02-.02 1.5 0 1.5 0v1.3s-1.27.04-1.3 0zm8.7 14.7v-15.8h9.9v1.4h-8.3v5.7h7.8v1.4h-7.8v5.8h8.7v1.5h-10.3zm18.2.4c-3.3 0-6-2-6.1-5.4h1.7c.1 2.7 2.2 3.9 4.4 3.9c2.2 0 3.7-1.1 3.7-2.9c0-2.1-2.1-2.6-4.3-3.1c-2.5-.7-5-1.5-5-4.6c0-2.9 2.3-4.4 5.3-4.4c2.8 0 5.2 1.3 5.4 4.4h-1.7c-.1-2.1-1.8-3-3.7-3c-2 0-3.7 1-3.7 3c0 2.1 1.9 2.6 4.1 3.2c2.6.6 5.3 1.3 5.3 4.4c0 2.9-2.5 4.5-5.4 4.5zm21.6-8.3v7.9h-1.5v-2.4c-.9 1.6-2.8 2.8-5.3 2.8c-4.7 0-7.2-3.9-7.2-8.4c0-4.9 3.1-8.1 7.5-8.1c3.2 0 6.1 1.7 6.5 5.1h-1.7c-.3-2.3-2.4-3.7-4.8-3.7c-3.3 0-5.9 2.6-5.9 6.7c0 3.7 2 6.9 5.8 6.9c2.9 0 5.1-2 5.1-5.4c-.04.03-5.4 0-5.4 0v-1.4h6.9zm14 7.9s-1.61-.02-1.6 0c-1.5 0-2.8-.5-2.8-3c-.05.02 0-6.9 0-6.9h-2.3v-1.4h2.3v-3.2l1.5-.4v3.6h2.7v1.4h-2.7s-.02 6.9 0 6.9c0 1 .3 1.6 1.5 1.6h1.4v1.4zm7.9-10s-.38.03-.4 0c-2.4 0-3.7 1.4-3.7 4c-.02 0 0 6 0 6h-1.5v-11.3h1.5s-.04 2.08 0 2.1c.5-1.5 1.9-2.2 3.6-2.2c0-.02.5 0 .5 0v1.4zm8.9 7.9c-.9 1.7-2.6 2.3-4 2.3c-1.9 0-3.7-1.1-3.7-3.3c0-2.1 1.5-3.1 3.5-3.3l2.6-.4c.9-.1 1.6-.4 1.6-1.4c0-1.3-1.2-2-2.7-2c-1.7 0-2.8.8-3 2.1h-1.5c.3-2.3 2.1-3.4 4.6-3.4c2.5 0 4.1 1.2 4.1 3.7v7.8h-1.5v-2.1zm-1.9-3.4l-1.7.2c-1.4.2-2.5.7-2.5 2.1c0 1.4 1.1 2 2.3 2c1.8 0 3.8-1.3 3.8-3.7v-1.1c-.5.3-1.1.4-1.9.5zm11 5.5h-1.6l-4.2-11.3h1.6l3.4 9.7l3.4-9.7h1.6l-4.2 11.3zm6.8-5.3c0 2.8 1.7 4.1 3.7 4.1c1.5 0 3-.7 3.3-2.3h1.5c-.5 2.6-2.7 3.7-4.8 3.7c-2.7 0-5.2-1.8-5.2-5.8c0-4.1 2.5-5.9 5.2-5.9c2.7 0 4.9 1.7 4.9 5.5c-.03-.05 0 .7 0 .7H481zm0-1.3h7c0-2.3-1.5-3.5-3.3-3.5c-1.8 0-3.5 1.1-3.7 3.5zm12.7 6.6h-1.5v-16h1.5v16z" stroke="none" fill="#fff"/></g><g id="Polygon10994"><path d="m11.5 191H10s.02-2.2 0-2.2c-.5 1.3-1.9 2.4-4 2.4c-3 0-5.1-2.3-5.1-5.9c0-3.5 2.1-5.8 5.1-5.8c1.9 0 3.3.9 4 2.1c-.05.02 0-6.6 0-6.6h1.5v16zm-1.6-5.7c0-2.8-1.5-4.4-3.7-4.4c-2.2 0-3.7 1.7-3.7 4.4c0 2.8 1.5 4.5 3.7 4.5c2.2 0 3.7-1.7 3.7-4.5zm5.7.4c.1 2.8 1.8 4.1 3.8 4.1c1.5 0 2.9-.7 3.3-2.3h1.4c-.5 2.6-2.7 3.7-4.8 3.7c-2.7 0-5.2-1.8-5.2-5.8c0-4.1 2.6-5.9 5.3-5.9c2.6 0 4.8 1.7 4.8 5.5v.7h-8.6zm.1-1.3h7c0-2.3-1.5-3.5-3.4-3.5c-1.8 0-3.4 1.1-3.6 3.5zm15.6 6.6h-1.6l-4.2-11.3h1.6l3.4 9.7l3.4-9.7h1.6L31.3 191zm6.8-5.3c0 2.8 1.7 4.1 3.7 4.1c1.5 0 3-.7 3.3-2.3h1.5c-.5 2.6-2.7 3.7-4.9 3.7c-2.6 0-5.1-1.8-5.1-5.8c0-4.1 2.5-5.9 5.2-5.9c2.7 0 4.9 1.7 4.9 5.5c-.04-.05 0 .7 0 .7h-8.6zm0-1.3h7c0-2.3-1.5-3.5-3.4-3.5c-1.7 0-3.4 1.1-3.6 3.5zm12.7 6.6h-1.5v-16h1.5v16zm2.6-5.6c0-3.7 2.3-5.9 5.4-5.9c3.1 0 5.3 2.2 5.3 5.9c0 3.6-2.2 5.8-5.3 5.8c-3.1 0-5.4-2.2-5.4-5.8zm9.2-.1c0-2.8-1.7-4.4-3.8-4.4c-2.2 0-3.8 1.7-3.8 4.5c0 2.8 1.7 4.4 3.8 4.4c2.2 0 3.8-1.7 3.8-4.5zm14.7 0c0 4.1-2.6 5.8-5.2 5.8c-1.9 0-3.2-.9-3.8-2.1v6.3h-1.5v-15.6h1.4s.05 2.38 0 2.4c.6-1.4 2-2.6 4.1-2.6c2.4 0 5 1.7 5 5.8zm-1.6 0c0-3.1-1.8-4.3-3.6-4.3c-1.9 0-3.8 1.2-3.8 4.4c0 3.1 1.8 4.3 3.7 4.3c1.9 0 3.7-1.2 3.7-4.4zm5 .4c0 2.8 1.7 4.1 3.7 4.1c1.5 0 3-.7 3.3-2.3h1.5c-.5 2.6-2.7 3.7-4.8 3.7c-2.7 0-5.2-1.8-5.2-5.8c0-4.1 2.5-5.9 5.2-5.9c2.7 0 4.9 1.7 4.9 5.5c-.03-.05 0 .7 0 .7h-8.6zm0-1.3h7c0-2.3-1.5-3.5-3.3-3.5c-1.8 0-3.5 1.1-3.7 3.5zm21 6.6h-1.5s.03-2.2 0-2.2c-.5 1.3-1.9 2.4-4 2.4c-2.9 0-5-2.3-5-5.9c0-3.5 2.1-5.8 5-5.8c2 0 3.4.9 4 2.1c-.03.02 0-6.6 0-6.6h1.5v16zm-1.6-5.7c0-2.8-1.5-4.4-3.7-4.4c-2.2 0-3.7 1.7-3.7 4.4c0 2.8 1.5 4.5 3.7 4.5c2.2 0 3.7-1.7 3.7-4.5zm10.6-5.6h1.5s.04 1.87 0 1.9c.7-1.4 1.9-2.1 3.3-2.1c1.7 0 3 .9 3.4 2.3c.5-1.2 1.7-2.3 3.7-2.3c2 0 3.6 1.1 3.6 3.4v8.1h-1.5s-.02-7.56 0-7.6c0-1.7-1.1-2.5-2.4-2.5c-1.7 0-3.1 1.3-3.1 3.6c.02.03 0 6.5 0 6.5h-1.5v-7.6c0-1.7-1-2.5-2.4-2.5c-1.6 0-3 1.2-3 3.6c-.03.03 0 6.5 0 6.5h-1.6v-11.3zm25.7 9.2c-.9 1.7-2.6 2.3-4 2.3c-1.9 0-3.7-1.1-3.7-3.3c0-2.1 1.5-3.1 3.5-3.3l2.6-.4c.9-.1 1.6-.4 1.6-1.4c0-1.3-1.2-2-2.7-2c-1.7 0-2.8.8-3 2.1h-1.5c.3-2.3 2.1-3.4 4.6-3.4c2.5 0 4.1 1.2 4.1 3.7v7.8h-1.5v-2.1zm-1.9-3.4l-1.7.2c-1.4.2-2.5.7-2.5 2.1c0 1.4 1.1 2 2.3 2c1.8 0 3.8-1.3 3.8-3.7V185c-.5.3-1.1.4-1.9.5zm12.2-4.5s-.39.03-.4 0c-2.4 0-3.7 1.4-3.7 4c-.03 0 0 6 0 6H141v-11.3h1.5s.05 2.08 0 2.1c.6-1.5 1.9-2.2 3.7-2.2c-.02-.02.5 0 .5 0v1.4zm5.5 4.5l-2 2.1v3.4h-1.5v-16h1.5v10.7l5.5-6h2l-4.4 4.7l4.7 6.6h-1.8l-4-5.5zm8.2.2c0 2.8 1.8 4.1 3.8 4.1c1.4 0 2.9-.7 3.3-2.3h1.4c-.5 2.6-2.7 3.7-4.8 3.7c-2.7 0-5.2-1.8-5.2-5.8c0-4.1 2.5-5.9 5.2-5.9c2.7 0 4.9 1.7 4.9 5.5v.7h-8.6zm0-1.3h7c0-2.3-1.4-3.5-3.3-3.5c-1.8 0-3.5 1.1-3.7 3.5zm16.4 6.6s-1.7-.02-1.7 0c-1.5 0-2.8-.5-2.8-3c-.04.02 0-6.9 0-6.9H170v-1.4h2.3v-3.2l1.5-.4v3.6h2.7v1.4h-2.7v6.9c0 1 .3 1.6 1.5 1.6h1.5v1.4zm10.5-3.2c0 2.3-2 3.4-4.3 3.4c-2.4 0-4.6-1.2-4.9-3.7h1.7c.2 1.7 1.7 2.3 3.2 2.3c1.5 0 2.7-.5 2.7-1.8c0-1.3-1.3-1.6-2.6-1.8c-2.1-.4-4.7-.8-4.7-3.4c0-2.2 1.9-3.3 4.2-3.3c2.4 0 4.3 1.1 4.4 3.4h-1.6c-.1-1.4-1.4-2-2.8-2c-1.6 0-2.6.7-2.6 1.8c0 1.5 1.4 1.7 3.1 2c2 .3 4.2.6 4.2 3.1zm1.8 1h2.2v2.2h-2.2v-2.2z" stroke="none" fill="#fff"/></g><g id="Polygon10993"><path d="m6.8 165.8s-1.63-.02-1.6 0c-1.5 0-2.9-.5-2.9-3c.03.02 0-6.9 0-6.9H.1v-1.4h2.2v-3.2l1.6-.4v3.6h2.7v1.4H3.9s-.04 6.9 0 6.9c0 1 .3 1.6 1.5 1.6h1.4v1.4zm11.4-7.7v7.7h-1.5s-.05-7.56 0-7.6c0-1.5-.9-2.5-2.5-2.5c-2 0-3.6 1.4-3.6 4.2c-.04-.04 0 5.9 0 5.9H9v-16h1.6s-.04 6.68 0 6.7c.6-1.3 1.8-2.2 3.8-2.2c2.3 0 3.8 1.3 3.8 3.8zm10.2 5.6c-.9 1.7-2.6 2.3-4 2.3c-2 0-3.7-1.1-3.7-3.3c0-2.1 1.5-3.1 3.4-3.3l2.7-.4c.8-.1 1.6-.4 1.6-1.4c0-1.3-1.2-2-2.8-2c-1.7 0-2.7.8-2.9 2.1h-1.6c.4-2.3 2.2-3.4 4.6-3.4c2.6 0 4.2 1.2 4.2 3.7c-.04-.01 0 7.8 0 7.8h-1.5s-.03-2.08 0-2.1zm-1.9-3.4l-1.7.2c-1.4.2-2.5.7-2.5 2.1c0 1.4 1.1 2 2.3 2c1.8 0 3.7-1.3 3.7-3.7v-1.1c-.4.3-1 .4-1.8.5zm11.7 5.5s-1.7-.02-1.7 0c-1.5 0-2.8-.5-2.8-3c-.04.02 0-6.9 0-6.9h-2.3v-1.4h2.3v-3.2l1.5-.4v3.6h2.7v1.4h-2.7v6.9c0 1 .3 1.6 1.5 1.6h1.5v1.4zm7.8 0V150h9.9v1.4h-8.3v5.7h7.8v1.4h-7.8v5.8h8.7v1.5H46zm28.1 0h-1.6v-13.7l-5.3 13.7h-1.3l-5.2-13.6v13.6h-1.5V150h2.4l5 13.3l5.1-13.3h2.4v15.8zm17.2-3.2c0 2.3-2.1 3.4-4.4 3.4c-2.4 0-4.6-1.2-4.9-3.7h1.7c.2 1.7 1.7 2.3 3.2 2.3c1.5 0 2.8-.5 2.8-1.8c0-1.3-1.3-1.6-2.7-1.8c-2.1-.4-4.7-.8-4.7-3.4c0-2.2 2-3.3 4.3-3.3c2.4 0 4.2 1.1 4.4 3.4h-1.6c-.1-1.4-1.4-2-2.9-2c-1.5 0-2.6.7-2.6 1.8c0 1.5 1.4 1.7 3.1 2c2 .3 4.3.6 4.3 3.1zm11.6-4.5c.04-.05 0 7.7 0 7.7h-1.5v-7.6c0-1.5-.9-2.5-2.5-2.5c-1.9 0-3.6 1.4-3.6 4.2c.02-.04 0 5.9 0 5.9h-1.5v-16h1.5s.02 6.68 0 6.7c.7-1.3 1.9-2.2 3.9-2.2c2.3 0 3.7 1.3 3.7 3.8zm2.6 2.1c0-3.7 2.2-5.9 5.3-5.9c3.1 0 5.3 2.2 5.3 5.9c0 3.6-2.2 5.8-5.3 5.8c-3.1 0-5.3-2.2-5.3-5.8zm9.1-.1c0-2.8-1.7-4.4-3.8-4.4c-2.2 0-3.8 1.7-3.8 4.5c0 2.8 1.7 4.4 3.8 4.4c2.2 0 3.8-1.7 3.8-4.5zm11.6 5.7s-.01-2.16 0-2.2c-.8 1.6-2.2 2.3-3.8 2.3c-2.1 0-3.7-1.3-3.7-3.9c-.03-.04 0-7.5 0-7.5h1.5v7.3c0 1.8 1 2.8 2.5 2.8c1.8 0 3.4-1.4 3.4-4.3c.02.04 0-5.8 0-5.8h1.6v11.3h-1.5zm6.4 0H131v-16h1.6v16zm13.1 0h-1.5s.05-2.2 0-2.2c-.5 1.3-1.9 2.4-4 2.4c-2.9 0-5-2.3-5-5.9c0-3.5 2.1-5.8 5.1-5.8c1.9 0 3.3.9 3.9 2.1c-.02.02 0-6.6 0-6.6h1.5v16zm-1.5-5.7c0-2.8-1.6-4.4-3.8-4.4c-2.2 0-3.6 1.7-3.6 4.4c0 2.8 1.5 4.5 3.6 4.5c2.2 0 3.8-1.7 3.8-4.5zm19.7-2v7.7h-1.5s-.03-7.56 0-7.6c0-1.5-.9-2.5-2.5-2.5c-1.9 0-3.6 1.4-3.6 4.2c-.02-.04 0 5.9 0 5.9h-1.6v-11.3h1.6s-.02 2.1 0 2.1c.7-1.3 1.9-2.3 3.9-2.3c2.2 0 3.7 1.3 3.7 3.8zm2.5 2.1c0-3.7 2.2-5.9 5.4-5.9c3.1 0 5.3 2.2 5.3 5.9c0 3.6-2.2 5.8-5.3 5.8c-3.1 0-5.4-2.2-5.4-5.8zm9.1-.1c0-2.8-1.7-4.4-3.8-4.4c-2.2 0-3.7 1.7-3.7 4.5c0 2.8 1.7 4.4 3.8 4.4c2.2 0 3.7-1.7 3.7-4.5zm9.4 5.7s-1.68-.02-1.7 0c-1.5 0-2.8-.5-2.8-3v-6.9h-2.2v-1.4h2.2v-3.2l1.5-.4v3.6h2.8v1.4h-2.8s.02 6.9 0 6.9c0 1 .3 1.6 1.6 1.6h1.4v1.4zm18.2-5.7c0 3.5-2.1 5.9-5.1 5.9c-2.1 0-3.4-1.1-4-2.3c.02 0 0 2.1 0 2.1h-1.5v-16h1.6s-.02 6.97 0 7c.5-1.4 2-2.5 4-2.5c2.9 0 5 2.2 5 5.8zm-1.6.1c0-2.8-1.5-4.4-3.7-4.4c-2.1 0-3.7 1.6-3.7 4.4c0 2.8 1.5 4.5 3.7 4.5c2.2 0 3.7-1.8 3.7-4.5zm5 .3c0 2.8 1.7 4.1 3.7 4.1c1.5 0 3-.7 3.3-2.3h1.5c-.5 2.6-2.7 3.7-4.9 3.7c-2.6 0-5.1-1.8-5.1-5.8c0-4.1 2.5-5.9 5.2-5.9c2.7 0 4.9 1.7 4.9 5.5c-.04-.05 0 .7 0 .7h-8.6zm0-1.3h7c0-2.3-1.5-3.5-3.4-3.5c-1.7 0-3.4 1.1-3.6 3.5zm18.4-7.5h-1.7v-1.9h1.7v1.9zm-3.8 17s.64.04.6 0c1.3 0 1.6-.5 1.6-1.6v-12.6h1.5s.02 12.67 0 12.7c0 2.4-1.3 2.9-2.8 2.9c-.01.01-.9 0-.9 0v-1.4zm14.4-2.9s-.01-2.16 0-2.2c-.8 1.6-2.2 2.3-3.8 2.3c-2.1 0-3.7-1.3-3.7-3.9c-.03-.04 0-7.5 0-7.5h1.5v7.3c0 1.8 1 2.8 2.5 2.8c1.8 0 3.4-1.4 3.4-4.3c.03.04 0-5.8 0-5.8h1.6v11.3h-1.5zm14.6 0h-1.4s-.04-2.2 0-2.2c-.6 1.3-2 2.4-4.1 2.4c-2.9 0-5-2.3-5-5.9c0-3.5 2.1-5.8 5.1-5.8c1.9 0 3.3.9 3.9 2.1v-6.6h1.5v16zm-1.5-5.7c0-2.8-1.6-4.4-3.7-4.4c-2.2 0-3.7 1.7-3.7 4.4c0 2.8 1.5 4.5 3.7 4.5c2.1 0 3.7-1.7 3.7-4.5zm14.6 5.2c0 3.4-2.2 5.1-5.1 5.1c-2.5 0-4.7-1.3-5.1-3.9h1.6c.2 1.4 1.2 2.6 3.5 2.6c2.1 0 3.6-1.1 3.6-3.7v-2.3c-.8 1.7-2.5 2.3-4 2.3c-2.7 0-4.9-1.9-4.9-5.6c0-3.7 2.3-5.5 5-5.5c1.8 0 3.2.8 3.9 2c-.02.03 0-1.8 0-1.8h1.5v10.8zm-1.6-5.5c0-2.8-1.7-4.2-3.6-4.2c-1.9 0-3.7 1.4-3.7 4.2c0 2.8 1.7 4.2 3.7 4.2c1.8 0 3.6-1.2 3.6-4.2zm5.6.7c.1 2.8 1.8 4.1 3.8 4.1c1.5 0 2.9-.7 3.3-2.3h1.4c-.5 2.6-2.7 3.7-4.8 3.7c-2.7 0-5.2-1.8-5.2-5.8c0-4.1 2.6-5.9 5.3-5.9c2.6 0 4.8 1.7 4.8 5.5v.7h-8.6zm.1-1.3h7c0-2.3-1.5-3.5-3.4-3.5c-1.8 0-3.4 1.1-3.6 3.5zm20.9 6.6h-1.4s-.03-2.2 0-2.2c-.6 1.3-1.9 2.4-4 2.4c-3 0-5.1-2.3-5.1-5.9c0-3.5 2.1-5.8 5.1-5.8c1.9 0 3.3.9 3.9 2.1c.01.02 0-6.6 0-6.6h1.5v16zm-1.5-5.7c0-2.8-1.6-4.4-3.7-4.4c-2.2 0-3.7 1.7-3.7 4.4c0 2.8 1.5 4.5 3.7 4.5c2.2 0 3.7-1.7 3.7-4.5zm9.4.1c0-3.7 2.2-5.9 5.4-5.9c3.1 0 5.3 2.2 5.3 5.9c0 3.6-2.2 5.8-5.3 5.8c-3.1 0-5.4-2.2-5.4-5.8zm9.1-.1c0-2.8-1.7-4.4-3.8-4.4c-2.2 0-3.7 1.7-3.7 4.5c0 2.8 1.7 4.4 3.8 4.4c2.2 0 3.7-1.7 3.7-4.5zm13.4-2v7.7h-1.5s-.05-7.56 0-7.6c0-1.5-.9-2.5-2.5-2.5c-2 0-3.6 1.4-3.6 4.2c-.04-.04 0 5.9 0 5.9h-1.6v-11.3h1.6s-.04 2.1 0 2.1c.6-1.3 1.9-2.3 3.9-2.3c2.2 0 3.7 1.3 3.7 3.8zm13.8 7.7s-1.61-.02-1.6 0c-1.5 0-2.8-.5-2.8-3c-.05.02 0-6.9 0-6.9h-2.3v-1.4h2.3v-3.2l1.5-.4v3.6h2.7v1.4h-2.7v6.9c0 1 .3 1.6 1.5 1.6h1.4v1.4zm11.4-7.7v7.7h-1.5s-.02-7.56 0-7.6c0-1.5-.9-2.5-2.5-2.5c-1.9 0-3.6 1.4-3.6 4.2v5.9h-1.5v-16h1.5s-.01 6.68 0 6.7c.6-1.3 1.9-2.2 3.8-2.2c2.4 0 3.8 1.3 3.8 3.8zm4 2.4c.1 2.8 1.8 4.1 3.8 4.1c1.5 0 3-.7 3.3-2.3h1.4c-.5 2.6-2.6 3.7-4.8 3.7c-2.7 0-5.2-1.8-5.2-5.8c0-4.1 2.6-5.9 5.3-5.9c2.6 0 4.8 1.7 4.8 5.5c.03-.05 0 .7 0 .7h-8.6zm.1-1.3h7c0-2.3-1.5-3.5-3.4-3.5c-1.7 0-3.4 1.1-3.6 3.5zm24.4 3.4c0 2.3-2.1 3.4-4.4 3.4c-2.4 0-4.6-1.2-4.9-3.7h1.7c.2 1.7 1.7 2.3 3.2 2.3c1.5 0 2.8-.5 2.8-1.8c0-1.3-1.3-1.6-2.7-1.8c-2.1-.4-4.7-.8-4.7-3.4c0-2.2 1.9-3.3 4.3-3.3c2.4 0 4.2 1.1 4.4 3.4h-1.6c-.1-1.4-1.4-2-2.9-2c-1.5 0-2.6.7-2.6 1.8c0 1.5 1.4 1.7 3.1 2c2 .3 4.3.6 4.3 3.1zm9.4 1.1c-.9 1.7-2.6 2.3-4 2.3c-1.9 0-3.7-1.1-3.7-3.3c0-2.1 1.5-3.1 3.5-3.3l2.6-.4c.9-.1 1.6-.4 1.6-1.4c0-1.3-1.1-2-2.7-2c-1.7 0-2.7.8-3 2.1h-1.5c.3-2.3 2.1-3.4 4.6-3.4c2.6 0 4.1 1.2 4.1 3.7v7.8h-1.5v-2.1zm-1.9-3.4l-1.7.2c-1.4.2-2.5.7-2.5 2.1c0 1.4 1.1 2 2.4 2c1.7 0 3.7-1.3 3.7-3.7v-1.1c-.4.3-1.1.4-1.9.5zm6.6-5.8h1.5s-.03 1.87 0 1.9c.6-1.4 1.8-2.1 3.2-2.1c1.7 0 3 .9 3.4 2.3c.5-1.2 1.7-2.3 3.7-2.3c2 0 3.6 1.1 3.6 3.4c.03 0 0 8.1 0 8.1h-1.5v-7.6c0-1.7-1.1-2.5-2.4-2.5c-1.7 0-3.1 1.3-3.1 3.6c.04.03 0 6.5 0 6.5h-1.5s.03-7.56 0-7.6c0-1.7-1-2.5-2.3-2.5c-1.7 0-3.1 1.2-3.1 3.6v6.5h-1.5v-11.3zm19.5 6c0 2.8 1.7 4.1 3.7 4.1c1.5 0 3-.7 3.3-2.3h1.5c-.5 2.6-2.7 3.7-4.9 3.7c-2.7 0-5.1-1.8-5.1-5.8c0-4.1 2.5-5.9 5.2-5.9c2.7 0 4.9 1.7 4.9 5.5c-.05-.05 0 .7 0 .7h-8.6zm0-1.3h7c0-2.3-1.5-3.5-3.4-3.5c-1.7 0-3.4 1.1-3.6 3.5zm26.9.9c0 3.5-2.1 5.9-5.1 5.9c-2 0-3.3-1.1-3.9-2.3v2.1h-1.5v-16h1.6s-.04 6.97 0 7c.5-1.4 2-2.5 4-2.5c2.9 0 4.9 2.2 4.9 5.8zm-1.5.1c0-2.8-1.5-4.4-3.7-4.4c-2.2 0-3.7 1.6-3.7 4.4c0 2.8 1.5 4.5 3.7 4.5c2.2 0 3.7-1.8 3.7-4.5zm11.1 3.5c-.9 1.7-2.6 2.3-4 2.3c-1.9 0-3.7-1.1-3.7-3.3c0-2.1 1.5-3.1 3.5-3.3l2.6-.4c.9-.1 1.6-.4 1.6-1.4c0-1.3-1.2-2-2.7-2c-1.7 0-2.8.8-3 2.1h-1.5c.3-2.3 2.1-3.4 4.6-3.4c2.5 0 4.1 1.2 4.1 3.7v7.8h-1.5v-2.1zm-1.9-3.4l-1.7.2c-1.4.2-2.5.7-2.5 2.1c0 1.4 1.1 2 2.3 2c1.8 0 3.8-1.3 3.8-3.7v-1.1c-.5.3-1.1.4-1.9.5zm14.9 2.3c0 2.3-2.1 3.4-4.3 3.4c-2.4 0-4.7-1.2-4.9-3.7h1.6c.3 1.7 1.8 2.3 3.3 2.3c1.4 0 2.7-.5 2.7-1.8c0-1.3-1.3-1.6-2.6-1.8c-2.2-.4-4.7-.8-4.7-3.4c0-2.2 1.9-3.3 4.2-3.3c2.4 0 4.3 1.1 4.4 3.4h-1.6c-.1-1.4-1.4-2-2.8-2c-1.6 0-2.6.7-2.6 1.8c0 1.5 1.3 1.7 3 2c2.1.3 4.3.6 4.3 3.1zm4.2-12.8h-1.8v1.9h1.8v-1.9zm-.1 16h-1.6v-11.3h1.6v11.3zm11.7-3.2c0 2.3-2.1 3.4-4.3 3.4c-2.4 0-4.7-1.2-4.9-3.7h1.6c.3 1.7 1.8 2.3 3.3 2.3c1.4 0 2.7-.5 2.7-1.8c0-1.3-1.3-1.6-2.6-1.8c-2.2-.4-4.7-.8-4.7-3.4c0-2.2 1.9-3.3 4.2-3.3c2.4 0 4.3 1.1 4.4 3.4h-1.6c-.1-1.4-1.4-2-2.9-2c-1.5 0-2.5.7-2.5 1.8c0 1.5 1.3 1.7 3 2c2.1.3 4.3.6 4.3 3.1zm14.7 1.1c-.9 1.7-2.6 2.3-4 2.3c-1.9 0-3.7-1.1-3.7-3.3c0-2.1 1.5-3.1 3.5-3.3l2.6-.4c.9-.1 1.6-.4 1.6-1.4c0-1.3-1.1-2-2.7-2c-1.7 0-2.7.8-3 2.1h-1.5c.3-2.3 2.1-3.4 4.6-3.4c2.6 0 4.1 1.2 4.1 3.7v7.8h-1.5v-2.1zm-1.9-3.4l-1.7.2c-1.4.2-2.5.7-2.5 2.1c0 1.4 1.1 2 2.4 2c1.7 0 3.7-1.3 3.7-3.7v-1.1c-.4.3-1.1.4-1.9.5zm14.9 2.3c0 2.3-2 3.4-4.3 3.4c-2.4 0-4.7-1.2-4.9-3.7h1.7c.2 1.7 1.7 2.3 3.2 2.3c1.5 0 2.7-.5 2.7-1.8c0-1.3-1.3-1.6-2.6-1.8c-2.1-.4-4.7-.8-4.7-3.4c0-2.2 1.9-3.3 4.2-3.3c2.4 0 4.3 1.1 4.4 3.4H497c-.1-1.4-1.4-2-2.8-2c-1.6 0-2.6.7-2.6 1.8c0 1.5 1.3 1.7 3.1 2c2 .3 4.2.6 4.2 3.1z" stroke="none" fill="#fff"/></g><g id="Polygon10992"><path d="m3.3 124.6H1.6v1.9h1.7v-1.9zm-.1 16H1.7v-11.3h1.5v11.3zm12.5-7.7c.03-.05 0 7.7 0 7.7h-1.5V133c0-1.5-.9-2.5-2.5-2.5c-1.9 0-3.6 1.4-3.6 4.2v5.9H6.6v-11.3h1.5v2.1c.7-1.3 1.9-2.3 3.9-2.3c2.3 0 3.7 1.3 3.7 3.8zm7.8 7.7h-1.7l-4.2-11.3h1.7l3.4 9.7l3.4-9.7h1.6l-4.2 11.3zm6.7-5.3c.1 2.8 1.8 4.1 3.8 4.1c1.5 0 2.9-.7 3.3-2.3h1.4c-.5 2.6-2.7 3.7-4.8 3.7c-2.7 0-5.2-1.8-5.2-5.8c0-4.1 2.5-5.9 5.3-5.9c2.6 0 4.8 1.7 4.8 5.5v.7h-8.6zm.1-1.3h7c0-2.3-1.5-3.5-3.4-3.5c-1.8 0-3.4 1.1-3.6 3.5zm19.5 3.4c0 2.3-2.1 3.4-4.3 3.4c-2.5 0-4.7-1.2-4.9-3.7h1.6c.3 1.7 1.8 2.3 3.3 2.3c1.4 0 2.7-.5 2.7-1.8c0-1.3-1.3-1.6-2.6-1.8c-2.2-.4-4.7-.8-4.7-3.4c0-2.2 1.9-3.3 4.2-3.3c2.4 0 4.3 1.1 4.4 3.4h-1.6c-.1-1.4-1.4-2-2.9-2c-1.5 0-2.5.7-2.5 1.8c0 1.5 1.3 1.7 3 2c2.1.3 4.3.6 4.3 3.1zm7.7 3.2s-1.68-.02-1.7 0c-1.5 0-2.8-.5-2.8-3c-.02.02 0-6.9 0-6.9h-2.2v-1.4h2.2v-3.2l1.5-.4v3.6h2.7v1.4h-2.7s.02 6.9 0 6.9c0 1 .3 1.6 1.6 1.6h1.4v1.4zm1.4-5.6c0-3.7 2.3-5.9 5.4-5.9c3.1 0 5.3 2.2 5.3 5.9c0 3.6-2.2 5.8-5.3 5.8c-3.1 0-5.4-2.2-5.4-5.8zm9.2-.1c0-2.8-1.7-4.4-3.8-4.4c-2.2 0-3.8 1.7-3.8 4.5c0 2.8 1.7 4.4 3.8 4.4c2.2 0 3.8-1.7 3.8-4.5zm9.8-4.3s-.37.03-.4 0c-2.4 0-3.7 1.4-3.7 4v6h-1.5v-11.3h1.5s-.03 2.08 0 2.1c.5-1.5 1.9-2.2 3.6-2.2c.01-.02.5 0 .5 0v1.4zm10.4 6.8c0 2.3-2.1 3.4-4.4 3.4c-2.4 0-4.6-1.2-4.9-3.7h1.7c.2 1.7 1.7 2.3 3.2 2.3c1.5 0 2.8-.5 2.8-1.8c0-1.3-1.3-1.6-2.7-1.8c-2.1-.4-4.7-.8-4.7-3.4c0-2.2 1.9-3.3 4.3-3.3c2.4 0 4.2 1.1 4.4 3.4h-1.6c-.1-1.4-1.4-2-2.9-2c-1.5 0-2.6.7-2.6 1.8c0 1.5 1.4 1.7 3.1 2c2 .3 4.3.6 4.3 3.1zm1.7 1h2.2v2.2H90v-2.2zm23.8 2.2h-1.6l-3.9-13.3l-4 13.3h-1.6l-4.1-15.8h1.7l3.2 13.5l4-13.5h1.6l3.9 13.5l3.3-13.5h1.6l-4.1 15.8zm6.2-5.3c0 2.8 1.7 4.1 3.7 4.1c1.5 0 3-.7 3.3-2.3h1.5c-.5 2.6-2.7 3.7-4.9 3.7c-2.7 0-5.2-1.8-5.2-5.8c0-4.1 2.6-5.9 5.3-5.9c2.7 0 4.8 1.7 4.8 5.5c.04-.05 0 .7 0 .7c0 0-8.55.01-8.5 0zm0-1.3h7c0-2.3-1.5-3.5-3.4-3.5c-1.7 0-3.4 1.1-3.6 3.5zm21.4 6.6s-1.71-.02-1.7 0c-1.5 0-2.8-.5-2.8-3c-.04.02 0-6.9 0-6.9h-2.3v-1.4h2.3v-3.2l1.5-.4v3.6h2.7v1.4h-2.7v6.9c0 1 .3 1.6 1.5 1.6h1.5v1.4zm11.3-7.7v7.7h-1.5s-.02-7.56 0-7.6c0-1.5-.9-2.5-2.5-2.5c-1.9 0-3.6 1.4-3.6 4.2v5.9h-1.5v-16h1.5s-.01 6.68 0 6.7c.6-1.3 1.9-2.2 3.9-2.2c2.3 0 3.7 1.3 3.7 3.8zm4.9-8.3h-1.7v1.9h1.7v-1.9zm-.1 16H156v-11.3h1.5v11.3zm12.5-7.7v7.7h-1.5s-.02-7.56 0-7.6c0-1.5-.9-2.5-2.5-2.5c-1.9 0-3.6 1.4-3.6 4.2v5.9h-1.5v-11.3h1.5v2.1c.7-1.3 1.9-2.3 3.9-2.3c2.2 0 3.7 1.3 3.7 3.8zm6.8 2.2l-2 2.1v3.4h-1.5v-16h1.5v10.7l5.5-6h2l-4.4 4.7l4.8 6.6h-1.9l-4-5.5zm18.2 5.5s-1.61-.02-1.6 0c-1.5 0-2.8-.5-2.8-3c-.05.02 0-6.9 0-6.9h-2.3v-1.4h2.3v-3.2l1.5-.4v3.6h2.7v1.4h-2.7v6.9c0 1 .3 1.6 1.5 1.6h1.4v1.4zm11.4-7.7v7.7h-1.5s-.03-7.56 0-7.6c0-1.5-.9-2.5-2.5-2.5c-1.9 0-3.6 1.4-3.6 4.2c-.02-.04 0 5.9 0 5.9h-1.5v-16h1.5s-.02 6.68 0 6.7c.6-1.3 1.9-2.2 3.8-2.2c2.4 0 3.8 1.3 3.8 3.8zm4 2.4c.1 2.8 1.8 4.1 3.8 4.1c1.5 0 3-.7 3.3-2.3h1.4c-.5 2.6-2.6 3.7-4.8 3.7c-2.7 0-5.2-1.8-5.2-5.8c0-4.1 2.6-5.9 5.3-5.9c2.6 0 4.8 1.7 4.8 5.5c.03-.05 0 .7 0 .7h-8.6zm.1-1.3h7c0-2.3-1.5-3.5-3.4-3.5c-1.8 0-3.4 1.1-3.6 3.5zm24.4 3.4c0 2.3-2.1 3.4-4.4 3.4c-2.4 0-4.6-1.2-4.9-3.7h1.7c.2 1.7 1.7 2.3 3.2 2.3c1.5 0 2.8-.5 2.8-1.8c0-1.3-1.3-1.6-2.7-1.8c-2.1-.4-4.7-.8-4.7-3.4c0-2.2 1.9-3.3 4.3-3.3c2.4 0 4.2 1.1 4.4 3.4H233c-.1-1.4-1.4-2-2.9-2c-1.5 0-2.6.7-2.6 1.8c0 1.5 1.4 1.7 3.1 2c2 .3 4.3.6 4.3 3.1zm7.6 3.2s-1.63-.02-1.6 0c-1.5 0-2.9-.5-2.9-3c.03.02 0-6.9 0-6.9h-2.2v-1.4h2.2v-3.2l1.6-.4v3.6h2.7v1.4h-2.7s-.03 6.9 0 6.9c0 1 .3 1.6 1.5 1.6h1.4v1.4zm9.2-2.1c-.9 1.7-2.6 2.3-4 2.3c-2 0-3.7-1.1-3.7-3.3c0-2.1 1.5-3.1 3.4-3.3l2.7-.4c.8-.1 1.6-.4 1.6-1.4c0-1.3-1.2-2-2.8-2c-1.7 0-2.7.8-2.9 2.1h-1.6c.4-2.3 2.2-3.4 4.6-3.4c2.6 0 4.2 1.2 4.2 3.7c-.05-.01 0 7.8 0 7.8h-1.5s-.04-2.08 0-2.1zm-1.9-3.4l-1.7.2c-1.5.2-2.5.7-2.5 2.1c0 1.4 1.1 2 2.3 2c1.8 0 3.7-1.3 3.7-3.7v-1.1c-.4.3-1.1.4-1.8.5zm12.1-4.5s-.33.03-.3 0c-2.4 0-3.8 1.4-3.8 4c.04 0 0 6 0 6h-1.5v-11.3h1.5v2.1c.5-1.5 1.9-2.2 3.6-2.2c.05-.02.5 0 .5 0v1.4zm7.6 10s-1.67-.02-1.7 0c-1.5 0-2.8-.5-2.8-3v-6.9h-2.2v-1.4h2.2v-3.2l1.5-.4v3.6h2.8v1.4h-2.8s.03 6.9 0 6.9c0 1 .3 1.6 1.6 1.6h1.4v1.4zm3.8-16h-1.7v1.9h1.7v-1.9zm-.1 16h-1.5v-11.3h1.5v11.3zm12.5-7.7c.04-.05 0 7.7 0 7.7h-1.5V133c0-1.5-.9-2.5-2.5-2.5c-1.9 0-3.6 1.4-3.6 4.2c.02-.04 0 5.9 0 5.9h-1.5v-11.3h1.5s.02 2.1 0 2.1c.7-1.3 2-2.3 3.9-2.3c2.3 0 3.7 1.3 3.7 3.8zm13 7.2c0 3.4-2.2 5.1-5.1 5.1c-2.5 0-4.7-1.3-5.1-3.9h1.6c.2 1.4 1.3 2.6 3.5 2.6c2.1 0 3.6-1.1 3.6-3.7v-2.3c-.8 1.7-2.5 2.3-4 2.3c-2.7 0-4.9-1.9-4.9-5.6c0-3.7 2.3-5.5 5-5.5c1.8 0 3.2.8 3.9 2c-.01.03 0-1.8 0-1.8h1.5v10.8zm-1.6-5.5c0-2.8-1.7-4.2-3.6-4.2c-1.9 0-3.7 1.4-3.7 4.2c0 2.8 1.7 4.2 3.7 4.2c1.8 0 3.6-1.2 3.6-4.2zm21 .3c0 4.1-2.5 5.8-5.1 5.8c-2 0-3.2-.9-3.8-2.1c-.04.03 0 6.3 0 6.3h-1.6v-15.6h1.5s.02 2.38 0 2.4c.5-1.4 2-2.6 4-2.6c2.5 0 5 1.7 5 5.8zm-1.5 0c0-3.1-1.8-4.3-3.7-4.3c-1.9 0-3.7 1.2-3.7 4.4c0 3.1 1.8 4.3 3.7 4.3c1.8 0 3.7-1.2 3.7-4.4zm3.4.1c0-3.7 2.3-5.9 5.4-5.9c3.1 0 5.3 2.2 5.3 5.9c0 3.6-2.2 5.8-5.3 5.8c-3.1 0-5.4-2.2-5.4-5.8zm9.1-.1c0-2.8-1.7-4.4-3.8-4.4c-2.2 0-3.7 1.7-3.7 4.5c0 2.8 1.7 4.4 3.8 4.4c2.2 0 3.7-1.7 3.7-4.5zm5.9-10.3h-1.8v1.9h1.8v-1.9zm-.1 16h-1.6v-11.3h1.6v11.3zm12.5-7.7v7.7h-1.5s-.03-7.56 0-7.6c0-1.5-.9-2.5-2.5-2.5c-1.9 0-3.6 1.4-3.6 4.2c-.02-.04 0 5.9 0 5.9h-1.6v-11.3h1.6s-.02 2.1 0 2.1c.6-1.3 1.9-2.3 3.9-2.3c2.2 0 3.7 1.3 3.7 3.8zm8.4 7.7s-1.66-.02-1.7 0c-1.5 0-2.8-.5-2.8-3v-6.9h-2.2v-1.4h2.2v-3.2l1.5-.4v3.6h2.8v1.4h-2.8s.04 6.9 0 6.9c0 1 .3 1.6 1.6 1.6h1.4v1.4zm9.3-16h-1.7v1.9h1.7v-1.9zm-.1 16h-1.5v-11.3h1.5v11.3zm11.7-3.2c0 2.3-2 3.4-4.3 3.4c-2.4 0-4.7-1.2-4.9-3.7h1.7c.2 1.7 1.7 2.3 3.2 2.3c1.5 0 2.7-.5 2.7-1.8c0-1.3-1.3-1.6-2.6-1.8c-2.1-.4-4.7-.8-4.7-3.4c0-2.2 1.9-3.3 4.2-3.3c2.4 0 4.3 1.1 4.4 3.4h-1.6c-.1-1.4-1.4-2-2.8-2c-1.6 0-2.6.7-2.6 1.8c0 1.5 1.3 1.7 3.1 2c2 .3 4.2.6 4.2 3.1zm12.7 3.2s-1.62-.02-1.6 0c-1.5 0-2.9-.5-2.9-3c.05.02 0-6.9 0-6.9h-2.2v-1.4h2.2v-3.2l1.6-.4v3.6h2.7v1.4h-2.7s-.02 6.9 0 6.9c0 1 .3 1.6 1.5 1.6h1.4v1.4zm1.5-5.6c0-3.7 2.2-5.9 5.3-5.9c3.2 0 5.4 2.2 5.4 5.9c0 3.6-2.2 5.8-5.3 5.8c-3.1 0-5.4-2.2-5.4-5.8zm9.1-.1c0-2.8-1.7-4.4-3.8-4.4c-2.2 0-3.7 1.7-3.7 4.5c0 2.8 1.7 4.4 3.8 4.4c2.2 0 3.7-1.7 3.7-4.5zm16.4 3.6c-.9 1.7-2.6 2.3-4 2.3c-1.9 0-3.7-1.1-3.7-3.3c0-2.1 1.5-3.1 3.5-3.3l2.6-.4c.9-.1 1.6-.4 1.6-1.4c0-1.3-1.2-2-2.7-2c-1.7 0-2.8.8-3 2.1h-1.5c.3-2.3 2.1-3.4 4.6-3.4c2.5 0 4.1 1.2 4.1 3.7v7.8h-1.5v-2.1zm-1.9-3.4l-1.7.2c-1.4.2-2.5.7-2.5 2.1c0 1.4 1.1 2 2.3 2c1.8 0 3.8-1.3 3.8-3.7v-1.1c-.5.3-1.1.4-1.9.5zm11 5.7c-3.1 0-5.2-2.3-5.2-5.8c0-3.6 2.1-5.9 5.4-5.9c2.5 0 4.5 1.4 4.6 3.9h-1.5c-.1-1.6-1.5-2.5-3.2-2.5c-2.2 0-3.7 1.7-3.7 4.4c0 2.8 1.5 4.5 3.7 4.5c1.7 0 3.1-1 3.2-2.8h1.5c-.1 2.7-2.3 4.2-4.8 4.2zm11.9 0c-3.1 0-5.2-2.3-5.2-5.8c0-3.6 2.1-5.9 5.4-5.9c2.5 0 4.5 1.4 4.6 3.9h-1.5c-.1-1.6-1.5-2.5-3.2-2.5c-2.2 0-3.7 1.7-3.7 4.4c0 2.8 1.5 4.5 3.7 4.5c1.7 0 3.1-1 3.2-2.8h1.5c-.1 2.7-2.3 4.2-4.8 4.2zm8.2-5.5c.1 2.8 1.8 4.1 3.8 4.1c1.5 0 3-.7 3.3-2.3h1.4c-.5 2.6-2.6 3.7-4.8 3.7c-2.7 0-5.2-1.8-5.2-5.8c0-4.1 2.6-5.9 5.3-5.9c2.6 0 4.8 1.7 4.8 5.5c.02-.05 0 .7 0 .7h-8.6zm.1-1.3h7c0-2.3-1.5-3.5-3.4-3.5c-1.8 0-3.4 1.1-3.6 3.5zm21.7.9c0 4.1-2.6 5.8-5.2 5.8c-1.9 0-3.2-.9-3.8-2.1c-.02.03 0 6.3 0 6.3h-1.6v-15.6h1.5s.04 2.38 0 2.4c.5-1.4 2-2.6 4.1-2.6c2.4 0 5 1.7 5 5.8zm-1.6 0c0-3.1-1.8-4.3-3.7-4.3c-1.8 0-3.7 1.2-3.7 4.4c0 3.1 1.8 4.3 3.7 4.3c1.9 0 3.7-1.2 3.7-4.4zm9.3 5.7s-1.62-.02-1.6 0c-1.5 0-2.9-.5-2.9-3c.05.02 0-6.9 0-6.9h-2.2v-1.4h2.2v-3.2l1.6-.4v3.6h2.7v1.4h-2.7s-.02 6.9 0 6.9c0 1 .3 1.6 1.5 1.6h1.4v1.4z" stroke="none" fill="#fff"/></g><g id="Polygon10991"><path d="m5.2 109.9l-2 2.1v3.4H1.7v-16h1.5v10.7l5.6-6h1.9l-4.4 4.7l4.8 6.6H9.2l-4-5.5zm8.2.2c.1 2.8 1.8 4.1 3.8 4.1c1.5 0 2.9-.7 3.3-2.3h1.4c-.5 2.6-2.7 3.7-4.8 3.7c-2.7 0-5.2-1.8-5.2-5.8c0-4.1 2.5-5.9 5.3-5.9c2.6 0 4.8 1.7 4.8 5.5v.7h-8.6zm.1-1.3h7c0-2.3-1.5-3.5-3.4-3.5c-1.8 0-3.4 1.1-3.6 3.5zm14.5 8.7c-.5 1.2-1.5 1.6-2.7 1.6c.05-.02-1.1 0-1.1 0v-1.4s.94.01.9 0c1 0 1.5-.3 1.8-1.3c.04-.01.6-1.5.6-1.5l-4.2-10.8h1.6l3.3 8.9l3.3-8.9h1.6s-5.15 13.42-5.1 13.4zm16.4-1.9c-3.1 0-5.3-2.3-5.3-5.8c0-3.6 2.1-5.9 5.4-5.9c2.5 0 4.5 1.4 4.7 3.9h-1.5c-.2-1.6-1.6-2.5-3.2-2.5c-2.2 0-3.8 1.7-3.8 4.4c0 2.8 1.6 4.5 3.8 4.5c1.7 0 3-1 3.1-2.8h1.6c-.2 2.7-2.3 4.2-4.8 4.2zm13-10.2s-.34.03-.3 0c-2.4 0-3.8 1.4-3.8 4c.02 0 0 6 0 6h-1.5v-11.3h1.5v2.1c.5-1.5 1.9-2.2 3.6-2.2c.03-.02.5 0 .5 0v1.4zm3.6-6h-1.7v1.9h1.7v-1.9zm-.1 16h-1.5v-11.3h1.5v11.3zm8.5 0s-1.61-.02-1.6 0c-1.5 0-2.8-.5-2.8-3c-.05.02 0-6.9 0-6.9h-2.3v-1.4h2.3v-3.2l1.5-.4v3.6h2.7v1.4h-2.7s-.02 6.9 0 6.9c0 1 .3 1.6 1.5 1.6h1.4v1.4zm3-5.3c.1 2.8 1.8 4.1 3.8 4.1c1.5 0 2.9-.7 3.3-2.3h1.4c-.5 2.6-2.7 3.7-4.8 3.7c-2.7 0-5.2-1.8-5.2-5.8c0-4.1 2.6-5.9 5.3-5.9c2.6 0 4.8 1.7 4.8 5.5c.02-.05 0 .7 0 .7h-8.6zm.1-1.3h7c0-2.3-1.5-3.5-3.4-3.5c-1.8 0-3.4 1.1-3.6 3.5zm16.8-3.4s-.39.03-.4 0c-2.4 0-3.7 1.4-3.7 4c-.03 0 0 6 0 6h-1.6v-11.3h1.6s-.05 2.08 0 2.1c.5-1.5 1.8-2.2 3.6-2.2c-.01-.02.5 0 .5 0v1.4zm3.6-6h-1.7v1.9h1.7v-1.9zm-.1 16h-1.5v-11.3h1.5v11.3zm2.6-5.6c0-3.7 2.2-5.9 5.4-5.9c3.1 0 5.3 2.2 5.3 5.9c0 3.6-2.2 5.8-5.3 5.8c-3.1 0-5.4-2.2-5.4-5.8zm9.1-.1c0-2.8-1.7-4.4-3.8-4.4c-2.2 0-3.7 1.7-3.7 4.5c0 2.8 1.7 4.4 3.8 4.4c2.2 0 3.7-1.7 3.7-4.5zm13.4-2v7.7h-1.5s-.04-7.56 0-7.6c0-1.5-.9-2.5-2.5-2.5c-2 0-3.6 1.4-3.6 4.2c-.03-.04 0 5.9 0 5.9h-1.6v-11.3h1.6s-.03 2.1 0 2.1c.6-1.3 1.9-2.3 3.9-2.3c2.2 0 3.7 1.3 3.7 3.8zm10.6-8.3h-1.8v1.9h1.8v-1.9zm-.2 16h-1.5v-11.3h1.5v11.3zm12.6-7.7c-.03-.05 0 7.7 0 7.7h-1.6s.03-7.56 0-7.6c0-1.5-.8-2.5-2.4-2.5c-2 0-3.7 1.4-3.7 4.2c.04-.04 0 5.9 0 5.9h-1.5v-11.3h1.5s.04 2.1 0 2.1c.7-1.3 2-2.3 3.9-2.3c2.3 0 3.8 1.3 3.8 3.8zm13.8 7.7s-1.63-.02-1.6 0c-1.5 0-2.9-.5-2.9-3c.03.02 0-6.9 0-6.9H148v-1.4h2.2v-3.2l1.6-.4v3.6h2.7v1.4h-2.7s-.04 6.9 0 6.9c0 1 .3 1.6 1.5 1.6h1.4v1.4zm11.4-7.7v7.7h-1.5s-.05-7.56 0-7.6c0-1.5-.9-2.5-2.5-2.5c-2 0-3.6 1.4-3.6 4.2c-.04-.04 0 5.9 0 5.9h-1.6v-16h1.6s-.04 6.68 0 6.7c.6-1.3 1.8-2.2 3.8-2.2c2.3 0 3.8 1.3 3.8 3.8zm4 2.4c.1 2.8 1.8 4.1 3.8 4.1c1.5 0 2.9-.7 3.3-2.3h1.4c-.5 2.6-2.7 3.7-4.8 3.7c-2.7 0-5.2-1.8-5.2-5.8c0-4.1 2.5-5.9 5.3-5.9c2.6 0 4.8 1.7 4.8 5.5v.7h-8.6zm.1-1.3h7c0-2.3-1.5-3.5-3.4-3.5c-1.8 0-3.4 1.1-3.6 3.5zm25.8 6.6h-1.5v-2.2c-.5 1.3-1.9 2.4-4 2.4c-3 0-5.1-2.3-5.1-5.9c0-3.5 2.1-5.8 5.1-5.8c1.9 0 3.3.9 3.9 2.1c.04.02 0-6.6 0-6.6h1.6v16zm-1.6-5.7c0-2.8-1.5-4.4-3.7-4.4c-2.2 0-3.7 1.7-3.7 4.4c0 2.8 1.5 4.5 3.7 4.5c2.2 0 3.7-1.7 3.7-4.5zm5.7.4c0 2.8 1.8 4.1 3.8 4.1c1.5 0 2.9-.7 3.3-2.3h1.4c-.5 2.6-2.7 3.7-4.8 3.7c-2.7 0-5.2-1.8-5.2-5.8c0-4.1 2.5-5.9 5.2-5.9c2.7 0 4.9 1.7 4.9 5.5v.7h-8.6zm0-1.3h7c0-2.3-1.4-3.5-3.3-3.5c-1.8 0-3.4 1.1-3.7 3.5zm15.7 6.8c-3.1 0-5.2-2.3-5.2-5.8c0-3.6 2.1-5.9 5.3-5.9c2.5 0 4.5 1.4 4.7 3.9h-1.5c-.2-1.6-1.5-2.5-3.2-2.5c-2.2 0-3.8 1.7-3.8 4.4c0 2.8 1.6 4.5 3.8 4.5c1.7 0 3.1-1 3.2-2.8h1.5c-.2 2.7-2.3 4.2-4.8 4.2zm9.1-16.2h-1.8v1.9h1.8v-1.9zm-.1 16h-1.6v-11.3h1.6v11.3zm11.7-3.2c0 2.3-2.1 3.4-4.3 3.4c-2.5 0-4.7-1.2-4.9-3.7h1.6c.3 1.7 1.7 2.3 3.3 2.3c1.4 0 2.7-.5 2.7-1.8c0-1.3-1.3-1.6-2.6-1.8c-2.2-.4-4.7-.8-4.7-3.4c0-2.2 1.9-3.3 4.2-3.3c2.4 0 4.3 1.1 4.4 3.4h-1.6c-.1-1.4-1.4-2-2.9-2c-1.5 0-2.6.7-2.6 1.8c0 1.5 1.4 1.7 3.1 2c2.1.3 4.3.6 4.3 3.1zm4.2-12.8h-1.8v1.9h1.8v-1.9zm-.1 16H239v-11.3h1.6v11.3zm2.6-5.6c0-3.7 2.2-5.9 5.3-5.9c3.1 0 5.4 2.2 5.4 5.9c0 3.6-2.3 5.8-5.4 5.8c-3.1 0-5.3-2.2-5.3-5.8zm9.1-.1c0-2.8-1.7-4.4-3.8-4.4c-2.2 0-3.7 1.7-3.7 4.5c0 2.8 1.7 4.4 3.8 4.4c2.1 0 3.7-1.7 3.7-4.5zm13.3-2c.05-.05 0 7.7 0 7.7h-1.5v-7.6c0-1.5-.9-2.5-2.5-2.5c-1.9 0-3.6 1.4-3.6 4.2c.02-.04 0 5.9 0 5.9h-1.5v-11.3h1.5s.02 2.1 0 2.1c.7-1.3 2-2.3 3.9-2.3c2.3 0 3.7 1.3 3.7 3.8zm2.7 1.6v-1.4h6.4v1.4h-6.4zm9.2-5.2h1.5s-.02 1.87 0 1.9c.6-1.4 1.8-2.1 3.3-2.1c1.6 0 2.9.9 3.3 2.3c.5-1.2 1.7-2.3 3.7-2.3c2 0 3.6 1.1 3.6 3.4c.05 0 0 8.1 0 8.1h-1.5v-7.6c0-1.7-1.1-2.5-2.4-2.5c-1.7 0-3 1.3-3 3.6c-.05.03 0 6.5 0 6.5h-1.6s.04-7.56 0-7.6c0-1.7-1-2.5-2.3-2.5c-1.7 0-3.1 1.2-3.1 3.6v6.5h-1.5v-11.3zm25.6 9.2c-.9 1.7-2.6 2.3-4 2.3c-1.9 0-3.6-1.1-3.6-3.3c0-2.1 1.5-3.1 3.4-3.3l2.7-.4c.8-.1 1.5-.4 1.5-1.4c0-1.3-1.1-2-2.7-2c-1.7 0-2.7.8-3 2.1h-1.5c.3-2.3 2.1-3.4 4.6-3.4c2.6 0 4.1 1.2 4.1 3.7c.02-.01 0 7.8 0 7.8h-1.5s.03-2.08 0-2.1zm-1.8-3.4l-1.8.2c-1.4.2-2.5.7-2.5 2.1c0 1.4 1.1 2 2.4 2c1.7 0 3.7-1.3 3.7-3.7v-1.1c-.4.3-1.1.4-1.8.5zm10 0l-2 2.1v3.4h-1.5v-16h1.5v10.7l5.5-6h2l-4.4 4.7l4.8 6.6h-1.9l-4-5.5zm9.7-10.5h-1.7v1.9h1.7v-1.9zm-.1 16h-1.5v-11.3h1.5v11.3zm12.5-7.7v7.7h-1.5s-.02-7.56 0-7.6c0-1.5-.9-2.5-2.5-2.5c-1.9 0-3.6 1.4-3.6 4.2v5.9h-1.5v-11.3h1.5v2.1c.7-1.3 1.9-2.3 3.9-2.3c2.2 0 3.7 1.3 3.7 3.8zm13 7.2c0 3.4-2.2 5.1-5.1 5.1c-2.5 0-4.8-1.3-5.1-3.9h1.5c.3 1.4 1.3 2.6 3.6 2.6c2 0 3.6-1.1 3.6-3.7v-2.3c-.8 1.7-2.5 2.3-4 2.3c-2.7 0-5-1.9-5-5.6c0-3.7 2.4-5.5 5.1-5.5c1.8 0 3.2.8 3.9 2c-.04.03 0-1.8 0-1.8h1.5s-.03 10.78 0 10.8zm-1.6-5.5c0-2.8-1.7-4.2-3.6-4.2c-2 0-3.8 1.4-3.8 4.2c0 2.8 1.8 4.2 3.8 4.2c1.8 0 3.6-1.2 3.6-4.2zm21 .3c0 4.1-2.6 5.8-5.2 5.8c-1.9 0-3.1-.9-3.8-2.1c.03.03 0 6.3 0 6.3h-1.5v-15.6h1.5s-.02 2.38 0 2.4c.5-1.4 2-2.6 4-2.6c2.5 0 5 1.7 5 5.8zm-1.6 0c0-3.1-1.7-4.3-3.6-4.3c-1.9 0-3.8 1.2-3.8 4.4c0 3.1 1.9 4.3 3.7 4.3c1.9 0 3.7-1.2 3.7-4.4zm9.9-4.3s-.39.03-.4 0c-2.4 0-3.7 1.4-3.7 4c-.03 0 0 6 0 6h-1.6v-11.3h1.6s-.05 2.08 0 2.1c.5-1.5 1.8-2.2 3.6-2.2c-.02-.02.5 0 .5 0v1.4zm1 4.4c0-3.7 2.2-5.9 5.4-5.9c3.1 0 5.3 2.2 5.3 5.9c0 3.6-2.2 5.8-5.3 5.8c-3.1 0-5.4-2.2-5.4-5.8zm9.1-.1c0-2.8-1.7-4.4-3.8-4.4c-2.2 0-3.7 1.7-3.7 4.5c0 2.8 1.7 4.4 3.8 4.4c2.2 0 3.7-1.7 3.7-4.5zm8.7 5.9c-3.1 0-5.2-2.3-5.2-5.8c0-3.6 2.1-5.9 5.4-5.9c2.4 0 4.4 1.4 4.6 3.9h-1.5c-.1-1.6-1.5-2.5-3.2-2.5c-2.2 0-3.8 1.7-3.8 4.4c0 2.8 1.6 4.5 3.8 4.5c1.7 0 3.1-1 3.2-2.8h1.5c-.2 2.7-2.3 4.2-4.8 4.2zm8.2-5.5c.1 2.8 1.8 4.1 3.8 4.1c1.5 0 2.9-.7 3.3-2.3h1.4c-.5 2.6-2.7 3.7-4.8 3.7c-2.7 0-5.2-1.8-5.2-5.8c0-4.1 2.5-5.9 5.3-5.9c2.6 0 4.8 1.7 4.8 5.5v.7h-8.6zm.1-1.3h6.9c0-2.3-1.4-3.5-3.3-3.5c-1.8 0-3.4 1.1-3.6 3.5zm19.5 3.4c0 2.3-2.1 3.4-4.3 3.4c-2.5 0-4.7-1.2-4.9-3.7h1.6c.3 1.7 1.7 2.3 3.3 2.3c1.4 0 2.7-.5 2.7-1.8c0-1.3-1.3-1.6-2.6-1.8c-2.2-.4-4.7-.8-4.7-3.4c0-2.2 1.9-3.3 4.2-3.3c2.4 0 4.3 1.1 4.4 3.4h-1.6c-.1-1.4-1.4-2-2.9-2c-1.5 0-2.5.7-2.5 1.8c0 1.5 1.3 1.7 3 2c2.1.3 4.3.6 4.3 3.1zm10.9 0c0 2.3-2.1 3.4-4.3 3.4c-2.5 0-4.7-1.2-4.9-3.7h1.6c.3 1.7 1.7 2.3 3.3 2.3c1.4 0 2.7-.5 2.7-1.8c0-1.3-1.3-1.6-2.6-1.8c-2.2-.4-4.7-.8-4.7-3.4c0-2.2 1.9-3.3 4.2-3.3c2.4 0 4.3 1.1 4.4 3.4h-1.6c-.1-1.4-1.4-2-2.9-2c-1.5 0-2.5.7-2.5 1.8c0 1.5 1.3 1.7 3 2c2.1.3 4.3.6 4.3 3.1zm3.3-2.1c0 2.8 1.8 4.1 3.8 4.1c1.5 0 2.9-.7 3.3-2.3h1.4c-.5 2.6-2.7 3.7-4.8 3.7c-2.7 0-5.2-1.8-5.2-5.8c0-4.1 2.5-5.9 5.2-5.9c2.7 0 4.9 1.7 4.9 5.5v.7h-8.6zm0-1.3h7c0-2.3-1.4-3.5-3.3-3.5c-1.8 0-3.4 1.1-3.7 3.5zm19.6 3.4c0 2.3-2.1 3.4-4.4 3.4c-2.4 0-4.6-1.2-4.8-3.7h1.6c.3 1.7 1.7 2.3 3.3 2.3c1.4 0 2.7-.5 2.7-1.8c0-1.3-1.3-1.6-2.6-1.8c-2.2-.4-4.7-.8-4.7-3.4c0-2.2 1.9-3.3 4.2-3.3c2.4 0 4.3 1.1 4.4 3.4h-1.6c-.1-1.4-1.4-2-2.9-2c-1.5 0-2.6.7-2.6 1.8c0 1.5 1.4 1.7 3.1 2c2 .3 4.3.6 4.3 3.1zm6.6-2.4c0-3.7 2.2-5.9 5.3-5.9c3.2 0 5.4 2.2 5.4 5.9c0 3.6-2.2 5.8-5.3 5.8c-3.1 0-5.4-2.2-5.4-5.8zm9.1-.1c0-2.8-1.7-4.4-3.8-4.4c-2.2 0-3.7 1.7-3.7 4.5c0 2.8 1.7 4.4 3.8 4.4c2.2 0 3.7-1.7 3.7-4.5zm7.8-9c-1.2 0-1.5.6-1.5 1.7c-.04-.04 0 1.7 0 1.7h2.5v1.4h-2.5v9.9h-1.6v-9.9h-1.8v-1.4h1.8s.03-1.78 0-1.8c0-2.5 1.4-2.9 2.9-2.9c-.04-.02 1.5 0 1.5 0v1.3s-1.28.04-1.3 0z" stroke="none" fill="#fff"/></g><g id="Polygon10990"><path d="m7.2 90.6C4 90.6.7 88.8.7 84.8h3c.1 2.4 1.8 3.3 3.5 3.3c1.5 0 2.9-.8 2.9-2.1c0-1.6-1.8-2-3.6-2.4c-2.3-.5-5.2-1.3-5.2-4.7c0-3.3 2.6-4.8 5.7-4.8c2.9 0 5.7 1.5 5.7 4.7H9.8c-.1-1.6-1.5-2.2-3-2.2c-1.5 0-2.7.7-2.7 2.1c0 1.5 1.5 1.9 3.3 2.3c2 .5 5.6 1.1 5.6 4.8c0 3.1-2.7 4.8-5.8 4.8zM15 77.1h3v-3.2h-3v3.2zm.1 1.5h2.8v11.6h-2.8V78.6zm21.8 3.8c.04-.03 0 7.8 0 7.8h-2.8s.05-7.28 0-7.3c0-1.4-.6-2-1.8-2c-1.3 0-2.1.8-2.1 2.8c-.04-.03 0 6.5 0 6.5h-2.8s-.04-7.28 0-7.3c0-1.4-.7-2-1.9-2c-1.3 0-2.1.8-2.1 2.8c-.03-.05 0 6.5 0 6.5h-2.8V78.6h2.7s.03 1.69 0 1.7c.4-.9 1.3-1.9 3-1.9c1.5 0 2.7.7 3.2 1.9c.5-.8 1.3-1.9 3.4-1.9c2.5 0 4 1.5 4 4zm13.2 2c0 3.8-2.4 6-5.6 6c-3.3 0-5.7-2.2-5.7-6c0-3.8 2.4-6 5.7-6c3.2 0 5.6 2.2 5.6 6zm-8.4 0c0 2.3 1.3 3.4 2.8 3.4c1.7 0 2.8-1.2 2.8-3.4c0-2.3-1.3-3.4-2.8-3.4c-1.7 0-2.8 1.2-2.8 3.4zm20.6-1.7c.03.01 0 7.5 0 7.5h-2.8s.03-7.24 0-7.2c0-1.3-.7-2.1-2-2.1c-1.6 0-2.6 1.1-2.6 3c.04.02 0 6.3 0 6.3h-2.8V78.6h2.8s.01 1.67 0 1.7c.7-1.1 1.6-1.9 3.5-1.9c2.7 0 3.9 1.5 3.9 4.3zm2.7-3.6h2.1v2.2H65v-2.2zm0 8.9h2.1v2.2H65V88zm11 2.2V74.4h9.9v1.4h-8.3v5.7h7.8v1.4h-7.8v5.8h8.7v1.5H76zm18.2.4c-3.3 0-6-2-6.1-5.4h1.7c.1 2.7 2.2 3.9 4.4 3.9c2.1 0 3.7-1.1 3.7-2.9c0-2.1-2.1-2.6-4.3-3.1c-2.5-.7-5-1.5-5-4.6c0-2.9 2.3-4.4 5.3-4.4c2.8 0 5.2 1.3 5.4 4.4h-1.7c-.1-2.1-1.8-3-3.7-3c-2 0-3.7 1-3.7 3c0 2.1 1.9 2.6 4.1 3.2c2.6.6 5.3 1.3 5.3 4.4c0 2.9-2.5 4.5-5.4 4.5zm21.6-8.3v7.9h-1.5v-2.4c-.9 1.6-2.8 2.8-5.3 2.8c-4.7 0-7.2-3.9-7.2-8.4c0-4.9 3.1-8.1 7.5-8.1c3.2 0 6.1 1.7 6.5 5.1h-1.7c-.3-2.3-2.4-3.7-4.8-3.7c-3.3 0-5.9 2.6-5.9 6.7c0 3.7 2 6.9 5.8 6.9c2.9 0 5.1-2 5.1-5.4c-.04.03-5.4 0-5.4 0v-1.4h6.9zm10.7-8.1h-1.7v1.9h1.7v-1.9zm-.1 16h-1.5V78.9h1.5v11.3zm11.8-3.2c0 2.3-2.1 3.4-4.4 3.4c-2.4 0-4.6-1.2-4.8-3.7h1.6c.2 1.7 1.7 2.3 3.3 2.3c1.4 0 2.7-.5 2.7-1.8c0-1.3-1.3-1.6-2.6-1.8c-2.2-.4-4.8-.8-4.8-3.4c0-2.2 2-3.3 4.3-3.3c2.4 0 4.3 1.1 4.4 3.4h-1.6c-.1-1.4-1.4-2-2.9-2c-1.5 0-2.6.7-2.6 1.8c0 1.5 1.4 1.7 3.1 2c2 .3 4.3.6 4.3 3.1zm13.2 6.2l-.6.9C147.4 92 145 88 145 83c0-5 2.4-9 5.8-11.1l.6.9c-3 2.2-5.1 5.8-5.1 10.2c0 4.4 2.1 8.1 5.1 10.2zm9-5.1c-.9 1.7-2.6 2.3-4.1 2.3c-1.9 0-3.6-1.1-3.6-3.3c0-2.1 1.5-3.1 3.4-3.3l2.7-.4c.8-.1 1.6-.4 1.6-1.4c0-1.3-1.2-2-2.8-2c-1.7 0-2.7.8-2.9 2.1h-1.6c.3-2.3 2.2-3.4 4.6-3.4c2.6 0 4.1 1.2 4.1 3.7c.04-.01 0 7.8 0 7.8h-1.4s-.05-2.08 0-2.1zm-1.9-3.4l-1.7.2c-1.5.2-2.5.7-2.5 2.1c0 1.4 1.1 2 2.3 2c1.8 0 3.7-1.3 3.7-3.7v-1.1c-.4.3-1.1.4-1.8.5zm15.7-2.2c-.05-.05 0 7.7 0 7.7h-1.6s.02-7.56 0-7.6c0-1.5-.9-2.5-2.5-2.5c-1.9 0-3.6 1.4-3.6 4.2c.03-.04 0 5.9 0 5.9H165V78.9h1.5s.03 2.1 0 2.1c.7-1.3 2-2.3 3.9-2.3c2.3 0 3.8 1.3 3.8 3.8zm13 7.7h-1.5s.04-2.2 0-2.2c-.5 1.3-1.9 2.4-4 2.4c-2.9 0-5-2.3-5-5.9c0-3.5 2.1-5.8 5.1-5.8c1.9 0 3.3.9 3.9 2.1c-.02.02 0-6.6 0-6.6h1.5v16zm-1.5-5.7c0-2.8-1.6-4.4-3.8-4.4c-2.2 0-3.7 1.7-3.7 4.4c0 2.8 1.6 4.5 3.7 4.5c2.2 0 3.8-1.7 3.8-4.5zm21.4 5.7h-1.5l-2.9-9l-3 9h-1.5l-3.6-11.3h1.5l2.9 9.3l2.9-9.3h1.5l3 9.3l2.8-9.3h1.6l-3.7 11.3zm7.4-16h-1.7v1.9h1.7v-1.9zm-.1 16h-1.5V78.9h1.5v11.3zm4.9 0h-1.5v-16h1.5v16zm4.9 0h-1.5v-16h1.5v16zm19.5-5.7c0 3.5-2.1 5.9-5.1 5.9c-2 0-3.3-1.1-3.9-2.3v2.1h-1.5v-16h1.6s-.04 6.97 0 7c.5-1.4 2-2.5 4-2.5c2.9 0 4.9 2.2 4.9 5.8zm-1.5.1c0-2.8-1.5-4.4-3.7-4.4c-2.2 0-3.7 1.6-3.7 4.4c0 2.8 1.5 4.5 3.7 4.5c2.2 0 3.7-1.8 3.7-4.5zm4.9.3c.1 2.8 1.8 4.1 3.8 4.1c1.5 0 3-.7 3.3-2.3h1.5c-.6 2.6-2.7 3.7-4.9 3.7c-2.7 0-5.2-1.8-5.2-5.8c0-4.1 2.6-5.9 5.3-5.9c2.7 0 4.8 1.7 4.8 5.5c.03-.05 0 .7 0 .7h-8.6zm.1-1.3h7c0-2.3-1.5-3.5-3.4-3.5c-1.7 0-3.4 1.1-3.6 3.5zm15.7 6.8c-3.2 0-5.3-2.3-5.3-5.8c0-3.6 2.1-5.9 5.4-5.9c2.5 0 4.5 1.4 4.6 3.9h-1.5c-.1-1.6-1.5-2.5-3.1-2.5c-2.2 0-3.8 1.7-3.8 4.4c0 2.8 1.5 4.5 3.7 4.5c1.7 0 3.1-1 3.2-2.8h1.5c-.1 2.7-2.2 4.2-4.7 4.2zm6.6-5.8c0-3.7 2.3-5.9 5.4-5.9c3.1 0 5.3 2.2 5.3 5.9c0 3.6-2.2 5.8-5.3 5.8c-3.1 0-5.4-2.2-5.4-5.8zm9.1-.1c0-2.8-1.7-4.4-3.8-4.4c-2.2 0-3.7 1.7-3.7 4.5c0 2.8 1.7 4.4 3.8 4.4c2.2 0 3.7-1.7 3.7-4.5zm4.2-5.6h1.6s-.04 1.87 0 1.9c.6-1.4 1.8-2.1 3.2-2.1c1.7 0 3 .9 3.4 2.3c.5-1.2 1.7-2.3 3.7-2.3c2 0 3.6 1.1 3.6 3.4c.02 0 0 8.1 0 8.1h-1.5v-7.6c0-1.7-1.1-2.5-2.4-2.5c-1.7 0-3.1 1.3-3.1 3.6c.03.03 0 6.5 0 6.5h-1.5s.02-7.56 0-7.6c0-1.7-1-2.5-2.4-2.5c-1.6 0-3 1.2-3 3.6c-.02.03 0 6.5 0 6.5h-1.6V78.9zm19.6 6c0 2.8 1.7 4.1 3.7 4.1c1.5 0 3-.7 3.3-2.3h1.5c-.5 2.6-2.7 3.7-4.9 3.7c-2.7 0-5.2-1.8-5.2-5.8c0-4.1 2.6-5.9 5.3-5.9c2.7 0 4.8 1.7 4.8 5.5c.04-.05 0 .7 0 .7c0 0-8.55.01-8.5 0zm0-1.3h7c0-2.3-1.5-3.5-3.4-3.5c-1.7 0-3.4 1.1-3.6 3.5zm16.8 1.3c0 2.8 1.7 4.1 3.7 4.1c1.5 0 3-.7 3.3-2.3h1.5c-.5 2.6-2.7 3.7-4.9 3.7c-2.6 0-5.1-1.8-5.1-5.8c0-4.1 2.5-5.9 5.2-5.9c2.7 0 4.9 1.7 4.9 5.5c-.04-.05 0 .7 0 .7h-8.6zm0-1.3h7c0-2.3-1.5-3.5-3.4-3.5c-1.7 0-3.4 1.1-3.6 3.5zm15.7 6.6h-1.7L329 78.9h1.7l3.4 9.7l3.4-9.7h1.6l-4.2 11.3zm6.7-5.3c.1 2.8 1.8 4.1 3.8 4.1c1.5 0 2.9-.7 3.3-2.3h1.4c-.5 2.6-2.7 3.7-4.8 3.7c-2.7 0-5.2-1.8-5.2-5.8c0-4.1 2.6-5.9 5.3-5.9c2.6 0 4.8 1.7 4.8 5.5v.7h-8.6zm.1-1.3h7c0-2.3-1.5-3.5-3.4-3.5c-1.8 0-3.4 1.1-3.6 3.5zm20.3-1.1v7.7h-1.5s-.04-7.56 0-7.6c0-1.5-.9-2.5-2.5-2.5c-1.9 0-3.6 1.4-3.6 4.2c-.03-.04 0 5.9 0 5.9h-1.6V78.9h1.6s-.03 2.1 0 2.1c.6-1.3 1.9-2.3 3.9-2.3c2.2 0 3.7 1.3 3.7 3.8zm8.9-3.6h1.5s.03 1.87 0 1.9c.6-1.4 1.9-2.1 3.3-2.1c1.7 0 3 .9 3.3 2.3c.5-1.2 1.8-2.3 3.7-2.3c2.1 0 3.7 1.1 3.7 3.4v8.1h-1.5s-.04-7.56 0-7.6c0-1.7-1.1-2.5-2.4-2.5c-1.7 0-3.1 1.3-3.1 3.6v6.5h-1.5v-7.6c0-1.7-1-2.5-2.4-2.5c-1.6 0-3 1.2-3 3.6c-.05.03 0 6.5 0 6.5h-1.6V78.9zm18 5.7c0-3.7 2.2-5.9 5.3-5.9c3.2 0 5.4 2.2 5.4 5.9c0 3.6-2.2 5.8-5.3 5.8c-3.1 0-5.4-2.2-5.4-5.8zm9.1-.1c0-2.8-1.7-4.4-3.8-4.4c-2.2 0-3.7 1.7-3.7 4.5c0 2.8 1.7 4.4 3.8 4.4c2.2 0 3.7-1.7 3.7-4.5zm9.9-4.3s-.4.03-.4 0c-2.4 0-3.7 1.4-3.7 4c-.04 0 0 6 0 6h-1.6V78.9h1.5s.04 2.08 0 2.1c.6-1.5 1.9-2.2 3.7-2.2c-.03-.02.5 0 .5 0v1.4zm2.5 4.7c.1 2.8 1.8 4.1 3.8 4.1c1.5 0 2.9-.7 3.3-2.3h1.4c-.5 2.6-2.7 3.7-4.8 3.7c-2.7 0-5.2-1.8-5.2-5.8c0-4.1 2.5-5.9 5.3-5.9c2.6 0 4.8 1.7 4.8 5.5v.7h-8.6zm.1-1.3h7c0-2.3-1.5-3.5-3.4-3.5c-1.8 0-3.4 1.1-3.6 3.5zm15.2 1c0-3.7 2.3-5.9 5.4-5.9c3.1 0 5.3 2.2 5.3 5.9c0 3.6-2.2 5.8-5.3 5.8c-3.1 0-5.4-2.2-5.4-5.8zm9.1-.1c0-2.8-1.7-4.4-3.8-4.4c-2.2 0-3.7 1.7-3.7 4.5c0 2.8 1.7 4.4 3.8 4.4c2.2 0 3.7-1.7 3.7-4.5zm7.8-9c-1.2 0-1.5.6-1.5 1.7c-.02-.04 0 1.7 0 1.7h2.5v1.4h-2.5v9.9h-1.6v-9.9h-1.8v-1.4h1.8s.05-1.78 0-1.8c0-2.5 1.4-2.9 2.9-2.9c-.02-.02 1.5 0 1.5 0v1.3s-1.27.04-1.3 0zm2.1-2.7l.7-.9c3.3 2.1 5.7 6.1 5.7 11.1c0 5-2.4 9-5.7 11.1l-.7-.9c3.1-2.1 5.2-5.8 5.2-10.2c0-4.4-2.1-8-5.2-10.2zm21.5 15.3c-.9 1.7-2.6 2.3-4.1 2.3c-1.9 0-3.6-1.1-3.6-3.3c0-2.1 1.5-3.1 3.4-3.3l2.7-.4c.8-.1 1.6-.4 1.6-1.4c0-1.3-1.2-2-2.8-2c-1.7 0-2.7.8-2.9 2.1h-1.6c.3-2.3 2.2-3.4 4.6-3.4c2.6 0 4.1 1.2 4.1 3.7c.04-.01 0 7.8 0 7.8h-1.4s-.05-2.08 0-2.1zm-1.9-3.4l-1.7.2c-1.5.2-2.5.7-2.5 2.1c0 1.4 1.1 2 2.3 2c1.8 0 3.7-1.3 3.7-3.7v-1.1c-.4.3-1.1.4-1.8.5z" stroke="none" fill="#fff"/></g><g id="Polygon10989"><path d="m1.6 45V29.2h10.6v2.8H4.5v3.6h7.3v2.8H4.5v3.8h8.1v2.8h-11zM31 45h-2.8V34.1L24.1 45h-2.6l-4-10.9V45h-2.7V29.2h3.7l4.4 11.6l4.3-11.6h3.8V45zm13 .2c-3.8 0-5.6-2.9-5.6-6c0-3.1 1.8-6 5.6-6c2.9 0 5 1.6 5.1 4.4h-2.7c-.1-1.1-.9-1.9-2.3-1.9c-2 0-2.9 1.7-2.9 3.5c0 1.9.9 3.4 2.9 3.4c1.3 0 2.1-.7 2.3-1.7h2.8c-.4 2.8-2.4 4.3-5.2 4.3zm17.8-6c0 3.8-2.4 6-5.7 6c-3.2 0-5.6-2.2-5.6-6c0-3.8 2.4-6 5.6-6c3.3 0 5.7 2.2 5.7 6zm-8.5 0c0 2.3 1.3 3.4 2.9 3.4c1.6 0 2.7-1.2 2.7-3.4c0-2.3-1.2-3.4-2.8-3.4c-1.6 0-2.8 1.2-2.8 3.4zM73.9 45h-2.7s.01-1.66 0-1.7c-.7 1.1-1.7 1.8-3.3 1.8c-2.4 0-4.2-1.5-4.2-4.5c-.01-.01 0-7.2 0-7.2h2.8v7c0 1.6.8 2.2 2 2.2c1.5 0 2.6-.9 2.6-3.6c.05 0 0-5.6 0-5.6h2.8V45zm13-7.5c-.04.01 0 7.5 0 7.5h-2.8s-.04-7.24 0-7.2c0-1.3-.8-2.1-2.1-2.1c-1.6 0-2.5 1.1-2.5 3c-.04.02 0 6.3 0 6.3h-2.8V33.4h2.7s.04 1.67 0 1.7c.7-1.1 1.6-1.9 3.6-1.9c2.6 0 3.9 1.5 3.9 4.3zm8.5 7.5s-1.82-.02-1.8 0c-2.2 0-3.6-.7-3.6-3.8c.03 0 0-5.3 0-5.3h-2.1v-2.5h2.1v-2.6l2.8-.8v3.4h2.3v2.5h-2.3s.02 5.43 0 5.4c0 .7.2 1.2 1.2 1.2h1.4v2.5zm8.1-9s-.71-.03-.7 0c-2 0-3 1-3 3.3c-.03.01 0 5.7 0 5.7H97V33.4h2.7s.05 1.65 0 1.6c.6-1.2 1.7-1.7 3.1-1.7c-.03-.04.7 0 .7 0v2.7zm1.3-4.1h3v-3.2h-3v3.2zm.1 1.5h2.8V45h-2.8V33.4zm7.4 6.6c.1 1.9 1.5 2.8 3 2.8c1.1 0 2.2-.4 2.5-1.5h2.6c-.5 2.6-2.8 3.9-5.2 3.9c-2.8 0-5.6-1.9-5.6-6c0-4 2.7-6 5.6-6c2.8 0 5.2 1.8 5.2 5.7c.01-.01 0 1.1 0 1.1c0 0-8.05.03-8.1 0zm.1-2h5.3c0-1.5-1.1-2.4-2.5-2.4c-1.3 0-2.5.7-2.8 2.4zm19.3 3.4c0 2.6-2.3 3.8-4.9 3.8c-2.4 0-5-1-5.2-3.9h2.8c.2 1.1 1.2 1.6 2.5 1.6c1.2 0 2-.4 2-1.2c0-.8-.5-.9-2.1-1.2c-2.3-.4-4.9-.8-4.9-3.6c0-2.6 2.2-3.7 4.6-3.7c2.7 0 4.7 1.3 4.9 3.9h-2.7c-.1-1.1-1-1.6-2.1-1.6c-1.4 0-2 .6-2 1.3c0 .9 1.1 1.1 2.5 1.3c2 .3 4.6.6 4.6 3.3zm4.6-2c0-2.7 1.4-3.2 2.6-4.1c1-.7 1.5-1.3 1.5-2.1c0-1.2-.9-1.8-2.1-1.8c-1.4 0-2.3.8-2.4 2.2H133c.3-3.4 2.8-4.6 5.4-4.6c2.7 0 4.9 1.3 4.9 4.1c0 2.2-1.3 3.1-2.7 4.1c-1.1.8-1.6 1.3-1.6 2.2v.7h-2.7s.03-.75 0-.7zm-.2 2.3h3.1v3.3h-3.1v-3.3z" stroke="none" fill="#fff"/></g><g id="Polygon10988"><path d="m14.6 19.8h-3v-6.6H4.5v6.6H1.6V4h2.9v6.5h7.1V4h3v15.8zM28.1 14c0 3.8-2.4 6-5.7 6c-3.2 0-5.6-2.2-5.6-6c0-3.8 2.4-6 5.6-6c3.3 0 5.7 2.2 5.7 6zm-8.5 0c0 2.3 1.3 3.4 2.8 3.4c1.7 0 2.8-1.2 2.8-3.4c0-2.3-1.3-3.4-2.8-3.4c-1.7 0-2.8 1.2-2.8 3.4zm22.9 5.8h-2.6l-2.4-7.4l-2.3 7.4h-2.7L28.6 8.2h3l2.3 7.7l2.3-7.7h2.7l2.4 7.7l2.2-7.7h2.9l-3.9 11.6zm20.9 0h-2.8s.03-1.8 0-1.8c-.6 1.3-1.9 2-3.5 2c-2.8 0-5.1-2-5.1-6c0-4 2.3-6 5.1-6c1.5 0 2.8.6 3.5 1.7c-.04.02 0-5.9 0-5.9h2.8v16zM60.6 14c0-2.4-1.4-3.5-2.9-3.5c-1.5 0-2.9 1.1-2.9 3.5c0 2.3 1.4 3.5 2.9 3.5c1.5 0 2.9-1.2 2.9-3.5zm16.1 0c0 3.8-2.4 6-5.7 6c-3.2 0-5.6-2.2-5.6-6c0-3.8 2.4-6 5.6-6c3.3 0 5.7 2.2 5.7 6zm-8.5 0c0 2.3 1.3 3.4 2.8 3.4c1.7 0 2.8-1.2 2.8-3.4c0-2.3-1.3-3.4-2.8-3.4c-1.7 0-2.8 1.2-2.8 3.4zm25.2-5.8l-5 13.3c-.5 1.4-1.7 2-3.3 2c.01-.02-1.7 0-1.7 0V21h1.2c1 0 1.4-.3 1.7-1.1c-.01-.03.2-.6.2-.6L82.1 8.2h3l2.7 7.6l2.8-7.6h2.8zm11.8 5.8c0 3.8-2.4 6-5.7 6c-3.2 0-5.7-2.2-5.7-6c0-3.8 2.5-6 5.7-6c3.3 0 5.7 2.2 5.7 6zm-8.5 0c0 2.3 1.3 3.4 2.8 3.4c1.7 0 2.8-1.2 2.8-3.4c0-2.3-1.3-3.4-2.8-3.4c-1.7 0-2.8 1.2-2.8 3.4zm20.6 5.8h-2.7s-.02-1.66 0-1.7c-.7 1.1-1.7 1.8-3.4 1.8c-2.4 0-4.1-1.5-4.1-4.5c-.04-.01 0-7.2 0-7.2h2.8s-.05 6.98 0 7c0 1.6.7 2.2 1.9 2.2c1.6 0 2.7-.9 2.7-3.6V8.2h2.8v11.6zm12.5-13.5c-1 0-1.2.4-1.2 1.1c.05.03 0 .8 0 .8h2.2v2.5h-2.2v9.1h-2.7v-9.1h-1.8V8.2h1.8s-.05-.64 0-.6c0-3.1 1.3-3.8 3.5-3.8c0-.02 1.7 0 1.7 0v2.5s-1.28-.04-1.3 0zm11.9 5.7v7.8H139s-.02-1.7 0-1.7c-.9 1.5-2.3 1.9-3.5 1.9c-1.9 0-3.8-1.1-3.8-3.6c0-1.8 1-3 3.7-3.4l2.5-.4c.7-.1 1.2-.3 1.2-1c0-1-.9-1.4-2-1.4c-1.5 0-2.1.7-2.2 1.7h-2.7c.3-2.7 2.4-3.9 5.1-3.9c2.7 0 4.4 1.3 4.4 4zm-2.7 2.9v-.6c-.3.1-.8.3-1.4.3l-1.2.2c-1.4.2-1.9.8-1.9 1.5c0 .9.7 1.4 1.6 1.4c1.5 0 2.9-1.1 2.9-2.8zm10.1 5.1c-3.8 0-5.6-2.9-5.6-6c0-3.1 1.8-6 5.6-6c2.9 0 5 1.6 5.1 4.4h-2.7c-.2-1.1-1-1.9-2.3-1.9c-2.1 0-2.9 1.7-2.9 3.5c0 1.9.9 3.4 2.9 3.4c1.3 0 2.1-.7 2.3-1.7h2.8c-.4 2.8-2.4 4.3-5.2 4.3zm13.1-.2s-1.8-.02-1.8 0c-2.2 0-3.6-.7-3.6-3.8c.05 0 0-5.3 0-5.3h-2.1V8.2h2.1V5.6l2.8-.8v3.4h2.4v2.5h-2.4s.04 5.43 0 5.4c0 .7.2 1.2 1.2 1.2h1.4v2.5zm12.2-5.8c0 3.8-2.4 6-5.7 6c-3.2 0-5.6-2.2-5.6-6c0-3.8 2.4-6 5.6-6c3.3 0 5.7 2.2 5.7 6zm-8.5 0c0 2.3 1.3 3.4 2.9 3.4c1.6 0 2.7-1.2 2.7-3.4c0-2.3-1.3-3.4-2.8-3.4c-1.7 0-2.8 1.2-2.8 3.4zm17-3.2s-.7-.03-.7 0c-2 0-3 1-3 3.3c-.03.01 0 5.7 0 5.7h-2.8V8.2h2.8s-.05 1.65 0 1.6c.5-1.2 1.6-1.7 3-1.7c-.03-.04.7 0 .7 0v2.7zm6.3-4.1h3V3.5h-3v3.2zm.1 1.5h2.8v11.6h-2.8V8.2zm15.7 4.1v7.5h-2.8s.01-7.24 0-7.2c0-1.3-.7-2.1-2-2.1c-1.6 0-2.6 1.1-2.6 3v6.3h-2.8V8.2h2.8s-.01 1.67 0 1.7c.6-1.1 1.6-1.9 3.5-1.9c2.7 0 3.9 1.5 3.9 4.3zm8.5 7.5V4h10.6v2.8h-7.7v3.6h7.3v2.8h-7.3v3.8h8.1v2.8h-11zm18.7.4c-3.3 0-6.5-1.8-6.5-5.8h2.9c.1 2.4 1.8 3.3 3.5 3.3c1.6 0 2.9-.8 2.9-2.1c0-1.6-1.8-2-3.6-2.4c-2.2-.5-5.2-1.3-5.2-4.7c0-3.3 2.7-4.8 5.7-4.8c3 0 5.8 1.5 5.8 4.7h-3c-.1-1.6-1.4-2.2-2.9-2.2c-1.6 0-2.7.7-2.7 2.1c0 1.5 1.4 1.9 3.2 2.3c2 .5 5.6 1.1 5.6 4.8c0 3.1-2.6 4.8-5.7 4.8zm21.9-8.9v8.5h-2.8s.05-1.82 0-1.8c-.5 1-2 2.2-4.6 2.2c-4.4 0-7.2-3.5-7.2-8.2c0-4.3 2.4-8.3 7.7-8.3c3.7 0 6.5 2 6.9 5.6h-3c-.2-1.8-1.9-2.9-4-2.9c-3.2 0-4.7 2.5-4.7 5.5c0 3.3 1.7 5.6 4.8 5.6c2.1 0 3.9-1.1 4.2-3.4c-.03-.03-4.7 0-4.7 0v-2.8h7.4zm13 8.7c-3.8 0-5.7-2.9-5.7-6c0-3.1 1.8-6 5.6-6c2.9 0 5.1 1.6 5.2 4.4h-2.8c-.1-1.1-.9-1.9-2.3-1.9c-2 0-2.9 1.7-2.9 3.5c0 1.9.9 3.4 2.9 3.4c1.3 0 2.2-.7 2.3-1.7h2.8c-.3 2.8-2.4 4.3-5.1 4.3zm13.7-9.2s-.75-.03-.7 0c-2 0-3.1 1-3.1 3.3c.03.01 0 5.7 0 5.7h-2.8V8.2h2.8v1.6c.6-1.2 1.7-1.7 3-1.7c.03-.04.8 0 .8 0v2.7zm1.2-4.1h3V3.5h-3v3.2zm.1 1.5h2.8v11.6h-2.8V8.2zm11.5 11.6s-1.87-.02-1.9 0c-2.1 0-3.5-.7-3.5-3.8c-.02 0 0-5.3 0-5.3h-2.1V8.2h2.1V5.6l2.8-.8v3.4h2.3v2.5H291s-.03 5.43 0 5.4c0 .7.2 1.2 1.1 1.2h1.5v2.5zm3.5-5c.1 1.9 1.4 2.8 3 2.8c1.1 0 2.1-.4 2.5-1.5h2.5c-.5 2.6-2.8 3.9-5.1 3.9c-2.8 0-5.6-1.9-5.6-6c0-4 2.6-6 5.6-6c2.8 0 5.2 1.8 5.2 5.7c-.03-.01 0 1.1 0 1.1c0 0-8.09.03-8.1 0zm.1-2h5.2c0-1.5-1-2.4-2.5-2.4c-1.2 0-2.5.7-2.7 2.4zm16.5-2s-.72-.03-.7 0c-2 0-3 1-3 3.3c-.04.01 0 5.7 0 5.7h-2.8V8.2h2.7s.04 1.65 0 1.6c.6-1.2 1.7-1.7 3.1-1.7c-.04-.04.7 0 .7 0v2.7zm1.3-4.1h2.9V3.5H315v3.2zm.1 1.5h2.8v11.6h-2.8V8.2zm14.7 3.8c.02-.01 0 7.8 0 7.8h-2.7s-.01-1.7 0-1.7c-.9 1.5-2.3 1.9-3.5 1.9c-1.9 0-3.8-1.1-3.8-3.6c0-1.8 1.1-3 3.7-3.4l2.5-.4c.7-.1 1.2-.3 1.2-1c0-1-.8-1.4-2-1.4c-1.4 0-2.1.7-2.2 1.7h-2.7c.3-2.7 2.4-3.9 5.1-3.9c2.7 0 4.4 1.3 4.4 4zm-2.7 2.9v-.6c-.3.1-.8.3-1.4.3l-1.2.2c-1.4.2-1.9.8-1.9 1.5c0 .9.7 1.4 1.6 1.4c1.5 0 2.9-1.1 2.9-2.8zm14.6-8.6c-1 0-1.2.4-1.2 1.1c.03.03 0 .8 0 .8h2.2v2.5h-2.2v9.1h-2.8v-9.1H336V8.2h1.7s.04-.64 0-.6c0-3.1 1.4-3.8 3.6-3.8c-.01-.02 1.7 0 1.7 0v2.5s-1.29-.04-1.3 0zm13 7.7c0 3.8-2.4 6-5.7 6c-3.2 0-5.6-2.2-5.6-6c0-3.8 2.4-6 5.6-6c3.3 0 5.7 2.2 5.7 6zm-8.5 0c0 2.3 1.3 3.4 2.9 3.4c1.6 0 2.8-1.2 2.8-3.4c0-2.3-1.3-3.4-2.9-3.4c-1.6 0-2.8 1.2-2.8 3.4zm17.1-3.2s-.78-.03-.8 0c-1.9 0-3 1-3 3.3v5.7h-2.8V8.2h2.8s-.03 1.65 0 1.6c.6-1.2 1.6-1.7 3-1.7c0-.04.8 0 .8 0v2.7z" stroke="none" fill="#fff"/></g></svg>