<?xml version="1.0" standalone="no"?><!DOCTYPE svg PUBLIC "-//W3C//DTD SVG 1.1//EN" "http://www.w3.org/Graphics/SVG/1.1/DTD/svg11.dtd"><svg xmlns="http://www.w3.org/2000/svg" version="1.1" width="862px" height="96.3px" viewBox="0 -5 862 96.3" style="top:-5px"><desc>In this environment, as an investor, you want someone who is active and knows where the real value is</desc><defs/><g id="Polygon12760"><path d="m21.4 68.5h-4.1l-3.6-11.3l-3.6 11.3H6L.2 50.9h4.5l3.5 11.8l3.5-11.8h4.2l3.6 11.8l3.4-11.8h4.4l-5.9 17.6zm23.7-11.3c-.04-.05 0 11.3 0 11.3h-4.3v-11c0-1.9-1.1-3.1-3.1-3.1c-2.4 0-3.9 1.7-3.9 4.6v9.5h-4.3V44.2h4.3v9.2c1-1.7 2.5-2.8 5.3-2.8c4.1 0 6 2.3 6 6.6zm20.1 2.5c0 5.8-3.7 9.2-8.7 9.2c-4.9 0-8.6-3.4-8.6-9.2c0-5.7 3.7-9.1 8.6-9.1c5 0 8.7 3.4 8.7 9.1zm-12.9 0c0 3.6 1.9 5.3 4.3 5.3c2.5 0 4.2-2 4.2-5.3c0-3.5-1.9-5.2-4.3-5.2c-2.5 0-4.2 1.9-4.2 5.2zm23.8-11.2h4.5v-4.8h-4.5v4.8zm.1 2.4h4.2v17.6h-4.2V50.9zm22.5 12.2c0 3.9-3.5 5.8-7.5 5.8c-3.6 0-7.6-1.5-7.9-6h4.3c.3 1.8 1.8 2.5 3.8 2.5c1.8 0 3.1-.6 3.1-1.9c0-1.1-.8-1.4-3.3-1.8c-3.4-.6-7.4-1.2-7.4-5.5c0-4 3.4-5.6 7-5.6c4.2 0 7.2 2 7.5 5.9h-4.2c-.1-1.7-1.4-2.4-3.2-2.4c-2.1 0-2.9.9-2.9 2c0 1.3 1.5 1.6 3.7 1.9c3.1.5 7 .9 7 5.1zm25-6.4c-.02-.03 0 11.8 0 11.8h-4.2s.02-2.52 0-2.5c-1.4 2.2-3.5 2.9-5.3 2.9c-2.8 0-5.8-1.6-5.8-5.4c0-2.8 1.6-4.7 5.7-5.3l3.8-.6c1-.1 1.8-.5 1.8-1.6c0-1.5-1.3-2.1-3-2.1c-2.3 0-3.3 1.1-3.5 2.6h-4c.4-4.1 3.7-5.9 7.7-5.9c4.2 0 6.8 1.9 6.8 6.1zm-4.1 4.4v-.9c-.5.2-1.3.4-2.1.5l-1.9.3c-2.2.2-2.9 1.1-2.9 2.3c0 1.3 1 2.1 2.5 2.1c2.2 0 4.4-1.7 4.4-4.3zm15.4 7.8c-5.8 0-8.6-4.4-8.6-9.2c0-4.7 2.7-9.1 8.5-9.1c4.4 0 7.7 2.5 7.8 6.6h-4.1c-.2-1.6-1.5-2.7-3.5-2.7c-3.1 0-4.4 2.5-4.4 5.2c0 2.9 1.3 5.3 4.3 5.3c2.1 0 3.3-1.2 3.6-2.7h4.2c-.5 4.3-3.6 6.6-7.8 6.6zm19.9-.4s-2.74.04-2.7 0c-3.3 0-5.5-1-5.5-5.7c.05-.02 0-8.1 0-8.1h-3.2v-3.8h3.2v-4l4.3-1.2v5.2h3.5v3.8H151v8.3c0 1 .3 1.8 1.8 1.8c0-.03 2.1 0 2.1 0v3.7zm2.3-20h4.5v-4.8h-4.5v4.8zm.1 2.4h4.3v17.6h-4.3V50.9zm17.4 17.6h-4.6l-6.5-17.6h4.5l4.3 12.6l4.4-12.6h4.4l-6.5 17.6zM186 61c.1 2.9 2.1 4.2 4.5 4.2c1.7 0 3.3-.7 3.8-2.3h3.9c-.8 3.9-4.3 6-7.9 6c-4.2 0-8.4-2.9-8.4-9.1c0-6.1 4-9.2 8.5-9.2c4.3 0 7.9 2.8 7.9 8.7c-.03-.04 0 1.7 0 1.7c0 0-12.32-.01-12.3 0zm.1-3.1h8c0-2.3-1.6-3.7-3.8-3.7c-2 0-3.8 1.1-4.2 3.7zm37.3-1.2c.02-.03 0 11.8 0 11.8h-4.1s-.04-2.52 0-2.5c-1.4 2.2-3.5 2.9-5.4 2.9c-2.8 0-5.7-1.6-5.7-5.4c0-2.8 1.6-4.7 5.6-5.3l3.8-.6c1.1-.1 1.8-.5 1.8-1.6c0-1.5-1.3-2.1-3-2.1c-2.2 0-3.3 1.1-3.4 2.6h-4.1c.4-4.1 3.7-5.9 7.7-5.9c4.2 0 6.8 1.9 6.8 6.1zm-4.1 4.4v-.9c-.4.2-1.2.4-2.1.5l-1.9.3c-2.2.2-2.9 1.1-2.9 2.3c0 1.3 1 2.1 2.5 2.1c2.2 0 4.4-1.7 4.4-4.3zm23.5-3.9c-.02-.05 0 11.3 0 11.3h-4.3s.02-10.96 0-11c0-1.9-1.1-3.1-3.1-3.1c-2.4 0-3.9 1.7-3.9 4.6c.02.01 0 9.5 0 9.5h-4.2V50.9h4.2s-.02 2.54 0 2.5c1-1.6 2.4-2.8 5.4-2.8c4 0 5.9 2.3 5.9 6.6zM263 68.5h-4.2s.04-2.68 0-2.7c-.9 2.1-3 3.1-5.4 3.1c-4.1 0-7.7-3-7.7-9.2c0-6.1 3.6-9.1 7.7-9.1c2.3 0 4.3.9 5.3 2.6c.05.02 0-9 0-9h4.3v24.3zm-4.1-8.8c0-3.6-2.2-5.4-4.5-5.4c-2.3 0-4.4 1.8-4.4 5.4c0 3.6 2.1 5.3 4.4 5.3c2.3 0 4.5-1.7 4.5-5.3zm23.2 2l-2 2.1v4.7h-4.3V44.2h4.3V58l6.3-7.1h5.5l-6.9 7.6l7.2 10h-5.3l-4.8-6.8zm28-4.5v11.3h-4.2s-.05-10.96 0-11c0-1.9-1.2-3.1-3.2-3.1c-2.4 0-3.9 1.7-3.9 4.6c.04.01 0 9.5 0 9.5h-4.2V50.9h4.2s.01 2.54 0 2.5c1-1.6 2.4-2.8 5.4-2.8c4 0 5.9 2.3 5.9 6.6zm20.1 2.5c0 5.8-3.6 9.2-8.6 9.2c-4.9 0-8.6-3.4-8.6-9.2c0-5.7 3.7-9.1 8.6-9.1c5 0 8.6 3.4 8.6 9.1zm-12.9 0c0 3.6 2 5.3 4.4 5.3c2.5 0 4.2-2 4.2-5.3c0-3.5-2-5.2-4.3-5.2c-2.6 0-4.3 1.9-4.3 5.2zm35 8.8h-4.1l-3.6-11.3l-3.6 11.3h-4.1L331 50.9h4.6l3.5 11.8l3.5-11.8h4.1l3.6 11.8l3.5-11.8h4.4l-5.9 17.6zm22.2-5.4c0 3.9-3.5 5.8-7.5 5.8c-3.6 0-7.6-1.5-7.9-6h4.3c.3 1.8 1.9 2.5 3.9 2.5c1.8 0 3-.6 3-1.9c0-1.1-.8-1.4-3.2-1.8c-3.5-.6-7.4-1.2-7.4-5.5c0-4 3.3-5.6 7-5.6c4.1 0 7.2 2 7.4 5.9h-4.2c-.1-1.7-1.4-2.4-3.2-2.4c-2.1 0-2.9.9-2.9 2c0 1.3 1.6 1.6 3.7 1.9c3.2.5 7 .9 7 5.1zm29.6 5.4H400l-3.6-11.3l-3.6 11.3h-4.1l-5.9-17.6h4.6l3.5 11.8l3.5-11.8h4.2l3.5 11.8l3.5-11.8h4.4l-5.9 17.6zm23.6-11.3c.04-.05 0 11.3 0 11.3h-4.2s-.02-10.96 0-11c0-1.9-1.1-3.1-3.1-3.1c-2.5 0-3.9 1.7-3.9 4.6c-.03.01 0 9.5 0 9.5h-4.3V44.2h4.3s-.03 9.18 0 9.2c1-1.7 2.5-2.8 5.3-2.8c4.1 0 5.9 2.3 5.9 6.6zm7 3.8c.1 2.9 2.2 4.2 4.6 4.2c1.7 0 3.3-.7 3.8-2.3h3.9c-.8 3.9-4.3 6-7.9 6c-4.3 0-8.5-2.9-8.5-9.1c0-6.1 4-9.2 8.5-9.2c4.3 0 7.9 2.8 7.9 8.7c.03-.04 0 1.7 0 1.7c0 0-12.25-.01-12.3 0zm.1-3.1h8.1c0-2.3-1.7-3.7-3.8-3.7c-2 0-3.9 1.1-4.3 3.7zm25.3-3.1s-1.16.02-1.2 0c-2.9 0-4.6 1.6-4.6 5.1c.03 0 0 8.6 0 8.6h-4.2V50.9h4.2v2.5c.9-1.9 2.5-2.7 4.6-2.7h1.2v4.1zm4.7 6.2c.1 2.9 2.2 4.2 4.6 4.2c1.6 0 3.2-.7 3.7-2.3h3.9c-.7 3.9-4.2 6-7.8 6c-4.3 0-8.5-2.9-8.5-9.1c0-6.1 4-9.2 8.5-9.2c4.3 0 7.9 2.8 7.9 8.7c.01-.04 0 1.7 0 1.7c0 0-12.27-.01-12.3 0zm.1-3.1h8.1c0-2.3-1.7-3.7-3.9-3.7c-1.9 0-3.8 1.1-4.2 3.7zm32 10.6s-2.83.04-2.8 0c-3.3 0-5.4-1-5.4-5.7c-.03-.02 0-8.1 0-8.1h-3.3v-3.8h3.3v-4l4.2-1.2v5.2h3.5v3.8h-3.5s.02 8.28 0 8.3c0 1 .3 1.8 1.8 1.8c.01-.03 2.2 0 2.2 0v3.7zm17.9-11.3c-.02-.05 0 11.3 0 11.3h-4.3s.02-10.96 0-11c0-1.9-1.1-3.1-3.1-3.1c-2.4 0-3.9 1.7-3.9 4.6v9.5h-4.2V44.2h4.2v9.2c1-1.7 2.5-2.8 5.4-2.8c4 0 5.9 2.3 5.9 6.6zm7 3.8c.1 2.9 2.1 4.2 4.5 4.2c1.7 0 3.3-.7 3.8-2.3h3.9c-.8 3.9-4.2 6-7.9 6c-4.2 0-8.4-2.9-8.4-9.1c0-6.1 4-9.2 8.5-9.2c4.3 0 7.9 2.8 7.9 8.7c-.03-.04 0 1.7 0 1.7c0 0-12.31-.01-12.3 0zm.1-3.1h8c0-2.3-1.6-3.7-3.8-3.7c-1.9 0-3.8 1.1-4.2 3.7zm33.2-3.1s-1.12.02-1.1 0c-3 0-4.6 1.6-4.6 5.1c-.03 0 0 8.6 0 8.6h-4.3V50.9h4.2s.04 2.51 0 2.5c.9-1.9 2.6-2.7 4.6-2.7h1.2v4.1zm4.8 6.2c.1 2.9 2.1 4.2 4.5 4.2c1.7 0 3.3-.7 3.8-2.3h3.9c-.8 3.9-4.3 6-7.9 6c-4.2 0-8.5-2.9-8.5-9.1c0-6.1 4-9.2 8.5-9.2c4.3 0 8 2.8 8 8.7c-.05-.04 0 1.7 0 1.7c0 0-12.33-.01-12.3 0zm.1-3.1h8c0-2.3-1.6-3.7-3.8-3.7c-2 0-3.9 1.1-4.2 3.7zm29.3-1.2v11.8h-4.2s.05-2.52 0-2.5c-1.3 2.2-3.4 2.9-5.3 2.9c-2.8 0-5.7-1.6-5.7-5.4c0-2.8 1.5-4.7 5.6-5.3l3.8-.6c1.1-.1 1.8-.5 1.8-1.6c0-1.5-1.3-2.1-3-2.1c-2.2 0-3.3 1.1-3.4 2.6h-4.1c.4-4.1 3.7-5.9 7.7-5.9c4.2 0 6.8 1.9 6.8 6.1zm-4.1 4.4v-.9c-.4.2-1.2.4-2.1.5l-1.9.3c-2.2.2-2.9 1.1-2.9 2.3c0 1.3 1 2.1 2.5 2.1c2.2 0 4.4-1.7 4.4-4.3zm12.2 7.4h-4.3V44.2h4.3v24.3zm21.1 0H614l-6.5-17.6h4.5l4.3 12.6l4.4-12.6h4.4l-6.6 17.6zM641 56.7c-.05-.03 0 11.8 0 11.8h-4.2s-.01-2.52 0-2.5c-1.4 2.2-3.5 2.9-5.4 2.9c-2.8 0-5.7-1.6-5.7-5.4c0-2.8 1.6-4.7 5.7-5.3l3.8-.6c1-.1 1.8-.5 1.8-1.6c0-1.5-1.3-2.1-3-2.1c-2.3 0-3.3 1.1-3.5 2.6h-4.1c.5-4.1 3.8-5.9 7.8-5.9c4.1 0 6.8 1.9 6.8 6.1zm-4.2 4.4v-.9c-.4.2-1.2.4-2.1.5l-1.9.3c-2.1.2-2.8 1.1-2.8 2.3c0 1.3 1 2.1 2.4 2.1c2.2 0 4.4-1.7 4.4-4.3zm12.2 7.4h-4.2V44.2h4.2v24.3zm19.7 0h-4.2V66c-1 1.7-2.6 2.7-5.1 2.7c-3.7 0-6.4-2.3-6.4-6.8c.05-.04 0-11 0-11h4.3v10.6c0 2.4 1.2 3.5 3 3.5c2.4 0 4.1-1.5 4.1-5.6c.01.02 0-8.5 0-8.5h4.3v17.6zm7.1-7.5c.1 2.9 2.2 4.2 4.6 4.2c1.6 0 3.2-.7 3.8-2.3h3.9c-.8 3.9-4.3 6-7.9 6c-4.3 0-8.5-2.9-8.5-9.1c0-6.1 4-9.2 8.5-9.2c4.3 0 7.9 2.8 7.9 8.7c.02-.04 0 1.7 0 1.7c0 0-12.27-.01-12.3 0zm.1-3.1h8.1c0-2.3-1.7-3.7-3.8-3.7c-2 0-3.9 1.1-4.3 3.7zm23.1-9.4h4.5v-4.8H699v4.8zm.1 2.4h4.3v17.6h-4.3V50.9zm22.5 12.2c0 3.9-3.5 5.8-7.5 5.8c-3.6 0-7.6-1.5-7.9-6h4.3c.3 1.8 1.9 2.5 3.9 2.5c1.8 0 3-.6 3-1.9c0-1.1-.8-1.4-3.2-1.8c-3.5-.6-7.4-1.2-7.4-5.5c0-4 3.3-5.6 7-5.6c4.1 0 7.2 2 7.4 5.9H717c-.1-1.7-1.4-2.4-3.2-2.4c-2.1 0-2.9.9-2.9 2c0 1.3 1.6 1.6 3.7 1.9c3.2.5 7 .9 7 5.1zm1.8.5h4.8v4.9h-4.8v-4.9z" stroke="none" fill="#000"/></g><g id="Polygon12759"><path d="m7 30.1H2.6v-24h4.4v24zm20.2-11.3c-.03-.05 0 11.3 0 11.3h-4.3v-11c0-1.9-1.1-3.1-3.1-3.1c-2.4 0-3.9 1.7-3.9 4.6v9.5h-4.3V12.5h4.3s-.03 2.54 0 2.5c1-1.6 2.4-2.8 5.3-2.8c4.1 0 6 2.3 6 6.6zm21.3 11.3s-2.77.04-2.8 0c-3.3 0-5.4-1-5.4-5.7c.02-.02 0-8.1 0-8.1h-3.2v-3.8h3.2v-4l4.3-1.2v5.2h3.5v3.8h-3.5s-.02 8.28 0 8.3c0 1 .3 1.8 1.8 1.8c-.03-.03 2.1 0 2.1 0v3.7zm17.9-11.3c.03-.05 0 11.3 0 11.3h-4.2s-.02-10.96 0-11c0-1.9-1.1-3.1-3.1-3.1c-2.5 0-3.9 1.7-3.9 4.6c-.03.01 0 9.5 0 9.5h-4.3V5.8h4.3s-.03 9.18 0 9.2c1-1.7 2.5-2.8 5.3-2.8c4 0 5.9 2.3 5.9 6.6zm3.9-8.7h4.5V5.3h-4.5v4.8zm.1 2.4h4.3v17.6h-4.3V12.5zm22.5 12.2c0 3.9-3.5 5.8-7.5 5.8c-3.6 0-7.6-1.5-7.9-6h4.3c.3 1.8 1.8 2.5 3.8 2.5c1.8 0 3.1-.6 3.1-1.9c0-1.1-.8-1.4-3.3-1.8c-3.4-.6-7.4-1.2-7.4-5.5c0-4 3.4-5.6 7.1-5.6c4.1 0 7.1 2 7.4 5.9h-4.2c-.1-1.7-1.4-2.4-3.2-2.4c-2.1 0-2.9.9-2.9 2c0 1.3 1.5 1.6 3.7 1.9c3.2.5 7 .9 7 5.1zm13.2-2.1c.1 2.9 2.2 4.2 4.6 4.2c1.7 0 3.3-.7 3.8-2.3h3.9c-.8 3.9-4.3 6-7.9 6c-4.3 0-8.5-2.9-8.5-9.1c0-6.1 4-9.2 8.5-9.2c4.3 0 7.9 2.8 7.9 8.7c.03-.04 0 1.7 0 1.7c0 0-12.26-.01-12.3 0zm.1-3.1h8.1c0-2.3-1.7-3.7-3.8-3.7c-2 0-3.9 1.1-4.3 3.7zm30.8-.7v11.3h-4.3s.03-10.96 0-11c0-1.9-1.1-3.1-3.1-3.1c-2.4 0-3.9 1.7-3.9 4.6c.03.01 0 9.5 0 9.5h-4.2V12.5h4.2s-.01 2.54 0 2.5c1-1.6 2.4-2.8 5.4-2.8c4 0 5.9 2.3 5.9 6.6zm12.9 11.3h-4.5l-6.5-17.6h4.5l4.3 12.6l4.4-12.6h4.4l-6.6 17.6zm8.5-20h4.5V5.3h-4.5v4.8zm.2 2.4h4.2v17.6h-4.2V12.5zm18.3 3.9s-1.1.02-1.1 0c-3 0-4.6 1.6-4.6 5.1v8.6h-4.3V12.5h4.3s-.04 2.51 0 2.5c.9-1.9 2.5-2.7 4.6-2.7c-.03-.01 1.1 0 1.1 0v4.1zm17.9 4.9c0 5.8-3.7 9.2-8.6 9.2c-5 0-8.6-3.4-8.6-9.2c0-5.7 3.6-9.1 8.6-9.1c4.9 0 8.6 3.4 8.6 9.1zm-12.9 0c0 3.6 2 5.3 4.3 5.3c2.6 0 4.3-2 4.3-5.3c0-3.5-2-5.2-4.4-5.2c-2.5 0-4.2 1.9-4.2 5.2zm31.5-2.5c-.03-.05 0 11.3 0 11.3h-4.3s.02-10.96 0-11c0-1.9-1.1-3.1-3.1-3.1c-2.4 0-3.9 1.7-3.9 4.6v9.5h-4.2V12.5h4.2s-.02 2.54 0 2.5c1-1.6 2.4-2.8 5.4-2.8c4 0 5.9 2.3 5.9 6.6zm28.9-.6v11.9H238s.04-11.03 0-11c0-2.1-.9-3.1-2.7-3.1c-2 0-3.3 1.2-3.3 4.2c-.04.02 0 9.9 0 9.9h-4.3v-11c0-2.1-1-3.1-2.8-3.1c-2 0-3.3 1.3-3.3 4.2c.03-.01 0 9.9 0 9.9h-4.2V12.5h4.2s-.04 2.57 0 2.6c.5-1.4 1.9-2.9 4.5-2.9c2.3 0 4.1 1 4.9 2.9c.7-1.3 2-2.9 5.2-2.9c3.7 0 6.1 2.2 6.1 6zm7 4.4c.1 2.9 2.2 4.2 4.6 4.2c1.6 0 3.2-.7 3.7-2.3h3.9c-.7 3.9-4.2 6-7.8 6c-4.3 0-8.5-2.9-8.5-9.1c0-6.1 4-9.2 8.5-9.2c4.3 0 7.9 2.8 7.9 8.7v1.7s-12.29-.01-12.3 0zm.1-3.1h8c0-2.3-1.6-3.7-3.8-3.7c-1.9 0-3.8 1.1-4.2 3.7zm30.8-.7c-.04-.05 0 11.3 0 11.3h-4.3v-11c0-1.9-1.1-3.1-3.1-3.1c-2.4 0-3.9 1.7-3.9 4.6v9.5h-4.3V12.5h4.3s-.04 2.54 0 2.5c1-1.6 2.4-2.8 5.3-2.8c4.1 0 6 2.3 6 6.6zm13 11.3s-2.8.04-2.8 0c-3.3 0-5.4-1-5.4-5.7v-8.1h-3.2v-3.8h3.2v-4l4.2-1.2v5.2h3.6v3.8h-3.6s.04 8.28 0 8.3c0 1 .3 1.8 1.8 1.8c.04-.03 2.2 0 2.2 0v3.7zm4.7-.2c-.05-.04-2.2 0-2.2 0v-4.5h4.9s-.03 3.85 0 3.8c0 4.7-3.2 6.3-6 6.6l-.5-2.3c2.3-.2 3.8-1.6 3.8-3.6zm27.5-11.6v11.8h-4.2s.04-2.52 0-2.5c-1.3 2.2-3.4 2.9-5.3 2.9c-2.8 0-5.7-1.6-5.7-5.4c0-2.8 1.5-4.7 5.6-5.3l3.8-.6c1.1-.1 1.8-.5 1.8-1.6c0-1.5-1.3-2.1-3-2.1c-2.2 0-3.3 1.1-3.4 2.6h-4.1c.4-4.1 3.7-5.9 7.7-5.9c4.2 0 6.8 1.9 6.8 6.1zm-4.1 4.4v-.9c-.4.2-1.2.4-2.1.5l-1.9.3c-2.2.2-2.9 1.1-2.9 2.3c0 1.3 1 2.1 2.5 2.1c2.2 0 4.4-1.7 4.4-4.3zm22.1 2c0 3.9-3.6 5.8-7.5 5.8c-3.7 0-7.6-1.5-7.9-6h4.3c.2 1.8 1.8 2.5 3.8 2.5c1.8 0 3.1-.6 3.1-1.9c0-1.1-.9-1.4-3.3-1.8c-3.5-.6-7.4-1.2-7.4-5.5c0-4 3.4-5.6 7-5.6c4.1 0 7.2 2 7.4 5.9h-4.1c-.2-1.7-1.4-2.4-3.2-2.4c-2.1 0-3 .9-3 2c0 1.3 1.6 1.6 3.7 1.9c3.2.5 7.1.9 7.1 5.1zm24.9-6.4c.05-.03 0 11.8 0 11.8h-4.1s-.01-2.52 0-2.5c-1.4 2.2-3.5 2.9-5.4 2.9c-2.8 0-5.7-1.6-5.7-5.4c0-2.8 1.6-4.7 5.6-5.3l3.9-.6c1-.1 1.7-.5 1.7-1.6c0-1.5-1.2-2.1-2.9-2.1c-2.3 0-3.3 1.1-3.5 2.6h-4.1c.5-4.1 3.8-5.9 7.8-5.9c4.1 0 6.7 1.9 6.7 6.1zm-4.1 4.4v-.9c-.4.2-1.2.4-2.1.5l-1.9.3c-2.1.2-2.8 1.1-2.8 2.3c0 1.3 1 2.1 2.4 2.1c2.2 0 4.4-1.7 4.4-4.3zm23.5-3.9v11.3h-4.2s-.05-10.96 0-11c0-1.9-1.2-3.1-3.2-3.1c-2.4 0-3.9 1.7-3.9 4.6c.04.01 0 9.5 0 9.5h-4.2V12.5h4.2s.01 2.54 0 2.5c1-1.6 2.4-2.8 5.4-2.8c4 0 5.9 2.3 5.9 6.6zm12.5-8.7h4.5V5.3h-4.5v4.8zm.1 2.4h4.3v17.6h-4.3V12.5zm23.9 6.3c.02-.05 0 11.3 0 11.3H420s-.04-10.96 0-11c0-1.9-1.2-3.1-3.1-3.1c-2.5 0-3.9 1.7-3.9 4.6c-.05.01 0 9.5 0 9.5h-4.3V12.5h4.2s.02 2.54 0 2.5c1-1.6 2.5-2.8 5.4-2.8c4 0 5.9 2.3 5.9 6.6zm13 11.3h-4.5l-6.6-17.6h4.5l4.4 12.6l4.3-12.6h4.4l-6.5 17.6zm11.3-7.5c.1 2.9 2.1 4.2 4.5 4.2c1.7 0 3.3-.7 3.8-2.3h3.9c-.7 3.9-4.2 6-7.8 6c-4.3 0-8.5-2.9-8.5-9.1c0-6.1 4-9.2 8.5-9.2c4.3 0 7.9 2.8 7.9 8.7c-.01-.04 0 1.7 0 1.7c0 0-12.3-.01-12.3 0zm.1-3.1h8c0-2.3-1.6-3.7-3.8-3.7c-1.9 0-3.8 1.1-4.2 3.7zm29.3 5.2c0 3.9-3.5 5.8-7.4 5.8c-3.7 0-7.7-1.5-7.9-6h4.2c.3 1.8 1.9 2.5 3.9 2.5c1.8 0 3.1-.6 3.1-1.9c0-1.1-.9-1.4-3.3-1.8c-3.5-.6-7.4-1.2-7.4-5.5c0-4 3.4-5.6 7-5.6c4.1 0 7.2 2 7.4 5.9h-4.1c-.2-1.7-1.4-2.4-3.2-2.4c-2.1 0-3 .9-3 2c0 1.3 1.6 1.6 3.7 1.9c3.2.5 7 .9 7 5.1zm11.9 5.4s-2.74.04-2.7 0c-3.3 0-5.4-1-5.4-5.7c-.04-.02 0-8.1 0-8.1h-3.3v-3.8h3.3v-4l4.2-1.2v5.2h3.5v3.8h-3.5v8.3c0 1 .3 1.8 1.8 1.8c0-.03 2.1 0 2.1 0v3.7zm18.6-8.8c0 5.8-3.7 9.2-8.7 9.2c-4.9 0-8.6-3.4-8.6-9.2c0-5.7 3.7-9.1 8.6-9.1c5 0 8.7 3.4 8.7 9.1zm-12.9 0c0 3.6 1.9 5.3 4.3 5.3c2.5 0 4.2-2 4.2-5.3c0-3.5-1.9-5.2-4.3-5.2c-2.5 0-4.2 1.9-4.2 5.2zm25.9-4.9s-1.12.02-1.1 0c-3 0-4.6 1.6-4.6 5.1c-.03 0 0 8.6 0 8.6h-4.3V12.5h4.2s.04 2.51 0 2.5c.9-1.9 2.6-2.7 4.6-2.7h1.2v4.1zm2.8 13.5c-.05-.04-2.2 0-2.2 0v-4.5h4.9s-.03 3.85 0 3.8c0 4.7-3.2 6.3-6 6.6l-.5-2.3c2.3-.2 3.8-1.6 3.8-3.6zm27.9-17.4l-7.7 20.3c-.8 2.1-2.6 3-5 3c.02-.02-2.6 0-2.6 0V32h1.9c1.4 0 2.1-.5 2.5-1.7l.3-.9l-6.6-16.9h4.5l4.2 11.6l4.1-11.6h4.4zm17.9 8.8c0 5.8-3.7 9.2-8.7 9.2c-4.9 0-8.6-3.4-8.6-9.2c0-5.7 3.7-9.1 8.6-9.1c5 0 8.7 3.4 8.7 9.1zm-12.9 0c0 3.6 1.9 5.3 4.3 5.3c2.5 0 4.2-2 4.2-5.3c0-3.5-1.9-5.2-4.3-5.2c-2.5 0-4.2 1.9-4.2 5.2zm31.4 8.8h-4.2s.01-2.45 0-2.5c-1 1.7-2.6 2.7-5.1 2.7c-3.7 0-6.3-2.3-6.3-6.8c-.04-.04 0-11 0-11h4.2v10.6c0 2.4 1.2 3.5 3 3.5c2.4 0 4.1-1.5 4.1-5.6c.02.02 0-8.5 0-8.5h4.3v17.6zm31.5 0h-4.1l-3.6-11.3l-3.6 11.3h-4.1l-5.9-17.6h4.6l3.4 11.8l3.6-11.8h4.1l3.6 11.8l3.5-11.8h4.3L620 30.1zm21.9-11.8c-.02-.03 0 11.8 0 11.8h-4.2s.02-2.52 0-2.5c-1.4 2.2-3.5 2.9-5.3 2.9c-2.8 0-5.8-1.6-5.8-5.4c0-2.8 1.6-4.7 5.7-5.3l3.8-.6c1-.1 1.8-.5 1.8-1.6c0-1.5-1.3-2.1-3-2.1c-2.3 0-3.3 1.1-3.5 2.6h-4c.4-4.1 3.7-5.9 7.7-5.9c4.2 0 6.8 1.9 6.8 6.1zm-4.1 4.4v-.9c-.5.2-1.3.4-2.1.5l-1.9.3c-2.2.2-2.9 1.1-2.9 2.3c0 1.3 1 2.1 2.5 2.1c2.2 0 4.4-1.7 4.4-4.3zm23.4-3.9c.04-.05 0 11.3 0 11.3H657s-.02-10.96 0-11c0-1.9-1.1-3.1-3.1-3.1c-2.5 0-3.9 1.7-3.9 4.6c-.02.01 0 9.5 0 9.5h-4.3V12.5h4.2s.04 2.54 0 2.5c1-1.6 2.5-2.8 5.4-2.8c4.1 0 5.9 2.3 5.9 6.6zm13.1 11.3s-2.82.04-2.8 0c-3.3 0-5.4-1-5.4-5.7c-.03-.02 0-8.1 0-8.1h-3.3v-3.8h3.3v-4l4.2-1.2v5.2h3.5v3.8h-3.5s.03 8.28 0 8.3c0 1 .3 1.8 1.8 1.8c.02-.03 2.2 0 2.2 0v3.7zm24.2-5.4c0 3.9-3.6 5.8-7.5 5.8c-3.7 0-7.6-1.5-7.9-6h4.3c.2 1.8 1.8 2.5 3.8 2.5c1.8 0 3.1-.6 3.1-1.9c0-1.1-.9-1.4-3.3-1.8c-3.5-.6-7.4-1.2-7.4-5.5c0-4 3.4-5.6 7-5.6c4.1 0 7.2 2 7.4 5.9h-4.1c-.2-1.7-1.4-2.4-3.2-2.4c-2.1 0-3 .9-3 2c0 1.3 1.6 1.6 3.7 1.9c3.2.5 7.1.9 7.1 5.1zm19-3.4c0 5.8-3.7 9.2-8.7 9.2c-4.9 0-8.6-3.4-8.6-9.2c0-5.7 3.7-9.1 8.6-9.1c5 0 8.7 3.4 8.7 9.1zm-12.9 0c0 3.6 1.9 5.3 4.3 5.3c2.5 0 4.2-2 4.2-5.3c0-3.5-1.9-5.2-4.3-5.2c-2.5 0-4.2 1.9-4.2 5.2zm40.8-3.1c.03.04 0 11.9 0 11.9h-4.2s-.03-11.03 0-11c0-2.1-1-3.1-2.8-3.1c-2 0-3.3 1.2-3.3 4.2v9.9h-4.3s.04-11.03 0-11c0-2.1-1-3.1-2.7-3.1c-2 0-3.3 1.3-3.3 4.2c-.04-.01 0 9.9 0 9.9h-4.3V12.5h4.2v2.6c.5-1.4 1.9-2.9 4.6-2.9c2.2 0 4 1 4.8 2.9c.7-1.3 2-2.9 5.2-2.9c3.7 0 6.1 2.2 6.1 6zm7 4.4c.1 2.9 2.2 4.2 4.6 4.2c1.6 0 3.2-.7 3.8-2.3h3.9c-.8 3.9-4.3 6-7.9 6c-4.3 0-8.5-2.9-8.5-9.1c0-6.1 4-9.2 8.5-9.2c4.3 0 7.9 2.8 7.9 8.7c.03-.04 0 1.7 0 1.7c0 0-12.26-.01-12.3 0zm.1-3.1h8.1c0-2.3-1.7-3.7-3.8-3.7c-2 0-3.9 1.1-4.3 3.7zm31.4 1.8c0 5.8-3.7 9.2-8.6 9.2c-5 0-8.7-3.4-8.7-9.2c0-5.7 3.7-9.1 8.7-9.1c4.9 0 8.6 3.4 8.6 9.1zm-12.9 0c0 3.6 2 5.3 4.3 5.3c2.5 0 4.2-2 4.2-5.3c0-3.5-1.9-5.2-4.3-5.2c-2.5 0-4.2 1.9-4.2 5.2zm31.5-2.5c-.05-.05 0 11.3 0 11.3h-4.3v-11c0-1.9-1.1-3.1-3.1-3.1c-2.4 0-3.9 1.7-3.9 4.6v9.5h-4.3V12.5h4.3s-.04 2.54 0 2.5c1-1.6 2.4-2.8 5.3-2.8c4.1 0 6 2.3 6 6.6zm7 3.8c.1 2.9 2.1 4.2 4.5 4.2c1.7 0 3.3-.7 3.8-2.3h3.9c-.8 3.9-4.3 6-7.9 6c-4.2 0-8.5-2.9-8.5-9.1c0-6.1 4-9.2 8.5-9.2c4.3 0 8 2.8 8 8.7c-.05-.04 0 1.7 0 1.7c0 0-12.34-.01-12.3 0zm.1-3.1h8c0-2.3-1.6-3.7-3.8-3.7c-2 0-3.9 1.1-4.2 3.7z" stroke="none" fill="#000"/></g></svg>