<?xml version="1.0" standalone="no"?><!DOCTYPE svg PUBLIC "-//W3C//DTD SVG 1.1//EN" "http://www.w3.org/Graphics/SVG/1.1/DTD/svg11.dtd"><svg xmlns="http://www.w3.org/2000/svg" version="1.1" width="437px" height="265.4px" viewBox="0 -4 437 265.4" style="top:-4px"><desc>Are there certain asset classes sectors that investors should avoid Mark: We would be wary of longer-dated governme</desc><defs/><g id="Polygon11923"><path d="m10.1 228.2c0 2.3-2.1 3.4-4.4 3.4c-2.4 0-4.6-1.2-4.9-3.7h1.7c.2 1.7 1.7 2.3 3.2 2.3c1.5 0 2.8-.5 2.8-1.8c0-1.3-1.3-1.6-2.7-1.8c-2.1-.4-4.7-.8-4.7-3.4c0-2.2 1.9-3.3 4.3-3.3c2.3 0 4.2 1.1 4.4 3.4H8.2c-.1-1.4-1.4-2-2.9-2c-1.5 0-2.6.7-2.6 1.8c0 1.5 1.4 1.7 3.1 2c2 .3 4.3.6 4.3 3.1zm7.6 3.2s-1.64-.02-1.6 0c-1.5 0-2.9-.5-2.9-3c.03.02 0-6.9 0-6.9H11v-1.4h2.2v-3.2l1.6-.4v3.6h2.7v1.4h-2.7s-.04 6.9 0 6.9c0 1 .3 1.6 1.5 1.6h1.4v1.4zm7.9-10s-.4.03-.4 0c-2.4 0-3.7 1.4-3.7 4c-.04 0 0 6 0 6h-1.6v-11.3h1.5s.04 2.08 0 2.1c.6-1.5 1.9-2.2 3.7-2.2c-.03-.02.5 0 .5 0v1.4zm9.4 10s-.04-2.16 0-2.2c-.8 1.6-2.2 2.3-3.8 2.3c-2.1 0-3.8-1.3-3.8-3.9c.05-.04 0-7.5 0-7.5h1.6s-.02 7.27 0 7.3c0 1.8 1 2.8 2.5 2.8c1.8 0 3.4-1.4 3.4-4.3v-5.8h1.5v11.3H35zm9.3.2c-3.1 0-5.2-2.3-5.2-5.8c0-3.6 2.1-5.9 5.3-5.9c2.5 0 4.5 1.4 4.7 3.9h-1.5c-.2-1.6-1.6-2.5-3.2-2.5c-2.2 0-3.8 1.7-3.8 4.4c0 2.8 1.6 4.5 3.8 4.5c1.7 0 3-1 3.2-2.8h1.5c-.2 2.7-2.3 4.2-4.8 4.2zm12.5-.2s-1.61-.02-1.6 0c-1.5 0-2.8-.5-2.8-3c-.05.02 0-6.9 0-6.9h-2.3v-1.4h2.3v-3.2l1.5-.4v3.6h2.7v1.4h-2.7v6.9c0 1 .3 1.6 1.5 1.6h1.4v1.4zm9.7 0s-.04-2.16 0-2.2c-.8 1.6-2.2 2.3-3.8 2.3c-2.1 0-3.8-1.3-3.8-3.9c.05-.04 0-7.5 0-7.5h1.6s-.02 7.27 0 7.3c0 1.8 1 2.8 2.5 2.8c1.8 0 3.4-1.4 3.4-4.3v-5.8h1.5v11.3h-1.4zm10.4-10s-.34.03-.3 0c-2.4 0-3.8 1.4-3.8 4c.03 0 0 6 0 6h-1.5v-11.3h1.5v2.1c.5-1.5 1.9-2.2 3.6-2.2c.04-.02.5 0 .5 0v1.4zm8.9 7.9c-.8 1.7-2.5 2.3-4 2.3c-1.9 0-3.6-1.1-3.6-3.3c0-2.1 1.5-3.1 3.4-3.3l2.7-.4c.8-.1 1.5-.4 1.5-1.4c0-1.3-1.1-2-2.7-2c-1.7 0-2.7.8-2.9 2.1h-1.6c.3-2.3 2.1-3.4 4.6-3.4c2.6 0 4.1 1.2 4.1 3.7c.04-.01 0 7.8 0 7.8h-1.5s.05-2.08 0-2.1zm-1.8-3.4l-1.7.2c-1.5.2-2.5.7-2.5 2.1c0 1.4 1 2 2.3 2c1.8 0 3.7-1.3 3.7-3.7v-1.1c-.4.3-1.1.4-1.8.5zm8 5.5h-1.5v-16h1.5v16zm13.1.2c-3.1 0-5.2-2.3-5.2-5.8c0-3.6 2.1-5.9 5.4-5.9c2.4 0 4.4 1.4 4.6 3.9h-1.5c-.1-1.6-1.5-2.5-3.2-2.5c-2.2 0-3.8 1.7-3.8 4.4c0 2.8 1.6 4.5 3.8 4.5c1.7 0 3.1-1 3.2-2.8h1.5c-.2 2.7-2.3 4.2-4.8 4.2zm16.6-7.9v7.7h-1.5s-.04-7.56 0-7.6c0-1.5-.9-2.5-2.5-2.5c-2 0-3.6 1.4-3.6 4.2c-.03-.04 0 5.9 0 5.9h-1.6v-16h1.6s-.03 6.68 0 6.7c.6-1.3 1.8-2.2 3.8-2.2c2.3 0 3.8 1.3 3.8 3.8zm10.2 5.6c-.9 1.7-2.6 2.3-4 2.3c-2 0-3.7-1.1-3.7-3.3c0-2.1 1.5-3.1 3.4-3.3l2.7-.4c.8-.1 1.6-.4 1.6-1.4c0-1.3-1.2-2-2.8-2c-1.7 0-2.7.8-2.9 2.1h-1.5c.3-2.3 2.1-3.4 4.6-3.4c2.5 0 4.1 1.2 4.1 3.7c-.03-.01 0 7.8 0 7.8h-1.5s-.02-2.08 0-2.1zm-1.9-3.4l-1.7.2c-1.4.2-2.5.7-2.5 2.1c0 1.4 1.1 2 2.3 2c1.8 0 3.7-1.3 3.7-3.7v-1.1c-.4.3-1 .4-1.8.5zm15.7-2.2c-.03-.05 0 7.7 0 7.7h-1.6s.04-7.56 0-7.6c0-1.5-.8-2.5-2.4-2.5c-2 0-3.6 1.4-3.6 4.2c-.05-.04 0 5.9 0 5.9h-1.6v-11.3h1.6s-.05 2.1 0 2.1c.6-1.3 1.9-2.3 3.9-2.3c2.2 0 3.7 1.3 3.7 3.8zm12.9 7.2c0 3.4-2.2 5.1-5.1 5.1c-2.5 0-4.7-1.3-5.1-3.9h1.6c.2 1.4 1.3 2.6 3.5 2.6c2.1 0 3.7-1.1 3.7-3.7v-2.3c-.9 1.7-2.6 2.3-4 2.3c-2.8 0-5-1.9-5-5.6c0-3.7 2.3-5.5 5-5.5c1.9 0 3.2.8 3.9 2c.02.03 0-1.8 0-1.8h1.5s.03 10.78 0 10.8zm-1.5-5.5c0-2.8-1.7-4.2-3.7-4.2c-1.9 0-3.7 1.4-3.7 4.2c0 2.8 1.7 4.2 3.7 4.2c1.8 0 3.7-1.2 3.7-4.2zm5.6.7c0 2.8 1.7 4.1 3.7 4.1c1.5 0 3-.7 3.3-2.3h1.5c-.5 2.6-2.7 3.7-4.9 3.7c-2.6 0-5.1-1.8-5.1-5.8c0-4.1 2.5-5.9 5.2-5.9c2.7 0 4.9 1.7 4.9 5.5c-.05-.05 0 .7 0 .7h-8.6zm0-1.3h7c0-2.3-1.5-3.5-3.4-3.5c-1.7 0-3.4 1.1-3.6 3.5zm10.9-4.5h2.1v2.2h-2.1v-2.2zm0 8.9h2.1v2.2h-2.1v-2.2z" stroke="none" fill="#000"/></g><g id="Polygon11922"><path d="m13 206.2h-1.6l-2.9-9l-2.9 9H4.1L.4 194.9h1.6l2.9 9.3l2.8-9.3h1.6l2.9 9.3l2.9-9.3h1.5L13 206.2zm12.5-2.1c-.9 1.7-2.6 2.3-4.1 2.3c-1.9 0-3.6-1.1-3.6-3.3c0-2.1 1.5-3.1 3.4-3.3l2.7-.4c.8-.1 1.6-.4 1.6-1.4c0-1.3-1.2-2-2.8-2c-1.7 0-2.7.8-2.9 2.1h-1.6c.3-2.3 2.1-3.4 4.6-3.4c2.6 0 4.1 1.2 4.1 3.7c.04-.01 0 7.8 0 7.8h-1.4s-.05-2.08 0-2.1zm-1.9-3.4l-1.7.2c-1.5.2-2.5.7-2.5 2.1c0 1.4 1.1 2 2.3 2c1.8 0 3.7-1.3 3.7-3.7v-1.1c-.4.3-1.1.4-1.8.5zm12.1-4.5s-.34.03-.3 0c-2.4 0-3.8 1.4-3.8 4c.03 0 0 6 0 6h-1.5v-11.3h1.5v2.1c.5-1.5 1.9-2.2 3.6-2.2c.04-.02.5 0 .5 0v1.4zm5.8 12.1c-.5 1.2-1.5 1.6-2.7 1.6c.05-.02-1.1 0-1.1 0v-1.4s.94.01.9 0c1 0 1.5-.3 1.8-1.3c.05-.01.6-1.5.6-1.5l-4.2-10.8h1.6l3.3 8.9l3.3-8.9h1.6s-5.15 13.42-5.1 13.4zm11.1-7.7c0-3.7 2.3-5.9 5.4-5.9c3.1 0 5.3 2.2 5.3 5.9c0 3.6-2.2 5.8-5.3 5.8c-3.1 0-5.4-2.2-5.4-5.8zm9.2-.1c0-2.8-1.7-4.4-3.8-4.4c-2.2 0-3.8 1.7-3.8 4.5c0 2.8 1.7 4.4 3.8 4.4c2.2 0 3.8-1.7 3.8-4.5zm7.8-9c-1.3 0-1.6.6-1.6 1.7v1.7h2.5v1.4H68v9.9h-1.5v-9.9h-1.9v-1.4h1.9s-.04-1.78 0-1.8c0-2.5 1.3-2.9 2.8-2.9c0-.02 1.5 0 1.5 0v1.3s-1.25.04-1.2 0zm12.5 14.9c-3.1 0-5.2-2.3-5.2-5.8c0-3.6 2.1-5.9 5.3-5.9c2.5 0 4.5 1.4 4.7 3.9h-1.5c-.2-1.6-1.5-2.5-3.2-2.5c-2.2 0-3.8 1.7-3.8 4.4c0 2.8 1.6 4.5 3.8 4.5c1.7 0 3.1-1 3.2-2.8h1.5c-.2 2.7-2.3 4.2-4.8 4.2zm6.7-5.8c0-3.7 2.2-5.9 5.3-5.9c3.1 0 5.4 2.2 5.4 5.9c0 3.6-2.2 5.8-5.4 5.8c-3.1 0-5.3-2.2-5.3-5.8zm9.1-.1c0-2.8-1.7-4.4-3.8-4.4c-2.2 0-3.7 1.7-3.7 4.5c0 2.8 1.7 4.4 3.8 4.4c2.1 0 3.7-1.7 3.7-4.5zm13.4-2c-.04-.05 0 7.7 0 7.7h-1.6s.02-7.56 0-7.6c0-1.5-.9-2.5-2.5-2.5c-1.9 0-3.6 1.4-3.6 4.2c.03-.04 0 5.9 0 5.9h-1.5v-11.3h1.5s.03 2.1 0 2.1c.7-1.3 2-2.3 3.9-2.3c2.3 0 3.8 1.3 3.8 3.8zm6.8-7c-1.3 0-1.6.6-1.6 1.7c.05-.04 0 1.7 0 1.7h2.5v1.4h-2.5v9.9H115v-9.9h-1.9v-1.4h1.9s.02-1.78 0-1.8c0-2.5 1.4-2.9 2.9-2.9c-.05-.02 1.4 0 1.4 0v1.3s-1.2.04-1.2 0zm10.7 14.7s-.05-2.16 0-2.2c-.8 1.6-2.2 2.3-3.8 2.3c-2.1 0-3.8-1.3-3.8-3.9c.03-.04 0-7.5 0-7.5h1.6s-.04 7.27 0 7.3c0 1.8 1 2.8 2.5 2.8c1.8 0 3.4-1.4 3.4-4.3v-5.8h1.5v11.3h-1.4zM142 203c0 2.3-2.1 3.4-4.4 3.4c-2.4 0-4.6-1.2-4.9-3.7h1.7c.2 1.7 1.7 2.3 3.2 2.3c1.5 0 2.8-.5 2.8-1.8c0-1.3-1.3-1.6-2.7-1.8c-2.1-.4-4.7-.8-4.7-3.4c0-2.2 1.9-3.3 4.3-3.3c2.3 0 4.2 1.1 4.4 3.4h-1.6c-.1-1.4-1.4-2-2.9-2c-1.5 0-2.6.7-2.6 1.8c0 1.5 1.4 1.7 3.1 2c2 .3 4.3.6 4.3 3.1zm4.1-12.8h-1.7v1.9h1.7v-1.9zm-.1 16h-1.5v-11.3h1.5v11.3zm12.5-7.7c.03-.05 0 7.7 0 7.7H157v-7.6c0-1.5-.9-2.5-2.5-2.5c-1.9 0-3.6 1.4-3.6 4.2v5.9h-1.5v-11.3h1.5v2.1c.7-1.3 1.9-2.3 3.9-2.3c2.3 0 3.7 1.3 3.7 3.8zm13 7.2c0 3.4-2.2 5.1-5.1 5.1c-2.5 0-4.7-1.3-5.1-3.9h1.6c.2 1.4 1.2 2.6 3.5 2.6c2.1 0 3.6-1.1 3.6-3.7v-2.3c-.8 1.7-2.5 2.3-4 2.3c-2.7 0-5-1.9-5-5.6c0-3.7 2.4-5.5 5.1-5.5c1.8 0 3.2.8 3.9 2c-.03.03 0-1.8 0-1.8h1.5s-.02 10.78 0 10.8zm-1.6-5.5c0-2.8-1.7-4.2-3.6-4.2c-1.9 0-3.7 1.4-3.7 4.2c0 2.8 1.7 4.2 3.7 4.2c1.8 0 3.6-1.2 3.6-4.2zm17.4 3.9c-.8 1.7-2.5 2.3-4 2.3c-1.9 0-3.6-1.1-3.6-3.3c0-2.1 1.5-3.1 3.4-3.3l2.7-.4c.8-.1 1.5-.4 1.5-1.4c0-1.3-1.1-2-2.7-2c-1.7 0-2.7.8-3 2.1h-1.5c.3-2.3 2.1-3.4 4.6-3.4c2.6 0 4.1 1.2 4.1 3.7c.03-.01 0 7.8 0 7.8h-1.5s.04-2.08 0-2.1zm-1.8-3.4l-1.8.2c-1.4.2-2.5.7-2.5 2.1c0 1.4 1.1 2 2.4 2c1.7 0 3.7-1.3 3.7-3.7v-1.1c-.4.3-1.1.4-1.8.5zm15.8 5.7c-3.1 0-5.2-2.3-5.2-5.8c0-3.6 2.1-5.9 5.3-5.9c2.5 0 4.5 1.4 4.7 3.9h-1.5c-.2-1.6-1.6-2.5-3.2-2.5c-2.2 0-3.8 1.7-3.8 4.4c0 2.8 1.6 4.5 3.8 4.5c1.7 0 3.1-1 3.2-2.8h1.5c-.2 2.7-2.3 4.2-4.8 4.2zm10.7 1.9c-.4 1.2-1.4 1.6-2.6 1.6c.03-.02-1.1 0-1.1 0v-1.4s.92.01.9 0c1 0 1.5-.3 1.8-1.3c.03-.01.6-1.5.6-1.5l-4.2-10.8h1.6l3.3 8.9l3.3-8.9h1.5s-5.07 13.42-5.1 13.4zm11.4-1.9c-3.1 0-5.2-2.3-5.2-5.8c0-3.6 2.1-5.9 5.3-5.9c2.5 0 4.5 1.4 4.7 3.9h-1.5c-.2-1.6-1.5-2.5-3.2-2.5c-2.2 0-3.8 1.7-3.8 4.4c0 2.8 1.6 4.5 3.8 4.5c1.7 0 3.1-1 3.2-2.8h1.5c-.2 2.7-2.3 4.2-4.8 4.2zm9-.2h-1.6v-16h1.6v16zm5-16h-1.8v1.9h1.8v-1.9zm-.1 16h-1.6v-11.3h1.6v11.3zm7.8.2c-3.1 0-5.2-2.3-5.2-5.8c0-3.6 2.1-5.9 5.3-5.9c2.5 0 4.5 1.4 4.7 3.9h-1.5c-.2-1.6-1.5-2.5-3.2-2.5c-2.2 0-3.8 1.7-3.8 4.4c0 2.8 1.6 4.5 3.8 4.5c1.7 0 3.1-1 3.2-2.8h1.5c-.2 2.7-2.3 4.2-4.8 4.2zm14.4-2.3c-.9 1.7-2.6 2.3-4.1 2.3c-1.9 0-3.6-1.1-3.6-3.3c0-2.1 1.5-3.1 3.4-3.3l2.7-.4c.8-.1 1.6-.4 1.6-1.4c0-1.3-1.2-2-2.8-2c-1.7 0-2.7.8-2.9 2.1h-1.6c.3-2.3 2.1-3.4 4.6-3.4c2.6 0 4.1 1.2 4.1 3.7c.04-.01 0 7.8 0 7.8h-1.4s-.05-2.08 0-2.1zm-1.9-3.4l-1.7.2c-1.5.2-2.5.7-2.5 2.1c0 1.4 1.1 2 2.3 2c1.8 0 3.7-1.3 3.7-3.7v-1.1c-.4.3-1.1.4-1.8.5zm8 5.5h-1.5v-16h1.5v16zm18.4 0h-1.4s-.03-2.2 0-2.2c-.6 1.3-1.9 2.4-4 2.4c-3 0-5.1-2.3-5.1-5.9c0-3.5 2.1-5.8 5.1-5.8c1.9 0 3.3.9 3.9 2.1c.01.02 0-6.6 0-6.6h1.5v16zm-1.5-5.7c0-2.8-1.6-4.4-3.7-4.4c-2.2 0-3.7 1.7-3.7 4.4c0 2.8 1.5 4.5 3.7 4.5c2.2 0 3.7-1.7 3.7-4.5zm4.2.1c0-3.7 2.2-5.9 5.3-5.9c3.1 0 5.4 2.2 5.4 5.9c0 3.6-2.3 5.8-5.4 5.8c-3.1 0-5.3-2.2-5.3-5.8zm9.1-.1c0-2.8-1.7-4.4-3.8-4.4c-2.2 0-3.8 1.7-3.8 4.5c0 2.8 1.7 4.4 3.8 4.4c2.2 0 3.8-1.7 3.8-4.5zm15.2 5.7h-1.5l-2.9-9l-2.9 9h-1.5l-3.7-11.3h1.6l2.9 9.3l2.8-9.3h1.6l2.9 9.3l2.8-9.3h1.6l-3.7 11.3zm15-7.7c-.02-.05 0 7.7 0 7.7h-1.6s.05-7.56 0-7.6c0-1.5-.8-2.5-2.4-2.5c-2 0-3.6 1.4-3.6 4.2c-.04-.04 0 5.9 0 5.9h-1.6v-11.3h1.6s-.04 2.1 0 2.1c.6-1.3 1.9-2.3 3.9-2.3c2.2 0 3.7 1.3 3.7 3.8zm8.4 7.7s-1.68-.02-1.7 0c-1.5 0-2.8-.5-2.8-3c-.02.02 0-6.9 0-6.9h-2.2v-1.4h2.2v-3.2l1.5-.4v3.6h2.7v1.4h-2.7s.02 6.9 0 6.9c0 1 .3 1.6 1.6 1.6h1.4v1.4zm9.6 0V204c-.8 1.6-2.2 2.3-3.8 2.3c-2.1 0-3.7-1.3-3.7-3.9c-.02-.04 0-7.5 0-7.5h1.5v7.3c0 1.8 1 2.8 2.5 2.8c1.8 0 3.4-1.4 3.4-4.3c.03.04 0-5.8 0-5.8h1.6v11.3H344zm10.5-10s-.4.03-.4 0c-2.4 0-3.7 1.4-3.7 4c-.04 0 0 6 0 6h-1.6v-11.3h1.5s.04 2.08 0 2.1c.6-1.5 1.9-2.2 3.7-2.2c-.03-.02.5 0 .5 0v1.4zm11.1 2.3v7.7h-1.5s-.03-7.56 0-7.6c0-1.5-.9-2.5-2.5-2.5c-1.9 0-3.6 1.4-3.6 4.2c-.02-.04 0 5.9 0 5.9h-1.6v-11.3h1.6s-.02 2.1 0 2.1c.7-1.3 1.9-2.3 3.9-2.3c2.2 0 3.7 1.3 3.7 3.8zm19.8 7.7h-1.5l-2.9-9l-3 9h-1.5l-3.7-11.3h1.6l2.9 9.3l2.9-9.3h1.5l3 9.3l2.8-9.3h1.6l-3.7 11.3zm7.4-16h-1.7v1.9h1.7v-1.9zm-.1 16h-1.5v-11.3h1.5v11.3zm8.5 0s-1.66-.02-1.7 0c-1.5 0-2.8-.5-2.8-3v-6.9h-2.2v-1.4h2.2v-3.2l1.5-.4v3.6h2.8v1.4h-2.8s.04 6.9 0 6.9c0 1 .3 1.6 1.6 1.6h1.4v1.4zm11.4-7.7c-.04-.05 0 7.7 0 7.7H411s.03-7.56 0-7.6c0-1.5-.9-2.5-2.5-2.5c-1.9 0-3.6 1.4-3.6 4.2c.04-.04 0 5.9 0 5.9h-1.5v-16h1.5s.04 6.68 0 6.7c.7-1.3 1.9-2.2 3.9-2.2c2.3 0 3.8 1.3 3.8 3.8z" stroke="none" fill="#000"/></g><g id="Polygon11921"><path d="m5.3 166.3c-1.3 0-1.6.6-1.6 1.7c.02-.04 0 1.7 0 1.7h2.5v1.4H3.7v9.9H2.2v-9.9H.3v-1.4h1.9s-.02-1.78 0-1.8c0-2.5 1.3-2.9 2.8-2.9c.02-.02 1.5 0 1.5 0v1.3s-1.23.04-1.2 0zm2.3 9.1c0-3.7 2.2-5.9 5.3-5.9c3.1 0 5.3 2.2 5.3 5.9c0 3.6-2.2 5.8-5.3 5.8c-3.1 0-5.3-2.2-5.3-5.8zm9.1-.1c0-2.8-1.7-4.4-3.8-4.4c-2.2 0-3.8 1.7-3.8 4.5c0 2.8 1.7 4.4 3.8 4.4c2.2 0 3.8-1.7 3.8-4.5zm9.8-4.3s-.35.03-.4 0c-2.3 0-3.7 1.4-3.7 4v6h-1.5v-11.3h1.5v2.1c.5-1.5 1.9-2.2 3.6-2.2c.02-.02.5 0 .5 0v1.4zm12 10s-1.69-.02-1.7 0c-1.5 0-2.8-.5-2.8-3c-.02.02 0-6.9 0-6.9h-2.2v-1.4h2.2v-3.2l1.5-.4v3.6h2.7v1.4h-2.7v6.9c0 1 .3 1.6 1.6 1.6h1.4v1.4zm11.3-7.7c.03-.05 0 7.7 0 7.7h-1.5v-7.6c0-1.5-.9-2.5-2.5-2.5c-1.9 0-3.6 1.4-3.6 4.2v5.9h-1.5v-16h1.5s.01 6.68 0 6.7c.7-1.3 1.9-2.2 3.9-2.2c2.3 0 3.7 1.3 3.7 3.8zm4.9-8.3H53v1.9h1.7V165zm-.1 16h-1.5v-11.3h1.5V181zm11.8-3.2c0 2.3-2.1 3.4-4.4 3.4c-2.4 0-4.6-1.2-4.9-3.7h1.7c.2 1.7 1.7 2.3 3.2 2.3c1.5 0 2.8-.5 2.8-1.8c0-1.3-1.3-1.6-2.7-1.8c-2.1-.4-4.7-.8-4.7-3.4c0-2.2 1.9-3.3 4.3-3.3c2.3 0 4.2 1.1 4.4 3.4h-1.6c-.1-1.4-1.4-2-2.9-2c-1.5 0-2.6.7-2.6 1.8c0 1.5 1.4 1.7 3.1 2c2 .3 4.3.6 4.3 3.1zm7.7-8.1h1.5s.04 1.87 0 1.9c.6-1.4 1.9-2.1 3.3-2.1c1.7 0 3 .9 3.4 2.3c.5-1.2 1.7-2.3 3.7-2.3c2 0 3.6 1.1 3.6 3.4v8.1h-1.5s-.03-7.56 0-7.6c0-1.7-1.1-2.5-2.4-2.5c-1.7 0-3.1 1.3-3.1 3.6v6.5h-1.5v-7.6c0-1.7-1-2.5-2.4-2.5c-1.6 0-3 1.2-3 3.6c-.04.03 0 6.5 0 6.5h-1.6v-11.3zm18 5.7c0-3.7 2.3-5.9 5.4-5.9c3.1 0 5.3 2.2 5.3 5.9c0 3.6-2.2 5.8-5.3 5.8c-3.1 0-5.4-2.2-5.4-5.8zm9.1-.1c0-2.8-1.7-4.4-3.8-4.4c-2.2 0-3.7 1.7-3.7 4.5c0 2.8 1.7 4.4 3.8 4.4c2.2 0 3.7-1.7 3.7-4.5zm8.5 5.7H108l-4.1-11.3h1.6l3.4 9.7l3.4-9.7h1.6l-4.2 11.3zm6.8-5.3c0 2.8 1.7 4.1 3.7 4.1c1.5 0 3-.7 3.3-2.3h1.5c-.5 2.6-2.7 3.7-4.9 3.7c-2.6 0-5.1-1.8-5.1-5.8c0-4.1 2.5-5.9 5.2-5.9c2.7 0 4.9 1.7 4.9 5.5c-.05-.05 0 .7 0 .7h-8.6zm0-1.3h7c0-2.3-1.5-3.5-3.4-3.5c-1.7 0-3.4 1.1-3.6 3.5zm11.2-4.7h1.5v1.9c.6-1.4 1.8-2.1 3.3-2.1c1.6 0 2.9.9 3.3 2.3c.5-1.2 1.7-2.3 3.7-2.3c2 0 3.7 1.1 3.7 3.4c-.04 0 0 8.1 0 8.1h-1.6s.02-7.56 0-7.6c0-1.7-1-2.5-2.4-2.5c-1.7 0-3 1.3-3 3.6c-.04.03 0 6.5 0 6.5h-1.5s-.05-7.56 0-7.6c0-1.7-1.1-2.5-2.4-2.5c-1.7 0-3.1 1.2-3.1 3.6v6.5h-1.5v-11.3zm19.5 6c0 2.8 1.8 4.1 3.7 4.1c1.5 0 3-.7 3.3-2.3h1.5c-.5 2.6-2.7 3.7-4.8 3.7c-2.7 0-5.2-1.8-5.2-5.8c0-4.1 2.5-5.9 5.2-5.9c2.7 0 4.9 1.7 4.9 5.5c-.02-.05 0 .7 0 .7h-8.6zm0-1.3h7c0-2.3-1.4-3.5-3.3-3.5c-1.8 0-3.5 1.1-3.7 3.5zm20.4-1.1c-.04-.05 0 7.7 0 7.7H166s.02-7.56 0-7.6c0-1.5-.9-2.5-2.5-2.5c-1.9 0-3.6 1.4-3.6 4.2c.03-.04 0 5.9 0 5.9h-1.5v-11.3h1.5s.03 2.1 0 2.1c.7-1.3 2-2.3 3.9-2.3c2.3 0 3.8 1.3 3.8 3.8zm8.4 7.7s-1.7-.02-1.7 0c-1.5 0-2.8-.5-2.8-3c-.04.02 0-6.9 0-6.9h-2.3v-1.4h2.3v-3.2l1.5-.4v3.6h2.7v1.4H173v6.9c0 1 .3 1.6 1.6 1.6h1.4v1.4zm1.4-2.2h2.2v2.2h-2.2v-2.2zm12 2.2h-1.6v-15.8h1.6V181zm12.8-7.7v7.7h-1.5s-.05-7.56 0-7.6c0-1.5-.9-2.5-2.5-2.5c-2 0-3.6 1.4-3.6 4.2c-.04-.04 0 5.9 0 5.9H193v-11.3h1.6s-.04 2.1 0 2.1c.6-1.3 1.9-2.3 3.9-2.3c2.2 0 3.7 1.3 3.7 3.8zm7.7 7.7h-1.6l-4.2-11.3h1.6l3.4 9.7l3.4-9.7h1.6l-4.2 11.3zm6.8-5.3c0 2.8 1.7 4.1 3.7 4.1c1.5 0 3-.7 3.3-2.3h1.5c-.5 2.6-2.7 3.7-4.8 3.7c-2.7 0-5.2-1.8-5.2-5.8c0-4.1 2.5-5.9 5.2-5.9c2.7 0 4.9 1.7 4.9 5.5c-.04-.05 0 .7 0 .7h-8.6zm0-1.3h7c0-2.3-1.5-3.5-3.3-3.5c-1.8 0-3.5 1.1-3.7 3.5zm19.6 3.4c0 2.3-2.1 3.4-4.4 3.4c-2.4 0-4.6-1.2-4.9-3.7h1.7c.2 1.7 1.7 2.3 3.2 2.3c1.5 0 2.8-.5 2.8-1.8c0-1.3-1.3-1.6-2.7-1.8c-2.1-.4-4.7-.8-4.7-3.4c0-2.2 2-3.3 4.3-3.3c2.4 0 4.2 1.1 4.4 3.4h-1.6c-.1-1.4-1.4-2-2.9-2c-1.5 0-2.6.7-2.6 1.8c0 1.5 1.4 1.7 3.1 2c2 .3 4.3.6 4.3 3.1zm7.6 3.2s-1.63-.02-1.6 0c-1.5 0-2.9-.5-2.9-3c.04.02 0-6.9 0-6.9h-2.2v-1.4h2.2v-3.2l1.6-.4v3.6h2.7v1.4H241s-.03 6.9 0 6.9c0 1 .3 1.6 1.5 1.6h1.4v1.4zm1.5-5.6c0-3.7 2.2-5.9 5.3-5.9c3.1 0 5.4 2.2 5.4 5.9c0 3.6-2.2 5.8-5.3 5.8c-3.1 0-5.4-2.2-5.4-5.8zm9.1-.1c0-2.8-1.7-4.4-3.8-4.4c-2.2 0-3.7 1.7-3.7 4.5c0 2.8 1.7 4.4 3.8 4.4c2.2 0 3.7-1.7 3.7-4.5zm9.8-4.3s-.31.03-.3 0c-2.4 0-3.7 1.4-3.7 4c-.05 0 0 6 0 6h-1.6v-11.3h1.5s.03 2.08 0 2.1c.6-1.5 1.9-2.2 3.7-2.2c-.04-.02.4 0 .4 0v1.4zm10.4 6.8c0 2.3-2.1 3.4-4.3 3.4c-2.4 0-4.7-1.2-4.9-3.7h1.6c.3 1.7 1.8 2.3 3.3 2.3c1.4 0 2.7-.5 2.7-1.8c0-1.3-1.3-1.6-2.6-1.8c-2.2-.4-4.7-.8-4.7-3.4c0-2.2 1.9-3.3 4.2-3.3c2.4 0 4.3 1.1 4.4 3.4h-1.6c-.1-1.4-1.4-2-2.8-2c-1.6 0-2.6.7-2.6 1.8c0 1.5 1.3 1.7 3 2c2.1.3 4.3.6 4.3 3.1zm15.7 0c0 2.3-2 3.4-4.3 3.4c-2.4 0-4.6-1.2-4.9-3.7h1.7c.2 1.7 1.7 2.3 3.2 2.3c1.5 0 2.8-.5 2.8-1.8c0-1.3-1.3-1.6-2.7-1.8c-2.1-.4-4.7-.8-4.7-3.4c0-2.2 1.9-3.3 4.2-3.3c2.4 0 4.3 1.1 4.5 3.4h-1.6c-.1-1.4-1.4-2-2.9-2c-1.6 0-2.6.7-2.6 1.8c0 1.5 1.4 1.7 3.1 2c2 .3 4.2.6 4.2 3.1zm11.7-4.5c.02-.05 0 7.7 0 7.7h-1.5v-7.6c0-1.5-.9-2.5-2.5-2.5c-1.9 0-3.6 1.4-3.6 4.2v5.9H293v-16h1.5v6.7c.7-1.3 1.9-2.2 3.9-2.2c2.3 0 3.7 1.3 3.7 3.8zm2.5 2.1c0-3.7 2.3-5.9 5.4-5.9c3.1 0 5.3 2.2 5.3 5.9c0 3.6-2.2 5.8-5.3 5.8c-3.1 0-5.4-2.2-5.4-5.8zm9.2-.1c0-2.8-1.7-4.4-3.8-4.4c-2.2 0-3.8 1.7-3.8 4.5c0 2.8 1.7 4.4 3.8 4.4c2.2 0 3.8-1.7 3.8-4.5zm11.6 5.7s-.03-2.16 0-2.2c-.8 1.6-2.2 2.3-3.8 2.3c-2.1 0-3.7-1.3-3.7-3.9c-.05-.04 0-7.5 0-7.5h1.5v7.3c0 1.8 1 2.8 2.5 2.8c1.8 0 3.4-1.4 3.4-4.3v-5.8h1.5V181h-1.4zm6.3 0h-1.5v-16h1.5v16zm13.2 0h-1.5s.03-2.2 0-2.2c-.5 1.3-1.9 2.4-4 2.4c-2.9 0-5-2.3-5-5.9c0-3.5 2.1-5.8 5-5.8c2 0 3.4.9 4 2.1c-.03.02 0-6.6 0-6.6h1.5v16zm-1.6-5.7c0-2.8-1.5-4.4-3.7-4.4c-2.2 0-3.7 1.7-3.7 4.4c0 2.8 1.5 4.5 3.7 4.5c2.2 0 3.7-1.7 3.7-4.5zm21.2 0c0 3.5-2.1 5.9-5.2 5.9c-2 0-3.3-1.1-3.9-2.3v2.1h-1.5v-16h1.6s-.04 6.97 0 7c.5-1.4 2-2.5 4-2.5c2.9 0 5 2.2 5 5.8zm-1.6.1c0-2.8-1.5-4.4-3.7-4.4c-2.2 0-3.7 1.6-3.7 4.4c0 2.8 1.5 4.5 3.7 4.5c2.2 0 3.7-1.8 3.7-4.5zm5 .3c0 2.8 1.7 4.1 3.7 4.1c1.5 0 3-.7 3.3-2.3h1.5c-.5 2.6-2.7 3.7-4.9 3.7c-2.7 0-5.2-1.8-5.2-5.8c0-4.1 2.6-5.9 5.3-5.9c2.7 0 4.8 1.7 4.8 5.5c.04-.05 0 .7 0 .7c0 0-8.55.01-8.5 0zm0-1.3h7c0-2.3-1.5-3.5-3.4-3.5c-1.7 0-3.4 1.1-3.6 3.5z" stroke="none" fill="#000"/></g><g id="Polygon11920"><path d="m1.7 144.5h1.5v1.9c.6-1.4 1.8-2.1 3.3-2.1c1.6 0 2.9.9 3.3 2.3c.5-1.2 1.8-2.3 3.7-2.3c2 0 3.7 1.1 3.7 3.4c-.04 0 0 8.1 0 8.1h-1.6s.02-7.56 0-7.6c0-1.7-1-2.5-2.4-2.5c-1.6 0-3 1.3-3 3.6c-.04.03 0 6.5 0 6.5H8.7s-.05-7.56 0-7.6c0-1.7-1.1-2.5-2.4-2.5c-1.7 0-3.1 1.2-3.1 3.6v6.5H1.7v-11.3zm25.6 9.2c-.8 1.7-2.5 2.3-4 2.3c-1.9 0-3.6-1.1-3.6-3.3c0-2.1 1.5-3.1 3.4-3.3l2.7-.4c.8-.1 1.5-.4 1.5-1.4c0-1.3-1.1-2-2.7-2c-1.7 0-2.7.8-2.9 2.1h-1.6c.3-2.3 2.1-3.4 4.6-3.4c2.6 0 4.1 1.2 4.1 3.7c.03-.01 0 7.8 0 7.8h-1.5s.04-2.08 0-2.1zm-1.8-3.4l-1.7.2c-1.5.2-2.5.7-2.5 2.1c0 1.4 1 2 2.3 2c1.7 0 3.7-1.3 3.7-3.7v-1.1c-.4.3-1.1.4-1.8.5zm9.8 7.6c-.4 1.2-1.4 1.6-2.6 1.6c0-.02-1.2 0-1.2 0v-1.4h1c1 0 1.4-.3 1.8-1.3c-.01-.01.5-1.5.5-1.5l-4.2-10.8h1.6l3.4 8.9l3.3-8.9h1.5l-5.1 13.4zm21.5-9.8v7.7h-1.5s-.03-7.56 0-7.6c0-1.5-.9-2.5-2.5-2.5c-1.9 0-3.6 1.4-3.6 4.2c-.02-.04 0 5.9 0 5.9h-1.6v-11.3h1.6s-.02 2.1 0 2.1c.7-1.3 1.9-2.3 3.9-2.3c2.2 0 3.7 1.3 3.7 3.8zm2.5 2.1c0-3.7 2.3-5.9 5.4-5.9c3.1 0 5.3 2.2 5.3 5.9c0 3.6-2.2 5.8-5.3 5.8c-3.1 0-5.4-2.2-5.4-5.8zm9.1-.1c0-2.8-1.7-4.4-3.8-4.4c-2.2 0-3.7 1.7-3.7 4.5c0 2.8 1.7 4.4 3.8 4.4c2.2 0 3.7-1.7 3.7-4.5zm9.4 5.7s-1.68-.02-1.7 0c-1.5 0-2.8-.5-2.8-3v-6.9h-2.2v-1.4h2.2v-3.2l1.5-.4v3.6h2.8v1.4h-2.8s.02 6.9 0 6.9c0 1 .3 1.6 1.6 1.6h1.4v1.4zm16.8-7.7v7.7h-1.5s-.03-7.56 0-7.6c0-1.5-.9-2.5-2.5-2.5c-1.9 0-3.6 1.4-3.6 4.2c-.02-.04 0 5.9 0 5.9h-1.6v-16h1.6s-.02 6.68 0 6.7c.6-1.3 1.9-2.2 3.8-2.2c2.4 0 3.8 1.3 3.8 3.8zm10.2 5.6c-.9 1.7-2.6 2.3-4 2.3c-2 0-3.7-1.1-3.7-3.3c0-2.1 1.5-3.1 3.4-3.3l2.7-.4c.9-.1 1.6-.4 1.6-1.4c0-1.3-1.2-2-2.7-2c-1.7 0-2.8.8-3 2.1h-1.5c.3-2.3 2.1-3.4 4.6-3.4c2.5 0 4.1 1.2 4.1 3.7c-.02-.01 0 7.8 0 7.8h-1.5v-2.1zm-1.9-3.4l-1.7.2c-1.4.2-2.5.7-2.5 2.1c0 1.4 1.1 2 2.3 2c1.8 0 3.7-1.3 3.7-3.7v-1.1c-.4.3-1 .4-1.8.5zm11 5.5h-1.7l-4.1-11.3h1.6l3.4 9.7l3.4-9.7h1.6l-4.2 11.3zm6.8-5.3c0 2.8 1.7 4.1 3.7 4.1c1.5 0 3-.7 3.3-2.3h1.5c-.5 2.6-2.7 3.7-4.9 3.7c-2.6 0-5.1-1.8-5.1-5.8c0-4.1 2.5-5.9 5.2-5.9c2.7 0 4.9 1.7 4.9 5.5c-.05-.05 0 .7 0 .7h-8.6zm0-1.3h7c0-2.3-1.5-3.5-3.4-3.5c-1.7 0-3.4 1.1-3.6 3.5zm16.8 1.3c0 2.8 1.7 4.1 3.7 4.1c1.5 0 3-.7 3.3-2.3h1.5c-.5 2.6-2.7 3.7-4.8 3.7c-2.7 0-5.2-1.8-5.2-5.8c0-4.1 2.5-5.9 5.2-5.9c2.7 0 4.9 1.7 4.9 5.5c-.03-.05 0 .7 0 .7h-8.6zm0-1.3h7c0-2.3-1.4-3.5-3.3-3.5c-1.8 0-3.5 1.1-3.7 3.5zm20.4-1.1c-.04-.05 0 7.7 0 7.7h-1.6s.02-7.56 0-7.6c0-1.5-.9-2.5-2.5-2.5c-1.9 0-3.6 1.4-3.6 4.2c.03-.04 0 5.9 0 5.9h-1.5v-11.3h1.5s.03 2.1 0 2.1c.7-1.3 2-2.3 3.9-2.3c2.3 0 3.8 1.3 3.8 3.8zm2.5 2.1c0-3.7 2.2-5.9 5.3-5.9c3.1 0 5.4 2.2 5.4 5.9c0 3.6-2.3 5.8-5.4 5.8c-3.1 0-5.3-2.2-5.3-5.8zm9.1-.1c0-2.8-1.7-4.4-3.8-4.4c-2.2 0-3.7 1.7-3.7 4.5c0 2.8 1.7 4.4 3.8 4.4c2.1 0 3.7-1.7 3.7-4.5zm11.6 5.7v-2.2c-.8 1.6-2.2 2.3-3.8 2.3c-2.1 0-3.7-1.3-3.7-3.9c-.02-.04 0-7.5 0-7.5h1.5s.02 7.27 0 7.3c0 1.8 1 2.8 2.5 2.8c1.8 0 3.4-1.4 3.4-4.3c.04.04 0-5.8 0-5.8h1.6v11.3h-1.5zm14.5-.5c0 3.4-2.2 5.1-5.1 5.1c-2.5 0-4.7-1.3-5.1-3.9h1.6c.2 1.4 1.3 2.6 3.5 2.6c2.1 0 3.7-1.1 3.7-3.7v-2.3c-.9 1.7-2.6 2.3-4 2.3c-2.8 0-5-1.9-5-5.6c0-3.7 2.3-5.5 5-5.5c1.9 0 3.2.8 3.9 2c.02.03 0-1.8 0-1.8h1.5s.03 10.78 0 10.8zm-1.5-5.5c0-2.8-1.7-4.2-3.7-4.2c-1.9 0-3.7 1.4-3.7 4.2c0 2.8 1.8 4.2 3.7 4.2c1.8 0 3.7-1.2 3.7-4.2zm13.9-1.7c.05-.05 0 7.7 0 7.7h-1.5v-7.6c0-1.5-.9-2.5-2.5-2.5c-1.9 0-3.6 1.4-3.6 4.2c.02-.04 0 5.9 0 5.9h-1.5v-16h1.5s.02 6.68 0 6.7c.7-1.3 1.9-2.2 3.9-2.2c2.3 0 3.7 1.3 3.7 3.8zm16.9 4.5c0 2.3-2.1 3.4-4.3 3.4c-2.4 0-4.7-1.2-4.9-3.7h1.6c.3 1.7 1.8 2.3 3.3 2.3c1.5 0 2.7-.5 2.7-1.8c0-1.3-1.3-1.6-2.6-1.8c-2.2-.4-4.7-.8-4.7-3.4c0-2.2 1.9-3.3 4.2-3.3c2.4 0 4.3 1.1 4.4 3.4H223c-.1-1.4-1.4-2-2.8-2c-1.6 0-2.6.7-2.6 1.8c0 1.5 1.3 1.7 3 2c2.1.3 4.3.6 4.3 3.1zm13.1-2.5c0 4.1-2.6 5.8-5.2 5.8c-1.9 0-3.2-.9-3.8-2.1c-.02.03 0 6.3 0 6.3h-1.6v-15.6h1.5s.04 2.38 0 2.4c.5-1.4 2-2.6 4.1-2.6c2.4 0 5 1.7 5 5.8zm-1.6 0c0-3.1-1.8-4.3-3.7-4.3c-1.8 0-3.7 1.2-3.7 4.4c0 3.1 1.8 4.3 3.7 4.3c1.9 0 3.7-1.2 3.7-4.4zm9.8-4.3s-.33.03-.3 0c-2.4 0-3.8 1.4-3.8 4c.03 0 0 6 0 6h-1.5v-11.3h1.5v2.1c.5-1.5 1.9-2.2 3.6-2.2c.04-.02.5 0 .5 0v1.4zm2.6 4.7c0 2.8 1.7 4.1 3.7 4.1c1.5 0 3-.7 3.3-2.3h1.5c-.5 2.6-2.7 3.7-4.8 3.7c-2.7 0-5.2-1.8-5.2-5.8c0-4.1 2.5-5.9 5.2-5.9c2.7 0 4.9 1.7 4.9 5.5c-.03-.05 0 .7 0 .7h-8.6zm0-1.3h7c0-2.3-1.5-3.5-3.3-3.5c-1.8 0-3.5 1.1-3.7 3.5zm18.1 4.5c-.9 1.7-2.6 2.3-4 2.3c-1.9 0-3.6-1.1-3.6-3.3c0-2.1 1.5-3.1 3.4-3.3l2.7-.4c.8-.1 1.5-.4 1.5-1.4c0-1.3-1.1-2-2.7-2c-1.7 0-2.7.8-3 2.1h-1.5c.3-2.3 2.1-3.4 4.6-3.4c2.6 0 4.1 1.2 4.1 3.7c.02-.01 0 7.8 0 7.8h-1.5s.03-2.08 0-2.1zm-1.8-3.4l-1.8.2c-1.4.2-2.5.7-2.5 2.1c0 1.4 1.1 2 2.4 2c1.7 0 3.7-1.3 3.7-3.7v-1.1c-.4.3-1.1.4-1.8.5zm16.3 5.5h-1.5s.01-2.2 0-2.2c-.5 1.3-1.9 2.4-4 2.4c-3 0-5.1-2.3-5.1-5.9c0-3.5 2.1-5.8 5.1-5.8c1.9 0 3.3.9 3.9 2.1c.04.02 0-6.6 0-6.6h1.6v16zm-1.6-5.7c0-2.8-1.5-4.4-3.7-4.4c-2.2 0-3.7 1.7-3.7 4.4c0 2.8 1.5 4.5 3.7 4.5c2.2 0 3.7-1.7 3.7-4.5zm15.5 5.7s-1.62-.02-1.6 0c-1.5 0-2.9-.5-2.9-3c.05.02 0-6.9 0-6.9h-2.2v-1.4h2.2v-3.2l1.6-.4v3.6h2.7v1.4h-2.7s-.02 6.9 0 6.9c0 1 .3 1.6 1.5 1.6h1.4v1.4zm1.5-5.6c0-3.7 2.2-5.9 5.3-5.9c3.2 0 5.4 2.2 5.4 5.9c0 3.6-2.2 5.8-5.3 5.8c-3.1 0-5.4-2.2-5.4-5.8zm9.1-.1c0-2.8-1.7-4.4-3.8-4.4c-2.2 0-3.7 1.7-3.7 4.5c0 2.8 1.7 4.4 3.8 4.4c2.2 0 3.7-1.7 3.7-4.5zm13.5 5.9c-3.1 0-5.2-2.3-5.2-5.8c0-3.6 2.1-5.9 5.4-5.9c2.5 0 4.5 1.4 4.6 3.9h-1.5c-.1-1.6-1.5-2.5-3.1-2.5c-2.3 0-3.8 1.7-3.8 4.4c0 2.8 1.5 4.5 3.7 4.5c1.7 0 3.1-1 3.2-2.8h1.5c-.1 2.7-2.3 4.2-4.8 4.2zm6.7-5.8c0-3.7 2.3-5.9 5.4-5.9c3.1 0 5.3 2.2 5.3 5.9c0 3.6-2.2 5.8-5.3 5.8c-3.1 0-5.4-2.2-5.4-5.8zm9.1-.1c0-2.8-1.7-4.4-3.8-4.4c-2.2 0-3.7 1.7-3.7 4.5c0 2.8 1.7 4.4 3.8 4.4c2.2 0 3.7-1.7 3.7-4.5zm4.2-5.6h1.6s-.05 1.87 0 1.9c.6-1.4 1.8-2.1 3.2-2.1c1.7 0 3 .9 3.4 2.3c.5-1.2 1.7-2.3 3.7-2.3c2 0 3.6 1.1 3.6 3.4c.02 0 0 8.1 0 8.1h-1.5v-7.6c0-1.7-1.1-2.5-2.4-2.5c-1.7 0-3.1 1.3-3.1 3.6c.03.03 0 6.5 0 6.5h-1.5v-7.6c0-1.7-1-2.5-2.4-2.5c-1.6 0-3 1.2-3 3.6c-.03.03 0 6.5 0 6.5h-1.6v-11.3zm29.3 5.6c0 4.1-2.6 5.8-5.2 5.8c-1.9 0-3.2-.9-3.8-2.1v6.3h-1.5v-15.6h1.5s-.04 2.38 0 2.4c.5-1.4 1.9-2.6 4-2.6c2.4 0 5 1.7 5 5.8zm-1.6 0c0-3.1-1.8-4.3-3.6-4.3c-1.9 0-3.8 1.2-3.8 4.4c0 3.1 1.9 4.3 3.7 4.3c1.9 0 3.7-1.2 3.7-4.4zm5 .4c0 2.8 1.8 4.1 3.8 4.1c1.4 0 2.9-.7 3.3-2.3h1.4c-.5 2.6-2.7 3.7-4.8 3.7c-2.7 0-5.2-1.8-5.2-5.8c0-4.1 2.5-5.9 5.2-5.9c2.7 0 4.9 1.7 4.9 5.5c-.02-.05 0 .7 0 .7h-8.6zm0-1.3h7c0-2.3-1.4-3.5-3.3-3.5c-1.8 0-3.5 1.1-3.7 3.5zm20.4-1.1c-.03-.05 0 7.7 0 7.7h-1.6s.03-7.56 0-7.6c0-1.5-.8-2.5-2.4-2.5c-2 0-3.7 1.4-3.7 4.2c.04-.04 0 5.9 0 5.9h-1.5v-11.3h1.5s.04 2.1 0 2.1c.7-1.3 2-2.3 3.9-2.3c2.3 0 3.8 1.3 3.8 3.8zm11.6 4.5c0 2.3-2.1 3.4-4.3 3.4c-2.5 0-4.7-1.2-4.9-3.7h1.6c.3 1.7 1.7 2.3 3.3 2.3c1.4 0 2.7-.5 2.7-1.8c0-1.3-1.3-1.6-2.6-1.8c-2.2-.4-4.7-.8-4.7-3.4c0-2.2 1.9-3.3 4.2-3.3c2.4 0 4.3 1.1 4.4 3.4h-1.6c-.1-1.4-1.4-2-2.9-2c-1.5 0-2.6.7-2.6 1.8c0 1.5 1.4 1.7 3.1 2c2.1.3 4.3.6 4.3 3.1zm9.4 1.1c-.8 1.7-2.5 2.3-4 2.3c-1.9 0-3.6-1.1-3.6-3.3c0-2.1 1.5-3.1 3.4-3.3l2.7-.4c.8-.1 1.5-.4 1.5-1.4c0-1.3-1.1-2-2.7-2c-1.7 0-2.7.8-2.9 2.1h-1.6c.3-2.3 2.1-3.4 4.6-3.4c2.6 0 4.1 1.2 4.1 3.7c.04-.01 0 7.8 0 7.8h-1.5s.05-2.08 0-2.1zm-1.8-3.4l-1.7.2c-1.5.2-2.5.7-2.5 2.1c0 1.4 1.1 2 2.3 2c1.8 0 3.7-1.3 3.7-3.7v-1.1c-.4.3-1.1.4-1.8.5zm11.6 5.5s-1.62-.02-1.6 0c-1.5 0-2.9-.5-2.9-3c.04.02 0-6.9 0-6.9h-2.2v-1.4h2.2v-3.2l1.6-.4v3.6h2.7v1.4h-2.7s-.03 6.9 0 6.9c0 1 .3 1.6 1.5 1.6h1.4v1.4zm3-5.3c.1 2.8 1.8 4.1 3.8 4.1c1.5 0 2.9-.7 3.3-2.3h1.4c-.5 2.6-2.7 3.7-4.8 3.7c-2.7 0-5.2-1.8-5.2-5.8c0-4.1 2.5-5.9 5.3-5.9c2.6 0 4.8 1.7 4.8 5.5v.7h-8.6zm.1-1.3h7c0-2.3-1.5-3.5-3.4-3.5c-1.8 0-3.4 1.1-3.6 3.5z" stroke="none" fill="#000"/></g><g id="Polygon11919"><path d="m10.8 122.9c.04-.05 0 7.7 0 7.7H9.3V123c0-1.5-.9-2.5-2.5-2.5c-1.9 0-3.6 1.4-3.6 4.2v5.9H1.7v-16h1.5s.01 6.68 0 6.7c.7-1.3 1.9-2.2 3.9-2.2c2.3 0 3.7 1.3 3.7 3.8zm4.9-8.3H14v1.9h1.7v-1.9zm-.1 16h-1.5v-11.3h1.5v11.3zm13.1-.5c0 3.4-2.2 5.1-5.1 5.1c-2.5 0-4.7-1.3-5.1-3.9h1.6c.2 1.4 1.2 2.6 3.5 2.6c2.1 0 3.6-1.1 3.6-3.7v-2.3c-.8 1.7-2.5 2.3-4 2.3c-2.7 0-5-1.9-5-5.6c0-3.7 2.4-5.5 5.1-5.5c1.8 0 3.2.8 3.9 2c-.03.03 0-1.8 0-1.8h1.5v10.8zm-1.6-5.5c0-2.8-1.7-4.2-3.6-4.2c-1.9 0-3.7 1.4-3.7 4.2c0 2.8 1.7 4.2 3.7 4.2c1.8 0 3.6-1.2 3.6-4.2zm14-1.7v7.7h-1.5s-.04-7.56 0-7.6c0-1.5-.9-2.5-2.5-2.5c-1.9 0-3.6 1.4-3.6 4.2c-.03-.04 0 5.9 0 5.9h-1.6v-16h1.6s-.03 6.68 0 6.7c.6-1.3 1.8-2.2 3.8-2.2c2.3 0 3.8 1.3 3.8 3.8zm4 2.4c.1 2.8 1.8 4.1 3.8 4.1c1.5 0 2.9-.7 3.3-2.3h1.4c-.5 2.6-2.7 3.7-4.8 3.7c-2.7 0-5.2-1.8-5.2-5.8c0-4.1 2.6-5.9 5.3-5.9c2.6 0 4.8 1.7 4.8 5.5c.02-.05 0 .7 0 .7h-8.6zm.1-1.3h7c0-2.3-1.5-3.5-3.4-3.5c-1.8 0-3.4 1.1-3.6 3.5zm16.8-3.4s-.39.03-.4 0c-2.4 0-3.7 1.4-3.7 4c-.03 0 0 6 0 6h-1.6v-11.3h1.6s-.05 2.08 0 2.1c.5-1.5 1.8-2.2 3.6-2.2c-.01-.02.5 0 .5 0v1.4zm.2 7.8h2.1v2.2h-2.1v-2.2zm15.5 2.6c-3.3 0-6-2-6.1-5.4h1.7c.1 2.7 2.2 3.9 4.4 3.9c2.1 0 3.7-1.1 3.7-2.9c0-2.1-2.2-2.6-4.3-3.1c-2.5-.7-5-1.5-5-4.6c0-2.9 2.2-4.4 5.3-4.4c2.7 0 5.2 1.3 5.3 4.4h-1.6c-.1-2.1-1.8-3-3.7-3c-2.1 0-3.7 1-3.7 3c0 2.1 1.9 2.6 4 3.2c2.6.6 5.4 1.3 5.4 4.4c0 2.9-2.5 4.5-5.4 4.5zm9.7-16.4h-1.7v1.9h1.7v-1.9zm-.1 16h-1.5v-11.3h1.5v11.3zm3.4-11.3h1.5v1.9c.6-1.4 1.8-2.1 3.3-2.1c1.6 0 2.9.9 3.3 2.3c.5-1.2 1.7-2.3 3.7-2.3c2 0 3.7 1.1 3.7 3.4c-.05 0 0 8.1 0 8.1h-1.6s.02-7.56 0-7.6c0-1.7-1.1-2.5-2.4-2.5c-1.7 0-3 1.3-3 3.6c-.04.03 0 6.5 0 6.5h-1.6s.05-7.56 0-7.6c0-1.7-1-2.5-2.3-2.5c-1.7 0-3.1 1.2-3.1 3.6v6.5h-1.5v-11.3zm20.3-4.7h-1.7v1.9h1.7v-1.9zm-.1 16h-1.5v-11.3h1.5v11.3zm4.9 0h-1.5v-16h1.5v16zm10.3-2.1c-.9 1.7-2.6 2.3-4 2.3c-1.9 0-3.6-1.1-3.6-3.3c0-2.1 1.4-3.1 3.4-3.3l2.6-.4c.9-.1 1.6-.4 1.6-1.4c0-1.3-1.1-2-2.7-2c-1.7 0-2.7.8-3 2.1h-1.5c.3-2.3 2.1-3.4 4.6-3.4c2.6 0 4.1 1.2 4.1 3.7v7.8h-1.5s.02-2.08 0-2.1zm-1.8-3.4l-1.8.2c-1.4.2-2.5.7-2.5 2.1c0 1.4 1.1 2 2.4 2c1.7 0 3.7-1.3 3.7-3.7v-1.1c-.4.3-1.1.4-1.8.5zm12.1-4.5s-.36.03-.4 0c-2.4 0-3.7 1.4-3.7 4v6h-1.5v-11.3h1.5s-.02 2.08 0 2.1c.5-1.5 1.9-2.2 3.6-2.2c.01-.02.5 0 .5 0v1.4zm3.5 10h-1.5v-16h1.5v16zm6.7 2.1c-.4 1.2-1.4 1.6-2.6 1.6c-.01-.02-1.2 0-1.2 0v-1.4h1c1 0 1.4-.3 1.8-1.3c-.01-.01.5-1.5.5-1.5l-4.2-10.8h1.6l3.4 8.9l3.3-8.9h1.5l-5.1 13.4zm7.3-2.2c.05-.04-1 0-1 0v-2.1h2.3s-.03 2.12 0 2.1c0 2.5-1.5 3.4-3.1 3.5l-.2-.9c1.7-.3 2-1.3 2-2.6zm18.1-7.6v7.7h-1.5s-.05-7.56 0-7.6c0-1.5-.9-2.5-2.5-2.5c-2 0-3.6 1.4-3.6 4.2c-.04-.04 0 5.9 0 5.9h-1.6v-16h1.6s-.04 6.68 0 6.7c.6-1.3 1.8-2.2 3.8-2.2c2.3 0 3.8 1.3 3.8 3.8zm4.9-8.3h-1.8v1.9h1.8v-1.9zm-.1 16h-1.6v-11.3h1.6v11.3zm13-.5c0 3.4-2.2 5.1-5.1 5.1c-2.5 0-4.7-1.3-5-3.9h1.5c.2 1.4 1.3 2.6 3.5 2.6c2.1 0 3.7-1.1 3.7-3.7v-2.3c-.9 1.7-2.6 2.3-4 2.3c-2.8 0-5-1.9-5-5.6c0-3.7 2.4-5.5 5-5.5c1.9 0 3.2.8 3.9 2c.02.03 0-1.8 0-1.8h1.5s.04 10.78 0 10.8zm-1.5-5.5c0-2.8-1.7-4.2-3.7-4.2c-1.9 0-3.7 1.4-3.7 4.2c0 2.8 1.8 4.2 3.7 4.2c1.8 0 3.7-1.2 3.7-4.2zm13.9-1.7c.05-.05 0 7.7 0 7.7h-1.5V123c0-1.5-.9-2.5-2.5-2.5c-1.9 0-3.6 1.4-3.6 4.2c.02-.04 0 5.9 0 5.9h-1.5v-16h1.5s.02 6.68 0 6.7c.7-1.3 1.9-2.2 3.9-2.2c2.3 0 3.7 1.3 3.7 3.8zm2.7 1.6v-1.4h6.4v1.4h-6.4zm17.4 10.4s.02-6.48 0-6.5c-.6 1.3-2 2.3-3.9 2.3c-2.5 0-5.1-1.7-5.1-5.9c0-4 2.6-5.7 5.1-5.7c1.9 0 3.4 1 4 2.2c-.04-.02 0-2 0-2h1.5v15.6h-1.6zm0-10c0-3.2-1.9-4.4-3.7-4.4c-1.9 0-3.7 1.2-3.7 4.4c0 3.1 1.8 4.4 3.7 4.4c1.8 0 3.7-1.3 3.7-4.4zm12.2 5.7s.02-2.16 0-2.2c-.8 1.6-2.1 2.3-3.7 2.3c-2.2 0-3.8-1.3-3.8-3.9v-7.5h1.5s.04 7.27 0 7.3c0 1.8 1 2.8 2.5 2.8c1.8 0 3.5-1.4 3.5-4.3c-.04.04 0-5.8 0-5.8h1.5v11.3h-1.5zm11.8-2.1c-.9 1.7-2.6 2.3-4 2.3c-2 0-3.7-1.1-3.7-3.3c0-2.1 1.5-3.1 3.4-3.3l2.7-.4c.8-.1 1.6-.4 1.6-1.4c0-1.3-1.2-2-2.7-2c-1.7 0-2.8.8-3 2.1h-1.5c.3-2.3 2.1-3.4 4.6-3.4c2.5 0 4.1 1.2 4.1 3.7c-.03-.01 0 7.8 0 7.8h-1.5s-.02-2.08 0-2.1zm-1.9-3.4l-1.7.2c-1.4.2-2.5.7-2.5 2.1c0 1.4 1.1 2 2.3 2c1.8 0 3.7-1.3 3.7-3.7v-1.1c-.4.3-1 .4-1.8.5zm8.1 5.5h-1.6v-16h1.6v16zm5-16h-1.8v1.9h1.8v-1.9zm-.2 16h-1.5v-11.3h1.5v11.3zm8.6 0s-1.7-.02-1.7 0c-1.5 0-2.8-.5-2.8-3c-.04.02 0-6.9 0-6.9h-2.3v-1.4h2.3v-3.2l1.5-.4v3.6h2.7v1.4h-2.7v6.9c0 1 .3 1.6 1.5 1.6h1.5v1.4zm5.5 2.1c-.5 1.2-1.5 1.6-2.6 1.6c-.03-.02-1.2 0-1.2 0v-1.4h1c.9 0 1.4-.3 1.8-1.3c-.03-.01.5-1.5.5-1.5l-4.2-10.8h1.6l3.3 8.9l3.3-8.9h1.6s-5.12 13.42-5.1 13.4zm16.4-1.9c-3.1 0-5.2-2.3-5.2-5.8c0-3.6 2.1-5.9 5.3-5.9c2.5 0 4.5 1.4 4.7 3.9h-1.5c-.2-1.6-1.6-2.5-3.2-2.5c-2.2 0-3.8 1.7-3.8 4.4c0 2.8 1.6 4.5 3.8 4.5c1.7 0 3-1 3.2-2.8h1.5c-.2 2.7-2.3 4.2-4.8 4.2zm6.7-5.8c0-3.7 2.2-5.9 5.3-5.9c3.1 0 5.4 2.2 5.4 5.9c0 3.6-2.3 5.8-5.4 5.8c-3.1 0-5.3-2.2-5.3-5.8zm9.1-.1c0-2.8-1.7-4.4-3.8-4.4c-2.2 0-3.7 1.7-3.7 4.5c0 2.8 1.7 4.4 3.8 4.4c2.1 0 3.7-1.7 3.7-4.5zm9.8-4.3s-.34.03-.3 0c-2.4 0-3.8 1.4-3.8 4c.02 0 0 6 0 6h-1.5v-11.3h1.5v2.1c.5-1.5 1.9-2.2 3.6-2.2c.04-.02.5 0 .5 0v1.4zm12.5 4.3c0 4.1-2.5 5.8-5.1 5.8c-2 0-3.2-.9-3.9-2.1c.05.03 0 6.3 0 6.3h-1.5v-15.6h1.5v2.4c.5-1.4 2-2.6 4-2.6c2.5 0 5 1.7 5 5.8zm-1.5 0c0-3.1-1.8-4.3-3.7-4.3c-1.9 0-3.7 1.2-3.7 4.4c0 3.1 1.8 4.3 3.7 4.3c1.8 0 3.7-1.2 3.7-4.4zm3.4.1c0-3.7 2.3-5.9 5.4-5.9c3.1 0 5.3 2.2 5.3 5.9c0 3.6-2.2 5.8-5.3 5.8c-3.1 0-5.4-2.2-5.4-5.8zm9.1-.1c0-2.8-1.7-4.4-3.8-4.4c-2.2 0-3.7 1.7-3.7 4.5c0 2.8 1.7 4.4 3.8 4.4c2.2 0 3.7-1.7 3.7-4.5zm9.9-4.3s-.39.03-.4 0c-2.4 0-3.7 1.4-3.7 4c-.03 0 0 6 0 6h-1.6v-11.3h1.6s-.05 2.08 0 2.1c.5-1.5 1.8-2.2 3.6-2.2c-.02-.02.5 0 .5 0v1.4zm8.9 7.9c-.9 1.7-2.6 2.3-4 2.3c-2 0-3.7-1.1-3.7-3.3c0-2.1 1.5-3.1 3.4-3.3l2.7-.4c.9-.1 1.6-.4 1.6-1.4c0-1.3-1.2-2-2.7-2c-1.7 0-2.8.8-3 2.1h-1.5c.3-2.3 2.1-3.4 4.6-3.4c2.5 0 4.1 1.2 4.1 3.7c-.02-.01 0 7.8 0 7.8h-1.5v-2.1zm-1.9-3.4l-1.7.2c-1.4.2-2.5.7-2.5 2.1c0 1.4 1.1 2 2.3 2c1.8 0 3.7-1.3 3.7-3.7v-1.1c-.4.3-1 .4-1.8.5zm11.7 5.5s-1.68-.02-1.7 0c-1.5 0-2.8-.5-2.8-3c-.02.02 0-6.9 0-6.9h-2.2v-1.4h2.2v-3.2l1.5-.4v3.6h2.7v1.4h-2.7s.02 6.9 0 6.9c0 1 .3 1.6 1.6 1.6h1.4v1.4zm3-5.3c0 2.8 1.7 4.1 3.7 4.1c1.5 0 3-.7 3.3-2.3h1.5c-.5 2.6-2.7 3.7-4.9 3.7c-2.7 0-5.2-1.8-5.2-5.8c0-4.1 2.6-5.9 5.3-5.9c2.7 0 4.8 1.7 4.8 5.5c.05-.05 0 .7 0 .7c0 0-8.54.01-8.5 0zm0-1.3h7c0-2.3-1.5-3.5-3.4-3.5c-1.7 0-3.4 1.1-3.6 3.5zm25.8 6.6h-1.5s.04-2.2 0-2.2c-.5 1.3-1.9 2.4-4 2.4c-2.9 0-5-2.3-5-5.9c0-3.5 2.1-5.8 5.1-5.8c1.9 0 3.3.9 3.9 2.1c-.02.02 0-6.6 0-6.6h1.5v16zm-1.5-5.7c0-2.8-1.6-4.4-3.8-4.4c-2.2 0-3.7 1.7-3.7 4.4c0 2.8 1.6 4.5 3.7 4.5c2.2 0 3.8-1.7 3.8-4.5zm5.6.4c.1 2.8 1.8 4.1 3.8 4.1c1.5 0 3-.7 3.3-2.3h1.5c-.6 2.6-2.7 3.7-4.9 3.7c-2.7 0-5.2-1.8-5.2-5.8c0-4.1 2.6-5.9 5.3-5.9c2.7 0 4.8 1.7 4.8 5.5c.04-.05 0 .7 0 .7h-8.6zm.1-1.3h7c0-2.3-1.5-3.5-3.4-3.5c-1.7 0-3.4 1.1-3.6 3.5zm21.7.9c0 3.5-2.1 5.9-5.1 5.9c-2 0-3.4-1.1-4-2.3c.03 0 0 2.1 0 2.1h-1.4v-16h1.5v7c.6-1.4 2-2.5 4-2.5c2.9 0 5 2.2 5 5.8zm-1.6.1c0-2.8-1.5-4.4-3.6-4.4c-2.2 0-3.8 1.6-3.8 4.4c0 2.8 1.5 4.5 3.7 4.5c2.2 0 3.7-1.8 3.7-4.5zm9.4 5.6s-1.71-.02-1.7 0c-1.5 0-2.8-.5-2.8-3c-.04.02 0-6.9 0-6.9h-2.3v-1.4h2.3v-3.2l1.5-.4v3.6h2.7v1.4H425v6.9c0 1 .3 1.6 1.5 1.6h1.5v1.4z" stroke="none" fill="#000"/></g><g id="Polygon11918"><path d="m11.4 104.9c0 3.4-2.2 5.1-5.1 5.1c-2.5 0-4.7-1.3-5.1-3.9h1.6c.2 1.4 1.2 2.6 3.5 2.6c2.1 0 3.6-1.1 3.6-3.7v-2.3c-.8 1.7-2.5 2.3-4 2.3c-2.7 0-5-1.9-5-5.6c0-3.7 2.4-5.5 5.1-5.5c1.8 0 3.2.8 3.9 2c-.03.03 0-1.8 0-1.8h1.5s-.02 10.78 0 10.8zm-1.6-5.5c0-2.8-1.7-4.2-3.6-4.2c-1.9 0-3.7 1.4-3.7 4.2c0 2.8 1.7 4.2 3.7 4.2c1.8 0 3.6-1.2 3.6-4.2zm4.1.4c0-3.7 2.2-5.9 5.3-5.9c3.1 0 5.4 2.2 5.4 5.9c0 3.6-2.2 5.8-5.3 5.8c-3.2 0-5.4-2.2-5.4-5.8zm9.1-.1c0-2.8-1.7-4.4-3.8-4.4c-2.2 0-3.7 1.7-3.7 4.5c0 2.8 1.7 4.4 3.8 4.4c2.2 0 3.7-1.7 3.7-4.5zm8.5 5.7h-1.7l-4.2-11.3h1.7l3.4 9.7l3.4-9.7h1.6l-4.2 11.3zm6.7-5.3c.1 2.8 1.8 4.1 3.8 4.1c1.5 0 3-.7 3.3-2.3h1.4c-.5 2.6-2.6 3.7-4.8 3.7c-2.7 0-5.2-1.8-5.2-5.8c0-4.1 2.6-5.9 5.3-5.9c2.6 0 4.8 1.7 4.8 5.5c.03-.05 0 .7 0 .7h-8.6zm.1-1.3h7c0-2.3-1.5-3.5-3.4-3.5c-1.7 0-3.4 1.1-3.6 3.5zm16.8-3.4s-.37.03-.4 0c-2.4 0-3.7 1.4-3.7 4v6h-1.5V94.1h1.5s-.03 2.08 0 2.1c.5-1.5 1.9-2.2 3.6-2.2c0-.02.5 0 .5 0v1.4zm11.1 2.3c.03-.05 0 7.7 0 7.7h-1.5v-7.6c0-1.5-.9-2.5-2.5-2.5c-1.9 0-3.6 1.4-3.6 4.2v5.9h-1.5V94.1h1.5v2.1c.7-1.3 1.9-2.3 3.9-2.3c2.3 0 3.7 1.3 3.7 3.8zm3.3-3.6h1.5v1.9c.6-1.4 1.8-2.1 3.3-2.1c1.6 0 3 .9 3.3 2.3c.5-1.2 1.8-2.3 3.7-2.3c2 0 3.7 1.1 3.7 3.4c-.03 0 0 8.1 0 8.1h-1.6s.03-7.56 0-7.6c0-1.7-1-2.5-2.4-2.5c-1.6 0-3 1.3-3 3.6c-.03.03 0 6.5 0 6.5h-1.5s-.04-7.56 0-7.6c0-1.7-1.1-2.5-2.4-2.5c-1.7 0-3.1 1.2-3.1 3.6c.02.03 0 6.5 0 6.5h-1.5V94.1zm19.5 6c0 2.8 1.8 4.1 3.8 4.1c1.4 0 2.9-.7 3.3-2.3h1.4c-.5 2.6-2.7 3.7-4.8 3.7c-2.7 0-5.2-1.8-5.2-5.8c0-4.1 2.5-5.9 5.2-5.9c2.7 0 4.9 1.7 4.9 5.5v.7H89zm0-1.3h7c0-2.3-1.4-3.5-3.3-3.5c-1.8 0-3.5 1.1-3.7 3.5zm20.4-1.1c-.03-.05 0 7.7 0 7.7h-1.6s.03-7.56 0-7.6c0-1.5-.8-2.5-2.4-2.5c-2 0-3.7 1.4-3.7 4.2c.04-.04 0 5.9 0 5.9h-1.5V94.1h1.5s.04 2.1 0 2.1c.7-1.3 2-2.3 4-2.3c2.2 0 3.7 1.3 3.7 3.8zm8.4 7.7s-1.69-.02-1.7 0c-1.5 0-2.8-.5-2.8-3c-.03.02 0-6.9 0-6.9H111v-1.4h2.3v-3.2l1.5-.4v3.6h2.7v1.4h-2.7v6.9c0 1 .3 1.6 1.6 1.6h1.4v1.4zm18.2-5.7c0 3.5-2.1 5.9-5.2 5.9c-2 0-3.3-1.1-3.9-2.3v2.1h-1.5v-16h1.6s-.04 6.97 0 7c.5-1.4 2-2.5 4-2.5c2.9 0 5 2.2 5 5.8zm-1.6.1c0-2.8-1.5-4.4-3.7-4.4c-2.2 0-3.7 1.6-3.7 4.4c0 2.8 1.5 4.5 3.7 4.5c2.2 0 3.7-1.8 3.7-4.5zm3.4 0c0-3.7 2.3-5.9 5.4-5.9c3.1 0 5.3 2.2 5.3 5.9c0 3.6-2.2 5.8-5.3 5.8c-3.1 0-5.4-2.2-5.4-5.8zm9.2-.1c0-2.8-1.7-4.4-3.8-4.4c-2.2 0-3.8 1.7-3.8 4.5c0 2.8 1.7 4.4 3.8 4.4c2.2 0 3.8-1.7 3.8-4.5zm13.3-2v7.7h-1.5s-.02-7.56 0-7.6c0-1.5-.9-2.5-2.5-2.5c-1.9 0-3.6 1.4-3.6 4.2v5.9h-1.5V94.1h1.5v2.1c.7-1.3 1.9-2.3 3.9-2.3c2.2 0 3.7 1.3 3.7 3.8zm13.1 7.7h-1.5v-2.2c-.5 1.3-1.9 2.4-4 2.4c-3 0-5.1-2.3-5.1-5.9c0-3.5 2.1-5.8 5.1-5.8c1.9 0 3.3.9 3.9 2.1c.04.02 0-6.6 0-6.6h1.6v16zm-1.6-5.7c0-2.8-1.5-4.4-3.7-4.4c-2.2 0-3.7 1.7-3.7 4.4c0 2.8 1.5 4.5 3.7 4.5c2.2 0 3.7-1.7 3.7-4.5zm20 5.7h-1.5s.02-2.2 0-2.2c-.5 1.3-1.9 2.4-4 2.4c-3 0-5.1-2.3-5.1-5.9c0-3.5 2.1-5.8 5.1-5.8c1.9 0 3.3.9 4 2.1c-.04.02 0-6.6 0-6.6h1.5v16zm-1.6-5.7c0-2.8-1.5-4.4-3.7-4.4c-2.2 0-3.7 1.7-3.7 4.4c0 2.8 1.5 4.5 3.7 4.5c2.2 0 3.7-1.7 3.7-4.5zm5.7.4c.1 2.8 1.8 4.1 3.8 4.1c1.5 0 2.9-.7 3.3-2.3h1.4c-.5 2.6-2.7 3.7-4.8 3.7c-2.7 0-5.2-1.8-5.2-5.8c0-4.1 2.6-5.9 5.3-5.9c2.6 0 4.8 1.7 4.8 5.5c.02-.05 0 .7 0 .7h-8.6zm.1-1.3h7c0-2.3-1.5-3.5-3.4-3.5c-1.8 0-3.4 1.1-3.6 3.5zm21.7.9c0 3.5-2.1 5.9-5.1 5.9c-2.1 0-3.4-1.1-4-2.3v2.1h-1.5v-16h1.6s-.02 6.97 0 7c.5-1.4 2-2.5 4-2.5c2.9 0 5 2.2 5 5.8zm-1.6.1c0-2.8-1.5-4.4-3.7-4.4c-2.1 0-3.7 1.6-3.7 4.4c0 2.8 1.5 4.5 3.7 4.5c2.2 0 3.7-1.8 3.7-4.5zm9.3 5.6s-1.63-.02-1.6 0c-1.5 0-2.9-.5-2.9-3c.04.02 0-6.9 0-6.9h-2.2v-1.4h2.2v-3.2l1.6-.4v3.6h2.7v1.4h-2.7s-.03 6.9 0 6.9c0 1 .3 1.6 1.5 1.6h1.4v1.4zm14.6-2.1c-.9 1.7-2.6 2.3-4 2.3c-1.9 0-3.6-1.1-3.6-3.3c0-2.1 1.5-3.1 3.4-3.3l2.7-.4c.8-.1 1.5-.4 1.5-1.4c0-1.3-1.1-2-2.7-2c-1.7 0-2.7.8-3 2.1h-1.5c.3-2.3 2.1-3.4 4.6-3.4c2.6 0 4.1 1.2 4.1 3.7c.02-.01 0 7.8 0 7.8H240s.03-2.08 0-2.1zm-1.8-3.4l-1.8.2c-1.4.2-2.5.7-2.5 2.1c0 1.4 1.1 2 2.4 2c1.7 0 3.7-1.3 3.7-3.7v-1.1c-.4.3-1.1.4-1.8.5zm14.8 2.3c0 2.3-2 3.4-4.3 3.4c-2.4 0-4.6-1.2-4.9-3.7h1.7c.2 1.7 1.7 2.3 3.2 2.3c1.5 0 2.8-.5 2.8-1.8c0-1.3-1.4-1.6-2.7-1.8c-2.1-.4-4.7-.8-4.7-3.4c0-2.2 1.9-3.3 4.2-3.3c2.4 0 4.3 1.1 4.5 3.4h-1.6c-.1-1.4-1.4-2-2.9-2c-1.6 0-2.6.7-2.6 1.8c0 1.5 1.4 1.7 3.1 2c2 .3 4.2.6 4.2 3.1zm10.7 5.3c-.4 1.2-1.4 1.6-2.6 1.6c.01-.02-1.1 0-1.1 0v-1.4s.9.01.9 0c1 0 1.5-.3 1.8-1.3l.5-1.5l-4.2-10.8h1.6l3.4 8.9l3.3-8.9h1.5s-5.08 13.42-5.1 13.4zm8.8-18.1h-1.8v1.9h1.8v-1.9zm-.2 16h-1.5V94.1h1.5v11.3zm4.2-5.3c0 2.8 1.7 4.1 3.7 4.1c1.5 0 3-.7 3.3-2.3h1.5c-.5 2.6-2.7 3.7-4.8 3.7c-2.7 0-5.2-1.8-5.2-5.8c0-4.1 2.5-5.9 5.2-5.9c2.7 0 4.9 1.7 4.9 5.5c-.03-.05 0 .7 0 .7h-8.6zm0-1.3h7c0-2.3-1.5-3.5-3.3-3.5c-1.8 0-3.5 1.1-3.7 3.5zm12.7 6.6h-1.5v-16h1.5v16zm13.2 0h-1.5s.03-2.2 0-2.2c-.5 1.3-1.9 2.4-4 2.4c-2.9 0-5-2.3-5-5.9c0-3.5 2.1-5.8 5-5.8c1.9 0 3.4.9 4 2.1c-.04.02 0-6.6 0-6.6h1.5v16zm-1.6-5.7c0-2.8-1.5-4.4-3.7-4.4c-2.2 0-3.7 1.7-3.7 4.4c0 2.8 1.5 4.5 3.7 4.5c2.2 0 3.7-1.7 3.7-4.5zm13.3 2.5c0 2.3-2 3.4-4.3 3.4c-2.4 0-4.7-1.2-4.9-3.7h1.7c.2 1.7 1.7 2.3 3.2 2.3c1.5 0 2.7-.5 2.7-1.8c0-1.3-1.3-1.6-2.6-1.8c-2.1-.4-4.7-.8-4.7-3.4c0-2.2 1.9-3.3 4.2-3.3c2.4 0 4.3 1.1 4.4 3.4h-1.6c-.1-1.4-1.4-2-2.8-2c-1.6 0-2.6.7-2.6 1.8c0 1.5 1.4 1.7 3.1 2c2 .3 4.2.6 4.2 3.1zm13.4-6.8s-.32.03-.3 0c-2.4 0-3.8 1.4-3.8 4c.04 0 0 6 0 6h-1.5V94.1h1.5s.02 2.08 0 2.1c.5-1.5 1.9-2.2 3.7-2.2c-.05-.02.4 0 .4 0v1.4zm2.6 4.7c0 2.8 1.8 4.1 3.8 4.1c1.4 0 2.9-.7 3.3-2.3h1.4c-.5 2.6-2.7 3.7-4.8 3.7c-2.7 0-5.2-1.8-5.2-5.8c0-4.1 2.5-5.9 5.2-5.9c2.7 0 4.9 1.7 4.9 5.5c-.02-.05 0 .7 0 .7h-8.6zm0-1.3h7c0-2.3-1.4-3.5-3.3-3.5c-1.8 0-3.5 1.1-3.7 3.5zm19.6 3.4c0 2.3-2.1 3.4-4.4 3.4c-2.4 0-4.6-1.2-4.8-3.7h1.6c.3 1.7 1.7 2.3 3.3 2.3c1.4 0 2.7-.5 2.7-1.8c0-1.3-1.3-1.6-2.6-1.8c-2.2-.4-4.8-.8-4.8-3.4c0-2.2 2-3.3 4.3-3.3c2.4 0 4.3 1.1 4.4 3.4h-1.6c-.1-1.4-1.4-2-2.9-2c-1.5 0-2.6.7-2.6 1.8c0 1.5 1.4 1.7 3.1 2c2 .3 4.3.6 4.3 3.1zm3.3-2.1c0 2.8 1.7 4.1 3.7 4.1c1.5 0 3-.7 3.3-2.3h1.5c-.5 2.6-2.7 3.7-4.8 3.7c-2.7 0-5.2-1.8-5.2-5.8c0-4.1 2.5-5.9 5.2-5.9c2.7 0 4.9 1.7 4.9 5.5c-.03-.05 0 .7 0 .7H353zm0-1.3h7c0-2.3-1.4-3.5-3.3-3.5c-1.8 0-3.5 1.1-3.7 3.5zm16.3 6.6s-1.61-.02-1.6 0c-1.5 0-2.8-.5-2.8-3c-.05.02 0-6.9 0-6.9h-2.3v-1.4h2.3v-3.2l1.5-.4v3.6h2.7v1.4h-2.7s-.02 6.9 0 6.9c0 1 .3 1.6 1.5 1.6h1.4v1.4z" stroke="none" fill="#000"/></g><g id="Polygon11917"><path d="m17.7 80.2H15V69.3l-4.1 10.9H8.3l-4-10.9v10.9H1.6V64.4h3.7L9.7 76L14 64.4h3.7v15.8zm12.2-7.8c.05-.01 0 7.8 0 7.8h-2.7s.02-1.7 0-1.7c-.9 1.5-2.3 1.9-3.5 1.9c-1.8 0-3.8-1.1-3.8-3.6c0-1.8 1.1-3 3.7-3.4l2.5-.4c.7-.1 1.2-.3 1.2-1c0-1-.8-1.4-1.9-1.4c-1.5 0-2.2.7-2.3 1.7h-2.7c.3-2.7 2.5-3.9 5.1-3.9c2.7 0 4.4 1.3 4.4 4zm-2.7 2.9v-.6c-.2.1-.8.3-1.3.3l-1.3.2c-1.4.2-1.9.8-1.9 1.5c0 .9.7 1.4 1.7 1.4c1.4 0 2.8-1.1 2.8-2.8zM39 71.2s-.72-.03-.7 0c-2 0-3 1-3 3.3c-.04.01 0 5.7 0 5.7h-2.8V68.6h2.7s.04 1.65 0 1.6c.6-1.2 1.7-1.7 3.1-1.7c-.04-.04.7 0 .7 0v2.7zm5.5 4.5l-1.3 1.4v3.1h-2.8v-16h2.8v9.1l4.1-4.7h3.6l-4.5 5l4.7 6.6h-3.4l-3.2-4.5zm8.2-6.6h2.2v2.2h-2.2v-2.2zm0 8.9h2.2v2.2h-2.2V78zm24.6 2.2h-1.6l-3.9-13.3l-4 13.3h-1.6l-4.1-15.8h1.7l3.3 13.5L71 64.4h1.6l3.9 13.5l3.3-13.5h1.6l-4.1 15.8zm6.2-5.3c0 2.8 1.7 4.1 3.7 4.1c1.5 0 3-.7 3.3-2.3h1.5c-.5 2.6-2.7 3.7-4.9 3.7c-2.7 0-5.2-1.8-5.2-5.8c0-4.1 2.6-5.9 5.3-5.9c2.7 0 4.8 1.7 4.8 5.5c.04-.05 0 .7 0 .7c0 0-8.55.01-8.5 0zm0-1.3h7c0-2.3-1.5-3.5-3.4-3.5c-1.7 0-3.4 1.1-3.6 3.5zm27.3 6.6h-1.5l-3-9l-2.9 9h-1.5l-3.7-11.3h1.6l2.9 9.3l2.9-9.3h1.5l3 9.3l2.8-9.3h1.5l-3.6 11.3zm4.8-5.6c0-3.7 2.2-5.9 5.3-5.9c3.1 0 5.4 2.2 5.4 5.9c0 3.6-2.2 5.8-5.3 5.8c-3.1 0-5.4-2.2-5.4-5.8zm9.1-.1c0-2.8-1.7-4.4-3.8-4.4c-2.2 0-3.7 1.7-3.7 4.5c0 2.8 1.7 4.4 3.8 4.4c2.2 0 3.7-1.7 3.7-4.5zm11.6 5.7s.03-2.16 0-2.2c-.7 1.6-2.1 2.3-3.7 2.3c-2.1 0-3.8-1.3-3.8-3.9v-7.5h1.5s.05 7.27 0 7.3c0 1.8 1.1 2.8 2.5 2.8c1.9 0 3.5-1.4 3.5-4.3c-.03.04 0-5.8 0-5.8h1.5v11.3h-1.5zm6.4 0h-1.5v-16h1.5v16zm13.2 0h-1.5s-.01-2.2 0-2.2c-.6 1.3-1.9 2.4-4 2.4c-3 0-5.1-2.3-5.1-5.9c0-3.5 2.1-5.8 5.1-5.8c1.9 0 3.3.9 3.9 2.1c.03.02 0-6.6 0-6.6h1.6v16zm-1.6-5.7c0-2.8-1.5-4.4-3.7-4.4c-2.2 0-3.7 1.7-3.7 4.4c0 2.8 1.5 4.5 3.7 4.5c2.2 0 3.7-1.7 3.7-4.5zm21.1 0c0 3.5-2.1 5.9-5.1 5.9c-2 0-3.4-1.1-3.9-2.3c-.04 0 0 2.1 0 2.1h-1.5v-16h1.5s.02 6.97 0 7c.6-1.4 2-2.5 4.1-2.5c2.8 0 4.9 2.2 4.9 5.8zm-1.5.1c0-2.8-1.5-4.4-3.7-4.4c-2.2 0-3.8 1.6-3.8 4.4c0 2.8 1.6 4.5 3.7 4.5c2.2 0 3.8-1.8 3.8-4.5zm4.9.3c.1 2.8 1.8 4.1 3.8 4.1c1.5 0 2.9-.7 3.3-2.3h1.4c-.5 2.6-2.7 3.7-4.8 3.7c-2.7 0-5.2-1.8-5.2-5.8c0-4.1 2.5-5.9 5.3-5.9c2.6 0 4.8 1.7 4.8 5.5v.7h-8.6zm.1-1.3h6.9c0-2.3-1.4-3.5-3.3-3.5c-1.8 0-3.4 1.1-3.6 3.5zm27.2 6.6h-1.5l-2.9-9l-2.9 9h-1.5l-3.7-11.3h1.6l2.9 9.3l2.8-9.3h1.6l2.9 9.3l2.8-9.3h1.6l-3.7 11.3zm12.5-2.1c-.9 1.7-2.6 2.3-4 2.3c-1.9 0-3.6-1.1-3.6-3.3c0-2.1 1.5-3.1 3.4-3.3l2.7-.4c.8-.1 1.5-.4 1.5-1.4c0-1.3-1.1-2-2.7-2c-1.7 0-2.7.8-3 2.1h-1.5c.3-2.3 2.1-3.4 4.6-3.4c2.6 0 4.1 1.2 4.1 3.7c.02-.01 0 7.8 0 7.8h-1.5s.03-2.08 0-2.1zm-1.8-3.4l-1.8.2c-1.4.2-2.5.7-2.5 2.1c0 1.4 1.1 2 2.4 2c1.7 0 3.7-1.3 3.7-3.7v-1.1c-.4.3-1.1.4-1.8.5zm12.1-4.5s-.36.03-.4 0c-2.4 0-3.7 1.4-3.7 4v6h-1.5V68.9h1.5s-.02 2.08 0 2.1c.5-1.5 1.9-2.2 3.6-2.2c.02-.02.5 0 .5 0v1.4zm5.7 12.1c-.4 1.2-1.4 1.6-2.6 1.6c.03-.02-1.1 0-1.1 0v-1.4s.92.01.9 0c1 0 1.5-.3 1.8-1.3c.02-.01.5-1.5.5-1.5l-4.2-10.8h1.7l3.3 8.9l3.3-8.9h1.5s-5.07 13.42-5.1 13.4zm11.2-7.7c0-3.7 2.3-5.9 5.4-5.9c3.1 0 5.3 2.2 5.3 5.9c0 3.6-2.2 5.8-5.3 5.8c-3.1 0-5.4-2.2-5.4-5.8zm9.1-.1c0-2.8-1.7-4.4-3.8-4.4c-2.2 0-3.7 1.7-3.7 4.5c0 2.8 1.7 4.4 3.8 4.4c2.2 0 3.7-1.7 3.7-4.5zm7.8-9c-1.2 0-1.5.6-1.5 1.7c-.02-.04 0 1.7 0 1.7h2.5v1.4h-2.5v9.9h-1.6v-9.9h-1.8v-1.4h1.8s.04-1.78 0-1.8c0-2.5 1.4-2.9 2.9-2.9c-.02-.02 1.5 0 1.5 0v1.3s-1.27.04-1.3 0zm10 14.7h-1.5v-16h1.5v16zm2.7-5.6c0-3.7 2.2-5.9 5.3-5.9c3.1 0 5.4 2.2 5.4 5.9c0 3.6-2.3 5.8-5.4 5.8c-3.1 0-5.3-2.2-5.3-5.8zm9.1-.1c0-2.8-1.7-4.4-3.8-4.4c-2.2 0-3.8 1.7-3.8 4.5c0 2.8 1.7 4.4 3.8 4.4c2.2 0 3.8-1.7 3.8-4.5zm13.3-2c.04-.05 0 7.7 0 7.7h-1.5v-7.6c0-1.5-.9-2.5-2.5-2.5c-1.9 0-3.6 1.4-3.6 4.2c.02-.04 0 5.9 0 5.9h-1.5V68.9h1.5s.02 2.1 0 2.1c.7-1.3 2-2.3 3.9-2.3c2.3 0 3.7 1.3 3.7 3.8zm13 7.2c0 3.4-2.2 5.1-5.1 5.1c-2.5 0-4.7-1.3-5.1-3.9h1.6c.2 1.4 1.2 2.6 3.5 2.6c2.1 0 3.6-1.1 3.6-3.7v-2.3c-.8 1.7-2.5 2.3-4 2.3c-2.7 0-4.9-1.9-4.9-5.6c0-3.7 2.3-5.5 5-5.5c1.8 0 3.2.8 3.9 2c-.01.03 0-1.8 0-1.8h1.5v10.8zm-1.6-5.5c0-2.8-1.7-4.2-3.6-4.2c-1.9 0-3.7 1.4-3.7 4.2c0 2.8 1.7 4.2 3.7 4.2c1.8 0 3.6-1.2 3.6-4.2zm5.6.7c.1 2.8 1.8 4.1 3.8 4.1c1.5 0 2.9-.7 3.3-2.3h1.4c-.5 2.6-2.7 3.7-4.8 3.7c-2.7 0-5.2-1.8-5.2-5.8c0-4.1 2.6-5.9 5.3-5.9c2.6 0 4.8 1.7 4.8 5.5c.02-.05 0 .7 0 .7h-8.6zm.1-1.3h7c0-2.3-1.5-3.5-3.4-3.5c-1.8 0-3.4 1.1-3.6 3.5zm16.8-3.4s-.39.03-.4 0c-2.4 0-3.7 1.4-3.7 4c-.02 0 0 6 0 6H326V68.9h1.6s-.04 2.08 0 2.1c.5-1.5 1.8-2.2 3.6-2.2c-.01-.02.5 0 .5 0v1.4zm1.1 3.9v-1.4h6.5v1.4h-6.5zm19 6.1h-1.4s-.04-2.2 0-2.2c-.6 1.3-1.9 2.4-4 2.4c-3 0-5.1-2.3-5.1-5.9c0-3.5 2.1-5.8 5.1-5.8c1.9 0 3.3.9 3.9 2.1v-6.6h1.5v16zm-1.5-5.7c0-2.8-1.6-4.4-3.7-4.4c-2.2 0-3.7 1.7-3.7 4.4c0 2.8 1.5 4.5 3.7 4.5c2.1 0 3.7-1.7 3.7-4.5zm11.8 3.6c-.9 1.7-2.6 2.3-4 2.3c-1.9 0-3.6-1.1-3.6-3.3c0-2.1 1.4-3.1 3.4-3.3l2.6-.4c.9-.1 1.6-.4 1.6-1.4c0-1.3-1.1-2-2.7-2c-1.7 0-2.7.8-3 2.1h-1.5c.3-2.3 2.1-3.4 4.6-3.4c2.6 0 4.1 1.2 4.1 3.7v7.8h-1.5s.02-2.08 0-2.1zm-1.8-3.4l-1.8.2c-1.4.2-2.5.7-2.5 2.1c0 1.4 1.1 2 2.4 2c1.7 0 3.7-1.3 3.7-3.7v-1.1c-.4.3-1.1.4-1.8.5zm11.6 5.5s-1.65-.02-1.7 0c-1.4 0-2.8-.5-2.8-3v-6.9h-2.2v-1.4h2.2v-3.2l1.5-.4v3.6h2.8v1.4h-2.8s.05 6.9 0 6.9c0 1 .3 1.6 1.6 1.6h1.4v1.4zm3-5.3c0 2.8 1.8 4.1 3.7 4.1c1.5 0 3-.7 3.3-2.3h1.5c-.5 2.6-2.7 3.7-4.8 3.7c-2.7 0-5.2-1.8-5.2-5.8c0-4.1 2.5-5.9 5.2-5.9c2.7 0 4.9 1.7 4.9 5.5c-.02-.05 0 .7 0 .7h-8.6zm0-1.3h7c0-2.3-1.4-3.5-3.3-3.5c-1.8 0-3.5 1.1-3.7 3.5zm21 6.6h-1.5s.04-2.2 0-2.2c-.5 1.3-1.9 2.4-4 2.4c-2.9 0-5-2.3-5-5.9c0-3.5 2.1-5.8 5.1-5.8c1.9 0 3.3.9 3.9 2.1c-.02.02 0-6.6 0-6.6h1.5v16zm-1.5-5.7c0-2.8-1.6-4.4-3.8-4.4c-2.2 0-3.7 1.7-3.7 4.4c0 2.8 1.6 4.5 3.7 4.5c2.2 0 3.8-1.7 3.8-4.5z" stroke="none" fill="#000"/></g><g id="Polygon11916"><path d="m7.3 45s-1.84-.02-1.8 0c-2.2 0-3.6-.7-3.6-3.8v-5.3H-.2v-2.5h2.1v-2.6l2.8-.8v3.4h2.3v2.5H4.7v5.4c0 .7.2 1.2 1.2 1.2h1.4v2.5zM19 37.5c.05.01 0 7.5 0 7.5h-2.7s-.05-7.24 0-7.2c0-1.3-.8-2.1-2.1-2.1c-1.6 0-2.5 1.1-2.5 3c-.05.02 0 6.3 0 6.3H8.9v-16h2.8s-.05 6.03 0 6c.6-1.1 1.6-1.8 3.5-1.8c2.6 0 3.8 1.5 3.8 4.3zm11.9-.3c.03-.01 0 7.8 0 7.8h-2.7v-1.7c-.9 1.5-2.3 1.9-3.5 1.9c-1.9 0-3.8-1.1-3.8-3.6c0-1.8 1.1-3 3.7-3.4l2.5-.4c.7-.1 1.2-.3 1.2-1c0-1-.8-1.4-1.9-1.4c-1.5 0-2.2.7-2.3 1.7h-2.7c.3-2.7 2.5-3.9 5.1-3.9c2.7 0 4.4 1.3 4.4 4zm-2.7 2.9v-.6c-.2.1-.8.3-1.3.3l-1.3.2c-1.4.2-1.9.8-1.9 1.5c0 .9.7 1.4 1.6 1.4c1.5 0 2.9-1.1 2.9-2.8zM39.4 45s-1.85-.02-1.9 0c-2.1 0-3.5-.7-3.5-3.8v-5.3h-2.1v-2.5h2.1v-2.6l2.8-.8v3.4h2.3v2.5h-2.3v5.4c0 .7.2 1.2 1.2 1.2h1.4v2.5zm6.9-13.1h3v-3.2h-3v3.2zm.1 1.5h2.8V45h-2.8V33.4zm15.7 4.1c-.03.01 0 7.5 0 7.5h-2.8s-.02-7.24 0-7.2c0-1.3-.8-2.1-2.1-2.1c-1.6 0-2.5 1.1-2.5 3c-.02.02 0 6.3 0 6.3h-2.8V33.4h2.8s-.04 1.67 0 1.7c.6-1.1 1.6-1.9 3.5-1.9c2.6 0 3.9 1.5 3.9 4.3zm8.5 7.5h-3l-4.3-11.6h3l2.8 8.3l2.9-8.3h2.9L70.6 45zm7.4-5c.1 1.9 1.4 2.8 3 2.8c1.1 0 2.1-.4 2.5-1.5h2.5c-.5 2.6-2.8 3.9-5.1 3.9c-2.8 0-5.6-1.9-5.6-6c0-4 2.6-6 5.6-6c2.8 0 5.2 1.8 5.2 5.7c-.02-.01 0 1.1 0 1.1c0 0-8.09.03-8.1 0zm.1-2h5.2c0-1.5-1-2.4-2.5-2.4c-1.2 0-2.5.7-2.7 2.4zm19.2 3.4c0 2.6-2.3 3.8-4.9 3.8c-2.4 0-5-1-5.2-3.9h2.8c.2 1.1 1.3 1.6 2.6 1.6c1.1 0 2-.4 2-1.2c0-.8-.6-.9-2.2-1.2c-2.2-.4-4.8-.8-4.8-3.6c0-2.6 2.2-3.7 4.6-3.7c2.7 0 4.7 1.3 4.9 3.9h-2.8c-.1-1.1-.9-1.6-2.1-1.6c-1.4 0-1.9.6-1.9 1.3c0 .9 1 1.1 2.4 1.3c2.1.3 4.6.6 4.6 3.3zm7.8 3.6s-1.78-.02-1.8 0c-2.1 0-3.5-.7-3.5-3.8c-.03 0 0-5.3 0-5.3h-2.2v-2.5h2.2v-2.6l2.8-.8v3.4h2.3v2.5h-2.3s-.04 5.43 0 5.4c0 .7.2 1.2 1.1 1.2h1.4v2.5zm12.2-5.8c0 3.8-2.4 6-5.7 6c-3.2 0-5.6-2.2-5.6-6c0-3.8 2.4-6 5.6-6c3.3 0 5.7 2.2 5.7 6zm-8.5 0c0 2.3 1.3 3.4 2.9 3.4c1.6 0 2.7-1.2 2.7-3.4c0-2.3-1.2-3.4-2.8-3.4c-1.6 0-2.8 1.2-2.8 3.4zm17.1-3.2s-.78-.03-.8 0c-1.9 0-3 1-3 3.3v5.7h-2.8V33.4h2.8s-.03 1.65 0 1.6c.6-1.2 1.6-1.7 3-1.7c0-.04.8 0 .8 0v2.7zm10.6 5.4c0 2.6-2.3 3.8-4.9 3.8c-2.4 0-5-1-5.2-3.9h2.8c.2 1.1 1.2 1.6 2.5 1.6c1.2 0 2-.4 2-1.2c0-.8-.5-.9-2.1-1.2c-2.3-.4-4.9-.8-4.9-3.6c0-2.6 2.2-3.7 4.6-3.7c2.7 0 4.7 1.3 4.9 3.9h-2.7c-.1-1.1-.9-1.6-2.1-1.6c-1.4 0-2 .6-2 1.3c0 .9 1.1 1.1 2.5 1.3c2.1.3 4.6.6 4.6 3.3zm16 0c0 2.6-2.4 3.8-5 3.8c-2.3 0-5-1-5.1-3.9h2.8c.2 1.1 1.2 1.6 2.5 1.6c1.2 0 2-.4 2-1.2c0-.8-.5-.9-2.1-1.2c-2.3-.4-4.9-.8-4.9-3.6c0-2.6 2.2-3.7 4.6-3.7c2.7 0 4.7 1.3 4.9 3.9h-2.7c-.1-1.1-1-1.6-2.1-1.6c-1.4 0-2 .6-2 1.3c0 .9 1.1 1.1 2.5 1.3c2 .3 4.6.6 4.6 3.3zm12-3.9c.03.01 0 7.5 0 7.5h-2.8s.04-7.24 0-7.2c0-1.3-.7-2.1-2-2.1c-1.6 0-2.6 1.1-2.6 3c.04.02 0 6.3 0 6.3h-2.8v-16h2.8s.04 6.03 0 6c.7-1.1 1.7-1.8 3.5-1.8c2.7 0 3.9 1.5 3.9 4.3zm13.2 1.7c0 3.8-2.4 6-5.6 6c-3.3 0-5.7-2.2-5.7-6c0-3.8 2.4-6 5.7-6c3.2 0 5.6 2.2 5.6 6zm-8.4 0c0 2.3 1.3 3.4 2.8 3.4c1.7 0 2.8-1.2 2.8-3.4c0-2.3-1.3-3.4-2.8-3.4c-1.7 0-2.8 1.2-2.8 3.4zm20.6 5.8h-2.8s.05-1.66 0-1.7c-.6 1.1-1.7 1.8-3.3 1.8c-2.4 0-4.2-1.5-4.2-4.5c.03-.01 0-7.2 0-7.2h2.8s.02 6.98 0 7c0 1.6.8 2.2 2 2.2c1.6 0 2.7-.9 2.7-3.6v-5.6h2.8V45zm5.5 0h-2.8v-16h2.8v16zm13.4 0H206s.05-1.8 0-1.8c-.6 1.3-1.9 2-3.5 2c-2.7 0-5.1-2-5.1-6c0-4 2.4-6 5.1-6c1.5 0 2.8.6 3.5 1.7V29h2.8v16zm-2.7-5.8c0-2.4-1.5-3.5-3-3.5c-1.5 0-2.9 1.1-2.9 3.5c0 2.3 1.4 3.5 2.9 3.5c1.5 0 3-1.2 3-3.5zm20.3-2c.04-.01 0 7.8 0 7.8h-2.7s.01-1.7 0-1.7c-.9 1.5-2.3 1.9-3.5 1.9c-1.8 0-3.8-1.1-3.8-3.6c0-1.8 1.1-3 3.7-3.4l2.5-.4c.7-.1 1.2-.3 1.2-1c0-1-.8-1.4-1.9-1.4c-1.5 0-2.2.7-2.3 1.7h-2.7c.3-2.7 2.5-3.9 5.1-3.9c2.7 0 4.4 1.3 4.4 4zm-2.7 2.9v-.6c-.2.1-.8.3-1.3.3l-1.3.2c-1.4.2-1.9.8-1.9 1.5c0 .9.7 1.4 1.7 1.4c1.4 0 2.8-1.1 2.8-2.8zm11.1 4.9h-2.9l-4.3-11.6h3l2.8 8.3l2.8-8.3h2.9L234.8 45zm16.1-5.8c0 3.8-2.4 6-5.7 6c-3.2 0-5.6-2.2-5.6-6c0-3.8 2.4-6 5.6-6c3.3 0 5.7 2.2 5.7 6zm-8.5 0c0 2.3 1.3 3.4 2.9 3.4c1.6 0 2.7-1.2 2.7-3.4c0-2.3-1.3-3.4-2.8-3.4c-1.7 0-2.8 1.2-2.8 3.4zm10.4-7.3h2.9v-3.2h-2.9v3.2zm.1 1.5h2.8V45h-2.8V33.4zM269 45h-2.7s-.02-1.8 0-1.8c-.7 1.3-2 2-3.6 2c-2.7 0-5.1-2-5.1-6c0-4 2.4-6 5.1-6c1.5 0 2.8.6 3.5 1.7V29h2.8v16zm-2.7-5.8c0-2.4-1.4-3.5-2.9-3.5c-1.6 0-2.9 1.1-2.9 3.5c0 2.3 1.3 3.5 2.9 3.5c1.5 0 2.9-1.2 2.9-3.5zm8.2.2c0-2.7 1.4-3.2 2.6-4.1c1-.7 1.5-1.3 1.5-2.1c0-1.2-.9-1.8-2.1-1.8c-1.5 0-2.4.8-2.5 2.2h-2.8c.3-3.4 2.7-4.6 5.3-4.6c2.8 0 5 1.3 5 4.1c0 2.2-1.3 3.1-2.8 4.1c-1 .8-1.5 1.3-1.5 2.2c-.03.04 0 .7 0 .7h-2.7v-.7zm-.2 2.3h3.1v3.3h-3.1v-3.3z" stroke="none" fill="#000"/></g><g id="Polygon11915"><path d="m11.5 16.3H4.8l-1.3 3.5H.4L6.5 4h3.2L16 19.8h-3.2l-1.3-3.5zm-1.1-2.8L8.1 7.3l-2.3 6.2h4.6zm13.9-2.7s-.7-.03-.7 0c-1.9 0-3 1-3 3.3c-.02.01 0 5.7 0 5.7h-2.8V8.2h2.8s-.04 1.65 0 1.6c.5-1.2 1.6-1.7 3-1.7c-.02-.04.7 0 .7 0v2.7zm3.2 4c0 1.9 1.4 2.8 3 2.8c1 0 2.1-.4 2.4-1.5h2.6c-.5 2.6-2.8 3.9-5.2 3.9c-2.8 0-5.5-1.9-5.5-6c0-4 2.6-6 5.5-6c2.9 0 5.2 1.8 5.2 5.7c.03-.01 0 1.1 0 1.1c0 0-8.03.03-8 0zm0-2h5.3c0-1.5-1.1-2.4-2.5-2.4c-1.3 0-2.5.7-2.8 2.4zm21 7s-1.84-.02-1.8 0c-2.2 0-3.6-.7-3.6-3.8v-5.3H41V8.2h2.1V5.6l2.8-.8v3.4h2.3v2.5h-2.3v5.4c0 .7.2 1.2 1.2 1.2h1.4v2.5zm11.7-7.5c.05.01 0 7.5 0 7.5h-2.7s-.04-7.24 0-7.2c0-1.3-.8-2.1-2.1-2.1c-1.6 0-2.5 1.1-2.5 3c-.04.02 0 6.3 0 6.3h-2.8v-16h2.8s-.04 6.03 0 6c.6-1.1 1.6-1.8 3.5-1.8c2.6 0 3.8 1.5 3.8 4.3zm4.6 2.5c.1 1.9 1.5 2.8 3 2.8c1.1 0 2.2-.4 2.5-1.5h2.6c-.5 2.6-2.8 3.9-5.2 3.9c-2.8 0-5.6-1.9-5.6-6c0-4 2.7-6 5.6-6c2.8 0 5.2 1.8 5.2 5.7c.01-.01 0 1.1 0 1.1c0 0-8.05.03-8.1 0zm.1-2h5.3c0-1.5-1.1-2.4-2.5-2.4c-1.3 0-2.5.7-2.8 2.4zm16.6-2s-.78-.03-.8 0c-1.9 0-3 1-3 3.3v5.7h-2.8V8.2h2.8s-.02 1.65 0 1.6c.6-1.2 1.6-1.7 3-1.7c0-.04.8 0 .8 0v2.7zm3.1 4c.1 1.9 1.4 2.8 3 2.8c1.1 0 2.1-.4 2.4-1.5h2.6c-.5 2.6-2.8 3.9-5.2 3.9c-2.7 0-5.5-1.9-5.5-6c0-4 2.6-6 5.6-6c2.8 0 5.2 1.8 5.2 5.7c-.05-.01 0 1.1 0 1.1c0 0-8.11.03-8.1 0zm.1-2h5.2c0-1.5-1-2.4-2.5-2.4c-1.3 0-2.5.7-2.7 2.4zm19.7 7.2c-3.8 0-5.7-2.9-5.7-6c0-3.1 1.8-6 5.6-6c2.9 0 5.1 1.6 5.2 4.4h-2.8c-.1-1.1-.9-1.9-2.3-1.9c-2 0-2.8 1.7-2.8 3.5c0 1.9.8 3.4 2.8 3.4c1.4 0 2.2-.7 2.4-1.7h2.7c-.3 2.8-2.3 4.3-5.1 4.3zm9.1-5.2c.1 1.9 1.4 2.8 3 2.8c1.1 0 2.1-.4 2.5-1.5h2.5c-.5 2.6-2.7 3.9-5.1 3.9c-2.8 0-5.6-1.9-5.6-6c0-4 2.6-6 5.6-6c2.8 0 5.2 1.8 5.2 5.7c-.01-.01 0 1.1 0 1.1c0 0-8.07.03-8.1 0zm.1-2h5.3c0-1.5-1.1-2.4-2.5-2.4c-1.3 0-2.6.7-2.8 2.4zm16.5-2s-.7-.03-.7 0c-2 0-3 1-3 3.3c-.02.01 0 5.7 0 5.7h-2.8V8.2h2.8s-.04 1.65 0 1.6c.5-1.2 1.6-1.7 3-1.7c-.02-.04.7 0 .7 0v2.7zm7.7 9s-1.78-.02-1.8 0c-2.1 0-3.5-.7-3.5-3.8c-.03 0 0-5.3 0-5.3h-2.2V8.2h2.2V5.6l2.8-.8v3.4h2.3v2.5h-2.3s-.04 5.43 0 5.4c0 .7.1 1.2 1.1 1.2h1.4v2.5zm10.9-7.8c-.02-.01 0 7.8 0 7.8h-2.8s.05-1.7 0-1.7c-.9 1.5-2.2 1.9-3.5 1.9c-1.8 0-3.7-1.1-3.7-3.6c0-1.8 1-3 3.7-3.4l2.5-.4c.7-.1 1.2-.3 1.2-1c0-1-.9-1.4-2-1.4c-1.5 0-2.2.7-2.3 1.7h-2.7c.3-2.7 2.5-3.9 5.1-3.9c2.8 0 4.5 1.3 4.5 4zm-2.7 2.9v-.6c-.3.1-.8.3-1.4.3l-1.3.2c-1.4.2-1.8.8-1.8 1.5c0 .9.6 1.4 1.6 1.4c1.4 0 2.9-1.1 2.9-2.8zm5.1-8.2h3V3.5h-3v3.2zm.1 1.5h2.8v11.6h-2.8V8.2zm15.7 4.1c-.04.01 0 7.5 0 7.5h-2.8s-.03-7.24 0-7.2c0-1.3-.8-2.1-2.1-2.1c-1.6 0-2.5 1.1-2.5 3c-.03.02 0 6.3 0 6.3h-2.8V8.2h2.8s-.05 1.67 0 1.7C160.1 8.8 161 8 163 8c2.6 0 3.9 1.5 3.9 4.3zm17.5-.3c.02-.01 0 7.8 0 7.8h-2.7s-.01-1.7 0-1.7c-.9 1.5-2.3 1.9-3.5 1.9c-1.9 0-3.8-1.1-3.8-3.6c0-1.8 1.1-3 3.7-3.4l2.5-.4c.7-.1 1.2-.3 1.2-1c0-1-.8-1.4-2-1.4c-1.4 0-2.1.7-2.2 1.7h-2.7c.3-2.7 2.4-3.9 5.1-3.9c2.7 0 4.4 1.3 4.4 4zm-2.7 2.9v-.6c-.3.1-.8.3-1.4.3l-1.2.2c-1.4.2-1.9.8-1.9 1.5c0 .9.7 1.4 1.6 1.4c1.5 0 2.9-1.1 2.9-2.8zm14.5 1.3c0 2.6-2.3 3.8-4.9 3.8c-2.4 0-5-1-5.2-3.9h2.8c.2 1.1 1.2 1.6 2.5 1.6c1.2 0 2.1-.4 2.1-1.2c0-.8-.6-.9-2.2-1.2c-2.3-.4-4.8-.8-4.8-3.6c0-2.6 2.2-3.7 4.6-3.7c2.7 0 4.7 1.3 4.8 3.9h-2.7c-.1-1.1-.9-1.6-2.1-1.6c-1.4 0-1.9.6-1.9 1.3c0 .9 1 1.1 2.4 1.3c2.1.3 4.6.6 4.6 3.3zm11.2 0c0 2.6-2.4 3.8-5 3.8c-2.4 0-5-1-5.1-3.9h2.8c.2 1.1 1.2 1.6 2.5 1.6c1.2 0 2-.4 2-1.2c0-.8-.5-.9-2.1-1.2c-2.3-.4-4.9-.8-4.9-3.6c0-2.6 2.2-3.7 4.6-3.7c2.7 0 4.7 1.3 4.9 3.9h-2.8c-.1-1.1-.9-1.6-2.1-1.6c-1.3 0-1.9.6-1.9 1.3c0 .9 1 1.1 2.5 1.3c2 .3 4.6.6 4.6 3.3zm3.8-1.4c.1 1.9 1.4 2.8 3 2.8c1.1 0 2.1-.4 2.5-1.5h2.5c-.5 2.6-2.8 3.9-5.1 3.9c-2.8 0-5.6-1.9-5.6-6c0-4 2.6-6 5.6-6c2.8 0 5.2 1.8 5.2 5.7c-.02-.01 0 1.1 0 1.1c0 0-8.08.03-8.1 0zm.1-2h5.2c0-1.5-1-2.4-2.4-2.4c-1.3 0-2.6.7-2.8 2.4zm15.9 7s-1.83-.02-1.8 0c-2.2 0-3.6-.7-3.6-3.8c.02 0 0-5.3 0-5.3h-2.1V8.2h2.1V5.6l2.8-.8v3.4h2.3v2.5h-2.3v5.4c0 .7.2 1.2 1.2 1.2h1.4v2.5zm11.5.2c-3.8 0-5.6-2.9-5.6-6c0-3.1 1.8-6 5.6-6c2.8 0 5 1.6 5.1 4.4h-2.7c-.2-1.1-1-1.9-2.3-1.9c-2.1 0-2.9 1.7-2.9 3.5c0 1.9.9 3.4 2.8 3.4c1.4 0 2.2-.7 2.4-1.7h2.8c-.4 2.8-2.4 4.3-5.2 4.3zm10-.2h-2.8v-16h2.8v16zm12-7.8c-.03-.01 0 7.8 0 7.8h-2.8s.04-1.7 0-1.7c-.9 1.5-2.2 1.9-3.5 1.9c-1.8 0-3.7-1.1-3.7-3.6c0-1.8 1-3 3.7-3.4l2.5-.4c.7-.1 1.1-.3 1.1-1c0-1-.8-1.4-1.9-1.4c-1.5 0-2.2.7-2.3 1.7h-2.7c.3-2.7 2.5-3.9 5.1-3.9c2.7 0 4.5 1.3 4.5 4zm-2.7 2.9v-.6c-.3.1-.8.3-1.4.3l-1.3.2c-1.4.2-1.8.8-1.8 1.5c0 .9.6 1.4 1.6 1.4c1.4 0 2.9-1.1 2.9-2.8zm14.5 1.3c0 2.6-2.4 3.8-5 3.8c-2.4 0-5-1-5.1-3.9h2.8c.2 1.1 1.2 1.6 2.5 1.6c1.2 0 2-.4 2-1.2c0-.8-.5-.9-2.1-1.2c-2.3-.4-4.9-.8-4.9-3.6c0-2.6 2.2-3.7 4.6-3.7c2.7 0 4.7 1.3 4.9 3.9h-2.8c-.1-1.1-.9-1.6-2.1-1.6c-1.3 0-1.9.6-1.9 1.3c0 .9 1 1.1 2.5 1.3c2 .3 4.6.6 4.6 3.3zm11.1 0c0 2.6-2.3 3.8-4.9 3.8c-2.4 0-5-1-5.2-3.9h2.8c.2 1.1 1.2 1.6 2.5 1.6c1.2 0 2.1-.4 2.1-1.2c0-.8-.6-.9-2.2-1.2c-2.3-.4-4.8-.8-4.8-3.6c0-2.6 2.2-3.7 4.6-3.7c2.7 0 4.7 1.3 4.8 3.9h-2.7c-.1-1.1-.9-1.6-2.1-1.6c-1.4 0-1.9.6-1.9 1.3c0 .9 1 1.1 2.4 1.3c2.1.3 4.6.6 4.6 3.3zm3.9-1.4c0 1.9 1.4 2.8 2.9 2.8c1.1 0 2.2-.4 2.5-1.5h2.6c-.5 2.6-2.8 3.9-5.2 3.9c-2.8 0-5.5-1.9-5.5-6c0-4 2.6-6 5.5-6c2.9 0 5.2 1.8 5.2 5.7c.03-.01 0 1.1 0 1.1c0 0-8.03.03-8 0zm0-2h5.3c0-1.5-1.1-2.4-2.5-2.4c-1.3 0-2.5.7-2.8 2.4zm19.3 3.4c0 2.6-2.3 3.8-4.9 3.8c-2.4 0-5-1-5.2-3.9h2.8c.2 1.1 1.2 1.6 2.5 1.6c1.2 0 2-.4 2-1.2c0-.8-.5-.9-2.1-1.2c-2.3-.4-4.9-.8-4.9-3.6c0-2.6 2.2-3.7 4.6-3.7c2.7 0 4.7 1.3 4.9 3.9h-2.7c-.1-1.1-.9-1.6-2.1-1.6c-1.4 0-1.9.6-1.9 1.3c0 .9 1 1.1 2.4 1.3c2.1.3 4.6.6 4.6 3.3zm11.7-13.8h-2l-7 19.3h2.1l6.9-19.3zm11 13.8c0 2.6-2.3 3.8-4.9 3.8c-2.4 0-5-1-5.2-3.9h2.9c.2 1.1 1.2 1.6 2.5 1.6c1.2 0 2-.4 2-1.2c0-.8-.5-.9-2.1-1.2c-2.3-.4-4.9-.8-4.9-3.6c0-2.6 2.2-3.7 4.6-3.7c2.7 0 4.7 1.3 4.9 3.9h-2.8c-.1-1.1-.9-1.6-2.1-1.6c-1.3 0-1.9.6-1.9 1.3c0 .9 1 1.1 2.5 1.3c2 .3 4.5.6 4.5 3.3zm3.9-1.4c.1 1.9 1.4 2.8 3 2.8c1.1 0 2.1-.4 2.5-1.5h2.5c-.5 2.6-2.8 3.9-5.1 3.9c-2.8 0-5.6-1.9-5.6-6c0-4 2.6-6 5.6-6c2.8 0 5.2 1.8 5.2 5.7c-.02-.01 0 1.1 0 1.1c0 0-8.09.03-8.1 0zm.1-2h5.2c0-1.5-1-2.4-2.5-2.4c-1.2 0-2.5.7-2.7 2.4zm14.9 7.2c-3.8 0-5.7-2.9-5.7-6c0-3.1 1.8-6 5.6-6c2.9 0 5.1 1.6 5.2 4.4h-2.8c-.1-1.1-.9-1.9-2.3-1.9c-2 0-2.8 1.7-2.8 3.5c0 1.9.8 3.4 2.8 3.4c1.4 0 2.2-.7 2.4-1.7h2.7c-.3 2.8-2.3 4.3-5.1 4.3zm13.1-.2s-1.86-.02-1.9 0c-2.1 0-3.5-.7-3.5-3.8v-5.3H354V8.2h2.1V5.6l2.8-.8v3.4h2.3v2.5h-2.3v5.4c0 .7.2 1.2 1.2 1.2h1.4v2.5zm12.1-5.8c0 3.8-2.4 6-5.6 6c-3.3 0-5.7-2.2-5.7-6c0-3.8 2.4-6 5.7-6c3.2 0 5.6 2.2 5.6 6zm-8.4 0c0 2.3 1.2 3.4 2.8 3.4c1.7 0 2.8-1.2 2.8-3.4c0-2.3-1.3-3.4-2.9-3.4c-1.6 0-2.7 1.2-2.7 3.4zm17-3.2s-.76-.03-.8 0c-1.9 0-3 1-3 3.3c.02.01 0 5.7 0 5.7h-2.8V8.2h2.8v1.6c.6-1.2 1.7-1.7 3-1.7c.02-.04.8 0 .8 0v2.7zm10.6 5.4c0 2.6-2.3 3.8-4.9 3.8c-2.4 0-5-1-5.2-3.9h2.8c.2 1.1 1.2 1.6 2.5 1.6c1.2 0 2.1-.4 2.1-1.2c0-.8-.6-.9-2.2-1.2c-2.3-.4-4.8-.8-4.8-3.6c0-2.6 2.2-3.7 4.6-3.7c2.7 0 4.7 1.3 4.8 3.9h-2.7c-.1-1.1-.9-1.6-2.1-1.6c-1.4 0-1.9.6-1.9 1.3c0 .9 1 1.1 2.4 1.3c2.1.3 4.6.6 4.6 3.3z" stroke="none" fill="#000"/></g></svg>