<?xml version="1.0" standalone="no"?><!DOCTYPE svg PUBLIC "-//W3C//DTD SVG 1.1//EN" "http://www.w3.org/Graphics/SVG/1.1/DTD/svg11.dtd"><svg xmlns="http://www.w3.org/2000/svg" version="1.1" width="16px" height="15.1px" viewBox="0 0 16 15.1">  <desc>5 0</desc>  <defs/>  <g id="Polygon12273">    <path d="M 9.3 5.6 C 9.3 6.7 8.6 7.6 7.3 7.6 C 6.2 7.6 5.2 7 5.2 5.7 C 5.2 5.7 5.9 5.7 5.9 5.7 C 5.9 5.8 5.9 5.8 5.9 5.9 C 5.9 6.7 6.5 7.1 7.3 7.1 C 8.2 7.1 8.7 6.4 8.7 5.6 C 8.7 4.9 8.2 4.2 7.3 4.2 C 6.8 4.2 6.4 4.4 6.1 4.7 C 6.09 4.71 5.5 4.7 5.5 4.7 L 6 1.6 L 8.9 1.6 L 8.9 2.2 L 6.5 2.2 C 6.5 2.2 6.14 4.1 6.1 4.1 C 6.6 3.8 7 3.7 7.4 3.7 C 8.7 3.7 9.3 4.6 9.3 5.6 Z M 10 6.7 L 10.8 6.7 L 10.8 7.5 L 10 7.5 L 10 6.7 Z M 11.6 4.6 C 11.6 2.7 12.2 1.5 13.6 1.5 C 15 1.5 15.6 2.8 15.6 4.6 C 15.6 6.4 14.9 7.6 13.6 7.6 C 12.2 7.6 11.6 6.4 11.6 4.6 Z M 15 4.6 C 15 3.2 14.6 2.1 13.6 2.1 C 12.7 2.1 12.2 3.1 12.2 4.5 C 12.2 6 12.6 7.1 13.6 7.1 C 14.6 7.1 14.9 6 15 4.6 Z " stroke="none" fill="#000"/>  </g></svg>