<?xml version="1.0" standalone="no"?><!DOCTYPE svg PUBLIC "-//W3C//DTD SVG 1.1//EN" "http://www.w3.org/Graphics/SVG/1.1/DTD/svg11.dtd"><svg xmlns="http://www.w3.org/2000/svg" version="1.1" width="461px" height="212.4px" viewBox="0 0 461 212.4">  <desc>Ensuite, il y a les changements de r glementation Des secteurs auxquels il a fallu venir en aide en 2020 pourraient</desc>  <defs/>  <g id="Polygon11473">    <path d="M 0.9 190.6 C 0.9 186.9 3.2 184.7 6.3 184.7 C 9.4 184.7 11.6 186.9 11.6 190.6 C 11.6 194.2 9.4 196.4 6.3 196.4 C 3.2 196.4 0.9 194.2 0.9 190.6 Z M 10.1 190.5 C 10.1 187.7 8.4 186.1 6.3 186.1 C 4.1 186.1 2.5 187.8 2.5 190.6 C 2.5 193.4 4.2 195 6.3 195 C 8.5 195 10.1 193.3 10.1 190.5 Z M 24.8 190.5 C 24.8 194 22.7 196.4 19.7 196.4 C 17.7 196.4 16.3 195.3 15.7 194.1 C 15.73 194.1 15.7 196.2 15.7 196.2 L 14.3 196.2 L 14.3 180.2 L 15.8 180.2 C 15.8 180.2 15.79 187.17 15.8 187.2 C 16.4 185.8 17.8 184.7 19.8 184.7 C 22.7 184.7 24.8 186.9 24.8 190.5 Z M 23.2 190.6 C 23.2 187.8 21.7 186.2 19.6 186.2 C 17.4 186.2 15.8 187.8 15.8 190.6 C 15.8 193.4 17.3 195.1 19.5 195.1 C 21.7 195.1 23.2 193.3 23.2 190.6 Z M 28.9 196.2 L 27.4 196.2 L 27.4 180.2 L 28.9 180.2 L 28.9 196.2 Z M 33.9 180.2 L 32.2 180.2 L 32.2 182.1 L 33.9 182.1 L 33.9 180.2 Z M 33.8 196.2 L 32.3 196.2 L 32.3 184.9 L 33.8 184.9 L 33.8 196.2 Z M 46.9 195.7 C 46.9 199.1 44.7 200.8 41.8 200.8 C 39.3 200.8 37.1 199.5 36.7 196.9 C 36.7 196.9 38.3 196.9 38.3 196.9 C 38.5 198.3 39.5 199.5 41.8 199.5 C 43.9 199.5 45.4 198.4 45.4 195.8 C 45.4 195.8 45.4 193.5 45.4 193.5 C 44.6 195.2 42.9 195.8 41.4 195.8 C 38.7 195.8 36.5 193.9 36.5 190.2 C 36.5 186.5 38.8 184.7 41.5 184.7 C 43.3 184.7 44.7 185.5 45.4 186.7 C 45.38 186.73 45.4 184.9 45.4 184.9 L 46.9 184.9 C 46.9 184.9 46.89 195.68 46.9 195.7 Z M 45.3 190.2 C 45.3 187.4 43.6 186 41.7 186 C 39.8 186 38 187.4 38 190.2 C 38 193 39.7 194.4 41.7 194.4 C 43.5 194.4 45.3 193.2 45.3 190.2 Z M 57.1 194.1 C 56.2 195.8 54.5 196.4 53.1 196.4 C 51.1 196.4 49.4 195.3 49.4 193.1 C 49.4 191 50.9 190 52.8 189.8 C 52.8 189.8 55.5 189.4 55.5 189.4 C 56.3 189.3 57.1 189 57.1 188 C 57.1 186.7 55.9 186 54.3 186 C 52.6 186 51.6 186.8 51.4 188.1 C 51.4 188.1 49.9 188.1 49.9 188.1 C 50.2 185.8 52 184.7 54.5 184.7 C 57 184.7 58.6 185.9 58.6 188.4 C 58.57 188.39 58.6 196.2 58.6 196.2 L 57.1 196.2 C 57.1 196.2 57.08 194.12 57.1 194.1 Z M 55.2 190.7 C 55.2 190.7 53.5 190.9 53.5 190.9 C 52.1 191.1 51 191.6 51 193 C 51 194.4 52.1 195 53.3 195 C 55.1 195 57 193.7 57 191.3 C 57 191.3 57 190.2 57 190.2 C 56.6 190.5 56 190.6 55.2 190.7 Z M 66.9 196.2 C 66.9 196.2 65.2 196.18 65.2 196.2 C 63.7 196.2 62.4 195.7 62.4 193.2 C 62.37 193.22 62.4 186.3 62.4 186.3 L 60.1 186.3 L 60.1 184.9 L 62.4 184.9 L 62.4 181.7 L 63.9 181.3 L 63.9 184.9 L 66.6 184.9 L 66.6 186.3 L 63.9 186.3 C 63.9 186.3 63.9 193.2 63.9 193.2 C 63.9 194.2 64.2 194.8 65.5 194.8 C 65.46 194.8 66.9 194.8 66.9 194.8 L 66.9 196.2 Z M 76 194.1 C 75.1 195.8 73.4 196.4 72 196.4 C 70.1 196.4 68.3 195.3 68.3 193.1 C 68.3 191 69.8 190 71.8 189.8 C 71.8 189.8 74.4 189.4 74.4 189.4 C 75.3 189.3 76 189 76 188 C 76 186.7 74.8 186 73.3 186 C 71.6 186 70.5 186.8 70.3 188.1 C 70.3 188.1 68.8 188.1 68.8 188.1 C 69.1 185.8 70.9 184.7 73.4 184.7 C 75.9 184.7 77.5 185.9 77.5 188.4 C 77.49 188.39 77.5 196.2 77.5 196.2 L 76 196.2 C 76 196.2 76 194.12 76 194.1 Z M 74.1 190.7 C 74.1 190.7 72.4 190.9 72.4 190.9 C 71 191.1 69.9 191.6 69.9 193 C 69.9 194.4 71 195 72.2 195 C 74 195 76 193.7 76 191.3 C 76 191.3 76 190.2 76 190.2 C 75.5 190.5 74.9 190.6 74.1 190.7 Z M 82.3 180.2 L 80.5 180.2 L 80.5 182.1 L 82.3 182.1 L 82.3 180.2 Z M 82.2 196.2 L 80.6 196.2 L 80.6 184.9 L 82.2 184.9 L 82.2 196.2 Z M 91.2 186.2 C 91.2 186.2 90.8 186.23 90.8 186.2 C 88.4 186.2 87.1 187.6 87.1 190.2 C 87.06 190.2 87.1 196.2 87.1 196.2 L 85.5 196.2 L 85.5 184.9 L 87 184.9 C 87 184.9 87.04 186.98 87 187 C 87.6 185.5 88.9 184.8 90.7 184.8 C 90.68 184.78 91.2 184.8 91.2 184.8 L 91.2 186.2 Z M 93.7 190.9 C 93.8 193.7 95.5 195 97.5 195 C 99 195 100.4 194.3 100.8 192.7 C 100.8 192.7 102.2 192.7 102.2 192.7 C 101.7 195.3 99.5 196.4 97.4 196.4 C 94.7 196.4 92.2 194.6 92.2 190.6 C 92.2 186.5 94.8 184.7 97.5 184.7 C 100.1 184.7 102.3 186.4 102.3 190.2 C 102.31 190.15 102.3 190.9 102.3 190.9 C 102.3 190.9 93.72 190.91 93.7 190.9 Z M 93.8 189.6 C 93.8 189.6 100.8 189.6 100.8 189.6 C 100.8 187.3 99.3 186.1 97.4 186.1 C 95.6 186.1 94 187.2 93.8 189.6 Z M 113.3 193 C 113.3 195.3 111.2 196.4 109 196.4 C 106.6 196.4 104.3 195.2 104.1 192.7 C 104.1 192.7 105.7 192.7 105.7 192.7 C 106 194.4 107.5 195 109 195 C 110.4 195 111.7 194.5 111.7 193.2 C 111.7 191.9 110.4 191.6 109.1 191.4 C 106.9 191 104.4 190.6 104.4 188 C 104.4 185.8 106.3 184.7 108.6 184.7 C 111 184.7 112.9 185.8 113 188.1 C 113 188.1 111.4 188.1 111.4 188.1 C 111.3 186.7 110 186.1 108.5 186.1 C 107 186.1 106 186.8 106 187.9 C 106 189.4 107.3 189.6 109 189.9 C 111.1 190.2 113.3 190.5 113.3 193 Z M 115.1 194 L 117.2 194 L 117.2 196.2 L 115.1 196.2 L 115.1 194 Z " stroke="none" fill="#000"/>  </g>  <g id="Polygon11472">    <path d="M 10.8 163.3 C 10.84 163.25 10.8 171 10.8 171 L 9.3 171 C 9.3 171 9.3 163.44 9.3 163.4 C 9.3 161.9 8.4 160.9 6.8 160.9 C 4.9 160.9 3.2 162.3 3.2 165.1 C 3.21 165.06 3.2 171 3.2 171 L 1.7 171 L 1.7 159.7 L 3.2 159.7 C 3.2 159.7 3.21 161.8 3.2 161.8 C 3.9 160.5 5.1 159.5 7.1 159.5 C 9.4 159.5 10.8 160.8 10.8 163.3 Z M 13.4 165.4 C 13.4 161.7 15.6 159.5 18.7 159.5 C 21.8 159.5 24 161.7 24 165.4 C 24 169 21.8 171.2 18.7 171.2 C 15.6 171.2 13.4 169 13.4 165.4 Z M 22.5 165.3 C 22.5 162.5 20.8 160.9 18.7 160.9 C 16.5 160.9 14.9 162.6 14.9 165.4 C 14.9 168.2 16.6 169.8 18.7 169.8 C 20.9 169.8 22.5 168.1 22.5 165.3 Z M 34.1 171 C 34.1 171 34.08 168.84 34.1 168.8 C 33.3 170.4 31.9 171.1 30.3 171.1 C 28.2 171.1 26.6 169.8 26.6 167.2 C 26.56 167.16 26.6 159.7 26.6 159.7 L 28.1 159.7 C 28.1 159.7 28.1 166.97 28.1 167 C 28.1 168.8 29.1 169.8 30.6 169.8 C 32.4 169.8 34 168.4 34 165.5 C 34.02 165.54 34 159.7 34 159.7 L 35.6 159.7 L 35.6 171 L 34.1 171 Z M 43.4 171 L 41.7 171 L 37.5 159.7 L 39.2 159.7 L 42.6 169.4 L 46 159.7 L 47.6 159.7 L 43.4 171 Z M 50.1 165.7 C 50.2 168.5 51.9 169.8 53.9 169.8 C 55.4 169.8 56.9 169.1 57.2 167.5 C 57.2 167.5 58.7 167.5 58.7 167.5 C 58.1 170.1 56 171.2 53.8 171.2 C 51.1 171.2 48.6 169.4 48.6 165.4 C 48.6 161.3 51.2 159.5 53.9 159.5 C 56.6 159.5 58.7 161.2 58.7 165 C 58.74 164.95 58.7 165.7 58.7 165.7 C 58.7 165.7 50.15 165.71 50.1 165.7 Z M 50.2 164.4 C 50.2 164.4 57.2 164.4 57.2 164.4 C 57.2 162.1 55.7 160.9 53.8 160.9 C 52.1 160.9 50.4 162 50.2 164.4 Z M 62.9 171 L 61.4 171 L 61.4 155 L 62.9 155 L 62.9 171 Z M 67.8 171 L 66.3 171 L 66.3 155 L 67.8 155 L 67.8 171 Z M 71.9 165.7 C 72 168.5 73.7 169.8 75.7 169.8 C 77.2 169.8 78.6 169.1 79 167.5 C 79 167.5 80.4 167.5 80.4 167.5 C 79.9 170.1 77.7 171.2 75.6 171.2 C 72.9 171.2 70.4 169.4 70.4 165.4 C 70.4 161.3 73 159.5 75.7 159.5 C 78.3 159.5 80.5 161.2 80.5 165 C 80.51 164.95 80.5 165.7 80.5 165.7 C 80.5 165.7 71.92 165.71 71.9 165.7 Z M 72 164.4 C 72 164.4 79 164.4 79 164.4 C 79 162.1 77.5 160.9 75.6 160.9 C 73.8 160.9 72.2 162 72 164.4 Z M 91.5 167.8 C 91.5 170.1 89.4 171.2 87.2 171.2 C 84.8 171.2 82.5 170 82.3 167.5 C 82.3 167.5 83.9 167.5 83.9 167.5 C 84.2 169.2 85.7 169.8 87.2 169.8 C 88.6 169.8 89.9 169.3 89.9 168 C 89.9 166.7 88.6 166.4 87.3 166.2 C 85.1 165.8 82.6 165.4 82.6 162.8 C 82.6 160.6 84.5 159.5 86.8 159.5 C 89.2 159.5 91.1 160.6 91.2 162.9 C 91.2 162.9 89.6 162.9 89.6 162.9 C 89.5 161.5 88.2 160.9 86.7 160.9 C 85.2 160.9 84.2 161.6 84.2 162.7 C 84.2 164.2 85.5 164.4 87.2 164.7 C 89.3 165 91.5 165.3 91.5 167.8 Z M 98.1 165.4 C 98.1 161.7 100.4 159.5 103.5 159.5 C 106.6 159.5 108.8 161.7 108.8 165.4 C 108.8 169 106.6 171.2 103.5 171.2 C 100.4 171.2 98.1 169 98.1 165.4 Z M 107.2 165.3 C 107.2 162.5 105.5 160.9 103.4 160.9 C 101.2 160.9 99.7 162.6 99.7 165.4 C 99.7 168.2 101.4 169.8 103.5 169.8 C 105.7 169.8 107.2 168.1 107.2 165.3 Z M 122 165.3 C 122 169.4 119.4 171.1 116.8 171.1 C 114.9 171.1 113.6 170.2 113 169 C 112.98 169.03 113 175.3 113 175.3 L 111.4 175.3 L 111.4 159.7 L 112.9 159.7 C 112.9 159.7 112.94 162.08 112.9 162.1 C 113.4 160.7 114.9 159.5 117 159.5 C 119.4 159.5 122 161.2 122 165.3 Z M 120.4 165.3 C 120.4 162.2 118.6 161 116.7 161 C 114.9 161 113 162.2 113 165.4 C 113 168.5 114.8 169.7 116.7 169.7 C 118.6 169.7 120.4 168.5 120.4 165.3 Z M 135.1 165.3 C 135.1 169.4 132.5 171.1 129.9 171.1 C 128 171.1 126.8 170.2 126.1 169 C 126.12 169.03 126.1 175.3 126.1 175.3 L 124.6 175.3 L 124.6 159.7 L 126.1 159.7 C 126.1 159.7 126.08 162.08 126.1 162.1 C 126.6 160.7 128.1 159.5 130.1 159.5 C 132.6 159.5 135.1 161.2 135.1 165.3 Z M 133.5 165.3 C 133.5 162.2 131.8 161 129.9 161 C 128 161 126.1 162.2 126.1 165.4 C 126.1 168.5 128 169.7 129.8 169.7 C 131.7 169.7 133.5 168.5 133.5 165.3 Z M 137 165.4 C 137 161.7 139.2 159.5 142.3 159.5 C 145.4 159.5 147.7 161.7 147.7 165.4 C 147.7 169 145.5 171.2 142.4 171.2 C 139.2 171.2 137 169 137 165.4 Z M 146.1 165.3 C 146.1 162.5 144.4 160.9 142.3 160.9 C 140.1 160.9 138.6 162.6 138.6 165.4 C 138.6 168.2 140.3 169.8 142.4 169.8 C 144.6 169.8 146.1 168.1 146.1 165.3 Z M 155.9 161 C 155.9 161 155.59 161.03 155.6 161 C 153.2 161 151.8 162.4 151.8 165 C 151.85 165 151.8 171 151.8 171 L 150.3 171 L 150.3 159.7 L 151.8 159.7 C 151.8 159.7 151.83 161.78 151.8 161.8 C 152.4 160.3 153.7 159.6 155.5 159.6 C 155.46 159.58 155.9 159.6 155.9 159.6 L 155.9 161 Z M 163.5 171 C 163.5 171 161.85 170.98 161.8 171 C 160.4 171 159 170.5 159 168 C 159.01 168.02 159 161.1 159 161.1 L 156.8 161.1 L 156.8 159.7 L 159 159.7 L 159 156.5 L 160.5 156.1 L 160.5 159.7 L 163.3 159.7 L 163.3 161.1 L 160.5 161.1 C 160.5 161.1 160.54 168 160.5 168 C 160.5 169 160.8 169.6 162.1 169.6 C 162.1 169.6 163.5 169.6 163.5 169.6 L 163.5 171 Z M 173.1 171 C 173.1 171 173.12 168.84 173.1 168.8 C 172.3 170.4 171 171.1 169.4 171.1 C 167.2 171.1 165.6 169.8 165.6 167.2 C 165.6 167.16 165.6 159.7 165.6 159.7 L 167.1 159.7 C 167.1 159.7 167.14 166.97 167.1 167 C 167.1 168.8 168.1 169.8 169.6 169.8 C 171.4 169.8 173.1 168.4 173.1 165.5 C 173.06 165.54 173.1 159.7 173.1 159.7 L 174.6 159.7 L 174.6 171 L 173.1 171 Z M 187.1 163.3 C 187.11 163.25 187.1 171 187.1 171 L 185.6 171 C 185.6 171 185.58 163.44 185.6 163.4 C 185.6 161.9 184.7 160.9 183.1 160.9 C 181.2 160.9 179.5 162.3 179.5 165.1 C 179.49 165.06 179.5 171 179.5 171 L 178 171 L 178 159.7 L 179.5 159.7 C 179.5 159.7 179.49 161.8 179.5 161.8 C 180.2 160.5 181.4 159.5 183.4 159.5 C 185.6 159.5 187.1 160.8 187.1 163.3 Z M 192 155 L 190.3 155 L 190.3 156.9 L 192 156.9 L 192 155 Z M 191.9 171 L 190.4 171 L 190.4 159.7 L 191.9 159.7 L 191.9 171 Z M 200.4 171 C 200.4 171 198.74 170.98 198.7 171 C 197.3 171 195.9 170.5 195.9 168 C 195.91 168.02 195.9 161.1 195.9 161.1 L 193.7 161.1 L 193.7 159.7 L 195.9 159.7 L 195.9 156.5 L 197.4 156.1 L 197.4 159.7 L 200.2 159.7 L 200.2 161.1 L 197.4 161.1 C 197.4 161.1 197.44 168 197.4 168 C 197.4 169 197.7 169.6 199 169.6 C 198.99 169.6 200.4 169.6 200.4 169.6 L 200.4 171 Z M 207.8 157.4 L 206.5 157.4 L 209 153.6 L 210.3 154.6 L 207.8 157.4 Z M 203.4 165.7 C 203.4 168.5 205.1 169.8 207.1 169.8 C 208.6 169.8 210.1 169.1 210.4 167.5 C 210.4 167.5 211.9 167.5 211.9 167.5 C 211.4 170.1 209.2 171.2 207.1 171.2 C 204.4 171.2 201.9 169.4 201.9 165.4 C 201.9 161.3 204.4 159.5 207.1 159.5 C 209.8 159.5 212 161.2 212 165 C 211.97 164.95 212 165.7 212 165.7 C 212 165.7 203.38 165.71 203.4 165.7 Z M 203.4 164.4 C 203.4 164.4 210.4 164.4 210.4 164.4 C 210.4 162.1 208.9 160.9 207.1 160.9 C 205.3 160.9 203.6 162 203.4 164.4 Z M 223 167.8 C 223 170.1 220.9 171.2 218.6 171.2 C 216.2 171.2 214 170 213.8 167.5 C 213.8 167.5 215.4 167.5 215.4 167.5 C 215.6 169.2 217.1 169.8 218.6 169.8 C 220.1 169.8 221.4 169.3 221.4 168 C 221.4 166.7 220.1 166.4 218.8 166.2 C 216.6 165.8 214 165.4 214 162.8 C 214 160.6 216 159.5 218.3 159.5 C 220.7 159.5 222.6 160.6 222.7 162.9 C 222.7 162.9 221.1 162.9 221.1 162.9 C 221 161.5 219.7 160.9 218.2 160.9 C 216.7 160.9 215.6 161.6 215.6 162.7 C 215.6 164.2 217 164.4 218.7 164.7 C 220.7 165 223 165.3 223 167.8 Z M 241.3 165.3 C 241.3 169.4 238.7 171.1 236.1 171.1 C 234.2 171.1 232.9 170.2 232.3 169 C 232.28 169.03 232.3 175.3 232.3 175.3 L 230.7 175.3 L 230.7 159.7 L 232.2 159.7 C 232.2 159.7 232.24 162.08 232.2 162.1 C 232.7 160.7 234.2 159.5 236.3 159.5 C 238.7 159.5 241.3 161.2 241.3 165.3 Z M 239.7 165.3 C 239.7 162.2 237.9 161 236 161 C 234.2 161 232.3 162.2 232.3 165.4 C 232.3 168.5 234.1 169.7 236 169.7 C 237.9 169.7 239.7 168.5 239.7 165.3 Z M 243.2 165.4 C 243.2 161.7 245.4 159.5 248.5 159.5 C 251.6 159.5 253.8 161.7 253.8 165.4 C 253.8 169 251.6 171.2 248.5 171.2 C 245.4 171.2 243.2 169 243.2 165.4 Z M 252.3 165.3 C 252.3 162.5 250.6 160.9 248.5 160.9 C 246.3 160.9 244.7 162.6 244.7 165.4 C 244.7 168.2 246.4 169.8 248.5 169.8 C 250.7 169.8 252.3 168.1 252.3 165.3 Z M 263.9 171 C 263.9 171 263.88 168.84 263.9 168.8 C 263.1 170.4 261.7 171.1 260.1 171.1 C 258 171.1 256.4 169.8 256.4 167.2 C 256.37 167.16 256.4 159.7 256.4 159.7 L 257.9 159.7 C 257.9 159.7 257.9 166.97 257.9 167 C 257.9 168.8 258.9 169.8 260.4 169.8 C 262.2 169.8 263.8 168.4 263.8 165.5 C 263.82 165.54 263.8 159.7 263.8 159.7 L 265.4 159.7 L 265.4 171 L 263.9 171 Z M 274.3 161 C 274.3 161 273.98 161.03 274 161 C 271.6 161 270.2 162.4 270.2 165 C 270.25 165 270.2 171 270.2 171 L 268.7 171 L 268.7 159.7 L 270.2 159.7 C 270.2 159.7 270.22 161.78 270.2 161.8 C 270.7 160.3 272.1 159.6 273.9 159.6 C 273.86 159.58 274.3 159.6 274.3 159.6 L 274.3 161 Z M 282.9 171 L 281.4 171 L 281.4 155 L 282.9 155 L 282.9 171 Z M 287 165.7 C 287.1 168.5 288.8 169.8 290.8 169.8 C 292.3 169.8 293.8 169.1 294.1 167.5 C 294.1 167.5 295.6 167.5 295.6 167.5 C 295 170.1 292.9 171.2 290.7 171.2 C 288 171.2 285.5 169.4 285.5 165.4 C 285.5 161.3 288.1 159.5 290.8 159.5 C 293.5 159.5 295.6 161.2 295.6 165 C 295.63 164.95 295.6 165.7 295.6 165.7 C 295.6 165.7 287.05 165.71 287 165.7 Z M 287.1 164.4 C 287.1 164.4 294.1 164.4 294.1 164.4 C 294.1 162.1 292.6 160.9 290.7 160.9 C 289 160.9 287.3 162 287.1 164.4 Z M 306.6 167.8 C 306.6 170.1 304.6 171.2 302.3 171.2 C 299.9 171.2 297.7 170 297.4 167.5 C 297.4 167.5 299.1 167.5 299.1 167.5 C 299.3 169.2 300.8 169.8 302.3 169.8 C 303.8 169.8 305 169.3 305 168 C 305 166.7 303.7 166.4 302.4 166.2 C 300.3 165.8 297.7 165.4 297.7 162.8 C 297.7 160.6 299.6 159.5 301.9 159.5 C 304.3 159.5 306.2 160.6 306.3 162.9 C 306.3 162.9 304.7 162.9 304.7 162.9 C 304.6 161.5 303.3 160.9 301.9 160.9 C 300.3 160.9 299.3 161.6 299.3 162.7 C 299.3 164.2 300.7 164.4 302.4 164.7 C 304.4 165 306.6 165.3 306.6 167.8 Z M 316 155 L 314.3 155 L 314.3 156.9 L 316 156.9 L 316 155 Z M 315.9 171 L 314.4 171 L 314.4 159.7 L 315.9 159.7 L 315.9 171 Z M 328.5 163.3 C 328.46 163.25 328.5 171 328.5 171 L 326.9 171 C 326.9 171 326.92 163.44 326.9 163.4 C 326.9 161.9 326 160.9 324.4 160.9 C 322.5 160.9 320.8 162.3 320.8 165.1 C 320.83 165.06 320.8 171 320.8 171 L 319.3 171 L 319.3 159.7 L 320.8 159.7 C 320.8 159.7 320.83 161.8 320.8 161.8 C 321.5 160.5 322.8 159.5 324.7 159.5 C 327 159.5 328.5 160.8 328.5 163.3 Z M 336.2 171 L 334.5 171 L 330.3 159.7 L 332 159.7 L 335.4 169.4 L 338.8 159.7 L 340.4 159.7 L 336.2 171 Z M 342.9 165.7 C 343 168.5 344.7 169.8 346.7 169.8 C 348.2 169.8 349.7 169.1 350 167.5 C 350 167.5 351.5 167.5 351.5 167.5 C 350.9 170.1 348.8 171.2 346.6 171.2 C 343.9 171.2 341.4 169.4 341.4 165.4 C 341.4 161.3 344 159.5 346.7 159.5 C 349.4 159.5 351.5 161.2 351.5 165 C 351.54 164.95 351.5 165.7 351.5 165.7 C 351.5 165.7 342.95 165.71 342.9 165.7 Z M 343 164.4 C 343 164.4 350 164.4 350 164.4 C 350 162.1 348.5 160.9 346.6 160.9 C 344.9 160.9 343.2 162 343 164.4 Z M 362.5 167.8 C 362.5 170.1 360.5 171.2 358.2 171.2 C 355.8 171.2 353.6 170 353.3 167.5 C 353.3 167.5 355 167.5 355 167.5 C 355.2 169.2 356.7 169.8 358.2 169.8 C 359.7 169.8 360.9 169.3 360.9 168 C 360.9 166.7 359.6 166.4 358.3 166.2 C 356.2 165.8 353.6 165.4 353.6 162.8 C 353.6 160.6 355.5 159.5 357.8 159.5 C 360.2 159.5 362.1 160.6 362.2 162.9 C 362.2 162.9 360.6 162.9 360.6 162.9 C 360.5 161.5 359.2 160.9 357.8 160.9 C 356.2 160.9 355.2 161.6 355.2 162.7 C 355.2 164.2 356.6 164.4 358.3 164.7 C 360.3 165 362.5 165.3 362.5 167.8 Z M 370.2 171 C 370.2 171 368.55 170.98 368.5 171 C 367.1 171 365.7 170.5 365.7 168 C 365.71 168.02 365.7 161.1 365.7 161.1 L 363.5 161.1 L 363.5 159.7 L 365.7 159.7 L 365.7 156.5 L 367.2 156.1 L 367.2 159.7 L 370 159.7 L 370 161.1 L 367.2 161.1 C 367.2 161.1 367.24 168 367.2 168 C 367.2 169 367.5 169.6 368.8 169.6 C 368.8 169.6 370.2 169.6 370.2 169.6 L 370.2 171 Z M 374 155 L 372.3 155 L 372.3 156.9 L 374 156.9 L 374 155 Z M 373.9 171 L 372.4 171 L 372.4 159.7 L 373.9 159.7 L 373.9 171 Z M 385.7 167.8 C 385.7 170.1 383.6 171.2 381.3 171.2 C 378.9 171.2 376.7 170 376.5 167.5 C 376.5 167.5 378.1 167.5 378.1 167.5 C 378.4 169.2 379.8 169.8 381.4 169.8 C 382.8 169.8 384.1 169.3 384.1 168 C 384.1 166.7 382.8 166.4 381.5 166.2 C 379.3 165.8 376.7 165.4 376.7 162.8 C 376.7 160.6 378.7 159.5 381 159.5 C 383.4 159.5 385.3 160.6 385.4 162.9 C 385.4 162.9 383.8 162.9 383.8 162.9 C 383.7 161.5 382.4 160.9 380.9 160.9 C 379.4 160.9 378.3 161.6 378.3 162.7 C 378.3 164.2 379.7 164.4 381.4 164.7 C 383.4 165 385.7 165.3 385.7 167.8 Z M 396.6 167.8 C 396.6 170.1 394.5 171.2 392.2 171.2 C 389.8 171.2 387.6 170 387.4 167.5 C 387.4 167.5 389 167.5 389 167.5 C 389.3 169.2 390.7 169.8 392.3 169.8 C 393.7 169.8 395 169.3 395 168 C 395 166.7 393.7 166.4 392.4 166.2 C 390.2 165.8 387.6 165.4 387.6 162.8 C 387.6 160.6 389.6 159.5 391.9 159.5 C 394.3 159.5 396.2 160.6 396.3 162.9 C 396.3 162.9 394.7 162.9 394.7 162.9 C 394.6 161.5 393.3 160.9 391.8 160.9 C 390.3 160.9 389.2 161.6 389.2 162.7 C 389.2 164.2 390.6 164.4 392.3 164.7 C 394.3 165 396.6 165.3 396.6 167.8 Z M 399.9 165.7 C 399.9 168.5 401.6 169.8 403.6 169.8 C 405.1 169.8 406.6 169.1 406.9 167.5 C 406.9 167.5 408.4 167.5 408.4 167.5 C 407.9 170.1 405.7 171.2 403.6 171.2 C 400.9 171.2 398.4 169.4 398.4 165.4 C 398.4 161.3 400.9 159.5 403.6 159.5 C 406.3 159.5 408.5 161.2 408.5 165 C 408.47 164.95 408.5 165.7 408.5 165.7 C 408.5 165.7 399.88 165.71 399.9 165.7 Z M 399.9 164.4 C 399.9 164.4 406.9 164.4 406.9 164.4 C 406.9 162.1 405.4 160.9 403.6 160.9 C 401.8 160.9 400.1 162 399.9 164.4 Z M 418.5 171 C 418.5 171 418.5 168.84 418.5 168.8 C 417.7 170.4 416.3 171.1 414.7 171.1 C 412.6 171.1 411 169.8 411 167.2 C 410.99 167.16 411 159.7 411 159.7 L 412.5 159.7 C 412.5 159.7 412.52 166.97 412.5 167 C 412.5 168.8 413.5 169.8 415 169.8 C 416.8 169.8 418.4 168.4 418.4 165.5 C 418.44 165.54 418.4 159.7 418.4 159.7 L 420 159.7 L 420 171 L 418.5 171 Z M 429 161 C 429 161 428.6 161.03 428.6 161 C 426.2 161 424.9 162.4 424.9 165 C 424.87 165 424.9 171 424.9 171 L 423.3 171 L 423.3 159.7 L 424.8 159.7 C 424.8 159.7 424.85 161.78 424.8 161.8 C 425.4 160.3 426.7 159.6 428.5 159.6 C 428.48 159.58 429 159.6 429 159.6 L 429 161 Z M 439.3 167.8 C 439.3 170.1 437.3 171.2 435 171.2 C 432.6 171.2 430.3 170 430.1 167.5 C 430.1 167.5 431.8 167.5 431.8 167.5 C 432 169.2 433.5 169.8 435 169.8 C 436.5 169.8 437.7 169.3 437.7 168 C 437.7 166.7 436.4 166.4 435.1 166.2 C 433 165.8 430.4 165.4 430.4 162.8 C 430.4 160.6 432.3 159.5 434.6 159.5 C 437 159.5 438.9 160.6 439 162.9 C 439 162.9 437.4 162.9 437.4 162.9 C 437.3 161.5 436 160.9 434.6 160.9 C 433 160.9 432 161.6 432 162.7 C 432 164.2 433.4 164.4 435.1 164.7 C 437.1 165 439.3 165.3 439.3 167.8 Z " stroke="none" fill="#000"/>  </g>  <g id="Polygon11471">    <path d="M 6.2 146 C 3.1 146 0.9 143.7 0.9 140.2 C 0.9 136.6 3 134.3 6.3 134.3 C 8.8 134.3 10.8 135.7 11 138.2 C 11 138.2 9.5 138.2 9.5 138.2 C 9.3 136.6 7.9 135.7 6.3 135.7 C 4.1 135.7 2.5 137.4 2.5 140.1 C 2.5 142.9 4.1 144.6 6.3 144.6 C 8 144.6 9.3 143.6 9.4 141.8 C 9.4 141.8 11 141.8 11 141.8 C 10.8 144.5 8.7 146 6.2 146 Z M 14.4 140.5 C 14.4 143.3 16.1 144.6 18.1 144.6 C 19.6 144.6 21.1 143.9 21.4 142.3 C 21.4 142.3 22.9 142.3 22.9 142.3 C 22.4 144.9 20.2 146 18 146 C 15.4 146 12.9 144.2 12.9 140.2 C 12.9 136.1 15.4 134.3 18.1 134.3 C 20.8 134.3 23 136 23 139.8 C 22.95 139.75 23 140.5 23 140.5 C 23 140.5 14.36 140.51 14.4 140.5 Z M 14.4 139.2 C 14.4 139.2 21.4 139.2 21.4 139.2 C 21.4 136.9 19.9 135.7 18 135.7 C 16.3 135.7 14.6 136.8 14.4 139.2 Z M 34 142.6 C 34 144.9 31.9 146 29.6 146 C 27.2 146 25 144.8 24.7 142.3 C 24.7 142.3 26.4 142.3 26.4 142.3 C 26.6 144 28.1 144.6 29.6 144.6 C 31.1 144.6 32.4 144.1 32.4 142.8 C 32.4 141.5 31.1 141.2 29.7 141 C 27.6 140.6 25 140.2 25 137.6 C 25 135.4 26.9 134.3 29.3 134.3 C 31.6 134.3 33.5 135.4 33.7 137.7 C 33.7 137.7 32.1 137.7 32.1 137.7 C 32 136.3 30.7 135.7 29.2 135.7 C 27.7 135.7 26.6 136.4 26.6 137.5 C 26.6 139 28 139.2 29.7 139.5 C 31.7 139.8 34 140.1 34 142.6 Z M 45.8 146 C 42.7 146 40.6 143.7 40.6 140.2 C 40.6 136.6 42.7 134.3 45.9 134.3 C 48.4 134.3 50.4 135.7 50.6 138.2 C 50.6 138.2 49.1 138.2 49.1 138.2 C 48.9 136.6 47.5 135.7 45.9 135.7 C 43.7 135.7 42.1 137.4 42.1 140.1 C 42.1 142.9 43.7 144.6 45.9 144.6 C 47.6 144.6 49 143.6 49.1 141.8 C 49.1 141.8 50.6 141.8 50.6 141.8 C 50.4 144.5 48.3 146 45.8 146 Z M 62.4 138.1 C 62.37 138.05 62.4 145.8 62.4 145.8 L 60.8 145.8 C 60.8 145.8 60.84 138.24 60.8 138.2 C 60.8 136.7 60 135.7 58.4 135.7 C 56.4 135.7 54.7 137.1 54.7 139.9 C 54.75 139.86 54.7 145.8 54.7 145.8 L 53.2 145.8 L 53.2 129.8 L 54.7 129.8 C 54.7 129.8 54.75 136.48 54.7 136.5 C 55.4 135.2 56.6 134.3 58.6 134.3 C 60.9 134.3 62.4 135.6 62.4 138.1 Z M 72.6 143.7 C 71.7 145.4 70 146 68.5 146 C 66.6 146 64.9 144.9 64.9 142.7 C 64.9 140.6 66.4 139.6 68.3 139.4 C 68.3 139.4 71 139 71 139 C 71.8 138.9 72.6 138.6 72.6 137.6 C 72.6 136.3 71.4 135.6 69.8 135.6 C 68.1 135.6 67.1 136.4 66.9 137.7 C 66.9 137.7 65.3 137.7 65.3 137.7 C 65.6 135.4 67.5 134.3 69.9 134.3 C 72.5 134.3 74 135.5 74 138 C 74.05 137.99 74 145.8 74 145.8 L 72.6 145.8 C 72.6 145.8 72.55 143.72 72.6 143.7 Z M 70.7 140.3 C 70.7 140.3 69 140.5 69 140.5 C 67.5 140.7 66.5 141.2 66.5 142.6 C 66.5 144 67.6 144.6 68.8 144.6 C 70.6 144.6 72.5 143.3 72.5 140.9 C 72.5 140.9 72.5 139.8 72.5 139.8 C 72.1 140.1 71.4 140.2 70.7 140.3 Z M 86.4 138.1 C 86.35 138.05 86.4 145.8 86.4 145.8 L 84.8 145.8 C 84.8 145.8 84.82 138.24 84.8 138.2 C 84.8 136.7 83.9 135.7 82.3 135.7 C 80.4 135.7 78.7 137.1 78.7 139.9 C 78.73 139.86 78.7 145.8 78.7 145.8 L 77.2 145.8 L 77.2 134.5 L 78.7 134.5 C 78.7 134.5 78.73 136.6 78.7 136.6 C 79.4 135.3 80.7 134.3 82.6 134.3 C 84.9 134.3 86.4 135.6 86.4 138.1 Z M 99.3 145.3 C 99.3 148.7 97.1 150.4 94.2 150.4 C 91.7 150.4 89.5 149.1 89.1 146.5 C 89.1 146.5 90.7 146.5 90.7 146.5 C 90.9 147.9 92 149.1 94.2 149.1 C 96.3 149.1 97.8 148 97.8 145.4 C 97.8 145.4 97.8 143.1 97.8 143.1 C 97 144.8 95.3 145.4 93.8 145.4 C 91.1 145.4 88.9 143.5 88.9 139.8 C 88.9 136.1 91.2 134.3 93.9 134.3 C 95.7 134.3 97.1 135.1 97.8 136.3 C 97.8 136.33 97.8 134.5 97.8 134.5 L 99.3 134.5 C 99.3 134.5 99.31 145.28 99.3 145.3 Z M 97.7 139.8 C 97.7 137 96 135.6 94.1 135.6 C 92.2 135.6 90.4 137 90.4 139.8 C 90.4 142.6 92.1 144 94.1 144 C 95.9 144 97.7 142.8 97.7 139.8 Z M 103.3 140.5 C 103.4 143.3 105.1 144.6 107.1 144.6 C 108.6 144.6 110.1 143.9 110.4 142.3 C 110.4 142.3 111.8 142.3 111.8 142.3 C 111.3 144.9 109.2 146 107 146 C 104.3 146 101.8 144.2 101.8 140.2 C 101.8 136.1 104.4 134.3 107.1 134.3 C 109.7 134.3 111.9 136 111.9 139.8 C 111.93 139.75 111.9 140.5 111.9 140.5 C 111.9 140.5 103.34 140.51 103.3 140.5 Z M 103.4 139.2 C 103.4 139.2 110.4 139.2 110.4 139.2 C 110.4 136.9 108.9 135.7 107 135.7 C 105.3 135.7 103.6 136.8 103.4 139.2 Z M 114.6 134.5 L 116.1 134.5 C 116.1 134.5 116.07 136.37 116.1 136.4 C 116.7 135 117.9 134.3 119.3 134.3 C 121 134.3 122.3 135.2 122.7 136.6 C 123.2 135.4 124.4 134.3 126.4 134.3 C 128.4 134.3 130 135.4 130 137.7 C 130.03 137.7 130 145.8 130 145.8 L 128.5 145.8 C 128.5 145.8 128.5 138.24 128.5 138.2 C 128.5 136.5 127.4 135.7 126.1 135.7 C 124.4 135.7 123 137 123 139.3 C 123.04 139.33 123 145.8 123 145.8 L 121.5 145.8 C 121.5 145.8 121.53 138.24 121.5 138.2 C 121.5 136.5 120.5 135.7 119.2 135.7 C 117.5 135.7 116.1 136.9 116.1 139.3 C 116.09 139.33 116.1 145.8 116.1 145.8 L 114.6 145.8 L 114.6 134.5 Z M 134.1 140.5 C 134.1 143.3 135.8 144.6 137.8 144.6 C 139.3 144.6 140.8 143.9 141.1 142.3 C 141.1 142.3 142.6 142.3 142.6 142.3 C 142.1 144.9 139.9 146 137.7 146 C 135 146 132.6 144.2 132.6 140.2 C 132.6 136.1 135.1 134.3 137.8 134.3 C 140.5 134.3 142.7 136 142.7 139.8 C 142.65 139.75 142.7 140.5 142.7 140.5 C 142.7 140.5 134.06 140.51 134.1 140.5 Z M 134.1 139.2 C 134.1 139.2 141.1 139.2 141.1 139.2 C 141.1 136.9 139.6 135.7 137.7 135.7 C 136 135.7 134.3 136.8 134.1 139.2 Z M 154.4 138.1 C 154.43 138.05 154.4 145.8 154.4 145.8 L 152.9 145.8 C 152.9 145.8 152.9 138.24 152.9 138.2 C 152.9 136.7 152 135.7 150.4 135.7 C 148.5 135.7 146.8 137.1 146.8 139.9 C 146.81 139.86 146.8 145.8 146.8 145.8 L 145.3 145.8 L 145.3 134.5 L 146.8 134.5 C 146.8 134.5 146.81 136.6 146.8 136.6 C 147.5 135.3 148.7 134.3 150.7 134.3 C 153 134.3 154.4 135.6 154.4 138.1 Z M 162.8 145.8 C 162.8 145.8 161.17 145.78 161.2 145.8 C 159.7 145.8 158.3 145.3 158.3 142.8 C 158.34 142.82 158.3 135.9 158.3 135.9 L 156.1 135.9 L 156.1 134.5 L 158.3 134.5 L 158.3 131.3 L 159.9 130.9 L 159.9 134.5 L 162.6 134.5 L 162.6 135.9 L 159.9 135.9 C 159.9 135.9 159.87 142.8 159.9 142.8 C 159.9 143.8 160.2 144.4 161.4 144.4 C 161.43 144.4 162.8 144.4 162.8 144.4 L 162.8 145.8 Z M 173.4 142.6 C 173.4 144.9 171.3 146 169.1 146 C 166.7 146 164.4 144.8 164.2 142.3 C 164.2 142.3 165.8 142.3 165.8 142.3 C 166.1 144 167.6 144.6 169.1 144.6 C 170.5 144.6 171.8 144.1 171.8 142.8 C 171.8 141.5 170.5 141.2 169.2 141 C 167 140.6 164.5 140.2 164.5 137.6 C 164.5 135.4 166.4 134.3 168.7 134.3 C 171.1 134.3 173 135.4 173.1 137.7 C 173.1 137.7 171.5 137.7 171.5 137.7 C 171.4 136.3 170.1 135.7 168.6 135.7 C 167.1 135.7 166.1 136.4 166.1 137.5 C 166.1 139 167.4 139.2 169.1 139.5 C 171.2 139.8 173.4 140.1 173.4 142.6 Z M 191.7 140.1 C 191.7 144.2 189.1 145.9 186.5 145.9 C 184.6 145.9 183.3 145 182.7 143.8 C 182.72 143.83 182.7 150.1 182.7 150.1 L 181.2 150.1 L 181.2 134.5 L 182.7 134.5 C 182.7 134.5 182.68 136.88 182.7 136.9 C 183.2 135.5 184.7 134.3 186.7 134.3 C 189.1 134.3 191.7 136 191.7 140.1 Z M 190.1 140.1 C 190.1 137 188.3 135.8 186.5 135.8 C 184.6 135.8 182.7 137 182.7 140.2 C 182.7 143.3 184.6 144.5 186.4 144.5 C 188.3 144.5 190.1 143.3 190.1 140.1 Z M 193.6 140.2 C 193.6 136.5 195.8 134.3 198.9 134.3 C 202 134.3 204.3 136.5 204.3 140.2 C 204.3 143.8 202.1 146 199 146 C 195.8 146 193.6 143.8 193.6 140.2 Z M 202.7 140.1 C 202.7 137.3 201 135.7 198.9 135.7 C 196.7 135.7 195.2 137.4 195.2 140.2 C 195.2 143 196.9 144.6 199 144.6 C 201.2 144.6 202.7 142.9 202.7 140.1 Z M 214.3 145.8 C 214.3 145.8 214.32 143.64 214.3 143.6 C 213.5 145.2 212.2 145.9 210.6 145.9 C 208.4 145.9 206.8 144.6 206.8 142 C 206.81 141.96 206.8 134.5 206.8 134.5 L 208.3 134.5 C 208.3 134.5 208.34 141.77 208.3 141.8 C 208.3 143.6 209.3 144.6 210.8 144.6 C 212.6 144.6 214.3 143.2 214.3 140.3 C 214.26 140.34 214.3 134.5 214.3 134.5 L 215.8 134.5 L 215.8 145.8 L 214.3 145.8 Z M 224.8 135.8 C 224.8 135.8 224.42 135.83 224.4 135.8 C 222 135.8 220.7 137.2 220.7 139.8 C 220.69 139.8 220.7 145.8 220.7 145.8 L 219.2 145.8 L 219.2 134.5 L 220.7 134.5 C 220.7 134.5 220.67 136.58 220.7 136.6 C 221.2 135.1 222.6 134.4 224.3 134.4 C 224.3 134.38 224.8 134.4 224.8 134.4 L 224.8 135.8 Z M 232.4 135.8 C 232.4 135.8 232.05 135.83 232 135.8 C 229.7 135.8 228.3 137.2 228.3 139.8 C 228.31 139.8 228.3 145.8 228.3 145.8 L 226.8 145.8 L 226.8 134.5 L 228.3 134.5 C 228.3 134.5 228.29 136.58 228.3 136.6 C 228.8 135.1 230.2 134.4 231.9 134.4 C 231.92 134.38 232.4 134.4 232.4 134.4 L 232.4 135.8 Z M 241.3 143.7 C 240.4 145.4 238.7 146 237.3 146 C 235.4 146 233.7 144.9 233.7 142.7 C 233.7 140.6 235.2 139.6 237.1 139.4 C 237.1 139.4 239.8 139 239.8 139 C 240.6 138.9 241.3 138.6 241.3 137.6 C 241.3 136.3 240.2 135.6 238.6 135.6 C 236.9 135.6 235.9 136.4 235.6 137.7 C 235.6 137.7 234.1 137.7 234.1 137.7 C 234.4 135.4 236.2 134.3 238.7 134.3 C 241.3 134.3 242.8 135.5 242.8 138 C 242.82 137.99 242.8 145.8 242.8 145.8 L 241.3 145.8 C 241.3 145.8 241.33 143.72 241.3 143.7 Z M 239.5 140.3 C 239.5 140.3 237.7 140.5 237.7 140.5 C 236.3 140.7 235.2 141.2 235.2 142.6 C 235.2 144 236.3 144.6 237.6 144.6 C 239.3 144.6 241.3 143.3 241.3 140.9 C 241.3 140.9 241.3 139.8 241.3 139.8 C 240.9 140.1 240.2 140.2 239.5 140.3 Z M 247.6 129.8 L 245.9 129.8 L 245.9 131.7 L 247.6 131.7 L 247.6 129.8 Z M 247.5 145.8 L 246 145.8 L 246 134.5 L 247.5 134.5 L 247.5 145.8 Z M 251.6 140.5 C 251.7 143.3 253.4 144.6 255.4 144.6 C 256.9 144.6 258.4 143.9 258.7 142.3 C 258.7 142.3 260.1 142.3 260.1 142.3 C 259.6 144.9 257.5 146 255.3 146 C 252.6 146 250.1 144.2 250.1 140.2 C 250.1 136.1 252.7 134.3 255.4 134.3 C 258 134.3 260.2 136 260.2 139.8 C 260.23 139.75 260.2 140.5 260.2 140.5 C 260.2 140.5 251.64 140.51 251.6 140.5 Z M 251.7 139.2 C 251.7 139.2 258.7 139.2 258.7 139.2 C 258.7 136.9 257.2 135.7 255.3 135.7 C 253.6 135.7 251.9 136.8 251.7 139.2 Z M 272 138.1 C 272.01 138.05 272 145.8 272 145.8 L 270.5 145.8 C 270.5 145.8 270.48 138.24 270.5 138.2 C 270.5 136.7 269.6 135.7 268 135.7 C 266.1 135.7 264.4 137.1 264.4 139.9 C 264.39 139.86 264.4 145.8 264.4 145.8 L 262.9 145.8 L 262.9 134.5 L 264.4 134.5 C 264.4 134.5 264.39 136.6 264.4 136.6 C 265.1 135.3 266.3 134.3 268.3 134.3 C 270.5 134.3 272 135.6 272 138.1 Z M 280.4 145.8 C 280.4 145.8 278.75 145.78 278.8 145.8 C 277.3 145.8 275.9 145.3 275.9 142.8 C 275.92 142.82 275.9 135.9 275.9 135.9 L 273.7 135.9 L 273.7 134.5 L 275.9 134.5 L 275.9 131.3 L 277.4 130.9 L 277.4 134.5 L 280.2 134.5 L 280.2 135.9 L 277.4 135.9 C 277.4 135.9 277.45 142.8 277.4 142.8 C 277.4 143.8 277.7 144.4 279 144.4 C 279 144.4 280.4 144.4 280.4 144.4 L 280.4 145.8 Z M 286.9 140.2 C 286.9 136.5 289.1 134.3 292.3 134.3 C 295.4 134.3 297.6 136.5 297.6 140.2 C 297.6 143.8 295.4 146 292.3 146 C 289.2 146 286.9 143.8 286.9 140.2 Z M 296 140.1 C 296 137.3 294.3 135.7 292.2 135.7 C 290 135.7 288.5 137.4 288.5 140.2 C 288.5 143 290.2 144.6 292.3 144.6 C 294.5 144.6 296 142.9 296 140.1 Z M 307.6 145.8 C 307.6 145.8 307.65 143.64 307.6 143.6 C 306.9 145.2 305.5 145.9 303.9 145.9 C 301.8 145.9 300.1 144.6 300.1 142 C 300.13 141.96 300.1 134.5 300.1 134.5 L 301.7 134.5 C 301.7 134.5 301.66 141.77 301.7 141.8 C 301.7 143.6 302.7 144.6 304.2 144.6 C 306 144.6 307.6 143.2 307.6 140.3 C 307.58 140.34 307.6 134.5 307.6 134.5 L 309.1 134.5 L 309.1 145.8 L 307.6 145.8 Z M 316.9 145.8 L 315.3 145.8 L 311.1 134.5 L 312.8 134.5 L 316.2 144.2 L 319.6 134.5 L 321.1 134.5 L 316.9 145.8 Z M 328.8 135.8 C 328.8 135.8 328.42 135.83 328.4 135.8 C 326 135.8 324.7 137.2 324.7 139.8 C 324.68 139.8 324.7 145.8 324.7 145.8 L 323.1 145.8 L 323.1 134.5 L 324.7 134.5 C 324.7 134.5 324.66 136.58 324.7 136.6 C 325.2 135.1 326.5 134.4 328.3 134.4 C 328.29 134.38 328.8 134.4 328.8 134.4 L 328.8 135.8 Z M 332.4 129.8 L 330.7 129.8 L 330.7 131.7 L 332.4 131.7 L 332.4 129.8 Z M 332.3 145.8 L 330.8 145.8 L 330.8 134.5 L 332.3 134.5 L 332.3 145.8 Z M 341.3 135.8 C 341.3 135.8 340.93 135.83 340.9 135.8 C 338.5 135.8 337.2 137.2 337.2 139.8 C 337.19 139.8 337.2 145.8 337.2 145.8 L 335.7 145.8 L 335.7 134.5 L 337.2 134.5 C 337.2 134.5 337.17 136.58 337.2 136.6 C 337.7 135.1 339.1 134.4 340.8 134.4 C 340.8 134.38 341.3 134.4 341.3 134.4 L 341.3 135.8 Z M 357.7 145.8 L 356.2 145.8 C 356.2 145.8 356.24 143.6 356.2 143.6 C 355.7 144.9 354.3 146 352.2 146 C 349.3 146 347.2 143.7 347.2 140.1 C 347.2 136.6 349.3 134.3 352.2 134.3 C 354.2 134.3 355.6 135.2 356.2 136.4 C 356.18 136.42 356.2 129.8 356.2 129.8 L 357.7 129.8 L 357.7 145.8 Z M 356.2 140.1 C 356.2 137.3 354.6 135.7 352.4 135.7 C 350.2 135.7 348.7 137.4 348.7 140.1 C 348.7 142.9 350.3 144.6 352.4 144.6 C 354.6 144.6 356.2 142.9 356.2 140.1 Z M 361.8 140.5 C 361.9 143.3 363.6 144.6 365.6 144.6 C 367.1 144.6 368.6 143.9 368.9 142.3 C 368.9 142.3 370.4 142.3 370.4 142.3 C 369.8 144.9 367.7 146 365.5 146 C 362.8 146 360.3 144.2 360.3 140.2 C 360.3 136.1 362.9 134.3 365.6 134.3 C 368.3 134.3 370.4 136 370.4 139.8 C 370.44 139.75 370.4 140.5 370.4 140.5 C 370.4 140.5 361.85 140.51 361.8 140.5 Z M 361.9 139.2 C 361.9 139.2 368.9 139.2 368.9 139.2 C 368.9 136.9 367.4 135.7 365.5 135.7 C 363.8 135.7 362.1 136.8 361.9 139.2 Z " stroke="none" fill="#000"/>  </g>  <g id="Polygon11470">    <path d="M 11.5 120.6 L 10 120.6 C 10 120.6 10.02 118.4 10 118.4 C 9.5 119.7 8.1 120.8 6 120.8 C 3 120.8 0.9 118.5 0.9 114.9 C 0.9 111.4 3 109.1 6 109.1 C 7.9 109.1 9.3 110 10 111.2 C 9.95 111.22 10 104.6 10 104.6 L 11.5 104.6 L 11.5 120.6 Z M 9.9 114.9 C 9.9 112.1 8.4 110.5 6.2 110.5 C 4 110.5 2.5 112.2 2.5 114.9 C 2.5 117.7 4 119.4 6.2 119.4 C 8.4 119.4 9.9 117.7 9.9 114.9 Z M 15.9 106.8 C 15.94 106.78 14.9 106.8 14.9 106.8 L 14.9 104.7 L 17.2 104.7 C 17.2 104.7 17.16 106.85 17.2 106.8 C 17.2 109.3 15.7 110.2 14.1 110.4 C 14.1 110.4 13.9 109.4 13.9 109.4 C 15.6 109.1 15.9 108.1 15.9 106.8 Z M 26.5 118.5 C 25.6 120.2 23.9 120.8 22.5 120.8 C 20.6 120.8 18.8 119.7 18.8 117.5 C 18.8 115.4 20.3 114.4 22.3 114.2 C 22.3 114.2 24.9 113.8 24.9 113.8 C 25.8 113.7 26.5 113.4 26.5 112.4 C 26.5 111.1 25.3 110.4 23.8 110.4 C 22.1 110.4 21 111.2 20.8 112.5 C 20.8 112.5 19.3 112.5 19.3 112.5 C 19.6 110.2 21.4 109.1 23.9 109.1 C 26.4 109.1 28 110.3 28 112.8 C 27.99 112.79 28 120.6 28 120.6 L 26.5 120.6 C 26.5 120.6 26.5 118.52 26.5 118.5 Z M 24.6 115.1 C 24.6 115.1 22.9 115.3 22.9 115.3 C 21.5 115.5 20.4 116 20.4 117.4 C 20.4 118.8 21.5 119.4 22.7 119.4 C 24.5 119.4 26.5 118.1 26.5 115.7 C 26.5 115.7 26.5 114.6 26.5 114.6 C 26 114.9 25.4 115 24.6 115.1 Z M 35.6 120.8 C 32.5 120.8 30.4 118.5 30.4 115 C 30.4 111.4 32.5 109.1 35.8 109.1 C 38.3 109.1 40.3 110.5 40.4 113 C 40.4 113 38.9 113 38.9 113 C 38.8 111.4 37.4 110.5 35.7 110.5 C 33.5 110.5 32 112.2 32 114.9 C 32 117.7 33.5 119.4 35.7 119.4 C 37.4 119.4 38.8 118.4 38.9 116.6 C 38.9 116.6 40.4 116.6 40.4 116.6 C 40.3 119.3 38.1 120.8 35.6 120.8 Z M 47.5 120.8 C 44.4 120.8 42.3 118.5 42.3 115 C 42.3 111.4 44.4 109.1 47.7 109.1 C 50.2 109.1 52.2 110.5 52.3 113 C 52.3 113 50.8 113 50.8 113 C 50.7 111.4 49.3 110.5 47.6 110.5 C 45.4 110.5 43.9 112.2 43.9 114.9 C 43.9 117.7 45.4 119.4 47.6 119.4 C 49.3 119.4 50.7 118.4 50.8 116.6 C 50.8 116.6 52.3 116.6 52.3 116.6 C 52.2 119.3 50 120.8 47.5 120.8 Z M 60.6 110.6 C 60.6 110.6 60.23 110.63 60.2 110.6 C 57.8 110.6 56.5 112 56.5 114.6 C 56.49 114.6 56.5 120.6 56.5 120.6 L 55 120.6 L 55 109.3 L 56.5 109.3 C 56.5 109.3 56.47 111.38 56.5 111.4 C 57 109.9 58.4 109.2 60.1 109.2 C 60.1 109.18 60.6 109.2 60.6 109.2 L 60.6 110.6 Z M 61.6 115 C 61.6 111.3 63.9 109.1 67 109.1 C 70.1 109.1 72.3 111.3 72.3 115 C 72.3 118.6 70.1 120.8 67 120.8 C 63.9 120.8 61.6 118.6 61.6 115 Z M 70.7 114.9 C 70.7 112.1 69 110.5 66.9 110.5 C 64.7 110.5 63.2 112.2 63.2 115 C 63.2 117.8 64.9 119.4 67 119.4 C 69.2 119.4 70.7 117.7 70.7 114.9 Z M 75.7 105 L 74.1 107 L 72.5 107 L 75.2 103.6 L 76.2 103.6 L 78.9 107 L 77.4 107 L 75.7 105 Z M 76.5 120.6 L 74.9 120.6 L 74.9 109.3 L 76.5 109.3 L 76.5 120.6 Z M 85 120.6 C 85 120.6 83.33 120.58 83.3 120.6 C 81.8 120.6 80.5 120.1 80.5 117.6 C 80.49 117.62 80.5 110.7 80.5 110.7 L 78.3 110.7 L 78.3 109.3 L 80.5 109.3 L 80.5 106.1 L 82 105.7 L 82 109.3 L 84.8 109.3 L 84.8 110.7 L 82 110.7 C 82 110.7 82.02 117.6 82 117.6 C 82 118.6 82.3 119.2 83.6 119.2 C 83.58 119.2 85 119.2 85 119.2 L 85 120.6 Z M 92.8 110.6 C 92.8 110.6 92.46 110.63 92.5 110.6 C 90.1 110.6 88.7 112 88.7 114.6 C 88.72 114.6 88.7 120.6 88.7 120.6 L 87.2 120.6 L 87.2 109.3 L 88.7 109.3 C 88.7 109.3 88.7 111.38 88.7 111.4 C 89.2 109.9 90.6 109.2 92.3 109.2 C 92.34 109.18 92.8 109.2 92.8 109.2 L 92.8 110.6 Z M 95.4 115.3 C 95.4 118.1 97.1 119.4 99.1 119.4 C 100.6 119.4 102.1 118.7 102.4 117.1 C 102.4 117.1 103.9 117.1 103.9 117.1 C 103.4 119.7 101.2 120.8 99.1 120.8 C 96.4 120.8 93.9 119 93.9 115 C 93.9 110.9 96.4 109.1 99.1 109.1 C 101.8 109.1 104 110.8 104 114.6 C 103.97 114.55 104 115.3 104 115.3 C 104 115.3 95.38 115.31 95.4 115.3 Z M 95.4 114 C 95.4 114 102.4 114 102.4 114 C 102.4 111.7 100.9 110.5 99.1 110.5 C 97.3 110.5 95.6 111.6 95.4 114 Z M 113.4 120.6 L 111.8 120.6 L 111.8 104.6 L 113.4 104.6 L 113.4 120.6 Z M 117.5 115.3 C 117.6 118.1 119.3 119.4 121.3 119.4 C 122.8 119.4 124.2 118.7 124.6 117.1 C 124.6 117.1 126 117.1 126 117.1 C 125.5 119.7 123.3 120.8 121.2 120.8 C 118.5 120.8 116 119 116 115 C 116 110.9 118.5 109.1 121.3 109.1 C 123.9 109.1 126.1 110.8 126.1 114.6 C 126.1 114.55 126.1 115.3 126.1 115.3 C 126.1 115.3 117.51 115.31 117.5 115.3 Z M 117.6 114 C 117.6 114 124.5 114 124.5 114 C 124.5 111.7 123.1 110.5 121.2 110.5 C 119.4 110.5 117.8 111.6 117.6 114 Z M 136.1 120.6 C 136.1 120.6 136.14 118.44 136.1 118.4 C 135.4 120 134 120.7 132.4 120.7 C 130.3 120.7 128.6 119.4 128.6 116.8 C 128.62 116.76 128.6 109.3 128.6 109.3 L 130.2 109.3 C 130.2 109.3 130.16 116.57 130.2 116.6 C 130.2 118.4 131.2 119.4 132.7 119.4 C 134.5 119.4 136.1 118 136.1 115.1 C 136.08 115.14 136.1 109.3 136.1 109.3 L 137.6 109.3 L 137.6 120.6 L 136.1 120.6 Z M 146.6 110.6 C 146.6 110.6 146.24 110.63 146.2 110.6 C 143.8 110.6 142.5 112 142.5 114.6 C 142.5 114.6 142.5 120.6 142.5 120.6 L 141 120.6 L 141 109.3 L 142.5 109.3 C 142.5 109.3 142.48 111.38 142.5 111.4 C 143 109.9 144.4 109.2 146.1 109.2 C 146.12 109.18 146.6 109.2 146.6 109.2 L 146.6 110.6 Z M 159.3 110.6 C 159.3 110.6 158.9 110.63 158.9 110.6 C 156.5 110.6 155.2 112 155.2 114.6 C 155.17 114.6 155.2 120.6 155.2 120.6 L 153.6 120.6 L 153.6 109.3 L 155.1 109.3 C 155.1 109.3 155.15 111.38 155.1 111.4 C 155.7 109.9 157 109.2 158.8 109.2 C 158.78 109.18 159.3 109.2 159.3 109.2 L 159.3 110.6 Z M 166.2 107 L 164.9 107 L 167.4 103.2 L 168.8 104.2 L 166.2 107 Z M 161.8 115.3 C 161.9 118.1 163.6 119.4 165.6 119.4 C 167.1 119.4 168.5 118.7 168.9 117.1 C 168.9 117.1 170.3 117.1 170.3 117.1 C 169.8 119.7 167.6 120.8 165.5 120.8 C 162.8 120.8 160.3 119 160.3 115 C 160.3 110.9 162.9 109.1 165.6 109.1 C 168.2 109.1 170.4 110.8 170.4 114.6 C 170.41 114.55 170.4 115.3 170.4 115.3 C 170.4 115.3 161.82 115.31 161.8 115.3 Z M 161.9 114 C 161.9 114 168.9 114 168.9 114 C 168.9 111.7 167.4 110.5 165.5 110.5 C 163.7 110.5 162.1 111.6 161.9 114 Z M 181.4 117.4 C 181.4 119.7 179.3 120.8 177.1 120.8 C 174.7 120.8 172.4 119.6 172.2 117.1 C 172.2 117.1 173.8 117.1 173.8 117.1 C 174.1 118.8 175.6 119.4 177.1 119.4 C 178.5 119.4 179.8 118.9 179.8 117.6 C 179.8 116.3 178.5 116 177.2 115.8 C 175 115.4 172.5 115 172.5 112.4 C 172.5 110.2 174.4 109.1 176.7 109.1 C 179.1 109.1 181 110.2 181.1 112.5 C 181.1 112.5 179.5 112.5 179.5 112.5 C 179.4 111.1 178.1 110.5 176.6 110.5 C 175.1 110.5 174.1 111.2 174.1 112.3 C 174.1 113.8 175.4 114 177.1 114.3 C 179.2 114.6 181.4 114.9 181.4 117.4 Z M 185.6 104.6 L 183.8 104.6 L 183.8 106.5 L 185.6 106.5 L 185.6 104.6 Z M 185.5 120.6 L 183.9 120.6 L 183.9 109.3 L 185.5 109.3 L 185.5 120.6 Z M 190.4 120.6 L 188.8 120.6 L 188.8 104.6 L 190.4 104.6 L 190.4 120.6 Z M 195.4 104.6 L 193.6 104.6 L 193.6 106.5 L 195.4 106.5 L 195.4 104.6 Z M 195.3 120.6 L 193.7 120.6 L 193.7 109.3 L 195.3 109.3 L 195.3 120.6 Z M 199.4 115.3 C 199.4 118.1 201.2 119.4 203.2 119.4 C 204.6 119.4 206.1 118.7 206.4 117.1 C 206.4 117.1 207.9 117.1 207.9 117.1 C 207.4 119.7 205.2 120.8 203.1 120.8 C 200.4 120.8 197.9 119 197.9 115 C 197.9 110.9 200.4 109.1 203.1 109.1 C 205.8 109.1 208 110.8 208 114.6 C 207.98 114.55 208 115.3 208 115.3 C 208 115.3 199.39 115.31 199.4 115.3 Z M 199.4 114 C 199.4 114 206.4 114 206.4 114 C 206.4 111.7 205 110.5 203.1 110.5 C 201.3 110.5 199.6 111.6 199.4 114 Z M 219.8 112.9 C 219.76 112.85 219.8 120.6 219.8 120.6 L 218.2 120.6 C 218.2 120.6 218.23 113.04 218.2 113 C 218.2 111.5 217.3 110.5 215.8 110.5 C 213.8 110.5 212.1 111.9 212.1 114.7 C 212.14 114.66 212.1 120.6 212.1 120.6 L 210.6 120.6 L 210.6 109.3 L 212.1 109.3 C 212.1 109.3 212.14 111.4 212.1 111.4 C 212.8 110.1 214.1 109.1 216 109.1 C 218.3 109.1 219.8 110.4 219.8 112.9 Z M 227.5 120.8 C 224.4 120.8 222.3 118.5 222.3 115 C 222.3 111.4 224.4 109.1 227.6 109.1 C 230.1 109.1 232.1 110.5 232.3 113 C 232.3 113 230.8 113 230.8 113 C 230.6 111.4 229.3 110.5 227.6 110.5 C 225.4 110.5 223.8 112.2 223.8 114.9 C 223.8 117.7 225.4 119.4 227.6 119.4 C 229.3 119.4 230.7 118.4 230.8 116.6 C 230.8 116.6 232.3 116.6 232.3 116.6 C 232.1 119.3 230 120.8 227.5 120.8 Z M 235.7 115.3 C 235.7 118.1 237.5 119.4 239.5 119.4 C 241 119.4 242.4 118.7 242.8 117.1 C 242.8 117.1 244.2 117.1 244.2 117.1 C 243.7 119.7 241.5 120.8 239.4 120.8 C 236.7 120.8 234.2 119 234.2 115 C 234.2 110.9 236.7 109.1 239.4 109.1 C 242.1 109.1 244.3 110.8 244.3 114.6 C 244.29 114.55 244.3 115.3 244.3 115.3 C 244.3 115.3 235.7 115.31 235.7 115.3 Z M 235.7 114 C 235.7 114 242.7 114 242.7 114 C 242.7 111.7 241.3 110.5 239.4 110.5 C 237.6 110.5 236 111.6 235.7 114 Z M 246.2 118.4 L 248.3 118.4 L 248.3 120.6 L 246.2 120.6 L 246.2 118.4 Z M 265.8 116.1 L 258.3 116.1 L 256.6 120.6 L 254.8 120.6 L 261.2 104.8 L 262.9 104.8 L 269.4 120.6 L 267.6 120.6 L 265.8 116.1 Z M 262 106.6 L 258.8 114.7 L 265.2 114.7 L 262 106.6 Z M 277 109.3 L 278.6 109.3 C 278.6 109.3 278.56 111.17 278.6 111.2 C 279.2 109.8 280.4 109.1 281.8 109.1 C 283.5 109.1 284.8 110 285.2 111.4 C 285.7 110.2 286.9 109.1 288.9 109.1 C 290.9 109.1 292.5 110.2 292.5 112.5 C 292.53 112.5 292.5 120.6 292.5 120.6 L 291 120.6 C 291 120.6 290.99 113.04 291 113 C 291 111.3 289.9 110.5 288.6 110.5 C 286.9 110.5 285.5 111.8 285.5 114.1 C 285.53 114.13 285.5 120.6 285.5 120.6 L 284 120.6 C 284 120.6 284.02 113.04 284 113 C 284 111.3 283 110.5 281.6 110.5 C 280 110.5 278.6 111.7 278.6 114.1 C 278.58 114.13 278.6 120.6 278.6 120.6 L 277 120.6 L 277 109.3 Z M 295 115 C 295 111.3 297.3 109.1 300.4 109.1 C 303.5 109.1 305.7 111.3 305.7 115 C 305.7 118.6 303.5 120.8 300.4 120.8 C 297.3 120.8 295 118.6 295 115 Z M 304.2 114.9 C 304.2 112.1 302.5 110.5 300.4 110.5 C 298.2 110.5 296.6 112.2 296.6 115 C 296.6 117.8 298.3 119.4 300.4 119.4 C 302.6 119.4 304.2 117.7 304.2 114.9 Z M 311.5 122.7 C 311 123.9 310 124.3 308.9 124.3 C 308.86 124.28 307.7 124.3 307.7 124.3 L 307.7 122.9 C 307.7 122.9 308.65 122.91 308.7 122.9 C 309.6 122.9 310.1 122.6 310.5 121.6 C 310.46 121.59 311 120.1 311 120.1 L 306.8 109.3 L 308.4 109.3 L 311.7 118.2 L 315 109.3 L 316.6 109.3 C 316.6 109.3 311.47 122.72 311.5 122.7 Z M 319.1 115.3 C 319.2 118.1 320.9 119.4 322.9 119.4 C 324.4 119.4 325.9 118.7 326.2 117.1 C 326.2 117.1 327.6 117.1 327.6 117.1 C 327.1 119.7 324.9 120.8 322.8 120.8 C 320.1 120.8 317.6 119 317.6 115 C 317.6 110.9 320.2 109.1 322.9 109.1 C 325.5 109.1 327.7 110.8 327.7 114.6 C 327.72 114.55 327.7 115.3 327.7 115.3 C 327.7 115.3 319.13 115.31 319.1 115.3 Z M 319.2 114 C 319.2 114 326.2 114 326.2 114 C 326.2 111.7 324.7 110.5 322.8 110.5 C 321 110.5 319.4 111.6 319.2 114 Z M 339.5 112.9 C 339.5 112.85 339.5 120.6 339.5 120.6 L 338 120.6 C 338 120.6 337.97 113.04 338 113 C 338 111.5 337.1 110.5 335.5 110.5 C 333.6 110.5 331.9 111.9 331.9 114.7 C 331.88 114.66 331.9 120.6 331.9 120.6 L 330.3 120.6 L 330.3 109.3 L 331.9 109.3 C 331.9 109.3 331.88 111.4 331.9 111.4 C 332.6 110.1 333.8 109.1 335.8 109.1 C 338 109.1 339.5 110.4 339.5 112.9 Z M 353.4 120.6 C 353.4 120.6 351.7 120.58 351.7 120.6 C 350.2 120.6 348.9 120.1 348.9 117.6 C 348.87 117.62 348.9 110.7 348.9 110.7 L 346.6 110.7 L 346.6 109.3 L 348.9 109.3 L 348.9 106.1 L 350.4 105.7 L 350.4 109.3 L 353.1 109.3 L 353.1 110.7 L 350.4 110.7 C 350.4 110.7 350.4 117.6 350.4 117.6 C 350.4 118.6 350.7 119.2 352 119.2 C 351.96 119.2 353.4 119.2 353.4 119.2 L 353.4 120.6 Z M 356.3 115.3 C 356.4 118.1 358.1 119.4 360.1 119.4 C 361.6 119.4 363.1 118.7 363.4 117.1 C 363.4 117.1 364.8 117.1 364.8 117.1 C 364.3 119.7 362.2 120.8 360 120.8 C 357.3 120.8 354.8 119 354.8 115 C 354.8 110.9 357.4 109.1 360.1 109.1 C 362.7 109.1 364.9 110.8 364.9 114.6 C 364.93 114.55 364.9 115.3 364.9 115.3 C 364.9 115.3 356.34 115.31 356.3 115.3 Z M 356.4 114 C 356.4 114 363.4 114 363.4 114 C 363.4 111.7 361.9 110.5 360 110.5 C 358.3 110.5 356.6 111.6 356.4 114 Z M 373.2 110.6 C 373.2 110.6 372.83 110.63 372.8 110.6 C 370.4 110.6 369.1 112 369.1 114.6 C 369.09 114.6 369.1 120.6 369.1 120.6 L 367.6 120.6 L 367.6 109.3 L 369.1 109.3 C 369.1 109.3 369.07 111.38 369.1 111.4 C 369.6 109.9 371 109.2 372.7 109.2 C 372.7 109.18 373.2 109.2 373.2 109.2 L 373.2 110.6 Z M 375.2 109.3 L 376.7 109.3 C 376.7 109.3 376.69 111.17 376.7 111.2 C 377.3 109.8 378.5 109.1 380 109.1 C 381.6 109.1 383 110 383.3 111.4 C 383.8 110.2 385.1 109.1 387 109.1 C 389 109.1 390.7 110.2 390.7 112.5 C 390.66 112.5 390.7 120.6 390.7 120.6 L 389.1 120.6 C 389.1 120.6 389.12 113.04 389.1 113 C 389.1 111.3 388.1 110.5 386.7 110.5 C 385.1 110.5 383.7 111.8 383.7 114.1 C 383.66 114.13 383.7 120.6 383.7 120.6 L 382.2 120.6 C 382.2 120.6 382.15 113.04 382.2 113 C 382.2 111.3 381.1 110.5 379.8 110.5 C 378.1 110.5 376.7 111.7 376.7 114.1 C 376.71 114.13 376.7 120.6 376.7 120.6 L 375.2 120.6 L 375.2 109.3 Z M 394.7 115.3 C 394.7 118.1 396.5 119.4 398.4 119.4 C 399.9 119.4 401.4 118.7 401.7 117.1 C 401.7 117.1 403.2 117.1 403.2 117.1 C 402.7 119.7 400.5 120.8 398.4 120.8 C 395.7 120.8 393.2 119 393.2 115 C 393.2 110.9 395.7 109.1 398.4 109.1 C 401.1 109.1 403.3 110.8 403.3 114.6 C 403.28 114.55 403.3 115.3 403.3 115.3 C 403.3 115.3 394.69 115.31 394.7 115.3 Z M 394.7 114 C 394.7 114 401.7 114 401.7 114 C 401.7 111.7 400.3 110.5 398.4 110.5 C 396.6 110.5 394.9 111.6 394.7 114 Z M 407 120.5 C 407 120.46 406 120.5 406 120.5 L 406 118.4 L 408.2 118.4 C 408.2 118.4 408.21 120.52 408.2 120.5 C 408.2 123 406.7 123.9 405.2 124 C 405.2 124 405 123.1 405 123.1 C 406.7 122.8 407 121.8 407 120.5 Z " stroke="none" fill="#000"/>  </g>  <g id="Polygon11469">    <path d="M 3.2 95.4 L 1.7 95.4 L 1.7 79.4 L 3.2 79.4 L 3.2 95.4 Z M 7.7 81.6 C 7.66 81.58 6.7 81.6 6.7 81.6 L 6.7 79.5 L 8.9 79.5 C 8.9 79.5 8.88 81.65 8.9 81.6 C 8.9 84.1 7.4 85 5.8 85.2 C 5.8 85.2 5.6 84.2 5.6 84.2 C 7.3 83.9 7.7 82.9 7.7 81.6 Z M 9.1 89.8 C 9.1 86.1 11.3 83.9 14.4 83.9 C 17.5 83.9 19.8 86.1 19.8 89.8 C 19.8 93.4 17.6 95.6 14.4 95.6 C 11.3 95.6 9.1 93.4 9.1 89.8 Z M 18.2 89.7 C 18.2 86.9 16.5 85.3 14.4 85.3 C 12.2 85.3 10.7 87 10.7 89.8 C 10.7 92.6 12.4 94.2 14.5 94.2 C 16.7 94.2 18.2 92.5 18.2 89.7 Z M 32.9 89.7 C 32.9 93.2 30.8 95.6 27.8 95.6 C 25.8 95.6 24.5 94.5 23.9 93.3 C 23.88 93.3 23.9 95.4 23.9 95.4 L 22.4 95.4 L 22.4 79.4 L 23.9 79.4 C 23.9 79.4 23.94 86.37 23.9 86.4 C 24.5 85 25.9 83.9 28 83.9 C 30.8 83.9 32.9 86.1 32.9 89.7 Z M 31.4 89.8 C 31.4 87 29.9 85.4 27.7 85.4 C 25.5 85.4 23.9 87 23.9 89.8 C 23.9 92.6 25.5 94.3 27.6 94.3 C 29.9 94.3 31.4 92.5 31.4 89.8 Z M 37.3 81.3 L 35.6 81.3 L 35.6 79.4 L 37.3 79.4 L 37.3 81.3 Z M 33.6 98.3 C 33.6 98.3 34.15 98.34 34.1 98.3 C 35.4 98.3 35.7 97.8 35.7 96.7 C 35.7 96.73 35.7 84.1 35.7 84.1 L 37.2 84.1 C 37.2 84.1 37.23 96.77 37.2 96.8 C 37.2 99.2 35.9 99.7 34.4 99.7 C 34.4 99.71 33.6 99.7 33.6 99.7 L 33.6 98.3 Z M 41.3 90.1 C 41.3 92.9 43 94.2 45 94.2 C 46.5 94.2 48 93.5 48.3 91.9 C 48.3 91.9 49.8 91.9 49.8 91.9 C 49.3 94.5 47.1 95.6 44.9 95.6 C 42.3 95.6 39.8 93.8 39.8 89.8 C 39.8 85.7 42.3 83.9 45 83.9 C 47.7 83.9 49.9 85.6 49.9 89.4 C 49.85 89.35 49.9 90.1 49.9 90.1 C 49.9 90.1 41.26 90.11 41.3 90.1 Z M 41.3 88.8 C 41.3 88.8 48.3 88.8 48.3 88.8 C 48.3 86.5 46.8 85.3 44.9 85.3 C 43.2 85.3 41.5 86.4 41.3 88.8 Z M 57.6 95.4 C 57.6 95.4 55.96 95.38 56 95.4 C 54.5 95.4 53.1 94.9 53.1 92.4 C 53.13 92.42 53.1 85.5 53.1 85.5 L 50.9 85.5 L 50.9 84.1 L 53.1 84.1 L 53.1 80.9 L 54.7 80.5 L 54.7 84.1 L 57.4 84.1 L 57.4 85.5 L 54.7 85.5 C 54.7 85.5 54.66 92.4 54.7 92.4 C 54.7 93.4 55 94 56.2 94 C 56.22 94 57.6 94 57.6 94 L 57.6 95.4 Z M 74.7 95.4 L 73.2 95.4 C 73.2 95.4 73.21 93.2 73.2 93.2 C 72.7 94.5 71.3 95.6 69.2 95.6 C 66.2 95.6 64.1 93.3 64.1 89.7 C 64.1 86.2 66.2 83.9 69.2 83.9 C 71.1 83.9 72.5 84.8 73.1 86 C 73.14 86.02 73.1 79.4 73.1 79.4 L 74.7 79.4 L 74.7 95.4 Z M 73.1 89.7 C 73.1 86.9 71.6 85.3 69.4 85.3 C 67.2 85.3 65.7 87 65.7 89.7 C 65.7 92.5 67.2 94.2 69.4 94.2 C 71.6 94.2 73.1 92.5 73.1 89.7 Z M 78.8 90.1 C 78.9 92.9 80.6 94.2 82.6 94.2 C 84.1 94.2 85.5 93.5 85.9 91.9 C 85.9 91.9 87.3 91.9 87.3 91.9 C 86.8 94.5 84.6 95.6 82.5 95.6 C 79.8 95.6 77.3 93.8 77.3 89.8 C 77.3 85.7 79.8 83.9 82.6 83.9 C 85.2 83.9 87.4 85.6 87.4 89.4 C 87.4 89.35 87.4 90.1 87.4 90.1 C 87.4 90.1 78.81 90.11 78.8 90.1 Z M 78.9 88.8 C 78.9 88.8 85.8 88.8 85.8 88.8 C 85.8 86.5 84.4 85.3 82.5 85.3 C 80.7 85.3 79.1 86.4 78.9 88.8 Z M 99.4 95.6 C 96.2 95.6 94.1 93.3 94.1 89.8 C 94.1 86.2 96.2 83.9 99.5 83.9 C 102 83.9 104 85.3 104.1 87.8 C 104.1 87.8 102.6 87.8 102.6 87.8 C 102.5 86.2 101.1 85.3 99.5 85.3 C 97.3 85.3 95.7 87 95.7 89.7 C 95.7 92.5 97.2 94.2 99.4 94.2 C 101.1 94.2 102.5 93.2 102.6 91.4 C 102.6 91.4 104.1 91.4 104.1 91.4 C 104 94.1 101.8 95.6 99.4 95.6 Z M 115.9 87.7 C 115.92 87.65 115.9 95.4 115.9 95.4 L 114.4 95.4 C 114.4 95.4 114.39 87.84 114.4 87.8 C 114.4 86.3 113.5 85.3 111.9 85.3 C 110 85.3 108.3 86.7 108.3 89.5 C 108.3 89.46 108.3 95.4 108.3 95.4 L 106.8 95.4 L 106.8 79.4 L 108.3 79.4 C 108.3 79.4 108.3 86.08 108.3 86.1 C 108.9 84.8 110.2 83.9 112.2 83.9 C 114.5 83.9 115.9 85.2 115.9 87.7 Z M 126.1 93.3 C 125.2 95 123.5 95.6 122.1 95.6 C 120.2 95.6 118.4 94.5 118.4 92.3 C 118.4 90.2 119.9 89.2 121.9 89 C 121.9 89 124.5 88.6 124.5 88.6 C 125.4 88.5 126.1 88.2 126.1 87.2 C 126.1 85.9 124.9 85.2 123.4 85.2 C 121.7 85.2 120.6 86 120.4 87.3 C 120.4 87.3 118.9 87.3 118.9 87.3 C 119.2 85 121 83.9 123.5 83.9 C 126 83.9 127.6 85.1 127.6 87.6 C 127.6 87.59 127.6 95.4 127.6 95.4 L 126.1 95.4 C 126.1 95.4 126.1 93.32 126.1 93.3 Z M 124.2 89.9 C 124.2 89.9 122.5 90.1 122.5 90.1 C 121.1 90.3 120 90.8 120 92.2 C 120 93.6 121.1 94.2 122.3 94.2 C 124.1 94.2 126.1 92.9 126.1 90.5 C 126.1 90.5 126.1 89.4 126.1 89.4 C 125.6 89.7 125 89.8 124.2 89.9 Z M 139.9 87.7 C 139.9 87.65 139.9 95.4 139.9 95.4 L 138.4 95.4 C 138.4 95.4 138.37 87.84 138.4 87.8 C 138.4 86.3 137.5 85.3 135.9 85.3 C 134 85.3 132.3 86.7 132.3 89.5 C 132.28 89.46 132.3 95.4 132.3 95.4 L 130.7 95.4 L 130.7 84.1 L 132.3 84.1 C 132.3 84.1 132.28 86.2 132.3 86.2 C 132.9 84.9 134.2 83.9 136.2 83.9 C 138.4 83.9 139.9 85.2 139.9 87.7 Z M 152.9 94.9 C 152.9 98.3 150.7 100 147.8 100 C 145.3 100 143 98.7 142.7 96.1 C 142.7 96.1 144.2 96.1 144.2 96.1 C 144.5 97.5 145.5 98.7 147.8 98.7 C 149.8 98.7 151.4 97.6 151.4 95 C 151.4 95 151.4 92.7 151.4 92.7 C 150.5 94.4 148.9 95 147.4 95 C 144.6 95 142.4 93.1 142.4 89.4 C 142.4 85.7 144.8 83.9 147.5 83.9 C 149.3 83.9 150.7 84.7 151.3 85.9 C 151.35 85.93 151.3 84.1 151.3 84.1 L 152.9 84.1 C 152.9 84.1 152.86 94.88 152.9 94.9 Z M 151.3 89.4 C 151.3 86.6 149.6 85.2 147.7 85.2 C 145.7 85.2 143.9 86.6 143.9 89.4 C 143.9 92.2 145.7 93.6 147.6 93.6 C 149.5 93.6 151.3 92.4 151.3 89.4 Z M 156.9 90.1 C 156.9 92.9 158.7 94.2 160.6 94.2 C 162.1 94.2 163.6 93.5 163.9 91.9 C 163.9 91.9 165.4 91.9 165.4 91.9 C 164.9 94.5 162.7 95.6 160.6 95.6 C 157.9 95.6 155.4 93.8 155.4 89.8 C 155.4 85.7 157.9 83.9 160.6 83.9 C 163.3 83.9 165.5 85.6 165.5 89.4 C 165.48 89.35 165.5 90.1 165.5 90.1 C 165.5 90.1 156.89 90.11 156.9 90.1 Z M 156.9 88.8 C 156.9 88.8 163.9 88.8 163.9 88.8 C 163.9 86.5 162.5 85.3 160.6 85.3 C 158.8 85.3 157.1 86.4 156.9 88.8 Z M 168.1 84.1 L 169.6 84.1 C 169.6 84.1 169.62 85.97 169.6 86 C 170.2 84.6 171.5 83.9 172.9 83.9 C 174.6 83.9 175.9 84.8 176.2 86.2 C 176.7 85 178 83.9 179.9 83.9 C 182 83.9 183.6 85 183.6 87.3 C 183.58 87.3 183.6 95.4 183.6 95.4 L 182 95.4 C 182 95.4 182.05 87.84 182 87.8 C 182 86.1 181 85.3 179.7 85.3 C 178 85.3 176.6 86.6 176.6 88.9 C 176.59 88.93 176.6 95.4 176.6 95.4 L 175.1 95.4 C 175.1 95.4 175.08 87.84 175.1 87.8 C 175.1 86.1 174 85.3 172.7 85.3 C 171 85.3 169.6 86.5 169.6 88.9 C 169.64 88.93 169.6 95.4 169.6 95.4 L 168.1 95.4 L 168.1 84.1 Z M 187.6 90.1 C 187.7 92.9 189.4 94.2 191.4 94.2 C 192.9 94.2 194.3 93.5 194.7 91.9 C 194.7 91.9 196.1 91.9 196.1 91.9 C 195.6 94.5 193.4 95.6 191.3 95.6 C 188.6 95.6 186.1 93.8 186.1 89.8 C 186.1 85.7 188.6 83.9 191.4 83.9 C 194 83.9 196.2 85.6 196.2 89.4 C 196.2 89.35 196.2 90.1 196.2 90.1 C 196.2 90.1 187.61 90.11 187.6 90.1 Z M 187.7 88.8 C 187.7 88.8 194.6 88.8 194.6 88.8 C 194.6 86.5 193.2 85.3 191.3 85.3 C 189.5 85.3 187.9 86.4 187.7 88.8 Z M 208 87.7 C 207.98 87.65 208 95.4 208 95.4 L 206.4 95.4 C 206.4 95.4 206.45 87.84 206.4 87.8 C 206.4 86.3 205.6 85.3 204 85.3 C 202 85.3 200.4 86.7 200.4 89.5 C 200.36 89.46 200.4 95.4 200.4 95.4 L 198.8 95.4 L 198.8 84.1 L 200.4 84.1 C 200.4 84.1 200.36 86.2 200.4 86.2 C 201 84.9 202.3 83.9 204.3 83.9 C 206.5 83.9 208 85.2 208 87.7 Z M 216.4 95.4 C 216.4 95.4 214.72 95.38 214.7 95.4 C 213.2 95.4 211.9 94.9 211.9 92.4 C 211.89 92.42 211.9 85.5 211.9 85.5 L 209.7 85.5 L 209.7 84.1 L 211.9 84.1 L 211.9 80.9 L 213.4 80.5 L 213.4 84.1 L 216.2 84.1 L 216.2 85.5 L 213.4 85.5 C 213.4 85.5 213.42 92.4 213.4 92.4 C 213.4 93.4 213.7 94 215 94 C 214.98 94 216.4 94 216.4 94 L 216.4 95.4 Z M 227 92.2 C 227 94.5 224.9 95.6 222.6 95.6 C 220.2 95.6 218 94.4 217.7 91.9 C 217.7 91.9 219.4 91.9 219.4 91.9 C 219.6 93.6 221.1 94.2 222.6 94.2 C 224.1 94.2 225.4 93.7 225.4 92.4 C 225.4 91.1 224.1 90.8 222.7 90.6 C 220.6 90.2 218 89.8 218 87.2 C 218 85 220 83.9 222.3 83.9 C 224.7 83.9 226.5 85 226.7 87.3 C 226.7 87.3 225.1 87.3 225.1 87.3 C 225 85.9 223.7 85.3 222.2 85.3 C 220.7 85.3 219.6 86 219.6 87.1 C 219.6 88.6 221 88.8 222.7 89.1 C 224.7 89.4 227 89.7 227 92.2 Z M 240.4 85.4 C 240.4 85.4 240.01 85.43 240 85.4 C 237.6 85.4 236.3 86.8 236.3 89.4 C 236.27 89.4 236.3 95.4 236.3 95.4 L 234.7 95.4 L 234.7 84.1 L 236.2 84.1 C 236.2 84.1 236.25 86.18 236.2 86.2 C 236.8 84.7 238.1 84 239.9 84 C 239.88 83.98 240.4 84 240.4 84 L 240.4 85.4 Z M 247.3 81.8 L 246 81.8 L 248.5 78 L 249.9 79 L 247.3 81.8 Z M 242.9 90.1 C 243 92.9 244.7 94.2 246.7 94.2 C 248.2 94.2 249.6 93.5 250 91.9 C 250 91.9 251.4 91.9 251.4 91.9 C 250.9 94.5 248.7 95.6 246.6 95.6 C 243.9 95.6 241.4 93.8 241.4 89.8 C 241.4 85.7 244 83.9 246.7 83.9 C 249.3 83.9 251.5 85.6 251.5 89.4 C 251.51 89.35 251.5 90.1 251.5 90.1 C 251.5 90.1 242.93 90.11 242.9 90.1 Z M 243 88.8 C 243 88.8 250 88.8 250 88.8 C 250 86.5 248.5 85.3 246.6 85.3 C 244.8 85.3 243.2 86.4 243 88.8 Z M 263.8 94.9 C 263.8 98.3 261.6 100 258.7 100 C 256.2 100 254 98.7 253.7 96.1 C 253.7 96.1 255.2 96.1 255.2 96.1 C 255.4 97.5 256.5 98.7 258.7 98.7 C 260.8 98.7 262.4 97.6 262.4 95 C 262.4 95 262.4 92.7 262.4 92.7 C 261.5 94.4 259.9 95 258.4 95 C 255.6 95 253.4 93.1 253.4 89.4 C 253.4 85.7 255.8 83.9 258.4 83.9 C 260.3 83.9 261.6 84.7 262.3 85.9 C 262.33 85.93 262.3 84.1 262.3 84.1 L 263.8 84.1 C 263.8 84.1 263.84 94.88 263.8 94.9 Z M 262.3 89.4 C 262.3 86.6 260.6 85.2 258.7 85.2 C 256.7 85.2 254.9 86.6 254.9 89.4 C 254.9 92.2 256.7 93.6 258.6 93.6 C 260.4 93.6 262.3 92.4 262.3 89.4 Z M 268.6 95.4 L 267.1 95.4 L 267.1 79.4 L 268.6 79.4 L 268.6 95.4 Z M 272.8 90.1 C 272.8 92.9 274.5 94.2 276.5 94.2 C 278 94.2 279.5 93.5 279.8 91.9 C 279.8 91.9 281.3 91.9 281.3 91.9 C 280.8 94.5 278.6 95.6 276.4 95.6 C 273.8 95.6 271.3 93.8 271.3 89.8 C 271.3 85.7 273.8 83.9 276.5 83.9 C 279.2 83.9 281.4 85.6 281.4 89.4 C 281.36 89.35 281.4 90.1 281.4 90.1 C 281.4 90.1 272.77 90.11 272.8 90.1 Z M 272.8 88.8 C 272.8 88.8 279.8 88.8 279.8 88.8 C 279.8 86.5 278.3 85.3 276.4 85.3 C 274.7 85.3 273 86.4 272.8 88.8 Z M 284 84.1 L 285.5 84.1 C 285.5 84.1 285.49 85.97 285.5 86 C 286.1 84.6 287.3 83.9 288.8 83.9 C 290.4 83.9 291.8 84.8 292.1 86.2 C 292.6 85 293.9 83.9 295.8 83.9 C 297.8 83.9 299.5 85 299.5 87.3 C 299.46 87.3 299.5 95.4 299.5 95.4 L 297.9 95.4 C 297.9 95.4 297.92 87.84 297.9 87.8 C 297.9 86.1 296.9 85.3 295.5 85.3 C 293.9 85.3 292.5 86.6 292.5 88.9 C 292.46 88.93 292.5 95.4 292.5 95.4 L 291 95.4 C 291 95.4 290.95 87.84 291 87.8 C 291 86.1 289.9 85.3 288.6 85.3 C 286.9 85.3 285.5 86.5 285.5 88.9 C 285.51 88.93 285.5 95.4 285.5 95.4 L 284 95.4 L 284 84.1 Z M 303.5 90.1 C 303.5 92.9 305.3 94.2 307.2 94.2 C 308.7 94.2 310.2 93.5 310.5 91.9 C 310.5 91.9 312 91.9 312 91.9 C 311.5 94.5 309.3 95.6 307.2 95.6 C 304.5 95.6 302 93.8 302 89.8 C 302 85.7 304.5 83.9 307.2 83.9 C 309.9 83.9 312.1 85.6 312.1 89.4 C 312.08 89.35 312.1 90.1 312.1 90.1 C 312.1 90.1 303.49 90.11 303.5 90.1 Z M 303.5 88.8 C 303.5 88.8 310.5 88.8 310.5 88.8 C 310.5 86.5 309.1 85.3 307.2 85.3 C 305.4 85.3 303.7 86.4 303.5 88.8 Z M 323.9 87.7 C 323.86 87.65 323.9 95.4 323.9 95.4 L 322.3 95.4 C 322.3 95.4 322.33 87.84 322.3 87.8 C 322.3 86.3 321.4 85.3 319.8 85.3 C 317.9 85.3 316.2 86.7 316.2 89.5 C 316.24 89.46 316.2 95.4 316.2 95.4 L 314.7 95.4 L 314.7 84.1 L 316.2 84.1 C 316.2 84.1 316.24 86.2 316.2 86.2 C 316.9 84.9 318.2 83.9 320.1 83.9 C 322.4 83.9 323.9 85.2 323.9 87.7 Z M 332.3 95.4 C 332.3 95.4 330.6 95.38 330.6 95.4 C 329.1 95.4 327.8 94.9 327.8 92.4 C 327.76 92.42 327.8 85.5 327.8 85.5 L 325.5 85.5 L 325.5 84.1 L 327.8 84.1 L 327.8 80.9 L 329.3 80.5 L 329.3 84.1 L 332 84.1 L 332 85.5 L 329.3 85.5 C 329.3 85.5 329.3 92.4 329.3 92.4 C 329.3 93.4 329.6 94 330.9 94 C 330.85 94 332.3 94 332.3 94 L 332.3 95.4 Z M 341.4 93.3 C 340.5 95 338.8 95.6 337.4 95.6 C 335.5 95.6 333.7 94.5 333.7 92.3 C 333.7 90.2 335.2 89.2 337.2 89 C 337.2 89 339.8 88.6 339.8 88.6 C 340.7 88.5 341.4 88.2 341.4 87.2 C 341.4 85.9 340.2 85.2 338.7 85.2 C 337 85.2 335.9 86 335.7 87.3 C 335.7 87.3 334.2 87.3 334.2 87.3 C 334.5 85 336.3 83.9 338.8 83.9 C 341.3 83.9 342.9 85.1 342.9 87.6 C 342.88 87.59 342.9 95.4 342.9 95.4 L 341.4 95.4 C 341.4 95.4 341.39 93.32 341.4 93.3 Z M 339.5 89.9 C 339.5 89.9 337.8 90.1 337.8 90.1 C 336.4 90.3 335.3 90.8 335.3 92.2 C 335.3 93.6 336.4 94.2 337.6 94.2 C 339.4 94.2 341.4 92.9 341.4 90.5 C 341.4 90.5 341.4 89.4 341.4 89.4 C 340.9 89.7 340.3 89.8 339.5 89.9 Z M 347.7 79.4 L 345.9 79.4 L 345.9 81.3 L 347.7 81.3 L 347.7 79.4 Z M 347.6 95.4 L 346 95.4 L 346 84.1 L 347.6 84.1 L 347.6 95.4 Z M 356.6 85.4 C 356.6 85.4 356.2 85.43 356.2 85.4 C 353.8 85.4 352.5 86.8 352.5 89.4 C 352.46 89.4 352.5 95.4 352.5 95.4 L 350.9 95.4 L 350.9 84.1 L 352.4 84.1 C 352.4 84.1 352.44 86.18 352.4 86.2 C 353 84.7 354.3 84 356.1 84 C 356.07 83.98 356.6 84 356.6 84 L 356.6 85.4 Z M 359.1 90.1 C 359.2 92.9 360.9 94.2 362.9 94.2 C 364.4 94.2 365.8 93.5 366.2 91.9 C 366.2 91.9 367.6 91.9 367.6 91.9 C 367.1 94.5 364.9 95.6 362.8 95.6 C 360.1 95.6 357.6 93.8 357.6 89.8 C 357.6 85.7 360.1 83.9 362.9 83.9 C 365.5 83.9 367.7 85.6 367.7 89.4 C 367.71 89.35 367.7 90.1 367.7 90.1 C 367.7 90.1 359.12 90.11 359.1 90.1 Z M 359.2 88.8 C 359.2 88.8 366.2 88.8 366.2 88.8 C 366.2 86.5 364.7 85.3 362.8 85.3 C 361 85.3 359.4 86.4 359.2 88.8 Z M 378.7 92.2 C 378.7 94.5 376.6 95.6 374.4 95.6 C 371.9 95.6 369.7 94.4 369.5 91.9 C 369.5 91.9 371.1 91.9 371.1 91.9 C 371.4 93.6 372.9 94.2 374.4 94.2 C 375.8 94.2 377.1 93.7 377.1 92.4 C 377.1 91.1 375.8 90.8 374.5 90.6 C 372.3 90.2 369.8 89.8 369.8 87.2 C 369.8 85 371.7 83.9 374 83.9 C 376.4 83.9 378.3 85 378.4 87.3 C 378.4 87.3 376.8 87.3 376.8 87.3 C 376.7 85.9 375.4 85.3 373.9 85.3 C 372.4 85.3 371.4 86 371.4 87.1 C 371.4 88.6 372.7 88.8 374.4 89.1 C 376.5 89.4 378.7 89.7 378.7 92.2 Z M 393.4 93.3 C 392.5 95 390.8 95.6 389.4 95.6 C 387.5 95.6 385.7 94.5 385.7 92.3 C 385.7 90.2 387.2 89.2 389.2 89 C 389.2 89 391.8 88.6 391.8 88.6 C 392.7 88.5 393.4 88.2 393.4 87.2 C 393.4 85.9 392.3 85.2 390.7 85.2 C 389 85.2 388 86 387.7 87.3 C 387.7 87.3 386.2 87.3 386.2 87.3 C 386.5 85 388.3 83.9 390.8 83.9 C 393.3 83.9 394.9 85.1 394.9 87.6 C 394.9 87.59 394.9 95.4 394.9 95.4 L 393.4 95.4 C 393.4 95.4 393.41 93.32 393.4 93.3 Z M 391.5 89.9 C 391.5 89.9 389.8 90.1 389.8 90.1 C 388.4 90.3 387.3 90.8 387.3 92.2 C 387.3 93.6 388.4 94.2 389.7 94.2 C 391.4 94.2 393.4 92.9 393.4 90.5 C 393.4 90.5 393.4 89.4 393.4 89.4 C 392.9 89.7 392.3 89.8 391.5 89.9 Z M 405.9 95.4 L 405.9 85.5 L 400.1 85.5 L 400.1 95.4 L 398.6 95.4 L 398.6 85.5 L 396.7 85.5 L 396.7 84.1 L 398.6 84.1 C 398.6 84.1 398.56 82.32 398.6 82.3 C 398.6 79.8 399.9 79.4 401.4 79.4 C 401.39 79.38 402.9 79.4 402.9 79.4 L 402.9 80.7 C 402.9 80.7 401.64 80.74 401.6 80.7 C 400.4 80.7 400.1 81.3 400.1 82.4 C 400.09 82.36 400.1 84.1 400.1 84.1 L 407.4 84.1 L 407.4 95.4 L 405.9 95.4 Z M 419.8 87.7 C 419.83 87.65 419.8 95.4 419.8 95.4 L 418.3 95.4 C 418.3 95.4 418.3 87.84 418.3 87.8 C 418.3 86.3 417.4 85.3 415.8 85.3 C 413.9 85.3 412.2 86.7 412.2 89.5 C 412.21 89.46 412.2 95.4 412.2 95.4 L 410.7 95.4 L 410.7 84.1 L 412.2 84.1 C 412.2 84.1 412.21 86.2 412.2 86.2 C 412.9 84.9 414.1 83.9 416.1 83.9 C 418.4 83.9 419.8 85.2 419.8 87.7 Z " stroke="none" fill="#000"/>  </g>  <g id="Polygon11468">    <path d="M 5.3 55.5 C 4 55.5 3.7 56.1 3.7 57.2 C 3.72 57.16 3.7 58.9 3.7 58.9 L 6.2 58.9 L 6.2 60.3 L 3.7 60.3 L 3.7 70.2 L 2.2 70.2 L 2.2 60.3 L 0.3 60.3 L 0.3 58.9 L 2.2 58.9 C 2.2 58.9 2.18 57.12 2.2 57.1 C 2.2 54.6 3.5 54.2 5 54.2 C 5.02 54.18 6.5 54.2 6.5 54.2 L 6.5 55.5 C 6.5 55.5 5.27 55.54 5.3 55.5 Z M 15.4 68.1 C 14.6 69.8 12.9 70.4 11.4 70.4 C 9.5 70.4 7.8 69.3 7.8 67.1 C 7.8 65 9.3 64 11.2 63.8 C 11.2 63.8 13.9 63.4 13.9 63.4 C 14.7 63.3 15.4 63 15.4 62 C 15.4 60.7 14.3 60 12.7 60 C 11 60 10 60.8 9.7 62.1 C 9.7 62.1 8.2 62.1 8.2 62.1 C 8.5 59.8 10.3 58.7 12.8 58.7 C 15.4 58.7 16.9 59.9 16.9 62.4 C 16.93 62.39 16.9 70.2 16.9 70.2 L 15.4 70.2 C 15.4 70.2 15.43 68.12 15.4 68.1 Z M 13.6 64.7 C 13.6 64.7 11.8 64.9 11.8 64.9 C 10.4 65.1 9.3 65.6 9.3 67 C 9.3 68.4 10.4 69 11.7 69 C 13.4 69 15.4 67.7 15.4 65.3 C 15.4 65.3 15.4 64.2 15.4 64.2 C 15 64.5 14.3 64.6 13.6 64.7 Z M 21.6 70.2 L 20.1 70.2 L 20.1 54.2 L 21.6 54.2 L 21.6 70.2 Z M 26.5 70.2 L 25 70.2 L 25 54.2 L 26.5 54.2 L 26.5 70.2 Z M 37.3 70.2 C 37.3 70.2 37.27 68.04 37.3 68 C 36.5 69.6 35.1 70.3 33.5 70.3 C 31.4 70.3 29.8 69 29.8 66.4 C 29.76 66.36 29.8 58.9 29.8 58.9 L 31.3 58.9 C 31.3 58.9 31.29 66.17 31.3 66.2 C 31.3 68 32.3 69 33.8 69 C 35.6 69 37.2 67.6 37.2 64.7 C 37.21 64.74 37.2 58.9 37.2 58.9 L 38.7 58.9 L 38.7 70.2 L 37.3 70.2 Z M 51.8 70.2 L 50.2 70.2 L 46 58.9 L 47.6 58.9 L 51 68.6 L 54.4 58.9 L 56 58.9 L 51.8 70.2 Z M 58.6 64.9 C 58.6 67.7 60.4 69 62.3 69 C 63.8 69 65.3 68.3 65.6 66.7 C 65.6 66.7 67.1 66.7 67.1 66.7 C 66.6 69.3 64.4 70.4 62.3 70.4 C 59.6 70.4 57.1 68.6 57.1 64.6 C 57.1 60.5 59.6 58.7 62.3 58.7 C 65 58.7 67.2 60.4 67.2 64.2 C 67.18 64.15 67.2 64.9 67.2 64.9 C 67.2 64.9 58.59 64.91 58.6 64.9 Z M 58.6 63.6 C 58.6 63.6 65.6 63.6 65.6 63.6 C 65.6 61.3 64.2 60.1 62.3 60.1 C 60.5 60.1 58.8 61.2 58.6 63.6 Z M 79 62.5 C 78.96 62.45 79 70.2 79 70.2 L 77.4 70.2 C 77.4 70.2 77.43 62.64 77.4 62.6 C 77.4 61.1 76.5 60.1 74.9 60.1 C 73 60.1 71.3 61.5 71.3 64.3 C 71.34 64.26 71.3 70.2 71.3 70.2 L 69.8 70.2 L 69.8 58.9 L 71.3 58.9 C 71.3 58.9 71.34 61 71.3 61 C 72 59.7 73.3 58.7 75.2 58.7 C 77.5 58.7 79 60 79 62.5 Z M 83.9 54.2 L 82.1 54.2 L 82.1 56.1 L 83.9 56.1 L 83.9 54.2 Z M 83.7 70.2 L 82.2 70.2 L 82.2 58.9 L 83.7 58.9 L 83.7 70.2 Z M 92.7 60.2 C 92.7 60.2 92.38 60.23 92.4 60.2 C 90 60.2 88.6 61.6 88.6 64.2 C 88.64 64.2 88.6 70.2 88.6 70.2 L 87.1 70.2 L 87.1 58.9 L 88.6 58.9 C 88.6 58.9 88.62 60.98 88.6 61 C 89.1 59.5 90.5 58.8 92.3 58.8 C 92.25 58.78 92.7 58.8 92.7 58.8 L 92.7 60.2 Z M 100.1 64.9 C 100.2 67.7 101.9 69 103.9 69 C 105.4 69 106.8 68.3 107.2 66.7 C 107.2 66.7 108.6 66.7 108.6 66.7 C 108.1 69.3 105.9 70.4 103.8 70.4 C 101.1 70.4 98.6 68.6 98.6 64.6 C 98.6 60.5 101.2 58.7 103.9 58.7 C 106.5 58.7 108.7 60.4 108.7 64.2 C 108.72 64.15 108.7 64.9 108.7 64.9 C 108.7 64.9 100.13 64.91 100.1 64.9 Z M 100.2 63.6 C 100.2 63.6 107.2 63.6 107.2 63.6 C 107.2 61.3 105.7 60.1 103.8 60.1 C 102 60.1 100.4 61.2 100.2 63.6 Z M 120.5 62.5 C 120.5 62.45 120.5 70.2 120.5 70.2 L 119 70.2 C 119 70.2 118.96 62.64 119 62.6 C 119 61.1 118.1 60.1 116.5 60.1 C 114.6 60.1 112.9 61.5 112.9 64.3 C 112.87 64.26 112.9 70.2 112.9 70.2 L 111.3 70.2 L 111.3 58.9 L 112.9 58.9 C 112.9 58.9 112.87 61 112.9 61 C 113.5 59.7 114.8 58.7 116.8 58.7 C 119 58.7 120.5 60 120.5 62.5 Z M 136.4 68.1 C 135.5 69.8 133.8 70.4 132.3 70.4 C 130.4 70.4 128.7 69.3 128.7 67.1 C 128.7 65 130.2 64 132.1 63.8 C 132.1 63.8 134.8 63.4 134.8 63.4 C 135.6 63.3 136.4 63 136.4 62 C 136.4 60.7 135.2 60 133.6 60 C 131.9 60 130.9 60.8 130.7 62.1 C 130.7 62.1 129.1 62.1 129.1 62.1 C 129.4 59.8 131.2 58.7 133.7 58.7 C 136.3 58.7 137.8 59.9 137.8 62.4 C 137.84 62.39 137.8 70.2 137.8 70.2 L 136.4 70.2 C 136.4 70.2 136.35 68.12 136.4 68.1 Z M 134.5 64.7 C 134.5 64.7 132.8 64.9 132.8 64.9 C 131.3 65.1 130.3 65.6 130.3 67 C 130.3 68.4 131.4 69 132.6 69 C 134.4 69 136.3 67.7 136.3 65.3 C 136.3 65.3 136.3 64.2 136.3 64.2 C 135.9 64.5 135.2 64.6 134.5 64.7 Z M 142.6 54.2 L 140.9 54.2 L 140.9 56.1 L 142.6 56.1 L 142.6 54.2 Z M 142.5 70.2 L 141 70.2 L 141 58.9 L 142.5 58.9 L 142.5 70.2 Z M 155.7 70.2 L 154.2 70.2 C 154.2 70.2 154.22 68 154.2 68 C 153.7 69.3 152.3 70.4 150.2 70.4 C 147.2 70.4 145.1 68.1 145.1 64.5 C 145.1 61 147.2 58.7 150.2 58.7 C 152.1 58.7 153.5 59.6 154.2 60.8 C 154.16 60.82 154.2 54.2 154.2 54.2 L 155.7 54.2 L 155.7 70.2 Z M 154.1 64.5 C 154.1 61.7 152.6 60.1 150.4 60.1 C 148.2 60.1 146.7 61.8 146.7 64.5 C 146.7 67.3 148.2 69 150.4 69 C 152.6 69 154.1 67.3 154.1 64.5 Z M 159.8 64.9 C 159.9 67.7 161.6 69 163.6 69 C 165.1 69 166.5 68.3 166.9 66.7 C 166.9 66.7 168.3 66.7 168.3 66.7 C 167.8 69.3 165.6 70.4 163.5 70.4 C 160.8 70.4 158.3 68.6 158.3 64.6 C 158.3 60.5 160.9 58.7 163.6 58.7 C 166.2 58.7 168.4 60.4 168.4 64.2 C 168.42 64.15 168.4 64.9 168.4 64.9 C 168.4 64.9 159.83 64.91 159.8 64.9 Z M 159.9 63.6 C 159.9 63.6 166.9 63.6 166.9 63.6 C 166.9 61.3 165.4 60.1 163.5 60.1 C 161.7 60.1 160.1 61.2 159.9 63.6 Z M 176.6 64.9 C 176.7 67.7 178.4 69 180.4 69 C 181.9 69 183.4 68.3 183.7 66.7 C 183.7 66.7 185.2 66.7 185.2 66.7 C 184.7 69.3 182.5 70.4 180.3 70.4 C 177.6 70.4 175.1 68.6 175.1 64.6 C 175.1 60.5 177.7 58.7 180.4 58.7 C 183.1 58.7 185.2 60.4 185.2 64.2 C 185.24 64.15 185.2 64.9 185.2 64.9 C 185.2 64.9 176.65 64.91 176.6 64.9 Z M 176.7 63.6 C 176.7 63.6 183.7 63.6 183.7 63.6 C 183.7 61.3 182.2 60.1 180.3 60.1 C 178.6 60.1 176.9 61.2 176.7 63.6 Z M 197 62.5 C 197.02 62.45 197 70.2 197 70.2 L 195.5 70.2 C 195.5 70.2 195.49 62.64 195.5 62.6 C 195.5 61.1 194.6 60.1 193 60.1 C 191.1 60.1 189.4 61.5 189.4 64.3 C 189.4 64.26 189.4 70.2 189.4 70.2 L 187.9 70.2 L 187.9 58.9 L 189.4 58.9 C 189.4 58.9 189.4 61 189.4 61 C 190.1 59.7 191.3 58.7 193.3 58.7 C 195.5 58.7 197 60 197 62.5 Z M 216 70.2 L 205.3 70.2 L 205.3 68.7 C 205.3 68.7 209.24 65.16 209.2 65.2 C 211.9 62.7 213.8 61.2 213.8 58.9 C 213.8 57 212.4 55.9 210.5 55.9 C 208.6 55.9 206.9 57 206.8 59.5 C 206.8 59.5 205.2 59.5 205.2 59.5 C 205.3 56.1 207.8 54.4 210.6 54.4 C 213.3 54.4 215.4 56 215.4 58.8 C 215.4 61.4 213.7 63 210.9 65.6 C 210.88 65.56 207.3 68.8 207.3 68.8 L 216 68.8 L 216 70.2 Z M 218 62.5 C 218 57.6 219.6 54.4 223.2 54.4 C 226.7 54.4 228.3 57.6 228.3 62.4 C 228.3 67.3 226.7 70.4 223.1 70.4 C 219.6 70.4 218 67.3 218 62.5 Z M 226.7 62.5 C 226.7 58.9 225.7 55.9 223.1 55.9 C 220.7 55.9 219.6 58.5 219.6 62.3 C 219.6 66.2 220.7 68.9 223.2 68.9 C 225.7 68.9 226.7 66.3 226.7 62.5 Z M 241.2 70.2 L 230.5 70.2 L 230.5 68.7 C 230.5 68.7 234.44 65.16 234.4 65.2 C 237.1 62.7 239 61.2 239 58.9 C 239 57 237.6 55.9 235.7 55.9 C 233.8 55.9 232.1 57 232 59.5 C 232 59.5 230.4 59.5 230.4 59.5 C 230.5 56.1 233 54.4 235.8 54.4 C 238.5 54.4 240.6 56 240.6 58.8 C 240.6 61.4 238.9 63 236.1 65.6 C 236.08 65.56 232.5 68.8 232.5 68.8 L 241.2 68.8 L 241.2 70.2 Z M 243.2 62.5 C 243.2 57.6 244.8 54.4 248.4 54.4 C 251.9 54.4 253.5 57.6 253.5 62.4 C 253.5 67.3 251.9 70.4 248.3 70.4 C 244.8 70.4 243.2 67.3 243.2 62.5 Z M 251.9 62.5 C 251.9 58.9 250.9 55.9 248.3 55.9 C 245.9 55.9 244.8 58.5 244.8 62.3 C 244.8 66.2 245.9 68.9 248.4 68.9 C 250.9 68.9 251.9 66.3 251.9 62.5 Z M 272.5 64.5 C 272.5 68.6 270 70.3 267.4 70.3 C 265.4 70.3 264.2 69.4 263.5 68.2 C 263.55 68.23 263.5 74.5 263.5 74.5 L 262 74.5 L 262 58.9 L 263.5 58.9 C 263.5 58.9 263.5 61.28 263.5 61.3 C 264 59.9 265.5 58.7 267.5 58.7 C 270 58.7 272.5 60.4 272.5 64.5 Z M 271 64.5 C 271 61.4 269.2 60.2 267.3 60.2 C 265.4 60.2 263.6 61.4 263.6 64.6 C 263.6 67.7 265.4 68.9 267.3 68.9 C 269.1 68.9 271 67.7 271 64.5 Z M 274.4 64.6 C 274.4 60.9 276.7 58.7 279.8 58.7 C 282.9 58.7 285.1 60.9 285.1 64.6 C 285.1 68.2 282.9 70.4 279.8 70.4 C 276.7 70.4 274.4 68.2 274.4 64.6 Z M 283.5 64.5 C 283.5 61.7 281.8 60.1 279.7 60.1 C 277.5 60.1 276 61.8 276 64.6 C 276 67.4 277.7 69 279.8 69 C 282 69 283.5 67.3 283.5 64.5 Z M 295.2 70.2 C 295.2 70.2 295.15 68.04 295.2 68 C 294.4 69.6 293 70.3 291.4 70.3 C 289.3 70.3 287.6 69 287.6 66.4 C 287.63 66.36 287.6 58.9 287.6 58.9 L 289.2 58.9 C 289.2 58.9 289.17 66.17 289.2 66.2 C 289.2 68 290.2 69 291.7 69 C 293.5 69 295.1 67.6 295.1 64.7 C 295.09 64.74 295.1 58.9 295.1 58.9 L 296.6 58.9 L 296.6 70.2 L 295.2 70.2 Z M 305.6 60.2 C 305.6 60.2 305.25 60.23 305.3 60.2 C 302.9 60.2 301.5 61.6 301.5 64.2 C 301.51 64.2 301.5 70.2 301.5 70.2 L 300 70.2 L 300 58.9 L 301.5 58.9 C 301.5 58.9 301.49 60.98 301.5 61 C 302 59.5 303.4 58.8 305.1 58.8 C 305.13 58.78 305.6 58.8 305.6 58.8 L 305.6 60.2 Z M 313.2 60.2 C 313.2 60.2 312.87 60.23 312.9 60.2 C 310.5 60.2 309.1 61.6 309.1 64.2 C 309.14 64.2 309.1 70.2 309.1 70.2 L 307.6 70.2 L 307.6 58.9 L 309.1 58.9 C 309.1 58.9 309.12 60.98 309.1 61 C 309.6 59.5 311 58.8 312.7 58.8 C 312.75 58.78 313.2 58.8 313.2 58.8 L 313.2 60.2 Z M 322.2 68.1 C 321.3 69.8 319.6 70.4 318.1 70.4 C 316.2 70.4 314.5 69.3 314.5 67.1 C 314.5 65 316 64 317.9 63.8 C 317.9 63.8 320.6 63.4 320.6 63.4 C 321.4 63.3 322.2 63 322.2 62 C 322.2 60.7 321 60 319.4 60 C 317.7 60 316.7 60.8 316.5 62.1 C 316.5 62.1 314.9 62.1 314.9 62.1 C 315.2 59.8 317.1 58.7 319.5 58.7 C 322.1 58.7 323.6 59.9 323.6 62.4 C 323.65 62.39 323.6 70.2 323.6 70.2 L 322.2 70.2 C 322.2 70.2 322.16 68.12 322.2 68.1 Z M 320.3 64.7 C 320.3 64.7 318.6 64.9 318.6 64.9 C 317.1 65.1 316.1 65.6 316.1 67 C 316.1 68.4 317.2 69 318.4 69 C 320.2 69 322.1 67.7 322.1 65.3 C 322.1 65.3 322.1 64.2 322.1 64.2 C 321.7 64.5 321 64.6 320.3 64.7 Z M 328.4 54.2 L 326.7 54.2 L 326.7 56.1 L 328.4 56.1 L 328.4 54.2 Z M 328.3 70.2 L 326.8 70.2 L 326.8 58.9 L 328.3 58.9 L 328.3 70.2 Z M 332.5 64.9 C 332.5 67.7 334.2 69 336.2 69 C 337.7 69 339.2 68.3 339.5 66.7 C 339.5 66.7 341 66.7 341 66.7 C 340.5 69.3 338.3 70.4 336.1 70.4 C 333.5 70.4 331 68.6 331 64.6 C 331 60.5 333.5 58.7 336.2 58.7 C 338.9 58.7 341.1 60.4 341.1 64.2 C 341.06 64.15 341.1 64.9 341.1 64.9 C 341.1 64.9 332.47 64.91 332.5 64.9 Z M 332.5 63.6 C 332.5 63.6 339.5 63.6 339.5 63.6 C 339.5 61.3 338 60.1 336.1 60.1 C 334.4 60.1 332.7 61.2 332.5 63.6 Z M 352.8 62.5 C 352.84 62.45 352.8 70.2 352.8 70.2 L 351.3 70.2 C 351.3 70.2 351.3 62.64 351.3 62.6 C 351.3 61.1 350.4 60.1 348.8 60.1 C 346.9 60.1 345.2 61.5 345.2 64.3 C 345.21 64.26 345.2 70.2 345.2 70.2 L 343.7 70.2 L 343.7 58.9 L 345.2 58.9 C 345.2 58.9 345.21 61 345.2 61 C 345.9 59.7 347.1 58.7 349.1 58.7 C 351.4 58.7 352.8 60 352.8 62.5 Z M 361.2 70.2 C 361.2 70.2 359.58 70.18 359.6 70.2 C 358.1 70.2 356.7 69.7 356.7 67.2 C 356.74 67.22 356.7 60.3 356.7 60.3 L 354.5 60.3 L 354.5 58.9 L 356.7 58.9 L 356.7 55.7 L 358.3 55.3 L 358.3 58.9 L 361 58.9 L 361 60.3 L 358.3 60.3 C 358.3 60.3 358.28 67.2 358.3 67.2 C 358.3 68.2 358.6 68.8 359.8 68.8 C 359.83 68.8 361.2 68.8 361.2 68.8 L 361.2 70.2 Z M 372.3 55.5 C 371 55.5 370.7 56.1 370.7 57.2 C 370.73 57.16 370.7 58.9 370.7 58.9 L 373.2 58.9 L 373.2 60.3 L 370.7 60.3 L 370.7 70.2 L 369.2 70.2 L 369.2 60.3 L 367.3 60.3 L 367.3 58.9 L 369.2 58.9 C 369.2 58.9 369.2 57.12 369.2 57.1 C 369.2 54.6 370.5 54.2 372 54.2 C 372.03 54.18 373.5 54.2 373.5 54.2 L 373.5 55.5 C 373.5 55.5 372.28 55.54 372.3 55.5 Z M 382.4 68.1 C 381.6 69.8 379.9 70.4 378.4 70.4 C 376.5 70.4 374.8 69.3 374.8 67.1 C 374.8 65 376.3 64 378.2 63.8 C 378.2 63.8 380.9 63.4 380.9 63.4 C 381.7 63.3 382.4 63 382.4 62 C 382.4 60.7 381.3 60 379.7 60 C 378 60 377 60.8 376.8 62.1 C 376.8 62.1 375.2 62.1 375.2 62.1 C 375.5 59.8 377.3 58.7 379.8 58.7 C 382.4 58.7 383.9 59.9 383.9 62.4 C 383.94 62.39 383.9 70.2 383.9 70.2 L 382.4 70.2 C 382.4 70.2 382.45 68.12 382.4 68.1 Z M 380.6 64.7 C 380.6 64.7 378.9 64.9 378.9 64.9 C 377.4 65.1 376.4 65.6 376.4 67 C 376.4 68.4 377.4 69 378.7 69 C 380.5 69 382.4 67.7 382.4 65.3 C 382.4 65.3 382.4 64.2 382.4 64.2 C 382 64.5 381.3 64.6 380.6 64.7 Z M 388.7 54.2 L 387 54.2 L 387 56.1 L 388.7 56.1 L 388.7 54.2 Z M 388.6 70.2 L 387.1 70.2 L 387.1 58.9 L 388.6 58.9 L 388.6 70.2 Z M 397.6 60.2 C 397.6 60.2 397.25 60.23 397.3 60.2 C 394.9 60.2 393.5 61.6 393.5 64.2 C 393.51 64.2 393.5 70.2 393.5 70.2 L 392 70.2 L 392 58.9 L 393.5 58.9 C 393.5 58.9 393.49 60.98 393.5 61 C 394 59.5 395.4 58.8 397.1 58.8 C 397.13 58.78 397.6 58.8 397.6 58.8 L 397.6 60.2 Z M 400.2 64.9 C 400.2 67.7 401.9 69 403.9 69 C 405.4 69 406.9 68.3 407.2 66.7 C 407.2 66.7 408.7 66.7 408.7 66.7 C 408.2 69.3 406 70.4 403.8 70.4 C 401.2 70.4 398.7 68.6 398.7 64.6 C 398.7 60.5 401.2 58.7 403.9 58.7 C 406.6 58.7 408.8 60.4 408.8 64.2 C 408.76 64.15 408.8 64.9 408.8 64.9 C 408.8 64.9 400.17 64.91 400.2 64.9 Z M 400.2 63.6 C 400.2 63.6 407.2 63.6 407.2 63.6 C 407.2 61.3 405.7 60.1 403.8 60.1 C 402.1 60.1 400.4 61.2 400.2 63.6 Z " stroke="none" fill="#000"/>  </g>  <g id="Polygon11467">    <path d="M 7.3 35 C 7.3 35 6.95 35.03 7 35 C 4.6 35 3.2 36.4 3.2 39 C 3.21 39 3.2 45 3.2 45 L 1.7 45 L 1.7 33.7 L 3.2 33.7 C 3.2 33.7 3.19 35.78 3.2 35.8 C 3.7 34.3 5.1 33.6 6.8 33.6 C 6.82 33.58 7.3 33.6 7.3 33.6 L 7.3 35 Z M 14.2 31.4 L 13 31.4 L 15.5 27.6 L 16.8 28.6 L 14.2 31.4 Z M 9.9 39.7 C 9.9 42.5 11.6 43.8 13.6 43.8 C 15.1 43.8 16.6 43.1 16.9 41.5 C 16.9 41.5 18.4 41.5 18.4 41.5 C 17.9 44.1 15.7 45.2 13.5 45.2 C 10.9 45.2 8.4 43.4 8.4 39.4 C 8.4 35.3 10.9 33.5 13.6 33.5 C 16.3 33.5 18.5 35.2 18.5 39 C 18.46 38.95 18.5 39.7 18.5 39.7 C 18.5 39.7 9.87 39.71 9.9 39.7 Z M 9.9 38.4 C 9.9 38.4 16.9 38.4 16.9 38.4 C 16.9 36.1 15.4 34.9 13.5 34.9 C 11.8 34.9 10.1 36 9.9 38.4 Z M 30.8 44.5 C 30.8 47.9 28.6 49.6 25.7 49.6 C 23.2 49.6 21 48.3 20.6 45.7 C 20.6 45.7 22.2 45.7 22.2 45.7 C 22.4 47.1 23.4 48.3 25.7 48.3 C 27.8 48.3 29.3 47.2 29.3 44.6 C 29.3 44.6 29.3 42.3 29.3 42.3 C 28.5 44 26.8 44.6 25.3 44.6 C 22.6 44.6 20.3 42.7 20.3 39 C 20.3 35.3 22.7 33.5 25.4 33.5 C 27.2 33.5 28.6 34.3 29.3 35.5 C 29.27 35.53 29.3 33.7 29.3 33.7 L 30.8 33.7 C 30.8 33.7 30.79 44.48 30.8 44.5 Z M 29.2 39 C 29.2 36.2 27.5 34.8 25.6 34.8 C 23.7 34.8 21.9 36.2 21.9 39 C 21.9 41.8 23.6 43.2 25.6 43.2 C 27.4 43.2 29.2 42 29.2 39 Z M 35.6 45 L 34 45 L 34 29 L 35.6 29 L 35.6 45 Z M 39.7 39.7 C 39.8 42.5 41.5 43.8 43.5 43.8 C 45 43.8 46.4 43.1 46.8 41.5 C 46.8 41.5 48.2 41.5 48.2 41.5 C 47.7 44.1 45.5 45.2 43.4 45.2 C 40.7 45.2 38.2 43.4 38.2 39.4 C 38.2 35.3 40.7 33.5 43.4 33.5 C 46.1 33.5 48.3 35.2 48.3 39 C 48.3 38.95 48.3 39.7 48.3 39.7 C 48.3 39.7 39.71 39.71 39.7 39.7 Z M 39.8 38.4 C 39.8 38.4 46.7 38.4 46.7 38.4 C 46.7 36.1 45.3 34.9 43.4 34.9 C 41.6 34.9 40 36 39.8 38.4 Z M 50.9 33.7 L 52.4 33.7 C 52.4 33.7 52.44 35.57 52.4 35.6 C 53 34.2 54.3 33.5 55.7 33.5 C 57.4 33.5 58.7 34.4 59.1 35.8 C 59.6 34.6 60.8 33.5 62.7 33.5 C 64.8 33.5 66.4 34.6 66.4 36.9 C 66.4 36.9 66.4 45 66.4 45 L 64.9 45 C 64.9 45 64.87 37.44 64.9 37.4 C 64.9 35.7 63.8 34.9 62.5 34.9 C 60.8 34.9 59.4 36.2 59.4 38.5 C 59.41 38.53 59.4 45 59.4 45 L 57.9 45 C 57.9 45 57.9 37.44 57.9 37.4 C 57.9 35.7 56.9 34.9 55.5 34.9 C 53.9 34.9 52.5 36.1 52.5 38.5 C 52.46 38.53 52.5 45 52.5 45 L 50.9 45 L 50.9 33.7 Z M 70.4 39.7 C 70.5 42.5 72.2 43.8 74.2 43.8 C 75.7 43.8 77.2 43.1 77.5 41.5 C 77.5 41.5 78.9 41.5 78.9 41.5 C 78.4 44.1 76.3 45.2 74.1 45.2 C 71.4 45.2 68.9 43.4 68.9 39.4 C 68.9 35.3 71.5 33.5 74.2 33.5 C 76.8 33.5 79 35.2 79 39 C 79.02 38.95 79 39.7 79 39.7 C 79 39.7 70.43 39.71 70.4 39.7 Z M 70.5 38.4 C 70.5 38.4 77.5 38.4 77.5 38.4 C 77.5 36.1 76 34.9 74.1 34.9 C 72.3 34.9 70.7 36 70.5 38.4 Z M 90.8 37.3 C 90.8 37.25 90.8 45 90.8 45 L 89.3 45 C 89.3 45 89.27 37.44 89.3 37.4 C 89.3 35.9 88.4 34.9 86.8 34.9 C 84.9 34.9 83.2 36.3 83.2 39.1 C 83.18 39.06 83.2 45 83.2 45 L 81.6 45 L 81.6 33.7 L 83.2 33.7 C 83.2 33.7 83.18 35.8 83.2 35.8 C 83.9 34.5 85.1 33.5 87.1 33.5 C 89.3 33.5 90.8 34.8 90.8 37.3 Z M 99.2 45 C 99.2 45 97.54 44.98 97.5 45 C 96.1 45 94.7 44.5 94.7 42 C 94.71 42.02 94.7 35.1 94.7 35.1 L 92.5 35.1 L 92.5 33.7 L 94.7 33.7 L 94.7 30.5 L 96.2 30.1 L 96.2 33.7 L 99 33.7 L 99 35.1 L 96.2 35.1 C 96.2 35.1 96.24 42 96.2 42 C 96.2 43 96.5 43.6 97.8 43.6 C 97.8 43.6 99.2 43.6 99.2 43.6 L 99.2 45 Z M 108.3 42.9 C 107.5 44.6 105.8 45.2 104.3 45.2 C 102.4 45.2 100.7 44.1 100.7 41.9 C 100.7 39.8 102.2 38.8 104.1 38.6 C 104.1 38.6 106.8 38.2 106.8 38.2 C 107.6 38.1 108.3 37.8 108.3 36.8 C 108.3 35.5 107.2 34.8 105.6 34.8 C 103.9 34.8 102.9 35.6 102.6 36.9 C 102.6 36.9 101.1 36.9 101.1 36.9 C 101.4 34.6 103.2 33.5 105.7 33.5 C 108.3 33.5 109.8 34.7 109.8 37.2 C 109.83 37.19 109.8 45 109.8 45 L 108.3 45 C 108.3 45 108.34 42.92 108.3 42.9 Z M 106.5 39.5 C 106.5 39.5 104.7 39.7 104.7 39.7 C 103.3 39.9 102.2 40.4 102.2 41.8 C 102.2 43.2 103.3 43.8 104.6 43.8 C 106.3 43.8 108.3 42.5 108.3 40.1 C 108.3 40.1 108.3 39 108.3 39 C 107.9 39.3 107.2 39.4 106.5 39.5 Z M 118.1 45 C 118.1 45 116.46 44.98 116.5 45 C 115 45 113.6 44.5 113.6 42 C 113.63 42.02 113.6 35.1 113.6 35.1 L 111.4 35.1 L 111.4 33.7 L 113.6 33.7 L 113.6 30.5 L 115.2 30.1 L 115.2 33.7 L 117.9 33.7 L 117.9 35.1 L 115.2 35.1 C 115.2 35.1 115.16 42 115.2 42 C 115.2 43 115.5 43.6 116.7 43.6 C 116.72 43.6 118.1 43.6 118.1 43.6 L 118.1 45 Z M 122 29 L 120.2 29 L 120.2 30.9 L 122 30.9 L 122 29 Z M 121.9 45 L 120.3 45 L 120.3 33.7 L 121.9 33.7 L 121.9 45 Z M 124.5 39.4 C 124.5 35.7 126.7 33.5 129.8 33.5 C 132.9 33.5 135.2 35.7 135.2 39.4 C 135.2 43 132.9 45.2 129.8 45.2 C 126.7 45.2 124.5 43 124.5 39.4 Z M 133.6 39.3 C 133.6 36.5 131.9 34.9 129.8 34.9 C 127.6 34.9 126.1 36.6 126.1 39.4 C 126.1 42.2 127.8 43.8 129.9 43.8 C 132 43.8 133.6 42.1 133.6 39.3 Z M 147 37.3 C 146.96 37.25 147 45 147 45 L 145.4 45 C 145.4 45 145.42 37.44 145.4 37.4 C 145.4 35.9 144.5 34.9 142.9 34.9 C 141 34.9 139.3 36.3 139.3 39.1 C 139.33 39.06 139.3 45 139.3 45 L 137.8 45 L 137.8 33.7 L 139.3 33.7 C 139.3 33.7 139.33 35.8 139.3 35.8 C 140 34.5 141.3 33.5 143.2 33.5 C 145.5 33.5 147 34.8 147 37.3 Z M 149.5 42.8 L 151.6 42.8 L 151.6 45 L 149.5 45 L 149.5 42.8 Z M 172.2 36.8 C 172.2 40.9 169.6 45 164.3 45 C 164.26 44.98 159.7 45 159.7 45 L 159.7 29.2 C 159.7 29.2 164.53 29.23 164.5 29.2 C 169.6 29.2 172.2 32.9 172.2 36.8 Z M 170.5 36.9 C 170.5 33.7 168.5 30.6 164.4 30.6 C 164.41 30.64 161.3 30.6 161.3 30.6 L 161.3 43.5 C 161.3 43.5 164.28 43.53 164.3 43.5 C 168.4 43.5 170.5 40.2 170.5 36.9 Z M 175.8 39.7 C 175.8 42.5 177.5 43.8 179.5 43.8 C 181 43.8 182.5 43.1 182.8 41.5 C 182.8 41.5 184.3 41.5 184.3 41.5 C 183.8 44.1 181.6 45.2 179.4 45.2 C 176.8 45.2 174.3 43.4 174.3 39.4 C 174.3 35.3 176.8 33.5 179.5 33.5 C 182.2 33.5 184.4 35.2 184.4 39 C 184.36 38.95 184.4 39.7 184.4 39.7 C 184.4 39.7 175.77 39.71 175.8 39.7 Z M 175.8 38.4 C 175.8 38.4 182.8 38.4 182.8 38.4 C 182.8 36.1 181.3 34.9 179.4 34.9 C 177.7 34.9 176 36 175.8 38.4 Z M 195.4 41.8 C 195.4 44.1 193.3 45.2 191 45.2 C 188.6 45.2 186.4 44 186.1 41.5 C 186.1 41.5 187.8 41.5 187.8 41.5 C 188 43.2 189.5 43.8 191 43.8 C 192.5 43.8 193.8 43.3 193.8 42 C 193.8 40.7 192.5 40.4 191.1 40.2 C 189 39.8 186.4 39.4 186.4 36.8 C 186.4 34.6 188.3 33.5 190.7 33.5 C 193.1 33.5 194.9 34.6 195.1 36.9 C 195.1 36.9 193.5 36.9 193.5 36.9 C 193.4 35.5 192.1 34.9 190.6 34.9 C 189.1 34.9 188 35.6 188 36.7 C 188 38.2 189.4 38.4 191.1 38.7 C 193.1 39 195.4 39.3 195.4 41.8 Z M 211.1 41.8 C 211.1 44.1 209 45.2 206.7 45.2 C 204.3 45.2 202.1 44 201.9 41.5 C 201.9 41.5 203.5 41.5 203.5 41.5 C 203.8 43.2 205.2 43.8 206.8 43.8 C 208.2 43.8 209.5 43.3 209.5 42 C 209.5 40.7 208.2 40.4 206.9 40.2 C 204.7 39.8 202.1 39.4 202.1 36.8 C 202.1 34.6 204.1 33.5 206.4 33.5 C 208.8 33.5 210.7 34.6 210.8 36.9 C 210.8 36.9 209.2 36.9 209.2 36.9 C 209.1 35.5 207.8 34.9 206.3 34.9 C 204.8 34.9 203.7 35.6 203.7 36.7 C 203.7 38.2 205.1 38.4 206.8 38.7 C 208.8 39 211.1 39.3 211.1 41.8 Z M 214.4 39.7 C 214.4 42.5 216.2 43.8 218.1 43.8 C 219.6 43.8 221.1 43.1 221.4 41.5 C 221.4 41.5 222.9 41.5 222.9 41.5 C 222.4 44.1 220.2 45.2 218.1 45.2 C 215.4 45.2 212.9 43.4 212.9 39.4 C 212.9 35.3 215.4 33.5 218.1 33.5 C 220.8 33.5 223 35.2 223 39 C 222.98 38.95 223 39.7 223 39.7 C 223 39.7 214.39 39.71 214.4 39.7 Z M 214.4 38.4 C 214.4 38.4 221.4 38.4 221.4 38.4 C 221.4 36.1 220 34.9 218.1 34.9 C 216.3 34.9 214.6 36 214.4 38.4 Z M 230.1 45.2 C 227 45.2 224.9 42.9 224.9 39.4 C 224.9 35.8 227 33.5 230.2 33.5 C 232.7 33.5 234.7 34.9 234.9 37.4 C 234.9 37.4 233.4 37.4 233.4 37.4 C 233.2 35.8 231.8 34.9 230.2 34.9 C 228 34.9 226.4 36.6 226.4 39.3 C 226.4 42.1 228 43.8 230.2 43.8 C 231.9 43.8 233.2 42.8 233.4 41 C 233.4 41 234.9 41 234.9 41 C 234.7 43.7 232.6 45.2 230.1 45.2 Z M 242.7 45 C 242.7 45 240.99 44.98 241 45 C 239.5 45 238.2 44.5 238.2 42 C 238.16 42.02 238.2 35.1 238.2 35.1 L 235.9 35.1 L 235.9 33.7 L 238.2 33.7 L 238.2 30.5 L 239.7 30.1 L 239.7 33.7 L 242.4 33.7 L 242.4 35.1 L 239.7 35.1 C 239.7 35.1 239.69 42 239.7 42 C 239.7 43 240 43.6 241.2 43.6 C 241.25 43.6 242.7 43.6 242.7 43.6 L 242.7 45 Z M 245.6 39.7 C 245.7 42.5 247.4 43.8 249.4 43.8 C 250.9 43.8 252.4 43.1 252.7 41.5 C 252.7 41.5 254.1 41.5 254.1 41.5 C 253.6 44.1 251.5 45.2 249.3 45.2 C 246.6 45.2 244.1 43.4 244.1 39.4 C 244.1 35.3 246.7 33.5 249.4 33.5 C 252 33.5 254.2 35.2 254.2 39 C 254.22 38.95 254.2 39.7 254.2 39.7 C 254.2 39.7 245.63 39.71 245.6 39.7 Z M 245.7 38.4 C 245.7 38.4 252.7 38.4 252.7 38.4 C 252.7 36.1 251.2 34.9 249.3 34.9 C 247.5 34.9 245.9 36 245.7 38.4 Z M 264.3 45 C 264.3 45 264.26 42.84 264.3 42.8 C 263.5 44.4 262.1 45.1 260.5 45.1 C 258.4 45.1 256.7 43.8 256.7 41.2 C 256.74 41.16 256.7 33.7 256.7 33.7 L 258.3 33.7 C 258.3 33.7 258.28 40.97 258.3 41 C 258.3 42.8 259.3 43.8 260.8 43.8 C 262.6 43.8 264.2 42.4 264.2 39.5 C 264.2 39.54 264.2 33.7 264.2 33.7 L 265.7 33.7 L 265.7 45 L 264.3 45 Z M 274.7 35 C 274.7 35 274.36 35.03 274.4 35 C 272 35 270.6 36.4 270.6 39 C 270.62 39 270.6 45 270.6 45 L 269.1 45 L 269.1 33.7 L 270.6 33.7 C 270.6 33.7 270.6 35.78 270.6 35.8 C 271.1 34.3 272.5 33.6 274.2 33.6 C 274.24 33.58 274.7 33.6 274.7 33.6 L 274.7 35 Z M 285.1 41.8 C 285.1 44.1 283 45.2 280.7 45.2 C 278.3 45.2 276.1 44 275.9 41.5 C 275.9 41.5 277.5 41.5 277.5 41.5 C 277.8 43.2 279.2 43.8 280.8 43.8 C 282.2 43.8 283.5 43.3 283.5 42 C 283.5 40.7 282.2 40.4 280.9 40.2 C 278.7 39.8 276.1 39.4 276.1 36.8 C 276.1 34.6 278.1 33.5 280.4 33.5 C 282.8 33.5 284.7 34.6 284.8 36.9 C 284.8 36.9 283.2 36.9 283.2 36.9 C 283.1 35.5 281.8 34.9 280.3 34.9 C 278.8 34.9 277.7 35.6 277.7 36.7 C 277.7 38.2 279.1 38.4 280.8 38.7 C 282.8 39 285.1 39.3 285.1 41.8 Z M 299.8 42.9 C 298.9 44.6 297.2 45.2 295.8 45.2 C 293.8 45.2 292.1 44.1 292.1 41.9 C 292.1 39.8 293.6 38.8 295.6 38.6 C 295.6 38.6 298.2 38.2 298.2 38.2 C 299.1 38.1 299.8 37.8 299.8 36.8 C 299.8 35.5 298.6 34.8 297.1 34.8 C 295.4 34.8 294.3 35.6 294.1 36.9 C 294.1 36.9 292.6 36.9 292.6 36.9 C 292.9 34.6 294.7 33.5 297.2 33.5 C 299.7 33.5 301.3 34.7 301.3 37.2 C 301.28 37.19 301.3 45 301.3 45 L 299.8 45 C 299.8 45 299.79 42.92 299.8 42.9 Z M 297.9 39.5 C 297.9 39.5 296.2 39.7 296.2 39.7 C 294.8 39.9 293.7 40.4 293.7 41.8 C 293.7 43.2 294.8 43.8 296 43.8 C 297.8 43.8 299.8 42.5 299.8 40.1 C 299.8 40.1 299.8 39 299.8 39 C 299.3 39.3 298.7 39.4 297.9 39.5 Z M 311.8 45 C 311.8 45 311.85 42.84 311.8 42.8 C 311.1 44.4 309.7 45.1 308.1 45.1 C 306 45.1 304.3 43.8 304.3 41.2 C 304.33 41.16 304.3 33.7 304.3 33.7 L 305.9 33.7 C 305.9 33.7 305.86 40.97 305.9 41 C 305.9 42.8 306.9 43.8 308.4 43.8 C 310.2 43.8 311.8 42.4 311.8 39.5 C 311.78 39.54 311.8 33.7 311.8 33.7 L 313.3 33.7 L 313.3 45 L 311.8 45 Z M 319.9 39.2 L 315.7 33.7 L 317.7 33.7 L 320.8 38.1 L 324 33.7 L 325.8 33.7 L 321.8 39.1 L 326.2 45 L 324.2 45 L 320.8 40.3 L 317.4 45 L 315.5 45 L 319.9 39.2 Z M 336.2 49.3 C 336.2 49.3 336.21 42.82 336.2 42.8 C 335.6 44.1 334.2 45.1 332.3 45.1 C 329.8 45.1 327.2 43.4 327.2 39.2 C 327.2 35.2 329.8 33.5 332.3 33.5 C 334.2 33.5 335.6 34.5 336.2 35.7 C 336.25 35.68 336.2 33.7 336.2 33.7 L 337.7 33.7 L 337.7 49.3 L 336.2 49.3 Z M 336.2 39.3 C 336.2 36.1 334.3 34.9 332.5 34.9 C 330.6 34.9 328.8 36.1 328.8 39.3 C 328.8 42.4 330.6 43.7 332.5 43.7 C 334.3 43.7 336.2 42.4 336.2 39.3 Z M 348.4 45 C 348.4 45 348.41 42.84 348.4 42.8 C 347.6 44.4 346.2 45.1 344.6 45.1 C 342.5 45.1 340.9 43.8 340.9 41.2 C 340.89 41.16 340.9 33.7 340.9 33.7 L 342.4 33.7 C 342.4 33.7 342.42 40.97 342.4 41 C 342.4 42.8 343.4 43.8 344.9 43.8 C 346.7 43.8 348.3 42.4 348.3 39.5 C 348.34 39.54 348.3 33.7 348.3 33.7 L 349.9 33.7 L 349.9 45 L 348.4 45 Z M 354 39.7 C 354.1 42.5 355.8 43.8 357.8 43.8 C 359.3 43.8 360.7 43.1 361.1 41.5 C 361.1 41.5 362.5 41.5 362.5 41.5 C 362 44.1 359.8 45.2 357.7 45.2 C 355 45.2 352.5 43.4 352.5 39.4 C 352.5 35.3 355 33.5 357.8 33.5 C 360.4 33.5 362.6 35.2 362.6 39 C 362.6 38.95 362.6 39.7 362.6 39.7 C 362.6 39.7 354.01 39.71 354 39.7 Z M 354.1 38.4 C 354.1 38.4 361 38.4 361 38.4 C 361 36.1 359.6 34.9 357.7 34.9 C 355.9 34.9 354.3 36 354.1 38.4 Z M 366.8 45 L 365.2 45 L 365.2 29 L 366.8 29 L 366.8 45 Z M 378.5 41.8 C 378.5 44.1 376.4 45.2 374.2 45.2 C 371.7 45.2 369.5 44 369.3 41.5 C 369.3 41.5 370.9 41.5 370.9 41.5 C 371.2 43.2 372.6 43.8 374.2 43.8 C 375.6 43.8 376.9 43.3 376.9 42 C 376.9 40.7 375.6 40.4 374.3 40.2 C 372.1 39.8 369.6 39.4 369.6 36.8 C 369.6 34.6 371.5 33.5 373.8 33.5 C 376.2 33.5 378.1 34.6 378.2 36.9 C 378.2 36.9 376.6 36.9 376.6 36.9 C 376.5 35.5 375.2 34.9 373.7 34.9 C 372.2 34.9 371.1 35.6 371.1 36.7 C 371.1 38.2 372.5 38.4 374.2 38.7 C 376.3 39 378.5 39.3 378.5 41.8 Z M 387.9 29 L 386.2 29 L 386.2 30.9 L 387.9 30.9 L 387.9 29 Z M 387.8 45 L 386.3 45 L 386.3 33.7 L 387.8 33.7 L 387.8 45 Z M 392.7 45 L 391.2 45 L 391.2 29 L 392.7 29 L 392.7 45 Z M 408.7 42.9 C 407.8 44.6 406.1 45.2 404.6 45.2 C 402.7 45.2 401 44.1 401 41.9 C 401 39.8 402.5 38.8 404.4 38.6 C 404.4 38.6 407.1 38.2 407.1 38.2 C 407.9 38.1 408.7 37.8 408.7 36.8 C 408.7 35.5 407.5 34.8 405.9 34.8 C 404.2 34.8 403.2 35.6 403 36.9 C 403 36.9 401.4 36.9 401.4 36.9 C 401.7 34.6 403.6 33.5 406 33.5 C 408.6 33.5 410.1 34.7 410.1 37.2 C 410.15 37.19 410.1 45 410.1 45 L 408.7 45 C 408.7 45 408.65 42.92 408.7 42.9 Z M 406.8 39.5 C 406.8 39.5 405.1 39.7 405.1 39.7 C 403.6 39.9 402.6 40.4 402.6 41.8 C 402.6 43.2 403.7 43.8 404.9 43.8 C 406.7 43.8 408.6 42.5 408.6 40.1 C 408.6 40.1 408.6 39 408.6 39 C 408.2 39.3 407.5 39.4 406.8 39.5 Z " stroke="none" fill="#000"/>  </g>  <g id="Polygon11466">    <path d="M 1.9 19.8 L 1.9 4 L 11.8 4 L 11.8 5.4 L 3.5 5.4 L 3.5 11.1 L 11.3 11.1 L 11.3 12.5 L 3.5 12.5 L 3.5 18.3 L 12.2 18.3 L 12.2 19.8 L 1.9 19.8 Z M 24 12.1 C 23.96 12.05 24 19.8 24 19.8 L 22.4 19.8 C 22.4 19.8 22.43 12.24 22.4 12.2 C 22.4 10.7 21.5 9.7 20 9.7 C 18 9.7 16.3 11.1 16.3 13.9 C 16.34 13.86 16.3 19.8 16.3 19.8 L 14.8 19.8 L 14.8 8.5 L 16.3 8.5 C 16.3 8.5 16.34 10.6 16.3 10.6 C 17 9.3 18.3 8.3 20.2 8.3 C 22.5 8.3 24 9.6 24 12.1 Z M 35.6 16.6 C 35.6 18.9 33.5 20 31.2 20 C 28.8 20 26.6 18.8 26.4 16.3 C 26.4 16.3 28 16.3 28 16.3 C 28.3 18 29.7 18.6 31.3 18.6 C 32.7 18.6 34 18.1 34 16.8 C 34 15.5 32.7 15.2 31.4 15 C 29.2 14.6 26.6 14.2 26.6 11.6 C 26.6 9.4 28.6 8.3 30.9 8.3 C 33.3 8.3 35.2 9.4 35.3 11.7 C 35.3 11.7 33.7 11.7 33.7 11.7 C 33.6 10.3 32.3 9.7 30.8 9.7 C 29.3 9.7 28.2 10.4 28.2 11.5 C 28.2 13 29.6 13.2 31.3 13.5 C 33.3 13.8 35.6 14.1 35.6 16.6 Z M 45.5 19.8 C 45.5 19.8 45.53 17.64 45.5 17.6 C 44.8 19.2 43.4 19.9 41.8 19.9 C 39.6 19.9 38 18.6 38 16 C 38.01 15.96 38 8.5 38 8.5 L 39.5 8.5 C 39.5 8.5 39.54 15.77 39.5 15.8 C 39.5 17.6 40.6 18.6 42 18.6 C 43.8 18.6 45.5 17.2 45.5 14.3 C 45.46 14.34 45.5 8.5 45.5 8.5 L 47 8.5 L 47 19.8 L 45.5 19.8 Z M 52 3.8 L 50.3 3.8 L 50.3 5.7 L 52 5.7 L 52 3.8 Z M 51.9 19.8 L 50.4 19.8 L 50.4 8.5 L 51.9 8.5 L 51.9 19.8 Z M 60.4 19.8 C 60.4 19.8 58.74 19.78 58.7 19.8 C 57.2 19.8 55.9 19.3 55.9 16.8 C 55.9 16.82 55.9 9.9 55.9 9.9 L 53.7 9.9 L 53.7 8.5 L 55.9 8.5 L 55.9 5.3 L 57.4 4.9 L 57.4 8.5 L 60.2 8.5 L 60.2 9.9 L 57.4 9.9 C 57.4 9.9 57.43 16.8 57.4 16.8 C 57.4 17.8 57.7 18.4 59 18.4 C 58.99 18.4 60.4 18.4 60.4 18.4 L 60.4 19.8 Z M 63.4 14.5 C 63.4 17.3 65.1 18.6 67.1 18.6 C 68.6 18.6 70.1 17.9 70.4 16.3 C 70.4 16.3 71.9 16.3 71.9 16.3 C 71.4 18.9 69.2 20 67.1 20 C 64.4 20 61.9 18.2 61.9 14.2 C 61.9 10.1 64.4 8.3 67.1 8.3 C 69.8 8.3 72 10 72 13.8 C 71.97 13.75 72 14.5 72 14.5 C 72 14.5 63.38 14.51 63.4 14.5 Z M 63.4 13.2 C 63.4 13.2 70.4 13.2 70.4 13.2 C 70.4 10.9 68.9 9.7 67.1 9.7 C 65.3 9.7 63.6 10.8 63.4 13.2 Z M 75.7 19.7 C 75.68 19.66 74.7 19.7 74.7 19.7 L 74.7 17.6 L 76.9 17.6 C 76.9 17.6 76.9 19.72 76.9 19.7 C 76.9 22.2 75.4 23.1 73.9 23.2 C 73.9 23.2 73.6 22.3 73.6 22.3 C 75.3 22 75.7 21 75.7 19.7 Z M 86.2 3.8 L 84.5 3.8 L 84.5 5.7 L 86.2 5.7 L 86.2 3.8 Z M 86.1 19.8 L 84.6 19.8 L 84.6 8.5 L 86.1 8.5 L 86.1 19.8 Z M 91 19.8 L 89.5 19.8 L 89.5 3.8 L 91 3.8 L 91 19.8 Z M 102.9 21.9 C 102.5 23.1 101.5 23.5 100.3 23.5 C 100.32 23.48 99.2 23.5 99.2 23.5 L 99.2 22.1 C 99.2 22.1 100.11 22.11 100.1 22.1 C 101.1 22.1 101.6 21.8 101.9 20.8 C 101.91 20.79 102.4 19.3 102.4 19.3 L 98.2 8.5 L 99.9 8.5 L 103.2 17.4 L 106.5 8.5 L 108 8.5 C 108 8.5 102.92 21.92 102.9 21.9 Z M 122.2 17.7 C 121.3 19.4 119.6 20 118.2 20 C 116.3 20 114.5 18.9 114.5 16.7 C 114.5 14.6 116 13.6 118 13.4 C 118 13.4 120.6 13 120.6 13 C 121.5 12.9 122.2 12.6 122.2 11.6 C 122.2 10.3 121 9.6 119.5 9.6 C 117.8 9.6 116.7 10.4 116.5 11.7 C 116.5 11.7 115 11.7 115 11.7 C 115.3 9.4 117.1 8.3 119.6 8.3 C 122.1 8.3 123.7 9.5 123.7 12 C 123.69 11.99 123.7 19.8 123.7 19.8 L 122.2 19.8 C 122.2 19.8 122.2 17.72 122.2 17.7 Z M 120.3 14.3 C 120.3 14.3 118.6 14.5 118.6 14.5 C 117.2 14.7 116.1 15.2 116.1 16.6 C 116.1 18 117.2 18.6 118.4 18.6 C 120.2 18.6 122.2 17.3 122.2 14.9 C 122.2 14.9 122.2 13.8 122.2 13.8 C 121.7 14.1 121.1 14.2 120.3 14.3 Z M 133.6 19.8 L 132.1 19.8 L 132.1 3.8 L 133.6 3.8 L 133.6 19.8 Z M 137.8 14.5 C 137.8 17.3 139.5 18.6 141.5 18.6 C 143 18.6 144.5 17.9 144.8 16.3 C 144.8 16.3 146.3 16.3 146.3 16.3 C 145.8 18.9 143.6 20 141.4 20 C 138.7 20 136.2 18.2 136.2 14.2 C 136.2 10.1 138.8 8.3 141.5 8.3 C 144.2 8.3 146.3 10 146.3 13.8 C 146.35 13.75 146.3 14.5 146.3 14.5 C 146.3 14.5 137.76 14.51 137.8 14.5 Z M 137.8 13.2 C 137.8 13.2 144.8 13.2 144.8 13.2 C 144.8 10.9 143.3 9.7 141.4 9.7 C 139.7 9.7 138 10.8 137.8 13.2 Z M 157.4 16.6 C 157.4 18.9 155.3 20 153 20 C 150.6 20 148.4 18.8 148.1 16.3 C 148.1 16.3 149.8 16.3 149.8 16.3 C 150 18 151.5 18.6 153 18.6 C 154.5 18.6 155.8 18.1 155.8 16.8 C 155.8 15.5 154.5 15.2 153.1 15 C 151 14.6 148.4 14.2 148.4 11.6 C 148.4 9.4 150.3 8.3 152.6 8.3 C 155 8.3 156.9 9.4 157.1 11.7 C 157.1 11.7 155.5 11.7 155.5 11.7 C 155.4 10.3 154.1 9.7 152.6 9.7 C 151.1 9.7 150 10.4 150 11.5 C 150 13 151.4 13.2 153.1 13.5 C 155.1 13.8 157.4 14.1 157.4 16.6 Z M 169.2 20 C 166.1 20 164 17.7 164 14.2 C 164 10.6 166.1 8.3 169.3 8.3 C 171.8 8.3 173.8 9.7 174 12.2 C 174 12.2 172.5 12.2 172.5 12.2 C 172.3 10.6 170.9 9.7 169.3 9.7 C 167.1 9.7 165.5 11.4 165.5 14.1 C 165.5 16.9 167.1 18.6 169.3 18.6 C 171 18.6 172.3 17.6 172.5 15.8 C 172.5 15.8 174 15.8 174 15.8 C 173.8 18.5 171.7 20 169.2 20 Z M 185.8 12.1 C 185.76 12.05 185.8 19.8 185.8 19.8 L 184.2 19.8 C 184.2 19.8 184.23 12.24 184.2 12.2 C 184.2 10.7 183.3 9.7 181.8 9.7 C 179.8 9.7 178.1 11.1 178.1 13.9 C 178.14 13.86 178.1 19.8 178.1 19.8 L 176.6 19.8 L 176.6 3.8 L 178.1 3.8 C 178.1 3.8 178.14 10.48 178.1 10.5 C 178.8 9.2 180 8.3 182 8.3 C 184.3 8.3 185.8 9.6 185.8 12.1 Z M 195.9 17.7 C 195.1 19.4 193.4 20 191.9 20 C 190 20 188.3 18.9 188.3 16.7 C 188.3 14.6 189.8 13.6 191.7 13.4 C 191.7 13.4 194.4 13 194.4 13 C 195.2 12.9 195.9 12.6 195.9 11.6 C 195.9 10.3 194.8 9.6 193.2 9.6 C 191.5 9.6 190.5 10.4 190.3 11.7 C 190.3 11.7 188.7 11.7 188.7 11.7 C 189 9.4 190.8 8.3 193.3 8.3 C 195.9 8.3 197.4 9.5 197.4 12 C 197.44 11.99 197.4 19.8 197.4 19.8 L 195.9 19.8 C 195.9 19.8 195.95 17.72 195.9 17.7 Z M 194.1 14.3 C 194.1 14.3 192.4 14.5 192.4 14.5 C 190.9 14.7 189.9 15.2 189.9 16.6 C 189.9 18 191 18.6 192.2 18.6 C 194 18.6 195.9 17.3 195.9 14.9 C 195.9 14.9 195.9 13.8 195.9 13.8 C 195.5 14.1 194.8 14.2 194.1 14.3 Z M 209.7 12.1 C 209.75 12.05 209.7 19.8 209.7 19.8 L 208.2 19.8 C 208.2 19.8 208.21 12.24 208.2 12.2 C 208.2 10.7 207.3 9.7 205.7 9.7 C 203.8 9.7 202.1 11.1 202.1 13.9 C 202.12 13.86 202.1 19.8 202.1 19.8 L 200.6 19.8 L 200.6 8.5 L 202.1 8.5 C 202.1 8.5 202.12 10.6 202.1 10.6 C 202.8 9.3 204.1 8.3 206 8.3 C 208.3 8.3 209.7 9.6 209.7 12.1 Z M 222.7 19.3 C 222.7 22.7 220.5 24.4 217.6 24.4 C 215.1 24.4 212.9 23.1 212.5 20.5 C 212.5 20.5 214.1 20.5 214.1 20.5 C 214.3 21.9 215.4 23.1 217.6 23.1 C 219.7 23.1 221.2 22 221.2 19.4 C 221.2 19.4 221.2 17.1 221.2 17.1 C 220.4 18.8 218.7 19.4 217.2 19.4 C 214.5 19.4 212.3 17.5 212.3 13.8 C 212.3 10.1 214.6 8.3 217.3 8.3 C 219.1 8.3 220.5 9.1 221.2 10.3 C 221.19 10.33 221.2 8.5 221.2 8.5 L 222.7 8.5 C 222.7 8.5 222.7 19.28 222.7 19.3 Z M 221.1 13.8 C 221.1 11 219.4 9.6 217.5 9.6 C 215.6 9.6 213.8 11 213.8 13.8 C 213.8 16.6 215.5 18 217.5 18 C 219.3 18 221.1 16.8 221.1 13.8 Z M 226.7 14.5 C 226.8 17.3 228.5 18.6 230.5 18.6 C 232 18.6 233.5 17.9 233.8 16.3 C 233.8 16.3 235.2 16.3 235.2 16.3 C 234.7 18.9 232.6 20 230.4 20 C 227.7 20 225.2 18.2 225.2 14.2 C 225.2 10.1 227.8 8.3 230.5 8.3 C 233.1 8.3 235.3 10 235.3 13.8 C 235.32 13.75 235.3 14.5 235.3 14.5 C 235.3 14.5 226.73 14.51 226.7 14.5 Z M 226.8 13.2 C 226.8 13.2 233.8 13.2 233.8 13.2 C 233.8 10.9 232.3 9.7 230.4 9.7 C 228.6 9.7 227 10.8 226.8 13.2 Z M 237.9 8.5 L 239.5 8.5 C 239.5 8.5 239.46 10.37 239.5 10.4 C 240.1 9 241.3 8.3 242.7 8.3 C 244.4 8.3 245.7 9.2 246.1 10.6 C 246.6 9.4 247.8 8.3 249.8 8.3 C 251.8 8.3 253.4 9.4 253.4 11.7 C 253.42 11.7 253.4 19.8 253.4 19.8 L 251.9 19.8 C 251.9 19.8 251.89 12.24 251.9 12.2 C 251.9 10.5 250.8 9.7 249.5 9.7 C 247.8 9.7 246.4 11 246.4 13.3 C 246.43 13.33 246.4 19.8 246.4 19.8 L 244.9 19.8 C 244.9 19.8 244.92 12.24 244.9 12.2 C 244.9 10.5 243.9 9.7 242.5 9.7 C 240.9 9.7 239.5 10.9 239.5 13.3 C 239.48 13.33 239.5 19.8 239.5 19.8 L 237.9 19.8 L 237.9 8.5 Z M 257.5 14.5 C 257.5 17.3 259.2 18.6 261.2 18.6 C 262.7 18.6 264.2 17.9 264.5 16.3 C 264.5 16.3 266 16.3 266 16.3 C 265.5 18.9 263.3 20 261.1 20 C 258.4 20 255.9 18.2 255.9 14.2 C 255.9 10.1 258.5 8.3 261.2 8.3 C 263.9 8.3 266 10 266 13.8 C 266.05 13.75 266 14.5 266 14.5 C 266 14.5 257.46 14.51 257.5 14.5 Z M 257.5 13.2 C 257.5 13.2 264.5 13.2 264.5 13.2 C 264.5 10.9 263 9.7 261.1 9.7 C 259.4 9.7 257.7 10.8 257.5 13.2 Z M 277.8 12.1 C 277.83 12.05 277.8 19.8 277.8 19.8 L 276.3 19.8 C 276.3 19.8 276.29 12.24 276.3 12.2 C 276.3 10.7 275.4 9.7 273.8 9.7 C 271.9 9.7 270.2 11.1 270.2 13.9 C 270.2 13.86 270.2 19.8 270.2 19.8 L 268.7 19.8 L 268.7 8.5 L 270.2 8.5 C 270.2 8.5 270.2 10.6 270.2 10.6 C 270.9 9.3 272.1 8.3 274.1 8.3 C 276.4 8.3 277.8 9.6 277.8 12.1 Z M 286.2 19.8 C 286.2 19.8 284.57 19.78 284.6 19.8 C 283.1 19.8 281.7 19.3 281.7 16.8 C 281.73 16.82 281.7 9.9 281.7 9.9 L 279.5 9.9 L 279.5 8.5 L 281.7 8.5 L 281.7 5.3 L 283.3 4.9 L 283.3 8.5 L 286 8.5 L 286 9.9 L 283.3 9.9 C 283.3 9.9 283.27 16.8 283.3 16.8 C 283.3 17.8 283.6 18.4 284.8 18.4 C 284.82 18.4 286.2 18.4 286.2 18.4 L 286.2 19.8 Z M 296.8 16.6 C 296.8 18.9 294.7 20 292.5 20 C 290 20 287.8 18.8 287.6 16.3 C 287.6 16.3 289.2 16.3 289.2 16.3 C 289.5 18 291 18.6 292.5 18.6 C 293.9 18.6 295.2 18.1 295.2 16.8 C 295.2 15.5 293.9 15.2 292.6 15 C 290.4 14.6 287.9 14.2 287.9 11.6 C 287.9 9.4 289.8 8.3 292.1 8.3 C 294.5 8.3 296.4 9.4 296.5 11.7 C 296.5 11.7 294.9 11.7 294.9 11.7 C 294.8 10.3 293.5 9.7 292 9.7 C 290.5 9.7 289.5 10.4 289.5 11.5 C 289.5 13 290.8 13.2 292.5 13.5 C 294.6 13.8 296.8 14.1 296.8 16.6 Z M 314 19.8 L 312.5 19.8 C 312.5 19.8 312.5 17.6 312.5 17.6 C 312 18.9 310.6 20 308.5 20 C 305.5 20 303.4 17.7 303.4 14.1 C 303.4 10.6 305.5 8.3 308.5 8.3 C 310.4 8.3 311.8 9.2 312.4 10.4 C 312.43 10.42 312.4 3.8 312.4 3.8 L 314 3.8 L 314 19.8 Z M 312.4 14.1 C 312.4 11.3 310.9 9.7 308.7 9.7 C 306.5 9.7 305 11.4 305 14.1 C 305 16.9 306.5 18.6 308.7 18.6 C 310.9 18.6 312.4 16.9 312.4 14.1 Z M 318.1 14.5 C 318.1 17.3 319.9 18.6 321.9 18.6 C 323.4 18.6 324.8 17.9 325.2 16.3 C 325.2 16.3 326.6 16.3 326.6 16.3 C 326.1 18.9 323.9 20 321.8 20 C 319.1 20 316.6 18.2 316.6 14.2 C 316.6 10.1 319.1 8.3 321.8 8.3 C 324.5 8.3 326.7 10 326.7 13.8 C 326.69 13.75 326.7 14.5 326.7 14.5 C 326.7 14.5 318.1 14.51 318.1 14.5 Z M 318.1 13.2 C 318.1 13.2 325.1 13.2 325.1 13.2 C 325.1 10.9 323.7 9.7 321.8 9.7 C 320 9.7 318.4 10.8 318.1 13.2 Z " stroke="none" fill="#000"/>  </g></svg>