<?xml version="1.0" standalone="no"?><!DOCTYPE svg PUBLIC "-//W3C//DTD SVG 1.1//EN" "http://www.w3.org/Graphics/SVG/1.1/DTD/svg11.dtd"><svg xmlns="http://www.w3.org/2000/svg" version="1.1" width="68px" height="160.2px" viewBox="0 -12 68 160.2" style="top:-12px">  <desc>2</desc>  <defs/>  <g id="Polygon10188">    <path d="M 3.7 79.2 C 3.7 79.2 18.18 65.43 18.2 65.4 C 29.9 54.3 35.9 47 35.9 38.9 C 35.9 31.9 30.2 28.3 23.9 28.3 C 17.6 28.3 10.4 32.1 8 40.3 C 8 40.3 4.9 37.7 4.9 37.7 C 6.5 23.8 18 17.3 28.8 17.3 C 39.2 17.3 48.8 23.1 48.8 34.3 C 48.8 44.3 41 52.6 28.3 64.4 C 28.26 64.44 17.6 74.5 17.6 74.5 L 43.8 74.5 L 48.2 67.6 L 51.2 67.6 L 49.3 84.8 L 4.4 84.8 L 3.7 79.2 Z " stroke="none" fill="#000"/>  </g></svg>