<?xml version="1.0" standalone="no"?><!DOCTYPE svg PUBLIC "-//W3C//DTD SVG 1.1//EN" "http://www.w3.org/Graphics/SVG/1.1/DTD/svg11.dtd"><svg xmlns="http://www.w3.org/2000/svg" version="1.1" width="422.4px" height="114.4px" viewBox="0 0 422.4 114.4">  <desc>Plus de 30% des obligations offrent des rendements negatifs, dans quelles strategies obligataires les clients devraie</desc>  <defs/>  <g id="Polygon10054">    <path d="M 12 95.4 L 9.3 95.4 C 9.3 95.4 9.28 93.6 9.3 93.6 C 8.7 94.9 7.3 95.6 5.7 95.6 C 3 95.6 0.6 93.6 0.6 89.6 C 0.6 85.6 3 83.6 5.7 83.6 C 7.2 83.6 8.5 84.2 9.2 85.3 C 9.22 85.32 9.2 79.4 9.2 79.4 L 12 79.4 L 12 95.4 Z M 9.3 89.6 C 9.3 87.2 7.9 86.1 6.4 86.1 C 4.9 86.1 3.5 87.2 3.5 89.6 C 3.5 91.9 4.9 93.1 6.4 93.1 C 7.9 93.1 9.3 91.9 9.3 89.6 Z M 16.7 90.4 C 16.8 92.3 18.1 93.2 19.7 93.2 C 20.8 93.2 21.8 92.8 22.2 91.7 C 22.2 91.7 24.7 91.7 24.7 91.7 C 24.2 94.3 21.9 95.6 19.6 95.6 C 16.8 95.6 14 93.7 14 89.6 C 14 85.6 16.6 83.6 19.6 83.6 C 22.4 83.6 24.8 85.4 24.8 89.3 C 24.78 89.29 24.8 90.4 24.8 90.4 C 24.8 90.4 16.72 90.43 16.7 90.4 Z M 16.8 88.4 C 16.8 88.4 22 88.4 22 88.4 C 22 86.9 21 86 19.6 86 C 18.3 86 17 86.7 16.8 88.4 Z M 32.7 95.4 L 29.7 95.4 L 25.4 83.8 L 28.4 83.8 L 31.2 92.1 L 34.1 83.8 L 37 83.8 L 32.7 95.4 Z M 44.9 86.4 C 44.9 86.4 44.14 86.37 44.1 86.4 C 42.2 86.4 41.1 87.4 41.1 89.7 C 41.12 89.71 41.1 95.4 41.1 95.4 L 38.3 95.4 L 38.3 83.8 L 41.1 83.8 C 41.1 83.8 41.1 85.45 41.1 85.4 C 41.7 84.2 42.8 83.7 44.1 83.7 C 44.12 83.66 44.9 83.7 44.9 83.7 L 44.9 86.4 Z M 55.5 87.6 C 55.5 87.59 55.5 95.4 55.5 95.4 L 52.8 95.4 C 52.8 95.4 52.77 93.7 52.8 93.7 C 51.9 95.2 50.5 95.6 49.3 95.6 C 47.4 95.6 45.5 94.5 45.5 92 C 45.5 90.2 46.5 89 49.2 88.6 C 49.2 88.6 51.7 88.2 51.7 88.2 C 52.4 88.1 52.9 87.9 52.9 87.2 C 52.9 86.2 52 85.8 50.9 85.8 C 49.4 85.8 48.8 86.5 48.7 87.5 C 48.7 87.5 46 87.5 46 87.5 C 46.3 84.8 48.4 83.6 51.1 83.6 C 53.8 83.6 55.5 84.9 55.5 87.6 Z M 52.8 90.5 C 52.8 90.5 52.8 89.9 52.8 89.9 C 52.5 90 52 90.2 51.4 90.2 C 51.4 90.2 50.2 90.4 50.2 90.4 C 48.8 90.6 48.3 91.2 48.3 91.9 C 48.3 92.8 49 93.3 49.9 93.3 C 51.4 93.3 52.8 92.2 52.8 90.5 Z M 57.9 82.3 L 60.9 82.3 L 60.9 79.1 L 57.9 79.1 L 57.9 82.3 Z M 58 83.8 L 60.8 83.8 L 60.8 95.4 L 58 95.4 L 58 83.8 Z M 65.5 90.4 C 65.5 92.3 66.9 93.2 68.5 93.2 C 69.6 93.2 70.6 92.8 70.9 91.7 C 70.9 91.7 73.5 91.7 73.5 91.7 C 73 94.3 70.7 95.6 68.3 95.6 C 65.5 95.6 62.8 93.7 62.8 89.6 C 62.8 85.6 65.4 83.6 68.4 83.6 C 71.2 83.6 73.5 85.4 73.5 89.3 C 73.54 89.29 73.5 90.4 73.5 90.4 C 73.5 90.4 65.48 90.43 65.5 90.4 Z M 65.5 88.4 C 65.5 88.4 70.8 88.4 70.8 88.4 C 70.8 86.9 69.7 86 68.3 86 C 67 86 65.8 86.7 65.5 88.4 Z M 85.7 87.9 C 85.72 87.91 85.7 95.4 85.7 95.4 L 82.9 95.4 C 82.9 95.4 82.93 88.16 82.9 88.2 C 82.9 86.9 82.2 86.1 80.9 86.1 C 79.3 86.1 78.3 87.2 78.3 89.1 C 78.33 89.12 78.3 95.4 78.3 95.4 L 75.5 95.4 L 75.5 83.8 L 78.3 83.8 C 78.3 83.8 78.31 85.47 78.3 85.5 C 79 84.4 79.9 83.6 81.8 83.6 C 84.5 83.6 85.7 85.1 85.7 87.9 Z M 94.3 95.4 C 94.3 95.4 92.44 95.38 92.4 95.4 C 90.3 95.4 88.9 94.7 88.9 91.6 C 88.89 91.6 88.9 86.3 88.9 86.3 L 86.8 86.3 L 86.8 83.8 L 88.9 83.8 L 88.9 81.2 L 91.7 80.4 L 91.7 83.8 L 94 83.8 L 94 86.3 L 91.7 86.3 C 91.7 86.3 91.68 91.73 91.7 91.7 C 91.7 92.4 91.9 92.9 92.9 92.9 C 92.86 92.9 94.3 92.9 94.3 92.9 L 94.3 95.4 Z M 102 87.5 L 95.5 87.5 L 95.5 90 L 102 90 L 102 87.5 Z M 104.3 82.3 L 107.3 82.3 L 107.3 79.1 L 104.3 79.1 L 104.3 82.3 Z M 104.4 83.8 L 107.2 83.8 L 107.2 95.4 L 104.4 95.4 L 104.4 83.8 Z M 112.7 95.4 L 109.9 95.4 L 109.9 79.4 L 112.7 79.4 L 112.7 95.4 Z M 124.7 91.8 C 124.7 94.4 122.4 95.6 119.8 95.6 C 117.4 95.6 114.8 94.6 114.6 91.7 C 114.6 91.7 117.4 91.7 117.4 91.7 C 117.6 92.8 118.6 93.3 119.9 93.3 C 121.1 93.3 121.9 92.9 121.9 92.1 C 121.9 91.3 121.4 91.2 119.8 90.9 C 117.5 90.5 114.9 90.1 114.9 87.3 C 114.9 84.7 117.1 83.6 119.5 83.6 C 122.2 83.6 124.2 84.9 124.4 87.5 C 124.4 87.5 121.7 87.5 121.7 87.5 C 121.6 86.4 120.7 85.9 119.6 85.9 C 118.2 85.9 117.6 86.5 117.6 87.2 C 117.6 88.1 118.7 88.3 120.1 88.5 C 122.2 88.8 124.7 89.1 124.7 91.8 Z M 131.7 82.3 L 134.7 82.3 L 134.7 79.1 L 131.7 79.1 L 131.7 82.3 Z M 131.8 83.8 L 134.6 83.8 L 134.6 95.4 L 131.8 95.4 L 131.8 83.8 Z M 147.5 87.9 C 147.48 87.91 147.5 95.4 147.5 95.4 L 144.7 95.4 C 144.7 95.4 144.69 88.16 144.7 88.2 C 144.7 86.9 144 86.1 142.7 86.1 C 141.1 86.1 140.1 87.2 140.1 89.1 C 140.09 89.12 140.1 95.4 140.1 95.4 L 137.3 95.4 L 137.3 83.8 L 140.1 83.8 C 140.1 83.8 140.07 85.47 140.1 85.5 C 140.7 84.4 141.7 83.6 143.6 83.6 C 146.2 83.6 147.5 85.1 147.5 87.9 Z M 156 95.4 L 153 95.4 L 148.7 83.8 L 151.7 83.8 L 154.5 92.1 L 157.4 83.8 L 160.3 83.8 L 156 95.4 Z M 163.4 90.4 C 163.5 92.3 164.8 93.2 166.4 93.2 C 167.5 93.2 168.5 92.8 168.9 91.7 C 168.9 91.7 171.4 91.7 171.4 91.7 C 170.9 94.3 168.6 95.6 166.3 95.6 C 163.5 95.6 160.7 93.7 160.7 89.6 C 160.7 85.6 163.3 83.6 166.3 83.6 C 169.1 83.6 171.5 85.4 171.5 89.3 C 171.48 89.29 171.5 90.4 171.5 90.4 C 171.5 90.4 163.42 90.43 163.4 90.4 Z M 163.5 88.4 C 163.5 88.4 168.8 88.4 168.8 88.4 C 168.8 86.9 167.7 86 166.3 86 C 165 86 163.7 86.7 163.5 88.4 Z M 182.7 91.8 C 182.7 94.4 180.4 95.6 177.8 95.6 C 175.4 95.6 172.8 94.6 172.6 91.7 C 172.6 91.7 175.5 91.7 175.5 91.7 C 175.6 92.8 176.7 93.3 178 93.3 C 179.1 93.3 180 92.9 180 92.1 C 180 91.3 179.4 91.2 177.8 90.9 C 175.6 90.5 173 90.1 173 87.3 C 173 84.7 175.2 83.6 177.6 83.6 C 180.3 83.6 182.3 84.9 182.5 87.5 C 182.5 87.5 179.7 87.5 179.7 87.5 C 179.6 86.4 178.8 85.9 177.6 85.9 C 176.2 85.9 175.7 86.5 175.7 87.2 C 175.7 88.1 176.7 88.3 178.1 88.5 C 180.2 88.8 182.7 89.1 182.7 91.8 Z M 190.6 95.4 C 190.6 95.4 188.72 95.38 188.7 95.4 C 186.6 95.4 185.2 94.7 185.2 91.6 C 185.17 91.6 185.2 86.3 185.2 86.3 L 183.1 86.3 L 183.1 83.8 L 185.2 83.8 L 185.2 81.2 L 188 80.4 L 188 83.8 L 190.3 83.8 L 190.3 86.3 L 188 86.3 C 188 86.3 187.97 91.73 188 91.7 C 188 92.4 188.2 92.9 189.1 92.9 C 189.14 92.9 190.6 92.9 190.6 92.9 L 190.6 95.4 Z M 192 82.3 L 195 82.3 L 195 79.1 L 192 79.1 L 192 82.3 Z M 192.1 83.8 L 194.9 83.8 L 194.9 95.4 L 192.1 95.4 L 192.1 83.8 Z M 204.2 86.4 C 204.2 86.4 203.42 86.37 203.4 86.4 C 201.5 86.4 200.4 87.4 200.4 89.7 C 200.4 89.71 200.4 95.4 200.4 95.4 L 197.6 95.4 L 197.6 83.8 L 200.4 83.8 C 200.4 83.8 200.38 85.45 200.4 85.4 C 201 84.2 202 83.7 203.4 83.7 C 203.4 83.66 204.2 83.7 204.2 83.7 L 204.2 86.4 Z M 208.3 89.8 C 208.3 87.1 209.6 86.6 210.9 85.7 C 211.9 85 212.3 84.4 212.3 83.6 C 212.3 82.4 211.5 81.8 210.3 81.8 C 208.8 81.8 207.9 82.6 207.8 84 C 207.8 84 205 84 205 84 C 205.3 80.6 207.7 79.4 210.3 79.4 C 213.1 79.4 215.3 80.7 215.3 83.5 C 215.3 85.7 214 86.6 212.5 87.6 C 211.5 88.4 211 88.9 211 89.8 C 210.96 89.84 211 90.5 211 90.5 L 208.3 90.5 C 208.3 90.5 208.3 89.75 208.3 89.8 Z M 208.1 92.1 L 211.2 92.1 L 211.2 95.4 L 208.1 95.4 L 208.1 92.1 Z " stroke="none" fill="#000"/>  </g>  <g id="Polygon10053">    <path d="M 10.6 66.6 C 10.6 69.2 8.3 70.4 5.7 70.4 C 3.3 70.4 0.7 69.4 0.5 66.5 C 0.5 66.5 3.3 66.5 3.3 66.5 C 3.5 67.6 4.6 68.1 5.9 68.1 C 7 68.1 7.9 67.7 7.9 66.9 C 7.9 66.1 7.3 66 5.7 65.7 C 3.5 65.3 0.9 64.9 0.9 62.1 C 0.9 59.5 3.1 58.4 5.5 58.4 C 8.2 58.4 10.2 59.7 10.4 62.3 C 10.4 62.3 7.6 62.3 7.6 62.3 C 7.5 61.2 6.7 60.7 5.5 60.7 C 4.1 60.7 3.6 61.3 3.6 62 C 3.6 62.9 4.6 63.1 6 63.3 C 8.1 63.6 10.6 63.9 10.6 66.6 Z M 18.4 70.2 C 18.4 70.2 16.61 70.18 16.6 70.2 C 14.4 70.2 13.1 69.5 13.1 66.4 C 13.06 66.4 13.1 61.1 13.1 61.1 L 10.9 61.1 L 10.9 58.6 L 13.1 58.6 L 13.1 56 L 15.9 55.2 L 15.9 58.6 L 18.2 58.6 L 18.2 61.1 L 15.9 61.1 C 15.9 61.1 15.85 66.53 15.9 66.5 C 15.9 67.2 16 67.7 17 67.7 C 17.03 67.7 18.4 67.7 18.4 67.7 L 18.4 70.2 Z M 26.6 61.2 C 26.6 61.2 25.83 61.17 25.8 61.2 C 23.9 61.2 22.8 62.2 22.8 64.5 C 22.81 64.51 22.8 70.2 22.8 70.2 L 20 70.2 L 20 58.6 L 22.8 58.6 C 22.8 58.6 22.78 60.25 22.8 60.2 C 23.4 59 24.4 58.5 25.8 58.5 C 25.81 58.46 26.6 58.5 26.6 58.5 L 26.6 61.2 Z M 37.2 62.4 C 37.19 62.39 37.2 70.2 37.2 70.2 L 34.5 70.2 C 34.5 70.2 34.46 68.5 34.5 68.5 C 33.6 70 32.2 70.4 31 70.4 C 29.1 70.4 27.2 69.3 27.2 66.8 C 27.2 65 28.2 63.8 30.9 63.4 C 30.9 63.4 33.4 63 33.4 63 C 34.1 62.9 34.6 62.7 34.6 62 C 34.6 61 33.7 60.6 32.6 60.6 C 31.1 60.6 30.4 61.3 30.3 62.3 C 30.3 62.3 27.7 62.3 27.7 62.3 C 28 59.6 30.1 58.4 32.7 58.4 C 35.5 58.4 37.2 59.7 37.2 62.4 Z M 34.5 65.3 C 34.5 65.3 34.5 64.7 34.5 64.7 C 34.2 64.8 33.7 65 33.1 65 C 33.1 65 31.9 65.2 31.9 65.2 C 30.4 65.4 30 66 30 66.7 C 30 67.6 30.6 68.1 31.6 68.1 C 33.1 68.1 34.5 67 34.5 65.3 Z M 45.6 70.2 C 45.6 70.2 43.81 70.18 43.8 70.2 C 41.6 70.2 40.3 69.5 40.3 66.4 C 40.26 66.4 40.3 61.1 40.3 61.1 L 38.1 61.1 L 38.1 58.6 L 40.3 58.6 L 40.3 56 L 43 55.2 L 43 58.6 L 45.4 58.6 L 45.4 61.1 L 43 61.1 C 43 61.1 43.05 66.53 43 66.5 C 43 67.2 43.2 67.7 44.2 67.7 C 44.23 67.7 45.6 67.7 45.6 67.7 L 45.6 70.2 Z M 49.2 65.2 C 49.2 67.1 50.6 68 52.2 68 C 53.3 68 54.3 67.6 54.6 66.5 C 54.6 66.5 57.2 66.5 57.2 66.5 C 56.7 69.1 54.4 70.4 52 70.4 C 49.2 70.4 46.5 68.5 46.5 64.4 C 46.5 60.4 49.1 58.4 52.1 58.4 C 54.9 58.4 57.2 60.2 57.2 64.1 C 57.25 64.09 57.2 65.2 57.2 65.2 C 57.2 65.2 49.18 65.23 49.2 65.2 Z M 49.2 63.2 C 49.2 63.2 54.5 63.2 54.5 63.2 C 54.5 61.7 53.4 60.8 52 60.8 C 50.7 60.8 49.5 61.5 49.2 63.2 Z M 69.7 69.4 C 69.7 73.1 67.3 74.8 64.2 74.8 C 61.3 74.8 59 73.4 58.7 70.5 C 58.7 70.5 61.4 70.5 61.4 70.5 C 61.7 72 62.9 72.4 64.2 72.4 C 66 72.4 67 71.5 67 69.7 C 67 69.7 67 67.8 67 67.8 C 66.5 69 65.3 69.8 63.6 69.8 C 61 69.8 58.5 68 58.5 64.1 C 58.5 60.2 61 58.4 63.6 58.4 C 65.2 58.4 66.4 59.1 67 60.2 C 66.99 60.21 67 58.6 67 58.6 L 69.7 58.6 C 69.7 58.6 69.68 69.4 69.7 69.4 Z M 66.9 64.1 C 66.9 61.9 65.7 60.8 64.2 60.8 C 62.6 60.8 61.3 61.9 61.3 64.1 C 61.3 66.3 62.6 67.3 64.2 67.3 C 65.7 67.3 66.9 66.3 66.9 64.1 Z M 72.2 57.1 L 75.2 57.1 L 75.2 53.9 L 72.2 53.9 L 72.2 57.1 Z M 72.3 58.6 L 75.1 58.6 L 75.1 70.2 L 72.3 70.2 L 72.3 58.6 Z M 79.8 65.2 C 79.8 67.1 81.2 68 82.7 68 C 83.8 68 84.9 67.6 85.2 66.5 C 85.2 66.5 87.8 66.5 87.8 66.5 C 87.3 69.1 85 70.4 82.6 70.4 C 79.8 70.4 77 68.5 77 64.4 C 77 60.4 79.7 58.4 82.6 58.4 C 85.4 58.4 87.8 60.2 87.8 64.1 C 87.82 64.09 87.8 65.2 87.8 65.2 C 87.8 65.2 79.76 65.23 79.8 65.2 Z M 79.8 63.2 C 79.8 63.2 85.1 63.2 85.1 63.2 C 85.1 61.7 84 60.8 82.6 60.8 C 81.3 60.8 80.1 61.5 79.8 63.2 Z M 99.1 66.6 C 99.1 69.2 96.8 70.4 94.2 70.4 C 91.8 70.4 89.2 69.4 89 66.5 C 89 66.5 91.8 66.5 91.8 66.5 C 92 67.6 93 68.1 94.3 68.1 C 95.5 68.1 96.3 67.7 96.3 66.9 C 96.3 66.1 95.8 66 94.2 65.7 C 91.9 65.3 89.3 64.9 89.3 62.1 C 89.3 59.5 91.5 58.4 93.9 58.4 C 96.6 58.4 98.6 59.7 98.8 62.3 C 98.8 62.3 96.1 62.3 96.1 62.3 C 96 61.2 95.1 60.7 94 60.7 C 92.6 60.7 92 61.3 92 62 C 92 62.9 93.1 63.1 94.5 63.3 C 96.6 63.6 99.1 63.9 99.1 66.6 Z M 116.4 64.4 C 116.4 68.2 114 70.4 110.7 70.4 C 107.5 70.4 105.1 68.2 105.1 64.4 C 105.1 60.6 107.5 58.4 110.7 58.4 C 114 58.4 116.4 60.6 116.4 64.4 Z M 107.9 64.4 C 107.9 66.7 109.2 67.8 110.8 67.8 C 112.4 67.8 113.5 66.6 113.5 64.4 C 113.5 62.1 112.2 61 110.7 61 C 109 61 107.9 62.2 107.9 64.4 Z M 129.8 64.4 C 129.8 68.5 127.3 70.4 124.5 70.4 C 123.1 70.4 121.8 69.9 121.1 68.8 C 121.11 68.8 121.1 70.2 121.1 70.2 L 118.4 70.2 L 118.4 54.2 L 121.2 54.2 C 121.2 54.2 121.17 60.29 121.2 60.3 C 121.8 59.1 123.1 58.4 124.7 58.4 C 127.4 58.4 129.8 60.4 129.8 64.4 Z M 126.9 64.4 C 126.9 62.1 125.5 60.9 124 60.9 C 122.5 60.9 121.1 62.1 121.1 64.4 C 121.1 66.8 122.5 68 124 68 C 125.5 68 126.9 66.8 126.9 64.4 Z M 134.5 70.2 L 131.8 70.2 L 131.8 54.2 L 134.5 54.2 L 134.5 70.2 Z M 137.2 57.1 L 140.1 57.1 L 140.1 53.9 L 137.2 53.9 L 137.2 57.1 Z M 137.3 58.6 L 140 58.6 L 140 70.2 L 137.3 70.2 L 137.3 58.6 Z M 153.2 69.4 C 153.2 73.1 150.8 74.8 147.7 74.8 C 144.9 74.8 142.5 73.4 142.2 70.5 C 142.2 70.5 144.9 70.5 144.9 70.5 C 145.2 72 146.4 72.4 147.7 72.4 C 149.5 72.4 150.5 71.5 150.5 69.7 C 150.5 69.7 150.5 67.8 150.5 67.8 C 150 69 148.8 69.8 147.1 69.8 C 144.5 69.8 142 68 142 64.1 C 142 60.2 144.5 58.4 147.1 58.4 C 148.7 58.4 149.9 59.1 150.5 60.2 C 150.51 60.21 150.5 58.6 150.5 58.6 L 153.2 58.6 C 153.2 58.6 153.19 69.4 153.2 69.4 Z M 150.4 64.1 C 150.4 61.9 149.2 60.8 147.7 60.8 C 146.1 60.8 144.8 61.9 144.8 64.1 C 144.8 66.3 146.1 67.3 147.7 67.3 C 149.2 67.3 150.4 66.3 150.4 64.1 Z M 165.1 62.4 C 165.08 62.39 165.1 70.2 165.1 70.2 L 162.3 70.2 C 162.3 70.2 162.35 68.5 162.3 68.5 C 161.4 70 160.1 70.4 158.8 70.4 C 157 70.4 155.1 69.3 155.1 66.8 C 155.1 65 156.1 63.8 158.8 63.4 C 158.8 63.4 161.3 63 161.3 63 C 162 62.9 162.5 62.7 162.5 62 C 162.5 61 161.6 60.6 160.5 60.6 C 159 60.6 158.3 61.3 158.2 62.3 C 158.2 62.3 155.5 62.3 155.5 62.3 C 155.8 59.6 158 58.4 160.6 58.4 C 163.4 58.4 165.1 59.7 165.1 62.4 Z M 162.4 65.3 C 162.4 65.3 162.4 64.7 162.4 64.7 C 162.1 64.8 161.6 65 161 65 C 161 65 159.7 65.2 159.7 65.2 C 158.3 65.4 157.9 66 157.9 66.7 C 157.9 67.6 158.5 68.1 159.5 68.1 C 160.9 68.1 162.4 67 162.4 65.3 Z M 173.5 70.2 C 173.5 70.2 171.69 70.18 171.7 70.2 C 169.5 70.2 168.1 69.5 168.1 66.4 C 168.14 66.4 168.1 61.1 168.1 61.1 L 166 61.1 L 166 58.6 L 168.1 58.6 L 168.1 56 L 170.9 55.2 L 170.9 58.6 L 173.2 58.6 L 173.2 61.1 L 170.9 61.1 C 170.9 61.1 170.94 66.53 170.9 66.5 C 170.9 67.2 171.1 67.7 172.1 67.7 C 172.11 67.7 173.5 67.7 173.5 67.7 L 173.5 70.2 Z M 184.4 62.4 C 184.36 62.39 184.4 70.2 184.4 70.2 L 181.6 70.2 C 181.6 70.2 181.63 68.5 181.6 68.5 C 180.7 70 179.3 70.4 178.1 70.4 C 176.3 70.4 174.4 69.3 174.4 66.8 C 174.4 65 175.4 63.8 178.1 63.4 C 178.1 63.4 180.6 63 180.6 63 C 181.2 62.9 181.7 62.7 181.7 62 C 181.7 61 180.9 60.6 179.8 60.6 C 178.3 60.6 177.6 61.3 177.5 62.3 C 177.5 62.3 174.8 62.3 174.8 62.3 C 175.1 59.6 177.3 58.4 179.9 58.4 C 182.6 58.4 184.4 59.7 184.4 62.4 Z M 181.6 65.3 C 181.6 65.3 181.6 64.7 181.6 64.7 C 181.4 64.8 180.8 65 180.3 65 C 180.3 65 179 65.2 179 65.2 C 177.6 65.4 177.2 66 177.2 66.7 C 177.2 67.6 177.8 68.1 178.8 68.1 C 180.2 68.1 181.6 67 181.6 65.3 Z M 186.8 57.1 L 189.7 57.1 L 189.7 53.9 L 186.8 53.9 L 186.8 57.1 Z M 186.9 58.6 L 189.6 58.6 L 189.6 70.2 L 186.9 70.2 L 186.9 58.6 Z M 198.9 61.2 C 198.9 61.2 198.17 61.17 198.2 61.2 C 196.2 61.2 195.2 62.2 195.2 64.5 C 195.15 64.51 195.2 70.2 195.2 70.2 L 192.4 70.2 L 192.4 58.6 L 195.1 58.6 C 195.1 58.6 195.13 60.25 195.1 60.2 C 195.7 59 196.8 58.5 198.2 58.5 C 198.15 58.46 198.9 58.5 198.9 58.5 L 198.9 61.2 Z M 202 65.2 C 202.1 67.1 203.4 68 205 68 C 206.1 68 207.2 67.6 207.5 66.5 C 207.5 66.5 210.1 66.5 210.1 66.5 C 209.6 69.1 207.3 70.4 204.9 70.4 C 202.1 70.4 199.3 68.5 199.3 64.4 C 199.3 60.4 202 58.4 204.9 58.4 C 207.7 58.4 210.1 60.2 210.1 64.1 C 210.1 64.09 210.1 65.2 210.1 65.2 C 210.1 65.2 202.04 65.23 202 65.2 Z M 202.1 63.2 C 202.1 63.2 207.4 63.2 207.4 63.2 C 207.4 61.7 206.3 60.8 204.9 60.8 C 203.6 60.8 202.4 61.5 202.1 63.2 Z M 221.4 66.6 C 221.4 69.2 219 70.4 216.4 70.4 C 214.1 70.4 211.4 69.4 211.3 66.5 C 211.3 66.5 214.1 66.5 214.1 66.5 C 214.3 67.6 215.3 68.1 216.6 68.1 C 217.8 68.1 218.6 67.7 218.6 66.9 C 218.6 66.1 218.1 66 216.5 65.7 C 214.2 65.3 211.6 64.9 211.6 62.1 C 211.6 59.5 213.8 58.4 216.2 58.4 C 218.9 58.4 220.9 59.7 221.1 62.3 C 221.1 62.3 218.4 62.3 218.4 62.3 C 218.3 61.2 217.4 60.7 216.3 60.7 C 214.9 60.7 214.3 61.3 214.3 62 C 214.3 62.9 215.4 63.1 216.8 63.3 C 218.8 63.6 221.4 63.9 221.4 66.6 Z M 231.3 70.2 L 228.5 70.2 L 228.5 54.2 L 231.3 54.2 L 231.3 70.2 Z M 236 65.2 C 236.1 67.1 237.4 68 239 68 C 240.1 68 241.1 67.6 241.5 66.5 C 241.5 66.5 244 66.5 244 66.5 C 243.5 69.1 241.2 70.4 238.9 70.4 C 236.1 70.4 233.3 68.5 233.3 64.4 C 233.3 60.4 235.9 58.4 238.9 58.4 C 241.7 58.4 244.1 60.2 244.1 64.1 C 244.06 64.09 244.1 65.2 244.1 65.2 C 244.1 65.2 235.99 65.23 236 65.2 Z M 236.1 63.2 C 236.1 63.2 241.3 63.2 241.3 63.2 C 241.3 61.7 240.3 60.8 238.8 60.8 C 237.5 60.8 236.3 61.5 236.1 63.2 Z M 255.3 66.6 C 255.3 69.2 253 70.4 250.4 70.4 C 248 70.4 245.4 69.4 245.2 66.5 C 245.2 66.5 248 66.5 248 66.5 C 248.2 67.6 249.2 68.1 250.5 68.1 C 251.7 68.1 252.6 67.7 252.6 66.9 C 252.6 66.1 252 66 250.4 65.7 C 248.2 65.3 245.6 64.9 245.6 62.1 C 245.6 59.5 247.8 58.4 250.2 58.4 C 252.9 58.4 254.9 59.7 255 62.3 C 255 62.3 252.3 62.3 252.3 62.3 C 252.2 61.2 251.4 60.7 250.2 60.7 C 248.8 60.7 248.3 61.3 248.3 62 C 248.3 62.9 249.3 63.1 250.7 63.3 C 252.8 63.6 255.3 63.9 255.3 66.6 Z M 266.9 70.4 C 263.1 70.4 261.3 67.5 261.3 64.4 C 261.3 61.3 263.1 58.4 266.9 58.4 C 269.8 58.4 271.9 60 272 62.8 C 272 62.8 269.3 62.8 269.3 62.8 C 269.2 61.7 268.4 60.9 267 60.9 C 265 60.9 264.1 62.6 264.1 64.4 C 264.1 66.3 265 67.8 267 67.8 C 268.3 67.8 269.1 67.1 269.3 66.1 C 269.3 66.1 272.1 66.1 272.1 66.1 C 271.7 68.9 269.7 70.4 266.9 70.4 Z M 276.9 70.2 L 274.1 70.2 L 274.1 54.2 L 276.9 54.2 L 276.9 70.2 Z M 279.5 57.1 L 282.5 57.1 L 282.5 53.9 L 279.5 53.9 L 279.5 57.1 Z M 279.6 58.6 L 282.4 58.6 L 282.4 70.2 L 279.6 70.2 L 279.6 58.6 Z M 287.1 65.2 C 287.2 67.1 288.5 68 290.1 68 C 291.2 68 292.2 67.6 292.5 66.5 C 292.5 66.5 295.1 66.5 295.1 66.5 C 294.6 69.1 292.3 70.4 289.9 70.4 C 287.2 70.4 284.4 68.5 284.4 64.4 C 284.4 60.4 287 58.4 290 58.4 C 292.8 58.4 295.2 60.2 295.2 64.1 C 295.15 64.09 295.2 65.2 295.2 65.2 C 295.2 65.2 287.09 65.23 287.1 65.2 Z M 287.2 63.2 C 287.2 63.2 292.4 63.2 292.4 63.2 C 292.4 61.7 291.4 60.8 289.9 60.8 C 288.6 60.8 287.4 61.5 287.2 63.2 Z M 307.3 62.7 C 307.33 62.71 307.3 70.2 307.3 70.2 L 304.5 70.2 C 304.5 70.2 304.54 62.96 304.5 63 C 304.5 61.7 303.8 60.9 302.5 60.9 C 300.9 60.9 299.9 62 299.9 63.9 C 299.94 63.92 299.9 70.2 299.9 70.2 L 297.1 70.2 L 297.1 58.6 L 299.9 58.6 C 299.9 58.6 299.92 60.27 299.9 60.3 C 300.6 59.2 301.5 58.4 303.4 58.4 C 306.1 58.4 307.3 59.9 307.3 62.7 Z M 315.9 70.2 C 315.9 70.2 314.05 70.18 314.1 70.2 C 311.9 70.2 310.5 69.5 310.5 66.4 C 310.5 66.4 310.5 61.1 310.5 61.1 L 308.4 61.1 L 308.4 58.6 L 310.5 58.6 L 310.5 56 L 313.3 55.2 L 313.3 58.6 L 315.6 58.6 L 315.6 61.1 L 313.3 61.1 C 313.3 61.1 313.29 66.53 313.3 66.5 C 313.3 67.2 313.5 67.7 314.5 67.7 C 314.47 67.7 315.9 67.7 315.9 67.7 L 315.9 70.2 Z M 326.7 66.6 C 326.7 69.2 324.4 70.4 321.8 70.4 C 319.4 70.4 316.8 69.4 316.6 66.5 C 316.6 66.5 319.4 66.5 319.4 66.5 C 319.6 67.6 320.6 68.1 321.9 68.1 C 323.1 68.1 324 67.7 324 66.9 C 324 66.1 323.4 66 321.8 65.7 C 319.6 65.3 317 64.9 317 62.1 C 317 59.5 319.2 58.4 321.6 58.4 C 324.3 58.4 326.3 59.7 326.4 62.3 C 326.4 62.3 323.7 62.3 323.7 62.3 C 323.6 61.2 322.8 60.7 321.6 60.7 C 320.2 60.7 319.7 61.3 319.7 62 C 319.7 62.9 320.7 63.1 322.1 63.3 C 324.2 63.6 326.7 63.9 326.7 66.6 Z " stroke="none" fill="#000"/>  </g>  <g id="Polygon10052">    <path d="M 12 45 L 9.3 45 C 9.3 45 9.28 43.2 9.3 43.2 C 8.7 44.5 7.3 45.2 5.7 45.2 C 3 45.2 0.6 43.2 0.6 39.2 C 0.6 35.2 3 33.2 5.7 33.2 C 7.2 33.2 8.5 33.8 9.2 34.9 C 9.22 34.92 9.2 29 9.2 29 L 12 29 L 12 45 Z M 9.3 39.2 C 9.3 36.8 7.9 35.7 6.4 35.7 C 4.9 35.7 3.5 36.8 3.5 39.2 C 3.5 41.5 4.9 42.7 6.4 42.7 C 7.9 42.7 9.3 41.5 9.3 39.2 Z M 16.7 40 C 16.8 41.9 18.1 42.8 19.7 42.8 C 20.8 42.8 21.8 42.4 22.2 41.3 C 22.2 41.3 24.7 41.3 24.7 41.3 C 24.2 43.9 21.9 45.2 19.6 45.2 C 16.8 45.2 14 43.3 14 39.2 C 14 35.2 16.6 33.2 19.6 33.2 C 22.4 33.2 24.8 35 24.8 38.9 C 24.78 38.89 24.8 40 24.8 40 C 24.8 40 16.72 40.03 16.7 40 Z M 16.8 38 C 16.8 38 22 38 22 38 C 22 36.5 21 35.6 19.6 35.6 C 18.3 35.6 17 36.3 16.8 38 Z M 36 41.4 C 36 44 33.7 45.2 31.1 45.2 C 28.7 45.2 26.1 44.2 25.9 41.3 C 25.9 41.3 28.7 41.3 28.7 41.3 C 28.9 42.4 30 42.9 31.3 42.9 C 32.4 42.9 33.3 42.5 33.3 41.7 C 33.3 40.9 32.7 40.8 31.1 40.5 C 28.9 40.1 26.3 39.7 26.3 36.9 C 26.3 34.3 28.5 33.2 30.9 33.2 C 33.6 33.2 35.6 34.5 35.8 37.1 C 35.8 37.1 33 37.1 33 37.1 C 32.9 36 32.1 35.5 30.9 35.5 C 29.5 35.5 29 36.1 29 36.8 C 29 37.7 30 37.9 31.4 38.1 C 33.5 38.4 36 38.7 36 41.4 Z M 49.7 36 C 49.7 36 48.99 35.97 49 36 C 47 36 46 37 46 39.3 C 45.97 39.31 46 45 46 45 L 43.2 45 L 43.2 33.4 L 45.9 33.4 C 45.9 33.4 45.95 35.05 45.9 35 C 46.5 33.8 47.6 33.3 49 33.3 C 48.97 33.26 49.7 33.3 49.7 33.3 L 49.7 36 Z M 52.9 40 C 52.9 41.9 54.3 42.8 55.8 42.8 C 56.9 42.8 58 42.4 58.3 41.3 C 58.3 41.3 60.9 41.3 60.9 41.3 C 60.4 43.9 58.1 45.2 55.7 45.2 C 52.9 45.2 50.1 43.3 50.1 39.2 C 50.1 35.2 52.8 33.2 55.7 33.2 C 58.5 33.2 60.9 35 60.9 38.9 C 60.92 38.89 60.9 40 60.9 40 C 60.9 40 52.86 40.03 52.9 40 Z M 52.9 38 C 52.9 38 58.2 38 58.2 38 C 58.2 36.5 57.1 35.6 55.7 35.6 C 54.4 35.6 53.2 36.3 52.9 38 Z M 73.1 37.5 C 73.1 37.51 73.1 45 73.1 45 L 70.3 45 C 70.3 45 70.31 37.76 70.3 37.8 C 70.3 36.5 69.6 35.7 68.3 35.7 C 66.7 35.7 65.7 36.8 65.7 38.7 C 65.71 38.72 65.7 45 65.7 45 L 62.9 45 L 62.9 33.4 L 65.7 33.4 C 65.7 33.4 65.69 35.07 65.7 35.1 C 66.3 34 67.3 33.2 69.2 33.2 C 71.9 33.2 73.1 34.7 73.1 37.5 Z M 86.4 45 L 83.6 45 C 83.6 45 83.64 43.2 83.6 43.2 C 83 44.5 81.7 45.2 80.1 45.2 C 77.4 45.2 75 43.2 75 39.2 C 75 35.2 77.4 33.2 80.1 33.2 C 81.6 33.2 82.9 33.8 83.6 34.9 C 83.58 34.92 83.6 29 83.6 29 L 86.4 29 L 86.4 45 Z M 83.7 39.2 C 83.7 36.8 82.2 35.7 80.7 35.7 C 79.2 35.7 77.8 36.8 77.8 39.2 C 77.8 41.5 79.2 42.7 80.7 42.7 C 82.2 42.7 83.7 41.5 83.7 39.2 Z M 91.1 40 C 91.1 41.9 92.5 42.8 94.1 42.8 C 95.2 42.8 96.2 42.4 96.5 41.3 C 96.5 41.3 99.1 41.3 99.1 41.3 C 98.6 43.9 96.3 45.2 93.9 45.2 C 91.1 45.2 88.4 43.3 88.4 39.2 C 88.4 35.2 91 33.2 94 33.2 C 96.8 33.2 99.1 35 99.1 38.9 C 99.14 38.89 99.1 40 99.1 40 C 99.1 40 91.08 40.03 91.1 40 Z M 91.1 38 C 91.1 38 96.4 38 96.4 38 C 96.4 36.5 95.3 35.6 93.9 35.6 C 92.6 35.6 91.4 36.3 91.1 38 Z M 117.5 37.2 C 117.49 37.17 117.5 45 117.5 45 L 114.7 45 C 114.7 45 114.7 37.72 114.7 37.7 C 114.7 36.3 114.1 35.7 112.9 35.7 C 111.6 35.7 110.7 36.5 110.7 38.5 C 110.71 38.47 110.7 45 110.7 45 L 107.9 45 C 107.9 45 107.92 37.72 107.9 37.7 C 107.9 36.3 107.2 35.7 106.1 35.7 C 104.8 35.7 103.9 36.5 103.9 38.5 C 103.93 38.45 103.9 45 103.9 45 L 101.1 45 L 101.1 33.4 L 103.9 33.4 C 103.9 33.4 103.89 35.09 103.9 35.1 C 104.2 34.2 105.1 33.2 106.9 33.2 C 108.4 33.2 109.5 33.9 110.1 35.1 C 110.5 34.3 111.4 33.2 113.5 33.2 C 115.9 33.2 117.5 34.7 117.5 37.2 Z M 122.1 40 C 122.2 41.9 123.5 42.8 125.1 42.8 C 126.2 42.8 127.2 42.4 127.6 41.3 C 127.6 41.3 130.1 41.3 130.1 41.3 C 129.6 43.9 127.3 45.2 124.9 45.2 C 122.2 45.2 119.4 43.3 119.4 39.2 C 119.4 35.2 122 33.2 125 33.2 C 127.8 33.2 130.2 35 130.2 38.9 C 130.16 38.89 130.2 40 130.2 40 C 130.2 40 122.09 40.03 122.1 40 Z M 122.2 38 C 122.2 38 127.4 38 127.4 38 C 127.4 36.5 126.4 35.6 124.9 35.6 C 123.6 35.6 122.4 36.3 122.2 38 Z M 142.3 37.5 C 142.34 37.51 142.3 45 142.3 45 L 139.5 45 C 139.5 45 139.54 37.76 139.5 37.8 C 139.5 36.5 138.8 35.7 137.5 35.7 C 135.9 35.7 134.9 36.8 134.9 38.7 C 134.94 38.72 134.9 45 134.9 45 L 132.2 45 L 132.2 33.4 L 134.9 33.4 C 134.9 33.4 134.92 35.07 134.9 35.1 C 135.6 34 136.5 33.2 138.5 33.2 C 141.1 33.2 142.3 34.7 142.3 37.5 Z M 150.9 45 C 150.9 45 149.06 44.98 149.1 45 C 146.9 45 145.5 44.3 145.5 41.2 C 145.51 41.2 145.5 35.9 145.5 35.9 L 143.4 35.9 L 143.4 33.4 L 145.5 33.4 L 145.5 30.8 L 148.3 30 L 148.3 33.4 L 150.6 33.4 L 150.6 35.9 L 148.3 35.9 C 148.3 35.9 148.3 41.33 148.3 41.3 C 148.3 42 148.5 42.5 149.5 42.5 C 149.48 42.5 150.9 42.5 150.9 42.5 L 150.9 45 Z M 161.7 41.4 C 161.7 44 159.4 45.2 156.8 45.2 C 154.4 45.2 151.8 44.2 151.6 41.3 C 151.6 41.3 154.4 41.3 154.4 41.3 C 154.6 42.4 155.7 42.9 157 42.9 C 158.1 42.9 159 42.5 159 41.7 C 159 40.9 158.4 40.8 156.8 40.5 C 154.6 40.1 152 39.7 152 36.9 C 152 34.3 154.2 33.2 156.6 33.2 C 159.3 33.2 161.3 34.5 161.4 37.1 C 161.4 37.1 158.7 37.1 158.7 37.1 C 158.6 36 157.8 35.5 156.6 35.5 C 155.2 35.5 154.7 36.1 154.7 36.8 C 154.7 37.7 155.7 37.9 157.1 38.1 C 159.2 38.4 161.7 38.7 161.7 41.4 Z M 179 37.5 C 179.04 37.51 179 45 179 45 L 176.3 45 C 176.3 45 176.25 37.76 176.3 37.8 C 176.3 36.5 175.5 35.7 174.2 35.7 C 172.6 35.7 171.7 36.8 171.7 38.7 C 171.65 38.72 171.7 45 171.7 45 L 168.9 45 L 168.9 33.4 L 171.6 33.4 C 171.6 33.4 171.63 35.07 171.6 35.1 C 172.3 34 173.2 33.2 175.2 33.2 C 177.8 33.2 179 34.7 179 37.5 Z M 183.6 40 C 183.7 41.9 185.1 42.8 186.6 42.8 C 187.7 42.8 188.8 42.4 189.1 41.3 C 189.1 41.3 191.7 41.3 191.7 41.3 C 191.2 43.9 188.9 45.2 186.5 45.2 C 183.7 45.2 180.9 43.3 180.9 39.2 C 180.9 35.2 183.6 33.2 186.5 33.2 C 189.3 33.2 191.7 35 191.7 38.9 C 191.71 38.89 191.7 40 191.7 40 C 191.7 40 183.64 40.03 183.6 40 Z M 183.7 38 C 183.7 38 189 38 189 38 C 189 36.5 187.9 35.6 186.5 35.6 C 185.2 35.6 184 36.3 183.7 38 Z M 204.1 44.2 C 204.1 47.9 201.7 49.6 198.6 49.6 C 195.8 49.6 193.5 48.2 193.1 45.3 C 193.1 45.3 195.8 45.3 195.8 45.3 C 196.1 46.8 197.3 47.2 198.6 47.2 C 200.4 47.2 201.5 46.3 201.5 44.5 C 201.5 44.5 201.5 42.6 201.5 42.6 C 200.9 43.8 199.8 44.6 198 44.6 C 195.4 44.6 193 42.8 193 38.9 C 193 35 195.4 33.2 198 33.2 C 199.7 33.2 200.9 33.9 201.5 35 C 201.45 35.01 201.5 33.4 201.5 33.4 L 204.1 33.4 C 204.1 33.4 204.14 44.2 204.1 44.2 Z M 201.3 38.9 C 201.3 36.7 200.1 35.6 198.6 35.6 C 197.1 35.6 195.7 36.7 195.7 38.9 C 195.7 41.1 197.1 42.1 198.6 42.1 C 200.1 42.1 201.3 41.1 201.3 38.9 Z M 216 37.2 C 216.02 37.19 216 45 216 45 L 213.3 45 C 213.3 45 213.29 43.3 213.3 43.3 C 212.4 44.8 211 45.2 209.8 45.2 C 207.9 45.2 206 44.1 206 41.6 C 206 39.8 207.1 38.6 209.7 38.2 C 209.7 38.2 212.2 37.8 212.2 37.8 C 212.9 37.7 213.4 37.5 213.4 36.8 C 213.4 35.8 212.6 35.4 211.4 35.4 C 210 35.4 209.3 36.1 209.2 37.1 C 209.2 37.1 206.5 37.1 206.5 37.1 C 206.8 34.4 208.9 33.2 211.6 33.2 C 214.3 33.2 216 34.5 216 37.2 Z M 213.3 40.1 C 213.3 40.1 213.3 39.5 213.3 39.5 C 213 39.6 212.5 39.8 212 39.8 C 212 39.8 210.7 40 210.7 40 C 209.3 40.2 208.8 40.8 208.8 41.5 C 208.8 42.4 209.5 42.9 210.4 42.9 C 211.9 42.9 213.3 41.8 213.3 40.1 Z M 224.5 45 C 224.5 45 222.64 44.98 222.6 45 C 220.5 45 219.1 44.3 219.1 41.2 C 219.09 41.2 219.1 35.9 219.1 35.9 L 217 35.9 L 217 33.4 L 219.1 33.4 L 219.1 30.8 L 221.9 30 L 221.9 33.4 L 224.2 33.4 L 224.2 35.9 L 221.9 35.9 C 221.9 35.9 221.88 41.33 221.9 41.3 C 221.9 42 222.1 42.5 223.1 42.5 C 223.06 42.5 224.5 42.5 224.5 42.5 L 224.5 45 Z M 225.9 31.9 L 228.9 31.9 L 228.9 28.7 L 225.9 28.7 L 225.9 31.9 Z M 226 33.4 L 228.8 33.4 L 228.8 45 L 226 45 L 226 33.4 Z M 235.8 31.5 C 234.9 31.5 234.7 31.9 234.7 32.6 C 234.67 32.63 234.7 33.4 234.7 33.4 L 236.8 33.4 L 236.8 35.9 L 234.7 35.9 L 234.7 45 L 231.9 45 L 231.9 35.9 L 230.2 35.9 L 230.2 33.4 L 231.9 33.4 C 231.9 33.4 231.88 32.76 231.9 32.8 C 231.9 29.7 233.3 29 235.4 29 C 235.43 28.98 237.1 29 237.1 29 L 237.1 31.5 C 237.1 31.5 235.85 31.46 235.8 31.5 Z M 247.7 41.4 C 247.7 44 245.4 45.2 242.8 45.2 C 240.4 45.2 237.8 44.2 237.6 41.3 C 237.6 41.3 240.4 41.3 240.4 41.3 C 240.6 42.4 241.7 42.9 243 42.9 C 244.1 42.9 245 42.5 245 41.7 C 245 40.9 244.4 40.8 242.8 40.5 C 240.6 40.1 238 39.7 238 36.9 C 238 34.3 240.2 33.2 242.6 33.2 C 245.3 33.2 247.3 34.5 247.5 37.1 C 247.5 37.1 244.7 37.1 244.7 37.1 C 244.6 36 243.8 35.5 242.6 35.5 C 241.2 35.5 240.7 36.1 240.7 36.8 C 240.7 37.7 241.7 37.9 243.1 38.1 C 245.2 38.4 247.7 38.7 247.7 41.4 Z M 251.1 44.8 C 251.11 44.79 249.7 44.8 249.7 44.8 L 249.7 41.9 L 252.9 41.9 C 252.9 41.9 252.9 44.39 252.9 44.4 C 252.9 47.4 250.8 48.5 249 48.7 C 249 48.7 248.7 47.2 248.7 47.2 C 250.2 47 251.1 46.1 251.1 44.8 Z M 270.2 45 L 267.4 45 C 267.4 45 267.43 43.2 267.4 43.2 C 266.8 44.5 265.5 45.2 263.9 45.2 C 261.2 45.2 258.8 43.2 258.8 39.2 C 258.8 35.2 261.2 33.2 263.9 33.2 C 265.4 33.2 266.7 33.8 267.4 34.9 C 267.37 34.92 267.4 29 267.4 29 L 270.2 29 L 270.2 45 Z M 267.5 39.2 C 267.5 36.8 266 35.7 264.5 35.7 C 263 35.7 261.6 36.8 261.6 39.2 C 261.6 41.5 263 42.7 264.5 42.7 C 266 42.7 267.5 41.5 267.5 39.2 Z M 282.2 37.2 C 282.15 37.19 282.2 45 282.2 45 L 279.4 45 C 279.4 45 279.42 43.3 279.4 43.3 C 278.5 44.8 277.1 45.2 275.9 45.2 C 274.1 45.2 272.2 44.1 272.2 41.6 C 272.2 39.8 273.2 38.6 275.9 38.2 C 275.9 38.2 278.4 37.8 278.4 37.8 C 279 37.7 279.5 37.5 279.5 36.8 C 279.5 35.8 278.7 35.4 277.6 35.4 C 276.1 35.4 275.4 36.1 275.3 37.1 C 275.3 37.1 272.6 37.1 272.6 37.1 C 272.9 34.4 275.1 33.2 277.7 33.2 C 280.4 33.2 282.2 34.5 282.2 37.2 Z M 279.4 40.1 C 279.4 40.1 279.4 39.5 279.4 39.5 C 279.2 39.6 278.6 39.8 278.1 39.8 C 278.1 39.8 276.8 40 276.8 40 C 275.4 40.2 274.9 40.8 274.9 41.5 C 274.9 42.4 275.6 42.9 276.6 42.9 C 278 42.9 279.4 41.8 279.4 40.1 Z M 294.9 37.5 C 294.86 37.51 294.9 45 294.9 45 L 292.1 45 C 292.1 45 292.06 37.76 292.1 37.8 C 292.1 36.5 291.3 35.7 290 35.7 C 288.4 35.7 287.5 36.8 287.5 38.7 C 287.47 38.72 287.5 45 287.5 45 L 284.7 45 L 284.7 33.4 L 287.4 33.4 C 287.4 33.4 287.44 35.07 287.4 35.1 C 288.1 34 289 33.2 291 33.2 C 293.6 33.2 294.9 34.7 294.9 37.5 Z M 306.7 41.4 C 306.7 44 304.4 45.2 301.8 45.2 C 299.4 45.2 296.8 44.2 296.6 41.3 C 296.6 41.3 299.5 41.3 299.5 41.3 C 299.6 42.4 300.7 42.9 302 42.9 C 303.2 42.9 304 42.5 304 41.7 C 304 40.9 303.4 40.8 301.9 40.5 C 299.6 40.1 297 39.7 297 36.9 C 297 34.3 299.2 33.2 301.6 33.2 C 304.3 33.2 306.3 34.5 306.5 37.1 C 306.5 37.1 303.7 37.1 303.7 37.1 C 303.6 36 302.8 35.5 301.6 35.5 C 300.3 35.5 299.7 36.1 299.7 36.8 C 299.7 37.7 300.7 37.9 302.1 38.1 C 304.2 38.4 306.7 38.7 306.7 41.4 Z M 324.1 33.4 L 324.1 49.3 L 321.3 49.3 C 321.3 49.3 321.32 43.26 321.3 43.3 C 320.6 44.4 319.5 45.1 317.9 45.1 C 315.2 45.1 312.7 43.2 312.7 39.1 C 312.7 35.1 315.1 33.2 317.8 33.2 C 319.3 33.2 320.7 33.8 321.4 35 C 321.38 35.03 321.4 33.4 321.4 33.4 L 324.1 33.4 Z M 321.4 39.1 C 321.4 36.7 320 35.7 318.5 35.7 C 316.9 35.7 315.6 36.7 315.6 39.1 C 315.6 41.4 316.9 42.5 318.5 42.5 C 320 42.5 321.4 41.5 321.4 39.1 Z M 336.9 45 L 334.1 45 C 334.1 45 334.15 43.34 334.1 43.3 C 333.5 44.4 332.4 45.1 330.8 45.1 C 328.4 45.1 326.6 43.6 326.6 40.6 C 326.63 40.59 326.6 33.4 326.6 33.4 L 329.4 33.4 C 329.4 33.4 329.42 40.38 329.4 40.4 C 329.4 42 330.2 42.6 331.4 42.6 C 333 42.6 334.1 41.7 334.1 39 C 334.09 39 334.1 33.4 334.1 33.4 L 336.9 33.4 L 336.9 45 Z M 341.6 40 C 341.6 41.9 343 42.8 344.6 42.8 C 345.7 42.8 346.7 42.4 347 41.3 C 347 41.3 349.6 41.3 349.6 41.3 C 349.1 43.9 346.8 45.2 344.4 45.2 C 341.6 45.2 338.9 43.3 338.9 39.2 C 338.9 35.2 341.5 33.2 344.5 33.2 C 347.3 33.2 349.6 35 349.6 38.9 C 349.65 38.89 349.6 40 349.6 40 C 349.6 40 341.58 40.03 341.6 40 Z M 341.6 38 C 341.6 38 346.9 38 346.9 38 C 346.9 36.5 345.8 35.6 344.4 35.6 C 343.1 35.6 341.9 36.3 341.6 38 Z M 354.4 45 L 351.6 45 L 351.6 29 L 354.4 29 L 354.4 45 Z M 360 45 L 357.2 45 L 357.2 29 L 360 29 L 360 45 Z M 364.7 40 C 364.7 41.9 366.1 42.8 367.6 42.8 C 368.7 42.8 369.8 42.4 370.1 41.3 C 370.1 41.3 372.7 41.3 372.7 41.3 C 372.2 43.9 369.9 45.2 367.5 45.2 C 364.7 45.2 362 43.3 362 39.2 C 362 35.2 364.6 33.2 367.5 33.2 C 370.4 33.2 372.7 35 372.7 38.9 C 372.72 38.89 372.7 40 372.7 40 C 372.7 40 364.66 40.03 364.7 40 Z M 364.7 38 C 364.7 38 370 38 370 38 C 370 36.5 368.9 35.6 367.5 35.6 C 366.2 35.6 365 36.3 364.7 38 Z M 384 41.4 C 384 44 381.7 45.2 379.1 45.2 C 376.7 45.2 374.1 44.2 373.9 41.3 C 373.9 41.3 376.7 41.3 376.7 41.3 C 376.9 42.4 377.9 42.9 379.2 42.9 C 380.4 42.9 381.2 42.5 381.2 41.7 C 381.2 40.9 380.7 40.8 379.1 40.5 C 376.8 40.1 374.2 39.7 374.2 36.9 C 374.2 34.3 376.4 33.2 378.8 33.2 C 381.5 33.2 383.5 34.5 383.7 37.1 C 383.7 37.1 381 37.1 381 37.1 C 380.9 36 380.1 35.5 378.9 35.5 C 377.5 35.5 376.9 36.1 376.9 36.8 C 376.9 37.7 378 37.9 379.4 38.1 C 381.5 38.4 384 38.7 384 41.4 Z " stroke="none" fill="#000"/>  </g>  <g id="Polygon10051">    <path d="M 13.1 8.7 C 13.1 11.3 11.3 13.8 7.7 13.8 C 7.71 13.75 4.5 13.8 4.5 13.8 L 4.5 19.8 L 1.6 19.8 L 1.6 4 C 1.6 4 7.98 4.03 8 4 C 11.4 4 13.1 6.3 13.1 8.7 Z M 10.2 8.9 C 10.2 7.7 9.5 6.8 7.9 6.8 C 7.9 6.76 4.5 6.8 4.5 6.8 L 4.5 11 C 4.5 11 7.79 11.02 7.8 11 C 9.4 11 10.2 10.1 10.2 8.9 Z M 17.7 19.8 L 14.9 19.8 L 14.9 3.8 L 17.7 3.8 L 17.7 19.8 Z M 30.6 19.8 L 27.9 19.8 C 27.9 19.8 27.87 18.14 27.9 18.1 C 27.2 19.2 26.1 19.9 24.5 19.9 C 22.1 19.9 20.3 18.4 20.3 15.4 C 20.35 15.39 20.3 8.2 20.3 8.2 L 23.1 8.2 C 23.1 8.2 23.14 15.18 23.1 15.2 C 23.1 16.8 23.9 17.4 25.1 17.4 C 26.7 17.4 27.8 16.5 27.8 13.8 C 27.8 13.8 27.8 8.2 27.8 8.2 L 30.6 8.2 L 30.6 19.8 Z M 42.6 16.2 C 42.6 18.8 40.3 20 37.7 20 C 35.3 20 32.7 19 32.5 16.1 C 32.5 16.1 35.3 16.1 35.3 16.1 C 35.5 17.2 36.5 17.7 37.8 17.7 C 39 17.7 39.8 17.3 39.8 16.5 C 39.8 15.7 39.3 15.6 37.7 15.3 C 35.4 14.9 32.8 14.5 32.8 11.7 C 32.8 9.1 35 8 37.4 8 C 40.2 8 42.1 9.3 42.3 11.9 C 42.3 11.9 39.6 11.9 39.6 11.9 C 39.5 10.8 38.7 10.3 37.5 10.3 C 36.1 10.3 35.6 10.9 35.6 11.6 C 35.6 12.5 36.6 12.7 38 12.9 C 40.1 13.2 42.6 13.5 42.6 16.2 Z M 60 19.8 L 57.2 19.8 C 57.2 19.8 57.22 18 57.2 18 C 56.6 19.3 55.3 20 53.7 20 C 50.9 20 48.6 18 48.6 14 C 48.6 10 50.9 8 53.7 8 C 55.2 8 56.5 8.6 57.2 9.7 C 57.16 9.72 57.2 3.8 57.2 3.8 L 60 3.8 L 60 19.8 Z M 57.2 14 C 57.2 11.6 55.8 10.5 54.3 10.5 C 52.8 10.5 51.4 11.6 51.4 14 C 51.4 16.3 52.8 17.5 54.3 17.5 C 55.8 17.5 57.2 16.3 57.2 14 Z M 64.7 14.8 C 64.7 16.7 66.1 17.6 67.6 17.6 C 68.7 17.6 69.8 17.2 70.1 16.1 C 70.1 16.1 72.7 16.1 72.7 16.1 C 72.2 18.7 69.9 20 67.5 20 C 64.7 20 61.9 18.1 61.9 14 C 61.9 10 64.6 8 67.5 8 C 70.3 8 72.7 9.8 72.7 13.7 C 72.72 13.69 72.7 14.8 72.7 14.8 C 72.7 14.8 64.66 14.83 64.7 14.8 Z M 64.7 12.8 C 64.7 12.8 70 12.8 70 12.8 C 70 11.3 68.9 10.4 67.5 10.4 C 66.2 10.4 65 11.1 64.7 12.8 Z M 90.7 15.5 C 90.7 18.5 88 20 85.1 20 C 82.1 20 79.2 18.3 79.2 14.7 C 79.2 14.7 82.1 14.7 82.1 14.7 C 81.9 16.5 83.4 17.5 85.1 17.5 C 86.5 17.5 87.7 16.8 87.7 15.4 C 87.7 14 86.6 13.3 84.5 13.3 C 84.55 13.33 83.4 13.3 83.4 13.3 L 83.4 10.8 C 83.4 10.8 84.46 10.81 84.5 10.8 C 86.4 10.8 87.4 9.9 87.4 8.6 C 87.4 7.3 86.4 6.6 85 6.6 C 83.4 6.6 82.2 7.5 82.2 9.5 C 82.2 9.5 79.3 9.5 79.3 9.5 C 79.3 5.8 82 4 85.1 4 C 87.9 4 90.3 5.5 90.3 8.2 C 90.3 10.2 89.1 11.4 87.8 11.8 C 89.4 12.4 90.7 13.4 90.7 15.5 Z M 92 12.1 C 92 7.2 93.7 4 97.5 4 C 101.3 4 103 7.2 103 12 C 103 16.9 101.3 20 97.5 20 C 93.7 20 92 16.9 92 12.1 Z M 100.2 12.1 C 100.2 9 99.4 6.5 97.4 6.5 C 95.7 6.5 94.8 8.5 94.8 11.9 C 94.8 15.4 95.7 17.6 97.5 17.6 C 99.4 17.6 100.2 15.3 100.2 12.1 Z M 108 3.5 C 110.3 3.5 112 5.1 112 7.5 C 112 9.8 110.3 11.5 108 11.5 C 105.7 11.5 104 9.8 104 7.5 C 104 5.1 105.7 3.5 108 3.5 Z M 109.2 19.8 L 107.5 19.8 L 117.5 4 L 119.1 4 L 109.2 19.8 Z M 108 5.3 C 106.8 5.3 105.9 6.2 105.9 7.5 C 105.9 8.8 106.8 9.7 108 9.7 C 109.2 9.7 110.1 8.8 110.1 7.5 C 110.1 6.2 109.2 5.3 108 5.3 Z M 118.1 12.4 C 120.4 12.4 122.2 14 122.2 16.4 C 122.2 18.7 120.4 20.4 118.1 20.4 C 115.9 20.4 114.2 18.7 114.2 16.4 C 114.2 14 115.9 12.4 118.1 12.4 Z M 118.1 14.2 C 116.9 14.2 116.1 15.1 116.1 16.4 C 116.1 17.7 116.9 18.6 118.1 18.6 C 119.4 18.6 120.2 17.7 120.2 16.4 C 120.2 15.1 119.4 14.2 118.1 14.2 Z M 139.6 19.8 L 136.9 19.8 C 136.9 19.8 136.9 18 136.9 18 C 136.3 19.3 134.9 20 133.3 20 C 130.6 20 128.2 18 128.2 14 C 128.2 10 130.6 8 133.3 8 C 134.8 8 136.1 8.6 136.8 9.7 C 136.83 9.72 136.8 3.8 136.8 3.8 L 139.6 3.8 L 139.6 19.8 Z M 136.9 14 C 136.9 11.6 135.5 10.5 134 10.5 C 132.5 10.5 131.1 11.6 131.1 14 C 131.1 16.3 132.5 17.5 134 17.5 C 135.5 17.5 136.9 16.3 136.9 14 Z M 144.3 14.8 C 144.4 16.7 145.7 17.6 147.3 17.6 C 148.4 17.6 149.5 17.2 149.8 16.1 C 149.8 16.1 152.4 16.1 152.4 16.1 C 151.8 18.7 149.6 20 147.2 20 C 144.4 20 141.6 18.1 141.6 14 C 141.6 10 144.2 8 147.2 8 C 150 8 152.4 9.8 152.4 13.7 C 152.4 13.69 152.4 14.8 152.4 14.8 C 152.4 14.8 144.33 14.83 144.3 14.8 Z M 144.4 12.8 C 144.4 12.8 149.7 12.8 149.7 12.8 C 149.7 11.3 148.6 10.4 147.2 10.4 C 145.9 10.4 144.6 11.1 144.4 12.8 Z M 163.7 16.2 C 163.7 18.8 161.3 20 158.7 20 C 156.3 20 153.7 19 153.6 16.1 C 153.6 16.1 156.4 16.1 156.4 16.1 C 156.6 17.2 157.6 17.7 158.9 17.7 C 160.1 17.7 160.9 17.3 160.9 16.5 C 160.9 15.7 160.4 15.6 158.8 15.3 C 156.5 14.9 153.9 14.5 153.9 11.7 C 153.9 9.1 156.1 8 158.5 8 C 161.2 8 163.2 9.3 163.4 11.9 C 163.4 11.9 160.6 11.9 160.6 11.9 C 160.5 10.8 159.7 10.3 158.5 10.3 C 157.2 10.3 156.6 10.9 156.6 11.6 C 156.6 12.5 157.6 12.7 159.1 12.9 C 161.1 13.2 163.7 13.5 163.7 16.2 Z M 181 14 C 181 17.8 178.5 20 175.3 20 C 172.1 20 169.6 17.8 169.6 14 C 169.6 10.2 172.1 8 175.3 8 C 178.5 8 181 10.2 181 14 Z M 172.5 14 C 172.5 16.3 173.8 17.4 175.3 17.4 C 177 17.4 178.1 16.2 178.1 14 C 178.1 11.7 176.8 10.6 175.3 10.6 C 173.6 10.6 172.5 11.8 172.5 14 Z M 194.3 14 C 194.3 18.1 191.8 20 189.1 20 C 187.7 20 186.4 19.5 185.7 18.4 C 185.68 18.4 185.7 19.8 185.7 19.8 L 183 19.8 L 183 3.8 L 185.7 3.8 C 185.7 3.8 185.74 9.89 185.7 9.9 C 186.4 8.7 187.7 8 189.3 8 C 192 8 194.3 10 194.3 14 Z M 191.5 14 C 191.5 11.7 190.1 10.5 188.6 10.5 C 187.1 10.5 185.7 11.7 185.7 14 C 185.7 16.4 187.1 17.6 188.6 17.6 C 190.1 17.6 191.5 16.4 191.5 14 Z M 199.1 19.8 L 196.3 19.8 L 196.3 3.8 L 199.1 3.8 L 199.1 19.8 Z M 201.7 6.7 L 204.7 6.7 L 204.7 3.5 L 201.7 3.5 L 201.7 6.7 Z M 201.8 8.2 L 204.6 8.2 L 204.6 19.8 L 201.8 19.8 L 201.8 8.2 Z M 217.8 19 C 217.8 22.7 215.4 24.4 212.2 24.4 C 209.4 24.4 207.1 23 206.8 20.1 C 206.8 20.1 209.5 20.1 209.5 20.1 C 209.8 21.6 210.9 22 212.2 22 C 214.1 22 215.1 21.1 215.1 19.3 C 215.1 19.3 215.1 17.4 215.1 17.4 C 214.6 18.6 213.4 19.4 211.7 19.4 C 209.1 19.4 206.6 17.6 206.6 13.7 C 206.6 9.8 209.1 8 211.7 8 C 213.3 8 214.5 8.7 215.1 9.8 C 215.08 9.81 215.1 8.2 215.1 8.2 L 217.8 8.2 C 217.8 8.2 217.77 19 217.8 19 Z M 215 13.7 C 215 11.5 213.8 10.4 212.2 10.4 C 210.7 10.4 209.3 11.5 209.3 13.7 C 209.3 15.9 210.7 16.9 212.2 16.9 C 213.8 16.9 215 15.9 215 13.7 Z M 229.7 12 C 229.65 11.99 229.7 19.8 229.7 19.8 L 226.9 19.8 C 226.9 19.8 226.92 18.1 226.9 18.1 C 226 19.6 224.6 20 223.4 20 C 221.6 20 219.7 18.9 219.7 16.4 C 219.7 14.6 220.7 13.4 223.4 13 C 223.4 13 225.9 12.6 225.9 12.6 C 226.5 12.5 227 12.3 227 11.6 C 227 10.6 226.2 10.2 225.1 10.2 C 223.6 10.2 222.9 10.9 222.8 11.9 C 222.8 11.9 220.1 11.9 220.1 11.9 C 220.4 9.2 222.6 8 225.2 8 C 227.9 8 229.7 9.3 229.7 12 Z M 226.9 14.9 C 226.9 14.9 226.9 14.3 226.9 14.3 C 226.7 14.4 226.1 14.6 225.6 14.6 C 225.6 14.6 224.3 14.8 224.3 14.8 C 222.9 15 222.5 15.6 222.5 16.3 C 222.5 17.2 223.1 17.7 224.1 17.7 C 225.5 17.7 226.9 16.6 226.9 14.9 Z M 238.1 19.8 C 238.1 19.8 236.27 19.78 236.3 19.8 C 234.1 19.8 232.7 19.1 232.7 16 C 232.72 16 232.7 10.7 232.7 10.7 L 230.6 10.7 L 230.6 8.2 L 232.7 8.2 L 232.7 5.6 L 235.5 4.8 L 235.5 8.2 L 237.8 8.2 L 237.8 10.7 L 235.5 10.7 C 235.5 10.7 235.51 16.13 235.5 16.1 C 235.5 16.8 235.7 17.3 236.7 17.3 C 236.69 17.3 238.1 17.3 238.1 17.3 L 238.1 19.8 Z M 239.6 6.7 L 242.5 6.7 L 242.5 3.5 L 239.6 3.5 L 239.6 6.7 Z M 239.6 8.2 L 242.4 8.2 L 242.4 19.8 L 239.6 19.8 L 239.6 8.2 Z M 255.7 14 C 255.7 17.8 253.3 20 250.1 20 C 246.8 20 244.4 17.8 244.4 14 C 244.4 10.2 246.8 8 250.1 8 C 253.3 8 255.7 10.2 255.7 14 Z M 247.3 14 C 247.3 16.3 248.6 17.4 250.1 17.4 C 251.8 17.4 252.9 16.2 252.9 14 C 252.9 11.7 251.6 10.6 250 10.6 C 248.4 10.6 247.3 11.8 247.3 14 Z M 267.9 12.3 C 267.91 12.31 267.9 19.8 267.9 19.8 L 265.1 19.8 C 265.1 19.8 265.12 12.56 265.1 12.6 C 265.1 11.3 264.4 10.5 263.1 10.5 C 261.5 10.5 260.5 11.6 260.5 13.5 C 260.52 13.52 260.5 19.8 260.5 19.8 L 257.7 19.8 L 257.7 8.2 L 260.5 8.2 C 260.5 8.2 260.5 9.87 260.5 9.9 C 261.2 8.8 262.1 8 264 8 C 266.7 8 267.9 9.5 267.9 12.3 Z M 279.8 16.2 C 279.8 18.8 277.5 20 274.9 20 C 272.5 20 269.9 19 269.7 16.1 C 269.7 16.1 272.5 16.1 272.5 16.1 C 272.7 17.2 273.7 17.7 275 17.7 C 276.2 17.7 277 17.3 277 16.5 C 277 15.7 276.5 15.6 274.9 15.3 C 272.6 14.9 270.1 14.5 270.1 11.7 C 270.1 9.1 272.3 8 274.7 8 C 277.4 8 279.4 9.3 279.5 11.9 C 279.5 11.9 276.8 11.9 276.8 11.9 C 276.7 10.8 275.9 10.3 274.7 10.3 C 273.3 10.3 272.8 10.9 272.8 11.6 C 272.8 12.5 273.8 12.7 275.2 12.9 C 277.3 13.2 279.8 13.5 279.8 16.2 Z M 297.1 14 C 297.1 17.8 294.7 20 291.4 20 C 288.2 20 285.8 17.8 285.8 14 C 285.8 10.2 288.2 8 291.4 8 C 294.7 8 297.1 10.2 297.1 14 Z M 288.6 14 C 288.6 16.3 289.9 17.4 291.5 17.4 C 293.1 17.4 294.2 16.2 294.2 14 C 294.2 11.7 293 10.6 291.4 10.6 C 289.8 10.6 288.6 11.8 288.6 14 Z M 309.5 7.4 C 309.47 7.43 309.5 8.2 309.5 8.2 L 311.6 8.2 L 311.6 10.7 L 309.5 10.7 L 309.5 19.8 L 306.7 19.8 L 306.7 10.7 L 302.2 10.7 L 302.2 19.8 L 299.5 19.8 L 299.5 10.7 L 297.7 10.7 L 297.7 8.2 L 299.5 8.2 C 299.5 8.2 299.46 7.56 299.5 7.6 C 299.5 4.5 300.8 3.8 303 3.8 C 303.01 3.78 304.7 3.8 304.7 3.8 L 304.7 6.3 C 304.7 6.3 303.43 6.26 303.4 6.3 C 302.4 6.3 302.2 6.7 302.2 7.4 C 302.25 7.43 302.2 8.2 302.2 8.2 L 306.7 8.2 C 306.7 8.2 306.68 7.56 306.7 7.6 C 306.7 4.5 308.1 3.8 310.2 3.8 C 310.23 3.78 311.9 3.8 311.9 3.8 L 311.9 6.3 C 311.9 6.3 310.65 6.26 310.6 6.3 C 309.7 6.3 309.5 6.7 309.5 7.4 Z M 319.8 10.8 C 319.8 10.8 319.09 10.77 319.1 10.8 C 317.1 10.8 316.1 11.8 316.1 14.1 C 316.07 14.11 316.1 19.8 316.1 19.8 L 313.3 19.8 L 313.3 8.2 L 316 8.2 C 316 8.2 316.05 9.85 316 9.8 C 316.6 8.6 317.7 8.1 319.1 8.1 C 319.07 8.06 319.8 8.1 319.8 8.1 L 319.8 10.8 Z M 323 14.8 C 323 16.7 324.4 17.6 325.9 17.6 C 327 17.6 328.1 17.2 328.4 16.1 C 328.4 16.1 331 16.1 331 16.1 C 330.5 18.7 328.2 20 325.8 20 C 323 20 320.2 18.1 320.2 14 C 320.2 10 322.9 8 325.8 8 C 328.6 8 331 9.8 331 13.7 C 331.02 13.69 331 14.8 331 14.8 C 331 14.8 322.96 14.83 323 14.8 Z M 323 12.8 C 323 12.8 328.3 12.8 328.3 12.8 C 328.3 11.3 327.2 10.4 325.8 10.4 C 324.5 10.4 323.3 11.1 323 12.8 Z M 343.2 12.3 C 343.2 12.31 343.2 19.8 343.2 19.8 L 340.4 19.8 C 340.4 19.8 340.41 12.56 340.4 12.6 C 340.4 11.3 339.7 10.5 338.4 10.5 C 336.8 10.5 335.8 11.6 335.8 13.5 C 335.81 13.52 335.8 19.8 335.8 19.8 L 333 19.8 L 333 8.2 L 335.8 8.2 C 335.8 8.2 335.79 9.87 335.8 9.9 C 336.4 8.8 337.4 8 339.3 8 C 342 8 343.2 9.5 343.2 12.3 Z M 351.7 19.8 C 351.7 19.8 349.92 19.78 349.9 19.8 C 347.8 19.8 346.4 19.1 346.4 16 C 346.37 16 346.4 10.7 346.4 10.7 L 344.2 10.7 L 344.2 8.2 L 346.4 8.2 L 346.4 5.6 L 349.2 4.8 L 349.2 8.2 L 351.5 8.2 L 351.5 10.7 L 349.2 10.7 C 349.2 10.7 349.16 16.13 349.2 16.1 C 349.2 16.8 349.4 17.3 350.3 17.3 C 350.34 17.3 351.7 17.3 351.7 17.3 L 351.7 19.8 Z " stroke="none" fill="#000"/>  </g></svg>