<?xml version="1.0" standalone="no"?><!DOCTYPE svg PUBLIC "-//W3C//DTD SVG 1.1//EN" "http://www.w3.org/Graphics/SVG/1.1/DTD/svg11.dtd"><svg xmlns="http://www.w3.org/2000/svg" version="1.1" width="361.1px" height="139.4px" viewBox="0 -4 361.1 139.4" style="top:-4px">  <desc>What could drive credit spreads higher, and is duration the biggest risk for a credit investment in 2021</desc>  <defs/>  <g id="Polygon10534">    <path d="M 7.9 61.2 C 7.9 61.2 7.18 61.17 7.2 61.2 C 5.2 61.2 4.2 62.2 4.2 64.5 C 4.16 64.51 4.2 70.2 4.2 70.2 L 1.4 70.2 L 1.4 58.6 L 4.1 58.6 C 4.1 58.6 4.14 60.25 4.1 60.2 C 4.7 59 5.8 58.5 7.2 58.5 C 7.16 58.46 7.9 58.5 7.9 58.5 L 7.9 61.2 Z M 9.2 57.1 L 12.1 57.1 L 12.1 53.9 L 9.2 53.9 L 9.2 57.1 Z M 9.3 58.6 L 12.1 58.6 L 12.1 70.2 L 9.3 70.2 L 9.3 58.6 Z M 24 66.6 C 24 69.2 21.7 70.4 19.1 70.4 C 16.7 70.4 14.1 69.4 13.9 66.5 C 13.9 66.5 16.7 66.5 16.7 66.5 C 16.9 67.6 18 68.1 19.3 68.1 C 20.4 68.1 21.3 67.7 21.3 66.9 C 21.3 66.1 20.7 66 19.1 65.7 C 16.9 65.3 14.3 64.9 14.3 62.1 C 14.3 59.5 16.5 58.4 18.9 58.4 C 21.6 58.4 23.6 59.7 23.8 62.3 C 23.8 62.3 21 62.3 21 62.3 C 20.9 61.2 20.1 60.7 18.9 60.7 C 17.5 60.7 17 61.3 17 62 C 17 62.9 18 63.1 19.4 63.3 C 21.5 63.6 24 63.9 24 66.6 Z M 30 65.7 L 28.7 67.1 L 28.7 70.2 L 25.9 70.2 L 25.9 54.2 L 28.7 54.2 L 28.7 63.3 L 32.8 58.6 L 36.5 58.6 L 31.9 63.6 L 36.7 70.2 L 33.2 70.2 L 30 65.7 Z M 47.6 56.7 C 46.6 56.7 46.4 57.1 46.4 57.8 C 46.43 57.83 46.4 58.6 46.4 58.6 L 48.6 58.6 L 48.6 61.1 L 46.4 61.1 L 46.4 70.2 L 43.6 70.2 L 43.6 61.1 L 41.9 61.1 L 41.9 58.6 L 43.6 58.6 C 43.6 58.6 43.64 57.96 43.6 58 C 43.6 54.9 45 54.2 47.2 54.2 C 47.19 54.18 48.9 54.2 48.9 54.2 L 48.9 56.7 C 48.9 56.7 47.61 56.66 47.6 56.7 Z M 60.6 64.4 C 60.6 68.2 58.2 70.4 54.9 70.4 C 51.7 70.4 49.3 68.2 49.3 64.4 C 49.3 60.6 51.7 58.4 54.9 58.4 C 58.2 58.4 60.6 60.6 60.6 64.4 Z M 52.1 64.4 C 52.1 66.7 53.4 67.8 55 67.8 C 56.6 67.8 57.7 66.6 57.7 64.4 C 57.7 62.1 56.5 61 54.9 61 C 53.3 61 52.1 62.2 52.1 64.4 Z M 69.2 61.2 C 69.2 61.2 68.42 61.17 68.4 61.2 C 66.5 61.2 65.4 62.2 65.4 64.5 C 65.39 64.51 65.4 70.2 65.4 70.2 L 62.6 70.2 L 62.6 58.6 L 65.4 58.6 C 65.4 58.6 65.37 60.25 65.4 60.2 C 66 59 67 58.5 68.4 58.5 C 68.4 58.46 69.2 58.5 69.2 58.5 L 69.2 61.2 Z M 84.8 62.4 C 84.82 62.39 84.8 70.2 84.8 70.2 L 82.1 70.2 C 82.1 70.2 82.09 68.5 82.1 68.5 C 81.2 70 79.8 70.4 78.6 70.4 C 76.7 70.4 74.8 69.3 74.8 66.8 C 74.8 65 75.9 63.8 78.5 63.4 C 78.5 63.4 81 63 81 63 C 81.7 62.9 82.2 62.7 82.2 62 C 82.2 61 81.4 60.6 80.2 60.6 C 78.7 60.6 78.1 61.3 78 62.3 C 78 62.3 75.3 62.3 75.3 62.3 C 75.6 59.6 77.7 58.4 80.4 58.4 C 83.1 58.4 84.8 59.7 84.8 62.4 Z M 82.1 65.3 C 82.1 65.3 82.1 64.7 82.1 64.7 C 81.8 64.8 81.3 65 80.7 65 C 80.7 65 79.5 65.2 79.5 65.2 C 78.1 65.4 77.6 66 77.6 66.7 C 77.6 67.6 78.3 68.1 79.2 68.1 C 80.7 68.1 82.1 67 82.1 65.3 Z M 97.1 70.4 C 93.3 70.4 91.4 67.5 91.4 64.4 C 91.4 61.3 93.2 58.4 97 58.4 C 99.9 58.4 102.1 60 102.2 62.8 C 102.2 62.8 99.4 62.8 99.4 62.8 C 99.3 61.7 98.5 60.9 97.1 60.9 C 95.1 60.9 94.2 62.6 94.2 64.4 C 94.2 66.3 95.1 67.8 97.1 67.8 C 98.4 67.8 99.3 67.1 99.5 66.1 C 99.5 66.1 102.2 66.1 102.2 66.1 C 101.9 68.9 99.9 70.4 97.1 70.4 Z M 110.8 61.2 C 110.8 61.2 110.06 61.17 110.1 61.2 C 108.1 61.2 107 62.2 107 64.5 C 107.04 64.51 107 70.2 107 70.2 L 104.2 70.2 L 104.2 58.6 L 107 58.6 C 107 58.6 107.02 60.25 107 60.2 C 107.6 59 108.7 58.5 110 58.5 C 110.04 58.46 110.8 58.5 110.8 58.5 L 110.8 61.2 Z M 113.9 65.2 C 114 67.1 115.3 68 116.9 68 C 118 68 119 67.6 119.4 66.5 C 119.4 66.5 121.9 66.5 121.9 66.5 C 121.4 69.1 119.2 70.4 116.8 70.4 C 114 70.4 111.2 68.5 111.2 64.4 C 111.2 60.4 113.8 58.4 116.8 58.4 C 119.6 58.4 122 60.2 122 64.1 C 121.99 64.09 122 65.2 122 65.2 C 122 65.2 113.92 65.23 113.9 65.2 Z M 114 63.2 C 114 63.2 119.3 63.2 119.3 63.2 C 119.3 61.7 118.2 60.8 116.8 60.8 C 115.5 60.8 114.2 61.5 114 63.2 Z M 134.6 70.2 L 131.9 70.2 C 131.9 70.2 131.9 68.4 131.9 68.4 C 131.3 69.7 129.9 70.4 128.3 70.4 C 125.6 70.4 123.2 68.4 123.2 64.4 C 123.2 60.4 125.6 58.4 128.3 58.4 C 129.8 58.4 131.1 59 131.8 60.1 C 131.84 60.12 131.8 54.2 131.8 54.2 L 134.6 54.2 L 134.6 70.2 Z M 131.9 64.4 C 131.9 62 130.5 60.9 129 60.9 C 127.5 60.9 126.1 62 126.1 64.4 C 126.1 66.7 127.5 67.9 129 67.9 C 130.5 67.9 131.9 66.7 131.9 64.4 Z M 137.3 57.1 L 140.2 57.1 L 140.2 53.9 L 137.3 53.9 L 137.3 57.1 Z M 137.3 58.6 L 140.1 58.6 L 140.1 70.2 L 137.3 70.2 L 137.3 58.6 Z M 148.8 70.2 C 148.8 70.2 146.94 70.18 146.9 70.2 C 144.8 70.2 143.4 69.5 143.4 66.4 C 143.39 66.4 143.4 61.1 143.4 61.1 L 141.3 61.1 L 141.3 58.6 L 143.4 58.6 L 143.4 56 L 146.2 55.2 L 146.2 58.6 L 148.5 58.6 L 148.5 61.1 L 146.2 61.1 C 146.2 61.1 146.18 66.53 146.2 66.5 C 146.2 67.2 146.4 67.7 147.4 67.7 C 147.36 67.7 148.8 67.7 148.8 67.7 L 148.8 70.2 Z M 155.7 57.1 L 158.7 57.1 L 158.7 53.9 L 155.7 53.9 L 155.7 57.1 Z M 155.8 58.6 L 158.6 58.6 L 158.6 70.2 L 155.8 70.2 L 155.8 58.6 Z M 171.5 62.7 C 171.46 62.71 171.5 70.2 171.5 70.2 L 168.7 70.2 C 168.7 70.2 168.67 62.96 168.7 63 C 168.7 61.7 167.9 60.9 166.6 60.9 C 165 60.9 164.1 62 164.1 63.9 C 164.07 63.92 164.1 70.2 164.1 70.2 L 161.3 70.2 L 161.3 58.6 L 164.1 58.6 C 164.1 58.6 164.05 60.27 164.1 60.3 C 164.7 59.2 165.6 58.4 167.6 58.4 C 170.2 58.4 171.5 59.9 171.5 62.7 Z M 180 70.2 L 177 70.2 L 172.7 58.6 L 175.7 58.6 L 178.5 66.9 L 181.4 58.6 L 184.3 58.6 L 180 70.2 Z M 187.4 65.2 C 187.5 67.1 188.8 68 190.4 68 C 191.5 68 192.5 67.6 192.9 66.5 C 192.9 66.5 195.4 66.5 195.4 66.5 C 194.9 69.1 192.6 70.4 190.3 70.4 C 187.5 70.4 184.7 68.5 184.7 64.4 C 184.7 60.4 187.3 58.4 190.3 58.4 C 193.1 58.4 195.5 60.2 195.5 64.1 C 195.47 64.09 195.5 65.2 195.5 65.2 C 195.5 65.2 187.4 65.23 187.4 65.2 Z M 187.5 63.2 C 187.5 63.2 192.7 63.2 192.7 63.2 C 192.7 61.7 191.7 60.8 190.2 60.8 C 189 60.8 187.7 61.5 187.5 63.2 Z M 206.7 66.6 C 206.7 69.2 204.4 70.4 201.8 70.4 C 199.4 70.4 196.8 69.4 196.6 66.5 C 196.6 66.5 199.4 66.5 199.4 66.5 C 199.6 67.6 200.7 68.1 202 68.1 C 203.1 68.1 204 67.7 204 66.9 C 204 66.1 203.4 66 201.8 65.7 C 199.6 65.3 197 64.9 197 62.1 C 197 59.5 199.2 58.4 201.6 58.4 C 204.3 58.4 206.3 59.7 206.4 62.3 C 206.4 62.3 203.7 62.3 203.7 62.3 C 203.6 61.2 202.8 60.7 201.6 60.7 C 200.2 60.7 199.7 61.3 199.7 62 C 199.7 62.9 200.7 63.1 202.1 63.3 C 204.2 63.6 206.7 63.9 206.7 66.6 Z M 214.5 70.2 C 214.5 70.2 212.71 70.18 212.7 70.2 C 210.5 70.2 209.2 69.5 209.2 66.4 C 209.16 66.4 209.2 61.1 209.2 61.1 L 207 61.1 L 207 58.6 L 209.2 58.6 L 209.2 56 L 212 55.2 L 212 58.6 L 214.3 58.6 L 214.3 61.1 L 212 61.1 C 212 61.1 211.95 66.53 212 66.5 C 212 67.2 212.1 67.7 213.1 67.7 C 213.13 67.7 214.5 67.7 214.5 67.7 L 214.5 70.2 Z M 232.5 62.4 C 232.47 62.37 232.5 70.2 232.5 70.2 L 229.7 70.2 C 229.7 70.2 229.67 62.92 229.7 62.9 C 229.7 61.5 229 60.9 227.9 60.9 C 226.5 60.9 225.7 61.7 225.7 63.7 C 225.68 63.67 225.7 70.2 225.7 70.2 L 222.9 70.2 C 222.9 70.2 222.89 62.92 222.9 62.9 C 222.9 61.5 222.2 60.9 221.1 60.9 C 219.8 60.9 218.9 61.7 218.9 63.7 C 218.9 63.65 218.9 70.2 218.9 70.2 L 216.1 70.2 L 216.1 58.6 L 218.9 58.6 C 218.9 58.6 218.86 60.29 218.9 60.3 C 219.2 59.4 220.1 58.4 221.9 58.4 C 223.4 58.4 224.5 59.1 225.1 60.3 C 225.5 59.5 226.3 58.4 228.4 58.4 C 230.9 58.4 232.5 59.9 232.5 62.4 Z M 237.1 65.2 C 237.1 67.1 238.5 68 240 68 C 241.1 68 242.2 67.6 242.5 66.5 C 242.5 66.5 245.1 66.5 245.1 66.5 C 244.6 69.1 242.3 70.4 239.9 70.4 C 237.1 70.4 234.4 68.5 234.4 64.4 C 234.4 60.4 237 58.4 239.9 58.4 C 242.8 58.4 245.1 60.2 245.1 64.1 C 245.13 64.09 245.1 65.2 245.1 65.2 C 245.1 65.2 237.07 65.23 237.1 65.2 Z M 237.1 63.2 C 237.1 63.2 242.4 63.2 242.4 63.2 C 242.4 61.7 241.3 60.8 239.9 60.8 C 238.6 60.8 237.4 61.5 237.1 63.2 Z M 257.3 62.7 C 257.31 62.71 257.3 70.2 257.3 70.2 L 254.5 70.2 C 254.5 70.2 254.52 62.96 254.5 63 C 254.5 61.7 253.8 60.9 252.5 60.9 C 250.9 60.9 249.9 62 249.9 63.9 C 249.92 63.92 249.9 70.2 249.9 70.2 L 247.1 70.2 L 247.1 58.6 L 249.9 58.6 C 249.9 58.6 249.9 60.27 249.9 60.3 C 250.5 59.2 251.5 58.4 253.4 58.4 C 256.1 58.4 257.3 59.9 257.3 62.7 Z M 265.9 70.2 C 265.9 70.2 264.03 70.18 264 70.2 C 261.9 70.2 260.5 69.5 260.5 66.4 C 260.48 66.4 260.5 61.1 260.5 61.1 L 258.4 61.1 L 258.4 58.6 L 260.5 58.6 L 260.5 56 L 263.3 55.2 L 263.3 58.6 L 265.6 58.6 L 265.6 61.1 L 263.3 61.1 C 263.3 61.1 263.27 66.53 263.3 66.5 C 263.3 67.2 263.5 67.7 264.4 67.7 C 264.45 67.7 265.9 67.7 265.9 67.7 L 265.9 70.2 Z M 272.8 57.1 L 275.7 57.1 L 275.7 53.9 L 272.8 53.9 L 272.8 57.1 Z M 272.9 58.6 L 275.7 58.6 L 275.7 70.2 L 272.9 70.2 L 272.9 58.6 Z M 288.6 62.7 C 288.56 62.71 288.6 70.2 288.6 70.2 L 285.8 70.2 C 285.8 70.2 285.76 62.96 285.8 63 C 285.8 61.7 285 60.9 283.7 60.9 C 282.1 60.9 281.2 62 281.2 63.9 C 281.17 63.92 281.2 70.2 281.2 70.2 L 278.4 70.2 L 278.4 58.6 L 281.1 58.6 C 281.1 58.6 281.14 60.27 281.1 60.3 C 281.8 59.2 282.7 58.4 284.7 58.4 C 287.3 58.4 288.6 59.9 288.6 62.7 Z M 307.6 70.2 L 296.2 70.2 L 296.2 67.6 C 296.2 67.6 300 64.47 300 64.5 C 302.9 62.1 304.2 60.9 304.2 59.3 C 304.2 57.9 303.1 57.1 301.6 57.1 C 300 57.1 298.9 58 298.8 59.9 C 298.8 59.9 296 59.9 296 59.9 C 296 56.3 298.7 54.4 301.8 54.4 C 304.7 54.4 307.1 56 307.1 59.1 C 307.1 61.8 305.1 63.6 302.4 65.8 C 302.37 65.81 300.1 67.6 300.1 67.6 L 307.6 67.6 L 307.6 70.2 Z M 308.9 62.5 C 308.9 57.6 310.6 54.4 314.4 54.4 C 318.2 54.4 319.9 57.6 319.9 62.4 C 319.9 67.3 318.1 70.4 314.3 70.4 C 310.5 70.4 308.9 67.3 308.9 62.5 Z M 317.1 62.5 C 317.1 59.4 316.3 56.9 314.3 56.9 C 312.5 56.9 311.7 58.9 311.7 62.3 C 311.7 65.8 312.6 68 314.4 68 C 316.3 68 317.1 65.7 317.1 62.5 Z M 332.8 70.2 L 321.4 70.2 L 321.4 67.6 C 321.4 67.6 325.2 64.47 325.2 64.5 C 328.1 62.1 329.4 60.9 329.4 59.3 C 329.4 57.9 328.3 57.1 326.8 57.1 C 325.2 57.1 324.1 58 324 59.9 C 324 59.9 321.2 59.9 321.2 59.9 C 321.2 56.3 323.9 54.4 327 54.4 C 329.9 54.4 332.3 56 332.3 59.1 C 332.3 61.8 330.3 63.6 327.6 65.8 C 327.57 65.81 325.3 67.6 325.3 67.6 L 332.8 67.6 L 332.8 70.2 Z M 344.9 67.6 L 344.9 70.2 L 334.5 70.2 L 334.5 67.6 L 338.3 67.6 C 338.3 67.6 338.33 58.36 338.3 58.4 C 337.1 59.1 335.6 59.5 334.5 59.6 C 334.5 59.6 334.5 56.8 334.5 56.8 C 335.9 56.6 337.4 56 338.7 54.7 C 338.75 54.7 341.1 54.7 341.1 54.7 L 341.1 67.6 L 344.9 67.6 Z M 350 64.6 C 350 61.9 351.4 61.4 352.6 60.5 C 353.6 59.8 354.1 59.2 354.1 58.4 C 354.1 57.2 353.2 56.6 352 56.6 C 350.5 56.6 349.6 57.4 349.6 58.8 C 349.6 58.8 346.7 58.8 346.7 58.8 C 347 55.4 349.5 54.2 352.1 54.2 C 354.8 54.2 357 55.5 357 58.3 C 357 60.5 355.7 61.4 354.3 62.4 C 353.2 63.2 352.7 63.7 352.7 64.6 C 352.69 64.64 352.7 65.3 352.7 65.3 L 350 65.3 C 350 65.3 350.02 64.55 350 64.6 Z M 349.8 66.9 L 352.9 66.9 L 352.9 70.2 L 349.8 70.2 L 349.8 66.9 Z " stroke="none" fill="#000"/>  </g>  <g id="Polygon10533">    <path d="M 11.6 37.5 C 11.55 37.51 11.6 45 11.6 45 L 8.8 45 C 8.8 45 8.76 37.76 8.8 37.8 C 8.8 36.5 8 35.7 6.7 35.7 C 5.1 35.7 4.2 36.8 4.2 38.7 C 4.16 38.72 4.2 45 4.2 45 L 1.4 45 L 1.4 29 L 4.2 29 C 4.2 29 4.16 35.03 4.2 35 C 4.8 33.9 5.8 33.2 7.7 33.2 C 10.3 33.2 11.6 34.7 11.6 37.5 Z M 14.1 31.9 L 17 31.9 L 17 28.7 L 14.1 28.7 L 14.1 31.9 Z M 14.2 33.4 L 16.9 33.4 L 16.9 45 L 14.2 45 L 14.2 33.4 Z M 30.1 44.2 C 30.1 47.9 27.7 49.6 24.6 49.6 C 21.8 49.6 19.4 48.2 19.1 45.3 C 19.1 45.3 21.8 45.3 21.8 45.3 C 22.1 46.8 23.3 47.2 24.6 47.2 C 26.4 47.2 27.4 46.3 27.4 44.5 C 27.4 44.5 27.4 42.6 27.4 42.6 C 26.9 43.8 25.7 44.6 24 44.6 C 21.4 44.6 18.9 42.8 18.9 38.9 C 18.9 35 21.4 33.2 24 33.2 C 25.6 33.2 26.8 33.9 27.4 35 C 27.4 35.01 27.4 33.4 27.4 33.4 L 30.1 33.4 C 30.1 33.4 30.09 44.2 30.1 44.2 Z M 27.3 38.9 C 27.3 36.7 26.1 35.6 24.6 35.6 C 23 35.6 21.7 36.7 21.7 38.9 C 21.7 41.1 23 42.1 24.6 42.1 C 26.1 42.1 27.3 41.1 27.3 38.9 Z M 42.9 37.5 C 42.9 37.51 42.9 45 42.9 45 L 40.1 45 C 40.1 45 40.11 37.76 40.1 37.8 C 40.1 36.5 39.4 35.7 38.1 35.7 C 36.5 35.7 35.5 36.8 35.5 38.7 C 35.51 38.72 35.5 45 35.5 45 L 32.7 45 L 32.7 29 L 35.5 29 C 35.5 29 35.51 35.03 35.5 35 C 36.2 33.9 37.2 33.2 39 33.2 C 41.7 33.2 42.9 34.7 42.9 37.5 Z M 47.5 40 C 47.6 41.9 48.9 42.8 50.5 42.8 C 51.6 42.8 52.6 42.4 53 41.3 C 53 41.3 55.5 41.3 55.5 41.3 C 55 43.9 52.7 45.2 50.4 45.2 C 47.6 45.2 44.8 43.3 44.8 39.2 C 44.8 35.2 47.4 33.2 50.4 33.2 C 53.2 33.2 55.6 35 55.6 38.9 C 55.56 38.89 55.6 40 55.6 40 C 55.6 40 47.5 40.03 47.5 40 Z M 47.6 38 C 47.6 38 52.8 38 52.8 38 C 52.8 36.5 51.8 35.6 50.3 35.6 C 49.1 35.6 47.8 36.3 47.6 38 Z M 64.1 36 C 64.1 36 63.38 35.97 63.4 36 C 61.4 36 60.4 37 60.4 39.3 C 60.35 39.31 60.4 45 60.4 45 L 57.6 45 L 57.6 33.4 L 60.3 33.4 C 60.3 33.4 60.33 35.05 60.3 35 C 60.9 33.8 62 33.3 63.4 33.3 C 63.36 33.26 64.1 33.3 64.1 33.3 L 64.1 36 Z M 65.9 44.8 C 65.92 44.79 64.5 44.8 64.5 44.8 L 64.5 41.9 L 67.7 41.9 C 67.7 41.9 67.7 44.39 67.7 44.4 C 67.7 47.4 65.6 48.5 63.8 48.7 C 63.8 48.7 63.5 47.2 63.5 47.2 C 65 47 65.9 46.1 65.9 44.8 Z M 84 37.2 C 84 37.19 84 45 84 45 L 81.3 45 C 81.3 45 81.27 43.3 81.3 43.3 C 80.4 44.8 79 45.2 77.8 45.2 C 75.9 45.2 74 44.1 74 41.6 C 74 39.8 75 38.6 77.7 38.2 C 77.7 38.2 80.2 37.8 80.2 37.8 C 80.9 37.7 81.4 37.5 81.4 36.8 C 81.4 35.8 80.5 35.4 79.4 35.4 C 77.9 35.4 77.3 36.1 77.2 37.1 C 77.2 37.1 74.5 37.1 74.5 37.1 C 74.8 34.4 76.9 33.2 79.5 33.2 C 82.3 33.2 84 34.5 84 37.2 Z M 81.3 40.1 C 81.3 40.1 81.3 39.5 81.3 39.5 C 81 39.6 80.5 39.8 79.9 39.8 C 79.9 39.8 78.7 40 78.7 40 C 77.3 40.2 76.8 40.8 76.8 41.5 C 76.8 42.4 77.4 42.9 78.4 42.9 C 79.9 42.9 81.3 41.8 81.3 40.1 Z M 96.7 37.5 C 96.7 37.51 96.7 45 96.7 45 L 93.9 45 C 93.9 45 93.91 37.76 93.9 37.8 C 93.9 36.5 93.2 35.7 91.9 35.7 C 90.3 35.7 89.3 36.8 89.3 38.7 C 89.31 38.72 89.3 45 89.3 45 L 86.5 45 L 86.5 33.4 L 89.3 33.4 C 89.3 33.4 89.29 35.07 89.3 35.1 C 89.9 34 90.9 33.2 92.8 33.2 C 95.5 33.2 96.7 34.7 96.7 37.5 Z M 110 45 L 107.2 45 C 107.2 45 107.25 43.2 107.2 43.2 C 106.6 44.5 105.3 45.2 103.7 45.2 C 101 45.2 98.6 43.2 98.6 39.2 C 98.6 35.2 101 33.2 103.7 33.2 C 105.2 33.2 106.5 33.8 107.2 34.9 C 107.18 34.92 107.2 29 107.2 29 L 110 29 L 110 45 Z M 107.3 39.2 C 107.3 36.8 105.8 35.7 104.3 35.7 C 102.8 35.7 101.4 36.8 101.4 39.2 C 101.4 41.5 102.8 42.7 104.3 42.7 C 105.8 42.7 107.3 41.5 107.3 39.2 Z M 118.3 31.9 L 121.2 31.9 L 121.2 28.7 L 118.3 28.7 L 118.3 31.9 Z M 118.4 33.4 L 121.1 33.4 L 121.1 45 L 118.4 45 L 118.4 33.4 Z M 133.1 41.4 C 133.1 44 130.8 45.2 128.2 45.2 C 125.8 45.2 123.2 44.2 123 41.3 C 123 41.3 125.8 41.3 125.8 41.3 C 126 42.4 127 42.9 128.3 42.9 C 129.5 42.9 130.4 42.5 130.4 41.7 C 130.4 40.9 129.8 40.8 128.2 40.5 C 126 40.1 123.4 39.7 123.4 36.9 C 123.4 34.3 125.6 33.2 128 33.2 C 130.7 33.2 132.7 34.5 132.8 37.1 C 132.8 37.1 130.1 37.1 130.1 37.1 C 130 36 129.2 35.5 128 35.5 C 126.6 35.5 126.1 36.1 126.1 36.8 C 126.1 37.7 127.1 37.9 128.5 38.1 C 130.6 38.4 133.1 38.7 133.1 41.4 Z M 150.5 45 L 147.8 45 C 147.8 45 147.75 43.2 147.8 43.2 C 147.1 44.5 145.8 45.2 144.2 45.2 C 141.5 45.2 139.1 43.2 139.1 39.2 C 139.1 35.2 141.5 33.2 144.2 33.2 C 145.7 33.2 147 33.8 147.7 34.9 C 147.69 34.92 147.7 29 147.7 29 L 150.5 29 L 150.5 45 Z M 147.8 39.2 C 147.8 36.8 146.3 35.7 144.8 35.7 C 143.3 35.7 141.9 36.8 141.9 39.2 C 141.9 41.5 143.3 42.7 144.8 42.7 C 146.3 42.7 147.8 41.5 147.8 39.2 Z M 163.4 45 L 160.6 45 C 160.6 45 160.63 43.34 160.6 43.3 C 160 44.4 158.9 45.1 157.3 45.1 C 154.9 45.1 153.1 43.6 153.1 40.6 C 153.11 40.59 153.1 33.4 153.1 33.4 L 155.9 33.4 C 155.9 33.4 155.9 40.38 155.9 40.4 C 155.9 42 156.7 42.6 157.9 42.6 C 159.4 42.6 160.6 41.7 160.6 39 C 160.56 39 160.6 33.4 160.6 33.4 L 163.4 33.4 L 163.4 45 Z M 172.6 36 C 172.6 36 171.9 35.97 171.9 36 C 170 36 168.9 37 168.9 39.3 C 168.88 39.31 168.9 45 168.9 45 L 166.1 45 L 166.1 33.4 L 168.9 33.4 C 168.9 33.4 168.86 35.05 168.9 35 C 169.4 33.8 170.5 33.3 171.9 33.3 C 171.88 33.26 172.6 33.3 172.6 33.3 L 172.6 36 Z M 183.3 37.2 C 183.26 37.19 183.3 45 183.3 45 L 180.5 45 C 180.5 45 180.53 43.3 180.5 43.3 C 179.6 44.8 178.2 45.2 177 45.2 C 175.2 45.2 173.3 44.1 173.3 41.6 C 173.3 39.8 174.3 38.6 177 38.2 C 177 38.2 179.5 37.8 179.5 37.8 C 180.2 37.7 180.6 37.5 180.6 36.8 C 180.6 35.8 179.8 35.4 178.7 35.4 C 177.2 35.4 176.5 36.1 176.4 37.1 C 176.4 37.1 173.7 37.1 173.7 37.1 C 174 34.4 176.2 33.2 178.8 33.2 C 181.5 33.2 183.3 34.5 183.3 37.2 Z M 180.6 40.1 C 180.6 40.1 180.6 39.5 180.6 39.5 C 180.3 39.6 179.8 39.8 179.2 39.8 C 179.2 39.8 177.9 40 177.9 40 C 176.5 40.2 176.1 40.8 176.1 41.5 C 176.1 42.4 176.7 42.9 177.7 42.9 C 179.1 42.9 180.6 41.8 180.6 40.1 Z M 191.7 45 C 191.7 45 189.88 44.98 189.9 45 C 187.7 45 186.3 44.3 186.3 41.2 C 186.33 41.2 186.3 35.9 186.3 35.9 L 184.2 35.9 L 184.2 33.4 L 186.3 33.4 L 186.3 30.8 L 189.1 30 L 189.1 33.4 L 191.4 33.4 L 191.4 35.9 L 189.1 35.9 C 189.1 35.9 189.12 41.33 189.1 41.3 C 189.1 42 189.3 42.5 190.3 42.5 C 190.3 42.5 191.7 42.5 191.7 42.5 L 191.7 45 Z M 193.2 31.9 L 196.1 31.9 L 196.1 28.7 L 193.2 28.7 L 193.2 31.9 Z M 193.3 33.4 L 196.1 33.4 L 196.1 45 L 193.3 45 L 193.3 33.4 Z M 209.3 39.2 C 209.3 43 206.9 45.2 203.7 45.2 C 200.4 45.2 198 43 198 39.2 C 198 35.4 200.4 33.2 203.7 33.2 C 206.9 33.2 209.3 35.4 209.3 39.2 Z M 200.9 39.2 C 200.9 41.5 202.2 42.6 203.7 42.6 C 205.4 42.6 206.5 41.4 206.5 39.2 C 206.5 36.9 205.2 35.8 203.7 35.8 C 202 35.8 200.9 37 200.9 39.2 Z M 221.5 37.5 C 221.53 37.51 221.5 45 221.5 45 L 218.7 45 C 218.7 45 218.73 37.76 218.7 37.8 C 218.7 36.5 218 35.7 216.7 35.7 C 215.1 35.7 214.1 36.8 214.1 38.7 C 214.13 38.72 214.1 45 214.1 45 L 211.3 45 L 211.3 33.4 L 214.1 33.4 C 214.1 33.4 214.11 35.07 214.1 35.1 C 214.8 34 215.7 33.2 217.6 33.2 C 220.3 33.2 221.5 34.7 221.5 37.5 Z M 235.5 45 C 235.5 45 233.71 44.98 233.7 45 C 231.5 45 230.2 44.3 230.2 41.2 C 230.16 41.2 230.2 35.9 230.2 35.9 L 228 35.9 L 228 33.4 L 230.2 33.4 L 230.2 30.8 L 232.9 30 L 232.9 33.4 L 235.3 33.4 L 235.3 35.9 L 232.9 35.9 C 232.9 35.9 232.95 41.33 232.9 41.3 C 232.9 42 233.1 42.5 234.1 42.5 C 234.13 42.5 235.5 42.5 235.5 42.5 L 235.5 45 Z M 247.3 37.5 C 247.29 37.51 247.3 45 247.3 45 L 244.5 45 C 244.5 45 244.5 37.76 244.5 37.8 C 244.5 36.5 243.8 35.7 242.5 35.7 C 240.9 35.7 239.9 36.8 239.9 38.7 C 239.9 38.72 239.9 45 239.9 45 L 237.1 45 L 237.1 29 L 239.9 29 C 239.9 29 239.9 35.03 239.9 35 C 240.6 33.9 241.6 33.2 243.4 33.2 C 246.1 33.2 247.3 34.7 247.3 37.5 Z M 251.9 40 C 252 41.9 253.3 42.8 254.9 42.8 C 256 42.8 257 42.4 257.4 41.3 C 257.4 41.3 259.9 41.3 259.9 41.3 C 259.4 43.9 257.1 45.2 254.7 45.2 C 252 45.2 249.2 43.3 249.2 39.2 C 249.2 35.2 251.8 33.2 254.8 33.2 C 257.6 33.2 260 35 260 38.9 C 259.96 38.89 260 40 260 40 C 260 40 251.89 40.03 251.9 40 Z M 252 38 C 252 38 257.2 38 257.2 38 C 257.2 36.5 256.2 35.6 254.7 35.6 C 253.4 35.6 252.2 36.3 252 38 Z M 278.6 39.2 C 278.6 43.3 276.1 45.2 273.4 45.2 C 271.9 45.2 270.6 44.7 269.9 43.6 C 269.93 43.6 269.9 45 269.9 45 L 267.2 45 L 267.2 29 L 270 29 C 270 29 269.99 35.09 270 35.1 C 270.6 33.9 272 33.2 273.5 33.2 C 276.3 33.2 278.6 35.2 278.6 39.2 Z M 275.7 39.2 C 275.7 36.9 274.4 35.7 272.8 35.7 C 271.3 35.7 269.9 36.9 269.9 39.2 C 269.9 41.6 271.3 42.8 272.8 42.8 C 274.4 42.8 275.7 41.6 275.7 39.2 Z M 280.5 31.9 L 283.4 31.9 L 283.4 28.7 L 280.5 28.7 L 280.5 31.9 Z M 280.6 33.4 L 283.3 33.4 L 283.3 45 L 280.6 45 L 280.6 33.4 Z M 296.5 44.2 C 296.5 47.9 294.1 49.6 291 49.6 C 288.2 49.6 285.8 48.2 285.5 45.3 C 285.5 45.3 288.2 45.3 288.2 45.3 C 288.5 46.8 289.7 47.2 291 47.2 C 292.8 47.2 293.8 46.3 293.8 44.5 C 293.8 44.5 293.8 42.6 293.8 42.6 C 293.3 43.8 292.1 44.6 290.4 44.6 C 287.8 44.6 285.3 42.8 285.3 38.9 C 285.3 35 287.8 33.2 290.4 33.2 C 292 33.2 293.2 33.9 293.8 35 C 293.81 35.01 293.8 33.4 293.8 33.4 L 296.5 33.4 C 296.5 33.4 296.49 44.2 296.5 44.2 Z M 293.7 38.9 C 293.7 36.7 292.5 35.6 291 35.6 C 289.4 35.6 288.1 36.7 288.1 38.9 C 288.1 41.1 289.4 42.1 291 42.1 C 292.5 42.1 293.7 41.1 293.7 38.9 Z M 309.6 44.2 C 309.6 47.9 307.2 49.6 304 49.6 C 301.2 49.6 298.9 48.2 298.6 45.3 C 298.6 45.3 301.3 45.3 301.3 45.3 C 301.6 46.8 302.7 47.2 304 47.2 C 305.8 47.2 306.9 46.3 306.9 44.5 C 306.9 44.5 306.9 42.6 306.9 42.6 C 306.3 43.8 305.2 44.6 303.4 44.6 C 300.8 44.6 298.4 42.8 298.4 38.9 C 298.4 35 300.8 33.2 303.4 33.2 C 305.1 33.2 306.3 33.9 306.9 35 C 306.87 35.01 306.9 33.4 306.9 33.4 L 309.6 33.4 C 309.6 33.4 309.56 44.2 309.6 44.2 Z M 306.8 38.9 C 306.8 36.7 305.5 35.6 304 35.6 C 302.5 35.6 301.1 36.7 301.1 38.9 C 301.1 41.1 302.5 42.1 304 42.1 C 305.5 42.1 306.8 41.1 306.8 38.9 Z M 314.2 40 C 314.2 41.9 315.6 42.8 317.1 42.8 C 318.2 42.8 319.3 42.4 319.6 41.3 C 319.6 41.3 322.2 41.3 322.2 41.3 C 321.7 43.9 319.4 45.2 317 45.2 C 314.2 45.2 311.4 43.3 311.4 39.2 C 311.4 35.2 314.1 33.2 317 33.2 C 319.8 33.2 322.2 35 322.2 38.9 C 322.22 38.89 322.2 40 322.2 40 C 322.2 40 314.16 40.03 314.2 40 Z M 314.2 38 C 314.2 38 319.5 38 319.5 38 C 319.5 36.5 318.4 35.6 317 35.6 C 315.7 35.6 314.5 36.3 314.2 38 Z M 333.5 41.4 C 333.5 44 331.2 45.2 328.6 45.2 C 326.2 45.2 323.6 44.2 323.4 41.3 C 323.4 41.3 326.2 41.3 326.2 41.3 C 326.4 42.4 327.4 42.9 328.7 42.9 C 329.9 42.9 330.7 42.5 330.7 41.7 C 330.7 40.9 330.2 40.8 328.6 40.5 C 326.3 40.1 323.7 39.7 323.7 36.9 C 323.7 34.3 325.9 33.2 328.3 33.2 C 331 33.2 333 34.5 333.2 37.1 C 333.2 37.1 330.5 37.1 330.5 37.1 C 330.4 36 329.5 35.5 328.4 35.5 C 327 35.5 326.4 36.1 326.4 36.8 C 326.4 37.7 327.5 37.9 328.9 38.1 C 331 38.4 333.5 38.7 333.5 41.4 Z M 341.3 45 C 341.3 45 339.46 44.98 339.5 45 C 337.3 45 335.9 44.3 335.9 41.2 C 335.91 41.2 335.9 35.9 335.9 35.9 L 333.8 35.9 L 333.8 33.4 L 335.9 33.4 L 335.9 30.8 L 338.7 30 L 338.7 33.4 L 341 33.4 L 341 35.9 L 338.7 35.9 C 338.7 35.9 338.7 41.33 338.7 41.3 C 338.7 42 338.9 42.5 339.9 42.5 C 339.88 42.5 341.3 42.5 341.3 42.5 L 341.3 45 Z " stroke="none" fill="#000"/>  </g>  <g id="Polygon10532">    <path d="M 16.8 19.8 L 13.9 19.8 L 10.6 8.5 L 7.3 19.8 L 4.4 19.8 L 0.3 4 L 3.4 4 L 6 15 L 9.2 4 L 12.1 4 L 15.3 15.1 L 17.9 4 L 20.9 4 L 16.8 19.8 Z M 32.8 12.3 C 32.78 12.31 32.8 19.8 32.8 19.8 L 30 19.8 C 30 19.8 29.99 12.56 30 12.6 C 30 11.3 29.3 10.5 28 10.5 C 26.4 10.5 25.4 11.6 25.4 13.5 C 25.39 13.52 25.4 19.8 25.4 19.8 L 22.6 19.8 L 22.6 3.8 L 25.4 3.8 C 25.4 3.8 25.39 9.83 25.4 9.8 C 26.1 8.7 27 8 28.9 8 C 31.5 8 32.8 9.5 32.8 12.3 Z M 44.7 12 C 44.67 11.99 44.7 19.8 44.7 19.8 L 41.9 19.8 C 41.9 19.8 41.94 18.1 41.9 18.1 C 41 19.6 39.6 20 38.4 20 C 36.6 20 34.7 18.9 34.7 16.4 C 34.7 14.6 35.7 13.4 38.4 13 C 38.4 13 40.9 12.6 40.9 12.6 C 41.6 12.5 42 12.3 42 11.6 C 42 10.6 41.2 10.2 40.1 10.2 C 38.6 10.2 37.9 10.9 37.8 11.9 C 37.8 11.9 35.1 11.9 35.1 11.9 C 35.4 9.2 37.6 8 40.2 8 C 42.9 8 44.7 9.3 44.7 12 Z M 42 14.9 C 42 14.9 42 14.3 42 14.3 C 41.7 14.4 41.2 14.6 40.6 14.6 C 40.6 14.6 39.3 14.8 39.3 14.8 C 37.9 15 37.5 15.6 37.5 16.3 C 37.5 17.2 38.1 17.7 39.1 17.7 C 40.5 17.7 42 16.6 42 14.9 Z M 53.1 19.8 C 53.1 19.8 51.28 19.78 51.3 19.8 C 49.1 19.8 47.7 19.1 47.7 16 C 47.73 16 47.7 10.7 47.7 10.7 L 45.6 10.7 L 45.6 8.2 L 47.7 8.2 L 47.7 5.6 L 50.5 4.8 L 50.5 8.2 L 52.8 8.2 L 52.8 10.7 L 50.5 10.7 C 50.5 10.7 50.53 16.13 50.5 16.1 C 50.5 16.8 50.7 17.3 51.7 17.3 C 51.7 17.3 53.1 17.3 53.1 17.3 L 53.1 19.8 Z M 64.6 20 C 60.8 20 59 17.1 59 14 C 59 10.9 60.8 8 64.6 8 C 67.5 8 69.6 9.6 69.7 12.4 C 69.7 12.4 67 12.4 67 12.4 C 66.8 11.3 66 10.5 64.7 10.5 C 62.6 10.5 61.8 12.2 61.8 14 C 61.8 15.9 62.7 17.4 64.7 17.4 C 66 17.4 66.8 16.7 67 15.7 C 67 15.7 69.8 15.7 69.8 15.7 C 69.4 18.5 67.4 20 64.6 20 Z M 82.4 14 C 82.4 17.8 80 20 76.7 20 C 73.5 20 71.1 17.8 71.1 14 C 71.1 10.2 73.5 8 76.7 8 C 80 8 82.4 10.2 82.4 14 Z M 73.9 14 C 73.9 16.3 75.2 17.4 76.8 17.4 C 78.4 17.4 79.5 16.2 79.5 14 C 79.5 11.7 78.2 10.6 76.7 10.6 C 75 10.6 73.9 11.8 73.9 14 Z M 94.5 19.8 L 91.8 19.8 C 91.8 19.8 91.79 18.14 91.8 18.1 C 91.1 19.2 90.1 19.9 88.5 19.9 C 86 19.9 84.3 18.4 84.3 15.4 C 84.27 15.39 84.3 8.2 84.3 8.2 L 87.1 8.2 C 87.1 8.2 87.07 15.18 87.1 15.2 C 87.1 16.8 87.8 17.4 89 17.4 C 90.6 17.4 91.7 16.5 91.7 13.8 C 91.73 13.8 91.7 8.2 91.7 8.2 L 94.5 8.2 L 94.5 19.8 Z M 100 19.8 L 97.2 19.8 L 97.2 3.8 L 100 3.8 L 100 19.8 Z M 113.4 19.8 L 110.7 19.8 C 110.7 19.8 110.69 18 110.7 18 C 110.1 19.3 108.7 20 107.1 20 C 104.4 20 102 18 102 14 C 102 10 104.4 8 107.1 8 C 108.6 8 109.9 8.6 110.6 9.7 C 110.63 9.72 110.6 3.8 110.6 3.8 L 113.4 3.8 L 113.4 19.8 Z M 110.7 14 C 110.7 11.6 109.3 10.5 107.8 10.5 C 106.3 10.5 104.9 11.6 104.9 14 C 104.9 16.3 106.3 17.5 107.8 17.5 C 109.3 17.5 110.7 16.3 110.7 14 Z M 132 19.8 L 129.3 19.8 C 129.3 19.8 129.32 18 129.3 18 C 128.7 19.3 127.3 20 125.7 20 C 123 20 120.7 18 120.7 14 C 120.7 10 123 8 125.7 8 C 127.3 8 128.6 8.6 129.3 9.7 C 129.25 9.72 129.3 3.8 129.3 3.8 L 132 3.8 L 132 19.8 Z M 129.3 14 C 129.3 11.6 127.9 10.5 126.4 10.5 C 124.9 10.5 123.5 11.6 123.5 14 C 123.5 16.3 124.9 17.5 126.4 17.5 C 127.9 17.5 129.3 16.3 129.3 14 Z M 141.3 10.8 C 141.3 10.8 140.59 10.77 140.6 10.8 C 138.6 10.8 137.6 11.8 137.6 14.1 C 137.57 14.11 137.6 19.8 137.6 19.8 L 134.8 19.8 L 134.8 8.2 L 137.5 8.2 C 137.5 8.2 137.55 9.85 137.5 9.8 C 138.1 8.6 139.2 8.1 140.6 8.1 C 140.57 8.06 141.3 8.1 141.3 8.1 L 141.3 10.8 Z M 142.6 6.7 L 145.5 6.7 L 145.5 3.5 L 142.6 3.5 L 142.6 6.7 Z M 142.7 8.2 L 145.5 8.2 L 145.5 19.8 L 142.7 19.8 L 142.7 8.2 Z M 154.1 19.8 L 151.1 19.8 L 146.8 8.2 L 149.8 8.2 L 152.6 16.5 L 155.5 8.2 L 158.4 8.2 L 154.1 19.8 Z M 161.5 14.8 C 161.6 16.7 162.9 17.6 164.5 17.6 C 165.6 17.6 166.6 17.2 166.9 16.1 C 166.9 16.1 169.5 16.1 169.5 16.1 C 169 18.7 166.7 20 164.3 20 C 161.6 20 158.8 18.1 158.8 14 C 158.8 10 161.4 8 164.4 8 C 167.2 8 169.6 9.8 169.6 13.7 C 169.55 13.69 169.6 14.8 169.6 14.8 C 169.6 14.8 161.49 14.83 161.5 14.8 Z M 161.6 12.8 C 161.6 12.8 166.8 12.8 166.8 12.8 C 166.8 11.3 165.8 10.4 164.3 10.4 C 163 10.4 161.8 11.1 161.6 12.8 Z M 181.3 20 C 177.5 20 175.6 17.1 175.6 14 C 175.6 10.9 177.4 8 181.2 8 C 184.1 8 186.3 9.6 186.4 12.4 C 186.4 12.4 183.6 12.4 183.6 12.4 C 183.5 11.3 182.7 10.5 181.3 10.5 C 179.3 10.5 178.5 12.2 178.5 14 C 178.5 15.9 179.3 17.4 181.3 17.4 C 182.7 17.4 183.5 16.7 183.7 15.7 C 183.7 15.7 186.4 15.7 186.4 15.7 C 186.1 18.5 184.1 20 181.3 20 Z M 195 10.8 C 195 10.8 194.27 10.77 194.3 10.8 C 192.3 10.8 191.2 11.8 191.2 14.1 C 191.25 14.11 191.2 19.8 191.2 19.8 L 188.5 19.8 L 188.5 8.2 L 191.2 8.2 C 191.2 8.2 191.22 9.85 191.2 9.8 C 191.8 8.6 192.9 8.1 194.2 8.1 C 194.25 8.06 195 8.1 195 8.1 L 195 10.8 Z M 198.1 14.8 C 198.2 16.7 199.5 17.6 201.1 17.6 C 202.2 17.6 203.3 17.2 203.6 16.1 C 203.6 16.1 206.2 16.1 206.2 16.1 C 205.7 18.7 203.4 20 201 20 C 198.2 20 195.4 18.1 195.4 14 C 195.4 10 198 8 201 8 C 203.8 8 206.2 9.8 206.2 13.7 C 206.2 13.69 206.2 14.8 206.2 14.8 C 206.2 14.8 198.13 14.83 198.1 14.8 Z M 198.2 12.8 C 198.2 12.8 203.5 12.8 203.5 12.8 C 203.5 11.3 202.4 10.4 201 10.4 C 199.7 10.4 198.4 11.1 198.2 12.8 Z M 218.8 19.8 L 216.1 19.8 C 216.1 19.8 216.11 18 216.1 18 C 215.5 19.3 214.1 20 212.5 20 C 209.8 20 207.5 18 207.5 14 C 207.5 10 209.8 8 212.5 8 C 214.1 8 215.4 8.6 216 9.7 C 216.05 9.72 216 3.8 216 3.8 L 218.8 3.8 L 218.8 19.8 Z M 216.1 14 C 216.1 11.6 214.7 10.5 213.2 10.5 C 211.7 10.5 210.3 11.6 210.3 14 C 210.3 16.3 211.7 17.5 213.2 17.5 C 214.7 17.5 216.1 16.3 216.1 14 Z M 221.5 6.7 L 224.4 6.7 L 224.4 3.5 L 221.5 3.5 L 221.5 6.7 Z M 221.5 8.2 L 224.3 8.2 L 224.3 19.8 L 221.5 19.8 L 221.5 8.2 Z M 233 19.8 C 233 19.8 231.14 19.78 231.1 19.8 C 229 19.8 227.6 19.1 227.6 16 C 227.6 16 227.6 10.7 227.6 10.7 L 225.5 10.7 L 225.5 8.2 L 227.6 8.2 L 227.6 5.6 L 230.4 4.8 L 230.4 8.2 L 232.7 8.2 L 232.7 10.7 L 230.4 10.7 C 230.4 10.7 230.39 16.13 230.4 16.1 C 230.4 16.8 230.6 17.3 231.6 17.3 C 231.56 17.3 233 17.3 233 17.3 L 233 19.8 Z M 248.8 16.2 C 248.8 18.8 246.5 20 243.9 20 C 241.5 20 238.9 19 238.7 16.1 C 238.7 16.1 241.6 16.1 241.6 16.1 C 241.7 17.2 242.8 17.7 244.1 17.7 C 245.3 17.7 246.1 17.3 246.1 16.5 C 246.1 15.7 245.6 15.6 244 15.3 C 241.7 14.9 239.1 14.5 239.1 11.7 C 239.1 9.1 241.3 8 243.7 8 C 246.4 8 248.4 9.3 248.6 11.9 C 248.6 11.9 245.8 11.9 245.8 11.9 C 245.7 10.8 244.9 10.3 243.7 10.3 C 242.4 10.3 241.8 10.9 241.8 11.6 C 241.8 12.5 242.8 12.7 244.2 12.9 C 246.3 13.2 248.8 13.5 248.8 16.2 Z M 262.1 13.8 C 262.1 18 259.5 19.9 256.8 19.9 C 255.3 19.9 254.2 19.2 253.5 18.4 C 253.53 18.4 253.5 24.1 253.5 24.1 L 250.7 24.1 L 250.7 8.2 L 253.5 8.2 C 253.5 8.2 253.47 10.04 253.5 10 C 254.1 8.8 255.4 8 257.1 8 C 259.8 8 262.1 9.9 262.1 13.8 Z M 259.3 14 C 259.3 11.6 257.9 10.5 256.4 10.5 C 254.9 10.5 253.4 11.6 253.4 14 C 253.4 16.3 254.9 17.4 256.4 17.4 C 257.9 17.4 259.3 16.3 259.3 14 Z M 270.7 10.8 C 270.7 10.8 269.93 10.77 269.9 10.8 C 268 10.8 266.9 11.8 266.9 14.1 C 266.91 14.11 266.9 19.8 266.9 19.8 L 264.1 19.8 L 264.1 8.2 L 266.9 8.2 C 266.9 8.2 266.89 9.85 266.9 9.8 C 267.5 8.6 268.5 8.1 269.9 8.1 C 269.91 8.06 270.7 8.1 270.7 8.1 L 270.7 10.8 Z M 273.8 14.8 C 273.9 16.7 275.2 17.6 276.8 17.6 C 277.9 17.6 278.9 17.2 279.3 16.1 C 279.3 16.1 281.8 16.1 281.8 16.1 C 281.3 18.7 279 20 276.7 20 C 273.9 20 271.1 18.1 271.1 14 C 271.1 10 273.7 8 276.7 8 C 279.5 8 281.9 9.8 281.9 13.7 C 281.86 13.69 281.9 14.8 281.9 14.8 C 281.9 14.8 273.8 14.83 273.8 14.8 Z M 273.9 12.8 C 273.9 12.8 279.1 12.8 279.1 12.8 C 279.1 11.3 278.1 10.4 276.6 10.4 C 275.3 10.4 274.1 11.1 273.9 12.8 Z M 293.1 12 C 293.12 11.99 293.1 19.8 293.1 19.8 L 290.4 19.8 C 290.4 19.8 290.39 18.1 290.4 18.1 C 289.5 19.6 288.1 20 286.9 20 C 285 20 283.1 18.9 283.1 16.4 C 283.1 14.6 284.1 13.4 286.8 13 C 286.8 13 289.3 12.6 289.3 12.6 C 290 12.5 290.5 12.3 290.5 11.6 C 290.5 10.6 289.7 10.2 288.5 10.2 C 287 10.2 286.4 10.9 286.3 11.9 C 286.3 11.9 283.6 11.9 283.6 11.9 C 283.9 9.2 286 8 288.7 8 C 291.4 8 293.1 9.3 293.1 12 Z M 290.4 14.9 C 290.4 14.9 290.4 14.3 290.4 14.3 C 290.1 14.4 289.6 14.6 289 14.6 C 289 14.6 287.8 14.8 287.8 14.8 C 286.4 15 285.9 15.6 285.9 16.3 C 285.9 17.2 286.6 17.7 287.5 17.7 C 289 17.7 290.4 16.6 290.4 14.9 Z M 306.3 19.8 L 303.6 19.8 C 303.6 19.8 303.55 18 303.6 18 C 302.9 19.3 301.6 20 300 20 C 297.3 20 294.9 18 294.9 14 C 294.9 10 297.3 8 300 8 C 301.5 8 302.8 8.6 303.5 9.7 C 303.49 9.72 303.5 3.8 303.5 3.8 L 306.3 3.8 L 306.3 19.8 Z M 303.6 14 C 303.6 11.6 302.1 10.5 300.6 10.5 C 299.1 10.5 297.7 11.6 297.7 14 C 297.7 16.3 299.1 17.5 300.6 17.5 C 302.1 17.5 303.6 16.3 303.6 14 Z M 318.3 16.2 C 318.3 18.8 316 20 313.4 20 C 311 20 308.4 19 308.2 16.1 C 308.2 16.1 311 16.1 311 16.1 C 311.2 17.2 312.2 17.7 313.5 17.7 C 314.7 17.7 315.5 17.3 315.5 16.5 C 315.5 15.7 315 15.6 313.4 15.3 C 311.1 14.9 308.5 14.5 308.5 11.7 C 308.5 9.1 310.7 8 313.1 8 C 315.8 8 317.8 9.3 318 11.9 C 318 11.9 315.3 11.9 315.3 11.9 C 315.2 10.8 314.3 10.3 313.2 10.3 C 311.8 10.3 311.2 10.9 311.2 11.6 C 311.2 12.5 312.3 12.7 313.7 12.9 C 315.8 13.2 318.3 13.5 318.3 16.2 Z " stroke="none" fill="#000"/>  </g></svg>