<?xml version="1.0" standalone="no"?><!DOCTYPE svg PUBLIC "-//W3C//DTD SVG 1.1//EN" "http://www.w3.org/Graphics/SVG/1.1/DTD/svg11.dtd"><svg xmlns="http://www.w3.org/2000/svg" version="1.1" width="204px" height="38.4px" viewBox="0 0 204 38.4">  <desc>Genera ingresos</desc>  <defs/>  <g id="Polygon9563">    <path d="M 15.1 11.9 L 15.1 19.8 L 13.7 19.8 C 13.7 19.8 13.67 17.43 13.7 17.4 C 12.8 19 10.9 20.2 8.4 20.2 C 3.6 20.2 1.2 16.3 1.2 11.8 C 1.2 6.9 4.2 3.7 8.6 3.7 C 11.9 3.7 14.8 5.4 15.1 8.8 C 15.1 8.8 13.5 8.8 13.5 8.8 C 13.2 6.5 11.1 5.1 8.7 5.1 C 5.3 5.1 2.8 7.7 2.8 11.8 C 2.8 15.5 4.7 18.7 8.5 18.7 C 11.5 18.7 13.6 16.7 13.6 13.3 C 13.63 13.33 8.3 13.3 8.3 13.3 L 8.3 11.9 L 15.1 11.9 Z M 19.4 14.5 C 19.4 17.3 21.1 18.6 23.1 18.6 C 24.6 18.6 26.1 17.9 26.4 16.3 C 26.4 16.3 27.9 16.3 27.9 16.3 C 27.4 18.9 25.2 20 23.1 20 C 20.4 20 17.9 18.2 17.9 14.2 C 17.9 10.1 20.4 8.3 23.1 8.3 C 25.8 8.3 28 10 28 13.8 C 27.97 13.75 28 14.5 28 14.5 C 28 14.5 19.38 14.51 19.4 14.5 Z M 19.4 13.2 C 19.4 13.2 26.4 13.2 26.4 13.2 C 26.4 10.9 24.9 9.7 23.1 9.7 C 21.3 9.7 19.6 10.8 19.4 13.2 Z M 39.8 12.1 C 39.75 12.05 39.8 19.8 39.8 19.8 L 38.2 19.8 C 38.2 19.8 38.22 12.24 38.2 12.2 C 38.2 10.7 37.3 9.7 35.7 9.7 C 33.8 9.7 32.1 11.1 32.1 13.9 C 32.13 13.86 32.1 19.8 32.1 19.8 L 30.6 19.8 L 30.6 8.5 L 32.1 8.5 C 32.1 8.5 32.13 10.6 32.1 10.6 C 32.8 9.3 34.1 8.3 36 8.3 C 38.3 8.3 39.8 9.6 39.8 12.1 Z M 43.8 14.5 C 43.8 17.3 45.5 18.6 47.5 18.6 C 49 18.6 50.5 17.9 50.8 16.3 C 50.8 16.3 52.3 16.3 52.3 16.3 C 51.8 18.9 49.6 20 47.5 20 C 44.8 20 42.3 18.2 42.3 14.2 C 42.3 10.1 44.8 8.3 47.5 8.3 C 50.2 8.3 52.4 10 52.4 13.8 C 52.37 13.75 52.4 14.5 52.4 14.5 C 52.4 14.5 43.78 14.51 43.8 14.5 Z M 43.8 13.2 C 43.8 13.2 50.8 13.2 50.8 13.2 C 50.8 10.9 49.3 9.7 47.5 9.7 C 45.7 9.7 44 10.8 43.8 13.2 Z M 60.6 9.8 C 60.6 9.8 60.27 9.83 60.3 9.8 C 57.9 9.8 56.5 11.2 56.5 13.8 C 56.53 13.8 56.5 19.8 56.5 19.8 L 55 19.8 L 55 8.5 L 56.5 8.5 C 56.5 8.5 56.51 10.58 56.5 10.6 C 57 9.1 58.4 8.4 60.1 8.4 C 60.14 8.38 60.6 8.4 60.6 8.4 L 60.6 9.8 Z M 69.6 17.7 C 68.7 19.4 67 20 65.5 20 C 63.6 20 61.9 18.9 61.9 16.7 C 61.9 14.6 63.4 13.6 65.3 13.4 C 65.3 13.4 68 13 68 13 C 68.8 12.9 69.6 12.6 69.6 11.6 C 69.6 10.3 68.4 9.6 66.8 9.6 C 65.1 9.6 64.1 10.4 63.9 11.7 C 63.9 11.7 62.3 11.7 62.3 11.7 C 62.6 9.4 64.4 8.3 66.9 8.3 C 69.5 8.3 71 9.5 71 12 C 71.04 11.99 71 19.8 71 19.8 L 69.6 19.8 C 69.6 19.8 69.55 17.72 69.6 17.7 Z M 67.7 14.3 C 67.7 14.3 66 14.5 66 14.5 C 64.5 14.7 63.5 15.2 63.5 16.6 C 63.5 18 64.6 18.6 65.8 18.6 C 67.6 18.6 69.5 17.3 69.5 14.9 C 69.5 14.9 69.5 13.8 69.5 13.8 C 69.1 14.1 68.4 14.2 67.7 14.3 Z M 81.1 3.8 L 79.3 3.8 L 79.3 5.7 L 81.1 5.7 L 81.1 3.8 Z M 81 19.8 L 79.4 19.8 L 79.4 8.5 L 81 8.5 L 81 19.8 Z M 93.5 12.1 C 93.49 12.05 93.5 19.8 93.5 19.8 L 92 19.8 C 92 19.8 91.96 12.24 92 12.2 C 92 10.7 91.1 9.7 89.5 9.7 C 87.5 9.7 85.9 11.1 85.9 13.9 C 85.87 13.86 85.9 19.8 85.9 19.8 L 84.3 19.8 L 84.3 8.5 L 85.9 8.5 C 85.9 8.5 85.87 10.6 85.9 10.6 C 86.5 9.3 87.8 8.3 89.8 8.3 C 92 8.3 93.5 9.6 93.5 12.1 Z M 106.4 19.3 C 106.4 22.7 104.2 24.4 101.3 24.4 C 98.8 24.4 96.6 23.1 96.3 20.5 C 96.3 20.5 97.8 20.5 97.8 20.5 C 98 21.9 99.1 23.1 101.3 23.1 C 103.4 23.1 105 22 105 19.4 C 105 19.4 105 17.1 105 17.1 C 104.1 18.8 102.5 19.4 101 19.4 C 98.2 19.4 96 17.5 96 13.8 C 96 10.1 98.4 8.3 101.1 8.3 C 102.9 8.3 104.2 9.1 104.9 10.3 C 104.94 10.33 104.9 8.5 104.9 8.5 L 106.4 8.5 C 106.4 8.5 106.45 19.28 106.4 19.3 Z M 104.9 13.8 C 104.9 11 103.2 9.6 101.3 9.6 C 99.3 9.6 97.5 11 97.5 13.8 C 97.5 16.6 99.3 18 101.2 18 C 103 18 104.9 16.8 104.9 13.8 Z M 115.3 9.8 C 115.3 9.8 114.97 9.83 115 9.8 C 112.6 9.8 111.2 11.2 111.2 13.8 C 111.24 13.8 111.2 19.8 111.2 19.8 L 109.7 19.8 L 109.7 8.5 L 111.2 8.5 C 111.2 8.5 111.21 10.58 111.2 10.6 C 111.7 9.1 113.1 8.4 114.8 8.4 C 114.85 8.38 115.3 8.4 115.3 8.4 L 115.3 9.8 Z M 117.9 14.5 C 117.9 17.3 119.7 18.6 121.7 18.6 C 123.1 18.6 124.6 17.9 124.9 16.3 C 124.9 16.3 126.4 16.3 126.4 16.3 C 125.9 18.9 123.7 20 121.6 20 C 118.9 20 116.4 18.2 116.4 14.2 C 116.4 10.1 118.9 8.3 121.6 8.3 C 124.3 8.3 126.5 10 126.5 13.8 C 126.48 13.75 126.5 14.5 126.5 14.5 C 126.5 14.5 117.89 14.51 117.9 14.5 Z M 117.9 13.2 C 117.9 13.2 124.9 13.2 124.9 13.2 C 124.9 10.9 123.5 9.7 121.6 9.7 C 119.8 9.7 118.1 10.8 117.9 13.2 Z M 137.5 16.6 C 137.5 18.9 135.4 20 133.1 20 C 130.7 20 128.5 18.8 128.3 16.3 C 128.3 16.3 129.9 16.3 129.9 16.3 C 130.2 18 131.6 18.6 133.2 18.6 C 134.6 18.6 135.9 18.1 135.9 16.8 C 135.9 15.5 134.6 15.2 133.3 15 C 131.1 14.6 128.5 14.2 128.5 11.6 C 128.5 9.4 130.5 8.3 132.8 8.3 C 135.2 8.3 137.1 9.4 137.2 11.7 C 137.2 11.7 135.6 11.7 135.6 11.7 C 135.5 10.3 134.2 9.7 132.7 9.7 C 131.2 9.7 130.1 10.4 130.1 11.5 C 130.1 13 131.5 13.2 133.2 13.5 C 135.2 13.8 137.5 14.1 137.5 16.6 Z M 139.3 14.2 C 139.3 10.5 141.5 8.3 144.6 8.3 C 147.7 8.3 150 10.5 150 14.2 C 150 17.8 147.7 20 144.6 20 C 141.5 20 139.3 17.8 139.3 14.2 Z M 148.4 14.1 C 148.4 11.3 146.7 9.7 144.6 9.7 C 142.4 9.7 140.8 11.4 140.8 14.2 C 140.8 17 142.5 18.6 144.6 18.6 C 146.8 18.6 148.4 16.9 148.4 14.1 Z M 161 16.6 C 161 18.9 158.9 20 156.6 20 C 154.2 20 152 18.8 151.7 16.3 C 151.7 16.3 153.4 16.3 153.4 16.3 C 153.6 18 155.1 18.6 156.6 18.6 C 158.1 18.6 159.4 18.1 159.4 16.8 C 159.4 15.5 158.1 15.2 156.7 15 C 154.6 14.6 152 14.2 152 11.6 C 152 9.4 153.9 8.3 156.3 8.3 C 158.7 8.3 160.5 9.4 160.7 11.7 C 160.7 11.7 159.1 11.7 159.1 11.7 C 159 10.3 157.7 9.7 156.2 9.7 C 154.7 9.7 153.6 10.4 153.6 11.5 C 153.6 13 155 13.2 156.7 13.5 C 158.7 13.8 161 14.1 161 16.6 Z " stroke="none" fill="#000"/>  </g></svg>