<?xml version="1.0" standalone="no"?><!DOCTYPE svg PUBLIC "-//W3C//DTD SVG 1.1//EN" "http://www.w3.org/Graphics/SVG/1.1/DTD/svg11.dtd"><svg xmlns="http://www.w3.org/2000/svg" version="1.1" width="258px" height="36.4px" viewBox="0 0 258 36.4">  <desc>Aporta diversificaci n</desc>  <defs/>  <g id="Polygon9612">    <path d="M 11.7 15.3 L 4.2 15.3 L 2.5 19.8 L 0.7 19.8 L 7.1 4 L 8.8 4 L 15.3 19.8 L 13.5 19.8 L 11.7 15.3 Z M 7.9 5.8 L 4.7 13.9 L 11.2 13.9 L 7.9 5.8 Z M 28.2 14.1 C 28.2 18.2 25.6 19.9 23.1 19.9 C 21.1 19.9 19.9 19 19.2 17.8 C 19.24 17.83 19.2 24.1 19.2 24.1 L 17.7 24.1 L 17.7 8.5 L 19.2 8.5 C 19.2 8.5 19.19 10.88 19.2 10.9 C 19.7 9.5 21.2 8.3 23.2 8.3 C 25.7 8.3 28.2 10 28.2 14.1 Z M 26.6 14.1 C 26.6 11 24.9 9.8 23 9.8 C 21.1 9.8 19.3 11 19.3 14.2 C 19.3 17.3 21.1 18.5 23 18.5 C 24.8 18.5 26.6 17.3 26.6 14.1 Z M 30.1 14.2 C 30.1 10.5 32.3 8.3 35.4 8.3 C 38.6 8.3 40.8 10.5 40.8 14.2 C 40.8 17.8 38.6 20 35.5 20 C 32.4 20 30.1 17.8 30.1 14.2 Z M 39.2 14.1 C 39.2 11.3 37.5 9.7 35.4 9.7 C 33.2 9.7 31.7 11.4 31.7 14.2 C 31.7 17 33.4 18.6 35.5 18.6 C 37.7 18.6 39.2 16.9 39.2 14.1 Z M 49.1 9.8 C 49.1 9.8 48.7 9.83 48.7 9.8 C 46.3 9.8 45 11.2 45 13.8 C 44.96 13.8 45 19.8 45 19.8 L 43.4 19.8 L 43.4 8.5 L 44.9 8.5 C 44.9 8.5 44.94 10.58 44.9 10.6 C 45.5 9.1 46.8 8.4 48.6 8.4 C 48.57 8.38 49.1 8.4 49.1 8.4 L 49.1 9.8 Z M 56.6 19.8 C 56.6 19.8 54.96 19.78 55 19.8 C 53.5 19.8 52.1 19.3 52.1 16.8 C 52.12 16.82 52.1 9.9 52.1 9.9 L 49.9 9.9 L 49.9 8.5 L 52.1 8.5 L 52.1 5.3 L 53.7 4.9 L 53.7 8.5 L 56.4 8.5 L 56.4 9.9 L 53.7 9.9 C 53.7 9.9 53.65 16.8 53.7 16.8 C 53.7 17.8 53.9 18.4 55.2 18.4 C 55.21 18.4 56.6 18.4 56.6 18.4 L 56.6 19.8 Z M 65.7 17.7 C 64.9 19.4 63.2 20 61.7 20 C 59.8 20 58.1 18.9 58.1 16.7 C 58.1 14.6 59.6 13.6 61.5 13.4 C 61.5 13.4 64.2 13 64.2 13 C 65 12.9 65.7 12.6 65.7 11.6 C 65.7 10.3 64.6 9.6 63 9.6 C 61.3 9.6 60.3 10.4 60.1 11.7 C 60.1 11.7 58.5 11.7 58.5 11.7 C 58.8 9.4 60.6 8.3 63.1 8.3 C 65.7 8.3 67.2 9.5 67.2 12 C 67.24 11.99 67.2 19.8 67.2 19.8 L 65.7 19.8 C 65.7 19.8 65.75 17.72 65.7 17.7 Z M 63.9 14.3 C 63.9 14.3 62.2 14.5 62.2 14.5 C 60.7 14.7 59.7 15.2 59.7 16.6 C 59.7 18 60.8 18.6 62 18.6 C 63.8 18.6 65.7 17.3 65.7 14.9 C 65.7 14.9 65.7 13.8 65.7 13.8 C 65.3 14.1 64.6 14.2 63.9 14.3 Z M 85 19.8 L 83.6 19.8 C 83.6 19.8 83.56 17.6 83.6 17.6 C 83 18.9 81.6 20 79.5 20 C 76.6 20 74.5 17.7 74.5 14.1 C 74.5 10.6 76.6 8.3 79.6 8.3 C 81.5 8.3 82.9 9.2 83.5 10.4 C 83.5 10.42 83.5 3.8 83.5 3.8 L 85 3.8 L 85 19.8 Z M 83.5 14.1 C 83.5 11.3 81.9 9.7 79.8 9.7 C 77.6 9.7 76.1 11.4 76.1 14.1 C 76.1 16.9 77.6 18.6 79.8 18.6 C 81.9 18.6 83.5 16.9 83.5 14.1 Z M 90 3.8 L 88.3 3.8 L 88.3 5.7 L 90 5.7 L 90 3.8 Z M 89.9 19.8 L 88.4 19.8 L 88.4 8.5 L 89.9 8.5 L 89.9 19.8 Z M 97.8 19.8 L 96.1 19.8 L 91.9 8.5 L 93.6 8.5 L 97 18.2 L 100.4 8.5 L 102 8.5 L 97.8 19.8 Z M 104.5 14.5 C 104.6 17.3 106.3 18.6 108.3 18.6 C 109.8 18.6 111.2 17.9 111.6 16.3 C 111.6 16.3 113 16.3 113 16.3 C 112.5 18.9 110.3 20 108.2 20 C 105.5 20 103 18.2 103 14.2 C 103 10.1 105.5 8.3 108.3 8.3 C 110.9 8.3 113.1 10 113.1 13.8 C 113.1 13.75 113.1 14.5 113.1 14.5 C 113.1 14.5 104.52 14.51 104.5 14.5 Z M 104.6 13.2 C 104.6 13.2 111.6 13.2 111.6 13.2 C 111.6 10.9 110.1 9.7 108.2 9.7 C 106.4 9.7 104.8 10.8 104.6 13.2 Z M 121.4 9.8 C 121.4 9.8 121 9.83 121 9.8 C 118.6 9.8 117.3 11.2 117.3 13.8 C 117.26 13.8 117.3 19.8 117.3 19.8 L 115.7 19.8 L 115.7 8.5 L 117.2 8.5 C 117.2 8.5 117.24 10.58 117.2 10.6 C 117.8 9.1 119.1 8.4 120.9 8.4 C 120.87 8.38 121.4 8.4 121.4 8.4 L 121.4 9.8 Z M 131.7 16.6 C 131.7 18.9 129.7 20 127.4 20 C 125 20 122.7 18.8 122.5 16.3 C 122.5 16.3 124.2 16.3 124.2 16.3 C 124.4 18 125.9 18.6 127.4 18.6 C 128.9 18.6 130.1 18.1 130.1 16.8 C 130.1 15.5 128.8 15.2 127.5 15 C 125.3 14.6 122.8 14.2 122.8 11.6 C 122.8 9.4 124.7 8.3 127 8.3 C 129.4 8.3 131.3 9.4 131.4 11.7 C 131.4 11.7 129.8 11.7 129.8 11.7 C 129.7 10.3 128.4 9.7 127 9.7 C 125.4 9.7 124.4 10.4 124.4 11.5 C 124.4 13 125.7 13.2 127.4 13.5 C 129.5 13.8 131.7 14.1 131.7 16.6 Z M 135.9 3.8 L 134.1 3.8 L 134.1 5.7 L 135.9 5.7 L 135.9 3.8 Z M 135.8 19.8 L 134.3 19.8 L 134.3 8.5 L 135.8 8.5 L 135.8 19.8 Z M 147 19.8 L 147 9.9 L 141.2 9.9 L 141.2 19.8 L 139.6 19.8 L 139.6 9.9 L 137.8 9.9 L 137.8 8.5 L 139.6 8.5 C 139.6 8.5 139.65 6.72 139.6 6.7 C 139.6 4.2 141 3.8 142.5 3.8 C 142.48 3.78 144 3.8 144 3.8 L 144 5.1 C 144 5.1 142.74 5.14 142.7 5.1 C 141.5 5.1 141.2 5.7 141.2 6.8 C 141.18 6.76 141.2 8.5 141.2 8.5 L 148.5 8.5 L 148.5 19.8 L 147 19.8 Z M 156.3 20 C 153.2 20 151 17.7 151 14.2 C 151 10.6 153.1 8.3 156.4 8.3 C 158.9 8.3 160.9 9.7 161 12.2 C 161 12.2 159.6 12.2 159.6 12.2 C 159.4 10.6 158 9.7 156.4 9.7 C 154.2 9.7 152.6 11.4 152.6 14.1 C 152.6 16.9 154.1 18.6 156.3 18.6 C 158 18.6 159.4 17.6 159.5 15.8 C 159.5 15.8 161 15.8 161 15.8 C 160.9 18.5 158.8 20 156.3 20 Z M 170.6 17.7 C 169.7 19.4 168 20 166.6 20 C 164.7 20 162.9 18.9 162.9 16.7 C 162.9 14.6 164.4 13.6 166.4 13.4 C 166.4 13.4 169 13 169 13 C 169.9 12.9 170.6 12.6 170.6 11.6 C 170.6 10.3 169.4 9.6 167.9 9.6 C 166.2 9.6 165.1 10.4 164.9 11.7 C 164.9 11.7 163.4 11.7 163.4 11.7 C 163.7 9.4 165.5 8.3 168 8.3 C 170.5 8.3 172.1 9.5 172.1 12 C 172.09 11.99 172.1 19.8 172.1 19.8 L 170.6 19.8 C 170.6 19.8 170.6 17.72 170.6 17.7 Z M 168.7 14.3 C 168.7 14.3 167 14.5 167 14.5 C 165.6 14.7 164.5 15.2 164.5 16.6 C 164.5 18 165.6 18.6 166.8 18.6 C 168.6 18.6 170.6 17.3 170.6 14.9 C 170.6 14.9 170.6 13.8 170.6 13.8 C 170.1 14.1 169.5 14.2 168.7 14.3 Z M 179.7 20 C 176.6 20 174.5 17.7 174.5 14.2 C 174.5 10.6 176.6 8.3 179.9 8.3 C 182.4 8.3 184.4 9.7 184.5 12.2 C 184.5 12.2 183 12.2 183 12.2 C 182.9 10.6 181.5 9.7 179.8 9.7 C 177.6 9.7 176.1 11.4 176.1 14.1 C 176.1 16.9 177.6 18.6 179.8 18.6 C 181.5 18.6 182.9 17.6 183 15.8 C 183 15.8 184.5 15.8 184.5 15.8 C 184.4 18.5 182.2 20 179.7 20 Z M 188.8 3.8 L 187 3.8 L 187 5.7 L 188.8 5.7 L 188.8 3.8 Z M 188.7 19.8 L 187.1 19.8 L 187.1 8.5 L 188.7 8.5 L 188.7 19.8 Z M 197.3 6.2 L 196 6.2 L 198.5 2.4 L 199.8 3.4 L 197.3 6.2 Z M 191.3 14.2 C 191.3 10.5 193.5 8.3 196.6 8.3 C 199.7 8.3 202 10.5 202 14.2 C 202 17.8 199.8 20 196.7 20 C 193.6 20 191.3 17.8 191.3 14.2 Z M 200.4 14.1 C 200.4 11.3 198.7 9.7 196.6 9.7 C 194.4 9.7 192.9 11.4 192.9 14.2 C 192.9 17 194.6 18.6 196.7 18.6 C 198.9 18.6 200.4 16.9 200.4 14.1 Z M 213.8 12.1 C 213.78 12.05 213.8 19.8 213.8 19.8 L 212.2 19.8 C 212.2 19.8 212.24 12.24 212.2 12.2 C 212.2 10.7 211.4 9.7 209.8 9.7 C 207.8 9.7 206.2 11.1 206.2 13.9 C 206.15 13.86 206.2 19.8 206.2 19.8 L 204.6 19.8 L 204.6 8.5 L 206.2 8.5 C 206.2 8.5 206.15 10.6 206.2 10.6 C 206.8 9.3 208.1 8.3 210.1 8.3 C 212.3 8.3 213.8 9.6 213.8 12.1 Z " stroke="none" fill="#000"/>  </g></svg>