<?xml version="1.0" standalone="no"?><!DOCTYPE svg PUBLIC "-//W3C//DTD SVG 1.1//EN" "http://www.w3.org/Graphics/SVG/1.1/DTD/svg11.dtd"><svg xmlns="http://www.w3.org/2000/svg" version="1.1" width="479px" height="181.4px" viewBox="0 0 479 181.4">  <desc>En tant que g rant actif, quels leviers allez-vous utiliser pour offrir des rendements attrayants malgr les faibles</desc>  <defs/>  <g id="Polygon12127">    <path d="M 17.7 62.4 C 17.72 62.37 17.7 70.2 17.7 70.2 L 14.9 70.2 C 14.9 70.2 14.93 62.92 14.9 62.9 C 14.9 61.5 14.3 60.9 13.1 60.9 C 11.8 60.9 10.9 61.7 10.9 63.7 C 10.94 63.67 10.9 70.2 10.9 70.2 L 8.1 70.2 C 8.1 70.2 8.15 62.92 8.1 62.9 C 8.1 61.5 7.5 60.9 6.3 60.9 C 5 60.9 4.2 61.7 4.2 63.7 C 4.16 63.65 4.2 70.2 4.2 70.2 L 1.4 70.2 L 1.4 58.6 L 4.1 58.6 C 4.1 58.6 4.12 60.29 4.1 60.3 C 4.5 59.4 5.4 58.4 7.1 58.4 C 8.6 58.4 9.8 59.1 10.3 60.3 C 10.8 59.5 11.6 58.4 13.7 58.4 C 16.1 58.4 17.7 59.9 17.7 62.4 Z M 29.6 62.4 C 29.61 62.39 29.6 70.2 29.6 70.2 L 26.9 70.2 C 26.9 70.2 26.88 68.5 26.9 68.5 C 26 70 24.6 70.4 23.4 70.4 C 21.5 70.4 19.6 69.3 19.6 66.8 C 19.6 65 20.6 63.8 23.3 63.4 C 23.3 63.4 25.8 63 25.8 63 C 26.5 62.9 27 62.7 27 62 C 27 61 26.1 60.6 25 60.6 C 23.5 60.6 22.9 61.3 22.8 62.3 C 22.8 62.3 20.1 62.3 20.1 62.3 C 20.4 59.6 22.5 58.4 25.2 58.4 C 27.9 58.4 29.6 59.7 29.6 62.4 Z M 26.9 65.3 C 26.9 65.3 26.9 64.7 26.9 64.7 C 26.6 64.8 26.1 65 25.5 65 C 25.5 65 24.3 65.2 24.3 65.2 C 22.9 65.4 22.4 66 22.4 66.7 C 22.4 67.6 23.1 68.1 24 68.1 C 25.5 68.1 26.9 67 26.9 65.3 Z M 34.9 70.2 L 32.1 70.2 L 32.1 54.2 L 34.9 54.2 L 34.9 70.2 Z M 48.1 69.4 C 48.1 73.1 45.7 74.8 42.6 74.8 C 39.8 74.8 37.4 73.4 37.1 70.5 C 37.1 70.5 39.8 70.5 39.8 70.5 C 40.1 72 41.3 72.4 42.6 72.4 C 44.4 72.4 45.4 71.5 45.4 69.7 C 45.4 69.7 45.4 67.8 45.4 67.8 C 44.9 69 43.7 69.8 42 69.8 C 39.4 69.8 36.9 68 36.9 64.1 C 36.9 60.2 39.4 58.4 42 58.4 C 43.6 58.4 44.8 59.1 45.4 60.2 C 45.4 60.21 45.4 58.6 45.4 58.6 L 48.1 58.6 C 48.1 58.6 48.09 69.4 48.1 69.4 Z M 45.3 64.1 C 45.3 61.9 44.1 60.8 42.6 60.8 C 41 60.8 39.7 61.9 39.7 64.1 C 39.7 66.3 41 67.3 42.6 67.3 C 44.1 67.3 45.3 66.3 45.3 64.1 Z M 57.3 61.2 C 57.3 61.2 56.53 61.17 56.5 61.2 C 54.6 61.2 53.5 62.2 53.5 64.5 C 53.51 64.51 53.5 70.2 53.5 70.2 L 50.7 70.2 L 50.7 58.6 L 53.5 58.6 C 53.5 58.6 53.49 60.25 53.5 60.2 C 54.1 59 55.1 58.5 56.5 58.5 C 56.51 58.46 57.3 58.5 57.3 58.5 L 57.3 61.2 Z M 62 56.5 L 65.2 51.5 L 67.4 53.2 L 64.4 56.5 L 62 56.5 Z M 60.4 65.2 C 60.5 67.1 61.8 68 63.4 68 C 64.5 68 65.5 67.6 65.9 66.5 C 65.9 66.5 68.4 66.5 68.4 66.5 C 67.9 69.1 65.6 70.4 63.3 70.4 C 60.5 70.4 57.7 68.5 57.7 64.4 C 57.7 60.4 60.3 58.4 63.3 58.4 C 66.1 58.4 68.5 60.2 68.5 64.1 C 68.46 64.09 68.5 65.2 68.5 65.2 C 68.5 65.2 60.4 65.23 60.4 65.2 Z M 60.5 63.2 C 60.5 63.2 65.7 63.2 65.7 63.2 C 65.7 61.7 64.7 60.8 63.2 60.8 C 61.9 60.8 60.7 61.5 60.5 63.2 Z M 78.5 70.2 L 75.7 70.2 L 75.7 54.2 L 78.5 54.2 L 78.5 70.2 Z M 83.2 65.2 C 83.3 67.1 84.6 68 86.2 68 C 87.3 68 88.3 67.6 88.7 66.5 C 88.7 66.5 91.2 66.5 91.2 66.5 C 90.7 69.1 88.4 70.4 86.1 70.4 C 83.3 70.4 80.5 68.5 80.5 64.4 C 80.5 60.4 83.1 58.4 86.1 58.4 C 88.9 58.4 91.3 60.2 91.3 64.1 C 91.26 64.09 91.3 65.2 91.3 65.2 C 91.3 65.2 83.2 65.23 83.2 65.2 Z M 83.3 63.2 C 83.3 63.2 88.5 63.2 88.5 63.2 C 88.5 61.7 87.5 60.8 86 60.8 C 84.8 60.8 83.5 61.5 83.3 63.2 Z M 102.5 66.6 C 102.5 69.2 100.2 70.4 97.6 70.4 C 95.2 70.4 92.6 69.4 92.4 66.5 C 92.4 66.5 95.2 66.5 95.2 66.5 C 95.4 67.6 96.5 68.1 97.8 68.1 C 98.9 68.1 99.8 67.7 99.8 66.9 C 99.8 66.1 99.2 66 97.6 65.7 C 95.4 65.3 92.8 64.9 92.8 62.1 C 92.8 59.5 95 58.4 97.4 58.4 C 100.1 58.4 102.1 59.7 102.2 62.3 C 102.2 62.3 99.5 62.3 99.5 62.3 C 99.4 61.2 98.6 60.7 97.4 60.7 C 96 60.7 95.5 61.3 95.5 62 C 95.5 62.9 96.5 63.1 97.9 63.3 C 100 63.6 102.5 63.9 102.5 66.6 Z M 113.8 56.7 C 112.8 56.7 112.6 57.1 112.6 57.8 C 112.6 57.83 112.6 58.6 112.6 58.6 L 114.7 58.6 L 114.7 61.1 L 112.6 61.1 L 112.6 70.2 L 109.8 70.2 L 109.8 61.1 L 108.1 61.1 L 108.1 58.6 L 109.8 58.6 C 109.8 58.6 109.81 57.96 109.8 58 C 109.8 54.9 111.2 54.2 113.4 54.2 C 113.36 54.18 115 54.2 115 54.2 L 115 56.7 C 115 56.7 113.78 56.66 113.8 56.7 Z M 125.7 62.4 C 125.66 62.39 125.7 70.2 125.7 70.2 L 122.9 70.2 C 122.9 70.2 122.93 68.5 122.9 68.5 C 122 70 120.6 70.4 119.4 70.4 C 117.6 70.4 115.7 69.3 115.7 66.8 C 115.7 65 116.7 63.8 119.4 63.4 C 119.4 63.4 121.9 63 121.9 63 C 122.6 62.9 123 62.7 123 62 C 123 61 122.2 60.6 121.1 60.6 C 119.6 60.6 118.9 61.3 118.8 62.3 C 118.8 62.3 116.1 62.3 116.1 62.3 C 116.4 59.6 118.6 58.4 121.2 58.4 C 123.9 58.4 125.7 59.7 125.7 62.4 Z M 123 65.3 C 123 65.3 123 64.7 123 64.7 C 122.7 64.8 122.2 65 121.6 65 C 121.6 65 120.3 65.2 120.3 65.2 C 118.9 65.4 118.5 66 118.5 66.7 C 118.5 67.6 119.1 68.1 120.1 68.1 C 121.5 68.1 123 67 123 65.3 Z M 128.1 57.1 L 131 57.1 L 131 53.9 L 128.1 53.9 L 128.1 57.1 Z M 128.2 58.6 L 131 58.6 L 131 70.2 L 128.2 70.2 L 128.2 58.6 Z M 145 64.4 C 145 68.5 142.5 70.4 139.8 70.4 C 138.4 70.4 137.1 69.9 136.4 68.8 C 136.39 68.8 136.4 70.2 136.4 70.2 L 133.7 70.2 L 133.7 54.2 L 136.5 54.2 C 136.5 54.2 136.46 60.29 136.5 60.3 C 137.1 59.1 138.4 58.4 140 58.4 C 142.7 58.4 145 60.4 145 64.4 Z M 142.2 64.4 C 142.2 62.1 140.8 60.9 139.3 60.9 C 137.8 60.9 136.4 62.1 136.4 64.4 C 136.4 66.8 137.8 68 139.3 68 C 140.8 68 142.2 66.8 142.2 64.4 Z M 149.8 70.2 L 147 70.2 L 147 54.2 L 149.8 54.2 L 149.8 70.2 Z M 154.5 65.2 C 154.6 67.1 155.9 68 157.5 68 C 158.6 68 159.7 67.6 160 66.5 C 160 66.5 162.6 66.5 162.6 66.5 C 162.1 69.1 159.8 70.4 157.4 70.4 C 154.6 70.4 151.8 68.5 151.8 64.4 C 151.8 60.4 154.5 58.4 157.4 58.4 C 160.2 58.4 162.6 60.2 162.6 64.1 C 162.6 64.09 162.6 65.2 162.6 65.2 C 162.6 65.2 154.54 65.23 154.5 65.2 Z M 154.6 63.2 C 154.6 63.2 159.9 63.2 159.9 63.2 C 159.9 61.7 158.8 60.8 157.4 60.8 C 156.1 60.8 154.9 61.5 154.6 63.2 Z M 173.9 66.6 C 173.9 69.2 171.5 70.4 168.9 70.4 C 166.5 70.4 163.9 69.4 163.8 66.5 C 163.8 66.5 166.6 66.5 166.6 66.5 C 166.8 67.6 167.8 68.1 169.1 68.1 C 170.3 68.1 171.1 67.7 171.1 66.9 C 171.1 66.1 170.6 66 169 65.7 C 166.7 65.3 164.1 64.9 164.1 62.1 C 164.1 59.5 166.3 58.4 168.7 58.4 C 171.4 58.4 173.4 59.7 173.6 62.3 C 173.6 62.3 170.9 62.3 170.9 62.3 C 170.7 61.2 169.9 60.7 168.8 60.7 C 167.4 60.7 166.8 61.3 166.8 62 C 166.8 62.9 167.9 63.1 169.3 63.3 C 171.3 63.6 173.9 63.9 173.9 66.6 Z M 187.5 61.2 C 187.5 61.2 186.81 61.17 186.8 61.2 C 184.9 61.2 183.8 62.2 183.8 64.5 C 183.79 64.51 183.8 70.2 183.8 70.2 L 181 70.2 L 181 58.6 L 183.8 58.6 C 183.8 58.6 183.77 60.25 183.8 60.2 C 184.4 59 185.4 58.5 186.8 58.5 C 186.79 58.46 187.5 58.5 187.5 58.5 L 187.5 61.2 Z M 190.7 65.2 C 190.7 67.1 192.1 68 193.7 68 C 194.8 68 195.8 67.6 196.1 66.5 C 196.1 66.5 198.7 66.5 198.7 66.5 C 198.2 69.1 195.9 70.4 193.5 70.4 C 190.7 70.4 188 68.5 188 64.4 C 188 60.4 190.6 58.4 193.6 58.4 C 196.4 58.4 198.7 60.2 198.7 64.1 C 198.74 64.09 198.7 65.2 198.7 65.2 C 198.7 65.2 190.68 65.23 190.7 65.2 Z M 190.7 63.2 C 190.7 63.2 196 63.2 196 63.2 C 196 61.7 194.9 60.8 193.5 60.8 C 192.2 60.8 191 61.5 190.7 63.2 Z M 210.9 62.7 C 210.92 62.71 210.9 70.2 210.9 70.2 L 208.1 70.2 C 208.1 70.2 208.13 62.96 208.1 63 C 208.1 61.7 207.4 60.9 206.1 60.9 C 204.5 60.9 203.5 62 203.5 63.9 C 203.53 63.92 203.5 70.2 203.5 70.2 L 200.7 70.2 L 200.7 58.6 L 203.5 58.6 C 203.5 58.6 203.51 60.27 203.5 60.3 C 204.2 59.2 205.1 58.4 207 58.4 C 209.7 58.4 210.9 59.9 210.9 62.7 Z M 224.2 70.2 L 221.5 70.2 C 221.5 70.2 221.46 68.4 221.5 68.4 C 220.8 69.7 219.5 70.4 217.9 70.4 C 215.2 70.4 212.8 68.4 212.8 64.4 C 212.8 60.4 215.2 58.4 217.9 58.4 C 219.4 58.4 220.7 59 221.4 60.1 C 221.4 60.12 221.4 54.2 221.4 54.2 L 224.2 54.2 L 224.2 70.2 Z M 221.5 64.4 C 221.5 62 220.1 60.9 218.5 60.9 C 217 60.9 215.6 62 215.6 64.4 C 215.6 66.7 217 67.9 218.5 67.9 C 220.1 67.9 221.5 66.7 221.5 64.4 Z M 228.9 65.2 C 229 67.1 230.3 68 231.9 68 C 233 68 234 67.6 234.4 66.5 C 234.4 66.5 236.9 66.5 236.9 66.5 C 236.4 69.1 234.1 70.4 231.8 70.4 C 229 70.4 226.2 68.5 226.2 64.4 C 226.2 60.4 228.8 58.4 231.8 58.4 C 234.6 58.4 237 60.2 237 64.1 C 236.96 64.09 237 65.2 237 65.2 C 237 65.2 228.9 65.23 228.9 65.2 Z M 229 63.2 C 229 63.2 234.2 63.2 234.2 63.2 C 234.2 61.7 233.2 60.8 231.7 60.8 C 230.5 60.8 229.2 61.5 229 63.2 Z M 255.3 62.4 C 255.32 62.37 255.3 70.2 255.3 70.2 L 252.5 70.2 C 252.5 70.2 252.52 62.92 252.5 62.9 C 252.5 61.5 251.9 60.9 250.7 60.9 C 249.4 60.9 248.5 61.7 248.5 63.7 C 248.53 63.67 248.5 70.2 248.5 70.2 L 245.7 70.2 C 245.7 70.2 245.74 62.92 245.7 62.9 C 245.7 61.5 245 60.9 243.9 60.9 C 242.6 60.9 241.7 61.7 241.7 63.7 C 241.75 63.65 241.7 70.2 241.7 70.2 L 239 70.2 L 239 58.6 L 241.7 58.6 C 241.7 58.6 241.71 60.29 241.7 60.3 C 242.1 59.4 242.9 58.4 244.7 58.4 C 246.2 58.4 247.4 59.1 247.9 60.3 C 248.3 59.5 249.2 58.4 251.3 58.4 C 253.7 58.4 255.3 59.9 255.3 62.4 Z M 259.9 65.2 C 260 67.1 261.3 68 262.9 68 C 264 68 265 67.6 265.4 66.5 C 265.4 66.5 267.9 66.5 267.9 66.5 C 267.4 69.1 265.1 70.4 262.8 70.4 C 260 70.4 257.2 68.5 257.2 64.4 C 257.2 60.4 259.8 58.4 262.8 58.4 C 265.6 58.4 268 60.2 268 64.1 C 267.98 64.09 268 65.2 268 65.2 C 268 65.2 259.91 65.23 259.9 65.2 Z M 260 63.2 C 260 63.2 265.2 63.2 265.2 63.2 C 265.2 61.7 264.2 60.8 262.7 60.8 C 261.5 60.8 260.2 61.5 260 63.2 Z M 280.2 62.7 C 280.16 62.71 280.2 70.2 280.2 70.2 L 277.4 70.2 C 277.4 70.2 277.36 62.96 277.4 63 C 277.4 61.7 276.6 60.9 275.3 60.9 C 273.7 60.9 272.8 62 272.8 63.9 C 272.77 63.92 272.8 70.2 272.8 70.2 L 270 70.2 L 270 58.6 L 272.7 58.6 C 272.7 58.6 272.74 60.27 272.7 60.3 C 273.4 59.2 274.3 58.4 276.3 58.4 C 278.9 58.4 280.2 59.9 280.2 62.7 Z M 288.7 70.2 C 288.7 70.2 286.88 70.18 286.9 70.2 C 284.7 70.2 283.3 69.5 283.3 66.4 C 283.33 66.4 283.3 61.1 283.3 61.1 L 281.2 61.1 L 281.2 58.6 L 283.3 58.6 L 283.3 56 L 286.1 55.2 L 286.1 58.6 L 288.4 58.6 L 288.4 61.1 L 286.1 61.1 C 286.1 61.1 286.12 66.53 286.1 66.5 C 286.1 67.2 286.3 67.7 287.3 67.7 C 287.3 67.7 288.7 67.7 288.7 67.7 L 288.7 70.2 Z M 299.5 66.6 C 299.5 69.2 297.2 70.4 294.6 70.4 C 292.2 70.4 289.6 69.4 289.4 66.5 C 289.4 66.5 292.3 66.5 292.3 66.5 C 292.4 67.6 293.5 68.1 294.8 68.1 C 295.9 68.1 296.8 67.7 296.8 66.9 C 296.8 66.1 296.2 66 294.6 65.7 C 292.4 65.3 289.8 64.9 289.8 62.1 C 289.8 59.5 292 58.4 294.4 58.4 C 297.1 58.4 299.1 59.7 299.3 62.3 C 299.3 62.3 296.5 62.3 296.5 62.3 C 296.4 61.2 295.6 60.7 294.4 60.7 C 293.1 60.7 292.5 61.3 292.5 62 C 292.5 62.9 293.5 63.1 294.9 63.3 C 297 63.6 299.5 63.9 299.5 66.6 Z M 306.6 57.1 L 309.5 57.1 L 309.5 53.9 L 306.6 53.9 L 306.6 57.1 Z M 306.7 58.6 L 309.5 58.6 L 309.5 70.2 L 306.7 70.2 L 306.7 58.6 Z M 322.3 62.7 C 322.35 62.71 322.3 70.2 322.3 70.2 L 319.6 70.2 C 319.6 70.2 319.55 62.96 319.6 63 C 319.6 61.7 318.8 60.9 317.5 60.9 C 315.9 60.9 315 62 315 63.9 C 314.95 63.92 315 70.2 315 70.2 L 312.2 70.2 L 312.2 58.6 L 314.9 58.6 C 314.9 58.6 314.93 60.27 314.9 60.3 C 315.6 59.2 316.5 58.4 318.5 58.4 C 321.1 58.4 322.3 59.9 322.3 62.7 Z M 324.9 57.1 L 327.8 57.1 L 327.8 53.9 L 324.9 53.9 L 324.9 57.1 Z M 324.9 58.6 L 327.7 58.6 L 327.7 70.2 L 324.9 70.2 L 324.9 58.6 Z M 336.4 70.2 C 336.4 70.2 334.55 70.18 334.5 70.2 C 332.4 70.2 331 69.5 331 66.4 C 331 66.4 331 61.1 331 61.1 L 328.9 61.1 L 328.9 58.6 L 331 58.6 L 331 56 L 333.8 55.2 L 333.8 58.6 L 336.1 58.6 L 336.1 61.1 L 333.8 61.1 C 333.8 61.1 333.79 66.53 333.8 66.5 C 333.8 67.2 334 67.7 335 67.7 C 334.97 67.7 336.4 67.7 336.4 67.7 L 336.4 70.2 Z M 337.8 57.1 L 340.8 57.1 L 340.8 53.9 L 337.8 53.9 L 337.8 57.1 Z M 337.9 58.6 L 340.7 58.6 L 340.7 70.2 L 337.9 70.2 L 337.9 58.6 Z M 352.7 62.4 C 352.69 62.39 352.7 70.2 352.7 70.2 L 350 70.2 C 350 70.2 349.96 68.5 350 68.5 C 349.1 70 347.7 70.4 346.5 70.4 C 344.6 70.4 342.7 69.3 342.7 66.8 C 342.7 65 343.7 63.8 346.4 63.4 C 346.4 63.4 348.9 63 348.9 63 C 349.6 62.9 350.1 62.7 350.1 62 C 350.1 61 349.2 60.6 348.1 60.6 C 346.6 60.6 345.9 61.3 345.8 62.3 C 345.8 62.3 343.2 62.3 343.2 62.3 C 343.4 59.6 345.6 58.4 348.2 58.4 C 351 58.4 352.7 59.7 352.7 62.4 Z M 350 65.3 C 350 65.3 350 64.7 350 64.7 C 349.7 64.8 349.2 65 348.6 65 C 348.6 65 347.4 65.2 347.4 65.2 C 345.9 65.4 345.5 66 345.5 66.7 C 345.5 67.6 346.1 68.1 347.1 68.1 C 348.6 68.1 350 67 350 65.3 Z M 365.4 70.2 L 362.6 70.2 C 362.6 70.2 362.62 68.54 362.6 68.5 C 362 69.6 360.9 70.3 359.3 70.3 C 356.9 70.3 355.1 68.8 355.1 65.8 C 355.1 65.79 355.1 58.6 355.1 58.6 L 357.9 58.6 C 357.9 58.6 357.9 65.58 357.9 65.6 C 357.9 67.2 358.7 67.8 359.9 67.8 C 361.4 67.8 362.6 66.9 362.6 64.2 C 362.56 64.2 362.6 58.6 362.6 58.6 L 365.4 58.6 L 365.4 70.2 Z M 373.2 66.5 L 370.5 70.2 L 367 70.2 L 371.3 64.4 L 366.9 58.6 L 370.5 58.6 L 373.1 62.2 L 375.7 58.6 L 379.2 58.6 L 374.9 64.2 L 379.4 70.2 L 375.8 70.2 L 373.2 66.5 Z M 389 64.6 C 389 61.9 390.4 61.4 391.6 60.5 C 392.6 59.8 393.1 59.2 393.1 58.4 C 393.1 57.2 392.2 56.6 391 56.6 C 389.5 56.6 388.6 57.4 388.6 58.8 C 388.6 58.8 385.7 58.8 385.7 58.8 C 386 55.4 388.5 54.2 391.1 54.2 C 393.8 54.2 396 55.5 396 58.3 C 396 60.5 394.7 61.4 393.3 62.4 C 392.2 63.2 391.7 63.7 391.7 64.6 C 391.69 64.64 391.7 65.3 391.7 65.3 L 389 65.3 C 389 65.3 389.02 64.55 389 64.6 Z M 388.8 66.9 L 391.9 66.9 L 391.9 70.2 L 388.8 70.2 L 388.8 66.9 Z " stroke="none" fill="#000"/>  </g>  <g id="Polygon12126">    <path d="M 11.5 45 L 8.8 45 C 8.8 45 8.78 43.34 8.8 43.3 C 8.1 44.4 7.1 45.1 5.4 45.1 C 3 45.1 1.3 43.6 1.3 40.6 C 1.26 40.59 1.3 33.4 1.3 33.4 L 4.1 33.4 C 4.1 33.4 4.05 40.38 4.1 40.4 C 4.1 42 4.8 42.6 6 42.6 C 7.6 42.6 8.7 41.7 8.7 39 C 8.72 39 8.7 33.4 8.7 33.4 L 11.5 33.4 L 11.5 45 Z M 20.2 45 C 20.2 45 18.33 44.98 18.3 45 C 16.2 45 14.8 44.3 14.8 41.2 C 14.78 41.2 14.8 35.9 14.8 35.9 L 12.7 35.9 L 12.7 33.4 L 14.8 33.4 L 14.8 30.8 L 17.6 30 L 17.6 33.4 L 19.9 33.4 L 19.9 35.9 L 17.6 35.9 C 17.6 35.9 17.58 41.33 17.6 41.3 C 17.6 42 17.8 42.5 18.8 42.5 C 18.75 42.5 20.2 42.5 20.2 42.5 L 20.2 45 Z M 21.6 31.9 L 24.6 31.9 L 24.6 28.7 L 21.6 28.7 L 21.6 31.9 Z M 21.7 33.4 L 24.5 33.4 L 24.5 45 L 21.7 45 L 21.7 33.4 Z M 30 45 L 27.2 45 L 27.2 29 L 30 29 L 30 45 Z M 32.6 31.9 L 35.6 31.9 L 35.6 28.7 L 32.6 28.7 L 32.6 31.9 Z M 32.7 33.4 L 35.5 33.4 L 35.5 45 L 32.7 45 L 32.7 33.4 Z M 47.5 41.4 C 47.5 44 45.2 45.2 42.6 45.2 C 40.2 45.2 37.6 44.2 37.4 41.3 C 37.4 41.3 40.2 41.3 40.2 41.3 C 40.4 42.4 41.4 42.9 42.7 42.9 C 43.9 42.9 44.7 42.5 44.7 41.7 C 44.7 40.9 44.2 40.8 42.6 40.5 C 40.3 40.1 37.7 39.7 37.7 36.9 C 37.7 34.3 39.9 33.2 42.3 33.2 C 45 33.2 47 34.5 47.2 37.1 C 47.2 37.1 44.5 37.1 44.5 37.1 C 44.4 36 43.6 35.5 42.4 35.5 C 41 35.5 40.4 36.1 40.4 36.8 C 40.4 37.7 41.5 37.9 42.9 38.1 C 45 38.4 47.5 38.7 47.5 41.4 Z M 51.3 40 C 51.4 41.9 52.8 42.8 54.3 42.8 C 55.4 42.8 56.5 42.4 56.8 41.3 C 56.8 41.3 59.4 41.3 59.4 41.3 C 58.9 43.9 56.6 45.2 54.2 45.2 C 51.4 45.2 48.6 43.3 48.6 39.2 C 48.6 35.2 51.3 33.2 54.2 33.2 C 57 33.2 59.4 35 59.4 38.9 C 59.41 38.89 59.4 40 59.4 40 C 59.4 40 51.34 40.03 51.3 40 Z M 51.4 38 C 51.4 38 56.7 38 56.7 38 C 56.7 36.5 55.6 35.6 54.2 35.6 C 52.9 35.6 51.7 36.3 51.4 38 Z M 68 36 C 68 36 67.22 35.97 67.2 36 C 65.3 36 64.2 37 64.2 39.3 C 64.2 39.31 64.2 45 64.2 45 L 61.4 45 L 61.4 33.4 L 64.2 33.4 C 64.2 33.4 64.17 35.05 64.2 35 C 64.8 33.8 65.8 33.3 67.2 33.3 C 67.2 33.26 68 33.3 68 33.3 L 68 36 Z M 85.7 39 C 85.7 43.2 83.1 45.1 80.4 45.1 C 78.9 45.1 77.8 44.4 77.2 43.6 C 77.15 43.6 77.2 49.3 77.2 49.3 L 74.4 49.3 L 74.4 33.4 L 77.1 33.4 C 77.1 33.4 77.09 35.24 77.1 35.2 C 77.7 34 79 33.2 80.7 33.2 C 83.4 33.2 85.7 35.1 85.7 39 Z M 82.9 39.2 C 82.9 36.8 81.5 35.7 80 35.7 C 78.5 35.7 77.1 36.8 77.1 39.2 C 77.1 41.5 78.5 42.6 80 42.6 C 81.5 42.6 82.9 41.5 82.9 39.2 Z M 98.3 39.2 C 98.3 43 95.9 45.2 92.7 45.2 C 89.4 45.2 87 43 87 39.2 C 87 35.4 89.4 33.2 92.7 33.2 C 95.9 33.2 98.3 35.4 98.3 39.2 Z M 89.9 39.2 C 89.9 41.5 91.1 42.6 92.7 42.6 C 94.4 42.6 95.5 41.4 95.5 39.2 C 95.5 36.9 94.2 35.8 92.6 35.8 C 91 35.8 89.9 37 89.9 39.2 Z M 110.5 45 L 107.7 45 C 107.7 45 107.73 43.34 107.7 43.3 C 107.1 44.4 106 45.1 104.4 45.1 C 102 45.1 100.2 43.6 100.2 40.6 C 100.21 40.59 100.2 33.4 100.2 33.4 L 103 33.4 C 103 33.4 103 40.38 103 40.4 C 103 42 103.8 42.6 105 42.6 C 106.5 42.6 107.7 41.7 107.7 39 C 107.67 39 107.7 33.4 107.7 33.4 L 110.5 33.4 L 110.5 45 Z M 119.7 36 C 119.7 36 119.01 35.97 119 36 C 117.1 36 116 37 116 39.3 C 115.98 39.31 116 45 116 45 L 113.2 45 L 113.2 33.4 L 116 33.4 C 116 33.4 115.96 35.05 116 35 C 116.5 33.8 117.6 33.3 119 33.3 C 118.98 33.26 119.7 33.3 119.7 33.3 L 119.7 36 Z M 136.3 39.2 C 136.3 43 133.9 45.2 130.6 45.2 C 127.4 45.2 125 43 125 39.2 C 125 35.4 127.4 33.2 130.6 33.2 C 133.9 33.2 136.3 35.4 136.3 39.2 Z M 127.8 39.2 C 127.8 41.5 129.1 42.6 130.7 42.6 C 132.3 42.6 133.5 41.4 133.5 39.2 C 133.5 36.9 132.2 35.8 130.6 35.8 C 129 35.8 127.8 37 127.8 39.2 Z M 148.7 32.6 C 148.68 32.63 148.7 33.4 148.7 33.4 L 150.8 33.4 L 150.8 35.9 L 148.7 35.9 L 148.7 45 L 145.9 45 L 145.9 35.9 L 141.5 35.9 L 141.5 45 L 138.7 45 L 138.7 35.9 L 136.9 35.9 L 136.9 33.4 L 138.7 33.4 C 138.7 33.4 138.66 32.76 138.7 32.8 C 138.7 29.7 140 29 142.2 29 C 142.21 28.98 143.9 29 143.9 29 L 143.9 31.5 C 143.9 31.5 142.63 31.46 142.6 31.5 C 141.6 31.5 141.5 31.9 141.5 32.6 C 141.45 32.63 141.5 33.4 141.5 33.4 L 145.9 33.4 C 145.9 33.4 145.88 32.76 145.9 32.8 C 145.9 29.7 147.3 29 149.4 29 C 149.43 28.98 151.1 29 151.1 29 L 151.1 31.5 C 151.1 31.5 149.85 31.46 149.9 31.5 C 148.9 31.5 148.7 31.9 148.7 32.6 Z M 159 36 C 159 36 158.3 35.97 158.3 36 C 156.3 36 155.3 37 155.3 39.3 C 155.27 39.31 155.3 45 155.3 45 L 152.5 45 L 152.5 33.4 L 155.3 33.4 C 155.3 33.4 155.25 35.05 155.3 35 C 155.8 33.8 156.9 33.3 158.3 33.3 C 158.27 33.26 159 33.3 159 33.3 L 159 36 Z M 160.3 31.9 L 163.3 31.9 L 163.3 28.7 L 160.3 28.7 L 160.3 31.9 Z M 160.4 33.4 L 163.2 33.4 L 163.2 45 L 160.4 45 L 160.4 33.4 Z M 172.4 36 C 172.4 36 171.69 35.97 171.7 36 C 169.7 36 168.7 37 168.7 39.3 C 168.67 39.31 168.7 45 168.7 45 L 165.9 45 L 165.9 33.4 L 168.6 33.4 C 168.6 33.4 168.65 35.05 168.6 35 C 169.2 33.8 170.3 33.3 171.7 33.3 C 171.67 33.26 172.4 33.3 172.4 33.3 L 172.4 36 Z M 189.1 45 L 186.3 45 C 186.3 45 186.33 43.2 186.3 43.2 C 185.7 44.5 184.4 45.2 182.8 45.2 C 180.1 45.2 177.7 43.2 177.7 39.2 C 177.7 35.2 180.1 33.2 182.8 33.2 C 184.3 33.2 185.6 33.8 186.3 34.9 C 186.27 34.92 186.3 29 186.3 29 L 189.1 29 L 189.1 45 Z M 186.4 39.2 C 186.4 36.8 184.9 35.7 183.4 35.7 C 181.9 35.7 180.5 36.8 180.5 39.2 C 180.5 41.5 181.9 42.7 183.4 42.7 C 184.9 42.7 186.4 41.5 186.4 39.2 Z M 193.8 40 C 193.8 41.9 195.2 42.8 196.7 42.8 C 197.8 42.8 198.9 42.4 199.2 41.3 C 199.2 41.3 201.8 41.3 201.8 41.3 C 201.3 43.9 199 45.2 196.6 45.2 C 193.8 45.2 191.1 43.3 191.1 39.2 C 191.1 35.2 193.7 33.2 196.6 33.2 C 199.5 33.2 201.8 35 201.8 38.9 C 201.83 38.89 201.8 40 201.8 40 C 201.8 40 193.76 40.03 193.8 40 Z M 193.8 38 C 193.8 38 199.1 38 199.1 38 C 199.1 36.5 198 35.6 196.6 35.6 C 195.3 35.6 194.1 36.3 193.8 38 Z M 213.1 41.4 C 213.1 44 210.8 45.2 208.2 45.2 C 205.8 45.2 203.2 44.2 203 41.3 C 203 41.3 205.8 41.3 205.8 41.3 C 206 42.4 207 42.9 208.3 42.9 C 209.5 42.9 210.3 42.5 210.3 41.7 C 210.3 40.9 209.8 40.8 208.2 40.5 C 205.9 40.1 203.3 39.7 203.3 36.9 C 203.3 34.3 205.5 33.2 207.9 33.2 C 210.6 33.2 212.6 34.5 212.8 37.1 C 212.8 37.1 210.1 37.1 210.1 37.1 C 210 36 209.2 35.5 208 35.5 C 206.6 35.5 206 36.1 206 36.8 C 206 37.7 207.1 37.9 208.5 38.1 C 210.6 38.4 213.1 38.7 213.1 41.4 Z M 226.8 36 C 226.8 36 226.04 35.97 226 36 C 224.1 36 223 37 223 39.3 C 223.02 39.31 223 45 223 45 L 220.2 45 L 220.2 33.4 L 223 33.4 C 223 33.4 223 35.05 223 35 C 223.6 33.8 224.7 33.3 226 33.3 C 226.02 33.26 226.8 33.3 226.8 33.3 L 226.8 36 Z M 229.9 40 C 230 41.9 231.3 42.8 232.9 42.8 C 234 42.8 235 42.4 235.4 41.3 C 235.4 41.3 237.9 41.3 237.9 41.3 C 237.4 43.9 235.1 45.2 232.8 45.2 C 230 45.2 227.2 43.3 227.2 39.2 C 227.2 35.2 229.8 33.2 232.8 33.2 C 235.6 33.2 238 35 238 38.9 C 237.97 38.89 238 40 238 40 C 238 40 229.91 40.03 229.9 40 Z M 230 38 C 230 38 235.2 38 235.2 38 C 235.2 36.5 234.2 35.6 232.7 35.6 C 231.5 35.6 230.2 36.3 230 38 Z M 250.1 37.5 C 250.15 37.51 250.1 45 250.1 45 L 247.4 45 C 247.4 45 247.36 37.76 247.4 37.8 C 247.4 36.5 246.6 35.7 245.3 35.7 C 243.7 35.7 242.8 36.8 242.8 38.7 C 242.76 38.72 242.8 45 242.8 45 L 240 45 L 240 33.4 L 242.7 33.4 C 242.7 33.4 242.74 35.07 242.7 35.1 C 243.4 34 244.3 33.2 246.3 33.2 C 248.9 33.2 250.1 34.7 250.1 37.5 Z M 263.4 45 L 260.7 45 C 260.7 45 260.69 43.2 260.7 43.2 C 260.1 44.5 258.7 45.2 257.1 45.2 C 254.4 45.2 252 43.2 252 39.2 C 252 35.2 254.4 33.2 257.1 33.2 C 258.6 33.2 259.9 33.8 260.6 34.9 C 260.63 34.92 260.6 29 260.6 29 L 263.4 29 L 263.4 45 Z M 260.7 39.2 C 260.7 36.8 259.3 35.7 257.8 35.7 C 256.3 35.7 254.9 36.8 254.9 39.2 C 254.9 41.5 256.3 42.7 257.8 42.7 C 259.3 42.7 260.7 41.5 260.7 39.2 Z M 268.1 40 C 268.2 41.9 269.5 42.8 271.1 42.8 C 272.2 42.8 273.2 42.4 273.6 41.3 C 273.6 41.3 276.1 41.3 276.1 41.3 C 275.6 43.9 273.4 45.2 271 45.2 C 268.2 45.2 265.4 43.3 265.4 39.2 C 265.4 35.2 268 33.2 271 33.2 C 273.8 33.2 276.2 35 276.2 38.9 C 276.19 38.89 276.2 40 276.2 40 C 276.2 40 268.12 40.03 268.1 40 Z M 268.2 38 C 268.2 38 273.5 38 273.5 38 C 273.5 36.5 272.4 35.6 271 35.6 C 269.7 35.6 268.4 36.3 268.2 38 Z M 294.5 37.2 C 294.54 37.17 294.5 45 294.5 45 L 291.7 45 C 291.7 45 291.75 37.72 291.7 37.7 C 291.7 36.3 291.1 35.7 289.9 35.7 C 288.6 35.7 287.8 36.5 287.8 38.5 C 287.76 38.47 287.8 45 287.8 45 L 285 45 C 285 45 284.97 37.72 285 37.7 C 285 36.3 284.3 35.7 283.1 35.7 C 281.8 35.7 281 36.5 281 38.5 C 280.98 38.45 281 45 281 45 L 278.2 45 L 278.2 33.4 L 280.9 33.4 C 280.9 33.4 280.93 35.09 280.9 35.1 C 281.3 34.2 282.2 33.2 283.9 33.2 C 285.4 33.2 286.6 33.9 287.1 35.1 C 287.6 34.3 288.4 33.2 290.5 33.2 C 293 33.2 294.5 34.7 294.5 37.2 Z M 299.1 40 C 299.2 41.9 300.5 42.8 302.1 42.8 C 303.2 42.8 304.3 42.4 304.6 41.3 C 304.6 41.3 307.2 41.3 307.2 41.3 C 306.7 43.9 304.4 45.2 302 45.2 C 299.2 45.2 296.4 43.3 296.4 39.2 C 296.4 35.2 299.1 33.2 302 33.2 C 304.8 33.2 307.2 35 307.2 38.9 C 307.21 38.89 307.2 40 307.2 40 C 307.2 40 299.14 40.03 299.1 40 Z M 299.2 38 C 299.2 38 304.5 38 304.5 38 C 304.5 36.5 303.4 35.6 302 35.6 C 300.7 35.6 299.5 36.3 299.2 38 Z M 319.4 37.5 C 319.39 37.51 319.4 45 319.4 45 L 316.6 45 C 316.6 45 316.59 37.76 316.6 37.8 C 316.6 36.5 315.9 35.7 314.6 35.7 C 313 35.7 312 36.8 312 38.7 C 311.99 38.72 312 45 312 45 L 309.2 45 L 309.2 33.4 L 312 33.4 C 312 33.4 311.97 35.07 312 35.1 C 312.6 34 313.6 33.2 315.5 33.2 C 318.1 33.2 319.4 34.7 319.4 37.5 Z M 327.9 45 C 327.9 45 326.11 44.98 326.1 45 C 323.9 45 322.6 44.3 322.6 41.2 C 322.56 41.2 322.6 35.9 322.6 35.9 L 320.4 35.9 L 320.4 33.4 L 322.6 33.4 L 322.6 30.8 L 325.3 30 L 325.3 33.4 L 327.7 33.4 L 327.7 35.9 L 325.3 35.9 C 325.3 35.9 325.35 41.33 325.3 41.3 C 325.3 42 325.5 42.5 326.5 42.5 C 326.53 42.5 327.9 42.5 327.9 42.5 L 327.9 45 Z M 338.8 41.4 C 338.8 44 336.5 45.2 333.9 45.2 C 331.5 45.2 328.9 44.2 328.7 41.3 C 328.7 41.3 331.5 41.3 331.5 41.3 C 331.7 42.4 332.7 42.9 334 42.9 C 335.2 42.9 336 42.5 336 41.7 C 336 40.9 335.5 40.8 333.9 40.5 C 331.6 40.1 329 39.7 329 36.9 C 329 34.3 331.2 33.2 333.6 33.2 C 336.3 33.2 338.3 34.5 338.5 37.1 C 338.5 37.1 335.8 37.1 335.8 37.1 C 335.7 36 334.8 35.5 333.7 35.5 C 332.3 35.5 331.7 36.1 331.7 36.8 C 331.7 37.7 332.8 37.9 334.2 38.1 C 336.2 38.4 338.8 38.7 338.8 41.4 Z M 355.2 37.2 C 355.17 37.19 355.2 45 355.2 45 L 352.4 45 C 352.4 45 352.44 43.3 352.4 43.3 C 351.5 44.8 350.1 45.2 348.9 45.2 C 347.1 45.2 345.2 44.1 345.2 41.6 C 345.2 39.8 346.2 38.6 348.9 38.2 C 348.9 38.2 351.4 37.8 351.4 37.8 C 352.1 37.7 352.5 37.5 352.5 36.8 C 352.5 35.8 351.7 35.4 350.6 35.4 C 349.1 35.4 348.4 36.1 348.3 37.1 C 348.3 37.1 345.6 37.1 345.6 37.1 C 345.9 34.4 348.1 33.2 350.7 33.2 C 353.4 33.2 355.2 34.5 355.2 37.2 Z M 352.5 40.1 C 352.5 40.1 352.5 39.5 352.5 39.5 C 352.2 39.6 351.7 39.8 351.1 39.8 C 351.1 39.8 349.8 40 349.8 40 C 348.4 40.2 348 40.8 348 41.5 C 348 42.4 348.6 42.9 349.6 42.9 C 351 42.9 352.5 41.8 352.5 40.1 Z M 370.6 45 C 370.6 45 368.8 44.98 368.8 45 C 366.6 45 365.2 44.3 365.2 41.2 C 365.25 41.2 365.2 35.9 365.2 35.9 L 361 35.9 C 361 35.9 361.03 41.33 361 41.3 C 361 42 361.2 42.5 362.2 42.5 C 362.2 42.5 363.6 42.5 363.6 42.5 L 363.6 45 C 363.6 45 361.78 44.98 361.8 45 C 359.6 45 358.2 44.3 358.2 41.2 C 358.23 41.2 358.2 35.9 358.2 35.9 L 356.1 35.9 L 356.1 33.4 L 358.2 33.4 L 358.2 30.8 L 361 30 L 361 33.4 L 365.2 33.4 L 365.2 30.8 L 368 30 L 368 33.4 L 370.4 33.4 L 370.4 35.9 L 368 35.9 C 368 35.9 368.04 41.33 368 41.3 C 368 42 368.2 42.5 369.2 42.5 C 369.22 42.5 370.6 42.5 370.6 42.5 L 370.6 45 Z M 378.8 36 C 378.8 36 378.02 35.97 378 36 C 376.1 36 375 37 375 39.3 C 374.99 39.31 375 45 375 45 L 372.2 45 L 372.2 33.4 L 375 33.4 C 375 33.4 374.97 35.05 375 35 C 375.6 33.8 376.6 33.3 378 33.3 C 378 33.26 378.8 33.3 378.8 33.3 L 378.8 36 Z M 389.4 37.2 C 389.38 37.19 389.4 45 389.4 45 L 386.6 45 C 386.6 45 386.65 43.3 386.6 43.3 C 385.7 44.8 384.4 45.2 383.1 45.2 C 381.3 45.2 379.4 44.1 379.4 41.6 C 379.4 39.8 380.4 38.6 383.1 38.2 C 383.1 38.2 385.6 37.8 385.6 37.8 C 386.3 37.7 386.8 37.5 386.8 36.8 C 386.8 35.8 385.9 35.4 384.8 35.4 C 383.3 35.4 382.6 36.1 382.5 37.1 C 382.5 37.1 379.8 37.1 379.8 37.1 C 380.1 34.4 382.3 33.2 384.9 33.2 C 387.7 33.2 389.4 34.5 389.4 37.2 Z M 386.7 40.1 C 386.7 40.1 386.7 39.5 386.7 39.5 C 386.4 39.6 385.9 39.8 385.3 39.8 C 385.3 39.8 384 40 384 40 C 382.6 40.2 382.2 40.8 382.2 41.5 C 382.2 42.4 382.8 42.9 383.8 42.9 C 385.2 42.9 386.7 41.8 386.7 40.1 Z M 401.8 33.4 C 401.8 33.4 396.79 46.72 396.8 46.7 C 396.3 48.1 395.1 48.7 393.5 48.7 C 393.51 48.68 391.8 48.7 391.8 48.7 L 391.8 46.2 C 391.8 46.2 393.03 46.2 393 46.2 C 394 46.2 394.4 45.9 394.7 45.1 C 394.69 45.07 394.9 44.5 394.9 44.5 L 390.5 33.4 L 393.5 33.4 L 396.2 41 L 399 33.4 L 401.8 33.4 Z M 412.5 37.2 C 412.46 37.19 412.5 45 412.5 45 L 409.7 45 C 409.7 45 409.73 43.3 409.7 43.3 C 408.8 44.8 407.4 45.2 406.2 45.2 C 404.4 45.2 402.5 44.1 402.5 41.6 C 402.5 39.8 403.5 38.6 406.2 38.2 C 406.2 38.2 408.7 37.8 408.7 37.8 C 409.3 37.7 409.8 37.5 409.8 36.8 C 409.8 35.8 409 35.4 407.9 35.4 C 406.4 35.4 405.7 36.1 405.6 37.1 C 405.6 37.1 402.9 37.1 402.9 37.1 C 403.2 34.4 405.4 33.2 408 33.2 C 410.7 33.2 412.5 34.5 412.5 37.2 Z M 409.7 40.1 C 409.7 40.1 409.7 39.5 409.7 39.5 C 409.5 39.6 408.9 39.8 408.4 39.8 C 408.4 39.8 407.1 40 407.1 40 C 405.7 40.2 405.3 40.8 405.3 41.5 C 405.3 42.4 405.9 42.9 406.9 42.9 C 408.3 42.9 409.7 41.8 409.7 40.1 Z M 425.2 37.5 C 425.16 37.51 425.2 45 425.2 45 L 422.4 45 C 422.4 45 422.37 37.76 422.4 37.8 C 422.4 36.5 421.6 35.7 420.3 35.7 C 418.7 35.7 417.8 36.8 417.8 38.7 C 417.77 38.72 417.8 45 417.8 45 L 415 45 L 415 33.4 L 417.7 33.4 C 417.7 33.4 417.75 35.07 417.7 35.1 C 418.4 34 419.3 33.2 421.3 33.2 C 423.9 33.2 425.2 34.7 425.2 37.5 Z M 433.7 45 C 433.7 45 431.88 44.98 431.9 45 C 429.7 45 428.3 44.3 428.3 41.2 C 428.33 41.2 428.3 35.9 428.3 35.9 L 426.2 35.9 L 426.2 33.4 L 428.3 33.4 L 428.3 30.8 L 431.1 30 L 431.1 33.4 L 433.4 33.4 L 433.4 35.9 L 431.1 35.9 C 431.1 35.9 431.12 41.33 431.1 41.3 C 431.1 42 431.3 42.5 432.3 42.5 C 432.3 42.5 433.7 42.5 433.7 42.5 L 433.7 45 Z M 444.5 41.4 C 444.5 44 442.2 45.2 439.6 45.2 C 437.2 45.2 434.6 44.2 434.4 41.3 C 434.4 41.3 437.3 41.3 437.3 41.3 C 437.4 42.4 438.5 42.9 439.8 42.9 C 441 42.9 441.8 42.5 441.8 41.7 C 441.8 40.9 441.2 40.8 439.7 40.5 C 437.4 40.1 434.8 39.7 434.8 36.9 C 434.8 34.3 437 33.2 439.4 33.2 C 442.1 33.2 444.1 34.5 444.3 37.1 C 444.3 37.1 441.5 37.1 441.5 37.1 C 441.4 36 440.6 35.5 439.4 35.5 C 438.1 35.5 437.5 36.1 437.5 36.8 C 437.5 37.7 438.5 37.9 439.9 38.1 C 442 38.4 444.5 38.7 444.5 41.4 Z " stroke="none" fill="#000"/>  </g>  <g id="Polygon12125">    <path d="M 1.6 19.8 L 1.6 4 L 12.2 4 L 12.2 6.8 L 4.5 6.8 L 4.5 10.4 L 11.8 10.4 L 11.8 13.2 L 4.5 13.2 L 4.5 17 L 12.6 17 L 12.6 19.8 L 1.6 19.8 Z M 24.8 12.3 C 24.76 12.31 24.8 19.8 24.8 19.8 L 22 19.8 C 22 19.8 21.97 12.56 22 12.6 C 22 11.3 21.2 10.5 19.9 10.5 C 18.3 10.5 17.4 11.6 17.4 13.5 C 17.37 13.52 17.4 19.8 17.4 19.8 L 14.6 19.8 L 14.6 8.2 L 17.3 8.2 C 17.3 8.2 17.35 9.87 17.3 9.9 C 18 8.8 18.9 8 20.9 8 C 23.5 8 24.8 9.5 24.8 12.3 Z M 38.8 19.8 C 38.8 19.8 36.94 19.78 36.9 19.8 C 34.8 19.8 33.4 19.1 33.4 16 C 33.39 16 33.4 10.7 33.4 10.7 L 31.3 10.7 L 31.3 8.2 L 33.4 8.2 L 33.4 5.6 L 36.2 4.8 L 36.2 8.2 L 38.5 8.2 L 38.5 10.7 L 36.2 10.7 C 36.2 10.7 36.18 16.13 36.2 16.1 C 36.2 16.8 36.4 17.3 37.4 17.3 C 37.36 17.3 38.8 17.3 38.8 17.3 L 38.8 19.8 Z M 49.6 12 C 49.6 11.99 49.6 19.8 49.6 19.8 L 46.9 19.8 C 46.9 19.8 46.87 18.1 46.9 18.1 C 46 19.6 44.6 20 43.4 20 C 41.5 20 39.6 18.9 39.6 16.4 C 39.6 14.6 40.6 13.4 43.3 13 C 43.3 13 45.8 12.6 45.8 12.6 C 46.5 12.5 47 12.3 47 11.6 C 47 10.6 46.1 10.2 45 10.2 C 43.5 10.2 42.9 10.9 42.8 11.9 C 42.8 11.9 40.1 11.9 40.1 11.9 C 40.4 9.2 42.5 8 45.1 8 C 47.9 8 49.6 9.3 49.6 12 Z M 46.9 14.9 C 46.9 14.9 46.9 14.3 46.9 14.3 C 46.6 14.4 46.1 14.6 45.5 14.6 C 45.5 14.6 44.3 14.8 44.3 14.8 C 42.9 15 42.4 15.6 42.4 16.3 C 42.4 17.2 43 17.7 44 17.7 C 45.5 17.7 46.9 16.6 46.9 14.9 Z M 62.3 12.3 C 62.31 12.31 62.3 19.8 62.3 19.8 L 59.5 19.8 C 59.5 19.8 59.51 12.56 59.5 12.6 C 59.5 11.3 58.8 10.5 57.5 10.5 C 55.9 10.5 54.9 11.6 54.9 13.5 C 54.91 13.52 54.9 19.8 54.9 19.8 L 52.1 19.8 L 52.1 8.2 L 54.9 8.2 C 54.9 8.2 54.89 9.87 54.9 9.9 C 55.5 8.8 56.5 8 58.4 8 C 61.1 8 62.3 9.5 62.3 12.3 Z M 70.9 19.8 C 70.9 19.8 69.03 19.78 69 19.8 C 66.9 19.8 65.5 19.1 65.5 16 C 65.48 16 65.5 10.7 65.5 10.7 L 63.4 10.7 L 63.4 8.2 L 65.5 8.2 L 65.5 5.6 L 68.3 4.8 L 68.3 8.2 L 70.6 8.2 L 70.6 10.7 L 68.3 10.7 C 68.3 10.7 68.27 16.13 68.3 16.1 C 68.3 16.8 68.5 17.3 69.4 17.3 C 69.45 17.3 70.9 17.3 70.9 17.3 L 70.9 19.8 Z M 88.1 8.2 L 88.1 24.1 L 85.3 24.1 C 85.3 24.1 85.32 18.06 85.3 18.1 C 84.6 19.2 83.5 19.9 81.9 19.9 C 79.2 19.9 76.7 18 76.7 13.9 C 76.7 9.9 79.1 8 81.8 8 C 83.3 8 84.7 8.6 85.4 9.8 C 85.38 9.83 85.4 8.2 85.4 8.2 L 88.1 8.2 Z M 85.4 13.9 C 85.4 11.5 84 10.5 82.5 10.5 C 81 10.5 79.6 11.5 79.6 13.9 C 79.6 16.2 81 17.3 82.5 17.3 C 84 17.3 85.4 16.3 85.4 13.9 Z M 100.9 19.8 L 98.2 19.8 C 98.2 19.8 98.15 18.14 98.2 18.1 C 97.5 19.2 96.4 19.9 94.8 19.9 C 92.4 19.9 90.6 18.4 90.6 15.4 C 90.63 15.39 90.6 8.2 90.6 8.2 L 93.4 8.2 C 93.4 8.2 93.43 15.18 93.4 15.2 C 93.4 16.8 94.2 17.4 95.4 17.4 C 97 17.4 98.1 16.5 98.1 13.8 C 98.09 13.8 98.1 8.2 98.1 8.2 L 100.9 8.2 L 100.9 19.8 Z M 105.6 14.8 C 105.6 16.7 107 17.6 108.6 17.6 C 109.7 17.6 110.7 17.2 111 16.1 C 111 16.1 113.6 16.1 113.6 16.1 C 113.1 18.7 110.8 20 108.4 20 C 105.6 20 102.9 18.1 102.9 14 C 102.9 10 105.5 8 108.5 8 C 111.3 8 113.7 9.8 113.7 13.7 C 113.65 13.69 113.7 14.8 113.7 14.8 C 113.7 14.8 105.59 14.83 105.6 14.8 Z M 105.6 12.8 C 105.6 12.8 110.9 12.8 110.9 12.8 C 110.9 11.3 109.8 10.4 108.4 10.4 C 107.1 10.4 105.9 11.1 105.6 12.8 Z M 130.9 19 C 130.9 22.7 128.5 24.4 125.4 24.4 C 122.6 24.4 120.2 23 119.9 20.1 C 119.9 20.1 122.6 20.1 122.6 20.1 C 122.9 21.6 124.1 22 125.4 22 C 127.2 22 128.2 21.1 128.2 19.3 C 128.2 19.3 128.2 17.4 128.2 17.4 C 127.7 18.6 126.6 19.4 124.8 19.4 C 122.2 19.4 119.7 17.6 119.7 13.7 C 119.7 9.8 122.2 8 124.8 8 C 126.5 8 127.6 8.7 128.2 9.8 C 128.22 9.81 128.2 8.2 128.2 8.2 L 130.9 8.2 C 130.9 8.2 130.91 19 130.9 19 Z M 128.1 13.7 C 128.1 11.5 126.9 10.4 125.4 10.4 C 123.9 10.4 122.5 11.5 122.5 13.7 C 122.5 15.9 123.9 16.9 125.4 16.9 C 126.9 16.9 128.1 15.9 128.1 13.7 Z M 137.1 6.1 L 140.3 1.1 L 142.5 2.8 L 139.5 6.1 L 137.1 6.1 Z M 135.5 14.8 C 135.6 16.7 136.9 17.6 138.5 17.6 C 139.6 17.6 140.6 17.2 141 16.1 C 141 16.1 143.5 16.1 143.5 16.1 C 143 18.7 140.7 20 138.4 20 C 135.6 20 132.8 18.1 132.8 14 C 132.8 10 135.4 8 138.4 8 C 141.2 8 143.6 9.8 143.6 13.7 C 143.58 13.69 143.6 14.8 143.6 14.8 C 143.6 14.8 135.51 14.83 135.5 14.8 Z M 135.6 12.8 C 135.6 12.8 140.8 12.8 140.8 12.8 C 140.8 11.3 139.8 10.4 138.3 10.4 C 137.1 10.4 135.8 11.1 135.6 12.8 Z M 152.1 10.8 C 152.1 10.8 151.39 10.77 151.4 10.8 C 149.4 10.8 148.4 11.8 148.4 14.1 C 148.36 14.11 148.4 19.8 148.4 19.8 L 145.6 19.8 L 145.6 8.2 L 148.3 8.2 C 148.3 8.2 148.34 9.85 148.3 9.8 C 148.9 8.6 150 8.1 151.4 8.1 C 151.37 8.06 152.1 8.1 152.1 8.1 L 152.1 10.8 Z M 162.7 12 C 162.75 11.99 162.7 19.8 162.7 19.8 L 160 19.8 C 160 19.8 160.02 18.1 160 18.1 C 159.1 19.6 157.7 20 156.5 20 C 154.7 20 152.8 18.9 152.8 16.4 C 152.8 14.6 153.8 13.4 156.4 13 C 156.4 13 158.9 12.6 158.9 12.6 C 159.6 12.5 160.1 12.3 160.1 11.6 C 160.1 10.6 159.3 10.2 158.2 10.2 C 156.7 10.2 156 10.9 155.9 11.9 C 155.9 11.9 153.2 11.9 153.2 11.9 C 153.5 9.2 155.7 8 158.3 8 C 161 8 162.7 9.3 162.7 12 Z M 160 14.9 C 160 14.9 160 14.3 160 14.3 C 159.8 14.4 159.2 14.6 158.7 14.6 C 158.7 14.6 157.4 14.8 157.4 14.8 C 156 15 155.5 15.6 155.5 16.3 C 155.5 17.2 156.2 17.7 157.2 17.7 C 158.6 17.7 160 16.6 160 14.9 Z M 175.5 12.3 C 175.45 12.31 175.5 19.8 175.5 19.8 L 172.7 19.8 C 172.7 19.8 172.66 12.56 172.7 12.6 C 172.7 11.3 171.9 10.5 170.6 10.5 C 169 10.5 168.1 11.6 168.1 13.5 C 168.06 13.52 168.1 19.8 168.1 19.8 L 165.3 19.8 L 165.3 8.2 L 168 8.2 C 168 8.2 168.04 9.87 168 9.9 C 168.7 8.8 169.6 8 171.6 8 C 174.2 8 175.5 9.5 175.5 12.3 Z M 184 19.8 C 184 19.8 182.17 19.78 182.2 19.8 C 180 19.8 178.6 19.1 178.6 16 C 178.62 16 178.6 10.7 178.6 10.7 L 176.5 10.7 L 176.5 8.2 L 178.6 8.2 L 178.6 5.6 L 181.4 4.8 L 181.4 8.2 L 183.7 8.2 L 183.7 10.7 L 181.4 10.7 C 181.4 10.7 181.42 16.13 181.4 16.1 C 181.4 16.8 181.6 17.3 182.6 17.3 C 182.59 17.3 184 17.3 184 17.3 L 184 19.8 Z M 200.3 12 C 200.3 11.99 200.3 19.8 200.3 19.8 L 197.6 19.8 C 197.6 19.8 197.57 18.1 197.6 18.1 C 196.7 19.6 195.3 20 194.1 20 C 192.2 20 190.3 18.9 190.3 16.4 C 190.3 14.6 191.3 13.4 194 13 C 194 13 196.5 12.6 196.5 12.6 C 197.2 12.5 197.7 12.3 197.7 11.6 C 197.7 10.6 196.8 10.2 195.7 10.2 C 194.2 10.2 193.6 10.9 193.4 11.9 C 193.4 11.9 190.8 11.9 190.8 11.9 C 191.1 9.2 193.2 8 195.8 8 C 198.6 8 200.3 9.3 200.3 12 Z M 197.6 14.9 C 197.6 14.9 197.6 14.3 197.6 14.3 C 197.3 14.4 196.8 14.6 196.2 14.6 C 196.2 14.6 195 14.8 195 14.8 C 193.6 15 193.1 15.6 193.1 16.3 C 193.1 17.2 193.7 17.7 194.7 17.7 C 196.2 17.7 197.6 16.6 197.6 14.9 Z M 207.7 20 C 203.9 20 202.1 17.1 202.1 14 C 202.1 10.9 203.9 8 207.7 8 C 210.5 8 212.7 9.6 212.8 12.4 C 212.8 12.4 210.1 12.4 210.1 12.4 C 209.9 11.3 209.1 10.5 207.8 10.5 C 205.7 10.5 204.9 12.2 204.9 14 C 204.9 15.9 205.8 17.4 207.8 17.4 C 209.1 17.4 209.9 16.7 210.1 15.7 C 210.1 15.7 212.9 15.7 212.9 15.7 C 212.5 18.5 210.5 20 207.7 20 Z M 220.8 19.8 C 220.8 19.8 218.99 19.78 219 19.8 C 216.8 19.8 215.4 19.1 215.4 16 C 215.44 16 215.4 10.7 215.4 10.7 L 213.3 10.7 L 213.3 8.2 L 215.4 8.2 L 215.4 5.6 L 218.2 4.8 L 218.2 8.2 L 220.5 8.2 L 220.5 10.7 L 218.2 10.7 C 218.2 10.7 218.23 16.13 218.2 16.1 C 218.2 16.8 218.4 17.3 219.4 17.3 C 219.41 17.3 220.8 17.3 220.8 17.3 L 220.8 19.8 Z M 222.3 6.7 L 225.2 6.7 L 225.2 3.5 L 222.3 3.5 L 222.3 6.7 Z M 222.4 8.2 L 225.2 8.2 L 225.2 19.8 L 222.4 19.8 L 222.4 8.2 Z M 232.2 6.3 C 231.2 6.3 231 6.7 231 7.4 C 231.02 7.43 231 8.2 231 8.2 L 233.2 8.2 L 233.2 10.7 L 231 10.7 L 231 19.8 L 228.2 19.8 L 228.2 10.7 L 226.5 10.7 L 226.5 8.2 L 228.2 8.2 C 228.2 8.2 228.23 7.56 228.2 7.6 C 228.2 4.5 229.6 3.8 231.8 3.8 C 231.77 3.78 233.5 3.8 233.5 3.8 L 233.5 6.3 C 233.5 6.3 232.19 6.26 232.2 6.3 Z M 235.7 19.6 C 235.68 19.59 234.3 19.6 234.3 19.6 L 234.3 16.7 L 237.5 16.7 C 237.5 16.7 237.46 19.19 237.5 19.2 C 237.5 22.2 235.4 23.3 233.5 23.5 C 233.5 23.5 233.2 22 233.2 22 C 234.8 21.8 235.7 20.9 235.7 19.6 Z M 254.7 8.2 L 254.7 24.1 L 251.9 24.1 C 251.9 24.1 251.93 18.06 251.9 18.1 C 251.3 19.2 250.1 19.9 248.5 19.9 C 245.8 19.9 243.3 18 243.3 13.9 C 243.3 9.9 245.7 8 248.4 8 C 249.9 8 251.3 8.6 252 9.8 C 252 9.83 252 8.2 252 8.2 L 254.7 8.2 Z M 252 13.9 C 252 11.5 250.6 10.5 249.1 10.5 C 247.6 10.5 246.2 11.5 246.2 13.9 C 246.2 16.2 247.6 17.3 249.1 17.3 C 250.6 17.3 252 16.3 252 13.9 Z M 267.5 19.8 L 264.8 19.8 C 264.8 19.8 264.76 18.14 264.8 18.1 C 264.1 19.2 263 19.9 261.4 19.9 C 259 19.9 257.2 18.4 257.2 15.4 C 257.25 15.39 257.2 8.2 257.2 8.2 L 260 8.2 C 260 8.2 260.04 15.18 260 15.2 C 260 16.8 260.8 17.4 262 17.4 C 263.6 17.4 264.7 16.5 264.7 13.8 C 264.7 13.8 264.7 8.2 264.7 8.2 L 267.5 8.2 L 267.5 19.8 Z M 272.2 14.8 C 272.3 16.7 273.6 17.6 275.2 17.6 C 276.3 17.6 277.3 17.2 277.7 16.1 C 277.7 16.1 280.2 16.1 280.2 16.1 C 279.7 18.7 277.4 20 275.1 20 C 272.3 20 269.5 18.1 269.5 14 C 269.5 10 272.1 8 275.1 8 C 277.9 8 280.3 9.8 280.3 13.7 C 280.26 13.69 280.3 14.8 280.3 14.8 C 280.3 14.8 272.2 14.83 272.2 14.8 Z M 272.3 12.8 C 272.3 12.8 277.5 12.8 277.5 12.8 C 277.5 11.3 276.5 10.4 275 10.4 C 273.8 10.4 272.5 11.1 272.3 12.8 Z M 285.1 19.8 L 282.3 19.8 L 282.3 3.8 L 285.1 3.8 L 285.1 19.8 Z M 297 16.2 C 297 18.8 294.7 20 292.1 20 C 289.7 20 287.1 19 286.9 16.1 C 286.9 16.1 289.8 16.1 289.8 16.1 C 289.9 17.2 291 17.7 292.3 17.7 C 293.5 17.7 294.3 17.3 294.3 16.5 C 294.3 15.7 293.7 15.6 292.1 15.3 C 289.9 14.9 287.3 14.5 287.3 11.7 C 287.3 9.1 289.5 8 291.9 8 C 294.6 8 296.6 9.3 296.8 11.9 C 296.8 11.9 294 11.9 294 11.9 C 293.9 10.8 293.1 10.3 291.9 10.3 C 290.6 10.3 290 10.9 290 11.6 C 290 12.5 291 12.7 292.4 12.9 C 294.5 13.2 297 13.5 297 16.2 Z M 307 19.8 L 304.2 19.8 L 304.2 3.8 L 307 3.8 L 307 19.8 Z M 311.7 14.8 C 311.7 16.7 313.1 17.6 314.7 17.6 C 315.8 17.6 316.8 17.2 317.1 16.1 C 317.1 16.1 319.7 16.1 319.7 16.1 C 319.2 18.7 316.9 20 314.5 20 C 311.7 20 309 18.1 309 14 C 309 10 311.6 8 314.6 8 C 317.4 8 319.7 9.8 319.7 13.7 C 319.74 13.69 319.7 14.8 319.7 14.8 C 319.7 14.8 311.68 14.83 311.7 14.8 Z M 311.7 12.8 C 311.7 12.8 317 12.8 317 12.8 C 317 11.3 315.9 10.4 314.5 10.4 C 313.2 10.4 312 11.1 311.7 12.8 Z M 327.6 19.8 L 324.7 19.8 L 320.4 8.2 L 323.3 8.2 L 326.2 16.5 L 329 8.2 L 331.9 8.2 L 327.6 19.8 Z M 333.2 6.7 L 336.1 6.7 L 336.1 3.5 L 333.2 3.5 L 333.2 6.7 Z M 333.3 8.2 L 336.1 8.2 L 336.1 19.8 L 333.3 19.8 L 333.3 8.2 Z M 340.7 14.8 C 340.8 16.7 342.1 17.6 343.7 17.6 C 344.8 17.6 345.9 17.2 346.2 16.1 C 346.2 16.1 348.8 16.1 348.8 16.1 C 348.3 18.7 346 20 343.6 20 C 340.8 20 338 18.1 338 14 C 338 10 340.7 8 343.6 8 C 346.4 8 348.8 9.8 348.8 13.7 C 348.81 13.69 348.8 14.8 348.8 14.8 C 348.8 14.8 340.74 14.83 340.7 14.8 Z M 340.8 12.8 C 340.8 12.8 346.1 12.8 346.1 12.8 C 346.1 11.3 345 10.4 343.6 10.4 C 342.3 10.4 341.1 11.1 340.8 12.8 Z M 357.4 10.8 C 357.4 10.8 356.62 10.77 356.6 10.8 C 354.7 10.8 353.6 11.8 353.6 14.1 C 353.59 14.11 353.6 19.8 353.6 19.8 L 350.8 19.8 L 350.8 8.2 L 353.6 8.2 C 353.6 8.2 353.57 9.85 353.6 9.8 C 354.2 8.6 355.2 8.1 356.6 8.1 C 356.6 8.06 357.4 8.1 357.4 8.1 L 357.4 10.8 Z M 368 16.2 C 368 18.8 365.7 20 363.1 20 C 360.7 20 358.1 19 357.9 16.1 C 357.9 16.1 360.7 16.1 360.7 16.1 C 360.9 17.2 361.9 17.7 363.2 17.7 C 364.4 17.7 365.2 17.3 365.2 16.5 C 365.2 15.7 364.7 15.6 363.1 15.3 C 360.8 14.9 358.2 14.5 358.2 11.7 C 358.2 9.1 360.4 8 362.8 8 C 365.5 8 367.5 9.3 367.7 11.9 C 367.7 11.9 365 11.9 365 11.9 C 364.9 10.8 364.1 10.3 362.9 10.3 C 361.5 10.3 360.9 10.9 360.9 11.6 C 360.9 12.5 362 12.7 363.4 12.9 C 365.5 13.2 368 13.5 368 16.2 Z M 384.4 12 C 384.38 11.99 384.4 19.8 384.4 19.8 L 381.6 19.8 C 381.6 19.8 381.65 18.1 381.6 18.1 C 380.7 19.6 379.4 20 378.1 20 C 376.3 20 374.4 18.9 374.4 16.4 C 374.4 14.6 375.4 13.4 378.1 13 C 378.1 13 380.6 12.6 380.6 12.6 C 381.3 12.5 381.8 12.3 381.8 11.6 C 381.8 10.6 380.9 10.2 379.8 10.2 C 378.3 10.2 377.6 10.9 377.5 11.9 C 377.5 11.9 374.8 11.9 374.8 11.9 C 375.1 9.2 377.3 8 379.9 8 C 382.7 8 384.4 9.3 384.4 12 Z M 381.7 14.9 C 381.7 14.9 381.7 14.3 381.7 14.3 C 381.4 14.4 380.9 14.6 380.3 14.6 C 380.3 14.6 379 14.8 379 14.8 C 377.6 15 377.2 15.6 377.2 16.3 C 377.2 17.2 377.8 17.7 378.8 17.7 C 380.2 17.7 381.7 16.6 381.7 14.9 Z M 389.7 19.8 L 386.9 19.8 L 386.9 3.8 L 389.7 3.8 L 389.7 19.8 Z M 395.2 19.8 L 392.4 19.8 L 392.4 3.8 L 395.2 3.8 L 395.2 19.8 Z M 399.9 14.8 C 400 16.7 401.3 17.6 402.9 17.6 C 404 17.6 405 17.2 405.4 16.1 C 405.4 16.1 407.9 16.1 407.9 16.1 C 407.4 18.7 405.1 20 402.8 20 C 400 20 397.2 18.1 397.2 14 C 397.2 10 399.8 8 402.8 8 C 405.6 8 408 9.8 408 13.7 C 407.98 13.69 408 14.8 408 14.8 C 408 14.8 399.92 14.83 399.9 14.8 Z M 400 12.8 C 400 12.8 405.3 12.8 405.3 12.8 C 405.3 11.3 404.2 10.4 402.8 10.4 C 401.5 10.4 400.2 11.1 400 12.8 Z M 418.8 19.8 L 409 19.8 L 409 17.3 L 415.2 10.6 L 409.1 10.6 L 409.1 8.2 L 418.8 8.2 L 418.8 10.6 L 412.6 17.3 L 418.8 17.3 L 418.8 19.8 Z M 427.2 11.9 L 420.7 11.9 L 420.7 14.4 L 427.2 14.4 L 427.2 11.9 Z M 435.5 19.8 L 432.5 19.8 L 428.2 8.2 L 431.2 8.2 L 434 16.5 L 436.9 8.2 L 439.8 8.2 L 435.5 19.8 Z M 451.5 14 C 451.5 17.8 449.1 20 445.9 20 C 442.6 20 440.2 17.8 440.2 14 C 440.2 10.2 442.6 8 445.9 8 C 449.1 8 451.5 10.2 451.5 14 Z M 443.1 14 C 443.1 16.3 444.4 17.4 445.9 17.4 C 447.6 17.4 448.7 16.2 448.7 14 C 448.7 11.7 447.4 10.6 445.8 10.6 C 444.2 10.6 443.1 11.8 443.1 14 Z M 463.7 19.8 L 460.9 19.8 C 460.9 19.8 460.94 18.14 460.9 18.1 C 460.3 19.2 459.2 19.9 457.6 19.9 C 455.2 19.9 453.4 18.4 453.4 15.4 C 453.43 15.39 453.4 8.2 453.4 8.2 L 456.2 8.2 C 456.2 8.2 456.22 15.18 456.2 15.2 C 456.2 16.8 457 17.4 458.2 17.4 C 459.7 17.4 460.9 16.5 460.9 13.8 C 460.88 13.8 460.9 8.2 460.9 8.2 L 463.7 8.2 L 463.7 19.8 Z M 475.7 16.2 C 475.7 18.8 473.4 20 470.8 20 C 468.4 20 465.8 19 465.6 16.1 C 465.6 16.1 468.4 16.1 468.4 16.1 C 468.6 17.2 469.6 17.7 470.9 17.7 C 472.1 17.7 472.9 17.3 472.9 16.5 C 472.9 15.7 472.4 15.6 470.8 15.3 C 468.5 14.9 465.9 14.5 465.9 11.7 C 465.9 9.1 468.1 8 470.5 8 C 473.2 8 475.2 9.3 475.4 11.9 C 475.4 11.9 472.7 11.9 472.7 11.9 C 472.6 10.8 471.7 10.3 470.6 10.3 C 469.2 10.3 468.6 10.9 468.6 11.6 C 468.6 12.5 469.7 12.7 471.1 12.9 C 473.1 13.2 475.7 13.5 475.7 16.2 Z " stroke="none" fill="#000"/>  </g></svg>