<?xml version="1.0" standalone="no"?><!DOCTYPE svg PUBLIC "-//W3C//DTD SVG 1.1//EN" "http://www.w3.org/Graphics/SVG/1.1/DTD/svg11.dtd"><svg xmlns="http://www.w3.org/2000/svg" version="1.1" width="346px" height="198.4px" viewBox="0 -4 346 198.4" style="top:-4px">  <desc>Look Bottom-Up to Find True Value Specific to us in Vontobel: we re bottom-up investors and given how challenging the</desc>  <defs/>  <g id="Polygon11897">    <path d="M 13 181 L 11.4 181 L 8.5 172 L 5.6 181 L 4.1 181 L 0.4 169.7 L 2 169.7 L 4.9 179 L 7.7 169.7 L 9.3 169.7 L 12.2 179 L 15.1 169.7 L 16.6 169.7 L 13 181 Z M 19.3 175.7 C 19.3 178.5 21.1 179.8 23.1 179.8 C 24.5 179.8 26 179.1 26.4 177.5 C 26.4 177.5 27.8 177.5 27.8 177.5 C 27.3 180.1 25.1 181.2 23 181.2 C 20.3 181.2 17.8 179.4 17.8 175.4 C 17.8 171.3 20.3 169.5 23 169.5 C 25.7 169.5 27.9 171.2 27.9 175 C 27.89 174.95 27.9 175.7 27.9 175.7 C 27.9 175.7 19.3 175.71 19.3 175.7 Z M 19.3 174.4 C 19.3 174.4 26.3 174.4 26.3 174.4 C 26.3 172.1 24.9 170.9 23 170.9 C 21.2 170.9 19.6 172 19.3 174.4 Z M 40.7 181 C 40.7 181 39.04 180.98 39 181 C 37.5 181 36.2 180.5 36.2 178 C 36.2 178.02 36.2 171.1 36.2 171.1 L 34 171.1 L 34 169.7 L 36.2 169.7 L 36.2 166.5 L 37.7 166.1 L 37.7 169.7 L 40.5 169.7 L 40.5 171.1 L 37.7 171.1 C 37.7 171.1 37.74 178 37.7 178 C 37.7 179 38 179.6 39.3 179.6 C 39.29 179.6 40.7 179.6 40.7 179.6 L 40.7 181 Z M 52.1 173.3 C 52.06 173.25 52.1 181 52.1 181 L 50.5 181 C 50.5 181 50.53 173.44 50.5 173.4 C 50.5 171.9 49.6 170.9 48 170.9 C 46.1 170.9 44.4 172.3 44.4 175.1 C 44.44 175.06 44.4 181 44.4 181 L 42.9 181 L 42.9 165 L 44.4 165 C 44.4 165 44.44 171.68 44.4 171.7 C 45.1 170.4 46.3 169.5 48.3 169.5 C 50.6 169.5 52.1 170.8 52.1 173.3 Z M 57 165 L 55.2 165 L 55.2 166.9 L 57 166.9 L 57 165 Z M 56.8 181 L 55.3 181 L 55.3 169.7 L 56.8 169.7 L 56.8 181 Z M 69.4 173.3 C 69.36 173.25 69.4 181 69.4 181 L 67.8 181 C 67.8 181 67.83 173.44 67.8 173.4 C 67.8 171.9 66.9 170.9 65.4 170.9 C 63.4 170.9 61.7 172.3 61.7 175.1 C 61.74 175.06 61.7 181 61.7 181 L 60.2 181 L 60.2 169.7 L 61.7 169.7 C 61.7 169.7 61.74 171.8 61.7 171.8 C 62.4 170.5 63.7 169.5 65.6 169.5 C 67.9 169.5 69.4 170.8 69.4 173.3 Z M 76.2 175.5 L 74.2 177.6 L 74.2 181 L 72.6 181 L 72.6 165 L 74.2 165 L 74.2 175.7 L 79.7 169.7 L 81.7 169.7 L 77.2 174.4 L 82 181 L 80.1 181 L 76.2 175.5 Z M 94.4 181 C 94.4 181 92.74 180.98 92.7 181 C 91.2 181 89.9 180.5 89.9 178 C 89.9 178.02 89.9 171.1 89.9 171.1 L 87.7 171.1 L 87.7 169.7 L 89.9 169.7 L 89.9 166.5 L 91.4 166.1 L 91.4 169.7 L 94.2 169.7 L 94.2 171.1 L 91.4 171.1 C 91.4 171.1 91.43 178 91.4 178 C 91.4 179 91.7 179.6 93 179.6 C 92.99 179.6 94.4 179.6 94.4 179.6 L 94.4 181 Z M 105.8 173.3 C 105.75 173.25 105.8 181 105.8 181 L 104.2 181 C 104.2 181 104.22 173.44 104.2 173.4 C 104.2 171.9 103.3 170.9 101.7 170.9 C 99.8 170.9 98.1 172.3 98.1 175.1 C 98.13 175.06 98.1 181 98.1 181 L 96.6 181 L 96.6 165 L 98.1 165 C 98.1 165 98.13 171.68 98.1 171.7 C 98.8 170.4 100 169.5 102 169.5 C 104.3 169.5 105.8 170.8 105.8 173.3 Z M 115.9 178.9 C 115.1 180.6 113.4 181.2 111.9 181.2 C 110 181.2 108.3 180.1 108.3 177.9 C 108.3 175.8 109.8 174.8 111.7 174.6 C 111.7 174.6 114.4 174.2 114.4 174.2 C 115.2 174.1 115.9 173.8 115.9 172.8 C 115.9 171.5 114.8 170.8 113.2 170.8 C 111.5 170.8 110.5 171.6 110.2 172.9 C 110.2 172.9 108.7 172.9 108.7 172.9 C 109 170.6 110.8 169.5 113.3 169.5 C 115.9 169.5 117.4 170.7 117.4 173.2 C 117.43 173.19 117.4 181 117.4 181 L 115.9 181 C 115.9 181 115.94 178.92 115.9 178.9 Z M 114.1 175.5 C 114.1 175.5 112.3 175.7 112.3 175.7 C 110.9 175.9 109.8 176.4 109.8 177.8 C 109.8 179.2 110.9 179.8 112.2 179.8 C 113.9 179.8 115.9 178.5 115.9 176.1 C 115.9 176.1 115.9 175 115.9 175 C 115.5 175.3 114.8 175.4 114.1 175.5 Z M 125.7 181 C 125.7 181 124.07 180.98 124.1 181 C 122.6 181 121.2 180.5 121.2 178 C 121.23 178.02 121.2 171.1 121.2 171.1 L 119 171.1 L 119 169.7 L 121.2 169.7 L 121.2 166.5 L 122.8 166.1 L 122.8 169.7 L 125.5 169.7 L 125.5 171.1 L 122.8 171.1 C 122.8 171.1 122.76 178 122.8 178 C 122.8 179 123.1 179.6 124.3 179.6 C 124.32 179.6 125.7 179.6 125.7 179.6 L 125.7 181 Z M 144.2 181 L 142.7 181 L 139.8 172 L 136.9 181 L 135.4 181 L 131.7 169.7 L 133.3 169.7 L 136.2 179 L 139 169.7 L 140.6 169.7 L 143.5 179 L 146.3 169.7 L 147.9 169.7 L 144.2 181 Z M 151.7 165 L 149.9 165 L 149.9 166.9 L 151.7 166.9 L 151.7 165 Z M 151.6 181 L 150 181 L 150 169.7 L 151.6 169.7 L 151.6 181 Z M 156.4 181 L 154.9 181 L 154.9 165 L 156.4 165 L 156.4 181 Z M 161.3 181 L 159.8 181 L 159.8 165 L 161.3 165 L 161.3 181 Z M 174.4 181.2 C 171.3 181.2 169.2 178.9 169.2 175.4 C 169.2 171.8 171.3 169.5 174.6 169.5 C 177.1 169.5 179.1 170.9 179.2 173.4 C 179.2 173.4 177.7 173.4 177.7 173.4 C 177.6 171.8 176.2 170.9 174.5 170.9 C 172.3 170.9 170.8 172.6 170.8 175.3 C 170.8 178.1 172.3 179.8 174.5 179.8 C 176.2 179.8 177.6 178.8 177.7 177 C 177.7 177 179.2 177 179.2 177 C 179.1 179.7 176.9 181.2 174.4 181.2 Z M 181.1 175.4 C 181.1 171.7 183.3 169.5 186.5 169.5 C 189.6 169.5 191.8 171.7 191.8 175.4 C 191.8 179 189.6 181.2 186.5 181.2 C 183.4 181.2 181.1 179 181.1 175.4 Z M 190.2 175.3 C 190.2 172.5 188.5 170.9 186.4 170.9 C 184.2 170.9 182.7 172.6 182.7 175.4 C 182.7 178.2 184.4 179.8 186.5 179.8 C 188.7 179.8 190.2 178.1 190.2 175.3 Z M 203.6 173.3 C 203.59 173.25 203.6 181 203.6 181 L 202.1 181 C 202.1 181 202.06 173.44 202.1 173.4 C 202.1 171.9 201.2 170.9 199.6 170.9 C 197.6 170.9 196 172.3 196 175.1 C 195.97 175.06 196 181 196 181 L 194.4 181 L 194.4 169.7 L 196 169.7 C 196 169.7 195.97 171.8 196 171.8 C 196.6 170.5 197.9 169.5 199.9 169.5 C 202.1 169.5 203.6 170.8 203.6 173.3 Z M 212 181 C 212 181 210.33 180.98 210.3 181 C 208.8 181 207.5 180.5 207.5 178 C 207.5 178.02 207.5 171.1 207.5 171.1 L 205.3 171.1 L 205.3 169.7 L 207.5 169.7 L 207.5 166.5 L 209 166.1 L 209 169.7 L 211.8 169.7 L 211.8 171.1 L 209 171.1 C 209 171.1 209.03 178 209 178 C 209 179 209.3 179.6 210.6 179.6 C 210.58 179.6 212 179.6 212 179.6 L 212 181 Z M 215.8 165 L 214.1 165 L 214.1 166.9 L 215.8 166.9 L 215.8 165 Z M 215.7 181 L 214.2 181 L 214.2 169.7 L 215.7 169.7 L 215.7 181 Z M 228.2 173.3 C 228.25 173.25 228.2 181 228.2 181 L 226.7 181 C 226.7 181 226.71 173.44 226.7 173.4 C 226.7 171.9 225.8 170.9 224.2 170.9 C 222.3 170.9 220.6 172.3 220.6 175.1 C 220.62 175.06 220.6 181 220.6 181 L 219.1 181 L 219.1 169.7 L 220.6 169.7 C 220.6 169.7 220.62 171.8 220.6 171.8 C 221.3 170.5 222.6 169.5 224.5 169.5 C 226.8 169.5 228.2 170.8 228.2 173.3 Z M 238.9 181 C 238.9 181 238.91 178.84 238.9 178.8 C 238.1 180.4 236.8 181.1 235.2 181.1 C 233 181.1 231.4 179.8 231.4 177.2 C 231.4 177.16 231.4 169.7 231.4 169.7 L 232.9 169.7 C 232.9 169.7 232.93 176.97 232.9 177 C 232.9 178.8 233.9 179.8 235.4 179.8 C 237.2 179.8 238.9 178.4 238.9 175.5 C 238.85 175.54 238.9 169.7 238.9 169.7 L 240.4 169.7 L 240.4 181 L 238.9 181 Z M 244.5 175.7 C 244.6 178.5 246.3 179.8 248.3 179.8 C 249.8 179.8 251.2 179.1 251.6 177.5 C 251.6 177.5 253 177.5 253 177.5 C 252.5 180.1 250.3 181.2 248.2 181.2 C 245.5 181.2 243 179.4 243 175.4 C 243 171.3 245.5 169.5 248.3 169.5 C 250.9 169.5 253.1 171.2 253.1 175 C 253.11 174.95 253.1 175.7 253.1 175.7 C 253.1 175.7 244.52 175.71 244.5 175.7 Z M 244.6 174.4 C 244.6 174.4 251.6 174.4 251.6 174.4 C 251.6 172.1 250.1 170.9 248.2 170.9 C 246.4 170.9 244.8 172 244.6 174.4 Z M 255 178.8 L 257.1 178.8 L 257.1 181 L 255 181 L 255 178.8 Z " stroke="none" fill="#000"/>  </g>  <g id="Polygon11896">    <path d="M 3.3 139.8 L 1.6 139.8 L 1.6 141.7 L 3.3 141.7 L 3.3 139.8 Z M 3.2 155.8 L 1.7 155.8 L 1.7 144.5 L 3.2 144.5 L 3.2 155.8 Z M 15.7 148.1 C 15.73 148.05 15.7 155.8 15.7 155.8 L 14.2 155.8 C 14.2 155.8 14.2 148.24 14.2 148.2 C 14.2 146.7 13.3 145.7 11.7 145.7 C 9.8 145.7 8.1 147.1 8.1 149.9 C 8.11 149.86 8.1 155.8 8.1 155.8 L 6.6 155.8 L 6.6 144.5 L 8.1 144.5 C 8.1 144.5 8.11 146.6 8.1 146.6 C 8.8 145.3 10 144.3 12 144.3 C 14.3 144.3 15.7 145.6 15.7 148.1 Z M 23.5 155.8 L 21.8 155.8 L 17.6 144.5 L 19.3 144.5 L 22.7 154.2 L 26.1 144.5 L 27.7 144.5 L 23.5 155.8 Z M 30.2 150.5 C 30.3 153.3 32 154.6 34 154.6 C 35.5 154.6 36.9 153.9 37.3 152.3 C 37.3 152.3 38.7 152.3 38.7 152.3 C 38.2 154.9 36 156 33.9 156 C 31.2 156 28.7 154.2 28.7 150.2 C 28.7 146.1 31.2 144.3 34 144.3 C 36.6 144.3 38.8 146 38.8 149.8 C 38.81 149.75 38.8 150.5 38.8 150.5 C 38.8 150.5 30.22 150.51 30.2 150.5 Z M 30.3 149.2 C 30.3 149.2 37.3 149.2 37.3 149.2 C 37.3 146.9 35.8 145.7 33.9 145.7 C 32.1 145.7 30.5 146.8 30.3 149.2 Z M 49.8 152.6 C 49.8 154.9 47.7 156 45.5 156 C 43 156 40.8 154.8 40.6 152.3 C 40.6 152.3 42.2 152.3 42.2 152.3 C 42.5 154 44 154.6 45.5 154.6 C 46.9 154.6 48.2 154.1 48.2 152.8 C 48.2 151.5 46.9 151.2 45.6 151 C 43.4 150.6 40.9 150.2 40.9 147.6 C 40.9 145.4 42.8 144.3 45.1 144.3 C 47.5 144.3 49.4 145.4 49.5 147.7 C 49.5 147.7 47.9 147.7 47.9 147.7 C 47.8 146.3 46.5 145.7 45 145.7 C 43.5 145.7 42.5 146.4 42.5 147.5 C 42.5 149 43.8 149.2 45.5 149.5 C 47.6 149.8 49.8 150.1 49.8 152.6 Z M 57.5 155.8 C 57.5 155.8 55.82 155.78 55.8 155.8 C 54.3 155.8 53 155.3 53 152.8 C 52.98 152.82 53 145.9 53 145.9 L 50.8 145.9 L 50.8 144.5 L 53 144.5 L 53 141.3 L 54.5 140.9 L 54.5 144.5 L 57.2 144.5 L 57.2 145.9 L 54.5 145.9 C 54.5 145.9 54.52 152.8 54.5 152.8 C 54.5 153.8 54.8 154.4 56.1 154.4 C 56.07 154.4 57.5 154.4 57.5 154.4 L 57.5 155.8 Z M 58.9 150.2 C 58.9 146.5 61.2 144.3 64.3 144.3 C 67.4 144.3 69.6 146.5 69.6 150.2 C 69.6 153.8 67.4 156 64.3 156 C 61.2 156 58.9 153.8 58.9 150.2 Z M 68.1 150.1 C 68.1 147.3 66.4 145.7 64.3 145.7 C 62.1 145.7 60.5 147.4 60.5 150.2 C 60.5 153 62.2 154.6 64.3 154.6 C 66.5 154.6 68.1 152.9 68.1 150.1 Z M 77.9 145.8 C 77.9 145.8 77.53 145.83 77.5 145.8 C 75.1 145.8 73.8 147.2 73.8 149.8 C 73.79 149.8 73.8 155.8 73.8 155.8 L 72.3 155.8 L 72.3 144.5 L 73.8 144.5 C 73.8 144.5 73.77 146.58 73.8 146.6 C 74.3 145.1 75.7 144.4 77.4 144.4 C 77.41 144.38 77.9 144.4 77.9 144.4 L 77.9 145.8 Z M 88.3 152.6 C 88.3 154.9 86.2 156 83.9 156 C 81.5 156 79.3 154.8 79 152.3 C 79 152.3 80.7 152.3 80.7 152.3 C 80.9 154 82.4 154.6 83.9 154.6 C 85.4 154.6 86.7 154.1 86.7 152.8 C 86.7 151.5 85.4 151.2 84 151 C 81.9 150.6 79.3 150.2 79.3 147.6 C 79.3 145.4 81.2 144.3 83.6 144.3 C 86 144.3 87.8 145.4 88 147.7 C 88 147.7 86.4 147.7 86.4 147.7 C 86.3 146.3 85 145.7 83.5 145.7 C 82 145.7 80.9 146.4 80.9 147.5 C 80.9 149 82.3 149.2 84 149.5 C 86 149.8 88.3 150.1 88.3 152.6 Z M 101 155.8 C 101 155.8 99.31 155.78 99.3 155.8 C 97.8 155.8 96.5 155.3 96.5 152.8 C 96.47 152.82 96.5 145.9 96.5 145.9 L 94.2 145.9 L 94.2 144.5 L 96.5 144.5 L 96.5 141.3 L 98 140.9 L 98 144.5 L 100.7 144.5 L 100.7 145.9 L 98 145.9 C 98 145.9 98.01 152.8 98 152.8 C 98 153.8 98.3 154.4 99.6 154.4 C 99.56 154.4 101 154.4 101 154.4 L 101 155.8 Z M 112.3 148.1 C 112.33 148.05 112.3 155.8 112.3 155.8 L 110.8 155.8 C 110.8 155.8 110.79 148.24 110.8 148.2 C 110.8 146.7 109.9 145.7 108.3 145.7 C 106.4 145.7 104.7 147.1 104.7 149.9 C 104.7 149.86 104.7 155.8 104.7 155.8 L 103.2 155.8 L 103.2 139.8 L 104.7 139.8 C 104.7 139.8 104.7 146.48 104.7 146.5 C 105.4 145.2 106.6 144.3 108.6 144.3 C 110.9 144.3 112.3 145.6 112.3 148.1 Z M 122.5 153.7 C 121.6 155.4 119.9 156 118.5 156 C 116.6 156 114.8 154.9 114.8 152.7 C 114.8 150.6 116.3 149.6 118.3 149.4 C 118.3 149.4 120.9 149 120.9 149 C 121.8 148.9 122.5 148.6 122.5 147.6 C 122.5 146.3 121.4 145.6 119.8 145.6 C 118.1 145.6 117.1 146.4 116.8 147.7 C 116.8 147.7 115.3 147.7 115.3 147.7 C 115.6 145.4 117.4 144.3 119.9 144.3 C 122.4 144.3 124 145.5 124 148 C 124 147.99 124 155.8 124 155.8 L 122.5 155.8 C 122.5 155.8 122.51 153.72 122.5 153.7 Z M 120.6 150.3 C 120.6 150.3 118.9 150.5 118.9 150.5 C 117.5 150.7 116.4 151.2 116.4 152.6 C 116.4 154 117.5 154.6 118.8 154.6 C 120.5 154.6 122.5 153.3 122.5 150.9 C 122.5 150.9 122.5 149.8 122.5 149.8 C 122.1 150.1 121.4 150.2 120.6 150.3 Z M 132.3 155.8 C 132.3 155.8 130.64 155.78 130.6 155.8 C 129.1 155.8 127.8 155.3 127.8 152.8 C 127.8 152.82 127.8 145.9 127.8 145.9 L 125.6 145.9 L 125.6 144.5 L 127.8 144.5 L 127.8 141.3 L 129.3 140.9 L 129.3 144.5 L 132.1 144.5 L 132.1 145.9 L 129.3 145.9 C 129.3 145.9 129.34 152.8 129.3 152.8 C 129.3 153.8 129.6 154.4 130.9 154.4 C 130.89 154.4 132.3 154.4 132.3 154.4 L 132.3 155.8 Z M 149.1 148.1 C 149.12 148.05 149.1 155.8 149.1 155.8 L 147.6 155.8 C 147.6 155.8 147.59 148.24 147.6 148.2 C 147.6 146.7 146.7 145.7 145.1 145.7 C 143.2 145.7 141.5 147.1 141.5 149.9 C 141.5 149.86 141.5 155.8 141.5 155.8 L 140 155.8 L 140 139.8 L 141.5 139.8 C 141.5 139.8 141.5 146.48 141.5 146.5 C 142.1 145.2 143.4 144.3 145.4 144.3 C 147.7 144.3 149.1 145.6 149.1 148.1 Z M 159.3 153.7 C 158.4 155.4 156.7 156 155.3 156 C 153.4 156 151.6 154.9 151.6 152.7 C 151.6 150.6 153.1 149.6 155.1 149.4 C 155.1 149.4 157.7 149 157.7 149 C 158.6 148.9 159.3 148.6 159.3 147.6 C 159.3 146.3 158.1 145.6 156.6 145.6 C 154.9 145.6 153.8 146.4 153.6 147.7 C 153.6 147.7 152.1 147.7 152.1 147.7 C 152.4 145.4 154.2 144.3 156.7 144.3 C 159.2 144.3 160.8 145.5 160.8 148 C 160.79 147.99 160.8 155.8 160.8 155.8 L 159.3 155.8 C 159.3 155.8 159.3 153.72 159.3 153.7 Z M 157.4 150.3 C 157.4 150.3 155.7 150.5 155.7 150.5 C 154.3 150.7 153.2 151.2 153.2 152.6 C 153.2 154 154.3 154.6 155.5 154.6 C 157.3 154.6 159.3 153.3 159.3 150.9 C 159.3 150.9 159.3 149.8 159.3 149.8 C 158.8 150.1 158.2 150.2 157.4 150.3 Z M 168.4 155.8 L 166.8 155.8 L 162.6 144.5 L 164.2 144.5 L 167.6 154.2 L 171 144.5 L 172.6 144.5 L 168.4 155.8 Z M 175.2 150.5 C 175.2 153.3 176.9 154.6 178.9 154.6 C 180.4 154.6 181.9 153.9 182.2 152.3 C 182.2 152.3 183.7 152.3 183.7 152.3 C 183.2 154.9 181 156 178.9 156 C 176.2 156 173.7 154.2 173.7 150.2 C 173.7 146.1 176.2 144.3 178.9 144.3 C 181.6 144.3 183.8 146 183.8 149.8 C 183.77 149.75 183.8 150.5 183.8 150.5 C 183.8 150.5 175.18 150.51 175.2 150.5 Z M 175.2 149.2 C 175.2 149.2 182.2 149.2 182.2 149.2 C 182.2 146.9 180.7 145.7 178.9 145.7 C 177.1 145.7 175.4 146.8 175.2 149.2 Z M 201 155.8 L 199.6 155.8 C 199.6 155.8 199.56 153.6 199.6 153.6 C 199 154.9 197.7 156 195.6 156 C 192.6 156 190.5 153.7 190.5 150.1 C 190.5 146.6 192.6 144.3 195.6 144.3 C 197.5 144.3 198.9 145.2 199.5 146.4 C 199.5 146.42 199.5 139.8 199.5 139.8 L 201 139.8 L 201 155.8 Z M 199.5 150.1 C 199.5 147.3 197.9 145.7 195.8 145.7 C 193.6 145.7 192.1 147.4 192.1 150.1 C 192.1 152.9 193.6 154.6 195.8 154.6 C 197.9 154.6 199.5 152.9 199.5 150.1 Z M 203.7 150.2 C 203.7 146.5 205.9 144.3 209 144.3 C 212.1 144.3 214.3 146.5 214.3 150.2 C 214.3 153.8 212.1 156 209 156 C 205.9 156 203.7 153.8 203.7 150.2 Z M 212.8 150.1 C 212.8 147.3 211.1 145.7 209 145.7 C 206.8 145.7 205.2 147.4 205.2 150.2 C 205.2 153 206.9 154.6 209 154.6 C 211.2 154.6 212.8 152.9 212.8 150.1 Z M 226.1 148.1 C 226.13 148.05 226.1 155.8 226.1 155.8 L 224.6 155.8 C 224.6 155.8 224.59 148.24 224.6 148.2 C 224.6 146.7 223.7 145.7 222.1 145.7 C 220.2 145.7 218.5 147.1 218.5 149.9 C 218.5 149.86 218.5 155.8 218.5 155.8 L 217 155.8 L 217 144.5 L 218.5 144.5 C 218.5 144.5 218.5 146.6 218.5 146.6 C 219.2 145.3 220.4 144.3 222.4 144.3 C 224.7 144.3 226.1 145.6 226.1 148.1 Z M 230.2 150.5 C 230.2 153.3 231.9 154.6 233.9 154.6 C 235.4 154.6 236.9 153.9 237.2 152.3 C 237.2 152.3 238.7 152.3 238.7 152.3 C 238.2 154.9 236 156 233.8 156 C 231.1 156 228.6 154.2 228.6 150.2 C 228.6 146.1 231.2 144.3 233.9 144.3 C 236.6 144.3 238.7 146 238.7 149.8 C 238.75 149.75 238.7 150.5 238.7 150.5 C 238.7 150.5 230.16 150.51 230.2 150.5 Z M 230.2 149.2 C 230.2 149.2 237.2 149.2 237.2 149.2 C 237.2 146.9 235.7 145.7 233.8 145.7 C 232.1 145.7 230.4 146.8 230.2 149.2 Z M 257.5 155.8 L 256 155.8 L 253 146.8 L 250.1 155.8 L 248.6 155.8 L 244.9 144.5 L 246.5 144.5 L 249.4 153.8 L 252.3 144.5 L 253.8 144.5 L 256.8 153.8 L 259.6 144.5 L 261.2 144.5 L 257.5 155.8 Z M 263.8 150.5 C 263.9 153.3 265.6 154.6 267.6 154.6 C 269.1 154.6 270.5 153.9 270.9 152.3 C 270.9 152.3 272.3 152.3 272.3 152.3 C 271.8 154.9 269.6 156 267.5 156 C 264.8 156 262.3 154.2 262.3 150.2 C 262.3 146.1 264.9 144.3 267.6 144.3 C 270.2 144.3 272.4 146 272.4 149.8 C 272.41 149.75 272.4 150.5 272.4 150.5 C 272.4 150.5 263.82 150.51 263.8 150.5 Z M 263.9 149.2 C 263.9 149.2 270.9 149.2 270.9 149.2 C 270.9 146.9 269.4 145.7 267.5 145.7 C 265.7 145.7 264.1 146.8 263.9 149.2 Z M 276.6 155.8 L 275 155.8 L 275 139.8 L 276.6 139.8 L 276.6 155.8 Z M 281.5 155.8 L 279.9 155.8 L 279.9 139.8 L 281.5 139.8 L 281.5 155.8 Z M 297.4 153.7 C 296.5 155.4 294.8 156 293.4 156 C 291.5 156 289.8 154.9 289.8 152.7 C 289.8 150.6 291.2 149.6 293.2 149.4 C 293.2 149.4 295.8 149 295.8 149 C 296.7 148.9 297.4 148.6 297.4 147.6 C 297.4 146.3 296.3 145.6 294.7 145.6 C 293 145.6 292 146.4 291.7 147.7 C 291.7 147.7 290.2 147.7 290.2 147.7 C 290.5 145.4 292.3 144.3 294.8 144.3 C 297.4 144.3 298.9 145.5 298.9 148 C 298.91 147.99 298.9 155.8 298.9 155.8 L 297.4 155.8 C 297.4 155.8 297.42 153.72 297.4 153.7 Z M 295.6 150.3 C 295.6 150.3 293.8 150.5 293.8 150.5 C 292.4 150.7 291.3 151.2 291.3 152.6 C 291.3 154 292.4 154.6 293.7 154.6 C 295.4 154.6 297.4 153.3 297.4 150.9 C 297.4 150.9 297.4 149.8 297.4 149.8 C 297 150.1 296.3 150.2 295.6 150.3 Z M 311.2 148.1 C 311.22 148.05 311.2 155.8 311.2 155.8 L 309.7 155.8 C 309.7 155.8 309.68 148.24 309.7 148.2 C 309.7 146.7 308.8 145.7 307.2 145.7 C 305.3 145.7 303.6 147.1 303.6 149.9 C 303.59 149.86 303.6 155.8 303.6 155.8 L 302.1 155.8 L 302.1 144.5 L 303.6 144.5 C 303.6 144.5 303.59 146.6 303.6 146.6 C 304.3 145.3 305.5 144.3 307.5 144.3 C 309.7 144.3 311.2 145.6 311.2 148.1 Z M 324.3 155.8 L 322.8 155.8 C 322.8 155.8 322.81 153.6 322.8 153.6 C 322.3 154.9 320.9 156 318.8 156 C 315.8 156 313.7 153.7 313.7 150.1 C 313.7 146.6 315.8 144.3 318.8 144.3 C 320.7 144.3 322.1 145.2 322.7 146.4 C 322.75 146.42 322.7 139.8 322.7 139.8 L 324.3 139.8 L 324.3 155.8 Z M 322.7 150.1 C 322.7 147.3 321.2 145.7 319 145.7 C 316.8 145.7 315.3 147.4 315.3 150.1 C 315.3 152.9 316.8 154.6 319 154.6 C 321.2 154.6 322.7 152.9 322.7 150.1 Z " stroke="none" fill="#000"/>  </g>  <g id="Polygon11895">    <path d="M 10.1 127.4 C 10.1 129.7 8 130.8 5.7 130.8 C 3.3 130.8 1.1 129.6 0.8 127.1 C 0.8 127.1 2.5 127.1 2.5 127.1 C 2.7 128.8 4.2 129.4 5.7 129.4 C 7.2 129.4 8.5 128.9 8.5 127.6 C 8.5 126.3 7.2 126 5.8 125.8 C 3.7 125.4 1.1 125 1.1 122.4 C 1.1 120.2 3 119.1 5.4 119.1 C 7.7 119.1 9.6 120.2 9.8 122.5 C 9.8 122.5 8.2 122.5 8.2 122.5 C 8.1 121.1 6.8 120.5 5.3 120.5 C 3.8 120.5 2.7 121.2 2.7 122.3 C 2.7 123.8 4.1 124 5.8 124.3 C 7.8 124.6 10.1 124.9 10.1 127.4 Z M 14.2 114.6 L 12.5 114.6 L 12.5 116.5 L 14.2 116.5 L 14.2 114.6 Z M 14.1 130.6 L 12.6 130.6 L 12.6 119.3 L 14.1 119.3 L 14.1 130.6 Z M 22.6 130.6 C 22.6 130.6 20.96 130.58 21 130.6 C 19.5 130.6 18.1 130.1 18.1 127.6 C 18.12 127.62 18.1 120.7 18.1 120.7 L 15.9 120.7 L 15.9 119.3 L 18.1 119.3 L 18.1 116.1 L 19.7 115.7 L 19.7 119.3 L 22.4 119.3 L 22.4 120.7 L 19.7 120.7 C 19.7 120.7 19.66 127.6 19.7 127.6 C 19.7 128.6 19.9 129.2 21.2 129.2 C 21.21 129.2 22.6 129.2 22.6 129.2 L 22.6 130.6 Z M 32.2 130.6 C 32.2 130.6 32.23 128.44 32.2 128.4 C 31.5 130 30.1 130.7 28.5 130.7 C 26.4 130.7 24.7 129.4 24.7 126.8 C 24.72 126.76 24.7 119.3 24.7 119.3 L 26.2 119.3 C 26.2 119.3 26.25 126.57 26.2 126.6 C 26.2 128.4 27.3 129.4 28.7 129.4 C 30.6 129.4 32.2 128 32.2 125.1 C 32.17 125.14 32.2 119.3 32.2 119.3 L 33.7 119.3 L 33.7 130.6 L 32.2 130.6 Z M 44 128.5 C 43.1 130.2 41.4 130.8 40 130.8 C 38.1 130.8 36.3 129.7 36.3 127.5 C 36.3 125.4 37.8 124.4 39.8 124.2 C 39.8 124.2 42.4 123.8 42.4 123.8 C 43.3 123.7 44 123.4 44 122.4 C 44 121.1 42.8 120.4 41.3 120.4 C 39.6 120.4 38.5 121.2 38.3 122.5 C 38.3 122.5 36.8 122.5 36.8 122.5 C 37.1 120.2 38.9 119.1 41.4 119.1 C 43.9 119.1 45.5 120.3 45.5 122.8 C 45.49 122.79 45.5 130.6 45.5 130.6 L 44 130.6 C 44 130.6 43.99 128.52 44 128.5 Z M 42.1 125.1 C 42.1 125.1 40.4 125.3 40.4 125.3 C 39 125.5 37.9 126 37.9 127.4 C 37.9 128.8 39 129.4 40.2 129.4 C 42 129.4 44 128.1 44 125.7 C 44 125.7 44 124.6 44 124.6 C 43.5 124.9 42.9 125 42.1 125.1 Z M 53.8 130.6 C 53.8 130.6 52.12 130.58 52.1 130.6 C 50.6 130.6 49.3 130.1 49.3 127.6 C 49.29 127.62 49.3 120.7 49.3 120.7 L 47.1 120.7 L 47.1 119.3 L 49.3 119.3 L 49.3 116.1 L 50.8 115.7 L 50.8 119.3 L 53.5 119.3 L 53.5 120.7 L 50.8 120.7 C 50.8 120.7 50.82 127.6 50.8 127.6 C 50.8 128.6 51.1 129.2 52.4 129.2 C 52.37 129.2 53.8 129.2 53.8 129.2 L 53.8 130.6 Z M 57.6 114.6 L 55.9 114.6 L 55.9 116.5 L 57.6 116.5 L 57.6 114.6 Z M 57.5 130.6 L 56 130.6 L 56 119.3 L 57.5 119.3 L 57.5 130.6 Z M 60.1 125 C 60.1 121.3 62.4 119.1 65.5 119.1 C 68.6 119.1 70.8 121.3 70.8 125 C 70.8 128.6 68.6 130.8 65.5 130.8 C 62.4 130.8 60.1 128.6 60.1 125 Z M 69.3 124.9 C 69.3 122.1 67.6 120.5 65.5 120.5 C 63.3 120.5 61.7 122.2 61.7 125 C 61.7 127.8 63.4 129.4 65.5 129.4 C 67.7 129.4 69.3 127.7 69.3 124.9 Z M 82.6 122.9 C 82.61 122.85 82.6 130.6 82.6 130.6 L 81.1 130.6 C 81.1 130.6 81.08 123.04 81.1 123 C 81.1 121.5 80.2 120.5 78.6 120.5 C 76.7 120.5 75 121.9 75 124.7 C 74.99 124.66 75 130.6 75 130.6 L 73.5 130.6 L 73.5 119.3 L 75 119.3 C 75 119.3 74.99 121.4 75 121.4 C 75.7 120.1 76.9 119.1 78.9 119.1 C 81.1 119.1 82.6 120.4 82.6 122.9 Z M 100.7 122.9 C 100.69 122.85 100.7 130.6 100.7 130.6 L 99.2 130.6 C 99.2 130.6 99.16 123.04 99.2 123 C 99.2 121.5 98.3 120.5 96.7 120.5 C 94.8 120.5 93.1 121.9 93.1 124.7 C 93.07 124.66 93.1 130.6 93.1 130.6 L 91.5 130.6 L 91.5 114.6 L 93.1 114.6 C 93.1 114.6 93.07 121.28 93.1 121.3 C 93.7 120 94.9 119.1 96.9 119.1 C 99.2 119.1 100.7 120.4 100.7 122.9 Z M 110.9 128.5 C 110 130.2 108.3 130.8 106.9 130.8 C 104.9 130.8 103.2 129.7 103.2 127.5 C 103.2 125.4 104.7 124.4 106.6 124.2 C 106.6 124.2 109.3 123.8 109.3 123.8 C 110.1 123.7 110.9 123.4 110.9 122.4 C 110.9 121.1 109.7 120.4 108.1 120.4 C 106.4 120.4 105.4 121.2 105.2 122.5 C 105.2 122.5 103.7 122.5 103.7 122.5 C 104 120.2 105.8 119.1 108.3 119.1 C 110.8 119.1 112.4 120.3 112.4 122.8 C 112.37 122.79 112.4 130.6 112.4 130.6 L 110.9 130.6 C 110.9 130.6 110.88 128.52 110.9 128.5 Z M 109 125.1 C 109 125.1 107.3 125.3 107.3 125.3 C 105.9 125.5 104.8 126 104.8 127.4 C 104.8 128.8 105.9 129.4 107.1 129.4 C 108.9 129.4 110.8 128.1 110.8 125.7 C 110.8 125.7 110.8 124.6 110.8 124.6 C 110.4 124.9 109.8 125 109 125.1 Z M 123.9 127.4 C 123.9 129.7 121.8 130.8 119.6 130.8 C 117.1 130.8 114.9 129.6 114.7 127.1 C 114.7 127.1 116.3 127.1 116.3 127.1 C 116.6 128.8 118 129.4 119.6 129.4 C 121 129.4 122.3 128.9 122.3 127.6 C 122.3 126.3 121 126 119.7 125.8 C 117.5 125.4 115 125 115 122.4 C 115 120.2 116.9 119.1 119.2 119.1 C 121.6 119.1 123.5 120.2 123.6 122.5 C 123.6 122.5 122 122.5 122 122.5 C 121.9 121.1 120.6 120.5 119.1 120.5 C 117.6 120.5 116.5 121.2 116.5 122.3 C 116.5 123.8 117.9 124 119.6 124.3 C 121.7 124.6 123.9 124.9 123.9 127.4 Z M 142.2 124.9 C 142.2 128.4 140.1 130.8 137.1 130.8 C 135.1 130.8 133.7 129.7 133.1 128.5 C 133.14 128.5 133.1 130.6 133.1 130.6 L 131.7 130.6 L 131.7 114.6 L 133.2 114.6 C 133.2 114.6 133.2 121.57 133.2 121.6 C 133.8 120.2 135.2 119.1 137.2 119.1 C 140.1 119.1 142.2 121.3 142.2 124.9 Z M 140.6 125 C 140.6 122.2 139.1 120.6 137 120.6 C 134.8 120.6 133.2 122.2 133.2 125 C 133.2 127.8 134.7 129.5 136.9 129.5 C 139.1 129.5 140.6 127.7 140.6 125 Z M 145.6 125.3 C 145.6 128.1 147.4 129.4 149.3 129.4 C 150.8 129.4 152.3 128.7 152.6 127.1 C 152.6 127.1 154.1 127.1 154.1 127.1 C 153.6 129.7 151.4 130.8 149.3 130.8 C 146.6 130.8 144.1 129 144.1 125 C 144.1 120.9 146.6 119.1 149.3 119.1 C 152 119.1 154.2 120.8 154.2 124.6 C 154.18 124.55 154.2 125.3 154.2 125.3 C 154.2 125.3 145.59 125.31 145.6 125.3 Z M 145.6 124 C 145.6 124 152.6 124 152.6 124 C 152.6 121.7 151.2 120.5 149.3 120.5 C 147.5 120.5 145.8 121.6 145.6 124 Z M 157.6 125.3 C 157.6 128.1 159.3 129.4 161.3 129.4 C 162.8 129.4 164.3 128.7 164.6 127.1 C 164.6 127.1 166.1 127.1 166.1 127.1 C 165.6 129.7 163.4 130.8 161.3 130.8 C 158.6 130.8 156.1 129 156.1 125 C 156.1 120.9 158.6 119.1 161.3 119.1 C 164 119.1 166.2 120.8 166.2 124.6 C 166.17 124.55 166.2 125.3 166.2 125.3 C 166.2 125.3 157.58 125.31 157.6 125.3 Z M 157.6 124 C 157.6 124 164.6 124 164.6 124 C 164.6 121.7 163.1 120.5 161.3 120.5 C 159.5 120.5 157.8 121.6 157.6 124 Z M 178 122.9 C 177.95 122.85 178 130.6 178 130.6 L 176.4 130.6 C 176.4 130.6 176.42 123.04 176.4 123 C 176.4 121.5 175.5 120.5 173.9 120.5 C 172 120.5 170.3 121.9 170.3 124.7 C 170.33 124.66 170.3 130.6 170.3 130.6 L 168.8 130.6 L 168.8 119.3 L 170.3 119.3 C 170.3 119.3 170.33 121.4 170.3 121.4 C 171 120.1 172.3 119.1 174.2 119.1 C 176.5 119.1 178 120.4 178 122.9 Z M 182.3 130.5 C 182.3 130.46 181.3 130.5 181.3 130.5 L 181.3 128.4 L 183.5 128.4 C 183.5 128.4 183.52 130.52 183.5 130.5 C 183.5 133 182 133.9 180.5 134 C 180.5 134 180.3 133.1 180.3 133.1 C 182 132.8 182.3 131.8 182.3 130.5 Z M 192.8 114.6 L 191.1 114.6 L 191.1 116.5 L 192.8 116.5 L 192.8 114.6 Z M 192.7 130.6 L 191.2 130.6 L 191.2 119.3 L 192.7 119.3 L 192.7 130.6 Z M 201.2 130.6 C 201.2 130.6 199.56 130.58 199.6 130.6 C 198.1 130.6 196.7 130.1 196.7 127.6 C 196.72 127.62 196.7 120.7 196.7 120.7 L 194.5 120.7 L 194.5 119.3 L 196.7 119.3 L 196.7 116.1 L 198.3 115.7 L 198.3 119.3 L 201 119.3 L 201 120.7 L 198.3 120.7 C 198.3 120.7 198.26 127.6 198.3 127.6 C 198.3 128.6 198.6 129.2 199.8 129.2 C 199.81 129.2 201.2 129.2 201.2 129.2 L 201.2 130.6 Z M 204.5 116.8 C 204.52 116.78 203.5 116.8 203.5 116.8 L 203.5 114.7 L 205.7 114.7 C 205.7 114.7 205.73 116.85 205.7 116.8 C 205.7 119.3 204.3 120.2 202.7 120.4 C 202.7 120.4 202.5 119.4 202.5 119.4 C 204.2 119.1 204.5 118.1 204.5 116.8 Z M 216.5 127.4 C 216.5 129.7 214.4 130.8 212.2 130.8 C 209.8 130.8 207.5 129.6 207.3 127.1 C 207.3 127.1 208.9 127.1 208.9 127.1 C 209.2 128.8 210.7 129.4 212.2 129.4 C 213.7 129.4 214.9 128.9 214.9 127.6 C 214.9 126.3 213.6 126 212.3 125.8 C 210.1 125.4 207.6 125 207.6 122.4 C 207.6 120.2 209.5 119.1 211.8 119.1 C 214.2 119.1 216.1 120.2 216.2 122.5 C 216.2 122.5 214.6 122.5 214.6 122.5 C 214.5 121.1 213.2 120.5 211.8 120.5 C 210.2 120.5 209.2 121.2 209.2 122.3 C 209.2 123.8 210.5 124 212.2 124.3 C 214.3 124.6 216.5 124.9 216.5 127.4 Z M 234.8 124.9 C 234.8 128.4 232.7 130.8 229.7 130.8 C 227.7 130.8 226.4 129.7 225.8 128.5 C 225.77 128.5 225.8 130.6 225.8 130.6 L 224.3 130.6 L 224.3 114.6 L 225.8 114.6 C 225.8 114.6 225.83 121.57 225.8 121.6 C 226.4 120.2 227.8 119.1 229.9 119.1 C 232.7 119.1 234.8 121.3 234.8 124.9 Z M 233.3 125 C 233.3 122.2 231.8 120.6 229.6 120.6 C 227.4 120.6 225.8 122.2 225.8 125 C 225.8 127.8 227.4 129.5 229.5 129.5 C 231.8 129.5 233.3 127.7 233.3 125 Z M 236.7 125 C 236.7 121.3 238.9 119.1 242 119.1 C 245.2 119.1 247.4 121.3 247.4 125 C 247.4 128.6 245.2 130.8 242.1 130.8 C 239 130.8 236.7 128.6 236.7 125 Z M 245.8 124.9 C 245.8 122.1 244.1 120.5 242 120.5 C 239.8 120.5 238.3 122.2 238.3 125 C 238.3 127.8 240 129.4 242.1 129.4 C 244.3 129.4 245.8 127.7 245.8 124.9 Z M 262.5 130.6 C 262.5 130.6 260.84 130.58 260.8 130.6 C 259.4 130.6 258 130.1 258 127.6 C 258 127.62 258 120.7 258 120.7 L 252.2 120.7 C 252.2 120.7 252.21 127.6 252.2 127.6 C 252.2 128.6 252.5 129.2 253.8 129.2 C 253.76 129.2 255.2 129.2 255.2 129.2 L 255.2 130.6 C 255.2 130.6 253.51 130.58 253.5 130.6 C 252 130.6 250.7 130.1 250.7 127.6 C 250.67 127.62 250.7 120.7 250.7 120.7 L 248.4 120.7 L 248.4 119.3 L 250.7 119.3 L 250.7 116.1 L 252.2 115.7 L 252.2 119.3 L 258 119.3 L 258 116.1 L 259.5 115.7 L 259.5 119.3 L 262.3 119.3 L 262.3 120.7 L 259.5 120.7 C 259.5 120.7 259.54 127.6 259.5 127.6 C 259.5 128.6 259.8 129.2 261.1 129.2 C 261.09 129.2 262.5 129.2 262.5 129.2 L 262.5 130.6 Z M 264 125 C 264 121.3 266.2 119.1 269.3 119.1 C 272.4 119.1 274.7 121.3 274.7 125 C 274.7 128.6 272.5 130.8 269.3 130.8 C 266.2 130.8 264 128.6 264 125 Z M 273.1 124.9 C 273.1 122.1 271.4 120.5 269.3 120.5 C 267.1 120.5 265.6 122.2 265.6 125 C 265.6 127.8 267.3 129.4 269.4 129.4 C 271.5 129.4 273.1 127.7 273.1 124.9 Z M 277.3 119.3 L 278.8 119.3 C 278.8 119.3 278.81 121.17 278.8 121.2 C 279.4 119.8 280.7 119.1 282.1 119.1 C 283.7 119.1 285.1 120 285.4 121.4 C 285.9 120.2 287.2 119.1 289.1 119.1 C 291.2 119.1 292.8 120.2 292.8 122.5 C 292.78 122.5 292.8 130.6 292.8 130.6 L 291.2 130.6 C 291.2 130.6 291.25 123.04 291.2 123 C 291.2 121.3 290.2 120.5 288.9 120.5 C 287.2 120.5 285.8 121.8 285.8 124.1 C 285.79 124.13 285.8 130.6 285.8 130.6 L 284.3 130.6 C 284.3 130.6 284.27 123.04 284.3 123 C 284.3 121.3 283.2 120.5 281.9 120.5 C 280.2 120.5 278.8 121.7 278.8 124.1 C 278.83 124.13 278.8 130.6 278.8 130.6 L 277.3 130.6 L 277.3 119.3 Z M 295.4 124.5 L 295.4 123.1 L 301.9 123.1 L 301.9 124.5 L 295.4 124.5 Z M 312 130.6 C 312 130.6 312.01 128.44 312 128.4 C 311.2 130 309.9 130.7 308.3 130.7 C 306.1 130.7 304.5 129.4 304.5 126.8 C 304.5 126.76 304.5 119.3 304.5 119.3 L 306 119.3 C 306 119.3 306.03 126.57 306 126.6 C 306 128.4 307 129.4 308.5 129.4 C 310.3 129.4 312 128 312 125.1 C 311.95 125.14 312 119.3 312 119.3 L 313.5 119.3 L 313.5 130.6 L 312 130.6 Z M 327.4 124.9 C 327.4 129 324.8 130.7 322.2 130.7 C 320.3 130.7 319 129.8 318.4 128.6 C 318.38 128.63 318.4 134.9 318.4 134.9 L 316.8 134.9 L 316.8 119.3 L 318.3 119.3 C 318.3 119.3 318.33 121.68 318.3 121.7 C 318.8 120.3 320.3 119.1 322.4 119.1 C 324.8 119.1 327.4 120.8 327.4 124.9 Z M 325.8 124.9 C 325.8 121.8 324 120.6 322.1 120.6 C 320.3 120.6 318.4 121.8 318.4 125 C 318.4 128.1 320.2 129.3 322.1 129.3 C 324 129.3 325.8 128.1 325.8 124.9 Z " stroke="none" fill="#000"/>  </g>  <g id="Polygon11894">    <path d="M 10.8 97.7 C 10.84 97.65 10.8 105.4 10.8 105.4 L 9.3 105.4 C 9.3 105.4 9.3 97.84 9.3 97.8 C 9.3 96.3 8.4 95.3 6.8 95.3 C 4.9 95.3 3.2 96.7 3.2 99.5 C 3.21 99.46 3.2 105.4 3.2 105.4 L 1.7 105.4 L 1.7 89.4 L 3.2 89.4 C 3.2 89.4 3.21 96.08 3.2 96.1 C 3.9 94.8 5.1 93.9 7.1 93.9 C 9.4 93.9 10.8 95.2 10.8 97.7 Z M 13.4 99.8 C 13.4 96.1 15.6 93.9 18.7 93.9 C 21.8 93.9 24 96.1 24 99.8 C 24 103.4 21.8 105.6 18.7 105.6 C 15.6 105.6 13.4 103.4 13.4 99.8 Z M 22.5 99.7 C 22.5 96.9 20.8 95.3 18.7 95.3 C 16.5 95.3 14.9 97 14.9 99.8 C 14.9 102.6 16.6 104.2 18.7 104.2 C 20.9 104.2 22.5 102.5 22.5 99.7 Z M 37.7 105.4 L 36.2 105.4 L 33.3 96.4 L 30.4 105.4 L 28.9 105.4 L 25.2 94.1 L 26.8 94.1 L 29.7 103.4 L 32.5 94.1 L 34.1 94.1 L 37 103.4 L 39.8 94.1 L 41.4 94.1 L 37.7 105.4 Z M 52.8 105.6 C 49.7 105.6 47.6 103.3 47.6 99.8 C 47.6 96.2 49.7 93.9 53 93.9 C 55.5 93.9 57.5 95.3 57.6 97.8 C 57.6 97.8 56.1 97.8 56.1 97.8 C 56 96.2 54.6 95.3 52.9 95.3 C 50.7 95.3 49.2 97 49.2 99.7 C 49.2 102.5 50.7 104.2 52.9 104.2 C 54.6 104.2 56 103.2 56.1 101.4 C 56.1 101.4 57.6 101.4 57.6 101.4 C 57.5 104.1 55.3 105.6 52.8 105.6 Z M 69.4 97.7 C 69.4 97.65 69.4 105.4 69.4 105.4 L 67.9 105.4 C 67.9 105.4 67.87 97.84 67.9 97.8 C 67.9 96.3 67 95.3 65.4 95.3 C 63.5 95.3 61.8 96.7 61.8 99.5 C 61.78 99.46 61.8 105.4 61.8 105.4 L 60.2 105.4 L 60.2 89.4 L 61.8 89.4 C 61.8 89.4 61.78 96.08 61.8 96.1 C 62.4 94.8 63.7 93.9 65.6 93.9 C 68 93.9 69.4 95.2 69.4 97.7 Z M 79.6 103.3 C 78.7 105 77 105.6 75.6 105.6 C 73.6 105.6 71.9 104.5 71.9 102.3 C 71.9 100.2 73.4 99.2 75.3 99 C 75.3 99 78 98.6 78 98.6 C 78.9 98.5 79.6 98.2 79.6 97.2 C 79.6 95.9 78.4 95.2 76.9 95.2 C 75.2 95.2 74.1 96 73.9 97.3 C 73.9 97.3 72.4 97.3 72.4 97.3 C 72.7 95 74.5 93.9 77 93.9 C 79.5 93.9 81.1 95.1 81.1 97.6 C 81.08 97.59 81.1 105.4 81.1 105.4 L 79.6 105.4 C 79.6 105.4 79.59 103.32 79.6 103.3 Z M 77.7 99.9 C 77.7 99.9 76 100.1 76 100.1 C 74.6 100.3 73.5 100.8 73.5 102.2 C 73.5 103.6 74.6 104.2 75.8 104.2 C 77.6 104.2 79.5 102.9 79.5 100.5 C 79.5 100.5 79.5 99.4 79.5 99.4 C 79.1 99.7 78.5 99.8 77.7 99.9 Z M 85.8 105.4 L 84.2 105.4 L 84.2 89.4 L 85.8 89.4 L 85.8 105.4 Z M 90.7 105.4 L 89.1 105.4 L 89.1 89.4 L 90.7 89.4 L 90.7 105.4 Z M 94.8 100.1 C 94.8 102.9 96.6 104.2 98.6 104.2 C 100 104.2 101.5 103.5 101.8 101.9 C 101.8 101.9 103.3 101.9 103.3 101.9 C 102.8 104.5 100.6 105.6 98.5 105.6 C 95.8 105.6 93.3 103.8 93.3 99.8 C 93.3 95.7 95.8 93.9 98.5 93.9 C 101.2 93.9 103.4 95.6 103.4 99.4 C 103.38 99.35 103.4 100.1 103.4 100.1 C 103.4 100.1 94.79 100.11 94.8 100.1 Z M 94.8 98.8 C 94.8 98.8 101.8 98.8 101.8 98.8 C 101.8 96.5 100.4 95.3 98.5 95.3 C 96.7 95.3 95 96.4 94.8 98.8 Z M 115.2 97.7 C 115.16 97.65 115.2 105.4 115.2 105.4 L 113.6 105.4 C 113.6 105.4 113.63 97.84 113.6 97.8 C 113.6 96.3 112.7 95.3 111.2 95.3 C 109.2 95.3 107.5 96.7 107.5 99.5 C 107.54 99.46 107.5 105.4 107.5 105.4 L 106 105.4 L 106 94.1 L 107.5 94.1 C 107.5 94.1 107.54 96.2 107.5 96.2 C 108.2 94.9 109.5 93.9 111.4 93.9 C 113.7 93.9 115.2 95.2 115.2 97.7 Z M 128.1 104.9 C 128.1 108.3 125.9 110 123 110 C 120.5 110 118.3 108.7 117.9 106.1 C 117.9 106.1 119.5 106.1 119.5 106.1 C 119.7 107.5 120.8 108.7 123 108.7 C 125.1 108.7 126.6 107.6 126.6 105 C 126.6 105 126.6 102.7 126.6 102.7 C 125.8 104.4 124.1 105 122.7 105 C 119.9 105 117.7 103.1 117.7 99.4 C 117.7 95.7 120 93.9 122.7 93.9 C 124.5 93.9 125.9 94.7 126.6 95.9 C 126.61 95.93 126.6 94.1 126.6 94.1 L 128.1 94.1 C 128.1 94.1 128.12 104.88 128.1 104.9 Z M 126.5 99.4 C 126.5 96.6 124.8 95.2 122.9 95.2 C 121 95.2 119.2 96.6 119.2 99.4 C 119.2 102.2 120.9 103.6 122.9 103.6 C 124.7 103.6 126.5 102.4 126.5 99.4 Z M 133 89.4 L 131.3 89.4 L 131.3 91.3 L 133 91.3 L 133 89.4 Z M 132.9 105.4 L 131.4 105.4 L 131.4 94.1 L 132.9 94.1 L 132.9 105.4 Z M 145.4 97.7 C 145.42 97.65 145.4 105.4 145.4 105.4 L 143.9 105.4 C 143.9 105.4 143.89 97.84 143.9 97.8 C 143.9 96.3 143 95.3 141.4 95.3 C 139.5 95.3 137.8 96.7 137.8 99.5 C 137.8 99.46 137.8 105.4 137.8 105.4 L 136.3 105.4 L 136.3 94.1 L 137.8 94.1 C 137.8 94.1 137.8 96.2 137.8 96.2 C 138.5 94.9 139.7 93.9 141.7 93.9 C 144 93.9 145.4 95.2 145.4 97.7 Z M 158.4 104.9 C 158.4 108.3 156.2 110 153.3 110 C 150.8 110 148.6 108.7 148.2 106.1 C 148.2 106.1 149.7 106.1 149.7 106.1 C 150 107.5 151 108.7 153.3 108.7 C 155.4 108.7 156.9 107.6 156.9 105 C 156.9 105 156.9 102.7 156.9 102.7 C 156.1 104.4 154.4 105 152.9 105 C 150.2 105 147.9 103.1 147.9 99.4 C 147.9 95.7 150.3 93.9 153 93.9 C 154.8 93.9 156.2 94.7 156.9 95.9 C 156.87 95.93 156.9 94.1 156.9 94.1 L 158.4 94.1 C 158.4 94.1 158.38 104.88 158.4 104.9 Z M 156.8 99.4 C 156.8 96.6 155.1 95.2 153.2 95.2 C 151.3 95.2 149.5 96.6 149.5 99.4 C 149.5 102.2 151.2 103.6 153.2 103.6 C 155 103.6 156.8 102.4 156.8 99.4 Z M 172.2 105.4 C 172.2 105.4 170.58 105.38 170.6 105.4 C 169.1 105.4 167.7 104.9 167.7 102.4 C 167.75 102.42 167.7 95.5 167.7 95.5 L 165.5 95.5 L 165.5 94.1 L 167.7 94.1 L 167.7 90.9 L 169.3 90.5 L 169.3 94.1 L 172 94.1 L 172 95.5 L 169.3 95.5 C 169.3 95.5 169.28 102.4 169.3 102.4 C 169.3 103.4 169.6 104 170.8 104 C 170.83 104 172.2 104 172.2 104 L 172.2 105.4 Z M 183.6 97.7 C 183.6 97.65 183.6 105.4 183.6 105.4 L 182.1 105.4 C 182.1 105.4 182.07 97.84 182.1 97.8 C 182.1 96.3 181.2 95.3 179.6 95.3 C 177.7 95.3 176 96.7 176 99.5 C 175.98 99.46 176 105.4 176 105.4 L 174.4 105.4 L 174.4 89.4 L 176 89.4 C 176 89.4 175.98 96.08 176 96.1 C 176.6 94.8 177.8 93.9 179.8 93.9 C 182.2 93.9 183.6 95.2 183.6 97.7 Z M 187.6 100.1 C 187.7 102.9 189.4 104.2 191.4 104.2 C 192.9 104.2 194.4 103.5 194.7 101.9 C 194.7 101.9 196.1 101.9 196.1 101.9 C 195.6 104.5 193.4 105.6 191.3 105.6 C 188.6 105.6 186.1 103.8 186.1 99.8 C 186.1 95.7 188.7 93.9 191.4 93.9 C 194 93.9 196.2 95.6 196.2 99.4 C 196.22 99.35 196.2 100.1 196.2 100.1 C 196.2 100.1 187.63 100.11 187.6 100.1 Z M 187.7 98.8 C 187.7 98.8 194.7 98.8 194.7 98.8 C 194.7 96.5 193.2 95.3 191.3 95.3 C 189.5 95.3 187.9 96.4 187.7 98.8 Z M 204.1 94.1 L 205.6 94.1 C 205.6 94.1 205.61 95.97 205.6 96 C 206.2 94.6 207.5 93.9 208.9 93.9 C 210.5 93.9 211.9 94.8 212.2 96.2 C 212.7 95 214 93.9 215.9 93.9 C 218 93.9 219.6 95 219.6 97.3 C 219.57 97.3 219.6 105.4 219.6 105.4 L 218 105.4 C 218 105.4 218.04 97.84 218 97.8 C 218 96.1 217 95.3 215.6 95.3 C 214 95.3 212.6 96.6 212.6 98.9 C 212.58 98.93 212.6 105.4 212.6 105.4 L 211.1 105.4 C 211.1 105.4 211.07 97.84 211.1 97.8 C 211.1 96.1 210 95.3 208.7 95.3 C 207 95.3 205.6 96.5 205.6 98.9 C 205.63 98.93 205.6 105.4 205.6 105.4 L 204.1 105.4 L 204.1 94.1 Z M 229.8 103.3 C 228.9 105 227.2 105.6 225.7 105.6 C 223.8 105.6 222.1 104.5 222.1 102.3 C 222.1 100.2 223.6 99.2 225.5 99 C 225.5 99 228.2 98.6 228.2 98.6 C 229 98.5 229.8 98.2 229.8 97.2 C 229.8 95.9 228.6 95.2 227 95.2 C 225.3 95.2 224.3 96 224.1 97.3 C 224.1 97.3 222.5 97.3 222.5 97.3 C 222.8 95 224.7 93.9 227.1 93.9 C 229.7 93.9 231.2 95.1 231.2 97.6 C 231.25 97.59 231.2 105.4 231.2 105.4 L 229.8 105.4 C 229.8 105.4 229.76 103.32 229.8 103.3 Z M 227.9 99.9 C 227.9 99.9 226.2 100.1 226.2 100.1 C 224.7 100.3 223.7 100.8 223.7 102.2 C 223.7 103.6 224.8 104.2 226 104.2 C 227.8 104.2 229.7 102.9 229.7 100.5 C 229.7 100.5 229.7 99.4 229.7 99.4 C 229.3 99.7 228.6 99.8 227.9 99.9 Z M 238.9 105.6 C 235.8 105.6 233.7 103.3 233.7 99.8 C 233.7 96.2 235.8 93.9 239 93.9 C 241.5 93.9 243.5 95.3 243.7 97.8 C 243.7 97.8 242.2 97.8 242.2 97.8 C 242 96.2 240.6 95.3 239 95.3 C 236.8 95.3 235.2 97 235.2 99.7 C 235.2 102.5 236.8 104.2 239 104.2 C 240.7 104.2 242 103.2 242.2 101.4 C 242.2 101.4 243.7 101.4 243.7 101.4 C 243.5 104.1 241.4 105.6 238.9 105.6 Z M 251.9 95.4 C 251.9 95.4 251.58 95.43 251.6 95.4 C 249.2 95.4 247.8 96.8 247.8 99.4 C 247.84 99.4 247.8 105.4 247.8 105.4 L 246.3 105.4 L 246.3 94.1 L 247.8 94.1 C 247.8 94.1 247.82 96.18 247.8 96.2 C 248.3 94.7 249.7 94 251.5 94 C 251.45 93.98 251.9 94 251.9 94 L 251.9 95.4 Z M 253 99.8 C 253 96.1 255.2 93.9 258.3 93.9 C 261.4 93.9 263.7 96.1 263.7 99.8 C 263.7 103.4 261.4 105.6 258.3 105.6 C 255.2 105.6 253 103.4 253 99.8 Z M 262.1 99.7 C 262.1 96.9 260.4 95.3 258.3 95.3 C 256.1 95.3 254.6 97 254.6 99.8 C 254.6 102.6 256.3 104.2 258.4 104.2 C 260.5 104.2 262.1 102.5 262.1 99.7 Z " stroke="none" fill="#000"/>  </g>  <g id="Polygon11893">    <path d="M 12.2 74.5 C 12.2 78 10.1 80.4 7.1 80.4 C 5.1 80.4 3.7 79.3 3.1 78.1 C 3.15 78.1 3.1 80.2 3.1 80.2 L 1.7 80.2 L 1.7 64.2 L 3.2 64.2 C 3.2 64.2 3.21 71.17 3.2 71.2 C 3.8 69.8 5.2 68.7 7.2 68.7 C 10.1 68.7 12.2 70.9 12.2 74.5 Z M 10.6 74.6 C 10.6 71.8 9.2 70.2 7 70.2 C 4.8 70.2 3.2 71.8 3.2 74.6 C 3.2 77.4 4.7 79.1 6.9 79.1 C 9.1 79.1 10.6 77.3 10.6 74.6 Z M 14.1 74.6 C 14.1 70.9 16.3 68.7 19.4 68.7 C 22.5 68.7 24.8 70.9 24.8 74.6 C 24.8 78.2 22.6 80.4 19.4 80.4 C 16.3 80.4 14.1 78.2 14.1 74.6 Z M 23.2 74.5 C 23.2 71.7 21.5 70.1 19.4 70.1 C 17.2 70.1 15.7 71.8 15.7 74.6 C 15.7 77.4 17.4 79 19.5 79 C 21.7 79 23.2 77.3 23.2 74.5 Z M 39.9 80.2 C 39.9 80.2 38.22 80.18 38.2 80.2 C 36.7 80.2 35.4 79.7 35.4 77.2 C 35.38 77.22 35.4 70.3 35.4 70.3 L 29.6 70.3 C 29.6 70.3 29.59 77.2 29.6 77.2 C 29.6 78.2 29.9 78.8 31.1 78.8 C 31.14 78.8 32.5 78.8 32.5 78.8 L 32.5 80.2 C 32.5 80.2 30.89 80.18 30.9 80.2 C 29.4 80.2 28.1 79.7 28.1 77.2 C 28.06 77.22 28.1 70.3 28.1 70.3 L 25.8 70.3 L 25.8 68.9 L 28.1 68.9 L 28.1 65.7 L 29.6 65.3 L 29.6 68.9 L 35.4 68.9 L 35.4 65.7 L 36.9 65.3 L 36.9 68.9 L 39.6 68.9 L 39.6 70.3 L 36.9 70.3 C 36.9 70.3 36.92 77.2 36.9 77.2 C 36.9 78.2 37.2 78.8 38.5 78.8 C 38.47 78.8 39.9 78.8 39.9 78.8 L 39.9 80.2 Z M 41.4 74.6 C 41.4 70.9 43.6 68.7 46.7 68.7 C 49.8 68.7 52.1 70.9 52.1 74.6 C 52.1 78.2 49.8 80.4 46.7 80.4 C 43.6 80.4 41.4 78.2 41.4 74.6 Z M 50.5 74.5 C 50.5 71.7 48.8 70.1 46.7 70.1 C 44.5 70.1 42.9 71.8 42.9 74.6 C 42.9 77.4 44.6 79 46.7 79 C 48.9 79 50.5 77.3 50.5 74.5 Z M 54.7 68.9 L 56.2 68.9 C 56.2 68.9 56.2 70.77 56.2 70.8 C 56.8 69.4 58 68.7 59.5 68.7 C 61.1 68.7 62.5 69.6 62.8 71 C 63.3 69.8 64.6 68.7 66.5 68.7 C 68.5 68.7 70.2 69.8 70.2 72.1 C 70.16 72.1 70.2 80.2 70.2 80.2 L 68.6 80.2 C 68.6 80.2 68.63 72.64 68.6 72.6 C 68.6 70.9 67.6 70.1 66.2 70.1 C 64.6 70.1 63.2 71.4 63.2 73.7 C 63.17 73.73 63.2 80.2 63.2 80.2 L 61.7 80.2 C 61.7 80.2 61.66 72.64 61.7 72.6 C 61.7 70.9 60.6 70.1 59.3 70.1 C 57.6 70.1 56.2 71.3 56.2 73.7 C 56.22 73.73 56.2 80.2 56.2 80.2 L 54.7 80.2 L 54.7 68.9 Z M 72.8 74.1 L 72.8 72.7 L 79.3 72.7 L 79.3 74.1 L 72.8 74.1 Z M 89.4 80.2 C 89.4 80.2 89.4 78.04 89.4 78 C 88.6 79.6 87.2 80.3 85.6 80.3 C 83.5 80.3 81.9 79 81.9 76.4 C 81.88 76.36 81.9 68.9 81.9 68.9 L 83.4 68.9 C 83.4 68.9 83.41 76.17 83.4 76.2 C 83.4 78 84.4 79 85.9 79 C 87.7 79 89.3 77.6 89.3 74.7 C 89.33 74.74 89.3 68.9 89.3 68.9 L 90.9 68.9 L 90.9 80.2 L 89.4 80.2 Z M 104.7 74.5 C 104.7 78.6 102.2 80.3 99.6 80.3 C 97.6 80.3 96.4 79.4 95.8 78.2 C 95.76 78.23 95.8 84.5 95.8 84.5 L 94.2 84.5 L 94.2 68.9 L 95.7 68.9 C 95.7 68.9 95.72 71.28 95.7 71.3 C 96.2 69.9 97.7 68.7 99.7 68.7 C 102.2 68.7 104.7 70.4 104.7 74.5 Z M 103.2 74.5 C 103.2 71.4 101.4 70.2 99.5 70.2 C 97.6 70.2 95.8 71.4 95.8 74.6 C 95.8 77.7 97.6 78.9 99.5 78.9 C 101.3 78.9 103.2 77.7 103.2 74.5 Z M 114.3 64.2 L 112.5 64.2 L 112.5 66.1 L 114.3 66.1 L 114.3 64.2 Z M 114.2 80.2 L 112.6 80.2 L 112.6 68.9 L 114.2 68.9 L 114.2 80.2 Z M 126.7 72.5 C 126.67 72.45 126.7 80.2 126.7 80.2 L 125.1 80.2 C 125.1 80.2 125.14 72.64 125.1 72.6 C 125.1 71.1 124.3 70.1 122.7 70.1 C 120.7 70.1 119 71.5 119 74.3 C 119.05 74.26 119 80.2 119 80.2 L 117.5 80.2 L 117.5 68.9 L 119 68.9 C 119 68.9 119.05 71 119 71 C 119.7 69.7 121 68.7 123 68.7 C 125.2 68.7 126.7 70 126.7 72.5 Z M 134.4 80.2 L 132.7 80.2 L 128.6 68.9 L 130.2 68.9 L 133.6 78.6 L 137 68.9 L 138.6 68.9 L 134.4 80.2 Z M 141.2 74.9 C 141.2 77.7 142.9 79 144.9 79 C 146.4 79 147.9 78.3 148.2 76.7 C 148.2 76.7 149.7 76.7 149.7 76.7 C 149.2 79.3 147 80.4 144.8 80.4 C 142.1 80.4 139.6 78.6 139.6 74.6 C 139.6 70.5 142.2 68.7 144.9 68.7 C 147.6 68.7 149.7 70.4 149.7 74.2 C 149.75 74.15 149.7 74.9 149.7 74.9 C 149.7 74.9 141.16 74.91 141.2 74.9 Z M 141.2 73.6 C 141.2 73.6 148.2 73.6 148.2 73.6 C 148.2 71.3 146.7 70.1 144.8 70.1 C 143.1 70.1 141.4 71.2 141.2 73.6 Z M 160.8 77 C 160.8 79.3 158.7 80.4 156.4 80.4 C 154 80.4 151.8 79.2 151.5 76.7 C 151.5 76.7 153.2 76.7 153.2 76.7 C 153.4 78.4 154.9 79 156.4 79 C 157.9 79 159.2 78.5 159.2 77.2 C 159.2 75.9 157.9 75.6 156.5 75.4 C 154.4 75 151.8 74.6 151.8 72 C 151.8 69.8 153.7 68.7 156 68.7 C 158.4 68.7 160.3 69.8 160.5 72.1 C 160.5 72.1 158.9 72.1 158.9 72.1 C 158.8 70.7 157.5 70.1 156 70.1 C 154.5 70.1 153.4 70.8 153.4 71.9 C 153.4 73.4 154.8 73.6 156.5 73.9 C 158.5 74.2 160.8 74.5 160.8 77 Z M 168.4 80.2 C 168.4 80.2 166.76 80.18 166.8 80.2 C 165.3 80.2 163.9 79.7 163.9 77.2 C 163.92 77.22 163.9 70.3 163.9 70.3 L 161.7 70.3 L 161.7 68.9 L 163.9 68.9 L 163.9 65.7 L 165.5 65.3 L 165.5 68.9 L 168.2 68.9 L 168.2 70.3 L 165.5 70.3 C 165.5 70.3 165.46 77.2 165.5 77.2 C 165.5 78.2 165.8 78.8 167 78.8 C 167.01 78.8 168.4 78.8 168.4 78.8 L 168.4 80.2 Z M 169.9 74.6 C 169.9 70.9 172.1 68.7 175.2 68.7 C 178.3 68.7 180.6 70.9 180.6 74.6 C 180.6 78.2 178.4 80.4 175.2 80.4 C 172.1 80.4 169.9 78.2 169.9 74.6 Z M 179 74.5 C 179 71.7 177.3 70.1 175.2 70.1 C 173 70.1 171.5 71.8 171.5 74.6 C 171.5 77.4 173.2 79 175.3 79 C 177.4 79 179 77.3 179 74.5 Z M 188.8 70.2 C 188.8 70.2 188.47 70.23 188.5 70.2 C 186.1 70.2 184.7 71.6 184.7 74.2 C 184.74 74.2 184.7 80.2 184.7 80.2 L 183.2 80.2 L 183.2 68.9 L 184.7 68.9 C 184.7 68.9 184.71 70.98 184.7 71 C 185.2 69.5 186.6 68.8 188.3 68.8 C 188.35 68.78 188.8 68.8 188.8 68.8 L 188.8 70.2 Z M 199.2 77 C 199.2 79.3 197.1 80.4 194.9 80.4 C 192.4 80.4 190.2 79.2 190 76.7 C 190 76.7 191.6 76.7 191.6 76.7 C 191.9 78.4 193.3 79 194.9 79 C 196.3 79 197.6 78.5 197.6 77.2 C 197.6 75.9 196.3 75.6 195 75.4 C 192.8 75 190.3 74.6 190.3 72 C 190.3 69.8 192.2 68.7 194.5 68.7 C 196.9 68.7 198.8 69.8 198.9 72.1 C 198.9 72.1 197.3 72.1 197.3 72.1 C 197.2 70.7 195.9 70.1 194.4 70.1 C 192.9 70.1 191.9 70.8 191.9 71.9 C 191.9 73.4 193.2 73.6 194.9 73.9 C 197 74.2 199.2 74.5 199.2 77 Z M 213.9 78.1 C 213 79.8 211.3 80.4 209.9 80.4 C 208 80.4 206.2 79.3 206.2 77.1 C 206.2 75 207.7 74 209.7 73.8 C 209.7 73.8 212.3 73.4 212.3 73.4 C 213.2 73.3 213.9 73 213.9 72 C 213.9 70.7 212.7 70 211.2 70 C 209.5 70 208.4 70.8 208.2 72.1 C 208.2 72.1 206.7 72.1 206.7 72.1 C 207 69.8 208.8 68.7 211.3 68.7 C 213.8 68.7 215.4 69.9 215.4 72.4 C 215.4 72.39 215.4 80.2 215.4 80.2 L 213.9 80.2 C 213.9 80.2 213.9 78.12 213.9 78.1 Z M 212 74.7 C 212 74.7 210.3 74.9 210.3 74.9 C 208.9 75.1 207.8 75.6 207.8 77 C 207.8 78.4 208.9 79 210.1 79 C 211.9 79 213.9 77.7 213.9 75.3 C 213.9 75.3 213.9 74.2 213.9 74.2 C 213.4 74.5 212.8 74.6 212 74.7 Z M 227.7 72.5 C 227.7 72.45 227.7 80.2 227.7 80.2 L 226.2 80.2 C 226.2 80.2 226.17 72.64 226.2 72.6 C 226.2 71.1 225.3 70.1 223.7 70.1 C 221.8 70.1 220.1 71.5 220.1 74.3 C 220.08 74.26 220.1 80.2 220.1 80.2 L 218.5 80.2 L 218.5 68.9 L 220.1 68.9 C 220.1 68.9 220.08 71 220.1 71 C 220.7 69.7 222 68.7 224 68.7 C 226.2 68.7 227.7 70 227.7 72.5 Z M 240.8 80.2 L 239.3 80.2 C 239.3 80.2 239.29 78 239.3 78 C 238.7 79.3 237.4 80.4 235.3 80.4 C 232.3 80.4 230.2 78.1 230.2 74.5 C 230.2 71 232.3 68.7 235.3 68.7 C 237.2 68.7 238.6 69.6 239.2 70.8 C 239.23 70.82 239.2 64.2 239.2 64.2 L 240.8 64.2 L 240.8 80.2 Z M 239.2 74.5 C 239.2 71.7 237.7 70.1 235.5 70.1 C 233.3 70.1 231.8 71.8 231.8 74.5 C 231.8 77.3 233.3 79 235.5 79 C 237.7 79 239.2 77.3 239.2 74.5 Z M 259.1 79.7 C 259.1 83.1 256.9 84.8 254 84.8 C 251.5 84.8 249.2 83.5 248.9 80.9 C 248.9 80.9 250.4 80.9 250.4 80.9 C 250.7 82.3 251.7 83.5 254 83.5 C 256.1 83.5 257.6 82.4 257.6 79.8 C 257.6 79.8 257.6 77.5 257.6 77.5 C 256.8 79.2 255.1 79.8 253.6 79.8 C 250.9 79.8 248.6 77.9 248.6 74.2 C 248.6 70.5 251 68.7 253.7 68.7 C 255.5 68.7 256.9 69.5 257.6 70.7 C 257.56 70.73 257.6 68.9 257.6 68.9 L 259.1 68.9 C 259.1 68.9 259.07 79.68 259.1 79.7 Z M 257.5 74.2 C 257.5 71.4 255.8 70 253.9 70 C 252 70 250.1 71.4 250.1 74.2 C 250.1 77 251.9 78.4 253.9 78.4 C 255.7 78.4 257.5 77.2 257.5 74.2 Z M 264 64.2 L 262.2 64.2 L 262.2 66.1 L 264 66.1 L 264 64.2 Z M 263.9 80.2 L 262.3 80.2 L 262.3 68.9 L 263.9 68.9 L 263.9 80.2 Z M 271.7 80.2 L 270 80.2 L 265.9 68.9 L 267.5 68.9 L 270.9 78.6 L 274.3 68.9 L 275.9 68.9 L 271.7 80.2 Z M 278.5 74.9 C 278.5 77.7 280.2 79 282.2 79 C 283.7 79 285.2 78.3 285.5 76.7 C 285.5 76.7 287 76.7 287 76.7 C 286.5 79.3 284.3 80.4 282.1 80.4 C 279.4 80.4 276.9 78.6 276.9 74.6 C 276.9 70.5 279.5 68.7 282.2 68.7 C 284.9 68.7 287 70.4 287 74.2 C 287.05 74.15 287 74.9 287 74.9 C 287 74.9 278.46 74.91 278.5 74.9 Z M 278.5 73.6 C 278.5 73.6 285.5 73.6 285.5 73.6 C 285.5 71.3 284 70.1 282.1 70.1 C 280.4 70.1 278.7 71.2 278.5 73.6 Z M 298.8 72.5 C 298.83 72.45 298.8 80.2 298.8 80.2 L 297.3 80.2 C 297.3 80.2 297.29 72.64 297.3 72.6 C 297.3 71.1 296.4 70.1 294.8 70.1 C 292.9 70.1 291.2 71.5 291.2 74.3 C 291.2 74.26 291.2 80.2 291.2 80.2 L 289.7 80.2 L 289.7 68.9 L 291.2 68.9 C 291.2 68.9 291.2 71 291.2 71 C 291.9 69.7 293.1 68.7 295.1 68.7 C 297.4 68.7 298.8 70 298.8 72.5 Z " stroke="none" fill="#000"/>  </g>  <g id="Polygon11892">    <path d="M 7.1 55.4 C 3.9 55.4 1.2 53.4 1 50 C 1 50 2.8 50 2.8 50 C 2.9 52.7 5 53.9 7.2 53.9 C 9.3 53.9 10.9 52.8 10.9 51 C 10.9 48.9 8.7 48.4 6.6 47.9 C 4.1 47.2 1.6 46.4 1.6 43.3 C 1.6 40.4 3.8 38.9 6.8 38.9 C 9.6 38.9 12.1 40.2 12.2 43.3 C 12.2 43.3 10.6 43.3 10.6 43.3 C 10.5 41.2 8.8 40.3 6.8 40.3 C 4.8 40.3 3.2 41.3 3.2 43.3 C 3.2 45.4 5 45.9 7.2 46.5 C 9.8 47.1 12.5 47.8 12.5 50.9 C 12.5 53.8 10.1 55.4 7.1 55.4 Z M 25.8 49.3 C 25.8 53.4 23.2 55.1 20.6 55.1 C 18.7 55.1 17.4 54.2 16.8 53 C 16.8 53.03 16.8 59.3 16.8 59.3 L 15.3 59.3 L 15.3 43.7 L 16.8 43.7 C 16.8 43.7 16.76 46.08 16.8 46.1 C 17.3 44.7 18.7 43.5 20.8 43.5 C 23.2 43.5 25.8 45.2 25.8 49.3 Z M 24.2 49.3 C 24.2 46.2 22.4 45 20.6 45 C 18.7 45 16.8 46.2 16.8 49.4 C 16.8 52.5 18.6 53.7 20.5 53.7 C 22.4 53.7 24.2 52.5 24.2 49.3 Z M 29.2 49.7 C 29.2 52.5 31 53.8 32.9 53.8 C 34.4 53.8 35.9 53.1 36.2 51.5 C 36.2 51.5 37.7 51.5 37.7 51.5 C 37.2 54.1 35 55.2 32.9 55.2 C 30.2 55.2 27.7 53.4 27.7 49.4 C 27.7 45.3 30.2 43.5 32.9 43.5 C 35.6 43.5 37.8 45.2 37.8 49 C 37.78 48.95 37.8 49.7 37.8 49.7 C 37.8 49.7 29.19 49.71 29.2 49.7 Z M 29.2 48.4 C 29.2 48.4 36.2 48.4 36.2 48.4 C 36.2 46.1 34.8 44.9 32.9 44.9 C 31.1 44.9 29.4 46 29.2 48.4 Z M 44.9 55.2 C 41.8 55.2 39.7 52.9 39.7 49.4 C 39.7 45.8 41.8 43.5 45 43.5 C 47.5 43.5 49.5 44.9 49.7 47.4 C 49.7 47.4 48.2 47.4 48.2 47.4 C 48 45.8 46.6 44.9 45 44.9 C 42.8 44.9 41.2 46.6 41.2 49.3 C 41.2 52.1 42.8 53.8 45 53.8 C 46.7 53.8 48 52.8 48.2 51 C 48.2 51 49.7 51 49.7 51 C 49.5 53.7 47.4 55.2 44.9 55.2 Z M 53.9 39 L 52.2 39 L 52.2 40.9 L 53.9 40.9 L 53.9 39 Z M 53.8 55 L 52.3 55 L 52.3 43.7 L 53.8 43.7 L 53.8 55 Z M 65 55 L 65 45.1 L 59.2 45.1 L 59.2 55 L 57.7 55 L 57.7 45.1 L 55.8 45.1 L 55.8 43.7 L 57.7 43.7 C 57.7 43.7 57.71 41.92 57.7 41.9 C 57.7 39.4 59.1 39 60.5 39 C 60.54 38.98 62 39 62 39 L 62 40.3 C 62 40.3 60.79 40.34 60.8 40.3 C 59.5 40.3 59.2 40.9 59.2 42 C 59.24 41.96 59.2 43.7 59.2 43.7 L 66.6 43.7 L 66.6 55 L 65 55 Z M 74.3 55.2 C 71.2 55.2 69.1 52.9 69.1 49.4 C 69.1 45.8 71.2 43.5 74.4 43.5 C 76.9 43.5 78.9 44.9 79.1 47.4 C 79.1 47.4 77.6 47.4 77.6 47.4 C 77.4 45.8 76.1 44.9 74.4 44.9 C 72.2 44.9 70.6 46.6 70.6 49.3 C 70.6 52.1 72.2 53.8 74.4 53.8 C 76.1 53.8 77.5 52.8 77.6 51 C 77.6 51 79.1 51 79.1 51 C 78.9 53.7 76.8 55.2 74.3 55.2 Z M 91.7 55 C 91.7 55 90.05 54.98 90 55 C 88.6 55 87.2 54.5 87.2 52 C 87.21 52.02 87.2 45.1 87.2 45.1 L 85 45.1 L 85 43.7 L 87.2 43.7 L 87.2 40.5 L 88.7 40.1 L 88.7 43.7 L 91.5 43.7 L 91.5 45.1 L 88.7 45.1 C 88.7 45.1 88.74 52 88.7 52 C 88.7 53 89 53.6 90.3 53.6 C 90.3 53.6 91.7 53.6 91.7 53.6 L 91.7 55 Z M 93.2 49.4 C 93.2 45.7 95.4 43.5 98.5 43.5 C 101.6 43.5 103.9 45.7 103.9 49.4 C 103.9 53 101.6 55.2 98.5 55.2 C 95.4 55.2 93.2 53 93.2 49.4 Z M 102.3 49.3 C 102.3 46.5 100.6 44.9 98.5 44.9 C 96.3 44.9 94.8 46.6 94.8 49.4 C 94.8 52.2 96.5 53.8 98.6 53.8 C 100.7 53.8 102.3 52.1 102.3 49.3 Z M 119.2 55 C 119.2 55 119.15 52.84 119.2 52.8 C 118.4 54.4 117 55.1 115.4 55.1 C 113.3 55.1 111.6 53.8 111.6 51.2 C 111.63 51.16 111.6 43.7 111.6 43.7 L 113.2 43.7 C 113.2 43.7 113.17 50.97 113.2 51 C 113.2 52.8 114.2 53.8 115.7 53.8 C 117.5 53.8 119.1 52.4 119.1 49.5 C 119.09 49.54 119.1 43.7 119.1 43.7 L 120.6 43.7 L 120.6 55 L 119.2 55 Z M 132.4 51.8 C 132.4 54.1 130.3 55.2 128 55.2 C 125.6 55.2 123.4 54 123.1 51.5 C 123.1 51.5 124.8 51.5 124.8 51.5 C 125 53.2 126.5 53.8 128 53.8 C 129.5 53.8 130.8 53.3 130.8 52 C 130.8 50.7 129.5 50.4 128.1 50.2 C 126 49.8 123.4 49.4 123.4 46.8 C 123.4 44.6 125.3 43.5 127.7 43.5 C 130.1 43.5 131.9 44.6 132.1 46.9 C 132.1 46.9 130.5 46.9 130.5 46.9 C 130.4 45.5 129.1 44.9 127.6 44.9 C 126.1 44.9 125 45.6 125 46.7 C 125 48.2 126.4 48.4 128.1 48.7 C 130.1 49 132.4 49.3 132.4 51.8 Z M 141.8 39 L 140 39 L 140 40.9 L 141.8 40.9 L 141.8 39 Z M 141.7 55 L 140.1 55 L 140.1 43.7 L 141.7 43.7 L 141.7 55 Z M 154.2 47.3 C 154.18 47.25 154.2 55 154.2 55 L 152.6 55 C 152.6 55 152.65 47.44 152.6 47.4 C 152.6 45.9 151.8 44.9 150.2 44.9 C 148.2 44.9 146.6 46.3 146.6 49.1 C 146.56 49.06 146.6 55 146.6 55 L 145 55 L 145 43.7 L 146.6 43.7 C 146.6 43.7 146.56 45.8 146.6 45.8 C 147.2 44.5 148.5 43.5 150.5 43.5 C 152.7 43.5 154.2 44.8 154.2 47.3 Z M 168.7 55 L 167 55 L 161.5 39.2 L 163.3 39.2 L 167.8 53.1 L 172.5 39.2 L 174.1 39.2 L 168.7 55 Z M 174.5 49.4 C 174.5 45.7 176.7 43.5 179.8 43.5 C 182.9 43.5 185.2 45.7 185.2 49.4 C 185.2 53 182.9 55.2 179.8 55.2 C 176.7 55.2 174.5 53 174.5 49.4 Z M 183.6 49.3 C 183.6 46.5 181.9 44.9 179.8 44.9 C 177.6 44.9 176.1 46.6 176.1 49.4 C 176.1 52.2 177.8 53.8 179.9 53.8 C 182 53.8 183.6 52.1 183.6 49.3 Z M 197 47.3 C 196.96 47.25 197 55 197 55 L 195.4 55 C 195.4 55 195.42 47.44 195.4 47.4 C 195.4 45.9 194.5 44.9 192.9 44.9 C 191 44.9 189.3 46.3 189.3 49.1 C 189.33 49.06 189.3 55 189.3 55 L 187.8 55 L 187.8 43.7 L 189.3 43.7 C 189.3 43.7 189.33 45.8 189.3 45.8 C 190 44.5 191.3 43.5 193.2 43.5 C 195.5 43.5 197 44.8 197 47.3 Z M 205.4 55 C 205.4 55 203.7 54.98 203.7 55 C 202.2 55 200.9 54.5 200.9 52 C 200.86 52.02 200.9 45.1 200.9 45.1 L 198.6 45.1 L 198.6 43.7 L 200.9 43.7 L 200.9 40.5 L 202.4 40.1 L 202.4 43.7 L 205.1 43.7 L 205.1 45.1 L 202.4 45.1 C 202.4 45.1 202.4 52 202.4 52 C 202.4 53 202.7 53.6 203.9 53.6 C 203.95 53.6 205.4 53.6 205.4 53.6 L 205.4 55 Z M 206.8 49.4 C 206.8 45.7 209.1 43.5 212.2 43.5 C 215.3 43.5 217.5 45.7 217.5 49.4 C 217.5 53 215.3 55.2 212.2 55.2 C 209.1 55.2 206.8 53 206.8 49.4 Z M 215.9 49.3 C 215.9 46.5 214.2 44.9 212.1 44.9 C 209.9 44.9 208.4 46.6 208.4 49.4 C 208.4 52.2 210.1 53.8 212.2 53.8 C 214.4 53.8 215.9 52.1 215.9 49.3 Z M 230.7 49.3 C 230.7 52.8 228.6 55.2 225.6 55.2 C 223.5 55.2 222.2 54.1 221.6 52.9 C 221.61 52.9 221.6 55 221.6 55 L 220.1 55 L 220.1 39 L 221.7 39 C 221.7 39 221.67 45.97 221.7 46 C 222.2 44.6 223.7 43.5 225.7 43.5 C 228.6 43.5 230.7 45.7 230.7 49.3 Z M 229.1 49.4 C 229.1 46.6 227.6 45 225.4 45 C 223.2 45 221.7 46.6 221.7 49.4 C 221.7 52.2 223.2 53.9 225.4 53.9 C 227.6 53.9 229.1 52.1 229.1 49.4 Z M 234.1 49.7 C 234.1 52.5 235.8 53.8 237.8 53.8 C 239.3 53.8 240.8 53.1 241.1 51.5 C 241.1 51.5 242.6 51.5 242.6 51.5 C 242.1 54.1 239.9 55.2 237.7 55.2 C 235 55.2 232.6 53.4 232.6 49.4 C 232.6 45.3 235.1 43.5 237.8 43.5 C 240.5 43.5 242.7 45.2 242.7 49 C 242.65 48.95 242.7 49.7 242.7 49.7 C 242.7 49.7 234.06 49.71 234.1 49.7 Z M 234.1 48.4 C 234.1 48.4 241.1 48.4 241.1 48.4 C 241.1 46.1 239.6 44.9 237.7 44.9 C 236 44.9 234.3 46 234.1 48.4 Z M 246.8 55 L 245.3 55 L 245.3 39 L 246.8 39 L 246.8 55 Z M 249.9 43.9 L 252 43.9 L 252 46.1 L 249.9 46.1 L 249.9 43.9 Z M 249.9 52.8 L 252 52.8 L 252 55 L 249.9 55 L 249.9 52.8 Z M 271.6 55 L 270.1 55 L 267.1 46 L 264.2 55 L 262.7 55 L 259 43.7 L 260.6 43.7 L 263.5 53 L 266.4 43.7 L 267.9 43.7 L 270.9 53 L 273.7 43.7 L 275.2 43.7 L 271.6 55 Z M 277.9 49.7 C 278 52.5 279.7 53.8 281.7 53.8 C 283.2 53.8 284.6 53.1 285 51.5 C 285 51.5 286.4 51.5 286.4 51.5 C 285.9 54.1 283.7 55.2 281.6 55.2 C 278.9 55.2 276.4 53.4 276.4 49.4 C 276.4 45.3 278.9 43.5 281.6 43.5 C 284.3 43.5 286.5 45.2 286.5 49 C 286.5 48.95 286.5 49.7 286.5 49.7 C 286.5 49.7 277.91 49.71 277.9 49.7 Z M 278 48.4 C 278 48.4 284.9 48.4 284.9 48.4 C 284.9 46.1 283.5 44.9 281.6 44.9 C 279.8 44.9 278.2 46 278 48.4 Z M 289.4 41.2 C 289.38 41.18 288.4 41.2 288.4 41.2 L 288.4 39.1 L 290.6 39.1 C 290.6 39.1 290.59 41.25 290.6 41.2 C 290.6 43.7 289.1 44.6 287.5 44.8 C 287.5 44.8 287.3 43.8 287.3 43.8 C 289 43.5 289.4 42.5 289.4 41.2 Z M 298 45 C 298 45 297.65 45.03 297.7 45 C 295.3 45 293.9 46.4 293.9 49 C 293.91 49 293.9 55 293.9 55 L 292.4 55 L 292.4 43.7 L 293.9 43.7 C 293.9 43.7 293.89 45.78 293.9 45.8 C 294.4 44.3 295.8 43.6 297.5 43.6 C 297.52 43.58 298 43.6 298 43.6 L 298 45 Z M 300.6 49.7 C 300.6 52.5 302.3 53.8 304.3 53.8 C 305.8 53.8 307.3 53.1 307.6 51.5 C 307.6 51.5 309.1 51.5 309.1 51.5 C 308.6 54.1 306.4 55.2 304.2 55.2 C 301.6 55.2 299.1 53.4 299.1 49.4 C 299.1 45.3 301.6 43.5 304.3 43.5 C 307 43.5 309.2 45.2 309.2 49 C 309.16 48.95 309.2 49.7 309.2 49.7 C 309.2 49.7 300.57 49.71 300.6 49.7 Z M 300.6 48.4 C 300.6 48.4 307.6 48.4 307.6 48.4 C 307.6 46.1 306.1 44.9 304.2 44.9 C 302.5 44.9 300.8 46 300.6 48.4 Z " stroke="none" fill="#000"/>  </g>  <g id="Polygon11891">    <path d="M 4 4 L 6.9 4 L 3.9 17 L 11.1 17 L 10.5 19.8 L 0.3 19.8 L 4 4 Z M 23 13.1 C 23 17 20.4 20 16.8 20 C 14.2 20 12 18.4 12 14.9 C 12 11 14.6 8 18.1 8 C 20.8 8 23 9.7 23 13.1 Z M 18 10.6 C 16.2 10.6 14.8 12.4 14.8 14.8 C 14.8 16.7 15.7 17.5 17 17.5 C 18.8 17.5 20.2 15.6 20.2 13.3 C 20.2 11.4 19.3 10.6 18 10.6 Z M 35 13.1 C 35 17 32.5 20 28.9 20 C 26.2 20 24.1 18.4 24.1 14.9 C 24.1 11 26.7 8 30.2 8 C 32.9 8 35 9.7 35 13.1 Z M 30.1 10.6 C 28.3 10.6 26.9 12.4 26.9 14.8 C 26.9 16.7 27.8 17.5 29.1 17.5 C 30.9 17.5 32.3 15.6 32.3 13.3 C 32.3 11.4 31.4 10.6 30.1 10.6 Z M 42.9 13.3 L 46 19.8 L 43 19.8 L 40.8 15.1 L 39.2 16.5 L 38.4 19.8 L 35.6 19.8 L 39.3 3.8 L 42.1 3.8 L 40.1 12.4 L 45 8.2 L 48.8 8.2 L 42.9 13.3 Z M 65.9 14.7 C 65.9 17.2 63.5 19.8 59.7 19.8 C 59.66 19.8 53 19.8 53 19.8 L 56.6 4 C 56.6 4 62.54 4.03 62.5 4 C 65.3 4 66.7 5.8 66.7 7.7 C 66.7 9.3 65.7 11 63.8 11.6 C 65.1 12 65.9 13.3 65.9 14.7 Z M 63.8 8.3 C 63.8 7.5 63.1 6.8 61.9 6.8 C 61.87 6.76 58.9 6.8 58.9 6.8 L 58.1 10.4 C 58.1 10.4 61.19 10.35 61.2 10.4 C 62.9 10.4 63.8 9.3 63.8 8.3 Z M 62.9 14.7 C 62.9 13.7 62.2 12.9 60.9 12.9 C 60.92 12.85 57.5 12.9 57.5 12.9 L 56.5 17.1 C 56.5 17.1 59.93 17.05 59.9 17.1 C 61.9 17.1 62.9 15.8 62.9 14.7 Z M 78.4 13.1 C 78.4 17 75.9 20 72.3 20 C 69.6 20 67.5 18.4 67.5 14.9 C 67.5 11 70.1 8 73.6 8 C 76.3 8 78.4 9.7 78.4 13.1 Z M 73.5 10.6 C 71.6 10.6 70.2 12.4 70.2 14.8 C 70.2 16.7 71.2 17.5 72.4 17.5 C 74.3 17.5 75.6 15.6 75.6 13.3 C 75.6 11.4 74.7 10.6 73.5 10.6 Z M 89.8 15.7 C 89.8 16 89.7 16.2 89.7 16.5 C 89.7 16.9 89.9 17.3 90.6 17.3 C 90.64 17.28 92.1 17.3 92.1 17.3 L 91.5 19.8 C 91.5 19.8 89.52 19.78 89.5 19.8 C 87.7 19.8 86.9 18.5 86.9 17 C 86.9 16.6 86.9 16.3 87 15.9 C 87 15.94 88.2 10.7 88.2 10.7 L 84.1 10.7 C 84.1 10.7 82.93 15.73 82.9 15.7 C 82.9 16 82.8 16.2 82.8 16.5 C 82.8 16.9 83 17.3 83.7 17.3 C 83.75 17.28 85.2 17.3 85.2 17.3 L 84.7 19.8 C 84.7 19.8 82.63 19.78 82.6 19.8 C 80.8 19.8 80 18.5 80 17 C 80 16.6 80 16.3 80.1 15.9 C 80.11 15.94 81.3 10.7 81.3 10.7 L 79.3 10.7 L 79.9 8.2 L 81.9 8.2 L 82.6 5.4 L 85.5 4.7 L 84.7 8.2 L 88.8 8.2 L 89.4 5.4 L 92.4 4.7 L 91.6 8.2 L 94 8.2 L 93.4 10.7 L 91 10.7 C 91 10.7 89.82 15.73 89.8 15.7 Z M 104.5 13.1 C 104.5 17 102 20 98.4 20 C 95.7 20 93.6 18.4 93.6 14.9 C 93.6 11 96.2 8 99.7 8 C 102.4 8 104.5 9.7 104.5 13.1 Z M 99.6 10.6 C 97.8 10.6 96.3 12.4 96.3 14.8 C 96.3 16.7 97.3 17.5 98.6 17.5 C 100.4 17.5 101.8 15.6 101.8 13.3 C 101.8 11.4 100.8 10.6 99.6 10.6 Z M 122.6 11 C 122.6 11.3 122.5 11.6 122.5 11.9 C 122.47 11.93 120.7 19.8 120.7 19.8 L 117.9 19.8 C 117.9 19.8 119.64 12.26 119.6 12.3 C 119.7 12.1 119.7 11.9 119.7 11.8 C 119.7 11 119.3 10.5 118.3 10.5 C 117 10.5 116.2 11.4 115.8 13.3 C 115.81 13.25 114.3 19.8 114.3 19.8 L 111.5 19.8 C 111.5 19.8 113.25 12.26 113.3 12.3 C 113.3 12.1 113.3 11.9 113.3 11.8 C 113.3 11 112.9 10.5 111.9 10.5 C 110.5 10.5 109.8 11.7 109.4 13.2 C 109.41 13.23 107.9 19.8 107.9 19.8 L 105.1 19.8 L 107.8 8.2 L 110.5 8.2 C 110.5 8.2 110.16 9.66 110.2 9.7 C 110.6 8.9 111.6 8 113.2 8 C 114.7 8 115.7 8.8 115.8 10 C 116.5 8.8 117.5 8 119.3 8 C 121.7 8 122.6 9.4 122.6 11 Z M 130.1 14.4 L 123.6 14.4 L 124.2 11.9 L 130.7 11.9 L 130.1 14.4 Z M 137.7 20.2 C 134 20.2 131.5 17.5 132.4 13.4 C 132.42 13.38 134.6 4 134.6 4 L 137.5 4 C 137.5 4 135.34 13.59 135.3 13.6 C 134.7 16.3 136 17.4 138 17.4 C 140 17.4 141.3 16.3 141.8 14 C 141.79 13.99 144 4 144 4 L 146.9 4 C 146.9 4 144.63 14.2 144.6 14.2 C 143.7 18.4 140.8 20.2 137.7 20.2 Z M 158.2 12.9 C 158.2 16.2 156 19.9 152.4 19.9 C 150.7 19.9 149.5 19.1 149.2 17.8 C 149.18 17.81 147.7 24.1 147.7 24.1 L 145 24.1 L 148.6 8.2 L 151.3 8.2 C 151.3 8.2 151.01 9.64 151 9.6 C 151.7 8.6 152.5 8 154 8 C 156.8 8 158.2 10.4 158.2 12.9 Z M 155.4 13.3 C 155.4 11.8 154.7 10.5 153.3 10.5 C 151.6 10.5 149.9 12.2 149.9 14.7 C 149.9 16.7 151 17.4 152.2 17.4 C 154.2 17.4 155.4 15.2 155.4 13.3 Z M 167.7 16.5 C 167.7 16.9 167.9 17.3 168.6 17.3 C 168.61 17.28 170.1 17.3 170.1 17.3 L 169.5 19.8 C 169.5 19.8 167.49 19.78 167.5 19.8 C 165.7 19.8 164.8 18.5 164.8 17 C 164.8 16.6 164.9 16.3 165 15.9 C 164.97 15.94 166.2 10.7 166.2 10.7 L 164.2 10.7 L 164.7 8.2 L 166.8 8.2 L 167.4 5.4 L 170.3 4.7 L 169.5 8.2 L 171.9 8.2 L 171.4 10.7 L 168.9 10.7 C 168.9 10.7 167.79 15.73 167.8 15.7 C 167.7 16 167.7 16.2 167.7 16.5 Z M 182.5 13.1 C 182.5 17 179.9 20 176.4 20 C 173.7 20 171.6 18.4 171.6 14.9 C 171.6 11 174.2 8 177.7 8 C 180.4 8 182.5 9.7 182.5 13.1 Z M 177.6 10.6 C 175.7 10.6 174.3 12.4 174.3 14.8 C 174.3 16.7 175.3 17.5 176.5 17.5 C 178.4 17.5 179.7 15.6 179.7 13.3 C 179.7 11.4 178.8 10.6 177.6 10.6 Z M 192.4 4 L 202.8 4 L 202.1 6.8 L 194.7 6.8 L 193.8 10.4 L 200.9 10.4 L 200.3 13.2 L 193.2 13.2 L 191.7 19.8 L 188.8 19.8 L 192.4 4 Z M 203.9 6.7 L 204.7 3.5 L 207.7 3.5 L 207 6.7 L 203.9 6.7 Z M 201 19.8 L 203.7 8.2 L 206.5 8.2 L 203.8 19.8 L 201 19.8 Z M 218.3 11.4 C 218.3 11.7 218.3 12.1 218.2 12.3 C 218.19 12.35 216.5 19.8 216.5 19.8 L 213.7 19.8 C 213.7 19.8 215.37 12.49 215.4 12.5 C 215.4 12.3 215.4 12.1 215.4 11.9 C 215.4 11 214.8 10.5 213.8 10.5 C 212.4 10.5 211.4 11.5 210.9 13.4 C 210.94 13.36 209.5 19.8 209.5 19.8 L 206.7 19.8 L 209.3 8.2 L 212 8.2 C 212 8.2 211.61 9.87 211.6 9.9 C 212.1 9 213.2 8 214.9 8 C 217.3 8 218.3 9.7 218.3 11.4 Z M 228.9 19.8 L 226.3 19.8 C 226.3 19.8 226.73 18.06 226.7 18.1 C 226.1 19.2 224.9 20 223.4 20 C 220.9 20 219.5 17.7 219.5 15 C 219.5 11.7 221.4 8 225.4 8 C 227.3 8 228.1 8.9 228.5 9.7 C 228.46 9.74 229.8 3.8 229.8 3.8 L 232.6 3.8 L 228.9 19.8 Z M 227.7 13 C 227.7 11.3 226.8 10.4 225.6 10.4 C 223.9 10.4 222.3 12 222.3 14.8 C 222.3 16.3 222.8 17.5 224.3 17.5 C 226.3 17.5 227.7 15.1 227.7 13 Z M 243.5 19.8 L 240.5 19.8 L 243.5 6.8 L 238.6 6.8 L 239.3 4 L 252 4 L 251.3 6.8 L 246.5 6.8 L 243.5 19.8 Z M 258.3 10.8 C 258.3 10.8 257.42 10.77 257.4 10.8 C 255.6 10.8 254.3 11.8 253.8 13.9 C 253.85 13.88 252.5 19.8 252.5 19.8 L 249.7 19.8 L 252.4 8.2 L 255.1 8.2 C 255.1 8.2 254.69 10.21 254.7 10.2 C 255.3 8.9 256.3 8.1 257.7 8.1 C 257.69 8.06 258.9 8.1 258.9 8.1 L 258.3 10.8 Z M 267.1 19.8 L 264.4 19.8 C 264.4 19.8 264.83 17.95 264.8 18 C 264.3 19 263.3 19.9 261.6 19.9 C 259.1 19.9 257.9 18 258.4 15.6 C 258.44 15.6 260.2 8.2 260.2 8.2 L 262.9 8.2 C 262.9 8.2 261.26 15.52 261.3 15.5 C 261 16.4 261.3 17.4 262.7 17.4 C 264.2 17.4 265.1 16.2 265.6 13.9 C 265.61 13.92 266.9 8.2 266.9 8.2 L 269.7 8.2 L 267.1 19.8 Z M 272.8 15.2 C 272.8 16.3 273.4 17.6 275.1 17.6 C 276 17.6 276.9 17.2 277.3 16.1 C 277.3 16.1 280 16.1 280 16.1 C 279.2 18.7 277.1 20 274.8 20 C 271.9 20 270.2 17.9 270.2 14.8 C 270.2 11.1 272.6 8 276.3 8 C 279.4 8 280.6 10.2 280.6 12.8 C 280.6 13.4 280.6 14.2 280.4 14.8 C 280.4 14.8 272.8 14.8 272.8 14.8 C 272.8 15 272.8 15.1 272.8 15.2 Z M 273.1 12.8 C 273.1 12.8 278 12.8 278 12.8 C 278.1 12.6 278.1 12.5 278.1 12.4 C 278.1 11.2 277.3 10.4 276 10.4 C 274.7 10.4 273.6 11.1 273.1 12.8 Z M 293.9 19.8 L 291.1 19.8 L 288.3 4 L 291.4 4 L 293.1 15.3 L 298.8 4 L 302 4 L 293.9 19.8 Z M 310.3 11.4 C 310.3 11.7 310.3 12.1 310.2 12.4 C 310.17 12.39 308.5 19.8 308.5 19.8 L 305.9 19.8 C 305.9 19.8 306.24 18.19 306.2 18.2 C 305.5 19.4 304.2 20 302.9 20 C 301.2 20 299.6 19 299.6 16.8 C 299.6 14.5 301.4 13.3 303.5 13 C 303.5 13 306 12.7 306 12.7 C 307.2 12.5 307.7 12.1 307.7 11.4 C 307.7 10.5 306.9 10.2 306 10.2 C 305 10.2 303.9 10.7 303.7 11.9 C 303.7 11.9 301 11.9 301 11.9 C 301.7 9.2 303.8 8 306.4 8 C 309.2 8 310.3 9.5 310.3 11.4 Z M 305.7 14.6 C 305.7 14.6 304.5 14.8 304.5 14.8 C 303.2 15 302.3 15.5 302.3 16.6 C 302.3 17.5 302.9 17.7 303.8 17.7 C 305.2 17.7 306.4 17 306.9 14.7 C 306.9 14.7 307 14.3 307 14.3 C 306.5 14.5 306 14.6 305.7 14.6 Z M 314.6 3.8 L 317.4 3.8 L 313.7 19.8 L 310.9 19.8 L 314.6 3.8 Z M 325.7 19.8 L 323.1 19.8 C 323.1 19.8 323.48 17.95 323.5 18 C 322.9 19 321.9 19.9 320.3 19.9 C 317.8 19.9 316.6 18 317.1 15.6 C 317.1 15.6 318.8 8.2 318.8 8.2 L 321.6 8.2 C 321.6 8.2 319.91 15.52 319.9 15.5 C 319.7 16.4 320 17.4 321.3 17.4 C 322.8 17.4 323.7 16.2 324.3 13.9 C 324.26 13.92 325.6 8.2 325.6 8.2 L 328.4 8.2 L 325.7 19.8 Z M 331.4 15.2 C 331.4 16.3 332 17.6 333.7 17.6 C 334.7 17.6 335.5 17.2 335.9 16.1 C 335.9 16.1 338.7 16.1 338.7 16.1 C 337.8 18.7 335.7 20 333.4 20 C 330.6 20 328.9 17.9 328.9 14.8 C 328.9 11.1 331.3 8 334.9 8 C 338 8 339.3 10.2 339.3 12.8 C 339.3 13.4 339.2 14.2 339.1 14.8 C 339.1 14.8 331.4 14.8 331.4 14.8 C 331.4 15 331.4 15.1 331.4 15.2 Z M 331.8 12.8 C 331.8 12.8 336.7 12.8 336.7 12.8 C 336.7 12.6 336.7 12.5 336.7 12.4 C 336.7 11.2 336 10.4 334.6 10.4 C 333.4 10.4 332.3 11.1 331.8 12.8 Z " stroke="none" fill="#000"/>  </g></svg>