<?xml version="1.0" standalone="no"?><!DOCTYPE svg PUBLIC "-//W3C//DTD SVG 1.1//EN" "http://www.w3.org/Graphics/SVG/1.1/DTD/svg11.dtd"><svg xmlns="http://www.w3.org/2000/svg" version="1.1" width="51px" height="53.7px" viewBox="0 -1 51 53.7" style="top:-1px"><desc>4 2</desc><defs/><g id="Polygon13033"><path d="m22.9 27.7v4.3h-4v-4.3H8.8v-3.2l9.8-14.6h4.3V24h2.9v3.7h-2.9zm-4-3.7v-8.7L13.1 24h5.8zm8.3 3.4h4.5v4.6h-4.5v-4.6zM49.9 32H33.7v-3.7s5.38-4.46 5.4-4.5c4.1-3.4 5.9-5 5.9-7.3c0-2-1.5-3.2-3.6-3.2c-2.3 0-3.9 1.4-4 4h-4c0-5.1 3.8-7.8 8.3-7.8c4.1 0 7.5 2.3 7.5 6.6c0 3.9-2.8 6.5-6.7 9.7c-.03-.04-3.2 2.5-3.2 2.5h10.6v3.7z" stroke="none" fill="#000"/></g></svg>