<?xml version="1.0" standalone="no"?><!DOCTYPE svg PUBLIC "-//W3C//DTD SVG 1.1//EN" "http://www.w3.org/Graphics/SVG/1.1/DTD/svg11.dtd"><svg xmlns="http://www.w3.org/2000/svg" version="1.1" width="282.3px" height="117.4px" viewBox="0 0 282.3 117.4">  <desc>C mo tomar en consideraci n criterios ESG para los pa ses de mercados emergentes</desc>  <defs/>  <g id="Polygon11001">    <path d="M 17.7 87.6 C 17.72 87.57 17.7 95.4 17.7 95.4 L 14.9 95.4 C 14.9 95.4 14.93 88.12 14.9 88.1 C 14.9 86.7 14.3 86.1 13.1 86.1 C 11.8 86.1 10.9 86.9 10.9 88.9 C 10.94 88.87 10.9 95.4 10.9 95.4 L 8.1 95.4 C 8.1 95.4 8.15 88.12 8.1 88.1 C 8.1 86.7 7.5 86.1 6.3 86.1 C 5 86.1 4.2 86.9 4.2 88.9 C 4.16 88.85 4.2 95.4 4.2 95.4 L 1.4 95.4 L 1.4 83.8 L 4.1 83.8 C 4.1 83.8 4.12 85.49 4.1 85.5 C 4.5 84.6 5.4 83.6 7.1 83.6 C 8.6 83.6 9.8 84.3 10.3 85.5 C 10.8 84.7 11.6 83.6 13.7 83.6 C 16.1 83.6 17.7 85.1 17.7 87.6 Z M 22.3 90.4 C 22.4 92.3 23.7 93.2 25.3 93.2 C 26.4 93.2 27.4 92.8 27.8 91.7 C 27.8 91.7 30.3 91.7 30.3 91.7 C 29.8 94.3 27.6 95.6 25.2 95.6 C 22.4 95.6 19.6 93.7 19.6 89.6 C 19.6 85.6 22.2 83.6 25.2 83.6 C 28 83.6 30.4 85.4 30.4 89.3 C 30.39 89.29 30.4 90.4 30.4 90.4 C 30.4 90.4 22.32 90.43 22.3 90.4 Z M 22.4 88.4 C 22.4 88.4 27.7 88.4 27.7 88.4 C 27.7 86.9 26.6 86 25.2 86 C 23.9 86 22.6 86.7 22.4 88.4 Z M 38.9 86.4 C 38.9 86.4 38.2 86.37 38.2 86.4 C 36.2 86.4 35.2 87.4 35.2 89.7 C 35.17 89.71 35.2 95.4 35.2 95.4 L 32.4 95.4 L 32.4 83.8 L 35.2 83.8 C 35.2 83.8 35.15 85.45 35.2 85.4 C 35.7 84.2 36.8 83.7 38.2 83.7 C 38.18 83.66 38.9 83.7 38.9 83.7 L 38.9 86.4 Z M 45 95.6 C 41.2 95.6 39.4 92.7 39.4 89.6 C 39.4 86.5 41.2 83.6 45 83.6 C 47.8 83.6 50 85.2 50.1 88 C 50.1 88 47.4 88 47.4 88 C 47.2 86.9 46.4 86.1 45 86.1 C 43 86.1 42.2 87.8 42.2 89.6 C 42.2 91.5 43 93 45 93 C 46.4 93 47.2 92.3 47.4 91.3 C 47.4 91.3 50.1 91.3 50.1 91.3 C 49.8 94.1 47.8 95.6 45 95.6 Z M 61.4 87.6 C 61.42 87.59 61.4 95.4 61.4 95.4 L 58.7 95.4 C 58.7 95.4 58.69 93.7 58.7 93.7 C 57.8 95.2 56.4 95.6 55.2 95.6 C 53.3 95.6 51.4 94.5 51.4 92 C 51.4 90.2 52.5 89 55.1 88.6 C 55.1 88.6 57.6 88.2 57.6 88.2 C 58.3 88.1 58.8 87.9 58.8 87.2 C 58.8 86.2 58 85.8 56.8 85.8 C 55.4 85.8 54.7 86.5 54.6 87.5 C 54.6 87.5 51.9 87.5 51.9 87.5 C 52.2 84.8 54.3 83.6 57 83.6 C 59.7 83.6 61.4 84.9 61.4 87.6 Z M 58.7 90.5 C 58.7 90.5 58.7 89.9 58.7 89.9 C 58.4 90 57.9 90.2 57.4 90.2 C 57.4 90.2 56.1 90.4 56.1 90.4 C 54.7 90.6 54.2 91.2 54.2 91.9 C 54.2 92.8 54.9 93.3 55.8 93.3 C 57.3 93.3 58.7 92.2 58.7 90.5 Z M 74.6 95.4 L 71.9 95.4 C 71.9 95.4 71.86 93.6 71.9 93.6 C 71.2 94.9 69.9 95.6 68.3 95.6 C 65.6 95.6 63.2 93.6 63.2 89.6 C 63.2 85.6 65.6 83.6 68.3 83.6 C 69.8 83.6 71.1 84.2 71.8 85.3 C 71.8 85.32 71.8 79.4 71.8 79.4 L 74.6 79.4 L 74.6 95.4 Z M 71.9 89.6 C 71.9 87.2 70.5 86.1 68.9 86.1 C 67.4 86.1 66 87.2 66 89.6 C 66 91.9 67.4 93.1 68.9 93.1 C 70.5 93.1 71.9 91.9 71.9 89.6 Z M 87.9 89.6 C 87.9 93.4 85.5 95.6 82.2 95.6 C 79 95.6 76.6 93.4 76.6 89.6 C 76.6 85.8 79 83.6 82.2 83.6 C 85.5 83.6 87.9 85.8 87.9 89.6 Z M 79.4 89.6 C 79.4 91.9 80.7 93 82.3 93 C 83.9 93 85 91.8 85 89.6 C 85 87.3 83.8 86.2 82.2 86.2 C 80.6 86.2 79.4 87.4 79.4 89.6 Z M 99.2 91.8 C 99.2 94.4 96.9 95.6 94.2 95.6 C 91.9 95.6 89.2 94.6 89.1 91.7 C 89.1 91.7 91.9 91.7 91.9 91.7 C 92.1 92.8 93.1 93.3 94.4 93.3 C 95.6 93.3 96.4 92.9 96.4 92.1 C 96.4 91.3 95.9 91.2 94.3 90.9 C 92 90.5 89.4 90.1 89.4 87.3 C 89.4 84.7 91.6 83.6 94 83.6 C 96.7 83.6 98.7 84.9 98.9 87.5 C 98.9 87.5 96.2 87.5 96.2 87.5 C 96.1 86.4 95.2 85.9 94.1 85.9 C 92.7 85.9 92.1 86.5 92.1 87.2 C 92.1 88.1 93.2 88.3 94.6 88.5 C 96.6 88.8 99.2 89.1 99.2 91.8 Z M 107.9 90.4 C 107.9 92.3 109.3 93.2 110.8 93.2 C 111.9 93.2 113 92.8 113.3 91.7 C 113.3 91.7 115.9 91.7 115.9 91.7 C 115.4 94.3 113.1 95.6 110.7 95.6 C 107.9 95.6 105.1 93.7 105.1 89.6 C 105.1 85.6 107.8 83.6 110.7 83.6 C 113.5 83.6 115.9 85.4 115.9 89.3 C 115.92 89.29 115.9 90.4 115.9 90.4 C 115.9 90.4 107.86 90.43 107.9 90.4 Z M 107.9 88.4 C 107.9 88.4 113.2 88.4 113.2 88.4 C 113.2 86.9 112.1 86 110.7 86 C 109.4 86 108.2 86.7 107.9 88.4 Z M 134.3 87.6 C 134.27 87.57 134.3 95.4 134.3 95.4 L 131.5 95.4 C 131.5 95.4 131.48 88.12 131.5 88.1 C 131.5 86.7 130.8 86.1 129.7 86.1 C 128.4 86.1 127.5 86.9 127.5 88.9 C 127.49 88.87 127.5 95.4 127.5 95.4 L 124.7 95.4 C 124.7 95.4 124.7 88.12 124.7 88.1 C 124.7 86.7 124 86.1 122.9 86.1 C 121.6 86.1 120.7 86.9 120.7 88.9 C 120.71 88.85 120.7 95.4 120.7 95.4 L 117.9 95.4 L 117.9 83.8 L 120.7 83.8 C 120.7 83.8 120.67 85.49 120.7 85.5 C 121 84.6 121.9 83.6 123.7 83.6 C 125.2 83.6 126.3 84.3 126.9 85.5 C 127.3 84.7 128.1 83.6 130.2 83.6 C 132.7 83.6 134.3 85.1 134.3 87.6 Z M 138.9 90.4 C 138.9 92.3 140.3 93.2 141.9 93.2 C 142.9 93.2 144 92.8 144.3 91.7 C 144.3 91.7 146.9 91.7 146.9 91.7 C 146.4 94.3 144.1 95.6 141.7 95.6 C 138.9 95.6 136.2 93.7 136.2 89.6 C 136.2 85.6 138.8 83.6 141.7 83.6 C 144.6 83.6 146.9 85.4 146.9 89.3 C 146.94 89.29 146.9 90.4 146.9 90.4 C 146.9 90.4 138.87 90.43 138.9 90.4 Z M 138.9 88.4 C 138.9 88.4 144.2 88.4 144.2 88.4 C 144.2 86.9 143.1 86 141.7 86 C 140.4 86 139.2 86.7 138.9 88.4 Z M 155.5 86.4 C 155.5 86.4 154.75 86.37 154.7 86.4 C 152.8 86.4 151.7 87.4 151.7 89.7 C 151.72 89.71 151.7 95.4 151.7 95.4 L 148.9 95.4 L 148.9 83.8 L 151.7 83.8 C 151.7 83.8 151.7 85.45 151.7 85.4 C 152.3 84.2 153.4 83.7 154.7 83.7 C 154.73 83.66 155.5 83.7 155.5 83.7 L 155.5 86.4 Z M 167.1 94.6 C 167.1 98.3 164.7 100 161.6 100 C 158.7 100 156.4 98.6 156.1 95.7 C 156.1 95.7 158.8 95.7 158.8 95.7 C 159.1 97.2 160.3 97.6 161.6 97.6 C 163.4 97.6 164.4 96.7 164.4 94.9 C 164.4 94.9 164.4 93 164.4 93 C 163.9 94.2 162.7 95 161 95 C 158.4 95 155.9 93.2 155.9 89.3 C 155.9 85.4 158.4 83.6 161 83.6 C 162.6 83.6 163.8 84.3 164.4 85.4 C 164.39 85.41 164.4 83.8 164.4 83.8 L 167.1 83.8 C 167.1 83.8 167.08 94.6 167.1 94.6 Z M 164.3 89.3 C 164.3 87.1 163.1 86 161.6 86 C 160 86 158.7 87.1 158.7 89.3 C 158.7 91.5 160 92.5 161.6 92.5 C 163.1 92.5 164.3 91.5 164.3 89.3 Z M 171.7 90.4 C 171.7 92.3 173.1 93.2 174.7 93.2 C 175.7 93.2 176.8 92.8 177.1 91.7 C 177.1 91.7 179.7 91.7 179.7 91.7 C 179.2 94.3 176.9 95.6 174.5 95.6 C 171.7 95.6 169 93.7 169 89.6 C 169 85.6 171.6 83.6 174.6 83.6 C 177.4 83.6 179.7 85.4 179.7 89.3 C 179.74 89.29 179.7 90.4 179.7 90.4 C 179.7 90.4 171.67 90.43 171.7 90.4 Z M 171.7 88.4 C 171.7 88.4 177 88.4 177 88.4 C 177 86.9 175.9 86 174.5 86 C 173.2 86 172 86.7 171.7 88.4 Z M 191.9 87.9 C 191.92 87.91 191.9 95.4 191.9 95.4 L 189.1 95.4 C 189.1 95.4 189.13 88.16 189.1 88.2 C 189.1 86.9 188.4 86.1 187.1 86.1 C 185.5 86.1 184.5 87.2 184.5 89.1 C 184.53 89.12 184.5 95.4 184.5 95.4 L 181.7 95.4 L 181.7 83.8 L 184.5 83.8 C 184.5 83.8 184.51 85.47 184.5 85.5 C 185.2 84.4 186.1 83.6 188 83.6 C 190.7 83.6 191.9 85.1 191.9 87.9 Z M 200.5 95.4 C 200.5 95.4 198.64 95.38 198.6 95.4 C 196.5 95.4 195.1 94.7 195.1 91.6 C 195.09 91.6 195.1 86.3 195.1 86.3 L 193 86.3 L 193 83.8 L 195.1 83.8 L 195.1 81.2 L 197.9 80.4 L 197.9 83.8 L 200.2 83.8 L 200.2 86.3 L 197.9 86.3 C 197.9 86.3 197.88 91.73 197.9 91.7 C 197.9 92.4 198.1 92.9 199.1 92.9 C 199.06 92.9 200.5 92.9 200.5 92.9 L 200.5 95.4 Z M 204 90.4 C 204.1 92.3 205.4 93.2 207 93.2 C 208.1 93.2 209.1 92.8 209.5 91.7 C 209.5 91.7 212 91.7 212 91.7 C 211.5 94.3 209.2 95.6 206.9 95.6 C 204.1 95.6 201.3 93.7 201.3 89.6 C 201.3 85.6 203.9 83.6 206.9 83.6 C 209.7 83.6 212.1 85.4 212.1 89.3 C 212.08 89.29 212.1 90.4 212.1 90.4 C 212.1 90.4 204.01 90.43 204 90.4 Z M 204.1 88.4 C 204.1 88.4 209.3 88.4 209.3 88.4 C 209.3 86.9 208.3 86 206.8 86 C 205.6 86 204.3 86.7 204.1 88.4 Z M 223.3 91.8 C 223.3 94.4 221 95.6 218.4 95.6 C 216 95.6 213.4 94.6 213.2 91.7 C 213.2 91.7 216 91.7 216 91.7 C 216.2 92.8 217.3 93.3 218.6 93.3 C 219.7 93.3 220.6 92.9 220.6 92.1 C 220.6 91.3 220 91.2 218.4 90.9 C 216.2 90.5 213.6 90.1 213.6 87.3 C 213.6 84.7 215.8 83.6 218.2 83.6 C 220.9 83.6 222.9 84.9 223.1 87.5 C 223.1 87.5 220.3 87.5 220.3 87.5 C 220.2 86.4 219.4 85.9 218.2 85.9 C 216.8 85.9 216.3 86.5 216.3 87.2 C 216.3 88.1 217.3 88.3 218.7 88.5 C 220.8 88.8 223.3 89.1 223.3 91.8 Z M 228 89.8 C 228 87.1 229.3 86.6 230.6 85.7 C 231.6 85 232 84.4 232 83.6 C 232 82.4 231.2 81.8 230 81.8 C 228.5 81.8 227.6 82.6 227.5 84 C 227.5 84 224.7 84 224.7 84 C 225 80.6 227.4 79.4 230 79.4 C 232.8 79.4 235 80.7 235 83.5 C 235 85.7 233.7 86.6 232.2 87.6 C 231.2 88.4 230.7 88.9 230.7 89.8 C 230.66 89.84 230.7 90.5 230.7 90.5 L 228 90.5 C 228 90.5 228 89.75 228 89.8 Z M 227.8 92.1 L 230.9 92.1 L 230.9 95.4 L 227.8 95.4 L 227.8 92.1 Z " stroke="none" fill="#000"/>  </g>  <g id="Polygon11000">    <path d="M 1.6 70.2 L 1.6 54.4 L 12.2 54.4 L 12.2 57.2 L 4.5 57.2 L 4.5 60.8 L 11.8 60.8 L 11.8 63.6 L 4.5 63.6 L 4.5 67.4 L 12.6 67.4 L 12.6 70.2 L 1.6 70.2 Z M 20.2 70.6 C 17 70.6 13.7 68.8 13.7 64.8 C 13.7 64.8 16.7 64.8 16.7 64.8 C 16.8 67.2 18.5 68.1 20.2 68.1 C 21.7 68.1 23.1 67.3 23.1 66 C 23.1 64.4 21.3 64 19.5 63.6 C 17.2 63.1 14.3 62.3 14.3 58.9 C 14.3 55.6 16.9 54.1 20 54.1 C 22.9 54.1 25.7 55.6 25.7 58.8 C 25.7 58.8 22.8 58.8 22.8 58.8 C 22.7 57.2 21.3 56.6 19.8 56.6 C 18.3 56.6 17.1 57.3 17.1 58.7 C 17.1 60.2 18.6 60.6 20.4 61 C 22.4 61.5 26 62.1 26 65.8 C 26 68.9 23.3 70.6 20.2 70.6 Z M 42.1 61.7 L 42.1 70.2 L 39.4 70.2 C 39.4 70.2 39.42 68.38 39.4 68.4 C 38.8 69.4 37.4 70.6 34.8 70.6 C 30.4 70.6 27.6 67.1 27.6 62.4 C 27.6 58.1 30 54.1 35.3 54.1 C 39 54.1 41.7 56.1 42.1 59.7 C 42.1 59.7 39.2 59.7 39.2 59.7 C 39 57.9 37.3 56.8 35.2 56.8 C 32 56.8 30.5 59.3 30.5 62.3 C 30.5 65.6 32.2 67.9 35.3 67.9 C 37.4 67.9 39.2 66.8 39.4 64.5 C 39.44 64.47 34.8 64.5 34.8 64.5 L 34.8 61.7 L 42.1 61.7 Z M 62 64.2 C 62 68.4 59.4 70.3 56.7 70.3 C 55.2 70.3 54.1 69.6 53.4 68.8 C 53.44 68.8 53.4 74.5 53.4 74.5 L 50.7 74.5 L 50.7 58.6 L 53.4 58.6 C 53.4 58.6 53.38 60.44 53.4 60.4 C 54 59.2 55.3 58.4 57 58.4 C 59.7 58.4 62 60.3 62 64.2 Z M 59.2 64.4 C 59.2 62 57.8 60.9 56.3 60.9 C 54.8 60.9 53.4 62 53.4 64.4 C 53.4 66.7 54.8 67.8 56.3 67.8 C 57.8 67.8 59.2 66.7 59.2 64.4 Z M 73.3 62.4 C 73.29 62.39 73.3 70.2 73.3 70.2 L 70.6 70.2 C 70.6 70.2 70.56 68.5 70.6 68.5 C 69.7 70 68.3 70.4 67.1 70.4 C 65.2 70.4 63.3 69.3 63.3 66.8 C 63.3 65 64.3 63.8 67 63.4 C 67 63.4 69.5 63 69.5 63 C 70.2 62.9 70.7 62.7 70.7 62 C 70.7 61 69.8 60.6 68.7 60.6 C 67.2 60.6 66.5 61.3 66.4 62.3 C 66.4 62.3 63.8 62.3 63.8 62.3 C 64 59.6 66.2 58.4 68.8 58.4 C 71.6 58.4 73.3 59.7 73.3 62.4 Z M 70.6 65.3 C 70.6 65.3 70.6 64.7 70.6 64.7 C 70.3 64.8 69.8 65 69.2 65 C 69.2 65 68 65.2 68 65.2 C 66.5 65.4 66.1 66 66.1 66.7 C 66.1 67.6 66.7 68.1 67.7 68.1 C 69.2 68.1 70.6 67 70.6 65.3 Z M 82.4 61.2 C 82.4 61.2 81.63 61.17 81.6 61.2 C 79.7 61.2 78.6 62.2 78.6 64.5 C 78.6 64.51 78.6 70.2 78.6 70.2 L 75.8 70.2 L 75.8 58.6 L 78.6 58.6 C 78.6 58.6 78.58 60.25 78.6 60.2 C 79.2 59 80.2 58.5 81.6 58.5 C 81.61 58.46 82.4 58.5 82.4 58.5 L 82.4 61.2 Z M 93 62.4 C 92.99 62.39 93 70.2 93 70.2 L 90.3 70.2 C 90.3 70.2 90.26 68.5 90.3 68.5 C 89.4 70 88 70.4 86.7 70.4 C 84.9 70.4 83 69.3 83 66.8 C 83 65 84 63.8 86.7 63.4 C 86.7 63.4 89.2 63 89.2 63 C 89.9 62.9 90.4 62.7 90.4 62 C 90.4 61 89.5 60.6 88.4 60.6 C 86.9 60.6 86.2 61.3 86.1 62.3 C 86.1 62.3 83.5 62.3 83.5 62.3 C 83.7 59.6 85.9 58.4 88.5 58.4 C 91.3 58.4 93 59.7 93 62.4 Z M 90.3 65.3 C 90.3 65.3 90.3 64.7 90.3 64.7 C 90 64.8 89.5 65 88.9 65 C 88.9 65 87.7 65.2 87.7 65.2 C 86.2 65.4 85.8 66 85.8 66.7 C 85.8 67.6 86.4 68.1 87.4 68.1 C 88.8 68.1 90.3 67 90.3 65.3 Z M 103.5 70.2 L 100.8 70.2 L 100.8 54.2 L 103.5 54.2 L 103.5 70.2 Z M 116.9 64.4 C 116.9 68.2 114.4 70.4 111.2 70.4 C 108 70.4 105.5 68.2 105.5 64.4 C 105.5 60.6 108 58.4 111.2 58.4 C 114.4 58.4 116.9 60.6 116.9 64.4 Z M 108.4 64.4 C 108.4 66.7 109.7 67.8 111.2 67.8 C 112.9 67.8 114 66.6 114 64.4 C 114 62.1 112.7 61 111.2 61 C 109.5 61 108.4 62.2 108.4 64.4 Z M 128.1 66.6 C 128.1 69.2 125.8 70.4 123.2 70.4 C 120.8 70.4 118.2 69.4 118 66.5 C 118 66.5 120.8 66.5 120.8 66.5 C 121 67.6 122.1 68.1 123.4 68.1 C 124.5 68.1 125.4 67.7 125.4 66.9 C 125.4 66.1 124.8 66 123.2 65.7 C 121 65.3 118.4 64.9 118.4 62.1 C 118.4 59.5 120.6 58.4 123 58.4 C 125.7 58.4 127.7 59.7 127.8 62.3 C 127.8 62.3 125.1 62.3 125.1 62.3 C 125 61.2 124.2 60.7 123 60.7 C 121.6 60.7 121.1 61.3 121.1 62 C 121.1 62.9 122.1 63.1 123.5 63.3 C 125.6 63.6 128.1 63.9 128.1 66.6 Z M 146.6 64.2 C 146.6 68.4 144 70.3 141.3 70.3 C 139.8 70.3 138.7 69.6 138.1 68.8 C 138.05 68.8 138.1 74.5 138.1 74.5 L 135.3 74.5 L 135.3 58.6 L 138 58.6 C 138 58.6 137.99 60.44 138 60.4 C 138.6 59.2 139.9 58.4 141.6 58.4 C 144.3 58.4 146.6 60.3 146.6 64.2 Z M 143.8 64.4 C 143.8 62 142.4 60.9 140.9 60.9 C 139.4 60.9 138 62 138 64.4 C 138 66.7 139.4 67.8 140.9 67.8 C 142.4 67.8 143.8 66.7 143.8 64.4 Z M 157.9 62.4 C 157.9 62.39 157.9 70.2 157.9 70.2 L 155.2 70.2 C 155.2 70.2 155.17 68.5 155.2 68.5 C 154.3 70 152.9 70.4 151.7 70.4 C 149.8 70.4 147.9 69.3 147.9 66.8 C 147.9 65 148.9 63.8 151.6 63.4 C 151.6 63.4 154.1 63 154.1 63 C 154.8 62.9 155.3 62.7 155.3 62 C 155.3 61 154.4 60.6 153.3 60.6 C 151.8 60.6 151.2 61.3 151.1 62.3 C 151.1 62.3 148.4 62.3 148.4 62.3 C 148.7 59.6 150.8 58.4 153.4 58.4 C 156.2 58.4 157.9 59.7 157.9 62.4 Z M 155.2 65.3 C 155.2 65.3 155.2 64.7 155.2 64.7 C 154.9 64.8 154.4 65 153.8 65 C 153.8 65 152.6 65.2 152.6 65.2 C 151.2 65.4 150.7 66 150.7 66.7 C 150.7 67.6 151.3 68.1 152.3 68.1 C 153.8 68.1 155.2 67 155.2 65.3 Z M 160.5 56.5 L 163.7 51.5 L 165.9 53.2 L 162.9 56.5 L 160.5 56.5 Z M 160.4 58.6 L 163.2 58.6 L 163.2 70.2 L 160.4 70.2 L 160.4 58.6 Z M 175.2 66.6 C 175.2 69.2 172.8 70.4 170.2 70.4 C 167.9 70.4 165.2 69.4 165.1 66.5 C 165.1 66.5 167.9 66.5 167.9 66.5 C 168.1 67.6 169.1 68.1 170.4 68.1 C 171.6 68.1 172.4 67.7 172.4 66.9 C 172.4 66.1 171.9 66 170.3 65.7 C 168 65.3 165.4 64.9 165.4 62.1 C 165.4 59.5 167.6 58.4 170 58.4 C 172.7 58.4 174.7 59.7 174.9 62.3 C 174.9 62.3 172.2 62.3 172.2 62.3 C 172.1 61.2 171.2 60.7 170.1 60.7 C 168.7 60.7 168.1 61.3 168.1 62 C 168.1 62.9 169.2 63.1 170.6 63.3 C 172.6 63.6 175.2 63.9 175.2 66.6 Z M 179 65.2 C 179.1 67.1 180.4 68 182 68 C 183.1 68 184.1 67.6 184.5 66.5 C 184.5 66.5 187 66.5 187 66.5 C 186.5 69.1 184.3 70.4 181.9 70.4 C 179.1 70.4 176.3 68.5 176.3 64.4 C 176.3 60.4 178.9 58.4 181.9 58.4 C 184.7 58.4 187.1 60.2 187.1 64.1 C 187.09 64.09 187.1 65.2 187.1 65.2 C 187.1 65.2 179.02 65.23 179 65.2 Z M 179.1 63.2 C 179.1 63.2 184.4 63.2 184.4 63.2 C 184.4 61.7 183.3 60.8 181.9 60.8 C 180.6 60.8 179.3 61.5 179.1 63.2 Z M 198.3 66.6 C 198.3 69.2 196 70.4 193.4 70.4 C 191 70.4 188.4 69.4 188.2 66.5 C 188.2 66.5 191.1 66.5 191.1 66.5 C 191.2 67.6 192.3 68.1 193.6 68.1 C 194.8 68.1 195.6 67.7 195.6 66.9 C 195.6 66.1 195 66 193.4 65.7 C 191.2 65.3 188.6 64.9 188.6 62.1 C 188.6 59.5 190.8 58.4 193.2 58.4 C 195.9 58.4 197.9 59.7 198.1 62.3 C 198.1 62.3 195.3 62.3 195.3 62.3 C 195.2 61.2 194.4 60.7 193.2 60.7 C 191.9 60.7 191.3 61.3 191.3 62 C 191.3 62.9 192.3 63.1 193.7 63.3 C 195.8 63.6 198.3 63.9 198.3 66.6 Z M 215.7 70.2 L 213 70.2 C 213 70.2 212.98 68.4 213 68.4 C 212.3 69.7 211 70.4 209.4 70.4 C 206.7 70.4 204.3 68.4 204.3 64.4 C 204.3 60.4 206.7 58.4 209.4 58.4 C 210.9 58.4 212.2 59 212.9 60.1 C 212.92 60.12 212.9 54.2 212.9 54.2 L 215.7 54.2 L 215.7 70.2 Z M 213 64.4 C 213 62 211.6 60.9 210.1 60.9 C 208.5 60.9 207.2 62 207.2 64.4 C 207.2 66.7 208.5 67.9 210.1 67.9 C 211.6 67.9 213 66.7 213 64.4 Z M 220.4 65.2 C 220.5 67.1 221.8 68 223.4 68 C 224.5 68 225.5 67.6 225.9 66.5 C 225.9 66.5 228.4 66.5 228.4 66.5 C 227.9 69.1 225.6 70.4 223.3 70.4 C 220.5 70.4 217.7 68.5 217.7 64.4 C 217.7 60.4 220.3 58.4 223.3 58.4 C 226.1 58.4 228.5 60.2 228.5 64.1 C 228.48 64.09 228.5 65.2 228.5 65.2 C 228.5 65.2 220.41 65.23 220.4 65.2 Z M 220.5 63.2 C 220.5 63.2 225.7 63.2 225.7 63.2 C 225.7 61.7 224.7 60.8 223.2 60.8 C 222 60.8 220.7 61.5 220.5 63.2 Z " stroke="none" fill="#000"/>  </g>  <g id="Polygon10999">    <path d="M 6.3 45.2 C 2.5 45.2 0.6 42.3 0.6 39.2 C 0.6 36.1 2.4 33.2 6.2 33.2 C 9.1 33.2 11.3 34.8 11.4 37.6 C 11.4 37.6 8.6 37.6 8.6 37.6 C 8.5 36.5 7.7 35.7 6.3 35.7 C 4.3 35.7 3.4 37.4 3.4 39.2 C 3.4 41.1 4.3 42.6 6.3 42.6 C 7.6 42.6 8.5 41.9 8.7 40.9 C 8.7 40.9 11.4 40.9 11.4 40.9 C 11.1 43.7 9.1 45.2 6.3 45.2 Z M 24 39.2 C 24 43 21.6 45.2 18.4 45.2 C 15.1 45.2 12.7 43 12.7 39.2 C 12.7 35.4 15.1 33.2 18.4 33.2 C 21.6 33.2 24 35.4 24 39.2 Z M 15.6 39.2 C 15.6 41.5 16.8 42.6 18.4 42.6 C 20.1 42.6 21.2 41.4 21.2 39.2 C 21.2 36.9 19.9 35.8 18.3 35.8 C 16.7 35.8 15.6 37 15.6 39.2 Z M 36.2 37.5 C 36.2 37.51 36.2 45 36.2 45 L 33.4 45 C 33.4 45 33.41 37.76 33.4 37.8 C 33.4 36.5 32.7 35.7 31.4 35.7 C 29.8 35.7 28.8 36.8 28.8 38.7 C 28.81 38.72 28.8 45 28.8 45 L 26 45 L 26 33.4 L 28.8 33.4 C 28.8 33.4 28.79 35.07 28.8 35.1 C 29.4 34 30.4 33.2 32.3 33.2 C 35 33.2 36.2 34.7 36.2 37.5 Z M 48.1 41.4 C 48.1 44 45.8 45.2 43.2 45.2 C 40.8 45.2 38.2 44.2 38 41.3 C 38 41.3 40.8 41.3 40.8 41.3 C 41 42.4 42 42.9 43.3 42.9 C 44.5 42.9 45.3 42.5 45.3 41.7 C 45.3 40.9 44.8 40.8 43.2 40.5 C 40.9 40.1 38.3 39.7 38.3 36.9 C 38.3 34.3 40.6 33.2 42.9 33.2 C 45.7 33.2 47.6 34.5 47.8 37.1 C 47.8 37.1 45.1 37.1 45.1 37.1 C 45 36 44.2 35.5 43 35.5 C 41.6 35.5 41.1 36.1 41.1 36.8 C 41.1 37.7 42.1 37.9 43.5 38.1 C 45.6 38.4 48.1 38.7 48.1 41.4 Z M 49.9 31.9 L 52.8 31.9 L 52.8 28.7 L 49.9 28.7 L 49.9 31.9 Z M 50 33.4 L 52.8 33.4 L 52.8 45 L 50 45 L 50 33.4 Z M 66.1 45 L 63.4 45 C 63.4 45 63.38 43.2 63.4 43.2 C 62.7 44.5 61.4 45.2 59.8 45.2 C 57.1 45.2 54.7 43.2 54.7 39.2 C 54.7 35.2 57.1 33.2 59.8 33.2 C 61.3 33.2 62.6 33.8 63.3 34.9 C 63.31 34.92 63.3 29 63.3 29 L 66.1 29 L 66.1 45 Z M 63.4 39.2 C 63.4 36.8 62 35.7 60.5 35.7 C 58.9 35.7 57.6 36.8 57.6 39.2 C 57.6 41.5 58.9 42.7 60.5 42.7 C 62 42.7 63.4 41.5 63.4 39.2 Z M 70.8 40 C 70.9 41.9 72.2 42.8 73.8 42.8 C 74.9 42.8 75.9 42.4 76.3 41.3 C 76.3 41.3 78.8 41.3 78.8 41.3 C 78.3 43.9 76 45.2 73.7 45.2 C 70.9 45.2 68.1 43.3 68.1 39.2 C 68.1 35.2 70.7 33.2 73.7 33.2 C 76.5 33.2 78.9 35 78.9 38.9 C 78.87 38.89 78.9 40 78.9 40 C 78.9 40 70.81 40.03 70.8 40 Z M 70.9 38 C 70.9 38 76.1 38 76.1 38 C 76.1 36.5 75.1 35.6 73.6 35.6 C 72.4 35.6 71.1 36.3 70.9 38 Z M 87.4 36 C 87.4 36 86.69 35.97 86.7 36 C 84.7 36 83.7 37 83.7 39.3 C 83.66 39.31 83.7 45 83.7 45 L 80.9 45 L 80.9 33.4 L 83.6 33.4 C 83.6 33.4 83.64 35.05 83.6 35 C 84.2 33.8 85.3 33.3 86.7 33.3 C 86.67 33.26 87.4 33.3 87.4 33.3 L 87.4 36 Z M 98 37.2 C 98.05 37.19 98 45 98 45 L 95.3 45 C 95.3 45 95.32 43.3 95.3 43.3 C 94.4 44.8 93 45.2 91.8 45.2 C 90 45.2 88.1 44.1 88.1 41.6 C 88.1 39.8 89.1 38.6 91.7 38.2 C 91.7 38.2 94.2 37.8 94.2 37.8 C 94.9 37.7 95.4 37.5 95.4 36.8 C 95.4 35.8 94.6 35.4 93.5 35.4 C 92 35.4 91.3 36.1 91.2 37.1 C 91.2 37.1 88.5 37.1 88.5 37.1 C 88.8 34.4 91 33.2 93.6 33.2 C 96.3 33.2 98 34.5 98 37.2 Z M 95.3 40.1 C 95.3 40.1 95.3 39.5 95.3 39.5 C 95.1 39.6 94.5 39.8 94 39.8 C 94 39.8 92.7 40 92.7 40 C 91.3 40.2 90.8 40.8 90.8 41.5 C 90.8 42.4 91.5 42.9 92.5 42.9 C 93.9 42.9 95.3 41.8 95.3 40.1 Z M 105.5 45.2 C 101.7 45.2 99.8 42.3 99.8 39.2 C 99.8 36.1 101.6 33.2 105.4 33.2 C 108.3 33.2 110.5 34.8 110.6 37.6 C 110.6 37.6 107.8 37.6 107.8 37.6 C 107.7 36.5 106.9 35.7 105.5 35.7 C 103.5 35.7 102.6 37.4 102.6 39.2 C 102.6 41.1 103.5 42.6 105.5 42.6 C 106.8 42.6 107.7 41.9 107.9 40.9 C 107.9 40.9 110.6 40.9 110.6 40.9 C 110.3 43.7 108.3 45.2 105.5 45.2 Z M 112.5 31.9 L 115.5 31.9 L 115.5 28.7 L 112.5 28.7 L 112.5 31.9 Z M 112.6 33.4 L 115.4 33.4 L 115.4 45 L 112.6 45 L 112.6 33.4 Z M 121.8 31.3 L 125 26.3 L 127.2 28 L 124.1 31.3 L 121.8 31.3 Z M 128.7 39.2 C 128.7 43 126.3 45.2 123 45.2 C 119.8 45.2 117.4 43 117.4 39.2 C 117.4 35.4 119.8 33.2 123 33.2 C 126.3 33.2 128.7 35.4 128.7 39.2 Z M 120.2 39.2 C 120.2 41.5 121.5 42.6 123.1 42.6 C 124.7 42.6 125.9 41.4 125.9 39.2 C 125.9 36.9 124.6 35.8 123 35.8 C 121.4 35.8 120.2 37 120.2 39.2 Z M 140.9 37.5 C 140.89 37.51 140.9 45 140.9 45 L 138.1 45 C 138.1 45 138.09 37.76 138.1 37.8 C 138.1 36.5 137.4 35.7 136.1 35.7 C 134.5 35.7 133.5 36.8 133.5 38.7 C 133.5 38.72 133.5 45 133.5 45 L 130.7 45 L 130.7 33.4 L 133.5 33.4 C 133.5 33.4 133.47 35.07 133.5 35.1 C 134.1 34 135.1 33.2 137 33.2 C 139.6 33.2 140.9 34.7 140.9 37.5 Z M 153.7 45.2 C 149.9 45.2 148 42.3 148 39.2 C 148 36.1 149.8 33.2 153.6 33.2 C 156.5 33.2 158.7 34.8 158.8 37.6 C 158.8 37.6 156 37.6 156 37.6 C 155.9 36.5 155.1 35.7 153.7 35.7 C 151.7 35.7 150.8 37.4 150.8 39.2 C 150.8 41.1 151.7 42.6 153.7 42.6 C 155 42.6 155.9 41.9 156 40.9 C 156 40.9 158.8 40.9 158.8 40.9 C 158.5 43.7 156.4 45.2 153.7 45.2 Z M 167.4 36 C 167.4 36 166.65 35.97 166.7 36 C 164.7 36 163.6 37 163.6 39.3 C 163.63 39.31 163.6 45 163.6 45 L 160.8 45 L 160.8 33.4 L 163.6 33.4 C 163.6 33.4 163.61 35.05 163.6 35 C 164.2 33.8 165.3 33.3 166.6 33.3 C 166.63 33.26 167.4 33.3 167.4 33.3 L 167.4 36 Z M 168.6 31.9 L 171.6 31.9 L 171.6 28.7 L 168.6 28.7 L 168.6 31.9 Z M 168.7 33.4 L 171.5 33.4 L 171.5 45 L 168.7 45 L 168.7 33.4 Z M 180.2 45 C 180.2 45 178.33 44.98 178.3 45 C 176.2 45 174.8 44.3 174.8 41.2 C 174.78 41.2 174.8 35.9 174.8 35.9 L 172.7 35.9 L 172.7 33.4 L 174.8 33.4 L 174.8 30.8 L 177.6 30 L 177.6 33.4 L 179.9 33.4 L 179.9 35.9 L 177.6 35.9 C 177.6 35.9 177.57 41.33 177.6 41.3 C 177.6 42 177.8 42.5 178.7 42.5 C 178.75 42.5 180.2 42.5 180.2 42.5 L 180.2 45 Z M 183.7 40 C 183.8 41.9 185.1 42.8 186.7 42.8 C 187.8 42.8 188.8 42.4 189.2 41.3 C 189.2 41.3 191.7 41.3 191.7 41.3 C 191.2 43.9 188.9 45.2 186.6 45.2 C 183.8 45.2 181 43.3 181 39.2 C 181 35.2 183.6 33.2 186.6 33.2 C 189.4 33.2 191.8 35 191.8 38.9 C 191.77 38.89 191.8 40 191.8 40 C 191.8 40 183.71 40.03 183.7 40 Z M 183.8 38 C 183.8 38 189 38 189 38 C 189 36.5 188 35.6 186.5 35.6 C 185.3 35.6 184 36.3 183.8 38 Z M 200.3 36 C 200.3 36 199.58 35.97 199.6 36 C 197.6 36 196.6 37 196.6 39.3 C 196.56 39.31 196.6 45 196.6 45 L 193.8 45 L 193.8 33.4 L 196.5 33.4 C 196.5 33.4 196.54 35.05 196.5 35 C 197.1 33.8 198.2 33.3 199.6 33.3 C 199.56 33.26 200.3 33.3 200.3 33.3 L 200.3 36 Z M 201.6 31.9 L 204.5 31.9 L 204.5 28.7 L 201.6 28.7 L 201.6 31.9 Z M 201.7 33.4 L 204.5 33.4 L 204.5 45 L 201.7 45 L 201.7 33.4 Z M 217.7 39.2 C 217.7 43 215.3 45.2 212.1 45.2 C 208.8 45.2 206.4 43 206.4 39.2 C 206.4 35.4 208.8 33.2 212.1 33.2 C 215.3 33.2 217.7 35.4 217.7 39.2 Z M 209.3 39.2 C 209.3 41.5 210.6 42.6 212.1 42.6 C 213.8 42.6 214.9 41.4 214.9 39.2 C 214.9 36.9 213.6 35.8 212.1 35.8 C 210.4 35.8 209.3 37 209.3 39.2 Z M 229 41.4 C 229 44 226.7 45.2 224.1 45.2 C 221.7 45.2 219.1 44.2 218.9 41.3 C 218.9 41.3 221.7 41.3 221.7 41.3 C 221.9 42.4 222.9 42.9 224.2 42.9 C 225.4 42.9 226.3 42.5 226.3 41.7 C 226.3 40.9 225.7 40.8 224.1 40.5 C 221.8 40.1 219.3 39.7 219.3 36.9 C 219.3 34.3 221.5 33.2 223.9 33.2 C 226.6 33.2 228.6 34.5 228.7 37.1 C 228.7 37.1 226 37.1 226 37.1 C 225.9 36 225.1 35.5 223.9 35.5 C 222.5 35.5 222 36.1 222 36.8 C 222 37.7 223 37.9 224.4 38.1 C 226.5 38.4 229 38.7 229 41.4 Z " stroke="none" fill="#000"/>  </g>  <g id="Polygon10998">    <path d="M 7.9 12.2 L 4.7 12.2 L 4.7 8.9 L 7.9 8.9 L 7.9 12.2 Z M 7.6 14.6 C 7.6 17.2 6.3 17.7 5 18.6 C 4 19.3 3.6 19.9 3.6 20.7 C 3.6 21.9 4.4 22.5 5.6 22.5 C 7.1 22.5 8 21.7 8.1 20.3 C 8.1 20.3 10.9 20.3 10.9 20.3 C 10.6 23.7 8.2 24.9 5.6 24.9 C 2.8 24.9 0.6 23.6 0.6 20.8 C 0.6 18.6 2 17.7 3.4 16.7 C 4.5 15.9 5 15.4 5 14.5 C 4.96 14.47 5 13.8 5 13.8 L 7.6 13.8 C 7.6 13.8 7.62 14.55 7.6 14.6 Z M 23.2 14 C 23.2 14 26.2 14 26.2 14 C 26 18.1 22.8 20.2 19.2 20.2 C 14.2 20.2 11.5 16.2 11.5 11.8 C 11.5 7.7 14 3.7 19.3 3.7 C 23 3.7 25.7 5.7 26.1 9.3 C 26.1 9.3 23.1 9.3 23.1 9.3 C 23 7.5 21.3 6.4 19.2 6.4 C 16 6.4 14.5 9 14.5 11.8 C 14.5 14.7 16.1 17.4 19.2 17.4 C 21.1 17.4 23 16.4 23.2 14 Z M 32 6.1 L 35.2 1.1 L 37.3 2.8 L 34.3 6.1 L 32 6.1 Z M 38.9 14 C 38.9 17.8 36.5 20 33.2 20 C 30 20 27.6 17.8 27.6 14 C 27.6 10.2 30 8 33.2 8 C 36.5 8 38.9 10.2 38.9 14 Z M 30.4 14 C 30.4 16.3 31.7 17.4 33.3 17.4 C 34.9 17.4 36 16.2 36 14 C 36 11.7 34.8 10.6 33.2 10.6 C 31.5 10.6 30.4 11.8 30.4 14 Z M 57.2 12 C 57.25 11.97 57.2 19.8 57.2 19.8 L 54.5 19.8 C 54.5 19.8 54.45 12.52 54.5 12.5 C 54.5 11.1 53.8 10.5 52.6 10.5 C 51.3 10.5 50.5 11.3 50.5 13.3 C 50.46 13.27 50.5 19.8 50.5 19.8 L 47.7 19.8 C 47.7 19.8 47.67 12.52 47.7 12.5 C 47.7 11.1 47 10.5 45.8 10.5 C 44.5 10.5 43.7 11.3 43.7 13.3 C 43.68 13.25 43.7 19.8 43.7 19.8 L 40.9 19.8 L 40.9 8.2 L 43.6 8.2 C 43.6 8.2 43.64 9.89 43.6 9.9 C 44 9 44.9 8 46.6 8 C 48.1 8 49.3 8.7 49.8 9.9 C 50.3 9.1 51.1 8 53.2 8 C 55.7 8 57.2 9.5 57.2 12 Z M 70.5 14 C 70.5 17.8 68 20 64.8 20 C 61.6 20 59.1 17.8 59.1 14 C 59.1 10.2 61.6 8 64.8 8 C 68 8 70.5 10.2 70.5 14 Z M 62 14 C 62 16.3 63.3 17.4 64.8 17.4 C 66.5 17.4 67.6 16.2 67.6 14 C 67.6 11.7 66.3 10.6 64.8 10.6 C 63.1 10.6 62 11.8 62 14 Z M 83.4 19.8 C 83.4 19.8 81.58 19.78 81.6 19.8 C 79.4 19.8 78 19.1 78 16 C 78.04 16 78 10.7 78 10.7 L 75.9 10.7 L 75.9 8.2 L 78 8.2 L 78 5.6 L 80.8 4.8 L 80.8 8.2 L 83.1 8.2 L 83.1 10.7 L 80.8 10.7 C 80.8 10.7 80.83 16.13 80.8 16.1 C 80.8 16.8 81 17.3 82 17.3 C 82 17.3 83.4 17.3 83.4 17.3 L 83.4 19.8 Z M 95.6 14 C 95.6 17.8 93.2 20 89.9 20 C 86.7 20 84.3 17.8 84.3 14 C 84.3 10.2 86.7 8 89.9 8 C 93.2 8 95.6 10.2 95.6 14 Z M 87.1 14 C 87.1 16.3 88.4 17.4 89.9 17.4 C 91.6 17.4 92.7 16.2 92.7 14 C 92.7 11.7 91.4 10.6 89.9 10.6 C 88.2 10.6 87.1 11.8 87.1 14 Z M 113.9 12 C 113.92 11.97 113.9 19.8 113.9 19.8 L 111.1 19.8 C 111.1 19.8 111.13 12.52 111.1 12.5 C 111.1 11.1 110.5 10.5 109.3 10.5 C 108 10.5 107.1 11.3 107.1 13.3 C 107.14 13.27 107.1 19.8 107.1 19.8 L 104.3 19.8 C 104.3 19.8 104.35 12.52 104.3 12.5 C 104.3 11.1 103.7 10.5 102.5 10.5 C 101.2 10.5 100.4 11.3 100.4 13.3 C 100.36 13.25 100.4 19.8 100.4 19.8 L 97.6 19.8 L 97.6 8.2 L 100.3 8.2 C 100.3 8.2 100.32 9.89 100.3 9.9 C 100.7 9 101.6 8 103.3 8 C 104.8 8 106 8.7 106.5 9.9 C 107 9.1 107.8 8 109.9 8 C 112.3 8 113.9 9.5 113.9 12 Z M 125.8 12 C 125.81 11.99 125.8 19.8 125.8 19.8 L 123.1 19.8 C 123.1 19.8 123.08 18.1 123.1 18.1 C 122.2 19.6 120.8 20 119.6 20 C 117.7 20 115.8 18.9 115.8 16.4 C 115.8 14.6 116.8 13.4 119.5 13 C 119.5 13 122 12.6 122 12.6 C 122.7 12.5 123.2 12.3 123.2 11.6 C 123.2 10.6 122.3 10.2 121.2 10.2 C 119.7 10.2 119.1 10.9 119 11.9 C 119 11.9 116.3 11.9 116.3 11.9 C 116.6 9.2 118.7 8 121.4 8 C 124.1 8 125.8 9.3 125.8 12 Z M 123.1 14.9 C 123.1 14.9 123.1 14.3 123.1 14.3 C 122.8 14.4 122.3 14.6 121.7 14.6 C 121.7 14.6 120.5 14.8 120.5 14.8 C 119.1 15 118.6 15.6 118.6 16.3 C 118.6 17.2 119.3 17.7 120.2 17.7 C 121.7 17.7 123.1 16.6 123.1 14.9 Z M 134.9 10.8 C 134.9 10.8 134.15 10.77 134.1 10.8 C 132.2 10.8 131.1 11.8 131.1 14.1 C 131.12 14.11 131.1 19.8 131.1 19.8 L 128.3 19.8 L 128.3 8.2 L 131.1 8.2 C 131.1 8.2 131.1 9.85 131.1 9.8 C 131.7 8.6 132.8 8.1 134.1 8.1 C 134.13 8.06 134.9 8.1 134.9 8.1 L 134.9 10.8 Z M 142.8 14.8 C 142.9 16.7 144.2 17.6 145.8 17.6 C 146.9 17.6 148 17.2 148.3 16.1 C 148.3 16.1 150.9 16.1 150.9 16.1 C 150.4 18.7 148.1 20 145.7 20 C 142.9 20 140.1 18.1 140.1 14 C 140.1 10 142.8 8 145.7 8 C 148.5 8 150.9 9.8 150.9 13.7 C 150.91 13.69 150.9 14.8 150.9 14.8 C 150.9 14.8 142.84 14.83 142.8 14.8 Z M 142.9 12.8 C 142.9 12.8 148.2 12.8 148.2 12.8 C 148.2 11.3 147.1 10.4 145.7 10.4 C 144.4 10.4 143.2 11.1 142.9 12.8 Z M 163.1 12.3 C 163.09 12.31 163.1 19.8 163.1 19.8 L 160.3 19.8 C 160.3 19.8 160.29 12.56 160.3 12.6 C 160.3 11.3 159.6 10.5 158.3 10.5 C 156.7 10.5 155.7 11.6 155.7 13.5 C 155.69 13.52 155.7 19.8 155.7 19.8 L 152.9 19.8 L 152.9 8.2 L 155.7 8.2 C 155.7 8.2 155.67 9.87 155.7 9.9 C 156.3 8.8 157.3 8 159.2 8 C 161.8 8 163.1 9.5 163.1 12.3 Z " stroke="none" fill="#000"/>  </g></svg>