<?xml version="1.0" standalone="no"?><!DOCTYPE svg PUBLIC "-//W3C//DTD SVG 1.1//EN" "http://www.w3.org/Graphics/SVG/1.1/DTD/svg11.dtd"><svg xmlns="http://www.w3.org/2000/svg" version="1.1" width="361.1px" height="139.4px" viewBox="0 0 361.1 139.4">  <desc>Was k nnte die Spreads von Firmenanleihen steigen lassen, und ist die Duration 2021 das Hauptrisiko f r Kreditanlagen</desc>  <defs/>  <g id="Polygon10290">    <path d="M 14.6 95.4 L 11.6 95.4 L 11.6 88.8 L 4.5 88.8 L 4.5 95.4 L 1.6 95.4 L 1.6 79.6 L 4.5 79.6 L 4.5 86.1 L 11.6 86.1 L 11.6 79.6 L 14.6 79.6 L 14.6 95.4 Z M 26.8 87.6 C 26.75 87.59 26.8 95.4 26.8 95.4 L 24 95.4 C 24 95.4 24.02 93.7 24 93.7 C 23.1 95.2 21.7 95.6 20.5 95.6 C 18.7 95.6 16.8 94.5 16.8 92 C 16.8 90.2 17.8 89 20.5 88.6 C 20.5 88.6 23 88.2 23 88.2 C 23.6 88.1 24.1 87.9 24.1 87.2 C 24.1 86.2 23.3 85.8 22.2 85.8 C 20.7 85.8 20 86.5 19.9 87.5 C 19.9 87.5 17.2 87.5 17.2 87.5 C 17.5 84.8 19.7 83.6 22.3 83.6 C 25 83.6 26.8 84.9 26.8 87.6 Z M 24 90.5 C 24 90.5 24 89.9 24 89.9 C 23.8 90 23.2 90.2 22.7 90.2 C 22.7 90.2 21.4 90.4 21.4 90.4 C 20 90.6 19.6 91.2 19.6 91.9 C 19.6 92.8 20.2 93.3 21.2 93.3 C 22.6 93.3 24 92.2 24 90.5 Z M 39.4 95.4 L 36.7 95.4 C 36.7 95.4 36.69 93.74 36.7 93.7 C 36 94.8 35 95.5 33.3 95.5 C 30.9 95.5 29.2 94 29.2 91 C 29.17 90.99 29.2 83.8 29.2 83.8 L 32 83.8 C 32 83.8 31.96 90.78 32 90.8 C 32 92.4 32.7 93 33.9 93 C 35.5 93 36.6 92.1 36.6 89.4 C 36.62 89.4 36.6 83.8 36.6 83.8 L 39.4 83.8 L 39.4 95.4 Z M 53.5 89.4 C 53.5 93.6 50.9 95.5 48.2 95.5 C 46.7 95.5 45.6 94.8 44.9 94 C 44.94 94 44.9 99.7 44.9 99.7 L 42.1 99.7 L 42.1 83.8 L 44.9 83.8 C 44.9 83.8 44.88 85.64 44.9 85.6 C 45.5 84.4 46.8 83.6 48.5 83.6 C 51.2 83.6 53.5 85.5 53.5 89.4 Z M 50.7 89.6 C 50.7 87.2 49.3 86.1 47.8 86.1 C 46.3 86.1 44.9 87.2 44.9 89.6 C 44.9 91.9 46.3 93 47.8 93 C 49.3 93 50.7 91.9 50.7 89.6 Z M 61.4 95.4 C 61.4 95.4 59.62 95.38 59.6 95.4 C 57.5 95.4 56.1 94.7 56.1 91.6 C 56.07 91.6 56.1 86.3 56.1 86.3 L 53.9 86.3 L 53.9 83.8 L 56.1 83.8 L 56.1 81.2 L 58.9 80.4 L 58.9 83.8 L 61.2 83.8 L 61.2 86.3 L 58.9 86.3 C 58.9 86.3 58.86 91.73 58.9 91.7 C 58.9 92.4 59.1 92.9 60 92.9 C 60.04 92.9 61.4 92.9 61.4 92.9 L 61.4 95.4 Z M 69.6 86.4 C 69.6 86.4 68.84 86.37 68.8 86.4 C 66.9 86.4 65.8 87.4 65.8 89.7 C 65.81 89.71 65.8 95.4 65.8 95.4 L 63 95.4 L 63 83.8 L 65.8 83.8 C 65.8 83.8 65.79 85.45 65.8 85.4 C 66.4 84.2 67.5 83.7 68.8 83.7 C 68.82 83.66 69.6 83.7 69.6 83.7 L 69.6 86.4 Z M 70.8 82.3 L 73.8 82.3 L 73.8 79.1 L 70.8 79.1 L 70.8 82.3 Z M 70.9 83.8 L 73.7 83.8 L 73.7 95.4 L 70.9 95.4 L 70.9 83.8 Z M 85.7 91.8 C 85.7 94.4 83.4 95.6 80.8 95.6 C 78.4 95.6 75.8 94.6 75.6 91.7 C 75.6 91.7 78.4 91.7 78.4 91.7 C 78.6 92.8 79.6 93.3 80.9 93.3 C 82.1 93.3 82.9 92.9 82.9 92.1 C 82.9 91.3 82.4 91.2 80.8 90.9 C 78.5 90.5 75.9 90.1 75.9 87.3 C 75.9 84.7 78.1 83.6 80.5 83.6 C 83.2 83.6 85.2 84.9 85.4 87.5 C 85.4 87.5 82.7 87.5 82.7 87.5 C 82.6 86.4 81.8 85.9 80.6 85.9 C 79.2 85.9 78.6 86.5 78.6 87.2 C 78.6 88.1 79.7 88.3 81.1 88.5 C 83.2 88.8 85.7 89.1 85.7 91.8 Z M 87.5 82.3 L 90.4 82.3 L 90.4 79.1 L 87.5 79.1 L 87.5 82.3 Z M 87.5 83.8 L 90.3 83.8 L 90.3 95.4 L 87.5 95.4 L 87.5 83.8 Z M 97.2 90.9 L 95.8 92.3 L 95.8 95.4 L 93 95.4 L 93 79.4 L 95.8 79.4 L 95.8 88.5 L 100 83.8 L 103.6 83.8 L 99.1 88.8 L 103.8 95.4 L 100.4 95.4 L 97.2 90.9 Z M 115.3 89.6 C 115.3 93.4 112.9 95.6 109.7 95.6 C 106.4 95.6 104 93.4 104 89.6 C 104 85.8 106.4 83.6 109.7 83.6 C 112.9 83.6 115.3 85.8 115.3 89.6 Z M 106.9 89.6 C 106.9 91.9 108.1 93 109.7 93 C 111.4 93 112.5 91.8 112.5 89.6 C 112.5 87.3 111.2 86.2 109.6 86.2 C 108 86.2 106.9 87.4 106.9 89.6 Z M 126.7 81.9 C 125.7 81.9 125.5 82.3 125.5 83 C 125.52 83.03 125.5 83.8 125.5 83.8 L 127.7 83.8 L 127.7 86.3 L 125.5 86.3 L 125.5 95.4 L 122.7 95.4 L 122.7 86.3 L 121 86.3 L 121 83.8 L 122.7 83.8 C 122.7 83.8 122.72 83.16 122.7 83.2 C 122.7 80.1 124.1 79.4 126.3 79.4 C 126.27 79.38 128 79.4 128 79.4 L 128 81.9 C 128 81.9 126.69 81.86 126.7 81.9 Z M 131 79.2 L 133.4 79.2 L 133.4 81.7 L 131 81.7 L 131 79.2 Z M 135.3 79.2 L 137.8 79.2 L 137.8 81.7 L 135.3 81.7 L 135.3 79.2 Z M 139.5 95.4 L 136.7 95.4 C 136.7 95.4 136.73 93.74 136.7 93.7 C 136.1 94.8 135 95.5 133.4 95.5 C 131 95.5 129.2 94 129.2 91 C 129.21 90.99 129.2 83.8 129.2 83.8 L 132 83.8 C 132 83.8 132 90.78 132 90.8 C 132 92.4 132.8 93 134 93 C 135.5 93 136.7 92.1 136.7 89.4 C 136.67 89.4 136.7 83.8 136.7 83.8 L 139.5 83.8 L 139.5 95.4 Z M 148.7 86.4 C 148.7 86.4 148.01 86.37 148 86.4 C 146.1 86.4 145 87.4 145 89.7 C 144.98 89.71 145 95.4 145 95.4 L 142.2 95.4 L 142.2 83.8 L 145 83.8 C 145 83.8 144.96 85.45 145 85.4 C 145.5 84.2 146.6 83.7 148 83.7 C 147.98 83.66 148.7 83.7 148.7 83.7 L 148.7 86.4 Z M 159.9 88.4 L 158.3 90.1 L 158.3 95.4 L 155.4 95.4 L 155.4 79.6 L 158.3 79.6 L 158.3 86.3 L 164.4 79.6 L 168.4 79.6 L 162.1 86.1 L 168.6 95.4 L 164.8 95.4 L 159.9 88.4 Z M 176.6 86.4 C 176.6 86.4 175.89 86.37 175.9 86.4 C 173.9 86.4 172.9 87.4 172.9 89.7 C 172.87 89.71 172.9 95.4 172.9 95.4 L 170.1 95.4 L 170.1 83.8 L 172.8 83.8 C 172.8 83.8 172.85 85.45 172.8 85.4 C 173.4 84.2 174.5 83.7 175.9 83.7 C 175.87 83.66 176.6 83.7 176.6 83.7 L 176.6 86.4 Z M 179.8 90.4 C 179.8 92.3 181.2 93.2 182.7 93.2 C 183.8 93.2 184.9 92.8 185.2 91.7 C 185.2 91.7 187.8 91.7 187.8 91.7 C 187.3 94.3 185 95.6 182.6 95.6 C 179.8 95.6 177 93.7 177 89.6 C 177 85.6 179.7 83.6 182.6 83.6 C 185.4 83.6 187.8 85.4 187.8 89.3 C 187.82 89.29 187.8 90.4 187.8 90.4 C 187.8 90.4 179.76 90.43 179.8 90.4 Z M 179.8 88.4 C 179.8 88.4 185.1 88.4 185.1 88.4 C 185.1 86.9 184 86 182.6 86 C 181.3 86 180.1 86.7 179.8 88.4 Z M 200.5 95.4 L 197.7 95.4 C 197.7 95.4 197.73 93.6 197.7 93.6 C 197.1 94.9 195.8 95.6 194.2 95.6 C 191.5 95.6 189.1 93.6 189.1 89.6 C 189.1 85.6 191.5 83.6 194.2 83.6 C 195.7 83.6 197 84.2 197.7 85.3 C 197.67 85.32 197.7 79.4 197.7 79.4 L 200.5 79.4 L 200.5 95.4 Z M 197.8 89.6 C 197.8 87.2 196.3 86.1 194.8 86.1 C 193.3 86.1 191.9 87.2 191.9 89.6 C 191.9 91.9 193.3 93.1 194.8 93.1 C 196.3 93.1 197.8 91.9 197.8 89.6 Z M 203.1 82.3 L 206 82.3 L 206 79.1 L 203.1 79.1 L 203.1 82.3 Z M 203.2 83.8 L 206 83.8 L 206 95.4 L 203.2 95.4 L 203.2 83.8 Z M 214.6 95.4 C 214.6 95.4 212.77 95.38 212.8 95.4 C 210.6 95.4 209.2 94.7 209.2 91.6 C 209.22 91.6 209.2 86.3 209.2 86.3 L 207.1 86.3 L 207.1 83.8 L 209.2 83.8 L 209.2 81.2 L 212 80.4 L 212 83.8 L 214.3 83.8 L 214.3 86.3 L 212 86.3 C 212 86.3 212.01 91.73 212 91.7 C 212 92.4 212.2 92.9 213.2 92.9 C 213.19 92.9 214.6 92.9 214.6 92.9 L 214.6 95.4 Z M 225.4 87.6 C 225.43 87.59 225.4 95.4 225.4 95.4 L 222.7 95.4 C 222.7 95.4 222.7 93.7 222.7 93.7 C 221.8 95.2 220.4 95.6 219.2 95.6 C 217.3 95.6 215.4 94.5 215.4 92 C 215.4 90.2 216.5 89 219.1 88.6 C 219.1 88.6 221.6 88.2 221.6 88.2 C 222.3 88.1 222.8 87.9 222.8 87.2 C 222.8 86.2 222 85.8 220.9 85.8 C 219.4 85.8 218.7 86.5 218.6 87.5 C 218.6 87.5 215.9 87.5 215.9 87.5 C 216.2 84.8 218.4 83.6 221 83.6 C 223.7 83.6 225.4 84.9 225.4 87.6 Z M 222.7 90.5 C 222.7 90.5 222.7 89.9 222.7 89.9 C 222.5 90 221.9 90.2 221.4 90.2 C 221.4 90.2 220.1 90.4 220.1 90.4 C 218.7 90.6 218.2 91.2 218.2 91.9 C 218.2 92.8 218.9 93.3 219.8 93.3 C 221.3 93.3 222.7 92.2 222.7 90.5 Z M 238.1 87.9 C 238.14 87.91 238.1 95.4 238.1 95.4 L 235.3 95.4 C 235.3 95.4 235.34 88.16 235.3 88.2 C 235.3 86.9 234.6 86.1 233.3 86.1 C 231.7 86.1 230.7 87.2 230.7 89.1 C 230.74 89.12 230.7 95.4 230.7 95.4 L 228 95.4 L 228 83.8 L 230.7 83.8 C 230.7 83.8 230.72 85.47 230.7 85.5 C 231.4 84.4 232.3 83.6 234.3 83.6 C 236.9 83.6 238.1 85.1 238.1 87.9 Z M 243.6 95.4 L 240.8 95.4 L 240.8 79.4 L 243.6 79.4 L 243.6 95.4 Z M 255.5 87.6 C 255.55 87.59 255.5 95.4 255.5 95.4 L 252.8 95.4 C 252.8 95.4 252.82 93.7 252.8 93.7 C 251.9 95.2 250.5 95.6 249.3 95.6 C 247.5 95.6 245.5 94.5 245.5 92 C 245.5 90.2 246.6 89 249.2 88.6 C 249.2 88.6 251.7 88.2 251.7 88.2 C 252.4 88.1 252.9 87.9 252.9 87.2 C 252.9 86.2 252.1 85.8 251 85.8 C 249.5 85.8 248.8 86.5 248.7 87.5 C 248.7 87.5 246 87.5 246 87.5 C 246.3 84.8 248.5 83.6 251.1 83.6 C 253.8 83.6 255.5 84.9 255.5 87.6 Z M 252.8 90.5 C 252.8 90.5 252.8 89.9 252.8 89.9 C 252.6 90 252 90.2 251.5 90.2 C 251.5 90.2 250.2 90.4 250.2 90.4 C 248.8 90.6 248.3 91.2 248.3 91.9 C 248.3 92.8 249 93.3 250 93.3 C 251.4 93.3 252.8 92.2 252.8 90.5 Z M 268.5 94.6 C 268.5 98.3 266.1 100 263 100 C 260.2 100 257.8 98.6 257.5 95.7 C 257.5 95.7 260.2 95.7 260.2 95.7 C 260.5 97.2 261.7 97.6 263 97.6 C 264.8 97.6 265.8 96.7 265.8 94.9 C 265.8 94.9 265.8 93 265.8 93 C 265.3 94.2 264.2 95 262.4 95 C 259.8 95 257.3 93.2 257.3 89.3 C 257.3 85.4 259.8 83.6 262.4 83.6 C 264.1 83.6 265.2 84.3 265.8 85.4 C 265.81 85.41 265.8 83.8 265.8 83.8 L 268.5 83.8 C 268.5 83.8 268.5 94.6 268.5 94.6 Z M 265.7 89.3 C 265.7 87.1 264.5 86 263 86 C 261.4 86 260.1 87.1 260.1 89.3 C 260.1 91.5 261.4 92.5 263 92.5 C 264.5 92.5 265.7 91.5 265.7 89.3 Z M 273.1 90.4 C 273.2 92.3 274.5 93.2 276.1 93.2 C 277.2 93.2 278.2 92.8 278.6 91.7 C 278.6 91.7 281.1 91.7 281.1 91.7 C 280.6 94.3 278.3 95.6 276 95.6 C 273.2 95.6 270.4 93.7 270.4 89.6 C 270.4 85.6 273 83.6 276 83.6 C 278.8 83.6 281.2 85.4 281.2 89.3 C 281.17 89.29 281.2 90.4 281.2 90.4 C 281.2 90.4 273.1 90.43 273.1 90.4 Z M 273.2 88.4 C 273.2 88.4 278.4 88.4 278.4 88.4 C 278.4 86.9 277.4 86 275.9 86 C 274.7 86 273.4 86.7 273.2 88.4 Z M 293.3 87.9 C 293.34 87.91 293.3 95.4 293.3 95.4 L 290.6 95.4 C 290.6 95.4 290.55 88.16 290.6 88.2 C 290.6 86.9 289.8 86.1 288.5 86.1 C 286.9 86.1 286 87.2 286 89.1 C 285.95 89.12 286 95.4 286 95.4 L 283.2 95.4 L 283.2 83.8 L 285.9 83.8 C 285.9 83.8 285.93 85.47 285.9 85.5 C 286.6 84.4 287.5 83.6 289.5 83.6 C 292.1 83.6 293.3 85.1 293.3 87.9 Z M 298.7 89.8 C 298.7 87.1 300.1 86.6 301.3 85.7 C 302.4 85 302.8 84.4 302.8 83.6 C 302.8 82.4 302 81.8 300.7 81.8 C 299.3 81.8 298.4 82.6 298.3 84 C 298.3 84 295.4 84 295.4 84 C 295.7 80.6 298.2 79.4 300.8 79.4 C 303.6 79.4 305.7 80.7 305.7 83.5 C 305.7 85.7 304.4 86.6 303 87.6 C 301.9 88.4 301.4 88.9 301.4 89.8 C 301.41 89.84 301.4 90.5 301.4 90.5 L 298.7 90.5 C 298.7 90.5 298.74 89.75 298.7 89.8 Z M 298.5 92.1 L 301.7 92.1 L 301.7 95.4 L 298.5 95.4 L 298.5 92.1 Z " stroke="none" fill="#000"/>  </g>  <g id="Polygon10289">    <path d="M 11.5 70.2 L 8.8 70.2 C 8.8 70.2 8.78 68.54 8.8 68.5 C 8.1 69.6 7.1 70.3 5.4 70.3 C 3 70.3 1.3 68.8 1.3 65.8 C 1.26 65.79 1.3 58.6 1.3 58.6 L 4.1 58.6 C 4.1 58.6 4.05 65.58 4.1 65.6 C 4.1 67.2 4.8 67.8 6 67.8 C 7.6 67.8 8.7 66.9 8.7 64.2 C 8.72 64.2 8.7 58.6 8.7 58.6 L 11.5 58.6 L 11.5 70.2 Z M 24.4 62.7 C 24.42 62.71 24.4 70.2 24.4 70.2 L 21.6 70.2 C 21.6 70.2 21.63 62.96 21.6 63 C 21.6 61.7 20.9 60.9 19.6 60.9 C 18 60.9 17 62 17 63.9 C 17.03 63.92 17 70.2 17 70.2 L 14.2 70.2 L 14.2 58.6 L 17 58.6 C 17 58.6 17.01 60.27 17 60.3 C 17.7 59.2 18.6 58.4 20.5 58.4 C 23.2 58.4 24.4 59.9 24.4 62.7 Z M 37.7 70.2 L 35 70.2 C 35 70.2 34.96 68.4 35 68.4 C 34.3 69.7 33 70.4 31.4 70.4 C 28.7 70.4 26.3 68.4 26.3 64.4 C 26.3 60.4 28.7 58.4 31.4 58.4 C 32.9 58.4 34.2 59 34.9 60.1 C 34.9 60.12 34.9 54.2 34.9 54.2 L 37.7 54.2 L 37.7 70.2 Z M 35 64.4 C 35 62 33.6 60.9 32 60.9 C 30.5 60.9 29.1 62 29.1 64.4 C 29.1 66.7 30.5 67.9 32 67.9 C 33.6 67.9 35 66.7 35 64.4 Z M 46 57.1 L 49 57.1 L 49 53.9 L 46 53.9 L 46 57.1 Z M 46.1 58.6 L 48.9 58.6 L 48.9 70.2 L 46.1 70.2 L 46.1 58.6 Z M 60.8 66.6 C 60.8 69.2 58.5 70.4 55.9 70.4 C 53.5 70.4 50.9 69.4 50.7 66.5 C 50.7 66.5 53.5 66.5 53.5 66.5 C 53.7 67.6 54.8 68.1 56.1 68.1 C 57.2 68.1 58.1 67.7 58.1 66.9 C 58.1 66.1 57.5 66 55.9 65.7 C 53.7 65.3 51.1 64.9 51.1 62.1 C 51.1 59.5 53.3 58.4 55.7 58.4 C 58.4 58.4 60.4 59.7 60.6 62.3 C 60.6 62.3 57.8 62.3 57.8 62.3 C 57.7 61.2 56.9 60.7 55.7 60.7 C 54.3 60.7 53.8 61.3 53.8 62 C 53.8 62.9 54.8 63.1 56.2 63.3 C 58.3 63.6 60.8 63.9 60.8 66.6 Z M 68.6 70.2 C 68.6 70.2 66.82 70.18 66.8 70.2 C 64.7 70.2 63.3 69.5 63.3 66.4 C 63.27 66.4 63.3 61.1 63.3 61.1 L 61.2 61.1 L 61.2 58.6 L 63.3 58.6 L 63.3 56 L 66.1 55.2 L 66.1 58.6 L 68.4 58.6 L 68.4 61.1 L 66.1 61.1 C 66.1 61.1 66.06 66.53 66.1 66.5 C 66.1 67.2 66.3 67.7 67.2 67.7 C 67.24 67.7 68.6 67.7 68.6 67.7 L 68.6 70.2 Z M 85.9 70.2 L 83.2 70.2 C 83.2 70.2 83.18 68.4 83.2 68.4 C 82.5 69.7 81.2 70.4 79.6 70.4 C 76.9 70.4 74.5 68.4 74.5 64.4 C 74.5 60.4 76.9 58.4 79.6 58.4 C 81.1 58.4 82.4 59 83.1 60.1 C 83.12 60.12 83.1 54.2 83.1 54.2 L 85.9 54.2 L 85.9 70.2 Z M 83.2 64.4 C 83.2 62 81.8 60.9 80.3 60.9 C 78.7 60.9 77.4 62 77.4 64.4 C 77.4 66.7 78.7 67.9 80.3 67.9 C 81.8 67.9 83.2 66.7 83.2 64.4 Z M 88.5 57.1 L 91.5 57.1 L 91.5 53.9 L 88.5 53.9 L 88.5 57.1 Z M 88.6 58.6 L 91.4 58.6 L 91.4 70.2 L 88.6 70.2 L 88.6 58.6 Z M 96.1 65.2 C 96.2 67.1 97.5 68 99.1 68 C 100.2 68 101.2 67.6 101.6 66.5 C 101.6 66.5 104.1 66.5 104.1 66.5 C 103.6 69.1 101.3 70.4 99 70.4 C 96.2 70.4 93.4 68.5 93.4 64.4 C 93.4 60.4 96 58.4 99 58.4 C 101.8 58.4 104.2 60.2 104.2 64.1 C 104.16 64.09 104.2 65.2 104.2 65.2 C 104.2 65.2 96.09 65.23 96.1 65.2 Z M 96.2 63.2 C 96.2 63.2 101.4 63.2 101.4 63.2 C 101.4 61.7 100.4 60.8 98.9 60.8 C 97.6 60.8 96.4 61.5 96.2 63.2 Z M 124.8 62 C 124.8 66 122.1 70.2 116.4 70.2 C 116.44 70.18 111.6 70.2 111.6 70.2 L 111.6 54.4 C 111.6 54.4 116.82 54.43 116.8 54.4 C 122.2 54.4 124.8 58.1 124.8 62 Z M 121.9 62 C 121.9 59.5 120.3 57.2 116.9 57.2 C 116.93 57.16 114.5 57.2 114.5 57.2 L 114.5 67.4 C 114.5 67.4 116.49 67.43 116.5 67.4 C 120.1 67.4 121.9 64.7 121.9 62 Z M 137.2 70.2 L 134.5 70.2 C 134.5 70.2 134.46 68.54 134.5 68.5 C 133.8 69.6 132.7 70.3 131.1 70.3 C 128.7 70.3 126.9 68.8 126.9 65.8 C 126.94 65.79 126.9 58.6 126.9 58.6 L 129.7 58.6 C 129.7 58.6 129.74 65.58 129.7 65.6 C 129.7 67.2 130.5 67.8 131.7 67.8 C 133.3 67.8 134.4 66.9 134.4 64.2 C 134.4 64.2 134.4 58.6 134.4 58.6 L 137.2 58.6 L 137.2 70.2 Z M 146.5 61.2 C 146.5 61.2 145.74 61.17 145.7 61.2 C 143.8 61.2 142.7 62.2 142.7 64.5 C 142.71 64.51 142.7 70.2 142.7 70.2 L 139.9 70.2 L 139.9 58.6 L 142.7 58.6 C 142.7 58.6 142.69 60.25 142.7 60.2 C 143.3 59 144.4 58.5 145.7 58.5 C 145.72 58.46 146.5 58.5 146.5 58.5 L 146.5 61.2 Z M 157.1 62.4 C 157.1 62.39 157.1 70.2 157.1 70.2 L 154.4 70.2 C 154.4 70.2 154.37 68.5 154.4 68.5 C 153.5 70 152.1 70.4 150.9 70.4 C 149 70.4 147.1 69.3 147.1 66.8 C 147.1 65 148.1 63.8 150.8 63.4 C 150.8 63.4 153.3 63 153.3 63 C 154 62.9 154.5 62.7 154.5 62 C 154.5 61 153.6 60.6 152.5 60.6 C 151 60.6 150.4 61.3 150.3 62.3 C 150.3 62.3 147.6 62.3 147.6 62.3 C 147.9 59.6 150 58.4 152.6 58.4 C 155.4 58.4 157.1 59.7 157.1 62.4 Z M 154.4 65.3 C 154.4 65.3 154.4 64.7 154.4 64.7 C 154.1 64.8 153.6 65 153 65 C 153 65 151.8 65.2 151.8 65.2 C 150.4 65.4 149.9 66 149.9 66.7 C 149.9 67.6 150.5 68.1 151.5 68.1 C 153 68.1 154.4 67 154.4 65.3 Z M 165.5 70.2 C 165.5 70.2 163.71 70.18 163.7 70.2 C 161.6 70.2 160.2 69.5 160.2 66.4 C 160.16 66.4 160.2 61.1 160.2 61.1 L 158 61.1 L 158 58.6 L 160.2 58.6 L 160.2 56 L 163 55.2 L 163 58.6 L 165.3 58.6 L 165.3 61.1 L 163 61.1 C 163 61.1 162.96 66.53 163 66.5 C 163 67.2 163.1 67.7 164.1 67.7 C 164.13 67.7 165.5 67.7 165.5 67.7 L 165.5 70.2 Z M 167 57.1 L 170 57.1 L 170 53.9 L 167 53.9 L 167 57.1 Z M 167.1 58.6 L 169.9 58.6 L 169.9 70.2 L 167.1 70.2 L 167.1 58.6 Z M 183.2 64.4 C 183.2 68.2 180.8 70.4 177.5 70.4 C 174.3 70.4 171.9 68.2 171.9 64.4 C 171.9 60.6 174.3 58.4 177.5 58.4 C 180.8 58.4 183.2 60.6 183.2 64.4 Z M 174.7 64.4 C 174.7 66.7 176 67.8 177.6 67.8 C 179.2 67.8 180.3 66.6 180.3 64.4 C 180.3 62.1 179 61 177.5 61 C 175.8 61 174.7 62.2 174.7 64.4 Z M 195.4 62.7 C 195.36 62.71 195.4 70.2 195.4 70.2 L 192.6 70.2 C 192.6 70.2 192.57 62.96 192.6 63 C 192.6 61.7 191.8 60.9 190.5 60.9 C 188.9 60.9 188 62 188 63.9 C 187.97 63.92 188 70.2 188 70.2 L 185.2 70.2 L 185.2 58.6 L 187.9 58.6 C 187.9 58.6 187.95 60.27 187.9 60.3 C 188.6 59.2 189.5 58.4 191.5 58.4 C 194.1 58.4 195.4 59.9 195.4 62.7 Z M 214.4 70.2 L 203 70.2 L 203 67.6 C 203 67.6 206.8 64.47 206.8 64.5 C 209.7 62.1 211 60.9 211 59.3 C 211 57.9 209.9 57.1 208.4 57.1 C 206.8 57.1 205.7 58 205.6 59.9 C 205.6 59.9 202.8 59.9 202.8 59.9 C 202.8 56.3 205.5 54.4 208.6 54.4 C 211.5 54.4 213.9 56 213.9 59.1 C 213.9 61.8 211.9 63.6 209.2 65.8 C 209.18 65.81 207 67.6 207 67.6 L 214.4 67.6 L 214.4 70.2 Z M 215.7 62.5 C 215.7 57.6 217.4 54.4 221.2 54.4 C 225 54.4 226.7 57.6 226.7 62.4 C 226.7 67.3 224.9 70.4 221.1 70.4 C 217.3 70.4 215.7 67.3 215.7 62.5 Z M 223.9 62.5 C 223.9 59.4 223.1 56.9 221.1 56.9 C 219.3 56.9 218.5 58.9 218.5 62.3 C 218.5 65.8 219.4 68 221.2 68 C 223.1 68 223.9 65.7 223.9 62.5 Z M 239.6 70.2 L 228.2 70.2 L 228.2 67.6 C 228.2 67.6 232 64.47 232 64.5 C 234.9 62.1 236.2 60.9 236.2 59.3 C 236.2 57.9 235.1 57.1 233.6 57.1 C 232 57.1 230.9 58 230.8 59.9 C 230.8 59.9 228 59.9 228 59.9 C 228 56.3 230.7 54.4 233.8 54.4 C 236.7 54.4 239.1 56 239.1 59.1 C 239.1 61.8 237.1 63.6 234.4 65.8 C 234.38 65.81 232.2 67.6 232.2 67.6 L 239.6 67.6 L 239.6 70.2 Z M 251.7 67.6 L 251.7 70.2 L 241.3 70.2 L 241.3 67.6 L 245.1 67.6 C 245.1 67.6 245.13 58.36 245.1 58.4 C 243.9 59.1 242.4 59.5 241.3 59.6 C 241.3 59.6 241.3 56.8 241.3 56.8 C 242.7 56.6 244.2 56 245.5 54.7 C 245.55 54.7 247.9 54.7 247.9 54.7 L 247.9 67.6 L 251.7 67.6 Z M 270 70.2 L 267.2 70.2 C 267.2 70.2 267.22 68.4 267.2 68.4 C 266.6 69.7 265.2 70.4 263.7 70.4 C 260.9 70.4 258.6 68.4 258.6 64.4 C 258.6 60.4 260.9 58.4 263.7 58.4 C 265.2 58.4 266.5 59 267.2 60.1 C 267.16 60.12 267.2 54.2 267.2 54.2 L 270 54.2 L 270 70.2 Z M 267.2 64.4 C 267.2 62 265.8 60.9 264.3 60.9 C 262.8 60.9 261.4 62 261.4 64.4 C 261.4 66.7 262.8 67.9 264.3 67.9 C 265.8 67.9 267.2 66.7 267.2 64.4 Z M 281.9 62.4 C 281.94 62.39 281.9 70.2 281.9 70.2 L 279.2 70.2 C 279.2 70.2 279.21 68.5 279.2 68.5 C 278.3 70 276.9 70.4 275.7 70.4 C 273.9 70.4 271.9 69.3 271.9 66.8 C 271.9 65 273 63.8 275.6 63.4 C 275.6 63.4 278.1 63 278.1 63 C 278.8 62.9 279.3 62.7 279.3 62 C 279.3 61 278.5 60.6 277.4 60.6 C 275.9 60.6 275.2 61.3 275.1 62.3 C 275.1 62.3 272.4 62.3 272.4 62.3 C 272.7 59.6 274.9 58.4 277.5 58.4 C 280.2 58.4 281.9 59.7 281.9 62.4 Z M 279.2 65.3 C 279.2 65.3 279.2 64.7 279.2 64.7 C 279 64.8 278.4 65 277.9 65 C 277.9 65 276.6 65.2 276.6 65.2 C 275.2 65.4 274.7 66 274.7 66.7 C 274.7 67.6 275.4 68.1 276.4 68.1 C 277.8 68.1 279.2 67 279.2 65.3 Z M 293.7 66.6 C 293.7 69.2 291.4 70.4 288.8 70.4 C 286.4 70.4 283.8 69.4 283.6 66.5 C 283.6 66.5 286.4 66.5 286.4 66.5 C 286.6 67.6 287.7 68.1 289 68.1 C 290.1 68.1 291 67.7 291 66.9 C 291 66.1 290.4 66 288.8 65.7 C 286.6 65.3 284 64.9 284 62.1 C 284 59.5 286.2 58.4 288.6 58.4 C 291.3 58.4 293.3 59.7 293.4 62.3 C 293.4 62.3 290.7 62.3 290.7 62.3 C 290.6 61.2 289.8 60.7 288.6 60.7 C 287.2 60.7 286.7 61.3 286.7 62 C 286.7 62.9 287.7 63.1 289.1 63.3 C 291.2 63.6 293.7 63.9 293.7 66.6 Z " stroke="none" fill="#000"/>  </g>  <g id="Polygon10288">    <path d="M 4.5 45 L 1.6 45 L 1.6 29.2 L 12.2 29.2 L 12.2 32 L 4.5 32 L 4.5 35.6 L 11.8 35.6 L 11.8 38.4 L 4.5 38.4 L 4.5 45 Z M 13.4 31.9 L 16.4 31.9 L 16.4 28.7 L 13.4 28.7 L 13.4 31.9 Z M 13.5 33.4 L 16.3 33.4 L 16.3 45 L 13.5 45 L 13.5 33.4 Z M 25.6 36 C 25.6 36 24.82 35.97 24.8 36 C 22.9 36 21.8 37 21.8 39.3 C 21.8 39.31 21.8 45 21.8 45 L 19 45 L 19 33.4 L 21.8 33.4 C 21.8 33.4 21.78 35.05 21.8 35 C 22.4 33.8 23.4 33.3 24.8 33.3 C 24.8 33.26 25.6 33.3 25.6 33.3 L 25.6 36 Z M 43.3 37.2 C 43.28 37.17 43.3 45 43.3 45 L 40.5 45 C 40.5 45 40.49 37.72 40.5 37.7 C 40.5 36.3 39.8 35.7 38.7 35.7 C 37.4 35.7 36.5 36.5 36.5 38.5 C 36.5 38.47 36.5 45 36.5 45 L 33.7 45 C 33.7 45 33.7 37.72 33.7 37.7 C 33.7 36.3 33 35.7 31.9 35.7 C 30.6 35.7 29.7 36.5 29.7 38.5 C 29.71 38.45 29.7 45 29.7 45 L 26.9 45 L 26.9 33.4 L 29.7 33.4 C 29.7 33.4 29.67 35.09 29.7 35.1 C 30 34.2 30.9 33.2 32.7 33.2 C 34.2 33.2 35.3 33.9 35.9 35.1 C 36.3 34.3 37.1 33.2 39.2 33.2 C 41.7 33.2 43.3 34.7 43.3 37.2 Z M 47.9 40 C 47.9 41.9 49.3 42.8 50.9 42.8 C 52 42.8 53 42.4 53.3 41.3 C 53.3 41.3 55.9 41.3 55.9 41.3 C 55.4 43.9 53.1 45.2 50.7 45.2 C 47.9 45.2 45.2 43.3 45.2 39.2 C 45.2 35.2 47.8 33.2 50.8 33.2 C 53.6 33.2 55.9 35 55.9 38.9 C 55.94 38.89 55.9 40 55.9 40 C 55.9 40 47.88 40.03 47.9 40 Z M 47.9 38 C 47.9 38 53.2 38 53.2 38 C 53.2 36.5 52.1 35.6 50.7 35.6 C 49.4 35.6 48.2 36.3 47.9 38 Z M 68.1 37.5 C 68.12 37.51 68.1 45 68.1 45 L 65.3 45 C 65.3 45 65.33 37.76 65.3 37.8 C 65.3 36.5 64.6 35.7 63.3 35.7 C 61.7 35.7 60.7 36.8 60.7 38.7 C 60.73 38.72 60.7 45 60.7 45 L 57.9 45 L 57.9 33.4 L 60.7 33.4 C 60.7 33.4 60.71 35.07 60.7 35.1 C 61.4 34 62.3 33.2 64.2 33.2 C 66.9 33.2 68.1 34.7 68.1 37.5 Z M 80 37.2 C 80.01 37.19 80 45 80 45 L 77.3 45 C 77.3 45 77.28 43.3 77.3 43.3 C 76.4 44.8 75 45.2 73.8 45.2 C 71.9 45.2 70 44.1 70 41.6 C 70 39.8 71 38.6 73.7 38.2 C 73.7 38.2 76.2 37.8 76.2 37.8 C 76.9 37.7 77.4 37.5 77.4 36.8 C 77.4 35.8 76.5 35.4 75.4 35.4 C 73.9 35.4 73.3 36.1 73.2 37.1 C 73.2 37.1 70.5 37.1 70.5 37.1 C 70.8 34.4 72.9 33.2 75.6 33.2 C 78.3 33.2 80 34.5 80 37.2 Z M 77.3 40.1 C 77.3 40.1 77.3 39.5 77.3 39.5 C 77 39.6 76.5 39.8 75.9 39.8 C 75.9 39.8 74.7 40 74.7 40 C 73.3 40.2 72.8 40.8 72.8 41.5 C 72.8 42.4 73.5 42.9 74.4 42.9 C 75.9 42.9 77.3 41.8 77.3 40.1 Z M 92.7 37.5 C 92.71 37.51 92.7 45 92.7 45 L 89.9 45 C 89.9 45 89.92 37.76 89.9 37.8 C 89.9 36.5 89.2 35.7 87.9 35.7 C 86.3 35.7 85.3 36.8 85.3 38.7 C 85.32 38.72 85.3 45 85.3 45 L 82.5 45 L 82.5 33.4 L 85.3 33.4 C 85.3 33.4 85.3 35.07 85.3 35.1 C 86 34 86.9 33.2 88.8 33.2 C 91.5 33.2 92.7 34.7 92.7 37.5 Z M 98.1 45 L 95.3 45 L 95.3 29 L 98.1 29 L 98.1 45 Z M 102.8 40 C 102.9 41.9 104.2 42.8 105.8 42.8 C 106.9 42.8 108 42.4 108.3 41.3 C 108.3 41.3 110.9 41.3 110.9 41.3 C 110.4 43.9 108.1 45.2 105.7 45.2 C 102.9 45.2 100.1 43.3 100.1 39.2 C 100.1 35.2 102.8 33.2 105.7 33.2 C 108.5 33.2 110.9 35 110.9 38.9 C 110.9 38.89 110.9 40 110.9 40 C 110.9 40 102.84 40.03 102.8 40 Z M 102.9 38 C 102.9 38 108.2 38 108.2 38 C 108.2 36.5 107.1 35.6 105.7 35.6 C 104.4 35.6 103.2 36.3 102.9 38 Z M 112.8 31.9 L 115.8 31.9 L 115.8 28.7 L 112.8 28.7 L 112.8 31.9 Z M 112.9 33.4 L 115.7 33.4 L 115.7 45 L 112.9 45 L 112.9 33.4 Z M 128.6 37.5 C 128.56 37.51 128.6 45 128.6 45 L 125.8 45 C 125.8 45 125.77 37.76 125.8 37.8 C 125.8 36.5 125 35.7 123.7 35.7 C 122.1 35.7 121.2 36.8 121.2 38.7 C 121.17 38.72 121.2 45 121.2 45 L 118.4 45 L 118.4 29 L 121.2 29 C 121.2 29 121.17 35.03 121.2 35 C 121.8 33.9 122.8 33.2 124.7 33.2 C 127.3 33.2 128.6 34.7 128.6 37.5 Z M 133.2 40 C 133.2 41.9 134.6 42.8 136.1 42.8 C 137.2 42.8 138.3 42.4 138.6 41.3 C 138.6 41.3 141.2 41.3 141.2 41.3 C 140.7 43.9 138.4 45.2 136 45.2 C 133.2 45.2 130.4 43.3 130.4 39.2 C 130.4 35.2 133.1 33.2 136 33.2 C 138.8 33.2 141.2 35 141.2 38.9 C 141.22 38.89 141.2 40 141.2 40 C 141.2 40 133.16 40.03 133.2 40 Z M 133.2 38 C 133.2 38 138.5 38 138.5 38 C 138.5 36.5 137.4 35.6 136 35.6 C 134.7 35.6 133.5 36.3 133.2 38 Z M 153.4 37.5 C 153.4 37.51 153.4 45 153.4 45 L 150.6 45 C 150.6 45 150.61 37.76 150.6 37.8 C 150.6 36.5 149.9 35.7 148.6 35.7 C 147 35.7 146 36.8 146 38.7 C 146.01 38.72 146 45 146 45 L 143.2 45 L 143.2 33.4 L 146 33.4 C 146 33.4 145.99 35.07 146 35.1 C 146.6 34 147.6 33.2 149.5 33.2 C 152.2 33.2 153.4 34.7 153.4 37.5 Z M 170.5 41.4 C 170.5 44 168.2 45.2 165.6 45.2 C 163.2 45.2 160.6 44.2 160.4 41.3 C 160.4 41.3 163.3 41.3 163.3 41.3 C 163.4 42.4 164.5 42.9 165.8 42.9 C 166.9 42.9 167.8 42.5 167.8 41.7 C 167.8 40.9 167.2 40.8 165.6 40.5 C 163.4 40.1 160.8 39.7 160.8 36.9 C 160.8 34.3 163 33.2 165.4 33.2 C 168.1 33.2 170.1 34.5 170.3 37.1 C 170.3 37.1 167.5 37.1 167.5 37.1 C 167.4 36 166.6 35.5 165.4 35.5 C 164 35.5 163.5 36.1 163.5 36.8 C 163.5 37.7 164.5 37.9 165.9 38.1 C 168 38.4 170.5 38.7 170.5 41.4 Z M 178.4 45 C 178.4 45 176.52 44.98 176.5 45 C 174.4 45 173 44.3 173 41.2 C 172.97 41.2 173 35.9 173 35.9 L 170.9 35.9 L 170.9 33.4 L 173 33.4 L 173 30.8 L 175.8 30 L 175.8 33.4 L 178.1 33.4 L 178.1 35.9 L 175.8 35.9 C 175.8 35.9 175.77 41.33 175.8 41.3 C 175.8 42 176 42.5 176.9 42.5 C 176.94 42.5 178.4 42.5 178.4 42.5 L 178.4 45 Z M 181.9 40 C 182 41.9 183.3 42.8 184.9 42.8 C 186 42.8 187 42.4 187.4 41.3 C 187.4 41.3 189.9 41.3 189.9 41.3 C 189.4 43.9 187.1 45.2 184.8 45.2 C 182 45.2 179.2 43.3 179.2 39.2 C 179.2 35.2 181.8 33.2 184.8 33.2 C 187.6 33.2 190 35 190 38.9 C 189.96 38.89 190 40 190 40 C 190 40 181.9 40.03 181.9 40 Z M 182 38 C 182 38 187.2 38 187.2 38 C 187.2 36.5 186.2 35.6 184.7 35.6 C 183.5 35.6 182.2 36.3 182 38 Z M 191.9 31.9 L 194.8 31.9 L 194.8 28.7 L 191.9 28.7 L 191.9 31.9 Z M 191.9 33.4 L 194.7 33.4 L 194.7 45 L 191.9 45 L 191.9 33.4 Z M 207.9 44.2 C 207.9 47.9 205.5 49.6 202.4 49.6 C 199.5 49.6 197.2 48.2 196.9 45.3 C 196.9 45.3 199.6 45.3 199.6 45.3 C 199.9 46.8 201.1 47.2 202.4 47.2 C 204.2 47.2 205.2 46.3 205.2 44.5 C 205.2 44.5 205.2 42.6 205.2 42.6 C 204.7 43.8 203.5 44.6 201.8 44.6 C 199.2 44.6 196.7 42.8 196.7 38.9 C 196.7 35 199.2 33.2 201.8 33.2 C 203.4 33.2 204.6 33.9 205.2 35 C 205.19 35.01 205.2 33.4 205.2 33.4 L 207.9 33.4 C 207.9 33.4 207.88 44.2 207.9 44.2 Z M 205.1 38.9 C 205.1 36.7 203.9 35.6 202.4 35.6 C 200.8 35.6 199.5 36.7 199.5 38.9 C 199.5 41.1 200.8 42.1 202.4 42.1 C 203.9 42.1 205.1 41.1 205.1 38.9 Z M 212.5 40 C 212.5 41.9 213.9 42.8 215.5 42.8 C 216.5 42.8 217.6 42.4 217.9 41.3 C 217.9 41.3 220.5 41.3 220.5 41.3 C 220 43.9 217.7 45.2 215.3 45.2 C 212.5 45.2 209.8 43.3 209.8 39.2 C 209.8 35.2 212.4 33.2 215.4 33.2 C 218.2 33.2 220.5 35 220.5 38.9 C 220.54 38.89 220.5 40 220.5 40 C 220.5 40 212.47 40.03 212.5 40 Z M 212.5 38 C 212.5 38 217.8 38 217.8 38 C 217.8 36.5 216.7 35.6 215.3 35.6 C 214 35.6 212.8 36.3 212.5 38 Z M 232.7 37.5 C 232.72 37.51 232.7 45 232.7 45 L 229.9 45 C 229.9 45 229.93 37.76 229.9 37.8 C 229.9 36.5 229.2 35.7 227.9 35.7 C 226.3 35.7 225.3 36.8 225.3 38.7 C 225.33 38.72 225.3 45 225.3 45 L 222.5 45 L 222.5 33.4 L 225.3 33.4 C 225.3 33.4 225.31 35.07 225.3 35.1 C 226 34 226.9 33.2 228.8 33.2 C 231.5 33.2 232.7 34.7 232.7 37.5 Z M 243.8 45 L 241 45 L 241 29 L 243.8 29 L 243.8 45 Z M 255.8 37.2 C 255.8 37.19 255.8 45 255.8 45 L 253.1 45 C 253.1 45 253.07 43.3 253.1 43.3 C 252.2 44.8 250.8 45.2 249.6 45.2 C 247.7 45.2 245.8 44.1 245.8 41.6 C 245.8 39.8 246.8 38.6 249.5 38.2 C 249.5 38.2 252 37.8 252 37.8 C 252.7 37.7 253.2 37.5 253.2 36.8 C 253.2 35.8 252.3 35.4 251.2 35.4 C 249.7 35.4 249.1 36.1 249 37.1 C 249 37.1 246.3 37.1 246.3 37.1 C 246.6 34.4 248.7 33.2 251.3 33.2 C 254.1 33.2 255.8 34.5 255.8 37.2 Z M 253.1 40.1 C 253.1 40.1 253.1 39.5 253.1 39.5 C 252.8 39.6 252.3 39.8 251.7 39.8 C 251.7 39.8 250.5 40 250.5 40 C 249.1 40.2 248.6 40.8 248.6 41.5 C 248.6 42.4 249.2 42.9 250.2 42.9 C 251.7 42.9 253.1 41.8 253.1 40.1 Z M 267.6 41.4 C 267.6 44 265.3 45.2 262.7 45.2 C 260.3 45.2 257.7 44.2 257.5 41.3 C 257.5 41.3 260.3 41.3 260.3 41.3 C 260.5 42.4 261.5 42.9 262.8 42.9 C 264 42.9 264.8 42.5 264.8 41.7 C 264.8 40.9 264.3 40.8 262.7 40.5 C 260.4 40.1 257.8 39.7 257.8 36.9 C 257.8 34.3 260 33.2 262.4 33.2 C 265.1 33.2 267.1 34.5 267.3 37.1 C 267.3 37.1 264.6 37.1 264.6 37.1 C 264.5 36 263.7 35.5 262.5 35.5 C 261.1 35.5 260.5 36.1 260.5 36.8 C 260.5 37.7 261.6 37.9 263 38.1 C 265.1 38.4 267.6 38.7 267.6 41.4 Z M 278.7 41.4 C 278.7 44 276.4 45.2 273.8 45.2 C 271.4 45.2 268.8 44.2 268.6 41.3 C 268.6 41.3 271.4 41.3 271.4 41.3 C 271.6 42.4 272.7 42.9 274 42.9 C 275.1 42.9 276 42.5 276 41.7 C 276 40.9 275.4 40.8 273.8 40.5 C 271.6 40.1 269 39.7 269 36.9 C 269 34.3 271.2 33.2 273.6 33.2 C 276.3 33.2 278.3 34.5 278.5 37.1 C 278.5 37.1 275.7 37.1 275.7 37.1 C 275.6 36 274.8 35.5 273.6 35.5 C 272.2 35.5 271.7 36.1 271.7 36.8 C 271.7 37.7 272.7 37.9 274.1 38.1 C 276.2 38.4 278.7 38.7 278.7 41.4 Z M 282.6 40 C 282.7 41.9 284 42.8 285.6 42.8 C 286.7 42.8 287.7 42.4 288.1 41.3 C 288.1 41.3 290.6 41.3 290.6 41.3 C 290.1 43.9 287.8 45.2 285.4 45.2 C 282.7 45.2 279.9 43.3 279.9 39.2 C 279.9 35.2 282.5 33.2 285.5 33.2 C 288.3 33.2 290.7 35 290.7 38.9 C 290.66 38.89 290.7 40 290.7 40 C 290.7 40 282.59 40.03 282.6 40 Z M 282.7 38 C 282.7 38 287.9 38 287.9 38 C 287.9 36.5 286.9 35.6 285.4 35.6 C 284.1 35.6 282.9 36.3 282.7 38 Z M 302.8 37.5 C 302.84 37.51 302.8 45 302.8 45 L 300 45 C 300 45 300.04 37.76 300 37.8 C 300 36.5 299.3 35.7 298 35.7 C 296.4 35.7 295.4 36.8 295.4 38.7 C 295.44 38.72 295.4 45 295.4 45 L 292.7 45 L 292.7 33.4 L 295.4 33.4 C 295.4 33.4 295.42 35.07 295.4 35.1 C 296.1 34 297 33.2 299 33.2 C 301.6 33.2 302.8 34.7 302.8 37.5 Z M 307 44.8 C 306.95 44.79 305.5 44.8 305.5 44.8 L 305.5 41.9 L 308.7 41.9 C 308.7 41.9 308.74 44.39 308.7 44.4 C 308.7 47.4 306.7 48.5 304.8 48.7 C 304.8 48.7 304.5 47.2 304.5 47.2 C 306 47 307 46.1 307 44.8 Z " stroke="none" fill="#000"/>  </g>  <g id="Polygon10287">    <path d="M 16.8 19.8 L 13.9 19.8 L 10.6 8.5 L 7.3 19.8 L 4.4 19.8 L 0.3 4 L 3.4 4 L 6 15 L 9.2 4 L 12.1 4 L 15.3 15.1 L 17.9 4 L 20.9 4 L 16.8 19.8 Z M 30.8 12 C 30.81 11.99 30.8 19.8 30.8 19.8 L 28.1 19.8 C 28.1 19.8 28.08 18.1 28.1 18.1 C 27.2 19.6 25.8 20 24.6 20 C 22.7 20 20.8 18.9 20.8 16.4 C 20.8 14.6 21.8 13.4 24.5 13 C 24.5 13 27 12.6 27 12.6 C 27.7 12.5 28.2 12.3 28.2 11.6 C 28.2 10.6 27.3 10.2 26.2 10.2 C 24.7 10.2 24.1 10.9 24 11.9 C 24 11.9 21.3 11.9 21.3 11.9 C 21.6 9.2 23.7 8 26.4 8 C 29.1 8 30.8 9.3 30.8 12 Z M 28.1 14.9 C 28.1 14.9 28.1 14.3 28.1 14.3 C 27.8 14.4 27.3 14.6 26.7 14.6 C 26.7 14.6 25.5 14.8 25.5 14.8 C 24.1 15 23.6 15.6 23.6 16.3 C 23.6 17.2 24.3 17.7 25.2 17.7 C 26.7 17.7 28.1 16.6 28.1 14.9 Z M 42.6 16.2 C 42.6 18.8 40.3 20 37.7 20 C 35.3 20 32.7 19 32.5 16.1 C 32.5 16.1 35.3 16.1 35.3 16.1 C 35.5 17.2 36.5 17.7 37.8 17.7 C 39 17.7 39.8 17.3 39.8 16.5 C 39.8 15.7 39.3 15.6 37.7 15.3 C 35.4 14.9 32.8 14.5 32.8 11.7 C 32.8 9.1 35 8 37.4 8 C 40.2 8 42.1 9.3 42.3 11.9 C 42.3 11.9 39.6 11.9 39.6 11.9 C 39.5 10.8 38.7 10.3 37.5 10.3 C 36.1 10.3 35.6 10.9 35.6 11.6 C 35.6 12.5 36.6 12.7 38 12.9 C 40.1 13.2 42.6 13.5 42.6 16.2 Z M 53.8 15.3 L 52.5 16.7 L 52.5 19.8 L 49.7 19.8 L 49.7 3.8 L 52.5 3.8 L 52.5 12.9 L 56.7 8.2 L 60.3 8.2 L 55.8 13.2 L 60.5 19.8 L 57 19.8 L 53.8 15.3 Z M 63 3.6 L 65.4 3.6 L 65.4 6.1 L 63 6.1 L 63 3.6 Z M 67.3 3.6 L 69.7 3.6 L 69.7 6.1 L 67.3 6.1 L 67.3 3.6 Z M 72 14 C 72 17.8 69.6 20 66.3 20 C 63.1 20 60.7 17.8 60.7 14 C 60.7 10.2 63.1 8 66.3 8 C 69.6 8 72 10.2 72 14 Z M 63.5 14 C 63.5 16.3 64.8 17.4 66.4 17.4 C 68 17.4 69.2 16.2 69.2 14 C 69.2 11.7 67.9 10.6 66.3 10.6 C 64.7 10.6 63.5 11.8 63.5 14 Z M 84.2 12.3 C 84.19 12.31 84.2 19.8 84.2 19.8 L 81.4 19.8 C 81.4 19.8 81.4 12.56 81.4 12.6 C 81.4 11.3 80.7 10.5 79.4 10.5 C 77.8 10.5 76.8 11.6 76.8 13.5 C 76.8 13.52 76.8 19.8 76.8 19.8 L 74 19.8 L 74 8.2 L 76.8 8.2 C 76.8 8.2 76.78 9.87 76.8 9.9 C 77.4 8.8 78.4 8 80.3 8 C 82.9 8 84.2 9.5 84.2 12.3 Z M 97 12.3 C 97 12.31 97 19.8 97 19.8 L 94.2 19.8 C 94.2 19.8 94.21 12.56 94.2 12.6 C 94.2 11.3 93.5 10.5 92.2 10.5 C 90.6 10.5 89.6 11.6 89.6 13.5 C 89.61 13.52 89.6 19.8 89.6 19.8 L 86.8 19.8 L 86.8 8.2 L 89.6 8.2 C 89.6 8.2 89.59 9.87 89.6 9.9 C 90.2 8.8 91.2 8 93.1 8 C 95.8 8 97 9.5 97 12.3 Z M 105.5 19.8 C 105.5 19.8 103.72 19.78 103.7 19.8 C 101.6 19.8 100.2 19.1 100.2 16 C 100.17 16 100.2 10.7 100.2 10.7 L 98 10.7 L 98 8.2 L 100.2 8.2 L 100.2 5.6 L 103 4.8 L 103 8.2 L 105.3 8.2 L 105.3 10.7 L 103 10.7 C 103 10.7 102.96 16.13 103 16.1 C 103 16.8 103.2 17.3 104.1 17.3 C 104.14 17.3 105.5 17.3 105.5 17.3 L 105.5 19.8 Z M 109.1 14.8 C 109.2 16.7 110.5 17.6 112.1 17.6 C 113.2 17.6 114.2 17.2 114.6 16.1 C 114.6 16.1 117.1 16.1 117.1 16.1 C 116.6 18.7 114.3 20 111.9 20 C 109.2 20 106.4 18.1 106.4 14 C 106.4 10 109 8 112 8 C 114.8 8 117.2 9.8 117.2 13.7 C 117.16 13.69 117.2 14.8 117.2 14.8 C 117.2 14.8 109.09 14.83 109.1 14.8 Z M 109.2 12.8 C 109.2 12.8 114.4 12.8 114.4 12.8 C 114.4 11.3 113.4 10.4 111.9 10.4 C 110.6 10.4 109.4 11.1 109.2 12.8 Z M 134.6 19.8 L 131.9 19.8 C 131.9 19.8 131.9 18 131.9 18 C 131.3 19.3 129.9 20 128.3 20 C 125.6 20 123.2 18 123.2 14 C 123.2 10 125.6 8 128.3 8 C 129.8 8 131.1 8.6 131.8 9.7 C 131.84 9.72 131.8 3.8 131.8 3.8 L 134.6 3.8 L 134.6 19.8 Z M 131.9 14 C 131.9 11.6 130.5 10.5 129 10.5 C 127.5 10.5 126.1 11.6 126.1 14 C 126.1 16.3 127.5 17.5 129 17.5 C 130.5 17.5 131.9 16.3 131.9 14 Z M 137.3 6.7 L 140.2 6.7 L 140.2 3.5 L 137.3 3.5 L 137.3 6.7 Z M 137.3 8.2 L 140.1 8.2 L 140.1 19.8 L 137.3 19.8 L 137.3 8.2 Z M 144.8 14.8 C 144.9 16.7 146.2 17.6 147.8 17.6 C 148.9 17.6 149.9 17.2 150.3 16.1 C 150.3 16.1 152.8 16.1 152.8 16.1 C 152.3 18.7 150 20 147.7 20 C 144.9 20 142.1 18.1 142.1 14 C 142.1 10 144.7 8 147.7 8 C 150.5 8 152.9 9.8 152.9 13.7 C 152.88 13.69 152.9 14.8 152.9 14.8 C 152.9 14.8 144.81 14.83 144.8 14.8 Z M 144.9 12.8 C 144.9 12.8 150.1 12.8 150.1 12.8 C 150.1 11.3 149.1 10.4 147.6 10.4 C 146.4 10.4 145.1 11.1 144.9 12.8 Z M 166 20.2 C 162.7 20.2 159.5 18.4 159.5 14.4 C 159.5 14.4 162.4 14.4 162.4 14.4 C 162.5 16.8 164.3 17.7 166 17.7 C 167.5 17.7 168.8 16.9 168.8 15.6 C 168.8 14 167.1 13.6 165.2 13.2 C 163 12.7 160 11.9 160 8.5 C 160 5.2 162.7 3.7 165.7 3.7 C 168.7 3.7 171.5 5.2 171.5 8.4 C 171.5 8.4 168.5 8.4 168.5 8.4 C 168.5 6.8 167.1 6.2 165.6 6.2 C 164.1 6.2 162.9 6.9 162.9 8.3 C 162.9 9.8 164.3 10.2 166.1 10.6 C 168.1 11.1 171.8 11.7 171.8 15.4 C 171.8 18.5 169.1 20.2 166 20.2 Z M 185.2 13.8 C 185.2 18 182.6 19.9 179.9 19.9 C 178.4 19.9 177.3 19.2 176.7 18.4 C 176.65 18.4 176.7 24.1 176.7 24.1 L 173.9 24.1 L 173.9 8.2 L 176.6 8.2 C 176.6 8.2 176.59 10.04 176.6 10 C 177.2 8.8 178.5 8 180.2 8 C 182.9 8 185.2 9.9 185.2 13.8 Z M 182.4 14 C 182.4 11.6 181 10.5 179.5 10.5 C 178 10.5 176.6 11.6 176.6 14 C 176.6 16.3 178 17.4 179.5 17.4 C 181 17.4 182.4 16.3 182.4 14 Z M 193.8 10.8 C 193.8 10.8 193.05 10.77 193.1 10.8 C 191.1 10.8 190 11.8 190 14.1 C 190.03 14.11 190 19.8 190 19.8 L 187.2 19.8 L 187.2 8.2 L 190 8.2 C 190 8.2 190.01 9.85 190 9.8 C 190.6 8.6 191.7 8.1 193 8.1 C 193.03 8.06 193.8 8.1 193.8 8.1 L 193.8 10.8 Z M 196.9 14.8 C 197 16.7 198.3 17.6 199.9 17.6 C 201 17.6 202 17.2 202.4 16.1 C 202.4 16.1 204.9 16.1 204.9 16.1 C 204.4 18.7 202.1 20 199.8 20 C 197 20 194.2 18.1 194.2 14 C 194.2 10 196.8 8 199.8 8 C 202.6 8 205 9.8 205 13.7 C 204.98 13.69 205 14.8 205 14.8 C 205 14.8 196.92 14.83 196.9 14.8 Z M 197 12.8 C 197 12.8 202.2 12.8 202.2 12.8 C 202.2 11.3 201.2 10.4 199.8 10.4 C 198.5 10.4 197.2 11.1 197 12.8 Z M 216.2 12 C 216.24 11.99 216.2 19.8 216.2 19.8 L 213.5 19.8 C 213.5 19.8 213.51 18.1 213.5 18.1 C 212.6 19.6 211.2 20 210 20 C 208.2 20 206.2 18.9 206.2 16.4 C 206.2 14.6 207.3 13.4 209.9 13 C 209.9 13 212.4 12.6 212.4 12.6 C 213.1 12.5 213.6 12.3 213.6 11.6 C 213.6 10.6 212.8 10.2 211.7 10.2 C 210.2 10.2 209.5 10.9 209.4 11.9 C 209.4 11.9 206.7 11.9 206.7 11.9 C 207 9.2 209.2 8 211.8 8 C 214.5 8 216.2 9.3 216.2 12 Z M 213.5 14.9 C 213.5 14.9 213.5 14.3 213.5 14.3 C 213.3 14.4 212.7 14.6 212.2 14.6 C 212.2 14.6 210.9 14.8 210.9 14.8 C 209.5 15 209 15.6 209 16.3 C 209 17.2 209.7 17.7 210.6 17.7 C 212.1 17.7 213.5 16.6 213.5 14.9 Z M 229.4 19.8 L 226.7 19.8 C 226.7 19.8 226.67 18 226.7 18 C 226 19.3 224.7 20 223.1 20 C 220.4 20 218 18 218 14 C 218 10 220.4 8 223.1 8 C 224.6 8 225.9 8.6 226.6 9.7 C 226.61 9.72 226.6 3.8 226.6 3.8 L 229.4 3.8 L 229.4 19.8 Z M 226.7 14 C 226.7 11.6 225.3 10.5 223.8 10.5 C 222.2 10.5 220.9 11.6 220.9 14 C 220.9 16.3 222.2 17.5 223.8 17.5 C 225.3 17.5 226.7 16.3 226.7 14 Z M 241.4 16.2 C 241.4 18.8 239.1 20 236.5 20 C 234.1 20 231.5 19 231.3 16.1 C 231.3 16.1 234.1 16.1 234.1 16.1 C 234.3 17.2 235.3 17.7 236.6 17.7 C 237.8 17.7 238.6 17.3 238.6 16.5 C 238.6 15.7 238.1 15.6 236.5 15.3 C 234.2 14.9 231.6 14.5 231.6 11.7 C 231.6 9.1 233.9 8 236.2 8 C 239 8 241 9.3 241.1 11.9 C 241.1 11.9 238.4 11.9 238.4 11.9 C 238.3 10.8 237.5 10.3 236.3 10.3 C 234.9 10.3 234.4 10.9 234.4 11.6 C 234.4 12.5 235.4 12.7 236.8 12.9 C 238.9 13.2 241.4 13.5 241.4 16.2 Z M 254 19.8 L 251 19.8 L 246.7 8.2 L 249.7 8.2 L 252.5 16.5 L 255.4 8.2 L 258.3 8.2 L 254 19.8 Z M 270 14 C 270 17.8 267.6 20 264.4 20 C 261.1 20 258.7 17.8 258.7 14 C 258.7 10.2 261.1 8 264.4 8 C 267.6 8 270 10.2 270 14 Z M 261.6 14 C 261.6 16.3 262.9 17.4 264.4 17.4 C 266.1 17.4 267.2 16.2 267.2 14 C 267.2 11.7 265.9 10.6 264.3 10.6 C 262.7 10.6 261.6 11.8 261.6 14 Z M 282.2 12.3 C 282.22 12.31 282.2 19.8 282.2 19.8 L 279.4 19.8 C 279.4 19.8 279.42 12.56 279.4 12.6 C 279.4 11.3 278.7 10.5 277.4 10.5 C 275.8 10.5 274.8 11.6 274.8 13.5 C 274.82 13.52 274.8 19.8 274.8 19.8 L 272 19.8 L 272 8.2 L 274.8 8.2 C 274.8 8.2 274.8 9.87 274.8 9.9 C 275.5 8.8 276.4 8 278.3 8 C 281 8 282.2 9.5 282.2 12.3 Z " stroke="none" fill="#000"/>  </g></svg>