<?xml version="1.0" standalone="no"?><!DOCTYPE svg PUBLIC "-//W3C//DTD SVG 1.1//EN" "http://www.w3.org/Graphics/SVG/1.1/DTD/svg11.dtd"><svg xmlns="http://www.w3.org/2000/svg" version="1.1" width="368.3px" height="198.4px" viewBox="0 0 368.3 198.4">  <desc>High-Conviction-Ansatz Wir sind High-Conviction-Anleger und schauen nicht nur auf die Benchmark Bei anhaltend tiefen</desc>  <defs/>  <g id="Polygon11829">    <path d="M 15.1 173.1 L 15.1 181 L 13.7 181 C 13.7 181 13.67 178.63 13.7 178.6 C 12.8 180.2 10.9 181.4 8.4 181.4 C 3.6 181.4 1.2 177.5 1.2 173 C 1.2 168.1 4.2 164.9 8.6 164.9 C 11.9 164.9 14.8 166.6 15.1 170 C 15.1 170 13.5 170 13.5 170 C 13.2 167.7 11.1 166.3 8.7 166.3 C 5.3 166.3 2.8 168.9 2.8 173 C 2.8 176.7 4.7 179.9 8.5 179.9 C 11.5 179.9 13.6 177.9 13.6 174.5 C 13.63 174.53 8.3 174.5 8.3 174.5 L 8.3 173.1 L 15.1 173.1 Z M 19.4 175.7 C 19.4 178.5 21.1 179.8 23.1 179.8 C 24.6 179.8 26.1 179.1 26.4 177.5 C 26.4 177.5 27.9 177.5 27.9 177.5 C 27.4 180.1 25.2 181.2 23.1 181.2 C 20.4 181.2 17.9 179.4 17.9 175.4 C 17.9 171.3 20.4 169.5 23.1 169.5 C 25.8 169.5 28 171.2 28 175 C 27.97 174.95 28 175.7 28 175.7 C 28 175.7 19.38 175.71 19.4 175.7 Z M 19.4 174.4 C 19.4 174.4 26.4 174.4 26.4 174.4 C 26.4 172.1 24.9 170.9 23.1 170.9 C 21.3 170.9 19.6 172 19.4 174.4 Z M 39 177.8 C 39 180.1 36.9 181.2 34.6 181.2 C 32.2 181.2 30 180 29.8 177.5 C 29.8 177.5 31.4 177.5 31.4 177.5 C 31.6 179.2 33.1 179.8 34.6 179.8 C 36.1 179.8 37.4 179.3 37.4 178 C 37.4 176.7 36.1 176.4 34.8 176.2 C 32.6 175.8 30 175.4 30 172.8 C 30 170.6 32 169.5 34.3 169.5 C 36.7 169.5 38.6 170.6 38.7 172.9 C 38.7 172.9 37.1 172.9 37.1 172.9 C 37 171.5 35.7 170.9 34.2 170.9 C 32.7 170.9 31.6 171.6 31.6 172.7 C 31.6 174.2 33 174.4 34.7 174.7 C 36.7 175 39 175.3 39 177.8 Z M 48.4 178.9 C 47.5 180.6 45.8 181.2 44.4 181.2 C 42.5 181.2 40.8 180.1 40.8 177.9 C 40.8 175.8 42.3 174.8 44.2 174.6 C 44.2 174.6 46.9 174.2 46.9 174.2 C 47.7 174.1 48.4 173.8 48.4 172.8 C 48.4 171.5 47.3 170.8 45.7 170.8 C 44 170.8 43 171.6 42.7 172.9 C 42.7 172.9 41.2 172.9 41.2 172.9 C 41.5 170.6 43.3 169.5 45.8 169.5 C 48.4 169.5 49.9 170.7 49.9 173.2 C 49.92 173.19 49.9 181 49.9 181 L 48.4 181 C 48.4 181 48.43 178.92 48.4 178.9 Z M 46.6 175.5 C 46.6 175.5 44.8 175.7 44.8 175.7 C 43.4 175.9 42.3 176.4 42.3 177.8 C 42.3 179.2 43.4 179.8 44.7 179.8 C 46.4 179.8 48.4 178.5 48.4 176.1 C 48.4 176.1 48.4 175 48.4 175 C 48 175.3 47.3 175.4 46.6 175.5 Z M 53.1 169.7 L 54.6 169.7 C 54.6 169.7 54.58 171.57 54.6 171.6 C 55.2 170.2 56.4 169.5 57.9 169.5 C 59.5 169.5 60.8 170.4 61.2 171.8 C 61.7 170.6 62.9 169.5 64.9 169.5 C 66.9 169.5 68.5 170.6 68.5 172.9 C 68.54 172.9 68.5 181 68.5 181 L 67 181 C 67 181 67.01 173.44 67 173.4 C 67 171.7 65.9 170.9 64.6 170.9 C 62.9 170.9 61.6 172.2 61.6 174.5 C 61.55 174.53 61.6 181 61.6 181 L 60 181 C 60 181 60.04 173.44 60 173.4 C 60 171.7 59 170.9 57.7 170.9 C 56 170.9 54.6 172.1 54.6 174.5 C 54.6 174.53 54.6 181 54.6 181 L 53.1 181 L 53.1 169.7 Z M 76.9 181 C 76.9 181 75.28 180.98 75.3 181 C 73.8 181 72.4 180.5 72.4 178 C 72.45 178.02 72.4 171.1 72.4 171.1 L 70.2 171.1 L 70.2 169.7 L 72.4 169.7 L 72.4 166.5 L 74 166.1 L 74 169.7 L 76.7 169.7 L 76.7 171.1 L 74 171.1 C 74 171.1 73.98 178 74 178 C 74 179 74.3 179.6 75.5 179.6 C 75.54 179.6 76.9 179.6 76.9 179.6 L 76.9 181 Z M 84.8 171 C 84.8 171 84.42 171.03 84.4 171 C 82 171 80.7 172.4 80.7 175 C 80.68 175 80.7 181 80.7 181 L 79.1 181 L 79.1 169.7 L 80.7 169.7 C 80.7 169.7 80.66 171.78 80.7 171.8 C 81.2 170.3 82.6 169.6 84.3 169.6 C 84.29 169.58 84.8 169.6 84.8 169.6 L 84.8 171 Z M 87.3 175.7 C 87.4 178.5 89.1 179.8 91.1 179.8 C 92.6 179.8 94.1 179.1 94.4 177.5 C 94.4 177.5 95.8 177.5 95.8 177.5 C 95.3 180.1 93.2 181.2 91 181.2 C 88.3 181.2 85.8 179.4 85.8 175.4 C 85.8 171.3 88.4 169.5 91.1 169.5 C 93.7 169.5 95.9 171.2 95.9 175 C 95.93 174.95 95.9 175.7 95.9 175.7 C 95.9 175.7 87.34 175.71 87.3 175.7 Z M 87.4 174.4 C 87.4 174.4 94.4 174.4 94.4 174.4 C 94.4 172.1 92.9 170.9 91 170.9 C 89.2 170.9 87.6 172 87.4 174.4 Z M 107.7 173.3 C 107.71 173.25 107.7 181 107.7 181 L 106.2 181 C 106.2 181 106.18 173.44 106.2 173.4 C 106.2 171.9 105.3 170.9 103.7 170.9 C 101.8 170.9 100.1 172.3 100.1 175.1 C 100.09 175.06 100.1 181 100.1 181 L 98.6 181 L 98.6 169.7 L 100.1 169.7 C 100.1 169.7 100.09 171.8 100.1 171.8 C 100.8 170.5 102 169.5 104 169.5 C 106.2 169.5 107.7 170.8 107.7 173.3 Z M 120.8 181 L 119.3 181 C 119.3 181 119.3 178.8 119.3 178.8 C 118.8 180.1 117.4 181.2 115.3 181.2 C 112.3 181.2 110.2 178.9 110.2 175.3 C 110.2 171.8 112.3 169.5 115.3 169.5 C 117.2 169.5 118.6 170.4 119.2 171.6 C 119.24 171.62 119.2 165 119.2 165 L 120.8 165 L 120.8 181 Z M 119.2 175.3 C 119.2 172.5 117.7 170.9 115.5 170.9 C 113.3 170.9 111.8 172.6 111.8 175.3 C 111.8 178.1 113.3 179.8 115.5 179.8 C 117.7 179.8 119.2 178.1 119.2 175.3 Z M 125.8 165 L 124 165 L 124 166.9 L 125.8 166.9 L 125.8 165 Z M 125.7 181 L 124.1 181 L 124.1 169.7 L 125.7 169.7 L 125.7 181 Z M 134.2 181 C 134.2 181 132.51 180.98 132.5 181 C 131 181 129.7 180.5 129.7 178 C 129.67 178.02 129.7 171.1 129.7 171.1 L 127.4 171.1 L 127.4 169.7 L 129.7 169.7 L 129.7 166.5 L 131.2 166.1 L 131.2 169.7 L 133.9 169.7 L 133.9 171.1 L 131.2 171.1 C 131.2 171.1 131.21 178 131.2 178 C 131.2 179 131.5 179.6 132.8 179.6 C 132.76 179.6 134.2 179.6 134.2 179.6 L 134.2 181 Z M 137.1 175.7 C 137.2 178.5 138.9 179.8 140.9 179.8 C 142.4 179.8 143.9 179.1 144.2 177.5 C 144.2 177.5 145.7 177.5 145.7 177.5 C 145.2 180.1 143 181.2 140.8 181.2 C 138.1 181.2 135.6 179.4 135.6 175.4 C 135.6 171.3 138.2 169.5 140.9 169.5 C 143.6 169.5 145.7 171.2 145.7 175 C 145.74 174.95 145.7 175.7 145.7 175.7 C 145.7 175.7 137.15 175.71 137.1 175.7 Z M 137.2 174.4 C 137.2 174.4 144.2 174.4 144.2 174.4 C 144.2 172.1 142.7 170.9 140.8 170.9 C 139.1 170.9 137.4 172 137.2 174.4 Z M 147.6 178.8 L 149.8 178.8 L 149.8 181 L 147.6 181 L 147.6 178.8 Z " stroke="none" fill="#000"/>  </g>  <g id="Polygon11828">    <path d="M 8.6 153.7 C 7.7 155.4 6 156 4.6 156 C 2.7 156 0.9 154.9 0.9 152.7 C 0.9 150.6 2.4 149.6 4.4 149.4 C 4.4 149.4 7 149 7 149 C 7.9 148.9 8.6 148.6 8.6 147.6 C 8.6 146.3 7.5 145.6 5.9 145.6 C 4.2 145.6 3.1 146.4 2.9 147.7 C 2.9 147.7 1.4 147.7 1.4 147.7 C 1.7 145.4 3.5 144.3 6 144.3 C 8.5 144.3 10.1 145.5 10.1 148 C 10.1 147.99 10.1 155.8 10.1 155.8 L 8.6 155.8 C 8.6 155.8 8.61 153.72 8.6 153.7 Z M 6.7 150.3 C 6.7 150.3 5 150.5 5 150.5 C 3.6 150.7 2.5 151.2 2.5 152.6 C 2.5 154 3.6 154.6 4.9 154.6 C 6.6 154.6 8.6 153.3 8.6 150.9 C 8.6 150.9 8.6 149.8 8.6 149.8 C 8.1 150.1 7.5 150.2 6.7 150.3 Z M 16.8 150.3 L 14.8 152.4 L 14.8 155.8 L 13.3 155.8 L 13.3 139.8 L 14.8 139.8 L 14.8 150.5 L 20.3 144.5 L 22.3 144.5 L 17.8 149.2 L 22.6 155.8 L 20.8 155.8 L 16.8 150.3 Z M 30 155.8 C 30 155.8 28.33 155.78 28.3 155.8 C 26.8 155.8 25.5 155.3 25.5 152.8 C 25.49 152.82 25.5 145.9 25.5 145.9 L 23.3 145.9 L 23.3 144.5 L 25.5 144.5 L 25.5 141.3 L 27 140.9 L 27 144.5 L 29.8 144.5 L 29.8 145.9 L 27 145.9 C 27 145.9 27.03 152.8 27 152.8 C 27 153.8 27.3 154.4 28.6 154.4 C 28.58 154.4 30 154.4 30 154.4 L 30 155.8 Z M 33.8 139.8 L 32.1 139.8 L 32.1 141.7 L 33.8 141.7 L 33.8 139.8 Z M 33.7 155.8 L 32.2 155.8 L 32.2 144.5 L 33.7 144.5 L 33.7 155.8 Z M 41.6 155.8 L 39.9 155.8 L 35.7 144.5 L 37.4 144.5 L 40.8 154.2 L 44.2 144.5 L 45.8 144.5 L 41.6 155.8 Z M 48.3 150.5 C 48.4 153.3 50.1 154.6 52.1 154.6 C 53.6 154.6 55 153.9 55.4 152.3 C 55.4 152.3 56.8 152.3 56.8 152.3 C 56.3 154.9 54.1 156 52 156 C 49.3 156 46.8 154.2 46.8 150.2 C 46.8 146.1 49.3 144.3 52.1 144.3 C 54.7 144.3 56.9 146 56.9 149.8 C 56.91 149.75 56.9 150.5 56.9 150.5 C 56.9 150.5 48.32 150.51 48.3 150.5 Z M 48.4 149.2 C 48.4 149.2 55.4 149.2 55.4 149.2 C 55.4 146.9 53.9 145.7 52 145.7 C 50.2 145.7 48.6 146.8 48.4 149.2 Z M 68.7 148.1 C 68.69 148.05 68.7 155.8 68.7 155.8 L 67.2 155.8 C 67.2 155.8 67.16 148.24 67.2 148.2 C 67.2 146.7 66.3 145.7 64.7 145.7 C 62.7 145.7 61.1 147.1 61.1 149.9 C 61.07 149.86 61.1 155.8 61.1 155.8 L 59.5 155.8 L 59.5 144.5 L 61.1 144.5 C 61.1 144.5 61.07 146.6 61.1 146.6 C 61.7 145.3 63 144.3 65 144.3 C 67.2 144.3 68.7 145.6 68.7 148.1 Z M 92.7 155.8 L 91.2 155.8 L 91.2 142.1 L 85.9 155.8 L 84.6 155.8 L 79.4 142.2 L 79.4 155.8 L 77.8 155.8 L 77.8 140 L 80.2 140 L 85.3 153.3 L 90.3 140 L 92.7 140 L 92.7 155.8 Z M 103.2 153.7 C 102.4 155.4 100.7 156 99.2 156 C 97.3 156 95.6 154.9 95.6 152.7 C 95.6 150.6 97.1 149.6 99 149.4 C 99 149.4 101.7 149 101.7 149 C 102.5 148.9 103.2 148.6 103.2 147.6 C 103.2 146.3 102.1 145.6 100.5 145.6 C 98.8 145.6 97.8 146.4 97.5 147.7 C 97.5 147.7 96 147.7 96 147.7 C 96.3 145.4 98.1 144.3 100.6 144.3 C 103.2 144.3 104.7 145.5 104.7 148 C 104.73 147.99 104.7 155.8 104.7 155.8 L 103.2 155.8 C 103.2 155.8 103.23 153.72 103.2 153.7 Z M 101.4 150.3 C 101.4 150.3 99.6 150.5 99.6 150.5 C 98.2 150.7 97.1 151.2 97.1 152.6 C 97.1 154 98.2 154.6 99.5 154.6 C 101.2 154.6 103.2 153.3 103.2 150.9 C 103.2 150.9 103.2 149.8 103.2 149.8 C 102.8 150.1 102.1 150.2 101.4 150.3 Z M 117 148.1 C 117.03 148.05 117 155.8 117 155.8 L 115.5 155.8 C 115.5 155.8 115.5 148.24 115.5 148.2 C 115.5 146.7 114.6 145.7 113 145.7 C 111.1 145.7 109.4 147.1 109.4 149.9 C 109.41 149.86 109.4 155.8 109.4 155.8 L 107.9 155.8 L 107.9 144.5 L 109.4 144.5 C 109.4 144.5 109.41 146.6 109.4 146.6 C 110.1 145.3 111.3 144.3 113.3 144.3 C 115.6 144.3 117 145.6 117 148.1 Z M 127.2 153.7 C 126.3 155.4 124.6 156 123.2 156 C 121.3 156 119.6 154.9 119.6 152.7 C 119.6 150.6 121 149.6 123 149.4 C 123 149.4 125.6 149 125.6 149 C 126.5 148.9 127.2 148.6 127.2 147.6 C 127.2 146.3 126.1 145.6 124.5 145.6 C 122.8 145.6 121.8 146.4 121.5 147.7 C 121.5 147.7 120 147.7 120 147.7 C 120.3 145.4 122.1 144.3 124.6 144.3 C 127.2 144.3 128.7 145.5 128.7 148 C 128.71 147.99 128.7 155.8 128.7 155.8 L 127.2 155.8 C 127.2 155.8 127.22 153.72 127.2 153.7 Z M 125.3 150.3 C 125.3 150.3 123.6 150.5 123.6 150.5 C 122.2 150.7 121.1 151.2 121.1 152.6 C 121.1 154 122.2 154.6 123.5 154.6 C 125.2 154.6 127.2 153.3 127.2 150.9 C 127.2 150.9 127.2 149.8 127.2 149.8 C 126.8 150.1 126.1 150.2 125.3 150.3 Z M 141.6 155.3 C 141.6 158.7 139.4 160.4 136.5 160.4 C 134 160.4 131.7 159.1 131.4 156.5 C 131.4 156.5 132.9 156.5 132.9 156.5 C 133.2 157.9 134.2 159.1 136.5 159.1 C 138.5 159.1 140.1 158 140.1 155.4 C 140.1 155.4 140.1 153.1 140.1 153.1 C 139.2 154.8 137.6 155.4 136.1 155.4 C 133.3 155.4 131.1 153.5 131.1 149.8 C 131.1 146.1 133.5 144.3 136.2 144.3 C 138 144.3 139.4 145.1 140 146.3 C 140.05 146.33 140 144.5 140 144.5 L 141.6 144.5 C 141.6 144.5 141.56 155.28 141.6 155.3 Z M 140 149.8 C 140 147 138.3 145.6 136.4 145.6 C 134.4 145.6 132.6 147 132.6 149.8 C 132.6 152.6 134.4 154 136.4 154 C 138.2 154 140 152.8 140 149.8 Z M 145.6 150.5 C 145.6 153.3 147.4 154.6 149.3 154.6 C 150.8 154.6 152.3 153.9 152.6 152.3 C 152.6 152.3 154.1 152.3 154.1 152.3 C 153.6 154.9 151.4 156 149.3 156 C 146.6 156 144.1 154.2 144.1 150.2 C 144.1 146.1 146.6 144.3 149.3 144.3 C 152 144.3 154.2 146 154.2 149.8 C 154.18 149.75 154.2 150.5 154.2 150.5 C 154.2 150.5 145.59 150.51 145.6 150.5 Z M 145.6 149.2 C 145.6 149.2 152.6 149.2 152.6 149.2 C 152.6 146.9 151.2 145.7 149.3 145.7 C 147.5 145.7 145.8 146.8 145.6 149.2 Z M 156.8 144.5 L 158.3 144.5 C 158.3 144.5 158.32 146.37 158.3 146.4 C 158.9 145 160.2 144.3 161.6 144.3 C 163.3 144.3 164.6 145.2 164.9 146.6 C 165.4 145.4 166.7 144.3 168.6 144.3 C 170.7 144.3 172.3 145.4 172.3 147.7 C 172.28 147.7 172.3 155.8 172.3 155.8 L 170.7 155.8 C 170.7 155.8 170.75 148.24 170.7 148.2 C 170.7 146.5 169.7 145.7 168.4 145.7 C 166.7 145.7 165.3 147 165.3 149.3 C 165.29 149.33 165.3 155.8 165.3 155.8 L 163.8 155.8 C 163.8 155.8 163.78 148.24 163.8 148.2 C 163.8 146.5 162.7 145.7 161.4 145.7 C 159.7 145.7 158.3 146.9 158.3 149.3 C 158.34 149.33 158.3 155.8 158.3 155.8 L 156.8 155.8 L 156.8 144.5 Z M 176.3 150.5 C 176.4 153.3 178.1 154.6 180.1 154.6 C 181.6 154.6 183 153.9 183.4 152.3 C 183.4 152.3 184.8 152.3 184.8 152.3 C 184.3 154.9 182.1 156 180 156 C 177.3 156 174.8 154.2 174.8 150.2 C 174.8 146.1 177.3 144.3 180.1 144.3 C 182.7 144.3 184.9 146 184.9 149.8 C 184.9 149.75 184.9 150.5 184.9 150.5 C 184.9 150.5 176.31 150.51 176.3 150.5 Z M 176.4 149.2 C 176.4 149.2 183.3 149.2 183.3 149.2 C 183.3 146.9 181.9 145.7 180 145.7 C 178.2 145.7 176.6 146.8 176.4 149.2 Z M 196.7 148.1 C 196.68 148.05 196.7 155.8 196.7 155.8 L 195.2 155.8 C 195.2 155.8 195.15 148.24 195.2 148.2 C 195.2 146.7 194.3 145.7 192.7 145.7 C 190.7 145.7 189.1 147.1 189.1 149.9 C 189.06 149.86 189.1 155.8 189.1 155.8 L 187.5 155.8 L 187.5 144.5 L 189.1 144.5 C 189.1 144.5 189.06 146.6 189.1 146.6 C 189.7 145.3 191 144.3 193 144.3 C 195.2 144.3 196.7 145.6 196.7 148.1 Z M 205.1 155.8 C 205.1 155.8 203.42 155.78 203.4 155.8 C 201.9 155.8 200.6 155.3 200.6 152.8 C 200.59 152.82 200.6 145.9 200.6 145.9 L 198.4 145.9 L 198.4 144.5 L 200.6 144.5 L 200.6 141.3 L 202.1 140.9 L 202.1 144.5 L 204.9 144.5 L 204.9 145.9 L 202.1 145.9 C 202.1 145.9 202.12 152.8 202.1 152.8 C 202.1 153.8 202.4 154.4 203.7 154.4 C 203.68 154.4 205.1 154.4 205.1 154.4 L 205.1 155.8 Z M 215.7 152.6 C 215.7 154.9 213.6 156 211.3 156 C 208.9 156 206.7 154.8 206.4 152.3 C 206.4 152.3 208.1 152.3 208.1 152.3 C 208.3 154 209.8 154.6 211.3 154.6 C 212.8 154.6 214.1 154.1 214.1 152.8 C 214.1 151.5 212.8 151.2 211.4 151 C 209.3 150.6 206.7 150.2 206.7 147.6 C 206.7 145.4 208.7 144.3 211 144.3 C 213.4 144.3 215.2 145.4 215.4 147.7 C 215.4 147.7 213.8 147.7 213.8 147.7 C 213.7 146.3 212.4 145.7 210.9 145.7 C 209.4 145.7 208.3 146.4 208.3 147.5 C 208.3 149 209.7 149.2 211.4 149.5 C 213.4 149.8 215.7 150.1 215.7 152.6 Z M 226.8 141.1 C 225.6 141.1 225.3 141.7 225.3 142.8 C 225.26 142.76 225.3 144.5 225.3 144.5 L 227.8 144.5 L 227.8 145.9 L 225.3 145.9 L 225.3 155.8 L 223.7 155.8 L 223.7 145.9 L 221.9 145.9 L 221.9 144.5 L 223.7 144.5 C 223.7 144.5 223.73 142.72 223.7 142.7 C 223.7 140.2 225.1 139.8 226.6 139.8 C 226.57 139.78 228.1 139.8 228.1 139.8 L 228.1 141.1 C 228.1 141.1 226.82 141.14 226.8 141.1 Z M 231.6 142.2 L 231.6 140.3 L 233.4 140.3 L 233.4 142.2 L 231.6 142.2 Z M 235.6 142.2 L 235.6 140.3 L 237.4 140.3 L 237.4 142.2 L 235.6 142.2 Z M 237.5 155.8 C 237.5 155.8 237.47 153.64 237.5 153.6 C 236.7 155.2 235.3 155.9 233.7 155.9 C 231.6 155.9 229.9 154.6 229.9 152 C 229.95 151.96 229.9 144.5 229.9 144.5 L 231.5 144.5 C 231.5 144.5 231.48 151.77 231.5 151.8 C 231.5 153.6 232.5 154.6 234 154.6 C 235.8 154.6 237.4 153.2 237.4 150.3 C 237.4 150.34 237.4 144.5 237.4 144.5 L 238.9 144.5 L 238.9 155.8 L 237.5 155.8 Z M 247.9 145.8 C 247.9 145.8 247.57 145.83 247.6 145.8 C 245.2 145.8 243.8 147.2 243.8 149.8 C 243.83 149.8 243.8 155.8 243.8 155.8 L 242.3 155.8 L 242.3 144.5 L 243.8 144.5 C 243.8 144.5 243.81 146.58 243.8 146.6 C 244.3 145.1 245.7 144.4 247.4 144.4 C 247.44 144.38 247.9 144.4 247.9 144.4 L 247.9 145.8 Z M 264.3 155.8 L 262.9 155.8 C 262.9 155.8 262.88 153.6 262.9 153.6 C 262.3 154.9 261 156 258.9 156 C 255.9 156 253.8 153.7 253.8 150.1 C 253.8 146.6 255.9 144.3 258.9 144.3 C 260.8 144.3 262.2 145.2 262.8 146.4 C 262.81 146.42 262.8 139.8 262.8 139.8 L 264.3 139.8 L 264.3 155.8 Z M 262.8 150.1 C 262.8 147.3 261.2 145.7 259.1 145.7 C 256.9 145.7 255.4 147.4 255.4 150.1 C 255.4 152.9 256.9 154.6 259.1 154.6 C 261.3 154.6 262.8 152.9 262.8 150.1 Z M 269.3 139.8 L 267.6 139.8 L 267.6 141.7 L 269.3 141.7 L 269.3 139.8 Z M 269.2 155.8 L 267.7 155.8 L 267.7 144.5 L 269.2 144.5 L 269.2 155.8 Z M 273.4 150.5 C 273.4 153.3 275.1 154.6 277.1 154.6 C 278.6 154.6 280.1 153.9 280.4 152.3 C 280.4 152.3 281.9 152.3 281.9 152.3 C 281.4 154.9 279.2 156 277 156 C 274.4 156 271.9 154.2 271.9 150.2 C 271.9 146.1 274.4 144.3 277.1 144.3 C 279.8 144.3 282 146 282 149.8 C 281.96 149.75 282 150.5 282 150.5 C 282 150.5 273.37 150.51 273.4 150.5 Z M 273.4 149.2 C 273.4 149.2 280.4 149.2 280.4 149.2 C 280.4 146.9 278.9 145.7 277 145.7 C 275.3 145.7 273.6 146.8 273.4 149.2 Z " stroke="none" fill="#000"/>  </g>  <g id="Polygon11827">    <path d="M 1.2 129.2 L 10.9 116.2 L 1.4 116.2 L 1.4 114.8 L 12.8 114.8 L 12.8 116.2 L 3.1 129.1 L 13 129.1 L 13 130.6 L 1.2 130.6 L 1.2 129.2 Z M 17.3 114.6 L 15.5 114.6 L 15.5 116.5 L 17.3 116.5 L 17.3 114.6 Z M 17.2 130.6 L 15.6 130.6 L 15.6 119.3 L 17.2 119.3 L 17.2 130.6 Z M 29.7 122.9 C 29.69 122.85 29.7 130.6 29.7 130.6 L 28.2 130.6 C 28.2 130.6 28.16 123.04 28.2 123 C 28.2 121.5 27.3 120.5 25.7 120.5 C 23.8 120.5 22.1 121.9 22.1 124.7 C 22.07 124.66 22.1 130.6 22.1 130.6 L 20.5 130.6 L 20.5 119.3 L 22.1 119.3 C 22.1 119.3 22.07 121.4 22.1 121.4 C 22.7 120.1 24 119.1 26 119.1 C 28.2 119.1 29.7 120.4 29.7 122.9 Z M 41.3 127.4 C 41.3 129.7 39.2 130.8 37 130.8 C 34.6 130.8 32.3 129.6 32.1 127.1 C 32.1 127.1 33.7 127.1 33.7 127.1 C 34 128.8 35.5 129.4 37 129.4 C 38.5 129.4 39.7 128.9 39.7 127.6 C 39.7 126.3 38.4 126 37.1 125.8 C 34.9 125.4 32.4 125 32.4 122.4 C 32.4 120.2 34.3 119.1 36.6 119.1 C 39 119.1 40.9 120.2 41 122.5 C 41 122.5 39.4 122.5 39.4 122.5 C 39.3 121.1 38 120.5 36.6 120.5 C 35 120.5 34 121.2 34 122.3 C 34 123.8 35.3 124 37 124.3 C 39.1 124.6 41.3 124.9 41.3 127.4 Z M 44.6 125.3 C 44.7 128.1 46.4 129.4 48.4 129.4 C 49.9 129.4 51.3 128.7 51.7 127.1 C 51.7 127.1 53.1 127.1 53.1 127.1 C 52.6 129.7 50.4 130.8 48.3 130.8 C 45.6 130.8 43.1 129 43.1 125 C 43.1 120.9 45.7 119.1 48.4 119.1 C 51 119.1 53.2 120.8 53.2 124.6 C 53.21 124.55 53.2 125.3 53.2 125.3 C 53.2 125.3 44.62 125.31 44.6 125.3 Z M 44.7 124 C 44.7 124 51.7 124 51.7 124 C 51.7 121.7 50.2 120.5 48.3 120.5 C 46.5 120.5 44.9 121.6 44.7 124 Z M 65 122.9 C 64.99 122.85 65 130.6 65 130.6 L 63.5 130.6 C 63.5 130.6 63.46 123.04 63.5 123 C 63.5 121.5 62.6 120.5 61 120.5 C 59.1 120.5 57.4 121.9 57.4 124.7 C 57.37 124.66 57.4 130.6 57.4 130.6 L 55.8 130.6 L 55.8 119.3 L 57.4 119.3 C 57.4 119.3 57.37 121.4 57.4 121.4 C 58 120.1 59.3 119.1 61.3 119.1 C 63.5 119.1 65 120.4 65 122.9 Z M 81.9 127.4 C 81.9 129.7 79.8 130.8 77.5 130.8 C 75.1 130.8 72.9 129.6 72.7 127.1 C 72.7 127.1 74.3 127.1 74.3 127.1 C 74.5 128.8 76 129.4 77.6 129.4 C 79 129.4 80.3 128.9 80.3 127.6 C 80.3 126.3 79 126 77.7 125.8 C 75.5 125.4 72.9 125 72.9 122.4 C 72.9 120.2 74.9 119.1 77.2 119.1 C 79.6 119.1 81.5 120.2 81.6 122.5 C 81.6 122.5 80 122.5 80 122.5 C 79.9 121.1 78.6 120.5 77.1 120.5 C 75.6 120.5 74.5 121.2 74.5 122.3 C 74.5 123.8 75.9 124 77.6 124.3 C 79.6 124.6 81.9 124.9 81.9 127.4 Z M 89.5 130.6 C 89.5 130.6 87.88 130.58 87.9 130.6 C 86.4 130.6 85 130.1 85 127.6 C 85.05 127.62 85 120.7 85 120.7 L 82.8 120.7 L 82.8 119.3 L 85 119.3 L 85 116.1 L 86.6 115.7 L 86.6 119.3 L 89.3 119.3 L 89.3 120.7 L 86.6 120.7 C 86.6 120.7 86.58 127.6 86.6 127.6 C 86.6 128.6 86.9 129.2 88.1 129.2 C 88.14 129.2 89.5 129.2 89.5 129.2 L 89.5 130.6 Z M 92.5 125.3 C 92.6 128.1 94.3 129.4 96.3 129.4 C 97.8 129.4 99.2 128.7 99.6 127.1 C 99.6 127.1 101 127.1 101 127.1 C 100.5 129.7 98.3 130.8 96.2 130.8 C 93.5 130.8 91 129 91 125 C 91 120.9 93.6 119.1 96.3 119.1 C 98.9 119.1 101.1 120.8 101.1 124.6 C 101.11 124.55 101.1 125.3 101.1 125.3 C 101.1 125.3 92.52 125.31 92.5 125.3 Z M 92.6 124 C 92.6 124 99.6 124 99.6 124 C 99.6 121.7 98.1 120.5 96.2 120.5 C 94.4 120.5 92.8 121.6 92.6 124 Z M 105.4 114.6 L 103.6 114.6 L 103.6 116.5 L 105.4 116.5 L 105.4 114.6 Z M 105.3 130.6 L 103.7 130.6 L 103.7 119.3 L 105.3 119.3 L 105.3 130.6 Z M 118.3 130.1 C 118.3 133.5 116.1 135.2 113.2 135.2 C 110.7 135.2 108.5 133.9 108.1 131.3 C 108.1 131.3 109.7 131.3 109.7 131.3 C 109.9 132.7 111 133.9 113.2 133.9 C 115.3 133.9 116.9 132.8 116.9 130.2 C 116.9 130.2 116.9 127.9 116.9 127.9 C 116 129.6 114.3 130.2 112.9 130.2 C 110.1 130.2 107.9 128.3 107.9 124.6 C 107.9 120.9 110.2 119.1 112.9 119.1 C 114.8 119.1 116.1 119.9 116.8 121.1 C 116.82 121.13 116.8 119.3 116.8 119.3 L 118.3 119.3 C 118.3 119.3 118.33 130.08 118.3 130.1 Z M 116.8 124.6 C 116.8 121.8 115.1 120.4 113.1 120.4 C 111.2 120.4 109.4 121.8 109.4 124.6 C 109.4 127.4 111.2 128.8 113.1 128.8 C 114.9 128.8 116.8 127.6 116.8 124.6 Z M 126.7 130.6 C 126.7 130.6 125.07 130.58 125.1 130.6 C 123.6 130.6 122.2 130.1 122.2 127.6 C 122.24 127.62 122.2 120.7 122.2 120.7 L 120 120.7 L 120 119.3 L 122.2 119.3 L 122.2 116.1 L 123.8 115.7 L 123.8 119.3 L 126.5 119.3 L 126.5 120.7 L 123.8 120.7 C 123.8 120.7 123.77 127.6 123.8 127.6 C 123.8 128.6 124.1 129.2 125.3 129.2 C 125.33 129.2 126.7 129.2 126.7 129.2 L 126.7 130.6 Z M 143.8 130.6 L 142.3 130.6 C 142.3 130.6 142.32 128.4 142.3 128.4 C 141.8 129.7 140.4 130.8 138.3 130.8 C 135.3 130.8 133.2 128.5 133.2 124.9 C 133.2 121.4 135.3 119.1 138.3 119.1 C 140.2 119.1 141.6 120 142.3 121.2 C 142.25 121.22 142.3 114.6 142.3 114.6 L 143.8 114.6 L 143.8 130.6 Z M 142.2 124.9 C 142.2 122.1 140.7 120.5 138.5 120.5 C 136.3 120.5 134.8 122.2 134.8 124.9 C 134.8 127.7 136.3 129.4 138.5 129.4 C 140.7 129.4 142.2 127.7 142.2 124.9 Z M 148.8 114.6 L 147 114.6 L 147 116.5 L 148.8 116.5 L 148.8 114.6 Z M 148.7 130.6 L 147.1 130.6 L 147.1 119.3 L 148.7 119.3 L 148.7 130.6 Z M 152.8 125.3 C 152.9 128.1 154.6 129.4 156.6 129.4 C 158.1 129.4 159.5 128.7 159.9 127.1 C 159.9 127.1 161.3 127.1 161.3 127.1 C 160.8 129.7 158.6 130.8 156.5 130.8 C 153.8 130.8 151.3 129 151.3 125 C 151.3 120.9 153.8 119.1 156.6 119.1 C 159.2 119.1 161.4 120.8 161.4 124.6 C 161.4 124.55 161.4 125.3 161.4 125.3 C 161.4 125.3 152.81 125.31 152.8 125.3 Z M 152.9 124 C 152.9 124 159.8 124 159.8 124 C 159.8 121.7 158.4 120.5 156.5 120.5 C 154.7 120.5 153.1 121.6 152.9 124 Z M 180.6 126.1 C 180.6 128.3 178.8 130.6 175.5 130.6 C 175.45 130.6 169.5 130.6 169.5 130.6 L 169.5 114.8 C 169.5 114.8 175.73 114.83 175.7 114.8 C 178.5 114.8 179.9 116.6 179.9 118.4 C 179.9 119.9 179.1 121.4 177.6 122.1 C 179.6 122.8 180.6 124.4 180.6 126.1 Z M 175 121.6 C 177.2 121.6 178.3 120.1 178.3 118.7 C 178.3 117.5 177.4 116.2 175.4 116.2 C 175.43 116.24 171.1 116.2 171.1 116.2 L 171.1 121.6 C 171.1 121.6 175.01 121.55 175 121.6 Z M 178.9 126 C 178.9 124.4 177.8 123 175.6 123 C 175.62 122.96 171.1 123 171.1 123 L 171.1 129.1 C 171.1 129.1 175.45 129.13 175.5 129.1 C 177.8 129.1 178.9 127.6 178.9 126 Z M 184.1 125.3 C 184.1 128.1 185.8 129.4 187.8 129.4 C 189.3 129.4 190.8 128.7 191.1 127.1 C 191.1 127.1 192.6 127.1 192.6 127.1 C 192.1 129.7 189.9 130.8 187.7 130.8 C 185 130.8 182.6 129 182.6 125 C 182.6 120.9 185.1 119.1 187.8 119.1 C 190.5 119.1 192.7 120.8 192.7 124.6 C 192.65 124.55 192.7 125.3 192.7 125.3 C 192.7 125.3 184.06 125.31 184.1 125.3 Z M 184.1 124 C 184.1 124 191.1 124 191.1 124 C 191.1 121.7 189.6 120.5 187.7 120.5 C 186 120.5 184.3 121.6 184.1 124 Z M 205.1 130.6 L 203.6 130.6 C 203.6 130.6 203.61 128.4 203.6 128.4 C 203.1 129.7 201.7 130.8 199.6 130.8 C 196.6 130.8 194.5 128.5 194.5 124.9 C 194.5 121.4 196.6 119.1 199.6 119.1 C 201.5 119.1 202.9 120 203.6 121.2 C 203.55 121.22 203.6 114.6 203.6 114.6 L 205.1 114.6 L 205.1 130.6 Z M 203.5 124.9 C 203.5 122.1 202 120.5 199.8 120.5 C 197.6 120.5 196.1 122.2 196.1 124.9 C 196.1 127.7 197.6 129.4 199.8 129.4 C 202 129.4 203.5 127.7 203.5 124.9 Z M 209.2 125.3 C 209.3 128.1 211 129.4 213 129.4 C 214.5 129.4 215.9 128.7 216.3 127.1 C 216.3 127.1 217.7 127.1 217.7 127.1 C 217.2 129.7 215 130.8 212.9 130.8 C 210.2 130.8 207.7 129 207.7 125 C 207.7 120.9 210.2 119.1 213 119.1 C 215.6 119.1 217.8 120.8 217.8 124.6 C 217.81 124.55 217.8 125.3 217.8 125.3 C 217.8 125.3 209.22 125.31 209.2 125.3 Z M 209.3 124 C 209.3 124 216.3 124 216.3 124 C 216.3 121.7 214.8 120.5 212.9 120.5 C 211.1 120.5 209.5 121.6 209.3 124 Z M 227.8 130.6 C 227.8 130.6 227.85 128.44 227.8 128.4 C 227.1 130 225.7 130.7 224.1 130.7 C 222 130.7 220.3 129.4 220.3 126.8 C 220.33 126.76 220.3 119.3 220.3 119.3 L 221.9 119.3 C 221.9 119.3 221.86 126.57 221.9 126.6 C 221.9 128.4 222.9 129.4 224.4 129.4 C 226.2 129.4 227.8 128 227.8 125.1 C 227.78 125.14 227.8 119.3 227.8 119.3 L 229.3 119.3 L 229.3 130.6 L 227.8 130.6 Z M 237.8 130.6 C 237.8 130.6 236.16 130.58 236.2 130.6 C 234.7 130.6 233.3 130.1 233.3 127.6 C 233.33 127.62 233.3 120.7 233.3 120.7 L 231.1 120.7 L 231.1 119.3 L 233.3 119.3 L 233.3 116.1 L 234.9 115.7 L 234.9 119.3 L 237.6 119.3 L 237.6 120.7 L 234.9 120.7 C 234.9 120.7 234.86 127.6 234.9 127.6 C 234.9 128.6 235.2 129.2 236.4 129.2 C 236.42 129.2 237.8 129.2 237.8 129.2 L 237.8 130.6 Z M 247.4 130.6 C 247.4 130.6 247.44 128.44 247.4 128.4 C 246.7 130 245.3 130.7 243.7 130.7 C 241.6 130.7 239.9 129.4 239.9 126.8 C 239.92 126.76 239.9 119.3 239.9 119.3 L 241.5 119.3 C 241.5 119.3 241.46 126.57 241.5 126.6 C 241.5 128.4 242.5 129.4 244 129.4 C 245.8 129.4 247.4 128 247.4 125.1 C 247.38 125.14 247.4 119.3 247.4 119.3 L 248.9 119.3 L 248.9 130.6 L 247.4 130.6 Z M 261.4 122.9 C 261.43 122.85 261.4 130.6 261.4 130.6 L 259.9 130.6 C 259.9 130.6 259.89 123.04 259.9 123 C 259.9 121.5 259 120.5 257.4 120.5 C 255.5 120.5 253.8 121.9 253.8 124.7 C 253.8 124.66 253.8 130.6 253.8 130.6 L 252.3 130.6 L 252.3 119.3 L 253.8 119.3 C 253.8 119.3 253.8 121.4 253.8 121.4 C 254.5 120.1 255.7 119.1 257.7 119.1 C 260 119.1 261.4 120.4 261.4 122.9 Z M 274.4 130.1 C 274.4 133.5 272.2 135.2 269.3 135.2 C 266.8 135.2 264.6 133.9 264.2 131.3 C 264.2 131.3 265.8 131.3 265.8 131.3 C 266 132.7 267 133.9 269.3 133.9 C 271.4 133.9 272.9 132.8 272.9 130.2 C 272.9 130.2 272.9 127.9 272.9 127.9 C 272.1 129.6 270.4 130.2 268.9 130.2 C 266.2 130.2 263.9 128.3 263.9 124.6 C 263.9 120.9 266.3 119.1 269 119.1 C 270.8 119.1 272.2 119.9 272.9 121.1 C 272.87 121.13 272.9 119.3 272.9 119.3 L 274.4 119.3 C 274.4 119.3 274.38 130.08 274.4 130.1 Z M 272.8 124.6 C 272.8 121.8 271.1 120.4 269.2 120.4 C 267.3 120.4 265.5 121.8 265.5 124.6 C 265.5 127.4 267.2 128.8 269.2 128.8 C 271 128.8 272.8 127.6 272.8 124.6 Z M 283.7 125.3 C 283.7 128.1 285.4 129.4 287.4 129.4 C 288.9 129.4 290.4 128.7 290.7 127.1 C 290.7 127.1 292.2 127.1 292.2 127.1 C 291.7 129.7 289.5 130.8 287.3 130.8 C 284.7 130.8 282.2 129 282.2 125 C 282.2 120.9 284.7 119.1 287.4 119.1 C 290.1 119.1 292.3 120.8 292.3 124.6 C 292.25 124.55 292.3 125.3 292.3 125.3 C 292.3 125.3 283.66 125.31 283.7 125.3 Z M 283.7 124 C 283.7 124 290.7 124 290.7 124 C 290.7 121.7 289.2 120.5 287.3 120.5 C 285.6 120.5 283.9 121.6 283.7 124 Z M 296.5 114.6 L 294.8 114.6 L 294.8 116.5 L 296.5 116.5 L 296.5 114.6 Z M 296.4 130.6 L 294.9 130.6 L 294.9 119.3 L 296.4 119.3 L 296.4 130.6 Z M 308.9 122.9 C 308.93 122.85 308.9 130.6 308.9 130.6 L 307.4 130.6 C 307.4 130.6 307.39 123.04 307.4 123 C 307.4 121.5 306.5 120.5 304.9 120.5 C 303 120.5 301.3 121.9 301.3 124.7 C 301.3 124.66 301.3 130.6 301.3 130.6 L 299.8 130.6 L 299.8 119.3 L 301.3 119.3 C 301.3 119.3 301.3 121.4 301.3 121.4 C 302 120.1 303.2 119.1 305.2 119.1 C 307.5 119.1 308.9 120.4 308.9 122.9 Z M 313 125.3 C 313 128.1 314.7 129.4 316.7 129.4 C 318.2 129.4 319.7 128.7 320 127.1 C 320 127.1 321.5 127.1 321.5 127.1 C 321 129.7 318.8 130.8 316.6 130.8 C 313.9 130.8 311.4 129 311.4 125 C 311.4 120.9 314 119.1 316.7 119.1 C 319.4 119.1 321.5 120.8 321.5 124.6 C 321.55 124.55 321.5 125.3 321.5 125.3 C 321.5 125.3 312.96 125.31 313 125.3 Z M 313 124 C 313 124 320 124 320 124 C 320 121.7 318.5 120.5 316.6 120.5 C 314.9 120.5 313.2 121.6 313 124 Z M 332.6 127.4 C 332.6 129.7 330.5 130.8 328.2 130.8 C 325.8 130.8 323.6 129.6 323.3 127.1 C 323.3 127.1 325 127.1 325 127.1 C 325.2 128.8 326.7 129.4 328.2 129.4 C 329.7 129.4 331 128.9 331 127.6 C 331 126.3 329.7 126 328.3 125.8 C 326.2 125.4 323.6 125 323.6 122.4 C 323.6 120.2 325.5 119.1 327.8 119.1 C 330.2 119.1 332.1 120.2 332.3 122.5 C 332.3 122.5 330.7 122.5 330.7 122.5 C 330.6 121.1 329.3 120.5 327.8 120.5 C 326.3 120.5 325.2 121.2 325.2 122.3 C 325.2 123.8 326.6 124 328.3 124.3 C 330.3 124.6 332.6 124.9 332.6 127.4 Z " stroke="none" fill="#000"/>  </g>  <g id="Polygon11826">    <path d="M 13 100.9 C 13 103.1 11.2 105.4 7.9 105.4 C 7.85 105.4 1.9 105.4 1.9 105.4 L 1.9 89.6 C 1.9 89.6 8.13 89.63 8.1 89.6 C 10.9 89.6 12.3 91.4 12.3 93.2 C 12.3 94.7 11.5 96.2 10 96.9 C 12 97.6 13 99.2 13 100.9 Z M 7.4 96.4 C 9.6 96.4 10.7 94.9 10.7 93.5 C 10.7 92.3 9.8 91 7.8 91 C 7.83 91.04 3.5 91 3.5 91 L 3.5 96.4 C 3.5 96.4 7.41 96.35 7.4 96.4 Z M 11.3 100.8 C 11.3 99.2 10.2 97.8 8 97.8 C 8.02 97.76 3.5 97.8 3.5 97.8 L 3.5 103.9 C 3.5 103.9 7.85 103.93 7.9 103.9 C 10.2 103.9 11.3 102.4 11.3 100.8 Z M 16.5 100.1 C 16.5 102.9 18.2 104.2 20.2 104.2 C 21.7 104.2 23.2 103.5 23.5 101.9 C 23.5 101.9 25 101.9 25 101.9 C 24.5 104.5 22.3 105.6 20.1 105.6 C 17.5 105.6 15 103.8 15 99.8 C 15 95.7 17.5 93.9 20.2 93.9 C 22.9 93.9 25.1 95.6 25.1 99.4 C 25.05 99.35 25.1 100.1 25.1 100.1 C 25.1 100.1 16.46 100.11 16.5 100.1 Z M 16.5 98.8 C 16.5 98.8 23.5 98.8 23.5 98.8 C 23.5 96.5 22 95.3 20.1 95.3 C 18.4 95.3 16.7 96.4 16.5 98.8 Z M 36.8 97.7 C 36.83 97.65 36.8 105.4 36.8 105.4 L 35.3 105.4 C 35.3 105.4 35.3 97.84 35.3 97.8 C 35.3 96.3 34.4 95.3 32.8 95.3 C 30.9 95.3 29.2 96.7 29.2 99.5 C 29.21 99.46 29.2 105.4 29.2 105.4 L 27.7 105.4 L 27.7 94.1 L 29.2 94.1 C 29.2 94.1 29.21 96.2 29.2 96.2 C 29.9 94.9 31.1 93.9 33.1 93.9 C 35.4 93.9 36.8 95.2 36.8 97.7 Z M 44.6 105.6 C 41.5 105.6 39.4 103.3 39.4 99.8 C 39.4 96.2 41.5 93.9 44.7 93.9 C 47.2 93.9 49.2 95.3 49.4 97.8 C 49.4 97.8 47.9 97.8 47.9 97.8 C 47.7 96.2 46.3 95.3 44.7 95.3 C 42.5 95.3 40.9 97 40.9 99.7 C 40.9 102.5 42.5 104.2 44.7 104.2 C 46.4 104.2 47.7 103.2 47.9 101.4 C 47.9 101.4 49.4 101.4 49.4 101.4 C 49.2 104.1 47.1 105.6 44.6 105.6 Z M 61.2 97.7 C 61.15 97.65 61.2 105.4 61.2 105.4 L 59.6 105.4 C 59.6 105.4 59.62 97.84 59.6 97.8 C 59.6 96.3 58.7 95.3 57.1 95.3 C 55.2 95.3 53.5 96.7 53.5 99.5 C 53.53 99.46 53.5 105.4 53.5 105.4 L 52 105.4 L 52 89.4 L 53.5 89.4 C 53.5 89.4 53.53 96.08 53.5 96.1 C 54.2 94.8 55.4 93.9 57.4 93.9 C 59.7 93.9 61.2 95.2 61.2 97.7 Z M 64.4 94.1 L 65.9 94.1 C 65.9 94.1 65.92 95.97 65.9 96 C 66.5 94.6 67.8 93.9 69.2 93.9 C 70.9 93.9 72.2 94.8 72.5 96.2 C 73 95 74.3 93.9 76.2 93.9 C 78.3 93.9 79.9 95 79.9 97.3 C 79.88 97.3 79.9 105.4 79.9 105.4 L 78.4 105.4 C 78.4 105.4 78.35 97.84 78.4 97.8 C 78.4 96.1 77.3 95.3 76 95.3 C 74.3 95.3 72.9 96.6 72.9 98.9 C 72.89 98.93 72.9 105.4 72.9 105.4 L 71.4 105.4 C 71.4 105.4 71.38 97.84 71.4 97.8 C 71.4 96.1 70.3 95.3 69 95.3 C 67.3 95.3 65.9 96.5 65.9 98.9 C 65.94 98.93 65.9 105.4 65.9 105.4 L 64.4 105.4 L 64.4 94.1 Z M 90.1 103.3 C 89.2 105 87.5 105.6 86.1 105.6 C 84.1 105.6 82.4 104.5 82.4 102.3 C 82.4 100.2 83.9 99.2 85.8 99 C 85.8 99 88.5 98.6 88.5 98.6 C 89.3 98.5 90.1 98.2 90.1 97.2 C 90.1 95.9 88.9 95.2 87.3 95.2 C 85.6 95.2 84.6 96 84.4 97.3 C 84.4 97.3 82.8 97.3 82.8 97.3 C 83.2 95 85 93.9 87.4 93.9 C 90 93.9 91.6 95.1 91.6 97.6 C 91.56 97.59 91.6 105.4 91.6 105.4 L 90.1 105.4 C 90.1 105.4 90.07 103.32 90.1 103.3 Z M 88.2 99.9 C 88.2 99.9 86.5 100.1 86.5 100.1 C 85 100.3 84 100.8 84 102.2 C 84 103.6 85.1 104.2 86.3 104.2 C 88.1 104.2 90 102.9 90 100.5 C 90 100.5 90 99.4 90 99.4 C 89.6 99.7 89 99.8 88.2 99.9 Z M 100.3 95.4 C 100.3 95.4 99.98 95.43 100 95.4 C 97.6 95.4 96.2 96.8 96.2 99.4 C 96.24 99.4 96.2 105.4 96.2 105.4 L 94.7 105.4 L 94.7 94.1 L 96.2 94.1 C 96.2 94.1 96.22 96.18 96.2 96.2 C 96.7 94.7 98.1 94 99.9 94 C 99.85 93.98 100.3 94 100.3 94 L 100.3 95.4 Z M 105.9 99.9 L 103.9 102 L 103.9 105.4 L 102.3 105.4 L 102.3 89.4 L 103.9 89.4 L 103.9 100.1 L 109.4 94.1 L 111.4 94.1 L 106.9 98.8 L 111.7 105.4 L 109.8 105.4 L 105.9 99.9 Z M 113.2 103.2 L 115.3 103.2 L 115.3 105.4 L 113.2 105.4 L 113.2 103.2 Z M 134.5 100.9 C 134.5 103.1 132.7 105.4 129.4 105.4 C 129.38 105.4 123.4 105.4 123.4 105.4 L 123.4 89.6 C 123.4 89.6 129.65 89.63 129.7 89.6 C 132.5 89.6 133.8 91.4 133.8 93.2 C 133.8 94.7 133 96.2 131.5 96.9 C 133.5 97.6 134.5 99.2 134.5 100.9 Z M 128.9 96.4 C 131.1 96.4 132.2 94.9 132.2 93.5 C 132.2 92.3 131.3 91 129.4 91 C 129.36 91.04 125 91 125 91 L 125 96.4 C 125 96.4 128.94 96.35 128.9 96.4 Z M 132.8 100.8 C 132.8 99.2 131.7 97.8 129.5 97.8 C 129.55 97.76 125 97.8 125 97.8 L 125 103.9 C 125 103.9 129.38 103.93 129.4 103.9 C 131.7 103.9 132.8 102.4 132.8 100.8 Z M 138 100.1 C 138 102.9 139.8 104.2 141.7 104.2 C 143.2 104.2 144.7 103.5 145 101.9 C 145 101.9 146.5 101.9 146.5 101.9 C 146 104.5 143.8 105.6 141.7 105.6 C 139 105.6 136.5 103.8 136.5 99.8 C 136.5 95.7 139 93.9 141.7 93.9 C 144.4 93.9 146.6 95.6 146.6 99.4 C 146.58 99.35 146.6 100.1 146.6 100.1 C 146.6 100.1 137.99 100.11 138 100.1 Z M 138 98.8 C 138 98.8 145 98.8 145 98.8 C 145 96.5 143.6 95.3 141.7 95.3 C 139.9 95.3 138.2 96.4 138 98.8 Z M 150.8 89.4 L 149.1 89.4 L 149.1 91.3 L 150.8 91.3 L 150.8 89.4 Z M 150.7 105.4 L 149.2 105.4 L 149.2 94.1 L 150.7 94.1 L 150.7 105.4 Z M 166.7 103.3 C 165.8 105 164.1 105.6 162.7 105.6 C 160.8 105.6 159 104.5 159 102.3 C 159 100.2 160.5 99.2 162.5 99 C 162.5 99 165.1 98.6 165.1 98.6 C 166 98.5 166.7 98.2 166.7 97.2 C 166.7 95.9 165.5 95.2 164 95.2 C 162.3 95.2 161.2 96 161 97.3 C 161 97.3 159.5 97.3 159.5 97.3 C 159.8 95 161.6 93.9 164.1 93.9 C 166.6 93.9 168.2 95.1 168.2 97.6 C 168.19 97.59 168.2 105.4 168.2 105.4 L 166.7 105.4 C 166.7 105.4 166.7 103.32 166.7 103.3 Z M 164.8 99.9 C 164.8 99.9 163.1 100.1 163.1 100.1 C 161.7 100.3 160.6 100.8 160.6 102.2 C 160.6 103.6 161.7 104.2 162.9 104.2 C 164.7 104.2 166.7 102.9 166.7 100.5 C 166.7 100.5 166.7 99.4 166.7 99.4 C 166.2 99.7 165.6 99.8 164.8 99.9 Z M 180.5 97.7 C 180.49 97.65 180.5 105.4 180.5 105.4 L 179 105.4 C 179 105.4 178.96 97.84 179 97.8 C 179 96.3 178.1 95.3 176.5 95.3 C 174.5 95.3 172.9 96.7 172.9 99.5 C 172.87 99.46 172.9 105.4 172.9 105.4 L 171.3 105.4 L 171.3 94.1 L 172.9 94.1 C 172.9 94.1 172.87 96.2 172.9 96.2 C 173.5 94.9 174.8 93.9 176.8 93.9 C 179 93.9 180.5 95.2 180.5 97.7 Z M 192.9 97.7 C 192.9 97.65 192.9 105.4 192.9 105.4 L 191.4 105.4 C 191.4 105.4 191.37 97.84 191.4 97.8 C 191.4 96.3 190.5 95.3 188.9 95.3 C 187 95.3 185.3 96.7 185.3 99.5 C 185.28 99.46 185.3 105.4 185.3 105.4 L 183.7 105.4 L 183.7 89.4 L 185.3 89.4 C 185.3 89.4 185.28 96.08 185.3 96.1 C 185.9 94.8 187.1 93.9 189.1 93.9 C 191.5 93.9 192.9 95.2 192.9 97.7 Z M 203.1 103.3 C 202.2 105 200.5 105.6 199.1 105.6 C 197.1 105.6 195.4 104.5 195.4 102.3 C 195.4 100.2 196.9 99.2 198.8 99 C 198.8 99 201.5 98.6 201.5 98.6 C 202.4 98.5 203.1 98.2 203.1 97.2 C 203.1 95.9 201.9 95.2 200.4 95.2 C 198.7 95.2 197.6 96 197.4 97.3 C 197.4 97.3 195.9 97.3 195.9 97.3 C 196.2 95 198 93.9 200.5 93.9 C 203 93.9 204.6 95.1 204.6 97.6 C 204.58 97.59 204.6 105.4 204.6 105.4 L 203.1 105.4 C 203.1 105.4 203.09 103.32 203.1 103.3 Z M 201.2 99.9 C 201.2 99.9 199.5 100.1 199.5 100.1 C 198.1 100.3 197 100.8 197 102.2 C 197 103.6 198.1 104.2 199.3 104.2 C 201.1 104.2 203 102.9 203 100.5 C 203 100.5 203 99.4 203 99.4 C 202.6 99.7 202 99.8 201.2 99.9 Z M 209.3 105.4 L 207.7 105.4 L 207.7 89.4 L 209.3 89.4 L 209.3 105.4 Z M 217.8 105.4 C 217.8 105.4 216.11 105.38 216.1 105.4 C 214.6 105.4 213.3 104.9 213.3 102.4 C 213.27 102.42 213.3 95.5 213.3 95.5 L 211 95.5 L 211 94.1 L 213.3 94.1 L 213.3 90.9 L 214.8 90.5 L 214.8 94.1 L 217.5 94.1 L 217.5 95.5 L 214.8 95.5 C 214.8 95.5 214.81 102.4 214.8 102.4 C 214.8 103.4 215.1 104 216.4 104 C 216.36 104 217.8 104 217.8 104 L 217.8 105.4 Z M 220.7 100.1 C 220.8 102.9 222.5 104.2 224.5 104.2 C 226 104.2 227.5 103.5 227.8 101.9 C 227.8 101.9 229.3 101.9 229.3 101.9 C 228.7 104.5 226.6 105.6 224.4 105.6 C 221.7 105.6 219.2 103.8 219.2 99.8 C 219.2 95.7 221.8 93.9 224.5 93.9 C 227.2 93.9 229.3 95.6 229.3 99.4 C 229.34 99.35 229.3 100.1 229.3 100.1 C 229.3 100.1 220.75 100.11 220.7 100.1 Z M 220.8 98.8 C 220.8 98.8 227.8 98.8 227.8 98.8 C 227.8 96.5 226.3 95.3 224.4 95.3 C 222.7 95.3 221 96.4 220.8 98.8 Z M 241.1 97.7 C 241.12 97.65 241.1 105.4 241.1 105.4 L 239.6 105.4 C 239.6 105.4 239.59 97.84 239.6 97.8 C 239.6 96.3 238.7 95.3 237.1 95.3 C 235.2 95.3 233.5 96.7 233.5 99.5 C 233.5 99.46 233.5 105.4 233.5 105.4 L 232 105.4 L 232 94.1 L 233.5 94.1 C 233.5 94.1 233.5 96.2 233.5 96.2 C 234.2 94.9 235.4 93.9 237.4 93.9 C 239.6 93.9 241.1 95.2 241.1 97.7 Z M 254.2 105.4 L 252.7 105.4 C 252.7 105.4 252.71 103.2 252.7 103.2 C 252.2 104.5 250.8 105.6 248.7 105.6 C 245.7 105.6 243.6 103.3 243.6 99.7 C 243.6 96.2 245.7 93.9 248.7 93.9 C 250.6 93.9 252 94.8 252.6 96 C 252.65 96.02 252.6 89.4 252.6 89.4 L 254.2 89.4 L 254.2 105.4 Z M 252.6 99.7 C 252.6 96.9 251.1 95.3 248.9 95.3 C 246.7 95.3 245.2 97 245.2 99.7 C 245.2 102.5 246.7 104.2 248.9 104.2 C 251.1 104.2 252.6 102.5 252.6 99.7 Z M 268.1 105.4 C 268.1 105.4 266.49 105.38 266.5 105.4 C 265 105.4 263.7 104.9 263.7 102.4 C 263.65 102.42 263.7 95.5 263.7 95.5 L 261.4 95.5 L 261.4 94.1 L 263.7 94.1 L 263.7 90.9 L 265.2 90.5 L 265.2 94.1 L 267.9 94.1 L 267.9 95.5 L 265.2 95.5 C 265.2 95.5 265.18 102.4 265.2 102.4 C 265.2 103.4 265.5 104 266.7 104 C 266.74 104 268.1 104 268.1 104 L 268.1 105.4 Z M 272 89.4 L 270.2 89.4 L 270.2 91.3 L 272 91.3 L 272 89.4 Z M 271.9 105.4 L 270.3 105.4 L 270.3 94.1 L 271.9 94.1 L 271.9 105.4 Z M 276 100.1 C 276.1 102.9 277.8 104.2 279.8 104.2 C 281.3 104.2 282.7 103.5 283.1 101.9 C 283.1 101.9 284.5 101.9 284.5 101.9 C 284 104.5 281.8 105.6 279.7 105.6 C 277 105.6 274.5 103.8 274.5 99.8 C 274.5 95.7 277 93.9 279.8 93.9 C 282.4 93.9 284.6 95.6 284.6 99.4 C 284.61 99.35 284.6 100.1 284.6 100.1 C 284.6 100.1 276.02 100.11 276 100.1 Z M 276.1 98.8 C 276.1 98.8 283.1 98.8 283.1 98.8 C 283.1 96.5 281.6 95.3 279.7 95.3 C 277.9 95.3 276.3 96.4 276.1 98.8 Z M 290.8 90.7 C 289.6 90.7 289.3 91.3 289.3 92.4 C 289.27 92.36 289.3 94.1 289.3 94.1 L 291.8 94.1 L 291.8 95.5 L 289.3 95.5 L 289.3 105.4 L 287.7 105.4 L 287.7 95.5 L 285.9 95.5 L 285.9 94.1 L 287.7 94.1 C 287.7 94.1 287.74 92.32 287.7 92.3 C 287.7 89.8 289.1 89.4 290.6 89.4 C 290.57 89.38 292.1 89.4 292.1 89.4 L 292.1 90.7 C 292.1 90.7 290.82 90.74 290.8 90.7 Z M 294.6 100.1 C 294.7 102.9 296.4 104.2 298.4 104.2 C 299.9 104.2 301.3 103.5 301.7 101.9 C 301.7 101.9 303.1 101.9 303.1 101.9 C 302.6 104.5 300.4 105.6 298.3 105.6 C 295.6 105.6 293.1 103.8 293.1 99.8 C 293.1 95.7 295.7 93.9 298.4 93.9 C 301 93.9 303.2 95.6 303.2 99.4 C 303.21 99.35 303.2 100.1 303.2 100.1 C 303.2 100.1 294.63 100.11 294.6 100.1 Z M 294.7 98.8 C 294.7 98.8 301.7 98.8 301.7 98.8 C 301.7 96.5 300.2 95.3 298.3 95.3 C 296.5 95.3 294.9 96.4 294.7 98.8 Z M 315 97.7 C 315 97.65 315 105.4 315 105.4 L 313.5 105.4 C 313.5 105.4 313.46 97.84 313.5 97.8 C 313.5 96.3 312.6 95.3 311 95.3 C 309.1 95.3 307.4 96.7 307.4 99.5 C 307.37 99.46 307.4 105.4 307.4 105.4 L 305.8 105.4 L 305.8 94.1 L 307.4 94.1 C 307.4 94.1 307.37 96.2 307.4 96.2 C 308 94.9 309.3 93.9 311.3 93.9 C 313.5 93.9 315 95.2 315 97.7 Z " stroke="none" fill="#000"/>  </g>  <g id="Polygon11825">    <path d="M 9.1 80.2 C 9.1 80.2 9.09 78.04 9.1 78 C 8.3 79.6 6.9 80.3 5.3 80.3 C 3.2 80.3 1.6 79 1.6 76.4 C 1.57 76.36 1.6 68.9 1.6 68.9 L 3.1 68.9 C 3.1 68.9 3.11 76.17 3.1 76.2 C 3.1 78 4.1 79 5.6 79 C 7.4 79 9 77.6 9 74.7 C 9.03 74.74 9 68.9 9 68.9 L 10.6 68.9 L 10.6 80.2 L 9.1 80.2 Z M 23.1 72.5 C 23.08 72.45 23.1 80.2 23.1 80.2 L 21.5 80.2 C 21.5 80.2 21.55 72.64 21.5 72.6 C 21.5 71.1 20.7 70.1 19.1 70.1 C 17.1 70.1 15.5 71.5 15.5 74.3 C 15.46 74.26 15.5 80.2 15.5 80.2 L 13.9 80.2 L 13.9 68.9 L 15.5 68.9 C 15.5 68.9 15.46 71 15.5 71 C 16.1 69.7 17.4 68.7 19.4 68.7 C 21.6 68.7 23.1 70 23.1 72.5 Z M 36.1 80.2 L 34.7 80.2 C 34.7 80.2 34.67 78 34.7 78 C 34.1 79.3 32.8 80.4 30.7 80.4 C 27.7 80.4 25.6 78.1 25.6 74.5 C 25.6 71 27.7 68.7 30.7 68.7 C 32.6 68.7 34 69.6 34.6 70.8 C 34.61 70.82 34.6 64.2 34.6 64.2 L 36.1 64.2 L 36.1 80.2 Z M 34.6 74.5 C 34.6 71.7 33 70.1 30.9 70.1 C 28.7 70.1 27.2 71.8 27.2 74.5 C 27.2 77.3 28.7 79 30.9 79 C 33.1 79 34.6 77.3 34.6 74.5 Z M 53.1 77 C 53.1 79.3 51.1 80.4 48.8 80.4 C 46.4 80.4 44.1 79.2 43.9 76.7 C 43.9 76.7 45.5 76.7 45.5 76.7 C 45.8 78.4 47.3 79 48.8 79 C 50.3 79 51.5 78.5 51.5 77.2 C 51.5 75.9 50.2 75.6 48.9 75.4 C 46.7 75 44.2 74.6 44.2 72 C 44.2 69.8 46.1 68.7 48.4 68.7 C 50.8 68.7 52.7 69.8 52.8 72.1 C 52.8 72.1 51.2 72.1 51.2 72.1 C 51.1 70.7 49.8 70.1 48.4 70.1 C 46.8 70.1 45.8 70.8 45.8 71.9 C 45.8 73.4 47.1 73.6 48.8 73.9 C 50.9 74.2 53.1 74.5 53.1 77 Z M 60.1 80.4 C 57 80.4 54.9 78.1 54.9 74.6 C 54.9 71 57 68.7 60.3 68.7 C 62.8 68.7 64.8 70.1 64.9 72.6 C 64.9 72.6 63.4 72.6 63.4 72.6 C 63.3 71 61.9 70.1 60.2 70.1 C 58 70.1 56.5 71.8 56.5 74.5 C 56.5 77.3 58 79 60.2 79 C 61.9 79 63.3 78 63.4 76.2 C 63.4 76.2 64.9 76.2 64.9 76.2 C 64.8 78.9 62.6 80.4 60.1 80.4 Z M 76.7 72.5 C 76.71 72.45 76.7 80.2 76.7 80.2 L 75.2 80.2 C 75.2 80.2 75.18 72.64 75.2 72.6 C 75.2 71.1 74.3 70.1 72.7 70.1 C 70.8 70.1 69.1 71.5 69.1 74.3 C 69.09 74.26 69.1 80.2 69.1 80.2 L 67.6 80.2 L 67.6 64.2 L 69.1 64.2 C 69.1 64.2 69.09 70.88 69.1 70.9 C 69.7 69.6 71 68.7 73 68.7 C 75.3 68.7 76.7 70 76.7 72.5 Z M 86.9 78.1 C 86 79.8 84.3 80.4 82.9 80.4 C 81 80.4 79.2 79.3 79.2 77.1 C 79.2 75 80.7 74 82.7 73.8 C 82.7 73.8 85.3 73.4 85.3 73.4 C 86.2 73.3 86.9 73 86.9 72 C 86.9 70.7 85.7 70 84.2 70 C 82.5 70 81.4 70.8 81.2 72.1 C 81.2 72.1 79.7 72.1 79.7 72.1 C 80 69.8 81.8 68.7 84.3 68.7 C 86.8 68.7 88.4 69.9 88.4 72.4 C 88.39 72.39 88.4 80.2 88.4 80.2 L 86.9 80.2 C 86.9 80.2 86.9 78.12 86.9 78.1 Z M 85 74.7 C 85 74.7 83.3 74.9 83.3 74.9 C 81.9 75.1 80.8 75.6 80.8 77 C 80.8 78.4 81.9 79 83.1 79 C 84.9 79 86.9 77.7 86.9 75.3 C 86.9 75.3 86.9 74.2 86.9 74.2 C 86.4 74.5 85.8 74.6 85 74.7 Z M 99 80.2 C 99 80.2 98.95 78.04 99 78 C 98.2 79.6 96.8 80.3 95.2 80.3 C 93.1 80.3 91.4 79 91.4 76.4 C 91.43 76.36 91.4 68.9 91.4 68.9 L 93 68.9 C 93 68.9 92.97 76.17 93 76.2 C 93 78 94 79 95.5 79 C 97.3 79 98.9 77.6 98.9 74.7 C 98.89 74.74 98.9 68.9 98.9 68.9 L 100.4 68.9 L 100.4 80.2 L 99 80.2 Z M 104.6 74.9 C 104.6 77.7 106.3 79 108.3 79 C 109.8 79 111.3 78.3 111.6 76.7 C 111.6 76.7 113.1 76.7 113.1 76.7 C 112.6 79.3 110.4 80.4 108.2 80.4 C 105.5 80.4 103 78.6 103 74.6 C 103 70.5 105.6 68.7 108.3 68.7 C 111 68.7 113.1 70.4 113.1 74.2 C 113.15 74.15 113.1 74.9 113.1 74.9 C 113.1 74.9 104.56 74.91 104.6 74.9 Z M 104.6 73.6 C 104.6 73.6 111.6 73.6 111.6 73.6 C 111.6 71.3 110.1 70.1 108.2 70.1 C 106.5 70.1 104.8 71.2 104.6 73.6 Z M 124.9 72.5 C 124.93 72.45 124.9 80.2 124.9 80.2 L 123.4 80.2 C 123.4 80.2 123.39 72.64 123.4 72.6 C 123.4 71.1 122.5 70.1 120.9 70.1 C 119 70.1 117.3 71.5 117.3 74.3 C 117.3 74.26 117.3 80.2 117.3 80.2 L 115.8 80.2 L 115.8 68.9 L 117.3 68.9 C 117.3 68.9 117.3 71 117.3 71 C 118 69.7 119.2 68.7 121.2 68.7 C 123.5 68.7 124.9 70 124.9 72.5 Z M 143 72.5 C 143.01 72.45 143 80.2 143 80.2 L 141.5 80.2 C 141.5 80.2 141.48 72.64 141.5 72.6 C 141.5 71.1 140.6 70.1 139 70.1 C 137.1 70.1 135.4 71.5 135.4 74.3 C 135.39 74.26 135.4 80.2 135.4 80.2 L 133.9 80.2 L 133.9 68.9 L 135.4 68.9 C 135.4 68.9 135.39 71 135.4 71 C 136.1 69.7 137.3 68.7 139.3 68.7 C 141.5 68.7 143 70 143 72.5 Z M 147.9 64.2 L 146.2 64.2 L 146.2 66.1 L 147.9 66.1 L 147.9 64.2 Z M 147.8 80.2 L 146.3 80.2 L 146.3 68.9 L 147.8 68.9 L 147.8 80.2 Z M 155.6 80.4 C 152.5 80.4 150.4 78.1 150.4 74.6 C 150.4 71 152.5 68.7 155.8 68.7 C 158.3 68.7 160.3 70.1 160.4 72.6 C 160.4 72.6 158.9 72.6 158.9 72.6 C 158.8 71 157.4 70.1 155.8 70.1 C 153.5 70.1 152 71.8 152 74.5 C 152 77.3 153.5 79 155.7 79 C 157.4 79 158.8 78 158.9 76.2 C 158.9 76.2 160.4 76.2 160.4 76.2 C 160.3 78.9 158.1 80.4 155.6 80.4 Z M 172.2 72.5 C 172.22 72.45 172.2 80.2 172.2 80.2 L 170.7 80.2 C 170.7 80.2 170.69 72.64 170.7 72.6 C 170.7 71.1 169.8 70.1 168.2 70.1 C 166.3 70.1 164.6 71.5 164.6 74.3 C 164.6 74.26 164.6 80.2 164.6 80.2 L 163.1 80.2 L 163.1 64.2 L 164.6 64.2 C 164.6 64.2 164.6 70.88 164.6 70.9 C 165.2 69.6 166.5 68.7 168.5 68.7 C 170.8 68.7 172.2 70 172.2 72.5 Z M 180.6 80.2 C 180.6 80.2 178.96 80.18 179 80.2 C 177.5 80.2 176.1 79.7 176.1 77.2 C 176.12 77.22 176.1 70.3 176.1 70.3 L 173.9 70.3 L 173.9 68.9 L 176.1 68.9 L 176.1 65.7 L 177.7 65.3 L 177.7 68.9 L 180.4 68.9 L 180.4 70.3 L 177.7 70.3 C 177.7 70.3 177.66 77.2 177.7 77.2 C 177.7 78.2 178 78.8 179.2 78.8 C 179.21 78.8 180.6 78.8 180.6 78.8 L 180.6 80.2 Z M 197.4 72.5 C 197.44 72.45 197.4 80.2 197.4 80.2 L 195.9 80.2 C 195.9 80.2 195.91 72.64 195.9 72.6 C 195.9 71.1 195 70.1 193.4 70.1 C 191.5 70.1 189.8 71.5 189.8 74.3 C 189.82 74.26 189.8 80.2 189.8 80.2 L 188.3 80.2 L 188.3 68.9 L 189.8 68.9 C 189.8 68.9 189.82 71 189.8 71 C 190.5 69.7 191.7 68.7 193.7 68.7 C 196 68.7 197.4 70 197.4 72.5 Z M 208.1 80.2 C 208.1 80.2 208.11 78.04 208.1 78 C 207.3 79.6 205.9 80.3 204.3 80.3 C 202.2 80.3 200.6 79 200.6 76.4 C 200.59 76.36 200.6 68.9 200.6 68.9 L 202.1 68.9 C 202.1 68.9 202.12 76.17 202.1 76.2 C 202.1 78 203.1 79 204.6 79 C 206.4 79 208 77.6 208 74.7 C 208.04 74.74 208 68.9 208 68.9 L 209.6 68.9 L 209.6 80.2 L 208.1 80.2 Z M 218.6 70.2 C 218.6 70.2 218.21 70.23 218.2 70.2 C 215.8 70.2 214.5 71.6 214.5 74.2 C 214.47 74.2 214.5 80.2 214.5 80.2 L 212.9 80.2 L 212.9 68.9 L 214.4 68.9 C 214.4 68.9 214.45 70.98 214.4 71 C 215 69.5 216.3 68.8 218.1 68.8 C 218.08 68.78 218.6 68.8 218.6 68.8 L 218.6 70.2 Z M 232.5 78.1 C 231.6 79.8 229.9 80.4 228.5 80.4 C 226.6 80.4 224.9 79.3 224.9 77.1 C 224.9 75 226.4 74 228.3 73.8 C 228.3 73.8 231 73.4 231 73.4 C 231.8 73.3 232.5 73 232.5 72 C 232.5 70.7 231.4 70 229.8 70 C 228.1 70 227.1 70.8 226.8 72.1 C 226.8 72.1 225.3 72.1 225.3 72.1 C 225.6 69.8 227.4 68.7 229.9 68.7 C 232.5 68.7 234 69.9 234 72.4 C 234.02 72.39 234 80.2 234 80.2 L 232.5 80.2 C 232.5 80.2 232.53 78.12 232.5 78.1 Z M 230.7 74.7 C 230.7 74.7 228.9 74.9 228.9 74.9 C 227.5 75.1 226.4 75.6 226.4 77 C 226.4 78.4 227.5 79 228.8 79 C 230.5 79 232.5 77.7 232.5 75.3 C 232.5 75.3 232.5 74.2 232.5 74.2 C 232.1 74.5 231.4 74.6 230.7 74.7 Z M 244.6 80.2 C 244.6 80.2 244.58 78.04 244.6 78 C 243.8 79.6 242.4 80.3 240.8 80.3 C 238.7 80.3 237.1 79 237.1 76.4 C 237.06 76.36 237.1 68.9 237.1 68.9 L 238.6 68.9 C 238.6 68.9 238.6 76.17 238.6 76.2 C 238.6 78 239.6 79 241.1 79 C 242.9 79 244.5 77.6 244.5 74.7 C 244.52 74.74 244.5 68.9 244.5 68.9 L 246.1 68.9 L 246.1 80.2 L 244.6 80.2 Z M 253 65.5 C 251.7 65.5 251.4 66.1 251.4 67.2 C 251.45 67.16 251.4 68.9 251.4 68.9 L 253.9 68.9 L 253.9 70.3 L 251.4 70.3 L 251.4 80.2 L 249.9 80.2 L 249.9 70.3 L 248 70.3 L 248 68.9 L 249.9 68.9 C 249.9 68.9 249.92 67.12 249.9 67.1 C 249.9 64.6 251.3 64.2 252.8 64.2 C 252.75 64.18 254.2 64.2 254.2 64.2 L 254.2 65.5 C 254.2 65.5 253 65.54 253 65.5 Z M 270.9 80.2 L 269.4 80.2 C 269.4 80.2 269.4 78 269.4 78 C 268.9 79.3 267.5 80.4 265.4 80.4 C 262.4 80.4 260.3 78.1 260.3 74.5 C 260.3 71 262.4 68.7 265.4 68.7 C 267.3 68.7 268.7 69.6 269.3 70.8 C 269.34 70.82 269.3 64.2 269.3 64.2 L 270.9 64.2 L 270.9 80.2 Z M 269.3 74.5 C 269.3 71.7 267.8 70.1 265.6 70.1 C 263.4 70.1 261.9 71.8 261.9 74.5 C 261.9 77.3 263.4 79 265.6 79 C 267.8 79 269.3 77.3 269.3 74.5 Z M 275.9 64.2 L 274.1 64.2 L 274.1 66.1 L 275.9 66.1 L 275.9 64.2 Z M 275.8 80.2 L 274.2 80.2 L 274.2 68.9 L 275.8 68.9 L 275.8 80.2 Z M 279.9 74.9 C 279.9 77.7 281.7 79 283.7 79 C 285.2 79 286.6 78.3 287 76.7 C 287 76.7 288.4 76.7 288.4 76.7 C 287.9 79.3 285.7 80.4 283.6 80.4 C 280.9 80.4 278.4 78.6 278.4 74.6 C 278.4 70.5 280.9 68.7 283.6 68.7 C 286.3 68.7 288.5 70.4 288.5 74.2 C 288.49 74.15 288.5 74.9 288.5 74.9 C 288.5 74.9 279.9 74.91 279.9 74.9 Z M 279.9 73.6 C 279.9 73.6 286.9 73.6 286.9 73.6 C 286.9 71.3 285.5 70.1 283.6 70.1 C 281.8 70.1 280.2 71.2 279.9 73.6 Z " stroke="none" fill="#000"/>  </g>  <g id="Polygon11824">    <path d="M 15.9 55 L 14.2 55 L 10.3 41.7 L 6.4 55 L 4.7 55 L 0.6 39.2 L 2.3 39.2 L 5.6 52.7 L 9.5 39.2 L 11.2 39.2 L 15.1 52.7 L 18.4 39.2 L 19.9 39.2 L 15.9 55 Z M 23.9 39 L 22.2 39 L 22.2 40.9 L 23.9 40.9 L 23.9 39 Z M 23.8 55 L 22.3 55 L 22.3 43.7 L 23.8 43.7 L 23.8 55 Z M 32.8 45 C 32.8 45 32.42 45.03 32.4 45 C 30 45 28.7 46.4 28.7 49 C 28.69 49 28.7 55 28.7 55 L 27.2 55 L 27.2 43.7 L 28.7 43.7 C 28.7 43.7 28.66 45.78 28.7 45.8 C 29.2 44.3 30.6 43.6 32.3 43.6 C 32.3 43.58 32.8 43.6 32.8 43.6 L 32.8 45 Z M 47.8 51.8 C 47.8 54.1 45.7 55.2 43.4 55.2 C 41 55.2 38.8 54 38.6 51.5 C 38.6 51.5 40.2 51.5 40.2 51.5 C 40.4 53.2 41.9 53.8 43.4 53.8 C 44.9 53.8 46.2 53.3 46.2 52 C 46.2 50.7 44.9 50.4 43.6 50.2 C 41.4 49.8 38.8 49.4 38.8 46.8 C 38.8 44.6 40.8 43.5 43.1 43.5 C 45.5 43.5 47.4 44.6 47.5 46.9 C 47.5 46.9 45.9 46.9 45.9 46.9 C 45.8 45.5 44.5 44.9 43 44.9 C 41.5 44.9 40.4 45.6 40.4 46.7 C 40.4 48.2 41.8 48.4 43.5 48.7 C 45.5 49 47.8 49.3 47.8 51.8 Z M 51.9 39 L 50.2 39 L 50.2 40.9 L 51.9 40.9 L 51.9 39 Z M 51.8 55 L 50.3 55 L 50.3 43.7 L 51.8 43.7 L 51.8 55 Z M 64.3 47.3 C 64.34 47.25 64.3 55 64.3 55 L 62.8 55 C 62.8 55 62.81 47.44 62.8 47.4 C 62.8 45.9 61.9 44.9 60.3 44.9 C 58.4 44.9 56.7 46.3 56.7 49.1 C 56.72 49.06 56.7 55 56.7 55 L 55.2 55 L 55.2 43.7 L 56.7 43.7 C 56.7 43.7 56.72 45.8 56.7 45.8 C 57.4 44.5 58.7 43.5 60.6 43.5 C 62.9 43.5 64.3 44.8 64.3 47.3 Z M 77.4 55 L 75.9 55 C 75.9 55 75.93 52.8 75.9 52.8 C 75.4 54.1 74 55.2 71.9 55.2 C 69 55.2 66.9 52.9 66.9 49.3 C 66.9 45.8 69 43.5 71.9 43.5 C 73.9 43.5 75.3 44.4 75.9 45.6 C 75.87 45.62 75.9 39 75.9 39 L 77.4 39 L 77.4 55 Z M 75.9 49.3 C 75.9 46.5 74.3 44.9 72.1 44.9 C 69.9 44.9 68.4 46.6 68.4 49.3 C 68.4 52.1 69.9 53.8 72.1 53.8 C 74.3 53.8 75.9 52.1 75.9 49.3 Z M 98.5 55 L 96.9 55 L 96.9 47.8 L 88.2 47.8 L 88.2 55 L 86.6 55 L 86.6 39.2 L 88.2 39.2 L 88.2 46.3 L 96.9 46.3 L 96.9 39.2 L 98.5 39.2 L 98.5 55 Z M 103.7 39 L 101.9 39 L 101.9 40.9 L 103.7 40.9 L 103.7 39 Z M 103.6 55 L 102 55 L 102 43.7 L 103.6 43.7 L 103.6 55 Z M 116.6 54.5 C 116.6 57.9 114.4 59.6 111.5 59.6 C 109 59.6 106.8 58.3 106.4 55.7 C 106.4 55.7 108 55.7 108 55.7 C 108.2 57.1 109.3 58.3 111.5 58.3 C 113.6 58.3 115.2 57.2 115.2 54.6 C 115.2 54.6 115.2 52.3 115.2 52.3 C 114.3 54 112.6 54.6 111.2 54.6 C 108.4 54.6 106.2 52.7 106.2 49 C 106.2 45.3 108.5 43.5 111.2 43.5 C 113.1 43.5 114.4 44.3 115.1 45.5 C 115.12 45.53 115.1 43.7 115.1 43.7 L 116.6 43.7 C 116.6 43.7 116.63 54.48 116.6 54.5 Z M 115.1 49 C 115.1 46.2 113.4 44.8 111.4 44.8 C 109.5 44.8 107.7 46.2 107.7 49 C 107.7 51.8 109.5 53.2 111.4 53.2 C 113.2 53.2 115.1 52 115.1 49 Z M 129 47.3 C 129.04 47.25 129 55 129 55 L 127.5 55 C 127.5 55 127.51 47.44 127.5 47.4 C 127.5 45.9 126.6 44.9 125 44.9 C 123.1 44.9 121.4 46.3 121.4 49.1 C 121.42 49.06 121.4 55 121.4 55 L 119.9 55 L 119.9 39 L 121.4 39 C 121.4 39 121.42 45.68 121.4 45.7 C 122.1 44.4 123.3 43.5 125.3 43.5 C 127.6 43.5 129 44.8 129 47.3 Z M 131.7 48.9 L 131.7 47.5 L 138.1 47.5 L 138.1 48.9 L 131.7 48.9 Z M 152.6 44 C 152.3 41.7 150.2 40.3 147.8 40.3 C 144.5 40.3 142 42.9 142 47 C 142 50.6 144 53.9 147.9 53.9 C 150.5 53.9 152.6 52.4 152.8 49.7 C 152.8 49.7 154.4 49.7 154.4 49.7 C 154.2 53.3 151.4 55.4 147.8 55.4 C 142.9 55.4 140.3 51.4 140.3 47 C 140.3 42 143.5 38.9 147.9 38.9 C 151.2 38.9 153.9 40.6 154.3 44 C 154.3 44 152.6 44 152.6 44 Z M 156.4 49.4 C 156.4 45.7 158.7 43.5 161.8 43.5 C 164.9 43.5 167.1 45.7 167.1 49.4 C 167.1 53 164.9 55.2 161.8 55.2 C 158.7 55.2 156.4 53 156.4 49.4 Z M 165.5 49.3 C 165.5 46.5 163.8 44.9 161.7 44.9 C 159.5 44.9 158 46.6 158 49.4 C 158 52.2 159.7 53.8 161.8 53.8 C 164 53.8 165.5 52.1 165.5 49.3 Z M 178.9 47.3 C 178.9 47.25 178.9 55 178.9 55 L 177.4 55 C 177.4 55 177.36 47.44 177.4 47.4 C 177.4 45.9 176.5 44.9 174.9 44.9 C 173 44.9 171.3 46.3 171.3 49.1 C 171.27 49.06 171.3 55 171.3 55 L 169.7 55 L 169.7 43.7 L 171.3 43.7 C 171.3 43.7 171.27 45.8 171.3 45.8 C 171.9 44.5 173.2 43.5 175.2 43.5 C 177.4 43.5 178.9 44.8 178.9 47.3 Z M 186.6 55 L 185 55 L 180.8 43.7 L 182.4 43.7 L 185.8 53.4 L 189.2 43.7 L 190.8 43.7 L 186.6 55 Z M 194.5 39 L 192.7 39 L 192.7 40.9 L 194.5 40.9 L 194.5 39 Z M 194.4 55 L 192.8 55 L 192.8 43.7 L 194.4 43.7 L 194.4 55 Z M 202.2 55.2 C 199.1 55.2 197 52.9 197 49.4 C 197 45.8 199.1 43.5 202.3 43.5 C 204.8 43.5 206.8 44.9 207 47.4 C 207 47.4 205.5 47.4 205.5 47.4 C 205.3 45.8 203.9 44.9 202.3 44.9 C 200.1 44.9 198.5 46.6 198.5 49.3 C 198.5 52.1 200.1 53.8 202.3 53.8 C 204 53.8 205.4 52.8 205.5 51 C 205.5 51 207 51 207 51 C 206.8 53.7 204.7 55.2 202.2 55.2 Z M 214.8 55 C 214.8 55 213.1 54.98 213.1 55 C 211.6 55 210.3 54.5 210.3 52 C 210.27 52.02 210.3 45.1 210.3 45.1 L 208 45.1 L 208 43.7 L 210.3 43.7 L 210.3 40.5 L 211.8 40.1 L 211.8 43.7 L 214.5 43.7 L 214.5 45.1 L 211.8 45.1 C 211.8 45.1 211.8 52 211.8 52 C 211.8 53 212.1 53.6 213.4 53.6 C 213.36 53.6 214.8 53.6 214.8 53.6 L 214.8 55 Z M 218.6 39 L 216.9 39 L 216.9 40.9 L 218.6 40.9 L 218.6 39 Z M 218.5 55 L 217 55 L 217 43.7 L 218.5 43.7 L 218.5 55 Z M 221.1 49.4 C 221.1 45.7 223.4 43.5 226.5 43.5 C 229.6 43.5 231.8 45.7 231.8 49.4 C 231.8 53 229.6 55.2 226.5 55.2 C 223.4 55.2 221.1 53 221.1 49.4 Z M 230.2 49.3 C 230.2 46.5 228.5 44.9 226.4 44.9 C 224.2 44.9 222.7 46.6 222.7 49.4 C 222.7 52.2 224.4 53.8 226.5 53.8 C 228.7 53.8 230.2 52.1 230.2 49.3 Z M 243.6 47.3 C 243.6 47.25 243.6 55 243.6 55 L 242.1 55 C 242.1 55 242.06 47.44 242.1 47.4 C 242.1 45.9 241.2 44.9 239.6 44.9 C 237.7 44.9 236 46.3 236 49.1 C 235.97 49.06 236 55 236 55 L 234.4 55 L 234.4 43.7 L 236 43.7 C 236 43.7 235.97 45.8 236 45.8 C 236.6 44.5 237.9 43.5 239.9 43.5 C 242.1 43.5 243.6 44.8 243.6 47.3 Z M 246.2 48.9 L 246.2 47.5 L 252.7 47.5 L 252.7 48.9 L 246.2 48.9 Z M 264.8 50.5 L 257.3 50.5 L 255.6 55 L 253.8 55 L 260.2 39.2 L 261.9 39.2 L 268.4 55 L 266.6 55 L 264.8 50.5 Z M 261 41 L 257.9 49.1 L 264.3 49.1 L 261 41 Z M 280 47.3 C 279.97 47.25 280 55 280 55 L 278.4 55 C 278.4 55 278.43 47.44 278.4 47.4 C 278.4 45.9 277.6 44.9 276 44.9 C 274 44.9 272.3 46.3 272.3 49.1 C 272.34 49.06 272.3 55 272.3 55 L 270.8 55 L 270.8 43.7 L 272.3 43.7 C 272.3 43.7 272.34 45.8 272.3 45.8 C 273 44.5 274.3 43.5 276.3 43.5 C 278.5 43.5 280 44.8 280 47.3 Z M 284.8 55 L 283.2 55 L 283.2 39 L 284.8 39 L 284.8 55 Z M 288.9 49.7 C 288.9 52.5 290.7 53.8 292.7 53.8 C 294.1 53.8 295.6 53.1 295.9 51.5 C 295.9 51.5 297.4 51.5 297.4 51.5 C 296.9 54.1 294.7 55.2 292.6 55.2 C 289.9 55.2 287.4 53.4 287.4 49.4 C 287.4 45.3 289.9 43.5 292.6 43.5 C 295.3 43.5 297.5 45.2 297.5 49 C 297.48 48.95 297.5 49.7 297.5 49.7 C 297.5 49.7 288.89 49.71 288.9 49.7 Z M 288.9 48.4 C 288.9 48.4 295.9 48.4 295.9 48.4 C 295.9 46.1 294.5 44.9 292.6 44.9 C 290.8 44.9 289.1 46 288.9 48.4 Z M 309.8 54.5 C 309.8 57.9 307.6 59.6 304.7 59.6 C 302.2 59.6 300 58.3 299.6 55.7 C 299.6 55.7 301.2 55.7 301.2 55.7 C 301.4 57.1 302.5 58.3 304.7 58.3 C 306.8 58.3 308.3 57.2 308.3 54.6 C 308.3 54.6 308.3 52.3 308.3 52.3 C 307.5 54 305.8 54.6 304.3 54.6 C 301.6 54.6 299.4 52.7 299.4 49 C 299.4 45.3 301.7 43.5 304.4 43.5 C 306.2 43.5 307.6 44.3 308.3 45.5 C 308.3 45.53 308.3 43.7 308.3 43.7 L 309.8 43.7 C 309.8 43.7 309.81 54.48 309.8 54.5 Z M 308.2 49 C 308.2 46.2 306.5 44.8 304.6 44.8 C 302.7 44.8 300.9 46.2 300.9 49 C 300.9 51.8 302.6 53.2 304.6 53.2 C 306.4 53.2 308.2 52 308.2 49 Z M 313.8 49.7 C 313.9 52.5 315.6 53.8 317.6 53.8 C 319.1 53.8 320.6 53.1 320.9 51.5 C 320.9 51.5 322.3 51.5 322.3 51.5 C 321.8 54.1 319.7 55.2 317.5 55.2 C 314.8 55.2 312.3 53.4 312.3 49.4 C 312.3 45.3 314.9 43.5 317.6 43.5 C 320.2 43.5 322.4 45.2 322.4 49 C 322.43 48.95 322.4 49.7 322.4 49.7 C 322.4 49.7 313.84 49.71 313.8 49.7 Z M 313.9 48.4 C 313.9 48.4 320.9 48.4 320.9 48.4 C 320.9 46.1 319.4 44.9 317.5 44.9 C 315.8 44.9 314.1 46 313.9 48.4 Z M 330.7 45 C 330.7 45 330.32 45.03 330.3 45 C 327.9 45 326.6 46.4 326.6 49 C 326.59 49 326.6 55 326.6 55 L 325.1 55 L 325.1 43.7 L 326.6 43.7 C 326.6 43.7 326.57 45.78 326.6 45.8 C 327.1 44.3 328.5 43.6 330.2 43.6 C 330.2 43.58 330.7 43.6 330.7 43.6 L 330.7 45 Z " stroke="none" fill="#000"/>  </g>  <g id="Polygon11823">    <path d="M 14.6 19.8 L 11.6 19.8 L 11.6 13.2 L 4.5 13.2 L 4.5 19.8 L 1.6 19.8 L 1.6 4 L 4.5 4 L 4.5 10.5 L 11.6 10.5 L 11.6 4 L 14.6 4 L 14.6 19.8 Z M 17.4 6.7 L 20.3 6.7 L 20.3 3.5 L 17.4 3.5 L 17.4 6.7 Z M 17.5 8.2 L 20.3 8.2 L 20.3 19.8 L 17.5 19.8 L 17.5 8.2 Z M 33.4 19 C 33.4 22.7 31 24.4 27.9 24.4 C 25.1 24.4 22.7 23 22.4 20.1 C 22.4 20.1 25.1 20.1 25.1 20.1 C 25.4 21.6 26.6 22 27.9 22 C 29.7 22 30.7 21.1 30.7 19.3 C 30.7 19.3 30.7 17.4 30.7 17.4 C 30.2 18.6 29.1 19.4 27.3 19.4 C 24.7 19.4 22.2 17.6 22.2 13.7 C 22.2 9.8 24.7 8 27.3 8 C 29 8 30.1 8.7 30.7 9.8 C 30.72 9.81 30.7 8.2 30.7 8.2 L 33.4 8.2 C 33.4 8.2 33.41 19 33.4 19 Z M 30.6 13.7 C 30.6 11.5 29.4 10.4 27.9 10.4 C 26.4 10.4 25 11.5 25 13.7 C 25 15.9 26.4 16.9 27.9 16.9 C 29.4 16.9 30.6 15.9 30.6 13.7 Z M 46.2 12.3 C 46.22 12.31 46.2 19.8 46.2 19.8 L 43.4 19.8 C 43.4 19.8 43.43 12.56 43.4 12.6 C 43.4 11.3 42.7 10.5 41.4 10.5 C 39.8 10.5 38.8 11.6 38.8 13.5 C 38.83 13.52 38.8 19.8 38.8 19.8 L 36 19.8 L 36 3.8 L 38.8 3.8 C 38.8 3.8 38.83 9.83 38.8 9.8 C 39.5 8.7 40.5 8 42.3 8 C 45 8 46.2 9.5 46.2 12.3 Z M 55 11.9 L 48.5 11.9 L 48.5 14.4 L 55 14.4 L 55 11.9 Z M 68.6 14 C 68.6 14 71.5 14 71.5 14 C 71.3 18.1 68.1 20.2 64.6 20.2 C 59.6 20.2 56.9 16.2 56.9 11.8 C 56.9 7.7 59.3 3.7 64.6 3.7 C 68.3 3.7 71.1 5.7 71.5 9.3 C 71.5 9.3 68.5 9.3 68.5 9.3 C 68.3 7.5 66.6 6.4 64.5 6.4 C 61.3 6.4 59.8 9 59.8 11.8 C 59.8 14.7 61.5 17.4 64.6 17.4 C 66.4 17.4 68.4 16.4 68.6 14 Z M 84.2 14 C 84.2 17.8 81.8 20 78.6 20 C 75.3 20 72.9 17.8 72.9 14 C 72.9 10.2 75.3 8 78.6 8 C 81.8 8 84.2 10.2 84.2 14 Z M 75.8 14 C 75.8 16.3 77 17.4 78.6 17.4 C 80.3 17.4 81.4 16.2 81.4 14 C 81.4 11.7 80.1 10.6 78.5 10.6 C 76.9 10.6 75.8 11.8 75.8 14 Z M 96.4 12.3 C 96.41 12.31 96.4 19.8 96.4 19.8 L 93.6 19.8 C 93.6 19.8 93.62 12.56 93.6 12.6 C 93.6 11.3 92.9 10.5 91.6 10.5 C 90 10.5 89 11.6 89 13.5 C 89.02 13.52 89 19.8 89 19.8 L 86.2 19.8 L 86.2 8.2 L 89 8.2 C 89 8.2 89 9.87 89 9.9 C 89.6 8.8 90.6 8 92.5 8 C 95.2 8 96.4 9.5 96.4 12.3 Z M 104.9 19.8 L 102 19.8 L 97.7 8.2 L 100.6 8.2 L 103.5 16.5 L 106.3 8.2 L 109.2 8.2 L 104.9 19.8 Z M 110.5 6.7 L 113.4 6.7 L 113.4 3.5 L 110.5 3.5 L 110.5 6.7 Z M 110.6 8.2 L 113.4 8.2 L 113.4 19.8 L 110.6 19.8 L 110.6 8.2 Z M 121 20 C 117.2 20 115.3 17.1 115.3 14 C 115.3 10.9 117.1 8 120.9 8 C 123.8 8 126 9.6 126.1 12.4 C 126.1 12.4 123.3 12.4 123.3 12.4 C 123.2 11.3 122.4 10.5 121 10.5 C 119 10.5 118.1 12.2 118.1 14 C 118.1 15.9 119 17.4 121 17.4 C 122.3 17.4 123.2 16.7 123.4 15.7 C 123.4 15.7 126.1 15.7 126.1 15.7 C 125.8 18.5 123.8 20 121 20 Z M 134.1 19.8 C 134.1 19.8 132.23 19.78 132.2 19.8 C 130.1 19.8 128.7 19.1 128.7 16 C 128.69 16 128.7 10.7 128.7 10.7 L 126.6 10.7 L 126.6 8.2 L 128.7 8.2 L 128.7 5.6 L 131.5 4.8 L 131.5 8.2 L 133.8 8.2 L 133.8 10.7 L 131.5 10.7 C 131.5 10.7 131.48 16.13 131.5 16.1 C 131.5 16.8 131.7 17.3 132.7 17.3 C 132.65 17.3 134.1 17.3 134.1 17.3 L 134.1 19.8 Z M 135.5 6.7 L 138.5 6.7 L 138.5 3.5 L 135.5 3.5 L 135.5 6.7 Z M 135.6 8.2 L 138.4 8.2 L 138.4 19.8 L 135.6 19.8 L 135.6 8.2 Z M 151.7 14 C 151.7 17.8 149.3 20 146 20 C 142.8 20 140.4 17.8 140.4 14 C 140.4 10.2 142.8 8 146 8 C 149.3 8 151.7 10.2 151.7 14 Z M 143.2 14 C 143.2 16.3 144.5 17.4 146.1 17.4 C 147.7 17.4 148.8 16.2 148.8 14 C 148.8 11.7 147.6 10.6 146 10.6 C 144.4 10.6 143.2 11.8 143.2 14 Z M 163.9 12.3 C 163.88 12.31 163.9 19.8 163.9 19.8 L 161.1 19.8 C 161.1 19.8 161.09 12.56 161.1 12.6 C 161.1 11.3 160.4 10.5 159.1 10.5 C 157.5 10.5 156.5 11.6 156.5 13.5 C 156.49 13.52 156.5 19.8 156.5 19.8 L 153.7 19.8 L 153.7 8.2 L 156.5 8.2 C 156.5 8.2 156.47 9.87 156.5 9.9 C 157.1 8.8 158.1 8 160 8 C 162.6 8 163.9 9.5 163.9 12.3 Z M 172.7 11.9 L 166.2 11.9 L 166.2 14.4 L 172.7 14.4 L 172.7 11.9 Z M 184.6 16.3 L 177.9 16.3 L 176.6 19.8 L 173.5 19.8 L 179.6 4 L 182.8 4 L 189.1 19.8 L 185.9 19.8 L 184.6 16.3 Z M 183.5 13.5 L 181.2 7.3 L 178.9 13.5 L 183.5 13.5 Z M 201.1 12.3 C 201.05 12.31 201.1 19.8 201.1 19.8 L 198.3 19.8 C 198.3 19.8 198.26 12.56 198.3 12.6 C 198.3 11.3 197.5 10.5 196.2 10.5 C 194.6 10.5 193.7 11.6 193.7 13.5 C 193.66 13.52 193.7 19.8 193.7 19.8 L 190.9 19.8 L 190.9 8.2 L 193.6 8.2 C 193.6 8.2 193.64 9.87 193.6 9.9 C 194.3 8.8 195.2 8 197.2 8 C 199.8 8 201.1 9.5 201.1 12.3 Z M 212.9 16.2 C 212.9 18.8 210.6 20 208 20 C 205.6 20 203 19 202.8 16.1 C 202.8 16.1 205.6 16.1 205.6 16.1 C 205.8 17.2 206.9 17.7 208.2 17.7 C 209.3 17.7 210.2 17.3 210.2 16.5 C 210.2 15.7 209.6 15.6 208 15.3 C 205.8 14.9 203.2 14.5 203.2 11.7 C 203.2 9.1 205.4 8 207.8 8 C 210.5 8 212.5 9.3 212.7 11.9 C 212.7 11.9 209.9 11.9 209.9 11.9 C 209.8 10.8 209 10.3 207.8 10.3 C 206.4 10.3 205.9 10.9 205.9 11.6 C 205.9 12.5 206.9 12.7 208.3 12.9 C 210.4 13.2 212.9 13.5 212.9 16.2 Z M 224.1 12 C 224.09 11.99 224.1 19.8 224.1 19.8 L 221.4 19.8 C 221.4 19.8 221.36 18.1 221.4 18.1 C 220.5 19.6 219.1 20 217.9 20 C 216 20 214.1 18.9 214.1 16.4 C 214.1 14.6 215.1 13.4 217.8 13 C 217.8 13 220.3 12.6 220.3 12.6 C 221 12.5 221.5 12.3 221.5 11.6 C 221.5 10.6 220.6 10.2 219.5 10.2 C 218 10.2 217.3 10.9 217.2 11.9 C 217.2 11.9 214.6 11.9 214.6 11.9 C 214.8 9.2 217 8 219.6 8 C 222.4 8 224.1 9.3 224.1 12 Z M 221.4 14.9 C 221.4 14.9 221.4 14.3 221.4 14.3 C 221.1 14.4 220.6 14.6 220 14.6 C 220 14.6 218.8 14.8 218.8 14.8 C 217.3 15 216.9 15.6 216.9 16.3 C 216.9 17.2 217.5 17.7 218.5 17.7 C 220 17.7 221.4 16.6 221.4 14.9 Z M 232.5 19.8 C 232.5 19.8 230.7 19.78 230.7 19.8 C 228.5 19.8 227.2 19.1 227.2 16 C 227.15 16 227.2 10.7 227.2 10.7 L 225 10.7 L 225 8.2 L 227.2 8.2 L 227.2 5.6 L 229.9 4.8 L 229.9 8.2 L 232.3 8.2 L 232.3 10.7 L 229.9 10.7 C 229.9 10.7 229.95 16.13 229.9 16.1 C 229.9 16.8 230.1 17.3 231.1 17.3 C 231.12 17.3 232.5 17.3 232.5 17.3 L 232.5 19.8 Z M 243.2 19.8 L 233.4 19.8 L 233.4 17.3 L 239.6 10.6 L 233.5 10.6 L 233.5 8.2 L 243.2 8.2 L 243.2 10.6 L 236.9 17.3 L 243.2 17.3 L 243.2 19.8 Z " stroke="none" fill="#000"/>  </g></svg>