<?xml version="1.0" standalone="no"?><!DOCTYPE svg PUBLIC "-//W3C//DTD SVG 1.1//EN" "http://www.w3.org/Graphics/SVG/1.1/DTD/svg11.dtd"><svg xmlns="http://www.w3.org/2000/svg" version="1.1" width="284px" height="36.4px" viewBox="0 0 284 36.4">  <desc>D offrir une diversification</desc>  <defs/>  <g id="Polygon9614">    <path d="M 14.3 11.6 C 14.3 15.7 11.8 19.8 6.4 19.8 C 6.45 19.78 1.9 19.8 1.9 19.8 L 1.9 4 C 1.9 4 6.72 4.03 6.7 4 C 11.8 4 14.3 7.7 14.3 11.6 Z M 12.7 11.7 C 12.7 8.5 10.7 5.4 6.6 5.4 C 6.59 5.44 3.5 5.4 3.5 5.4 L 3.5 18.3 C 3.5 18.3 6.47 18.33 6.5 18.3 C 10.6 18.3 12.7 15 12.7 11.7 Z M 17.9 6 C 17.85 5.98 16.8 6 16.8 6 L 16.8 3.9 L 19.1 3.9 C 19.1 3.9 19.07 6.05 19.1 6 C 19.1 8.5 17.6 9.4 16 9.6 C 16 9.6 15.8 8.6 15.8 8.6 C 17.5 8.3 17.9 7.3 17.9 6 Z M 19.3 14.2 C 19.3 10.5 21.5 8.3 24.6 8.3 C 27.7 8.3 30 10.5 30 14.2 C 30 17.8 27.7 20 24.6 20 C 21.5 20 19.3 17.8 19.3 14.2 Z M 28.4 14.1 C 28.4 11.3 26.7 9.7 24.6 9.7 C 22.4 9.7 20.9 11.4 20.9 14.2 C 20.9 17 22.6 18.6 24.7 18.6 C 26.8 18.6 28.4 16.9 28.4 14.1 Z M 42.2 6.8 C 42.17 6.76 42.2 8.5 42.2 8.5 L 44.7 8.5 L 44.7 9.9 L 42.2 9.9 L 42.2 19.8 L 40.6 19.8 L 40.6 9.9 L 34.6 9.9 L 34.6 19.8 L 33.1 19.8 L 33.1 9.9 L 31.2 9.9 L 31.2 8.5 L 33.1 8.5 C 33.1 8.5 33.1 6.72 33.1 6.7 C 33.1 4.2 34.4 3.8 35.9 3.8 C 35.93 3.78 37.4 3.8 37.4 3.8 L 37.4 5.1 C 37.4 5.1 36.18 5.14 36.2 5.1 C 34.9 5.1 34.6 5.7 34.6 6.8 C 34.63 6.76 34.6 8.5 34.6 8.5 L 40.6 8.5 C 40.6 8.5 40.64 6.72 40.6 6.7 C 40.6 4.2 42 3.8 43.5 3.8 C 43.47 3.78 45 3.8 45 3.8 L 45 5.1 C 45 5.1 43.72 5.14 43.7 5.1 C 42.5 5.1 42.2 5.7 42.2 6.8 Z M 52.6 9.8 C 52.6 9.8 52.23 9.83 52.2 9.8 C 49.8 9.8 48.5 11.2 48.5 13.8 C 48.49 13.8 48.5 19.8 48.5 19.8 L 47 19.8 L 47 8.5 L 48.5 8.5 C 48.5 8.5 48.47 10.58 48.5 10.6 C 49 9.1 50.4 8.4 52.1 8.4 C 52.1 8.38 52.6 8.4 52.6 8.4 L 52.6 9.8 Z M 56.2 3.8 L 54.5 3.8 L 54.5 5.7 L 56.2 5.7 L 56.2 3.8 Z M 56.1 19.8 L 54.6 19.8 L 54.6 8.5 L 56.1 8.5 L 56.1 19.8 Z M 65.1 9.8 C 65.1 9.8 64.74 9.83 64.7 9.8 C 62.3 9.8 61 11.2 61 13.8 C 61 13.8 61 19.8 61 19.8 L 59.5 19.8 L 59.5 8.5 L 61 8.5 C 61 8.5 60.98 10.58 61 10.6 C 61.5 9.1 62.9 8.4 64.6 8.4 C 64.62 8.38 65.1 8.4 65.1 8.4 L 65.1 9.8 Z M 79.5 19.8 C 79.5 19.8 79.55 17.64 79.5 17.6 C 78.8 19.2 77.4 19.9 75.8 19.9 C 73.7 19.9 72 18.6 72 16 C 72.03 15.96 72 8.5 72 8.5 L 73.6 8.5 C 73.6 8.5 73.56 15.77 73.6 15.8 C 73.6 17.6 74.6 18.6 76.1 18.6 C 77.9 18.6 79.5 17.2 79.5 14.3 C 79.48 14.34 79.5 8.5 79.5 8.5 L 81 8.5 L 81 19.8 L 79.5 19.8 Z M 93.5 12.1 C 93.53 12.05 93.5 19.8 93.5 19.8 L 92 19.8 C 92 19.8 92 12.24 92 12.2 C 92 10.7 91.1 9.7 89.5 9.7 C 87.6 9.7 85.9 11.1 85.9 13.9 C 85.91 13.86 85.9 19.8 85.9 19.8 L 84.4 19.8 L 84.4 8.5 L 85.9 8.5 C 85.9 8.5 85.91 10.6 85.9 10.6 C 86.6 9.3 87.8 8.3 89.8 8.3 C 92.1 8.3 93.5 9.6 93.5 12.1 Z M 97.6 14.5 C 97.6 17.3 99.3 18.6 101.3 18.6 C 102.8 18.6 104.3 17.9 104.6 16.3 C 104.6 16.3 106.1 16.3 106.1 16.3 C 105.6 18.9 103.4 20 101.2 20 C 98.6 20 96.1 18.2 96.1 14.2 C 96.1 10.1 98.6 8.3 101.3 8.3 C 104 8.3 106.2 10 106.2 13.8 C 106.15 13.75 106.2 14.5 106.2 14.5 C 106.2 14.5 97.56 14.51 97.6 14.5 Z M 97.6 13.2 C 97.6 13.2 104.6 13.2 104.6 13.2 C 104.6 10.9 103.1 9.7 101.2 9.7 C 99.5 9.7 97.8 10.8 97.6 13.2 Z M 123.4 19.8 L 121.9 19.8 C 121.9 19.8 121.95 17.6 121.9 17.6 C 121.4 18.9 120 20 117.9 20 C 115 20 112.9 17.7 112.9 14.1 C 112.9 10.6 115 8.3 118 8.3 C 119.9 8.3 121.3 9.2 121.9 10.4 C 121.88 10.42 121.9 3.8 121.9 3.8 L 123.4 3.8 L 123.4 19.8 Z M 121.9 14.1 C 121.9 11.3 120.3 9.7 118.1 9.7 C 115.9 9.7 114.4 11.4 114.4 14.1 C 114.4 16.9 116 18.6 118.1 18.6 C 120.3 18.6 121.9 16.9 121.9 14.1 Z M 128.4 3.8 L 126.7 3.8 L 126.7 5.7 L 128.4 5.7 L 128.4 3.8 Z M 128.3 19.8 L 126.8 19.8 L 126.8 8.5 L 128.3 8.5 L 128.3 19.8 Z M 136.1 19.8 L 134.5 19.8 L 130.3 8.5 L 132 8.5 L 135.3 18.2 L 138.7 8.5 L 140.3 8.5 L 136.1 19.8 Z M 142.9 14.5 C 142.9 17.3 144.7 18.6 146.7 18.6 C 148.2 18.6 149.6 17.9 150 16.3 C 150 16.3 151.4 16.3 151.4 16.3 C 150.9 18.9 148.7 20 146.6 20 C 143.9 20 141.4 18.2 141.4 14.2 C 141.4 10.1 143.9 8.3 146.6 8.3 C 149.3 8.3 151.5 10 151.5 13.8 C 151.49 13.75 151.5 14.5 151.5 14.5 C 151.5 14.5 142.9 14.51 142.9 14.5 Z M 142.9 13.2 C 142.9 13.2 149.9 13.2 149.9 13.2 C 149.9 10.9 148.5 9.7 146.6 9.7 C 144.8 9.7 143.2 10.8 142.9 13.2 Z M 159.7 9.8 C 159.7 9.8 159.39 9.83 159.4 9.8 C 157 9.8 155.7 11.2 155.7 13.8 C 155.65 13.8 155.7 19.8 155.7 19.8 L 154.1 19.8 L 154.1 8.5 L 155.6 8.5 C 155.6 8.5 155.63 10.58 155.6 10.6 C 156.2 9.1 157.5 8.4 159.3 8.4 C 159.26 8.38 159.7 8.4 159.7 8.4 L 159.7 9.8 Z M 170.1 16.6 C 170.1 18.9 168 20 165.8 20 C 163.4 20 161.1 18.8 160.9 16.3 C 160.9 16.3 162.5 16.3 162.5 16.3 C 162.8 18 164.3 18.6 165.8 18.6 C 167.2 18.6 168.5 18.1 168.5 16.8 C 168.5 15.5 167.2 15.2 165.9 15 C 163.7 14.6 161.2 14.2 161.2 11.6 C 161.2 9.4 163.1 8.3 165.4 8.3 C 167.8 8.3 169.7 9.4 169.8 11.7 C 169.8 11.7 168.2 11.7 168.2 11.7 C 168.1 10.3 166.8 9.7 165.4 9.7 C 163.8 9.7 162.8 10.4 162.8 11.5 C 162.8 13 164.1 13.2 165.8 13.5 C 167.9 13.8 170.1 14.1 170.1 16.6 Z M 174.3 3.8 L 172.5 3.8 L 172.5 5.7 L 174.3 5.7 L 174.3 3.8 Z M 174.2 19.8 L 172.6 19.8 L 172.6 8.5 L 174.2 8.5 L 174.2 19.8 Z M 185.4 19.8 L 185.4 9.9 L 179.6 9.9 L 179.6 19.8 L 178 19.8 L 178 9.9 L 176.2 9.9 L 176.2 8.5 L 178 8.5 C 178 8.5 178.04 6.72 178 6.7 C 178 4.2 179.4 3.8 180.9 3.8 C 180.87 3.78 182.4 3.8 182.4 3.8 L 182.4 5.1 C 182.4 5.1 181.12 5.14 181.1 5.1 C 179.9 5.1 179.6 5.7 179.6 6.8 C 179.57 6.76 179.6 8.5 179.6 8.5 L 186.9 8.5 L 186.9 19.8 L 185.4 19.8 Z M 194.6 20 C 191.5 20 189.4 17.7 189.4 14.2 C 189.4 10.6 191.5 8.3 194.8 8.3 C 197.3 8.3 199.3 9.7 199.4 12.2 C 199.4 12.2 197.9 12.2 197.9 12.2 C 197.8 10.6 196.4 9.7 194.8 9.7 C 192.5 9.7 191 11.4 191 14.1 C 191 16.9 192.5 18.6 194.7 18.6 C 196.4 18.6 197.8 17.6 197.9 15.8 C 197.9 15.8 199.4 15.8 199.4 15.8 C 199.3 18.5 197.1 20 194.6 20 Z M 209 17.7 C 208.1 19.4 206.4 20 205 20 C 203 20 201.3 18.9 201.3 16.7 C 201.3 14.6 202.8 13.6 204.7 13.4 C 204.7 13.4 207.4 13 207.4 13 C 208.3 12.9 209 12.6 209 11.6 C 209 10.3 207.8 9.6 206.3 9.6 C 204.6 9.6 203.5 10.4 203.3 11.7 C 203.3 11.7 201.8 11.7 201.8 11.7 C 202.1 9.4 203.9 8.3 206.4 8.3 C 208.9 8.3 210.5 9.5 210.5 12 C 210.48 11.99 210.5 19.8 210.5 19.8 L 209 19.8 C 209 19.8 208.99 17.72 209 17.7 Z M 207.1 14.3 C 207.1 14.3 205.4 14.5 205.4 14.5 C 204 14.7 202.9 15.2 202.9 16.6 C 202.9 18 204 18.6 205.2 18.6 C 207 18.6 208.9 17.3 208.9 14.9 C 208.9 14.9 208.9 13.8 208.9 13.8 C 208.5 14.1 207.9 14.2 207.1 14.3 Z M 218.8 19.8 C 218.8 19.8 217.12 19.78 217.1 19.8 C 215.6 19.8 214.3 19.3 214.3 16.8 C 214.28 16.82 214.3 9.9 214.3 9.9 L 212.1 9.9 L 212.1 8.5 L 214.3 8.5 L 214.3 5.3 L 215.8 4.9 L 215.8 8.5 L 218.5 8.5 L 218.5 9.9 L 215.8 9.9 C 215.8 9.9 215.81 16.8 215.8 16.8 C 215.8 17.8 216.1 18.4 217.4 18.4 C 217.37 18.4 218.8 18.4 218.8 18.4 L 218.8 19.8 Z M 222.6 3.8 L 220.9 3.8 L 220.9 5.7 L 222.6 5.7 L 222.6 3.8 Z M 222.5 19.8 L 221 19.8 L 221 8.5 L 222.5 8.5 L 222.5 19.8 Z M 225.1 14.2 C 225.1 10.5 227.4 8.3 230.5 8.3 C 233.6 8.3 235.8 10.5 235.8 14.2 C 235.8 17.8 233.6 20 230.5 20 C 227.4 20 225.1 17.8 225.1 14.2 Z M 234.3 14.1 C 234.3 11.3 232.6 9.7 230.5 9.7 C 228.2 9.7 226.7 11.4 226.7 14.2 C 226.7 17 228.4 18.6 230.5 18.6 C 232.7 18.6 234.3 16.9 234.3 14.1 Z M 247.6 12.1 C 247.61 12.05 247.6 19.8 247.6 19.8 L 246.1 19.8 C 246.1 19.8 246.07 12.24 246.1 12.2 C 246.1 10.7 245.2 9.7 243.6 9.7 C 241.7 9.7 240 11.1 240 13.9 C 239.98 13.86 240 19.8 240 19.8 L 238.5 19.8 L 238.5 8.5 L 240 8.5 C 240 8.5 239.98 10.6 240 10.6 C 240.7 9.3 241.9 8.3 243.9 8.3 C 246.1 8.3 247.6 9.6 247.6 12.1 Z " stroke="none" fill="#000"/>  </g></svg>