<?xml version="1.0" standalone="no"?><!DOCTYPE svg PUBLIC "-//W3C//DTD SVG 1.1//EN" "http://www.w3.org/Graphics/SVG/1.1/DTD/svg11.dtd"><svg xmlns="http://www.w3.org/2000/svg" version="1.1" width="270px" height="198.4px" viewBox="0 0 270 198.4">  <desc>Es scheint Konsens zu herrschen, dass der US-Dollar 2021 abwerten wird Welche W hrungspositionierung ist 2021 sinnvo</desc>  <defs/>  <g id="Polygon10522">    <path d="M 11.5 167.5 L 4.8 167.5 L 3.5 171 L 0.4 171 L 6.5 155.2 L 9.7 155.2 L 16 171 L 12.8 171 L 11.5 167.5 Z M 10.4 164.7 L 8.1 158.5 L 5.8 164.7 L 10.4 164.7 Z M 28 163.5 C 27.97 163.51 28 171 28 171 L 25.2 171 C 25.2 171 25.18 163.76 25.2 163.8 C 25.2 162.5 24.4 161.7 23.1 161.7 C 21.5 161.7 20.6 162.8 20.6 164.7 C 20.58 164.72 20.6 171 20.6 171 L 17.8 171 L 17.8 159.4 L 20.6 159.4 C 20.6 159.4 20.56 161.07 20.6 161.1 C 21.2 160 22.2 159.2 24.1 159.2 C 26.7 159.2 28 160.7 28 163.5 Z M 33.4 171 L 30.6 171 L 30.6 155 L 33.4 155 L 33.4 171 Z M 38.1 166 C 38.2 167.9 39.5 168.8 41.1 168.8 C 42.2 168.8 43.2 168.4 43.6 167.3 C 43.6 167.3 46.1 167.3 46.1 167.3 C 45.6 169.9 43.3 171.2 40.9 171.2 C 38.2 171.2 35.4 169.3 35.4 165.2 C 35.4 161.2 38 159.2 41 159.2 C 43.8 159.2 46.2 161 46.2 164.9 C 46.16 164.89 46.2 166 46.2 166 C 46.2 166 38.09 166.03 38.1 166 Z M 38.2 164 C 38.2 164 43.4 164 43.4 164 C 43.4 162.5 42.4 161.6 40.9 161.6 C 39.6 161.6 38.4 162.3 38.2 164 Z M 58.6 170.2 C 58.6 173.9 56.2 175.6 53.1 175.6 C 50.3 175.6 47.9 174.2 47.6 171.3 C 47.6 171.3 50.3 171.3 50.3 171.3 C 50.6 172.8 51.8 173.2 53.1 173.2 C 54.9 173.2 55.9 172.3 55.9 170.5 C 55.9 170.5 55.9 168.6 55.9 168.6 C 55.4 169.8 54.2 170.6 52.5 170.6 C 49.9 170.6 47.4 168.8 47.4 164.9 C 47.4 161 49.9 159.2 52.5 159.2 C 54.1 159.2 55.3 159.9 55.9 161 C 55.9 161.01 55.9 159.4 55.9 159.4 L 58.6 159.4 C 58.6 159.4 58.59 170.2 58.6 170.2 Z M 55.8 164.9 C 55.8 162.7 54.6 161.6 53.1 161.6 C 51.5 161.6 50.2 162.7 50.2 164.9 C 50.2 167.1 51.5 168.1 53.1 168.1 C 54.6 168.1 55.8 167.1 55.8 164.9 Z M 63.2 166 C 63.3 167.9 64.6 168.8 66.2 168.8 C 67.3 168.8 68.3 168.4 68.6 167.3 C 68.6 167.3 71.2 167.3 71.2 167.3 C 70.7 169.9 68.4 171.2 66 171.2 C 63.3 171.2 60.5 169.3 60.5 165.2 C 60.5 161.2 63.1 159.2 66.1 159.2 C 68.9 159.2 71.3 161 71.3 164.9 C 71.25 164.89 71.3 166 71.3 166 C 71.3 166 63.19 166.03 63.2 166 Z M 63.3 164 C 63.3 164 68.5 164 68.5 164 C 68.5 162.5 67.5 161.6 66 161.6 C 64.7 161.6 63.5 162.3 63.3 164 Z M 79.8 162 C 79.8 162 79.06 161.97 79.1 162 C 77.1 162 76 163 76 165.3 C 76.04 165.31 76 171 76 171 L 73.2 171 L 73.2 159.4 L 76 159.4 C 76 159.4 76.02 161.05 76 161 C 76.6 159.8 77.7 159.3 79 159.3 C 79.04 159.26 79.8 159.3 79.8 159.3 L 79.8 162 Z M 86.1 157.9 L 89.1 157.9 L 89.1 154.7 L 86.1 154.7 L 86.1 157.9 Z M 86.2 159.4 L 89 159.4 L 89 171 L 86.2 171 L 86.2 159.4 Z M 101.9 163.5 C 101.87 163.51 101.9 171 101.9 171 L 99.1 171 C 99.1 171 99.08 163.76 99.1 163.8 C 99.1 162.5 98.3 161.7 97 161.7 C 95.4 161.7 94.5 162.8 94.5 164.7 C 94.48 164.72 94.5 171 94.5 171 L 91.7 171 L 91.7 159.4 L 94.5 159.4 C 94.5 159.4 94.46 161.07 94.5 161.1 C 95.1 160 96.1 159.2 98 159.2 C 100.6 159.2 101.9 160.7 101.9 163.5 Z M 110.4 171 L 110.4 155.2 L 121 155.2 L 121 158 L 113.3 158 L 113.3 161.6 L 120.6 161.6 L 120.6 164.4 L 113.3 164.4 L 113.3 168.2 L 121.4 168.2 L 121.4 171 L 110.4 171 Z M 133.5 171 L 130.8 171 C 130.8 171 130.79 169.34 130.8 169.3 C 130.1 170.4 129.1 171.1 127.4 171.1 C 125 171.1 123.3 169.6 123.3 166.6 C 123.27 166.59 123.3 159.4 123.3 159.4 L 126.1 159.4 C 126.1 159.4 126.06 166.38 126.1 166.4 C 126.1 168 126.8 168.6 128 168.6 C 129.6 168.6 130.7 167.7 130.7 165 C 130.72 165 130.7 159.4 130.7 159.4 L 133.5 159.4 L 133.5 171 Z M 142.8 162 C 142.8 162 142.06 161.97 142.1 162 C 140.1 162 139 163 139 165.3 C 139.04 165.31 139 171 139 171 L 136.2 171 L 136.2 159.4 L 139 159.4 C 139 159.4 139.02 161.05 139 161 C 139.6 159.8 140.7 159.3 142 159.3 C 142.04 159.26 142.8 159.3 142.8 159.3 L 142.8 162 Z M 154.5 165.2 C 154.5 169 152.1 171.2 148.9 171.2 C 145.6 171.2 143.2 169 143.2 165.2 C 143.2 161.4 145.6 159.2 148.9 159.2 C 152.1 159.2 154.5 161.4 154.5 165.2 Z M 146.1 165.2 C 146.1 167.5 147.4 168.6 148.9 168.6 C 150.6 168.6 151.7 167.4 151.7 165.2 C 151.7 162.9 150.4 161.8 148.8 161.8 C 147.2 161.8 146.1 163 146.1 165.2 Z M 159.3 165.4 C 159.3 162.7 160.6 162.2 161.9 161.3 C 162.9 160.6 163.4 160 163.4 159.2 C 163.4 158 162.5 157.4 161.3 157.4 C 159.8 157.4 158.9 158.2 158.8 159.6 C 158.8 159.6 156 159.6 156 159.6 C 156.3 156.2 158.7 155 161.3 155 C 164.1 155 166.3 156.3 166.3 159.1 C 166.3 161.3 165 162.2 163.5 163.2 C 162.5 164 162 164.5 162 165.4 C 161.97 165.44 162 166.1 162 166.1 L 159.3 166.1 C 159.3 166.1 159.3 165.35 159.3 165.4 Z M 159.1 167.7 L 162.2 167.7 L 162.2 171 L 159.1 171 L 159.1 167.7 Z " stroke="none" fill="#000"/>  </g>  <g id="Polygon10521">    <path d="M 1.3 132.7 L 4.2 132.7 L 4.2 129.5 L 1.3 129.5 L 1.3 132.7 Z M 1.3 134.2 L 4.1 134.2 L 4.1 145.8 L 1.3 145.8 L 1.3 134.2 Z M 16.1 142.2 C 16.1 144.8 13.8 146 11.2 146 C 8.8 146 6.2 145 6 142.1 C 6 142.1 8.8 142.1 8.8 142.1 C 9 143.2 10 143.7 11.3 143.7 C 12.5 143.7 13.4 143.3 13.4 142.5 C 13.4 141.7 12.8 141.6 11.2 141.3 C 8.9 140.9 6.4 140.5 6.4 137.7 C 6.4 135.1 8.6 134 11 134 C 13.7 134 15.7 135.3 15.8 137.9 C 15.8 137.9 13.1 137.9 13.1 137.9 C 13 136.8 12.2 136.3 11 136.3 C 9.6 136.3 9.1 136.9 9.1 137.6 C 9.1 138.5 10.1 138.7 11.5 138.9 C 13.6 139.2 16.1 139.5 16.1 142.2 Z M 23.9 145.8 C 23.9 145.8 22.09 145.78 22.1 145.8 C 19.9 145.8 18.5 145.1 18.5 142 C 18.54 142 18.5 136.7 18.5 136.7 L 16.4 136.7 L 16.4 134.2 L 18.5 134.2 L 18.5 131.6 L 21.3 130.8 L 21.3 134.2 L 23.6 134.2 L 23.6 136.7 L 21.3 136.7 C 21.3 136.7 21.34 142.13 21.3 142.1 C 21.3 142.8 21.5 143.3 22.5 143.3 C 22.51 143.3 23.9 143.3 23.9 143.3 L 23.9 145.8 Z M 41.7 145.8 L 30.3 145.8 L 30.3 143.2 C 30.3 143.2 34.1 140.07 34.1 140.1 C 37 137.7 38.3 136.5 38.3 134.9 C 38.3 133.5 37.2 132.7 35.7 132.7 C 34.1 132.7 33 133.6 32.9 135.5 C 32.9 135.5 30.1 135.5 30.1 135.5 C 30.1 131.9 32.8 130 35.9 130 C 38.8 130 41.2 131.6 41.2 134.7 C 41.2 137.4 39.2 139.2 36.5 141.4 C 36.48 141.41 34.3 143.2 34.3 143.2 L 41.7 143.2 L 41.7 145.8 Z M 43 138.1 C 43 133.2 44.7 130 48.5 130 C 52.3 130 54 133.2 54 138 C 54 142.9 52.2 146 48.4 146 C 44.6 146 43 142.9 43 138.1 Z M 51.2 138.1 C 51.2 135 50.4 132.5 48.4 132.5 C 46.6 132.5 45.8 134.5 45.8 137.9 C 45.8 141.4 46.7 143.6 48.5 143.6 C 50.4 143.6 51.2 141.3 51.2 138.1 Z M 66.9 145.8 L 55.5 145.8 L 55.5 143.2 C 55.5 143.2 59.3 140.07 59.3 140.1 C 62.2 137.7 63.5 136.5 63.5 134.9 C 63.5 133.5 62.4 132.7 60.9 132.7 C 59.3 132.7 58.2 133.6 58.1 135.5 C 58.1 135.5 55.3 135.5 55.3 135.5 C 55.3 131.9 58 130 61.1 130 C 64 130 66.4 131.6 66.4 134.7 C 66.4 137.4 64.4 139.2 61.7 141.4 C 61.68 141.41 59.4 143.2 59.4 143.2 L 66.9 143.2 L 66.9 145.8 Z M 79 143.2 L 79 145.8 L 68.6 145.8 L 68.6 143.2 L 72.4 143.2 C 72.4 143.2 72.43 133.96 72.4 134 C 71.2 134.7 69.7 135.1 68.6 135.2 C 68.6 135.2 68.6 132.4 68.6 132.4 C 70 132.2 71.5 131.6 72.8 130.3 C 72.85 130.3 75.2 130.3 75.2 130.3 L 75.2 143.2 L 79 143.2 Z M 95.9 142.2 C 95.9 144.8 93.6 146 90.9 146 C 88.6 146 86 145 85.8 142.1 C 85.8 142.1 88.6 142.1 88.6 142.1 C 88.8 143.2 89.8 143.7 91.1 143.7 C 92.3 143.7 93.1 143.3 93.1 142.5 C 93.1 141.7 92.6 141.6 91 141.3 C 88.7 140.9 86.1 140.5 86.1 137.7 C 86.1 135.1 88.3 134 90.7 134 C 93.4 134 95.4 135.3 95.6 137.9 C 95.6 137.9 92.9 137.9 92.9 137.9 C 92.8 136.8 91.9 136.3 90.8 136.3 C 89.4 136.3 88.8 136.9 88.8 137.6 C 88.8 138.5 89.9 138.7 91.3 138.9 C 93.3 139.2 95.9 139.5 95.9 142.2 Z M 97.6 132.7 L 100.6 132.7 L 100.6 129.5 L 97.6 129.5 L 97.6 132.7 Z M 97.7 134.2 L 100.5 134.2 L 100.5 145.8 L 97.7 145.8 L 97.7 134.2 Z M 113.4 138.3 C 113.42 138.31 113.4 145.8 113.4 145.8 L 110.6 145.8 C 110.6 145.8 110.63 138.56 110.6 138.6 C 110.6 137.3 109.9 136.5 108.6 136.5 C 107 136.5 106 137.6 106 139.5 C 106.03 139.52 106 145.8 106 145.8 L 103.2 145.8 L 103.2 134.2 L 106 134.2 C 106 134.2 106.01 135.87 106 135.9 C 106.7 134.8 107.6 134 109.5 134 C 112.2 134 113.4 135.5 113.4 138.3 Z M 126.2 138.3 C 126.23 138.31 126.2 145.8 126.2 145.8 L 123.4 145.8 C 123.4 145.8 123.44 138.56 123.4 138.6 C 123.4 137.3 122.7 136.5 121.4 136.5 C 119.8 136.5 118.8 137.6 118.8 139.5 C 118.84 139.52 118.8 145.8 118.8 145.8 L 116 145.8 L 116 134.2 L 118.8 134.2 C 118.8 134.2 118.82 135.87 118.8 135.9 C 119.5 134.8 120.4 134 122.3 134 C 125 134 126.2 135.5 126.2 138.3 Z M 134.7 145.8 L 131.8 145.8 L 127.5 134.2 L 130.4 134.2 L 133.3 142.5 L 136.1 134.2 L 139 134.2 L 134.7 145.8 Z M 150.8 140 C 150.8 143.8 148.4 146 145.1 146 C 141.9 146 139.5 143.8 139.5 140 C 139.5 136.2 141.9 134 145.1 134 C 148.4 134 150.8 136.2 150.8 140 Z M 142.3 140 C 142.3 142.3 143.6 143.4 145.1 143.4 C 146.8 143.4 147.9 142.2 147.9 140 C 147.9 137.7 146.6 136.6 145.1 136.6 C 143.4 136.6 142.3 137.8 142.3 140 Z M 155.6 145.8 L 152.8 145.8 L 152.8 129.8 L 155.6 129.8 L 155.6 145.8 Z M 161.1 145.8 L 158.3 145.8 L 158.3 129.8 L 161.1 129.8 L 161.1 145.8 Z M 173.6 132.3 C 172.6 132.3 172.4 132.7 172.4 133.4 C 172.43 133.43 172.4 134.2 172.4 134.2 L 174.6 134.2 L 174.6 136.7 L 172.4 136.7 L 172.4 145.8 L 169.6 145.8 L 169.6 136.7 L 167.9 136.7 L 167.9 134.2 L 169.6 134.2 C 169.6 134.2 169.63 133.56 169.6 133.6 C 169.6 130.5 171 129.8 173.2 129.8 C 173.18 129.78 174.9 129.8 174.9 129.8 L 174.9 132.3 C 174.9 132.3 173.6 132.26 173.6 132.3 Z M 177.9 129.6 L 180.3 129.6 L 180.3 132.1 L 177.9 132.1 L 177.9 129.6 Z M 182.3 129.6 L 184.7 129.6 L 184.7 132.1 L 182.3 132.1 L 182.3 129.6 Z M 186.4 145.8 L 183.6 145.8 C 183.6 145.8 183.64 144.14 183.6 144.1 C 183 145.2 181.9 145.9 180.3 145.9 C 177.9 145.9 176.1 144.4 176.1 141.4 C 176.12 141.39 176.1 134.2 176.1 134.2 L 178.9 134.2 C 178.9 134.2 178.92 141.18 178.9 141.2 C 178.9 142.8 179.7 143.4 180.9 143.4 C 182.4 143.4 183.6 142.5 183.6 139.8 C 183.58 139.8 183.6 134.2 183.6 134.2 L 186.4 134.2 L 186.4 145.8 Z M 195.7 136.8 C 195.7 136.8 194.92 136.77 194.9 136.8 C 193 136.8 191.9 137.8 191.9 140.1 C 191.89 140.11 191.9 145.8 191.9 145.8 L 189.1 145.8 L 189.1 134.2 L 191.9 134.2 C 191.9 134.2 191.87 135.85 191.9 135.8 C 192.5 134.6 193.5 134.1 194.9 134.1 C 194.9 134.06 195.7 134.1 195.7 134.1 L 195.7 136.8 Z " stroke="none" fill="#000"/>  </g>  <g id="Polygon10520">    <path d="M 16.8 120.6 L 13.9 120.6 L 10.6 109.3 L 7.3 120.6 L 4.4 120.6 L 0.3 104.8 L 3.4 104.8 L 6 115.8 L 9.2 104.8 L 12.1 104.8 L 15.3 115.9 L 17.9 104.8 L 20.9 104.8 L 16.8 120.6 Z M 22.9 104.4 L 25.3 104.4 L 25.3 106.9 L 22.9 106.9 L 22.9 104.4 Z M 27.3 104.4 L 29.7 104.4 L 29.7 106.9 L 27.3 106.9 L 27.3 104.4 Z M 30.8 112.8 C 30.81 112.79 30.8 120.6 30.8 120.6 L 28.1 120.6 C 28.1 120.6 28.08 118.9 28.1 118.9 C 27.2 120.4 25.8 120.8 24.6 120.8 C 22.7 120.8 20.8 119.7 20.8 117.2 C 20.8 115.4 21.8 114.2 24.5 113.8 C 24.5 113.8 27 113.4 27 113.4 C 27.7 113.3 28.2 113.1 28.2 112.4 C 28.2 111.4 27.3 111 26.2 111 C 24.7 111 24.1 111.7 24 112.7 C 24 112.7 21.3 112.7 21.3 112.7 C 21.6 110 23.7 108.8 26.4 108.8 C 29.1 108.8 30.8 110.1 30.8 112.8 Z M 28.1 115.7 C 28.1 115.7 28.1 115.1 28.1 115.1 C 27.8 115.2 27.3 115.4 26.7 115.4 C 26.7 115.4 25.5 115.6 25.5 115.6 C 24.1 115.8 23.6 116.4 23.6 117.1 C 23.6 118 24.3 118.5 25.2 118.5 C 26.7 118.5 28.1 117.4 28.1 115.7 Z M 43.5 113.1 C 43.51 113.11 43.5 120.6 43.5 120.6 L 40.7 120.6 C 40.7 120.6 40.72 113.36 40.7 113.4 C 40.7 112.1 40 111.3 38.7 111.3 C 37.1 111.3 36.1 112.4 36.1 114.3 C 36.12 114.32 36.1 120.6 36.1 120.6 L 33.3 120.6 L 33.3 104.6 L 36.1 104.6 C 36.1 104.6 36.12 110.63 36.1 110.6 C 36.8 109.5 37.8 108.8 39.6 108.8 C 42.3 108.8 43.5 110.3 43.5 113.1 Z M 52.7 111.6 C 52.7 111.6 51.95 111.57 52 111.6 C 50 111.6 48.9 112.6 48.9 114.9 C 48.93 114.91 48.9 120.6 48.9 120.6 L 46.1 120.6 L 46.1 109 L 48.9 109 C 48.9 109 48.91 110.65 48.9 110.6 C 49.5 109.4 50.6 108.9 51.9 108.9 C 51.93 108.86 52.7 108.9 52.7 108.9 L 52.7 111.6 Z M 64.2 120.6 L 61.5 120.6 C 61.5 120.6 61.47 118.94 61.5 118.9 C 60.8 120 59.7 120.7 58.1 120.7 C 55.7 120.7 53.9 119.2 53.9 116.2 C 53.95 116.19 53.9 109 53.9 109 L 56.7 109 C 56.7 109 56.74 115.98 56.7 116 C 56.7 117.6 57.5 118.2 58.7 118.2 C 60.3 118.2 61.4 117.3 61.4 114.6 C 61.4 114.6 61.4 109 61.4 109 L 64.2 109 L 64.2 120.6 Z M 77.1 113.1 C 77.11 113.11 77.1 120.6 77.1 120.6 L 74.3 120.6 C 74.3 120.6 74.32 113.36 74.3 113.4 C 74.3 112.1 73.6 111.3 72.3 111.3 C 70.7 111.3 69.7 112.4 69.7 114.3 C 69.72 114.32 69.7 120.6 69.7 120.6 L 66.9 120.6 L 66.9 109 L 69.7 109 C 69.7 109 69.7 110.67 69.7 110.7 C 70.3 109.6 71.3 108.8 73.2 108.8 C 75.9 108.8 77.1 110.3 77.1 113.1 Z M 90.2 119.8 C 90.2 123.5 87.8 125.2 84.6 125.2 C 81.8 125.2 79.5 123.8 79.2 120.9 C 79.2 120.9 81.9 120.9 81.9 120.9 C 82.2 122.4 83.3 122.8 84.6 122.8 C 86.5 122.8 87.5 121.9 87.5 120.1 C 87.5 120.1 87.5 118.2 87.5 118.2 C 87 119.4 85.8 120.2 84.1 120.2 C 81.5 120.2 79 118.4 79 114.5 C 79 110.6 81.5 108.8 84.1 108.8 C 85.7 108.8 86.9 109.5 87.5 110.6 C 87.48 110.61 87.5 109 87.5 109 L 90.2 109 C 90.2 109 90.17 119.8 90.2 119.8 Z M 87.4 114.5 C 87.4 112.3 86.2 111.2 84.6 111.2 C 83.1 111.2 81.8 112.3 81.8 114.5 C 81.8 116.7 83.1 117.7 84.6 117.7 C 86.2 117.7 87.4 116.7 87.4 114.5 Z M 102.1 117 C 102.1 119.6 99.7 120.8 97.1 120.8 C 94.8 120.8 92.1 119.8 92 116.9 C 92 116.9 94.8 116.9 94.8 116.9 C 95 118 96 118.5 97.3 118.5 C 98.5 118.5 99.3 118.1 99.3 117.3 C 99.3 116.5 98.8 116.4 97.2 116.1 C 94.9 115.7 92.3 115.3 92.3 112.5 C 92.3 109.9 94.5 108.8 96.9 108.8 C 99.6 108.8 101.6 110.1 101.8 112.7 C 101.8 112.7 99.1 112.7 99.1 112.7 C 99 111.6 98.1 111.1 97 111.1 C 95.6 111.1 95 111.7 95 112.4 C 95 113.3 96.1 113.5 97.5 113.7 C 99.5 114 102.1 114.3 102.1 117 Z M 115.3 114.6 C 115.3 118.8 112.7 120.7 110 120.7 C 108.5 120.7 107.4 120 106.7 119.2 C 106.74 119.2 106.7 124.9 106.7 124.9 L 103.9 124.9 L 103.9 109 L 106.7 109 C 106.7 109 106.68 110.84 106.7 110.8 C 107.3 109.6 108.6 108.8 110.3 108.8 C 113 108.8 115.3 110.7 115.3 114.6 Z M 112.5 114.8 C 112.5 112.4 111.1 111.3 109.6 111.3 C 108.1 111.3 106.7 112.4 106.7 114.8 C 106.7 117.1 108.1 118.2 109.6 118.2 C 111.1 118.2 112.5 117.1 112.5 114.8 Z M 127.9 114.8 C 127.9 118.6 125.5 120.8 122.2 120.8 C 119 120.8 116.6 118.6 116.6 114.8 C 116.6 111 119 108.8 122.2 108.8 C 125.5 108.8 127.9 111 127.9 114.8 Z M 119.4 114.8 C 119.4 117.1 120.7 118.2 122.3 118.2 C 123.9 118.2 125.1 117 125.1 114.8 C 125.1 112.5 123.8 111.4 122.2 111.4 C 120.6 111.4 119.4 112.6 119.4 114.8 Z M 139.2 117 C 139.2 119.6 136.9 120.8 134.3 120.8 C 131.9 120.8 129.3 119.8 129.1 116.9 C 129.1 116.9 131.9 116.9 131.9 116.9 C 132.1 118 133.1 118.5 134.4 118.5 C 135.6 118.5 136.4 118.1 136.4 117.3 C 136.4 116.5 135.9 116.4 134.3 116.1 C 132 115.7 129.4 115.3 129.4 112.5 C 129.4 109.9 131.6 108.8 134 108.8 C 136.7 108.8 138.7 110.1 138.9 112.7 C 138.9 112.7 136.2 112.7 136.2 112.7 C 136.1 111.6 135.2 111.1 134.1 111.1 C 132.7 111.1 132.1 111.7 132.1 112.4 C 132.1 113.3 133.2 113.5 134.6 113.7 C 136.6 114 139.2 114.3 139.2 117 Z M 141 107.5 L 143.9 107.5 L 143.9 104.3 L 141 104.3 L 141 107.5 Z M 141 109 L 143.8 109 L 143.8 120.6 L 141 120.6 L 141 109 Z M 152.5 120.6 C 152.5 120.6 150.63 120.58 150.6 120.6 C 148.5 120.6 147.1 119.9 147.1 116.8 C 147.08 116.8 147.1 111.5 147.1 111.5 L 145 111.5 L 145 109 L 147.1 109 L 147.1 106.4 L 149.9 105.6 L 149.9 109 L 152.2 109 L 152.2 111.5 L 149.9 111.5 C 149.9 111.5 149.87 116.93 149.9 116.9 C 149.9 117.6 150.1 118.1 151.1 118.1 C 151.05 118.1 152.5 118.1 152.5 118.1 L 152.5 120.6 Z M 153.9 107.5 L 156.9 107.5 L 156.9 104.3 L 153.9 104.3 L 153.9 107.5 Z M 154 109 L 156.8 109 L 156.8 120.6 L 154 120.6 L 154 109 Z M 170.1 114.8 C 170.1 118.6 167.7 120.8 164.4 120.8 C 161.2 120.8 158.8 118.6 158.8 114.8 C 158.8 111 161.2 108.8 164.4 108.8 C 167.7 108.8 170.1 111 170.1 114.8 Z M 161.6 114.8 C 161.6 117.1 162.9 118.2 164.5 118.2 C 166.1 118.2 167.2 117 167.2 114.8 C 167.2 112.5 166 111.4 164.4 111.4 C 162.7 111.4 161.6 112.6 161.6 114.8 Z M 182.3 113.1 C 182.28 113.11 182.3 120.6 182.3 120.6 L 179.5 120.6 C 179.5 120.6 179.48 113.36 179.5 113.4 C 179.5 112.1 178.7 111.3 177.4 111.3 C 175.9 111.3 174.9 112.4 174.9 114.3 C 174.89 114.32 174.9 120.6 174.9 120.6 L 172.1 120.6 L 172.1 109 L 174.9 109 C 174.9 109 174.86 110.67 174.9 110.7 C 175.5 109.6 176.5 108.8 178.4 108.8 C 181 108.8 182.3 110.3 182.3 113.1 Z M 184.8 107.5 L 187.8 107.5 L 187.8 104.3 L 184.8 104.3 L 184.8 107.5 Z M 184.9 109 L 187.7 109 L 187.7 120.6 L 184.9 120.6 L 184.9 109 Z M 192.4 115.6 C 192.4 117.5 193.8 118.4 195.3 118.4 C 196.4 118.4 197.5 118 197.8 116.9 C 197.8 116.9 200.4 116.9 200.4 116.9 C 199.9 119.5 197.6 120.8 195.2 120.8 C 192.4 120.8 189.6 118.9 189.6 114.8 C 189.6 110.8 192.3 108.8 195.2 108.8 C 198 108.8 200.4 110.6 200.4 114.5 C 200.42 114.49 200.4 115.6 200.4 115.6 C 200.4 115.6 192.36 115.63 192.4 115.6 Z M 192.4 113.6 C 192.4 113.6 197.7 113.6 197.7 113.6 C 197.7 112.1 196.6 111.2 195.2 111.2 C 193.9 111.2 192.7 111.9 192.4 113.6 Z M 209 111.6 C 209 111.6 208.23 111.57 208.2 111.6 C 206.3 111.6 205.2 112.6 205.2 114.9 C 205.21 114.91 205.2 120.6 205.2 120.6 L 202.4 120.6 L 202.4 109 L 205.2 109 C 205.2 109 205.19 110.65 205.2 110.6 C 205.8 109.4 206.8 108.9 208.2 108.9 C 208.21 108.86 209 108.9 209 108.9 L 209 111.6 Z M 220.5 120.6 L 217.7 120.6 C 217.7 120.6 217.75 118.94 217.7 118.9 C 217.1 120 216 120.7 214.4 120.7 C 212 120.7 210.2 119.2 210.2 116.2 C 210.23 116.19 210.2 109 210.2 109 L 213 109 C 213 109 213.02 115.98 213 116 C 213 117.6 213.8 118.2 215 118.2 C 216.5 118.2 217.7 117.3 217.7 114.6 C 217.68 114.6 217.7 109 217.7 109 L 220.5 109 L 220.5 120.6 Z M 233.4 113.1 C 233.39 113.11 233.4 120.6 233.4 120.6 L 230.6 120.6 C 230.6 120.6 230.6 113.36 230.6 113.4 C 230.6 112.1 229.9 111.3 228.6 111.3 C 227 111.3 226 112.4 226 114.3 C 226 114.32 226 120.6 226 120.6 L 223.2 120.6 L 223.2 109 L 226 109 C 226 109 225.98 110.67 226 110.7 C 226.6 109.6 227.6 108.8 229.5 108.8 C 232.2 108.8 233.4 110.3 233.4 113.1 Z M 246.5 119.8 C 246.5 123.5 244.1 125.2 240.9 125.2 C 238.1 125.2 235.8 123.8 235.4 120.9 C 235.4 120.9 238.2 120.9 238.2 120.9 C 238.5 122.4 239.6 122.8 240.9 122.8 C 242.7 122.8 243.8 121.9 243.8 120.1 C 243.8 120.1 243.8 118.2 243.8 118.2 C 243.2 119.4 242.1 120.2 240.3 120.2 C 237.7 120.2 235.3 118.4 235.3 114.5 C 235.3 110.6 237.7 108.8 240.3 108.8 C 242 108.8 243.2 109.5 243.8 110.6 C 243.76 110.61 243.8 109 243.8 109 L 246.5 109 C 246.5 109 246.45 119.8 246.5 119.8 Z M 243.7 114.5 C 243.7 112.3 242.4 111.2 240.9 111.2 C 239.4 111.2 238 112.3 238 114.5 C 238 116.7 239.4 117.7 240.9 117.7 C 242.4 117.7 243.7 116.7 243.7 114.5 Z " stroke="none" fill="#000"/>  </g>  <g id="Polygon10519">    <path d="M 10.6 87.6 C 10.63 87.59 10.6 95.4 10.6 95.4 L 7.9 95.4 C 7.9 95.4 7.9 93.7 7.9 93.7 C 7 95.2 5.6 95.6 4.4 95.6 C 2.5 95.6 0.6 94.5 0.6 92 C 0.6 90.2 1.7 89 4.3 88.6 C 4.3 88.6 6.8 88.2 6.8 88.2 C 7.5 88.1 8 87.9 8 87.2 C 8 86.2 7.2 85.8 6 85.8 C 4.6 85.8 3.9 86.5 3.8 87.5 C 3.8 87.5 1.1 87.5 1.1 87.5 C 1.4 84.8 3.5 83.6 6.2 83.6 C 8.9 83.6 10.6 84.9 10.6 87.6 Z M 7.9 90.5 C 7.9 90.5 7.9 89.9 7.9 89.9 C 7.6 90 7.1 90.2 6.6 90.2 C 6.6 90.2 5.3 90.4 5.3 90.4 C 3.9 90.6 3.4 91.2 3.4 91.9 C 3.4 92.8 4.1 93.3 5 93.3 C 6.5 93.3 7.9 92.2 7.9 90.5 Z M 24.5 89.6 C 24.5 93.7 22 95.6 19.3 95.6 C 17.8 95.6 16.6 95.1 15.9 94 C 15.88 94 15.9 95.4 15.9 95.4 L 13.1 95.4 L 13.1 79.4 L 15.9 79.4 C 15.9 79.4 15.94 85.49 15.9 85.5 C 16.6 84.3 17.9 83.6 19.5 83.6 C 22.2 83.6 24.5 85.6 24.5 89.6 Z M 21.7 89.6 C 21.7 87.3 20.3 86.1 18.8 86.1 C 17.3 86.1 15.9 87.3 15.9 89.6 C 15.9 92 17.3 93.2 18.8 93.2 C 20.3 93.2 21.7 92 21.7 89.6 Z M 39 95.4 L 36.3 95.4 L 34 88 L 31.6 95.4 L 28.9 95.4 L 25.1 83.8 L 28 83.8 L 30.3 91.5 L 32.7 83.8 L 35.4 83.8 L 37.7 91.5 L 40 83.8 L 42.9 83.8 L 39 95.4 Z M 46.1 90.4 C 46.2 92.3 47.5 93.2 49.1 93.2 C 50.2 93.2 51.2 92.8 51.6 91.7 C 51.6 91.7 54.1 91.7 54.1 91.7 C 53.6 94.3 51.3 95.6 49 95.6 C 46.2 95.6 43.4 93.7 43.4 89.6 C 43.4 85.6 46 83.6 49 83.6 C 51.8 83.6 54.2 85.4 54.2 89.3 C 54.16 89.29 54.2 90.4 54.2 90.4 C 54.2 90.4 46.09 90.43 46.1 90.4 Z M 46.2 88.4 C 46.2 88.4 51.4 88.4 51.4 88.4 C 51.4 86.9 50.4 86 48.9 86 C 47.6 86 46.4 86.7 46.2 88.4 Z M 62.7 86.4 C 62.7 86.4 61.97 86.37 62 86.4 C 60 86.4 58.9 87.4 58.9 89.7 C 58.95 89.71 58.9 95.4 58.9 95.4 L 56.2 95.4 L 56.2 83.8 L 58.9 83.8 C 58.9 83.8 58.93 85.45 58.9 85.4 C 59.5 84.2 60.6 83.7 61.9 83.7 C 61.95 83.66 62.7 83.7 62.7 83.7 L 62.7 86.4 Z M 70.4 95.4 C 70.4 95.4 68.59 95.38 68.6 95.4 C 66.4 95.4 65 94.7 65 91.6 C 65.04 91.6 65 86.3 65 86.3 L 62.9 86.3 L 62.9 83.8 L 65 83.8 L 65 81.2 L 67.8 80.4 L 67.8 83.8 L 70.1 83.8 L 70.1 86.3 L 67.8 86.3 C 67.8 86.3 67.83 91.73 67.8 91.7 C 67.8 92.4 68 92.9 69 92.9 C 69.01 92.9 70.4 92.9 70.4 92.9 L 70.4 95.4 Z M 74 90.4 C 74 92.3 75.4 93.2 76.9 93.2 C 78 93.2 79.1 92.8 79.4 91.7 C 79.4 91.7 82 91.7 82 91.7 C 81.5 94.3 79.2 95.6 76.8 95.6 C 74 95.6 71.3 93.7 71.3 89.6 C 71.3 85.6 73.9 83.6 76.8 83.6 C 79.7 83.6 82 85.4 82 89.3 C 82.03 89.29 82 90.4 82 90.4 C 82 90.4 73.96 90.43 74 90.4 Z M 74 88.4 C 74 88.4 79.3 88.4 79.3 88.4 C 79.3 86.9 78.2 86 76.8 86 C 75.5 86 74.3 86.7 74 88.4 Z M 94.2 87.9 C 94.21 87.91 94.2 95.4 94.2 95.4 L 91.4 95.4 C 91.4 95.4 91.41 88.16 91.4 88.2 C 91.4 86.9 90.7 86.1 89.4 86.1 C 87.8 86.1 86.8 87.2 86.8 89.1 C 86.81 89.12 86.8 95.4 86.8 95.4 L 84 95.4 L 84 83.8 L 86.8 83.8 C 86.8 83.8 86.79 85.47 86.8 85.5 C 87.4 84.4 88.4 83.6 90.3 83.6 C 93 83.6 94.2 85.1 94.2 87.9 Z M 114.8 95.4 L 112.1 95.4 L 109.7 88 L 107.4 95.4 L 104.7 95.4 L 100.8 83.8 L 103.8 83.8 L 106.1 91.5 L 108.4 83.8 L 111.1 83.8 L 113.5 91.5 L 115.8 83.8 L 118.6 83.8 L 114.8 95.4 Z M 120 82.3 L 123 82.3 L 123 79.1 L 120 79.1 L 120 82.3 Z M 120.1 83.8 L 122.9 83.8 L 122.9 95.4 L 120.1 95.4 L 120.1 83.8 Z M 132.1 86.4 C 132.1 86.4 131.4 86.37 131.4 86.4 C 129.4 86.4 128.4 87.4 128.4 89.7 C 128.37 89.71 128.4 95.4 128.4 95.4 L 125.6 95.4 L 125.6 83.8 L 128.4 83.8 C 128.4 83.8 128.35 85.45 128.4 85.4 C 128.9 84.2 130 83.7 131.4 83.7 C 131.37 83.66 132.1 83.7 132.1 83.7 L 132.1 86.4 Z M 143.9 95.4 L 141.2 95.4 C 141.2 95.4 141.2 93.6 141.2 93.6 C 140.6 94.9 139.2 95.6 137.6 95.6 C 134.9 95.6 132.6 93.6 132.6 89.6 C 132.6 85.6 134.9 83.6 137.6 83.6 C 139.1 83.6 140.4 84.2 141.1 85.3 C 141.14 85.32 141.1 79.4 141.1 79.4 L 143.9 79.4 L 143.9 95.4 Z M 141.2 89.6 C 141.2 87.2 139.8 86.1 138.3 86.1 C 136.8 86.1 135.4 87.2 135.4 89.6 C 135.4 91.9 136.8 93.1 138.3 93.1 C 139.8 93.1 141.2 91.9 141.2 89.6 Z M 145.9 92.1 L 149.1 92.1 L 149.1 95.4 L 145.9 95.4 L 145.9 92.1 Z M 171.3 95.4 L 168.4 95.4 L 165.2 84.1 L 161.9 95.4 L 159 95.4 L 154.9 79.6 L 158 79.6 L 160.5 90.6 L 163.8 79.6 L 166.7 79.6 L 169.9 90.7 L 172.5 79.6 L 175.5 79.6 L 171.3 95.4 Z M 178.1 90.4 C 178.1 92.3 179.5 93.2 181 93.2 C 182.1 93.2 183.2 92.8 183.5 91.7 C 183.5 91.7 186.1 91.7 186.1 91.7 C 185.6 94.3 183.3 95.6 180.9 95.6 C 178.1 95.6 175.3 93.7 175.3 89.6 C 175.3 85.6 178 83.6 180.9 83.6 C 183.7 83.6 186.1 85.4 186.1 89.3 C 186.12 89.29 186.1 90.4 186.1 90.4 C 186.1 90.4 178.06 90.43 178.1 90.4 Z M 178.1 88.4 C 178.1 88.4 183.4 88.4 183.4 88.4 C 183.4 86.9 182.3 86 180.9 86 C 179.6 86 178.4 86.7 178.1 88.4 Z M 190.9 95.4 L 188.1 95.4 L 188.1 79.4 L 190.9 79.4 L 190.9 95.4 Z M 198.5 95.6 C 194.7 95.6 192.9 92.7 192.9 89.6 C 192.9 86.5 194.7 83.6 198.5 83.6 C 201.4 83.6 203.5 85.2 203.6 88 C 203.6 88 200.9 88 200.9 88 C 200.8 86.9 200 86.1 198.6 86.1 C 196.6 86.1 195.7 87.8 195.7 89.6 C 195.7 91.5 196.6 93 198.6 93 C 199.9 93 200.7 92.3 200.9 91.3 C 200.9 91.3 203.7 91.3 203.7 91.3 C 203.3 94.1 201.3 95.6 198.5 95.6 Z M 215.9 87.9 C 215.9 87.91 215.9 95.4 215.9 95.4 L 213.1 95.4 C 213.1 95.4 213.11 88.16 213.1 88.2 C 213.1 86.9 212.4 86.1 211.1 86.1 C 209.5 86.1 208.5 87.2 208.5 89.1 C 208.51 89.12 208.5 95.4 208.5 95.4 L 205.7 95.4 L 205.7 79.4 L 208.5 79.4 C 208.5 79.4 208.51 85.43 208.5 85.4 C 209.2 84.3 210.2 83.6 212 83.6 C 214.7 83.6 215.9 85.1 215.9 87.9 Z M 220.5 90.4 C 220.6 92.3 221.9 93.2 223.5 93.2 C 224.6 93.2 225.6 92.8 226 91.7 C 226 91.7 228.5 91.7 228.5 91.7 C 228 94.3 225.7 95.6 223.4 95.6 C 220.6 95.6 217.8 93.7 217.8 89.6 C 217.8 85.6 220.4 83.6 223.4 83.6 C 226.2 83.6 228.6 85.4 228.6 89.3 C 228.56 89.29 228.6 90.4 228.6 90.4 C 228.6 90.4 220.5 90.43 220.5 90.4 Z M 220.6 88.4 C 220.6 88.4 225.8 88.4 225.8 88.4 C 225.8 86.9 224.8 86 223.3 86 C 222.1 86 220.8 86.7 220.6 88.4 Z " stroke="none" fill="#000"/>  </g>  <g id="Polygon10518">    <path d="M 12 70.2 L 9.3 70.2 C 9.3 70.2 9.28 68.4 9.3 68.4 C 8.7 69.7 7.3 70.4 5.7 70.4 C 3 70.4 0.6 68.4 0.6 64.4 C 0.6 60.4 3 58.4 5.7 58.4 C 7.2 58.4 8.5 59 9.2 60.1 C 9.22 60.12 9.2 54.2 9.2 54.2 L 12 54.2 L 12 70.2 Z M 9.3 64.4 C 9.3 62 7.9 60.9 6.4 60.9 C 4.9 60.9 3.5 62 3.5 64.4 C 3.5 66.7 4.9 67.9 6.4 67.9 C 7.9 67.9 9.3 66.7 9.3 64.4 Z M 16.7 65.2 C 16.8 67.1 18.1 68 19.7 68 C 20.8 68 21.8 67.6 22.2 66.5 C 22.2 66.5 24.7 66.5 24.7 66.5 C 24.2 69.1 21.9 70.4 19.6 70.4 C 16.8 70.4 14 68.5 14 64.4 C 14 60.4 16.6 58.4 19.6 58.4 C 22.4 58.4 24.8 60.2 24.8 64.1 C 24.78 64.09 24.8 65.2 24.8 65.2 C 24.8 65.2 16.72 65.23 16.7 65.2 Z M 16.8 63.2 C 16.8 63.2 22 63.2 22 63.2 C 22 61.7 21 60.8 19.6 60.8 C 18.3 60.8 17 61.5 16.8 63.2 Z M 33.3 61.2 C 33.3 61.2 32.59 61.17 32.6 61.2 C 30.6 61.2 29.6 62.2 29.6 64.5 C 29.57 64.51 29.6 70.2 29.6 70.2 L 26.8 70.2 L 26.8 58.6 L 29.5 58.6 C 29.5 58.6 29.55 60.25 29.5 60.2 C 30.1 59 31.2 58.5 32.6 58.5 C 32.57 58.46 33.3 58.5 33.3 58.5 L 33.3 61.2 Z M 52.2 54.4 C 52.2 54.4 52.23 64.15 52.2 64.2 C 52.2 68.5 49.7 70.6 45.9 70.6 C 42.1 70.6 39.5 68.5 39.5 64.2 C 39.52 64.15 39.5 54.4 39.5 54.4 L 42.4 54.4 C 42.4 54.4 42.44 64.01 42.4 64 C 42.4 66.5 43.8 67.8 46 67.8 C 48 67.8 49.3 66.7 49.3 64.3 C 49.35 64.28 49.3 54.4 49.3 54.4 L 52.2 54.4 Z M 60.8 70.6 C 57.6 70.6 54.3 68.8 54.3 64.8 C 54.3 64.8 57.3 64.8 57.3 64.8 C 57.4 67.2 59.1 68.1 60.8 68.1 C 62.3 68.1 63.7 67.3 63.7 66 C 63.7 64.4 61.9 64 60.1 63.6 C 57.8 63.1 54.9 62.3 54.9 58.9 C 54.9 55.6 57.5 54.1 60.5 54.1 C 63.5 54.1 66.3 55.6 66.3 58.8 C 66.3 58.8 63.4 58.8 63.4 58.8 C 63.3 57.2 61.9 56.6 60.4 56.6 C 58.9 56.6 57.7 57.3 57.7 58.7 C 57.7 60.2 59.2 60.6 61 61 C 63 61.5 66.6 62.1 66.6 65.8 C 66.6 68.9 63.9 70.6 60.8 70.6 Z M 74.8 62.3 L 68.4 62.3 L 68.4 64.8 L 74.8 64.8 L 74.8 62.3 Z M 90.7 62 C 90.7 66 88 70.2 82.3 70.2 C 82.3 70.18 77.5 70.2 77.5 70.2 L 77.5 54.4 C 77.5 54.4 82.68 54.43 82.7 54.4 C 88.1 54.4 90.7 58.1 90.7 62 Z M 87.8 62 C 87.8 59.5 86.2 57.2 82.8 57.2 C 82.78 57.16 80.4 57.2 80.4 57.2 L 80.4 67.4 C 80.4 67.4 82.34 67.43 82.3 67.4 C 86 67.4 87.8 64.7 87.8 62 Z M 103.5 64.4 C 103.5 68.2 101.1 70.4 97.8 70.4 C 94.6 70.4 92.2 68.2 92.2 64.4 C 92.2 60.6 94.6 58.4 97.8 58.4 C 101.1 58.4 103.5 60.6 103.5 64.4 Z M 95 64.4 C 95 66.7 96.3 67.8 97.9 67.8 C 99.5 67.8 100.6 66.6 100.6 64.4 C 100.6 62.1 99.3 61 97.8 61 C 96.1 61 95 62.2 95 64.4 Z M 108.3 70.2 L 105.5 70.2 L 105.5 54.2 L 108.3 54.2 L 108.3 70.2 Z M 113.8 70.2 L 111 70.2 L 111 54.2 L 113.8 54.2 L 113.8 70.2 Z M 125.8 62.4 C 125.79 62.39 125.8 70.2 125.8 70.2 L 123.1 70.2 C 123.1 70.2 123.06 68.5 123.1 68.5 C 122.2 70 120.8 70.4 119.6 70.4 C 117.7 70.4 115.8 69.3 115.8 66.8 C 115.8 65 116.8 63.8 119.5 63.4 C 119.5 63.4 122 63 122 63 C 122.7 62.9 123.2 62.7 123.2 62 C 123.2 61 122.3 60.6 121.2 60.6 C 119.7 60.6 119 61.3 118.9 62.3 C 118.9 62.3 116.3 62.3 116.3 62.3 C 116.5 59.6 118.7 58.4 121.3 58.4 C 124.1 58.4 125.8 59.7 125.8 62.4 Z M 123.1 65.3 C 123.1 65.3 123.1 64.7 123.1 64.7 C 122.8 64.8 122.3 65 121.7 65 C 121.7 65 120.5 65.2 120.5 65.2 C 119 65.4 118.6 66 118.6 66.7 C 118.6 67.6 119.2 68.1 120.2 68.1 C 121.7 68.1 123.1 67 123.1 65.3 Z M 134.9 61.2 C 134.9 61.2 134.13 61.17 134.1 61.2 C 132.2 61.2 131.1 62.2 131.1 64.5 C 131.1 64.51 131.1 70.2 131.1 70.2 L 128.3 70.2 L 128.3 58.6 L 131.1 58.6 C 131.1 58.6 131.08 60.25 131.1 60.2 C 131.7 59 132.7 58.5 134.1 58.5 C 134.1 58.46 134.9 58.5 134.9 58.5 L 134.9 61.2 Z M 152 70.2 L 140.6 70.2 L 140.6 67.6 C 140.6 67.6 144.41 64.47 144.4 64.5 C 147.3 62.1 148.6 60.9 148.6 59.3 C 148.6 57.9 147.5 57.1 146.1 57.1 C 144.5 57.1 143.3 58 143.2 59.9 C 143.2 59.9 140.4 59.9 140.4 59.9 C 140.4 56.3 143.1 54.4 146.2 54.4 C 149.1 54.4 151.5 56 151.5 59.1 C 151.5 61.8 149.5 63.6 146.8 65.8 C 146.79 65.81 144.6 67.6 144.6 67.6 L 152 67.6 L 152 70.2 Z M 153.3 62.5 C 153.3 57.6 155 54.4 158.8 54.4 C 162.6 54.4 164.3 57.6 164.3 62.4 C 164.3 67.3 162.6 70.4 158.8 70.4 C 155 70.4 153.3 67.3 153.3 62.5 Z M 161.5 62.5 C 161.5 59.4 160.7 56.9 158.7 56.9 C 157 56.9 156.1 58.9 156.1 62.3 C 156.1 65.8 157 68 158.8 68 C 160.7 68 161.5 65.7 161.5 62.5 Z M 177.2 70.2 L 165.8 70.2 L 165.8 67.6 C 165.8 67.6 169.61 64.47 169.6 64.5 C 172.5 62.1 173.8 60.9 173.8 59.3 C 173.8 57.9 172.7 57.1 171.3 57.1 C 169.7 57.1 168.5 58 168.4 59.9 C 168.4 59.9 165.6 59.9 165.6 59.9 C 165.6 56.3 168.3 54.4 171.4 54.4 C 174.3 54.4 176.7 56 176.7 59.1 C 176.7 61.8 174.7 63.6 172 65.8 C 171.99 65.81 169.8 67.6 169.8 67.6 L 177.2 67.6 L 177.2 70.2 Z M 189.3 67.6 L 189.3 70.2 L 179 70.2 L 179 67.6 L 182.7 67.6 C 182.7 67.6 182.74 58.36 182.7 58.4 C 181.5 59.1 180.1 59.5 179 59.6 C 179 59.6 179 56.8 179 56.8 C 180.3 56.6 181.9 56 183.2 54.7 C 183.16 54.7 185.5 54.7 185.5 54.7 L 185.5 67.6 L 189.3 67.6 Z " stroke="none" fill="#000"/>  </g>  <g id="Polygon10517">    <path d="M 10.4 45 L 0.6 45 L 0.6 42.5 L 6.8 35.8 L 0.7 35.8 L 0.7 33.4 L 10.4 33.4 L 10.4 35.8 L 4.2 42.5 L 10.4 42.5 L 10.4 45 Z M 22.8 45 L 20.1 45 C 20.1 45 20.05 43.34 20.1 43.3 C 19.4 44.4 18.3 45.1 16.7 45.1 C 14.3 45.1 12.5 43.6 12.5 40.6 C 12.54 40.59 12.5 33.4 12.5 33.4 L 15.3 33.4 C 15.3 33.4 15.33 40.38 15.3 40.4 C 15.3 42 16.1 42.6 17.3 42.6 C 18.9 42.6 20 41.7 20 39 C 19.99 39 20 33.4 20 33.4 L 22.8 33.4 L 22.8 45 Z M 41.4 37.5 C 41.37 37.51 41.4 45 41.4 45 L 38.6 45 C 38.6 45 38.58 37.76 38.6 37.8 C 38.6 36.5 37.8 35.7 36.5 35.7 C 34.9 35.7 34 36.8 34 38.7 C 33.98 38.72 34 45 34 45 L 31.2 45 L 31.2 29 L 34 29 C 34 29 33.98 35.03 34 35 C 34.6 33.9 35.6 33.2 37.5 33.2 C 40.1 33.2 41.4 34.7 41.4 37.5 Z M 46 40 C 46 41.9 47.4 42.8 49 42.8 C 50 42.8 51.1 42.4 51.4 41.3 C 51.4 41.3 54 41.3 54 41.3 C 53.5 43.9 51.2 45.2 48.8 45.2 C 46 45.2 43.3 43.3 43.3 39.2 C 43.3 35.2 45.9 33.2 48.8 33.2 C 51.7 33.2 54 35 54 38.9 C 54.03 38.89 54 40 54 40 C 54 40 45.97 40.03 46 40 Z M 46 38 C 46 38 51.3 38 51.3 38 C 51.3 36.5 50.2 35.6 48.8 35.6 C 47.5 35.6 46.3 36.3 46 38 Z M 62.6 36 C 62.6 36 61.84 35.97 61.8 36 C 59.9 36 58.8 37 58.8 39.3 C 58.82 39.31 58.8 45 58.8 45 L 56 45 L 56 33.4 L 58.8 33.4 C 58.8 33.4 58.8 35.05 58.8 35 C 59.4 33.8 60.5 33.3 61.8 33.3 C 61.82 33.26 62.6 33.3 62.6 33.3 L 62.6 36 Z M 70.5 36 C 70.5 36 69.76 35.97 69.8 36 C 67.8 36 66.7 37 66.7 39.3 C 66.74 39.31 66.7 45 66.7 45 L 63.9 45 L 63.9 33.4 L 66.7 33.4 C 66.7 33.4 66.72 35.05 66.7 35 C 67.3 33.8 68.4 33.3 69.7 33.3 C 69.74 33.26 70.5 33.3 70.5 33.3 L 70.5 36 Z M 81.1 41.4 C 81.1 44 78.8 45.2 76.2 45.2 C 73.8 45.2 71.2 44.2 71 41.3 C 71 41.3 73.8 41.3 73.8 41.3 C 74 42.4 75.1 42.9 76.4 42.9 C 77.5 42.9 78.4 42.5 78.4 41.7 C 78.4 40.9 77.8 40.8 76.2 40.5 C 74 40.1 71.4 39.7 71.4 36.9 C 71.4 34.3 73.6 33.2 76 33.2 C 78.7 33.2 80.7 34.5 80.8 37.1 C 80.8 37.1 78.1 37.1 78.1 37.1 C 78 36 77.2 35.5 76 35.5 C 74.6 35.5 74.1 36.1 74.1 36.8 C 74.1 37.7 75.1 37.9 76.5 38.1 C 78.6 38.4 81.1 38.7 81.1 41.4 Z M 87.9 45.2 C 84.1 45.2 82.3 42.3 82.3 39.2 C 82.3 36.1 84.1 33.2 87.9 33.2 C 90.7 33.2 92.9 34.8 93 37.6 C 93 37.6 90.3 37.6 90.3 37.6 C 90.1 36.5 89.3 35.7 88 35.7 C 85.9 35.7 85.1 37.4 85.1 39.2 C 85.1 41.1 86 42.6 87.9 42.6 C 89.3 42.6 90.1 41.9 90.3 40.9 C 90.3 40.9 93.1 40.9 93.1 40.9 C 92.7 43.7 90.7 45.2 87.9 45.2 Z M 105.3 37.5 C 105.27 37.51 105.3 45 105.3 45 L 102.5 45 C 102.5 45 102.48 37.76 102.5 37.8 C 102.5 36.5 101.7 35.7 100.4 35.7 C 98.8 35.7 97.9 36.8 97.9 38.7 C 97.88 38.72 97.9 45 97.9 45 L 95.1 45 L 95.1 29 L 97.9 29 C 97.9 29 97.88 35.03 97.9 35 C 98.6 33.9 99.5 33.2 101.4 33.2 C 104 33.2 105.3 34.7 105.3 37.5 Z M 109.9 40 C 109.9 41.9 111.3 42.8 112.9 42.8 C 113.9 42.8 115 42.4 115.3 41.3 C 115.3 41.3 117.9 41.3 117.9 41.3 C 117.4 43.9 115.1 45.2 112.7 45.2 C 109.9 45.2 107.2 43.3 107.2 39.2 C 107.2 35.2 109.8 33.2 112.7 33.2 C 115.6 33.2 117.9 35 117.9 38.9 C 117.93 38.89 117.9 40 117.9 40 C 117.9 40 109.87 40.03 109.9 40 Z M 109.9 38 C 109.9 38 115.2 38 115.2 38 C 115.2 36.5 114.1 35.6 112.7 35.6 C 111.4 35.6 110.2 36.3 109.9 38 Z M 130.1 37.5 C 130.11 37.51 130.1 45 130.1 45 L 127.3 45 C 127.3 45 127.32 37.76 127.3 37.8 C 127.3 36.5 126.6 35.7 125.3 35.7 C 123.7 35.7 122.7 36.8 122.7 38.7 C 122.72 38.72 122.7 45 122.7 45 L 119.9 45 L 119.9 33.4 L 122.7 33.4 C 122.7 33.4 122.7 35.07 122.7 35.1 C 123.4 34 124.3 33.2 126.2 33.2 C 128.9 33.2 130.1 34.7 130.1 37.5 Z M 134.2 44.8 C 134.23 44.79 132.8 44.8 132.8 44.8 L 132.8 41.9 L 136 41.9 C 136 41.9 136.02 44.39 136 44.4 C 136 47.4 134 48.5 132.1 48.7 C 132.1 48.7 131.8 47.2 131.8 47.2 C 133.3 47 134.2 46.1 134.2 44.8 Z M 153.3 45 L 150.5 45 C 150.5 45 150.55 43.2 150.5 43.2 C 149.9 44.5 148.6 45.2 147 45.2 C 144.3 45.2 141.9 43.2 141.9 39.2 C 141.9 35.2 144.3 33.2 147 33.2 C 148.5 33.2 149.8 33.8 150.5 34.9 C 150.48 34.92 150.5 29 150.5 29 L 153.3 29 L 153.3 45 Z M 150.6 39.2 C 150.6 36.8 149.1 35.7 147.6 35.7 C 146.1 35.7 144.7 36.8 144.7 39.2 C 144.7 41.5 146.1 42.7 147.6 42.7 C 149.1 42.7 150.6 41.5 150.6 39.2 Z M 165.3 37.2 C 165.27 37.19 165.3 45 165.3 45 L 162.5 45 C 162.5 45 162.54 43.3 162.5 43.3 C 161.6 44.8 160.2 45.2 159 45.2 C 157.2 45.2 155.3 44.1 155.3 41.6 C 155.3 39.8 156.3 38.6 159 38.2 C 159 38.2 161.5 37.8 161.5 37.8 C 162.2 37.7 162.6 37.5 162.6 36.8 C 162.6 35.8 161.8 35.4 160.7 35.4 C 159.2 35.4 158.5 36.1 158.4 37.1 C 158.4 37.1 155.7 37.1 155.7 37.1 C 156 34.4 158.2 33.2 160.8 33.2 C 163.5 33.2 165.3 34.5 165.3 37.2 Z M 162.6 40.1 C 162.6 40.1 162.6 39.5 162.6 39.5 C 162.3 39.6 161.8 39.8 161.2 39.8 C 161.2 39.8 159.9 40 159.9 40 C 158.5 40.2 158.1 40.8 158.1 41.5 C 158.1 42.4 158.7 42.9 159.7 42.9 C 161.1 42.9 162.6 41.8 162.6 40.1 Z M 177 41.4 C 177 44 174.7 45.2 172.1 45.2 C 169.7 45.2 167.1 44.2 166.9 41.3 C 166.9 41.3 169.8 41.3 169.8 41.3 C 170 42.4 171 42.9 172.3 42.9 C 173.5 42.9 174.3 42.5 174.3 41.7 C 174.3 40.9 173.8 40.8 172.2 40.5 C 169.9 40.1 167.3 39.7 167.3 36.9 C 167.3 34.3 169.5 33.2 171.9 33.2 C 174.6 33.2 176.6 34.5 176.8 37.1 C 176.8 37.1 174 37.1 174 37.1 C 173.9 36 173.1 35.5 171.9 35.5 C 170.6 35.5 170 36.1 170 36.8 C 170 37.7 171 37.9 172.4 38.1 C 174.5 38.4 177 38.7 177 41.4 Z M 188.2 41.4 C 188.2 44 185.9 45.2 183.3 45.2 C 180.9 45.2 178.3 44.2 178.1 41.3 C 178.1 41.3 180.9 41.3 180.9 41.3 C 181.1 42.4 182.1 42.9 183.4 42.9 C 184.6 42.9 185.4 42.5 185.4 41.7 C 185.4 40.9 184.9 40.8 183.3 40.5 C 181 40.1 178.5 39.7 178.5 36.9 C 178.5 34.3 180.7 33.2 183.1 33.2 C 185.8 33.2 187.8 34.5 187.9 37.1 C 187.9 37.1 185.2 37.1 185.2 37.1 C 185.1 36 184.3 35.5 183.1 35.5 C 181.7 35.5 181.2 36.1 181.2 36.8 C 181.2 37.7 182.2 37.9 183.6 38.1 C 185.7 38.4 188.2 38.7 188.2 41.4 Z " stroke="none" fill="#000"/>  </g>  <g id="Polygon10516">    <path d="M 1.6 19.8 L 1.6 4 L 12.2 4 L 12.2 6.8 L 4.5 6.8 L 4.5 10.4 L 11.8 10.4 L 11.8 13.2 L 4.5 13.2 L 4.5 17 L 12.6 17 L 12.6 19.8 L 1.6 19.8 Z M 23.8 16.2 C 23.8 18.8 21.5 20 18.9 20 C 16.5 20 13.9 19 13.7 16.1 C 13.7 16.1 16.5 16.1 16.5 16.1 C 16.7 17.2 17.8 17.7 19.1 17.7 C 20.2 17.7 21.1 17.3 21.1 16.5 C 21.1 15.7 20.5 15.6 18.9 15.3 C 16.7 14.9 14.1 14.5 14.1 11.7 C 14.1 9.1 16.3 8 18.7 8 C 21.4 8 23.4 9.3 23.6 11.9 C 23.6 11.9 20.8 11.9 20.8 11.9 C 20.7 10.8 19.9 10.3 18.7 10.3 C 17.3 10.3 16.8 10.9 16.8 11.6 C 16.8 12.5 17.8 12.7 19.2 12.9 C 21.3 13.2 23.8 13.5 23.8 16.2 Z M 39.8 16.2 C 39.8 18.8 37.5 20 34.9 20 C 32.5 20 29.9 19 29.7 16.1 C 29.7 16.1 32.5 16.1 32.5 16.1 C 32.7 17.2 33.7 17.7 35 17.7 C 36.2 17.7 37.1 17.3 37.1 16.5 C 37.1 15.7 36.5 15.6 34.9 15.3 C 32.7 14.9 30.1 14.5 30.1 11.7 C 30.1 9.1 32.3 8 34.7 8 C 37.4 8 39.4 9.3 39.5 11.9 C 39.5 11.9 36.8 11.9 36.8 11.9 C 36.7 10.8 35.9 10.3 34.7 10.3 C 33.3 10.3 32.8 10.9 32.8 11.6 C 32.8 12.5 33.8 12.7 35.2 12.9 C 37.3 13.2 39.8 13.5 39.8 16.2 Z M 46.6 20 C 42.8 20 41 17.1 41 14 C 41 10.9 42.8 8 46.6 8 C 49.4 8 51.6 9.6 51.7 12.4 C 51.7 12.4 49 12.4 49 12.4 C 48.8 11.3 48 10.5 46.7 10.5 C 44.6 10.5 43.8 12.2 43.8 14 C 43.8 15.9 44.7 17.4 46.6 17.4 C 48 17.4 48.8 16.7 49 15.7 C 49 15.7 51.8 15.7 51.8 15.7 C 51.4 18.5 49.4 20 46.6 20 Z M 64 12.3 C 63.97 12.31 64 19.8 64 19.8 L 61.2 19.8 C 61.2 19.8 61.17 12.56 61.2 12.6 C 61.2 11.3 60.4 10.5 59.1 10.5 C 57.5 10.5 56.6 11.6 56.6 13.5 C 56.57 13.52 56.6 19.8 56.6 19.8 L 53.8 19.8 L 53.8 3.8 L 56.6 3.8 C 56.6 3.8 56.57 9.83 56.6 9.8 C 57.2 8.7 58.2 8 60.1 8 C 62.7 8 64 9.5 64 12.3 Z M 68.6 14.8 C 68.6 16.7 70 17.6 71.5 17.6 C 72.6 17.6 73.7 17.2 74 16.1 C 74 16.1 76.6 16.1 76.6 16.1 C 76.1 18.7 73.8 20 71.4 20 C 68.6 20 65.9 18.1 65.9 14 C 65.9 10 68.5 8 71.4 8 C 74.3 8 76.6 9.8 76.6 13.7 C 76.63 13.69 76.6 14.8 76.6 14.8 C 76.6 14.8 68.56 14.83 68.6 14.8 Z M 68.6 12.8 C 68.6 12.8 73.9 12.8 73.9 12.8 C 73.9 11.3 72.8 10.4 71.4 10.4 C 70.1 10.4 68.9 11.1 68.6 12.8 Z M 78.5 6.7 L 81.5 6.7 L 81.5 3.5 L 78.5 3.5 L 78.5 6.7 Z M 78.6 8.2 L 81.4 8.2 L 81.4 19.8 L 78.6 19.8 L 78.6 8.2 Z M 94.3 12.3 C 94.29 12.31 94.3 19.8 94.3 19.8 L 91.5 19.8 C 91.5 19.8 91.5 12.56 91.5 12.6 C 91.5 11.3 90.8 10.5 89.5 10.5 C 87.9 10.5 86.9 11.6 86.9 13.5 C 86.9 13.52 86.9 19.8 86.9 19.8 L 84.1 19.8 L 84.1 8.2 L 86.9 8.2 C 86.9 8.2 86.88 9.87 86.9 9.9 C 87.5 8.8 88.5 8 90.4 8 C 93.1 8 94.3 9.5 94.3 12.3 Z M 102.8 19.8 C 102.8 19.8 101.01 19.78 101 19.8 C 98.8 19.8 97.5 19.1 97.5 16 C 97.46 16 97.5 10.7 97.5 10.7 L 95.3 10.7 L 95.3 8.2 L 97.5 8.2 L 97.5 5.6 L 100.3 4.8 L 100.3 8.2 L 102.6 8.2 L 102.6 10.7 L 100.3 10.7 C 100.3 10.7 100.25 16.13 100.3 16.1 C 100.3 16.8 100.4 17.3 101.4 17.3 C 101.43 17.3 102.8 17.3 102.8 17.3 L 102.8 19.8 Z M 114.7 12.8 L 113 14.5 L 113 19.8 L 110.1 19.8 L 110.1 4 L 113 4 L 113 10.7 L 119.2 4 L 123.1 4 L 116.8 10.5 L 123.3 19.8 L 119.6 19.8 L 114.7 12.8 Z M 135 14 C 135 17.8 132.6 20 129.3 20 C 126.1 20 123.6 17.8 123.6 14 C 123.6 10.2 126.1 8 129.3 8 C 132.6 8 135 10.2 135 14 Z M 126.5 14 C 126.5 16.3 127.8 17.4 129.3 17.4 C 131 17.4 132.1 16.2 132.1 14 C 132.1 11.7 130.8 10.6 129.3 10.6 C 127.6 10.6 126.5 11.8 126.5 14 Z M 147.1 12.3 C 147.15 12.31 147.1 19.8 147.1 19.8 L 144.4 19.8 C 144.4 19.8 144.35 12.56 144.4 12.6 C 144.4 11.3 143.6 10.5 142.3 10.5 C 140.7 10.5 139.8 11.6 139.8 13.5 C 139.75 13.52 139.8 19.8 139.8 19.8 L 137 19.8 L 137 8.2 L 139.7 8.2 C 139.7 8.2 139.73 9.87 139.7 9.9 C 140.4 8.8 141.3 8 143.3 8 C 145.9 8 147.1 9.5 147.1 12.3 Z M 159 16.2 C 159 18.8 156.7 20 154.1 20 C 151.7 20 149.1 19 148.9 16.1 C 148.9 16.1 151.7 16.1 151.7 16.1 C 151.9 17.2 153 17.7 154.3 17.7 C 155.4 17.7 156.3 17.3 156.3 16.5 C 156.3 15.7 155.7 15.6 154.1 15.3 C 151.9 14.9 149.3 14.5 149.3 11.7 C 149.3 9.1 151.5 8 153.9 8 C 156.6 8 158.6 9.3 158.8 11.9 C 158.8 11.9 156 11.9 156 11.9 C 155.9 10.8 155.1 10.3 153.9 10.3 C 152.5 10.3 152 10.9 152 11.6 C 152 12.5 153 12.7 154.4 12.9 C 156.5 13.2 159 13.5 159 16.2 Z M 162.9 14.8 C 163 16.7 164.3 17.6 165.9 17.6 C 167 17.6 168 17.2 168.4 16.1 C 168.4 16.1 170.9 16.1 170.9 16.1 C 170.4 18.7 168.1 20 165.8 20 C 163 20 160.2 18.1 160.2 14 C 160.2 10 162.8 8 165.8 8 C 168.6 8 171 9.8 171 13.7 C 170.96 13.69 171 14.8 171 14.8 C 171 14.8 162.9 14.83 162.9 14.8 Z M 163 12.8 C 163 12.8 168.2 12.8 168.2 12.8 C 168.2 11.3 167.2 10.4 165.7 10.4 C 164.4 10.4 163.2 11.1 163 12.8 Z M 183.1 12.3 C 183.14 12.31 183.1 19.8 183.1 19.8 L 180.3 19.8 C 180.3 19.8 180.35 12.56 180.3 12.6 C 180.3 11.3 179.6 10.5 178.3 10.5 C 176.7 10.5 175.7 11.6 175.7 13.5 C 175.75 13.52 175.7 19.8 175.7 19.8 L 173 19.8 L 173 8.2 L 175.7 8.2 C 175.7 8.2 175.73 9.87 175.7 9.9 C 176.4 8.8 177.3 8 179.3 8 C 181.9 8 183.1 9.5 183.1 12.3 Z M 195 16.2 C 195 18.8 192.7 20 190.1 20 C 187.7 20 185.1 19 184.9 16.1 C 184.9 16.1 187.7 16.1 187.7 16.1 C 187.9 17.2 189 17.7 190.3 17.7 C 191.4 17.7 192.3 17.3 192.3 16.5 C 192.3 15.7 191.7 15.6 190.1 15.3 C 187.9 14.9 185.3 14.5 185.3 11.7 C 185.3 9.1 187.5 8 189.9 8 C 192.6 8 194.6 9.3 194.8 11.9 C 194.8 11.9 192 11.9 192 11.9 C 191.9 10.8 191.1 10.3 189.9 10.3 C 188.5 10.3 188 10.9 188 11.6 C 188 12.5 189 12.7 190.4 12.9 C 192.5 13.2 195 13.5 195 16.2 Z " stroke="none" fill="#000"/>  </g></svg>