<?xml version="1.0" standalone="no"?><!DOCTYPE svg PUBLIC "-//W3C//DTD SVG 1.1//EN" "http://www.w3.org/Graphics/SVG/1.1/DTD/svg11.dtd"><svg xmlns="http://www.w3.org/2000/svg" version="1.1" width="286.3px" height="102.2px" viewBox="0 -4 286.3 102.2" style="top:-4px">  <desc>Samantha Dovey Investment Management, Ravenscroft</desc>  <defs/>  <g id="Polygon10890">    <path d="M 13.3 80.2 L 8.2 72.4 L 4 72.4 L 4 80.2 L 2.2 80.2 L 2.2 62.2 C 2.2 62.2 8.57 62.21 8.6 62.2 C 12.3 62.2 14.1 64.5 14.1 67.1 C 14.1 69.3 12.8 71.4 10.2 72.1 C 10.18 72.12 15.5 80.2 15.5 80.2 L 13.3 80.2 Z M 8.4 70.8 C 11 70.8 12.3 69 12.3 67.2 C 12.3 65.4 11.1 63.8 8.7 63.8 C 8.66 63.82 4 63.8 4 63.8 L 4 70.8 C 4 70.8 8.45 70.8 8.4 70.8 Z M 25.7 77.9 C 24.7 79.8 22.8 80.5 21.1 80.5 C 18.9 80.5 16.9 79.2 16.9 76.6 C 16.9 74.3 18.6 73.2 20.9 72.9 C 20.9 72.9 23.9 72.5 23.9 72.5 C 24.9 72.3 25.7 72 25.7 70.9 C 25.7 69.4 24.4 68.5 22.6 68.5 C 20.6 68.5 19.5 69.5 19.2 70.9 C 19.2 70.9 17.4 70.9 17.4 70.9 C 17.8 68.4 19.9 67.1 22.7 67.1 C 25.6 67.1 27.4 68.4 27.4 71.3 C 27.41 71.3 27.4 80.2 27.4 80.2 L 25.7 80.2 C 25.7 80.2 25.7 77.86 25.7 77.9 Z M 23.6 73.9 C 23.6 73.9 21.6 74.2 21.6 74.2 C 20 74.4 18.7 75 18.7 76.6 C 18.7 78.2 20 78.9 21.4 78.9 C 23.4 78.9 25.7 77.4 25.7 74.6 C 25.7 74.6 25.7 73.4 25.7 73.4 C 25.2 73.7 24.4 73.8 23.6 73.9 Z M 36.1 80.2 L 34.2 80.2 L 29.4 67.3 L 31.3 67.3 L 35.2 78.4 L 39.1 67.3 L 40.9 67.3 L 36.1 80.2 Z M 43.8 74.2 C 43.9 77.4 45.9 78.9 48.1 78.9 C 49.8 78.9 51.5 78 51.9 76.2 C 51.9 76.2 53.6 76.2 53.6 76.2 C 53 79.2 50.5 80.5 48 80.5 C 45 80.5 42.1 78.4 42.1 73.8 C 42.1 69.2 45 67.1 48.1 67.1 C 51.2 67.1 53.7 69 53.7 73.3 C 53.66 73.32 53.7 74.2 53.7 74.2 C 53.7 74.2 43.85 74.18 43.8 74.2 Z M 43.9 72.7 C 43.9 72.7 51.9 72.7 51.9 72.7 C 51.9 70.1 50.2 68.6 48 68.6 C 46 68.6 44.1 69.9 43.9 72.7 Z M 67.1 71.4 C 67.13 71.38 67.1 80.2 67.1 80.2 L 65.4 80.2 C 65.4 80.2 65.38 71.59 65.4 71.6 C 65.4 69.8 64.4 68.7 62.5 68.7 C 60.3 68.7 58.4 70.3 58.4 73.4 C 58.42 73.44 58.4 80.2 58.4 80.2 L 56.7 80.2 L 56.7 67.3 L 58.4 67.3 C 58.4 67.3 58.42 69.72 58.4 69.7 C 59.2 68.2 60.6 67.1 62.9 67.1 C 65.4 67.1 67.1 68.5 67.1 71.4 Z M 80.4 76.6 C 80.4 79.2 78 80.5 75.5 80.5 C 72.7 80.5 70.2 79.1 69.9 76.2 C 69.9 76.2 71.8 76.2 71.8 76.2 C 72 78.1 73.7 78.9 75.5 78.9 C 77.1 78.9 78.6 78.2 78.6 76.8 C 78.6 75.3 77.1 75 75.6 74.7 C 73.1 74.3 70.2 73.9 70.2 70.9 C 70.2 68.3 72.4 67.1 75 67.1 C 77.8 67.1 79.9 68.4 80.1 70.9 C 80.1 70.9 78.3 70.9 78.3 70.9 C 78.1 69.4 76.7 68.6 75 68.6 C 73.2 68.6 72 69.4 72 70.8 C 72 72.4 73.6 72.7 75.5 73 C 77.9 73.4 80.4 73.8 80.4 76.6 Z M 88.4 80.5 C 84.9 80.5 82.5 77.8 82.5 73.8 C 82.5 69.8 84.9 67.1 88.6 67.1 C 91.4 67.1 93.7 68.6 93.9 71.6 C 93.9 71.6 92.2 71.6 92.2 71.6 C 92 69.7 90.4 68.6 88.6 68.6 C 86 68.6 84.2 70.6 84.2 73.8 C 84.2 76.9 86 78.9 88.5 78.9 C 90.5 78.9 92 77.7 92.2 75.7 C 92.2 75.7 93.9 75.7 93.9 75.7 C 93.7 78.8 91.3 80.5 88.4 80.5 Z M 103.3 68.8 C 103.3 68.8 102.94 68.83 102.9 68.8 C 100.2 68.8 98.7 70.4 98.7 73.4 C 98.66 73.37 98.7 80.2 98.7 80.2 L 96.9 80.2 L 96.9 67.3 L 98.6 67.3 C 98.6 67.3 98.64 69.7 98.6 69.7 C 99.2 68 100.8 67.2 102.8 67.2 C 102.79 67.18 103.3 67.2 103.3 67.2 L 103.3 68.8 Z M 104.5 73.8 C 104.5 69.6 107.1 67.1 110.6 67.1 C 114.2 67.1 116.8 69.6 116.8 73.8 C 116.8 78 114.2 80.5 110.7 80.5 C 107.1 80.5 104.5 78 104.5 73.8 Z M 115 73.7 C 115 70.5 113 68.7 110.6 68.7 C 108.1 68.7 106.3 70.7 106.3 73.8 C 106.3 77 108.3 78.8 110.7 78.8 C 113.2 78.8 115 76.9 115 73.7 Z M 132 80.2 C 130.3 80.2 128.7 79.7 128.7 76.8 C 128.71 76.82 128.7 68.9 128.7 68.9 L 122.1 68.9 L 122.1 80.2 L 120.3 80.2 L 120.3 68.9 L 118.2 68.9 L 118.2 67.3 L 120.3 67.3 C 120.3 67.3 120.33 65.28 120.3 65.3 C 120.3 62.4 121.9 61.9 123.6 61.9 C 123.57 61.92 125.3 61.9 125.3 61.9 L 125.3 63.5 C 125.3 63.5 123.86 63.48 123.9 63.5 C 122.4 63.5 122.1 64.1 122.1 65.3 C 122.09 65.33 122.1 67.3 122.1 67.3 L 128.7 67.3 L 128.7 63.7 L 130.5 63.2 L 130.5 67.3 L 133.6 67.3 L 133.6 68.9 L 130.5 68.9 C 130.5 68.9 130.46 76.8 130.5 76.8 C 130.5 78 130.8 78.6 132.2 78.6 C 132.24 78.62 133.9 78.6 133.9 78.6 L 133.9 80.2 C 133.9 80.2 131.95 80.21 132 80.2 Z " stroke="none" fill="#000"/>  </g>  <g id="Polygon10889">    <path d="M 4.1 51.4 L 2.3 51.4 L 2.3 33.4 L 4.1 33.4 L 4.1 51.4 Z M 18.8 42.6 C 18.77 42.58 18.8 51.4 18.8 51.4 L 17 51.4 C 17 51.4 17.02 42.79 17 42.8 C 17 41 16 39.9 14.2 39.9 C 12 39.9 10.1 41.5 10.1 44.6 C 10.06 44.64 10.1 51.4 10.1 51.4 L 8.3 51.4 L 8.3 38.5 L 10.1 38.5 C 10.1 38.5 10.06 40.92 10.1 40.9 C 10.8 39.4 12.3 38.3 14.5 38.3 C 17.1 38.3 18.8 39.7 18.8 42.6 Z M 27.6 51.4 L 25.7 51.4 L 20.9 38.5 L 22.8 38.5 L 26.7 49.6 L 30.6 38.5 L 32.4 38.5 L 27.6 51.4 Z M 35.3 45.4 C 35.4 48.6 37.3 50.1 39.6 50.1 C 41.3 50.1 43 49.2 43.4 47.4 C 43.4 47.4 45 47.4 45 47.4 C 44.5 50.4 42 51.7 39.5 51.7 C 36.5 51.7 33.6 49.6 33.6 45 C 33.6 40.4 36.5 38.3 39.6 38.3 C 42.6 38.3 45.1 40.2 45.1 44.5 C 45.14 44.52 45.1 45.4 45.1 45.4 C 45.1 45.4 35.33 45.38 35.3 45.4 Z M 35.4 43.9 C 35.4 43.9 43.4 43.9 43.4 43.9 C 43.4 41.3 41.7 39.8 39.5 39.8 C 37.5 39.8 35.6 41.1 35.4 43.9 Z M 57.7 47.8 C 57.7 50.4 55.3 51.7 52.8 51.7 C 50 51.7 47.4 50.3 47.2 47.4 C 47.2 47.4 49.1 47.4 49.1 47.4 C 49.3 49.3 51 50.1 52.8 50.1 C 54.4 50.1 55.9 49.4 55.9 48 C 55.9 46.5 54.4 46.2 52.9 45.9 C 50.4 45.5 47.5 45.1 47.5 42.1 C 47.5 39.5 49.7 38.3 52.3 38.3 C 55.1 38.3 57.2 39.6 57.4 42.1 C 57.4 42.1 55.6 42.1 55.6 42.1 C 55.4 40.6 54 39.8 52.3 39.8 C 50.5 39.8 49.3 40.6 49.3 42 C 49.3 43.6 50.9 43.9 52.8 44.2 C 55.2 44.6 57.7 45 57.7 47.8 Z M 66.5 51.4 C 66.5 51.4 64.58 51.41 64.6 51.4 C 62.9 51.4 61.3 50.9 61.3 48 C 61.34 48.02 61.3 40.1 61.3 40.1 L 58.8 40.1 L 58.8 38.5 L 61.3 38.5 L 61.3 34.9 L 63.1 34.4 L 63.1 38.5 L 66.2 38.5 L 66.2 40.1 L 63.1 40.1 C 63.1 40.1 63.1 48 63.1 48 C 63.1 49.2 63.4 49.8 64.9 49.8 C 64.87 49.82 66.5 49.8 66.5 49.8 L 66.5 51.4 Z M 69 38.5 L 70.7 38.5 C 70.7 38.5 70.73 40.66 70.7 40.7 C 71.4 39 72.8 38.3 74.5 38.3 C 76.4 38.3 77.9 39.3 78.3 41 C 78.9 39.5 80.3 38.3 82.5 38.3 C 84.8 38.3 86.7 39.6 86.7 42.2 C 86.69 42.17 86.7 51.4 86.7 51.4 L 84.9 51.4 C 84.9 51.4 84.94 42.79 84.9 42.8 C 84.9 40.8 83.7 39.8 82.2 39.8 C 80.3 39.8 78.7 41.3 78.7 44 C 78.7 44.04 78.7 51.4 78.7 51.4 L 77 51.4 C 77 51.4 76.97 42.79 77 42.8 C 77 40.8 75.8 39.8 74.3 39.8 C 72.4 39.8 70.8 41.3 70.8 44 C 70.75 44.04 70.8 51.4 70.8 51.4 L 69 51.4 L 69 38.5 Z M 91.3 45.4 C 91.3 48.6 93.3 50.1 95.6 50.1 C 97.3 50.1 99 49.2 99.4 47.4 C 99.4 47.4 101 47.4 101 47.4 C 100.4 50.4 97.9 51.7 95.5 51.7 C 92.4 51.7 89.6 49.6 89.6 45 C 89.6 40.4 92.5 38.3 95.6 38.3 C 98.6 38.3 101.1 40.2 101.1 44.5 C 101.11 44.52 101.1 45.4 101.1 45.4 C 101.1 45.4 91.3 45.38 91.3 45.4 Z M 91.3 43.9 C 91.3 43.9 99.3 43.9 99.3 43.9 C 99.3 41.3 97.7 39.8 95.5 39.8 C 93.5 39.8 91.6 41.1 91.3 43.9 Z M 114.6 42.6 C 114.58 42.58 114.6 51.4 114.6 51.4 L 112.8 51.4 C 112.8 51.4 112.82 42.79 112.8 42.8 C 112.8 41 111.8 39.9 110 39.9 C 107.8 39.9 105.9 41.5 105.9 44.6 C 105.86 44.64 105.9 51.4 105.9 51.4 L 104.1 51.4 L 104.1 38.5 L 105.9 38.5 C 105.9 38.5 105.86 40.92 105.9 40.9 C 106.6 39.4 108.1 38.3 110.3 38.3 C 112.9 38.3 114.6 39.7 114.6 42.6 Z M 124.2 51.4 C 124.2 51.4 122.28 51.41 122.3 51.4 C 120.6 51.4 119 50.9 119 48 C 119.04 48.02 119 40.1 119 40.1 L 116.5 40.1 L 116.5 38.5 L 119 38.5 L 119 34.9 L 120.8 34.4 L 120.8 38.5 L 123.9 38.5 L 123.9 40.1 L 120.8 40.1 C 120.8 40.1 120.79 48 120.8 48 C 120.8 49.2 121.1 49.8 122.6 49.8 C 122.57 49.82 124.2 49.8 124.2 49.8 L 124.2 51.4 Z M 150.2 51.4 L 148.4 51.4 L 148.4 35.8 L 142.4 51.4 L 140.9 51.4 L 134.9 35.8 L 134.9 51.4 L 133.2 51.4 L 133.2 33.4 L 135.9 33.4 L 141.7 48.6 L 147.5 33.4 L 150.2 33.4 L 150.2 51.4 Z M 162.2 49.1 C 161.2 51 159.3 51.7 157.6 51.7 C 155.4 51.7 153.5 50.4 153.5 47.8 C 153.5 45.5 155.2 44.4 157.4 44.1 C 157.4 44.1 160.4 43.7 160.4 43.7 C 161.4 43.5 162.2 43.2 162.2 42.1 C 162.2 40.6 160.9 39.7 159.1 39.7 C 157.2 39.7 156 40.7 155.7 42.1 C 155.7 42.1 154 42.1 154 42.1 C 154.3 39.6 156.4 38.3 159.2 38.3 C 162.1 38.3 163.9 39.6 163.9 42.5 C 163.92 42.5 163.9 51.4 163.9 51.4 L 162.2 51.4 C 162.2 51.4 162.21 49.06 162.2 49.1 Z M 160.1 45.1 C 160.1 45.1 158.1 45.4 158.1 45.4 C 156.5 45.6 155.3 46.2 155.3 47.8 C 155.3 49.4 156.5 50.1 157.9 50.1 C 159.9 50.1 162.2 48.6 162.2 45.8 C 162.2 45.8 162.2 44.6 162.2 44.6 C 161.7 44.9 160.9 45 160.1 45.1 Z M 178 42.6 C 177.98 42.58 178 51.4 178 51.4 L 176.2 51.4 C 176.2 51.4 176.23 42.79 176.2 42.8 C 176.2 41 175.2 39.9 173.4 39.9 C 171.2 39.9 169.3 41.5 169.3 44.6 C 169.27 44.64 169.3 51.4 169.3 51.4 L 167.5 51.4 L 167.5 38.5 L 169.3 38.5 C 169.3 38.5 169.27 40.92 169.3 40.9 C 170 39.4 171.5 38.3 173.7 38.3 C 176.3 38.3 178 39.7 178 42.6 Z M 189.6 49.1 C 188.6 51 186.7 51.7 185 51.7 C 182.8 51.7 180.9 50.4 180.9 47.8 C 180.9 45.5 182.6 44.4 184.8 44.1 C 184.8 44.1 187.8 43.7 187.8 43.7 C 188.8 43.5 189.6 43.2 189.6 42.1 C 189.6 40.6 188.3 39.7 186.5 39.7 C 184.6 39.7 183.4 40.7 183.1 42.1 C 183.1 42.1 181.4 42.1 181.4 42.1 C 181.7 39.6 183.8 38.3 186.6 38.3 C 189.6 38.3 191.3 39.6 191.3 42.5 C 191.33 42.5 191.3 51.4 191.3 51.4 L 189.6 51.4 C 189.6 51.4 189.62 49.06 189.6 49.1 Z M 187.5 45.1 C 187.5 45.1 185.5 45.4 185.5 45.4 C 183.9 45.6 182.7 46.2 182.7 47.8 C 182.7 49.4 183.9 50.1 185.3 50.1 C 187.3 50.1 189.6 48.6 189.6 45.8 C 189.6 45.8 189.6 44.6 189.6 44.6 C 189.1 44.9 188.4 45 187.5 45.1 Z M 206 50.8 C 206 54.7 203.5 56.6 200.2 56.6 C 197.3 56.6 194.8 55.2 194.4 52.2 C 194.4 52.2 196.1 52.2 196.1 52.2 C 196.4 53.8 197.6 55.2 200.2 55.2 C 202.6 55.2 204.3 54 204.3 50.9 C 204.3 50.9 204.3 48.4 204.3 48.4 C 203.4 50.3 201.5 50.9 199.8 50.9 C 196.6 50.9 194.1 48.8 194.1 44.6 C 194.1 40.4 196.8 38.3 199.8 38.3 C 201.9 38.3 203.5 39.2 204.3 40.6 C 204.29 40.61 204.3 38.5 204.3 38.5 L 206 38.5 C 206 38.5 206.01 50.83 206 50.8 Z M 204.2 44.6 C 204.2 41.3 202.3 39.8 200.1 39.8 C 197.9 39.8 195.8 41.4 195.8 44.6 C 195.8 47.8 197.8 49.3 200.1 49.3 C 202.1 49.3 204.2 48 204.2 44.6 Z M 210.6 45.4 C 210.7 48.6 212.6 50.1 214.9 50.1 C 216.6 50.1 218.3 49.2 218.7 47.4 C 218.7 47.4 220.3 47.4 220.3 47.4 C 219.8 50.4 217.3 51.7 214.8 51.7 C 211.7 51.7 208.9 49.6 208.9 45 C 208.9 40.4 211.8 38.3 214.9 38.3 C 217.9 38.3 220.4 40.2 220.4 44.5 C 220.44 44.52 220.4 45.4 220.4 45.4 C 220.4 45.4 210.62 45.38 210.6 45.4 Z M 210.7 43.9 C 210.7 43.9 218.7 43.9 218.7 43.9 C 218.7 41.3 217 39.8 214.8 39.8 C 212.8 39.8 210.9 41.1 210.7 43.9 Z M 223.4 38.5 L 225.2 38.5 C 225.2 38.5 225.17 40.66 225.2 40.7 C 225.9 39 227.3 38.3 228.9 38.3 C 230.8 38.3 232.3 39.3 232.7 41 C 233.3 39.5 234.7 38.3 236.9 38.3 C 239.3 38.3 241.1 39.6 241.1 42.2 C 241.13 42.17 241.1 51.4 241.1 51.4 L 239.4 51.4 C 239.4 51.4 239.37 42.79 239.4 42.8 C 239.4 40.8 238.1 39.8 236.6 39.8 C 234.7 39.8 233.1 41.3 233.1 44 C 233.13 44.04 233.1 51.4 233.1 51.4 L 231.4 51.4 C 231.4 51.4 231.41 42.79 231.4 42.8 C 231.4 40.8 230.2 39.8 228.7 39.8 C 226.8 39.8 225.2 41.3 225.2 44 C 225.19 44.04 225.2 51.4 225.2 51.4 L 223.4 51.4 L 223.4 38.5 Z M 245.7 45.4 C 245.8 48.6 247.7 50.1 250 50.1 C 251.7 50.1 253.4 49.2 253.8 47.4 C 253.8 47.4 255.5 47.4 255.5 47.4 C 254.9 50.4 252.4 51.7 249.9 51.7 C 246.9 51.7 244 49.6 244 45 C 244 40.4 246.9 38.3 250 38.3 C 253.1 38.3 255.5 40.2 255.5 44.5 C 255.55 44.52 255.5 45.4 255.5 45.4 C 255.5 45.4 245.73 45.38 245.7 45.4 Z M 245.8 43.9 C 245.8 43.9 253.8 43.9 253.8 43.9 C 253.8 41.3 252.1 39.8 249.9 39.8 C 247.9 39.8 246 41.1 245.8 43.9 Z M 269 42.6 C 269.01 42.58 269 51.4 269 51.4 L 267.3 51.4 C 267.3 51.4 267.26 42.79 267.3 42.8 C 267.3 41 266.3 39.9 264.4 39.9 C 262.2 39.9 260.3 41.5 260.3 44.6 C 260.3 44.64 260.3 51.4 260.3 51.4 L 258.5 51.4 L 258.5 38.5 L 260.3 38.5 C 260.3 38.5 260.3 40.92 260.3 40.9 C 261.1 39.4 262.5 38.3 264.8 38.3 C 267.3 38.3 269 39.7 269 42.6 Z M 278.6 51.4 C 278.6 51.4 276.72 51.41 276.7 51.4 C 275 51.4 273.5 50.9 273.5 48 C 273.48 48.02 273.5 40.1 273.5 40.1 L 270.9 40.1 L 270.9 38.5 L 273.5 38.5 L 273.5 34.9 L 275.2 34.4 L 275.2 38.5 L 278.3 38.5 L 278.3 40.1 L 275.2 40.1 C 275.2 40.1 275.23 48 275.2 48 C 275.2 49.2 275.6 49.8 277 49.8 C 277.01 49.82 278.6 49.8 278.6 49.8 L 278.6 51.4 Z M 282.4 51.3 C 282.38 51.26 281.2 51.3 281.2 51.3 L 281.2 48.9 L 283.8 48.9 C 283.8 48.9 283.77 51.34 283.8 51.3 C 283.8 54.2 282.1 55.2 280.3 55.4 C 280.3 55.4 280.1 54.3 280.1 54.3 C 282 53.9 282.4 52.8 282.4 51.3 Z " stroke="none" fill="#000"/>  </g>  <g id="Polygon10888">    <path d="M 8.3 23.1 C 4.6 23.1 0.8 21 0.8 16.5 C 0.8 16.5 4.2 16.5 4.2 16.5 C 4.3 19.2 6.3 20.2 8.2 20.2 C 10 20.2 11.5 19.3 11.5 17.8 C 11.5 16 9.5 15.6 7.4 15.1 C 4.8 14.5 1.4 13.6 1.4 9.7 C 1.4 6 4.5 4.2 7.9 4.2 C 11.4 4.2 14.6 6 14.6 9.6 C 14.6 9.6 11.2 9.6 11.2 9.6 C 11.1 7.8 9.5 7.1 7.8 7.1 C 6.1 7.1 4.7 7.8 4.7 9.4 C 4.7 11.2 6.4 11.7 8.4 12.1 C 10.7 12.6 14.9 13.3 14.9 17.6 C 14.9 21.2 11.8 23.1 8.3 23.1 Z M 27.8 13.7 C 27.84 13.7 27.8 22.6 27.8 22.6 L 24.7 22.6 C 24.7 22.6 24.72 20.69 24.7 20.7 C 23.7 22.4 22.1 22.9 20.7 22.9 C 18.6 22.9 16.4 21.6 16.4 18.8 C 16.4 16.7 17.6 15.3 20.6 14.8 C 20.6 14.8 23.5 14.4 23.5 14.4 C 24.3 14.3 24.8 14 24.8 13.2 C 24.8 12.1 23.9 11.6 22.6 11.6 C 20.9 11.6 20.1 12.5 20 13.6 C 20 13.6 16.9 13.6 16.9 13.6 C 17.3 10.5 19.8 9.1 22.8 9.1 C 25.9 9.1 27.8 10.6 27.8 13.7 Z M 24.7 17 C 24.7 17 24.7 16.3 24.7 16.3 C 24.4 16.5 23.8 16.6 23.2 16.7 C 23.2 16.7 21.7 16.9 21.7 16.9 C 20.1 17.1 19.6 17.8 19.6 18.6 C 19.6 19.7 20.4 20.2 21.5 20.2 C 23.1 20.2 24.7 19 24.7 17 Z M 49.4 13.7 C 49.42 13.68 49.4 22.6 49.4 22.6 L 46.2 22.6 C 46.2 22.6 46.22 14.3 46.2 14.3 C 46.2 12.7 45.5 12 44.2 12 C 42.6 12 41.7 12.9 41.7 15.2 C 41.66 15.17 41.7 22.6 41.7 22.6 L 38.5 22.6 C 38.5 22.6 38.47 14.3 38.5 14.3 C 38.5 12.7 37.7 12 36.4 12 C 34.9 12 33.9 13 33.9 15.1 C 33.91 15.14 33.9 22.6 33.9 22.6 L 30.7 22.6 L 30.7 9.4 L 33.9 9.4 C 33.9 9.4 33.86 11.3 33.9 11.3 C 34.3 10.2 35.3 9.1 37.3 9.1 C 39 9.1 40.3 9.9 40.9 11.3 C 41.4 10.4 42.4 9.1 44.8 9.1 C 47.6 9.1 49.4 10.8 49.4 13.7 Z M 63 13.7 C 63 13.7 63 22.6 63 22.6 L 59.9 22.6 C 59.9 22.6 59.88 20.69 59.9 20.7 C 58.8 22.4 57.3 22.9 55.9 22.9 C 53.8 22.9 51.6 21.6 51.6 18.8 C 51.6 16.7 52.8 15.3 55.8 14.8 C 55.8 14.8 58.7 14.4 58.7 14.4 C 59.4 14.3 60 14 60 13.2 C 60 12.1 59 11.6 57.8 11.6 C 56.1 11.6 55.3 12.5 55.2 13.6 C 55.2 13.6 52.1 13.6 52.1 13.6 C 52.4 10.5 54.9 9.1 57.9 9.1 C 61 9.1 63 10.6 63 13.7 Z M 59.9 17 C 59.9 17 59.9 16.3 59.9 16.3 C 59.6 16.5 59 16.6 58.3 16.7 C 58.3 16.7 56.9 16.9 56.9 16.9 C 55.3 17.1 54.8 17.8 54.8 18.6 C 54.8 19.7 55.5 20.2 56.6 20.2 C 58.3 20.2 59.9 19 59.9 17 Z M 77.5 14.1 C 77.52 14.06 77.5 22.6 77.5 22.6 L 74.3 22.6 C 74.3 22.6 74.33 14.35 74.3 14.4 C 74.3 12.9 73.5 12 72 12 C 70.2 12 69.1 13.3 69.1 15.5 C 69.07 15.46 69.1 22.6 69.1 22.6 L 65.9 22.6 L 65.9 9.4 L 69 9.4 C 69 9.4 69.05 11.28 69 11.3 C 69.8 10.1 70.9 9.1 73.1 9.1 C 76.1 9.1 77.5 10.9 77.5 14.1 Z M 87.3 22.6 C 87.3 22.6 85.2 22.61 85.2 22.6 C 82.7 22.6 81.1 21.8 81.1 18.3 C 81.14 18.29 81.1 12.2 81.1 12.2 L 78.7 12.2 L 78.7 9.4 L 81.1 9.4 L 81.1 6.4 L 84.3 5.5 L 84.3 9.4 L 87 9.4 L 87 12.2 L 84.3 12.2 C 84.3 12.2 84.33 18.43 84.3 18.4 C 84.3 19.2 84.6 19.8 85.7 19.8 C 85.68 19.78 87.3 19.8 87.3 19.8 L 87.3 22.6 Z M 100.7 14.1 C 100.73 14.06 100.7 22.6 100.7 22.6 L 97.5 22.6 C 97.5 22.6 97.53 14.35 97.5 14.4 C 97.5 12.9 96.7 12 95.2 12 C 93.4 12 92.3 13.3 92.3 15.5 C 92.28 15.46 92.3 22.6 92.3 22.6 L 89.1 22.6 L 89.1 4.3 L 92.3 4.3 C 92.3 4.3 92.28 11.23 92.3 11.2 C 93 10 94.2 9.1 96.3 9.1 C 99.3 9.1 100.7 10.9 100.7 14.1 Z M 114.3 13.7 C 114.31 13.7 114.3 22.6 114.3 22.6 L 111.2 22.6 C 111.2 22.6 111.19 20.69 111.2 20.7 C 110.2 22.4 108.6 22.9 107.2 22.9 C 105.1 22.9 102.9 21.6 102.9 18.8 C 102.9 16.7 104.1 15.3 107.1 14.8 C 107.1 14.8 110 14.4 110 14.4 C 110.8 14.3 111.3 14 111.3 13.2 C 111.3 12.1 110.4 11.6 109.1 11.6 C 107.4 11.6 106.6 12.5 106.5 13.6 C 106.5 13.6 103.4 13.6 103.4 13.6 C 103.8 10.5 106.2 9.1 109.2 9.1 C 112.3 9.1 114.3 10.6 114.3 13.7 Z M 111.2 17 C 111.2 17 111.2 16.3 111.2 16.3 C 110.9 16.5 110.3 16.6 109.7 16.7 C 109.7 16.7 108.2 16.9 108.2 16.9 C 106.6 17.1 106.1 17.8 106.1 18.6 C 106.1 19.7 106.8 20.2 107.9 20.2 C 109.6 20.2 111.2 19 111.2 17 Z M 138.6 13.2 C 138.6 17.8 135.4 22.6 129 22.6 C 128.95 22.61 123.4 22.6 123.4 22.6 L 123.4 4.6 C 123.4 4.6 129.38 4.61 129.4 4.6 C 135.5 4.6 138.6 8.8 138.6 13.2 Z M 135.2 13.2 C 135.2 10.4 133.4 7.7 129.5 7.7 C 129.5 7.73 126.8 7.7 126.8 7.7 L 126.8 19.5 C 126.8 19.5 129 19.46 129 19.5 C 133.2 19.5 135.2 16.3 135.2 13.2 Z M 153.2 16 C 153.2 20.3 150.4 22.9 146.7 22.9 C 143 22.9 140.2 20.3 140.2 16 C 140.2 11.7 143 9.1 146.7 9.1 C 150.4 9.1 153.2 11.7 153.2 16 Z M 143.5 16 C 143.5 18.7 145 19.9 146.7 19.9 C 148.6 19.9 149.9 18.5 149.9 16 C 149.9 13.3 148.4 12.1 146.7 12.1 C 144.8 12.1 143.5 13.5 143.5 16 Z M 161.9 22.6 L 158.5 22.6 L 153.6 9.4 L 157 9.4 L 160.3 18.8 L 163.5 9.4 L 166.8 9.4 L 161.9 22.6 Z M 170.4 16.9 C 170.5 19.1 172 20.1 173.8 20.1 C 175.1 20.1 176.3 19.6 176.7 18.4 C 176.7 18.4 179.6 18.4 179.6 18.4 C 179 21.3 176.4 22.9 173.7 22.9 C 170.5 22.9 167.3 20.7 167.3 16 C 167.3 11.5 170.3 9.1 173.7 9.1 C 176.9 9.1 179.6 11.3 179.6 15.6 C 179.64 15.65 179.6 16.9 179.6 16.9 C 179.6 16.9 170.42 16.94 170.4 16.9 Z M 170.5 14.6 C 170.5 14.6 176.5 14.6 176.5 14.6 C 176.5 12.9 175.3 11.9 173.7 11.9 C 172.2 11.9 170.8 12.7 170.5 14.6 Z M 193.3 9.4 C 193.3 9.4 187.51 24.6 187.5 24.6 C 186.9 26.2 185.6 26.8 183.8 26.8 C 183.77 26.83 181.8 26.8 181.8 26.8 L 181.8 24 C 181.8 24 183.21 24 183.2 24 C 184.3 24 184.8 23.6 185.1 22.7 C 185.11 22.7 185.3 22.1 185.3 22.1 L 180.4 9.4 L 183.7 9.4 L 186.9 18.1 L 190 9.4 L 193.3 9.4 Z " stroke="none" fill="#000"/>  </g></svg>