<?xml version="1.0" standalone="no"?><!DOCTYPE svg PUBLIC "-//W3C//DTD SVG 1.1//EN" "http://www.w3.org/Graphics/SVG/1.1/DTD/svg11.dtd"><svg xmlns="http://www.w3.org/2000/svg" version="1.1" width="862px" height="96.3px" viewBox="0 0 862 96.3">  <desc>Vertrauen Sie im derzeitigen Umfeld auf einen aktiven Manager mit Blick f r einmalige Wachstumschancen</desc>  <defs/>  <g id="Polygon12042">    <path d="M 27 68.5 L 22.8 68.5 L 22.8 52 L 16.7 68.5 L 12.7 68.5 L 6.5 52 L 6.5 68.5 L 2.4 68.5 L 2.4 44.5 L 8.1 44.5 L 14.7 62.2 L 21.4 44.5 L 27 44.5 L 27 68.5 Z M 45.6 56.7 C 45.63 56.67 45.6 68.5 45.6 68.5 L 41.5 68.5 C 41.5 68.5 41.47 65.98 41.5 66 C 40.1 68.2 38 68.9 36.1 68.9 C 33.3 68.9 30.4 67.3 30.4 63.5 C 30.4 60.7 32 58.8 36 58.2 C 36 58.2 39.8 57.6 39.8 57.6 C 40.9 57.5 41.6 57.1 41.6 56 C 41.6 54.5 40.4 53.9 38.7 53.9 C 36.4 53.9 35.4 55 35.2 56.5 C 35.2 56.5 31.1 56.5 31.1 56.5 C 31.6 52.4 34.8 50.6 38.8 50.6 C 43 50.6 45.6 52.5 45.6 56.7 Z M 41.5 61.1 C 41.5 61.1 41.5 60.2 41.5 60.2 C 41.1 60.4 40.3 60.6 39.4 60.7 C 39.4 60.7 37.5 61 37.5 61 C 35.4 61.2 34.7 62.1 34.7 63.3 C 34.7 64.6 35.6 65.4 37.1 65.4 C 39.3 65.4 41.5 63.7 41.5 61.1 Z M 65 57.2 C 64.99 57.15 65 68.5 65 68.5 L 60.7 68.5 C 60.7 68.5 60.74 57.54 60.7 57.5 C 60.7 55.6 59.6 54.4 57.6 54.4 C 55.2 54.4 53.7 56.1 53.7 59 C 53.73 59.01 53.7 68.5 53.7 68.5 L 49.5 68.5 L 49.5 50.9 L 53.7 50.9 C 53.7 50.9 53.7 53.44 53.7 53.4 C 54.7 51.8 56.1 50.6 59.1 50.6 C 63.1 50.6 65 52.9 65 57.2 Z M 83.1 56.7 C 83.1 56.67 83.1 68.5 83.1 68.5 L 78.9 68.5 C 78.9 68.5 78.94 65.98 78.9 66 C 77.6 68.2 75.5 68.9 73.6 68.9 C 70.8 68.9 67.9 67.3 67.9 63.5 C 67.9 60.7 69.4 58.8 73.5 58.2 C 73.5 58.2 77.3 57.6 77.3 57.6 C 78.4 57.5 79.1 57.1 79.1 56 C 79.1 54.5 77.8 53.9 76.1 53.9 C 73.9 53.9 72.8 55 72.7 56.5 C 72.7 56.5 68.6 56.5 68.6 56.5 C 69 52.4 72.3 50.6 76.3 50.6 C 80.5 50.6 83.1 52.5 83.1 56.7 Z M 79 61.1 C 79 61.1 79 60.2 79 60.2 C 78.6 60.4 77.8 60.6 76.9 60.7 C 76.9 60.7 75 61 75 61 C 72.8 61.2 72.1 62.1 72.1 63.3 C 72.1 64.6 73.1 65.4 74.6 65.4 C 76.8 65.4 79 63.7 79 61.1 Z M 102.8 67.4 C 102.8 73 99.2 75.5 94.4 75.5 C 90.1 75.5 86.6 73.5 86.1 69.1 C 86.1 69.1 90.2 69.1 90.2 69.1 C 90.7 71.3 92.4 71.9 94.4 71.9 C 97.2 71.9 98.8 70.6 98.8 67.8 C 98.8 67.8 98.8 64.9 98.8 64.9 C 98 66.7 96.2 67.9 93.5 67.9 C 89.6 67.9 85.8 65.2 85.8 59.3 C 85.8 53.3 89.6 50.6 93.5 50.6 C 96.1 50.6 97.9 51.7 98.8 53.3 C 98.75 53.34 98.8 50.9 98.8 50.9 L 102.8 50.9 C 102.8 50.9 102.85 67.36 102.8 67.4 Z M 98.6 59.2 C 98.6 55.9 96.7 54.3 94.4 54.3 C 92.1 54.3 90 55.9 90 59.2 C 90 62.6 92.1 64.2 94.4 64.2 C 96.7 64.2 98.6 62.6 98.6 59.2 Z M 109.9 61 C 110 63.9 112 65.2 114.4 65.2 C 116.1 65.2 117.7 64.5 118.2 62.9 C 118.2 62.9 122.1 62.9 122.1 62.9 C 121.3 66.8 117.8 68.9 114.2 68.9 C 110 68.9 105.7 66 105.7 59.8 C 105.7 53.7 109.7 50.6 114.2 50.6 C 118.5 50.6 122.1 53.4 122.1 59.3 C 122.14 59.26 122.1 61 122.1 61 C 122.1 61 109.85 60.99 109.9 61 Z M 110 57.9 C 110 57.9 118 57.9 118 57.9 C 118 55.6 116.4 54.2 114.2 54.2 C 112.2 54.2 110.3 55.3 110 57.9 Z M 135.2 54.8 C 135.2 54.8 134.05 54.82 134 54.8 C 131.1 54.8 129.4 56.4 129.4 59.9 C 129.44 59.9 129.4 68.5 129.4 68.5 L 125.2 68.5 L 125.2 50.9 L 129.4 50.9 C 129.4 50.9 129.41 53.41 129.4 53.4 C 130.3 51.5 131.9 50.7 134 50.7 C 134.01 50.69 135.2 50.7 135.2 50.7 L 135.2 54.8 Z M 169.9 56.6 C 169.85 56.64 169.9 68.5 169.9 68.5 L 165.6 68.5 C 165.6 68.5 165.6 57.47 165.6 57.5 C 165.6 55.4 164.6 54.4 162.8 54.4 C 160.8 54.4 159.5 55.6 159.5 58.6 C 159.52 58.62 159.5 68.5 159.5 68.5 L 155.3 68.5 C 155.3 68.5 155.26 57.47 155.3 57.5 C 155.3 55.4 154.2 54.4 152.5 54.4 C 150.5 54.4 149.2 55.7 149.2 58.6 C 149.18 58.59 149.2 68.5 149.2 68.5 L 144.9 68.5 L 144.9 50.9 L 149.1 50.9 C 149.1 50.9 149.12 53.47 149.1 53.5 C 149.7 52.1 151 50.6 153.7 50.6 C 156 50.6 157.7 51.6 158.6 53.5 C 159.2 52.2 160.5 50.6 163.7 50.6 C 167.5 50.6 169.9 52.8 169.9 56.6 Z M 173.7 48.5 L 178.2 48.5 L 178.2 43.7 L 173.7 43.7 L 173.7 48.5 Z M 173.8 50.9 L 178.1 50.9 L 178.1 68.5 L 173.8 68.5 L 173.8 50.9 Z M 191.2 68.5 C 191.2 68.5 188.45 68.54 188.4 68.5 C 185.1 68.5 183 67.5 183 62.8 C 183.04 62.78 183 54.7 183 54.7 L 179.8 54.7 L 179.8 50.9 L 183 50.9 L 183 46.9 L 187.3 45.7 L 187.3 50.9 L 190.8 50.9 L 190.8 54.7 L 187.3 54.7 C 187.3 54.7 187.29 62.98 187.3 63 C 187.3 64 187.6 64.8 189.1 64.8 C 189.09 64.77 191.2 64.8 191.2 64.8 L 191.2 68.5 Z M 212.1 68.5 C 212.09 68.54 202.3 68.5 202.3 68.5 L 202.3 44.5 C 202.3 44.5 212.51 44.54 212.5 44.5 C 216.9 44.5 219.1 47.5 219.1 50.4 C 219.1 52.4 218.1 54.5 215.7 55.6 C 218.9 56.9 220.2 59.4 220.2 61.6 C 220.2 65.1 217.3 68.5 212.1 68.5 Z M 211.3 54.2 C 213.5 54.2 214.6 52.7 214.6 51.3 C 214.6 50 213.5 48.7 211.5 48.7 C 211.45 48.7 206.7 48.7 206.7 48.7 L 206.7 54.2 C 206.7 54.2 211.29 54.18 211.3 54.2 Z M 215.6 61 C 215.6 59.5 214.4 58 212 58 C 211.97 57.98 206.7 58 206.7 58 L 206.7 64.4 C 206.7 64.4 211.68 64.35 211.7 64.4 C 214.4 64.4 215.7 62.7 215.6 61 Z M 227.6 68.5 L 223.4 68.5 L 223.4 44.2 L 227.6 44.2 L 227.6 68.5 Z M 231.6 48.5 L 236.2 48.5 L 236.2 43.7 L 231.6 43.7 L 231.6 48.5 Z M 231.8 50.9 L 236 50.9 L 236 68.5 L 231.8 68.5 L 231.8 50.9 Z M 247.6 68.9 C 241.8 68.9 239 64.5 239 59.7 C 239 55 241.8 50.6 247.6 50.6 C 251.9 50.6 255.2 53.1 255.4 57.2 C 255.4 57.2 251.2 57.2 251.2 57.2 C 251 55.6 249.8 54.5 247.7 54.5 C 244.6 54.5 243.3 57 243.3 59.7 C 243.3 62.6 244.7 65 247.7 65 C 249.7 65 251 63.8 251.3 62.3 C 251.3 62.3 255.5 62.3 255.5 62.3 C 254.9 66.6 251.9 68.9 247.6 68.9 Z M 264.8 61.7 L 262.8 63.8 L 262.8 68.5 L 258.6 68.5 L 258.6 44.2 L 262.8 44.2 L 262.8 58 L 269.1 50.9 L 274.7 50.9 L 267.7 58.5 L 274.9 68.5 L 269.7 68.5 L 264.8 61.7 Z M 291.6 47.9 C 290.1 47.9 289.8 48.7 289.8 49.7 C 289.82 49.73 289.8 50.9 289.8 50.9 L 293.1 50.9 L 293.1 54.7 L 289.8 54.7 L 289.8 68.5 L 285.6 68.5 L 285.6 54.7 L 282.9 54.7 L 282.9 50.9 L 285.6 50.9 C 285.6 50.9 285.56 49.92 285.6 49.9 C 285.6 45.2 287.7 44.2 291 44.2 C 290.97 44.16 293.5 44.2 293.5 44.2 L 293.5 47.9 C 293.5 47.9 291.61 47.94 291.6 47.9 Z M 298.2 43.9 L 301.9 43.9 L 301.9 47.7 L 298.2 47.7 L 298.2 43.9 Z M 304.8 43.9 L 308.5 43.9 L 308.5 47.7 L 304.8 47.7 L 304.8 43.9 Z M 311.1 68.5 L 306.9 68.5 C 306.9 68.5 306.91 66.05 306.9 66 C 305.9 67.7 304.3 68.7 301.8 68.7 C 298.1 68.7 295.5 66.4 295.5 61.9 C 295.45 61.86 295.5 50.9 295.5 50.9 L 299.7 50.9 C 299.7 50.9 299.71 61.54 299.7 61.5 C 299.7 63.9 300.9 65 302.7 65 C 305.1 65 306.8 63.5 306.8 59.4 C 306.81 59.42 306.8 50.9 306.8 50.9 L 311.1 50.9 L 311.1 68.5 Z M 325.2 54.8 C 325.2 54.8 324.09 54.82 324.1 54.8 C 321.1 54.8 319.5 56.4 319.5 59.9 C 319.48 59.9 319.5 68.5 319.5 68.5 L 315.2 68.5 L 315.2 50.9 L 319.5 50.9 C 319.5 50.9 319.45 53.41 319.5 53.4 C 320.3 51.5 322 50.7 324.1 50.7 C 324.06 50.69 325.2 50.7 325.2 50.7 L 325.2 54.8 Z M 337.3 61 C 337.4 63.9 339.5 65.2 341.9 65.2 C 343.5 65.2 345.1 64.5 345.7 62.9 C 345.7 62.9 349.6 62.9 349.6 62.9 C 348.8 66.8 345.3 68.9 341.7 68.9 C 337.4 68.9 333.2 66 333.2 59.8 C 333.2 53.7 337.2 50.6 341.7 50.6 C 346 50.6 349.6 53.4 349.6 59.3 C 349.63 59.26 349.6 61 349.6 61 C 349.6 61 337.34 60.99 337.3 61 Z M 337.4 57.9 C 337.4 57.9 345.5 57.9 345.5 57.9 C 345.5 55.6 343.8 54.2 341.7 54.2 C 339.7 54.2 337.8 55.3 337.4 57.9 Z M 352.5 48.5 L 357 48.5 L 357 43.7 L 352.5 43.7 L 352.5 48.5 Z M 352.6 50.9 L 356.9 50.9 L 356.9 68.5 L 352.6 68.5 L 352.6 50.9 Z M 376.5 57.2 C 376.54 57.15 376.5 68.5 376.5 68.5 L 372.3 68.5 C 372.3 68.5 372.28 57.54 372.3 57.5 C 372.3 55.6 371.2 54.4 369.2 54.4 C 366.7 54.4 365.3 56.1 365.3 59 C 365.27 59.01 365.3 68.5 365.3 68.5 L 361 68.5 L 361 50.9 L 365.2 50.9 C 365.2 50.9 365.24 53.44 365.2 53.4 C 366.2 51.8 367.7 50.6 370.6 50.6 C 374.7 50.6 376.5 52.9 376.5 57.2 Z M 405.5 56.6 C 405.47 56.64 405.5 68.5 405.5 68.5 L 401.2 68.5 C 401.2 68.5 401.21 57.47 401.2 57.5 C 401.2 55.4 400.2 54.4 398.5 54.4 C 396.4 54.4 395.1 55.6 395.1 58.6 C 395.13 58.62 395.1 68.5 395.1 68.5 L 390.9 68.5 C 390.9 68.5 390.87 57.47 390.9 57.5 C 390.9 55.4 389.8 54.4 388.1 54.4 C 386.1 54.4 384.8 55.7 384.8 58.6 C 384.79 58.59 384.8 68.5 384.8 68.5 L 380.5 68.5 L 380.5 50.9 L 384.7 50.9 C 384.7 50.9 384.73 53.47 384.7 53.5 C 385.3 52.1 386.6 50.6 389.3 50.6 C 391.6 50.6 393.3 51.6 394.2 53.5 C 394.8 52.2 396.1 50.6 399.3 50.6 C 403.1 50.6 405.5 52.8 405.5 56.6 Z M 423.6 56.7 C 423.58 56.67 423.6 68.5 423.6 68.5 L 419.4 68.5 C 419.4 68.5 419.42 65.98 419.4 66 C 418 68.2 415.9 68.9 414.1 68.9 C 411.3 68.9 408.3 67.3 408.3 63.5 C 408.3 60.7 409.9 58.8 414 58.2 C 414 58.2 417.8 57.6 417.8 57.6 C 418.8 57.5 419.6 57.1 419.6 56 C 419.6 54.5 418.3 53.9 416.6 53.9 C 414.3 53.9 413.3 55 413.1 56.5 C 413.1 56.5 409.1 56.5 409.1 56.5 C 409.5 52.4 412.8 50.6 416.8 50.6 C 421 50.6 423.6 52.5 423.6 56.7 Z M 419.5 61.1 C 419.5 61.1 419.5 60.2 419.5 60.2 C 419 60.4 418.2 60.6 417.4 60.7 C 417.4 60.7 415.5 61 415.5 61 C 413.3 61.2 412.6 62.1 412.6 63.3 C 412.6 64.6 413.6 65.4 415.1 65.4 C 417.3 65.4 419.5 63.7 419.5 61.1 Z M 431.7 68.5 L 427.4 68.5 L 427.4 44.2 L 431.7 44.2 L 431.7 68.5 Z M 435.7 48.5 L 440.2 48.5 L 440.2 43.7 L 435.7 43.7 L 435.7 48.5 Z M 435.8 50.9 L 440.1 50.9 L 440.1 68.5 L 435.8 68.5 L 435.8 50.9 Z M 460.1 67.4 C 460.1 73 456.4 75.5 451.7 75.5 C 447.4 75.5 443.8 73.5 443.3 69.1 C 443.3 69.1 447.4 69.1 447.4 69.1 C 447.9 71.3 449.7 71.9 451.7 71.9 C 454.4 71.9 456 70.6 456 67.8 C 456 67.8 456 64.9 456 64.9 C 455.2 66.7 453.5 67.9 450.8 67.9 C 446.8 67.9 443.1 65.2 443.1 59.3 C 443.1 53.3 446.8 50.6 450.8 50.6 C 453.3 50.6 455.1 51.7 456 53.3 C 455.99 53.34 456 50.9 456 50.9 L 460.1 50.9 C 460.1 50.9 460.09 67.36 460.1 67.4 Z M 455.8 59.2 C 455.8 55.9 454 54.3 451.7 54.3 C 449.3 54.3 447.3 55.9 447.3 59.2 C 447.3 62.6 449.3 64.2 451.7 64.2 C 454 64.2 455.8 62.6 455.8 59.2 Z M 467.1 61 C 467.2 63.9 469.2 65.2 471.6 65.2 C 473.3 65.2 474.9 64.5 475.4 62.9 C 475.4 62.9 479.3 62.9 479.3 62.9 C 478.6 66.8 475.1 68.9 471.4 68.9 C 467.2 68.9 463 66 463 59.8 C 463 53.7 467 50.6 471.5 50.6 C 475.8 50.6 479.4 53.4 479.4 59.3 C 479.38 59.26 479.4 61 479.4 61 C 479.4 61 467.1 60.99 467.1 61 Z M 467.2 57.9 C 467.2 57.9 475.2 57.9 475.2 57.9 C 475.2 55.6 473.6 54.2 471.4 54.2 C 469.5 54.2 467.6 55.3 467.2 57.9 Z M 513.3 68.5 L 508.9 68.5 L 503.9 51.4 L 498.9 68.5 L 494.5 68.5 L 488.2 44.5 L 492.9 44.5 L 496.9 61.3 L 501.8 44.5 L 506.2 44.5 L 511.1 61.3 L 515 44.5 L 519.6 44.5 L 513.3 68.5 Z M 534.6 56.7 C 534.65 56.67 534.6 68.5 534.6 68.5 L 530.5 68.5 C 530.5 68.5 530.49 65.98 530.5 66 C 529.1 68.2 527 68.9 525.1 68.9 C 522.3 68.9 519.4 67.3 519.4 63.5 C 519.4 60.7 521 58.8 525 58.2 C 525 58.2 528.9 57.6 528.9 57.6 C 529.9 57.5 530.6 57.1 530.6 56 C 530.6 54.5 529.4 53.9 527.7 53.9 C 525.4 53.9 524.4 55 524.2 56.5 C 524.2 56.5 520.1 56.5 520.1 56.5 C 520.6 52.4 523.9 50.6 527.9 50.6 C 532 50.6 534.6 52.5 534.6 56.7 Z M 530.5 61.1 C 530.5 61.1 530.5 60.2 530.5 60.2 C 530.1 60.4 529.3 60.6 528.4 60.7 C 528.4 60.7 526.5 61 526.5 61 C 524.4 61.2 523.7 62.1 523.7 63.3 C 523.7 64.6 524.7 65.4 526.1 65.4 C 528.3 65.4 530.5 63.7 530.5 61.1 Z M 545.9 68.9 C 540.2 68.9 537.4 64.5 537.4 59.7 C 537.4 55 540.1 50.6 545.9 50.6 C 550.3 50.6 553.6 53.1 553.7 57.2 C 553.7 57.2 549.6 57.2 549.6 57.2 C 549.3 55.6 548.1 54.5 546 54.5 C 542.9 54.5 541.7 57 541.7 59.7 C 541.7 62.6 543 65 546 65 C 548.1 65 549.3 63.8 549.6 62.3 C 549.6 62.3 553.8 62.3 553.8 62.3 C 553.3 66.6 550.2 68.9 545.9 68.9 Z M 572.4 57.2 C 572.41 57.15 572.4 68.5 572.4 68.5 L 568.2 68.5 C 568.2 68.5 568.15 57.54 568.2 57.5 C 568.2 55.6 567 54.4 565 54.4 C 562.6 54.4 561.1 56.1 561.1 59 C 561.14 59.01 561.1 68.5 561.1 68.5 L 556.9 68.5 L 556.9 44.2 L 561.1 44.2 C 561.1 44.2 561.14 53.38 561.1 53.4 C 562.2 51.7 563.7 50.6 566.5 50.6 C 570.5 50.6 572.4 52.9 572.4 57.2 Z M 590.5 63.1 C 590.5 67 587 68.9 583 68.9 C 579.4 68.9 575.4 67.4 575.1 62.9 C 575.1 62.9 579.4 62.9 579.4 62.9 C 579.7 64.7 581.3 65.4 583.3 65.4 C 585 65.4 586.3 64.8 586.3 63.5 C 586.3 62.4 585.5 62.1 583.1 61.7 C 579.6 61.1 575.7 60.5 575.7 56.2 C 575.7 52.2 579 50.6 582.7 50.6 C 586.8 50.6 589.8 52.6 590.1 56.5 C 590.1 56.5 585.9 56.5 585.9 56.5 C 585.8 54.8 584.5 54.1 582.7 54.1 C 580.6 54.1 579.8 55 579.8 56.1 C 579.8 57.4 581.4 57.7 583.5 58 C 586.7 58.5 590.5 58.9 590.5 63.1 Z M 602.4 68.5 C 602.4 68.5 599.64 68.54 599.6 68.5 C 596.3 68.5 594.2 67.5 594.2 62.8 C 594.23 62.78 594.2 54.7 594.2 54.7 L 591 54.7 L 591 50.9 L 594.2 50.9 L 594.2 46.9 L 598.5 45.7 L 598.5 50.9 L 602 50.9 L 602 54.7 L 598.5 54.7 C 598.5 54.7 598.49 62.98 598.5 63 C 598.5 64 598.8 64.8 600.3 64.8 C 600.28 64.77 602.4 64.8 602.4 64.8 L 602.4 68.5 Z M 620.3 68.5 L 616.1 68.5 C 616.1 68.5 616.12 66.05 616.1 66 C 615.1 67.7 613.5 68.7 611 68.7 C 607.4 68.7 604.7 66.4 604.7 61.9 C 604.66 61.86 604.7 50.9 604.7 50.9 L 608.9 50.9 C 608.9 50.9 608.92 61.54 608.9 61.5 C 608.9 63.9 610.1 65 611.9 65 C 614.3 65 616 63.5 616 59.4 C 616.02 59.42 616 50.9 616 50.9 L 620.3 50.9 L 620.3 68.5 Z M 649.4 56.6 C 649.37 56.64 649.4 68.5 649.4 68.5 L 645.1 68.5 C 645.1 68.5 645.11 57.47 645.1 57.5 C 645.1 55.4 644.1 54.4 642.4 54.4 C 640.3 54.4 639 55.6 639 58.6 C 639.03 58.62 639 68.5 639 68.5 L 634.8 68.5 C 634.8 68.5 634.78 57.47 634.8 57.5 C 634.8 55.4 633.7 54.4 632 54.4 C 630 54.4 628.7 55.7 628.7 58.6 C 628.7 58.59 628.7 68.5 628.7 68.5 L 624.4 68.5 L 624.4 50.9 L 628.6 50.9 C 628.6 50.9 628.63 53.47 628.6 53.5 C 629.2 52.1 630.5 50.6 633.2 50.6 C 635.5 50.6 637.2 51.6 638.1 53.5 C 638.7 52.2 640 50.6 643.2 50.6 C 647 50.6 649.4 52.8 649.4 56.6 Z M 667.5 63.1 C 667.5 67 664 68.9 660 68.9 C 656.3 68.9 652.4 67.4 652.1 62.9 C 652.1 62.9 656.4 62.9 656.4 62.9 C 656.7 64.7 658.2 65.4 660.2 65.4 C 662 65.4 663.3 64.8 663.3 63.5 C 663.3 62.4 662.5 62.1 660 61.7 C 656.6 61.1 652.6 60.5 652.6 56.2 C 652.6 52.2 656 50.6 659.6 50.6 C 663.8 50.6 666.8 52.6 667.1 56.5 C 667.1 56.5 662.9 56.5 662.9 56.5 C 662.7 54.8 661.5 54.1 659.7 54.1 C 657.6 54.1 656.8 55 656.8 56.1 C 656.8 57.4 658.3 57.7 660.5 58 C 663.6 58.5 667.5 58.9 667.5 63.1 Z M 677.8 68.9 C 672 68.9 669.2 64.5 669.2 59.7 C 669.2 55 672 50.6 677.8 50.6 C 682.1 50.6 685.4 53.1 685.6 57.2 C 685.6 57.2 681.4 57.2 681.4 57.2 C 681.2 55.6 680 54.5 677.9 54.5 C 674.8 54.5 673.5 57 673.5 59.7 C 673.5 62.6 674.9 65 677.9 65 C 679.9 65 681.2 63.8 681.5 62.3 C 681.5 62.3 685.7 62.3 685.7 62.3 C 685.1 66.6 682.1 68.9 677.8 68.9 Z M 704.3 57.2 C 704.28 57.15 704.3 68.5 704.3 68.5 L 700 68.5 C 700 68.5 700.02 57.54 700 57.5 C 700 55.6 698.9 54.4 696.9 54.4 C 694.5 54.4 693 56.1 693 59 C 693.01 59.01 693 68.5 693 68.5 L 688.8 68.5 L 688.8 44.2 L 693 44.2 C 693 44.2 693.01 53.38 693 53.4 C 694 51.7 695.5 50.6 698.4 50.6 C 702.4 50.6 704.3 52.9 704.3 57.2 Z M 722.4 56.7 C 722.39 56.67 722.4 68.5 722.4 68.5 L 718.2 68.5 C 718.2 68.5 718.23 65.98 718.2 66 C 716.9 68.2 714.7 68.9 712.9 68.9 C 710.1 68.9 707.2 67.3 707.2 63.5 C 707.2 60.7 708.7 58.8 712.8 58.2 C 712.8 58.2 716.6 57.6 716.6 57.6 C 717.7 57.5 718.4 57.1 718.4 56 C 718.4 54.5 717.1 53.9 715.4 53.9 C 713.1 53.9 712.1 55 712 56.5 C 712 56.5 707.9 56.5 707.9 56.5 C 708.3 52.4 711.6 50.6 715.6 50.6 C 719.8 50.6 722.4 52.5 722.4 56.7 Z M 718.3 61.1 C 718.3 61.1 718.3 60.2 718.3 60.2 C 717.8 60.4 717 60.6 716.2 60.7 C 716.2 60.7 714.3 61 714.3 61 C 712.1 61.2 711.4 62.1 711.4 63.3 C 711.4 64.6 712.4 65.4 713.9 65.4 C 716.1 65.4 718.3 63.7 718.3 61.1 Z M 741.7 57.2 C 741.75 57.15 741.7 68.5 741.7 68.5 L 737.5 68.5 C 737.5 68.5 737.49 57.54 737.5 57.5 C 737.5 55.6 736.4 54.4 734.4 54.4 C 732 54.4 730.5 56.1 730.5 59 C 730.49 59.01 730.5 68.5 730.5 68.5 L 726.2 68.5 L 726.2 50.9 L 730.5 50.9 C 730.5 50.9 730.45 53.44 730.5 53.4 C 731.4 51.8 732.9 50.6 735.8 50.6 C 739.9 50.6 741.7 52.9 741.7 57.2 Z M 753.2 68.9 C 747.4 68.9 744.6 64.5 744.6 59.7 C 744.6 55 747.4 50.6 753.2 50.6 C 757.5 50.6 760.8 53.1 761 57.2 C 761 57.2 756.8 57.2 756.8 57.2 C 756.6 55.6 755.4 54.5 753.3 54.5 C 750.2 54.5 748.9 57 748.9 59.7 C 748.9 62.6 750.3 65 753.3 65 C 755.3 65 756.6 63.8 756.9 62.3 C 756.9 62.3 761.1 62.3 761.1 62.3 C 760.5 66.6 757.5 68.9 753.2 68.9 Z M 767.2 61 C 767.3 63.9 769.3 65.2 771.7 65.2 C 773.4 65.2 775 64.5 775.5 62.9 C 775.5 62.9 779.4 62.9 779.4 62.9 C 778.6 66.8 775.1 68.9 771.5 68.9 C 767.3 68.9 763 66 763 59.8 C 763 53.7 767 50.6 771.5 50.6 C 775.8 50.6 779.4 53.4 779.4 59.3 C 779.45 59.26 779.4 61 779.4 61 C 779.4 61 767.16 60.99 767.2 61 Z M 767.3 57.9 C 767.3 57.9 775.3 57.9 775.3 57.9 C 775.3 55.6 773.7 54.2 771.5 54.2 C 769.5 54.2 767.6 55.3 767.3 57.9 Z M 798 57.2 C 798.01 57.15 798 68.5 798 68.5 L 793.7 68.5 C 793.7 68.5 793.75 57.54 793.7 57.5 C 793.7 55.6 792.6 54.4 790.6 54.4 C 788.2 54.4 786.7 56.1 786.7 59 C 786.74 59.01 786.7 68.5 786.7 68.5 L 782.5 68.5 L 782.5 50.9 L 786.7 50.9 C 786.7 50.9 786.71 53.44 786.7 53.4 C 787.7 51.8 789.1 50.6 792.1 50.6 C 796.1 50.6 798 52.9 798 57.2 Z M 800.9 63.6 L 805.7 63.6 L 805.7 68.5 L 800.9 68.5 L 800.9 63.6 Z " stroke="none" fill="#000"/>  </g>  <g id="Polygon12041">    <path d="M 12.8 30.1 L 8.6 30.1 L 0.3 6.1 L 5.1 6.1 L 10.6 24 L 16.3 6.1 L 20.9 6.1 L 12.8 30.1 Z M 24.7 22.6 C 24.8 25.5 26.9 26.8 29.3 26.8 C 30.9 26.8 32.5 26.1 33.1 24.5 C 33.1 24.5 37 24.5 37 24.5 C 36.2 28.4 32.7 30.5 29.1 30.5 C 24.8 30.5 20.6 27.6 20.6 21.4 C 20.6 15.3 24.6 12.2 29.1 12.2 C 33.4 12.2 37 15 37 20.9 C 37.02 20.86 37 22.6 37 22.6 C 37 22.6 24.74 22.59 24.7 22.6 Z M 24.8 19.5 C 24.8 19.5 32.9 19.5 32.9 19.5 C 32.9 17.2 31.2 15.8 29.1 15.8 C 27.1 15.8 25.2 16.9 24.8 19.5 Z M 50 16.4 C 50 16.4 48.93 16.42 48.9 16.4 C 46 16.4 44.3 18 44.3 21.5 C 44.32 21.5 44.3 30.1 44.3 30.1 L 40.1 30.1 L 40.1 12.5 L 44.3 12.5 C 44.3 12.5 44.29 15.01 44.3 15 C 45.2 13.1 46.8 12.3 48.9 12.3 C 48.9 12.29 50 12.3 50 12.3 L 50 16.4 Z M 61.8 30.1 C 61.8 30.1 59.01 30.14 59 30.1 C 55.7 30.1 53.6 29.1 53.6 24.4 C 53.6 24.38 53.6 16.3 53.6 16.3 L 50.4 16.3 L 50.4 12.5 L 53.6 12.5 L 53.6 8.5 L 57.9 7.3 L 57.9 12.5 L 61.4 12.5 L 61.4 16.3 L 57.9 16.3 C 57.9 16.3 57.86 24.58 57.9 24.6 C 57.9 25.6 58.1 26.4 59.6 26.4 C 59.65 26.37 61.8 26.4 61.8 26.4 L 61.8 30.1 Z M 74.2 16.4 C 74.2 16.4 73.06 16.42 73.1 16.4 C 70.1 16.4 68.4 18 68.4 21.5 C 68.45 21.5 68.4 30.1 68.4 30.1 L 64.2 30.1 L 64.2 12.5 L 68.4 12.5 C 68.4 12.5 68.42 15.01 68.4 15 C 69.3 13.1 70.9 12.3 73 12.3 C 73.02 12.29 74.2 12.3 74.2 12.3 L 74.2 16.4 Z M 90.4 18.3 C 90.37 18.27 90.4 30.1 90.4 30.1 L 86.2 30.1 C 86.2 30.1 86.21 27.58 86.2 27.6 C 84.8 29.8 82.7 30.5 80.9 30.5 C 78 30.5 75.1 28.9 75.1 25.1 C 75.1 22.3 76.7 20.4 80.8 19.8 C 80.8 19.8 84.6 19.2 84.6 19.2 C 85.6 19.1 86.4 18.7 86.4 17.6 C 86.4 16.1 85.1 15.5 83.4 15.5 C 81.1 15.5 80.1 16.6 79.9 18.1 C 79.9 18.1 75.8 18.1 75.8 18.1 C 76.3 14 79.6 12.2 83.6 12.2 C 87.7 12.2 90.4 14.1 90.4 18.3 Z M 86.2 22.7 C 86.2 22.7 86.2 21.8 86.2 21.8 C 85.8 22 85 22.2 84.2 22.3 C 84.2 22.3 82.2 22.6 82.2 22.6 C 80.1 22.8 79.4 23.7 79.4 24.9 C 79.4 26.2 80.4 27 81.9 27 C 84.1 27 86.2 25.3 86.2 22.7 Z M 109.7 30.1 L 105.5 30.1 C 105.5 30.1 105.5 27.65 105.5 27.6 C 104.5 29.3 102.9 30.3 100.4 30.3 C 96.7 30.3 94 28 94 23.5 C 94.05 23.46 94 12.5 94 12.5 L 98.3 12.5 C 98.3 12.5 98.3 23.14 98.3 23.1 C 98.3 25.5 99.5 26.6 101.3 26.6 C 103.7 26.6 105.4 25.1 105.4 21 C 105.41 21.02 105.4 12.5 105.4 12.5 L 109.7 12.5 L 109.7 30.1 Z M 116.8 22.6 C 116.9 25.5 119 26.8 121.4 26.8 C 123 26.8 124.6 26.1 125.2 24.5 C 125.2 24.5 129.1 24.5 129.1 24.5 C 128.3 28.4 124.8 30.5 121.2 30.5 C 116.9 30.5 112.7 27.6 112.7 21.4 C 112.7 15.3 116.7 12.2 121.2 12.2 C 125.5 12.2 129.1 15 129.1 20.9 C 129.12 20.86 129.1 22.6 129.1 22.6 C 129.1 22.6 116.83 22.59 116.8 22.6 Z M 116.9 19.5 C 116.9 19.5 125 19.5 125 19.5 C 125 17.2 123.3 15.8 121.2 15.8 C 119.2 15.8 117.3 16.9 116.9 19.5 Z M 147.7 18.8 C 147.68 18.75 147.7 30.1 147.7 30.1 L 143.4 30.1 C 143.4 30.1 143.42 19.14 143.4 19.1 C 143.4 17.2 142.3 16 140.3 16 C 137.9 16 136.4 17.7 136.4 20.6 C 136.41 20.61 136.4 30.1 136.4 30.1 L 132.2 30.1 L 132.2 12.5 L 136.4 12.5 C 136.4 12.5 136.38 15.04 136.4 15 C 137.4 13.4 138.8 12.2 141.8 12.2 C 145.8 12.2 147.7 14.5 147.7 18.8 Z M 169.2 30.8 C 164.3 30.8 159.4 28 159.4 22 C 159.4 22 163.8 22 163.8 22 C 164 25.5 166.6 26.9 169.2 26.9 C 171.5 26.9 173.6 25.8 173.6 23.7 C 173.6 21.3 170.9 20.8 168.1 20.2 C 164.7 19.4 160.2 18.1 160.2 12.9 C 160.2 8 164.3 5.6 168.8 5.6 C 173.4 5.6 177.7 8 177.7 12.9 C 177.7 12.9 173.1 12.9 173.1 12.9 C 173 10.4 170.9 9.5 168.7 9.5 C 166.3 9.5 164.5 10.5 164.5 12.6 C 164.5 14.9 166.7 15.6 169.5 16.2 C 172.5 16.9 178 17.8 178 23.4 C 178 28.2 174 30.8 169.2 30.8 Z M 181.1 10.1 L 185.6 10.1 L 185.6 5.3 L 181.1 5.3 L 181.1 10.1 Z M 181.2 12.5 L 185.5 12.5 L 185.5 30.1 L 181.2 30.1 L 181.2 12.5 Z M 192.6 22.6 C 192.7 25.5 194.7 26.8 197.1 26.8 C 198.8 26.8 200.4 26.1 200.9 24.5 C 200.9 24.5 204.8 24.5 204.8 24.5 C 204.1 28.4 200.6 30.5 197 30.5 C 192.7 30.5 188.5 27.6 188.5 21.4 C 188.5 15.3 192.5 12.2 197 12.2 C 201.3 12.2 204.9 15 204.9 20.9 C 204.89 20.86 204.9 22.6 204.9 22.6 C 204.9 22.6 192.61 22.59 192.6 22.6 Z M 192.7 19.5 C 192.7 19.5 200.7 19.5 200.7 19.5 C 200.7 17.2 199.1 15.8 196.9 15.8 C 195 15.8 193.1 16.9 192.7 19.5 Z M 215.8 10.1 L 220.3 10.1 L 220.3 5.3 L 215.8 5.3 L 215.8 10.1 Z M 215.9 12.5 L 220.2 12.5 L 220.2 30.1 L 215.9 30.1 L 215.9 12.5 Z M 249.2 18.2 C 249.21 18.24 249.2 30.1 249.2 30.1 L 245 30.1 C 245 30.1 244.96 19.07 245 19.1 C 245 17 244 16 242.2 16 C 240.2 16 238.9 17.2 238.9 20.2 C 238.88 20.22 238.9 30.1 238.9 30.1 L 234.6 30.1 C 234.6 30.1 234.62 19.07 234.6 19.1 C 234.6 17 233.6 16 231.8 16 C 229.9 16 228.5 17.3 228.5 20.2 C 228.54 20.19 228.5 30.1 228.5 30.1 L 224.3 30.1 L 224.3 12.5 L 228.5 12.5 C 228.5 12.5 228.48 15.07 228.5 15.1 C 229 13.7 230.4 12.2 233.1 12.2 C 235.3 12.2 237.1 13.2 237.9 15.1 C 238.6 13.8 239.9 12.2 243.1 12.2 C 246.8 12.2 249.2 14.4 249.2 18.2 Z M 277.4 30.1 L 273.3 30.1 C 273.3 30.1 273.28 27.42 273.3 27.4 C 272.3 29.5 270.3 30.5 267.8 30.5 C 263.7 30.5 260.1 27.5 260.1 21.3 C 260.1 15.2 263.7 12.2 267.8 12.2 C 270.1 12.2 272.1 13.1 273.2 14.8 C 273.18 14.82 273.2 5.8 273.2 5.8 L 277.4 5.8 L 277.4 30.1 Z M 273.3 21.3 C 273.3 17.7 271.1 15.9 268.8 15.9 C 266.5 15.9 264.4 17.7 264.4 21.3 C 264.4 24.9 266.5 26.6 268.8 26.6 C 271.1 26.6 273.3 24.9 273.3 21.3 Z M 284.6 22.6 C 284.7 25.5 286.7 26.8 289.1 26.8 C 290.8 26.8 292.4 26.1 292.9 24.5 C 292.9 24.5 296.8 24.5 296.8 24.5 C 296.1 28.4 292.6 30.5 289 30.5 C 284.7 30.5 280.5 27.6 280.5 21.4 C 280.5 15.3 284.5 12.2 289 12.2 C 293.3 12.2 296.9 15 296.9 20.9 C 296.89 20.86 296.9 22.6 296.9 22.6 C 296.9 22.6 284.6 22.59 284.6 22.6 Z M 284.7 19.5 C 284.7 19.5 292.7 19.5 292.7 19.5 C 292.7 17.2 291.1 15.8 288.9 15.8 C 287 15.8 285.1 16.9 284.7 19.5 Z M 309.9 16.4 C 309.9 16.4 308.8 16.42 308.8 16.4 C 305.8 16.4 304.2 18 304.2 21.5 C 304.19 21.5 304.2 30.1 304.2 30.1 L 299.9 30.1 L 299.9 12.5 L 304.2 12.5 C 304.2 12.5 304.16 15.01 304.2 15 C 305.1 13.1 306.7 12.3 308.8 12.3 C 308.76 12.29 309.9 12.3 309.9 12.3 L 309.9 16.4 Z M 325.8 30.1 L 310.9 30.1 L 310.9 26.4 L 320.3 16.2 L 311 16.2 L 311 12.5 L 325.8 12.5 L 325.8 16.2 L 316.3 26.4 L 325.8 26.4 L 325.8 30.1 Z M 331.2 22.6 C 331.3 25.5 333.4 26.8 335.8 26.8 C 337.4 26.8 339 26.1 339.5 24.5 C 339.5 24.5 343.5 24.5 343.5 24.5 C 342.7 28.4 339.2 30.5 335.6 30.5 C 331.3 30.5 327.1 27.6 327.1 21.4 C 327.1 15.3 331.1 12.2 335.6 12.2 C 339.9 12.2 343.5 15 343.5 20.9 C 343.52 20.86 343.5 22.6 343.5 22.6 C 343.5 22.6 331.23 22.59 331.2 22.6 Z M 331.3 19.5 C 331.3 19.5 339.4 19.5 339.4 19.5 C 339.4 17.2 337.7 15.8 335.5 15.8 C 333.6 15.8 331.7 16.9 331.3 19.5 Z M 346.4 10.1 L 350.9 10.1 L 350.9 5.3 L 346.4 5.3 L 346.4 10.1 Z M 346.5 12.5 L 350.8 12.5 L 350.8 30.1 L 346.5 30.1 L 346.5 12.5 Z M 363.9 30.1 C 363.9 30.1 361.15 30.14 361.1 30.1 C 357.9 30.1 355.7 29.1 355.7 24.4 C 355.74 24.38 355.7 16.3 355.7 16.3 L 352.5 16.3 L 352.5 12.5 L 355.7 12.5 L 355.7 8.5 L 360 7.3 L 360 12.5 L 363.5 12.5 L 363.5 16.3 L 360 16.3 C 360 16.3 360 24.58 360 24.6 C 360 25.6 360.3 26.4 361.8 26.4 C 361.79 26.37 363.9 26.4 363.9 26.4 L 363.9 30.1 Z M 366.2 10.1 L 370.7 10.1 L 370.7 5.3 L 366.2 5.3 L 366.2 10.1 Z M 366.3 12.5 L 370.6 12.5 L 370.6 30.1 L 366.3 30.1 L 366.3 12.5 Z M 390.6 29 C 390.6 34.6 386.9 37.1 382.2 37.1 C 377.9 37.1 374.3 35.1 373.8 30.7 C 373.8 30.7 377.9 30.7 377.9 30.7 C 378.4 32.9 380.2 33.5 382.2 33.5 C 384.9 33.5 386.5 32.2 386.5 29.4 C 386.5 29.4 386.5 26.5 386.5 26.5 C 385.7 28.3 384 29.5 381.3 29.5 C 377.3 29.5 373.6 26.8 373.6 20.9 C 373.6 14.9 377.3 12.2 381.3 12.2 C 383.8 12.2 385.6 13.3 386.5 14.9 C 386.49 14.94 386.5 12.5 386.5 12.5 L 390.6 12.5 C 390.6 12.5 390.59 28.96 390.6 29 Z M 386.3 20.8 C 386.3 17.5 384.5 15.9 382.2 15.9 C 379.8 15.9 377.8 17.5 377.8 20.8 C 377.8 24.2 379.8 25.8 382.2 25.8 C 384.5 25.8 386.3 24.2 386.3 20.8 Z M 397.6 22.6 C 397.7 25.5 399.7 26.8 402.1 26.8 C 403.8 26.8 405.4 26.1 405.9 24.5 C 405.9 24.5 409.8 24.5 409.8 24.5 C 409.1 28.4 405.6 30.5 401.9 30.5 C 397.7 30.5 393.5 27.6 393.5 21.4 C 393.5 15.3 397.5 12.2 402 12.2 C 406.3 12.2 409.9 15 409.9 20.9 C 409.88 20.86 409.9 22.6 409.9 22.6 C 409.9 22.6 397.59 22.59 397.6 22.6 Z M 397.7 19.5 C 397.7 19.5 405.7 19.5 405.7 19.5 C 405.7 17.2 404.1 15.8 401.9 15.8 C 400 15.8 398.1 16.9 397.7 19.5 Z M 428.4 18.8 C 428.44 18.75 428.4 30.1 428.4 30.1 L 424.2 30.1 C 424.2 30.1 424.19 19.14 424.2 19.1 C 424.2 17.2 423.1 16 421.1 16 C 418.7 16 417.2 17.7 417.2 20.6 C 417.18 20.61 417.2 30.1 417.2 30.1 L 412.9 30.1 L 412.9 12.5 L 417.1 12.5 C 417.1 12.5 417.15 15.04 417.1 15 C 418.1 13.4 419.6 12.2 422.5 12.2 C 426.6 12.2 428.4 14.5 428.4 18.8 Z M 460.1 6.1 C 460.1 6.1 460.12 20.96 460.1 21 C 460.1 27.6 456.2 30.8 450.5 30.8 C 444.8 30.8 440.8 27.6 440.8 21 C 440.76 20.96 440.8 6.1 440.8 6.1 L 445.2 6.1 C 445.2 6.1 445.21 20.74 445.2 20.7 C 445.2 24.5 447.3 26.5 450.6 26.5 C 453.7 26.5 455.7 24.8 455.7 21.2 C 455.74 21.15 455.7 6.1 455.7 6.1 L 460.1 6.1 Z M 489.2 18.2 C 489.21 18.24 489.2 30.1 489.2 30.1 L 485 30.1 C 485 30.1 484.95 19.07 485 19.1 C 485 17 484 16 482.2 16 C 480.2 16 478.9 17.2 478.9 20.2 C 478.87 20.22 478.9 30.1 478.9 30.1 L 474.6 30.1 C 474.6 30.1 474.62 19.07 474.6 19.1 C 474.6 17 473.6 16 471.8 16 C 469.8 16 468.5 17.3 468.5 20.2 C 468.54 20.19 468.5 30.1 468.5 30.1 L 464.3 30.1 L 464.3 12.5 L 468.5 12.5 C 468.5 12.5 468.47 15.07 468.5 15.1 C 469 13.7 470.4 12.2 473 12.2 C 475.3 12.2 477.1 13.2 477.9 15.1 C 478.6 13.8 479.9 12.2 483.1 12.2 C 486.8 12.2 489.2 14.4 489.2 18.2 Z M 499.8 9.5 C 498.3 9.5 498 10.3 498 11.3 C 498.01 11.33 498 12.5 498 12.5 L 501.3 12.5 L 501.3 16.3 L 498 16.3 L 498 30.1 L 493.8 30.1 L 493.8 16.3 L 491.1 16.3 L 491.1 12.5 L 493.8 12.5 C 493.8 12.5 493.75 11.52 493.8 11.5 C 493.8 6.8 495.9 5.8 499.2 5.8 C 499.16 5.76 501.7 5.8 501.7 5.8 L 501.7 9.5 C 501.7 9.5 499.8 9.54 499.8 9.5 Z M 506.5 22.6 C 506.6 25.5 508.6 26.8 511 26.8 C 512.7 26.8 514.3 26.1 514.8 24.5 C 514.8 24.5 518.7 24.5 518.7 24.5 C 517.9 28.4 514.5 30.5 510.8 30.5 C 506.6 30.5 502.4 27.6 502.4 21.4 C 502.4 15.3 506.4 12.2 510.9 12.2 C 515.2 12.2 518.8 15 518.8 20.9 C 518.78 20.86 518.8 22.6 518.8 22.6 C 518.8 22.6 506.49 22.59 506.5 22.6 Z M 506.6 19.5 C 506.6 19.5 514.6 19.5 514.6 19.5 C 514.6 17.2 513 15.8 510.8 15.8 C 508.9 15.8 507 16.9 506.6 19.5 Z M 526.1 30.1 L 521.8 30.1 L 521.8 5.8 L 526.1 5.8 L 526.1 30.1 Z M 546.5 30.1 L 542.3 30.1 C 542.3 30.1 542.3 27.42 542.3 27.4 C 541.3 29.5 539.3 30.5 536.9 30.5 C 532.7 30.5 529.1 27.5 529.1 21.3 C 529.1 15.2 532.7 12.2 536.9 12.2 C 539.2 12.2 541.1 13.1 542.2 14.8 C 542.2 14.82 542.2 5.8 542.2 5.8 L 546.5 5.8 L 546.5 30.1 Z M 542.3 21.3 C 542.3 17.7 540.2 15.9 537.8 15.9 C 535.5 15.9 533.4 17.7 533.4 21.3 C 533.4 24.9 535.5 26.6 537.8 26.6 C 540.2 26.6 542.3 24.9 542.3 21.3 Z M 573.4 18.3 C 573.37 18.27 573.4 30.1 573.4 30.1 L 569.2 30.1 C 569.2 30.1 569.21 27.58 569.2 27.6 C 567.8 29.8 565.7 30.5 563.9 30.5 C 561 30.5 558.1 28.9 558.1 25.1 C 558.1 22.3 559.7 20.4 563.8 19.8 C 563.8 19.8 567.6 19.2 567.6 19.2 C 568.6 19.1 569.4 18.7 569.4 17.6 C 569.4 16.1 568.1 15.5 566.4 15.5 C 564.1 15.5 563.1 16.6 562.9 18.1 C 562.9 18.1 558.8 18.1 558.8 18.1 C 559.3 14 562.6 12.2 566.6 12.2 C 570.7 12.2 573.4 14.1 573.4 18.3 Z M 569.2 22.7 C 569.2 22.7 569.2 21.8 569.2 21.8 C 568.8 22 568 22.2 567.2 22.3 C 567.2 22.3 565.2 22.6 565.2 22.6 C 563.1 22.8 562.4 23.7 562.4 24.9 C 562.4 26.2 563.4 27 564.9 27 C 567.1 27 569.2 25.3 569.2 22.7 Z M 592.7 30.1 L 588.5 30.1 C 588.5 30.1 588.5 27.65 588.5 27.6 C 587.5 29.3 585.9 30.3 583.4 30.3 C 579.7 30.3 577 28 577 23.5 C 577.05 23.46 577 12.5 577 12.5 L 581.3 12.5 C 581.3 12.5 581.3 23.14 581.3 23.1 C 581.3 25.5 582.5 26.6 584.3 26.6 C 586.7 26.6 588.4 25.1 588.4 21 C 588.41 21.02 588.4 12.5 588.4 12.5 L 592.7 12.5 L 592.7 30.1 Z M 603.4 9.5 C 601.9 9.5 601.6 10.3 601.6 11.3 C 601.62 11.33 601.6 12.5 601.6 12.5 L 604.9 12.5 L 604.9 16.3 L 601.6 16.3 L 601.6 30.1 L 597.4 30.1 L 597.4 16.3 L 594.7 16.3 L 594.7 12.5 L 597.4 12.5 C 597.4 12.5 597.37 11.52 597.4 11.5 C 597.4 6.8 599.5 5.8 602.8 5.8 C 602.78 5.76 605.3 5.8 605.3 5.8 L 605.3 9.5 C 605.3 9.5 603.42 9.54 603.4 9.5 Z M 617.8 22.6 C 617.9 25.5 619.9 26.8 622.3 26.8 C 624 26.8 625.6 26.1 626.1 24.5 C 626.1 24.5 630 24.5 630 24.5 C 629.2 28.4 625.8 30.5 622.1 30.5 C 617.9 30.5 613.7 27.6 613.7 21.4 C 613.7 15.3 617.7 12.2 622.2 12.2 C 626.5 12.2 630.1 15 630.1 20.9 C 630.07 20.86 630.1 22.6 630.1 22.6 C 630.1 22.6 617.78 22.59 617.8 22.6 Z M 617.9 19.5 C 617.9 19.5 625.9 19.5 625.9 19.5 C 625.9 17.2 624.3 15.8 622.1 15.8 C 620.2 15.8 618.3 16.9 617.9 19.5 Z M 633 10.1 L 637.5 10.1 L 637.5 5.3 L 633 5.3 L 633 10.1 Z M 633.1 12.5 L 637.3 12.5 L 637.3 30.1 L 633.1 30.1 L 633.1 12.5 Z M 657 18.8 C 656.98 18.75 657 30.1 657 30.1 L 652.7 30.1 C 652.7 30.1 652.73 19.14 652.7 19.1 C 652.7 17.2 651.6 16 649.6 16 C 647.2 16 645.7 17.7 645.7 20.6 C 645.72 20.61 645.7 30.1 645.7 30.1 L 641.5 30.1 L 641.5 12.5 L 645.7 12.5 C 645.7 12.5 645.69 15.04 645.7 15 C 646.7 13.4 648.1 12.2 651.1 12.2 C 655.1 12.2 657 14.5 657 18.8 Z M 664 22.6 C 664.1 25.5 666.1 26.8 668.5 26.8 C 670.2 26.8 671.8 26.1 672.3 24.5 C 672.3 24.5 676.2 24.5 676.2 24.5 C 675.4 28.4 672 30.5 668.3 30.5 C 664.1 30.5 659.9 27.6 659.9 21.4 C 659.9 15.3 663.9 12.2 668.4 12.2 C 672.7 12.2 676.3 15 676.3 20.9 C 676.28 20.86 676.3 22.6 676.3 22.6 C 676.3 22.6 663.99 22.59 664 22.6 Z M 664.1 19.5 C 664.1 19.5 672.1 19.5 672.1 19.5 C 672.1 17.2 670.5 15.8 668.3 15.8 C 666.4 15.8 664.5 16.9 664.1 19.5 Z M 694.8 18.8 C 694.84 18.75 694.8 30.1 694.8 30.1 L 690.6 30.1 C 690.6 30.1 690.58 19.14 690.6 19.1 C 690.6 17.2 689.5 16 687.5 16 C 685 16 683.6 17.7 683.6 20.6 C 683.57 20.61 683.6 30.1 683.6 30.1 L 679.3 30.1 L 679.3 12.5 L 683.5 12.5 C 683.5 12.5 683.54 15.04 683.5 15 C 684.5 13.4 686 12.2 688.9 12.2 C 693 12.2 694.8 14.5 694.8 18.8 Z M 721.6 18.3 C 721.59 18.27 721.6 30.1 721.6 30.1 L 717.4 30.1 C 717.4 30.1 717.43 27.58 717.4 27.6 C 716.1 29.8 713.9 30.5 712.1 30.5 C 709.3 30.5 706.4 28.9 706.4 25.1 C 706.4 22.3 707.9 20.4 712 19.8 C 712 19.8 715.8 19.2 715.8 19.2 C 716.9 19.1 717.6 18.7 717.6 17.6 C 717.6 16.1 716.3 15.5 714.6 15.5 C 712.3 15.5 711.3 16.6 711.2 18.1 C 711.2 18.1 707.1 18.1 707.1 18.1 C 707.5 14 710.8 12.2 714.8 12.2 C 719 12.2 721.6 14.1 721.6 18.3 Z M 717.5 22.7 C 717.5 22.7 717.5 21.8 717.5 21.8 C 717 22 716.2 22.2 715.4 22.3 C 715.4 22.3 713.5 22.6 713.5 22.6 C 711.3 22.8 710.6 23.7 710.6 24.9 C 710.6 26.2 711.6 27 713.1 27 C 715.3 27 717.5 25.3 717.5 22.7 Z M 731.7 23.3 L 729.7 25.4 L 729.7 30.1 L 725.4 30.1 L 725.4 5.8 L 729.7 5.8 L 729.7 19.6 L 736 12.5 L 741.5 12.5 L 734.6 20.1 L 741.8 30.1 L 736.6 30.1 L 731.7 23.3 Z M 753.2 30.1 C 753.2 30.1 750.45 30.14 750.5 30.1 C 747.2 30.1 745 29.1 745 24.4 C 745.04 24.38 745 16.3 745 16.3 L 741.8 16.3 L 741.8 12.5 L 745 12.5 L 745 8.5 L 749.3 7.3 L 749.3 12.5 L 752.8 12.5 L 752.8 16.3 L 749.3 16.3 C 749.3 16.3 749.3 24.58 749.3 24.6 C 749.3 25.6 749.6 26.4 751.1 26.4 C 751.09 26.37 753.2 26.4 753.2 26.4 L 753.2 30.1 Z M 755.5 10.1 L 760 10.1 L 760 5.3 L 755.5 5.3 L 755.5 10.1 Z M 755.6 12.5 L 759.9 12.5 L 759.9 30.1 L 755.6 30.1 L 755.6 12.5 Z M 772.9 30.1 L 768.4 30.1 L 761.9 12.5 L 766.4 12.5 L 770.7 25.1 L 775.1 12.5 L 779.5 12.5 L 772.9 30.1 Z M 784.3 22.6 C 784.4 25.5 786.4 26.8 788.8 26.8 C 790.5 26.8 792.1 26.1 792.6 24.5 C 792.6 24.5 796.5 24.5 796.5 24.5 C 795.7 28.4 792.2 30.5 788.6 30.5 C 784.4 30.5 780.1 27.6 780.1 21.4 C 780.1 15.3 784.1 12.2 788.7 12.2 C 792.9 12.2 796.6 15 796.6 20.9 C 796.56 20.86 796.6 22.6 796.6 22.6 C 796.6 22.6 784.28 22.59 784.3 22.6 Z M 784.4 19.5 C 784.4 19.5 792.4 19.5 792.4 19.5 C 792.4 17.2 790.8 15.8 788.6 15.8 C 786.6 15.8 784.8 16.9 784.4 19.5 Z M 815.1 18.8 C 815.12 18.75 815.1 30.1 815.1 30.1 L 810.9 30.1 C 810.9 30.1 810.87 19.14 810.9 19.1 C 810.9 17.2 809.7 16 807.8 16 C 805.3 16 803.9 17.7 803.9 20.6 C 803.86 20.61 803.9 30.1 803.9 30.1 L 799.6 30.1 L 799.6 12.5 L 803.8 12.5 C 803.8 12.5 803.83 15.04 803.8 15 C 804.8 13.4 806.3 12.2 809.2 12.2 C 813.2 12.2 815.1 14.5 815.1 18.8 Z " stroke="none" fill="#000"/>  </g></svg>