<svg xmlns="http://www.w3.org/2000/svg" width="450" height="76.24" viewBox="0 0 450 76.24"><path d="M336.27,62.61a14.16,14.16,0,0,1-14-14.29c0-.23,0-.46,0-.69a14.12,14.12,0,0,1,13.21-15c.26,0,.53,0,.79,0a14.34,14.34,0,0,1,14.49,14.21c0,.27,0,.54,0,.81a14.38,14.38,0,0,1-13.7,15l-.78,0M339,18.92a19.8,19.8,0,0,0-15.88,7.15V0H308.36V74.87h14.35v-6A19.86,19.86,0,0,0,339,76.2c15,0,26.39-12.32,26.39-28.57S354.05,19.05,339,19.05M232.16,33.4H215.71V53.31c0,6.83,3.62,9.3,8.16,9.3a21.34,21.34,0,0,0,10.26-3.55l5.4,11.46a30.41,30.41,0,0,1-18.07,5.68C206.22,76.2,201,66.68,201,52.52V4.13h14.67V20.32h16.45ZM450,74.87H435.33V0H450ZM387,42.45h24.16c-1.37-7-5.59-10.92-11.88-10.92-6.92,0-11,4.16-12.28,10.92m38.89,5.18a37.26,37.26,0,0,1-.29,4.95H386.91a13.17,13.17,0,0,0,14,11.33,21.9,21.9,0,0,0,13.78-5.24l8.6,9.53a33.07,33.07,0,0,1-23.27,8c-16.7,0-28.29-11.37-28.29-28.57s11.24-28.9,27.56-28.9c15.71,0,26.44,11.66,26.51,28.58m-169.58.32a14.48,14.48,0,1,0,14.48-14.48,14.47,14.47,0,0,0-14.48,14.48m44,0a29.5,29.5,0,0,1-59,0,29.5,29.5,0,0,1,59,0M189,40.13V74.87H174.28v-30c0-7.87-4-12.19-10.64-12.19A11.18,11.18,0,0,0,152,43.4a12.07,12.07,0,0,0,.05,1.59V74.87H137.42V20.32H151.7v6.35a18.3,18.3,0,0,1,15.88-7.87,20.28,20.28,0,0,1,21.21,19.32q0,1,0,2M85.38,47.63A14.51,14.51,0,0,0,114.3,50a13.17,13.17,0,0,0,0-2.35,14.51,14.51,0,1,0-29-1.36c0,.45,0,.9,0,1.36m44,0a28.36,28.36,0,0,1-28.1,28.6c-.49,0-1,0-1.46,0A28.29,28.29,0,0,1,70.35,49.08c0-.48,0-1,0-1.45a28.32,28.32,0,0,1,28-28.6c.46,0,.93,0,1.39,0A28.39,28.39,0,0,1,129.3,46.24c0,.46,0,.92,0,1.39M47.63,74.87H28.13L0,0H16.83L38.1,59.21,59.5,0H76Z" fill="#373a36"/></svg>