<svg xmlns="http://www.w3.org/2000/svg" width="195.86" height="33.2" viewBox="0 0 195.86 33.2"><path d="M146.36,27.24c-3.38,0-6.1-2.64-6.1-6.53s2.72-6.54,6.1-6.54a6.25,6.25,0,0,1,6.3,6.54,6.24,6.24,0,0,1-6.3,6.53m1.18-19a8.57,8.57,0,0,0-7,3.11V0h-6.37V32.58h6.25V30a8.67,8.67,0,0,0,7.1,3.24c6.54,0,11.49-5.37,11.49-12.49s-5-12.5-11.51-12.5m-46.49,6.32H93.89V23.2c0,3,1.57,4.05,3.55,4.05a9.23,9.23,0,0,0,4.46-1.55l2.35,5a13.24,13.24,0,0,1-7.86,2.5c-6.63,0-8.89-4.17-8.89-10.32V1.79h6.39V8.85h7.16Zm94.81,18h-6.39V0h6.39Zm-27.43-14.1h10.51c-.59-3-2.42-4.76-5.17-4.76-3,0-4.78,1.82-5.34,4.76m16.93,2.2a19.19,19.19,0,0,1-.12,2.16H168.41a5.73,5.73,0,0,0,6.1,4.92,9.6,9.6,0,0,0,6-2.28l3.74,4.12a14.4,14.4,0,0,1-10.11,3.6c-7.28,0-12.32-5-12.32-12.42s4.9-12.57,12-12.57c6.84,0,11.51,5.07,11.54,12.47m-73.83,0a6.31,6.31,0,1,0,12.61,0,6.31,6.31,0,1,0-12.61,0m19.15,0c0,7.15-5.46,12.49-12.86,12.49S105,27.86,105,20.71s5.44-12.5,12.81-12.5,12.86,5.34,12.86,12.5M82.24,17.47V32.58H75.85v-13c0-3.43-1.72-5.32-4.63-5.32-2.75,0-5,1.79-5,5.37v13H59.8V8.85H66v2.79a8,8,0,0,1,7-3.43,8.84,8.84,0,0,1,9.23,9.26M37.16,20.71a6.31,6.31,0,1,0,12.61,0,6.31,6.31,0,1,0-12.61,0m19.15,0c0,7.15-5.46,12.49-12.86,12.49S30.64,27.86,30.64,20.71s5.44-12.5,12.81-12.5,12.86,5.34,12.86,12.5M20.79,32.58H12.25L0,0H7.32l9.26,25.77L25.9,0h7.15Z" fill="#373a36"/></svg>