<svg xmlns="http://www.w3.org/2000/svg" xmlns:xlink="http://www.w3.org/1999/xlink" width="422.44" height="318.35" viewBox="0 0 422.44 318.35"><defs><clipPath id="a" transform="translate(0 0)"><rect width="422.44" height="318.35" fill="none"/></clipPath></defs><polygon points="0 223.33 0 311.96 10.36 311.96 10.36 242.9 409.77 242.9 409.77 311.96 422.44 311.96 422.44 223.33 0 223.33" fill="#1c1c1c"/><g clip-path="url(#a)"><path d="M14.53,223.33H140.87s-2.12-18-63.17-18-63.17,18-63.17,18" transform="translate(0 0)" fill="#c7c7c4"/><path d="M151.52,223.33H277.87s-2.13-18-63.17-18-63.18,18-63.18,18" transform="translate(0 0)" fill="#c7c7c4"/><path d="M287.1,223.33H413.45s-2.13-18-63.18-18-63.17,18-63.17,18" transform="translate(0 0)" fill="#c7c7c4"/></g><polygon points="262.11 187.06 262.11 205.38 274.84 211.51 283.5 217.63 290.12 214.35 280.95 202.34 269.75 183.01 262.11 187.06" fill="#f0ebd6"/><polygon points="182.78 34.05 167.88 51.08 182.78 64.92 182.78 84.86 197.29 79.81 211.22 59.46 218.96 39.38 214.7 7.11 182.78 34.05" fill="#f0ebd6"/><polygon points="200.49 82.35 239.94 91.67 261.71 163.06 277.87 198.76 255.19 198.76 233.29 140.56 231.19 209.05 148.14 223.33 140.87 173.92 123.06 172.37 116.69 145.7 140.87 97.87 169.82 82.35 200.49 82.35" fill="#77c5d5"/><polygon points="214.7 0 188.11 4.26 167.88 21.28 167.88 51.08 186.99 64.43 210.11 51.69 212.35 36.32 224.41 25.82 224.41 14.52 214.7 0" fill="#1c1c1c"/><polygon points="197.29 277.9 206.33 304.45 218.96 299.93 211.22 270.55 197.29 277.9" fill="#f0ebd6"/><polygon points="231.19 264.07 236.28 285.25 247.57 285.25 239.1 259.82 231.19 264.07" fill="#f0ebd6"/><polygon points="164.53 242.9 211.22 242.9 214.7 278.47 197.29 285.24 164.53 242.9" fill="#4f4a40"/><polygon points="236.97 242.9 241.93 273.95 233.36 273.95 218.4 255.37 217.43 242.9 236.97 242.9" fill="#4f4a40"/><g clip-path="url(#a)"><path d="M208.13,297.86s-6,10.71-6,14.1-1,6.39,3,6.39,7.69-2,9.59-2,10.89-1,10.89-1l5.6-7.24L219,291.67Z" transform="translate(0 0)" fill="#1c1c1c"/></g><polygon points="233.59 285.24 247.57 277.87 252.58 281.56 256.08 287.5 251.58 294.86 239.38 300.86 233.59 300.86 233.59 285.24" fill="#1c1c1c"/><polygon points="230.98 201.23 145.98 211.23 147.98 223.23 230.98 209.23 230.98 201.23" fill="#4f4a40"/></svg>