<svg xmlns="http://www.w3.org/2000/svg" width="574" height="164.63" viewBox="0 0 574 164.63"><polygon points="156.92 0 0 156.52 0 164.63 1.68 164.63 166.86 0 156.92 0" fill="none"/><polygon points="143.56 0 0 143.19 0 152.99 153.51 0 143.56 0" fill="none"/><polygon points="210.34 0 45.3 164.63 55.11 164.63 220.29 0 210.34 0" fill="none"/><polygon points="0 0 0 6.56 6.58 0 0 0" fill="none"/><polygon points="183.63 0 18.58 164.63 28.4 164.63 193.58 0 183.63 0" fill="none"/><polygon points="196.99 0 31.94 164.63 41.75 164.63 206.93 0 196.99 0" fill="none"/><polygon points="170.27 0 5.23 164.63 15.04 164.63 180.22 0 170.27 0" fill="none"/><polygon points="9.99 0 0 9.97 0 19.87 19.94 0 9.99 0" fill="none"/><polygon points="76.78 0 0 76.58 0 86.43 86.72 0 76.78 0" fill="none"/><polygon points="63.42 0 0 63.26 0 73.12 73.37 0 63.42 0" fill="none"/><polygon points="23.35 0 0 23.29 0 33.19 33.3 0 23.35 0" fill="none"/><polygon points="130.2 0 0 129.87 0 139.68 140.15 0 130.2 0" fill="none"/><polygon points="50.06 0 0 49.94 0 59.81 60.01 0 50.06 0" fill="none"/><polygon points="103.49 0 0 103.23 0 113.06 113.44 0 103.49 0" fill="none"/><polygon points="116.85 0 0 116.55 0 126.37 126.79 0 116.85 0" fill="none"/><polygon points="90.13 0 0 89.9 0 99.74 100.08 0 90.13 0" fill="none"/><polygon points="36.71 0 0 36.61 0 46.5 46.65 0 36.71 0" fill="none"/><polygon points="574 50.27 459.35 164.63 469.17 164.63 574 60.15 574 50.27" fill="none"/><polygon points="544.26 0 379.21 164.63 389.03 164.63 554.21 0 544.26 0" fill="none"/><polygon points="574 0 570.97 0 405.93 164.63 415.74 164.63 574 6.9 574 0" fill="none"/><polygon points="574 23.63 432.64 164.63 442.45 164.63 574 33.52 574 23.63" fill="none"/><polygon points="574 10.3 419.28 164.63 429.1 164.63 574 20.21 574 10.3" fill="none"/><polygon points="557.62 0 392.57 164.63 402.38 164.63 567.56 0 557.62 0" fill="none"/><polygon points="223.7 0 58.65 164.63 68.47 164.63 233.65 0 223.7 0" fill="none"/><polygon points="490.83 0 325.79 164.63 335.6 164.63 500.78 0 490.83 0" fill="none"/><polygon points="517.55 0 352.5 164.63 362.31 164.63 527.49 0 517.55 0" fill="none"/><polygon points="530.9 0 365.86 164.63 375.67 164.63 540.85 0 530.9 0" fill="none"/><polygon points="574 90.24 499.42 164.63 509.24 164.63 574 100.08 574 90.24" fill="none"/><polygon points="574 36.95 446 164.63 455.81 164.63 574 46.83 574 36.95" fill="none"/><polygon points="574 143.53 552.85 164.63 562.66 164.63 574 153.33 574 143.53" fill="none"/><polygon points="574 130.21 539.49 164.63 549.31 164.63 574 140.02 574 130.21" fill="none"/><polygon points="566.21 164.63 574 164.63 574 156.85 566.21 164.63" fill="none"/><polygon points="574 116.89 526.14 164.63 535.95 164.63 574 126.7 574 116.89" fill="none"/><polygon points="574 63.59 472.71 164.63 482.52 164.63 574 73.46 574 63.59" fill="none"/><polygon points="574 76.92 486.07 164.63 495.88 164.63 574 86.77 574 76.92" fill="none"/><polygon points="477.48 0 312.43 164.63 322.24 164.63 487.42 0 477.48 0" fill="none"/><polygon points="574 103.56 512.78 164.63 522.59 164.63 574 113.39 574 103.56" fill="none"/><polygon points="504.19 0 339.14 164.63 348.96 164.63 514.14 0 504.19 0" fill="none"/><polygon points="317.2 0 152.15 164.63 161.96 164.63 327.14 0 317.2 0" fill="none"/><polygon points="343.91 0 178.86 164.63 188.68 164.63 353.86 0 343.91 0" fill="none"/><polygon points="330.55 0 165.51 164.63 175.32 164.63 340.5 0 330.55 0" fill="none"/><polygon points="397.34 0 232.29 164.63 242.1 164.63 407.28 0 397.34 0" fill="none"/><polygon points="383.98 0 218.93 164.63 228.75 164.63 393.93 0 383.98 0" fill="none"/><polygon points="370.62 0 205.58 164.63 215.39 164.63 380.57 0 370.62 0" fill="none"/><polygon points="357.27 0 192.22 164.63 202.03 164.63 367.21 0 357.27 0" fill="none"/><polygon points="250.41 0 85.37 164.63 95.18 164.63 260.36 0 250.41 0" fill="none"/><polygon points="263.77 0 98.72 164.63 108.54 164.63 273.72 0 263.77 0" fill="none"/><polygon points="237.06 0 72.01 164.63 81.82 164.63 247 0 237.06 0" fill="none"/><polygon points="290.48 0 125.44 164.63 135.25 164.63 300.43 0 290.48 0" fill="none"/><polygon points="303.84 0 138.79 164.63 148.61 164.63 313.79 0 303.84 0" fill="none"/><polygon points="277.13 0 112.08 164.63 121.89 164.63 287.07 0 277.13 0" fill="none"/><polygon points="410.69 0 245.65 164.63 255.46 164.63 420.64 0 410.69 0" fill="none"/><polygon points="450.76 0 285.72 164.63 295.53 164.63 460.71 0 450.76 0" fill="none"/><polygon points="424.05 0 259 164.63 268.82 164.63 434 0 424.05 0" fill="none"/><polygon points="464.12 0 299.07 164.63 308.89 164.63 474.07 0 464.12 0" fill="none"/><polygon points="437.41 0 272.36 164.63 282.17 164.63 447.35 0 437.41 0" fill="none"/><polygon points="6.58 0 0 6.56 0 9.97 9.99 0 6.58 0"/><polygon points="19.94 0 0 19.87 0 23.29 23.35 0 19.94 0"/><polygon points="33.3 0 0 33.19 0 36.61 36.71 0 33.3 0"/><polygon points="46.65 0 0 46.5 0 49.94 50.06 0 46.65 0"/><polygon points="60.01 0 0 59.81 0 63.26 63.42 0 60.01 0"/><polygon points="73.37 0 0 73.12 0 76.58 76.78 0 73.37 0"/><polygon points="86.72 0 0 86.43 0 89.9 90.13 0 86.72 0"/><polygon points="100.08 0 0 99.74 0 103.23 103.49 0 100.08 0"/><polygon points="113.44 0 0 113.06 0 116.55 116.85 0 113.44 0"/><polygon points="126.79 0 0 126.37 0 129.87 130.2 0 126.79 0"/><polygon points="140.15 0 0 139.68 0 143.19 143.56 0 140.15 0"/><polygon points="153.51 0 0 152.99 0 156.52 156.92 0 153.51 0"/><polygon points="166.86 0 1.68 164.63 5.23 164.63 170.27 0 166.86 0"/><polygon points="180.22 0 15.04 164.63 18.58 164.63 183.63 0 180.22 0"/><polygon points="193.58 0 28.4 164.63 31.94 164.63 196.99 0 193.58 0"/><polygon points="206.93 0 41.75 164.63 45.3 164.63 210.34 0 206.93 0"/><polygon points="220.29 0 55.11 164.63 58.65 164.63 223.7 0 220.29 0"/><polygon points="233.65 0 68.47 164.63 72.01 164.63 237.06 0 233.65 0"/><polygon points="247 0 81.82 164.63 85.37 164.63 250.41 0 247 0"/><polygon points="260.36 0 95.18 164.63 98.72 164.63 263.77 0 260.36 0"/><polygon points="273.72 0 108.54 164.63 112.08 164.63 277.13 0 273.72 0"/><polygon points="287.07 0 121.89 164.63 125.44 164.63 290.48 0 287.07 0"/><polygon points="300.43 0 135.25 164.63 138.79 164.63 303.84 0 300.43 0"/><polygon points="313.79 0 148.61 164.63 152.15 164.63 317.2 0 313.79 0"/><polygon points="327.14 0 161.96 164.63 165.51 164.63 330.55 0 327.14 0"/><polygon points="340.5 0 175.32 164.63 178.86 164.63 343.91 0 340.5 0"/><polygon points="353.86 0 188.68 164.63 192.22 164.63 357.27 0 353.86 0"/><polygon points="367.21 0 202.03 164.63 205.58 164.63 370.62 0 367.21 0"/><polygon points="380.57 0 215.39 164.63 218.93 164.63 383.98 0 380.57 0"/><polygon points="393.93 0 228.75 164.63 232.29 164.63 397.34 0 393.93 0"/><polygon points="407.28 0 242.1 164.63 245.65 164.63 410.69 0 407.28 0"/><polygon points="420.64 0 255.46 164.63 259 164.63 424.05 0 420.64 0"/><polygon points="434 0 268.82 164.63 272.36 164.63 437.41 0 434 0"/><polygon points="447.35 0 282.17 164.63 285.72 164.63 450.76 0 447.35 0"/><polygon points="460.71 0 295.53 164.63 299.07 164.63 464.12 0 460.71 0"/><polygon points="474.07 0 308.89 164.63 312.43 164.63 477.48 0 474.07 0"/><polygon points="487.42 0 322.24 164.63 325.79 164.63 490.83 0 487.42 0"/><polygon points="500.78 0 335.6 164.63 339.14 164.63 504.19 0 500.78 0"/><polygon points="514.14 0 348.96 164.63 352.5 164.63 517.55 0 514.14 0"/><polygon points="527.49 0 362.31 164.63 365.86 164.63 530.9 0 527.49 0"/><polygon points="540.85 0 375.67 164.63 379.21 164.63 544.26 0 540.85 0"/><polygon points="554.21 0 389.03 164.63 392.57 164.63 557.62 0 554.21 0"/><polygon points="567.56 0 402.38 164.63 405.93 164.63 570.97 0 567.56 0"/><polygon points="574 6.9 415.74 164.63 419.28 164.63 574 10.3 574 6.9"/><polygon points="574 20.21 429.1 164.63 432.64 164.63 574 23.63 574 20.21"/><polygon points="574 33.52 442.45 164.63 446 164.63 574 36.95 574 33.52"/><polygon points="574 46.83 455.81 164.63 459.35 164.63 574 50.27 574 46.83"/><polygon points="574 60.15 469.17 164.63 472.71 164.63 574 63.59 574 60.15"/><polygon points="574 73.46 482.52 164.63 486.07 164.63 574 76.92 574 73.46"/><polygon points="574 86.77 495.88 164.63 499.42 164.63 574 90.24 574 86.77"/><polygon points="574 100.08 509.24 164.63 512.78 164.63 574 103.56 574 100.08"/><polygon points="574 113.39 522.59 164.63 526.14 164.63 574 116.89 574 113.39"/><polygon points="574 126.7 535.95 164.63 539.49 164.63 574 130.21 574 126.7"/><polygon points="574 140.02 549.31 164.63 552.85 164.63 574 143.53 574 140.02"/><polygon points="574 153.33 562.66 164.63 566.21 164.63 574 156.85 574 153.33"/><path d="M574,0H0V61.22C16,73.75,46.61,95,85.19,108.54c23.2,8.13,45.88,12.21,67.71,12.21a167.68,167.68,0,0,0,27.83-2.29c37.74-6.33,72.32-25.87,102.78-58.08C322.36,19.3,365.12-.41,410.6,1.79c26.67,1.3,69,11.28,119,51.51A349.93,349.93,0,0,1,574,96.16Z" fill="#ffd400"/><path d="M574,90a358.53,358.53,0,0,0-38.62-36.17,281.07,281.07,0,0,0-55.31-35.32c-23.29-11-46.5-17.21-69-18.31C362.83-2.17,317.72,18.48,277,61.57c-29,30.71-61.87,49.34-97.58,55.37-28.62,4.83-59.22,1.66-91-9.43C46.18,92.76,13,67.71,0,57V68.64C16,81.17,46.61,102.45,85.19,116c23.2,8.13,45.88,12.22,67.71,12.22a167.68,167.68,0,0,0,27.83-2.3c37.74-6.33,72.32-25.87,102.78-58.08C322.36,26.72,365.12,7,410.6,9.22c26.67,1.29,69,11.28,119,51.5A349.93,349.93,0,0,1,574,103.58Z"/><path d="M68.71,91.45a2.39,2.39,0,1,1-1.43-3.06,2.39,2.39,0,0,1,1.43,3.06"/><path d="M75.61,94a2.38,2.38,0,1,1-1.42-3,2.38,2.38,0,0,1,1.42,3"/><path d="M98.68,102.36a2.38,2.38,0,1,1-1.43-3.06,2.38,2.38,0,0,1,1.43,3.06"/><path d="M105.58,104.87a2.38,2.38,0,1,1-1.42-3.05,2.38,2.38,0,0,1,1.42,3.05"/><polyline points="64.04 82.56 110.61 99.51 109.54 102.45 62.97 85.5"/><polyline points="73.23 63.1 80.77 65.85 80.98 79.21 97.8 85.33 102.97 80.75 112.11 95.41 111.04 98.34 64.46 81.39"/><path d="M125.15,108.22a2.39,2.39,0,1,1-2.21-2.54,2.37,2.37,0,0,1,2.21,2.54"/><path d="M132.48,108.74a2.39,2.39,0,1,1-2.21-2.55,2.39,2.39,0,0,1,2.21,2.55"/><path d="M157,110.45a2.39,2.39,0,1,1-2.22-2.55,2.39,2.39,0,0,1,2.22,2.55"/><path d="M164.3,111a2.39,2.39,0,1,1-2.22-2.54A2.39,2.39,0,0,1,164.3,111"/><polyline points="118.21 100.97 167.65 104.42 167.44 107.54 117.99 104.08"/><polyline points="121.68 79.73 129.69 80.29 133.57 93.08 151.43 94.33 155.13 88.49 167.96 100.06 167.74 103.18 118.3 99.72"/><path d="M185,107.73a2.38,2.38,0,1,1-3.06-1.43,2.38,2.38,0,0,1,3.06,1.43"/><path d="M191.87,105.21a2.38,2.38,0,1,1-3.05-1.42,2.38,2.38,0,0,1,3.05,1.42"/><path d="M214.94,96.82a2.38,2.38,0,1,1-3.06-1.43,2.38,2.38,0,0,1,3.06,1.43"/><path d="M221.85,94.3a2.39,2.39,0,1,1-3.06-1.42,2.39,2.39,0,0,1,3.06,1.42"/><polyline points="175.68 103.92 222.25 86.97 223.32 89.91 176.75 106.86"/><polyline points="170.21 83.11 177.75 80.36 186.5 90.46 203.33 84.34 204.34 77.51 220.76 82.86 221.83 85.8 175.25 102.75"/></svg>