<svg xmlns="http://www.w3.org/2000/svg" width="229.75" height="460.3" viewBox="0 0 229.75 460.3"><path d="M227.52,207.69l2.23-2.45-90.28-62.75,20.47-1.88v-9.4l-26.18-1.42.32-1.58c0-.12-.19-.26-.53-.41h.19A91.54,91.54,0,0,1,144,104.44c3.15-29.84,4.16-79.13,2.29-104.18L142.51,0,124.23,125.88c-.43,0-.72,0-.74.16l-.54,2.65c-4.91.75-8.67,3.41-9.2,6.68-9.76,2.13-15.24,2.13-22.38,2.15C64,149.71,20.76,173.48,0,187.63L1.66,191,118,144.63c.16.25.31.4.4.37l3.38-1.13c.08,0,.11-.19.1-.42a18.54,18.54,0,0,0,3.86.41h.93c.49.46,1,.9,1.42,1.34l-5.22,315.1h21.57l-5-301.6c.49.74,1,1.49,1.48,2.27,23.49,15.07,64.53,37.12,86.67,46.7"/></svg>