<!-- Generator: Adobe Illustrator 25.2.1, SVG Export Plug-In  -->
<svg version="1.1" xmlns="http://www.w3.org/2000/svg" xmlns:xlink="http://www.w3.org/1999/xlink" x="0px" y="0px" width="33px"
	 height="21px" viewBox="0 0 33 21" style="overflow:visible;enable-background:new 0 0 33 21;" xml:space="preserve">
<style type="text/css">
	.st0{fill:#FFD400;}
</style>
<defs>
</defs>
<path class="st0" d="M28.5,15.6c-0.9,0-1.7-0.8-1.7-1.7c0-0.9,0.8-1.7,1.7-1.7c0.9,0,1.7,0.8,1.7,1.7C30.3,14.8,29.5,15.6,28.5,15.6
	C28.6,15.6,28.5,15.6,28.5,15.6 M6.3,6.8L7.8,2h17.6l1.5,4.7L6.3,6.8z M4.5,15.6C3.5,15.7,2.7,15,2.6,14c-0.1-0.9,0.6-1.8,1.6-1.8
	c0.1,0,0.2,0,0.3,0c0.9-0.1,1.8,0.6,1.8,1.6c0.1,0.9-0.6,1.8-1.6,1.8C4.6,15.6,4.6,15.6,4.5,15.6 M29.6,8.8L26.8,0H6.2L3.4,8.8
	L0,12.5v5.8h1.4V21h4.1v-2.7h22V21h4.1v-2.7H33v-5.8L29.6,8.8z"/>
</svg>
